{"tracks":[{"instrument":{"family":"drums","number":0,"name":"standard kit"},"notes":[{"duration":0.13636349999999986,"midi":27,"time":8.727264,"velocity":0.7874015748031497},{"duration":0.13636349999999986,"midi":27,"time":9.272718,"velocity":0.7874015748031497},{"duration":0.13636349999999986,"midi":27,"time":9.818172,"velocity":0.7874015748031497},{"duration":0.13636349999999986,"midi":27,"time":10.363626,"velocity":0.7874015748031497},{"duration":0.13636349999999986,"midi":27,"time":10.90908,"velocity":0.7874015748031497},{"duration":0.13636349999999986,"midi":27,"time":11.454534,"velocity":0.7874015748031497},{"duration":0.13636349999999986,"midi":27,"time":11.999988,"velocity":0.7874015748031497},{"duration":0.13636349999999986,"midi":27,"time":12.545442,"velocity":0.7874015748031497},{"duration":0.13636349999999986,"midi":27,"time":13.090896,"velocity":0.7874015748031497},{"duration":0.13636349999999986,"midi":27,"time":13.63635,"velocity":0.7874015748031497},{"duration":0.13636349999999986,"midi":27,"time":14.181804,"velocity":0.7874015748031497},{"duration":0.13636350000000164,"midi":27,"time":14.727257999999999,"velocity":0.7874015748031497},{"duration":0.13636349999999986,"midi":27,"time":15.272712,"velocity":0.7874015748031497},{"duration":0.13636349999999986,"midi":27,"time":15.818166,"velocity":0.7874015748031497},{"duration":0.13636349999999808,"midi":27,"time":16.36362,"velocity":0.7874015748031497},{"duration":0.13636349999999808,"midi":27,"time":16.909074,"velocity":0.7874015748031497},{"duration":0.13636350000000164,"midi":27,"time":17.454528,"velocity":0.7874015748031497},{"duration":0.13636350000000164,"midi":27,"time":17.999982,"velocity":0.7874015748031497},{"duration":0.13636350000000164,"midi":27,"time":18.545436,"velocity":0.7874015748031497},{"duration":0.13636350000000164,"midi":27,"time":19.090889999999998,"velocity":0.7874015748031497},{"duration":0.13636349999999808,"midi":27,"time":19.636344,"velocity":0.7874015748031497},{"duration":0.13636349999999808,"midi":27,"time":20.181798,"velocity":0.7874015748031497},{"duration":0.13636349999999808,"midi":27,"time":20.727252,"velocity":0.7874015748031497},{"duration":0.13636350000000164,"midi":27,"time":21.272706,"velocity":0.7874015748031497},{"duration":0.13636350000000164,"midi":27,"time":21.81816,"velocity":0.7874015748031497},{"duration":0.13636350000000164,"midi":27,"time":22.363614,"velocity":0.7874015748031497},{"duration":0.13636349999999808,"midi":27,"time":22.909068,"velocity":0.7874015748031497},{"duration":0.13636349999999808,"midi":27,"time":23.454522,"velocity":0.7874015748031497},{"duration":0.13636349999999808,"midi":27,"time":23.999976,"velocity":0.7874015748031497},{"duration":0.13636350000000164,"midi":27,"time":24.54543,"velocity":0.7874015748031497},{"duration":0.13636350000000164,"midi":27,"time":25.090884,"velocity":0.7874015748031497},{"duration":0.13636350000000164,"midi":27,"time":25.636338,"velocity":0.7874015748031497},{"duration":0.13636349999999808,"midi":27,"time":26.181792,"velocity":0.7874015748031497},{"duration":0.13636349999999808,"midi":27,"time":26.727246,"velocity":0.7874015748031497},{"duration":0.13636349999999808,"midi":27,"time":27.2727,"velocity":0.7874015748031497},{"duration":0.13636350000000164,"midi":27,"time":27.818154,"velocity":0.7874015748031497},{"duration":0.13636350000000164,"midi":27,"time":28.363608,"velocity":0.7874015748031497},{"duration":0.13636350000000164,"midi":27,"time":28.909062,"velocity":0.7874015748031497},{"duration":0.13636350000000164,"midi":27,"time":29.454515999999998,"velocity":0.7874015748031497},{"duration":0.13636349999999808,"midi":27,"time":29.99997,"velocity":0.7874015748031497},{"duration":0.13636349999999808,"midi":27,"time":30.545424,"velocity":0.7874015748031497},{"duration":0.13636349999999808,"midi":27,"time":31.090878,"velocity":0.7874015748031497},{"duration":0.13636350000000164,"midi":27,"time":31.636332,"velocity":0.7874015748031497},{"duration":0.13636349999999453,"midi":27,"time":32.181786,"velocity":0.7874015748031497},{"duration":0.13636349999999453,"midi":27,"time":32.72724,"velocity":0.7874015748031497},{"duration":0.13636350000000164,"midi":27,"time":33.272694,"velocity":0.7874015748031497},{"duration":0.13636350000000164,"midi":27,"time":33.818148,"velocity":0.7874015748031497},{"duration":0.13636350000000164,"midi":27,"time":34.363602,"velocity":0.7874015748031497},{"duration":0.13636349999999453,"midi":27,"time":52.363584,"velocity":0.7874015748031497},{"duration":0.13636349999999453,"midi":27,"time":52.909038,"velocity":0.7874015748031497},{"duration":0.13636349999999453,"midi":27,"time":53.454492,"velocity":0.7874015748031497},{"duration":0.13636350000000164,"midi":27,"time":53.999946,"velocity":0.7874015748031497},{"duration":0.13636350000000164,"midi":27,"time":54.5454,"velocity":0.7874015748031497},{"duration":0.13636350000000164,"midi":27,"time":55.090854,"velocity":0.7874015748031497},{"duration":0.13636350000000164,"midi":27,"time":55.636308,"velocity":0.7874015748031497},{"duration":0.13636350000000164,"midi":27,"time":56.181762,"velocity":0.7874015748031497},{"duration":0.13636350000000164,"midi":27,"time":56.727216,"velocity":0.7874015748031497},{"duration":0.13636350000000164,"midi":27,"time":57.27267,"velocity":0.7874015748031497},{"duration":0.13636350000000164,"midi":27,"time":57.818124,"velocity":0.7874015748031497},{"duration":0.13636350000000164,"midi":27,"time":58.363578,"velocity":0.7874015748031497},{"duration":0.13636350000000164,"midi":27,"time":58.909031999999996,"velocity":0.7874015748031497},{"duration":0.13636349999999453,"midi":27,"time":59.454486,"velocity":0.7874015748031497},{"duration":0.13636349999999453,"midi":27,"time":59.99994,"velocity":0.7874015748031497},{"duration":0.13636349999999453,"midi":27,"time":60.545394,"velocity":0.7874015748031497},{"duration":0.13636350000000164,"midi":27,"time":61.090848,"velocity":0.7874015748031497},{"duration":0.13636350000000164,"midi":27,"time":61.636302,"velocity":0.7874015748031497},{"duration":0.13636350000000164,"midi":27,"time":62.181756,"velocity":0.7874015748031497},{"duration":0.13636350000000164,"midi":27,"time":62.72721,"velocity":0.7874015748031497},{"duration":0.13636350000000164,"midi":27,"time":63.272664,"velocity":0.7874015748031497},{"duration":0.13636350000000164,"midi":27,"time":63.818118,"velocity":0.7874015748031497},{"duration":0.13636349999998743,"midi":27,"time":64.363572,"velocity":0.7874015748031497},{"duration":0.13636350000000164,"midi":27,"time":64.909026,"velocity":0.7874015748031497},{"duration":0.13636350000000164,"midi":27,"time":65.45448,"velocity":0.7874015748031497},{"duration":0.13636350000000164,"midi":27,"time":65.999934,"velocity":0.7874015748031497},{"duration":0.13636350000000164,"midi":27,"time":66.545388,"velocity":0.7874015748031497},{"duration":0.13636350000000164,"midi":27,"time":67.090842,"velocity":0.7874015748031497},{"duration":0.13636350000000164,"midi":27,"time":67.636296,"velocity":0.7874015748031497},{"duration":0.13636350000000164,"midi":27,"time":68.18175,"velocity":0.7874015748031497},{"duration":0.13636350000000164,"midi":27,"time":68.727204,"velocity":0.7874015748031497},{"duration":0.13636350000000164,"midi":27,"time":69.27265799999999,"velocity":0.7874015748031497},{"duration":0.13636349999998743,"midi":27,"time":139.636224,"velocity":0.7874015748031497},{"duration":0.13636349999998743,"midi":27,"time":140.181678,"velocity":0.7874015748031497},{"duration":0.13636349999998743,"midi":27,"time":140.727132,"velocity":0.7874015748031497},{"duration":0.13636350000001585,"midi":27,"time":141.272586,"velocity":0.7874015748031497},{"duration":0.13636350000001585,"midi":27,"time":141.81804,"velocity":0.7874015748031497},{"duration":0.13636349999998743,"midi":27,"time":142.363494,"velocity":0.7874015748031497},{"duration":0.13636349999998743,"midi":27,"time":142.908948,"velocity":0.7874015748031497},{"duration":0.13636350000001585,"midi":27,"time":143.454402,"velocity":0.7874015748031497},{"duration":0.13636350000001585,"midi":27,"time":143.999856,"velocity":0.7874015748031497},{"duration":0.13636349999998743,"midi":27,"time":144.54531,"velocity":0.7874015748031497},{"duration":0.13636349999998743,"midi":27,"time":145.090764,"velocity":0.7874015748031497},{"duration":0.13636350000001585,"midi":27,"time":145.63621799999999,"velocity":0.7874015748031497},{"duration":0.13636350000001585,"midi":27,"time":146.181672,"velocity":0.7874015748031497},{"duration":0.13636349999998743,"midi":27,"time":146.727126,"velocity":0.7874015748031497},{"duration":0.13636349999998743,"midi":27,"time":147.27258,"velocity":0.7874015748031497},{"duration":0.13636349999998743,"midi":27,"time":147.818034,"velocity":0.7874015748031497},{"duration":0.13636350000001585,"midi":27,"time":148.363488,"velocity":0.7874015748031497},{"duration":0.13636350000001585,"midi":27,"time":148.908942,"velocity":0.7874015748031497},{"duration":0.13636349999998743,"midi":27,"time":149.454396,"velocity":0.7874015748031497},{"duration":0.13636349999998743,"midi":27,"time":149.99985,"velocity":0.7874015748031497},{"duration":0.13636350000001585,"midi":27,"time":150.545304,"velocity":0.7874015748031497},{"duration":0.13636350000001585,"midi":27,"time":151.090758,"velocity":0.7874015748031497},{"duration":0.13636349999998743,"midi":27,"time":151.636212,"velocity":0.7874015748031497},{"duration":0.13636349999998743,"midi":27,"time":152.181666,"velocity":0.7874015748031497},{"duration":0.13636350000001585,"midi":27,"time":152.72711999999999,"velocity":0.7874015748031497},{"duration":0.13636350000001585,"midi":27,"time":153.272574,"velocity":0.7874015748031497},{"duration":0.13636349999998743,"midi":27,"time":153.818028,"velocity":0.7874015748031497},{"duration":0.13636349999998743,"midi":27,"time":154.363482,"velocity":0.7874015748031497},{"duration":0.13636349999998743,"midi":27,"time":154.908936,"velocity":0.7874015748031497},{"duration":0.13636350000001585,"midi":27,"time":155.45439,"velocity":0.7874015748031497},{"duration":0.13636350000001585,"midi":27,"time":155.999844,"velocity":0.7874015748031497},{"duration":0.13636349999998743,"midi":27,"time":156.545298,"velocity":0.7874015748031497},{"duration":0.13636349999998743,"midi":35,"time":157.090752,"velocity":0.7874015748031497},{"duration":0.13636349999998743,"midi":38,"time":157.090752,"velocity":0.7874015748031497},{"duration":0.13636350000001585,"midi":35,"time":157.2271155,"velocity":0.7874015748031497},{"duration":0.13636350000001585,"midi":38,"time":157.2271155,"velocity":0.7874015748031497},{"duration":0.13636350000001585,"midi":35,"time":157.636206,"velocity":0.7874015748031497},{"duration":0.13636350000001585,"midi":38,"time":157.636206,"velocity":0.7874015748031497},{"duration":0.13636349999998743,"midi":35,"time":157.7725695,"velocity":0.7874015748031497},{"duration":0.13636350000001585,"midi":38,"time":158.18166,"velocity":0.7874015748031497},{"duration":0.13636350000001585,"midi":35,"time":158.18166,"velocity":0.7874015748031497},{"duration":0.13636349999998743,"midi":38,"time":158.3180235,"velocity":0.7874015748031497},{"duration":0.13636349999998743,"midi":35,"time":158.3180235,"velocity":0.7874015748031497},{"duration":0.13636349999998743,"midi":35,"time":158.727114,"velocity":0.7874015748031497},{"duration":0.13636349999998743,"midi":38,"time":158.727114,"velocity":0.7874015748031497},{"duration":0.13636350000001585,"midi":35,"time":158.8634775,"velocity":0.7874015748031497},{"duration":0.13636349999998743,"midi":38,"time":159.272568,"velocity":0.7874015748031497},{"duration":0.13636349999998743,"midi":35,"time":159.272568,"velocity":0.7874015748031497},{"duration":0.13636350000001585,"midi":38,"time":159.4089315,"velocity":0.7874015748031497},{"duration":0.13636350000001585,"midi":35,"time":159.4089315,"velocity":0.7874015748031497},{"duration":0.13636350000001585,"midi":38,"time":159.81802199999998,"velocity":0.7874015748031497},{"duration":0.13636350000001585,"midi":35,"time":159.81802199999998,"velocity":0.7874015748031497},{"duration":0.13636349999998743,"midi":35,"time":159.9543855,"velocity":0.7874015748031497},{"duration":0.13636350000001585,"midi":38,"time":160.363476,"velocity":0.7874015748031497},{"duration":0.13636350000001585,"midi":35,"time":160.363476,"velocity":0.7874015748031497},{"duration":0.13636349999998743,"midi":35,"time":160.4998395,"velocity":0.7874015748031497},{"duration":0.13636349999998743,"midi":38,"time":160.4998395,"velocity":0.7874015748031497},{"duration":0.13636349999998743,"midi":35,"time":160.90893,"velocity":0.7874015748031497},{"duration":0.13636349999998743,"midi":38,"time":160.90893,"velocity":0.7874015748031497},{"duration":0.13636350000001585,"midi":35,"time":161.04529349999999,"velocity":0.7874015748031497},{"duration":0.13636350000001585,"midi":38,"time":161.04529349999999,"velocity":0.7874015748031497},{"duration":0.13636349999998743,"midi":35,"time":161.454384,"velocity":0.7874015748031497},{"duration":0.13636349999998743,"midi":38,"time":161.454384,"velocity":0.7874015748031497},{"duration":0.13636350000001585,"midi":38,"time":161.5907475,"velocity":0.7874015748031497},{"duration":0.13636350000001585,"midi":35,"time":161.5907475,"velocity":0.7874015748031497},{"duration":0.13636349999998743,"midi":35,"time":161.999838,"velocity":0.7874015748031497},{"duration":0.13636349999998743,"midi":38,"time":161.999838,"velocity":0.7874015748031497},{"duration":0.13636349999998743,"midi":35,"time":162.1362015,"velocity":0.7874015748031497},{"duration":0.13636350000001585,"midi":35,"time":162.545292,"velocity":0.7874015748031497},{"duration":0.13636350000001585,"midi":38,"time":162.545292,"velocity":0.7874015748031497},{"duration":0.13636349999998743,"midi":38,"time":162.6816555,"velocity":0.7874015748031497},{"duration":0.13636349999998743,"midi":35,"time":162.6816555,"velocity":0.7874015748031497},{"duration":0.13636350000001585,"midi":35,"time":163.090746,"velocity":0.7874015748031497},{"duration":0.13636350000001585,"midi":38,"time":163.090746,"velocity":0.7874015748031497},{"duration":0.13636349999998743,"midi":35,"time":163.2271095,"velocity":0.7874015748031497},{"duration":0.13636349999998743,"midi":38,"time":163.6362,"velocity":0.7874015748031497},{"duration":0.13636349999998743,"midi":35,"time":163.6362,"velocity":0.7874015748031497},{"duration":0.13636350000001585,"midi":38,"time":163.7725635,"velocity":0.7874015748031497},{"duration":0.13636350000001585,"midi":35,"time":163.7725635,"velocity":0.7874015748031497},{"duration":0.13636349999998743,"midi":35,"time":164.181654,"velocity":0.7874015748031497},{"duration":0.13636349999998743,"midi":38,"time":164.181654,"velocity":0.7874015748031497},{"duration":0.13636350000001585,"midi":35,"time":164.3180175,"velocity":0.7874015748031497},{"duration":0.13636350000001585,"midi":35,"time":164.727108,"velocity":0.7874015748031497},{"duration":0.13636350000001585,"midi":38,"time":164.727108,"velocity":0.7874015748031497},{"duration":0.13636349999998743,"midi":38,"time":164.8634715,"velocity":0.7874015748031497},{"duration":0.13636349999998743,"midi":35,"time":164.8634715,"velocity":0.7874015748031497},{"duration":0.13636350000001585,"midi":35,"time":165.272562,"velocity":0.7874015748031497},{"duration":0.13636350000001585,"midi":38,"time":165.272562,"velocity":0.7874015748031497},{"duration":0.13636349999998743,"midi":35,"time":165.4089255,"velocity":0.7874015748031497},{"duration":0.13636349999998743,"midi":38,"time":165.4089255,"velocity":0.7874015748031497},{"duration":0.13636349999998743,"midi":35,"time":165.818016,"velocity":0.7874015748031497},{"duration":0.13636349999998743,"midi":38,"time":165.818016,"velocity":0.7874015748031497},{"duration":0.13636350000001585,"midi":38,"time":165.9543795,"velocity":0.7874015748031497},{"duration":0.13636350000001585,"midi":35,"time":165.9543795,"velocity":0.7874015748031497},{"duration":0.13636349999998743,"midi":35,"time":166.36347,"velocity":0.7874015748031497},{"duration":0.13636349999998743,"midi":38,"time":166.36347,"velocity":0.7874015748031497},{"duration":0.13636350000001585,"midi":35,"time":166.4998335,"velocity":0.7874015748031497},{"duration":0.13636350000001585,"midi":38,"time":166.90892399999998,"velocity":0.7874015748031497},{"duration":0.13636350000001585,"midi":35,"time":166.90892399999998,"velocity":0.7874015748031497},{"duration":0.13636349999998743,"midi":38,"time":167.0452875,"velocity":0.7874015748031497},{"duration":0.13636349999998743,"midi":35,"time":167.0452875,"velocity":0.7874015748031497},{"duration":0.13636350000001585,"midi":35,"time":167.454378,"velocity":0.7874015748031497},{"duration":0.13636350000001585,"midi":38,"time":167.454378,"velocity":0.7874015748031497},{"duration":0.13636349999998743,"midi":35,"time":167.5907415,"velocity":0.7874015748031497},{"duration":0.13636349999998743,"midi":35,"time":167.999832,"velocity":0.7874015748031497},{"duration":0.13636349999998743,"midi":38,"time":167.999832,"velocity":0.7874015748031497},{"duration":0.13636350000001585,"midi":35,"time":168.13619549999999,"velocity":0.7874015748031497},{"duration":0.13636350000001585,"midi":38,"time":168.13619549999999,"velocity":0.7874015748031497},{"duration":0.13636349999998743,"midi":38,"time":168.545286,"velocity":0.7874015748031497},{"duration":0.13636349999998743,"midi":35,"time":168.545286,"velocity":0.7874015748031497},{"duration":0.13636350000001585,"midi":35,"time":168.6816495,"velocity":0.7874015748031497},{"duration":0.13636349999998743,"midi":38,"time":169.09074,"velocity":0.7874015748031497},{"duration":0.13636349999998743,"midi":35,"time":169.09074,"velocity":0.7874015748031497},{"duration":0.13636349999998743,"midi":38,"time":169.2271035,"velocity":0.7874015748031497},{"duration":0.13636349999998743,"midi":35,"time":169.2271035,"velocity":0.7874015748031497},{"duration":0.13636350000001585,"midi":38,"time":169.636194,"velocity":0.7874015748031497},{"duration":0.13636350000001585,"midi":35,"time":169.636194,"velocity":0.7874015748031497},{"duration":0.13636349999998743,"midi":38,"time":169.7725575,"velocity":0.7874015748031497},{"duration":0.13636349999998743,"midi":35,"time":169.7725575,"velocity":0.7874015748031497},{"duration":0.13636350000001585,"midi":35,"time":170.181648,"velocity":0.7874015748031497},{"duration":0.13636350000001585,"midi":38,"time":170.181648,"velocity":0.7874015748031497},{"duration":0.13636349999998743,"midi":38,"time":170.3180115,"velocity":0.7874015748031497},{"duration":0.13636349999998743,"midi":35,"time":170.3180115,"velocity":0.7874015748031497},{"duration":0.13636349999998743,"midi":38,"time":170.727102,"velocity":0.7874015748031497},{"duration":0.13636349999998743,"midi":35,"time":170.727102,"velocity":0.7874015748031497},{"duration":0.13636350000001585,"midi":35,"time":170.8634655,"velocity":0.7874015748031497},{"duration":0.13636349999998743,"midi":38,"time":171.272556,"velocity":0.7874015748031497},{"duration":0.13636349999998743,"midi":35,"time":171.272556,"velocity":0.7874015748031497},{"duration":0.13636350000001585,"midi":35,"time":171.4089195,"velocity":0.7874015748031497},{"duration":0.13636350000001585,"midi":38,"time":171.4089195,"velocity":0.7874015748031497},{"duration":0.13636350000001585,"midi":38,"time":171.81801,"velocity":0.7874015748031497},{"duration":0.13636350000001585,"midi":35,"time":171.81801,"velocity":0.7874015748031497},{"duration":0.13636349999998743,"midi":35,"time":171.9543735,"velocity":0.7874015748031497},{"duration":0.13636350000001585,"midi":38,"time":172.363464,"velocity":0.7874015748031497},{"duration":0.13636350000001585,"midi":35,"time":172.363464,"velocity":0.7874015748031497},{"duration":0.13636349999998743,"midi":38,"time":172.4998275,"velocity":0.7874015748031497},{"duration":0.13636349999998743,"midi":38,"time":172.908918,"velocity":0.7874015748031497},{"duration":0.13636350000001585,"midi":38,"time":174.54528,"velocity":0.7874015748031497},{"duration":0.13636350000001585,"midi":35,"time":174.54528,"velocity":0.7874015748031497},{"duration":0.13636349999998743,"midi":35,"time":174.6816435,"velocity":0.7874015748031497},{"duration":0.13636349999998743,"midi":38,"time":174.6816435,"velocity":0.7874015748031497},{"duration":0.13636349999998743,"midi":38,"time":175.090734,"velocity":0.7874015748031497},{"duration":0.13636349999998743,"midi":35,"time":175.090734,"velocity":0.7874015748031497},{"duration":0.13636350000001585,"midi":35,"time":175.22709749999999,"velocity":0.7874015748031497},{"duration":0.13636349999998743,"midi":38,"time":175.636188,"velocity":0.7874015748031497},{"duration":0.13636349999998743,"midi":35,"time":175.636188,"velocity":0.7874015748031497},{"duration":0.13636350000001585,"midi":38,"time":175.7725515,"velocity":0.7874015748031497},{"duration":0.13636350000001585,"midi":35,"time":175.7725515,"velocity":0.7874015748031497},{"duration":0.13636349999998743,"midi":38,"time":176.181642,"velocity":0.7874015748031497},{"duration":0.13636349999998743,"midi":35,"time":176.181642,"velocity":0.7874015748031497},{"duration":0.13636349999998743,"midi":35,"time":176.3180055,"velocity":0.7874015748031497},{"duration":0.13636350000001585,"midi":38,"time":176.727096,"velocity":0.7874015748031497},{"duration":0.13636350000001585,"midi":35,"time":176.727096,"velocity":0.7874015748031497},{"duration":0.13636349999998743,"midi":35,"time":176.8634595,"velocity":0.7874015748031497},{"duration":0.13636349999998743,"midi":38,"time":176.8634595,"velocity":0.7874015748031497},{"duration":0.13636350000001585,"midi":38,"time":177.27255,"velocity":0.7874015748031497},{"duration":0.13636350000001585,"midi":35,"time":177.27255,"velocity":0.7874015748031497},{"duration":0.13636349999998743,"midi":35,"time":177.4089135,"velocity":0.7874015748031497},{"duration":0.13636349999998743,"midi":35,"time":177.818004,"velocity":0.7874015748031497},{"duration":0.13636349999998743,"midi":38,"time":177.818004,"velocity":0.7874015748031497},{"duration":0.13636350000001585,"midi":38,"time":177.9543675,"velocity":0.7874015748031497},{"duration":0.13636350000001585,"midi":35,"time":177.9543675,"velocity":0.7874015748031497},{"duration":0.13636349999998743,"midi":35,"time":178.363458,"velocity":0.7874015748031497},{"duration":0.13636349999998743,"midi":38,"time":178.363458,"velocity":0.7874015748031497},{"duration":0.13636350000001585,"midi":35,"time":178.4998215,"velocity":0.7874015748031497},{"duration":0.13636350000001585,"midi":38,"time":178.4998215,"velocity":0.7874015748031497},{"duration":0.13636350000001585,"midi":35,"time":178.908912,"velocity":0.7874015748031497},{"duration":0.13636350000001585,"midi":38,"time":178.908912,"velocity":0.7874015748031497},{"duration":0.13636349999998743,"midi":35,"time":179.0452755,"velocity":0.7874015748031497},{"duration":0.13636349999998743,"midi":38,"time":179.0452755,"velocity":0.7874015748031497},{"duration":0.13636350000001585,"midi":38,"time":179.454366,"velocity":0.7874015748031497},{"duration":0.13636350000001585,"midi":35,"time":179.454366,"velocity":0.7874015748031497},{"duration":0.13636349999998743,"midi":35,"time":179.5907295,"velocity":0.7874015748031497},{"duration":0.13636349999998743,"midi":35,"time":179.99982,"velocity":0.7874015748031497},{"duration":0.13636349999998743,"midi":38,"time":179.99982,"velocity":0.7874015748031497},{"duration":0.13636350000001585,"midi":35,"time":180.1361835,"velocity":0.7874015748031497},{"duration":0.13636350000001585,"midi":38,"time":180.1361835,"velocity":0.7874015748031497},{"duration":0.13636349999998743,"midi":38,"time":180.545274,"velocity":0.7874015748031497},{"duration":0.13636349999998743,"midi":35,"time":180.545274,"velocity":0.7874015748031497},{"duration":0.13636350000001585,"midi":35,"time":180.6816375,"velocity":0.7874015748031497},{"duration":0.13636350000001585,"midi":38,"time":181.09072799999998,"velocity":0.7874015748031497},{"duration":0.13636350000001585,"midi":35,"time":181.09072799999998,"velocity":0.7874015748031497},{"duration":0.13636349999998743,"midi":38,"time":181.2270915,"velocity":0.7874015748031497},{"duration":0.13636349999998743,"midi":35,"time":181.2270915,"velocity":0.7874015748031497},{"duration":0.13636350000001585,"midi":35,"time":181.636182,"velocity":0.7874015748031497},{"duration":0.13636350000001585,"midi":38,"time":181.636182,"velocity":0.7874015748031497},{"duration":0.13636349999998743,"midi":35,"time":181.7725455,"velocity":0.7874015748031497},{"duration":0.13636349999998743,"midi":38,"time":182.181636,"velocity":0.7874015748031497},{"duration":0.13636349999998743,"midi":35,"time":182.181636,"velocity":0.7874015748031497},{"duration":0.13636350000001585,"midi":35,"time":182.31799949999998,"velocity":0.7874015748031497},{"duration":0.13636350000001585,"midi":38,"time":182.31799949999998,"velocity":0.7874015748031497},{"duration":0.13636349999998743,"midi":35,"time":182.72709,"velocity":0.7874015748031497},{"duration":0.13636349999998743,"midi":38,"time":182.72709,"velocity":0.7874015748031497},{"duration":0.13636350000001585,"midi":35,"time":182.8634535,"velocity":0.7874015748031497},{"duration":0.13636350000001585,"midi":38,"time":182.8634535,"velocity":0.7874015748031497},{"duration":0.13636349999998743,"midi":38,"time":183.272544,"velocity":0.7874015748031497},{"duration":0.13636349999998743,"midi":35,"time":183.272544,"velocity":0.7874015748031497},{"duration":0.13636349999998743,"midi":38,"time":183.4089075,"velocity":0.7874015748031497},{"duration":0.13636349999998743,"midi":35,"time":183.4089075,"velocity":0.7874015748031497},{"duration":0.13636350000001585,"midi":35,"time":183.817998,"velocity":0.7874015748031497},{"duration":0.13636350000001585,"midi":38,"time":183.817998,"velocity":0.7874015748031497},{"duration":0.13636349999998743,"midi":35,"time":183.9543615,"velocity":0.7874015748031497},{"duration":0.13636350000001585,"midi":35,"time":184.363452,"velocity":0.7874015748031497},{"duration":0.13636350000001585,"midi":38,"time":184.363452,"velocity":0.7874015748031497},{"duration":0.13636349999998743,"midi":35,"time":184.4998155,"velocity":0.7874015748031497},{"duration":0.13636349999998743,"midi":38,"time":184.4998155,"velocity":0.7874015748031497},{"duration":0.13636349999998743,"midi":38,"time":184.908906,"velocity":0.7874015748031497},{"duration":0.13636349999998743,"midi":35,"time":184.908906,"velocity":0.7874015748031497},{"duration":0.13636350000001585,"midi":35,"time":185.0452695,"velocity":0.7874015748031497},{"duration":0.13636349999998743,"midi":38,"time":185.45436,"velocity":0.7874015748031497},{"duration":0.13636349999998743,"midi":35,"time":185.45436,"velocity":0.7874015748031497},{"duration":0.13636350000001585,"midi":35,"time":185.5907235,"velocity":0.7874015748031497},{"duration":0.13636350000001585,"midi":38,"time":185.5907235,"velocity":0.7874015748031497},{"duration":0.13636350000001585,"midi":35,"time":185.999814,"velocity":0.7874015748031497},{"duration":0.13636350000001585,"midi":38,"time":185.999814,"velocity":0.7874015748031497},{"duration":0.13636349999998743,"midi":35,"time":186.1361775,"velocity":0.7874015748031497},{"duration":0.13636350000001585,"midi":35,"time":186.545268,"velocity":0.7874015748031497},{"duration":0.13636350000001585,"midi":38,"time":186.545268,"velocity":0.7874015748031497},{"duration":0.13636349999998743,"midi":35,"time":186.6816315,"velocity":0.7874015748031497},{"duration":0.13636349999998743,"midi":38,"time":186.6816315,"velocity":0.7874015748031497},{"duration":0.13636349999998743,"midi":35,"time":187.090722,"velocity":0.7874015748031497},{"duration":0.13636349999998743,"midi":38,"time":187.090722,"velocity":0.7874015748031497},{"duration":0.13636350000001585,"midi":38,"time":187.2270855,"velocity":0.7874015748031497},{"duration":0.13636350000001585,"midi":35,"time":187.2270855,"velocity":0.7874015748031497},{"duration":0.13636349999998743,"midi":38,"time":187.636176,"velocity":0.7874015748031497},{"duration":0.13636349999998743,"midi":35,"time":187.636176,"velocity":0.7874015748031497},{"duration":0.13636350000001585,"midi":38,"time":187.7725395,"velocity":0.7874015748031497},{"duration":0.13636350000001585,"midi":35,"time":187.7725395,"velocity":0.7874015748031497},{"duration":0.13636350000001585,"midi":35,"time":188.18162999999998,"velocity":0.7874015748031497},{"duration":0.13636350000001585,"midi":38,"time":188.18162999999998,"velocity":0.7874015748031497},{"duration":0.13636349999998743,"midi":35,"time":188.3179935,"velocity":0.7874015748031497},{"duration":0.13636350000001585,"midi":38,"time":188.727084,"velocity":0.7874015748031497},{"duration":0.13636350000001585,"midi":35,"time":188.727084,"velocity":0.7874015748031497},{"duration":0.13636349999998743,"midi":35,"time":188.8634475,"velocity":0.7874015748031497},{"duration":0.13636349999998743,"midi":38,"time":188.8634475,"velocity":0.7874015748031497},{"duration":0.13636349999998743,"midi":35,"time":189.272538,"velocity":0.7874015748031497},{"duration":0.13636349999998743,"midi":38,"time":189.272538,"velocity":0.7874015748031497},{"duration":0.13636350000001585,"midi":35,"time":189.40890149999998,"velocity":0.7874015748031497},{"duration":0.13636349999998743,"midi":38,"time":189.817992,"velocity":0.7874015748031497},{"duration":0.13636349999998743,"midi":35,"time":189.817992,"velocity":0.7874015748031497},{"duration":0.13636350000001585,"midi":38,"time":189.9543555,"velocity":0.7874015748031497},{"duration":0.13636349999998743,"midi":38,"time":190.363446,"velocity":0.7874015748031497}]},{"instrument":{"family":"guitar","number":29,"name":"overdriven guitar"},"notes":[{"duration":0.272727,"midi":51,"time":0,"velocity":0.7244094488188977},{"duration":0.272727,"midi":39,"time":0.272727,"velocity":0.7244094488188977},{"duration":0.27272700000000005,"midi":39,"time":0.6818175,"velocity":0.7244094488188977},{"duration":0.27272699999999994,"midi":39,"time":1.090908,"velocity":0.7244094488188977},{"duration":0.27272700000000016,"midi":39,"time":1.363635,"velocity":0.7244094488188977},{"duration":0.27272699999999994,"midi":39,"time":1.4999985,"velocity":0.7244094488188977},{"duration":0.27272699999999994,"midi":50,"time":1.909089,"velocity":0.7244094488188977},{"duration":0.2727269999999997,"midi":52,"time":2.0454525,"velocity":0.7244094488188977},{"duration":0.27272700000000016,"midi":51,"time":2.181816,"velocity":0.7244094488188977},{"duration":0.2727269999999997,"midi":39,"time":2.454543,"velocity":0.7244094488188977},{"duration":0.2727269999999997,"midi":39,"time":2.8636335,"velocity":0.7244094488188977},{"duration":0.2727269999999997,"midi":40,"time":3.272724,"velocity":0.7244094488188977},{"duration":0.27272700000000016,"midi":52,"time":3.6818144999999998,"velocity":0.7244094488188977},{"duration":0.2727269999999997,"midi":40,"time":4.090905,"velocity":0.7244094488188977},{"duration":0.2727269999999997,"midi":51,"time":4.363632,"velocity":0.7244094488188977},{"duration":0.2727270000000006,"midi":39,"time":4.636359,"velocity":0.7244094488188977},{"duration":0.2727269999999997,"midi":39,"time":5.0454495,"velocity":0.7244094488188977},{"duration":0.2727270000000006,"midi":39,"time":5.45454,"velocity":0.7244094488188977},{"duration":0.2727269999999997,"midi":39,"time":5.727267,"velocity":0.7244094488188977},{"duration":0.2727269999999997,"midi":39,"time":5.8636305,"velocity":0.7244094488188977},{"duration":0.2727270000000006,"midi":50,"time":6.272721,"velocity":0.7244094488188977},{"duration":0.2727270000000006,"midi":52,"time":6.4090845,"velocity":0.7244094488188977},{"duration":0.2727269999999997,"midi":51,"time":6.545448,"velocity":0.7244094488188977},{"duration":0.2727269999999997,"midi":39,"time":6.818175,"velocity":0.7244094488188977},{"duration":0.2727270000000006,"midi":39,"time":7.2272655,"velocity":0.7244094488188977},{"duration":0.2727270000000006,"midi":51,"time":7.3636289999999995,"velocity":0.7244094488188977},{"duration":0.2727269999999997,"midi":52,"time":7.4999925,"velocity":0.7244094488188977},{"duration":0.2727270000000006,"midi":38,"time":7.7727195,"velocity":0.7244094488188977},{"duration":0.2727269999999997,"midi":38,"time":8.0454465,"velocity":0.7244094488188977},{"duration":0.2727269999999997,"midi":38,"time":8.3181735,"velocity":0.7244094488188977},{"duration":0.06818174999999904,"midi":38,"time":8.5909005,"velocity":0.7244094488188977},{"duration":0.2727269999999997,"midi":51,"time":8.727264,"velocity":0.7244094488188977},{"duration":0.2727269999999997,"midi":39,"time":8.727264,"velocity":0.7244094488188977},{"duration":0.2727269999999997,"midi":27,"time":8.999991,"velocity":0.7244094488188977},{"duration":0.2727269999999997,"midi":39,"time":8.999991,"velocity":0.7244094488188977},{"duration":0.2727270000000015,"midi":27,"time":9.4090815,"velocity":0.7244094488188977},{"duration":0.2727270000000015,"midi":39,"time":9.4090815,"velocity":0.7244094488188977},{"duration":0.2727269999999997,"midi":39,"time":9.818172,"velocity":0.7244094488188977},{"duration":0.2727269999999997,"midi":27,"time":9.818172,"velocity":0.7244094488188977},{"duration":0.2727269999999997,"midi":27,"time":10.090899,"velocity":0.7244094488188977},{"duration":0.2727269999999997,"midi":39,"time":10.090899,"velocity":0.7244094488188977},{"duration":0.2727269999999997,"midi":39,"time":10.2272625,"velocity":0.7244094488188977},{"duration":0.2727269999999997,"midi":27,"time":10.2272625,"velocity":0.7244094488188977},{"duration":0.13636349999999986,"midi":39,"time":10.4999895,"velocity":0.7244094488188977},{"duration":0.2727269999999997,"midi":50,"time":10.636353,"velocity":0.7244094488188977},{"duration":0.2727269999999997,"midi":38,"time":10.636353,"velocity":0.7244094488188977},{"duration":0.2727269999999997,"midi":52,"time":10.7727165,"velocity":0.7244094488188977},{"duration":0.2727269999999997,"midi":40,"time":10.7727165,"velocity":0.7244094488188977},{"duration":0.2727269999999997,"midi":51,"time":10.90908,"velocity":0.7244094488188977},{"duration":0.2727269999999997,"midi":39,"time":10.90908,"velocity":0.7244094488188977},{"duration":0.2727270000000015,"midi":39,"time":11.181807,"velocity":0.7244094488188977},{"duration":0.2727270000000015,"midi":27,"time":11.181807,"velocity":0.7244094488188977},{"duration":0.2727269999999997,"midi":27,"time":11.5908975,"velocity":0.7244094488188977},{"duration":0.2727269999999997,"midi":39,"time":11.5908975,"velocity":0.7244094488188977},{"duration":0.2727269999999997,"midi":28,"time":11.999988,"velocity":0.7244094488188977},{"duration":0.2727269999999997,"midi":40,"time":11.999988,"velocity":0.7244094488188977},{"duration":0.2727269999999997,"midi":52,"time":12.4090785,"velocity":0.7244094488188977},{"duration":0.2727269999999997,"midi":40,"time":12.4090785,"velocity":0.7244094488188977},{"duration":0.2727270000000015,"midi":28,"time":12.818169,"velocity":0.7244094488188977},{"duration":0.2727270000000015,"midi":40,"time":12.818169,"velocity":0.7244094488188977},{"duration":0.2727269999999997,"midi":39,"time":13.090896,"velocity":0.7244094488188977},{"duration":0.2727269999999997,"midi":51,"time":13.090896,"velocity":0.7244094488188977},{"duration":0.2727269999999997,"midi":39,"time":13.363623,"velocity":0.7244094488188977},{"duration":0.2727269999999997,"midi":27,"time":13.363623,"velocity":0.7244094488188977},{"duration":0.2727269999999997,"midi":39,"time":13.7727135,"velocity":0.7244094488188977},{"duration":0.2727269999999997,"midi":27,"time":13.7727135,"velocity":0.7244094488188977},{"duration":0.2727269999999997,"midi":39,"time":14.181804,"velocity":0.7244094488188977},{"duration":0.2727269999999997,"midi":27,"time":14.181804,"velocity":0.7244094488188977},{"duration":0.2727269999999997,"midi":27,"time":14.454531,"velocity":0.7244094488188977},{"duration":0.2727269999999997,"midi":39,"time":14.454531,"velocity":0.7244094488188977},{"duration":0.2727270000000015,"midi":39,"time":14.5908945,"velocity":0.7244094488188977},{"duration":0.2727270000000015,"midi":27,"time":14.5908945,"velocity":0.7244094488188977},{"duration":0.13636349999999986,"midi":39,"time":14.8636215,"velocity":0.7244094488188977},{"duration":0.2727269999999997,"midi":50,"time":14.999985,"velocity":0.7244094488188977},{"duration":0.2727269999999997,"midi":38,"time":14.999985,"velocity":0.7244094488188977},{"duration":0.2727269999999997,"midi":52,"time":15.1363485,"velocity":0.7244094488188977},{"duration":0.2727269999999997,"midi":40,"time":15.1363485,"velocity":0.7244094488188977},{"duration":0.2727269999999997,"midi":51,"time":15.272712,"velocity":0.7244094488188977},{"duration":0.2727269999999997,"midi":39,"time":15.272712,"velocity":0.7244094488188977},{"duration":0.2727269999999997,"midi":27,"time":15.545439,"velocity":0.7244094488188977},{"duration":0.2727269999999997,"midi":39,"time":15.545439,"velocity":0.7244094488188977},{"duration":0.2727269999999997,"midi":39,"time":15.9545295,"velocity":0.7244094488188977},{"duration":0.2727269999999997,"midi":27,"time":15.9545295,"velocity":0.7244094488188977},{"duration":0.2727269999999997,"midi":51,"time":16.090893,"velocity":0.7244094488188977},{"duration":0.2727269999999997,"midi":52,"time":16.2272565,"velocity":0.7244094488188977},{"duration":0.2727269999999997,"midi":40,"time":16.2272565,"velocity":0.7244094488188977},{"duration":0.2727269999999997,"midi":50,"time":16.36362,"velocity":0.7244094488188977},{"duration":0.2727269999999997,"midi":39,"time":16.36362,"velocity":0.7244094488188977},{"duration":0.2727269999999997,"midi":26,"time":16.4999835,"velocity":0.7244094488188977},{"duration":0.2727269999999997,"midi":38,"time":16.4999835,"velocity":0.7244094488188977},{"duration":0.2727269999999997,"midi":26,"time":16.7727105,"velocity":0.7244094488188977},{"duration":0.2727269999999997,"midi":50,"time":16.909074,"velocity":0.7244094488188977},{"duration":0.2727269999999997,"midi":26,"time":17.0454375,"velocity":0.7244094488188977},{"duration":0.2727269999999997,"midi":38,"time":17.0454375,"velocity":0.7244094488188977},{"duration":0.06818175000000082,"midi":26,"time":17.318164499999998,"velocity":0.7244094488188977},{"duration":0.2727269999999997,"midi":51,"time":17.454528,"velocity":0.7244094488188977},{"duration":0.2727269999999997,"midi":39,"time":17.454528,"velocity":0.7244094488188977},{"duration":0.2727269999999997,"midi":39,"time":17.727255,"velocity":0.7244094488188977},{"duration":0.2727269999999997,"midi":27,"time":17.727255,"velocity":0.7244094488188977},{"duration":0.2727269999999997,"midi":27,"time":18.1363455,"velocity":0.7244094488188977},{"duration":0.2727269999999997,"midi":39,"time":18.1363455,"velocity":0.7244094488188977},{"duration":0.2727269999999997,"midi":27,"time":18.545436,"velocity":0.7244094488188977},{"duration":0.2727269999999997,"midi":39,"time":18.545436,"velocity":0.7244094488188977},{"duration":0.2727269999999997,"midi":39,"time":18.818163,"velocity":0.7244094488188977},{"duration":0.2727269999999997,"midi":27,"time":18.818163,"velocity":0.7244094488188977},{"duration":0.2727269999999997,"midi":27,"time":18.9545265,"velocity":0.7244094488188977},{"duration":0.2727269999999997,"midi":39,"time":18.9545265,"velocity":0.7244094488188977},{"duration":0.13636350000000164,"midi":39,"time":19.2272535,"velocity":0.7244094488188977},{"duration":0.2727269999999997,"midi":38,"time":19.363617,"velocity":0.7244094488188977},{"duration":0.2727269999999997,"midi":50,"time":19.363617,"velocity":0.7244094488188977},{"duration":0.2727269999999997,"midi":40,"time":19.4999805,"velocity":0.7244094488188977},{"duration":0.2727269999999997,"midi":52,"time":19.4999805,"velocity":0.7244094488188977},{"duration":0.2727269999999997,"midi":51,"time":19.636344,"velocity":0.7244094488188977},{"duration":0.2727269999999997,"midi":39,"time":19.636344,"velocity":0.7244094488188977},{"duration":0.2727269999999997,"midi":27,"time":19.909071,"velocity":0.7244094488188977},{"duration":0.2727269999999997,"midi":39,"time":19.909071,"velocity":0.7244094488188977},{"duration":0.2727269999999997,"midi":39,"time":20.3181615,"velocity":0.7244094488188977},{"duration":0.2727269999999997,"midi":27,"time":20.3181615,"velocity":0.7244094488188977},{"duration":0.2727269999999997,"midi":40,"time":20.727252,"velocity":0.7244094488188977},{"duration":0.2727269999999997,"midi":28,"time":20.727252,"velocity":0.7244094488188977},{"duration":0.2727269999999997,"midi":40,"time":21.1363425,"velocity":0.7244094488188977},{"duration":0.2727269999999997,"midi":52,"time":21.1363425,"velocity":0.7244094488188977},{"duration":0.2727269999999997,"midi":28,"time":21.545433,"velocity":0.7244094488188977},{"duration":0.2727269999999997,"midi":40,"time":21.545433,"velocity":0.7244094488188977},{"duration":0.2727269999999997,"midi":39,"time":21.81816,"velocity":0.7244094488188977},{"duration":0.2727269999999997,"midi":51,"time":21.81816,"velocity":0.7244094488188977},{"duration":0.2727269999999997,"midi":27,"time":22.090887,"velocity":0.7244094488188977},{"duration":0.2727269999999997,"midi":39,"time":22.090887,"velocity":0.7244094488188977},{"duration":0.2727269999999997,"midi":27,"time":22.4999775,"velocity":0.7244094488188977},{"duration":0.2727269999999997,"midi":39,"time":22.4999775,"velocity":0.7244094488188977},{"duration":0.2727269999999997,"midi":39,"time":22.909068,"velocity":0.7244094488188977},{"duration":0.2727269999999997,"midi":27,"time":22.909068,"velocity":0.7244094488188977},{"duration":0.2727269999999997,"midi":27,"time":23.181795,"velocity":0.7244094488188977},{"duration":0.2727269999999997,"midi":39,"time":23.181795,"velocity":0.7244094488188977},{"duration":0.2727269999999997,"midi":39,"time":23.3181585,"velocity":0.7244094488188977},{"duration":0.2727269999999997,"midi":27,"time":23.3181585,"velocity":0.7244094488188977},{"duration":0.13636350000000164,"midi":39,"time":23.5908855,"velocity":0.7244094488188977},{"duration":0.2727269999999997,"midi":38,"time":23.727249,"velocity":0.7244094488188977},{"duration":0.2727269999999997,"midi":50,"time":23.727249,"velocity":0.7244094488188977},{"duration":0.2727269999999997,"midi":40,"time":23.8636125,"velocity":0.7244094488188977},{"duration":0.2727269999999997,"midi":52,"time":23.8636125,"velocity":0.7244094488188977},{"duration":0.2727269999999997,"midi":51,"time":23.999976,"velocity":0.7244094488188977},{"duration":0.2727269999999997,"midi":39,"time":23.999976,"velocity":0.7244094488188977},{"duration":0.2727269999999997,"midi":39,"time":24.272703,"velocity":0.7244094488188977},{"duration":0.2727269999999997,"midi":27,"time":24.272703,"velocity":0.7244094488188977},{"duration":0.2727269999999997,"midi":27,"time":24.6817935,"velocity":0.7244094488188977},{"duration":0.2727269999999997,"midi":39,"time":24.6817935,"velocity":0.7244094488188977},{"duration":0.2727269999999997,"midi":51,"time":24.818157,"velocity":0.7244094488188977},{"duration":0.2727269999999997,"midi":52,"time":24.9545205,"velocity":0.7244094488188977},{"duration":0.2727269999999997,"midi":40,"time":24.9545205,"velocity":0.7244094488188977},{"duration":0.2727269999999997,"midi":39,"time":25.090884,"velocity":0.7244094488188977},{"duration":0.2727269999999997,"midi":50,"time":25.090884,"velocity":0.7244094488188977},{"duration":0.2727269999999997,"midi":26,"time":25.2272475,"velocity":0.7244094488188977},{"duration":0.2727269999999997,"midi":38,"time":25.2272475,"velocity":0.7244094488188977},{"duration":0.2727269999999997,"midi":26,"time":25.4999745,"velocity":0.7244094488188977},{"duration":0.2727269999999997,"midi":38,"time":25.4999745,"velocity":0.7244094488188977},{"duration":0.2727269999999997,"midi":38,"time":25.7727015,"velocity":0.7244094488188977},{"duration":0.2727269999999997,"midi":26,"time":25.7727015,"velocity":0.7244094488188977},{"duration":0.06818175000000082,"midi":26,"time":26.0454285,"velocity":0.7244094488188977},{"duration":0.06818175000000082,"midi":38,"time":26.0454285,"velocity":0.7244094488188977},{"duration":0.2727269999999997,"midi":39,"time":26.181792,"velocity":0.7244094488188977},{"duration":0.2727269999999997,"midi":51,"time":26.181792,"velocity":0.7244094488188977},{"duration":0.2727269999999997,"midi":39,"time":26.454519,"velocity":0.7244094488188977},{"duration":0.2727269999999997,"midi":27,"time":26.454519,"velocity":0.7244094488188977},{"duration":0.2727269999999997,"midi":27,"time":26.8636095,"velocity":0.7244094488188977},{"duration":0.2727269999999997,"midi":39,"time":26.8636095,"velocity":0.7244094488188977},{"duration":0.2727269999999997,"midi":27,"time":27.2727,"velocity":0.7244094488188977},{"duration":0.2727269999999997,"midi":39,"time":27.2727,"velocity":0.7244094488188977},{"duration":0.2727269999999997,"midi":39,"time":27.545427,"velocity":0.7244094488188977},{"duration":0.2727269999999997,"midi":27,"time":27.545427,"velocity":0.7244094488188977},{"duration":0.2727270000000033,"midi":27,"time":27.681790499999998,"velocity":0.7244094488188977},{"duration":0.2727270000000033,"midi":39,"time":27.681790499999998,"velocity":0.7244094488188977},{"duration":0.13636349999999808,"midi":39,"time":27.9545175,"velocity":0.7244094488188977},{"duration":0.2727269999999997,"midi":50,"time":28.090881,"velocity":0.7244094488188977},{"duration":0.2727269999999997,"midi":38,"time":28.090881,"velocity":0.7244094488188977},{"duration":0.2727269999999997,"midi":52,"time":28.2272445,"velocity":0.7244094488188977},{"duration":0.2727269999999997,"midi":40,"time":28.2272445,"velocity":0.7244094488188977},{"duration":0.2727269999999997,"midi":51,"time":28.363608,"velocity":0.7244094488188977},{"duration":0.2727269999999997,"midi":39,"time":28.363608,"velocity":0.7244094488188977},{"duration":0.2727269999999997,"midi":39,"time":28.636335,"velocity":0.7244094488188977},{"duration":0.2727269999999997,"midi":27,"time":28.636335,"velocity":0.7244094488188977},{"duration":0.2727269999999997,"midi":39,"time":29.0454255,"velocity":0.7244094488188977},{"duration":0.2727269999999997,"midi":27,"time":29.0454255,"velocity":0.7244094488188977},{"duration":0.2727270000000033,"midi":28,"time":29.454515999999998,"velocity":0.7244094488188977},{"duration":0.2727270000000033,"midi":40,"time":29.454515999999998,"velocity":0.7244094488188977},{"duration":0.2727269999999997,"midi":40,"time":29.8636065,"velocity":0.7244094488188977},{"duration":0.2727269999999997,"midi":52,"time":29.8636065,"velocity":0.7244094488188977},{"duration":0.2727269999999997,"midi":28,"time":30.272697,"velocity":0.7244094488188977},{"duration":0.2727269999999997,"midi":40,"time":30.272697,"velocity":0.7244094488188977},{"duration":0.2727269999999997,"midi":39,"time":30.545424,"velocity":0.7244094488188977},{"duration":0.2727269999999997,"midi":51,"time":30.545424,"velocity":0.7244094488188977},{"duration":0.2727269999999997,"midi":27,"time":30.818151,"velocity":0.7244094488188977},{"duration":0.2727269999999997,"midi":39,"time":30.818151,"velocity":0.7244094488188977},{"duration":0.2727270000000033,"midi":39,"time":31.227241499999998,"velocity":0.7244094488188977},{"duration":0.2727270000000033,"midi":27,"time":31.227241499999998,"velocity":0.7244094488188977},{"duration":0.2727269999999997,"midi":27,"time":31.636332,"velocity":0.7244094488188977},{"duration":0.2727269999999997,"midi":39,"time":31.636332,"velocity":0.7244094488188977},{"duration":0.2727270000000033,"midi":39,"time":31.909059,"velocity":0.7244094488188977},{"duration":0.2727270000000033,"midi":27,"time":31.909059,"velocity":0.7244094488188977},{"duration":0.27272699999999617,"midi":27,"time":32.0454225,"velocity":0.7244094488188977},{"duration":0.27272699999999617,"midi":39,"time":32.0454225,"velocity":0.7244094488188977},{"duration":0.13636350000000164,"midi":39,"time":32.3181495,"velocity":0.7244094488188977},{"duration":0.2727270000000033,"midi":50,"time":32.454513,"velocity":0.7244094488188977},{"duration":0.2727270000000033,"midi":38,"time":32.454513,"velocity":0.7244094488188977},{"duration":0.27272699999999617,"midi":40,"time":32.5908765,"velocity":0.7244094488188977},{"duration":0.27272699999999617,"midi":52,"time":32.5908765,"velocity":0.7244094488188977},{"duration":0.27272699999999617,"midi":51,"time":32.72724,"velocity":0.7244094488188977},{"duration":0.27272699999999617,"midi":39,"time":32.72724,"velocity":0.7244094488188977},{"duration":0.2727270000000033,"midi":27,"time":32.999967,"velocity":0.7244094488188977},{"duration":0.2727270000000033,"midi":39,"time":32.999967,"velocity":0.7244094488188977},{"duration":0.27272699999999617,"midi":27,"time":33.4090575,"velocity":0.7244094488188977},{"duration":0.27272699999999617,"midi":39,"time":33.4090575,"velocity":0.7244094488188977},{"duration":0.2727270000000033,"midi":51,"time":33.545421,"velocity":0.7244094488188977},{"duration":0.2727270000000033,"midi":40,"time":33.6817845,"velocity":0.7244094488188977},{"duration":0.2727270000000033,"midi":52,"time":33.6817845,"velocity":0.7244094488188977},{"duration":0.27272699999999617,"midi":39,"time":33.818148,"velocity":0.7244094488188977},{"duration":0.27272699999999617,"midi":51,"time":33.818148,"velocity":0.7244094488188977},{"duration":0.27272699999999617,"midi":27,"time":33.9545115,"velocity":0.7244094488188977},{"duration":0.27272699999999617,"midi":39,"time":33.9545115,"velocity":0.7244094488188977},{"duration":0.2727270000000033,"midi":27,"time":34.2272385,"velocity":0.7244094488188977},{"duration":0.27272699999999617,"midi":51,"time":34.363602,"velocity":0.7244094488188977},{"duration":0.27272699999999617,"midi":39,"time":34.4999655,"velocity":0.7244094488188977},{"duration":0.27272699999999617,"midi":27,"time":34.4999655,"velocity":0.7244094488188977},{"duration":0.06818175000000082,"midi":39,"time":34.909056,"velocity":0.7244094488188977},{"duration":0.06818175000000082,"midi":27,"time":34.909056,"velocity":0.7244094488188977},{"duration":0.13636350000000164,"midi":27,"time":35.0454195,"velocity":0.7244094488188977},{"duration":0.13636350000000164,"midi":39,"time":35.0454195,"velocity":0.7244094488188977},{"duration":0.13636349999999453,"midi":39,"time":35.181783,"velocity":0.7244094488188977},{"duration":0.13636349999999453,"midi":27,"time":35.181783,"velocity":0.7244094488188977},{"duration":0.06818175000000082,"midi":39,"time":35.3181465,"velocity":0.7244094488188977},{"duration":0.06818175000000082,"midi":27,"time":35.3181465,"velocity":0.7244094488188977},{"duration":0.13636350000000164,"midi":40,"time":35.45451,"velocity":0.7244094488188977},{"duration":0.13636350000000164,"midi":28,"time":35.45451,"velocity":0.7244094488188977},{"duration":0.06818175000000082,"midi":40,"time":35.5908735,"velocity":0.7244094488188977},{"duration":0.06818175000000082,"midi":28,"time":35.5908735,"velocity":0.7244094488188977},{"duration":0.06818175000000082,"midi":40,"time":35.727237,"velocity":0.7244094488188977},{"duration":0.06818175000000082,"midi":28,"time":35.727237,"velocity":0.7244094488188977},{"duration":0.13636350000000164,"midi":27,"time":35.8636005,"velocity":0.7244094488188977},{"duration":0.13636350000000164,"midi":39,"time":35.8636005,"velocity":0.7244094488188977},{"duration":0.06818175000000082,"midi":27,"time":35.999964,"velocity":0.7244094488188977},{"duration":0.06818175000000082,"midi":39,"time":35.999964,"velocity":0.7244094488188977},{"duration":0.13636350000000164,"midi":27,"time":36.1363275,"velocity":0.7244094488188977},{"duration":0.13636350000000164,"midi":39,"time":36.1363275,"velocity":0.7244094488188977},{"duration":0.06818175000000082,"midi":29,"time":36.272691,"velocity":0.7244094488188977},{"duration":0.06818175000000082,"midi":41,"time":36.272691,"velocity":0.7244094488188977},{"duration":0.06818175000000082,"midi":39,"time":36.409054499999996,"velocity":0.7244094488188977},{"duration":0.06818175000000082,"midi":27,"time":36.409054499999996,"velocity":0.7244094488188977},{"duration":0.13636350000000164,"midi":41,"time":36.545418,"velocity":0.7244094488188977},{"duration":0.13636350000000164,"midi":29,"time":36.545418,"velocity":0.7244094488188977},{"duration":0.13636350000000164,"midi":38,"time":36.6817815,"velocity":0.7244094488188977},{"duration":0.13636350000000164,"midi":26,"time":36.6817815,"velocity":0.7244094488188977},{"duration":0.13636350000000164,"midi":26,"time":36.818145,"velocity":0.7244094488188977},{"duration":0.13636350000000164,"midi":38,"time":36.818145,"velocity":0.7244094488188977},{"duration":0.13636349999999453,"midi":27,"time":36.9545085,"velocity":0.7244094488188977},{"duration":0.13636349999999453,"midi":39,"time":36.9545085,"velocity":0.7244094488188977},{"duration":0.06818175000000082,"midi":39,"time":37.090872,"velocity":0.7244094488188977},{"duration":0.06818175000000082,"midi":27,"time":37.090872,"velocity":0.7244094488188977},{"duration":0.13636350000000164,"midi":39,"time":37.2272355,"velocity":0.7244094488188977},{"duration":0.13636350000000164,"midi":27,"time":37.2272355,"velocity":0.7244094488188977},{"duration":0.13636350000000164,"midi":27,"time":37.363599,"velocity":0.7244094488188977},{"duration":0.13636350000000164,"midi":39,"time":37.363599,"velocity":0.7244094488188977},{"duration":0.06818175000000082,"midi":39,"time":37.4999625,"velocity":0.7244094488188977},{"duration":0.06818175000000082,"midi":27,"time":37.4999625,"velocity":0.7244094488188977},{"duration":0.06818175000000082,"midi":28,"time":37.636326,"velocity":0.7244094488188977},{"duration":0.06818175000000082,"midi":40,"time":37.636326,"velocity":0.7244094488188977},{"duration":0.06818175000000082,"midi":40,"time":37.7726895,"velocity":0.7244094488188977},{"duration":0.06818175000000082,"midi":28,"time":37.7726895,"velocity":0.7244094488188977},{"duration":0.13636350000000164,"midi":28,"time":37.909053,"velocity":0.7244094488188977},{"duration":0.13636350000000164,"midi":40,"time":37.909053,"velocity":0.7244094488188977},{"duration":0.06818175000000082,"midi":27,"time":38.0454165,"velocity":0.7244094488188977},{"duration":0.06818175000000082,"midi":39,"time":38.0454165,"velocity":0.7244094488188977},{"duration":0.06818175000000082,"midi":39,"time":38.181779999999996,"velocity":0.7244094488188977},{"duration":0.06818175000000082,"midi":27,"time":38.181779999999996,"velocity":0.7244094488188977},{"duration":0.13636350000000164,"midi":27,"time":38.3181435,"velocity":0.7244094488188977},{"duration":0.13636350000000164,"midi":39,"time":38.3181435,"velocity":0.7244094488188977},{"duration":0.06818175000000082,"midi":42,"time":38.454507,"velocity":0.7244094488188977},{"duration":0.06818175000000082,"midi":30,"time":38.454507,"velocity":0.7244094488188977},{"duration":0.06818175000000082,"midi":27,"time":38.5908705,"velocity":0.7244094488188977},{"duration":0.06818175000000082,"midi":39,"time":38.5908705,"velocity":0.7244094488188977},{"duration":0.13636349999999453,"midi":30,"time":38.727234,"velocity":0.7244094488188977},{"duration":0.13636349999999453,"midi":42,"time":38.727234,"velocity":0.7244094488188977},{"duration":0.13636350000000164,"midi":38,"time":38.8635975,"velocity":0.7244094488188977},{"duration":0.13636350000000164,"midi":26,"time":38.8635975,"velocity":0.7244094488188977},{"duration":0.13636350000000164,"midi":26,"time":38.999961,"velocity":0.7244094488188977},{"duration":0.13636350000000164,"midi":38,"time":38.999961,"velocity":0.7244094488188977},{"duration":0.13636350000000164,"midi":29,"time":39.1363245,"velocity":0.7244094488188977},{"duration":0.13636350000000164,"midi":41,"time":39.1363245,"velocity":0.7244094488188977},{"duration":0.06818175000000082,"midi":39,"time":39.272688,"velocity":0.7244094488188977},{"duration":0.06818175000000082,"midi":27,"time":39.272688,"velocity":0.7244094488188977},{"duration":0.13636350000000164,"midi":27,"time":39.4090515,"velocity":0.7244094488188977},{"duration":0.13636350000000164,"midi":39,"time":39.4090515,"velocity":0.7244094488188977},{"duration":0.13636350000000164,"midi":27,"time":39.545415,"velocity":0.7244094488188977},{"duration":0.13636350000000164,"midi":39,"time":39.545415,"velocity":0.7244094488188977},{"duration":0.06818175000000082,"midi":27,"time":39.6817785,"velocity":0.7244094488188977},{"duration":0.06818175000000082,"midi":39,"time":39.6817785,"velocity":0.7244094488188977},{"duration":0.13636349999999453,"midi":40,"time":39.818142,"velocity":0.7244094488188977},{"duration":0.13636349999999453,"midi":28,"time":39.818142,"velocity":0.7244094488188977},{"duration":0.06818175000000082,"midi":28,"time":39.954505499999996,"velocity":0.7244094488188977},{"duration":0.06818175000000082,"midi":40,"time":39.954505499999996,"velocity":0.7244094488188977},{"duration":0.06818175000000082,"midi":28,"time":40.090869,"velocity":0.7244094488188977},{"duration":0.06818175000000082,"midi":40,"time":40.090869,"velocity":0.7244094488188977},{"duration":0.13636350000000164,"midi":39,"time":40.2272325,"velocity":0.7244094488188977},{"duration":0.13636350000000164,"midi":27,"time":40.2272325,"velocity":0.7244094488188977},{"duration":0.06818175000000082,"midi":39,"time":40.363596,"velocity":0.7244094488188977},{"duration":0.06818175000000082,"midi":27,"time":40.363596,"velocity":0.7244094488188977},{"duration":0.13636349999999453,"midi":27,"time":40.4999595,"velocity":0.7244094488188977},{"duration":0.13636349999999453,"midi":39,"time":40.4999595,"velocity":0.7244094488188977},{"duration":0.06818175000000082,"midi":29,"time":40.636323,"velocity":0.7244094488188977},{"duration":0.06818175000000082,"midi":41,"time":40.636323,"velocity":0.7244094488188977},{"duration":0.06818175000000082,"midi":27,"time":40.7726865,"velocity":0.7244094488188977},{"duration":0.06818175000000082,"midi":39,"time":40.7726865,"velocity":0.7244094488188977},{"duration":0.13636350000000164,"midi":41,"time":40.90905,"velocity":0.7244094488188977},{"duration":0.13636350000000164,"midi":29,"time":40.90905,"velocity":0.7244094488188977},{"duration":0.13636349999999453,"midi":38,"time":41.0454135,"velocity":0.7244094488188977},{"duration":0.13636349999999453,"midi":26,"time":41.0454135,"velocity":0.7244094488188977},{"duration":0.13636350000000164,"midi":26,"time":41.181777,"velocity":0.7244094488188977},{"duration":0.13636350000000164,"midi":38,"time":41.181777,"velocity":0.7244094488188977},{"duration":0.13636350000000164,"midi":27,"time":41.3181405,"velocity":0.7244094488188977},{"duration":0.13636350000000164,"midi":39,"time":41.3181405,"velocity":0.7244094488188977},{"duration":0.06818175000000082,"midi":39,"time":41.454504,"velocity":0.7244094488188977},{"duration":0.06818175000000082,"midi":27,"time":41.454504,"velocity":0.7244094488188977},{"duration":0.13636349999999453,"midi":39,"time":41.5908675,"velocity":0.7244094488188977},{"duration":0.13636349999999453,"midi":27,"time":41.5908675,"velocity":0.7244094488188977},{"duration":0.13636350000000164,"midi":39,"time":41.727230999999996,"velocity":0.7244094488188977},{"duration":0.13636350000000164,"midi":27,"time":41.727230999999996,"velocity":0.7244094488188977},{"duration":0.06818175000000082,"midi":39,"time":41.8635945,"velocity":0.7244094488188977},{"duration":0.06818175000000082,"midi":27,"time":41.8635945,"velocity":0.7244094488188977},{"duration":0.06818175000000082,"midi":28,"time":41.999958,"velocity":0.7244094488188977},{"duration":0.06818175000000082,"midi":40,"time":41.999958,"velocity":0.7244094488188977},{"duration":0.06818175000000082,"midi":28,"time":42.1363215,"velocity":0.7244094488188977},{"duration":0.06818175000000082,"midi":40,"time":42.1363215,"velocity":0.7244094488188977},{"duration":0.13636349999999453,"midi":40,"time":42.272685,"velocity":0.7244094488188977},{"duration":0.13636349999999453,"midi":28,"time":42.272685,"velocity":0.7244094488188977},{"duration":0.06818175000000082,"midi":39,"time":42.4090485,"velocity":0.7244094488188977},{"duration":0.06818175000000082,"midi":27,"time":42.4090485,"velocity":0.7244094488188977},{"duration":0.06818175000000082,"midi":39,"time":42.545412,"velocity":0.7244094488188977},{"duration":0.06818175000000082,"midi":27,"time":42.545412,"velocity":0.7244094488188977},{"duration":0.13636350000000164,"midi":27,"time":42.6817755,"velocity":0.7244094488188977},{"duration":0.06818175000000082,"midi":28,"time":42.6817755,"velocity":0.7244094488188977},{"duration":0.13636350000000164,"midi":39,"time":42.6817755,"velocity":0.7244094488188977},{"duration":0.06818175000000082,"midi":40,"time":42.6817755,"velocity":0.7244094488188977},{"duration":0.13636349999999453,"midi":40,"time":42.818139,"velocity":0.7244094488188977},{"duration":0.13636349999999453,"midi":28,"time":42.818139,"velocity":0.7244094488188977},{"duration":0.06818175000000082,"midi":41,"time":42.9545025,"velocity":0.7244094488188977},{"duration":0.06818175000000082,"midi":29,"time":42.9545025,"velocity":0.7244094488188977},{"duration":0.13636350000000164,"midi":42,"time":43.090866,"velocity":0.7244094488188977},{"duration":0.13636350000000164,"midi":30,"time":43.090866,"velocity":0.7244094488188977},{"duration":0.06818175000000082,"midi":29,"time":43.2272295,"velocity":0.7244094488188977},{"duration":0.06818175000000082,"midi":41,"time":43.2272295,"velocity":0.7244094488188977},{"duration":0.13636349999999453,"midi":28,"time":43.363593,"velocity":0.7244094488188977},{"duration":0.13636349999999453,"midi":40,"time":43.363593,"velocity":0.7244094488188977},{"duration":0.13636350000000164,"midi":38,"time":43.499956499999996,"velocity":0.7244094488188977},{"duration":0.13636350000000164,"midi":26,"time":43.499956499999996,"velocity":0.7244094488188977},{"duration":0.06818175000000082,"midi":27,"time":43.63632,"velocity":0.7244094488188977},{"duration":0.06818175000000082,"midi":39,"time":43.63632,"velocity":0.7244094488188977},{"duration":0.13636350000000164,"midi":27,"time":43.7726835,"velocity":0.7244094488188977},{"duration":0.13636350000000164,"midi":39,"time":43.7726835,"velocity":0.7244094488188977},{"duration":0.13636350000000164,"midi":39,"time":43.909047,"velocity":0.7244094488188977},{"duration":0.13636350000000164,"midi":27,"time":43.909047,"velocity":0.7244094488188977},{"duration":0.06818174999999371,"midi":39,"time":44.0454105,"velocity":0.7244094488188977},{"duration":0.06818174999999371,"midi":27,"time":44.0454105,"velocity":0.7244094488188977},{"duration":0.13636350000000164,"midi":40,"time":44.181774,"velocity":0.7244094488188977},{"duration":0.13636350000000164,"midi":28,"time":44.181774,"velocity":0.7244094488188977},{"duration":0.06818175000000082,"midi":40,"time":44.3181375,"velocity":0.7244094488188977},{"duration":0.06818175000000082,"midi":28,"time":44.3181375,"velocity":0.7244094488188977},{"duration":0.06818175000000082,"midi":28,"time":44.454501,"velocity":0.7244094488188977},{"duration":0.06818175000000082,"midi":40,"time":44.454501,"velocity":0.7244094488188977},{"duration":0.13636349999999453,"midi":39,"time":44.5908645,"velocity":0.7244094488188977},{"duration":0.13636349999999453,"midi":27,"time":44.5908645,"velocity":0.7244094488188977},{"duration":0.06818175000000082,"midi":39,"time":44.727228,"velocity":0.7244094488188977},{"duration":0.06818175000000082,"midi":27,"time":44.727228,"velocity":0.7244094488188977},{"duration":0.13636350000000164,"midi":27,"time":44.8635915,"velocity":0.7244094488188977},{"duration":0.13636350000000164,"midi":39,"time":44.8635915,"velocity":0.7244094488188977},{"duration":0.06818175000000082,"midi":41,"time":44.999955,"velocity":0.7244094488188977},{"duration":0.06818175000000082,"midi":29,"time":44.999955,"velocity":0.7244094488188977},{"duration":0.06818175000000082,"midi":39,"time":45.1363185,"velocity":0.7244094488188977},{"duration":0.06818175000000082,"midi":27,"time":45.1363185,"velocity":0.7244094488188977},{"duration":0.13636350000000164,"midi":29,"time":45.272681999999996,"velocity":0.7244094488188977},{"duration":0.13636350000000164,"midi":41,"time":45.272681999999996,"velocity":0.7244094488188977},{"duration":0.13636350000000164,"midi":26,"time":45.4090455,"velocity":0.7244094488188977},{"duration":0.13636350000000164,"midi":38,"time":45.4090455,"velocity":0.7244094488188977},{"duration":0.13636350000000164,"midi":26,"time":45.545409,"velocity":0.7244094488188977},{"duration":0.13636350000000164,"midi":38,"time":45.545409,"velocity":0.7244094488188977},{"duration":0.13636350000000164,"midi":39,"time":45.6817725,"velocity":0.7244094488188977},{"duration":0.13636350000000164,"midi":27,"time":45.6817725,"velocity":0.7244094488188977},{"duration":0.06818174999999371,"midi":39,"time":45.818136,"velocity":0.7244094488188977},{"duration":0.06818174999999371,"midi":27,"time":45.818136,"velocity":0.7244094488188977},{"duration":0.13636350000000164,"midi":39,"time":45.9544995,"velocity":0.7244094488188977},{"duration":0.13636350000000164,"midi":27,"time":45.9544995,"velocity":0.7244094488188977},{"duration":0.13636350000000164,"midi":39,"time":46.090863,"velocity":0.7244094488188977},{"duration":0.13636350000000164,"midi":27,"time":46.090863,"velocity":0.7244094488188977},{"duration":0.06818175000000082,"midi":27,"time":46.2272265,"velocity":0.7244094488188977},{"duration":0.06818175000000082,"midi":39,"time":46.2272265,"velocity":0.7244094488188977},{"duration":0.06818175000000082,"midi":28,"time":46.36359,"velocity":0.7244094488188977},{"duration":0.06818175000000082,"midi":40,"time":46.36359,"velocity":0.7244094488188977},{"duration":0.06818175000000082,"midi":40,"time":46.4999535,"velocity":0.7244094488188977},{"duration":0.06818175000000082,"midi":28,"time":46.4999535,"velocity":0.7244094488188977},{"duration":0.13636350000000164,"midi":40,"time":46.636317,"velocity":0.7244094488188977},{"duration":0.13636350000000164,"midi":28,"time":46.636317,"velocity":0.7244094488188977},{"duration":0.06818175000000082,"midi":27,"time":46.7726805,"velocity":0.7244094488188977},{"duration":0.06818175000000082,"midi":39,"time":46.7726805,"velocity":0.7244094488188977},{"duration":0.06818175000000082,"midi":39,"time":46.909044,"velocity":0.7244094488188977},{"duration":0.06818175000000082,"midi":27,"time":46.909044,"velocity":0.7244094488188977},{"duration":0.13636350000000164,"midi":39,"time":47.045407499999996,"velocity":0.7244094488188977},{"duration":0.13636350000000164,"midi":27,"time":47.045407499999996,"velocity":0.7244094488188977},{"duration":0.06818175000000082,"midi":42,"time":47.181771,"velocity":0.7244094488188977},{"duration":0.06818175000000082,"midi":30,"time":47.181771,"velocity":0.7244094488188977},{"duration":0.06818175000000082,"midi":39,"time":47.3181345,"velocity":0.7244094488188977},{"duration":0.06818175000000082,"midi":27,"time":47.3181345,"velocity":0.7244094488188977},{"duration":0.13636350000000164,"midi":42,"time":47.454498,"velocity":0.7244094488188977},{"duration":0.13636350000000164,"midi":30,"time":47.454498,"velocity":0.7244094488188977},{"duration":0.13636349999999453,"midi":26,"time":47.5908615,"velocity":0.7244094488188977},{"duration":0.13636349999999453,"midi":38,"time":47.5908615,"velocity":0.7244094488188977},{"duration":0.13636350000000164,"midi":26,"time":47.727225,"velocity":0.7244094488188977},{"duration":0.13636350000000164,"midi":38,"time":47.727225,"velocity":0.7244094488188977},{"duration":0.13636350000000164,"midi":29,"time":47.8635885,"velocity":0.7244094488188977},{"duration":0.13636350000000164,"midi":41,"time":47.8635885,"velocity":0.7244094488188977},{"duration":0.06818175000000082,"midi":27,"time":47.999952,"velocity":0.7244094488188977},{"duration":0.06818175000000082,"midi":39,"time":47.999952,"velocity":0.7244094488188977},{"duration":0.13636349999999453,"midi":27,"time":48.1363155,"velocity":0.7244094488188977},{"duration":0.13636349999999453,"midi":39,"time":48.1363155,"velocity":0.7244094488188977},{"duration":0.13636350000000164,"midi":39,"time":48.272679,"velocity":0.7244094488188977},{"duration":0.13636350000000164,"midi":27,"time":48.272679,"velocity":0.7244094488188977},{"duration":0.06818175000000082,"midi":27,"time":48.4090425,"velocity":0.7244094488188977},{"duration":0.06818175000000082,"midi":39,"time":48.4090425,"velocity":0.7244094488188977},{"duration":0.13636350000000164,"midi":28,"time":48.545406,"velocity":0.7244094488188977},{"duration":0.13636350000000164,"midi":40,"time":48.545406,"velocity":0.7244094488188977},{"duration":0.06818175000000082,"midi":28,"time":48.6817695,"velocity":0.7244094488188977},{"duration":0.06818175000000082,"midi":40,"time":48.6817695,"velocity":0.7244094488188977},{"duration":0.06818175000000082,"midi":40,"time":48.818132999999996,"velocity":0.7244094488188977},{"duration":0.06818175000000082,"midi":28,"time":48.818132999999996,"velocity":0.7244094488188977},{"duration":0.13636350000000164,"midi":39,"time":48.9544965,"velocity":0.7244094488188977},{"duration":0.13636350000000164,"midi":27,"time":48.9544965,"velocity":0.7244094488188977},{"duration":0.06818175000000082,"midi":39,"time":49.09086,"velocity":0.7244094488188977},{"duration":0.06818175000000082,"midi":27,"time":49.09086,"velocity":0.7244094488188977},{"duration":0.13636350000000164,"midi":27,"time":49.2272235,"velocity":0.7244094488188977},{"duration":0.13636350000000164,"midi":39,"time":49.2272235,"velocity":0.7244094488188977},{"duration":0.06818174999999371,"midi":29,"time":49.363587,"velocity":0.7244094488188977},{"duration":0.06818174999999371,"midi":41,"time":49.363587,"velocity":0.7244094488188977},{"duration":0.06818175000000082,"midi":39,"time":49.4999505,"velocity":0.7244094488188977},{"duration":0.06818175000000082,"midi":27,"time":49.4999505,"velocity":0.7244094488188977},{"duration":0.13636350000000164,"midi":29,"time":49.636314,"velocity":0.7244094488188977},{"duration":0.13636350000000164,"midi":41,"time":49.636314,"velocity":0.7244094488188977},{"duration":0.13636350000000164,"midi":26,"time":49.7726775,"velocity":0.7244094488188977},{"duration":0.13636350000000164,"midi":38,"time":49.7726775,"velocity":0.7244094488188977},{"duration":0.13636349999999453,"midi":26,"time":49.909041,"velocity":0.7244094488188977},{"duration":0.13636349999999453,"midi":38,"time":49.909041,"velocity":0.7244094488188977},{"duration":0.13636350000000164,"midi":39,"time":50.0454045,"velocity":0.7244094488188977},{"duration":0.13636350000000164,"midi":27,"time":50.0454045,"velocity":0.7244094488188977},{"duration":0.06818175000000082,"midi":27,"time":50.181768,"velocity":0.7244094488188977},{"duration":0.06818175000000082,"midi":39,"time":50.181768,"velocity":0.7244094488188977},{"duration":0.13636350000000164,"midi":27,"time":50.3181315,"velocity":0.7244094488188977},{"duration":0.13636350000000164,"midi":39,"time":50.3181315,"velocity":0.7244094488188977},{"duration":0.13636349999999453,"midi":39,"time":50.454495,"velocity":0.7244094488188977},{"duration":0.13636349999999453,"midi":27,"time":50.454495,"velocity":0.7244094488188977},{"duration":0.06818175000000082,"midi":39,"time":50.590858499999996,"velocity":0.7244094488188977},{"duration":0.06818175000000082,"midi":27,"time":50.590858499999996,"velocity":0.7244094488188977},{"duration":0.06818175000000082,"midi":28,"time":50.727222,"velocity":0.7244094488188977},{"duration":0.06818175000000082,"midi":40,"time":50.727222,"velocity":0.7244094488188977},{"duration":0.06818175000000082,"midi":40,"time":50.8635855,"velocity":0.7244094488188977},{"duration":0.06818175000000082,"midi":28,"time":50.8635855,"velocity":0.7244094488188977},{"duration":0.13636350000000164,"midi":40,"time":50.999949,"velocity":0.7244094488188977},{"duration":0.13636350000000164,"midi":28,"time":50.999949,"velocity":0.7244094488188977},{"duration":0.06818174999999371,"midi":27,"time":51.1363125,"velocity":0.7244094488188977},{"duration":0.06818174999999371,"midi":39,"time":51.1363125,"velocity":0.7244094488188977},{"duration":0.06818175000000082,"midi":39,"time":51.272676,"velocity":0.7244094488188977},{"duration":0.06818175000000082,"midi":27,"time":51.272676,"velocity":0.7244094488188977},{"duration":0.13636350000000164,"midi":39,"time":51.4090395,"velocity":0.7244094488188977},{"duration":0.13636350000000164,"midi":27,"time":51.4090395,"velocity":0.7244094488188977},{"duration":0.13636350000000164,"midi":39,"time":51.545403,"velocity":0.7244094488188977},{"duration":0.13636350000000164,"midi":27,"time":51.545403,"velocity":0.7244094488188977},{"duration":0.06818175000000082,"midi":39,"time":51.6817665,"velocity":0.7244094488188977},{"duration":0.06818175000000082,"midi":27,"time":51.6817665,"velocity":0.7244094488188977},{"duration":0.06818175000000082,"midi":39,"time":51.81813,"velocity":0.7244094488188977},{"duration":0.06818175000000082,"midi":27,"time":51.81813,"velocity":0.7244094488188977},{"duration":0.06818175000000082,"midi":27,"time":51.9544935,"velocity":0.7244094488188977},{"duration":0.06818175000000082,"midi":39,"time":51.9544935,"velocity":0.7244094488188977},{"duration":0.06818175000000082,"midi":39,"time":52.090857,"velocity":0.7244094488188977},{"duration":0.06818175000000082,"midi":27,"time":52.090857,"velocity":0.7244094488188977},{"duration":0.13636350000000164,"midi":39,"time":52.2272205,"velocity":0.7244094488188977},{"duration":0.13636350000000164,"midi":27,"time":52.2272205,"velocity":0.7244094488188977},{"duration":0.27272699999999617,"midi":51,"time":52.363584,"velocity":0.7244094488188977},{"duration":0.27272699999999617,"midi":39,"time":52.363584,"velocity":0.7244094488188977},{"duration":0.2727270000000033,"midi":27,"time":52.636311,"velocity":0.7244094488188977},{"duration":0.2727270000000033,"midi":39,"time":52.636311,"velocity":0.7244094488188977},{"duration":0.2727270000000033,"midi":39,"time":53.0454015,"velocity":0.7244094488188977},{"duration":0.2727270000000033,"midi":27,"time":53.0454015,"velocity":0.7244094488188977},{"duration":0.27272699999999617,"midi":39,"time":53.454492,"velocity":0.7244094488188977},{"duration":0.27272699999999617,"midi":27,"time":53.454492,"velocity":0.7244094488188977},{"duration":0.2727270000000033,"midi":39,"time":53.727219,"velocity":0.7244094488188977},{"duration":0.2727270000000033,"midi":27,"time":53.727219,"velocity":0.7244094488188977},{"duration":0.2727270000000033,"midi":39,"time":53.8635825,"velocity":0.7244094488188977},{"duration":0.2727270000000033,"midi":27,"time":53.8635825,"velocity":0.7244094488188977},{"duration":0.13636349999999453,"midi":39,"time":54.1363095,"velocity":0.7244094488188977},{"duration":0.2727270000000033,"midi":38,"time":54.272673,"velocity":0.7244094488188977},{"duration":0.2727270000000033,"midi":50,"time":54.272673,"velocity":0.7244094488188977},{"duration":0.2727270000000033,"midi":40,"time":54.4090365,"velocity":0.7244094488188977},{"duration":0.2727270000000033,"midi":52,"time":54.4090365,"velocity":0.7244094488188977},{"duration":0.27272699999999617,"midi":39,"time":54.5454,"velocity":0.7244094488188977},{"duration":0.27272699999999617,"midi":51,"time":54.5454,"velocity":0.7244094488188977},{"duration":0.2727270000000033,"midi":27,"time":54.818127,"velocity":0.7244094488188977},{"duration":0.2727270000000033,"midi":39,"time":54.818127,"velocity":0.7244094488188977},{"duration":0.27272699999999617,"midi":39,"time":55.2272175,"velocity":0.7244094488188977},{"duration":0.27272699999999617,"midi":27,"time":55.2272175,"velocity":0.7244094488188977},{"duration":0.2727270000000033,"midi":40,"time":55.636308,"velocity":0.7244094488188977},{"duration":0.2727270000000033,"midi":28,"time":55.636308,"velocity":0.7244094488188977},{"duration":0.2727270000000033,"midi":40,"time":56.0453985,"velocity":0.7244094488188977},{"duration":0.2727270000000033,"midi":52,"time":56.0453985,"velocity":0.7244094488188977},{"duration":0.27272699999999617,"midi":28,"time":56.454489,"velocity":0.7244094488188977},{"duration":0.27272699999999617,"midi":40,"time":56.454489,"velocity":0.7244094488188977},{"duration":0.2727270000000033,"midi":51,"time":56.727216,"velocity":0.7244094488188977},{"duration":0.2727270000000033,"midi":39,"time":56.727216,"velocity":0.7244094488188977},{"duration":0.27272699999999617,"midi":27,"time":56.999943,"velocity":0.7244094488188977},{"duration":0.27272699999999617,"midi":39,"time":56.999943,"velocity":0.7244094488188977},{"duration":0.2727270000000033,"midi":27,"time":57.4090335,"velocity":0.7244094488188977},{"duration":0.2727270000000033,"midi":39,"time":57.4090335,"velocity":0.7244094488188977},{"duration":0.2727270000000033,"midi":27,"time":57.818124,"velocity":0.7244094488188977},{"duration":0.2727270000000033,"midi":39,"time":57.818124,"velocity":0.7244094488188977},{"duration":0.27272699999999617,"midi":39,"time":58.090851,"velocity":0.7244094488188977},{"duration":0.27272699999999617,"midi":27,"time":58.090851,"velocity":0.7244094488188977},{"duration":0.27272699999999617,"midi":27,"time":58.2272145,"velocity":0.7244094488188977},{"duration":0.27272699999999617,"midi":39,"time":58.2272145,"velocity":0.7244094488188977},{"duration":0.13636350000000164,"midi":39,"time":58.4999415,"velocity":0.7244094488188977},{"duration":0.27272699999999617,"midi":50,"time":58.636305,"velocity":0.7244094488188977},{"duration":0.27272699999999617,"midi":38,"time":58.636305,"velocity":0.7244094488188977},{"duration":0.27272699999999617,"midi":52,"time":58.7726685,"velocity":0.7244094488188977},{"duration":0.27272699999999617,"midi":40,"time":58.7726685,"velocity":0.7244094488188977},{"duration":0.2727270000000033,"midi":39,"time":58.909031999999996,"velocity":0.7244094488188977},{"duration":0.2727270000000033,"midi":51,"time":58.909031999999996,"velocity":0.7244094488188977},{"duration":0.2727270000000033,"midi":39,"time":59.181759,"velocity":0.7244094488188977},{"duration":0.2727270000000033,"midi":27,"time":59.181759,"velocity":0.7244094488188977},{"duration":0.2727270000000033,"midi":27,"time":59.5908495,"velocity":0.7244094488188977},{"duration":0.2727270000000033,"midi":39,"time":59.5908495,"velocity":0.7244094488188977},{"duration":0.2727270000000033,"midi":51,"time":59.727213,"velocity":0.7244094488188977},{"duration":0.27272699999999617,"midi":52,"time":59.8635765,"velocity":0.7244094488188977},{"duration":0.27272699999999617,"midi":40,"time":59.8635765,"velocity":0.7244094488188977},{"duration":0.27272699999999617,"midi":50,"time":59.99994,"velocity":0.7244094488188977},{"duration":0.27272699999999617,"midi":39,"time":59.99994,"velocity":0.7244094488188977},{"duration":0.2727270000000033,"midi":38,"time":60.1363035,"velocity":0.7244094488188977},{"duration":0.2727270000000033,"midi":26,"time":60.1363035,"velocity":0.7244094488188977},{"duration":0.27272699999999617,"midi":26,"time":60.4090305,"velocity":0.7244094488188977},{"duration":0.27272699999999617,"midi":38,"time":60.4090305,"velocity":0.7244094488188977},{"duration":0.2727270000000033,"midi":26,"time":60.681757499999996,"velocity":0.7244094488188977},{"duration":0.2727270000000033,"midi":38,"time":60.681757499999996,"velocity":0.7244094488188977},{"duration":0.06818175000000082,"midi":38,"time":60.9544845,"velocity":0.7244094488188977},{"duration":0.06818175000000082,"midi":26,"time":60.9544845,"velocity":0.7244094488188977},{"duration":0.27272699999999617,"midi":39,"time":61.090848,"velocity":0.7244094488188977},{"duration":0.27272699999999617,"midi":51,"time":61.090848,"velocity":0.7244094488188977},{"duration":0.2727270000000033,"midi":27,"time":61.363575,"velocity":0.7244094488188977},{"duration":0.2727270000000033,"midi":39,"time":61.363575,"velocity":0.7244094488188977},{"duration":0.27272699999999617,"midi":39,"time":61.7726655,"velocity":0.7244094488188977},{"duration":0.27272699999999617,"midi":27,"time":61.7726655,"velocity":0.7244094488188977},{"duration":0.27272699999999617,"midi":39,"time":62.181756,"velocity":0.7244094488188977},{"duration":0.27272699999999617,"midi":27,"time":62.181756,"velocity":0.7244094488188977},{"duration":0.2727270000000033,"midi":27,"time":62.454482999999996,"velocity":0.7244094488188977},{"duration":0.2727270000000033,"midi":39,"time":62.454482999999996,"velocity":0.7244094488188977},{"duration":0.2727270000000033,"midi":39,"time":62.5908465,"velocity":0.7244094488188977},{"duration":0.2727270000000033,"midi":27,"time":62.5908465,"velocity":0.7244094488188977},{"duration":0.13636350000000164,"midi":39,"time":62.8635735,"velocity":0.7244094488188977},{"duration":0.27272699999999617,"midi":38,"time":62.999937,"velocity":0.7244094488188977},{"duration":0.27272699999999617,"midi":50,"time":62.999937,"velocity":0.7244094488188977},{"duration":0.2727270000000033,"midi":40,"time":63.1363005,"velocity":0.7244094488188977},{"duration":0.2727270000000033,"midi":52,"time":63.1363005,"velocity":0.7244094488188977},{"duration":0.2727270000000033,"midi":39,"time":63.272664,"velocity":0.7244094488188977},{"duration":0.2727270000000033,"midi":51,"time":63.272664,"velocity":0.7244094488188977},{"duration":0.27272699999999617,"midi":27,"time":63.545391,"velocity":0.7244094488188977},{"duration":0.27272699999999617,"midi":39,"time":63.545391,"velocity":0.7244094488188977},{"duration":0.2727270000000033,"midi":27,"time":63.9544815,"velocity":0.7244094488188977},{"duration":0.2727270000000033,"midi":39,"time":63.9544815,"velocity":0.7244094488188977},{"duration":0.27272699999998906,"midi":40,"time":64.363572,"velocity":0.7244094488188977},{"duration":0.27272699999998906,"midi":28,"time":64.363572,"velocity":0.7244094488188977},{"duration":0.2727270000000033,"midi":40,"time":64.7726625,"velocity":0.7244094488188977},{"duration":0.2727270000000033,"midi":52,"time":64.7726625,"velocity":0.7244094488188977},{"duration":0.2727270000000033,"midi":28,"time":65.181753,"velocity":0.7244094488188977},{"duration":0.2727270000000033,"midi":40,"time":65.181753,"velocity":0.7244094488188977},{"duration":0.27272699999998906,"midi":39,"time":65.45448,"velocity":0.7244094488188977},{"duration":0.27272699999998906,"midi":51,"time":65.45448,"velocity":0.7244094488188977},{"duration":0.2727270000000033,"midi":27,"time":65.72720699999999,"velocity":0.7244094488188977},{"duration":0.2727270000000033,"midi":39,"time":65.72720699999999,"velocity":0.7244094488188977},{"duration":0.2727270000000033,"midi":39,"time":66.1362975,"velocity":0.7244094488188977},{"duration":0.2727270000000033,"midi":27,"time":66.1362975,"velocity":0.7244094488188977},{"duration":0.2727270000000033,"midi":27,"time":66.545388,"velocity":0.7244094488188977},{"duration":0.2727270000000033,"midi":39,"time":66.545388,"velocity":0.7244094488188977},{"duration":0.27272699999998906,"midi":39,"time":66.818115,"velocity":0.7244094488188977},{"duration":0.27272699999998906,"midi":27,"time":66.818115,"velocity":0.7244094488188977},{"duration":0.2727270000000033,"midi":27,"time":66.9544785,"velocity":0.7244094488188977},{"duration":0.2727270000000033,"midi":39,"time":66.9544785,"velocity":0.7244094488188977},{"duration":0.13636350000000164,"midi":39,"time":67.2272055,"velocity":0.7244094488188977},{"duration":0.2727270000000033,"midi":38,"time":67.363569,"velocity":0.7244094488188977},{"duration":0.2727270000000033,"midi":50,"time":67.363569,"velocity":0.7244094488188977},{"duration":0.2727270000000033,"midi":52,"time":67.4999325,"velocity":0.7244094488188977},{"duration":0.2727270000000033,"midi":40,"time":67.4999325,"velocity":0.7244094488188977},{"duration":0.2727270000000033,"midi":39,"time":67.636296,"velocity":0.7244094488188977},{"duration":0.2727270000000033,"midi":51,"time":67.636296,"velocity":0.7244094488188977},{"duration":0.27272699999998906,"midi":39,"time":67.909023,"velocity":0.7244094488188977},{"duration":0.27272699999998906,"midi":27,"time":67.909023,"velocity":0.7244094488188977},{"duration":0.2727270000000033,"midi":27,"time":68.3181135,"velocity":0.7244094488188977},{"duration":0.2727270000000033,"midi":39,"time":68.3181135,"velocity":0.7244094488188977},{"duration":0.2727270000000033,"midi":39,"time":68.727204,"velocity":0.7244094488188977},{"duration":0.2727270000000033,"midi":27,"time":68.8635675,"velocity":0.7244094488188977},{"duration":0.27272699999998906,"midi":27,"time":69.1362945,"velocity":0.7244094488188977},{"duration":0.27272699999998906,"midi":39,"time":69.1362945,"velocity":0.7244094488188977},{"duration":0.2727270000000033,"midi":27,"time":69.4090215,"velocity":0.7244094488188977},{"duration":0.2727270000000033,"midi":39,"time":69.4090215,"velocity":0.7244094488188977},{"duration":0.06818175000000792,"midi":27,"time":69.6817485,"velocity":0.7244094488188977},{"duration":0.06818175000000792,"midi":39,"time":69.6817485,"velocity":0.7244094488188977},{"duration":0.27272699999998906,"midi":39,"time":78.545376,"velocity":0.7244094488188977},{"duration":0.27272699999998906,"midi":51,"time":78.545376,"velocity":0.7244094488188977},{"duration":0.2727270000000033,"midi":27,"time":78.818103,"velocity":0.7244094488188977},{"duration":0.2727270000000033,"midi":39,"time":78.818103,"velocity":0.7244094488188977},{"duration":0.2727270000000033,"midi":39,"time":86.5908225,"velocity":0.7244094488188977},{"duration":0.2727270000000033,"midi":27,"time":86.5908225,"velocity":0.7244094488188977},{"duration":0.2727270000000033,"midi":27,"time":86.99991299999999,"velocity":0.7244094488188977},{"duration":0.2727270000000033,"midi":39,"time":86.99991299999999,"velocity":0.7244094488188977},{"duration":0.06818175000000792,"midi":39,"time":87.27264,"velocity":0.7244094488188977},{"duration":0.06818175000000792,"midi":51,"time":87.27264,"velocity":0.7244094488188977},{"duration":0.13636350000000164,"midi":39,"time":87.4090035,"velocity":0.7244094488188977},{"duration":0.13636350000000164,"midi":51,"time":87.4090035,"velocity":0.7244094488188977},{"duration":0.13636350000000164,"midi":51,"time":87.545367,"velocity":0.7244094488188977},{"duration":0.13636350000000164,"midi":39,"time":87.545367,"velocity":0.7244094488188977},{"duration":0.06818174999999371,"midi":39,"time":87.6817305,"velocity":0.7244094488188977},{"duration":0.06818174999999371,"midi":51,"time":87.6817305,"velocity":0.7244094488188977},{"duration":0.13636350000000164,"midi":40,"time":87.818094,"velocity":0.7244094488188977},{"duration":0.13636350000000164,"midi":52,"time":87.818094,"velocity":0.7244094488188977},{"duration":0.06818174999999371,"midi":40,"time":87.9544575,"velocity":0.7244094488188977},{"duration":0.06818174999999371,"midi":52,"time":87.9544575,"velocity":0.7244094488188977},{"duration":0.06818174999999371,"midi":52,"time":88.090821,"velocity":0.7244094488188977},{"duration":0.06818174999999371,"midi":40,"time":88.090821,"velocity":0.7244094488188977},{"duration":0.13636350000000164,"midi":39,"time":88.22718449999999,"velocity":0.7244094488188977},{"duration":0.13636350000000164,"midi":51,"time":88.22718449999999,"velocity":0.7244094488188977},{"duration":0.06818175000000792,"midi":39,"time":88.363548,"velocity":0.7244094488188977},{"duration":0.06818175000000792,"midi":51,"time":88.363548,"velocity":0.7244094488188977},{"duration":0.13636350000000164,"midi":51,"time":88.4999115,"velocity":0.7244094488188977},{"duration":0.13636350000000164,"midi":39,"time":88.4999115,"velocity":0.7244094488188977},{"duration":0.06818175000000792,"midi":53,"time":88.636275,"velocity":0.7244094488188977},{"duration":0.06818175000000792,"midi":41,"time":88.636275,"velocity":0.7244094488188977},{"duration":0.06818174999999371,"midi":39,"time":88.7726385,"velocity":0.7244094488188977},{"duration":0.06818174999999371,"midi":51,"time":88.7726385,"velocity":0.7244094488188977},{"duration":0.13636350000000164,"midi":53,"time":88.909002,"velocity":0.7244094488188977},{"duration":0.13636350000000164,"midi":41,"time":88.909002,"velocity":0.7244094488188977},{"duration":0.13636350000000164,"midi":38,"time":89.0453655,"velocity":0.7244094488188977},{"duration":0.13636350000000164,"midi":50,"time":89.0453655,"velocity":0.7244094488188977},{"duration":0.13636350000000164,"midi":38,"time":89.181729,"velocity":0.7244094488188977},{"duration":0.13636350000000164,"midi":50,"time":89.181729,"velocity":0.7244094488188977},{"duration":0.13636349999998743,"midi":39,"time":89.3180925,"velocity":0.7244094488188977},{"duration":0.13636349999998743,"midi":51,"time":89.3180925,"velocity":0.7244094488188977},{"duration":0.06818175000000792,"midi":39,"time":89.454456,"velocity":0.7244094488188977},{"duration":0.06818175000000792,"midi":51,"time":89.454456,"velocity":0.7244094488188977},{"duration":0.13636350000000164,"midi":39,"time":89.5908195,"velocity":0.7244094488188977},{"duration":0.13636350000000164,"midi":51,"time":89.5908195,"velocity":0.7244094488188977},{"duration":0.13636350000000164,"midi":51,"time":89.727183,"velocity":0.7244094488188977},{"duration":0.13636350000000164,"midi":39,"time":89.727183,"velocity":0.7244094488188977},{"duration":0.06818175000000792,"midi":51,"time":89.8635465,"velocity":0.7244094488188977},{"duration":0.06818175000000792,"midi":39,"time":89.8635465,"velocity":0.7244094488188977},{"duration":0.06818174999999371,"midi":40,"time":89.99991,"velocity":0.7244094488188977},{"duration":0.06818174999999371,"midi":52,"time":89.99991,"velocity":0.7244094488188977},{"duration":0.06818174999999371,"midi":40,"time":90.1362735,"velocity":0.7244094488188977},{"duration":0.06818174999999371,"midi":52,"time":90.1362735,"velocity":0.7244094488188977},{"duration":0.13636350000000164,"midi":40,"time":90.272637,"velocity":0.7244094488188977},{"duration":0.13636350000000164,"midi":52,"time":90.272637,"velocity":0.7244094488188977},{"duration":0.06818174999999371,"midi":39,"time":90.4090005,"velocity":0.7244094488188977},{"duration":0.06818174999999371,"midi":51,"time":90.4090005,"velocity":0.7244094488188977},{"duration":0.06818175000000792,"midi":39,"time":90.54536399999999,"velocity":0.7244094488188977},{"duration":0.06818175000000792,"midi":51,"time":90.54536399999999,"velocity":0.7244094488188977},{"duration":0.13636350000000164,"midi":39,"time":90.6817275,"velocity":0.7244094488188977},{"duration":0.13636350000000164,"midi":51,"time":90.6817275,"velocity":0.7244094488188977},{"duration":0.06818175000000792,"midi":42,"time":90.818091,"velocity":0.7244094488188977},{"duration":0.06818175000000792,"midi":54,"time":90.818091,"velocity":0.7244094488188977},{"duration":0.06818175000000792,"midi":51,"time":90.9544545,"velocity":0.7244094488188977},{"duration":0.06818175000000792,"midi":39,"time":90.9544545,"velocity":0.7244094488188977},{"duration":0.13636350000000164,"midi":42,"time":91.090818,"velocity":0.7244094488188977},{"duration":0.13636350000000164,"midi":54,"time":91.090818,"velocity":0.7244094488188977},{"duration":0.13636350000000164,"midi":50,"time":91.2271815,"velocity":0.7244094488188977},{"duration":0.13636350000000164,"midi":38,"time":91.2271815,"velocity":0.7244094488188977},{"duration":0.13636350000000164,"midi":50,"time":91.363545,"velocity":0.7244094488188977},{"duration":0.13636350000000164,"midi":38,"time":91.363545,"velocity":0.7244094488188977},{"duration":0.13636350000000164,"midi":41,"time":91.4999085,"velocity":0.7244094488188977},{"duration":0.13636350000000164,"midi":53,"time":91.4999085,"velocity":0.7244094488188977},{"duration":0.06818174999999371,"midi":39,"time":91.636272,"velocity":0.7244094488188977},{"duration":0.06818174999999371,"midi":51,"time":91.636272,"velocity":0.7244094488188977},{"duration":0.13636350000000164,"midi":51,"time":91.77263549999999,"velocity":0.7244094488188977},{"duration":0.13636350000000164,"midi":39,"time":91.77263549999999,"velocity":0.7244094488188977},{"duration":0.13636350000000164,"midi":39,"time":91.908999,"velocity":0.7244094488188977},{"duration":0.13636350000000164,"midi":51,"time":91.908999,"velocity":0.7244094488188977},{"duration":0.06818175000000792,"midi":39,"time":92.0453625,"velocity":0.7244094488188977},{"duration":0.06818175000000792,"midi":51,"time":92.0453625,"velocity":0.7244094488188977},{"duration":0.13636350000000164,"midi":52,"time":92.181726,"velocity":0.7244094488188977},{"duration":0.13636350000000164,"midi":40,"time":92.181726,"velocity":0.7244094488188977},{"duration":0.06818174999999371,"midi":52,"time":92.3180895,"velocity":0.7244094488188977},{"duration":0.06818174999999371,"midi":40,"time":92.3180895,"velocity":0.7244094488188977},{"duration":0.06818174999999371,"midi":40,"time":92.454453,"velocity":0.7244094488188977},{"duration":0.06818174999999371,"midi":52,"time":92.454453,"velocity":0.7244094488188977},{"duration":0.13636350000000164,"midi":51,"time":92.5908165,"velocity":0.7244094488188977},{"duration":0.13636350000000164,"midi":39,"time":92.5908165,"velocity":0.7244094488188977},{"duration":0.06818174999999371,"midi":39,"time":92.72718,"velocity":0.7244094488188977},{"duration":0.06818174999999371,"midi":51,"time":92.72718,"velocity":0.7244094488188977},{"duration":0.13636349999998743,"midi":39,"time":92.8635435,"velocity":0.7244094488188977},{"duration":0.13636349999998743,"midi":51,"time":92.8635435,"velocity":0.7244094488188977},{"duration":0.06818175000000792,"midi":41,"time":92.999907,"velocity":0.7244094488188977},{"duration":0.06818175000000792,"midi":53,"time":92.999907,"velocity":0.7244094488188977},{"duration":0.06818175000000792,"midi":51,"time":93.1362705,"velocity":0.7244094488188977},{"duration":0.06818175000000792,"midi":39,"time":93.1362705,"velocity":0.7244094488188977},{"duration":0.13636350000000164,"midi":41,"time":93.272634,"velocity":0.7244094488188977},{"duration":0.13636350000000164,"midi":53,"time":93.272634,"velocity":0.7244094488188977},{"duration":0.13636350000000164,"midi":38,"time":93.4089975,"velocity":0.7244094488188977},{"duration":0.13636350000000164,"midi":50,"time":93.4089975,"velocity":0.7244094488188977},{"duration":0.13636350000000164,"midi":50,"time":93.545361,"velocity":0.7244094488188977},{"duration":0.13636350000000164,"midi":38,"time":93.545361,"velocity":0.7244094488188977},{"duration":0.13636350000000164,"midi":51,"time":93.6817245,"velocity":0.7244094488188977},{"duration":0.13636350000000164,"midi":39,"time":93.6817245,"velocity":0.7244094488188977},{"duration":0.06818174999999371,"midi":39,"time":93.818088,"velocity":0.7244094488188977},{"duration":0.06818174999999371,"midi":51,"time":93.818088,"velocity":0.7244094488188977},{"duration":0.13636349999998743,"midi":51,"time":93.9544515,"velocity":0.7244094488188977},{"duration":0.13636349999998743,"midi":39,"time":93.9544515,"velocity":0.7244094488188977},{"duration":0.13636350000000164,"midi":51,"time":94.09081499999999,"velocity":0.7244094488188977},{"duration":0.13636350000000164,"midi":39,"time":94.09081499999999,"velocity":0.7244094488188977},{"duration":0.06818175000000792,"midi":51,"time":94.2271785,"velocity":0.7244094488188977},{"duration":0.06818175000000792,"midi":39,"time":94.2271785,"velocity":0.7244094488188977},{"duration":0.06818175000000792,"midi":40,"time":94.363542,"velocity":0.7244094488188977},{"duration":0.06818175000000792,"midi":52,"time":94.363542,"velocity":0.7244094488188977},{"duration":0.06818175000000792,"midi":52,"time":94.4999055,"velocity":0.7244094488188977},{"duration":0.06818175000000792,"midi":40,"time":94.4999055,"velocity":0.7244094488188977},{"duration":0.13636350000000164,"midi":40,"time":94.636269,"velocity":0.7244094488188977},{"duration":0.13636350000000164,"midi":52,"time":94.636269,"velocity":0.7244094488188977},{"duration":0.06818174999999371,"midi":39,"time":94.7726325,"velocity":0.7244094488188977},{"duration":0.06818174999999371,"midi":51,"time":94.7726325,"velocity":0.7244094488188977},{"duration":0.06818174999999371,"midi":51,"time":94.908996,"velocity":0.7244094488188977},{"duration":0.06818174999999371,"midi":39,"time":94.908996,"velocity":0.7244094488188977},{"duration":0.13636350000000164,"midi":51,"time":95.0453595,"velocity":0.7244094488188977},{"duration":0.06818174999999371,"midi":40,"time":95.0453595,"velocity":0.7244094488188977},{"duration":0.13636350000000164,"midi":39,"time":95.0453595,"velocity":0.7244094488188977},{"duration":0.06818174999999371,"midi":52,"time":95.0453595,"velocity":0.7244094488188977},{"duration":0.13636349999998743,"midi":40,"time":95.181723,"velocity":0.7244094488188977},{"duration":0.13636349999998743,"midi":52,"time":95.181723,"velocity":0.7244094488188977},{"duration":0.06818175000000792,"midi":41,"time":95.31808649999999,"velocity":0.7244094488188977},{"duration":0.06818175000000792,"midi":53,"time":95.31808649999999,"velocity":0.7244094488188977},{"duration":0.13636350000000164,"midi":54,"time":95.45445,"velocity":0.7244094488188977},{"duration":0.13636350000000164,"midi":42,"time":95.45445,"velocity":0.7244094488188977},{"duration":0.06818175000000792,"midi":53,"time":95.5908135,"velocity":0.7244094488188977},{"duration":0.06818175000000792,"midi":41,"time":95.5908135,"velocity":0.7244094488188977},{"duration":0.13636350000000164,"midi":40,"time":95.727177,"velocity":0.7244094488188977},{"duration":0.13636350000000164,"midi":52,"time":95.727177,"velocity":0.7244094488188977},{"duration":0.13636350000000164,"midi":38,"time":95.8635405,"velocity":0.7244094488188977},{"duration":0.13636350000000164,"midi":50,"time":95.8635405,"velocity":0.7244094488188977},{"duration":0.06818174999999371,"midi":51,"time":95.999904,"velocity":0.7244094488188977},{"duration":0.06818174999999371,"midi":39,"time":95.999904,"velocity":0.7244094488188977},{"duration":0.13636350000000164,"midi":39,"time":96.1362675,"velocity":0.7244094488188977},{"duration":0.13636350000000164,"midi":51,"time":96.1362675,"velocity":0.7244094488188977},{"duration":0.13636350000000164,"midi":51,"time":96.272631,"velocity":0.7244094488188977},{"duration":0.13636350000000164,"midi":39,"time":96.272631,"velocity":0.7244094488188977},{"duration":0.06818174999999371,"midi":51,"time":96.4089945,"velocity":0.7244094488188977},{"duration":0.06818174999999371,"midi":39,"time":96.4089945,"velocity":0.7244094488188977},{"duration":0.13636350000000164,"midi":52,"time":96.545358,"velocity":0.7244094488188977},{"duration":0.13636350000000164,"midi":40,"time":96.545358,"velocity":0.7244094488188977},{"duration":0.06818175000000792,"midi":52,"time":96.6817215,"velocity":0.7244094488188977},{"duration":0.06818175000000792,"midi":40,"time":96.6817215,"velocity":0.7244094488188977},{"duration":0.06818175000000792,"midi":52,"time":96.818085,"velocity":0.7244094488188977},{"duration":0.06818175000000792,"midi":40,"time":96.818085,"velocity":0.7244094488188977},{"duration":0.13636350000000164,"midi":39,"time":96.9544485,"velocity":0.7244094488188977},{"duration":0.13636350000000164,"midi":51,"time":96.9544485,"velocity":0.7244094488188977},{"duration":0.06818174999999371,"midi":51,"time":97.090812,"velocity":0.7244094488188977},{"duration":0.06818174999999371,"midi":39,"time":97.090812,"velocity":0.7244094488188977},{"duration":0.13636350000000164,"midi":51,"time":97.2271755,"velocity":0.7244094488188977},{"duration":0.13636350000000164,"midi":39,"time":97.2271755,"velocity":0.7244094488188977},{"duration":0.06818174999999371,"midi":41,"time":97.363539,"velocity":0.7244094488188977},{"duration":0.06818174999999371,"midi":53,"time":97.363539,"velocity":0.7244094488188977},{"duration":0.06818174999999371,"midi":39,"time":97.4999025,"velocity":0.7244094488188977},{"duration":0.06818174999999371,"midi":51,"time":97.4999025,"velocity":0.7244094488188977},{"duration":0.13636350000000164,"midi":41,"time":97.63626599999999,"velocity":0.7244094488188977},{"duration":0.13636350000000164,"midi":53,"time":97.63626599999999,"velocity":0.7244094488188977},{"duration":0.13636350000000164,"midi":38,"time":97.7726295,"velocity":0.7244094488188977},{"duration":0.13636350000000164,"midi":50,"time":97.7726295,"velocity":0.7244094488188977},{"duration":0.13636350000000164,"midi":50,"time":97.908993,"velocity":0.7244094488188977},{"duration":0.13636350000000164,"midi":38,"time":97.908993,"velocity":0.7244094488188977},{"duration":0.13636350000000164,"midi":39,"time":98.0453565,"velocity":0.7244094488188977},{"duration":0.13636350000000164,"midi":51,"time":98.0453565,"velocity":0.7244094488188977},{"duration":0.06818174999999371,"midi":51,"time":98.18172,"velocity":0.7244094488188977},{"duration":0.06818174999999371,"midi":39,"time":98.18172,"velocity":0.7244094488188977},{"duration":0.13636350000000164,"midi":39,"time":98.3180835,"velocity":0.7244094488188977},{"duration":0.13636350000000164,"midi":51,"time":98.3180835,"velocity":0.7244094488188977},{"duration":0.13636350000000164,"midi":39,"time":98.454447,"velocity":0.7244094488188977},{"duration":0.13636350000000164,"midi":51,"time":98.454447,"velocity":0.7244094488188977},{"duration":0.06818174999999371,"midi":51,"time":98.5908105,"velocity":0.7244094488188977},{"duration":0.06818174999999371,"midi":39,"time":98.5908105,"velocity":0.7244094488188977},{"duration":0.06818174999999371,"midi":40,"time":98.727174,"velocity":0.7244094488188977},{"duration":0.06818174999999371,"midi":52,"time":98.727174,"velocity":0.7244094488188977},{"duration":0.06818175000000792,"midi":40,"time":98.86353749999999,"velocity":0.7244094488188977},{"duration":0.06818175000000792,"midi":52,"time":98.86353749999999,"velocity":0.7244094488188977},{"duration":0.13636350000000164,"midi":52,"time":98.999901,"velocity":0.7244094488188977},{"duration":0.13636350000000164,"midi":40,"time":98.999901,"velocity":0.7244094488188977},{"duration":0.06818175000000792,"midi":51,"time":99.1362645,"velocity":0.7244094488188977},{"duration":0.06818175000000792,"midi":39,"time":99.1362645,"velocity":0.7244094488188977},{"duration":0.06818175000000792,"midi":51,"time":99.272628,"velocity":0.7244094488188977},{"duration":0.06818175000000792,"midi":39,"time":99.272628,"velocity":0.7244094488188977},{"duration":0.13636350000000164,"midi":39,"time":99.4089915,"velocity":0.7244094488188977},{"duration":0.13636350000000164,"midi":51,"time":99.4089915,"velocity":0.7244094488188977},{"duration":0.06818174999999371,"midi":54,"time":99.545355,"velocity":0.7244094488188977},{"duration":0.06818174999999371,"midi":42,"time":99.545355,"velocity":0.7244094488188977},{"duration":0.06818174999999371,"midi":39,"time":99.6817185,"velocity":0.7244094488188977},{"duration":0.06818174999999371,"midi":51,"time":99.6817185,"velocity":0.7244094488188977},{"duration":0.13636350000000164,"midi":42,"time":99.818082,"velocity":0.7244094488188977},{"duration":0.13636350000000164,"midi":54,"time":99.818082,"velocity":0.7244094488188977},{"duration":0.13636349999998743,"midi":38,"time":99.9544455,"velocity":0.7244094488188977},{"duration":0.13636349999998743,"midi":50,"time":99.9544455,"velocity":0.7244094488188977},{"duration":0.13636350000000164,"midi":50,"time":100.090809,"velocity":0.7244094488188977},{"duration":0.13636350000000164,"midi":38,"time":100.090809,"velocity":0.7244094488188977},{"duration":0.13636350000000164,"midi":41,"time":100.2271725,"velocity":0.7244094488188977},{"duration":0.13636350000000164,"midi":53,"time":100.2271725,"velocity":0.7244094488188977},{"duration":0.06818175000000792,"midi":39,"time":100.363536,"velocity":0.7244094488188977},{"duration":0.06818175000000792,"midi":51,"time":100.363536,"velocity":0.7244094488188977},{"duration":0.13636350000000164,"midi":39,"time":100.4998995,"velocity":0.7244094488188977},{"duration":0.13636350000000164,"midi":51,"time":100.4998995,"velocity":0.7244094488188977},{"duration":0.13636350000000164,"midi":51,"time":100.636263,"velocity":0.7244094488188977},{"duration":0.13636350000000164,"midi":39,"time":100.636263,"velocity":0.7244094488188977},{"duration":0.06818174999999371,"midi":39,"time":100.7726265,"velocity":0.7244094488188977},{"duration":0.06818174999999371,"midi":51,"time":100.7726265,"velocity":0.7244094488188977},{"duration":0.13636350000000164,"midi":40,"time":100.90899,"velocity":0.7244094488188977},{"duration":0.13636350000000164,"midi":52,"time":100.90899,"velocity":0.7244094488188977},{"duration":0.06818174999999371,"midi":40,"time":101.0453535,"velocity":0.7244094488188977},{"duration":0.06818174999999371,"midi":52,"time":101.0453535,"velocity":0.7244094488188977},{"duration":0.06818175000000792,"midi":52,"time":101.18171699999999,"velocity":0.7244094488188977},{"duration":0.06818175000000792,"midi":40,"time":101.18171699999999,"velocity":0.7244094488188977},{"duration":0.13636350000000164,"midi":39,"time":101.3180805,"velocity":0.7244094488188977},{"duration":0.13636350000000164,"midi":51,"time":101.3180805,"velocity":0.7244094488188977},{"duration":0.06818175000000792,"midi":39,"time":101.454444,"velocity":0.7244094488188977},{"duration":0.06818175000000792,"midi":51,"time":101.454444,"velocity":0.7244094488188977},{"duration":0.13636350000000164,"midi":51,"time":101.5908075,"velocity":0.7244094488188977},{"duration":0.13636350000000164,"midi":39,"time":101.5908075,"velocity":0.7244094488188977},{"duration":0.06818174999999371,"midi":41,"time":101.727171,"velocity":0.7244094488188977},{"duration":0.06818174999999371,"midi":53,"time":101.727171,"velocity":0.7244094488188977},{"duration":0.06818174999999371,"midi":51,"time":101.8635345,"velocity":0.7244094488188977},{"duration":0.06818174999999371,"midi":39,"time":101.8635345,"velocity":0.7244094488188977},{"duration":0.13636350000000164,"midi":41,"time":101.999898,"velocity":0.7244094488188977},{"duration":0.13636350000000164,"midi":53,"time":101.999898,"velocity":0.7244094488188977},{"duration":0.13636350000000164,"midi":38,"time":102.1362615,"velocity":0.7244094488188977},{"duration":0.13636350000000164,"midi":50,"time":102.1362615,"velocity":0.7244094488188977},{"duration":0.13636349999998743,"midi":50,"time":102.272625,"velocity":0.7244094488188977},{"duration":0.13636349999998743,"midi":38,"time":102.272625,"velocity":0.7244094488188977},{"duration":0.13636350000000164,"midi":51,"time":102.40898849999999,"velocity":0.7244094488188977},{"duration":0.13636350000000164,"midi":39,"time":102.40898849999999,"velocity":0.7244094488188977},{"duration":0.06818175000000792,"midi":51,"time":102.545352,"velocity":0.7244094488188977},{"duration":0.06818175000000792,"midi":39,"time":102.545352,"velocity":0.7244094488188977},{"duration":0.13636350000000164,"midi":51,"time":102.6817155,"velocity":0.7244094488188977},{"duration":0.13636350000000164,"midi":39,"time":102.6817155,"velocity":0.7244094488188977},{"duration":0.13636350000000164,"midi":51,"time":102.818079,"velocity":0.7244094488188977},{"duration":0.13636350000000164,"midi":39,"time":102.818079,"velocity":0.7244094488188977},{"duration":0.06818174999999371,"midi":39,"time":102.9544425,"velocity":0.7244094488188977},{"duration":0.06818174999999371,"midi":51,"time":102.9544425,"velocity":0.7244094488188977},{"duration":0.06818174999999371,"midi":52,"time":103.090806,"velocity":0.7244094488188977},{"duration":0.06818174999999371,"midi":40,"time":103.090806,"velocity":0.7244094488188977},{"duration":0.06818174999999371,"midi":40,"time":103.2271695,"velocity":0.7244094488188977},{"duration":0.06818174999999371,"midi":52,"time":103.2271695,"velocity":0.7244094488188977},{"duration":0.13636350000000164,"midi":52,"time":103.363533,"velocity":0.7244094488188977},{"duration":0.13636350000000164,"midi":40,"time":103.363533,"velocity":0.7244094488188977},{"duration":0.06818174999999371,"midi":51,"time":103.4998965,"velocity":0.7244094488188977},{"duration":0.06818174999999371,"midi":39,"time":103.4998965,"velocity":0.7244094488188977},{"duration":0.06818175000000792,"midi":39,"time":103.63626,"velocity":0.7244094488188977},{"duration":0.06818175000000792,"midi":51,"time":103.63626,"velocity":0.7244094488188977},{"duration":0.13636350000000164,"midi":39,"time":103.7726235,"velocity":0.7244094488188977},{"duration":0.13636350000000164,"midi":51,"time":103.7726235,"velocity":0.7244094488188977},{"duration":0.13636350000000164,"midi":51,"time":103.908987,"velocity":0.7244094488188977},{"duration":0.13636350000000164,"midi":39,"time":103.908987,"velocity":0.7244094488188977},{"duration":0.06818175000000792,"midi":39,"time":104.0453505,"velocity":0.7244094488188977},{"duration":0.06818175000000792,"midi":51,"time":104.0453505,"velocity":0.7244094488188977},{"duration":0.06818174999999371,"midi":51,"time":104.181714,"velocity":0.7244094488188977},{"duration":0.06818174999999371,"midi":39,"time":104.181714,"velocity":0.7244094488188977},{"duration":0.06818174999999371,"midi":51,"time":104.3180775,"velocity":0.7244094488188977},{"duration":0.06818174999999371,"midi":39,"time":104.3180775,"velocity":0.7244094488188977},{"duration":0.06818174999999371,"midi":39,"time":104.454441,"velocity":0.7244094488188977},{"duration":0.06818174999999371,"midi":51,"time":104.454441,"velocity":0.7244094488188977},{"duration":0.13636350000000164,"midi":39,"time":104.5908045,"velocity":0.7244094488188977},{"duration":0.13636350000000164,"midi":51,"time":104.5908045,"velocity":0.7244094488188977},{"duration":0.06818174999999371,"midi":39,"time":104.727168,"velocity":0.7244094488188977},{"duration":0.06818174999999371,"midi":27,"time":104.727168,"velocity":0.7244094488188977},{"duration":0.13636350000000164,"midi":39,"time":104.8635315,"velocity":0.7244094488188977},{"duration":0.13636350000000164,"midi":27,"time":104.8635315,"velocity":0.7244094488188977},{"duration":0.13636350000000164,"midi":39,"time":104.999895,"velocity":0.7244094488188977},{"duration":0.13636350000000164,"midi":27,"time":104.999895,"velocity":0.7244094488188977},{"duration":0.06818175000000792,"midi":39,"time":105.1362585,"velocity":0.7244094488188977},{"duration":0.06818175000000792,"midi":27,"time":105.1362585,"velocity":0.7244094488188977},{"duration":0.13636350000000164,"midi":40,"time":105.272622,"velocity":0.7244094488188977},{"duration":0.13636350000000164,"midi":28,"time":105.272622,"velocity":0.7244094488188977},{"duration":0.06818174999999371,"midi":28,"time":105.4089855,"velocity":0.7244094488188977},{"duration":0.06818174999999371,"midi":40,"time":105.4089855,"velocity":0.7244094488188977},{"duration":0.06818174999999371,"midi":28,"time":105.545349,"velocity":0.7244094488188977},{"duration":0.06818174999999371,"midi":40,"time":105.545349,"velocity":0.7244094488188977},{"duration":0.13636350000000164,"midi":39,"time":105.6817125,"velocity":0.7244094488188977},{"duration":0.13636350000000164,"midi":27,"time":105.6817125,"velocity":0.7244094488188977},{"duration":0.06818174999999371,"midi":39,"time":105.818076,"velocity":0.7244094488188977},{"duration":0.06818174999999371,"midi":27,"time":105.818076,"velocity":0.7244094488188977},{"duration":0.13636350000000164,"midi":27,"time":105.95443949999999,"velocity":0.7244094488188977},{"duration":0.13636350000000164,"midi":39,"time":105.95443949999999,"velocity":0.7244094488188977},{"duration":0.06818175000000792,"midi":41,"time":106.090803,"velocity":0.7244094488188977},{"duration":0.06818175000000792,"midi":29,"time":106.090803,"velocity":0.7244094488188977},{"duration":0.06818175000000792,"midi":27,"time":106.2271665,"velocity":0.7244094488188977},{"duration":0.06818175000000792,"midi":39,"time":106.2271665,"velocity":0.7244094488188977},{"duration":0.13636350000000164,"midi":29,"time":106.36353,"velocity":0.7244094488188977},{"duration":0.13636350000000164,"midi":41,"time":106.36353,"velocity":0.7244094488188977},{"duration":0.13636350000000164,"midi":26,"time":106.4998935,"velocity":0.7244094488188977},{"duration":0.13636350000000164,"midi":38,"time":106.4998935,"velocity":0.7244094488188977},{"duration":0.13636350000000164,"midi":26,"time":106.636257,"velocity":0.7244094488188977},{"duration":0.13636350000000164,"midi":38,"time":106.636257,"velocity":0.7244094488188977},{"duration":0.13636350000000164,"midi":39,"time":106.7726205,"velocity":0.7244094488188977},{"duration":0.13636350000000164,"midi":27,"time":106.7726205,"velocity":0.7244094488188977},{"duration":0.06818174999999371,"midi":27,"time":106.908984,"velocity":0.7244094488188977},{"duration":0.06818174999999371,"midi":39,"time":106.908984,"velocity":0.7244094488188977},{"duration":0.13636349999998743,"midi":39,"time":107.0453475,"velocity":0.7244094488188977},{"duration":0.13636349999998743,"midi":27,"time":107.0453475,"velocity":0.7244094488188977},{"duration":0.13636350000000164,"midi":27,"time":107.18171099999999,"velocity":0.7244094488188977},{"duration":0.13636350000000164,"midi":39,"time":107.18171099999999,"velocity":0.7244094488188977},{"duration":0.06818175000000792,"midi":27,"time":107.3180745,"velocity":0.7244094488188977},{"duration":0.06818175000000792,"midi":39,"time":107.3180745,"velocity":0.7244094488188977},{"duration":0.06818175000000792,"midi":40,"time":107.454438,"velocity":0.7244094488188977},{"duration":0.06818175000000792,"midi":28,"time":107.454438,"velocity":0.7244094488188977},{"duration":0.06818175000000792,"midi":40,"time":107.5908015,"velocity":0.7244094488188977},{"duration":0.06818175000000792,"midi":28,"time":107.5908015,"velocity":0.7244094488188977},{"duration":0.13636350000000164,"midi":28,"time":107.727165,"velocity":0.7244094488188977},{"duration":0.13636350000000164,"midi":40,"time":107.727165,"velocity":0.7244094488188977},{"duration":0.06818174999999371,"midi":27,"time":107.8635285,"velocity":0.7244094488188977},{"duration":0.06818174999999371,"midi":39,"time":107.8635285,"velocity":0.7244094488188977},{"duration":0.06818174999999371,"midi":27,"time":107.999892,"velocity":0.7244094488188977},{"duration":0.06818174999999371,"midi":39,"time":107.999892,"velocity":0.7244094488188977},{"duration":0.13636350000000164,"midi":27,"time":108.1362555,"velocity":0.7244094488188977},{"duration":0.13636350000000164,"midi":39,"time":108.1362555,"velocity":0.7244094488188977},{"duration":0.06818174999999371,"midi":30,"time":108.272619,"velocity":0.7244094488188977},{"duration":0.06818174999999371,"midi":42,"time":108.272619,"velocity":0.7244094488188977},{"duration":0.06818175000000792,"midi":27,"time":108.4089825,"velocity":0.7244094488188977},{"duration":0.06818175000000792,"midi":39,"time":108.4089825,"velocity":0.7244094488188977},{"duration":0.13636350000000164,"midi":42,"time":108.545346,"velocity":0.7244094488188977},{"duration":0.13636350000000164,"midi":30,"time":108.545346,"velocity":0.7244094488188977},{"duration":0.13636350000000164,"midi":26,"time":108.6817095,"velocity":0.7244094488188977},{"duration":0.13636350000000164,"midi":38,"time":108.6817095,"velocity":0.7244094488188977},{"duration":0.13636350000000164,"midi":26,"time":108.818073,"velocity":0.7244094488188977},{"duration":0.13636350000000164,"midi":38,"time":108.818073,"velocity":0.7244094488188977},{"duration":0.13636350000000164,"midi":41,"time":108.9544365,"velocity":0.7244094488188977},{"duration":0.13636350000000164,"midi":29,"time":108.9544365,"velocity":0.7244094488188977},{"duration":0.06818174999999371,"midi":27,"time":109.0908,"velocity":0.7244094488188977},{"duration":0.06818174999999371,"midi":39,"time":109.0908,"velocity":0.7244094488188977},{"duration":0.13636350000000164,"midi":27,"time":109.2271635,"velocity":0.7244094488188977},{"duration":0.13636350000000164,"midi":39,"time":109.2271635,"velocity":0.7244094488188977},{"duration":0.13636349999998743,"midi":27,"time":109.363527,"velocity":0.7244094488188977},{"duration":0.13636349999998743,"midi":39,"time":109.363527,"velocity":0.7244094488188977},{"duration":0.06818175000000792,"midi":27,"time":109.49989049999999,"velocity":0.7244094488188977},{"duration":0.06818175000000792,"midi":39,"time":109.49989049999999,"velocity":0.7244094488188977},{"duration":0.13636350000000164,"midi":28,"time":109.636254,"velocity":0.7244094488188977},{"duration":0.13636350000000164,"midi":40,"time":109.636254,"velocity":0.7244094488188977},{"duration":0.06818175000000792,"midi":40,"time":109.7726175,"velocity":0.7244094488188977},{"duration":0.06818175000000792,"midi":28,"time":109.7726175,"velocity":0.7244094488188977},{"duration":0.06818175000000792,"midi":40,"time":109.908981,"velocity":0.7244094488188977},{"duration":0.06818175000000792,"midi":28,"time":109.908981,"velocity":0.7244094488188977},{"duration":0.13636350000000164,"midi":39,"time":110.0453445,"velocity":0.7244094488188977},{"duration":0.13636350000000164,"midi":27,"time":110.0453445,"velocity":0.7244094488188977},{"duration":0.06818174999999371,"midi":27,"time":110.181708,"velocity":0.7244094488188977},{"duration":0.06818174999999371,"midi":39,"time":110.181708,"velocity":0.7244094488188977},{"duration":0.13636350000000164,"midi":39,"time":110.3180715,"velocity":0.7244094488188977},{"duration":0.13636350000000164,"midi":27,"time":110.3180715,"velocity":0.7244094488188977},{"duration":0.06818174999999371,"midi":29,"time":110.454435,"velocity":0.7244094488188977},{"duration":0.06818174999999371,"midi":41,"time":110.454435,"velocity":0.7244094488188977},{"duration":0.06818174999999371,"midi":27,"time":110.5907985,"velocity":0.7244094488188977},{"duration":0.06818174999999371,"midi":39,"time":110.5907985,"velocity":0.7244094488188977},{"duration":0.13636350000000164,"midi":29,"time":110.72716199999999,"velocity":0.7244094488188977},{"duration":0.13636350000000164,"midi":41,"time":110.72716199999999,"velocity":0.7244094488188977},{"duration":0.13636350000000164,"midi":26,"time":110.8635255,"velocity":0.7244094488188977},{"duration":0.13636350000000164,"midi":38,"time":110.8635255,"velocity":0.7244094488188977},{"duration":0.13636350000000164,"midi":26,"time":110.999889,"velocity":0.7244094488188977},{"duration":0.13636350000000164,"midi":38,"time":110.999889,"velocity":0.7244094488188977},{"duration":0.13636350000000164,"midi":27,"time":111.1362525,"velocity":0.7244094488188977},{"duration":0.13636350000000164,"midi":39,"time":111.1362525,"velocity":0.7244094488188977},{"duration":0.06818174999999371,"midi":39,"time":111.272616,"velocity":0.7244094488188977},{"duration":0.06818174999999371,"midi":27,"time":111.272616,"velocity":0.7244094488188977},{"duration":0.13636350000000164,"midi":27,"time":111.4089795,"velocity":0.7244094488188977},{"duration":0.13636350000000164,"midi":39,"time":111.4089795,"velocity":0.7244094488188977},{"duration":0.13636350000000164,"midi":27,"time":111.545343,"velocity":0.7244094488188977},{"duration":0.13636350000000164,"midi":39,"time":111.545343,"velocity":0.7244094488188977},{"duration":0.06818174999999371,"midi":27,"time":111.6817065,"velocity":0.7244094488188977},{"duration":0.06818174999999371,"midi":39,"time":111.6817065,"velocity":0.7244094488188977},{"duration":0.06818174999999371,"midi":28,"time":111.81807,"velocity":0.7244094488188977},{"duration":0.06818174999999371,"midi":40,"time":111.81807,"velocity":0.7244094488188977},{"duration":0.06818175000000792,"midi":28,"time":111.9544335,"velocity":0.7244094488188977},{"duration":0.06818175000000792,"midi":40,"time":111.9544335,"velocity":0.7244094488188977},{"duration":0.13636350000000164,"midi":28,"time":112.090797,"velocity":0.7244094488188977},{"duration":0.13636350000000164,"midi":40,"time":112.090797,"velocity":0.7244094488188977},{"duration":0.06818175000000792,"midi":39,"time":112.2271605,"velocity":0.7244094488188977},{"duration":0.06818175000000792,"midi":27,"time":112.2271605,"velocity":0.7244094488188977},{"duration":0.06818174999999371,"midi":39,"time":112.363524,"velocity":0.7244094488188977},{"duration":0.06818174999999371,"midi":27,"time":112.363524,"velocity":0.7244094488188977},{"duration":0.06818174999999371,"midi":40,"time":112.4998875,"velocity":0.7244094488188977},{"duration":0.13636350000000164,"midi":39,"time":112.4998875,"velocity":0.7244094488188977},{"duration":0.13636350000000164,"midi":27,"time":112.4998875,"velocity":0.7244094488188977},{"duration":0.06818174999999371,"midi":28,"time":112.4998875,"velocity":0.7244094488188977},{"duration":0.13636350000000164,"midi":28,"time":112.636251,"velocity":0.7244094488188977},{"duration":0.13636350000000164,"midi":40,"time":112.636251,"velocity":0.7244094488188977},{"duration":0.06818174999999371,"midi":29,"time":112.7726145,"velocity":0.7244094488188977},{"duration":0.06818174999999371,"midi":41,"time":112.7726145,"velocity":0.7244094488188977},{"duration":0.13636349999998743,"midi":42,"time":112.908978,"velocity":0.7244094488188977},{"duration":0.13636349999998743,"midi":30,"time":112.908978,"velocity":0.7244094488188977},{"duration":0.06818175000000792,"midi":41,"time":113.04534149999999,"velocity":0.7244094488188977},{"duration":0.06818175000000792,"midi":29,"time":113.04534149999999,"velocity":0.7244094488188977},{"duration":0.13636350000000164,"midi":40,"time":113.181705,"velocity":0.7244094488188977},{"duration":0.13636350000000164,"midi":28,"time":113.181705,"velocity":0.7244094488188977},{"duration":0.13636350000000164,"midi":26,"time":113.3180685,"velocity":0.7244094488188977},{"duration":0.13636350000000164,"midi":38,"time":113.3180685,"velocity":0.7244094488188977},{"duration":0.06818175000000792,"midi":27,"time":113.454432,"velocity":0.7244094488188977},{"duration":0.06818175000000792,"midi":39,"time":113.454432,"velocity":0.7244094488188977},{"duration":0.13636350000000164,"midi":27,"time":113.5907955,"velocity":0.7244094488188977},{"duration":0.13636350000000164,"midi":39,"time":113.5907955,"velocity":0.7244094488188977},{"duration":0.13636350000000164,"midi":39,"time":113.727159,"velocity":0.7244094488188977},{"duration":0.13636350000000164,"midi":27,"time":113.727159,"velocity":0.7244094488188977},{"duration":0.06818174999999371,"midi":39,"time":113.8635225,"velocity":0.7244094488188977},{"duration":0.06818174999999371,"midi":27,"time":113.8635225,"velocity":0.7244094488188977},{"duration":0.13636350000000164,"midi":40,"time":113.999886,"velocity":0.7244094488188977},{"duration":0.13636350000000164,"midi":28,"time":113.999886,"velocity":0.7244094488188977},{"duration":0.06818174999999371,"midi":40,"time":114.1362495,"velocity":0.7244094488188977},{"duration":0.06818174999999371,"midi":28,"time":114.1362495,"velocity":0.7244094488188977},{"duration":0.06818175000000792,"midi":28,"time":114.27261299999999,"velocity":0.7244094488188977},{"duration":0.06818175000000792,"midi":40,"time":114.27261299999999,"velocity":0.7244094488188977},{"duration":0.13636350000000164,"midi":39,"time":114.4089765,"velocity":0.7244094488188977},{"duration":0.13636350000000164,"midi":27,"time":114.4089765,"velocity":0.7244094488188977},{"duration":0.06818175000000792,"midi":39,"time":114.54534,"velocity":0.7244094488188977},{"duration":0.06818175000000792,"midi":27,"time":114.54534,"velocity":0.7244094488188977},{"duration":0.13636350000000164,"midi":27,"time":114.6817035,"velocity":0.7244094488188977},{"duration":0.13636350000000164,"midi":39,"time":114.6817035,"velocity":0.7244094488188977},{"duration":0.06818174999999371,"midi":29,"time":114.818067,"velocity":0.7244094488188977},{"duration":0.06818174999999371,"midi":41,"time":114.818067,"velocity":0.7244094488188977},{"duration":0.06818174999999371,"midi":39,"time":114.9544305,"velocity":0.7244094488188977},{"duration":0.06818174999999371,"midi":27,"time":114.9544305,"velocity":0.7244094488188977},{"duration":0.13636350000000164,"midi":41,"time":115.090794,"velocity":0.7244094488188977},{"duration":0.13636350000000164,"midi":29,"time":115.090794,"velocity":0.7244094488188977},{"duration":0.13636350000000164,"midi":38,"time":115.2271575,"velocity":0.7244094488188977},{"duration":0.13636350000000164,"midi":26,"time":115.2271575,"velocity":0.7244094488188977},{"duration":0.13636349999998743,"midi":38,"time":115.363521,"velocity":0.7244094488188977},{"duration":0.13636349999998743,"midi":26,"time":115.363521,"velocity":0.7244094488188977},{"duration":0.13636350000000164,"midi":27,"time":115.4998845,"velocity":0.7244094488188977},{"duration":0.13636350000000164,"midi":39,"time":115.4998845,"velocity":0.7244094488188977},{"duration":0.06818175000000792,"midi":27,"time":115.636248,"velocity":0.7244094488188977},{"duration":0.06818175000000792,"midi":39,"time":115.636248,"velocity":0.7244094488188977},{"duration":0.13636350000000164,"midi":39,"time":115.7726115,"velocity":0.7244094488188977},{"duration":0.13636350000000164,"midi":27,"time":115.7726115,"velocity":0.7244094488188977},{"duration":0.13636350000000164,"midi":39,"time":115.908975,"velocity":0.7244094488188977},{"duration":0.13636350000000164,"midi":27,"time":115.908975,"velocity":0.7244094488188977},{"duration":0.06818174999999371,"midi":27,"time":116.0453385,"velocity":0.7244094488188977},{"duration":0.06818174999999371,"midi":39,"time":116.0453385,"velocity":0.7244094488188977},{"duration":0.06818174999999371,"midi":28,"time":116.181702,"velocity":0.7244094488188977},{"duration":0.06818174999999371,"midi":40,"time":116.181702,"velocity":0.7244094488188977},{"duration":0.06818174999999371,"midi":40,"time":116.3180655,"velocity":0.7244094488188977},{"duration":0.06818174999999371,"midi":28,"time":116.3180655,"velocity":0.7244094488188977},{"duration":0.13636349999998743,"midi":28,"time":116.454429,"velocity":0.7244094488188977},{"duration":0.13636349999998743,"midi":40,"time":116.454429,"velocity":0.7244094488188977},{"duration":0.06818175000000792,"midi":39,"time":116.59079249999999,"velocity":0.7244094488188977},{"duration":0.06818175000000792,"midi":27,"time":116.59079249999999,"velocity":0.7244094488188977},{"duration":0.06818175000000792,"midi":27,"time":116.727156,"velocity":0.7244094488188977},{"duration":0.06818175000000792,"midi":39,"time":116.727156,"velocity":0.7244094488188977},{"duration":0.13636350000000164,"midi":27,"time":116.8635195,"velocity":0.7244094488188977},{"duration":0.13636350000000164,"midi":39,"time":116.8635195,"velocity":0.7244094488188977},{"duration":0.06818175000000792,"midi":30,"time":116.999883,"velocity":0.7244094488188977},{"duration":0.06818175000000792,"midi":42,"time":116.999883,"velocity":0.7244094488188977},{"duration":0.06818174999999371,"midi":39,"time":117.1362465,"velocity":0.7244094488188977},{"duration":0.06818174999999371,"midi":27,"time":117.1362465,"velocity":0.7244094488188977},{"duration":0.13636350000000164,"midi":42,"time":117.27261,"velocity":0.7244094488188977},{"duration":0.13636350000000164,"midi":30,"time":117.27261,"velocity":0.7244094488188977},{"duration":0.13636350000000164,"midi":38,"time":117.4089735,"velocity":0.7244094488188977},{"duration":0.13636350000000164,"midi":26,"time":117.4089735,"velocity":0.7244094488188977},{"duration":0.13636350000000164,"midi":26,"time":117.545337,"velocity":0.7244094488188977},{"duration":0.13636350000000164,"midi":38,"time":117.545337,"velocity":0.7244094488188977},{"duration":0.13636349999998743,"midi":41,"time":117.6817005,"velocity":0.7244094488188977},{"duration":0.13636349999998743,"midi":29,"time":117.6817005,"velocity":0.7244094488188977},{"duration":0.06818175000000792,"midi":27,"time":117.81806399999999,"velocity":0.7244094488188977},{"duration":0.06818175000000792,"midi":39,"time":117.81806399999999,"velocity":0.7244094488188977},{"duration":0.13636350000000164,"midi":39,"time":117.9544275,"velocity":0.7244094488188977},{"duration":0.13636350000000164,"midi":27,"time":117.9544275,"velocity":0.7244094488188977},{"duration":0.13636350000000164,"midi":39,"time":118.090791,"velocity":0.7244094488188977},{"duration":0.13636350000000164,"midi":27,"time":118.090791,"velocity":0.7244094488188977},{"duration":0.06818175000000792,"midi":39,"time":118.2271545,"velocity":0.7244094488188977},{"duration":0.06818175000000792,"midi":27,"time":118.2271545,"velocity":0.7244094488188977},{"duration":0.13636350000000164,"midi":40,"time":118.363518,"velocity":0.7244094488188977},{"duration":0.13636350000000164,"midi":28,"time":118.363518,"velocity":0.7244094488188977},{"duration":0.06818174999999371,"midi":40,"time":118.4998815,"velocity":0.7244094488188977},{"duration":0.06818174999999371,"midi":28,"time":118.4998815,"velocity":0.7244094488188977},{"duration":0.06818174999999371,"midi":28,"time":118.636245,"velocity":0.7244094488188977},{"duration":0.06818174999999371,"midi":40,"time":118.636245,"velocity":0.7244094488188977},{"duration":0.13636350000000164,"midi":39,"time":118.7726085,"velocity":0.7244094488188977},{"duration":0.13636350000000164,"midi":27,"time":118.7726085,"velocity":0.7244094488188977},{"duration":0.06818174999999371,"midi":27,"time":118.908972,"velocity":0.7244094488188977},{"duration":0.06818174999999371,"midi":39,"time":118.908972,"velocity":0.7244094488188977},{"duration":0.13636350000000164,"midi":39,"time":119.0453355,"velocity":0.7244094488188977},{"duration":0.13636350000000164,"midi":27,"time":119.0453355,"velocity":0.7244094488188977},{"duration":0.06818175000000792,"midi":29,"time":119.181699,"velocity":0.7244094488188977},{"duration":0.06818175000000792,"midi":41,"time":119.181699,"velocity":0.7244094488188977},{"duration":0.06818175000000792,"midi":27,"time":119.3180625,"velocity":0.7244094488188977},{"duration":0.06818175000000792,"midi":39,"time":119.3180625,"velocity":0.7244094488188977},{"duration":0.13636350000000164,"midi":41,"time":119.454426,"velocity":0.7244094488188977},{"duration":0.13636350000000164,"midi":29,"time":119.454426,"velocity":0.7244094488188977},{"duration":0.13636350000000164,"midi":26,"time":119.5907895,"velocity":0.7244094488188977},{"duration":0.13636350000000164,"midi":38,"time":119.5907895,"velocity":0.7244094488188977},{"duration":0.13636350000000164,"midi":26,"time":119.727153,"velocity":0.7244094488188977},{"duration":0.13636350000000164,"midi":38,"time":119.727153,"velocity":0.7244094488188977},{"duration":0.13636350000000164,"midi":27,"time":119.8635165,"velocity":0.7244094488188977},{"duration":0.13636350000000164,"midi":39,"time":119.8635165,"velocity":0.7244094488188977},{"duration":0.06818174999999371,"midi":27,"time":119.99988,"velocity":0.7244094488188977},{"duration":0.06818174999999371,"midi":39,"time":119.99988,"velocity":0.7244094488188977},{"duration":0.13636350000000164,"midi":27,"time":120.13624349999999,"velocity":0.7244094488188977},{"duration":0.13636350000000164,"midi":39,"time":120.13624349999999,"velocity":0.7244094488188977},{"duration":0.13636350000000164,"midi":27,"time":120.272607,"velocity":0.7244094488188977},{"duration":0.13636350000000164,"midi":39,"time":120.272607,"velocity":0.7244094488188977},{"duration":0.06818175000000792,"midi":27,"time":120.4089705,"velocity":0.7244094488188977},{"duration":0.06818175000000792,"midi":39,"time":120.4089705,"velocity":0.7244094488188977},{"duration":0.06818175000000792,"midi":40,"time":120.545334,"velocity":0.7244094488188977},{"duration":0.06818175000000792,"midi":28,"time":120.545334,"velocity":0.7244094488188977},{"duration":0.06818174999999371,"midi":40,"time":120.6816975,"velocity":0.7244094488188977},{"duration":0.06818174999999371,"midi":28,"time":120.6816975,"velocity":0.7244094488188977},{"duration":0.13636350000000164,"midi":28,"time":120.818061,"velocity":0.7244094488188977},{"duration":0.13636350000000164,"midi":40,"time":120.818061,"velocity":0.7244094488188977},{"duration":0.06818174999999371,"midi":27,"time":120.9544245,"velocity":0.7244094488188977},{"duration":0.06818174999999371,"midi":39,"time":120.9544245,"velocity":0.7244094488188977},{"duration":0.06818174999999371,"midi":39,"time":121.090788,"velocity":0.7244094488188977},{"duration":0.06818174999999371,"midi":27,"time":121.090788,"velocity":0.7244094488188977},{"duration":0.13636349999998743,"midi":39,"time":121.2271515,"velocity":0.7244094488188977},{"duration":0.13636349999998743,"midi":27,"time":121.2271515,"velocity":0.7244094488188977},{"duration":0.13636350000000164,"midi":27,"time":121.36351499999999,"velocity":0.7244094488188977},{"duration":0.13636350000000164,"midi":39,"time":121.36351499999999,"velocity":0.7244094488188977},{"duration":0.06818175000000792,"midi":27,"time":121.4998785,"velocity":0.7244094488188977},{"duration":0.06818175000000792,"midi":39,"time":121.4998785,"velocity":0.7244094488188977},{"duration":0.06818175000000792,"midi":39,"time":121.636242,"velocity":0.7244094488188977},{"duration":0.06818175000000792,"midi":27,"time":121.636242,"velocity":0.7244094488188977},{"duration":0.06818175000000792,"midi":39,"time":121.7726055,"velocity":0.7244094488188977},{"duration":0.06818175000000792,"midi":27,"time":121.7726055,"velocity":0.7244094488188977},{"duration":0.06818174999999371,"midi":39,"time":121.908969,"velocity":0.7244094488188977},{"duration":0.06818174999999371,"midi":27,"time":121.908969,"velocity":0.7244094488188977},{"duration":0.13636350000000164,"midi":27,"time":122.0453325,"velocity":0.7244094488188977},{"duration":0.13636350000000164,"midi":39,"time":122.0453325,"velocity":0.7244094488188977},{"duration":0.06818174999999371,"midi":39,"time":122.181696,"velocity":0.7244094488188977},{"duration":0.06818174999999371,"midi":27,"time":122.181696,"velocity":0.7244094488188977},{"duration":0.13636350000000164,"midi":27,"time":122.3180595,"velocity":0.7244094488188977},{"duration":0.13636350000000164,"midi":34,"time":122.3180595,"velocity":0.7244094488188977},{"duration":0.13636350000000164,"midi":39,"time":122.3180595,"velocity":0.7244094488188977},{"duration":0.13636349999998743,"midi":27,"time":122.454423,"velocity":0.7244094488188977},{"duration":0.13636349999998743,"midi":34,"time":122.454423,"velocity":0.7244094488188977},{"duration":0.13636349999998743,"midi":39,"time":122.454423,"velocity":0.7244094488188977},{"duration":0.06818175000000792,"midi":27,"time":122.5907865,"velocity":0.7244094488188977},{"duration":0.06818175000000792,"midi":34,"time":122.5907865,"velocity":0.7244094488188977},{"duration":0.06818175000000792,"midi":39,"time":122.5907865,"velocity":0.7244094488188977},{"duration":0.13636350000000164,"midi":35,"time":122.72715,"velocity":0.7244094488188977},{"duration":0.13636350000000164,"midi":28,"time":122.72715,"velocity":0.7244094488188977},{"duration":0.13636350000000164,"midi":40,"time":122.72715,"velocity":0.7244094488188977},{"duration":0.06818175000000792,"midi":28,"time":122.8635135,"velocity":0.7244094488188977},{"duration":0.06818175000000792,"midi":40,"time":122.8635135,"velocity":0.7244094488188977},{"duration":0.06818175000000792,"midi":35,"time":122.8635135,"velocity":0.7244094488188977},{"duration":0.06818175000000792,"midi":40,"time":122.999877,"velocity":0.7244094488188977},{"duration":0.06818175000000792,"midi":28,"time":122.999877,"velocity":0.7244094488188977},{"duration":0.06818175000000792,"midi":35,"time":122.999877,"velocity":0.7244094488188977},{"duration":0.13636350000000164,"midi":39,"time":123.1362405,"velocity":0.7244094488188977},{"duration":0.13636350000000164,"midi":34,"time":123.1362405,"velocity":0.7244094488188977},{"duration":0.13636350000000164,"midi":27,"time":123.1362405,"velocity":0.7244094488188977},{"duration":0.06818174999999371,"midi":27,"time":123.272604,"velocity":0.7244094488188977},{"duration":0.06818174999999371,"midi":39,"time":123.272604,"velocity":0.7244094488188977},{"duration":0.06818174999999371,"midi":34,"time":123.272604,"velocity":0.7244094488188977},{"duration":0.13636350000000164,"midi":27,"time":123.4089675,"velocity":0.7244094488188977},{"duration":0.13636350000000164,"midi":39,"time":123.4089675,"velocity":0.7244094488188977},{"duration":0.13636350000000164,"midi":34,"time":123.4089675,"velocity":0.7244094488188977},{"duration":0.06818174999999371,"midi":29,"time":123.545331,"velocity":0.7244094488188977},{"duration":0.06818174999999371,"midi":36,"time":123.545331,"velocity":0.7244094488188977},{"duration":0.06818174999999371,"midi":41,"time":123.545331,"velocity":0.7244094488188977},{"duration":0.06818175000000792,"midi":39,"time":123.68169449999999,"velocity":0.7244094488188977},{"duration":0.06818175000000792,"midi":34,"time":123.68169449999999,"velocity":0.7244094488188977},{"duration":0.06818175000000792,"midi":27,"time":123.68169449999999,"velocity":0.7244094488188977},{"duration":0.13636350000000164,"midi":29,"time":123.818058,"velocity":0.7244094488188977},{"duration":0.13636350000000164,"midi":41,"time":123.818058,"velocity":0.7244094488188977},{"duration":0.13636350000000164,"midi":36,"time":123.818058,"velocity":0.7244094488188977},{"duration":0.13636350000000164,"midi":26,"time":123.9544215,"velocity":0.7244094488188977},{"duration":0.13636350000000164,"midi":38,"time":123.9544215,"velocity":0.7244094488188977},{"duration":0.13636350000000164,"midi":33,"time":123.9544215,"velocity":0.7244094488188977},{"duration":0.13636350000000164,"midi":26,"time":124.090785,"velocity":0.7244094488188977},{"duration":0.13636350000000164,"midi":33,"time":124.090785,"velocity":0.7244094488188977},{"duration":0.13636350000000164,"midi":38,"time":124.090785,"velocity":0.7244094488188977},{"duration":0.13636350000000164,"midi":39,"time":124.2271485,"velocity":0.7244094488188977},{"duration":0.13636350000000164,"midi":34,"time":124.2271485,"velocity":0.7244094488188977},{"duration":0.13636350000000164,"midi":27,"time":124.2271485,"velocity":0.7244094488188977},{"duration":0.06818174999999371,"midi":34,"time":124.363512,"velocity":0.7244094488188977},{"duration":0.06818174999999371,"midi":27,"time":124.363512,"velocity":0.7244094488188977},{"duration":0.06818174999999371,"midi":39,"time":124.363512,"velocity":0.7244094488188977},{"duration":0.13636350000000164,"midi":39,"time":124.4998755,"velocity":0.7244094488188977},{"duration":0.13636350000000164,"midi":27,"time":124.4998755,"velocity":0.7244094488188977},{"duration":0.13636350000000164,"midi":34,"time":124.4998755,"velocity":0.7244094488188977},{"duration":0.13636350000000164,"midi":27,"time":124.636239,"velocity":0.7244094488188977},{"duration":0.13636350000000164,"midi":39,"time":124.636239,"velocity":0.7244094488188977},{"duration":0.13636350000000164,"midi":34,"time":124.636239,"velocity":0.7244094488188977},{"duration":0.06818174999999371,"midi":39,"time":124.7726025,"velocity":0.7244094488188977},{"duration":0.06818174999999371,"midi":27,"time":124.7726025,"velocity":0.7244094488188977},{"duration":0.06818174999999371,"midi":34,"time":124.7726025,"velocity":0.7244094488188977},{"duration":0.06818175000000792,"midi":35,"time":124.90896599999999,"velocity":0.7244094488188977},{"duration":0.06818175000000792,"midi":28,"time":124.90896599999999,"velocity":0.7244094488188977},{"duration":0.06818175000000792,"midi":40,"time":124.90896599999999,"velocity":0.7244094488188977},{"duration":0.06818175000000792,"midi":40,"time":125.0453295,"velocity":0.7244094488188977},{"duration":0.06818175000000792,"midi":35,"time":125.0453295,"velocity":0.7244094488188977},{"duration":0.06818175000000792,"midi":28,"time":125.0453295,"velocity":0.7244094488188977},{"duration":0.13636350000000164,"midi":35,"time":125.181693,"velocity":0.7244094488188977},{"duration":0.13636350000000164,"midi":40,"time":125.181693,"velocity":0.7244094488188977},{"duration":0.13636350000000164,"midi":28,"time":125.181693,"velocity":0.7244094488188977},{"duration":0.06818175000000792,"midi":27,"time":125.3180565,"velocity":0.7244094488188977},{"duration":0.06818175000000792,"midi":39,"time":125.3180565,"velocity":0.7244094488188977},{"duration":0.06818175000000792,"midi":34,"time":125.3180565,"velocity":0.7244094488188977},{"duration":0.06818174999999371,"midi":39,"time":125.45442,"velocity":0.7244094488188977},{"duration":0.06818174999999371,"midi":34,"time":125.45442,"velocity":0.7244094488188977},{"duration":0.06818174999999371,"midi":27,"time":125.45442,"velocity":0.7244094488188977},{"duration":0.13636350000000164,"midi":27,"time":125.5907835,"velocity":0.7244094488188977},{"duration":0.13636350000000164,"midi":34,"time":125.5907835,"velocity":0.7244094488188977},{"duration":0.13636350000000164,"midi":39,"time":125.5907835,"velocity":0.7244094488188977},{"duration":0.06818174999999371,"midi":30,"time":125.727147,"velocity":0.7244094488188977},{"duration":0.06818174999999371,"midi":42,"time":125.727147,"velocity":0.7244094488188977},{"duration":0.06818174999999371,"midi":37,"time":125.727147,"velocity":0.7244094488188977},{"duration":0.06818174999999371,"midi":27,"time":125.8635105,"velocity":0.7244094488188977},{"duration":0.06818174999999371,"midi":39,"time":125.8635105,"velocity":0.7244094488188977},{"duration":0.06818174999999371,"midi":34,"time":125.8635105,"velocity":0.7244094488188977},{"duration":0.13636349999998743,"midi":42,"time":125.999874,"velocity":0.7244094488188977},{"duration":0.13636349999998743,"midi":37,"time":125.999874,"velocity":0.7244094488188977},{"duration":0.13636349999998743,"midi":30,"time":125.999874,"velocity":0.7244094488188977},{"duration":0.13636350000000164,"midi":26,"time":126.1362375,"velocity":0.7244094488188977},{"duration":0.13636350000000164,"midi":38,"time":126.1362375,"velocity":0.7244094488188977},{"duration":0.13636350000000164,"midi":33,"time":126.1362375,"velocity":0.7244094488188977},{"duration":0.13636350000000164,"midi":26,"time":126.272601,"velocity":0.7244094488188977},{"duration":0.13636350000000164,"midi":33,"time":126.272601,"velocity":0.7244094488188977},{"duration":0.13636350000000164,"midi":38,"time":126.272601,"velocity":0.7244094488188977},{"duration":0.13636350000000164,"midi":29,"time":126.4089645,"velocity":0.7244094488188977},{"duration":0.13636350000000164,"midi":36,"time":126.4089645,"velocity":0.7244094488188977},{"duration":0.13636350000000164,"midi":41,"time":126.4089645,"velocity":0.7244094488188977},{"duration":0.06818175000000792,"midi":39,"time":126.545328,"velocity":0.7244094488188977},{"duration":0.06818175000000792,"midi":34,"time":126.545328,"velocity":0.7244094488188977},{"duration":0.06818175000000792,"midi":27,"time":126.545328,"velocity":0.7244094488188977},{"duration":0.13636350000000164,"midi":39,"time":126.6816915,"velocity":0.7244094488188977},{"duration":0.13636350000000164,"midi":34,"time":126.6816915,"velocity":0.7244094488188977},{"duration":0.13636350000000164,"midi":27,"time":126.6816915,"velocity":0.7244094488188977},{"duration":0.13636350000000164,"midi":34,"time":126.818055,"velocity":0.7244094488188977},{"duration":0.13636350000000164,"midi":39,"time":126.818055,"velocity":0.7244094488188977},{"duration":0.13636350000000164,"midi":27,"time":126.818055,"velocity":0.7244094488188977},{"duration":0.06818174999999371,"midi":34,"time":126.9544185,"velocity":0.7244094488188977},{"duration":0.06818174999999371,"midi":27,"time":126.9544185,"velocity":0.7244094488188977},{"duration":0.06818174999999371,"midi":39,"time":126.9544185,"velocity":0.7244094488188977},{"duration":0.13636349999998743,"midi":28,"time":127.090782,"velocity":0.7244094488188977},{"duration":0.13636349999998743,"midi":35,"time":127.090782,"velocity":0.7244094488188977},{"duration":0.13636349999998743,"midi":40,"time":127.090782,"velocity":0.7244094488188977},{"duration":0.06818175000000792,"midi":40,"time":127.22714549999999,"velocity":0.7244094488188977},{"duration":0.06818175000000792,"midi":35,"time":127.22714549999999,"velocity":0.7244094488188977},{"duration":0.06818175000000792,"midi":28,"time":127.22714549999999,"velocity":0.7244094488188977},{"duration":0.06818175000000792,"midi":35,"time":127.363509,"velocity":0.7244094488188977},{"duration":0.06818175000000792,"midi":40,"time":127.363509,"velocity":0.7244094488188977},{"duration":0.06818175000000792,"midi":28,"time":127.363509,"velocity":0.7244094488188977},{"duration":0.13636350000000164,"midi":27,"time":127.4998725,"velocity":0.7244094488188977},{"duration":0.13636350000000164,"midi":34,"time":127.4998725,"velocity":0.7244094488188977},{"duration":0.13636350000000164,"midi":39,"time":127.4998725,"velocity":0.7244094488188977},{"duration":0.06818175000000792,"midi":34,"time":127.636236,"velocity":0.7244094488188977},{"duration":0.06818175000000792,"midi":27,"time":127.636236,"velocity":0.7244094488188977},{"duration":0.06818175000000792,"midi":39,"time":127.636236,"velocity":0.7244094488188977},{"duration":0.13636350000000164,"midi":34,"time":127.7725995,"velocity":0.7244094488188977},{"duration":0.13636350000000164,"midi":27,"time":127.7725995,"velocity":0.7244094488188977},{"duration":0.13636350000000164,"midi":39,"time":127.7725995,"velocity":0.7244094488188977},{"duration":0.06818174999999371,"midi":41,"time":127.908963,"velocity":0.7244094488188977},{"duration":0.06818174999999371,"midi":29,"time":127.908963,"velocity":0.7244094488188977},{"duration":0.06818174999999371,"midi":36,"time":127.908963,"velocity":0.7244094488188977},{"duration":0.06818175000000792,"midi":27,"time":128.0453265,"velocity":0.7244094488188977},{"duration":0.06818175000000792,"midi":39,"time":128.0453265,"velocity":0.7244094488188977},{"duration":0.06818175000000792,"midi":34,"time":128.0453265,"velocity":0.7244094488188977},{"duration":0.13636349999998743,"midi":29,"time":128.18169,"velocity":0.7244094488188977},{"duration":0.13636349999998743,"midi":41,"time":128.18169,"velocity":0.7244094488188977},{"duration":0.13636349999998743,"midi":36,"time":128.18169,"velocity":0.7244094488188977},{"duration":0.13636350000001585,"midi":38,"time":128.3180535,"velocity":0.7244094488188977},{"duration":0.13636350000001585,"midi":33,"time":128.3180535,"velocity":0.7244094488188977},{"duration":0.13636350000001585,"midi":26,"time":128.3180535,"velocity":0.7244094488188977},{"duration":0.13636349999998743,"midi":26,"time":128.454417,"velocity":0.7244094488188977},{"duration":0.13636349999998743,"midi":38,"time":128.454417,"velocity":0.7244094488188977},{"duration":0.13636349999998743,"midi":33,"time":128.454417,"velocity":0.7244094488188977},{"duration":0.13636350000001585,"midi":39,"time":128.5907805,"velocity":0.7244094488188977},{"duration":0.13636350000001585,"midi":34,"time":128.5907805,"velocity":0.7244094488188977},{"duration":0.13636350000001585,"midi":27,"time":128.5907805,"velocity":0.7244094488188977},{"duration":0.0681817499999795,"midi":39,"time":128.727144,"velocity":0.7244094488188977},{"duration":0.0681817499999795,"midi":34,"time":128.727144,"velocity":0.7244094488188977},{"duration":0.0681817499999795,"midi":27,"time":128.727144,"velocity":0.7244094488188977},{"duration":0.13636349999998743,"midi":34,"time":128.8635075,"velocity":0.7244094488188977},{"duration":0.13636349999998743,"midi":39,"time":128.8635075,"velocity":0.7244094488188977},{"duration":0.13636349999998743,"midi":27,"time":128.8635075,"velocity":0.7244094488188977},{"duration":0.13636350000001585,"midi":27,"time":128.99987099999998,"velocity":0.7244094488188977},{"duration":0.13636350000001585,"midi":39,"time":128.99987099999998,"velocity":0.7244094488188977},{"duration":0.13636350000001585,"midi":34,"time":128.99987099999998,"velocity":0.7244094488188977},{"duration":0.06818175000000792,"midi":39,"time":129.1362345,"velocity":0.7244094488188977},{"duration":0.06818175000000792,"midi":27,"time":129.1362345,"velocity":0.7244094488188977},{"duration":0.06818175000000792,"midi":34,"time":129.1362345,"velocity":0.7244094488188977},{"duration":0.06818175000000792,"midi":40,"time":129.272598,"velocity":0.7244094488188977},{"duration":0.06818175000000792,"midi":35,"time":129.272598,"velocity":0.7244094488188977},{"duration":0.06818175000000792,"midi":28,"time":129.272598,"velocity":0.7244094488188977},{"duration":0.06818175000000792,"midi":40,"time":129.4089615,"velocity":0.7244094488188977},{"duration":0.06818175000000792,"midi":35,"time":129.4089615,"velocity":0.7244094488188977},{"duration":0.06818175000000792,"midi":28,"time":129.4089615,"velocity":0.7244094488188977},{"duration":0.13636350000001585,"midi":28,"time":129.545325,"velocity":0.7244094488188977},{"duration":0.13636350000001585,"midi":35,"time":129.545325,"velocity":0.7244094488188977},{"duration":0.13636350000001585,"midi":40,"time":129.545325,"velocity":0.7244094488188977},{"duration":0.0681817499999795,"midi":39,"time":129.6816885,"velocity":0.7244094488188977},{"duration":0.0681817499999795,"midi":34,"time":129.6816885,"velocity":0.7244094488188977},{"duration":0.0681817499999795,"midi":27,"time":129.6816885,"velocity":0.7244094488188977},{"duration":0.06818175000000792,"midi":39,"time":129.818052,"velocity":0.7244094488188977},{"duration":0.06818175000000792,"midi":27,"time":129.818052,"velocity":0.7244094488188977},{"duration":0.06818175000000792,"midi":34,"time":129.818052,"velocity":0.7244094488188977},{"duration":0.0681817499999795,"midi":35,"time":129.9544155,"velocity":0.7244094488188977},{"duration":0.0681817499999795,"midi":28,"time":129.9544155,"velocity":0.7244094488188977},{"duration":0.13636349999998743,"midi":34,"time":129.9544155,"velocity":0.7244094488188977},{"duration":0.13636349999998743,"midi":27,"time":129.9544155,"velocity":0.7244094488188977},{"duration":0.13636349999998743,"midi":39,"time":129.9544155,"velocity":0.7244094488188977},{"duration":0.0681817499999795,"midi":40,"time":129.9544155,"velocity":0.7244094488188977},{"duration":0.13636349999998743,"midi":40,"time":130.090779,"velocity":0.7244094488188977},{"duration":0.13636349999998743,"midi":28,"time":130.090779,"velocity":0.7244094488188977},{"duration":0.13636349999998743,"midi":35,"time":130.090779,"velocity":0.7244094488188977},{"duration":0.06818175000000792,"midi":29,"time":130.22714249999999,"velocity":0.7244094488188977},{"duration":0.06818175000000792,"midi":41,"time":130.22714249999999,"velocity":0.7244094488188977},{"duration":0.06818175000000792,"midi":36,"time":130.22714249999999,"velocity":0.7244094488188977},{"duration":0.13636349999998743,"midi":42,"time":130.363506,"velocity":0.7244094488188977},{"duration":0.13636349999998743,"midi":37,"time":130.363506,"velocity":0.7244094488188977},{"duration":0.13636349999998743,"midi":30,"time":130.363506,"velocity":0.7244094488188977},{"duration":0.06818175000000792,"midi":36,"time":130.4998695,"velocity":0.7244094488188977},{"duration":0.06818175000000792,"midi":29,"time":130.4998695,"velocity":0.7244094488188977},{"duration":0.06818175000000792,"midi":41,"time":130.4998695,"velocity":0.7244094488188977},{"duration":0.13636349999998743,"midi":35,"time":130.636233,"velocity":0.7244094488188977},{"duration":0.13636349999998743,"midi":40,"time":130.636233,"velocity":0.7244094488188977},{"duration":0.13636349999998743,"midi":28,"time":130.636233,"velocity":0.7244094488188977},{"duration":0.13636350000001585,"midi":26,"time":130.7725965,"velocity":0.7244094488188977},{"duration":0.13636350000001585,"midi":38,"time":130.7725965,"velocity":0.7244094488188977},{"duration":0.13636350000001585,"midi":33,"time":130.7725965,"velocity":0.7244094488188977},{"duration":0.0681817499999795,"midi":39,"time":130.90896,"velocity":0.7244094488188977},{"duration":0.0681817499999795,"midi":27,"time":130.90896,"velocity":0.7244094488188977},{"duration":0.0681817499999795,"midi":34,"time":130.90896,"velocity":0.7244094488188977},{"duration":0.13636350000001585,"midi":39,"time":131.0453235,"velocity":0.7244094488188977},{"duration":0.13636350000001585,"midi":27,"time":131.0453235,"velocity":0.7244094488188977},{"duration":0.13636350000001585,"midi":34,"time":131.0453235,"velocity":0.7244094488188977},{"duration":0.13636349999998743,"midi":34,"time":131.181687,"velocity":0.7244094488188977},{"duration":0.13636349999998743,"midi":27,"time":131.181687,"velocity":0.7244094488188977},{"duration":0.13636349999998743,"midi":39,"time":131.181687,"velocity":0.7244094488188977},{"duration":0.06818175000000792,"midi":34,"time":131.3180505,"velocity":0.7244094488188977},{"duration":0.06818175000000792,"midi":27,"time":131.3180505,"velocity":0.7244094488188977},{"duration":0.06818175000000792,"midi":39,"time":131.3180505,"velocity":0.7244094488188977},{"duration":0.13636350000001585,"midi":35,"time":131.45441399999999,"velocity":0.7244094488188977},{"duration":0.13636350000001585,"midi":28,"time":131.45441399999999,"velocity":0.7244094488188977},{"duration":0.13636350000001585,"midi":40,"time":131.45441399999999,"velocity":0.7244094488188977},{"duration":0.06818175000000792,"midi":28,"time":131.5907775,"velocity":0.7244094488188977},{"duration":0.06818175000000792,"midi":35,"time":131.5907775,"velocity":0.7244094488188977},{"duration":0.06818175000000792,"midi":40,"time":131.5907775,"velocity":0.7244094488188977},{"duration":0.06818175000000792,"midi":40,"time":131.727141,"velocity":0.7244094488188977},{"duration":0.06818175000000792,"midi":35,"time":131.727141,"velocity":0.7244094488188977},{"duration":0.06818175000000792,"midi":28,"time":131.727141,"velocity":0.7244094488188977},{"duration":0.13636349999998743,"midi":39,"time":131.8635045,"velocity":0.7244094488188977},{"duration":0.13636349999998743,"midi":34,"time":131.8635045,"velocity":0.7244094488188977},{"duration":0.13636349999998743,"midi":27,"time":131.8635045,"velocity":0.7244094488188977},{"duration":0.06818175000000792,"midi":39,"time":131.999868,"velocity":0.7244094488188977},{"duration":0.06818175000000792,"midi":27,"time":131.999868,"velocity":0.7244094488188977},{"duration":0.06818175000000792,"midi":34,"time":131.999868,"velocity":0.7244094488188977},{"duration":0.13636349999998743,"midi":39,"time":132.1362315,"velocity":0.7244094488188977},{"duration":0.13636349999998743,"midi":27,"time":132.1362315,"velocity":0.7244094488188977},{"duration":0.13636349999998743,"midi":34,"time":132.1362315,"velocity":0.7244094488188977},{"duration":0.06818175000000792,"midi":41,"time":132.272595,"velocity":0.7244094488188977},{"duration":0.06818175000000792,"midi":29,"time":132.272595,"velocity":0.7244094488188977},{"duration":0.06818175000000792,"midi":36,"time":132.272595,"velocity":0.7244094488188977},{"duration":0.0681817499999795,"midi":27,"time":132.4089585,"velocity":0.7244094488188977},{"duration":0.0681817499999795,"midi":34,"time":132.4089585,"velocity":0.7244094488188977},{"duration":0.0681817499999795,"midi":39,"time":132.4089585,"velocity":0.7244094488188977},{"duration":0.13636349999998743,"midi":41,"time":132.545322,"velocity":0.7244094488188977},{"duration":0.13636349999998743,"midi":36,"time":132.545322,"velocity":0.7244094488188977},{"duration":0.13636349999998743,"midi":29,"time":132.545322,"velocity":0.7244094488188977},{"duration":0.13636350000001585,"midi":33,"time":132.6816855,"velocity":0.7244094488188977},{"duration":0.13636350000001585,"midi":38,"time":132.6816855,"velocity":0.7244094488188977},{"duration":0.13636350000001585,"midi":26,"time":132.6816855,"velocity":0.7244094488188977},{"duration":0.13636349999998743,"midi":26,"time":132.818049,"velocity":0.7244094488188977},{"duration":0.13636349999998743,"midi":38,"time":132.818049,"velocity":0.7244094488188977},{"duration":0.13636349999998743,"midi":33,"time":132.818049,"velocity":0.7244094488188977},{"duration":0.13636350000001585,"midi":39,"time":132.9544125,"velocity":0.7244094488188977},{"duration":0.13636350000001585,"midi":27,"time":132.9544125,"velocity":0.7244094488188977},{"duration":0.13636350000001585,"midi":34,"time":132.9544125,"velocity":0.7244094488188977},{"duration":0.0681817499999795,"midi":39,"time":133.090776,"velocity":0.7244094488188977},{"duration":0.0681817499999795,"midi":34,"time":133.090776,"velocity":0.7244094488188977},{"duration":0.0681817499999795,"midi":27,"time":133.090776,"velocity":0.7244094488188977},{"duration":0.13636350000001585,"midi":27,"time":133.2271395,"velocity":0.7244094488188977},{"duration":0.13636350000001585,"midi":39,"time":133.2271395,"velocity":0.7244094488188977},{"duration":0.13636350000001585,"midi":34,"time":133.2271395,"velocity":0.7244094488188977},{"duration":0.13636349999998743,"midi":39,"time":133.363503,"velocity":0.7244094488188977},{"duration":0.13636349999998743,"midi":34,"time":133.363503,"velocity":0.7244094488188977},{"duration":0.13636349999998743,"midi":27,"time":133.363503,"velocity":0.7244094488188977},{"duration":0.06818175000000792,"midi":27,"time":133.4998665,"velocity":0.7244094488188977},{"duration":0.06818175000000792,"midi":34,"time":133.4998665,"velocity":0.7244094488188977},{"duration":0.06818175000000792,"midi":39,"time":133.4998665,"velocity":0.7244094488188977},{"duration":0.0681817499999795,"midi":35,"time":133.63623,"velocity":0.7244094488188977},{"duration":0.0681817499999795,"midi":28,"time":133.63623,"velocity":0.7244094488188977},{"duration":0.0681817499999795,"midi":40,"time":133.63623,"velocity":0.7244094488188977},{"duration":0.06818175000000792,"midi":28,"time":133.7725935,"velocity":0.7244094488188977},{"duration":0.06818175000000792,"midi":40,"time":133.7725935,"velocity":0.7244094488188977},{"duration":0.06818175000000792,"midi":35,"time":133.7725935,"velocity":0.7244094488188977},{"duration":0.13636350000001585,"midi":35,"time":133.908957,"velocity":0.7244094488188977},{"duration":0.13636350000001585,"midi":40,"time":133.908957,"velocity":0.7244094488188977},{"duration":0.13636350000001585,"midi":28,"time":133.908957,"velocity":0.7244094488188977},{"duration":0.06818175000000792,"midi":34,"time":134.0453205,"velocity":0.7244094488188977},{"duration":0.06818175000000792,"midi":39,"time":134.0453205,"velocity":0.7244094488188977},{"duration":0.06818175000000792,"midi":27,"time":134.0453205,"velocity":0.7244094488188977},{"duration":0.06818175000000792,"midi":39,"time":134.181684,"velocity":0.7244094488188977},{"duration":0.06818175000000792,"midi":34,"time":134.181684,"velocity":0.7244094488188977},{"duration":0.06818175000000792,"midi":27,"time":134.181684,"velocity":0.7244094488188977},{"duration":0.13636349999998743,"midi":39,"time":134.3180475,"velocity":0.7244094488188977},{"duration":0.13636349999998743,"midi":34,"time":134.3180475,"velocity":0.7244094488188977},{"duration":0.13636349999998743,"midi":27,"time":134.3180475,"velocity":0.7244094488188977},{"duration":0.06818175000000792,"midi":37,"time":134.454411,"velocity":0.7244094488188977},{"duration":0.06818175000000792,"midi":42,"time":134.454411,"velocity":0.7244094488188977},{"duration":0.06818175000000792,"midi":30,"time":134.454411,"velocity":0.7244094488188977},{"duration":0.0681817499999795,"midi":34,"time":134.5907745,"velocity":0.7244094488188977},{"duration":0.0681817499999795,"midi":27,"time":134.5907745,"velocity":0.7244094488188977},{"duration":0.0681817499999795,"midi":39,"time":134.5907745,"velocity":0.7244094488188977},{"duration":0.13636350000001585,"midi":30,"time":134.727138,"velocity":0.7244094488188977},{"duration":0.13636350000001585,"midi":42,"time":134.727138,"velocity":0.7244094488188977},{"duration":0.13636350000001585,"midi":37,"time":134.727138,"velocity":0.7244094488188977},{"duration":0.13636349999998743,"midi":33,"time":134.8635015,"velocity":0.7244094488188977},{"duration":0.13636349999998743,"midi":26,"time":134.8635015,"velocity":0.7244094488188977},{"duration":0.13636349999998743,"midi":38,"time":134.8635015,"velocity":0.7244094488188977},{"duration":0.13636349999998743,"midi":38,"time":134.999865,"velocity":0.7244094488188977},{"duration":0.13636349999998743,"midi":26,"time":134.999865,"velocity":0.7244094488188977},{"duration":0.13636349999998743,"midi":33,"time":134.999865,"velocity":0.7244094488188977},{"duration":0.13636350000001585,"midi":41,"time":135.1362285,"velocity":0.7244094488188977},{"duration":0.13636350000001585,"midi":29,"time":135.1362285,"velocity":0.7244094488188977},{"duration":0.13636350000001585,"midi":36,"time":135.1362285,"velocity":0.7244094488188977},{"duration":0.06818175000000792,"midi":34,"time":135.272592,"velocity":0.7244094488188977},{"duration":0.06818175000000792,"midi":27,"time":135.272592,"velocity":0.7244094488188977},{"duration":0.06818175000000792,"midi":39,"time":135.272592,"velocity":0.7244094488188977},{"duration":0.13636350000001585,"midi":34,"time":135.4089555,"velocity":0.7244094488188977},{"duration":0.13636350000001585,"midi":27,"time":135.4089555,"velocity":0.7244094488188977},{"duration":0.13636350000001585,"midi":39,"time":135.4089555,"velocity":0.7244094488188977},{"duration":0.13636349999998743,"midi":34,"time":135.545319,"velocity":0.7244094488188977},{"duration":0.13636349999998743,"midi":39,"time":135.545319,"velocity":0.7244094488188977},{"duration":0.13636349999998743,"midi":27,"time":135.545319,"velocity":0.7244094488188977},{"duration":0.06818175000000792,"midi":34,"time":135.6816825,"velocity":0.7244094488188977},{"duration":0.06818175000000792,"midi":39,"time":135.6816825,"velocity":0.7244094488188977},{"duration":0.06818175000000792,"midi":27,"time":135.6816825,"velocity":0.7244094488188977},{"duration":0.13636349999998743,"midi":40,"time":135.818046,"velocity":0.7244094488188977},{"duration":0.13636349999998743,"midi":28,"time":135.818046,"velocity":0.7244094488188977},{"duration":0.13636349999998743,"midi":35,"time":135.818046,"velocity":0.7244094488188977},{"duration":0.06818175000000792,"midi":35,"time":135.9544095,"velocity":0.7244094488188977},{"duration":0.06818175000000792,"midi":40,"time":135.9544095,"velocity":0.7244094488188977},{"duration":0.06818175000000792,"midi":28,"time":135.9544095,"velocity":0.7244094488188977},{"duration":0.06818175000000792,"midi":35,"time":136.09077299999998,"velocity":0.7244094488188977},{"duration":0.06818175000000792,"midi":28,"time":136.09077299999998,"velocity":0.7244094488188977},{"duration":0.06818175000000792,"midi":40,"time":136.09077299999998,"velocity":0.7244094488188977},{"duration":0.13636349999998743,"midi":34,"time":136.2271365,"velocity":0.7244094488188977},{"duration":0.13636349999998743,"midi":27,"time":136.2271365,"velocity":0.7244094488188977},{"duration":0.13636349999998743,"midi":39,"time":136.2271365,"velocity":0.7244094488188977},{"duration":0.06818175000000792,"midi":34,"time":136.3635,"velocity":0.7244094488188977},{"duration":0.06818175000000792,"midi":27,"time":136.3635,"velocity":0.7244094488188977},{"duration":0.06818175000000792,"midi":39,"time":136.3635,"velocity":0.7244094488188977},{"duration":0.13636349999998743,"midi":27,"time":136.4998635,"velocity":0.7244094488188977},{"duration":0.13636349999998743,"midi":39,"time":136.4998635,"velocity":0.7244094488188977},{"duration":0.13636349999998743,"midi":34,"time":136.4998635,"velocity":0.7244094488188977},{"duration":0.06818175000000792,"midi":36,"time":136.636227,"velocity":0.7244094488188977},{"duration":0.06818175000000792,"midi":29,"time":136.636227,"velocity":0.7244094488188977},{"duration":0.06818175000000792,"midi":41,"time":136.636227,"velocity":0.7244094488188977},{"duration":0.0681817499999795,"midi":27,"time":136.7725905,"velocity":0.7244094488188977},{"duration":0.0681817499999795,"midi":39,"time":136.7725905,"velocity":0.7244094488188977},{"duration":0.0681817499999795,"midi":34,"time":136.7725905,"velocity":0.7244094488188977},{"duration":0.13636350000001585,"midi":36,"time":136.908954,"velocity":0.7244094488188977},{"duration":0.13636350000001585,"midi":41,"time":136.908954,"velocity":0.7244094488188977},{"duration":0.13636350000001585,"midi":29,"time":136.908954,"velocity":0.7244094488188977},{"duration":0.13636349999998743,"midi":38,"time":137.0453175,"velocity":0.7244094488188977},{"duration":0.13636349999998743,"midi":26,"time":137.0453175,"velocity":0.7244094488188977},{"duration":0.13636349999998743,"midi":33,"time":137.0453175,"velocity":0.7244094488188977},{"duration":0.13636349999998743,"midi":38,"time":137.181681,"velocity":0.7244094488188977},{"duration":0.13636349999998743,"midi":26,"time":137.181681,"velocity":0.7244094488188977},{"duration":0.13636349999998743,"midi":33,"time":137.181681,"velocity":0.7244094488188977},{"duration":0.13636350000001585,"midi":34,"time":137.31804449999998,"velocity":0.7244094488188977},{"duration":0.13636350000001585,"midi":39,"time":137.31804449999998,"velocity":0.7244094488188977},{"duration":0.13636350000001585,"midi":27,"time":137.31804449999998,"velocity":0.7244094488188977},{"duration":0.06818175000000792,"midi":34,"time":137.454408,"velocity":0.7244094488188977},{"duration":0.06818175000000792,"midi":27,"time":137.454408,"velocity":0.7244094488188977},{"duration":0.06818175000000792,"midi":39,"time":137.454408,"velocity":0.7244094488188977},{"duration":0.13636350000001585,"midi":34,"time":137.5907715,"velocity":0.7244094488188977},{"duration":0.13636350000001585,"midi":27,"time":137.5907715,"velocity":0.7244094488188977},{"duration":0.13636350000001585,"midi":39,"time":137.5907715,"velocity":0.7244094488188977},{"duration":0.13636349999998743,"midi":27,"time":137.727135,"velocity":0.7244094488188977},{"duration":0.13636349999998743,"midi":39,"time":137.727135,"velocity":0.7244094488188977},{"duration":0.13636349999998743,"midi":34,"time":137.727135,"velocity":0.7244094488188977},{"duration":0.06818175000000792,"midi":34,"time":137.8634985,"velocity":0.7244094488188977},{"duration":0.06818175000000792,"midi":27,"time":137.8634985,"velocity":0.7244094488188977},{"duration":0.06818175000000792,"midi":39,"time":137.8634985,"velocity":0.7244094488188977},{"duration":0.0681817499999795,"midi":40,"time":137.999862,"velocity":0.7244094488188977},{"duration":0.0681817499999795,"midi":28,"time":137.999862,"velocity":0.7244094488188977},{"duration":0.0681817499999795,"midi":35,"time":137.999862,"velocity":0.7244094488188977},{"duration":0.06818175000000792,"midi":28,"time":138.1362255,"velocity":0.7244094488188977},{"duration":0.06818175000000792,"midi":40,"time":138.1362255,"velocity":0.7244094488188977},{"duration":0.06818175000000792,"midi":35,"time":138.1362255,"velocity":0.7244094488188977},{"duration":0.13636349999998743,"midi":40,"time":138.272589,"velocity":0.7244094488188977},{"duration":0.13636349999998743,"midi":28,"time":138.272589,"velocity":0.7244094488188977},{"duration":0.13636349999998743,"midi":35,"time":138.272589,"velocity":0.7244094488188977},{"duration":0.06818175000000792,"midi":27,"time":138.4089525,"velocity":0.7244094488188977},{"duration":0.06818175000000792,"midi":39,"time":138.4089525,"velocity":0.7244094488188977},{"duration":0.06818175000000792,"midi":34,"time":138.4089525,"velocity":0.7244094488188977},{"duration":0.06818175000000792,"midi":27,"time":138.54531599999999,"velocity":0.7244094488188977},{"duration":0.06818175000000792,"midi":34,"time":138.54531599999999,"velocity":0.7244094488188977},{"duration":0.06818175000000792,"midi":39,"time":138.54531599999999,"velocity":0.7244094488188977},{"duration":0.13636349999998743,"midi":39,"time":138.6816795,"velocity":0.7244094488188977},{"duration":0.13636349999998743,"midi":34,"time":138.6816795,"velocity":0.7244094488188977},{"duration":0.13636349999998743,"midi":27,"time":138.6816795,"velocity":0.7244094488188977},{"duration":0.13636350000001585,"midi":27,"time":138.818043,"velocity":0.7244094488188977},{"duration":0.13636350000001585,"midi":34,"time":138.818043,"velocity":0.7244094488188977},{"duration":0.13636350000001585,"midi":39,"time":138.818043,"velocity":0.7244094488188977},{"duration":0.06818175000000792,"midi":27,"time":138.9544065,"velocity":0.7244094488188977},{"duration":0.06818175000000792,"midi":34,"time":138.9544065,"velocity":0.7244094488188977},{"duration":0.06818175000000792,"midi":39,"time":138.9544065,"velocity":0.7244094488188977},{"duration":0.06818175000000792,"midi":39,"time":139.09077,"velocity":0.7244094488188977},{"duration":0.06818175000000792,"midi":34,"time":139.09077,"velocity":0.7244094488188977},{"duration":0.06818175000000792,"midi":27,"time":139.09077,"velocity":0.7244094488188977},{"duration":0.0681817499999795,"midi":27,"time":139.2271335,"velocity":0.7244094488188977},{"duration":0.0681817499999795,"midi":34,"time":139.2271335,"velocity":0.7244094488188977},{"duration":0.0681817499999795,"midi":39,"time":139.2271335,"velocity":0.7244094488188977},{"duration":0.06818175000000792,"midi":39,"time":139.363497,"velocity":0.7244094488188977},{"duration":0.06818175000000792,"midi":27,"time":139.363497,"velocity":0.7244094488188977},{"duration":0.06818175000000792,"midi":34,"time":139.363497,"velocity":0.7244094488188977},{"duration":0.13636349999998743,"midi":39,"time":139.4998605,"velocity":0.7244094488188977},{"duration":0.13636349999998743,"midi":27,"time":139.4998605,"velocity":0.7244094488188977},{"duration":0.13636349999998743,"midi":34,"time":139.4998605,"velocity":0.7244094488188977},{"duration":0.2727270000000033,"midi":51,"time":139.636224,"velocity":0.7244094488188977},{"duration":0.2727270000000033,"midi":39,"time":139.636224,"velocity":0.7244094488188977},{"duration":0.2727270000000033,"midi":27,"time":139.908951,"velocity":0.7244094488188977},{"duration":0.2727270000000033,"midi":39,"time":139.908951,"velocity":0.7244094488188977},{"duration":0.2727270000000033,"midi":39,"time":140.3180415,"velocity":0.7244094488188977},{"duration":0.2727270000000033,"midi":27,"time":140.3180415,"velocity":0.7244094488188977},{"duration":0.27272699999997485,"midi":39,"time":140.727132,"velocity":0.7244094488188977},{"duration":0.27272699999997485,"midi":27,"time":140.727132,"velocity":0.7244094488188977},{"duration":0.2727270000000033,"midi":39,"time":140.999859,"velocity":0.7244094488188977},{"duration":0.2727270000000033,"midi":27,"time":140.999859,"velocity":0.7244094488188977},{"duration":0.2727270000000033,"midi":39,"time":141.1362225,"velocity":0.7244094488188977},{"duration":0.2727270000000033,"midi":27,"time":141.1362225,"velocity":0.7244094488188977},{"duration":0.13636349999998743,"midi":39,"time":141.4089495,"velocity":0.7244094488188977},{"duration":0.2727270000000033,"midi":38,"time":141.545313,"velocity":0.7244094488188977},{"duration":0.2727270000000033,"midi":50,"time":141.545313,"velocity":0.7244094488188977},{"duration":0.2727270000000033,"midi":52,"time":141.6816765,"velocity":0.7244094488188977},{"duration":0.2727270000000033,"midi":40,"time":141.6816765,"velocity":0.7244094488188977},{"duration":0.2727270000000033,"midi":39,"time":141.81804,"velocity":0.7244094488188977},{"duration":0.2727270000000033,"midi":51,"time":141.81804,"velocity":0.7244094488188977},{"duration":0.2727270000000033,"midi":39,"time":142.090767,"velocity":0.7244094488188977},{"duration":0.2727270000000033,"midi":27,"time":142.090767,"velocity":0.7244094488188977},{"duration":0.2727270000000033,"midi":27,"time":142.4998575,"velocity":0.7244094488188977},{"duration":0.2727270000000033,"midi":39,"time":142.4998575,"velocity":0.7244094488188977},{"duration":0.2727270000000033,"midi":40,"time":142.908948,"velocity":0.7244094488188977},{"duration":0.2727270000000033,"midi":28,"time":142.908948,"velocity":0.7244094488188977},{"duration":0.2727270000000033,"midi":52,"time":143.3180385,"velocity":0.7244094488188977},{"duration":0.2727270000000033,"midi":40,"time":143.3180385,"velocity":0.7244094488188977},{"duration":0.2727270000000033,"midi":28,"time":143.727129,"velocity":0.7244094488188977},{"duration":0.2727270000000033,"midi":40,"time":143.727129,"velocity":0.7244094488188977},{"duration":0.2727270000000033,"midi":51,"time":143.999856,"velocity":0.7244094488188977},{"duration":0.2727270000000033,"midi":39,"time":143.999856,"velocity":0.7244094488188977},{"duration":0.2727270000000033,"midi":39,"time":144.272583,"velocity":0.7244094488188977},{"duration":0.2727270000000033,"midi":27,"time":144.272583,"velocity":0.7244094488188977},{"duration":0.2727270000000033,"midi":27,"time":144.6816735,"velocity":0.7244094488188977},{"duration":0.2727270000000033,"midi":39,"time":144.6816735,"velocity":0.7244094488188977},{"duration":0.2727270000000033,"midi":39,"time":145.090764,"velocity":0.7244094488188977},{"duration":0.2727270000000033,"midi":27,"time":145.090764,"velocity":0.7244094488188977},{"duration":0.27272699999997485,"midi":27,"time":145.363491,"velocity":0.7244094488188977},{"duration":0.27272699999997485,"midi":39,"time":145.363491,"velocity":0.7244094488188977},{"duration":0.2727270000000033,"midi":39,"time":145.4998545,"velocity":0.7244094488188977},{"duration":0.2727270000000033,"midi":27,"time":145.4998545,"velocity":0.7244094488188977},{"duration":0.13636349999998743,"midi":39,"time":145.7725815,"velocity":0.7244094488188977},{"duration":0.2727270000000033,"midi":50,"time":145.908945,"velocity":0.7244094488188977},{"duration":0.2727270000000033,"midi":38,"time":145.908945,"velocity":0.7244094488188977},{"duration":0.2727270000000033,"midi":40,"time":146.0453085,"velocity":0.7244094488188977},{"duration":0.2727270000000033,"midi":52,"time":146.0453085,"velocity":0.7244094488188977},{"duration":0.2727270000000033,"midi":51,"time":146.181672,"velocity":0.7244094488188977},{"duration":0.2727270000000033,"midi":39,"time":146.181672,"velocity":0.7244094488188977},{"duration":0.2727270000000033,"midi":39,"time":146.454399,"velocity":0.7244094488188977},{"duration":0.2727270000000033,"midi":27,"time":146.454399,"velocity":0.7244094488188977},{"duration":0.2727270000000033,"midi":39,"time":146.8634895,"velocity":0.7244094488188977},{"duration":0.2727270000000033,"midi":27,"time":146.8634895,"velocity":0.7244094488188977},{"duration":0.2727270000000033,"midi":51,"time":146.999853,"velocity":0.7244094488188977},{"duration":0.2727270000000033,"midi":52,"time":147.1362165,"velocity":0.7244094488188977},{"duration":0.2727270000000033,"midi":40,"time":147.1362165,"velocity":0.7244094488188977},{"duration":0.2727270000000033,"midi":39,"time":147.27258,"velocity":0.7244094488188977},{"duration":0.2727270000000033,"midi":50,"time":147.27258,"velocity":0.7244094488188977},{"duration":0.2727270000000033,"midi":38,"time":147.4089435,"velocity":0.7244094488188977},{"duration":0.2727270000000033,"midi":26,"time":147.4089435,"velocity":0.7244094488188977},{"duration":0.2727270000000033,"midi":38,"time":147.6816705,"velocity":0.7244094488188977},{"duration":0.2727270000000033,"midi":26,"time":147.6816705,"velocity":0.7244094488188977},{"duration":0.2727270000000033,"midi":26,"time":147.9543975,"velocity":0.7244094488188977},{"duration":0.2727270000000033,"midi":38,"time":147.9543975,"velocity":0.7244094488188977},{"duration":0.2727270000000033,"midi":35,"time":148.363488,"velocity":0.7244094488188977},{"duration":0.2727270000000033,"midi":47,"time":148.363488,"velocity":0.7244094488188977},{"duration":0.2727270000000033,"midi":35,"time":148.636215,"velocity":0.7244094488188977},{"duration":0.2727270000000033,"midi":47,"time":148.636215,"velocity":0.7244094488188977},{"duration":0.27272699999997485,"midi":35,"time":149.0453055,"velocity":0.7244094488188977},{"duration":0.27272699999997485,"midi":47,"time":149.0453055,"velocity":0.7244094488188977},{"duration":0.2727270000000033,"midi":35,"time":149.454396,"velocity":0.7244094488188977},{"duration":0.2727270000000033,"midi":47,"time":149.454396,"velocity":0.7244094488188977},{"duration":0.2727270000000033,"midi":35,"time":149.727123,"velocity":0.7244094488188977},{"duration":0.2727270000000033,"midi":47,"time":149.727123,"velocity":0.7244094488188977},{"duration":0.2727270000000033,"midi":35,"time":149.8634865,"velocity":0.7244094488188977},{"duration":0.2727270000000033,"midi":47,"time":149.8634865,"velocity":0.7244094488188977},{"duration":0.27272699999997485,"midi":47,"time":150.272577,"velocity":0.7244094488188977},{"duration":0.27272699999997485,"midi":35,"time":150.272577,"velocity":0.7244094488188977},{"duration":0.13636349999998743,"midi":47,"time":150.4089405,"velocity":0.7244094488188977},{"duration":0.13636349999998743,"midi":35,"time":150.4089405,"velocity":0.7244094488188977},{"duration":0.2727270000000033,"midi":47,"time":150.545304,"velocity":0.7244094488188977},{"duration":0.2727270000000033,"midi":35,"time":150.545304,"velocity":0.7244094488188977},{"duration":0.2727270000000033,"midi":44,"time":150.818031,"velocity":0.7244094488188977},{"duration":0.2727270000000033,"midi":32,"time":150.818031,"velocity":0.7244094488188977},{"duration":0.27272699999997485,"midi":44,"time":151.2271215,"velocity":0.7244094488188977},{"duration":0.27272699999997485,"midi":32,"time":151.2271215,"velocity":0.7244094488188977},{"duration":0.2727270000000033,"midi":32,"time":151.636212,"velocity":0.7244094488188977},{"duration":0.2727270000000033,"midi":44,"time":151.636212,"velocity":0.7244094488188977},{"duration":0.2727270000000033,"midi":32,"time":151.908939,"velocity":0.7244094488188977},{"duration":0.2727270000000033,"midi":44,"time":151.908939,"velocity":0.7244094488188977},{"duration":0.2727270000000033,"midi":44,"time":152.0453025,"velocity":0.7244094488188977},{"duration":0.2727270000000033,"midi":32,"time":152.0453025,"velocity":0.7244094488188977},{"duration":0.27272699999997485,"midi":40,"time":152.454393,"velocity":0.7244094488188977},{"duration":0.27272699999997485,"midi":28,"time":152.454393,"velocity":0.7244094488188977},{"duration":0.13636349999998743,"midi":40,"time":152.5907565,"velocity":0.7244094488188977},{"duration":0.13636349999998743,"midi":28,"time":152.5907565,"velocity":0.7244094488188977},{"duration":0.2727270000000033,"midi":51,"time":152.72711999999999,"velocity":0.7244094488188977},{"duration":0.2727270000000033,"midi":39,"time":152.72711999999999,"velocity":0.7244094488188977},{"duration":0.2727270000000033,"midi":39,"time":152.999847,"velocity":0.7244094488188977},{"duration":0.2727270000000033,"midi":27,"time":152.999847,"velocity":0.7244094488188977},{"duration":0.2727270000000033,"midi":39,"time":153.4089375,"velocity":0.7244094488188977},{"duration":0.2727270000000033,"midi":27,"time":153.4089375,"velocity":0.7244094488188977},{"duration":0.2727270000000033,"midi":27,"time":153.818028,"velocity":0.7244094488188977},{"duration":0.2727270000000033,"midi":39,"time":153.818028,"velocity":0.7244094488188977},{"duration":0.2727270000000033,"midi":39,"time":154.090755,"velocity":0.7244094488188977},{"duration":0.2727270000000033,"midi":27,"time":154.090755,"velocity":0.7244094488188977},{"duration":0.2727270000000033,"midi":39,"time":154.2271185,"velocity":0.7244094488188977},{"duration":0.2727270000000033,"midi":27,"time":154.2271185,"velocity":0.7244094488188977},{"duration":0.13636350000001585,"midi":39,"time":154.4998455,"velocity":0.7244094488188977},{"duration":0.2727270000000033,"midi":38,"time":154.636209,"velocity":0.7244094488188977},{"duration":0.2727270000000033,"midi":50,"time":154.636209,"velocity":0.7244094488188977},{"duration":0.2727270000000033,"midi":52,"time":154.7725725,"velocity":0.7244094488188977},{"duration":0.2727270000000033,"midi":40,"time":154.7725725,"velocity":0.7244094488188977},{"duration":0.27272699999997485,"midi":39,"time":154.908936,"velocity":0.7244094488188977},{"duration":0.27272699999997485,"midi":51,"time":154.908936,"velocity":0.7244094488188977},{"duration":0.2727270000000033,"midi":39,"time":155.181663,"velocity":0.7244094488188977},{"duration":0.2727270000000033,"midi":27,"time":155.181663,"velocity":0.7244094488188977},{"duration":0.2727270000000033,"midi":27,"time":155.5907535,"velocity":0.7244094488188977},{"duration":0.2727270000000033,"midi":39,"time":155.5907535,"velocity":0.7244094488188977},{"duration":0.2727270000000033,"midi":39,"time":155.999844,"velocity":0.7244094488188977},{"duration":0.27272699999997485,"midi":27,"time":156.1362075,"velocity":0.7244094488188977},{"duration":0.2727270000000033,"midi":27,"time":156.4089345,"velocity":0.7244094488188977},{"duration":0.2727270000000033,"midi":39,"time":156.4089345,"velocity":0.7244094488188977},{"duration":0.2727270000000033,"midi":27,"time":156.6816615,"velocity":0.7244094488188977},{"duration":0.2727270000000033,"midi":39,"time":156.6816615,"velocity":0.7244094488188977},{"duration":0.06818175000000792,"midi":39,"time":156.9543885,"velocity":0.7244094488188977},{"duration":0.06818175000000792,"midi":27,"time":156.9543885,"velocity":0.7244094488188977},{"duration":0.2727270000000033,"midi":30,"time":157.090752,"velocity":0.7244094488188977},{"duration":0.2727270000000033,"midi":42,"time":157.090752,"velocity":0.7244094488188977},{"duration":0.2727270000000033,"midi":41,"time":157.2271155,"velocity":0.7244094488188977},{"duration":0.2727270000000033,"midi":29,"time":157.2271155,"velocity":0.7244094488188977},{"duration":0.2727270000000033,"midi":29,"time":157.636206,"velocity":0.7244094488188977},{"duration":0.2727270000000033,"midi":41,"time":157.636206,"velocity":0.7244094488188977},{"duration":0.13636349999998743,"midi":41,"time":158.0452965,"velocity":0.7244094488188977},{"duration":0.13636349999998743,"midi":29,"time":158.0452965,"velocity":0.7244094488188977},{"duration":0.2727270000000033,"midi":41,"time":158.18166,"velocity":0.7244094488188977},{"duration":0.2727270000000033,"midi":29,"time":158.18166,"velocity":0.7244094488188977},{"duration":0.27272699999997485,"midi":28,"time":158.3180235,"velocity":0.7244094488188977},{"duration":0.27272699999997485,"midi":40,"time":158.3180235,"velocity":0.7244094488188977},{"duration":0.2727270000000033,"midi":32,"time":158.727114,"velocity":0.7244094488188977},{"duration":0.2727270000000033,"midi":44,"time":158.727114,"velocity":0.7244094488188977},{"duration":0.2727270000000033,"midi":37,"time":158.999841,"velocity":0.7244094488188977},{"duration":0.2727270000000033,"midi":26,"time":158.999841,"velocity":0.7244094488188977},{"duration":0.2727270000000033,"midi":42,"time":159.4089315,"velocity":0.7244094488188977},{"duration":0.2727270000000033,"midi":30,"time":159.4089315,"velocity":0.7244094488188977},{"duration":0.27272699999997485,"midi":29,"time":159.545295,"velocity":0.7244094488188977},{"duration":0.27272699999997485,"midi":41,"time":159.545295,"velocity":0.7244094488188977},{"duration":0.2727270000000033,"midi":29,"time":159.81802199999998,"velocity":0.7244094488188977},{"duration":0.2727270000000033,"midi":41,"time":159.81802199999998,"velocity":0.7244094488188977},{"duration":0.13636349999998743,"midi":29,"time":160.2271125,"velocity":0.7244094488188977},{"duration":0.13636349999998743,"midi":41,"time":160.2271125,"velocity":0.7244094488188977},{"duration":0.2727270000000033,"midi":41,"time":160.363476,"velocity":0.7244094488188977},{"duration":0.2727270000000033,"midi":29,"time":160.363476,"velocity":0.7244094488188977},{"duration":0.2727270000000033,"midi":40,"time":160.4998395,"velocity":0.7244094488188977},{"duration":0.2727270000000033,"midi":28,"time":160.4998395,"velocity":0.7244094488188977},{"duration":0.2727270000000033,"midi":43,"time":160.90893,"velocity":0.7244094488188977},{"duration":0.2727270000000033,"midi":31,"time":160.90893,"velocity":0.7244094488188977},{"duration":0.2727270000000033,"midi":26,"time":161.04529349999999,"velocity":0.7244094488188977},{"duration":0.2727270000000033,"midi":37,"time":161.181657,"velocity":0.7244094488188977},{"duration":0.2727270000000033,"midi":42,"time":161.454384,"velocity":0.7244094488188977},{"duration":0.2727270000000033,"midi":30,"time":161.454384,"velocity":0.7244094488188977},{"duration":0.2727270000000033,"midi":29,"time":161.5907475,"velocity":0.7244094488188977},{"duration":0.2727270000000033,"midi":41,"time":161.5907475,"velocity":0.7244094488188977},{"duration":0.27272699999997485,"midi":41,"time":161.999838,"velocity":0.7244094488188977},{"duration":0.27272699999997485,"midi":29,"time":161.999838,"velocity":0.7244094488188977},{"duration":0.13636349999998743,"midi":29,"time":162.4089285,"velocity":0.7244094488188977},{"duration":0.13636349999998743,"midi":41,"time":162.4089285,"velocity":0.7244094488188977},{"duration":0.2727270000000033,"midi":29,"time":162.545292,"velocity":0.7244094488188977},{"duration":0.2727270000000033,"midi":41,"time":162.545292,"velocity":0.7244094488188977},{"duration":0.2727270000000033,"midi":28,"time":162.6816555,"velocity":0.7244094488188977},{"duration":0.2727270000000033,"midi":40,"time":162.6816555,"velocity":0.7244094488188977},{"duration":0.2727270000000033,"midi":43,"time":163.090746,"velocity":0.7244094488188977},{"duration":0.2727270000000033,"midi":34,"time":163.090746,"velocity":0.7244094488188977},{"duration":0.2727270000000033,"midi":31,"time":163.090746,"velocity":0.7244094488188977},{"duration":0.2727270000000033,"midi":26,"time":163.363473,"velocity":0.7244094488188977},{"duration":0.2727270000000033,"midi":37,"time":163.363473,"velocity":0.7244094488188977},{"duration":0.2727270000000033,"midi":42,"time":163.7725635,"velocity":0.7244094488188977},{"duration":0.2727270000000033,"midi":30,"time":163.7725635,"velocity":0.7244094488188977},{"duration":0.2727270000000033,"midi":29,"time":163.908927,"velocity":0.7244094488188977},{"duration":0.2727270000000033,"midi":41,"time":163.908927,"velocity":0.7244094488188977},{"duration":0.2727270000000033,"midi":29,"time":164.181654,"velocity":0.7244094488188977},{"duration":0.2727270000000033,"midi":41,"time":164.181654,"velocity":0.7244094488188977},{"duration":0.13636349999998743,"midi":29,"time":164.5907445,"velocity":0.7244094488188977},{"duration":0.13636349999998743,"midi":41,"time":164.5907445,"velocity":0.7244094488188977},{"duration":0.2727270000000033,"midi":29,"time":164.727108,"velocity":0.7244094488188977},{"duration":0.2727270000000033,"midi":41,"time":164.727108,"velocity":0.7244094488188977},{"duration":0.2727270000000033,"midi":40,"time":164.8634715,"velocity":0.7244094488188977},{"duration":0.2727270000000033,"midi":28,"time":164.8634715,"velocity":0.7244094488188977},{"duration":0.2727270000000033,"midi":31,"time":165.272562,"velocity":0.7244094488188977},{"duration":0.2727270000000033,"midi":43,"time":165.272562,"velocity":0.7244094488188977},{"duration":0.2727270000000033,"midi":34,"time":165.272562,"velocity":0.7244094488188977},{"duration":0.13636349999998743,"midi":38,"time":165.34074375,"velocity":0.7244094488188977},{"duration":0.27272699999997485,"midi":37,"time":165.4089255,"velocity":0.7244094488188977},{"duration":0.27272699999997485,"midi":26,"time":165.4089255,"velocity":0.7244094488188977},{"duration":0.2727270000000033,"midi":30,"time":165.818016,"velocity":0.7244094488188977},{"duration":0.2727270000000033,"midi":42,"time":165.818016,"velocity":0.7244094488188977},{"duration":0.2727270000000033,"midi":29,"time":165.9543795,"velocity":0.7244094488188977},{"duration":0.2727270000000033,"midi":41,"time":165.9543795,"velocity":0.7244094488188977},{"duration":0.2727270000000033,"midi":41,"time":166.36347,"velocity":0.7244094488188977},{"duration":0.2727270000000033,"midi":29,"time":166.36347,"velocity":0.7244094488188977},{"duration":0.13636349999998743,"midi":29,"time":166.7725605,"velocity":0.7244094488188977},{"duration":0.13636349999998743,"midi":41,"time":166.7725605,"velocity":0.7244094488188977},{"duration":0.2727270000000033,"midi":29,"time":166.90892399999998,"velocity":0.7244094488188977},{"duration":0.2727270000000033,"midi":41,"time":166.90892399999998,"velocity":0.7244094488188977},{"duration":0.2727270000000033,"midi":40,"time":167.0452875,"velocity":0.7244094488188977},{"duration":0.2727270000000033,"midi":28,"time":167.0452875,"velocity":0.7244094488188977},{"duration":0.2727270000000033,"midi":44,"time":167.454378,"velocity":0.7244094488188977},{"duration":0.2727270000000033,"midi":32,"time":167.454378,"velocity":0.7244094488188977},{"duration":0.2727270000000033,"midi":26,"time":167.727105,"velocity":0.7244094488188977},{"duration":0.2727270000000033,"midi":37,"time":167.727105,"velocity":0.7244094488188977},{"duration":0.2727270000000033,"midi":42,"time":168.13619549999999,"velocity":0.7244094488188977},{"duration":0.2727270000000033,"midi":30,"time":168.13619549999999,"velocity":0.7244094488188977},{"duration":0.2727270000000033,"midi":41,"time":168.272559,"velocity":0.7244094488188977},{"duration":0.2727270000000033,"midi":29,"time":168.272559,"velocity":0.7244094488188977},{"duration":0.2727270000000033,"midi":29,"time":168.545286,"velocity":0.7244094488188977},{"duration":0.2727270000000033,"midi":41,"time":168.545286,"velocity":0.7244094488188977},{"duration":0.13636350000001585,"midi":41,"time":168.9543765,"velocity":0.7244094488188977},{"duration":0.13636350000001585,"midi":29,"time":168.9543765,"velocity":0.7244094488188977},{"duration":0.27272699999997485,"midi":41,"time":169.09074,"velocity":0.7244094488188977},{"duration":0.27272699999997485,"midi":29,"time":169.09074,"velocity":0.7244094488188977},{"duration":0.2727270000000033,"midi":28,"time":169.2271035,"velocity":0.7244094488188977},{"duration":0.2727270000000033,"midi":40,"time":169.2271035,"velocity":0.7244094488188977},{"duration":0.2727270000000033,"midi":43,"time":169.636194,"velocity":0.7244094488188977},{"duration":0.2727270000000033,"midi":31,"time":169.636194,"velocity":0.7244094488188977},{"duration":0.2727270000000033,"midi":26,"time":169.7725575,"velocity":0.7244094488188977},{"duration":0.2727270000000033,"midi":37,"time":169.908921,"velocity":0.7244094488188977},{"duration":0.2727270000000033,"midi":30,"time":170.181648,"velocity":0.7244094488188977},{"duration":0.2727270000000033,"midi":42,"time":170.181648,"velocity":0.7244094488188977},{"duration":0.27272699999997485,"midi":41,"time":170.3180115,"velocity":0.7244094488188977},{"duration":0.27272699999997485,"midi":29,"time":170.3180115,"velocity":0.7244094488188977},{"duration":0.2727270000000033,"midi":41,"time":170.727102,"velocity":0.7244094488188977},{"duration":0.2727270000000033,"midi":29,"time":170.727102,"velocity":0.7244094488188977},{"duration":0.13636350000001585,"midi":41,"time":171.1361925,"velocity":0.7244094488188977},{"duration":0.13636350000001585,"midi":29,"time":171.1361925,"velocity":0.7244094488188977},{"duration":0.2727270000000033,"midi":41,"time":171.272556,"velocity":0.7244094488188977},{"duration":0.2727270000000033,"midi":29,"time":171.272556,"velocity":0.7244094488188977},{"duration":0.2727270000000033,"midi":40,"time":171.4089195,"velocity":0.7244094488188977},{"duration":0.2727270000000033,"midi":28,"time":171.4089195,"velocity":0.7244094488188977},{"duration":0.2727270000000033,"midi":43,"time":171.81801,"velocity":0.7244094488188977},{"duration":0.2727270000000033,"midi":31,"time":171.81801,"velocity":0.7244094488188977},{"duration":0.2727270000000033,"midi":34,"time":171.81801,"velocity":0.7244094488188977},{"duration":0.2727270000000033,"midi":26,"time":172.090737,"velocity":0.7244094488188977},{"duration":0.2727270000000033,"midi":37,"time":172.090737,"velocity":0.7244094488188977},{"duration":0.27272699999997485,"midi":42,"time":172.4998275,"velocity":0.7244094488188977},{"duration":0.27272699999997485,"midi":30,"time":172.4998275,"velocity":0.7244094488188977},{"duration":0.2727270000000033,"midi":41,"time":172.636191,"velocity":0.7244094488188977},{"duration":0.2727270000000033,"midi":29,"time":172.636191,"velocity":0.7244094488188977},{"duration":0.2727270000000033,"midi":29,"time":172.908918,"velocity":0.7244094488188977},{"duration":0.2727270000000033,"midi":41,"time":172.908918,"velocity":0.7244094488188977},{"duration":0.13636350000001585,"midi":41,"time":173.3180085,"velocity":0.7244094488188977},{"duration":0.13636350000001585,"midi":29,"time":173.3180085,"velocity":0.7244094488188977},{"duration":0.2727270000000033,"midi":29,"time":173.454372,"velocity":0.7244094488188977},{"duration":0.2727270000000033,"midi":41,"time":173.454372,"velocity":0.7244094488188977},{"duration":0.2727270000000033,"midi":28,"time":173.5907355,"velocity":0.7244094488188977},{"duration":0.2727270000000033,"midi":40,"time":173.5907355,"velocity":0.7244094488188977},{"duration":0.2727270000000033,"midi":31,"time":173.99982599999998,"velocity":0.7244094488188977},{"duration":0.2727270000000033,"midi":43,"time":173.99982599999998,"velocity":0.7244094488188977},{"duration":0.2727270000000033,"midi":34,"time":173.99982599999998,"velocity":0.7244094488188977},{"duration":0.13636350000001585,"midi":38,"time":174.06800775,"velocity":0.7244094488188977},{"duration":0.2727270000000033,"midi":37,"time":174.1361895,"velocity":0.7244094488188977},{"duration":0.2727270000000033,"midi":26,"time":174.1361895,"velocity":0.7244094488188977},{"duration":0.2727270000000033,"midi":30,"time":174.54528,"velocity":0.7244094488188977},{"duration":0.2727270000000033,"midi":42,"time":174.54528,"velocity":0.7244094488188977},{"duration":0.2727270000000033,"midi":29,"time":174.6816435,"velocity":0.7244094488188977},{"duration":0.2727270000000033,"midi":41,"time":174.6816435,"velocity":0.7244094488188977},{"duration":0.2727270000000033,"midi":29,"time":175.090734,"velocity":0.7244094488188977},{"duration":0.2727270000000033,"midi":41,"time":175.090734,"velocity":0.7244094488188977},{"duration":0.13636350000001585,"midi":41,"time":175.4998245,"velocity":0.7244094488188977},{"duration":0.13636350000001585,"midi":29,"time":175.4998245,"velocity":0.7244094488188977},{"duration":0.2727270000000033,"midi":29,"time":175.636188,"velocity":0.7244094488188977},{"duration":0.2727270000000033,"midi":41,"time":175.636188,"velocity":0.7244094488188977},{"duration":0.2727270000000033,"midi":28,"time":175.7725515,"velocity":0.7244094488188977},{"duration":0.2727270000000033,"midi":40,"time":175.7725515,"velocity":0.7244094488188977},{"duration":0.27272699999997485,"midi":44,"time":176.181642,"velocity":0.7244094488188977},{"duration":0.27272699999997485,"midi":32,"time":176.181642,"velocity":0.7244094488188977},{"duration":0.2727270000000033,"midi":37,"time":176.45436899999999,"velocity":0.7244094488188977},{"duration":0.2727270000000033,"midi":26,"time":176.45436899999999,"velocity":0.7244094488188977},{"duration":0.2727270000000033,"midi":30,"time":176.8634595,"velocity":0.7244094488188977},{"duration":0.2727270000000033,"midi":42,"time":176.8634595,"velocity":0.7244094488188977},{"duration":0.2727270000000033,"midi":29,"time":176.999823,"velocity":0.7244094488188977},{"duration":0.2727270000000033,"midi":41,"time":176.999823,"velocity":0.7244094488188977},{"duration":0.2727270000000033,"midi":41,"time":177.27255,"velocity":0.7244094488188977},{"duration":0.2727270000000033,"midi":29,"time":177.27255,"velocity":0.7244094488188977},{"duration":0.13636350000001585,"midi":29,"time":177.6816405,"velocity":0.7244094488188977},{"duration":0.13636350000001585,"midi":41,"time":177.6816405,"velocity":0.7244094488188977},{"duration":0.2727270000000033,"midi":41,"time":177.818004,"velocity":0.7244094488188977},{"duration":0.2727270000000033,"midi":29,"time":177.818004,"velocity":0.7244094488188977},{"duration":0.2727270000000033,"midi":28,"time":177.9543675,"velocity":0.7244094488188977},{"duration":0.2727270000000033,"midi":40,"time":177.9543675,"velocity":0.7244094488188977},{"duration":0.2727270000000033,"midi":31,"time":178.363458,"velocity":0.7244094488188977},{"duration":0.2727270000000033,"midi":43,"time":178.363458,"velocity":0.7244094488188977},{"duration":0.2727270000000033,"midi":26,"time":178.4998215,"velocity":0.7244094488188977},{"duration":0.27272699999997485,"midi":37,"time":178.636185,"velocity":0.7244094488188977},{"duration":0.2727270000000033,"midi":30,"time":178.908912,"velocity":0.7244094488188977},{"duration":0.2727270000000033,"midi":42,"time":178.908912,"velocity":0.7244094488188977},{"duration":0.2727270000000033,"midi":29,"time":179.0452755,"velocity":0.7244094488188977},{"duration":0.2727270000000033,"midi":41,"time":179.0452755,"velocity":0.7244094488188977},{"duration":0.2727270000000033,"midi":41,"time":179.454366,"velocity":0.7244094488188977},{"duration":0.2727270000000033,"midi":29,"time":179.454366,"velocity":0.7244094488188977},{"duration":0.13636349999998743,"midi":29,"time":179.8634565,"velocity":0.7244094488188977},{"duration":0.13636349999998743,"midi":41,"time":179.8634565,"velocity":0.7244094488188977},{"duration":0.2727270000000033,"midi":41,"time":179.99982,"velocity":0.7244094488188977},{"duration":0.2727270000000033,"midi":29,"time":179.99982,"velocity":0.7244094488188977},{"duration":0.2727270000000033,"midi":28,"time":180.1361835,"velocity":0.7244094488188977},{"duration":0.2727270000000033,"midi":40,"time":180.1361835,"velocity":0.7244094488188977},{"duration":0.2727270000000033,"midi":43,"time":180.545274,"velocity":0.7244094488188977},{"duration":0.2727270000000033,"midi":31,"time":180.545274,"velocity":0.7244094488188977},{"duration":0.2727270000000033,"midi":34,"time":180.545274,"velocity":0.7244094488188977},{"duration":0.27272699999997485,"midi":37,"time":180.818001,"velocity":0.7244094488188977},{"duration":0.27272699999997485,"midi":26,"time":180.818001,"velocity":0.7244094488188977},{"duration":0.2727270000000033,"midi":30,"time":181.2270915,"velocity":0.7244094488188977},{"duration":0.2727270000000033,"midi":42,"time":181.2270915,"velocity":0.7244094488188977},{"duration":0.2727270000000033,"midi":29,"time":181.363455,"velocity":0.7244094488188977},{"duration":0.2727270000000033,"midi":41,"time":181.363455,"velocity":0.7244094488188977},{"duration":0.2727270000000033,"midi":29,"time":181.636182,"velocity":0.7244094488188977},{"duration":0.2727270000000033,"midi":41,"time":181.636182,"velocity":0.7244094488188977},{"duration":0.13636349999998743,"midi":29,"time":182.0452725,"velocity":0.7244094488188977},{"duration":0.13636349999998743,"midi":41,"time":182.0452725,"velocity":0.7244094488188977},{"duration":0.2727270000000033,"midi":41,"time":182.181636,"velocity":0.7244094488188977},{"duration":0.2727270000000033,"midi":29,"time":182.181636,"velocity":0.7244094488188977},{"duration":0.2727270000000033,"midi":40,"time":182.31799949999998,"velocity":0.7244094488188977},{"duration":0.2727270000000033,"midi":28,"time":182.31799949999998,"velocity":0.7244094488188977},{"duration":0.2727270000000033,"midi":31,"time":182.72709,"velocity":0.7244094488188977},{"duration":0.2727270000000033,"midi":34,"time":182.72709,"velocity":0.7244094488188977},{"duration":0.2727270000000033,"midi":43,"time":182.72709,"velocity":0.7244094488188977},{"duration":0.13636349999998743,"midi":38,"time":182.79527175,"velocity":0.7244094488188977},{"duration":0.2727270000000033,"midi":26,"time":182.8634535,"velocity":0.7244094488188977},{"duration":0.2727270000000033,"midi":37,"time":182.8634535,"velocity":0.7244094488188977},{"duration":0.27272699999997485,"midi":42,"time":183.272544,"velocity":0.7244094488188977},{"duration":0.27272699999997485,"midi":30,"time":183.272544,"velocity":0.7244094488188977},{"duration":0.2727270000000033,"midi":41,"time":183.4089075,"velocity":0.7244094488188977},{"duration":0.2727270000000033,"midi":29,"time":183.4089075,"velocity":0.7244094488188977},{"duration":0.2727270000000033,"midi":29,"time":183.817998,"velocity":0.7244094488188977},{"duration":0.2727270000000033,"midi":41,"time":183.817998,"velocity":0.7244094488188977},{"duration":0.13636349999998743,"midi":29,"time":184.2270885,"velocity":0.7244094488188977},{"duration":0.13636349999998743,"midi":41,"time":184.2270885,"velocity":0.7244094488188977},{"duration":0.2727270000000033,"midi":41,"time":184.363452,"velocity":0.7244094488188977},{"duration":0.2727270000000033,"midi":29,"time":184.363452,"velocity":0.7244094488188977},{"duration":0.27272699999997485,"midi":40,"time":184.4998155,"velocity":0.7244094488188977},{"duration":0.27272699999997485,"midi":28,"time":184.4998155,"velocity":0.7244094488188977},{"duration":0.2727270000000033,"midi":32,"time":184.908906,"velocity":0.7244094488188977},{"duration":0.2727270000000033,"midi":44,"time":184.908906,"velocity":0.7244094488188977},{"duration":0.2727270000000033,"midi":26,"time":185.181633,"velocity":0.7244094488188977},{"duration":0.2727270000000033,"midi":37,"time":185.181633,"velocity":0.7244094488188977},{"duration":0.2727270000000033,"midi":30,"time":185.5907235,"velocity":0.7244094488188977},{"duration":0.2727270000000033,"midi":42,"time":185.5907235,"velocity":0.7244094488188977},{"duration":0.27272699999997485,"midi":29,"time":185.727087,"velocity":0.7244094488188977},{"duration":0.27272699999997485,"midi":41,"time":185.727087,"velocity":0.7244094488188977},{"duration":0.2727270000000033,"midi":41,"time":185.999814,"velocity":0.7244094488188977},{"duration":0.2727270000000033,"midi":29,"time":185.999814,"velocity":0.7244094488188977},{"duration":0.13636349999998743,"midi":29,"time":186.4089045,"velocity":0.7244094488188977},{"duration":0.13636349999998743,"midi":41,"time":186.4089045,"velocity":0.7244094488188977},{"duration":0.2727270000000033,"midi":41,"time":186.545268,"velocity":0.7244094488188977},{"duration":0.2727270000000033,"midi":29,"time":186.545268,"velocity":0.7244094488188977},{"duration":0.2727270000000033,"midi":28,"time":186.6816315,"velocity":0.7244094488188977},{"duration":0.2727270000000033,"midi":40,"time":186.6816315,"velocity":0.7244094488188977},{"duration":0.2727270000000033,"midi":43,"time":187.090722,"velocity":0.7244094488188977},{"duration":0.2727270000000033,"midi":31,"time":187.090722,"velocity":0.7244094488188977},{"duration":0.2727270000000033,"midi":26,"time":187.2270855,"velocity":0.7244094488188977},{"duration":0.2727270000000033,"midi":37,"time":187.363449,"velocity":0.7244094488188977},{"duration":0.2727270000000033,"midi":30,"time":187.636176,"velocity":0.7244094488188977},{"duration":0.2727270000000033,"midi":42,"time":187.636176,"velocity":0.7244094488188977},{"duration":0.2727270000000033,"midi":29,"time":187.7725395,"velocity":0.7244094488188977},{"duration":0.2727270000000033,"midi":41,"time":187.7725395,"velocity":0.7244094488188977},{"duration":0.2727270000000033,"midi":29,"time":188.18162999999998,"velocity":0.7244094488188977},{"duration":0.2727270000000033,"midi":41,"time":188.18162999999998,"velocity":0.7244094488188977},{"duration":0.13636349999998743,"midi":29,"time":188.5907205,"velocity":0.7244094488188977},{"duration":0.13636349999998743,"midi":41,"time":188.5907205,"velocity":0.7244094488188977},{"duration":0.2727270000000033,"midi":41,"time":188.727084,"velocity":0.7244094488188977},{"duration":0.2727270000000033,"midi":29,"time":188.727084,"velocity":0.7244094488188977},{"duration":0.2727270000000033,"midi":28,"time":188.8634475,"velocity":0.7244094488188977},{"duration":0.2727270000000033,"midi":40,"time":188.8634475,"velocity":0.7244094488188977},{"duration":0.2727270000000033,"midi":43,"time":189.272538,"velocity":0.7244094488188977},{"duration":0.2727270000000033,"midi":34,"time":189.272538,"velocity":0.7244094488188977},{"duration":0.2727270000000033,"midi":31,"time":189.272538,"velocity":0.7244094488188977},{"duration":0.2727270000000033,"midi":37,"time":189.545265,"velocity":0.7244094488188977},{"duration":0.2727270000000033,"midi":26,"time":189.545265,"velocity":0.7244094488188977},{"duration":0.2727270000000033,"midi":42,"time":189.9543555,"velocity":0.7244094488188977},{"duration":0.2727270000000033,"midi":30,"time":189.9543555,"velocity":0.7244094488188977},{"duration":0.2727270000000033,"midi":41,"time":190.090719,"velocity":0.7244094488188977},{"duration":0.2727270000000033,"midi":29,"time":190.090719,"velocity":0.7244094488188977},{"duration":0.27272699999997485,"midi":29,"time":190.363446,"velocity":0.7244094488188977},{"duration":0.27272699999997485,"midi":41,"time":190.363446,"velocity":0.7244094488188977},{"duration":0.13636349999998743,"midi":29,"time":190.7725365,"velocity":0.7244094488188977},{"duration":0.13636349999998743,"midi":41,"time":190.7725365,"velocity":0.7244094488188977},{"duration":0.2727270000000033,"midi":41,"time":190.9089,"velocity":0.7244094488188977},{"duration":0.2727270000000033,"midi":29,"time":190.9089,"velocity":0.7244094488188977},{"duration":0.2727270000000033,"midi":40,"time":191.0452635,"velocity":0.7244094488188977},{"duration":0.2727270000000033,"midi":28,"time":191.0452635,"velocity":0.7244094488188977},{"duration":0.2727270000000033,"midi":31,"time":191.454354,"velocity":0.7244094488188977},{"duration":0.2727270000000033,"midi":43,"time":191.454354,"velocity":0.7244094488188977},{"duration":0.2727270000000033,"midi":34,"time":191.454354,"velocity":0.7244094488188977},{"duration":0.13636349999998743,"midi":38,"time":191.52253575,"velocity":0.7244094488188977},{"duration":0.27272699999997485,"midi":26,"time":191.5907175,"velocity":0.7244094488188977},{"duration":0.27272699999997485,"midi":37,"time":191.5907175,"velocity":0.7244094488188977},{"duration":0.681817499999994,"midi":27,"time":191.999808,"velocity":0.7244094488188977},{"duration":0.681817499999994,"midi":27,"time":191.999808,"velocity":0.7244094488188977},{"duration":0.681817499999994,"midi":27,"time":192.545262,"velocity":0.7244094488188977},{"duration":0.681817499999994,"midi":27,"time":192.545262,"velocity":0.7244094488188977},{"duration":0.2727270000000033,"midi":39,"time":193.090716,"velocity":0.7244094488188977},{"duration":0.2727270000000033,"midi":39,"time":193.090716,"velocity":0.7244094488188977},{"duration":0.4090904999999907,"midi":27,"time":193.2270795,"velocity":0.7244094488188977},{"duration":0.4090904999999907,"midi":27,"time":193.2270795,"velocity":0.7244094488188977},{"duration":0.2727270000000033,"midi":39,"time":193.63617,"velocity":0.7244094488188977},{"duration":0.2727270000000033,"midi":39,"time":193.63617,"velocity":0.7244094488188977},{"duration":0.4090904999999907,"midi":27,"time":193.7725335,"velocity":0.7244094488188977},{"duration":0.4090904999999907,"midi":27,"time":193.7725335,"velocity":0.7244094488188977},{"duration":0.681817499999994,"midi":26,"time":194.181624,"velocity":0.7244094488188977},{"duration":0.681817499999994,"midi":26,"time":194.181624,"velocity":0.7244094488188977},{"duration":0.681817499999994,"midi":26,"time":194.727078,"velocity":0.7244094488188977},{"duration":0.681817499999994,"midi":26,"time":194.727078,"velocity":0.7244094488188977},{"duration":0.2727270000000033,"midi":38,"time":195.27253199999998,"velocity":0.7244094488188977},{"duration":0.2727270000000033,"midi":38,"time":195.27253199999998,"velocity":0.7244094488188977},{"duration":0.4090904999999907,"midi":26,"time":195.4088955,"velocity":0.7244094488188977},{"duration":0.4090904999999907,"midi":26,"time":195.4088955,"velocity":0.7244094488188977},{"duration":0.681817499999994,"midi":28,"time":195.817986,"velocity":0.7244094488188977},{"duration":0.681817499999994,"midi":28,"time":195.817986,"velocity":0.7244094488188977},{"duration":0.681817499999994,"midi":27,"time":196.36344,"velocity":0.7244094488188977},{"duration":0.681817499999994,"midi":27,"time":196.36344,"velocity":0.7244094488188977},{"duration":0.681817499999994,"midi":27,"time":196.908894,"velocity":0.7244094488188977},{"duration":0.681817499999994,"midi":27,"time":196.908894,"velocity":0.7244094488188977},{"duration":0.27272699999997485,"midi":39,"time":197.454348,"velocity":0.7244094488188977},{"duration":0.27272699999997485,"midi":39,"time":197.454348,"velocity":0.7244094488188977},{"duration":0.4090904999999907,"midi":27,"time":197.5907115,"velocity":0.7244094488188977},{"duration":0.4090904999999907,"midi":27,"time":197.5907115,"velocity":0.7244094488188977},{"duration":0.2727270000000033,"midi":39,"time":197.999802,"velocity":0.7244094488188977},{"duration":0.2727270000000033,"midi":39,"time":197.999802,"velocity":0.7244094488188977},{"duration":0.4090904999999907,"midi":27,"time":198.1361655,"velocity":0.7244094488188977},{"duration":0.4090904999999907,"midi":27,"time":198.1361655,"velocity":0.7244094488188977},{"duration":0.681817499999994,"midi":28,"time":198.545256,"velocity":0.7244094488188977},{"duration":0.681817499999994,"midi":28,"time":198.545256,"velocity":0.7244094488188977},{"duration":0.681817499999994,"midi":28,"time":199.09071,"velocity":0.7244094488188977},{"duration":0.681817499999994,"midi":28,"time":199.09071,"velocity":0.7244094488188977},{"duration":0.2727270000000033,"midi":40,"time":199.636164,"velocity":0.7244094488188977},{"duration":0.2727270000000033,"midi":40,"time":199.636164,"velocity":0.7244094488188977},{"duration":0.4090904999999907,"midi":28,"time":199.7725275,"velocity":0.7244094488188977},{"duration":0.4090904999999907,"midi":28,"time":199.7725275,"velocity":0.7244094488188977},{"duration":0.6818175000000224,"midi":31,"time":200.181618,"velocity":0.7244094488188977},{"duration":0.6818175000000224,"midi":31,"time":200.181618,"velocity":0.7244094488188977},{"duration":0.2727270000000033,"midi":30,"time":200.181618,"velocity":0.7244094488188977},{"duration":0.2727270000000033,"midi":30,"time":200.181618,"velocity":0.7244094488188977},{"duration":0.20454524999999535,"midi":33,"time":200.24979975,"velocity":0.7244094488188977},{"duration":0.20454524999999535,"midi":33,"time":200.24979975,"velocity":0.7244094488188977},{"duration":0.681817499999994,"midi":27,"time":200.727072,"velocity":0.7244094488188977},{"duration":0.681817499999994,"midi":27,"time":200.727072,"velocity":0.7244094488188977},{"duration":0.681817499999994,"midi":27,"time":201.272526,"velocity":0.7244094488188977},{"duration":0.681817499999994,"midi":27,"time":201.272526,"velocity":0.7244094488188977},{"duration":0.2727270000000033,"midi":39,"time":201.81798,"velocity":0.7244094488188977},{"duration":0.2727270000000033,"midi":39,"time":201.81798,"velocity":0.7244094488188977},{"duration":0.4090904999999907,"midi":27,"time":201.9543435,"velocity":0.7244094488188977},{"duration":0.4090904999999907,"midi":27,"time":201.9543435,"velocity":0.7244094488188977},{"duration":0.2727270000000033,"midi":39,"time":202.36343399999998,"velocity":0.7244094488188977},{"duration":0.2727270000000033,"midi":39,"time":202.36343399999998,"velocity":0.7244094488188977},{"duration":0.4090904999999907,"midi":27,"time":202.4997975,"velocity":0.7244094488188977},{"duration":0.4090904999999907,"midi":27,"time":202.4997975,"velocity":0.7244094488188977},{"duration":0.681817499999994,"midi":26,"time":202.908888,"velocity":0.7244094488188977},{"duration":0.681817499999994,"midi":26,"time":202.908888,"velocity":0.7244094488188977},{"duration":0.681817499999994,"midi":26,"time":203.454342,"velocity":0.7244094488188977},{"duration":0.681817499999994,"midi":26,"time":203.454342,"velocity":0.7244094488188977},{"duration":0.2727270000000033,"midi":38,"time":203.999796,"velocity":0.7244094488188977},{"duration":0.2727270000000033,"midi":38,"time":203.999796,"velocity":0.7244094488188977},{"duration":0.4090905000000191,"midi":26,"time":204.1361595,"velocity":0.7244094488188977},{"duration":0.4090905000000191,"midi":26,"time":204.1361595,"velocity":0.7244094488188977},{"duration":0.681817499999994,"midi":28,"time":204.54525,"velocity":0.7244094488188977},{"duration":0.681817499999994,"midi":28,"time":204.54525,"velocity":0.7244094488188977},{"duration":0.6818175000000224,"midi":27,"time":205.090704,"velocity":0.7244094488188977},{"duration":0.6818175000000224,"midi":27,"time":205.090704,"velocity":0.7244094488188977},{"duration":0.681817499999994,"midi":27,"time":205.636158,"velocity":0.7244094488188977},{"duration":0.681817499999994,"midi":27,"time":205.636158,"velocity":0.7244094488188977},{"duration":0.2727270000000033,"midi":39,"time":206.181612,"velocity":0.7244094488188977},{"duration":0.2727270000000033,"midi":39,"time":206.181612,"velocity":0.7244094488188977},{"duration":0.4090905000000191,"midi":27,"time":206.3179755,"velocity":0.7244094488188977},{"duration":0.4090905000000191,"midi":27,"time":206.3179755,"velocity":0.7244094488188977},{"duration":0.2727270000000033,"midi":39,"time":206.727066,"velocity":0.7244094488188977},{"duration":0.2727270000000033,"midi":39,"time":206.727066,"velocity":0.7244094488188977},{"duration":0.4090904999999907,"midi":27,"time":206.8634295,"velocity":0.7244094488188977},{"duration":0.4090904999999907,"midi":27,"time":206.8634295,"velocity":0.7244094488188977},{"duration":0.6818175000000224,"midi":28,"time":207.27252,"velocity":0.7244094488188977},{"duration":0.6818175000000224,"midi":28,"time":207.27252,"velocity":0.7244094488188977},{"duration":0.681817499999994,"midi":28,"time":207.817974,"velocity":0.7244094488188977},{"duration":0.681817499999994,"midi":28,"time":207.817974,"velocity":0.7244094488188977},{"duration":0.2727270000000033,"midi":40,"time":208.363428,"velocity":0.7244094488188977},{"duration":0.2727270000000033,"midi":40,"time":208.363428,"velocity":0.7244094488188977},{"duration":0.4090905000000191,"midi":28,"time":208.4997915,"velocity":0.7244094488188977},{"duration":0.4090905000000191,"midi":28,"time":208.4997915,"velocity":0.7244094488188977},{"duration":0.2727270000000033,"midi":42,"time":208.908882,"velocity":0.7244094488188977},{"duration":0.681817499999994,"midi":43,"time":208.908882,"velocity":0.7244094488188977},{"duration":0.2727270000000033,"midi":42,"time":208.908882,"velocity":0.7244094488188977},{"duration":0.681817499999994,"midi":43,"time":208.908882,"velocity":0.7244094488188977},{"duration":0.681817499999994,"midi":27,"time":209.454336,"velocity":0.7244094488188977},{"duration":0.681817499999994,"midi":39,"time":209.454336,"velocity":0.7244094488188977},{"duration":0.681817499999994,"midi":27,"time":209.454336,"velocity":0.7244094488188977},{"duration":0.681817499999994,"midi":39,"time":209.454336,"velocity":0.7244094488188977},{"duration":0.681817499999994,"midi":46,"time":209.454336,"velocity":0.7244094488188977},{"duration":0.681817499999994,"midi":46,"time":209.454336,"velocity":0.7244094488188977},{"duration":0.681817499999994,"midi":27,"time":209.99979,"velocity":0.7244094488188977},{"duration":0.681817499999994,"midi":27,"time":209.99979,"velocity":0.7244094488188977},{"duration":0.681817499999994,"midi":46,"time":209.99979,"velocity":0.7244094488188977},{"duration":0.681817499999994,"midi":46,"time":209.99979,"velocity":0.7244094488188977},{"duration":0.681817499999994,"midi":39,"time":209.99979,"velocity":0.7244094488188977},{"duration":0.681817499999994,"midi":39,"time":209.99979,"velocity":0.7244094488188977},{"duration":0.2727270000000033,"midi":58,"time":210.545244,"velocity":0.7244094488188977},{"duration":0.2727270000000033,"midi":51,"time":210.545244,"velocity":0.7244094488188977},{"duration":0.2727270000000033,"midi":58,"time":210.545244,"velocity":0.7244094488188977},{"duration":0.2727270000000033,"midi":39,"time":210.545244,"velocity":0.7244094488188977},{"duration":0.2727270000000033,"midi":51,"time":210.545244,"velocity":0.7244094488188977},{"duration":0.2727270000000033,"midi":39,"time":210.545244,"velocity":0.7244094488188977},{"duration":0.4090905000000191,"midi":27,"time":210.68160749999998,"velocity":0.7244094488188977},{"duration":0.4090905000000191,"midi":46,"time":210.68160749999998,"velocity":0.7244094488188977},{"duration":0.4090905000000191,"midi":39,"time":210.68160749999998,"velocity":0.7244094488188977},{"duration":0.4090905000000191,"midi":27,"time":210.68160749999998,"velocity":0.7244094488188977},{"duration":0.4090905000000191,"midi":46,"time":210.68160749999998,"velocity":0.7244094488188977},{"duration":0.4090905000000191,"midi":39,"time":210.68160749999998,"velocity":0.7244094488188977},{"duration":0.2727270000000033,"midi":58,"time":211.090698,"velocity":0.7244094488188977},{"duration":0.2727270000000033,"midi":39,"time":211.090698,"velocity":0.7244094488188977},{"duration":0.2727270000000033,"midi":51,"time":211.090698,"velocity":0.7244094488188977},{"duration":0.2727270000000033,"midi":58,"time":211.090698,"velocity":0.7244094488188977},{"duration":0.2727270000000033,"midi":39,"time":211.090698,"velocity":0.7244094488188977},{"duration":0.2727270000000033,"midi":51,"time":211.090698,"velocity":0.7244094488188977},{"duration":0.4090905000000191,"midi":27,"time":211.2270615,"velocity":0.7244094488188977},{"duration":0.4090905000000191,"midi":46,"time":211.2270615,"velocity":0.7244094488188977},{"duration":0.4090905000000191,"midi":27,"time":211.2270615,"velocity":0.7244094488188977},{"duration":0.4090905000000191,"midi":39,"time":211.2270615,"velocity":0.7244094488188977},{"duration":0.4090905000000191,"midi":39,"time":211.2270615,"velocity":0.7244094488188977},{"duration":0.4090905000000191,"midi":46,"time":211.2270615,"velocity":0.7244094488188977},{"duration":0.681817499999994,"midi":45,"time":211.636152,"velocity":0.7244094488188977},{"duration":0.681817499999994,"midi":38,"time":211.636152,"velocity":0.7244094488188977},{"duration":0.681817499999994,"midi":45,"time":211.636152,"velocity":0.7244094488188977},{"duration":0.681817499999994,"midi":26,"time":211.636152,"velocity":0.7244094488188977},{"duration":0.681817499999994,"midi":38,"time":211.636152,"velocity":0.7244094488188977},{"duration":0.681817499999994,"midi":26,"time":211.636152,"velocity":0.7244094488188977},{"duration":0.6818175000000224,"midi":26,"time":212.181606,"velocity":0.7244094488188977},{"duration":0.6818175000000224,"midi":45,"time":212.181606,"velocity":0.7244094488188977},{"duration":0.6818175000000224,"midi":38,"time":212.181606,"velocity":0.7244094488188977},{"duration":0.6818175000000224,"midi":26,"time":212.181606,"velocity":0.7244094488188977},{"duration":0.6818175000000224,"midi":45,"time":212.181606,"velocity":0.7244094488188977},{"duration":0.6818175000000224,"midi":38,"time":212.181606,"velocity":0.7244094488188977},{"duration":0.2727270000000033,"midi":57,"time":212.72706,"velocity":0.7244094488188977},{"duration":0.2727270000000033,"midi":38,"time":212.72706,"velocity":0.7244094488188977},{"duration":0.2727270000000033,"midi":50,"time":212.72706,"velocity":0.7244094488188977},{"duration":0.2727270000000033,"midi":38,"time":212.72706,"velocity":0.7244094488188977},{"duration":0.2727270000000033,"midi":57,"time":212.72706,"velocity":0.7244094488188977},{"duration":0.2727270000000033,"midi":50,"time":212.72706,"velocity":0.7244094488188977},{"duration":0.4090904999999907,"midi":26,"time":212.8634235,"velocity":0.7244094488188977},{"duration":0.4090904999999907,"midi":45,"time":212.8634235,"velocity":0.7244094488188977},{"duration":0.4090904999999907,"midi":38,"time":212.8634235,"velocity":0.7244094488188977},{"duration":0.4090904999999907,"midi":45,"time":212.8634235,"velocity":0.7244094488188977},{"duration":0.4090904999999907,"midi":26,"time":212.8634235,"velocity":0.7244094488188977},{"duration":0.4090904999999907,"midi":38,"time":212.8634235,"velocity":0.7244094488188977},{"duration":0.681817499999994,"midi":47,"time":213.272514,"velocity":0.7244094488188977},{"duration":0.681817499999994,"midi":40,"time":213.272514,"velocity":0.7244094488188977},{"duration":0.681817499999994,"midi":47,"time":213.272514,"velocity":0.7244094488188977},{"duration":0.681817499999994,"midi":40,"time":213.272514,"velocity":0.7244094488188977},{"duration":0.681817499999994,"midi":28,"time":213.272514,"velocity":0.7244094488188977},{"duration":0.681817499999994,"midi":28,"time":213.272514,"velocity":0.7244094488188977},{"duration":0.681817499999994,"midi":46,"time":213.817968,"velocity":0.7244094488188977},{"duration":0.681817499999994,"midi":39,"time":213.817968,"velocity":0.7244094488188977},{"duration":0.681817499999994,"midi":46,"time":213.817968,"velocity":0.7244094488188977},{"duration":0.681817499999994,"midi":27,"time":213.817968,"velocity":0.7244094488188977},{"duration":0.681817499999994,"midi":39,"time":213.817968,"velocity":0.7244094488188977},{"duration":0.681817499999994,"midi":27,"time":213.817968,"velocity":0.7244094488188977},{"duration":0.6818175000000224,"midi":39,"time":214.36342199999999,"velocity":0.7244094488188977},{"duration":0.6818175000000224,"midi":27,"time":214.36342199999999,"velocity":0.7244094488188977},{"duration":0.6818175000000224,"midi":39,"time":214.36342199999999,"velocity":0.7244094488188977},{"duration":0.6818175000000224,"midi":46,"time":214.36342199999999,"velocity":0.7244094488188977},{"duration":0.6818175000000224,"midi":27,"time":214.36342199999999,"velocity":0.7244094488188977},{"duration":0.6818175000000224,"midi":46,"time":214.36342199999999,"velocity":0.7244094488188977},{"duration":0.2727270000000033,"midi":51,"time":214.908876,"velocity":0.7244094488188977},{"duration":0.2727270000000033,"midi":39,"time":214.908876,"velocity":0.7244094488188977},{"duration":0.2727270000000033,"midi":58,"time":214.908876,"velocity":0.7244094488188977},{"duration":0.2727270000000033,"midi":51,"time":214.908876,"velocity":0.7244094488188977},{"duration":0.2727270000000033,"midi":39,"time":214.908876,"velocity":0.7244094488188977},{"duration":0.2727270000000033,"midi":58,"time":214.908876,"velocity":0.7244094488188977},{"duration":0.4090904999999907,"midi":39,"time":215.0452395,"velocity":0.7244094488188977},{"duration":0.4090904999999907,"midi":39,"time":215.0452395,"velocity":0.7244094488188977},{"duration":0.4090904999999907,"midi":27,"time":215.0452395,"velocity":0.7244094488188977},{"duration":0.4090904999999907,"midi":27,"time":215.0452395,"velocity":0.7244094488188977},{"duration":0.4090904999999907,"midi":46,"time":215.0452395,"velocity":0.7244094488188977},{"duration":0.4090904999999907,"midi":46,"time":215.0452395,"velocity":0.7244094488188977},{"duration":0.2727270000000033,"midi":51,"time":215.45433,"velocity":0.7244094488188977},{"duration":0.2727270000000033,"midi":58,"time":215.45433,"velocity":0.7244094488188977},{"duration":0.2727270000000033,"midi":39,"time":215.45433,"velocity":0.7244094488188977},{"duration":0.2727270000000033,"midi":39,"time":215.45433,"velocity":0.7244094488188977},{"duration":0.2727270000000033,"midi":58,"time":215.45433,"velocity":0.7244094488188977},{"duration":0.2727270000000033,"midi":51,"time":215.45433,"velocity":0.7244094488188977},{"duration":0.4090905000000191,"midi":27,"time":215.5906935,"velocity":0.7244094488188977},{"duration":0.4090905000000191,"midi":39,"time":215.5906935,"velocity":0.7244094488188977},{"duration":0.4090905000000191,"midi":46,"time":215.5906935,"velocity":0.7244094488188977},{"duration":0.4090905000000191,"midi":39,"time":215.5906935,"velocity":0.7244094488188977},{"duration":0.4090905000000191,"midi":27,"time":215.5906935,"velocity":0.7244094488188977},{"duration":0.4090905000000191,"midi":46,"time":215.5906935,"velocity":0.7244094488188977},{"duration":0.681817499999994,"midi":47,"time":215.999784,"velocity":0.7244094488188977},{"duration":0.681817499999994,"midi":47,"time":215.999784,"velocity":0.7244094488188977},{"duration":0.681817499999994,"midi":40,"time":215.999784,"velocity":0.7244094488188977},{"duration":0.681817499999994,"midi":28,"time":215.999784,"velocity":0.7244094488188977},{"duration":0.681817499999994,"midi":40,"time":215.999784,"velocity":0.7244094488188977},{"duration":0.681817499999994,"midi":28,"time":215.999784,"velocity":0.7244094488188977},{"duration":0.681817499999994,"midi":28,"time":216.545238,"velocity":0.7244094488188977},{"duration":0.681817499999994,"midi":40,"time":216.545238,"velocity":0.7244094488188977},{"duration":0.681817499999994,"midi":47,"time":216.545238,"velocity":0.7244094488188977},{"duration":0.681817499999994,"midi":40,"time":216.545238,"velocity":0.7244094488188977},{"duration":0.681817499999994,"midi":28,"time":216.545238,"velocity":0.7244094488188977},{"duration":0.681817499999994,"midi":47,"time":216.545238,"velocity":0.7244094488188977},{"duration":0.2727270000000033,"midi":40,"time":217.090692,"velocity":0.7244094488188977},{"duration":0.2727270000000033,"midi":40,"time":217.090692,"velocity":0.7244094488188977},{"duration":0.2727270000000033,"midi":52,"time":217.090692,"velocity":0.7244094488188977},{"duration":0.2727270000000033,"midi":59,"time":217.090692,"velocity":0.7244094488188977},{"duration":0.2727270000000033,"midi":52,"time":217.090692,"velocity":0.7244094488188977},{"duration":0.2727270000000033,"midi":59,"time":217.090692,"velocity":0.7244094488188977},{"duration":0.4090904999999907,"midi":47,"time":217.2270555,"velocity":0.7244094488188977},{"duration":0.4090904999999907,"midi":40,"time":217.2270555,"velocity":0.7244094488188977},{"duration":0.4090904999999907,"midi":28,"time":217.2270555,"velocity":0.7244094488188977},{"duration":0.4090904999999907,"midi":28,"time":217.2270555,"velocity":0.7244094488188977},{"duration":0.4090904999999907,"midi":47,"time":217.2270555,"velocity":0.7244094488188977},{"duration":0.4090904999999907,"midi":40,"time":217.2270555,"velocity":0.7244094488188977},{"duration":0.681817499999994,"midi":36,"time":217.636146,"velocity":0.7244094488188977},{"duration":0.681817499999994,"midi":36,"time":217.636146,"velocity":0.7244094488188977},{"duration":0.5454540000000065,"midi":59,"time":217.636146,"velocity":0.7244094488188977},{"duration":0.5454540000000065,"midi":59,"time":217.636146,"velocity":0.7244094488188977},{"duration":0.681817499999994,"midi":55,"time":217.636146,"velocity":0.7244094488188977},{"duration":0.681817499999994,"midi":55,"time":217.636146,"velocity":0.7244094488188977},{"duration":0.681817499999994,"midi":39,"time":218.1816,"velocity":0.7244094488188977},{"duration":0.681817499999994,"midi":46,"time":218.1816,"velocity":0.7244094488188977},{"duration":0.681817499999994,"midi":27,"time":218.1816,"velocity":0.7244094488188977},{"duration":0.681817499999994,"midi":39,"time":218.1816,"velocity":0.7244094488188977},{"duration":0.681817499999994,"midi":46,"time":218.1816,"velocity":0.7244094488188977},{"duration":0.681817499999994,"midi":27,"time":218.1816,"velocity":0.7244094488188977},{"duration":0.681817499999994,"midi":39,"time":218.727054,"velocity":0.7244094488188977},{"duration":0.681817499999994,"midi":27,"time":218.727054,"velocity":0.7244094488188977},{"duration":0.681817499999994,"midi":27,"time":218.727054,"velocity":0.7244094488188977},{"duration":0.681817499999994,"midi":39,"time":218.727054,"velocity":0.7244094488188977},{"duration":0.681817499999994,"midi":46,"time":218.727054,"velocity":0.7244094488188977},{"duration":0.681817499999994,"midi":46,"time":218.727054,"velocity":0.7244094488188977},{"duration":0.2727270000000033,"midi":58,"time":219.272508,"velocity":0.7244094488188977},{"duration":0.2727270000000033,"midi":58,"time":219.272508,"velocity":0.7244094488188977},{"duration":0.2727270000000033,"midi":39,"time":219.272508,"velocity":0.7244094488188977},{"duration":0.2727270000000033,"midi":51,"time":219.272508,"velocity":0.7244094488188977},{"duration":0.2727270000000033,"midi":39,"time":219.272508,"velocity":0.7244094488188977},{"duration":0.2727270000000033,"midi":51,"time":219.272508,"velocity":0.7244094488188977},{"duration":0.4090904999999907,"midi":27,"time":219.4088715,"velocity":0.7244094488188977},{"duration":0.4090904999999907,"midi":46,"time":219.4088715,"velocity":0.7244094488188977},{"duration":0.4090904999999907,"midi":46,"time":219.4088715,"velocity":0.7244094488188977},{"duration":0.4090904999999907,"midi":27,"time":219.4088715,"velocity":0.7244094488188977},{"duration":0.4090904999999907,"midi":39,"time":219.4088715,"velocity":0.7244094488188977},{"duration":0.4090904999999907,"midi":39,"time":219.4088715,"velocity":0.7244094488188977},{"duration":0.2727270000000033,"midi":39,"time":219.817962,"velocity":0.7244094488188977},{"duration":0.2727270000000033,"midi":39,"time":219.817962,"velocity":0.7244094488188977},{"duration":0.2727270000000033,"midi":58,"time":219.817962,"velocity":0.7244094488188977},{"duration":0.2727270000000033,"midi":58,"time":219.817962,"velocity":0.7244094488188977},{"duration":0.2727270000000033,"midi":51,"time":219.817962,"velocity":0.7244094488188977},{"duration":0.2727270000000033,"midi":51,"time":219.817962,"velocity":0.7244094488188977},{"duration":0.4090904999999907,"midi":27,"time":219.9543255,"velocity":0.7244094488188977},{"duration":0.4090904999999907,"midi":46,"time":219.9543255,"velocity":0.7244094488188977},{"duration":0.4090904999999907,"midi":39,"time":219.9543255,"velocity":0.7244094488188977},{"duration":0.4090904999999907,"midi":27,"time":219.9543255,"velocity":0.7244094488188977},{"duration":0.4090904999999907,"midi":39,"time":219.9543255,"velocity":0.7244094488188977},{"duration":0.4090904999999907,"midi":46,"time":219.9543255,"velocity":0.7244094488188977},{"duration":0.681817499999994,"midi":38,"time":220.363416,"velocity":0.7244094488188977},{"duration":0.681817499999994,"midi":26,"time":220.363416,"velocity":0.7244094488188977},{"duration":0.681817499999994,"midi":45,"time":220.363416,"velocity":0.7244094488188977},{"duration":0.681817499999994,"midi":38,"time":220.363416,"velocity":0.7244094488188977},{"duration":0.681817499999994,"midi":45,"time":220.363416,"velocity":0.7244094488188977},{"duration":0.681817499999994,"midi":26,"time":220.363416,"velocity":0.7244094488188977},{"duration":0.681817499999994,"midi":38,"time":220.90887,"velocity":0.7244094488188977},{"duration":0.681817499999994,"midi":45,"time":220.90887,"velocity":0.7244094488188977},{"duration":0.681817499999994,"midi":38,"time":220.90887,"velocity":0.7244094488188977},{"duration":0.681817499999994,"midi":26,"time":220.90887,"velocity":0.7244094488188977},{"duration":0.681817499999994,"midi":26,"time":220.90887,"velocity":0.7244094488188977},{"duration":0.681817499999994,"midi":45,"time":220.90887,"velocity":0.7244094488188977},{"duration":0.2727270000000033,"midi":57,"time":221.45432399999999,"velocity":0.7244094488188977},{"duration":0.2727270000000033,"midi":50,"time":221.45432399999999,"velocity":0.7244094488188977},{"duration":0.2727270000000033,"midi":38,"time":221.45432399999999,"velocity":0.7244094488188977},{"duration":0.2727270000000033,"midi":50,"time":221.45432399999999,"velocity":0.7244094488188977},{"duration":0.2727270000000033,"midi":57,"time":221.45432399999999,"velocity":0.7244094488188977},{"duration":0.2727270000000033,"midi":38,"time":221.45432399999999,"velocity":0.7244094488188977},{"duration":0.4090904999999907,"midi":38,"time":221.5906875,"velocity":0.7244094488188977},{"duration":0.4090904999999907,"midi":45,"time":221.5906875,"velocity":0.7244094488188977},{"duration":0.4090904999999907,"midi":26,"time":221.5906875,"velocity":0.7244094488188977},{"duration":0.4090904999999907,"midi":45,"time":221.5906875,"velocity":0.7244094488188977},{"duration":0.4090904999999907,"midi":26,"time":221.5906875,"velocity":0.7244094488188977},{"duration":0.4090904999999907,"midi":38,"time":221.5906875,"velocity":0.7244094488188977},{"duration":0.681817499999994,"midi":28,"time":221.999778,"velocity":0.7244094488188977},{"duration":0.681817499999994,"midi":40,"time":221.999778,"velocity":0.7244094488188977},{"duration":0.681817499999994,"midi":28,"time":221.999778,"velocity":0.7244094488188977},{"duration":0.681817499999994,"midi":40,"time":221.999778,"velocity":0.7244094488188977},{"duration":0.681817499999994,"midi":47,"time":221.999778,"velocity":0.7244094488188977},{"duration":0.681817499999994,"midi":47,"time":221.999778,"velocity":0.7244094488188977},{"duration":0.681817499999994,"midi":46,"time":222.545232,"velocity":0.7244094488188977},{"duration":0.681817499999994,"midi":46,"time":222.545232,"velocity":0.7244094488188977},{"duration":0.681817499999994,"midi":39,"time":222.545232,"velocity":0.7244094488188977},{"duration":0.681817499999994,"midi":39,"time":222.545232,"velocity":0.7244094488188977},{"duration":0.681817499999994,"midi":27,"time":222.545232,"velocity":0.7244094488188977},{"duration":0.681817499999994,"midi":27,"time":222.545232,"velocity":0.7244094488188977},{"duration":0.681817499999994,"midi":46,"time":223.090686,"velocity":0.7244094488188977},{"duration":0.681817499999994,"midi":46,"time":223.090686,"velocity":0.7244094488188977},{"duration":0.681817499999994,"midi":27,"time":223.090686,"velocity":0.7244094488188977},{"duration":0.681817499999994,"midi":27,"time":223.090686,"velocity":0.7244094488188977},{"duration":0.681817499999994,"midi":39,"time":223.090686,"velocity":0.7244094488188977},{"duration":0.681817499999994,"midi":39,"time":223.090686,"velocity":0.7244094488188977},{"duration":0.27272699999997485,"midi":58,"time":223.63614,"velocity":0.7244094488188977},{"duration":0.27272699999997485,"midi":39,"time":223.63614,"velocity":0.7244094488188977},{"duration":0.27272699999997485,"midi":51,"time":223.63614,"velocity":0.7244094488188977},{"duration":0.27272699999997485,"midi":39,"time":223.63614,"velocity":0.7244094488188977},{"duration":0.27272699999997485,"midi":51,"time":223.63614,"velocity":0.7244094488188977},{"duration":0.27272699999997485,"midi":58,"time":223.63614,"velocity":0.7244094488188977},{"duration":0.4090904999999907,"midi":46,"time":223.7725035,"velocity":0.7244094488188977},{"duration":0.4090904999999907,"midi":27,"time":223.7725035,"velocity":0.7244094488188977},{"duration":0.4090904999999907,"midi":39,"time":223.7725035,"velocity":0.7244094488188977},{"duration":0.4090904999999907,"midi":27,"time":223.7725035,"velocity":0.7244094488188977},{"duration":0.4090904999999907,"midi":46,"time":223.7725035,"velocity":0.7244094488188977},{"duration":0.4090904999999907,"midi":39,"time":223.7725035,"velocity":0.7244094488188977},{"duration":0.2727270000000033,"midi":39,"time":224.181594,"velocity":0.7244094488188977},{"duration":0.2727270000000033,"midi":51,"time":224.181594,"velocity":0.7244094488188977},{"duration":0.2727270000000033,"midi":58,"time":224.181594,"velocity":0.7244094488188977},{"duration":0.2727270000000033,"midi":58,"time":224.181594,"velocity":0.7244094488188977},{"duration":0.2727270000000033,"midi":51,"time":224.181594,"velocity":0.7244094488188977},{"duration":0.2727270000000033,"midi":39,"time":224.181594,"velocity":0.7244094488188977},{"duration":0.4090904999999907,"midi":39,"time":224.3179575,"velocity":0.7244094488188977},{"duration":0.4090904999999907,"midi":46,"time":224.3179575,"velocity":0.7244094488188977},{"duration":0.4090904999999907,"midi":39,"time":224.3179575,"velocity":0.7244094488188977},{"duration":0.4090904999999907,"midi":27,"time":224.3179575,"velocity":0.7244094488188977},{"duration":0.4090904999999907,"midi":27,"time":224.3179575,"velocity":0.7244094488188977},{"duration":0.4090904999999907,"midi":46,"time":224.3179575,"velocity":0.7244094488188977},{"duration":0.681817499999994,"midi":28,"time":224.727048,"velocity":0.7244094488188977},{"duration":0.681817499999994,"midi":47,"time":224.727048,"velocity":0.7244094488188977},{"duration":0.681817499999994,"midi":47,"time":224.727048,"velocity":0.7244094488188977},{"duration":0.681817499999994,"midi":28,"time":224.727048,"velocity":0.7244094488188977},{"duration":0.681817499999994,"midi":40,"time":224.727048,"velocity":0.7244094488188977},{"duration":0.681817499999994,"midi":40,"time":224.727048,"velocity":0.7244094488188977},{"duration":0.681817499999994,"midi":40,"time":225.272502,"velocity":0.7244094488188977},{"duration":0.681817499999994,"midi":28,"time":225.272502,"velocity":0.7244094488188977},{"duration":0.681817499999994,"midi":40,"time":225.272502,"velocity":0.7244094488188977},{"duration":0.681817499999994,"midi":28,"time":225.272502,"velocity":0.7244094488188977},{"duration":0.681817499999994,"midi":47,"time":225.272502,"velocity":0.7244094488188977},{"duration":0.681817499999994,"midi":47,"time":225.272502,"velocity":0.7244094488188977},{"duration":0.27272699999997485,"midi":52,"time":225.817956,"velocity":0.7244094488188977},{"duration":0.27272699999997485,"midi":59,"time":225.817956,"velocity":0.7244094488188977},{"duration":0.27272699999997485,"midi":52,"time":225.817956,"velocity":0.7244094488188977},{"duration":0.27272699999997485,"midi":59,"time":225.817956,"velocity":0.7244094488188977},{"duration":0.27272699999997485,"midi":40,"time":225.817956,"velocity":0.7244094488188977},{"duration":0.27272699999997485,"midi":40,"time":225.817956,"velocity":0.7244094488188977},{"duration":0.4090904999999907,"midi":40,"time":225.9543195,"velocity":0.7244094488188977},{"duration":0.4090904999999907,"midi":28,"time":225.9543195,"velocity":0.7244094488188977},{"duration":0.4090904999999907,"midi":28,"time":225.9543195,"velocity":0.7244094488188977},{"duration":0.4090904999999907,"midi":47,"time":225.9543195,"velocity":0.7244094488188977},{"duration":0.4090904999999907,"midi":40,"time":225.9543195,"velocity":0.7244094488188977},{"duration":0.4090904999999907,"midi":47,"time":225.9543195,"velocity":0.7244094488188977},{"duration":0.6818175000000224,"midi":36,"time":226.36341,"velocity":0.7244094488188977},{"duration":0.2727270000000033,"midi":54,"time":226.36341,"velocity":0.7244094488188977},{"duration":0.2727270000000033,"midi":35,"time":226.36341,"velocity":0.7244094488188977},{"duration":0.6818175000000224,"midi":55,"time":226.36341,"velocity":0.7244094488188977},{"duration":0.2727270000000033,"midi":35,"time":226.36341,"velocity":0.7244094488188977},{"duration":0.6818175000000224,"midi":55,"time":226.36341,"velocity":0.7244094488188977},{"duration":0.6818175000000224,"midi":36,"time":226.36341,"velocity":0.7244094488188977},{"duration":0.6136357500000145,"midi":59,"time":226.36341,"velocity":0.7244094488188977},{"duration":0.2727270000000033,"midi":54,"time":226.36341,"velocity":0.7244094488188977},{"duration":0.6136357500000145,"midi":59,"time":226.36341,"velocity":0.7244094488188977},{"duration":0.681817499999994,"midi":27,"time":226.908864,"velocity":0.7244094488188977},{"duration":0.681817499999994,"midi":46,"time":226.908864,"velocity":0.7244094488188977},{"duration":0.681817499999994,"midi":46,"time":226.908864,"velocity":0.7244094488188977},{"duration":0.681817499999994,"midi":27,"time":226.908864,"velocity":0.7244094488188977},{"duration":0.681817499999994,"midi":39,"time":226.908864,"velocity":0.7244094488188977},{"duration":0.681817499999994,"midi":39,"time":226.908864,"velocity":0.7244094488188977},{"duration":0.681817499999994,"midi":39,"time":227.454318,"velocity":0.7244094488188977},{"duration":0.681817499999994,"midi":46,"time":227.454318,"velocity":0.7244094488188977},{"duration":0.681817499999994,"midi":39,"time":227.454318,"velocity":0.7244094488188977},{"duration":0.681817499999994,"midi":27,"time":227.454318,"velocity":0.7244094488188977},{"duration":0.681817499999994,"midi":27,"time":227.454318,"velocity":0.7244094488188977},{"duration":0.681817499999994,"midi":46,"time":227.454318,"velocity":0.7244094488188977},{"duration":0.2727270000000033,"midi":39,"time":227.999772,"velocity":0.7244094488188977},{"duration":0.2727270000000033,"midi":51,"time":227.999772,"velocity":0.7244094488188977},{"duration":0.2727270000000033,"midi":39,"time":227.999772,"velocity":0.7244094488188977},{"duration":0.2727270000000033,"midi":58,"time":227.999772,"velocity":0.7244094488188977},{"duration":0.2727270000000033,"midi":51,"time":227.999772,"velocity":0.7244094488188977},{"duration":0.2727270000000033,"midi":58,"time":227.999772,"velocity":0.7244094488188977},{"duration":0.4090904999999907,"midi":46,"time":228.1361355,"velocity":0.7244094488188977},{"duration":0.4090904999999907,"midi":46,"time":228.1361355,"velocity":0.7244094488188977},{"duration":0.4090904999999907,"midi":39,"time":228.1361355,"velocity":0.7244094488188977},{"duration":0.4090904999999907,"midi":39,"time":228.1361355,"velocity":0.7244094488188977},{"duration":0.4090904999999907,"midi":27,"time":228.1361355,"velocity":0.7244094488188977},{"duration":0.4090904999999907,"midi":27,"time":228.1361355,"velocity":0.7244094488188977},{"duration":0.2727270000000033,"midi":39,"time":228.54522599999999,"velocity":0.7244094488188977},{"duration":0.2727270000000033,"midi":51,"time":228.54522599999999,"velocity":0.7244094488188977},{"duration":0.2727270000000033,"midi":51,"time":228.54522599999999,"velocity":0.7244094488188977},{"duration":0.2727270000000033,"midi":58,"time":228.54522599999999,"velocity":0.7244094488188977},{"duration":0.2727270000000033,"midi":58,"time":228.54522599999999,"velocity":0.7244094488188977},{"duration":0.2727270000000033,"midi":39,"time":228.54522599999999,"velocity":0.7244094488188977},{"duration":0.4090904999999907,"midi":46,"time":228.6815895,"velocity":0.7244094488188977},{"duration":0.4090904999999907,"midi":39,"time":228.6815895,"velocity":0.7244094488188977},{"duration":0.4090904999999907,"midi":27,"time":228.6815895,"velocity":0.7244094488188977},{"duration":0.4090904999999907,"midi":46,"time":228.6815895,"velocity":0.7244094488188977},{"duration":0.4090904999999907,"midi":39,"time":228.6815895,"velocity":0.7244094488188977},{"duration":0.4090904999999907,"midi":27,"time":228.6815895,"velocity":0.7244094488188977},{"duration":0.681817499999994,"midi":26,"time":229.09068,"velocity":0.7244094488188977},{"duration":0.681817499999994,"midi":38,"time":229.09068,"velocity":0.7244094488188977},{"duration":0.681817499999994,"midi":38,"time":229.09068,"velocity":0.7244094488188977},{"duration":0.681817499999994,"midi":26,"time":229.09068,"velocity":0.7244094488188977},{"duration":0.681817499999994,"midi":45,"time":229.09068,"velocity":0.7244094488188977},{"duration":0.681817499999994,"midi":45,"time":229.09068,"velocity":0.7244094488188977},{"duration":0.681817499999994,"midi":38,"time":229.636134,"velocity":0.7244094488188977},{"duration":0.681817499999994,"midi":26,"time":229.636134,"velocity":0.7244094488188977},{"duration":0.681817499999994,"midi":26,"time":229.636134,"velocity":0.7244094488188977},{"duration":0.681817499999994,"midi":38,"time":229.636134,"velocity":0.7244094488188977},{"duration":0.681817499999994,"midi":45,"time":229.636134,"velocity":0.7244094488188977},{"duration":0.681817499999994,"midi":45,"time":229.636134,"velocity":0.7244094488188977},{"duration":0.2727270000000033,"midi":50,"time":230.181588,"velocity":0.7244094488188977},{"duration":0.2727270000000033,"midi":57,"time":230.181588,"velocity":0.7244094488188977},{"duration":0.2727270000000033,"midi":38,"time":230.181588,"velocity":0.7244094488188977},{"duration":0.2727270000000033,"midi":57,"time":230.181588,"velocity":0.7244094488188977},{"duration":0.2727270000000033,"midi":50,"time":230.181588,"velocity":0.7244094488188977},{"duration":0.2727270000000033,"midi":38,"time":230.181588,"velocity":0.7244094488188977},{"duration":0.4090905000000191,"midi":38,"time":230.3179515,"velocity":0.7244094488188977},{"duration":0.4090905000000191,"midi":45,"time":230.3179515,"velocity":0.7244094488188977},{"duration":0.4090905000000191,"midi":38,"time":230.3179515,"velocity":0.7244094488188977},{"duration":0.4090905000000191,"midi":45,"time":230.3179515,"velocity":0.7244094488188977},{"duration":0.4090905000000191,"midi":26,"time":230.3179515,"velocity":0.7244094488188977},{"duration":0.4090905000000191,"midi":26,"time":230.3179515,"velocity":0.7244094488188977},{"duration":0.681817499999994,"midi":40,"time":230.727042,"velocity":0.7244094488188977},{"duration":0.681817499999994,"midi":28,"time":230.727042,"velocity":0.7244094488188977},{"duration":0.681817499999994,"midi":47,"time":230.727042,"velocity":0.7244094488188977},{"duration":0.681817499999994,"midi":28,"time":230.727042,"velocity":0.7244094488188977},{"duration":0.681817499999994,"midi":40,"time":230.727042,"velocity":0.7244094488188977},{"duration":0.681817499999994,"midi":47,"time":230.727042,"velocity":0.7244094488188977},{"duration":0.681817499999994,"midi":46,"time":231.272496,"velocity":0.7244094488188977},{"duration":0.681817499999994,"midi":46,"time":231.272496,"velocity":0.7244094488188977},{"duration":0.681817499999994,"midi":39,"time":231.272496,"velocity":0.7244094488188977},{"duration":0.681817499999994,"midi":39,"time":231.272496,"velocity":0.7244094488188977},{"duration":0.681817499999994,"midi":27,"time":231.272496,"velocity":0.7244094488188977},{"duration":0.681817499999994,"midi":27,"time":231.272496,"velocity":0.7244094488188977},{"duration":0.681817499999994,"midi":27,"time":231.81795,"velocity":0.7244094488188977},{"duration":0.681817499999994,"midi":39,"time":231.81795,"velocity":0.7244094488188977},{"duration":0.681817499999994,"midi":46,"time":231.81795,"velocity":0.7244094488188977},{"duration":0.681817499999994,"midi":27,"time":231.81795,"velocity":0.7244094488188977},{"duration":0.681817499999994,"midi":39,"time":231.81795,"velocity":0.7244094488188977},{"duration":0.681817499999994,"midi":46,"time":231.81795,"velocity":0.7244094488188977},{"duration":0.2727270000000033,"midi":58,"time":232.363404,"velocity":0.7244094488188977},{"duration":0.2727270000000033,"midi":51,"time":232.363404,"velocity":0.7244094488188977},{"duration":0.2727270000000033,"midi":39,"time":232.363404,"velocity":0.7244094488188977},{"duration":0.2727270000000033,"midi":58,"time":232.363404,"velocity":0.7244094488188977},{"duration":0.2727270000000033,"midi":51,"time":232.363404,"velocity":0.7244094488188977},{"duration":0.2727270000000033,"midi":39,"time":232.363404,"velocity":0.7244094488188977},{"duration":0.4090905000000191,"midi":27,"time":232.4997675,"velocity":0.7244094488188977},{"duration":0.4090905000000191,"midi":46,"time":232.4997675,"velocity":0.7244094488188977},{"duration":0.4090905000000191,"midi":39,"time":232.4997675,"velocity":0.7244094488188977},{"duration":0.4090905000000191,"midi":27,"time":232.4997675,"velocity":0.7244094488188977},{"duration":0.4090905000000191,"midi":39,"time":232.4997675,"velocity":0.7244094488188977},{"duration":0.4090905000000191,"midi":46,"time":232.4997675,"velocity":0.7244094488188977},{"duration":0.27272699999997485,"midi":39,"time":232.908858,"velocity":0.7244094488188977},{"duration":0.27272699999997485,"midi":39,"time":232.908858,"velocity":0.7244094488188977},{"duration":0.27272699999997485,"midi":51,"time":232.908858,"velocity":0.7244094488188977},{"duration":0.27272699999997485,"midi":51,"time":232.908858,"velocity":0.7244094488188977},{"duration":0.27272699999997485,"midi":58,"time":232.908858,"velocity":0.7244094488188977},{"duration":0.27272699999997485,"midi":58,"time":232.908858,"velocity":0.7244094488188977},{"duration":0.4090904999999907,"midi":27,"time":233.0452215,"velocity":0.7244094488188977},{"duration":0.4090904999999907,"midi":27,"time":233.0452215,"velocity":0.7244094488188977},{"duration":0.4090904999999907,"midi":39,"time":233.0452215,"velocity":0.7244094488188977},{"duration":0.4090904999999907,"midi":46,"time":233.0452215,"velocity":0.7244094488188977},{"duration":0.4090904999999907,"midi":46,"time":233.0452215,"velocity":0.7244094488188977},{"duration":0.4090904999999907,"midi":39,"time":233.0452215,"velocity":0.7244094488188977},{"duration":0.6818175000000224,"midi":47,"time":233.454312,"velocity":0.7244094488188977},{"duration":0.6818175000000224,"midi":40,"time":233.454312,"velocity":0.7244094488188977},{"duration":0.6818175000000224,"midi":28,"time":233.454312,"velocity":0.7244094488188977},{"duration":0.6818175000000224,"midi":40,"time":233.454312,"velocity":0.7244094488188977},{"duration":0.6818175000000224,"midi":47,"time":233.454312,"velocity":0.7244094488188977},{"duration":0.6818175000000224,"midi":28,"time":233.454312,"velocity":0.7244094488188977},{"duration":0.681817499999994,"midi":47,"time":233.999766,"velocity":0.7244094488188977},{"duration":0.681817499999994,"midi":47,"time":233.999766,"velocity":0.7244094488188977},{"duration":0.681817499999994,"midi":40,"time":233.999766,"velocity":0.7244094488188977},{"duration":0.681817499999994,"midi":28,"time":233.999766,"velocity":0.7244094488188977},{"duration":0.681817499999994,"midi":28,"time":233.999766,"velocity":0.7244094488188977},{"duration":0.681817499999994,"midi":40,"time":233.999766,"velocity":0.7244094488188977},{"duration":0.2727270000000033,"midi":59,"time":234.54522,"velocity":0.7244094488188977},{"duration":0.2727270000000033,"midi":40,"time":234.54522,"velocity":0.7244094488188977},{"duration":0.2727270000000033,"midi":52,"time":234.54522,"velocity":0.7244094488188977},{"duration":0.2727270000000033,"midi":40,"time":234.54522,"velocity":0.7244094488188977},{"duration":0.2727270000000033,"midi":59,"time":234.54522,"velocity":0.7244094488188977},{"duration":0.2727270000000033,"midi":52,"time":234.54522,"velocity":0.7244094488188977},{"duration":0.4090905000000191,"midi":28,"time":234.6815835,"velocity":0.7244094488188977},{"duration":0.4090905000000191,"midi":47,"time":234.6815835,"velocity":0.7244094488188977},{"duration":0.4090905000000191,"midi":28,"time":234.6815835,"velocity":0.7244094488188977},{"duration":0.4090905000000191,"midi":47,"time":234.6815835,"velocity":0.7244094488188977},{"duration":0.4090905000000191,"midi":40,"time":234.6815835,"velocity":0.7244094488188977},{"duration":0.4090905000000191,"midi":40,"time":234.6815835,"velocity":0.7244094488188977},{"duration":0.5454539999999781,"midi":59,"time":235.090674,"velocity":0.7244094488188977},{"duration":0.681817499999994,"midi":36,"time":235.090674,"velocity":0.7244094488188977},{"duration":0.681817499999994,"midi":55,"time":235.090674,"velocity":0.7244094488188977},{"duration":0.2727270000000033,"midi":35,"time":235.090674,"velocity":0.7244094488188977},{"duration":0.681817499999994,"midi":55,"time":235.090674,"velocity":0.7244094488188977},{"duration":0.2727270000000033,"midi":35,"time":235.090674,"velocity":0.7244094488188977},{"duration":0.5454539999999781,"midi":59,"time":235.090674,"velocity":0.7244094488188977},{"duration":0.2727270000000033,"midi":54,"time":235.090674,"velocity":0.7244094488188977},{"duration":0.681817499999994,"midi":36,"time":235.090674,"velocity":0.7244094488188977},{"duration":0.6818175000000224,"midi":39,"time":235.63612799999999,"velocity":0.7244094488188977},{"duration":0.6818175000000224,"midi":46,"time":235.63612799999999,"velocity":0.7244094488188977},{"duration":0.6818175000000224,"midi":27,"time":235.63612799999999,"velocity":0.7244094488188977},{"duration":0.6818175000000224,"midi":46,"time":235.63612799999999,"velocity":0.7244094488188977},{"duration":0.6818175000000224,"midi":27,"time":235.63612799999999,"velocity":0.7244094488188977},{"duration":0.6818175000000224,"midi":39,"time":235.63612799999999,"velocity":0.7244094488188977},{"duration":0.681817499999994,"midi":46,"time":236.181582,"velocity":0.7244094488188977},{"duration":0.681817499999994,"midi":27,"time":236.181582,"velocity":0.7244094488188977},{"duration":0.681817499999994,"midi":27,"time":236.181582,"velocity":0.7244094488188977},{"duration":0.681817499999994,"midi":46,"time":236.181582,"velocity":0.7244094488188977},{"duration":0.681817499999994,"midi":39,"time":236.181582,"velocity":0.7244094488188977},{"duration":0.681817499999994,"midi":39,"time":236.181582,"velocity":0.7244094488188977},{"duration":0.2727270000000033,"midi":58,"time":236.727036,"velocity":0.7244094488188977},{"duration":0.2727270000000033,"midi":58,"time":236.727036,"velocity":0.7244094488188977},{"duration":0.2727270000000033,"midi":51,"time":236.727036,"velocity":0.7244094488188977},{"duration":0.2727270000000033,"midi":39,"time":236.727036,"velocity":0.7244094488188977},{"duration":0.2727270000000033,"midi":51,"time":236.727036,"velocity":0.7244094488188977},{"duration":0.2727270000000033,"midi":39,"time":236.727036,"velocity":0.7244094488188977},{"duration":0.4090905000000191,"midi":39,"time":236.86339949999999,"velocity":0.7244094488188977},{"duration":0.4090905000000191,"midi":27,"time":236.86339949999999,"velocity":0.7244094488188977},{"duration":0.4090905000000191,"midi":39,"time":236.86339949999999,"velocity":0.7244094488188977},{"duration":0.4090905000000191,"midi":46,"time":236.86339949999999,"velocity":0.7244094488188977},{"duration":0.4090905000000191,"midi":27,"time":236.86339949999999,"velocity":0.7244094488188977},{"duration":0.4090905000000191,"midi":46,"time":236.86339949999999,"velocity":0.7244094488188977},{"duration":0.2727270000000033,"midi":51,"time":237.27249,"velocity":0.7244094488188977},{"duration":0.2727270000000033,"midi":39,"time":237.27249,"velocity":0.7244094488188977},{"duration":0.2727270000000033,"midi":58,"time":237.27249,"velocity":0.7244094488188977},{"duration":0.2727270000000033,"midi":58,"time":237.27249,"velocity":0.7244094488188977},{"duration":0.2727270000000033,"midi":51,"time":237.27249,"velocity":0.7244094488188977},{"duration":0.2727270000000033,"midi":39,"time":237.27249,"velocity":0.7244094488188977},{"duration":0.4090905000000191,"midi":46,"time":237.4088535,"velocity":0.7244094488188977},{"duration":0.4090905000000191,"midi":46,"time":237.4088535,"velocity":0.7244094488188977},{"duration":0.4090905000000191,"midi":39,"time":237.4088535,"velocity":0.7244094488188977},{"duration":0.4090905000000191,"midi":27,"time":237.4088535,"velocity":0.7244094488188977},{"duration":0.4090905000000191,"midi":39,"time":237.4088535,"velocity":0.7244094488188977},{"duration":0.4090905000000191,"midi":27,"time":237.4088535,"velocity":0.7244094488188977},{"duration":0.681817499999994,"midi":26,"time":237.817944,"velocity":0.7244094488188977},{"duration":0.681817499999994,"midi":38,"time":237.817944,"velocity":0.7244094488188977},{"duration":0.681817499999994,"midi":38,"time":237.817944,"velocity":0.7244094488188977},{"duration":0.681817499999994,"midi":45,"time":237.817944,"velocity":0.7244094488188977},{"duration":0.681817499999994,"midi":26,"time":237.817944,"velocity":0.7244094488188977},{"duration":0.681817499999994,"midi":45,"time":237.817944,"velocity":0.7244094488188977},{"duration":0.681817499999994,"midi":45,"time":238.363398,"velocity":0.7244094488188977},{"duration":0.681817499999994,"midi":26,"time":238.363398,"velocity":0.7244094488188977},{"duration":0.681817499999994,"midi":45,"time":238.363398,"velocity":0.7244094488188977},{"duration":0.681817499999994,"midi":38,"time":238.363398,"velocity":0.7244094488188977},{"duration":0.681817499999994,"midi":26,"time":238.363398,"velocity":0.7244094488188977},{"duration":0.681817499999994,"midi":38,"time":238.363398,"velocity":0.7244094488188977},{"duration":0.2727270000000033,"midi":38,"time":238.908852,"velocity":0.7244094488188977},{"duration":0.2727270000000033,"midi":57,"time":238.908852,"velocity":0.7244094488188977},{"duration":0.2727270000000033,"midi":38,"time":238.908852,"velocity":0.7244094488188977},{"duration":0.2727270000000033,"midi":50,"time":238.908852,"velocity":0.7244094488188977},{"duration":0.2727270000000033,"midi":50,"time":238.908852,"velocity":0.7244094488188977},{"duration":0.2727270000000033,"midi":57,"time":238.908852,"velocity":0.7244094488188977},{"duration":0.4090905000000191,"midi":45,"time":239.04521549999998,"velocity":0.7244094488188977},{"duration":0.4090905000000191,"midi":38,"time":239.04521549999998,"velocity":0.7244094488188977},{"duration":0.4090905000000191,"midi":38,"time":239.04521549999998,"velocity":0.7244094488188977},{"duration":0.4090905000000191,"midi":26,"time":239.04521549999998,"velocity":0.7244094488188977},{"duration":0.4090905000000191,"midi":26,"time":239.04521549999998,"velocity":0.7244094488188977},{"duration":0.4090905000000191,"midi":45,"time":239.04521549999998,"velocity":0.7244094488188977},{"duration":0.681817499999994,"midi":40,"time":239.454306,"velocity":0.7244094488188977},{"duration":0.681817499999994,"midi":47,"time":239.454306,"velocity":0.7244094488188977},{"duration":0.681817499999994,"midi":28,"time":239.454306,"velocity":0.7244094488188977},{"duration":0.681817499999994,"midi":40,"time":239.454306,"velocity":0.7244094488188977},{"duration":0.681817499999994,"midi":47,"time":239.454306,"velocity":0.7244094488188977},{"duration":0.681817499999994,"midi":28,"time":239.454306,"velocity":0.7244094488188977},{"duration":0.681817499999994,"midi":46,"time":239.99976,"velocity":0.7244094488188977},{"duration":0.681817499999994,"midi":27,"time":239.99976,"velocity":0.7244094488188977},{"duration":0.681817499999994,"midi":39,"time":239.99976,"velocity":0.7244094488188977},{"duration":0.681817499999994,"midi":27,"time":239.99976,"velocity":0.7244094488188977},{"duration":0.681817499999994,"midi":39,"time":239.99976,"velocity":0.7244094488188977},{"duration":0.681817499999994,"midi":46,"time":239.99976,"velocity":0.7244094488188977},{"duration":0.6818175000000224,"midi":46,"time":240.545214,"velocity":0.7244094488188977},{"duration":0.6818175000000224,"midi":27,"time":240.545214,"velocity":0.7244094488188977},{"duration":0.6818175000000224,"midi":27,"time":240.545214,"velocity":0.7244094488188977},{"duration":0.6818175000000224,"midi":39,"time":240.545214,"velocity":0.7244094488188977},{"duration":0.6818175000000224,"midi":39,"time":240.545214,"velocity":0.7244094488188977},{"duration":0.6818175000000224,"midi":46,"time":240.545214,"velocity":0.7244094488188977},{"duration":0.2727270000000033,"midi":39,"time":241.090668,"velocity":0.7244094488188977},{"duration":0.2727270000000033,"midi":58,"time":241.090668,"velocity":0.7244094488188977},{"duration":0.2727270000000033,"midi":51,"time":241.090668,"velocity":0.7244094488188977},{"duration":0.2727270000000033,"midi":51,"time":241.090668,"velocity":0.7244094488188977},{"duration":0.2727270000000033,"midi":39,"time":241.090668,"velocity":0.7244094488188977},{"duration":0.2727270000000033,"midi":58,"time":241.090668,"velocity":0.7244094488188977},{"duration":0.4090904999999907,"midi":27,"time":241.2270315,"velocity":0.7244094488188977},{"duration":0.4090904999999907,"midi":39,"time":241.2270315,"velocity":0.7244094488188977},{"duration":0.4090904999999907,"midi":27,"time":241.2270315,"velocity":0.7244094488188977},{"duration":0.4090904999999907,"midi":46,"time":241.2270315,"velocity":0.7244094488188977},{"duration":0.4090904999999907,"midi":39,"time":241.2270315,"velocity":0.7244094488188977},{"duration":0.4090904999999907,"midi":46,"time":241.2270315,"velocity":0.7244094488188977},{"duration":0.2727270000000033,"midi":39,"time":241.636122,"velocity":0.7244094488188977},{"duration":0.2727270000000033,"midi":51,"time":241.636122,"velocity":0.7244094488188977},{"duration":0.2727270000000033,"midi":58,"time":241.636122,"velocity":0.7244094488188977},{"duration":0.2727270000000033,"midi":51,"time":241.636122,"velocity":0.7244094488188977},{"duration":0.2727270000000033,"midi":58,"time":241.636122,"velocity":0.7244094488188977},{"duration":0.2727270000000033,"midi":39,"time":241.636122,"velocity":0.7244094488188977},{"duration":0.4090905000000191,"midi":39,"time":241.7724855,"velocity":0.7244094488188977},{"duration":0.4090905000000191,"midi":46,"time":241.7724855,"velocity":0.7244094488188977},{"duration":0.4090905000000191,"midi":27,"time":241.7724855,"velocity":0.7244094488188977},{"duration":0.4090905000000191,"midi":46,"time":241.7724855,"velocity":0.7244094488188977},{"duration":0.4090905000000191,"midi":27,"time":241.7724855,"velocity":0.7244094488188977},{"duration":0.4090905000000191,"midi":39,"time":241.7724855,"velocity":0.7244094488188977},{"duration":0.681817499999994,"midi":28,"time":242.181576,"velocity":0.7244094488188977},{"duration":0.681817499999994,"midi":40,"time":242.181576,"velocity":0.7244094488188977},{"duration":0.681817499999994,"midi":40,"time":242.181576,"velocity":0.7244094488188977},{"duration":0.681817499999994,"midi":28,"time":242.181576,"velocity":0.7244094488188977},{"duration":0.681817499999994,"midi":47,"time":242.181576,"velocity":0.7244094488188977},{"duration":0.681817499999994,"midi":47,"time":242.181576,"velocity":0.7244094488188977},{"duration":0.6818175000000224,"midi":47,"time":242.72702999999998,"velocity":0.7244094488188977},{"duration":0.6818175000000224,"midi":47,"time":242.72702999999998,"velocity":0.7244094488188977},{"duration":0.6818175000000224,"midi":28,"time":242.72702999999998,"velocity":0.7244094488188977},{"duration":0.6818175000000224,"midi":28,"time":242.72702999999998,"velocity":0.7244094488188977},{"duration":0.6818175000000224,"midi":40,"time":242.72702999999998,"velocity":0.7244094488188977},{"duration":0.6818175000000224,"midi":40,"time":242.72702999999998,"velocity":0.7244094488188977},{"duration":0.2727270000000033,"midi":40,"time":243.272484,"velocity":0.7244094488188977},{"duration":0.2727270000000033,"midi":52,"time":243.272484,"velocity":0.7244094488188977},{"duration":0.2727270000000033,"midi":52,"time":243.272484,"velocity":0.7244094488188977},{"duration":0.2727270000000033,"midi":59,"time":243.272484,"velocity":0.7244094488188977},{"duration":0.2727270000000033,"midi":59,"time":243.272484,"velocity":0.7244094488188977},{"duration":0.2727270000000033,"midi":40,"time":243.272484,"velocity":0.7244094488188977},{"duration":0.4090904999999907,"midi":40,"time":243.4088475,"velocity":0.7244094488188977},{"duration":0.4090904999999907,"midi":28,"time":243.4088475,"velocity":0.7244094488188977},{"duration":0.4090904999999907,"midi":28,"time":243.4088475,"velocity":0.7244094488188977},{"duration":0.4090904999999907,"midi":40,"time":243.4088475,"velocity":0.7244094488188977},{"duration":0.4090904999999907,"midi":47,"time":243.4088475,"velocity":0.7244094488188977},{"duration":0.4090904999999907,"midi":47,"time":243.4088475,"velocity":0.7244094488188977},{"duration":0.613635749999986,"midi":54,"time":243.817938,"velocity":0.7244094488188977},{"duration":0.2727270000000033,"midi":49,"time":243.817938,"velocity":0.7244094488188977},{"duration":0.681817499999994,"midi":50,"time":243.817938,"velocity":0.7244094488188977},{"duration":0.2727270000000033,"midi":30,"time":243.817938,"velocity":0.7244094488188977},{"duration":0.681817499999994,"midi":31,"time":243.817938,"velocity":0.7244094488188977},{"duration":0.2727270000000033,"midi":49,"time":243.817938,"velocity":0.7244094488188977},{"duration":0.2727270000000033,"midi":30,"time":243.817938,"velocity":0.7244094488188977},{"duration":0.681817499999994,"midi":50,"time":243.817938,"velocity":0.7244094488188977},{"duration":0.613635749999986,"midi":54,"time":243.817938,"velocity":0.7244094488188977},{"duration":0.681817499999994,"midi":31,"time":243.817938,"velocity":0.7244094488188977},{"duration":0.681817499999994,"midi":46,"time":244.363392,"velocity":0.7244094488188977},{"duration":0.681817499999994,"midi":46,"time":244.363392,"velocity":0.7244094488188977},{"duration":0.681817499999994,"midi":39,"time":244.363392,"velocity":0.7244094488188977},{"duration":0.681817499999994,"midi":27,"time":244.363392,"velocity":0.7244094488188977},{"duration":0.681817499999994,"midi":39,"time":244.363392,"velocity":0.7244094488188977},{"duration":0.681817499999994,"midi":27,"time":244.363392,"velocity":0.7244094488188977},{"duration":0.681817499999994,"midi":39,"time":244.908846,"velocity":0.7244094488188977},{"duration":0.681817499999994,"midi":27,"time":244.908846,"velocity":0.7244094488188977},{"duration":0.681817499999994,"midi":46,"time":244.908846,"velocity":0.7244094488188977},{"duration":0.681817499999994,"midi":46,"time":244.908846,"velocity":0.7244094488188977},{"duration":0.681817499999994,"midi":39,"time":244.908846,"velocity":0.7244094488188977},{"duration":0.681817499999994,"midi":27,"time":244.908846,"velocity":0.7244094488188977},{"duration":0.2727270000000033,"midi":58,"time":245.4543,"velocity":0.7244094488188977},{"duration":0.2727270000000033,"midi":51,"time":245.4543,"velocity":0.7244094488188977},{"duration":0.2727270000000033,"midi":58,"time":245.4543,"velocity":0.7244094488188977},{"duration":0.2727270000000033,"midi":39,"time":245.4543,"velocity":0.7244094488188977},{"duration":0.2727270000000033,"midi":39,"time":245.4543,"velocity":0.7244094488188977},{"duration":0.2727270000000033,"midi":51,"time":245.4543,"velocity":0.7244094488188977},{"duration":0.4090904999999907,"midi":27,"time":245.5906635,"velocity":0.7244094488188977},{"duration":0.4090904999999907,"midi":39,"time":245.5906635,"velocity":0.7244094488188977},{"duration":0.4090904999999907,"midi":46,"time":245.5906635,"velocity":0.7244094488188977},{"duration":0.4090904999999907,"midi":46,"time":245.5906635,"velocity":0.7244094488188977},{"duration":0.4090904999999907,"midi":27,"time":245.5906635,"velocity":0.7244094488188977},{"duration":0.4090904999999907,"midi":39,"time":245.5906635,"velocity":0.7244094488188977},{"duration":0.2727270000000033,"midi":39,"time":245.999754,"velocity":0.7244094488188977},{"duration":0.2727270000000033,"midi":58,"time":245.999754,"velocity":0.7244094488188977},{"duration":0.2727270000000033,"midi":51,"time":245.999754,"velocity":0.7244094488188977},{"duration":0.2727270000000033,"midi":39,"time":245.999754,"velocity":0.7244094488188977},{"duration":0.2727270000000033,"midi":58,"time":245.999754,"velocity":0.7244094488188977},{"duration":0.2727270000000033,"midi":51,"time":245.999754,"velocity":0.7244094488188977},{"duration":0.4090904999999907,"midi":39,"time":246.1361175,"velocity":0.7244094488188977},{"duration":0.4090904999999907,"midi":27,"time":246.1361175,"velocity":0.7244094488188977},{"duration":0.4090904999999907,"midi":46,"time":246.1361175,"velocity":0.7244094488188977},{"duration":0.4090904999999907,"midi":39,"time":246.1361175,"velocity":0.7244094488188977},{"duration":0.4090904999999907,"midi":27,"time":246.1361175,"velocity":0.7244094488188977},{"duration":0.4090904999999907,"midi":46,"time":246.1361175,"velocity":0.7244094488188977},{"duration":0.681817499999994,"midi":45,"time":246.545208,"velocity":0.7244094488188977},{"duration":0.681817499999994,"midi":38,"time":246.545208,"velocity":0.7244094488188977},{"duration":0.681817499999994,"midi":45,"time":246.545208,"velocity":0.7244094488188977},{"duration":0.681817499999994,"midi":26,"time":246.545208,"velocity":0.7244094488188977},{"duration":0.681817499999994,"midi":38,"time":246.545208,"velocity":0.7244094488188977},{"duration":0.681817499999994,"midi":26,"time":246.545208,"velocity":0.7244094488188977},{"duration":0.681817499999994,"midi":26,"time":247.090662,"velocity":0.7244094488188977},{"duration":0.681817499999994,"midi":45,"time":247.090662,"velocity":0.7244094488188977},{"duration":0.681817499999994,"midi":38,"time":247.090662,"velocity":0.7244094488188977},{"duration":0.681817499999994,"midi":45,"time":247.090662,"velocity":0.7244094488188977},{"duration":0.681817499999994,"midi":38,"time":247.090662,"velocity":0.7244094488188977},{"duration":0.681817499999994,"midi":26,"time":247.090662,"velocity":0.7244094488188977},{"duration":0.2727270000000033,"midi":50,"time":247.636116,"velocity":0.7244094488188977},{"duration":0.2727270000000033,"midi":38,"time":247.636116,"velocity":0.7244094488188977},{"duration":0.2727270000000033,"midi":57,"time":247.636116,"velocity":0.7244094488188977},{"duration":0.2727270000000033,"midi":38,"time":247.636116,"velocity":0.7244094488188977},{"duration":0.2727270000000033,"midi":57,"time":247.636116,"velocity":0.7244094488188977},{"duration":0.2727270000000033,"midi":50,"time":247.636116,"velocity":0.7244094488188977},{"duration":0.4090904999999907,"midi":38,"time":247.7724795,"velocity":0.7244094488188977},{"duration":0.4090904999999907,"midi":45,"time":247.7724795,"velocity":0.7244094488188977},{"duration":0.4090904999999907,"midi":26,"time":247.7724795,"velocity":0.7244094488188977},{"duration":0.4090904999999907,"midi":45,"time":247.7724795,"velocity":0.7244094488188977},{"duration":0.4090904999999907,"midi":38,"time":247.7724795,"velocity":0.7244094488188977},{"duration":0.4090904999999907,"midi":26,"time":247.7724795,"velocity":0.7244094488188977},{"duration":0.681817499999994,"midi":40,"time":248.18157,"velocity":0.7244094488188977},{"duration":0.681817499999994,"midi":40,"time":248.18157,"velocity":0.7244094488188977},{"duration":0.681817499999994,"midi":28,"time":248.18157,"velocity":0.7244094488188977},{"duration":0.681817499999994,"midi":47,"time":248.18157,"velocity":0.7244094488188977},{"duration":0.681817499999994,"midi":47,"time":248.18157,"velocity":0.7244094488188977},{"duration":0.681817499999994,"midi":28,"time":248.18157,"velocity":0.7244094488188977},{"duration":0.681817499999994,"midi":39,"time":248.727024,"velocity":0.7244094488188977},{"duration":0.681817499999994,"midi":46,"time":248.727024,"velocity":0.7244094488188977},{"duration":0.681817499999994,"midi":27,"time":248.727024,"velocity":0.7244094488188977},{"duration":0.681817499999994,"midi":46,"time":248.727024,"velocity":0.7244094488188977},{"duration":0.681817499999994,"midi":39,"time":248.727024,"velocity":0.7244094488188977},{"duration":0.681817499999994,"midi":27,"time":248.727024,"velocity":0.7244094488188977},{"duration":0.681817499999994,"midi":27,"time":249.272478,"velocity":0.7244094488188977},{"duration":0.681817499999994,"midi":39,"time":249.272478,"velocity":0.7244094488188977},{"duration":0.681817499999994,"midi":46,"time":249.272478,"velocity":0.7244094488188977},{"duration":0.681817499999994,"midi":46,"time":249.272478,"velocity":0.7244094488188977},{"duration":0.681817499999994,"midi":39,"time":249.272478,"velocity":0.7244094488188977},{"duration":0.681817499999994,"midi":27,"time":249.272478,"velocity":0.7244094488188977},{"duration":0.2727270000000033,"midi":39,"time":249.81793199999998,"velocity":0.7244094488188977},{"duration":0.2727270000000033,"midi":51,"time":249.81793199999998,"velocity":0.7244094488188977},{"duration":0.2727270000000033,"midi":39,"time":249.81793199999998,"velocity":0.7244094488188977},{"duration":0.2727270000000033,"midi":58,"time":249.81793199999998,"velocity":0.7244094488188977},{"duration":0.2727270000000033,"midi":51,"time":249.81793199999998,"velocity":0.7244094488188977},{"duration":0.2727270000000033,"midi":58,"time":249.81793199999998,"velocity":0.7244094488188977},{"duration":0.4090904999999907,"midi":39,"time":249.9542955,"velocity":0.7244094488188977},{"duration":0.4090904999999907,"midi":46,"time":249.9542955,"velocity":0.7244094488188977},{"duration":0.4090904999999907,"midi":27,"time":249.9542955,"velocity":0.7244094488188977},{"duration":0.4090904999999907,"midi":27,"time":249.9542955,"velocity":0.7244094488188977},{"duration":0.4090904999999907,"midi":39,"time":249.9542955,"velocity":0.7244094488188977},{"duration":0.4090904999999907,"midi":46,"time":249.9542955,"velocity":0.7244094488188977},{"duration":0.2727270000000033,"midi":39,"time":250.363386,"velocity":0.7244094488188977},{"duration":0.2727270000000033,"midi":58,"time":250.363386,"velocity":0.7244094488188977},{"duration":0.2727270000000033,"midi":39,"time":250.363386,"velocity":0.7244094488188977},{"duration":0.2727270000000033,"midi":51,"time":250.363386,"velocity":0.7244094488188977},{"duration":0.2727270000000033,"midi":51,"time":250.363386,"velocity":0.7244094488188977},{"duration":0.2727270000000033,"midi":58,"time":250.363386,"velocity":0.7244094488188977},{"duration":0.4090904999999907,"midi":46,"time":250.4997495,"velocity":0.7244094488188977},{"duration":0.4090904999999907,"midi":27,"time":250.4997495,"velocity":0.7244094488188977},{"duration":0.4090904999999907,"midi":27,"time":250.4997495,"velocity":0.7244094488188977},{"duration":0.4090904999999907,"midi":39,"time":250.4997495,"velocity":0.7244094488188977},{"duration":0.4090904999999907,"midi":39,"time":250.4997495,"velocity":0.7244094488188977},{"duration":0.4090904999999907,"midi":46,"time":250.4997495,"velocity":0.7244094488188977},{"duration":0.681817499999994,"midi":40,"time":250.90884,"velocity":0.7244094488188977},{"duration":0.681817499999994,"midi":28,"time":250.90884,"velocity":0.7244094488188977},{"duration":0.681817499999994,"midi":28,"time":250.90884,"velocity":0.7244094488188977},{"duration":0.681817499999994,"midi":47,"time":250.90884,"velocity":0.7244094488188977},{"duration":0.681817499999994,"midi":47,"time":250.90884,"velocity":0.7244094488188977},{"duration":0.681817499999994,"midi":40,"time":250.90884,"velocity":0.7244094488188977},{"duration":0.681817499999994,"midi":40,"time":251.454294,"velocity":0.7244094488188977},{"duration":0.681817499999994,"midi":28,"time":251.454294,"velocity":0.7244094488188977},{"duration":0.681817499999994,"midi":40,"time":251.454294,"velocity":0.7244094488188977},{"duration":0.681817499999994,"midi":47,"time":251.454294,"velocity":0.7244094488188977},{"duration":0.681817499999994,"midi":47,"time":251.454294,"velocity":0.7244094488188977},{"duration":0.681817499999994,"midi":28,"time":251.454294,"velocity":0.7244094488188977},{"duration":0.27272699999997485,"midi":52,"time":251.999748,"velocity":0.7244094488188977},{"duration":0.27272699999997485,"midi":40,"time":251.999748,"velocity":0.7244094488188977},{"duration":0.27272699999997485,"midi":52,"time":251.999748,"velocity":0.7244094488188977},{"duration":0.27272699999997485,"midi":59,"time":251.999748,"velocity":0.7244094488188977},{"duration":0.27272699999997485,"midi":40,"time":251.999748,"velocity":0.7244094488188977},{"duration":0.27272699999997485,"midi":59,"time":251.999748,"velocity":0.7244094488188977},{"duration":0.4090904999999907,"midi":40,"time":252.1361115,"velocity":0.7244094488188977},{"duration":0.4090904999999907,"midi":47,"time":252.1361115,"velocity":0.7244094488188977},{"duration":0.4090904999999907,"midi":40,"time":252.1361115,"velocity":0.7244094488188977},{"duration":0.4090904999999907,"midi":28,"time":252.1361115,"velocity":0.7244094488188977},{"duration":0.4090904999999907,"midi":28,"time":252.1361115,"velocity":0.7244094488188977},{"duration":0.4090904999999907,"midi":47,"time":252.1361115,"velocity":0.7244094488188977},{"duration":0.2727270000000033,"midi":35,"time":252.545202,"velocity":0.7244094488188977},{"duration":0.5454540000000065,"midi":59,"time":252.545202,"velocity":0.7244094488188977},{"duration":0.5454540000000065,"midi":59,"time":252.545202,"velocity":0.7244094488188977},{"duration":0.6818175000000224,"midi":55,"time":252.545202,"velocity":0.7244094488188977},{"duration":0.6818175000000224,"midi":36,"time":252.545202,"velocity":0.7244094488188977},{"duration":0.2727270000000033,"midi":35,"time":252.545202,"velocity":0.7244094488188977},{"duration":0.6818175000000224,"midi":55,"time":252.545202,"velocity":0.7244094488188977},{"duration":0.2727270000000033,"midi":54,"time":252.545202,"velocity":0.7244094488188977},{"duration":0.6818175000000224,"midi":36,"time":252.545202,"velocity":0.7244094488188977},{"duration":0.681817499999994,"midi":27,"time":253.090656,"velocity":0.7244094488188977},{"duration":0.681817499999994,"midi":27,"time":253.090656,"velocity":0.7244094488188977},{"duration":0.681817499999994,"midi":39,"time":253.090656,"velocity":0.7244094488188977},{"duration":0.681817499999994,"midi":39,"time":253.090656,"velocity":0.7244094488188977},{"duration":0.681817499999994,"midi":46,"time":253.090656,"velocity":0.7244094488188977},{"duration":0.681817499999994,"midi":46,"time":253.090656,"velocity":0.7244094488188977},{"duration":0.681817499999994,"midi":46,"time":253.63611,"velocity":0.7244094488188977},{"duration":0.681817499999994,"midi":39,"time":253.63611,"velocity":0.7244094488188977},{"duration":0.681817499999994,"midi":39,"time":253.63611,"velocity":0.7244094488188977},{"duration":0.681817499999994,"midi":27,"time":253.63611,"velocity":0.7244094488188977},{"duration":0.681817499999994,"midi":27,"time":253.63611,"velocity":0.7244094488188977},{"duration":0.681817499999994,"midi":46,"time":253.63611,"velocity":0.7244094488188977},{"duration":0.27272699999997485,"midi":39,"time":254.181564,"velocity":0.7244094488188977},{"duration":0.27272699999997485,"midi":58,"time":254.181564,"velocity":0.7244094488188977},{"duration":0.27272699999997485,"midi":51,"time":254.181564,"velocity":0.7244094488188977},{"duration":0.27272699999997485,"midi":51,"time":254.181564,"velocity":0.7244094488188977},{"duration":0.27272699999997485,"midi":58,"time":254.181564,"velocity":0.7244094488188977},{"duration":0.27272699999997485,"midi":39,"time":254.181564,"velocity":0.7244094488188977},{"duration":0.4090904999999907,"midi":27,"time":254.3179275,"velocity":0.7244094488188977},{"duration":0.4090904999999907,"midi":46,"time":254.3179275,"velocity":0.7244094488188977},{"duration":0.4090904999999907,"midi":39,"time":254.3179275,"velocity":0.7244094488188977},{"duration":0.4090904999999907,"midi":27,"time":254.3179275,"velocity":0.7244094488188977},{"duration":0.4090904999999907,"midi":46,"time":254.3179275,"velocity":0.7244094488188977},{"duration":0.4090904999999907,"midi":39,"time":254.3179275,"velocity":0.7244094488188977},{"duration":0.2727270000000033,"midi":39,"time":254.727018,"velocity":0.7244094488188977},{"duration":0.2727270000000033,"midi":39,"time":254.727018,"velocity":0.7244094488188977},{"duration":0.2727270000000033,"midi":51,"time":254.727018,"velocity":0.7244094488188977},{"duration":0.2727270000000033,"midi":58,"time":254.727018,"velocity":0.7244094488188977},{"duration":0.2727270000000033,"midi":51,"time":254.727018,"velocity":0.7244094488188977},{"duration":0.2727270000000033,"midi":58,"time":254.727018,"velocity":0.7244094488188977},{"duration":0.4090904999999907,"midi":46,"time":254.8633815,"velocity":0.7244094488188977},{"duration":0.4090904999999907,"midi":39,"time":254.8633815,"velocity":0.7244094488188977},{"duration":0.4090904999999907,"midi":27,"time":254.8633815,"velocity":0.7244094488188977},{"duration":0.4090904999999907,"midi":39,"time":254.8633815,"velocity":0.7244094488188977},{"duration":0.4090904999999907,"midi":46,"time":254.8633815,"velocity":0.7244094488188977},{"duration":0.4090904999999907,"midi":27,"time":254.8633815,"velocity":0.7244094488188977},{"duration":0.681817499999994,"midi":26,"time":255.272472,"velocity":0.7244094488188977},{"duration":0.681817499999994,"midi":45,"time":255.272472,"velocity":0.7244094488188977},{"duration":0.681817499999994,"midi":26,"time":255.272472,"velocity":0.7244094488188977},{"duration":0.681817499999994,"midi":45,"time":255.272472,"velocity":0.7244094488188977},{"duration":0.681817499999994,"midi":38,"time":255.272472,"velocity":0.7244094488188977},{"duration":0.681817499999994,"midi":38,"time":255.272472,"velocity":0.7244094488188977},{"duration":0.6818175000000224,"midi":26,"time":255.817926,"velocity":0.7244094488188977},{"duration":0.6818175000000224,"midi":45,"time":255.817926,"velocity":0.7244094488188977},{"duration":0.6818175000000224,"midi":45,"time":255.817926,"velocity":0.7244094488188977},{"duration":0.6818175000000224,"midi":26,"time":255.817926,"velocity":0.7244094488188977},{"duration":0.6818175000000224,"midi":38,"time":255.817926,"velocity":0.7244094488188977},{"duration":0.6818175000000224,"midi":38,"time":255.817926,"velocity":0.7244094488188977},{"duration":0.27272699999997485,"midi":50,"time":256.36338,"velocity":0.7244094488188977},{"duration":0.27272699999997485,"midi":38,"time":256.36338,"velocity":0.7244094488188977},{"duration":0.27272699999997485,"midi":57,"time":256.36338,"velocity":0.7244094488188977},{"duration":0.27272699999997485,"midi":57,"time":256.36338,"velocity":0.7244094488188977},{"duration":0.27272699999997485,"midi":50,"time":256.36338,"velocity":0.7244094488188977},{"duration":0.27272699999997485,"midi":38,"time":256.36338,"velocity":0.7244094488188977},{"duration":0.4090904999999907,"midi":26,"time":256.4997435,"velocity":0.7244094488188977},{"duration":0.4090904999999907,"midi":45,"time":256.4997435,"velocity":0.7244094488188977},{"duration":0.4090904999999907,"midi":38,"time":256.4997435,"velocity":0.7244094488188977},{"duration":0.4090904999999907,"midi":45,"time":256.4997435,"velocity":0.7244094488188977},{"duration":0.4090904999999907,"midi":38,"time":256.4997435,"velocity":0.7244094488188977},{"duration":0.4090904999999907,"midi":26,"time":256.4997435,"velocity":0.7244094488188977},{"duration":0.6818174999999655,"midi":47,"time":256.908834,"velocity":0.7244094488188977},{"duration":0.6818174999999655,"midi":28,"time":256.908834,"velocity":0.7244094488188977},{"duration":0.6818174999999655,"midi":40,"time":256.908834,"velocity":0.7244094488188977},{"duration":0.6818174999999655,"midi":40,"time":256.908834,"velocity":0.7244094488188977},{"duration":0.6818174999999655,"midi":28,"time":256.908834,"velocity":0.7244094488188977},{"duration":0.6818174999999655,"midi":47,"time":256.908834,"velocity":0.7244094488188977},{"duration":0.6818174999999655,"midi":27,"time":257.454288,"velocity":0.7244094488188977},{"duration":0.6818174999999655,"midi":27,"time":257.454288,"velocity":0.7244094488188977},{"duration":0.6818174999999655,"midi":46,"time":257.454288,"velocity":0.7244094488188977},{"duration":0.6818174999999655,"midi":46,"time":257.454288,"velocity":0.7244094488188977},{"duration":0.6818174999999655,"midi":39,"time":257.454288,"velocity":0.7244094488188977},{"duration":0.6818174999999655,"midi":39,"time":257.454288,"velocity":0.7244094488188977},{"duration":0.6818175000000224,"midi":27,"time":257.99974199999997,"velocity":0.7244094488188977},{"duration":0.6818175000000224,"midi":46,"time":257.99974199999997,"velocity":0.7244094488188977},{"duration":0.6818175000000224,"midi":39,"time":257.99974199999997,"velocity":0.7244094488188977},{"duration":0.6818175000000224,"midi":27,"time":257.99974199999997,"velocity":0.7244094488188977},{"duration":0.6818175000000224,"midi":46,"time":257.99974199999997,"velocity":0.7244094488188977},{"duration":0.6818175000000224,"midi":39,"time":257.99974199999997,"velocity":0.7244094488188977},{"duration":0.2727270000000317,"midi":39,"time":258.545196,"velocity":0.7244094488188977},{"duration":0.2727270000000317,"midi":58,"time":258.545196,"velocity":0.7244094488188977},{"duration":0.2727270000000317,"midi":39,"time":258.545196,"velocity":0.7244094488188977},{"duration":0.2727270000000317,"midi":58,"time":258.545196,"velocity":0.7244094488188977},{"duration":0.2727270000000317,"midi":51,"time":258.545196,"velocity":0.7244094488188977},{"duration":0.2727270000000317,"midi":51,"time":258.545196,"velocity":0.7244094488188977},{"duration":0.4090904999999907,"midi":27,"time":258.6815595,"velocity":0.7244094488188977},{"duration":0.4090904999999907,"midi":46,"time":258.6815595,"velocity":0.7244094488188977},{"duration":0.4090904999999907,"midi":27,"time":258.6815595,"velocity":0.7244094488188977},{"duration":0.4090904999999907,"midi":39,"time":258.6815595,"velocity":0.7244094488188977},{"duration":0.4090904999999907,"midi":46,"time":258.6815595,"velocity":0.7244094488188977},{"duration":0.4090904999999907,"midi":39,"time":258.6815595,"velocity":0.7244094488188977},{"duration":0.2727270000000317,"midi":51,"time":259.09065,"velocity":0.7244094488188977},{"duration":0.2727270000000317,"midi":51,"time":259.09065,"velocity":0.7244094488188977},{"duration":0.2727270000000317,"midi":58,"time":259.09065,"velocity":0.7244094488188977},{"duration":0.2727270000000317,"midi":58,"time":259.09065,"velocity":0.7244094488188977},{"duration":0.2727270000000317,"midi":39,"time":259.09065,"velocity":0.7244094488188977},{"duration":0.2727270000000317,"midi":39,"time":259.09065,"velocity":0.7244094488188977},{"duration":0.4090904999999907,"midi":27,"time":259.2270135,"velocity":0.7244094488188977},{"duration":0.4090904999999907,"midi":46,"time":259.2270135,"velocity":0.7244094488188977},{"duration":0.4090904999999907,"midi":46,"time":259.2270135,"velocity":0.7244094488188977},{"duration":0.4090904999999907,"midi":39,"time":259.2270135,"velocity":0.7244094488188977},{"duration":0.4090904999999907,"midi":27,"time":259.2270135,"velocity":0.7244094488188977},{"duration":0.4090904999999907,"midi":39,"time":259.2270135,"velocity":0.7244094488188977},{"duration":0.6818175000000224,"midi":28,"time":259.636104,"velocity":0.7244094488188977},{"duration":0.6818175000000224,"midi":47,"time":259.636104,"velocity":0.7244094488188977},{"duration":0.6818175000000224,"midi":28,"time":259.636104,"velocity":0.7244094488188977},{"duration":0.6818175000000224,"midi":47,"time":259.636104,"velocity":0.7244094488188977},{"duration":0.6818175000000224,"midi":40,"time":259.636104,"velocity":0.7244094488188977},{"duration":0.6818175000000224,"midi":40,"time":259.636104,"velocity":0.7244094488188977},{"duration":0.6818175000000224,"midi":28,"time":260.181558,"velocity":0.7244094488188977},{"duration":0.6818175000000224,"midi":28,"time":260.181558,"velocity":0.7244094488188977},{"duration":0.6818175000000224,"midi":40,"time":260.181558,"velocity":0.7244094488188977},{"duration":0.6818175000000224,"midi":40,"time":260.181558,"velocity":0.7244094488188977},{"duration":0.6818175000000224,"midi":47,"time":260.181558,"velocity":0.7244094488188977},{"duration":0.6818175000000224,"midi":47,"time":260.181558,"velocity":0.7244094488188977},{"duration":0.27272699999997485,"midi":40,"time":260.727012,"velocity":0.7244094488188977},{"duration":0.27272699999997485,"midi":59,"time":260.727012,"velocity":0.7244094488188977},{"duration":0.27272699999997485,"midi":40,"time":260.727012,"velocity":0.7244094488188977},{"duration":0.27272699999997485,"midi":52,"time":260.727012,"velocity":0.7244094488188977},{"duration":0.27272699999997485,"midi":59,"time":260.727012,"velocity":0.7244094488188977},{"duration":0.27272699999997485,"midi":52,"time":260.727012,"velocity":0.7244094488188977},{"duration":0.4090904999999907,"midi":28,"time":260.8633755,"velocity":0.7244094488188977},{"duration":0.4090904999999907,"midi":47,"time":260.8633755,"velocity":0.7244094488188977},{"duration":0.4090904999999907,"midi":40,"time":260.8633755,"velocity":0.7244094488188977},{"duration":0.4090904999999907,"midi":40,"time":260.8633755,"velocity":0.7244094488188977},{"duration":0.4090904999999907,"midi":28,"time":260.8633755,"velocity":0.7244094488188977},{"duration":0.4090904999999907,"midi":47,"time":260.8633755,"velocity":0.7244094488188977},{"duration":0.6818174999999655,"midi":36,"time":261.272466,"velocity":0.7244094488188977},{"duration":0.6818174999999655,"midi":55,"time":261.272466,"velocity":0.7244094488188977},{"duration":0.27272699999997485,"midi":54,"time":261.272466,"velocity":0.7244094488188977},{"duration":0.27272699999997485,"midi":35,"time":261.272466,"velocity":0.7244094488188977},{"duration":0.6136357500000145,"midi":59,"time":261.272466,"velocity":0.7244094488188977},{"duration":0.6818174999999655,"midi":55,"time":261.272466,"velocity":0.7244094488188977},{"duration":0.6818174999999655,"midi":36,"time":261.272466,"velocity":0.7244094488188977},{"duration":0.27272699999997485,"midi":35,"time":261.272466,"velocity":0.7244094488188977},{"duration":0.6136357500000145,"midi":59,"time":261.272466,"velocity":0.7244094488188977},{"duration":0.27272699999997485,"midi":54,"time":261.272466,"velocity":0.7244094488188977},{"duration":0.6818174999999655,"midi":46,"time":261.81792,"velocity":0.7244094488188977},{"duration":0.6818174999999655,"midi":27,"time":261.81792,"velocity":0.7244094488188977},{"duration":0.6818174999999655,"midi":46,"time":261.81792,"velocity":0.7244094488188977},{"duration":0.6818174999999655,"midi":27,"time":261.81792,"velocity":0.7244094488188977},{"duration":0.6818174999999655,"midi":39,"time":261.81792,"velocity":0.7244094488188977},{"duration":0.6818174999999655,"midi":39,"time":261.81792,"velocity":0.7244094488188977},{"duration":0.6818174999999655,"midi":27,"time":262.363374,"velocity":0.7244094488188977},{"duration":0.6818174999999655,"midi":27,"time":262.363374,"velocity":0.7244094488188977},{"duration":0.6818174999999655,"midi":46,"time":262.363374,"velocity":0.7244094488188977},{"duration":0.6818174999999655,"midi":46,"time":262.363374,"velocity":0.7244094488188977},{"duration":0.6818174999999655,"midi":39,"time":262.363374,"velocity":0.7244094488188977},{"duration":0.6818174999999655,"midi":39,"time":262.363374,"velocity":0.7244094488188977},{"duration":0.2727270000000317,"midi":58,"time":262.90882799999997,"velocity":0.7244094488188977},{"duration":0.2727270000000317,"midi":58,"time":262.90882799999997,"velocity":0.7244094488188977},{"duration":0.2727270000000317,"midi":39,"time":262.90882799999997,"velocity":0.7244094488188977},{"duration":0.2727270000000317,"midi":51,"time":262.90882799999997,"velocity":0.7244094488188977},{"duration":0.2727270000000317,"midi":39,"time":262.90882799999997,"velocity":0.7244094488188977},{"duration":0.2727270000000317,"midi":51,"time":262.90882799999997,"velocity":0.7244094488188977},{"duration":0.4090904999999907,"midi":27,"time":263.0451915,"velocity":0.7244094488188977},{"duration":0.4090904999999907,"midi":46,"time":263.0451915,"velocity":0.7244094488188977},{"duration":0.4090904999999907,"midi":39,"time":263.0451915,"velocity":0.7244094488188977},{"duration":0.4090904999999907,"midi":39,"time":263.0451915,"velocity":0.7244094488188977},{"duration":0.4090904999999907,"midi":27,"time":263.0451915,"velocity":0.7244094488188977},{"duration":0.4090904999999907,"midi":46,"time":263.0451915,"velocity":0.7244094488188977},{"duration":0.2727270000000317,"midi":58,"time":263.454282,"velocity":0.7244094488188977},{"duration":0.2727270000000317,"midi":58,"time":263.454282,"velocity":0.7244094488188977},{"duration":0.2727270000000317,"midi":51,"time":263.454282,"velocity":0.7244094488188977},{"duration":0.2727270000000317,"midi":39,"time":263.454282,"velocity":0.7244094488188977},{"duration":0.2727270000000317,"midi":51,"time":263.454282,"velocity":0.7244094488188977},{"duration":0.2727270000000317,"midi":39,"time":263.454282,"velocity":0.7244094488188977},{"duration":0.4090904999999907,"midi":39,"time":263.5906455,"velocity":0.7244094488188977},{"duration":0.4090904999999907,"midi":27,"time":263.5906455,"velocity":0.7244094488188977},{"duration":0.4090904999999907,"midi":39,"time":263.5906455,"velocity":0.7244094488188977},{"duration":0.4090904999999907,"midi":46,"time":263.5906455,"velocity":0.7244094488188977},{"duration":0.4090904999999907,"midi":27,"time":263.5906455,"velocity":0.7244094488188977},{"duration":0.4090904999999907,"midi":46,"time":263.5906455,"velocity":0.7244094488188977},{"duration":0.6818175000000224,"midi":26,"time":263.999736,"velocity":0.7244094488188977},{"duration":0.6818175000000224,"midi":38,"time":263.999736,"velocity":0.7244094488188977},{"duration":0.6818175000000224,"midi":45,"time":263.999736,"velocity":0.7244094488188977},{"duration":0.6818175000000224,"midi":38,"time":263.999736,"velocity":0.7244094488188977},{"duration":0.6818175000000224,"midi":26,"time":263.999736,"velocity":0.7244094488188977},{"duration":0.6818175000000224,"midi":45,"time":263.999736,"velocity":0.7244094488188977},{"duration":0.6818175000000224,"midi":45,"time":264.54519,"velocity":0.7244094488188977},{"duration":0.6818175000000224,"midi":26,"time":264.54519,"velocity":0.7244094488188977},{"duration":0.6818175000000224,"midi":45,"time":264.54519,"velocity":0.7244094488188977},{"duration":0.6818175000000224,"midi":38,"time":264.54519,"velocity":0.7244094488188977},{"duration":0.6818175000000224,"midi":38,"time":264.54519,"velocity":0.7244094488188977},{"duration":0.6818175000000224,"midi":26,"time":264.54519,"velocity":0.7244094488188977},{"duration":0.27272699999997485,"midi":38,"time":265.090644,"velocity":0.7244094488188977},{"duration":0.27272699999997485,"midi":38,"time":265.090644,"velocity":0.7244094488188977},{"duration":0.27272699999997485,"midi":57,"time":265.090644,"velocity":0.7244094488188977},{"duration":0.27272699999997485,"midi":50,"time":265.090644,"velocity":0.7244094488188977},{"duration":0.27272699999997485,"midi":50,"time":265.090644,"velocity":0.7244094488188977},{"duration":0.27272699999997485,"midi":57,"time":265.090644,"velocity":0.7244094488188977},{"duration":0.4090904999999907,"midi":45,"time":265.2270075,"velocity":0.7244094488188977},{"duration":0.4090904999999907,"midi":38,"time":265.2270075,"velocity":0.7244094488188977},{"duration":0.4090904999999907,"midi":45,"time":265.2270075,"velocity":0.7244094488188977},{"duration":0.4090904999999907,"midi":38,"time":265.2270075,"velocity":0.7244094488188977},{"duration":0.4090904999999907,"midi":26,"time":265.2270075,"velocity":0.7244094488188977},{"duration":0.4090904999999907,"midi":26,"time":265.2270075,"velocity":0.7244094488188977},{"duration":0.6818174999999655,"midi":40,"time":265.636098,"velocity":0.7244094488188977},{"duration":0.6818174999999655,"midi":28,"time":265.636098,"velocity":0.7244094488188977},{"duration":0.6818174999999655,"midi":47,"time":265.636098,"velocity":0.7244094488188977},{"duration":0.6818174999999655,"midi":47,"time":265.636098,"velocity":0.7244094488188977},{"duration":0.6818174999999655,"midi":40,"time":265.636098,"velocity":0.7244094488188977},{"duration":0.6818174999999655,"midi":28,"time":265.636098,"velocity":0.7244094488188977},{"duration":0.6818174999999655,"midi":39,"time":266.181552,"velocity":0.7244094488188977},{"duration":0.6818174999999655,"midi":46,"time":266.181552,"velocity":0.7244094488188977},{"duration":0.6818174999999655,"midi":39,"time":266.181552,"velocity":0.7244094488188977},{"duration":0.6818174999999655,"midi":46,"time":266.181552,"velocity":0.7244094488188977},{"duration":0.6818174999999655,"midi":27,"time":266.181552,"velocity":0.7244094488188977},{"duration":0.6818174999999655,"midi":27,"time":266.181552,"velocity":0.7244094488188977},{"duration":0.6818174999999655,"midi":46,"time":266.727006,"velocity":0.7244094488188977},{"duration":0.6818174999999655,"midi":27,"time":266.727006,"velocity":0.7244094488188977},{"duration":0.6818174999999655,"midi":39,"time":266.727006,"velocity":0.7244094488188977},{"duration":0.6818174999999655,"midi":46,"time":266.727006,"velocity":0.7244094488188977},{"duration":0.6818174999999655,"midi":39,"time":266.727006,"velocity":0.7244094488188977},{"duration":0.6818174999999655,"midi":27,"time":266.727006,"velocity":0.7244094488188977},{"duration":0.27272699999997485,"midi":58,"time":267.27246,"velocity":0.7244094488188977},{"duration":0.27272699999997485,"midi":51,"time":267.27246,"velocity":0.7244094488188977},{"duration":0.27272699999997485,"midi":58,"time":267.27246,"velocity":0.7244094488188977},{"duration":0.27272699999997485,"midi":51,"time":267.27246,"velocity":0.7244094488188977},{"duration":0.27272699999997485,"midi":39,"time":267.27246,"velocity":0.7244094488188977},{"duration":0.27272699999997485,"midi":39,"time":267.27246,"velocity":0.7244094488188977},{"duration":0.4090904999999907,"midi":46,"time":267.4088235,"velocity":0.7244094488188977},{"duration":0.4090904999999907,"midi":39,"time":267.4088235,"velocity":0.7244094488188977},{"duration":0.4090904999999907,"midi":27,"time":267.4088235,"velocity":0.7244094488188977},{"duration":0.4090904999999907,"midi":46,"time":267.4088235,"velocity":0.7244094488188977},{"duration":0.4090904999999907,"midi":27,"time":267.4088235,"velocity":0.7244094488188977},{"duration":0.4090904999999907,"midi":39,"time":267.4088235,"velocity":0.7244094488188977},{"duration":0.2727270000000317,"midi":51,"time":267.817914,"velocity":0.7244094488188977},{"duration":0.2727270000000317,"midi":39,"time":267.817914,"velocity":0.7244094488188977},{"duration":0.2727270000000317,"midi":39,"time":267.817914,"velocity":0.7244094488188977},{"duration":0.2727270000000317,"midi":58,"time":267.817914,"velocity":0.7244094488188977},{"duration":0.2727270000000317,"midi":51,"time":267.817914,"velocity":0.7244094488188977},{"duration":0.2727270000000317,"midi":58,"time":267.817914,"velocity":0.7244094488188977},{"duration":0.4090904999999907,"midi":46,"time":267.9542775,"velocity":0.7244094488188977},{"duration":0.4090904999999907,"midi":27,"time":267.9542775,"velocity":0.7244094488188977},{"duration":0.4090904999999907,"midi":39,"time":267.9542775,"velocity":0.7244094488188977},{"duration":0.4090904999999907,"midi":27,"time":267.9542775,"velocity":0.7244094488188977},{"duration":0.4090904999999907,"midi":39,"time":267.9542775,"velocity":0.7244094488188977},{"duration":0.4090904999999907,"midi":46,"time":267.9542775,"velocity":0.7244094488188977},{"duration":0.6818175000000224,"midi":47,"time":268.363368,"velocity":0.7244094488188977},{"duration":0.6818175000000224,"midi":40,"time":268.363368,"velocity":0.7244094488188977},{"duration":0.6818175000000224,"midi":28,"time":268.363368,"velocity":0.7244094488188977},{"duration":0.6818175000000224,"midi":47,"time":268.363368,"velocity":0.7244094488188977},{"duration":0.6818175000000224,"midi":40,"time":268.363368,"velocity":0.7244094488188977},{"duration":0.6818175000000224,"midi":28,"time":268.363368,"velocity":0.7244094488188977},{"duration":0.6818175000000224,"midi":47,"time":268.908822,"velocity":0.7244094488188977},{"duration":0.6818175000000224,"midi":28,"time":268.908822,"velocity":0.7244094488188977},{"duration":0.6818175000000224,"midi":28,"time":268.908822,"velocity":0.7244094488188977},{"duration":0.6818175000000224,"midi":40,"time":268.908822,"velocity":0.7244094488188977},{"duration":0.6818175000000224,"midi":40,"time":268.908822,"velocity":0.7244094488188977},{"duration":0.6818175000000224,"midi":47,"time":268.908822,"velocity":0.7244094488188977},{"duration":0.2727270000000317,"midi":52,"time":269.454276,"velocity":0.7244094488188977},{"duration":0.2727270000000317,"midi":52,"time":269.454276,"velocity":0.7244094488188977},{"duration":0.2727270000000317,"midi":40,"time":269.454276,"velocity":0.7244094488188977},{"duration":0.2727270000000317,"midi":59,"time":269.454276,"velocity":0.7244094488188977},{"duration":0.2727270000000317,"midi":40,"time":269.454276,"velocity":0.7244094488188977},{"duration":0.2727270000000317,"midi":59,"time":269.454276,"velocity":0.7244094488188977},{"duration":0.4090904999999907,"midi":28,"time":269.5906395,"velocity":0.7244094488188977},{"duration":0.4090904999999907,"midi":47,"time":269.5906395,"velocity":0.7244094488188977},{"duration":0.4090904999999907,"midi":47,"time":269.5906395,"velocity":0.7244094488188977},{"duration":0.4090904999999907,"midi":40,"time":269.5906395,"velocity":0.7244094488188977},{"duration":0.4090904999999907,"midi":40,"time":269.5906395,"velocity":0.7244094488188977},{"duration":0.4090904999999907,"midi":28,"time":269.5906395,"velocity":0.7244094488188977},{"duration":0.5454540000000065,"midi":59,"time":269.99973,"velocity":0.7244094488188977},{"duration":0.6818175000000224,"midi":36,"time":269.99973,"velocity":0.7244094488188977},{"duration":0.27272699999997485,"midi":35,"time":269.99973,"velocity":0.7244094488188977},{"duration":0.27272699999997485,"midi":35,"time":269.99973,"velocity":0.7244094488188977},{"duration":0.6818175000000224,"midi":55,"time":269.99973,"velocity":0.7244094488188977},{"duration":0.27272699999997485,"midi":54,"time":269.99973,"velocity":0.7244094488188977},{"duration":0.5454540000000065,"midi":59,"time":269.99973,"velocity":0.7244094488188977},{"duration":0.6818175000000224,"midi":36,"time":269.99973,"velocity":0.7244094488188977},{"duration":0.6818175000000224,"midi":55,"time":269.99973,"velocity":0.7244094488188977},{"duration":0.6818174999999655,"midi":39,"time":270.545184,"velocity":0.7244094488188977},{"duration":0.6818174999999655,"midi":46,"time":270.545184,"velocity":0.7244094488188977},{"duration":0.6818174999999655,"midi":27,"time":270.545184,"velocity":0.7244094488188977},{"duration":0.6818174999999655,"midi":46,"time":270.545184,"velocity":0.7244094488188977},{"duration":0.6818174999999655,"midi":39,"time":270.545184,"velocity":0.7244094488188977},{"duration":0.6818174999999655,"midi":27,"time":270.545184,"velocity":0.7244094488188977},{"duration":0.6818174999999655,"midi":27,"time":271.090638,"velocity":0.7244094488188977},{"duration":0.6818174999999655,"midi":39,"time":271.090638,"velocity":0.7244094488188977},{"duration":0.6818174999999655,"midi":39,"time":271.090638,"velocity":0.7244094488188977},{"duration":0.6818174999999655,"midi":27,"time":271.090638,"velocity":0.7244094488188977},{"duration":0.6818174999999655,"midi":46,"time":271.090638,"velocity":0.7244094488188977},{"duration":0.6818174999999655,"midi":46,"time":271.090638,"velocity":0.7244094488188977},{"duration":0.27272699999997485,"midi":58,"time":271.636092,"velocity":0.7244094488188977},{"duration":0.27272699999997485,"midi":51,"time":271.636092,"velocity":0.7244094488188977},{"duration":0.27272699999997485,"midi":51,"time":271.636092,"velocity":0.7244094488188977},{"duration":0.27272699999997485,"midi":58,"time":271.636092,"velocity":0.7244094488188977},{"duration":0.27272699999997485,"midi":39,"time":271.636092,"velocity":0.7244094488188977},{"duration":0.27272699999997485,"midi":39,"time":271.636092,"velocity":0.7244094488188977},{"duration":0.4090904999999907,"midi":46,"time":271.7724555,"velocity":0.7244094488188977},{"duration":0.4090904999999907,"midi":39,"time":271.7724555,"velocity":0.7244094488188977},{"duration":0.4090904999999907,"midi":39,"time":271.7724555,"velocity":0.7244094488188977},{"duration":0.4090904999999907,"midi":46,"time":271.7724555,"velocity":0.7244094488188977},{"duration":0.4090904999999907,"midi":27,"time":271.7724555,"velocity":0.7244094488188977},{"duration":0.4090904999999907,"midi":27,"time":271.7724555,"velocity":0.7244094488188977},{"duration":0.2727270000000317,"midi":58,"time":272.18154599999997,"velocity":0.7244094488188977},{"duration":0.2727270000000317,"midi":51,"time":272.18154599999997,"velocity":0.7244094488188977},{"duration":0.2727270000000317,"midi":39,"time":272.18154599999997,"velocity":0.7244094488188977},{"duration":0.2727270000000317,"midi":51,"time":272.18154599999997,"velocity":0.7244094488188977},{"duration":0.2727270000000317,"midi":39,"time":272.18154599999997,"velocity":0.7244094488188977},{"duration":0.2727270000000317,"midi":58,"time":272.18154599999997,"velocity":0.7244094488188977},{"duration":0.4090904999999907,"midi":27,"time":272.3179095,"velocity":0.7244094488188977},{"duration":0.4090904999999907,"midi":46,"time":272.3179095,"velocity":0.7244094488188977},{"duration":0.4090904999999907,"midi":46,"time":272.3179095,"velocity":0.7244094488188977},{"duration":0.4090904999999907,"midi":39,"time":272.3179095,"velocity":0.7244094488188977},{"duration":0.4090904999999907,"midi":39,"time":272.3179095,"velocity":0.7244094488188977},{"duration":0.4090904999999907,"midi":27,"time":272.3179095,"velocity":0.7244094488188977},{"duration":0.6818175000000224,"midi":26,"time":272.727,"velocity":0.7244094488188977},{"duration":0.6818175000000224,"midi":38,"time":272.727,"velocity":0.7244094488188977},{"duration":0.6818175000000224,"midi":45,"time":272.727,"velocity":0.7244094488188977},{"duration":0.6818175000000224,"midi":26,"time":272.727,"velocity":0.7244094488188977},{"duration":0.6818175000000224,"midi":45,"time":272.727,"velocity":0.7244094488188977},{"duration":0.6818175000000224,"midi":38,"time":272.727,"velocity":0.7244094488188977},{"duration":0.6818175000000224,"midi":45,"time":273.272454,"velocity":0.7244094488188977},{"duration":0.6818175000000224,"midi":45,"time":273.272454,"velocity":0.7244094488188977},{"duration":0.6818175000000224,"midi":38,"time":273.272454,"velocity":0.7244094488188977},{"duration":0.6818175000000224,"midi":38,"time":273.272454,"velocity":0.7244094488188977},{"duration":0.6818175000000224,"midi":26,"time":273.272454,"velocity":0.7244094488188977},{"duration":0.6818175000000224,"midi":26,"time":273.272454,"velocity":0.7244094488188977},{"duration":0.2727270000000317,"midi":38,"time":273.817908,"velocity":0.7244094488188977},{"duration":0.2727270000000317,"midi":50,"time":273.817908,"velocity":0.7244094488188977},{"duration":0.2727270000000317,"midi":57,"time":273.817908,"velocity":0.7244094488188977},{"duration":0.2727270000000317,"midi":57,"time":273.817908,"velocity":0.7244094488188977},{"duration":0.2727270000000317,"midi":50,"time":273.817908,"velocity":0.7244094488188977},{"duration":0.2727270000000317,"midi":38,"time":273.817908,"velocity":0.7244094488188977},{"duration":0.4090904999999907,"midi":38,"time":273.9542715,"velocity":0.7244094488188977},{"duration":0.4090904999999907,"midi":45,"time":273.9542715,"velocity":0.7244094488188977},{"duration":0.4090904999999907,"midi":38,"time":273.9542715,"velocity":0.7244094488188977},{"duration":0.4090904999999907,"midi":45,"time":273.9542715,"velocity":0.7244094488188977},{"duration":0.4090904999999907,"midi":26,"time":273.9542715,"velocity":0.7244094488188977},{"duration":0.4090904999999907,"midi":26,"time":273.9542715,"velocity":0.7244094488188977},{"duration":0.6818175000000224,"midi":47,"time":274.363362,"velocity":0.7244094488188977},{"duration":0.6818175000000224,"midi":28,"time":274.363362,"velocity":0.7244094488188977},{"duration":0.6818175000000224,"midi":47,"time":274.363362,"velocity":0.7244094488188977},{"duration":0.6818175000000224,"midi":40,"time":274.363362,"velocity":0.7244094488188977},{"duration":0.6818175000000224,"midi":40,"time":274.363362,"velocity":0.7244094488188977},{"duration":0.6818175000000224,"midi":28,"time":274.363362,"velocity":0.7244094488188977},{"duration":0.6818175000000224,"midi":46,"time":274.908816,"velocity":0.7244094488188977},{"duration":0.6818175000000224,"midi":39,"time":274.908816,"velocity":0.7244094488188977},{"duration":0.6818175000000224,"midi":39,"time":274.908816,"velocity":0.7244094488188977},{"duration":0.6818175000000224,"midi":27,"time":274.908816,"velocity":0.7244094488188977},{"duration":0.6818175000000224,"midi":27,"time":274.908816,"velocity":0.7244094488188977},{"duration":0.6818175000000224,"midi":46,"time":274.908816,"velocity":0.7244094488188977},{"duration":0.6818174999999655,"midi":27,"time":275.45427,"velocity":0.7244094488188977},{"duration":0.6818174999999655,"midi":46,"time":275.45427,"velocity":0.7244094488188977},{"duration":0.6818174999999655,"midi":27,"time":275.45427,"velocity":0.7244094488188977},{"duration":0.6818174999999655,"midi":39,"time":275.45427,"velocity":0.7244094488188977},{"duration":0.6818174999999655,"midi":46,"time":275.45427,"velocity":0.7244094488188977},{"duration":0.6818174999999655,"midi":39,"time":275.45427,"velocity":0.7244094488188977},{"duration":0.27272699999997485,"midi":58,"time":275.999724,"velocity":0.7244094488188977},{"duration":0.27272699999997485,"midi":39,"time":275.999724,"velocity":0.7244094488188977},{"duration":0.27272699999997485,"midi":39,"time":275.999724,"velocity":0.7244094488188977},{"duration":0.27272699999997485,"midi":51,"time":275.999724,"velocity":0.7244094488188977},{"duration":0.27272699999997485,"midi":58,"time":275.999724,"velocity":0.7244094488188977},{"duration":0.27272699999997485,"midi":51,"time":275.999724,"velocity":0.7244094488188977},{"duration":0.40909050000004754,"midi":46,"time":276.1360875,"velocity":0.7244094488188977},{"duration":0.40909050000004754,"midi":27,"time":276.1360875,"velocity":0.7244094488188977},{"duration":0.40909050000004754,"midi":46,"time":276.1360875,"velocity":0.7244094488188977},{"duration":0.40909050000004754,"midi":27,"time":276.1360875,"velocity":0.7244094488188977},{"duration":0.40909050000004754,"midi":39,"time":276.1360875,"velocity":0.7244094488188977},{"duration":0.40909050000004754,"midi":39,"time":276.1360875,"velocity":0.7244094488188977},{"duration":0.27272699999997485,"midi":58,"time":276.545178,"velocity":0.7244094488188977},{"duration":0.27272699999997485,"midi":39,"time":276.545178,"velocity":0.7244094488188977},{"duration":0.27272699999997485,"midi":39,"time":276.545178,"velocity":0.7244094488188977},{"duration":0.27272699999997485,"midi":51,"time":276.545178,"velocity":0.7244094488188977},{"duration":0.27272699999997485,"midi":58,"time":276.545178,"velocity":0.7244094488188977},{"duration":0.27272699999997485,"midi":51,"time":276.545178,"velocity":0.7244094488188977},{"duration":0.4090904999999907,"midi":46,"time":276.6815415,"velocity":0.7244094488188977},{"duration":0.4090904999999907,"midi":27,"time":276.6815415,"velocity":0.7244094488188977},{"duration":0.4090904999999907,"midi":46,"time":276.6815415,"velocity":0.7244094488188977},{"duration":0.4090904999999907,"midi":39,"time":276.6815415,"velocity":0.7244094488188977},{"duration":0.4090904999999907,"midi":27,"time":276.6815415,"velocity":0.7244094488188977},{"duration":0.4090904999999907,"midi":39,"time":276.6815415,"velocity":0.7244094488188977},{"duration":0.6818175000000224,"midi":28,"time":277.09063199999997,"velocity":0.7244094488188977},{"duration":0.6818175000000224,"midi":40,"time":277.09063199999997,"velocity":0.7244094488188977},{"duration":0.6818175000000224,"midi":47,"time":277.09063199999997,"velocity":0.7244094488188977},{"duration":0.6818175000000224,"midi":28,"time":277.09063199999997,"velocity":0.7244094488188977},{"duration":0.6818175000000224,"midi":47,"time":277.09063199999997,"velocity":0.7244094488188977},{"duration":0.6818175000000224,"midi":40,"time":277.09063199999997,"velocity":0.7244094488188977},{"duration":0.6818175000000224,"midi":40,"time":277.636086,"velocity":0.7244094488188977},{"duration":0.6818175000000224,"midi":47,"time":277.636086,"velocity":0.7244094488188977},{"duration":0.6818175000000224,"midi":28,"time":277.636086,"velocity":0.7244094488188977},{"duration":0.6818175000000224,"midi":28,"time":277.636086,"velocity":0.7244094488188977},{"duration":0.6818175000000224,"midi":40,"time":277.636086,"velocity":0.7244094488188977},{"duration":0.6818175000000224,"midi":47,"time":277.636086,"velocity":0.7244094488188977},{"duration":0.2727270000000317,"midi":52,"time":278.18154,"velocity":0.7244094488188977},{"duration":0.2727270000000317,"midi":40,"time":278.18154,"velocity":0.7244094488188977},{"duration":0.2727270000000317,"midi":52,"time":278.18154,"velocity":0.7244094488188977},{"duration":0.2727270000000317,"midi":40,"time":278.18154,"velocity":0.7244094488188977},{"duration":0.2727270000000317,"midi":59,"time":278.18154,"velocity":0.7244094488188977},{"duration":0.2727270000000317,"midi":59,"time":278.18154,"velocity":0.7244094488188977},{"duration":0.4090904999999907,"midi":40,"time":278.3179035,"velocity":0.7244094488188977},{"duration":0.4090904999999907,"midi":28,"time":278.3179035,"velocity":0.7244094488188977},{"duration":0.4090904999999907,"midi":40,"time":278.3179035,"velocity":0.7244094488188977},{"duration":0.4090904999999907,"midi":47,"time":278.3179035,"velocity":0.7244094488188977},{"duration":0.4090904999999907,"midi":28,"time":278.3179035,"velocity":0.7244094488188977},{"duration":0.4090904999999907,"midi":47,"time":278.3179035,"velocity":0.7244094488188977},{"duration":0.2727270000000317,"midi":35,"time":278.726994,"velocity":0.7244094488188977},{"duration":0.5454540000000065,"midi":59,"time":278.726994,"velocity":0.7244094488188977},{"duration":0.5454540000000065,"midi":55,"time":278.726994,"velocity":0.7244094488188977},{"duration":0.5454540000000065,"midi":36,"time":278.726994,"velocity":0.7244094488188977},{"duration":0.2727270000000317,"midi":54,"time":278.726994,"velocity":0.7244094488188977},{"duration":0.5454540000000065,"midi":55,"time":278.726994,"velocity":0.7244094488188977},{"duration":0.5454540000000065,"midi":59,"time":278.726994,"velocity":0.7244094488188977},{"duration":0.2727270000000317,"midi":54,"time":278.726994,"velocity":0.7244094488188977},{"duration":0.2727270000000317,"midi":35,"time":278.726994,"velocity":0.7244094488188977},{"duration":0.5454540000000065,"midi":36,"time":278.726994,"velocity":0.7244094488188977}]},{"instrument":{"family":"synth lead","number":87,"name":"lead 8 (bass + lead)"},"notes":[{"duration":0.13636350000000164,"midi":51,"time":43.63632,"velocity":0.6299212598425197},{"duration":0.13636350000000164,"midi":38,"time":43.7726835,"velocity":0.6299212598425197},{"duration":0.13636350000000164,"midi":39,"time":43.909047,"velocity":0.6299212598425197},{"duration":0.13636349999999453,"midi":50,"time":44.0454105,"velocity":0.6299212598425197},{"duration":0.13636350000000164,"midi":52,"time":44.181774,"velocity":0.6299212598425197},{"duration":0.13636350000000164,"midi":40,"time":44.3181375,"velocity":0.6299212598425197},{"duration":0.13636350000000164,"midi":51,"time":44.454501,"velocity":0.6299212598425197},{"duration":0.13636349999999453,"midi":39,"time":44.5908645,"velocity":0.6299212598425197},{"duration":0.13636350000000164,"midi":38,"time":44.727228,"velocity":0.6299212598425197},{"duration":0.13636350000000164,"midi":51,"time":44.8635915,"velocity":0.6299212598425197},{"duration":0.13636350000000164,"midi":52,"time":44.999955,"velocity":0.6299212598425197},{"duration":0.13636349999999453,"midi":40,"time":45.1363185,"velocity":0.6299212598425197},{"duration":0.13636350000000164,"midi":53,"time":45.272681999999996,"velocity":0.6299212598425197},{"duration":0.13636350000000164,"midi":40,"time":45.4090455,"velocity":0.6299212598425197},{"duration":0.13636350000000164,"midi":51,"time":45.545409,"velocity":0.6299212598425197},{"duration":0.13636350000000164,"midi":38,"time":45.6817725,"velocity":0.6299212598425197},{"duration":0.13636349999999453,"midi":39,"time":45.818136,"velocity":0.6299212598425197},{"duration":0.13636350000000164,"midi":51,"time":45.9544995,"velocity":0.6299212598425197},{"duration":0.13636350000000164,"midi":39,"time":46.090863,"velocity":0.6299212598425197},{"duration":0.13636350000000164,"midi":39,"time":46.2272265,"velocity":0.6299212598425197},{"duration":0.13636349999999453,"midi":50,"time":46.36359,"velocity":0.6299212598425197},{"duration":0.13636350000000164,"midi":52,"time":46.4999535,"velocity":0.6299212598425197},{"duration":0.13636350000000164,"midi":40,"time":46.636317,"velocity":0.6299212598425197},{"duration":0.13636350000000164,"midi":51,"time":46.7726805,"velocity":0.6299212598425197},{"duration":0.13636349999999453,"midi":39,"time":46.909044,"velocity":0.6299212598425197},{"duration":0.13636350000000164,"midi":51,"time":47.045407499999996,"velocity":0.6299212598425197},{"duration":0.13636350000000164,"midi":54,"time":47.181771,"velocity":0.6299212598425197},{"duration":0.13636350000000164,"midi":42,"time":47.3181345,"velocity":0.6299212598425197},{"duration":0.13636350000000164,"midi":54,"time":47.454498,"velocity":0.6299212598425197},{"duration":0.13636349999999453,"midi":41,"time":47.5908615,"velocity":0.6299212598425197},{"duration":0.13636350000000164,"midi":38,"time":47.727225,"velocity":0.6299212598425197},{"duration":0.13636350000000164,"midi":52,"time":47.8635885,"velocity":0.6299212598425197},{"duration":0.13636350000000164,"midi":63,"time":47.999952,"velocity":0.6299212598425197},{"duration":0.13636349999999453,"midi":50,"time":48.1363155,"velocity":0.6299212598425197},{"duration":0.13636350000000164,"midi":51,"time":48.272679,"velocity":0.6299212598425197},{"duration":0.13636350000000164,"midi":62,"time":48.4090425,"velocity":0.6299212598425197},{"duration":0.13636350000000164,"midi":64,"time":48.545406,"velocity":0.6299212598425197},{"duration":0.13636349999999453,"midi":52,"time":48.6817695,"velocity":0.6299212598425197},{"duration":0.13636350000000164,"midi":63,"time":48.818132999999996,"velocity":0.6299212598425197},{"duration":0.13636350000000164,"midi":51,"time":48.9544965,"velocity":0.6299212598425197},{"duration":0.13636350000000164,"midi":50,"time":49.09086,"velocity":0.6299212598425197},{"duration":0.13636350000000164,"midi":63,"time":49.2272235,"velocity":0.6299212598425197},{"duration":0.13636349999999453,"midi":64,"time":49.363587,"velocity":0.6299212598425197},{"duration":0.13636350000000164,"midi":52,"time":49.4999505,"velocity":0.6299212598425197},{"duration":0.13636350000000164,"midi":65,"time":49.636314,"velocity":0.6299212598425197},{"duration":0.13636350000000164,"midi":52,"time":49.7726775,"velocity":0.6299212598425197},{"duration":0.13636349999999453,"midi":63,"time":49.909041,"velocity":0.6299212598425197},{"duration":0.13636350000000164,"midi":50,"time":50.0454045,"velocity":0.6299212598425197},{"duration":0.13636350000000164,"midi":51,"time":50.181768,"velocity":0.6299212598425197},{"duration":0.13636350000000164,"midi":63,"time":50.3181315,"velocity":0.6299212598425197},{"duration":0.13636349999999453,"midi":51,"time":50.454495,"velocity":0.6299212598425197},{"duration":0.13636350000000164,"midi":51,"time":50.590858499999996,"velocity":0.6299212598425197},{"duration":0.13636350000000164,"midi":62,"time":50.727222,"velocity":0.6299212598425197},{"duration":0.13636350000000164,"midi":64,"time":50.8635855,"velocity":0.6299212598425197},{"duration":0.13636350000000164,"midi":52,"time":50.999949,"velocity":0.6299212598425197},{"duration":0.13636349999999453,"midi":63,"time":51.1363125,"velocity":0.6299212598425197},{"duration":0.13636350000000164,"midi":51,"time":51.272676,"velocity":0.6299212598425197},{"duration":0.13636350000000164,"midi":63,"time":51.4090395,"velocity":0.6299212598425197},{"duration":0.13636350000000164,"midi":66,"time":51.545403,"velocity":0.6299212598425197},{"duration":0.13636349999999453,"midi":54,"time":51.6817665,"velocity":0.6299212598425197},{"duration":0.13636350000000164,"midi":66,"time":51.81813,"velocity":0.6299212598425197},{"duration":0.13636350000000164,"midi":53,"time":51.9544935,"velocity":0.6299212598425197},{"duration":0.13636350000000164,"midi":50,"time":52.090857,"velocity":0.6299212598425197},{"duration":0.13636350000000164,"midi":64,"time":52.2272205,"velocity":0.6299212598425197},{"duration":0.2727270000000033,"midi":39,"time":69.818112,"velocity":0.6299212598425197},{"duration":0.2727270000000033,"midi":27,"time":70.090839,"velocity":0.6299212598425197},{"duration":0.2727270000000033,"midi":27,"time":70.4999295,"velocity":0.6299212598425197},{"duration":0.2727270000000033,"midi":27,"time":70.90902,"velocity":0.6299212598425197},{"duration":0.2727270000000033,"midi":27,"time":71.181747,"velocity":0.6299212598425197},{"duration":0.2727270000000033,"midi":27,"time":71.3181105,"velocity":0.6299212598425197},{"duration":0.13636349999998743,"midi":27,"time":71.5908375,"velocity":0.6299212598425197},{"duration":0.2727270000000033,"midi":38,"time":71.727201,"velocity":0.6299212598425197},{"duration":0.2727270000000033,"midi":40,"time":71.8635645,"velocity":0.6299212598425197},{"duration":0.2727270000000033,"midi":39,"time":71.999928,"velocity":0.6299212598425197},{"duration":0.2727270000000033,"midi":27,"time":72.272655,"velocity":0.6299212598425197},{"duration":0.27272699999998906,"midi":27,"time":72.6817455,"velocity":0.6299212598425197},{"duration":0.2727270000000033,"midi":28,"time":73.090836,"velocity":0.6299212598425197},{"duration":0.2727270000000033,"midi":40,"time":73.4999265,"velocity":0.6299212598425197},{"duration":0.2727270000000033,"midi":28,"time":73.4999265,"velocity":0.6299212598425197},{"duration":0.27272699999998906,"midi":28,"time":73.909017,"velocity":0.6299212598425197},{"duration":0.2727270000000033,"midi":39,"time":74.181744,"velocity":0.6299212598425197},{"duration":0.2727270000000033,"midi":27,"time":74.454471,"velocity":0.6299212598425197},{"duration":0.2727270000000033,"midi":27,"time":74.8635615,"velocity":0.6299212598425197},{"duration":0.2727270000000033,"midi":27,"time":75.272652,"velocity":0.6299212598425197},{"duration":0.2727270000000033,"midi":27,"time":75.545379,"velocity":0.6299212598425197},{"duration":0.2727270000000033,"midi":27,"time":75.6817425,"velocity":0.6299212598425197},{"duration":0.13636350000000164,"midi":27,"time":75.9544695,"velocity":0.6299212598425197},{"duration":0.27272699999998906,"midi":38,"time":76.090833,"velocity":0.6299212598425197},{"duration":0.27272699999998906,"midi":40,"time":76.2271965,"velocity":0.6299212598425197},{"duration":0.2727270000000033,"midi":39,"time":76.36355999999999,"velocity":0.6299212598425197},{"duration":0.2727270000000033,"midi":27,"time":76.36355999999999,"velocity":0.6299212598425197},{"duration":0.2727270000000033,"midi":27,"time":76.636287,"velocity":0.6299212598425197},{"duration":0.2727270000000033,"midi":27,"time":77.0453775,"velocity":0.6299212598425197},{"duration":0.2727270000000033,"midi":39,"time":77.181741,"velocity":0.6299212598425197},{"duration":0.27272699999998906,"midi":40,"time":77.3181045,"velocity":0.6299212598425197},{"duration":0.27272699999998906,"midi":38,"time":77.454468,"velocity":0.6299212598425197},{"duration":0.2727270000000033,"midi":26,"time":77.5908315,"velocity":0.6299212598425197},{"duration":0.2727270000000033,"midi":26,"time":77.8635585,"velocity":0.6299212598425197},{"duration":0.2727270000000033,"midi":26,"time":78.1362855,"velocity":0.6299212598425197},{"duration":0.06818174999999371,"midi":26,"time":78.4090125,"velocity":0.6299212598425197},{"duration":0.27272699999998906,"midi":39,"time":78.545376,"velocity":0.6299212598425197},{"duration":0.2727270000000033,"midi":27,"time":78.818103,"velocity":0.6299212598425197},{"duration":0.2727270000000033,"midi":27,"time":79.2271935,"velocity":0.6299212598425197},{"duration":0.27272699999998906,"midi":27,"time":79.636284,"velocity":0.6299212598425197},{"duration":0.2727270000000033,"midi":27,"time":79.90901099999999,"velocity":0.6299212598425197},{"duration":0.2727270000000033,"midi":27,"time":80.0453745,"velocity":0.6299212598425197},{"duration":0.13636350000000164,"midi":27,"time":80.3181015,"velocity":0.6299212598425197},{"duration":0.2727270000000033,"midi":38,"time":80.454465,"velocity":0.6299212598425197},{"duration":0.2727270000000033,"midi":40,"time":80.5908285,"velocity":0.6299212598425197},{"duration":0.2727270000000033,"midi":39,"time":80.727192,"velocity":0.6299212598425197},{"duration":0.27272699999998906,"midi":27,"time":80.999919,"velocity":0.6299212598425197},{"duration":0.2727270000000033,"midi":27,"time":81.4090095,"velocity":0.6299212598425197},{"duration":0.2727270000000033,"midi":28,"time":81.8181,"velocity":0.6299212598425197},{"duration":0.27272699999998906,"midi":40,"time":82.2271905,"velocity":0.6299212598425197},{"duration":0.27272699999998906,"midi":28,"time":82.2271905,"velocity":0.6299212598425197},{"duration":0.2727270000000033,"midi":28,"time":82.636281,"velocity":0.6299212598425197},{"duration":0.2727270000000033,"midi":39,"time":82.909008,"velocity":0.6299212598425197},{"duration":0.27272699999998906,"midi":27,"time":83.181735,"velocity":0.6299212598425197},{"duration":0.2727270000000033,"midi":27,"time":83.5908255,"velocity":0.6299212598425197},{"duration":0.2727270000000033,"midi":27,"time":83.999916,"velocity":0.6299212598425197},{"duration":0.2727270000000033,"midi":27,"time":84.272643,"velocity":0.6299212598425197},{"duration":0.27272699999998906,"midi":27,"time":84.4090065,"velocity":0.6299212598425197},{"duration":0.13636350000000164,"midi":27,"time":84.68173349999999,"velocity":0.6299212598425197},{"duration":0.2727270000000033,"midi":38,"time":84.818097,"velocity":0.6299212598425197},{"duration":0.2727270000000033,"midi":40,"time":84.9544605,"velocity":0.6299212598425197},{"duration":0.2727270000000033,"midi":27,"time":85.090824,"velocity":0.6299212598425197},{"duration":0.2727270000000033,"midi":39,"time":85.090824,"velocity":0.6299212598425197},{"duration":0.2727270000000033,"midi":27,"time":85.363551,"velocity":0.6299212598425197},{"duration":0.27272699999998906,"midi":27,"time":85.7726415,"velocity":0.6299212598425197},{"duration":0.2727270000000033,"midi":27,"time":86.181732,"velocity":0.6299212598425197},{"duration":0.2727270000000033,"midi":27,"time":86.5908225,"velocity":0.6299212598425197},{"duration":0.2727270000000033,"midi":27,"time":86.99991299999999,"velocity":0.6299212598425197},{"duration":0.13636350000000164,"midi":51,"time":87.27264,"velocity":0.6299212598425197},{"duration":0.13636350000000164,"midi":38,"time":87.4090035,"velocity":0.6299212598425197},{"duration":0.13636350000000164,"midi":39,"time":87.545367,"velocity":0.6299212598425197},{"duration":0.13636350000000164,"midi":50,"time":87.6817305,"velocity":0.6299212598425197},{"duration":0.13636350000000164,"midi":52,"time":87.818094,"velocity":0.6299212598425197},{"duration":0.13636350000000164,"midi":40,"time":87.9544575,"velocity":0.6299212598425197},{"duration":0.13636349999998743,"midi":51,"time":88.090821,"velocity":0.6299212598425197},{"duration":0.13636350000000164,"midi":39,"time":88.22718449999999,"velocity":0.6299212598425197},{"duration":0.13636350000000164,"midi":38,"time":88.363548,"velocity":0.6299212598425197},{"duration":0.13636350000000164,"midi":51,"time":88.4999115,"velocity":0.6299212598425197},{"duration":0.13636350000000164,"midi":52,"time":88.636275,"velocity":0.6299212598425197},{"duration":0.13636350000000164,"midi":40,"time":88.7726385,"velocity":0.6299212598425197},{"duration":0.13636350000000164,"midi":53,"time":88.909002,"velocity":0.6299212598425197},{"duration":0.13636350000000164,"midi":40,"time":89.0453655,"velocity":0.6299212598425197},{"duration":0.13636350000000164,"midi":51,"time":89.181729,"velocity":0.6299212598425197},{"duration":0.13636349999998743,"midi":38,"time":89.3180925,"velocity":0.6299212598425197},{"duration":0.13636350000000164,"midi":39,"time":89.454456,"velocity":0.6299212598425197},{"duration":0.13636350000000164,"midi":51,"time":89.5908195,"velocity":0.6299212598425197},{"duration":0.13636350000000164,"midi":39,"time":89.727183,"velocity":0.6299212598425197},{"duration":0.13636350000000164,"midi":39,"time":89.8635465,"velocity":0.6299212598425197},{"duration":0.13636350000000164,"midi":50,"time":89.99991,"velocity":0.6299212598425197},{"duration":0.13636350000000164,"midi":52,"time":90.1362735,"velocity":0.6299212598425197},{"duration":0.13636350000000164,"midi":40,"time":90.272637,"velocity":0.6299212598425197},{"duration":0.13636349999998743,"midi":51,"time":90.4090005,"velocity":0.6299212598425197},{"duration":0.13636350000000164,"midi":39,"time":90.54536399999999,"velocity":0.6299212598425197},{"duration":0.13636350000000164,"midi":51,"time":90.6817275,"velocity":0.6299212598425197},{"duration":0.13636350000000164,"midi":54,"time":90.818091,"velocity":0.6299212598425197},{"duration":0.13636350000000164,"midi":42,"time":90.9544545,"velocity":0.6299212598425197},{"duration":0.13636350000000164,"midi":54,"time":91.090818,"velocity":0.6299212598425197},{"duration":0.13636350000000164,"midi":41,"time":91.2271815,"velocity":0.6299212598425197},{"duration":0.13636350000000164,"midi":38,"time":91.363545,"velocity":0.6299212598425197},{"duration":0.13636350000000164,"midi":52,"time":91.4999085,"velocity":0.6299212598425197},{"duration":0.13636349999998743,"midi":51,"time":91.636272,"velocity":0.6299212598425197},{"duration":0.13636350000000164,"midi":38,"time":91.77263549999999,"velocity":0.6299212598425197},{"duration":0.13636350000000164,"midi":39,"time":91.908999,"velocity":0.6299212598425197},{"duration":0.13636350000000164,"midi":50,"time":92.0453625,"velocity":0.6299212598425197},{"duration":0.13636350000000164,"midi":52,"time":92.181726,"velocity":0.6299212598425197},{"duration":0.13636350000000164,"midi":40,"time":92.3180895,"velocity":0.6299212598425197},{"duration":0.13636350000000164,"midi":51,"time":92.454453,"velocity":0.6299212598425197},{"duration":0.13636350000000164,"midi":39,"time":92.5908165,"velocity":0.6299212598425197},{"duration":0.13636350000000164,"midi":38,"time":92.72718,"velocity":0.6299212598425197},{"duration":0.13636349999998743,"midi":51,"time":92.8635435,"velocity":0.6299212598425197},{"duration":0.13636350000000164,"midi":52,"time":92.999907,"velocity":0.6299212598425197},{"duration":0.13636350000000164,"midi":40,"time":93.1362705,"velocity":0.6299212598425197},{"duration":0.13636350000000164,"midi":53,"time":93.272634,"velocity":0.6299212598425197},{"duration":0.13636350000000164,"midi":40,"time":93.4089975,"velocity":0.6299212598425197},{"duration":0.13636350000000164,"midi":51,"time":93.545361,"velocity":0.6299212598425197},{"duration":0.13636350000000164,"midi":38,"time":93.6817245,"velocity":0.6299212598425197},{"duration":0.13636350000000164,"midi":39,"time":93.818088,"velocity":0.6299212598425197},{"duration":0.13636349999998743,"midi":51,"time":93.9544515,"velocity":0.6299212598425197},{"duration":0.13636350000000164,"midi":39,"time":94.09081499999999,"velocity":0.6299212598425197},{"duration":0.13636350000000164,"midi":39,"time":94.2271785,"velocity":0.6299212598425197},{"duration":0.13636350000000164,"midi":50,"time":94.363542,"velocity":0.6299212598425197},{"duration":0.13636350000000164,"midi":52,"time":94.4999055,"velocity":0.6299212598425197},{"duration":0.13636350000000164,"midi":40,"time":94.636269,"velocity":0.6299212598425197},{"duration":0.13636350000000164,"midi":51,"time":94.7726325,"velocity":0.6299212598425197},{"duration":0.13636350000000164,"midi":39,"time":94.908996,"velocity":0.6299212598425197},{"duration":0.13636350000000164,"midi":51,"time":95.0453595,"velocity":0.6299212598425197},{"duration":0.13636349999998743,"midi":54,"time":95.181723,"velocity":0.6299212598425197},{"duration":0.13636350000000164,"midi":42,"time":95.31808649999999,"velocity":0.6299212598425197},{"duration":0.13636350000000164,"midi":54,"time":95.45445,"velocity":0.6299212598425197},{"duration":0.13636350000000164,"midi":41,"time":95.5908135,"velocity":0.6299212598425197},{"duration":0.13636350000000164,"midi":38,"time":95.727177,"velocity":0.6299212598425197},{"duration":0.13636350000000164,"midi":52,"time":95.8635405,"velocity":0.6299212598425197},{"duration":0.13636350000000164,"midi":51,"time":95.999904,"velocity":0.6299212598425197},{"duration":0.13636350000000164,"midi":38,"time":96.1362675,"velocity":0.6299212598425197},{"duration":0.13636350000000164,"midi":39,"time":96.272631,"velocity":0.6299212598425197},{"duration":0.13636349999998743,"midi":50,"time":96.4089945,"velocity":0.6299212598425197},{"duration":0.13636350000000164,"midi":52,"time":96.545358,"velocity":0.6299212598425197},{"duration":0.13636350000000164,"midi":40,"time":96.6817215,"velocity":0.6299212598425197},{"duration":0.13636350000000164,"midi":51,"time":96.818085,"velocity":0.6299212598425197},{"duration":0.13636350000000164,"midi":39,"time":96.9544485,"velocity":0.6299212598425197},{"duration":0.13636350000000164,"midi":38,"time":97.090812,"velocity":0.6299212598425197},{"duration":0.13636350000000164,"midi":51,"time":97.2271755,"velocity":0.6299212598425197},{"duration":0.13636350000000164,"midi":52,"time":97.363539,"velocity":0.6299212598425197},{"duration":0.13636349999998743,"midi":40,"time":97.4999025,"velocity":0.6299212598425197},{"duration":0.13636350000000164,"midi":53,"time":97.63626599999999,"velocity":0.6299212598425197},{"duration":0.13636350000000164,"midi":40,"time":97.7726295,"velocity":0.6299212598425197},{"duration":0.13636350000000164,"midi":51,"time":97.908993,"velocity":0.6299212598425197},{"duration":0.13636350000000164,"midi":38,"time":98.0453565,"velocity":0.6299212598425197},{"duration":0.13636350000000164,"midi":39,"time":98.18172,"velocity":0.6299212598425197},{"duration":0.13636350000000164,"midi":51,"time":98.3180835,"velocity":0.6299212598425197},{"duration":0.13636350000000164,"midi":39,"time":98.454447,"velocity":0.6299212598425197},{"duration":0.13636350000000164,"midi":39,"time":98.5908105,"velocity":0.6299212598425197},{"duration":0.13636349999998743,"midi":50,"time":98.727174,"velocity":0.6299212598425197},{"duration":0.13636350000000164,"midi":52,"time":98.86353749999999,"velocity":0.6299212598425197},{"duration":0.13636350000000164,"midi":40,"time":98.999901,"velocity":0.6299212598425197},{"duration":0.13636350000000164,"midi":51,"time":99.1362645,"velocity":0.6299212598425197},{"duration":0.13636350000000164,"midi":39,"time":99.272628,"velocity":0.6299212598425197},{"duration":0.13636350000000164,"midi":51,"time":99.4089915,"velocity":0.6299212598425197},{"duration":0.13636350000000164,"midi":54,"time":99.545355,"velocity":0.6299212598425197},{"duration":0.13636350000000164,"midi":42,"time":99.6817185,"velocity":0.6299212598425197},{"duration":0.13636350000000164,"midi":54,"time":99.818082,"velocity":0.6299212598425197},{"duration":0.13636349999998743,"midi":41,"time":99.9544455,"velocity":0.6299212598425197},{"duration":0.13636350000000164,"midi":38,"time":100.090809,"velocity":0.6299212598425197},{"duration":0.13636350000000164,"midi":52,"time":100.2271725,"velocity":0.6299212598425197},{"duration":0.13636350000000164,"midi":51,"time":100.363536,"velocity":0.6299212598425197},{"duration":0.13636350000000164,"midi":38,"time":100.4998995,"velocity":0.6299212598425197},{"duration":0.13636350000000164,"midi":39,"time":100.636263,"velocity":0.6299212598425197},{"duration":0.13636350000000164,"midi":50,"time":100.7726265,"velocity":0.6299212598425197},{"duration":0.13636350000000164,"midi":52,"time":100.90899,"velocity":0.6299212598425197},{"duration":0.13636349999998743,"midi":40,"time":101.0453535,"velocity":0.6299212598425197},{"duration":0.13636350000000164,"midi":51,"time":101.18171699999999,"velocity":0.6299212598425197},{"duration":0.13636350000000164,"midi":39,"time":101.3180805,"velocity":0.6299212598425197},{"duration":0.13636350000000164,"midi":38,"time":101.454444,"velocity":0.6299212598425197},{"duration":0.13636350000000164,"midi":51,"time":101.5908075,"velocity":0.6299212598425197},{"duration":0.13636350000000164,"midi":52,"time":101.727171,"velocity":0.6299212598425197},{"duration":0.13636350000000164,"midi":40,"time":101.8635345,"velocity":0.6299212598425197},{"duration":0.13636350000000164,"midi":53,"time":101.999898,"velocity":0.6299212598425197},{"duration":0.13636350000000164,"midi":40,"time":102.1362615,"velocity":0.6299212598425197},{"duration":0.13636349999998743,"midi":51,"time":102.272625,"velocity":0.6299212598425197},{"duration":0.13636350000000164,"midi":38,"time":102.40898849999999,"velocity":0.6299212598425197},{"duration":0.13636350000000164,"midi":39,"time":102.545352,"velocity":0.6299212598425197},{"duration":0.13636350000000164,"midi":51,"time":102.6817155,"velocity":0.6299212598425197},{"duration":0.13636350000000164,"midi":39,"time":102.818079,"velocity":0.6299212598425197},{"duration":0.13636350000000164,"midi":39,"time":102.9544425,"velocity":0.6299212598425197},{"duration":0.13636350000000164,"midi":50,"time":103.090806,"velocity":0.6299212598425197},{"duration":0.13636350000000164,"midi":52,"time":103.2271695,"velocity":0.6299212598425197},{"duration":0.13636350000000164,"midi":40,"time":103.363533,"velocity":0.6299212598425197},{"duration":0.13636349999998743,"midi":51,"time":103.4998965,"velocity":0.6299212598425197},{"duration":0.13636350000000164,"midi":39,"time":103.63626,"velocity":0.6299212598425197},{"duration":0.13636350000000164,"midi":39,"time":103.7726235,"velocity":0.6299212598425197},{"duration":0.13636350000000164,"midi":51,"time":103.7726235,"velocity":0.6299212598425197},{"duration":0.13636350000000164,"midi":51,"time":103.908987,"velocity":0.6299212598425197},{"duration":0.13636350000000164,"midi":39,"time":103.908987,"velocity":0.6299212598425197},{"duration":0.13636350000000164,"midi":39,"time":104.0453505,"velocity":0.6299212598425197},{"duration":0.13636350000000164,"midi":51,"time":104.0453505,"velocity":0.6299212598425197},{"duration":0.13636350000000164,"midi":51,"time":104.181714,"velocity":0.6299212598425197},{"duration":0.13636350000000164,"midi":39,"time":104.181714,"velocity":0.6299212598425197},{"duration":0.13636350000000164,"midi":39,"time":104.3180775,"velocity":0.6299212598425197},{"duration":0.13636350000000164,"midi":51,"time":104.3180775,"velocity":0.6299212598425197},{"duration":0.13636350000000164,"midi":39,"time":104.454441,"velocity":0.6299212598425197},{"duration":0.13636350000000164,"midi":51,"time":104.454441,"velocity":0.6299212598425197},{"duration":0.13636350000000164,"midi":51,"time":104.5908045,"velocity":0.6299212598425197},{"duration":0.13636350000000164,"midi":39,"time":104.5908045,"velocity":0.6299212598425197}]},{"instrument":{"family":"synth effects","number":99,"name":"fx 4 (atmosphere)"},"notes":[{"duration":0.2727270000000033,"midi":39,"time":69.818112,"velocity":0.47244094488188976},{"duration":0.2727270000000033,"midi":39,"time":69.9544755,"velocity":0.47244094488188976},{"duration":0.2727270000000033,"midi":39,"time":70.02265725,"velocity":0.47244094488188976},{"duration":0.2727270000000033,"midi":39,"time":70.4999295,"velocity":0.47244094488188976},{"duration":0.2727270000000033,"midi":39,"time":70.636293,"velocity":0.47244094488188976},{"duration":0.2727270000000033,"midi":39,"time":70.70447475,"velocity":0.47244094488188976},{"duration":0.2727270000000033,"midi":39,"time":71.181747,"velocity":0.47244094488188976},{"duration":0.2727270000000033,"midi":39,"time":71.3181105,"velocity":0.47244094488188976},{"duration":0.2727270000000033,"midi":39,"time":71.38629225,"velocity":0.47244094488188976},{"duration":0.13636349999998743,"midi":39,"time":71.5908375,"velocity":0.47244094488188976},{"duration":0.13636350000000164,"midi":39,"time":71.727201,"velocity":0.47244094488188976},{"duration":0.13636350000000164,"midi":39,"time":71.79538275,"velocity":0.47244094488188976},{"duration":0.2727270000000033,"midi":52,"time":71.8635645,"velocity":0.47244094488188976},{"duration":0.2727270000000033,"midi":52,"time":71.999928,"velocity":0.47244094488188976},{"duration":0.27272699999998906,"midi":52,"time":72.06810975,"velocity":0.47244094488188976},{"duration":0.27272699999998906,"midi":39,"time":72.6817455,"velocity":0.47244094488188976},{"duration":0.2727270000000033,"midi":39,"time":72.81810899999999,"velocity":0.47244094488188976},{"duration":0.2727270000000033,"midi":39,"time":72.88629075,"velocity":0.47244094488188976},{"duration":0.2727270000000033,"midi":40,"time":73.4999265,"velocity":0.47244094488188976},{"duration":0.2727270000000033,"midi":40,"time":73.63629,"velocity":0.47244094488188976},{"duration":0.2727270000000033,"midi":40,"time":73.70447175,"velocity":0.47244094488188976},{"duration":0.2727270000000033,"midi":39,"time":74.8635615,"velocity":0.47244094488188976},{"duration":0.27272699999998906,"midi":39,"time":74.999925,"velocity":0.47244094488188976},{"duration":0.2727270000000033,"midi":39,"time":75.06810675,"velocity":0.47244094488188976},{"duration":0.2727270000000033,"midi":39,"time":75.545379,"velocity":0.47244094488188976},{"duration":0.2727270000000033,"midi":39,"time":75.6817425,"velocity":0.47244094488188976},{"duration":0.2727270000000033,"midi":39,"time":75.74992424999999,"velocity":0.47244094488188976},{"duration":0.13636350000000164,"midi":39,"time":75.9544695,"velocity":0.47244094488188976},{"duration":0.13636350000000164,"midi":39,"time":76.090833,"velocity":0.47244094488188976},{"duration":0.13636350000000164,"midi":39,"time":76.15901475,"velocity":0.47244094488188976},{"duration":0.27272699999998906,"midi":52,"time":76.2271965,"velocity":0.47244094488188976},{"duration":0.2727270000000033,"midi":52,"time":76.36355999999999,"velocity":0.47244094488188976},{"duration":0.2727270000000033,"midi":52,"time":76.43174175,"velocity":0.47244094488188976},{"duration":0.2727270000000033,"midi":39,"time":77.0453775,"velocity":0.47244094488188976},{"duration":0.2727270000000033,"midi":39,"time":77.181741,"velocity":0.47244094488188976},{"duration":0.2727270000000033,"midi":39,"time":77.24992275,"velocity":0.47244094488188976},{"duration":0.27272699999998906,"midi":50,"time":77.454468,"velocity":0.47244094488188976},{"duration":0.2727270000000033,"midi":38,"time":77.5908315,"velocity":0.47244094488188976},{"duration":0.2727270000000033,"midi":50,"time":77.5908315,"velocity":0.47244094488188976},{"duration":0.2727270000000033,"midi":50,"time":77.65901325,"velocity":0.47244094488188976},{"duration":0.2727270000000033,"midi":38,"time":77.727195,"velocity":0.47244094488188976},{"duration":0.2727270000000033,"midi":38,"time":77.79537675,"velocity":0.47244094488188976},{"duration":0.2727270000000033,"midi":38,"time":78.1362855,"velocity":0.47244094488188976},{"duration":0.2727270000000033,"midi":38,"time":78.272649,"velocity":0.47244094488188976},{"duration":0.2727270000000033,"midi":38,"time":78.34083075,"velocity":0.47244094488188976},{"duration":0.27272699999998906,"midi":39,"time":78.545376,"velocity":0.47244094488188976},{"duration":0.13636350000000164,"midi":31,"time":78.545376,"velocity":0.47244094488188976},{"duration":0.27272699999998906,"midi":39,"time":78.6817395,"velocity":0.47244094488188976},{"duration":0.13636349999998743,"midi":31,"time":78.6817395,"velocity":0.47244094488188976},{"duration":0.13636349999998743,"midi":31,"time":78.6817395,"velocity":0.47244094488188976},{"duration":0.2727270000000033,"midi":39,"time":78.74992125,"velocity":0.47244094488188976},{"duration":0.13636350000000164,"midi":31,"time":78.74992125,"velocity":0.47244094488188976},{"duration":0.13636350000000164,"midi":31,"time":78.818103,"velocity":0.47244094488188976},{"duration":0.13636350000000164,"midi":31,"time":78.818103,"velocity":0.47244094488188976},{"duration":0.2727270000000033,"midi":27,"time":78.818103,"velocity":0.47244094488188976},{"duration":0.13636350000000164,"midi":31,"time":78.88628475,"velocity":0.47244094488188976},{"duration":0.2727270000000033,"midi":27,"time":78.9544665,"velocity":0.47244094488188976},{"duration":0.13636350000000164,"midi":31,"time":78.9544665,"velocity":0.47244094488188976},{"duration":0.13636350000000164,"midi":31,"time":78.9544665,"velocity":0.47244094488188976},{"duration":0.13636350000000164,"midi":31,"time":79.02264825,"velocity":0.47244094488188976},{"duration":0.27272699999998906,"midi":27,"time":79.02264825,"velocity":0.47244094488188976},{"duration":0.13636350000000164,"midi":31,"time":79.09083,"velocity":0.47244094488188976},{"duration":0.13636350000000164,"midi":31,"time":79.09083,"velocity":0.47244094488188976},{"duration":0.13636349999998743,"midi":31,"time":79.15901175,"velocity":0.47244094488188976},{"duration":0.13636350000000164,"midi":31,"time":79.2271935,"velocity":0.47244094488188976},{"duration":0.2727270000000033,"midi":39,"time":79.2271935,"velocity":0.47244094488188976},{"duration":0.13636350000000164,"midi":31,"time":79.2271935,"velocity":0.47244094488188976},{"duration":0.13636350000000164,"midi":31,"time":79.29537524999999,"velocity":0.47244094488188976},{"duration":0.13636350000000164,"midi":31,"time":79.363557,"velocity":0.47244094488188976},{"duration":0.2727270000000033,"midi":39,"time":79.363557,"velocity":0.47244094488188976},{"duration":0.13636350000000164,"midi":31,"time":79.363557,"velocity":0.47244094488188976},{"duration":0.13636350000000164,"midi":31,"time":79.43173875,"velocity":0.47244094488188976},{"duration":0.2727270000000033,"midi":39,"time":79.43173875,"velocity":0.47244094488188976},{"duration":0.13636350000000164,"midi":31,"time":79.4999205,"velocity":0.47244094488188976},{"duration":0.13636350000000164,"midi":31,"time":79.4999205,"velocity":0.47244094488188976},{"duration":0.13636350000000164,"midi":31,"time":79.56810225,"velocity":0.47244094488188976},{"duration":0.13636350000000164,"midi":31,"time":79.636284,"velocity":0.47244094488188976},{"duration":0.13636350000000164,"midi":31,"time":79.636284,"velocity":0.47244094488188976},{"duration":0.13636350000000164,"midi":31,"time":79.70446575,"velocity":0.47244094488188976},{"duration":0.13636349999998743,"midi":31,"time":79.7726475,"velocity":0.47244094488188976},{"duration":0.13636349999998743,"midi":31,"time":79.7726475,"velocity":0.47244094488188976},{"duration":0.13636350000000164,"midi":31,"time":79.84082925,"velocity":0.47244094488188976},{"duration":0.13636350000000164,"midi":31,"time":79.90901099999999,"velocity":0.47244094488188976},{"duration":0.13636350000000164,"midi":31,"time":79.90901099999999,"velocity":0.47244094488188976},{"duration":0.2727270000000033,"midi":39,"time":79.90901099999999,"velocity":0.47244094488188976},{"duration":0.13636350000000164,"midi":31,"time":79.97719275,"velocity":0.47244094488188976},{"duration":0.13636350000000164,"midi":31,"time":80.0453745,"velocity":0.47244094488188976},{"duration":0.2727270000000033,"midi":39,"time":80.0453745,"velocity":0.47244094488188976},{"duration":0.13636350000000164,"midi":31,"time":80.0453745,"velocity":0.47244094488188976},{"duration":0.2727270000000033,"midi":39,"time":80.11355625,"velocity":0.47244094488188976},{"duration":0.13636350000000164,"midi":31,"time":80.11355625,"velocity":0.47244094488188976},{"duration":0.13636350000000164,"midi":31,"time":80.181738,"velocity":0.47244094488188976},{"duration":0.13636350000000164,"midi":31,"time":80.181738,"velocity":0.47244094488188976},{"duration":0.13636350000000164,"midi":31,"time":80.24991975,"velocity":0.47244094488188976},{"duration":0.13636350000000164,"midi":31,"time":80.3181015,"velocity":0.47244094488188976},{"duration":0.13636350000000164,"midi":31,"time":80.3181015,"velocity":0.47244094488188976},{"duration":0.13636350000000164,"midi":39,"time":80.3181015,"velocity":0.47244094488188976},{"duration":0.13636349999998743,"midi":31,"time":80.38628325,"velocity":0.47244094488188976},{"duration":0.13636350000000164,"midi":31,"time":80.454465,"velocity":0.47244094488188976},{"duration":0.13636350000000164,"midi":31,"time":80.454465,"velocity":0.47244094488188976},{"duration":0.13636350000000164,"midi":39,"time":80.454465,"velocity":0.47244094488188976},{"duration":0.13636350000000164,"midi":31,"time":80.52264674999999,"velocity":0.47244094488188976},{"duration":0.13636350000000164,"midi":39,"time":80.52264674999999,"velocity":0.47244094488188976},{"duration":0.13636350000000164,"midi":31,"time":80.5908285,"velocity":0.47244094488188976},{"duration":0.13636350000000164,"midi":31,"time":80.5908285,"velocity":0.47244094488188976},{"duration":0.2727270000000033,"midi":52,"time":80.5908285,"velocity":0.47244094488188976},{"duration":0.13636350000000164,"midi":31,"time":80.65901025,"velocity":0.47244094488188976},{"duration":0.13636350000000164,"midi":31,"time":80.727192,"velocity":0.47244094488188976},{"duration":0.2727270000000033,"midi":52,"time":80.727192,"velocity":0.47244094488188976},{"duration":0.13636350000000164,"midi":31,"time":80.727192,"velocity":0.47244094488188976},{"duration":0.2727270000000033,"midi":52,"time":80.79537375,"velocity":0.47244094488188976},{"duration":0.13636350000000164,"midi":31,"time":80.79537375,"velocity":0.47244094488188976},{"duration":0.13636350000000164,"midi":31,"time":80.8635555,"velocity":0.47244094488188976},{"duration":0.13636350000000164,"midi":31,"time":80.8635555,"velocity":0.47244094488188976},{"duration":0.13636350000000164,"midi":31,"time":80.93173725,"velocity":0.47244094488188976},{"duration":0.13636349999998743,"midi":31,"time":80.999919,"velocity":0.47244094488188976},{"duration":0.13636349999998743,"midi":31,"time":80.999919,"velocity":0.47244094488188976},{"duration":0.13636350000000164,"midi":31,"time":81.06810075,"velocity":0.47244094488188976},{"duration":0.13636350000000164,"midi":31,"time":81.1362825,"velocity":0.47244094488188976},{"duration":0.13636350000000164,"midi":31,"time":81.1362825,"velocity":0.47244094488188976},{"duration":0.13636350000000164,"midi":31,"time":81.20446425,"velocity":0.47244094488188976},{"duration":0.13636350000000164,"midi":31,"time":81.272646,"velocity":0.47244094488188976},{"duration":0.13636350000000164,"midi":31,"time":81.272646,"velocity":0.47244094488188976},{"duration":0.13636350000000164,"midi":31,"time":81.34082775,"velocity":0.47244094488188976},{"duration":0.2727270000000033,"midi":39,"time":81.4090095,"velocity":0.47244094488188976},{"duration":0.13636350000000164,"midi":31,"time":81.4090095,"velocity":0.47244094488188976},{"duration":0.13636350000000164,"midi":31,"time":81.4090095,"velocity":0.47244094488188976},{"duration":0.13636350000000164,"midi":31,"time":81.47719125,"velocity":0.47244094488188976},{"duration":0.2727270000000033,"midi":39,"time":81.545373,"velocity":0.47244094488188976},{"duration":0.13636350000000164,"midi":31,"time":81.545373,"velocity":0.47244094488188976},{"duration":0.13636350000000164,"midi":31,"time":81.545373,"velocity":0.47244094488188976},{"duration":0.13636349999998743,"midi":31,"time":81.61355475,"velocity":0.47244094488188976},{"duration":0.27272699999998906,"midi":39,"time":81.61355475,"velocity":0.47244094488188976},{"duration":0.13636350000000164,"midi":31,"time":81.6817365,"velocity":0.47244094488188976},{"duration":0.13636350000000164,"midi":31,"time":81.6817365,"velocity":0.47244094488188976},{"duration":0.13636350000000164,"midi":31,"time":81.74991825,"velocity":0.47244094488188976},{"duration":0.13636350000000164,"midi":31,"time":81.8181,"velocity":0.47244094488188976},{"duration":0.13636350000000164,"midi":31,"time":81.8181,"velocity":0.47244094488188976},{"duration":0.13636350000000164,"midi":31,"time":81.88628175,"velocity":0.47244094488188976},{"duration":0.13636350000000164,"midi":31,"time":81.9544635,"velocity":0.47244094488188976},{"duration":0.13636350000000164,"midi":31,"time":81.9544635,"velocity":0.47244094488188976},{"duration":0.13636350000000164,"midi":31,"time":82.02264525,"velocity":0.47244094488188976},{"duration":0.13636350000000164,"midi":31,"time":82.090827,"velocity":0.47244094488188976},{"duration":0.13636350000000164,"midi":31,"time":82.090827,"velocity":0.47244094488188976},{"duration":0.13636350000000164,"midi":31,"time":82.15900875,"velocity":0.47244094488188976},{"duration":0.13636349999998743,"midi":31,"time":82.2271905,"velocity":0.47244094488188976},{"duration":0.13636349999998743,"midi":31,"time":82.2271905,"velocity":0.47244094488188976},{"duration":0.27272699999998906,"midi":40,"time":82.2271905,"velocity":0.47244094488188976},{"duration":0.13636350000000164,"midi":31,"time":82.29537225,"velocity":0.47244094488188976},{"duration":0.13636350000000164,"midi":31,"time":82.363554,"velocity":0.47244094488188976},{"duration":0.2727270000000033,"midi":40,"time":82.363554,"velocity":0.47244094488188976},{"duration":0.13636350000000164,"midi":31,"time":82.363554,"velocity":0.47244094488188976},{"duration":0.2727270000000033,"midi":40,"time":82.43173575,"velocity":0.47244094488188976},{"duration":0.13636350000000164,"midi":31,"time":82.43173575,"velocity":0.47244094488188976},{"duration":0.13636350000000164,"midi":31,"time":82.4999175,"velocity":0.47244094488188976},{"duration":0.13636350000000164,"midi":31,"time":82.4999175,"velocity":0.47244094488188976},{"duration":0.13636350000000164,"midi":31,"time":82.56809925,"velocity":0.47244094488188976},{"duration":0.13636350000000164,"midi":31,"time":82.636281,"velocity":0.47244094488188976},{"duration":0.13636350000000164,"midi":31,"time":82.636281,"velocity":0.47244094488188976},{"duration":0.13636349999998743,"midi":31,"time":82.70446275,"velocity":0.47244094488188976},{"duration":0.13636350000000164,"midi":31,"time":82.7726445,"velocity":0.47244094488188976},{"duration":0.13636350000000164,"midi":31,"time":82.7726445,"velocity":0.47244094488188976},{"duration":0.13636350000000164,"midi":31,"time":82.84082624999999,"velocity":0.47244094488188976},{"duration":0.13636350000000164,"midi":31,"time":82.909008,"velocity":0.47244094488188976},{"duration":0.13636350000000164,"midi":31,"time":82.909008,"velocity":0.47244094488188976},{"duration":0.13636350000000164,"midi":31,"time":82.97718975,"velocity":0.47244094488188976},{"duration":0.13636350000000164,"midi":31,"time":83.0453715,"velocity":0.47244094488188976},{"duration":0.13636350000000164,"midi":31,"time":83.0453715,"velocity":0.47244094488188976},{"duration":0.13636350000000164,"midi":31,"time":83.11355325,"velocity":0.47244094488188976},{"duration":0.13636350000000164,"midi":31,"time":83.181735,"velocity":0.47244094488188976},{"duration":0.13636350000000164,"midi":31,"time":83.181735,"velocity":0.47244094488188976},{"duration":0.13636350000000164,"midi":31,"time":83.24991675,"velocity":0.47244094488188976},{"duration":0.13636349999998743,"midi":31,"time":83.3180985,"velocity":0.47244094488188976},{"duration":0.13636349999998743,"midi":31,"time":83.3180985,"velocity":0.47244094488188976},{"duration":0.13636350000000164,"midi":31,"time":83.38628025,"velocity":0.47244094488188976},{"duration":0.13636350000000164,"midi":31,"time":83.45446199999999,"velocity":0.47244094488188976},{"duration":0.13636350000000164,"midi":31,"time":83.45446199999999,"velocity":0.47244094488188976},{"duration":0.13636350000000164,"midi":31,"time":83.52264375,"velocity":0.47244094488188976},{"duration":0.2727270000000033,"midi":39,"time":83.5908255,"velocity":0.47244094488188976},{"duration":0.13636350000000164,"midi":31,"time":83.5908255,"velocity":0.47244094488188976},{"duration":0.13636350000000164,"midi":31,"time":83.5908255,"velocity":0.47244094488188976},{"duration":0.13636350000000164,"midi":31,"time":83.65900725,"velocity":0.47244094488188976},{"duration":0.13636350000000164,"midi":31,"time":83.727189,"velocity":0.47244094488188976},{"duration":0.2727270000000033,"midi":39,"time":83.727189,"velocity":0.47244094488188976},{"duration":0.13636350000000164,"midi":31,"time":83.727189,"velocity":0.47244094488188976},{"duration":0.27272699999998906,"midi":39,"time":83.79537075,"velocity":0.47244094488188976},{"duration":0.13636350000000164,"midi":31,"time":83.79537075,"velocity":0.47244094488188976},{"duration":0.13636350000000164,"midi":31,"time":83.8635525,"velocity":0.47244094488188976},{"duration":0.13636350000000164,"midi":31,"time":83.8635525,"velocity":0.47244094488188976},{"duration":0.13636349999998743,"midi":31,"time":83.93173425,"velocity":0.47244094488188976},{"duration":0.13636350000000164,"midi":31,"time":83.999916,"velocity":0.47244094488188976},{"duration":0.13636350000000164,"midi":31,"time":83.999916,"velocity":0.47244094488188976},{"duration":0.13636350000000164,"midi":31,"time":84.06809774999999,"velocity":0.47244094488188976},{"duration":0.13636350000000164,"midi":31,"time":84.1362795,"velocity":0.47244094488188976},{"duration":0.13636350000000164,"midi":31,"time":84.1362795,"velocity":0.47244094488188976},{"duration":0.13636350000000164,"midi":31,"time":84.20446125,"velocity":0.47244094488188976},{"duration":0.13636350000000164,"midi":31,"time":84.272643,"velocity":0.47244094488188976},{"duration":0.13636350000000164,"midi":31,"time":84.272643,"velocity":0.47244094488188976},{"duration":0.2727270000000033,"midi":39,"time":84.272643,"velocity":0.47244094488188976},{"duration":0.13636350000000164,"midi":31,"time":84.34082475,"velocity":0.47244094488188976},{"duration":0.13636350000000164,"midi":31,"time":84.4090065,"velocity":0.47244094488188976},{"duration":0.13636350000000164,"midi":31,"time":84.4090065,"velocity":0.47244094488188976},{"duration":0.27272699999998906,"midi":39,"time":84.4090065,"velocity":0.47244094488188976},{"duration":0.2727270000000033,"midi":39,"time":84.47718825,"velocity":0.47244094488188976},{"duration":0.13636350000000164,"midi":31,"time":84.47718825,"velocity":0.47244094488188976},{"duration":0.13636349999998743,"midi":31,"time":84.54537,"velocity":0.47244094488188976},{"duration":0.13636349999998743,"midi":31,"time":84.54537,"velocity":0.47244094488188976},{"duration":0.13636350000000164,"midi":31,"time":84.61355175,"velocity":0.47244094488188976},{"duration":0.13636350000000164,"midi":31,"time":84.68173349999999,"velocity":0.47244094488188976},{"duration":0.13636350000000164,"midi":39,"time":84.68173349999999,"velocity":0.47244094488188976},{"duration":0.13636350000000164,"midi":31,"time":84.68173349999999,"velocity":0.47244094488188976},{"duration":0.13636350000000164,"midi":31,"time":84.74991525,"velocity":0.47244094488188976},{"duration":0.13636350000000164,"midi":31,"time":84.818097,"velocity":0.47244094488188976},{"duration":0.13636350000000164,"midi":39,"time":84.818097,"velocity":0.47244094488188976},{"duration":0.13636350000000164,"midi":31,"time":84.818097,"velocity":0.47244094488188976},{"duration":0.13636350000000164,"midi":39,"time":84.88627875,"velocity":0.47244094488188976},{"duration":0.13636350000000164,"midi":31,"time":84.88627875,"velocity":0.47244094488188976},{"duration":0.13636350000000164,"midi":31,"time":84.9544605,"velocity":0.47244094488188976},{"duration":0.13636350000000164,"midi":31,"time":84.9544605,"velocity":0.47244094488188976},{"duration":0.2727270000000033,"midi":52,"time":84.9544605,"velocity":0.47244094488188976},{"duration":0.13636350000000164,"midi":31,"time":85.02264225,"velocity":0.47244094488188976},{"duration":0.13636350000000164,"midi":31,"time":85.090824,"velocity":0.47244094488188976},{"duration":0.13636350000000164,"midi":31,"time":85.090824,"velocity":0.47244094488188976},{"duration":0.2727270000000033,"midi":52,"time":85.090824,"velocity":0.47244094488188976},{"duration":0.27272699999998906,"midi":52,"time":85.15900575,"velocity":0.47244094488188976},{"duration":0.13636349999998743,"midi":31,"time":85.15900575,"velocity":0.47244094488188976},{"duration":0.13636350000000164,"midi":31,"time":85.2271875,"velocity":0.47244094488188976},{"duration":0.13636350000000164,"midi":31,"time":85.2271875,"velocity":0.47244094488188976},{"duration":0.13636350000000164,"midi":31,"time":85.29536925,"velocity":0.47244094488188976},{"duration":0.2727270000000033,"midi":39,"time":85.363551,"velocity":0.47244094488188976},{"duration":0.13636350000000164,"midi":31,"time":85.363551,"velocity":0.47244094488188976},{"duration":0.13636350000000164,"midi":31,"time":85.363551,"velocity":0.47244094488188976},{"duration":0.13636350000000164,"midi":31,"time":85.43173275,"velocity":0.47244094488188976},{"duration":0.13636350000000164,"midi":31,"time":85.4999145,"velocity":0.47244094488188976},{"duration":0.2727270000000033,"midi":39,"time":85.4999145,"velocity":0.47244094488188976},{"duration":0.13636350000000164,"midi":31,"time":85.4999145,"velocity":0.47244094488188976},{"duration":0.13636350000000164,"midi":31,"time":85.56809625,"velocity":0.47244094488188976},{"duration":0.2727270000000033,"midi":39,"time":85.56809625,"velocity":0.47244094488188976},{"duration":0.13636350000000164,"midi":31,"time":85.636278,"velocity":0.47244094488188976},{"duration":0.13636350000000164,"midi":31,"time":85.636278,"velocity":0.47244094488188976},{"duration":0.13636350000000164,"midi":31,"time":85.70445975,"velocity":0.47244094488188976},{"duration":0.27272699999998906,"midi":39,"time":85.7726415,"velocity":0.47244094488188976},{"duration":0.13636349999998743,"midi":31,"time":85.7726415,"velocity":0.47244094488188976},{"duration":0.13636349999998743,"midi":31,"time":85.7726415,"velocity":0.47244094488188976},{"duration":0.13636350000000164,"midi":31,"time":85.84082325,"velocity":0.47244094488188976},{"duration":0.2727270000000033,"midi":39,"time":85.909005,"velocity":0.47244094488188976},{"duration":0.13636350000000164,"midi":31,"time":85.909005,"velocity":0.47244094488188976},{"duration":0.13636350000000164,"midi":31,"time":85.909005,"velocity":0.47244094488188976},{"duration":0.2727270000000033,"midi":39,"time":85.97718675,"velocity":0.47244094488188976},{"duration":0.13636350000000164,"midi":31,"time":85.97718675,"velocity":0.47244094488188976},{"duration":0.13636350000000164,"midi":31,"time":86.0453685,"velocity":0.47244094488188976},{"duration":0.13636350000000164,"midi":31,"time":86.0453685,"velocity":0.47244094488188976},{"duration":0.13636350000000164,"midi":31,"time":86.11355025,"velocity":0.47244094488188976},{"duration":0.13636350000000164,"midi":31,"time":86.181732,"velocity":0.47244094488188976},{"duration":0.13636350000000164,"midi":31,"time":86.181732,"velocity":0.47244094488188976},{"duration":0.2727270000000033,"midi":39,"time":86.181732,"velocity":0.47244094488188976},{"duration":0.13636349999998743,"midi":31,"time":86.24991375,"velocity":0.47244094488188976},{"duration":0.13636350000000164,"midi":31,"time":86.3180955,"velocity":0.47244094488188976},{"duration":0.13636350000000164,"midi":31,"time":86.3180955,"velocity":0.47244094488188976},{"duration":0.2727270000000033,"midi":39,"time":86.3180955,"velocity":0.47244094488188976},{"duration":0.2727270000000033,"midi":39,"time":86.38627724999999,"velocity":0.47244094488188976},{"duration":0.13636350000000164,"midi":31,"time":86.38627724999999,"velocity":0.47244094488188976},{"duration":0.13636350000000164,"midi":31,"time":86.454459,"velocity":0.47244094488188976},{"duration":0.13636350000000164,"midi":31,"time":86.454459,"velocity":0.47244094488188976},{"duration":0.13636350000000164,"midi":31,"time":86.52264075,"velocity":0.47244094488188976},{"duration":0.13636350000000164,"midi":31,"time":86.5908225,"velocity":0.47244094488188976},{"duration":0.13636350000000164,"midi":31,"time":86.5908225,"velocity":0.47244094488188976},{"duration":0.2727270000000033,"midi":39,"time":86.5908225,"velocity":0.47244094488188976},{"duration":0.13636350000000164,"midi":31,"time":86.65900425,"velocity":0.47244094488188976},{"duration":0.13636350000000164,"midi":31,"time":86.727186,"velocity":0.47244094488188976},{"duration":0.13636350000000164,"midi":31,"time":86.727186,"velocity":0.47244094488188976},{"duration":0.27272699999998906,"midi":39,"time":86.727186,"velocity":0.47244094488188976},{"duration":0.13636350000000164,"midi":31,"time":86.79536775,"velocity":0.47244094488188976},{"duration":0.2727270000000033,"midi":39,"time":86.79536775,"velocity":0.47244094488188976},{"duration":0.13636349999998743,"midi":31,"time":86.8635495,"velocity":0.47244094488188976},{"duration":0.13636349999998743,"midi":31,"time":86.8635495,"velocity":0.47244094488188976},{"duration":0.13636350000000164,"midi":31,"time":86.93173125,"velocity":0.47244094488188976},{"duration":0.2727270000000033,"midi":39,"time":86.99991299999999,"velocity":0.47244094488188976},{"duration":0.13636350000000164,"midi":31,"time":86.99991299999999,"velocity":0.47244094488188976},{"duration":0.13636350000000164,"midi":31,"time":86.99991299999999,"velocity":0.47244094488188976},{"duration":0.13636350000000164,"midi":31,"time":87.06809475,"velocity":0.47244094488188976},{"duration":0.13636350000000164,"midi":31,"time":87.1362765,"velocity":0.47244094488188976},{"duration":0.2727270000000033,"midi":39,"time":87.1362765,"velocity":0.47244094488188976},{"duration":0.13636350000000164,"midi":31,"time":87.1362765,"velocity":0.47244094488188976},{"duration":0.13636350000000164,"midi":31,"time":87.20445825,"velocity":0.47244094488188976},{"duration":0.2727270000000033,"midi":39,"time":87.20445825,"velocity":0.47244094488188976},{"duration":0.13636350000000164,"midi":31,"time":87.27264,"velocity":0.47244094488188976},{"duration":0.13636350000000164,"midi":31,"time":87.34082175,"velocity":0.47244094488188976}]},{"instrument":{"family":"synth lead","number":80,"name":"lead 1 (square)"},"notes":[{"duration":1.636362,"midi":39,"time":8.727264,"velocity":0.3228346456692913},{"duration":1.0909080000000007,"midi":40,"time":11.999988,"velocity":0.3228346456692913},{"duration":1.6363619999999983,"midi":39,"time":13.090896,"velocity":0.3228346456692913},{"duration":1.636362,"midi":39,"time":15.272712,"velocity":0.3228346456692913},{"duration":1.6363619999999983,"midi":39,"time":17.454528,"velocity":0.3228346456692913},{"duration":1.0909079999999989,"midi":40,"time":20.727252,"velocity":0.3228346456692913},{"duration":1.6363620000000019,"midi":39,"time":21.81816,"velocity":0.3228346456692913},{"duration":1.2272715000000005,"midi":39,"time":23.999976,"velocity":0.3228346456692913},{"duration":1.6363619999999983,"midi":39,"time":26.181792,"velocity":0.3228346456692913},{"duration":1.0909080000000024,"midi":40,"time":29.454515999999998,"velocity":0.3228346456692913},{"duration":1.6363620000000019,"midi":39,"time":30.545424,"velocity":0.3228346456692913},{"duration":1.6363619999999983,"midi":39,"time":32.72724,"velocity":0.3228346456692913},{"duration":1.6363619999999983,"midi":39,"time":52.363584,"velocity":0.3228346456692913},{"duration":1.0909079999999989,"midi":40,"time":55.636308,"velocity":0.3228346456692913},{"duration":1.6363619999999983,"midi":39,"time":56.727216,"velocity":0.3228346456692913},{"duration":1.2272715000000005,"midi":39,"time":58.909031999999996,"velocity":0.3228346456692913},{"duration":1.6363619999999983,"midi":39,"time":61.090848,"velocity":0.3228346456692913},{"duration":1.0909079999999989,"midi":40,"time":64.363572,"velocity":0.3228346456692913},{"duration":1.6363619999999912,"midi":39,"time":65.45448,"velocity":0.3228346456692913},{"duration":1.6363619999999912,"midi":39,"time":67.636296,"velocity":0.3228346456692913},{"duration":1.6363619999999912,"midi":39,"time":139.636224,"velocity":0.3228346456692913},{"duration":1.0909079999999847,"midi":40,"time":142.908948,"velocity":0.3228346456692913},{"duration":1.6363619999999912,"midi":39,"time":143.999856,"velocity":0.3228346456692913},{"duration":1.2272715000000005,"midi":39,"time":146.181672,"velocity":0.3228346456692913},{"duration":1.6363620000000196,"midi":44,"time":148.363488,"velocity":0.3228346456692913},{"duration":1.6363620000000196,"midi":47,"time":150.545304,"velocity":0.3228346456692913},{"duration":1.6363620000000196,"midi":39,"time":152.72711999999999,"velocity":0.3228346456692913},{"duration":1.6363619999999912,"midi":39,"time":154.908936,"velocity":0.3228346456692913},{"duration":1.0909079999999847,"midi":41,"time":157.090752,"velocity":0.3228346456692913},{"duration":1.0909079999999847,"midi":40,"time":159.272568,"velocity":0.3228346456692913},{"duration":1.0909079999999847,"midi":41,"time":161.454384,"velocity":0.3228346456692913},{"duration":1.0909079999999847,"midi":42,"time":163.6362,"velocity":0.3228346456692913},{"duration":1.090908000000013,"midi":46,"time":164.727108,"velocity":0.3228346456692913},{"duration":1.0909079999999847,"midi":41,"time":165.818016,"velocity":0.3228346456692913},{"duration":1.090908000000013,"midi":40,"time":167.999832,"velocity":0.3228346456692913},{"duration":1.090908000000013,"midi":41,"time":170.181648,"velocity":0.3228346456692913},{"duration":1.090908000000013,"midi":42,"time":172.363464,"velocity":0.3228346456692913},{"duration":2.045452499999982,"midi":39,"time":209.454336,"velocity":0.3228346456692913},{"duration":2.045452499999982,"midi":38,"time":211.636152,"velocity":0.3228346456692913},{"duration":2.045452499999982,"midi":39,"time":213.817968,"velocity":0.3228346456692913},{"duration":2.045452499999982,"midi":40,"time":215.999784,"velocity":0.3228346456692913},{"duration":2.045452499999982,"midi":39,"time":218.1816,"velocity":0.3228346456692913},{"duration":2.0454525000000103,"midi":38,"time":220.363416,"velocity":0.3228346456692913},{"duration":2.0454525000000103,"midi":39,"time":222.545232,"velocity":0.3228346456692913},{"duration":2.0454525000000103,"midi":40,"time":224.727048,"velocity":0.3228346456692913},{"duration":0.5454540000000065,"midi":83,"time":226.908864,"velocity":0.3228346456692913},{"duration":0.5454540000000065,"midi":71,"time":227.31795449999998,"velocity":0.3228346456692913},{"duration":0.681817499999994,"midi":79,"time":227.727045,"velocity":0.3228346456692913},{"duration":0.9545444999999972,"midi":78,"time":228.272499,"velocity":0.3228346456692913},{"duration":0.5454540000000065,"midi":83,"time":231.272496,"velocity":0.3228346456692913},{"duration":0.5454539999999781,"midi":71,"time":231.6815865,"velocity":0.3228346456692913},{"duration":0.681817499999994,"midi":79,"time":232.090677,"velocity":0.3228346456692913},{"duration":0.5454539999999781,"midi":78,"time":232.636131,"velocity":0.3228346456692913},{"duration":1.4999984999999754,"midi":72,"time":232.908858,"velocity":0.3228346456692913},{"duration":0.5454540000000065,"midi":95,"time":235.63612799999999,"velocity":0.3228346456692913},{"duration":0.5454540000000065,"midi":83,"time":236.0452185,"velocity":0.3228346456692913},{"duration":0.681817499999994,"midi":91,"time":236.454309,"velocity":0.3228346456692913},{"duration":0.9545444999999972,"midi":90,"time":236.999763,"velocity":0.3228346456692913},{"duration":0.5454539999999781,"midi":95,"time":239.99976,"velocity":0.3228346456692913},{"duration":0.5454540000000065,"midi":83,"time":240.4088505,"velocity":0.3228346456692913},{"duration":0.681817499999994,"midi":91,"time":240.817941,"velocity":0.3228346456692913},{"duration":0.5454540000000065,"midi":90,"time":241.363395,"velocity":0.3228346456692913},{"duration":1.4999985000000038,"midi":84,"time":241.636122,"velocity":0.3228346456692913},{"duration":0.5454540000000065,"midi":83,"time":244.363392,"velocity":0.3228346456692913},{"duration":0.5454540000000065,"midi":71,"time":244.7724825,"velocity":0.3228346456692913},{"duration":0.6818175000000224,"midi":79,"time":245.181573,"velocity":0.3228346456692913},{"duration":0.9545444999999972,"midi":78,"time":245.727027,"velocity":0.3228346456692913},{"duration":0.5454540000000065,"midi":95,"time":246.545208,"velocity":0.3228346456692913},{"duration":0.5454540000000065,"midi":83,"time":246.9542985,"velocity":0.3228346456692913},{"duration":0.6818175000000224,"midi":91,"time":247.36338899999998,"velocity":0.3228346456692913},{"duration":0.9545444999999972,"midi":90,"time":247.908843,"velocity":0.3228346456692913},{"duration":0.5454540000000065,"midi":83,"time":248.727024,"velocity":0.3228346456692913},{"duration":0.5454540000000065,"midi":71,"time":249.1361145,"velocity":0.3228346456692913},{"duration":0.681817499999994,"midi":79,"time":249.545205,"velocity":0.3228346456692913},{"duration":0.5454540000000065,"midi":78,"time":250.090659,"velocity":0.3228346456692913},{"duration":1.4999985000000038,"midi":72,"time":250.363386,"velocity":0.3228346456692913},{"duration":0.5454540000000065,"midi":95,"time":253.090656,"velocity":0.3228346456692913},{"duration":0.5454540000000065,"midi":83,"time":253.4997465,"velocity":0.3228346456692913},{"duration":0.681817499999994,"midi":91,"time":253.908837,"velocity":0.3228346456692913},{"duration":0.9545445000000257,"midi":90,"time":254.45429099999998,"velocity":0.3228346456692913},{"duration":0.5454539999999497,"midi":95,"time":257.454288,"velocity":0.3228346456692913},{"duration":0.5454540000000065,"midi":83,"time":257.8633785,"velocity":0.3228346456692913},{"duration":0.6818175000000224,"midi":91,"time":258.272469,"velocity":0.3228346456692913},{"duration":0.5454540000000065,"midi":90,"time":258.817923,"velocity":0.3228346456692913},{"duration":1.4999985000000038,"midi":84,"time":259.09065,"velocity":0.3228346456692913},{"duration":0.5454540000000065,"midi":83,"time":261.81792,"velocity":0.3228346456692913},{"duration":0.5454540000000065,"midi":71,"time":262.2270105,"velocity":0.3228346456692913},{"duration":0.6818175000000224,"midi":79,"time":262.636101,"velocity":0.3228346456692913},{"duration":0.9545444999999972,"midi":78,"time":263.181555,"velocity":0.3228346456692913},{"duration":0.5454540000000065,"midi":84,"time":263.999736,"velocity":0.3228346456692913},{"duration":0.5454540000000065,"midi":72,"time":264.4088265,"velocity":0.3228346456692913},{"duration":0.6818174999999655,"midi":80,"time":264.817917,"velocity":0.3228346456692913},{"duration":0.9545444999999972,"midi":79,"time":265.363371,"velocity":0.3228346456692913},{"duration":0.5454540000000065,"midi":71,"time":266.181552,"velocity":0.3228346456692913},{"duration":0.5454540000000065,"midi":59,"time":266.5906425,"velocity":0.3228346456692913},{"duration":0.6818175000000224,"midi":67,"time":266.999733,"velocity":0.3228346456692913},{"duration":0.5454540000000065,"midi":66,"time":267.545187,"velocity":0.3228346456692913},{"duration":1.4999985000000038,"midi":60,"time":267.817914,"velocity":0.3228346456692913},{"duration":0.5454540000000065,"midi":95,"time":270.545184,"velocity":0.3228346456692913},{"duration":0.5454540000000065,"midi":83,"time":270.9542745,"velocity":0.3228346456692913},{"duration":0.6818175000000224,"midi":91,"time":271.363365,"velocity":0.3228346456692913},{"duration":0.9545444999999972,"midi":90,"time":271.908819,"velocity":0.3228346456692913},{"duration":0.5454540000000065,"midi":95,"time":274.908816,"velocity":0.3228346456692913},{"duration":0.5454540000000065,"midi":83,"time":275.3179065,"velocity":0.3228346456692913},{"duration":0.6818175000000224,"midi":91,"time":275.726997,"velocity":0.3228346456692913},{"duration":0.5454540000000065,"midi":90,"time":276.272451,"velocity":0.3228346456692913},{"duration":1.4999985000000038,"midi":84,"time":276.545178,"velocity":0.3228346456692913}]},{"instrument":{"family":"synth lead","number":81,"name":"lead 2 (sawtooth)"},"notes":[{"duration":0.06818175000000082,"midi":58,"time":17.454528,"velocity":0.41732283464566927},{"duration":0.06818175000000082,"midi":58,"time":17.52270975,"velocity":0.41732283464566927},{"duration":0.06818175000000082,"midi":63,"time":17.52270975,"velocity":0.41732283464566927},{"duration":0.06818174999999727,"midi":63,"time":17.5908915,"velocity":0.41732283464566927},{"duration":0.06818174999999727,"midi":58,"time":17.5908915,"velocity":0.41732283464566927},{"duration":0.06818175000000082,"midi":58,"time":17.65907325,"velocity":0.41732283464566927},{"duration":0.06818175000000082,"midi":63,"time":17.65907325,"velocity":0.41732283464566927},{"duration":0.06818175000000082,"midi":63,"time":17.727255,"velocity":0.41732283464566927},{"duration":0.06818175000000082,"midi":58,"time":17.727255,"velocity":0.41732283464566927},{"duration":0.06818175000000082,"midi":63,"time":17.79543675,"velocity":0.41732283464566927},{"duration":0.06818175000000082,"midi":58,"time":17.79543675,"velocity":0.41732283464566927},{"duration":0.06818174999999727,"midi":63,"time":17.8636185,"velocity":0.41732283464566927},{"duration":0.06818174999999727,"midi":58,"time":17.8636185,"velocity":0.41732283464566927},{"duration":0.06818175000000082,"midi":58,"time":17.93180025,"velocity":0.41732283464566927},{"duration":0.06818175000000082,"midi":63,"time":17.93180025,"velocity":0.41732283464566927},{"duration":0.06818175000000082,"midi":63,"time":17.999982,"velocity":0.41732283464566927},{"duration":0.06818175000000082,"midi":69,"time":17.999982,"velocity":0.41732283464566927},{"duration":0.06818175000000082,"midi":74,"time":18.06816375,"velocity":0.41732283464566927},{"duration":0.06818175000000082,"midi":69,"time":18.06816375,"velocity":0.41732283464566927},{"duration":0.06818174999999727,"midi":69,"time":18.1363455,"velocity":0.41732283464566927},{"duration":0.06818174999999727,"midi":74,"time":18.1363455,"velocity":0.41732283464566927},{"duration":0.06818175000000082,"midi":69,"time":18.204527249999998,"velocity":0.41732283464566927},{"duration":0.06818175000000082,"midi":74,"time":18.204527249999998,"velocity":0.41732283464566927},{"duration":0.06818175000000082,"midi":74,"time":18.272709,"velocity":0.41732283464566927},{"duration":0.06818175000000082,"midi":69,"time":18.272709,"velocity":0.41732283464566927},{"duration":0.06818175000000082,"midi":69,"time":18.34089075,"velocity":0.41732283464566927},{"duration":0.06818175000000082,"midi":74,"time":18.34089075,"velocity":0.41732283464566927},{"duration":0.06818175000000082,"midi":69,"time":18.4090725,"velocity":0.41732283464566927},{"duration":0.06818175000000082,"midi":74,"time":18.4090725,"velocity":0.41732283464566927},{"duration":0.06818174999999727,"midi":69,"time":18.47725425,"velocity":0.41732283464566927},{"duration":0.06818174999999727,"midi":74,"time":18.47725425,"velocity":0.41732283464566927},{"duration":0.06818175000000082,"midi":66,"time":18.545436,"velocity":0.41732283464566927},{"duration":0.06818175000000082,"midi":74,"time":18.545436,"velocity":0.41732283464566927},{"duration":0.06818175000000082,"midi":71,"time":18.61361775,"velocity":0.41732283464566927},{"duration":0.06818175000000082,"midi":66,"time":18.61361775,"velocity":0.41732283464566927},{"duration":0.06818175000000082,"midi":66,"time":18.6817995,"velocity":0.41732283464566927},{"duration":0.06818175000000082,"midi":71,"time":18.6817995,"velocity":0.41732283464566927},{"duration":0.06818174999999727,"midi":66,"time":18.74998125,"velocity":0.41732283464566927},{"duration":0.06818174999999727,"midi":71,"time":18.74998125,"velocity":0.41732283464566927},{"duration":0.06818175000000082,"midi":71,"time":18.818163,"velocity":0.41732283464566927},{"duration":0.06818175000000082,"midi":66,"time":18.818163,"velocity":0.41732283464566927},{"duration":0.06818175000000082,"midi":71,"time":18.88634475,"velocity":0.41732283464566927},{"duration":0.06818175000000082,"midi":66,"time":18.88634475,"velocity":0.41732283464566927},{"duration":0.06818175000000082,"midi":71,"time":18.9545265,"velocity":0.41732283464566927},{"duration":0.06818175000000082,"midi":66,"time":18.9545265,"velocity":0.41732283464566927},{"duration":0.06818174999999727,"midi":66,"time":19.02270825,"velocity":0.41732283464566927},{"duration":0.06818174999999727,"midi":71,"time":19.02270825,"velocity":0.41732283464566927},{"duration":0.06818175000000082,"midi":71,"time":19.090889999999998,"velocity":0.41732283464566927},{"duration":0.06818175000000082,"midi":65,"time":19.090889999999998,"velocity":0.41732283464566927},{"duration":0.06818175000000082,"midi":70,"time":19.15907175,"velocity":0.41732283464566927},{"duration":0.06818175000000082,"midi":65,"time":19.15907175,"velocity":0.41732283464566927},{"duration":0.06818175000000082,"midi":65,"time":19.2272535,"velocity":0.41732283464566927},{"duration":0.06818175000000082,"midi":70,"time":19.2272535,"velocity":0.41732283464566927},{"duration":0.06818175000000082,"midi":70,"time":19.29543525,"velocity":0.41732283464566927},{"duration":0.06818175000000082,"midi":65,"time":19.29543525,"velocity":0.41732283464566927},{"duration":0.06818174999999727,"midi":65,"time":19.363617,"velocity":0.41732283464566927},{"duration":0.06818174999999727,"midi":70,"time":19.363617,"velocity":0.41732283464566927},{"duration":0.06818175000000082,"midi":70,"time":19.43179875,"velocity":0.41732283464566927},{"duration":0.06818175000000082,"midi":65,"time":19.43179875,"velocity":0.41732283464566927},{"duration":0.06818175000000082,"midi":65,"time":19.4999805,"velocity":0.41732283464566927},{"duration":0.06818175000000082,"midi":70,"time":19.4999805,"velocity":0.41732283464566927},{"duration":0.06818175000000082,"midi":70,"time":19.56816225,"velocity":0.41732283464566927},{"duration":0.06818175000000082,"midi":65,"time":19.56816225,"velocity":0.41732283464566927},{"duration":0.06818174999999727,"midi":70,"time":19.636344,"velocity":0.41732283464566927},{"duration":0.06818174999999727,"midi":70,"time":19.636344,"velocity":0.41732283464566927},{"duration":0.06818175000000082,"midi":70,"time":19.70452575,"velocity":0.41732283464566927},{"duration":0.06818175000000082,"midi":75,"time":19.70452575,"velocity":0.41732283464566927},{"duration":0.06818175000000082,"midi":70,"time":19.7727075,"velocity":0.41732283464566927},{"duration":0.06818175000000082,"midi":75,"time":19.7727075,"velocity":0.41732283464566927},{"duration":0.06818175000000082,"midi":75,"time":19.84088925,"velocity":0.41732283464566927},{"duration":0.06818175000000082,"midi":70,"time":19.84088925,"velocity":0.41732283464566927},{"duration":0.06818174999999727,"midi":75,"time":19.909071,"velocity":0.41732283464566927},{"duration":0.06818174999999727,"midi":70,"time":19.909071,"velocity":0.41732283464566927},{"duration":0.06818175000000082,"midi":75,"time":19.977252749999998,"velocity":0.41732283464566927},{"duration":0.06818175000000082,"midi":70,"time":19.977252749999998,"velocity":0.41732283464566927},{"duration":0.06818175000000082,"midi":70,"time":20.0454345,"velocity":0.41732283464566927},{"duration":0.06818175000000082,"midi":75,"time":20.0454345,"velocity":0.41732283464566927},{"duration":0.06818175000000082,"midi":75,"time":20.11361625,"velocity":0.41732283464566927},{"duration":0.06818175000000082,"midi":70,"time":20.11361625,"velocity":0.41732283464566927},{"duration":0.06818175000000082,"midi":75,"time":20.181798,"velocity":0.41732283464566927},{"duration":0.06818175000000082,"midi":69,"time":20.181798,"velocity":0.41732283464566927},{"duration":0.06818174999999727,"midi":69,"time":20.24997975,"velocity":0.41732283464566927},{"duration":0.06818174999999727,"midi":74,"time":20.24997975,"velocity":0.41732283464566927},{"duration":0.06818175000000082,"midi":69,"time":20.3181615,"velocity":0.41732283464566927},{"duration":0.06818175000000082,"midi":74,"time":20.3181615,"velocity":0.41732283464566927},{"duration":0.06818175000000082,"midi":69,"time":20.38634325,"velocity":0.41732283464566927},{"duration":0.06818175000000082,"midi":74,"time":20.38634325,"velocity":0.41732283464566927},{"duration":0.06818175000000082,"midi":74,"time":20.454525,"velocity":0.41732283464566927},{"duration":0.06818175000000082,"midi":69,"time":20.454525,"velocity":0.41732283464566927},{"duration":0.06818174999999727,"midi":69,"time":20.52270675,"velocity":0.41732283464566927},{"duration":0.06818174999999727,"midi":74,"time":20.52270675,"velocity":0.41732283464566927},{"duration":0.06818175000000082,"midi":69,"time":20.5908885,"velocity":0.41732283464566927},{"duration":0.06818175000000082,"midi":74,"time":20.5908885,"velocity":0.41732283464566927},{"duration":0.06818175000000082,"midi":69,"time":20.65907025,"velocity":0.41732283464566927},{"duration":0.06818175000000082,"midi":74,"time":20.65907025,"velocity":0.41732283464566927},{"duration":0.06818175000000082,"midi":66,"time":20.727252,"velocity":0.41732283464566927},{"duration":0.06818175000000082,"midi":74,"time":20.727252,"velocity":0.41732283464566927},{"duration":0.06818174999999727,"midi":71,"time":20.79543375,"velocity":0.41732283464566927},{"duration":0.06818174999999727,"midi":66,"time":20.79543375,"velocity":0.41732283464566927},{"duration":0.06818175000000082,"midi":71,"time":20.863615499999998,"velocity":0.41732283464566927},{"duration":0.06818175000000082,"midi":66,"time":20.863615499999998,"velocity":0.41732283464566927},{"duration":0.06818175000000082,"midi":66,"time":20.93179725,"velocity":0.41732283464566927},{"duration":0.06818175000000082,"midi":71,"time":20.93179725,"velocity":0.41732283464566927},{"duration":0.06818175000000082,"midi":66,"time":20.999979,"velocity":0.41732283464566927},{"duration":0.06818175000000082,"midi":71,"time":20.999979,"velocity":0.41732283464566927},{"duration":0.06818175000000082,"midi":66,"time":21.06816075,"velocity":0.41732283464566927},{"duration":0.06818175000000082,"midi":71,"time":21.06816075,"velocity":0.41732283464566927},{"duration":0.06818174999999727,"midi":71,"time":21.1363425,"velocity":0.41732283464566927},{"duration":0.06818174999999727,"midi":66,"time":21.1363425,"velocity":0.41732283464566927},{"duration":0.06818175000000082,"midi":71,"time":21.20452425,"velocity":0.41732283464566927},{"duration":0.06818175000000082,"midi":66,"time":21.20452425,"velocity":0.41732283464566927},{"duration":0.06818175000000082,"midi":65,"time":21.272706,"velocity":0.41732283464566927},{"duration":0.06818175000000082,"midi":71,"time":21.272706,"velocity":0.41732283464566927},{"duration":0.06818175000000082,"midi":70,"time":21.34088775,"velocity":0.41732283464566927},{"duration":0.06818175000000082,"midi":65,"time":21.34088775,"velocity":0.41732283464566927},{"duration":0.06818174999999727,"midi":70,"time":21.4090695,"velocity":0.41732283464566927},{"duration":0.06818174999999727,"midi":65,"time":21.4090695,"velocity":0.41732283464566927},{"duration":0.06818175000000082,"midi":70,"time":21.47725125,"velocity":0.41732283464566927},{"duration":0.06818175000000082,"midi":65,"time":21.47725125,"velocity":0.41732283464566927},{"duration":0.06818175000000082,"midi":70,"time":21.545433,"velocity":0.41732283464566927},{"duration":0.06818175000000082,"midi":65,"time":21.545433,"velocity":0.41732283464566927},{"duration":0.06818175000000082,"midi":65,"time":21.61361475,"velocity":0.41732283464566927},{"duration":0.06818175000000082,"midi":70,"time":21.61361475,"velocity":0.41732283464566927},{"duration":0.06818174999999727,"midi":70,"time":21.6817965,"velocity":0.41732283464566927},{"duration":0.06818174999999727,"midi":65,"time":21.6817965,"velocity":0.41732283464566927},{"duration":0.06818175000000082,"midi":70,"time":21.749978249999998,"velocity":0.41732283464566927},{"duration":0.06818175000000082,"midi":65,"time":21.749978249999998,"velocity":0.41732283464566927},{"duration":0.06818175000000082,"midi":63,"time":21.81816,"velocity":0.41732283464566927},{"duration":0.06818175000000082,"midi":70,"time":21.81816,"velocity":0.41732283464566927},{"duration":0.06818175000000082,"midi":68,"time":21.88634175,"velocity":0.41732283464566927},{"duration":0.06818175000000082,"midi":63,"time":21.88634175,"velocity":0.41732283464566927},{"duration":0.06818175000000082,"midi":63,"time":21.9545235,"velocity":0.41732283464566927},{"duration":0.06818175000000082,"midi":68,"time":21.9545235,"velocity":0.41732283464566927},{"duration":0.06818174999999727,"midi":68,"time":22.02270525,"velocity":0.41732283464566927},{"duration":0.06818174999999727,"midi":63,"time":22.02270525,"velocity":0.41732283464566927},{"duration":0.06818175000000082,"midi":68,"time":22.090887,"velocity":0.41732283464566927},{"duration":0.06818175000000082,"midi":63,"time":22.090887,"velocity":0.41732283464566927},{"duration":0.06818175000000082,"midi":63,"time":22.15906875,"velocity":0.41732283464566927},{"duration":0.06818175000000082,"midi":68,"time":22.15906875,"velocity":0.41732283464566927},{"duration":0.06818175000000082,"midi":63,"time":22.2272505,"velocity":0.41732283464566927},{"duration":0.06818175000000082,"midi":68,"time":22.2272505,"velocity":0.41732283464566927},{"duration":0.06818174999999727,"midi":68,"time":22.29543225,"velocity":0.41732283464566927},{"duration":0.06818174999999727,"midi":63,"time":22.29543225,"velocity":0.41732283464566927},{"duration":0.06818175000000082,"midi":68,"time":22.363614,"velocity":0.41732283464566927},{"duration":0.06818175000000082,"midi":62,"time":22.363614,"velocity":0.41732283464566927},{"duration":0.06818175000000082,"midi":67,"time":22.43179575,"velocity":0.41732283464566927},{"duration":0.06818175000000082,"midi":62,"time":22.43179575,"velocity":0.41732283464566927},{"duration":0.06818175000000082,"midi":62,"time":22.4999775,"velocity":0.41732283464566927},{"duration":0.06818175000000082,"midi":67,"time":22.4999775,"velocity":0.41732283464566927},{"duration":0.06818174999999727,"midi":67,"time":22.56815925,"velocity":0.41732283464566927},{"duration":0.06818174999999727,"midi":62,"time":22.56815925,"velocity":0.41732283464566927},{"duration":0.06818175000000082,"midi":62,"time":22.636340999999998,"velocity":0.41732283464566927},{"duration":0.06818175000000082,"midi":67,"time":22.636340999999998,"velocity":0.41732283464566927},{"duration":0.06818175000000082,"midi":62,"time":22.70452275,"velocity":0.41732283464566927},{"duration":0.06818175000000082,"midi":67,"time":22.70452275,"velocity":0.41732283464566927},{"duration":0.06818175000000082,"midi":67,"time":22.7727045,"velocity":0.41732283464566927},{"duration":0.06818175000000082,"midi":62,"time":22.7727045,"velocity":0.41732283464566927},{"duration":0.06818175000000082,"midi":67,"time":22.84088625,"velocity":0.41732283464566927},{"duration":0.06818175000000082,"midi":62,"time":22.84088625,"velocity":0.41732283464566927},{"duration":0.06818174999999727,"midi":67,"time":22.909068,"velocity":0.41732283464566927},{"duration":0.06818174999999727,"midi":62,"time":22.909068,"velocity":0.41732283464566927},{"duration":0.06818175000000082,"midi":67,"time":22.97724975,"velocity":0.41732283464566927},{"duration":0.06818175000000082,"midi":62,"time":22.97724975,"velocity":0.41732283464566927},{"duration":0.06818175000000082,"midi":67,"time":23.0454315,"velocity":0.41732283464566927},{"duration":0.06818175000000082,"midi":62,"time":23.0454315,"velocity":0.41732283464566927},{"duration":0.06818175000000082,"midi":67,"time":23.11361325,"velocity":0.41732283464566927},{"duration":0.06818175000000082,"midi":62,"time":23.11361325,"velocity":0.41732283464566927},{"duration":0.06818174999999727,"midi":62,"time":23.181795,"velocity":0.41732283464566927},{"duration":0.06818174999999727,"midi":67,"time":23.181795,"velocity":0.41732283464566927},{"duration":0.06818175000000082,"midi":67,"time":23.24997675,"velocity":0.41732283464566927},{"duration":0.06818175000000082,"midi":62,"time":23.24997675,"velocity":0.41732283464566927},{"duration":0.06818175000000082,"midi":67,"time":23.3181585,"velocity":0.41732283464566927},{"duration":0.06818175000000082,"midi":62,"time":23.3181585,"velocity":0.41732283464566927},{"duration":0.06818175000000082,"midi":62,"time":23.38634025,"velocity":0.41732283464566927},{"duration":0.06818175000000082,"midi":67,"time":23.38634025,"velocity":0.41732283464566927},{"duration":0.06818174999999727,"midi":62,"time":23.454522,"velocity":0.41732283464566927},{"duration":0.06818174999999727,"midi":67,"time":23.454522,"velocity":0.41732283464566927},{"duration":0.06818175000000082,"midi":62,"time":23.522703749999998,"velocity":0.41732283464566927},{"duration":0.06818175000000082,"midi":67,"time":23.522703749999998,"velocity":0.41732283464566927},{"duration":0.06818175000000082,"midi":67,"time":23.5908855,"velocity":0.41732283464566927},{"duration":0.06818175000000082,"midi":62,"time":23.5908855,"velocity":0.41732283464566927},{"duration":0.06818175000000082,"midi":67,"time":23.65906725,"velocity":0.41732283464566927},{"duration":0.06818175000000082,"midi":62,"time":23.65906725,"velocity":0.41732283464566927},{"duration":0.06818175000000082,"midi":67,"time":23.727249,"velocity":0.41732283464566927},{"duration":0.06818175000000082,"midi":62,"time":23.727249,"velocity":0.41732283464566927},{"duration":0.06818174999999727,"midi":67,"time":23.79543075,"velocity":0.41732283464566927},{"duration":0.06818174999999727,"midi":62,"time":23.79543075,"velocity":0.41732283464566927},{"duration":0.06818175000000082,"midi":67,"time":23.8636125,"velocity":0.41732283464566927},{"duration":0.06818175000000082,"midi":62,"time":23.8636125,"velocity":0.41732283464566927},{"duration":0.06818175000000082,"midi":67,"time":23.93179425,"velocity":0.41732283464566927},{"duration":0.06818175000000082,"midi":62,"time":23.93179425,"velocity":0.41732283464566927},{"duration":0.06818175000000082,"midi":67,"time":23.999976,"velocity":0.41732283464566927},{"duration":0.06818174999999727,"midi":58,"time":26.181792,"velocity":0.41732283464566927},{"duration":0.06818175000000082,"midi":58,"time":26.24997375,"velocity":0.41732283464566927},{"duration":0.06818175000000082,"midi":63,"time":26.24997375,"velocity":0.41732283464566927},{"duration":0.06818175000000082,"midi":58,"time":26.3181555,"velocity":0.41732283464566927},{"duration":0.06818175000000082,"midi":63,"time":26.3181555,"velocity":0.41732283464566927},{"duration":0.06818175000000082,"midi":58,"time":26.38633725,"velocity":0.41732283464566927},{"duration":0.06818175000000082,"midi":63,"time":26.38633725,"velocity":0.41732283464566927},{"duration":0.06818174999999727,"midi":63,"time":26.454519,"velocity":0.41732283464566927},{"duration":0.06818174999999727,"midi":58,"time":26.454519,"velocity":0.41732283464566927},{"duration":0.06818175000000082,"midi":63,"time":26.52270075,"velocity":0.41732283464566927},{"duration":0.06818175000000082,"midi":58,"time":26.52270075,"velocity":0.41732283464566927},{"duration":0.06818175000000082,"midi":58,"time":26.5908825,"velocity":0.41732283464566927},{"duration":0.06818175000000082,"midi":63,"time":26.5908825,"velocity":0.41732283464566927},{"duration":0.06818175000000082,"midi":58,"time":26.65906425,"velocity":0.41732283464566927},{"duration":0.06818175000000082,"midi":63,"time":26.65906425,"velocity":0.41732283464566927},{"duration":0.06818174999999727,"midi":69,"time":26.727246,"velocity":0.41732283464566927},{"duration":0.06818174999999727,"midi":63,"time":26.727246,"velocity":0.41732283464566927},{"duration":0.06818175000000082,"midi":74,"time":26.795427749999998,"velocity":0.41732283464566927},{"duration":0.06818175000000082,"midi":69,"time":26.795427749999998,"velocity":0.41732283464566927},{"duration":0.06818175000000082,"midi":74,"time":26.8636095,"velocity":0.41732283464566927},{"duration":0.06818175000000082,"midi":69,"time":26.8636095,"velocity":0.41732283464566927},{"duration":0.06818175000000082,"midi":69,"time":26.93179125,"velocity":0.41732283464566927},{"duration":0.06818175000000082,"midi":74,"time":26.93179125,"velocity":0.41732283464566927},{"duration":0.06818175000000082,"midi":74,"time":26.999973,"velocity":0.41732283464566927},{"duration":0.06818175000000082,"midi":69,"time":26.999973,"velocity":0.41732283464566927},{"duration":0.06818174999999727,"midi":69,"time":27.06815475,"velocity":0.41732283464566927},{"duration":0.06818174999999727,"midi":74,"time":27.06815475,"velocity":0.41732283464566927},{"duration":0.06818175000000082,"midi":69,"time":27.1363365,"velocity":0.41732283464566927},{"duration":0.06818175000000082,"midi":74,"time":27.1363365,"velocity":0.41732283464566927},{"duration":0.06818175000000082,"midi":74,"time":27.20451825,"velocity":0.41732283464566927},{"duration":0.06818175000000082,"midi":69,"time":27.20451825,"velocity":0.41732283464566927},{"duration":0.06818175000000082,"midi":66,"time":27.2727,"velocity":0.41732283464566927},{"duration":0.06818175000000082,"midi":74,"time":27.2727,"velocity":0.41732283464566927},{"duration":0.06818174999999727,"midi":71,"time":27.34088175,"velocity":0.41732283464566927},{"duration":0.06818174999999727,"midi":66,"time":27.34088175,"velocity":0.41732283464566927},{"duration":0.06818175000000082,"midi":71,"time":27.4090635,"velocity":0.41732283464566927},{"duration":0.06818175000000082,"midi":66,"time":27.4090635,"velocity":0.41732283464566927},{"duration":0.06818175000000082,"midi":71,"time":27.47724525,"velocity":0.41732283464566927},{"duration":0.06818175000000082,"midi":66,"time":27.47724525,"velocity":0.41732283464566927},{"duration":0.06818175000000082,"midi":71,"time":27.545427,"velocity":0.41732283464566927},{"duration":0.06818175000000082,"midi":66,"time":27.545427,"velocity":0.41732283464566927},{"duration":0.06818174999999727,"midi":66,"time":27.61360875,"velocity":0.41732283464566927},{"duration":0.06818174999999727,"midi":71,"time":27.61360875,"velocity":0.41732283464566927},{"duration":0.06818175000000082,"midi":66,"time":27.681790499999998,"velocity":0.41732283464566927},{"duration":0.06818175000000082,"midi":71,"time":27.681790499999998,"velocity":0.41732283464566927},{"duration":0.06818175000000082,"midi":71,"time":27.74997225,"velocity":0.41732283464566927},{"duration":0.06818175000000082,"midi":66,"time":27.74997225,"velocity":0.41732283464566927},{"duration":0.06818175000000082,"midi":65,"time":27.818154,"velocity":0.41732283464566927},{"duration":0.06818175000000082,"midi":71,"time":27.818154,"velocity":0.41732283464566927},{"duration":0.06818175000000082,"midi":65,"time":27.88633575,"velocity":0.41732283464566927},{"duration":0.06818175000000082,"midi":70,"time":27.88633575,"velocity":0.41732283464566927},{"duration":0.06818174999999727,"midi":65,"time":27.9545175,"velocity":0.41732283464566927},{"duration":0.06818174999999727,"midi":70,"time":27.9545175,"velocity":0.41732283464566927},{"duration":0.06818175000000082,"midi":65,"time":28.02269925,"velocity":0.41732283464566927},{"duration":0.06818175000000082,"midi":70,"time":28.02269925,"velocity":0.41732283464566927},{"duration":0.06818175000000082,"midi":65,"time":28.090881,"velocity":0.41732283464566927},{"duration":0.06818175000000082,"midi":70,"time":28.090881,"velocity":0.41732283464566927},{"duration":0.06818175000000082,"midi":70,"time":28.15906275,"velocity":0.41732283464566927},{"duration":0.06818175000000082,"midi":65,"time":28.15906275,"velocity":0.41732283464566927},{"duration":0.06818174999999727,"midi":65,"time":28.2272445,"velocity":0.41732283464566927},{"duration":0.06818174999999727,"midi":70,"time":28.2272445,"velocity":0.41732283464566927},{"duration":0.06818175000000082,"midi":70,"time":28.29542625,"velocity":0.41732283464566927},{"duration":0.06818175000000082,"midi":65,"time":28.29542625,"velocity":0.41732283464566927},{"duration":0.06818175000000082,"midi":70,"time":28.363608,"velocity":0.41732283464566927},{"duration":0.06818175000000082,"midi":70,"time":28.363608,"velocity":0.41732283464566927},{"duration":0.06818175000000082,"midi":75,"time":28.43178975,"velocity":0.41732283464566927},{"duration":0.06818175000000082,"midi":70,"time":28.43178975,"velocity":0.41732283464566927},{"duration":0.06818174999999727,"midi":75,"time":28.4999715,"velocity":0.41732283464566927},{"duration":0.06818174999999727,"midi":70,"time":28.4999715,"velocity":0.41732283464566927},{"duration":0.06818175000000082,"midi":70,"time":28.568153249999998,"velocity":0.41732283464566927},{"duration":0.06818175000000082,"midi":75,"time":28.568153249999998,"velocity":0.41732283464566927},{"duration":0.06818175000000082,"midi":75,"time":28.636335,"velocity":0.41732283464566927},{"duration":0.06818175000000082,"midi":70,"time":28.636335,"velocity":0.41732283464566927},{"duration":0.06818175000000082,"midi":70,"time":28.70451675,"velocity":0.41732283464566927},{"duration":0.06818175000000082,"midi":75,"time":28.70451675,"velocity":0.41732283464566927},{"duration":0.06818175000000082,"midi":70,"time":28.7726985,"velocity":0.41732283464566927},{"duration":0.06818175000000082,"midi":75,"time":28.7726985,"velocity":0.41732283464566927},{"duration":0.06818174999999727,"midi":75,"time":28.84088025,"velocity":0.41732283464566927},{"duration":0.06818174999999727,"midi":70,"time":28.84088025,"velocity":0.41732283464566927},{"duration":0.06818175000000082,"midi":69,"time":28.909062,"velocity":0.41732283464566927},{"duration":0.06818175000000082,"midi":75,"time":28.909062,"velocity":0.41732283464566927},{"duration":0.06818175000000082,"midi":69,"time":28.97724375,"velocity":0.41732283464566927},{"duration":0.06818175000000082,"midi":74,"time":28.97724375,"velocity":0.41732283464566927},{"duration":0.06818175000000082,"midi":74,"time":29.0454255,"velocity":0.41732283464566927},{"duration":0.06818175000000082,"midi":69,"time":29.0454255,"velocity":0.41732283464566927},{"duration":0.06818174999999727,"midi":69,"time":29.11360725,"velocity":0.41732283464566927},{"duration":0.06818174999999727,"midi":74,"time":29.11360725,"velocity":0.41732283464566927},{"duration":0.06818175000000082,"midi":74,"time":29.181789,"velocity":0.41732283464566927},{"duration":0.06818175000000082,"midi":69,"time":29.181789,"velocity":0.41732283464566927},{"duration":0.06818175000000082,"midi":74,"time":29.24997075,"velocity":0.41732283464566927},{"duration":0.06818175000000082,"midi":69,"time":29.24997075,"velocity":0.41732283464566927},{"duration":0.06818175000000082,"midi":74,"time":29.3181525,"velocity":0.41732283464566927},{"duration":0.06818175000000082,"midi":69,"time":29.3181525,"velocity":0.41732283464566927},{"duration":0.06818174999999727,"midi":74,"time":29.38633425,"velocity":0.41732283464566927},{"duration":0.06818174999999727,"midi":69,"time":29.38633425,"velocity":0.41732283464566927},{"duration":0.06818175000000082,"midi":66,"time":29.454515999999998,"velocity":0.41732283464566927},{"duration":0.06818175000000082,"midi":74,"time":29.454515999999998,"velocity":0.41732283464566927},{"duration":0.06818175000000082,"midi":66,"time":29.52269775,"velocity":0.41732283464566927},{"duration":0.06818175000000082,"midi":71,"time":29.52269775,"velocity":0.41732283464566927},{"duration":0.06818175000000082,"midi":71,"time":29.5908795,"velocity":0.41732283464566927},{"duration":0.06818175000000082,"midi":66,"time":29.5908795,"velocity":0.41732283464566927},{"duration":0.06818175000000082,"midi":71,"time":29.65906125,"velocity":0.41732283464566927},{"duration":0.06818175000000082,"midi":66,"time":29.65906125,"velocity":0.41732283464566927},{"duration":0.06818174999999727,"midi":71,"time":29.727243,"velocity":0.41732283464566927},{"duration":0.06818174999999727,"midi":66,"time":29.727243,"velocity":0.41732283464566927},{"duration":0.06818175000000082,"midi":71,"time":29.79542475,"velocity":0.41732283464566927},{"duration":0.06818175000000082,"midi":66,"time":29.79542475,"velocity":0.41732283464566927},{"duration":0.06818175000000082,"midi":71,"time":29.8636065,"velocity":0.41732283464566927},{"duration":0.06818175000000082,"midi":66,"time":29.8636065,"velocity":0.41732283464566927},{"duration":0.06818175000000082,"midi":71,"time":29.93178825,"velocity":0.41732283464566927},{"duration":0.06818175000000082,"midi":66,"time":29.93178825,"velocity":0.41732283464566927},{"duration":0.06818174999999727,"midi":71,"time":29.99997,"velocity":0.41732283464566927},{"duration":0.06818174999999727,"midi":71,"time":29.99997,"velocity":0.41732283464566927},{"duration":0.06818175000000082,"midi":71,"time":30.06815175,"velocity":0.41732283464566927},{"duration":0.06818175000000082,"midi":76,"time":30.06815175,"velocity":0.41732283464566927},{"duration":0.06818175000000082,"midi":76,"time":30.1363335,"velocity":0.41732283464566927},{"duration":0.06818175000000082,"midi":71,"time":30.1363335,"velocity":0.41732283464566927},{"duration":0.06818175000000082,"midi":71,"time":30.20451525,"velocity":0.41732283464566927},{"duration":0.06818175000000082,"midi":76,"time":30.20451525,"velocity":0.41732283464566927},{"duration":0.06818174999999727,"midi":76,"time":30.272697,"velocity":0.41732283464566927},{"duration":0.06818174999999727,"midi":71,"time":30.272697,"velocity":0.41732283464566927},{"duration":0.06818175000000082,"midi":71,"time":30.340878749999998,"velocity":0.41732283464566927},{"duration":0.06818175000000082,"midi":76,"time":30.340878749999998,"velocity":0.41732283464566927},{"duration":0.06818175000000082,"midi":71,"time":30.4090605,"velocity":0.41732283464566927},{"duration":0.06818175000000082,"midi":76,"time":30.4090605,"velocity":0.41732283464566927},{"duration":0.06818175000000082,"midi":76,"time":30.47724225,"velocity":0.41732283464566927},{"duration":0.06818175000000082,"midi":71,"time":30.47724225,"velocity":0.41732283464566927},{"duration":0.06818175000000082,"midi":76,"time":30.545424,"velocity":0.41732283464566927},{"duration":0.06818175000000082,"midi":70,"time":30.545424,"velocity":0.41732283464566927},{"duration":0.06818174999999727,"midi":75,"time":30.61360575,"velocity":0.41732283464566927},{"duration":0.06818174999999727,"midi":70,"time":30.61360575,"velocity":0.41732283464566927},{"duration":0.06818175000000082,"midi":75,"time":30.6817875,"velocity":0.41732283464566927},{"duration":0.06818175000000082,"midi":70,"time":30.6817875,"velocity":0.41732283464566927},{"duration":0.06818175000000082,"midi":70,"time":30.74996925,"velocity":0.41732283464566927},{"duration":0.06818175000000082,"midi":75,"time":30.74996925,"velocity":0.41732283464566927},{"duration":0.06818175000000082,"midi":70,"time":30.818151,"velocity":0.41732283464566927},{"duration":0.06818175000000082,"midi":75,"time":30.818151,"velocity":0.41732283464566927},{"duration":0.06818174999999727,"midi":75,"time":30.88633275,"velocity":0.41732283464566927},{"duration":0.06818174999999727,"midi":70,"time":30.88633275,"velocity":0.41732283464566927},{"duration":0.06818175000000082,"midi":70,"time":30.9545145,"velocity":0.41732283464566927},{"duration":0.06818175000000082,"midi":75,"time":30.9545145,"velocity":0.41732283464566927},{"duration":0.06818175000000082,"midi":75,"time":31.02269625,"velocity":0.41732283464566927},{"duration":0.06818175000000082,"midi":70,"time":31.02269625,"velocity":0.41732283464566927},{"duration":0.06818175000000082,"midi":70,"time":31.090878,"velocity":0.41732283464566927},{"duration":0.06818175000000082,"midi":75,"time":31.090878,"velocity":0.41732283464566927},{"duration":0.06818174999999727,"midi":75,"time":31.15905975,"velocity":0.41732283464566927},{"duration":0.06818174999999727,"midi":70,"time":31.15905975,"velocity":0.41732283464566927},{"duration":0.06818175000000082,"midi":75,"time":31.227241499999998,"velocity":0.41732283464566927},{"duration":0.06818175000000082,"midi":70,"time":31.227241499999998,"velocity":0.41732283464566927},{"duration":0.06818175000000082,"midi":70,"time":31.29542325,"velocity":0.41732283464566927},{"duration":0.06818175000000082,"midi":75,"time":31.29542325,"velocity":0.41732283464566927},{"duration":0.06818175000000082,"midi":75,"time":31.363605,"velocity":0.41732283464566927},{"duration":0.06818175000000082,"midi":70,"time":31.363605,"velocity":0.41732283464566927},{"duration":0.06818175000000082,"midi":70,"time":31.43178675,"velocity":0.41732283464566927},{"duration":0.06818175000000082,"midi":75,"time":31.43178675,"velocity":0.41732283464566927},{"duration":0.06818174999999727,"midi":75,"time":31.4999685,"velocity":0.41732283464566927},{"duration":0.06818174999999727,"midi":70,"time":31.4999685,"velocity":0.41732283464566927},{"duration":0.06818175000000082,"midi":70,"time":31.56815025,"velocity":0.41732283464566927},{"duration":0.06818175000000082,"midi":75,"time":31.56815025,"velocity":0.41732283464566927},{"duration":0.06818175000000082,"midi":70,"time":31.636332,"velocity":0.41732283464566927},{"duration":0.06818175000000082,"midi":75,"time":31.636332,"velocity":0.41732283464566927},{"duration":0.06818175000000082,"midi":75,"time":31.70451375,"velocity":0.41732283464566927},{"duration":0.06818175000000082,"midi":70,"time":31.70451375,"velocity":0.41732283464566927},{"duration":0.06818174999999727,"midi":70,"time":31.7726955,"velocity":0.41732283464566927},{"duration":0.06818174999999727,"midi":75,"time":31.7726955,"velocity":0.41732283464566927},{"duration":0.06818175000000082,"midi":70,"time":31.84087725,"velocity":0.41732283464566927},{"duration":0.06818175000000082,"midi":75,"time":31.84087725,"velocity":0.41732283464566927},{"duration":0.06818175000000082,"midi":75,"time":31.909059,"velocity":0.41732283464566927},{"duration":0.06818175000000082,"midi":70,"time":31.909059,"velocity":0.41732283464566927},{"duration":0.06818175000000082,"midi":70,"time":31.97724075,"velocity":0.41732283464566927},{"duration":0.06818175000000082,"midi":75,"time":31.97724075,"velocity":0.41732283464566927},{"duration":0.06818175000000082,"midi":70,"time":32.0454225,"velocity":0.41732283464566927},{"duration":0.06818175000000082,"midi":75,"time":32.0454225,"velocity":0.41732283464566927},{"duration":0.06818175000000082,"midi":75,"time":32.11360425,"velocity":0.41732283464566927},{"duration":0.06818175000000082,"midi":70,"time":32.11360425,"velocity":0.41732283464566927},{"duration":0.06818175000000082,"midi":75,"time":32.11360425,"velocity":0.41732283464566927},{"duration":0.06818174999999371,"midi":75,"time":32.181786,"velocity":0.41732283464566927},{"duration":0.06818174999999371,"midi":75,"time":32.181786,"velocity":0.41732283464566927},{"duration":0.06818174999999371,"midi":70,"time":32.181786,"velocity":0.41732283464566927},{"duration":0.06818175000000082,"midi":75,"time":32.249967749999996,"velocity":0.41732283464566927},{"duration":0.06818175000000082,"midi":70,"time":32.249967749999996,"velocity":0.41732283464566927},{"duration":0.06818175000000082,"midi":70,"time":32.3181495,"velocity":0.41732283464566927},{"duration":0.06818175000000082,"midi":75,"time":32.3181495,"velocity":0.41732283464566927},{"duration":0.06818175000000082,"midi":75,"time":32.38633125,"velocity":0.41732283464566927},{"duration":0.06818175000000082,"midi":70,"time":32.38633125,"velocity":0.41732283464566927},{"duration":0.06818175000000082,"midi":75,"time":32.454513,"velocity":0.41732283464566927},{"duration":0.06818174999999371,"midi":58,"time":52.363584,"velocity":0.41732283464566927},{"duration":0.06818175000000082,"midi":58,"time":52.43176575,"velocity":0.41732283464566927},{"duration":0.06818175000000082,"midi":63,"time":52.43176575,"velocity":0.41732283464566927},{"duration":0.06818175000000082,"midi":63,"time":52.4999475,"velocity":0.41732283464566927},{"duration":0.06818175000000082,"midi":58,"time":52.4999475,"velocity":0.41732283464566927},{"duration":0.06818175000000082,"midi":63,"time":52.56812925,"velocity":0.41732283464566927},{"duration":0.06818175000000082,"midi":58,"time":52.56812925,"velocity":0.41732283464566927},{"duration":0.06818175000000082,"midi":63,"time":52.636311,"velocity":0.41732283464566927},{"duration":0.06818175000000082,"midi":58,"time":52.636311,"velocity":0.41732283464566927},{"duration":0.06818175000000082,"midi":63,"time":52.70449275,"velocity":0.41732283464566927},{"duration":0.06818175000000082,"midi":58,"time":52.70449275,"velocity":0.41732283464566927},{"duration":0.06818175000000082,"midi":63,"time":52.7726745,"velocity":0.41732283464566927},{"duration":0.06818175000000082,"midi":58,"time":52.7726745,"velocity":0.41732283464566927},{"duration":0.06818175000000082,"midi":63,"time":52.84085625,"velocity":0.41732283464566927},{"duration":0.06818175000000082,"midi":58,"time":52.84085625,"velocity":0.41732283464566927},{"duration":0.06818174999999371,"midi":63,"time":52.909038,"velocity":0.41732283464566927},{"duration":0.06818174999999371,"midi":69,"time":52.909038,"velocity":0.41732283464566927},{"duration":0.06818175000000082,"midi":74,"time":52.977219749999996,"velocity":0.41732283464566927},{"duration":0.06818175000000082,"midi":69,"time":52.977219749999996,"velocity":0.41732283464566927},{"duration":0.06818175000000082,"midi":74,"time":53.0454015,"velocity":0.41732283464566927},{"duration":0.06818175000000082,"midi":69,"time":53.0454015,"velocity":0.41732283464566927},{"duration":0.06818175000000082,"midi":74,"time":53.11358325,"velocity":0.41732283464566927},{"duration":0.06818175000000082,"midi":69,"time":53.11358325,"velocity":0.41732283464566927},{"duration":0.06818175000000082,"midi":74,"time":53.181765,"velocity":0.41732283464566927},{"duration":0.06818175000000082,"midi":69,"time":53.181765,"velocity":0.41732283464566927},{"duration":0.06818175000000082,"midi":69,"time":53.24994675,"velocity":0.41732283464566927},{"duration":0.06818175000000082,"midi":74,"time":53.24994675,"velocity":0.41732283464566927},{"duration":0.06818175000000082,"midi":69,"time":53.3181285,"velocity":0.41732283464566927},{"duration":0.06818175000000082,"midi":74,"time":53.3181285,"velocity":0.41732283464566927},{"duration":0.06818175000000082,"midi":74,"time":53.38631025,"velocity":0.41732283464566927},{"duration":0.06818175000000082,"midi":69,"time":53.38631025,"velocity":0.41732283464566927},{"duration":0.06818175000000082,"midi":74,"time":53.454492,"velocity":0.41732283464566927},{"duration":0.06818175000000082,"midi":66,"time":53.454492,"velocity":0.41732283464566927},{"duration":0.06818174999999371,"midi":71,"time":53.52267375,"velocity":0.41732283464566927},{"duration":0.06818174999999371,"midi":66,"time":53.52267375,"velocity":0.41732283464566927},{"duration":0.06818175000000082,"midi":66,"time":53.590855499999996,"velocity":0.41732283464566927},{"duration":0.06818175000000082,"midi":71,"time":53.590855499999996,"velocity":0.41732283464566927},{"duration":0.06818175000000082,"midi":66,"time":53.65903725,"velocity":0.41732283464566927},{"duration":0.06818175000000082,"midi":71,"time":53.65903725,"velocity":0.41732283464566927},{"duration":0.06818175000000082,"midi":66,"time":53.727219,"velocity":0.41732283464566927},{"duration":0.06818175000000082,"midi":71,"time":53.727219,"velocity":0.41732283464566927},{"duration":0.06818175000000082,"midi":66,"time":53.79540075,"velocity":0.41732283464566927},{"duration":0.06818175000000082,"midi":71,"time":53.79540075,"velocity":0.41732283464566927},{"duration":0.06818175000000082,"midi":71,"time":53.8635825,"velocity":0.41732283464566927},{"duration":0.06818175000000082,"midi":66,"time":53.8635825,"velocity":0.41732283464566927},{"duration":0.06818175000000082,"midi":66,"time":53.93176425,"velocity":0.41732283464566927},{"duration":0.06818175000000082,"midi":71,"time":53.93176425,"velocity":0.41732283464566927},{"duration":0.06818175000000082,"midi":71,"time":53.999946,"velocity":0.41732283464566927},{"duration":0.06818175000000082,"midi":65,"time":53.999946,"velocity":0.41732283464566927},{"duration":0.06818175000000082,"midi":70,"time":54.06812775,"velocity":0.41732283464566927},{"duration":0.06818175000000082,"midi":65,"time":54.06812775,"velocity":0.41732283464566927},{"duration":0.06818174999999371,"midi":65,"time":54.1363095,"velocity":0.41732283464566927},{"duration":0.06818174999999371,"midi":70,"time":54.1363095,"velocity":0.41732283464566927},{"duration":0.06818175000000082,"midi":65,"time":54.20449125,"velocity":0.41732283464566927},{"duration":0.06818175000000082,"midi":70,"time":54.20449125,"velocity":0.41732283464566927},{"duration":0.06818175000000082,"midi":65,"time":54.272673,"velocity":0.41732283464566927},{"duration":0.06818175000000082,"midi":70,"time":54.272673,"velocity":0.41732283464566927},{"duration":0.06818175000000082,"midi":65,"time":54.34085475,"velocity":0.41732283464566927},{"duration":0.06818175000000082,"midi":70,"time":54.34085475,"velocity":0.41732283464566927},{"duration":0.06818175000000082,"midi":70,"time":54.4090365,"velocity":0.41732283464566927},{"duration":0.06818175000000082,"midi":65,"time":54.4090365,"velocity":0.41732283464566927},{"duration":0.06818175000000082,"midi":65,"time":54.47721825,"velocity":0.41732283464566927},{"duration":0.06818175000000082,"midi":70,"time":54.47721825,"velocity":0.41732283464566927},{"duration":0.06818175000000082,"midi":70,"time":54.5454,"velocity":0.41732283464566927},{"duration":0.06818175000000082,"midi":70,"time":54.5454,"velocity":0.41732283464566927},{"duration":0.06818175000000082,"midi":70,"time":54.61358175,"velocity":0.41732283464566927},{"duration":0.06818175000000082,"midi":75,"time":54.61358175,"velocity":0.41732283464566927},{"duration":0.06818174999999371,"midi":70,"time":54.6817635,"velocity":0.41732283464566927},{"duration":0.06818174999999371,"midi":75,"time":54.6817635,"velocity":0.41732283464566927},{"duration":0.06818175000000082,"midi":70,"time":54.749945249999996,"velocity":0.41732283464566927},{"duration":0.06818175000000082,"midi":75,"time":54.749945249999996,"velocity":0.41732283464566927},{"duration":0.06818175000000082,"midi":75,"time":54.818127,"velocity":0.41732283464566927},{"duration":0.06818175000000082,"midi":70,"time":54.818127,"velocity":0.41732283464566927},{"duration":0.06818175000000082,"midi":70,"time":54.88630875,"velocity":0.41732283464566927},{"duration":0.06818175000000082,"midi":75,"time":54.88630875,"velocity":0.41732283464566927},{"duration":0.06818175000000082,"midi":70,"time":54.9544905,"velocity":0.41732283464566927},{"duration":0.06818175000000082,"midi":75,"time":54.9544905,"velocity":0.41732283464566927},{"duration":0.06818175000000082,"midi":70,"time":55.02267225,"velocity":0.41732283464566927},{"duration":0.06818175000000082,"midi":75,"time":55.02267225,"velocity":0.41732283464566927},{"duration":0.06818175000000082,"midi":75,"time":55.090854,"velocity":0.41732283464566927},{"duration":0.06818175000000082,"midi":69,"time":55.090854,"velocity":0.41732283464566927},{"duration":0.06818175000000082,"midi":74,"time":55.15903575,"velocity":0.41732283464566927},{"duration":0.06818175000000082,"midi":69,"time":55.15903575,"velocity":0.41732283464566927},{"duration":0.06818175000000082,"midi":69,"time":55.2272175,"velocity":0.41732283464566927},{"duration":0.06818175000000082,"midi":74,"time":55.2272175,"velocity":0.41732283464566927},{"duration":0.06818174999999371,"midi":74,"time":55.29539925,"velocity":0.41732283464566927},{"duration":0.06818174999999371,"midi":69,"time":55.29539925,"velocity":0.41732283464566927},{"duration":0.06818175000000082,"midi":74,"time":55.363580999999996,"velocity":0.41732283464566927},{"duration":0.06818175000000082,"midi":69,"time":55.363580999999996,"velocity":0.41732283464566927},{"duration":0.06818175000000082,"midi":74,"time":55.43176275,"velocity":0.41732283464566927},{"duration":0.06818175000000082,"midi":69,"time":55.43176275,"velocity":0.41732283464566927},{"duration":0.06818175000000082,"midi":69,"time":55.4999445,"velocity":0.41732283464566927},{"duration":0.06818175000000082,"midi":74,"time":55.4999445,"velocity":0.41732283464566927},{"duration":0.06818175000000082,"midi":74,"time":55.56812625,"velocity":0.41732283464566927},{"duration":0.06818175000000082,"midi":69,"time":55.56812625,"velocity":0.41732283464566927},{"duration":0.06818175000000082,"midi":66,"time":55.636308,"velocity":0.41732283464566927},{"duration":0.06818175000000082,"midi":74,"time":55.636308,"velocity":0.41732283464566927},{"duration":0.06818175000000082,"midi":71,"time":55.70448975,"velocity":0.41732283464566927},{"duration":0.06818175000000082,"midi":66,"time":55.70448975,"velocity":0.41732283464566927},{"duration":0.06818175000000082,"midi":66,"time":55.7726715,"velocity":0.41732283464566927},{"duration":0.06818175000000082,"midi":71,"time":55.7726715,"velocity":0.41732283464566927},{"duration":0.06818175000000082,"midi":66,"time":55.84085325,"velocity":0.41732283464566927},{"duration":0.06818175000000082,"midi":71,"time":55.84085325,"velocity":0.41732283464566927},{"duration":0.06818174999999371,"midi":66,"time":55.909035,"velocity":0.41732283464566927},{"duration":0.06818174999999371,"midi":71,"time":55.909035,"velocity":0.41732283464566927},{"duration":0.06818175000000082,"midi":71,"time":55.97721675,"velocity":0.41732283464566927},{"duration":0.06818175000000082,"midi":66,"time":55.97721675,"velocity":0.41732283464566927},{"duration":0.06818175000000082,"midi":66,"time":56.0453985,"velocity":0.41732283464566927},{"duration":0.06818175000000082,"midi":71,"time":56.0453985,"velocity":0.41732283464566927},{"duration":0.06818175000000082,"midi":66,"time":56.11358025,"velocity":0.41732283464566927},{"duration":0.06818175000000082,"midi":71,"time":56.11358025,"velocity":0.41732283464566927},{"duration":0.06818175000000082,"midi":65,"time":56.181762,"velocity":0.41732283464566927},{"duration":0.06818175000000082,"midi":71,"time":56.181762,"velocity":0.41732283464566927},{"duration":0.06818175000000082,"midi":65,"time":56.24994375,"velocity":0.41732283464566927},{"duration":0.06818175000000082,"midi":70,"time":56.24994375,"velocity":0.41732283464566927},{"duration":0.06818175000000082,"midi":70,"time":56.3181255,"velocity":0.41732283464566927},{"duration":0.06818175000000082,"midi":65,"time":56.3181255,"velocity":0.41732283464566927},{"duration":0.06818175000000082,"midi":65,"time":56.38630725,"velocity":0.41732283464566927},{"duration":0.06818175000000082,"midi":70,"time":56.38630725,"velocity":0.41732283464566927},{"duration":0.06818174999999371,"midi":65,"time":56.454489,"velocity":0.41732283464566927},{"duration":0.06818174999999371,"midi":70,"time":56.454489,"velocity":0.41732283464566927},{"duration":0.06818175000000082,"midi":65,"time":56.522670749999996,"velocity":0.41732283464566927},{"duration":0.06818175000000082,"midi":70,"time":56.522670749999996,"velocity":0.41732283464566927},{"duration":0.06818175000000082,"midi":70,"time":56.5908525,"velocity":0.41732283464566927},{"duration":0.06818175000000082,"midi":65,"time":56.5908525,"velocity":0.41732283464566927},{"duration":0.06818175000000082,"midi":65,"time":56.65903425,"velocity":0.41732283464566927},{"duration":0.06818175000000082,"midi":70,"time":56.65903425,"velocity":0.41732283464566927},{"duration":0.06818175000000082,"midi":70,"time":56.727216,"velocity":0.41732283464566927},{"duration":0.06818175000000082,"midi":63,"time":56.727216,"velocity":0.41732283464566927},{"duration":0.06818175000000082,"midi":68,"time":56.79539775,"velocity":0.41732283464566927},{"duration":0.06818175000000082,"midi":63,"time":56.79539775,"velocity":0.41732283464566927},{"duration":0.06818175000000082,"midi":68,"time":56.8635795,"velocity":0.41732283464566927},{"duration":0.06818175000000082,"midi":63,"time":56.8635795,"velocity":0.41732283464566927},{"duration":0.06818175000000082,"midi":63,"time":56.93176125,"velocity":0.41732283464566927},{"duration":0.06818175000000082,"midi":68,"time":56.93176125,"velocity":0.41732283464566927},{"duration":0.06818175000000082,"midi":63,"time":56.999943,"velocity":0.41732283464566927},{"duration":0.06818175000000082,"midi":68,"time":56.999943,"velocity":0.41732283464566927},{"duration":0.06818174999999371,"midi":63,"time":57.06812475,"velocity":0.41732283464566927},{"duration":0.06818174999999371,"midi":68,"time":57.06812475,"velocity":0.41732283464566927},{"duration":0.06818175000000082,"midi":63,"time":57.136306499999996,"velocity":0.41732283464566927},{"duration":0.06818175000000082,"midi":68,"time":57.136306499999996,"velocity":0.41732283464566927},{"duration":0.06818175000000082,"midi":63,"time":57.20448825,"velocity":0.41732283464566927},{"duration":0.06818175000000082,"midi":68,"time":57.20448825,"velocity":0.41732283464566927},{"duration":0.06818175000000082,"midi":62,"time":57.27267,"velocity":0.41732283464566927},{"duration":0.06818175000000082,"midi":68,"time":57.27267,"velocity":0.41732283464566927},{"duration":0.06818175000000082,"midi":67,"time":57.34085175,"velocity":0.41732283464566927},{"duration":0.06818175000000082,"midi":62,"time":57.34085175,"velocity":0.41732283464566927},{"duration":0.06818175000000082,"midi":62,"time":57.4090335,"velocity":0.41732283464566927},{"duration":0.06818175000000082,"midi":67,"time":57.4090335,"velocity":0.41732283464566927},{"duration":0.06818175000000082,"midi":62,"time":57.47721525,"velocity":0.41732283464566927},{"duration":0.06818175000000082,"midi":67,"time":57.47721525,"velocity":0.41732283464566927},{"duration":0.06818175000000082,"midi":67,"time":57.545397,"velocity":0.41732283464566927},{"duration":0.06818175000000082,"midi":62,"time":57.545397,"velocity":0.41732283464566927},{"duration":0.06818175000000082,"midi":62,"time":57.61357875,"velocity":0.41732283464566927},{"duration":0.06818175000000082,"midi":67,"time":57.61357875,"velocity":0.41732283464566927},{"duration":0.06818174999999371,"midi":62,"time":57.6817605,"velocity":0.41732283464566927},{"duration":0.06818174999999371,"midi":67,"time":57.6817605,"velocity":0.41732283464566927},{"duration":0.06818175000000082,"midi":67,"time":57.74994225,"velocity":0.41732283464566927},{"duration":0.06818175000000082,"midi":62,"time":57.74994225,"velocity":0.41732283464566927},{"duration":0.06818175000000082,"midi":62,"time":57.818124,"velocity":0.41732283464566927},{"duration":0.06818175000000082,"midi":67,"time":57.818124,"velocity":0.41732283464566927},{"duration":0.06818175000000082,"midi":67,"time":57.88630575,"velocity":0.41732283464566927},{"duration":0.06818175000000082,"midi":62,"time":57.88630575,"velocity":0.41732283464566927},{"duration":0.06818175000000082,"midi":67,"time":57.9544875,"velocity":0.41732283464566927},{"duration":0.06818175000000082,"midi":62,"time":57.9544875,"velocity":0.41732283464566927},{"duration":0.06818175000000082,"midi":62,"time":58.02266925,"velocity":0.41732283464566927},{"duration":0.06818175000000082,"midi":67,"time":58.02266925,"velocity":0.41732283464566927},{"duration":0.06818175000000082,"midi":62,"time":58.090851,"velocity":0.41732283464566927},{"duration":0.06818175000000082,"midi":67,"time":58.090851,"velocity":0.41732283464566927},{"duration":0.06818175000000082,"midi":62,"time":58.15903275,"velocity":0.41732283464566927},{"duration":0.06818175000000082,"midi":67,"time":58.15903275,"velocity":0.41732283464566927},{"duration":0.06818174999999371,"midi":62,"time":58.2272145,"velocity":0.41732283464566927},{"duration":0.06818174999999371,"midi":67,"time":58.2272145,"velocity":0.41732283464566927},{"duration":0.06818175000000082,"midi":62,"time":58.295396249999996,"velocity":0.41732283464566927},{"duration":0.06818175000000082,"midi":67,"time":58.295396249999996,"velocity":0.41732283464566927},{"duration":0.06818175000000082,"midi":67,"time":58.363578,"velocity":0.41732283464566927},{"duration":0.06818175000000082,"midi":62,"time":58.363578,"velocity":0.41732283464566927},{"duration":0.06818175000000082,"midi":62,"time":58.43175975,"velocity":0.41732283464566927},{"duration":0.06818175000000082,"midi":67,"time":58.43175975,"velocity":0.41732283464566927},{"duration":0.06818175000000082,"midi":62,"time":58.4999415,"velocity":0.41732283464566927},{"duration":0.06818175000000082,"midi":67,"time":58.4999415,"velocity":0.41732283464566927},{"duration":0.06818175000000082,"midi":67,"time":58.56812325,"velocity":0.41732283464566927},{"duration":0.06818175000000082,"midi":62,"time":58.56812325,"velocity":0.41732283464566927},{"duration":0.06818175000000082,"midi":62,"time":58.636305,"velocity":0.41732283464566927},{"duration":0.06818175000000082,"midi":67,"time":58.636305,"velocity":0.41732283464566927},{"duration":0.06818175000000082,"midi":62,"time":58.70448675,"velocity":0.41732283464566927},{"duration":0.06818175000000082,"midi":67,"time":58.70448675,"velocity":0.41732283464566927},{"duration":0.06818175000000082,"midi":67,"time":58.7726685,"velocity":0.41732283464566927},{"duration":0.06818175000000082,"midi":62,"time":58.7726685,"velocity":0.41732283464566927},{"duration":0.06818174999999371,"midi":67,"time":58.84085025,"velocity":0.41732283464566927},{"duration":0.06818174999999371,"midi":62,"time":58.84085025,"velocity":0.41732283464566927},{"duration":0.06818175000000082,"midi":67,"time":58.909031999999996,"velocity":0.41732283464566927},{"duration":0.06818175000000082,"midi":58,"time":61.090848,"velocity":0.41732283464566927},{"duration":0.06818175000000082,"midi":63,"time":61.15902975,"velocity":0.41732283464566927},{"duration":0.06818175000000082,"midi":58,"time":61.15902975,"velocity":0.41732283464566927},{"duration":0.06818174999999371,"midi":63,"time":61.2272115,"velocity":0.41732283464566927},{"duration":0.06818174999999371,"midi":58,"time":61.2272115,"velocity":0.41732283464566927},{"duration":0.06818175000000082,"midi":63,"time":61.29539325,"velocity":0.41732283464566927},{"duration":0.06818175000000082,"midi":58,"time":61.29539325,"velocity":0.41732283464566927},{"duration":0.06818175000000082,"midi":58,"time":61.363575,"velocity":0.41732283464566927},{"duration":0.06818175000000082,"midi":63,"time":61.363575,"velocity":0.41732283464566927},{"duration":0.06818175000000082,"midi":58,"time":61.43175675,"velocity":0.41732283464566927},{"duration":0.06818175000000082,"midi":63,"time":61.43175675,"velocity":0.41732283464566927},{"duration":0.06818175000000082,"midi":63,"time":61.4999385,"velocity":0.41732283464566927},{"duration":0.06818175000000082,"midi":58,"time":61.4999385,"velocity":0.41732283464566927},{"duration":0.06818175000000082,"midi":63,"time":61.56812025,"velocity":0.41732283464566927},{"duration":0.06818175000000082,"midi":58,"time":61.56812025,"velocity":0.41732283464566927},{"duration":0.06818175000000082,"midi":63,"time":61.636302,"velocity":0.41732283464566927},{"duration":0.06818175000000082,"midi":69,"time":61.636302,"velocity":0.41732283464566927},{"duration":0.06818175000000082,"midi":69,"time":61.70448375,"velocity":0.41732283464566927},{"duration":0.06818175000000082,"midi":74,"time":61.70448375,"velocity":0.41732283464566927},{"duration":0.06818174999999371,"midi":74,"time":61.7726655,"velocity":0.41732283464566927},{"duration":0.06818174999999371,"midi":69,"time":61.7726655,"velocity":0.41732283464566927},{"duration":0.06818175000000082,"midi":74,"time":61.840847249999996,"velocity":0.41732283464566927},{"duration":0.06818175000000082,"midi":69,"time":61.840847249999996,"velocity":0.41732283464566927},{"duration":0.06818175000000082,"midi":69,"time":61.909029,"velocity":0.41732283464566927},{"duration":0.06818175000000082,"midi":74,"time":61.909029,"velocity":0.41732283464566927},{"duration":0.06818175000000082,"midi":74,"time":61.97721075,"velocity":0.41732283464566927},{"duration":0.06818175000000082,"midi":69,"time":61.97721075,"velocity":0.41732283464566927},{"duration":0.06818175000000082,"midi":69,"time":62.0453925,"velocity":0.41732283464566927},{"duration":0.06818175000000082,"midi":74,"time":62.0453925,"velocity":0.41732283464566927},{"duration":0.06818175000000082,"midi":69,"time":62.11357425,"velocity":0.41732283464566927},{"duration":0.06818175000000082,"midi":74,"time":62.11357425,"velocity":0.41732283464566927},{"duration":0.06818175000000082,"midi":74,"time":62.181756,"velocity":0.41732283464566927},{"duration":0.06818175000000082,"midi":66,"time":62.181756,"velocity":0.41732283464566927},{"duration":0.06818175000000082,"midi":66,"time":62.24993775,"velocity":0.41732283464566927},{"duration":0.06818175000000082,"midi":71,"time":62.24993775,"velocity":0.41732283464566927},{"duration":0.06818175000000082,"midi":71,"time":62.3181195,"velocity":0.41732283464566927},{"duration":0.06818175000000082,"midi":66,"time":62.3181195,"velocity":0.41732283464566927},{"duration":0.06818174999999371,"midi":66,"time":62.38630125,"velocity":0.41732283464566927},{"duration":0.06818174999999371,"midi":71,"time":62.38630125,"velocity":0.41732283464566927},{"duration":0.06818175000000082,"midi":71,"time":62.454482999999996,"velocity":0.41732283464566927},{"duration":0.06818175000000082,"midi":66,"time":62.454482999999996,"velocity":0.41732283464566927},{"duration":0.06818175000000082,"midi":71,"time":62.52266475,"velocity":0.41732283464566927},{"duration":0.06818175000000082,"midi":66,"time":62.52266475,"velocity":0.41732283464566927},{"duration":0.06818175000000082,"midi":71,"time":62.5908465,"velocity":0.41732283464566927},{"duration":0.06818175000000082,"midi":66,"time":62.5908465,"velocity":0.41732283464566927},{"duration":0.06818175000000082,"midi":66,"time":62.65902825,"velocity":0.41732283464566927},{"duration":0.06818175000000082,"midi":71,"time":62.65902825,"velocity":0.41732283464566927},{"duration":0.06818175000000082,"midi":65,"time":62.72721,"velocity":0.41732283464566927},{"duration":0.06818175000000082,"midi":71,"time":62.72721,"velocity":0.41732283464566927},{"duration":0.06818175000000082,"midi":70,"time":62.79539175,"velocity":0.41732283464566927},{"duration":0.06818175000000082,"midi":65,"time":62.79539175,"velocity":0.41732283464566927},{"duration":0.06818175000000082,"midi":70,"time":62.8635735,"velocity":0.41732283464566927},{"duration":0.06818175000000082,"midi":65,"time":62.8635735,"velocity":0.41732283464566927},{"duration":0.06818175000000082,"midi":65,"time":62.93175525,"velocity":0.41732283464566927},{"duration":0.06818175000000082,"midi":70,"time":62.93175525,"velocity":0.41732283464566927},{"duration":0.06818174999999371,"midi":65,"time":62.999937,"velocity":0.41732283464566927},{"duration":0.06818174999999371,"midi":70,"time":62.999937,"velocity":0.41732283464566927},{"duration":0.06818175000000082,"midi":65,"time":63.06811875,"velocity":0.41732283464566927},{"duration":0.06818175000000082,"midi":70,"time":63.06811875,"velocity":0.41732283464566927},{"duration":0.06818175000000082,"midi":65,"time":63.1363005,"velocity":0.41732283464566927},{"duration":0.06818175000000082,"midi":70,"time":63.1363005,"velocity":0.41732283464566927},{"duration":0.06818175000000082,"midi":70,"time":63.20448225,"velocity":0.41732283464566927},{"duration":0.06818175000000082,"midi":65,"time":63.20448225,"velocity":0.41732283464566927},{"duration":0.06818175000000082,"midi":70,"time":63.272664,"velocity":0.41732283464566927},{"duration":0.06818175000000082,"midi":70,"time":63.272664,"velocity":0.41732283464566927},{"duration":0.06818175000000082,"midi":75,"time":63.34084575,"velocity":0.41732283464566927},{"duration":0.06818175000000082,"midi":70,"time":63.34084575,"velocity":0.41732283464566927},{"duration":0.06818175000000082,"midi":75,"time":63.4090275,"velocity":0.41732283464566927},{"duration":0.06818175000000082,"midi":70,"time":63.4090275,"velocity":0.41732283464566927},{"duration":0.06818175000000082,"midi":70,"time":63.47720925,"velocity":0.41732283464566927},{"duration":0.06818175000000082,"midi":75,"time":63.47720925,"velocity":0.41732283464566927},{"duration":0.06818174999999371,"midi":70,"time":63.545391,"velocity":0.41732283464566927},{"duration":0.06818174999999371,"midi":75,"time":63.545391,"velocity":0.41732283464566927},{"duration":0.06818175000000082,"midi":75,"time":63.613572749999996,"velocity":0.41732283464566927},{"duration":0.06818175000000082,"midi":70,"time":63.613572749999996,"velocity":0.41732283464566927},{"duration":0.06818175000000082,"midi":75,"time":63.6817545,"velocity":0.41732283464566927},{"duration":0.06818175000000082,"midi":70,"time":63.6817545,"velocity":0.41732283464566927},{"duration":0.06818175000000082,"midi":70,"time":63.74993625,"velocity":0.41732283464566927},{"duration":0.06818175000000082,"midi":75,"time":63.74993625,"velocity":0.41732283464566927},{"duration":0.06818175000000082,"midi":75,"time":63.818118,"velocity":0.41732283464566927},{"duration":0.06818175000000082,"midi":69,"time":63.818118,"velocity":0.41732283464566927},{"duration":0.06818175000000082,"midi":74,"time":63.88629975,"velocity":0.41732283464566927},{"duration":0.06818175000000082,"midi":69,"time":63.88629975,"velocity":0.41732283464566927},{"duration":0.06818174999999371,"midi":69,"time":63.9544815,"velocity":0.41732283464566927},{"duration":0.06818174999999371,"midi":74,"time":63.9544815,"velocity":0.41732283464566927},{"duration":0.06818175000000792,"midi":69,"time":64.02266325,"velocity":0.41732283464566927},{"duration":0.06818175000000792,"midi":74,"time":64.02266325,"velocity":0.41732283464566927},{"duration":0.06818174999999371,"midi":69,"time":64.090845,"velocity":0.41732283464566927},{"duration":0.06818174999999371,"midi":74,"time":64.090845,"velocity":0.41732283464566927},{"duration":0.06818175000000792,"midi":69,"time":64.15902675,"velocity":0.41732283464566927},{"duration":0.06818175000000792,"midi":74,"time":64.15902675,"velocity":0.41732283464566927},{"duration":0.06818174999999371,"midi":74,"time":64.2272085,"velocity":0.41732283464566927},{"duration":0.06818174999999371,"midi":69,"time":64.2272085,"velocity":0.41732283464566927},{"duration":0.06818175000000792,"midi":74,"time":64.29539025,"velocity":0.41732283464566927},{"duration":0.06818175000000792,"midi":69,"time":64.29539025,"velocity":0.41732283464566927},{"duration":0.06818174999999371,"midi":66,"time":64.363572,"velocity":0.41732283464566927},{"duration":0.06818174999999371,"midi":74,"time":64.363572,"velocity":0.41732283464566927},{"duration":0.06818174999999371,"midi":66,"time":64.43175375,"velocity":0.41732283464566927},{"duration":0.06818174999999371,"midi":71,"time":64.43175375,"velocity":0.41732283464566927},{"duration":0.06818175000000792,"midi":66,"time":64.49993549999999,"velocity":0.41732283464566927},{"duration":0.06818175000000792,"midi":71,"time":64.49993549999999,"velocity":0.41732283464566927},{"duration":0.06818174999999371,"midi":71,"time":64.56811725,"velocity":0.41732283464566927},{"duration":0.06818174999999371,"midi":66,"time":64.56811725,"velocity":0.41732283464566927},{"duration":0.06818175000000792,"midi":66,"time":64.636299,"velocity":0.41732283464566927},{"duration":0.06818175000000792,"midi":71,"time":64.636299,"velocity":0.41732283464566927},{"duration":0.06818174999999371,"midi":66,"time":64.70448075,"velocity":0.41732283464566927},{"duration":0.06818174999999371,"midi":71,"time":64.70448075,"velocity":0.41732283464566927},{"duration":0.06818175000000792,"midi":66,"time":64.7726625,"velocity":0.41732283464566927},{"duration":0.06818175000000792,"midi":71,"time":64.7726625,"velocity":0.41732283464566927},{"duration":0.06818174999999371,"midi":71,"time":64.84084425,"velocity":0.41732283464566927},{"duration":0.06818174999999371,"midi":66,"time":64.84084425,"velocity":0.41732283464566927},{"duration":0.06818175000000792,"midi":71,"time":64.909026,"velocity":0.41732283464566927},{"duration":0.06818175000000792,"midi":71,"time":64.909026,"velocity":0.41732283464566927},{"duration":0.06818174999999371,"midi":71,"time":64.97720775,"velocity":0.41732283464566927},{"duration":0.06818174999999371,"midi":76,"time":64.97720775,"velocity":0.41732283464566927},{"duration":0.06818174999999371,"midi":76,"time":65.0453895,"velocity":0.41732283464566927},{"duration":0.06818174999999371,"midi":71,"time":65.0453895,"velocity":0.41732283464566927},{"duration":0.06818175000000792,"midi":71,"time":65.11357124999999,"velocity":0.41732283464566927},{"duration":0.06818175000000792,"midi":76,"time":65.11357124999999,"velocity":0.41732283464566927},{"duration":0.06818174999999371,"midi":76,"time":65.181753,"velocity":0.41732283464566927},{"duration":0.06818174999999371,"midi":71,"time":65.181753,"velocity":0.41732283464566927},{"duration":0.06818175000000792,"midi":76,"time":65.24993475,"velocity":0.41732283464566927},{"duration":0.06818175000000792,"midi":71,"time":65.24993475,"velocity":0.41732283464566927},{"duration":0.06818174999999371,"midi":76,"time":65.3181165,"velocity":0.41732283464566927},{"duration":0.06818174999999371,"midi":71,"time":65.3181165,"velocity":0.41732283464566927},{"duration":0.06818175000000792,"midi":76,"time":65.38629825,"velocity":0.41732283464566927},{"duration":0.06818175000000792,"midi":71,"time":65.38629825,"velocity":0.41732283464566927},{"duration":0.06818174999999371,"midi":76,"time":65.45448,"velocity":0.41732283464566927},{"duration":0.06818174999999371,"midi":70,"time":65.45448,"velocity":0.41732283464566927},{"duration":0.06818175000000792,"midi":70,"time":65.52266175,"velocity":0.41732283464566927},{"duration":0.06818175000000792,"midi":75,"time":65.52266175,"velocity":0.41732283464566927},{"duration":0.06818174999999371,"midi":70,"time":65.5908435,"velocity":0.41732283464566927},{"duration":0.06818174999999371,"midi":75,"time":65.5908435,"velocity":0.41732283464566927},{"duration":0.06818174999999371,"midi":75,"time":65.65902525,"velocity":0.41732283464566927},{"duration":0.06818174999999371,"midi":70,"time":65.65902525,"velocity":0.41732283464566927},{"duration":0.06818175000000792,"midi":75,"time":65.72720699999999,"velocity":0.41732283464566927},{"duration":0.06818175000000792,"midi":70,"time":65.72720699999999,"velocity":0.41732283464566927},{"duration":0.06818174999999371,"midi":75,"time":65.79538875,"velocity":0.41732283464566927},{"duration":0.06818174999999371,"midi":70,"time":65.79538875,"velocity":0.41732283464566927},{"duration":0.06818175000000792,"midi":75,"time":65.8635705,"velocity":0.41732283464566927},{"duration":0.06818175000000792,"midi":70,"time":65.8635705,"velocity":0.41732283464566927},{"duration":0.06818174999999371,"midi":75,"time":65.93175225,"velocity":0.41732283464566927},{"duration":0.06818174999999371,"midi":70,"time":65.93175225,"velocity":0.41732283464566927},{"duration":0.06818175000000792,"midi":75,"time":65.999934,"velocity":0.41732283464566927},{"duration":0.06818175000000792,"midi":70,"time":65.999934,"velocity":0.41732283464566927},{"duration":0.06818174999999371,"midi":75,"time":66.06811575,"velocity":0.41732283464566927},{"duration":0.06818174999999371,"midi":70,"time":66.06811575,"velocity":0.41732283464566927},{"duration":0.06818175000000792,"midi":75,"time":66.1362975,"velocity":0.41732283464566927},{"duration":0.06818175000000792,"midi":70,"time":66.1362975,"velocity":0.41732283464566927},{"duration":0.06818174999999371,"midi":70,"time":66.20447925,"velocity":0.41732283464566927},{"duration":0.06818174999999371,"midi":75,"time":66.20447925,"velocity":0.41732283464566927},{"duration":0.06818174999999371,"midi":75,"time":66.272661,"velocity":0.41732283464566927},{"duration":0.06818174999999371,"midi":70,"time":66.272661,"velocity":0.41732283464566927},{"duration":0.06818175000000792,"midi":75,"time":66.34084275,"velocity":0.41732283464566927},{"duration":0.06818175000000792,"midi":70,"time":66.34084275,"velocity":0.41732283464566927},{"duration":0.06818174999999371,"midi":75,"time":66.4090245,"velocity":0.41732283464566927},{"duration":0.06818174999999371,"midi":70,"time":66.4090245,"velocity":0.41732283464566927},{"duration":0.06818175000000792,"midi":75,"time":66.47720625,"velocity":0.41732283464566927},{"duration":0.06818175000000792,"midi":70,"time":66.47720625,"velocity":0.41732283464566927},{"duration":0.06818174999999371,"midi":75,"time":66.545388,"velocity":0.41732283464566927},{"duration":0.06818174999999371,"midi":70,"time":66.545388,"velocity":0.41732283464566927},{"duration":0.06818175000000792,"midi":75,"time":66.61356975,"velocity":0.41732283464566927},{"duration":0.06818175000000792,"midi":70,"time":66.61356975,"velocity":0.41732283464566927},{"duration":0.06818174999999371,"midi":70,"time":66.6817515,"velocity":0.41732283464566927},{"duration":0.06818174999999371,"midi":75,"time":66.6817515,"velocity":0.41732283464566927},{"duration":0.06818175000000792,"midi":75,"time":66.74993325,"velocity":0.41732283464566927},{"duration":0.06818175000000792,"midi":70,"time":66.74993325,"velocity":0.41732283464566927},{"duration":0.06818174999999371,"midi":70,"time":66.818115,"velocity":0.41732283464566927},{"duration":0.06818174999999371,"midi":75,"time":66.818115,"velocity":0.41732283464566927},{"duration":0.06818174999999371,"midi":75,"time":66.88629675,"velocity":0.41732283464566927},{"duration":0.06818174999999371,"midi":70,"time":66.88629675,"velocity":0.41732283464566927},{"duration":0.06818175000000792,"midi":70,"time":66.9544785,"velocity":0.41732283464566927},{"duration":0.06818175000000792,"midi":75,"time":66.9544785,"velocity":0.41732283464566927},{"duration":0.06818174999999371,"midi":70,"time":67.02266025,"velocity":0.41732283464566927},{"duration":0.06818174999999371,"midi":75,"time":67.02266025,"velocity":0.41732283464566927},{"duration":0.06818174999999371,"midi":75,"time":67.02266025,"velocity":0.41732283464566927},{"duration":0.06818175000000792,"midi":75,"time":67.090842,"velocity":0.41732283464566927},{"duration":0.06818175000000792,"midi":70,"time":67.090842,"velocity":0.41732283464566927},{"duration":0.06818175000000792,"midi":75,"time":67.090842,"velocity":0.41732283464566927},{"duration":0.06818174999999371,"midi":75,"time":67.15902375,"velocity":0.41732283464566927},{"duration":0.06818174999999371,"midi":70,"time":67.15902375,"velocity":0.41732283464566927},{"duration":0.06818175000000792,"midi":75,"time":67.2272055,"velocity":0.41732283464566927},{"duration":0.06818175000000792,"midi":70,"time":67.2272055,"velocity":0.41732283464566927},{"duration":0.06818174999999371,"midi":70,"time":67.29538725,"velocity":0.41732283464566927},{"duration":0.06818174999999371,"midi":75,"time":67.29538725,"velocity":0.41732283464566927},{"duration":0.06818175000000792,"midi":75,"time":67.363569,"velocity":0.41732283464566927},{"duration":0.06818174999999371,"midi":63,"time":69.818112,"velocity":0.41732283464566927},{"duration":0.06818175000000792,"midi":63,"time":69.88629375,"velocity":0.41732283464566927},{"duration":0.06818174999999371,"midi":63,"time":69.9544755,"velocity":0.41732283464566927},{"duration":0.06818175000000792,"midi":63,"time":70.02265725,"velocity":0.41732283464566927},{"duration":0.06818174999999371,"midi":63,"time":70.090839,"velocity":0.41732283464566927},{"duration":0.03409087500000396,"midi":64,"time":70.12492987499999,"velocity":0.41732283464566927},{"duration":0.06818175000000792,"midi":65,"time":70.15902075,"velocity":0.41732283464566927},{"duration":0.06818174999999371,"midi":68,"time":70.193111625,"velocity":0.41732283464566927},{"duration":0.06818174999999371,"midi":71,"time":70.2272025,"velocity":0.41732283464566927},{"duration":0.03409087499998975,"midi":69,"time":70.2272025,"velocity":0.41732283464566927},{"duration":0.06818175000000792,"midi":74,"time":70.29538425,"velocity":0.41732283464566927},{"duration":0.06818174999999371,"midi":75,"time":70.363566,"velocity":0.41732283464566927},{"duration":0.06818174999999371,"midi":75,"time":70.43174775,"velocity":0.41732283464566927},{"duration":0.06818175000000792,"midi":75,"time":70.4999295,"velocity":0.41732283464566927},{"duration":0.06818174999999371,"midi":75,"time":70.56811125,"velocity":0.41732283464566927},{"duration":0.06818175000000792,"midi":75,"time":70.636293,"velocity":0.41732283464566927},{"duration":0.06818174999999371,"midi":75,"time":70.70447475,"velocity":0.41732283464566927},{"duration":0.06818175000000792,"midi":75,"time":70.7726565,"velocity":0.41732283464566927},{"duration":0.06818174999999371,"midi":75,"time":70.84083825,"velocity":0.41732283464566927},{"duration":0.06818175000000792,"midi":75,"time":70.90902,"velocity":0.41732283464566927},{"duration":0.06818174999999371,"midi":75,"time":70.97720175,"velocity":0.41732283464566927},{"duration":0.06818174999999371,"midi":75,"time":71.0453835,"velocity":0.41732283464566927},{"duration":0.06818175000000792,"midi":75,"time":71.11356525,"velocity":0.41732283464566927},{"duration":0.06818174999999371,"midi":75,"time":71.181747,"velocity":0.41732283464566927},{"duration":0.06818175000000792,"midi":75,"time":71.24992875,"velocity":0.41732283464566927},{"duration":0.06818174999999371,"midi":75,"time":71.3181105,"velocity":0.41732283464566927},{"duration":0.06818175000000792,"midi":75,"time":71.38629225,"velocity":0.41732283464566927},{"duration":0.06818174999999371,"midi":75,"time":71.454474,"velocity":0.41732283464566927},{"duration":0.06818175000000792,"midi":75,"time":71.52265575,"velocity":0.41732283464566927},{"duration":0.06818174999999371,"midi":75,"time":71.5908375,"velocity":0.41732283464566927},{"duration":0.06818174999999371,"midi":75,"time":71.65901925,"velocity":0.41732283464566927},{"duration":0.06818175000000792,"midi":75,"time":71.727201,"velocity":0.41732283464566927},{"duration":0.06818174999999371,"midi":75,"time":71.79538275,"velocity":0.41732283464566927},{"duration":0.06818175000000792,"midi":75,"time":71.8635645,"velocity":0.41732283464566927},{"duration":0.06818174999999371,"midi":75,"time":71.93174625,"velocity":0.41732283464566927},{"duration":0.06818175000000792,"midi":75,"time":71.999928,"velocity":0.41732283464566927},{"duration":0.06818174999999371,"midi":75,"time":72.06810975,"velocity":0.41732283464566927},{"duration":0.06818174999999371,"midi":75,"time":72.1362915,"velocity":0.41732283464566927},{"duration":0.06818175000000792,"midi":75,"time":72.20447324999999,"velocity":0.41732283464566927},{"duration":0.06818174999999371,"midi":75,"time":72.272655,"velocity":0.41732283464566927},{"duration":0.06818175000000792,"midi":75,"time":72.34083675,"velocity":0.41732283464566927},{"duration":0.06818174999999371,"midi":75,"time":72.4090185,"velocity":0.41732283464566927},{"duration":0.06818175000000792,"midi":75,"time":72.47720025,"velocity":0.41732283464566927},{"duration":0.06818174999999371,"midi":75,"time":72.545382,"velocity":0.41732283464566927},{"duration":0.06818175000000792,"midi":75,"time":72.61356375,"velocity":0.41732283464566927},{"duration":0.06818174999999371,"midi":75,"time":72.6817455,"velocity":0.41732283464566927},{"duration":0.06818174999999371,"midi":75,"time":72.74992725,"velocity":0.41732283464566927},{"duration":0.06818175000000792,"midi":75,"time":72.81810899999999,"velocity":0.41732283464566927},{"duration":0.06818174999999371,"midi":75,"time":72.88629075,"velocity":0.41732283464566927},{"duration":0.06818175000000792,"midi":75,"time":72.9544725,"velocity":0.41732283464566927},{"duration":0.06818174999999371,"midi":75,"time":73.02265425,"velocity":0.41732283464566927},{"duration":0.06818175000000792,"midi":75,"time":73.090836,"velocity":0.41732283464566927},{"duration":0.06818174999999371,"midi":75,"time":73.15901775,"velocity":0.41732283464566927},{"duration":0.06818175000000792,"midi":75,"time":73.2271995,"velocity":0.41732283464566927},{"duration":0.06818174999999371,"midi":75,"time":73.29538125,"velocity":0.41732283464566927},{"duration":0.06818175000000792,"midi":63,"time":74.181744,"velocity":0.41732283464566927},{"duration":0.06818174999999371,"midi":63,"time":74.24992575,"velocity":0.41732283464566927},{"duration":0.06818175000000792,"midi":63,"time":74.3181075,"velocity":0.41732283464566927},{"duration":0.06818174999999371,"midi":63,"time":74.38628925,"velocity":0.41732283464566927},{"duration":0.06818175000000792,"midi":63,"time":74.454471,"velocity":0.41732283464566927},{"duration":0.03409087500000396,"midi":64,"time":74.488561875,"velocity":0.41732283464566927},{"duration":0.06818174999999371,"midi":65,"time":74.52265275,"velocity":0.41732283464566927},{"duration":0.06818175000000792,"midi":68,"time":74.556743625,"velocity":0.41732283464566927},{"duration":0.06818174999999371,"midi":71,"time":74.5908345,"velocity":0.41732283464566927},{"duration":0.03409087500000396,"midi":69,"time":74.5908345,"velocity":0.41732283464566927},{"duration":0.06818175000000792,"midi":74,"time":74.65901625,"velocity":0.41732283464566927},{"duration":0.06818174999999371,"midi":75,"time":74.727198,"velocity":0.41732283464566927},{"duration":0.06818175000000792,"midi":75,"time":74.79537975,"velocity":0.41732283464566927},{"duration":0.06818174999999371,"midi":75,"time":74.8635615,"velocity":0.41732283464566927},{"duration":0.06818175000000792,"midi":75,"time":74.93174325,"velocity":0.41732283464566927},{"duration":0.06818174999999371,"midi":75,"time":74.999925,"velocity":0.41732283464566927},{"duration":0.06818175000000792,"midi":75,"time":75.06810675,"velocity":0.41732283464566927},{"duration":0.06818174999999371,"midi":75,"time":75.1362885,"velocity":0.41732283464566927},{"duration":0.06818174999999371,"midi":75,"time":75.20447025,"velocity":0.41732283464566927},{"duration":0.06818175000000792,"midi":75,"time":75.272652,"velocity":0.41732283464566927},{"duration":0.06818174999999371,"midi":75,"time":75.34083375,"velocity":0.41732283464566927},{"duration":0.06818175000000792,"midi":75,"time":75.4090155,"velocity":0.41732283464566927},{"duration":0.06818174999999371,"midi":75,"time":75.47719725,"velocity":0.41732283464566927},{"duration":0.06818175000000792,"midi":75,"time":75.545379,"velocity":0.41732283464566927},{"duration":0.06818174999999371,"midi":75,"time":75.61356075,"velocity":0.41732283464566927},{"duration":0.06818174999999371,"midi":75,"time":75.6817425,"velocity":0.41732283464566927},{"duration":0.06818175000000792,"midi":75,"time":75.74992424999999,"velocity":0.41732283464566927},{"duration":0.06818174999999371,"midi":75,"time":75.818106,"velocity":0.41732283464566927},{"duration":0.06818175000000792,"midi":75,"time":75.88628775,"velocity":0.41732283464566927},{"duration":0.06818174999999371,"midi":75,"time":75.9544695,"velocity":0.41732283464566927},{"duration":0.06818175000000792,"midi":75,"time":76.02265125,"velocity":0.41732283464566927},{"duration":0.06818174999999371,"midi":75,"time":76.090833,"velocity":0.41732283464566927},{"duration":0.06818175000000792,"midi":75,"time":76.15901475,"velocity":0.41732283464566927},{"duration":0.06818174999999371,"midi":75,"time":76.2271965,"velocity":0.41732283464566927},{"duration":0.06818174999999371,"midi":75,"time":76.29537825,"velocity":0.41732283464566927},{"duration":0.06818175000000792,"midi":75,"time":76.36355999999999,"velocity":0.41732283464566927},{"duration":0.06818174999999371,"midi":75,"time":76.43174175,"velocity":0.41732283464566927},{"duration":0.06818175000000792,"midi":75,"time":76.4999235,"velocity":0.41732283464566927},{"duration":0.06818174999999371,"midi":75,"time":76.56810525,"velocity":0.41732283464566927},{"duration":0.06818175000000792,"midi":75,"time":76.636287,"velocity":0.41732283464566927},{"duration":0.06818174999999371,"midi":75,"time":76.70446875,"velocity":0.41732283464566927},{"duration":0.06818175000000792,"midi":75,"time":76.7726505,"velocity":0.41732283464566927},{"duration":0.06818174999999371,"midi":75,"time":76.84083225,"velocity":0.41732283464566927},{"duration":0.06818174999999371,"midi":75,"time":76.909014,"velocity":0.41732283464566927},{"duration":0.06818175000000792,"midi":75,"time":76.97719574999999,"velocity":0.41732283464566927},{"duration":0.06818174999999371,"midi":75,"time":77.0453775,"velocity":0.41732283464566927},{"duration":0.06818175000000792,"midi":75,"time":77.11355925,"velocity":0.41732283464566927},{"duration":0.06818174999999371,"midi":75,"time":77.181741,"velocity":0.41732283464566927},{"duration":0.06818175000000792,"midi":75,"time":77.24992275,"velocity":0.41732283464566927},{"duration":0.06818174999999371,"midi":75,"time":77.3181045,"velocity":0.41732283464566927},{"duration":0.06818175000000792,"midi":75,"time":77.38628625,"velocity":0.41732283464566927},{"duration":0.06818174999999371,"midi":75,"time":77.454468,"velocity":0.41732283464566927},{"duration":0.06818174999999371,"midi":75,"time":77.52264975,"velocity":0.41732283464566927},{"duration":0.06818175000000792,"midi":75,"time":77.5908315,"velocity":0.41732283464566927},{"duration":0.06818174999999371,"midi":75,"time":77.65901325,"velocity":0.41732283464566927},{"duration":0.06818174999999371,"midi":63,"time":78.545376,"velocity":0.41732283464566927},{"duration":0.06818174999999371,"midi":63,"time":78.545376,"velocity":0.41732283464566927},{"duration":0.06818175000000792,"midi":63,"time":78.61355775,"velocity":0.41732283464566927},{"duration":0.06818175000000792,"midi":63,"time":78.61355775,"velocity":0.41732283464566927},{"duration":0.06818174999999371,"midi":63,"time":78.6817395,"velocity":0.41732283464566927},{"duration":0.06818174999999371,"midi":63,"time":78.6817395,"velocity":0.41732283464566927},{"duration":0.06818174999999371,"midi":63,"time":78.74992125,"velocity":0.41732283464566927},{"duration":0.06818174999999371,"midi":63,"time":78.74992125,"velocity":0.41732283464566927},{"duration":0.06818175000000792,"midi":63,"time":78.818103,"velocity":0.41732283464566927},{"duration":0.06818175000000792,"midi":63,"time":78.818103,"velocity":0.41732283464566927},{"duration":0.03409087500000396,"midi":64,"time":78.852193875,"velocity":0.41732283464566927},{"duration":0.06818174999999371,"midi":65,"time":78.88628475,"velocity":0.41732283464566927},{"duration":0.06818174999999371,"midi":65,"time":78.88628475,"velocity":0.41732283464566927},{"duration":0.06818174999999371,"midi":68,"time":78.920375625,"velocity":0.41732283464566927},{"duration":0.06818175000000792,"midi":71,"time":78.9544665,"velocity":0.41732283464566927},{"duration":0.06818175000000792,"midi":71,"time":78.9544665,"velocity":0.41732283464566927},{"duration":0.03409087500000396,"midi":69,"time":78.9544665,"velocity":0.41732283464566927},{"duration":0.06818174999999371,"midi":74,"time":79.02264825,"velocity":0.41732283464566927},{"duration":0.06818174999999371,"midi":74,"time":79.02264825,"velocity":0.41732283464566927},{"duration":0.06818175000000792,"midi":75,"time":79.09083,"velocity":0.41732283464566927},{"duration":0.06818175000000792,"midi":75,"time":79.09083,"velocity":0.41732283464566927},{"duration":0.06818174999999371,"midi":75,"time":79.15901175,"velocity":0.41732283464566927},{"duration":0.06818174999999371,"midi":75,"time":79.2271935,"velocity":0.41732283464566927},{"duration":0.06818175000000792,"midi":75,"time":79.29537524999999,"velocity":0.41732283464566927},{"duration":0.06818174999999371,"midi":75,"time":79.363557,"velocity":0.41732283464566927},{"duration":0.06818175000000792,"midi":75,"time":79.43173875,"velocity":0.41732283464566927},{"duration":0.06818174999999371,"midi":75,"time":79.4999205,"velocity":0.41732283464566927},{"duration":0.06818175000000792,"midi":75,"time":79.56810225,"velocity":0.41732283464566927},{"duration":0.06818174999999371,"midi":75,"time":79.636284,"velocity":0.41732283464566927},{"duration":0.06818175000000792,"midi":75,"time":79.70446575,"velocity":0.41732283464566927},{"duration":0.06818174999999371,"midi":75,"time":79.7726475,"velocity":0.41732283464566927},{"duration":0.06818174999999371,"midi":75,"time":79.84082925,"velocity":0.41732283464566927},{"duration":0.06818175000000792,"midi":75,"time":79.90901099999999,"velocity":0.41732283464566927},{"duration":0.06818174999999371,"midi":75,"time":79.97719275,"velocity":0.41732283464566927},{"duration":0.06818175000000792,"midi":75,"time":80.0453745,"velocity":0.41732283464566927},{"duration":0.06818174999999371,"midi":75,"time":80.11355625,"velocity":0.41732283464566927},{"duration":0.06818175000000792,"midi":75,"time":80.181738,"velocity":0.41732283464566927},{"duration":0.06818174999999371,"midi":75,"time":80.24991975,"velocity":0.41732283464566927},{"duration":0.06818175000000792,"midi":75,"time":80.3181015,"velocity":0.41732283464566927},{"duration":0.06818174999999371,"midi":75,"time":80.38628325,"velocity":0.41732283464566927},{"duration":0.06818174999999371,"midi":75,"time":80.454465,"velocity":0.41732283464566927},{"duration":0.06818175000000792,"midi":75,"time":80.52264674999999,"velocity":0.41732283464566927},{"duration":0.06818174999999371,"midi":75,"time":80.5908285,"velocity":0.41732283464566927},{"duration":0.06818175000000792,"midi":75,"time":80.65901025,"velocity":0.41732283464566927},{"duration":0.06818174999999371,"midi":75,"time":80.727192,"velocity":0.41732283464566927},{"duration":0.06818175000000792,"midi":75,"time":80.79537375,"velocity":0.41732283464566927},{"duration":0.06818174999999371,"midi":75,"time":80.8635555,"velocity":0.41732283464566927},{"duration":0.06818175000000792,"midi":75,"time":80.93173725,"velocity":0.41732283464566927},{"duration":0.06818174999999371,"midi":75,"time":80.999919,"velocity":0.41732283464566927},{"duration":0.06818174999999371,"midi":75,"time":81.06810075,"velocity":0.41732283464566927},{"duration":0.06818175000000792,"midi":75,"time":81.1362825,"velocity":0.41732283464566927},{"duration":0.06818174999999371,"midi":75,"time":81.20446425,"velocity":0.41732283464566927},{"duration":0.06818175000000792,"midi":75,"time":81.272646,"velocity":0.41732283464566927},{"duration":0.06818174999999371,"midi":75,"time":81.34082775,"velocity":0.41732283464566927},{"duration":0.06818175000000792,"midi":75,"time":81.4090095,"velocity":0.41732283464566927},{"duration":0.06818174999999371,"midi":75,"time":81.47719125,"velocity":0.41732283464566927},{"duration":0.06818175000000792,"midi":75,"time":81.545373,"velocity":0.41732283464566927},{"duration":0.06818174999999371,"midi":75,"time":81.61355475,"velocity":0.41732283464566927},{"duration":0.06818174999999371,"midi":75,"time":81.6817365,"velocity":0.41732283464566927},{"duration":0.06818175000000792,"midi":75,"time":81.74991825,"velocity":0.41732283464566927},{"duration":0.06818174999999371,"midi":75,"time":81.8181,"velocity":0.41732283464566927},{"duration":0.06818175000000792,"midi":75,"time":81.88628175,"velocity":0.41732283464566927},{"duration":0.06818174999999371,"midi":75,"time":81.9544635,"velocity":0.41732283464566927},{"duration":0.06818175000000792,"midi":75,"time":82.02264525,"velocity":0.41732283464566927},{"duration":0.06818174999999371,"midi":63,"time":82.909008,"velocity":0.41732283464566927},{"duration":0.06818174999999371,"midi":63,"time":82.909008,"velocity":0.41732283464566927},{"duration":0.06818175000000792,"midi":63,"time":82.97718975,"velocity":0.41732283464566927},{"duration":0.06818175000000792,"midi":63,"time":82.97718975,"velocity":0.41732283464566927},{"duration":0.06818174999999371,"midi":63,"time":83.0453715,"velocity":0.41732283464566927},{"duration":0.06818174999999371,"midi":63,"time":83.0453715,"velocity":0.41732283464566927},{"duration":0.06818175000000792,"midi":63,"time":83.11355325,"velocity":0.41732283464566927},{"duration":0.06818175000000792,"midi":63,"time":83.11355325,"velocity":0.41732283464566927},{"duration":0.06818174999999371,"midi":63,"time":83.181735,"velocity":0.41732283464566927},{"duration":0.06818174999999371,"midi":63,"time":83.181735,"velocity":0.41732283464566927},{"duration":0.03409087500000396,"midi":64,"time":83.215825875,"velocity":0.41732283464566927},{"duration":0.06818175000000792,"midi":65,"time":83.24991675,"velocity":0.41732283464566927},{"duration":0.06818175000000792,"midi":65,"time":83.24991675,"velocity":0.41732283464566927},{"duration":0.06818174999999371,"midi":68,"time":83.284007625,"velocity":0.41732283464566927},{"duration":0.06818174999999371,"midi":71,"time":83.3180985,"velocity":0.41732283464566927},{"duration":0.03409087499998975,"midi":69,"time":83.3180985,"velocity":0.41732283464566927},{"duration":0.06818174999999371,"midi":71,"time":83.3180985,"velocity":0.41732283464566927},{"duration":0.06818174999999371,"midi":74,"time":83.38628025,"velocity":0.41732283464566927},{"duration":0.06818174999999371,"midi":74,"time":83.38628025,"velocity":0.41732283464566927},{"duration":0.06818175000000792,"midi":75,"time":83.45446199999999,"velocity":0.41732283464566927},{"duration":0.06818175000000792,"midi":75,"time":83.45446199999999,"velocity":0.41732283464566927},{"duration":0.06818174999999371,"midi":75,"time":83.52264375,"velocity":0.41732283464566927},{"duration":0.06818175000000792,"midi":75,"time":83.5908255,"velocity":0.41732283464566927},{"duration":0.06818174999999371,"midi":75,"time":83.65900725,"velocity":0.41732283464566927},{"duration":0.06818175000000792,"midi":75,"time":83.727189,"velocity":0.41732283464566927},{"duration":0.06818174999999371,"midi":75,"time":83.79537075,"velocity":0.41732283464566927},{"duration":0.06818175000000792,"midi":75,"time":83.8635525,"velocity":0.41732283464566927},{"duration":0.06818174999999371,"midi":75,"time":83.93173425,"velocity":0.41732283464566927},{"duration":0.06818174999999371,"midi":75,"time":83.999916,"velocity":0.41732283464566927},{"duration":0.06818175000000792,"midi":75,"time":84.06809774999999,"velocity":0.41732283464566927},{"duration":0.06818174999999371,"midi":75,"time":84.1362795,"velocity":0.41732283464566927},{"duration":0.06818175000000792,"midi":75,"time":84.20446125,"velocity":0.41732283464566927},{"duration":0.06818174999999371,"midi":75,"time":84.272643,"velocity":0.41732283464566927},{"duration":0.06818175000000792,"midi":75,"time":84.34082475,"velocity":0.41732283464566927},{"duration":0.06818174999999371,"midi":75,"time":84.4090065,"velocity":0.41732283464566927},{"duration":0.06818175000000792,"midi":75,"time":84.47718825,"velocity":0.41732283464566927},{"duration":0.06818174999999371,"midi":75,"time":84.54537,"velocity":0.41732283464566927},{"duration":0.06818174999999371,"midi":75,"time":84.61355175,"velocity":0.41732283464566927},{"duration":0.06818175000000792,"midi":75,"time":84.68173349999999,"velocity":0.41732283464566927},{"duration":0.06818174999999371,"midi":75,"time":84.74991525,"velocity":0.41732283464566927},{"duration":0.06818175000000792,"midi":75,"time":84.818097,"velocity":0.41732283464566927},{"duration":0.06818174999999371,"midi":75,"time":84.88627875,"velocity":0.41732283464566927},{"duration":0.06818175000000792,"midi":75,"time":84.9544605,"velocity":0.41732283464566927},{"duration":0.06818174999999371,"midi":75,"time":85.02264225,"velocity":0.41732283464566927},{"duration":0.06818175000000792,"midi":75,"time":85.090824,"velocity":0.41732283464566927},{"duration":0.06818174999999371,"midi":75,"time":85.15900575,"velocity":0.41732283464566927},{"duration":0.06818174999999371,"midi":75,"time":85.2271875,"velocity":0.41732283464566927},{"duration":0.06818175000000792,"midi":75,"time":85.29536925,"velocity":0.41732283464566927},{"duration":0.06818174999999371,"midi":75,"time":85.363551,"velocity":0.41732283464566927},{"duration":0.06818175000000792,"midi":75,"time":85.43173275,"velocity":0.41732283464566927},{"duration":0.06818174999999371,"midi":75,"time":85.4999145,"velocity":0.41732283464566927},{"duration":0.06818175000000792,"midi":75,"time":85.56809625,"velocity":0.41732283464566927},{"duration":0.06818174999999371,"midi":75,"time":85.636278,"velocity":0.41732283464566927},{"duration":0.06818175000000792,"midi":75,"time":85.70445975,"velocity":0.41732283464566927},{"duration":0.06818174999999371,"midi":75,"time":85.7726415,"velocity":0.41732283464566927},{"duration":0.06818174999999371,"midi":75,"time":85.84082325,"velocity":0.41732283464566927},{"duration":0.06818175000000792,"midi":75,"time":85.909005,"velocity":0.41732283464566927},{"duration":0.06818174999999371,"midi":75,"time":85.97718675,"velocity":0.41732283464566927},{"duration":0.06818175000000792,"midi":75,"time":86.0453685,"velocity":0.41732283464566927},{"duration":0.06818174999999371,"midi":75,"time":86.11355025,"velocity":0.41732283464566927},{"duration":0.06818175000000792,"midi":75,"time":86.181732,"velocity":0.41732283464566927},{"duration":0.06818174999999371,"midi":75,"time":86.24991375,"velocity":0.41732283464566927},{"duration":0.06818174999999371,"midi":75,"time":86.3180955,"velocity":0.41732283464566927},{"duration":0.06818175000000792,"midi":75,"time":86.38627724999999,"velocity":0.41732283464566927},{"duration":0.06818175000000792,"midi":58,"time":139.636224,"velocity":0.41732283464566927},{"duration":0.0681817499999795,"midi":58,"time":139.70440575,"velocity":0.41732283464566927},{"duration":0.0681817499999795,"midi":63,"time":139.70440575,"velocity":0.41732283464566927},{"duration":0.06818175000000792,"midi":58,"time":139.7725875,"velocity":0.41732283464566927},{"duration":0.06818175000000792,"midi":63,"time":139.7725875,"velocity":0.41732283464566927},{"duration":0.06818175000000792,"midi":63,"time":139.84076925,"velocity":0.41732283464566927},{"duration":0.06818175000000792,"midi":58,"time":139.84076925,"velocity":0.41732283464566927},{"duration":0.06818175000000792,"midi":58,"time":139.908951,"velocity":0.41732283464566927},{"duration":0.06818175000000792,"midi":63,"time":139.908951,"velocity":0.41732283464566927},{"duration":0.0681817499999795,"midi":58,"time":139.97713275,"velocity":0.41732283464566927},{"duration":0.0681817499999795,"midi":63,"time":139.97713275,"velocity":0.41732283464566927},{"duration":0.06818175000000792,"midi":63,"time":140.0453145,"velocity":0.41732283464566927},{"duration":0.06818175000000792,"midi":58,"time":140.0453145,"velocity":0.41732283464566927},{"duration":0.06818175000000792,"midi":63,"time":140.11349625,"velocity":0.41732283464566927},{"duration":0.06818175000000792,"midi":58,"time":140.11349625,"velocity":0.41732283464566927},{"duration":0.0681817499999795,"midi":63,"time":140.181678,"velocity":0.41732283464566927},{"duration":0.0681817499999795,"midi":69,"time":140.181678,"velocity":0.41732283464566927},{"duration":0.06818175000000792,"midi":74,"time":140.24985974999998,"velocity":0.41732283464566927},{"duration":0.06818175000000792,"midi":69,"time":140.24985974999998,"velocity":0.41732283464566927},{"duration":0.06818175000000792,"midi":69,"time":140.3180415,"velocity":0.41732283464566927},{"duration":0.06818175000000792,"midi":74,"time":140.3180415,"velocity":0.41732283464566927},{"duration":0.06818175000000792,"midi":69,"time":140.38622325,"velocity":0.41732283464566927},{"duration":0.06818175000000792,"midi":74,"time":140.38622325,"velocity":0.41732283464566927},{"duration":0.0681817499999795,"midi":69,"time":140.454405,"velocity":0.41732283464566927},{"duration":0.0681817499999795,"midi":74,"time":140.454405,"velocity":0.41732283464566927},{"duration":0.06818175000000792,"midi":74,"time":140.52258675,"velocity":0.41732283464566927},{"duration":0.06818175000000792,"midi":69,"time":140.52258675,"velocity":0.41732283464566927},{"duration":0.06818175000000792,"midi":74,"time":140.5907685,"velocity":0.41732283464566927},{"duration":0.06818175000000792,"midi":69,"time":140.5907685,"velocity":0.41732283464566927},{"duration":0.06818175000000792,"midi":69,"time":140.65895025,"velocity":0.41732283464566927},{"duration":0.06818175000000792,"midi":74,"time":140.65895025,"velocity":0.41732283464566927},{"duration":0.0681817499999795,"midi":66,"time":140.727132,"velocity":0.41732283464566927},{"duration":0.0681817499999795,"midi":74,"time":140.727132,"velocity":0.41732283464566927},{"duration":0.06818175000000792,"midi":71,"time":140.79531375,"velocity":0.41732283464566927},{"duration":0.06818175000000792,"midi":66,"time":140.79531375,"velocity":0.41732283464566927},{"duration":0.06818175000000792,"midi":71,"time":140.8634955,"velocity":0.41732283464566927},{"duration":0.06818175000000792,"midi":66,"time":140.8634955,"velocity":0.41732283464566927},{"duration":0.0681817499999795,"midi":66,"time":140.93167725,"velocity":0.41732283464566927},{"duration":0.0681817499999795,"midi":71,"time":140.93167725,"velocity":0.41732283464566927},{"duration":0.06818175000000792,"midi":71,"time":140.999859,"velocity":0.41732283464566927},{"duration":0.06818175000000792,"midi":66,"time":140.999859,"velocity":0.41732283464566927},{"duration":0.06818175000000792,"midi":66,"time":141.06804075,"velocity":0.41732283464566927},{"duration":0.06818175000000792,"midi":71,"time":141.06804075,"velocity":0.41732283464566927},{"duration":0.06818175000000792,"midi":71,"time":141.1362225,"velocity":0.41732283464566927},{"duration":0.06818175000000792,"midi":66,"time":141.1362225,"velocity":0.41732283464566927},{"duration":0.0681817499999795,"midi":71,"time":141.20440425,"velocity":0.41732283464566927},{"duration":0.0681817499999795,"midi":66,"time":141.20440425,"velocity":0.41732283464566927},{"duration":0.06818175000000792,"midi":71,"time":141.272586,"velocity":0.41732283464566927},{"duration":0.06818175000000792,"midi":65,"time":141.272586,"velocity":0.41732283464566927},{"duration":0.06818175000000792,"midi":65,"time":141.34076775,"velocity":0.41732283464566927},{"duration":0.06818175000000792,"midi":70,"time":141.34076775,"velocity":0.41732283464566927},{"duration":0.0681817499999795,"midi":70,"time":141.4089495,"velocity":0.41732283464566927},{"duration":0.0681817499999795,"midi":65,"time":141.4089495,"velocity":0.41732283464566927},{"duration":0.06818175000000792,"midi":70,"time":141.47713124999999,"velocity":0.41732283464566927},{"duration":0.06818175000000792,"midi":65,"time":141.47713124999999,"velocity":0.41732283464566927},{"duration":0.06818175000000792,"midi":70,"time":141.545313,"velocity":0.41732283464566927},{"duration":0.06818175000000792,"midi":65,"time":141.545313,"velocity":0.41732283464566927},{"duration":0.06818175000000792,"midi":65,"time":141.61349475,"velocity":0.41732283464566927},{"duration":0.06818175000000792,"midi":70,"time":141.61349475,"velocity":0.41732283464566927},{"duration":0.0681817499999795,"midi":70,"time":141.6816765,"velocity":0.41732283464566927},{"duration":0.0681817499999795,"midi":65,"time":141.6816765,"velocity":0.41732283464566927},{"duration":0.06818175000000792,"midi":65,"time":141.74985825,"velocity":0.41732283464566927},{"duration":0.06818175000000792,"midi":70,"time":141.74985825,"velocity":0.41732283464566927},{"duration":0.06818175000000792,"midi":70,"time":141.81804,"velocity":0.41732283464566927},{"duration":0.06818175000000792,"midi":70,"time":141.81804,"velocity":0.41732283464566927},{"duration":0.06818175000000792,"midi":70,"time":141.88622175,"velocity":0.41732283464566927},{"duration":0.06818175000000792,"midi":75,"time":141.88622175,"velocity":0.41732283464566927},{"duration":0.0681817499999795,"midi":70,"time":141.9544035,"velocity":0.41732283464566927},{"duration":0.0681817499999795,"midi":75,"time":141.9544035,"velocity":0.41732283464566927},{"duration":0.06818175000000792,"midi":75,"time":142.02258525,"velocity":0.41732283464566927},{"duration":0.06818175000000792,"midi":70,"time":142.02258525,"velocity":0.41732283464566927},{"duration":0.06818175000000792,"midi":75,"time":142.090767,"velocity":0.41732283464566927},{"duration":0.06818175000000792,"midi":70,"time":142.090767,"velocity":0.41732283464566927},{"duration":0.0681817499999795,"midi":75,"time":142.15894875,"velocity":0.41732283464566927},{"duration":0.0681817499999795,"midi":70,"time":142.15894875,"velocity":0.41732283464566927},{"duration":0.06818175000000792,"midi":70,"time":142.2271305,"velocity":0.41732283464566927},{"duration":0.06818175000000792,"midi":75,"time":142.2271305,"velocity":0.41732283464566927},{"duration":0.06818175000000792,"midi":70,"time":142.29531225,"velocity":0.41732283464566927},{"duration":0.06818175000000792,"midi":75,"time":142.29531225,"velocity":0.41732283464566927},{"duration":0.06818175000000792,"midi":69,"time":142.363494,"velocity":0.41732283464566927},{"duration":0.06818175000000792,"midi":75,"time":142.363494,"velocity":0.41732283464566927},{"duration":0.0681817499999795,"midi":69,"time":142.43167575,"velocity":0.41732283464566927},{"duration":0.0681817499999795,"midi":74,"time":142.43167575,"velocity":0.41732283464566927},{"duration":0.06818175000000792,"midi":74,"time":142.4998575,"velocity":0.41732283464566927},{"duration":0.06818175000000792,"midi":69,"time":142.4998575,"velocity":0.41732283464566927},{"duration":0.06818175000000792,"midi":74,"time":142.56803925,"velocity":0.41732283464566927},{"duration":0.06818175000000792,"midi":69,"time":142.56803925,"velocity":0.41732283464566927},{"duration":0.0681817499999795,"midi":74,"time":142.636221,"velocity":0.41732283464566927},{"duration":0.0681817499999795,"midi":69,"time":142.636221,"velocity":0.41732283464566927},{"duration":0.06818175000000792,"midi":74,"time":142.70440274999999,"velocity":0.41732283464566927},{"duration":0.06818175000000792,"midi":69,"time":142.70440274999999,"velocity":0.41732283464566927},{"duration":0.06818175000000792,"midi":69,"time":142.7725845,"velocity":0.41732283464566927},{"duration":0.06818175000000792,"midi":74,"time":142.7725845,"velocity":0.41732283464566927},{"duration":0.06818175000000792,"midi":69,"time":142.84076625,"velocity":0.41732283464566927},{"duration":0.06818175000000792,"midi":74,"time":142.84076625,"velocity":0.41732283464566927},{"duration":0.0681817499999795,"midi":74,"time":142.908948,"velocity":0.41732283464566927},{"duration":0.0681817499999795,"midi":66,"time":142.908948,"velocity":0.41732283464566927},{"duration":0.06818175000000792,"midi":71,"time":142.97712975,"velocity":0.41732283464566927},{"duration":0.06818175000000792,"midi":66,"time":142.97712975,"velocity":0.41732283464566927},{"duration":0.06818175000000792,"midi":66,"time":143.0453115,"velocity":0.41732283464566927},{"duration":0.06818175000000792,"midi":71,"time":143.0453115,"velocity":0.41732283464566927},{"duration":0.06818175000000792,"midi":71,"time":143.11349325,"velocity":0.41732283464566927},{"duration":0.06818175000000792,"midi":66,"time":143.11349325,"velocity":0.41732283464566927},{"duration":0.0681817499999795,"midi":66,"time":143.181675,"velocity":0.41732283464566927},{"duration":0.0681817499999795,"midi":71,"time":143.181675,"velocity":0.41732283464566927},{"duration":0.06818175000000792,"midi":66,"time":143.24985675,"velocity":0.41732283464566927},{"duration":0.06818175000000792,"midi":71,"time":143.24985675,"velocity":0.41732283464566927},{"duration":0.06818175000000792,"midi":66,"time":143.3180385,"velocity":0.41732283464566927},{"duration":0.06818175000000792,"midi":71,"time":143.3180385,"velocity":0.41732283464566927},{"duration":0.0681817499999795,"midi":66,"time":143.38622025,"velocity":0.41732283464566927},{"duration":0.0681817499999795,"midi":71,"time":143.38622025,"velocity":0.41732283464566927},{"duration":0.06818175000000792,"midi":71,"time":143.454402,"velocity":0.41732283464566927},{"duration":0.06818175000000792,"midi":65,"time":143.454402,"velocity":0.41732283464566927},{"duration":0.06818175000000792,"midi":70,"time":143.52258375,"velocity":0.41732283464566927},{"duration":0.06818175000000792,"midi":65,"time":143.52258375,"velocity":0.41732283464566927},{"duration":0.06818175000000792,"midi":70,"time":143.5907655,"velocity":0.41732283464566927},{"duration":0.06818175000000792,"midi":65,"time":143.5907655,"velocity":0.41732283464566927},{"duration":0.0681817499999795,"midi":65,"time":143.65894725,"velocity":0.41732283464566927},{"duration":0.0681817499999795,"midi":70,"time":143.65894725,"velocity":0.41732283464566927},{"duration":0.06818175000000792,"midi":70,"time":143.727129,"velocity":0.41732283464566927},{"duration":0.06818175000000792,"midi":65,"time":143.727129,"velocity":0.41732283464566927},{"duration":0.06818175000000792,"midi":65,"time":143.79531075,"velocity":0.41732283464566927},{"duration":0.06818175000000792,"midi":70,"time":143.79531075,"velocity":0.41732283464566927},{"duration":0.0681817499999795,"midi":70,"time":143.8634925,"velocity":0.41732283464566927},{"duration":0.0681817499999795,"midi":65,"time":143.8634925,"velocity":0.41732283464566927},{"duration":0.06818175000000792,"midi":70,"time":143.93167425,"velocity":0.41732283464566927},{"duration":0.06818175000000792,"midi":65,"time":143.93167425,"velocity":0.41732283464566927},{"duration":0.06818175000000792,"midi":70,"time":143.999856,"velocity":0.41732283464566927},{"duration":0.06818175000000792,"midi":63,"time":143.999856,"velocity":0.41732283464566927},{"duration":0.06818175000000792,"midi":68,"time":144.06803775,"velocity":0.41732283464566927},{"duration":0.06818175000000792,"midi":63,"time":144.06803775,"velocity":0.41732283464566927},{"duration":0.0681817499999795,"midi":63,"time":144.1362195,"velocity":0.41732283464566927},{"duration":0.0681817499999795,"midi":68,"time":144.1362195,"velocity":0.41732283464566927},{"duration":0.06818175000000792,"midi":63,"time":144.20440125,"velocity":0.41732283464566927},{"duration":0.06818175000000792,"midi":68,"time":144.20440125,"velocity":0.41732283464566927},{"duration":0.06818175000000792,"midi":68,"time":144.272583,"velocity":0.41732283464566927},{"duration":0.06818175000000792,"midi":63,"time":144.272583,"velocity":0.41732283464566927},{"duration":0.0681817499999795,"midi":68,"time":144.34076475,"velocity":0.41732283464566927},{"duration":0.0681817499999795,"midi":63,"time":144.34076475,"velocity":0.41732283464566927},{"duration":0.06818175000000792,"midi":63,"time":144.40894649999998,"velocity":0.41732283464566927},{"duration":0.06818175000000792,"midi":68,"time":144.40894649999998,"velocity":0.41732283464566927},{"duration":0.06818175000000792,"midi":63,"time":144.47712825,"velocity":0.41732283464566927},{"duration":0.06818175000000792,"midi":68,"time":144.47712825,"velocity":0.41732283464566927},{"duration":0.06818175000000792,"midi":68,"time":144.54531,"velocity":0.41732283464566927},{"duration":0.06818175000000792,"midi":62,"time":144.54531,"velocity":0.41732283464566927},{"duration":0.0681817499999795,"midi":62,"time":144.61349175,"velocity":0.41732283464566927},{"duration":0.0681817499999795,"midi":67,"time":144.61349175,"velocity":0.41732283464566927},{"duration":0.06818175000000792,"midi":62,"time":144.6816735,"velocity":0.41732283464566927},{"duration":0.06818175000000792,"midi":67,"time":144.6816735,"velocity":0.41732283464566927},{"duration":0.06818175000000792,"midi":62,"time":144.74985525,"velocity":0.41732283464566927},{"duration":0.06818175000000792,"midi":67,"time":144.74985525,"velocity":0.41732283464566927},{"duration":0.06818175000000792,"midi":62,"time":144.818037,"velocity":0.41732283464566927},{"duration":0.06818175000000792,"midi":67,"time":144.818037,"velocity":0.41732283464566927},{"duration":0.0681817499999795,"midi":62,"time":144.88621875,"velocity":0.41732283464566927},{"duration":0.0681817499999795,"midi":67,"time":144.88621875,"velocity":0.41732283464566927},{"duration":0.06818175000000792,"midi":62,"time":144.9544005,"velocity":0.41732283464566927},{"duration":0.06818175000000792,"midi":67,"time":144.9544005,"velocity":0.41732283464566927},{"duration":0.06818175000000792,"midi":67,"time":145.02258225,"velocity":0.41732283464566927},{"duration":0.06818175000000792,"midi":62,"time":145.02258225,"velocity":0.41732283464566927},{"duration":0.0681817499999795,"midi":62,"time":145.090764,"velocity":0.41732283464566927},{"duration":0.0681817499999795,"midi":67,"time":145.090764,"velocity":0.41732283464566927},{"duration":0.06818175000000792,"midi":67,"time":145.15894575,"velocity":0.41732283464566927},{"duration":0.06818175000000792,"midi":62,"time":145.15894575,"velocity":0.41732283464566927},{"duration":0.06818175000000792,"midi":67,"time":145.2271275,"velocity":0.41732283464566927},{"duration":0.06818175000000792,"midi":62,"time":145.2271275,"velocity":0.41732283464566927},{"duration":0.06818175000000792,"midi":67,"time":145.29530925,"velocity":0.41732283464566927},{"duration":0.06818175000000792,"midi":62,"time":145.29530925,"velocity":0.41732283464566927},{"duration":0.0681817499999795,"midi":62,"time":145.363491,"velocity":0.41732283464566927},{"duration":0.0681817499999795,"midi":67,"time":145.363491,"velocity":0.41732283464566927},{"duration":0.06818175000000792,"midi":67,"time":145.43167275,"velocity":0.41732283464566927},{"duration":0.06818175000000792,"midi":62,"time":145.43167275,"velocity":0.41732283464566927},{"duration":0.06818175000000792,"midi":67,"time":145.4998545,"velocity":0.41732283464566927},{"duration":0.06818175000000792,"midi":62,"time":145.4998545,"velocity":0.41732283464566927},{"duration":0.0681817499999795,"midi":67,"time":145.56803625,"velocity":0.41732283464566927},{"duration":0.0681817499999795,"midi":62,"time":145.56803625,"velocity":0.41732283464566927},{"duration":0.06818175000000792,"midi":62,"time":145.63621799999999,"velocity":0.41732283464566927},{"duration":0.06818175000000792,"midi":67,"time":145.63621799999999,"velocity":0.41732283464566927},{"duration":0.06818175000000792,"midi":62,"time":145.70439975,"velocity":0.41732283464566927},{"duration":0.06818175000000792,"midi":67,"time":145.70439975,"velocity":0.41732283464566927},{"duration":0.06818175000000792,"midi":67,"time":145.7725815,"velocity":0.41732283464566927},{"duration":0.06818175000000792,"midi":62,"time":145.7725815,"velocity":0.41732283464566927},{"duration":0.0681817499999795,"midi":67,"time":145.84076325,"velocity":0.41732283464566927},{"duration":0.0681817499999795,"midi":62,"time":145.84076325,"velocity":0.41732283464566927},{"duration":0.06818175000000792,"midi":62,"time":145.908945,"velocity":0.41732283464566927},{"duration":0.06818175000000792,"midi":67,"time":145.908945,"velocity":0.41732283464566927},{"duration":0.06818175000000792,"midi":67,"time":145.97712675,"velocity":0.41732283464566927},{"duration":0.06818175000000792,"midi":62,"time":145.97712675,"velocity":0.41732283464566927},{"duration":0.06818175000000792,"midi":67,"time":146.0453085,"velocity":0.41732283464566927},{"duration":0.06818175000000792,"midi":62,"time":146.0453085,"velocity":0.41732283464566927},{"duration":0.0681817499999795,"midi":62,"time":146.11349025,"velocity":0.41732283464566927},{"duration":0.0681817499999795,"midi":67,"time":146.11349025,"velocity":0.41732283464566927},{"duration":0.06818175000000792,"midi":67,"time":146.181672,"velocity":0.41732283464566927},{"duration":0.06818175000000792,"midi":58,"time":148.363488,"velocity":0.41732283464566927},{"duration":0.06818175000000792,"midi":63,"time":148.43166975,"velocity":0.41732283464566927},{"duration":0.06818175000000792,"midi":58,"time":148.43166975,"velocity":0.41732283464566927},{"duration":0.0681817499999795,"midi":63,"time":148.4998515,"velocity":0.41732283464566927},{"duration":0.0681817499999795,"midi":58,"time":148.4998515,"velocity":0.41732283464566927},{"duration":0.06818175000000792,"midi":63,"time":148.56803324999998,"velocity":0.41732283464566927},{"duration":0.06818175000000792,"midi":58,"time":148.56803324999998,"velocity":0.41732283464566927},{"duration":0.06818175000000792,"midi":63,"time":148.636215,"velocity":0.41732283464566927},{"duration":0.06818175000000792,"midi":58,"time":148.636215,"velocity":0.41732283464566927},{"duration":0.06818175000000792,"midi":58,"time":148.70439675,"velocity":0.41732283464566927},{"duration":0.06818175000000792,"midi":63,"time":148.70439675,"velocity":0.41732283464566927},{"duration":0.0681817499999795,"midi":63,"time":148.7725785,"velocity":0.41732283464566927},{"duration":0.0681817499999795,"midi":58,"time":148.7725785,"velocity":0.41732283464566927},{"duration":0.06818175000000792,"midi":63,"time":148.84076025,"velocity":0.41732283464566927},{"duration":0.06818175000000792,"midi":58,"time":148.84076025,"velocity":0.41732283464566927},{"duration":0.06818175000000792,"midi":63,"time":148.908942,"velocity":0.41732283464566927},{"duration":0.06818175000000792,"midi":69,"time":148.908942,"velocity":0.41732283464566927},{"duration":0.06818175000000792,"midi":74,"time":148.97712375,"velocity":0.41732283464566927},{"duration":0.06818175000000792,"midi":69,"time":148.97712375,"velocity":0.41732283464566927},{"duration":0.0681817499999795,"midi":69,"time":149.0453055,"velocity":0.41732283464566927},{"duration":0.0681817499999795,"midi":74,"time":149.0453055,"velocity":0.41732283464566927},{"duration":0.06818175000000792,"midi":74,"time":149.11348725,"velocity":0.41732283464566927},{"duration":0.06818175000000792,"midi":69,"time":149.11348725,"velocity":0.41732283464566927},{"duration":0.06818175000000792,"midi":69,"time":149.181669,"velocity":0.41732283464566927},{"duration":0.06818175000000792,"midi":74,"time":149.181669,"velocity":0.41732283464566927},{"duration":0.0681817499999795,"midi":69,"time":149.24985075,"velocity":0.41732283464566927},{"duration":0.0681817499999795,"midi":74,"time":149.24985075,"velocity":0.41732283464566927},{"duration":0.06818175000000792,"midi":69,"time":149.3180325,"velocity":0.41732283464566927},{"duration":0.06818175000000792,"midi":74,"time":149.3180325,"velocity":0.41732283464566927},{"duration":0.06818175000000792,"midi":74,"time":149.38621425,"velocity":0.41732283464566927},{"duration":0.06818175000000792,"midi":69,"time":149.38621425,"velocity":0.41732283464566927},{"duration":0.06818175000000792,"midi":66,"time":149.454396,"velocity":0.41732283464566927},{"duration":0.06818175000000792,"midi":74,"time":149.454396,"velocity":0.41732283464566927},{"duration":0.0681817499999795,"midi":66,"time":149.52257775,"velocity":0.41732283464566927},{"duration":0.0681817499999795,"midi":71,"time":149.52257775,"velocity":0.41732283464566927},{"duration":0.06818175000000792,"midi":66,"time":149.5907595,"velocity":0.41732283464566927},{"duration":0.06818175000000792,"midi":71,"time":149.5907595,"velocity":0.41732283464566927},{"duration":0.06818175000000792,"midi":71,"time":149.65894125,"velocity":0.41732283464566927},{"duration":0.06818175000000792,"midi":66,"time":149.65894125,"velocity":0.41732283464566927},{"duration":0.0681817499999795,"midi":66,"time":149.727123,"velocity":0.41732283464566927},{"duration":0.0681817499999795,"midi":71,"time":149.727123,"velocity":0.41732283464566927},{"duration":0.06818175000000792,"midi":66,"time":149.79530474999999,"velocity":0.41732283464566927},{"duration":0.06818175000000792,"midi":71,"time":149.79530474999999,"velocity":0.41732283464566927},{"duration":0.06818175000000792,"midi":71,"time":149.8634865,"velocity":0.41732283464566927},{"duration":0.06818175000000792,"midi":66,"time":149.8634865,"velocity":0.41732283464566927},{"duration":0.06818175000000792,"midi":71,"time":149.93166825,"velocity":0.41732283464566927},{"duration":0.06818175000000792,"midi":66,"time":149.93166825,"velocity":0.41732283464566927},{"duration":0.0681817499999795,"midi":71,"time":149.99985,"velocity":0.41732283464566927},{"duration":0.0681817499999795,"midi":65,"time":149.99985,"velocity":0.41732283464566927},{"duration":0.06818175000000792,"midi":70,"time":150.06803175,"velocity":0.41732283464566927},{"duration":0.06818175000000792,"midi":65,"time":150.06803175,"velocity":0.41732283464566927},{"duration":0.06818175000000792,"midi":70,"time":150.1362135,"velocity":0.41732283464566927},{"duration":0.06818175000000792,"midi":65,"time":150.1362135,"velocity":0.41732283464566927},{"duration":0.06818175000000792,"midi":65,"time":150.20439525,"velocity":0.41732283464566927},{"duration":0.06818175000000792,"midi":70,"time":150.20439525,"velocity":0.41732283464566927},{"duration":0.0681817499999795,"midi":70,"time":150.272577,"velocity":0.41732283464566927},{"duration":0.0681817499999795,"midi":65,"time":150.272577,"velocity":0.41732283464566927},{"duration":0.06818175000000792,"midi":70,"time":150.34075875,"velocity":0.41732283464566927},{"duration":0.06818175000000792,"midi":65,"time":150.34075875,"velocity":0.41732283464566927},{"duration":0.06818175000000792,"midi":70,"time":150.4089405,"velocity":0.41732283464566927},{"duration":0.06818175000000792,"midi":65,"time":150.4089405,"velocity":0.41732283464566927},{"duration":0.0681817499999795,"midi":65,"time":150.47712225,"velocity":0.41732283464566927},{"duration":0.0681817499999795,"midi":70,"time":150.47712225,"velocity":0.41732283464566927},{"duration":0.06818175000000792,"midi":70,"time":150.545304,"velocity":0.41732283464566927},{"duration":0.06818175000000792,"midi":70,"time":150.545304,"velocity":0.41732283464566927},{"duration":0.06818175000000792,"midi":75,"time":150.61348575,"velocity":0.41732283464566927},{"duration":0.06818175000000792,"midi":70,"time":150.61348575,"velocity":0.41732283464566927},{"duration":0.06818175000000792,"midi":75,"time":150.6816675,"velocity":0.41732283464566927},{"duration":0.06818175000000792,"midi":70,"time":150.6816675,"velocity":0.41732283464566927},{"duration":0.0681817499999795,"midi":70,"time":150.74984925,"velocity":0.41732283464566927},{"duration":0.0681817499999795,"midi":75,"time":150.74984925,"velocity":0.41732283464566927},{"duration":0.06818175000000792,"midi":70,"time":150.818031,"velocity":0.41732283464566927},{"duration":0.06818175000000792,"midi":75,"time":150.818031,"velocity":0.41732283464566927},{"duration":0.06818175000000792,"midi":70,"time":150.88621275,"velocity":0.41732283464566927},{"duration":0.06818175000000792,"midi":75,"time":150.88621275,"velocity":0.41732283464566927},{"duration":0.0681817499999795,"midi":75,"time":150.9543945,"velocity":0.41732283464566927},{"duration":0.0681817499999795,"midi":70,"time":150.9543945,"velocity":0.41732283464566927},{"duration":0.06818175000000792,"midi":75,"time":151.02257625,"velocity":0.41732283464566927},{"duration":0.06818175000000792,"midi":70,"time":151.02257625,"velocity":0.41732283464566927},{"duration":0.06818175000000792,"midi":75,"time":151.090758,"velocity":0.41732283464566927},{"duration":0.06818175000000792,"midi":69,"time":151.090758,"velocity":0.41732283464566927},{"duration":0.06818175000000792,"midi":69,"time":151.15893975,"velocity":0.41732283464566927},{"duration":0.06818175000000792,"midi":74,"time":151.15893975,"velocity":0.41732283464566927},{"duration":0.0681817499999795,"midi":69,"time":151.2271215,"velocity":0.41732283464566927},{"duration":0.0681817499999795,"midi":74,"time":151.2271215,"velocity":0.41732283464566927},{"duration":0.06818175000000792,"midi":69,"time":151.29530325,"velocity":0.41732283464566927},{"duration":0.06818175000000792,"midi":74,"time":151.29530325,"velocity":0.41732283464566927},{"duration":0.06818175000000792,"midi":74,"time":151.363485,"velocity":0.41732283464566927},{"duration":0.06818175000000792,"midi":69,"time":151.363485,"velocity":0.41732283464566927},{"duration":0.0681817499999795,"midi":69,"time":151.43166675,"velocity":0.41732283464566927},{"duration":0.0681817499999795,"midi":74,"time":151.43166675,"velocity":0.41732283464566927},{"duration":0.06818175000000792,"midi":74,"time":151.49984849999998,"velocity":0.41732283464566927},{"duration":0.06818175000000792,"midi":69,"time":151.49984849999998,"velocity":0.41732283464566927},{"duration":0.06818175000000792,"midi":74,"time":151.56803025,"velocity":0.41732283464566927},{"duration":0.06818175000000792,"midi":69,"time":151.56803025,"velocity":0.41732283464566927},{"duration":0.06818175000000792,"midi":74,"time":151.636212,"velocity":0.41732283464566927},{"duration":0.06818175000000792,"midi":66,"time":151.636212,"velocity":0.41732283464566927},{"duration":0.0681817499999795,"midi":66,"time":151.70439375,"velocity":0.41732283464566927},{"duration":0.0681817499999795,"midi":71,"time":151.70439375,"velocity":0.41732283464566927},{"duration":0.06818175000000792,"midi":71,"time":151.7725755,"velocity":0.41732283464566927},{"duration":0.06818175000000792,"midi":66,"time":151.7725755,"velocity":0.41732283464566927},{"duration":0.06818175000000792,"midi":66,"time":151.84075725,"velocity":0.41732283464566927},{"duration":0.06818175000000792,"midi":71,"time":151.84075725,"velocity":0.41732283464566927},{"duration":0.06818175000000792,"midi":71,"time":151.908939,"velocity":0.41732283464566927},{"duration":0.06818175000000792,"midi":66,"time":151.908939,"velocity":0.41732283464566927},{"duration":0.0681817499999795,"midi":66,"time":151.97712075,"velocity":0.41732283464566927},{"duration":0.0681817499999795,"midi":71,"time":151.97712075,"velocity":0.41732283464566927},{"duration":0.06818175000000792,"midi":66,"time":152.0453025,"velocity":0.41732283464566927},{"duration":0.06818175000000792,"midi":71,"time":152.0453025,"velocity":0.41732283464566927},{"duration":0.06818175000000792,"midi":71,"time":152.11348425,"velocity":0.41732283464566927},{"duration":0.06818175000000792,"midi":66,"time":152.11348425,"velocity":0.41732283464566927},{"duration":0.0681817499999795,"midi":71,"time":152.181666,"velocity":0.41732283464566927},{"duration":0.0681817499999795,"midi":71,"time":152.181666,"velocity":0.41732283464566927},{"duration":0.06818175000000792,"midi":71,"time":152.24984775,"velocity":0.41732283464566927},{"duration":0.06818175000000792,"midi":76,"time":152.24984775,"velocity":0.41732283464566927},{"duration":0.06818175000000792,"midi":76,"time":152.3180295,"velocity":0.41732283464566927},{"duration":0.06818175000000792,"midi":71,"time":152.3180295,"velocity":0.41732283464566927},{"duration":0.06818175000000792,"midi":76,"time":152.38621125,"velocity":0.41732283464566927},{"duration":0.06818175000000792,"midi":71,"time":152.38621125,"velocity":0.41732283464566927},{"duration":0.0681817499999795,"midi":71,"time":152.454393,"velocity":0.41732283464566927},{"duration":0.0681817499999795,"midi":76,"time":152.454393,"velocity":0.41732283464566927},{"duration":0.06818175000000792,"midi":71,"time":152.52257475,"velocity":0.41732283464566927},{"duration":0.06818175000000792,"midi":76,"time":152.52257475,"velocity":0.41732283464566927},{"duration":0.06818175000000792,"midi":71,"time":152.5907565,"velocity":0.41732283464566927},{"duration":0.06818175000000792,"midi":76,"time":152.5907565,"velocity":0.41732283464566927},{"duration":0.0681817499999795,"midi":76,"time":152.65893825,"velocity":0.41732283464566927},{"duration":0.0681817499999795,"midi":71,"time":152.65893825,"velocity":0.41732283464566927},{"duration":0.06818175000000792,"midi":76,"time":152.72711999999999,"velocity":0.41732283464566927},{"duration":0.06818175000000792,"midi":70,"time":152.72711999999999,"velocity":0.41732283464566927},{"duration":0.06818175000000792,"midi":75,"time":152.79530175,"velocity":0.41732283464566927},{"duration":0.06818175000000792,"midi":70,"time":152.79530175,"velocity":0.41732283464566927},{"duration":0.06818175000000792,"midi":70,"time":152.8634835,"velocity":0.41732283464566927},{"duration":0.06818175000000792,"midi":75,"time":152.8634835,"velocity":0.41732283464566927},{"duration":0.0681817499999795,"midi":75,"time":152.93166525,"velocity":0.41732283464566927},{"duration":0.0681817499999795,"midi":70,"time":152.93166525,"velocity":0.41732283464566927},{"duration":0.06818175000000792,"midi":75,"time":152.999847,"velocity":0.41732283464566927},{"duration":0.06818175000000792,"midi":70,"time":152.999847,"velocity":0.41732283464566927},{"duration":0.06818175000000792,"midi":75,"time":153.06802875,"velocity":0.41732283464566927},{"duration":0.06818175000000792,"midi":70,"time":153.06802875,"velocity":0.41732283464566927},{"duration":0.06818175000000792,"midi":75,"time":153.1362105,"velocity":0.41732283464566927},{"duration":0.06818175000000792,"midi":70,"time":153.1362105,"velocity":0.41732283464566927},{"duration":0.0681817499999795,"midi":75,"time":153.20439225,"velocity":0.41732283464566927},{"duration":0.0681817499999795,"midi":70,"time":153.20439225,"velocity":0.41732283464566927},{"duration":0.06818175000000792,"midi":75,"time":153.272574,"velocity":0.41732283464566927},{"duration":0.06818175000000792,"midi":70,"time":153.272574,"velocity":0.41732283464566927},{"duration":0.06818175000000792,"midi":75,"time":153.34075575,"velocity":0.41732283464566927},{"duration":0.06818175000000792,"midi":70,"time":153.34075575,"velocity":0.41732283464566927},{"duration":0.0681817499999795,"midi":75,"time":153.4089375,"velocity":0.41732283464566927},{"duration":0.0681817499999795,"midi":70,"time":153.4089375,"velocity":0.41732283464566927},{"duration":0.06818175000000792,"midi":75,"time":153.47711925,"velocity":0.41732283464566927},{"duration":0.06818175000000792,"midi":70,"time":153.47711925,"velocity":0.41732283464566927},{"duration":0.06818175000000792,"midi":70,"time":153.545301,"velocity":0.41732283464566927},{"duration":0.06818175000000792,"midi":75,"time":153.545301,"velocity":0.41732283464566927},{"duration":0.06818175000000792,"midi":70,"time":153.61348275,"velocity":0.41732283464566927},{"duration":0.06818175000000792,"midi":75,"time":153.61348275,"velocity":0.41732283464566927},{"duration":0.0681817499999795,"midi":70,"time":153.6816645,"velocity":0.41732283464566927},{"duration":0.0681817499999795,"midi":75,"time":153.6816645,"velocity":0.41732283464566927},{"duration":0.06818175000000792,"midi":75,"time":153.74984625,"velocity":0.41732283464566927},{"duration":0.06818175000000792,"midi":70,"time":153.74984625,"velocity":0.41732283464566927},{"duration":0.06818175000000792,"midi":75,"time":153.818028,"velocity":0.41732283464566927},{"duration":0.06818175000000792,"midi":70,"time":153.818028,"velocity":0.41732283464566927},{"duration":0.0681817499999795,"midi":70,"time":153.88620975,"velocity":0.41732283464566927},{"duration":0.0681817499999795,"midi":75,"time":153.88620975,"velocity":0.41732283464566927},{"duration":0.06818175000000792,"midi":75,"time":153.95439149999999,"velocity":0.41732283464566927},{"duration":0.06818175000000792,"midi":70,"time":153.95439149999999,"velocity":0.41732283464566927},{"duration":0.06818175000000792,"midi":75,"time":154.02257325,"velocity":0.41732283464566927},{"duration":0.06818175000000792,"midi":70,"time":154.02257325,"velocity":0.41732283464566927},{"duration":0.06818175000000792,"midi":75,"time":154.090755,"velocity":0.41732283464566927},{"duration":0.06818175000000792,"midi":70,"time":154.090755,"velocity":0.41732283464566927},{"duration":0.0681817499999795,"midi":70,"time":154.15893675,"velocity":0.41732283464566927},{"duration":0.0681817499999795,"midi":75,"time":154.15893675,"velocity":0.41732283464566927},{"duration":0.06818175000000792,"midi":70,"time":154.2271185,"velocity":0.41732283464566927},{"duration":0.06818175000000792,"midi":75,"time":154.2271185,"velocity":0.41732283464566927},{"duration":0.06818175000000792,"midi":75,"time":154.29530025,"velocity":0.41732283464566927},{"duration":0.06818175000000792,"midi":75,"time":154.29530025,"velocity":0.41732283464566927},{"duration":0.06818175000000792,"midi":70,"time":154.29530025,"velocity":0.41732283464566927},{"duration":0.0681817499999795,"midi":75,"time":154.363482,"velocity":0.41732283464566927},{"duration":0.0681817499999795,"midi":70,"time":154.363482,"velocity":0.41732283464566927},{"duration":0.0681817499999795,"midi":75,"time":154.363482,"velocity":0.41732283464566927},{"duration":0.06818175000000792,"midi":70,"time":154.43166374999998,"velocity":0.41732283464566927},{"duration":0.06818175000000792,"midi":75,"time":154.43166374999998,"velocity":0.41732283464566927},{"duration":0.06818175000000792,"midi":75,"time":154.4998455,"velocity":0.41732283464566927},{"duration":0.06818175000000792,"midi":70,"time":154.4998455,"velocity":0.41732283464566927},{"duration":0.06818175000000792,"midi":70,"time":154.56802725,"velocity":0.41732283464566927},{"duration":0.06818175000000792,"midi":75,"time":154.56802725,"velocity":0.41732283464566927},{"duration":0.0681817499999795,"midi":75,"time":154.636209,"velocity":0.41732283464566927},{"duration":0.06818175000000792,"midi":66,"time":174.54528,"velocity":0.41732283464566927},{"duration":0.06818175000000792,"midi":61,"time":174.54528,"velocity":0.41732283464566927},{"duration":0.06818175000000792,"midi":66,"time":174.61346175,"velocity":0.41732283464566927},{"duration":0.06818175000000792,"midi":61,"time":174.61346175,"velocity":0.41732283464566927},{"duration":0.0681817499999795,"midi":66,"time":174.6816435,"velocity":0.41732283464566927},{"duration":0.0681817499999795,"midi":61,"time":174.6816435,"velocity":0.41732283464566927},{"duration":0.06818175000000792,"midi":61,"time":174.74982525,"velocity":0.41732283464566927},{"duration":0.06818175000000792,"midi":66,"time":174.74982525,"velocity":0.41732283464566927},{"duration":0.06818175000000792,"midi":61,"time":174.818007,"velocity":0.41732283464566927},{"duration":0.06818175000000792,"midi":66,"time":174.818007,"velocity":0.41732283464566927},{"duration":0.06818175000000792,"midi":61,"time":174.88618875,"velocity":0.41732283464566927},{"duration":0.06818175000000792,"midi":66,"time":174.88618875,"velocity":0.41732283464566927},{"duration":0.0681817499999795,"midi":61,"time":174.9543705,"velocity":0.41732283464566927},{"duration":0.0681817499999795,"midi":66,"time":174.9543705,"velocity":0.41732283464566927},{"duration":0.06818175000000792,"midi":61,"time":175.02255225,"velocity":0.41732283464566927},{"duration":0.06818175000000792,"midi":66,"time":175.02255225,"velocity":0.41732283464566927},{"duration":0.06818175000000792,"midi":66,"time":175.090734,"velocity":0.41732283464566927},{"duration":0.06818175000000792,"midi":61,"time":175.090734,"velocity":0.41732283464566927},{"duration":0.0681817499999795,"midi":66,"time":175.15891575,"velocity":0.41732283464566927},{"duration":0.0681817499999795,"midi":61,"time":175.15891575,"velocity":0.41732283464566927},{"duration":0.06818175000000792,"midi":61,"time":175.22709749999999,"velocity":0.41732283464566927},{"duration":0.06818175000000792,"midi":66,"time":175.22709749999999,"velocity":0.41732283464566927},{"duration":0.06818175000000792,"midi":61,"time":175.29527925,"velocity":0.41732283464566927},{"duration":0.06818175000000792,"midi":66,"time":175.29527925,"velocity":0.41732283464566927},{"duration":0.06818175000000792,"midi":66,"time":175.363461,"velocity":0.41732283464566927},{"duration":0.06818175000000792,"midi":61,"time":175.363461,"velocity":0.41732283464566927},{"duration":0.0681817499999795,"midi":66,"time":175.43164275,"velocity":0.41732283464566927},{"duration":0.0681817499999795,"midi":61,"time":175.43164275,"velocity":0.41732283464566927},{"duration":0.06818175000000792,"midi":61,"time":175.4998245,"velocity":0.41732283464566927},{"duration":0.06818175000000792,"midi":66,"time":175.4998245,"velocity":0.41732283464566927},{"duration":0.06818175000000792,"midi":66,"time":175.56800625,"velocity":0.41732283464566927},{"duration":0.06818175000000792,"midi":61,"time":175.56800625,"velocity":0.41732283464566927},{"duration":0.06818175000000792,"midi":66,"time":175.636188,"velocity":0.41732283464566927},{"duration":0.06818175000000792,"midi":61,"time":175.636188,"velocity":0.41732283464566927},{"duration":0.0681817499999795,"midi":66,"time":175.70436975,"velocity":0.41732283464566927},{"duration":0.0681817499999795,"midi":61,"time":175.70436975,"velocity":0.41732283464566927},{"duration":0.06818175000000792,"midi":66,"time":175.7725515,"velocity":0.41732283464566927},{"duration":0.06818175000000792,"midi":61,"time":175.7725515,"velocity":0.41732283464566927},{"duration":0.06818175000000792,"midi":66,"time":175.84073325,"velocity":0.41732283464566927},{"duration":0.06818175000000792,"midi":61,"time":175.84073325,"velocity":0.41732283464566927},{"duration":0.0681817499999795,"midi":61,"time":175.908915,"velocity":0.41732283464566927},{"duration":0.0681817499999795,"midi":66,"time":175.908915,"velocity":0.41732283464566927},{"duration":0.06818175000000792,"midi":61,"time":175.97709675,"velocity":0.41732283464566927},{"duration":0.06818175000000792,"midi":66,"time":175.97709675,"velocity":0.41732283464566927},{"duration":0.06818175000000792,"midi":61,"time":176.0452785,"velocity":0.41732283464566927},{"duration":0.06818175000000792,"midi":66,"time":176.0452785,"velocity":0.41732283464566927},{"duration":0.06818175000000792,"midi":61,"time":176.11346025,"velocity":0.41732283464566927},{"duration":0.06818175000000792,"midi":66,"time":176.11346025,"velocity":0.41732283464566927},{"duration":0.0681817499999795,"midi":61,"time":176.181642,"velocity":0.41732283464566927},{"duration":0.0681817499999795,"midi":66,"time":176.181642,"velocity":0.41732283464566927},{"duration":0.06818175000000792,"midi":61,"time":176.24982375,"velocity":0.41732283464566927},{"duration":0.06818175000000792,"midi":66,"time":176.24982375,"velocity":0.41732283464566927},{"duration":0.06818175000000792,"midi":66,"time":176.3180055,"velocity":0.41732283464566927},{"duration":0.06818175000000792,"midi":61,"time":176.3180055,"velocity":0.41732283464566927},{"duration":0.0681817499999795,"midi":66,"time":176.38618725,"velocity":0.41732283464566927},{"duration":0.0681817499999795,"midi":61,"time":176.38618725,"velocity":0.41732283464566927},{"duration":0.06818175000000792,"midi":61,"time":176.45436899999999,"velocity":0.41732283464566927},{"duration":0.06818175000000792,"midi":66,"time":176.45436899999999,"velocity":0.41732283464566927},{"duration":0.06818175000000792,"midi":61,"time":176.52255075,"velocity":0.41732283464566927},{"duration":0.06818175000000792,"midi":66,"time":176.52255075,"velocity":0.41732283464566927},{"duration":0.06818175000000792,"midi":66,"time":176.5907325,"velocity":0.41732283464566927},{"duration":0.06818175000000792,"midi":61,"time":176.5907325,"velocity":0.41732283464566927},{"duration":0.0681817499999795,"midi":61,"time":176.65891425,"velocity":0.41732283464566927},{"duration":0.0681817499999795,"midi":66,"time":176.65891425,"velocity":0.41732283464566927},{"duration":0.06818175000000792,"midi":65,"time":176.727096,"velocity":0.41732283464566927},{"duration":0.06818175000000792,"midi":60,"time":176.727096,"velocity":0.41732283464566927},{"duration":0.06818175000000792,"midi":65,"time":176.79527775,"velocity":0.41732283464566927},{"duration":0.06818175000000792,"midi":60,"time":176.79527775,"velocity":0.41732283464566927},{"duration":0.0681817499999795,"midi":60,"time":176.8634595,"velocity":0.41732283464566927},{"duration":0.0681817499999795,"midi":65,"time":176.8634595,"velocity":0.41732283464566927},{"duration":0.06818175000000792,"midi":65,"time":176.93164124999998,"velocity":0.41732283464566927},{"duration":0.06818175000000792,"midi":60,"time":176.93164124999998,"velocity":0.41732283464566927},{"duration":0.06818175000000792,"midi":60,"time":176.999823,"velocity":0.41732283464566927},{"duration":0.06818175000000792,"midi":65,"time":176.999823,"velocity":0.41732283464566927},{"duration":0.06818175000000792,"midi":60,"time":177.06800475,"velocity":0.41732283464566927},{"duration":0.06818175000000792,"midi":65,"time":177.06800475,"velocity":0.41732283464566927},{"duration":0.0681817499999795,"midi":60,"time":177.1361865,"velocity":0.41732283464566927},{"duration":0.0681817499999795,"midi":65,"time":177.1361865,"velocity":0.41732283464566927},{"duration":0.06818175000000792,"midi":65,"time":177.20436825,"velocity":0.41732283464566927},{"duration":0.06818175000000792,"midi":60,"time":177.20436825,"velocity":0.41732283464566927},{"duration":0.06818175000000792,"midi":60,"time":177.27255,"velocity":0.41732283464566927},{"duration":0.06818175000000792,"midi":65,"time":177.27255,"velocity":0.41732283464566927},{"duration":0.06818175000000792,"midi":65,"time":177.34073175,"velocity":0.41732283464566927},{"duration":0.06818175000000792,"midi":60,"time":177.34073175,"velocity":0.41732283464566927},{"duration":0.0681817499999795,"midi":60,"time":177.4089135,"velocity":0.41732283464566927},{"duration":0.0681817499999795,"midi":65,"time":177.4089135,"velocity":0.41732283464566927},{"duration":0.06818175000000792,"midi":60,"time":177.47709525,"velocity":0.41732283464566927},{"duration":0.06818175000000792,"midi":65,"time":177.47709525,"velocity":0.41732283464566927},{"duration":0.06818175000000792,"midi":60,"time":177.545277,"velocity":0.41732283464566927},{"duration":0.06818175000000792,"midi":65,"time":177.545277,"velocity":0.41732283464566927},{"duration":0.0681817499999795,"midi":60,"time":177.61345875,"velocity":0.41732283464566927},{"duration":0.0681817499999795,"midi":65,"time":177.61345875,"velocity":0.41732283464566927},{"duration":0.06818175000000792,"midi":60,"time":177.6816405,"velocity":0.41732283464566927},{"duration":0.06818175000000792,"midi":65,"time":177.6816405,"velocity":0.41732283464566927},{"duration":0.06818175000000792,"midi":65,"time":177.74982225,"velocity":0.41732283464566927},{"duration":0.06818175000000792,"midi":60,"time":177.74982225,"velocity":0.41732283464566927},{"duration":0.06818175000000792,"midi":60,"time":177.818004,"velocity":0.41732283464566927},{"duration":0.06818175000000792,"midi":65,"time":177.818004,"velocity":0.41732283464566927},{"duration":0.0681817499999795,"midi":60,"time":177.88618575,"velocity":0.41732283464566927},{"duration":0.0681817499999795,"midi":65,"time":177.88618575,"velocity":0.41732283464566927},{"duration":0.06818175000000792,"midi":65,"time":177.9543675,"velocity":0.41732283464566927},{"duration":0.06818175000000792,"midi":60,"time":177.9543675,"velocity":0.41732283464566927},{"duration":0.06818175000000792,"midi":65,"time":178.02254925,"velocity":0.41732283464566927},{"duration":0.06818175000000792,"midi":60,"time":178.02254925,"velocity":0.41732283464566927},{"duration":0.0681817499999795,"midi":65,"time":178.090731,"velocity":0.41732283464566927},{"duration":0.0681817499999795,"midi":60,"time":178.090731,"velocity":0.41732283464566927},{"duration":0.06818175000000792,"midi":60,"time":178.15891274999998,"velocity":0.41732283464566927},{"duration":0.06818175000000792,"midi":65,"time":178.15891274999998,"velocity":0.41732283464566927},{"duration":0.06818175000000792,"midi":65,"time":178.2270945,"velocity":0.41732283464566927},{"duration":0.06818175000000792,"midi":60,"time":178.2270945,"velocity":0.41732283464566927},{"duration":0.06818175000000792,"midi":60,"time":178.29527625,"velocity":0.41732283464566927},{"duration":0.06818175000000792,"midi":65,"time":178.29527625,"velocity":0.41732283464566927},{"duration":0.0681817499999795,"midi":56,"time":178.363458,"velocity":0.41732283464566927},{"duration":0.0681817499999795,"midi":61,"time":178.363458,"velocity":0.41732283464566927},{"duration":0.06818175000000792,"midi":56,"time":178.43163975,"velocity":0.41732283464566927},{"duration":0.06818175000000792,"midi":61,"time":178.43163975,"velocity":0.41732283464566927},{"duration":0.06818175000000792,"midi":61,"time":178.4998215,"velocity":0.41732283464566927},{"duration":0.06818175000000792,"midi":56,"time":178.4998215,"velocity":0.41732283464566927},{"duration":0.06818175000000792,"midi":61,"time":178.56800325,"velocity":0.41732283464566927},{"duration":0.06818175000000792,"midi":56,"time":178.56800325,"velocity":0.41732283464566927},{"duration":0.0681817499999795,"midi":56,"time":178.636185,"velocity":0.41732283464566927},{"duration":0.0681817499999795,"midi":61,"time":178.636185,"velocity":0.41732283464566927},{"duration":0.06818175000000792,"midi":56,"time":178.70436675,"velocity":0.41732283464566927},{"duration":0.06818175000000792,"midi":61,"time":178.70436675,"velocity":0.41732283464566927},{"duration":0.06818175000000792,"midi":56,"time":178.7725485,"velocity":0.41732283464566927},{"duration":0.06818175000000792,"midi":61,"time":178.7725485,"velocity":0.41732283464566927},{"duration":0.0681817499999795,"midi":56,"time":178.84073025,"velocity":0.41732283464566927},{"duration":0.0681817499999795,"midi":61,"time":178.84073025,"velocity":0.41732283464566927},{"duration":0.06818175000000792,"midi":66,"time":178.908912,"velocity":0.41732283464566927},{"duration":0.06818175000000792,"midi":61,"time":178.908912,"velocity":0.41732283464566927},{"duration":0.06818175000000792,"midi":66,"time":178.97709375,"velocity":0.41732283464566927},{"duration":0.06818175000000792,"midi":61,"time":178.97709375,"velocity":0.41732283464566927},{"duration":0.06818175000000792,"midi":61,"time":179.0452755,"velocity":0.41732283464566927},{"duration":0.06818175000000792,"midi":66,"time":179.0452755,"velocity":0.41732283464566927},{"duration":0.0681817499999795,"midi":61,"time":179.11345725,"velocity":0.41732283464566927},{"duration":0.0681817499999795,"midi":66,"time":179.11345725,"velocity":0.41732283464566927},{"duration":0.06818175000000792,"midi":66,"time":179.181639,"velocity":0.41732283464566927},{"duration":0.06818175000000792,"midi":61,"time":179.181639,"velocity":0.41732283464566927},{"duration":0.06818175000000792,"midi":61,"time":179.24982075,"velocity":0.41732283464566927},{"duration":0.06818175000000792,"midi":66,"time":179.24982075,"velocity":0.41732283464566927},{"duration":0.0681817499999795,"midi":61,"time":179.3180025,"velocity":0.41732283464566927},{"duration":0.0681817499999795,"midi":66,"time":179.3180025,"velocity":0.41732283464566927},{"duration":0.06818175000000792,"midi":61,"time":179.38618424999999,"velocity":0.41732283464566927},{"duration":0.06818175000000792,"midi":66,"time":179.38618424999999,"velocity":0.41732283464566927},{"duration":0.06818175000000792,"midi":66,"time":179.454366,"velocity":0.41732283464566927},{"duration":0.06818175000000792,"midi":61,"time":179.454366,"velocity":0.41732283464566927},{"duration":0.06818175000000792,"midi":66,"time":179.52254775,"velocity":0.41732283464566927},{"duration":0.06818175000000792,"midi":61,"time":179.52254775,"velocity":0.41732283464566927},{"duration":0.0681817499999795,"midi":66,"time":179.5907295,"velocity":0.41732283464566927},{"duration":0.0681817499999795,"midi":61,"time":179.5907295,"velocity":0.41732283464566927},{"duration":0.06818175000000792,"midi":66,"time":179.65891125,"velocity":0.41732283464566927},{"duration":0.06818175000000792,"midi":61,"time":179.65891125,"velocity":0.41732283464566927},{"duration":0.06818175000000792,"midi":66,"time":179.727093,"velocity":0.41732283464566927},{"duration":0.06818175000000792,"midi":61,"time":179.727093,"velocity":0.41732283464566927},{"duration":0.06818175000000792,"midi":61,"time":179.79527475,"velocity":0.41732283464566927},{"duration":0.06818175000000792,"midi":66,"time":179.79527475,"velocity":0.41732283464566927},{"duration":0.0681817499999795,"midi":61,"time":179.8634565,"velocity":0.41732283464566927},{"duration":0.0681817499999795,"midi":66,"time":179.8634565,"velocity":0.41732283464566927},{"duration":0.06818175000000792,"midi":66,"time":179.93163825,"velocity":0.41732283464566927},{"duration":0.06818175000000792,"midi":61,"time":179.93163825,"velocity":0.41732283464566927},{"duration":0.06818175000000792,"midi":66,"time":179.99982,"velocity":0.41732283464566927},{"duration":0.06818175000000792,"midi":61,"time":179.99982,"velocity":0.41732283464566927},{"duration":0.0681817499999795,"midi":61,"time":180.06800175,"velocity":0.41732283464566927},{"duration":0.0681817499999795,"midi":66,"time":180.06800175,"velocity":0.41732283464566927},{"duration":0.06818175000000792,"midi":61,"time":180.1361835,"velocity":0.41732283464566927},{"duration":0.06818175000000792,"midi":66,"time":180.1361835,"velocity":0.41732283464566927},{"duration":0.06818175000000792,"midi":61,"time":180.20436525,"velocity":0.41732283464566927},{"duration":0.06818175000000792,"midi":66,"time":180.20436525,"velocity":0.41732283464566927},{"duration":0.06818175000000792,"midi":66,"time":180.272547,"velocity":0.41732283464566927},{"duration":0.06818175000000792,"midi":61,"time":180.272547,"velocity":0.41732283464566927},{"duration":0.0681817499999795,"midi":66,"time":180.34072875,"velocity":0.41732283464566927},{"duration":0.0681817499999795,"midi":61,"time":180.34072875,"velocity":0.41732283464566927},{"duration":0.06818175000000792,"midi":66,"time":180.4089105,"velocity":0.41732283464566927},{"duration":0.06818175000000792,"midi":61,"time":180.4089105,"velocity":0.41732283464566927},{"duration":0.06818175000000792,"midi":66,"time":180.47709225,"velocity":0.41732283464566927},{"duration":0.06818175000000792,"midi":61,"time":180.47709225,"velocity":0.41732283464566927},{"duration":0.0681817499999795,"midi":66,"time":180.545274,"velocity":0.41732283464566927},{"duration":0.0681817499999795,"midi":61,"time":180.545274,"velocity":0.41732283464566927},{"duration":0.06818175000000792,"midi":66,"time":180.61345574999999,"velocity":0.41732283464566927},{"duration":0.06818175000000792,"midi":61,"time":180.61345574999999,"velocity":0.41732283464566927},{"duration":0.06818175000000792,"midi":66,"time":180.6816375,"velocity":0.41732283464566927},{"duration":0.06818175000000792,"midi":61,"time":180.6816375,"velocity":0.41732283464566927},{"duration":0.06818175000000792,"midi":66,"time":180.74981925,"velocity":0.41732283464566927},{"duration":0.06818175000000792,"midi":61,"time":180.74981925,"velocity":0.41732283464566927},{"duration":0.0681817499999795,"midi":66,"time":180.818001,"velocity":0.41732283464566927},{"duration":0.0681817499999795,"midi":61,"time":180.818001,"velocity":0.41732283464566927},{"duration":0.06818175000000792,"midi":66,"time":180.88618275,"velocity":0.41732283464566927},{"duration":0.06818175000000792,"midi":61,"time":180.88618275,"velocity":0.41732283464566927},{"duration":0.06818175000000792,"midi":61,"time":180.9543645,"velocity":0.41732283464566927},{"duration":0.06818175000000792,"midi":66,"time":180.9543645,"velocity":0.41732283464566927},{"duration":0.0681817499999795,"midi":66,"time":181.02254625,"velocity":0.41732283464566927},{"duration":0.0681817499999795,"midi":61,"time":181.02254625,"velocity":0.41732283464566927},{"duration":0.06818175000000792,"midi":67,"time":181.09072799999998,"velocity":0.41732283464566927},{"duration":0.06818175000000792,"midi":62,"time":181.09072799999998,"velocity":0.41732283464566927},{"duration":0.06818175000000792,"midi":62,"time":181.15890975,"velocity":0.41732283464566927},{"duration":0.06818175000000792,"midi":67,"time":181.15890975,"velocity":0.41732283464566927},{"duration":0.06818175000000792,"midi":67,"time":181.2270915,"velocity":0.41732283464566927},{"duration":0.06818175000000792,"midi":62,"time":181.2270915,"velocity":0.41732283464566927},{"duration":0.0681817499999795,"midi":67,"time":181.29527325,"velocity":0.41732283464566927},{"duration":0.0681817499999795,"midi":62,"time":181.29527325,"velocity":0.41732283464566927},{"duration":0.06818175000000792,"midi":62,"time":181.363455,"velocity":0.41732283464566927},{"duration":0.06818175000000792,"midi":67,"time":181.363455,"velocity":0.41732283464566927},{"duration":0.06818175000000792,"midi":67,"time":181.43163675,"velocity":0.41732283464566927},{"duration":0.06818175000000792,"midi":62,"time":181.43163675,"velocity":0.41732283464566927},{"duration":0.06818175000000792,"midi":67,"time":181.4998185,"velocity":0.41732283464566927},{"duration":0.06818175000000792,"midi":62,"time":181.4998185,"velocity":0.41732283464566927},{"duration":0.0681817499999795,"midi":67,"time":181.56800025,"velocity":0.41732283464566927},{"duration":0.0681817499999795,"midi":62,"time":181.56800025,"velocity":0.41732283464566927},{"duration":0.06818175000000792,"midi":67,"time":181.636182,"velocity":0.41732283464566927},{"duration":0.06818175000000792,"midi":62,"time":181.636182,"velocity":0.41732283464566927},{"duration":0.06818175000000792,"midi":62,"time":181.70436375,"velocity":0.41732283464566927},{"duration":0.06818175000000792,"midi":67,"time":181.70436375,"velocity":0.41732283464566927},{"duration":0.0681817499999795,"midi":67,"time":181.7725455,"velocity":0.41732283464566927},{"duration":0.0681817499999795,"midi":62,"time":181.7725455,"velocity":0.41732283464566927},{"duration":0.06818175000000792,"midi":67,"time":181.84072725,"velocity":0.41732283464566927},{"duration":0.06818175000000792,"midi":62,"time":181.84072725,"velocity":0.41732283464566927},{"duration":0.06818175000000792,"midi":62,"time":181.908909,"velocity":0.41732283464566927},{"duration":0.06818175000000792,"midi":67,"time":181.908909,"velocity":0.41732283464566927},{"duration":0.06818175000000792,"midi":62,"time":181.97709075,"velocity":0.41732283464566927},{"duration":0.06818175000000792,"midi":67,"time":181.97709075,"velocity":0.41732283464566927},{"duration":0.0681817499999795,"midi":62,"time":182.0452725,"velocity":0.41732283464566927},{"duration":0.0681817499999795,"midi":67,"time":182.0452725,"velocity":0.41732283464566927},{"duration":0.06818175000000792,"midi":67,"time":182.11345425,"velocity":0.41732283464566927},{"duration":0.06818175000000792,"midi":62,"time":182.11345425,"velocity":0.41732283464566927},{"duration":0.06818175000000792,"midi":67,"time":182.181636,"velocity":0.41732283464566927},{"duration":0.06818175000000792,"midi":62,"time":182.181636,"velocity":0.41732283464566927},{"duration":0.06818175000000792,"midi":65,"time":182.181636,"velocity":0.41732283464566927},{"duration":0.06818175000000792,"midi":70,"time":182.181636,"velocity":0.41732283464566927},{"duration":0.0681817499999795,"midi":70,"time":182.24981775,"velocity":0.41732283464566927},{"duration":0.0681817499999795,"midi":65,"time":182.24981775,"velocity":0.41732283464566927},{"duration":0.0681817499999795,"midi":67,"time":182.24981775,"velocity":0.41732283464566927},{"duration":0.0681817499999795,"midi":62,"time":182.24981775,"velocity":0.41732283464566927},{"duration":0.06818175000000792,"midi":62,"time":182.31799949999998,"velocity":0.41732283464566927},{"duration":0.06818175000000792,"midi":70,"time":182.31799949999998,"velocity":0.41732283464566927},{"duration":0.06818175000000792,"midi":67,"time":182.31799949999998,"velocity":0.41732283464566927},{"duration":0.06818175000000792,"midi":65,"time":182.31799949999998,"velocity":0.41732283464566927},{"duration":0.06818175000000792,"midi":70,"time":182.38618125,"velocity":0.41732283464566927},{"duration":0.06818175000000792,"midi":65,"time":182.38618125,"velocity":0.41732283464566927},{"duration":0.06818175000000792,"midi":62,"time":182.38618125,"velocity":0.41732283464566927},{"duration":0.06818175000000792,"midi":67,"time":182.38618125,"velocity":0.41732283464566927},{"duration":0.06818175000000792,"midi":70,"time":182.454363,"velocity":0.41732283464566927},{"duration":0.06818175000000792,"midi":67,"time":182.454363,"velocity":0.41732283464566927},{"duration":0.06818175000000792,"midi":65,"time":182.454363,"velocity":0.41732283464566927},{"duration":0.06818175000000792,"midi":62,"time":182.454363,"velocity":0.41732283464566927},{"duration":0.0681817499999795,"midi":70,"time":182.52254475,"velocity":0.41732283464566927},{"duration":0.0681817499999795,"midi":67,"time":182.52254475,"velocity":0.41732283464566927},{"duration":0.0681817499999795,"midi":65,"time":182.52254475,"velocity":0.41732283464566927},{"duration":0.0681817499999795,"midi":62,"time":182.52254475,"velocity":0.41732283464566927},{"duration":0.06818175000000792,"midi":65,"time":182.5907265,"velocity":0.41732283464566927},{"duration":0.06818175000000792,"midi":62,"time":182.5907265,"velocity":0.41732283464566927},{"duration":0.06818175000000792,"midi":70,"time":182.5907265,"velocity":0.41732283464566927},{"duration":0.06818175000000792,"midi":67,"time":182.5907265,"velocity":0.41732283464566927},{"duration":0.06818175000000792,"midi":65,"time":182.65890825,"velocity":0.41732283464566927},{"duration":0.06818175000000792,"midi":67,"time":182.65890825,"velocity":0.41732283464566927},{"duration":0.06818175000000792,"midi":70,"time":182.65890825,"velocity":0.41732283464566927},{"duration":0.06818175000000792,"midi":62,"time":182.65890825,"velocity":0.41732283464566927},{"duration":0.06818175000000792,"midi":70,"time":182.72709,"velocity":0.41732283464566927},{"duration":0.06818175000000792,"midi":62,"time":182.72709,"velocity":0.41732283464566927},{"duration":0.06818175000000792,"midi":67,"time":182.72709,"velocity":0.41732283464566927},{"duration":0.06818175000000792,"midi":65,"time":182.72709,"velocity":0.41732283464566927},{"duration":0.0681817499999795,"midi":65,"time":182.79527175,"velocity":0.41732283464566927},{"duration":0.0681817499999795,"midi":67,"time":182.79527175,"velocity":0.41732283464566927},{"duration":0.0681817499999795,"midi":70,"time":182.79527175,"velocity":0.41732283464566927},{"duration":0.0681817499999795,"midi":62,"time":182.79527175,"velocity":0.41732283464566927},{"duration":0.06818175000000792,"midi":70,"time":182.8634535,"velocity":0.41732283464566927},{"duration":0.06818175000000792,"midi":62,"time":182.8634535,"velocity":0.41732283464566927},{"duration":0.06818175000000792,"midi":67,"time":182.8634535,"velocity":0.41732283464566927},{"duration":0.06818175000000792,"midi":65,"time":182.8634535,"velocity":0.41732283464566927},{"duration":0.06818175000000792,"midi":62,"time":182.93163525,"velocity":0.41732283464566927},{"duration":0.06818175000000792,"midi":70,"time":182.93163525,"velocity":0.41732283464566927},{"duration":0.06818175000000792,"midi":67,"time":182.93163525,"velocity":0.41732283464566927},{"duration":0.06818175000000792,"midi":65,"time":182.93163525,"velocity":0.41732283464566927},{"duration":0.0681817499999795,"midi":67,"time":182.999817,"velocity":0.41732283464566927},{"duration":0.0681817499999795,"midi":65,"time":182.999817,"velocity":0.41732283464566927},{"duration":0.0681817499999795,"midi":62,"time":182.999817,"velocity":0.41732283464566927},{"duration":0.0681817499999795,"midi":70,"time":182.999817,"velocity":0.41732283464566927},{"duration":0.06818175000000792,"midi":65,"time":183.06799875,"velocity":0.41732283464566927},{"duration":0.06818175000000792,"midi":67,"time":183.06799875,"velocity":0.41732283464566927},{"duration":0.06818175000000792,"midi":62,"time":183.06799875,"velocity":0.41732283464566927},{"duration":0.06818175000000792,"midi":70,"time":183.06799875,"velocity":0.41732283464566927},{"duration":0.06818175000000792,"midi":67,"time":183.1361805,"velocity":0.41732283464566927},{"duration":0.06818175000000792,"midi":70,"time":183.1361805,"velocity":0.41732283464566927},{"duration":0.06818175000000792,"midi":62,"time":183.1361805,"velocity":0.41732283464566927},{"duration":0.06818175000000792,"midi":65,"time":183.1361805,"velocity":0.41732283464566927},{"duration":0.06818175000000792,"midi":70,"time":183.20436225,"velocity":0.41732283464566927},{"duration":0.06818175000000792,"midi":62,"time":183.20436225,"velocity":0.41732283464566927},{"duration":0.06818175000000792,"midi":65,"time":183.20436225,"velocity":0.41732283464566927},{"duration":0.06818175000000792,"midi":67,"time":183.20436225,"velocity":0.41732283464566927},{"duration":0.0681817499999795,"midi":61,"time":183.272544,"velocity":0.41732283464566927},{"duration":0.0681817499999795,"midi":70,"time":183.272544,"velocity":0.41732283464566927},{"duration":0.0681817499999795,"midi":66,"time":183.272544,"velocity":0.41732283464566927},{"duration":0.0681817499999795,"midi":65,"time":183.272544,"velocity":0.41732283464566927},{"duration":0.06818175000000792,"midi":70,"time":183.34072575,"velocity":0.41732283464566927},{"duration":0.06818175000000792,"midi":66,"time":183.34072575,"velocity":0.41732283464566927},{"duration":0.06818175000000792,"midi":65,"time":183.34072575,"velocity":0.41732283464566927},{"duration":0.06818175000000792,"midi":61,"time":183.34072575,"velocity":0.41732283464566927},{"duration":0.06818175000000792,"midi":66,"time":183.4089075,"velocity":0.41732283464566927},{"duration":0.06818175000000792,"midi":70,"time":183.4089075,"velocity":0.41732283464566927},{"duration":0.06818175000000792,"midi":61,"time":183.4089075,"velocity":0.41732283464566927},{"duration":0.06818175000000792,"midi":65,"time":183.4089075,"velocity":0.41732283464566927},{"duration":0.0681817499999795,"midi":65,"time":183.47708925,"velocity":0.41732283464566927},{"duration":0.0681817499999795,"midi":70,"time":183.47708925,"velocity":0.41732283464566927},{"duration":0.0681817499999795,"midi":61,"time":183.47708925,"velocity":0.41732283464566927},{"duration":0.0681817499999795,"midi":66,"time":183.47708925,"velocity":0.41732283464566927},{"duration":0.06818175000000792,"midi":66,"time":183.54527099999999,"velocity":0.41732283464566927},{"duration":0.06818175000000792,"midi":61,"time":183.54527099999999,"velocity":0.41732283464566927},{"duration":0.06818175000000792,"midi":65,"time":183.54527099999999,"velocity":0.41732283464566927},{"duration":0.06818175000000792,"midi":70,"time":183.54527099999999,"velocity":0.41732283464566927},{"duration":0.06818175000000792,"midi":66,"time":183.61345275,"velocity":0.41732283464566927},{"duration":0.06818175000000792,"midi":61,"time":183.61345275,"velocity":0.41732283464566927},{"duration":0.06818175000000792,"midi":65,"time":183.61345275,"velocity":0.41732283464566927},{"duration":0.06818175000000792,"midi":70,"time":183.61345275,"velocity":0.41732283464566927},{"duration":0.06818175000000792,"midi":66,"time":183.6816345,"velocity":0.41732283464566927},{"duration":0.06818175000000792,"midi":61,"time":183.6816345,"velocity":0.41732283464566927},{"duration":0.0681817499999795,"midi":61,"time":183.74981625,"velocity":0.41732283464566927},{"duration":0.0681817499999795,"midi":66,"time":183.74981625,"velocity":0.41732283464566927},{"duration":0.06818175000000792,"midi":66,"time":183.817998,"velocity":0.41732283464566927},{"duration":0.06818175000000792,"midi":61,"time":183.817998,"velocity":0.41732283464566927},{"duration":0.06818175000000792,"midi":66,"time":183.88617975,"velocity":0.41732283464566927},{"duration":0.06818175000000792,"midi":61,"time":183.88617975,"velocity":0.41732283464566927},{"duration":0.0681817499999795,"midi":66,"time":183.9543615,"velocity":0.41732283464566927},{"duration":0.0681817499999795,"midi":61,"time":183.9543615,"velocity":0.41732283464566927},{"duration":0.06818175000000792,"midi":66,"time":184.02254324999998,"velocity":0.41732283464566927},{"duration":0.06818175000000792,"midi":61,"time":184.02254324999998,"velocity":0.41732283464566927},{"duration":0.06818175000000792,"midi":61,"time":184.090725,"velocity":0.41732283464566927},{"duration":0.06818175000000792,"midi":66,"time":184.090725,"velocity":0.41732283464566927},{"duration":0.06818175000000792,"midi":61,"time":184.15890675,"velocity":0.41732283464566927},{"duration":0.06818175000000792,"midi":66,"time":184.15890675,"velocity":0.41732283464566927},{"duration":0.0681817499999795,"midi":66,"time":184.2270885,"velocity":0.41732283464566927},{"duration":0.0681817499999795,"midi":61,"time":184.2270885,"velocity":0.41732283464566927},{"duration":0.06818175000000792,"midi":66,"time":184.29527025,"velocity":0.41732283464566927},{"duration":0.06818175000000792,"midi":61,"time":184.29527025,"velocity":0.41732283464566927},{"duration":0.06818175000000792,"midi":61,"time":184.363452,"velocity":0.41732283464566927},{"duration":0.06818175000000792,"midi":66,"time":184.363452,"velocity":0.41732283464566927},{"duration":0.06818175000000792,"midi":66,"time":184.43163375,"velocity":0.41732283464566927},{"duration":0.06818175000000792,"midi":61,"time":184.43163375,"velocity":0.41732283464566927},{"duration":0.0681817499999795,"midi":61,"time":184.4998155,"velocity":0.41732283464566927},{"duration":0.0681817499999795,"midi":66,"time":184.4998155,"velocity":0.41732283464566927},{"duration":0.06818175000000792,"midi":61,"time":184.56799725,"velocity":0.41732283464566927},{"duration":0.06818175000000792,"midi":66,"time":184.56799725,"velocity":0.41732283464566927},{"duration":0.06818175000000792,"midi":61,"time":184.636179,"velocity":0.41732283464566927},{"duration":0.06818175000000792,"midi":66,"time":184.636179,"velocity":0.41732283464566927},{"duration":0.0681817499999795,"midi":61,"time":184.70436075,"velocity":0.41732283464566927},{"duration":0.0681817499999795,"midi":66,"time":184.70436075,"velocity":0.41732283464566927},{"duration":0.06818175000000792,"midi":61,"time":184.7725425,"velocity":0.41732283464566927},{"duration":0.06818175000000792,"midi":66,"time":184.7725425,"velocity":0.41732283464566927},{"duration":0.06818175000000792,"midi":61,"time":184.84072425,"velocity":0.41732283464566927},{"duration":0.06818175000000792,"midi":66,"time":184.84072425,"velocity":0.41732283464566927},{"duration":0.06818175000000792,"midi":61,"time":184.908906,"velocity":0.41732283464566927},{"duration":0.06818175000000792,"midi":66,"time":184.908906,"velocity":0.41732283464566927},{"duration":0.0681817499999795,"midi":66,"time":184.97708775,"velocity":0.41732283464566927},{"duration":0.0681817499999795,"midi":61,"time":184.97708775,"velocity":0.41732283464566927},{"duration":0.06818175000000792,"midi":61,"time":185.0452695,"velocity":0.41732283464566927},{"duration":0.06818175000000792,"midi":66,"time":185.0452695,"velocity":0.41732283464566927},{"duration":0.06818175000000792,"midi":61,"time":185.11345125,"velocity":0.41732283464566927},{"duration":0.06818175000000792,"midi":66,"time":185.11345125,"velocity":0.41732283464566927},{"duration":0.0681817499999795,"midi":61,"time":185.181633,"velocity":0.41732283464566927},{"duration":0.0681817499999795,"midi":66,"time":185.181633,"velocity":0.41732283464566927},{"duration":0.06818175000000792,"midi":61,"time":185.24981474999998,"velocity":0.41732283464566927},{"duration":0.06818175000000792,"midi":66,"time":185.24981474999998,"velocity":0.41732283464566927},{"duration":0.06818175000000792,"midi":66,"time":185.3179965,"velocity":0.41732283464566927},{"duration":0.06818175000000792,"midi":61,"time":185.3179965,"velocity":0.41732283464566927},{"duration":0.06818175000000792,"midi":66,"time":185.38617825,"velocity":0.41732283464566927},{"duration":0.06818175000000792,"midi":61,"time":185.38617825,"velocity":0.41732283464566927},{"duration":0.0681817499999795,"midi":65,"time":185.45436,"velocity":0.41732283464566927},{"duration":0.0681817499999795,"midi":60,"time":185.45436,"velocity":0.41732283464566927},{"duration":0.06818175000000792,"midi":60,"time":185.52254175,"velocity":0.41732283464566927},{"duration":0.06818175000000792,"midi":65,"time":185.52254175,"velocity":0.41732283464566927},{"duration":0.06818175000000792,"midi":60,"time":185.5907235,"velocity":0.41732283464566927},{"duration":0.06818175000000792,"midi":65,"time":185.5907235,"velocity":0.41732283464566927},{"duration":0.06818175000000792,"midi":60,"time":185.65890525,"velocity":0.41732283464566927},{"duration":0.06818175000000792,"midi":65,"time":185.65890525,"velocity":0.41732283464566927},{"duration":0.0681817499999795,"midi":60,"time":185.727087,"velocity":0.41732283464566927},{"duration":0.0681817499999795,"midi":65,"time":185.727087,"velocity":0.41732283464566927},{"duration":0.06818175000000792,"midi":65,"time":185.79526875,"velocity":0.41732283464566927},{"duration":0.06818175000000792,"midi":60,"time":185.79526875,"velocity":0.41732283464566927},{"duration":0.06818175000000792,"midi":60,"time":185.8634505,"velocity":0.41732283464566927},{"duration":0.06818175000000792,"midi":65,"time":185.8634505,"velocity":0.41732283464566927},{"duration":0.0681817499999795,"midi":65,"time":185.93163225,"velocity":0.41732283464566927},{"duration":0.0681817499999795,"midi":60,"time":185.93163225,"velocity":0.41732283464566927},{"duration":0.06818175000000792,"midi":65,"time":185.999814,"velocity":0.41732283464566927},{"duration":0.06818175000000792,"midi":60,"time":185.999814,"velocity":0.41732283464566927},{"duration":0.06818175000000792,"midi":60,"time":186.06799575,"velocity":0.41732283464566927},{"duration":0.06818175000000792,"midi":65,"time":186.06799575,"velocity":0.41732283464566927},{"duration":0.06818175000000792,"midi":60,"time":186.1361775,"velocity":0.41732283464566927},{"duration":0.06818175000000792,"midi":65,"time":186.1361775,"velocity":0.41732283464566927},{"duration":0.0681817499999795,"midi":65,"time":186.20435925,"velocity":0.41732283464566927},{"duration":0.0681817499999795,"midi":60,"time":186.20435925,"velocity":0.41732283464566927},{"duration":0.06818175000000792,"midi":65,"time":186.272541,"velocity":0.41732283464566927},{"duration":0.06818175000000792,"midi":60,"time":186.272541,"velocity":0.41732283464566927},{"duration":0.06818175000000792,"midi":65,"time":186.34072275,"velocity":0.41732283464566927},{"duration":0.06818175000000792,"midi":60,"time":186.34072275,"velocity":0.41732283464566927},{"duration":0.0681817499999795,"midi":65,"time":186.4089045,"velocity":0.41732283464566927},{"duration":0.0681817499999795,"midi":60,"time":186.4089045,"velocity":0.41732283464566927},{"duration":0.06818175000000792,"midi":65,"time":186.47708624999999,"velocity":0.41732283464566927},{"duration":0.06818175000000792,"midi":60,"time":186.47708624999999,"velocity":0.41732283464566927},{"duration":0.06818175000000792,"midi":60,"time":186.545268,"velocity":0.41732283464566927},{"duration":0.06818175000000792,"midi":65,"time":186.545268,"velocity":0.41732283464566927},{"duration":0.06818175000000792,"midi":65,"time":186.61344975,"velocity":0.41732283464566927},{"duration":0.06818175000000792,"midi":60,"time":186.61344975,"velocity":0.41732283464566927},{"duration":0.0681817499999795,"midi":65,"time":186.6816315,"velocity":0.41732283464566927},{"duration":0.0681817499999795,"midi":60,"time":186.6816315,"velocity":0.41732283464566927},{"duration":0.06818175000000792,"midi":65,"time":186.74981325,"velocity":0.41732283464566927},{"duration":0.06818175000000792,"midi":60,"time":186.74981325,"velocity":0.41732283464566927},{"duration":0.06818175000000792,"midi":65,"time":186.817995,"velocity":0.41732283464566927},{"duration":0.06818175000000792,"midi":60,"time":186.817995,"velocity":0.41732283464566927},{"duration":0.06818175000000792,"midi":65,"time":186.88617675,"velocity":0.41732283464566927},{"duration":0.06818175000000792,"midi":60,"time":186.88617675,"velocity":0.41732283464566927},{"duration":0.0681817499999795,"midi":60,"time":186.9543585,"velocity":0.41732283464566927},{"duration":0.0681817499999795,"midi":65,"time":186.9543585,"velocity":0.41732283464566927},{"duration":0.06818175000000792,"midi":60,"time":187.02254025,"velocity":0.41732283464566927},{"duration":0.06818175000000792,"midi":65,"time":187.02254025,"velocity":0.41732283464566927},{"duration":0.06818175000000792,"midi":56,"time":187.090722,"velocity":0.41732283464566927},{"duration":0.06818175000000792,"midi":61,"time":187.090722,"velocity":0.41732283464566927},{"duration":0.0681817499999795,"midi":61,"time":187.15890375,"velocity":0.41732283464566927},{"duration":0.0681817499999795,"midi":56,"time":187.15890375,"velocity":0.41732283464566927},{"duration":0.06818175000000792,"midi":61,"time":187.2270855,"velocity":0.41732283464566927},{"duration":0.06818175000000792,"midi":56,"time":187.2270855,"velocity":0.41732283464566927},{"duration":0.06818175000000792,"midi":61,"time":187.29526725,"velocity":0.41732283464566927},{"duration":0.06818175000000792,"midi":56,"time":187.29526725,"velocity":0.41732283464566927},{"duration":0.06818175000000792,"midi":61,"time":187.363449,"velocity":0.41732283464566927},{"duration":0.06818175000000792,"midi":56,"time":187.363449,"velocity":0.41732283464566927},{"duration":0.0681817499999795,"midi":61,"time":187.43163075,"velocity":0.41732283464566927},{"duration":0.0681817499999795,"midi":56,"time":187.43163075,"velocity":0.41732283464566927},{"duration":0.06818175000000792,"midi":61,"time":187.4998125,"velocity":0.41732283464566927},{"duration":0.06818175000000792,"midi":56,"time":187.4998125,"velocity":0.41732283464566927},{"duration":0.06818175000000792,"midi":56,"time":187.56799425,"velocity":0.41732283464566927},{"duration":0.06818175000000792,"midi":61,"time":187.56799425,"velocity":0.41732283464566927},{"duration":0.0681817499999795,"midi":61,"time":187.636176,"velocity":0.41732283464566927},{"duration":0.0681817499999795,"midi":66,"time":187.636176,"velocity":0.41732283464566927},{"duration":0.06818175000000792,"midi":61,"time":187.70435774999999,"velocity":0.41732283464566927},{"duration":0.06818175000000792,"midi":66,"time":187.70435774999999,"velocity":0.41732283464566927},{"duration":0.06818175000000792,"midi":61,"time":187.7725395,"velocity":0.41732283464566927},{"duration":0.06818175000000792,"midi":66,"time":187.7725395,"velocity":0.41732283464566927},{"duration":0.06818175000000792,"midi":61,"time":187.84072125,"velocity":0.41732283464566927},{"duration":0.06818175000000792,"midi":66,"time":187.84072125,"velocity":0.41732283464566927},{"duration":0.0681817499999795,"midi":66,"time":187.908903,"velocity":0.41732283464566927},{"duration":0.0681817499999795,"midi":61,"time":187.908903,"velocity":0.41732283464566927},{"duration":0.06818175000000792,"midi":61,"time":187.97708475,"velocity":0.41732283464566927},{"duration":0.06818175000000792,"midi":66,"time":187.97708475,"velocity":0.41732283464566927},{"duration":0.06818175000000792,"midi":61,"time":188.0452665,"velocity":0.41732283464566927},{"duration":0.06818175000000792,"midi":66,"time":188.0452665,"velocity":0.41732283464566927},{"duration":0.0681817499999795,"midi":66,"time":188.11344825,"velocity":0.41732283464566927},{"duration":0.0681817499999795,"midi":61,"time":188.11344825,"velocity":0.41732283464566927},{"duration":0.06818175000000792,"midi":66,"time":188.18162999999998,"velocity":0.41732283464566927},{"duration":0.06818175000000792,"midi":61,"time":188.18162999999998,"velocity":0.41732283464566927},{"duration":0.06818175000000792,"midi":66,"time":188.24981175,"velocity":0.41732283464566927},{"duration":0.06818175000000792,"midi":61,"time":188.24981175,"velocity":0.41732283464566927},{"duration":0.06818175000000792,"midi":66,"time":188.3179935,"velocity":0.41732283464566927},{"duration":0.06818175000000792,"midi":61,"time":188.3179935,"velocity":0.41732283464566927},{"duration":0.0681817499999795,"midi":66,"time":188.38617525,"velocity":0.41732283464566927},{"duration":0.0681817499999795,"midi":61,"time":188.38617525,"velocity":0.41732283464566927},{"duration":0.06818175000000792,"midi":61,"time":188.454357,"velocity":0.41732283464566927},{"duration":0.06818175000000792,"midi":66,"time":188.454357,"velocity":0.41732283464566927},{"duration":0.06818175000000792,"midi":61,"time":188.52253875,"velocity":0.41732283464566927},{"duration":0.06818175000000792,"midi":66,"time":188.52253875,"velocity":0.41732283464566927},{"duration":0.06818175000000792,"midi":66,"time":188.5907205,"velocity":0.41732283464566927},{"duration":0.06818175000000792,"midi":61,"time":188.5907205,"velocity":0.41732283464566927},{"duration":0.0681817499999795,"midi":61,"time":188.65890225,"velocity":0.41732283464566927},{"duration":0.0681817499999795,"midi":66,"time":188.65890225,"velocity":0.41732283464566927},{"duration":0.06818175000000792,"midi":61,"time":188.727084,"velocity":0.41732283464566927},{"duration":0.06818175000000792,"midi":66,"time":188.727084,"velocity":0.41732283464566927},{"duration":0.06818175000000792,"midi":61,"time":188.79526575,"velocity":0.41732283464566927},{"duration":0.06818175000000792,"midi":66,"time":188.79526575,"velocity":0.41732283464566927},{"duration":0.0681817499999795,"midi":66,"time":188.8634475,"velocity":0.41732283464566927},{"duration":0.0681817499999795,"midi":61,"time":188.8634475,"velocity":0.41732283464566927},{"duration":0.06818175000000792,"midi":66,"time":188.93162925,"velocity":0.41732283464566927},{"duration":0.06818175000000792,"midi":61,"time":188.93162925,"velocity":0.41732283464566927},{"duration":0.06818175000000792,"midi":61,"time":188.999811,"velocity":0.41732283464566927},{"duration":0.06818175000000792,"midi":66,"time":188.999811,"velocity":0.41732283464566927},{"duration":0.06818175000000792,"midi":61,"time":189.06799275,"velocity":0.41732283464566927},{"duration":0.06818175000000792,"midi":66,"time":189.06799275,"velocity":0.41732283464566927},{"duration":0.0681817499999795,"midi":66,"time":189.1361745,"velocity":0.41732283464566927},{"duration":0.0681817499999795,"midi":61,"time":189.1361745,"velocity":0.41732283464566927},{"duration":0.06818175000000792,"midi":66,"time":189.20435625,"velocity":0.41732283464566927},{"duration":0.06818175000000792,"midi":61,"time":189.20435625,"velocity":0.41732283464566927},{"duration":0.06818175000000792,"midi":61,"time":189.272538,"velocity":0.41732283464566927},{"duration":0.06818175000000792,"midi":66,"time":189.272538,"velocity":0.41732283464566927},{"duration":0.0681817499999795,"midi":61,"time":189.34071975,"velocity":0.41732283464566927},{"duration":0.0681817499999795,"midi":66,"time":189.34071975,"velocity":0.41732283464566927},{"duration":0.06818175000000792,"midi":61,"time":189.40890149999998,"velocity":0.41732283464566927},{"duration":0.06818175000000792,"midi":66,"time":189.40890149999998,"velocity":0.41732283464566927},{"duration":0.06818175000000792,"midi":61,"time":189.47708325,"velocity":0.41732283464566927},{"duration":0.06818175000000792,"midi":66,"time":189.47708325,"velocity":0.41732283464566927},{"duration":0.06818175000000792,"midi":61,"time":189.545265,"velocity":0.41732283464566927},{"duration":0.06818175000000792,"midi":66,"time":189.545265,"velocity":0.41732283464566927},{"duration":0.0681817499999795,"midi":66,"time":189.61344675,"velocity":0.41732283464566927},{"duration":0.0681817499999795,"midi":61,"time":189.61344675,"velocity":0.41732283464566927},{"duration":0.06818175000000792,"midi":61,"time":189.6816285,"velocity":0.41732283464566927},{"duration":0.06818175000000792,"midi":66,"time":189.6816285,"velocity":0.41732283464566927},{"duration":0.06818175000000792,"midi":66,"time":189.74981025,"velocity":0.41732283464566927},{"duration":0.06818175000000792,"midi":61,"time":189.74981025,"velocity":0.41732283464566927},{"duration":0.06818175000000792,"midi":67,"time":189.817992,"velocity":0.41732283464566927},{"duration":0.06818175000000792,"midi":62,"time":189.817992,"velocity":0.41732283464566927},{"duration":0.0681817499999795,"midi":62,"time":189.88617375,"velocity":0.41732283464566927},{"duration":0.0681817499999795,"midi":67,"time":189.88617375,"velocity":0.41732283464566927},{"duration":0.06818175000000792,"midi":67,"time":189.9543555,"velocity":0.41732283464566927},{"duration":0.06818175000000792,"midi":62,"time":189.9543555,"velocity":0.41732283464566927},{"duration":0.06818175000000792,"midi":67,"time":190.02253725,"velocity":0.41732283464566927},{"duration":0.06818175000000792,"midi":62,"time":190.02253725,"velocity":0.41732283464566927},{"duration":0.0681817499999795,"midi":62,"time":190.090719,"velocity":0.41732283464566927},{"duration":0.0681817499999795,"midi":67,"time":190.090719,"velocity":0.41732283464566927},{"duration":0.06818175000000792,"midi":62,"time":190.15890075,"velocity":0.41732283464566927},{"duration":0.06818175000000792,"midi":67,"time":190.15890075,"velocity":0.41732283464566927},{"duration":0.06818175000000792,"midi":62,"time":190.2270825,"velocity":0.41732283464566927},{"duration":0.06818175000000792,"midi":67,"time":190.2270825,"velocity":0.41732283464566927},{"duration":0.06818175000000792,"midi":62,"time":190.29526425,"velocity":0.41732283464566927},{"duration":0.06818175000000792,"midi":67,"time":190.29526425,"velocity":0.41732283464566927},{"duration":0.0681817499999795,"midi":62,"time":190.363446,"velocity":0.41732283464566927},{"duration":0.0681817499999795,"midi":67,"time":190.363446,"velocity":0.41732283464566927},{"duration":0.06818175000000792,"midi":62,"time":190.43162775,"velocity":0.41732283464566927},{"duration":0.06818175000000792,"midi":67,"time":190.43162775,"velocity":0.41732283464566927},{"duration":0.06818175000000792,"midi":67,"time":190.4998095,"velocity":0.41732283464566927},{"duration":0.06818175000000792,"midi":62,"time":190.4998095,"velocity":0.41732283464566927},{"duration":0.0681817499999795,"midi":62,"time":190.56799125,"velocity":0.41732283464566927},{"duration":0.0681817499999795,"midi":67,"time":190.56799125,"velocity":0.41732283464566927},{"duration":0.06818175000000792,"midi":67,"time":190.63617299999999,"velocity":0.41732283464566927},{"duration":0.06818175000000792,"midi":62,"time":190.63617299999999,"velocity":0.41732283464566927},{"duration":0.06818175000000792,"midi":67,"time":190.70435475,"velocity":0.41732283464566927},{"duration":0.06818175000000792,"midi":62,"time":190.70435475,"velocity":0.41732283464566927},{"duration":0.06818175000000792,"midi":62,"time":190.7725365,"velocity":0.41732283464566927},{"duration":0.06818175000000792,"midi":67,"time":190.7725365,"velocity":0.41732283464566927},{"duration":0.0681817499999795,"midi":67,"time":190.84071825,"velocity":0.41732283464566927},{"duration":0.0681817499999795,"midi":62,"time":190.84071825,"velocity":0.41732283464566927},{"duration":0.06818175000000792,"midi":63,"time":190.9089,"velocity":0.41732283464566927},{"duration":0.06818175000000792,"midi":62,"time":190.9089,"velocity":0.41732283464566927},{"duration":0.06818175000000792,"midi":58,"time":190.9089,"velocity":0.41732283464566927},{"duration":0.06818175000000792,"midi":67,"time":190.9089,"velocity":0.41732283464566927},{"duration":0.06818175000000792,"midi":67,"time":190.97708175,"velocity":0.41732283464566927},{"duration":0.06818175000000792,"midi":62,"time":190.97708175,"velocity":0.41732283464566927},{"duration":0.06818175000000792,"midi":58,"time":190.97708175,"velocity":0.41732283464566927},{"duration":0.06818175000000792,"midi":63,"time":190.97708175,"velocity":0.41732283464566927},{"duration":0.0681817499999795,"midi":63,"time":191.0452635,"velocity":0.41732283464566927},{"duration":0.0681817499999795,"midi":62,"time":191.0452635,"velocity":0.41732283464566927},{"duration":0.0681817499999795,"midi":67,"time":191.0452635,"velocity":0.41732283464566927},{"duration":0.0681817499999795,"midi":58,"time":191.0452635,"velocity":0.41732283464566927},{"duration":0.06818175000000792,"midi":63,"time":191.11344524999998,"velocity":0.41732283464566927},{"duration":0.06818175000000792,"midi":58,"time":191.11344524999998,"velocity":0.41732283464566927},{"duration":0.06818175000000792,"midi":62,"time":191.11344524999998,"velocity":0.41732283464566927},{"duration":0.06818175000000792,"midi":67,"time":191.11344524999998,"velocity":0.41732283464566927},{"duration":0.06818175000000792,"midi":62,"time":191.181627,"velocity":0.41732283464566927},{"duration":0.06818175000000792,"midi":67,"time":191.181627,"velocity":0.41732283464566927},{"duration":0.06818175000000792,"midi":63,"time":191.181627,"velocity":0.41732283464566927},{"duration":0.06818175000000792,"midi":58,"time":191.181627,"velocity":0.41732283464566927},{"duration":0.06818175000000792,"midi":67,"time":191.24980875,"velocity":0.41732283464566927},{"duration":0.06818175000000792,"midi":58,"time":191.24980875,"velocity":0.41732283464566927},{"duration":0.06818175000000792,"midi":62,"time":191.24980875,"velocity":0.41732283464566927},{"duration":0.06818175000000792,"midi":63,"time":191.24980875,"velocity":0.41732283464566927},{"duration":0.0681817499999795,"midi":67,"time":191.3179905,"velocity":0.41732283464566927},{"duration":0.0681817499999795,"midi":62,"time":191.3179905,"velocity":0.41732283464566927},{"duration":0.0681817499999795,"midi":58,"time":191.3179905,"velocity":0.41732283464566927},{"duration":0.0681817499999795,"midi":63,"time":191.3179905,"velocity":0.41732283464566927},{"duration":0.06818175000000792,"midi":62,"time":191.38617225,"velocity":0.41732283464566927},{"duration":0.06818175000000792,"midi":63,"time":191.38617225,"velocity":0.41732283464566927},{"duration":0.06818175000000792,"midi":67,"time":191.38617225,"velocity":0.41732283464566927},{"duration":0.06818175000000792,"midi":58,"time":191.38617225,"velocity":0.41732283464566927},{"duration":0.06818175000000792,"midi":67,"time":191.454354,"velocity":0.41732283464566927},{"duration":0.06818175000000792,"midi":62,"time":191.454354,"velocity":0.41732283464566927},{"duration":0.06818175000000792,"midi":63,"time":191.454354,"velocity":0.41732283464566927},{"duration":0.06818175000000792,"midi":58,"time":191.454354,"velocity":0.41732283464566927},{"duration":0.06818175000000792,"midi":67,"time":191.52253575,"velocity":0.41732283464566927},{"duration":0.06818175000000792,"midi":58,"time":191.52253575,"velocity":0.41732283464566927},{"duration":0.06818175000000792,"midi":63,"time":191.52253575,"velocity":0.41732283464566927},{"duration":0.06818175000000792,"midi":62,"time":191.52253575,"velocity":0.41732283464566927},{"duration":0.0681817499999795,"midi":62,"time":191.5907175,"velocity":0.41732283464566927},{"duration":0.0681817499999795,"midi":63,"time":191.5907175,"velocity":0.41732283464566927},{"duration":0.0681817499999795,"midi":67,"time":191.5907175,"velocity":0.41732283464566927},{"duration":0.0681817499999795,"midi":58,"time":191.5907175,"velocity":0.41732283464566927},{"duration":0.06818175000000792,"midi":63,"time":191.65889925,"velocity":0.41732283464566927},{"duration":0.06818175000000792,"midi":62,"time":191.65889925,"velocity":0.41732283464566927},{"duration":0.06818175000000792,"midi":67,"time":191.65889925,"velocity":0.41732283464566927},{"duration":0.06818175000000792,"midi":58,"time":191.65889925,"velocity":0.41732283464566927},{"duration":0.06818175000000792,"midi":58,"time":191.727081,"velocity":0.41732283464566927},{"duration":0.06818175000000792,"midi":62,"time":191.727081,"velocity":0.41732283464566927},{"duration":0.06818175000000792,"midi":67,"time":191.727081,"velocity":0.41732283464566927},{"duration":0.06818175000000792,"midi":63,"time":191.727081,"velocity":0.41732283464566927},{"duration":0.0681817499999795,"midi":58,"time":191.79526275,"velocity":0.41732283464566927},{"duration":0.0681817499999795,"midi":67,"time":191.79526275,"velocity":0.41732283464566927},{"duration":0.0681817499999795,"midi":62,"time":191.79526275,"velocity":0.41732283464566927},{"duration":0.0681817499999795,"midi":63,"time":191.79526275,"velocity":0.41732283464566927},{"duration":0.06818175000000792,"midi":63,"time":191.86344449999999,"velocity":0.41732283464566927},{"duration":0.06818175000000792,"midi":67,"time":191.86344449999999,"velocity":0.41732283464566927},{"duration":0.06818175000000792,"midi":62,"time":191.86344449999999,"velocity":0.41732283464566927},{"duration":0.06818175000000792,"midi":58,"time":191.86344449999999,"velocity":0.41732283464566927},{"duration":0.06818175000000792,"midi":67,"time":191.93162625,"velocity":0.41732283464566927},{"duration":0.06818175000000792,"midi":58,"time":191.93162625,"velocity":0.41732283464566927},{"duration":0.06818175000000792,"midi":63,"time":191.93162625,"velocity":0.41732283464566927},{"duration":0.06818175000000792,"midi":62,"time":191.93162625,"velocity":0.41732283464566927},{"duration":0.06818175000000792,"midi":63,"time":191.999808,"velocity":0.41732283464566927},{"duration":0.06818175000000792,"midi":58,"time":191.999808,"velocity":0.41732283464566927},{"duration":0.0681817499999795,"midi":58,"time":192.06798975,"velocity":0.41732283464566927},{"duration":0.0681817499999795,"midi":63,"time":192.06798975,"velocity":0.41732283464566927},{"duration":0.06818175000000792,"midi":63,"time":192.1361715,"velocity":0.41732283464566927},{"duration":0.06818175000000792,"midi":58,"time":192.1361715,"velocity":0.41732283464566927},{"duration":0.06818175000000792,"midi":58,"time":192.20435325,"velocity":0.41732283464566927},{"duration":0.06818175000000792,"midi":63,"time":192.20435325,"velocity":0.41732283464566927},{"duration":0.5454540000000065,"midi":75,"time":226.908864,"velocity":0.41732283464566927},{"duration":0.5454540000000065,"midi":63,"time":227.31795449999998,"velocity":0.41732283464566927},{"duration":0.681817499999994,"midi":71,"time":227.727045,"velocity":0.41732283464566927},{"duration":0.9545444999999972,"midi":70,"time":228.272499,"velocity":0.41732283464566927},{"duration":0.5454540000000065,"midi":75,"time":231.272496,"velocity":0.41732283464566927},{"duration":0.5454539999999781,"midi":63,"time":231.6815865,"velocity":0.41732283464566927},{"duration":0.681817499999994,"midi":71,"time":232.090677,"velocity":0.41732283464566927},{"duration":0.5454539999999781,"midi":70,"time":232.636131,"velocity":0.41732283464566927},{"duration":1.4999984999999754,"midi":64,"time":232.908858,"velocity":0.41732283464566927},{"duration":0.5454540000000065,"midi":87,"time":235.63612799999999,"velocity":0.41732283464566927},{"duration":0.5454540000000065,"midi":75,"time":236.0452185,"velocity":0.41732283464566927},{"duration":0.681817499999994,"midi":83,"time":236.454309,"velocity":0.41732283464566927},{"duration":0.9545444999999972,"midi":82,"time":236.999763,"velocity":0.41732283464566927},{"duration":0.5454539999999781,"midi":87,"time":239.99976,"velocity":0.41732283464566927},{"duration":0.5454540000000065,"midi":75,"time":240.4088505,"velocity":0.41732283464566927},{"duration":0.681817499999994,"midi":83,"time":240.817941,"velocity":0.41732283464566927},{"duration":0.5454540000000065,"midi":82,"time":241.363395,"velocity":0.41732283464566927},{"duration":1.4999985000000038,"midi":76,"time":241.636122,"velocity":0.41732283464566927},{"duration":0.4090904999999907,"midi":39,"time":244.363392,"velocity":0.41732283464566927},{"duration":0.5454540000000065,"midi":75,"time":244.363392,"velocity":0.41732283464566927},{"duration":0.5454540000000065,"midi":63,"time":244.7724825,"velocity":0.41732283464566927},{"duration":0.4090904999999907,"midi":39,"time":244.908846,"velocity":0.41732283464566927},{"duration":0.6818175000000224,"midi":71,"time":245.181573,"velocity":0.41732283464566927},{"duration":0.2727270000000033,"midi":51,"time":245.4543,"velocity":0.41732283464566927},{"duration":0.2727270000000033,"midi":39,"time":245.5906635,"velocity":0.41732283464566927},{"duration":0.9545444999999972,"midi":70,"time":245.727027,"velocity":0.41732283464566927},{"duration":0.2727270000000033,"midi":51,"time":245.999754,"velocity":0.41732283464566927},{"duration":0.27272699999997485,"midi":39,"time":246.1361175,"velocity":0.41732283464566927},{"duration":0.4090904999999907,"midi":38,"time":246.545208,"velocity":0.41732283464566927},{"duration":0.5454540000000065,"midi":87,"time":246.545208,"velocity":0.41732283464566927},{"duration":0.5454540000000065,"midi":75,"time":246.9542985,"velocity":0.41732283464566927},{"duration":0.4090904999999907,"midi":38,"time":247.090662,"velocity":0.41732283464566927},{"duration":0.6818175000000224,"midi":83,"time":247.36338899999998,"velocity":0.41732283464566927},{"duration":0.2727270000000033,"midi":50,"time":247.636116,"velocity":0.41732283464566927},{"duration":0.2727270000000033,"midi":38,"time":247.7724795,"velocity":0.41732283464566927},{"duration":0.9545444999999972,"midi":82,"time":247.908843,"velocity":0.41732283464566927},{"duration":0.4090904999999907,"midi":40,"time":248.18157,"velocity":0.41732283464566927},{"duration":0.4090904999999907,"midi":39,"time":248.727024,"velocity":0.41732283464566927},{"duration":0.5454540000000065,"midi":75,"time":248.727024,"velocity":0.41732283464566927},{"duration":0.5454540000000065,"midi":63,"time":249.1361145,"velocity":0.41732283464566927},{"duration":0.4090904999999907,"midi":39,"time":249.272478,"velocity":0.41732283464566927},{"duration":0.681817499999994,"midi":71,"time":249.545205,"velocity":0.41732283464566927},{"duration":0.2727270000000033,"midi":51,"time":249.81793199999998,"velocity":0.41732283464566927},{"duration":0.2727270000000033,"midi":39,"time":249.9542955,"velocity":0.41732283464566927},{"duration":0.5454540000000065,"midi":70,"time":250.090659,"velocity":0.41732283464566927},{"duration":1.4999985000000038,"midi":64,"time":250.363386,"velocity":0.41732283464566927},{"duration":0.2727270000000033,"midi":51,"time":250.363386,"velocity":0.41732283464566927},{"duration":0.2727270000000033,"midi":39,"time":250.4997495,"velocity":0.41732283464566927},{"duration":0.4090904999999907,"midi":40,"time":250.90884,"velocity":0.41732283464566927},{"duration":0.4090904999999907,"midi":40,"time":251.454294,"velocity":0.41732283464566927},{"duration":0.27272699999997485,"midi":52,"time":251.999748,"velocity":0.41732283464566927},{"duration":0.2727270000000033,"midi":40,"time":252.1361115,"velocity":0.41732283464566927},{"duration":0.2727270000000033,"midi":55,"time":252.545202,"velocity":0.41732283464566927},{"duration":0.2727270000000033,"midi":40,"time":252.6815655,"velocity":0.41732283464566927},{"duration":0.4090904999999907,"midi":39,"time":253.090656,"velocity":0.41732283464566927},{"duration":0.5454540000000065,"midi":87,"time":253.090656,"velocity":0.41732283464566927},{"duration":0.5454540000000065,"midi":75,"time":253.4997465,"velocity":0.41732283464566927},{"duration":0.4090904999999907,"midi":39,"time":253.63611,"velocity":0.41732283464566927},{"duration":0.681817499999994,"midi":83,"time":253.908837,"velocity":0.41732283464566927},{"duration":0.27272699999997485,"midi":51,"time":254.181564,"velocity":0.41732283464566927},{"duration":0.2727270000000033,"midi":39,"time":254.3179275,"velocity":0.41732283464566927},{"duration":0.9545445000000257,"midi":82,"time":254.45429099999998,"velocity":0.41732283464566927},{"duration":0.2727270000000033,"midi":51,"time":254.727018,"velocity":0.41732283464566927},{"duration":0.2727270000000033,"midi":39,"time":254.8633815,"velocity":0.41732283464566927},{"duration":0.4090904999999907,"midi":38,"time":255.272472,"velocity":0.41732283464566927},{"duration":0.5454540000000065,"midi":89,"time":255.272472,"velocity":0.41732283464566927},{"duration":0.5454540000000065,"midi":83,"time":255.68156249999998,"velocity":0.41732283464566927},{"duration":0.4090904999999907,"midi":38,"time":255.817926,"velocity":0.41732283464566927},{"duration":0.6818175000000224,"midi":89,"time":256.090653,"velocity":0.41732283464566927},{"duration":0.27272699999997485,"midi":50,"time":256.36338,"velocity":0.41732283464566927},{"duration":0.27272699999997485,"midi":38,"time":256.4997435,"velocity":0.41732283464566927},{"duration":0.9545444999999972,"midi":90,"time":256.636107,"velocity":0.41732283464566927},{"duration":0.4090904999999907,"midi":40,"time":256.908834,"velocity":0.41732283464566927},{"duration":0.4090904999999907,"midi":39,"time":257.454288,"velocity":0.41732283464566927},{"duration":0.5454539999999497,"midi":87,"time":257.454288,"velocity":0.41732283464566927},{"duration":0.5454540000000065,"midi":75,"time":257.8633785,"velocity":0.41732283464566927},{"duration":0.40909050000004754,"midi":39,"time":257.99974199999997,"velocity":0.41732283464566927},{"duration":0.6818175000000224,"midi":83,"time":258.272469,"velocity":0.41732283464566927},{"duration":0.2727270000000317,"midi":51,"time":258.545196,"velocity":0.41732283464566927},{"duration":0.2727270000000317,"midi":39,"time":258.6815595,"velocity":0.41732283464566927},{"duration":0.5454540000000065,"midi":82,"time":258.817923,"velocity":0.41732283464566927},{"duration":1.4999985000000038,"midi":76,"time":259.09065,"velocity":0.41732283464566927},{"duration":0.2727270000000317,"midi":51,"time":259.09065,"velocity":0.41732283464566927},{"duration":0.27272699999997485,"midi":39,"time":259.2270135,"velocity":0.41732283464566927},{"duration":0.4090904999999907,"midi":40,"time":259.636104,"velocity":0.41732283464566927},{"duration":0.4090904999999907,"midi":40,"time":260.181558,"velocity":0.41732283464566927},{"duration":0.27272699999997485,"midi":52,"time":260.727012,"velocity":0.41732283464566927},{"duration":0.27272699999997485,"midi":40,"time":260.8633755,"velocity":0.41732283464566927},{"duration":0.27272699999997485,"midi":55,"time":261.272466,"velocity":0.41732283464566927},{"duration":0.27272699999997485,"midi":40,"time":261.4088295,"velocity":0.41732283464566927},{"duration":0.4090904999999907,"midi":39,"time":261.81792,"velocity":0.41732283464566927},{"duration":0.5454540000000065,"midi":75,"time":261.81792,"velocity":0.41732283464566927},{"duration":0.5454540000000065,"midi":63,"time":262.2270105,"velocity":0.41732283464566927},{"duration":0.4090904999999907,"midi":39,"time":262.363374,"velocity":0.41732283464566927},{"duration":0.6818175000000224,"midi":71,"time":262.636101,"velocity":0.41732283464566927},{"duration":0.2727270000000317,"midi":51,"time":262.90882799999997,"velocity":0.41732283464566927},{"duration":0.2727270000000317,"midi":39,"time":263.0451915,"velocity":0.41732283464566927},{"duration":0.9545444999999972,"midi":70,"time":263.181555,"velocity":0.41732283464566927},{"duration":0.2727270000000317,"midi":51,"time":263.454282,"velocity":0.41732283464566927},{"duration":0.2727270000000317,"midi":39,"time":263.5906455,"velocity":0.41732283464566927},{"duration":0.5454540000000065,"midi":76,"time":263.999736,"velocity":0.41732283464566927},{"duration":0.4090904999999907,"midi":38,"time":263.999736,"velocity":0.41732283464566927},{"duration":0.5454540000000065,"midi":64,"time":264.4088265,"velocity":0.41732283464566927},{"duration":0.4090904999999907,"midi":38,"time":264.54519,"velocity":0.41732283464566927},{"duration":0.6818174999999655,"midi":72,"time":264.817917,"velocity":0.41732283464566927},{"duration":0.27272699999997485,"midi":50,"time":265.090644,"velocity":0.41732283464566927},{"duration":0.27272699999997485,"midi":38,"time":265.2270075,"velocity":0.41732283464566927},{"duration":0.9545444999999972,"midi":71,"time":265.363371,"velocity":0.41732283464566927},{"duration":0.4090904999999907,"midi":40,"time":265.636098,"velocity":0.41732283464566927},{"duration":0.5454540000000065,"midi":63,"time":266.181552,"velocity":0.41732283464566927},{"duration":0.4090904999999907,"midi":39,"time":266.181552,"velocity":0.41732283464566927},{"duration":0.5454540000000065,"midi":51,"time":266.5906425,"velocity":0.41732283464566927},{"duration":0.4090904999999907,"midi":39,"time":266.727006,"velocity":0.41732283464566927},{"duration":0.6818175000000224,"midi":59,"time":266.999733,"velocity":0.41732283464566927},{"duration":0.27272699999997485,"midi":51,"time":267.27246,"velocity":0.41732283464566927},{"duration":0.2727270000000317,"midi":39,"time":267.4088235,"velocity":0.41732283464566927},{"duration":0.5454540000000065,"midi":58,"time":267.545187,"velocity":0.41732283464566927},{"duration":0.2727270000000317,"midi":51,"time":267.817914,"velocity":0.41732283464566927},{"duration":1.4999985000000038,"midi":52,"time":267.817914,"velocity":0.41732283464566927},{"duration":0.2727270000000317,"midi":39,"time":267.9542775,"velocity":0.41732283464566927},{"duration":0.4090904999999907,"midi":40,"time":268.363368,"velocity":0.41732283464566927},{"duration":0.4090904999999907,"midi":40,"time":268.908822,"velocity":0.41732283464566927},{"duration":0.2727270000000317,"midi":52,"time":269.454276,"velocity":0.41732283464566927},{"duration":0.27272699999997485,"midi":40,"time":269.5906395,"velocity":0.41732283464566927},{"duration":0.27272699999997485,"midi":55,"time":269.99973,"velocity":0.41732283464566927},{"duration":0.27272699999997485,"midi":40,"time":270.1360935,"velocity":0.41732283464566927},{"duration":0.4090904999999907,"midi":39,"time":270.545184,"velocity":0.41732283464566927},{"duration":0.5454540000000065,"midi":87,"time":270.545184,"velocity":0.41732283464566927},{"duration":0.5454540000000065,"midi":75,"time":270.9542745,"velocity":0.41732283464566927},{"duration":0.4090904999999907,"midi":39,"time":271.090638,"velocity":0.41732283464566927},{"duration":0.6818175000000224,"midi":83,"time":271.363365,"velocity":0.41732283464566927},{"duration":0.27272699999997485,"midi":51,"time":271.636092,"velocity":0.41732283464566927},{"duration":0.2727270000000317,"midi":39,"time":271.7724555,"velocity":0.41732283464566927},{"duration":0.9545444999999972,"midi":82,"time":271.908819,"velocity":0.41732283464566927},{"duration":0.2727270000000317,"midi":51,"time":272.18154599999997,"velocity":0.41732283464566927},{"duration":0.2727270000000317,"midi":39,"time":272.3179095,"velocity":0.41732283464566927},{"duration":0.40909050000004754,"midi":38,"time":272.727,"velocity":0.41732283464566927},{"duration":0.4090904999999907,"midi":38,"time":273.272454,"velocity":0.41732283464566927},{"duration":0.2727270000000317,"midi":50,"time":273.817908,"velocity":0.41732283464566927},{"duration":0.27272699999997485,"midi":38,"time":273.9542715,"velocity":0.41732283464566927},{"duration":0.4090904999999907,"midi":40,"time":274.363362,"velocity":0.41732283464566927},{"duration":0.5454540000000065,"midi":87,"time":274.908816,"velocity":0.41732283464566927},{"duration":0.4090904999999907,"midi":39,"time":274.908816,"velocity":0.41732283464566927},{"duration":0.5454540000000065,"midi":75,"time":275.3179065,"velocity":0.41732283464566927},{"duration":0.4090904999999907,"midi":39,"time":275.45427,"velocity":0.41732283464566927},{"duration":0.6818175000000224,"midi":83,"time":275.726997,"velocity":0.41732283464566927},{"duration":0.27272699999997485,"midi":51,"time":275.999724,"velocity":0.41732283464566927},{"duration":0.2727270000000317,"midi":39,"time":276.1360875,"velocity":0.41732283464566927},{"duration":0.5454540000000065,"midi":82,"time":276.272451,"velocity":0.41732283464566927},{"duration":1.4999985000000038,"midi":76,"time":276.545178,"velocity":0.41732283464566927},{"duration":0.27272699999997485,"midi":51,"time":276.545178,"velocity":0.41732283464566927},{"duration":0.2727270000000317,"midi":39,"time":276.6815415,"velocity":0.41732283464566927},{"duration":0.40909050000004754,"midi":40,"time":277.09063199999997,"velocity":0.41732283464566927},{"duration":0.40909050000004754,"midi":40,"time":277.636086,"velocity":0.41732283464566927},{"duration":0.2727270000000317,"midi":52,"time":278.18154,"velocity":0.41732283464566927},{"duration":0.27272699999997485,"midi":40,"time":278.3179035,"velocity":0.41732283464566927},{"duration":0.2727270000000317,"midi":55,"time":278.726994,"velocity":0.41732283464566927},{"duration":0.27272699999997485,"midi":40,"time":278.8633575,"velocity":0.41732283464566927}]},{"instrument":{"family":"synth lead","number":87,"name":"lead 8 (bass + lead)"},"notes":[{"duration":0.6818175000000011,"midi":63,"time":17.454528,"velocity":0.5354330708661418},{"duration":0.6818175000000011,"midi":74,"time":17.999982,"velocity":0.5354330708661418},{"duration":0.6818175000000011,"midi":71,"time":18.545436,"velocity":0.5354330708661418},{"duration":0.6818175000000011,"midi":70,"time":19.090889999999998,"velocity":0.5354330708661418},{"duration":0.6818174999999975,"midi":75,"time":19.636344,"velocity":0.5354330708661418},{"duration":0.6818174999999975,"midi":74,"time":20.181798,"velocity":0.5354330708661418},{"duration":0.6818175000000011,"midi":71,"time":20.727252,"velocity":0.5354330708661418},{"duration":0.6818175000000011,"midi":70,"time":21.272706,"velocity":0.5354330708661418},{"duration":0.6818175000000011,"midi":68,"time":21.81816,"velocity":0.5354330708661418},{"duration":1.4999985000000002,"midi":67,"time":22.363614,"velocity":0.5354330708661418},{"duration":0.6818174999999975,"midi":63,"time":26.181792,"velocity":0.5354330708661418},{"duration":0.6818174999999975,"midi":74,"time":26.727246,"velocity":0.5354330708661418},{"duration":0.6818175000000011,"midi":71,"time":27.2727,"velocity":0.5354330708661418},{"duration":0.6818175000000011,"midi":70,"time":27.818154,"velocity":0.5354330708661418},{"duration":0.6818175000000011,"midi":75,"time":28.363608,"velocity":0.5354330708661418},{"duration":0.6818175000000011,"midi":74,"time":28.909062,"velocity":0.5354330708661418},{"duration":0.6818175000000011,"midi":71,"time":29.454515999999998,"velocity":0.5354330708661418},{"duration":0.6818174999999975,"midi":76,"time":29.99997,"velocity":0.5354330708661418},{"duration":1.909088999999998,"midi":75,"time":30.545424,"velocity":0.5354330708661418},{"duration":0.681817499999994,"midi":63,"time":52.363584,"velocity":0.5354330708661418},{"duration":0.681817499999994,"midi":74,"time":52.909038,"velocity":0.5354330708661418},{"duration":0.6818175000000011,"midi":71,"time":53.454492,"velocity":0.5354330708661418},{"duration":0.6818175000000011,"midi":70,"time":53.999946,"velocity":0.5354330708661418},{"duration":0.6818175000000011,"midi":75,"time":54.5454,"velocity":0.5354330708661418},{"duration":0.6818175000000011,"midi":74,"time":55.090854,"velocity":0.5354330708661418},{"duration":0.6818175000000011,"midi":71,"time":55.636308,"velocity":0.5354330708661418},{"duration":0.6818175000000011,"midi":70,"time":56.181762,"velocity":0.5354330708661418},{"duration":0.6818175000000011,"midi":68,"time":56.727216,"velocity":0.5354330708661418},{"duration":1.4999985000000038,"midi":67,"time":57.27267,"velocity":0.5354330708661418},{"duration":0.6818175000000011,"midi":63,"time":61.090848,"velocity":0.5354330708661418},{"duration":0.6818175000000011,"midi":74,"time":61.636302,"velocity":0.5354330708661418},{"duration":0.6818175000000011,"midi":71,"time":62.181756,"velocity":0.5354330708661418},{"duration":0.6818175000000011,"midi":70,"time":62.72721,"velocity":0.5354330708661418},{"duration":0.6818175000000011,"midi":75,"time":63.272664,"velocity":0.5354330708661418},{"duration":0.681817499999994,"midi":74,"time":63.818118,"velocity":0.5354330708661418},{"duration":0.681817499999994,"midi":71,"time":64.363572,"velocity":0.5354330708661418},{"duration":0.6818175000000082,"midi":76,"time":64.909026,"velocity":0.5354330708661418},{"duration":1.9090889999999945,"midi":75,"time":65.45448,"velocity":0.5354330708661418},{"duration":0.681817499999994,"midi":63,"time":139.636224,"velocity":0.5354330708661418},{"duration":0.681817499999994,"midi":74,"time":140.181678,"velocity":0.5354330708661418},{"duration":0.681817499999994,"midi":71,"time":140.727132,"velocity":0.5354330708661418},{"duration":0.6818175000000224,"midi":70,"time":141.272586,"velocity":0.5354330708661418},{"duration":0.681817499999994,"midi":75,"time":141.81804,"velocity":0.5354330708661418},{"duration":0.681817499999994,"midi":74,"time":142.363494,"velocity":0.5354330708661418},{"duration":0.681817499999994,"midi":71,"time":142.908948,"velocity":0.5354330708661418},{"duration":0.6818175000000224,"midi":70,"time":143.454402,"velocity":0.5354330708661418},{"duration":0.681817499999994,"midi":68,"time":143.999856,"velocity":0.5354330708661418},{"duration":1.4999985000000038,"midi":67,"time":144.54531,"velocity":0.5354330708661418},{"duration":0.6818175000000224,"midi":63,"time":148.363488,"velocity":0.5354330708661418},{"duration":0.681817499999994,"midi":74,"time":148.908942,"velocity":0.5354330708661418},{"duration":0.681817499999994,"midi":71,"time":149.454396,"velocity":0.5354330708661418},{"duration":0.681817499999994,"midi":70,"time":149.99985,"velocity":0.5354330708661418},{"duration":0.6818175000000224,"midi":75,"time":150.545304,"velocity":0.5354330708661418},{"duration":0.681817499999994,"midi":74,"time":151.090758,"velocity":0.5354330708661418},{"duration":0.681817499999994,"midi":71,"time":151.636212,"velocity":0.5354330708661418},{"duration":0.681817499999994,"midi":76,"time":152.181666,"velocity":0.5354330708661418},{"duration":1.909089000000023,"midi":75,"time":152.72711999999999,"velocity":0.5354330708661418},{"duration":2.7272700000000043,"midi":66,"time":174.54528,"velocity":0.5354330708661418},{"duration":1.909089000000023,"midi":65,"time":176.727096,"velocity":0.5354330708661418},{"duration":0.5454539999999781,"midi":61,"time":178.363458,"velocity":0.5354330708661418},{"duration":2.1818159999999978,"midi":66,"time":178.908912,"velocity":0.5354330708661418},{"duration":1.3636350000000164,"midi":67,"time":181.09072799999998,"velocity":0.5354330708661418},{"duration":1.090908000000013,"midi":70,"time":182.181636,"velocity":0.5354330708661418},{"duration":2.727269999999976,"midi":66,"time":183.272544,"velocity":0.5354330708661418},{"duration":1.9090889999999945,"midi":65,"time":185.45436,"velocity":0.5354330708661418},{"duration":0.5454540000000065,"midi":61,"time":187.090722,"velocity":0.5354330708661418},{"duration":2.1818159999999978,"midi":66,"time":187.636176,"velocity":0.5354330708661418},{"duration":1.363634999999988,"midi":67,"time":189.817992,"velocity":0.5354330708661418},{"duration":1.090908000000013,"midi":63,"time":190.9089,"velocity":0.5354330708661418}]},{"instrument":{"family":"drums","number":0,"name":"standard kit"},"notes":[{"duration":0.13636349999999986,"midi":35,"time":8.727264,"velocity":0.5905511811023622},{"duration":0.13636349999999986,"midi":35,"time":8.727264,"velocity":0.5905511811023622},{"duration":0.13636349999999986,"midi":45,"time":8.727264,"velocity":0.5905511811023622},{"duration":0.13636349999999986,"midi":35,"time":8.727264,"velocity":0.5905511811023622},{"duration":0.13636349999999986,"midi":43,"time":8.8636275,"velocity":0.5905511811023622},{"duration":0.13636349999999986,"midi":35,"time":8.999991,"velocity":0.5905511811023622},{"duration":0.13636349999999986,"midi":35,"time":8.999991,"velocity":0.5905511811023622},{"duration":0.13636349999999986,"midi":35,"time":8.999991,"velocity":0.5905511811023622},{"duration":0.13636349999999986,"midi":40,"time":9.272718,"velocity":0.5905511811023622},{"duration":0.13636349999999986,"midi":38,"time":9.272718,"velocity":0.5905511811023622},{"duration":0.13636349999999986,"midi":38,"time":9.272718,"velocity":0.5905511811023622},{"duration":0.13636349999999986,"midi":40,"time":9.272718,"velocity":0.5905511811023622},{"duration":0.13636349999999986,"midi":45,"time":9.272718,"velocity":0.5905511811023622},{"duration":0.13636349999999986,"midi":49,"time":9.272718,"velocity":0.5905511811023622},{"duration":0.13636349999999986,"midi":38,"time":9.272718,"velocity":0.5905511811023622},{"duration":0.13636349999999986,"midi":40,"time":9.272718,"velocity":0.5905511811023622},{"duration":0.13636349999999986,"midi":49,"time":9.272718,"velocity":0.5905511811023622},{"duration":0.13636349999999986,"midi":36,"time":9.4090815,"velocity":0.5905511811023622},{"duration":0.13636349999999986,"midi":36,"time":9.4090815,"velocity":0.5905511811023622},{"duration":0.13636349999999986,"midi":43,"time":9.4090815,"velocity":0.5905511811023622},{"duration":0.13636349999999986,"midi":36,"time":9.4090815,"velocity":0.5905511811023622},{"duration":0.13636349999999986,"midi":36,"time":9.6818085,"velocity":0.5905511811023622},{"duration":0.13636349999999986,"midi":36,"time":9.6818085,"velocity":0.5905511811023622},{"duration":0.13636349999999986,"midi":36,"time":9.6818085,"velocity":0.5905511811023622},{"duration":0.13636349999999986,"midi":45,"time":9.818172,"velocity":0.5905511811023622},{"duration":0.13636349999999986,"midi":35,"time":9.818172,"velocity":0.5905511811023622},{"duration":0.13636349999999986,"midi":49,"time":9.818172,"velocity":0.5905511811023622},{"duration":0.13636349999999986,"midi":35,"time":9.818172,"velocity":0.5905511811023622},{"duration":0.13636349999999986,"midi":35,"time":9.818172,"velocity":0.5905511811023622},{"duration":0.13636349999999986,"midi":49,"time":9.818172,"velocity":0.5905511811023622},{"duration":0.13636349999999986,"midi":40,"time":9.9545355,"velocity":0.5905511811023622},{"duration":0.13636349999999986,"midi":40,"time":9.9545355,"velocity":0.5905511811023622},{"duration":0.13636349999999986,"midi":43,"time":9.9545355,"velocity":0.5905511811023622},{"duration":0.13636349999999986,"midi":40,"time":9.9545355,"velocity":0.5905511811023622},{"duration":0.13636349999999986,"midi":38,"time":10.090899,"velocity":0.5905511811023622},{"duration":0.13636349999999986,"midi":38,"time":10.090899,"velocity":0.5905511811023622},{"duration":0.13636349999999986,"midi":38,"time":10.090899,"velocity":0.5905511811023622},{"duration":0.13636349999999986,"midi":35,"time":10.2272625,"velocity":0.5905511811023622},{"duration":0.13636349999999986,"midi":35,"time":10.2272625,"velocity":0.5905511811023622},{"duration":0.13636349999999986,"midi":35,"time":10.2272625,"velocity":0.5905511811023622},{"duration":0.13636349999999986,"midi":49,"time":10.363626,"velocity":0.5905511811023622},{"duration":0.13636349999999986,"midi":40,"time":10.363626,"velocity":0.5905511811023622},{"duration":0.13636349999999986,"midi":49,"time":10.363626,"velocity":0.5905511811023622},{"duration":0.13636349999999986,"midi":40,"time":10.363626,"velocity":0.5905511811023622},{"duration":0.13636349999999986,"midi":40,"time":10.363626,"velocity":0.5905511811023622},{"duration":0.13636349999999986,"midi":35,"time":10.4999895,"velocity":0.5905511811023622},{"duration":0.13636349999999986,"midi":35,"time":10.4999895,"velocity":0.5905511811023622},{"duration":0.13636349999999986,"midi":35,"time":10.4999895,"velocity":0.5905511811023622},{"duration":0.13636349999999986,"midi":35,"time":10.90908,"velocity":0.5905511811023622},{"duration":0.13636349999999986,"midi":35,"time":10.90908,"velocity":0.5905511811023622},{"duration":0.13636349999999986,"midi":45,"time":10.90908,"velocity":0.5905511811023622},{"duration":0.13636349999999986,"midi":35,"time":10.90908,"velocity":0.5905511811023622},{"duration":0.13636349999999986,"midi":43,"time":11.0454435,"velocity":0.5905511811023622},{"duration":0.13636349999999986,"midi":35,"time":11.181807,"velocity":0.5905511811023622},{"duration":0.13636349999999986,"midi":35,"time":11.181807,"velocity":0.5905511811023622},{"duration":0.13636349999999986,"midi":35,"time":11.181807,"velocity":0.5905511811023622},{"duration":0.13636349999999986,"midi":45,"time":11.454534,"velocity":0.5905511811023622},{"duration":0.13636349999999986,"midi":49,"time":11.454534,"velocity":0.5905511811023622},{"duration":0.13636349999999986,"midi":40,"time":11.454534,"velocity":0.5905511811023622},{"duration":0.13636349999999986,"midi":49,"time":11.454534,"velocity":0.5905511811023622},{"duration":0.13636349999999986,"midi":40,"time":11.454534,"velocity":0.5905511811023622},{"duration":0.13636349999999986,"midi":38,"time":11.454534,"velocity":0.5905511811023622},{"duration":0.13636349999999986,"midi":38,"time":11.454534,"velocity":0.5905511811023622},{"duration":0.13636349999999986,"midi":40,"time":11.454534,"velocity":0.5905511811023622},{"duration":0.13636349999999986,"midi":38,"time":11.454534,"velocity":0.5905511811023622},{"duration":0.13636349999999986,"midi":36,"time":11.5908975,"velocity":0.5905511811023622},{"duration":0.13636349999999986,"midi":36,"time":11.5908975,"velocity":0.5905511811023622},{"duration":0.13636349999999986,"midi":36,"time":11.5908975,"velocity":0.5905511811023622},{"duration":0.13636349999999986,"midi":43,"time":11.5908975,"velocity":0.5905511811023622},{"duration":0.13636349999999986,"midi":36,"time":11.8636245,"velocity":0.5905511811023622},{"duration":0.13636349999999986,"midi":36,"time":11.8636245,"velocity":0.5905511811023622},{"duration":0.13636349999999986,"midi":36,"time":11.8636245,"velocity":0.5905511811023622},{"duration":0.13636349999999986,"midi":38,"time":11.999988,"velocity":0.5905511811023622},{"duration":0.13636349999999986,"midi":38,"time":11.999988,"velocity":0.5905511811023622},{"duration":0.13636349999999986,"midi":49,"time":11.999988,"velocity":0.5905511811023622},{"duration":0.13636349999999986,"midi":49,"time":11.999988,"velocity":0.5905511811023622},{"duration":0.13636349999999986,"midi":35,"time":11.999988,"velocity":0.5905511811023622},{"duration":0.13636349999999986,"midi":35,"time":11.999988,"velocity":0.5905511811023622},{"duration":0.13636349999999986,"midi":38,"time":11.999988,"velocity":0.5905511811023622},{"duration":0.13636349999999986,"midi":45,"time":11.999988,"velocity":0.5905511811023622},{"duration":0.13636349999999986,"midi":35,"time":11.999988,"velocity":0.5905511811023622},{"duration":0.13636349999999986,"midi":40,"time":12.1363515,"velocity":0.5905511811023622},{"duration":0.13636349999999986,"midi":43,"time":12.1363515,"velocity":0.5905511811023622},{"duration":0.13636349999999986,"midi":40,"time":12.1363515,"velocity":0.5905511811023622},{"duration":0.13636349999999986,"midi":40,"time":12.1363515,"velocity":0.5905511811023622},{"duration":0.13636349999999986,"midi":38,"time":12.272715,"velocity":0.5905511811023622},{"duration":0.13636349999999986,"midi":38,"time":12.272715,"velocity":0.5905511811023622},{"duration":0.13636349999999986,"midi":38,"time":12.272715,"velocity":0.5905511811023622},{"duration":0.13636349999999986,"midi":35,"time":12.4090785,"velocity":0.5905511811023622},{"duration":0.13636349999999986,"midi":35,"time":12.4090785,"velocity":0.5905511811023622},{"duration":0.13636349999999986,"midi":35,"time":12.4090785,"velocity":0.5905511811023622},{"duration":0.13636349999999986,"midi":38,"time":12.545442,"velocity":0.5905511811023622},{"duration":0.13636349999999986,"midi":40,"time":12.545442,"velocity":0.5905511811023622},{"duration":0.13636349999999986,"midi":38,"time":12.545442,"velocity":0.5905511811023622},{"duration":0.13636349999999986,"midi":49,"time":12.545442,"velocity":0.5905511811023622},{"duration":0.13636349999999986,"midi":38,"time":12.545442,"velocity":0.5905511811023622},{"duration":0.13636349999999986,"midi":40,"time":12.545442,"velocity":0.5905511811023622},{"duration":0.13636349999999986,"midi":49,"time":12.545442,"velocity":0.5905511811023622},{"duration":0.13636349999999986,"midi":40,"time":12.545442,"velocity":0.5905511811023622},{"duration":0.13636349999999986,"midi":38,"time":12.6818055,"velocity":0.5905511811023622},{"duration":0.13636349999999986,"midi":38,"time":12.6818055,"velocity":0.5905511811023622},{"duration":0.13636349999999986,"midi":38,"time":12.6818055,"velocity":0.5905511811023622},{"duration":0.13636349999999986,"midi":40,"time":12.818169,"velocity":0.5905511811023622},{"duration":0.13636349999999986,"midi":40,"time":12.818169,"velocity":0.5905511811023622},{"duration":0.13636349999999986,"midi":40,"time":12.818169,"velocity":0.5905511811023622},{"duration":0.13636350000000164,"midi":40,"time":12.9545325,"velocity":0.5905511811023622},{"duration":0.13636350000000164,"midi":40,"time":12.9545325,"velocity":0.5905511811023622},{"duration":0.13636350000000164,"midi":40,"time":12.9545325,"velocity":0.5905511811023622},{"duration":0.13636349999999986,"midi":35,"time":13.090896,"velocity":0.5905511811023622},{"duration":0.13636349999999986,"midi":35,"time":13.090896,"velocity":0.5905511811023622},{"duration":0.13636349999999986,"midi":35,"time":13.090896,"velocity":0.5905511811023622},{"duration":0.13636349999999986,"midi":45,"time":13.090896,"velocity":0.5905511811023622},{"duration":0.13636349999999986,"midi":43,"time":13.2272595,"velocity":0.5905511811023622},{"duration":0.13636349999999986,"midi":35,"time":13.363623,"velocity":0.5905511811023622},{"duration":0.13636349999999986,"midi":35,"time":13.363623,"velocity":0.5905511811023622},{"duration":0.13636349999999986,"midi":35,"time":13.363623,"velocity":0.5905511811023622},{"duration":0.13636349999999986,"midi":49,"time":13.63635,"velocity":0.5905511811023622},{"duration":0.13636349999999986,"midi":38,"time":13.63635,"velocity":0.5905511811023622},{"duration":0.13636349999999986,"midi":49,"time":13.63635,"velocity":0.5905511811023622},{"duration":0.13636349999999986,"midi":40,"time":13.63635,"velocity":0.5905511811023622},{"duration":0.13636349999999986,"midi":40,"time":13.63635,"velocity":0.5905511811023622},{"duration":0.13636349999999986,"midi":45,"time":13.63635,"velocity":0.5905511811023622},{"duration":0.13636349999999986,"midi":38,"time":13.63635,"velocity":0.5905511811023622},{"duration":0.13636349999999986,"midi":38,"time":13.63635,"velocity":0.5905511811023622},{"duration":0.13636349999999986,"midi":40,"time":13.63635,"velocity":0.5905511811023622},{"duration":0.13636349999999986,"midi":36,"time":13.7727135,"velocity":0.5905511811023622},{"duration":0.13636349999999986,"midi":43,"time":13.7727135,"velocity":0.5905511811023622},{"duration":0.13636349999999986,"midi":36,"time":13.7727135,"velocity":0.5905511811023622},{"duration":0.13636349999999986,"midi":36,"time":13.7727135,"velocity":0.5905511811023622},{"duration":0.13636349999999986,"midi":36,"time":14.0454405,"velocity":0.5905511811023622},{"duration":0.13636349999999986,"midi":36,"time":14.0454405,"velocity":0.5905511811023622},{"duration":0.13636349999999986,"midi":36,"time":14.0454405,"velocity":0.5905511811023622},{"duration":0.13636349999999986,"midi":49,"time":14.181804,"velocity":0.5905511811023622},{"duration":0.13636349999999986,"midi":35,"time":14.181804,"velocity":0.5905511811023622},{"duration":0.13636349999999986,"midi":49,"time":14.181804,"velocity":0.5905511811023622},{"duration":0.13636349999999986,"midi":45,"time":14.181804,"velocity":0.5905511811023622},{"duration":0.13636349999999986,"midi":35,"time":14.181804,"velocity":0.5905511811023622},{"duration":0.13636349999999986,"midi":35,"time":14.181804,"velocity":0.5905511811023622},{"duration":0.13636349999999986,"midi":40,"time":14.3181675,"velocity":0.5905511811023622},{"duration":0.13636349999999986,"midi":40,"time":14.3181675,"velocity":0.5905511811023622},{"duration":0.13636349999999986,"midi":43,"time":14.3181675,"velocity":0.5905511811023622},{"duration":0.13636349999999986,"midi":40,"time":14.3181675,"velocity":0.5905511811023622},{"duration":0.13636349999999986,"midi":38,"time":14.454531,"velocity":0.5905511811023622},{"duration":0.13636349999999986,"midi":38,"time":14.454531,"velocity":0.5905511811023622},{"duration":0.13636349999999986,"midi":38,"time":14.454531,"velocity":0.5905511811023622},{"duration":0.13636349999999986,"midi":35,"time":14.5908945,"velocity":0.5905511811023622},{"duration":0.13636349999999986,"midi":35,"time":14.5908945,"velocity":0.5905511811023622},{"duration":0.13636349999999986,"midi":35,"time":14.5908945,"velocity":0.5905511811023622},{"duration":0.13636350000000164,"midi":40,"time":14.727257999999999,"velocity":0.5905511811023622},{"duration":0.13636350000000164,"midi":40,"time":14.727257999999999,"velocity":0.5905511811023622},{"duration":0.13636350000000164,"midi":49,"time":14.727257999999999,"velocity":0.5905511811023622},{"duration":0.13636350000000164,"midi":49,"time":14.727257999999999,"velocity":0.5905511811023622},{"duration":0.13636350000000164,"midi":40,"time":14.727257999999999,"velocity":0.5905511811023622},{"duration":0.13636349999999986,"midi":35,"time":14.8636215,"velocity":0.5905511811023622},{"duration":0.13636349999999986,"midi":35,"time":14.8636215,"velocity":0.5905511811023622},{"duration":0.13636349999999986,"midi":35,"time":14.8636215,"velocity":0.5905511811023622},{"duration":0.13636349999999986,"midi":35,"time":15.272712,"velocity":0.5905511811023622},{"duration":0.13636349999999986,"midi":35,"time":15.272712,"velocity":0.5905511811023622},{"duration":0.13636349999999986,"midi":45,"time":15.272712,"velocity":0.5905511811023622},{"duration":0.13636349999999986,"midi":35,"time":15.272712,"velocity":0.5905511811023622},{"duration":0.13636349999999986,"midi":43,"time":15.4090755,"velocity":0.5905511811023622},{"duration":0.13636349999999986,"midi":35,"time":15.545439,"velocity":0.5905511811023622},{"duration":0.13636349999999986,"midi":35,"time":15.545439,"velocity":0.5905511811023622},{"duration":0.13636349999999986,"midi":35,"time":15.545439,"velocity":0.5905511811023622},{"duration":0.13636349999999986,"midi":38,"time":15.818166,"velocity":0.5905511811023622},{"duration":0.13636349999999986,"midi":45,"time":15.818166,"velocity":0.5905511811023622},{"duration":0.13636349999999986,"midi":40,"time":15.818166,"velocity":0.5905511811023622},{"duration":0.13636349999999986,"midi":40,"time":15.818166,"velocity":0.5905511811023622},{"duration":0.13636349999999986,"midi":40,"time":15.818166,"velocity":0.5905511811023622},{"duration":0.13636349999999986,"midi":49,"time":15.818166,"velocity":0.5905511811023622},{"duration":0.13636349999999986,"midi":49,"time":15.818166,"velocity":0.5905511811023622},{"duration":0.13636349999999986,"midi":38,"time":15.818166,"velocity":0.5905511811023622},{"duration":0.13636349999999986,"midi":38,"time":15.818166,"velocity":0.5905511811023622},{"duration":0.13636350000000164,"midi":43,"time":15.9545295,"velocity":0.5905511811023622},{"duration":0.13636350000000164,"midi":36,"time":15.9545295,"velocity":0.5905511811023622},{"duration":0.13636350000000164,"midi":36,"time":15.9545295,"velocity":0.5905511811023622},{"duration":0.13636350000000164,"midi":36,"time":15.9545295,"velocity":0.5905511811023622},{"duration":0.13636349999999808,"midi":38,"time":16.090893,"velocity":0.5905511811023622},{"duration":0.13636350000000164,"midi":40,"time":16.2272565,"velocity":0.5905511811023622},{"duration":0.13636350000000164,"midi":36,"time":16.2272565,"velocity":0.5905511811023622},{"duration":0.13636350000000164,"midi":36,"time":16.2272565,"velocity":0.5905511811023622},{"duration":0.13636350000000164,"midi":36,"time":16.2272565,"velocity":0.5905511811023622},{"duration":0.13636349999999808,"midi":35,"time":16.36362,"velocity":0.5905511811023622},{"duration":0.13636349999999808,"midi":45,"time":16.36362,"velocity":0.5905511811023622},{"duration":0.13636349999999808,"midi":35,"time":16.36362,"velocity":0.5905511811023622},{"duration":0.13636349999999808,"midi":49,"time":16.36362,"velocity":0.5905511811023622},{"duration":0.13636349999999808,"midi":35,"time":16.36362,"velocity":0.5905511811023622},{"duration":0.13636349999999808,"midi":49,"time":16.36362,"velocity":0.5905511811023622},{"duration":0.13636350000000164,"midi":40,"time":16.4999835,"velocity":0.5905511811023622},{"duration":0.13636350000000164,"midi":40,"time":16.4999835,"velocity":0.5905511811023622},{"duration":0.13636350000000164,"midi":43,"time":16.4999835,"velocity":0.5905511811023622},{"duration":0.13636350000000164,"midi":40,"time":16.4999835,"velocity":0.5905511811023622},{"duration":0.13636349999999808,"midi":38,"time":16.636347,"velocity":0.5905511811023622},{"duration":0.13636349999999808,"midi":38,"time":16.636347,"velocity":0.5905511811023622},{"duration":0.13636349999999808,"midi":45,"time":16.636347,"velocity":0.5905511811023622},{"duration":0.13636349999999808,"midi":38,"time":16.636347,"velocity":0.5905511811023622},{"duration":0.13636350000000164,"midi":35,"time":16.7727105,"velocity":0.5905511811023622},{"duration":0.13636350000000164,"midi":43,"time":16.7727105,"velocity":0.5905511811023622},{"duration":0.13636350000000164,"midi":35,"time":16.7727105,"velocity":0.5905511811023622},{"duration":0.13636350000000164,"midi":35,"time":16.7727105,"velocity":0.5905511811023622},{"duration":0.13636349999999808,"midi":46,"time":16.909074,"velocity":0.5905511811023622},{"duration":0.13636349999999808,"midi":40,"time":16.909074,"velocity":0.5905511811023622},{"duration":0.13636349999999808,"midi":40,"time":16.909074,"velocity":0.5905511811023622},{"duration":0.13636349999999808,"midi":40,"time":16.909074,"velocity":0.5905511811023622},{"duration":0.13636349999999808,"midi":49,"time":16.909074,"velocity":0.5905511811023622},{"duration":0.13636349999999808,"midi":49,"time":16.909074,"velocity":0.5905511811023622},{"duration":0.13636350000000164,"midi":43,"time":17.0454375,"velocity":0.5905511811023622},{"duration":0.13636349999999808,"midi":43,"time":17.181801,"velocity":0.5905511811023622},{"duration":0.13636349999999808,"midi":46,"time":17.181801,"velocity":0.5905511811023622},{"duration":0.13636350000000164,"midi":40,"time":17.318164499999998,"velocity":0.5905511811023622},{"duration":0.13636350000000164,"midi":40,"time":17.318164499999998,"velocity":0.5905511811023622},{"duration":0.13636350000000164,"midi":52,"time":17.454528,"velocity":0.5905511811023622},{"duration":0.13636350000000164,"midi":52,"time":17.454528,"velocity":0.5905511811023622},{"duration":0.13636350000000164,"midi":35,"time":17.454528,"velocity":0.5905511811023622},{"duration":0.13636350000000164,"midi":51,"time":17.454528,"velocity":0.5905511811023622},{"duration":0.13636350000000164,"midi":35,"time":17.454528,"velocity":0.5905511811023622},{"duration":0.13636350000000164,"midi":52,"time":17.454528,"velocity":0.5905511811023622},{"duration":0.13636350000000164,"midi":35,"time":17.454528,"velocity":0.5905511811023622},{"duration":0.13636350000000164,"midi":45,"time":17.454528,"velocity":0.5905511811023622},{"duration":0.13636350000000164,"midi":52,"time":17.454528,"velocity":0.5905511811023622},{"duration":0.13636349999999808,"midi":43,"time":17.5908915,"velocity":0.5905511811023622},{"duration":0.13636350000000164,"midi":35,"time":17.727255,"velocity":0.5905511811023622},{"duration":0.13636350000000164,"midi":35,"time":17.727255,"velocity":0.5905511811023622},{"duration":0.13636350000000164,"midi":35,"time":17.727255,"velocity":0.5905511811023622},{"duration":0.13636350000000164,"midi":38,"time":17.999982,"velocity":0.5905511811023622},{"duration":0.13636350000000164,"midi":49,"time":17.999982,"velocity":0.5905511811023622},{"duration":0.13636350000000164,"midi":49,"time":17.999982,"velocity":0.5905511811023622},{"duration":0.13636350000000164,"midi":40,"time":17.999982,"velocity":0.5905511811023622},{"duration":0.13636350000000164,"midi":38,"time":17.999982,"velocity":0.5905511811023622},{"duration":0.13636350000000164,"midi":40,"time":17.999982,"velocity":0.5905511811023622},{"duration":0.13636350000000164,"midi":45,"time":17.999982,"velocity":0.5905511811023622},{"duration":0.13636350000000164,"midi":40,"time":17.999982,"velocity":0.5905511811023622},{"duration":0.13636350000000164,"midi":51,"time":17.999982,"velocity":0.5905511811023622},{"duration":0.13636350000000164,"midi":38,"time":17.999982,"velocity":0.5905511811023622},{"duration":0.13636349999999808,"midi":36,"time":18.1363455,"velocity":0.5905511811023622},{"duration":0.13636349999999808,"midi":43,"time":18.1363455,"velocity":0.5905511811023622},{"duration":0.13636349999999808,"midi":36,"time":18.1363455,"velocity":0.5905511811023622},{"duration":0.13636349999999808,"midi":36,"time":18.1363455,"velocity":0.5905511811023622},{"duration":0.13636349999999808,"midi":36,"time":18.4090725,"velocity":0.5905511811023622},{"duration":0.13636349999999808,"midi":36,"time":18.4090725,"velocity":0.5905511811023622},{"duration":0.13636349999999808,"midi":36,"time":18.4090725,"velocity":0.5905511811023622},{"duration":0.13636350000000164,"midi":35,"time":18.545436,"velocity":0.5905511811023622},{"duration":0.13636350000000164,"midi":51,"time":18.545436,"velocity":0.5905511811023622},{"duration":0.13636350000000164,"midi":35,"time":18.545436,"velocity":0.5905511811023622},{"duration":0.13636350000000164,"midi":35,"time":18.545436,"velocity":0.5905511811023622},{"duration":0.13636350000000164,"midi":49,"time":18.545436,"velocity":0.5905511811023622},{"duration":0.13636350000000164,"midi":45,"time":18.545436,"velocity":0.5905511811023622},{"duration":0.13636350000000164,"midi":49,"time":18.545436,"velocity":0.5905511811023622},{"duration":0.13636349999999808,"midi":40,"time":18.6817995,"velocity":0.5905511811023622},{"duration":0.13636349999999808,"midi":40,"time":18.6817995,"velocity":0.5905511811023622},{"duration":0.13636349999999808,"midi":40,"time":18.6817995,"velocity":0.5905511811023622},{"duration":0.13636349999999808,"midi":43,"time":18.6817995,"velocity":0.5905511811023622},{"duration":0.13636350000000164,"midi":38,"time":18.818163,"velocity":0.5905511811023622},{"duration":0.13636350000000164,"midi":38,"time":18.818163,"velocity":0.5905511811023622},{"duration":0.13636350000000164,"midi":38,"time":18.818163,"velocity":0.5905511811023622},{"duration":0.13636349999999808,"midi":35,"time":18.9545265,"velocity":0.5905511811023622},{"duration":0.13636349999999808,"midi":35,"time":18.9545265,"velocity":0.5905511811023622},{"duration":0.13636349999999808,"midi":35,"time":18.9545265,"velocity":0.5905511811023622},{"duration":0.13636350000000164,"midi":49,"time":19.090889999999998,"velocity":0.5905511811023622},{"duration":0.13636350000000164,"midi":51,"time":19.090889999999998,"velocity":0.5905511811023622},{"duration":0.13636350000000164,"midi":49,"time":19.090889999999998,"velocity":0.5905511811023622},{"duration":0.13636350000000164,"midi":40,"time":19.090889999999998,"velocity":0.5905511811023622},{"duration":0.13636350000000164,"midi":40,"time":19.090889999999998,"velocity":0.5905511811023622},{"duration":0.13636350000000164,"midi":40,"time":19.090889999999998,"velocity":0.5905511811023622},{"duration":0.13636350000000164,"midi":35,"time":19.2272535,"velocity":0.5905511811023622},{"duration":0.13636350000000164,"midi":35,"time":19.2272535,"velocity":0.5905511811023622},{"duration":0.13636350000000164,"midi":35,"time":19.2272535,"velocity":0.5905511811023622},{"duration":0.13636349999999808,"midi":35,"time":19.636344,"velocity":0.5905511811023622},{"duration":0.13636349999999808,"midi":35,"time":19.636344,"velocity":0.5905511811023622},{"duration":0.13636349999999808,"midi":45,"time":19.636344,"velocity":0.5905511811023622},{"duration":0.13636349999999808,"midi":51,"time":19.636344,"velocity":0.5905511811023622},{"duration":0.13636349999999808,"midi":35,"time":19.636344,"velocity":0.5905511811023622},{"duration":0.13636350000000164,"midi":43,"time":19.7727075,"velocity":0.5905511811023622},{"duration":0.13636349999999808,"midi":35,"time":19.909071,"velocity":0.5905511811023622},{"duration":0.13636349999999808,"midi":35,"time":19.909071,"velocity":0.5905511811023622},{"duration":0.13636349999999808,"midi":35,"time":19.909071,"velocity":0.5905511811023622},{"duration":0.13636349999999808,"midi":38,"time":20.181798,"velocity":0.5905511811023622},{"duration":0.13636349999999808,"midi":40,"time":20.181798,"velocity":0.5905511811023622},{"duration":0.13636349999999808,"midi":51,"time":20.181798,"velocity":0.5905511811023622},{"duration":0.13636349999999808,"midi":38,"time":20.181798,"velocity":0.5905511811023622},{"duration":0.13636349999999808,"midi":38,"time":20.181798,"velocity":0.5905511811023622},{"duration":0.13636349999999808,"midi":49,"time":20.181798,"velocity":0.5905511811023622},{"duration":0.13636349999999808,"midi":40,"time":20.181798,"velocity":0.5905511811023622},{"duration":0.13636349999999808,"midi":40,"time":20.181798,"velocity":0.5905511811023622},{"duration":0.13636349999999808,"midi":45,"time":20.181798,"velocity":0.5905511811023622},{"duration":0.13636349999999808,"midi":49,"time":20.181798,"velocity":0.5905511811023622},{"duration":0.13636350000000164,"midi":43,"time":20.3181615,"velocity":0.5905511811023622},{"duration":0.13636350000000164,"midi":36,"time":20.3181615,"velocity":0.5905511811023622},{"duration":0.13636350000000164,"midi":36,"time":20.3181615,"velocity":0.5905511811023622},{"duration":0.13636350000000164,"midi":36,"time":20.3181615,"velocity":0.5905511811023622},{"duration":0.13636350000000164,"midi":36,"time":20.5908885,"velocity":0.5905511811023622},{"duration":0.13636350000000164,"midi":36,"time":20.5908885,"velocity":0.5905511811023622},{"duration":0.13636350000000164,"midi":36,"time":20.5908885,"velocity":0.5905511811023622},{"duration":0.13636349999999808,"midi":45,"time":20.727252,"velocity":0.5905511811023622},{"duration":0.13636349999999808,"midi":35,"time":20.727252,"velocity":0.5905511811023622},{"duration":0.13636349999999808,"midi":49,"time":20.727252,"velocity":0.5905511811023622},{"duration":0.13636349999999808,"midi":35,"time":20.727252,"velocity":0.5905511811023622},{"duration":0.13636349999999808,"midi":49,"time":20.727252,"velocity":0.5905511811023622},{"duration":0.13636349999999808,"midi":35,"time":20.727252,"velocity":0.5905511811023622},{"duration":0.13636349999999808,"midi":51,"time":20.727252,"velocity":0.5905511811023622},{"duration":0.13636350000000164,"midi":40,"time":20.863615499999998,"velocity":0.5905511811023622},{"duration":0.13636350000000164,"midi":40,"time":20.863615499999998,"velocity":0.5905511811023622},{"duration":0.13636350000000164,"midi":43,"time":20.863615499999998,"velocity":0.5905511811023622},{"duration":0.13636350000000164,"midi":40,"time":20.863615499999998,"velocity":0.5905511811023622},{"duration":0.13636350000000164,"midi":38,"time":20.999979,"velocity":0.5905511811023622},{"duration":0.13636350000000164,"midi":38,"time":20.999979,"velocity":0.5905511811023622},{"duration":0.13636350000000164,"midi":38,"time":20.999979,"velocity":0.5905511811023622},{"duration":0.13636349999999808,"midi":35,"time":21.1363425,"velocity":0.5905511811023622},{"duration":0.13636349999999808,"midi":35,"time":21.1363425,"velocity":0.5905511811023622},{"duration":0.13636349999999808,"midi":35,"time":21.1363425,"velocity":0.5905511811023622},{"duration":0.13636350000000164,"midi":49,"time":21.272706,"velocity":0.5905511811023622},{"duration":0.13636350000000164,"midi":40,"time":21.272706,"velocity":0.5905511811023622},{"duration":0.13636350000000164,"midi":40,"time":21.272706,"velocity":0.5905511811023622},{"duration":0.13636350000000164,"midi":49,"time":21.272706,"velocity":0.5905511811023622},{"duration":0.13636350000000164,"midi":51,"time":21.272706,"velocity":0.5905511811023622},{"duration":0.13636350000000164,"midi":40,"time":21.272706,"velocity":0.5905511811023622},{"duration":0.13636349999999808,"midi":40,"time":21.6817965,"velocity":0.5905511811023622},{"duration":0.13636349999999808,"midi":40,"time":21.6817965,"velocity":0.5905511811023622},{"duration":0.13636349999999808,"midi":40,"time":21.6817965,"velocity":0.5905511811023622},{"duration":0.13636350000000164,"midi":35,"time":21.81816,"velocity":0.5905511811023622},{"duration":0.13636350000000164,"midi":51,"time":21.81816,"velocity":0.5905511811023622},{"duration":0.13636350000000164,"midi":35,"time":21.81816,"velocity":0.5905511811023622},{"duration":0.13636350000000164,"midi":35,"time":21.81816,"velocity":0.5905511811023622},{"duration":0.13636350000000164,"midi":45,"time":21.81816,"velocity":0.5905511811023622},{"duration":0.13636349999999808,"midi":43,"time":21.9545235,"velocity":0.5905511811023622},{"duration":0.13636350000000164,"midi":35,"time":22.090887,"velocity":0.5905511811023622},{"duration":0.13636350000000164,"midi":35,"time":22.090887,"velocity":0.5905511811023622},{"duration":0.13636350000000164,"midi":35,"time":22.090887,"velocity":0.5905511811023622},{"duration":0.13636350000000164,"midi":38,"time":22.363614,"velocity":0.5905511811023622},{"duration":0.13636350000000164,"midi":45,"time":22.363614,"velocity":0.5905511811023622},{"duration":0.13636350000000164,"midi":38,"time":22.363614,"velocity":0.5905511811023622},{"duration":0.13636350000000164,"midi":49,"time":22.363614,"velocity":0.5905511811023622},{"duration":0.13636350000000164,"midi":40,"time":22.363614,"velocity":0.5905511811023622},{"duration":0.13636350000000164,"midi":40,"time":22.363614,"velocity":0.5905511811023622},{"duration":0.13636350000000164,"midi":40,"time":22.363614,"velocity":0.5905511811023622},{"duration":0.13636350000000164,"midi":38,"time":22.363614,"velocity":0.5905511811023622},{"duration":0.13636350000000164,"midi":49,"time":22.363614,"velocity":0.5905511811023622},{"duration":0.13636350000000164,"midi":51,"time":22.363614,"velocity":0.5905511811023622},{"duration":0.13636349999999808,"midi":36,"time":22.4999775,"velocity":0.5905511811023622},{"duration":0.13636349999999808,"midi":36,"time":22.4999775,"velocity":0.5905511811023622},{"duration":0.13636349999999808,"midi":43,"time":22.4999775,"velocity":0.5905511811023622},{"duration":0.13636349999999808,"midi":36,"time":22.4999775,"velocity":0.5905511811023622},{"duration":0.13636350000000164,"midi":36,"time":22.7727045,"velocity":0.5905511811023622},{"duration":0.13636350000000164,"midi":36,"time":22.7727045,"velocity":0.5905511811023622},{"duration":0.13636350000000164,"midi":36,"time":22.7727045,"velocity":0.5905511811023622},{"duration":0.13636349999999808,"midi":45,"time":22.909068,"velocity":0.5905511811023622},{"duration":0.13636349999999808,"midi":49,"time":22.909068,"velocity":0.5905511811023622},{"duration":0.13636349999999808,"midi":35,"time":22.909068,"velocity":0.5905511811023622},{"duration":0.13636349999999808,"midi":35,"time":22.909068,"velocity":0.5905511811023622},{"duration":0.13636349999999808,"midi":35,"time":22.909068,"velocity":0.5905511811023622},{"duration":0.13636349999999808,"midi":49,"time":22.909068,"velocity":0.5905511811023622},{"duration":0.13636349999999808,"midi":51,"time":22.909068,"velocity":0.5905511811023622},{"duration":0.13636350000000164,"midi":40,"time":23.0454315,"velocity":0.5905511811023622},{"duration":0.13636350000000164,"midi":40,"time":23.0454315,"velocity":0.5905511811023622},{"duration":0.13636350000000164,"midi":43,"time":23.0454315,"velocity":0.5905511811023622},{"duration":0.13636350000000164,"midi":40,"time":23.0454315,"velocity":0.5905511811023622},{"duration":0.13636349999999808,"midi":38,"time":23.181795,"velocity":0.5905511811023622},{"duration":0.13636349999999808,"midi":38,"time":23.181795,"velocity":0.5905511811023622},{"duration":0.13636349999999808,"midi":38,"time":23.181795,"velocity":0.5905511811023622},{"duration":0.13636350000000164,"midi":35,"time":23.3181585,"velocity":0.5905511811023622},{"duration":0.13636350000000164,"midi":35,"time":23.3181585,"velocity":0.5905511811023622},{"duration":0.13636350000000164,"midi":35,"time":23.3181585,"velocity":0.5905511811023622},{"duration":0.13636349999999808,"midi":49,"time":23.454522,"velocity":0.5905511811023622},{"duration":0.13636349999999808,"midi":40,"time":23.454522,"velocity":0.5905511811023622},{"duration":0.13636349999999808,"midi":51,"time":23.454522,"velocity":0.5905511811023622},{"duration":0.13636349999999808,"midi":40,"time":23.454522,"velocity":0.5905511811023622},{"duration":0.13636349999999808,"midi":40,"time":23.454522,"velocity":0.5905511811023622},{"duration":0.13636349999999808,"midi":49,"time":23.454522,"velocity":0.5905511811023622},{"duration":0.13636350000000164,"midi":35,"time":23.5908855,"velocity":0.5905511811023622},{"duration":0.13636350000000164,"midi":35,"time":23.5908855,"velocity":0.5905511811023622},{"duration":0.13636350000000164,"midi":35,"time":23.5908855,"velocity":0.5905511811023622},{"duration":0.13636349999999808,"midi":35,"time":23.999976,"velocity":0.5905511811023622},{"duration":0.13636349999999808,"midi":45,"time":23.999976,"velocity":0.5905511811023622},{"duration":0.13636349999999808,"midi":35,"time":23.999976,"velocity":0.5905511811023622},{"duration":0.13636349999999808,"midi":35,"time":23.999976,"velocity":0.5905511811023622},{"duration":0.13636349999999808,"midi":51,"time":23.999976,"velocity":0.5905511811023622},{"duration":0.13636350000000164,"midi":43,"time":24.1363395,"velocity":0.5905511811023622},{"duration":0.13636349999999808,"midi":35,"time":24.272703,"velocity":0.5905511811023622},{"duration":0.13636349999999808,"midi":35,"time":24.272703,"velocity":0.5905511811023622},{"duration":0.13636349999999808,"midi":35,"time":24.272703,"velocity":0.5905511811023622},{"duration":0.13636350000000164,"midi":38,"time":24.54543,"velocity":0.5905511811023622},{"duration":0.13636350000000164,"midi":49,"time":24.54543,"velocity":0.5905511811023622},{"duration":0.13636350000000164,"midi":38,"time":24.54543,"velocity":0.5905511811023622},{"duration":0.13636350000000164,"midi":40,"time":24.54543,"velocity":0.5905511811023622},{"duration":0.13636350000000164,"midi":49,"time":24.54543,"velocity":0.5905511811023622},{"duration":0.13636350000000164,"midi":51,"time":24.54543,"velocity":0.5905511811023622},{"duration":0.13636350000000164,"midi":38,"time":24.54543,"velocity":0.5905511811023622},{"duration":0.13636350000000164,"midi":40,"time":24.54543,"velocity":0.5905511811023622},{"duration":0.13636350000000164,"midi":40,"time":24.54543,"velocity":0.5905511811023622},{"duration":0.13636350000000164,"midi":45,"time":24.54543,"velocity":0.5905511811023622},{"duration":0.13636349999999808,"midi":36,"time":24.6817935,"velocity":0.5905511811023622},{"duration":0.13636349999999808,"midi":43,"time":24.6817935,"velocity":0.5905511811023622},{"duration":0.13636349999999808,"midi":36,"time":24.6817935,"velocity":0.5905511811023622},{"duration":0.13636349999999808,"midi":36,"time":24.6817935,"velocity":0.5905511811023622},{"duration":0.13636349999999808,"midi":36,"time":24.9545205,"velocity":0.5905511811023622},{"duration":0.13636349999999808,"midi":36,"time":24.9545205,"velocity":0.5905511811023622},{"duration":0.13636349999999808,"midi":36,"time":24.9545205,"velocity":0.5905511811023622},{"duration":0.13636350000000164,"midi":45,"time":25.090884,"velocity":0.5905511811023622},{"duration":0.13636350000000164,"midi":35,"time":25.090884,"velocity":0.5905511811023622},{"duration":0.13636350000000164,"midi":51,"time":25.090884,"velocity":0.5905511811023622},{"duration":0.13636350000000164,"midi":49,"time":25.090884,"velocity":0.5905511811023622},{"duration":0.13636350000000164,"midi":35,"time":25.090884,"velocity":0.5905511811023622},{"duration":0.13636350000000164,"midi":49,"time":25.090884,"velocity":0.5905511811023622},{"duration":0.13636350000000164,"midi":35,"time":25.090884,"velocity":0.5905511811023622},{"duration":0.13636349999999808,"midi":40,"time":25.2272475,"velocity":0.5905511811023622},{"duration":0.13636349999999808,"midi":40,"time":25.2272475,"velocity":0.5905511811023622},{"duration":0.13636349999999808,"midi":40,"time":25.2272475,"velocity":0.5905511811023622},{"duration":0.13636349999999808,"midi":43,"time":25.2272475,"velocity":0.5905511811023622},{"duration":0.13636350000000164,"midi":38,"time":25.363611,"velocity":0.5905511811023622},{"duration":0.13636350000000164,"midi":38,"time":25.363611,"velocity":0.5905511811023622},{"duration":0.13636350000000164,"midi":38,"time":25.363611,"velocity":0.5905511811023622},{"duration":0.13636349999999808,"midi":35,"time":25.4999745,"velocity":0.5905511811023622},{"duration":0.13636349999999808,"midi":35,"time":25.4999745,"velocity":0.5905511811023622},{"duration":0.13636349999999808,"midi":35,"time":25.4999745,"velocity":0.5905511811023622},{"duration":0.13636350000000164,"midi":51,"time":25.636338,"velocity":0.5905511811023622},{"duration":0.13636350000000164,"midi":40,"time":25.636338,"velocity":0.5905511811023622},{"duration":0.13636350000000164,"midi":40,"time":25.636338,"velocity":0.5905511811023622},{"duration":0.13636350000000164,"midi":40,"time":25.636338,"velocity":0.5905511811023622},{"duration":0.13636350000000164,"midi":49,"time":25.636338,"velocity":0.5905511811023622},{"duration":0.13636350000000164,"midi":49,"time":25.636338,"velocity":0.5905511811023622},{"duration":0.13636350000000164,"midi":40,"time":25.909065,"velocity":0.5905511811023622},{"duration":0.13636350000000164,"midi":40,"time":25.909065,"velocity":0.5905511811023622},{"duration":0.13636350000000164,"midi":40,"time":25.909065,"velocity":0.5905511811023622},{"duration":0.13636350000000164,"midi":40,"time":26.0454285,"velocity":0.5905511811023622},{"duration":0.13636350000000164,"midi":40,"time":26.0454285,"velocity":0.5905511811023622},{"duration":0.13636350000000164,"midi":40,"time":26.0454285,"velocity":0.5905511811023622},{"duration":0.13636349999999808,"midi":35,"time":26.181792,"velocity":0.5905511811023622},{"duration":0.13636349999999808,"midi":57,"time":26.181792,"velocity":0.5905511811023622},{"duration":0.13636349999999808,"midi":35,"time":26.181792,"velocity":0.5905511811023622},{"duration":0.13636349999999808,"midi":57,"time":26.181792,"velocity":0.5905511811023622},{"duration":0.13636349999999808,"midi":35,"time":26.181792,"velocity":0.5905511811023622},{"duration":0.13636349999999808,"midi":51,"time":26.181792,"velocity":0.5905511811023622},{"duration":0.13636349999999808,"midi":45,"time":26.181792,"velocity":0.5905511811023622},{"duration":0.13636349999999808,"midi":57,"time":26.181792,"velocity":0.5905511811023622},{"duration":0.13636350000000164,"midi":43,"time":26.3181555,"velocity":0.5905511811023622},{"duration":0.13636349999999808,"midi":35,"time":26.454519,"velocity":0.5905511811023622},{"duration":0.13636349999999808,"midi":57,"time":26.454519,"velocity":0.5905511811023622},{"duration":0.13636349999999808,"midi":35,"time":26.454519,"velocity":0.5905511811023622},{"duration":0.13636349999999808,"midi":35,"time":26.454519,"velocity":0.5905511811023622},{"duration":0.13636349999999808,"midi":38,"time":26.727246,"velocity":0.5905511811023622},{"duration":0.13636349999999808,"midi":40,"time":26.727246,"velocity":0.5905511811023622},{"duration":0.13636349999999808,"midi":40,"time":26.727246,"velocity":0.5905511811023622},{"duration":0.13636349999999808,"midi":38,"time":26.727246,"velocity":0.5905511811023622},{"duration":0.13636349999999808,"midi":51,"time":26.727246,"velocity":0.5905511811023622},{"duration":0.13636349999999808,"midi":49,"time":26.727246,"velocity":0.5905511811023622},{"duration":0.13636349999999808,"midi":45,"time":26.727246,"velocity":0.5905511811023622},{"duration":0.13636349999999808,"midi":38,"time":26.727246,"velocity":0.5905511811023622},{"duration":0.13636349999999808,"midi":49,"time":26.727246,"velocity":0.5905511811023622},{"duration":0.13636349999999808,"midi":40,"time":26.727246,"velocity":0.5905511811023622},{"duration":0.13636350000000164,"midi":43,"time":26.8636095,"velocity":0.5905511811023622},{"duration":0.13636350000000164,"midi":36,"time":26.8636095,"velocity":0.5905511811023622},{"duration":0.13636350000000164,"midi":36,"time":26.8636095,"velocity":0.5905511811023622},{"duration":0.13636350000000164,"midi":36,"time":26.8636095,"velocity":0.5905511811023622},{"duration":0.13636350000000164,"midi":36,"time":27.1363365,"velocity":0.5905511811023622},{"duration":0.13636350000000164,"midi":36,"time":27.1363365,"velocity":0.5905511811023622},{"duration":0.13636350000000164,"midi":36,"time":27.1363365,"velocity":0.5905511811023622},{"duration":0.13636349999999808,"midi":45,"time":27.2727,"velocity":0.5905511811023622},{"duration":0.13636349999999808,"midi":51,"time":27.2727,"velocity":0.5905511811023622},{"duration":0.13636349999999808,"midi":49,"time":27.2727,"velocity":0.5905511811023622},{"duration":0.13636349999999808,"midi":35,"time":27.2727,"velocity":0.5905511811023622},{"duration":0.13636349999999808,"midi":35,"time":27.2727,"velocity":0.5905511811023622},{"duration":0.13636349999999808,"midi":49,"time":27.2727,"velocity":0.5905511811023622},{"duration":0.13636349999999808,"midi":35,"time":27.2727,"velocity":0.5905511811023622},{"duration":0.13636350000000164,"midi":40,"time":27.4090635,"velocity":0.5905511811023622},{"duration":0.13636350000000164,"midi":43,"time":27.4090635,"velocity":0.5905511811023622},{"duration":0.13636350000000164,"midi":40,"time":27.4090635,"velocity":0.5905511811023622},{"duration":0.13636350000000164,"midi":40,"time":27.4090635,"velocity":0.5905511811023622},{"duration":0.13636349999999808,"midi":38,"time":27.545427,"velocity":0.5905511811023622},{"duration":0.13636349999999808,"midi":38,"time":27.545427,"velocity":0.5905511811023622},{"duration":0.13636349999999808,"midi":38,"time":27.545427,"velocity":0.5905511811023622},{"duration":0.13636350000000164,"midi":35,"time":27.681790499999998,"velocity":0.5905511811023622},{"duration":0.13636350000000164,"midi":35,"time":27.681790499999998,"velocity":0.5905511811023622},{"duration":0.13636350000000164,"midi":35,"time":27.681790499999998,"velocity":0.5905511811023622},{"duration":0.13636350000000164,"midi":40,"time":27.818154,"velocity":0.5905511811023622},{"duration":0.13636350000000164,"midi":40,"time":27.818154,"velocity":0.5905511811023622},{"duration":0.13636350000000164,"midi":49,"time":27.818154,"velocity":0.5905511811023622},{"duration":0.13636350000000164,"midi":51,"time":27.818154,"velocity":0.5905511811023622},{"duration":0.13636350000000164,"midi":49,"time":27.818154,"velocity":0.5905511811023622},{"duration":0.13636350000000164,"midi":40,"time":27.818154,"velocity":0.5905511811023622},{"duration":0.13636349999999808,"midi":35,"time":27.9545175,"velocity":0.5905511811023622},{"duration":0.13636349999999808,"midi":35,"time":27.9545175,"velocity":0.5905511811023622},{"duration":0.13636349999999808,"midi":35,"time":27.9545175,"velocity":0.5905511811023622},{"duration":0.13636350000000164,"midi":35,"time":28.363608,"velocity":0.5905511811023622},{"duration":0.13636350000000164,"midi":51,"time":28.363608,"velocity":0.5905511811023622},{"duration":0.13636350000000164,"midi":35,"time":28.363608,"velocity":0.5905511811023622},{"duration":0.13636350000000164,"midi":45,"time":28.363608,"velocity":0.5905511811023622},{"duration":0.13636350000000164,"midi":35,"time":28.363608,"velocity":0.5905511811023622},{"duration":0.13636349999999808,"midi":43,"time":28.4999715,"velocity":0.5905511811023622},{"duration":0.13636350000000164,"midi":35,"time":28.636335,"velocity":0.5905511811023622},{"duration":0.13636350000000164,"midi":35,"time":28.636335,"velocity":0.5905511811023622},{"duration":0.13636350000000164,"midi":35,"time":28.636335,"velocity":0.5905511811023622},{"duration":0.13636350000000164,"midi":49,"time":28.909062,"velocity":0.5905511811023622},{"duration":0.13636350000000164,"midi":51,"time":28.909062,"velocity":0.5905511811023622},{"duration":0.13636350000000164,"midi":40,"time":28.909062,"velocity":0.5905511811023622},{"duration":0.13636350000000164,"midi":49,"time":28.909062,"velocity":0.5905511811023622},{"duration":0.13636350000000164,"midi":38,"time":28.909062,"velocity":0.5905511811023622},{"duration":0.13636350000000164,"midi":40,"time":28.909062,"velocity":0.5905511811023622},{"duration":0.13636350000000164,"midi":38,"time":28.909062,"velocity":0.5905511811023622},{"duration":0.13636350000000164,"midi":38,"time":28.909062,"velocity":0.5905511811023622},{"duration":0.13636350000000164,"midi":45,"time":28.909062,"velocity":0.5905511811023622},{"duration":0.13636350000000164,"midi":40,"time":28.909062,"velocity":0.5905511811023622},{"duration":0.13636349999999808,"midi":36,"time":29.0454255,"velocity":0.5905511811023622},{"duration":0.13636349999999808,"midi":36,"time":29.0454255,"velocity":0.5905511811023622},{"duration":0.13636349999999808,"midi":43,"time":29.0454255,"velocity":0.5905511811023622},{"duration":0.13636349999999808,"midi":36,"time":29.0454255,"velocity":0.5905511811023622},{"duration":0.13636349999999808,"midi":36,"time":29.3181525,"velocity":0.5905511811023622},{"duration":0.13636349999999808,"midi":36,"time":29.3181525,"velocity":0.5905511811023622},{"duration":0.13636349999999808,"midi":36,"time":29.3181525,"velocity":0.5905511811023622},{"duration":0.13636350000000164,"midi":49,"time":29.454515999999998,"velocity":0.5905511811023622},{"duration":0.13636350000000164,"midi":35,"time":29.454515999999998,"velocity":0.5905511811023622},{"duration":0.13636350000000164,"midi":45,"time":29.454515999999998,"velocity":0.5905511811023622},{"duration":0.13636350000000164,"midi":35,"time":29.454515999999998,"velocity":0.5905511811023622},{"duration":0.13636350000000164,"midi":51,"time":29.454515999999998,"velocity":0.5905511811023622},{"duration":0.13636350000000164,"midi":49,"time":29.454515999999998,"velocity":0.5905511811023622},{"duration":0.13636350000000164,"midi":35,"time":29.454515999999998,"velocity":0.5905511811023622},{"duration":0.13636350000000164,"midi":40,"time":29.5908795,"velocity":0.5905511811023622},{"duration":0.13636350000000164,"midi":40,"time":29.5908795,"velocity":0.5905511811023622},{"duration":0.13636350000000164,"midi":43,"time":29.5908795,"velocity":0.5905511811023622},{"duration":0.13636350000000164,"midi":40,"time":29.5908795,"velocity":0.5905511811023622},{"duration":0.13636349999999808,"midi":38,"time":29.727243,"velocity":0.5905511811023622},{"duration":0.13636349999999808,"midi":38,"time":29.727243,"velocity":0.5905511811023622},{"duration":0.13636349999999808,"midi":38,"time":29.727243,"velocity":0.5905511811023622},{"duration":0.13636350000000164,"midi":35,"time":29.8636065,"velocity":0.5905511811023622},{"duration":0.13636350000000164,"midi":35,"time":29.8636065,"velocity":0.5905511811023622},{"duration":0.13636350000000164,"midi":35,"time":29.8636065,"velocity":0.5905511811023622},{"duration":0.13636349999999808,"midi":49,"time":29.99997,"velocity":0.5905511811023622},{"duration":0.13636349999999808,"midi":40,"time":29.99997,"velocity":0.5905511811023622},{"duration":0.13636349999999808,"midi":40,"time":29.99997,"velocity":0.5905511811023622},{"duration":0.13636349999999808,"midi":49,"time":29.99997,"velocity":0.5905511811023622},{"duration":0.13636349999999808,"midi":51,"time":29.99997,"velocity":0.5905511811023622},{"duration":0.13636349999999808,"midi":40,"time":29.99997,"velocity":0.5905511811023622},{"duration":0.13636350000000164,"midi":40,"time":30.4090605,"velocity":0.5905511811023622},{"duration":0.13636350000000164,"midi":40,"time":30.4090605,"velocity":0.5905511811023622},{"duration":0.13636350000000164,"midi":40,"time":30.4090605,"velocity":0.5905511811023622},{"duration":0.13636349999999808,"midi":35,"time":30.545424,"velocity":0.5905511811023622},{"duration":0.13636349999999808,"midi":35,"time":30.545424,"velocity":0.5905511811023622},{"duration":0.13636349999999808,"midi":45,"time":30.545424,"velocity":0.5905511811023622},{"duration":0.13636349999999808,"midi":51,"time":30.545424,"velocity":0.5905511811023622},{"duration":0.13636349999999808,"midi":35,"time":30.545424,"velocity":0.5905511811023622},{"duration":0.13636350000000164,"midi":43,"time":30.6817875,"velocity":0.5905511811023622},{"duration":0.13636349999999808,"midi":35,"time":30.818151,"velocity":0.5905511811023622},{"duration":0.13636349999999808,"midi":35,"time":30.818151,"velocity":0.5905511811023622},{"duration":0.13636349999999808,"midi":35,"time":30.818151,"velocity":0.5905511811023622},{"duration":0.13636349999999808,"midi":51,"time":31.090878,"velocity":0.5905511811023622},{"duration":0.13636349999999808,"midi":38,"time":31.090878,"velocity":0.5905511811023622},{"duration":0.13636349999999808,"midi":49,"time":31.090878,"velocity":0.5905511811023622},{"duration":0.13636349999999808,"midi":40,"time":31.090878,"velocity":0.5905511811023622},{"duration":0.13636349999999808,"midi":40,"time":31.090878,"velocity":0.5905511811023622},{"duration":0.13636349999999808,"midi":49,"time":31.090878,"velocity":0.5905511811023622},{"duration":0.13636349999999808,"midi":45,"time":31.090878,"velocity":0.5905511811023622},{"duration":0.13636349999999808,"midi":40,"time":31.090878,"velocity":0.5905511811023622},{"duration":0.13636349999999808,"midi":38,"time":31.090878,"velocity":0.5905511811023622},{"duration":0.13636349999999808,"midi":38,"time":31.090878,"velocity":0.5905511811023622},{"duration":0.13636350000000164,"midi":43,"time":31.227241499999998,"velocity":0.5905511811023622},{"duration":0.13636350000000164,"midi":36,"time":31.227241499999998,"velocity":0.5905511811023622},{"duration":0.13636350000000164,"midi":36,"time":31.227241499999998,"velocity":0.5905511811023622},{"duration":0.13636350000000164,"midi":36,"time":31.227241499999998,"velocity":0.5905511811023622},{"duration":0.13636349999999808,"midi":36,"time":31.4999685,"velocity":0.5905511811023622},{"duration":0.13636349999999808,"midi":36,"time":31.4999685,"velocity":0.5905511811023622},{"duration":0.13636349999999808,"midi":36,"time":31.4999685,"velocity":0.5905511811023622},{"duration":0.13636350000000164,"midi":35,"time":31.636332,"velocity":0.5905511811023622},{"duration":0.13636350000000164,"midi":35,"time":31.636332,"velocity":0.5905511811023622},{"duration":0.13636350000000164,"midi":35,"time":31.636332,"velocity":0.5905511811023622},{"duration":0.13636350000000164,"midi":49,"time":31.636332,"velocity":0.5905511811023622},{"duration":0.13636350000000164,"midi":49,"time":31.636332,"velocity":0.5905511811023622},{"duration":0.13636350000000164,"midi":51,"time":31.636332,"velocity":0.5905511811023622},{"duration":0.13636350000000164,"midi":45,"time":31.636332,"velocity":0.5905511811023622},{"duration":0.13636349999999808,"midi":40,"time":31.7726955,"velocity":0.5905511811023622},{"duration":0.13636349999999808,"midi":40,"time":31.7726955,"velocity":0.5905511811023622},{"duration":0.13636349999999808,"midi":40,"time":31.7726955,"velocity":0.5905511811023622},{"duration":0.13636349999999808,"midi":43,"time":31.7726955,"velocity":0.5905511811023622},{"duration":0.13636350000000164,"midi":38,"time":31.909059,"velocity":0.5905511811023622},{"duration":0.13636350000000164,"midi":38,"time":31.909059,"velocity":0.5905511811023622},{"duration":0.13636350000000164,"midi":38,"time":31.909059,"velocity":0.5905511811023622},{"duration":0.13636350000000164,"midi":35,"time":32.0454225,"velocity":0.5905511811023622},{"duration":0.13636350000000164,"midi":35,"time":32.0454225,"velocity":0.5905511811023622},{"duration":0.13636350000000164,"midi":35,"time":32.0454225,"velocity":0.5905511811023622},{"duration":0.13636349999999453,"midi":49,"time":32.181786,"velocity":0.5905511811023622},{"duration":0.13636349999999453,"midi":40,"time":32.181786,"velocity":0.5905511811023622},{"duration":0.13636349999999453,"midi":49,"time":32.181786,"velocity":0.5905511811023622},{"duration":0.13636349999999453,"midi":40,"time":32.181786,"velocity":0.5905511811023622},{"duration":0.13636349999999453,"midi":40,"time":32.181786,"velocity":0.5905511811023622},{"duration":0.13636350000000164,"midi":35,"time":32.3181495,"velocity":0.5905511811023622},{"duration":0.13636350000000164,"midi":35,"time":32.3181495,"velocity":0.5905511811023622},{"duration":0.13636350000000164,"midi":35,"time":32.3181495,"velocity":0.5905511811023622},{"duration":0.13636349999999453,"midi":35,"time":32.72724,"velocity":0.5905511811023622},{"duration":0.13636349999999453,"midi":35,"time":32.72724,"velocity":0.5905511811023622},{"duration":0.13636349999999453,"midi":35,"time":32.72724,"velocity":0.5905511811023622},{"duration":0.13636349999999453,"midi":45,"time":32.72724,"velocity":0.5905511811023622},{"duration":0.13636350000000164,"midi":43,"time":32.863603499999996,"velocity":0.5905511811023622},{"duration":0.13636350000000164,"midi":35,"time":32.999967,"velocity":0.5905511811023622},{"duration":0.13636350000000164,"midi":35,"time":32.999967,"velocity":0.5905511811023622},{"duration":0.13636350000000164,"midi":35,"time":32.999967,"velocity":0.5905511811023622},{"duration":0.13636350000000164,"midi":45,"time":33.272694,"velocity":0.5905511811023622},{"duration":0.13636350000000164,"midi":49,"time":33.272694,"velocity":0.5905511811023622},{"duration":0.13636350000000164,"midi":40,"time":33.272694,"velocity":0.5905511811023622},{"duration":0.13636350000000164,"midi":38,"time":33.272694,"velocity":0.5905511811023622},{"duration":0.13636350000000164,"midi":49,"time":33.272694,"velocity":0.5905511811023622},{"duration":0.13636350000000164,"midi":40,"time":33.272694,"velocity":0.5905511811023622},{"duration":0.13636350000000164,"midi":38,"time":33.272694,"velocity":0.5905511811023622},{"duration":0.13636350000000164,"midi":40,"time":33.272694,"velocity":0.5905511811023622},{"duration":0.13636350000000164,"midi":38,"time":33.272694,"velocity":0.5905511811023622},{"duration":0.13636349999999453,"midi":43,"time":33.4090575,"velocity":0.5905511811023622},{"duration":0.13636349999999453,"midi":36,"time":33.4090575,"velocity":0.5905511811023622},{"duration":0.13636349999999453,"midi":36,"time":33.4090575,"velocity":0.5905511811023622},{"duration":0.13636349999999453,"midi":36,"time":33.4090575,"velocity":0.5905511811023622},{"duration":0.13636350000000164,"midi":38,"time":33.6817845,"velocity":0.5905511811023622},{"duration":0.13636350000000164,"midi":38,"time":33.6817845,"velocity":0.5905511811023622},{"duration":0.13636350000000164,"midi":40,"time":33.6817845,"velocity":0.5905511811023622},{"duration":0.13636350000000164,"midi":40,"time":33.6817845,"velocity":0.5905511811023622},{"duration":0.13636350000000164,"midi":36,"time":33.6817845,"velocity":0.5905511811023622},{"duration":0.13636350000000164,"midi":38,"time":33.6817845,"velocity":0.5905511811023622},{"duration":0.13636350000000164,"midi":40,"time":33.6817845,"velocity":0.5905511811023622},{"duration":0.13636350000000164,"midi":36,"time":33.6817845,"velocity":0.5905511811023622},{"duration":0.13636350000000164,"midi":36,"time":33.6817845,"velocity":0.5905511811023622},{"duration":0.06818175000000082,"midi":50,"time":33.818148,"velocity":0.5905511811023622},{"duration":0.13636350000000164,"midi":49,"time":33.818148,"velocity":0.5905511811023622},{"duration":0.13636350000000164,"midi":35,"time":33.818148,"velocity":0.5905511811023622},{"duration":0.13636350000000164,"midi":45,"time":33.818148,"velocity":0.5905511811023622},{"duration":0.13636350000000164,"midi":35,"time":33.818148,"velocity":0.5905511811023622},{"duration":0.13636350000000164,"midi":35,"time":33.818148,"velocity":0.5905511811023622},{"duration":0.13636350000000164,"midi":49,"time":33.818148,"velocity":0.5905511811023622},{"duration":0.06818175000000082,"midi":48,"time":33.88632975,"velocity":0.5905511811023622},{"duration":0.13636349999999453,"midi":43,"time":33.9545115,"velocity":0.5905511811023622},{"duration":0.06818174999999371,"midi":50,"time":33.9545115,"velocity":0.5905511811023622},{"duration":0.06818175000000082,"midi":45,"time":34.022693249999996,"velocity":0.5905511811023622},{"duration":0.13636350000000164,"midi":38,"time":34.090875,"velocity":0.5905511811023622},{"duration":0.13636350000000164,"midi":38,"time":34.090875,"velocity":0.5905511811023622},{"duration":0.06818175000000082,"midi":50,"time":34.090875,"velocity":0.5905511811023622},{"duration":0.13636350000000164,"midi":38,"time":34.090875,"velocity":0.5905511811023622},{"duration":0.06818175000000082,"midi":45,"time":34.15905675,"velocity":0.5905511811023622},{"duration":0.13636350000000164,"midi":35,"time":34.2272385,"velocity":0.5905511811023622},{"duration":0.13636350000000164,"midi":35,"time":34.2272385,"velocity":0.5905511811023622},{"duration":0.13636350000000164,"midi":35,"time":34.2272385,"velocity":0.5905511811023622},{"duration":0.06818175000000082,"midi":48,"time":34.2272385,"velocity":0.5905511811023622},{"duration":0.06818175000000082,"midi":50,"time":34.29542025,"velocity":0.5905511811023622},{"duration":0.13636350000000164,"midi":49,"time":34.363602,"velocity":0.5905511811023622},{"duration":0.13636350000000164,"midi":40,"time":34.363602,"velocity":0.5905511811023622},{"duration":0.13636350000000164,"midi":40,"time":34.363602,"velocity":0.5905511811023622},{"duration":0.06818175000000082,"midi":45,"time":34.363602,"velocity":0.5905511811023622},{"duration":0.13636350000000164,"midi":40,"time":34.363602,"velocity":0.5905511811023622},{"duration":0.13636350000000164,"midi":49,"time":34.363602,"velocity":0.5905511811023622},{"duration":0.06818175000000082,"midi":50,"time":34.43178375,"velocity":0.5905511811023622},{"duration":0.06818175000000082,"midi":50,"time":34.4999655,"velocity":0.5905511811023622},{"duration":0.06818174999999371,"midi":45,"time":34.56814725,"velocity":0.5905511811023622},{"duration":0.06818175000000082,"midi":45,"time":34.636328999999996,"velocity":0.5905511811023622},{"duration":0.13636350000000164,"midi":40,"time":34.636328999999996,"velocity":0.5905511811023622},{"duration":0.13636350000000164,"midi":40,"time":34.636328999999996,"velocity":0.5905511811023622},{"duration":0.13636350000000164,"midi":40,"time":34.636328999999996,"velocity":0.5905511811023622},{"duration":0.06818175000000082,"midi":50,"time":34.7726925,"velocity":0.5905511811023622},{"duration":0.13636350000000164,"midi":40,"time":34.7726925,"velocity":0.5905511811023622},{"duration":0.13636350000000164,"midi":40,"time":34.7726925,"velocity":0.5905511811023622},{"duration":0.13636350000000164,"midi":40,"time":34.7726925,"velocity":0.5905511811023622},{"duration":0.13636350000000164,"midi":43,"time":34.909056,"velocity":0.5905511811023622},{"duration":0.13636350000000164,"midi":36,"time":34.909056,"velocity":0.5905511811023622},{"duration":0.13636350000000164,"midi":59,"time":34.909056,"velocity":0.5905511811023622},{"duration":0.13636350000000164,"midi":59,"time":34.909056,"velocity":0.5905511811023622},{"duration":0.13636350000000164,"midi":46,"time":34.909056,"velocity":0.5905511811023622},{"duration":0.13636350000000164,"midi":57,"time":34.909056,"velocity":0.5905511811023622},{"duration":0.13636350000000164,"midi":36,"time":34.909056,"velocity":0.5905511811023622},{"duration":0.13636350000000164,"midi":59,"time":34.909056,"velocity":0.5905511811023622},{"duration":0.13636350000000164,"midi":35,"time":35.0454195,"velocity":0.5905511811023622},{"duration":0.13636350000000164,"midi":41,"time":35.0454195,"velocity":0.5905511811023622},{"duration":0.13636350000000164,"midi":35,"time":35.0454195,"velocity":0.5905511811023622},{"duration":0.13636350000000164,"midi":35,"time":35.3181465,"velocity":0.5905511811023622},{"duration":0.13636350000000164,"midi":35,"time":35.3181465,"velocity":0.5905511811023622},{"duration":0.13636350000000164,"midi":40,"time":35.45451,"velocity":0.5905511811023622},{"duration":0.13636350000000164,"midi":36,"time":35.45451,"velocity":0.5905511811023622},{"duration":0.13636350000000164,"midi":46,"time":35.45451,"velocity":0.5905511811023622},{"duration":0.13636350000000164,"midi":38,"time":35.45451,"velocity":0.5905511811023622},{"duration":0.13636350000000164,"midi":36,"time":35.45451,"velocity":0.5905511811023622},{"duration":0.13636350000000164,"midi":45,"time":35.45451,"velocity":0.5905511811023622},{"duration":0.13636350000000164,"midi":38,"time":35.45451,"velocity":0.5905511811023622},{"duration":0.13636350000000164,"midi":40,"time":35.45451,"velocity":0.5905511811023622},{"duration":0.13636350000000164,"midi":41,"time":35.5908735,"velocity":0.5905511811023622},{"duration":0.13636350000000164,"midi":35,"time":35.5908735,"velocity":0.5905511811023622},{"duration":0.13636350000000164,"midi":35,"time":35.5908735,"velocity":0.5905511811023622},{"duration":0.13636349999999453,"midi":35,"time":35.727237,"velocity":0.5905511811023622},{"duration":0.13636349999999453,"midi":35,"time":35.727237,"velocity":0.5905511811023622},{"duration":0.13636350000000164,"midi":43,"time":35.8636005,"velocity":0.5905511811023622},{"duration":0.13636350000000164,"midi":46,"time":35.999964,"velocity":0.5905511811023622},{"duration":0.13636350000000164,"midi":36,"time":35.999964,"velocity":0.5905511811023622},{"duration":0.13636350000000164,"midi":36,"time":35.999964,"velocity":0.5905511811023622},{"duration":0.13636350000000164,"midi":41,"time":35.999964,"velocity":0.5905511811023622},{"duration":0.13636350000000164,"midi":35,"time":36.1363275,"velocity":0.5905511811023622},{"duration":0.13636350000000164,"midi":35,"time":36.1363275,"velocity":0.5905511811023622},{"duration":0.13636350000000164,"midi":43,"time":36.1363275,"velocity":0.5905511811023622},{"duration":0.13636350000000164,"midi":36,"time":36.545418,"velocity":0.5905511811023622},{"duration":0.13636350000000164,"midi":46,"time":36.545418,"velocity":0.5905511811023622},{"duration":0.13636350000000164,"midi":35,"time":36.545418,"velocity":0.5905511811023622},{"duration":0.13636350000000164,"midi":40,"time":36.545418,"velocity":0.5905511811023622},{"duration":0.13636350000000164,"midi":36,"time":36.545418,"velocity":0.5905511811023622},{"duration":0.13636350000000164,"midi":35,"time":36.545418,"velocity":0.5905511811023622},{"duration":0.13636350000000164,"midi":38,"time":36.545418,"velocity":0.5905511811023622},{"duration":0.13636350000000164,"midi":38,"time":36.545418,"velocity":0.5905511811023622},{"duration":0.13636350000000164,"midi":43,"time":36.545418,"velocity":0.5905511811023622},{"duration":0.13636350000000164,"midi":40,"time":36.545418,"velocity":0.5905511811023622},{"duration":0.13636350000000164,"midi":45,"time":36.6817815,"velocity":0.5905511811023622},{"duration":0.13636350000000164,"midi":35,"time":36.818145,"velocity":0.5905511811023622},{"duration":0.13636350000000164,"midi":41,"time":36.818145,"velocity":0.5905511811023622},{"duration":0.13636350000000164,"midi":35,"time":36.818145,"velocity":0.5905511811023622},{"duration":0.13636349999999453,"midi":44,"time":36.9545085,"velocity":0.5905511811023622},{"duration":0.13636350000000164,"midi":46,"time":37.090872,"velocity":0.5905511811023622},{"duration":0.13636350000000164,"midi":36,"time":37.090872,"velocity":0.5905511811023622},{"duration":0.13636350000000164,"midi":36,"time":37.090872,"velocity":0.5905511811023622},{"duration":0.13636350000000164,"midi":38,"time":37.2272355,"velocity":0.5905511811023622},{"duration":0.13636350000000164,"midi":40,"time":37.2272355,"velocity":0.5905511811023622},{"duration":0.13636350000000164,"midi":35,"time":37.2272355,"velocity":0.5905511811023622},{"duration":0.13636350000000164,"midi":35,"time":37.2272355,"velocity":0.5905511811023622},{"duration":0.13636350000000164,"midi":40,"time":37.2272355,"velocity":0.5905511811023622},{"duration":0.13636349999999453,"midi":35,"time":37.4999625,"velocity":0.5905511811023622},{"duration":0.13636349999999453,"midi":35,"time":37.4999625,"velocity":0.5905511811023622},{"duration":0.13636350000000164,"midi":40,"time":37.636326,"velocity":0.5905511811023622},{"duration":0.13636350000000164,"midi":36,"time":37.636326,"velocity":0.5905511811023622},{"duration":0.13636350000000164,"midi":46,"time":37.636326,"velocity":0.5905511811023622},{"duration":0.13636350000000164,"midi":36,"time":37.636326,"velocity":0.5905511811023622},{"duration":0.13636350000000164,"midi":35,"time":37.636326,"velocity":0.5905511811023622},{"duration":0.13636350000000164,"midi":38,"time":37.636326,"velocity":0.5905511811023622},{"duration":0.13636350000000164,"midi":35,"time":37.636326,"velocity":0.5905511811023622},{"duration":0.13636350000000164,"midi":38,"time":37.636326,"velocity":0.5905511811023622},{"duration":0.13636350000000164,"midi":40,"time":37.636326,"velocity":0.5905511811023622},{"duration":0.13636350000000164,"midi":44,"time":37.7726895,"velocity":0.5905511811023622},{"duration":0.13636350000000164,"midi":35,"time":37.909053,"velocity":0.5905511811023622},{"duration":0.13636350000000164,"midi":35,"time":37.909053,"velocity":0.5905511811023622},{"duration":0.13636349999999453,"midi":38,"time":38.0454165,"velocity":0.5905511811023622},{"duration":0.13636349999999453,"midi":40,"time":38.0454165,"velocity":0.5905511811023622},{"duration":0.13636349999999453,"midi":40,"time":38.0454165,"velocity":0.5905511811023622},{"duration":0.13636350000000164,"midi":36,"time":38.181779999999996,"velocity":0.5905511811023622},{"duration":0.13636350000000164,"midi":46,"time":38.181779999999996,"velocity":0.5905511811023622},{"duration":0.13636350000000164,"midi":35,"time":38.181779999999996,"velocity":0.5905511811023622},{"duration":0.13636350000000164,"midi":36,"time":38.181779999999996,"velocity":0.5905511811023622},{"duration":0.13636350000000164,"midi":35,"time":38.181779999999996,"velocity":0.5905511811023622},{"duration":0.13636350000000164,"midi":35,"time":38.5908705,"velocity":0.5905511811023622},{"duration":0.13636350000000164,"midi":46,"time":38.5908705,"velocity":0.5905511811023622},{"duration":0.13636350000000164,"midi":35,"time":38.5908705,"velocity":0.5905511811023622},{"duration":0.13636349999999453,"midi":35,"time":38.727234,"velocity":0.5905511811023622},{"duration":0.13636349999999453,"midi":40,"time":38.727234,"velocity":0.5905511811023622},{"duration":0.13636349999999453,"midi":38,"time":38.727234,"velocity":0.5905511811023622},{"duration":0.13636349999999453,"midi":36,"time":38.727234,"velocity":0.5905511811023622},{"duration":0.13636349999999453,"midi":36,"time":38.727234,"velocity":0.5905511811023622},{"duration":0.13636349999999453,"midi":38,"time":38.727234,"velocity":0.5905511811023622},{"duration":0.13636349999999453,"midi":35,"time":38.727234,"velocity":0.5905511811023622},{"duration":0.13636349999999453,"midi":40,"time":38.727234,"velocity":0.5905511811023622},{"duration":0.13636350000000164,"midi":46,"time":38.999961,"velocity":0.5905511811023622},{"duration":0.13636350000000164,"midi":35,"time":39.1363245,"velocity":0.5905511811023622},{"duration":0.13636350000000164,"midi":35,"time":39.1363245,"velocity":0.5905511811023622},{"duration":0.13636349999999453,"midi":36,"time":39.272688,"velocity":0.5905511811023622},{"duration":0.13636349999999453,"midi":35,"time":39.272688,"velocity":0.5905511811023622},{"duration":0.13636349999999453,"midi":46,"time":39.272688,"velocity":0.5905511811023622},{"duration":0.13636349999999453,"midi":36,"time":39.272688,"velocity":0.5905511811023622},{"duration":0.13636349999999453,"midi":35,"time":39.272688,"velocity":0.5905511811023622},{"duration":0.13636350000000164,"midi":35,"time":39.4090515,"velocity":0.5905511811023622},{"duration":0.13636350000000164,"midi":35,"time":39.4090515,"velocity":0.5905511811023622},{"duration":0.13636349999999453,"midi":46,"time":39.818142,"velocity":0.5905511811023622},{"duration":0.13636349999999453,"midi":35,"time":39.818142,"velocity":0.5905511811023622},{"duration":0.13636349999999453,"midi":35,"time":39.818142,"velocity":0.5905511811023622},{"duration":0.13636349999999453,"midi":40,"time":39.818142,"velocity":0.5905511811023622},{"duration":0.13636349999999453,"midi":40,"time":39.818142,"velocity":0.5905511811023622},{"duration":0.13636349999999453,"midi":38,"time":39.818142,"velocity":0.5905511811023622},{"duration":0.13636349999999453,"midi":38,"time":39.818142,"velocity":0.5905511811023622},{"duration":0.13636350000000164,"midi":35,"time":40.090869,"velocity":0.5905511811023622},{"duration":0.13636350000000164,"midi":35,"time":40.090869,"velocity":0.5905511811023622},{"duration":0.13636350000000164,"midi":36,"time":40.363596,"velocity":0.5905511811023622},{"duration":0.13636350000000164,"midi":46,"time":40.363596,"velocity":0.5905511811023622},{"duration":0.13636350000000164,"midi":36,"time":40.363596,"velocity":0.5905511811023622},{"duration":0.13636349999999453,"midi":35,"time":40.4999595,"velocity":0.5905511811023622},{"duration":0.13636349999999453,"midi":35,"time":40.4999595,"velocity":0.5905511811023622},{"duration":0.13636349999999453,"midi":40,"time":40.4999595,"velocity":0.5905511811023622},{"duration":0.13636349999999453,"midi":38,"time":40.4999595,"velocity":0.5905511811023622},{"duration":0.06818174999999371,"midi":47,"time":40.4999595,"velocity":0.5905511811023622},{"duration":0.13636349999999453,"midi":40,"time":40.4999595,"velocity":0.5905511811023622},{"duration":0.06818175000000082,"midi":43,"time":40.56814125,"velocity":0.5905511811023622},{"duration":0.06818175000000082,"midi":50,"time":40.56814125,"velocity":0.5905511811023622},{"duration":0.06818175000000082,"midi":48,"time":40.636323,"velocity":0.5905511811023622},{"duration":0.13636350000000164,"midi":40,"time":40.636323,"velocity":0.5905511811023622},{"duration":0.13636350000000164,"midi":40,"time":40.636323,"velocity":0.5905511811023622},{"duration":0.13636350000000164,"midi":38,"time":40.636323,"velocity":0.5905511811023622},{"duration":0.06818175000000082,"midi":45,"time":40.70450475,"velocity":0.5905511811023622},{"duration":0.13636350000000164,"midi":35,"time":40.7726865,"velocity":0.5905511811023622},{"duration":0.06818175000000082,"midi":48,"time":40.7726865,"velocity":0.5905511811023622},{"duration":0.13636350000000164,"midi":35,"time":40.7726865,"velocity":0.5905511811023622},{"duration":0.06818175000000082,"midi":50,"time":40.84086825,"velocity":0.5905511811023622},{"duration":0.13636350000000164,"midi":46,"time":40.90905,"velocity":0.5905511811023622},{"duration":0.13636350000000164,"midi":38,"time":40.90905,"velocity":0.5905511811023622},{"duration":0.13636350000000164,"midi":35,"time":40.90905,"velocity":0.5905511811023622},{"duration":0.13636350000000164,"midi":35,"time":40.90905,"velocity":0.5905511811023622},{"duration":0.06818175000000082,"midi":49,"time":40.90905,"velocity":0.5905511811023622},{"duration":0.13636350000000164,"midi":40,"time":40.90905,"velocity":0.5905511811023622},{"duration":0.13636350000000164,"midi":40,"time":40.90905,"velocity":0.5905511811023622},{"duration":0.13636350000000164,"midi":38,"time":40.90905,"velocity":0.5905511811023622},{"duration":0.13636350000000164,"midi":40,"time":41.181777,"velocity":0.5905511811023622},{"duration":0.13636350000000164,"midi":35,"time":41.181777,"velocity":0.5905511811023622},{"duration":0.13636350000000164,"midi":35,"time":41.181777,"velocity":0.5905511811023622},{"duration":0.13636350000000164,"midi":40,"time":41.181777,"velocity":0.5905511811023622},{"duration":0.13636350000000164,"midi":38,"time":41.181777,"velocity":0.5905511811023622},{"duration":0.13636350000000164,"midi":38,"time":41.181777,"velocity":0.5905511811023622},{"duration":0.06818175000000082,"midi":49,"time":41.3181405,"velocity":0.5905511811023622},{"duration":0.13636350000000164,"midi":41,"time":41.454504,"velocity":0.5905511811023622},{"duration":0.13636350000000164,"midi":36,"time":41.454504,"velocity":0.5905511811023622},{"duration":0.13636350000000164,"midi":35,"time":41.454504,"velocity":0.5905511811023622},{"duration":0.13636350000000164,"midi":46,"time":41.454504,"velocity":0.5905511811023622},{"duration":0.13636350000000164,"midi":36,"time":41.454504,"velocity":0.5905511811023622},{"duration":0.13636350000000164,"midi":53,"time":41.454504,"velocity":0.5905511811023622},{"duration":0.13636350000000164,"midi":35,"time":41.454504,"velocity":0.5905511811023622},{"duration":0.06818175000000082,"midi":48,"time":41.454504,"velocity":0.5905511811023622},{"duration":0.06818175000000082,"midi":48,"time":41.5908675,"velocity":0.5905511811023622},{"duration":0.06818175000000082,"midi":48,"time":41.727230999999996,"velocity":0.5905511811023622},{"duration":0.13636350000000164,"midi":51,"time":41.8635945,"velocity":0.5905511811023622},{"duration":0.13636350000000164,"midi":35,"time":41.8635945,"velocity":0.5905511811023622},{"duration":0.13636350000000164,"midi":35,"time":41.8635945,"velocity":0.5905511811023622},{"duration":0.13636350000000164,"midi":40,"time":41.999958,"velocity":0.5905511811023622},{"duration":0.13636350000000164,"midi":38,"time":41.999958,"velocity":0.5905511811023622},{"duration":0.13636350000000164,"midi":40,"time":41.999958,"velocity":0.5905511811023622},{"duration":0.13636350000000164,"midi":46,"time":41.999958,"velocity":0.5905511811023622},{"duration":0.13636350000000164,"midi":36,"time":41.999958,"velocity":0.5905511811023622},{"duration":0.13636350000000164,"midi":36,"time":41.999958,"velocity":0.5905511811023622},{"duration":0.13636350000000164,"midi":38,"time":41.999958,"velocity":0.5905511811023622},{"duration":0.13636350000000164,"midi":35,"time":42.1363215,"velocity":0.5905511811023622},{"duration":0.13636350000000164,"midi":35,"time":42.1363215,"velocity":0.5905511811023622},{"duration":0.13636349999999453,"midi":51,"time":42.272685,"velocity":0.5905511811023622},{"duration":0.13636350000000164,"midi":46,"time":42.545412,"velocity":0.5905511811023622},{"duration":0.13636350000000164,"midi":36,"time":42.545412,"velocity":0.5905511811023622},{"duration":0.13636350000000164,"midi":36,"time":42.545412,"velocity":0.5905511811023622},{"duration":0.13636350000000164,"midi":51,"time":42.6817755,"velocity":0.5905511811023622},{"duration":0.13636349999999453,"midi":35,"time":42.818139,"velocity":0.5905511811023622},{"duration":0.13636349999999453,"midi":35,"time":42.818139,"velocity":0.5905511811023622},{"duration":0.13636350000000164,"midi":35,"time":43.090866,"velocity":0.5905511811023622},{"duration":0.13636350000000164,"midi":40,"time":43.090866,"velocity":0.5905511811023622},{"duration":0.13636350000000164,"midi":51,"time":43.090866,"velocity":0.5905511811023622},{"duration":0.13636350000000164,"midi":46,"time":43.090866,"velocity":0.5905511811023622},{"duration":0.13636350000000164,"midi":40,"time":43.090866,"velocity":0.5905511811023622},{"duration":0.13636350000000164,"midi":38,"time":43.090866,"velocity":0.5905511811023622},{"duration":0.13636350000000164,"midi":38,"time":43.090866,"velocity":0.5905511811023622},{"duration":0.13636350000000164,"midi":35,"time":43.090866,"velocity":0.5905511811023622},{"duration":0.13636350000000164,"midi":36,"time":43.090866,"velocity":0.5905511811023622},{"duration":0.13636350000000164,"midi":36,"time":43.090866,"velocity":0.5905511811023622},{"duration":0.13636350000000164,"midi":42,"time":43.090866,"velocity":0.5905511811023622},{"duration":0.13636350000000164,"midi":46,"time":43.2272295,"velocity":0.5905511811023622},{"duration":0.13636350000000164,"midi":38,"time":43.2272295,"velocity":0.5905511811023622},{"duration":0.13636350000000164,"midi":42,"time":43.2272295,"velocity":0.5905511811023622},{"duration":0.13636349999999453,"midi":36,"time":43.363593,"velocity":0.5905511811023622},{"duration":0.13636349999999453,"midi":42,"time":43.363593,"velocity":0.5905511811023622},{"duration":0.13636349999999453,"midi":36,"time":43.363593,"velocity":0.5905511811023622},{"duration":0.13636349999999453,"midi":38,"time":43.363593,"velocity":0.5905511811023622},{"duration":0.13636350000000164,"midi":40,"time":43.499956499999996,"velocity":0.5905511811023622},{"duration":0.13636350000000164,"midi":42,"time":43.499956499999996,"velocity":0.5905511811023622},{"duration":0.13636350000000164,"midi":40,"time":43.499956499999996,"velocity":0.5905511811023622},{"duration":0.13636350000000164,"midi":38,"time":43.499956499999996,"velocity":0.5905511811023622},{"duration":0.13636350000000164,"midi":38,"time":43.499956499999996,"velocity":0.5905511811023622},{"duration":0.13636350000000164,"midi":46,"time":43.63632,"velocity":0.5905511811023622},{"duration":0.13636350000000164,"midi":36,"time":43.63632,"velocity":0.5905511811023622},{"duration":0.13636350000000164,"midi":43,"time":43.63632,"velocity":0.5905511811023622},{"duration":0.13636350000000164,"midi":36,"time":43.63632,"velocity":0.5905511811023622},{"duration":0.13636350000000164,"midi":46,"time":43.63632,"velocity":0.5905511811023622},{"duration":0.13636350000000164,"midi":35,"time":43.7726835,"velocity":0.5905511811023622},{"duration":0.13636350000000164,"midi":35,"time":43.7726835,"velocity":0.5905511811023622},{"duration":0.13636350000000164,"midi":41,"time":43.7726835,"velocity":0.5905511811023622},{"duration":0.13636349999999453,"midi":35,"time":44.0454105,"velocity":0.5905511811023622},{"duration":0.13636349999999453,"midi":35,"time":44.0454105,"velocity":0.5905511811023622},{"duration":0.13636350000000164,"midi":46,"time":44.181774,"velocity":0.5905511811023622},{"duration":0.13636350000000164,"midi":38,"time":44.181774,"velocity":0.5905511811023622},{"duration":0.13636350000000164,"midi":36,"time":44.181774,"velocity":0.5905511811023622},{"duration":0.13636350000000164,"midi":40,"time":44.181774,"velocity":0.5905511811023622},{"duration":0.13636350000000164,"midi":36,"time":44.181774,"velocity":0.5905511811023622},{"duration":0.13636350000000164,"midi":38,"time":44.181774,"velocity":0.5905511811023622},{"duration":0.13636350000000164,"midi":45,"time":44.181774,"velocity":0.5905511811023622},{"duration":0.13636350000000164,"midi":46,"time":44.181774,"velocity":0.5905511811023622},{"duration":0.13636350000000164,"midi":40,"time":44.181774,"velocity":0.5905511811023622},{"duration":0.13636350000000164,"midi":35,"time":44.3181375,"velocity":0.5905511811023622},{"duration":0.13636350000000164,"midi":41,"time":44.3181375,"velocity":0.5905511811023622},{"duration":0.13636350000000164,"midi":35,"time":44.3181375,"velocity":0.5905511811023622},{"duration":0.13636350000000164,"midi":35,"time":44.454501,"velocity":0.5905511811023622},{"duration":0.13636350000000164,"midi":35,"time":44.454501,"velocity":0.5905511811023622},{"duration":0.13636349999999453,"midi":43,"time":44.5908645,"velocity":0.5905511811023622},{"duration":0.13636350000000164,"midi":41,"time":44.727228,"velocity":0.5905511811023622},{"duration":0.13636350000000164,"midi":36,"time":44.727228,"velocity":0.5905511811023622},{"duration":0.13636350000000164,"midi":36,"time":44.727228,"velocity":0.5905511811023622},{"duration":0.13636350000000164,"midi":46,"time":44.727228,"velocity":0.5905511811023622},{"duration":0.13636350000000164,"midi":46,"time":44.727228,"velocity":0.5905511811023622},{"duration":0.13636350000000164,"midi":35,"time":44.8635915,"velocity":0.5905511811023622},{"duration":0.13636350000000164,"midi":43,"time":44.8635915,"velocity":0.5905511811023622},{"duration":0.13636350000000164,"midi":35,"time":44.8635915,"velocity":0.5905511811023622},{"duration":0.13636350000000164,"midi":35,"time":45.272681999999996,"velocity":0.5905511811023622},{"duration":0.13636350000000164,"midi":46,"time":45.272681999999996,"velocity":0.5905511811023622},{"duration":0.13636350000000164,"midi":35,"time":45.272681999999996,"velocity":0.5905511811023622},{"duration":0.13636350000000164,"midi":38,"time":45.272681999999996,"velocity":0.5905511811023622},{"duration":0.13636350000000164,"midi":36,"time":45.272681999999996,"velocity":0.5905511811023622},{"duration":0.13636350000000164,"midi":40,"time":45.272681999999996,"velocity":0.5905511811023622},{"duration":0.13636350000000164,"midi":38,"time":45.272681999999996,"velocity":0.5905511811023622},{"duration":0.13636350000000164,"midi":43,"time":45.272681999999996,"velocity":0.5905511811023622},{"duration":0.13636350000000164,"midi":36,"time":45.272681999999996,"velocity":0.5905511811023622},{"duration":0.13636350000000164,"midi":46,"time":45.272681999999996,"velocity":0.5905511811023622},{"duration":0.13636350000000164,"midi":40,"time":45.272681999999996,"velocity":0.5905511811023622},{"duration":0.13636350000000164,"midi":45,"time":45.4090455,"velocity":0.5905511811023622},{"duration":0.13636350000000164,"midi":41,"time":45.545409,"velocity":0.5905511811023622},{"duration":0.13636350000000164,"midi":35,"time":45.545409,"velocity":0.5905511811023622},{"duration":0.13636350000000164,"midi":35,"time":45.545409,"velocity":0.5905511811023622},{"duration":0.13636350000000164,"midi":44,"time":45.6817725,"velocity":0.5905511811023622},{"duration":0.13636349999999453,"midi":46,"time":45.818136,"velocity":0.5905511811023622},{"duration":0.13636349999999453,"midi":36,"time":45.818136,"velocity":0.5905511811023622},{"duration":0.13636349999999453,"midi":46,"time":45.818136,"velocity":0.5905511811023622},{"duration":0.13636349999999453,"midi":36,"time":45.818136,"velocity":0.5905511811023622},{"duration":0.13636350000000164,"midi":40,"time":45.9544995,"velocity":0.5905511811023622},{"duration":0.13636350000000164,"midi":35,"time":45.9544995,"velocity":0.5905511811023622},{"duration":0.13636350000000164,"midi":35,"time":45.9544995,"velocity":0.5905511811023622},{"duration":0.13636350000000164,"midi":38,"time":45.9544995,"velocity":0.5905511811023622},{"duration":0.13636350000000164,"midi":40,"time":45.9544995,"velocity":0.5905511811023622},{"duration":0.13636350000000164,"midi":35,"time":46.2272265,"velocity":0.5905511811023622},{"duration":0.13636350000000164,"midi":35,"time":46.2272265,"velocity":0.5905511811023622},{"duration":0.13636349999999453,"midi":36,"time":46.36359,"velocity":0.5905511811023622},{"duration":0.13636349999999453,"midi":40,"time":46.36359,"velocity":0.5905511811023622},{"duration":0.13636349999999453,"midi":38,"time":46.36359,"velocity":0.5905511811023622},{"duration":0.13636349999999453,"midi":35,"time":46.36359,"velocity":0.5905511811023622},{"duration":0.13636349999999453,"midi":46,"time":46.36359,"velocity":0.5905511811023622},{"duration":0.13636349999999453,"midi":35,"time":46.36359,"velocity":0.5905511811023622},{"duration":0.13636349999999453,"midi":36,"time":46.36359,"velocity":0.5905511811023622},{"duration":0.13636349999999453,"midi":46,"time":46.36359,"velocity":0.5905511811023622},{"duration":0.13636349999999453,"midi":38,"time":46.36359,"velocity":0.5905511811023622},{"duration":0.13636349999999453,"midi":40,"time":46.36359,"velocity":0.5905511811023622},{"duration":0.13636350000000164,"midi":44,"time":46.4999535,"velocity":0.5905511811023622},{"duration":0.13636350000000164,"midi":35,"time":46.636317,"velocity":0.5905511811023622},{"duration":0.13636350000000164,"midi":35,"time":46.636317,"velocity":0.5905511811023622},{"duration":0.13636350000000164,"midi":40,"time":46.7726805,"velocity":0.5905511811023622},{"duration":0.13636350000000164,"midi":38,"time":46.7726805,"velocity":0.5905511811023622},{"duration":0.13636350000000164,"midi":40,"time":46.7726805,"velocity":0.5905511811023622},{"duration":0.13636349999999453,"midi":36,"time":46.909044,"velocity":0.5905511811023622},{"duration":0.13636349999999453,"midi":36,"time":46.909044,"velocity":0.5905511811023622},{"duration":0.13636349999999453,"midi":35,"time":46.909044,"velocity":0.5905511811023622},{"duration":0.13636349999999453,"midi":35,"time":46.909044,"velocity":0.5905511811023622},{"duration":0.13636349999999453,"midi":46,"time":46.909044,"velocity":0.5905511811023622},{"duration":0.13636349999999453,"midi":46,"time":46.909044,"velocity":0.5905511811023622},{"duration":0.13636350000000164,"midi":46,"time":47.3181345,"velocity":0.5905511811023622},{"duration":0.13636350000000164,"midi":35,"time":47.3181345,"velocity":0.5905511811023622},{"duration":0.13636350000000164,"midi":46,"time":47.3181345,"velocity":0.5905511811023622},{"duration":0.13636350000000164,"midi":35,"time":47.3181345,"velocity":0.5905511811023622},{"duration":0.13636350000000164,"midi":36,"time":47.454498,"velocity":0.5905511811023622},{"duration":0.13636350000000164,"midi":40,"time":47.454498,"velocity":0.5905511811023622},{"duration":0.13636350000000164,"midi":35,"time":47.454498,"velocity":0.5905511811023622},{"duration":0.13636350000000164,"midi":40,"time":47.454498,"velocity":0.5905511811023622},{"duration":0.13636350000000164,"midi":38,"time":47.454498,"velocity":0.5905511811023622},{"duration":0.13636350000000164,"midi":38,"time":47.454498,"velocity":0.5905511811023622},{"duration":0.13636350000000164,"midi":36,"time":47.454498,"velocity":0.5905511811023622},{"duration":0.13636350000000164,"midi":35,"time":47.454498,"velocity":0.5905511811023622},{"duration":0.13636350000000164,"midi":46,"time":47.727225,"velocity":0.5905511811023622},{"duration":0.13636350000000164,"midi":46,"time":47.727225,"velocity":0.5905511811023622},{"duration":0.13636350000000164,"midi":35,"time":47.8635885,"velocity":0.5905511811023622},{"duration":0.13636350000000164,"midi":35,"time":47.8635885,"velocity":0.5905511811023622},{"duration":0.13636350000000164,"midi":35,"time":47.999952,"velocity":0.5905511811023622},{"duration":0.13636350000000164,"midi":36,"time":47.999952,"velocity":0.5905511811023622},{"duration":0.13636350000000164,"midi":35,"time":47.999952,"velocity":0.5905511811023622},{"duration":0.13636350000000164,"midi":46,"time":47.999952,"velocity":0.5905511811023622},{"duration":0.13636350000000164,"midi":46,"time":47.999952,"velocity":0.5905511811023622},{"duration":0.13636350000000164,"midi":36,"time":47.999952,"velocity":0.5905511811023622},{"duration":0.13636349999999453,"midi":35,"time":48.1363155,"velocity":0.5905511811023622},{"duration":0.13636349999999453,"midi":35,"time":48.1363155,"velocity":0.5905511811023622},{"duration":0.13636350000000164,"midi":35,"time":48.545406,"velocity":0.5905511811023622},{"duration":0.13636350000000164,"midi":46,"time":48.545406,"velocity":0.5905511811023622},{"duration":0.13636350000000164,"midi":38,"time":48.545406,"velocity":0.5905511811023622},{"duration":0.13636350000000164,"midi":46,"time":48.545406,"velocity":0.5905511811023622},{"duration":0.13636350000000164,"midi":40,"time":48.545406,"velocity":0.5905511811023622},{"duration":0.13636350000000164,"midi":35,"time":48.545406,"velocity":0.5905511811023622},{"duration":0.13636350000000164,"midi":38,"time":48.545406,"velocity":0.5905511811023622},{"duration":0.13636350000000164,"midi":40,"time":48.545406,"velocity":0.5905511811023622},{"duration":0.13636350000000164,"midi":35,"time":48.818132999999996,"velocity":0.5905511811023622},{"duration":0.13636350000000164,"midi":35,"time":48.818132999999996,"velocity":0.5905511811023622},{"duration":0.13636350000000164,"midi":36,"time":49.09086,"velocity":0.5905511811023622},{"duration":0.13636350000000164,"midi":46,"time":49.09086,"velocity":0.5905511811023622},{"duration":0.13636350000000164,"midi":36,"time":49.09086,"velocity":0.5905511811023622},{"duration":0.13636350000000164,"midi":46,"time":49.09086,"velocity":0.5905511811023622},{"duration":0.13636350000000164,"midi":35,"time":49.2272235,"velocity":0.5905511811023622},{"duration":0.06818175000000082,"midi":47,"time":49.2272235,"velocity":0.5905511811023622},{"duration":0.13636350000000164,"midi":38,"time":49.2272235,"velocity":0.5905511811023622},{"duration":0.13636350000000164,"midi":35,"time":49.2272235,"velocity":0.5905511811023622},{"duration":0.13636350000000164,"midi":40,"time":49.2272235,"velocity":0.5905511811023622},{"duration":0.13636350000000164,"midi":40,"time":49.2272235,"velocity":0.5905511811023622},{"duration":0.06818175000000082,"midi":50,"time":49.29540525,"velocity":0.5905511811023622},{"duration":0.06818175000000082,"midi":43,"time":49.29540525,"velocity":0.5905511811023622},{"duration":0.13636349999999453,"midi":38,"time":49.363587,"velocity":0.5905511811023622},{"duration":0.06818174999999371,"midi":48,"time":49.363587,"velocity":0.5905511811023622},{"duration":0.13636349999999453,"midi":40,"time":49.363587,"velocity":0.5905511811023622},{"duration":0.13636349999999453,"midi":40,"time":49.363587,"velocity":0.5905511811023622},{"duration":0.06818175000000082,"midi":45,"time":49.431768749999996,"velocity":0.5905511811023622},{"duration":0.13636350000000164,"midi":35,"time":49.4999505,"velocity":0.5905511811023622},{"duration":0.13636350000000164,"midi":35,"time":49.4999505,"velocity":0.5905511811023622},{"duration":0.06818175000000082,"midi":48,"time":49.4999505,"velocity":0.5905511811023622},{"duration":0.06818175000000082,"midi":50,"time":49.56813225,"velocity":0.5905511811023622},{"duration":0.13636350000000164,"midi":46,"time":49.636314,"velocity":0.5905511811023622},{"duration":0.13636350000000164,"midi":46,"time":49.636314,"velocity":0.5905511811023622},{"duration":0.13636350000000164,"midi":35,"time":49.636314,"velocity":0.5905511811023622},{"duration":0.13636350000000164,"midi":38,"time":49.636314,"velocity":0.5905511811023622},{"duration":0.13636350000000164,"midi":35,"time":49.636314,"velocity":0.5905511811023622},{"duration":0.13636350000000164,"midi":40,"time":49.636314,"velocity":0.5905511811023622},{"duration":0.13636350000000164,"midi":40,"time":49.636314,"velocity":0.5905511811023622},{"duration":0.06818175000000082,"midi":49,"time":49.636314,"velocity":0.5905511811023622},{"duration":0.13636350000000164,"midi":38,"time":49.636314,"velocity":0.5905511811023622},{"duration":0.13636349999999453,"midi":38,"time":49.909041,"velocity":0.5905511811023622},{"duration":0.13636349999999453,"midi":40,"time":49.909041,"velocity":0.5905511811023622},{"duration":0.13636349999999453,"midi":35,"time":49.909041,"velocity":0.5905511811023622},{"duration":0.13636349999999453,"midi":40,"time":49.909041,"velocity":0.5905511811023622},{"duration":0.13636349999999453,"midi":35,"time":49.909041,"velocity":0.5905511811023622},{"duration":0.13636349999999453,"midi":38,"time":49.909041,"velocity":0.5905511811023622},{"duration":0.06818175000000082,"midi":49,"time":50.0454045,"velocity":0.5905511811023622},{"duration":0.06818175000000082,"midi":48,"time":50.181768,"velocity":0.5905511811023622},{"duration":0.13636350000000164,"midi":36,"time":50.181768,"velocity":0.5905511811023622},{"duration":0.13636350000000164,"midi":35,"time":50.181768,"velocity":0.5905511811023622},{"duration":0.13636350000000164,"midi":36,"time":50.181768,"velocity":0.5905511811023622},{"duration":0.13636350000000164,"midi":41,"time":50.181768,"velocity":0.5905511811023622},{"duration":0.13636350000000164,"midi":53,"time":50.181768,"velocity":0.5905511811023622},{"duration":0.13636350000000164,"midi":46,"time":50.181768,"velocity":0.5905511811023622},{"duration":0.13636350000000164,"midi":35,"time":50.181768,"velocity":0.5905511811023622},{"duration":0.13636350000000164,"midi":46,"time":50.181768,"velocity":0.5905511811023622},{"duration":0.06818175000000082,"midi":48,"time":50.3181315,"velocity":0.5905511811023622},{"duration":0.06818175000000082,"midi":48,"time":50.454495,"velocity":0.5905511811023622},{"duration":0.13636350000000164,"midi":35,"time":50.590858499999996,"velocity":0.5905511811023622},{"duration":0.13636350000000164,"midi":35,"time":50.590858499999996,"velocity":0.5905511811023622},{"duration":0.13636350000000164,"midi":51,"time":50.590858499999996,"velocity":0.5905511811023622},{"duration":0.13636350000000164,"midi":40,"time":50.727222,"velocity":0.5905511811023622},{"duration":0.13636350000000164,"midi":36,"time":50.727222,"velocity":0.5905511811023622},{"duration":0.13636350000000164,"midi":38,"time":50.727222,"velocity":0.5905511811023622},{"duration":0.13636350000000164,"midi":46,"time":50.727222,"velocity":0.5905511811023622},{"duration":0.13636350000000164,"midi":38,"time":50.727222,"velocity":0.5905511811023622},{"duration":0.13636350000000164,"midi":40,"time":50.727222,"velocity":0.5905511811023622},{"duration":0.13636350000000164,"midi":36,"time":50.727222,"velocity":0.5905511811023622},{"duration":0.13636350000000164,"midi":46,"time":50.727222,"velocity":0.5905511811023622},{"duration":0.13636350000000164,"midi":35,"time":50.8635855,"velocity":0.5905511811023622},{"duration":0.13636350000000164,"midi":35,"time":50.8635855,"velocity":0.5905511811023622},{"duration":0.13636350000000164,"midi":51,"time":50.999949,"velocity":0.5905511811023622},{"duration":0.13636350000000164,"midi":46,"time":51.272676,"velocity":0.5905511811023622},{"duration":0.13636350000000164,"midi":36,"time":51.272676,"velocity":0.5905511811023622},{"duration":0.13636350000000164,"midi":46,"time":51.272676,"velocity":0.5905511811023622},{"duration":0.13636350000000164,"midi":36,"time":51.272676,"velocity":0.5905511811023622},{"duration":0.13636350000000164,"midi":51,"time":51.4090395,"velocity":0.5905511811023622},{"duration":0.13636350000000164,"midi":35,"time":51.545403,"velocity":0.5905511811023622},{"duration":0.13636350000000164,"midi":35,"time":51.545403,"velocity":0.5905511811023622},{"duration":0.13636350000000164,"midi":42,"time":51.81813,"velocity":0.5905511811023622},{"duration":0.13636350000000164,"midi":40,"time":51.81813,"velocity":0.5905511811023622},{"duration":0.13636350000000164,"midi":36,"time":51.81813,"velocity":0.5905511811023622},{"duration":0.13636350000000164,"midi":35,"time":51.81813,"velocity":0.5905511811023622},{"duration":0.13636350000000164,"midi":46,"time":51.81813,"velocity":0.5905511811023622},{"duration":0.13636350000000164,"midi":35,"time":51.81813,"velocity":0.5905511811023622},{"duration":0.13636350000000164,"midi":46,"time":51.81813,"velocity":0.5905511811023622},{"duration":0.13636350000000164,"midi":36,"time":51.81813,"velocity":0.5905511811023622},{"duration":0.13636350000000164,"midi":51,"time":51.81813,"velocity":0.5905511811023622},{"duration":0.13636350000000164,"midi":40,"time":51.81813,"velocity":0.5905511811023622},{"duration":0.13636350000000164,"midi":38,"time":51.81813,"velocity":0.5905511811023622},{"duration":0.13636350000000164,"midi":38,"time":51.81813,"velocity":0.5905511811023622},{"duration":0.13636350000000164,"midi":42,"time":51.9544935,"velocity":0.5905511811023622},{"duration":0.13636350000000164,"midi":46,"time":51.9544935,"velocity":0.5905511811023622},{"duration":0.13636350000000164,"midi":38,"time":51.9544935,"velocity":0.5905511811023622},{"duration":0.13636350000000164,"midi":36,"time":52.090857,"velocity":0.5905511811023622},{"duration":0.13636350000000164,"midi":38,"time":52.090857,"velocity":0.5905511811023622},{"duration":0.13636350000000164,"midi":42,"time":52.090857,"velocity":0.5905511811023622},{"duration":0.13636350000000164,"midi":36,"time":52.090857,"velocity":0.5905511811023622},{"duration":0.13636350000000164,"midi":42,"time":52.2272205,"velocity":0.5905511811023622},{"duration":0.13636350000000164,"midi":38,"time":52.2272205,"velocity":0.5905511811023622},{"duration":0.13636350000000164,"midi":38,"time":52.2272205,"velocity":0.5905511811023622},{"duration":0.13636350000000164,"midi":40,"time":52.2272205,"velocity":0.5905511811023622},{"duration":0.13636350000000164,"midi":40,"time":52.2272205,"velocity":0.5905511811023622},{"duration":0.13636349999999453,"midi":35,"time":52.363584,"velocity":0.5905511811023622},{"duration":0.13636349999999453,"midi":45,"time":52.363584,"velocity":0.5905511811023622},{"duration":0.13636349999999453,"midi":35,"time":52.363584,"velocity":0.5905511811023622},{"duration":0.13636349999999453,"midi":52,"time":52.363584,"velocity":0.5905511811023622},{"duration":0.13636349999999453,"midi":52,"time":52.363584,"velocity":0.5905511811023622},{"duration":0.13636349999999453,"midi":35,"time":52.363584,"velocity":0.5905511811023622},{"duration":0.13636349999999453,"midi":51,"time":52.363584,"velocity":0.5905511811023622},{"duration":0.13636349999999453,"midi":52,"time":52.363584,"velocity":0.5905511811023622},{"duration":0.13636349999999453,"midi":52,"time":52.363584,"velocity":0.5905511811023622},{"duration":0.13636350000000164,"midi":43,"time":52.4999475,"velocity":0.5905511811023622},{"duration":0.13636350000000164,"midi":35,"time":52.636311,"velocity":0.5905511811023622},{"duration":0.13636350000000164,"midi":35,"time":52.636311,"velocity":0.5905511811023622},{"duration":0.13636350000000164,"midi":35,"time":52.636311,"velocity":0.5905511811023622},{"duration":0.13636349999999453,"midi":40,"time":52.909038,"velocity":0.5905511811023622},{"duration":0.13636349999999453,"midi":38,"time":52.909038,"velocity":0.5905511811023622},{"duration":0.13636349999999453,"midi":49,"time":52.909038,"velocity":0.5905511811023622},{"duration":0.13636349999999453,"midi":51,"time":52.909038,"velocity":0.5905511811023622},{"duration":0.13636349999999453,"midi":38,"time":52.909038,"velocity":0.5905511811023622},{"duration":0.13636349999999453,"midi":45,"time":52.909038,"velocity":0.5905511811023622},{"duration":0.13636349999999453,"midi":40,"time":52.909038,"velocity":0.5905511811023622},{"duration":0.13636349999999453,"midi":40,"time":52.909038,"velocity":0.5905511811023622},{"duration":0.13636349999999453,"midi":49,"time":52.909038,"velocity":0.5905511811023622},{"duration":0.13636349999999453,"midi":38,"time":52.909038,"velocity":0.5905511811023622},{"duration":0.13636350000000164,"midi":36,"time":53.0454015,"velocity":0.5905511811023622},{"duration":0.13636350000000164,"midi":43,"time":53.0454015,"velocity":0.5905511811023622},{"duration":0.13636350000000164,"midi":36,"time":53.0454015,"velocity":0.5905511811023622},{"duration":0.13636350000000164,"midi":36,"time":53.0454015,"velocity":0.5905511811023622},{"duration":0.13636350000000164,"midi":36,"time":53.3181285,"velocity":0.5905511811023622},{"duration":0.13636350000000164,"midi":36,"time":53.3181285,"velocity":0.5905511811023622},{"duration":0.13636350000000164,"midi":36,"time":53.3181285,"velocity":0.5905511811023622},{"duration":0.13636349999999453,"midi":35,"time":53.454492,"velocity":0.5905511811023622},{"duration":0.13636349999999453,"midi":35,"time":53.454492,"velocity":0.5905511811023622},{"duration":0.13636349999999453,"midi":49,"time":53.454492,"velocity":0.5905511811023622},{"duration":0.13636349999999453,"midi":51,"time":53.454492,"velocity":0.5905511811023622},{"duration":0.13636349999999453,"midi":49,"time":53.454492,"velocity":0.5905511811023622},{"duration":0.13636349999999453,"midi":35,"time":53.454492,"velocity":0.5905511811023622},{"duration":0.13636349999999453,"midi":45,"time":53.454492,"velocity":0.5905511811023622},{"duration":0.13636350000000164,"midi":43,"time":53.590855499999996,"velocity":0.5905511811023622},{"duration":0.13636350000000164,"midi":40,"time":53.590855499999996,"velocity":0.5905511811023622},{"duration":0.13636350000000164,"midi":40,"time":53.590855499999996,"velocity":0.5905511811023622},{"duration":0.13636350000000164,"midi":40,"time":53.590855499999996,"velocity":0.5905511811023622},{"duration":0.13636350000000164,"midi":38,"time":53.727219,"velocity":0.5905511811023622},{"duration":0.13636350000000164,"midi":38,"time":53.727219,"velocity":0.5905511811023622},{"duration":0.13636350000000164,"midi":38,"time":53.727219,"velocity":0.5905511811023622},{"duration":0.13636350000000164,"midi":35,"time":53.8635825,"velocity":0.5905511811023622},{"duration":0.13636350000000164,"midi":35,"time":53.8635825,"velocity":0.5905511811023622},{"duration":0.13636350000000164,"midi":35,"time":53.8635825,"velocity":0.5905511811023622},{"duration":0.13636350000000164,"midi":40,"time":53.999946,"velocity":0.5905511811023622},{"duration":0.13636350000000164,"midi":49,"time":53.999946,"velocity":0.5905511811023622},{"duration":0.13636350000000164,"midi":40,"time":53.999946,"velocity":0.5905511811023622},{"duration":0.13636350000000164,"midi":51,"time":53.999946,"velocity":0.5905511811023622},{"duration":0.13636350000000164,"midi":49,"time":53.999946,"velocity":0.5905511811023622},{"duration":0.13636350000000164,"midi":40,"time":53.999946,"velocity":0.5905511811023622},{"duration":0.13636349999999453,"midi":35,"time":54.1363095,"velocity":0.5905511811023622},{"duration":0.13636349999999453,"midi":35,"time":54.1363095,"velocity":0.5905511811023622},{"duration":0.13636349999999453,"midi":35,"time":54.1363095,"velocity":0.5905511811023622},{"duration":0.13636350000000164,"midi":45,"time":54.5454,"velocity":0.5905511811023622},{"duration":0.13636350000000164,"midi":35,"time":54.5454,"velocity":0.5905511811023622},{"duration":0.13636350000000164,"midi":35,"time":54.5454,"velocity":0.5905511811023622},{"duration":0.13636350000000164,"midi":51,"time":54.5454,"velocity":0.5905511811023622},{"duration":0.13636350000000164,"midi":35,"time":54.5454,"velocity":0.5905511811023622},{"duration":0.13636349999999453,"midi":43,"time":54.6817635,"velocity":0.5905511811023622},{"duration":0.13636350000000164,"midi":35,"time":54.818127,"velocity":0.5905511811023622},{"duration":0.13636350000000164,"midi":35,"time":54.818127,"velocity":0.5905511811023622},{"duration":0.13636350000000164,"midi":35,"time":54.818127,"velocity":0.5905511811023622},{"duration":0.13636350000000164,"midi":38,"time":55.090854,"velocity":0.5905511811023622},{"duration":0.13636350000000164,"midi":45,"time":55.090854,"velocity":0.5905511811023622},{"duration":0.13636350000000164,"midi":49,"time":55.090854,"velocity":0.5905511811023622},{"duration":0.13636350000000164,"midi":40,"time":55.090854,"velocity":0.5905511811023622},{"duration":0.13636350000000164,"midi":51,"time":55.090854,"velocity":0.5905511811023622},{"duration":0.13636350000000164,"midi":38,"time":55.090854,"velocity":0.5905511811023622},{"duration":0.13636350000000164,"midi":49,"time":55.090854,"velocity":0.5905511811023622},{"duration":0.13636350000000164,"midi":40,"time":55.090854,"velocity":0.5905511811023622},{"duration":0.13636350000000164,"midi":38,"time":55.090854,"velocity":0.5905511811023622},{"duration":0.13636350000000164,"midi":40,"time":55.090854,"velocity":0.5905511811023622},{"duration":0.13636349999999453,"midi":43,"time":55.2272175,"velocity":0.5905511811023622},{"duration":0.13636349999999453,"midi":36,"time":55.2272175,"velocity":0.5905511811023622},{"duration":0.13636349999999453,"midi":36,"time":55.2272175,"velocity":0.5905511811023622},{"duration":0.13636349999999453,"midi":36,"time":55.2272175,"velocity":0.5905511811023622},{"duration":0.13636350000000164,"midi":36,"time":55.4999445,"velocity":0.5905511811023622},{"duration":0.13636350000000164,"midi":36,"time":55.4999445,"velocity":0.5905511811023622},{"duration":0.13636350000000164,"midi":36,"time":55.4999445,"velocity":0.5905511811023622},{"duration":0.13636350000000164,"midi":49,"time":55.636308,"velocity":0.5905511811023622},{"duration":0.13636350000000164,"midi":49,"time":55.636308,"velocity":0.5905511811023622},{"duration":0.13636350000000164,"midi":51,"time":55.636308,"velocity":0.5905511811023622},{"duration":0.13636350000000164,"midi":35,"time":55.636308,"velocity":0.5905511811023622},{"duration":0.13636350000000164,"midi":35,"time":55.636308,"velocity":0.5905511811023622},{"duration":0.13636350000000164,"midi":35,"time":55.636308,"velocity":0.5905511811023622},{"duration":0.13636350000000164,"midi":45,"time":55.636308,"velocity":0.5905511811023622},{"duration":0.13636350000000164,"midi":40,"time":55.7726715,"velocity":0.5905511811023622},{"duration":0.13636350000000164,"midi":40,"time":55.7726715,"velocity":0.5905511811023622},{"duration":0.13636350000000164,"midi":43,"time":55.7726715,"velocity":0.5905511811023622},{"duration":0.13636350000000164,"midi":40,"time":55.7726715,"velocity":0.5905511811023622},{"duration":0.13636349999999453,"midi":38,"time":55.909035,"velocity":0.5905511811023622},{"duration":0.13636349999999453,"midi":38,"time":55.909035,"velocity":0.5905511811023622},{"duration":0.13636349999999453,"midi":38,"time":55.909035,"velocity":0.5905511811023622},{"duration":0.13636350000000164,"midi":35,"time":56.0453985,"velocity":0.5905511811023622},{"duration":0.13636350000000164,"midi":35,"time":56.0453985,"velocity":0.5905511811023622},{"duration":0.13636350000000164,"midi":35,"time":56.0453985,"velocity":0.5905511811023622},{"duration":0.13636350000000164,"midi":49,"time":56.181762,"velocity":0.5905511811023622},{"duration":0.13636350000000164,"midi":40,"time":56.181762,"velocity":0.5905511811023622},{"duration":0.13636350000000164,"midi":51,"time":56.181762,"velocity":0.5905511811023622},{"duration":0.13636350000000164,"midi":40,"time":56.181762,"velocity":0.5905511811023622},{"duration":0.13636350000000164,"midi":40,"time":56.181762,"velocity":0.5905511811023622},{"duration":0.13636350000000164,"midi":49,"time":56.181762,"velocity":0.5905511811023622},{"duration":0.13636350000000164,"midi":40,"time":56.5908525,"velocity":0.5905511811023622},{"duration":0.13636350000000164,"midi":40,"time":56.5908525,"velocity":0.5905511811023622},{"duration":0.13636350000000164,"midi":40,"time":56.5908525,"velocity":0.5905511811023622},{"duration":0.13636350000000164,"midi":35,"time":56.727216,"velocity":0.5905511811023622},{"duration":0.13636350000000164,"midi":51,"time":56.727216,"velocity":0.5905511811023622},{"duration":0.13636350000000164,"midi":45,"time":56.727216,"velocity":0.5905511811023622},{"duration":0.13636350000000164,"midi":35,"time":56.727216,"velocity":0.5905511811023622},{"duration":0.13636350000000164,"midi":35,"time":56.727216,"velocity":0.5905511811023622},{"duration":0.13636350000000164,"midi":43,"time":56.8635795,"velocity":0.5905511811023622},{"duration":0.13636349999999453,"midi":35,"time":56.999943,"velocity":0.5905511811023622},{"duration":0.13636349999999453,"midi":35,"time":56.999943,"velocity":0.5905511811023622},{"duration":0.13636349999999453,"midi":35,"time":56.999943,"velocity":0.5905511811023622},{"duration":0.13636350000000164,"midi":40,"time":57.27267,"velocity":0.5905511811023622},{"duration":0.13636350000000164,"midi":40,"time":57.27267,"velocity":0.5905511811023622},{"duration":0.13636350000000164,"midi":38,"time":57.27267,"velocity":0.5905511811023622},{"duration":0.13636350000000164,"midi":51,"time":57.27267,"velocity":0.5905511811023622},{"duration":0.13636350000000164,"midi":49,"time":57.27267,"velocity":0.5905511811023622},{"duration":0.13636350000000164,"midi":49,"time":57.27267,"velocity":0.5905511811023622},{"duration":0.13636350000000164,"midi":38,"time":57.27267,"velocity":0.5905511811023622},{"duration":0.13636350000000164,"midi":38,"time":57.27267,"velocity":0.5905511811023622},{"duration":0.13636350000000164,"midi":45,"time":57.27267,"velocity":0.5905511811023622},{"duration":0.13636350000000164,"midi":40,"time":57.27267,"velocity":0.5905511811023622},{"duration":0.13636350000000164,"midi":36,"time":57.4090335,"velocity":0.5905511811023622},{"duration":0.13636350000000164,"midi":36,"time":57.4090335,"velocity":0.5905511811023622},{"duration":0.13636350000000164,"midi":43,"time":57.4090335,"velocity":0.5905511811023622},{"duration":0.13636350000000164,"midi":36,"time":57.4090335,"velocity":0.5905511811023622},{"duration":0.13636349999999453,"midi":36,"time":57.6817605,"velocity":0.5905511811023622},{"duration":0.13636349999999453,"midi":36,"time":57.6817605,"velocity":0.5905511811023622},{"duration":0.13636349999999453,"midi":36,"time":57.6817605,"velocity":0.5905511811023622},{"duration":0.13636350000000164,"midi":49,"time":57.818124,"velocity":0.5905511811023622},{"duration":0.13636350000000164,"midi":35,"time":57.818124,"velocity":0.5905511811023622},{"duration":0.13636350000000164,"midi":35,"time":57.818124,"velocity":0.5905511811023622},{"duration":0.13636350000000164,"midi":49,"time":57.818124,"velocity":0.5905511811023622},{"duration":0.13636350000000164,"midi":45,"time":57.818124,"velocity":0.5905511811023622},{"duration":0.13636350000000164,"midi":35,"time":57.818124,"velocity":0.5905511811023622},{"duration":0.13636350000000164,"midi":51,"time":57.818124,"velocity":0.5905511811023622},{"duration":0.13636350000000164,"midi":40,"time":57.9544875,"velocity":0.5905511811023622},{"duration":0.13636350000000164,"midi":43,"time":57.9544875,"velocity":0.5905511811023622},{"duration":0.13636350000000164,"midi":40,"time":57.9544875,"velocity":0.5905511811023622},{"duration":0.13636350000000164,"midi":40,"time":57.9544875,"velocity":0.5905511811023622},{"duration":0.13636350000000164,"midi":38,"time":58.090851,"velocity":0.5905511811023622},{"duration":0.13636350000000164,"midi":38,"time":58.090851,"velocity":0.5905511811023622},{"duration":0.13636350000000164,"midi":38,"time":58.090851,"velocity":0.5905511811023622},{"duration":0.13636349999999453,"midi":35,"time":58.2272145,"velocity":0.5905511811023622},{"duration":0.13636349999999453,"midi":35,"time":58.2272145,"velocity":0.5905511811023622},{"duration":0.13636349999999453,"midi":35,"time":58.2272145,"velocity":0.5905511811023622},{"duration":0.13636350000000164,"midi":49,"time":58.363578,"velocity":0.5905511811023622},{"duration":0.13636350000000164,"midi":51,"time":58.363578,"velocity":0.5905511811023622},{"duration":0.13636350000000164,"midi":40,"time":58.363578,"velocity":0.5905511811023622},{"duration":0.13636350000000164,"midi":40,"time":58.363578,"velocity":0.5905511811023622},{"duration":0.13636350000000164,"midi":49,"time":58.363578,"velocity":0.5905511811023622},{"duration":0.13636350000000164,"midi":40,"time":58.363578,"velocity":0.5905511811023622},{"duration":0.13636350000000164,"midi":35,"time":58.4999415,"velocity":0.5905511811023622},{"duration":0.13636350000000164,"midi":35,"time":58.4999415,"velocity":0.5905511811023622},{"duration":0.13636350000000164,"midi":35,"time":58.4999415,"velocity":0.5905511811023622},{"duration":0.13636350000000164,"midi":51,"time":58.909031999999996,"velocity":0.5905511811023622},{"duration":0.13636350000000164,"midi":45,"time":58.909031999999996,"velocity":0.5905511811023622},{"duration":0.13636350000000164,"midi":35,"time":58.909031999999996,"velocity":0.5905511811023622},{"duration":0.13636350000000164,"midi":35,"time":58.909031999999996,"velocity":0.5905511811023622},{"duration":0.13636350000000164,"midi":35,"time":58.909031999999996,"velocity":0.5905511811023622},{"duration":0.13636350000000164,"midi":43,"time":59.0453955,"velocity":0.5905511811023622},{"duration":0.13636350000000164,"midi":35,"time":59.181759,"velocity":0.5905511811023622},{"duration":0.13636350000000164,"midi":35,"time":59.181759,"velocity":0.5905511811023622},{"duration":0.13636350000000164,"midi":35,"time":59.181759,"velocity":0.5905511811023622},{"duration":0.13636349999999453,"midi":49,"time":59.454486,"velocity":0.5905511811023622},{"duration":0.13636349999999453,"midi":51,"time":59.454486,"velocity":0.5905511811023622},{"duration":0.13636349999999453,"midi":38,"time":59.454486,"velocity":0.5905511811023622},{"duration":0.13636349999999453,"midi":38,"time":59.454486,"velocity":0.5905511811023622},{"duration":0.13636349999999453,"midi":49,"time":59.454486,"velocity":0.5905511811023622},{"duration":0.13636349999999453,"midi":40,"time":59.454486,"velocity":0.5905511811023622},{"duration":0.13636349999999453,"midi":45,"time":59.454486,"velocity":0.5905511811023622},{"duration":0.13636349999999453,"midi":40,"time":59.454486,"velocity":0.5905511811023622},{"duration":0.13636349999999453,"midi":38,"time":59.454486,"velocity":0.5905511811023622},{"duration":0.13636349999999453,"midi":40,"time":59.454486,"velocity":0.5905511811023622},{"duration":0.13636350000000164,"midi":43,"time":59.5908495,"velocity":0.5905511811023622},{"duration":0.13636350000000164,"midi":36,"time":59.5908495,"velocity":0.5905511811023622},{"duration":0.13636350000000164,"midi":36,"time":59.5908495,"velocity":0.5905511811023622},{"duration":0.13636350000000164,"midi":36,"time":59.5908495,"velocity":0.5905511811023622},{"duration":0.13636350000000164,"midi":36,"time":59.8635765,"velocity":0.5905511811023622},{"duration":0.13636350000000164,"midi":36,"time":59.8635765,"velocity":0.5905511811023622},{"duration":0.13636350000000164,"midi":36,"time":59.8635765,"velocity":0.5905511811023622},{"duration":0.13636349999999453,"midi":35,"time":59.99994,"velocity":0.5905511811023622},{"duration":0.13636349999999453,"midi":35,"time":59.99994,"velocity":0.5905511811023622},{"duration":0.13636349999999453,"midi":45,"time":59.99994,"velocity":0.5905511811023622},{"duration":0.13636349999999453,"midi":35,"time":59.99994,"velocity":0.5905511811023622},{"duration":0.13636349999999453,"midi":49,"time":59.99994,"velocity":0.5905511811023622},{"duration":0.13636349999999453,"midi":49,"time":59.99994,"velocity":0.5905511811023622},{"duration":0.13636349999999453,"midi":51,"time":59.99994,"velocity":0.5905511811023622},{"duration":0.13636350000000164,"midi":43,"time":60.1363035,"velocity":0.5905511811023622},{"duration":0.13636350000000164,"midi":40,"time":60.1363035,"velocity":0.5905511811023622},{"duration":0.13636350000000164,"midi":40,"time":60.1363035,"velocity":0.5905511811023622},{"duration":0.13636350000000164,"midi":40,"time":60.1363035,"velocity":0.5905511811023622},{"duration":0.13636350000000164,"midi":38,"time":60.272667,"velocity":0.5905511811023622},{"duration":0.13636350000000164,"midi":38,"time":60.272667,"velocity":0.5905511811023622},{"duration":0.13636350000000164,"midi":38,"time":60.272667,"velocity":0.5905511811023622},{"duration":0.13636350000000164,"midi":35,"time":60.4090305,"velocity":0.5905511811023622},{"duration":0.13636350000000164,"midi":35,"time":60.4090305,"velocity":0.5905511811023622},{"duration":0.13636350000000164,"midi":35,"time":60.4090305,"velocity":0.5905511811023622},{"duration":0.13636349999999453,"midi":40,"time":60.545394,"velocity":0.5905511811023622},{"duration":0.13636349999999453,"midi":40,"time":60.545394,"velocity":0.5905511811023622},{"duration":0.13636349999999453,"midi":40,"time":60.545394,"velocity":0.5905511811023622},{"duration":0.13636349999999453,"midi":51,"time":60.545394,"velocity":0.5905511811023622},{"duration":0.13636349999999453,"midi":49,"time":60.545394,"velocity":0.5905511811023622},{"duration":0.13636349999999453,"midi":49,"time":60.545394,"velocity":0.5905511811023622},{"duration":0.13636350000000164,"midi":40,"time":60.818121,"velocity":0.5905511811023622},{"duration":0.13636350000000164,"midi":40,"time":60.818121,"velocity":0.5905511811023622},{"duration":0.13636350000000164,"midi":40,"time":60.818121,"velocity":0.5905511811023622},{"duration":0.13636350000000164,"midi":40,"time":60.9544845,"velocity":0.5905511811023622},{"duration":0.13636350000000164,"midi":40,"time":60.9544845,"velocity":0.5905511811023622},{"duration":0.13636350000000164,"midi":40,"time":60.9544845,"velocity":0.5905511811023622},{"duration":0.13636350000000164,"midi":51,"time":61.090848,"velocity":0.5905511811023622},{"duration":0.13636350000000164,"midi":35,"time":61.090848,"velocity":0.5905511811023622},{"duration":0.13636350000000164,"midi":57,"time":61.090848,"velocity":0.5905511811023622},{"duration":0.13636350000000164,"midi":57,"time":61.090848,"velocity":0.5905511811023622},{"duration":0.13636350000000164,"midi":57,"time":61.090848,"velocity":0.5905511811023622},{"duration":0.13636350000000164,"midi":45,"time":61.090848,"velocity":0.5905511811023622},{"duration":0.13636350000000164,"midi":35,"time":61.090848,"velocity":0.5905511811023622},{"duration":0.13636350000000164,"midi":35,"time":61.090848,"velocity":0.5905511811023622},{"duration":0.13636349999999453,"midi":43,"time":61.2272115,"velocity":0.5905511811023622},{"duration":0.13636350000000164,"midi":35,"time":61.363575,"velocity":0.5905511811023622},{"duration":0.13636350000000164,"midi":57,"time":61.363575,"velocity":0.5905511811023622},{"duration":0.13636350000000164,"midi":35,"time":61.363575,"velocity":0.5905511811023622},{"duration":0.13636350000000164,"midi":35,"time":61.363575,"velocity":0.5905511811023622},{"duration":0.13636350000000164,"midi":45,"time":61.636302,"velocity":0.5905511811023622},{"duration":0.13636350000000164,"midi":51,"time":61.636302,"velocity":0.5905511811023622},{"duration":0.13636350000000164,"midi":49,"time":61.636302,"velocity":0.5905511811023622},{"duration":0.13636350000000164,"midi":40,"time":61.636302,"velocity":0.5905511811023622},{"duration":0.13636350000000164,"midi":38,"time":61.636302,"velocity":0.5905511811023622},{"duration":0.13636350000000164,"midi":38,"time":61.636302,"velocity":0.5905511811023622},{"duration":0.13636350000000164,"midi":49,"time":61.636302,"velocity":0.5905511811023622},{"duration":0.13636350000000164,"midi":38,"time":61.636302,"velocity":0.5905511811023622},{"duration":0.13636350000000164,"midi":40,"time":61.636302,"velocity":0.5905511811023622},{"duration":0.13636350000000164,"midi":40,"time":61.636302,"velocity":0.5905511811023622},{"duration":0.13636349999999453,"midi":36,"time":61.7726655,"velocity":0.5905511811023622},{"duration":0.13636349999999453,"midi":36,"time":61.7726655,"velocity":0.5905511811023622},{"duration":0.13636349999999453,"midi":43,"time":61.7726655,"velocity":0.5905511811023622},{"duration":0.13636349999999453,"midi":36,"time":61.7726655,"velocity":0.5905511811023622},{"duration":0.13636350000000164,"midi":36,"time":62.0453925,"velocity":0.5905511811023622},{"duration":0.13636350000000164,"midi":36,"time":62.0453925,"velocity":0.5905511811023622},{"duration":0.13636350000000164,"midi":36,"time":62.0453925,"velocity":0.5905511811023622},{"duration":0.13636350000000164,"midi":45,"time":62.181756,"velocity":0.5905511811023622},{"duration":0.13636350000000164,"midi":35,"time":62.181756,"velocity":0.5905511811023622},{"duration":0.13636350000000164,"midi":51,"time":62.181756,"velocity":0.5905511811023622},{"duration":0.13636350000000164,"midi":35,"time":62.181756,"velocity":0.5905511811023622},{"duration":0.13636350000000164,"midi":49,"time":62.181756,"velocity":0.5905511811023622},{"duration":0.13636350000000164,"midi":35,"time":62.181756,"velocity":0.5905511811023622},{"duration":0.13636350000000164,"midi":49,"time":62.181756,"velocity":0.5905511811023622},{"duration":0.13636349999999453,"midi":40,"time":62.3181195,"velocity":0.5905511811023622},{"duration":0.13636349999999453,"midi":40,"time":62.3181195,"velocity":0.5905511811023622},{"duration":0.13636349999999453,"midi":43,"time":62.3181195,"velocity":0.5905511811023622},{"duration":0.13636349999999453,"midi":40,"time":62.3181195,"velocity":0.5905511811023622},{"duration":0.13636350000000164,"midi":38,"time":62.454482999999996,"velocity":0.5905511811023622},{"duration":0.13636350000000164,"midi":38,"time":62.454482999999996,"velocity":0.5905511811023622},{"duration":0.13636350000000164,"midi":38,"time":62.454482999999996,"velocity":0.5905511811023622},{"duration":0.13636350000000164,"midi":35,"time":62.5908465,"velocity":0.5905511811023622},{"duration":0.13636350000000164,"midi":35,"time":62.5908465,"velocity":0.5905511811023622},{"duration":0.13636350000000164,"midi":35,"time":62.5908465,"velocity":0.5905511811023622},{"duration":0.13636350000000164,"midi":40,"time":62.72721,"velocity":0.5905511811023622},{"duration":0.13636350000000164,"midi":40,"time":62.72721,"velocity":0.5905511811023622},{"duration":0.13636350000000164,"midi":49,"time":62.72721,"velocity":0.5905511811023622},{"duration":0.13636350000000164,"midi":40,"time":62.72721,"velocity":0.5905511811023622},{"duration":0.13636350000000164,"midi":49,"time":62.72721,"velocity":0.5905511811023622},{"duration":0.13636350000000164,"midi":51,"time":62.72721,"velocity":0.5905511811023622},{"duration":0.13636350000000164,"midi":35,"time":62.8635735,"velocity":0.5905511811023622},{"duration":0.13636350000000164,"midi":35,"time":62.8635735,"velocity":0.5905511811023622},{"duration":0.13636350000000164,"midi":35,"time":62.8635735,"velocity":0.5905511811023622},{"duration":0.13636350000000164,"midi":35,"time":63.272664,"velocity":0.5905511811023622},{"duration":0.13636350000000164,"midi":35,"time":63.272664,"velocity":0.5905511811023622},{"duration":0.13636350000000164,"midi":45,"time":63.272664,"velocity":0.5905511811023622},{"duration":0.13636350000000164,"midi":35,"time":63.272664,"velocity":0.5905511811023622},{"duration":0.13636350000000164,"midi":51,"time":63.272664,"velocity":0.5905511811023622},{"duration":0.13636350000000164,"midi":43,"time":63.4090275,"velocity":0.5905511811023622},{"duration":0.13636349999999453,"midi":35,"time":63.545391,"velocity":0.5905511811023622},{"duration":0.13636349999999453,"midi":35,"time":63.545391,"velocity":0.5905511811023622},{"duration":0.13636349999999453,"midi":35,"time":63.545391,"velocity":0.5905511811023622},{"duration":0.13636350000000164,"midi":38,"time":63.818118,"velocity":0.5905511811023622},{"duration":0.13636350000000164,"midi":38,"time":63.818118,"velocity":0.5905511811023622},{"duration":0.13636350000000164,"midi":40,"time":63.818118,"velocity":0.5905511811023622},{"duration":0.13636350000000164,"midi":40,"time":63.818118,"velocity":0.5905511811023622},{"duration":0.13636350000000164,"midi":45,"time":63.818118,"velocity":0.5905511811023622},{"duration":0.13636350000000164,"midi":38,"time":63.818118,"velocity":0.5905511811023622},{"duration":0.13636350000000164,"midi":49,"time":63.818118,"velocity":0.5905511811023622},{"duration":0.13636350000000164,"midi":40,"time":63.818118,"velocity":0.5905511811023622},{"duration":0.13636350000000164,"midi":49,"time":63.818118,"velocity":0.5905511811023622},{"duration":0.13636350000000164,"midi":51,"time":63.818118,"velocity":0.5905511811023622},{"duration":0.13636350000000164,"midi":43,"time":63.9544815,"velocity":0.5905511811023622},{"duration":0.13636350000000164,"midi":36,"time":63.9544815,"velocity":0.5905511811023622},{"duration":0.13636350000000164,"midi":36,"time":63.9544815,"velocity":0.5905511811023622},{"duration":0.13636350000000164,"midi":36,"time":63.9544815,"velocity":0.5905511811023622},{"duration":0.13636350000000164,"midi":36,"time":64.2272085,"velocity":0.5905511811023622},{"duration":0.13636350000000164,"midi":36,"time":64.2272085,"velocity":0.5905511811023622},{"duration":0.13636350000000164,"midi":36,"time":64.2272085,"velocity":0.5905511811023622},{"duration":0.13636349999998743,"midi":35,"time":64.363572,"velocity":0.5905511811023622},{"duration":0.13636349999998743,"midi":49,"time":64.363572,"velocity":0.5905511811023622},{"duration":0.13636349999998743,"midi":35,"time":64.363572,"velocity":0.5905511811023622},{"duration":0.13636349999998743,"midi":51,"time":64.363572,"velocity":0.5905511811023622},{"duration":0.13636349999998743,"midi":35,"time":64.363572,"velocity":0.5905511811023622},{"duration":0.13636349999998743,"midi":49,"time":64.363572,"velocity":0.5905511811023622},{"duration":0.13636349999998743,"midi":45,"time":64.363572,"velocity":0.5905511811023622},{"duration":0.13636350000000164,"midi":40,"time":64.49993549999999,"velocity":0.5905511811023622},{"duration":0.13636350000000164,"midi":40,"time":64.49993549999999,"velocity":0.5905511811023622},{"duration":0.13636350000000164,"midi":40,"time":64.49993549999999,"velocity":0.5905511811023622},{"duration":0.13636350000000164,"midi":43,"time":64.49993549999999,"velocity":0.5905511811023622},{"duration":0.13636350000000164,"midi":38,"time":64.636299,"velocity":0.5905511811023622},{"duration":0.13636350000000164,"midi":38,"time":64.636299,"velocity":0.5905511811023622},{"duration":0.13636350000000164,"midi":38,"time":64.636299,"velocity":0.5905511811023622},{"duration":0.13636350000000164,"midi":35,"time":64.7726625,"velocity":0.5905511811023622},{"duration":0.13636350000000164,"midi":35,"time":64.7726625,"velocity":0.5905511811023622},{"duration":0.13636350000000164,"midi":35,"time":64.7726625,"velocity":0.5905511811023622},{"duration":0.13636350000000164,"midi":51,"time":64.909026,"velocity":0.5905511811023622},{"duration":0.13636350000000164,"midi":49,"time":64.909026,"velocity":0.5905511811023622},{"duration":0.13636350000000164,"midi":40,"time":64.909026,"velocity":0.5905511811023622},{"duration":0.13636350000000164,"midi":40,"time":64.909026,"velocity":0.5905511811023622},{"duration":0.13636350000000164,"midi":49,"time":64.909026,"velocity":0.5905511811023622},{"duration":0.13636350000000164,"midi":40,"time":64.909026,"velocity":0.5905511811023622},{"duration":0.13636350000000164,"midi":40,"time":65.3181165,"velocity":0.5905511811023622},{"duration":0.13636350000000164,"midi":40,"time":65.3181165,"velocity":0.5905511811023622},{"duration":0.13636350000000164,"midi":40,"time":65.3181165,"velocity":0.5905511811023622},{"duration":0.13636350000000164,"midi":35,"time":65.45448,"velocity":0.5905511811023622},{"duration":0.13636350000000164,"midi":51,"time":65.45448,"velocity":0.5905511811023622},{"duration":0.13636350000000164,"midi":45,"time":65.45448,"velocity":0.5905511811023622},{"duration":0.13636350000000164,"midi":35,"time":65.45448,"velocity":0.5905511811023622},{"duration":0.13636350000000164,"midi":35,"time":65.45448,"velocity":0.5905511811023622},{"duration":0.13636349999998743,"midi":43,"time":65.5908435,"velocity":0.5905511811023622},{"duration":0.13636350000000164,"midi":35,"time":65.72720699999999,"velocity":0.5905511811023622},{"duration":0.13636350000000164,"midi":35,"time":65.72720699999999,"velocity":0.5905511811023622},{"duration":0.13636350000000164,"midi":35,"time":65.72720699999999,"velocity":0.5905511811023622},{"duration":0.13636350000000164,"midi":45,"time":65.999934,"velocity":0.5905511811023622},{"duration":0.13636350000000164,"midi":40,"time":65.999934,"velocity":0.5905511811023622},{"duration":0.13636350000000164,"midi":38,"time":65.999934,"velocity":0.5905511811023622},{"duration":0.13636350000000164,"midi":38,"time":65.999934,"velocity":0.5905511811023622},{"duration":0.13636350000000164,"midi":40,"time":65.999934,"velocity":0.5905511811023622},{"duration":0.13636350000000164,"midi":40,"time":65.999934,"velocity":0.5905511811023622},{"duration":0.13636350000000164,"midi":49,"time":65.999934,"velocity":0.5905511811023622},{"duration":0.13636350000000164,"midi":38,"time":65.999934,"velocity":0.5905511811023622},{"duration":0.13636350000000164,"midi":49,"time":65.999934,"velocity":0.5905511811023622},{"duration":0.13636350000000164,"midi":51,"time":65.999934,"velocity":0.5905511811023622},{"duration":0.13636350000000164,"midi":43,"time":66.1362975,"velocity":0.5905511811023622},{"duration":0.13636350000000164,"midi":36,"time":66.1362975,"velocity":0.5905511811023622},{"duration":0.13636350000000164,"midi":36,"time":66.1362975,"velocity":0.5905511811023622},{"duration":0.13636350000000164,"midi":36,"time":66.1362975,"velocity":0.5905511811023622},{"duration":0.13636350000000164,"midi":36,"time":66.4090245,"velocity":0.5905511811023622},{"duration":0.13636350000000164,"midi":36,"time":66.4090245,"velocity":0.5905511811023622},{"duration":0.13636350000000164,"midi":36,"time":66.4090245,"velocity":0.5905511811023622},{"duration":0.13636350000000164,"midi":35,"time":66.545388,"velocity":0.5905511811023622},{"duration":0.13636350000000164,"midi":35,"time":66.545388,"velocity":0.5905511811023622},{"duration":0.13636350000000164,"midi":51,"time":66.545388,"velocity":0.5905511811023622},{"duration":0.13636350000000164,"midi":49,"time":66.545388,"velocity":0.5905511811023622},{"duration":0.13636350000000164,"midi":45,"time":66.545388,"velocity":0.5905511811023622},{"duration":0.13636350000000164,"midi":35,"time":66.545388,"velocity":0.5905511811023622},{"duration":0.13636350000000164,"midi":49,"time":66.545388,"velocity":0.5905511811023622},{"duration":0.13636350000000164,"midi":40,"time":66.6817515,"velocity":0.5905511811023622},{"duration":0.13636350000000164,"midi":40,"time":66.6817515,"velocity":0.5905511811023622},{"duration":0.13636350000000164,"midi":43,"time":66.6817515,"velocity":0.5905511811023622},{"duration":0.13636350000000164,"midi":40,"time":66.6817515,"velocity":0.5905511811023622},{"duration":0.13636349999998743,"midi":38,"time":66.818115,"velocity":0.5905511811023622},{"duration":0.13636349999998743,"midi":38,"time":66.818115,"velocity":0.5905511811023622},{"duration":0.13636349999998743,"midi":38,"time":66.818115,"velocity":0.5905511811023622},{"duration":0.13636350000000164,"midi":35,"time":66.9544785,"velocity":0.5905511811023622},{"duration":0.13636350000000164,"midi":35,"time":66.9544785,"velocity":0.5905511811023622},{"duration":0.13636350000000164,"midi":35,"time":66.9544785,"velocity":0.5905511811023622},{"duration":0.13636350000000164,"midi":40,"time":67.090842,"velocity":0.5905511811023622},{"duration":0.13636350000000164,"midi":40,"time":67.090842,"velocity":0.5905511811023622},{"duration":0.13636350000000164,"midi":40,"time":67.090842,"velocity":0.5905511811023622},{"duration":0.13636350000000164,"midi":49,"time":67.090842,"velocity":0.5905511811023622},{"duration":0.13636350000000164,"midi":49,"time":67.090842,"velocity":0.5905511811023622},{"duration":0.13636350000000164,"midi":35,"time":67.2272055,"velocity":0.5905511811023622},{"duration":0.13636350000000164,"midi":35,"time":67.2272055,"velocity":0.5905511811023622},{"duration":0.13636350000000164,"midi":35,"time":67.2272055,"velocity":0.5905511811023622},{"duration":0.13636350000000164,"midi":35,"time":67.636296,"velocity":0.5905511811023622},{"duration":0.13636350000000164,"midi":35,"time":67.636296,"velocity":0.5905511811023622},{"duration":0.13636350000000164,"midi":35,"time":67.636296,"velocity":0.5905511811023622},{"duration":0.13636350000000164,"midi":45,"time":67.636296,"velocity":0.5905511811023622},{"duration":0.13636350000000164,"midi":43,"time":67.7726595,"velocity":0.5905511811023622},{"duration":0.13636349999998743,"midi":35,"time":67.909023,"velocity":0.5905511811023622},{"duration":0.13636349999998743,"midi":35,"time":67.909023,"velocity":0.5905511811023622},{"duration":0.13636349999998743,"midi":35,"time":67.909023,"velocity":0.5905511811023622},{"duration":0.13636350000000164,"midi":40,"time":68.18175,"velocity":0.5905511811023622},{"duration":0.13636350000000164,"midi":49,"time":68.18175,"velocity":0.5905511811023622},{"duration":0.13636350000000164,"midi":38,"time":68.18175,"velocity":0.5905511811023622},{"duration":0.13636350000000164,"midi":40,"time":68.18175,"velocity":0.5905511811023622},{"duration":0.13636350000000164,"midi":38,"time":68.18175,"velocity":0.5905511811023622},{"duration":0.13636350000000164,"midi":45,"time":68.18175,"velocity":0.5905511811023622},{"duration":0.13636350000000164,"midi":40,"time":68.18175,"velocity":0.5905511811023622},{"duration":0.13636350000000164,"midi":38,"time":68.18175,"velocity":0.5905511811023622},{"duration":0.13636350000000164,"midi":49,"time":68.18175,"velocity":0.5905511811023622},{"duration":0.13636350000000164,"midi":43,"time":68.3181135,"velocity":0.5905511811023622},{"duration":0.13636350000000164,"midi":35,"time":68.3181135,"velocity":0.5905511811023622},{"duration":0.13636350000000164,"midi":35,"time":68.3181135,"velocity":0.5905511811023622},{"duration":0.13636350000000164,"midi":35,"time":68.3181135,"velocity":0.5905511811023622},{"duration":0.13636350000000164,"midi":35,"time":68.5908405,"velocity":0.5905511811023622},{"duration":0.13636350000000164,"midi":35,"time":68.5908405,"velocity":0.5905511811023622},{"duration":0.13636350000000164,"midi":35,"time":68.5908405,"velocity":0.5905511811023622},{"duration":0.13636350000000164,"midi":49,"time":68.727204,"velocity":0.5905511811023622},{"duration":0.13636350000000164,"midi":49,"time":68.727204,"velocity":0.5905511811023622},{"duration":0.13636350000000164,"midi":45,"time":68.727204,"velocity":0.5905511811023622},{"duration":0.13636350000000164,"midi":43,"time":68.8635675,"velocity":0.5905511811023622},{"duration":0.13636350000000164,"midi":35,"time":68.8635675,"velocity":0.5905511811023622},{"duration":0.13636350000000164,"midi":35,"time":68.8635675,"velocity":0.5905511811023622},{"duration":0.13636350000000164,"midi":35,"time":68.8635675,"velocity":0.5905511811023622},{"duration":0.13636350000000164,"midi":38,"time":68.999931,"velocity":0.5905511811023622},{"duration":0.13636350000000164,"midi":38,"time":68.999931,"velocity":0.5905511811023622},{"duration":0.13636350000000164,"midi":38,"time":68.999931,"velocity":0.5905511811023622},{"duration":0.13636349999998743,"midi":35,"time":69.1362945,"velocity":0.5905511811023622},{"duration":0.13636349999998743,"midi":40,"time":69.1362945,"velocity":0.5905511811023622},{"duration":0.13636349999998743,"midi":35,"time":69.1362945,"velocity":0.5905511811023622},{"duration":0.13636349999998743,"midi":35,"time":69.1362945,"velocity":0.5905511811023622},{"duration":0.13636350000000164,"midi":49,"time":69.27265799999999,"velocity":0.5905511811023622},{"duration":0.13636350000000164,"midi":49,"time":69.27265799999999,"velocity":0.5905511811023622},{"duration":0.13636350000000164,"midi":40,"time":69.4090215,"velocity":0.5905511811023622},{"duration":0.13636350000000164,"midi":40,"time":69.4090215,"velocity":0.5905511811023622},{"duration":0.13636350000000164,"midi":40,"time":69.4090215,"velocity":0.5905511811023622},{"duration":0.13636350000000164,"midi":35,"time":69.545385,"velocity":0.5905511811023622},{"duration":0.13636350000000164,"midi":35,"time":69.545385,"velocity":0.5905511811023622},{"duration":0.13636350000000164,"midi":35,"time":69.545385,"velocity":0.5905511811023622},{"duration":0.13636350000000164,"midi":40,"time":69.6817485,"velocity":0.5905511811023622},{"duration":0.13636350000000164,"midi":35,"time":69.6817485,"velocity":0.5905511811023622},{"duration":0.13636350000000164,"midi":40,"time":69.6817485,"velocity":0.5905511811023622},{"duration":0.13636350000000164,"midi":35,"time":69.6817485,"velocity":0.5905511811023622},{"duration":0.13636350000000164,"midi":35,"time":69.6817485,"velocity":0.5905511811023622},{"duration":0.13636350000000164,"midi":40,"time":69.6817485,"velocity":0.5905511811023622},{"duration":0.13636350000000164,"midi":31,"time":69.818112,"velocity":0.5905511811023622},{"duration":0.13636350000000164,"midi":33,"time":69.818112,"velocity":0.5905511811023622},{"duration":0.13636350000000164,"midi":49,"time":69.818112,"velocity":0.5905511811023622},{"duration":0.13636350000000164,"midi":33,"time":69.818112,"velocity":0.5905511811023622},{"duration":0.13636350000000164,"midi":49,"time":69.818112,"velocity":0.5905511811023622},{"duration":0.13636350000000164,"midi":49,"time":69.818112,"velocity":0.5905511811023622},{"duration":0.13636350000000164,"midi":49,"time":69.818112,"velocity":0.5905511811023622},{"duration":0.13636350000000164,"midi":49,"time":69.818112,"velocity":0.5905511811023622},{"duration":0.13636350000000164,"midi":33,"time":69.818112,"velocity":0.5905511811023622},{"duration":0.13636350000000164,"midi":27,"time":69.818112,"velocity":0.5905511811023622},{"duration":0.13636350000000164,"midi":49,"time":69.818112,"velocity":0.5905511811023622},{"duration":0.13636350000000164,"midi":31,"time":69.9544755,"velocity":0.5905511811023622},{"duration":0.13636350000000164,"midi":33,"time":69.9544755,"velocity":0.5905511811023622},{"duration":0.13636350000000164,"midi":33,"time":69.9544755,"velocity":0.5905511811023622},{"duration":0.13636350000000164,"midi":33,"time":69.9544755,"velocity":0.5905511811023622},{"duration":0.13636350000000164,"midi":33,"time":70.090839,"velocity":0.5905511811023622},{"duration":0.13636350000000164,"midi":33,"time":70.090839,"velocity":0.5905511811023622},{"duration":0.13636350000000164,"midi":27,"time":70.090839,"velocity":0.5905511811023622},{"duration":0.13636350000000164,"midi":31,"time":70.090839,"velocity":0.5905511811023622},{"duration":0.13636350000000164,"midi":33,"time":70.090839,"velocity":0.5905511811023622},{"duration":0.13636350000000164,"midi":33,"time":70.2272025,"velocity":0.5905511811023622},{"duration":0.13636350000000164,"midi":33,"time":70.2272025,"velocity":0.5905511811023622},{"duration":0.13636350000000164,"midi":33,"time":70.2272025,"velocity":0.5905511811023622},{"duration":0.13636350000000164,"midi":31,"time":70.2272025,"velocity":0.5905511811023622},{"duration":0.13636349999998743,"midi":33,"time":70.363566,"velocity":0.5905511811023622},{"duration":0.13636349999998743,"midi":33,"time":70.363566,"velocity":0.5905511811023622},{"duration":0.13636349999998743,"midi":33,"time":70.363566,"velocity":0.5905511811023622},{"duration":0.13636349999998743,"midi":31,"time":70.363566,"velocity":0.5905511811023622},{"duration":0.13636350000000164,"midi":33,"time":70.4999295,"velocity":0.5905511811023622},{"duration":0.13636350000000164,"midi":33,"time":70.4999295,"velocity":0.5905511811023622},{"duration":0.13636350000000164,"midi":33,"time":70.4999295,"velocity":0.5905511811023622},{"duration":0.13636350000000164,"midi":27,"time":70.4999295,"velocity":0.5905511811023622},{"duration":0.13636350000000164,"midi":31,"time":70.4999295,"velocity":0.5905511811023622},{"duration":0.13636350000000164,"midi":33,"time":70.636293,"velocity":0.5905511811023622},{"duration":0.13636350000000164,"midi":31,"time":70.636293,"velocity":0.5905511811023622},{"duration":0.13636350000000164,"midi":33,"time":70.636293,"velocity":0.5905511811023622},{"duration":0.13636350000000164,"midi":33,"time":70.636293,"velocity":0.5905511811023622},{"duration":0.13636350000000164,"midi":33,"time":70.7726565,"velocity":0.5905511811023622},{"duration":0.13636350000000164,"midi":33,"time":70.7726565,"velocity":0.5905511811023622},{"duration":0.13636350000000164,"midi":33,"time":70.7726565,"velocity":0.5905511811023622},{"duration":0.13636350000000164,"midi":31,"time":70.7726565,"velocity":0.5905511811023622},{"duration":0.13636350000000164,"midi":33,"time":70.90902,"velocity":0.5905511811023622},{"duration":0.13636350000000164,"midi":33,"time":70.90902,"velocity":0.5905511811023622},{"duration":0.13636350000000164,"midi":33,"time":70.90902,"velocity":0.5905511811023622},{"duration":0.13636350000000164,"midi":31,"time":70.90902,"velocity":0.5905511811023622},{"duration":0.13636350000000164,"midi":27,"time":70.90902,"velocity":0.5905511811023622},{"duration":0.13636350000000164,"midi":33,"time":71.0453835,"velocity":0.5905511811023622},{"duration":0.13636350000000164,"midi":33,"time":71.0453835,"velocity":0.5905511811023622},{"duration":0.13636350000000164,"midi":31,"time":71.0453835,"velocity":0.5905511811023622},{"duration":0.13636350000000164,"midi":33,"time":71.0453835,"velocity":0.5905511811023622},{"duration":0.13636350000000164,"midi":31,"time":71.181747,"velocity":0.5905511811023622},{"duration":0.13636350000000164,"midi":27,"time":71.181747,"velocity":0.5905511811023622},{"duration":0.13636350000000164,"midi":33,"time":71.181747,"velocity":0.5905511811023622},{"duration":0.13636350000000164,"midi":33,"time":71.181747,"velocity":0.5905511811023622},{"duration":0.13636350000000164,"midi":33,"time":71.181747,"velocity":0.5905511811023622},{"duration":0.13636350000000164,"midi":33,"time":71.3181105,"velocity":0.5905511811023622},{"duration":0.13636350000000164,"midi":33,"time":71.3181105,"velocity":0.5905511811023622},{"duration":0.13636350000000164,"midi":27,"time":71.3181105,"velocity":0.5905511811023622},{"duration":0.13636350000000164,"midi":33,"time":71.3181105,"velocity":0.5905511811023622},{"duration":0.13636350000000164,"midi":31,"time":71.3181105,"velocity":0.5905511811023622},{"duration":0.13636350000000164,"midi":33,"time":71.454474,"velocity":0.5905511811023622},{"duration":0.13636350000000164,"midi":33,"time":71.454474,"velocity":0.5905511811023622},{"duration":0.13636350000000164,"midi":31,"time":71.454474,"velocity":0.5905511811023622},{"duration":0.13636350000000164,"midi":33,"time":71.454474,"velocity":0.5905511811023622},{"duration":0.13636349999998743,"midi":31,"time":71.5908375,"velocity":0.5905511811023622},{"duration":0.13636349999998743,"midi":33,"time":71.5908375,"velocity":0.5905511811023622},{"duration":0.13636349999998743,"midi":33,"time":71.5908375,"velocity":0.5905511811023622},{"duration":0.13636349999998743,"midi":33,"time":71.5908375,"velocity":0.5905511811023622},{"duration":0.13636349999998743,"midi":27,"time":71.5908375,"velocity":0.5905511811023622},{"duration":0.13636350000000164,"midi":33,"time":71.727201,"velocity":0.5905511811023622},{"duration":0.13636350000000164,"midi":27,"time":71.727201,"velocity":0.5905511811023622},{"duration":0.13636350000000164,"midi":33,"time":71.727201,"velocity":0.5905511811023622},{"duration":0.13636350000000164,"midi":31,"time":71.727201,"velocity":0.5905511811023622},{"duration":0.13636350000000164,"midi":33,"time":71.727201,"velocity":0.5905511811023622},{"duration":0.13636350000000164,"midi":33,"time":71.8635645,"velocity":0.5905511811023622},{"duration":0.13636350000000164,"midi":31,"time":71.8635645,"velocity":0.5905511811023622},{"duration":0.13636350000000164,"midi":33,"time":71.8635645,"velocity":0.5905511811023622},{"duration":0.13636350000000164,"midi":27,"time":71.8635645,"velocity":0.5905511811023622},{"duration":0.13636350000000164,"midi":33,"time":71.8635645,"velocity":0.5905511811023622},{"duration":0.13636350000000164,"midi":27,"time":71.999928,"velocity":0.5905511811023622},{"duration":0.13636350000000164,"midi":33,"time":71.999928,"velocity":0.5905511811023622},{"duration":0.13636350000000164,"midi":31,"time":71.999928,"velocity":0.5905511811023622},{"duration":0.13636350000000164,"midi":33,"time":71.999928,"velocity":0.5905511811023622},{"duration":0.13636350000000164,"midi":33,"time":71.999928,"velocity":0.5905511811023622},{"duration":0.13636350000000164,"midi":33,"time":72.1362915,"velocity":0.5905511811023622},{"duration":0.13636350000000164,"midi":31,"time":72.1362915,"velocity":0.5905511811023622},{"duration":0.13636350000000164,"midi":33,"time":72.1362915,"velocity":0.5905511811023622},{"duration":0.13636350000000164,"midi":33,"time":72.1362915,"velocity":0.5905511811023622},{"duration":0.13636350000000164,"midi":31,"time":72.272655,"velocity":0.5905511811023622},{"duration":0.13636350000000164,"midi":33,"time":72.272655,"velocity":0.5905511811023622},{"duration":0.13636350000000164,"midi":33,"time":72.272655,"velocity":0.5905511811023622},{"duration":0.13636350000000164,"midi":33,"time":72.272655,"velocity":0.5905511811023622},{"duration":0.13636350000000164,"midi":27,"time":72.272655,"velocity":0.5905511811023622},{"duration":0.13636350000000164,"midi":31,"time":72.4090185,"velocity":0.5905511811023622},{"duration":0.13636350000000164,"midi":33,"time":72.4090185,"velocity":0.5905511811023622},{"duration":0.13636350000000164,"midi":33,"time":72.4090185,"velocity":0.5905511811023622},{"duration":0.13636350000000164,"midi":33,"time":72.4090185,"velocity":0.5905511811023622},{"duration":0.13636350000000164,"midi":33,"time":72.545382,"velocity":0.5905511811023622},{"duration":0.13636350000000164,"midi":31,"time":72.545382,"velocity":0.5905511811023622},{"duration":0.13636350000000164,"midi":33,"time":72.545382,"velocity":0.5905511811023622},{"duration":0.13636350000000164,"midi":33,"time":72.545382,"velocity":0.5905511811023622},{"duration":0.13636349999998743,"midi":31,"time":72.6817455,"velocity":0.5905511811023622},{"duration":0.13636349999998743,"midi":27,"time":72.6817455,"velocity":0.5905511811023622},{"duration":0.13636349999998743,"midi":33,"time":72.6817455,"velocity":0.5905511811023622},{"duration":0.13636349999998743,"midi":33,"time":72.6817455,"velocity":0.5905511811023622},{"duration":0.13636349999998743,"midi":33,"time":72.6817455,"velocity":0.5905511811023622},{"duration":0.13636350000000164,"midi":33,"time":72.81810899999999,"velocity":0.5905511811023622},{"duration":0.13636350000000164,"midi":31,"time":72.81810899999999,"velocity":0.5905511811023622},{"duration":0.13636350000000164,"midi":33,"time":72.81810899999999,"velocity":0.5905511811023622},{"duration":0.13636350000000164,"midi":33,"time":72.81810899999999,"velocity":0.5905511811023622},{"duration":0.13636350000000164,"midi":33,"time":72.9544725,"velocity":0.5905511811023622},{"duration":0.13636350000000164,"midi":33,"time":72.9544725,"velocity":0.5905511811023622},{"duration":0.13636350000000164,"midi":31,"time":72.9544725,"velocity":0.5905511811023622},{"duration":0.13636350000000164,"midi":33,"time":72.9544725,"velocity":0.5905511811023622},{"duration":0.06818175000000792,"midi":33,"time":73.090836,"velocity":0.5905511811023622},{"duration":0.13636350000000164,"midi":31,"time":73.090836,"velocity":0.5905511811023622},{"duration":0.13636350000000164,"midi":27,"time":73.090836,"velocity":0.5905511811023622},{"duration":0.06818175000000792,"midi":33,"time":73.090836,"velocity":0.5905511811023622},{"duration":0.06818175000000792,"midi":33,"time":73.090836,"velocity":0.5905511811023622},{"duration":0.06818174999999371,"midi":33,"time":73.15901775,"velocity":0.5905511811023622},{"duration":0.06818174999999371,"midi":33,"time":73.15901775,"velocity":0.5905511811023622},{"duration":0.06818174999999371,"midi":33,"time":73.15901775,"velocity":0.5905511811023622},{"duration":0.06818175000000792,"midi":33,"time":73.2271995,"velocity":0.5905511811023622},{"duration":0.06818175000000792,"midi":33,"time":73.2271995,"velocity":0.5905511811023622},{"duration":0.06818175000000792,"midi":33,"time":73.2271995,"velocity":0.5905511811023622},{"duration":0.13636350000000164,"midi":31,"time":73.2271995,"velocity":0.5905511811023622},{"duration":0.06818174999999371,"midi":33,"time":73.29538125,"velocity":0.5905511811023622},{"duration":0.06818174999999371,"midi":33,"time":73.29538125,"velocity":0.5905511811023622},{"duration":0.06818174999999371,"midi":33,"time":73.29538125,"velocity":0.5905511811023622},{"duration":0.13636350000000164,"midi":31,"time":73.363563,"velocity":0.5905511811023622},{"duration":0.13636350000000164,"midi":33,"time":73.363563,"velocity":0.5905511811023622},{"duration":0.13636350000000164,"midi":33,"time":73.363563,"velocity":0.5905511811023622},{"duration":0.13636350000000164,"midi":33,"time":73.363563,"velocity":0.5905511811023622},{"duration":0.06818174999999371,"midi":33,"time":73.4999265,"velocity":0.5905511811023622},{"duration":0.13636350000000164,"midi":27,"time":73.4999265,"velocity":0.5905511811023622},{"duration":0.06818174999999371,"midi":33,"time":73.4999265,"velocity":0.5905511811023622},{"duration":0.13636350000000164,"midi":31,"time":73.4999265,"velocity":0.5905511811023622},{"duration":0.06818174999999371,"midi":33,"time":73.4999265,"velocity":0.5905511811023622},{"duration":0.06818175000000792,"midi":33,"time":73.56810825,"velocity":0.5905511811023622},{"duration":0.06818175000000792,"midi":33,"time":73.56810825,"velocity":0.5905511811023622},{"duration":0.06818175000000792,"midi":33,"time":73.56810825,"velocity":0.5905511811023622},{"duration":0.13636350000000164,"midi":31,"time":73.63629,"velocity":0.5905511811023622},{"duration":0.06818174999999371,"midi":33,"time":73.63629,"velocity":0.5905511811023622},{"duration":0.06818174999999371,"midi":33,"time":73.63629,"velocity":0.5905511811023622},{"duration":0.06818174999999371,"midi":33,"time":73.63629,"velocity":0.5905511811023622},{"duration":0.06818175000000792,"midi":33,"time":73.70447175,"velocity":0.5905511811023622},{"duration":0.06818175000000792,"midi":33,"time":73.70447175,"velocity":0.5905511811023622},{"duration":0.06818175000000792,"midi":33,"time":73.70447175,"velocity":0.5905511811023622},{"duration":0.13636350000000164,"midi":33,"time":73.7726535,"velocity":0.5905511811023622},{"duration":0.13636350000000164,"midi":33,"time":73.7726535,"velocity":0.5905511811023622},{"duration":0.13636350000000164,"midi":33,"time":73.7726535,"velocity":0.5905511811023622},{"duration":0.13636350000000164,"midi":31,"time":73.7726535,"velocity":0.5905511811023622},{"duration":0.13636349999998743,"midi":31,"time":73.909017,"velocity":0.5905511811023622},{"duration":0.06818174999999371,"midi":33,"time":73.909017,"velocity":0.5905511811023622},{"duration":0.06818174999999371,"midi":33,"time":73.909017,"velocity":0.5905511811023622},{"duration":0.13636349999998743,"midi":27,"time":73.909017,"velocity":0.5905511811023622},{"duration":0.06818174999999371,"midi":33,"time":73.909017,"velocity":0.5905511811023622},{"duration":0.06818174999999371,"midi":33,"time":73.97719875,"velocity":0.5905511811023622},{"duration":0.06818174999999371,"midi":33,"time":73.97719875,"velocity":0.5905511811023622},{"duration":0.06818174999999371,"midi":33,"time":73.97719875,"velocity":0.5905511811023622},{"duration":0.13636350000000164,"midi":31,"time":74.0453805,"velocity":0.5905511811023622},{"duration":0.13636350000000164,"midi":33,"time":74.0453805,"velocity":0.5905511811023622},{"duration":0.13636350000000164,"midi":33,"time":74.0453805,"velocity":0.5905511811023622},{"duration":0.13636350000000164,"midi":33,"time":74.0453805,"velocity":0.5905511811023622},{"duration":0.13636350000000164,"midi":33,"time":74.181744,"velocity":0.5905511811023622},{"duration":0.13636350000000164,"midi":33,"time":74.181744,"velocity":0.5905511811023622},{"duration":0.13636350000000164,"midi":31,"time":74.181744,"velocity":0.5905511811023622},{"duration":0.13636350000000164,"midi":33,"time":74.181744,"velocity":0.5905511811023622},{"duration":0.13636350000000164,"midi":27,"time":74.181744,"velocity":0.5905511811023622},{"duration":0.13636350000000164,"midi":33,"time":74.3181075,"velocity":0.5905511811023622},{"duration":0.13636350000000164,"midi":31,"time":74.3181075,"velocity":0.5905511811023622},{"duration":0.13636350000000164,"midi":33,"time":74.3181075,"velocity":0.5905511811023622},{"duration":0.13636350000000164,"midi":33,"time":74.3181075,"velocity":0.5905511811023622},{"duration":0.13636350000000164,"midi":33,"time":74.454471,"velocity":0.5905511811023622},{"duration":0.13636350000000164,"midi":27,"time":74.454471,"velocity":0.5905511811023622},{"duration":0.13636350000000164,"midi":33,"time":74.454471,"velocity":0.5905511811023622},{"duration":0.13636350000000164,"midi":33,"time":74.454471,"velocity":0.5905511811023622},{"duration":0.13636350000000164,"midi":31,"time":74.454471,"velocity":0.5905511811023622},{"duration":0.13636350000000164,"midi":31,"time":74.5908345,"velocity":0.5905511811023622},{"duration":0.13636350000000164,"midi":33,"time":74.5908345,"velocity":0.5905511811023622},{"duration":0.13636350000000164,"midi":33,"time":74.5908345,"velocity":0.5905511811023622},{"duration":0.13636350000000164,"midi":33,"time":74.5908345,"velocity":0.5905511811023622},{"duration":0.06818174999999371,"midi":33,"time":74.727198,"velocity":0.5905511811023622},{"duration":0.06818174999999371,"midi":33,"time":74.727198,"velocity":0.5905511811023622},{"duration":0.13636350000000164,"midi":31,"time":74.727198,"velocity":0.5905511811023622},{"duration":0.06818174999999371,"midi":33,"time":74.727198,"velocity":0.5905511811023622},{"duration":0.06818175000000792,"midi":33,"time":74.79537975,"velocity":0.5905511811023622},{"duration":0.06818175000000792,"midi":33,"time":74.79537975,"velocity":0.5905511811023622},{"duration":0.06818175000000792,"midi":33,"time":74.79537975,"velocity":0.5905511811023622},{"duration":0.06818174999999371,"midi":33,"time":74.8635615,"velocity":0.5905511811023622},{"duration":0.06818174999999371,"midi":33,"time":74.8635615,"velocity":0.5905511811023622},{"duration":0.13636350000000164,"midi":31,"time":74.8635615,"velocity":0.5905511811023622},{"duration":0.13636350000000164,"midi":27,"time":74.8635615,"velocity":0.5905511811023622},{"duration":0.06818174999999371,"midi":33,"time":74.8635615,"velocity":0.5905511811023622},{"duration":0.06818175000000792,"midi":33,"time":74.93174325,"velocity":0.5905511811023622},{"duration":0.06818175000000792,"midi":33,"time":74.93174325,"velocity":0.5905511811023622},{"duration":0.06818175000000792,"midi":33,"time":74.93174325,"velocity":0.5905511811023622},{"duration":0.13636350000000164,"midi":33,"time":74.999925,"velocity":0.5905511811023622},{"duration":0.13636350000000164,"midi":33,"time":74.999925,"velocity":0.5905511811023622},{"duration":0.13636350000000164,"midi":31,"time":74.999925,"velocity":0.5905511811023622},{"duration":0.13636350000000164,"midi":33,"time":74.999925,"velocity":0.5905511811023622},{"duration":0.13636349999998743,"midi":31,"time":75.1362885,"velocity":0.5905511811023622},{"duration":0.13636349999998743,"midi":33,"time":75.1362885,"velocity":0.5905511811023622},{"duration":0.13636349999998743,"midi":33,"time":75.1362885,"velocity":0.5905511811023622},{"duration":0.13636349999998743,"midi":33,"time":75.1362885,"velocity":0.5905511811023622},{"duration":0.13636350000000164,"midi":33,"time":75.272652,"velocity":0.5905511811023622},{"duration":0.13636350000000164,"midi":27,"time":75.272652,"velocity":0.5905511811023622},{"duration":0.13636350000000164,"midi":33,"time":75.272652,"velocity":0.5905511811023622},{"duration":0.13636350000000164,"midi":31,"time":75.272652,"velocity":0.5905511811023622},{"duration":0.13636350000000164,"midi":33,"time":75.272652,"velocity":0.5905511811023622},{"duration":0.13636350000000164,"midi":33,"time":75.4090155,"velocity":0.5905511811023622},{"duration":0.13636350000000164,"midi":33,"time":75.4090155,"velocity":0.5905511811023622},{"duration":0.13636350000000164,"midi":33,"time":75.4090155,"velocity":0.5905511811023622},{"duration":0.13636350000000164,"midi":31,"time":75.4090155,"velocity":0.5905511811023622},{"duration":0.06818175000000792,"midi":33,"time":75.545379,"velocity":0.5905511811023622},{"duration":0.06818175000000792,"midi":33,"time":75.545379,"velocity":0.5905511811023622},{"duration":0.06818175000000792,"midi":33,"time":75.545379,"velocity":0.5905511811023622},{"duration":0.13636350000000164,"midi":31,"time":75.545379,"velocity":0.5905511811023622},{"duration":0.13636350000000164,"midi":27,"time":75.545379,"velocity":0.5905511811023622},{"duration":0.06818174999999371,"midi":33,"time":75.61356075,"velocity":0.5905511811023622},{"duration":0.06818174999999371,"midi":33,"time":75.61356075,"velocity":0.5905511811023622},{"duration":0.06818174999999371,"midi":33,"time":75.61356075,"velocity":0.5905511811023622},{"duration":0.13636350000000164,"midi":31,"time":75.6817425,"velocity":0.5905511811023622},{"duration":0.13636350000000164,"midi":33,"time":75.6817425,"velocity":0.5905511811023622},{"duration":0.13636350000000164,"midi":33,"time":75.6817425,"velocity":0.5905511811023622},{"duration":0.13636350000000164,"midi":33,"time":75.6817425,"velocity":0.5905511811023622},{"duration":0.13636350000000164,"midi":27,"time":75.6817425,"velocity":0.5905511811023622},{"duration":0.13636350000000164,"midi":31,"time":75.818106,"velocity":0.5905511811023622},{"duration":0.13636350000000164,"midi":33,"time":75.818106,"velocity":0.5905511811023622},{"duration":0.13636350000000164,"midi":33,"time":75.818106,"velocity":0.5905511811023622},{"duration":0.13636350000000164,"midi":33,"time":75.818106,"velocity":0.5905511811023622},{"duration":0.13636350000000164,"midi":33,"time":75.9544695,"velocity":0.5905511811023622},{"duration":0.13636350000000164,"midi":31,"time":75.9544695,"velocity":0.5905511811023622},{"duration":0.13636350000000164,"midi":33,"time":75.9544695,"velocity":0.5905511811023622},{"duration":0.13636350000000164,"midi":27,"time":75.9544695,"velocity":0.5905511811023622},{"duration":0.13636350000000164,"midi":33,"time":75.9544695,"velocity":0.5905511811023622},{"duration":0.13636350000000164,"midi":33,"time":76.090833,"velocity":0.5905511811023622},{"duration":0.13636350000000164,"midi":33,"time":76.090833,"velocity":0.5905511811023622},{"duration":0.13636350000000164,"midi":33,"time":76.090833,"velocity":0.5905511811023622},{"duration":0.13636350000000164,"midi":31,"time":76.090833,"velocity":0.5905511811023622},{"duration":0.13636350000000164,"midi":27,"time":76.090833,"velocity":0.5905511811023622},{"duration":0.13636349999998743,"midi":31,"time":76.2271965,"velocity":0.5905511811023622},{"duration":0.13636349999998743,"midi":33,"time":76.2271965,"velocity":0.5905511811023622},{"duration":0.13636349999998743,"midi":27,"time":76.2271965,"velocity":0.5905511811023622},{"duration":0.13636349999998743,"midi":33,"time":76.2271965,"velocity":0.5905511811023622},{"duration":0.13636349999998743,"midi":33,"time":76.2271965,"velocity":0.5905511811023622},{"duration":0.13636350000000164,"midi":33,"time":76.36355999999999,"velocity":0.5905511811023622},{"duration":0.13636350000000164,"midi":33,"time":76.36355999999999,"velocity":0.5905511811023622},{"duration":0.13636350000000164,"midi":31,"time":76.36355999999999,"velocity":0.5905511811023622},{"duration":0.13636350000000164,"midi":27,"time":76.36355999999999,"velocity":0.5905511811023622},{"duration":0.13636350000000164,"midi":33,"time":76.36355999999999,"velocity":0.5905511811023622},{"duration":0.13636350000000164,"midi":31,"time":76.4999235,"velocity":0.5905511811023622},{"duration":0.13636350000000164,"midi":33,"time":76.4999235,"velocity":0.5905511811023622},{"duration":0.13636350000000164,"midi":33,"time":76.4999235,"velocity":0.5905511811023622},{"duration":0.13636350000000164,"midi":33,"time":76.4999235,"velocity":0.5905511811023622},{"duration":0.13636350000000164,"midi":31,"time":76.636287,"velocity":0.5905511811023622},{"duration":0.13636350000000164,"midi":27,"time":76.636287,"velocity":0.5905511811023622},{"duration":0.13636350000000164,"midi":33,"time":76.636287,"velocity":0.5905511811023622},{"duration":0.13636350000000164,"midi":33,"time":76.636287,"velocity":0.5905511811023622},{"duration":0.13636350000000164,"midi":33,"time":76.636287,"velocity":0.5905511811023622},{"duration":0.13636350000000164,"midi":33,"time":76.7726505,"velocity":0.5905511811023622},{"duration":0.13636350000000164,"midi":31,"time":76.7726505,"velocity":0.5905511811023622},{"duration":0.13636350000000164,"midi":33,"time":76.7726505,"velocity":0.5905511811023622},{"duration":0.13636350000000164,"midi":33,"time":76.7726505,"velocity":0.5905511811023622},{"duration":0.13636350000000164,"midi":33,"time":76.909014,"velocity":0.5905511811023622},{"duration":0.13636350000000164,"midi":31,"time":76.909014,"velocity":0.5905511811023622},{"duration":0.13636350000000164,"midi":33,"time":76.909014,"velocity":0.5905511811023622},{"duration":0.13636350000000164,"midi":33,"time":76.909014,"velocity":0.5905511811023622},{"duration":0.13636350000000164,"midi":27,"time":77.0453775,"velocity":0.5905511811023622},{"duration":0.13636350000000164,"midi":31,"time":77.0453775,"velocity":0.5905511811023622},{"duration":0.13636350000000164,"midi":33,"time":77.0453775,"velocity":0.5905511811023622},{"duration":0.13636350000000164,"midi":33,"time":77.0453775,"velocity":0.5905511811023622},{"duration":0.13636350000000164,"midi":33,"time":77.0453775,"velocity":0.5905511811023622},{"duration":0.13636350000000164,"midi":33,"time":77.181741,"velocity":0.5905511811023622},{"duration":0.13636350000000164,"midi":33,"time":77.181741,"velocity":0.5905511811023622},{"duration":0.13636350000000164,"midi":33,"time":77.181741,"velocity":0.5905511811023622},{"duration":0.13636350000000164,"midi":31,"time":77.181741,"velocity":0.5905511811023622},{"duration":0.13636350000000164,"midi":31,"time":77.3181045,"velocity":0.5905511811023622},{"duration":0.13636350000000164,"midi":33,"time":77.3181045,"velocity":0.5905511811023622},{"duration":0.13636350000000164,"midi":33,"time":77.3181045,"velocity":0.5905511811023622},{"duration":0.13636350000000164,"midi":33,"time":77.3181045,"velocity":0.5905511811023622},{"duration":0.13636349999998743,"midi":27,"time":77.454468,"velocity":0.5905511811023622},{"duration":0.13636349999998743,"midi":31,"time":77.454468,"velocity":0.5905511811023622},{"duration":0.13636349999998743,"midi":33,"time":77.454468,"velocity":0.5905511811023622},{"duration":0.13636349999998743,"midi":33,"time":77.454468,"velocity":0.5905511811023622},{"duration":0.13636349999998743,"midi":33,"time":77.454468,"velocity":0.5905511811023622},{"duration":0.13636350000000164,"midi":33,"time":77.5908315,"velocity":0.5905511811023622},{"duration":0.13636350000000164,"midi":33,"time":77.5908315,"velocity":0.5905511811023622},{"duration":0.13636350000000164,"midi":31,"time":77.5908315,"velocity":0.5905511811023622},{"duration":0.13636350000000164,"midi":27,"time":77.5908315,"velocity":0.5905511811023622},{"duration":0.13636350000000164,"midi":33,"time":77.5908315,"velocity":0.5905511811023622},{"duration":0.06818175000000792,"midi":33,"time":77.727195,"velocity":0.5905511811023622},{"duration":0.06818175000000792,"midi":33,"time":77.727195,"velocity":0.5905511811023622},{"duration":0.13636350000000164,"midi":31,"time":77.727195,"velocity":0.5905511811023622},{"duration":0.06818175000000792,"midi":33,"time":77.727195,"velocity":0.5905511811023622},{"duration":0.06818174999999371,"midi":33,"time":77.79537675,"velocity":0.5905511811023622},{"duration":0.06818174999999371,"midi":33,"time":77.79537675,"velocity":0.5905511811023622},{"duration":0.06818174999999371,"midi":33,"time":77.79537675,"velocity":0.5905511811023622},{"duration":0.06818175000000792,"midi":33,"time":77.8635585,"velocity":0.5905511811023622},{"duration":0.06818175000000792,"midi":33,"time":77.8635585,"velocity":0.5905511811023622},{"duration":0.06818175000000792,"midi":33,"time":77.8635585,"velocity":0.5905511811023622},{"duration":0.13636350000000164,"midi":27,"time":77.8635585,"velocity":0.5905511811023622},{"duration":0.13636350000000164,"midi":31,"time":77.8635585,"velocity":0.5905511811023622},{"duration":0.06818174999999371,"midi":33,"time":77.93174025,"velocity":0.5905511811023622},{"duration":0.06818174999999371,"midi":33,"time":77.93174025,"velocity":0.5905511811023622},{"duration":0.06818174999999371,"midi":33,"time":77.93174025,"velocity":0.5905511811023622},{"duration":0.06818175000000792,"midi":33,"time":77.999922,"velocity":0.5905511811023622},{"duration":0.06818175000000792,"midi":33,"time":77.999922,"velocity":0.5905511811023622},{"duration":0.06818175000000792,"midi":33,"time":77.999922,"velocity":0.5905511811023622},{"duration":0.13636350000000164,"midi":31,"time":77.999922,"velocity":0.5905511811023622},{"duration":0.06818174999999371,"midi":33,"time":78.06810375,"velocity":0.5905511811023622},{"duration":0.06818174999999371,"midi":33,"time":78.06810375,"velocity":0.5905511811023622},{"duration":0.06818174999999371,"midi":33,"time":78.06810375,"velocity":0.5905511811023622},{"duration":0.13636350000000164,"midi":31,"time":78.1362855,"velocity":0.5905511811023622},{"duration":0.13636350000000164,"midi":33,"time":78.1362855,"velocity":0.5905511811023622},{"duration":0.13636350000000164,"midi":27,"time":78.1362855,"velocity":0.5905511811023622},{"duration":0.13636350000000164,"midi":33,"time":78.1362855,"velocity":0.5905511811023622},{"duration":0.13636350000000164,"midi":33,"time":78.1362855,"velocity":0.5905511811023622},{"duration":0.13636350000000164,"midi":31,"time":78.272649,"velocity":0.5905511811023622},{"duration":0.06818174999999371,"midi":35,"time":78.272649,"velocity":0.5905511811023622},{"duration":0.13636350000000164,"midi":33,"time":78.272649,"velocity":0.5905511811023622},{"duration":0.06818174999999371,"midi":35,"time":78.272649,"velocity":0.5905511811023622},{"duration":0.13636350000000164,"midi":33,"time":78.272649,"velocity":0.5905511811023622},{"duration":0.13636350000000164,"midi":33,"time":78.272649,"velocity":0.5905511811023622},{"duration":0.06818175000000792,"midi":35,"time":78.34083075,"velocity":0.5905511811023622},{"duration":0.06818175000000792,"midi":35,"time":78.34083075,"velocity":0.5905511811023622},{"duration":0.06818174999999371,"midi":35,"time":78.4090125,"velocity":0.5905511811023622},{"duration":0.13636350000000164,"midi":31,"time":78.4090125,"velocity":0.5905511811023622},{"duration":0.13636350000000164,"midi":27,"time":78.4090125,"velocity":0.5905511811023622},{"duration":0.13636350000000164,"midi":33,"time":78.4090125,"velocity":0.5905511811023622},{"duration":0.13636350000000164,"midi":33,"time":78.4090125,"velocity":0.5905511811023622},{"duration":0.13636350000000164,"midi":33,"time":78.4090125,"velocity":0.5905511811023622},{"duration":0.06818174999999371,"midi":35,"time":78.4090125,"velocity":0.5905511811023622},{"duration":0.06818175000000792,"midi":35,"time":78.47719425,"velocity":0.5905511811023622},{"duration":0.06818175000000792,"midi":35,"time":78.47719425,"velocity":0.5905511811023622},{"duration":0.06818174999999371,"midi":38,"time":78.545376,"velocity":0.5905511811023622},{"duration":0.06818174999999371,"midi":36,"time":78.545376,"velocity":0.5905511811023622},{"duration":0.06818174999999371,"midi":38,"time":78.545376,"velocity":0.5905511811023622},{"duration":0.13636350000000164,"midi":27,"time":78.545376,"velocity":0.5905511811023622},{"duration":0.06818174999999371,"midi":36,"time":78.545376,"velocity":0.5905511811023622},{"duration":0.06818174999999371,"midi":36,"time":78.545376,"velocity":0.5905511811023622},{"duration":0.13636350000000164,"midi":31,"time":78.545376,"velocity":0.5905511811023622},{"duration":0.13636350000000164,"midi":33,"time":78.545376,"velocity":0.5905511811023622},{"duration":0.06818174999999371,"midi":36,"time":78.545376,"velocity":0.5905511811023622},{"duration":0.13636350000000164,"midi":33,"time":78.545376,"velocity":0.5905511811023622},{"duration":0.06818174999999371,"midi":49,"time":78.545376,"velocity":0.5905511811023622},{"duration":0.13636350000000164,"midi":33,"time":78.545376,"velocity":0.5905511811023622},{"duration":0.06818174999999371,"midi":38,"time":78.545376,"velocity":0.5905511811023622},{"duration":0.06818174999999371,"midi":49,"time":78.545376,"velocity":0.5905511811023622},{"duration":0.06818174999999371,"midi":49,"time":78.545376,"velocity":0.5905511811023622},{"duration":0.06818174999999371,"midi":38,"time":78.545376,"velocity":0.5905511811023622},{"duration":0.06818174999999371,"midi":49,"time":78.545376,"velocity":0.5905511811023622},{"duration":0.13636349999998743,"midi":33,"time":78.6817395,"velocity":0.5905511811023622},{"duration":0.13636349999998743,"midi":33,"time":78.6817395,"velocity":0.5905511811023622},{"duration":0.13636349999998743,"midi":33,"time":78.6817395,"velocity":0.5905511811023622},{"duration":0.13636349999998743,"midi":31,"time":78.6817395,"velocity":0.5905511811023622},{"duration":0.06818175000000792,"midi":38,"time":78.818103,"velocity":0.5905511811023622},{"duration":0.06818175000000792,"midi":49,"time":78.818103,"velocity":0.5905511811023622},{"duration":0.13636350000000164,"midi":33,"time":78.818103,"velocity":0.5905511811023622},{"duration":0.06818175000000792,"midi":38,"time":78.818103,"velocity":0.5905511811023622},{"duration":0.06818175000000792,"midi":49,"time":78.818103,"velocity":0.5905511811023622},{"duration":0.13636350000000164,"midi":33,"time":78.818103,"velocity":0.5905511811023622},{"duration":0.06818175000000792,"midi":38,"time":78.818103,"velocity":0.5905511811023622},{"duration":0.13636350000000164,"midi":33,"time":78.818103,"velocity":0.5905511811023622},{"duration":0.13636350000000164,"midi":31,"time":78.818103,"velocity":0.5905511811023622},{"duration":0.06818175000000792,"midi":36,"time":78.818103,"velocity":0.5905511811023622},{"duration":0.06818175000000792,"midi":36,"time":78.818103,"velocity":0.5905511811023622},{"duration":0.06818175000000792,"midi":38,"time":78.818103,"velocity":0.5905511811023622},{"duration":0.06818175000000792,"midi":49,"time":78.818103,"velocity":0.5905511811023622},{"duration":0.06818175000000792,"midi":36,"time":78.818103,"velocity":0.5905511811023622},{"duration":0.06818175000000792,"midi":49,"time":78.818103,"velocity":0.5905511811023622},{"duration":0.06818175000000792,"midi":36,"time":78.818103,"velocity":0.5905511811023622},{"duration":0.13636350000000164,"midi":27,"time":78.818103,"velocity":0.5905511811023622},{"duration":0.13636350000000164,"midi":33,"time":78.9544665,"velocity":0.5905511811023622},{"duration":0.13636350000000164,"midi":31,"time":78.9544665,"velocity":0.5905511811023622},{"duration":0.13636350000000164,"midi":33,"time":78.9544665,"velocity":0.5905511811023622},{"duration":0.13636350000000164,"midi":33,"time":78.9544665,"velocity":0.5905511811023622},{"duration":0.13636350000000164,"midi":33,"time":79.09083,"velocity":0.5905511811023622},{"duration":0.13636350000000164,"midi":31,"time":79.09083,"velocity":0.5905511811023622},{"duration":0.13636350000000164,"midi":33,"time":79.09083,"velocity":0.5905511811023622},{"duration":0.13636350000000164,"midi":33,"time":79.09083,"velocity":0.5905511811023622},{"duration":0.13636350000000164,"midi":33,"time":79.2271935,"velocity":0.5905511811023622},{"duration":0.13636350000000164,"midi":27,"time":79.2271935,"velocity":0.5905511811023622},{"duration":0.13636350000000164,"midi":33,"time":79.2271935,"velocity":0.5905511811023622},{"duration":0.13636350000000164,"midi":33,"time":79.2271935,"velocity":0.5905511811023622},{"duration":0.13636350000000164,"midi":31,"time":79.2271935,"velocity":0.5905511811023622},{"duration":0.13636350000000164,"midi":33,"time":79.363557,"velocity":0.5905511811023622},{"duration":0.13636350000000164,"midi":33,"time":79.363557,"velocity":0.5905511811023622},{"duration":0.13636350000000164,"midi":33,"time":79.363557,"velocity":0.5905511811023622},{"duration":0.13636350000000164,"midi":31,"time":79.363557,"velocity":0.5905511811023622},{"duration":0.13636350000000164,"midi":31,"time":79.4999205,"velocity":0.5905511811023622},{"duration":0.13636350000000164,"midi":33,"time":79.4999205,"velocity":0.5905511811023622},{"duration":0.13636350000000164,"midi":33,"time":79.4999205,"velocity":0.5905511811023622},{"duration":0.13636350000000164,"midi":33,"time":79.4999205,"velocity":0.5905511811023622},{"duration":0.13636350000000164,"midi":27,"time":79.636284,"velocity":0.5905511811023622},{"duration":0.13636350000000164,"midi":33,"time":79.636284,"velocity":0.5905511811023622},{"duration":0.13636350000000164,"midi":31,"time":79.636284,"velocity":0.5905511811023622},{"duration":0.13636350000000164,"midi":33,"time":79.636284,"velocity":0.5905511811023622},{"duration":0.13636350000000164,"midi":33,"time":79.636284,"velocity":0.5905511811023622},{"duration":0.13636349999998743,"midi":31,"time":79.7726475,"velocity":0.5905511811023622},{"duration":0.13636349999998743,"midi":33,"time":79.7726475,"velocity":0.5905511811023622},{"duration":0.13636349999998743,"midi":33,"time":79.7726475,"velocity":0.5905511811023622},{"duration":0.13636349999998743,"midi":33,"time":79.7726475,"velocity":0.5905511811023622},{"duration":0.13636350000000164,"midi":27,"time":79.90901099999999,"velocity":0.5905511811023622},{"duration":0.13636350000000164,"midi":33,"time":79.90901099999999,"velocity":0.5905511811023622},{"duration":0.13636350000000164,"midi":33,"time":79.90901099999999,"velocity":0.5905511811023622},{"duration":0.13636350000000164,"midi":31,"time":79.90901099999999,"velocity":0.5905511811023622},{"duration":0.13636350000000164,"midi":33,"time":79.90901099999999,"velocity":0.5905511811023622},{"duration":0.13636350000000164,"midi":33,"time":80.0453745,"velocity":0.5905511811023622},{"duration":0.13636350000000164,"midi":33,"time":80.0453745,"velocity":0.5905511811023622},{"duration":0.13636350000000164,"midi":33,"time":80.0453745,"velocity":0.5905511811023622},{"duration":0.13636350000000164,"midi":27,"time":80.0453745,"velocity":0.5905511811023622},{"duration":0.13636350000000164,"midi":31,"time":80.0453745,"velocity":0.5905511811023622},{"duration":0.13636350000000164,"midi":33,"time":80.181738,"velocity":0.5905511811023622},{"duration":0.13636350000000164,"midi":33,"time":80.181738,"velocity":0.5905511811023622},{"duration":0.13636350000000164,"midi":31,"time":80.181738,"velocity":0.5905511811023622},{"duration":0.13636350000000164,"midi":33,"time":80.181738,"velocity":0.5905511811023622},{"duration":0.13636350000000164,"midi":27,"time":80.3181015,"velocity":0.5905511811023622},{"duration":0.13636350000000164,"midi":33,"time":80.3181015,"velocity":0.5905511811023622},{"duration":0.13636350000000164,"midi":33,"time":80.3181015,"velocity":0.5905511811023622},{"duration":0.13636350000000164,"midi":31,"time":80.3181015,"velocity":0.5905511811023622},{"duration":0.13636350000000164,"midi":33,"time":80.3181015,"velocity":0.5905511811023622},{"duration":0.13636350000000164,"midi":33,"time":80.454465,"velocity":0.5905511811023622},{"duration":0.13636350000000164,"midi":33,"time":80.454465,"velocity":0.5905511811023622},{"duration":0.13636350000000164,"midi":33,"time":80.454465,"velocity":0.5905511811023622},{"duration":0.13636350000000164,"midi":31,"time":80.454465,"velocity":0.5905511811023622},{"duration":0.13636350000000164,"midi":27,"time":80.454465,"velocity":0.5905511811023622},{"duration":0.13636350000000164,"midi":33,"time":80.5908285,"velocity":0.5905511811023622},{"duration":0.13636350000000164,"midi":27,"time":80.5908285,"velocity":0.5905511811023622},{"duration":0.13636350000000164,"midi":31,"time":80.5908285,"velocity":0.5905511811023622},{"duration":0.13636350000000164,"midi":33,"time":80.5908285,"velocity":0.5905511811023622},{"duration":0.13636350000000164,"midi":33,"time":80.5908285,"velocity":0.5905511811023622},{"duration":0.13636350000000164,"midi":33,"time":80.727192,"velocity":0.5905511811023622},{"duration":0.13636350000000164,"midi":33,"time":80.727192,"velocity":0.5905511811023622},{"duration":0.13636350000000164,"midi":27,"time":80.727192,"velocity":0.5905511811023622},{"duration":0.13636350000000164,"midi":33,"time":80.727192,"velocity":0.5905511811023622},{"duration":0.13636350000000164,"midi":31,"time":80.727192,"velocity":0.5905511811023622},{"duration":0.13636350000000164,"midi":33,"time":80.8635555,"velocity":0.5905511811023622},{"duration":0.13636350000000164,"midi":31,"time":80.8635555,"velocity":0.5905511811023622},{"duration":0.13636350000000164,"midi":33,"time":80.8635555,"velocity":0.5905511811023622},{"duration":0.13636350000000164,"midi":33,"time":80.8635555,"velocity":0.5905511811023622},{"duration":0.13636349999998743,"midi":33,"time":80.999919,"velocity":0.5905511811023622},{"duration":0.13636349999998743,"midi":33,"time":80.999919,"velocity":0.5905511811023622},{"duration":0.13636349999998743,"midi":27,"time":80.999919,"velocity":0.5905511811023622},{"duration":0.13636349999998743,"midi":33,"time":80.999919,"velocity":0.5905511811023622},{"duration":0.13636349999998743,"midi":31,"time":80.999919,"velocity":0.5905511811023622},{"duration":0.13636350000000164,"midi":33,"time":81.1362825,"velocity":0.5905511811023622},{"duration":0.13636350000000164,"midi":33,"time":81.1362825,"velocity":0.5905511811023622},{"duration":0.13636350000000164,"midi":33,"time":81.1362825,"velocity":0.5905511811023622},{"duration":0.13636350000000164,"midi":31,"time":81.1362825,"velocity":0.5905511811023622},{"duration":0.13636350000000164,"midi":33,"time":81.272646,"velocity":0.5905511811023622},{"duration":0.13636350000000164,"midi":31,"time":81.272646,"velocity":0.5905511811023622},{"duration":0.13636350000000164,"midi":33,"time":81.272646,"velocity":0.5905511811023622},{"duration":0.13636350000000164,"midi":33,"time":81.272646,"velocity":0.5905511811023622},{"duration":0.13636350000000164,"midi":31,"time":81.4090095,"velocity":0.5905511811023622},{"duration":0.13636350000000164,"midi":33,"time":81.4090095,"velocity":0.5905511811023622},{"duration":0.13636350000000164,"midi":33,"time":81.4090095,"velocity":0.5905511811023622},{"duration":0.13636350000000164,"midi":33,"time":81.4090095,"velocity":0.5905511811023622},{"duration":0.13636350000000164,"midi":27,"time":81.4090095,"velocity":0.5905511811023622},{"duration":0.13636350000000164,"midi":33,"time":81.545373,"velocity":0.5905511811023622},{"duration":0.13636350000000164,"midi":33,"time":81.545373,"velocity":0.5905511811023622},{"duration":0.13636350000000164,"midi":31,"time":81.545373,"velocity":0.5905511811023622},{"duration":0.13636350000000164,"midi":33,"time":81.545373,"velocity":0.5905511811023622},{"duration":0.13636350000000164,"midi":31,"time":81.6817365,"velocity":0.5905511811023622},{"duration":0.13636350000000164,"midi":33,"time":81.6817365,"velocity":0.5905511811023622},{"duration":0.13636350000000164,"midi":33,"time":81.6817365,"velocity":0.5905511811023622},{"duration":0.13636350000000164,"midi":33,"time":81.6817365,"velocity":0.5905511811023622},{"duration":0.13636350000000164,"midi":27,"time":81.8181,"velocity":0.5905511811023622},{"duration":0.13636350000000164,"midi":31,"time":81.8181,"velocity":0.5905511811023622},{"duration":0.06818174999999371,"midi":33,"time":81.8181,"velocity":0.5905511811023622},{"duration":0.06818174999999371,"midi":33,"time":81.8181,"velocity":0.5905511811023622},{"duration":0.06818174999999371,"midi":33,"time":81.8181,"velocity":0.5905511811023622},{"duration":0.06818175000000792,"midi":33,"time":81.88628175,"velocity":0.5905511811023622},{"duration":0.06818175000000792,"midi":33,"time":81.88628175,"velocity":0.5905511811023622},{"duration":0.06818175000000792,"midi":33,"time":81.88628175,"velocity":0.5905511811023622},{"duration":0.06818174999999371,"midi":33,"time":81.9544635,"velocity":0.5905511811023622},{"duration":0.06818174999999371,"midi":33,"time":81.9544635,"velocity":0.5905511811023622},{"duration":0.06818174999999371,"midi":33,"time":81.9544635,"velocity":0.5905511811023622},{"duration":0.13636350000000164,"midi":31,"time":81.9544635,"velocity":0.5905511811023622},{"duration":0.06818175000000792,"midi":33,"time":82.02264525,"velocity":0.5905511811023622},{"duration":0.06818175000000792,"midi":33,"time":82.02264525,"velocity":0.5905511811023622},{"duration":0.06818175000000792,"midi":33,"time":82.02264525,"velocity":0.5905511811023622},{"duration":0.13636350000000164,"midi":33,"time":82.090827,"velocity":0.5905511811023622},{"duration":0.13636350000000164,"midi":33,"time":82.090827,"velocity":0.5905511811023622},{"duration":0.13636350000000164,"midi":31,"time":82.090827,"velocity":0.5905511811023622},{"duration":0.13636350000000164,"midi":33,"time":82.090827,"velocity":0.5905511811023622},{"duration":0.06818174999999371,"midi":33,"time":82.2271905,"velocity":0.5905511811023622},{"duration":0.06818174999999371,"midi":33,"time":82.2271905,"velocity":0.5905511811023622},{"duration":0.13636349999998743,"midi":31,"time":82.2271905,"velocity":0.5905511811023622},{"duration":0.13636349999998743,"midi":27,"time":82.2271905,"velocity":0.5905511811023622},{"duration":0.06818174999999371,"midi":33,"time":82.2271905,"velocity":0.5905511811023622},{"duration":0.06818174999999371,"midi":33,"time":82.29537225,"velocity":0.5905511811023622},{"duration":0.06818174999999371,"midi":33,"time":82.29537225,"velocity":0.5905511811023622},{"duration":0.06818174999999371,"midi":33,"time":82.29537225,"velocity":0.5905511811023622},{"duration":0.13636350000000164,"midi":31,"time":82.363554,"velocity":0.5905511811023622},{"duration":0.06818175000000792,"midi":33,"time":82.363554,"velocity":0.5905511811023622},{"duration":0.06818175000000792,"midi":33,"time":82.363554,"velocity":0.5905511811023622},{"duration":0.06818175000000792,"midi":33,"time":82.363554,"velocity":0.5905511811023622},{"duration":0.06818174999999371,"midi":33,"time":82.43173575,"velocity":0.5905511811023622},{"duration":0.06818174999999371,"midi":33,"time":82.43173575,"velocity":0.5905511811023622},{"duration":0.06818174999999371,"midi":33,"time":82.43173575,"velocity":0.5905511811023622},{"duration":0.13636350000000164,"midi":33,"time":82.4999175,"velocity":0.5905511811023622},{"duration":0.13636350000000164,"midi":33,"time":82.4999175,"velocity":0.5905511811023622},{"duration":0.13636350000000164,"midi":33,"time":82.4999175,"velocity":0.5905511811023622},{"duration":0.13636350000000164,"midi":31,"time":82.4999175,"velocity":0.5905511811023622},{"duration":0.06818175000000792,"midi":33,"time":82.636281,"velocity":0.5905511811023622},{"duration":0.13636350000000164,"midi":31,"time":82.636281,"velocity":0.5905511811023622},{"duration":0.06818175000000792,"midi":33,"time":82.636281,"velocity":0.5905511811023622},{"duration":0.06818175000000792,"midi":33,"time":82.636281,"velocity":0.5905511811023622},{"duration":0.13636350000000164,"midi":27,"time":82.636281,"velocity":0.5905511811023622},{"duration":0.06818174999999371,"midi":33,"time":82.70446275,"velocity":0.5905511811023622},{"duration":0.06818174999999371,"midi":33,"time":82.70446275,"velocity":0.5905511811023622},{"duration":0.06818174999999371,"midi":33,"time":82.70446275,"velocity":0.5905511811023622},{"duration":0.13636350000000164,"midi":33,"time":82.7726445,"velocity":0.5905511811023622},{"duration":0.13636350000000164,"midi":31,"time":82.7726445,"velocity":0.5905511811023622},{"duration":0.13636350000000164,"midi":33,"time":82.7726445,"velocity":0.5905511811023622},{"duration":0.13636350000000164,"midi":33,"time":82.7726445,"velocity":0.5905511811023622},{"duration":0.13636350000000164,"midi":31,"time":82.909008,"velocity":0.5905511811023622},{"duration":0.13636350000000164,"midi":33,"time":82.909008,"velocity":0.5905511811023622},{"duration":0.13636350000000164,"midi":33,"time":82.909008,"velocity":0.5905511811023622},{"duration":0.13636350000000164,"midi":27,"time":82.909008,"velocity":0.5905511811023622},{"duration":0.13636350000000164,"midi":33,"time":82.909008,"velocity":0.5905511811023622},{"duration":0.13636350000000164,"midi":31,"time":83.0453715,"velocity":0.5905511811023622},{"duration":0.13636350000000164,"midi":33,"time":83.0453715,"velocity":0.5905511811023622},{"duration":0.13636350000000164,"midi":33,"time":83.0453715,"velocity":0.5905511811023622},{"duration":0.13636350000000164,"midi":33,"time":83.0453715,"velocity":0.5905511811023622},{"duration":0.13636350000000164,"midi":27,"time":83.181735,"velocity":0.5905511811023622},{"duration":0.13636350000000164,"midi":33,"time":83.181735,"velocity":0.5905511811023622},{"duration":0.13636350000000164,"midi":33,"time":83.181735,"velocity":0.5905511811023622},{"duration":0.13636350000000164,"midi":31,"time":83.181735,"velocity":0.5905511811023622},{"duration":0.13636350000000164,"midi":33,"time":83.181735,"velocity":0.5905511811023622},{"duration":0.13636349999998743,"midi":33,"time":83.3180985,"velocity":0.5905511811023622},{"duration":0.13636349999998743,"midi":33,"time":83.3180985,"velocity":0.5905511811023622},{"duration":0.13636349999998743,"midi":33,"time":83.3180985,"velocity":0.5905511811023622},{"duration":0.13636349999998743,"midi":31,"time":83.3180985,"velocity":0.5905511811023622},{"duration":0.13636350000000164,"midi":31,"time":83.45446199999999,"velocity":0.5905511811023622},{"duration":0.06818175000000792,"midi":33,"time":83.45446199999999,"velocity":0.5905511811023622},{"duration":0.06818175000000792,"midi":33,"time":83.45446199999999,"velocity":0.5905511811023622},{"duration":0.06818175000000792,"midi":33,"time":83.45446199999999,"velocity":0.5905511811023622},{"duration":0.06818174999999371,"midi":33,"time":83.52264375,"velocity":0.5905511811023622},{"duration":0.06818174999999371,"midi":33,"time":83.52264375,"velocity":0.5905511811023622},{"duration":0.06818174999999371,"midi":33,"time":83.52264375,"velocity":0.5905511811023622},{"duration":0.13636350000000164,"midi":31,"time":83.5908255,"velocity":0.5905511811023622},{"duration":0.06818175000000792,"midi":33,"time":83.5908255,"velocity":0.5905511811023622},{"duration":0.06818175000000792,"midi":33,"time":83.5908255,"velocity":0.5905511811023622},{"duration":0.06818175000000792,"midi":33,"time":83.5908255,"velocity":0.5905511811023622},{"duration":0.13636350000000164,"midi":27,"time":83.5908255,"velocity":0.5905511811023622},{"duration":0.06818174999999371,"midi":33,"time":83.65900725,"velocity":0.5905511811023622},{"duration":0.06818174999999371,"midi":33,"time":83.65900725,"velocity":0.5905511811023622},{"duration":0.06818174999999371,"midi":33,"time":83.65900725,"velocity":0.5905511811023622},{"duration":0.13636350000000164,"midi":33,"time":83.727189,"velocity":0.5905511811023622},{"duration":0.13636350000000164,"midi":33,"time":83.727189,"velocity":0.5905511811023622},{"duration":0.13636350000000164,"midi":33,"time":83.727189,"velocity":0.5905511811023622},{"duration":0.13636350000000164,"midi":31,"time":83.727189,"velocity":0.5905511811023622},{"duration":0.13636350000000164,"midi":33,"time":83.8635525,"velocity":0.5905511811023622},{"duration":0.13636350000000164,"midi":31,"time":83.8635525,"velocity":0.5905511811023622},{"duration":0.13636350000000164,"midi":33,"time":83.8635525,"velocity":0.5905511811023622},{"duration":0.13636350000000164,"midi":33,"time":83.8635525,"velocity":0.5905511811023622},{"duration":0.13636350000000164,"midi":33,"time":83.999916,"velocity":0.5905511811023622},{"duration":0.13636350000000164,"midi":33,"time":83.999916,"velocity":0.5905511811023622},{"duration":0.13636350000000164,"midi":33,"time":83.999916,"velocity":0.5905511811023622},{"duration":0.13636350000000164,"midi":27,"time":83.999916,"velocity":0.5905511811023622},{"duration":0.13636350000000164,"midi":31,"time":83.999916,"velocity":0.5905511811023622},{"duration":0.13636350000000164,"midi":33,"time":84.1362795,"velocity":0.5905511811023622},{"duration":0.13636350000000164,"midi":33,"time":84.1362795,"velocity":0.5905511811023622},{"duration":0.13636350000000164,"midi":31,"time":84.1362795,"velocity":0.5905511811023622},{"duration":0.13636350000000164,"midi":33,"time":84.1362795,"velocity":0.5905511811023622},{"duration":0.06818174999999371,"midi":33,"time":84.272643,"velocity":0.5905511811023622},{"duration":0.13636350000000164,"midi":27,"time":84.272643,"velocity":0.5905511811023622},{"duration":0.06818174999999371,"midi":33,"time":84.272643,"velocity":0.5905511811023622},{"duration":0.06818174999999371,"midi":33,"time":84.272643,"velocity":0.5905511811023622},{"duration":0.13636350000000164,"midi":31,"time":84.272643,"velocity":0.5905511811023622},{"duration":0.06818175000000792,"midi":33,"time":84.34082475,"velocity":0.5905511811023622},{"duration":0.06818175000000792,"midi":33,"time":84.34082475,"velocity":0.5905511811023622},{"duration":0.06818175000000792,"midi":33,"time":84.34082475,"velocity":0.5905511811023622},{"duration":0.13636350000000164,"midi":31,"time":84.4090065,"velocity":0.5905511811023622},{"duration":0.13636350000000164,"midi":33,"time":84.4090065,"velocity":0.5905511811023622},{"duration":0.13636350000000164,"midi":33,"time":84.4090065,"velocity":0.5905511811023622},{"duration":0.13636350000000164,"midi":33,"time":84.4090065,"velocity":0.5905511811023622},{"duration":0.13636350000000164,"midi":27,"time":84.4090065,"velocity":0.5905511811023622},{"duration":0.13636349999998743,"midi":33,"time":84.54537,"velocity":0.5905511811023622},{"duration":0.13636349999998743,"midi":31,"time":84.54537,"velocity":0.5905511811023622},{"duration":0.13636349999998743,"midi":33,"time":84.54537,"velocity":0.5905511811023622},{"duration":0.13636349999998743,"midi":33,"time":84.54537,"velocity":0.5905511811023622},{"duration":0.13636350000000164,"midi":33,"time":84.68173349999999,"velocity":0.5905511811023622},{"duration":0.13636350000000164,"midi":33,"time":84.68173349999999,"velocity":0.5905511811023622},{"duration":0.13636350000000164,"midi":31,"time":84.68173349999999,"velocity":0.5905511811023622},{"duration":0.13636350000000164,"midi":33,"time":84.68173349999999,"velocity":0.5905511811023622},{"duration":0.13636350000000164,"midi":27,"time":84.68173349999999,"velocity":0.5905511811023622},{"duration":0.13636350000000164,"midi":33,"time":84.818097,"velocity":0.5905511811023622},{"duration":0.13636350000000164,"midi":27,"time":84.818097,"velocity":0.5905511811023622},{"duration":0.13636350000000164,"midi":33,"time":84.818097,"velocity":0.5905511811023622},{"duration":0.13636350000000164,"midi":33,"time":84.818097,"velocity":0.5905511811023622},{"duration":0.13636350000000164,"midi":31,"time":84.818097,"velocity":0.5905511811023622},{"duration":0.13636350000000164,"midi":27,"time":84.9544605,"velocity":0.5905511811023622},{"duration":0.13636350000000164,"midi":33,"time":84.9544605,"velocity":0.5905511811023622},{"duration":0.13636350000000164,"midi":33,"time":84.9544605,"velocity":0.5905511811023622},{"duration":0.13636350000000164,"midi":33,"time":84.9544605,"velocity":0.5905511811023622},{"duration":0.13636350000000164,"midi":31,"time":84.9544605,"velocity":0.5905511811023622},{"duration":0.13636350000000164,"midi":33,"time":85.090824,"velocity":0.5905511811023622},{"duration":0.13636350000000164,"midi":33,"time":85.090824,"velocity":0.5905511811023622},{"duration":0.13636350000000164,"midi":27,"time":85.090824,"velocity":0.5905511811023622},{"duration":0.13636350000000164,"midi":33,"time":85.090824,"velocity":0.5905511811023622},{"duration":0.13636350000000164,"midi":31,"time":85.090824,"velocity":0.5905511811023622},{"duration":0.13636350000000164,"midi":33,"time":85.2271875,"velocity":0.5905511811023622},{"duration":0.13636350000000164,"midi":33,"time":85.2271875,"velocity":0.5905511811023622},{"duration":0.13636350000000164,"midi":33,"time":85.2271875,"velocity":0.5905511811023622},{"duration":0.13636350000000164,"midi":31,"time":85.2271875,"velocity":0.5905511811023622},{"duration":0.13636350000000164,"midi":31,"time":85.363551,"velocity":0.5905511811023622},{"duration":0.13636350000000164,"midi":33,"time":85.363551,"velocity":0.5905511811023622},{"duration":0.13636350000000164,"midi":33,"time":85.363551,"velocity":0.5905511811023622},{"duration":0.13636350000000164,"midi":27,"time":85.363551,"velocity":0.5905511811023622},{"duration":0.13636350000000164,"midi":33,"time":85.363551,"velocity":0.5905511811023622},{"duration":0.13636350000000164,"midi":33,"time":85.4999145,"velocity":0.5905511811023622},{"duration":0.13636350000000164,"midi":31,"time":85.4999145,"velocity":0.5905511811023622},{"duration":0.13636350000000164,"midi":33,"time":85.4999145,"velocity":0.5905511811023622},{"duration":0.13636350000000164,"midi":33,"time":85.4999145,"velocity":0.5905511811023622},{"duration":0.13636350000000164,"midi":31,"time":85.636278,"velocity":0.5905511811023622},{"duration":0.13636350000000164,"midi":33,"time":85.636278,"velocity":0.5905511811023622},{"duration":0.13636350000000164,"midi":33,"time":85.636278,"velocity":0.5905511811023622},{"duration":0.13636350000000164,"midi":33,"time":85.636278,"velocity":0.5905511811023622},{"duration":0.13636349999998743,"midi":27,"time":85.7726415,"velocity":0.5905511811023622},{"duration":0.13636349999998743,"midi":33,"time":85.7726415,"velocity":0.5905511811023622},{"duration":0.13636349999998743,"midi":33,"time":85.7726415,"velocity":0.5905511811023622},{"duration":0.13636349999998743,"midi":33,"time":85.7726415,"velocity":0.5905511811023622},{"duration":0.13636349999998743,"midi":31,"time":85.7726415,"velocity":0.5905511811023622},{"duration":0.13636350000000164,"midi":33,"time":85.909005,"velocity":0.5905511811023622},{"duration":0.13636350000000164,"midi":33,"time":85.909005,"velocity":0.5905511811023622},{"duration":0.13636350000000164,"midi":31,"time":85.909005,"velocity":0.5905511811023622},{"duration":0.13636350000000164,"midi":33,"time":85.909005,"velocity":0.5905511811023622},{"duration":0.13636350000000164,"midi":31,"time":86.0453685,"velocity":0.5905511811023622},{"duration":0.13636350000000164,"midi":33,"time":86.0453685,"velocity":0.5905511811023622},{"duration":0.13636350000000164,"midi":33,"time":86.0453685,"velocity":0.5905511811023622},{"duration":0.13636350000000164,"midi":33,"time":86.0453685,"velocity":0.5905511811023622},{"duration":0.13636350000000164,"midi":31,"time":86.181732,"velocity":0.5905511811023622},{"duration":0.13636350000000164,"midi":33,"time":86.181732,"velocity":0.5905511811023622},{"duration":0.13636350000000164,"midi":33,"time":86.181732,"velocity":0.5905511811023622},{"duration":0.13636350000000164,"midi":33,"time":86.181732,"velocity":0.5905511811023622},{"duration":0.13636350000000164,"midi":33,"time":86.3180955,"velocity":0.5905511811023622},{"duration":0.13636350000000164,"midi":33,"time":86.3180955,"velocity":0.5905511811023622},{"duration":0.13636350000000164,"midi":31,"time":86.3180955,"velocity":0.5905511811023622},{"duration":0.13636350000000164,"midi":33,"time":86.3180955,"velocity":0.5905511811023622},{"duration":0.13636350000000164,"midi":31,"time":86.454459,"velocity":0.5905511811023622},{"duration":0.06818174999999371,"midi":33,"time":86.454459,"velocity":0.5905511811023622},{"duration":0.06818174999999371,"midi":33,"time":86.454459,"velocity":0.5905511811023622},{"duration":0.06818174999999371,"midi":33,"time":86.454459,"velocity":0.5905511811023622},{"duration":0.06818175000000792,"midi":33,"time":86.52264075,"velocity":0.5905511811023622},{"duration":0.06818175000000792,"midi":33,"time":86.52264075,"velocity":0.5905511811023622},{"duration":0.06818175000000792,"midi":33,"time":86.52264075,"velocity":0.5905511811023622},{"duration":0.06818174999999371,"midi":33,"time":86.5908225,"velocity":0.5905511811023622},{"duration":0.06818174999999371,"midi":33,"time":86.5908225,"velocity":0.5905511811023622},{"duration":0.06818174999999371,"midi":33,"time":86.5908225,"velocity":0.5905511811023622},{"duration":0.13636350000000164,"midi":31,"time":86.5908225,"velocity":0.5905511811023622},{"duration":0.06818175000000792,"midi":33,"time":86.65900425,"velocity":0.5905511811023622},{"duration":0.06818175000000792,"midi":33,"time":86.65900425,"velocity":0.5905511811023622},{"duration":0.06818175000000792,"midi":33,"time":86.65900425,"velocity":0.5905511811023622},{"duration":0.06818174999999371,"midi":44,"time":86.727186,"velocity":0.5905511811023622},{"duration":0.13636350000000164,"midi":31,"time":86.727186,"velocity":0.5905511811023622},{"duration":0.06818174999999371,"midi":44,"time":86.727186,"velocity":0.5905511811023622},{"duration":0.06818175000000792,"midi":44,"time":86.79536775,"velocity":0.5905511811023622},{"duration":0.06818175000000792,"midi":44,"time":86.79536775,"velocity":0.5905511811023622},{"duration":0.06818174999999371,"midi":44,"time":86.8635495,"velocity":0.5905511811023622},{"duration":0.06818174999999371,"midi":44,"time":86.8635495,"velocity":0.5905511811023622},{"duration":0.13636349999998743,"midi":31,"time":86.8635495,"velocity":0.5905511811023622},{"duration":0.06818174999999371,"midi":44,"time":86.93173125,"velocity":0.5905511811023622},{"duration":0.06818174999999371,"midi":44,"time":86.93173125,"velocity":0.5905511811023622},{"duration":0.06818175000000792,"midi":44,"time":86.99991299999999,"velocity":0.5905511811023622},{"duration":0.06818175000000792,"midi":44,"time":86.99991299999999,"velocity":0.5905511811023622},{"duration":0.13636350000000164,"midi":31,"time":86.99991299999999,"velocity":0.5905511811023622},{"duration":0.03409087500000396,"midi":44,"time":87.06809475,"velocity":0.5905511811023622},{"duration":0.03409087500000396,"midi":44,"time":87.06809475,"velocity":0.5905511811023622},{"duration":0.03409087499998975,"midi":44,"time":87.102185625,"velocity":0.5905511811023622},{"duration":0.03409087499998975,"midi":44,"time":87.102185625,"velocity":0.5905511811023622},{"duration":0.03409087500000396,"midi":44,"time":87.1362765,"velocity":0.5905511811023622},{"duration":0.03409087500000396,"midi":44,"time":87.1362765,"velocity":0.5905511811023622},{"duration":0.13636350000000164,"midi":31,"time":87.1362765,"velocity":0.5905511811023622},{"duration":0.03409087500000396,"midi":44,"time":87.170367375,"velocity":0.5905511811023622},{"duration":0.03409087500000396,"midi":44,"time":87.170367375,"velocity":0.5905511811023622},{"duration":0.03409087500000396,"midi":44,"time":87.20445825,"velocity":0.5905511811023622},{"duration":0.03409087500000396,"midi":44,"time":87.20445825,"velocity":0.5905511811023622},{"duration":0.03409087499998975,"midi":44,"time":87.238549125,"velocity":0.5905511811023622},{"duration":0.03409087499998975,"midi":44,"time":87.238549125,"velocity":0.5905511811023622},{"duration":0.13636350000000164,"midi":44,"time":87.27264,"velocity":0.5905511811023622},{"duration":0.13636350000000164,"midi":52,"time":87.27264,"velocity":0.5905511811023622},{"duration":0.13636350000000164,"midi":44,"time":87.545367,"velocity":0.5905511811023622},{"duration":0.13636350000000164,"midi":52,"time":87.545367,"velocity":0.5905511811023622},{"duration":0.13636350000000164,"midi":52,"time":87.818094,"velocity":0.5905511811023622},{"duration":0.13636350000000164,"midi":44,"time":87.818094,"velocity":0.5905511811023622},{"duration":0.13636349999998743,"midi":52,"time":88.090821,"velocity":0.5905511811023622},{"duration":0.13636349999998743,"midi":44,"time":88.090821,"velocity":0.5905511811023622},{"duration":0.13636350000000164,"midi":44,"time":88.363548,"velocity":0.5905511811023622},{"duration":0.13636350000000164,"midi":52,"time":88.363548,"velocity":0.5905511811023622},{"duration":0.13636350000000164,"midi":52,"time":88.636275,"velocity":0.5905511811023622},{"duration":0.13636350000000164,"midi":44,"time":88.636275,"velocity":0.5905511811023622},{"duration":0.13636350000000164,"midi":52,"time":88.909002,"velocity":0.5905511811023622},{"duration":0.13636350000000164,"midi":44,"time":88.909002,"velocity":0.5905511811023622},{"duration":0.13636350000000164,"midi":44,"time":89.181729,"velocity":0.5905511811023622},{"duration":0.13636350000000164,"midi":52,"time":89.181729,"velocity":0.5905511811023622},{"duration":0.13636350000000164,"midi":44,"time":89.454456,"velocity":0.5905511811023622},{"duration":0.13636350000000164,"midi":52,"time":89.454456,"velocity":0.5905511811023622},{"duration":0.13636350000000164,"midi":52,"time":89.727183,"velocity":0.5905511811023622},{"duration":0.13636350000000164,"midi":44,"time":89.727183,"velocity":0.5905511811023622},{"duration":0.13636350000000164,"midi":44,"time":89.99991,"velocity":0.5905511811023622},{"duration":0.13636350000000164,"midi":52,"time":89.99991,"velocity":0.5905511811023622},{"duration":0.13636350000000164,"midi":52,"time":90.272637,"velocity":0.5905511811023622},{"duration":0.13636350000000164,"midi":44,"time":90.272637,"velocity":0.5905511811023622},{"duration":0.13636350000000164,"midi":44,"time":90.54536399999999,"velocity":0.5905511811023622},{"duration":0.13636350000000164,"midi":52,"time":90.54536399999999,"velocity":0.5905511811023622},{"duration":0.13636350000000164,"midi":44,"time":90.818091,"velocity":0.5905511811023622},{"duration":0.13636350000000164,"midi":52,"time":90.818091,"velocity":0.5905511811023622},{"duration":0.13636350000000164,"midi":44,"time":91.090818,"velocity":0.5905511811023622},{"duration":0.13636350000000164,"midi":52,"time":91.090818,"velocity":0.5905511811023622},{"duration":0.13636350000000164,"midi":52,"time":91.363545,"velocity":0.5905511811023622},{"duration":0.13636350000000164,"midi":44,"time":91.363545,"velocity":0.5905511811023622},{"duration":0.13636349999998743,"midi":44,"time":91.636272,"velocity":0.5905511811023622},{"duration":0.13636349999998743,"midi":52,"time":91.636272,"velocity":0.5905511811023622},{"duration":0.13636350000000164,"midi":52,"time":91.908999,"velocity":0.5905511811023622},{"duration":0.13636350000000164,"midi":44,"time":91.908999,"velocity":0.5905511811023622},{"duration":0.13636350000000164,"midi":44,"time":92.181726,"velocity":0.5905511811023622},{"duration":0.13636350000000164,"midi":52,"time":92.181726,"velocity":0.5905511811023622},{"duration":0.13636350000000164,"midi":44,"time":92.454453,"velocity":0.5905511811023622},{"duration":0.13636350000000164,"midi":52,"time":92.454453,"velocity":0.5905511811023622},{"duration":0.13636350000000164,"midi":52,"time":92.72718,"velocity":0.5905511811023622},{"duration":0.13636350000000164,"midi":44,"time":92.72718,"velocity":0.5905511811023622},{"duration":0.13636350000000164,"midi":44,"time":92.999907,"velocity":0.5905511811023622},{"duration":0.13636350000000164,"midi":52,"time":92.999907,"velocity":0.5905511811023622},{"duration":0.13636350000000164,"midi":52,"time":93.272634,"velocity":0.5905511811023622},{"duration":0.13636350000000164,"midi":44,"time":93.272634,"velocity":0.5905511811023622},{"duration":0.13636350000000164,"midi":52,"time":93.545361,"velocity":0.5905511811023622},{"duration":0.13636350000000164,"midi":44,"time":93.545361,"velocity":0.5905511811023622},{"duration":0.13636350000000164,"midi":44,"time":93.818088,"velocity":0.5905511811023622},{"duration":0.13636350000000164,"midi":52,"time":93.818088,"velocity":0.5905511811023622},{"duration":0.13636350000000164,"midi":52,"time":94.09081499999999,"velocity":0.5905511811023622},{"duration":0.13636350000000164,"midi":44,"time":94.09081499999999,"velocity":0.5905511811023622},{"duration":0.13636350000000164,"midi":52,"time":94.363542,"velocity":0.5905511811023622},{"duration":0.13636350000000164,"midi":44,"time":94.363542,"velocity":0.5905511811023622},{"duration":0.13636350000000164,"midi":44,"time":94.636269,"velocity":0.5905511811023622},{"duration":0.13636350000000164,"midi":52,"time":94.636269,"velocity":0.5905511811023622},{"duration":0.13636350000000164,"midi":52,"time":94.908996,"velocity":0.5905511811023622},{"duration":0.13636350000000164,"midi":44,"time":94.908996,"velocity":0.5905511811023622},{"duration":0.13636349999998743,"midi":52,"time":95.181723,"velocity":0.5905511811023622},{"duration":0.13636349999998743,"midi":44,"time":95.181723,"velocity":0.5905511811023622},{"duration":0.13636350000000164,"midi":52,"time":95.45445,"velocity":0.5905511811023622},{"duration":0.13636350000000164,"midi":44,"time":95.45445,"velocity":0.5905511811023622},{"duration":0.13636350000000164,"midi":52,"time":95.727177,"velocity":0.5905511811023622},{"duration":0.13636350000000164,"midi":44,"time":95.727177,"velocity":0.5905511811023622},{"duration":0.13636350000000164,"midi":44,"time":95.999904,"velocity":0.5905511811023622},{"duration":0.13636350000000164,"midi":52,"time":95.999904,"velocity":0.5905511811023622},{"duration":0.13636350000000164,"midi":44,"time":96.272631,"velocity":0.5905511811023622},{"duration":0.13636350000000164,"midi":52,"time":96.272631,"velocity":0.5905511811023622},{"duration":0.13636350000000164,"midi":52,"time":96.545358,"velocity":0.5905511811023622},{"duration":0.13636350000000164,"midi":44,"time":96.545358,"velocity":0.5905511811023622},{"duration":0.13636350000000164,"midi":44,"time":96.818085,"velocity":0.5905511811023622},{"duration":0.13636350000000164,"midi":52,"time":96.818085,"velocity":0.5905511811023622},{"duration":0.13636350000000164,"midi":52,"time":97.090812,"velocity":0.5905511811023622},{"duration":0.13636350000000164,"midi":44,"time":97.090812,"velocity":0.5905511811023622},{"duration":0.13636350000000164,"midi":52,"time":97.363539,"velocity":0.5905511811023622},{"duration":0.13636350000000164,"midi":44,"time":97.363539,"velocity":0.5905511811023622},{"duration":0.13636350000000164,"midi":44,"time":97.63626599999999,"velocity":0.5905511811023622},{"duration":0.13636350000000164,"midi":52,"time":97.63626599999999,"velocity":0.5905511811023622},{"duration":0.13636350000000164,"midi":44,"time":97.908993,"velocity":0.5905511811023622},{"duration":0.13636350000000164,"midi":52,"time":97.908993,"velocity":0.5905511811023622},{"duration":0.13636350000000164,"midi":52,"time":98.18172,"velocity":0.5905511811023622},{"duration":0.13636350000000164,"midi":44,"time":98.18172,"velocity":0.5905511811023622},{"duration":0.13636350000000164,"midi":44,"time":98.454447,"velocity":0.5905511811023622},{"duration":0.13636350000000164,"midi":52,"time":98.454447,"velocity":0.5905511811023622},{"duration":0.13636349999998743,"midi":52,"time":98.727174,"velocity":0.5905511811023622},{"duration":0.13636349999998743,"midi":44,"time":98.727174,"velocity":0.5905511811023622},{"duration":0.13636350000000164,"midi":52,"time":98.999901,"velocity":0.5905511811023622},{"duration":0.13636350000000164,"midi":44,"time":98.999901,"velocity":0.5905511811023622},{"duration":0.13636350000000164,"midi":52,"time":99.272628,"velocity":0.5905511811023622},{"duration":0.13636350000000164,"midi":44,"time":99.272628,"velocity":0.5905511811023622},{"duration":0.13636350000000164,"midi":52,"time":99.545355,"velocity":0.5905511811023622},{"duration":0.13636350000000164,"midi":44,"time":99.545355,"velocity":0.5905511811023622},{"duration":0.13636350000000164,"midi":44,"time":99.818082,"velocity":0.5905511811023622},{"duration":0.13636350000000164,"midi":52,"time":99.818082,"velocity":0.5905511811023622},{"duration":0.13636350000000164,"midi":44,"time":100.090809,"velocity":0.5905511811023622},{"duration":0.13636350000000164,"midi":52,"time":100.090809,"velocity":0.5905511811023622},{"duration":0.13636350000000164,"midi":52,"time":100.363536,"velocity":0.5905511811023622},{"duration":0.13636350000000164,"midi":44,"time":100.363536,"velocity":0.5905511811023622},{"duration":0.13636350000000164,"midi":44,"time":100.636263,"velocity":0.5905511811023622},{"duration":0.13636350000000164,"midi":52,"time":100.636263,"velocity":0.5905511811023622},{"duration":0.13636350000000164,"midi":52,"time":100.90899,"velocity":0.5905511811023622},{"duration":0.13636350000000164,"midi":44,"time":100.90899,"velocity":0.5905511811023622},{"duration":0.13636350000000164,"midi":44,"time":101.18171699999999,"velocity":0.5905511811023622},{"duration":0.13636350000000164,"midi":52,"time":101.18171699999999,"velocity":0.5905511811023622},{"duration":0.13636350000000164,"midi":52,"time":101.454444,"velocity":0.5905511811023622},{"duration":0.13636350000000164,"midi":44,"time":101.454444,"velocity":0.5905511811023622},{"duration":0.13636350000000164,"midi":52,"time":101.727171,"velocity":0.5905511811023622},{"duration":0.13636350000000164,"midi":44,"time":101.727171,"velocity":0.5905511811023622},{"duration":0.13636350000000164,"midi":44,"time":101.999898,"velocity":0.5905511811023622},{"duration":0.13636350000000164,"midi":52,"time":101.999898,"velocity":0.5905511811023622},{"duration":0.13636349999998743,"midi":44,"time":102.272625,"velocity":0.5905511811023622},{"duration":0.13636349999998743,"midi":52,"time":102.272625,"velocity":0.5905511811023622},{"duration":0.13636350000000164,"midi":44,"time":102.545352,"velocity":0.5905511811023622},{"duration":0.13636350000000164,"midi":52,"time":102.545352,"velocity":0.5905511811023622},{"duration":0.13636350000000164,"midi":52,"time":102.818079,"velocity":0.5905511811023622},{"duration":0.13636350000000164,"midi":44,"time":102.818079,"velocity":0.5905511811023622},{"duration":0.13636350000000164,"midi":44,"time":103.090806,"velocity":0.5905511811023622},{"duration":0.13636350000000164,"midi":52,"time":103.090806,"velocity":0.5905511811023622},{"duration":0.13636350000000164,"midi":52,"time":103.363533,"velocity":0.5905511811023622},{"duration":0.13636350000000164,"midi":44,"time":103.363533,"velocity":0.5905511811023622},{"duration":0.13636350000000164,"midi":44,"time":103.63626,"velocity":0.5905511811023622},{"duration":0.13636350000000164,"midi":52,"time":103.63626,"velocity":0.5905511811023622},{"duration":0.13636350000000164,"midi":52,"time":103.908987,"velocity":0.5905511811023622},{"duration":0.13636350000000164,"midi":44,"time":103.908987,"velocity":0.5905511811023622},{"duration":0.13636350000000164,"midi":52,"time":104.181714,"velocity":0.5905511811023622},{"duration":0.13636350000000164,"midi":44,"time":104.181714,"velocity":0.5905511811023622},{"duration":0.13636350000000164,"midi":44,"time":104.454441,"velocity":0.5905511811023622},{"duration":0.06818174999999371,"midi":40,"time":104.454441,"velocity":0.5905511811023622},{"duration":0.13636350000000164,"midi":52,"time":104.454441,"velocity":0.5905511811023622},{"duration":0.06818174999999371,"midi":40,"time":104.454441,"velocity":0.5905511811023622},{"duration":0.06818174999999371,"midi":40,"time":104.454441,"velocity":0.5905511811023622},{"duration":0.06818175000000792,"midi":40,"time":104.52262275,"velocity":0.5905511811023622},{"duration":0.06818175000000792,"midi":40,"time":104.52262275,"velocity":0.5905511811023622},{"duration":0.06818175000000792,"midi":40,"time":104.52262275,"velocity":0.5905511811023622},{"duration":0.06818174999999371,"midi":40,"time":104.5908045,"velocity":0.5905511811023622},{"duration":0.06818174999999371,"midi":40,"time":104.5908045,"velocity":0.5905511811023622},{"duration":0.06818174999999371,"midi":40,"time":104.5908045,"velocity":0.5905511811023622},{"duration":0.06818175000000792,"midi":40,"time":104.65898625,"velocity":0.5905511811023622},{"duration":0.06818175000000792,"midi":40,"time":104.65898625,"velocity":0.5905511811023622},{"duration":0.06818175000000792,"midi":40,"time":104.65898625,"velocity":0.5905511811023622},{"duration":0.13636349999998743,"midi":38,"time":104.727168,"velocity":0.5905511811023622},{"duration":0.13636349999998743,"midi":46,"time":104.727168,"velocity":0.5905511811023622},{"duration":0.13636349999998743,"midi":57,"time":104.727168,"velocity":0.5905511811023622},{"duration":0.13636349999998743,"midi":59,"time":104.727168,"velocity":0.5905511811023622},{"duration":0.13636349999998743,"midi":43,"time":104.727168,"velocity":0.5905511811023622},{"duration":0.13636349999998743,"midi":59,"time":104.727168,"velocity":0.5905511811023622},{"duration":0.13636349999998743,"midi":59,"time":104.727168,"velocity":0.5905511811023622},{"duration":0.13636349999998743,"midi":40,"time":104.727168,"velocity":0.5905511811023622},{"duration":0.13636350000000164,"midi":35,"time":104.8635315,"velocity":0.5905511811023622},{"duration":0.13636350000000164,"midi":36,"time":104.8635315,"velocity":0.5905511811023622},{"duration":0.13636350000000164,"midi":38,"time":104.999895,"velocity":0.5905511811023622},{"duration":0.13636350000000164,"midi":40,"time":104.999895,"velocity":0.5905511811023622},{"duration":0.13636350000000164,"midi":36,"time":105.1362585,"velocity":0.5905511811023622},{"duration":0.13636350000000164,"midi":35,"time":105.1362585,"velocity":0.5905511811023622},{"duration":0.13636350000000164,"midi":46,"time":105.272622,"velocity":0.5905511811023622},{"duration":0.13636350000000164,"midi":40,"time":105.272622,"velocity":0.5905511811023622},{"duration":0.13636350000000164,"midi":38,"time":105.272622,"velocity":0.5905511811023622},{"duration":0.13636350000000164,"midi":45,"time":105.272622,"velocity":0.5905511811023622},{"duration":0.13636350000000164,"midi":35,"time":105.4089855,"velocity":0.5905511811023622},{"duration":0.13636350000000164,"midi":36,"time":105.4089855,"velocity":0.5905511811023622},{"duration":0.13636350000000164,"midi":38,"time":105.545349,"velocity":0.5905511811023622},{"duration":0.13636350000000164,"midi":40,"time":105.545349,"velocity":0.5905511811023622},{"duration":0.13636350000000164,"midi":35,"time":105.6817125,"velocity":0.5905511811023622},{"duration":0.13636350000000164,"midi":43,"time":105.6817125,"velocity":0.5905511811023622},{"duration":0.13636350000000164,"midi":36,"time":105.6817125,"velocity":0.5905511811023622},{"duration":0.13636349999998743,"midi":46,"time":105.818076,"velocity":0.5905511811023622},{"duration":0.13636349999998743,"midi":38,"time":105.818076,"velocity":0.5905511811023622},{"duration":0.13636349999998743,"midi":40,"time":105.818076,"velocity":0.5905511811023622},{"duration":0.13636350000000164,"midi":36,"time":105.95443949999999,"velocity":0.5905511811023622},{"duration":0.13636350000000164,"midi":43,"time":105.95443949999999,"velocity":0.5905511811023622},{"duration":0.13636350000000164,"midi":35,"time":105.95443949999999,"velocity":0.5905511811023622},{"duration":0.13636350000000164,"midi":38,"time":106.090803,"velocity":0.5905511811023622},{"duration":0.13636350000000164,"midi":40,"time":106.090803,"velocity":0.5905511811023622},{"duration":0.13636350000000164,"midi":36,"time":106.2271665,"velocity":0.5905511811023622},{"duration":0.13636350000000164,"midi":35,"time":106.2271665,"velocity":0.5905511811023622},{"duration":0.13636350000000164,"midi":46,"time":106.36353,"velocity":0.5905511811023622},{"duration":0.13636350000000164,"midi":40,"time":106.36353,"velocity":0.5905511811023622},{"duration":0.13636350000000164,"midi":38,"time":106.36353,"velocity":0.5905511811023622},{"duration":0.13636350000000164,"midi":43,"time":106.36353,"velocity":0.5905511811023622},{"duration":0.13636350000000164,"midi":45,"time":106.4998935,"velocity":0.5905511811023622},{"duration":0.13636350000000164,"midi":35,"time":106.4998935,"velocity":0.5905511811023622},{"duration":0.13636350000000164,"midi":36,"time":106.4998935,"velocity":0.5905511811023622},{"duration":0.13636350000000164,"midi":40,"time":106.636257,"velocity":0.5905511811023622},{"duration":0.13636350000000164,"midi":38,"time":106.636257,"velocity":0.5905511811023622},{"duration":0.13636350000000164,"midi":35,"time":106.7726205,"velocity":0.5905511811023622},{"duration":0.13636350000000164,"midi":36,"time":106.7726205,"velocity":0.5905511811023622},{"duration":0.13636350000000164,"midi":44,"time":106.7726205,"velocity":0.5905511811023622},{"duration":0.13636350000000164,"midi":38,"time":106.908984,"velocity":0.5905511811023622},{"duration":0.13636350000000164,"midi":46,"time":106.908984,"velocity":0.5905511811023622},{"duration":0.13636350000000164,"midi":40,"time":106.908984,"velocity":0.5905511811023622},{"duration":0.13636349999998743,"midi":36,"time":107.0453475,"velocity":0.5905511811023622},{"duration":0.13636349999998743,"midi":35,"time":107.0453475,"velocity":0.5905511811023622},{"duration":0.13636350000000164,"midi":38,"time":107.18171099999999,"velocity":0.5905511811023622},{"duration":0.13636350000000164,"midi":40,"time":107.18171099999999,"velocity":0.5905511811023622},{"duration":0.13636350000000164,"midi":35,"time":107.3180745,"velocity":0.5905511811023622},{"duration":0.13636350000000164,"midi":36,"time":107.3180745,"velocity":0.5905511811023622},{"duration":0.13636350000000164,"midi":40,"time":107.454438,"velocity":0.5905511811023622},{"duration":0.13636350000000164,"midi":46,"time":107.454438,"velocity":0.5905511811023622},{"duration":0.13636350000000164,"midi":38,"time":107.454438,"velocity":0.5905511811023622},{"duration":0.13636350000000164,"midi":36,"time":107.5908015,"velocity":0.5905511811023622},{"duration":0.13636350000000164,"midi":44,"time":107.5908015,"velocity":0.5905511811023622},{"duration":0.13636350000000164,"midi":35,"time":107.5908015,"velocity":0.5905511811023622},{"duration":0.13636350000000164,"midi":38,"time":107.727165,"velocity":0.5905511811023622},{"duration":0.13636350000000164,"midi":40,"time":107.727165,"velocity":0.5905511811023622},{"duration":0.13636350000000164,"midi":36,"time":107.8635285,"velocity":0.5905511811023622},{"duration":0.13636350000000164,"midi":35,"time":107.8635285,"velocity":0.5905511811023622},{"duration":0.13636350000000164,"midi":46,"time":107.999892,"velocity":0.5905511811023622},{"duration":0.13636350000000164,"midi":38,"time":107.999892,"velocity":0.5905511811023622},{"duration":0.13636350000000164,"midi":40,"time":107.999892,"velocity":0.5905511811023622},{"duration":0.13636350000000164,"midi":35,"time":108.1362555,"velocity":0.5905511811023622},{"duration":0.13636350000000164,"midi":36,"time":108.1362555,"velocity":0.5905511811023622},{"duration":0.13636349999998743,"midi":40,"time":108.272619,"velocity":0.5905511811023622},{"duration":0.13636349999998743,"midi":38,"time":108.272619,"velocity":0.5905511811023622},{"duration":0.13636350000000164,"midi":36,"time":108.4089825,"velocity":0.5905511811023622},{"duration":0.13636350000000164,"midi":46,"time":108.4089825,"velocity":0.5905511811023622},{"duration":0.13636350000000164,"midi":49,"time":108.4089825,"velocity":0.5905511811023622},{"duration":0.13636350000000164,"midi":41,"time":108.4089825,"velocity":0.5905511811023622},{"duration":0.13636350000000164,"midi":35,"time":108.4089825,"velocity":0.5905511811023622},{"duration":0.13636350000000164,"midi":41,"time":108.545346,"velocity":0.5905511811023622},{"duration":0.13636350000000164,"midi":35,"time":108.545346,"velocity":0.5905511811023622},{"duration":0.13636350000000164,"midi":36,"time":108.545346,"velocity":0.5905511811023622},{"duration":0.13636350000000164,"midi":38,"time":108.545346,"velocity":0.5905511811023622},{"duration":0.13636350000000164,"midi":43,"time":108.6817095,"velocity":0.5905511811023622},{"duration":0.13636350000000164,"midi":49,"time":108.818073,"velocity":0.5905511811023622},{"duration":0.13636350000000164,"midi":36,"time":108.818073,"velocity":0.5905511811023622},{"duration":0.13636350000000164,"midi":38,"time":108.818073,"velocity":0.5905511811023622},{"duration":0.13636350000000164,"midi":46,"time":108.818073,"velocity":0.5905511811023622},{"duration":0.13636350000000164,"midi":35,"time":108.9544365,"velocity":0.5905511811023622},{"duration":0.13636350000000164,"midi":46,"time":109.0908,"velocity":0.5905511811023622},{"duration":0.06818174999999371,"midi":45,"time":109.0908,"velocity":0.5905511811023622},{"duration":0.06818175000000792,"midi":45,"time":109.15898175,"velocity":0.5905511811023622},{"duration":0.06818174999999371,"midi":45,"time":109.2271635,"velocity":0.5905511811023622},{"duration":0.06818175000000792,"midi":45,"time":109.29534525,"velocity":0.5905511811023622},{"duration":0.06818174999999371,"midi":45,"time":109.363527,"velocity":0.5905511811023622},{"duration":0.06818174999999371,"midi":45,"time":109.43170875,"velocity":0.5905511811023622},{"duration":0.13636350000000164,"midi":49,"time":109.49989049999999,"velocity":0.5905511811023622},{"duration":0.13636350000000164,"midi":36,"time":109.636254,"velocity":0.5905511811023622},{"duration":0.13636350000000164,"midi":35,"time":109.636254,"velocity":0.5905511811023622},{"duration":0.13636350000000164,"midi":38,"time":109.636254,"velocity":0.5905511811023622},{"duration":0.13636350000000164,"midi":40,"time":109.636254,"velocity":0.5905511811023622},{"duration":0.13636350000000164,"midi":46,"time":109.636254,"velocity":0.5905511811023622},{"duration":0.13636350000000164,"midi":38,"time":109.908981,"velocity":0.5905511811023622},{"duration":0.13636350000000164,"midi":40,"time":109.908981,"velocity":0.5905511811023622},{"duration":0.13636350000000164,"midi":36,"time":109.908981,"velocity":0.5905511811023622},{"duration":0.13636350000000164,"midi":35,"time":109.908981,"velocity":0.5905511811023622},{"duration":0.13636350000000164,"midi":36,"time":110.0453445,"velocity":0.5905511811023622},{"duration":0.13636350000000164,"midi":35,"time":110.0453445,"velocity":0.5905511811023622},{"duration":0.13636350000000164,"midi":40,"time":110.181708,"velocity":0.5905511811023622},{"duration":0.13636350000000164,"midi":38,"time":110.181708,"velocity":0.5905511811023622},{"duration":0.13636350000000164,"midi":46,"time":110.181708,"velocity":0.5905511811023622},{"duration":0.13636350000000164,"midi":36,"time":110.3180715,"velocity":0.5905511811023622},{"duration":0.13636350000000164,"midi":35,"time":110.3180715,"velocity":0.5905511811023622},{"duration":0.13636350000000164,"midi":38,"time":110.454435,"velocity":0.5905511811023622},{"duration":0.13636350000000164,"midi":40,"time":110.454435,"velocity":0.5905511811023622},{"duration":0.13636349999998743,"midi":35,"time":110.5907985,"velocity":0.5905511811023622},{"duration":0.13636349999998743,"midi":36,"time":110.5907985,"velocity":0.5905511811023622},{"duration":0.13636350000000164,"midi":46,"time":110.72716199999999,"velocity":0.5905511811023622},{"duration":0.13636350000000164,"midi":40,"time":110.72716199999999,"velocity":0.5905511811023622},{"duration":0.13636350000000164,"midi":38,"time":110.72716199999999,"velocity":0.5905511811023622},{"duration":0.13636350000000164,"midi":35,"time":110.8635255,"velocity":0.5905511811023622},{"duration":0.13636350000000164,"midi":36,"time":110.8635255,"velocity":0.5905511811023622},{"duration":0.13636350000000164,"midi":40,"time":110.999889,"velocity":0.5905511811023622},{"duration":0.13636350000000164,"midi":38,"time":110.999889,"velocity":0.5905511811023622},{"duration":0.13636350000000164,"midi":35,"time":111.1362525,"velocity":0.5905511811023622},{"duration":0.06818175000000792,"midi":49,"time":111.1362525,"velocity":0.5905511811023622},{"duration":0.13636350000000164,"midi":36,"time":111.1362525,"velocity":0.5905511811023622},{"duration":0.13636350000000164,"midi":38,"time":111.272616,"velocity":0.5905511811023622},{"duration":0.13636350000000164,"midi":40,"time":111.272616,"velocity":0.5905511811023622},{"duration":0.13636350000000164,"midi":46,"time":111.272616,"velocity":0.5905511811023622},{"duration":0.13636350000000164,"midi":36,"time":111.4089795,"velocity":0.5905511811023622},{"duration":0.13636350000000164,"midi":35,"time":111.4089795,"velocity":0.5905511811023622},{"duration":0.06818174999999371,"midi":48,"time":111.545343,"velocity":0.5905511811023622},{"duration":0.13636350000000164,"midi":38,"time":111.545343,"velocity":0.5905511811023622},{"duration":0.13636350000000164,"midi":40,"time":111.545343,"velocity":0.5905511811023622},{"duration":0.13636350000000164,"midi":35,"time":111.6817065,"velocity":0.5905511811023622},{"duration":0.13636350000000164,"midi":36,"time":111.6817065,"velocity":0.5905511811023622},{"duration":0.13636349999998743,"midi":40,"time":111.81807,"velocity":0.5905511811023622},{"duration":0.13636349999998743,"midi":46,"time":111.81807,"velocity":0.5905511811023622},{"duration":0.13636349999998743,"midi":38,"time":111.81807,"velocity":0.5905511811023622},{"duration":0.13636350000000164,"midi":35,"time":111.9544335,"velocity":0.5905511811023622},{"duration":0.13636350000000164,"midi":36,"time":111.9544335,"velocity":0.5905511811023622},{"duration":0.13636350000000164,"midi":40,"time":112.090797,"velocity":0.5905511811023622},{"duration":0.13636350000000164,"midi":38,"time":112.090797,"velocity":0.5905511811023622},{"duration":0.13636350000000164,"midi":35,"time":112.2271605,"velocity":0.5905511811023622},{"duration":0.13636350000000164,"midi":36,"time":112.2271605,"velocity":0.5905511811023622},{"duration":0.13636350000000164,"midi":40,"time":112.363524,"velocity":0.5905511811023622},{"duration":0.13636350000000164,"midi":38,"time":112.363524,"velocity":0.5905511811023622},{"duration":0.13636350000000164,"midi":46,"time":112.363524,"velocity":0.5905511811023622},{"duration":0.13636350000000164,"midi":35,"time":112.4998875,"velocity":0.5905511811023622},{"duration":0.13636350000000164,"midi":36,"time":112.4998875,"velocity":0.5905511811023622},{"duration":0.13636350000000164,"midi":40,"time":112.636251,"velocity":0.5905511811023622},{"duration":0.13636350000000164,"midi":38,"time":112.636251,"velocity":0.5905511811023622},{"duration":0.13636350000000164,"midi":36,"time":112.7726145,"velocity":0.5905511811023622},{"duration":0.13636350000000164,"midi":35,"time":112.7726145,"velocity":0.5905511811023622},{"duration":0.13636349999998743,"midi":46,"time":112.908978,"velocity":0.5905511811023622},{"duration":0.13636349999998743,"midi":38,"time":112.908978,"velocity":0.5905511811023622},{"duration":0.13636349999998743,"midi":40,"time":112.908978,"velocity":0.5905511811023622},{"duration":0.13636350000000164,"midi":46,"time":113.04534149999999,"velocity":0.5905511811023622},{"duration":0.13636350000000164,"midi":36,"time":113.04534149999999,"velocity":0.5905511811023622},{"duration":0.13636350000000164,"midi":35,"time":113.04534149999999,"velocity":0.5905511811023622},{"duration":0.13636350000000164,"midi":38,"time":113.181705,"velocity":0.5905511811023622},{"duration":0.13636350000000164,"midi":40,"time":113.181705,"velocity":0.5905511811023622},{"duration":0.13636350000000164,"midi":36,"time":113.3180685,"velocity":0.5905511811023622},{"duration":0.13636350000000164,"midi":35,"time":113.3180685,"velocity":0.5905511811023622},{"duration":0.13636350000000164,"midi":36,"time":113.454432,"velocity":0.5905511811023622},{"duration":0.13636350000000164,"midi":46,"time":113.454432,"velocity":0.5905511811023622},{"duration":0.13636350000000164,"midi":36,"time":113.454432,"velocity":0.5905511811023622},{"duration":0.13636350000000164,"midi":46,"time":113.454432,"velocity":0.5905511811023622},{"duration":0.13636350000000164,"midi":43,"time":113.454432,"velocity":0.5905511811023622},{"duration":0.13636350000000164,"midi":41,"time":113.5907955,"velocity":0.5905511811023622},{"duration":0.13636350000000164,"midi":35,"time":113.5907955,"velocity":0.5905511811023622},{"duration":0.13636350000000164,"midi":35,"time":113.5907955,"velocity":0.5905511811023622},{"duration":0.13636350000000164,"midi":35,"time":113.8635225,"velocity":0.5905511811023622},{"duration":0.13636350000000164,"midi":35,"time":113.8635225,"velocity":0.5905511811023622},{"duration":0.13636350000000164,"midi":46,"time":113.999886,"velocity":0.5905511811023622},{"duration":0.13636350000000164,"midi":38,"time":113.999886,"velocity":0.5905511811023622},{"duration":0.13636350000000164,"midi":38,"time":113.999886,"velocity":0.5905511811023622},{"duration":0.13636350000000164,"midi":45,"time":113.999886,"velocity":0.5905511811023622},{"duration":0.13636350000000164,"midi":40,"time":113.999886,"velocity":0.5905511811023622},{"duration":0.13636350000000164,"midi":46,"time":113.999886,"velocity":0.5905511811023622},{"duration":0.13636350000000164,"midi":36,"time":113.999886,"velocity":0.5905511811023622},{"duration":0.13636350000000164,"midi":36,"time":113.999886,"velocity":0.5905511811023622},{"duration":0.13636350000000164,"midi":40,"time":113.999886,"velocity":0.5905511811023622},{"duration":0.13636349999998743,"midi":35,"time":114.1362495,"velocity":0.5905511811023622},{"duration":0.13636349999998743,"midi":41,"time":114.1362495,"velocity":0.5905511811023622},{"duration":0.13636349999998743,"midi":35,"time":114.1362495,"velocity":0.5905511811023622},{"duration":0.13636350000000164,"midi":35,"time":114.27261299999999,"velocity":0.5905511811023622},{"duration":0.13636350000000164,"midi":35,"time":114.27261299999999,"velocity":0.5905511811023622},{"duration":0.13636350000000164,"midi":43,"time":114.4089765,"velocity":0.5905511811023622},{"duration":0.13636350000000164,"midi":40,"time":114.54534,"velocity":0.5905511811023622},{"duration":0.13636350000000164,"midi":46,"time":114.54534,"velocity":0.5905511811023622},{"duration":0.13636350000000164,"midi":36,"time":114.54534,"velocity":0.5905511811023622},{"duration":0.13636350000000164,"midi":41,"time":114.54534,"velocity":0.5905511811023622},{"duration":0.13636350000000164,"midi":46,"time":114.54534,"velocity":0.5905511811023622},{"duration":0.13636350000000164,"midi":36,"time":114.54534,"velocity":0.5905511811023622},{"duration":0.13636350000000164,"midi":38,"time":114.54534,"velocity":0.5905511811023622},{"duration":0.13636350000000164,"midi":35,"time":114.6817035,"velocity":0.5905511811023622},{"duration":0.13636350000000164,"midi":35,"time":114.6817035,"velocity":0.5905511811023622},{"duration":0.13636350000000164,"midi":43,"time":114.6817035,"velocity":0.5905511811023622},{"duration":0.13636350000000164,"midi":40,"time":114.818067,"velocity":0.5905511811023622},{"duration":0.13636350000000164,"midi":38,"time":114.818067,"velocity":0.5905511811023622},{"duration":0.13636350000000164,"midi":35,"time":114.9544305,"velocity":0.5905511811023622},{"duration":0.13636350000000164,"midi":38,"time":115.090794,"velocity":0.5905511811023622},{"duration":0.13636350000000164,"midi":36,"time":115.090794,"velocity":0.5905511811023622},{"duration":0.13636350000000164,"midi":36,"time":115.090794,"velocity":0.5905511811023622},{"duration":0.13636350000000164,"midi":46,"time":115.090794,"velocity":0.5905511811023622},{"duration":0.13636350000000164,"midi":43,"time":115.090794,"velocity":0.5905511811023622},{"duration":0.13636350000000164,"midi":40,"time":115.090794,"velocity":0.5905511811023622},{"duration":0.13636350000000164,"midi":40,"time":115.090794,"velocity":0.5905511811023622},{"duration":0.13636350000000164,"midi":46,"time":115.090794,"velocity":0.5905511811023622},{"duration":0.13636350000000164,"midi":38,"time":115.090794,"velocity":0.5905511811023622},{"duration":0.13636350000000164,"midi":35,"time":115.2271575,"velocity":0.5905511811023622},{"duration":0.13636350000000164,"midi":36,"time":115.2271575,"velocity":0.5905511811023622},{"duration":0.13636350000000164,"midi":45,"time":115.2271575,"velocity":0.5905511811023622},{"duration":0.13636349999998743,"midi":41,"time":115.363521,"velocity":0.5905511811023622},{"duration":0.13636349999998743,"midi":38,"time":115.363521,"velocity":0.5905511811023622},{"duration":0.13636349999998743,"midi":40,"time":115.363521,"velocity":0.5905511811023622},{"duration":0.13636349999998743,"midi":35,"time":115.363521,"velocity":0.5905511811023622},{"duration":0.13636349999998743,"midi":35,"time":115.363521,"velocity":0.5905511811023622},{"duration":0.13636350000000164,"midi":36,"time":115.4998845,"velocity":0.5905511811023622},{"duration":0.13636350000000164,"midi":35,"time":115.4998845,"velocity":0.5905511811023622},{"duration":0.13636350000000164,"midi":44,"time":115.4998845,"velocity":0.5905511811023622},{"duration":0.13636350000000164,"midi":36,"time":115.636248,"velocity":0.5905511811023622},{"duration":0.13636350000000164,"midi":46,"time":115.636248,"velocity":0.5905511811023622},{"duration":0.13636350000000164,"midi":36,"time":115.636248,"velocity":0.5905511811023622},{"duration":0.13636350000000164,"midi":46,"time":115.636248,"velocity":0.5905511811023622},{"duration":0.13636350000000164,"midi":38,"time":115.7726115,"velocity":0.5905511811023622},{"duration":0.13636350000000164,"midi":40,"time":115.7726115,"velocity":0.5905511811023622},{"duration":0.13636350000000164,"midi":35,"time":115.7726115,"velocity":0.5905511811023622},{"duration":0.13636350000000164,"midi":40,"time":115.7726115,"velocity":0.5905511811023622},{"duration":0.13636350000000164,"midi":35,"time":115.7726115,"velocity":0.5905511811023622},{"duration":0.13636350000000164,"midi":35,"time":116.0453385,"velocity":0.5905511811023622},{"duration":0.13636350000000164,"midi":35,"time":116.0453385,"velocity":0.5905511811023622},{"duration":0.13636350000000164,"midi":38,"time":116.181702,"velocity":0.5905511811023622},{"duration":0.13636350000000164,"midi":38,"time":116.181702,"velocity":0.5905511811023622},{"duration":0.13636350000000164,"midi":46,"time":116.181702,"velocity":0.5905511811023622},{"duration":0.13636350000000164,"midi":46,"time":116.181702,"velocity":0.5905511811023622},{"duration":0.13636350000000164,"midi":36,"time":116.181702,"velocity":0.5905511811023622},{"duration":0.13636350000000164,"midi":35,"time":116.181702,"velocity":0.5905511811023622},{"duration":0.13636350000000164,"midi":40,"time":116.181702,"velocity":0.5905511811023622},{"duration":0.13636350000000164,"midi":35,"time":116.181702,"velocity":0.5905511811023622},{"duration":0.13636350000000164,"midi":40,"time":116.181702,"velocity":0.5905511811023622},{"duration":0.13636350000000164,"midi":36,"time":116.181702,"velocity":0.5905511811023622},{"duration":0.13636350000000164,"midi":44,"time":116.3180655,"velocity":0.5905511811023622},{"duration":0.13636349999998743,"midi":35,"time":116.454429,"velocity":0.5905511811023622},{"duration":0.13636349999998743,"midi":40,"time":116.454429,"velocity":0.5905511811023622},{"duration":0.13636349999998743,"midi":35,"time":116.454429,"velocity":0.5905511811023622},{"duration":0.13636349999998743,"midi":38,"time":116.454429,"velocity":0.5905511811023622},{"duration":0.13636349999998743,"midi":40,"time":116.454429,"velocity":0.5905511811023622},{"duration":0.13636350000000164,"midi":36,"time":116.59079249999999,"velocity":0.5905511811023622},{"duration":0.13636350000000164,"midi":35,"time":116.59079249999999,"velocity":0.5905511811023622},{"duration":0.13636350000000164,"midi":36,"time":116.59079249999999,"velocity":0.5905511811023622},{"duration":0.13636350000000164,"midi":35,"time":116.59079249999999,"velocity":0.5905511811023622},{"duration":0.13636350000000164,"midi":38,"time":116.727156,"velocity":0.5905511811023622},{"duration":0.13636350000000164,"midi":46,"time":116.727156,"velocity":0.5905511811023622},{"duration":0.13636350000000164,"midi":46,"time":116.727156,"velocity":0.5905511811023622},{"duration":0.13636350000000164,"midi":40,"time":116.727156,"velocity":0.5905511811023622},{"duration":0.13636350000000164,"midi":36,"time":116.8635195,"velocity":0.5905511811023622},{"duration":0.13636350000000164,"midi":36,"time":116.8635195,"velocity":0.5905511811023622},{"duration":0.13636350000000164,"midi":35,"time":116.8635195,"velocity":0.5905511811023622},{"duration":0.13636350000000164,"midi":35,"time":116.8635195,"velocity":0.5905511811023622},{"duration":0.13636350000000164,"midi":35,"time":116.999883,"velocity":0.5905511811023622},{"duration":0.13636350000000164,"midi":40,"time":116.999883,"velocity":0.5905511811023622},{"duration":0.13636350000000164,"midi":35,"time":116.999883,"velocity":0.5905511811023622},{"duration":0.13636350000000164,"midi":38,"time":116.999883,"velocity":0.5905511811023622},{"duration":0.13636350000000164,"midi":36,"time":117.1362465,"velocity":0.5905511811023622},{"duration":0.13636350000000164,"midi":46,"time":117.1362465,"velocity":0.5905511811023622},{"duration":0.13636350000000164,"midi":46,"time":117.1362465,"velocity":0.5905511811023622},{"duration":0.13636350000000164,"midi":36,"time":117.1362465,"velocity":0.5905511811023622},{"duration":0.13636350000000164,"midi":35,"time":117.1362465,"velocity":0.5905511811023622},{"duration":0.13636350000000164,"midi":35,"time":117.1362465,"velocity":0.5905511811023622},{"duration":0.13636350000000164,"midi":40,"time":117.27261,"velocity":0.5905511811023622},{"duration":0.13636350000000164,"midi":38,"time":117.27261,"velocity":0.5905511811023622},{"duration":0.13636350000000164,"midi":38,"time":117.27261,"velocity":0.5905511811023622},{"duration":0.13636350000000164,"midi":40,"time":117.27261,"velocity":0.5905511811023622},{"duration":0.13636350000000164,"midi":35,"time":117.4089735,"velocity":0.5905511811023622},{"duration":0.13636350000000164,"midi":36,"time":117.4089735,"velocity":0.5905511811023622},{"duration":0.13636350000000164,"midi":36,"time":117.4089735,"velocity":0.5905511811023622},{"duration":0.13636350000000164,"midi":35,"time":117.4089735,"velocity":0.5905511811023622},{"duration":0.13636350000000164,"midi":38,"time":117.545337,"velocity":0.5905511811023622},{"duration":0.13636350000000164,"midi":46,"time":117.545337,"velocity":0.5905511811023622},{"duration":0.13636350000000164,"midi":40,"time":117.545337,"velocity":0.5905511811023622},{"duration":0.13636350000000164,"midi":40,"time":117.545337,"velocity":0.5905511811023622},{"duration":0.13636350000000164,"midi":38,"time":117.545337,"velocity":0.5905511811023622},{"duration":0.13636350000000164,"midi":46,"time":117.545337,"velocity":0.5905511811023622},{"duration":0.13636349999998743,"midi":35,"time":117.6817005,"velocity":0.5905511811023622},{"duration":0.13636349999998743,"midi":35,"time":117.6817005,"velocity":0.5905511811023622},{"duration":0.13636350000000164,"midi":35,"time":117.81806399999999,"velocity":0.5905511811023622},{"duration":0.13636350000000164,"midi":36,"time":117.81806399999999,"velocity":0.5905511811023622},{"duration":0.13636350000000164,"midi":36,"time":117.81806399999999,"velocity":0.5905511811023622},{"duration":0.13636350000000164,"midi":46,"time":117.81806399999999,"velocity":0.5905511811023622},{"duration":0.13636350000000164,"midi":35,"time":117.81806399999999,"velocity":0.5905511811023622},{"duration":0.13636350000000164,"midi":46,"time":117.81806399999999,"velocity":0.5905511811023622},{"duration":0.13636350000000164,"midi":35,"time":117.9544275,"velocity":0.5905511811023622},{"duration":0.13636350000000164,"midi":35,"time":117.9544275,"velocity":0.5905511811023622},{"duration":0.13636350000000164,"midi":40,"time":118.363518,"velocity":0.5905511811023622},{"duration":0.13636350000000164,"midi":38,"time":118.363518,"velocity":0.5905511811023622},{"duration":0.13636350000000164,"midi":40,"time":118.363518,"velocity":0.5905511811023622},{"duration":0.13636350000000164,"midi":35,"time":118.363518,"velocity":0.5905511811023622},{"duration":0.13636350000000164,"midi":38,"time":118.363518,"velocity":0.5905511811023622},{"duration":0.13636350000000164,"midi":46,"time":118.363518,"velocity":0.5905511811023622},{"duration":0.13636350000000164,"midi":46,"time":118.363518,"velocity":0.5905511811023622},{"duration":0.13636350000000164,"midi":35,"time":118.363518,"velocity":0.5905511811023622},{"duration":0.13636350000000164,"midi":35,"time":118.636245,"velocity":0.5905511811023622},{"duration":0.13636350000000164,"midi":35,"time":118.636245,"velocity":0.5905511811023622},{"duration":0.13636349999998743,"midi":46,"time":118.908972,"velocity":0.5905511811023622},{"duration":0.13636349999998743,"midi":36,"time":118.908972,"velocity":0.5905511811023622},{"duration":0.13636349999998743,"midi":36,"time":118.908972,"velocity":0.5905511811023622},{"duration":0.13636349999998743,"midi":46,"time":118.908972,"velocity":0.5905511811023622},{"duration":0.13636350000000164,"midi":40,"time":119.0453355,"velocity":0.5905511811023622},{"duration":0.13636350000000164,"midi":35,"time":119.0453355,"velocity":0.5905511811023622},{"duration":0.06818175000000792,"midi":47,"time":119.0453355,"velocity":0.5905511811023622},{"duration":0.13636350000000164,"midi":35,"time":119.0453355,"velocity":0.5905511811023622},{"duration":0.13636350000000164,"midi":38,"time":119.0453355,"velocity":0.5905511811023622},{"duration":0.13636350000000164,"midi":40,"time":119.0453355,"velocity":0.5905511811023622},{"duration":0.06818174999999371,"midi":43,"time":119.11351725,"velocity":0.5905511811023622},{"duration":0.06818174999999371,"midi":50,"time":119.11351725,"velocity":0.5905511811023622},{"duration":0.13636350000000164,"midi":40,"time":119.181699,"velocity":0.5905511811023622},{"duration":0.06818175000000792,"midi":48,"time":119.181699,"velocity":0.5905511811023622},{"duration":0.13636350000000164,"midi":40,"time":119.181699,"velocity":0.5905511811023622},{"duration":0.13636350000000164,"midi":38,"time":119.181699,"velocity":0.5905511811023622},{"duration":0.06818174999999371,"midi":45,"time":119.24988075,"velocity":0.5905511811023622},{"duration":0.13636350000000164,"midi":35,"time":119.3180625,"velocity":0.5905511811023622},{"duration":0.13636350000000164,"midi":35,"time":119.3180625,"velocity":0.5905511811023622},{"duration":0.06818175000000792,"midi":48,"time":119.3180625,"velocity":0.5905511811023622},{"duration":0.06818174999999371,"midi":50,"time":119.38624425,"velocity":0.5905511811023622},{"duration":0.13636350000000164,"midi":35,"time":119.454426,"velocity":0.5905511811023622},{"duration":0.13636350000000164,"midi":38,"time":119.454426,"velocity":0.5905511811023622},{"duration":0.13636350000000164,"midi":38,"time":119.454426,"velocity":0.5905511811023622},{"duration":0.13636350000000164,"midi":40,"time":119.454426,"velocity":0.5905511811023622},{"duration":0.13636350000000164,"midi":46,"time":119.454426,"velocity":0.5905511811023622},{"duration":0.06818174999999371,"midi":49,"time":119.454426,"velocity":0.5905511811023622},{"duration":0.13636350000000164,"midi":46,"time":119.454426,"velocity":0.5905511811023622},{"duration":0.13636350000000164,"midi":40,"time":119.454426,"velocity":0.5905511811023622},{"duration":0.13636350000000164,"midi":35,"time":119.454426,"velocity":0.5905511811023622},{"duration":0.13636350000000164,"midi":38,"time":119.727153,"velocity":0.5905511811023622},{"duration":0.13636350000000164,"midi":35,"time":119.727153,"velocity":0.5905511811023622},{"duration":0.13636350000000164,"midi":40,"time":119.727153,"velocity":0.5905511811023622},{"duration":0.13636350000000164,"midi":35,"time":119.727153,"velocity":0.5905511811023622},{"duration":0.13636350000000164,"midi":38,"time":119.727153,"velocity":0.5905511811023622},{"duration":0.13636350000000164,"midi":40,"time":119.727153,"velocity":0.5905511811023622},{"duration":0.06818174999999371,"midi":49,"time":119.8635165,"velocity":0.5905511811023622},{"duration":0.13636349999998743,"midi":40,"time":119.99988,"velocity":0.5905511811023622},{"duration":0.13636349999998743,"midi":46,"time":119.99988,"velocity":0.5905511811023622},{"duration":0.06818174999999371,"midi":48,"time":119.99988,"velocity":0.5905511811023622},{"duration":0.13636349999998743,"midi":46,"time":119.99988,"velocity":0.5905511811023622},{"duration":0.13636349999998743,"midi":53,"time":119.99988,"velocity":0.5905511811023622},{"duration":0.13636349999998743,"midi":38,"time":119.99988,"velocity":0.5905511811023622},{"duration":0.13636350000000164,"midi":35,"time":120.13624349999999,"velocity":0.5905511811023622},{"duration":0.06818175000000792,"midi":48,"time":120.13624349999999,"velocity":0.5905511811023622},{"duration":0.13636350000000164,"midi":36,"time":120.13624349999999,"velocity":0.5905511811023622},{"duration":0.13636350000000164,"midi":40,"time":120.272607,"velocity":0.5905511811023622},{"duration":0.13636350000000164,"midi":38,"time":120.272607,"velocity":0.5905511811023622},{"duration":0.06818175000000792,"midi":48,"time":120.272607,"velocity":0.5905511811023622},{"duration":0.13636350000000164,"midi":35,"time":120.4089705,"velocity":0.5905511811023622},{"duration":0.13636350000000164,"midi":51,"time":120.4089705,"velocity":0.5905511811023622},{"duration":0.13636350000000164,"midi":36,"time":120.4089705,"velocity":0.5905511811023622},{"duration":0.13636350000000164,"midi":38,"time":120.545334,"velocity":0.5905511811023622},{"duration":0.13636350000000164,"midi":46,"time":120.545334,"velocity":0.5905511811023622},{"duration":0.13636350000000164,"midi":40,"time":120.545334,"velocity":0.5905511811023622},{"duration":0.13636350000000164,"midi":46,"time":120.545334,"velocity":0.5905511811023622},{"duration":0.13636350000000164,"midi":36,"time":120.6816975,"velocity":0.5905511811023622},{"duration":0.13636350000000164,"midi":35,"time":120.6816975,"velocity":0.5905511811023622},{"duration":0.13636350000000164,"midi":40,"time":120.818061,"velocity":0.5905511811023622},{"duration":0.13636350000000164,"midi":51,"time":120.818061,"velocity":0.5905511811023622},{"duration":0.13636350000000164,"midi":38,"time":120.818061,"velocity":0.5905511811023622},{"duration":0.13636350000000164,"midi":36,"time":120.9544245,"velocity":0.5905511811023622},{"duration":0.13636350000000164,"midi":35,"time":120.9544245,"velocity":0.5905511811023622},{"duration":0.13636350000000164,"midi":46,"time":121.090788,"velocity":0.5905511811023622},{"duration":0.13636350000000164,"midi":40,"time":121.090788,"velocity":0.5905511811023622},{"duration":0.13636350000000164,"midi":38,"time":121.090788,"velocity":0.5905511811023622},{"duration":0.13636350000000164,"midi":46,"time":121.090788,"velocity":0.5905511811023622},{"duration":0.13636349999998743,"midi":35,"time":121.2271515,"velocity":0.5905511811023622},{"duration":0.13636349999998743,"midi":36,"time":121.2271515,"velocity":0.5905511811023622},{"duration":0.13636349999998743,"midi":51,"time":121.2271515,"velocity":0.5905511811023622},{"duration":0.13636350000000164,"midi":40,"time":121.36351499999999,"velocity":0.5905511811023622},{"duration":0.13636350000000164,"midi":38,"time":121.36351499999999,"velocity":0.5905511811023622},{"duration":0.13636350000000164,"midi":36,"time":121.4998785,"velocity":0.5905511811023622},{"duration":0.13636350000000164,"midi":35,"time":121.4998785,"velocity":0.5905511811023622},{"duration":0.13636350000000164,"midi":38,"time":121.636242,"velocity":0.5905511811023622},{"duration":0.13636350000000164,"midi":40,"time":121.636242,"velocity":0.5905511811023622},{"duration":0.13636350000000164,"midi":38,"time":121.636242,"velocity":0.5905511811023622},{"duration":0.13636350000000164,"midi":40,"time":121.636242,"velocity":0.5905511811023622},{"duration":0.13636350000000164,"midi":46,"time":121.636242,"velocity":0.5905511811023622},{"duration":0.13636350000000164,"midi":42,"time":121.636242,"velocity":0.5905511811023622},{"duration":0.13636350000000164,"midi":46,"time":121.636242,"velocity":0.5905511811023622},{"duration":0.13636350000000164,"midi":38,"time":121.636242,"velocity":0.5905511811023622},{"duration":0.13636350000000164,"midi":36,"time":121.636242,"velocity":0.5905511811023622},{"duration":0.13636350000000164,"midi":35,"time":121.636242,"velocity":0.5905511811023622},{"duration":0.13636350000000164,"midi":35,"time":121.636242,"velocity":0.5905511811023622},{"duration":0.13636350000000164,"midi":36,"time":121.636242,"velocity":0.5905511811023622},{"duration":0.13636350000000164,"midi":51,"time":121.636242,"velocity":0.5905511811023622},{"duration":0.13636350000000164,"midi":40,"time":121.636242,"velocity":0.5905511811023622},{"duration":0.13636350000000164,"midi":36,"time":121.7726055,"velocity":0.5905511811023622},{"duration":0.13636350000000164,"midi":38,"time":121.7726055,"velocity":0.5905511811023622},{"duration":0.13636350000000164,"midi":35,"time":121.7726055,"velocity":0.5905511811023622},{"duration":0.13636350000000164,"midi":46,"time":121.7726055,"velocity":0.5905511811023622},{"duration":0.13636350000000164,"midi":42,"time":121.7726055,"velocity":0.5905511811023622},{"duration":0.13636350000000164,"midi":42,"time":121.908969,"velocity":0.5905511811023622},{"duration":0.13636350000000164,"midi":38,"time":121.908969,"velocity":0.5905511811023622},{"duration":0.13636350000000164,"midi":38,"time":121.908969,"velocity":0.5905511811023622},{"duration":0.13636350000000164,"midi":40,"time":121.908969,"velocity":0.5905511811023622},{"duration":0.13636350000000164,"midi":36,"time":121.908969,"velocity":0.5905511811023622},{"duration":0.13636350000000164,"midi":36,"time":121.908969,"velocity":0.5905511811023622},{"duration":0.13636350000000164,"midi":42,"time":122.0453325,"velocity":0.5905511811023622},{"duration":0.13636350000000164,"midi":38,"time":122.0453325,"velocity":0.5905511811023622},{"duration":0.13636350000000164,"midi":38,"time":122.0453325,"velocity":0.5905511811023622},{"duration":0.06818174999999371,"midi":40,"time":122.0453325,"velocity":0.5905511811023622},{"duration":0.06818174999999371,"midi":40,"time":122.0453325,"velocity":0.5905511811023622},{"duration":0.13636350000000164,"midi":36,"time":122.0453325,"velocity":0.5905511811023622},{"duration":0.06818174999999371,"midi":40,"time":122.0453325,"velocity":0.5905511811023622},{"duration":0.13636350000000164,"midi":35,"time":122.0453325,"velocity":0.5905511811023622},{"duration":0.13636350000000164,"midi":40,"time":122.0453325,"velocity":0.5905511811023622},{"duration":0.06818175000000792,"midi":40,"time":122.11351425,"velocity":0.5905511811023622},{"duration":0.06818175000000792,"midi":40,"time":122.11351425,"velocity":0.5905511811023622},{"duration":0.13636350000000164,"midi":57,"time":122.181696,"velocity":0.5905511811023622},{"duration":0.13636350000000164,"midi":40,"time":122.181696,"velocity":0.5905511811023622},{"duration":0.13636350000000164,"midi":59,"time":122.181696,"velocity":0.5905511811023622},{"duration":0.13636350000000164,"midi":59,"time":122.181696,"velocity":0.5905511811023622},{"duration":0.13636350000000164,"midi":46,"time":122.181696,"velocity":0.5905511811023622},{"duration":0.13636350000000164,"midi":59,"time":122.181696,"velocity":0.5905511811023622},{"duration":0.13636350000000164,"midi":38,"time":122.181696,"velocity":0.5905511811023622},{"duration":0.13636350000000164,"midi":43,"time":122.181696,"velocity":0.5905511811023622},{"duration":0.13636350000000164,"midi":36,"time":122.3180595,"velocity":0.5905511811023622},{"duration":0.13636350000000164,"midi":35,"time":122.3180595,"velocity":0.5905511811023622},{"duration":0.13636349999998743,"midi":38,"time":122.454423,"velocity":0.5905511811023622},{"duration":0.13636349999998743,"midi":40,"time":122.454423,"velocity":0.5905511811023622},{"duration":0.13636350000000164,"midi":35,"time":122.5907865,"velocity":0.5905511811023622},{"duration":0.13636350000000164,"midi":36,"time":122.5907865,"velocity":0.5905511811023622},{"duration":0.13636350000000164,"midi":45,"time":122.72715,"velocity":0.5905511811023622},{"duration":0.13636350000000164,"midi":46,"time":122.72715,"velocity":0.5905511811023622},{"duration":0.13636350000000164,"midi":38,"time":122.72715,"velocity":0.5905511811023622},{"duration":0.13636350000000164,"midi":40,"time":122.72715,"velocity":0.5905511811023622},{"duration":0.13636350000000164,"midi":35,"time":122.8635135,"velocity":0.5905511811023622},{"duration":0.13636350000000164,"midi":36,"time":122.8635135,"velocity":0.5905511811023622},{"duration":0.13636350000000164,"midi":40,"time":122.999877,"velocity":0.5905511811023622},{"duration":0.13636350000000164,"midi":38,"time":122.999877,"velocity":0.5905511811023622},{"duration":0.13636350000000164,"midi":35,"time":123.1362405,"velocity":0.5905511811023622},{"duration":0.13636350000000164,"midi":36,"time":123.1362405,"velocity":0.5905511811023622},{"duration":0.13636350000000164,"midi":43,"time":123.1362405,"velocity":0.5905511811023622},{"duration":0.13636350000000164,"midi":46,"time":123.272604,"velocity":0.5905511811023622},{"duration":0.13636350000000164,"midi":40,"time":123.272604,"velocity":0.5905511811023622},{"duration":0.13636350000000164,"midi":38,"time":123.272604,"velocity":0.5905511811023622},{"duration":0.13636350000000164,"midi":36,"time":123.4089675,"velocity":0.5905511811023622},{"duration":0.13636350000000164,"midi":35,"time":123.4089675,"velocity":0.5905511811023622},{"duration":0.13636350000000164,"midi":43,"time":123.4089675,"velocity":0.5905511811023622},{"duration":0.13636349999998743,"midi":40,"time":123.545331,"velocity":0.5905511811023622},{"duration":0.13636349999998743,"midi":38,"time":123.545331,"velocity":0.5905511811023622},{"duration":0.13636350000000164,"midi":36,"time":123.68169449999999,"velocity":0.5905511811023622},{"duration":0.13636350000000164,"midi":35,"time":123.68169449999999,"velocity":0.5905511811023622},{"duration":0.13636350000000164,"midi":46,"time":123.818058,"velocity":0.5905511811023622},{"duration":0.13636350000000164,"midi":38,"time":123.818058,"velocity":0.5905511811023622},{"duration":0.13636350000000164,"midi":43,"time":123.818058,"velocity":0.5905511811023622},{"duration":0.13636350000000164,"midi":40,"time":123.818058,"velocity":0.5905511811023622},{"duration":0.13636350000000164,"midi":36,"time":123.9544215,"velocity":0.5905511811023622},{"duration":0.13636350000000164,"midi":45,"time":123.9544215,"velocity":0.5905511811023622},{"duration":0.13636350000000164,"midi":35,"time":123.9544215,"velocity":0.5905511811023622},{"duration":0.13636350000000164,"midi":38,"time":124.090785,"velocity":0.5905511811023622},{"duration":0.13636350000000164,"midi":40,"time":124.090785,"velocity":0.5905511811023622},{"duration":0.13636350000000164,"midi":44,"time":124.2271485,"velocity":0.5905511811023622},{"duration":0.13636350000000164,"midi":36,"time":124.2271485,"velocity":0.5905511811023622},{"duration":0.13636350000000164,"midi":35,"time":124.2271485,"velocity":0.5905511811023622},{"duration":0.13636350000000164,"midi":40,"time":124.363512,"velocity":0.5905511811023622},{"duration":0.13636350000000164,"midi":46,"time":124.363512,"velocity":0.5905511811023622},{"duration":0.13636350000000164,"midi":38,"time":124.363512,"velocity":0.5905511811023622},{"duration":0.13636350000000164,"midi":35,"time":124.4998755,"velocity":0.5905511811023622},{"duration":0.13636350000000164,"midi":36,"time":124.4998755,"velocity":0.5905511811023622},{"duration":0.13636350000000164,"midi":40,"time":124.636239,"velocity":0.5905511811023622},{"duration":0.13636350000000164,"midi":38,"time":124.636239,"velocity":0.5905511811023622},{"duration":0.13636349999998743,"midi":35,"time":124.7726025,"velocity":0.5905511811023622},{"duration":0.13636349999998743,"midi":36,"time":124.7726025,"velocity":0.5905511811023622},{"duration":0.13636350000000164,"midi":40,"time":124.90896599999999,"velocity":0.5905511811023622},{"duration":0.13636350000000164,"midi":38,"time":124.90896599999999,"velocity":0.5905511811023622},{"duration":0.13636350000000164,"midi":46,"time":124.90896599999999,"velocity":0.5905511811023622},{"duration":0.13636350000000164,"midi":36,"time":125.0453295,"velocity":0.5905511811023622},{"duration":0.13636350000000164,"midi":44,"time":125.0453295,"velocity":0.5905511811023622},{"duration":0.13636350000000164,"midi":35,"time":125.0453295,"velocity":0.5905511811023622},{"duration":0.13636350000000164,"midi":38,"time":125.181693,"velocity":0.5905511811023622},{"duration":0.13636350000000164,"midi":40,"time":125.181693,"velocity":0.5905511811023622},{"duration":0.13636350000000164,"midi":36,"time":125.3180565,"velocity":0.5905511811023622},{"duration":0.13636350000000164,"midi":35,"time":125.3180565,"velocity":0.5905511811023622},{"duration":0.13636350000000164,"midi":40,"time":125.45442,"velocity":0.5905511811023622},{"duration":0.13636350000000164,"midi":46,"time":125.45442,"velocity":0.5905511811023622},{"duration":0.13636350000000164,"midi":38,"time":125.45442,"velocity":0.5905511811023622},{"duration":0.13636350000000164,"midi":36,"time":125.5907835,"velocity":0.5905511811023622},{"duration":0.13636350000000164,"midi":35,"time":125.5907835,"velocity":0.5905511811023622},{"duration":0.13636350000000164,"midi":40,"time":125.727147,"velocity":0.5905511811023622},{"duration":0.13636350000000164,"midi":38,"time":125.727147,"velocity":0.5905511811023622},{"duration":0.13636350000000164,"midi":41,"time":125.8635105,"velocity":0.5905511811023622},{"duration":0.13636350000000164,"midi":46,"time":125.8635105,"velocity":0.5905511811023622},{"duration":0.13636350000000164,"midi":35,"time":125.8635105,"velocity":0.5905511811023622},{"duration":0.13636350000000164,"midi":36,"time":125.8635105,"velocity":0.5905511811023622},{"duration":0.13636350000000164,"midi":49,"time":125.8635105,"velocity":0.5905511811023622},{"duration":0.13636349999998743,"midi":35,"time":125.999874,"velocity":0.5905511811023622},{"duration":0.13636349999998743,"midi":41,"time":125.999874,"velocity":0.5905511811023622},{"duration":0.13636349999998743,"midi":36,"time":125.999874,"velocity":0.5905511811023622},{"duration":0.13636349999998743,"midi":38,"time":125.999874,"velocity":0.5905511811023622},{"duration":0.13636350000000164,"midi":43,"time":126.1362375,"velocity":0.5905511811023622},{"duration":0.13636350000000164,"midi":38,"time":126.272601,"velocity":0.5905511811023622},{"duration":0.13636350000000164,"midi":46,"time":126.272601,"velocity":0.5905511811023622},{"duration":0.13636350000000164,"midi":36,"time":126.272601,"velocity":0.5905511811023622},{"duration":0.13636350000000164,"midi":49,"time":126.272601,"velocity":0.5905511811023622},{"duration":0.13636350000000164,"midi":35,"time":126.4089645,"velocity":0.5905511811023622},{"duration":0.06818175000000792,"midi":45,"time":126.545328,"velocity":0.5905511811023622},{"duration":0.13636350000000164,"midi":46,"time":126.545328,"velocity":0.5905511811023622},{"duration":0.06818174999999371,"midi":45,"time":126.61350975,"velocity":0.5905511811023622},{"duration":0.06818174999999371,"midi":45,"time":126.6816915,"velocity":0.5905511811023622},{"duration":0.06818175000000792,"midi":45,"time":126.74987325,"velocity":0.5905511811023622},{"duration":0.06818174999999371,"midi":45,"time":126.818055,"velocity":0.5905511811023622},{"duration":0.06818175000000792,"midi":45,"time":126.88623675,"velocity":0.5905511811023622},{"duration":0.13636350000000164,"midi":49,"time":126.9544185,"velocity":0.5905511811023622},{"duration":0.13636349999998743,"midi":36,"time":127.090782,"velocity":0.5905511811023622},{"duration":0.13636349999998743,"midi":35,"time":127.090782,"velocity":0.5905511811023622},{"duration":0.13636349999998743,"midi":38,"time":127.090782,"velocity":0.5905511811023622},{"duration":0.13636349999998743,"midi":46,"time":127.090782,"velocity":0.5905511811023622},{"duration":0.13636349999998743,"midi":40,"time":127.090782,"velocity":0.5905511811023622},{"duration":0.13636350000000164,"midi":38,"time":127.363509,"velocity":0.5905511811023622},{"duration":0.13636350000000164,"midi":35,"time":127.363509,"velocity":0.5905511811023622},{"duration":0.13636350000000164,"midi":36,"time":127.363509,"velocity":0.5905511811023622},{"duration":0.13636350000000164,"midi":40,"time":127.363509,"velocity":0.5905511811023622},{"duration":0.13636350000000164,"midi":36,"time":127.4998725,"velocity":0.5905511811023622},{"duration":0.13636350000000164,"midi":35,"time":127.4998725,"velocity":0.5905511811023622},{"duration":0.13636350000000164,"midi":38,"time":127.636236,"velocity":0.5905511811023622},{"duration":0.13636350000000164,"midi":46,"time":127.636236,"velocity":0.5905511811023622},{"duration":0.13636350000000164,"midi":40,"time":127.636236,"velocity":0.5905511811023622},{"duration":0.13636350000000164,"midi":35,"time":127.7725995,"velocity":0.5905511811023622},{"duration":0.13636350000000164,"midi":36,"time":127.7725995,"velocity":0.5905511811023622},{"duration":0.13636349999998743,"midi":38,"time":127.908963,"velocity":0.5905511811023622},{"duration":0.13636349999998743,"midi":40,"time":127.908963,"velocity":0.5905511811023622},{"duration":0.13636350000001585,"midi":35,"time":128.0453265,"velocity":0.5905511811023622},{"duration":0.13636350000001585,"midi":36,"time":128.0453265,"velocity":0.5905511811023622},{"duration":0.13636349999998743,"midi":40,"time":128.18169,"velocity":0.5905511811023622},{"duration":0.13636349999998743,"midi":46,"time":128.18169,"velocity":0.5905511811023622},{"duration":0.13636349999998743,"midi":38,"time":128.18169,"velocity":0.5905511811023622},{"duration":0.13636350000001585,"midi":36,"time":128.3180535,"velocity":0.5905511811023622},{"duration":0.13636350000001585,"midi":35,"time":128.3180535,"velocity":0.5905511811023622},{"duration":0.13636349999998743,"midi":38,"time":128.454417,"velocity":0.5905511811023622},{"duration":0.13636349999998743,"midi":40,"time":128.454417,"velocity":0.5905511811023622},{"duration":0.06818175000000792,"midi":49,"time":128.5907805,"velocity":0.5905511811023622},{"duration":0.13636350000001585,"midi":35,"time":128.5907805,"velocity":0.5905511811023622},{"duration":0.13636350000001585,"midi":36,"time":128.5907805,"velocity":0.5905511811023622},{"duration":0.13636349999998743,"midi":38,"time":128.727144,"velocity":0.5905511811023622},{"duration":0.13636349999998743,"midi":40,"time":128.727144,"velocity":0.5905511811023622},{"duration":0.13636349999998743,"midi":46,"time":128.727144,"velocity":0.5905511811023622},{"duration":0.13636349999998743,"midi":36,"time":128.8635075,"velocity":0.5905511811023622},{"duration":0.13636349999998743,"midi":35,"time":128.8635075,"velocity":0.5905511811023622},{"duration":0.13636350000001585,"midi":38,"time":128.99987099999998,"velocity":0.5905511811023622},{"duration":0.06818175000000792,"midi":48,"time":128.99987099999998,"velocity":0.5905511811023622},{"duration":0.13636350000001585,"midi":40,"time":128.99987099999998,"velocity":0.5905511811023622},{"duration":0.13636349999998743,"midi":35,"time":129.1362345,"velocity":0.5905511811023622},{"duration":0.13636349999998743,"midi":36,"time":129.1362345,"velocity":0.5905511811023622},{"duration":0.13636350000001585,"midi":40,"time":129.272598,"velocity":0.5905511811023622},{"duration":0.13636350000001585,"midi":46,"time":129.272598,"velocity":0.5905511811023622},{"duration":0.13636350000001585,"midi":38,"time":129.272598,"velocity":0.5905511811023622},{"duration":0.13636349999998743,"midi":36,"time":129.4089615,"velocity":0.5905511811023622},{"duration":0.13636349999998743,"midi":35,"time":129.4089615,"velocity":0.5905511811023622},{"duration":0.13636350000001585,"midi":40,"time":129.545325,"velocity":0.5905511811023622},{"duration":0.13636350000001585,"midi":38,"time":129.545325,"velocity":0.5905511811023622},{"duration":0.13636349999998743,"midi":35,"time":129.6816885,"velocity":0.5905511811023622},{"duration":0.13636349999998743,"midi":36,"time":129.6816885,"velocity":0.5905511811023622},{"duration":0.13636350000001585,"midi":46,"time":129.818052,"velocity":0.5905511811023622},{"duration":0.13636350000001585,"midi":40,"time":129.818052,"velocity":0.5905511811023622},{"duration":0.13636350000001585,"midi":38,"time":129.818052,"velocity":0.5905511811023622},{"duration":0.13636349999998743,"midi":36,"time":129.9544155,"velocity":0.5905511811023622},{"duration":0.13636349999998743,"midi":35,"time":129.9544155,"velocity":0.5905511811023622},{"duration":0.13636349999998743,"midi":38,"time":130.090779,"velocity":0.5905511811023622},{"duration":0.13636349999998743,"midi":40,"time":130.090779,"velocity":0.5905511811023622},{"duration":0.13636350000001585,"midi":35,"time":130.22714249999999,"velocity":0.5905511811023622},{"duration":0.13636350000001585,"midi":36,"time":130.22714249999999,"velocity":0.5905511811023622},{"duration":0.13636349999998743,"midi":46,"time":130.363506,"velocity":0.5905511811023622},{"duration":0.13636349999998743,"midi":40,"time":130.363506,"velocity":0.5905511811023622},{"duration":0.13636349999998743,"midi":38,"time":130.363506,"velocity":0.5905511811023622},{"duration":0.13636350000001585,"midi":36,"time":130.4998695,"velocity":0.5905511811023622},{"duration":0.13636350000001585,"midi":46,"time":130.4998695,"velocity":0.5905511811023622},{"duration":0.13636350000001585,"midi":35,"time":130.4998695,"velocity":0.5905511811023622},{"duration":0.13636349999998743,"midi":38,"time":130.636233,"velocity":0.5905511811023622},{"duration":0.13636349999998743,"midi":40,"time":130.636233,"velocity":0.5905511811023622},{"duration":0.13636350000001585,"midi":36,"time":130.7725965,"velocity":0.5905511811023622},{"duration":0.13636350000001585,"midi":35,"time":130.7725965,"velocity":0.5905511811023622},{"duration":0.13636349999998743,"midi":46,"time":130.90896,"velocity":0.5905511811023622},{"duration":0.13636349999998743,"midi":43,"time":130.90896,"velocity":0.5905511811023622},{"duration":0.13636349999998743,"midi":36,"time":130.90896,"velocity":0.5905511811023622},{"duration":0.13636349999998743,"midi":46,"time":130.90896,"velocity":0.5905511811023622},{"duration":0.13636349999998743,"midi":36,"time":130.90896,"velocity":0.5905511811023622},{"duration":0.13636350000001585,"midi":35,"time":131.0453235,"velocity":0.5905511811023622},{"duration":0.13636350000001585,"midi":35,"time":131.0453235,"velocity":0.5905511811023622},{"duration":0.13636350000001585,"midi":41,"time":131.0453235,"velocity":0.5905511811023622},{"duration":0.13636349999998743,"midi":35,"time":131.3180505,"velocity":0.5905511811023622},{"duration":0.13636349999998743,"midi":35,"time":131.3180505,"velocity":0.5905511811023622},{"duration":0.13636350000001585,"midi":40,"time":131.45441399999999,"velocity":0.5905511811023622},{"duration":0.13636350000001585,"midi":46,"time":131.45441399999999,"velocity":0.5905511811023622},{"duration":0.13636350000001585,"midi":36,"time":131.45441399999999,"velocity":0.5905511811023622},{"duration":0.13636350000001585,"midi":40,"time":131.45441399999999,"velocity":0.5905511811023622},{"duration":0.13636350000001585,"midi":38,"time":131.45441399999999,"velocity":0.5905511811023622},{"duration":0.13636350000001585,"midi":38,"time":131.45441399999999,"velocity":0.5905511811023622},{"duration":0.13636350000001585,"midi":36,"time":131.45441399999999,"velocity":0.5905511811023622},{"duration":0.13636350000001585,"midi":45,"time":131.45441399999999,"velocity":0.5905511811023622},{"duration":0.13636350000001585,"midi":46,"time":131.45441399999999,"velocity":0.5905511811023622},{"duration":0.13636349999998743,"midi":35,"time":131.5907775,"velocity":0.5905511811023622},{"duration":0.13636349999998743,"midi":41,"time":131.5907775,"velocity":0.5905511811023622},{"duration":0.13636349999998743,"midi":35,"time":131.5907775,"velocity":0.5905511811023622},{"duration":0.13636350000001585,"midi":35,"time":131.727141,"velocity":0.5905511811023622},{"duration":0.13636350000001585,"midi":35,"time":131.727141,"velocity":0.5905511811023622},{"duration":0.13636349999998743,"midi":43,"time":131.8635045,"velocity":0.5905511811023622},{"duration":0.13636350000001585,"midi":36,"time":131.999868,"velocity":0.5905511811023622},{"duration":0.13636350000001585,"midi":40,"time":131.999868,"velocity":0.5905511811023622},{"duration":0.13636350000001585,"midi":46,"time":131.999868,"velocity":0.5905511811023622},{"duration":0.13636350000001585,"midi":36,"time":131.999868,"velocity":0.5905511811023622},{"duration":0.13636350000001585,"midi":41,"time":131.999868,"velocity":0.5905511811023622},{"duration":0.13636350000001585,"midi":46,"time":131.999868,"velocity":0.5905511811023622},{"duration":0.13636350000001585,"midi":38,"time":131.999868,"velocity":0.5905511811023622},{"duration":0.13636349999998743,"midi":43,"time":132.1362315,"velocity":0.5905511811023622},{"duration":0.13636349999998743,"midi":35,"time":132.1362315,"velocity":0.5905511811023622},{"duration":0.13636349999998743,"midi":35,"time":132.1362315,"velocity":0.5905511811023622},{"duration":0.13636350000001585,"midi":38,"time":132.272595,"velocity":0.5905511811023622},{"duration":0.13636350000001585,"midi":40,"time":132.272595,"velocity":0.5905511811023622},{"duration":0.13636349999998743,"midi":35,"time":132.4089585,"velocity":0.5905511811023622},{"duration":0.13636349999998743,"midi":46,"time":132.545322,"velocity":0.5905511811023622},{"duration":0.13636349999998743,"midi":40,"time":132.545322,"velocity":0.5905511811023622},{"duration":0.13636349999998743,"midi":36,"time":132.545322,"velocity":0.5905511811023622},{"duration":0.13636349999998743,"midi":36,"time":132.545322,"velocity":0.5905511811023622},{"duration":0.13636349999998743,"midi":43,"time":132.545322,"velocity":0.5905511811023622},{"duration":0.13636349999998743,"midi":40,"time":132.545322,"velocity":0.5905511811023622},{"duration":0.13636349999998743,"midi":38,"time":132.545322,"velocity":0.5905511811023622},{"duration":0.13636349999998743,"midi":38,"time":132.545322,"velocity":0.5905511811023622},{"duration":0.13636349999998743,"midi":46,"time":132.545322,"velocity":0.5905511811023622},{"duration":0.13636350000001585,"midi":35,"time":132.6816855,"velocity":0.5905511811023622},{"duration":0.13636350000001585,"midi":36,"time":132.6816855,"velocity":0.5905511811023622},{"duration":0.13636350000001585,"midi":45,"time":132.6816855,"velocity":0.5905511811023622},{"duration":0.13636349999998743,"midi":38,"time":132.818049,"velocity":0.5905511811023622},{"duration":0.13636349999998743,"midi":35,"time":132.818049,"velocity":0.5905511811023622},{"duration":0.13636349999998743,"midi":41,"time":132.818049,"velocity":0.5905511811023622},{"duration":0.13636349999998743,"midi":40,"time":132.818049,"velocity":0.5905511811023622},{"duration":0.13636349999998743,"midi":35,"time":132.818049,"velocity":0.5905511811023622},{"duration":0.13636350000001585,"midi":35,"time":132.9544125,"velocity":0.5905511811023622},{"duration":0.13636350000001585,"midi":36,"time":132.9544125,"velocity":0.5905511811023622},{"duration":0.13636350000001585,"midi":44,"time":132.9544125,"velocity":0.5905511811023622},{"duration":0.13636349999998743,"midi":46,"time":133.090776,"velocity":0.5905511811023622},{"duration":0.13636349999998743,"midi":36,"time":133.090776,"velocity":0.5905511811023622},{"duration":0.13636349999998743,"midi":36,"time":133.090776,"velocity":0.5905511811023622},{"duration":0.13636349999998743,"midi":46,"time":133.090776,"velocity":0.5905511811023622},{"duration":0.13636350000001585,"midi":35,"time":133.2271395,"velocity":0.5905511811023622},{"duration":0.13636350000001585,"midi":35,"time":133.2271395,"velocity":0.5905511811023622},{"duration":0.13636350000001585,"midi":38,"time":133.2271395,"velocity":0.5905511811023622},{"duration":0.13636350000001585,"midi":40,"time":133.2271395,"velocity":0.5905511811023622},{"duration":0.13636350000001585,"midi":40,"time":133.2271395,"velocity":0.5905511811023622},{"duration":0.13636350000001585,"midi":35,"time":133.4998665,"velocity":0.5905511811023622},{"duration":0.13636350000001585,"midi":35,"time":133.4998665,"velocity":0.5905511811023622},{"duration":0.13636349999998743,"midi":36,"time":133.63623,"velocity":0.5905511811023622},{"duration":0.13636349999998743,"midi":38,"time":133.63623,"velocity":0.5905511811023622},{"duration":0.13636349999998743,"midi":46,"time":133.63623,"velocity":0.5905511811023622},{"duration":0.13636349999998743,"midi":36,"time":133.63623,"velocity":0.5905511811023622},{"duration":0.13636349999998743,"midi":40,"time":133.63623,"velocity":0.5905511811023622},{"duration":0.13636349999998743,"midi":40,"time":133.63623,"velocity":0.5905511811023622},{"duration":0.13636349999998743,"midi":35,"time":133.63623,"velocity":0.5905511811023622},{"duration":0.13636349999998743,"midi":46,"time":133.63623,"velocity":0.5905511811023622},{"duration":0.13636349999998743,"midi":35,"time":133.63623,"velocity":0.5905511811023622},{"duration":0.13636349999998743,"midi":38,"time":133.63623,"velocity":0.5905511811023622},{"duration":0.13636349999998743,"midi":44,"time":133.7725935,"velocity":0.5905511811023622},{"duration":0.13636350000001585,"midi":35,"time":133.908957,"velocity":0.5905511811023622},{"duration":0.13636350000001585,"midi":40,"time":133.908957,"velocity":0.5905511811023622},{"duration":0.13636350000001585,"midi":38,"time":133.908957,"velocity":0.5905511811023622},{"duration":0.13636350000001585,"midi":40,"time":133.908957,"velocity":0.5905511811023622},{"duration":0.13636350000001585,"midi":35,"time":133.908957,"velocity":0.5905511811023622},{"duration":0.13636349999998743,"midi":36,"time":134.0453205,"velocity":0.5905511811023622},{"duration":0.13636349999998743,"midi":36,"time":134.0453205,"velocity":0.5905511811023622},{"duration":0.13636349999998743,"midi":35,"time":134.0453205,"velocity":0.5905511811023622},{"duration":0.13636349999998743,"midi":35,"time":134.0453205,"velocity":0.5905511811023622},{"duration":0.13636350000001585,"midi":46,"time":134.181684,"velocity":0.5905511811023622},{"duration":0.13636350000001585,"midi":46,"time":134.181684,"velocity":0.5905511811023622},{"duration":0.13636350000001585,"midi":38,"time":134.181684,"velocity":0.5905511811023622},{"duration":0.13636350000001585,"midi":40,"time":134.181684,"velocity":0.5905511811023622},{"duration":0.13636349999998743,"midi":35,"time":134.3180475,"velocity":0.5905511811023622},{"duration":0.13636349999998743,"midi":36,"time":134.3180475,"velocity":0.5905511811023622},{"duration":0.13636349999998743,"midi":36,"time":134.3180475,"velocity":0.5905511811023622},{"duration":0.13636349999998743,"midi":35,"time":134.3180475,"velocity":0.5905511811023622},{"duration":0.13636350000001585,"midi":35,"time":134.454411,"velocity":0.5905511811023622},{"duration":0.13636350000001585,"midi":38,"time":134.454411,"velocity":0.5905511811023622},{"duration":0.13636350000001585,"midi":35,"time":134.454411,"velocity":0.5905511811023622},{"duration":0.13636350000001585,"midi":40,"time":134.454411,"velocity":0.5905511811023622},{"duration":0.13636349999998743,"midi":35,"time":134.5907745,"velocity":0.5905511811023622},{"duration":0.13636349999998743,"midi":46,"time":134.5907745,"velocity":0.5905511811023622},{"duration":0.13636349999998743,"midi":36,"time":134.5907745,"velocity":0.5905511811023622},{"duration":0.13636349999998743,"midi":46,"time":134.5907745,"velocity":0.5905511811023622},{"duration":0.13636349999998743,"midi":35,"time":134.5907745,"velocity":0.5905511811023622},{"duration":0.13636349999998743,"midi":36,"time":134.5907745,"velocity":0.5905511811023622},{"duration":0.13636350000001585,"midi":40,"time":134.727138,"velocity":0.5905511811023622},{"duration":0.13636350000001585,"midi":40,"time":134.727138,"velocity":0.5905511811023622},{"duration":0.13636350000001585,"midi":38,"time":134.727138,"velocity":0.5905511811023622},{"duration":0.13636350000001585,"midi":38,"time":134.727138,"velocity":0.5905511811023622},{"duration":0.13636349999998743,"midi":36,"time":134.8635015,"velocity":0.5905511811023622},{"duration":0.13636349999998743,"midi":35,"time":134.8635015,"velocity":0.5905511811023622},{"duration":0.13636349999998743,"midi":35,"time":134.8635015,"velocity":0.5905511811023622},{"duration":0.13636349999998743,"midi":36,"time":134.8635015,"velocity":0.5905511811023622},{"duration":0.13636349999998743,"midi":38,"time":134.999865,"velocity":0.5905511811023622},{"duration":0.13636349999998743,"midi":46,"time":134.999865,"velocity":0.5905511811023622},{"duration":0.13636349999998743,"midi":40,"time":134.999865,"velocity":0.5905511811023622},{"duration":0.13636349999998743,"midi":38,"time":134.999865,"velocity":0.5905511811023622},{"duration":0.13636349999998743,"midi":40,"time":134.999865,"velocity":0.5905511811023622},{"duration":0.13636349999998743,"midi":46,"time":134.999865,"velocity":0.5905511811023622},{"duration":0.13636350000001585,"midi":35,"time":135.1362285,"velocity":0.5905511811023622},{"duration":0.13636350000001585,"midi":35,"time":135.1362285,"velocity":0.5905511811023622},{"duration":0.13636349999998743,"midi":36,"time":135.272592,"velocity":0.5905511811023622},{"duration":0.13636349999998743,"midi":46,"time":135.272592,"velocity":0.5905511811023622},{"duration":0.13636349999998743,"midi":35,"time":135.272592,"velocity":0.5905511811023622},{"duration":0.13636349999998743,"midi":36,"time":135.272592,"velocity":0.5905511811023622},{"duration":0.13636349999998743,"midi":35,"time":135.272592,"velocity":0.5905511811023622},{"duration":0.13636349999998743,"midi":46,"time":135.272592,"velocity":0.5905511811023622},{"duration":0.13636350000001585,"midi":35,"time":135.4089555,"velocity":0.5905511811023622},{"duration":0.13636350000001585,"midi":35,"time":135.4089555,"velocity":0.5905511811023622},{"duration":0.13636349999998743,"midi":38,"time":135.818046,"velocity":0.5905511811023622},{"duration":0.13636349999998743,"midi":40,"time":135.818046,"velocity":0.5905511811023622},{"duration":0.13636349999998743,"midi":46,"time":135.818046,"velocity":0.5905511811023622},{"duration":0.13636349999998743,"midi":38,"time":135.818046,"velocity":0.5905511811023622},{"duration":0.13636349999998743,"midi":35,"time":135.818046,"velocity":0.5905511811023622},{"duration":0.13636349999998743,"midi":40,"time":135.818046,"velocity":0.5905511811023622},{"duration":0.13636349999998743,"midi":46,"time":135.818046,"velocity":0.5905511811023622},{"duration":0.13636349999998743,"midi":35,"time":135.818046,"velocity":0.5905511811023622},{"duration":0.13636350000001585,"midi":35,"time":136.09077299999998,"velocity":0.5905511811023622},{"duration":0.13636350000001585,"midi":35,"time":136.09077299999998,"velocity":0.5905511811023622},{"duration":0.13636350000001585,"midi":36,"time":136.3635,"velocity":0.5905511811023622},{"duration":0.13636350000001585,"midi":46,"time":136.3635,"velocity":0.5905511811023622},{"duration":0.13636350000001585,"midi":36,"time":136.3635,"velocity":0.5905511811023622},{"duration":0.13636350000001585,"midi":46,"time":136.3635,"velocity":0.5905511811023622},{"duration":0.13636349999998743,"midi":40,"time":136.4998635,"velocity":0.5905511811023622},{"duration":0.13636349999998743,"midi":35,"time":136.4998635,"velocity":0.5905511811023622},{"duration":0.13636349999998743,"midi":35,"time":136.4998635,"velocity":0.5905511811023622},{"duration":0.13636349999998743,"midi":40,"time":136.4998635,"velocity":0.5905511811023622},{"duration":0.13636349999998743,"midi":38,"time":136.4998635,"velocity":0.5905511811023622},{"duration":0.06818175000000792,"midi":47,"time":136.4998635,"velocity":0.5905511811023622},{"duration":0.0681817499999795,"midi":50,"time":136.56804525,"velocity":0.5905511811023622},{"duration":0.0681817499999795,"midi":43,"time":136.56804525,"velocity":0.5905511811023622},{"duration":0.13636350000001585,"midi":40,"time":136.636227,"velocity":0.5905511811023622},{"duration":0.06818175000000792,"midi":48,"time":136.636227,"velocity":0.5905511811023622},{"duration":0.13636350000001585,"midi":38,"time":136.636227,"velocity":0.5905511811023622},{"duration":0.13636350000001585,"midi":40,"time":136.636227,"velocity":0.5905511811023622},{"duration":0.06818175000000792,"midi":45,"time":136.70440875,"velocity":0.5905511811023622},{"duration":0.0681817499999795,"midi":48,"time":136.7725905,"velocity":0.5905511811023622},{"duration":0.13636349999998743,"midi":35,"time":136.7725905,"velocity":0.5905511811023622},{"duration":0.13636349999998743,"midi":35,"time":136.7725905,"velocity":0.5905511811023622},{"duration":0.06818175000000792,"midi":50,"time":136.84077225,"velocity":0.5905511811023622},{"duration":0.13636350000001585,"midi":40,"time":136.908954,"velocity":0.5905511811023622},{"duration":0.13636350000001585,"midi":35,"time":136.908954,"velocity":0.5905511811023622},{"duration":0.13636350000001585,"midi":46,"time":136.908954,"velocity":0.5905511811023622},{"duration":0.13636350000001585,"midi":46,"time":136.908954,"velocity":0.5905511811023622},{"duration":0.13636350000001585,"midi":38,"time":136.908954,"velocity":0.5905511811023622},{"duration":0.13636350000001585,"midi":40,"time":136.908954,"velocity":0.5905511811023622},{"duration":0.13636350000001585,"midi":35,"time":136.908954,"velocity":0.5905511811023622},{"duration":0.06818175000000792,"midi":49,"time":136.908954,"velocity":0.5905511811023622},{"duration":0.13636350000001585,"midi":38,"time":136.908954,"velocity":0.5905511811023622},{"duration":0.13636349999998743,"midi":38,"time":137.181681,"velocity":0.5905511811023622},{"duration":0.13636349999998743,"midi":38,"time":137.181681,"velocity":0.5905511811023622},{"duration":0.13636349999998743,"midi":40,"time":137.181681,"velocity":0.5905511811023622},{"duration":0.13636349999998743,"midi":35,"time":137.181681,"velocity":0.5905511811023622},{"duration":0.13636349999998743,"midi":40,"time":137.181681,"velocity":0.5905511811023622},{"duration":0.13636349999998743,"midi":35,"time":137.181681,"velocity":0.5905511811023622},{"duration":0.06818175000000792,"midi":49,"time":137.31804449999998,"velocity":0.5905511811023622},{"duration":0.06818175000000792,"midi":48,"time":137.454408,"velocity":0.5905511811023622},{"duration":0.13636349999998743,"midi":46,"time":137.454408,"velocity":0.5905511811023622},{"duration":0.13636349999998743,"midi":53,"time":137.454408,"velocity":0.5905511811023622},{"duration":0.13636349999998743,"midi":38,"time":137.454408,"velocity":0.5905511811023622},{"duration":0.13636349999998743,"midi":46,"time":137.454408,"velocity":0.5905511811023622},{"duration":0.13636349999998743,"midi":40,"time":137.454408,"velocity":0.5905511811023622},{"duration":0.13636350000001585,"midi":35,"time":137.5907715,"velocity":0.5905511811023622},{"duration":0.13636350000001585,"midi":36,"time":137.5907715,"velocity":0.5905511811023622},{"duration":0.06818175000000792,"midi":48,"time":137.5907715,"velocity":0.5905511811023622},{"duration":0.06818175000000792,"midi":48,"time":137.727135,"velocity":0.5905511811023622},{"duration":0.13636349999998743,"midi":40,"time":137.727135,"velocity":0.5905511811023622},{"duration":0.13636349999998743,"midi":38,"time":137.727135,"velocity":0.5905511811023622},{"duration":0.13636350000001585,"midi":51,"time":137.8634985,"velocity":0.5905511811023622},{"duration":0.13636350000001585,"midi":36,"time":137.8634985,"velocity":0.5905511811023622},{"duration":0.13636350000001585,"midi":35,"time":137.8634985,"velocity":0.5905511811023622},{"duration":0.13636349999998743,"midi":46,"time":137.999862,"velocity":0.5905511811023622},{"duration":0.13636349999998743,"midi":38,"time":137.999862,"velocity":0.5905511811023622},{"duration":0.13636349999998743,"midi":40,"time":137.999862,"velocity":0.5905511811023622},{"duration":0.13636349999998743,"midi":46,"time":137.999862,"velocity":0.5905511811023622},{"duration":0.13636350000001585,"midi":35,"time":138.1362255,"velocity":0.5905511811023622},{"duration":0.13636350000001585,"midi":36,"time":138.1362255,"velocity":0.5905511811023622},{"duration":0.13636349999998743,"midi":38,"time":138.272589,"velocity":0.5905511811023622},{"duration":0.13636349999998743,"midi":40,"time":138.272589,"velocity":0.5905511811023622},{"duration":0.13636349999998743,"midi":51,"time":138.272589,"velocity":0.5905511811023622},{"duration":0.13636349999998743,"midi":52,"time":139.636224,"velocity":0.5905511811023622},{"duration":0.13636349999998743,"midi":35,"time":139.636224,"velocity":0.5905511811023622},{"duration":0.13636349999998743,"midi":35,"time":139.636224,"velocity":0.5905511811023622},{"duration":0.13636349999998743,"midi":52,"time":139.636224,"velocity":0.5905511811023622},{"duration":0.13636349999998743,"midi":52,"time":139.636224,"velocity":0.5905511811023622},{"duration":0.13636349999998743,"midi":52,"time":139.636224,"velocity":0.5905511811023622},{"duration":0.13636349999998743,"midi":51,"time":139.636224,"velocity":0.5905511811023622},{"duration":0.13636349999998743,"midi":35,"time":139.636224,"velocity":0.5905511811023622},{"duration":0.13636349999998743,"midi":45,"time":139.636224,"velocity":0.5905511811023622},{"duration":0.13636350000001585,"midi":43,"time":139.7725875,"velocity":0.5905511811023622},{"duration":0.13636349999998743,"midi":35,"time":139.908951,"velocity":0.5905511811023622},{"duration":0.13636349999998743,"midi":35,"time":139.908951,"velocity":0.5905511811023622},{"duration":0.13636349999998743,"midi":35,"time":139.908951,"velocity":0.5905511811023622},{"duration":0.13636349999998743,"midi":49,"time":140.181678,"velocity":0.5905511811023622},{"duration":0.13636349999998743,"midi":40,"time":140.181678,"velocity":0.5905511811023622},{"duration":0.13636349999998743,"midi":45,"time":140.181678,"velocity":0.5905511811023622},{"duration":0.13636349999998743,"midi":38,"time":140.181678,"velocity":0.5905511811023622},{"duration":0.13636349999998743,"midi":40,"time":140.181678,"velocity":0.5905511811023622},{"duration":0.13636349999998743,"midi":38,"time":140.181678,"velocity":0.5905511811023622},{"duration":0.13636349999998743,"midi":51,"time":140.181678,"velocity":0.5905511811023622},{"duration":0.13636349999998743,"midi":40,"time":140.181678,"velocity":0.5905511811023622},{"duration":0.13636349999998743,"midi":38,"time":140.181678,"velocity":0.5905511811023622},{"duration":0.13636349999998743,"midi":49,"time":140.181678,"velocity":0.5905511811023622},{"duration":0.13636350000001585,"midi":43,"time":140.3180415,"velocity":0.5905511811023622},{"duration":0.13636350000001585,"midi":36,"time":140.3180415,"velocity":0.5905511811023622},{"duration":0.13636350000001585,"midi":36,"time":140.3180415,"velocity":0.5905511811023622},{"duration":0.13636350000001585,"midi":36,"time":140.3180415,"velocity":0.5905511811023622},{"duration":0.13636350000001585,"midi":36,"time":140.5907685,"velocity":0.5905511811023622},{"duration":0.13636350000001585,"midi":36,"time":140.5907685,"velocity":0.5905511811023622},{"duration":0.13636350000001585,"midi":36,"time":140.5907685,"velocity":0.5905511811023622},{"duration":0.13636349999998743,"midi":45,"time":140.727132,"velocity":0.5905511811023622},{"duration":0.13636349999998743,"midi":35,"time":140.727132,"velocity":0.5905511811023622},{"duration":0.13636349999998743,"midi":35,"time":140.727132,"velocity":0.5905511811023622},{"duration":0.13636349999998743,"midi":35,"time":140.727132,"velocity":0.5905511811023622},{"duration":0.13636349999998743,"midi":49,"time":140.727132,"velocity":0.5905511811023622},{"duration":0.13636349999998743,"midi":51,"time":140.727132,"velocity":0.5905511811023622},{"duration":0.13636349999998743,"midi":49,"time":140.727132,"velocity":0.5905511811023622},{"duration":0.13636349999998743,"midi":43,"time":140.8634955,"velocity":0.5905511811023622},{"duration":0.13636349999998743,"midi":40,"time":140.8634955,"velocity":0.5905511811023622},{"duration":0.13636349999998743,"midi":40,"time":140.8634955,"velocity":0.5905511811023622},{"duration":0.13636349999998743,"midi":40,"time":140.8634955,"velocity":0.5905511811023622},{"duration":0.13636350000001585,"midi":38,"time":140.999859,"velocity":0.5905511811023622},{"duration":0.13636350000001585,"midi":38,"time":140.999859,"velocity":0.5905511811023622},{"duration":0.13636350000001585,"midi":38,"time":140.999859,"velocity":0.5905511811023622},{"duration":0.13636349999998743,"midi":35,"time":141.1362225,"velocity":0.5905511811023622},{"duration":0.13636349999998743,"midi":35,"time":141.1362225,"velocity":0.5905511811023622},{"duration":0.13636349999998743,"midi":35,"time":141.1362225,"velocity":0.5905511811023622},{"duration":0.13636350000001585,"midi":40,"time":141.272586,"velocity":0.5905511811023622},{"duration":0.13636350000001585,"midi":40,"time":141.272586,"velocity":0.5905511811023622},{"duration":0.13636350000001585,"midi":49,"time":141.272586,"velocity":0.5905511811023622},{"duration":0.13636350000001585,"midi":51,"time":141.272586,"velocity":0.5905511811023622},{"duration":0.13636350000001585,"midi":49,"time":141.272586,"velocity":0.5905511811023622},{"duration":0.13636350000001585,"midi":40,"time":141.272586,"velocity":0.5905511811023622},{"duration":0.13636349999998743,"midi":35,"time":141.4089495,"velocity":0.5905511811023622},{"duration":0.13636349999998743,"midi":35,"time":141.4089495,"velocity":0.5905511811023622},{"duration":0.13636349999998743,"midi":35,"time":141.4089495,"velocity":0.5905511811023622},{"duration":0.13636350000001585,"midi":51,"time":141.81804,"velocity":0.5905511811023622},{"duration":0.13636350000001585,"midi":35,"time":141.81804,"velocity":0.5905511811023622},{"duration":0.13636350000001585,"midi":35,"time":141.81804,"velocity":0.5905511811023622},{"duration":0.13636350000001585,"midi":45,"time":141.81804,"velocity":0.5905511811023622},{"duration":0.13636350000001585,"midi":35,"time":141.81804,"velocity":0.5905511811023622},{"duration":0.13636349999998743,"midi":43,"time":141.9544035,"velocity":0.5905511811023622},{"duration":0.13636349999998743,"midi":35,"time":142.090767,"velocity":0.5905511811023622},{"duration":0.13636349999998743,"midi":35,"time":142.090767,"velocity":0.5905511811023622},{"duration":0.13636349999998743,"midi":35,"time":142.090767,"velocity":0.5905511811023622},{"duration":0.13636349999998743,"midi":49,"time":142.363494,"velocity":0.5905511811023622},{"duration":0.13636349999998743,"midi":49,"time":142.363494,"velocity":0.5905511811023622},{"duration":0.13636349999998743,"midi":38,"time":142.363494,"velocity":0.5905511811023622},{"duration":0.13636349999998743,"midi":45,"time":142.363494,"velocity":0.5905511811023622},{"duration":0.13636349999998743,"midi":40,"time":142.363494,"velocity":0.5905511811023622},{"duration":0.13636349999998743,"midi":38,"time":142.363494,"velocity":0.5905511811023622},{"duration":0.13636349999998743,"midi":38,"time":142.363494,"velocity":0.5905511811023622},{"duration":0.13636349999998743,"midi":40,"time":142.363494,"velocity":0.5905511811023622},{"duration":0.13636349999998743,"midi":51,"time":142.363494,"velocity":0.5905511811023622},{"duration":0.13636349999998743,"midi":40,"time":142.363494,"velocity":0.5905511811023622},{"duration":0.13636350000001585,"midi":43,"time":142.4998575,"velocity":0.5905511811023622},{"duration":0.13636350000001585,"midi":36,"time":142.4998575,"velocity":0.5905511811023622},{"duration":0.13636350000001585,"midi":36,"time":142.4998575,"velocity":0.5905511811023622},{"duration":0.13636350000001585,"midi":36,"time":142.4998575,"velocity":0.5905511811023622},{"duration":0.13636350000001585,"midi":36,"time":142.7725845,"velocity":0.5905511811023622},{"duration":0.13636350000001585,"midi":36,"time":142.7725845,"velocity":0.5905511811023622},{"duration":0.13636350000001585,"midi":36,"time":142.7725845,"velocity":0.5905511811023622},{"duration":0.13636349999998743,"midi":35,"time":142.908948,"velocity":0.5905511811023622},{"duration":0.13636349999998743,"midi":51,"time":142.908948,"velocity":0.5905511811023622},{"duration":0.13636349999998743,"midi":49,"time":142.908948,"velocity":0.5905511811023622},{"duration":0.13636349999998743,"midi":35,"time":142.908948,"velocity":0.5905511811023622},{"duration":0.13636349999998743,"midi":45,"time":142.908948,"velocity":0.5905511811023622},{"duration":0.13636349999998743,"midi":49,"time":142.908948,"velocity":0.5905511811023622},{"duration":0.13636349999998743,"midi":35,"time":142.908948,"velocity":0.5905511811023622},{"duration":0.13636350000001585,"midi":40,"time":143.0453115,"velocity":0.5905511811023622},{"duration":0.13636350000001585,"midi":40,"time":143.0453115,"velocity":0.5905511811023622},{"duration":0.13636350000001585,"midi":43,"time":143.0453115,"velocity":0.5905511811023622},{"duration":0.13636350000001585,"midi":40,"time":143.0453115,"velocity":0.5905511811023622},{"duration":0.13636349999998743,"midi":38,"time":143.181675,"velocity":0.5905511811023622},{"duration":0.13636349999998743,"midi":38,"time":143.181675,"velocity":0.5905511811023622},{"duration":0.13636349999998743,"midi":38,"time":143.181675,"velocity":0.5905511811023622},{"duration":0.13636349999998743,"midi":35,"time":143.3180385,"velocity":0.5905511811023622},{"duration":0.13636349999998743,"midi":35,"time":143.3180385,"velocity":0.5905511811023622},{"duration":0.13636349999998743,"midi":35,"time":143.3180385,"velocity":0.5905511811023622},{"duration":0.13636350000001585,"midi":49,"time":143.454402,"velocity":0.5905511811023622},{"duration":0.13636350000001585,"midi":40,"time":143.454402,"velocity":0.5905511811023622},{"duration":0.13636350000001585,"midi":40,"time":143.454402,"velocity":0.5905511811023622},{"duration":0.13636350000001585,"midi":40,"time":143.454402,"velocity":0.5905511811023622},{"duration":0.13636350000001585,"midi":51,"time":143.454402,"velocity":0.5905511811023622},{"duration":0.13636350000001585,"midi":49,"time":143.454402,"velocity":0.5905511811023622},{"duration":0.13636349999998743,"midi":40,"time":143.8634925,"velocity":0.5905511811023622},{"duration":0.13636349999998743,"midi":40,"time":143.8634925,"velocity":0.5905511811023622},{"duration":0.13636349999998743,"midi":40,"time":143.8634925,"velocity":0.5905511811023622},{"duration":0.13636350000001585,"midi":45,"time":143.999856,"velocity":0.5905511811023622},{"duration":0.13636350000001585,"midi":35,"time":143.999856,"velocity":0.5905511811023622},{"duration":0.13636350000001585,"midi":35,"time":143.999856,"velocity":0.5905511811023622},{"duration":0.13636350000001585,"midi":35,"time":143.999856,"velocity":0.5905511811023622},{"duration":0.13636350000001585,"midi":51,"time":143.999856,"velocity":0.5905511811023622},{"duration":0.13636349999998743,"midi":43,"time":144.1362195,"velocity":0.5905511811023622},{"duration":0.13636349999998743,"midi":35,"time":144.272583,"velocity":0.5905511811023622},{"duration":0.13636349999998743,"midi":35,"time":144.272583,"velocity":0.5905511811023622},{"duration":0.13636349999998743,"midi":35,"time":144.272583,"velocity":0.5905511811023622},{"duration":0.13636349999998743,"midi":51,"time":144.54531,"velocity":0.5905511811023622},{"duration":0.13636349999998743,"midi":38,"time":144.54531,"velocity":0.5905511811023622},{"duration":0.13636349999998743,"midi":38,"time":144.54531,"velocity":0.5905511811023622},{"duration":0.13636349999998743,"midi":49,"time":144.54531,"velocity":0.5905511811023622},{"duration":0.13636349999998743,"midi":49,"time":144.54531,"velocity":0.5905511811023622},{"duration":0.13636349999998743,"midi":45,"time":144.54531,"velocity":0.5905511811023622},{"duration":0.13636349999998743,"midi":40,"time":144.54531,"velocity":0.5905511811023622},{"duration":0.13636349999998743,"midi":38,"time":144.54531,"velocity":0.5905511811023622},{"duration":0.13636349999998743,"midi":40,"time":144.54531,"velocity":0.5905511811023622},{"duration":0.13636349999998743,"midi":40,"time":144.54531,"velocity":0.5905511811023622},{"duration":0.13636350000001585,"midi":36,"time":144.6816735,"velocity":0.5905511811023622},{"duration":0.13636350000001585,"midi":36,"time":144.6816735,"velocity":0.5905511811023622},{"duration":0.13636350000001585,"midi":36,"time":144.6816735,"velocity":0.5905511811023622},{"duration":0.13636350000001585,"midi":43,"time":144.6816735,"velocity":0.5905511811023622},{"duration":0.13636350000001585,"midi":36,"time":144.9544005,"velocity":0.5905511811023622},{"duration":0.13636350000001585,"midi":36,"time":144.9544005,"velocity":0.5905511811023622},{"duration":0.13636350000001585,"midi":36,"time":144.9544005,"velocity":0.5905511811023622},{"duration":0.13636349999998743,"midi":51,"time":145.090764,"velocity":0.5905511811023622},{"duration":0.13636349999998743,"midi":45,"time":145.090764,"velocity":0.5905511811023622},{"duration":0.13636349999998743,"midi":35,"time":145.090764,"velocity":0.5905511811023622},{"duration":0.13636349999998743,"midi":49,"time":145.090764,"velocity":0.5905511811023622},{"duration":0.13636349999998743,"midi":35,"time":145.090764,"velocity":0.5905511811023622},{"duration":0.13636349999998743,"midi":35,"time":145.090764,"velocity":0.5905511811023622},{"duration":0.13636349999998743,"midi":49,"time":145.090764,"velocity":0.5905511811023622},{"duration":0.13636350000001585,"midi":40,"time":145.2271275,"velocity":0.5905511811023622},{"duration":0.13636350000001585,"midi":40,"time":145.2271275,"velocity":0.5905511811023622},{"duration":0.13636350000001585,"midi":43,"time":145.2271275,"velocity":0.5905511811023622},{"duration":0.13636350000001585,"midi":40,"time":145.2271275,"velocity":0.5905511811023622},{"duration":0.13636349999998743,"midi":38,"time":145.363491,"velocity":0.5905511811023622},{"duration":0.13636349999998743,"midi":38,"time":145.363491,"velocity":0.5905511811023622},{"duration":0.13636349999998743,"midi":38,"time":145.363491,"velocity":0.5905511811023622},{"duration":0.13636349999998743,"midi":35,"time":145.4998545,"velocity":0.5905511811023622},{"duration":0.13636349999998743,"midi":35,"time":145.4998545,"velocity":0.5905511811023622},{"duration":0.13636349999998743,"midi":35,"time":145.4998545,"velocity":0.5905511811023622},{"duration":0.13636350000001585,"midi":49,"time":145.63621799999999,"velocity":0.5905511811023622},{"duration":0.13636350000001585,"midi":51,"time":145.63621799999999,"velocity":0.5905511811023622},{"duration":0.13636350000001585,"midi":40,"time":145.63621799999999,"velocity":0.5905511811023622},{"duration":0.13636350000001585,"midi":49,"time":145.63621799999999,"velocity":0.5905511811023622},{"duration":0.13636350000001585,"midi":40,"time":145.63621799999999,"velocity":0.5905511811023622},{"duration":0.13636350000001585,"midi":40,"time":145.63621799999999,"velocity":0.5905511811023622},{"duration":0.13636349999998743,"midi":35,"time":145.7725815,"velocity":0.5905511811023622},{"duration":0.13636349999998743,"midi":35,"time":145.7725815,"velocity":0.5905511811023622},{"duration":0.13636349999998743,"midi":35,"time":145.7725815,"velocity":0.5905511811023622},{"duration":0.13636350000001585,"midi":35,"time":146.181672,"velocity":0.5905511811023622},{"duration":0.13636350000001585,"midi":45,"time":146.181672,"velocity":0.5905511811023622},{"duration":0.13636350000001585,"midi":51,"time":146.181672,"velocity":0.5905511811023622},{"duration":0.13636350000001585,"midi":35,"time":146.181672,"velocity":0.5905511811023622},{"duration":0.13636350000001585,"midi":35,"time":146.181672,"velocity":0.5905511811023622},{"duration":0.13636349999998743,"midi":43,"time":146.3180355,"velocity":0.5905511811023622},{"duration":0.13636350000001585,"midi":35,"time":146.454399,"velocity":0.5905511811023622},{"duration":0.13636350000001585,"midi":35,"time":146.454399,"velocity":0.5905511811023622},{"duration":0.13636350000001585,"midi":35,"time":146.454399,"velocity":0.5905511811023622},{"duration":0.13636349999998743,"midi":49,"time":146.727126,"velocity":0.5905511811023622},{"duration":0.13636349999998743,"midi":38,"time":146.727126,"velocity":0.5905511811023622},{"duration":0.13636349999998743,"midi":40,"time":146.727126,"velocity":0.5905511811023622},{"duration":0.13636349999998743,"midi":49,"time":146.727126,"velocity":0.5905511811023622},{"duration":0.13636349999998743,"midi":38,"time":146.727126,"velocity":0.5905511811023622},{"duration":0.13636349999998743,"midi":38,"time":146.727126,"velocity":0.5905511811023622},{"duration":0.13636349999998743,"midi":51,"time":146.727126,"velocity":0.5905511811023622},{"duration":0.13636349999998743,"midi":45,"time":146.727126,"velocity":0.5905511811023622},{"duration":0.13636349999998743,"midi":40,"time":146.727126,"velocity":0.5905511811023622},{"duration":0.13636349999998743,"midi":40,"time":146.727126,"velocity":0.5905511811023622},{"duration":0.13636350000001585,"midi":36,"time":146.8634895,"velocity":0.5905511811023622},{"duration":0.13636350000001585,"midi":43,"time":146.8634895,"velocity":0.5905511811023622},{"duration":0.13636350000001585,"midi":36,"time":146.8634895,"velocity":0.5905511811023622},{"duration":0.13636350000001585,"midi":36,"time":146.8634895,"velocity":0.5905511811023622},{"duration":0.13636350000001585,"midi":36,"time":147.1362165,"velocity":0.5905511811023622},{"duration":0.13636350000001585,"midi":36,"time":147.1362165,"velocity":0.5905511811023622},{"duration":0.13636350000001585,"midi":36,"time":147.1362165,"velocity":0.5905511811023622},{"duration":0.13636349999998743,"midi":49,"time":147.27258,"velocity":0.5905511811023622},{"duration":0.13636349999998743,"midi":49,"time":147.27258,"velocity":0.5905511811023622},{"duration":0.13636349999998743,"midi":45,"time":147.27258,"velocity":0.5905511811023622},{"duration":0.13636349999998743,"midi":35,"time":147.27258,"velocity":0.5905511811023622},{"duration":0.13636349999998743,"midi":35,"time":147.27258,"velocity":0.5905511811023622},{"duration":0.13636349999998743,"midi":51,"time":147.27258,"velocity":0.5905511811023622},{"duration":0.13636349999998743,"midi":35,"time":147.27258,"velocity":0.5905511811023622},{"duration":0.13636350000001585,"midi":43,"time":147.4089435,"velocity":0.5905511811023622},{"duration":0.13636350000001585,"midi":40,"time":147.4089435,"velocity":0.5905511811023622},{"duration":0.13636350000001585,"midi":40,"time":147.4089435,"velocity":0.5905511811023622},{"duration":0.13636350000001585,"midi":40,"time":147.4089435,"velocity":0.5905511811023622},{"duration":0.13636349999998743,"midi":38,"time":147.545307,"velocity":0.5905511811023622},{"duration":0.13636349999998743,"midi":38,"time":147.545307,"velocity":0.5905511811023622},{"duration":0.13636349999998743,"midi":38,"time":147.545307,"velocity":0.5905511811023622},{"duration":0.13636350000001585,"midi":35,"time":147.6816705,"velocity":0.5905511811023622},{"duration":0.13636350000001585,"midi":35,"time":147.6816705,"velocity":0.5905511811023622},{"duration":0.13636350000001585,"midi":35,"time":147.6816705,"velocity":0.5905511811023622},{"duration":0.13636349999998743,"midi":51,"time":147.818034,"velocity":0.5905511811023622},{"duration":0.13636349999998743,"midi":49,"time":147.818034,"velocity":0.5905511811023622},{"duration":0.13636349999998743,"midi":40,"time":147.818034,"velocity":0.5905511811023622},{"duration":0.13636349999998743,"midi":40,"time":147.818034,"velocity":0.5905511811023622},{"duration":0.13636349999998743,"midi":40,"time":147.818034,"velocity":0.5905511811023622},{"duration":0.13636349999998743,"midi":49,"time":147.818034,"velocity":0.5905511811023622},{"duration":0.13636350000001585,"midi":40,"time":148.090761,"velocity":0.5905511811023622},{"duration":0.13636350000001585,"midi":40,"time":148.090761,"velocity":0.5905511811023622},{"duration":0.13636350000001585,"midi":40,"time":148.090761,"velocity":0.5905511811023622},{"duration":0.13636349999998743,"midi":40,"time":148.2271245,"velocity":0.5905511811023622},{"duration":0.13636349999998743,"midi":40,"time":148.2271245,"velocity":0.5905511811023622},{"duration":0.13636349999998743,"midi":40,"time":148.2271245,"velocity":0.5905511811023622},{"duration":0.13636350000001585,"midi":35,"time":148.363488,"velocity":0.5905511811023622},{"duration":0.13636350000001585,"midi":51,"time":148.363488,"velocity":0.5905511811023622},{"duration":0.13636350000001585,"midi":57,"time":148.363488,"velocity":0.5905511811023622},{"duration":0.13636350000001585,"midi":45,"time":148.363488,"velocity":0.5905511811023622},{"duration":0.13636350000001585,"midi":57,"time":148.363488,"velocity":0.5905511811023622},{"duration":0.13636350000001585,"midi":35,"time":148.363488,"velocity":0.5905511811023622},{"duration":0.13636350000001585,"midi":35,"time":148.363488,"velocity":0.5905511811023622},{"duration":0.13636350000001585,"midi":57,"time":148.363488,"velocity":0.5905511811023622},{"duration":0.13636349999998743,"midi":43,"time":148.4998515,"velocity":0.5905511811023622},{"duration":0.13636350000001585,"midi":35,"time":148.636215,"velocity":0.5905511811023622},{"duration":0.13636350000001585,"midi":35,"time":148.636215,"velocity":0.5905511811023622},{"duration":0.13636350000001585,"midi":57,"time":148.636215,"velocity":0.5905511811023622},{"duration":0.13636350000001585,"midi":35,"time":148.636215,"velocity":0.5905511811023622},{"duration":0.13636350000001585,"midi":40,"time":148.908942,"velocity":0.5905511811023622},{"duration":0.13636350000001585,"midi":38,"time":148.908942,"velocity":0.5905511811023622},{"duration":0.13636350000001585,"midi":45,"time":148.908942,"velocity":0.5905511811023622},{"duration":0.13636350000001585,"midi":38,"time":148.908942,"velocity":0.5905511811023622},{"duration":0.13636350000001585,"midi":49,"time":148.908942,"velocity":0.5905511811023622},{"duration":0.13636350000001585,"midi":49,"time":148.908942,"velocity":0.5905511811023622},{"duration":0.13636350000001585,"midi":51,"time":148.908942,"velocity":0.5905511811023622},{"duration":0.13636350000001585,"midi":38,"time":148.908942,"velocity":0.5905511811023622},{"duration":0.13636350000001585,"midi":40,"time":148.908942,"velocity":0.5905511811023622},{"duration":0.13636350000001585,"midi":40,"time":148.908942,"velocity":0.5905511811023622},{"duration":0.13636349999998743,"midi":36,"time":149.0453055,"velocity":0.5905511811023622},{"duration":0.13636349999998743,"midi":43,"time":149.0453055,"velocity":0.5905511811023622},{"duration":0.13636349999998743,"midi":36,"time":149.0453055,"velocity":0.5905511811023622},{"duration":0.13636349999998743,"midi":36,"time":149.0453055,"velocity":0.5905511811023622},{"duration":0.13636350000001585,"midi":36,"time":149.3180325,"velocity":0.5905511811023622},{"duration":0.13636350000001585,"midi":36,"time":149.3180325,"velocity":0.5905511811023622},{"duration":0.13636350000001585,"midi":36,"time":149.3180325,"velocity":0.5905511811023622},{"duration":0.13636349999998743,"midi":49,"time":149.454396,"velocity":0.5905511811023622},{"duration":0.13636349999998743,"midi":35,"time":149.454396,"velocity":0.5905511811023622},{"duration":0.13636349999998743,"midi":49,"time":149.454396,"velocity":0.5905511811023622},{"duration":0.13636349999998743,"midi":45,"time":149.454396,"velocity":0.5905511811023622},{"duration":0.13636349999998743,"midi":35,"time":149.454396,"velocity":0.5905511811023622},{"duration":0.13636349999998743,"midi":51,"time":149.454396,"velocity":0.5905511811023622},{"duration":0.13636349999998743,"midi":35,"time":149.454396,"velocity":0.5905511811023622},{"duration":0.13636350000001585,"midi":40,"time":149.5907595,"velocity":0.5905511811023622},{"duration":0.13636350000001585,"midi":40,"time":149.5907595,"velocity":0.5905511811023622},{"duration":0.13636350000001585,"midi":43,"time":149.5907595,"velocity":0.5905511811023622},{"duration":0.13636350000001585,"midi":40,"time":149.5907595,"velocity":0.5905511811023622},{"duration":0.13636349999998743,"midi":38,"time":149.727123,"velocity":0.5905511811023622},{"duration":0.13636349999998743,"midi":38,"time":149.727123,"velocity":0.5905511811023622},{"duration":0.13636349999998743,"midi":38,"time":149.727123,"velocity":0.5905511811023622},{"duration":0.13636350000001585,"midi":35,"time":149.8634865,"velocity":0.5905511811023622},{"duration":0.13636350000001585,"midi":35,"time":149.8634865,"velocity":0.5905511811023622},{"duration":0.13636350000001585,"midi":35,"time":149.8634865,"velocity":0.5905511811023622},{"duration":0.13636349999998743,"midi":40,"time":149.99985,"velocity":0.5905511811023622},{"duration":0.13636349999998743,"midi":40,"time":149.99985,"velocity":0.5905511811023622},{"duration":0.13636349999998743,"midi":40,"time":149.99985,"velocity":0.5905511811023622},{"duration":0.13636349999998743,"midi":49,"time":149.99985,"velocity":0.5905511811023622},{"duration":0.13636349999998743,"midi":51,"time":149.99985,"velocity":0.5905511811023622},{"duration":0.13636349999998743,"midi":49,"time":149.99985,"velocity":0.5905511811023622},{"duration":0.13636350000001585,"midi":35,"time":150.1362135,"velocity":0.5905511811023622},{"duration":0.13636350000001585,"midi":35,"time":150.1362135,"velocity":0.5905511811023622},{"duration":0.13636350000001585,"midi":35,"time":150.1362135,"velocity":0.5905511811023622},{"duration":0.13636350000001585,"midi":35,"time":150.545304,"velocity":0.5905511811023622},{"duration":0.13636350000001585,"midi":45,"time":150.545304,"velocity":0.5905511811023622},{"duration":0.13636350000001585,"midi":35,"time":150.545304,"velocity":0.5905511811023622},{"duration":0.13636350000001585,"midi":51,"time":150.545304,"velocity":0.5905511811023622},{"duration":0.13636350000001585,"midi":35,"time":150.545304,"velocity":0.5905511811023622},{"duration":0.13636349999998743,"midi":43,"time":150.6816675,"velocity":0.5905511811023622},{"duration":0.13636350000001585,"midi":35,"time":150.818031,"velocity":0.5905511811023622},{"duration":0.13636350000001585,"midi":35,"time":150.818031,"velocity":0.5905511811023622},{"duration":0.13636350000001585,"midi":35,"time":150.818031,"velocity":0.5905511811023622},{"duration":0.13636350000001585,"midi":40,"time":151.090758,"velocity":0.5905511811023622},{"duration":0.13636350000001585,"midi":38,"time":151.090758,"velocity":0.5905511811023622},{"duration":0.13636350000001585,"midi":40,"time":151.090758,"velocity":0.5905511811023622},{"duration":0.13636350000001585,"midi":49,"time":151.090758,"velocity":0.5905511811023622},{"duration":0.13636350000001585,"midi":38,"time":151.090758,"velocity":0.5905511811023622},{"duration":0.13636350000001585,"midi":45,"time":151.090758,"velocity":0.5905511811023622},{"duration":0.13636350000001585,"midi":40,"time":151.090758,"velocity":0.5905511811023622},{"duration":0.13636350000001585,"midi":49,"time":151.090758,"velocity":0.5905511811023622},{"duration":0.13636350000001585,"midi":38,"time":151.090758,"velocity":0.5905511811023622},{"duration":0.13636350000001585,"midi":51,"time":151.090758,"velocity":0.5905511811023622},{"duration":0.13636349999998743,"midi":43,"time":151.2271215,"velocity":0.5905511811023622},{"duration":0.13636349999998743,"midi":36,"time":151.2271215,"velocity":0.5905511811023622},{"duration":0.13636349999998743,"midi":36,"time":151.2271215,"velocity":0.5905511811023622},{"duration":0.13636349999998743,"midi":36,"time":151.2271215,"velocity":0.5905511811023622},{"duration":0.13636350000001585,"midi":36,"time":151.49984849999998,"velocity":0.5905511811023622},{"duration":0.13636350000001585,"midi":36,"time":151.49984849999998,"velocity":0.5905511811023622},{"duration":0.13636350000001585,"midi":36,"time":151.49984849999998,"velocity":0.5905511811023622},{"duration":0.13636349999998743,"midi":35,"time":151.636212,"velocity":0.5905511811023622},{"duration":0.13636349999998743,"midi":49,"time":151.636212,"velocity":0.5905511811023622},{"duration":0.13636349999998743,"midi":35,"time":151.636212,"velocity":0.5905511811023622},{"duration":0.13636349999998743,"midi":35,"time":151.636212,"velocity":0.5905511811023622},{"duration":0.13636349999998743,"midi":51,"time":151.636212,"velocity":0.5905511811023622},{"duration":0.13636349999998743,"midi":49,"time":151.636212,"velocity":0.5905511811023622},{"duration":0.13636349999998743,"midi":45,"time":151.636212,"velocity":0.5905511811023622},{"duration":0.13636350000001585,"midi":40,"time":151.7725755,"velocity":0.5905511811023622},{"duration":0.13636350000001585,"midi":40,"time":151.7725755,"velocity":0.5905511811023622},{"duration":0.13636350000001585,"midi":40,"time":151.7725755,"velocity":0.5905511811023622},{"duration":0.13636350000001585,"midi":43,"time":151.7725755,"velocity":0.5905511811023622},{"duration":0.13636349999998743,"midi":38,"time":151.908939,"velocity":0.5905511811023622},{"duration":0.13636349999998743,"midi":38,"time":151.908939,"velocity":0.5905511811023622},{"duration":0.13636349999998743,"midi":38,"time":151.908939,"velocity":0.5905511811023622},{"duration":0.13636350000001585,"midi":35,"time":152.0453025,"velocity":0.5905511811023622},{"duration":0.13636350000001585,"midi":35,"time":152.0453025,"velocity":0.5905511811023622},{"duration":0.13636350000001585,"midi":35,"time":152.0453025,"velocity":0.5905511811023622},{"duration":0.13636349999998743,"midi":40,"time":152.181666,"velocity":0.5905511811023622},{"duration":0.13636349999998743,"midi":49,"time":152.181666,"velocity":0.5905511811023622},{"duration":0.13636349999998743,"midi":40,"time":152.181666,"velocity":0.5905511811023622},{"duration":0.13636349999998743,"midi":51,"time":152.181666,"velocity":0.5905511811023622},{"duration":0.13636349999998743,"midi":49,"time":152.181666,"velocity":0.5905511811023622},{"duration":0.13636349999998743,"midi":40,"time":152.181666,"velocity":0.5905511811023622},{"duration":0.13636349999998743,"midi":40,"time":152.5907565,"velocity":0.5905511811023622},{"duration":0.13636349999998743,"midi":40,"time":152.5907565,"velocity":0.5905511811023622},{"duration":0.13636349999998743,"midi":40,"time":152.5907565,"velocity":0.5905511811023622},{"duration":0.13636350000001585,"midi":35,"time":152.72711999999999,"velocity":0.5905511811023622},{"duration":0.13636350000001585,"midi":35,"time":152.72711999999999,"velocity":0.5905511811023622},{"duration":0.13636350000001585,"midi":35,"time":152.72711999999999,"velocity":0.5905511811023622},{"duration":0.13636350000001585,"midi":45,"time":152.72711999999999,"velocity":0.5905511811023622},{"duration":0.13636350000001585,"midi":51,"time":152.72711999999999,"velocity":0.5905511811023622},{"duration":0.13636349999998743,"midi":43,"time":152.8634835,"velocity":0.5905511811023622},{"duration":0.13636350000001585,"midi":35,"time":152.999847,"velocity":0.5905511811023622},{"duration":0.13636350000001585,"midi":35,"time":152.999847,"velocity":0.5905511811023622},{"duration":0.13636350000001585,"midi":35,"time":152.999847,"velocity":0.5905511811023622},{"duration":0.13636350000001585,"midi":49,"time":153.272574,"velocity":0.5905511811023622},{"duration":0.13636350000001585,"midi":40,"time":153.272574,"velocity":0.5905511811023622},{"duration":0.13636350000001585,"midi":38,"time":153.272574,"velocity":0.5905511811023622},{"duration":0.13636350000001585,"midi":51,"time":153.272574,"velocity":0.5905511811023622},{"duration":0.13636350000001585,"midi":45,"time":153.272574,"velocity":0.5905511811023622},{"duration":0.13636350000001585,"midi":38,"time":153.272574,"velocity":0.5905511811023622},{"duration":0.13636350000001585,"midi":40,"time":153.272574,"velocity":0.5905511811023622},{"duration":0.13636350000001585,"midi":40,"time":153.272574,"velocity":0.5905511811023622},{"duration":0.13636350000001585,"midi":38,"time":153.272574,"velocity":0.5905511811023622},{"duration":0.13636350000001585,"midi":49,"time":153.272574,"velocity":0.5905511811023622},{"duration":0.13636349999998743,"midi":36,"time":153.4089375,"velocity":0.5905511811023622},{"duration":0.13636349999998743,"midi":43,"time":153.4089375,"velocity":0.5905511811023622},{"duration":0.13636349999998743,"midi":36,"time":153.4089375,"velocity":0.5905511811023622},{"duration":0.13636349999998743,"midi":36,"time":153.4089375,"velocity":0.5905511811023622},{"duration":0.13636349999998743,"midi":36,"time":153.6816645,"velocity":0.5905511811023622},{"duration":0.13636349999998743,"midi":36,"time":153.6816645,"velocity":0.5905511811023622},{"duration":0.13636349999998743,"midi":36,"time":153.6816645,"velocity":0.5905511811023622},{"duration":0.13636349999998743,"midi":35,"time":153.818028,"velocity":0.5905511811023622},{"duration":0.13636349999998743,"midi":49,"time":153.818028,"velocity":0.5905511811023622},{"duration":0.13636349999998743,"midi":45,"time":153.818028,"velocity":0.5905511811023622},{"duration":0.13636349999998743,"midi":35,"time":153.818028,"velocity":0.5905511811023622},{"duration":0.13636349999998743,"midi":51,"time":153.818028,"velocity":0.5905511811023622},{"duration":0.13636349999998743,"midi":35,"time":153.818028,"velocity":0.5905511811023622},{"duration":0.13636349999998743,"midi":49,"time":153.818028,"velocity":0.5905511811023622},{"duration":0.13636350000001585,"midi":40,"time":153.95439149999999,"velocity":0.5905511811023622},{"duration":0.13636350000001585,"midi":40,"time":153.95439149999999,"velocity":0.5905511811023622},{"duration":0.13636350000001585,"midi":40,"time":153.95439149999999,"velocity":0.5905511811023622},{"duration":0.13636350000001585,"midi":43,"time":153.95439149999999,"velocity":0.5905511811023622},{"duration":0.13636349999998743,"midi":38,"time":154.090755,"velocity":0.5905511811023622},{"duration":0.13636349999998743,"midi":38,"time":154.090755,"velocity":0.5905511811023622},{"duration":0.13636349999998743,"midi":38,"time":154.090755,"velocity":0.5905511811023622},{"duration":0.13636350000001585,"midi":35,"time":154.2271185,"velocity":0.5905511811023622},{"duration":0.13636350000001585,"midi":35,"time":154.2271185,"velocity":0.5905511811023622},{"duration":0.13636350000001585,"midi":35,"time":154.2271185,"velocity":0.5905511811023622},{"duration":0.13636349999998743,"midi":49,"time":154.363482,"velocity":0.5905511811023622},{"duration":0.13636349999998743,"midi":49,"time":154.363482,"velocity":0.5905511811023622},{"duration":0.13636349999998743,"midi":40,"time":154.363482,"velocity":0.5905511811023622},{"duration":0.13636349999998743,"midi":40,"time":154.363482,"velocity":0.5905511811023622},{"duration":0.13636349999998743,"midi":40,"time":154.363482,"velocity":0.5905511811023622},{"duration":0.13636350000001585,"midi":35,"time":154.4998455,"velocity":0.5905511811023622},{"duration":0.13636350000001585,"midi":35,"time":154.4998455,"velocity":0.5905511811023622},{"duration":0.13636350000001585,"midi":35,"time":154.4998455,"velocity":0.5905511811023622},{"duration":0.13636349999998743,"midi":35,"time":154.908936,"velocity":0.5905511811023622},{"duration":0.13636349999998743,"midi":35,"time":154.908936,"velocity":0.5905511811023622},{"duration":0.13636349999998743,"midi":45,"time":154.908936,"velocity":0.5905511811023622},{"duration":0.13636349999998743,"midi":35,"time":154.908936,"velocity":0.5905511811023622},{"duration":0.13636349999998743,"midi":43,"time":155.0452995,"velocity":0.5905511811023622},{"duration":0.13636350000001585,"midi":35,"time":155.181663,"velocity":0.5905511811023622},{"duration":0.13636350000001585,"midi":35,"time":155.181663,"velocity":0.5905511811023622},{"duration":0.13636350000001585,"midi":35,"time":155.181663,"velocity":0.5905511811023622},{"duration":0.13636350000001585,"midi":49,"time":155.45439,"velocity":0.5905511811023622},{"duration":0.13636350000001585,"midi":49,"time":155.45439,"velocity":0.5905511811023622},{"duration":0.13636350000001585,"midi":40,"time":155.45439,"velocity":0.5905511811023622},{"duration":0.13636350000001585,"midi":38,"time":155.45439,"velocity":0.5905511811023622},{"duration":0.13636350000001585,"midi":38,"time":155.45439,"velocity":0.5905511811023622},{"duration":0.13636350000001585,"midi":38,"time":155.45439,"velocity":0.5905511811023622},{"duration":0.13636350000001585,"midi":45,"time":155.45439,"velocity":0.5905511811023622},{"duration":0.13636350000001585,"midi":40,"time":155.45439,"velocity":0.5905511811023622},{"duration":0.13636350000001585,"midi":40,"time":155.45439,"velocity":0.5905511811023622},{"duration":0.13636349999998743,"midi":35,"time":155.5907535,"velocity":0.5905511811023622},{"duration":0.13636349999998743,"midi":43,"time":155.5907535,"velocity":0.5905511811023622},{"duration":0.13636349999998743,"midi":35,"time":155.5907535,"velocity":0.5905511811023622},{"duration":0.13636349999998743,"midi":35,"time":155.5907535,"velocity":0.5905511811023622},{"duration":0.13636349999998743,"midi":35,"time":155.8634805,"velocity":0.5905511811023622},{"duration":0.13636349999998743,"midi":35,"time":155.8634805,"velocity":0.5905511811023622},{"duration":0.13636349999998743,"midi":35,"time":155.8634805,"velocity":0.5905511811023622},{"duration":0.13636350000001585,"midi":45,"time":155.999844,"velocity":0.5905511811023622},{"duration":0.13636350000001585,"midi":49,"time":155.999844,"velocity":0.5905511811023622},{"duration":0.13636350000001585,"midi":49,"time":155.999844,"velocity":0.5905511811023622},{"duration":0.13636349999998743,"midi":35,"time":156.1362075,"velocity":0.5905511811023622},{"duration":0.13636349999998743,"midi":35,"time":156.1362075,"velocity":0.5905511811023622},{"duration":0.13636349999998743,"midi":35,"time":156.1362075,"velocity":0.5905511811023622},{"duration":0.13636349999998743,"midi":43,"time":156.1362075,"velocity":0.5905511811023622},{"duration":0.13636349999998743,"midi":38,"time":156.272571,"velocity":0.5905511811023622},{"duration":0.13636349999998743,"midi":38,"time":156.272571,"velocity":0.5905511811023622},{"duration":0.13636349999998743,"midi":38,"time":156.272571,"velocity":0.5905511811023622},{"duration":0.13636350000001585,"midi":35,"time":156.4089345,"velocity":0.5905511811023622},{"duration":0.13636350000001585,"midi":40,"time":156.4089345,"velocity":0.5905511811023622},{"duration":0.13636350000001585,"midi":35,"time":156.4089345,"velocity":0.5905511811023622},{"duration":0.13636350000001585,"midi":35,"time":156.4089345,"velocity":0.5905511811023622},{"duration":0.13636349999998743,"midi":49,"time":156.545298,"velocity":0.5905511811023622},{"duration":0.13636349999998743,"midi":49,"time":156.545298,"velocity":0.5905511811023622},{"duration":0.13636350000001585,"midi":40,"time":156.6816615,"velocity":0.5905511811023622},{"duration":0.13636350000001585,"midi":40,"time":156.6816615,"velocity":0.5905511811023622},{"duration":0.13636350000001585,"midi":40,"time":156.6816615,"velocity":0.5905511811023622},{"duration":0.13636349999998743,"midi":35,"time":156.818025,"velocity":0.5905511811023622},{"duration":0.13636349999998743,"midi":35,"time":156.818025,"velocity":0.5905511811023622},{"duration":0.13636349999998743,"midi":35,"time":156.818025,"velocity":0.5905511811023622},{"duration":0.13636350000001585,"midi":35,"time":156.9543885,"velocity":0.5905511811023622},{"duration":0.13636350000001585,"midi":40,"time":156.9543885,"velocity":0.5905511811023622},{"duration":0.13636350000001585,"midi":35,"time":156.9543885,"velocity":0.5905511811023622},{"duration":0.13636350000001585,"midi":40,"time":156.9543885,"velocity":0.5905511811023622},{"duration":0.13636350000001585,"midi":35,"time":156.9543885,"velocity":0.5905511811023622},{"duration":0.13636350000001585,"midi":40,"time":156.9543885,"velocity":0.5905511811023622},{"duration":0.13636349999998743,"midi":46,"time":157.090752,"velocity":0.5905511811023622},{"duration":0.13636349999998743,"midi":35,"time":157.090752,"velocity":0.5905511811023622},{"duration":0.13636349999998743,"midi":36,"time":157.090752,"velocity":0.5905511811023622},{"duration":0.13636349999998743,"midi":38,"time":157.090752,"velocity":0.5905511811023622},{"duration":0.13636349999998743,"midi":35,"time":157.090752,"velocity":0.5905511811023622},{"duration":0.13636349999998743,"midi":36,"time":157.090752,"velocity":0.5905511811023622},{"duration":0.13636349999998743,"midi":49,"time":157.090752,"velocity":0.5905511811023622},{"duration":0.13636349999998743,"midi":36,"time":157.363479,"velocity":0.5905511811023622},{"duration":0.13636349999998743,"midi":36,"time":157.363479,"velocity":0.5905511811023622},{"duration":0.13636349999998743,"midi":35,"time":157.363479,"velocity":0.5905511811023622},{"duration":0.13636349999998743,"midi":35,"time":157.363479,"velocity":0.5905511811023622},{"duration":0.13636349999998743,"midi":46,"time":157.363479,"velocity":0.5905511811023622},{"duration":0.13636350000001585,"midi":40,"time":157.636206,"velocity":0.5905511811023622},{"duration":0.13636350000001585,"midi":49,"time":157.636206,"velocity":0.5905511811023622},{"duration":0.13636350000001585,"midi":36,"time":157.636206,"velocity":0.5905511811023622},{"duration":0.13636350000001585,"midi":38,"time":157.636206,"velocity":0.5905511811023622},{"duration":0.13636350000001585,"midi":40,"time":157.636206,"velocity":0.5905511811023622},{"duration":0.13636350000001585,"midi":36,"time":157.636206,"velocity":0.5905511811023622},{"duration":0.13636350000001585,"midi":46,"time":157.908933,"velocity":0.5905511811023622},{"duration":0.13636350000001585,"midi":35,"time":157.908933,"velocity":0.5905511811023622},{"duration":0.13636350000001585,"midi":35,"time":157.908933,"velocity":0.5905511811023622},{"duration":0.13636349999998743,"midi":35,"time":158.0452965,"velocity":0.5905511811023622},{"duration":0.13636349999998743,"midi":35,"time":158.0452965,"velocity":0.5905511811023622},{"duration":0.13636350000001585,"midi":49,"time":158.18166,"velocity":0.5905511811023622},{"duration":0.13636349999998743,"midi":35,"time":158.454387,"velocity":0.5905511811023622},{"duration":0.13636349999998743,"midi":35,"time":158.454387,"velocity":0.5905511811023622},{"duration":0.13636349999998743,"midi":40,"time":158.727114,"velocity":0.5905511811023622},{"duration":0.13636349999998743,"midi":40,"time":158.727114,"velocity":0.5905511811023622},{"duration":0.13636349999998743,"midi":46,"time":158.727114,"velocity":0.5905511811023622},{"duration":0.13636349999998743,"midi":49,"time":158.727114,"velocity":0.5905511811023622},{"duration":0.13636349999998743,"midi":35,"time":158.727114,"velocity":0.5905511811023622},{"duration":0.13636349999998743,"midi":35,"time":158.727114,"velocity":0.5905511811023622},{"duration":0.13636349999998743,"midi":38,"time":158.727114,"velocity":0.5905511811023622},{"duration":0.13636349999998743,"midi":35,"time":158.999841,"velocity":0.5905511811023622},{"duration":0.13636349999998743,"midi":46,"time":158.999841,"velocity":0.5905511811023622},{"duration":0.13636349999998743,"midi":35,"time":158.999841,"velocity":0.5905511811023622},{"duration":0.13636350000001585,"midi":40,"time":159.1362045,"velocity":0.5905511811023622},{"duration":0.13636350000001585,"midi":40,"time":159.1362045,"velocity":0.5905511811023622},{"duration":0.13636349999998743,"midi":49,"time":159.272568,"velocity":0.5905511811023622},{"duration":0.13636349999998743,"midi":46,"time":159.272568,"velocity":0.5905511811023622},{"duration":0.13636349999998743,"midi":35,"time":159.272568,"velocity":0.5905511811023622},{"duration":0.13636349999998743,"midi":36,"time":159.272568,"velocity":0.5905511811023622},{"duration":0.13636349999998743,"midi":36,"time":159.272568,"velocity":0.5905511811023622},{"duration":0.13636349999998743,"midi":38,"time":159.272568,"velocity":0.5905511811023622},{"duration":0.13636349999998743,"midi":35,"time":159.272568,"velocity":0.5905511811023622},{"duration":0.13636349999998743,"midi":35,"time":159.545295,"velocity":0.5905511811023622},{"duration":0.13636349999998743,"midi":36,"time":159.545295,"velocity":0.5905511811023622},{"duration":0.13636349999998743,"midi":35,"time":159.545295,"velocity":0.5905511811023622},{"duration":0.13636349999998743,"midi":36,"time":159.545295,"velocity":0.5905511811023622},{"duration":0.13636349999998743,"midi":46,"time":159.545295,"velocity":0.5905511811023622},{"duration":0.13636350000001585,"midi":40,"time":159.81802199999998,"velocity":0.5905511811023622},{"duration":0.13636350000001585,"midi":36,"time":159.81802199999998,"velocity":0.5905511811023622},{"duration":0.13636350000001585,"midi":49,"time":159.81802199999998,"velocity":0.5905511811023622},{"duration":0.13636350000001585,"midi":36,"time":159.81802199999998,"velocity":0.5905511811023622},{"duration":0.13636350000001585,"midi":40,"time":159.81802199999998,"velocity":0.5905511811023622},{"duration":0.13636350000001585,"midi":38,"time":159.81802199999998,"velocity":0.5905511811023622},{"duration":0.13636349999998743,"midi":35,"time":159.9543855,"velocity":0.5905511811023622},{"duration":0.13636349999998743,"midi":35,"time":159.9543855,"velocity":0.5905511811023622},{"duration":0.13636350000001585,"midi":46,"time":160.090749,"velocity":0.5905511811023622},{"duration":0.13636350000001585,"midi":35,"time":160.090749,"velocity":0.5905511811023622},{"duration":0.13636350000001585,"midi":35,"time":160.090749,"velocity":0.5905511811023622},{"duration":0.13636349999998743,"midi":40,"time":160.2271125,"velocity":0.5905511811023622},{"duration":0.13636349999998743,"midi":40,"time":160.2271125,"velocity":0.5905511811023622},{"duration":0.13636350000001585,"midi":49,"time":160.363476,"velocity":0.5905511811023622},{"duration":0.13636350000001585,"midi":35,"time":160.636203,"velocity":0.5905511811023622},{"duration":0.13636350000001585,"midi":35,"time":160.636203,"velocity":0.5905511811023622},{"duration":0.13636349999998743,"midi":35,"time":160.90893,"velocity":0.5905511811023622},{"duration":0.13636349999998743,"midi":49,"time":160.90893,"velocity":0.5905511811023622},{"duration":0.13636349999998743,"midi":38,"time":160.90893,"velocity":0.5905511811023622},{"duration":0.13636349999998743,"midi":40,"time":160.90893,"velocity":0.5905511811023622},{"duration":0.13636349999998743,"midi":46,"time":160.90893,"velocity":0.5905511811023622},{"duration":0.13636349999998743,"midi":35,"time":160.90893,"velocity":0.5905511811023622},{"duration":0.13636349999998743,"midi":40,"time":160.90893,"velocity":0.5905511811023622},{"duration":0.13636349999998743,"midi":46,"time":161.181657,"velocity":0.5905511811023622},{"duration":0.13636349999998743,"midi":40,"time":161.181657,"velocity":0.5905511811023622},{"duration":0.13636349999998743,"midi":40,"time":161.181657,"velocity":0.5905511811023622},{"duration":0.13636349999998743,"midi":35,"time":161.181657,"velocity":0.5905511811023622},{"duration":0.13636349999998743,"midi":35,"time":161.181657,"velocity":0.5905511811023622},{"duration":0.13636349999998743,"midi":36,"time":161.454384,"velocity":0.5905511811023622},{"duration":0.13636349999998743,"midi":35,"time":161.454384,"velocity":0.5905511811023622},{"duration":0.13636349999998743,"midi":36,"time":161.454384,"velocity":0.5905511811023622},{"duration":0.13636349999998743,"midi":49,"time":161.454384,"velocity":0.5905511811023622},{"duration":0.13636349999998743,"midi":38,"time":161.454384,"velocity":0.5905511811023622},{"duration":0.13636349999998743,"midi":35,"time":161.454384,"velocity":0.5905511811023622},{"duration":0.13636349999998743,"midi":46,"time":161.454384,"velocity":0.5905511811023622},{"duration":0.13636349999998743,"midi":35,"time":161.727111,"velocity":0.5905511811023622},{"duration":0.13636349999998743,"midi":46,"time":161.727111,"velocity":0.5905511811023622},{"duration":0.13636349999998743,"midi":36,"time":161.727111,"velocity":0.5905511811023622},{"duration":0.13636349999998743,"midi":35,"time":161.727111,"velocity":0.5905511811023622},{"duration":0.13636349999998743,"midi":36,"time":161.727111,"velocity":0.5905511811023622},{"duration":0.13636349999998743,"midi":38,"time":161.999838,"velocity":0.5905511811023622},{"duration":0.13636349999998743,"midi":40,"time":161.999838,"velocity":0.5905511811023622},{"duration":0.13636349999998743,"midi":36,"time":161.999838,"velocity":0.5905511811023622},{"duration":0.13636349999998743,"midi":49,"time":161.999838,"velocity":0.5905511811023622},{"duration":0.13636349999998743,"midi":40,"time":161.999838,"velocity":0.5905511811023622},{"duration":0.13636349999998743,"midi":36,"time":161.999838,"velocity":0.5905511811023622},{"duration":0.13636350000001585,"midi":46,"time":162.272565,"velocity":0.5905511811023622},{"duration":0.13636350000001585,"midi":35,"time":162.272565,"velocity":0.5905511811023622},{"duration":0.13636350000001585,"midi":35,"time":162.272565,"velocity":0.5905511811023622},{"duration":0.13636349999998743,"midi":35,"time":162.4089285,"velocity":0.5905511811023622},{"duration":0.13636349999998743,"midi":35,"time":162.4089285,"velocity":0.5905511811023622},{"duration":0.13636350000001585,"midi":49,"time":162.545292,"velocity":0.5905511811023622},{"duration":0.13636350000001585,"midi":35,"time":162.818019,"velocity":0.5905511811023622},{"duration":0.13636350000001585,"midi":35,"time":162.818019,"velocity":0.5905511811023622},{"duration":0.13636350000001585,"midi":35,"time":163.090746,"velocity":0.5905511811023622},{"duration":0.13636350000001585,"midi":40,"time":163.090746,"velocity":0.5905511811023622},{"duration":0.13636350000001585,"midi":40,"time":163.090746,"velocity":0.5905511811023622},{"duration":0.13636350000001585,"midi":38,"time":163.090746,"velocity":0.5905511811023622},{"duration":0.13636350000001585,"midi":46,"time":163.090746,"velocity":0.5905511811023622},{"duration":0.13636350000001585,"midi":49,"time":163.090746,"velocity":0.5905511811023622},{"duration":0.13636350000001585,"midi":35,"time":163.090746,"velocity":0.5905511811023622},{"duration":0.13636349999998743,"midi":35,"time":163.363473,"velocity":0.5905511811023622},{"duration":0.13636349999998743,"midi":46,"time":163.363473,"velocity":0.5905511811023622},{"duration":0.13636349999998743,"midi":35,"time":163.363473,"velocity":0.5905511811023622},{"duration":0.13636350000001585,"midi":40,"time":163.4998365,"velocity":0.5905511811023622},{"duration":0.13636350000001585,"midi":40,"time":163.4998365,"velocity":0.5905511811023622},{"duration":0.13636349999998743,"midi":38,"time":163.6362,"velocity":0.5905511811023622},{"duration":0.13636349999998743,"midi":36,"time":163.6362,"velocity":0.5905511811023622},{"duration":0.13636349999998743,"midi":46,"time":163.6362,"velocity":0.5905511811023622},{"duration":0.13636349999998743,"midi":35,"time":163.6362,"velocity":0.5905511811023622},{"duration":0.13636349999998743,"midi":36,"time":163.6362,"velocity":0.5905511811023622},{"duration":0.13636349999998743,"midi":49,"time":163.6362,"velocity":0.5905511811023622},{"duration":0.13636349999998743,"midi":35,"time":163.6362,"velocity":0.5905511811023622},{"duration":0.13636349999998743,"midi":36,"time":163.908927,"velocity":0.5905511811023622},{"duration":0.13636349999998743,"midi":46,"time":163.908927,"velocity":0.5905511811023622},{"duration":0.13636349999998743,"midi":35,"time":163.908927,"velocity":0.5905511811023622},{"duration":0.13636349999998743,"midi":35,"time":163.908927,"velocity":0.5905511811023622},{"duration":0.13636349999998743,"midi":36,"time":163.908927,"velocity":0.5905511811023622},{"duration":0.13636349999998743,"midi":49,"time":164.181654,"velocity":0.5905511811023622},{"duration":0.13636349999998743,"midi":40,"time":164.181654,"velocity":0.5905511811023622},{"duration":0.13636349999998743,"midi":36,"time":164.181654,"velocity":0.5905511811023622},{"duration":0.13636349999998743,"midi":38,"time":164.181654,"velocity":0.5905511811023622},{"duration":0.13636349999998743,"midi":40,"time":164.181654,"velocity":0.5905511811023622},{"duration":0.13636349999998743,"midi":36,"time":164.181654,"velocity":0.5905511811023622},{"duration":0.13636350000001585,"midi":35,"time":164.3180175,"velocity":0.5905511811023622},{"duration":0.13636350000001585,"midi":35,"time":164.3180175,"velocity":0.5905511811023622},{"duration":0.13636349999998743,"midi":46,"time":164.454381,"velocity":0.5905511811023622},{"duration":0.13636349999998743,"midi":35,"time":164.454381,"velocity":0.5905511811023622},{"duration":0.13636349999998743,"midi":35,"time":164.454381,"velocity":0.5905511811023622},{"duration":0.13636349999998743,"midi":40,"time":164.5907445,"velocity":0.5905511811023622},{"duration":0.13636349999998743,"midi":40,"time":164.5907445,"velocity":0.5905511811023622},{"duration":0.13636350000001585,"midi":49,"time":164.727108,"velocity":0.5905511811023622},{"duration":0.13636350000001585,"midi":35,"time":164.999835,"velocity":0.5905511811023622},{"duration":0.13636350000001585,"midi":35,"time":164.999835,"velocity":0.5905511811023622},{"duration":0.13636350000001585,"midi":46,"time":165.272562,"velocity":0.5905511811023622},{"duration":0.13636350000001585,"midi":35,"time":165.272562,"velocity":0.5905511811023622},{"duration":0.13636350000001585,"midi":40,"time":165.272562,"velocity":0.5905511811023622},{"duration":0.13636350000001585,"midi":40,"time":165.272562,"velocity":0.5905511811023622},{"duration":0.13636350000001585,"midi":38,"time":165.272562,"velocity":0.5905511811023622},{"duration":0.13636350000001585,"midi":35,"time":165.272562,"velocity":0.5905511811023622},{"duration":0.13636350000001585,"midi":49,"time":165.272562,"velocity":0.5905511811023622},{"duration":0.13636349999998743,"midi":35,"time":165.545289,"velocity":0.5905511811023622},{"duration":0.13636349999998743,"midi":40,"time":165.545289,"velocity":0.5905511811023622},{"duration":0.13636349999998743,"midi":40,"time":165.545289,"velocity":0.5905511811023622},{"duration":0.13636349999998743,"midi":46,"time":165.545289,"velocity":0.5905511811023622},{"duration":0.13636349999998743,"midi":35,"time":165.545289,"velocity":0.5905511811023622},{"duration":0.13636349999998743,"midi":36,"time":165.818016,"velocity":0.5905511811023622},{"duration":0.13636349999998743,"midi":35,"time":165.818016,"velocity":0.5905511811023622},{"duration":0.13636349999998743,"midi":46,"time":165.818016,"velocity":0.5905511811023622},{"duration":0.13636349999998743,"midi":36,"time":165.818016,"velocity":0.5905511811023622},{"duration":0.13636349999998743,"midi":38,"time":165.818016,"velocity":0.5905511811023622},{"duration":0.13636349999998743,"midi":49,"time":165.818016,"velocity":0.5905511811023622},{"duration":0.13636349999998743,"midi":35,"time":165.818016,"velocity":0.5905511811023622},{"duration":0.13636349999998743,"midi":35,"time":166.090743,"velocity":0.5905511811023622},{"duration":0.13636349999998743,"midi":35,"time":166.090743,"velocity":0.5905511811023622},{"duration":0.13636349999998743,"midi":36,"time":166.090743,"velocity":0.5905511811023622},{"duration":0.13636349999998743,"midi":46,"time":166.090743,"velocity":0.5905511811023622},{"duration":0.13636349999998743,"midi":36,"time":166.090743,"velocity":0.5905511811023622},{"duration":0.13636349999998743,"midi":40,"time":166.36347,"velocity":0.5905511811023622},{"duration":0.13636349999998743,"midi":36,"time":166.36347,"velocity":0.5905511811023622},{"duration":0.13636349999998743,"midi":40,"time":166.36347,"velocity":0.5905511811023622},{"duration":0.13636349999998743,"midi":36,"time":166.36347,"velocity":0.5905511811023622},{"duration":0.13636349999998743,"midi":38,"time":166.36347,"velocity":0.5905511811023622},{"duration":0.13636349999998743,"midi":49,"time":166.36347,"velocity":0.5905511811023622},{"duration":0.13636349999998743,"midi":35,"time":166.636197,"velocity":0.5905511811023622},{"duration":0.13636349999998743,"midi":35,"time":166.636197,"velocity":0.5905511811023622},{"duration":0.13636349999998743,"midi":46,"time":166.636197,"velocity":0.5905511811023622},{"duration":0.13636349999998743,"midi":35,"time":166.7725605,"velocity":0.5905511811023622},{"duration":0.13636349999998743,"midi":35,"time":166.7725605,"velocity":0.5905511811023622},{"duration":0.13636350000001585,"midi":49,"time":166.90892399999998,"velocity":0.5905511811023622},{"duration":0.13636350000001585,"midi":35,"time":167.181651,"velocity":0.5905511811023622},{"duration":0.13636350000001585,"midi":35,"time":167.181651,"velocity":0.5905511811023622},{"duration":0.13636350000001585,"midi":38,"time":167.454378,"velocity":0.5905511811023622},{"duration":0.13636350000001585,"midi":40,"time":167.454378,"velocity":0.5905511811023622},{"duration":0.13636350000001585,"midi":35,"time":167.454378,"velocity":0.5905511811023622},{"duration":0.13636350000001585,"midi":46,"time":167.454378,"velocity":0.5905511811023622},{"duration":0.13636350000001585,"midi":49,"time":167.454378,"velocity":0.5905511811023622},{"duration":0.13636350000001585,"midi":35,"time":167.454378,"velocity":0.5905511811023622},{"duration":0.13636350000001585,"midi":40,"time":167.454378,"velocity":0.5905511811023622},{"duration":0.13636350000001585,"midi":46,"time":167.727105,"velocity":0.5905511811023622},{"duration":0.13636350000001585,"midi":35,"time":167.727105,"velocity":0.5905511811023622},{"duration":0.13636350000001585,"midi":35,"time":167.727105,"velocity":0.5905511811023622},{"duration":0.13636349999998743,"midi":40,"time":167.8634685,"velocity":0.5905511811023622},{"duration":0.13636349999998743,"midi":40,"time":167.8634685,"velocity":0.5905511811023622},{"duration":0.13636349999998743,"midi":35,"time":167.999832,"velocity":0.5905511811023622},{"duration":0.13636349999998743,"midi":46,"time":167.999832,"velocity":0.5905511811023622},{"duration":0.13636349999998743,"midi":36,"time":167.999832,"velocity":0.5905511811023622},{"duration":0.13636349999998743,"midi":49,"time":167.999832,"velocity":0.5905511811023622},{"duration":0.13636349999998743,"midi":36,"time":167.999832,"velocity":0.5905511811023622},{"duration":0.13636349999998743,"midi":38,"time":167.999832,"velocity":0.5905511811023622},{"duration":0.13636349999998743,"midi":35,"time":167.999832,"velocity":0.5905511811023622},{"duration":0.13636349999998743,"midi":35,"time":168.272559,"velocity":0.5905511811023622},{"duration":0.13636349999998743,"midi":36,"time":168.272559,"velocity":0.5905511811023622},{"duration":0.13636349999998743,"midi":35,"time":168.272559,"velocity":0.5905511811023622},{"duration":0.13636349999998743,"midi":36,"time":168.272559,"velocity":0.5905511811023622},{"duration":0.13636349999998743,"midi":46,"time":168.272559,"velocity":0.5905511811023622},{"duration":0.13636349999998743,"midi":49,"time":168.545286,"velocity":0.5905511811023622},{"duration":0.13636349999998743,"midi":40,"time":168.545286,"velocity":0.5905511811023622},{"duration":0.13636349999998743,"midi":36,"time":168.545286,"velocity":0.5905511811023622},{"duration":0.13636349999998743,"midi":38,"time":168.545286,"velocity":0.5905511811023622},{"duration":0.13636349999998743,"midi":36,"time":168.545286,"velocity":0.5905511811023622},{"duration":0.13636349999998743,"midi":40,"time":168.545286,"velocity":0.5905511811023622},{"duration":0.13636350000001585,"midi":35,"time":168.6816495,"velocity":0.5905511811023622},{"duration":0.13636350000001585,"midi":35,"time":168.6816495,"velocity":0.5905511811023622},{"duration":0.13636349999998743,"midi":35,"time":168.818013,"velocity":0.5905511811023622},{"duration":0.13636349999998743,"midi":35,"time":168.818013,"velocity":0.5905511811023622},{"duration":0.13636349999998743,"midi":46,"time":168.818013,"velocity":0.5905511811023622},{"duration":0.13636350000001585,"midi":40,"time":168.9543765,"velocity":0.5905511811023622},{"duration":0.13636350000001585,"midi":40,"time":168.9543765,"velocity":0.5905511811023622},{"duration":0.13636349999998743,"midi":49,"time":169.09074,"velocity":0.5905511811023622},{"duration":0.13636350000001585,"midi":35,"time":169.36346699999999,"velocity":0.5905511811023622},{"duration":0.13636350000001585,"midi":35,"time":169.36346699999999,"velocity":0.5905511811023622},{"duration":0.13636350000001585,"midi":35,"time":169.636194,"velocity":0.5905511811023622},{"duration":0.13636350000001585,"midi":46,"time":169.636194,"velocity":0.5905511811023622},{"duration":0.13636350000001585,"midi":40,"time":169.636194,"velocity":0.5905511811023622},{"duration":0.13636350000001585,"midi":49,"time":169.636194,"velocity":0.5905511811023622},{"duration":0.13636350000001585,"midi":40,"time":169.636194,"velocity":0.5905511811023622},{"duration":0.13636350000001585,"midi":38,"time":169.636194,"velocity":0.5905511811023622},{"duration":0.13636350000001585,"midi":35,"time":169.636194,"velocity":0.5905511811023622},{"duration":0.13636350000001585,"midi":46,"time":169.908921,"velocity":0.5905511811023622},{"duration":0.13636350000001585,"midi":40,"time":169.908921,"velocity":0.5905511811023622},{"duration":0.13636350000001585,"midi":35,"time":169.908921,"velocity":0.5905511811023622},{"duration":0.13636350000001585,"midi":35,"time":169.908921,"velocity":0.5905511811023622},{"duration":0.13636350000001585,"midi":40,"time":169.908921,"velocity":0.5905511811023622},{"duration":0.13636350000001585,"midi":35,"time":170.181648,"velocity":0.5905511811023622},{"duration":0.13636350000001585,"midi":35,"time":170.181648,"velocity":0.5905511811023622},{"duration":0.13636350000001585,"midi":36,"time":170.181648,"velocity":0.5905511811023622},{"duration":0.13636350000001585,"midi":38,"time":170.181648,"velocity":0.5905511811023622},{"duration":0.13636350000001585,"midi":49,"time":170.181648,"velocity":0.5905511811023622},{"duration":0.13636350000001585,"midi":36,"time":170.181648,"velocity":0.5905511811023622},{"duration":0.13636350000001585,"midi":46,"time":170.181648,"velocity":0.5905511811023622},{"duration":0.13636349999998743,"midi":46,"time":170.454375,"velocity":0.5905511811023622},{"duration":0.13636349999998743,"midi":36,"time":170.454375,"velocity":0.5905511811023622},{"duration":0.13636349999998743,"midi":35,"time":170.454375,"velocity":0.5905511811023622},{"duration":0.13636349999998743,"midi":35,"time":170.454375,"velocity":0.5905511811023622},{"duration":0.13636349999998743,"midi":36,"time":170.454375,"velocity":0.5905511811023622},{"duration":0.13636349999998743,"midi":40,"time":170.727102,"velocity":0.5905511811023622},{"duration":0.13636349999998743,"midi":40,"time":170.727102,"velocity":0.5905511811023622},{"duration":0.13636349999998743,"midi":38,"time":170.727102,"velocity":0.5905511811023622},{"duration":0.13636349999998743,"midi":36,"time":170.727102,"velocity":0.5905511811023622},{"duration":0.13636349999998743,"midi":49,"time":170.727102,"velocity":0.5905511811023622},{"duration":0.13636349999998743,"midi":36,"time":170.727102,"velocity":0.5905511811023622},{"duration":0.13636349999998743,"midi":46,"time":170.999829,"velocity":0.5905511811023622},{"duration":0.13636349999998743,"midi":35,"time":170.999829,"velocity":0.5905511811023622},{"duration":0.13636349999998743,"midi":35,"time":170.999829,"velocity":0.5905511811023622},{"duration":0.13636350000001585,"midi":35,"time":171.1361925,"velocity":0.5905511811023622},{"duration":0.13636350000001585,"midi":35,"time":171.1361925,"velocity":0.5905511811023622},{"duration":0.13636349999998743,"midi":49,"time":171.272556,"velocity":0.5905511811023622},{"duration":0.13636349999998743,"midi":35,"time":171.545283,"velocity":0.5905511811023622},{"duration":0.13636349999998743,"midi":35,"time":171.545283,"velocity":0.5905511811023622},{"duration":0.13636350000001585,"midi":35,"time":171.81801,"velocity":0.5905511811023622},{"duration":0.13636350000001585,"midi":49,"time":171.81801,"velocity":0.5905511811023622},{"duration":0.13636350000001585,"midi":40,"time":171.81801,"velocity":0.5905511811023622},{"duration":0.13636350000001585,"midi":40,"time":171.81801,"velocity":0.5905511811023622},{"duration":0.13636350000001585,"midi":38,"time":171.81801,"velocity":0.5905511811023622},{"duration":0.13636350000001585,"midi":35,"time":171.81801,"velocity":0.5905511811023622},{"duration":0.13636350000001585,"midi":46,"time":171.81801,"velocity":0.5905511811023622},{"duration":0.13636350000001585,"midi":35,"time":172.090737,"velocity":0.5905511811023622},{"duration":0.13636350000001585,"midi":35,"time":172.090737,"velocity":0.5905511811023622},{"duration":0.13636350000001585,"midi":46,"time":172.090737,"velocity":0.5905511811023622},{"duration":0.13636349999998743,"midi":40,"time":172.2271005,"velocity":0.5905511811023622},{"duration":0.13636349999998743,"midi":40,"time":172.2271005,"velocity":0.5905511811023622},{"duration":0.13636350000001585,"midi":49,"time":172.363464,"velocity":0.5905511811023622},{"duration":0.13636350000001585,"midi":46,"time":172.363464,"velocity":0.5905511811023622},{"duration":0.13636350000001585,"midi":35,"time":172.363464,"velocity":0.5905511811023622},{"duration":0.13636350000001585,"midi":36,"time":172.363464,"velocity":0.5905511811023622},{"duration":0.13636350000001585,"midi":35,"time":172.363464,"velocity":0.5905511811023622},{"duration":0.13636350000001585,"midi":38,"time":172.363464,"velocity":0.5905511811023622},{"duration":0.13636350000001585,"midi":36,"time":172.363464,"velocity":0.5905511811023622},{"duration":0.13636349999998743,"midi":46,"time":172.636191,"velocity":0.5905511811023622},{"duration":0.13636349999998743,"midi":49,"time":172.908918,"velocity":0.5905511811023622},{"duration":0.13636349999998743,"midi":40,"time":172.908918,"velocity":0.5905511811023622},{"duration":0.13636349999998743,"midi":40,"time":172.908918,"velocity":0.5905511811023622},{"duration":0.13636349999998743,"midi":38,"time":172.908918,"velocity":0.5905511811023622},{"duration":0.13636349999998743,"midi":46,"time":173.181645,"velocity":0.5905511811023622},{"duration":0.13636350000001585,"midi":40,"time":173.3180085,"velocity":0.5905511811023622},{"duration":0.13636350000001585,"midi":40,"time":173.3180085,"velocity":0.5905511811023622},{"duration":0.13636350000001585,"midi":35,"time":174.54528,"velocity":0.5905511811023622},{"duration":0.13636350000001585,"midi":43,"time":174.54528,"velocity":0.5905511811023622},{"duration":0.13636350000001585,"midi":36,"time":174.54528,"velocity":0.5905511811023622},{"duration":0.13636350000001585,"midi":49,"time":174.54528,"velocity":0.5905511811023622},{"duration":0.13636350000001585,"midi":51,"time":174.54528,"velocity":0.5905511811023622},{"duration":0.13636350000001585,"midi":43,"time":174.54528,"velocity":0.5905511811023622},{"duration":0.13636350000001585,"midi":43,"time":174.54528,"velocity":0.5905511811023622},{"duration":0.13636350000001585,"midi":35,"time":174.54528,"velocity":0.5905511811023622},{"duration":0.13636350000001585,"midi":36,"time":174.54528,"velocity":0.5905511811023622},{"duration":0.13636350000001585,"midi":46,"time":174.54528,"velocity":0.5905511811023622},{"duration":0.13636350000001585,"midi":38,"time":174.54528,"velocity":0.5905511811023622},{"duration":0.13636349999998743,"midi":43,"time":174.6816435,"velocity":0.5905511811023622},{"duration":0.13636349999998743,"midi":43,"time":174.6816435,"velocity":0.5905511811023622},{"duration":0.13636349999998743,"midi":43,"time":174.6816435,"velocity":0.5905511811023622},{"duration":0.13636350000001585,"midi":46,"time":174.818007,"velocity":0.5905511811023622},{"duration":0.13636350000001585,"midi":35,"time":174.818007,"velocity":0.5905511811023622},{"duration":0.13636350000001585,"midi":51,"time":174.818007,"velocity":0.5905511811023622},{"duration":0.13636350000001585,"midi":36,"time":174.818007,"velocity":0.5905511811023622},{"duration":0.13636350000001585,"midi":35,"time":174.818007,"velocity":0.5905511811023622},{"duration":0.13636350000001585,"midi":36,"time":174.818007,"velocity":0.5905511811023622},{"duration":0.13636349999998743,"midi":40,"time":175.090734,"velocity":0.5905511811023622},{"duration":0.13636349999998743,"midi":43,"time":175.090734,"velocity":0.5905511811023622},{"duration":0.13636349999998743,"midi":36,"time":175.090734,"velocity":0.5905511811023622},{"duration":0.13636349999998743,"midi":49,"time":175.090734,"velocity":0.5905511811023622},{"duration":0.13636349999998743,"midi":36,"time":175.090734,"velocity":0.5905511811023622},{"duration":0.13636349999998743,"midi":43,"time":175.090734,"velocity":0.5905511811023622},{"duration":0.13636349999998743,"midi":40,"time":175.090734,"velocity":0.5905511811023622},{"duration":0.13636349999998743,"midi":43,"time":175.090734,"velocity":0.5905511811023622},{"duration":0.13636349999998743,"midi":51,"time":175.090734,"velocity":0.5905511811023622},{"duration":0.13636349999998743,"midi":38,"time":175.090734,"velocity":0.5905511811023622},{"duration":0.13636349999998743,"midi":35,"time":175.363461,"velocity":0.5905511811023622},{"duration":0.13636349999998743,"midi":51,"time":175.363461,"velocity":0.5905511811023622},{"duration":0.13636349999998743,"midi":46,"time":175.363461,"velocity":0.5905511811023622},{"duration":0.13636349999998743,"midi":35,"time":175.363461,"velocity":0.5905511811023622},{"duration":0.13636350000001585,"midi":35,"time":175.4998245,"velocity":0.5905511811023622},{"duration":0.13636350000001585,"midi":35,"time":175.4998245,"velocity":0.5905511811023622},{"duration":0.13636349999998743,"midi":51,"time":175.636188,"velocity":0.5905511811023622},{"duration":0.13636349999998743,"midi":43,"time":175.636188,"velocity":0.5905511811023622},{"duration":0.13636349999998743,"midi":43,"time":175.636188,"velocity":0.5905511811023622},{"duration":0.13636349999998743,"midi":49,"time":175.636188,"velocity":0.5905511811023622},{"duration":0.13636349999998743,"midi":43,"time":175.636188,"velocity":0.5905511811023622},{"duration":0.13636350000001585,"midi":43,"time":175.7725515,"velocity":0.5905511811023622},{"duration":0.13636350000001585,"midi":43,"time":175.7725515,"velocity":0.5905511811023622},{"duration":0.13636350000001585,"midi":43,"time":175.7725515,"velocity":0.5905511811023622},{"duration":0.13636349999998743,"midi":35,"time":175.908915,"velocity":0.5905511811023622},{"duration":0.13636349999998743,"midi":35,"time":175.908915,"velocity":0.5905511811023622},{"duration":0.13636349999998743,"midi":51,"time":175.908915,"velocity":0.5905511811023622},{"duration":0.13636349999998743,"midi":40,"time":176.181642,"velocity":0.5905511811023622},{"duration":0.13636349999998743,"midi":49,"time":176.181642,"velocity":0.5905511811023622},{"duration":0.13636349999998743,"midi":46,"time":176.181642,"velocity":0.5905511811023622},{"duration":0.13636349999998743,"midi":40,"time":176.181642,"velocity":0.5905511811023622},{"duration":0.13636349999998743,"midi":35,"time":176.181642,"velocity":0.5905511811023622},{"duration":0.13636349999998743,"midi":35,"time":176.181642,"velocity":0.5905511811023622},{"duration":0.13636349999998743,"midi":43,"time":176.181642,"velocity":0.5905511811023622},{"duration":0.13636349999998743,"midi":51,"time":176.181642,"velocity":0.5905511811023622},{"duration":0.13636349999998743,"midi":38,"time":176.181642,"velocity":0.5905511811023622},{"duration":0.13636349999998743,"midi":43,"time":176.181642,"velocity":0.5905511811023622},{"duration":0.13636349999998743,"midi":43,"time":176.181642,"velocity":0.5905511811023622},{"duration":0.13636350000001585,"midi":51,"time":176.45436899999999,"velocity":0.5905511811023622},{"duration":0.13636350000001585,"midi":35,"time":176.45436899999999,"velocity":0.5905511811023622},{"duration":0.13636350000001585,"midi":46,"time":176.45436899999999,"velocity":0.5905511811023622},{"duration":0.13636350000001585,"midi":35,"time":176.45436899999999,"velocity":0.5905511811023622},{"duration":0.13636349999998743,"midi":40,"time":176.5907325,"velocity":0.5905511811023622},{"duration":0.13636349999998743,"midi":40,"time":176.5907325,"velocity":0.5905511811023622},{"duration":0.13636350000001585,"midi":36,"time":176.727096,"velocity":0.5905511811023622},{"duration":0.13636350000001585,"midi":38,"time":176.727096,"velocity":0.5905511811023622},{"duration":0.13636350000001585,"midi":36,"time":176.727096,"velocity":0.5905511811023622},{"duration":0.13636350000001585,"midi":43,"time":176.727096,"velocity":0.5905511811023622},{"duration":0.13636350000001585,"midi":51,"time":176.727096,"velocity":0.5905511811023622},{"duration":0.13636350000001585,"midi":49,"time":176.727096,"velocity":0.5905511811023622},{"duration":0.13636350000001585,"midi":43,"time":176.727096,"velocity":0.5905511811023622},{"duration":0.13636350000001585,"midi":43,"time":176.727096,"velocity":0.5905511811023622},{"duration":0.13636350000001585,"midi":35,"time":176.727096,"velocity":0.5905511811023622},{"duration":0.13636350000001585,"midi":35,"time":176.727096,"velocity":0.5905511811023622},{"duration":0.13636350000001585,"midi":46,"time":176.727096,"velocity":0.5905511811023622},{"duration":0.13636349999998743,"midi":43,"time":176.8634595,"velocity":0.5905511811023622},{"duration":0.13636349999998743,"midi":43,"time":176.8634595,"velocity":0.5905511811023622},{"duration":0.13636349999998743,"midi":43,"time":176.8634595,"velocity":0.5905511811023622},{"duration":0.13636350000001585,"midi":46,"time":176.999823,"velocity":0.5905511811023622},{"duration":0.13636350000001585,"midi":36,"time":176.999823,"velocity":0.5905511811023622},{"duration":0.13636350000001585,"midi":35,"time":176.999823,"velocity":0.5905511811023622},{"duration":0.13636350000001585,"midi":35,"time":176.999823,"velocity":0.5905511811023622},{"duration":0.13636350000001585,"midi":36,"time":176.999823,"velocity":0.5905511811023622},{"duration":0.13636350000001585,"midi":51,"time":176.999823,"velocity":0.5905511811023622},{"duration":0.13636350000001585,"midi":38,"time":177.27255,"velocity":0.5905511811023622},{"duration":0.13636350000001585,"midi":49,"time":177.27255,"velocity":0.5905511811023622},{"duration":0.13636350000001585,"midi":43,"time":177.27255,"velocity":0.5905511811023622},{"duration":0.13636350000001585,"midi":43,"time":177.27255,"velocity":0.5905511811023622},{"duration":0.13636350000001585,"midi":40,"time":177.27255,"velocity":0.5905511811023622},{"duration":0.13636350000001585,"midi":40,"time":177.27255,"velocity":0.5905511811023622},{"duration":0.13636350000001585,"midi":43,"time":177.27255,"velocity":0.5905511811023622},{"duration":0.13636350000001585,"midi":36,"time":177.27255,"velocity":0.5905511811023622},{"duration":0.13636350000001585,"midi":51,"time":177.27255,"velocity":0.5905511811023622},{"duration":0.13636350000001585,"midi":36,"time":177.27255,"velocity":0.5905511811023622},{"duration":0.13636349999998743,"midi":35,"time":177.4089135,"velocity":0.5905511811023622},{"duration":0.13636349999998743,"midi":35,"time":177.4089135,"velocity":0.5905511811023622},{"duration":0.13636349999998743,"midi":46,"time":177.545277,"velocity":0.5905511811023622},{"duration":0.13636349999998743,"midi":35,"time":177.545277,"velocity":0.5905511811023622},{"duration":0.13636349999998743,"midi":35,"time":177.545277,"velocity":0.5905511811023622},{"duration":0.13636349999998743,"midi":51,"time":177.545277,"velocity":0.5905511811023622},{"duration":0.13636350000001585,"midi":40,"time":177.6816405,"velocity":0.5905511811023622},{"duration":0.13636350000001585,"midi":40,"time":177.6816405,"velocity":0.5905511811023622},{"duration":0.13636349999998743,"midi":43,"time":177.818004,"velocity":0.5905511811023622},{"duration":0.13636349999998743,"midi":51,"time":177.818004,"velocity":0.5905511811023622},{"duration":0.13636349999998743,"midi":43,"time":177.818004,"velocity":0.5905511811023622},{"duration":0.13636349999998743,"midi":49,"time":177.818004,"velocity":0.5905511811023622},{"duration":0.13636349999998743,"midi":43,"time":177.818004,"velocity":0.5905511811023622},{"duration":0.13636350000001585,"midi":43,"time":177.9543675,"velocity":0.5905511811023622},{"duration":0.13636350000001585,"midi":43,"time":177.9543675,"velocity":0.5905511811023622},{"duration":0.13636350000001585,"midi":43,"time":177.9543675,"velocity":0.5905511811023622},{"duration":0.13636349999998743,"midi":35,"time":178.090731,"velocity":0.5905511811023622},{"duration":0.13636349999998743,"midi":51,"time":178.090731,"velocity":0.5905511811023622},{"duration":0.13636349999998743,"midi":35,"time":178.090731,"velocity":0.5905511811023622},{"duration":0.13636349999998743,"midi":35,"time":178.363458,"velocity":0.5905511811023622},{"duration":0.13636349999998743,"midi":40,"time":178.363458,"velocity":0.5905511811023622},{"duration":0.13636349999998743,"midi":43,"time":178.363458,"velocity":0.5905511811023622},{"duration":0.13636349999998743,"midi":51,"time":178.363458,"velocity":0.5905511811023622},{"duration":0.13636349999998743,"midi":43,"time":178.363458,"velocity":0.5905511811023622},{"duration":0.13636349999998743,"midi":38,"time":178.363458,"velocity":0.5905511811023622},{"duration":0.13636349999998743,"midi":40,"time":178.363458,"velocity":0.5905511811023622},{"duration":0.13636349999998743,"midi":35,"time":178.363458,"velocity":0.5905511811023622},{"duration":0.13636349999998743,"midi":43,"time":178.363458,"velocity":0.5905511811023622},{"duration":0.13636349999998743,"midi":46,"time":178.363458,"velocity":0.5905511811023622},{"duration":0.13636349999998743,"midi":49,"time":178.363458,"velocity":0.5905511811023622},{"duration":0.13636349999998743,"midi":40,"time":178.636185,"velocity":0.5905511811023622},{"duration":0.13636349999998743,"midi":46,"time":178.636185,"velocity":0.5905511811023622},{"duration":0.13636349999998743,"midi":51,"time":178.636185,"velocity":0.5905511811023622},{"duration":0.13636349999998743,"midi":35,"time":178.636185,"velocity":0.5905511811023622},{"duration":0.13636349999998743,"midi":35,"time":178.636185,"velocity":0.5905511811023622},{"duration":0.13636349999998743,"midi":40,"time":178.636185,"velocity":0.5905511811023622},{"duration":0.13636350000001585,"midi":43,"time":178.908912,"velocity":0.5905511811023622},{"duration":0.13636350000001585,"midi":43,"time":178.908912,"velocity":0.5905511811023622},{"duration":0.13636350000001585,"midi":36,"time":178.908912,"velocity":0.5905511811023622},{"duration":0.13636350000001585,"midi":49,"time":178.908912,"velocity":0.5905511811023622},{"duration":0.13636350000001585,"midi":38,"time":178.908912,"velocity":0.5905511811023622},{"duration":0.13636350000001585,"midi":36,"time":178.908912,"velocity":0.5905511811023622},{"duration":0.13636350000001585,"midi":43,"time":178.908912,"velocity":0.5905511811023622},{"duration":0.13636350000001585,"midi":51,"time":178.908912,"velocity":0.5905511811023622},{"duration":0.13636350000001585,"midi":46,"time":178.908912,"velocity":0.5905511811023622},{"duration":0.13636350000001585,"midi":35,"time":178.908912,"velocity":0.5905511811023622},{"duration":0.13636350000001585,"midi":35,"time":178.908912,"velocity":0.5905511811023622},{"duration":0.13636349999998743,"midi":43,"time":179.0452755,"velocity":0.5905511811023622},{"duration":0.13636349999998743,"midi":43,"time":179.0452755,"velocity":0.5905511811023622},{"duration":0.13636349999998743,"midi":43,"time":179.0452755,"velocity":0.5905511811023622},{"duration":0.13636350000001585,"midi":51,"time":179.181639,"velocity":0.5905511811023622},{"duration":0.13636350000001585,"midi":46,"time":179.181639,"velocity":0.5905511811023622},{"duration":0.13636350000001585,"midi":36,"time":179.181639,"velocity":0.5905511811023622},{"duration":0.13636350000001585,"midi":36,"time":179.181639,"velocity":0.5905511811023622},{"duration":0.13636350000001585,"midi":35,"time":179.181639,"velocity":0.5905511811023622},{"duration":0.13636350000001585,"midi":35,"time":179.181639,"velocity":0.5905511811023622},{"duration":0.13636350000001585,"midi":51,"time":179.454366,"velocity":0.5905511811023622},{"duration":0.13636350000001585,"midi":40,"time":179.454366,"velocity":0.5905511811023622},{"duration":0.13636350000001585,"midi":38,"time":179.454366,"velocity":0.5905511811023622},{"duration":0.13636350000001585,"midi":40,"time":179.454366,"velocity":0.5905511811023622},{"duration":0.13636350000001585,"midi":43,"time":179.454366,"velocity":0.5905511811023622},{"duration":0.13636350000001585,"midi":43,"time":179.454366,"velocity":0.5905511811023622},{"duration":0.13636350000001585,"midi":36,"time":179.454366,"velocity":0.5905511811023622},{"duration":0.13636350000001585,"midi":36,"time":179.454366,"velocity":0.5905511811023622},{"duration":0.13636350000001585,"midi":49,"time":179.454366,"velocity":0.5905511811023622},{"duration":0.13636350000001585,"midi":43,"time":179.454366,"velocity":0.5905511811023622},{"duration":0.13636350000001585,"midi":35,"time":179.727093,"velocity":0.5905511811023622},{"duration":0.13636350000001585,"midi":35,"time":179.727093,"velocity":0.5905511811023622},{"duration":0.13636350000001585,"midi":46,"time":179.727093,"velocity":0.5905511811023622},{"duration":0.13636350000001585,"midi":51,"time":179.727093,"velocity":0.5905511811023622},{"duration":0.13636349999998743,"midi":35,"time":179.8634565,"velocity":0.5905511811023622},{"duration":0.13636349999998743,"midi":35,"time":179.8634565,"velocity":0.5905511811023622},{"duration":0.13636349999998743,"midi":43,"time":179.99982,"velocity":0.5905511811023622},{"duration":0.13636349999998743,"midi":49,"time":179.99982,"velocity":0.5905511811023622},{"duration":0.13636349999998743,"midi":51,"time":179.99982,"velocity":0.5905511811023622},{"duration":0.13636349999998743,"midi":43,"time":179.99982,"velocity":0.5905511811023622},{"duration":0.13636349999998743,"midi":43,"time":179.99982,"velocity":0.5905511811023622},{"duration":0.13636350000001585,"midi":43,"time":180.1361835,"velocity":0.5905511811023622},{"duration":0.13636350000001585,"midi":43,"time":180.1361835,"velocity":0.5905511811023622},{"duration":0.13636350000001585,"midi":43,"time":180.1361835,"velocity":0.5905511811023622},{"duration":0.13636349999998743,"midi":51,"time":180.272547,"velocity":0.5905511811023622},{"duration":0.13636349999998743,"midi":35,"time":180.272547,"velocity":0.5905511811023622},{"duration":0.13636349999998743,"midi":35,"time":180.272547,"velocity":0.5905511811023622},{"duration":0.13636349999998743,"midi":43,"time":180.545274,"velocity":0.5905511811023622},{"duration":0.13636349999998743,"midi":51,"time":180.545274,"velocity":0.5905511811023622},{"duration":0.13636349999998743,"midi":35,"time":180.545274,"velocity":0.5905511811023622},{"duration":0.13636349999998743,"midi":43,"time":180.545274,"velocity":0.5905511811023622},{"duration":0.13636349999998743,"midi":40,"time":180.545274,"velocity":0.5905511811023622},{"duration":0.13636349999998743,"midi":43,"time":180.545274,"velocity":0.5905511811023622},{"duration":0.13636349999998743,"midi":40,"time":180.545274,"velocity":0.5905511811023622},{"duration":0.13636349999998743,"midi":35,"time":180.545274,"velocity":0.5905511811023622},{"duration":0.13636349999998743,"midi":49,"time":180.545274,"velocity":0.5905511811023622},{"duration":0.13636349999998743,"midi":46,"time":180.545274,"velocity":0.5905511811023622},{"duration":0.13636349999998743,"midi":38,"time":180.545274,"velocity":0.5905511811023622},{"duration":0.13636349999998743,"midi":35,"time":180.818001,"velocity":0.5905511811023622},{"duration":0.13636349999998743,"midi":35,"time":180.818001,"velocity":0.5905511811023622},{"duration":0.13636349999998743,"midi":51,"time":180.818001,"velocity":0.5905511811023622},{"duration":0.13636349999998743,"midi":46,"time":180.818001,"velocity":0.5905511811023622},{"duration":0.13636349999998743,"midi":40,"time":180.9543645,"velocity":0.5905511811023622},{"duration":0.13636349999998743,"midi":40,"time":180.9543645,"velocity":0.5905511811023622},{"duration":0.13636350000001585,"midi":43,"time":181.09072799999998,"velocity":0.5905511811023622},{"duration":0.13636350000001585,"midi":43,"time":181.09072799999998,"velocity":0.5905511811023622},{"duration":0.13636350000001585,"midi":43,"time":181.09072799999998,"velocity":0.5905511811023622},{"duration":0.13636350000001585,"midi":35,"time":181.09072799999998,"velocity":0.5905511811023622},{"duration":0.13636350000001585,"midi":36,"time":181.09072799999998,"velocity":0.5905511811023622},{"duration":0.13636350000001585,"midi":36,"time":181.09072799999998,"velocity":0.5905511811023622},{"duration":0.13636350000001585,"midi":51,"time":181.09072799999998,"velocity":0.5905511811023622},{"duration":0.13636350000001585,"midi":38,"time":181.09072799999998,"velocity":0.5905511811023622},{"duration":0.13636350000001585,"midi":49,"time":181.09072799999998,"velocity":0.5905511811023622},{"duration":0.13636350000001585,"midi":46,"time":181.09072799999998,"velocity":0.5905511811023622},{"duration":0.13636350000001585,"midi":35,"time":181.09072799999998,"velocity":0.5905511811023622},{"duration":0.13636349999998743,"midi":43,"time":181.2270915,"velocity":0.5905511811023622},{"duration":0.13636349999998743,"midi":43,"time":181.2270915,"velocity":0.5905511811023622},{"duration":0.13636349999998743,"midi":43,"time":181.2270915,"velocity":0.5905511811023622},{"duration":0.13636350000001585,"midi":51,"time":181.363455,"velocity":0.5905511811023622},{"duration":0.13636350000001585,"midi":35,"time":181.363455,"velocity":0.5905511811023622},{"duration":0.13636350000001585,"midi":36,"time":181.363455,"velocity":0.5905511811023622},{"duration":0.13636350000001585,"midi":36,"time":181.363455,"velocity":0.5905511811023622},{"duration":0.13636350000001585,"midi":35,"time":181.363455,"velocity":0.5905511811023622},{"duration":0.13636350000001585,"midi":46,"time":181.363455,"velocity":0.5905511811023622},{"duration":0.13636350000001585,"midi":38,"time":181.636182,"velocity":0.5905511811023622},{"duration":0.13636350000001585,"midi":43,"time":181.636182,"velocity":0.5905511811023622},{"duration":0.13636350000001585,"midi":43,"time":181.636182,"velocity":0.5905511811023622},{"duration":0.13636350000001585,"midi":43,"time":181.636182,"velocity":0.5905511811023622},{"duration":0.13636350000001585,"midi":40,"time":181.636182,"velocity":0.5905511811023622},{"duration":0.13636350000001585,"midi":49,"time":181.636182,"velocity":0.5905511811023622},{"duration":0.13636350000001585,"midi":40,"time":181.636182,"velocity":0.5905511811023622},{"duration":0.13636350000001585,"midi":36,"time":181.636182,"velocity":0.5905511811023622},{"duration":0.13636350000001585,"midi":51,"time":181.636182,"velocity":0.5905511811023622},{"duration":0.13636350000001585,"midi":36,"time":181.636182,"velocity":0.5905511811023622},{"duration":0.13636349999998743,"midi":35,"time":181.7725455,"velocity":0.5905511811023622},{"duration":0.13636349999998743,"midi":35,"time":181.7725455,"velocity":0.5905511811023622},{"duration":0.13636350000001585,"midi":51,"time":181.908909,"velocity":0.5905511811023622},{"duration":0.13636350000001585,"midi":35,"time":181.908909,"velocity":0.5905511811023622},{"duration":0.13636350000001585,"midi":35,"time":181.908909,"velocity":0.5905511811023622},{"duration":0.13636350000001585,"midi":46,"time":181.908909,"velocity":0.5905511811023622},{"duration":0.13636349999998743,"midi":40,"time":182.0452725,"velocity":0.5905511811023622},{"duration":0.13636349999998743,"midi":40,"time":182.0452725,"velocity":0.5905511811023622},{"duration":0.13636349999998743,"midi":49,"time":182.181636,"velocity":0.5905511811023622},{"duration":0.13636349999998743,"midi":43,"time":182.181636,"velocity":0.5905511811023622},{"duration":0.13636349999998743,"midi":43,"time":182.181636,"velocity":0.5905511811023622},{"duration":0.13636349999998743,"midi":43,"time":182.181636,"velocity":0.5905511811023622},{"duration":0.13636349999998743,"midi":51,"time":182.181636,"velocity":0.5905511811023622},{"duration":0.13636349999998743,"midi":35,"time":182.454363,"velocity":0.5905511811023622},{"duration":0.13636349999998743,"midi":43,"time":182.454363,"velocity":0.5905511811023622},{"duration":0.13636349999998743,"midi":43,"time":182.454363,"velocity":0.5905511811023622},{"duration":0.13636349999998743,"midi":43,"time":182.454363,"velocity":0.5905511811023622},{"duration":0.13636349999998743,"midi":51,"time":182.454363,"velocity":0.5905511811023622},{"duration":0.13636349999998743,"midi":35,"time":182.454363,"velocity":0.5905511811023622},{"duration":0.13636349999998743,"midi":38,"time":182.72709,"velocity":0.5905511811023622},{"duration":0.13636349999998743,"midi":49,"time":182.72709,"velocity":0.5905511811023622},{"duration":0.13636349999998743,"midi":46,"time":182.72709,"velocity":0.5905511811023622},{"duration":0.13636349999998743,"midi":35,"time":182.72709,"velocity":0.5905511811023622},{"duration":0.13636349999998743,"midi":51,"time":182.72709,"velocity":0.5905511811023622},{"duration":0.13636349999998743,"midi":40,"time":182.72709,"velocity":0.5905511811023622},{"duration":0.13636349999998743,"midi":43,"time":182.72709,"velocity":0.5905511811023622},{"duration":0.13636349999998743,"midi":35,"time":182.72709,"velocity":0.5905511811023622},{"duration":0.13636349999998743,"midi":40,"time":182.72709,"velocity":0.5905511811023622},{"duration":0.13636349999998743,"midi":43,"time":182.72709,"velocity":0.5905511811023622},{"duration":0.13636349999998743,"midi":43,"time":182.72709,"velocity":0.5905511811023622},{"duration":0.13636349999998743,"midi":51,"time":182.999817,"velocity":0.5905511811023622},{"duration":0.13636349999998743,"midi":40,"time":182.999817,"velocity":0.5905511811023622},{"duration":0.13636349999998743,"midi":35,"time":182.999817,"velocity":0.5905511811023622},{"duration":0.13636349999998743,"midi":46,"time":182.999817,"velocity":0.5905511811023622},{"duration":0.13636349999998743,"midi":35,"time":182.999817,"velocity":0.5905511811023622},{"duration":0.13636349999998743,"midi":40,"time":182.999817,"velocity":0.5905511811023622},{"duration":0.13636349999998743,"midi":36,"time":183.272544,"velocity":0.5905511811023622},{"duration":0.13636349999998743,"midi":43,"time":183.272544,"velocity":0.5905511811023622},{"duration":0.13636349999998743,"midi":43,"time":183.272544,"velocity":0.5905511811023622},{"duration":0.13636349999998743,"midi":51,"time":183.272544,"velocity":0.5905511811023622},{"duration":0.13636349999998743,"midi":35,"time":183.272544,"velocity":0.5905511811023622},{"duration":0.13636349999998743,"midi":35,"time":183.272544,"velocity":0.5905511811023622},{"duration":0.13636349999998743,"midi":43,"time":183.272544,"velocity":0.5905511811023622},{"duration":0.13636349999998743,"midi":36,"time":183.272544,"velocity":0.5905511811023622},{"duration":0.13636349999998743,"midi":49,"time":183.272544,"velocity":0.5905511811023622},{"duration":0.13636349999998743,"midi":38,"time":183.272544,"velocity":0.5905511811023622},{"duration":0.13636349999998743,"midi":46,"time":183.272544,"velocity":0.5905511811023622},{"duration":0.13636349999998743,"midi":43,"time":183.4089075,"velocity":0.5905511811023622},{"duration":0.13636349999998743,"midi":43,"time":183.4089075,"velocity":0.5905511811023622},{"duration":0.13636349999998743,"midi":43,"time":183.4089075,"velocity":0.5905511811023622},{"duration":0.13636350000001585,"midi":36,"time":183.54527099999999,"velocity":0.5905511811023622},{"duration":0.13636350000001585,"midi":35,"time":183.54527099999999,"velocity":0.5905511811023622},{"duration":0.13636350000001585,"midi":51,"time":183.54527099999999,"velocity":0.5905511811023622},{"duration":0.13636350000001585,"midi":46,"time":183.54527099999999,"velocity":0.5905511811023622},{"duration":0.13636350000001585,"midi":35,"time":183.54527099999999,"velocity":0.5905511811023622},{"duration":0.13636350000001585,"midi":36,"time":183.54527099999999,"velocity":0.5905511811023622},{"duration":0.13636350000001585,"midi":40,"time":183.817998,"velocity":0.5905511811023622},{"duration":0.13636350000001585,"midi":43,"time":183.817998,"velocity":0.5905511811023622},{"duration":0.13636350000001585,"midi":38,"time":183.817998,"velocity":0.5905511811023622},{"duration":0.13636350000001585,"midi":43,"time":183.817998,"velocity":0.5905511811023622},{"duration":0.13636350000001585,"midi":36,"time":183.817998,"velocity":0.5905511811023622},{"duration":0.13636350000001585,"midi":51,"time":183.817998,"velocity":0.5905511811023622},{"duration":0.13636350000001585,"midi":49,"time":183.817998,"velocity":0.5905511811023622},{"duration":0.13636350000001585,"midi":40,"time":183.817998,"velocity":0.5905511811023622},{"duration":0.13636350000001585,"midi":36,"time":183.817998,"velocity":0.5905511811023622},{"duration":0.13636350000001585,"midi":43,"time":183.817998,"velocity":0.5905511811023622},{"duration":0.13636350000001585,"midi":35,"time":184.090725,"velocity":0.5905511811023622},{"duration":0.13636350000001585,"midi":35,"time":184.090725,"velocity":0.5905511811023622},{"duration":0.13636350000001585,"midi":46,"time":184.090725,"velocity":0.5905511811023622},{"duration":0.13636350000001585,"midi":51,"time":184.090725,"velocity":0.5905511811023622},{"duration":0.13636349999998743,"midi":35,"time":184.2270885,"velocity":0.5905511811023622},{"duration":0.13636349999998743,"midi":35,"time":184.2270885,"velocity":0.5905511811023622},{"duration":0.13636350000001585,"midi":49,"time":184.363452,"velocity":0.5905511811023622},{"duration":0.13636350000001585,"midi":43,"time":184.363452,"velocity":0.5905511811023622},{"duration":0.13636350000001585,"midi":51,"time":184.363452,"velocity":0.5905511811023622},{"duration":0.13636350000001585,"midi":43,"time":184.363452,"velocity":0.5905511811023622},{"duration":0.13636350000001585,"midi":43,"time":184.363452,"velocity":0.5905511811023622},{"duration":0.13636349999998743,"midi":43,"time":184.4998155,"velocity":0.5905511811023622},{"duration":0.13636349999998743,"midi":43,"time":184.4998155,"velocity":0.5905511811023622},{"duration":0.13636349999998743,"midi":43,"time":184.4998155,"velocity":0.5905511811023622},{"duration":0.13636349999998743,"midi":35,"time":184.636179,"velocity":0.5905511811023622},{"duration":0.13636349999998743,"midi":35,"time":184.636179,"velocity":0.5905511811023622},{"duration":0.13636349999998743,"midi":51,"time":184.636179,"velocity":0.5905511811023622},{"duration":0.13636349999998743,"midi":43,"time":184.908906,"velocity":0.5905511811023622},{"duration":0.13636349999998743,"midi":40,"time":184.908906,"velocity":0.5905511811023622},{"duration":0.13636349999998743,"midi":43,"time":184.908906,"velocity":0.5905511811023622},{"duration":0.13636349999998743,"midi":51,"time":184.908906,"velocity":0.5905511811023622},{"duration":0.13636349999998743,"midi":38,"time":184.908906,"velocity":0.5905511811023622},{"duration":0.13636349999998743,"midi":43,"time":184.908906,"velocity":0.5905511811023622},{"duration":0.13636349999998743,"midi":46,"time":184.908906,"velocity":0.5905511811023622},{"duration":0.13636349999998743,"midi":35,"time":184.908906,"velocity":0.5905511811023622},{"duration":0.13636349999998743,"midi":40,"time":184.908906,"velocity":0.5905511811023622},{"duration":0.13636349999998743,"midi":49,"time":184.908906,"velocity":0.5905511811023622},{"duration":0.13636349999998743,"midi":35,"time":184.908906,"velocity":0.5905511811023622},{"duration":0.13636349999998743,"midi":35,"time":185.181633,"velocity":0.5905511811023622},{"duration":0.13636349999998743,"midi":51,"time":185.181633,"velocity":0.5905511811023622},{"duration":0.13636349999998743,"midi":35,"time":185.181633,"velocity":0.5905511811023622},{"duration":0.13636349999998743,"midi":46,"time":185.181633,"velocity":0.5905511811023622},{"duration":0.13636350000001585,"midi":40,"time":185.3179965,"velocity":0.5905511811023622},{"duration":0.13636350000001585,"midi":40,"time":185.3179965,"velocity":0.5905511811023622},{"duration":0.13636349999998743,"midi":46,"time":185.45436,"velocity":0.5905511811023622},{"duration":0.13636349999998743,"midi":36,"time":185.45436,"velocity":0.5905511811023622},{"duration":0.13636349999998743,"midi":36,"time":185.45436,"velocity":0.5905511811023622},{"duration":0.13636349999998743,"midi":51,"time":185.45436,"velocity":0.5905511811023622},{"duration":0.13636349999998743,"midi":38,"time":185.45436,"velocity":0.5905511811023622},{"duration":0.13636349999998743,"midi":49,"time":185.45436,"velocity":0.5905511811023622},{"duration":0.13636349999998743,"midi":35,"time":185.45436,"velocity":0.5905511811023622},{"duration":0.13636349999998743,"midi":43,"time":185.45436,"velocity":0.5905511811023622},{"duration":0.13636349999998743,"midi":35,"time":185.45436,"velocity":0.5905511811023622},{"duration":0.13636349999998743,"midi":43,"time":185.45436,"velocity":0.5905511811023622},{"duration":0.13636349999998743,"midi":43,"time":185.45436,"velocity":0.5905511811023622},{"duration":0.13636350000001585,"midi":43,"time":185.5907235,"velocity":0.5905511811023622},{"duration":0.13636350000001585,"midi":43,"time":185.5907235,"velocity":0.5905511811023622},{"duration":0.13636350000001585,"midi":43,"time":185.5907235,"velocity":0.5905511811023622},{"duration":0.13636349999998743,"midi":35,"time":185.727087,"velocity":0.5905511811023622},{"duration":0.13636349999998743,"midi":36,"time":185.727087,"velocity":0.5905511811023622},{"duration":0.13636349999998743,"midi":51,"time":185.727087,"velocity":0.5905511811023622},{"duration":0.13636349999998743,"midi":46,"time":185.727087,"velocity":0.5905511811023622},{"duration":0.13636349999998743,"midi":35,"time":185.727087,"velocity":0.5905511811023622},{"duration":0.13636349999998743,"midi":36,"time":185.727087,"velocity":0.5905511811023622},{"duration":0.13636350000001585,"midi":43,"time":185.999814,"velocity":0.5905511811023622},{"duration":0.13636350000001585,"midi":49,"time":185.999814,"velocity":0.5905511811023622},{"duration":0.13636350000001585,"midi":40,"time":185.999814,"velocity":0.5905511811023622},{"duration":0.13636350000001585,"midi":38,"time":185.999814,"velocity":0.5905511811023622},{"duration":0.13636350000001585,"midi":36,"time":185.999814,"velocity":0.5905511811023622},{"duration":0.13636350000001585,"midi":43,"time":185.999814,"velocity":0.5905511811023622},{"duration":0.13636350000001585,"midi":43,"time":185.999814,"velocity":0.5905511811023622},{"duration":0.13636350000001585,"midi":51,"time":185.999814,"velocity":0.5905511811023622},{"duration":0.13636350000001585,"midi":36,"time":185.999814,"velocity":0.5905511811023622},{"duration":0.13636350000001585,"midi":40,"time":185.999814,"velocity":0.5905511811023622},{"duration":0.13636349999998743,"midi":35,"time":186.1361775,"velocity":0.5905511811023622},{"duration":0.13636349999998743,"midi":35,"time":186.1361775,"velocity":0.5905511811023622},{"duration":0.13636350000001585,"midi":35,"time":186.272541,"velocity":0.5905511811023622},{"duration":0.13636350000001585,"midi":46,"time":186.272541,"velocity":0.5905511811023622},{"duration":0.13636350000001585,"midi":35,"time":186.272541,"velocity":0.5905511811023622},{"duration":0.13636350000001585,"midi":51,"time":186.272541,"velocity":0.5905511811023622},{"duration":0.13636349999998743,"midi":40,"time":186.4089045,"velocity":0.5905511811023622},{"duration":0.13636349999998743,"midi":40,"time":186.4089045,"velocity":0.5905511811023622},{"duration":0.13636350000001585,"midi":43,"time":186.545268,"velocity":0.5905511811023622},{"duration":0.13636350000001585,"midi":43,"time":186.545268,"velocity":0.5905511811023622},{"duration":0.13636350000001585,"midi":43,"time":186.545268,"velocity":0.5905511811023622},{"duration":0.13636350000001585,"midi":51,"time":186.545268,"velocity":0.5905511811023622},{"duration":0.13636350000001585,"midi":49,"time":186.545268,"velocity":0.5905511811023622},{"duration":0.13636349999998743,"midi":43,"time":186.6816315,"velocity":0.5905511811023622},{"duration":0.13636349999998743,"midi":43,"time":186.6816315,"velocity":0.5905511811023622},{"duration":0.13636349999998743,"midi":43,"time":186.6816315,"velocity":0.5905511811023622},{"duration":0.13636350000001585,"midi":35,"time":186.817995,"velocity":0.5905511811023622},{"duration":0.13636350000001585,"midi":51,"time":186.817995,"velocity":0.5905511811023622},{"duration":0.13636350000001585,"midi":35,"time":186.817995,"velocity":0.5905511811023622},{"duration":0.13636349999998743,"midi":43,"time":187.090722,"velocity":0.5905511811023622},{"duration":0.13636349999998743,"midi":43,"time":187.090722,"velocity":0.5905511811023622},{"duration":0.13636349999998743,"midi":43,"time":187.090722,"velocity":0.5905511811023622},{"duration":0.13636349999998743,"midi":40,"time":187.090722,"velocity":0.5905511811023622},{"duration":0.13636349999998743,"midi":40,"time":187.090722,"velocity":0.5905511811023622},{"duration":0.13636349999998743,"midi":49,"time":187.090722,"velocity":0.5905511811023622},{"duration":0.13636349999998743,"midi":35,"time":187.090722,"velocity":0.5905511811023622},{"duration":0.13636349999998743,"midi":51,"time":187.090722,"velocity":0.5905511811023622},{"duration":0.13636349999998743,"midi":35,"time":187.090722,"velocity":0.5905511811023622},{"duration":0.13636349999998743,"midi":38,"time":187.090722,"velocity":0.5905511811023622},{"duration":0.13636349999998743,"midi":46,"time":187.090722,"velocity":0.5905511811023622},{"duration":0.13636349999998743,"midi":40,"time":187.363449,"velocity":0.5905511811023622},{"duration":0.13636349999998743,"midi":51,"time":187.363449,"velocity":0.5905511811023622},{"duration":0.13636349999998743,"midi":46,"time":187.363449,"velocity":0.5905511811023622},{"duration":0.13636349999998743,"midi":40,"time":187.363449,"velocity":0.5905511811023622},{"duration":0.13636349999998743,"midi":35,"time":187.363449,"velocity":0.5905511811023622},{"duration":0.13636349999998743,"midi":35,"time":187.363449,"velocity":0.5905511811023622},{"duration":0.13636349999998743,"midi":36,"time":187.636176,"velocity":0.5905511811023622},{"duration":0.13636349999998743,"midi":46,"time":187.636176,"velocity":0.5905511811023622},{"duration":0.13636349999998743,"midi":35,"time":187.636176,"velocity":0.5905511811023622},{"duration":0.13636349999998743,"midi":43,"time":187.636176,"velocity":0.5905511811023622},{"duration":0.13636349999998743,"midi":38,"time":187.636176,"velocity":0.5905511811023622},{"duration":0.13636349999998743,"midi":43,"time":187.636176,"velocity":0.5905511811023622},{"duration":0.13636349999998743,"midi":36,"time":187.636176,"velocity":0.5905511811023622},{"duration":0.13636349999998743,"midi":51,"time":187.636176,"velocity":0.5905511811023622},{"duration":0.13636349999998743,"midi":35,"time":187.636176,"velocity":0.5905511811023622},{"duration":0.13636349999998743,"midi":49,"time":187.636176,"velocity":0.5905511811023622},{"duration":0.13636349999998743,"midi":43,"time":187.636176,"velocity":0.5905511811023622},{"duration":0.13636350000001585,"midi":43,"time":187.7725395,"velocity":0.5905511811023622},{"duration":0.13636350000001585,"midi":43,"time":187.7725395,"velocity":0.5905511811023622},{"duration":0.13636350000001585,"midi":43,"time":187.7725395,"velocity":0.5905511811023622},{"duration":0.13636349999998743,"midi":35,"time":187.908903,"velocity":0.5905511811023622},{"duration":0.13636349999998743,"midi":36,"time":187.908903,"velocity":0.5905511811023622},{"duration":0.13636349999998743,"midi":36,"time":187.908903,"velocity":0.5905511811023622},{"duration":0.13636349999998743,"midi":51,"time":187.908903,"velocity":0.5905511811023622},{"duration":0.13636349999998743,"midi":46,"time":187.908903,"velocity":0.5905511811023622},{"duration":0.13636349999998743,"midi":35,"time":187.908903,"velocity":0.5905511811023622},{"duration":0.13636350000001585,"midi":38,"time":188.18162999999998,"velocity":0.5905511811023622},{"duration":0.13636350000001585,"midi":40,"time":188.18162999999998,"velocity":0.5905511811023622},{"duration":0.13636350000001585,"midi":36,"time":188.18162999999998,"velocity":0.5905511811023622},{"duration":0.13636350000001585,"midi":51,"time":188.18162999999998,"velocity":0.5905511811023622},{"duration":0.13636350000001585,"midi":49,"time":188.18162999999998,"velocity":0.5905511811023622},{"duration":0.13636350000001585,"midi":43,"time":188.18162999999998,"velocity":0.5905511811023622},{"duration":0.13636350000001585,"midi":40,"time":188.18162999999998,"velocity":0.5905511811023622},{"duration":0.13636350000001585,"midi":43,"time":188.18162999999998,"velocity":0.5905511811023622},{"duration":0.13636350000001585,"midi":36,"time":188.18162999999998,"velocity":0.5905511811023622},{"duration":0.13636350000001585,"midi":43,"time":188.18162999999998,"velocity":0.5905511811023622},{"duration":0.13636350000001585,"midi":35,"time":188.454357,"velocity":0.5905511811023622},{"duration":0.13636350000001585,"midi":46,"time":188.454357,"velocity":0.5905511811023622},{"duration":0.13636350000001585,"midi":51,"time":188.454357,"velocity":0.5905511811023622},{"duration":0.13636350000001585,"midi":35,"time":188.454357,"velocity":0.5905511811023622},{"duration":0.13636349999998743,"midi":35,"time":188.5907205,"velocity":0.5905511811023622},{"duration":0.13636349999998743,"midi":35,"time":188.5907205,"velocity":0.5905511811023622},{"duration":0.13636350000001585,"midi":49,"time":188.727084,"velocity":0.5905511811023622},{"duration":0.13636350000001585,"midi":43,"time":188.727084,"velocity":0.5905511811023622},{"duration":0.13636350000001585,"midi":43,"time":188.727084,"velocity":0.5905511811023622},{"duration":0.13636350000001585,"midi":51,"time":188.727084,"velocity":0.5905511811023622},{"duration":0.13636350000001585,"midi":43,"time":188.727084,"velocity":0.5905511811023622},{"duration":0.13636349999998743,"midi":43,"time":188.8634475,"velocity":0.5905511811023622},{"duration":0.13636349999998743,"midi":43,"time":188.8634475,"velocity":0.5905511811023622},{"duration":0.13636349999998743,"midi":43,"time":188.8634475,"velocity":0.5905511811023622},{"duration":0.13636350000001585,"midi":51,"time":188.999811,"velocity":0.5905511811023622},{"duration":0.13636350000001585,"midi":35,"time":188.999811,"velocity":0.5905511811023622},{"duration":0.13636350000001585,"midi":35,"time":188.999811,"velocity":0.5905511811023622},{"duration":0.13636349999998743,"midi":38,"time":189.272538,"velocity":0.5905511811023622},{"duration":0.13636349999998743,"midi":49,"time":189.272538,"velocity":0.5905511811023622},{"duration":0.13636349999998743,"midi":43,"time":189.272538,"velocity":0.5905511811023622},{"duration":0.13636349999998743,"midi":40,"time":189.272538,"velocity":0.5905511811023622},{"duration":0.13636349999998743,"midi":43,"time":189.272538,"velocity":0.5905511811023622},{"duration":0.13636349999998743,"midi":40,"time":189.272538,"velocity":0.5905511811023622},{"duration":0.13636349999998743,"midi":46,"time":189.272538,"velocity":0.5905511811023622},{"duration":0.13636349999998743,"midi":43,"time":189.272538,"velocity":0.5905511811023622},{"duration":0.13636349999998743,"midi":35,"time":189.272538,"velocity":0.5905511811023622},{"duration":0.13636349999998743,"midi":51,"time":189.272538,"velocity":0.5905511811023622},{"duration":0.13636349999998743,"midi":35,"time":189.272538,"velocity":0.5905511811023622},{"duration":0.13636349999998743,"midi":35,"time":189.545265,"velocity":0.5905511811023622},{"duration":0.13636349999998743,"midi":46,"time":189.545265,"velocity":0.5905511811023622},{"duration":0.13636349999998743,"midi":35,"time":189.545265,"velocity":0.5905511811023622},{"duration":0.13636349999998743,"midi":51,"time":189.545265,"velocity":0.5905511811023622},{"duration":0.13636350000001585,"midi":40,"time":189.6816285,"velocity":0.5905511811023622},{"duration":0.13636350000001585,"midi":40,"time":189.6816285,"velocity":0.5905511811023622},{"duration":0.13636349999998743,"midi":43,"time":189.817992,"velocity":0.5905511811023622},{"duration":0.13636349999998743,"midi":36,"time":189.817992,"velocity":0.5905511811023622},{"duration":0.13636349999998743,"midi":46,"time":189.817992,"velocity":0.5905511811023622},{"duration":0.13636349999998743,"midi":49,"time":189.817992,"velocity":0.5905511811023622},{"duration":0.13636349999998743,"midi":51,"time":189.817992,"velocity":0.5905511811023622},{"duration":0.13636349999998743,"midi":43,"time":189.817992,"velocity":0.5905511811023622},{"duration":0.13636349999998743,"midi":43,"time":189.817992,"velocity":0.5905511811023622},{"duration":0.13636349999998743,"midi":35,"time":189.817992,"velocity":0.5905511811023622},{"duration":0.13636349999998743,"midi":38,"time":189.817992,"velocity":0.5905511811023622},{"duration":0.13636349999998743,"midi":36,"time":189.817992,"velocity":0.5905511811023622},{"duration":0.13636349999998743,"midi":35,"time":189.817992,"velocity":0.5905511811023622},{"duration":0.13636350000001585,"midi":43,"time":189.9543555,"velocity":0.5905511811023622},{"duration":0.13636350000001585,"midi":43,"time":189.9543555,"velocity":0.5905511811023622},{"duration":0.13636350000001585,"midi":43,"time":189.9543555,"velocity":0.5905511811023622},{"duration":0.13636349999998743,"midi":51,"time":190.090719,"velocity":0.5905511811023622},{"duration":0.13636349999998743,"midi":46,"time":190.090719,"velocity":0.5905511811023622},{"duration":0.13636349999998743,"midi":43,"time":190.363446,"velocity":0.5905511811023622},{"duration":0.13636349999998743,"midi":43,"time":190.363446,"velocity":0.5905511811023622},{"duration":0.13636349999998743,"midi":43,"time":190.363446,"velocity":0.5905511811023622},{"duration":0.13636349999998743,"midi":49,"time":190.363446,"velocity":0.5905511811023622},{"duration":0.13636349999998743,"midi":51,"time":190.363446,"velocity":0.5905511811023622},{"duration":0.13636349999998743,"midi":40,"time":190.363446,"velocity":0.5905511811023622},{"duration":0.13636349999998743,"midi":40,"time":190.363446,"velocity":0.5905511811023622},{"duration":0.13636349999998743,"midi":38,"time":190.363446,"velocity":0.5905511811023622},{"duration":0.13636350000001585,"midi":51,"time":190.63617299999999,"velocity":0.5905511811023622},{"duration":0.13636350000001585,"midi":46,"time":190.63617299999999,"velocity":0.5905511811023622},{"duration":0.13636349999998743,"midi":40,"time":190.7725365,"velocity":0.5905511811023622},{"duration":0.13636349999998743,"midi":40,"time":190.7725365,"velocity":0.5905511811023622},{"duration":0.13636350000001585,"midi":51,"time":190.9089,"velocity":0.5905511811023622},{"duration":0.13636350000001585,"midi":43,"time":190.9089,"velocity":0.5905511811023622},{"duration":0.13636350000001585,"midi":43,"time":190.9089,"velocity":0.5905511811023622},{"duration":0.13636350000001585,"midi":43,"time":190.9089,"velocity":0.5905511811023622},{"duration":0.13636350000001585,"midi":51,"time":191.181627,"velocity":0.5905511811023622},{"duration":0.13636350000001585,"midi":43,"time":191.454354,"velocity":0.5905511811023622},{"duration":0.13636350000001585,"midi":43,"time":191.454354,"velocity":0.5905511811023622},{"duration":0.13636350000001585,"midi":43,"time":191.454354,"velocity":0.5905511811023622},{"duration":0.13636350000001585,"midi":51,"time":191.454354,"velocity":0.5905511811023622},{"duration":0.13636349999998743,"midi":51,"time":191.727081,"velocity":0.5905511811023622},{"duration":0.13636350000001585,"midi":43,"time":191.86344449999999,"velocity":0.5905511811023622},{"duration":0.13636350000001585,"midi":43,"time":191.86344449999999,"velocity":0.5905511811023622},{"duration":0.13636350000001585,"midi":43,"time":191.86344449999999,"velocity":0.5905511811023622},{"duration":0.2727270000000033,"midi":35,"time":191.999808,"velocity":0.5905511811023622},{"duration":0.2727270000000033,"midi":38,"time":191.999808,"velocity":0.5905511811023622},{"duration":0.2727270000000033,"midi":40,"time":191.999808,"velocity":0.5905511811023622},{"duration":0.2727270000000033,"midi":35,"time":191.999808,"velocity":0.5905511811023622},{"duration":0.2727270000000033,"midi":36,"time":191.999808,"velocity":0.5905511811023622},{"duration":0.13636349999998743,"midi":42,"time":191.999808,"velocity":0.5905511811023622},{"duration":0.2727270000000033,"midi":38,"time":191.999808,"velocity":0.5905511811023622},{"duration":0.13636349999998743,"midi":42,"time":191.999808,"velocity":0.5905511811023622},{"duration":0.2727270000000033,"midi":36,"time":191.999808,"velocity":0.5905511811023622},{"duration":0.2727270000000033,"midi":40,"time":191.999808,"velocity":0.5905511811023622},{"duration":0.13636349999998743,"midi":42,"time":192.272535,"velocity":0.5905511811023622},{"duration":0.13636349999998743,"midi":42,"time":192.272535,"velocity":0.5905511811023622},{"duration":0.2727270000000033,"midi":36,"time":192.545262,"velocity":0.5905511811023622},{"duration":0.13636349999998743,"midi":42,"time":192.545262,"velocity":0.5905511811023622},{"duration":0.2727270000000033,"midi":38,"time":192.545262,"velocity":0.5905511811023622},{"duration":0.2727270000000033,"midi":35,"time":192.545262,"velocity":0.5905511811023622},{"duration":0.2727270000000033,"midi":40,"time":192.545262,"velocity":0.5905511811023622},{"duration":0.13636349999998743,"midi":42,"time":192.545262,"velocity":0.5905511811023622},{"duration":0.2727270000000033,"midi":40,"time":192.545262,"velocity":0.5905511811023622},{"duration":0.2727270000000033,"midi":36,"time":192.545262,"velocity":0.5905511811023622},{"duration":0.2727270000000033,"midi":35,"time":192.545262,"velocity":0.5905511811023622},{"duration":0.2727270000000033,"midi":38,"time":192.545262,"velocity":0.5905511811023622},{"duration":0.13636349999998743,"midi":42,"time":192.817989,"velocity":0.5905511811023622},{"duration":0.13636349999998743,"midi":42,"time":192.817989,"velocity":0.5905511811023622},{"duration":0.2727270000000033,"midi":40,"time":193.090716,"velocity":0.5905511811023622},{"duration":0.2727270000000033,"midi":36,"time":193.090716,"velocity":0.5905511811023622},{"duration":0.2727270000000033,"midi":36,"time":193.090716,"velocity":0.5905511811023622},{"duration":0.2727270000000033,"midi":35,"time":193.090716,"velocity":0.5905511811023622},{"duration":0.13636350000001585,"midi":42,"time":193.090716,"velocity":0.5905511811023622},{"duration":0.2727270000000033,"midi":35,"time":193.090716,"velocity":0.5905511811023622},{"duration":0.2727270000000033,"midi":38,"time":193.090716,"velocity":0.5905511811023622},{"duration":0.2727270000000033,"midi":38,"time":193.090716,"velocity":0.5905511811023622},{"duration":0.13636350000001585,"midi":42,"time":193.090716,"velocity":0.5905511811023622},{"duration":0.2727270000000033,"midi":40,"time":193.090716,"velocity":0.5905511811023622},{"duration":0.13636350000001585,"midi":42,"time":193.363443,"velocity":0.5905511811023622},{"duration":0.13636350000001585,"midi":42,"time":193.363443,"velocity":0.5905511811023622},{"duration":0.2727270000000033,"midi":40,"time":193.63617,"velocity":0.5905511811023622},{"duration":0.2727270000000033,"midi":35,"time":193.63617,"velocity":0.5905511811023622},{"duration":0.2727270000000033,"midi":35,"time":193.63617,"velocity":0.5905511811023622},{"duration":0.13636350000001585,"midi":42,"time":193.63617,"velocity":0.5905511811023622},{"duration":0.13636350000001585,"midi":38,"time":193.63617,"velocity":0.5905511811023622},{"duration":0.13636350000001585,"midi":38,"time":193.63617,"velocity":0.5905511811023622},{"duration":0.13636350000001585,"midi":42,"time":193.63617,"velocity":0.5905511811023622},{"duration":0.2727270000000033,"midi":36,"time":193.63617,"velocity":0.5905511811023622},{"duration":0.2727270000000033,"midi":36,"time":193.63617,"velocity":0.5905511811023622},{"duration":0.2727270000000033,"midi":40,"time":193.63617,"velocity":0.5905511811023622},{"duration":0.13636350000001585,"midi":42,"time":193.908897,"velocity":0.5905511811023622},{"duration":0.13636350000001585,"midi":42,"time":193.908897,"velocity":0.5905511811023622},{"duration":0.2727270000000033,"midi":36,"time":194.181624,"velocity":0.5905511811023622},{"duration":0.2727270000000033,"midi":36,"time":194.181624,"velocity":0.5905511811023622},{"duration":0.2727270000000033,"midi":35,"time":194.181624,"velocity":0.5905511811023622},{"duration":0.2727270000000033,"midi":40,"time":194.181624,"velocity":0.5905511811023622},{"duration":0.2727270000000033,"midi":38,"time":194.181624,"velocity":0.5905511811023622},{"duration":0.2727270000000033,"midi":35,"time":194.181624,"velocity":0.5905511811023622},{"duration":0.2727270000000033,"midi":38,"time":194.181624,"velocity":0.5905511811023622},{"duration":0.2727270000000033,"midi":40,"time":194.181624,"velocity":0.5905511811023622},{"duration":0.13636349999998743,"midi":42,"time":194.181624,"velocity":0.5905511811023622},{"duration":0.13636349999998743,"midi":42,"time":194.181624,"velocity":0.5905511811023622},{"duration":0.13636349999998743,"midi":42,"time":194.454351,"velocity":0.5905511811023622},{"duration":0.13636349999998743,"midi":42,"time":194.454351,"velocity":0.5905511811023622},{"duration":0.2727270000000033,"midi":36,"time":194.727078,"velocity":0.5905511811023622},{"duration":0.2727270000000033,"midi":35,"time":194.727078,"velocity":0.5905511811023622},{"duration":0.2727270000000033,"midi":40,"time":194.727078,"velocity":0.5905511811023622},{"duration":0.2727270000000033,"midi":40,"time":194.727078,"velocity":0.5905511811023622},{"duration":0.2727270000000033,"midi":35,"time":194.727078,"velocity":0.5905511811023622},{"duration":0.13636349999998743,"midi":42,"time":194.727078,"velocity":0.5905511811023622},{"duration":0.13636349999998743,"midi":42,"time":194.727078,"velocity":0.5905511811023622},{"duration":0.2727270000000033,"midi":36,"time":194.727078,"velocity":0.5905511811023622},{"duration":0.2727270000000033,"midi":38,"time":194.727078,"velocity":0.5905511811023622},{"duration":0.2727270000000033,"midi":38,"time":194.727078,"velocity":0.5905511811023622},{"duration":0.13636349999998743,"midi":42,"time":194.999805,"velocity":0.5905511811023622},{"duration":0.13636349999998743,"midi":42,"time":194.999805,"velocity":0.5905511811023622},{"duration":0.2727270000000033,"midi":35,"time":195.27253199999998,"velocity":0.5905511811023622},{"duration":0.2727270000000033,"midi":38,"time":195.27253199999998,"velocity":0.5905511811023622},{"duration":0.2727270000000033,"midi":35,"time":195.27253199999998,"velocity":0.5905511811023622},{"duration":0.13636350000001585,"midi":42,"time":195.27253199999998,"velocity":0.5905511811023622},{"duration":0.2727270000000033,"midi":40,"time":195.27253199999998,"velocity":0.5905511811023622},{"duration":0.2727270000000033,"midi":40,"time":195.27253199999998,"velocity":0.5905511811023622},{"duration":0.2727270000000033,"midi":36,"time":195.27253199999998,"velocity":0.5905511811023622},{"duration":0.2727270000000033,"midi":38,"time":195.27253199999998,"velocity":0.5905511811023622},{"duration":0.13636350000001585,"midi":42,"time":195.27253199999998,"velocity":0.5905511811023622},{"duration":0.2727270000000033,"midi":36,"time":195.27253199999998,"velocity":0.5905511811023622},{"duration":0.13636350000001585,"midi":42,"time":195.545259,"velocity":0.5905511811023622},{"duration":0.13636350000001585,"midi":42,"time":195.545259,"velocity":0.5905511811023622},{"duration":0.2727270000000033,"midi":35,"time":195.817986,"velocity":0.5905511811023622},{"duration":0.2727270000000033,"midi":40,"time":195.817986,"velocity":0.5905511811023622},{"duration":0.2727270000000033,"midi":40,"time":195.817986,"velocity":0.5905511811023622},{"duration":0.2727270000000033,"midi":36,"time":195.817986,"velocity":0.5905511811023622},{"duration":0.13636350000001585,"midi":42,"time":195.817986,"velocity":0.5905511811023622},{"duration":0.13636350000001585,"midi":38,"time":195.817986,"velocity":0.5905511811023622},{"duration":0.2727270000000033,"midi":36,"time":195.817986,"velocity":0.5905511811023622},{"duration":0.13636350000001585,"midi":38,"time":195.817986,"velocity":0.5905511811023622},{"duration":0.13636350000001585,"midi":42,"time":195.817986,"velocity":0.5905511811023622},{"duration":0.2727270000000033,"midi":35,"time":195.817986,"velocity":0.5905511811023622},{"duration":0.13636350000001585,"midi":42,"time":196.090713,"velocity":0.5905511811023622},{"duration":0.13636350000001585,"midi":42,"time":196.090713,"velocity":0.5905511811023622},{"duration":0.2727270000000033,"midi":36,"time":196.36344,"velocity":0.5905511811023622},{"duration":0.13636349999998743,"midi":42,"time":196.36344,"velocity":0.5905511811023622},{"duration":0.2727270000000033,"midi":38,"time":196.36344,"velocity":0.5905511811023622},{"duration":0.2727270000000033,"midi":40,"time":196.36344,"velocity":0.5905511811023622},{"duration":0.2727270000000033,"midi":35,"time":196.36344,"velocity":0.5905511811023622},{"duration":0.2727270000000033,"midi":38,"time":196.36344,"velocity":0.5905511811023622},{"duration":0.2727270000000033,"midi":35,"time":196.36344,"velocity":0.5905511811023622},{"duration":0.2727270000000033,"midi":40,"time":196.36344,"velocity":0.5905511811023622},{"duration":0.13636349999998743,"midi":42,"time":196.36344,"velocity":0.5905511811023622},{"duration":0.2727270000000033,"midi":36,"time":196.36344,"velocity":0.5905511811023622},{"duration":0.13636349999998743,"midi":42,"time":196.636167,"velocity":0.5905511811023622},{"duration":0.13636349999998743,"midi":42,"time":196.636167,"velocity":0.5905511811023622},{"duration":0.2727270000000033,"midi":40,"time":196.908894,"velocity":0.5905511811023622},{"duration":0.2727270000000033,"midi":38,"time":196.908894,"velocity":0.5905511811023622},{"duration":0.2727270000000033,"midi":36,"time":196.908894,"velocity":0.5905511811023622},{"duration":0.2727270000000033,"midi":38,"time":196.908894,"velocity":0.5905511811023622},{"duration":0.13636349999998743,"midi":42,"time":196.908894,"velocity":0.5905511811023622},{"duration":0.2727270000000033,"midi":40,"time":196.908894,"velocity":0.5905511811023622},{"duration":0.13636349999998743,"midi":42,"time":196.908894,"velocity":0.5905511811023622},{"duration":0.2727270000000033,"midi":35,"time":196.908894,"velocity":0.5905511811023622},{"duration":0.2727270000000033,"midi":35,"time":196.908894,"velocity":0.5905511811023622},{"duration":0.2727270000000033,"midi":36,"time":196.908894,"velocity":0.5905511811023622},{"duration":0.13636349999998743,"midi":42,"time":197.181621,"velocity":0.5905511811023622},{"duration":0.13636349999998743,"midi":42,"time":197.181621,"velocity":0.5905511811023622},{"duration":0.27272699999997485,"midi":38,"time":197.454348,"velocity":0.5905511811023622},{"duration":0.13636349999998743,"midi":42,"time":197.454348,"velocity":0.5905511811023622},{"duration":0.27272699999997485,"midi":35,"time":197.454348,"velocity":0.5905511811023622},{"duration":0.27272699999997485,"midi":36,"time":197.454348,"velocity":0.5905511811023622},{"duration":0.27272699999997485,"midi":38,"time":197.454348,"velocity":0.5905511811023622},{"duration":0.27272699999997485,"midi":36,"time":197.454348,"velocity":0.5905511811023622},{"duration":0.27272699999997485,"midi":40,"time":197.454348,"velocity":0.5905511811023622},{"duration":0.27272699999997485,"midi":40,"time":197.454348,"velocity":0.5905511811023622},{"duration":0.13636349999998743,"midi":42,"time":197.454348,"velocity":0.5905511811023622},{"duration":0.27272699999997485,"midi":35,"time":197.454348,"velocity":0.5905511811023622},{"duration":0.13636350000001585,"midi":42,"time":197.72707499999999,"velocity":0.5905511811023622},{"duration":0.13636350000001585,"midi":42,"time":197.72707499999999,"velocity":0.5905511811023622},{"duration":0.13636350000001585,"midi":42,"time":197.999802,"velocity":0.5905511811023622},{"duration":0.2727270000000033,"midi":40,"time":197.999802,"velocity":0.5905511811023622},{"duration":0.2727270000000033,"midi":35,"time":197.999802,"velocity":0.5905511811023622},{"duration":0.2727270000000033,"midi":36,"time":197.999802,"velocity":0.5905511811023622},{"duration":0.13636350000001585,"midi":42,"time":197.999802,"velocity":0.5905511811023622},{"duration":0.2727270000000033,"midi":36,"time":197.999802,"velocity":0.5905511811023622},{"duration":0.13636350000001585,"midi":38,"time":197.999802,"velocity":0.5905511811023622},{"duration":0.2727270000000033,"midi":40,"time":197.999802,"velocity":0.5905511811023622},{"duration":0.13636350000001585,"midi":38,"time":197.999802,"velocity":0.5905511811023622},{"duration":0.2727270000000033,"midi":35,"time":197.999802,"velocity":0.5905511811023622},{"duration":0.13636350000001585,"midi":42,"time":198.272529,"velocity":0.5905511811023622},{"duration":0.13636350000001585,"midi":42,"time":198.272529,"velocity":0.5905511811023622},{"duration":0.13636350000001585,"midi":42,"time":198.545256,"velocity":0.5905511811023622},{"duration":0.13636350000001585,"midi":42,"time":198.545256,"velocity":0.5905511811023622},{"duration":0.2727270000000033,"midi":38,"time":198.545256,"velocity":0.5905511811023622},{"duration":0.2727270000000033,"midi":35,"time":198.545256,"velocity":0.5905511811023622},{"duration":0.2727270000000033,"midi":36,"time":198.545256,"velocity":0.5905511811023622},{"duration":0.2727270000000033,"midi":40,"time":198.545256,"velocity":0.5905511811023622},{"duration":0.2727270000000033,"midi":40,"time":198.545256,"velocity":0.5905511811023622},{"duration":0.2727270000000033,"midi":38,"time":198.545256,"velocity":0.5905511811023622},{"duration":0.2727270000000033,"midi":36,"time":198.545256,"velocity":0.5905511811023622},{"duration":0.2727270000000033,"midi":35,"time":198.545256,"velocity":0.5905511811023622},{"duration":0.13636349999998743,"midi":42,"time":198.817983,"velocity":0.5905511811023622},{"duration":0.13636349999998743,"midi":42,"time":198.817983,"velocity":0.5905511811023622},{"duration":0.2727270000000033,"midi":40,"time":199.09071,"velocity":0.5905511811023622},{"duration":0.2727270000000033,"midi":38,"time":199.09071,"velocity":0.5905511811023622},{"duration":0.2727270000000033,"midi":38,"time":199.09071,"velocity":0.5905511811023622},{"duration":0.2727270000000033,"midi":35,"time":199.09071,"velocity":0.5905511811023622},{"duration":0.13636349999998743,"midi":42,"time":199.09071,"velocity":0.5905511811023622},{"duration":0.2727270000000033,"midi":35,"time":199.09071,"velocity":0.5905511811023622},{"duration":0.2727270000000033,"midi":36,"time":199.09071,"velocity":0.5905511811023622},{"duration":0.2727270000000033,"midi":40,"time":199.09071,"velocity":0.5905511811023622},{"duration":0.13636349999998743,"midi":42,"time":199.09071,"velocity":0.5905511811023622},{"duration":0.2727270000000033,"midi":36,"time":199.09071,"velocity":0.5905511811023622},{"duration":0.13636349999998743,"midi":42,"time":199.363437,"velocity":0.5905511811023622},{"duration":0.13636349999998743,"midi":42,"time":199.363437,"velocity":0.5905511811023622},{"duration":0.13636349999998743,"midi":42,"time":199.636164,"velocity":0.5905511811023622},{"duration":0.2727270000000033,"midi":40,"time":199.636164,"velocity":0.5905511811023622},{"duration":0.13636349999998743,"midi":42,"time":199.636164,"velocity":0.5905511811023622},{"duration":0.2727270000000033,"midi":35,"time":199.636164,"velocity":0.5905511811023622},{"duration":0.2727270000000033,"midi":35,"time":199.636164,"velocity":0.5905511811023622},{"duration":0.2727270000000033,"midi":36,"time":199.636164,"velocity":0.5905511811023622},{"duration":0.2727270000000033,"midi":40,"time":199.636164,"velocity":0.5905511811023622},{"duration":0.2727270000000033,"midi":38,"time":199.636164,"velocity":0.5905511811023622},{"duration":0.2727270000000033,"midi":36,"time":199.636164,"velocity":0.5905511811023622},{"duration":0.2727270000000033,"midi":38,"time":199.636164,"velocity":0.5905511811023622},{"duration":0.13636349999998743,"midi":42,"time":199.908891,"velocity":0.5905511811023622},{"duration":0.13636349999998743,"midi":42,"time":199.908891,"velocity":0.5905511811023622},{"duration":0.2727270000000033,"midi":40,"time":200.181618,"velocity":0.5905511811023622},{"duration":0.2727270000000033,"midi":36,"time":200.181618,"velocity":0.5905511811023622},{"duration":0.13636350000001585,"midi":42,"time":200.181618,"velocity":0.5905511811023622},{"duration":0.13636350000001585,"midi":38,"time":200.181618,"velocity":0.5905511811023622},{"duration":0.2727270000000033,"midi":40,"time":200.181618,"velocity":0.5905511811023622},{"duration":0.13636350000001585,"midi":38,"time":200.181618,"velocity":0.5905511811023622},{"duration":0.13636350000001585,"midi":42,"time":200.181618,"velocity":0.5905511811023622},{"duration":0.2727270000000033,"midi":36,"time":200.181618,"velocity":0.5905511811023622},{"duration":0.2727270000000033,"midi":35,"time":200.181618,"velocity":0.5905511811023622},{"duration":0.2727270000000033,"midi":35,"time":200.181618,"velocity":0.5905511811023622},{"duration":0.13636350000001585,"midi":42,"time":200.454345,"velocity":0.5905511811023622},{"duration":0.13636350000001585,"midi":42,"time":200.454345,"velocity":0.5905511811023622},{"duration":0.13636349999998743,"midi":38,"time":200.5907085,"velocity":0.5905511811023622},{"duration":0.13636349999998743,"midi":38,"time":200.5907085,"velocity":0.5905511811023622},{"duration":0.2727270000000033,"midi":35,"time":200.727072,"velocity":0.5905511811023622},{"duration":0.2727270000000033,"midi":36,"time":200.727072,"velocity":0.5905511811023622},{"duration":0.2727270000000033,"midi":40,"time":200.727072,"velocity":0.5905511811023622},{"duration":0.2727270000000033,"midi":35,"time":200.727072,"velocity":0.5905511811023622},{"duration":0.13636350000001585,"midi":42,"time":200.727072,"velocity":0.5905511811023622},{"duration":0.2727270000000033,"midi":40,"time":200.727072,"velocity":0.5905511811023622},{"duration":0.13636350000001585,"midi":42,"time":200.727072,"velocity":0.5905511811023622},{"duration":0.2727270000000033,"midi":38,"time":200.727072,"velocity":0.5905511811023622},{"duration":0.2727270000000033,"midi":38,"time":200.727072,"velocity":0.5905511811023622},{"duration":0.2727270000000033,"midi":36,"time":200.727072,"velocity":0.5905511811023622},{"duration":0.13636350000001585,"midi":42,"time":200.999799,"velocity":0.5905511811023622},{"duration":0.13636350000001585,"midi":42,"time":200.999799,"velocity":0.5905511811023622},{"duration":0.2727270000000033,"midi":36,"time":201.272526,"velocity":0.5905511811023622},{"duration":0.2727270000000033,"midi":36,"time":201.272526,"velocity":0.5905511811023622},{"duration":0.13636349999998743,"midi":42,"time":201.272526,"velocity":0.5905511811023622},{"duration":0.2727270000000033,"midi":35,"time":201.272526,"velocity":0.5905511811023622},{"duration":0.2727270000000033,"midi":38,"time":201.272526,"velocity":0.5905511811023622},{"duration":0.2727270000000033,"midi":40,"time":201.272526,"velocity":0.5905511811023622},{"duration":0.2727270000000033,"midi":40,"time":201.272526,"velocity":0.5905511811023622},{"duration":0.13636349999998743,"midi":42,"time":201.272526,"velocity":0.5905511811023622},{"duration":0.2727270000000033,"midi":38,"time":201.272526,"velocity":0.5905511811023622},{"duration":0.2727270000000033,"midi":35,"time":201.272526,"velocity":0.5905511811023622},{"duration":0.13636349999998743,"midi":42,"time":201.545253,"velocity":0.5905511811023622},{"duration":0.13636349999998743,"midi":42,"time":201.545253,"velocity":0.5905511811023622},{"duration":0.2727270000000033,"midi":38,"time":201.81798,"velocity":0.5905511811023622},{"duration":0.2727270000000033,"midi":40,"time":201.81798,"velocity":0.5905511811023622},{"duration":0.2727270000000033,"midi":40,"time":201.81798,"velocity":0.5905511811023622},{"duration":0.13636349999998743,"midi":42,"time":201.81798,"velocity":0.5905511811023622},{"duration":0.2727270000000033,"midi":35,"time":201.81798,"velocity":0.5905511811023622},{"duration":0.13636349999998743,"midi":42,"time":201.81798,"velocity":0.5905511811023622},{"duration":0.2727270000000033,"midi":36,"time":201.81798,"velocity":0.5905511811023622},{"duration":0.2727270000000033,"midi":36,"time":201.81798,"velocity":0.5905511811023622},{"duration":0.2727270000000033,"midi":35,"time":201.81798,"velocity":0.5905511811023622},{"duration":0.2727270000000033,"midi":38,"time":201.81798,"velocity":0.5905511811023622},{"duration":0.13636349999998743,"midi":42,"time":202.090707,"velocity":0.5905511811023622},{"duration":0.13636349999998743,"midi":42,"time":202.090707,"velocity":0.5905511811023622},{"duration":0.2727270000000033,"midi":36,"time":202.36343399999998,"velocity":0.5905511811023622},{"duration":0.2727270000000033,"midi":40,"time":202.36343399999998,"velocity":0.5905511811023622},{"duration":0.2727270000000033,"midi":35,"time":202.36343399999998,"velocity":0.5905511811023622},{"duration":0.13636350000001585,"midi":38,"time":202.36343399999998,"velocity":0.5905511811023622},{"duration":0.2727270000000033,"midi":40,"time":202.36343399999998,"velocity":0.5905511811023622},{"duration":0.13636350000001585,"midi":42,"time":202.36343399999998,"velocity":0.5905511811023622},{"duration":0.2727270000000033,"midi":36,"time":202.36343399999998,"velocity":0.5905511811023622},{"duration":0.2727270000000033,"midi":35,"time":202.36343399999998,"velocity":0.5905511811023622},{"duration":0.13636350000001585,"midi":38,"time":202.36343399999998,"velocity":0.5905511811023622},{"duration":0.13636350000001585,"midi":42,"time":202.36343399999998,"velocity":0.5905511811023622},{"duration":0.13636350000001585,"midi":42,"time":202.636161,"velocity":0.5905511811023622},{"duration":0.13636350000001585,"midi":42,"time":202.636161,"velocity":0.5905511811023622},{"duration":0.2727270000000033,"midi":36,"time":202.908888,"velocity":0.5905511811023622},{"duration":0.2727270000000033,"midi":35,"time":202.908888,"velocity":0.5905511811023622},{"duration":0.2727270000000033,"midi":38,"time":202.908888,"velocity":0.5905511811023622},{"duration":0.2727270000000033,"midi":40,"time":202.908888,"velocity":0.5905511811023622},{"duration":0.2727270000000033,"midi":36,"time":202.908888,"velocity":0.5905511811023622},{"duration":0.2727270000000033,"midi":35,"time":202.908888,"velocity":0.5905511811023622},{"duration":0.2727270000000033,"midi":40,"time":202.908888,"velocity":0.5905511811023622},{"duration":0.13636350000001585,"midi":42,"time":202.908888,"velocity":0.5905511811023622},{"duration":0.2727270000000033,"midi":38,"time":202.908888,"velocity":0.5905511811023622},{"duration":0.13636350000001585,"midi":42,"time":202.908888,"velocity":0.5905511811023622},{"duration":0.13636350000001585,"midi":42,"time":203.181615,"velocity":0.5905511811023622},{"duration":0.13636350000001585,"midi":42,"time":203.181615,"velocity":0.5905511811023622},{"duration":0.2727270000000033,"midi":36,"time":203.454342,"velocity":0.5905511811023622},{"duration":0.2727270000000033,"midi":35,"time":203.454342,"velocity":0.5905511811023622},{"duration":0.2727270000000033,"midi":38,"time":203.454342,"velocity":0.5905511811023622},{"duration":0.2727270000000033,"midi":40,"time":203.454342,"velocity":0.5905511811023622},{"duration":0.2727270000000033,"midi":36,"time":203.454342,"velocity":0.5905511811023622},{"duration":0.2727270000000033,"midi":38,"time":203.454342,"velocity":0.5905511811023622},{"duration":0.2727270000000033,"midi":35,"time":203.454342,"velocity":0.5905511811023622},{"duration":0.13636349999998743,"midi":42,"time":203.454342,"velocity":0.5905511811023622},{"duration":0.13636349999998743,"midi":42,"time":203.454342,"velocity":0.5905511811023622},{"duration":0.2727270000000033,"midi":40,"time":203.454342,"velocity":0.5905511811023622},{"duration":0.13636349999998743,"midi":42,"time":203.727069,"velocity":0.5905511811023622},{"duration":0.13636349999998743,"midi":42,"time":203.727069,"velocity":0.5905511811023622},{"duration":0.2727270000000033,"midi":35,"time":203.999796,"velocity":0.5905511811023622},{"duration":0.2727270000000033,"midi":35,"time":203.999796,"velocity":0.5905511811023622},{"duration":0.2727270000000033,"midi":40,"time":203.999796,"velocity":0.5905511811023622},{"duration":0.2727270000000033,"midi":38,"time":203.999796,"velocity":0.5905511811023622},{"duration":0.2727270000000033,"midi":36,"time":203.999796,"velocity":0.5905511811023622},{"duration":0.13636349999998743,"midi":42,"time":203.999796,"velocity":0.5905511811023622},{"duration":0.13636349999998743,"midi":42,"time":203.999796,"velocity":0.5905511811023622},{"duration":0.2727270000000033,"midi":40,"time":203.999796,"velocity":0.5905511811023622},{"duration":0.2727270000000033,"midi":38,"time":203.999796,"velocity":0.5905511811023622},{"duration":0.2727270000000033,"midi":36,"time":203.999796,"velocity":0.5905511811023622},{"duration":0.13636349999998743,"midi":42,"time":204.272523,"velocity":0.5905511811023622},{"duration":0.13636349999998743,"midi":42,"time":204.272523,"velocity":0.5905511811023622},{"duration":0.27272699999997485,"midi":40,"time":204.54525,"velocity":0.5905511811023622},{"duration":0.27272699999997485,"midi":36,"time":204.54525,"velocity":0.5905511811023622},{"duration":0.27272699999997485,"midi":35,"time":204.54525,"velocity":0.5905511811023622},{"duration":0.27272699999997485,"midi":35,"time":204.54525,"velocity":0.5905511811023622},{"duration":0.13636349999998743,"midi":38,"time":204.54525,"velocity":0.5905511811023622},{"duration":0.27272699999997485,"midi":36,"time":204.54525,"velocity":0.5905511811023622},{"duration":0.13636349999998743,"midi":38,"time":204.54525,"velocity":0.5905511811023622},{"duration":0.13636349999998743,"midi":42,"time":204.54525,"velocity":0.5905511811023622},{"duration":0.13636349999998743,"midi":42,"time":204.54525,"velocity":0.5905511811023622},{"duration":0.27272699999997485,"midi":40,"time":204.54525,"velocity":0.5905511811023622},{"duration":0.13636350000001585,"midi":42,"time":204.81797699999998,"velocity":0.5905511811023622},{"duration":0.13636350000001585,"midi":42,"time":204.81797699999998,"velocity":0.5905511811023622},{"duration":0.2727270000000033,"midi":40,"time":205.090704,"velocity":0.5905511811023622},{"duration":0.2727270000000033,"midi":36,"time":205.090704,"velocity":0.5905511811023622},{"duration":0.13636350000001585,"midi":42,"time":205.090704,"velocity":0.5905511811023622},{"duration":0.2727270000000033,"midi":36,"time":205.090704,"velocity":0.5905511811023622},{"duration":0.2727270000000033,"midi":38,"time":205.090704,"velocity":0.5905511811023622},{"duration":0.2727270000000033,"midi":35,"time":205.090704,"velocity":0.5905511811023622},{"duration":0.2727270000000033,"midi":35,"time":205.090704,"velocity":0.5905511811023622},{"duration":0.13636350000001585,"midi":42,"time":205.090704,"velocity":0.5905511811023622},{"duration":0.2727270000000033,"midi":38,"time":205.090704,"velocity":0.5905511811023622},{"duration":0.2727270000000033,"midi":40,"time":205.090704,"velocity":0.5905511811023622},{"duration":0.13636350000001585,"midi":42,"time":205.363431,"velocity":0.5905511811023622},{"duration":0.13636350000001585,"midi":42,"time":205.363431,"velocity":0.5905511811023622},{"duration":0.2727270000000033,"midi":36,"time":205.636158,"velocity":0.5905511811023622},{"duration":0.2727270000000033,"midi":36,"time":205.636158,"velocity":0.5905511811023622},{"duration":0.2727270000000033,"midi":35,"time":205.636158,"velocity":0.5905511811023622},{"duration":0.2727270000000033,"midi":38,"time":205.636158,"velocity":0.5905511811023622},{"duration":0.2727270000000033,"midi":40,"time":205.636158,"velocity":0.5905511811023622},{"duration":0.2727270000000033,"midi":38,"time":205.636158,"velocity":0.5905511811023622},{"duration":0.2727270000000033,"midi":40,"time":205.636158,"velocity":0.5905511811023622},{"duration":0.13636350000001585,"midi":42,"time":205.636158,"velocity":0.5905511811023622},{"duration":0.2727270000000033,"midi":35,"time":205.636158,"velocity":0.5905511811023622},{"duration":0.13636350000001585,"midi":42,"time":205.636158,"velocity":0.5905511811023622},{"duration":0.13636349999998743,"midi":42,"time":205.908885,"velocity":0.5905511811023622},{"duration":0.13636349999998743,"midi":42,"time":205.908885,"velocity":0.5905511811023622},{"duration":0.2727270000000033,"midi":38,"time":206.181612,"velocity":0.5905511811023622},{"duration":0.2727270000000033,"midi":40,"time":206.181612,"velocity":0.5905511811023622},{"duration":0.2727270000000033,"midi":38,"time":206.181612,"velocity":0.5905511811023622},{"duration":0.13636349999998743,"midi":42,"time":206.181612,"velocity":0.5905511811023622},{"duration":0.2727270000000033,"midi":40,"time":206.181612,"velocity":0.5905511811023622},{"duration":0.2727270000000033,"midi":35,"time":206.181612,"velocity":0.5905511811023622},{"duration":0.13636349999998743,"midi":42,"time":206.181612,"velocity":0.5905511811023622},{"duration":0.2727270000000033,"midi":36,"time":206.181612,"velocity":0.5905511811023622},{"duration":0.2727270000000033,"midi":35,"time":206.181612,"velocity":0.5905511811023622},{"duration":0.2727270000000033,"midi":36,"time":206.181612,"velocity":0.5905511811023622},{"duration":0.13636349999998743,"midi":42,"time":206.454339,"velocity":0.5905511811023622},{"duration":0.13636349999998743,"midi":42,"time":206.454339,"velocity":0.5905511811023622},{"duration":0.2727270000000033,"midi":40,"time":206.727066,"velocity":0.5905511811023622},{"duration":0.2727270000000033,"midi":36,"time":206.727066,"velocity":0.5905511811023622},{"duration":0.13636349999998743,"midi":42,"time":206.727066,"velocity":0.5905511811023622},{"duration":0.13636349999998743,"midi":38,"time":206.727066,"velocity":0.5905511811023622},{"duration":0.13636349999998743,"midi":42,"time":206.727066,"velocity":0.5905511811023622},{"duration":0.2727270000000033,"midi":35,"time":206.727066,"velocity":0.5905511811023622},{"duration":0.2727270000000033,"midi":40,"time":206.727066,"velocity":0.5905511811023622},{"duration":0.13636349999998743,"midi":38,"time":206.727066,"velocity":0.5905511811023622},{"duration":0.2727270000000033,"midi":35,"time":206.727066,"velocity":0.5905511811023622},{"duration":0.2727270000000033,"midi":36,"time":206.727066,"velocity":0.5905511811023622},{"duration":0.13636349999998743,"midi":42,"time":206.999793,"velocity":0.5905511811023622},{"duration":0.13636349999998743,"midi":42,"time":206.999793,"velocity":0.5905511811023622},{"duration":0.13636350000001585,"midi":42,"time":207.27252,"velocity":0.5905511811023622},{"duration":0.2727270000000033,"midi":38,"time":207.27252,"velocity":0.5905511811023622},{"duration":0.13636350000001585,"midi":42,"time":207.27252,"velocity":0.5905511811023622},{"duration":0.2727270000000033,"midi":40,"time":207.27252,"velocity":0.5905511811023622},{"duration":0.2727270000000033,"midi":36,"time":207.27252,"velocity":0.5905511811023622},{"duration":0.2727270000000033,"midi":38,"time":207.27252,"velocity":0.5905511811023622},{"duration":0.2727270000000033,"midi":40,"time":207.27252,"velocity":0.5905511811023622},{"duration":0.2727270000000033,"midi":35,"time":207.27252,"velocity":0.5905511811023622},{"duration":0.2727270000000033,"midi":36,"time":207.27252,"velocity":0.5905511811023622},{"duration":0.2727270000000033,"midi":35,"time":207.27252,"velocity":0.5905511811023622},{"duration":0.13636350000001585,"midi":42,"time":207.545247,"velocity":0.5905511811023622},{"duration":0.13636350000001585,"midi":42,"time":207.545247,"velocity":0.5905511811023622},{"duration":0.2727270000000033,"midi":35,"time":207.817974,"velocity":0.5905511811023622},{"duration":0.2727270000000033,"midi":38,"time":207.817974,"velocity":0.5905511811023622},{"duration":0.2727270000000033,"midi":38,"time":207.817974,"velocity":0.5905511811023622},{"duration":0.2727270000000033,"midi":36,"time":207.817974,"velocity":0.5905511811023622},{"duration":0.13636350000001585,"midi":42,"time":207.817974,"velocity":0.5905511811023622},{"duration":0.2727270000000033,"midi":35,"time":207.817974,"velocity":0.5905511811023622},{"duration":0.2727270000000033,"midi":40,"time":207.817974,"velocity":0.5905511811023622},{"duration":0.2727270000000033,"midi":36,"time":207.817974,"velocity":0.5905511811023622},{"duration":0.2727270000000033,"midi":40,"time":207.817974,"velocity":0.5905511811023622},{"duration":0.13636350000001585,"midi":42,"time":207.817974,"velocity":0.5905511811023622},{"duration":0.13636350000001585,"midi":42,"time":208.090701,"velocity":0.5905511811023622},{"duration":0.13636350000001585,"midi":42,"time":208.090701,"velocity":0.5905511811023622},{"duration":0.13636349999998743,"midi":42,"time":209.454336,"velocity":0.5905511811023622},{"duration":0.27272699999997485,"midi":36,"time":209.454336,"velocity":0.5905511811023622},{"duration":0.13636349999998743,"midi":42,"time":209.454336,"velocity":0.5905511811023622},{"duration":0.27272699999997485,"midi":38,"time":209.454336,"velocity":0.5905511811023622},{"duration":0.27272699999997485,"midi":36,"time":209.454336,"velocity":0.5905511811023622},{"duration":0.27272699999997485,"midi":40,"time":209.454336,"velocity":0.5905511811023622},{"duration":0.27272699999997485,"midi":35,"time":209.454336,"velocity":0.5905511811023622},{"duration":0.27272699999997485,"midi":40,"time":209.454336,"velocity":0.5905511811023622},{"duration":0.27272699999997485,"midi":35,"time":209.454336,"velocity":0.5905511811023622},{"duration":0.27272699999997485,"midi":38,"time":209.454336,"velocity":0.5905511811023622},{"duration":0.13636350000001585,"midi":42,"time":209.727063,"velocity":0.5905511811023622},{"duration":0.13636350000001585,"midi":42,"time":209.727063,"velocity":0.5905511811023622},{"duration":0.2727270000000033,"midi":36,"time":209.99979,"velocity":0.5905511811023622},{"duration":0.2727270000000033,"midi":40,"time":209.99979,"velocity":0.5905511811023622},{"duration":0.2727270000000033,"midi":38,"time":209.99979,"velocity":0.5905511811023622},{"duration":0.13636350000001585,"midi":42,"time":209.99979,"velocity":0.5905511811023622},{"duration":0.13636350000001585,"midi":42,"time":209.99979,"velocity":0.5905511811023622},{"duration":0.2727270000000033,"midi":36,"time":209.99979,"velocity":0.5905511811023622},{"duration":0.2727270000000033,"midi":35,"time":209.99979,"velocity":0.5905511811023622},{"duration":0.13636350000001585,"midi":49,"time":209.99979,"velocity":0.5905511811023622},{"duration":0.2727270000000033,"midi":38,"time":209.99979,"velocity":0.5905511811023622},{"duration":0.2727270000000033,"midi":35,"time":209.99979,"velocity":0.5905511811023622},{"duration":0.2727270000000033,"midi":40,"time":209.99979,"velocity":0.5905511811023622},{"duration":0.13636350000001585,"midi":42,"time":210.272517,"velocity":0.5905511811023622},{"duration":0.13636350000001585,"midi":42,"time":210.272517,"velocity":0.5905511811023622},{"duration":0.2727270000000033,"midi":35,"time":210.545244,"velocity":0.5905511811023622},{"duration":0.2727270000000033,"midi":38,"time":210.545244,"velocity":0.5905511811023622},{"duration":0.2727270000000033,"midi":36,"time":210.545244,"velocity":0.5905511811023622},{"duration":0.2727270000000033,"midi":35,"time":210.545244,"velocity":0.5905511811023622},{"duration":0.2727270000000033,"midi":36,"time":210.545244,"velocity":0.5905511811023622},{"duration":0.13636349999998743,"midi":42,"time":210.545244,"velocity":0.5905511811023622},{"duration":0.2727270000000033,"midi":40,"time":210.545244,"velocity":0.5905511811023622},{"duration":0.13636349999998743,"midi":49,"time":210.545244,"velocity":0.5905511811023622},{"duration":0.13636349999998743,"midi":42,"time":210.545244,"velocity":0.5905511811023622},{"duration":0.2727270000000033,"midi":40,"time":210.545244,"velocity":0.5905511811023622},{"duration":0.2727270000000033,"midi":38,"time":210.545244,"velocity":0.5905511811023622},{"duration":0.13636349999998743,"midi":42,"time":210.817971,"velocity":0.5905511811023622},{"duration":0.13636349999998743,"midi":42,"time":210.817971,"velocity":0.5905511811023622},{"duration":0.2727270000000033,"midi":36,"time":211.090698,"velocity":0.5905511811023622},{"duration":0.13636349999998743,"midi":49,"time":211.090698,"velocity":0.5905511811023622},{"duration":0.2727270000000033,"midi":35,"time":211.090698,"velocity":0.5905511811023622},{"duration":0.2727270000000033,"midi":35,"time":211.090698,"velocity":0.5905511811023622},{"duration":0.2727270000000033,"midi":40,"time":211.090698,"velocity":0.5905511811023622},{"duration":0.2727270000000033,"midi":40,"time":211.090698,"velocity":0.5905511811023622},{"duration":0.13636349999998743,"midi":42,"time":211.090698,"velocity":0.5905511811023622},{"duration":0.13636349999998743,"midi":38,"time":211.090698,"velocity":0.5905511811023622},{"duration":0.13636349999998743,"midi":42,"time":211.090698,"velocity":0.5905511811023622},{"duration":0.2727270000000033,"midi":36,"time":211.090698,"velocity":0.5905511811023622},{"duration":0.13636349999998743,"midi":38,"time":211.090698,"velocity":0.5905511811023622},{"duration":0.13636349999998743,"midi":42,"time":211.363425,"velocity":0.5905511811023622},{"duration":0.13636349999998743,"midi":42,"time":211.363425,"velocity":0.5905511811023622},{"duration":0.27272699999997485,"midi":36,"time":211.636152,"velocity":0.5905511811023622},{"duration":0.27272699999997485,"midi":35,"time":211.636152,"velocity":0.5905511811023622},{"duration":0.27272699999997485,"midi":40,"time":211.636152,"velocity":0.5905511811023622},{"duration":0.27272699999997485,"midi":38,"time":211.636152,"velocity":0.5905511811023622},{"duration":0.27272699999997485,"midi":35,"time":211.636152,"velocity":0.5905511811023622},{"duration":0.27272699999997485,"midi":36,"time":211.636152,"velocity":0.5905511811023622},{"duration":0.13636349999998743,"midi":42,"time":211.636152,"velocity":0.5905511811023622},{"duration":0.27272699999997485,"midi":40,"time":211.636152,"velocity":0.5905511811023622},{"duration":0.27272699999997485,"midi":38,"time":211.636152,"velocity":0.5905511811023622},{"duration":0.13636349999998743,"midi":42,"time":211.636152,"velocity":0.5905511811023622},{"duration":0.13636350000001585,"midi":42,"time":211.90887899999998,"velocity":0.5905511811023622},{"duration":0.13636350000001585,"midi":42,"time":211.90887899999998,"velocity":0.5905511811023622},{"duration":0.2727270000000033,"midi":40,"time":212.181606,"velocity":0.5905511811023622},{"duration":0.2727270000000033,"midi":36,"time":212.181606,"velocity":0.5905511811023622},{"duration":0.2727270000000033,"midi":35,"time":212.181606,"velocity":0.5905511811023622},{"duration":0.13636350000001585,"midi":49,"time":212.181606,"velocity":0.5905511811023622},{"duration":0.13636350000001585,"midi":42,"time":212.181606,"velocity":0.5905511811023622},{"duration":0.13636350000001585,"midi":42,"time":212.181606,"velocity":0.5905511811023622},{"duration":0.2727270000000033,"midi":38,"time":212.181606,"velocity":0.5905511811023622},{"duration":0.2727270000000033,"midi":36,"time":212.181606,"velocity":0.5905511811023622},{"duration":0.2727270000000033,"midi":40,"time":212.181606,"velocity":0.5905511811023622},{"duration":0.2727270000000033,"midi":35,"time":212.181606,"velocity":0.5905511811023622},{"duration":0.2727270000000033,"midi":38,"time":212.181606,"velocity":0.5905511811023622},{"duration":0.13636350000001585,"midi":42,"time":212.454333,"velocity":0.5905511811023622},{"duration":0.13636350000001585,"midi":42,"time":212.454333,"velocity":0.5905511811023622},{"duration":0.13636350000001585,"midi":42,"time":212.72706,"velocity":0.5905511811023622},{"duration":0.13636350000001585,"midi":42,"time":212.72706,"velocity":0.5905511811023622},{"duration":0.2727270000000033,"midi":40,"time":212.72706,"velocity":0.5905511811023622},{"duration":0.2727270000000033,"midi":35,"time":212.72706,"velocity":0.5905511811023622},{"duration":0.2727270000000033,"midi":36,"time":212.72706,"velocity":0.5905511811023622},{"duration":0.2727270000000033,"midi":40,"time":212.72706,"velocity":0.5905511811023622},{"duration":0.2727270000000033,"midi":36,"time":212.72706,"velocity":0.5905511811023622},{"duration":0.13636350000001585,"midi":49,"time":212.72706,"velocity":0.5905511811023622},{"duration":0.2727270000000033,"midi":38,"time":212.72706,"velocity":0.5905511811023622},{"duration":0.2727270000000033,"midi":38,"time":212.72706,"velocity":0.5905511811023622},{"duration":0.2727270000000033,"midi":35,"time":212.72706,"velocity":0.5905511811023622},{"duration":0.13636349999998743,"midi":42,"time":212.999787,"velocity":0.5905511811023622},{"duration":0.13636349999998743,"midi":42,"time":212.999787,"velocity":0.5905511811023622},{"duration":0.13636349999998743,"midi":38,"time":213.272514,"velocity":0.5905511811023622},{"duration":0.2727270000000033,"midi":35,"time":213.272514,"velocity":0.5905511811023622},{"duration":0.13636349999998743,"midi":38,"time":213.272514,"velocity":0.5905511811023622},{"duration":0.13636349999998743,"midi":42,"time":213.272514,"velocity":0.5905511811023622},{"duration":0.2727270000000033,"midi":36,"time":213.272514,"velocity":0.5905511811023622},{"duration":0.13636349999998743,"midi":49,"time":213.272514,"velocity":0.5905511811023622},{"duration":0.2727270000000033,"midi":40,"time":213.272514,"velocity":0.5905511811023622},{"duration":0.13636349999998743,"midi":42,"time":213.272514,"velocity":0.5905511811023622},{"duration":0.2727270000000033,"midi":36,"time":213.272514,"velocity":0.5905511811023622},{"duration":0.2727270000000033,"midi":40,"time":213.272514,"velocity":0.5905511811023622},{"duration":0.2727270000000033,"midi":35,"time":213.272514,"velocity":0.5905511811023622},{"duration":0.13636349999998743,"midi":42,"time":213.545241,"velocity":0.5905511811023622},{"duration":0.13636349999998743,"midi":42,"time":213.545241,"velocity":0.5905511811023622},{"duration":0.13636349999998743,"midi":42,"time":213.817968,"velocity":0.5905511811023622},{"duration":0.2727270000000033,"midi":40,"time":213.817968,"velocity":0.5905511811023622},{"duration":0.2727270000000033,"midi":38,"time":213.817968,"velocity":0.5905511811023622},{"duration":0.2727270000000033,"midi":36,"time":213.817968,"velocity":0.5905511811023622},{"duration":0.2727270000000033,"midi":36,"time":213.817968,"velocity":0.5905511811023622},{"duration":0.2727270000000033,"midi":35,"time":213.817968,"velocity":0.5905511811023622},{"duration":0.13636349999998743,"midi":42,"time":213.817968,"velocity":0.5905511811023622},{"duration":0.2727270000000033,"midi":38,"time":213.817968,"velocity":0.5905511811023622},{"duration":0.2727270000000033,"midi":40,"time":213.817968,"velocity":0.5905511811023622},{"duration":0.2727270000000033,"midi":35,"time":213.817968,"velocity":0.5905511811023622},{"duration":0.13636349999998743,"midi":42,"time":214.090695,"velocity":0.5905511811023622},{"duration":0.13636349999998743,"midi":42,"time":214.090695,"velocity":0.5905511811023622},{"duration":0.13636350000001585,"midi":42,"time":214.36342199999999,"velocity":0.5905511811023622},{"duration":0.2727270000000033,"midi":36,"time":214.36342199999999,"velocity":0.5905511811023622},{"duration":0.2727270000000033,"midi":36,"time":214.36342199999999,"velocity":0.5905511811023622},{"duration":0.2727270000000033,"midi":38,"time":214.36342199999999,"velocity":0.5905511811023622},{"duration":0.2727270000000033,"midi":40,"time":214.36342199999999,"velocity":0.5905511811023622},{"duration":0.2727270000000033,"midi":40,"time":214.36342199999999,"velocity":0.5905511811023622},{"duration":0.2727270000000033,"midi":35,"time":214.36342199999999,"velocity":0.5905511811023622},{"duration":0.2727270000000033,"midi":35,"time":214.36342199999999,"velocity":0.5905511811023622},{"duration":0.13636350000001585,"midi":42,"time":214.36342199999999,"velocity":0.5905511811023622},{"duration":0.13636350000001585,"midi":49,"time":214.36342199999999,"velocity":0.5905511811023622},{"duration":0.2727270000000033,"midi":38,"time":214.36342199999999,"velocity":0.5905511811023622},{"duration":0.13636350000001585,"midi":42,"time":214.636149,"velocity":0.5905511811023622},{"duration":0.13636350000001585,"midi":42,"time":214.636149,"velocity":0.5905511811023622},{"duration":0.2727270000000033,"midi":36,"time":214.908876,"velocity":0.5905511811023622},{"duration":0.13636350000001585,"midi":42,"time":214.908876,"velocity":0.5905511811023622},{"duration":0.13636350000001585,"midi":42,"time":214.908876,"velocity":0.5905511811023622},{"duration":0.2727270000000033,"midi":38,"time":214.908876,"velocity":0.5905511811023622},{"duration":0.2727270000000033,"midi":38,"time":214.908876,"velocity":0.5905511811023622},{"duration":0.2727270000000033,"midi":40,"time":214.908876,"velocity":0.5905511811023622},{"duration":0.2727270000000033,"midi":36,"time":214.908876,"velocity":0.5905511811023622},{"duration":0.2727270000000033,"midi":35,"time":214.908876,"velocity":0.5905511811023622},{"duration":0.2727270000000033,"midi":35,"time":214.908876,"velocity":0.5905511811023622},{"duration":0.13636350000001585,"midi":49,"time":214.908876,"velocity":0.5905511811023622},{"duration":0.2727270000000033,"midi":40,"time":214.908876,"velocity":0.5905511811023622},{"duration":0.13636350000001585,"midi":42,"time":215.181603,"velocity":0.5905511811023622},{"duration":0.13636350000001585,"midi":42,"time":215.181603,"velocity":0.5905511811023622},{"duration":0.13636349999998743,"midi":38,"time":215.45433,"velocity":0.5905511811023622},{"duration":0.2727270000000033,"midi":40,"time":215.45433,"velocity":0.5905511811023622},{"duration":0.2727270000000033,"midi":35,"time":215.45433,"velocity":0.5905511811023622},{"duration":0.2727270000000033,"midi":40,"time":215.45433,"velocity":0.5905511811023622},{"duration":0.2727270000000033,"midi":35,"time":215.45433,"velocity":0.5905511811023622},{"duration":0.2727270000000033,"midi":36,"time":215.45433,"velocity":0.5905511811023622},{"duration":0.2727270000000033,"midi":36,"time":215.45433,"velocity":0.5905511811023622},{"duration":0.13636349999998743,"midi":42,"time":215.45433,"velocity":0.5905511811023622},{"duration":0.13636349999998743,"midi":49,"time":215.45433,"velocity":0.5905511811023622},{"duration":0.13636349999998743,"midi":38,"time":215.45433,"velocity":0.5905511811023622},{"duration":0.13636349999998743,"midi":42,"time":215.45433,"velocity":0.5905511811023622},{"duration":0.13636349999998743,"midi":42,"time":215.727057,"velocity":0.5905511811023622},{"duration":0.13636349999998743,"midi":42,"time":215.727057,"velocity":0.5905511811023622},{"duration":0.2727270000000033,"midi":40,"time":215.999784,"velocity":0.5905511811023622},{"duration":0.2727270000000033,"midi":35,"time":215.999784,"velocity":0.5905511811023622},{"duration":0.13636349999998743,"midi":42,"time":215.999784,"velocity":0.5905511811023622},{"duration":0.2727270000000033,"midi":38,"time":215.999784,"velocity":0.5905511811023622},{"duration":0.2727270000000033,"midi":36,"time":215.999784,"velocity":0.5905511811023622},{"duration":0.13636349999998743,"midi":42,"time":215.999784,"velocity":0.5905511811023622},{"duration":0.2727270000000033,"midi":38,"time":215.999784,"velocity":0.5905511811023622},{"duration":0.2727270000000033,"midi":40,"time":215.999784,"velocity":0.5905511811023622},{"duration":0.2727270000000033,"midi":35,"time":215.999784,"velocity":0.5905511811023622},{"duration":0.2727270000000033,"midi":36,"time":215.999784,"velocity":0.5905511811023622},{"duration":0.13636349999998743,"midi":42,"time":216.272511,"velocity":0.5905511811023622},{"duration":0.13636349999998743,"midi":42,"time":216.272511,"velocity":0.5905511811023622},{"duration":0.13636349999998743,"midi":42,"time":216.545238,"velocity":0.5905511811023622},{"duration":0.27272699999997485,"midi":38,"time":216.545238,"velocity":0.5905511811023622},{"duration":0.27272699999997485,"midi":38,"time":216.545238,"velocity":0.5905511811023622},{"duration":0.27272699999997485,"midi":40,"time":216.545238,"velocity":0.5905511811023622},{"duration":0.27272699999997485,"midi":36,"time":216.545238,"velocity":0.5905511811023622},{"duration":0.27272699999997485,"midi":35,"time":216.545238,"velocity":0.5905511811023622},{"duration":0.13636349999998743,"midi":42,"time":216.545238,"velocity":0.5905511811023622},{"duration":0.27272699999997485,"midi":36,"time":216.545238,"velocity":0.5905511811023622},{"duration":0.13636349999998743,"midi":49,"time":216.545238,"velocity":0.5905511811023622},{"duration":0.27272699999997485,"midi":35,"time":216.545238,"velocity":0.5905511811023622},{"duration":0.27272699999997485,"midi":40,"time":216.545238,"velocity":0.5905511811023622},{"duration":0.13636350000001585,"midi":42,"time":216.817965,"velocity":0.5905511811023622},{"duration":0.13636350000001585,"midi":42,"time":216.817965,"velocity":0.5905511811023622},{"duration":0.13636350000001585,"midi":49,"time":217.090692,"velocity":0.5905511811023622},{"duration":0.2727270000000033,"midi":40,"time":217.090692,"velocity":0.5905511811023622},{"duration":0.2727270000000033,"midi":38,"time":217.090692,"velocity":0.5905511811023622},{"duration":0.2727270000000033,"midi":35,"time":217.090692,"velocity":0.5905511811023622},{"duration":0.2727270000000033,"midi":36,"time":217.090692,"velocity":0.5905511811023622},{"duration":0.2727270000000033,"midi":35,"time":217.090692,"velocity":0.5905511811023622},{"duration":0.13636350000001585,"midi":42,"time":217.090692,"velocity":0.5905511811023622},{"duration":0.2727270000000033,"midi":38,"time":217.090692,"velocity":0.5905511811023622},{"duration":0.2727270000000033,"midi":36,"time":217.090692,"velocity":0.5905511811023622},{"duration":0.13636350000001585,"midi":42,"time":217.090692,"velocity":0.5905511811023622},{"duration":0.2727270000000033,"midi":40,"time":217.090692,"velocity":0.5905511811023622},{"duration":0.13636350000001585,"midi":42,"time":217.363419,"velocity":0.5905511811023622},{"duration":0.13636350000001585,"midi":42,"time":217.363419,"velocity":0.5905511811023622},{"duration":0.2727270000000033,"midi":40,"time":217.636146,"velocity":0.5905511811023622},{"duration":0.2727270000000033,"midi":35,"time":217.636146,"velocity":0.5905511811023622},{"duration":0.13636349999998743,"midi":38,"time":217.636146,"velocity":0.5905511811023622},{"duration":0.2727270000000033,"midi":36,"time":217.636146,"velocity":0.5905511811023622},{"duration":0.2727270000000033,"midi":36,"time":217.636146,"velocity":0.5905511811023622},{"duration":0.2727270000000033,"midi":40,"time":217.636146,"velocity":0.5905511811023622},{"duration":0.13636349999998743,"midi":49,"time":217.636146,"velocity":0.5905511811023622},{"duration":0.13636349999998743,"midi":42,"time":217.636146,"velocity":0.5905511811023622},{"duration":0.13636349999998743,"midi":38,"time":217.636146,"velocity":0.5905511811023622},{"duration":0.13636349999998743,"midi":42,"time":217.636146,"velocity":0.5905511811023622},{"duration":0.2727270000000033,"midi":35,"time":217.636146,"velocity":0.5905511811023622},{"duration":0.13636349999998743,"midi":42,"time":217.908873,"velocity":0.5905511811023622},{"duration":0.13636349999998743,"midi":42,"time":217.908873,"velocity":0.5905511811023622},{"duration":0.13636350000001585,"midi":38,"time":218.0452365,"velocity":0.5905511811023622},{"duration":0.13636350000001585,"midi":38,"time":218.0452365,"velocity":0.5905511811023622},{"duration":0.13636349999998743,"midi":42,"time":218.1816,"velocity":0.5905511811023622},{"duration":0.13636349999998743,"midi":42,"time":218.1816,"velocity":0.5905511811023622},{"duration":0.2727270000000033,"midi":38,"time":218.1816,"velocity":0.5905511811023622},{"duration":0.2727270000000033,"midi":36,"time":218.1816,"velocity":0.5905511811023622},{"duration":0.2727270000000033,"midi":38,"time":218.1816,"velocity":0.5905511811023622},{"duration":0.2727270000000033,"midi":35,"time":218.1816,"velocity":0.5905511811023622},{"duration":0.2727270000000033,"midi":40,"time":218.1816,"velocity":0.5905511811023622},{"duration":0.2727270000000033,"midi":36,"time":218.1816,"velocity":0.5905511811023622},{"duration":0.2727270000000033,"midi":35,"time":218.1816,"velocity":0.5905511811023622},{"duration":0.2727270000000033,"midi":40,"time":218.1816,"velocity":0.5905511811023622},{"duration":0.13636349999998743,"midi":42,"time":218.454327,"velocity":0.5905511811023622},{"duration":0.13636349999998743,"midi":42,"time":218.454327,"velocity":0.5905511811023622},{"duration":0.27272699999997485,"midi":40,"time":218.727054,"velocity":0.5905511811023622},{"duration":0.27272699999997485,"midi":35,"time":218.727054,"velocity":0.5905511811023622},{"duration":0.27272699999997485,"midi":40,"time":218.727054,"velocity":0.5905511811023622},{"duration":0.27272699999997485,"midi":35,"time":218.727054,"velocity":0.5905511811023622},{"duration":0.13636349999998743,"midi":42,"time":218.727054,"velocity":0.5905511811023622},{"duration":0.27272699999997485,"midi":36,"time":218.727054,"velocity":0.5905511811023622},{"duration":0.27272699999997485,"midi":38,"time":218.727054,"velocity":0.5905511811023622},{"duration":0.13636349999998743,"midi":49,"time":218.727054,"velocity":0.5905511811023622},{"duration":0.27272699999997485,"midi":36,"time":218.727054,"velocity":0.5905511811023622},{"duration":0.13636349999998743,"midi":42,"time":218.727054,"velocity":0.5905511811023622},{"duration":0.27272699999997485,"midi":38,"time":218.727054,"velocity":0.5905511811023622},{"duration":0.13636350000001585,"midi":42,"time":218.99978099999998,"velocity":0.5905511811023622},{"duration":0.13636350000001585,"midi":42,"time":218.99978099999998,"velocity":0.5905511811023622},{"duration":0.13636350000001585,"midi":42,"time":219.272508,"velocity":0.5905511811023622},{"duration":0.2727270000000033,"midi":38,"time":219.272508,"velocity":0.5905511811023622},{"duration":0.2727270000000033,"midi":40,"time":219.272508,"velocity":0.5905511811023622},{"duration":0.2727270000000033,"midi":35,"time":219.272508,"velocity":0.5905511811023622},{"duration":0.2727270000000033,"midi":40,"time":219.272508,"velocity":0.5905511811023622},{"duration":0.13636350000001585,"midi":42,"time":219.272508,"velocity":0.5905511811023622},{"duration":0.2727270000000033,"midi":35,"time":219.272508,"velocity":0.5905511811023622},{"duration":0.13636350000001585,"midi":49,"time":219.272508,"velocity":0.5905511811023622},{"duration":0.2727270000000033,"midi":36,"time":219.272508,"velocity":0.5905511811023622},{"duration":0.2727270000000033,"midi":38,"time":219.272508,"velocity":0.5905511811023622},{"duration":0.2727270000000033,"midi":36,"time":219.272508,"velocity":0.5905511811023622},{"duration":0.13636350000001585,"midi":42,"time":219.545235,"velocity":0.5905511811023622},{"duration":0.13636350000001585,"midi":42,"time":219.545235,"velocity":0.5905511811023622},{"duration":0.13636350000001585,"midi":38,"time":219.817962,"velocity":0.5905511811023622},{"duration":0.2727270000000033,"midi":40,"time":219.817962,"velocity":0.5905511811023622},{"duration":0.2727270000000033,"midi":36,"time":219.817962,"velocity":0.5905511811023622},{"duration":0.2727270000000033,"midi":36,"time":219.817962,"velocity":0.5905511811023622},{"duration":0.13636350000001585,"midi":49,"time":219.817962,"velocity":0.5905511811023622},{"duration":0.13636350000001585,"midi":38,"time":219.817962,"velocity":0.5905511811023622},{"duration":0.13636350000001585,"midi":42,"time":219.817962,"velocity":0.5905511811023622},{"duration":0.2727270000000033,"midi":35,"time":219.817962,"velocity":0.5905511811023622},{"duration":0.2727270000000033,"midi":40,"time":219.817962,"velocity":0.5905511811023622},{"duration":0.13636350000001585,"midi":42,"time":219.817962,"velocity":0.5905511811023622},{"duration":0.2727270000000033,"midi":35,"time":219.817962,"velocity":0.5905511811023622},{"duration":0.13636349999998743,"midi":42,"time":220.090689,"velocity":0.5905511811023622},{"duration":0.13636349999998743,"midi":42,"time":220.090689,"velocity":0.5905511811023622},{"duration":0.2727270000000033,"midi":36,"time":220.363416,"velocity":0.5905511811023622},{"duration":0.2727270000000033,"midi":35,"time":220.363416,"velocity":0.5905511811023622},{"duration":0.2727270000000033,"midi":36,"time":220.363416,"velocity":0.5905511811023622},{"duration":0.13636349999998743,"midi":42,"time":220.363416,"velocity":0.5905511811023622},{"duration":0.2727270000000033,"midi":40,"time":220.363416,"velocity":0.5905511811023622},{"duration":0.2727270000000033,"midi":38,"time":220.363416,"velocity":0.5905511811023622},{"duration":0.13636349999998743,"midi":42,"time":220.363416,"velocity":0.5905511811023622},{"duration":0.2727270000000033,"midi":38,"time":220.363416,"velocity":0.5905511811023622},{"duration":0.2727270000000033,"midi":40,"time":220.363416,"velocity":0.5905511811023622},{"duration":0.2727270000000033,"midi":35,"time":220.363416,"velocity":0.5905511811023622},{"duration":0.13636349999998743,"midi":42,"time":220.636143,"velocity":0.5905511811023622},{"duration":0.13636349999998743,"midi":42,"time":220.636143,"velocity":0.5905511811023622},{"duration":0.13636349999998743,"midi":42,"time":220.90887,"velocity":0.5905511811023622},{"duration":0.13636349999998743,"midi":42,"time":220.90887,"velocity":0.5905511811023622},{"duration":0.2727270000000033,"midi":40,"time":220.90887,"velocity":0.5905511811023622},{"duration":0.2727270000000033,"midi":38,"time":220.90887,"velocity":0.5905511811023622},{"duration":0.2727270000000033,"midi":36,"time":220.90887,"velocity":0.5905511811023622},{"duration":0.2727270000000033,"midi":36,"time":220.90887,"velocity":0.5905511811023622},{"duration":0.13636349999998743,"midi":49,"time":220.90887,"velocity":0.5905511811023622},{"duration":0.2727270000000033,"midi":35,"time":220.90887,"velocity":0.5905511811023622},{"duration":0.2727270000000033,"midi":40,"time":220.90887,"velocity":0.5905511811023622},{"duration":0.2727270000000033,"midi":35,"time":220.90887,"velocity":0.5905511811023622},{"duration":0.2727270000000033,"midi":38,"time":220.90887,"velocity":0.5905511811023622},{"duration":0.13636349999998743,"midi":42,"time":221.181597,"velocity":0.5905511811023622},{"duration":0.13636349999998743,"midi":42,"time":221.181597,"velocity":0.5905511811023622},{"duration":0.13636350000001585,"midi":42,"time":221.45432399999999,"velocity":0.5905511811023622},{"duration":0.2727270000000033,"midi":38,"time":221.45432399999999,"velocity":0.5905511811023622},{"duration":0.2727270000000033,"midi":35,"time":221.45432399999999,"velocity":0.5905511811023622},{"duration":0.2727270000000033,"midi":40,"time":221.45432399999999,"velocity":0.5905511811023622},{"duration":0.2727270000000033,"midi":38,"time":221.45432399999999,"velocity":0.5905511811023622},{"duration":0.2727270000000033,"midi":36,"time":221.45432399999999,"velocity":0.5905511811023622},{"duration":0.2727270000000033,"midi":36,"time":221.45432399999999,"velocity":0.5905511811023622},{"duration":0.2727270000000033,"midi":35,"time":221.45432399999999,"velocity":0.5905511811023622},{"duration":0.13636350000001585,"midi":42,"time":221.45432399999999,"velocity":0.5905511811023622},{"duration":0.13636350000001585,"midi":49,"time":221.45432399999999,"velocity":0.5905511811023622},{"duration":0.2727270000000033,"midi":40,"time":221.45432399999999,"velocity":0.5905511811023622},{"duration":0.13636350000001585,"midi":42,"time":221.727051,"velocity":0.5905511811023622},{"duration":0.13636350000001585,"midi":42,"time":221.727051,"velocity":0.5905511811023622},{"duration":0.2727270000000033,"midi":36,"time":221.999778,"velocity":0.5905511811023622},{"duration":0.2727270000000033,"midi":35,"time":221.999778,"velocity":0.5905511811023622},{"duration":0.2727270000000033,"midi":40,"time":221.999778,"velocity":0.5905511811023622},{"duration":0.13636350000001585,"midi":42,"time":221.999778,"velocity":0.5905511811023622},{"duration":0.13636350000001585,"midi":38,"time":221.999778,"velocity":0.5905511811023622},{"duration":0.13636350000001585,"midi":49,"time":221.999778,"velocity":0.5905511811023622},{"duration":0.2727270000000033,"midi":36,"time":221.999778,"velocity":0.5905511811023622},{"duration":0.2727270000000033,"midi":40,"time":221.999778,"velocity":0.5905511811023622},{"duration":0.2727270000000033,"midi":35,"time":221.999778,"velocity":0.5905511811023622},{"duration":0.13636350000001585,"midi":38,"time":221.999778,"velocity":0.5905511811023622},{"duration":0.13636350000001585,"midi":42,"time":221.999778,"velocity":0.5905511811023622},{"duration":0.13636350000001585,"midi":42,"time":222.272505,"velocity":0.5905511811023622},{"duration":0.13636350000001585,"midi":42,"time":222.272505,"velocity":0.5905511811023622},{"duration":0.2727270000000033,"midi":36,"time":222.545232,"velocity":0.5905511811023622},{"duration":0.2727270000000033,"midi":38,"time":222.545232,"velocity":0.5905511811023622},{"duration":0.2727270000000033,"midi":38,"time":222.545232,"velocity":0.5905511811023622},{"duration":0.2727270000000033,"midi":35,"time":222.545232,"velocity":0.5905511811023622},{"duration":0.2727270000000033,"midi":40,"time":222.545232,"velocity":0.5905511811023622},{"duration":0.13636349999998743,"midi":42,"time":222.545232,"velocity":0.5905511811023622},{"duration":0.2727270000000033,"midi":35,"time":222.545232,"velocity":0.5905511811023622},{"duration":0.13636349999998743,"midi":42,"time":222.545232,"velocity":0.5905511811023622},{"duration":0.2727270000000033,"midi":40,"time":222.545232,"velocity":0.5905511811023622},{"duration":0.2727270000000033,"midi":36,"time":222.545232,"velocity":0.5905511811023622},{"duration":0.13636349999998743,"midi":42,"time":222.817959,"velocity":0.5905511811023622},{"duration":0.13636349999998743,"midi":42,"time":222.817959,"velocity":0.5905511811023622},{"duration":0.13636349999998743,"midi":49,"time":223.090686,"velocity":0.5905511811023622},{"duration":0.2727270000000033,"midi":40,"time":223.090686,"velocity":0.5905511811023622},{"duration":0.2727270000000033,"midi":38,"time":223.090686,"velocity":0.5905511811023622},{"duration":0.2727270000000033,"midi":36,"time":223.090686,"velocity":0.5905511811023622},{"duration":0.13636349999998743,"midi":42,"time":223.090686,"velocity":0.5905511811023622},{"duration":0.2727270000000033,"midi":38,"time":223.090686,"velocity":0.5905511811023622},{"duration":0.13636349999998743,"midi":42,"time":223.090686,"velocity":0.5905511811023622},{"duration":0.2727270000000033,"midi":36,"time":223.090686,"velocity":0.5905511811023622},{"duration":0.2727270000000033,"midi":40,"time":223.090686,"velocity":0.5905511811023622},{"duration":0.2727270000000033,"midi":35,"time":223.090686,"velocity":0.5905511811023622},{"duration":0.2727270000000033,"midi":35,"time":223.090686,"velocity":0.5905511811023622},{"duration":0.13636349999998743,"midi":42,"time":223.363413,"velocity":0.5905511811023622},{"duration":0.13636349999998743,"midi":42,"time":223.363413,"velocity":0.5905511811023622},{"duration":0.27272699999997485,"midi":36,"time":223.63614,"velocity":0.5905511811023622},{"duration":0.13636349999998743,"midi":49,"time":223.63614,"velocity":0.5905511811023622},{"duration":0.27272699999997485,"midi":40,"time":223.63614,"velocity":0.5905511811023622},{"duration":0.27272699999997485,"midi":38,"time":223.63614,"velocity":0.5905511811023622},{"duration":0.27272699999997485,"midi":35,"time":223.63614,"velocity":0.5905511811023622},{"duration":0.13636349999998743,"midi":42,"time":223.63614,"velocity":0.5905511811023622},{"duration":0.27272699999997485,"midi":38,"time":223.63614,"velocity":0.5905511811023622},{"duration":0.13636349999998743,"midi":42,"time":223.63614,"velocity":0.5905511811023622},{"duration":0.27272699999997485,"midi":35,"time":223.63614,"velocity":0.5905511811023622},{"duration":0.27272699999997485,"midi":36,"time":223.63614,"velocity":0.5905511811023622},{"duration":0.27272699999997485,"midi":40,"time":223.63614,"velocity":0.5905511811023622},{"duration":0.13636350000001585,"midi":42,"time":223.908867,"velocity":0.5905511811023622},{"duration":0.13636350000001585,"midi":42,"time":223.908867,"velocity":0.5905511811023622},{"duration":0.13636350000001585,"midi":42,"time":224.181594,"velocity":0.5905511811023622},{"duration":0.2727270000000033,"midi":40,"time":224.181594,"velocity":0.5905511811023622},{"duration":0.13636350000001585,"midi":42,"time":224.181594,"velocity":0.5905511811023622},{"duration":0.2727270000000033,"midi":40,"time":224.181594,"velocity":0.5905511811023622},{"duration":0.2727270000000033,"midi":36,"time":224.181594,"velocity":0.5905511811023622},{"duration":0.13636350000001585,"midi":38,"time":224.181594,"velocity":0.5905511811023622},{"duration":0.2727270000000033,"midi":36,"time":224.181594,"velocity":0.5905511811023622},{"duration":0.13636350000001585,"midi":38,"time":224.181594,"velocity":0.5905511811023622},{"duration":0.13636350000001585,"midi":49,"time":224.181594,"velocity":0.5905511811023622},{"duration":0.2727270000000033,"midi":35,"time":224.181594,"velocity":0.5905511811023622},{"duration":0.2727270000000033,"midi":35,"time":224.181594,"velocity":0.5905511811023622},{"duration":0.13636350000001585,"midi":42,"time":224.454321,"velocity":0.5905511811023622},{"duration":0.13636350000001585,"midi":42,"time":224.454321,"velocity":0.5905511811023622},{"duration":0.2727270000000033,"midi":40,"time":224.727048,"velocity":0.5905511811023622},{"duration":0.2727270000000033,"midi":35,"time":224.727048,"velocity":0.5905511811023622},{"duration":0.13636349999998743,"midi":42,"time":224.727048,"velocity":0.5905511811023622},{"duration":0.2727270000000033,"midi":40,"time":224.727048,"velocity":0.5905511811023622},{"duration":0.13636349999998743,"midi":42,"time":224.727048,"velocity":0.5905511811023622},{"duration":0.2727270000000033,"midi":35,"time":224.727048,"velocity":0.5905511811023622},{"duration":0.2727270000000033,"midi":38,"time":224.727048,"velocity":0.5905511811023622},{"duration":0.2727270000000033,"midi":38,"time":224.727048,"velocity":0.5905511811023622},{"duration":0.2727270000000033,"midi":36,"time":224.727048,"velocity":0.5905511811023622},{"duration":0.2727270000000033,"midi":36,"time":224.727048,"velocity":0.5905511811023622},{"duration":0.13636349999998743,"midi":42,"time":224.999775,"velocity":0.5905511811023622},{"duration":0.13636349999998743,"midi":42,"time":224.999775,"velocity":0.5905511811023622},{"duration":0.2727270000000033,"midi":38,"time":225.272502,"velocity":0.5905511811023622},{"duration":0.2727270000000033,"midi":35,"time":225.272502,"velocity":0.5905511811023622},{"duration":0.2727270000000033,"midi":40,"time":225.272502,"velocity":0.5905511811023622},{"duration":0.2727270000000033,"midi":40,"time":225.272502,"velocity":0.5905511811023622},{"duration":0.2727270000000033,"midi":38,"time":225.272502,"velocity":0.5905511811023622},{"duration":0.2727270000000033,"midi":35,"time":225.272502,"velocity":0.5905511811023622},{"duration":0.13636349999998743,"midi":49,"time":225.272502,"velocity":0.5905511811023622},{"duration":0.13636349999998743,"midi":42,"time":225.272502,"velocity":0.5905511811023622},{"duration":0.2727270000000033,"midi":36,"time":225.272502,"velocity":0.5905511811023622},{"duration":0.2727270000000033,"midi":36,"time":225.272502,"velocity":0.5905511811023622},{"duration":0.13636349999998743,"midi":42,"time":225.272502,"velocity":0.5905511811023622},{"duration":0.13636349999998743,"midi":42,"time":225.545229,"velocity":0.5905511811023622},{"duration":0.13636349999998743,"midi":42,"time":225.545229,"velocity":0.5905511811023622},{"duration":0.27272699999997485,"midi":36,"time":225.817956,"velocity":0.5905511811023622},{"duration":0.27272699999997485,"midi":38,"time":225.817956,"velocity":0.5905511811023622},{"duration":0.27272699999997485,"midi":38,"time":225.817956,"velocity":0.5905511811023622},{"duration":0.27272699999997485,"midi":35,"time":225.817956,"velocity":0.5905511811023622},{"duration":0.27272699999997485,"midi":35,"time":225.817956,"velocity":0.5905511811023622},{"duration":0.13636349999998743,"midi":49,"time":225.817956,"velocity":0.5905511811023622},{"duration":0.27272699999997485,"midi":36,"time":225.817956,"velocity":0.5905511811023622},{"duration":0.2727270000000033,"midi":36,"time":226.36341,"velocity":0.5905511811023622},{"duration":0.2727270000000033,"midi":38,"time":226.36341,"velocity":0.5905511811023622},{"duration":0.2727270000000033,"midi":38,"time":226.36341,"velocity":0.5905511811023622},{"duration":0.2727270000000033,"midi":35,"time":226.36341,"velocity":0.5905511811023622},{"duration":0.13636350000001585,"midi":49,"time":226.36341,"velocity":0.5905511811023622},{"duration":0.2727270000000033,"midi":36,"time":226.36341,"velocity":0.5905511811023622},{"duration":0.2727270000000033,"midi":35,"time":226.36341,"velocity":0.5905511811023622},{"duration":0.13636350000001585,"midi":49,"time":226.636137,"velocity":0.5905511811023622},{"duration":0.2727270000000033,"midi":35,"time":226.908864,"velocity":0.5905511811023622},{"duration":0.2727270000000033,"midi":36,"time":226.908864,"velocity":0.5905511811023622},{"duration":0.2727270000000033,"midi":36,"time":226.908864,"velocity":0.5905511811023622},{"duration":0.2727270000000033,"midi":40,"time":226.908864,"velocity":0.5905511811023622},{"duration":0.2727270000000033,"midi":40,"time":226.908864,"velocity":0.5905511811023622},{"duration":0.13636350000001585,"midi":42,"time":226.908864,"velocity":0.5905511811023622},{"duration":0.2727270000000033,"midi":38,"time":226.908864,"velocity":0.5905511811023622},{"duration":0.2727270000000033,"midi":35,"time":226.908864,"velocity":0.5905511811023622},{"duration":0.2727270000000033,"midi":38,"time":226.908864,"velocity":0.5905511811023622},{"duration":0.13636350000001585,"midi":42,"time":226.908864,"velocity":0.5905511811023622},{"duration":0.13636349999998743,"midi":42,"time":227.181591,"velocity":0.5905511811023622},{"duration":0.13636349999998743,"midi":42,"time":227.181591,"velocity":0.5905511811023622},{"duration":0.13636349999998743,"midi":42,"time":227.454318,"velocity":0.5905511811023622},{"duration":0.13636349999998743,"midi":49,"time":227.454318,"velocity":0.5905511811023622},{"duration":0.2727270000000033,"midi":35,"time":227.454318,"velocity":0.5905511811023622},{"duration":0.2727270000000033,"midi":36,"time":227.454318,"velocity":0.5905511811023622},{"duration":0.2727270000000033,"midi":38,"time":227.454318,"velocity":0.5905511811023622},{"duration":0.13636349999998743,"midi":42,"time":227.454318,"velocity":0.5905511811023622},{"duration":0.2727270000000033,"midi":40,"time":227.454318,"velocity":0.5905511811023622},{"duration":0.2727270000000033,"midi":38,"time":227.454318,"velocity":0.5905511811023622},{"duration":0.2727270000000033,"midi":40,"time":227.454318,"velocity":0.5905511811023622},{"duration":0.2727270000000033,"midi":35,"time":227.454318,"velocity":0.5905511811023622},{"duration":0.2727270000000033,"midi":36,"time":227.454318,"velocity":0.5905511811023622},{"duration":0.13636349999998743,"midi":42,"time":227.727045,"velocity":0.5905511811023622},{"duration":0.13636349999998743,"midi":42,"time":227.727045,"velocity":0.5905511811023622},{"duration":0.13636349999998743,"midi":42,"time":227.999772,"velocity":0.5905511811023622},{"duration":0.2727270000000033,"midi":36,"time":227.999772,"velocity":0.5905511811023622},{"duration":0.2727270000000033,"midi":36,"time":227.999772,"velocity":0.5905511811023622},{"duration":0.2727270000000033,"midi":40,"time":227.999772,"velocity":0.5905511811023622},{"duration":0.2727270000000033,"midi":38,"time":227.999772,"velocity":0.5905511811023622},{"duration":0.2727270000000033,"midi":35,"time":227.999772,"velocity":0.5905511811023622},{"duration":0.13636349999998743,"midi":49,"time":227.999772,"velocity":0.5905511811023622},{"duration":0.2727270000000033,"midi":40,"time":227.999772,"velocity":0.5905511811023622},{"duration":0.2727270000000033,"midi":35,"time":227.999772,"velocity":0.5905511811023622},{"duration":0.13636349999998743,"midi":42,"time":227.999772,"velocity":0.5905511811023622},{"duration":0.2727270000000033,"midi":38,"time":227.999772,"velocity":0.5905511811023622},{"duration":0.13636349999998743,"midi":42,"time":228.272499,"velocity":0.5905511811023622},{"duration":0.13636349999998743,"midi":42,"time":228.272499,"velocity":0.5905511811023622},{"duration":0.2727270000000033,"midi":40,"time":228.54522599999999,"velocity":0.5905511811023622},{"duration":0.13636350000001585,"midi":49,"time":228.54522599999999,"velocity":0.5905511811023622},{"duration":0.2727270000000033,"midi":36,"time":228.54522599999999,"velocity":0.5905511811023622},{"duration":0.2727270000000033,"midi":40,"time":228.54522599999999,"velocity":0.5905511811023622},{"duration":0.13636350000001585,"midi":42,"time":228.54522599999999,"velocity":0.5905511811023622},{"duration":0.13636350000001585,"midi":38,"time":228.54522599999999,"velocity":0.5905511811023622},{"duration":0.2727270000000033,"midi":36,"time":228.54522599999999,"velocity":0.5905511811023622},{"duration":0.13636350000001585,"midi":38,"time":228.54522599999999,"velocity":0.5905511811023622},{"duration":0.13636350000001585,"midi":42,"time":228.54522599999999,"velocity":0.5905511811023622},{"duration":0.2727270000000033,"midi":35,"time":228.54522599999999,"velocity":0.5905511811023622},{"duration":0.2727270000000033,"midi":35,"time":228.54522599999999,"velocity":0.5905511811023622},{"duration":0.13636350000001585,"midi":42,"time":228.817953,"velocity":0.5905511811023622},{"duration":0.13636350000001585,"midi":42,"time":228.817953,"velocity":0.5905511811023622},{"duration":0.2727270000000033,"midi":35,"time":229.09068,"velocity":0.5905511811023622},{"duration":0.13636350000001585,"midi":42,"time":229.09068,"velocity":0.5905511811023622},{"duration":0.2727270000000033,"midi":38,"time":229.09068,"velocity":0.5905511811023622},{"duration":0.13636350000001585,"midi":42,"time":229.09068,"velocity":0.5905511811023622},{"duration":0.2727270000000033,"midi":40,"time":229.09068,"velocity":0.5905511811023622},{"duration":0.2727270000000033,"midi":38,"time":229.09068,"velocity":0.5905511811023622},{"duration":0.2727270000000033,"midi":40,"time":229.09068,"velocity":0.5905511811023622},{"duration":0.2727270000000033,"midi":35,"time":229.09068,"velocity":0.5905511811023622},{"duration":0.2727270000000033,"midi":36,"time":229.09068,"velocity":0.5905511811023622},{"duration":0.2727270000000033,"midi":36,"time":229.09068,"velocity":0.5905511811023622},{"duration":0.13636350000001585,"midi":42,"time":229.363407,"velocity":0.5905511811023622},{"duration":0.13636350000001585,"midi":42,"time":229.363407,"velocity":0.5905511811023622},{"duration":0.2727270000000033,"midi":40,"time":229.636134,"velocity":0.5905511811023622},{"duration":0.2727270000000033,"midi":35,"time":229.636134,"velocity":0.5905511811023622},{"duration":0.13636349999998743,"midi":42,"time":229.636134,"velocity":0.5905511811023622},{"duration":0.2727270000000033,"midi":35,"time":229.636134,"velocity":0.5905511811023622},{"duration":0.2727270000000033,"midi":36,"time":229.636134,"velocity":0.5905511811023622},{"duration":0.2727270000000033,"midi":38,"time":229.636134,"velocity":0.5905511811023622},{"duration":0.2727270000000033,"midi":36,"time":229.636134,"velocity":0.5905511811023622},{"duration":0.13636349999998743,"midi":49,"time":229.636134,"velocity":0.5905511811023622},{"duration":0.13636349999998743,"midi":42,"time":229.636134,"velocity":0.5905511811023622},{"duration":0.2727270000000033,"midi":38,"time":229.636134,"velocity":0.5905511811023622},{"duration":0.2727270000000033,"midi":40,"time":229.636134,"velocity":0.5905511811023622},{"duration":0.13636349999998743,"midi":42,"time":229.908861,"velocity":0.5905511811023622},{"duration":0.13636349999998743,"midi":42,"time":229.908861,"velocity":0.5905511811023622},{"duration":0.13636349999998743,"midi":49,"time":230.181588,"velocity":0.5905511811023622},{"duration":0.2727270000000033,"midi":38,"time":230.181588,"velocity":0.5905511811023622},{"duration":0.2727270000000033,"midi":36,"time":230.181588,"velocity":0.5905511811023622},{"duration":0.2727270000000033,"midi":36,"time":230.181588,"velocity":0.5905511811023622},{"duration":0.2727270000000033,"midi":35,"time":230.181588,"velocity":0.5905511811023622},{"duration":0.13636349999998743,"midi":42,"time":230.181588,"velocity":0.5905511811023622},{"duration":0.2727270000000033,"midi":40,"time":230.181588,"velocity":0.5905511811023622},{"duration":0.13636349999998743,"midi":42,"time":230.181588,"velocity":0.5905511811023622},{"duration":0.2727270000000033,"midi":40,"time":230.181588,"velocity":0.5905511811023622},{"duration":0.2727270000000033,"midi":38,"time":230.181588,"velocity":0.5905511811023622},{"duration":0.2727270000000033,"midi":35,"time":230.181588,"velocity":0.5905511811023622},{"duration":0.13636349999998743,"midi":42,"time":230.454315,"velocity":0.5905511811023622},{"duration":0.13636349999998743,"midi":42,"time":230.454315,"velocity":0.5905511811023622},{"duration":0.13636349999998743,"midi":38,"time":230.727042,"velocity":0.5905511811023622},{"duration":0.13636349999998743,"midi":38,"time":230.727042,"velocity":0.5905511811023622},{"duration":0.27272699999997485,"midi":36,"time":230.727042,"velocity":0.5905511811023622},{"duration":0.27272699999997485,"midi":40,"time":230.727042,"velocity":0.5905511811023622},{"duration":0.27272699999997485,"midi":40,"time":230.727042,"velocity":0.5905511811023622},{"duration":0.13636349999998743,"midi":42,"time":230.727042,"velocity":0.5905511811023622},{"duration":0.27272699999997485,"midi":35,"time":230.727042,"velocity":0.5905511811023622},{"duration":0.13636349999998743,"midi":49,"time":230.727042,"velocity":0.5905511811023622},{"duration":0.27272699999997485,"midi":35,"time":230.727042,"velocity":0.5905511811023622},{"duration":0.13636349999998743,"midi":42,"time":230.727042,"velocity":0.5905511811023622},{"duration":0.27272699999997485,"midi":36,"time":230.727042,"velocity":0.5905511811023622},{"duration":0.13636349999998743,"midi":38,"time":230.8634055,"velocity":0.5905511811023622},{"duration":0.13636349999998743,"midi":38,"time":230.8634055,"velocity":0.5905511811023622},{"duration":0.13636350000001585,"midi":42,"time":230.999769,"velocity":0.5905511811023622},{"duration":0.13636350000001585,"midi":42,"time":230.999769,"velocity":0.5905511811023622},{"duration":0.2727270000000033,"midi":40,"time":231.272496,"velocity":0.5905511811023622},{"duration":0.2727270000000033,"midi":36,"time":231.272496,"velocity":0.5905511811023622},{"duration":0.2727270000000033,"midi":38,"time":231.272496,"velocity":0.5905511811023622},{"duration":0.13636350000001585,"midi":42,"time":231.272496,"velocity":0.5905511811023622},{"duration":0.2727270000000033,"midi":35,"time":231.272496,"velocity":0.5905511811023622},{"duration":0.2727270000000033,"midi":35,"time":231.272496,"velocity":0.5905511811023622},{"duration":0.2727270000000033,"midi":40,"time":231.272496,"velocity":0.5905511811023622},{"duration":0.2727270000000033,"midi":38,"time":231.272496,"velocity":0.5905511811023622},{"duration":0.13636350000001585,"midi":42,"time":231.272496,"velocity":0.5905511811023622},{"duration":0.2727270000000033,"midi":36,"time":231.272496,"velocity":0.5905511811023622},{"duration":0.13636350000001585,"midi":42,"time":231.545223,"velocity":0.5905511811023622},{"duration":0.13636350000001585,"midi":42,"time":231.545223,"velocity":0.5905511811023622},{"duration":0.13636349999998743,"midi":49,"time":231.81795,"velocity":0.5905511811023622},{"duration":0.2727270000000033,"midi":36,"time":231.81795,"velocity":0.5905511811023622},{"duration":0.2727270000000033,"midi":36,"time":231.81795,"velocity":0.5905511811023622},{"duration":0.2727270000000033,"midi":40,"time":231.81795,"velocity":0.5905511811023622},{"duration":0.2727270000000033,"midi":40,"time":231.81795,"velocity":0.5905511811023622},{"duration":0.13636349999998743,"midi":42,"time":231.81795,"velocity":0.5905511811023622},{"duration":0.13636349999998743,"midi":42,"time":231.81795,"velocity":0.5905511811023622},{"duration":0.2727270000000033,"midi":38,"time":231.81795,"velocity":0.5905511811023622},{"duration":0.2727270000000033,"midi":35,"time":231.81795,"velocity":0.5905511811023622},{"duration":0.2727270000000033,"midi":35,"time":231.81795,"velocity":0.5905511811023622},{"duration":0.2727270000000033,"midi":38,"time":231.81795,"velocity":0.5905511811023622},{"duration":0.13636349999998743,"midi":42,"time":232.090677,"velocity":0.5905511811023622},{"duration":0.13636349999998743,"midi":42,"time":232.090677,"velocity":0.5905511811023622},{"duration":0.13636349999998743,"midi":49,"time":232.363404,"velocity":0.5905511811023622},{"duration":0.2727270000000033,"midi":35,"time":232.363404,"velocity":0.5905511811023622},{"duration":0.2727270000000033,"midi":40,"time":232.363404,"velocity":0.5905511811023622},{"duration":0.2727270000000033,"midi":36,"time":232.363404,"velocity":0.5905511811023622},{"duration":0.2727270000000033,"midi":36,"time":232.363404,"velocity":0.5905511811023622},{"duration":0.2727270000000033,"midi":38,"time":232.363404,"velocity":0.5905511811023622},{"duration":0.2727270000000033,"midi":40,"time":232.363404,"velocity":0.5905511811023622},{"duration":0.13636349999998743,"midi":42,"time":232.363404,"velocity":0.5905511811023622},{"duration":0.2727270000000033,"midi":35,"time":232.363404,"velocity":0.5905511811023622},{"duration":0.2727270000000033,"midi":38,"time":232.363404,"velocity":0.5905511811023622},{"duration":0.13636349999998743,"midi":42,"time":232.363404,"velocity":0.5905511811023622},{"duration":0.13636349999998743,"midi":42,"time":232.636131,"velocity":0.5905511811023622},{"duration":0.13636349999998743,"midi":42,"time":232.636131,"velocity":0.5905511811023622},{"duration":0.13636349999998743,"midi":42,"time":232.908858,"velocity":0.5905511811023622},{"duration":0.27272699999997485,"midi":35,"time":232.908858,"velocity":0.5905511811023622},{"duration":0.13636349999998743,"midi":38,"time":232.908858,"velocity":0.5905511811023622},{"duration":0.27272699999997485,"midi":40,"time":232.908858,"velocity":0.5905511811023622},{"duration":0.13636349999998743,"midi":38,"time":232.908858,"velocity":0.5905511811023622},{"duration":0.27272699999997485,"midi":35,"time":232.908858,"velocity":0.5905511811023622},{"duration":0.13636349999998743,"midi":42,"time":232.908858,"velocity":0.5905511811023622},{"duration":0.27272699999997485,"midi":40,"time":232.908858,"velocity":0.5905511811023622},{"duration":0.27272699999997485,"midi":36,"time":232.908858,"velocity":0.5905511811023622},{"duration":0.13636349999998743,"midi":49,"time":232.908858,"velocity":0.5905511811023622},{"duration":0.27272699999997485,"midi":36,"time":232.908858,"velocity":0.5905511811023622},{"duration":0.13636350000001585,"midi":42,"time":233.18158499999998,"velocity":0.5905511811023622},{"duration":0.13636350000001585,"midi":42,"time":233.18158499999998,"velocity":0.5905511811023622},{"duration":0.2727270000000033,"midi":38,"time":233.454312,"velocity":0.5905511811023622},{"duration":0.2727270000000033,"midi":36,"time":233.454312,"velocity":0.5905511811023622},{"duration":0.2727270000000033,"midi":40,"time":233.454312,"velocity":0.5905511811023622},{"duration":0.13636350000001585,"midi":42,"time":233.454312,"velocity":0.5905511811023622},{"duration":0.2727270000000033,"midi":35,"time":233.454312,"velocity":0.5905511811023622},{"duration":0.2727270000000033,"midi":40,"time":233.454312,"velocity":0.5905511811023622},{"duration":0.2727270000000033,"midi":35,"time":233.454312,"velocity":0.5905511811023622},{"duration":0.13636350000001585,"midi":42,"time":233.454312,"velocity":0.5905511811023622},{"duration":0.2727270000000033,"midi":36,"time":233.454312,"velocity":0.5905511811023622},{"duration":0.2727270000000033,"midi":38,"time":233.454312,"velocity":0.5905511811023622},{"duration":0.13636350000001585,"midi":42,"time":233.727039,"velocity":0.5905511811023622},{"duration":0.13636350000001585,"midi":42,"time":233.727039,"velocity":0.5905511811023622},{"duration":0.13636350000001585,"midi":42,"time":233.999766,"velocity":0.5905511811023622},{"duration":0.2727270000000033,"midi":38,"time":233.999766,"velocity":0.5905511811023622},{"duration":0.13636350000001585,"midi":42,"time":233.999766,"velocity":0.5905511811023622},{"duration":0.2727270000000033,"midi":36,"time":233.999766,"velocity":0.5905511811023622},{"duration":0.2727270000000033,"midi":36,"time":233.999766,"velocity":0.5905511811023622},{"duration":0.2727270000000033,"midi":38,"time":233.999766,"velocity":0.5905511811023622},{"duration":0.2727270000000033,"midi":40,"time":233.999766,"velocity":0.5905511811023622},{"duration":0.2727270000000033,"midi":35,"time":233.999766,"velocity":0.5905511811023622},{"duration":0.2727270000000033,"midi":35,"time":233.999766,"velocity":0.5905511811023622},{"duration":0.13636350000001585,"midi":49,"time":233.999766,"velocity":0.5905511811023622},{"duration":0.2727270000000033,"midi":40,"time":233.999766,"velocity":0.5905511811023622},{"duration":0.13636349999998743,"midi":42,"time":234.272493,"velocity":0.5905511811023622},{"duration":0.13636349999998743,"midi":42,"time":234.272493,"velocity":0.5905511811023622},{"duration":0.2727270000000033,"midi":35,"time":234.54522,"velocity":0.5905511811023622},{"duration":0.13636349999998743,"midi":42,"time":234.54522,"velocity":0.5905511811023622},{"duration":0.2727270000000033,"midi":36,"time":234.54522,"velocity":0.5905511811023622},{"duration":0.2727270000000033,"midi":36,"time":234.54522,"velocity":0.5905511811023622},{"duration":0.2727270000000033,"midi":40,"time":234.54522,"velocity":0.5905511811023622},{"duration":0.2727270000000033,"midi":35,"time":234.54522,"velocity":0.5905511811023622},{"duration":0.13636349999998743,"midi":49,"time":234.54522,"velocity":0.5905511811023622},{"duration":0.2727270000000033,"midi":38,"time":234.54522,"velocity":0.5905511811023622},{"duration":0.13636349999998743,"midi":42,"time":234.54522,"velocity":0.5905511811023622},{"duration":0.2727270000000033,"midi":40,"time":234.54522,"velocity":0.5905511811023622},{"duration":0.2727270000000033,"midi":38,"time":234.54522,"velocity":0.5905511811023622},{"duration":0.13636349999998743,"midi":42,"time":234.817947,"velocity":0.5905511811023622},{"duration":0.13636349999998743,"midi":42,"time":234.817947,"velocity":0.5905511811023622},{"duration":0.2727270000000033,"midi":36,"time":235.090674,"velocity":0.5905511811023622},{"duration":0.2727270000000033,"midi":35,"time":235.090674,"velocity":0.5905511811023622},{"duration":0.13636349999998743,"midi":49,"time":235.090674,"velocity":0.5905511811023622},{"duration":0.2727270000000033,"midi":36,"time":235.090674,"velocity":0.5905511811023622},{"duration":0.2727270000000033,"midi":35,"time":235.090674,"velocity":0.5905511811023622},{"duration":0.13636349999998743,"midi":42,"time":235.090674,"velocity":0.5905511811023622},{"duration":0.2727270000000033,"midi":40,"time":235.090674,"velocity":0.5905511811023622},{"duration":0.13636349999998743,"midi":38,"time":235.090674,"velocity":0.5905511811023622},{"duration":0.13636349999998743,"midi":42,"time":235.090674,"velocity":0.5905511811023622},{"duration":0.2727270000000033,"midi":40,"time":235.090674,"velocity":0.5905511811023622},{"duration":0.13636349999998743,"midi":38,"time":235.090674,"velocity":0.5905511811023622},{"duration":0.13636349999998743,"midi":42,"time":235.363401,"velocity":0.5905511811023622},{"duration":0.13636349999998743,"midi":42,"time":235.363401,"velocity":0.5905511811023622},{"duration":0.13636349999998743,"midi":38,"time":235.4997645,"velocity":0.5905511811023622},{"duration":0.13636349999998743,"midi":38,"time":235.4997645,"velocity":0.5905511811023622},{"duration":0.13636350000001585,"midi":42,"time":235.63612799999999,"velocity":0.5905511811023622},{"duration":0.2727270000000033,"midi":35,"time":235.63612799999999,"velocity":0.5905511811023622},{"duration":0.2727270000000033,"midi":40,"time":235.63612799999999,"velocity":0.5905511811023622},{"duration":0.13636350000001585,"midi":42,"time":235.63612799999999,"velocity":0.5905511811023622},{"duration":0.2727270000000033,"midi":38,"time":235.63612799999999,"velocity":0.5905511811023622},{"duration":0.2727270000000033,"midi":35,"time":235.63612799999999,"velocity":0.5905511811023622},{"duration":0.2727270000000033,"midi":38,"time":235.63612799999999,"velocity":0.5905511811023622},{"duration":0.2727270000000033,"midi":40,"time":235.63612799999999,"velocity":0.5905511811023622},{"duration":0.2727270000000033,"midi":36,"time":235.63612799999999,"velocity":0.5905511811023622},{"duration":0.2727270000000033,"midi":36,"time":235.63612799999999,"velocity":0.5905511811023622},{"duration":0.13636350000001585,"midi":42,"time":235.908855,"velocity":0.5905511811023622},{"duration":0.13636350000001585,"midi":42,"time":235.908855,"velocity":0.5905511811023622},{"duration":0.2727270000000033,"midi":40,"time":236.181582,"velocity":0.5905511811023622},{"duration":0.2727270000000033,"midi":38,"time":236.181582,"velocity":0.5905511811023622},{"duration":0.2727270000000033,"midi":40,"time":236.181582,"velocity":0.5905511811023622},{"duration":0.2727270000000033,"midi":35,"time":236.181582,"velocity":0.5905511811023622},{"duration":0.2727270000000033,"midi":35,"time":236.181582,"velocity":0.5905511811023622},{"duration":0.2727270000000033,"midi":36,"time":236.181582,"velocity":0.5905511811023622},{"duration":0.13636350000001585,"midi":42,"time":236.181582,"velocity":0.5905511811023622},{"duration":0.2727270000000033,"midi":36,"time":236.181582,"velocity":0.5905511811023622},{"duration":0.13636350000001585,"midi":49,"time":236.181582,"velocity":0.5905511811023622},{"duration":0.13636350000001585,"midi":42,"time":236.181582,"velocity":0.5905511811023622},{"duration":0.2727270000000033,"midi":38,"time":236.181582,"velocity":0.5905511811023622},{"duration":0.13636350000001585,"midi":42,"time":236.454309,"velocity":0.5905511811023622},{"duration":0.13636350000001585,"midi":42,"time":236.454309,"velocity":0.5905511811023622},{"duration":0.13636349999998743,"midi":42,"time":236.727036,"velocity":0.5905511811023622},{"duration":0.2727270000000033,"midi":35,"time":236.727036,"velocity":0.5905511811023622},{"duration":0.2727270000000033,"midi":38,"time":236.727036,"velocity":0.5905511811023622},{"duration":0.2727270000000033,"midi":36,"time":236.727036,"velocity":0.5905511811023622},{"duration":0.13636349999998743,"midi":49,"time":236.727036,"velocity":0.5905511811023622},{"duration":0.2727270000000033,"midi":36,"time":236.727036,"velocity":0.5905511811023622},{"duration":0.2727270000000033,"midi":40,"time":236.727036,"velocity":0.5905511811023622},{"duration":0.13636349999998743,"midi":42,"time":236.727036,"velocity":0.5905511811023622},{"duration":0.2727270000000033,"midi":38,"time":236.727036,"velocity":0.5905511811023622},{"duration":0.2727270000000033,"midi":35,"time":236.727036,"velocity":0.5905511811023622},{"duration":0.2727270000000033,"midi":40,"time":236.727036,"velocity":0.5905511811023622},{"duration":0.13636349999998743,"midi":42,"time":236.999763,"velocity":0.5905511811023622},{"duration":0.13636349999998743,"midi":42,"time":236.999763,"velocity":0.5905511811023622},{"duration":0.2727270000000033,"midi":35,"time":237.27249,"velocity":0.5905511811023622},{"duration":0.13636349999998743,"midi":38,"time":237.27249,"velocity":0.5905511811023622},{"duration":0.2727270000000033,"midi":40,"time":237.27249,"velocity":0.5905511811023622},{"duration":0.2727270000000033,"midi":35,"time":237.27249,"velocity":0.5905511811023622},{"duration":0.13636349999998743,"midi":42,"time":237.27249,"velocity":0.5905511811023622},{"duration":0.2727270000000033,"midi":36,"time":237.27249,"velocity":0.5905511811023622},{"duration":0.2727270000000033,"midi":36,"time":237.27249,"velocity":0.5905511811023622},{"duration":0.13636349999998743,"midi":49,"time":237.27249,"velocity":0.5905511811023622},{"duration":0.13636349999998743,"midi":38,"time":237.27249,"velocity":0.5905511811023622},{"duration":0.2727270000000033,"midi":40,"time":237.27249,"velocity":0.5905511811023622},{"duration":0.13636349999998743,"midi":42,"time":237.27249,"velocity":0.5905511811023622},{"duration":0.13636349999998743,"midi":42,"time":237.545217,"velocity":0.5905511811023622},{"duration":0.13636349999998743,"midi":42,"time":237.545217,"velocity":0.5905511811023622},{"duration":0.27272699999997485,"midi":40,"time":237.817944,"velocity":0.5905511811023622},{"duration":0.27272699999997485,"midi":35,"time":237.817944,"velocity":0.5905511811023622},{"duration":0.13636349999998743,"midi":42,"time":237.817944,"velocity":0.5905511811023622},{"duration":0.27272699999997485,"midi":38,"time":237.817944,"velocity":0.5905511811023622},{"duration":0.13636349999998743,"midi":42,"time":237.817944,"velocity":0.5905511811023622},{"duration":0.27272699999997485,"midi":36,"time":237.817944,"velocity":0.5905511811023622},{"duration":0.27272699999997485,"midi":40,"time":237.817944,"velocity":0.5905511811023622},{"duration":0.27272699999997485,"midi":38,"time":237.817944,"velocity":0.5905511811023622},{"duration":0.27272699999997485,"midi":36,"time":237.817944,"velocity":0.5905511811023622},{"duration":0.27272699999997485,"midi":35,"time":237.817944,"velocity":0.5905511811023622},{"duration":0.13636350000001585,"midi":42,"time":238.090671,"velocity":0.5905511811023622},{"duration":0.13636350000001585,"midi":42,"time":238.090671,"velocity":0.5905511811023622},{"duration":0.2727270000000033,"midi":36,"time":238.363398,"velocity":0.5905511811023622},{"duration":0.2727270000000033,"midi":36,"time":238.363398,"velocity":0.5905511811023622},{"duration":0.13636350000001585,"midi":42,"time":238.363398,"velocity":0.5905511811023622},{"duration":0.2727270000000033,"midi":35,"time":238.363398,"velocity":0.5905511811023622},{"duration":0.2727270000000033,"midi":40,"time":238.363398,"velocity":0.5905511811023622},{"duration":0.13636350000001585,"midi":42,"time":238.363398,"velocity":0.5905511811023622},{"duration":0.2727270000000033,"midi":40,"time":238.363398,"velocity":0.5905511811023622},{"duration":0.2727270000000033,"midi":35,"time":238.363398,"velocity":0.5905511811023622},{"duration":0.2727270000000033,"midi":38,"time":238.363398,"velocity":0.5905511811023622},{"duration":0.2727270000000033,"midi":38,"time":238.363398,"velocity":0.5905511811023622},{"duration":0.13636350000001585,"midi":49,"time":238.363398,"velocity":0.5905511811023622},{"duration":0.13636350000001585,"midi":42,"time":238.636125,"velocity":0.5905511811023622},{"duration":0.13636350000001585,"midi":42,"time":238.636125,"velocity":0.5905511811023622},{"duration":0.13636349999998743,"midi":42,"time":238.908852,"velocity":0.5905511811023622},{"duration":0.2727270000000033,"midi":40,"time":238.908852,"velocity":0.5905511811023622},{"duration":0.2727270000000033,"midi":38,"time":238.908852,"velocity":0.5905511811023622},{"duration":0.2727270000000033,"midi":35,"time":238.908852,"velocity":0.5905511811023622},{"duration":0.2727270000000033,"midi":35,"time":238.908852,"velocity":0.5905511811023622},{"duration":0.2727270000000033,"midi":40,"time":238.908852,"velocity":0.5905511811023622},{"duration":0.2727270000000033,"midi":36,"time":238.908852,"velocity":0.5905511811023622},{"duration":0.13636349999998743,"midi":42,"time":238.908852,"velocity":0.5905511811023622},{"duration":0.2727270000000033,"midi":36,"time":238.908852,"velocity":0.5905511811023622},{"duration":0.13636349999998743,"midi":49,"time":238.908852,"velocity":0.5905511811023622},{"duration":0.2727270000000033,"midi":38,"time":238.908852,"velocity":0.5905511811023622},{"duration":0.13636349999998743,"midi":42,"time":239.181579,"velocity":0.5905511811023622},{"duration":0.13636349999998743,"midi":42,"time":239.181579,"velocity":0.5905511811023622},{"duration":0.2727270000000033,"midi":40,"time":239.454306,"velocity":0.5905511811023622},{"duration":0.13636349999998743,"midi":38,"time":239.454306,"velocity":0.5905511811023622},{"duration":0.13636349999998743,"midi":38,"time":239.454306,"velocity":0.5905511811023622},{"duration":0.2727270000000033,"midi":36,"time":239.454306,"velocity":0.5905511811023622},{"duration":0.2727270000000033,"midi":36,"time":239.454306,"velocity":0.5905511811023622},{"duration":0.2727270000000033,"midi":40,"time":239.454306,"velocity":0.5905511811023622},{"duration":0.13636349999998743,"midi":42,"time":239.454306,"velocity":0.5905511811023622},{"duration":0.2727270000000033,"midi":35,"time":239.454306,"velocity":0.5905511811023622},{"duration":0.2727270000000033,"midi":35,"time":239.454306,"velocity":0.5905511811023622},{"duration":0.13636349999998743,"midi":42,"time":239.454306,"velocity":0.5905511811023622},{"duration":0.13636349999998743,"midi":49,"time":239.454306,"velocity":0.5905511811023622},{"duration":0.13636350000001585,"midi":38,"time":239.5906695,"velocity":0.5905511811023622},{"duration":0.13636350000001585,"midi":38,"time":239.5906695,"velocity":0.5905511811023622},{"duration":0.13636349999998743,"midi":42,"time":239.727033,"velocity":0.5905511811023622},{"duration":0.13636349999998743,"midi":42,"time":239.727033,"velocity":0.5905511811023622},{"duration":0.27272699999997485,"midi":38,"time":239.99976,"velocity":0.5905511811023622},{"duration":0.13636349999998743,"midi":42,"time":239.99976,"velocity":0.5905511811023622},{"duration":0.13636349999998743,"midi":42,"time":239.99976,"velocity":0.5905511811023622},{"duration":0.27272699999997485,"midi":36,"time":239.99976,"velocity":0.5905511811023622},{"duration":0.27272699999997485,"midi":40,"time":239.99976,"velocity":0.5905511811023622},{"duration":0.27272699999997485,"midi":35,"time":239.99976,"velocity":0.5905511811023622},{"duration":0.27272699999997485,"midi":35,"time":239.99976,"velocity":0.5905511811023622},{"duration":0.27272699999997485,"midi":36,"time":239.99976,"velocity":0.5905511811023622},{"duration":0.27272699999997485,"midi":38,"time":239.99976,"velocity":0.5905511811023622},{"duration":0.27272699999997485,"midi":40,"time":239.99976,"velocity":0.5905511811023622},{"duration":0.13636350000001585,"midi":42,"time":240.27248699999998,"velocity":0.5905511811023622},{"duration":0.13636350000001585,"midi":42,"time":240.27248699999998,"velocity":0.5905511811023622},{"duration":0.13636350000001585,"midi":42,"time":240.545214,"velocity":0.5905511811023622},{"duration":0.2727270000000033,"midi":36,"time":240.545214,"velocity":0.5905511811023622},{"duration":0.13636350000001585,"midi":42,"time":240.545214,"velocity":0.5905511811023622},{"duration":0.2727270000000033,"midi":36,"time":240.545214,"velocity":0.5905511811023622},{"duration":0.2727270000000033,"midi":40,"time":240.545214,"velocity":0.5905511811023622},{"duration":0.2727270000000033,"midi":35,"time":240.545214,"velocity":0.5905511811023622},{"duration":0.2727270000000033,"midi":35,"time":240.545214,"velocity":0.5905511811023622},{"duration":0.2727270000000033,"midi":38,"time":240.545214,"velocity":0.5905511811023622},{"duration":0.2727270000000033,"midi":38,"time":240.545214,"velocity":0.5905511811023622},{"duration":0.2727270000000033,"midi":40,"time":240.545214,"velocity":0.5905511811023622},{"duration":0.13636350000001585,"midi":49,"time":240.545214,"velocity":0.5905511811023622},{"duration":0.13636350000001585,"midi":42,"time":240.817941,"velocity":0.5905511811023622},{"duration":0.13636350000001585,"midi":42,"time":240.817941,"velocity":0.5905511811023622},{"duration":0.13636350000001585,"midi":49,"time":241.090668,"velocity":0.5905511811023622},{"duration":0.2727270000000033,"midi":38,"time":241.090668,"velocity":0.5905511811023622},{"duration":0.2727270000000033,"midi":40,"time":241.090668,"velocity":0.5905511811023622},{"duration":0.2727270000000033,"midi":35,"time":241.090668,"velocity":0.5905511811023622},{"duration":0.2727270000000033,"midi":35,"time":241.090668,"velocity":0.5905511811023622},{"duration":0.2727270000000033,"midi":38,"time":241.090668,"velocity":0.5905511811023622},{"duration":0.2727270000000033,"midi":40,"time":241.090668,"velocity":0.5905511811023622},{"duration":0.2727270000000033,"midi":36,"time":241.090668,"velocity":0.5905511811023622},{"duration":0.13636350000001585,"midi":42,"time":241.090668,"velocity":0.5905511811023622},{"duration":0.2727270000000033,"midi":36,"time":241.090668,"velocity":0.5905511811023622},{"duration":0.13636350000001585,"midi":42,"time":241.090668,"velocity":0.5905511811023622},{"duration":0.13636349999998743,"midi":42,"time":241.363395,"velocity":0.5905511811023622},{"duration":0.13636349999998743,"midi":42,"time":241.363395,"velocity":0.5905511811023622},{"duration":0.2727270000000033,"midi":36,"time":241.636122,"velocity":0.5905511811023622},{"duration":0.13636349999998743,"midi":42,"time":241.636122,"velocity":0.5905511811023622},{"duration":0.2727270000000033,"midi":40,"time":241.636122,"velocity":0.5905511811023622},{"duration":0.2727270000000033,"midi":35,"time":241.636122,"velocity":0.5905511811023622},{"duration":0.13636349999998743,"midi":38,"time":241.636122,"velocity":0.5905511811023622},{"duration":0.2727270000000033,"midi":36,"time":241.636122,"velocity":0.5905511811023622},{"duration":0.13636349999998743,"midi":49,"time":241.636122,"velocity":0.5905511811023622},{"duration":0.2727270000000033,"midi":35,"time":241.636122,"velocity":0.5905511811023622},{"duration":0.13636349999998743,"midi":42,"time":241.636122,"velocity":0.5905511811023622},{"duration":0.2727270000000033,"midi":40,"time":241.636122,"velocity":0.5905511811023622},{"duration":0.13636349999998743,"midi":38,"time":241.636122,"velocity":0.5905511811023622},{"duration":0.13636349999998743,"midi":42,"time":241.908849,"velocity":0.5905511811023622},{"duration":0.13636349999998743,"midi":42,"time":241.908849,"velocity":0.5905511811023622},{"duration":0.2727270000000033,"midi":36,"time":242.181576,"velocity":0.5905511811023622},{"duration":0.2727270000000033,"midi":35,"time":242.181576,"velocity":0.5905511811023622},{"duration":0.13636349999998743,"midi":42,"time":242.181576,"velocity":0.5905511811023622},{"duration":0.2727270000000033,"midi":36,"time":242.181576,"velocity":0.5905511811023622},{"duration":0.2727270000000033,"midi":38,"time":242.181576,"velocity":0.5905511811023622},{"duration":0.2727270000000033,"midi":38,"time":242.181576,"velocity":0.5905511811023622},{"duration":0.13636349999998743,"midi":42,"time":242.181576,"velocity":0.5905511811023622},{"duration":0.2727270000000033,"midi":40,"time":242.181576,"velocity":0.5905511811023622},{"duration":0.2727270000000033,"midi":35,"time":242.181576,"velocity":0.5905511811023622},{"duration":0.2727270000000033,"midi":40,"time":242.181576,"velocity":0.5905511811023622},{"duration":0.13636349999998743,"midi":42,"time":242.454303,"velocity":0.5905511811023622},{"duration":0.13636349999998743,"midi":42,"time":242.454303,"velocity":0.5905511811023622},{"duration":0.2727270000000033,"midi":40,"time":242.72702999999998,"velocity":0.5905511811023622},{"duration":0.2727270000000033,"midi":38,"time":242.72702999999998,"velocity":0.5905511811023622},{"duration":0.13636350000001585,"midi":42,"time":242.72702999999998,"velocity":0.5905511811023622},{"duration":0.2727270000000033,"midi":35,"time":242.72702999999998,"velocity":0.5905511811023622},{"duration":0.2727270000000033,"midi":36,"time":242.72702999999998,"velocity":0.5905511811023622},{"duration":0.13636350000001585,"midi":49,"time":242.72702999999998,"velocity":0.5905511811023622},{"duration":0.13636350000001585,"midi":42,"time":242.72702999999998,"velocity":0.5905511811023622},{"duration":0.2727270000000033,"midi":40,"time":242.72702999999998,"velocity":0.5905511811023622},{"duration":0.2727270000000033,"midi":38,"time":242.72702999999998,"velocity":0.5905511811023622},{"duration":0.2727270000000033,"midi":35,"time":242.72702999999998,"velocity":0.5905511811023622},{"duration":0.2727270000000033,"midi":36,"time":242.72702999999998,"velocity":0.5905511811023622},{"duration":0.13636350000001585,"midi":42,"time":242.999757,"velocity":0.5905511811023622},{"duration":0.13636350000001585,"midi":42,"time":242.999757,"velocity":0.5905511811023622},{"duration":0.13636350000001585,"midi":49,"time":243.272484,"velocity":0.5905511811023622},{"duration":0.13636349999998743,"midi":49,"time":243.817938,"velocity":0.5905511811023622},{"duration":0.13636349999998743,"midi":49,"time":244.090665,"velocity":0.5905511811023622},{"duration":0.2727270000000033,"midi":35,"time":244.363392,"velocity":0.5905511811023622},{"duration":0.2727270000000033,"midi":36,"time":244.363392,"velocity":0.5905511811023622},{"duration":0.13636349999998743,"midi":42,"time":244.363392,"velocity":0.5905511811023622},{"duration":0.2727270000000033,"midi":40,"time":244.363392,"velocity":0.5905511811023622},{"duration":0.2727270000000033,"midi":38,"time":244.363392,"velocity":0.5905511811023622},{"duration":0.13636349999998743,"midi":42,"time":244.363392,"velocity":0.5905511811023622},{"duration":0.2727270000000033,"midi":40,"time":244.363392,"velocity":0.5905511811023622},{"duration":0.2727270000000033,"midi":36,"time":244.363392,"velocity":0.5905511811023622},{"duration":0.2727270000000033,"midi":38,"time":244.363392,"velocity":0.5905511811023622},{"duration":0.2727270000000033,"midi":35,"time":244.363392,"velocity":0.5905511811023622},{"duration":0.13636349999998743,"midi":42,"time":244.636119,"velocity":0.5905511811023622},{"duration":0.13636349999998743,"midi":40,"time":244.636119,"velocity":0.5905511811023622},{"duration":0.13636349999998743,"midi":42,"time":244.636119,"velocity":0.5905511811023622},{"duration":0.27272699999997485,"midi":38,"time":244.908846,"velocity":0.5905511811023622},{"duration":0.27272699999997485,"midi":40,"time":244.908846,"velocity":0.5905511811023622},{"duration":0.27272699999997485,"midi":40,"time":244.908846,"velocity":0.5905511811023622},{"duration":0.27272699999997485,"midi":35,"time":244.908846,"velocity":0.5905511811023622},{"duration":0.27272699999997485,"midi":38,"time":244.908846,"velocity":0.5905511811023622},{"duration":0.27272699999997485,"midi":35,"time":244.908846,"velocity":0.5905511811023622},{"duration":0.13636349999998743,"midi":42,"time":244.908846,"velocity":0.5905511811023622},{"duration":0.27272699999997485,"midi":36,"time":244.908846,"velocity":0.5905511811023622},{"duration":0.13636349999998743,"midi":49,"time":244.908846,"velocity":0.5905511811023622},{"duration":0.13636349999998743,"midi":42,"time":244.908846,"velocity":0.5905511811023622},{"duration":0.27272699999997485,"midi":36,"time":244.908846,"velocity":0.5905511811023622},{"duration":0.13636350000001585,"midi":42,"time":245.181573,"velocity":0.5905511811023622},{"duration":0.13636350000001585,"midi":42,"time":245.181573,"velocity":0.5905511811023622},{"duration":0.13636350000001585,"midi":40,"time":245.181573,"velocity":0.5905511811023622},{"duration":0.13636350000001585,"midi":42,"time":245.4543,"velocity":0.5905511811023622},{"duration":0.13636350000001585,"midi":42,"time":245.4543,"velocity":0.5905511811023622},{"duration":0.2727270000000033,"midi":36,"time":245.4543,"velocity":0.5905511811023622},{"duration":0.2727270000000033,"midi":35,"time":245.4543,"velocity":0.5905511811023622},{"duration":0.2727270000000033,"midi":36,"time":245.4543,"velocity":0.5905511811023622},{"duration":0.2727270000000033,"midi":38,"time":245.4543,"velocity":0.5905511811023622},{"duration":0.2727270000000033,"midi":40,"time":245.4543,"velocity":0.5905511811023622},{"duration":0.2727270000000033,"midi":40,"time":245.4543,"velocity":0.5905511811023622},{"duration":0.2727270000000033,"midi":38,"time":245.4543,"velocity":0.5905511811023622},{"duration":0.2727270000000033,"midi":35,"time":245.4543,"velocity":0.5905511811023622},{"duration":0.13636350000001585,"midi":49,"time":245.4543,"velocity":0.5905511811023622},{"duration":0.13636350000001585,"midi":42,"time":245.727027,"velocity":0.5905511811023622},{"duration":0.13636350000001585,"midi":40,"time":245.727027,"velocity":0.5905511811023622},{"duration":0.13636350000001585,"midi":42,"time":245.727027,"velocity":0.5905511811023622},{"duration":0.13636350000001585,"midi":42,"time":245.999754,"velocity":0.5905511811023622},{"duration":0.2727270000000033,"midi":40,"time":245.999754,"velocity":0.5905511811023622},{"duration":0.2727270000000033,"midi":36,"time":245.999754,"velocity":0.5905511811023622},{"duration":0.2727270000000033,"midi":35,"time":245.999754,"velocity":0.5905511811023622},{"duration":0.13636350000001585,"midi":38,"time":245.999754,"velocity":0.5905511811023622},{"duration":0.2727270000000033,"midi":40,"time":245.999754,"velocity":0.5905511811023622},{"duration":0.13636350000001585,"midi":49,"time":245.999754,"velocity":0.5905511811023622},{"duration":0.13636350000001585,"midi":38,"time":245.999754,"velocity":0.5905511811023622},{"duration":0.2727270000000033,"midi":36,"time":245.999754,"velocity":0.5905511811023622},{"duration":0.2727270000000033,"midi":35,"time":245.999754,"velocity":0.5905511811023622},{"duration":0.13636350000001585,"midi":42,"time":245.999754,"velocity":0.5905511811023622},{"duration":0.13636349999998743,"midi":40,"time":246.272481,"velocity":0.5905511811023622},{"duration":0.13636349999998743,"midi":42,"time":246.272481,"velocity":0.5905511811023622},{"duration":0.13636349999998743,"midi":42,"time":246.272481,"velocity":0.5905511811023622},{"duration":0.2727270000000033,"midi":38,"time":246.545208,"velocity":0.5905511811023622},{"duration":0.2727270000000033,"midi":36,"time":246.545208,"velocity":0.5905511811023622},{"duration":0.2727270000000033,"midi":40,"time":246.545208,"velocity":0.5905511811023622},{"duration":0.2727270000000033,"midi":38,"time":246.545208,"velocity":0.5905511811023622},{"duration":0.2727270000000033,"midi":40,"time":246.545208,"velocity":0.5905511811023622},{"duration":0.2727270000000033,"midi":35,"time":246.545208,"velocity":0.5905511811023622},{"duration":0.2727270000000033,"midi":35,"time":246.545208,"velocity":0.5905511811023622},{"duration":0.13636349999998743,"midi":42,"time":246.545208,"velocity":0.5905511811023622},{"duration":0.2727270000000033,"midi":36,"time":246.545208,"velocity":0.5905511811023622},{"duration":0.13636349999998743,"midi":42,"time":246.545208,"velocity":0.5905511811023622},{"duration":0.13636349999998743,"midi":42,"time":246.817935,"velocity":0.5905511811023622},{"duration":0.13636349999998743,"midi":40,"time":246.817935,"velocity":0.5905511811023622},{"duration":0.13636349999998743,"midi":42,"time":246.817935,"velocity":0.5905511811023622},{"duration":0.27272699999997485,"midi":38,"time":247.090662,"velocity":0.5905511811023622},{"duration":0.27272699999997485,"midi":36,"time":247.090662,"velocity":0.5905511811023622},{"duration":0.27272699999997485,"midi":35,"time":247.090662,"velocity":0.5905511811023622},{"duration":0.27272699999997485,"midi":38,"time":247.090662,"velocity":0.5905511811023622},{"duration":0.27272699999997485,"midi":40,"time":247.090662,"velocity":0.5905511811023622},{"duration":0.27272699999997485,"midi":35,"time":247.090662,"velocity":0.5905511811023622},{"duration":0.13636349999998743,"midi":49,"time":247.090662,"velocity":0.5905511811023622},{"duration":0.27272699999997485,"midi":36,"time":247.090662,"velocity":0.5905511811023622},{"duration":0.13636349999998743,"midi":42,"time":247.090662,"velocity":0.5905511811023622},{"duration":0.27272699999997485,"midi":40,"time":247.090662,"velocity":0.5905511811023622},{"duration":0.13636349999998743,"midi":42,"time":247.090662,"velocity":0.5905511811023622},{"duration":0.13636350000001585,"midi":42,"time":247.36338899999998,"velocity":0.5905511811023622},{"duration":0.13636350000001585,"midi":42,"time":247.36338899999998,"velocity":0.5905511811023622},{"duration":0.13636350000001585,"midi":40,"time":247.36338899999998,"velocity":0.5905511811023622},{"duration":0.13636350000001585,"midi":42,"time":247.636116,"velocity":0.5905511811023622},{"duration":0.13636350000001585,"midi":42,"time":247.636116,"velocity":0.5905511811023622},{"duration":0.2727270000000033,"midi":38,"time":247.636116,"velocity":0.5905511811023622},{"duration":0.2727270000000033,"midi":36,"time":247.636116,"velocity":0.5905511811023622},{"duration":0.2727270000000033,"midi":35,"time":247.636116,"velocity":0.5905511811023622},{"duration":0.2727270000000033,"midi":40,"time":247.636116,"velocity":0.5905511811023622},{"duration":0.2727270000000033,"midi":40,"time":247.636116,"velocity":0.5905511811023622},{"duration":0.2727270000000033,"midi":35,"time":247.636116,"velocity":0.5905511811023622},{"duration":0.2727270000000033,"midi":38,"time":247.636116,"velocity":0.5905511811023622},{"duration":0.2727270000000033,"midi":36,"time":247.636116,"velocity":0.5905511811023622},{"duration":0.13636350000001585,"midi":49,"time":247.636116,"velocity":0.5905511811023622},{"duration":0.13636350000001585,"midi":40,"time":247.908843,"velocity":0.5905511811023622},{"duration":0.13636350000001585,"midi":42,"time":247.908843,"velocity":0.5905511811023622},{"duration":0.13636350000001585,"midi":42,"time":247.908843,"velocity":0.5905511811023622},{"duration":0.2727270000000033,"midi":36,"time":248.18157,"velocity":0.5905511811023622},{"duration":0.2727270000000033,"midi":35,"time":248.18157,"velocity":0.5905511811023622},{"duration":0.2727270000000033,"midi":40,"time":248.18157,"velocity":0.5905511811023622},{"duration":0.13636350000001585,"midi":42,"time":248.18157,"velocity":0.5905511811023622},{"duration":0.2727270000000033,"midi":36,"time":248.18157,"velocity":0.5905511811023622},{"duration":0.2727270000000033,"midi":35,"time":248.18157,"velocity":0.5905511811023622},{"duration":0.13636350000001585,"midi":38,"time":248.18157,"velocity":0.5905511811023622},{"duration":0.2727270000000033,"midi":40,"time":248.18157,"velocity":0.5905511811023622},{"duration":0.13636350000001585,"midi":38,"time":248.18157,"velocity":0.5905511811023622},{"duration":0.13636350000001585,"midi":49,"time":248.18157,"velocity":0.5905511811023622},{"duration":0.13636350000001585,"midi":42,"time":248.18157,"velocity":0.5905511811023622},{"duration":0.13636349999998743,"midi":38,"time":248.3179335,"velocity":0.5905511811023622},{"duration":0.13636349999998743,"midi":38,"time":248.3179335,"velocity":0.5905511811023622},{"duration":0.13636349999998743,"midi":42,"time":248.454297,"velocity":0.5905511811023622},{"duration":0.13636349999998743,"midi":40,"time":248.454297,"velocity":0.5905511811023622},{"duration":0.13636349999998743,"midi":42,"time":248.454297,"velocity":0.5905511811023622},{"duration":0.2727270000000033,"midi":40,"time":248.727024,"velocity":0.5905511811023622},{"duration":0.2727270000000033,"midi":38,"time":248.727024,"velocity":0.5905511811023622},{"duration":0.2727270000000033,"midi":40,"time":248.727024,"velocity":0.5905511811023622},{"duration":0.13636349999998743,"midi":42,"time":248.727024,"velocity":0.5905511811023622},{"duration":0.2727270000000033,"midi":35,"time":248.727024,"velocity":0.5905511811023622},{"duration":0.2727270000000033,"midi":36,"time":248.727024,"velocity":0.5905511811023622},{"duration":0.13636349999998743,"midi":42,"time":248.727024,"velocity":0.5905511811023622},{"duration":0.2727270000000033,"midi":38,"time":248.727024,"velocity":0.5905511811023622},{"duration":0.2727270000000033,"midi":36,"time":248.727024,"velocity":0.5905511811023622},{"duration":0.2727270000000033,"midi":35,"time":248.727024,"velocity":0.5905511811023622},{"duration":0.13636349999998743,"midi":42,"time":248.999751,"velocity":0.5905511811023622},{"duration":0.13636349999998743,"midi":40,"time":248.999751,"velocity":0.5905511811023622},{"duration":0.13636349999998743,"midi":42,"time":248.999751,"velocity":0.5905511811023622},{"duration":0.13636349999998743,"midi":42,"time":249.272478,"velocity":0.5905511811023622},{"duration":0.2727270000000033,"midi":35,"time":249.272478,"velocity":0.5905511811023622},{"duration":0.2727270000000033,"midi":35,"time":249.272478,"velocity":0.5905511811023622},{"duration":0.2727270000000033,"midi":38,"time":249.272478,"velocity":0.5905511811023622},{"duration":0.2727270000000033,"midi":36,"time":249.272478,"velocity":0.5905511811023622},{"duration":0.13636349999998743,"midi":49,"time":249.272478,"velocity":0.5905511811023622},{"duration":0.13636349999998743,"midi":42,"time":249.272478,"velocity":0.5905511811023622},{"duration":0.2727270000000033,"midi":38,"time":249.272478,"velocity":0.5905511811023622},{"duration":0.2727270000000033,"midi":40,"time":249.272478,"velocity":0.5905511811023622},{"duration":0.2727270000000033,"midi":36,"time":249.272478,"velocity":0.5905511811023622},{"duration":0.2727270000000033,"midi":40,"time":249.272478,"velocity":0.5905511811023622},{"duration":0.13636349999998743,"midi":40,"time":249.545205,"velocity":0.5905511811023622},{"duration":0.13636349999998743,"midi":42,"time":249.545205,"velocity":0.5905511811023622},{"duration":0.13636349999998743,"midi":42,"time":249.545205,"velocity":0.5905511811023622},{"duration":0.2727270000000033,"midi":38,"time":249.81793199999998,"velocity":0.5905511811023622},{"duration":0.13636350000001585,"midi":42,"time":249.81793199999998,"velocity":0.5905511811023622},{"duration":0.2727270000000033,"midi":38,"time":249.81793199999998,"velocity":0.5905511811023622},{"duration":0.2727270000000033,"midi":36,"time":249.81793199999998,"velocity":0.5905511811023622},{"duration":0.2727270000000033,"midi":36,"time":249.81793199999998,"velocity":0.5905511811023622},{"duration":0.2727270000000033,"midi":40,"time":249.81793199999998,"velocity":0.5905511811023622},{"duration":0.13636350000001585,"midi":42,"time":249.81793199999998,"velocity":0.5905511811023622},{"duration":0.2727270000000033,"midi":35,"time":249.81793199999998,"velocity":0.5905511811023622},{"duration":0.13636350000001585,"midi":49,"time":249.81793199999998,"velocity":0.5905511811023622},{"duration":0.2727270000000033,"midi":40,"time":249.81793199999998,"velocity":0.5905511811023622},{"duration":0.2727270000000033,"midi":35,"time":249.81793199999998,"velocity":0.5905511811023622},{"duration":0.13636350000001585,"midi":40,"time":250.090659,"velocity":0.5905511811023622},{"duration":0.13636350000001585,"midi":42,"time":250.090659,"velocity":0.5905511811023622},{"duration":0.13636350000001585,"midi":42,"time":250.090659,"velocity":0.5905511811023622},{"duration":0.13636350000001585,"midi":42,"time":250.363386,"velocity":0.5905511811023622},{"duration":0.2727270000000033,"midi":36,"time":250.363386,"velocity":0.5905511811023622},{"duration":0.13636350000001585,"midi":49,"time":250.363386,"velocity":0.5905511811023622},{"duration":0.2727270000000033,"midi":35,"time":250.363386,"velocity":0.5905511811023622},{"duration":0.13636350000001585,"midi":38,"time":250.363386,"velocity":0.5905511811023622},{"duration":0.13636350000001585,"midi":38,"time":250.363386,"velocity":0.5905511811023622},{"duration":0.2727270000000033,"midi":40,"time":250.363386,"velocity":0.5905511811023622},{"duration":0.2727270000000033,"midi":36,"time":250.363386,"velocity":0.5905511811023622},{"duration":0.2727270000000033,"midi":35,"time":250.363386,"velocity":0.5905511811023622},{"duration":0.13636350000001585,"midi":42,"time":250.363386,"velocity":0.5905511811023622},{"duration":0.2727270000000033,"midi":40,"time":250.363386,"velocity":0.5905511811023622},{"duration":0.13636350000001585,"midi":42,"time":250.636113,"velocity":0.5905511811023622},{"duration":0.13636350000001585,"midi":40,"time":250.636113,"velocity":0.5905511811023622},{"duration":0.13636350000001585,"midi":42,"time":250.636113,"velocity":0.5905511811023622},{"duration":0.2727270000000033,"midi":40,"time":250.90884,"velocity":0.5905511811023622},{"duration":0.2727270000000033,"midi":38,"time":250.90884,"velocity":0.5905511811023622},{"duration":0.2727270000000033,"midi":35,"time":250.90884,"velocity":0.5905511811023622},{"duration":0.2727270000000033,"midi":35,"time":250.90884,"velocity":0.5905511811023622},{"duration":0.2727270000000033,"midi":36,"time":250.90884,"velocity":0.5905511811023622},{"duration":0.2727270000000033,"midi":38,"time":250.90884,"velocity":0.5905511811023622},{"duration":0.2727270000000033,"midi":36,"time":250.90884,"velocity":0.5905511811023622},{"duration":0.13636349999998743,"midi":42,"time":250.90884,"velocity":0.5905511811023622},{"duration":0.13636349999998743,"midi":42,"time":250.90884,"velocity":0.5905511811023622},{"duration":0.2727270000000033,"midi":40,"time":250.90884,"velocity":0.5905511811023622},{"duration":0.13636349999998743,"midi":42,"time":251.181567,"velocity":0.5905511811023622},{"duration":0.13636349999998743,"midi":40,"time":251.181567,"velocity":0.5905511811023622},{"duration":0.13636349999998743,"midi":42,"time":251.181567,"velocity":0.5905511811023622},{"duration":0.13636349999998743,"midi":42,"time":251.454294,"velocity":0.5905511811023622},{"duration":0.2727270000000033,"midi":36,"time":251.454294,"velocity":0.5905511811023622},{"duration":0.13636349999998743,"midi":42,"time":251.454294,"velocity":0.5905511811023622},{"duration":0.2727270000000033,"midi":40,"time":251.454294,"velocity":0.5905511811023622},{"duration":0.2727270000000033,"midi":38,"time":251.454294,"velocity":0.5905511811023622},{"duration":0.13636349999998743,"midi":49,"time":251.454294,"velocity":0.5905511811023622},{"duration":0.2727270000000033,"midi":36,"time":251.454294,"velocity":0.5905511811023622},{"duration":0.2727270000000033,"midi":35,"time":251.454294,"velocity":0.5905511811023622},{"duration":0.2727270000000033,"midi":40,"time":251.454294,"velocity":0.5905511811023622},{"duration":0.2727270000000033,"midi":35,"time":251.454294,"velocity":0.5905511811023622},{"duration":0.2727270000000033,"midi":38,"time":251.454294,"velocity":0.5905511811023622},{"duration":0.13636349999998743,"midi":42,"time":251.727021,"velocity":0.5905511811023622},{"duration":0.13636349999998743,"midi":42,"time":251.727021,"velocity":0.5905511811023622},{"duration":0.13636349999998743,"midi":40,"time":251.727021,"velocity":0.5905511811023622},{"duration":0.27272699999997485,"midi":36,"time":251.999748,"velocity":0.5905511811023622},{"duration":0.27272699999997485,"midi":38,"time":251.999748,"velocity":0.5905511811023622},{"duration":0.27272699999997485,"midi":40,"time":251.999748,"velocity":0.5905511811023622},{"duration":0.27272699999997485,"midi":38,"time":251.999748,"velocity":0.5905511811023622},{"duration":0.27272699999997485,"midi":35,"time":251.999748,"velocity":0.5905511811023622},{"duration":0.13636349999998743,"midi":49,"time":251.999748,"velocity":0.5905511811023622},{"duration":0.13636349999998743,"midi":42,"time":251.999748,"velocity":0.5905511811023622},{"duration":0.27272699999997485,"midi":36,"time":251.999748,"velocity":0.5905511811023622},{"duration":0.13636349999998743,"midi":42,"time":251.999748,"velocity":0.5905511811023622},{"duration":0.27272699999997485,"midi":35,"time":251.999748,"velocity":0.5905511811023622},{"duration":0.27272699999997485,"midi":40,"time":251.999748,"velocity":0.5905511811023622},{"duration":0.13636350000001585,"midi":40,"time":252.272475,"velocity":0.5905511811023622},{"duration":0.13636350000001585,"midi":42,"time":252.272475,"velocity":0.5905511811023622},{"duration":0.13636350000001585,"midi":42,"time":252.272475,"velocity":0.5905511811023622},{"duration":0.2727270000000033,"midi":36,"time":252.545202,"velocity":0.5905511811023622},{"duration":0.2727270000000033,"midi":40,"time":252.545202,"velocity":0.5905511811023622},{"duration":0.2727270000000033,"midi":36,"time":252.545202,"velocity":0.5905511811023622},{"duration":0.13636350000001585,"midi":38,"time":252.545202,"velocity":0.5905511811023622},{"duration":0.13636350000001585,"midi":42,"time":252.545202,"velocity":0.5905511811023622},{"duration":0.2727270000000033,"midi":40,"time":252.545202,"velocity":0.5905511811023622},{"duration":0.13636350000001585,"midi":49,"time":252.545202,"velocity":0.5905511811023622},{"duration":0.2727270000000033,"midi":35,"time":252.545202,"velocity":0.5905511811023622},{"duration":0.13636350000001585,"midi":42,"time":252.545202,"velocity":0.5905511811023622},{"duration":0.13636350000001585,"midi":38,"time":252.545202,"velocity":0.5905511811023622},{"duration":0.2727270000000033,"midi":35,"time":252.545202,"velocity":0.5905511811023622},{"duration":0.13636350000001585,"midi":42,"time":252.817929,"velocity":0.5905511811023622},{"duration":0.13636350000001585,"midi":40,"time":252.817929,"velocity":0.5905511811023622},{"duration":0.13636350000001585,"midi":42,"time":252.817929,"velocity":0.5905511811023622},{"duration":0.13636349999998743,"midi":38,"time":252.9542925,"velocity":0.5905511811023622},{"duration":0.13636349999998743,"midi":38,"time":252.9542925,"velocity":0.5905511811023622},{"duration":0.2727270000000033,"midi":36,"time":253.090656,"velocity":0.5905511811023622},{"duration":0.2727270000000033,"midi":40,"time":253.090656,"velocity":0.5905511811023622},{"duration":0.13636350000001585,"midi":42,"time":253.090656,"velocity":0.5905511811023622},{"duration":0.2727270000000033,"midi":36,"time":253.090656,"velocity":0.5905511811023622},{"duration":0.2727270000000033,"midi":35,"time":253.090656,"velocity":0.5905511811023622},{"duration":0.2727270000000033,"midi":35,"time":253.090656,"velocity":0.5905511811023622},{"duration":0.2727270000000033,"midi":40,"time":253.090656,"velocity":0.5905511811023622},{"duration":0.13636350000001585,"midi":42,"time":253.090656,"velocity":0.5905511811023622},{"duration":0.2727270000000033,"midi":38,"time":253.090656,"velocity":0.5905511811023622},{"duration":0.2727270000000033,"midi":38,"time":253.090656,"velocity":0.5905511811023622},{"duration":0.13636349999998743,"midi":42,"time":253.363383,"velocity":0.5905511811023622},{"duration":0.13636349999998743,"midi":42,"time":253.363383,"velocity":0.5905511811023622},{"duration":0.13636349999998743,"midi":40,"time":253.363383,"velocity":0.5905511811023622},{"duration":0.13636349999998743,"midi":42,"time":253.63611,"velocity":0.5905511811023622},{"duration":0.2727270000000033,"midi":38,"time":253.63611,"velocity":0.5905511811023622},{"duration":0.13636349999998743,"midi":49,"time":253.63611,"velocity":0.5905511811023622},{"duration":0.2727270000000033,"midi":38,"time":253.63611,"velocity":0.5905511811023622},{"duration":0.2727270000000033,"midi":40,"time":253.63611,"velocity":0.5905511811023622},{"duration":0.2727270000000033,"midi":40,"time":253.63611,"velocity":0.5905511811023622},{"duration":0.2727270000000033,"midi":36,"time":253.63611,"velocity":0.5905511811023622},{"duration":0.13636349999998743,"midi":42,"time":253.63611,"velocity":0.5905511811023622},{"duration":0.2727270000000033,"midi":36,"time":253.63611,"velocity":0.5905511811023622},{"duration":0.2727270000000033,"midi":35,"time":253.63611,"velocity":0.5905511811023622},{"duration":0.2727270000000033,"midi":35,"time":253.63611,"velocity":0.5905511811023622},{"duration":0.13636349999998743,"midi":42,"time":253.908837,"velocity":0.5905511811023622},{"duration":0.13636349999998743,"midi":42,"time":253.908837,"velocity":0.5905511811023622},{"duration":0.13636349999998743,"midi":40,"time":253.908837,"velocity":0.5905511811023622},{"duration":0.27272699999997485,"midi":35,"time":254.181564,"velocity":0.5905511811023622},{"duration":0.27272699999997485,"midi":40,"time":254.181564,"velocity":0.5905511811023622},{"duration":0.27272699999997485,"midi":36,"time":254.181564,"velocity":0.5905511811023622},{"duration":0.13636349999998743,"midi":42,"time":254.181564,"velocity":0.5905511811023622},{"duration":0.13636349999998743,"midi":49,"time":254.181564,"velocity":0.5905511811023622},{"duration":0.27272699999997485,"midi":38,"time":254.181564,"velocity":0.5905511811023622},{"duration":0.27272699999997485,"midi":40,"time":254.181564,"velocity":0.5905511811023622},{"duration":0.13636349999998743,"midi":42,"time":254.181564,"velocity":0.5905511811023622},{"duration":0.27272699999997485,"midi":38,"time":254.181564,"velocity":0.5905511811023622},{"duration":0.27272699999997485,"midi":36,"time":254.181564,"velocity":0.5905511811023622},{"duration":0.27272699999997485,"midi":35,"time":254.181564,"velocity":0.5905511811023622},{"duration":0.13636350000001585,"midi":42,"time":254.45429099999998,"velocity":0.5905511811023622},{"duration":0.13636350000001585,"midi":40,"time":254.45429099999998,"velocity":0.5905511811023622},{"duration":0.13636350000001585,"midi":42,"time":254.45429099999998,"velocity":0.5905511811023622},{"duration":0.2727270000000033,"midi":36,"time":254.727018,"velocity":0.5905511811023622},{"duration":0.2727270000000033,"midi":36,"time":254.727018,"velocity":0.5905511811023622},{"duration":0.13636350000001585,"midi":42,"time":254.727018,"velocity":0.5905511811023622},{"duration":0.2727270000000033,"midi":35,"time":254.727018,"velocity":0.5905511811023622},{"duration":0.13636350000001585,"midi":42,"time":254.727018,"velocity":0.5905511811023622},{"duration":0.2727270000000033,"midi":40,"time":254.727018,"velocity":0.5905511811023622},{"duration":0.2727270000000033,"midi":40,"time":254.727018,"velocity":0.5905511811023622},{"duration":0.13636350000001585,"midi":49,"time":254.727018,"velocity":0.5905511811023622},{"duration":0.2727270000000033,"midi":35,"time":254.727018,"velocity":0.5905511811023622},{"duration":0.13636350000001585,"midi":38,"time":254.727018,"velocity":0.5905511811023622},{"duration":0.13636350000001585,"midi":38,"time":254.727018,"velocity":0.5905511811023622},{"duration":0.13636350000001585,"midi":42,"time":254.999745,"velocity":0.5905511811023622},{"duration":0.13636350000001585,"midi":40,"time":254.999745,"velocity":0.5905511811023622},{"duration":0.13636350000001585,"midi":42,"time":254.999745,"velocity":0.5905511811023622},{"duration":0.2727270000000033,"midi":40,"time":255.272472,"velocity":0.5905511811023622},{"duration":0.2727270000000033,"midi":35,"time":255.272472,"velocity":0.5905511811023622},{"duration":0.2727270000000033,"midi":36,"time":255.272472,"velocity":0.5905511811023622},{"duration":0.2727270000000033,"midi":38,"time":255.272472,"velocity":0.5905511811023622},{"duration":0.2727270000000033,"midi":40,"time":255.272472,"velocity":0.5905511811023622},{"duration":0.2727270000000033,"midi":36,"time":255.272472,"velocity":0.5905511811023622},{"duration":0.13636350000001585,"midi":42,"time":255.272472,"velocity":0.5905511811023622},{"duration":0.2727270000000033,"midi":38,"time":255.272472,"velocity":0.5905511811023622},{"duration":0.13636350000001585,"midi":42,"time":255.272472,"velocity":0.5905511811023622},{"duration":0.2727270000000033,"midi":35,"time":255.272472,"velocity":0.5905511811023622},{"duration":0.13636349999998743,"midi":40,"time":255.545199,"velocity":0.5905511811023622},{"duration":0.13636349999998743,"midi":42,"time":255.545199,"velocity":0.5905511811023622},{"duration":0.13636349999998743,"midi":42,"time":255.545199,"velocity":0.5905511811023622},{"duration":0.13636349999998743,"midi":42,"time":255.817926,"velocity":0.5905511811023622},{"duration":0.27272699999997485,"midi":38,"time":255.817926,"velocity":0.5905511811023622},{"duration":0.27272699999997485,"midi":40,"time":255.817926,"velocity":0.5905511811023622},{"duration":0.27272699999997485,"midi":38,"time":255.817926,"velocity":0.5905511811023622},{"duration":0.13636349999998743,"midi":42,"time":255.817926,"velocity":0.5905511811023622},{"duration":0.27272699999997485,"midi":40,"time":255.817926,"velocity":0.5905511811023622},{"duration":0.27272699999997485,"midi":36,"time":255.817926,"velocity":0.5905511811023622},{"duration":0.27272699999997485,"midi":36,"time":255.817926,"velocity":0.5905511811023622},{"duration":0.13636349999998743,"midi":49,"time":255.817926,"velocity":0.5905511811023622},{"duration":0.27272699999997485,"midi":35,"time":255.817926,"velocity":0.5905511811023622},{"duration":0.27272699999997485,"midi":35,"time":255.817926,"velocity":0.5905511811023622},{"duration":0.13636350000001585,"midi":42,"time":256.090653,"velocity":0.5905511811023622},{"duration":0.13636350000001585,"midi":40,"time":256.090653,"velocity":0.5905511811023622},{"duration":0.13636350000001585,"midi":42,"time":256.090653,"velocity":0.5905511811023622},{"duration":0.27272699999997485,"midi":35,"time":256.36338,"velocity":0.5905511811023622},{"duration":0.27272699999997485,"midi":40,"time":256.36338,"velocity":0.5905511811023622},{"duration":0.13636350000001585,"midi":49,"time":256.36338,"velocity":0.5905511811023622},{"duration":0.27272699999997485,"midi":40,"time":256.36338,"velocity":0.5905511811023622},{"duration":0.27272699999997485,"midi":38,"time":256.36338,"velocity":0.5905511811023622},{"duration":0.13636350000001585,"midi":42,"time":256.36338,"velocity":0.5905511811023622},{"duration":0.27272699999997485,"midi":35,"time":256.36338,"velocity":0.5905511811023622},{"duration":0.27272699999997485,"midi":38,"time":256.36338,"velocity":0.5905511811023622},{"duration":0.27272699999997485,"midi":36,"time":256.36338,"velocity":0.5905511811023622},{"duration":0.27272699999997485,"midi":36,"time":256.36338,"velocity":0.5905511811023622},{"duration":0.13636350000001585,"midi":42,"time":256.36338,"velocity":0.5905511811023622},{"duration":0.13636350000001585,"midi":42,"time":256.636107,"velocity":0.5905511811023622},{"duration":0.13636350000001585,"midi":40,"time":256.636107,"velocity":0.5905511811023622},{"duration":0.13636350000001585,"midi":42,"time":256.636107,"velocity":0.5905511811023622},{"duration":0.27272699999997485,"midi":36,"time":256.908834,"velocity":0.5905511811023622},{"duration":0.136363499999959,"midi":38,"time":256.908834,"velocity":0.5905511811023622},{"duration":0.136363499999959,"midi":42,"time":256.908834,"velocity":0.5905511811023622},{"duration":0.136363499999959,"midi":49,"time":256.908834,"velocity":0.5905511811023622},{"duration":0.27272699999997485,"midi":35,"time":256.908834,"velocity":0.5905511811023622},{"duration":0.136363499999959,"midi":38,"time":256.908834,"velocity":0.5905511811023622},{"duration":0.27272699999997485,"midi":40,"time":256.908834,"velocity":0.5905511811023622},{"duration":0.27272699999997485,"midi":36,"time":256.908834,"velocity":0.5905511811023622},{"duration":0.136363499999959,"midi":42,"time":256.908834,"velocity":0.5905511811023622},{"duration":0.27272699999997485,"midi":35,"time":256.908834,"velocity":0.5905511811023622},{"duration":0.27272699999997485,"midi":40,"time":256.908834,"velocity":0.5905511811023622},{"duration":0.13636350000001585,"midi":38,"time":257.0451975,"velocity":0.5905511811023622},{"duration":0.13636350000001585,"midi":38,"time":257.0451975,"velocity":0.5905511811023622},{"duration":0.13636350000001585,"midi":42,"time":257.181561,"velocity":0.5905511811023622},{"duration":0.13636350000001585,"midi":40,"time":257.181561,"velocity":0.5905511811023622},{"duration":0.13636350000001585,"midi":42,"time":257.181561,"velocity":0.5905511811023622},{"duration":0.136363499999959,"midi":42,"time":257.454288,"velocity":0.5905511811023622},{"duration":0.27272699999997485,"midi":38,"time":257.454288,"velocity":0.5905511811023622},{"duration":0.27272699999997485,"midi":35,"time":257.454288,"velocity":0.5905511811023622},{"duration":0.27272699999997485,"midi":38,"time":257.454288,"velocity":0.5905511811023622},{"duration":0.27272699999997485,"midi":40,"time":257.454288,"velocity":0.5905511811023622},{"duration":0.136363499999959,"midi":42,"time":257.454288,"velocity":0.5905511811023622},{"duration":0.27272699999997485,"midi":36,"time":257.454288,"velocity":0.5905511811023622},{"duration":0.27272699999997485,"midi":35,"time":257.454288,"velocity":0.5905511811023622},{"duration":0.27272699999997485,"midi":36,"time":257.454288,"velocity":0.5905511811023622},{"duration":0.27272699999997485,"midi":40,"time":257.454288,"velocity":0.5905511811023622},{"duration":0.13636350000001585,"midi":42,"time":257.727015,"velocity":0.5905511811023622},{"duration":0.13636350000001585,"midi":42,"time":257.727015,"velocity":0.5905511811023622},{"duration":0.13636350000001585,"midi":40,"time":257.727015,"velocity":0.5905511811023622},{"duration":0.2727270000000317,"midi":36,"time":257.99974199999997,"velocity":0.5905511811023622},{"duration":0.2727270000000317,"midi":36,"time":257.99974199999997,"velocity":0.5905511811023622},{"duration":0.2727270000000317,"midi":35,"time":257.99974199999997,"velocity":0.5905511811023622},{"duration":0.2727270000000317,"midi":40,"time":257.99974199999997,"velocity":0.5905511811023622},{"duration":0.2727270000000317,"midi":38,"time":257.99974199999997,"velocity":0.5905511811023622},{"duration":0.2727270000000317,"midi":35,"time":257.99974199999997,"velocity":0.5905511811023622},{"duration":0.2727270000000317,"midi":38,"time":257.99974199999997,"velocity":0.5905511811023622},{"duration":0.13636350000001585,"midi":42,"time":257.99974199999997,"velocity":0.5905511811023622},{"duration":0.13636350000001585,"midi":42,"time":257.99974199999997,"velocity":0.5905511811023622},{"duration":0.13636350000001585,"midi":49,"time":257.99974199999997,"velocity":0.5905511811023622},{"duration":0.2727270000000317,"midi":40,"time":257.99974199999997,"velocity":0.5905511811023622},{"duration":0.13636350000001585,"midi":42,"time":258.272469,"velocity":0.5905511811023622},{"duration":0.13636350000001585,"midi":40,"time":258.272469,"velocity":0.5905511811023622},{"duration":0.13636350000001585,"midi":42,"time":258.272469,"velocity":0.5905511811023622},{"duration":0.2727270000000317,"midi":40,"time":258.545196,"velocity":0.5905511811023622},{"duration":0.2727270000000317,"midi":35,"time":258.545196,"velocity":0.5905511811023622},{"duration":0.2727270000000317,"midi":38,"time":258.545196,"velocity":0.5905511811023622},{"duration":0.2727270000000317,"midi":36,"time":258.545196,"velocity":0.5905511811023622},{"duration":0.2727270000000317,"midi":36,"time":258.545196,"velocity":0.5905511811023622},{"duration":0.2727270000000317,"midi":40,"time":258.545196,"velocity":0.5905511811023622},{"duration":0.13636350000001585,"midi":42,"time":258.545196,"velocity":0.5905511811023622},{"duration":0.2727270000000317,"midi":38,"time":258.545196,"velocity":0.5905511811023622},{"duration":0.13636350000001585,"midi":49,"time":258.545196,"velocity":0.5905511811023622},{"duration":0.2727270000000317,"midi":35,"time":258.545196,"velocity":0.5905511811023622},{"duration":0.13636350000001585,"midi":42,"time":258.545196,"velocity":0.5905511811023622},{"duration":0.13636350000001585,"midi":40,"time":258.817923,"velocity":0.5905511811023622},{"duration":0.13636350000001585,"midi":42,"time":258.817923,"velocity":0.5905511811023622},{"duration":0.13636350000001585,"midi":42,"time":258.817923,"velocity":0.5905511811023622},{"duration":0.2727270000000317,"midi":35,"time":259.09065,"velocity":0.5905511811023622},{"duration":0.13636350000001585,"midi":49,"time":259.09065,"velocity":0.5905511811023622},{"duration":0.2727270000000317,"midi":36,"time":259.09065,"velocity":0.5905511811023622},{"duration":0.2727270000000317,"midi":35,"time":259.09065,"velocity":0.5905511811023622},{"duration":0.2727270000000317,"midi":36,"time":259.09065,"velocity":0.5905511811023622},{"duration":0.13636350000001585,"midi":42,"time":259.09065,"velocity":0.5905511811023622},{"duration":0.2727270000000317,"midi":40,"time":259.09065,"velocity":0.5905511811023622},{"duration":0.13636350000001585,"midi":38,"time":259.09065,"velocity":0.5905511811023622},{"duration":0.13636350000001585,"midi":38,"time":259.09065,"velocity":0.5905511811023622},{"duration":0.2727270000000317,"midi":40,"time":259.09065,"velocity":0.5905511811023622},{"duration":0.13636350000001585,"midi":42,"time":259.09065,"velocity":0.5905511811023622},{"duration":0.136363499999959,"midi":42,"time":259.363377,"velocity":0.5905511811023622},{"duration":0.136363499999959,"midi":42,"time":259.363377,"velocity":0.5905511811023622},{"duration":0.136363499999959,"midi":40,"time":259.363377,"velocity":0.5905511811023622},{"duration":0.2727270000000317,"midi":35,"time":259.636104,"velocity":0.5905511811023622},{"duration":0.2727270000000317,"midi":38,"time":259.636104,"velocity":0.5905511811023622},{"duration":0.2727270000000317,"midi":36,"time":259.636104,"velocity":0.5905511811023622},{"duration":0.13636350000001585,"midi":42,"time":259.636104,"velocity":0.5905511811023622},{"duration":0.2727270000000317,"midi":38,"time":259.636104,"velocity":0.5905511811023622},{"duration":0.2727270000000317,"midi":36,"time":259.636104,"velocity":0.5905511811023622},{"duration":0.2727270000000317,"midi":35,"time":259.636104,"velocity":0.5905511811023622},{"duration":0.13636350000001585,"midi":42,"time":259.636104,"velocity":0.5905511811023622},{"duration":0.2727270000000317,"midi":40,"time":259.636104,"velocity":0.5905511811023622},{"duration":0.2727270000000317,"midi":40,"time":259.636104,"velocity":0.5905511811023622},{"duration":0.136363499999959,"midi":42,"time":259.908831,"velocity":0.5905511811023622},{"duration":0.136363499999959,"midi":40,"time":259.908831,"velocity":0.5905511811023622},{"duration":0.136363499999959,"midi":42,"time":259.908831,"velocity":0.5905511811023622},{"duration":0.13636350000001585,"midi":42,"time":260.181558,"velocity":0.5905511811023622},{"duration":0.27272699999997485,"midi":36,"time":260.181558,"velocity":0.5905511811023622},{"duration":0.27272699999997485,"midi":36,"time":260.181558,"velocity":0.5905511811023622},{"duration":0.27272699999997485,"midi":35,"time":260.181558,"velocity":0.5905511811023622},{"duration":0.13636350000001585,"midi":49,"time":260.181558,"velocity":0.5905511811023622},{"duration":0.13636350000001585,"midi":42,"time":260.181558,"velocity":0.5905511811023622},{"duration":0.27272699999997485,"midi":40,"time":260.181558,"velocity":0.5905511811023622},{"duration":0.27272699999997485,"midi":35,"time":260.181558,"velocity":0.5905511811023622},{"duration":0.27272699999997485,"midi":40,"time":260.181558,"velocity":0.5905511811023622},{"duration":0.27272699999997485,"midi":38,"time":260.181558,"velocity":0.5905511811023622},{"duration":0.27272699999997485,"midi":38,"time":260.181558,"velocity":0.5905511811023622},{"duration":0.13636350000001585,"midi":40,"time":260.45428499999997,"velocity":0.5905511811023622},{"duration":0.13636350000001585,"midi":42,"time":260.45428499999997,"velocity":0.5905511811023622},{"duration":0.13636350000001585,"midi":42,"time":260.45428499999997,"velocity":0.5905511811023622},{"duration":0.27272699999997485,"midi":36,"time":260.727012,"velocity":0.5905511811023622},{"duration":0.13636350000001585,"midi":42,"time":260.727012,"velocity":0.5905511811023622},{"duration":0.13636350000001585,"midi":49,"time":260.727012,"velocity":0.5905511811023622},{"duration":0.27272699999997485,"midi":40,"time":260.727012,"velocity":0.5905511811023622},{"duration":0.27272699999997485,"midi":38,"time":260.727012,"velocity":0.5905511811023622},{"duration":0.27272699999997485,"midi":40,"time":260.727012,"velocity":0.5905511811023622},{"duration":0.27272699999997485,"midi":38,"time":260.727012,"velocity":0.5905511811023622},{"duration":0.13636350000001585,"midi":42,"time":260.727012,"velocity":0.5905511811023622},{"duration":0.27272699999997485,"midi":36,"time":260.727012,"velocity":0.5905511811023622},{"duration":0.27272699999997485,"midi":35,"time":260.727012,"velocity":0.5905511811023622},{"duration":0.27272699999997485,"midi":35,"time":260.727012,"velocity":0.5905511811023622},{"duration":0.13636350000001585,"midi":42,"time":260.999739,"velocity":0.5905511811023622},{"duration":0.13636350000001585,"midi":40,"time":260.999739,"velocity":0.5905511811023622},{"duration":0.13636350000001585,"midi":42,"time":260.999739,"velocity":0.5905511811023622},{"duration":0.13636350000001585,"midi":42,"time":261.272466,"velocity":0.5905511811023622},{"duration":0.27272699999997485,"midi":38,"time":261.272466,"velocity":0.5905511811023622},{"duration":0.27272699999997485,"midi":35,"time":261.272466,"velocity":0.5905511811023622},{"duration":0.27272699999997485,"midi":38,"time":261.272466,"velocity":0.5905511811023622},{"duration":0.27272699999997485,"midi":36,"time":261.272466,"velocity":0.5905511811023622},{"duration":0.27272699999997485,"midi":40,"time":261.272466,"velocity":0.5905511811023622},{"duration":0.27272699999997485,"midi":40,"time":261.272466,"velocity":0.5905511811023622},{"duration":0.27272699999997485,"midi":36,"time":261.272466,"velocity":0.5905511811023622},{"duration":0.13636350000001585,"midi":49,"time":261.272466,"velocity":0.5905511811023622},{"duration":0.27272699999997485,"midi":35,"time":261.272466,"velocity":0.5905511811023622},{"duration":0.13636350000001585,"midi":42,"time":261.272466,"velocity":0.5905511811023622},{"duration":0.13636350000001585,"midi":42,"time":261.545193,"velocity":0.5905511811023622},{"duration":0.13636350000001585,"midi":40,"time":261.545193,"velocity":0.5905511811023622},{"duration":0.13636350000001585,"midi":49,"time":261.545193,"velocity":0.5905511811023622},{"duration":0.13636350000001585,"midi":42,"time":261.545193,"velocity":0.5905511811023622},{"duration":0.27272699999997485,"midi":36,"time":261.81792,"velocity":0.5905511811023622},{"duration":0.27272699999997485,"midi":35,"time":261.81792,"velocity":0.5905511811023622},{"duration":0.27272699999997485,"midi":38,"time":261.81792,"velocity":0.5905511811023622},{"duration":0.27272699999997485,"midi":36,"time":261.81792,"velocity":0.5905511811023622},{"duration":0.136363499999959,"midi":42,"time":261.81792,"velocity":0.5905511811023622},{"duration":0.27272699999997485,"midi":35,"time":261.81792,"velocity":0.5905511811023622},{"duration":0.27272699999997485,"midi":40,"time":261.81792,"velocity":0.5905511811023622},{"duration":0.27272699999997485,"midi":40,"time":261.81792,"velocity":0.5905511811023622},{"duration":0.136363499999959,"midi":42,"time":261.81792,"velocity":0.5905511811023622},{"duration":0.27272699999997485,"midi":38,"time":261.81792,"velocity":0.5905511811023622},{"duration":0.13636350000001585,"midi":42,"time":262.090647,"velocity":0.5905511811023622},{"duration":0.13636350000001585,"midi":42,"time":262.090647,"velocity":0.5905511811023622},{"duration":0.13636350000001585,"midi":40,"time":262.090647,"velocity":0.5905511811023622},{"duration":0.136363499999959,"midi":42,"time":262.363374,"velocity":0.5905511811023622},{"duration":0.27272699999997485,"midi":38,"time":262.363374,"velocity":0.5905511811023622},{"duration":0.27272699999997485,"midi":36,"time":262.363374,"velocity":0.5905511811023622},{"duration":0.27272699999997485,"midi":38,"time":262.363374,"velocity":0.5905511811023622},{"duration":0.27272699999997485,"midi":36,"time":262.363374,"velocity":0.5905511811023622},{"duration":0.27272699999997485,"midi":35,"time":262.363374,"velocity":0.5905511811023622},{"duration":0.27272699999997485,"midi":40,"time":262.363374,"velocity":0.5905511811023622},{"duration":0.136363499999959,"midi":49,"time":262.363374,"velocity":0.5905511811023622},{"duration":0.136363499999959,"midi":42,"time":262.363374,"velocity":0.5905511811023622},{"duration":0.27272699999997485,"midi":40,"time":262.363374,"velocity":0.5905511811023622},{"duration":0.27272699999997485,"midi":35,"time":262.363374,"velocity":0.5905511811023622},{"duration":0.13636350000001585,"midi":42,"time":262.636101,"velocity":0.5905511811023622},{"duration":0.13636350000001585,"midi":42,"time":262.636101,"velocity":0.5905511811023622},{"duration":0.13636350000001585,"midi":40,"time":262.636101,"velocity":0.5905511811023622},{"duration":0.2727270000000317,"midi":38,"time":262.90882799999997,"velocity":0.5905511811023622},{"duration":0.13636350000001585,"midi":49,"time":262.90882799999997,"velocity":0.5905511811023622},{"duration":0.2727270000000317,"midi":36,"time":262.90882799999997,"velocity":0.5905511811023622},{"duration":0.2727270000000317,"midi":40,"time":262.90882799999997,"velocity":0.5905511811023622},{"duration":0.2727270000000317,"midi":35,"time":262.90882799999997,"velocity":0.5905511811023622},{"duration":0.2727270000000317,"midi":38,"time":262.90882799999997,"velocity":0.5905511811023622},{"duration":0.2727270000000317,"midi":36,"time":262.90882799999997,"velocity":0.5905511811023622},{"duration":0.13636350000001585,"midi":42,"time":262.90882799999997,"velocity":0.5905511811023622},{"duration":0.13636350000001585,"midi":42,"time":262.90882799999997,"velocity":0.5905511811023622},{"duration":0.2727270000000317,"midi":35,"time":262.90882799999997,"velocity":0.5905511811023622},{"duration":0.2727270000000317,"midi":40,"time":262.90882799999997,"velocity":0.5905511811023622},{"duration":0.13636350000001585,"midi":40,"time":263.181555,"velocity":0.5905511811023622},{"duration":0.13636350000001585,"midi":42,"time":263.181555,"velocity":0.5905511811023622},{"duration":0.13636350000001585,"midi":42,"time":263.181555,"velocity":0.5905511811023622},{"duration":0.2727270000000317,"midi":35,"time":263.454282,"velocity":0.5905511811023622},{"duration":0.13636350000001585,"midi":38,"time":263.454282,"velocity":0.5905511811023622},{"duration":0.13636350000001585,"midi":49,"time":263.454282,"velocity":0.5905511811023622},{"duration":0.2727270000000317,"midi":36,"time":263.454282,"velocity":0.5905511811023622},{"duration":0.2727270000000317,"midi":35,"time":263.454282,"velocity":0.5905511811023622},{"duration":0.2727270000000317,"midi":40,"time":263.454282,"velocity":0.5905511811023622},{"duration":0.2727270000000317,"midi":40,"time":263.454282,"velocity":0.5905511811023622},{"duration":0.13636350000001585,"midi":38,"time":263.454282,"velocity":0.5905511811023622},{"duration":0.2727270000000317,"midi":36,"time":263.454282,"velocity":0.5905511811023622},{"duration":0.13636350000001585,"midi":42,"time":263.454282,"velocity":0.5905511811023622},{"duration":0.13636350000001585,"midi":42,"time":263.454282,"velocity":0.5905511811023622},{"duration":0.13636350000001585,"midi":42,"time":263.727009,"velocity":0.5905511811023622},{"duration":0.13636350000001585,"midi":40,"time":263.727009,"velocity":0.5905511811023622},{"duration":0.13636350000001585,"midi":42,"time":263.727009,"velocity":0.5905511811023622},{"duration":0.2727270000000317,"midi":35,"time":263.999736,"velocity":0.5905511811023622},{"duration":0.2727270000000317,"midi":40,"time":263.999736,"velocity":0.5905511811023622},{"duration":0.2727270000000317,"midi":36,"time":263.999736,"velocity":0.5905511811023622},{"duration":0.2727270000000317,"midi":38,"time":263.999736,"velocity":0.5905511811023622},{"duration":0.13636350000001585,"midi":42,"time":263.999736,"velocity":0.5905511811023622},{"duration":0.2727270000000317,"midi":35,"time":263.999736,"velocity":0.5905511811023622},{"duration":0.13636350000001585,"midi":42,"time":263.999736,"velocity":0.5905511811023622},{"duration":0.2727270000000317,"midi":40,"time":263.999736,"velocity":0.5905511811023622},{"duration":0.2727270000000317,"midi":36,"time":263.999736,"velocity":0.5905511811023622},{"duration":0.2727270000000317,"midi":38,"time":263.999736,"velocity":0.5905511811023622},{"duration":0.136363499999959,"midi":42,"time":264.272463,"velocity":0.5905511811023622},{"duration":0.136363499999959,"midi":42,"time":264.272463,"velocity":0.5905511811023622},{"duration":0.136363499999959,"midi":40,"time":264.272463,"velocity":0.5905511811023622},{"duration":0.2727270000000317,"midi":36,"time":264.54519,"velocity":0.5905511811023622},{"duration":0.2727270000000317,"midi":40,"time":264.54519,"velocity":0.5905511811023622},{"duration":0.2727270000000317,"midi":35,"time":264.54519,"velocity":0.5905511811023622},{"duration":0.13636350000001585,"midi":42,"time":264.54519,"velocity":0.5905511811023622},{"duration":0.2727270000000317,"midi":38,"time":264.54519,"velocity":0.5905511811023622},{"duration":0.2727270000000317,"midi":35,"time":264.54519,"velocity":0.5905511811023622},{"duration":0.2727270000000317,"midi":40,"time":264.54519,"velocity":0.5905511811023622},{"duration":0.2727270000000317,"midi":36,"time":264.54519,"velocity":0.5905511811023622},{"duration":0.13636350000001585,"midi":49,"time":264.54519,"velocity":0.5905511811023622},{"duration":0.2727270000000317,"midi":38,"time":264.54519,"velocity":0.5905511811023622},{"duration":0.13636350000001585,"midi":42,"time":264.54519,"velocity":0.5905511811023622},{"duration":0.136363499999959,"midi":42,"time":264.817917,"velocity":0.5905511811023622},{"duration":0.136363499999959,"midi":40,"time":264.817917,"velocity":0.5905511811023622},{"duration":0.136363499999959,"midi":42,"time":264.817917,"velocity":0.5905511811023622},{"duration":0.27272699999997485,"midi":36,"time":265.090644,"velocity":0.5905511811023622},{"duration":0.27272699999997485,"midi":35,"time":265.090644,"velocity":0.5905511811023622},{"duration":0.27272699999997485,"midi":38,"time":265.090644,"velocity":0.5905511811023622},{"duration":0.13636350000001585,"midi":42,"time":265.090644,"velocity":0.5905511811023622},{"duration":0.27272699999997485,"midi":40,"time":265.090644,"velocity":0.5905511811023622},{"duration":0.27272699999997485,"midi":36,"time":265.090644,"velocity":0.5905511811023622},{"duration":0.27272699999997485,"midi":38,"time":265.090644,"velocity":0.5905511811023622},{"duration":0.27272699999997485,"midi":35,"time":265.090644,"velocity":0.5905511811023622},{"duration":0.27272699999997485,"midi":40,"time":265.090644,"velocity":0.5905511811023622},{"duration":0.13636350000001585,"midi":42,"time":265.090644,"velocity":0.5905511811023622},{"duration":0.13636350000001585,"midi":49,"time":265.090644,"velocity":0.5905511811023622},{"duration":0.13636350000001585,"midi":42,"time":265.363371,"velocity":0.5905511811023622},{"duration":0.13636350000001585,"midi":42,"time":265.363371,"velocity":0.5905511811023622},{"duration":0.13636350000001585,"midi":40,"time":265.363371,"velocity":0.5905511811023622},{"duration":0.13636350000001585,"midi":38,"time":265.636098,"velocity":0.5905511811023622},{"duration":0.13636350000001585,"midi":42,"time":265.636098,"velocity":0.5905511811023622},{"duration":0.27272699999997485,"midi":36,"time":265.636098,"velocity":0.5905511811023622},{"duration":0.27272699999997485,"midi":40,"time":265.636098,"velocity":0.5905511811023622},{"duration":0.27272699999997485,"midi":36,"time":265.636098,"velocity":0.5905511811023622},{"duration":0.13636350000001585,"midi":49,"time":265.636098,"velocity":0.5905511811023622},{"duration":0.27272699999997485,"midi":35,"time":265.636098,"velocity":0.5905511811023622},{"duration":0.13636350000001585,"midi":42,"time":265.636098,"velocity":0.5905511811023622},{"duration":0.27272699999997485,"midi":35,"time":265.636098,"velocity":0.5905511811023622},{"duration":0.13636350000001585,"midi":38,"time":265.636098,"velocity":0.5905511811023622},{"duration":0.27272699999997485,"midi":40,"time":265.636098,"velocity":0.5905511811023622},{"duration":0.136363499999959,"midi":38,"time":265.7724615,"velocity":0.5905511811023622},{"duration":0.136363499999959,"midi":38,"time":265.7724615,"velocity":0.5905511811023622},{"duration":0.13636350000001585,"midi":42,"time":265.908825,"velocity":0.5905511811023622},{"duration":0.13636350000001585,"midi":42,"time":265.908825,"velocity":0.5905511811023622},{"duration":0.13636350000001585,"midi":40,"time":265.908825,"velocity":0.5905511811023622},{"duration":0.27272699999997485,"midi":36,"time":266.181552,"velocity":0.5905511811023622},{"duration":0.27272699999997485,"midi":36,"time":266.181552,"velocity":0.5905511811023622},{"duration":0.27272699999997485,"midi":35,"time":266.181552,"velocity":0.5905511811023622},{"duration":0.27272699999997485,"midi":40,"time":266.181552,"velocity":0.5905511811023622},{"duration":0.27272699999997485,"midi":35,"time":266.181552,"velocity":0.5905511811023622},{"duration":0.27272699999997485,"midi":38,"time":266.181552,"velocity":0.5905511811023622},{"duration":0.136363499999959,"midi":42,"time":266.181552,"velocity":0.5905511811023622},{"duration":0.27272699999997485,"midi":38,"time":266.181552,"velocity":0.5905511811023622},{"duration":0.136363499999959,"midi":42,"time":266.181552,"velocity":0.5905511811023622},{"duration":0.27272699999997485,"midi":40,"time":266.181552,"velocity":0.5905511811023622},{"duration":0.13636350000001585,"midi":42,"time":266.454279,"velocity":0.5905511811023622},{"duration":0.13636350000001585,"midi":42,"time":266.454279,"velocity":0.5905511811023622},{"duration":0.13636350000001585,"midi":40,"time":266.454279,"velocity":0.5905511811023622},{"duration":0.27272699999997485,"midi":38,"time":266.727006,"velocity":0.5905511811023622},{"duration":0.27272699999997485,"midi":36,"time":266.727006,"velocity":0.5905511811023622},{"duration":0.136363499999959,"midi":49,"time":266.727006,"velocity":0.5905511811023622},{"duration":0.27272699999997485,"midi":36,"time":266.727006,"velocity":0.5905511811023622},{"duration":0.27272699999997485,"midi":40,"time":266.727006,"velocity":0.5905511811023622},{"duration":0.27272699999997485,"midi":40,"time":266.727006,"velocity":0.5905511811023622},{"duration":0.27272699999997485,"midi":35,"time":266.727006,"velocity":0.5905511811023622},{"duration":0.136363499999959,"midi":42,"time":266.727006,"velocity":0.5905511811023622},{"duration":0.27272699999997485,"midi":35,"time":266.727006,"velocity":0.5905511811023622},{"duration":0.136363499999959,"midi":42,"time":266.727006,"velocity":0.5905511811023622},{"duration":0.27272699999997485,"midi":38,"time":266.727006,"velocity":0.5905511811023622},{"duration":0.13636350000001585,"midi":42,"time":266.999733,"velocity":0.5905511811023622},{"duration":0.13636350000001585,"midi":40,"time":266.999733,"velocity":0.5905511811023622},{"duration":0.13636350000001585,"midi":42,"time":266.999733,"velocity":0.5905511811023622},{"duration":0.136363499999959,"midi":49,"time":267.27246,"velocity":0.5905511811023622},{"duration":0.136363499999959,"midi":42,"time":267.27246,"velocity":0.5905511811023622},{"duration":0.27272699999997485,"midi":36,"time":267.27246,"velocity":0.5905511811023622},{"duration":0.27272699999997485,"midi":36,"time":267.27246,"velocity":0.5905511811023622},{"duration":0.27272699999997485,"midi":35,"time":267.27246,"velocity":0.5905511811023622},{"duration":0.27272699999997485,"midi":40,"time":267.27246,"velocity":0.5905511811023622},{"duration":0.27272699999997485,"midi":38,"time":267.27246,"velocity":0.5905511811023622},{"duration":0.27272699999997485,"midi":35,"time":267.27246,"velocity":0.5905511811023622},{"duration":0.136363499999959,"midi":42,"time":267.27246,"velocity":0.5905511811023622},{"duration":0.27272699999997485,"midi":40,"time":267.27246,"velocity":0.5905511811023622},{"duration":0.27272699999997485,"midi":38,"time":267.27246,"velocity":0.5905511811023622},{"duration":0.13636350000001585,"midi":42,"time":267.545187,"velocity":0.5905511811023622},{"duration":0.13636350000001585,"midi":42,"time":267.545187,"velocity":0.5905511811023622},{"duration":0.13636350000001585,"midi":40,"time":267.545187,"velocity":0.5905511811023622},{"duration":0.2727270000000317,"midi":36,"time":267.817914,"velocity":0.5905511811023622},{"duration":0.2727270000000317,"midi":36,"time":267.817914,"velocity":0.5905511811023622},{"duration":0.13636350000001585,"midi":42,"time":267.817914,"velocity":0.5905511811023622},{"duration":0.2727270000000317,"midi":35,"time":267.817914,"velocity":0.5905511811023622},{"duration":0.2727270000000317,"midi":40,"time":267.817914,"velocity":0.5905511811023622},{"duration":0.13636350000001585,"midi":42,"time":267.817914,"velocity":0.5905511811023622},{"duration":0.2727270000000317,"midi":35,"time":267.817914,"velocity":0.5905511811023622},{"duration":0.13636350000001585,"midi":38,"time":267.817914,"velocity":0.5905511811023622},{"duration":0.13636350000001585,"midi":49,"time":267.817914,"velocity":0.5905511811023622},{"duration":0.2727270000000317,"midi":40,"time":267.817914,"velocity":0.5905511811023622},{"duration":0.13636350000001585,"midi":38,"time":267.817914,"velocity":0.5905511811023622},{"duration":0.13636350000001585,"midi":42,"time":268.090641,"velocity":0.5905511811023622},{"duration":0.13636350000001585,"midi":40,"time":268.090641,"velocity":0.5905511811023622},{"duration":0.13636350000001585,"midi":42,"time":268.090641,"velocity":0.5905511811023622},{"duration":0.13636350000001585,"midi":42,"time":268.363368,"velocity":0.5905511811023622},{"duration":0.2727270000000317,"midi":36,"time":268.363368,"velocity":0.5905511811023622},{"duration":0.2727270000000317,"midi":40,"time":268.363368,"velocity":0.5905511811023622},{"duration":0.2727270000000317,"midi":35,"time":268.363368,"velocity":0.5905511811023622},{"duration":0.13636350000001585,"midi":42,"time":268.363368,"velocity":0.5905511811023622},{"duration":0.2727270000000317,"midi":38,"time":268.363368,"velocity":0.5905511811023622},{"duration":0.2727270000000317,"midi":38,"time":268.363368,"velocity":0.5905511811023622},{"duration":0.2727270000000317,"midi":36,"time":268.363368,"velocity":0.5905511811023622},{"duration":0.2727270000000317,"midi":40,"time":268.363368,"velocity":0.5905511811023622},{"duration":0.2727270000000317,"midi":35,"time":268.363368,"velocity":0.5905511811023622},{"duration":0.136363499999959,"midi":42,"time":268.636095,"velocity":0.5905511811023622},{"duration":0.136363499999959,"midi":42,"time":268.636095,"velocity":0.5905511811023622},{"duration":0.136363499999959,"midi":40,"time":268.636095,"velocity":0.5905511811023622},{"duration":0.13636350000001585,"midi":42,"time":268.908822,"velocity":0.5905511811023622},{"duration":0.13636350000001585,"midi":42,"time":268.908822,"velocity":0.5905511811023622},{"duration":0.2727270000000317,"midi":36,"time":268.908822,"velocity":0.5905511811023622},{"duration":0.2727270000000317,"midi":40,"time":268.908822,"velocity":0.5905511811023622},{"duration":0.2727270000000317,"midi":35,"time":268.908822,"velocity":0.5905511811023622},{"duration":0.2727270000000317,"midi":35,"time":268.908822,"velocity":0.5905511811023622},{"duration":0.2727270000000317,"midi":36,"time":268.908822,"velocity":0.5905511811023622},{"duration":0.13636350000001585,"midi":49,"time":268.908822,"velocity":0.5905511811023622},{"duration":0.2727270000000317,"midi":38,"time":268.908822,"velocity":0.5905511811023622},{"duration":0.2727270000000317,"midi":40,"time":268.908822,"velocity":0.5905511811023622},{"duration":0.2727270000000317,"midi":38,"time":268.908822,"velocity":0.5905511811023622},{"duration":0.136363499999959,"midi":42,"time":269.181549,"velocity":0.5905511811023622},{"duration":0.136363499999959,"midi":42,"time":269.181549,"velocity":0.5905511811023622},{"duration":0.136363499999959,"midi":40,"time":269.181549,"velocity":0.5905511811023622},{"duration":0.13636350000001585,"midi":42,"time":269.454276,"velocity":0.5905511811023622},{"duration":0.13636350000001585,"midi":49,"time":269.454276,"velocity":0.5905511811023622},{"duration":0.2727270000000317,"midi":36,"time":269.454276,"velocity":0.5905511811023622},{"duration":0.2727270000000317,"midi":38,"time":269.454276,"velocity":0.5905511811023622},{"duration":0.2727270000000317,"midi":36,"time":269.454276,"velocity":0.5905511811023622},{"duration":0.2727270000000317,"midi":40,"time":269.454276,"velocity":0.5905511811023622},{"duration":0.2727270000000317,"midi":35,"time":269.454276,"velocity":0.5905511811023622},{"duration":0.13636350000001585,"midi":42,"time":269.454276,"velocity":0.5905511811023622},{"duration":0.2727270000000317,"midi":40,"time":269.454276,"velocity":0.5905511811023622},{"duration":0.2727270000000317,"midi":35,"time":269.454276,"velocity":0.5905511811023622},{"duration":0.2727270000000317,"midi":38,"time":269.454276,"velocity":0.5905511811023622},{"duration":0.136363499999959,"midi":40,"time":269.727003,"velocity":0.5905511811023622},{"duration":0.136363499999959,"midi":42,"time":269.727003,"velocity":0.5905511811023622},{"duration":0.136363499999959,"midi":42,"time":269.727003,"velocity":0.5905511811023622},{"duration":0.27272699999997485,"midi":36,"time":269.99973,"velocity":0.5905511811023622},{"duration":0.13636350000001585,"midi":42,"time":269.99973,"velocity":0.5905511811023622},{"duration":0.13636350000001585,"midi":38,"time":269.99973,"velocity":0.5905511811023622},{"duration":0.13636350000001585,"midi":42,"time":269.99973,"velocity":0.5905511811023622},{"duration":0.27272699999997485,"midi":35,"time":269.99973,"velocity":0.5905511811023622},{"duration":0.27272699999997485,"midi":36,"time":269.99973,"velocity":0.5905511811023622},{"duration":0.13636350000001585,"midi":49,"time":269.99973,"velocity":0.5905511811023622},{"duration":0.27272699999997485,"midi":40,"time":269.99973,"velocity":0.5905511811023622},{"duration":0.27272699999997485,"midi":40,"time":269.99973,"velocity":0.5905511811023622},{"duration":0.27272699999997485,"midi":35,"time":269.99973,"velocity":0.5905511811023622},{"duration":0.13636350000001585,"midi":38,"time":269.99973,"velocity":0.5905511811023622},{"duration":0.13636350000001585,"midi":42,"time":270.272457,"velocity":0.5905511811023622},{"duration":0.13636350000001585,"midi":42,"time":270.272457,"velocity":0.5905511811023622},{"duration":0.13636350000001585,"midi":40,"time":270.272457,"velocity":0.5905511811023622},{"duration":0.13636350000001585,"midi":38,"time":270.4088205,"velocity":0.5905511811023622},{"duration":0.13636350000001585,"midi":38,"time":270.4088205,"velocity":0.5905511811023622},{"duration":0.27272699999997485,"midi":38,"time":270.545184,"velocity":0.5905511811023622},{"duration":0.27272699999997485,"midi":35,"time":270.545184,"velocity":0.5905511811023622},{"duration":0.27272699999997485,"midi":40,"time":270.545184,"velocity":0.5905511811023622},{"duration":0.27272699999997485,"midi":36,"time":270.545184,"velocity":0.5905511811023622},{"duration":0.13636350000001585,"midi":42,"time":270.545184,"velocity":0.5905511811023622},{"duration":0.27272699999997485,"midi":38,"time":270.545184,"velocity":0.5905511811023622},{"duration":0.27272699999997485,"midi":36,"time":270.545184,"velocity":0.5905511811023622},{"duration":0.27272699999997485,"midi":40,"time":270.545184,"velocity":0.5905511811023622},{"duration":0.27272699999997485,"midi":35,"time":270.545184,"velocity":0.5905511811023622},{"duration":0.13636350000001585,"midi":42,"time":270.545184,"velocity":0.5905511811023622},{"duration":0.13636350000001585,"midi":42,"time":270.817911,"velocity":0.5905511811023622},{"duration":0.13636350000001585,"midi":40,"time":270.817911,"velocity":0.5905511811023622},{"duration":0.13636350000001585,"midi":42,"time":270.817911,"velocity":0.5905511811023622},{"duration":0.27272699999997485,"midi":35,"time":271.090638,"velocity":0.5905511811023622},{"duration":0.136363499999959,"midi":49,"time":271.090638,"velocity":0.5905511811023622},{"duration":0.27272699999997485,"midi":40,"time":271.090638,"velocity":0.5905511811023622},{"duration":0.27272699999997485,"midi":35,"time":271.090638,"velocity":0.5905511811023622},{"duration":0.136363499999959,"midi":42,"time":271.090638,"velocity":0.5905511811023622},{"duration":0.27272699999997485,"midi":36,"time":271.090638,"velocity":0.5905511811023622},{"duration":0.136363499999959,"midi":42,"time":271.090638,"velocity":0.5905511811023622},{"duration":0.27272699999997485,"midi":38,"time":271.090638,"velocity":0.5905511811023622},{"duration":0.27272699999997485,"midi":36,"time":271.090638,"velocity":0.5905511811023622},{"duration":0.27272699999997485,"midi":40,"time":271.090638,"velocity":0.5905511811023622},{"duration":0.27272699999997485,"midi":38,"time":271.090638,"velocity":0.5905511811023622},{"duration":0.13636350000001585,"midi":40,"time":271.363365,"velocity":0.5905511811023622},{"duration":0.13636350000001585,"midi":42,"time":271.363365,"velocity":0.5905511811023622},{"duration":0.13636350000001585,"midi":42,"time":271.363365,"velocity":0.5905511811023622},{"duration":0.27272699999997485,"midi":40,"time":271.636092,"velocity":0.5905511811023622},{"duration":0.27272699999997485,"midi":38,"time":271.636092,"velocity":0.5905511811023622},{"duration":0.27272699999997485,"midi":40,"time":271.636092,"velocity":0.5905511811023622},{"duration":0.136363499999959,"midi":42,"time":271.636092,"velocity":0.5905511811023622},{"duration":0.27272699999997485,"midi":35,"time":271.636092,"velocity":0.5905511811023622},{"duration":0.27272699999997485,"midi":36,"time":271.636092,"velocity":0.5905511811023622},{"duration":0.27272699999997485,"midi":38,"time":271.636092,"velocity":0.5905511811023622},{"duration":0.136363499999959,"midi":42,"time":271.636092,"velocity":0.5905511811023622},{"duration":0.27272699999997485,"midi":36,"time":271.636092,"velocity":0.5905511811023622},{"duration":0.136363499999959,"midi":49,"time":271.636092,"velocity":0.5905511811023622},{"duration":0.27272699999997485,"midi":35,"time":271.636092,"velocity":0.5905511811023622},{"duration":0.13636350000001585,"midi":42,"time":271.908819,"velocity":0.5905511811023622},{"duration":0.13636350000001585,"midi":42,"time":271.908819,"velocity":0.5905511811023622},{"duration":0.13636350000001585,"midi":40,"time":271.908819,"velocity":0.5905511811023622},{"duration":0.2727270000000317,"midi":35,"time":272.18154599999997,"velocity":0.5905511811023622},{"duration":0.2727270000000317,"midi":40,"time":272.18154599999997,"velocity":0.5905511811023622},{"duration":0.2727270000000317,"midi":40,"time":272.18154599999997,"velocity":0.5905511811023622},{"duration":0.13636350000001585,"midi":42,"time":272.18154599999997,"velocity":0.5905511811023622},{"duration":0.13636350000001585,"midi":38,"time":272.18154599999997,"velocity":0.5905511811023622},{"duration":0.2727270000000317,"midi":35,"time":272.18154599999997,"velocity":0.5905511811023622},{"duration":0.13636350000001585,"midi":49,"time":272.18154599999997,"velocity":0.5905511811023622},{"duration":0.2727270000000317,"midi":36,"time":272.18154599999997,"velocity":0.5905511811023622},{"duration":0.13636350000001585,"midi":38,"time":272.18154599999997,"velocity":0.5905511811023622},{"duration":0.13636350000001585,"midi":42,"time":272.18154599999997,"velocity":0.5905511811023622},{"duration":0.2727270000000317,"midi":36,"time":272.18154599999997,"velocity":0.5905511811023622},{"duration":0.13636350000001585,"midi":42,"time":272.454273,"velocity":0.5905511811023622},{"duration":0.13636350000001585,"midi":40,"time":272.454273,"velocity":0.5905511811023622},{"duration":0.13636350000001585,"midi":42,"time":272.454273,"velocity":0.5905511811023622},{"duration":0.2727270000000317,"midi":38,"time":272.727,"velocity":0.5905511811023622},{"duration":0.2727270000000317,"midi":36,"time":272.727,"velocity":0.5905511811023622},{"duration":0.2727270000000317,"midi":40,"time":272.727,"velocity":0.5905511811023622},{"duration":0.2727270000000317,"midi":38,"time":272.727,"velocity":0.5905511811023622},{"duration":0.2727270000000317,"midi":35,"time":272.727,"velocity":0.5905511811023622},{"duration":0.2727270000000317,"midi":36,"time":272.727,"velocity":0.5905511811023622},{"duration":0.2727270000000317,"midi":40,"time":272.727,"velocity":0.5905511811023622},{"duration":0.13636350000001585,"midi":42,"time":272.727,"velocity":0.5905511811023622},{"duration":0.13636350000001585,"midi":42,"time":272.727,"velocity":0.5905511811023622},{"duration":0.2727270000000317,"midi":35,"time":272.727,"velocity":0.5905511811023622},{"duration":0.13636350000001585,"midi":42,"time":272.999727,"velocity":0.5905511811023622},{"duration":0.13636350000001585,"midi":40,"time":272.999727,"velocity":0.5905511811023622},{"duration":0.13636350000001585,"midi":42,"time":272.999727,"velocity":0.5905511811023622},{"duration":0.2727270000000317,"midi":36,"time":273.272454,"velocity":0.5905511811023622},{"duration":0.2727270000000317,"midi":35,"time":273.272454,"velocity":0.5905511811023622},{"duration":0.2727270000000317,"midi":35,"time":273.272454,"velocity":0.5905511811023622},{"duration":0.2727270000000317,"midi":40,"time":273.272454,"velocity":0.5905511811023622},{"duration":0.13636350000001585,"midi":42,"time":273.272454,"velocity":0.5905511811023622},{"duration":0.13636350000001585,"midi":49,"time":273.272454,"velocity":0.5905511811023622},{"duration":0.2727270000000317,"midi":38,"time":273.272454,"velocity":0.5905511811023622},{"duration":0.13636350000001585,"midi":42,"time":273.272454,"velocity":0.5905511811023622},{"duration":0.2727270000000317,"midi":40,"time":273.272454,"velocity":0.5905511811023622},{"duration":0.2727270000000317,"midi":38,"time":273.272454,"velocity":0.5905511811023622},{"duration":0.2727270000000317,"midi":36,"time":273.272454,"velocity":0.5905511811023622},{"duration":0.136363499999959,"midi":42,"time":273.545181,"velocity":0.5905511811023622},{"duration":0.136363499999959,"midi":40,"time":273.545181,"velocity":0.5905511811023622},{"duration":0.136363499999959,"midi":42,"time":273.545181,"velocity":0.5905511811023622},{"duration":0.13636350000001585,"midi":42,"time":273.817908,"velocity":0.5905511811023622},{"duration":0.13636350000001585,"midi":42,"time":273.817908,"velocity":0.5905511811023622},{"duration":0.2727270000000317,"midi":40,"time":273.817908,"velocity":0.5905511811023622},{"duration":0.2727270000000317,"midi":38,"time":273.817908,"velocity":0.5905511811023622},{"duration":0.2727270000000317,"midi":40,"time":273.817908,"velocity":0.5905511811023622},{"duration":0.13636350000001585,"midi":49,"time":273.817908,"velocity":0.5905511811023622},{"duration":0.2727270000000317,"midi":36,"time":273.817908,"velocity":0.5905511811023622},{"duration":0.2727270000000317,"midi":36,"time":273.817908,"velocity":0.5905511811023622},{"duration":0.2727270000000317,"midi":35,"time":273.817908,"velocity":0.5905511811023622},{"duration":0.2727270000000317,"midi":38,"time":273.817908,"velocity":0.5905511811023622},{"duration":0.2727270000000317,"midi":35,"time":273.817908,"velocity":0.5905511811023622},{"duration":0.136363499999959,"midi":42,"time":274.090635,"velocity":0.5905511811023622},{"duration":0.136363499999959,"midi":40,"time":274.090635,"velocity":0.5905511811023622},{"duration":0.136363499999959,"midi":42,"time":274.090635,"velocity":0.5905511811023622},{"duration":0.27272699999997485,"midi":40,"time":274.363362,"velocity":0.5905511811023622},{"duration":0.13636350000001585,"midi":38,"time":274.363362,"velocity":0.5905511811023622},{"duration":0.27272699999997485,"midi":36,"time":274.363362,"velocity":0.5905511811023622},{"duration":0.13636350000001585,"midi":38,"time":274.363362,"velocity":0.5905511811023622},{"duration":0.27272699999997485,"midi":35,"time":274.363362,"velocity":0.5905511811023622},{"duration":0.27272699999997485,"midi":35,"time":274.363362,"velocity":0.5905511811023622},{"duration":0.13636350000001585,"midi":49,"time":274.363362,"velocity":0.5905511811023622},{"duration":0.13636350000001585,"midi":42,"time":274.363362,"velocity":0.5905511811023622},{"duration":0.27272699999997485,"midi":36,"time":274.363362,"velocity":0.5905511811023622},{"duration":0.13636350000001585,"midi":42,"time":274.363362,"velocity":0.5905511811023622},{"duration":0.27272699999997485,"midi":40,"time":274.363362,"velocity":0.5905511811023622},{"duration":0.136363499999959,"midi":38,"time":274.4997255,"velocity":0.5905511811023622},{"duration":0.136363499999959,"midi":38,"time":274.4997255,"velocity":0.5905511811023622},{"duration":0.13636350000001585,"midi":42,"time":274.63608899999997,"velocity":0.5905511811023622},{"duration":0.13636350000001585,"midi":40,"time":274.63608899999997,"velocity":0.5905511811023622},{"duration":0.13636350000001585,"midi":42,"time":274.63608899999997,"velocity":0.5905511811023622},{"duration":0.27272699999997485,"midi":38,"time":274.908816,"velocity":0.5905511811023622},{"duration":0.13636350000001585,"midi":42,"time":274.908816,"velocity":0.5905511811023622},{"duration":0.27272699999997485,"midi":40,"time":274.908816,"velocity":0.5905511811023622},{"duration":0.27272699999997485,"midi":40,"time":274.908816,"velocity":0.5905511811023622},{"duration":0.27272699999997485,"midi":35,"time":274.908816,"velocity":0.5905511811023622},{"duration":0.27272699999997485,"midi":38,"time":274.908816,"velocity":0.5905511811023622},{"duration":0.27272699999997485,"midi":35,"time":274.908816,"velocity":0.5905511811023622},{"duration":0.27272699999997485,"midi":36,"time":274.908816,"velocity":0.5905511811023622},{"duration":0.27272699999997485,"midi":36,"time":274.908816,"velocity":0.5905511811023622},{"duration":0.13636350000001585,"midi":42,"time":274.908816,"velocity":0.5905511811023622},{"duration":0.13636350000001585,"midi":40,"time":275.181543,"velocity":0.5905511811023622},{"duration":0.13636350000001585,"midi":42,"time":275.181543,"velocity":0.5905511811023622},{"duration":0.13636350000001585,"midi":42,"time":275.181543,"velocity":0.5905511811023622},{"duration":0.27272699999997485,"midi":36,"time":275.45427,"velocity":0.5905511811023622},{"duration":0.13636350000001585,"midi":42,"time":275.45427,"velocity":0.5905511811023622},{"duration":0.27272699999997485,"midi":40,"time":275.45427,"velocity":0.5905511811023622},{"duration":0.27272699999997485,"midi":35,"time":275.45427,"velocity":0.5905511811023622},{"duration":0.27272699999997485,"midi":38,"time":275.45427,"velocity":0.5905511811023622},{"duration":0.27272699999997485,"midi":35,"time":275.45427,"velocity":0.5905511811023622},{"duration":0.27272699999997485,"midi":38,"time":275.45427,"velocity":0.5905511811023622},{"duration":0.27272699999997485,"midi":36,"time":275.45427,"velocity":0.5905511811023622},{"duration":0.27272699999997485,"midi":40,"time":275.45427,"velocity":0.5905511811023622},{"duration":0.13636350000001585,"midi":42,"time":275.45427,"velocity":0.5905511811023622},{"duration":0.13636350000001585,"midi":49,"time":275.45427,"velocity":0.5905511811023622},{"duration":0.13636350000001585,"midi":40,"time":275.726997,"velocity":0.5905511811023622},{"duration":0.13636350000001585,"midi":42,"time":275.726997,"velocity":0.5905511811023622},{"duration":0.13636350000001585,"midi":42,"time":275.726997,"velocity":0.5905511811023622},{"duration":0.136363499999959,"midi":49,"time":275.999724,"velocity":0.5905511811023622},{"duration":0.27272699999997485,"midi":35,"time":275.999724,"velocity":0.5905511811023622},{"duration":0.27272699999997485,"midi":36,"time":275.999724,"velocity":0.5905511811023622},{"duration":0.27272699999997485,"midi":38,"time":275.999724,"velocity":0.5905511811023622},{"duration":0.136363499999959,"midi":42,"time":275.999724,"velocity":0.5905511811023622},{"duration":0.27272699999997485,"midi":38,"time":275.999724,"velocity":0.5905511811023622},{"duration":0.27272699999997485,"midi":36,"time":275.999724,"velocity":0.5905511811023622},{"duration":0.27272699999997485,"midi":40,"time":275.999724,"velocity":0.5905511811023622},{"duration":0.136363499999959,"midi":42,"time":275.999724,"velocity":0.5905511811023622},{"duration":0.27272699999997485,"midi":40,"time":275.999724,"velocity":0.5905511811023622},{"duration":0.27272699999997485,"midi":35,"time":275.999724,"velocity":0.5905511811023622},{"duration":0.13636350000001585,"midi":42,"time":276.272451,"velocity":0.5905511811023622},{"duration":0.13636350000001585,"midi":40,"time":276.272451,"velocity":0.5905511811023622},{"duration":0.13636350000001585,"midi":42,"time":276.272451,"velocity":0.5905511811023622},{"duration":0.27272699999997485,"midi":40,"time":276.545178,"velocity":0.5905511811023622},{"duration":0.27272699999997485,"midi":35,"time":276.545178,"velocity":0.5905511811023622},{"duration":0.136363499999959,"midi":49,"time":276.545178,"velocity":0.5905511811023622},{"duration":0.136363499999959,"midi":42,"time":276.545178,"velocity":0.5905511811023622},{"duration":0.136363499999959,"midi":38,"time":276.545178,"velocity":0.5905511811023622},{"duration":0.136363499999959,"midi":42,"time":276.545178,"velocity":0.5905511811023622},{"duration":0.27272699999997485,"midi":40,"time":276.545178,"velocity":0.5905511811023622},{"duration":0.27272699999997485,"midi":36,"time":276.545178,"velocity":0.5905511811023622},{"duration":0.27272699999997485,"midi":35,"time":276.545178,"velocity":0.5905511811023622},{"duration":0.27272699999997485,"midi":36,"time":276.545178,"velocity":0.5905511811023622},{"duration":0.136363499999959,"midi":38,"time":276.545178,"velocity":0.5905511811023622},{"duration":0.13636350000001585,"midi":40,"time":276.817905,"velocity":0.5905511811023622},{"duration":0.13636350000001585,"midi":42,"time":276.817905,"velocity":0.5905511811023622},{"duration":0.13636350000001585,"midi":42,"time":276.817905,"velocity":0.5905511811023622},{"duration":0.2727270000000317,"midi":36,"time":277.09063199999997,"velocity":0.5905511811023622},{"duration":0.2727270000000317,"midi":35,"time":277.09063199999997,"velocity":0.5905511811023622},{"duration":0.2727270000000317,"midi":38,"time":277.09063199999997,"velocity":0.5905511811023622},{"duration":0.2727270000000317,"midi":40,"time":277.09063199999997,"velocity":0.5905511811023622},{"duration":0.2727270000000317,"midi":38,"time":277.09063199999997,"velocity":0.5905511811023622},{"duration":0.2727270000000317,"midi":35,"time":277.09063199999997,"velocity":0.5905511811023622},{"duration":0.13636350000001585,"midi":42,"time":277.09063199999997,"velocity":0.5905511811023622},{"duration":0.2727270000000317,"midi":40,"time":277.09063199999997,"velocity":0.5905511811023622},{"duration":0.13636350000001585,"midi":42,"time":277.09063199999997,"velocity":0.5905511811023622},{"duration":0.2727270000000317,"midi":36,"time":277.09063199999997,"velocity":0.5905511811023622},{"duration":0.13636350000001585,"midi":42,"time":277.363359,"velocity":0.5905511811023622},{"duration":0.13636350000001585,"midi":42,"time":277.363359,"velocity":0.5905511811023622},{"duration":0.13636350000001585,"midi":40,"time":277.363359,"velocity":0.5905511811023622},{"duration":0.13636350000001585,"midi":49,"time":277.636086,"velocity":0.5905511811023622},{"duration":0.13636350000001585,"midi":42,"time":277.636086,"velocity":0.5905511811023622},{"duration":0.2727270000000317,"midi":38,"time":277.636086,"velocity":0.5905511811023622},{"duration":0.2727270000000317,"midi":40,"time":277.636086,"velocity":0.5905511811023622},{"duration":0.2727270000000317,"midi":38,"time":277.636086,"velocity":0.5905511811023622},{"duration":0.2727270000000317,"midi":35,"time":277.636086,"velocity":0.5905511811023622},{"duration":0.13636350000001585,"midi":42,"time":277.636086,"velocity":0.5905511811023622},{"duration":0.2727270000000317,"midi":36,"time":277.636086,"velocity":0.5905511811023622},{"duration":0.2727270000000317,"midi":40,"time":277.636086,"velocity":0.5905511811023622},{"duration":0.2727270000000317,"midi":35,"time":277.636086,"velocity":0.5905511811023622},{"duration":0.2727270000000317,"midi":36,"time":277.636086,"velocity":0.5905511811023622},{"duration":0.13636350000001585,"midi":42,"time":277.908813,"velocity":0.5905511811023622},{"duration":0.13636350000001585,"midi":42,"time":277.908813,"velocity":0.5905511811023622},{"duration":0.13636350000001585,"midi":40,"time":277.908813,"velocity":0.5905511811023622},{"duration":0.2727270000000317,"midi":38,"time":278.18154,"velocity":0.5905511811023622},{"duration":0.13636350000001585,"midi":42,"time":278.18154,"velocity":0.5905511811023622},{"duration":0.2727270000000317,"midi":38,"time":278.18154,"velocity":0.5905511811023622},{"duration":0.13636350000001585,"midi":49,"time":278.18154,"velocity":0.5905511811023622},{"duration":0.2727270000000317,"midi":35,"time":278.18154,"velocity":0.5905511811023622},{"duration":0.2727270000000317,"midi":36,"time":278.18154,"velocity":0.5905511811023622},{"duration":0.13636350000001585,"midi":42,"time":278.18154,"velocity":0.5905511811023622},{"duration":0.2727270000000317,"midi":36,"time":278.18154,"velocity":0.5905511811023622},{"duration":0.2727270000000317,"midi":35,"time":278.18154,"velocity":0.5905511811023622},{"duration":0.2727270000000317,"midi":40,"time":278.18154,"velocity":0.5905511811023622},{"duration":0.2727270000000317,"midi":40,"time":278.18154,"velocity":0.5905511811023622},{"duration":0.136363499999959,"midi":42,"time":278.454267,"velocity":0.5905511811023622},{"duration":0.136363499999959,"midi":42,"time":278.454267,"velocity":0.5905511811023622},{"duration":0.136363499999959,"midi":40,"time":278.454267,"velocity":0.5905511811023622},{"duration":0.13636350000001585,"midi":42,"time":278.726994,"velocity":0.5905511811023622},{"duration":0.2727270000000317,"midi":38,"time":278.726994,"velocity":0.5905511811023622},{"duration":0.2727270000000317,"midi":36,"time":278.726994,"velocity":0.5905511811023622},{"duration":0.13636350000001585,"midi":49,"time":278.726994,"velocity":0.5905511811023622},{"duration":0.2727270000000317,"midi":36,"time":278.726994,"velocity":0.5905511811023622},{"duration":0.2727270000000317,"midi":35,"time":278.726994,"velocity":0.5905511811023622},{"duration":0.2727270000000317,"midi":35,"time":278.726994,"velocity":0.5905511811023622},{"duration":0.2727270000000317,"midi":38,"time":278.726994,"velocity":0.5905511811023622},{"duration":0.2727270000000317,"midi":40,"time":278.726994,"velocity":0.5905511811023622},{"duration":0.13636350000001585,"midi":42,"time":278.726994,"velocity":0.5905511811023622},{"duration":0.2727270000000317,"midi":40,"time":278.726994,"velocity":0.5905511811023622},{"duration":0.136363499999959,"midi":42,"time":278.999721,"velocity":0.5905511811023622},{"duration":0.136363499999959,"midi":40,"time":278.999721,"velocity":0.5905511811023622},{"duration":0.136363499999959,"midi":42,"time":278.999721,"velocity":0.5905511811023622},{"duration":0.136363499999959,"midi":49,"time":278.999721,"velocity":0.5905511811023622}]},{"instrument":{"family":"guitar","number":30,"name":"distortion guitar"},"notes":[{"duration":0.272727,"midi":51,"time":0,"velocity":0.5196850393700787},{"duration":0.272727,"midi":39,"time":0.272727,"velocity":0.5196850393700787},{"duration":0.27272700000000005,"midi":39,"time":0.6818175,"velocity":0.5196850393700787},{"duration":0.27272699999999994,"midi":39,"time":1.090908,"velocity":0.5196850393700787},{"duration":0.27272700000000016,"midi":39,"time":1.363635,"velocity":0.5196850393700787},{"duration":0.27272699999999994,"midi":39,"time":1.4999985,"velocity":0.5196850393700787},{"duration":0.27272699999999994,"midi":50,"time":1.909089,"velocity":0.5196850393700787},{"duration":0.2727269999999997,"midi":52,"time":2.0454525,"velocity":0.5196850393700787},{"duration":0.5454539999999999,"midi":51,"time":2.181816,"velocity":0.5196850393700787},{"duration":0.2727269999999997,"midi":39,"time":2.454543,"velocity":0.5196850393700787},{"duration":0.2727269999999997,"midi":39,"time":2.8636335,"velocity":0.5196850393700787},{"duration":0.2727269999999997,"midi":40,"time":3.272724,"velocity":0.5196850393700787},{"duration":0.27272700000000016,"midi":52,"time":3.6818144999999998,"velocity":0.5196850393700787},{"duration":0.2727269999999997,"midi":40,"time":4.090905,"velocity":0.5196850393700787},{"duration":0.2727270000000006,"midi":39,"time":4.636359,"velocity":0.5196850393700787},{"duration":0.2727270000000006,"midi":51,"time":4.636359,"velocity":0.5196850393700787},{"duration":0.2727269999999997,"midi":39,"time":5.0454495,"velocity":0.5196850393700787},{"duration":0.2727270000000006,"midi":39,"time":5.45454,"velocity":0.5196850393700787},{"duration":0.2727269999999997,"midi":39,"time":5.727267,"velocity":0.5196850393700787},{"duration":0.2727269999999997,"midi":39,"time":5.8636305,"velocity":0.5196850393700787},{"duration":0.2727270000000006,"midi":50,"time":6.272721,"velocity":0.5196850393700787},{"duration":0.2727270000000006,"midi":52,"time":6.4090845,"velocity":0.5196850393700787},{"duration":0.2727269999999997,"midi":51,"time":6.545448,"velocity":0.5196850393700787},{"duration":0.2727269999999997,"midi":39,"time":6.818175,"velocity":0.5196850393700787},{"duration":0.2727270000000006,"midi":39,"time":7.2272655,"velocity":0.5196850393700787},{"duration":0.2727270000000006,"midi":51,"time":7.3636289999999995,"velocity":0.5196850393700787},{"duration":0.2727269999999997,"midi":52,"time":7.4999925,"velocity":0.5196850393700787},{"duration":0.5454540000000003,"midi":50,"time":7.636356,"velocity":0.5196850393700787},{"duration":0.2727270000000006,"midi":38,"time":7.7727195,"velocity":0.5196850393700787},{"duration":0.2727269999999997,"midi":38,"time":8.0454465,"velocity":0.5196850393700787},{"duration":0.2727269999999997,"midi":38,"time":8.3181735,"velocity":0.5196850393700787},{"duration":0.06818174999999904,"midi":38,"time":8.5909005,"velocity":0.5196850393700787},{"duration":0.2727269999999997,"midi":51,"time":8.727264,"velocity":0.5196850393700787},{"duration":0.2727269999999997,"midi":39,"time":8.999991,"velocity":0.5196850393700787},{"duration":0.2727270000000015,"midi":39,"time":9.4090815,"velocity":0.5196850393700787},{"duration":0.2727269999999997,"midi":39,"time":9.818172,"velocity":0.5196850393700787},{"duration":0.2727269999999997,"midi":39,"time":10.090899,"velocity":0.5196850393700787},{"duration":0.2727269999999997,"midi":39,"time":10.2272625,"velocity":0.5196850393700787},{"duration":0.2727269999999997,"midi":50,"time":10.636353,"velocity":0.5196850393700787},{"duration":0.2727269999999997,"midi":52,"time":10.7727165,"velocity":0.5196850393700787},{"duration":0.2727269999999997,"midi":51,"time":10.90908,"velocity":0.5196850393700787},{"duration":0.2727270000000015,"midi":39,"time":11.181807,"velocity":0.5196850393700787},{"duration":0.2727269999999997,"midi":39,"time":11.5908975,"velocity":0.5196850393700787},{"duration":0.2727269999999997,"midi":40,"time":11.999988,"velocity":0.5196850393700787},{"duration":0.2727269999999997,"midi":52,"time":12.4090785,"velocity":0.5196850393700787},{"duration":0.2727270000000015,"midi":40,"time":12.818169,"velocity":0.5196850393700787},{"duration":0.2727269999999997,"midi":51,"time":13.090896,"velocity":0.5196850393700787},{"duration":0.2727269999999997,"midi":39,"time":13.363623,"velocity":0.5196850393700787},{"duration":0.2727269999999997,"midi":39,"time":13.7727135,"velocity":0.5196850393700787},{"duration":0.2727269999999997,"midi":39,"time":14.181804,"velocity":0.5196850393700787},{"duration":0.2727269999999997,"midi":39,"time":14.454531,"velocity":0.5196850393700787},{"duration":0.2727270000000015,"midi":39,"time":14.5908945,"velocity":0.5196850393700787},{"duration":0.2727269999999997,"midi":50,"time":14.999985,"velocity":0.5196850393700787},{"duration":0.2727269999999997,"midi":52,"time":15.1363485,"velocity":0.5196850393700787},{"duration":0.2727269999999997,"midi":51,"time":15.272712,"velocity":0.5196850393700787},{"duration":0.2727269999999997,"midi":39,"time":15.545439,"velocity":0.5196850393700787},{"duration":0.2727269999999997,"midi":39,"time":15.9545295,"velocity":0.5196850393700787},{"duration":0.2727269999999997,"midi":51,"time":16.090893,"velocity":0.5196850393700787},{"duration":0.2727269999999997,"midi":52,"time":16.2272565,"velocity":0.5196850393700787},{"duration":0.2727269999999997,"midi":50,"time":16.36362,"velocity":0.5196850393700787},{"duration":0.40909050000000136,"midi":38,"time":16.4999835,"velocity":0.5196850393700787},{"duration":0.2727269999999997,"midi":50,"time":16.909074,"velocity":0.5196850393700787},{"duration":0.40909050000000136,"midi":38,"time":17.0454375,"velocity":0.5196850393700787},{"duration":0.2727269999999997,"midi":51,"time":17.454528,"velocity":0.5196850393700787},{"duration":0.2727269999999997,"midi":39,"time":17.727255,"velocity":0.5196850393700787},{"duration":0.2727269999999997,"midi":39,"time":18.1363455,"velocity":0.5196850393700787},{"duration":0.2727269999999997,"midi":39,"time":18.545436,"velocity":0.5196850393700787},{"duration":0.2727269999999997,"midi":39,"time":18.818163,"velocity":0.5196850393700787},{"duration":0.2727269999999997,"midi":39,"time":18.9545265,"velocity":0.5196850393700787},{"duration":0.2727269999999997,"midi":50,"time":19.363617,"velocity":0.5196850393700787},{"duration":0.2727269999999997,"midi":52,"time":19.4999805,"velocity":0.5196850393700787},{"duration":0.2727269999999997,"midi":51,"time":19.636344,"velocity":0.5196850393700787},{"duration":0.2727269999999997,"midi":39,"time":19.909071,"velocity":0.5196850393700787},{"duration":0.2727269999999997,"midi":39,"time":20.3181615,"velocity":0.5196850393700787},{"duration":0.2727269999999997,"midi":40,"time":20.727252,"velocity":0.5196850393700787},{"duration":0.2727269999999997,"midi":52,"time":21.1363425,"velocity":0.5196850393700787},{"duration":0.2727269999999997,"midi":40,"time":21.545433,"velocity":0.5196850393700787},{"duration":0.2727269999999997,"midi":51,"time":21.81816,"velocity":0.5196850393700787},{"duration":0.2727269999999997,"midi":39,"time":22.090887,"velocity":0.5196850393700787},{"duration":0.2727269999999997,"midi":39,"time":22.4999775,"velocity":0.5196850393700787},{"duration":0.2727269999999997,"midi":39,"time":22.909068,"velocity":0.5196850393700787},{"duration":0.2727269999999997,"midi":39,"time":23.181795,"velocity":0.5196850393700787},{"duration":0.2727269999999997,"midi":39,"time":23.3181585,"velocity":0.5196850393700787},{"duration":0.2727269999999997,"midi":50,"time":23.727249,"velocity":0.5196850393700787},{"duration":0.2727269999999997,"midi":52,"time":23.8636125,"velocity":0.5196850393700787},{"duration":0.2727269999999997,"midi":51,"time":23.999976,"velocity":0.5196850393700787},{"duration":0.2727269999999997,"midi":39,"time":24.272703,"velocity":0.5196850393700787},{"duration":0.2727269999999997,"midi":39,"time":24.6817935,"velocity":0.5196850393700787},{"duration":0.2727269999999997,"midi":51,"time":24.818157,"velocity":0.5196850393700787},{"duration":0.2727269999999997,"midi":52,"time":24.9545205,"velocity":0.5196850393700787},{"duration":0.2727269999999997,"midi":50,"time":25.090884,"velocity":0.5196850393700787},{"duration":0.2727269999999997,"midi":38,"time":25.2272475,"velocity":0.5196850393700787},{"duration":0.2727269999999997,"midi":38,"time":25.4999745,"velocity":0.5196850393700787},{"duration":0.2727269999999997,"midi":38,"time":25.7727015,"velocity":0.5196850393700787},{"duration":0.06818175000000082,"midi":38,"time":26.0454285,"velocity":0.5196850393700787},{"duration":0.2727269999999997,"midi":51,"time":26.181792,"velocity":0.5196850393700787},{"duration":0.2727269999999997,"midi":39,"time":26.454519,"velocity":0.5196850393700787},{"duration":0.2727269999999997,"midi":39,"time":26.8636095,"velocity":0.5196850393700787},{"duration":0.2727269999999997,"midi":39,"time":27.2727,"velocity":0.5196850393700787},{"duration":0.2727269999999997,"midi":39,"time":27.545427,"velocity":0.5196850393700787},{"duration":0.2727270000000033,"midi":39,"time":27.681790499999998,"velocity":0.5196850393700787},{"duration":0.2727269999999997,"midi":50,"time":28.090881,"velocity":0.5196850393700787},{"duration":0.2727269999999997,"midi":52,"time":28.2272445,"velocity":0.5196850393700787},{"duration":0.2727269999999997,"midi":51,"time":28.363608,"velocity":0.5196850393700787},{"duration":0.2727269999999997,"midi":39,"time":28.636335,"velocity":0.5196850393700787},{"duration":0.2727269999999997,"midi":39,"time":29.0454255,"velocity":0.5196850393700787},{"duration":0.2727270000000033,"midi":40,"time":29.454515999999998,"velocity":0.5196850393700787},{"duration":0.2727269999999997,"midi":52,"time":29.8636065,"velocity":0.5196850393700787},{"duration":0.2727269999999997,"midi":40,"time":30.272697,"velocity":0.5196850393700787},{"duration":0.2727269999999997,"midi":51,"time":30.545424,"velocity":0.5196850393700787},{"duration":0.2727269999999997,"midi":39,"time":30.818151,"velocity":0.5196850393700787},{"duration":0.2727270000000033,"midi":39,"time":31.227241499999998,"velocity":0.5196850393700787},{"duration":0.2727269999999997,"midi":39,"time":31.636332,"velocity":0.5196850393700787},{"duration":0.2727270000000033,"midi":39,"time":31.909059,"velocity":0.5196850393700787},{"duration":0.27272699999999617,"midi":39,"time":32.0454225,"velocity":0.5196850393700787},{"duration":0.2727270000000033,"midi":50,"time":32.454513,"velocity":0.5196850393700787},{"duration":0.27272699999999617,"midi":52,"time":32.5908765,"velocity":0.5196850393700787},{"duration":0.27272699999999617,"midi":51,"time":32.72724,"velocity":0.5196850393700787},{"duration":0.2727270000000033,"midi":39,"time":32.999967,"velocity":0.5196850393700787},{"duration":0.27272699999999617,"midi":39,"time":33.4090575,"velocity":0.5196850393700787},{"duration":0.2727270000000033,"midi":51,"time":33.545421,"velocity":0.5196850393700787},{"duration":0.2727270000000033,"midi":52,"time":33.6817845,"velocity":0.5196850393700787},{"duration":0.27272699999999617,"midi":51,"time":33.818148,"velocity":0.5196850393700787},{"duration":0.4090904999999978,"midi":39,"time":33.9545115,"velocity":0.5196850393700787},{"duration":0.27272699999999617,"midi":51,"time":34.363602,"velocity":0.5196850393700787},{"duration":0.4090904999999978,"midi":39,"time":34.4999655,"velocity":0.5196850393700787},{"duration":0.06818175000000082,"midi":39,"time":34.909056,"velocity":0.5196850393700787},{"duration":0.13636350000000164,"midi":39,"time":35.0454195,"velocity":0.5196850393700787},{"duration":0.13636349999999453,"midi":39,"time":35.181783,"velocity":0.5196850393700787},{"duration":0.06818175000000082,"midi":39,"time":35.3181465,"velocity":0.5196850393700787},{"duration":0.13636350000000164,"midi":40,"time":35.45451,"velocity":0.5196850393700787},{"duration":0.06818175000000082,"midi":40,"time":35.5908735,"velocity":0.5196850393700787},{"duration":0.06818175000000082,"midi":40,"time":35.727237,"velocity":0.5196850393700787},{"duration":0.13636350000000164,"midi":39,"time":35.8636005,"velocity":0.5196850393700787},{"duration":0.06818175000000082,"midi":39,"time":35.999964,"velocity":0.5196850393700787},{"duration":0.13636350000000164,"midi":39,"time":36.1363275,"velocity":0.5196850393700787},{"duration":0.06818175000000082,"midi":41,"time":36.272691,"velocity":0.5196850393700787},{"duration":0.06818175000000082,"midi":39,"time":36.409054499999996,"velocity":0.5196850393700787},{"duration":0.13636350000000164,"midi":41,"time":36.545418,"velocity":0.5196850393700787},{"duration":0.13636350000000164,"midi":38,"time":36.6817815,"velocity":0.5196850393700787},{"duration":0.13636350000000164,"midi":38,"time":36.818145,"velocity":0.5196850393700787},{"duration":0.13636349999999453,"midi":39,"time":36.9545085,"velocity":0.5196850393700787},{"duration":0.06818175000000082,"midi":39,"time":37.090872,"velocity":0.5196850393700787},{"duration":0.13636350000000164,"midi":39,"time":37.2272355,"velocity":0.5196850393700787},{"duration":0.13636350000000164,"midi":39,"time":37.363599,"velocity":0.5196850393700787},{"duration":0.06818175000000082,"midi":39,"time":37.4999625,"velocity":0.5196850393700787},{"duration":0.06818175000000082,"midi":40,"time":37.636326,"velocity":0.5196850393700787},{"duration":0.06818175000000082,"midi":40,"time":37.7726895,"velocity":0.5196850393700787},{"duration":0.13636350000000164,"midi":40,"time":37.909053,"velocity":0.5196850393700787},{"duration":0.06818175000000082,"midi":39,"time":38.0454165,"velocity":0.5196850393700787},{"duration":0.06818175000000082,"midi":39,"time":38.181779999999996,"velocity":0.5196850393700787},{"duration":0.13636350000000164,"midi":39,"time":38.3181435,"velocity":0.5196850393700787},{"duration":0.06818175000000082,"midi":42,"time":38.454507,"velocity":0.5196850393700787},{"duration":0.06818175000000082,"midi":39,"time":38.5908705,"velocity":0.5196850393700787},{"duration":0.13636349999999453,"midi":42,"time":38.727234,"velocity":0.5196850393700787},{"duration":0.13636350000000164,"midi":38,"time":38.8635975,"velocity":0.5196850393700787},{"duration":0.13636350000000164,"midi":38,"time":38.999961,"velocity":0.5196850393700787},{"duration":0.13636350000000164,"midi":41,"time":39.1363245,"velocity":0.5196850393700787},{"duration":0.06818175000000082,"midi":39,"time":39.272688,"velocity":0.5196850393700787},{"duration":0.13636350000000164,"midi":39,"time":39.4090515,"velocity":0.5196850393700787},{"duration":0.13636350000000164,"midi":39,"time":39.545415,"velocity":0.5196850393700787},{"duration":0.06818175000000082,"midi":39,"time":39.6817785,"velocity":0.5196850393700787},{"duration":0.13636349999999453,"midi":40,"time":39.818142,"velocity":0.5196850393700787},{"duration":0.06818175000000082,"midi":40,"time":39.954505499999996,"velocity":0.5196850393700787},{"duration":0.06818175000000082,"midi":40,"time":40.090869,"velocity":0.5196850393700787},{"duration":0.13636350000000164,"midi":39,"time":40.2272325,"velocity":0.5196850393700787},{"duration":0.06818175000000082,"midi":39,"time":40.363596,"velocity":0.5196850393700787},{"duration":0.13636349999999453,"midi":39,"time":40.4999595,"velocity":0.5196850393700787},{"duration":0.06818175000000082,"midi":41,"time":40.636323,"velocity":0.5196850393700787},{"duration":0.06818175000000082,"midi":39,"time":40.7726865,"velocity":0.5196850393700787},{"duration":0.13636350000000164,"midi":41,"time":40.90905,"velocity":0.5196850393700787},{"duration":0.13636349999999453,"midi":38,"time":41.0454135,"velocity":0.5196850393700787},{"duration":0.13636350000000164,"midi":38,"time":41.181777,"velocity":0.5196850393700787},{"duration":0.13636350000000164,"midi":39,"time":41.3181405,"velocity":0.5196850393700787},{"duration":0.06818175000000082,"midi":39,"time":41.454504,"velocity":0.5196850393700787},{"duration":0.13636349999999453,"midi":39,"time":41.5908675,"velocity":0.5196850393700787},{"duration":0.13636350000000164,"midi":39,"time":41.727230999999996,"velocity":0.5196850393700787},{"duration":0.06818175000000082,"midi":39,"time":41.8635945,"velocity":0.5196850393700787},{"duration":0.06818175000000082,"midi":40,"time":41.999958,"velocity":0.5196850393700787},{"duration":0.06818175000000082,"midi":40,"time":42.1363215,"velocity":0.5196850393700787},{"duration":0.13636349999999453,"midi":40,"time":42.272685,"velocity":0.5196850393700787},{"duration":0.06818175000000082,"midi":39,"time":42.4090485,"velocity":0.5196850393700787},{"duration":0.06818175000000082,"midi":39,"time":42.545412,"velocity":0.5196850393700787},{"duration":0.13636350000000164,"midi":39,"time":42.6817755,"velocity":0.5196850393700787},{"duration":0.06818175000000082,"midi":40,"time":42.6817755,"velocity":0.5196850393700787},{"duration":0.13636349999999453,"midi":40,"time":42.818139,"velocity":0.5196850393700787},{"duration":0.06818175000000082,"midi":41,"time":42.9545025,"velocity":0.5196850393700787},{"duration":0.13636350000000164,"midi":42,"time":43.090866,"velocity":0.5196850393700787},{"duration":0.06818175000000082,"midi":41,"time":43.2272295,"velocity":0.5196850393700787},{"duration":0.13636349999999453,"midi":40,"time":43.363593,"velocity":0.5196850393700787},{"duration":0.13636350000000164,"midi":38,"time":43.499956499999996,"velocity":0.5196850393700787},{"duration":0.06818175000000082,"midi":39,"time":43.63632,"velocity":0.5196850393700787},{"duration":0.13636350000000164,"midi":39,"time":43.7726835,"velocity":0.5196850393700787},{"duration":0.13636350000000164,"midi":39,"time":43.909047,"velocity":0.5196850393700787},{"duration":0.06818174999999371,"midi":39,"time":44.0454105,"velocity":0.5196850393700787},{"duration":0.13636350000000164,"midi":40,"time":44.181774,"velocity":0.5196850393700787},{"duration":0.06818175000000082,"midi":40,"time":44.3181375,"velocity":0.5196850393700787},{"duration":0.06818175000000082,"midi":40,"time":44.454501,"velocity":0.5196850393700787},{"duration":0.13636349999999453,"midi":39,"time":44.5908645,"velocity":0.5196850393700787},{"duration":0.06818175000000082,"midi":39,"time":44.727228,"velocity":0.5196850393700787},{"duration":0.13636350000000164,"midi":39,"time":44.8635915,"velocity":0.5196850393700787},{"duration":0.06818175000000082,"midi":41,"time":44.999955,"velocity":0.5196850393700787},{"duration":0.06818175000000082,"midi":39,"time":45.1363185,"velocity":0.5196850393700787},{"duration":0.13636350000000164,"midi":41,"time":45.272681999999996,"velocity":0.5196850393700787},{"duration":0.13636350000000164,"midi":38,"time":45.4090455,"velocity":0.5196850393700787},{"duration":0.13636350000000164,"midi":38,"time":45.545409,"velocity":0.5196850393700787},{"duration":0.13636350000000164,"midi":39,"time":45.6817725,"velocity":0.5196850393700787},{"duration":0.06818174999999371,"midi":39,"time":45.818136,"velocity":0.5196850393700787},{"duration":0.13636350000000164,"midi":39,"time":45.9544995,"velocity":0.5196850393700787},{"duration":0.13636350000000164,"midi":39,"time":46.090863,"velocity":0.5196850393700787},{"duration":0.06818175000000082,"midi":39,"time":46.2272265,"velocity":0.5196850393700787},{"duration":0.06818175000000082,"midi":40,"time":46.36359,"velocity":0.5196850393700787},{"duration":0.06818175000000082,"midi":40,"time":46.4999535,"velocity":0.5196850393700787},{"duration":0.13636350000000164,"midi":40,"time":46.636317,"velocity":0.5196850393700787},{"duration":0.06818175000000082,"midi":39,"time":46.7726805,"velocity":0.5196850393700787},{"duration":0.06818175000000082,"midi":39,"time":46.909044,"velocity":0.5196850393700787},{"duration":0.13636350000000164,"midi":39,"time":47.045407499999996,"velocity":0.5196850393700787},{"duration":0.06818175000000082,"midi":42,"time":47.181771,"velocity":0.5196850393700787},{"duration":0.06818175000000082,"midi":39,"time":47.3181345,"velocity":0.5196850393700787},{"duration":0.13636350000000164,"midi":42,"time":47.454498,"velocity":0.5196850393700787},{"duration":0.13636349999999453,"midi":38,"time":47.5908615,"velocity":0.5196850393700787},{"duration":0.13636350000000164,"midi":38,"time":47.727225,"velocity":0.5196850393700787},{"duration":0.13636350000000164,"midi":41,"time":47.8635885,"velocity":0.5196850393700787},{"duration":0.06818175000000082,"midi":39,"time":47.999952,"velocity":0.5196850393700787},{"duration":0.13636349999999453,"midi":39,"time":48.1363155,"velocity":0.5196850393700787},{"duration":0.13636350000000164,"midi":39,"time":48.272679,"velocity":0.5196850393700787},{"duration":0.06818175000000082,"midi":39,"time":48.4090425,"velocity":0.5196850393700787},{"duration":0.13636350000000164,"midi":40,"time":48.545406,"velocity":0.5196850393700787},{"duration":0.06818175000000082,"midi":40,"time":48.6817695,"velocity":0.5196850393700787},{"duration":0.06818175000000082,"midi":40,"time":48.818132999999996,"velocity":0.5196850393700787},{"duration":0.13636350000000164,"midi":39,"time":48.9544965,"velocity":0.5196850393700787},{"duration":0.06818175000000082,"midi":39,"time":49.09086,"velocity":0.5196850393700787},{"duration":0.13636350000000164,"midi":39,"time":49.2272235,"velocity":0.5196850393700787},{"duration":0.06818174999999371,"midi":41,"time":49.363587,"velocity":0.5196850393700787},{"duration":0.06818175000000082,"midi":39,"time":49.4999505,"velocity":0.5196850393700787},{"duration":0.13636350000000164,"midi":41,"time":49.636314,"velocity":0.5196850393700787},{"duration":0.13636350000000164,"midi":38,"time":49.7726775,"velocity":0.5196850393700787},{"duration":0.13636349999999453,"midi":38,"time":49.909041,"velocity":0.5196850393700787},{"duration":0.13636350000000164,"midi":39,"time":50.0454045,"velocity":0.5196850393700787},{"duration":0.06818175000000082,"midi":39,"time":50.181768,"velocity":0.5196850393700787},{"duration":0.13636350000000164,"midi":39,"time":50.3181315,"velocity":0.5196850393700787},{"duration":0.13636349999999453,"midi":39,"time":50.454495,"velocity":0.5196850393700787},{"duration":0.06818175000000082,"midi":39,"time":50.590858499999996,"velocity":0.5196850393700787},{"duration":0.06818175000000082,"midi":40,"time":50.727222,"velocity":0.5196850393700787},{"duration":0.06818175000000082,"midi":40,"time":50.8635855,"velocity":0.5196850393700787},{"duration":0.13636350000000164,"midi":40,"time":50.999949,"velocity":0.5196850393700787},{"duration":0.06818174999999371,"midi":39,"time":51.1363125,"velocity":0.5196850393700787},{"duration":0.06818175000000082,"midi":39,"time":51.272676,"velocity":0.5196850393700787},{"duration":0.13636350000000164,"midi":39,"time":51.4090395,"velocity":0.5196850393700787},{"duration":0.13636350000000164,"midi":39,"time":51.545403,"velocity":0.5196850393700787},{"duration":0.06818175000000082,"midi":39,"time":51.6817665,"velocity":0.5196850393700787},{"duration":0.06818175000000082,"midi":39,"time":51.81813,"velocity":0.5196850393700787},{"duration":0.06818175000000082,"midi":39,"time":51.9544935,"velocity":0.5196850393700787},{"duration":0.06818175000000082,"midi":39,"time":52.090857,"velocity":0.5196850393700787},{"duration":0.13636350000000164,"midi":39,"time":52.2272205,"velocity":0.5196850393700787},{"duration":0.27272699999999617,"midi":51,"time":52.363584,"velocity":0.5196850393700787},{"duration":0.2727270000000033,"midi":39,"time":52.636311,"velocity":0.5196850393700787},{"duration":0.2727270000000033,"midi":39,"time":53.0454015,"velocity":0.5196850393700787},{"duration":0.27272699999999617,"midi":39,"time":53.454492,"velocity":0.5196850393700787},{"duration":0.2727270000000033,"midi":39,"time":53.727219,"velocity":0.5196850393700787},{"duration":0.2727270000000033,"midi":39,"time":53.8635825,"velocity":0.5196850393700787},{"duration":0.2727270000000033,"midi":50,"time":54.272673,"velocity":0.5196850393700787},{"duration":0.2727270000000033,"midi":52,"time":54.4090365,"velocity":0.5196850393700787},{"duration":0.27272699999999617,"midi":51,"time":54.5454,"velocity":0.5196850393700787},{"duration":0.2727270000000033,"midi":39,"time":54.818127,"velocity":0.5196850393700787},{"duration":0.27272699999999617,"midi":39,"time":55.2272175,"velocity":0.5196850393700787},{"duration":0.2727270000000033,"midi":40,"time":55.636308,"velocity":0.5196850393700787},{"duration":0.2727270000000033,"midi":52,"time":56.0453985,"velocity":0.5196850393700787},{"duration":0.27272699999999617,"midi":40,"time":56.454489,"velocity":0.5196850393700787},{"duration":0.2727270000000033,"midi":51,"time":56.727216,"velocity":0.5196850393700787},{"duration":0.27272699999999617,"midi":39,"time":56.999943,"velocity":0.5196850393700787},{"duration":0.2727270000000033,"midi":39,"time":57.4090335,"velocity":0.5196850393700787},{"duration":0.2727270000000033,"midi":39,"time":57.818124,"velocity":0.5196850393700787},{"duration":0.27272699999999617,"midi":39,"time":58.090851,"velocity":0.5196850393700787},{"duration":0.27272699999999617,"midi":39,"time":58.2272145,"velocity":0.5196850393700787},{"duration":0.27272699999999617,"midi":50,"time":58.636305,"velocity":0.5196850393700787},{"duration":0.27272699999999617,"midi":52,"time":58.7726685,"velocity":0.5196850393700787},{"duration":0.2727270000000033,"midi":51,"time":58.909031999999996,"velocity":0.5196850393700787},{"duration":0.2727270000000033,"midi":39,"time":59.181759,"velocity":0.5196850393700787},{"duration":0.2727270000000033,"midi":39,"time":59.5908495,"velocity":0.5196850393700787},{"duration":0.2727270000000033,"midi":51,"time":59.727213,"velocity":0.5196850393700787},{"duration":0.27272699999999617,"midi":52,"time":59.8635765,"velocity":0.5196850393700787},{"duration":0.27272699999999617,"midi":50,"time":59.99994,"velocity":0.5196850393700787},{"duration":0.2727270000000033,"midi":38,"time":60.1363035,"velocity":0.5196850393700787},{"duration":0.27272699999999617,"midi":38,"time":60.4090305,"velocity":0.5196850393700787},{"duration":0.2727270000000033,"midi":38,"time":60.681757499999996,"velocity":0.5196850393700787},{"duration":0.06818175000000082,"midi":38,"time":60.9544845,"velocity":0.5196850393700787},{"duration":0.27272699999999617,"midi":51,"time":61.090848,"velocity":0.5196850393700787},{"duration":0.2727270000000033,"midi":39,"time":61.363575,"velocity":0.5196850393700787},{"duration":0.27272699999999617,"midi":39,"time":61.7726655,"velocity":0.5196850393700787},{"duration":0.27272699999999617,"midi":39,"time":62.181756,"velocity":0.5196850393700787},{"duration":0.2727270000000033,"midi":39,"time":62.454482999999996,"velocity":0.5196850393700787},{"duration":0.2727270000000033,"midi":39,"time":62.5908465,"velocity":0.5196850393700787},{"duration":0.27272699999999617,"midi":50,"time":62.999937,"velocity":0.5196850393700787},{"duration":0.2727270000000033,"midi":52,"time":63.1363005,"velocity":0.5196850393700787},{"duration":0.2727270000000033,"midi":51,"time":63.272664,"velocity":0.5196850393700787},{"duration":0.27272699999999617,"midi":39,"time":63.545391,"velocity":0.5196850393700787},{"duration":0.2727270000000033,"midi":39,"time":63.9544815,"velocity":0.5196850393700787},{"duration":0.27272699999998906,"midi":40,"time":64.363572,"velocity":0.5196850393700787},{"duration":0.2727270000000033,"midi":52,"time":64.7726625,"velocity":0.5196850393700787},{"duration":0.2727270000000033,"midi":40,"time":65.181753,"velocity":0.5196850393700787},{"duration":0.27272699999998906,"midi":51,"time":65.45448,"velocity":0.5196850393700787},{"duration":0.2727270000000033,"midi":39,"time":65.72720699999999,"velocity":0.5196850393700787},{"duration":0.2727270000000033,"midi":39,"time":66.1362975,"velocity":0.5196850393700787},{"duration":0.2727270000000033,"midi":39,"time":66.545388,"velocity":0.5196850393700787},{"duration":0.27272699999998906,"midi":39,"time":66.818115,"velocity":0.5196850393700787},{"duration":0.2727270000000033,"midi":39,"time":66.9544785,"velocity":0.5196850393700787},{"duration":0.2727270000000033,"midi":50,"time":67.363569,"velocity":0.5196850393700787},{"duration":0.2727270000000033,"midi":52,"time":67.4999325,"velocity":0.5196850393700787},{"duration":0.2727270000000033,"midi":51,"time":67.636296,"velocity":0.5196850393700787},{"duration":0.27272699999998906,"midi":39,"time":67.909023,"velocity":0.5196850393700787},{"duration":0.2727270000000033,"midi":39,"time":68.3181135,"velocity":0.5196850393700787},{"duration":0.2727270000000033,"midi":39,"time":68.727204,"velocity":0.5196850393700787},{"duration":0.27272699999998906,"midi":39,"time":69.1362945,"velocity":0.5196850393700787},{"duration":0.2727270000000033,"midi":39,"time":69.4090215,"velocity":0.5196850393700787},{"duration":0.06818175000000792,"midi":39,"time":69.6817485,"velocity":0.5196850393700787},{"duration":0.2727270000000033,"midi":51,"time":69.818112,"velocity":0.5196850393700787},{"duration":0.2727270000000033,"midi":39,"time":70.090839,"velocity":0.5196850393700787},{"duration":0.2727270000000033,"midi":39,"time":70.90902,"velocity":0.5196850393700787},{"duration":0.2727270000000033,"midi":39,"time":71.3181105,"velocity":0.5196850393700787},{"duration":0.2727270000000033,"midi":50,"time":71.727201,"velocity":0.5196850393700787},{"duration":0.2727270000000033,"midi":51,"time":71.999928,"velocity":0.5196850393700787},{"duration":0.2727270000000033,"midi":39,"time":72.272655,"velocity":0.5196850393700787},{"duration":0.2727270000000033,"midi":40,"time":73.090836,"velocity":0.5196850393700787},{"duration":0.2727270000000033,"midi":52,"time":73.4999265,"velocity":0.5196850393700787},{"duration":0.27272699999998906,"midi":40,"time":73.909017,"velocity":0.5196850393700787},{"duration":0.2727270000000033,"midi":51,"time":74.181744,"velocity":0.5196850393700787},{"duration":0.2727270000000033,"midi":39,"time":74.454471,"velocity":0.5196850393700787},{"duration":0.2727270000000033,"midi":39,"time":75.272652,"velocity":0.5196850393700787},{"duration":0.2727270000000033,"midi":39,"time":75.6817425,"velocity":0.5196850393700787},{"duration":0.27272699999998906,"midi":50,"time":76.090833,"velocity":0.5196850393700787},{"duration":0.2727270000000033,"midi":39,"time":76.36355999999999,"velocity":0.5196850393700787},{"duration":0.2727270000000033,"midi":51,"time":76.36355999999999,"velocity":0.5196850393700787},{"duration":0.2727270000000033,"midi":39,"time":76.636287,"velocity":0.5196850393700787},{"duration":0.2727270000000033,"midi":51,"time":77.181741,"velocity":0.5196850393700787},{"duration":0.27272699999998906,"midi":52,"time":77.3181045,"velocity":0.5196850393700787},{"duration":0.2727270000000033,"midi":38,"time":77.8635585,"velocity":0.5196850393700787},{"duration":0.27272699999998906,"midi":51,"time":78.545376,"velocity":0.5196850393700787},{"duration":0.2727270000000033,"midi":39,"time":78.818103,"velocity":0.5196850393700787},{"duration":0.27272699999998906,"midi":39,"time":79.636284,"velocity":0.5196850393700787},{"duration":0.2727270000000033,"midi":39,"time":80.0453745,"velocity":0.5196850393700787},{"duration":0.2727270000000033,"midi":50,"time":80.454465,"velocity":0.5196850393700787},{"duration":0.2727270000000033,"midi":51,"time":80.727192,"velocity":0.5196850393700787},{"duration":0.27272699999998906,"midi":39,"time":80.999919,"velocity":0.5196850393700787},{"duration":0.2727270000000033,"midi":40,"time":81.8181,"velocity":0.5196850393700787},{"duration":0.27272699999998906,"midi":52,"time":82.2271905,"velocity":0.5196850393700787},{"duration":0.2727270000000033,"midi":40,"time":82.636281,"velocity":0.5196850393700787},{"duration":0.2727270000000033,"midi":51,"time":82.909008,"velocity":0.5196850393700787},{"duration":0.27272699999998906,"midi":39,"time":83.181735,"velocity":0.5196850393700787},{"duration":0.2727270000000033,"midi":39,"time":83.999916,"velocity":0.5196850393700787},{"duration":0.27272699999998906,"midi":39,"time":84.4090065,"velocity":0.5196850393700787},{"duration":0.2727270000000033,"midi":50,"time":84.818097,"velocity":0.5196850393700787},{"duration":0.2727270000000033,"midi":51,"time":85.090824,"velocity":0.5196850393700787},{"duration":0.2727270000000033,"midi":39,"time":85.363551,"velocity":0.5196850393700787},{"duration":0.27272699999998906,"midi":39,"time":85.7726415,"velocity":0.5196850393700787},{"duration":0.2727270000000033,"midi":39,"time":86.181732,"velocity":0.5196850393700787},{"duration":0.2727270000000033,"midi":39,"time":86.5908225,"velocity":0.5196850393700787},{"duration":0.2727270000000033,"midi":39,"time":86.99991299999999,"velocity":0.5196850393700787},{"duration":0.06818175000000792,"midi":51,"time":87.27264,"velocity":0.5196850393700787},{"duration":0.13636350000000164,"midi":51,"time":87.4090035,"velocity":0.5196850393700787},{"duration":0.13636350000000164,"midi":51,"time":87.545367,"velocity":0.5196850393700787},{"duration":0.06818174999999371,"midi":51,"time":87.6817305,"velocity":0.5196850393700787},{"duration":0.13636350000000164,"midi":52,"time":87.818094,"velocity":0.5196850393700787},{"duration":0.06818174999999371,"midi":52,"time":87.9544575,"velocity":0.5196850393700787},{"duration":0.06818174999999371,"midi":52,"time":88.090821,"velocity":0.5196850393700787},{"duration":0.13636350000000164,"midi":51,"time":88.22718449999999,"velocity":0.5196850393700787},{"duration":0.06818175000000792,"midi":51,"time":88.363548,"velocity":0.5196850393700787},{"duration":0.13636350000000164,"midi":51,"time":88.4999115,"velocity":0.5196850393700787},{"duration":0.06818175000000792,"midi":53,"time":88.636275,"velocity":0.5196850393700787},{"duration":0.06818174999999371,"midi":51,"time":88.7726385,"velocity":0.5196850393700787},{"duration":0.13636350000000164,"midi":53,"time":88.909002,"velocity":0.5196850393700787},{"duration":0.13636350000000164,"midi":50,"time":89.0453655,"velocity":0.5196850393700787},{"duration":0.13636350000000164,"midi":50,"time":89.181729,"velocity":0.5196850393700787},{"duration":0.13636349999998743,"midi":51,"time":89.3180925,"velocity":0.5196850393700787},{"duration":0.06818175000000792,"midi":51,"time":89.454456,"velocity":0.5196850393700787},{"duration":0.13636350000000164,"midi":51,"time":89.5908195,"velocity":0.5196850393700787},{"duration":0.13636350000000164,"midi":51,"time":89.727183,"velocity":0.5196850393700787},{"duration":0.06818175000000792,"midi":51,"time":89.8635465,"velocity":0.5196850393700787},{"duration":0.06818174999999371,"midi":52,"time":89.99991,"velocity":0.5196850393700787},{"duration":0.06818174999999371,"midi":52,"time":90.1362735,"velocity":0.5196850393700787},{"duration":0.13636350000000164,"midi":52,"time":90.272637,"velocity":0.5196850393700787},{"duration":0.06818174999999371,"midi":51,"time":90.4090005,"velocity":0.5196850393700787},{"duration":0.06818175000000792,"midi":51,"time":90.54536399999999,"velocity":0.5196850393700787},{"duration":0.13636350000000164,"midi":51,"time":90.6817275,"velocity":0.5196850393700787},{"duration":0.06818175000000792,"midi":54,"time":90.818091,"velocity":0.5196850393700787},{"duration":0.06818175000000792,"midi":51,"time":90.9544545,"velocity":0.5196850393700787},{"duration":0.13636350000000164,"midi":54,"time":91.090818,"velocity":0.5196850393700787},{"duration":0.13636350000000164,"midi":50,"time":91.2271815,"velocity":0.5196850393700787},{"duration":0.13636350000000164,"midi":50,"time":91.363545,"velocity":0.5196850393700787},{"duration":0.13636350000000164,"midi":53,"time":91.4999085,"velocity":0.5196850393700787},{"duration":0.06818174999999371,"midi":51,"time":91.636272,"velocity":0.5196850393700787},{"duration":0.13636350000000164,"midi":51,"time":91.77263549999999,"velocity":0.5196850393700787},{"duration":0.13636350000000164,"midi":51,"time":91.908999,"velocity":0.5196850393700787},{"duration":0.06818175000000792,"midi":51,"time":92.0453625,"velocity":0.5196850393700787},{"duration":0.13636350000000164,"midi":52,"time":92.181726,"velocity":0.5196850393700787},{"duration":0.06818174999999371,"midi":52,"time":92.3180895,"velocity":0.5196850393700787},{"duration":0.06818174999999371,"midi":52,"time":92.454453,"velocity":0.5196850393700787},{"duration":0.13636350000000164,"midi":51,"time":92.5908165,"velocity":0.5196850393700787},{"duration":0.06818174999999371,"midi":51,"time":92.72718,"velocity":0.5196850393700787},{"duration":0.13636349999998743,"midi":51,"time":92.8635435,"velocity":0.5196850393700787},{"duration":0.06818175000000792,"midi":53,"time":92.999907,"velocity":0.5196850393700787},{"duration":0.06818175000000792,"midi":51,"time":93.1362705,"velocity":0.5196850393700787},{"duration":0.13636350000000164,"midi":53,"time":93.272634,"velocity":0.5196850393700787},{"duration":0.13636350000000164,"midi":50,"time":93.4089975,"velocity":0.5196850393700787},{"duration":0.13636350000000164,"midi":50,"time":93.545361,"velocity":0.5196850393700787},{"duration":0.13636350000000164,"midi":51,"time":93.6817245,"velocity":0.5196850393700787},{"duration":0.06818174999999371,"midi":51,"time":93.818088,"velocity":0.5196850393700787},{"duration":0.13636349999998743,"midi":51,"time":93.9544515,"velocity":0.5196850393700787},{"duration":0.13636350000000164,"midi":51,"time":94.09081499999999,"velocity":0.5196850393700787},{"duration":0.06818175000000792,"midi":51,"time":94.2271785,"velocity":0.5196850393700787},{"duration":0.06818175000000792,"midi":52,"time":94.363542,"velocity":0.5196850393700787},{"duration":0.06818175000000792,"midi":52,"time":94.4999055,"velocity":0.5196850393700787},{"duration":0.13636350000000164,"midi":52,"time":94.636269,"velocity":0.5196850393700787},{"duration":0.06818174999999371,"midi":51,"time":94.7726325,"velocity":0.5196850393700787},{"duration":0.06818174999999371,"midi":51,"time":94.908996,"velocity":0.5196850393700787},{"duration":0.13636350000000164,"midi":51,"time":95.0453595,"velocity":0.5196850393700787},{"duration":0.06818174999999371,"midi":52,"time":95.0453595,"velocity":0.5196850393700787},{"duration":0.13636349999998743,"midi":52,"time":95.181723,"velocity":0.5196850393700787},{"duration":0.06818175000000792,"midi":53,"time":95.31808649999999,"velocity":0.5196850393700787},{"duration":0.13636350000000164,"midi":54,"time":95.45445,"velocity":0.5196850393700787},{"duration":0.06818175000000792,"midi":53,"time":95.5908135,"velocity":0.5196850393700787},{"duration":0.13636350000000164,"midi":52,"time":95.727177,"velocity":0.5196850393700787},{"duration":0.13636350000000164,"midi":50,"time":95.8635405,"velocity":0.5196850393700787},{"duration":0.06818174999999371,"midi":51,"time":95.999904,"velocity":0.5196850393700787},{"duration":0.13636350000000164,"midi":51,"time":96.1362675,"velocity":0.5196850393700787},{"duration":0.13636350000000164,"midi":51,"time":96.272631,"velocity":0.5196850393700787},{"duration":0.06818174999999371,"midi":51,"time":96.4089945,"velocity":0.5196850393700787},{"duration":0.13636350000000164,"midi":52,"time":96.545358,"velocity":0.5196850393700787},{"duration":0.06818175000000792,"midi":52,"time":96.6817215,"velocity":0.5196850393700787},{"duration":0.06818175000000792,"midi":52,"time":96.818085,"velocity":0.5196850393700787},{"duration":0.13636350000000164,"midi":51,"time":96.9544485,"velocity":0.5196850393700787},{"duration":0.06818174999999371,"midi":51,"time":97.090812,"velocity":0.5196850393700787},{"duration":0.13636350000000164,"midi":51,"time":97.2271755,"velocity":0.5196850393700787},{"duration":0.06818174999999371,"midi":53,"time":97.363539,"velocity":0.5196850393700787},{"duration":0.06818174999999371,"midi":51,"time":97.4999025,"velocity":0.5196850393700787},{"duration":0.13636350000000164,"midi":53,"time":97.63626599999999,"velocity":0.5196850393700787},{"duration":0.13636350000000164,"midi":50,"time":97.7726295,"velocity":0.5196850393700787},{"duration":0.13636350000000164,"midi":50,"time":97.908993,"velocity":0.5196850393700787},{"duration":0.13636350000000164,"midi":51,"time":98.0453565,"velocity":0.5196850393700787},{"duration":0.06818174999999371,"midi":51,"time":98.18172,"velocity":0.5196850393700787},{"duration":0.13636350000000164,"midi":51,"time":98.3180835,"velocity":0.5196850393700787},{"duration":0.13636350000000164,"midi":51,"time":98.454447,"velocity":0.5196850393700787},{"duration":0.06818174999999371,"midi":51,"time":98.5908105,"velocity":0.5196850393700787},{"duration":0.06818174999999371,"midi":52,"time":98.727174,"velocity":0.5196850393700787},{"duration":0.06818175000000792,"midi":52,"time":98.86353749999999,"velocity":0.5196850393700787},{"duration":0.13636350000000164,"midi":52,"time":98.999901,"velocity":0.5196850393700787},{"duration":0.06818175000000792,"midi":51,"time":99.1362645,"velocity":0.5196850393700787},{"duration":0.06818175000000792,"midi":51,"time":99.272628,"velocity":0.5196850393700787},{"duration":0.13636350000000164,"midi":51,"time":99.4089915,"velocity":0.5196850393700787},{"duration":0.06818174999999371,"midi":54,"time":99.545355,"velocity":0.5196850393700787},{"duration":0.06818174999999371,"midi":51,"time":99.6817185,"velocity":0.5196850393700787},{"duration":0.13636350000000164,"midi":54,"time":99.818082,"velocity":0.5196850393700787},{"duration":0.13636349999998743,"midi":50,"time":99.9544455,"velocity":0.5196850393700787},{"duration":0.13636350000000164,"midi":50,"time":100.090809,"velocity":0.5196850393700787},{"duration":0.13636350000000164,"midi":53,"time":100.2271725,"velocity":0.5196850393700787},{"duration":0.06818175000000792,"midi":51,"time":100.363536,"velocity":0.5196850393700787},{"duration":0.13636350000000164,"midi":51,"time":100.4998995,"velocity":0.5196850393700787},{"duration":0.13636350000000164,"midi":51,"time":100.636263,"velocity":0.5196850393700787},{"duration":0.06818174999999371,"midi":51,"time":100.7726265,"velocity":0.5196850393700787},{"duration":0.13636350000000164,"midi":52,"time":100.90899,"velocity":0.5196850393700787},{"duration":0.06818174999999371,"midi":52,"time":101.0453535,"velocity":0.5196850393700787},{"duration":0.06818175000000792,"midi":52,"time":101.18171699999999,"velocity":0.5196850393700787},{"duration":0.13636350000000164,"midi":51,"time":101.3180805,"velocity":0.5196850393700787},{"duration":0.06818175000000792,"midi":51,"time":101.454444,"velocity":0.5196850393700787},{"duration":0.13636350000000164,"midi":51,"time":101.5908075,"velocity":0.5196850393700787},{"duration":0.06818174999999371,"midi":53,"time":101.727171,"velocity":0.5196850393700787},{"duration":0.06818174999999371,"midi":51,"time":101.8635345,"velocity":0.5196850393700787},{"duration":0.13636350000000164,"midi":53,"time":101.999898,"velocity":0.5196850393700787},{"duration":0.13636350000000164,"midi":50,"time":102.1362615,"velocity":0.5196850393700787},{"duration":0.13636349999998743,"midi":50,"time":102.272625,"velocity":0.5196850393700787},{"duration":0.13636350000000164,"midi":51,"time":102.40898849999999,"velocity":0.5196850393700787},{"duration":0.06818175000000792,"midi":51,"time":102.545352,"velocity":0.5196850393700787},{"duration":0.13636350000000164,"midi":51,"time":102.6817155,"velocity":0.5196850393700787},{"duration":0.13636350000000164,"midi":51,"time":102.818079,"velocity":0.5196850393700787},{"duration":0.06818174999999371,"midi":51,"time":102.9544425,"velocity":0.5196850393700787},{"duration":0.06818174999999371,"midi":52,"time":103.090806,"velocity":0.5196850393700787},{"duration":0.06818174999999371,"midi":52,"time":103.2271695,"velocity":0.5196850393700787},{"duration":0.13636350000000164,"midi":52,"time":103.363533,"velocity":0.5196850393700787},{"duration":0.06818174999999371,"midi":51,"time":103.4998965,"velocity":0.5196850393700787},{"duration":0.06818175000000792,"midi":51,"time":103.63626,"velocity":0.5196850393700787},{"duration":0.13636350000000164,"midi":51,"time":103.7726235,"velocity":0.5196850393700787},{"duration":0.13636350000000164,"midi":51,"time":103.908987,"velocity":0.5196850393700787},{"duration":0.06818175000000792,"midi":51,"time":104.0453505,"velocity":0.5196850393700787},{"duration":0.06818174999999371,"midi":51,"time":104.181714,"velocity":0.5196850393700787},{"duration":0.06818174999999371,"midi":51,"time":104.3180775,"velocity":0.5196850393700787},{"duration":0.06818174999999371,"midi":51,"time":104.454441,"velocity":0.5196850393700787},{"duration":0.13636350000000164,"midi":51,"time":104.5908045,"velocity":0.5196850393700787},{"duration":0.06818174999999371,"midi":39,"time":104.727168,"velocity":0.5196850393700787},{"duration":0.13636350000000164,"midi":39,"time":104.8635315,"velocity":0.5196850393700787},{"duration":0.13636350000000164,"midi":39,"time":104.999895,"velocity":0.5196850393700787},{"duration":0.06818175000000792,"midi":39,"time":105.1362585,"velocity":0.5196850393700787},{"duration":0.13636350000000164,"midi":40,"time":105.272622,"velocity":0.5196850393700787},{"duration":0.06818174999999371,"midi":40,"time":105.4089855,"velocity":0.5196850393700787},{"duration":0.06818174999999371,"midi":40,"time":105.545349,"velocity":0.5196850393700787},{"duration":0.13636350000000164,"midi":39,"time":105.6817125,"velocity":0.5196850393700787},{"duration":0.06818174999999371,"midi":39,"time":105.818076,"velocity":0.5196850393700787},{"duration":0.13636350000000164,"midi":39,"time":105.95443949999999,"velocity":0.5196850393700787},{"duration":0.06818175000000792,"midi":41,"time":106.090803,"velocity":0.5196850393700787},{"duration":0.06818175000000792,"midi":39,"time":106.2271665,"velocity":0.5196850393700787},{"duration":0.13636350000000164,"midi":41,"time":106.36353,"velocity":0.5196850393700787},{"duration":0.13636350000000164,"midi":38,"time":106.4998935,"velocity":0.5196850393700787},{"duration":0.13636350000000164,"midi":38,"time":106.636257,"velocity":0.5196850393700787},{"duration":0.13636350000000164,"midi":39,"time":106.7726205,"velocity":0.5196850393700787},{"duration":0.06818174999999371,"midi":39,"time":106.908984,"velocity":0.5196850393700787},{"duration":0.13636349999998743,"midi":39,"time":107.0453475,"velocity":0.5196850393700787},{"duration":0.13636350000000164,"midi":39,"time":107.18171099999999,"velocity":0.5196850393700787},{"duration":0.06818175000000792,"midi":39,"time":107.3180745,"velocity":0.5196850393700787},{"duration":0.06818175000000792,"midi":40,"time":107.454438,"velocity":0.5196850393700787},{"duration":0.06818175000000792,"midi":40,"time":107.5908015,"velocity":0.5196850393700787},{"duration":0.13636350000000164,"midi":40,"time":107.727165,"velocity":0.5196850393700787},{"duration":0.06818174999999371,"midi":39,"time":107.8635285,"velocity":0.5196850393700787},{"duration":0.06818174999999371,"midi":39,"time":107.999892,"velocity":0.5196850393700787},{"duration":0.13636350000000164,"midi":39,"time":108.1362555,"velocity":0.5196850393700787},{"duration":0.06818174999999371,"midi":42,"time":108.272619,"velocity":0.5196850393700787},{"duration":0.06818175000000792,"midi":39,"time":108.4089825,"velocity":0.5196850393700787},{"duration":0.13636350000000164,"midi":42,"time":108.545346,"velocity":0.5196850393700787},{"duration":0.13636350000000164,"midi":38,"time":108.6817095,"velocity":0.5196850393700787},{"duration":0.13636350000000164,"midi":38,"time":108.818073,"velocity":0.5196850393700787},{"duration":0.13636350000000164,"midi":41,"time":108.9544365,"velocity":0.5196850393700787},{"duration":0.06818174999999371,"midi":39,"time":109.0908,"velocity":0.5196850393700787},{"duration":0.13636350000000164,"midi":39,"time":109.2271635,"velocity":0.5196850393700787},{"duration":0.13636349999998743,"midi":39,"time":109.363527,"velocity":0.5196850393700787},{"duration":0.06818175000000792,"midi":39,"time":109.49989049999999,"velocity":0.5196850393700787},{"duration":0.13636350000000164,"midi":40,"time":109.636254,"velocity":0.5196850393700787},{"duration":0.06818175000000792,"midi":40,"time":109.7726175,"velocity":0.5196850393700787},{"duration":0.06818175000000792,"midi":40,"time":109.908981,"velocity":0.5196850393700787},{"duration":0.13636350000000164,"midi":39,"time":110.0453445,"velocity":0.5196850393700787},{"duration":0.06818174999999371,"midi":39,"time":110.181708,"velocity":0.5196850393700787},{"duration":0.13636350000000164,"midi":39,"time":110.3180715,"velocity":0.5196850393700787},{"duration":0.06818174999999371,"midi":41,"time":110.454435,"velocity":0.5196850393700787},{"duration":0.06818174999999371,"midi":39,"time":110.5907985,"velocity":0.5196850393700787},{"duration":0.13636350000000164,"midi":41,"time":110.72716199999999,"velocity":0.5196850393700787},{"duration":0.13636350000000164,"midi":38,"time":110.8635255,"velocity":0.5196850393700787},{"duration":0.13636350000000164,"midi":38,"time":110.999889,"velocity":0.5196850393700787},{"duration":0.13636350000000164,"midi":39,"time":111.1362525,"velocity":0.5196850393700787},{"duration":0.06818174999999371,"midi":39,"time":111.272616,"velocity":0.5196850393700787},{"duration":0.13636350000000164,"midi":39,"time":111.4089795,"velocity":0.5196850393700787},{"duration":0.13636350000000164,"midi":39,"time":111.545343,"velocity":0.5196850393700787},{"duration":0.06818174999999371,"midi":39,"time":111.6817065,"velocity":0.5196850393700787},{"duration":0.06818174999999371,"midi":40,"time":111.81807,"velocity":0.5196850393700787},{"duration":0.06818175000000792,"midi":40,"time":111.9544335,"velocity":0.5196850393700787},{"duration":0.13636350000000164,"midi":40,"time":112.090797,"velocity":0.5196850393700787},{"duration":0.06818175000000792,"midi":39,"time":112.2271605,"velocity":0.5196850393700787},{"duration":0.06818174999999371,"midi":39,"time":112.363524,"velocity":0.5196850393700787},{"duration":0.13636350000000164,"midi":39,"time":112.4998875,"velocity":0.5196850393700787},{"duration":0.06818174999999371,"midi":40,"time":112.4998875,"velocity":0.5196850393700787},{"duration":0.13636350000000164,"midi":40,"time":112.636251,"velocity":0.5196850393700787},{"duration":0.06818174999999371,"midi":41,"time":112.7726145,"velocity":0.5196850393700787},{"duration":0.13636349999998743,"midi":42,"time":112.908978,"velocity":0.5196850393700787},{"duration":0.06818175000000792,"midi":41,"time":113.04534149999999,"velocity":0.5196850393700787},{"duration":0.13636350000000164,"midi":40,"time":113.181705,"velocity":0.5196850393700787},{"duration":0.13636350000000164,"midi":38,"time":113.3180685,"velocity":0.5196850393700787},{"duration":0.06818175000000792,"midi":39,"time":113.454432,"velocity":0.5196850393700787},{"duration":0.13636350000000164,"midi":39,"time":113.5907955,"velocity":0.5196850393700787},{"duration":0.13636350000000164,"midi":39,"time":113.727159,"velocity":0.5196850393700787},{"duration":0.06818174999999371,"midi":39,"time":113.8635225,"velocity":0.5196850393700787},{"duration":0.13636350000000164,"midi":40,"time":113.999886,"velocity":0.5196850393700787},{"duration":0.06818174999999371,"midi":40,"time":114.1362495,"velocity":0.5196850393700787},{"duration":0.06818175000000792,"midi":40,"time":114.27261299999999,"velocity":0.5196850393700787},{"duration":0.13636350000000164,"midi":39,"time":114.4089765,"velocity":0.5196850393700787},{"duration":0.06818175000000792,"midi":39,"time":114.54534,"velocity":0.5196850393700787},{"duration":0.13636350000000164,"midi":39,"time":114.6817035,"velocity":0.5196850393700787},{"duration":0.06818174999999371,"midi":41,"time":114.818067,"velocity":0.5196850393700787},{"duration":0.06818174999999371,"midi":39,"time":114.9544305,"velocity":0.5196850393700787},{"duration":0.13636350000000164,"midi":41,"time":115.090794,"velocity":0.5196850393700787},{"duration":0.13636350000000164,"midi":38,"time":115.2271575,"velocity":0.5196850393700787},{"duration":0.13636349999998743,"midi":38,"time":115.363521,"velocity":0.5196850393700787},{"duration":0.13636350000000164,"midi":39,"time":115.4998845,"velocity":0.5196850393700787},{"duration":0.06818175000000792,"midi":39,"time":115.636248,"velocity":0.5196850393700787},{"duration":0.13636350000000164,"midi":39,"time":115.7726115,"velocity":0.5196850393700787},{"duration":0.13636350000000164,"midi":39,"time":115.908975,"velocity":0.5196850393700787},{"duration":0.06818174999999371,"midi":39,"time":116.0453385,"velocity":0.5196850393700787},{"duration":0.06818174999999371,"midi":40,"time":116.181702,"velocity":0.5196850393700787},{"duration":0.06818174999999371,"midi":40,"time":116.3180655,"velocity":0.5196850393700787},{"duration":0.13636349999998743,"midi":40,"time":116.454429,"velocity":0.5196850393700787},{"duration":0.06818175000000792,"midi":39,"time":116.59079249999999,"velocity":0.5196850393700787},{"duration":0.06818175000000792,"midi":39,"time":116.727156,"velocity":0.5196850393700787},{"duration":0.13636350000000164,"midi":39,"time":116.8635195,"velocity":0.5196850393700787},{"duration":0.06818175000000792,"midi":42,"time":116.999883,"velocity":0.5196850393700787},{"duration":0.06818174999999371,"midi":39,"time":117.1362465,"velocity":0.5196850393700787},{"duration":0.13636350000000164,"midi":42,"time":117.27261,"velocity":0.5196850393700787},{"duration":0.13636350000000164,"midi":38,"time":117.4089735,"velocity":0.5196850393700787},{"duration":0.13636350000000164,"midi":38,"time":117.545337,"velocity":0.5196850393700787},{"duration":0.13636349999998743,"midi":41,"time":117.6817005,"velocity":0.5196850393700787},{"duration":0.06818175000000792,"midi":39,"time":117.81806399999999,"velocity":0.5196850393700787},{"duration":0.13636350000000164,"midi":39,"time":117.9544275,"velocity":0.5196850393700787},{"duration":0.13636350000000164,"midi":39,"time":118.090791,"velocity":0.5196850393700787},{"duration":0.06818175000000792,"midi":39,"time":118.2271545,"velocity":0.5196850393700787},{"duration":0.13636350000000164,"midi":40,"time":118.363518,"velocity":0.5196850393700787},{"duration":0.06818174999999371,"midi":40,"time":118.4998815,"velocity":0.5196850393700787},{"duration":0.06818174999999371,"midi":40,"time":118.636245,"velocity":0.5196850393700787},{"duration":0.13636350000000164,"midi":39,"time":118.7726085,"velocity":0.5196850393700787},{"duration":0.06818174999999371,"midi":39,"time":118.908972,"velocity":0.5196850393700787},{"duration":0.13636350000000164,"midi":39,"time":119.0453355,"velocity":0.5196850393700787},{"duration":0.06818175000000792,"midi":41,"time":119.181699,"velocity":0.5196850393700787},{"duration":0.06818175000000792,"midi":39,"time":119.3180625,"velocity":0.5196850393700787},{"duration":0.13636350000000164,"midi":41,"time":119.454426,"velocity":0.5196850393700787},{"duration":0.13636350000000164,"midi":38,"time":119.5907895,"velocity":0.5196850393700787},{"duration":0.13636350000000164,"midi":38,"time":119.727153,"velocity":0.5196850393700787},{"duration":0.13636350000000164,"midi":39,"time":119.8635165,"velocity":0.5196850393700787},{"duration":0.06818174999999371,"midi":39,"time":119.99988,"velocity":0.5196850393700787},{"duration":0.13636350000000164,"midi":39,"time":120.13624349999999,"velocity":0.5196850393700787},{"duration":0.13636350000000164,"midi":39,"time":120.272607,"velocity":0.5196850393700787},{"duration":0.06818175000000792,"midi":39,"time":120.4089705,"velocity":0.5196850393700787},{"duration":0.06818175000000792,"midi":40,"time":120.545334,"velocity":0.5196850393700787},{"duration":0.06818174999999371,"midi":40,"time":120.6816975,"velocity":0.5196850393700787},{"duration":0.13636350000000164,"midi":40,"time":120.818061,"velocity":0.5196850393700787},{"duration":0.06818174999999371,"midi":39,"time":120.9544245,"velocity":0.5196850393700787},{"duration":0.06818174999999371,"midi":39,"time":121.090788,"velocity":0.5196850393700787},{"duration":0.13636349999998743,"midi":39,"time":121.2271515,"velocity":0.5196850393700787},{"duration":0.13636350000000164,"midi":39,"time":121.36351499999999,"velocity":0.5196850393700787},{"duration":0.06818175000000792,"midi":39,"time":121.4998785,"velocity":0.5196850393700787},{"duration":0.06818175000000792,"midi":39,"time":121.636242,"velocity":0.5196850393700787},{"duration":0.06818175000000792,"midi":39,"time":121.7726055,"velocity":0.5196850393700787},{"duration":0.06818174999999371,"midi":39,"time":121.908969,"velocity":0.5196850393700787},{"duration":0.13636350000000164,"midi":39,"time":122.0453325,"velocity":0.5196850393700787},{"duration":0.06818174999999371,"midi":39,"time":122.181696,"velocity":0.5196850393700787},{"duration":0.13636350000000164,"midi":39,"time":122.3180595,"velocity":0.5196850393700787},{"duration":0.13636349999998743,"midi":39,"time":122.454423,"velocity":0.5196850393700787},{"duration":0.06818175000000792,"midi":39,"time":122.5907865,"velocity":0.5196850393700787},{"duration":0.13636350000000164,"midi":40,"time":122.72715,"velocity":0.5196850393700787},{"duration":0.06818175000000792,"midi":40,"time":122.8635135,"velocity":0.5196850393700787},{"duration":0.06818175000000792,"midi":40,"time":122.999877,"velocity":0.5196850393700787},{"duration":0.13636350000000164,"midi":39,"time":123.1362405,"velocity":0.5196850393700787},{"duration":0.06818174999999371,"midi":39,"time":123.272604,"velocity":0.5196850393700787},{"duration":0.13636350000000164,"midi":39,"time":123.4089675,"velocity":0.5196850393700787},{"duration":0.06818174999999371,"midi":41,"time":123.545331,"velocity":0.5196850393700787},{"duration":0.06818175000000792,"midi":39,"time":123.68169449999999,"velocity":0.5196850393700787},{"duration":0.13636350000000164,"midi":41,"time":123.818058,"velocity":0.5196850393700787},{"duration":0.13636350000000164,"midi":38,"time":123.9544215,"velocity":0.5196850393700787},{"duration":0.13636350000000164,"midi":38,"time":124.090785,"velocity":0.5196850393700787},{"duration":0.13636350000000164,"midi":39,"time":124.2271485,"velocity":0.5196850393700787},{"duration":0.06818174999999371,"midi":39,"time":124.363512,"velocity":0.5196850393700787},{"duration":0.13636350000000164,"midi":39,"time":124.4998755,"velocity":0.5196850393700787},{"duration":0.13636350000000164,"midi":39,"time":124.636239,"velocity":0.5196850393700787},{"duration":0.06818174999999371,"midi":39,"time":124.7726025,"velocity":0.5196850393700787},{"duration":0.06818175000000792,"midi":40,"time":124.90896599999999,"velocity":0.5196850393700787},{"duration":0.06818175000000792,"midi":40,"time":125.0453295,"velocity":0.5196850393700787},{"duration":0.13636350000000164,"midi":40,"time":125.181693,"velocity":0.5196850393700787},{"duration":0.06818175000000792,"midi":39,"time":125.3180565,"velocity":0.5196850393700787},{"duration":0.06818174999999371,"midi":39,"time":125.45442,"velocity":0.5196850393700787},{"duration":0.13636350000000164,"midi":39,"time":125.5907835,"velocity":0.5196850393700787},{"duration":0.06818174999999371,"midi":42,"time":125.727147,"velocity":0.5196850393700787},{"duration":0.06818174999999371,"midi":39,"time":125.8635105,"velocity":0.5196850393700787},{"duration":0.13636349999998743,"midi":42,"time":125.999874,"velocity":0.5196850393700787},{"duration":0.13636350000000164,"midi":38,"time":126.1362375,"velocity":0.5196850393700787},{"duration":0.13636350000000164,"midi":38,"time":126.272601,"velocity":0.5196850393700787},{"duration":0.13636350000000164,"midi":41,"time":126.4089645,"velocity":0.5196850393700787},{"duration":0.06818175000000792,"midi":39,"time":126.545328,"velocity":0.5196850393700787},{"duration":0.13636350000000164,"midi":39,"time":126.6816915,"velocity":0.5196850393700787},{"duration":0.13636350000000164,"midi":39,"time":126.818055,"velocity":0.5196850393700787},{"duration":0.06818174999999371,"midi":39,"time":126.9544185,"velocity":0.5196850393700787},{"duration":0.13636349999998743,"midi":40,"time":127.090782,"velocity":0.5196850393700787},{"duration":0.06818175000000792,"midi":40,"time":127.22714549999999,"velocity":0.5196850393700787},{"duration":0.06818175000000792,"midi":40,"time":127.363509,"velocity":0.5196850393700787},{"duration":0.13636350000000164,"midi":39,"time":127.4998725,"velocity":0.5196850393700787},{"duration":0.06818175000000792,"midi":39,"time":127.636236,"velocity":0.5196850393700787},{"duration":0.13636350000000164,"midi":39,"time":127.7725995,"velocity":0.5196850393700787},{"duration":0.06818174999999371,"midi":41,"time":127.908963,"velocity":0.5196850393700787},{"duration":0.06818175000000792,"midi":39,"time":128.0453265,"velocity":0.5196850393700787},{"duration":0.13636349999998743,"midi":41,"time":128.18169,"velocity":0.5196850393700787},{"duration":0.13636350000001585,"midi":38,"time":128.3180535,"velocity":0.5196850393700787},{"duration":0.13636349999998743,"midi":38,"time":128.454417,"velocity":0.5196850393700787},{"duration":0.13636350000001585,"midi":39,"time":128.5907805,"velocity":0.5196850393700787},{"duration":0.0681817499999795,"midi":39,"time":128.727144,"velocity":0.5196850393700787},{"duration":0.13636349999998743,"midi":39,"time":128.8635075,"velocity":0.5196850393700787},{"duration":0.13636350000001585,"midi":39,"time":128.99987099999998,"velocity":0.5196850393700787},{"duration":0.06818175000000792,"midi":39,"time":129.1362345,"velocity":0.5196850393700787},{"duration":0.06818175000000792,"midi":40,"time":129.272598,"velocity":0.5196850393700787},{"duration":0.06818175000000792,"midi":40,"time":129.4089615,"velocity":0.5196850393700787},{"duration":0.13636350000001585,"midi":40,"time":129.545325,"velocity":0.5196850393700787},{"duration":0.0681817499999795,"midi":39,"time":129.6816885,"velocity":0.5196850393700787},{"duration":0.06818175000000792,"midi":39,"time":129.818052,"velocity":0.5196850393700787},{"duration":0.13636349999998743,"midi":39,"time":129.9544155,"velocity":0.5196850393700787},{"duration":0.0681817499999795,"midi":40,"time":129.9544155,"velocity":0.5196850393700787},{"duration":0.13636349999998743,"midi":40,"time":130.090779,"velocity":0.5196850393700787},{"duration":0.06818175000000792,"midi":41,"time":130.22714249999999,"velocity":0.5196850393700787},{"duration":0.13636349999998743,"midi":42,"time":130.363506,"velocity":0.5196850393700787},{"duration":0.06818175000000792,"midi":41,"time":130.4998695,"velocity":0.5196850393700787},{"duration":0.13636349999998743,"midi":40,"time":130.636233,"velocity":0.5196850393700787},{"duration":0.13636350000001585,"midi":38,"time":130.7725965,"velocity":0.5196850393700787},{"duration":0.0681817499999795,"midi":39,"time":130.90896,"velocity":0.5196850393700787},{"duration":0.13636350000001585,"midi":39,"time":131.0453235,"velocity":0.5196850393700787},{"duration":0.13636349999998743,"midi":39,"time":131.181687,"velocity":0.5196850393700787},{"duration":0.06818175000000792,"midi":39,"time":131.3180505,"velocity":0.5196850393700787},{"duration":0.13636350000001585,"midi":40,"time":131.45441399999999,"velocity":0.5196850393700787},{"duration":0.06818175000000792,"midi":40,"time":131.5907775,"velocity":0.5196850393700787},{"duration":0.06818175000000792,"midi":40,"time":131.727141,"velocity":0.5196850393700787},{"duration":0.13636349999998743,"midi":39,"time":131.8635045,"velocity":0.5196850393700787},{"duration":0.06818175000000792,"midi":39,"time":131.999868,"velocity":0.5196850393700787},{"duration":0.13636349999998743,"midi":39,"time":132.1362315,"velocity":0.5196850393700787},{"duration":0.06818175000000792,"midi":41,"time":132.272595,"velocity":0.5196850393700787},{"duration":0.0681817499999795,"midi":39,"time":132.4089585,"velocity":0.5196850393700787},{"duration":0.13636349999998743,"midi":41,"time":132.545322,"velocity":0.5196850393700787},{"duration":0.13636350000001585,"midi":38,"time":132.6816855,"velocity":0.5196850393700787},{"duration":0.13636349999998743,"midi":38,"time":132.818049,"velocity":0.5196850393700787},{"duration":0.13636350000001585,"midi":39,"time":132.9544125,"velocity":0.5196850393700787},{"duration":0.0681817499999795,"midi":39,"time":133.090776,"velocity":0.5196850393700787},{"duration":0.13636350000001585,"midi":39,"time":133.2271395,"velocity":0.5196850393700787},{"duration":0.13636349999998743,"midi":39,"time":133.363503,"velocity":0.5196850393700787},{"duration":0.06818175000000792,"midi":39,"time":133.4998665,"velocity":0.5196850393700787},{"duration":0.0681817499999795,"midi":40,"time":133.63623,"velocity":0.5196850393700787},{"duration":0.06818175000000792,"midi":40,"time":133.7725935,"velocity":0.5196850393700787},{"duration":0.13636350000001585,"midi":40,"time":133.908957,"velocity":0.5196850393700787},{"duration":0.06818175000000792,"midi":39,"time":134.0453205,"velocity":0.5196850393700787},{"duration":0.06818175000000792,"midi":39,"time":134.181684,"velocity":0.5196850393700787},{"duration":0.13636349999998743,"midi":39,"time":134.3180475,"velocity":0.5196850393700787},{"duration":0.06818175000000792,"midi":42,"time":134.454411,"velocity":0.5196850393700787},{"duration":0.0681817499999795,"midi":39,"time":134.5907745,"velocity":0.5196850393700787},{"duration":0.13636350000001585,"midi":42,"time":134.727138,"velocity":0.5196850393700787},{"duration":0.13636349999998743,"midi":38,"time":134.8635015,"velocity":0.5196850393700787},{"duration":0.13636349999998743,"midi":38,"time":134.999865,"velocity":0.5196850393700787},{"duration":0.13636350000001585,"midi":41,"time":135.1362285,"velocity":0.5196850393700787},{"duration":0.06818175000000792,"midi":39,"time":135.272592,"velocity":0.5196850393700787},{"duration":0.13636350000001585,"midi":39,"time":135.4089555,"velocity":0.5196850393700787},{"duration":0.13636349999998743,"midi":39,"time":135.545319,"velocity":0.5196850393700787},{"duration":0.06818175000000792,"midi":39,"time":135.6816825,"velocity":0.5196850393700787},{"duration":0.13636349999998743,"midi":40,"time":135.818046,"velocity":0.5196850393700787},{"duration":0.06818175000000792,"midi":40,"time":135.9544095,"velocity":0.5196850393700787},{"duration":0.06818175000000792,"midi":40,"time":136.09077299999998,"velocity":0.5196850393700787},{"duration":0.13636349999998743,"midi":39,"time":136.2271365,"velocity":0.5196850393700787},{"duration":0.06818175000000792,"midi":39,"time":136.3635,"velocity":0.5196850393700787},{"duration":0.13636349999998743,"midi":39,"time":136.4998635,"velocity":0.5196850393700787},{"duration":0.06818175000000792,"midi":41,"time":136.636227,"velocity":0.5196850393700787},{"duration":0.0681817499999795,"midi":39,"time":136.7725905,"velocity":0.5196850393700787},{"duration":0.13636350000001585,"midi":41,"time":136.908954,"velocity":0.5196850393700787},{"duration":0.13636349999998743,"midi":38,"time":137.0453175,"velocity":0.5196850393700787},{"duration":0.13636349999998743,"midi":38,"time":137.181681,"velocity":0.5196850393700787},{"duration":0.13636350000001585,"midi":39,"time":137.31804449999998,"velocity":0.5196850393700787},{"duration":0.06818175000000792,"midi":39,"time":137.454408,"velocity":0.5196850393700787},{"duration":0.13636350000001585,"midi":39,"time":137.5907715,"velocity":0.5196850393700787},{"duration":0.13636349999998743,"midi":39,"time":137.727135,"velocity":0.5196850393700787},{"duration":0.06818175000000792,"midi":39,"time":137.8634985,"velocity":0.5196850393700787},{"duration":0.0681817499999795,"midi":40,"time":137.999862,"velocity":0.5196850393700787},{"duration":0.06818175000000792,"midi":40,"time":138.1362255,"velocity":0.5196850393700787},{"duration":0.13636349999998743,"midi":40,"time":138.272589,"velocity":0.5196850393700787},{"duration":0.06818175000000792,"midi":39,"time":138.4089525,"velocity":0.5196850393700787},{"duration":0.06818175000000792,"midi":39,"time":138.54531599999999,"velocity":0.5196850393700787},{"duration":0.13636349999998743,"midi":39,"time":138.6816795,"velocity":0.5196850393700787},{"duration":0.13636350000001585,"midi":39,"time":138.818043,"velocity":0.5196850393700787},{"duration":0.06818175000000792,"midi":39,"time":138.9544065,"velocity":0.5196850393700787},{"duration":0.06818175000000792,"midi":39,"time":139.09077,"velocity":0.5196850393700787},{"duration":0.0681817499999795,"midi":39,"time":139.2271335,"velocity":0.5196850393700787},{"duration":0.06818175000000792,"midi":39,"time":139.363497,"velocity":0.5196850393700787},{"duration":0.13636349999998743,"midi":39,"time":139.4998605,"velocity":0.5196850393700787},{"duration":0.2727270000000033,"midi":51,"time":139.636224,"velocity":0.5196850393700787},{"duration":0.2727270000000033,"midi":39,"time":139.908951,"velocity":0.5196850393700787},{"duration":0.2727270000000033,"midi":39,"time":140.3180415,"velocity":0.5196850393700787},{"duration":0.27272699999997485,"midi":39,"time":140.727132,"velocity":0.5196850393700787},{"duration":0.2727270000000033,"midi":39,"time":140.999859,"velocity":0.5196850393700787},{"duration":0.2727270000000033,"midi":39,"time":141.1362225,"velocity":0.5196850393700787},{"duration":0.2727270000000033,"midi":50,"time":141.545313,"velocity":0.5196850393700787},{"duration":0.2727270000000033,"midi":52,"time":141.6816765,"velocity":0.5196850393700787},{"duration":0.2727270000000033,"midi":51,"time":141.81804,"velocity":0.5196850393700787},{"duration":0.2727270000000033,"midi":39,"time":142.090767,"velocity":0.5196850393700787},{"duration":0.2727270000000033,"midi":39,"time":142.4998575,"velocity":0.5196850393700787},{"duration":0.2727270000000033,"midi":40,"time":142.908948,"velocity":0.5196850393700787},{"duration":0.2727270000000033,"midi":52,"time":143.3180385,"velocity":0.5196850393700787},{"duration":0.2727270000000033,"midi":40,"time":143.727129,"velocity":0.5196850393700787},{"duration":0.2727270000000033,"midi":51,"time":143.999856,"velocity":0.5196850393700787},{"duration":0.2727270000000033,"midi":39,"time":144.272583,"velocity":0.5196850393700787},{"duration":0.2727270000000033,"midi":39,"time":144.6816735,"velocity":0.5196850393700787},{"duration":0.2727270000000033,"midi":39,"time":145.090764,"velocity":0.5196850393700787},{"duration":0.27272699999997485,"midi":39,"time":145.363491,"velocity":0.5196850393700787},{"duration":0.2727270000000033,"midi":39,"time":145.4998545,"velocity":0.5196850393700787},{"duration":0.2727270000000033,"midi":50,"time":145.908945,"velocity":0.5196850393700787},{"duration":0.2727270000000033,"midi":52,"time":146.0453085,"velocity":0.5196850393700787},{"duration":0.2727270000000033,"midi":51,"time":146.181672,"velocity":0.5196850393700787},{"duration":0.2727270000000033,"midi":39,"time":146.454399,"velocity":0.5196850393700787},{"duration":0.2727270000000033,"midi":39,"time":146.8634895,"velocity":0.5196850393700787},{"duration":0.2727270000000033,"midi":51,"time":146.999853,"velocity":0.5196850393700787},{"duration":0.2727270000000033,"midi":52,"time":147.1362165,"velocity":0.5196850393700787},{"duration":0.2727270000000033,"midi":50,"time":147.27258,"velocity":0.5196850393700787},{"duration":0.2727270000000033,"midi":38,"time":147.4089435,"velocity":0.5196850393700787},{"duration":0.2727270000000033,"midi":38,"time":147.6816705,"velocity":0.5196850393700787},{"duration":0.2727270000000033,"midi":38,"time":147.9543975,"velocity":0.5196850393700787},{"duration":0.2727270000000033,"midi":47,"time":148.363488,"velocity":0.5196850393700787},{"duration":0.2727270000000033,"midi":47,"time":148.636215,"velocity":0.5196850393700787},{"duration":0.27272699999997485,"midi":47,"time":149.0453055,"velocity":0.5196850393700787},{"duration":0.2727270000000033,"midi":47,"time":149.454396,"velocity":0.5196850393700787},{"duration":0.2727270000000033,"midi":47,"time":149.727123,"velocity":0.5196850393700787},{"duration":0.2727270000000033,"midi":47,"time":149.8634865,"velocity":0.5196850393700787},{"duration":0.27272699999997485,"midi":47,"time":150.272577,"velocity":0.5196850393700787},{"duration":0.13636349999998743,"midi":47,"time":150.4089405,"velocity":0.5196850393700787},{"duration":0.2727270000000033,"midi":47,"time":150.545304,"velocity":0.5196850393700787},{"duration":0.2727270000000033,"midi":44,"time":150.818031,"velocity":0.5196850393700787},{"duration":0.27272699999997485,"midi":44,"time":151.2271215,"velocity":0.5196850393700787},{"duration":0.2727270000000033,"midi":44,"time":151.636212,"velocity":0.5196850393700787},{"duration":0.2727270000000033,"midi":44,"time":151.908939,"velocity":0.5196850393700787},{"duration":0.2727270000000033,"midi":44,"time":152.0453025,"velocity":0.5196850393700787},{"duration":0.27272699999997485,"midi":40,"time":152.454393,"velocity":0.5196850393700787},{"duration":0.13636349999998743,"midi":40,"time":152.5907565,"velocity":0.5196850393700787},{"duration":0.2727270000000033,"midi":51,"time":152.72711999999999,"velocity":0.5196850393700787},{"duration":0.2727270000000033,"midi":39,"time":152.999847,"velocity":0.5196850393700787},{"duration":0.2727270000000033,"midi":39,"time":153.4089375,"velocity":0.5196850393700787},{"duration":0.2727270000000033,"midi":39,"time":153.818028,"velocity":0.5196850393700787},{"duration":0.2727270000000033,"midi":39,"time":154.090755,"velocity":0.5196850393700787},{"duration":0.2727270000000033,"midi":39,"time":154.2271185,"velocity":0.5196850393700787},{"duration":0.2727270000000033,"midi":50,"time":154.636209,"velocity":0.5196850393700787},{"duration":0.2727270000000033,"midi":52,"time":154.7725725,"velocity":0.5196850393700787},{"duration":0.27272699999997485,"midi":51,"time":154.908936,"velocity":0.5196850393700787},{"duration":0.2727270000000033,"midi":39,"time":155.181663,"velocity":0.5196850393700787},{"duration":0.2727270000000033,"midi":39,"time":155.5907535,"velocity":0.5196850393700787},{"duration":0.2727270000000033,"midi":39,"time":155.999844,"velocity":0.5196850393700787},{"duration":0.2727270000000033,"midi":39,"time":156.4089345,"velocity":0.5196850393700787},{"duration":0.2727270000000033,"midi":39,"time":156.6816615,"velocity":0.5196850393700787},{"duration":0.06818175000000792,"midi":39,"time":156.9543885,"velocity":0.5196850393700787},{"duration":0.2727270000000033,"midi":42,"time":157.090752,"velocity":0.5196850393700787},{"duration":0.2727270000000033,"midi":41,"time":157.2271155,"velocity":0.5196850393700787},{"duration":0.2727270000000033,"midi":41,"time":157.636206,"velocity":0.5196850393700787},{"duration":0.13636349999998743,"midi":41,"time":158.0452965,"velocity":0.5196850393700787},{"duration":0.2727270000000033,"midi":41,"time":158.18166,"velocity":0.5196850393700787},{"duration":0.27272699999997485,"midi":40,"time":158.3180235,"velocity":0.5196850393700787},{"duration":0.2727270000000033,"midi":44,"time":158.727114,"velocity":0.5196850393700787},{"duration":0.2727270000000033,"midi":37,"time":158.999841,"velocity":0.5196850393700787},{"duration":0.2727270000000033,"midi":42,"time":159.4089315,"velocity":0.5196850393700787},{"duration":0.27272699999997485,"midi":41,"time":159.545295,"velocity":0.5196850393700787},{"duration":0.2727270000000033,"midi":41,"time":159.81802199999998,"velocity":0.5196850393700787},{"duration":0.13636349999998743,"midi":41,"time":160.2271125,"velocity":0.5196850393700787},{"duration":0.2727270000000033,"midi":41,"time":160.363476,"velocity":0.5196850393700787},{"duration":0.2727270000000033,"midi":40,"time":160.4998395,"velocity":0.5196850393700787},{"duration":0.2727270000000033,"midi":43,"time":160.90893,"velocity":0.5196850393700787},{"duration":0.2727270000000033,"midi":37,"time":161.04529349999999,"velocity":0.5196850393700787},{"duration":0.2727270000000033,"midi":42,"time":161.454384,"velocity":0.5196850393700787},{"duration":0.2727270000000033,"midi":41,"time":161.5907475,"velocity":0.5196850393700787},{"duration":0.27272699999997485,"midi":41,"time":161.999838,"velocity":0.5196850393700787},{"duration":0.13636349999998743,"midi":41,"time":162.4089285,"velocity":0.5196850393700787},{"duration":0.2727270000000033,"midi":41,"time":162.545292,"velocity":0.5196850393700787},{"duration":0.2727270000000033,"midi":40,"time":162.647564625,"velocity":0.5196850393700787},{"duration":0.2727270000000033,"midi":43,"time":163.090746,"velocity":0.5196850393700787},{"duration":0.2727270000000033,"midi":37,"time":163.363473,"velocity":0.5196850393700787},{"duration":0.2727270000000033,"midi":42,"time":163.7725635,"velocity":0.5196850393700787},{"duration":0.2727270000000033,"midi":41,"time":163.908927,"velocity":0.5196850393700787},{"duration":0.2727270000000033,"midi":41,"time":164.181654,"velocity":0.5196850393700787},{"duration":0.13636349999998743,"midi":41,"time":164.5907445,"velocity":0.5196850393700787},{"duration":0.2727270000000033,"midi":41,"time":164.727108,"velocity":0.5196850393700787},{"duration":0.2727270000000033,"midi":40,"time":164.8634715,"velocity":0.5196850393700787},{"duration":0.2727270000000033,"midi":43,"time":165.272562,"velocity":0.5196850393700787},{"duration":0.27272699999997485,"midi":37,"time":165.4089255,"velocity":0.5196850393700787},{"duration":0.2727270000000033,"midi":42,"time":165.818016,"velocity":0.5196850393700787},{"duration":0.2727270000000033,"midi":41,"time":165.9543795,"velocity":0.5196850393700787},{"duration":0.2727270000000033,"midi":41,"time":166.36347,"velocity":0.5196850393700787},{"duration":0.13636349999998743,"midi":41,"time":166.7725605,"velocity":0.5196850393700787},{"duration":0.2727270000000033,"midi":41,"time":166.90892399999998,"velocity":0.5196850393700787},{"duration":0.2727270000000033,"midi":40,"time":167.0452875,"velocity":0.5196850393700787},{"duration":0.2727270000000033,"midi":44,"time":167.454378,"velocity":0.5196850393700787},{"duration":0.2727270000000033,"midi":37,"time":167.727105,"velocity":0.5196850393700787},{"duration":0.2727270000000033,"midi":42,"time":168.13619549999999,"velocity":0.5196850393700787},{"duration":0.2727270000000033,"midi":41,"time":168.272559,"velocity":0.5196850393700787},{"duration":0.2727270000000033,"midi":41,"time":168.545286,"velocity":0.5196850393700787},{"duration":0.13636350000001585,"midi":41,"time":168.9543765,"velocity":0.5196850393700787},{"duration":0.27272699999997485,"midi":41,"time":169.09074,"velocity":0.5196850393700787},{"duration":0.2727270000000033,"midi":40,"time":169.2271035,"velocity":0.5196850393700787},{"duration":0.2727270000000033,"midi":43,"time":169.636194,"velocity":0.5196850393700787},{"duration":0.2727270000000033,"midi":37,"time":169.7725575,"velocity":0.5196850393700787},{"duration":0.2727270000000033,"midi":42,"time":170.181648,"velocity":0.5196850393700787},{"duration":0.27272699999997485,"midi":41,"time":170.3180115,"velocity":0.5196850393700787},{"duration":0.2727270000000033,"midi":41,"time":170.727102,"velocity":0.5196850393700787},{"duration":0.13636350000001585,"midi":41,"time":171.1361925,"velocity":0.5196850393700787},{"duration":0.2727270000000033,"midi":41,"time":171.272556,"velocity":0.5196850393700787},{"duration":0.2727270000000033,"midi":40,"time":171.374828625,"velocity":0.5196850393700787},{"duration":0.2727270000000033,"midi":43,"time":171.81801,"velocity":0.5196850393700787},{"duration":0.2727270000000033,"midi":37,"time":172.090737,"velocity":0.5196850393700787},{"duration":0.27272699999997485,"midi":42,"time":172.4998275,"velocity":0.5196850393700787},{"duration":0.2727270000000033,"midi":41,"time":172.636191,"velocity":0.5196850393700787},{"duration":0.2727270000000033,"midi":41,"time":172.908918,"velocity":0.5196850393700787},{"duration":0.13636350000001585,"midi":41,"time":173.3180085,"velocity":0.5196850393700787},{"duration":0.2727270000000033,"midi":41,"time":173.454372,"velocity":0.5196850393700787},{"duration":0.2727270000000033,"midi":40,"time":173.5907355,"velocity":0.5196850393700787},{"duration":0.2727270000000033,"midi":43,"time":173.99982599999998,"velocity":0.5196850393700787},{"duration":0.2727270000000033,"midi":37,"time":174.1361895,"velocity":0.5196850393700787},{"duration":0.2727270000000033,"midi":42,"time":174.54528,"velocity":0.5196850393700787},{"duration":0.2727270000000033,"midi":41,"time":174.6816435,"velocity":0.5196850393700787},{"duration":0.2727270000000033,"midi":41,"time":175.090734,"velocity":0.5196850393700787},{"duration":0.13636350000001585,"midi":41,"time":175.4998245,"velocity":0.5196850393700787},{"duration":0.2727270000000033,"midi":41,"time":175.636188,"velocity":0.5196850393700787},{"duration":0.2727270000000033,"midi":40,"time":175.7725515,"velocity":0.5196850393700787},{"duration":0.27272699999997485,"midi":44,"time":176.181642,"velocity":0.5196850393700787},{"duration":0.2727270000000033,"midi":37,"time":176.45436899999999,"velocity":0.5196850393700787},{"duration":0.2727270000000033,"midi":42,"time":176.8634595,"velocity":0.5196850393700787},{"duration":0.2727270000000033,"midi":41,"time":176.999823,"velocity":0.5196850393700787},{"duration":0.2727270000000033,"midi":41,"time":177.27255,"velocity":0.5196850393700787},{"duration":0.13636350000001585,"midi":41,"time":177.6816405,"velocity":0.5196850393700787},{"duration":0.2727270000000033,"midi":41,"time":177.818004,"velocity":0.5196850393700787},{"duration":0.2727270000000033,"midi":40,"time":177.9543675,"velocity":0.5196850393700787},{"duration":0.2727270000000033,"midi":43,"time":178.363458,"velocity":0.5196850393700787},{"duration":0.2727270000000033,"midi":37,"time":178.4998215,"velocity":0.5196850393700787},{"duration":0.2727270000000033,"midi":42,"time":178.908912,"velocity":0.5196850393700787},{"duration":0.2727270000000033,"midi":41,"time":179.0452755,"velocity":0.5196850393700787},{"duration":0.2727270000000033,"midi":41,"time":179.454366,"velocity":0.5196850393700787},{"duration":0.13636349999998743,"midi":41,"time":179.8634565,"velocity":0.5196850393700787},{"duration":0.2727270000000033,"midi":41,"time":179.99982,"velocity":0.5196850393700787},{"duration":0.27272699999997485,"midi":40,"time":180.102092625,"velocity":0.5196850393700787},{"duration":0.2727270000000033,"midi":43,"time":180.545274,"velocity":0.5196850393700787},{"duration":0.27272699999997485,"midi":37,"time":180.818001,"velocity":0.5196850393700787},{"duration":0.2727270000000033,"midi":42,"time":181.2270915,"velocity":0.5196850393700787},{"duration":0.2727270000000033,"midi":41,"time":181.363455,"velocity":0.5196850393700787},{"duration":0.2727270000000033,"midi":41,"time":181.636182,"velocity":0.5196850393700787},{"duration":0.13636349999998743,"midi":41,"time":182.0452725,"velocity":0.5196850393700787},{"duration":0.2727270000000033,"midi":41,"time":182.181636,"velocity":0.5196850393700787},{"duration":0.2727270000000033,"midi":40,"time":182.31799949999998,"velocity":0.5196850393700787},{"duration":0.2727270000000033,"midi":43,"time":182.72709,"velocity":0.5196850393700787},{"duration":0.2727270000000033,"midi":37,"time":182.8634535,"velocity":0.5196850393700787},{"duration":0.27272699999997485,"midi":42,"time":183.272544,"velocity":0.5196850393700787},{"duration":0.2727270000000033,"midi":41,"time":183.4089075,"velocity":0.5196850393700787},{"duration":0.2727270000000033,"midi":41,"time":183.817998,"velocity":0.5196850393700787},{"duration":0.13636349999998743,"midi":41,"time":184.2270885,"velocity":0.5196850393700787},{"duration":0.2727270000000033,"midi":41,"time":184.363452,"velocity":0.5196850393700787},{"duration":0.27272699999997485,"midi":40,"time":184.4998155,"velocity":0.5196850393700787},{"duration":0.2727270000000033,"midi":44,"time":184.908906,"velocity":0.5196850393700787},{"duration":0.2727270000000033,"midi":37,"time":185.181633,"velocity":0.5196850393700787},{"duration":0.2727270000000033,"midi":42,"time":185.5907235,"velocity":0.5196850393700787},{"duration":0.27272699999997485,"midi":41,"time":185.727087,"velocity":0.5196850393700787},{"duration":0.2727270000000033,"midi":41,"time":185.999814,"velocity":0.5196850393700787},{"duration":0.13636349999998743,"midi":41,"time":186.4089045,"velocity":0.5196850393700787},{"duration":0.2727270000000033,"midi":41,"time":186.545268,"velocity":0.5196850393700787},{"duration":0.2727270000000033,"midi":40,"time":186.6816315,"velocity":0.5196850393700787},{"duration":0.2727270000000033,"midi":43,"time":187.090722,"velocity":0.5196850393700787},{"duration":0.2727270000000033,"midi":37,"time":187.2270855,"velocity":0.5196850393700787},{"duration":0.2727270000000033,"midi":42,"time":187.636176,"velocity":0.5196850393700787},{"duration":0.2727270000000033,"midi":41,"time":187.7725395,"velocity":0.5196850393700787},{"duration":0.2727270000000033,"midi":41,"time":188.18162999999998,"velocity":0.5196850393700787},{"duration":0.13636349999998743,"midi":41,"time":188.5907205,"velocity":0.5196850393700787},{"duration":0.2727270000000033,"midi":41,"time":188.727084,"velocity":0.5196850393700787},{"duration":0.2727270000000033,"midi":40,"time":188.829356625,"velocity":0.5196850393700787},{"duration":0.2727270000000033,"midi":43,"time":189.272538,"velocity":0.5196850393700787},{"duration":0.2727270000000033,"midi":37,"time":189.545265,"velocity":0.5196850393700787},{"duration":0.2727270000000033,"midi":42,"time":189.9543555,"velocity":0.5196850393700787},{"duration":0.2727270000000033,"midi":41,"time":190.090719,"velocity":0.5196850393700787},{"duration":0.27272699999997485,"midi":41,"time":190.363446,"velocity":0.5196850393700787},{"duration":0.13636349999998743,"midi":41,"time":190.7725365,"velocity":0.5196850393700787},{"duration":0.2727270000000033,"midi":41,"time":190.9089,"velocity":0.5196850393700787},{"duration":0.2727270000000033,"midi":40,"time":191.0452635,"velocity":0.5196850393700787},{"duration":0.2727270000000033,"midi":43,"time":191.454354,"velocity":0.5196850393700787},{"duration":0.27272699999997485,"midi":37,"time":191.5907175,"velocity":0.5196850393700787}]}]}
