{"tracks":[{"instrument":{"family":"piano","number":0,"name":"acoustic grand piano"},"notes":[{"duration":0.023255813953488372,"midi":62,"time":0,"velocity":0.4330708661417323},{"duration":0.03488372093023256,"midi":81,"time":0,"velocity":0.2755905511811024},{"duration":0.03488372093023256,"midi":70,"time":0.011627906976744186,"velocity":0.23622047244094488},{"duration":0.023255813953488372,"midi":73,"time":0.011627906976744186,"velocity":0.25984251968503935},{"duration":0.046511627906976744,"midi":97,"time":0.011627906976744186,"velocity":0.10236220472440945},{"duration":0.03488372093023256,"midi":98,"time":0.011627906976744186,"velocity":0.13385826771653545},{"duration":0.046511627906976744,"midi":100,"time":0.011627906976744186,"velocity":0.16535433070866143},{"duration":0.011627906976744186,"midi":61,"time":0.023255813953488372,"velocity":0.5275590551181102},{"duration":0.058139534883720936,"midi":102,"time":0.023255813953488372,"velocity":0.13385826771653545},{"duration":0.02325581395348838,"midi":57,"time":0.05813953488372093,"velocity":0.4094488188976378},{"duration":0.03488372093023255,"midi":73,"time":0.08139534883720931,"velocity":0.14173228346456693},{"duration":0.023255813953488372,"midi":53,"time":0.11627906976744186,"velocity":0.2677165354330709},{"duration":0.034883720930232565,"midi":63,"time":0.12790697674418605,"velocity":0.33070866141732286},{"duration":0.034883720930232565,"midi":77,"time":0.13953488372093023,"velocity":0.1968503937007874},{"duration":0.034883720930232565,"midi":79,"time":0.13953488372093023,"velocity":0.2047244094488189},{"duration":0.034883720930232565,"midi":82,"time":0.13953488372093023,"velocity":0.1968503937007874},{"duration":0.034883720930232565,"midi":57,"time":0.18604651162790697,"velocity":0.2755905511811024},{"duration":0.034883720930232565,"midi":53,"time":0.2441860465116279,"velocity":0.1732283464566929},{"duration":0.046511627906976716,"midi":58,"time":0.2558139534883721,"velocity":0.1968503937007874},{"duration":0.023255813953488358,"midi":55,"time":0.32558139534883723,"velocity":0.2283464566929134},{"duration":0.034883720930232565,"midi":74,"time":0.3953488372093023,"velocity":0.2677165354330709},{"duration":0.05813953488372092,"midi":80,"time":0.3953488372093023,"velocity":0.2992125984251969},{"duration":0.023255813953488358,"midi":76,"time":0.4069767441860465,"velocity":0.29133858267716534},{"duration":0.046511627906976716,"midi":78,"time":0.4069767441860465,"velocity":0.25984251968503935},{"duration":0.034883720930232565,"midi":94,"time":0.4069767441860465,"velocity":0.15748031496062992},{"duration":0.034883720930232565,"midi":97,"time":0.4069767441860465,"velocity":0.13385826771653545},{"duration":0.034883720930232565,"midi":98,"time":0.4069767441860465,"velocity":0.16535433070866143},{"duration":0.023255813953488358,"midi":50,"time":0.4186046511627907,"velocity":0.2755905511811024},{"duration":0.03488372093023251,"midi":77,"time":0.4186046511627907,"velocity":0.23622047244094488},{"duration":0.03488372093023251,"midi":93,"time":0.4186046511627907,"velocity":0.12598425196850394},{"duration":0.046511627906976716,"midi":102,"time":0.4186046511627907,"velocity":0.11023622047244094},{"duration":0.034883720930232565,"midi":75,"time":0.45348837209302323,"velocity":0.2047244094488189},{"duration":0.023255813953488413,"midi":60,"time":0.4883720930232558,"velocity":0.23622047244094488},{"duration":0.05813953488372092,"midi":76,"time":0.4883720930232558,"velocity":0.2677165354330709},{"duration":0.023255813953488413,"midi":53,"time":0.5,"velocity":0.3464566929133858},{"duration":0.023255813953488302,"midi":78,"time":0.5232558139534884,"velocity":0.2677165354330709},{"duration":0.023255813953488413,"midi":62,"time":0.5348837209302325,"velocity":0.4251968503937008},{"duration":0.03488372093023262,"midi":73,"time":0.5348837209302325,"velocity":0.25984251968503935},{"duration":0.03488372093023262,"midi":75,"time":0.5348837209302325,"velocity":0.29133858267716534},{"duration":0.04651162790697683,"midi":82,"time":0.5348837209302325,"velocity":0.18110236220472442},{"duration":0.03488372093023262,"midi":96,"time":0.5348837209302325,"velocity":0.15748031496062992},{"duration":0.03488372093023262,"midi":97,"time":0.5348837209302325,"velocity":0.12598425196850394},{"duration":0.023255813953488413,"midi":50,"time":0.5465116279069767,"velocity":0.2283464566929134},{"duration":0.06976744186046513,"midi":77,"time":0.5465116279069767,"velocity":0.2992125984251969},{"duration":0.023255813953488413,"midi":79,"time":0.5465116279069767,"velocity":0.31496062992125984},{"duration":0.04651162790697683,"midi":101,"time":0.5465116279069767,"velocity":0.07874015748031496},{"duration":0.023255813953488413,"midi":60,"time":0.5581395348837209,"velocity":0.48031496062992124},{"duration":0.04651162790697683,"midi":74,"time":0.6046511627906976,"velocity":0.18110236220472442},{"duration":0.03488372093023262,"midi":60,"time":0.6162790697674418,"velocity":0.23622047244094488},{"duration":0.046511627906976716,"midi":80,"time":0.627906976744186,"velocity":0.07874015748031496},{"duration":0.03488372093023251,"midi":77,"time":0.6395348837209303,"velocity":0.14960629921259844},{"duration":0.023255813953488413,"midi":72,"time":0.6627906976744186,"velocity":0.23622047244094488},{"duration":0.023255813953488413,"midi":78,"time":0.6627906976744186,"velocity":0.2440944881889764},{"duration":0.046511627906976716,"midi":76,"time":0.6744186046511628,"velocity":0.28346456692913385},{"duration":0.03488372093023262,"midi":82,"time":0.6744186046511628,"velocity":0.18110236220472442},{"duration":0.03488372093023262,"midi":98,"time":0.6744186046511628,"velocity":0.13385826771653545},{"duration":0.023255813953488413,"midi":73,"time":0.686046511627907,"velocity":0.2283464566929134},{"duration":0.023255813953488413,"midi":60,"time":0.7558139534883721,"velocity":0.2440944881889764},{"duration":0.05813953488372092,"midi":75,"time":0.7558139534883721,"velocity":0.08661417322834646},{"duration":0.03488372093023262,"midi":78,"time":0.7906976744186046,"velocity":0.1889763779527559},{"duration":0.05813953488372092,"midi":74,"time":0.8023255813953488,"velocity":0.14173228346456693},{"duration":0.03488372093023251,"midi":51,"time":0.8953488372093024,"velocity":0.12598425196850394},{"duration":0.023255813953488302,"midi":58,"time":0.8953488372093024,"velocity":0.25196850393700787},{"duration":0.023255813953488413,"midi":57,"time":0.9186046511627907,"velocity":0.2283464566929134},{"duration":0.04651162790697683,"midi":77,"time":0.9186046511627907,"velocity":0.2677165354330709},{"duration":0.023255813953488413,"midi":73,"time":0.9302325581395349,"velocity":0.29133858267716534},{"duration":0.03488372093023262,"midi":79,"time":0.9302325581395349,"velocity":0.23622047244094488},{"duration":0.046511627906976716,"midi":81,"time":0.9302325581395349,"velocity":0.18110236220472442},{"duration":0.046511627906976716,"midi":48,"time":0.9418604651162791,"velocity":0.14960629921259844},{"duration":0.023255813953488302,"midi":57,"time":0.9651162790697675,"velocity":0.4645669291338583},{"duration":0.03488372093023251,"midi":76,"time":0.9651162790697675,"velocity":0.18110236220472442},{"duration":0.046511627906976716,"midi":98,"time":0.9651162790697675,"velocity":0.08661417322834646},{"duration":0.023255813953488413,"midi":53,"time":1.0116279069767442,"velocity":0.3700787401574803},{"duration":0.023255813953488413,"midi":70,"time":1.0232558139534884,"velocity":0.2283464566929134},{"duration":0.0348837209302324,"midi":50,"time":1.0465116279069768,"velocity":0.33858267716535434},{"duration":0.06976744186046502,"midi":75,"time":1.0465116279069768,"velocity":0.3228346456692913},{"duration":0.0348837209302324,"midi":73,"time":1.058139534883721,"velocity":0.33070866141732286},{"duration":0.0348837209302324,"midi":80,"time":1.058139534883721,"velocity":0.15748031496062992},{"duration":0.05813953488372081,"midi":102,"time":1.058139534883721,"velocity":0.2047244094488189},{"duration":0.03488372093023262,"midi":64,"time":1.069767441860465,"velocity":0.1732283464566929},{"duration":0.04651162790697683,"midi":82,"time":1.069767441860465,"velocity":0.14173228346456693},{"duration":0.03488372093023262,"midi":84,"time":1.069767441860465,"velocity":0.18110236220472442},{"duration":0.04651162790697683,"midi":101,"time":1.0813953488372092,"velocity":0.09448818897637795},{"duration":0.023255813953488413,"midi":53,"time":1.1162790697674418,"velocity":0.3858267716535433},{"duration":0.03488372093023262,"midi":71,"time":1.1162790697674418,"velocity":0.2047244094488189},{"duration":0.023255813953488413,"midi":51,"time":1.1395348837209303,"velocity":0.33858267716535434},{"duration":0.03488372093023262,"midi":68,"time":1.1395348837209303,"velocity":0.1732283464566929},{"duration":0.03488372093023262,"midi":76,"time":1.1395348837209303,"velocity":0.11023622047244094},{"duration":0.0348837209302324,"midi":58,"time":1.1627906976744187,"velocity":0.1732283464566929},{"duration":0.0348837209302324,"midi":47,"time":1.186046511627907,"velocity":0.25984251968503935},{"duration":0.02325581395348819,"midi":66,"time":1.186046511627907,"velocity":0.2677165354330709},{"duration":0.08139534883720922,"midi":73,"time":1.186046511627907,"velocity":0.30708661417322836},{"duration":0.03488372093023262,"midi":57,"time":1.197674418604651,"velocity":0.4251968503937008},{"duration":0.03488372093023262,"midi":79,"time":1.197674418604651,"velocity":0.1732283464566929},{"duration":0.03488372093023262,"midi":99,"time":1.197674418604651,"velocity":0.14960629921259844},{"duration":0.03488372093023262,"midi":75,"time":1.2093023255813953,"velocity":0.2992125984251969},{"duration":0.03488372093023262,"midi":98,"time":1.2093023255813953,"velocity":0.10236220472440945},{"duration":0.03488372093023262,"midi":102,"time":1.2093023255813953,"velocity":0.09448818897637795},{"duration":0.023255813953488413,"midi":55,"time":1.2325581395348837,"velocity":0.3858267716535433},{"duration":0.03488372093023262,"midi":71,"time":1.255813953488372,"velocity":0.11023622047244094},{"duration":0.023255813953488413,"midi":51,"time":1.2674418604651163,"velocity":0.31496062992125984},{"duration":0.04651162790697683,"midi":75,"time":1.313953488372093,"velocity":0.23622047244094488},{"duration":0.023255813953488413,"midi":70,"time":1.3255813953488371,"velocity":0.33070866141732286},{"duration":0.03488372093023262,"midi":72,"time":1.3255813953488371,"velocity":0.33070866141732286},{"duration":0.04651162790697683,"midi":81,"time":1.3255813953488371,"velocity":0.2204724409448819},{"duration":0.03488372093023262,"midi":83,"time":1.3255813953488371,"velocity":0.2755905511811024},{"duration":0.03488372093023262,"midi":94,"time":1.3255813953488371,"velocity":0.1732283464566929},{"duration":0.04651162790697683,"midi":103,"time":1.3255813953488371,"velocity":0.2047244094488189},{"duration":0.023255813953488413,"midi":50,"time":1.3372093023255813,"velocity":0.49606299212598426},{"duration":0.03488372093023262,"midi":78,"time":1.3372093023255813,"velocity":0.25984251968503935},{"duration":0.03488372093023262,"midi":88,"time":1.3372093023255813,"velocity":0.10236220472440945},{"duration":0.03488372093023262,"midi":92,"time":1.3372093023255813,"velocity":0.16535433070866143},{"duration":0.058139534883721034,"midi":99,"time":1.3372093023255813,"velocity":0.08661417322834646},{"duration":0.06976744186046524,"midi":102,"time":1.3372093023255813,"velocity":0.14960629921259844},{"duration":0.03488372093023262,"midi":69,"time":1.3488372093023255,"velocity":0.33070866141732286},{"duration":0.023255813953488413,"midi":71,"time":1.3488372093023255,"velocity":0.28346456692913385},{"duration":0.03488372093023262,"midi":76,"time":1.3488372093023255,"velocity":0.23622047244094488},{"duration":0.011627906976744207,"midi":45,"time":1.3604651162790697,"velocity":0.5669291338582677},{"duration":0.058139534883721034,"midi":73,"time":1.3604651162790697,"velocity":0.2047244094488189},{"duration":0.03488372093023262,"midi":44,"time":1.372093023255814,"velocity":0.6141732283464567},{"duration":0.023255813953488413,"midi":54,"time":1.372093023255814,"velocity":0.3464566929133858},{"duration":0.058139534883721034,"midi":65,"time":1.372093023255814,"velocity":0.16535433070866143},{"duration":0.03488372093023262,"midi":68,"time":1.3837209302325582,"velocity":0.12598425196850394},{"duration":0.03488372093023262,"midi":75,"time":1.3837209302325582,"velocity":0.16535433070866143},{"duration":0.10465116279069764,"midi":61,"time":1.4069767441860466,"velocity":0.33858267716535434},{"duration":0.0348837209302324,"midi":80,"time":1.4186046511627908,"velocity":0.09448818897637795},{"duration":0.5,"midi":97,"time":1.4186046511627908,"velocity":0.2677165354330709},{"duration":0.023255813953488413,"midi":53,"time":1.441860465116279,"velocity":0.2283464566929134},{"duration":0.03488372093023262,"midi":72,"time":1.4534883720930232,"velocity":0.1732283464566929},{"duration":0.03488372093023262,"midi":36,"time":1.4651162790697674,"velocity":0.3779527559055118},{"duration":0.03488372093023262,"midi":78,"time":1.4651162790697674,"velocity":0.15748031496062992},{"duration":0.09302325581395365,"midi":85,"time":1.4651162790697674,"velocity":0.1968503937007874},{"duration":0.13953488372093026,"midi":77,"time":1.4883720930232558,"velocity":0.29133858267716534},{"duration":0.058139534883721034,"midi":80,"time":1.4883720930232558,"velocity":0.15748031496062992},{"duration":0.13953488372093026,"midi":95,"time":1.4883720930232558,"velocity":0.2204724409448819},{"duration":0.04651162790697683,"midi":65,"time":1.5,"velocity":0.08661417322834646},{"duration":0.10465116279069764,"midi":70,"time":1.5,"velocity":0.16535433070866143},{"duration":0.0348837209302324,"midi":58,"time":1.5348837209302326,"velocity":0.1732283464566929},{"duration":0.33720930232558133,"midi":61,"time":1.5348837209302326,"velocity":0.4645669291338583},{"duration":0.05813953488372081,"midi":66,"time":1.5465116279069768,"velocity":0.1968503937007874},{"duration":0.0348837209302324,"midi":92,"time":1.558139534883721,"velocity":0.08661417322834646},{"duration":0.16279069767441867,"midi":82,"time":1.569767441860465,"velocity":0.23622047244094488},{"duration":0.08139534883720945,"midi":85,"time":1.569767441860465,"velocity":0.14960629921259844},{"duration":0.06976744186046524,"midi":81,"time":1.6046511627906976,"velocity":0.2204724409448819},{"duration":0.03488372093023262,"midi":88,"time":1.6046511627906976,"velocity":0.11811023622047244},{"duration":0.023255813953488413,"midi":45,"time":1.6162790697674418,"velocity":0.29133858267716534},{"duration":0.03488372093023262,"midi":69,"time":1.6162790697674418,"velocity":0.2755905511811024},{"duration":0.058139534883721034,"midi":84,"time":1.6162790697674418,"velocity":0.14960629921259844},{"duration":0.023255813953488413,"midi":38,"time":1.6395348837209303,"velocity":0.3779527559055118},{"duration":0.34883720930232553,"midi":70,"time":1.6395348837209303,"velocity":0.3228346456692913},{"duration":0.03488372093023262,"midi":77,"time":1.6395348837209303,"velocity":0.16535433070866143},{"duration":0.08139534883720922,"midi":66,"time":1.6627906976744187,"velocity":0.14960629921259844},{"duration":0.3953488372093026,"midi":77,"time":1.7093023255813953,"velocity":0.33858267716535434},{"duration":0.03488372093023262,"midi":92,"time":1.7209302325581395,"velocity":0.07086614173228346},{"duration":0.04651162790697683,"midi":81,"time":1.7325581395348837,"velocity":0.2125984251968504},{"duration":0.03488372093023262,"midi":87,"time":1.7325581395348837,"velocity":0.11023622047244094},{"duration":0.03488372093023262,"midi":95,"time":1.7325581395348837,"velocity":0.09448818897637795},{"duration":0.08139534883720922,"midi":66,"time":1.7790697674418605,"velocity":0.3779527559055118},{"duration":0.0348837209302324,"midi":46,"time":1.802325581395349,"velocity":0.3228346456692913},{"duration":0.023255813953488413,"midi":67,"time":1.8604651162790697,"velocity":0.33858267716535434},{"duration":0.08139534883720922,"midi":88,"time":1.8604651162790697,"velocity":0.2283464566929134},{"duration":0.06976744186046524,"midi":90,"time":1.8604651162790697,"velocity":0.28346456692913385},{"duration":0.03488372093023262,"midi":92,"time":1.8604651162790697,"velocity":0.11023622047244094},{"duration":0.04651162790697683,"midi":98,"time":1.8604651162790697,"velocity":0.12598425196850394},{"duration":0.03488372093023262,"midi":99,"time":1.8604651162790697,"velocity":0.14173228346456693},{"duration":0.03488372093023262,"midi":103,"time":1.8604651162790697,"velocity":0.16535433070866143},{"duration":0.011627906976744207,"midi":53,"time":1.872093023255814,"velocity":0.5196850393700787},{"duration":0.023255813953488413,"midi":60,"time":1.872093023255814,"velocity":0.41732283464566927},{"duration":0.16279069767441867,"midi":66,"time":1.872093023255814,"velocity":0.3700787401574803},{"duration":0.04651162790697683,"midi":81,"time":1.872093023255814,"velocity":0.16535433070866143},{"duration":0.06976744186046502,"midi":94,"time":1.872093023255814,"velocity":0.15748031496062992},{"duration":0.023255813953488413,"midi":45,"time":1.8837209302325582,"velocity":0.5984251968503937},{"duration":0.011627906976744207,"midi":52,"time":1.8837209302325582,"velocity":0.5118110236220472},{"duration":0.04651162790697683,"midi":83,"time":1.8837209302325582,"velocity":0.13385826771653545},{"duration":0.12790697674418605,"midi":61,"time":1.8953488372093024,"velocity":0.2992125984251969},{"duration":0.011627906976744207,"midi":44,"time":1.9069767441860466,"velocity":0.5984251968503937},{"duration":0.02325581395348819,"midi":42,"time":1.9186046511627908,"velocity":0.5826771653543307},{"duration":0.20930232558139505,"midi":97,"time":1.930232558139535,"velocity":0.2283464566929134},{"duration":0.06976744186046524,"midi":80,"time":1.941860465116279,"velocity":0.25196850393700787},{"duration":0.023255813953488413,"midi":53,"time":1.9534883720930232,"velocity":0.29133858267716534},{"duration":0.023255813953488413,"midi":37,"time":1.9767441860465116,"velocity":0.44881889763779526},{"duration":0.08139534883720945,"midi":82,"time":1.9883720930232558,"velocity":0.2047244094488189},{"duration":0.04651162790697683,"midi":90,"time":1.9883720930232558,"velocity":0.2125984251968504},{"duration":0.04651162790697683,"midi":93,"time":1.9883720930232558,"velocity":0.2204724409448819},{"duration":0.023255813953488413,"midi":36,"time":2,"velocity":0.36220472440944884},{"duration":0.08139534883720945,"midi":48,"time":2,"velocity":0.36220472440944884},{"duration":0.11627906976744162,"midi":55,"time":2.011627906976744,"velocity":0.3228346456692913},{"duration":0.058139534883721034,"midi":70,"time":2.011627906976744,"velocity":0.10236220472440945},{"duration":0.023255813953488413,"midi":81,"time":2.011627906976744,"velocity":0.2440944881889764},{"duration":0.023255813953488413,"midi":40,"time":2.0232558139534884,"velocity":0.2677165354330709},{"duration":0.03488372093023262,"midi":80,"time":2.0232558139534884,"velocity":0.14960629921259844},{"duration":0.03488372093023262,"midi":83,"time":2.0232558139534884,"velocity":0.07874015748031496},{"duration":0.04651162790697683,"midi":61,"time":2.0348837209302326,"velocity":0.3228346456692913},{"duration":0.04651162790697683,"midi":95,"time":2.0348837209302326,"velocity":0.13385826771653545},{"duration":0.023255813953488413,"midi":35,"time":2.0697674418604652,"velocity":0.33858267716535434},{"duration":0.0697674418604648,"midi":60,"time":2.0813953488372094,"velocity":0.29133858267716534},{"duration":0.10465116279069742,"midi":80,"time":2.0813953488372094,"velocity":0.10236220472440945},{"duration":0.034883720930232176,"midi":48,"time":2.0930232558139537,"velocity":0.2677165354330709},{"duration":0.034883720930232176,"midi":92,"time":2.116279069767442,"velocity":0.13385826771653545},{"duration":0.03488372093023262,"midi":64,"time":2.127906976744186,"velocity":0.2204724409448819},{"duration":0.04651162790697683,"midi":74,"time":2.127906976744186,"velocity":0.1968503937007874},{"duration":0.03488372093023262,"midi":83,"time":2.127906976744186,"velocity":0.23622047244094488},{"duration":0.04651162790697683,"midi":88,"time":2.127906976744186,"velocity":0.2204724409448819},{"duration":0.06976744186046524,"midi":91,"time":2.127906976744186,"velocity":0.2047244094488189},{"duration":0.023255813953488413,"midi":45,"time":2.13953488372093,"velocity":0.3779527559055118},{"duration":0.023255813953488413,"midi":53,"time":2.13953488372093,"velocity":0.30708661417322836},{"duration":0.08139534883720945,"midi":68,"time":2.13953488372093,"velocity":0.2047244094488189},{"duration":0.04651162790697683,"midi":76,"time":2.13953488372093,"velocity":0.2440944881889764},{"duration":0.04651162790697683,"midi":81,"time":2.13953488372093,"velocity":0.11811023622047244},{"duration":0.20930232558139572,"midi":87,"time":2.13953488372093,"velocity":0.2204724409448819},{"duration":0.20930232558139572,"midi":94,"time":2.13953488372093,"velocity":0.18110236220472442},{"duration":0.06976744186046524,"midi":77,"time":2.1511627906976742,"velocity":0.14960629921259844},{"duration":0.06976744186046524,"midi":79,"time":2.1511627906976742,"velocity":0.2047244094488189},{"duration":0.08139534883720945,"midi":84,"time":2.1511627906976742,"velocity":0.1968503937007874},{"duration":0.1511627906976747,"midi":46,"time":2.1627906976744184,"velocity":0.33070866141732286},{"duration":0.058139534883721034,"midi":70,"time":2.1627906976744184,"velocity":0.11023622047244094},{"duration":0.023255813953488413,"midi":53,"time":2.1744186046511627,"velocity":0.28346456692913385},{"duration":0.023255813953488413,"midi":59,"time":2.1744186046511627,"velocity":0.25984251968503935},{"duration":0.03488372093023262,"midi":63,"time":2.1744186046511627,"velocity":0.29133858267716534},{"duration":0.11627906976744207,"midi":82,"time":2.1744186046511627,"velocity":0.14960629921259844},{"duration":0.2674418604651163,"midi":97,"time":2.1744186046511627,"velocity":0.18110236220472442},{"duration":1.0348837209302326,"midi":99,"time":2.1744186046511627,"velocity":0.30708661417322836},{"duration":0.09302325581395365,"midi":72,"time":2.186046511627907,"velocity":0.2047244094488189},{"duration":0.4651162790697674,"midi":75,"time":2.197674418604651,"velocity":0.29133858267716534},{"duration":0.06976744186046524,"midi":34,"time":2.2093023255813953,"velocity":0.3464566929133858},{"duration":0.058139534883721034,"midi":53,"time":2.2093023255813953,"velocity":0.30708661417322836},{"duration":0.17441860465116266,"midi":63,"time":2.244186046511628,"velocity":0.31496062992125984},{"duration":0.15116279069767424,"midi":80,"time":2.244186046511628,"velocity":0.14960629921259844},{"duration":0.03488372093023262,"midi":91,"time":2.255813953488372,"velocity":0.07086614173228346},{"duration":0.2558139534883721,"midi":60,"time":2.2790697674418605,"velocity":0.28346456692913385},{"duration":0.08139534883720945,"midi":84,"time":2.2906976744186047,"velocity":0.15748031496062992},{"duration":0.03488372093023262,"midi":101,"time":2.3372093023255816,"velocity":0.09448818897637795},{"duration":0.03488372093023262,"midi":79,"time":2.383720930232558,"velocity":0.08661417322834646},{"duration":0.04651162790697683,"midi":86,"time":2.383720930232558,"velocity":0.2204724409448819},{"duration":0.04651162790697683,"midi":91,"time":2.383720930232558,"velocity":0.14960629921259844},{"duration":0.03488372093023262,"midi":95,"time":2.383720930232558,"velocity":0.2125984251968504},{"duration":0.03488372093023262,"midi":103,"time":2.383720930232558,"velocity":0.1732283464566929},{"duration":0.04651162790697683,"midi":81,"time":2.395348837209302,"velocity":0.2047244094488189},{"duration":0.03488372093023262,"midi":89,"time":2.395348837209302,"velocity":0.2283464566929134},{"duration":0.08139534883720945,"midi":78,"time":2.4069767441860463,"velocity":0.11023622047244094},{"duration":0.011627906976744207,"midi":46,"time":2.4186046511627906,"velocity":0.5748031496062992},{"duration":0.06976744186046524,"midi":56,"time":2.4186046511627906,"velocity":0.25196850393700787},{"duration":0.058139534883721034,"midi":66,"time":2.4186046511627906,"velocity":0.14173228346456693},{"duration":1.0465116279069768,"midi":68,"time":2.4186046511627906,"velocity":0.3937007874015748},{"duration":0.011627906976744207,"midi":45,"time":2.4302325581395348,"velocity":0.5984251968503937},{"duration":0.011627906976744207,"midi":43,"time":2.441860465116279,"velocity":0.5905511811023622},{"duration":0.023255813953488413,"midi":42,"time":2.453488372093023,"velocity":0.5748031496062992},{"duration":0.11627906976744207,"midi":51,"time":2.453488372093023,"velocity":0.30708661417322836},{"duration":0.023255813953488413,"midi":38,"time":2.488372093023256,"velocity":0.4251968503937008},{"duration":0.03488372093023262,"midi":97,"time":2.488372093023256,"velocity":0.18110236220472442},{"duration":0.058139534883721034,"midi":82,"time":2.5,"velocity":0.11811023622047244},{"duration":0.023255813953488413,"midi":35,"time":2.5232558139534884,"velocity":0.44881889763779526},{"duration":0.023255813953488413,"midi":34,"time":2.546511627906977,"velocity":0.3228346456692913},{"duration":0.03488372093023262,"midi":97,"time":2.546511627906977,"velocity":0.08661417322834646},{"duration":0.03488372093023262,"midi":44,"time":2.558139534883721,"velocity":0.14173228346456693},{"duration":0.20930232558139528,"midi":63,"time":2.558139534883721,"velocity":0.3700787401574803},{"duration":0.0697674418604648,"midi":82,"time":2.5930232558139537,"velocity":0.13385826771653545},{"duration":0.06976744186046524,"midi":78,"time":2.6511627906976742,"velocity":0.1732283464566929},{"duration":0.04651162790697683,"midi":86,"time":2.6511627906976742,"velocity":0.2125984251968504},{"duration":0.04651162790697683,"midi":89,"time":2.6511627906976742,"velocity":0.2125984251968504},{"duration":0.06976744186046524,"midi":91,"time":2.6511627906976742,"velocity":0.15748031496062992},{"duration":0.1511627906976747,"midi":51,"time":2.6627906976744184,"velocity":0.2992125984251969},{"duration":0.023255813953488413,"midi":57,"time":2.6627906976744184,"velocity":0.25196850393700787},{"duration":0.03488372093023262,"midi":60,"time":2.6627906976744184,"velocity":0.29133858267716534},{"duration":0.04651162790697683,"midi":74,"time":2.6627906976744184,"velocity":0.2677165354330709},{"duration":0.08139534883720945,"midi":77,"time":2.6627906976744184,"velocity":0.2283464566929134},{"duration":0.04651162790697683,"midi":81,"time":2.6627906976744184,"velocity":0.23622047244094488},{"duration":0.6511627906976747,"midi":75,"time":2.6744186046511627,"velocity":0.3700787401574803},{"duration":0.11627906976744207,"midi":79,"time":2.6744186046511627,"velocity":0.13385826771653545},{"duration":0.10465116279069786,"midi":56,"time":2.686046511627907,"velocity":0.2440944881889764},{"duration":0.11627906976744207,"midi":44,"time":2.697674418604651,"velocity":0.3543307086614173},{"duration":0.04651162790697683,"midi":82,"time":2.7209302325581395,"velocity":0.08661417322834646},{"duration":0.023255813953488413,"midi":33,"time":2.7325581395348837,"velocity":0.33070866141732286},{"duration":0.5813953488372094,"midi":72,"time":2.7325581395348837,"velocity":0.33070866141732286},{"duration":0.03488372093023262,"midi":97,"time":2.744186046511628,"velocity":0.15748031496062992},{"duration":0.10465116279069786,"midi":32,"time":2.755813953488372,"velocity":0.3464566929133858},{"duration":0.03488372093023262,"midi":60,"time":2.7790697674418605,"velocity":0.1889763779527559},{"duration":0.04651162790697683,"midi":63,"time":2.813953488372093,"velocity":0.2204724409448819},{"duration":0.05813953488372059,"midi":60,"time":2.8488372093023258,"velocity":0.11811023622047244},{"duration":0.13953488372093004,"midi":97,"time":2.8488372093023258,"velocity":0.14960629921259844},{"duration":0.05813953488372059,"midi":82,"time":2.872093023255814,"velocity":0.18110236220472442},{"duration":0.03488372093023262,"midi":63,"time":2.883720930232558,"velocity":0.3779527559055118},{"duration":0.04651162790697683,"midi":100,"time":2.9069767441860463,"velocity":0.16535433070866143},{"duration":0.03488372093023262,"midi":77,"time":2.9186046511627906,"velocity":0.12598425196850394},{"duration":0.058139534883721034,"midi":81,"time":2.9186046511627906,"velocity":0.13385826771653545},{"duration":0.06976744186046524,"midi":90,"time":2.9186046511627906,"velocity":0.2992125984251969},{"duration":0.058139534883721034,"midi":93,"time":2.9186046511627906,"velocity":0.14173228346456693},{"duration":0.058139534883721034,"midi":96,"time":2.9186046511627906,"velocity":0.09448818897637795},{"duration":0.06976744186046524,"midi":101,"time":2.9186046511627906,"velocity":0.1968503937007874},{"duration":0.04651162790697683,"midi":103,"time":2.9186046511627906,"velocity":0.18110236220472442},{"duration":0.03488372093023262,"midi":45,"time":2.9302325581395348,"velocity":0.6062992125984252},{"duration":0.011627906976744207,"midi":53,"time":2.9302325581395348,"velocity":0.5196850393700787},{"duration":0.06976744186046524,"midi":89,"time":2.9302325581395348,"velocity":0.23622047244094488},{"duration":0.04651162790697683,"midi":94,"time":2.9302325581395348,"velocity":0.14960629921259844},{"duration":0.03488372093023262,"midi":98,"time":2.9302325581395348,"velocity":0.13385826771653545},{"duration":0.011627906976744207,"midi":51,"time":2.941860465116279,"velocity":0.5118110236220472},{"duration":0.058139534883721034,"midi":88,"time":2.941860465116279,"velocity":0.11811023622047244},{"duration":0.011627906976744207,"midi":44,"time":2.9651162790697674,"velocity":0.5984251968503937},{"duration":0.04651162790697683,"midi":52,"time":2.9651162790697674,"velocity":0.2992125984251969},{"duration":0.011627906976744207,"midi":43,"time":2.9767441860465116,"velocity":0.5748031496062992},{"duration":0.03488372093023262,"midi":85,"time":2.9767441860465116,"velocity":0.11811023622047244},{"duration":0.011627906976744207,"midi":42,"time":2.988372093023256,"velocity":0.5354330708661418},{"duration":0.023255813953488413,"midi":53,"time":3.011627906976744,"velocity":0.23622047244094488},{"duration":0.19767441860465107,"midi":63,"time":3.011627906976744,"velocity":0.2755905511811024},{"duration":0.023255813953488413,"midi":37,"time":3.0348837209302326,"velocity":0.4330708661417323},{"duration":0.10465116279069742,"midi":56,"time":3.0348837209302326,"velocity":0.29133858267716534},{"duration":0.023255813953488413,"midi":35,"time":3.0697674418604652,"velocity":0.29133858267716534},{"duration":0.034883720930232176,"midi":92,"time":3.116279069767442,"velocity":0.10236220472440945},{"duration":0.03488372093023262,"midi":83,"time":3.1744186046511627,"velocity":0.2047244094488189},{"duration":0.06976744186046524,"midi":92,"time":3.1744186046511627,"velocity":0.11023622047244094},{"duration":0.023255813953488413,"midi":51,"time":3.186046511627907,"velocity":0.2283464566929134},{"duration":0.04651162790697683,"midi":81,"time":3.186046511627907,"velocity":0.2204724409448819},{"duration":0.03488372093023262,"midi":85,"time":3.186046511627907,"velocity":0.11023622047244094},{"duration":0.03488372093023262,"midi":88,"time":3.186046511627907,"velocity":0.11023622047244094},{"duration":0.03488372093023262,"midi":90,"time":3.186046511627907,"velocity":0.15748031496062992},{"duration":0.023255813953488413,"midi":37,"time":3.2325581395348837,"velocity":0.3700787401574803},{"duration":0.04651162790697683,"midi":99,"time":3.2325581395348837,"velocity":0.09448818897637795},{"duration":0.22093023255813948,"midi":63,"time":3.244186046511628,"velocity":0.23622047244094488},{"duration":0.09302325581395365,"midi":92,"time":3.2790697674418605,"velocity":0.15748031496062992},{"duration":0.023255813953488413,"midi":39,"time":3.2906976744186047,"velocity":0.31496062992125984},{"duration":0.023255813953488413,"midi":40,"time":3.313953488372093,"velocity":0.2677165354330709},{"duration":0.0697674418604648,"midi":78,"time":3.313953488372093,"velocity":0.2047244094488189},{"duration":0.058139534883721034,"midi":81,"time":3.313953488372093,"velocity":0.2204724409448819},{"duration":0.04651162790697683,"midi":89,"time":3.313953488372093,"velocity":0.2283464566929134},{"duration":0.12790697674418583,"midi":56,"time":3.3255813953488373,"velocity":0.3543307086614173},{"duration":0.03488372093023262,"midi":66,"time":3.3255813953488373,"velocity":0.2047244094488189},{"duration":0.12790697674418583,"midi":72,"time":3.3255813953488373,"velocity":0.2125984251968504},{"duration":0.081395348837209,"midi":74,"time":3.3255813953488373,"velocity":0.25196850393700787},{"duration":0.0697674418604648,"midi":77,"time":3.3255813953488373,"velocity":0.2125984251968504},{"duration":0.023255813953488413,"midi":60,"time":3.3488372093023258,"velocity":0.23622047244094488},{"duration":0.04651162790697638,"midi":51,"time":3.372093023255814,"velocity":0.30708661417322836},{"duration":0.023255813953488413,"midi":34,"time":3.395348837209302,"velocity":0.3228346456692913},{"duration":0.08139534883720945,"midi":99,"time":3.395348837209302,"velocity":0.14960629921259844},{"duration":0.023255813953488413,"midi":44,"time":3.4302325581395348,"velocity":0.2440944881889764},{"duration":0.03488372093023262,"midi":51,"time":3.4302325581395348,"velocity":0.3858267716535433},{"duration":0.03488372093023262,"midi":32,"time":3.441860465116279,"velocity":0.31496062992125984},{"duration":0.03488372093023262,"midi":86,"time":3.441860465116279,"velocity":0.1968503937007874},{"duration":0.03488372093023262,"midi":95,"time":3.441860465116279,"velocity":0.16535433070866143},{"duration":0.03488372093023262,"midi":96,"time":3.441860465116279,"velocity":0.1732283464566929},{"duration":0.03488372093023262,"midi":102,"time":3.441860465116279,"velocity":0.1732283464566929},{"duration":0.03488372093023262,"midi":103,"time":3.441860465116279,"velocity":0.1732283464566929},{"duration":0.06976744186046524,"midi":74,"time":3.453488372093023,"velocity":0.1732283464566929},{"duration":0.04651162790697683,"midi":78,"time":3.453488372093023,"velocity":0.25196850393700787},{"duration":0.03488372093023262,"midi":83,"time":3.453488372093023,"velocity":0.16535433070866143},{"duration":0.12790697674418627,"midi":91,"time":3.453488372093023,"velocity":0.15748031496062992},{"duration":0.011627906976744207,"midi":48,"time":3.4651162790697674,"velocity":0.5275590551181102},{"duration":0.058139534883721034,"midi":84,"time":3.4651162790697674,"velocity":0.14960629921259844},{"duration":0.011627906976744207,"midi":46,"time":3.4767441860465116,"velocity":0.6062992125984252},{"duration":0.03488372093023262,"midi":71,"time":3.4767441860465116,"velocity":0.11023622047244094},{"duration":0.011627906976744207,"midi":44,"time":3.488372093023256,"velocity":0.6377952755905512},{"duration":0.36046511627906996,"midi":63,"time":3.488372093023256,"velocity":0.3937007874015748},{"duration":0.058139534883721034,"midi":87,"time":3.488372093023256,"velocity":0.09448818897637795},{"duration":0.011627906976744207,"midi":43,"time":3.5,"velocity":0.6141732283464567},{"duration":0.13953488372093004,"midi":72,"time":3.5,"velocity":0.25196850393700787},{"duration":1.0348837209302326,"midi":99,"time":3.5,"velocity":0.25984251968503935},{"duration":0.011627906976744207,"midi":42,"time":3.511627906976744,"velocity":0.5826771653543307},{"duration":0.04651162790697683,"midi":60,"time":3.511627906976744,"velocity":0.1968503937007874},{"duration":0.08139534883720945,"midi":68,"time":3.511627906976744,"velocity":0.1732283464566929},{"duration":0.03488372093023262,"midi":92,"time":3.511627906976744,"velocity":0.07874015748031496},{"duration":0.011627906976744207,"midi":41,"time":3.5232558139534884,"velocity":0.5511811023622047},{"duration":0.03488372093023262,"midi":56,"time":3.5232558139534884,"velocity":0.29133858267716534},{"duration":0.011627906976744207,"midi":40,"time":3.5348837209302326,"velocity":0.5118110236220472},{"duration":0.09302325581395321,"midi":48,"time":3.546511627906977,"velocity":0.2755905511811024},{"duration":0.16279069767441845,"midi":97,"time":3.546511627906977,"velocity":0.15748031496062992},{"duration":0.17441860465116266,"midi":77,"time":3.558139534883721,"velocity":0.14173228346456693},{"duration":0.023255813953488413,"midi":36,"time":3.5697674418604652,"velocity":0.4094488188976378},{"duration":0.081395348837209,"midi":56,"time":3.5697674418604652,"velocity":0.25196850393700787},{"duration":0.03488372093023262,"midi":79,"time":3.5813953488372094,"velocity":0.07874015748031496},{"duration":0.38372093023255793,"midi":87,"time":3.5813953488372094,"velocity":0.23622047244094488},{"duration":0.04651162790697638,"midi":92,"time":3.5813953488372094,"velocity":0.12598425196850394},{"duration":0.0697674418604648,"midi":94,"time":3.616279069767442,"velocity":0.14173228346456693},{"duration":0.03488372093023262,"midi":80,"time":3.6511627906976742,"velocity":0.09448818897637795},{"duration":0.03488372093023262,"midi":41,"time":3.6627906976744184,"velocity":0.08661417322834646},{"duration":0.04651162790697683,"midi":60,"time":3.6744186046511627,"velocity":0.14960629921259844},{"duration":0.32558139534883734,"midi":68,"time":3.6744186046511627,"velocity":0.3937007874015748},{"duration":0.04651162790697683,"midi":79,"time":3.6744186046511627,"velocity":0.11811023622047244},{"duration":0.11627906976744207,"midi":48,"time":3.7209302325581395,"velocity":0.30708661417322836},{"duration":0.03488372093023262,"midi":78,"time":3.7209302325581395,"velocity":0.2047244094488189},{"duration":0.03488372093023262,"midi":83,"time":3.7209302325581395,"velocity":0.23622047244094488},{"duration":0.03488372093023262,"midi":86,"time":3.7209302325581395,"velocity":0.2125984251968504},{"duration":0.023255813953488413,"midi":41,"time":3.7325581395348837,"velocity":0.3543307086614173},{"duration":0.04651162790697683,"midi":71,"time":3.7325581395348837,"velocity":0.23622047244094488},{"duration":0.04651162790697683,"midi":79,"time":3.744186046511628,"velocity":0.12598425196850394},{"duration":0.023255813953488413,"midi":40,"time":3.755813953488372,"velocity":0.3937007874015748},{"duration":0.09302325581395365,"midi":84,"time":3.755813953488372,"velocity":0.13385826771653545},{"duration":0.023255813953488413,"midi":34,"time":3.7790697674418605,"velocity":0.28346456692913385},{"duration":0.08139534883720945,"midi":77,"time":3.7906976744186047,"velocity":0.1732283464566929},{"duration":0.03488372093023262,"midi":94,"time":3.7906976744186047,"velocity":0.07086614173228346},{"duration":0.023255813953488413,"midi":31,"time":3.802325581395349,"velocity":0.2440944881889764},{"duration":0.09302325581395321,"midi":53,"time":3.802325581395349,"velocity":0.29133858267716534},{"duration":0.058139534883721034,"midi":97,"time":3.802325581395349,"velocity":0.14173228346456693},{"duration":0.03488372093023262,"midi":30,"time":3.8255813953488373,"velocity":0.25196850393700787},{"duration":0.023255813953488413,"midi":60,"time":3.8372093023255816,"velocity":0.2283464566929134},{"duration":0.0697674418604648,"midi":71,"time":3.8372093023255816,"velocity":0.2047244094488189},{"duration":0.05813953488372059,"midi":65,"time":3.8488372093023258,"velocity":0.3543307086614173},{"duration":0.05813953488372059,"midi":78,"time":3.8488372093023258,"velocity":0.1968503937007874},{"duration":0.034883720930232176,"midi":86,"time":3.8488372093023258,"velocity":0.18110236220472442},{"duration":0.13953488372093004,"midi":84,"time":3.86046511627907,"velocity":0.1732283464566929},{"duration":0.023255813953488413,"midi":40,"time":3.883720930232558,"velocity":0.3543307086614173},{"duration":0.08139534883720945,"midi":48,"time":3.883720930232558,"velocity":0.28346456692913385},{"duration":0.023255813953488413,"midi":57,"time":3.895348837209302,"velocity":0.23622047244094488},{"duration":0.04651162790697683,"midi":63,"time":3.895348837209302,"velocity":0.31496062992125984},{"duration":0.39534883720930214,"midi":72,"time":3.9069767441860463,"velocity":0.4094488188976378},{"duration":0.023255813953488413,"midi":31,"time":3.9302325581395348,"velocity":0.25196850393700787},{"duration":0.023255813953488413,"midi":65,"time":3.941860465116279,"velocity":0.30708661417322836},{"duration":0.058139534883721034,"midi":82,"time":3.941860465116279,"velocity":0.18110236220472442},{"duration":0.04651162790697683,"midi":30,"time":3.953488372093023,"velocity":0.2440944881889764},{"duration":0.03488372093023262,"midi":79,"time":3.953488372093023,"velocity":0.10236220472440945},{"duration":0.04651162790697683,"midi":77,"time":3.9651162790697674,"velocity":0.13385826771653545},{"duration":0.03488372093023262,"midi":88,"time":3.9767441860465116,"velocity":0.2125984251968504},{"duration":0.08139534883720945,"midi":90,"time":3.9767441860465116,"velocity":0.29133858267716534},{"duration":0.09302325581395365,"midi":91,"time":3.9767441860465116,"velocity":0.2047244094488189},{"duration":0.058139534883721034,"midi":95,"time":3.9767441860465116,"velocity":0.15748031496062992},{"duration":0.08139534883720945,"midi":97,"time":3.9767441860465116,"velocity":0.16535433070866143},{"duration":0.04651162790697683,"midi":98,"time":3.9767441860465116,"velocity":0.11023622047244094},{"duration":0.058139534883721034,"midi":101,"time":3.9767441860465116,"velocity":0.1968503937007874},{"duration":0.011627906976744207,"midi":53,"time":3.988372093023256,"velocity":0.5275590551181102},{"duration":0.06976744186046524,"midi":89,"time":3.988372093023256,"velocity":0.1889763779527559},{"duration":0.011627906976744207,"midi":45,"time":4,"velocity":0.5118110236220472},{"duration":0.011627906976744207,"midi":51,"time":4,"velocity":0.5118110236220472},{"duration":0.04651162790697683,"midi":65,"time":4,"velocity":0.2440944881889764},{"duration":0.03488372093023262,"midi":81,"time":4,"velocity":0.11811023622047244},{"duration":0.023255813953488413,"midi":44,"time":4.011627906976744,"velocity":0.6062992125984252},{"duration":0.23255813953488413,"midi":68,"time":4.011627906976744,"velocity":0.29133858267716534},{"duration":0.03488372093023262,"midi":83,"time":4.011627906976744,"velocity":0.14173228346456693},{"duration":0.023255813953488413,"midi":51,"time":4.023255813953488,"velocity":0.30708661417322836},{"duration":0.011627906976744207,"midi":43,"time":4.034883720930233,"velocity":0.5669291338582677},{"duration":0.22093023255813904,"midi":75,"time":4.034883720930233,"velocity":0.31496062992125984},{"duration":0.011627906976744207,"midi":42,"time":4.046511627906977,"velocity":0.5275590551181102},{"duration":0.023255813953488413,"midi":52,"time":4.046511627906977,"velocity":0.28346456692913385},{"duration":0.06976744186046524,"midi":65,"time":4.058139534883721,"velocity":0.3228346456692913},{"duration":0.08139534883720945,"midi":97,"time":4.069767441860465,"velocity":0.11811023622047244},{"duration":0.11627906976744207,"midi":60,"time":4.104651162790698,"velocity":0.29133858267716534},{"duration":0.06976744186046524,"midi":81,"time":4.104651162790698,"velocity":0.2440944881889764},{"duration":0.12790697674418627,"midi":82,"time":4.104651162790698,"velocity":0.1889763779527559},{"duration":0.058139534883721034,"midi":85,"time":4.104651162790698,"velocity":0.1968503937007874},{"duration":0.04651162790697683,"midi":90,"time":4.104651162790698,"velocity":0.1732283464566929},{"duration":0.10465116279069786,"midi":48,"time":4.116279069767442,"velocity":0.3464566929133858},{"duration":0.058139534883721034,"midi":78,"time":4.116279069767442,"velocity":0.2204724409448819},{"duration":0.058139534883721034,"midi":55,"time":4.127906976744186,"velocity":0.28346456692913385},{"duration":0.03488372093023262,"midi":65,"time":4.1395348837209305,"velocity":0.3937007874015748},{"duration":0.06976744186046524,"midi":36,"time":4.174418604651163,"velocity":0.3700787401574803},{"duration":0.03488372093023262,"midi":65,"time":4.186046511627907,"velocity":0.31496062992125984},{"duration":0.04651162790697594,"midi":63,"time":4.209302325581396,"velocity":0.2677165354330709},{"duration":0.2906976744186043,"midi":77,"time":4.232558139534884,"velocity":0.2992125984251969},{"duration":0.04651162790697594,"midi":91,"time":4.232558139534884,"velocity":0.2440944881889764},{"duration":0.023255813953487525,"midi":60,"time":4.244186046511628,"velocity":0.3700787401574803},{"duration":0.058139534883720145,"midi":83,"time":4.244186046511628,"velocity":0.16535433070866143},{"duration":0.25581395348837166,"midi":85,"time":4.244186046511628,"velocity":0.1732283464566929},{"duration":0.03488372093023173,"midi":88,"time":4.244186046511628,"velocity":0.2047244094488189},{"duration":0.08139534883720856,"midi":92,"time":4.244186046511628,"velocity":0.1732283464566929},{"duration":0.058139534883720145,"midi":94,"time":4.244186046511628,"velocity":0.13385826771653545},{"duration":0.03488372093023262,"midi":53,"time":4.255813953488372,"velocity":0.28346456692913385},{"duration":0.11627906976744207,"midi":68,"time":4.255813953488372,"velocity":0.2125984251968504},{"duration":0.03488372093023262,"midi":70,"time":4.255813953488372,"velocity":0.07086614173228346},{"duration":0.03488372093023262,"midi":74,"time":4.255813953488372,"velocity":0.1732283464566929},{"duration":0.023255813953488413,"midi":76,"time":4.255813953488372,"velocity":0.30708661417322836},{"duration":0.1627906976744189,"midi":80,"time":4.255813953488372,"velocity":0.2125984251968504},{"duration":0.09302325581395365,"midi":82,"time":4.255813953488372,"velocity":0.10236220472440945},{"duration":0.1744186046511631,"midi":58,"time":4.267441860465116,"velocity":0.3543307086614173},{"duration":0.04651162790697683,"midi":79,"time":4.267441860465116,"velocity":0.1732283464566929},{"duration":0.09302325581395365,"midi":46,"time":4.27906976744186,"velocity":0.31496062992125984},{"duration":0.06976744186046524,"midi":75,"time":4.27906976744186,"velocity":0.2204724409448819},{"duration":0.11627906976744207,"midi":65,"time":4.3023255813953485,"velocity":0.31496062992125984},{"duration":0.08139534883720945,"midi":73,"time":4.3023255813953485,"velocity":0.15748031496062992},{"duration":0.08139534883720945,"midi":84,"time":4.3023255813953485,"velocity":0.10236220472440945},{"duration":0.23255813953488413,"midi":101,"time":4.3023255813953485,"velocity":0.25984251968503935},{"duration":0.03488372093023262,"midi":61,"time":4.313953488372093,"velocity":0.28346456692913385},{"duration":0.09302325581395365,"midi":34,"time":4.325581395348837,"velocity":0.3543307086614173},{"duration":0.3720930232558137,"midi":61,"time":4.383720930232558,"velocity":0.2992125984251969},{"duration":0.04651162790697683,"midi":75,"time":4.383720930232558,"velocity":0.14173228346456693},{"duration":0.06976744186046524,"midi":53,"time":4.395348837209302,"velocity":0.11811023622047244},{"duration":0.3139534883720927,"midi":73,"time":4.476744186046512,"velocity":0.3464566929133858},{"duration":0.023255813953488413,"midi":52,"time":4.5,"velocity":0.33070866141732286},{"duration":0.03488372093023262,"midi":78,"time":4.5,"velocity":0.1889763779527559},{"duration":0.03488372093023262,"midi":96,"time":4.5,"velocity":0.15748031496062992},{"duration":0.03488372093023262,"midi":102,"time":4.5,"velocity":0.18110236220472442},{"duration":0.011627906976744207,"midi":48,"time":4.523255813953488,"velocity":0.5118110236220472},{"duration":0.1860465116279073,"midi":65,"time":4.523255813953488,"velocity":0.31496062992125984},{"duration":0.011627906976744207,"midi":45,"time":4.534883720930233,"velocity":0.6062992125984252},{"duration":0.011627906976744207,"midi":44,"time":4.546511627906977,"velocity":0.6220472440944882},{"duration":0.5465116279069768,"midi":101,"time":4.546511627906977,"velocity":0.2755905511811024},{"duration":0.011627906976744207,"midi":43,"time":4.558139534883721,"velocity":0.5984251968503937},{"duration":0.011627906976744207,"midi":42,"time":4.569767441860465,"velocity":0.5669291338582677},{"duration":0.3372093023255811,"midi":53,"time":4.569767441860465,"velocity":0.3543307086614173},{"duration":0.03488372093023262,"midi":99,"time":4.569767441860465,"velocity":0.14960629921259844},{"duration":0.011627906976744207,"midi":41,"time":4.5813953488372094,"velocity":0.5196850393700787},{"duration":0.023255813953488413,"midi":37,"time":4.616279069767442,"velocity":0.4566929133858268},{"duration":0.03488372093023262,"midi":84,"time":4.616279069767442,"velocity":0.07086614173228346},{"duration":0.023255813953488413,"midi":36,"time":4.6395348837209305,"velocity":0.3858267716535433},{"duration":0.023255813953488413,"midi":35,"time":4.662790697674419,"velocity":0.25196850393700787},{"duration":0.03488372093023262,"midi":33,"time":4.686046511627907,"velocity":0.07086614173228346},{"duration":0.04651162790697683,"midi":84,"time":4.686046511627907,"velocity":0.09448818897637795},{"duration":0.3255813953488369,"midi":65,"time":4.72093023255814,"velocity":0.4330708661417323},{"duration":0.6279069767441863,"midi":70,"time":4.767441860465116,"velocity":0.3779527559055118},{"duration":0.06976744186046524,"midi":79,"time":4.767441860465116,"velocity":0.2204724409448819},{"duration":0.06976744186046524,"midi":81,"time":4.767441860465116,"velocity":0.10236220472440945},{"duration":0.04651162790697683,"midi":83,"time":4.767441860465116,"velocity":0.1889763779527559},{"duration":0.04651162790697683,"midi":88,"time":4.767441860465116,"velocity":0.2440944881889764},{"duration":0.04651162790697683,"midi":91,"time":4.767441860465116,"velocity":0.23622047244094488},{"duration":0.03488372093023262,"midi":92,"time":4.767441860465116,"velocity":0.13385826771653545},{"duration":0.04651162790697683,"midi":93,"time":4.767441860465116,"velocity":0.13385826771653545},{"duration":0.03488372093023262,"midi":45,"time":4.77906976744186,"velocity":0.3858267716535433},{"duration":0.11627906976744207,"midi":58,"time":4.77906976744186,"velocity":0.2677165354330709},{"duration":0.08139534883720945,"midi":68,"time":4.77906976744186,"velocity":0.2125984251968504},{"duration":0.058139534883721034,"midi":76,"time":4.77906976744186,"velocity":0.2440944881889764},{"duration":0.04651162790697683,"midi":80,"time":4.77906976744186,"velocity":0.2283464566929134},{"duration":0.08139534883720945,"midi":46,"time":4.813953488372093,"velocity":0.2992125984251969},{"duration":0.10465116279069786,"midi":73,"time":4.813953488372093,"velocity":0.2992125984251969},{"duration":0.023255813953488413,"midi":35,"time":4.837209302325581,"velocity":0.33070866141732286},{"duration":0.058139534883721034,"midi":34,"time":4.8604651162790695,"velocity":0.31496062992125984},{"duration":0.06976744186046524,"midi":93,"time":4.8604651162790695,"velocity":0.11023622047244094},{"duration":0.058139534883721034,"midi":80,"time":4.895348837209302,"velocity":0.1732283464566929},{"duration":0.04651162790697683,"midi":88,"time":4.895348837209302,"velocity":0.2047244094488189},{"duration":0.04651162790697683,"midi":91,"time":4.895348837209302,"velocity":0.18110236220472442},{"duration":0.08139534883720945,"midi":76,"time":4.906976744186046,"velocity":0.25196850393700787},{"duration":0.04651162790697683,"midi":83,"time":4.906976744186046,"velocity":0.1889763779527559},{"duration":0.023255813953488413,"midi":45,"time":4.9186046511627906,"velocity":0.3543307086614173},{"duration":0.06976744186046524,"midi":58,"time":4.9186046511627906,"velocity":0.2440944881889764},{"duration":0.08139534883720945,"midi":62,"time":4.9186046511627906,"velocity":0.2440944881889764},{"duration":0.058139534883721034,"midi":68,"time":4.9186046511627906,"velocity":0.2047244094488189},{"duration":0.04651162790697683,"midi":81,"time":4.9186046511627906,"velocity":0.10236220472440945},{"duration":0.08139534883720945,"midi":53,"time":4.930232558139535,"velocity":0.25984251968503935},{"duration":0.27906976744186096,"midi":73,"time":4.930232558139535,"velocity":0.31496062992125984},{"duration":0.03488372093023262,"midi":79,"time":4.930232558139535,"velocity":0.16535433070866143},{"duration":0.04651162790697683,"midi":46,"time":4.941860465116279,"velocity":0.2992125984251969},{"duration":0.058139534883721034,"midi":34,"time":4.988372093023256,"velocity":0.33858267716535434},{"duration":0.04651162790697683,"midi":61,"time":5.023255813953488,"velocity":0.3937007874015748},{"duration":0.03488372093023262,"midi":75,"time":5.023255813953488,"velocity":0.2047244094488189},{"duration":0.09302325581395365,"midi":93,"time":5.023255813953488,"velocity":0.11811023622047244},{"duration":0.11627906976744207,"midi":99,"time":5.023255813953488,"velocity":0.14173228346456693},{"duration":0.058139534883721034,"midi":79,"time":5.034883720930233,"velocity":0.25196850393700787},{"duration":0.06976744186046524,"midi":83,"time":5.034883720930233,"velocity":0.2204724409448819},{"duration":0.03488372093023262,"midi":87,"time":5.034883720930233,"velocity":0.2204724409448819},{"duration":0.058139534883721034,"midi":90,"time":5.034883720930233,"velocity":0.31496062992125984},{"duration":0.03488372093023262,"midi":92,"time":5.034883720930233,"velocity":0.16535433070866143},{"duration":0.06976744186046524,"midi":94,"time":5.034883720930233,"velocity":0.16535433070866143},{"duration":0.10465116279069786,"midi":96,"time":5.034883720930233,"velocity":0.1889763779527559},{"duration":0.04651162790697683,"midi":97,"time":5.034883720930233,"velocity":0.13385826771653545},{"duration":0.04651162790697683,"midi":100,"time":5.034883720930233,"velocity":0.16535433070866143},{"duration":0.023255813953488413,"midi":67,"time":5.046511627906977,"velocity":0.31496062992125984},{"duration":0.06976744186046524,"midi":88,"time":5.046511627906977,"velocity":0.2440944881889764},{"duration":0.011627906976744207,"midi":51,"time":5.058139534883721,"velocity":0.5196850393700787},{"duration":0.058139534883721034,"midi":76,"time":5.058139534883721,"velocity":0.2047244094488189},{"duration":0.09302325581395365,"midi":80,"time":5.058139534883721,"velocity":0.14960629921259844},{"duration":0.11627906976744207,"midi":89,"time":5.058139534883721,"velocity":0.14960629921259844},{"duration":0.011627906976744207,"midi":45,"time":5.069767441860465,"velocity":0.5826771653543307},{"duration":0.06976744186046524,"midi":77,"time":5.069767441860465,"velocity":0.15748031496062992},{"duration":0.011627906976744207,"midi":44,"time":5.0813953488372094,"velocity":0.6062992125984252},{"duration":0.09302325581395365,"midi":65,"time":5.0813953488372094,"velocity":0.29133858267716534},{"duration":0.011627906976744207,"midi":43,"time":5.093023255813954,"velocity":0.5748031496062992},{"duration":0.13953488372093048,"midi":92,"time":5.093023255813954,"velocity":0.2047244094488189},{"duration":0.011627906976744207,"midi":42,"time":5.104651162790698,"velocity":0.5118110236220472},{"duration":0.058139534883721034,"midi":58,"time":5.104651162790698,"velocity":0.2125984251968504},{"duration":0.03488372093023262,"midi":62,"time":5.104651162790698,"velocity":0.14173228346456693},{"duration":0.03488372093023262,"midi":53,"time":5.116279069767442,"velocity":0.2677165354330709},{"duration":0.058139534883721034,"midi":68,"time":5.116279069767442,"velocity":0.2440944881889764},{"duration":0.09302325581395365,"midi":78,"time":5.151162790697675,"velocity":0.1968503937007874},{"duration":0.03488372093023262,"midi":61,"time":5.162790697674419,"velocity":0.25196850393700787},{"duration":0.04651162790697683,"midi":76,"time":5.162790697674419,"velocity":0.16535433070866143},{"duration":0.058139534883721034,"midi":81,"time":5.162790697674419,"velocity":0.25196850393700787},{"duration":0.03488372093023262,"midi":99,"time":5.162790697674419,"velocity":0.14960629921259844},{"duration":0.03488372093023262,"midi":55,"time":5.186046511627907,"velocity":0.33070866141732286},{"duration":0.19767441860465063,"midi":48,"time":5.1976744186046515,"velocity":0.3543307086614173},{"duration":0.39534883720930214,"midi":102,"time":5.1976744186046515,"velocity":0.3228346456692913},{"duration":0.03488372093023173,"midi":65,"time":5.22093023255814,"velocity":0.31496062992125984},{"duration":0.20930232558139483,"midi":73,"time":5.22093023255814,"velocity":0.1968503937007874},{"duration":0.10465116279069697,"midi":36,"time":5.232558139534884,"velocity":0.3858267716535433},{"duration":0.058139534883720145,"midi":55,"time":5.232558139534884,"velocity":0.29133858267716534},{"duration":0.1395348837209296,"midi":90,"time":5.244186046511628,"velocity":0.16535433070866143},{"duration":0.058139534883721034,"midi":66,"time":5.255813953488372,"velocity":0.3543307086614173},{"duration":0.06976744186046524,"midi":80,"time":5.255813953488372,"velocity":0.07086614173228346},{"duration":0.13953488372093048,"midi":100,"time":5.255813953488372,"velocity":0.1968503937007874},{"duration":0.03488372093023262,"midi":101,"time":5.3023255813953485,"velocity":0.11023622047244094},{"duration":0.12790697674418627,"midi":65,"time":5.325581395348837,"velocity":0.29133858267716534},{"duration":0.09302325581395365,"midi":92,"time":5.348837209302325,"velocity":0.15748031496062992},{"duration":0.12790697674418627,"midi":68,"time":5.3604651162790695,"velocity":0.2992125984251969},{"duration":0.1627906976744189,"midi":101,"time":5.3604651162790695,"velocity":0.23622047244094488},{"duration":0.03488372093023262,"midi":61,"time":5.372093023255814,"velocity":0.12598425196850394},{"duration":0.12790697674418627,"midi":99,"time":5.383720930232558,"velocity":0.16535433070866143},{"duration":0.08139534883720945,"midi":89,"time":5.406976744186046,"velocity":0.13385826771653545},{"duration":0.09302325581395365,"midi":58,"time":5.430232558139535,"velocity":0.25984251968503935},{"duration":0.04651162790697683,"midi":88,"time":5.430232558139535,"velocity":0.2204724409448819},{"duration":0.04651162790697683,"midi":91,"time":5.430232558139535,"velocity":0.2125984251968504},{"duration":0.12790697674418627,"midi":53,"time":5.441860465116279,"velocity":0.29133858267716534},{"duration":0.08139534883720945,"midi":73,"time":5.441860465116279,"velocity":0.23622047244094488},{"duration":0.08139534883720945,"midi":76,"time":5.441860465116279,"velocity":0.2440944881889764},{"duration":0.03488372093023262,"midi":79,"time":5.441860465116279,"velocity":0.2125984251968504},{"duration":0.04651162790697683,"midi":83,"time":5.441860465116279,"velocity":0.1968503937007874},{"duration":0.023255813953488413,"midi":45,"time":5.453488372093023,"velocity":0.3779527559055118},{"duration":0.04651162790697683,"midi":77,"time":5.453488372093023,"velocity":0.13385826771653545},{"duration":0.03488372093023262,"midi":81,"time":5.453488372093023,"velocity":0.09448818897637795},{"duration":0.06976744186046524,"midi":96,"time":5.453488372093023,"velocity":0.07874015748031496},{"duration":0.04651162790697683,"midi":62,"time":5.465116279069767,"velocity":0.18110236220472442},{"duration":0.09302325581395365,"midi":46,"time":5.476744186046512,"velocity":0.2992125984251969},{"duration":0.03488372093023262,"midi":66,"time":5.476744186046512,"velocity":0.2283464566929134},{"duration":0.023255813953488413,"midi":35,"time":5.5,"velocity":0.3228346456692913},{"duration":0.6046511627906979,"midi":97,"time":5.5,"velocity":0.31496062992125984},{"duration":0.04651162790697683,"midi":34,"time":5.523255813953488,"velocity":0.2992125984251969},{"duration":0.09302325581395365,"midi":101,"time":5.534883720930233,"velocity":0.1732283464566929},{"duration":0.09302325581395365,"midi":61,"time":5.546511627906977,"velocity":0.4015748031496063},{"duration":0.03488372093023262,"midi":68,"time":5.558139534883721,"velocity":0.2283464566929134},{"duration":0.04651162790697683,"midi":81,"time":5.558139534883721,"velocity":0.25196850393700787},{"duration":0.04651162790697683,"midi":83,"time":5.558139534883721,"velocity":0.1732283464566929},{"duration":0.1511627906976747,"midi":95,"time":5.558139534883721,"velocity":0.2283464566929134},{"duration":0.03488372093023262,"midi":98,"time":5.558139534883721,"velocity":0.13385826771653545},{"duration":0.03488372093023262,"midi":100,"time":5.558139534883721,"velocity":0.14173228346456693},{"duration":0.03488372093023262,"midi":103,"time":5.558139534883721,"velocity":0.14960629921259844},{"duration":0.023255813953488413,"midi":72,"time":5.569767441860465,"velocity":0.2283464566929134},{"duration":0.058139534883721034,"midi":76,"time":5.569767441860465,"velocity":0.13385826771653545},{"duration":0.11627906976744207,"midi":82,"time":5.569767441860465,"velocity":0.1968503937007874},{"duration":0.023255813953488413,"midi":84,"time":5.569767441860465,"velocity":0.23622047244094488},{"duration":0.011627906976744207,"midi":48,"time":5.5813953488372094,"velocity":0.5275590551181102},{"duration":0.011627906976744207,"midi":46,"time":5.593023255813954,"velocity":0.5984251968503937},{"duration":0.058139534883721034,"midi":65,"time":5.593023255813954,"velocity":0.25984251968503935},{"duration":0.04651162790697683,"midi":69,"time":5.593023255813954,"velocity":0.2047244094488189},{"duration":0.011627906976744207,"midi":45,"time":5.604651162790698,"velocity":0.6377952755905512},{"duration":0.058139534883721034,"midi":80,"time":5.604651162790698,"velocity":0.11811023622047244},{"duration":0.10465116279069786,"midi":84,"time":5.604651162790698,"velocity":0.14960629921259844},{"duration":0.03488372093023262,"midi":42,"time":5.616279069767442,"velocity":0.6062992125984252},{"duration":0.11627906976744207,"midi":70,"time":5.616279069767442,"velocity":0.1889763779527559},{"duration":0.3255813953488369,"midi":89,"time":5.616279069767442,"velocity":0.2047244094488189},{"duration":0.04651162790697683,"midi":102,"time":5.627906976744186,"velocity":0.14173228346456693},{"duration":0.023255813953488413,"midi":55,"time":5.651162790697675,"velocity":0.2755905511811024},{"duration":0.10465116279069697,"midi":77,"time":5.651162790697675,"velocity":0.1968503937007874},{"duration":0.058139534883721034,"midi":66,"time":5.662790697674419,"velocity":0.2283464566929134},{"duration":0.023255813953488413,"midi":36,"time":5.674418604651163,"velocity":0.4330708661417323},{"duration":0.058139534883721034,"midi":58,"time":5.674418604651163,"velocity":0.23622047244094488},{"duration":0.023255813953488413,"midi":37,"time":5.6976744186046515,"velocity":0.41732283464566927},{"duration":0.03488372093023262,"midi":102,"time":5.709302325581396,"velocity":0.11023622047244094},{"duration":0.09302325581395277,"midi":61,"time":5.72093023255814,"velocity":0.25984251968503935},{"duration":0.12790697674418539,"midi":65,"time":5.72093023255814,"velocity":0.2755905511811024},{"duration":0.1744186046511622,"midi":82,"time":5.732558139534884,"velocity":0.23622047244094488},{"duration":0.06976744186046524,"midi":78,"time":5.755813953488372,"velocity":0.15748031496062992},{"duration":0.04651162790697683,"midi":93,"time":5.767441860465116,"velocity":0.10236220472440945},{"duration":0.03488372093023262,"midi":58,"time":5.790697674418604,"velocity":0.18110236220472442},{"duration":0.03488372093023262,"midi":92,"time":5.8023255813953485,"velocity":0.11023622047244094},{"duration":0.03488372093023262,"midi":79,"time":5.825581395348837,"velocity":0.11811023622047244},{"duration":0.03488372093023262,"midi":87,"time":5.825581395348837,"velocity":0.13385826771653545},{"duration":0.04651162790697683,"midi":61,"time":5.837209302325581,"velocity":0.28346456692913385},{"duration":0.03488372093023262,"midi":69,"time":5.837209302325581,"velocity":0.25196850393700787},{"duration":0.03488372093023262,"midi":84,"time":5.837209302325581,"velocity":0.2440944881889764},{"duration":0.03488372093023262,"midi":95,"time":5.848837209302325,"velocity":0.07874015748031496},{"duration":0.058139534883721034,"midi":66,"time":5.8604651162790695,"velocity":0.28346456692913385},{"duration":0.23255813953488413,"midi":70,"time":5.8604651162790695,"velocity":0.36220472440944884},{"duration":0.09302325581395365,"midi":77,"time":5.8604651162790695,"velocity":0.31496062992125984},{"duration":0.08139534883720945,"midi":80,"time":5.883720930232558,"velocity":0.1889763779527559},{"duration":0.03488372093023262,"midi":61,"time":5.895348837209302,"velocity":0.16535433070866143},{"duration":0.03488372093023262,"midi":40,"time":5.906976744186046,"velocity":0.28346456692913385},{"duration":0.08139534883720945,"midi":66,"time":5.930232558139535,"velocity":0.3543307086614173},{"duration":0.1627906976744189,"midi":61,"time":5.953488372093023,"velocity":0.4645669291338583},{"duration":0.09302325581395365,"midi":77,"time":5.965116279069767,"velocity":0.30708661417322836},{"duration":0.03488372093023262,"midi":81,"time":5.965116279069767,"velocity":0.2204724409448819},{"duration":0.04651162790697683,"midi":84,"time":5.965116279069767,"velocity":0.2283464566929134},{"duration":0.023255813953488413,"midi":46,"time":5.976744186046512,"velocity":0.2755905511811024},{"duration":0.03488372093023262,"midi":66,"time":6.023255813953488,"velocity":0.3937007874015748},{"duration":0.03488372093023262,"midi":46,"time":6.058139534883721,"velocity":0.2992125984251969},{"duration":0.023255813953488413,"midi":66,"time":6.069767441860465,"velocity":0.3858267716535433},{"duration":0.3023255813953485,"midi":77,"time":6.069767441860465,"velocity":0.3543307086614173},{"duration":0.06976744186046524,"midi":92,"time":6.0813953488372094,"velocity":0.18110236220472442},{"duration":0.058139534883721034,"midi":95,"time":6.0813953488372094,"velocity":0.11023622047244094},{"duration":0.058139534883721034,"midi":81,"time":6.093023255813954,"velocity":0.14960629921259844},{"duration":0.03488372093023262,"midi":84,"time":6.093023255813954,"velocity":0.16535433070866143},{"duration":0.03488372093023262,"midi":93,"time":6.093023255813954,"velocity":0.1732283464566929},{"duration":0.06976744186046524,"midi":94,"time":6.093023255813954,"velocity":0.1968503937007874},{"duration":0.06976744186046524,"midi":102,"time":6.093023255813954,"velocity":0.1732283464566929},{"duration":0.011627906976744207,"midi":53,"time":6.104651162790698,"velocity":0.5196850393700787},{"duration":0.058139534883721034,"midi":88,"time":6.104651162790698,"velocity":0.16535433070866143},{"duration":0.04651162790697683,"midi":90,"time":6.104651162790698,"velocity":0.2677165354330709},{"duration":0.023255813953488413,"midi":45,"time":6.116279069767442,"velocity":0.6062992125984252},{"duration":0.011627906976744207,"midi":51,"time":6.116279069767442,"velocity":0.5118110236220472},{"duration":0.04651162790697683,"midi":80,"time":6.116279069767442,"velocity":0.09448818897637795},{"duration":0.5116279069767442,"midi":97,"time":6.116279069767442,"velocity":0.2047244094488189},{"duration":0.11627906976744207,"midi":61,"time":6.127906976744186,"velocity":0.30708661417322836},{"duration":0.058139534883721034,"midi":66,"time":6.127906976744186,"velocity":0.33070866141732286},{"duration":0.011627906976744207,"midi":44,"time":6.1395348837209305,"velocity":0.5905511811023622},{"duration":0.03488372093023262,"midi":51,"time":6.1395348837209305,"velocity":0.31496062992125984},{"duration":0.023255813953488413,"midi":42,"time":6.151162790697675,"velocity":0.5826771653543307},{"duration":0.03488372093023262,"midi":87,"time":6.151162790697675,"velocity":0.10236220472440945},{"duration":0.1511627906976738,"midi":70,"time":6.174418604651163,"velocity":0.33858267716535434},{"duration":0.06976744186046524,"midi":80,"time":6.174418604651163,"velocity":0.23622047244094488},{"duration":0.023255813953488413,"midi":53,"time":6.186046511627907,"velocity":0.25984251968503935},{"duration":0.04651162790697683,"midi":66,"time":6.1976744186046515,"velocity":0.3543307086614173},{"duration":0.03488372093023173,"midi":36,"time":6.22093023255814,"velocity":0.4094488188976378},{"duration":0.06976744186046435,"midi":85,"time":6.22093023255814,"velocity":0.25984251968503935},{"duration":0.058139534883720145,"midi":90,"time":6.22093023255814,"velocity":0.1968503937007874},{"duration":0.04651162790697594,"midi":93,"time":6.22093023255814,"velocity":0.2204724409448819},{"duration":0.04651162790697594,"midi":65,"time":6.232558139534884,"velocity":0.3543307086614173},{"duration":0.11627906976744118,"midi":55,"time":6.244186046511628,"velocity":0.29133858267716534},{"duration":0.3023255813953485,"midi":73,"time":6.244186046511628,"velocity":0.33070866141732286},{"duration":0.04651162790697594,"midi":81,"time":6.244186046511628,"velocity":0.2283464566929134},{"duration":0.03488372093023262,"midi":95,"time":6.27906976744186,"velocity":0.09448818897637795},{"duration":0.023255813953488413,"midi":36,"time":6.290697674418604,"velocity":0.36220472440944884},{"duration":0.058139534883721034,"midi":61,"time":6.3023255813953485,"velocity":0.2992125984251969},{"duration":0.03488372093023262,"midi":88,"time":6.348837209302325,"velocity":0.2125984251968504},{"duration":0.03488372093023262,"midi":90,"time":6.348837209302325,"velocity":0.10236220472440945},{"duration":0.06976744186046524,"midi":91,"time":6.348837209302325,"velocity":0.23622047244094488},{"duration":0.03488372093023262,"midi":92,"time":6.348837209302325,"velocity":0.1732283464566929},{"duration":0.023255813953488413,"midi":46,"time":6.3604651162790695,"velocity":0.33858267716535434},{"duration":0.11627906976744207,"midi":80,"time":6.3604651162790695,"velocity":0.2992125984251969},{"duration":0.04651162790697683,"midi":83,"time":6.3604651162790695,"velocity":0.1889763779527559},{"duration":0.03488372093023262,"midi":84,"time":6.3604651162790695,"velocity":0.11023622047244094},{"duration":0.058139534883721034,"midi":68,"time":6.372093023255814,"velocity":0.2125984251968504},{"duration":0.03488372093023262,"midi":76,"time":6.372093023255814,"velocity":0.28346456692913385},{"duration":0.22093023255813993,"midi":87,"time":6.372093023255814,"velocity":0.25984251968503935},{"duration":0.10465116279069786,"midi":94,"time":6.372093023255814,"velocity":0.14960629921259844},{"duration":0.04651162790697683,"midi":77,"time":6.383720930232558,"velocity":0.15748031496062992},{"duration":0.03488372093023262,"midi":79,"time":6.383720930232558,"velocity":0.2204724409448819},{"duration":0.10465116279069786,"midi":46,"time":6.395348837209302,"velocity":0.3228346456692913},{"duration":0.023255813953488413,"midi":53,"time":6.395348837209302,"velocity":0.3228346456692913},{"duration":0.058139534883721034,"midi":63,"time":6.395348837209302,"velocity":0.2677165354330709},{"duration":0.04651162790697683,"midi":76,"time":6.4186046511627906,"velocity":0.13385826771653545},{"duration":0.29069767441860517,"midi":84,"time":6.4186046511627906,"velocity":0.2204724409448819},{"duration":0.058139534883721034,"midi":34,"time":6.430232558139535,"velocity":0.3228346456692913},{"duration":0.04651162790697683,"midi":53,"time":6.453488372093023,"velocity":0.2992125984251969},{"duration":0.11627906976744207,"midi":63,"time":6.465116279069767,"velocity":0.30708661417322836},{"duration":0.10465116279069786,"midi":79,"time":6.476744186046512,"velocity":0.13385826771653545},{"duration":0.03488372093023262,"midi":46,"time":6.511627906976744,"velocity":0.12598425196850394},{"duration":0.09302325581395365,"midi":68,"time":6.523255813953488,"velocity":0.16535433070866143},{"duration":0.058139534883721034,"midi":72,"time":6.546511627906977,"velocity":0.09448818897637795},{"duration":0.03488372093023262,"midi":94,"time":6.546511627906977,"velocity":0.10236220472440945},{"duration":0.03488372093023262,"midi":61,"time":6.569767441860465,"velocity":0.11811023622047244},{"duration":0.13953488372093048,"midi":80,"time":6.569767441860465,"velocity":0.1968503937007874},{"duration":0.03488372093023262,"midi":75,"time":6.604651162790698,"velocity":0.1968503937007874},{"duration":0.023255813953488413,"midi":67,"time":6.616279069767442,"velocity":0.25196850393700787},{"duration":0.03488372093023262,"midi":72,"time":6.616279069767442,"velocity":0.25984251968503935},{"duration":0.06976744186046524,"midi":77,"time":6.616279069767442,"velocity":0.28346456692913385},{"duration":0.058139534883721034,"midi":81,"time":6.616279069767442,"velocity":0.2204724409448819},{"duration":0.058139534883721034,"midi":86,"time":6.616279069767442,"velocity":0.28346456692913385},{"duration":0.03488372093023262,"midi":94,"time":6.616279069767442,"velocity":0.1889763779527559},{"duration":0.03488372093023262,"midi":103,"time":6.616279069767442,"velocity":0.14173228346456693},{"duration":0.03488372093023262,"midi":89,"time":6.627906976744186,"velocity":0.29133858267716534},{"duration":0.011627906976744207,"midi":48,"time":6.6395348837209305,"velocity":0.5118110236220472},{"duration":0.09302325581395365,"midi":66,"time":6.6395348837209305,"velocity":0.1968503937007874},{"duration":0.058139534883721034,"midi":68,"time":6.6395348837209305,"velocity":0.16535433070866143},{"duration":0.058139534883721034,"midi":74,"time":6.6395348837209305,"velocity":0.2283464566929134},{"duration":0.06976744186046524,"midi":78,"time":6.6395348837209305,"velocity":0.2125984251968504},{"duration":0.011627906976744207,"midi":46,"time":6.651162790697675,"velocity":0.5511811023622047},{"duration":0.011627906976744207,"midi":45,"time":6.662790697674419,"velocity":0.5984251968503937},{"duration":0.12790697674418539,"midi":56,"time":6.662790697674419,"velocity":0.25196850393700787},{"duration":0.06976744186046524,"midi":70,"time":6.662790697674419,"velocity":0.11023622047244094},{"duration":0.9302325581395348,"midi":75,"time":6.662790697674419,"velocity":0.33858267716535434},{"duration":0.023255813953488413,"midi":42,"time":6.674418604651163,"velocity":0.5905511811023622},{"duration":0.11627906976744118,"midi":63,"time":6.674418604651163,"velocity":0.2440944881889764},{"duration":0.03488372093023262,"midi":97,"time":6.686046511627907,"velocity":0.09448818897637795},{"duration":0.011627906976744207,"midi":41,"time":6.6976744186046515,"velocity":0.5590551181102362},{"duration":0.03488372093023262,"midi":51,"time":6.6976744186046515,"velocity":0.2992125984251969},{"duration":0.3604651162790695,"midi":99,"time":6.6976744186046515,"velocity":0.2440944881889764},{"duration":0.011627906976744207,"midi":40,"time":6.709302325581396,"velocity":0.5196850393700787},{"duration":0.6744186046511622,"midi":72,"time":6.709302325581396,"velocity":0.4094488188976378},{"duration":0.023255813953488413,"midi":39,"time":6.72093023255814,"velocity":0.4330708661417323},{"duration":0.11627906976744118,"midi":79,"time":6.72093023255814,"velocity":0.12598425196850394},{"duration":0.04651162790697594,"midi":97,"time":6.732558139534884,"velocity":0.11811023622047244},{"duration":0.058139534883720145,"midi":51,"time":6.744186046511628,"velocity":0.16535433070866143},{"duration":0.023255813953488413,"midi":35,"time":6.755813953488372,"velocity":0.4566929133858268},{"duration":0.023255813953488413,"midi":34,"time":6.77906976744186,"velocity":0.29133858267716534},{"duration":0.23255813953488413,"midi":63,"time":6.8023255813953485,"velocity":0.31496062992125984},{"duration":0.04651162790697683,"midi":82,"time":6.813953488372093,"velocity":0.07086614173228346},{"duration":0.09302325581395365,"midi":77,"time":6.883720930232558,"velocity":0.2204724409448819},{"duration":0.058139534883721034,"midi":86,"time":6.883720930232558,"velocity":0.25984251968503935},{"duration":0.04651162790697683,"midi":89,"time":6.883720930232558,"velocity":0.2677165354330709},{"duration":0.03488372093023262,"midi":93,"time":6.883720930232558,"velocity":0.10236220472440945},{"duration":0.1511627906976747,"midi":51,"time":6.895348837209302,"velocity":0.3228346456692913},{"duration":0.04651162790697683,"midi":66,"time":6.895348837209302,"velocity":0.2047244094488189},{"duration":0.06976744186046524,"midi":78,"time":6.895348837209302,"velocity":0.23622047244094488},{"duration":0.058139534883721034,"midi":81,"time":6.895348837209302,"velocity":0.2125984251968504},{"duration":0.1744186046511631,"midi":44,"time":6.906976744186046,"velocity":0.4094488188976378},{"duration":0.058139534883721034,"midi":70,"time":6.9186046511627906,"velocity":0.13385826771653545},{"duration":0.24418604651162834,"midi":68,"time":6.930232558139535,"velocity":0.3700787401574803},{"duration":0.023255813953488413,"midi":33,"time":6.965116279069767,"velocity":0.2992125984251969},{"duration":0.08139534883720945,"midi":32,"time":6.988372093023256,"velocity":0.30708661417322836},{"duration":0.058139534883721034,"midi":79,"time":7.034883720930233,"velocity":0.07086614173228346},{"duration":0.08139534883720945,"midi":63,"time":7.069767441860465,"velocity":0.36220472440944884},{"duration":0.09302325581395365,"midi":82,"time":7.0813953488372094,"velocity":0.14173228346456693},{"duration":0.19767441860465063,"midi":99,"time":7.0813953488372094,"velocity":0.1968503937007874},{"duration":0.023255813953488413,"midi":56,"time":7.1395348837209305,"velocity":0.4330708661417323},{"duration":0.04651162790697683,"midi":79,"time":7.1395348837209305,"velocity":0.1732283464566929},{"duration":0.06976744186046524,"midi":90,"time":7.151162790697675,"velocity":0.28346456692913385},{"duration":0.03488372093023262,"midi":93,"time":7.151162790697675,"velocity":0.14173228346456693},{"duration":0.08139534883720945,"midi":94,"time":7.151162790697675,"velocity":0.18110236220472442},{"duration":0.058139534883721034,"midi":95,"time":7.151162790697675,"velocity":0.12598425196850394},{"duration":0.058139534883721034,"midi":97,"time":7.151162790697675,"velocity":0.13385826771653545},{"duration":0.058139534883721034,"midi":98,"time":7.151162790697675,"velocity":0.12598425196850394},{"duration":0.058139534883721034,"midi":100,"time":7.151162790697675,"velocity":0.2047244094488189},{"duration":0.058139534883721034,"midi":101,"time":7.151162790697675,"velocity":0.2204724409448819},{"duration":0.03488372093023262,"midi":45,"time":7.162790697674419,"velocity":0.6062992125984252},{"duration":0.011627906976744207,"midi":53,"time":7.162790697674419,"velocity":0.5196850393700787},{"duration":0.023255813953488413,"midi":64,"time":7.162790697674419,"velocity":0.25196850393700787},{"duration":0.058139534883721034,"midi":83,"time":7.162790697674419,"velocity":0.14173228346456693},{"duration":0.03488372093023262,"midi":85,"time":7.162790697674419,"velocity":0.14173228346456693},{"duration":0.08139534883720945,"midi":89,"time":7.162790697674419,"velocity":0.2440944881889764},{"duration":0.011627906976744207,"midi":51,"time":7.174418604651163,"velocity":0.5118110236220472},{"duration":0.04651162790697683,"midi":88,"time":7.174418604651163,"velocity":0.13385826771653545},{"duration":0.5116279069767442,"midi":68,"time":7.186046511627907,"velocity":0.3543307086614173},{"duration":0.011627906976744207,"midi":44,"time":7.1976744186046515,"velocity":0.5984251968503937},{"duration":0.011627906976744207,"midi":43,"time":7.209302325581396,"velocity":0.5748031496062992},{"duration":0.04651162790697594,"midi":85,"time":7.209302325581396,"velocity":0.11023622047244094},{"duration":0.011627906976744207,"midi":42,"time":7.22093023255814,"velocity":0.5354330708661418},{"duration":0.023255813953488413,"midi":52,"time":7.22093023255814,"velocity":0.29133858267716534},{"duration":0.06976744186046435,"midi":82,"time":7.244186046511628,"velocity":0.10236220472440945},{"duration":0.04651162790697683,"midi":92,"time":7.255813953488372,"velocity":0.14960629921259844},{"duration":0.03488372093023262,"midi":56,"time":7.267441860465116,"velocity":0.23622047244094488},{"duration":0.023255813953488413,"midi":36,"time":7.27906976744186,"velocity":0.4015748031496063},{"duration":0.03488372093023262,"midi":35,"time":7.3023255813953485,"velocity":0.28346456692913385},{"duration":0.19767441860465151,"midi":99,"time":7.3023255813953485,"velocity":0.18110236220472442},{"duration":0.058139534883721034,"midi":56,"time":7.313953488372093,"velocity":0.23622047244094488},{"duration":0.08139534883720945,"midi":63,"time":7.337209302325581,"velocity":0.11023622047244094},{"duration":0.03488372093023262,"midi":92,"time":7.337209302325581,"velocity":0.11023622047244094},{"duration":0.04651162790697683,"midi":79,"time":7.395348837209302,"velocity":0.16535433070866143},{"duration":0.13953488372093048,"midi":72,"time":7.406976744186046,"velocity":0.2283464566929134},{"duration":0.09302325581395365,"midi":78,"time":7.406976744186046,"velocity":0.18110236220472442},{"duration":0.058139534883721034,"midi":86,"time":7.406976744186046,"velocity":0.1968503937007874},{"duration":0.10465116279069786,"midi":51,"time":7.4186046511627906,"velocity":0.2992125984251969},{"duration":0.058139534883721034,"midi":81,"time":7.4186046511627906,"velocity":0.2204724409448819},{"duration":0.04651162790697683,"midi":89,"time":7.4186046511627906,"velocity":0.23622047244094488},{"duration":0.11627906976744207,"midi":44,"time":7.430232558139535,"velocity":0.3779527559055118},{"duration":0.023255813953488413,"midi":57,"time":7.430232558139535,"velocity":0.25196850393700787},{"duration":0.06976744186046524,"midi":66,"time":7.430232558139535,"velocity":0.1889763779527559},{"duration":0.04651162790697683,"midi":74,"time":7.430232558139535,"velocity":0.23622047244094488},{"duration":0.11627906976744207,"midi":60,"time":7.441860465116279,"velocity":0.2204724409448819},{"duration":0.058139534883721034,"midi":77,"time":7.441860465116279,"velocity":0.1889763779527559},{"duration":0.04651162790697683,"midi":32,"time":7.511627906976744,"velocity":0.30708661417322836},{"duration":0.058139534883721034,"midi":86,"time":7.534883720930233,"velocity":0.25196850393700787},{"duration":0.08139534883720945,"midi":78,"time":7.546511627906977,"velocity":0.2283464566929134},{"duration":0.058139534883721034,"midi":84,"time":7.546511627906977,"velocity":0.11023622047244094},{"duration":0.04651162790697683,"midi":89,"time":7.546511627906977,"velocity":0.2440944881889764},{"duration":0.13953488372093048,"midi":51,"time":7.558139534883721,"velocity":0.41732283464566927},{"duration":0.023255813953488413,"midi":57,"time":7.558139534883721,"velocity":0.25984251968503935},{"duration":0.08139534883720945,"midi":74,"time":7.558139534883721,"velocity":0.2677165354330709},{"duration":0.058139534883721034,"midi":77,"time":7.558139534883721,"velocity":0.23622047244094488},{"duration":0.058139534883721034,"midi":81,"time":7.558139534883721,"velocity":0.2204724409448819},{"duration":0.11627906976744207,"midi":44,"time":7.569767441860465,"velocity":0.4094488188976378},{"duration":0.04651162790697683,"midi":70,"time":7.569767441860465,"velocity":0.14960629921259844},{"duration":0.1744186046511622,"midi":72,"time":7.604651162790698,"velocity":0.2755905511811024},{"duration":0.04651162790697683,"midi":60,"time":7.616279069767442,"velocity":0.1968503937007874},{"duration":0.09302325581395365,"midi":92,"time":7.616279069767442,"velocity":0.1732283464566929},{"duration":0.023255813953488413,"midi":33,"time":7.627906976744186,"velocity":0.30708661417322836},{"duration":0.058139534883721034,"midi":32,"time":7.651162790697675,"velocity":0.31496062992125984},{"duration":0.04651162790697683,"midi":78,"time":7.674418604651163,"velocity":0.29133858267716534},{"duration":0.03488372093023262,"midi":96,"time":7.674418604651163,"velocity":0.2047244094488189},{"duration":0.03488372093023262,"midi":101,"time":7.674418604651163,"velocity":0.10236220472440945},{"duration":0.03488372093023262,"midi":103,"time":7.674418604651163,"velocity":0.1889763779527559},{"duration":0.03488372093023262,"midi":65,"time":7.686046511627907,"velocity":0.12598425196850394},{"duration":0.023255813953488413,"midi":86,"time":7.686046511627907,"velocity":0.2283464566929134},{"duration":0.011627906976744207,"midi":48,"time":7.6976744186046515,"velocity":0.5354330708661418},{"duration":0.011627906976744207,"midi":46,"time":7.709302325581396,"velocity":0.6141732283464567},{"duration":0.10465116279069697,"midi":75,"time":7.709302325581396,"velocity":0.1968503937007874},{"duration":0.03488372093023262,"midi":91,"time":7.709302325581396,"velocity":0.11811023622047244},{"duration":0.011627906976744207,"midi":44,"time":7.72093023255814,"velocity":0.6377952755905512},{"duration":0.24418604651162745,"midi":63,"time":7.72093023255814,"velocity":0.2755905511811024},{"duration":0.11627906976744118,"midi":94,"time":7.72093023255814,"velocity":0.10236220472440945},{"duration":0.023255813953487525,"midi":42,"time":7.732558139534884,"velocity":0.6220472440944882},{"duration":0.011627906976744207,"midi":41,"time":7.755813953488372,"velocity":0.5511811023622047},{"duration":0.011627906976744207,"midi":40,"time":7.767441860465116,"velocity":0.5196850393700787},{"duration":0.1860465116279073,"midi":87,"time":7.767441860465116,"velocity":0.1968503937007874},{"duration":0.1627906976744189,"midi":56,"time":7.77906976744186,"velocity":0.33070866141732286},{"duration":0.04651162790697683,"midi":92,"time":7.790697674418604,"velocity":0.11023622047244094},{"duration":0.023255813953488413,"midi":36,"time":7.8023255813953485,"velocity":0.4094488188976378},{"duration":0.26744186046511675,"midi":72,"time":7.825581395348837,"velocity":0.30708661417322836},{"duration":0.08139534883720945,"midi":82,"time":7.848837209302325,"velocity":0.10236220472440945},{"duration":0.04651162790697683,"midi":91,"time":7.848837209302325,"velocity":0.07874015748031496},{"duration":0.38372093023255793,"midi":75,"time":7.883720930232558,"velocity":0.33858267716535434},{"duration":0.03488372093023262,"midi":41,"time":7.895348837209302,"velocity":0.07874015748031496},{"duration":0.1395348837209296,"midi":60,"time":7.9186046511627906,"velocity":0.25984251968503935},{"duration":0.06976744186046435,"midi":78,"time":7.941860465116279,"velocity":0.2125984251968504},{"duration":0.058139534883721034,"midi":83,"time":7.941860465116279,"velocity":0.2204724409448819},{"duration":0.058139534883721034,"midi":92,"time":7.941860465116279,"velocity":0.1732283464566929},{"duration":0.08139534883720945,"midi":94,"time":7.941860465116279,"velocity":0.12598425196850394},{"duration":0.04651162790697683,"midi":48,"time":7.953488372093023,"velocity":0.30708661417322836},{"duration":0.04651162790697683,"midi":56,"time":7.953488372093023,"velocity":0.33070866141732286},{"duration":0.03488372093023262,"midi":86,"time":7.953488372093023,"velocity":0.2283464566929134},{"duration":0.10465116279069697,"midi":88,"time":7.953488372093023,"velocity":0.12598425196850394},{"duration":0.023255813953488413,"midi":41,"time":7.965116279069767,"velocity":0.3543307086614173},{"duration":0.023255813953487525,"midi":40,"time":7.988372093023256,"velocity":0.3937007874015748},{"duration":0.08139534883720945,"midi":91,"time":7.988372093023256,"velocity":0.10236220472440945},{"duration":0.023255813953488413,"midi":55,"time":8,"velocity":0.31496062992125984},{"duration":0.22093023255813904,"midi":63,"time":8,"velocity":0.4251968503937008},{"duration":0.03488372093023173,"midi":79,"time":8,"velocity":0.09448818897637795},{"duration":0.03488372093023351,"midi":48,"time":8.011627906976743,"velocity":0.29133858267716534},{"duration":0.04651162790697683,"midi":41,"time":8.023255813953488,"velocity":0.31496062992125984},{"duration":0.06976744186046524,"midi":56,"time":8.023255813953488,"velocity":0.33070866141732286},{"duration":0.03488372093023351,"midi":30,"time":8.05813953488372,"velocity":0.23622047244094488},{"duration":0.06976744186046524,"midi":78,"time":8.069767441860465,"velocity":0.25984251968503935},{"duration":0.04651162790697683,"midi":83,"time":8.069767441860465,"velocity":0.2283464566929134},{"duration":0.04651162790697683,"midi":86,"time":8.081395348837209,"velocity":0.2204724409448819},{"duration":0.023255813953488413,"midi":71,"time":8.093023255813954,"velocity":0.25196850393700787},{"duration":0.09302325581395365,"midi":48,"time":8.104651162790697,"velocity":0.2992125984251969},{"duration":0.023255813953488413,"midi":53,"time":8.104651162790697,"velocity":0.29133858267716534},{"duration":0.1860465116279073,"midi":72,"time":8.104651162790697,"velocity":0.28346456692913385},{"duration":0.023255813953488413,"midi":40,"time":8.116279069767442,"velocity":0.3700787401574803},{"duration":0.03488372093023173,"midi":57,"time":8.116279069767442,"velocity":0.33070866141732286},{"duration":0.05813953488372192,"midi":68,"time":8.151162790697674,"velocity":0.2992125984251969},{"duration":0.023255813953488413,"midi":31,"time":8.162790697674419,"velocity":0.2755905511811024},{"duration":0.03488372093023173,"midi":41,"time":8.162790697674419,"velocity":0.29133858267716534},{"duration":0.04651162790697683,"midi":30,"time":8.186046511627907,"velocity":0.2677165354330709},{"duration":0.03488372093023173,"midi":67,"time":8.209302325581396,"velocity":0.3543307086614173},{"duration":0.06976744186046524,"midi":88,"time":8.209302325581396,"velocity":0.23622047244094488},{"duration":0.08139534883720856,"midi":89,"time":8.209302325581396,"velocity":0.2283464566929134},{"duration":0.1744186046511622,"midi":90,"time":8.209302325581396,"velocity":0.28346456692913385},{"duration":0.058139534883720145,"midi":93,"time":8.209302325581396,"velocity":0.11023622047244094},{"duration":0.04651162790697683,"midi":94,"time":8.209302325581396,"velocity":0.11811023622047244},{"duration":0.06976744186046524,"midi":95,"time":8.209302325581396,"velocity":0.14173228346456693},{"duration":0.04651162790697683,"midi":96,"time":8.209302325581396,"velocity":0.2125984251968504},{"duration":0.058139534883720145,"midi":97,"time":8.209302325581396,"velocity":0.13385826771653545},{"duration":0.011627906976745095,"midi":53,"time":8.220930232558139,"velocity":0.5196850393700787},{"duration":0.03488372093023351,"midi":64,"time":8.220930232558139,"velocity":0.3228346456692913},{"duration":0.05813953488372192,"midi":83,"time":8.220930232558139,"velocity":0.12598425196850394},{"duration":0.08139534883721034,"midi":85,"time":8.220930232558139,"velocity":0.08661417322834646},{"duration":0.03488372093023351,"midi":98,"time":8.220930232558139,"velocity":0.11811023622047244},{"duration":0.011627906976743319,"midi":45,"time":8.232558139534884,"velocity":0.5196850393700787},{"duration":0.03488372093023173,"midi":91,"time":8.232558139534884,"velocity":0.11811023622047244},{"duration":0.023255813953488413,"midi":44,"time":8.244186046511627,"velocity":0.6062992125984252},{"duration":0.5,"midi":68,"time":8.244186046511627,"velocity":0.3543307086614173},{"duration":0.04651162790697683,"midi":99,"time":8.244186046511627,"velocity":0.11023622047244094},{"duration":0.023255813953488413,"midi":51,"time":8.255813953488373,"velocity":0.2992125984251969},{"duration":0.023255813953488413,"midi":42,"time":8.267441860465116,"velocity":0.5669291338582677},{"duration":0.04651162790697683,"midi":79,"time":8.267441860465116,"velocity":0.13385826771653545},{"duration":0.20930232558139572,"midi":87,"time":8.267441860465116,"velocity":0.16535433070866143},{"duration":0.05813953488372192,"midi":92,"time":8.267441860465116,"velocity":0.13385826771653545},{"duration":0.023255813953488413,"midi":52,"time":8.279069767441861,"velocity":0.28346456692913385},{"duration":0.03488372093023173,"midi":74,"time":8.279069767441861,"velocity":0.23622047244094488},{"duration":0.03488372093023351,"midi":84,"time":8.290697674418604,"velocity":0.11811023622047244},{"duration":0.08139534883720856,"midi":75,"time":8.30232558139535,"velocity":0.31496062992125984},{"duration":0.22093023255813904,"midi":72,"time":8.325581395348838,"velocity":0.2755905511811024},{"duration":0.03488372093023351,"midi":36,"time":8.337209302325581,"velocity":0.4015748031496063},{"duration":0.11627906976744207,"midi":60,"time":8.337209302325581,"velocity":0.30708661417322836},{"duration":0.09302325581395365,"midi":82,"time":8.337209302325581,"velocity":0.1889763779527559},{"duration":0.05813953488372192,"midi":85,"time":8.337209302325581,"velocity":0.2047244094488189},{"duration":0.04651162790697683,"midi":93,"time":8.337209302325581,"velocity":0.2125984251968504},{"duration":0.023255813953488413,"midi":47,"time":8.348837209302326,"velocity":0.33858267716535434},{"duration":0.03488372093023351,"midi":64,"time":8.36046511627907,"velocity":0.2992125984251969},{"duration":0.06976744186046524,"midi":78,"time":8.36046511627907,"velocity":0.2047244094488189},{"duration":0.03488372093023351,"midi":92,"time":8.36046511627907,"velocity":0.1889763779527559},{"duration":0.11627906976744207,"midi":48,"time":8.372093023255815,"velocity":0.31496062992125984},{"duration":0.03488372093023173,"midi":55,"time":8.372093023255815,"velocity":0.2992125984251969},{"duration":0.1511627906976738,"midi":91,"time":8.372093023255815,"velocity":0.23622047244094488},{"duration":0.023255813953488413,"midi":36,"time":8.406976744186046,"velocity":0.3543307086614173},{"duration":0.04651162790697683,"midi":56,"time":8.406976744186046,"velocity":0.25196850393700787},{"duration":0.04651162790697683,"midi":63,"time":8.430232558139535,"velocity":0.2204724409448819},{"duration":0.26744186046511587,"midi":75,"time":8.430232558139535,"velocity":0.4330708661417323},{"duration":0.03488372093023173,"midi":36,"time":8.44186046511628,"velocity":0.2440944881889764},{"duration":0.023255813953488413,"midi":57,"time":8.453488372093023,"velocity":0.2677165354330709},{"duration":0.03488372093023173,"midi":88,"time":8.465116279069768,"velocity":0.1968503937007874},{"duration":0.08139534883720856,"midi":89,"time":8.465116279069768,"velocity":0.1968503937007874},{"duration":0.03488372093023173,"midi":90,"time":8.465116279069768,"velocity":0.14173228346456693},{"duration":0.058139534883720145,"midi":85,"time":8.476744186046512,"velocity":0.15748031496062992},{"duration":0.03488372093023173,"midi":79,"time":8.488372093023257,"velocity":0.23622047244094488},{"duration":0.03488372093023173,"midi":81,"time":8.488372093023257,"velocity":0.08661417322834646},{"duration":0.03488372093023173,"midi":83,"time":8.488372093023257,"velocity":0.1732283464566929},{"duration":0.04651162790697683,"midi":53,"time":8.5,"velocity":0.3228346456692913},{"duration":0.13953488372093048,"midi":46,"time":8.511627906976743,"velocity":0.30708661417322836},{"duration":0.04651162790697683,"midi":70,"time":8.523255813953488,"velocity":0.09448818897637795},{"duration":0.023255813953488413,"midi":35,"time":8.534883720930232,"velocity":0.3464566929133858},{"duration":0.023255813953488413,"midi":62,"time":8.546511627906977,"velocity":0.2283464566929134},{"duration":0.19767441860465063,"midi":73,"time":8.546511627906977,"velocity":0.28346456692913385},{"duration":0.1860465116279073,"midi":77,"time":8.546511627906977,"velocity":0.2992125984251969},{"duration":0.10465116279069875,"midi":34,"time":8.55813953488372,"velocity":0.3543307086614173},{"duration":0.023255813953488413,"midi":53,"time":8.55813953488372,"velocity":0.25984251968503935},{"duration":0.03488372093023351,"midi":93,"time":8.55813953488372,"velocity":0.07086614173228346},{"duration":0.13953488372093048,"midi":56,"time":8.593023255813954,"velocity":0.23622047244094488},{"duration":0.08139534883721034,"midi":61,"time":8.651162790697674,"velocity":0.15748031496062992},{"duration":0.058139534883720145,"midi":65,"time":8.709302325581396,"velocity":0.15748031496062992},{"duration":0.03488372093023173,"midi":84,"time":8.709302325581396,"velocity":0.11023622047244094},{"duration":0.06976744186046524,"midi":72,"time":8.732558139534884,"velocity":0.2204724409448819},{"duration":0.03488372093023173,"midi":78,"time":8.732558139534884,"velocity":0.2047244094488189},{"duration":0.03488372093023173,"midi":92,"time":8.732558139534884,"velocity":0.13385826771653545},{"duration":0.03488372093023173,"midi":96,"time":8.732558139534884,"velocity":0.1968503937007874},{"duration":0.03488372093023173,"midi":100,"time":8.732558139534884,"velocity":0.12598425196850394},{"duration":0.011627906976743319,"midi":48,"time":8.755813953488373,"velocity":0.5118110236220472},{"duration":0.011627906976745095,"midi":45,"time":8.767441860465116,"velocity":0.6141732283464567},{"duration":0.011627906976743319,"midi":44,"time":8.779069767441861,"velocity":0.6299212598425197},{"duration":0.5465116279069768,"midi":68,"time":8.779069767441861,"velocity":0.4409448818897638},{"duration":0.011627906976745095,"midi":43,"time":8.790697674418604,"velocity":0.6062992125984252},{"duration":0.5348837209302335,"midi":73,"time":8.790697674418604,"velocity":0.36220472440944884},{"duration":0.011627906976743319,"midi":42,"time":8.80232558139535,"velocity":0.5748031496062992},{"duration":0.011627906976745095,"midi":41,"time":8.813953488372093,"velocity":0.5275590551181102},{"duration":0.06976744186046524,"midi":61,"time":8.813953488372093,"velocity":0.1889763779527559},{"duration":0.20930232558139572,"midi":65,"time":8.813953488372093,"velocity":0.2047244094488189},{"duration":0.04651162790697683,"midi":91,"time":8.825581395348838,"velocity":0.14173228346456693},{"duration":0.5813953488372103,"midi":77,"time":8.837209302325581,"velocity":0.4094488188976378},{"duration":0.023255813953488413,"midi":37,"time":8.848837209302326,"velocity":0.4645669291338583},{"duration":0.06976744186046524,"midi":75,"time":8.848837209302326,"velocity":0.13385826771653545},{"duration":0.023255813953488413,"midi":36,"time":8.872093023255815,"velocity":0.4015748031496063},{"duration":0.023255813953488413,"midi":35,"time":8.895348837209303,"velocity":0.2677165354330709},{"duration":0.04651162790697683,"midi":84,"time":8.895348837209303,"velocity":0.09448818897637795},{"duration":0.06976744186046524,"midi":95,"time":8.895348837209303,"velocity":0.13385826771653545},{"duration":0.06976744186046524,"midi":61,"time":8.906976744186046,"velocity":0.1889763779527559},{"duration":0.06976744186046346,"midi":75,"time":8.94186046511628,"velocity":0.1889763779527559},{"duration":0.03488372093023173,"midi":61,"time":8.988372093023257,"velocity":0.1968503937007874},{"duration":0.04651162790697683,"midi":81,"time":9,"velocity":0.25984251968503935},{"duration":0.03488372093023173,"midi":84,"time":9,"velocity":0.13385826771653545},{"duration":0.04651162790697683,"midi":86,"time":9,"velocity":0.25196850393700787},{"duration":0.22093023255813904,"midi":87,"time":9,"velocity":0.31496062992125984},{"duration":0.11627906976744207,"midi":90,"time":9,"velocity":0.1732283464566929},{"duration":0.06976744186046524,"midi":91,"time":9,"velocity":0.11811023622047244},{"duration":0.5697674418604652,"midi":92,"time":9,"velocity":0.36220472440944884},{"duration":0.1627906976744189,"midi":51,"time":9.011627906976743,"velocity":0.3228346456692913},{"duration":0.08139534883721034,"midi":56,"time":9.011627906976743,"velocity":0.33070866141732286},{"duration":0.09302325581395365,"midi":75,"time":9.023255813953488,"velocity":0.2125984251968504},{"duration":0.1744186046511622,"midi":96,"time":9.023255813953488,"velocity":0.25196850393700787},{"duration":0.09302325581395365,"midi":102,"time":9.023255813953488,"velocity":0.1732283464566929},{"duration":0.09302325581395365,"midi":44,"time":9.046511627906977,"velocity":0.33858267716535434},{"duration":0.023255813953488413,"midi":35,"time":9.05813953488372,"velocity":0.3464566929133858},{"duration":0.03488372093023351,"midi":84,"time":9.05813953488372,"velocity":0.09448818897637795},{"duration":0.023255813953488413,"midi":33,"time":9.081395348837209,"velocity":0.3543307086614173},{"duration":0.1860465116279073,"midi":65,"time":9.081395348837209,"velocity":0.33858267716535434},{"duration":0.10465116279069875,"midi":32,"time":9.104651162790697,"velocity":0.3700787401574803},{"duration":0.08139534883720856,"midi":61,"time":9.116279069767442,"velocity":0.1732283464566929},{"duration":0.12790697674418539,"midi":56,"time":9.13953488372093,"velocity":0.2677165354330709},{"duration":0.06976744186046524,"midi":102,"time":9.13953488372093,"velocity":0.13385826771653545},{"duration":0.058139534883720145,"midi":61,"time":9.209302325581396,"velocity":0.31496062992125984},{"duration":0.023255813953488413,"midi":78,"time":9.255813953488373,"velocity":0.2440944881889764},{"duration":0.13953488372093048,"midi":82,"time":9.267441860465116,"velocity":0.29133858267716534},{"duration":0.06976744186046524,"midi":86,"time":9.267441860465116,"velocity":0.25984251968503935},{"duration":0.1627906976744189,"midi":88,"time":9.267441860465116,"velocity":0.2125984251968504},{"duration":0.03488372093023351,"midi":93,"time":9.267441860465116,"velocity":0.14173228346456693},{"duration":0.13953488372093048,"midi":94,"time":9.267441860465116,"velocity":0.3228346456692913},{"duration":0.08139534883721034,"midi":95,"time":9.267441860465116,"velocity":0.1889763779527559},{"duration":0.08139534883721034,"midi":97,"time":9.267441860465116,"velocity":0.14960629921259844},{"duration":0.10465116279069875,"midi":99,"time":9.267441860465116,"velocity":0.1889763779527559},{"duration":0.43023255813953476,"midi":102,"time":9.267441860465116,"velocity":0.28346456692913385},{"duration":0.011627906976743319,"midi":55,"time":9.279069767441861,"velocity":0.5196850393700787},{"duration":0.023255813953488413,"midi":63,"time":9.279069767441861,"velocity":0.36220472440944884},{"duration":0.11627906976744207,"midi":70,"time":9.279069767441861,"velocity":0.2992125984251969},{"duration":0.04651162790697683,"midi":79,"time":9.279069767441861,"velocity":0.2992125984251969},{"duration":0.06976744186046524,"midi":91,"time":9.279069767441861,"velocity":0.3228346456692913},{"duration":0.023255813953488413,"midi":45,"time":9.290697674418604,"velocity":0.5905511811023622},{"duration":0.04651162790697683,"midi":90,"time":9.290697674418604,"velocity":0.1968503937007874},{"duration":0.03488372093023173,"midi":58,"time":9.30232558139535,"velocity":0.30708661417322836},{"duration":0.08139534883720856,"midi":65,"time":9.30232558139535,"velocity":0.14960629921259844},{"duration":0.03488372093023173,"midi":83,"time":9.30232558139535,"velocity":0.14173228346456693},{"duration":0.06976744186046524,"midi":96,"time":9.30232558139535,"velocity":0.16535433070866143},{"duration":0.011627906976745095,"midi":44,"time":9.313953488372093,"velocity":0.5905511811023622},{"duration":0.011627906976743319,"midi":42,"time":9.325581395348838,"velocity":0.5905511811023622},{"duration":0.023255813953488413,"midi":51,"time":9.325581395348838,"velocity":0.33070866141732286},{"duration":0.06976744186046524,"midi":61,"time":9.325581395348838,"velocity":0.25984251968503935},{"duration":0.08139534883720856,"midi":80,"time":9.325581395348838,"velocity":0.25984251968503935},{"duration":0.023255813953488413,"midi":41,"time":9.337209302325581,"velocity":0.5275590551181102},{"duration":0.08139534883721034,"midi":73,"time":9.337209302325581,"velocity":0.3779527559055118},{"duration":0.03488372093023351,"midi":93,"time":9.337209302325581,"velocity":0.08661417322834646},{"duration":0.12790697674418539,"midi":68,"time":9.348837209302326,"velocity":0.2440944881889764},{"duration":0.04651162790697683,"midi":87,"time":9.395348837209303,"velocity":0.12598425196850394},{"duration":0.03488372093023173,"midi":91,"time":9.395348837209303,"velocity":0.10236220472440945},{"duration":0.023255813953488413,"midi":35,"time":9.406976744186046,"velocity":0.33070866141732286},{"duration":0.05813953488372192,"midi":61,"time":9.406976744186046,"velocity":0.36220472440944884},{"duration":0.04651162790697683,"midi":81,"time":9.406976744186046,"velocity":0.2125984251968504},{"duration":0.10465116279069697,"midi":95,"time":9.406976744186046,"velocity":0.13385826771653545},{"duration":0.1860465116279073,"midi":97,"time":9.406976744186046,"velocity":0.36220472440944884},{"duration":0.23255813953488236,"midi":51,"time":9.418604651162791,"velocity":0.33858267716535434},{"duration":0.03488372093023173,"midi":66,"time":9.418604651162791,"velocity":0.2047244094488189},{"duration":0.06976744186046524,"midi":78,"time":9.418604651162791,"velocity":0.25196850393700787},{"duration":0.058139534883720145,"midi":99,"time":9.418604651162791,"velocity":0.2283464566929134},{"duration":0.10465116279069697,"midi":56,"time":9.430232558139535,"velocity":0.2755905511811024},{"duration":0.03488372093023351,"midi":77,"time":9.430232558139535,"velocity":0.2204724409448819},{"duration":0.3255813953488378,"midi":101,"time":9.430232558139535,"velocity":0.28346456692913385},{"duration":0.12790697674418539,"midi":44,"time":9.44186046511628,"velocity":0.36220472440944884},{"duration":0.058139534883720145,"midi":70,"time":9.453488372093023,"velocity":0.11023622047244094},{"duration":0.058139534883720145,"midi":66,"time":9.465116279069768,"velocity":0.28346456692913385},{"duration":0.12790697674418539,"midi":100,"time":9.465116279069768,"velocity":0.2125984251968504},{"duration":0.023255813953488413,"midi":33,"time":9.476744186046512,"velocity":0.31496062992125984},{"duration":0.12790697674418539,"midi":77,"time":9.488372093023257,"velocity":0.2047244094488189},{"duration":0.08139534883720856,"midi":32,"time":9.5,"velocity":0.33858267716535434},{"duration":0.058139534883720145,"midi":70,"time":9.546511627906977,"velocity":0.25196850393700787},{"duration":0.19767441860465063,"midi":89,"time":9.546511627906977,"velocity":0.2204724409448819},{"duration":0.08139534883720856,"midi":94,"time":9.546511627906977,"velocity":0.2677165354330709},{"duration":0.03488372093023351,"midi":58,"time":9.55813953488372,"velocity":0.25984251968503935},{"duration":0.09302325581395365,"midi":68,"time":9.581395348837209,"velocity":0.31496062992125984},{"duration":0.1860465116279073,"midi":92,"time":9.593023255813954,"velocity":0.33070866141732286},{"duration":0.03488372093023351,"midi":58,"time":9.604651162790697,"velocity":0.12598425196850394},{"duration":0.05813953488372192,"midi":65,"time":9.604651162790697,"velocity":0.2677165354330709},{"duration":0.03488372093023173,"midi":96,"time":9.616279069767442,"velocity":0.10236220472440945},{"duration":0.12790697674418539,"midi":99,"time":9.616279069767442,"velocity":0.14960629921259844},{"duration":0.05813953488372192,"midi":94,"time":9.651162790697674,"velocity":0.2204724409448819},{"duration":0.20930232558139572,"midi":73,"time":9.662790697674419,"velocity":0.31496062992125984},{"duration":0.06976744186046524,"midi":85,"time":9.662790697674419,"velocity":0.36220472440944884},{"duration":0.04651162790697683,"midi":86,"time":9.662790697674419,"velocity":0.2440944881889764},{"duration":0.058139534883720145,"midi":91,"time":9.662790697674419,"velocity":0.18110236220472442},{"duration":0.03488372093023173,"midi":93,"time":9.662790697674419,"velocity":0.1889763779527559},{"duration":0.058139534883720145,"midi":95,"time":9.662790697674419,"velocity":0.11811023622047244},{"duration":0.023255813953488413,"midi":48,"time":9.674418604651162,"velocity":0.3779527559055118},{"duration":0.04651162790697683,"midi":75,"time":9.674418604651162,"velocity":0.12598425196850394},{"duration":0.04651162790697683,"midi":77,"time":9.674418604651162,"velocity":0.2283464566929134},{"duration":0.08139534883721034,"midi":79,"time":9.674418604651162,"velocity":0.25984251968503935},{"duration":0.04651162790697683,"midi":83,"time":9.674418604651162,"velocity":0.15748031496062992},{"duration":0.04651162790697683,"midi":100,"time":9.674418604651162,"velocity":0.07086614173228346},{"duration":0.058139534883720145,"midi":56,"time":9.686046511627907,"velocity":0.29133858267716534},{"duration":0.11627906976744207,"midi":61,"time":9.686046511627907,"velocity":0.4409448818897638},{"duration":0.058139534883720145,"midi":71,"time":9.686046511627907,"velocity":0.1889763779527559},{"duration":0.04651162790697683,"midi":82,"time":9.686046511627907,"velocity":0.2204724409448819},{"duration":0.05813953488372192,"midi":49,"time":9.69767441860465,"velocity":0.33858267716535434},{"duration":0.03488372093023351,"midi":37,"time":9.720930232558139,"velocity":0.3700787401574803},{"duration":0.023255813953488413,"midi":65,"time":9.720930232558139,"velocity":0.25984251968503935},{"duration":0.23255813953488413,"midi":102,"time":9.720930232558139,"velocity":0.1889763779527559},{"duration":0.3720930232558146,"midi":85,"time":9.744186046511627,"velocity":0.31496062992125984},{"duration":0.03488372093023351,"midi":49,"time":9.767441860465116,"velocity":0.18110236220472442},{"duration":0.04651162790697683,"midi":56,"time":9.767441860465116,"velocity":0.3543307086614173},{"duration":0.1627906976744189,"midi":95,"time":9.767441860465116,"velocity":0.10236220472440945},{"duration":0.023255813953488413,"midi":36,"time":9.779069767441861,"velocity":0.23622047244094488},{"duration":0.03488372093023351,"midi":78,"time":9.790697674418604,"velocity":0.29133858267716534},{"duration":0.04651162790697683,"midi":81,"time":9.790697674418604,"velocity":0.25196850393700787},{"duration":0.03488372093023351,"midi":83,"time":9.790697674418604,"velocity":0.2204724409448819},{"duration":0.05813953488372192,"midi":96,"time":9.790697674418604,"velocity":0.1889763779527559},{"duration":0.08139534883721034,"midi":100,"time":9.790697674418604,"velocity":0.14960629921259844},{"duration":0.03488372093023351,"midi":101,"time":9.790697674418604,"velocity":0.10236220472440945},{"duration":0.03488372093023351,"midi":103,"time":9.790697674418604,"velocity":0.14960629921259844},{"duration":0.06976744186046524,"midi":69,"time":9.80232558139535,"velocity":0.25196850393700787},{"duration":0.011627906976743319,"midi":46,"time":9.825581395348838,"velocity":0.5826771653543307},{"duration":0.08139534883720856,"midi":65,"time":9.825581395348838,"velocity":0.3228346456692913},{"duration":0.023255813953488413,"midi":44,"time":9.837209302325581,"velocity":0.6377952755905512},{"duration":0.06976744186046524,"midi":78,"time":9.837209302325581,"velocity":0.2204724409448819},{"duration":0.08139534883720856,"midi":80,"time":9.848837209302326,"velocity":0.13385826771653545},{"duration":0.011627906976745095,"midi":43,"time":9.86046511627907,"velocity":0.5196850393700787},{"duration":0.04651162790697683,"midi":70,"time":9.86046511627907,"velocity":0.16535433070866143},{"duration":0.19767441860465063,"midi":92,"time":9.86046511627907,"velocity":0.2677165354330709},{"duration":0.04651162790697683,"midi":58,"time":9.883720930232558,"velocity":0.28346456692913385},{"duration":0.3023255813953494,"midi":89,"time":9.883720930232558,"velocity":0.25196850393700787},{"duration":0.03488372093023351,"midi":96,"time":9.883720930232558,"velocity":0.07086614173228346},{"duration":0.023255813953488413,"midi":46,"time":9.895348837209303,"velocity":0.30708661417322836},{"duration":0.06976744186046524,"midi":100,"time":9.895348837209303,"velocity":0.07086614173228346},{"duration":0.03488372093023351,"midi":61,"time":9.906976744186046,"velocity":0.2677165354330709},{"duration":0.1627906976744189,"midi":67,"time":9.906976744186046,"velocity":0.5196850393700787},{"duration":0.023255813953488413,"midi":45,"time":9.918604651162791,"velocity":0.29133858267716534},{"duration":0.03488372093023351,"midi":70,"time":9.930232558139535,"velocity":0.15748031496062992},{"duration":0.058139534883720145,"midi":54,"time":9.94186046511628,"velocity":0.2283464566929134},{"duration":0.03488372093023173,"midi":74,"time":9.94186046511628,"velocity":0.15748031496062992},{"duration":0.10465116279069697,"midi":80,"time":9.953488372093023,"velocity":0.16535433070866143},{"duration":0.20930232558139572,"midi":95,"time":9.953488372093023,"velocity":0.2047244094488189},{"duration":0.03488372093023173,"midi":61,"time":9.965116279069768,"velocity":0.18110236220472442},{"duration":0.12790697674418539,"midi":93,"time":9.965116279069768,"velocity":0.13385826771653545},{"duration":0.03488372093023173,"midi":39,"time":9.988372093023257,"velocity":0.1732283464566929},{"duration":0.3255813953488378,"midi":70,"time":10,"velocity":0.3228346456692913},{"duration":0.08139534883720856,"midi":99,"time":10,"velocity":0.08661417322834646},{"duration":0.04651162790697683,"midi":54,"time":10.011627906976743,"velocity":0.15748031496062992},{"duration":0.06976744186046524,"midi":61,"time":10.011627906976743,"velocity":0.23622047244094488},{"duration":0.03488372093023351,"midi":84,"time":10.011627906976743,"velocity":0.07086614173228346},{"duration":0.03488372093023351,"midi":78,"time":10.05813953488372,"velocity":0.14173228346456693},{"duration":0.04651162790697683,"midi":81,"time":10.05813953488372,"velocity":0.2283464566929134},{"duration":0.03488372093023351,"midi":87,"time":10.05813953488372,"velocity":0.13385826771653545},{"duration":0.023255813953488413,"midi":66,"time":10.069767441860465,"velocity":0.3228346456692913},{"duration":0.04651162790697683,"midi":84,"time":10.069767441860465,"velocity":0.2440944881889764},{"duration":0.04651162790697683,"midi":68,"time":10.081395348837209,"velocity":0.4330708661417323},{"duration":0.023255813953488413,"midi":55,"time":10.093023255813954,"velocity":0.3228346456692913},{"duration":0.023255813953488413,"midi":65,"time":10.093023255813954,"velocity":0.25984251968503935},{"duration":0.5116279069767433,"midi":77,"time":10.093023255813954,"velocity":0.3858267716535433},{"duration":0.5348837209302335,"midi":73,"time":10.104651162790697,"velocity":0.33858267716535434},{"duration":0.023255813953488413,"midi":37,"time":10.116279069767442,"velocity":0.3858267716535433},{"duration":0.023255813953488413,"midi":53,"time":10.127906976744185,"velocity":0.23622047244094488},{"duration":0.05813953488372192,"midi":67,"time":10.127906976744185,"velocity":0.4330708661417323},{"duration":0.1860465116279073,"midi":61,"time":10.13953488372093,"velocity":0.3937007874015748},{"duration":0.06976744186046524,"midi":81,"time":10.186046511627907,"velocity":0.18110236220472442},{"duration":0.058139534883720145,"midi":84,"time":10.186046511627907,"velocity":0.2125984251968504},{"duration":0.04651162790697683,"midi":92,"time":10.186046511627907,"velocity":0.15748031496062992},{"duration":0.03488372093023351,"midi":95,"time":10.19767441860465,"velocity":0.14960629921259844},{"duration":0.023255813953488413,"midi":46,"time":10.209302325581396,"velocity":0.29133858267716534},{"duration":0.06976744186046524,"midi":66,"time":10.209302325581396,"velocity":0.41732283464566927},{"duration":0.058139534883720145,"midi":87,"time":10.232558139534884,"velocity":0.07874015748031496},{"duration":0.04651162790697683,"midi":46,"time":10.267441860465116,"velocity":0.31496062992125984},{"duration":0.10465116279069875,"midi":80,"time":10.267441860465116,"velocity":0.23622047244094488},{"duration":0.023255813953488413,"midi":68,"time":10.279069767441861,"velocity":0.3228346456692913},{"duration":0.03488372093023351,"midi":66,"time":10.290697674418604,"velocity":0.41732283464566927},{"duration":0.023255813953488413,"midi":39,"time":10.30232558139535,"velocity":0.2440944881889764},{"duration":0.023255813953488413,"midi":64,"time":10.313953488372093,"velocity":0.3937007874015748},{"duration":0.023255813953488413,"midi":78,"time":10.325581395348838,"velocity":0.2283464566929134},{"duration":0.058139534883720145,"midi":90,"time":10.325581395348838,"velocity":0.2992125984251969},{"duration":0.04651162790697683,"midi":93,"time":10.325581395348838,"velocity":0.2125984251968504},{"duration":0.06976744186046524,"midi":94,"time":10.325581395348838,"velocity":0.2047244094488189},{"duration":0.058139534883720145,"midi":95,"time":10.325581395348838,"velocity":0.13385826771653545},{"duration":0.058139534883720145,"midi":96,"time":10.325581395348838,"velocity":0.14960629921259844},{"duration":0.04651162790697683,"midi":100,"time":10.325581395348838,"velocity":0.18110236220472442},{"duration":0.09302325581395365,"midi":101,"time":10.325581395348838,"velocity":0.2047244094488189},{"duration":0.03488372093023351,"midi":68,"time":10.337209302325581,"velocity":0.33070866141732286},{"duration":0.06976744186046524,"midi":70,"time":10.337209302325581,"velocity":0.25196850393700787},{"duration":0.05813953488372192,"midi":88,"time":10.337209302325581,"velocity":0.23622047244094488},{"duration":0.05813953488372192,"midi":91,"time":10.337209302325581,"velocity":0.1968503937007874},{"duration":0.023255813953488413,"midi":45,"time":10.348837209302326,"velocity":0.5984251968503937},{"duration":0.04651162790697683,"midi":83,"time":10.348837209302326,"velocity":0.14173228346456693},{"duration":0.22093023255813904,"midi":61,"time":10.36046511627907,"velocity":0.4566929133858268},{"duration":0.05813953488372192,"midi":99,"time":10.36046511627907,"velocity":0.11811023622047244},{"duration":0.011627906976743319,"midi":44,"time":10.372093023255815,"velocity":0.5905511811023622},{"duration":0.023255813953488413,"midi":52,"time":10.372093023255815,"velocity":0.2992125984251969},{"duration":0.011627906976745095,"midi":43,"time":10.383720930232558,"velocity":0.5826771653543307},{"duration":0.05813953488372192,"midi":66,"time":10.383720930232558,"velocity":0.33070866141732286},{"duration":0.03488372093023351,"midi":87,"time":10.383720930232558,"velocity":0.11811023622047244},{"duration":0.011627906976743319,"midi":42,"time":10.395348837209303,"velocity":0.5433070866141733},{"duration":0.023255813953488413,"midi":53,"time":10.418604651162791,"velocity":0.2440944881889764},{"duration":0.023255813953488413,"midi":68,"time":10.430232558139535,"velocity":0.30708661417322836},{"duration":0.023255813953488413,"midi":37,"time":10.44186046511628,"velocity":0.44881889763779526},{"duration":0.03488372093023351,"midi":69,"time":10.453488372093023,"velocity":0.2125984251968504},{"duration":0.08139534883720856,"midi":81,"time":10.453488372093023,"velocity":0.2204724409448819},{"duration":0.04651162790697683,"midi":93,"time":10.453488372093023,"velocity":0.23622047244094488},{"duration":0.023255813953488413,"midi":36,"time":10.465116279069768,"velocity":0.36220472440944884},{"duration":0.10465116279069697,"midi":55,"time":10.465116279069768,"velocity":0.30708661417322836},{"duration":0.04651162790697505,"midi":65,"time":10.465116279069768,"velocity":0.2204724409448819},{"duration":0.10465116279069697,"midi":82,"time":10.465116279069768,"velocity":0.2047244094488189},{"duration":0.03488372093023173,"midi":90,"time":10.465116279069768,"velocity":0.15748031496062992},{"duration":0.37209302325581284,"midi":68,"time":10.488372093023257,"velocity":0.4409448818897638},{"duration":0.04651162790697505,"midi":79,"time":10.488372093023257,"velocity":0.10236220472440945},{"duration":0.03488372093023173,"midi":83,"time":10.488372093023257,"velocity":0.07874015748031496},{"duration":0.058139534883720145,"midi":95,"time":10.488372093023257,"velocity":0.10236220472440945},{"duration":0.04651162790697683,"midi":36,"time":10.523255813953488,"velocity":0.33858267716535434},{"duration":0.174418604651164,"midi":91,"time":10.581395348837209,"velocity":0.16535433070866143},{"duration":0.03488372093023173,"midi":64,"time":10.593023255813954,"velocity":0.2440944881889764},{"duration":0.06976744186046524,"midi":70,"time":10.593023255813954,"velocity":0.2125984251968504},{"duration":0.04651162790697683,"midi":83,"time":10.593023255813954,"velocity":0.1732283464566929},{"duration":0.03488372093023173,"midi":86,"time":10.593023255813954,"velocity":0.08661417322834646},{"duration":0.10465116279069697,"midi":87,"time":10.593023255813954,"velocity":0.16535433070866143},{"duration":0.08139534883720856,"midi":88,"time":10.593023255813954,"velocity":0.15748031496062992},{"duration":0.04651162790697683,"midi":90,"time":10.593023255813954,"velocity":0.11811023622047244},{"duration":0.023255813953488413,"midi":45,"time":10.604651162790697,"velocity":0.3700787401574803},{"duration":0.04651162790697683,"midi":76,"time":10.604651162790697,"velocity":0.2755905511811024},{"duration":0.03488372093023351,"midi":79,"time":10.604651162790697,"velocity":0.2677165354330709},{"duration":0.13953488372093048,"midi":46,"time":10.627906976744185,"velocity":0.30708661417322836},{"duration":0.023255813953488413,"midi":72,"time":10.627906976744185,"velocity":0.2992125984251969},{"duration":0.04651162790697683,"midi":53,"time":10.63953488372093,"velocity":0.29133858267716534},{"duration":0.10465116279069697,"midi":63,"time":10.63953488372093,"velocity":0.3464566929133858},{"duration":0.6395348837209305,"midi":99,"time":10.651162790697674,"velocity":0.2755905511811024},{"duration":0.1511627906976738,"midi":72,"time":10.662790697674419,"velocity":0.2440944881889764},{"duration":0.058139534883720145,"midi":94,"time":10.662790697674419,"velocity":0.18110236220472442},{"duration":0.10465116279069875,"midi":34,"time":10.674418604651162,"velocity":0.3464566929133858},{"duration":0.04651162790697683,"midi":77,"time":10.686046511627907,"velocity":0.10236220472440945},{"duration":0.023255813953488413,"midi":53,"time":10.69767441860465,"velocity":0.2755905511811024},{"duration":0.05813953488372192,"midi":82,"time":10.69767441860465,"velocity":0.12598425196850394},{"duration":0.03488372093023351,"midi":60,"time":10.744186046511627,"velocity":0.18110236220472442},{"duration":0.10465116279069697,"midi":63,"time":10.755813953488373,"velocity":0.2677165354330709},{"duration":0.11627906976744207,"midi":97,"time":10.755813953488373,"velocity":0.1968503937007874},{"duration":0.04651162790697683,"midi":94,"time":10.767441860465116,"velocity":0.11023622047244094},{"duration":0.04651162790697683,"midi":60,"time":10.790697674418604,"velocity":0.28346456692913385},{"duration":0.08139534883721034,"midi":88,"time":10.790697674418604,"velocity":0.18110236220472442},{"duration":0.023255813953488413,"midi":73,"time":10.848837209302326,"velocity":0.2283464566929134},{"duration":0.03488372093023173,"midi":89,"time":10.848837209302326,"velocity":0.14173228346456693},{"duration":0.03488372093023173,"midi":91,"time":10.848837209302326,"velocity":0.1732283464566929},{"duration":0.03488372093023173,"midi":94,"time":10.848837209302326,"velocity":0.13385826771653545},{"duration":0.03488372093023173,"midi":98,"time":10.848837209302326,"velocity":0.1732283464566929},{"duration":0.03488372093023173,"midi":102,"time":10.848837209302326,"velocity":0.1732283464566929},{"duration":0.023255813953488413,"midi":47,"time":10.86046511627907,"velocity":0.5118110236220472},{"duration":0.04651162790697683,"midi":78,"time":10.86046511627907,"velocity":0.28346456692913385},{"duration":0.04651162790697683,"midi":81,"time":10.86046511627907,"velocity":0.1968503937007874},{"duration":0.03488372093023351,"midi":86,"time":10.86046511627907,"velocity":0.16535433070866143},{"duration":0.023255813953488413,"midi":56,"time":10.872093023255815,"velocity":0.33858267716535434},{"duration":0.09302325581395365,"midi":60,"time":10.872093023255815,"velocity":0.29133858267716534},{"duration":0.04651162790697683,"midi":74,"time":10.872093023255815,"velocity":0.23622047244094488},{"duration":0.023255813953488413,"midi":77,"time":10.872093023255815,"velocity":0.23622047244094488},{"duration":0.03488372093023173,"midi":79,"time":10.872093023255815,"velocity":0.12598425196850394},{"duration":0.06976744186046524,"midi":87,"time":10.872093023255815,"velocity":0.1968503937007874},{"duration":0.011627906976745095,"midi":46,"time":10.883720930232558,"velocity":0.5905511811023622},{"duration":0.6627906976744189,"midi":75,"time":10.883720930232558,"velocity":0.3858267716535433},{"duration":0.011627906976743319,"midi":45,"time":10.895348837209303,"velocity":0.6062992125984252},{"duration":0.23255813953488236,"midi":63,"time":10.895348837209303,"velocity":0.33858267716535434},{"duration":0.011627906976745095,"midi":43,"time":10.906976744186046,"velocity":0.5984251968503937},{"duration":0.023255813953488413,"midi":56,"time":10.906976744186046,"velocity":0.2992125984251969},{"duration":0.03488372093023351,"midi":77,"time":10.906976744186046,"velocity":0.12598425196850394},{"duration":0.023255813953488413,"midi":42,"time":10.918604651162791,"velocity":0.5748031496062992},{"duration":0.10465116279069697,"midi":51,"time":10.918604651162791,"velocity":0.31496062992125984},{"duration":0.04651162790697683,"midi":68,"time":10.930232558139535,"velocity":0.33070866141732286},{"duration":0.09302325581395188,"midi":97,"time":10.94186046511628,"velocity":0.11811023622047244},{"duration":0.06976744186046524,"midi":60,"time":10.976744186046512,"velocity":0.2204724409448819},{"duration":0.023255813953488413,"midi":69,"time":10.976744186046512,"velocity":0.23622047244094488},{"duration":0.023255813953486637,"midi":35,"time":10.988372093023257,"velocity":0.44881889763779526},{"duration":0.03488372093023173,"midi":68,"time":11,"velocity":0.2125984251968504},{"duration":0.04651162790697683,"midi":94,"time":11,"velocity":0.13385826771653545},{"duration":0.03488372093023351,"midi":91,"time":11.011627906976743,"velocity":0.12598425196850394},{"duration":0.03488372093023173,"midi":44,"time":11.023255813953488,"velocity":0.14173228346456693},{"duration":0.03488372093023351,"midi":69,"time":11.034883720930232,"velocity":0.3937007874015748},{"duration":0.08139534883721034,"midi":80,"time":11.05813953488372,"velocity":0.1889763779527559},{"duration":0.20930232558139572,"midi":68,"time":11.069767441860465,"velocity":0.47244094488188976},{"duration":0.04651162790697683,"midi":56,"time":11.081395348837209,"velocity":0.25196850393700787},{"duration":0.03488372093023351,"midi":82,"time":11.081395348837209,"velocity":0.07874015748031496},{"duration":0.03488372093023351,"midi":101,"time":11.104651162790697,"velocity":0.08661417322834646},{"duration":0.04651162790697683,"midi":78,"time":11.116279069767442,"velocity":0.2125984251968504},{"duration":0.06976744186046524,"midi":81,"time":11.116279069767442,"velocity":0.2204724409448819},{"duration":0.04651162790697683,"midi":86,"time":11.116279069767442,"velocity":0.2204724409448819},{"duration":0.04651162790697683,"midi":89,"time":11.116279069767442,"velocity":0.2204724409448819},{"duration":0.04651162790697683,"midi":74,"time":11.127906976744185,"velocity":0.2677165354330709},{"duration":0.12790697674418539,"midi":56,"time":11.13953488372093,"velocity":0.3543307086614173},{"duration":0.12790697674418539,"midi":63,"time":11.13953488372093,"velocity":0.33070866141732286},{"duration":0.5697674418604652,"midi":72,"time":11.13953488372093,"velocity":0.33858267716535434},{"duration":0.04651162790697683,"midi":77,"time":11.13953488372093,"velocity":0.2125984251968504},{"duration":0.12790697674418716,"midi":51,"time":11.151162790697674,"velocity":0.31496062992125984},{"duration":0.13953488372093048,"midi":44,"time":11.162790697674419,"velocity":0.3464566929133858},{"duration":0.023255813953488413,"midi":35,"time":11.174418604651162,"velocity":0.30708661417322836},{"duration":0.023255813953488413,"midi":33,"time":11.19767441860465,"velocity":0.30708661417322836},{"duration":0.08139534883721034,"midi":32,"time":11.220930232558139,"velocity":0.3228346456692913},{"duration":0.03488372093023351,"midi":78,"time":11.244186046511627,"velocity":0.14960629921259844},{"duration":0.04651162790697683,"midi":82,"time":11.255813953488373,"velocity":0.12598425196850394},{"duration":0.19767441860465063,"midi":97,"time":11.279069767441861,"velocity":0.14960629921259844},{"duration":0.37209302325581284,"midi":63,"time":11.30232558139535,"velocity":0.4566929133858268},{"duration":0.04651162790697683,"midi":68,"time":11.30232558139535,"velocity":0.28346456692913385},{"duration":0.26744186046511587,"midi":99,"time":11.313953488372093,"velocity":0.2125984251968504},{"duration":0.03488372093023351,"midi":56,"time":11.337209302325581,"velocity":0.2283464566929134},{"duration":0.06976744186046524,"midi":82,"time":11.337209302325581,"velocity":0.11023622047244094},{"duration":0.03488372093023351,"midi":68,"time":11.36046511627907,"velocity":0.4094488188976378},{"duration":0.03488372093023173,"midi":78,"time":11.372093023255815,"velocity":0.15748031496062992},{"duration":0.04651162790697683,"midi":100,"time":11.372093023255815,"velocity":0.1889763779527559},{"duration":0.03488372093023351,"midi":86,"time":11.383720930232558,"velocity":0.16535433070866143},{"duration":0.11627906976744207,"midi":88,"time":11.383720930232558,"velocity":0.23622047244094488},{"duration":0.08139534883721034,"midi":89,"time":11.383720930232558,"velocity":0.2440944881889764},{"duration":0.06976744186046524,"midi":90,"time":11.383720930232558,"velocity":0.2992125984251969},{"duration":0.08139534883721034,"midi":93,"time":11.383720930232558,"velocity":0.12598425196850394},{"duration":0.06976744186046524,"midi":94,"time":11.383720930232558,"velocity":0.14960629921259844},{"duration":0.08139534883721034,"midi":95,"time":11.383720930232558,"velocity":0.1968503937007874},{"duration":0.05813953488372192,"midi":96,"time":11.383720930232558,"velocity":0.1889763779527559},{"duration":0.03488372093023173,"midi":45,"time":11.395348837209303,"velocity":0.6141732283464567},{"duration":0.011627906976743319,"midi":53,"time":11.395348837209303,"velocity":0.5275590551181102},{"duration":0.03488372093023173,"midi":69,"time":11.395348837209303,"velocity":0.28346456692913385},{"duration":0.058139534883720145,"midi":83,"time":11.395348837209303,"velocity":0.15748031496062992},{"duration":0.011627906976745095,"midi":51,"time":11.406976744186046,"velocity":0.5118110236220472},{"duration":0.03488372093023351,"midi":91,"time":11.406976744186046,"velocity":0.18110236220472442},{"duration":0.011627906976745095,"midi":44,"time":11.430232558139535,"velocity":0.5984251968503937},{"duration":0.03488372093023351,"midi":51,"time":11.430232558139535,"velocity":0.30708661417322836},{"duration":0.023255813953488413,"midi":68,"time":11.430232558139535,"velocity":0.29133858267716534},{"duration":0.06976744186046524,"midi":82,"time":11.430232558139535,"velocity":0.15748031496062992},{"duration":0.023255813953488413,"midi":42,"time":11.44186046511628,"velocity":0.5748031496062992},{"duration":0.03488372093023173,"midi":85,"time":11.44186046511628,"velocity":0.12598425196850394},{"duration":0.03488372093023351,"midi":67,"time":11.453488372093023,"velocity":0.3228346456692913},{"duration":0.11627906976744029,"midi":56,"time":11.488372093023257,"velocity":0.36220472440944884},{"duration":0.058139534883720145,"midi":92,"time":11.5,"velocity":0.11811023622047244},{"duration":0.023255813953488413,"midi":36,"time":11.511627906976743,"velocity":0.4094488188976378},{"duration":0.03488372093023351,"midi":35,"time":11.534883720930232,"velocity":0.2755905511811024},{"duration":0.12790697674418716,"midi":80,"time":11.534883720930232,"velocity":0.2992125984251969},{"duration":0.03488372093023351,"midi":87,"time":11.55813953488372,"velocity":0.07086614173228346},{"duration":0.023255813953488413,"midi":67,"time":11.616279069767442,"velocity":0.25196850393700787},{"duration":0.06976744186046524,"midi":99,"time":11.627906976744185,"velocity":0.1889763779527559},{"duration":0.03488372093023173,"midi":68,"time":11.63953488372093,"velocity":0.3228346456692913},{"duration":0.03488372093023173,"midi":83,"time":11.63953488372093,"velocity":0.15748031496062992},{"duration":0.03488372093023351,"midi":90,"time":11.651162790697674,"velocity":0.16535433070866143},{"duration":0.04651162790697683,"midi":67,"time":11.662790697674419,"velocity":0.31496062992125984},{"duration":0.058139534883720145,"midi":81,"time":11.662790697674419,"velocity":0.2677165354330709},{"duration":0.03488372093023351,"midi":92,"time":11.674418604651162,"velocity":0.11023622047244094},{"duration":0.03488372093023173,"midi":38,"time":11.686046511627907,"velocity":0.3779527559055118},{"duration":0.03488372093023173,"midi":70,"time":11.686046511627907,"velocity":0.15748031496062992},{"duration":0.023255813953488413,"midi":66,"time":11.709302325581396,"velocity":0.28346456692913385},{"duration":0.06976744186046524,"midi":68,"time":11.709302325581396,"velocity":0.31496062992125984},{"duration":0.03488372093023351,"midi":72,"time":11.720930232558139,"velocity":0.08661417322834646},{"duration":0.11627906976744207,"midi":65,"time":11.732558139534884,"velocity":0.3464566929133858},{"duration":0.03488372093023173,"midi":99,"time":11.732558139534884,"velocity":0.11811023622047244},{"duration":0.06976744186046524,"midi":92,"time":11.755813953488373,"velocity":0.11023622047244094},{"duration":0.05813953488372192,"midi":84,"time":11.767441860465116,"velocity":0.09448818897637795},{"duration":0.05813953488372192,"midi":89,"time":11.767441860465116,"velocity":0.23622047244094488},{"duration":0.023255813953488413,"midi":40,"time":11.779069767441861,"velocity":0.25984251968503935},{"duration":0.023255813953488413,"midi":76,"time":11.779069767441861,"velocity":0.2283464566929134},{"duration":0.06976744186046524,"midi":78,"time":11.779069767441861,"velocity":0.1732283464566929},{"duration":0.058139534883720145,"midi":81,"time":11.779069767441861,"velocity":0.1968503937007874},{"duration":0.04651162790697683,"midi":86,"time":11.779069767441861,"velocity":0.2283464566929134},{"duration":0.1627906976744189,"midi":99,"time":11.779069767441861,"velocity":0.14173228346456693},{"duration":0.13953488372093048,"midi":56,"time":11.790697674418604,"velocity":0.3464566929133858},{"duration":0.06976744186046524,"midi":74,"time":11.790697674418604,"velocity":0.2283464566929134},{"duration":0.058139534883720145,"midi":70,"time":11.80232558139535,"velocity":0.11023622047244094},{"duration":0.04651162790697683,"midi":72,"time":11.80232558139535,"velocity":0.12598425196850394},{"duration":0.06976744186046524,"midi":75,"time":11.80232558139535,"velocity":0.2440944881889764},{"duration":0.04651162790697683,"midi":44,"time":11.813953488372093,"velocity":0.4094488188976378},{"duration":0.06976744186046524,"midi":51,"time":11.813953488372093,"velocity":0.31496062992125984},{"duration":0.023255813953488413,"midi":34,"time":11.86046511627907,"velocity":0.30708661417322836},{"duration":0.04651162790697683,"midi":92,"time":11.86046511627907,"velocity":0.13385826771653545},{"duration":0.04651162790697683,"midi":64,"time":11.872093023255815,"velocity":0.3464566929133858},{"duration":0.05813953488372192,"midi":32,"time":11.883720930232558,"velocity":0.30708661417322836},{"duration":0.04651162790697683,"midi":80,"time":11.895348837209303,"velocity":0.11811023622047244},{"duration":0.1511627906976738,"midi":75,"time":11.906976744186046,"velocity":0.1968503937007874},{"duration":0.05813953488372192,"midi":78,"time":11.906976744186046,"velocity":0.2440944881889764},{"duration":0.04651162790697683,"midi":83,"time":11.906976744186046,"velocity":0.1732283464566929},{"duration":0.04651162790697683,"midi":86,"time":11.906976744186046,"velocity":0.2204724409448819},{"duration":0.44186046511627985,"midi":87,"time":11.906976744186046,"velocity":0.1968503937007874},{"duration":0.05813953488372192,"midi":94,"time":11.906976744186046,"velocity":0.15748031496062992},{"duration":0.03488372093023351,"midi":96,"time":11.906976744186046,"velocity":0.2125984251968504},{"duration":0.03488372093023351,"midi":102,"time":11.906976744186046,"velocity":0.14173228346456693},{"duration":0.03488372093023173,"midi":69,"time":11.918604651162791,"velocity":0.1889763779527559},{"duration":0.058139534883720145,"midi":84,"time":11.918604651162791,"velocity":0.10236220472440945},{"duration":0.011627906976745095,"midi":48,"time":11.930232558139535,"velocity":0.5511811023622047},{"duration":0.08139534883720856,"midi":71,"time":11.930232558139535,"velocity":0.18110236220472442},{"duration":0.011627906976743319,"midi":46,"time":11.94186046511628,"velocity":0.6062992125984252},{"duration":0.023255813953488413,"midi":63,"time":11.94186046511628,"velocity":0.25196850393700787},{"duration":0.011627906976745095,"midi":44,"time":11.953488372093023,"velocity":0.6299212598425197},{"duration":0.023255813953488413,"midi":42,"time":11.965116279069768,"velocity":0.6299212598425197},{"duration":0.03488372093023173,"midi":56,"time":11.965116279069768,"velocity":0.3228346456692913},{"duration":0.023255813953488413,"midi":64,"time":11.965116279069768,"velocity":0.2992125984251969},{"duration":0.04651162790697505,"midi":91,"time":11.965116279069768,"velocity":0.13385826771653545},{"duration":0.5465116279069768,"midi":99,"time":11.976744186046512,"velocity":0.25984251968503935},{"duration":0.011627906976743319,"midi":41,"time":11.988372093023257,"velocity":0.5590551181102362},{"duration":0.04651162790697505,"midi":65,"time":11.988372093023257,"velocity":0.2755905511811024},{"duration":0.03488372093023173,"midi":82,"time":11.988372093023257,"velocity":0.10236220472440945},{"duration":0.011627906976743319,"midi":40,"time":12,"velocity":0.5118110236220472},{"duration":0.1627906976744189,"midi":97,"time":12,"velocity":0.14960629921259844},{"duration":0.174418604651164,"midi":72,"time":12.011627906976743,"velocity":0.2047244094488189},{"duration":0.05813953488372192,"midi":94,"time":12.011627906976743,"velocity":0.10236220472440945},{"duration":0.023255813953488413,"midi":53,"time":12.023255813953488,"velocity":0.2440944881889764},{"duration":0.13953488372093048,"midi":84,"time":12.034883720930232,"velocity":0.25984251968503935},{"duration":0.023255813953488413,"midi":63,"time":12.046511627906977,"velocity":0.2992125984251969},{"duration":0.1860465116279073,"midi":80,"time":12.046511627906977,"velocity":0.2047244094488189},{"duration":0.023255813953488413,"midi":56,"time":12.05813953488372,"velocity":0.2677165354330709},{"duration":0.3720930232558146,"midi":65,"time":12.05813953488372,"velocity":0.47244094488188976},{"duration":0.03488372093023173,"midi":82,"time":12.069767441860465,"velocity":0.07086614173228346},{"duration":0.12790697674418716,"midi":68,"time":12.081395348837209,"velocity":0.25196850393700787},{"duration":0.023255813953488413,"midi":31,"time":12.093023255813954,"velocity":0.23622047244094488},{"duration":0.03488372093023173,"midi":94,"time":12.093023255813954,"velocity":0.11811023622047244},{"duration":0.058139534883720145,"midi":60,"time":12.116279069767442,"velocity":0.15748031496062992},{"duration":0.03488372093023351,"midi":41,"time":12.127906976744185,"velocity":0.12598425196850394},{"duration":0.4767441860465116,"midi":75,"time":12.13953488372093,"velocity":0.3700787401574803},{"duration":0.03488372093023173,"midi":82,"time":12.13953488372093,"velocity":0.11811023622047244},{"duration":0.06976744186046524,"midi":78,"time":12.174418604651162,"velocity":0.2125984251968504},{"duration":0.04651162790697683,"midi":83,"time":12.174418604651162,"velocity":0.2047244094488189},{"duration":0.03488372093023351,"midi":85,"time":12.174418604651162,"velocity":0.18110236220472442},{"duration":0.04651162790697683,"midi":86,"time":12.174418604651162,"velocity":0.18110236220472442},{"duration":0.04651162790697683,"midi":48,"time":12.186046511627907,"velocity":0.31496062992125984},{"duration":0.04651162790697683,"midi":71,"time":12.186046511627907,"velocity":0.23622047244094488},{"duration":0.03488372093023173,"midi":91,"time":12.186046511627907,"velocity":0.09448818897637795},{"duration":0.023255813953488413,"midi":41,"time":12.19767441860465,"velocity":0.36220472440944884},{"duration":0.058139534883720145,"midi":84,"time":12.209302325581396,"velocity":0.14173228346456693},{"duration":0.023255813953488413,"midi":40,"time":12.220930232558139,"velocity":0.3937007874015748},{"duration":0.3604651162790695,"midi":72,"time":12.220930232558139,"velocity":0.4015748031496063},{"duration":0.04651162790697683,"midi":82,"time":12.220930232558139,"velocity":0.08661417322834646},{"duration":0.03488372093023351,"midi":97,"time":12.220930232558139,"velocity":0.09448818897637795},{"duration":0.10465116279069697,"midi":68,"time":12.232558139534884,"velocity":0.23622047244094488},{"duration":0.05813953488372192,"midi":79,"time":12.244186046511627,"velocity":0.11811023622047244},{"duration":0.023255813953488413,"midi":41,"time":12.255813953488373,"velocity":0.30708661417322836},{"duration":0.04651162790697683,"midi":97,"time":12.279069767441861,"velocity":0.12598425196850394},{"duration":0.03488372093023351,"midi":30,"time":12.290697674418604,"velocity":0.25984251968503935},{"duration":0.023255813953488413,"midi":58,"time":12.313953488372093,"velocity":0.23622047244094488},{"duration":0.04651162790697683,"midi":83,"time":12.313953488372093,"velocity":0.18110236220472442},{"duration":0.03488372093023351,"midi":86,"time":12.313953488372093,"velocity":0.2047244094488189},{"duration":0.10465116279069697,"midi":53,"time":12.325581395348838,"velocity":0.2992125984251969},{"duration":0.04651162790697683,"midi":78,"time":12.325581395348838,"velocity":0.1889763779527559},{"duration":0.03488372093023351,"midi":91,"time":12.337209302325581,"velocity":0.07086614173228346},{"duration":0.023255813953488413,"midi":40,"time":12.348837209302326,"velocity":0.3543307086614173},{"duration":0.08139534883720856,"midi":48,"time":12.348837209302326,"velocity":0.28346456692913385},{"duration":0.06976744186046524,"midi":68,"time":12.372093023255815,"velocity":0.3464566929133858},{"duration":0.023255813953488413,"midi":31,"time":12.395348837209303,"velocity":0.25984251968503935},{"duration":0.04651162790697683,"midi":30,"time":12.418604651162791,"velocity":0.25196850393700787},{"duration":0.023255813953488413,"midi":41,"time":12.418604651162791,"velocity":0.2677165354330709},{"duration":0.03488372093023351,"midi":63,"time":12.430232558139535,"velocity":0.4251968503937008},{"duration":0.03488372093023351,"midi":66,"time":12.430232558139535,"velocity":0.4330708661417323},{"duration":0.06976744186046524,"midi":97,"time":12.430232558139535,"velocity":0.14960629921259844},{"duration":0.058139534883720145,"midi":81,"time":12.44186046511628,"velocity":0.11811023622047244},{"duration":0.03488372093023173,"midi":82,"time":12.44186046511628,"velocity":0.10236220472440945},{"duration":0.03488372093023173,"midi":85,"time":12.44186046511628,"velocity":0.12598425196850394},{"duration":0.08139534883720856,"midi":89,"time":12.44186046511628,"velocity":0.2440944881889764},{"duration":0.08139534883720856,"midi":90,"time":12.44186046511628,"velocity":0.2992125984251969},{"duration":0.058139534883720145,"midi":91,"time":12.44186046511628,"velocity":0.15748031496062992},{"duration":0.06976744186046346,"midi":94,"time":12.44186046511628,"velocity":0.14173228346456693},{"duration":0.058139534883720145,"midi":95,"time":12.44186046511628,"velocity":0.1732283464566929},{"duration":0.04651162790697683,"midi":96,"time":12.44186046511628,"velocity":0.15748031496062992},{"duration":0.03488372093023173,"midi":98,"time":12.44186046511628,"velocity":0.12598425196850394},{"duration":0.03488372093023173,"midi":100,"time":12.44186046511628,"velocity":0.1732283464566929},{"duration":0.011627906976745095,"midi":53,"time":12.453488372093023,"velocity":0.5196850393700787},{"duration":0.08139534883720856,"midi":68,"time":12.453488372093023,"velocity":0.2125984251968504},{"duration":0.06976744186046524,"midi":88,"time":12.453488372093023,"velocity":0.2047244094488189},{"duration":0.011627906976743319,"midi":45,"time":12.465116279069768,"velocity":0.5196850393700787},{"duration":0.011627906976743319,"midi":51,"time":12.465116279069768,"velocity":0.5118110236220472},{"duration":0.09302325581395188,"midi":65,"time":12.465116279069768,"velocity":0.3779527559055118},{"duration":0.023255813953488413,"midi":44,"time":12.476744186046512,"velocity":0.6141732283464567},{"duration":0.011627906976743319,"midi":43,"time":12.5,"velocity":0.5669291338582677},{"duration":0.011627906976745095,"midi":42,"time":12.511627906976743,"velocity":0.5275590551181102},{"duration":0.023255813953488413,"midi":52,"time":12.511627906976743,"velocity":0.2755905511811024},{"duration":0.03488372093023351,"midi":85,"time":12.511627906976743,"velocity":0.11023622047244094},{"duration":0.03488372093023173,"midi":79,"time":12.546511627906977,"velocity":0.11023622047244094},{"duration":0.11627906976744207,"midi":68,"time":12.55813953488372,"velocity":0.2992125984251969},{"duration":0.05813953488372192,"midi":99,"time":12.55813953488372,"velocity":0.16535433070866143},{"duration":0.023255813953488413,"midi":36,"time":12.569767441860465,"velocity":0.3858267716535433},{"duration":0.09302325581395365,"midi":65,"time":12.569767441860465,"velocity":0.4015748031496063},{"duration":0.08139534883720856,"midi":81,"time":12.569767441860465,"velocity":0.2204724409448819},{"duration":0.03488372093023173,"midi":90,"time":12.569767441860465,"velocity":0.16535433070866143},{"duration":0.12790697674418716,"midi":82,"time":12.581395348837209,"velocity":0.12598425196850394},{"duration":0.03488372093023351,"midi":85,"time":12.581395348837209,"velocity":0.18110236220472442},{"duration":0.04651162790697683,"midi":60,"time":12.593023255813954,"velocity":0.25984251968503935},{"duration":0.10465116279069697,"midi":72,"time":12.593023255813954,"velocity":0.33070866141732286},{"duration":0.06976744186046524,"midi":78,"time":12.593023255813954,"velocity":0.23622047244094488},{"duration":0.09302325581395365,"midi":48,"time":12.604651162790697,"velocity":0.33070866141732286},{"duration":0.03488372093023173,"midi":79,"time":12.616279069767442,"velocity":0.11811023622047244},{"duration":0.03488372093023351,"midi":75,"time":12.627906976744185,"velocity":0.10236220472440945},{"duration":0.3720930232558146,"midi":99,"time":12.627906976744185,"velocity":0.1968503937007874},{"duration":0.023255813953488413,"midi":36,"time":12.63953488372093,"velocity":0.3779527559055118},{"duration":0.023255813953488413,"midi":55,"time":12.651162790697674,"velocity":0.31496062992125984},{"duration":0.05813953488372192,"midi":63,"time":12.674418604651162,"velocity":0.28346456692913385},{"duration":0.06976744186046524,"midi":75,"time":12.674418604651162,"velocity":0.33858267716535434},{"duration":0.08139534883721034,"midi":68,"time":12.69767441860465,"velocity":0.2677165354330709},{"duration":0.023255813953488413,"midi":78,"time":12.69767441860465,"velocity":0.2283464566929134},{"duration":0.05813953488372192,"midi":88,"time":12.69767441860465,"velocity":0.2440944881889764},{"duration":0.11627906976744207,"midi":89,"time":12.69767441860465,"velocity":0.2204724409448819},{"duration":0.04651162790697683,"midi":91,"time":12.69767441860465,"velocity":0.2047244094488189},{"duration":0.04651162790697683,"midi":83,"time":12.709302325581396,"velocity":0.18110236220472442},{"duration":0.03488372093023173,"midi":85,"time":12.709302325581396,"velocity":0.16535433070866143},{"duration":0.03488372093023173,"midi":86,"time":12.709302325581396,"velocity":0.14960629921259844},{"duration":0.023255813953488413,"midi":45,"time":12.720930232558139,"velocity":0.3779527559055118},{"duration":0.1976744186046524,"midi":53,"time":12.720930232558139,"velocity":0.41732283464566927},{"duration":0.10465116279069875,"midi":70,"time":12.720930232558139,"velocity":0.13385826771653545},{"duration":0.03488372093023351,"midi":79,"time":12.720930232558139,"velocity":0.2440944881889764},{"duration":0.04651162790697683,"midi":72,"time":12.732558139534884,"velocity":0.18110236220472442},{"duration":0.10465116279069875,"midi":46,"time":12.744186046511627,"velocity":0.3228346456692913},{"duration":0.22093023255814082,"midi":61,"time":12.744186046511627,"velocity":0.36220472440944884},{"duration":0.023255813953488413,"midi":66,"time":12.744186046511627,"velocity":0.28346456692913385},{"duration":0.023255813953488413,"midi":76,"time":12.744186046511627,"velocity":0.2755905511811024},{"duration":0.4418604651162781,"midi":77,"time":12.755813953488373,"velocity":0.3228346456692913},{"duration":0.12790697674418716,"midi":75,"time":12.767441860465116,"velocity":0.1889763779527559},{"duration":0.7906976744186043,"midi":101,"time":12.767441860465116,"velocity":0.25196850393700787},{"duration":0.058139534883720145,"midi":34,"time":12.779069767441861,"velocity":0.33070866141732286},{"duration":0.03488372093023173,"midi":102,"time":12.779069767441861,"velocity":0.12598425196850394},{"duration":0.10465116279069875,"midi":80,"time":12.837209302325581,"velocity":0.11811023622047244},{"duration":0.04651162790697683,"midi":34,"time":12.848837209302326,"velocity":0.1732283464566929},{"duration":0.12790697674418716,"midi":82,"time":12.86046511627907,"velocity":0.15748031496062992},{"duration":0.04651162790697683,"midi":84,"time":12.86046511627907,"velocity":0.10236220472440945},{"duration":0.04651162790697683,"midi":58,"time":12.895348837209303,"velocity":0.1889763779527559},{"duration":0.03488372093023173,"midi":66,"time":12.895348837209303,"velocity":0.2204724409448819},{"duration":0.10465116279069697,"midi":70,"time":12.895348837209303,"velocity":0.2125984251968504},{"duration":0.04651162790697683,"midi":65,"time":12.930232558139535,"velocity":0.2440944881889764},{"duration":0.023255813953488413,"midi":53,"time":12.965116279069768,"velocity":0.36220472440944884},{"duration":0.03488372093023173,"midi":58,"time":12.965116279069768,"velocity":0.2440944881889764},{"duration":0.011627906976743319,"midi":48,"time":12.988372093023257,"velocity":0.5275590551181102},{"duration":0.25581395348837077,"midi":61,"time":12.988372093023257,"velocity":0.2992125984251969},{"duration":0.011627906976743319,"midi":45,"time":13,"velocity":0.6220472440944882},{"duration":0.011627906976745095,"midi":44,"time":13.011627906976743,"velocity":0.6299212598425197},{"duration":0.04651162790697683,"midi":65,"time":13.011627906976743,"velocity":0.2992125984251969},{"duration":0.5697674418604652,"midi":73,"time":13.011627906976743,"velocity":0.3779527559055118},{"duration":0.011627906976743319,"midi":43,"time":13.023255813953488,"velocity":0.5984251968503937},{"duration":0.011627906976745095,"midi":42,"time":13.034883720930232,"velocity":0.5669291338582677},{"duration":0.03488372093023351,"midi":70,"time":13.034883720930232,"velocity":0.07874015748031496},{"duration":0.03488372093023351,"midi":84,"time":13.034883720930232,"velocity":0.07086614173228346},{"duration":0.03488372093023351,"midi":99,"time":13.034883720930232,"velocity":0.11811023622047244},{"duration":0.011627906976743319,"midi":41,"time":13.046511627906977,"velocity":0.5196850393700787},{"duration":0.03488372093023351,"midi":53,"time":13.05813953488372,"velocity":0.10236220472440945},{"duration":0.04651162790697683,"midi":66,"time":13.05813953488372,"velocity":0.36220472440944884},{"duration":0.09302325581395365,"midi":80,"time":13.05813953488372,"velocity":0.09448818897637795},{"duration":0.023255813953488413,"midi":37,"time":13.081395348837209,"velocity":0.44881889763779526},{"duration":0.41860465116279144,"midi":70,"time":13.081395348837209,"velocity":0.3937007874015748},{"duration":0.12790697674418716,"midi":53,"time":13.104651162790697,"velocity":0.13385826771653545},{"duration":0.41860465116279144,"midi":65,"time":13.104651162790697,"velocity":0.47244094488188976},{"duration":0.023255813953488413,"midi":35,"time":13.116279069767442,"velocity":0.33070866141732286},{"duration":0.03488372093023351,"midi":84,"time":13.151162790697674,"velocity":0.10236220472440945},{"duration":0.05813953488372192,"midi":89,"time":13.220930232558139,"velocity":0.15748031496062992},{"duration":0.023255813953488413,"midi":54,"time":13.232558139534884,"velocity":0.2283464566929134},{"duration":0.06976744186046524,"midi":79,"time":13.232558139534884,"velocity":0.2204724409448819},{"duration":0.058139534883720145,"midi":80,"time":13.232558139534884,"velocity":0.1889763779527559},{"duration":0.04651162790697683,"midi":88,"time":13.232558139534884,"velocity":0.1968503937007874},{"duration":0.03488372093023351,"midi":45,"time":13.244186046511627,"velocity":0.4015748031496063},{"duration":0.06976744186046524,"midi":76,"time":13.244186046511627,"velocity":0.23622047244094488},{"duration":0.04651162790697683,"midi":83,"time":13.244186046511627,"velocity":0.2125984251968504},{"duration":0.23255813953488413,"midi":53,"time":13.255813953488373,"velocity":0.3228346456692913},{"duration":0.058139534883720145,"midi":58,"time":13.255813953488373,"velocity":0.2992125984251969},{"duration":0.023255813953488413,"midi":61,"time":13.255813953488373,"velocity":0.31496062992125984},{"duration":0.03488372093023173,"midi":81,"time":13.255813953488373,"velocity":0.07874015748031496},{"duration":0.04651162790697683,"midi":99,"time":13.279069767441861,"velocity":0.15748031496062992},{"duration":0.06976744186046524,"midi":46,"time":13.290697674418604,"velocity":0.2992125984251969},{"duration":0.08139534883721034,"midi":61,"time":13.290697674418604,"velocity":0.2992125984251969},{"duration":0.11627906976744207,"midi":80,"time":13.30232558139535,"velocity":0.2125984251968504},{"duration":0.04651162790697683,"midi":84,"time":13.30232558139535,"velocity":0.10236220472440945},{"duration":0.05813953488372192,"midi":34,"time":13.313953488372093,"velocity":0.3700787401574803},{"duration":0.058139534883720145,"midi":89,"time":13.348837209302326,"velocity":0.15748031496062992},{"duration":0.04651162790697683,"midi":88,"time":13.36046511627907,"velocity":0.1732283464566929},{"duration":0.03488372093023351,"midi":91,"time":13.36046511627907,"velocity":0.14960629921259844},{"duration":0.04651162790697683,"midi":93,"time":13.36046511627907,"velocity":0.11023622047244094},{"duration":0.06976744186046524,"midi":76,"time":13.372093023255815,"velocity":0.2283464566929134},{"duration":0.058139534883720145,"midi":79,"time":13.372093023255815,"velocity":0.18110236220472442},{"duration":0.03488372093023173,"midi":83,"time":13.372093023255815,"velocity":0.1732283464566929},{"duration":0.023255813953488413,"midi":45,"time":13.383720930232558,"velocity":0.3464566929133858},{"duration":0.023255813953488413,"midi":61,"time":13.383720930232558,"velocity":0.3228346456692913},{"duration":0.04651162790697683,"midi":81,"time":13.383720930232558,"velocity":0.09448818897637795},{"duration":0.04651162790697683,"midi":46,"time":13.406976744186046,"velocity":0.29133858267716534},{"duration":0.023255813953488413,"midi":36,"time":13.418604651162791,"velocity":0.33858267716535434},{"duration":0.05813953488372192,"midi":61,"time":13.430232558139535,"velocity":0.2755905511811024},{"duration":0.058139534883720145,"midi":34,"time":13.44186046511628,"velocity":0.3543307086614173},{"duration":0.09302325581395188,"midi":89,"time":13.488372093023257,"velocity":0.25196850393700787},{"duration":0.08139534883720856,"midi":99,"time":13.488372093023257,"velocity":0.10236220472440945},{"duration":0.058139534883720145,"midi":79,"time":13.5,"velocity":0.1968503937007874},{"duration":0.03488372093023173,"midi":86,"time":13.5,"velocity":0.14960629921259844},{"duration":0.03488372093023173,"midi":91,"time":13.5,"velocity":0.2677165354330709},{"duration":0.03488372093023173,"midi":92,"time":13.5,"velocity":0.16535433070866143},{"duration":0.08139534883720856,"midi":93,"time":13.5,"velocity":0.11811023622047244},{"duration":0.06976744186046524,"midi":94,"time":13.5,"velocity":0.18110236220472442},{"duration":0.08139534883720856,"midi":95,"time":13.5,"velocity":0.14960629921259844},{"duration":0.04651162790697683,"midi":96,"time":13.5,"velocity":0.11811023622047244},{"duration":0.08139534883720856,"midi":97,"time":13.5,"velocity":0.1889763779527559},{"duration":0.03488372093023173,"midi":100,"time":13.5,"velocity":0.14173228346456693},{"duration":0.41860465116279144,"midi":102,"time":13.5,"velocity":0.31496062992125984},{"duration":0.011627906976745095,"midi":53,"time":13.511627906976743,"velocity":0.5433070866141733},{"duration":0.10465116279069875,"midi":70,"time":13.511627906976743,"velocity":0.2047244094488189},{"duration":0.03488372093023351,"midi":81,"time":13.511627906976743,"velocity":0.1968503937007874},{"duration":0.06976744186046524,"midi":90,"time":13.511627906976743,"velocity":0.29133858267716534},{"duration":0.011627906976743319,"midi":47,"time":13.523255813953488,"velocity":0.5511811023622047},{"duration":0.04651162790697683,"midi":76,"time":13.523255813953488,"velocity":0.15748031496062992},{"duration":0.011627906976745095,"midi":45,"time":13.534883720930232,"velocity":0.6220472440944882},{"duration":0.13953488372093048,"midi":65,"time":13.534883720930232,"velocity":0.3700787401574803},{"duration":0.011627906976743319,"midi":44,"time":13.546511627906977,"velocity":0.6062992125984252},{"duration":0.058139534883720145,"midi":58,"time":13.546511627906977,"velocity":0.25984251968503935},{"duration":0.03488372093023173,"midi":84,"time":13.546511627906977,"velocity":0.12598425196850394},{"duration":0.023255813953488413,"midi":42,"time":13.55813953488372,"velocity":0.5590551181102362},{"duration":0.058139534883720145,"midi":61,"time":13.569767441860465,"velocity":0.1889763779527559},{"duration":0.09302325581395365,"midi":92,"time":13.569767441860465,"velocity":0.2283464566929134},{"duration":0.03488372093023351,"midi":53,"time":13.581395348837209,"velocity":0.3543307086614173},{"duration":0.05813953488372192,"midi":68,"time":13.581395348837209,"velocity":0.28346456692913385},{"duration":0.10465116279069875,"midi":85,"time":13.581395348837209,"velocity":0.2440944881889764},{"duration":0.3139534883720927,"midi":73,"time":13.593023255813954,"velocity":0.25984251968503935},{"duration":0.03488372093023351,"midi":37,"time":13.604651162790697,"velocity":0.4566929133858268},{"duration":0.04651162790697683,"midi":101,"time":13.616279069767442,"velocity":0.09448818897637795},{"duration":0.11627906976744207,"midi":70,"time":13.627906976744185,"velocity":0.23622047244094488},{"duration":0.03488372093023351,"midi":90,"time":13.627906976744185,"velocity":0.14173228346456693},{"duration":0.023255813953488413,"midi":36,"time":13.63953488372093,"velocity":0.29133858267716534},{"duration":0.03488372093023173,"midi":76,"time":13.63953488372093,"velocity":0.2047244094488189},{"duration":0.03488372093023173,"midi":99,"time":13.63953488372093,"velocity":0.07086614173228346},{"duration":0.11627906976744207,"midi":48,"time":13.651162790697674,"velocity":0.3228346456692913},{"duration":0.10465116279069875,"midi":78,"time":13.651162790697674,"velocity":0.2204724409448819},{"duration":0.04651162790697683,"midi":81,"time":13.651162790697674,"velocity":0.2204724409448819},{"duration":0.03488372093023173,"midi":55,"time":13.662790697674419,"velocity":0.31496062992125984},{"duration":0.058139534883720145,"midi":64,"time":13.662790697674419,"velocity":0.2283464566929134},{"duration":0.023255813953488413,"midi":38,"time":13.674418604651162,"velocity":0.3464566929133858},{"duration":0.04651162790697683,"midi":36,"time":13.69767441860465,"velocity":0.3858267716535433},{"duration":0.13953488372093048,"midi":100,"time":13.69767441860465,"velocity":0.2047244094488189},{"duration":0.08139534883720856,"midi":55,"time":13.709302325581396,"velocity":0.2992125984251969},{"duration":0.06976744186046524,"midi":66,"time":13.709302325581396,"velocity":0.28346456692913385},{"duration":0.023255813953488413,"midi":61,"time":13.744186046511627,"velocity":0.2440944881889764},{"duration":0.04651162790697683,"midi":36,"time":13.755813953488373,"velocity":0.2283464566929134},{"duration":0.023255813953488413,"midi":60,"time":13.767441860465116,"velocity":0.25196850393700787},{"duration":0.03488372093023351,"midi":68,"time":13.767441860465116,"velocity":0.11023622047244094},{"duration":0.05813953488372192,"midi":77,"time":13.767441860465116,"velocity":0.08661417322834646},{"duration":0.023255813953488413,"midi":48,"time":13.779069767441861,"velocity":0.23622047244094488},{"duration":0.03488372093023173,"midi":65,"time":13.779069767441861,"velocity":0.14960629921259844},{"duration":0.09302325581395365,"midi":70,"time":13.779069767441861,"velocity":0.2677165354330709},{"duration":0.1860465116279073,"midi":101,"time":13.779069767441861,"velocity":0.2992125984251969},{"duration":0.11627906976744207,"midi":92,"time":13.80232558139535,"velocity":0.1732283464566929},{"duration":0.03488372093023351,"midi":61,"time":13.813953488372093,"velocity":0.1889763779527559},{"duration":0.10465116279069697,"midi":65,"time":13.848837209302326,"velocity":0.2992125984251969},{"duration":0.12790697674418539,"midi":99,"time":13.848837209302326,"velocity":0.1732283464566929},{"duration":0.09302325581395365,"midi":89,"time":13.86046511627907,"velocity":0.12598425196850394},{"duration":0.08139534883720856,"midi":58,"time":13.895348837209303,"velocity":0.2440944881889764},{"duration":0.03488372093023173,"midi":79,"time":13.895348837209303,"velocity":0.2047244094488189},{"duration":0.04651162790697683,"midi":83,"time":13.895348837209303,"velocity":0.1968503937007874},{"duration":0.03488372093023173,"midi":86,"time":13.895348837209303,"velocity":0.09448818897637795},{"duration":0.04651162790697683,"midi":88,"time":13.895348837209303,"velocity":0.2283464566929134},{"duration":0.03488372093023173,"midi":91,"time":13.895348837209303,"velocity":0.2283464566929134},{"duration":0.03488372093023351,"midi":45,"time":13.906976744186046,"velocity":0.3779527559055118},{"duration":0.04651162790697683,"midi":68,"time":13.906976744186046,"velocity":0.23622047244094488},{"duration":0.06976744186046524,"midi":76,"time":13.906976744186046,"velocity":0.23622047244094488},{"duration":0.08139534883720856,"midi":53,"time":13.918604651162791,"velocity":0.2677165354330709},{"duration":0.06976744186046524,"midi":62,"time":13.918604651162791,"velocity":0.2440944881889764},{"duration":0.03488372093023173,"midi":81,"time":13.918604651162791,"velocity":0.07874015748031496},{"duration":0.023255813953488413,"midi":38,"time":13.930232558139535,"velocity":0.2755905511811024},{"duration":0.10465116279069697,"midi":73,"time":13.930232558139535,"velocity":0.1889763779527559},{"duration":0.08139534883720856,"midi":46,"time":13.94186046511628,"velocity":0.2992125984251969},{"duration":0.058139534883720145,"midi":66,"time":13.965116279069768,"velocity":0.23622047244094488},{"duration":0.08139534883720856,"midi":97,"time":13.965116279069768,"velocity":0.2677165354330709},{"duration":0.22093023255813904,"midi":102,"time":13.965116279069768,"velocity":0.1889763779527559},{"duration":0.06976744186046524,"midi":34,"time":13.976744186046512,"velocity":0.31496062992125984},{"duration":0.08139534883720856,"midi":61,"time":13.988372093023257,"velocity":0.3858267716535433},{"duration":0.09302325581395188,"midi":92,"time":13.988372093023257,"velocity":0.18110236220472442},{"duration":0.06976744186046346,"midi":95,"time":13.988372093023257,"velocity":0.1732283464566929},{"duration":0.11627906976744029,"midi":101,"time":13.988372093023257,"velocity":0.16535433070866143},{"duration":0.058139534883720145,"midi":90,"time":14,"velocity":0.16535433070866143},{"duration":0.023255813953488413,"midi":68,"time":14.023255813953488,"velocity":0.23622047244094488},{"duration":0.03488372093023173,"midi":72,"time":14.023255813953488,"velocity":0.23622047244094488},{"duration":0.04651162790697683,"midi":81,"time":14.023255813953488,"velocity":0.23622047244094488},{"duration":0.03488372093023173,"midi":87,"time":14.023255813953488,"velocity":0.14173228346456693},{"duration":0.03488372093023173,"midi":88,"time":14.023255813953488,"velocity":0.14173228346456693},{"duration":0.03488372093023173,"midi":94,"time":14.023255813953488,"velocity":0.15748031496062992},{"duration":0.04651162790697683,"midi":76,"time":14.034883720930232,"velocity":0.2047244094488189},{"duration":0.06976744186046524,"midi":82,"time":14.034883720930232,"velocity":0.18110236220472442},{"duration":0.03488372093023351,"midi":96,"time":14.034883720930232,"velocity":0.18110236220472442},{"duration":0.011627906976743319,"midi":48,"time":14.046511627906977,"velocity":0.5433070866141733},{"duration":0.10465116279069697,"midi":69,"time":14.046511627906977,"velocity":0.2047244094488189},{"duration":0.011627906976745095,"midi":45,"time":14.05813953488372,"velocity":0.6141732283464567},{"duration":0.04651162790697683,"midi":66,"time":14.05813953488372,"velocity":0.1889763779527559},{"duration":0.011627906976743319,"midi":44,"time":14.069767441860465,"velocity":0.6377952755905512},{"duration":0.023255813953488413,"midi":42,"time":14.081395348837209,"velocity":0.5905511811023622},{"duration":0.08139534883721034,"midi":61,"time":14.081395348837209,"velocity":0.25196850393700787},{"duration":0.26744186046511764,"midi":89,"time":14.081395348837209,"velocity":0.1968503937007874},{"duration":0.04651162790697683,"midi":58,"time":14.093023255813954,"velocity":0.25196850393700787},{"duration":0.08139534883720856,"midi":80,"time":14.093023255813954,"velocity":0.18110236220472442},{"duration":1.0232558139534884,"midi":97,"time":14.093023255813954,"velocity":0.2440944881889764},{"duration":0.08139534883721034,"midi":95,"time":14.104651162790697,"velocity":0.14173228346456693},{"duration":0.023255813953488413,"midi":52,"time":14.116279069767442,"velocity":0.2992125984251969},{"duration":0.24418604651162745,"midi":73,"time":14.116279069767442,"velocity":0.31496062992125984},{"duration":0.03488372093023173,"midi":77,"time":14.116279069767442,"velocity":0.13385826771653545},{"duration":0.04651162790697683,"midi":66,"time":14.127906976744185,"velocity":0.2755905511811024},{"duration":0.023255813953488413,"midi":36,"time":14.13953488372093,"velocity":0.4251968503937008},{"duration":0.1744186046511622,"midi":70,"time":14.13953488372093,"velocity":0.2677165354330709},{"duration":0.08139534883721034,"midi":58,"time":14.151162790697674,"velocity":0.2204724409448819},{"duration":0.023255813953488413,"midi":37,"time":14.162790697674419,"velocity":0.4251968503937008},{"duration":0.03488372093023173,"midi":54,"time":14.162790697674419,"velocity":0.2677165354330709},{"duration":0.023255813953488413,"midi":66,"time":14.186046511627907,"velocity":0.2992125984251969},{"duration":0.06976744186046524,"midi":77,"time":14.186046511627907,"velocity":0.2283464566929134},{"duration":0.09302325581395365,"midi":80,"time":14.19767441860465,"velocity":0.13385826771653545},{"duration":0.08139534883721034,"midi":61,"time":14.220930232558139,"velocity":0.31496062992125984},{"duration":0.06976744186046524,"midi":66,"time":14.232558139534884,"velocity":0.1732283464566929},{"duration":0.04651162790697683,"midi":54,"time":14.244186046511627,"velocity":0.2047244094488189},{"duration":0.08139534883721034,"midi":78,"time":14.244186046511627,"velocity":0.2204724409448819},{"duration":0.04651162790697683,"midi":76,"time":14.290697674418604,"velocity":0.2283464566929134},{"duration":0.023255813953488413,"midi":81,"time":14.290697674418604,"velocity":0.2283464566929134},{"duration":0.04651162790697683,"midi":95,"time":14.290697674418604,"velocity":0.11023622047244094},{"duration":0.023255813953488413,"midi":45,"time":14.30232558139535,"velocity":0.25984251968503935},{"duration":0.04651162790697683,"midi":84,"time":14.30232558139535,"velocity":0.2283464566929134},{"duration":0.03488372093023173,"midi":92,"time":14.30232558139535,"velocity":0.11811023622047244},{"duration":0.09302325581395365,"midi":69,"time":14.313953488372093,"velocity":0.2440944881889764},{"duration":0.05813953488372192,"midi":72,"time":14.313953488372093,"velocity":0.1968503937007874},{"duration":0.08139534883721034,"midi":80,"time":14.313953488372093,"velocity":0.2047244094488189},{"duration":0.03488372093023351,"midi":102,"time":14.313953488372093,"velocity":0.07086614173228346},{"duration":0.12790697674418539,"midi":77,"time":14.325581395348838,"velocity":0.2992125984251969},{"duration":0.04651162790697683,"midi":82,"time":14.325581395348838,"velocity":0.18110236220472442},{"duration":0.05813953488372192,"midi":61,"time":14.337209302325581,"velocity":0.23622047244094488},{"duration":0.22093023255813904,"midi":66,"time":14.337209302325581,"velocity":0.3937007874015748},{"duration":0.3720930232558146,"midi":73,"time":14.383720930232558,"velocity":0.29133858267716534},{"duration":0.05813953488372192,"midi":61,"time":14.406976744186046,"velocity":0.29133858267716534},{"duration":0.023255813953488413,"midi":54,"time":14.418604651162791,"velocity":0.25196850393700787},{"duration":0.03488372093023173,"midi":79,"time":14.418604651162791,"velocity":0.15748031496062992},{"duration":0.03488372093023173,"midi":82,"time":14.418604651162791,"velocity":0.2047244094488189},{"duration":0.023255813953488413,"midi":81,"time":14.430232558139535,"velocity":0.23622047244094488},{"duration":0.03488372093023351,"midi":84,"time":14.430232558139535,"velocity":0.1889763779527559},{"duration":0.03488372093023173,"midi":38,"time":14.44186046511628,"velocity":0.36220472440944884},{"duration":0.04651162790697683,"midi":76,"time":14.44186046511628,"velocity":0.1732283464566929},{"duration":0.09302325581395365,"midi":70,"time":14.453488372093023,"velocity":0.2755905511811024},{"duration":0.08139534883720856,"midi":80,"time":14.453488372093023,"velocity":0.16535433070866143},{"duration":0.03488372093023173,"midi":89,"time":14.488372093023257,"velocity":0.10236220472440945},{"duration":0.058139534883720145,"midi":77,"time":14.5,"velocity":0.28346456692913385},{"duration":0.023255813953488413,"midi":55,"time":14.511627906976743,"velocity":0.2283464566929134},{"duration":0.04651162790697683,"midi":61,"time":14.511627906976743,"velocity":0.2992125984251969},{"duration":0.12790697674418539,"midi":95,"time":14.523255813953488,"velocity":0.18110236220472442},{"duration":0.03488372093023173,"midi":82,"time":14.546511627906977,"velocity":0.11811023622047244},{"duration":0.06976744186046524,"midi":92,"time":14.546511627906977,"velocity":0.18110236220472442},{"duration":0.06976744186046524,"midi":96,"time":14.546511627906977,"velocity":0.15748031496062992},{"duration":0.058139534883720145,"midi":99,"time":14.546511627906977,"velocity":0.16535433070866143},{"duration":0.06976744186046524,"midi":101,"time":14.546511627906977,"velocity":0.15748031496062992},{"duration":0.08139534883720856,"midi":103,"time":14.546511627906977,"velocity":0.1968503937007874},{"duration":0.023255813953488413,"midi":67,"time":14.55813953488372,"velocity":0.3937007874015748},{"duration":0.023255813953488413,"midi":78,"time":14.55813953488372,"velocity":0.2677165354330709},{"duration":0.08139534883721034,"midi":88,"time":14.55813953488372,"velocity":0.2283464566929134},{"duration":0.08139534883721034,"midi":89,"time":14.55813953488372,"velocity":0.2204724409448819},{"duration":0.04651162790697683,"midi":93,"time":14.55813953488372,"velocity":0.1732283464566929},{"duration":0.08139534883721034,"midi":94,"time":14.55813953488372,"velocity":0.1889763779527559},{"duration":0.03488372093023351,"midi":98,"time":14.55813953488372,"velocity":0.15748031496062992},{"duration":0.03488372093023351,"midi":102,"time":14.55813953488372,"velocity":0.1889763779527559},{"duration":0.023255813953488413,"midi":45,"time":14.569767441860465,"velocity":0.5511811023622047},{"duration":0.25581395348837255,"midi":70,"time":14.569767441860465,"velocity":0.31496062992125984},{"duration":0.27906976744186096,"midi":77,"time":14.569767441860465,"velocity":0.3700787401574803},{"duration":0.12790697674418539,"midi":80,"time":14.569767441860465,"velocity":0.1968503937007874},{"duration":0.023255813953488413,"midi":91,"time":14.569767441860465,"velocity":0.25984251968503935},{"duration":0.06976744186046524,"midi":61,"time":14.581395348837209,"velocity":0.31496062992125984},{"duration":0.12790697674418716,"midi":66,"time":14.581395348837209,"velocity":0.2125984251968504},{"duration":0.04651162790697683,"midi":90,"time":14.581395348837209,"velocity":0.16535433070866143},{"duration":0.011627906976743319,"midi":44,"time":14.593023255813954,"velocity":0.6062992125984252},{"duration":0.03488372093023173,"midi":83,"time":14.593023255813954,"velocity":0.13385826771653545},{"duration":0.011627906976745095,"midi":43,"time":14.604651162790697,"velocity":0.5826771653543307},{"duration":0.011627906976743319,"midi":42,"time":14.616279069767442,"velocity":0.5748031496062992},{"duration":0.011627906976745095,"midi":41,"time":14.627906976744185,"velocity":0.5275590551181102},{"duration":0.03488372093023173,"midi":53,"time":14.63953488372093,"velocity":0.31496062992125984},{"duration":0.04651162790697683,"midi":90,"time":14.674418604651162,"velocity":0.2125984251968504},{"duration":0.05813953488372192,"midi":93,"time":14.674418604651162,"velocity":0.2204724409448819},{"duration":0.023255813953488413,"midi":36,"time":14.686046511627907,"velocity":0.3937007874015748},{"duration":0.10465116279069697,"midi":55,"time":14.686046511627907,"velocity":0.2992125984251969},{"duration":0.03488372093023351,"midi":60,"time":14.69767441860465,"velocity":0.25196850393700787},{"duration":0.04651162790697683,"midi":81,"time":14.69767441860465,"velocity":0.25984251968503935},{"duration":0.023255813953488413,"midi":65,"time":14.709302325581396,"velocity":0.25984251968503935},{"duration":0.03488372093023173,"midi":83,"time":14.709302325581396,"velocity":0.11023622047244094},{"duration":0.09302325581395365,"midi":48,"time":14.720930232558139,"velocity":0.33070866141732286},{"duration":0.03488372093023173,"midi":61,"time":14.732558139534884,"velocity":0.2677165354330709},{"duration":0.04651162790697683,"midi":36,"time":14.744186046511627,"velocity":0.3779527559055118},{"duration":0.05813953488372192,"midi":80,"time":14.744186046511627,"velocity":0.15748031496062992},{"duration":0.06976744186046524,"midi":73,"time":14.767441860465116,"velocity":0.29133858267716534},{"duration":0.04651162790697683,"midi":61,"time":14.779069767441861,"velocity":0.29133858267716534},{"duration":0.04651162790697683,"midi":83,"time":14.813953488372093,"velocity":0.18110236220472442},{"duration":0.03488372093023351,"midi":90,"time":14.813953488372093,"velocity":0.16535433070866143},{"duration":0.05813953488372192,"midi":91,"time":14.813953488372093,"velocity":0.1968503937007874},{"duration":0.03488372093023351,"midi":92,"time":14.813953488372093,"velocity":0.1732283464566929},{"duration":0.023255813953488413,"midi":62,"time":14.825581395348838,"velocity":0.2755905511811024},{"duration":0.06976744186046524,"midi":79,"time":14.825581395348838,"velocity":0.2125984251968504},{"duration":0.04651162790697683,"midi":81,"time":14.825581395348838,"velocity":0.14960629921259844},{"duration":0.06976744186046524,"midi":88,"time":14.825581395348838,"velocity":0.1732283464566929},{"duration":0.023255813953488413,"midi":45,"time":14.837209302325581,"velocity":0.36220472440944884},{"duration":0.11627906976744207,"midi":68,"time":14.837209302325581,"velocity":0.2125984251968504},{"duration":0.05813953488372192,"midi":82,"time":14.837209302325581,"velocity":0.14960629921259844},{"duration":0.06976744186046524,"midi":87,"time":14.837209302325581,"velocity":0.1968503937007874},{"duration":0.023255813953488413,"midi":53,"time":14.848837209302326,"velocity":0.33858267716535434},{"duration":0.2790697674418592,"midi":84,"time":14.848837209302326,"velocity":0.2125984251968504},{"duration":0.10465116279069875,"midi":46,"time":14.86046511627907,"velocity":0.31496062992125984},{"duration":0.03488372093023351,"midi":66,"time":14.86046511627907,"velocity":0.2440944881889764},{"duration":0.03488372093023351,"midi":73,"time":14.86046511627907,"velocity":0.13385826771653545},{"duration":0.22093023255813904,"midi":75,"time":14.86046511627907,"velocity":0.23622047244094488},{"duration":0.12790697674418539,"midi":63,"time":14.872093023255815,"velocity":0.33858267716535434},{"duration":0.058139534883720145,"midi":34,"time":14.895348837209303,"velocity":0.36220472440944884},{"duration":0.04651162790697683,"midi":53,"time":14.895348837209303,"velocity":0.29133858267716534},{"duration":0.023255813953488413,"midi":61,"time":14.895348837209303,"velocity":0.2677165354330709},{"duration":0.22093023255813904,"midi":99,"time":14.895348837209303,"velocity":0.28346456692913385},{"duration":0.06976744186046524,"midi":72,"time":14.918604651162791,"velocity":0.2283464566929134},{"duration":0.04651162790697505,"midi":34,"time":14.965116279069768,"velocity":0.2204724409448819},{"duration":0.03488372093023173,"midi":91,"time":14.965116279069768,"velocity":0.07874015748031496},{"duration":0.03488372093023173,"midi":77,"time":14.976744186046512,"velocity":0.07086614173228346},{"duration":0.04651162790697505,"midi":68,"time":14.988372093023257,"velocity":0.07086614173228346},{"duration":0.06976744186046346,"midi":94,"time":14.988372093023257,"velocity":0.14173228346456693},{"duration":0.1744186046511622,"midi":80,"time":15,"velocity":0.16535433070866143},{"duration":0.5465116279069768,"midi":63,"time":15.011627906976743,"velocity":0.3700787401574803},{"duration":0.3372093023255829,"midi":72,"time":15.011627906976743,"velocity":0.2677165354330709},{"duration":0.06976744186046524,"midi":82,"time":15.023255813953488,"velocity":0.1968503937007874},{"duration":0.09302325581395365,"midi":91,"time":15.034883720930232,"velocity":0.2047244094488189},{"duration":0.058139534883720145,"midi":101,"time":15.046511627906977,"velocity":0.08661417322834646},{"duration":0.1860465116279073,"midi":68,"time":15.081395348837209,"velocity":0.25196850393700787},{"duration":0.05813953488372192,"midi":74,"time":15.081395348837209,"velocity":0.2440944881889764},{"duration":0.04651162790697683,"midi":86,"time":15.081395348837209,"velocity":0.2677165354330709},{"duration":0.023255813953488413,"midi":88,"time":15.081395348837209,"velocity":0.2283464566929134},{"duration":0.03488372093023351,"midi":95,"time":15.081395348837209,"velocity":0.2204724409448819},{"duration":0.03488372093023173,"midi":60,"time":15.093023255813954,"velocity":0.25984251968503935},{"duration":0.5813953488372086,"midi":75,"time":15.093023255813954,"velocity":0.4330708661417323},{"duration":0.058139534883720145,"midi":78,"time":15.093023255813954,"velocity":0.18110236220472442},{"duration":0.04651162790697683,"midi":81,"time":15.093023255813954,"velocity":0.18110236220472442},{"duration":0.03488372093023173,"midi":89,"time":15.093023255813954,"velocity":0.2755905511811024},{"duration":0.011627906976745095,"midi":48,"time":15.104651162790697,"velocity":0.5354330708661418},{"duration":0.04651162790697683,"midi":66,"time":15.104651162790697,"velocity":0.18110236220472442},{"duration":0.04651162790697683,"midi":70,"time":15.104651162790697,"velocity":0.09448818897637795},{"duration":0.03488372093023351,"midi":77,"time":15.104651162790697,"velocity":0.1968503937007874},{"duration":0.011627906976743319,"midi":46,"time":15.116279069767442,"velocity":0.5826771653543307},{"duration":0.011627906976745095,"midi":44,"time":15.127906976744185,"velocity":0.5905511811023622},{"duration":0.05813953488372192,"midi":82,"time":15.127906976744185,"velocity":0.09448818897637795},{"duration":0.023255813953488413,"midi":42,"time":15.13953488372093,"velocity":0.5905511811023622},{"duration":0.8139534883720927,"midi":99,"time":15.13953488372093,"velocity":0.25984251968503935},{"duration":0.11627906976744207,"midi":51,"time":15.151162790697674,"velocity":0.33070866141732286},{"duration":0.011627906976743319,"midi":41,"time":15.162790697674419,"velocity":0.5433070866141733},{"duration":0.04651162790697683,"midi":56,"time":15.174418604651162,"velocity":0.18110236220472442},{"duration":0.023255813953488413,"midi":39,"time":15.186046511627907,"velocity":0.4330708661417323},{"duration":0.04651162790697683,"midi":97,"time":15.19767441860465,"velocity":0.08661417322834646},{"duration":0.023255813953488413,"midi":35,"time":15.220930232558139,"velocity":0.4409448818897638},{"duration":0.12790697674418539,"midi":70,"time":15.232558139534884,"velocity":0.12598425196850394},{"duration":0.11627906976744207,"midi":82,"time":15.232558139534884,"velocity":0.16535433070866143},{"duration":0.023255813953488413,"midi":34,"time":15.244186046511627,"velocity":0.25984251968503935},{"duration":0.03488372093023173,"midi":44,"time":15.255813953488373,"velocity":0.09448818897637795},{"duration":0.04651162790697683,"midi":68,"time":15.30232558139535,"velocity":0.08661417322834646},{"duration":0.03488372093023351,"midi":97,"time":15.313953488372093,"velocity":0.10236220472440945},{"duration":0.058139534883720145,"midi":91,"time":15.325581395348838,"velocity":0.11811023622047244},{"duration":0.023255813953488413,"midi":52,"time":15.348837209302326,"velocity":0.2440944881889764},{"duration":0.04651162790697683,"midi":77,"time":15.348837209302326,"velocity":0.25196850393700787},{"duration":0.058139534883720145,"midi":86,"time":15.348837209302326,"velocity":0.25196850393700787},{"duration":0.04651162790697683,"midi":89,"time":15.348837209302326,"velocity":0.25984251968503935},{"duration":0.03488372093023173,"midi":90,"time":15.348837209302326,"velocity":0.12598425196850394},{"duration":0.05813953488372192,"midi":66,"time":15.36046511627907,"velocity":0.2047244094488189},{"duration":0.04651162790697683,"midi":74,"time":15.36046511627907,"velocity":0.25984251968503935},{"duration":0.06976744186046524,"midi":78,"time":15.36046511627907,"velocity":0.23622047244094488},{"duration":0.04651162790697683,"midi":81,"time":15.36046511627907,"velocity":0.2283464566929134},{"duration":0.1744186046511622,"midi":44,"time":15.372093023255815,"velocity":0.4094488188976378},{"duration":0.1511627906976738,"midi":51,"time":15.372093023255815,"velocity":0.3228346456692913},{"duration":0.03488372093023173,"midi":57,"time":15.372093023255815,"velocity":0.2204724409448819},{"duration":0.604651162790697,"midi":72,"time":15.372093023255815,"velocity":0.30708661417322836},{"duration":0.06976744186046524,"midi":60,"time":15.383720930232558,"velocity":0.23622047244094488},{"duration":0.06976744186046524,"midi":70,"time":15.395348837209303,"velocity":0.18110236220472442},{"duration":0.09302325581395365,"midi":79,"time":15.395348837209303,"velocity":0.09448818897637795},{"duration":0.19767441860465063,"midi":68,"time":15.406976744186046,"velocity":0.2992125984251969},{"duration":0.03488372093023351,"midi":77,"time":15.406976744186046,"velocity":0.11811023622047244},{"duration":0.023255813953488413,"midi":33,"time":15.430232558139535,"velocity":0.2992125984251969},{"duration":0.09302325581395365,"midi":32,"time":15.453488372093023,"velocity":0.30708661417322836},{"duration":0.03488372093023351,"midi":97,"time":15.453488372093023,"velocity":0.12598425196850394},{"duration":0.03488372093023173,"midi":78,"time":15.476744186046512,"velocity":0.12598425196850394},{"duration":0.04651162790697683,"midi":79,"time":15.523255813953488,"velocity":0.07086614173228346},{"duration":0.09302325581395365,"midi":97,"time":15.569767441860465,"velocity":0.14960629921259844},{"duration":0.05813953488372192,"midi":82,"time":15.581395348837209,"velocity":0.14173228346456693},{"duration":0.1511627906976738,"midi":63,"time":15.593023255813954,"velocity":0.4251968503937008},{"duration":0.023255813953488413,"midi":55,"time":15.604651162790697,"velocity":0.47244094488188976},{"duration":0.04651162790697683,"midi":79,"time":15.604651162790697,"velocity":0.1732283464566929},{"duration":0.09302325581395365,"midi":101,"time":15.604651162790697,"velocity":0.2283464566929134},{"duration":0.09302325581395365,"midi":102,"time":15.604651162790697,"velocity":0.1968503937007874},{"duration":0.09302325581395365,"midi":89,"time":15.616279069767442,"velocity":0.2283464566929134},{"duration":0.058139534883720145,"midi":90,"time":15.616279069767442,"velocity":0.29133858267716534},{"duration":0.04651162790697683,"midi":93,"time":15.616279069767442,"velocity":0.13385826771653545},{"duration":0.06976744186046524,"midi":94,"time":15.616279069767442,"velocity":0.1732283464566929},{"duration":0.06976744186046524,"midi":95,"time":15.616279069767442,"velocity":0.1732283464566929},{"duration":0.058139534883720145,"midi":96,"time":15.616279069767442,"velocity":0.18110236220472442},{"duration":0.03488372093023173,"midi":100,"time":15.616279069767442,"velocity":0.2047244094488189},{"duration":0.023255813953488413,"midi":45,"time":15.627906976744185,"velocity":0.5590551181102362},{"duration":0.011627906976745095,"midi":53,"time":15.627906976744185,"velocity":0.5196850393700787},{"duration":0.06976744186046524,"midi":88,"time":15.627906976744185,"velocity":0.25196850393700787},{"duration":0.03488372093023351,"midi":98,"time":15.627906976744185,"velocity":0.12598425196850394},{"duration":0.03488372093023173,"midi":81,"time":15.63953488372093,"velocity":0.13385826771653545},{"duration":0.023255813953488413,"midi":44,"time":15.651162790697674,"velocity":0.6141732283464567},{"duration":0.3372093023255829,"midi":68,"time":15.651162790697674,"velocity":0.33858267716535434},{"duration":0.03488372093023351,"midi":83,"time":15.651162790697674,"velocity":0.13385826771653545},{"duration":0.011627906976745095,"midi":42,"time":15.674418604651162,"velocity":0.5669291338582677},{"duration":0.04651162790697683,"midi":85,"time":15.674418604651162,"velocity":0.13385826771653545},{"duration":0.011627906976743319,"midi":41,"time":15.686046511627907,"velocity":0.5196850393700787},{"duration":0.023255813953488413,"midi":53,"time":15.709302325581396,"velocity":0.23622047244094488},{"duration":0.023255813953488413,"midi":37,"time":15.720930232558139,"velocity":0.4566929133858268},{"duration":0.058139534883720145,"midi":92,"time":15.732558139534884,"velocity":0.13385826771653545},{"duration":0.023255813953488413,"midi":36,"time":15.744186046511627,"velocity":0.3937007874015748},{"duration":0.03488372093023351,"midi":60,"time":15.744186046511627,"velocity":0.2047244094488189},{"duration":0.023255813953488413,"midi":35,"time":15.767441860465116,"velocity":0.2677165354330709},{"duration":0.023255813953488413,"midi":56,"time":15.767441860465116,"velocity":0.2992125984251969},{"duration":0.25581395348837077,"midi":63,"time":15.767441860465116,"velocity":0.31496062992125984},{"duration":0.08139534883721034,"midi":92,"time":15.813953488372093,"velocity":0.09448818897637795},{"duration":0.03488372093023173,"midi":51,"time":15.825581395348838,"velocity":0.11023622047244094},{"duration":0.04651162790697683,"midi":82,"time":15.848837209302326,"velocity":0.11811023622047244},{"duration":0.058139534883720145,"midi":77,"time":15.872093023255815,"velocity":0.2204724409448819},{"duration":0.03488372093023351,"midi":60,"time":15.883720930232558,"velocity":0.2283464566929134},{"duration":0.05813953488372192,"midi":81,"time":15.883720930232558,"velocity":0.2125984251968504},{"duration":0.04651162790697683,"midi":86,"time":15.883720930232558,"velocity":0.2204724409448819},{"duration":0.03488372093023351,"midi":89,"time":15.883720930232558,"velocity":0.23622047244094488},{"duration":0.04651162790697683,"midi":66,"time":15.906976744186046,"velocity":0.1968503937007874},{"duration":0.09302325581395365,"midi":44,"time":15.918604651162791,"velocity":0.3543307086614173},{"duration":0.06976744186046524,"midi":51,"time":15.918604651162791,"velocity":0.28346456692913385},{"duration":0.06976744186046524,"midi":94,"time":15.918604651162791,"velocity":0.09448818897637795},{"duration":0.058139534883720145,"midi":32,"time":15.976744186046512,"velocity":0.29133858267716534},{"duration":0.04651162790697505,"midi":52,"time":15.988372093023257,"velocity":0.2204724409448819},{"duration":0.034883720930229956,"midi":60,"time":15.988372093023257,"velocity":0.2125984251968504},{"duration":0.16279069767441712,"midi":68,"time":16,"velocity":0.33858267716535434},{"duration":0.11627906976744029,"midi":72,"time":16,"velocity":0.2677165354330709},{"duration":0.03488372093023173,"midi":82,"time":16,"velocity":0.09448818897637795},{"duration":0.03488372093023173,"midi":88,"time":16,"velocity":0.14960629921259844},{"duration":0.023255813953486637,"midi":45,"time":16.011627906976745,"velocity":0.2992125984251969},{"duration":0.08139534883720856,"midi":77,"time":16.011627906976745,"velocity":0.2283464566929134},{"duration":0.05813953488371837,"midi":81,"time":16.011627906976745,"velocity":0.2125984251968504},{"duration":0.04651162790697683,"midi":86,"time":16.011627906976745,"velocity":0.2125984251968504},{"duration":0.03488372093023173,"midi":89,"time":16.011627906976745,"velocity":0.2283464566929134},{"duration":0.034883720930235285,"midi":66,"time":16.023255813953487,"velocity":0.1889763779527559},{"duration":0.08139534883721211,"midi":74,"time":16.023255813953487,"velocity":0.25196850393700787},{"duration":0.05813953488372192,"midi":78,"time":16.023255813953487,"velocity":0.1889763779527559},{"duration":0.034883720930235285,"midi":91,"time":16.023255813953487,"velocity":0.11023622047244094},{"duration":0.11627906976744384,"midi":44,"time":16.03488372093023,"velocity":0.3858267716535433},{"duration":0.10465116279069875,"midi":60,"time":16.03488372093023,"velocity":0.2992125984251969},{"duration":0.12790697674418539,"midi":63,"time":16.03488372093023,"velocity":0.29133858267716534},{"duration":0.11627906976744029,"midi":51,"time":16.046511627906977,"velocity":0.4409448818897638},{"duration":0.4883720930232549,"midi":75,"time":16.058139534883722,"velocity":0.33858267716535434},{"duration":0.02325581395349019,"midi":34,"time":16.069767441860463,"velocity":0.2992125984251969},{"duration":0.023255813953486637,"midi":33,"time":16.093023255813954,"velocity":0.31496062992125984},{"duration":0.06976744186046346,"midi":99,"time":16.1046511627907,"velocity":0.18110236220472442},{"duration":0.034883720930235285,"midi":32,"time":16.11627906976744,"velocity":0.31496062992125984},{"duration":0.08139534883720856,"midi":78,"time":16.13953488372093,"velocity":0.14960629921259844},{"duration":0.03488372093023173,"midi":83,"time":16.151162790697676,"velocity":0.1732283464566929},{"duration":0.011627906976745095,"midi":48,"time":16.162790697674417,"velocity":0.5511811023622047},{"duration":0.09302325581395365,"midi":71,"time":16.162790697674417,"velocity":0.14960629921259844},{"duration":0.011627906976745095,"midi":45,"time":16.174418604651162,"velocity":0.6299212598425197},{"duration":0.011627906976745095,"midi":44,"time":16.186046511627907,"velocity":0.6299212598425197},{"duration":0.023255813953486637,"midi":42,"time":16.197674418604652,"velocity":0.6141732283464567},{"duration":0.11627906976744029,"midi":60,"time":16.197674418604652,"velocity":0.18110236220472442},{"duration":0.011627906976745095,"midi":41,"time":16.22093023255814,"velocity":0.5433070866141733},{"duration":0.011627906976745095,"midi":40,"time":16.232558139534884,"velocity":0.5118110236220472},{"duration":0.1744186046511622,"midi":63,"time":16.232558139534884,"velocity":0.1732283464566929},{"duration":0.1860465116279073,"midi":68,"time":16.232558139534884,"velocity":0.25984251968503935},{"duration":0.10465116279069875,"midi":56,"time":16.313953488372093,"velocity":0.25196850393700787},{"duration":0.034883720930235285,"midi":41,"time":16.348837209302324,"velocity":0.12598425196850394},{"duration":0.034883720930235285,"midi":84,"time":16.3953488372093,"velocity":0.18110236220472442},{"duration":0.06976744186046702,"midi":78,"time":16.406976744186046,"velocity":0.23622047244094488},{"duration":0.05813953488372192,"midi":83,"time":16.406976744186046,"velocity":0.2283464566929134},{"duration":0.04651162790697683,"midi":86,"time":16.406976744186046,"velocity":0.2047244094488189},{"duration":0.10465116279069875,"midi":89,"time":16.406976744186046,"velocity":0.18110236220472442},{"duration":0.023255813953486637,"midi":48,"time":16.41860465116279,"velocity":0.29133858267716534},{"duration":0.16279069767441712,"midi":61,"time":16.41860465116279,"velocity":0.2755905511811024},{"duration":0.09302325581395365,"midi":65,"time":16.41860465116279,"velocity":0.2047244094488189},{"duration":0.09302325581395365,"midi":71,"time":16.41860465116279,"velocity":0.2283464566929134},{"duration":0.023255813953486637,"midi":41,"time":16.430232558139537,"velocity":0.3779527559055118},{"duration":0.24418604651162568,"midi":80,"time":16.430232558139537,"velocity":0.2992125984251969},{"duration":0.04651162790697683,"midi":57,"time":16.441860465116278,"velocity":0.3543307086614173},{"duration":0.02325581395349019,"midi":40,"time":16.453488372093023,"velocity":0.4015748031496063},{"duration":0.08139534883720856,"midi":85,"time":16.476744186046513,"velocity":0.2677165354330709},{"duration":0.02325581395349019,"midi":41,"time":16.488372093023255,"velocity":0.30708661417322836},{"duration":0.10465116279069875,"midi":56,"time":16.488372093023255,"velocity":0.4015748031496063},{"duration":0.05813953488372192,"midi":84,"time":16.5,"velocity":0.2440944881889764},{"duration":0.034883720930235285,"midi":30,"time":16.523255813953487,"velocity":0.2677165354330709},{"duration":0.05813953488372192,"midi":83,"time":16.53488372093023,"velocity":0.2204724409448819},{"duration":0.04651162790697683,"midi":90,"time":16.53488372093023,"velocity":0.11023622047244094},{"duration":0.11627906976744029,"midi":77,"time":16.546511627906977,"velocity":0.2677165354330709},{"duration":0.05813953488372192,"midi":78,"time":16.546511627906977,"velocity":0.23622047244094488},{"duration":0.05813953488372192,"midi":87,"time":16.546511627906977,"velocity":0.16535433070866143},{"duration":0.1046511627906952,"midi":48,"time":16.558139534883722,"velocity":0.2992125984251969},{"duration":0.08139534883720856,"midi":71,"time":16.558139534883722,"velocity":0.23622047244094488},{"duration":0.03488372093023173,"midi":75,"time":16.558139534883722,"velocity":0.23622047244094488},{"duration":0.034883720930235285,"midi":85,"time":16.569767441860463,"velocity":0.07874015748031496},{"duration":0.02325581395349019,"midi":40,"time":16.58139534883721,"velocity":0.3700787401574803},{"duration":0.02325581395349019,"midi":53,"time":16.58139534883721,"velocity":0.2755905511811024},{"duration":0.02325581395349019,"midi":74,"time":16.58139534883721,"velocity":0.2283464566929134},{"duration":0.15116279069767202,"midi":73,"time":16.6046511627907,"velocity":0.29133858267716534},{"duration":0.02325581395349019,"midi":31,"time":16.61627906976744,"velocity":0.2992125984251969},{"duration":0.02325581395349019,"midi":56,"time":16.61627906976744,"velocity":0.23622047244094488},{"duration":0.03488372093023173,"midi":41,"time":16.627906976744185,"velocity":0.28346456692913385},{"duration":0.03488372093023173,"midi":30,"time":16.651162790697676,"velocity":0.25196850393700787},{"duration":0.034883720930235285,"midi":79,"time":16.662790697674417,"velocity":0.14960629921259844},{"duration":0.034883720930235285,"midi":99,"time":16.662790697674417,"velocity":0.1889763779527559},{"duration":0.034883720930235285,"midi":100,"time":16.662790697674417,"velocity":0.10236220472440945},{"duration":0.04651162790697683,"midi":102,"time":16.662790697674417,"velocity":0.2047244094488189},{"duration":0.02325581395349019,"midi":61,"time":16.674418604651162,"velocity":0.4330708661417323},{"duration":0.02325581395349019,"midi":67,"time":16.674418604651162,"velocity":0.36220472440944884},{"duration":0.08139534883720856,"midi":87,"time":16.674418604651162,"velocity":0.1889763779527559},{"duration":0.08139534883720856,"midi":88,"time":16.674418604651162,"velocity":0.25196850393700787},{"duration":0.08139534883720856,"midi":90,"time":16.674418604651162,"velocity":0.28346456692913385},{"duration":0.05813953488372192,"midi":91,"time":16.674418604651162,"velocity":0.1732283464566929},{"duration":0.05813953488372192,"midi":93,"time":16.674418604651162,"velocity":0.12598425196850394},{"duration":0.09302325581395365,"midi":95,"time":16.674418604651162,"velocity":0.14960629921259844},{"duration":0.04651162790697683,"midi":97,"time":16.674418604651162,"velocity":0.16535433070866143},{"duration":0.03488372093023173,"midi":98,"time":16.674418604651162,"velocity":0.07086614173228346},{"duration":0.05813953488372192,"midi":101,"time":16.674418604651162,"velocity":0.14173228346456693},{"duration":0.09302325581395365,"midi":103,"time":16.674418604651162,"velocity":0.18110236220472442},{"duration":0.011627906976745095,"midi":53,"time":16.686046511627907,"velocity":0.5275590551181102},{"duration":0.03488372093023173,"midi":75,"time":16.686046511627907,"velocity":0.07086614173228346},{"duration":0.5697674418604635,"midi":80,"time":16.686046511627907,"velocity":0.30708661417322836},{"duration":0.05813953488372192,"midi":83,"time":16.686046511627907,"velocity":0.14173228346456693},{"duration":0.20930232558139394,"midi":89,"time":16.686046511627907,"velocity":0.1732283464566929},{"duration":0.05813953488372192,"midi":94,"time":16.686046511627907,"velocity":0.11811023622047244},{"duration":0.011627906976741542,"midi":45,"time":16.697674418604652,"velocity":0.5511811023622047},{"duration":0.02325581395349019,"midi":44,"time":16.709302325581394,"velocity":0.6220472440944882},{"duration":0.08139534883721211,"midi":61,"time":16.709302325581394,"velocity":0.16535433070866143},{"duration":0.5116279069767451,"midi":65,"time":16.709302325581394,"velocity":0.33070866141732286},{"duration":0.12790697674418894,"midi":68,"time":16.709302325581394,"velocity":0.2125984251968504},{"duration":0.011627906976745095,"midi":42,"time":16.732558139534884,"velocity":0.5669291338582677},{"duration":0.06976744186046346,"midi":84,"time":16.732558139534884,"velocity":0.12598425196850394},{"duration":0.011627906976741542,"midi":41,"time":16.74418604651163,"velocity":0.5118110236220472},{"duration":0.023255813953486637,"midi":52,"time":16.74418604651163,"velocity":0.29133858267716534},{"duration":0.12790697674418539,"midi":93,"time":16.74418604651163,"velocity":0.2440944881889764},{"duration":0.05813953488371837,"midi":74,"time":16.790697674418606,"velocity":0.1732283464566929},{"duration":0.04651162790697683,"midi":90,"time":16.790697674418606,"velocity":0.1889763779527559},{"duration":0.034883720930235285,"midi":99,"time":16.802325581395348,"velocity":0.10236220472440945},{"duration":0.02325581395349019,"midi":47,"time":16.813953488372093,"velocity":0.33858267716535434},{"duration":0.05813953488372192,"midi":70,"time":16.813953488372093,"velocity":0.1889763779527559},{"duration":0.08139534883720856,"midi":72,"time":16.813953488372093,"velocity":0.15748031496062992},{"duration":0.06976744186046346,"midi":55,"time":16.825581395348838,"velocity":0.2755905511811024},{"duration":0.05813953488372192,"midi":60,"time":16.825581395348838,"velocity":0.2440944881889764},{"duration":0.13953488372093048,"midi":91,"time":16.825581395348838,"velocity":0.2047244094488189},{"duration":0.06976744186046346,"midi":48,"time":16.837209302325583,"velocity":0.33070866141732286},{"duration":0.11627906976744029,"midi":75,"time":16.837209302325583,"velocity":0.2992125984251969},{"duration":0.05813953488372192,"midi":36,"time":16.872093023255815,"velocity":0.36220472440944884},{"duration":0.04651162790697683,"midi":61,"time":16.88372093023256,"velocity":0.16535433070866143},{"duration":0.034883720930235285,"midi":56,"time":16.8953488372093,"velocity":0.1968503937007874},{"duration":0.3139534883720927,"midi":68,"time":16.8953488372093,"velocity":0.33858267716535434},{"duration":0.9186046511627914,"midi":77,"time":16.8953488372093,"velocity":0.3779527559055118},{"duration":0.04651162790697683,"midi":88,"time":16.930232558139537,"velocity":0.2125984251968504},{"duration":0.04651162790697683,"midi":90,"time":16.930232558139537,"velocity":0.16535433070866143},{"duration":0.04651162790697683,"midi":79,"time":16.941860465116278,"velocity":0.18110236220472442},{"duration":0.04651162790697683,"midi":83,"time":16.941860465116278,"velocity":0.16535433070866143},{"duration":0.04651162790697683,"midi":93,"time":16.941860465116278,"velocity":0.10236220472440945},{"duration":0.02325581395349019,"midi":45,"time":16.953488372093023,"velocity":0.36220472440944884},{"duration":0.10465116279069875,"midi":53,"time":16.953488372093023,"velocity":0.30708661417322836},{"duration":0.09302325581395365,"midi":58,"time":16.953488372093023,"velocity":0.29133858267716534},{"duration":0.04651162790697683,"midi":62,"time":16.953488372093023,"velocity":0.23622047244094488},{"duration":0.04651162790697683,"midi":76,"time":16.953488372093023,"velocity":0.2677165354330709},{"duration":0.04651162790697683,"midi":87,"time":16.953488372093023,"velocity":0.10236220472440945},{"duration":0.03488372093023173,"midi":73,"time":16.96511627906977,"velocity":0.18110236220472442},{"duration":0.12790697674418539,"midi":46,"time":16.976744186046513,"velocity":0.2992125984251969},{"duration":0.02325581395349019,"midi":36,"time":16.988372093023255,"velocity":0.3464566929133858},{"duration":0.023255813953486637,"midi":61,"time":17,"velocity":0.2677165354330709},{"duration":0.19767441860464885,"midi":73,"time":17.011627906976745,"velocity":0.3228346456692913},{"duration":0.05813953488371837,"midi":102,"time":17.011627906976745,"velocity":0.09448818897637795},{"duration":0.04651162790697683,"midi":34,"time":17.023255813953487,"velocity":0.36220472440944884},{"duration":0.11627906976744384,"midi":75,"time":17.023255813953487,"velocity":0.2047244094488189},{"duration":0.15116279069767558,"midi":61,"time":17.046511627906977,"velocity":0.15748031496062992},{"duration":0.03488372093023173,"midi":34,"time":17.08139534883721,"velocity":0.1732283464566929},{"duration":0.023255813953486637,"midi":75,"time":17.197674418604652,"velocity":0.23622047244094488},{"duration":0.04651162790697683,"midi":94,"time":17.197674418604652,"velocity":0.15748031496062992},{"duration":0.06976744186046346,"midi":95,"time":17.197674418604652,"velocity":0.2047244094488189},{"duration":0.06976744186046346,"midi":96,"time":17.197674418604652,"velocity":0.13385826771653545},{"duration":0.03488372093023173,"midi":100,"time":17.197674418604652,"velocity":0.11811023622047244},{"duration":0.08139534883720856,"midi":102,"time":17.197674418604652,"velocity":0.1732283464566929},{"duration":0.06976744186046346,"midi":103,"time":17.197674418604652,"velocity":0.14173228346456693},{"duration":0.034883720930235285,"midi":79,"time":17.209302325581394,"velocity":0.1732283464566929},{"duration":0.08139534883721211,"midi":90,"time":17.209302325581394,"velocity":0.25196850393700787},{"duration":0.08139534883721211,"midi":93,"time":17.209302325581394,"velocity":0.12598425196850394},{"duration":0.034883720930235285,"midi":98,"time":17.209302325581394,"velocity":0.14960629921259844},{"duration":0.05813953488372192,"midi":101,"time":17.209302325581394,"velocity":0.2047244094488189},{"duration":0.011627906976745095,"midi":48,"time":17.22093023255814,"velocity":0.5354330708661418},{"duration":0.3837209302325597,"midi":68,"time":17.22093023255814,"velocity":0.3779527559055118},{"duration":0.06976744186046702,"midi":88,"time":17.22093023255814,"velocity":0.1968503937007874},{"duration":0.06976744186046702,"midi":99,"time":17.22093023255814,"velocity":0.2125984251968504},{"duration":0.011627906976745095,"midi":45,"time":17.232558139534884,"velocity":0.6141732283464567},{"duration":0.04651162790697683,"midi":83,"time":17.232558139534884,"velocity":0.14960629921259844},{"duration":0.05813953488372192,"midi":97,"time":17.232558139534884,"velocity":0.2125984251968504},{"duration":0.011627906976741542,"midi":44,"time":17.24418604651163,"velocity":0.6062992125984252},{"duration":0.011627906976745095,"midi":43,"time":17.25581395348837,"velocity":0.5826771653543307},{"duration":0.5465116279069768,"midi":73,"time":17.25581395348837,"velocity":0.3543307086614173},{"duration":0.034883720930235285,"midi":82,"time":17.25581395348837,"velocity":0.15748031496062992},{"duration":0.011627906976745095,"midi":42,"time":17.267441860465116,"velocity":0.5511811023622047},{"duration":0.04651162790697683,"midi":61,"time":17.27906976744186,"velocity":0.2125984251968504},{"duration":0.02325581395349019,"midi":37,"time":17.313953488372093,"velocity":0.4409448818897638},{"duration":0.04651162790697683,"midi":91,"time":17.325581395348838,"velocity":0.16535433070866143},{"duration":0.02325581395349019,"midi":35,"time":17.348837209302324,"velocity":0.31496062992125984},{"duration":0.11627906976744384,"midi":61,"time":17.348837209302324,"velocity":0.2992125984251969},{"duration":0.08139534883721211,"midi":75,"time":17.348837209302324,"velocity":0.14173228346456693},{"duration":0.06976744186046702,"midi":97,"time":17.348837209302324,"velocity":0.25196850393700787},{"duration":0.1744186046511622,"midi":92,"time":17.36046511627907,"velocity":0.31496062992125984},{"duration":0.08139534883720856,"midi":99,"time":17.36046511627907,"velocity":0.1732283464566929},{"duration":0.023255813953486637,"midi":58,"time":17.372093023255815,"velocity":0.25196850393700787},{"duration":0.11627906976744029,"midi":95,"time":17.38372093023256,"velocity":0.16535433070866143},{"duration":0.04651162790697683,"midi":53,"time":17.430232558139537,"velocity":0.2755905511811024},{"duration":0.034883720930235285,"midi":58,"time":17.441860465116278,"velocity":0.2992125984251969},{"duration":0.02325581395349019,"midi":65,"time":17.453488372093023,"velocity":0.2992125984251969},{"duration":0.06976744186046346,"midi":81,"time":17.46511627906977,"velocity":0.29133858267716534},{"duration":0.05813953488371837,"midi":86,"time":17.46511627906977,"velocity":0.2440944881889764},{"duration":0.06976744186046346,"midi":99,"time":17.46511627906977,"velocity":0.1732283464566929},{"duration":0.12790697674418539,"midi":44,"time":17.476744186046513,"velocity":0.3937007874015748},{"duration":0.023255813953486637,"midi":61,"time":17.476744186046513,"velocity":0.4645669291338583},{"duration":0.06976744186046346,"midi":79,"time":17.476744186046513,"velocity":0.2677165354330709},{"duration":0.05813953488371837,"midi":84,"time":17.476744186046513,"velocity":0.15748031496062992},{"duration":0.03488372093023173,"midi":87,"time":17.476744186046513,"velocity":0.12598425196850394},{"duration":0.023255813953486637,"midi":51,"time":17.5,"velocity":0.33070866141732286},{"duration":0.023255813953486637,"midi":60,"time":17.5,"velocity":0.4409448818897638},{"duration":0.03488372093023173,"midi":97,"time":17.5,"velocity":0.07086614173228346},{"duration":0.023255813953486637,"midi":57,"time":17.511627906976745,"velocity":0.3937007874015748},{"duration":0.08139534883720856,"midi":75,"time":17.511627906976745,"velocity":0.2283464566929134},{"duration":0.034883720930235285,"midi":66,"time":17.523255813953487,"velocity":0.1968503937007874},{"duration":0.04651162790697683,"midi":53,"time":17.558139534883722,"velocity":0.3779527559055118},{"duration":0.08139534883721211,"midi":32,"time":17.569767441860463,"velocity":0.33858267716535434},{"duration":0.023255813953486637,"midi":62,"time":17.593023255813954,"velocity":0.36220472440944884},{"duration":0.03488372093023173,"midi":82,"time":17.593023255813954,"velocity":0.2047244094488189},{"duration":0.08139534883720856,"midi":97,"time":17.593023255813954,"velocity":0.14173228346456693},{"duration":0.03488372093023173,"midi":84,"time":17.6046511627907,"velocity":0.08661417322834646},{"duration":0.09302325581395365,"midi":99,"time":17.6046511627907,"velocity":0.1732283464566929},{"duration":0.03488372093023173,"midi":101,"time":17.6046511627907,"velocity":0.14173228346456693},{"duration":0.034883720930235285,"midi":60,"time":17.61627906976744,"velocity":0.4330708661417323},{"duration":0.10465116279069875,"midi":65,"time":17.61627906976744,"velocity":0.29133858267716534},{"duration":0.04651162790697683,"midi":75,"time":17.61627906976744,"velocity":0.1889763779527559},{"duration":0.023255813953486637,"midi":57,"time":17.63953488372093,"velocity":0.3937007874015748},{"duration":0.10465116279069875,"midi":68,"time":17.63953488372093,"velocity":0.4015748031496063},{"duration":0.04651162790697683,"midi":61,"time":17.651162790697676,"velocity":0.2204724409448819},{"duration":0.034883720930235285,"midi":75,"time":17.709302325581394,"velocity":0.2125984251968504},{"duration":0.03488372093023173,"midi":62,"time":17.72093023255814,"velocity":0.4566929133858268},{"duration":0.06976744186046702,"midi":79,"time":17.72093023255814,"velocity":0.25196850393700787},{"duration":0.03488372093023173,"midi":81,"time":17.72093023255814,"velocity":0.23622047244094488},{"duration":0.08139534883720856,"midi":83,"time":17.72093023255814,"velocity":0.2283464566929134},{"duration":0.04651162790697683,"midi":86,"time":17.72093023255814,"velocity":0.2440944881889764},{"duration":0.12790697674418539,"midi":92,"time":17.72093023255814,"velocity":0.1732283464566929},{"duration":0.06976744186046702,"midi":96,"time":17.72093023255814,"velocity":0.1968503937007874},{"duration":0.11627906976744384,"midi":97,"time":17.72093023255814,"velocity":0.25196850393700787},{"duration":0.04651162790697683,"midi":100,"time":17.72093023255814,"velocity":0.1889763779527559},{"duration":0.03488372093023173,"midi":102,"time":17.72093023255814,"velocity":0.11811023622047244},{"duration":0.023255813953486637,"midi":66,"time":17.732558139534884,"velocity":0.3543307086614173},{"duration":0.08139534883720856,"midi":90,"time":17.732558139534884,"velocity":0.25196850393700787},{"duration":0.09302325581395365,"midi":99,"time":17.732558139534884,"velocity":0.15748031496062992},{"duration":0.05813953488372192,"midi":101,"time":17.732558139534884,"velocity":0.14173228346456693},{"duration":0.023255813953486637,"midi":46,"time":17.74418604651163,"velocity":0.5590551181102362},{"duration":0.08139534883720856,"midi":87,"time":17.74418604651163,"velocity":0.15748031496062992},{"duration":0.06976744186046346,"midi":94,"time":17.74418604651163,"velocity":0.11811023622047244},{"duration":0.02325581395349019,"midi":59,"time":17.75581395348837,"velocity":0.30708661417322836},{"duration":0.09302325581395365,"midi":68,"time":17.75581395348837,"velocity":0.2677165354330709},{"duration":0.04651162790697683,"midi":82,"time":17.75581395348837,"velocity":0.2204724409448819},{"duration":0.04651162790697683,"midi":88,"time":17.75581395348837,"velocity":0.11811023622047244},{"duration":0.011627906976745095,"midi":45,"time":17.767441860465116,"velocity":0.5984251968503937},{"duration":0.06976744186046702,"midi":65,"time":17.767441860465116,"velocity":0.16535433070866143},{"duration":0.011627906976745095,"midi":43,"time":17.77906976744186,"velocity":0.5905511811023622},{"duration":0.03488372093023173,"midi":75,"time":17.77906976744186,"velocity":0.11023622047244094},{"duration":0.011627906976741542,"midi":42,"time":17.790697674418606,"velocity":0.5748031496062992},{"duration":0.023255813953486637,"midi":57,"time":17.790697674418606,"velocity":0.23622047244094488},{"duration":0.02325581395349019,"midi":41,"time":17.802325581395348,"velocity":0.4881889763779528},{"duration":0.05813953488372192,"midi":61,"time":17.825581395348838,"velocity":0.2125984251968504},{"duration":0.04651162790697683,"midi":77,"time":17.825581395348838,"velocity":0.1968503937007874},{"duration":0.03488372093023173,"midi":75,"time":17.837209302325583,"velocity":0.14960629921259844},{"duration":0.034883720930235285,"midi":67,"time":17.848837209302324,"velocity":0.2755905511811024},{"duration":0.04651162790697683,"midi":85,"time":17.848837209302324,"velocity":0.2047244094488189},{"duration":0.11627906976744384,"midi":88,"time":17.848837209302324,"velocity":0.28346456692913385},{"duration":0.10465116279069875,"midi":89,"time":17.848837209302324,"velocity":0.2992125984251969},{"duration":0.08139534883720856,"midi":73,"time":17.86046511627907,"velocity":0.31496062992125984},{"duration":0.05813953488372192,"midi":81,"time":17.86046511627907,"velocity":0.2047244094488189},{"duration":0.06976744186046702,"midi":91,"time":17.86046511627907,"velocity":0.10236220472440945},{"duration":0.04651162790697683,"midi":86,"time":17.872093023255815,"velocity":0.2440944881889764},{"duration":0.08139534883720856,"midi":90,"time":17.872093023255815,"velocity":0.1968503937007874},{"duration":0.3488372093023244,"midi":92,"time":17.872093023255815,"velocity":0.2677165354330709},{"duration":0.05813953488372192,"midi":95,"time":17.872093023255815,"velocity":0.16535433070866143},{"duration":0.09302325581395365,"midi":97,"time":17.872093023255815,"velocity":0.25196850393700787},{"duration":0.08139534883720856,"midi":99,"time":17.872093023255815,"velocity":0.1732283464566929},{"duration":0.023255813953486637,"midi":51,"time":17.88372093023256,"velocity":0.28346456692913385},{"duration":0.05813953488371837,"midi":66,"time":17.88372093023256,"velocity":0.1889763779527559},{"duration":0.06976744186046346,"midi":68,"time":17.88372093023256,"velocity":0.25196850393700787},{"duration":0.04651162790697683,"midi":84,"time":17.88372093023256,"velocity":0.09448818897637795},{"duration":0.04651162790697683,"midi":96,"time":17.88372093023256,"velocity":0.16535433070866143},{"duration":0.06976744186046702,"midi":44,"time":17.8953488372093,"velocity":0.3779527559055118},{"duration":0.04651162790697683,"midi":70,"time":17.8953488372093,"velocity":0.14960629921259844},{"duration":0.04651162790697683,"midi":77,"time":17.8953488372093,"velocity":0.2047244094488189},{"duration":0.04651162790697683,"midi":82,"time":17.8953488372093,"velocity":0.1732283464566929},{"duration":0.023255813953486637,"midi":51,"time":17.91860465116279,"velocity":0.28346456692913385},{"duration":0.023255813953486637,"midi":57,"time":17.91860465116279,"velocity":0.2755905511811024},{"duration":0.08139534883720856,"midi":75,"time":17.91860465116279,"velocity":0.1732283464566929},{"duration":0.03488372093023173,"midi":87,"time":17.91860465116279,"velocity":0.1732283464566929},{"duration":0.034883720930235285,"midi":52,"time":17.941860465116278,"velocity":0.2440944881889764},{"duration":0.034883720930235285,"midi":74,"time":17.941860465116278,"velocity":0.07874015748031496},{"duration":0.10465116279069875,"midi":32,"time":17.953488372093023,"velocity":0.36220472440944884},{"duration":0.03488372093023173,"midi":61,"time":17.976744186046513,"velocity":0.11811023622047244},{"duration":0.1046511627906952,"midi":97,"time":17.976744186046513,"velocity":0.13385826771653545},{"duration":0.08139534883720856,"midi":68,"time":17.988372093023255,"velocity":0.16535433070866143},{"duration":0.023255813953486637,"midi":51,"time":18,"velocity":0.25196850393700787},{"duration":0.04651162790697683,"midi":73,"time":18.011627906976745,"velocity":0.14960629921259844},{"duration":0.03488372093023173,"midi":51,"time":18.058139534883722,"velocity":0.09448818897637795},{"duration":0.06976744186046702,"midi":77,"time":18.11627906976744,"velocity":0.25984251968503935},{"duration":0.05813953488372192,"midi":94,"time":18.11627906976744,"velocity":0.2204724409448819},{"duration":0.02325581395349019,"midi":57,"time":18.127906976744185,"velocity":0.2283464566929134},{"duration":0.08139534883720856,"midi":71,"time":18.127906976744185,"velocity":0.2047244094488189},{"duration":0.02325581395349019,"midi":79,"time":18.127906976744185,"velocity":0.2755905511811024},{"duration":0.05813953488372192,"midi":86,"time":18.127906976744185,"velocity":0.2125984251968504},{"duration":0.03488372093023173,"midi":93,"time":18.127906976744185,"velocity":0.1732283464566929},{"duration":0.10465116279069875,"midi":97,"time":18.127906976744185,"velocity":0.23622047244094488},{"duration":0.023255813953486637,"midi":48,"time":18.13953488372093,"velocity":0.3779527559055118},{"duration":0.11627906976744029,"midi":61,"time":18.13953488372093,"velocity":0.31496062992125984},{"duration":0.05813953488372192,"midi":82,"time":18.13953488372093,"velocity":0.25984251968503935},{"duration":0.08139534883720856,"midi":85,"time":18.13953488372093,"velocity":0.14173228346456693},{"duration":0.09302325581395365,"midi":90,"time":18.13953488372093,"velocity":0.11811023622047244},{"duration":0.09302325581395365,"midi":56,"time":18.151162790697676,"velocity":0.29133858267716534},{"duration":0.05813953488371837,"midi":75,"time":18.151162790697676,"velocity":0.14173228346456693},{"duration":0.023255813953486637,"midi":78,"time":18.151162790697676,"velocity":0.30708661417322836},{"duration":0.05813953488371837,"midi":80,"time":18.151162790697676,"velocity":0.11811023622047244},{"duration":0.09302325581395365,"midi":49,"time":18.162790697674417,"velocity":0.31496062992125984},{"duration":0.02325581395349019,"midi":66,"time":18.162790697674417,"velocity":0.30708661417322836},{"duration":0.02325581395349019,"midi":79,"time":18.162790697674417,"velocity":0.2283464566929134},{"duration":0.04651162790697683,"midi":99,"time":18.162790697674417,"velocity":0.08661417322834646},{"duration":0.06976744186046346,"midi":37,"time":18.186046511627907,"velocity":0.3858267716535433},{"duration":0.04651162790697683,"midi":65,"time":18.186046511627907,"velocity":0.2125984251968504},{"duration":0.03488372093023173,"midi":90,"time":18.24418604651163,"velocity":0.10236220472440945},{"duration":0.08139534883721211,"midi":76,"time":18.25581395348837,"velocity":0.23622047244094488},{"duration":0.04651162790697683,"midi":79,"time":18.25581395348837,"velocity":0.2204724409448819},{"duration":0.04651162790697683,"midi":83,"time":18.25581395348837,"velocity":0.1732283464566929},{"duration":0.034883720930235285,"midi":85,"time":18.25581395348837,"velocity":0.13385826771653545},{"duration":0.034883720930235285,"midi":86,"time":18.25581395348837,"velocity":0.11811023622047244},{"duration":0.04651162790697683,"midi":92,"time":18.25581395348837,"velocity":0.1968503937007874},{"duration":0.11627906976744384,"midi":70,"time":18.267441860465116,"velocity":0.10236220472440945},{"duration":0.05813953488372192,"midi":80,"time":18.267441860465116,"velocity":0.1732283464566929},{"duration":0.05813953488372192,"midi":89,"time":18.267441860465116,"velocity":0.10236220472440945},{"duration":0.011627906976745095,"midi":48,"time":18.27906976744186,"velocity":0.5275590551181102},{"duration":0.06976744186046346,"midi":68,"time":18.27906976744186,"velocity":0.14173228346456693},{"duration":0.011627906976741542,"midi":45,"time":18.290697674418606,"velocity":0.6062992125984252},{"duration":0.1744186046511622,"midi":58,"time":18.290697674418606,"velocity":0.29133858267716534},{"duration":0.03488372093023173,"midi":62,"time":18.290697674418606,"velocity":0.12598425196850394},{"duration":0.08139534883720856,"midi":84,"time":18.290697674418606,"velocity":0.13385826771653545},{"duration":0.02325581395349019,"midi":43,"time":18.302325581395348,"velocity":0.6141732283464567},{"duration":0.12790697674418894,"midi":65,"time":18.302325581395348,"velocity":0.2204724409448819},{"duration":0.034883720930235285,"midi":72,"time":18.302325581395348,"velocity":0.11811023622047244},{"duration":0.13953488372093048,"midi":77,"time":18.302325581395348,"velocity":0.23622047244094488},{"duration":0.04651162790697683,"midi":53,"time":18.313953488372093,"velocity":0.30708661417322836},{"duration":0.011627906976745095,"midi":42,"time":18.325581395348838,"velocity":0.5354330708661418},{"duration":0.03488372093023173,"midi":78,"time":18.325581395348838,"velocity":0.07874015748031496},{"duration":0.02325581395349019,"midi":54,"time":18.36046511627907,"velocity":0.2440944881889764},{"duration":0.04651162790697683,"midi":73,"time":18.36046511627907,"velocity":0.14173228346456693},{"duration":0.023255813953486637,"midi":38,"time":18.372093023255815,"velocity":0.23622047244094488},{"duration":0.03488372093023173,"midi":35,"time":18.406976744186046,"velocity":0.2283464566929134},{"duration":0.1046511627906952,"midi":54,"time":18.41860465116279,"velocity":0.18110236220472442},{"duration":0.3720930232558146,"midi":73,"time":18.41860465116279,"velocity":0.31496062992125984},{"duration":0.06976744186046346,"midi":78,"time":18.41860465116279,"velocity":0.15748031496062992},{"duration":0.11627906976744029,"midi":66,"time":18.430232558139537,"velocity":0.29133858267716534},{"duration":0.03488372093023173,"midi":84,"time":18.476744186046513,"velocity":0.07086614173228346},{"duration":0.05813953488372192,"midi":77,"time":18.488372093023255,"velocity":0.2204724409448819},{"duration":0.03488372093023173,"midi":59,"time":18.511627906976745,"velocity":0.25984251968503935},{"duration":0.05813953488371837,"midi":88,"time":18.511627906976745,"velocity":0.23622047244094488},{"duration":0.03488372093023173,"midi":90,"time":18.511627906976745,"velocity":0.15748031496062992},{"duration":0.04651162790697683,"midi":93,"time":18.511627906976745,"velocity":0.13385826771653545},{"duration":0.2558139534883743,"midi":53,"time":18.523255813953487,"velocity":0.30708661417322836},{"duration":0.034883720930235285,"midi":79,"time":18.523255813953487,"velocity":0.2204724409448819},{"duration":0.1860465116279073,"midi":80,"time":18.523255813953487,"velocity":0.1968503937007874},{"duration":0.04651162790697683,"midi":83,"time":18.523255813953487,"velocity":0.1889763779527559},{"duration":0.04651162790697683,"midi":86,"time":18.523255813953487,"velocity":0.11811023622047244},{"duration":0.034883720930235285,"midi":91,"time":18.523255813953487,"velocity":0.2440944881889764},{"duration":0.02325581395349019,"midi":45,"time":18.53488372093023,"velocity":0.4015748031496063},{"duration":0.08139534883720856,"midi":76,"time":18.53488372093023,"velocity":0.2677165354330709},{"duration":0.08139534883720856,"midi":58,"time":18.546511627906977,"velocity":0.2755905511811024},{"duration":0.06976744186046346,"midi":62,"time":18.546511627906977,"velocity":0.1968503937007874},{"duration":0.03488372093023173,"midi":81,"time":18.546511627906977,"velocity":0.09448818897637795},{"duration":0.08139534883720856,"midi":46,"time":18.558139534883722,"velocity":0.33858267716535434},{"duration":0.22093023255813904,"midi":66,"time":18.558139534883722,"velocity":0.3700787401574803},{"duration":0.23255813953488413,"midi":77,"time":18.58139534883721,"velocity":0.36220472440944884},{"duration":0.06976744186046346,"midi":34,"time":18.6046511627907,"velocity":0.3779527559055118},{"duration":0.04651162790697683,"midi":45,"time":18.651162790697676,"velocity":0.3700787401574803},{"duration":0.04651162790697683,"midi":83,"time":18.651162790697676,"velocity":0.1732283464566929},{"duration":0.03488372093023173,"midi":88,"time":18.651162790697676,"velocity":0.18110236220472442},{"duration":0.03488372093023173,"midi":91,"time":18.651162790697676,"velocity":0.1889763779527559},{"duration":0.12790697674418894,"midi":58,"time":18.662790697674417,"velocity":0.3700787401574803},{"duration":0.08139534883721211,"midi":76,"time":18.662790697674417,"velocity":0.23622047244094488},{"duration":0.08139534883720856,"midi":62,"time":18.674418604651162,"velocity":0.1968503937007874},{"duration":0.03488372093023173,"midi":81,"time":18.674418604651162,"velocity":0.07874015748031496},{"duration":0.023255813953486637,"midi":38,"time":18.686046511627907,"velocity":0.2755905511811024},{"duration":0.08139534883720856,"midi":46,"time":18.697674418604652,"velocity":0.30708661417322836},{"duration":0.06976744186046346,"midi":34,"time":18.732558139534884,"velocity":0.3700787401574803},{"duration":0.03488372093023173,"midi":75,"time":18.77906976744186,"velocity":0.09448818897637795},{"duration":0.12790697674418539,"midi":88,"time":18.77906976744186,"velocity":0.2204724409448819},{"duration":0.10465116279069875,"midi":90,"time":18.77906976744186,"velocity":0.2755905511811024},{"duration":0.08139534883720856,"midi":92,"time":18.77906976744186,"velocity":0.18110236220472442},{"duration":0.03488372093023173,"midi":93,"time":18.77906976744186,"velocity":0.16535433070866143},{"duration":0.09302325581395365,"midi":103,"time":18.77906976744186,"velocity":0.15748031496062992},{"duration":0.023255813953486637,"midi":53,"time":18.790697674418606,"velocity":0.5433070866141733},{"duration":0.023255813953486637,"midi":60,"time":18.790697674418606,"velocity":0.4094488188976378},{"duration":0.03488372093023173,"midi":67,"time":18.790697674418606,"velocity":0.3937007874015748},{"duration":0.05813953488371837,"midi":70,"time":18.790697674418606,"velocity":0.23622047244094488},{"duration":0.03488372093023173,"midi":86,"time":18.790697674418606,"velocity":0.18110236220472442},{"duration":0.08139534883720856,"midi":87,"time":18.790697674418606,"velocity":0.10236220472440945},{"duration":0.06976744186046346,"midi":95,"time":18.790697674418606,"velocity":0.1889763779527559},{"duration":0.02325581395349019,"midi":45,"time":18.802325581395348,"velocity":0.5748031496062992},{"duration":0.034883720930235285,"midi":91,"time":18.802325581395348,"velocity":0.2283464566929134},{"duration":0.06976744186046702,"midi":96,"time":18.802325581395348,"velocity":0.2125984251968504},{"duration":0.03488372093023173,"midi":99,"time":18.813953488372093,"velocity":0.11811023622047244},{"duration":0.011627906976745095,"midi":44,"time":18.825581395348838,"velocity":0.6062992125984252},{"duration":0.05813953488372192,"midi":68,"time":18.825581395348838,"velocity":0.4409448818897638},{"duration":0.03488372093023173,"midi":83,"time":18.825581395348838,"velocity":0.11023622047244094},{"duration":0.011627906976741542,"midi":43,"time":18.837209302325583,"velocity":0.5826771653543307},{"duration":0.03488372093023173,"midi":75,"time":18.837209302325583,"velocity":0.14960629921259844},{"duration":0.1046511627906952,"midi":85,"time":18.837209302325583,"velocity":0.16535433070866143},{"duration":0.03488372093023173,"midi":94,"time":18.837209302325583,"velocity":0.2440944881889764},{"duration":0.011627906976745095,"midi":42,"time":18.848837209302324,"velocity":0.5511811023622047},{"duration":0.02325581395349019,"midi":56,"time":18.86046511627907,"velocity":0.4330708661417323},{"duration":0.06976744186046702,"midi":93,"time":18.86046511627907,"velocity":0.1732283464566929},{"duration":0.03488372093023173,"midi":66,"time":18.872093023255815,"velocity":0.2283464566929134},{"duration":0.04651162790697683,"midi":76,"time":18.872093023255815,"velocity":0.11811023622047244},{"duration":0.06976744186046346,"midi":95,"time":18.872093023255815,"velocity":0.25984251968503935},{"duration":0.03488372093023173,"midi":57,"time":18.88372093023256,"velocity":0.4251968503937008},{"duration":0.09302325581395365,"midi":91,"time":18.88372093023256,"velocity":0.30708661417322836},{"duration":0.02325581395349019,"midi":37,"time":18.8953488372093,"velocity":0.3779527559055118},{"duration":0.1744186046511622,"midi":77,"time":18.8953488372093,"velocity":0.30708661417322836},{"duration":0.15116279069767558,"midi":70,"time":18.906976744186046,"velocity":0.47244094488188976},{"duration":0.15116279069767558,"midi":73,"time":18.906976744186046,"velocity":0.2677165354330709},{"duration":0.02325581395349019,"midi":78,"time":18.906976744186046,"velocity":0.25196850393700787},{"duration":0.05813953488372192,"midi":89,"time":18.906976744186046,"velocity":0.33070866141732286},{"duration":0.11627906976744029,"midi":94,"time":18.906976744186046,"velocity":0.3228346456692913},{"duration":0.06976744186046702,"midi":96,"time":18.906976744186046,"velocity":0.1968503937007874},{"duration":0.023255813953486637,"midi":36,"time":18.91860465116279,"velocity":0.29133858267716534},{"duration":0.05813953488372192,"midi":58,"time":18.91860465116279,"velocity":0.4251968503937008},{"duration":0.05813953488372192,"midi":83,"time":18.91860465116279,"velocity":0.16535433070866143},{"duration":0.1046511627906952,"midi":86,"time":18.91860465116279,"velocity":0.2283464566929134},{"duration":0.15116279069767202,"midi":92,"time":18.91860465116279,"velocity":0.2992125984251969},{"duration":0.023255813953486637,"midi":48,"time":18.930232558139537,"velocity":0.3464566929133858},{"duration":0.05813953488371837,"midi":79,"time":18.930232558139537,"velocity":0.25196850393700787},{"duration":0.04651162790697683,"midi":75,"time":18.941860465116278,"velocity":0.10236220472440945},{"duration":0.23255813953488413,"midi":100,"time":18.941860465116278,"velocity":0.2677165354330709},{"duration":0.04651162790697683,"midi":49,"time":18.953488372093023,"velocity":0.28346456692913385},{"duration":0.06976744186046346,"midi":66,"time":18.953488372093023,"velocity":0.3228346456692913},{"duration":0.04651162790697683,"midi":80,"time":18.953488372093023,"velocity":0.09448818897637795},{"duration":0.03488372093023173,"midi":90,"time":18.96511627906977,"velocity":0.2992125984251969},{"duration":0.03488372093023173,"midi":37,"time":18.976744186046513,"velocity":0.36220472440944884},{"duration":0.023255813953486637,"midi":59,"time":18.976744186046513,"velocity":0.4409448818897638},{"duration":0.03488372093023173,"midi":101,"time":18.988372093023255,"velocity":0.2125984251968504},{"duration":0.04651162790697683,"midi":58,"time":19,"velocity":0.49606299212598426},{"duration":0.16279069767441712,"midi":96,"time":19.011627906976745,"velocity":0.1732283464566929},{"duration":0.034883720930235285,"midi":37,"time":19.023255813953487,"velocity":0.2283464566929134},{"duration":0.03488372093023173,"midi":68,"time":19.03488372093023,"velocity":0.2755905511811024},{"duration":0.023255813953486637,"midi":59,"time":19.046511627906977,"velocity":0.4330708661417323},{"duration":0.03488372093023173,"midi":83,"time":19.046511627906977,"velocity":0.14960629921259844},{"duration":0.03488372093023173,"midi":87,"time":19.046511627906977,"velocity":0.1732283464566929},{"duration":0.04651162790697683,"midi":90,"time":19.046511627906977,"velocity":0.2125984251968504},{"duration":0.04651162790697683,"midi":93,"time":19.046511627906977,"velocity":0.23622047244094488},{"duration":0.03488372093023173,"midi":56,"time":19.058139534883722,"velocity":0.3858267716535433},{"duration":0.13953488372093048,"midi":72,"time":19.058139534883722,"velocity":0.4566929133858268},{"duration":0.04651162790697683,"midi":76,"time":19.058139534883722,"velocity":0.18110236220472442},{"duration":0.04651162790697683,"midi":79,"time":19.058139534883722,"velocity":0.28346456692913385},{"duration":0.03488372093023173,"midi":81,"time":19.058139534883722,"velocity":0.2204724409448819},{"duration":0.05813953488371837,"midi":82,"time":19.058139534883722,"velocity":0.18110236220472442},{"duration":0.03488372093023173,"midi":101,"time":19.058139534883722,"velocity":0.11023622047244094},{"duration":0.20930232558139394,"midi":102,"time":19.058139534883722,"velocity":0.25196850393700787},{"duration":0.11627906976744384,"midi":48,"time":19.069767441860463,"velocity":0.3779527559055118},{"duration":0.2674418604651194,"midi":70,"time":19.069767441860463,"velocity":0.3858267716535433},{"duration":0.05813953488372192,"midi":78,"time":19.069767441860463,"velocity":0.2204724409448819},{"duration":0.23255813953488413,"midi":66,"time":19.08139534883721,"velocity":0.33070866141732286},{"duration":0.023255813953486637,"midi":58,"time":19.093023255813954,"velocity":0.25196850393700787},{"duration":0.08139534883721211,"midi":36,"time":19.11627906976744,"velocity":0.33858267716535434},{"duration":0.2674418604651194,"midi":77,"time":19.11627906976744,"velocity":0.2283464566929134},{"duration":0.08139534883721211,"midi":79,"time":19.11627906976744,"velocity":0.28346456692913385},{"duration":0.02325581395349019,"midi":55,"time":19.127906976744185,"velocity":0.31496062992125984},{"duration":0.08139534883720856,"midi":94,"time":19.151162790697676,"velocity":0.09448818897637795},{"duration":0.09302325581395365,"midi":73,"time":19.186046511627907,"velocity":0.2125984251968504},{"duration":0.05813953488371837,"midi":58,"time":19.197674418604652,"velocity":0.3543307086614173},{"duration":0.02325581395349019,"midi":72,"time":19.267441860465116,"velocity":0.23622047244094488},{"duration":0.023255813953486637,"midi":60,"time":19.290697674418606,"velocity":0.25984251968503935},{"duration":0.023255813953486637,"midi":73,"time":19.290697674418606,"velocity":0.2677165354330709},{"duration":0.034883720930235285,"midi":96,"time":19.302325581395348,"velocity":0.1968503937007874},{"duration":0.034883720930235285,"midi":100,"time":19.302325581395348,"velocity":0.2204724409448819},{"duration":0.09302325581395365,"midi":101,"time":19.302325581395348,"velocity":0.23622047244094488},{"duration":0.15116279069767558,"midi":102,"time":19.302325581395348,"velocity":0.3858267716535433},{"duration":0.04651162790697683,"midi":61,"time":19.313953488372093,"velocity":0.4251968503937008},{"duration":0.04651162790697683,"midi":81,"time":19.313953488372093,"velocity":0.23622047244094488},{"duration":0.02325581395349019,"midi":86,"time":19.313953488372093,"velocity":0.2283464566929134},{"duration":0.09302325581395365,"midi":89,"time":19.313953488372093,"velocity":0.31496062992125984},{"duration":0.03488372093023173,"midi":91,"time":19.313953488372093,"velocity":0.13385826771653545},{"duration":0.10465116279069875,"midi":92,"time":19.313953488372093,"velocity":0.3543307086614173},{"duration":0.04651162790697683,"midi":97,"time":19.313953488372093,"velocity":0.14960629921259844},{"duration":0.03488372093023173,"midi":103,"time":19.313953488372093,"velocity":0.33070866141732286},{"duration":0.08139534883720856,"midi":85,"time":19.325581395348838,"velocity":0.2992125984251969},{"duration":0.05813953488372192,"midi":95,"time":19.325581395348838,"velocity":0.2677165354330709},{"duration":0.13953488372093048,"midi":99,"time":19.325581395348838,"velocity":0.33858267716535434},{"duration":0.011627906976741542,"midi":47,"time":19.337209302325583,"velocity":0.5433070866141733},{"duration":0.09302325581395365,"midi":68,"time":19.337209302325583,"velocity":0.12598425196850394},{"duration":0.011627906976745095,"midi":45,"time":19.348837209302324,"velocity":0.5905511811023622},{"duration":0.05813953488372192,"midi":80,"time":19.348837209302324,"velocity":0.1968503937007874},{"duration":0.011627906976745095,"midi":43,"time":19.36046511627907,"velocity":0.5905511811023622},{"duration":0.023255813953486637,"midi":42,"time":19.372093023255815,"velocity":0.5826771653543307},{"duration":0.05813953488372192,"midi":60,"time":19.372093023255815,"velocity":0.3700787401574803},{"duration":0.12790697674418539,"midi":51,"time":19.38372093023256,"velocity":0.31496062992125984},{"duration":0.06976744186046346,"midi":94,"time":19.38372093023256,"velocity":0.36220472440944884},{"duration":0.011627906976745095,"midi":41,"time":19.3953488372093,"velocity":0.5118110236220472},{"duration":0.04651162790697683,"midi":100,"time":19.3953488372093,"velocity":0.15748031496062992},{"duration":0.03488372093023173,"midi":88,"time":19.406976744186046,"velocity":0.07874015748031496},{"duration":0.4883720930232549,"midi":70,"time":19.41860465116279,"velocity":0.25984251968503935},{"duration":0.04651162790697683,"midi":61,"time":19.430232558139537,"velocity":0.3858267716535433},{"duration":0.1744186046511622,"midi":66,"time":19.430232558139537,"velocity":0.2047244094488189},{"duration":0.15116279069767202,"midi":73,"time":19.430232558139537,"velocity":0.3858267716535433},{"duration":0.15116279069767202,"midi":77,"time":19.430232558139537,"velocity":0.1968503937007874},{"duration":0.04651162790697683,"midi":80,"time":19.430232558139537,"velocity":0.15748031496062992},{"duration":0.03488372093023173,"midi":92,"time":19.430232558139537,"velocity":0.2992125984251969},{"duration":0.10465116279069875,"midi":101,"time":19.441860465116278,"velocity":0.28346456692913385},{"duration":0.03488372093023173,"midi":34,"time":19.453488372093023,"velocity":0.3937007874015748},{"duration":0.12790697674418539,"midi":95,"time":19.453488372093023,"velocity":0.4094488188976378},{"duration":0.09302325581395365,"midi":103,"time":19.453488372093023,"velocity":0.4094488188976378},{"duration":0.05813953488371837,"midi":93,"time":19.46511627906977,"velocity":0.3779527559055118},{"duration":0.04651162790697683,"midi":100,"time":19.46511627906977,"velocity":0.2755905511811024},{"duration":0.16279069767441712,"midi":102,"time":19.46511627906977,"velocity":0.1889763779527559},{"duration":0.03488372093023173,"midi":62,"time":19.476744186046513,"velocity":0.33070866141732286},{"duration":0.03488372093023173,"midi":81,"time":19.476744186046513,"velocity":0.14173228346456693},{"duration":0.03488372093023173,"midi":86,"time":19.476744186046513,"velocity":0.14960629921259844},{"duration":0.023255813953486637,"midi":98,"time":19.476744186046513,"velocity":0.2677165354330709},{"duration":0.03488372093023173,"midi":44,"time":19.488372093023255,"velocity":0.09448818897637795},{"duration":0.04651162790697683,"midi":97,"time":19.5,"velocity":0.2125984251968504},{"duration":0.023255813953486637,"midi":61,"time":19.511627906976745,"velocity":0.3543307086614173},{"duration":0.023255813953486637,"midi":99,"time":19.511627906976745,"velocity":0.2283464566929134},{"duration":0.02325581395349019,"midi":60,"time":19.53488372093023,"velocity":0.44881889763779526},{"duration":0.15116279069767558,"midi":89,"time":19.53488372093023,"velocity":0.28346456692913385},{"duration":0.08139534883721211,"midi":80,"time":19.569767441860463,"velocity":0.2283464566929134},{"duration":0.05813953488372192,"midi":88,"time":19.569767441860463,"velocity":0.25984251968503935},{"duration":0.04651162790697683,"midi":90,"time":19.569767441860463,"velocity":0.1968503937007874},{"duration":0.02325581395349019,"midi":57,"time":19.58139534883721,"velocity":0.3543307086614173},{"duration":0.02325581395349019,"midi":74,"time":19.58139534883721,"velocity":0.25984251968503935},{"duration":0.09302325581395365,"midi":76,"time":19.58139534883721,"velocity":0.28346456692913385},{"duration":0.02325581395349019,"midi":78,"time":19.58139534883721,"velocity":0.23622047244094488},{"duration":0.05813953488372192,"midi":83,"time":19.58139534883721,"velocity":0.2283464566929134},{"duration":0.04651162790697683,"midi":91,"time":19.58139534883721,"velocity":0.2440944881889764},{"duration":0.05813953488372192,"midi":94,"time":19.58139534883721,"velocity":0.14960629921259844},{"duration":0.06976744186046702,"midi":100,"time":19.58139534883721,"velocity":0.4330708661417323},{"duration":0.023255813953486637,"midi":45,"time":19.593023255813954,"velocity":0.41732283464566927},{"duration":0.04651162790697683,"midi":68,"time":19.593023255813954,"velocity":0.2125984251968504},{"duration":0.10465116279069875,"midi":92,"time":19.593023255813954,"velocity":0.25196850393700787},{"duration":0.023255813953486637,"midi":99,"time":19.593023255813954,"velocity":0.25984251968503935},{"duration":0.13953488372093048,"midi":103,"time":19.593023255813954,"velocity":0.4409448818897638},{"duration":0.1046511627906952,"midi":53,"time":19.6046511627907,"velocity":0.3228346456692913},{"duration":0.03488372093023173,"midi":61,"time":19.6046511627907,"velocity":0.4330708661417323},{"duration":0.04651162790697683,"midi":79,"time":19.6046511627907,"velocity":0.2047244094488189},{"duration":0.03488372093023173,"midi":81,"time":19.6046511627907,"velocity":0.10236220472440945},{"duration":0.13953488372093048,"midi":46,"time":19.61627906976744,"velocity":0.33858267716535434},{"duration":0.10465116279069875,"midi":77,"time":19.61627906976744,"velocity":0.25984251968503935},{"duration":0.03488372093023173,"midi":66,"time":19.63953488372093,"velocity":0.2677165354330709},{"duration":0.03488372093023173,"midi":61,"time":19.651162790697676,"velocity":0.3228346456692913},{"duration":0.1046511627906952,"midi":99,"time":19.651162790697676,"velocity":0.4330708661417323},{"duration":0.09302325581395365,"midi":34,"time":19.662790697674417,"velocity":0.3779527559055118},{"duration":0.023255813953486637,"midi":60,"time":19.686046511627907,"velocity":0.3464566929133858},{"duration":0.03488372093023173,"midi":102,"time":19.686046511627907,"velocity":0.29133858267716534},{"duration":0.05813953488372192,"midi":73,"time":19.709302325581394,"velocity":0.18110236220472442},{"duration":0.11627906976744384,"midi":66,"time":19.72093023255814,"velocity":0.23622047244094488},{"duration":0.03488372093023173,"midi":60,"time":19.732558139534884,"velocity":0.28346456692913385},{"duration":0.04651162790697683,"midi":77,"time":19.732558139534884,"velocity":0.25984251968503935},{"duration":0.08139534883720856,"midi":103,"time":19.790697674418606,"velocity":0.2047244094488189},{"duration":0.3139534883720927,"midi":73,"time":19.802325581395348,"velocity":0.2440944881889764},{"duration":0.10465116279069875,"midi":77,"time":19.802325581395348,"velocity":0.2125984251968504},{"duration":0.20930232558139394,"midi":99,"time":19.825581395348838,"velocity":0.2283464566929134},{"duration":0.023255813953486637,"midi":61,"time":19.837209302325583,"velocity":0.4566929133858268},{"duration":0.03488372093023173,"midi":81,"time":19.837209302325583,"velocity":0.15748031496062992},{"duration":0.04651162790697683,"midi":88,"time":19.837209302325583,"velocity":0.2440944881889764},{"duration":0.08139534883720856,"midi":90,"time":19.837209302325583,"velocity":0.30708661417322836},{"duration":0.03488372093023173,"midi":93,"time":19.837209302325583,"velocity":0.16535433070866143},{"duration":0.08139534883720856,"midi":95,"time":19.837209302325583,"velocity":0.10236220472440945},{"duration":0.08139534883720856,"midi":96,"time":19.837209302325583,"velocity":0.14960629921259844},{"duration":0.13953488372093048,"midi":97,"time":19.837209302325583,"velocity":0.2283464566929134},{"duration":0.03488372093023173,"midi":98,"time":19.837209302325583,"velocity":0.16535433070866143},{"duration":0.16279069767441712,"midi":101,"time":19.837209302325583,"velocity":0.1889763779527559},{"duration":0.05813953488372192,"midi":83,"time":19.848837209302324,"velocity":0.13385826771653545},{"duration":0.034883720930235285,"midi":86,"time":19.848837209302324,"velocity":0.12598425196850394},{"duration":0.08139534883721211,"midi":89,"time":19.848837209302324,"velocity":0.23622047244094488},{"duration":0.15116279069767558,"midi":94,"time":19.848837209302324,"velocity":0.2125984251968504},{"duration":0.02325581395349019,"midi":45,"time":19.86046511627907,"velocity":0.5905511811023622},{"duration":0.04651162790697683,"midi":64,"time":19.86046511627907,"velocity":0.4251968503937008},{"duration":0.10465116279069875,"midi":91,"time":19.86046511627907,"velocity":0.2047244094488189},{"duration":0.011627906976741542,"midi":44,"time":19.88372093023256,"velocity":0.6062992125984252},{"duration":0.15116279069767202,"midi":87,"time":19.88372093023256,"velocity":0.31496062992125984},{"duration":0.011627906976745095,"midi":43,"time":19.8953488372093,"velocity":0.5826771653543307},{"duration":0.011627906976745095,"midi":42,"time":19.906976744186046,"velocity":0.5511811023622047},{"duration":0.11627906976744029,"midi":63,"time":19.906976744186046,"velocity":0.44881889763779526},{"duration":0.12790697674418539,"midi":103,"time":19.906976744186046,"velocity":0.2755905511811024},{"duration":0.023255813953486637,"midi":53,"time":19.930232558139537,"velocity":0.2755905511811024},{"duration":0.1744186046511622,"midi":70,"time":19.941860465116278,"velocity":0.2283464566929134},{"duration":0.034883720930235285,"midi":77,"time":19.941860465116278,"velocity":0.13385826771653545},{"duration":0.02325581395349019,"midi":37,"time":19.953488372093023,"velocity":0.3779527559055118},{"duration":0.05813953488372192,"midi":66,"time":19.953488372093023,"velocity":0.23622047244094488},{"duration":0.03488372093023173,"midi":36,"time":19.976744186046513,"velocity":0.2992125984251969},{"duration":0.08139534883720856,"midi":77,"time":20,"velocity":0.23622047244094488},{"duration":0.06976744186046702,"midi":51,"time":20.023255813953487,"velocity":0.15748031496062992},{"duration":0.023255813953486637,"midi":66,"time":20.046511627906977,"velocity":0.47244094488188976},{"duration":0.011627906976745095,"midi":65,"time":20.069767441860463,"velocity":0.5118110236220472},{"duration":0.02325581395349019,"midi":64,"time":20.08139534883721,"velocity":0.5196850393700787},{"duration":0.03488372093023173,"midi":69,"time":20.1046511627907,"velocity":0.1889763779527559},{"duration":0.09302325581395365,"midi":75,"time":20.1046511627907,"velocity":0.2204724409448819},{"duration":0.05813953488371837,"midi":78,"time":20.1046511627907,"velocity":0.23622047244094488},{"duration":0.05813953488371837,"midi":83,"time":20.1046511627907,"velocity":0.2992125984251969},{"duration":0.023255813953486637,"midi":84,"time":20.1046511627907,"velocity":0.25196850393700787},{"duration":0.04651162790697683,"midi":86,"time":20.1046511627907,"velocity":0.1968503937007874},{"duration":0.16279069767441712,"midi":87,"time":20.1046511627907,"velocity":0.3700787401574803},{"duration":0.08139534883721211,"midi":72,"time":20.11627906976744,"velocity":0.5196850393700787},{"duration":0.034883720930235285,"midi":97,"time":20.11627906976744,"velocity":0.07874015748031496},{"duration":0.03488372093023173,"midi":60,"time":20.127906976744185,"velocity":0.3937007874015748},{"duration":0.09302325581395365,"midi":63,"time":20.127906976744185,"velocity":0.30708661417322836},{"duration":0.023255813953486637,"midi":40,"time":20.151162790697676,"velocity":0.4015748031496063},{"duration":0.023255813953486637,"midi":41,"time":20.186046511627907,"velocity":0.30708661417322836},{"duration":0.06976744186046346,"midi":78,"time":20.186046511627907,"velocity":0.2047244094488189},{"duration":0.09302325581395365,"midi":83,"time":20.186046511627907,"velocity":0.33858267716535434},{"duration":0.06976744186046346,"midi":71,"time":20.197674418604652,"velocity":0.4251968503937008},{"duration":0.03488372093023173,"midi":30,"time":20.22093023255814,"velocity":0.25196850393700787},{"duration":0.02325581395349019,"midi":65,"time":20.22093023255814,"velocity":0.25196850393700787},{"duration":0.10465116279069875,"midi":53,"time":20.232558139534884,"velocity":0.3228346456692913},{"duration":0.04651162790697683,"midi":74,"time":20.232558139534884,"velocity":0.1889763779527559},{"duration":0.08139534883720856,"midi":76,"time":20.232558139534884,"velocity":0.25196850393700787},{"duration":0.06976744186046346,"midi":80,"time":20.232558139534884,"velocity":0.2125984251968504},{"duration":0.03488372093023173,"midi":89,"time":20.232558139534884,"velocity":0.12598425196850394},{"duration":0.05813953488372192,"midi":93,"time":20.232558139534884,"velocity":0.10236220472440945},{"duration":0.09302325581395365,"midi":101,"time":20.232558139534884,"velocity":0.28346456692913385},{"duration":0.023255813953486637,"midi":66,"time":20.24418604651163,"velocity":0.30708661417322836},{"duration":0.034883720930235285,"midi":59,"time":20.25581395348837,"velocity":0.29133858267716534},{"duration":0.05813953488372192,"midi":77,"time":20.25581395348837,"velocity":0.1732283464566929},{"duration":0.1976744186046524,"midi":79,"time":20.25581395348837,"velocity":0.2677165354330709},{"duration":0.034883720930235285,"midi":81,"time":20.25581395348837,"velocity":0.07874015748031496},{"duration":0.03488372093023173,"midi":65,"time":20.267441860465116,"velocity":0.33070866141732286},{"duration":0.23255813953488413,"midi":72,"time":20.267441860465116,"velocity":0.49606299212598426},{"duration":0.22093023255813904,"midi":88,"time":20.267441860465116,"velocity":0.36220472440944884},{"duration":0.22093023255813904,"midi":98,"time":20.267441860465116,"velocity":0.2047244094488189},{"duration":0.04651162790697683,"midi":103,"time":20.27906976744186,"velocity":0.14960629921259844},{"duration":0.023255813953486637,"midi":47,"time":20.290697674418606,"velocity":0.31496062992125984},{"duration":0.03488372093023173,"midi":58,"time":20.290697674418606,"velocity":0.18110236220472442},{"duration":0.023255813953486637,"midi":63,"time":20.290697674418606,"velocity":0.30708661417322836},{"duration":0.02325581395349019,"midi":34,"time":20.313953488372093,"velocity":0.33858267716535434},{"duration":0.13953488372093048,"midi":102,"time":20.325581395348838,"velocity":0.28346456692913385},{"duration":0.04651162790697683,"midi":60,"time":20.337209302325583,"velocity":0.1889763779527559},{"duration":0.03488372093023173,"midi":89,"time":20.36046511627907,"velocity":0.1732283464566929},{"duration":0.023255813953486637,"midi":74,"time":20.372093023255815,"velocity":0.2283464566929134},{"duration":0.03488372093023173,"midi":83,"time":20.372093023255815,"velocity":0.2204724409448819},{"duration":0.03488372093023173,"midi":90,"time":20.372093023255815,"velocity":0.09448818897637795},{"duration":0.05813953488371837,"midi":62,"time":20.38372093023256,"velocity":0.25196850393700787},{"duration":0.04651162790697683,"midi":68,"time":20.38372093023256,"velocity":0.2047244094488189},{"duration":0.11627906976744029,"midi":77,"time":20.38372093023256,"velocity":0.13385826771653545},{"duration":0.011627906976745095,"midi":47,"time":20.3953488372093,"velocity":0.5511811023622047},{"duration":0.034883720930235285,"midi":65,"time":20.3953488372093,"velocity":0.08661417322834646},{"duration":0.05813953488372192,"midi":76,"time":20.3953488372093,"velocity":0.15748031496062992},{"duration":0.011627906976745095,"midi":45,"time":20.406976744186046,"velocity":0.6141732283464567},{"duration":0.12790697674418539,"midi":94,"time":20.406976744186046,"velocity":0.08661417322834646},{"duration":0.011627906976745095,"midi":44,"time":20.41860465116279,"velocity":0.6220472440944882},{"duration":0.023255813953486637,"midi":54,"time":20.41860465116279,"velocity":0.2755905511811024},{"duration":0.011627906976741542,"midi":43,"time":20.430232558139537,"velocity":0.5669291338582677},{"duration":0.011627906976745095,"midi":42,"time":20.441860465116278,"velocity":0.5118110236220472},{"duration":0.02325581395349019,"midi":53,"time":20.441860465116278,"velocity":0.29133858267716534},{"duration":0.034883720930235285,"midi":63,"time":20.441860465116278,"velocity":0.25984251968503935},{"duration":0.03488372093023173,"midi":91,"time":20.46511627906977,"velocity":0.09448818897637795},{"duration":0.03488372093023173,"midi":101,"time":20.46511627906977,"velocity":0.11811023622047244},{"duration":0.03488372093023173,"midi":78,"time":20.476744186046513,"velocity":0.18110236220472442},{"duration":0.06976744186046346,"midi":87,"time":20.476744186046513,"velocity":0.28346456692913385},{"duration":0.03488372093023173,"midi":71,"time":20.488372093023255,"velocity":0.36220472440944884},{"duration":0.06976744186046702,"midi":100,"time":20.488372093023255,"velocity":0.2047244094488189},{"duration":0.023255813953486637,"midi":59,"time":20.5,"velocity":0.3228346456692913},{"duration":0.09302325581395365,"midi":79,"time":20.5,"velocity":0.18110236220472442},{"duration":0.04651162790697683,"midi":88,"time":20.5,"velocity":0.1889763779527559},{"duration":0.03488372093023173,"midi":46,"time":20.511627906976745,"velocity":0.11811023622047244},{"duration":0.04651162790697683,"midi":72,"time":20.511627906976745,"velocity":0.30708661417322836},{"duration":0.11627906976744029,"midi":77,"time":20.511627906976745,"velocity":0.3779527559055118},{"duration":0.11627906976744029,"midi":98,"time":20.511627906976745,"velocity":0.2440944881889764},{"duration":0.034883720930235285,"midi":35,"time":20.523255813953487,"velocity":0.15748031496062992},{"duration":0.11627906976744384,"midi":58,"time":20.523255813953487,"velocity":0.33858267716535434},{"duration":0.10465116279069875,"midi":70,"time":20.523255813953487,"velocity":0.3937007874015748},{"duration":0.15116279069767558,"midi":86,"time":20.523255813953487,"velocity":0.2125984251968504},{"duration":0.09302325581395365,"midi":101,"time":20.523255813953487,"velocity":0.2204724409448819},{"duration":0.12790697674418539,"midi":63,"time":20.546511627906977,"velocity":0.1889763779527559},{"duration":0.11627906976744029,"midi":102,"time":20.546511627906977,"velocity":0.2204724409448819},{"duration":0.06976744186046346,"midi":80,"time":20.558139534883722,"velocity":0.11811023622047244},{"duration":0.16279069767441712,"midi":99,"time":20.558139534883722,"velocity":0.25984251968503935},{"duration":0.04651162790697683,"midi":88,"time":20.569767441860463,"velocity":0.14173228346456693},{"duration":0.05813953488372192,"midi":96,"time":20.569767441860463,"velocity":0.07086614173228346},{"duration":0.3604651162790695,"midi":72,"time":20.6046511627907,"velocity":0.2204724409448819},{"duration":0.02325581395349019,"midi":69,"time":20.627906976744185,"velocity":0.36220472440944884},{"duration":0.02325581395349019,"midi":76,"time":20.627906976744185,"velocity":0.3543307086614173},{"duration":0.03488372093023173,"midi":91,"time":20.627906976744185,"velocity":0.10236220472440945},{"duration":0.08139534883720856,"midi":103,"time":20.627906976744185,"velocity":0.2047244094488189},{"duration":0.023255813953486637,"midi":57,"time":20.63953488372093,"velocity":0.41732283464566927},{"duration":0.05813953488372192,"midi":84,"time":20.63953488372093,"velocity":0.2440944881889764},{"duration":0.03488372093023173,"midi":90,"time":20.63953488372093,"velocity":0.11023622047244094},{"duration":0.3023255813953476,"midi":68,"time":20.651162790697676,"velocity":0.4015748031496063},{"duration":0.08139534883720856,"midi":75,"time":20.651162790697676,"velocity":0.4330708661417323},{"duration":0.08139534883720856,"midi":77,"time":20.651162790697676,"velocity":0.2755905511811024},{"duration":0.034883720930235285,"midi":51,"time":20.662790697674417,"velocity":0.2992125984251969},{"duration":0.12790697674418894,"midi":56,"time":20.662790697674417,"velocity":0.4251968503937008},{"duration":0.09302325581395365,"midi":44,"time":20.674418604651162,"velocity":0.36220472440944884},{"duration":0.10465116279069875,"midi":98,"time":20.686046511627907,"velocity":0.2440944881889764},{"duration":0.04651162790697683,"midi":51,"time":20.709302325581394,"velocity":0.2677165354330709},{"duration":0.23255813953488413,"midi":84,"time":20.709302325581394,"velocity":0.33070866141732286},{"duration":0.04651162790697683,"midi":101,"time":20.709302325581394,"velocity":0.1732283464566929},{"duration":0.08139534883721211,"midi":102,"time":20.709302325581394,"velocity":0.10236220472440945},{"duration":0.04651162790697683,"midi":82,"time":20.72093023255814,"velocity":0.16535433070866143},{"duration":0.04651162790697683,"midi":32,"time":20.732558139534884,"velocity":0.3228346456692913},{"duration":0.023255813953486637,"midi":76,"time":20.732558139534884,"velocity":0.3858267716535433},{"duration":0.03488372093023173,"midi":77,"time":20.74418604651163,"velocity":0.2440944881889764},{"duration":0.24418604651162568,"midi":99,"time":20.74418604651163,"velocity":0.29133858267716534},{"duration":0.1976744186046524,"midi":75,"time":20.75581395348837,"velocity":0.47244094488188976},{"duration":0.04651162790697683,"midi":91,"time":20.75581395348837,"velocity":0.1968503937007874},{"duration":0.10465116279069875,"midi":103,"time":20.75581395348837,"velocity":0.28346456692913385},{"duration":0.02325581395349019,"midi":78,"time":20.767441860465116,"velocity":0.2283464566929134},{"duration":0.06976744186046346,"midi":62,"time":20.790697674418606,"velocity":0.2047244094488189},{"duration":0.03488372093023173,"midi":79,"time":20.790697674418606,"velocity":0.2047244094488189},{"duration":0.08139534883720856,"midi":82,"time":20.790697674418606,"velocity":0.2047244094488189},{"duration":0.06976744186046702,"midi":46,"time":20.802325581395348,"velocity":0.29133858267716534},{"duration":0.04651162790697683,"midi":65,"time":20.802325581395348,"velocity":0.11811023622047244},{"duration":0.1860465116279073,"midi":98,"time":20.813953488372093,"velocity":0.2047244094488189},{"duration":0.03488372093023173,"midi":35,"time":20.825581395348838,"velocity":0.3464566929133858},{"duration":0.023255813953486637,"midi":57,"time":20.825581395348838,"velocity":0.3779527559055118},{"duration":0.03488372093023173,"midi":79,"time":20.837209302325583,"velocity":0.08661417322834646},{"duration":0.15116279069767202,"midi":102,"time":20.837209302325583,"velocity":0.1732283464566929},{"duration":0.02325581395349019,"midi":56,"time":20.848837209302324,"velocity":0.3228346456692913},{"duration":0.11627906976744384,"midi":101,"time":20.848837209302324,"velocity":0.14173228346456693},{"duration":0.04651162790697683,"midi":34,"time":20.86046511627907,"velocity":0.33858267716535434},{"duration":0.023255813953486637,"midi":57,"time":20.872093023255815,"velocity":0.3543307086614173},{"duration":0.023255813953486637,"midi":61,"time":20.88372093023256,"velocity":0.41732283464566927},{"duration":0.04651162790697683,"midi":45,"time":20.8953488372093,"velocity":0.5905511811023622},{"duration":0.034883720930235285,"midi":82,"time":20.8953488372093,"velocity":0.10236220472440945},{"duration":0.034883720930235285,"midi":86,"time":20.8953488372093,"velocity":0.10236220472440945},{"duration":0.08139534883721211,"midi":88,"time":20.8953488372093,"velocity":0.2047244094488189},{"duration":0.08139534883721211,"midi":90,"time":20.8953488372093,"velocity":0.2992125984251969},{"duration":0.06976744186046702,"midi":91,"time":20.8953488372093,"velocity":0.1732283464566929},{"duration":0.08139534883721211,"midi":95,"time":20.8953488372093,"velocity":0.15748031496062992},{"duration":0.04651162790697683,"midi":97,"time":20.8953488372093,"velocity":0.14173228346456693},{"duration":0.06976744186046702,"midi":103,"time":20.8953488372093,"velocity":0.18110236220472442},{"duration":0.03488372093023173,"midi":60,"time":20.906976744186046,"velocity":0.3779527559055118},{"duration":0.04651162790697683,"midi":81,"time":20.906976744186046,"velocity":0.14173228346456693},{"duration":0.11627906976744029,"midi":89,"time":20.906976744186046,"velocity":0.2125984251968504},{"duration":0.03488372093023173,"midi":94,"time":20.906976744186046,"velocity":0.14960629921259844},{"duration":0.011627906976745095,"midi":44,"time":20.941860465116278,"velocity":0.5984251968503937},{"duration":0.02325581395349019,"midi":52,"time":20.941860465116278,"velocity":0.33858267716535434},{"duration":0.04651162790697683,"midi":74,"time":20.941860465116278,"velocity":0.4251968503937008},{"duration":0.05813953488372192,"midi":83,"time":20.941860465116278,"velocity":0.25984251968503935},{"duration":0.011627906976745095,"midi":43,"time":20.953488372093023,"velocity":0.5748031496062992},{"duration":0.04651162790697683,"midi":70,"time":20.953488372093023,"velocity":0.14960629921259844},{"duration":0.011627906976745095,"midi":42,"time":20.96511627906977,"velocity":0.5433070866141733},{"duration":0.3023255813953476,"midi":68,"time":20.96511627906977,"velocity":0.3858267716535433},{"duration":0.03488372093023173,"midi":85,"time":20.96511627906977,"velocity":0.08661417322834646},{"duration":0.11627906976744384,"midi":72,"time":20.988372093023255,"velocity":0.25196850393700787},{"duration":0.04651162790697683,"midi":75,"time":20.988372093023255,"velocity":0.4251968503937008},{"duration":0.04651162790697683,"midi":84,"time":21,"velocity":0.2992125984251969},{"duration":0.05813953488372192,"midi":99,"time":21,"velocity":0.1968503937007874},{"duration":0.023255813953486637,"midi":37,"time":21.011627906976745,"velocity":0.3700787401574803},{"duration":0.04651162790697683,"midi":56,"time":21.011627906976745,"velocity":0.33858267716535434},{"duration":0.02325581395349019,"midi":78,"time":21.023255813953487,"velocity":0.2755905511811024},{"duration":0.05813953488372192,"midi":82,"time":21.023255813953487,"velocity":0.25196850393700787},{"duration":0.05813953488372192,"midi":86,"time":21.023255813953487,"velocity":0.1889763779527559},{"duration":0.034883720930235285,"midi":88,"time":21.023255813953487,"velocity":0.25196850393700787},{"duration":0.034883720930235285,"midi":93,"time":21.023255813953487,"velocity":0.12598425196850394},{"duration":0.04651162790697683,"midi":98,"time":21.023255813953487,"velocity":0.2283464566929134},{"duration":0.05813953488372192,"midi":101,"time":21.023255813953487,"velocity":0.1732283464566929},{"duration":0.02325581395349019,"midi":36,"time":21.03488372093023,"velocity":0.28346456692913385},{"duration":0.11627906976744384,"midi":61,"time":21.03488372093023,"velocity":0.25984251968503935},{"duration":0.03488372093023173,"midi":76,"time":21.03488372093023,"velocity":0.33070866141732286},{"duration":0.06976744186046702,"midi":77,"time":21.03488372093023,"velocity":0.2125984251968504},{"duration":0.05813953488372192,"midi":83,"time":21.03488372093023,"velocity":0.1732283464566929},{"duration":0.03488372093023173,"midi":91,"time":21.03488372093023,"velocity":0.2204724409448819},{"duration":0.13953488372093048,"midi":65,"time":21.046511627906977,"velocity":0.2125984251968504},{"duration":0.05813953488372192,"midi":79,"time":21.046511627906977,"velocity":0.28346456692913385},{"duration":0.023255813953486637,"midi":40,"time":21.058139534883722,"velocity":0.30708661417322836},{"duration":0.06976744186046346,"midi":49,"time":21.058139534883722,"velocity":0.3228346456692913},{"duration":0.023255813953486637,"midi":57,"time":21.058139534883722,"velocity":0.25984251968503935},{"duration":0.20930232558139394,"midi":84,"time":21.058139534883722,"velocity":0.33858267716535434},{"duration":0.3023255813953476,"midi":87,"time":21.058139534883722,"velocity":0.28346456692913385},{"duration":0.2093023255813975,"midi":75,"time":21.069767441860463,"velocity":0.3779527559055118},{"duration":0.04651162790697683,"midi":56,"time":21.08139534883721,"velocity":0.25196850393700787},{"duration":0.03488372093023173,"midi":37,"time":21.093023255813954,"velocity":0.3858267716535433},{"duration":0.04651162790697683,"midi":101,"time":21.093023255813954,"velocity":0.12598425196850394},{"duration":0.05813953488371837,"midi":70,"time":21.1046511627907,"velocity":0.2283464566929134},{"duration":0.023255813953486637,"midi":37,"time":21.13953488372093,"velocity":0.2440944881889764},{"duration":0.03488372093023173,"midi":49,"time":21.13953488372093,"velocity":0.2677165354330709},{"duration":0.09302325581395365,"midi":56,"time":21.13953488372093,"velocity":0.3858267716535433},{"duration":0.4534883720930232,"midi":72,"time":21.151162790697676,"velocity":0.30708661417322836},{"duration":0.04651162790697683,"midi":90,"time":21.151162790697676,"velocity":0.1968503937007874},{"duration":0.02325581395349019,"midi":61,"time":21.162790697674417,"velocity":0.2755905511811024},{"duration":0.04651162790697683,"midi":82,"time":21.162790697674417,"velocity":0.18110236220472442},{"duration":0.05813953488372192,"midi":85,"time":21.162790697674417,"velocity":0.2283464566929134},{"duration":0.034883720930235285,"midi":93,"time":21.162790697674417,"velocity":0.23622047244094488},{"duration":0.02325581395349019,"midi":47,"time":21.174418604651162,"velocity":0.3700787401574803},{"duration":0.06976744186046702,"midi":78,"time":21.174418604651162,"velocity":0.2755905511811024},{"duration":0.04651162790697683,"midi":81,"time":21.174418604651162,"velocity":0.2755905511811024},{"duration":0.04651162790697683,"midi":83,"time":21.174418604651162,"velocity":0.16535433070866143},{"duration":0.08139534883720856,"midi":60,"time":21.186046511627907,"velocity":0.2440944881889764},{"duration":0.06976744186046346,"midi":64,"time":21.186046511627907,"velocity":0.23622047244094488},{"duration":0.16279069767441712,"midi":70,"time":21.186046511627907,"velocity":0.25196850393700787},{"duration":0.11627906976744029,"midi":48,"time":21.197674418604652,"velocity":0.3228346456692913},{"duration":0.09302325581395365,"midi":36,"time":21.232558139534884,"velocity":0.3700787401574803},{"duration":0.02325581395349019,"midi":55,"time":21.267441860465116,"velocity":0.3700787401574803},{"duration":0.08139534883720856,"midi":68,"time":21.27906976744186,"velocity":0.3700787401574803},{"duration":0.08139534883720856,"midi":56,"time":21.290697674418606,"velocity":0.4094488188976378},{"duration":0.06976744186046346,"midi":75,"time":21.290697674418606,"velocity":0.4330708661417323},{"duration":0.034883720930235285,"midi":81,"time":21.348837209302324,"velocity":0.2204724409448819},{"duration":0.034883720930235285,"midi":88,"time":21.348837209302324,"velocity":0.14960629921259844},{"duration":0.034883720930235285,"midi":100,"time":21.348837209302324,"velocity":0.1732283464566929},{"duration":0.034883720930235285,"midi":101,"time":21.348837209302324,"velocity":0.10236220472440945},{"duration":0.03488372093023173,"midi":76,"time":21.36046511627907,"velocity":0.31496062992125984},{"duration":0.023255813953486637,"midi":57,"time":21.372093023255815,"velocity":0.3858267716535433},{"duration":0.06976744186046346,"midi":68,"time":21.372093023255815,"velocity":0.29133858267716534},{"duration":0.06976744186046346,"midi":87,"time":21.38372093023256,"velocity":0.13385826771653545},{"duration":0.06976744186046346,"midi":99,"time":21.38372093023256,"velocity":0.2125984251968504},{"duration":0.034883720930235285,"midi":56,"time":21.3953488372093,"velocity":0.30708661417322836},{"duration":0.08139534883721211,"midi":75,"time":21.3953488372093,"velocity":0.3543307086614173},{"duration":0.05813953488372192,"midi":102,"time":21.3953488372093,"velocity":0.18110236220472442},{"duration":0.11627906976744029,"midi":63,"time":21.41860465116279,"velocity":0.2125984251968504},{"duration":0.06976744186046346,"midi":100,"time":21.41860465116279,"velocity":0.12598425196850394},{"duration":0.03488372093023173,"midi":103,"time":21.41860465116279,"velocity":0.15748031496062992},{"duration":0.22093023255813904,"midi":70,"time":21.430232558139537,"velocity":0.2125984251968504},{"duration":0.023255813953486637,"midi":79,"time":21.430232558139537,"velocity":0.2440944881889764},{"duration":0.034883720930235285,"midi":55,"time":21.441860465116278,"velocity":0.36220472440944884},{"duration":0.02325581395349019,"midi":45,"time":21.453488372093023,"velocity":0.6377952755905512},{"duration":0.03488372093023173,"midi":83,"time":21.453488372093023,"velocity":0.10236220472440945},{"duration":0.011627906976741542,"midi":43,"time":21.476744186046513,"velocity":0.5984251968503937},{"duration":0.20930232558139394,"midi":56,"time":21.476744186046513,"velocity":0.4645669291338583},{"duration":0.02325581395349019,"midi":42,"time":21.488372093023255,"velocity":0.5826771653543307},{"duration":0.11627906976744384,"midi":75,"time":21.488372093023255,"velocity":0.3464566929133858},{"duration":0.03488372093023173,"midi":80,"time":21.488372093023255,"velocity":0.15748031496062992},{"duration":0.03488372093023173,"midi":36,"time":21.558139534883722,"velocity":0.33070866141732286},{"duration":0.04651162790697683,"midi":83,"time":21.593023255813954,"velocity":0.13385826771653545},{"duration":0.04651162790697683,"midi":100,"time":21.6046511627907,"velocity":0.09448818897637795},{"duration":0.11627906976744384,"midi":75,"time":21.61627906976744,"velocity":0.3543307086614173},{"duration":0.10465116279069875,"midi":84,"time":21.63953488372093,"velocity":0.1732283464566929},{"duration":0.15116279069767558,"midi":72,"time":21.662790697674417,"velocity":0.2440944881889764},{"duration":0.03488372093023173,"midi":81,"time":21.674418604651162,"velocity":0.18110236220472442},{"duration":0.03488372093023173,"midi":57,"time":21.686046511627907,"velocity":0.4094488188976378},{"duration":0.06976744186046346,"midi":68,"time":21.686046511627907,"velocity":0.4015748031496063},{"duration":0.10465116279069875,"midi":70,"time":21.709302325581394,"velocity":0.2992125984251969},{"duration":0.02325581395349019,"midi":56,"time":21.72093023255814,"velocity":0.33070866141732286},{"duration":0.16279069767442067,"midi":63,"time":21.72093023255814,"velocity":0.07086614173228346},{"duration":0.03488372093023173,"midi":55,"time":21.74418604651163,"velocity":0.4251968503937008},{"duration":0.2790697674418574,"midi":75,"time":21.74418604651163,"velocity":0.28346456692913385},{"duration":0.04651162790697683,"midi":68,"time":21.767441860465116,"velocity":0.3543307086614173},{"duration":0.04651162790697683,"midi":56,"time":21.77906976744186,"velocity":0.44881889763779526},{"duration":0.03488372093023173,"midi":57,"time":21.825581395348838,"velocity":0.4015748031496063},{"duration":0.08139534883720856,"midi":68,"time":21.825581395348838,"velocity":0.2125984251968504},{"duration":0.11627906976744029,"midi":70,"time":21.825581395348838,"velocity":0.2283464566929134},{"duration":0.09302325581395365,"midi":72,"time":21.848837209302324,"velocity":0.18110236220472442},{"duration":0.05813953488372192,"midi":56,"time":21.906976744186046,"velocity":0.4094488188976378},{"duration":0.023255813953486637,"midi":67,"time":21.930232558139537,"velocity":0.25196850393700787},{"duration":0.034883720930235285,"midi":73,"time":21.941860465116278,"velocity":0.1732283464566929},{"duration":0.03488372093023173,"midi":79,"time":21.953488372093023,"velocity":0.1889763779527559},{"duration":0.03488372093023173,"midi":82,"time":21.953488372093023,"velocity":0.11811023622047244},{"duration":0.05813953488372192,"midi":86,"time":21.953488372093023,"velocity":0.09448818897637795},{"duration":0.08139534883720856,"midi":88,"time":21.953488372093023,"velocity":0.2047244094488189},{"duration":0.09302325581395365,"midi":90,"time":21.953488372093023,"velocity":0.30708661417322836},{"duration":0.08139534883720856,"midi":93,"time":21.953488372093023,"velocity":0.14960629921259844},{"duration":0.06976744186046346,"midi":94,"time":21.953488372093023,"velocity":0.2283464566929134},{"duration":0.05813953488372192,"midi":95,"time":21.953488372093023,"velocity":0.13385826771653545},{"duration":0.05813953488372192,"midi":96,"time":21.953488372093023,"velocity":0.2047244094488189},{"duration":0.09302325581395365,"midi":97,"time":21.953488372093023,"velocity":0.1889763779527559},{"duration":0.05813953488372192,"midi":98,"time":21.953488372093023,"velocity":0.18110236220472442},{"duration":0.05813953488372192,"midi":99,"time":21.953488372093023,"velocity":0.1889763779527559},{"duration":0.03488372093023173,"midi":100,"time":21.953488372093023,"velocity":0.2204724409448819},{"duration":0.03488372093023173,"midi":45,"time":21.96511627906977,"velocity":0.6062992125984252},{"duration":0.011627906976745095,"midi":53,"time":21.96511627906977,"velocity":0.5196850393700787},{"duration":0.023255813953486637,"midi":60,"time":21.96511627906977,"velocity":0.3858267716535433},{"duration":0.023255813953486637,"midi":67,"time":21.96511627906977,"velocity":0.30708661417322836},{"duration":0.023255813953486637,"midi":70,"time":21.96511627906977,"velocity":0.2283464566929134},{"duration":0.05813953488371837,"midi":83,"time":21.96511627906977,"velocity":0.14960629921259844},{"duration":0.08139534883720856,"midi":89,"time":21.96511627906977,"velocity":0.2125984251968504},{"duration":0.04651162790697683,"midi":103,"time":21.96511627906977,"velocity":0.12598425196850394},{"duration":0.011627906976741542,"midi":52,"time":21.976744186046513,"velocity":0.5196850393700787},{"duration":0.03488372093023173,"midi":91,"time":21.976744186046513,"velocity":0.1968503937007874},{"duration":0.26744186046511587,"midi":68,"time":21.988372093023255,"velocity":0.30708661417322836},{"duration":0.011627906976745095,"midi":44,"time":22,"velocity":0.6141732283464567},{"duration":0.023255813953486637,"midi":52,"time":22,"velocity":0.33070866141732286},{"duration":0.011627906976741542,"midi":43,"time":22.011627906976745,"velocity":0.5905511811023622},{"duration":0.011627906976745095,"midi":42,"time":22.023255813953487,"velocity":0.5511811023622047},{"duration":0.034883720930235285,"midi":57,"time":22.023255813953487,"velocity":0.2992125984251969},{"duration":0.034883720930235285,"midi":85,"time":22.023255813953487,"velocity":0.13385826771653545},{"duration":0.02325581395349019,"midi":37,"time":22.069767441860463,"velocity":0.3858267716535433},{"duration":0.02325581395349019,"midi":56,"time":22.069767441860463,"velocity":0.25196850393700787},{"duration":0.03488372093023173,"midi":35,"time":22.1046511627907,"velocity":0.23622047244094488},{"duration":0.11627906976744029,"midi":75,"time":22.1046511627907,"velocity":0.18110236220472442},{"duration":0.06976744186046702,"midi":70,"time":22.11627906976744,"velocity":0.1889763779527559},{"duration":0.05813953488372192,"midi":72,"time":22.174418604651162,"velocity":0.25984251968503935},{"duration":0.03488372093023173,"midi":52,"time":22.197674418604652,"velocity":0.1889763779527559},{"duration":0.034883720930235285,"midi":85,"time":22.209302325581394,"velocity":0.2125984251968504},{"duration":0.03488372093023173,"midi":70,"time":22.22093023255814,"velocity":0.2992125984251969},{"duration":0.03488372093023173,"midi":76,"time":22.22093023255814,"velocity":0.15748031496062992},{"duration":0.05813953488372192,"midi":83,"time":22.22093023255814,"velocity":0.2204724409448819},{"duration":0.023255813953486637,"midi":48,"time":22.232558139534884,"velocity":0.29133858267716534},{"duration":0.05813953488372192,"midi":78,"time":22.232558139534884,"velocity":0.2204724409448819},{"duration":0.03488372093023173,"midi":86,"time":22.232558139534884,"velocity":0.2047244094488189},{"duration":0.03488372093023173,"midi":74,"time":22.24418604651163,"velocity":0.1968503937007874},{"duration":0.02325581395349019,"midi":40,"time":22.25581395348837,"velocity":0.3937007874015748},{"duration":0.034883720930235285,"midi":53,"time":22.25581395348837,"velocity":0.2677165354330709},{"duration":0.034883720930235285,"midi":71,"time":22.25581395348837,"velocity":0.18110236220472442},{"duration":0.05813953488372192,"midi":75,"time":22.25581395348837,"velocity":0.1968503937007874},{"duration":0.023255813953486637,"midi":42,"time":22.27906976744186,"velocity":0.33070866141732286},{"duration":0.05813953488372192,"midi":60,"time":22.27906976744186,"velocity":0.1889763779527559},{"duration":0.03488372093023173,"midi":48,"time":22.290697674418606,"velocity":0.2992125984251969},{"duration":0.03488372093023173,"midi":70,"time":22.290697674418606,"velocity":0.1889763779527559},{"duration":0.05813953488372192,"midi":41,"time":22.302325581395348,"velocity":0.2992125984251969},{"duration":0.11627906976744384,"midi":68,"time":22.313953488372093,"velocity":0.29133858267716534},{"duration":0.034883720930235285,"midi":54,"time":22.348837209302324,"velocity":0.25196850393700787},{"duration":0.04651162790697683,"midi":88,"time":22.348837209302324,"velocity":0.2204724409448819},{"duration":0.04651162790697683,"midi":91,"time":22.348837209302324,"velocity":0.1968503937007874},{"duration":0.02325581395349019,"midi":59,"time":22.36046511627907,"velocity":0.25984251968503935},{"duration":0.03488372093023173,"midi":74,"time":22.36046511627907,"velocity":0.1889763779527559},{"duration":0.08139534883720856,"midi":76,"time":22.36046511627907,"velocity":0.25196850393700787},{"duration":0.04651162790697683,"midi":83,"time":22.36046511627907,"velocity":0.2125984251968504},{"duration":0.05813953488372192,"midi":70,"time":22.372093023255815,"velocity":0.13385826771653545},{"duration":0.1046511627906952,"midi":53,"time":22.38372093023256,"velocity":0.28346456692913385},{"duration":0.09302325581395365,"midi":58,"time":22.38372093023256,"velocity":0.2755905511811024},{"duration":0.06976744186046346,"midi":62,"time":22.38372093023256,"velocity":0.2047244094488189},{"duration":0.03488372093023173,"midi":79,"time":22.38372093023256,"velocity":0.18110236220472442},{"duration":0.08139534883721211,"midi":46,"time":22.3953488372093,"velocity":0.3464566929133858},{"duration":0.023255813953486637,"midi":34,"time":22.430232558139537,"velocity":0.3700787401574803},{"duration":0.023255813953486637,"midi":34,"time":22.46511627906977,"velocity":0.29133858267716534},{"duration":0.03488372093023173,"midi":63,"time":22.476744186046513,"velocity":0.2677165354330709},{"duration":0.046511627906973274,"midi":74,"time":22.476744186046513,"velocity":0.1968503937007874},{"duration":0.03488372093023173,"midi":90,"time":22.476744186046513,"velocity":0.14173228346456693},{"duration":0.03488372093023173,"midi":96,"time":22.476744186046513,"velocity":0.1968503937007874},{"duration":0.03488372093023173,"midi":100,"time":22.476744186046513,"velocity":0.1732283464566929},{"duration":0.03488372093023173,"midi":103,"time":22.476744186046513,"velocity":0.16535433070866143},{"duration":0.02325581395349019,"midi":66,"time":22.488372093023255,"velocity":0.2283464566929134},{"duration":0.03488372093023173,"midi":78,"time":22.488372093023255,"velocity":0.29133858267716534},{"duration":0.03488372093023173,"midi":83,"time":22.488372093023255,"velocity":0.13385826771653545},{"duration":0.03488372093023173,"midi":88,"time":22.488372093023255,"velocity":0.2125984251968504},{"duration":0.03488372093023173,"midi":91,"time":22.488372093023255,"velocity":0.2204724409448819},{"duration":0.04651162790697683,"midi":102,"time":22.488372093023255,"velocity":0.16535433070866143},{"duration":0.011627906976745095,"midi":48,"time":22.5,"velocity":0.5118110236220472},{"duration":0.023255813953486637,"midi":58,"time":22.5,"velocity":0.2283464566929134},{"duration":0.06976744186046346,"midi":76,"time":22.5,"velocity":0.1968503937007874},{"duration":0.12790697674418539,"midi":80,"time":22.5,"velocity":0.18110236220472442},{"duration":0.011627906976741542,"midi":46,"time":22.511627906976745,"velocity":0.5984251968503937},{"duration":0.1744186046511622,"midi":65,"time":22.511627906976745,"velocity":0.2047244094488189},{"duration":0.03488372093023173,"midi":68,"time":22.511627906976745,"velocity":0.11023622047244094},{"duration":0.04651162790697683,"midi":79,"time":22.511627906976745,"velocity":0.11023622047244094},{"duration":0.04651162790697683,"midi":82,"time":22.511627906976745,"velocity":0.07086614173228346},{"duration":0.011627906976745095,"midi":45,"time":22.523255813953487,"velocity":0.6377952755905512},{"duration":0.011627906976745095,"midi":44,"time":22.53488372093023,"velocity":0.6141732283464567},{"duration":0.023255813953486637,"midi":42,"time":22.546511627906977,"velocity":0.5669291338582677},{"duration":0.04651162790697683,"midi":53,"time":22.546511627906977,"velocity":0.31496062992125984},{"duration":0.12790697674418539,"midi":58,"time":22.546511627906977,"velocity":0.2047244094488189},{"duration":0.03488372093023173,"midi":61,"time":22.558139534883722,"velocity":0.2125984251968504},{"duration":0.05813953488372192,"midi":37,"time":22.593023255813954,"velocity":0.41732283464566927},{"duration":0.13953488372093048,"midi":73,"time":22.593023255813954,"velocity":0.14960629921259844},{"duration":0.04651162790697683,"midi":78,"time":22.593023255813954,"velocity":0.14960629921259844},{"duration":0.05813953488372192,"midi":54,"time":22.627906976744185,"velocity":0.1889763779527559},{"duration":0.06976744186046346,"midi":82,"time":22.651162790697676,"velocity":0.13385826771653545},{"duration":0.26744186046511587,"midi":89,"time":22.651162790697676,"velocity":0.25984251968503935},{"duration":0.3139534883720927,"midi":70,"time":22.674418604651162,"velocity":0.3228346456692913},{"duration":0.03488372093023173,"midi":78,"time":22.674418604651162,"velocity":0.16535433070866143},{"duration":0.03488372093023173,"midi":48,"time":22.686046511627907,"velocity":0.3464566929133858},{"duration":0.05813953488372192,"midi":61,"time":22.686046511627907,"velocity":0.1889763779527559},{"duration":0.06976744186046346,"midi":66,"time":22.686046511627907,"velocity":0.23622047244094488},{"duration":0.05813953488371837,"midi":77,"time":22.697674418604652,"velocity":0.2204724409448819},{"duration":0.03488372093023173,"midi":49,"time":22.72093023255814,"velocity":0.33858267716535434},{"duration":0.03488372093023173,"midi":58,"time":22.72093023255814,"velocity":0.13385826771653545},{"duration":0.08139534883720856,"midi":86,"time":22.74418604651163,"velocity":0.23622047244094488},{"duration":0.03488372093023173,"midi":87,"time":22.74418604651163,"velocity":0.14960629921259844},{"duration":0.03488372093023173,"midi":92,"time":22.74418604651163,"velocity":0.14173228346456693},{"duration":0.02325581395349019,"midi":78,"time":22.75581395348837,"velocity":0.23622047244094488},{"duration":0.04651162790697683,"midi":81,"time":22.75581395348837,"velocity":0.2047244094488189},{"duration":0.034883720930235285,"midi":84,"time":22.75581395348837,"velocity":0.09448818897637795},{"duration":0.11627906976744384,"midi":44,"time":22.767441860465116,"velocity":0.3779527559055118},{"duration":0.08139534883720856,"midi":66,"time":22.767441860465116,"velocity":0.33858267716535434},{"duration":0.03488372093023173,"midi":72,"time":22.767441860465116,"velocity":0.14173228346456693},{"duration":0.05813953488372192,"midi":74,"time":22.767441860465116,"velocity":0.2677165354330709},{"duration":0.11627906976744384,"midi":102,"time":22.767441860465116,"velocity":0.2125984251968504},{"duration":0.023255813953486637,"midi":56,"time":22.77906976744186,"velocity":0.5354330708661418},{"duration":0.10465116279069875,"midi":77,"time":22.77906976744186,"velocity":0.30708661417322836},{"duration":0.1744186046511622,"midi":96,"time":22.790697674418606,"velocity":0.2283464566929134},{"duration":0.06976744186046702,"midi":51,"time":22.802325581395348,"velocity":0.2992125984251969},{"duration":0.12790697674418894,"midi":92,"time":22.802325581395348,"velocity":0.28346456692913385},{"duration":0.16279069767442067,"midi":94,"time":22.802325581395348,"velocity":0.2755905511811024},{"duration":0.16279069767442067,"midi":58,"time":22.813953488372093,"velocity":0.48031496062992124},{"duration":0.03488372093023173,"midi":33,"time":22.825581395348838,"velocity":0.3228346456692913},{"duration":0.03488372093023173,"midi":32,"time":22.86046511627907,"velocity":0.31496062992125984},{"duration":0.15116279069767558,"midi":66,"time":22.86046511627907,"velocity":0.2677165354330709},{"duration":0.09302325581395365,"midi":86,"time":22.872093023255815,"velocity":0.18110236220472442},{"duration":0.04651162790697683,"midi":88,"time":22.872093023255815,"velocity":0.1889763779527559},{"duration":0.023255813953486637,"midi":48,"time":22.88372093023256,"velocity":0.25984251968503935},{"duration":0.08139534883720856,"midi":76,"time":22.88372093023256,"velocity":0.25196850393700787},{"duration":0.04651162790697683,"midi":79,"time":22.88372093023256,"velocity":0.2283464566929134},{"duration":0.04651162790697683,"midi":83,"time":22.88372093023256,"velocity":0.2047244094488189},{"duration":0.08139534883721211,"midi":53,"time":22.8953488372093,"velocity":0.2992125984251969},{"duration":0.04651162790697683,"midi":80,"time":22.8953488372093,"velocity":0.2283464566929134},{"duration":0.05813953488372192,"midi":62,"time":22.906976744186046,"velocity":0.1889763779527559},{"duration":0.10465116279069875,"midi":77,"time":22.906976744186046,"velocity":0.2677165354330709},{"duration":0.06976744186046346,"midi":46,"time":22.91860465116279,"velocity":0.31496062992125984},{"duration":0.3720930232558146,"midi":73,"time":22.91860465116279,"velocity":0.2992125984251969},{"duration":0.03488372093023173,"midi":102,"time":22.930232558139537,"velocity":0.14960629921259844},{"duration":0.034883720930235285,"midi":35,"time":22.941860465116278,"velocity":0.3464566929133858},{"duration":0.05813953488371837,"midi":34,"time":22.976744186046513,"velocity":0.3464566929133858},{"duration":0.03488372093023173,"midi":57,"time":22.976744186046513,"velocity":0.5511811023622047},{"duration":0.02325581395349019,"midi":47,"time":22.988372093023255,"velocity":0.25196850393700787},{"duration":0.26744186046511587,"midi":70,"time":23,"velocity":0.4566929133858268},{"duration":0.03488372093023173,"midi":99,"time":23,"velocity":0.14960629921259844},{"duration":0.03488372093023173,"midi":58,"time":23.011627906976745,"velocity":0.5748031496062992},{"duration":0.03488372093023173,"midi":80,"time":23.011627906976745,"velocity":0.1732283464566929},{"duration":0.03488372093023173,"midi":84,"time":23.011627906976745,"velocity":0.11811023622047244},{"duration":0.06976744186046346,"midi":86,"time":23.011627906976745,"velocity":0.1889763779527559},{"duration":0.08139534883720856,"midi":88,"time":23.011627906976745,"velocity":0.2204724409448819},{"duration":0.08139534883720856,"midi":90,"time":23.011627906976745,"velocity":0.2755905511811024},{"duration":0.05813953488371837,"midi":91,"time":23.011627906976745,"velocity":0.13385826771653545},{"duration":0.03488372093023173,"midi":95,"time":23.011627906976745,"velocity":0.14960629921259844},{"duration":0.05813953488371837,"midi":96,"time":23.011627906976745,"velocity":0.1889763779527559},{"duration":0.05813953488371837,"midi":97,"time":23.011627906976745,"velocity":0.12598425196850394},{"duration":0.08139534883720856,"midi":101,"time":23.011627906976745,"velocity":0.2204724409448819},{"duration":0.034883720930235285,"midi":45,"time":23.023255813953487,"velocity":0.5826771653543307},{"duration":0.02325581395349019,"midi":66,"time":23.023255813953487,"velocity":0.31496062992125984},{"duration":0.2558139534883743,"midi":77,"time":23.023255813953487,"velocity":0.36220472440944884},{"duration":0.04651162790697683,"midi":93,"time":23.023255813953487,"velocity":0.07874015748031496},{"duration":0.1860465116279073,"midi":82,"time":23.046511627906977,"velocity":0.47244094488188976},{"duration":0.011627906976741542,"midi":44,"time":23.058139534883722,"velocity":0.5905511811023622},{"duration":0.023255813953486637,"midi":52,"time":23.058139534883722,"velocity":0.30708661417322836},{"duration":0.1046511627906952,"midi":58,"time":23.058139534883722,"velocity":0.3464566929133858},{"duration":0.25581395348837077,"midi":66,"time":23.058139534883722,"velocity":0.3228346456692913},{"duration":0.011627906976745095,"midi":43,"time":23.069767441860463,"velocity":0.5748031496062992},{"duration":0.011627906976745095,"midi":42,"time":23.08139534883721,"velocity":0.5354330708661418},{"duration":0.023255813953486637,"midi":53,"time":23.1046511627907,"velocity":0.25196850393700787},{"duration":0.02325581395349019,"midi":37,"time":23.127906976744185,"velocity":0.3700787401574803},{"duration":0.023255813953486637,"midi":48,"time":23.151162790697676,"velocity":0.3464566929133858},{"duration":0.09302325581395365,"midi":80,"time":23.151162790697676,"velocity":0.16535433070866143},{"duration":0.04651162790697683,"midi":84,"time":23.151162790697676,"velocity":0.14173228346456693},{"duration":0.04651162790697683,"midi":86,"time":23.151162790697676,"velocity":0.2047244094488189},{"duration":0.03488372093023173,"midi":91,"time":23.151162790697676,"velocity":0.13385826771653545},{"duration":0.02325581395349019,"midi":57,"time":23.162790697674417,"velocity":0.33858267716535434},{"duration":0.09302325581395365,"midi":61,"time":23.162790697674417,"velocity":0.25984251968503935},{"duration":0.04651162790697683,"midi":75,"time":23.162790697674417,"velocity":0.11811023622047244},{"duration":0.05813953488372192,"midi":79,"time":23.162790697674417,"velocity":0.2204724409448819},{"duration":0.04651162790697683,"midi":49,"time":23.174418604651162,"velocity":0.31496062992125984},{"duration":0.023255813953486637,"midi":55,"time":23.197674418604652,"velocity":0.2677165354330709},{"duration":0.034883720930235285,"midi":37,"time":23.209302325581394,"velocity":0.3700787401574803},{"duration":0.02325581395349019,"midi":56,"time":23.22093023255814,"velocity":0.28346456692913385},{"duration":0.15116279069767202,"midi":55,"time":23.24418604651163,"velocity":0.3700787401574803},{"duration":0.034883720930235285,"midi":37,"time":23.25581395348837,"velocity":0.2283464566929134},{"duration":0.29069767441860606,"midi":84,"time":23.267441860465116,"velocity":0.41732283464566927},{"duration":0.22093023255813904,"midi":70,"time":23.27906976744186,"velocity":0.2440944881889764},{"duration":0.08139534883720856,"midi":81,"time":23.27906976744186,"velocity":0.23622047244094488},{"duration":0.03488372093023173,"midi":92,"time":23.27906976744186,"velocity":0.14173228346456693},{"duration":0.16279069767441712,"midi":94,"time":23.27906976744186,"velocity":0.3228346456692913},{"duration":0.06976744186046346,"midi":98,"time":23.27906976744186,"velocity":0.31496062992125984},{"duration":0.04651162790697683,"midi":100,"time":23.27906976744186,"velocity":0.13385826771653545},{"duration":0.10465116279069875,"midi":102,"time":23.27906976744186,"velocity":0.33070866141732286},{"duration":0.03488372093023173,"midi":64,"time":23.290697674418606,"velocity":0.1889763779527559},{"duration":0.15116279069767202,"midi":72,"time":23.290697674418606,"velocity":0.3779527559055118},{"duration":0.04651162790697683,"midi":83,"time":23.290697674418606,"velocity":0.10236220472440945},{"duration":0.10465116279069875,"midi":48,"time":23.302325581395348,"velocity":0.3779527559055118},{"duration":0.04651162790697683,"midi":79,"time":23.302325581395348,"velocity":0.2125984251968504},{"duration":0.1860465116279073,"midi":88,"time":23.302325581395348,"velocity":0.1732283464566929},{"duration":0.03488372093023173,"midi":77,"time":23.313953488372093,"velocity":0.15748031496062992},{"duration":0.10465116279069875,"midi":60,"time":23.325581395348838,"velocity":0.4330708661417323},{"duration":0.22093023255813904,"midi":66,"time":23.325581395348838,"velocity":0.29133858267716534},{"duration":0.22093023255813904,"midi":91,"time":23.325581395348838,"velocity":0.28346456692913385},{"duration":0.06976744186046702,"midi":36,"time":23.348837209302324,"velocity":0.33858267716535434},{"duration":0.22093023255813904,"midi":77,"time":23.372093023255815,"velocity":0.33858267716535434},{"duration":0.023255813953486637,"midi":61,"time":23.430232558139537,"velocity":0.4251968503937008},{"duration":0.10465116279069875,"midi":60,"time":23.453488372093023,"velocity":0.49606299212598426},{"duration":0.04651162790697683,"midi":79,"time":23.5,"velocity":0.18110236220472442},{"duration":0.25581395348837077,"midi":70,"time":23.511627906976745,"velocity":0.31496062992125984},{"duration":0.05813953488371837,"midi":88,"time":23.511627906976745,"velocity":0.2440944881889764},{"duration":0.04651162790697683,"midi":92,"time":23.53488372093023,"velocity":0.25196850393700787},{"duration":0.03488372093023173,"midi":97,"time":23.53488372093023,"velocity":0.15748031496062992},{"duration":0.023255813953486637,"midi":68,"time":23.546511627906977,"velocity":0.2677165354330709},{"duration":0.06976744186046346,"midi":74,"time":23.546511627906977,"velocity":0.2204724409448819},{"duration":0.05813953488372192,"midi":81,"time":23.546511627906977,"velocity":0.2047244094488189},{"duration":0.3488372093023244,"midi":85,"time":23.546511627906977,"velocity":0.4566929133858268},{"duration":0.08139534883720856,"midi":95,"time":23.546511627906977,"velocity":0.30708661417322836},{"duration":0.04651162790697683,"midi":61,"time":23.558139534883722,"velocity":0.41732283464566927},{"duration":0.011627906976745095,"midi":46,"time":23.569767441860463,"velocity":0.5433070866141733},{"duration":0.011627906976745095,"midi":45,"time":23.58139534883721,"velocity":0.5905511811023622},{"duration":0.03488372093023173,"midi":42,"time":23.593023255813954,"velocity":0.5905511811023622},{"duration":0.08139534883720856,"midi":66,"time":23.593023255813954,"velocity":0.1968503937007874},{"duration":0.03488372093023173,"midi":103,"time":23.593023255813954,"velocity":0.11023622047244094},{"duration":0.3488372093023244,"midi":77,"time":23.6046511627907,"velocity":0.31496062992125984},{"duration":0.15116279069767202,"midi":80,"time":23.6046511627907,"velocity":0.2047244094488189},{"duration":0.05813953488372192,"midi":51,"time":23.61627906976744,"velocity":0.30708661417322836},{"duration":0.15116279069767558,"midi":61,"time":23.61627906976744,"velocity":0.44881889763779526},{"duration":0.13953488372093048,"midi":102,"time":23.627906976744185,"velocity":0.18110236220472442},{"duration":0.06976744186046702,"midi":101,"time":23.674418604651162,"velocity":0.15748031496062992},{"duration":0.023255813953486637,"midi":34,"time":23.686046511627907,"velocity":0.3937007874015748},{"duration":0.04651162790697683,"midi":84,"time":23.697674418604652,"velocity":0.14960629921259844},{"duration":0.08139534883720856,"midi":66,"time":23.72093023255814,"velocity":0.12598425196850394},{"duration":0.02325581395349019,"midi":72,"time":23.75581395348837,"velocity":0.3858267716535433},{"duration":0.02325581395349019,"midi":79,"time":23.75581395348837,"velocity":0.23622047244094488},{"duration":0.16279069767442067,"midi":98,"time":23.75581395348837,"velocity":0.2440944881889764},{"duration":0.04651162790697683,"midi":73,"time":23.767441860465116,"velocity":0.2677165354330709},{"duration":0.05813953488372192,"midi":101,"time":23.767441860465116,"velocity":0.12598425196850394},{"duration":0.023255813953486637,"midi":59,"time":23.77906976744186,"velocity":0.4330708661417323},{"duration":0.09302325581395365,"midi":80,"time":23.790697674418606,"velocity":0.1968503937007874},{"duration":0.04651162790697683,"midi":102,"time":23.790697674418606,"velocity":0.15748031496062992},{"duration":0.16279069767442067,"midi":58,"time":23.802325581395348,"velocity":0.44881889763779526},{"duration":0.26744186046511587,"midi":70,"time":23.802325581395348,"velocity":0.44881889763779526},{"duration":0.034883720930235285,"midi":74,"time":23.802325581395348,"velocity":0.2283464566929134},{"duration":0.05813953488372192,"midi":88,"time":23.802325581395348,"velocity":0.2677165354330709},{"duration":0.034883720930235285,"midi":90,"time":23.802325581395348,"velocity":0.13385826771653545},{"duration":0.04651162790697683,"midi":91,"time":23.802325581395348,"velocity":0.25984251968503935},{"duration":0.10465116279069875,"midi":53,"time":23.813953488372093,"velocity":0.3228346456692913},{"duration":0.04651162790697683,"midi":68,"time":23.813953488372093,"velocity":0.1968503937007874},{"duration":0.08139534883720856,"midi":76,"time":23.813953488372093,"velocity":0.25984251968503935},{"duration":0.03488372093023173,"midi":83,"time":23.813953488372093,"velocity":0.1889763779527559},{"duration":0.023255813953486637,"midi":45,"time":23.825581395348838,"velocity":0.3937007874015748},{"duration":0.03488372093023173,"midi":79,"time":23.825581395348838,"velocity":0.2204724409448819},{"duration":0.1046511627906952,"midi":66,"time":23.837209302325583,"velocity":0.2047244094488189},{"duration":0.03488372093023173,"midi":81,"time":23.837209302325583,"velocity":0.14173228346456693},{"duration":0.08139534883721211,"midi":46,"time":23.848837209302324,"velocity":0.3228346456692913},{"duration":0.09302325581395365,"midi":73,"time":23.848837209302324,"velocity":0.28346456692913385},{"duration":0.03488372093023173,"midi":61,"time":23.86046511627907,"velocity":0.33858267716535434},{"duration":0.023255813953486637,"midi":35,"time":23.872093023255815,"velocity":0.3543307086614173},{"duration":0.08139534883720856,"midi":101,"time":23.872093023255815,"velocity":0.09448818897637795},{"duration":0.04651162790697683,"midi":34,"time":23.8953488372093,"velocity":0.3464566929133858},{"duration":0.10465116279069875,"midi":102,"time":23.8953488372093,"velocity":0.25196850393700787},{"duration":0.02325581395349019,"midi":61,"time":23.906976744186046,"velocity":0.2677165354330709},{"duration":0.04651162790697683,"midi":86,"time":23.930232558139537,"velocity":0.2204724409448819},{"duration":0.12790697674418539,"midi":66,"time":23.953488372093023,"velocity":0.41732283464566927},{"duration":0.03488372093023173,"midi":83,"time":23.953488372093023,"velocity":0.1732283464566929},{"duration":0.03488372093023173,"midi":103,"time":23.953488372093023,"velocity":0.08661417322834646},{"duration":0.03488372093023173,"midi":59,"time":23.96511627906977,"velocity":0.4409448818897638},{"duration":0.04651162790697683,"midi":100,"time":23.96511627906977,"velocity":0.2125984251968504},{"duration":0.3488372093023244,"midi":73,"time":23.976744186046513,"velocity":0.2283464566929134},{"duration":0.13953488372092693,"midi":77,"time":23.976744186046513,"velocity":0.2283464566929134},{"duration":0.02325581395349019,"midi":58,"time":24.03488372093023,"velocity":0.29133858267716534},{"duration":0.023255813953486637,"midi":57,"time":24.058139534883722,"velocity":0.4251968503937008},{"duration":0.04651162790697683,"midi":100,"time":24.058139534883722,"velocity":0.15748031496062992},{"duration":0.034883720930235285,"midi":80,"time":24.069767441860463,"velocity":0.11023622047244094},{"duration":0.034883720930235285,"midi":84,"time":24.069767441860463,"velocity":0.14960629921259844},{"duration":0.034883720930235285,"midi":87,"time":24.069767441860463,"velocity":0.2283464566929134},{"duration":0.06976744186046702,"midi":88,"time":24.069767441860463,"velocity":0.2047244094488189},{"duration":0.08139534883721211,"midi":90,"time":24.069767441860463,"velocity":0.30708661417322836},{"duration":0.06976744186046702,"midi":93,"time":24.069767441860463,"velocity":0.11811023622047244},{"duration":0.05813953488372192,"midi":95,"time":24.069767441860463,"velocity":0.1732283464566929},{"duration":0.04651162790697683,"midi":97,"time":24.069767441860463,"velocity":0.12598425196850394},{"duration":0.034883720930235285,"midi":98,"time":24.069767441860463,"velocity":0.18110236220472442},{"duration":0.06976744186046702,"midi":101,"time":24.069767441860463,"velocity":0.1968503937007874},{"duration":0.03488372093023173,"midi":45,"time":24.08139534883721,"velocity":0.6062992125984252},{"duration":0.011627906976745095,"midi":53,"time":24.08139534883721,"velocity":0.5118110236220472},{"duration":0.02325581395349019,"midi":67,"time":24.08139534883721,"velocity":0.30708661417322836},{"duration":0.09302325581395365,"midi":70,"time":24.08139534883721,"velocity":0.15748031496062992},{"duration":0.04651162790697683,"midi":81,"time":24.08139534883721,"velocity":0.14960629921259844},{"duration":0.08139534883720856,"midi":89,"time":24.08139534883721,"velocity":0.2283464566929134},{"duration":0.05813953488372192,"midi":91,"time":24.08139534883721,"velocity":0.15748031496062992},{"duration":0.011627906976745095,"midi":51,"time":24.093023255813954,"velocity":0.5118110236220472},{"duration":0.03488372093023173,"midi":66,"time":24.1046511627907,"velocity":0.11811023622047244},{"duration":0.04651162790697683,"midi":99,"time":24.1046511627907,"velocity":0.10236220472440945},{"duration":0.011627906976745095,"midi":44,"time":24.11627906976744,"velocity":0.6062992125984252},{"duration":0.02325581395349019,"midi":52,"time":24.11627906976744,"velocity":0.31496062992125984},{"duration":0.011627906976745095,"midi":43,"time":24.127906976744185,"velocity":0.5826771653543307},{"duration":0.03488372093023173,"midi":87,"time":24.127906976744185,"velocity":0.07874015748031496},{"duration":0.011627906976745095,"midi":42,"time":24.13953488372093,"velocity":0.5433070866141733},{"duration":0.023255813953486637,"midi":58,"time":24.151162790697676,"velocity":0.25196850393700787},{"duration":0.02325581395349019,"midi":53,"time":24.162790697674417,"velocity":0.2755905511811024},{"duration":0.15116279069767558,"midi":66,"time":24.174418604651162,"velocity":0.2677165354330709},{"duration":0.09302325581395365,"midi":77,"time":24.174418604651162,"velocity":0.28346456692913385},{"duration":0.023255813953486637,"midi":37,"time":24.186046511627907,"velocity":0.3779527559055118},{"duration":0.1860465116279073,"midi":70,"time":24.186046511627907,"velocity":0.1968503937007874},{"duration":0.03488372093023173,"midi":35,"time":24.22093023255814,"velocity":0.2204724409448819},{"duration":0.03488372093023173,"midi":56,"time":24.325581395348838,"velocity":0.3700787401574803},{"duration":0.10465116279069875,"midi":68,"time":24.325581395348838,"velocity":0.3779527559055118},{"duration":0.10465116279069875,"midi":77,"time":24.325581395348838,"velocity":0.1732283464566929},{"duration":0.023255813953486637,"midi":79,"time":24.325581395348838,"velocity":0.2677165354330709},{"duration":0.05813953488372192,"midi":83,"time":24.325581395348838,"velocity":0.1889763779527559},{"duration":0.05813953488372192,"midi":89,"time":24.325581395348838,"velocity":0.2440944881889764},{"duration":0.03488372093023173,"midi":92,"time":24.325581395348838,"velocity":0.25196850393700787},{"duration":0.03488372093023173,"midi":94,"time":24.325581395348838,"velocity":0.12598425196850394},{"duration":0.03488372093023173,"midi":97,"time":24.325581395348838,"velocity":0.15748031496062992},{"duration":0.04651162790697683,"midi":99,"time":24.325581395348838,"velocity":0.11023622047244094},{"duration":0.04651162790697683,"midi":45,"time":24.337209302325583,"velocity":0.3937007874015748},{"duration":0.03488372093023173,"midi":75,"time":24.337209302325583,"velocity":0.44881889763779526},{"duration":0.03488372093023173,"midi":86,"time":24.337209302325583,"velocity":0.15748031496062992},{"duration":0.05813953488371837,"midi":88,"time":24.337209302325583,"velocity":0.2283464566929134},{"duration":0.03488372093023173,"midi":96,"time":24.337209302325583,"velocity":0.11811023622047244},{"duration":0.04651162790697683,"midi":102,"time":24.348837209302324,"velocity":0.11023622047244094},{"duration":0.03488372093023173,"midi":93,"time":24.36046511627907,"velocity":0.2283464566929134},{"duration":0.023255813953486637,"midi":57,"time":24.372093023255815,"velocity":0.4330708661417323},{"duration":0.03488372093023173,"midi":62,"time":24.372093023255815,"velocity":0.14960629921259844},{"duration":0.08139534883720856,"midi":76,"time":24.372093023255815,"velocity":0.36220472440944884},{"duration":0.03488372093023173,"midi":79,"time":24.372093023255815,"velocity":0.12598425196850394},{"duration":0.03488372093023173,"midi":81,"time":24.372093023255815,"velocity":0.2755905511811024},{"duration":0.03488372093023173,"midi":90,"time":24.372093023255815,"velocity":0.25984251968503935},{"duration":0.023255813953486637,"midi":46,"time":24.38372093023256,"velocity":0.28346456692913385},{"duration":0.03488372093023173,"midi":70,"time":24.38372093023256,"velocity":0.23622047244094488},{"duration":0.034883720930235285,"midi":35,"time":24.3953488372093,"velocity":0.33858267716535434},{"duration":0.02325581395349019,"midi":56,"time":24.3953488372093,"velocity":0.4645669291338583},{"duration":0.05813953488372192,"midi":57,"time":24.41860465116279,"velocity":0.5039370078740157},{"duration":0.03488372093023173,"midi":97,"time":24.41860465116279,"velocity":0.11023622047244094},{"duration":0.04651162790697683,"midi":34,"time":24.430232558139537,"velocity":0.31496062992125984},{"duration":0.03488372093023173,"midi":66,"time":24.430232558139537,"velocity":0.15748031496062992},{"duration":0.04651162790697683,"midi":74,"time":24.453488372093023,"velocity":0.12598425196850394},{"duration":0.04651162790697683,"midi":68,"time":24.46511627906977,"velocity":0.23622047244094488},{"duration":0.08139534883720856,"midi":79,"time":24.46511627906977,"velocity":0.1889763779527559},{"duration":0.04651162790697683,"midi":88,"time":24.46511627906977,"velocity":0.15748031496062992},{"duration":0.03488372093023173,"midi":76,"time":24.476744186046513,"velocity":0.18110236220472442},{"duration":0.03488372093023173,"midi":83,"time":24.476744186046513,"velocity":0.14960629921259844},{"duration":0.02325581395349019,"midi":45,"time":24.488372093023255,"velocity":0.30708661417322836},{"duration":0.04651162790697683,"midi":62,"time":24.488372093023255,"velocity":0.16535433070866143},{"duration":0.05813953488372192,"midi":77,"time":24.5,"velocity":0.11811023622047244},{"duration":0.02325581395349019,"midi":36,"time":24.523255813953487,"velocity":0.2755905511811024},{"duration":0.05813953488372192,"midi":75,"time":24.523255813953487,"velocity":0.25196850393700787},{"duration":0.02325581395349019,"midi":57,"time":24.53488372093023,"velocity":0.2440944881889764},{"duration":0.03488372093023173,"midi":68,"time":24.546511627906977,"velocity":0.1732283464566929},{"duration":0.04651162790697683,"midi":34,"time":24.558139534883722,"velocity":0.25196850393700787},{"duration":0.04651162790697683,"midi":57,"time":24.569767441860463,"velocity":0.33858267716535434},{"duration":0.08139534883720856,"midi":76,"time":24.58139534883721,"velocity":0.25196850393700787},{"duration":0.03488372093023173,"midi":78,"time":24.593023255813954,"velocity":0.16535433070866143},{"duration":0.023255813953486637,"midi":79,"time":24.593023255813954,"velocity":0.23622047244094488},{"duration":0.04651162790697683,"midi":84,"time":24.593023255813954,"velocity":0.2204724409448819},{"duration":0.03488372093023173,"midi":85,"time":24.593023255813954,"velocity":0.1968503937007874},{"duration":0.05813953488372192,"midi":89,"time":24.593023255813954,"velocity":0.18110236220472442},{"duration":0.03488372093023173,"midi":90,"time":24.593023255813954,"velocity":0.16535433070866143},{"duration":0.03488372093023173,"midi":93,"time":24.593023255813954,"velocity":0.14960629921259844},{"duration":0.03488372093023173,"midi":98,"time":24.593023255813954,"velocity":0.16535433070866143},{"duration":0.04651162790697683,"midi":101,"time":24.593023255813954,"velocity":0.23622047244094488},{"duration":0.23255813953488413,"midi":102,"time":24.593023255813954,"velocity":0.25984251968503935},{"duration":0.03488372093023173,"midi":103,"time":24.593023255813954,"velocity":0.2283464566929134},{"duration":0.023255813953486637,"midi":61,"time":24.6046511627907,"velocity":0.28346456692913385},{"duration":0.4534883720930232,"midi":87,"time":24.6046511627907,"velocity":0.4645669291338583},{"duration":0.24418604651162923,"midi":68,"time":24.61627906976744,"velocity":0.4881889763779528},{"duration":0.2558139534883743,"midi":80,"time":24.61627906976744,"velocity":0.49606299212598426},{"duration":0.011627906976745095,"midi":46,"time":24.627906976744185,"velocity":0.5905511811023622},{"duration":0.011627906976745095,"midi":45,"time":24.63953488372093,"velocity":0.6299212598425197},{"duration":0.03488372093023173,"midi":72,"time":24.63953488372093,"velocity":0.11811023622047244},{"duration":0.03488372093023173,"midi":42,"time":24.651162790697676,"velocity":0.5984251968503937},{"duration":0.04651162790697683,"midi":77,"time":24.651162790697676,"velocity":0.15748031496062992},{"duration":0.02325581395349019,"midi":55,"time":24.674418604651162,"velocity":0.3228346456692913},{"duration":0.03488372093023173,"midi":82,"time":24.674418604651162,"velocity":0.10236220472440945},{"duration":0.03488372093023173,"midi":61,"time":24.686046511627907,"velocity":0.12598425196850394},{"duration":0.023255813953486637,"midi":46,"time":24.697674418604652,"velocity":0.2440944881889764},{"duration":0.08139534883720856,"midi":89,"time":24.697674418604652,"velocity":0.11023622047244094},{"duration":0.12790697674418894,"midi":77,"time":24.709302325581394,"velocity":0.1732283464566929},{"duration":0.09302325581395365,"midi":96,"time":24.709302325581394,"velocity":0.15748031496062992},{"duration":0.023255813953486637,"midi":37,"time":24.732558139534884,"velocity":0.3543307086614173},{"duration":0.10465116279069875,"midi":73,"time":24.767441860465116,"velocity":0.1889763779527559},{"duration":0.03488372093023173,"midi":38,"time":24.790697674418606,"velocity":0.08661417322834646},{"duration":0.03488372093023173,"midi":54,"time":24.790697674418606,"velocity":0.12598425196850394},{"duration":0.06976744186046702,"midi":61,"time":24.802325581395348,"velocity":0.2677165354330709},{"duration":0.06976744186046702,"midi":82,"time":24.813953488372093,"velocity":0.1889763779527559},{"duration":0.10465116279069875,"midi":84,"time":24.825581395348838,"velocity":0.2440944881889764},{"duration":0.03488372093023173,"midi":54,"time":24.837209302325583,"velocity":0.18110236220472442},{"duration":0.03488372093023173,"midi":65,"time":24.837209302325583,"velocity":0.2755905511811024},{"duration":0.03488372093023173,"midi":70,"time":24.837209302325583,"velocity":0.18110236220472442},{"duration":0.05813953488372192,"midi":76,"time":24.86046511627907,"velocity":0.2440944881889764},{"duration":0.023255813953486637,"midi":45,"time":24.872093023255815,"velocity":0.29133858267716534},{"duration":0.023255813953486637,"midi":66,"time":24.872093023255815,"velocity":0.25196850393700787},{"duration":0.023255813953486637,"midi":72,"time":24.872093023255815,"velocity":0.2283464566929134},{"duration":0.03488372093023173,"midi":86,"time":24.872093023255815,"velocity":0.11023622047244094},{"duration":0.023255813953486637,"midi":61,"time":24.88372093023256,"velocity":0.28346456692913385},{"duration":0.023255813953486637,"midi":69,"time":24.88372093023256,"velocity":0.30708661417322836},{"duration":0.12790697674418539,"midi":80,"time":24.88372093023256,"velocity":0.31496062992125984},{"duration":0.034883720930235285,"midi":74,"time":24.8953488372093,"velocity":0.13385826771653545},{"duration":0.05813953488372192,"midi":65,"time":24.906976744186046,"velocity":0.3700787401574803},{"duration":0.09302325581395365,"midi":68,"time":24.906976744186046,"velocity":0.2992125984251969},{"duration":0.06976744186046346,"midi":73,"time":24.930232558139537,"velocity":0.25984251968503935},{"duration":0.034883720930235285,"midi":40,"time":24.941860465116278,"velocity":0.2992125984251969},{"duration":0.04651162790697683,"midi":82,"time":24.953488372093023,"velocity":0.1968503937007874},{"duration":0.02325581395349019,"midi":51,"time":24.988372093023255,"velocity":0.23622047244094488},{"duration":0.03488372093023173,"midi":72,"time":24.988372093023255,"velocity":0.2283464566929134},{"duration":0.03488372093023173,"midi":78,"time":24.988372093023255,"velocity":0.14960629921259844},{"duration":0.04651162790697683,"midi":76,"time":25,"velocity":0.23622047244094488},{"duration":0.04651162790697683,"midi":84,"time":25,"velocity":0.25984251968503935},{"duration":0.04651162790697683,"midi":85,"time":25,"velocity":0.16535433070866143},{"duration":0.023255813953486637,"midi":66,"time":25.011627906976745,"velocity":0.23622047244094488},{"duration":0.023255813953486637,"midi":69,"time":25.011627906976745,"velocity":0.2992125984251969},{"duration":0.03488372093023173,"midi":79,"time":25.011627906976745,"velocity":0.08661417322834646},{"duration":0.03488372093023173,"midi":37,"time":25.03488372093023,"velocity":0.4094488188976378},{"duration":0.10465116279069875,"midi":61,"time":25.03488372093023,"velocity":0.4330708661417323},{"duration":0.02325581395349019,"midi":68,"time":25.03488372093023,"velocity":0.3228346456692913},{"duration":0.09302325581395365,"midi":77,"time":25.03488372093023,"velocity":0.13385826771653545},{"duration":0.023255813953486637,"midi":66,"time":25.058139534883722,"velocity":0.25984251968503935},{"duration":0.03488372093023173,"midi":70,"time":25.08139534883721,"velocity":0.2125984251968504},{"duration":0.10465116279069875,"midi":82,"time":25.093023255813954,"velocity":0.2204724409448819},{"duration":0.023255813953486637,"midi":39,"time":25.1046511627907,"velocity":0.31496062992125984},{"duration":0.17441860465116577,"midi":80,"time":25.11627906976744,"velocity":0.2755905511811024},{"duration":0.08139534883721211,"midi":91,"time":25.11627906976744,"velocity":0.23622047244094488},{"duration":0.1860465116279073,"midi":99,"time":25.11627906976744,"velocity":0.3464566929133858},{"duration":0.06976744186046702,"midi":101,"time":25.11627906976744,"velocity":0.2047244094488189},{"duration":0.2093023255813975,"midi":102,"time":25.11627906976744,"velocity":0.29133858267716534},{"duration":0.02325581395349019,"midi":55,"time":25.127906976744185,"velocity":0.5039370078740157},{"duration":0.5232558139534902,"midi":68,"time":25.127906976744185,"velocity":0.5433070866141733},{"duration":0.5,"midi":87,"time":25.127906976744185,"velocity":0.4409448818897638},{"duration":0.08139534883720856,"midi":89,"time":25.127906976744185,"velocity":0.1889763779527559},{"duration":0.05813953488372192,"midi":90,"time":25.127906976744185,"velocity":0.29133858267716534},{"duration":0.03488372093023173,"midi":93,"time":25.127906976744185,"velocity":0.1968503937007874},{"duration":0.06976744186046702,"midi":94,"time":25.127906976744185,"velocity":0.25984251968503935},{"duration":0.06976744186046702,"midi":95,"time":25.127906976744185,"velocity":0.15748031496062992},{"duration":0.24418604651162923,"midi":96,"time":25.127906976744185,"velocity":0.31496062992125984},{"duration":0.05813953488372192,"midi":97,"time":25.127906976744185,"velocity":0.14960629921259844},{"duration":0.03488372093023173,"midi":100,"time":25.127906976744185,"velocity":0.14960629921259844},{"duration":0.023255813953486637,"midi":65,"time":25.13953488372093,"velocity":0.25984251968503935},{"duration":0.023255813953486637,"midi":88,"time":25.13953488372093,"velocity":0.23622047244094488},{"duration":0.04651162790697683,"midi":83,"time":25.151162790697676,"velocity":0.14960629921259844},{"duration":0.011627906976745095,"midi":45,"time":25.162790697674417,"velocity":0.5984251968503937},{"duration":0.011627906976745095,"midi":44,"time":25.174418604651162,"velocity":0.5984251968503937},{"duration":0.011627906976745095,"midi":43,"time":25.186046511627907,"velocity":0.5826771653543307},{"duration":0.023255813953486637,"midi":51,"time":25.186046511627907,"velocity":0.28346456692913385},{"duration":0.011627906976741542,"midi":42,"time":25.197674418604652,"velocity":0.5433070866141733},{"duration":0.02325581395349019,"midi":53,"time":25.22093023255814,"velocity":0.2677165354330709},{"duration":0.023255813953486637,"midi":37,"time":25.24418604651163,"velocity":0.3779527559055118},{"duration":0.034883720930235285,"midi":78,"time":25.25581395348837,"velocity":0.1968503937007874},{"duration":0.034883720930235285,"midi":82,"time":25.25581395348837,"velocity":0.18110236220472442},{"duration":0.04651162790697683,"midi":76,"time":25.27906976744186,"velocity":0.2283464566929134},{"duration":0.023255813953486637,"midi":81,"time":25.290697674418606,"velocity":0.33070866141732286},{"duration":0.034883720930235285,"midi":38,"time":25.302325581395348,"velocity":0.3700787401574803},{"duration":0.04651162790697683,"midi":63,"time":25.313953488372093,"velocity":0.1732283464566929},{"duration":0.03488372093023173,"midi":72,"time":25.325581395348838,"velocity":0.08661417322834646},{"duration":0.023255813953486637,"midi":65,"time":25.372093023255815,"velocity":0.4409448818897638},{"duration":0.04651162790697683,"midi":98,"time":25.372093023255815,"velocity":0.16535433070866143},{"duration":0.03488372093023173,"midi":40,"time":25.38372093023256,"velocity":0.2677165354330709},{"duration":0.03488372093023173,"midi":76,"time":25.38372093023256,"velocity":0.44881889763779526},{"duration":0.023255813953486637,"midi":83,"time":25.38372093023256,"velocity":0.4015748031496063},{"duration":0.06976744186046346,"midi":86,"time":25.38372093023256,"velocity":0.2204724409448819},{"duration":0.05813953488372192,"midi":56,"time":25.3953488372093,"velocity":0.2440944881889764},{"duration":0.02325581395349019,"midi":64,"time":25.3953488372093,"velocity":0.3937007874015748},{"duration":0.04651162790697683,"midi":81,"time":25.3953488372093,"velocity":0.2047244094488189},{"duration":0.034883720930235285,"midi":91,"time":25.3953488372093,"velocity":0.12598425196850394},{"duration":0.03488372093023173,"midi":70,"time":25.406976744186046,"velocity":0.14960629921259844},{"duration":0.3837209302325597,"midi":75,"time":25.406976744186046,"velocity":0.47244094488188976},{"duration":0.20930232558139394,"midi":82,"time":25.406976744186046,"velocity":0.44881889763779526},{"duration":0.03488372093023173,"midi":84,"time":25.406976744186046,"velocity":0.11023622047244094},{"duration":0.023255813953486637,"midi":41,"time":25.41860465116279,"velocity":0.3858267716535433},{"duration":0.23255813953488413,"midi":63,"time":25.41860465116279,"velocity":0.3937007874015748},{"duration":0.03488372093023173,"midi":100,"time":25.41860465116279,"velocity":0.09448818897637795},{"duration":0.13953488372092693,"midi":51,"time":25.430232558139537,"velocity":0.29133858267716534},{"duration":0.023255813953486637,"midi":74,"time":25.430232558139537,"velocity":0.2283464566929134},{"duration":0.22093023255813904,"midi":97,"time":25.441860465116278,"velocity":0.16535433070866143},{"duration":0.16279069767441712,"midi":101,"time":25.453488372093023,"velocity":0.2125984251968504},{"duration":0.023255813953486637,"midi":33,"time":25.46511627906977,"velocity":0.29133858267716534},{"duration":0.12790697674418539,"midi":44,"time":25.46511627906977,"velocity":0.31496062992125984},{"duration":0.04651162790697683,"midi":32,"time":25.488372093023255,"velocity":0.33070866141732286},{"duration":0.3837209302325597,"midi":91,"time":25.488372093023255,"velocity":0.3228346456692913},{"duration":0.09302325581395365,"midi":84,"time":25.523255813953487,"velocity":0.14173228346456693},{"duration":0.04651162790697683,"midi":32,"time":25.546511627906977,"velocity":0.2047244094488189},{"duration":0.08139534883721211,"midi":60,"time":25.569767441860463,"velocity":0.2283464566929134},{"duration":0.02325581395349019,"midi":83,"time":25.61627906976744,"velocity":0.4251968503937008},{"duration":0.23255813953488413,"midi":102,"time":25.61627906976744,"velocity":0.23622047244094488},{"duration":0.15116279069767558,"midi":101,"time":25.627906976744185,"velocity":0.2440944881889764},{"duration":0.15116279069767558,"midi":82,"time":25.63953488372093,"velocity":0.4881889763779528},{"duration":0.023255813953486637,"midi":69,"time":25.651162790697676,"velocity":0.4094488188976378},{"duration":0.24418604651162568,"midi":96,"time":25.651162790697676,"velocity":0.2677165354330709},{"duration":0.03488372093023173,"midi":98,"time":25.651162790697676,"velocity":0.14960629921259844},{"duration":0.03488372093023173,"midi":100,"time":25.651162790697676,"velocity":0.13385826771653545},{"duration":0.2209302325581426,"midi":60,"time":25.662790697674417,"velocity":0.2755905511811024},{"duration":0.23255813953488413,"midi":68,"time":25.674418604651162,"velocity":0.4409448818897638},{"duration":0.023255813953486637,"midi":45,"time":25.686046511627907,"velocity":0.6220472440944882},{"duration":0.011627906976745095,"midi":43,"time":25.709302325581394,"velocity":0.5984251968503937},{"duration":0.011627906976745095,"midi":42,"time":25.72093023255814,"velocity":0.5669291338582677},{"duration":0.04651162790697683,"midi":63,"time":25.72093023255814,"velocity":0.1968503937007874},{"duration":0.011627906976745095,"midi":41,"time":25.732558139534884,"velocity":0.5118110236220472},{"duration":0.11627906976744029,"midi":97,"time":25.732558139534884,"velocity":0.2204724409448819},{"duration":0.03488372093023173,"midi":100,"time":25.77906976744186,"velocity":0.14173228346456693},{"duration":0.03488372093023173,"midi":36,"time":25.790697674418606,"velocity":0.30708661417322836},{"duration":0.023255813953486637,"midi":64,"time":25.790697674418606,"velocity":0.25196850393700787},{"duration":0.03488372093023173,"midi":76,"time":25.790697674418606,"velocity":0.4094488188976378},{"duration":0.023255813953486637,"midi":83,"time":25.790697674418606,"velocity":0.3937007874015748},{"duration":0.12790697674418539,"midi":84,"time":25.790697674418606,"velocity":0.2755905511811024},{"duration":0.04651162790697683,"midi":79,"time":25.802325581395348,"velocity":0.11811023622047244},{"duration":0.02325581395349019,"midi":63,"time":25.813953488372093,"velocity":0.25984251968503935},{"duration":0.24418604651162923,"midi":82,"time":25.813953488372093,"velocity":0.5275590551181102},{"duration":0.06976744186046346,"midi":75,"time":25.825581395348838,"velocity":0.4881889763779528},{"duration":0.03488372093023173,"midi":101,"time":25.825581395348838,"velocity":0.13385826771653545},{"duration":0.04651162790697683,"midi":63,"time":25.872093023255815,"velocity":0.33858267716535434},{"duration":0.03488372093023173,"midi":90,"time":25.872093023255815,"velocity":0.31496062992125984},{"duration":0.023255813953486637,"midi":79,"time":25.88372093023256,"velocity":0.2283464566929134},{"duration":0.03488372093023173,"midi":101,"time":25.88372093023256,"velocity":0.08661417322834646},{"duration":0.02325581395349019,"midi":74,"time":25.8953488372093,"velocity":0.3700787401574803},{"duration":0.02325581395349019,"midi":77,"time":25.8953488372093,"velocity":0.3228346456692913},{"duration":0.1860465116279073,"midi":87,"time":25.8953488372093,"velocity":0.4094488188976378},{"duration":0.06976744186046702,"midi":91,"time":25.906976744186046,"velocity":0.3228346456692913},{"duration":0.023255813953486637,"midi":57,"time":25.91860465116279,"velocity":0.25196850393700787},{"duration":0.023255813953486637,"midi":64,"time":25.91860465116279,"velocity":0.4330708661417323},{"duration":0.13953488372093048,"midi":68,"time":25.91860465116279,"velocity":0.25984251968503935},{"duration":0.05813953488372192,"midi":86,"time":25.91860465116279,"velocity":0.2204724409448819},{"duration":0.04651162790697683,"midi":89,"time":25.91860465116279,"velocity":0.1968503937007874},{"duration":0.09302325581395365,"midi":95,"time":25.91860465116279,"velocity":0.23622047244094488},{"duration":0.011627906976741542,"midi":76,"time":25.930232558139537,"velocity":0.5354330708661418},{"duration":0.11627906976744384,"midi":60,"time":25.941860465116278,"velocity":0.25984251968503935},{"duration":0.02325581395349019,"midi":63,"time":25.941860465116278,"velocity":0.2677165354330709},{"duration":0.04651162790697683,"midi":70,"time":25.941860465116278,"velocity":0.10236220472440945},{"duration":0.04651162790697683,"midi":75,"time":25.941860465116278,"velocity":0.5511811023622047},{"duration":0.05813953488372192,"midi":51,"time":25.953488372093023,"velocity":0.2992125984251969},{"duration":0.04651162790697683,"midi":56,"time":25.953488372093023,"velocity":0.2047244094488189},{"duration":0.03488372093023173,"midi":78,"time":25.953488372093023,"velocity":0.14173228346456693},{"duration":0.03488372093023173,"midi":97,"time":25.953488372093023,"velocity":0.11811023622047244},{"duration":0.09302325581395365,"midi":44,"time":25.96511627906977,"velocity":0.33070866141732286},{"duration":0.05813953488371837,"midi":64,"time":25.96511627906977,"velocity":0.2992125984251969},{"duration":0.04651162790697683,"midi":92,"time":25.96511627906977,"velocity":0.33070866141732286},{"duration":0.04651162790697683,"midi":100,"time":25.96511627906977,"velocity":0.14960629921259844},{"duration":0.023255813953486637,"midi":76,"time":25.976744186046513,"velocity":0.48031496062992124},{"duration":0.05813953488371837,"midi":101,"time":25.976744186046513,"velocity":0.12598425196850394},{"duration":0.03488372093023173,"midi":102,"time":25.976744186046513,"velocity":0.10236220472440945},{"duration":0.04651162790697683,"midi":79,"time":25.988372093023255,"velocity":0.12598425196850394},{"duration":0.023255813953486637,"midi":33,"time":26,"velocity":0.29133858267716534},{"duration":0.06976744186046346,"midi":75,"time":26,"velocity":0.5590551181102362},{"duration":0.04651162790697683,"midi":91,"time":26.011627906976745,"velocity":0.2992125984251969},{"duration":0.04651162790697683,"midi":32,"time":26.023255813953487,"velocity":0.29133858267716534},{"duration":0.05813953488372192,"midi":86,"time":26.046511627906977,"velocity":0.2125984251968504},{"duration":0.04651162790697683,"midi":89,"time":26.046511627906977,"velocity":0.2440944881889764},{"duration":0.04651162790697683,"midi":90,"time":26.046511627906977,"velocity":0.29133858267716534},{"duration":0.04651162790697683,"midi":92,"time":26.046511627906977,"velocity":0.08661417322834646},{"duration":0.023255813953486637,"midi":52,"time":26.058139534883722,"velocity":0.29133858267716534},{"duration":0.08139534883720856,"midi":63,"time":26.058139534883722,"velocity":0.4015748031496063},{"duration":0.03488372093023173,"midi":66,"time":26.058139534883722,"velocity":0.2283464566929134},{"duration":0.023255813953486637,"midi":81,"time":26.058139534883722,"velocity":0.3779527559055118},{"duration":0.02325581395349019,"midi":74,"time":26.069767441860463,"velocity":0.41732283464566927},{"duration":0.02325581395349019,"midi":76,"time":26.069767441860463,"velocity":0.2440944881889764},{"duration":0.10465116279069875,"midi":44,"time":26.08139534883721,"velocity":0.3937007874015748},{"duration":0.09302325581395365,"midi":51,"time":26.08139534883721,"velocity":0.30708661417322836},{"duration":0.06976744186046702,"midi":82,"time":26.08139534883721,"velocity":0.4094488188976378},{"duration":0.06976744186046702,"midi":99,"time":26.08139534883721,"velocity":0.2204724409448819},{"duration":0.05813953488372192,"midi":70,"time":26.093023255813954,"velocity":0.11023622047244094},{"duration":0.39534883720930125,"midi":75,"time":26.093023255813954,"velocity":0.5354330708661418},{"duration":0.04651162790697683,"midi":91,"time":26.093023255813954,"velocity":0.33070866141732286},{"duration":0.06976744186046346,"midi":60,"time":26.1046511627907,"velocity":0.28346456692913385},{"duration":0.034883720930235285,"midi":101,"time":26.11627906976744,"velocity":0.15748031496062992},{"duration":0.03488372093023173,"midi":33,"time":26.127906976744185,"velocity":0.2992125984251969},{"duration":0.03488372093023173,"midi":84,"time":26.127906976744185,"velocity":0.10236220472440945},{"duration":0.04651162790697683,"midi":88,"time":26.127906976744185,"velocity":0.44881889763779526},{"duration":0.23255813953488413,"midi":97,"time":26.127906976744185,"velocity":0.2125984251968504},{"duration":0.03488372093023173,"midi":64,"time":26.13953488372093,"velocity":0.36220472440944884},{"duration":0.03488372093023173,"midi":92,"time":26.13953488372093,"velocity":0.4015748031496063},{"duration":0.03488372093023173,"midi":95,"time":26.13953488372093,"velocity":0.2204724409448819},{"duration":0.023255813953486637,"midi":83,"time":26.151162790697676,"velocity":0.4881889763779528},{"duration":0.1046511627906952,"midi":102,"time":26.151162790697676,"velocity":0.23622047244094488},{"duration":0.034883720930235285,"midi":32,"time":26.162790697674417,"velocity":0.30708661417322836},{"duration":0.09302325581395365,"midi":63,"time":26.174418604651162,"velocity":0.4645669291338583},{"duration":0.04651162790697683,"midi":67,"time":26.174418604651162,"velocity":0.3464566929133858},{"duration":0.11627906976744384,"midi":72,"time":26.174418604651162,"velocity":0.25196850393700787},{"duration":0.03488372093023173,"midi":78,"time":26.174418604651162,"velocity":0.07086614173228346},{"duration":0.13953488372093048,"midi":82,"time":26.174418604651162,"velocity":0.4881889763779528},{"duration":0.02325581395349019,"midi":91,"time":26.174418604651162,"velocity":0.3700787401574803},{"duration":0.06976744186046702,"midi":101,"time":26.174418604651162,"velocity":0.2283464566929134},{"duration":0.04651162790697683,"midi":86,"time":26.186046511627907,"velocity":0.2125984251968504},{"duration":0.03488372093023173,"midi":88,"time":26.186046511627907,"velocity":0.25196850393700787},{"duration":0.04651162790697683,"midi":90,"time":26.186046511627907,"velocity":0.2992125984251969},{"duration":0.08139534883720856,"midi":92,"time":26.186046511627907,"velocity":0.2440944881889764},{"duration":0.06976744186046346,"midi":95,"time":26.186046511627907,"velocity":0.1968503937007874},{"duration":0.16279069767441712,"midi":96,"time":26.186046511627907,"velocity":0.1732283464566929},{"duration":0.023255813953486637,"midi":70,"time":26.197674418604652,"velocity":0.23622047244094488},{"duration":0.08139534883720856,"midi":89,"time":26.197674418604652,"velocity":0.2440944881889764},{"duration":0.03488372093023173,"midi":93,"time":26.197674418604652,"velocity":0.11811023622047244},{"duration":0.2558139534883743,"midi":68,"time":26.209302325581394,"velocity":0.31496062992125984},{"duration":0.2093023255813975,"midi":91,"time":26.209302325581394,"velocity":0.30708661417322836},{"duration":0.011627906976745095,"midi":45,"time":26.22093023255814,"velocity":0.5984251968503937},{"duration":0.011627906976745095,"midi":44,"time":26.232558139534884,"velocity":0.5826771653543307},{"duration":0.03488372093023173,"midi":60,"time":26.232558139534884,"velocity":0.15748031496062992},{"duration":0.05813953488372192,"midi":85,"time":26.232558139534884,"velocity":0.10236220472440945},{"duration":0.03488372093023173,"midi":88,"time":26.232558139534884,"velocity":0.14960629921259844},{"duration":0.011627906976741542,"midi":43,"time":26.24418604651163,"velocity":0.5669291338582677},{"duration":0.03488372093023173,"midi":90,"time":26.24418604651163,"velocity":0.12598425196850394},{"duration":0.011627906976745095,"midi":42,"time":26.25581395348837,"velocity":0.5196850393700787},{"duration":0.034883720930235285,"midi":65,"time":26.25581395348837,"velocity":0.16535433070866143},{"duration":0.03488372093023173,"midi":53,"time":26.27906976744186,"velocity":0.33070866141732286},{"duration":0.04651162790697683,"midi":95,"time":26.302325581395348,"velocity":0.1889763779527559},{"duration":0.02325581395349019,"midi":36,"time":26.313953488372093,"velocity":0.3228346456692913},{"duration":0.04651162790697683,"midi":64,"time":26.313953488372093,"velocity":0.1968503937007874},{"duration":0.03488372093023173,"midi":83,"time":26.313953488372093,"velocity":0.44881889763779526},{"duration":0.04651162790697683,"midi":88,"time":26.313953488372093,"velocity":0.3858267716535433},{"duration":0.03488372093023173,"midi":102,"time":26.313953488372093,"velocity":0.16535433070866143},{"duration":0.03488372093023173,"midi":72,"time":26.325581395348838,"velocity":0.2047244094488189},{"duration":0.06976744186046346,"midi":79,"time":26.325581395348838,"velocity":0.15748031496062992},{"duration":0.03488372093023173,"midi":35,"time":26.337209302325583,"velocity":0.1968503937007874},{"duration":0.1046511627906952,"midi":60,"time":26.337209302325583,"velocity":0.2283464566929134},{"duration":0.12790697674418894,"midi":82,"time":26.348837209302324,"velocity":0.4566929133858268},{"duration":0.11627906976744384,"midi":99,"time":26.348837209302324,"velocity":0.11811023622047244},{"duration":0.12790697674418539,"midi":63,"time":26.36046511627907,"velocity":0.3937007874015748},{"duration":0.06976744186046702,"midi":72,"time":26.3953488372093,"velocity":0.29133858267716534},{"duration":0.04651162790697683,"midi":56,"time":26.41860465116279,"velocity":0.2677165354330709},{"duration":0.023255813953486637,"midi":90,"time":26.41860465116279,"velocity":0.28346456692913385},{"duration":0.04651162790697683,"midi":89,"time":26.441860465116278,"velocity":0.13385826771653545},{"duration":0.04651162790697683,"midi":91,"time":26.441860465116278,"velocity":0.25984251968503935},{"duration":0.04651162790697683,"midi":78,"time":26.453488372093023,"velocity":0.25196850393700787},{"duration":0.04651162790697683,"midi":86,"time":26.453488372093023,"velocity":0.2440944881889764},{"duration":0.12790697674418539,"midi":88,"time":26.453488372093023,"velocity":0.3464566929133858},{"duration":0.023255813953486637,"midi":69,"time":26.46511627906977,"velocity":0.25196850393700787},{"duration":0.06976744186046346,"midi":83,"time":26.46511627906977,"velocity":0.4251968503937008},{"duration":0.046511627906973274,"midi":53,"time":26.476744186046513,"velocity":0.3937007874015748},{"duration":0.11627906976744029,"midi":72,"time":26.476744186046513,"velocity":0.30708661417322836},{"duration":0.02325581395349019,"midi":40,"time":26.488372093023255,"velocity":0.3858267716535433},{"duration":0.05813953488372192,"midi":64,"time":26.488372093023255,"velocity":0.36220472440944884},{"duration":0.09302325581395365,"midi":68,"time":26.488372093023255,"velocity":0.23622047244094488},{"duration":0.05813953488372192,"midi":76,"time":26.488372093023255,"velocity":0.4881889763779528},{"duration":0.04651162790697683,"midi":92,"time":26.488372093023255,"velocity":0.31496062992125984},{"duration":0.08139534883720856,"midi":99,"time":26.5,"velocity":0.14960629921259844},{"duration":0.03488372093023173,"midi":48,"time":26.511627906976745,"velocity":0.31496062992125984},{"duration":0.05813953488372192,"midi":82,"time":26.523255813953487,"velocity":0.3779527559055118},{"duration":0.05813953488372192,"midi":87,"time":26.53488372093023,"velocity":0.16535433070866143},{"duration":0.05813953488372192,"midi":91,"time":26.53488372093023,"velocity":0.2992125984251969},{"duration":0.05813953488372192,"midi":75,"time":26.546511627906977,"velocity":0.5039370078740157},{"duration":0.023255813953486637,"midi":41,"time":26.558139534883722,"velocity":0.28346456692913385},{"duration":0.023255813953486637,"midi":48,"time":26.558139534883722,"velocity":0.2755905511811024},{"duration":0.02325581395349019,"midi":30,"time":26.569767441860463,"velocity":0.2283464566929134},{"duration":0.05813953488372192,"midi":86,"time":26.569767441860463,"velocity":0.25196850393700787},{"duration":0.02325581395349019,"midi":44,"time":26.58139534883721,"velocity":0.2755905511811024},{"duration":0.03488372093023173,"midi":57,"time":26.58139534883721,"velocity":0.2755905511811024},{"duration":0.05813953488372192,"midi":77,"time":26.58139534883721,"velocity":0.2283464566929134},{"duration":0.04651162790697683,"midi":81,"time":26.58139534883721,"velocity":0.33858267716535434},{"duration":0.04651162790697683,"midi":89,"time":26.58139534883721,"velocity":0.2283464566929134},{"duration":0.05813953488372192,"midi":66,"time":26.593023255813954,"velocity":0.2440944881889764},{"duration":0.03488372093023173,"midi":74,"time":26.593023255813954,"velocity":0.4094488188976378},{"duration":0.03488372093023173,"midi":90,"time":26.593023255813954,"velocity":0.18110236220472442},{"duration":0.1046511627906952,"midi":68,"time":26.6046511627907,"velocity":0.16535433070866143},{"duration":0.08139534883720856,"midi":70,"time":26.6046511627907,"velocity":0.12598425196850394},{"duration":0.04651162790697683,"midi":72,"time":26.6046511627907,"velocity":0.14960629921259844},{"duration":0.04651162790697683,"midi":44,"time":26.61627906976744,"velocity":0.4015748031496063},{"duration":0.08139534883721211,"midi":60,"time":26.61627906976744,"velocity":0.25196850393700787},{"duration":0.04651162790697683,"midi":75,"time":26.61627906976744,"velocity":0.41732283464566927},{"duration":0.05813953488372192,"midi":82,"time":26.61627906976744,"velocity":0.33070866141732286},{"duration":0.03488372093023173,"midi":63,"time":26.627906976744185,"velocity":0.2992125984251969},{"duration":0.04651162790697683,"midi":91,"time":26.627906976744185,"velocity":0.30708661417322836},{"duration":0.09302325581395365,"midi":51,"time":26.63953488372093,"velocity":0.4094488188976378},{"duration":0.05813953488371837,"midi":88,"time":26.651162790697676,"velocity":0.29133858267716534},{"duration":0.05813953488372192,"midi":64,"time":26.662790697674417,"velocity":0.2992125984251969},{"duration":0.034883720930235285,"midi":76,"time":26.662790697674417,"velocity":0.3937007874015748},{"duration":0.034883720930235285,"midi":83,"time":26.662790697674417,"velocity":0.36220472440944884},{"duration":0.02325581395349019,"midi":33,"time":26.674418604651162,"velocity":0.36220472440944884},{"duration":0.03488372093023173,"midi":44,"time":26.674418604651162,"velocity":0.29133858267716534},{"duration":0.02325581395349019,"midi":92,"time":26.674418604651162,"velocity":0.29133858267716534},{"duration":0.16279069767441712,"midi":75,"time":26.686046511627907,"velocity":0.36220472440944884},{"duration":0.04651162790697683,"midi":32,"time":26.697674418604652,"velocity":0.33858267716535434},{"duration":0.15116279069767202,"midi":82,"time":26.697674418604652,"velocity":0.3937007874015748},{"duration":0.24418604651162568,"midi":91,"time":26.697674418604652,"velocity":0.30708661417322836},{"duration":0.04651162790697683,"midi":99,"time":26.697674418604652,"velocity":0.14173228346456693},{"duration":0.04651162790697683,"midi":101,"time":26.697674418604652,"velocity":0.1889763779527559},{"duration":0.02325581395349019,"midi":58,"time":26.709302325581394,"velocity":0.2677165354330709},{"duration":0.06976744186046702,"midi":79,"time":26.709302325581394,"velocity":0.2440944881889764},{"duration":0.034883720930235285,"midi":92,"time":26.709302325581394,"velocity":0.18110236220472442},{"duration":0.034883720930235285,"midi":96,"time":26.709302325581394,"velocity":0.2283464566929134},{"duration":0.034883720930235285,"midi":100,"time":26.709302325581394,"velocity":0.14960629921259844},{"duration":0.04651162790697683,"midi":83,"time":26.72093023255814,"velocity":0.2047244094488189},{"duration":0.03488372093023173,"midi":88,"time":26.72093023255814,"velocity":0.14960629921259844},{"duration":0.04651162790697683,"midi":68,"time":26.732558139534884,"velocity":0.23622047244094488},{"duration":0.011627906976741542,"midi":45,"time":26.74418604651163,"velocity":0.5669291338582677},{"duration":0.1046511627906952,"midi":58,"time":26.74418604651163,"velocity":0.25984251968503935},{"duration":0.011627906976745095,"midi":44,"time":26.75581395348837,"velocity":0.6062992125984252},{"duration":0.04651162790697683,"midi":72,"time":26.75581395348837,"velocity":0.15748031496062992},{"duration":0.02325581395349019,"midi":42,"time":26.767441860465116,"velocity":0.6062992125984252},{"duration":0.05813953488372192,"midi":53,"time":26.767441860465116,"velocity":0.28346456692913385},{"duration":0.08139534883720856,"midi":77,"time":26.77906976744186,"velocity":0.1968503937007874},{"duration":0.12790697674418539,"midi":96,"time":26.77906976744186,"velocity":0.11023622047244094},{"duration":0.011627906976741542,"midi":41,"time":26.790697674418606,"velocity":0.5275590551181102},{"duration":0.13953488372093048,"midi":65,"time":26.790697674418606,"velocity":0.28346456692913385},{"duration":0.13953488372093048,"midi":68,"time":26.802325581395348,"velocity":0.18110236220472442},{"duration":0.08139534883721211,"midi":73,"time":26.802325581395348,"velocity":0.16535433070866143},{"duration":0.08139534883720856,"midi":84,"time":26.825581395348838,"velocity":0.13385826771653545},{"duration":0.02325581395349019,"midi":76,"time":26.848837209302324,"velocity":0.30708661417322836},{"duration":0.034883720930235285,"midi":83,"time":26.848837209302324,"velocity":0.2755905511811024},{"duration":0.03488372093023173,"midi":35,"time":26.86046511627907,"velocity":0.25984251968503935},{"duration":0.09302325581395365,"midi":58,"time":26.86046511627907,"velocity":0.12598425196850394},{"duration":0.15116279069767202,"midi":75,"time":26.872093023255815,"velocity":0.44881889763779526},{"duration":0.06976744186046346,"midi":78,"time":26.872093023255815,"velocity":0.14960629921259844},{"duration":0.06976744186046346,"midi":82,"time":26.88372093023256,"velocity":0.3543307086614173},{"duration":0.11627906976744029,"midi":89,"time":26.906976744186046,"velocity":0.2047244094488189},{"duration":0.03488372093023173,"midi":66,"time":26.930232558139537,"velocity":0.30708661417322836},{"duration":0.04651162790697683,"midi":77,"time":26.930232558139537,"velocity":0.25196850393700787},{"duration":0.08139534883720856,"midi":70,"time":26.941860465116278,"velocity":0.2677165354330709},{"duration":0.04651162790697683,"midi":90,"time":26.941860465116278,"velocity":0.16535433070866143},{"duration":0.02325581395349019,"midi":73,"time":26.953488372093023,"velocity":0.2283464566929134},{"duration":0.06976744186046346,"midi":82,"time":26.96511627906977,"velocity":0.33070866141732286},{"duration":0.09302325581395365,"midi":93,"time":26.96511627906977,"velocity":0.12598425196850394},{"duration":0.03488372093023173,"midi":63,"time":26.976744186046513,"velocity":0.30708661417322836},{"duration":0.03488372093023173,"midi":78,"time":26.976744186046513,"velocity":0.25984251968503935},{"duration":0.1744186046511622,"midi":80,"time":26.976744186046513,"velocity":0.3700787401574803},{"duration":0.023255813953486637,"midi":83,"time":26.976744186046513,"velocity":0.31496062992125984},{"duration":0.023255813953486637,"midi":86,"time":26.976744186046513,"velocity":0.2755905511811024},{"duration":0.03488372093023173,"midi":88,"time":26.976744186046513,"velocity":0.3543307086614173},{"duration":0.06976744186046346,"midi":91,"time":26.976744186046513,"velocity":0.2047244094488189},{"duration":0.046511627906973274,"midi":96,"time":26.976744186046513,"velocity":0.12598425196850394},{"duration":0.04651162790697683,"midi":77,"time":26.988372093023255,"velocity":0.29133858267716534},{"duration":0.023255813953486637,"midi":45,"time":27,"velocity":0.3858267716535433},{"duration":0.023255813953486637,"midi":84,"time":27,"velocity":0.2755905511811024},{"duration":0.04651162790697683,"midi":53,"time":27.011627906976745,"velocity":0.3228346456692913},{"duration":0.023255813953486637,"midi":59,"time":27.011627906976745,"velocity":0.3228346456692913},{"duration":0.03488372093023173,"midi":66,"time":27.011627906976745,"velocity":0.31496062992125984},{"duration":0.1046511627906952,"midi":73,"time":27.011627906976745,"velocity":0.25196850393700787},{"duration":0.03488372093023173,"midi":79,"time":27.011627906976745,"velocity":0.1732283464566929},{"duration":0.034883720930235285,"midi":69,"time":27.023255813953487,"velocity":0.3779527559055118},{"duration":0.04651162790697683,"midi":76,"time":27.023255813953487,"velocity":0.36220472440944884},{"duration":0.11627906976744384,"midi":85,"time":27.023255813953487,"velocity":0.28346456692913385},{"duration":0.06976744186046702,"midi":97,"time":27.023255813953487,"velocity":0.30708661417322836},{"duration":0.03488372093023173,"midi":46,"time":27.03488372093023,"velocity":0.2992125984251969},{"duration":0.02325581395349019,"midi":58,"time":27.03488372093023,"velocity":0.4015748031496063},{"duration":0.04651162790697683,"midi":83,"time":27.03488372093023,"velocity":0.2204724409448819},{"duration":0.03488372093023173,"midi":102,"time":27.03488372093023,"velocity":0.08661417322834646},{"duration":0.06976744186046346,"midi":34,"time":27.058139534883722,"velocity":0.3700787401574803},{"duration":0.023255813953486637,"midi":57,"time":27.058139534883722,"velocity":0.4015748031496063},{"duration":0.03488372093023173,"midi":66,"time":27.058139534883722,"velocity":0.33070866141732286},{"duration":0.3604651162790695,"midi":70,"time":27.058139534883722,"velocity":0.4566929133858268},{"duration":0.16279069767441712,"midi":77,"time":27.058139534883722,"velocity":0.3779527559055118},{"duration":0.03488372093023173,"midi":87,"time":27.058139534883722,"velocity":0.18110236220472442},{"duration":0.05813953488372192,"midi":75,"time":27.069767441860463,"velocity":0.33858267716535434},{"duration":0.12790697674418894,"midi":91,"time":27.069767441860463,"velocity":0.2047244094488189},{"duration":0.02325581395349019,"midi":56,"time":27.08139534883721,"velocity":0.3779527559055118},{"duration":0.023255813953486637,"midi":66,"time":27.1046511627907,"velocity":0.25984251968503935},{"duration":0.034883720930235285,"midi":81,"time":27.11627906976744,"velocity":0.1732283464566929},{"duration":0.04651162790697683,"midi":83,"time":27.11627906976744,"velocity":0.2047244094488189},{"duration":0.10465116279069875,"midi":58,"time":27.127906976744185,"velocity":0.33070866141732286},{"duration":0.02325581395349019,"midi":65,"time":27.127906976744185,"velocity":0.2283464566929134},{"duration":0.03488372093023173,"midi":68,"time":27.127906976744185,"velocity":0.2283464566929134},{"duration":0.03488372093023173,"midi":74,"time":27.127906976744185,"velocity":0.23622047244094488},{"duration":0.02325581395349019,"midi":76,"time":27.127906976744185,"velocity":0.25984251968503935},{"duration":0.04651162790697683,"midi":53,"time":27.13953488372093,"velocity":0.30708661417322836},{"duration":0.03488372093023173,"midi":79,"time":27.13953488372093,"velocity":0.18110236220472442},{"duration":0.09302325581395365,"midi":46,"time":27.151162790697676,"velocity":0.31496062992125984},{"duration":0.023255813953486637,"midi":66,"time":27.151162790697676,"velocity":0.2677165354330709},{"duration":0.11627906976744384,"midi":73,"time":27.162790697674417,"velocity":0.2677165354330709},{"duration":0.09302325581395365,"midi":75,"time":27.162790697674417,"velocity":0.2992125984251969},{"duration":0.04651162790697683,"midi":62,"time":27.186046511627907,"velocity":0.2440944881889764},{"duration":0.06976744186046346,"midi":66,"time":27.186046511627907,"velocity":0.4015748031496063},{"duration":0.06976744186046346,"midi":83,"time":27.186046511627907,"velocity":0.2440944881889764},{"duration":0.04651162790697683,"midi":34,"time":27.197674418604652,"velocity":0.3700787401574803},{"duration":0.023255813953486637,"midi":53,"time":27.197674418604652,"velocity":0.28346456692913385},{"duration":0.05813953488371837,"midi":88,"time":27.197674418604652,"velocity":0.25196850393700787},{"duration":0.03488372093023173,"midi":92,"time":27.197674418604652,"velocity":0.14960629921259844},{"duration":0.03488372093023173,"midi":61,"time":27.232558139534884,"velocity":0.4645669291338583},{"duration":0.03488372093023173,"midi":97,"time":27.232558139534884,"velocity":0.1968503937007874},{"duration":0.1860465116279073,"midi":98,"time":27.232558139534884,"velocity":0.3228346456692913},{"duration":0.06976744186046346,"midi":101,"time":27.232558139534884,"velocity":0.2677165354330709},{"duration":0.08139534883720856,"midi":102,"time":27.232558139534884,"velocity":0.2204724409448819},{"duration":0.06976744186046346,"midi":81,"time":27.24418604651163,"velocity":0.14960629921259844},{"duration":0.08139534883720856,"midi":90,"time":27.24418604651163,"velocity":0.28346456692913385},{"duration":0.06976744186046346,"midi":94,"time":27.24418604651163,"velocity":0.2047244094488189},{"duration":0.1046511627906952,"midi":99,"time":27.24418604651163,"velocity":0.1889763779527559},{"duration":0.034883720930235285,"midi":45,"time":27.25581395348837,"velocity":0.6141732283464567},{"duration":0.011627906976745095,"midi":53,"time":27.25581395348837,"velocity":0.5275590551181102},{"duration":0.02325581395349019,"midi":67,"time":27.25581395348837,"velocity":0.25196850393700787},{"duration":0.13953488372093048,"midi":89,"time":27.25581395348837,"velocity":0.2440944881889764},{"duration":0.011627906976745095,"midi":51,"time":27.267441860465116,"velocity":0.5118110236220472},{"duration":0.05813953488372192,"midi":75,"time":27.267441860465116,"velocity":0.1968503937007874},{"duration":0.03488372093023173,"midi":77,"time":27.267441860465116,"velocity":0.18110236220472442},{"duration":0.04651162790697683,"midi":88,"time":27.267441860465116,"velocity":0.11023622047244094},{"duration":0.03488372093023173,"midi":91,"time":27.267441860465116,"velocity":0.2047244094488189},{"duration":0.04651162790697683,"midi":86,"time":27.27906976744186,"velocity":0.18110236220472442},{"duration":0.011627906976741542,"midi":44,"time":27.290697674418606,"velocity":0.5984251968503937},{"duration":0.02325581395349019,"midi":42,"time":27.302325581395348,"velocity":0.5748031496062992},{"duration":0.08139534883721211,"midi":58,"time":27.302325581395348,"velocity":0.3937007874015748},{"duration":0.02325581395349019,"midi":52,"time":27.313953488372093,"velocity":0.29133858267716534},{"duration":0.09302325581395365,"midi":66,"time":27.313953488372093,"velocity":0.3464566929133858},{"duration":0.20930232558139394,"midi":77,"time":27.313953488372093,"velocity":0.2677165354330709},{"duration":0.03488372093023173,"midi":85,"time":27.313953488372093,"velocity":0.15748031496062992},{"duration":0.02325581395349019,"midi":37,"time":27.348837209302324,"velocity":0.4015748031496063},{"duration":0.06976744186046702,"midi":73,"time":27.348837209302324,"velocity":0.16535433070866143},{"duration":0.04651162790697683,"midi":88,"time":27.348837209302324,"velocity":0.11023622047244094},{"duration":0.04651162790697683,"midi":100,"time":27.348837209302324,"velocity":0.13385826771653545},{"duration":0.08139534883720856,"midi":103,"time":27.36046511627907,"velocity":0.1889763779527559},{"duration":0.023255813953486637,"midi":36,"time":27.372093023255815,"velocity":0.3228346456692913},{"duration":0.04651162790697683,"midi":91,"time":27.372093023255815,"velocity":0.1889763779527559},{"duration":0.04651162790697683,"midi":79,"time":27.38372093023256,"velocity":0.2204724409448819},{"duration":0.03488372093023173,"midi":84,"time":27.38372093023256,"velocity":0.11811023622047244},{"duration":0.04651162790697683,"midi":86,"time":27.38372093023256,"velocity":0.13385826771653545},{"duration":0.02325581395349019,"midi":83,"time":27.3953488372093,"velocity":0.25196850393700787},{"duration":0.034883720930235285,"midi":87,"time":27.3953488372093,"velocity":0.09448818897637795},{"duration":0.06976744186046702,"midi":49,"time":27.406976744186046,"velocity":0.2992125984251969},{"duration":0.02325581395349019,"midi":65,"time":27.406976744186046,"velocity":0.28346456692913385},{"duration":0.02325581395349019,"midi":68,"time":27.406976744186046,"velocity":0.25196850393700787},{"duration":0.05813953488372192,"midi":75,"time":27.406976744186046,"velocity":0.1732283464566929},{"duration":0.04651162790697683,"midi":56,"time":27.41860465116279,"velocity":0.4645669291338583},{"duration":0.023255813953486637,"midi":71,"time":27.41860465116279,"velocity":0.2283464566929134},{"duration":0.03488372093023173,"midi":66,"time":27.430232558139537,"velocity":0.3228346456692913},{"duration":0.29069767441860606,"midi":70,"time":27.441860465116278,"velocity":0.3858267716535433},{"duration":0.023255813953486637,"midi":58,"time":27.476744186046513,"velocity":0.3543307086614173},{"duration":0.046511627906973274,"midi":87,"time":27.476744186046513,"velocity":0.11811023622047244},{"duration":0.02325581395349019,"midi":37,"time":27.488372093023255,"velocity":0.23622047244094488},{"duration":0.27906976744186096,"midi":66,"time":27.488372093023255,"velocity":0.3464566929133858},{"duration":0.05813953488372192,"midi":90,"time":27.488372093023255,"velocity":0.2204724409448819},{"duration":0.03488372093023173,"midi":76,"time":27.5,"velocity":0.2204724409448819},{"duration":0.3023255813953476,"midi":88,"time":27.5,"velocity":0.3779527559055118},{"duration":0.04651162790697683,"midi":92,"time":27.5,"velocity":0.15748031496062992},{"duration":0.03488372093023173,"midi":93,"time":27.5,"velocity":0.2204724409448819},{"duration":0.3023255813953476,"midi":96,"time":27.5,"velocity":0.33858267716535434},{"duration":0.05813953488371837,"midi":60,"time":27.511627906976745,"velocity":0.5118110236220472},{"duration":0.023255813953486637,"midi":64,"time":27.511627906976745,"velocity":0.2283464566929134},{"duration":0.04651162790697683,"midi":83,"time":27.511627906976745,"velocity":0.11811023622047244},{"duration":0.04651162790697683,"midi":85,"time":27.511627906976745,"velocity":0.2204724409448819},{"duration":0.05813953488372192,"midi":81,"time":27.523255813953487,"velocity":0.2204724409448819},{"duration":0.034883720930235285,"midi":91,"time":27.523255813953487,"velocity":0.13385826771653545},{"duration":0.15116279069767558,"midi":102,"time":27.53488372093023,"velocity":0.2677165354330709},{"duration":0.11627906976744029,"midi":48,"time":27.546511627906977,"velocity":0.30708661417322836},{"duration":0.04651162790697683,"midi":99,"time":27.546511627906977,"velocity":0.18110236220472442},{"duration":0.10465116279069875,"midi":36,"time":27.569767441860463,"velocity":0.3700787401574803},{"duration":0.02325581395349019,"midi":61,"time":27.569767441860463,"velocity":0.47244094488188976},{"duration":0.09302325581395365,"midi":79,"time":27.58139534883721,"velocity":0.2125984251968504},{"duration":0.1860465116279073,"midi":60,"time":27.593023255813954,"velocity":0.5590551181102362},{"duration":0.20930232558139394,"midi":98,"time":27.593023255813954,"velocity":0.1968503937007874},{"duration":0.03488372093023173,"midi":75,"time":27.6046511627907,"velocity":0.1732283464566929},{"duration":0.02325581395349019,"midi":55,"time":27.61627906976744,"velocity":0.2992125984251969},{"duration":0.43023255813953654,"midi":77,"time":27.61627906976744,"velocity":0.3464566929133858},{"duration":0.05813953488372192,"midi":103,"time":27.686046511627907,"velocity":0.1732283464566929},{"duration":0.06976744186046346,"midi":73,"time":27.697674418604652,"velocity":0.3700787401574803},{"duration":0.03488372093023173,"midi":75,"time":27.697674418604652,"velocity":0.11811023622047244},{"duration":0.034883720930235285,"midi":84,"time":27.709302325581394,"velocity":0.10236220472440945},{"duration":0.034883720930235285,"midi":101,"time":27.709302325581394,"velocity":0.12598425196850394},{"duration":0.13953488372093048,"midi":102,"time":27.74418604651163,"velocity":0.30708661417322836},{"duration":0.03488372093023173,"midi":80,"time":27.767441860465116,"velocity":0.15748031496062992},{"duration":0.11627906976744384,"midi":92,"time":27.767441860465116,"velocity":0.3228346456692913},{"duration":0.03488372093023173,"midi":93,"time":27.767441860465116,"velocity":0.18110236220472442},{"duration":0.13953488372093048,"midi":101,"time":27.767441860465116,"velocity":0.2440944881889764},{"duration":0.03488372093023173,"midi":61,"time":27.77906976744186,"velocity":0.5039370078740157},{"duration":0.04651162790697683,"midi":81,"time":27.77906976744186,"velocity":0.1732283464566929},{"duration":0.03488372093023173,"midi":86,"time":27.77906976744186,"velocity":0.2125984251968504},{"duration":0.15116279069767558,"midi":99,"time":27.77906976744186,"velocity":0.4015748031496063},{"duration":0.04651162790697683,"midi":68,"time":27.790697674418606,"velocity":0.16535433070866143},{"duration":0.03488372093023173,"midi":78,"time":27.790697674418606,"velocity":0.2677165354330709},{"duration":0.09302325581395365,"midi":97,"time":27.790697674418606,"velocity":0.2440944881889764},{"duration":0.011627906976745095,"midi":45,"time":27.802325581395348,"velocity":0.5748031496062992},{"duration":0.011627906976745095,"midi":44,"time":27.813953488372093,"velocity":0.6062992125984252},{"duration":0.03488372093023173,"midi":66,"time":27.813953488372093,"velocity":0.1732283464566929},{"duration":0.04651162790697683,"midi":75,"time":27.813953488372093,"velocity":0.15748031496062992},{"duration":0.06976744186046702,"midi":95,"time":27.813953488372093,"velocity":0.09448818897637795},{"duration":0.023255813953486637,"midi":42,"time":27.825581395348838,"velocity":0.5669291338582677},{"duration":0.3139534883720927,"midi":70,"time":27.825581395348838,"velocity":0.4645669291338583},{"duration":0.011627906976745095,"midi":41,"time":27.848837209302324,"velocity":0.5118110236220472},{"duration":0.06976744186046702,"midi":51,"time":27.848837209302324,"velocity":0.29133858267716534},{"duration":0.02325581395349019,"midi":40,"time":27.86046511627907,"velocity":0.48031496062992124},{"duration":0.02325581395349019,"midi":60,"time":27.86046511627907,"velocity":0.41732283464566927},{"duration":0.02325581395349019,"midi":35,"time":27.8953488372093,"velocity":0.44881889763779526},{"duration":0.10465116279069875,"midi":60,"time":27.8953488372093,"velocity":0.4094488188976378},{"duration":0.15116279069767558,"midi":66,"time":27.8953488372093,"velocity":0.25984251968503935},{"duration":0.05813953488372192,"midi":44,"time":27.953488372093023,"velocity":0.11811023622047244},{"duration":0.09302325581395365,"midi":99,"time":27.96511627906977,"velocity":0.1732283464566929},{"duration":0.02325581395349019,"midi":58,"time":27.988372093023255,"velocity":0.3779527559055118},{"duration":0.11627906976744384,"midi":58,"time":28.023255813953487,"velocity":0.5354330708661418},{"duration":0.08139534883721211,"midi":92,"time":28.023255813953487,"velocity":0.11811023622047244},{"duration":0.09302325581395365,"midi":96,"time":28.023255813953487,"velocity":0.2125984251968504},{"duration":0.11627906976744384,"midi":98,"time":28.023255813953487,"velocity":0.14960629921259844},{"duration":0.04651162790697683,"midi":102,"time":28.023255813953487,"velocity":0.15748031496062992},{"duration":0.06976744186046702,"midi":80,"time":28.03488372093023,"velocity":0.2283464566929134},{"duration":0.05813953488372192,"midi":83,"time":28.03488372093023,"velocity":0.2204724409448819},{"duration":0.03488372093023173,"midi":88,"time":28.03488372093023,"velocity":0.2283464566929134},{"duration":0.03488372093023173,"midi":90,"time":28.03488372093023,"velocity":0.13385826771653545},{"duration":0.04651162790697683,"midi":91,"time":28.03488372093023,"velocity":0.2440944881889764},{"duration":0.03488372093023173,"midi":45,"time":28.046511627906977,"velocity":0.41732283464566927},{"duration":0.05813953488372192,"midi":74,"time":28.046511627906977,"velocity":0.2440944881889764},{"duration":0.06976744186046346,"midi":76,"time":28.046511627906977,"velocity":0.2204724409448819},{"duration":0.06976744186046346,"midi":53,"time":28.058139534883722,"velocity":0.33070866141732286},{"duration":0.023255813953486637,"midi":68,"time":28.058139534883722,"velocity":0.2677165354330709},{"duration":0.03488372093023173,"midi":79,"time":28.058139534883722,"velocity":0.1968503937007874},{"duration":0.03488372093023173,"midi":94,"time":28.058139534883722,"velocity":0.11811023622047244},{"duration":0.034883720930235285,"midi":81,"time":28.069767441860463,"velocity":0.09448818897637795},{"duration":0.034883720930235285,"midi":100,"time":28.069767441860463,"velocity":0.12598425196850394},{"duration":0.11627906976744384,"midi":46,"time":28.08139534883721,"velocity":0.33858267716535434},{"duration":0.09302325581395365,"midi":77,"time":28.08139534883721,"velocity":0.30708661417322836},{"duration":0.03488372093023173,"midi":66,"time":28.1046511627907,"velocity":0.23622047244094488},{"duration":0.09302325581395365,"midi":34,"time":28.11627906976744,"velocity":0.3858267716535433},{"duration":0.13953488372093048,"midi":73,"time":28.127906976744185,"velocity":0.2677165354330709},{"duration":0.03488372093023173,"midi":66,"time":28.151162790697676,"velocity":0.1889763779527559},{"duration":0.09302325581395365,"midi":70,"time":28.151162790697676,"velocity":0.2125984251968504},{"duration":0.03488372093023173,"midi":57,"time":28.197674418604652,"velocity":0.28346456692913385},{"duration":0.09302325581395365,"midi":66,"time":28.197674418604652,"velocity":0.2283464566929134},{"duration":0.06976744186046702,"midi":77,"time":28.22093023255814,"velocity":0.2047244094488189},{"duration":0.03488372093023173,"midi":58,"time":28.232558139534884,"velocity":0.2677165354330709},{"duration":0.11627906976744384,"midi":70,"time":28.25581395348837,"velocity":0.33858267716535434},{"duration":0.04651162790697683,"midi":57,"time":28.267441860465116,"velocity":0.4330708661417323},{"duration":0.03488372093023173,"midi":78,"time":28.290697674418606,"velocity":0.2125984251968504},{"duration":0.04651162790697683,"midi":79,"time":28.290697674418606,"velocity":0.18110236220472442},{"duration":0.25581395348837077,"midi":95,"time":28.290697674418606,"velocity":0.2125984251968504},{"duration":0.06976744186046346,"midi":96,"time":28.290697674418606,"velocity":0.1732283464566929},{"duration":0.25581395348837077,"midi":99,"time":28.290697674418606,"velocity":0.25196850393700787},{"duration":0.03488372093023173,"midi":100,"time":28.290697674418606,"velocity":0.2440944881889764},{"duration":0.034883720930235285,"midi":64,"time":28.302325581395348,"velocity":0.3858267716535433},{"duration":0.02325581395349019,"midi":80,"time":28.302325581395348,"velocity":0.2440944881889764},{"duration":0.06976744186046702,"midi":83,"time":28.302325581395348,"velocity":0.12598425196850394},{"duration":0.034883720930235285,"midi":85,"time":28.302325581395348,"velocity":0.10236220472440945},{"duration":0.06976744186046702,"midi":88,"time":28.302325581395348,"velocity":0.2677165354330709},{"duration":0.3139534883720927,"midi":89,"time":28.302325581395348,"velocity":0.2755905511811024},{"duration":0.05813953488372192,"midi":90,"time":28.302325581395348,"velocity":0.3228346456692913},{"duration":0.06976744186046702,"midi":94,"time":28.302325581395348,"velocity":0.23622047244094488},{"duration":0.09302325581395365,"midi":97,"time":28.302325581395348,"velocity":0.1732283464566929},{"duration":0.034883720930235285,"midi":98,"time":28.302325581395348,"velocity":0.11811023622047244},{"duration":0.03488372093023173,"midi":45,"time":28.313953488372093,"velocity":0.6141732283464567},{"duration":0.011627906976745095,"midi":53,"time":28.313953488372093,"velocity":0.5196850393700787},{"duration":0.04651162790697683,"midi":74,"time":28.313953488372093,"velocity":0.44881889763779526},{"duration":0.23255813953488413,"midi":61,"time":28.325581395348838,"velocity":0.3228346456692913},{"duration":0.03488372093023173,"midi":81,"time":28.325581395348838,"velocity":0.3700787401574803},{"duration":0.023255813953486637,"midi":56,"time":28.337209302325583,"velocity":0.2755905511811024},{"duration":0.20930232558139394,"midi":66,"time":28.337209302325583,"velocity":0.25196850393700787},{"duration":0.011627906976745095,"midi":44,"time":28.348837209302324,"velocity":0.5984251968503937},{"duration":0.02325581395349019,"midi":51,"time":28.348837209302324,"velocity":0.28346456692913385},{"duration":0.22093023255813904,"midi":85,"time":28.348837209302324,"velocity":0.3779527559055118},{"duration":0.02325581395349019,"midi":42,"time":28.36046511627907,"velocity":0.5748031496062992},{"duration":0.20930232558139394,"midi":73,"time":28.36046511627907,"velocity":0.47244094488188976},{"duration":0.06976744186046702,"midi":77,"time":28.36046511627907,"velocity":0.1968503937007874},{"duration":0.1976744186046524,"midi":80,"time":28.36046511627907,"velocity":0.4015748031496063},{"duration":0.03488372093023173,"midi":87,"time":28.36046511627907,"velocity":0.11023622047244094},{"duration":0.04651162790697683,"midi":103,"time":28.36046511627907,"velocity":0.1732283464566929},{"duration":0.023255813953486637,"midi":52,"time":28.372093023255815,"velocity":0.28346456692913385},{"duration":0.1860465116279073,"midi":101,"time":28.372093023255815,"velocity":0.4015748031496063},{"duration":0.02325581395349019,"midi":37,"time":28.406976744186046,"velocity":0.3937007874015748},{"duration":0.03488372093023173,"midi":36,"time":28.430232558139537,"velocity":0.31496062992125984},{"duration":0.03488372093023173,"midi":103,"time":28.430232558139537,"velocity":0.12598425196850394},{"duration":0.10465116279069875,"midi":77,"time":28.453488372093023,"velocity":0.2283464566929134},{"duration":0.12790697674418539,"midi":103,"time":28.476744186046513,"velocity":0.30708661417322836},{"duration":0.08139534883720856,"midi":70,"time":28.488372093023255,"velocity":0.15748031496062992},{"duration":0.04651162790697683,"midi":100,"time":28.53488372093023,"velocity":0.3228346456692913},{"duration":0.03488372093023173,"midi":81,"time":28.546511627906977,"velocity":0.2204724409448819},{"duration":0.05813953488372192,"midi":86,"time":28.546511627906977,"velocity":0.2204724409448819},{"duration":0.03488372093023173,"midi":102,"time":28.546511627906977,"velocity":0.25984251968503935},{"duration":0.05813953488371837,"midi":78,"time":28.558139534883722,"velocity":0.2204724409448819},{"duration":0.023255813953486637,"midi":83,"time":28.558139534883722,"velocity":0.23622047244094488},{"duration":0.02325581395349019,"midi":63,"time":28.569767441860463,"velocity":0.3464566929133858},{"duration":0.05813953488372192,"midi":71,"time":28.569767441860463,"velocity":0.2125984251968504},{"duration":0.034883720930235285,"midi":75,"time":28.569767441860463,"velocity":0.4409448818897638},{"duration":0.2209302325581426,"midi":80,"time":28.569767441860463,"velocity":0.2440944881889764},{"duration":0.034883720930235285,"midi":84,"time":28.569767441860463,"velocity":0.14960629921259844},{"duration":0.034883720930235285,"midi":94,"time":28.569767441860463,"velocity":0.15748031496062992},{"duration":0.29069767441860606,"midi":101,"time":28.569767441860463,"velocity":0.41732283464566927},{"duration":0.02325581395349019,"midi":82,"time":28.58139534883721,"velocity":0.2440944881889764},{"duration":0.1744186046511622,"midi":91,"time":28.58139534883721,"velocity":0.30708661417322836},{"duration":0.06976744186046702,"midi":97,"time":28.58139534883721,"velocity":0.11811023622047244},{"duration":0.04651162790697683,"midi":64,"time":28.593023255813954,"velocity":0.3228346456692913},{"duration":0.04651162790697683,"midi":88,"time":28.593023255813954,"velocity":0.3779527559055118},{"duration":0.04651162790697683,"midi":102,"time":28.593023255813954,"velocity":0.3937007874015748},{"duration":0.023255813953486637,"midi":40,"time":28.6046511627907,"velocity":0.3858267716535433},{"duration":0.03488372093023173,"midi":57,"time":28.6046511627907,"velocity":0.1889763779527559},{"duration":0.03488372093023173,"midi":67,"time":28.6046511627907,"velocity":0.15748031496062992},{"duration":0.03488372093023173,"midi":76,"time":28.6046511627907,"velocity":0.4094488188976378},{"duration":0.03488372093023173,"midi":83,"time":28.6046511627907,"velocity":0.28346456692913385},{"duration":0.08139534883721211,"midi":48,"time":28.61627906976744,"velocity":0.30708661417322836},{"duration":0.034883720930235285,"midi":73,"time":28.61627906976744,"velocity":0.1732283464566929},{"duration":0.08139534883720856,"midi":63,"time":28.63953488372093,"velocity":0.2992125984251969},{"duration":0.11627906976744029,"midi":75,"time":28.63953488372093,"velocity":0.4251968503937008},{"duration":0.08139534883720856,"midi":82,"time":28.63953488372093,"velocity":0.3464566929133858},{"duration":0.05813953488371837,"midi":41,"time":28.651162790697676,"velocity":0.2677165354330709},{"duration":0.03488372093023173,"midi":30,"time":28.674418604651162,"velocity":0.2204724409448819},{"duration":0.09302325581395365,"midi":70,"time":28.697674418604652,"velocity":0.13385826771653545},{"duration":0.03488372093023173,"midi":89,"time":28.697674418604652,"velocity":0.1732283464566929},{"duration":0.11627906976744384,"midi":58,"time":28.709302325581394,"velocity":0.29133858267716534},{"duration":0.02325581395349019,"midi":74,"time":28.709302325581394,"velocity":0.2440944881889764},{"duration":0.02325581395349019,"midi":64,"time":28.72093023255814,"velocity":0.28346456692913385},{"duration":0.05813953488372192,"midi":77,"time":28.72093023255814,"velocity":0.11023622047244094},{"duration":0.05813953488372192,"midi":79,"time":28.72093023255814,"velocity":0.2047244094488189},{"duration":0.03488372093023173,"midi":83,"time":28.72093023255814,"velocity":0.2677165354330709},{"duration":0.04651162790697683,"midi":88,"time":28.72093023255814,"velocity":0.28346456692913385},{"duration":0.06976744186046346,"midi":53,"time":28.732558139534884,"velocity":0.2677165354330709},{"duration":0.04651162790697683,"midi":62,"time":28.732558139534884,"velocity":0.33858267716535434},{"duration":0.04651162790697683,"midi":67,"time":28.732558139534884,"velocity":0.2125984251968504},{"duration":0.023255813953486637,"midi":46,"time":28.74418604651163,"velocity":0.3228346456692913},{"duration":0.05813953488372192,"midi":73,"time":28.75581395348837,"velocity":0.1968503937007874},{"duration":0.06976744186046702,"midi":64,"time":28.767441860465116,"velocity":0.29133858267716534},{"duration":0.03488372093023173,"midi":75,"time":28.767441860465116,"velocity":0.2440944881889764},{"duration":0.023255813953486637,"midi":34,"time":28.77906976744186,"velocity":0.3700787401574803},{"duration":0.08139534883720856,"midi":102,"time":28.77906976744186,"velocity":0.2125984251968504},{"duration":0.04651162790697683,"midi":87,"time":28.802325581395348,"velocity":0.18110236220472442},{"duration":0.02325581395349019,"midi":34,"time":28.813953488372093,"velocity":0.29133858267716534},{"duration":0.05813953488372192,"midi":83,"time":28.813953488372093,"velocity":0.2125984251968504},{"duration":0.10465116279069875,"midi":75,"time":28.825581395348838,"velocity":0.3464566929133858},{"duration":0.05813953488372192,"midi":79,"time":28.825581395348838,"velocity":0.1968503937007874},{"duration":0.03488372093023173,"midi":85,"time":28.825581395348838,"velocity":0.18110236220472442},{"duration":0.03488372093023173,"midi":89,"time":28.825581395348838,"velocity":0.16535433070866143},{"duration":0.03488372093023173,"midi":91,"time":28.825581395348838,"velocity":0.1968503937007874},{"duration":0.12790697674418539,"midi":94,"time":28.825581395348838,"velocity":0.2047244094488189},{"duration":0.04651162790697683,"midi":100,"time":28.825581395348838,"velocity":0.15748031496062992},{"duration":0.023255813953486637,"midi":63,"time":28.837209302325583,"velocity":0.23622047244094488},{"duration":0.023255813953486637,"midi":66,"time":28.837209302325583,"velocity":0.2283464566929134},{"duration":0.06976744186046346,"midi":80,"time":28.837209302325583,"velocity":0.2125984251968504},{"duration":0.03488372093023173,"midi":88,"time":28.837209302325583,"velocity":0.1732283464566929},{"duration":0.011627906976745095,"midi":47,"time":28.848837209302324,"velocity":0.5511811023622047},{"duration":0.08139534883721211,"midi":68,"time":28.848837209302324,"velocity":0.16535433070866143},{"duration":0.02325581395349019,"midi":45,"time":28.86046511627907,"velocity":0.6377952755905512},{"duration":0.10465116279069875,"midi":82,"time":28.872093023255815,"velocity":0.2204724409448819},{"duration":0.011627906976741542,"midi":43,"time":28.88372093023256,"velocity":0.5984251968503937},{"duration":0.03488372093023173,"midi":62,"time":28.88372093023256,"velocity":0.2204724409448819},{"duration":0.02325581395349019,"midi":42,"time":28.8953488372093,"velocity":0.5275590551181102},{"duration":0.02325581395349019,"midi":53,"time":28.8953488372093,"velocity":0.30708661417322836},{"duration":0.034883720930235285,"midi":58,"time":28.8953488372093,"velocity":0.2440944881889764},{"duration":0.06976744186046702,"midi":84,"time":28.8953488372093,"velocity":0.12598425196850394},{"duration":0.04651162790697683,"midi":91,"time":28.8953488372093,"velocity":0.15748031496062992},{"duration":0.11627906976744029,"midi":72,"time":28.906976744186046,"velocity":0.16535433070866143},{"duration":0.023255813953486637,"midi":53,"time":28.930232558139537,"velocity":0.2283464566929134},{"duration":0.02325581395349019,"midi":36,"time":28.941860465116278,"velocity":0.4094488188976378},{"duration":0.04651162790697683,"midi":63,"time":28.941860465116278,"velocity":0.1732283464566929},{"duration":0.08139534883720856,"midi":68,"time":28.953488372093023,"velocity":0.16535433070866143},{"duration":0.09302325581395365,"midi":75,"time":28.953488372093023,"velocity":0.2125984251968504},{"duration":0.03488372093023173,"midi":46,"time":28.976744186046513,"velocity":0.07086614173228346},{"duration":0.05813953488372192,"midi":60,"time":29,"velocity":0.16535433070866143},{"duration":0.1744186046511622,"midi":84,"time":29.011627906976745,"velocity":0.18110236220472442},{"duration":0.08139534883720856,"midi":68,"time":29.046511627906977,"velocity":0.25984251968503935},{"duration":0.09302325581395365,"midi":72,"time":29.058139534883722,"velocity":0.2204724409448819},{"duration":0.04651162790697683,"midi":75,"time":29.058139534883722,"velocity":0.2125984251968504},{"duration":0.04651162790697683,"midi":77,"time":29.058139534883722,"velocity":0.14960629921259844},{"duration":0.03488372093023173,"midi":88,"time":29.08139534883721,"velocity":0.1889763779527559},{"duration":0.04651162790697683,"midi":91,"time":29.08139534883721,"velocity":0.14173228346456693},{"duration":0.09302325581395365,"midi":58,"time":29.093023255813954,"velocity":0.44881889763779526},{"duration":0.04651162790697683,"midi":78,"time":29.093023255813954,"velocity":0.15748031496062992},{"duration":0.05813953488372192,"midi":81,"time":29.093023255813954,"velocity":0.2204724409448819},{"duration":0.03488372093023173,"midi":86,"time":29.093023255813954,"velocity":0.1968503937007874},{"duration":0.05813953488372192,"midi":89,"time":29.093023255813954,"velocity":0.2204724409448819},{"duration":0.08139534883720856,"midi":92,"time":29.093023255813954,"velocity":0.3543307086614173},{"duration":0.1744186046511622,"midi":94,"time":29.093023255813954,"velocity":0.33858267716535434},{"duration":0.1744186046511622,"midi":96,"time":29.093023255813954,"velocity":0.3464566929133858},{"duration":0.09302325581395365,"midi":98,"time":29.093023255813954,"velocity":0.28346456692913385},{"duration":0.12790697674418539,"midi":51,"time":29.1046511627907,"velocity":0.29133858267716534},{"duration":0.09302325581395365,"midi":74,"time":29.1046511627907,"velocity":0.25984251968503935},{"duration":0.03488372093023173,"midi":76,"time":29.1046511627907,"velocity":0.2204724409448819},{"duration":0.08139534883721211,"midi":66,"time":29.11627906976744,"velocity":0.2204724409448819},{"duration":0.034883720930235285,"midi":79,"time":29.11627906976744,"velocity":0.11023622047244094},{"duration":0.11627906976744384,"midi":87,"time":29.11627906976744,"velocity":0.14960629921259844},{"duration":0.09302325581395365,"midi":44,"time":29.13953488372093,"velocity":0.33858267716535434},{"duration":0.03488372093023173,"midi":77,"time":29.13953488372093,"velocity":0.1968503937007874},{"duration":0.02325581395349019,"midi":33,"time":29.174418604651162,"velocity":0.3228346456692913},{"duration":0.03488372093023173,"midi":93,"time":29.174418604651162,"velocity":0.30708661417322836},{"duration":0.02325581395349019,"midi":95,"time":29.174418604651162,"velocity":0.28346456692913385},{"duration":0.023255813953486637,"midi":59,"time":29.186046511627907,"velocity":0.3700787401574803},{"duration":0.05813953488372192,"midi":68,"time":29.186046511627907,"velocity":0.18110236220472442},{"duration":0.04651162790697683,"midi":32,"time":29.197674418604652,"velocity":0.33070866141732286},{"duration":0.03488372093023173,"midi":84,"time":29.197674418604652,"velocity":0.15748031496062992},{"duration":0.04651162790697683,"midi":98,"time":29.197674418604652,"velocity":0.16535433070866143},{"duration":0.04651162790697683,"midi":60,"time":29.209302325581394,"velocity":0.3464566929133858},{"duration":0.05813953488372192,"midi":91,"time":29.209302325581394,"velocity":0.2204724409448819},{"duration":0.04651162790697683,"midi":74,"time":29.22093023255814,"velocity":0.18110236220472442},{"duration":0.05813953488372192,"midi":88,"time":29.22093023255814,"velocity":0.2047244094488189},{"duration":0.03488372093023173,"midi":92,"time":29.22093023255814,"velocity":0.15748031496062992},{"duration":0.04651162790697683,"midi":76,"time":29.232558139534884,"velocity":0.28346456692913385},{"duration":0.03488372093023173,"midi":83,"time":29.232558139534884,"velocity":0.18110236220472442},{"duration":0.03488372093023173,"midi":53,"time":29.24418604651163,"velocity":0.2755905511811024},{"duration":0.1860465116279073,"midi":68,"time":29.25581395348837,"velocity":0.3464566929133858},{"duration":0.06976744186046702,"midi":77,"time":29.25581395348837,"velocity":0.13385826771653545},{"duration":0.04651162790697683,"midi":79,"time":29.25581395348837,"velocity":0.2204724409448819},{"duration":0.034883720930235285,"midi":81,"time":29.25581395348837,"velocity":0.07874015748031496},{"duration":0.08139534883720856,"midi":46,"time":29.267441860465116,"velocity":0.2992125984251969},{"duration":0.03488372093023173,"midi":57,"time":29.27906976744186,"velocity":0.4094488188976378},{"duration":0.46511627906976827,"midi":75,"time":29.27906976744186,"velocity":0.30708661417322836},{"duration":0.06976744186046702,"midi":34,"time":29.302325581395348,"velocity":0.3464566929133858},{"duration":0.25581395348837077,"midi":102,"time":29.325581395348838,"velocity":0.33858267716535434},{"duration":0.20930232558139394,"midi":94,"time":29.337209302325583,"velocity":0.31496062992125984},{"duration":0.4186046511627879,"midi":101,"time":29.337209302325583,"velocity":0.28346456692913385},{"duration":0.02325581395349019,"midi":91,"time":29.348837209302324,"velocity":0.2440944881889764},{"duration":0.034883720930235285,"midi":95,"time":29.348837209302324,"velocity":0.2125984251968504},{"duration":0.23255813953488413,"midi":96,"time":29.348837209302324,"velocity":0.2204724409448819},{"duration":0.034883720930235285,"midi":99,"time":29.348837209302324,"velocity":0.18110236220472442},{"duration":0.08139534883721211,"midi":100,"time":29.348837209302324,"velocity":0.1732283464566929},{"duration":0.08139534883720856,"midi":88,"time":29.36046511627907,"velocity":0.2283464566929134},{"duration":0.09302325581395365,"midi":89,"time":29.36046511627907,"velocity":0.2204724409448819},{"duration":0.08139534883720856,"midi":90,"time":29.36046511627907,"velocity":0.2755905511811024},{"duration":0.05813953488372192,"midi":97,"time":29.36046511627907,"velocity":0.14960629921259844},{"duration":0.03488372093023173,"midi":45,"time":29.372093023255815,"velocity":0.6141732283464567},{"duration":0.011627906976745095,"midi":53,"time":29.372093023255815,"velocity":0.5196850393700787},{"duration":0.16279069767441712,"midi":58,"time":29.372093023255815,"velocity":0.4330708661417323},{"duration":0.04651162790697683,"midi":62,"time":29.372093023255815,"velocity":0.2755905511811024},{"duration":0.03488372093023173,"midi":79,"time":29.372093023255815,"velocity":0.1889763779527559},{"duration":0.03488372093023173,"midi":83,"time":29.372093023255815,"velocity":0.10236220472440945},{"duration":0.24418604651162568,"midi":98,"time":29.372093023255815,"velocity":0.29133858267716534},{"duration":0.03488372093023173,"midi":85,"time":29.38372093023256,"velocity":0.09448818897637795},{"duration":0.04651162790697683,"midi":86,"time":29.38372093023256,"velocity":0.13385826771653545},{"duration":0.04651162790697683,"midi":82,"time":29.3953488372093,"velocity":0.18110236220472442},{"duration":0.011627906976745095,"midi":44,"time":29.406976744186046,"velocity":0.5905511811023622},{"duration":0.023255813953486637,"midi":42,"time":29.41860465116279,"velocity":0.5669291338582677},{"duration":0.06976744186046346,"midi":63,"time":29.41860465116279,"velocity":0.18110236220472442},{"duration":0.15116279069767202,"midi":77,"time":29.41860465116279,"velocity":0.2204724409448819},{"duration":0.11627906976744029,"midi":99,"time":29.430232558139537,"velocity":0.2677165354330709},{"duration":0.09302325581395365,"midi":91,"time":29.441860465116278,"velocity":0.30708661417322836},{"duration":0.02325581395349019,"midi":53,"time":29.453488372093023,"velocity":0.2283464566929134},{"duration":0.023255813953486637,"midi":37,"time":29.46511627906977,"velocity":0.3937007874015748},{"duration":0.02325581395349019,"midi":36,"time":29.488372093023255,"velocity":0.31496062992125984},{"duration":0.04651162790697683,"midi":86,"time":29.488372093023255,"velocity":0.1968503937007874},{"duration":0.03488372093023173,"midi":93,"time":29.488372093023255,"velocity":0.09448818897637795},{"duration":0.023255813953486637,"midi":48,"time":29.5,"velocity":0.3543307086614173},{"duration":0.05813953488372192,"midi":79,"time":29.5,"velocity":0.2755905511811024},{"duration":0.05813953488372192,"midi":83,"time":29.5,"velocity":0.1968503937007874},{"duration":0.1046511627906952,"midi":65,"time":29.511627906976745,"velocity":0.2047244094488189},{"duration":0.04651162790697683,"midi":49,"time":29.523255813953487,"velocity":0.31496062992125984},{"duration":0.04651162790697683,"midi":80,"time":29.523255813953487,"velocity":0.15748031496062992},{"duration":0.08139534883721211,"midi":92,"time":29.523255813953487,"velocity":0.2755905511811024},{"duration":0.04651162790697683,"midi":37,"time":29.546511627906977,"velocity":0.3858267716535433},{"duration":0.023255813953486637,"midi":57,"time":29.546511627906977,"velocity":0.3858267716535433},{"duration":0.16279069767441712,"midi":100,"time":29.546511627906977,"velocity":0.3779527559055118},{"duration":0.02325581395349019,"midi":50,"time":29.569767441860463,"velocity":0.31496062992125984},{"duration":0.06976744186046702,"midi":58,"time":29.569767441860463,"velocity":0.4566929133858268},{"duration":0.13953488372093048,"midi":103,"time":29.58139534883721,"velocity":0.3464566929133858},{"duration":0.023255813953486637,"midi":38,"time":29.593023255813954,"velocity":0.25196850393700787},{"duration":0.03488372093023173,"midi":49,"time":29.593023255813954,"velocity":0.25984251968503935},{"duration":0.03488372093023173,"midi":68,"time":29.593023255813954,"velocity":0.2755905511811024},{"duration":0.08139534883720856,"midi":94,"time":29.593023255813954,"velocity":0.14173228346456693},{"duration":0.04651162790697683,"midi":78,"time":29.61627906976744,"velocity":0.28346456692913385},{"duration":0.09302325581395365,"midi":82,"time":29.61627906976744,"velocity":0.23622047244094488},{"duration":0.04651162790697683,"midi":90,"time":29.61627906976744,"velocity":0.31496062992125984},{"duration":0.034883720930235285,"midi":92,"time":29.61627906976744,"velocity":0.14960629921259844},{"duration":0.04651162790697683,"midi":93,"time":29.61627906976744,"velocity":0.1968503937007874},{"duration":0.08139534883720856,"midi":72,"time":29.627906976744185,"velocity":0.41732283464566927},{"duration":0.05813953488372192,"midi":81,"time":29.627906976744185,"velocity":0.23622047244094488},{"duration":0.04651162790697683,"midi":85,"time":29.627906976744185,"velocity":0.2047244094488189},{"duration":0.10465116279069875,"midi":55,"time":29.63953488372093,"velocity":0.33858267716535434},{"duration":0.05813953488372192,"midi":68,"time":29.63953488372093,"velocity":0.25984251968503935},{"duration":0.08139534883720856,"midi":96,"time":29.63953488372093,"velocity":0.12598425196850394},{"duration":0.12790697674418539,"midi":48,"time":29.651162790697676,"velocity":0.36220472440944884},{"duration":0.06976744186046346,"midi":60,"time":29.651162790697676,"velocity":0.3858267716535433},{"duration":0.09302325581395365,"midi":64,"time":29.651162790697676,"velocity":0.2677165354330709},{"duration":0.06976744186046346,"midi":79,"time":29.651162790697676,"velocity":0.36220472440944884},{"duration":0.04651162790697683,"midi":88,"time":29.662790697674417,"velocity":0.29133858267716534},{"duration":0.034883720930235285,"midi":98,"time":29.662790697674417,"velocity":0.09448818897637795},{"duration":0.02325581395349019,"midi":37,"time":29.674418604651162,"velocity":0.3779527559055118},{"duration":0.03488372093023173,"midi":36,"time":29.697674418604652,"velocity":0.3858267716535433},{"duration":0.06976744186046346,"midi":70,"time":29.697674418604652,"velocity":0.33858267716535434},{"duration":0.04651162790697683,"midi":87,"time":29.709302325581394,"velocity":0.3858267716535433},{"duration":0.08139534883720856,"midi":68,"time":29.72093023255814,"velocity":0.25984251968503935},{"duration":0.03488372093023173,"midi":78,"time":29.72093023255814,"velocity":0.30708661417322836},{"duration":0.04651162790697683,"midi":83,"time":29.72093023255814,"velocity":0.2677165354330709},{"duration":0.023255813953486637,"midi":37,"time":29.732558139534884,"velocity":0.28346456692913385},{"duration":0.26744186046511587,"midi":100,"time":29.732558139534884,"velocity":0.3858267716535433},{"duration":0.11627906976744029,"midi":58,"time":29.74418604651163,"velocity":0.36220472440944884},{"duration":0.05813953488371837,"midi":63,"time":29.74418604651163,"velocity":0.11023622047244094},{"duration":0.03488372093023173,"midi":97,"time":29.74418604651163,"velocity":0.11023622047244094},{"duration":0.03488372093023173,"midi":102,"time":29.74418604651163,"velocity":0.1732283464566929},{"duration":0.06976744186046346,"midi":103,"time":29.74418604651163,"velocity":0.15748031496062992},{"duration":0.034883720930235285,"midi":36,"time":29.75581395348837,"velocity":0.2047244094488189},{"duration":0.09302325581395365,"midi":77,"time":29.75581395348837,"velocity":0.3228346456692913},{"duration":0.09302325581395365,"midi":86,"time":29.75581395348837,"velocity":0.3937007874015748},{"duration":0.08139534883720856,"midi":82,"time":29.767441860465116,"velocity":0.30708661417322836},{"duration":0.24418604651162568,"midi":70,"time":29.77906976744186,"velocity":0.4409448818897638},{"duration":0.06976744186046346,"midi":75,"time":29.77906976744186,"velocity":0.2204724409448819},{"duration":0.04651162790697683,"midi":96,"time":29.77906976744186,"velocity":0.09448818897637795},{"duration":0.08139534883721211,"midi":101,"time":29.802325581395348,"velocity":0.2047244094488189},{"duration":0.05813953488372192,"midi":79,"time":29.813953488372093,"velocity":0.18110236220472442},{"duration":0.11627906976744029,"midi":99,"time":29.825581395348838,"velocity":0.23622047244094488},{"duration":0.02325581395349019,"midi":81,"time":29.848837209302324,"velocity":0.25196850393700787},{"duration":0.04651162790697683,"midi":85,"time":29.848837209302324,"velocity":0.33070866141732286},{"duration":0.05813953488372192,"midi":103,"time":29.848837209302324,"velocity":0.1968503937007874},{"duration":0.02325581395349019,"midi":57,"time":29.86046511627907,"velocity":0.36220472440944884},{"duration":0.03488372093023173,"midi":68,"time":29.86046511627907,"velocity":0.2755905511811024},{"duration":0.3139534883720927,"midi":72,"time":29.86046511627907,"velocity":0.33070866141732286},{"duration":0.03488372093023173,"midi":75,"time":29.86046511627907,"velocity":0.4330708661417323},{"duration":0.05813953488372192,"midi":77,"time":29.86046511627907,"velocity":0.2047244094488189},{"duration":0.04651162790697683,"midi":60,"time":29.872093023255815,"velocity":0.29133858267716534},{"duration":0.06976744186046346,"midi":86,"time":29.872093023255815,"velocity":0.25984251968503935},{"duration":0.03488372093023173,"midi":79,"time":29.88372093023256,"velocity":0.25196850393700787},{"duration":0.04651162790697683,"midi":83,"time":29.88372093023256,"velocity":0.25984251968503935},{"duration":0.03488372093023173,"midi":102,"time":29.88372093023256,"velocity":0.14173228346456693},{"duration":0.034883720930235285,"midi":74,"time":29.8953488372093,"velocity":0.4094488188976378},{"duration":0.011627906976745095,"midi":48,"time":29.906976744186046,"velocity":0.5354330708661418},{"duration":0.011627906976745095,"midi":45,"time":29.91860465116279,"velocity":0.6220472440944882},{"duration":0.023255813953486637,"midi":55,"time":29.91860465116279,"velocity":0.31496062992125984},{"duration":0.04651162790697683,"midi":68,"time":29.91860465116279,"velocity":0.25196850393700787},{"duration":0.011627906976741542,"midi":44,"time":29.930232558139537,"velocity":0.6220472440944882},{"duration":0.03488372093023173,"midi":75,"time":29.930232558139537,"velocity":0.36220472440944884},{"duration":0.13953488372092693,"midi":84,"time":29.930232558139537,"velocity":0.33070866141732286},{"duration":0.011627906976745095,"midi":43,"time":29.941860465116278,"velocity":0.5984251968503937},{"duration":0.02325581395349019,"midi":56,"time":29.941860465116278,"velocity":0.33070866141732286},{"duration":0.011627906976745095,"midi":42,"time":29.953488372093023,"velocity":0.5669291338582677},{"duration":0.09302325581395365,"midi":86,"time":29.953488372093023,"velocity":0.18110236220472442},{"duration":0.011627906976745095,"midi":41,"time":29.96511627906977,"velocity":0.5118110236220472},{"duration":0.08139534883720856,"midi":56,"time":29.976744186046513,"velocity":0.3937007874015748},{"duration":0.0930232558139501,"midi":75,"time":29.976744186046513,"velocity":0.47244094488188976},{"duration":0.15116279069767202,"midi":80,"time":29.976744186046513,"velocity":0.25196850393700787},{"duration":0.03488372093023173,"midi":101,"time":29.976744186046513,"velocity":0.14960629921259844},{"duration":0.12790697674418539,"midi":63,"time":29.988372093023255,"velocity":0.09448818897637795},{"duration":0.023255813953486637,"midi":37,"time":30,"velocity":0.3858267716535433},{"duration":0.09302325581395365,"midi":100,"time":30.011627906976745,"velocity":0.14173228346456693},{"duration":0.02325581395349019,"midi":36,"time":30.023255813953487,"velocity":0.2992125984251969},{"duration":0.034883720930235285,"midi":101,"time":30.023255813953487,"velocity":0.07086614173228346},{"duration":0.03488372093023173,"midi":83,"time":30.046511627906977,"velocity":0.2755905511811024},{"duration":0.023255813953486637,"midi":55,"time":30.058139534883722,"velocity":0.33070866141732286},{"duration":0.034883720930235285,"midi":70,"time":30.069767441860463,"velocity":0.2204724409448819},{"duration":0.04651162790697683,"midi":86,"time":30.069767441860463,"velocity":0.12598425196850394},{"duration":0.04651162790697683,"midi":56,"time":30.08139534883721,"velocity":0.4015748031496063},{"duration":0.05813953488372192,"midi":75,"time":30.08139534883721,"velocity":0.4330708661417323},{"duration":0.11627906976744384,"midi":70,"time":30.11627906976744,"velocity":0.25196850393700787},{"duration":0.05813953488372192,"midi":101,"time":30.11627906976744,"velocity":0.11023622047244094},{"duration":0.04651162790697683,"midi":57,"time":30.127906976744185,"velocity":0.3937007874015748},{"duration":0.02325581395349019,"midi":76,"time":30.127906976744185,"velocity":0.30708661417322836},{"duration":0.02325581395349019,"midi":81,"time":30.127906976744185,"velocity":0.25196850393700787},{"duration":0.03488372093023173,"midi":90,"time":30.127906976744185,"velocity":0.07086614173228346},{"duration":0.3255813953488378,"midi":100,"time":30.127906976744185,"velocity":0.2125984251968504},{"duration":0.06976744186046346,"midi":68,"time":30.151162790697676,"velocity":0.30708661417322836},{"duration":0.04651162790697683,"midi":75,"time":30.151162790697676,"velocity":0.41732283464566927},{"duration":0.02325581395349019,"midi":56,"time":30.174418604651162,"velocity":0.33070866141732286},{"duration":0.08139534883720856,"midi":83,"time":30.186046511627907,"velocity":0.2125984251968504},{"duration":0.023255813953486637,"midi":55,"time":30.197674418604652,"velocity":0.2992125984251969},{"duration":0.04651162790697683,"midi":72,"time":30.197674418604652,"velocity":0.2283464566929134},{"duration":0.04651162790697683,"midi":74,"time":30.197674418604652,"velocity":0.4409448818897638},{"duration":0.04651162790697683,"midi":79,"time":30.197674418604652,"velocity":0.2755905511811024},{"duration":0.1860465116279073,"midi":56,"time":30.22093023255814,"velocity":0.41732283464566927},{"duration":0.03488372093023173,"midi":101,"time":30.22093023255814,"velocity":0.11811023622047244},{"duration":0.22093023255813904,"midi":80,"time":30.232558139534884,"velocity":0.2677165354330709},{"duration":0.09302325581395365,"midi":87,"time":30.232558139534884,"velocity":0.15748031496062992},{"duration":0.32558139534883423,"midi":75,"time":30.24418604651163,"velocity":0.41732283464566927},{"duration":0.04651162790697683,"midi":78,"time":30.24418604651163,"velocity":0.18110236220472442},{"duration":0.13953488372093048,"midi":84,"time":30.25581395348837,"velocity":0.25196850393700787},{"duration":0.15116279069767558,"midi":72,"time":30.267441860465116,"velocity":0.2125984251968504},{"duration":0.09302325581395365,"midi":86,"time":30.27906976744186,"velocity":0.16535433070866143},{"duration":0.06976744186046346,"midi":101,"time":30.27906976744186,"velocity":0.1968503937007874},{"duration":0.04651162790697683,"midi":77,"time":30.290697674418606,"velocity":0.2125984251968504},{"duration":0.034883720930235285,"midi":82,"time":30.302325581395348,"velocity":0.09448818897637795},{"duration":0.1046511627906952,"midi":83,"time":30.38372093023256,"velocity":0.1732283464566929},{"duration":0.12790697674418539,"midi":70,"time":30.3953488372093,"velocity":0.2755905511811024},{"duration":0.02325581395349019,"midi":55,"time":30.406976744186046,"velocity":0.5039370078740157},{"duration":0.02325581395349019,"midi":78,"time":30.406976744186046,"velocity":0.2283464566929134},{"duration":0.03488372093023173,"midi":86,"time":30.406976744186046,"velocity":0.15748031496062992},{"duration":0.023255813953486637,"midi":62,"time":30.41860465116279,"velocity":0.4094488188976378},{"duration":0.03488372093023173,"midi":73,"time":30.41860465116279,"velocity":0.09448818897637795},{"duration":0.03488372093023173,"midi":84,"time":30.41860465116279,"velocity":0.14173228346456693},{"duration":0.08139534883720856,"midi":89,"time":30.41860465116279,"velocity":0.23622047244094488},{"duration":0.08139534883720856,"midi":90,"time":30.41860465116279,"velocity":0.2992125984251969},{"duration":0.05813953488372192,"midi":95,"time":30.41860465116279,"velocity":0.18110236220472442},{"duration":0.04651162790697683,"midi":97,"time":30.41860465116279,"velocity":0.1732283464566929},{"duration":0.03488372093023173,"midi":45,"time":30.430232558139537,"velocity":0.6141732283464567},{"duration":0.011627906976741542,"midi":53,"time":30.430232558139537,"velocity":0.5196850393700787},{"duration":0.023255813953486637,"midi":67,"time":30.430232558139537,"velocity":0.2440944881889764},{"duration":0.06976744186046346,"midi":88,"time":30.430232558139537,"velocity":0.1968503937007874},{"duration":0.06976744186046346,"midi":94,"time":30.430232558139537,"velocity":0.14960629921259844},{"duration":0.034883720930235285,"midi":68,"time":30.441860465116278,"velocity":0.09448818897637795},{"duration":0.034883720930235285,"midi":81,"time":30.441860465116278,"velocity":0.13385826771653545},{"duration":0.011627906976745095,"midi":44,"time":30.46511627906977,"velocity":0.5984251968503937},{"duration":0.09302325581395365,"midi":80,"time":30.46511627906977,"velocity":0.2440944881889764},{"duration":0.023255813953486637,"midi":42,"time":30.476744186046513,"velocity":0.5826771653543307},{"duration":0.03488372093023173,"midi":56,"time":30.476744186046513,"velocity":0.3543307086614173},{"duration":0.15116279069767202,"midi":72,"time":30.511627906976745,"velocity":0.1968503937007874},{"duration":0.02325581395349019,"midi":37,"time":30.523255813953487,"velocity":0.4015748031496063},{"duration":0.10465116279069875,"midi":56,"time":30.523255813953487,"velocity":0.41732283464566927},{"duration":0.023255813953486637,"midi":36,"time":30.546511627906977,"velocity":0.33070866141732286},{"duration":0.034883720930235285,"midi":87,"time":30.569767441860463,"velocity":0.08661417322834646},{"duration":0.04651162790697683,"midi":75,"time":30.58139534883721,"velocity":0.23622047244094488},{"duration":0.034883720930235285,"midi":76,"time":30.61627906976744,"velocity":0.1968503937007874},{"duration":0.10465116279069875,"midi":81,"time":30.61627906976744,"velocity":0.2440944881889764},{"duration":0.05813953488372192,"midi":57,"time":30.627906976744185,"velocity":0.44881889763779526},{"duration":0.08139534883720856,"midi":85,"time":30.627906976744185,"velocity":0.1968503937007874},{"duration":0.06976744186046702,"midi":100,"time":30.627906976744185,"velocity":0.14173228346456693},{"duration":0.09302325581395365,"midi":75,"time":30.63953488372093,"velocity":0.2992125984251969},{"duration":0.05813953488372192,"midi":63,"time":30.674418604651162,"velocity":0.2283464566929134},{"duration":0.05813953488372192,"midi":78,"time":30.674418604651162,"velocity":0.2204724409448819},{"duration":0.03488372093023173,"midi":56,"time":30.686046511627907,"velocity":0.44881889763779526},{"duration":0.05813953488372192,"midi":83,"time":30.686046511627907,"velocity":0.2440944881889764},{"duration":0.04651162790697683,"midi":86,"time":30.686046511627907,"velocity":0.1968503937007874},{"duration":0.023255813953486637,"midi":71,"time":30.697674418604652,"velocity":0.2677165354330709},{"duration":0.02325581395349019,"midi":41,"time":30.709302325581394,"velocity":0.3779527559055118},{"duration":0.06976744186046702,"midi":74,"time":30.709302325581394,"velocity":0.23622047244094488},{"duration":0.02325581395349019,"midi":55,"time":30.72093023255814,"velocity":0.3858267716535433},{"duration":0.10465116279069875,"midi":65,"time":30.72093023255814,"velocity":0.14173228346456693},{"duration":0.09302325581395365,"midi":70,"time":30.72093023255814,"velocity":0.2755905511811024},{"duration":0.05813953488372192,"midi":48,"time":30.732558139534884,"velocity":0.31496062992125984},{"duration":0.03488372093023173,"midi":41,"time":30.767441860465116,"velocity":0.2992125984251969},{"duration":0.023255813953486637,"midi":55,"time":30.77906976744186,"velocity":0.2283464566929134},{"duration":0.03488372093023173,"midi":68,"time":30.77906976744186,"velocity":0.18110236220472442},{"duration":0.04651162790697683,"midi":75,"time":30.77906976744186,"velocity":0.2283464566929134},{"duration":0.02325581395349019,"midi":56,"time":30.802325581395348,"velocity":0.3228346456692913},{"duration":0.03488372093023173,"midi":69,"time":30.813953488372093,"velocity":0.13385826771653545},{"duration":0.06976744186046702,"midi":80,"time":30.813953488372093,"velocity":0.1968503937007874},{"duration":0.04651162790697683,"midi":88,"time":30.813953488372093,"velocity":0.18110236220472442},{"duration":0.03488372093023173,"midi":89,"time":30.813953488372093,"velocity":0.12598425196850394},{"duration":0.03488372093023173,"midi":91,"time":30.813953488372093,"velocity":0.18110236220472442},{"duration":0.03488372093023173,"midi":57,"time":30.825581395348838,"velocity":0.36220472440944884},{"duration":0.03488372093023173,"midi":74,"time":30.825581395348838,"velocity":0.13385826771653545},{"duration":0.06976744186046346,"midi":76,"time":30.825581395348838,"velocity":0.28346456692913385},{"duration":0.03488372093023173,"midi":83,"time":30.825581395348838,"velocity":0.18110236220472442},{"duration":0.023255813953486637,"midi":45,"time":30.837209302325583,"velocity":0.36220472440944884},{"duration":0.08139534883720856,"midi":62,"time":30.837209302325583,"velocity":0.2204724409448819},{"duration":0.06976744186046346,"midi":68,"time":30.837209302325583,"velocity":0.18110236220472442},{"duration":0.04651162790697683,"midi":79,"time":30.837209302325583,"velocity":0.18110236220472442},{"duration":0.04651162790697683,"midi":81,"time":30.837209302325583,"velocity":0.16535433070866143},{"duration":0.034883720930235285,"midi":53,"time":30.848837209302324,"velocity":0.33858267716535434},{"duration":0.03488372093023173,"midi":46,"time":30.86046511627907,"velocity":0.33070866141732286},{"duration":0.023255813953486637,"midi":57,"time":30.872093023255815,"velocity":0.3228346456692913},{"duration":0.023255813953486637,"midi":35,"time":30.88372093023256,"velocity":0.36220472440944884},{"duration":0.02325581395349019,"midi":53,"time":30.8953488372093,"velocity":0.2283464566929134},{"duration":0.04651162790697683,"midi":75,"time":30.8953488372093,"velocity":0.12598425196850394},{"duration":0.02325581395349019,"midi":33,"time":30.941860465116278,"velocity":0.2440944881889764},{"duration":0.034883720930235285,"midi":62,"time":30.941860465116278,"velocity":0.2755905511811024},{"duration":0.10465116279069875,"midi":76,"time":30.941860465116278,"velocity":0.1889763779527559},{"duration":0.12790697674418539,"midi":80,"time":30.941860465116278,"velocity":0.2755905511811024},{"duration":0.034883720930235285,"midi":88,"time":30.941860465116278,"velocity":0.2204724409448819},{"duration":0.06976744186046702,"midi":96,"time":30.941860465116278,"velocity":0.2125984251968504},{"duration":0.09302325581395365,"midi":102,"time":30.941860465116278,"velocity":0.14960629921259844},{"duration":0.03488372093023173,"midi":58,"time":30.953488372093023,"velocity":0.2992125984251969},{"duration":0.04651162790697683,"midi":83,"time":30.953488372093023,"velocity":0.1889763779527559},{"duration":0.6976744186046524,"midi":92,"time":30.953488372093023,"velocity":0.33858267716535434},{"duration":0.03488372093023173,"midi":93,"time":30.953488372093023,"velocity":0.11023622047244094},{"duration":0.011627906976745095,"midi":48,"time":30.96511627906977,"velocity":0.5511811023622047},{"duration":0.3139534883720927,"midi":68,"time":30.96511627906977,"velocity":0.31496062992125984},{"duration":0.06976744186046346,"midi":77,"time":30.96511627906977,"velocity":0.1732283464566929},{"duration":0.023255813953486637,"midi":45,"time":30.976744186046513,"velocity":0.6299212598425197},{"duration":0.33720930232557933,"midi":99,"time":30.976744186046513,"velocity":0.2204724409448819},{"duration":0.09302325581395365,"midi":65,"time":30.988372093023255,"velocity":0.16535433070866143},{"duration":0.011627906976745095,"midi":43,"time":31,"velocity":0.5984251968503937},{"duration":0.04651162790697683,"midi":82,"time":31,"velocity":0.07874015748031496},{"duration":0.011627906976741542,"midi":42,"time":31.011627906976745,"velocity":0.5354330708661418},{"duration":0.05813953488371837,"midi":53,"time":31.011627906976745,"velocity":0.23622047244094488},{"duration":0.19767441860464885,"midi":85,"time":31.011627906976745,"velocity":0.16535433070866143},{"duration":0.03488372093023173,"midi":37,"time":31.046511627906977,"velocity":0.4645669291338583},{"duration":0.08139534883720856,"midi":61,"time":31.058139534883722,"velocity":0.15748031496062992},{"duration":0.04651162790697683,"midi":78,"time":31.058139534883722,"velocity":0.11023622047244094},{"duration":0.034883720930235285,"midi":54,"time":31.069767441860463,"velocity":0.2047244094488189},{"duration":0.1976744186046524,"midi":87,"time":31.069767441860463,"velocity":0.1889763779527559},{"duration":0.12790697674418539,"midi":70,"time":31.08139534883721,"velocity":0.11023622047244094},{"duration":0.05813953488372192,"midi":58,"time":31.093023255813954,"velocity":0.2125984251968504},{"duration":0.03488372093023173,"midi":65,"time":31.093023255813954,"velocity":0.12598425196850394},{"duration":0.05813953488372192,"midi":89,"time":31.093023255813954,"velocity":0.13385826771653545},{"duration":0.16279069767442067,"midi":77,"time":31.11627906976744,"velocity":0.25984251968503935},{"duration":0.10465116279069875,"midi":73,"time":31.127906976744185,"velocity":0.30708661417322836},{"duration":0.09302325581395365,"midi":82,"time":31.13953488372093,"velocity":0.13385826771653545},{"duration":0.023255813953486637,"midi":57,"time":31.151162790697676,"velocity":0.23622047244094488},{"duration":0.06976744186046702,"midi":61,"time":31.174418604651162,"velocity":0.25984251968503935},{"duration":0.03488372093023173,"midi":66,"time":31.174418604651162,"velocity":0.14960629921259844},{"duration":0.11627906976744029,"midi":102,"time":31.186046511627907,"velocity":0.12598425196850394},{"duration":0.023255813953486637,"midi":55,"time":31.197674418604652,"velocity":0.48031496062992124},{"duration":0.034883720930235285,"midi":84,"time":31.209302325581394,"velocity":0.10236220472440945},{"duration":0.05813953488372192,"midi":86,"time":31.209302325581394,"velocity":0.1968503937007874},{"duration":0.08139534883721211,"midi":93,"time":31.209302325581394,"velocity":0.1889763779527559},{"duration":0.04651162790697683,"midi":95,"time":31.209302325581394,"velocity":0.13385826771653545},{"duration":0.02325581395349019,"midi":56,"time":31.22093023255814,"velocity":0.5354330708661418},{"duration":0.02325581395349019,"midi":78,"time":31.22093023255814,"velocity":0.2283464566929134},{"duration":0.023255813953486637,"midi":51,"time":31.232558139534884,"velocity":0.2755905511811024},{"duration":0.03488372093023173,"midi":57,"time":31.24418604651163,"velocity":0.5433070866141733},{"duration":0.09302325581395365,"midi":66,"time":31.24418604651163,"velocity":0.25196850393700787},{"duration":0.03488372093023173,"midi":81,"time":31.24418604651163,"velocity":0.09448818897637795},{"duration":0.05813953488372192,"midi":44,"time":31.25581395348837,"velocity":0.30708661417322836},{"duration":0.10465116279069875,"midi":73,"time":31.25581395348837,"velocity":0.25984251968503935},{"duration":0.10465116279069875,"midi":94,"time":31.25581395348837,"velocity":0.30708661417322836},{"duration":0.02325581395349019,"midi":35,"time":31.267441860465116,"velocity":0.29133858267716534},{"duration":0.04651162790697683,"midi":51,"time":31.267441860465116,"velocity":0.28346456692913385},{"duration":0.6162790697674438,"midi":70,"time":31.267441860465116,"velocity":0.49606299212598426},{"duration":0.05813953488372192,"midi":103,"time":31.267441860465116,"velocity":0.1732283464566929},{"duration":0.1860465116279073,"midi":58,"time":31.27906976744186,"velocity":0.5118110236220472},{"duration":0.023255813953486637,"midi":33,"time":31.290697674418606,"velocity":0.30708661417322836},{"duration":0.05813953488372192,"midi":87,"time":31.302325581395348,"velocity":0.25196850393700787},{"duration":0.04651162790697683,"midi":32,"time":31.313953488372093,"velocity":0.30708661417322836},{"duration":0.4534883720930232,"midi":102,"time":31.325581395348838,"velocity":0.31496062992125984},{"duration":0.03488372093023173,"midi":77,"time":31.337209302325583,"velocity":0.23622047244094488},{"duration":0.04651162790697683,"midi":91,"time":31.337209302325583,"velocity":0.2047244094488189},{"duration":0.034883720930235285,"midi":45,"time":31.348837209302324,"velocity":0.3543307086614173},{"duration":0.12790697674418894,"midi":66,"time":31.348837209302324,"velocity":0.3543307086614173},{"duration":0.04651162790697683,"midi":83,"time":31.348837209302324,"velocity":0.12598425196850394},{"duration":0.034883720930235285,"midi":96,"time":31.348837209302324,"velocity":0.14173228346456693},{"duration":0.05813953488372192,"midi":76,"time":31.36046511627907,"velocity":0.2440944881889764},{"duration":0.09302325581395365,"midi":46,"time":31.38372093023256,"velocity":0.29133858267716534},{"duration":0.22093023255813904,"midi":77,"time":31.38372093023256,"velocity":0.36220472440944884},{"duration":0.12790697674418539,"midi":96,"time":31.406976744186046,"velocity":0.2125984251968504},{"duration":0.05813953488372192,"midi":34,"time":31.41860465116279,"velocity":0.3700787401574803},{"duration":0.08139534883720856,"midi":87,"time":31.41860465116279,"velocity":0.1968503937007874},{"duration":0.3372093023255829,"midi":73,"time":31.453488372093023,"velocity":0.33858267716535434},{"duration":0.05813953488372192,"midi":98,"time":31.453488372093023,"velocity":0.2047244094488189},{"duration":0.08139534883720856,"midi":103,"time":31.453488372093023,"velocity":0.1732283464566929},{"duration":0.023255813953486637,"midi":54,"time":31.46511627906977,"velocity":0.4645669291338583},{"duration":0.023255813953486637,"midi":68,"time":31.46511627906977,"velocity":0.31496062992125984},{"duration":0.05813953488371837,"midi":100,"time":31.46511627906977,"velocity":0.1732283464566929},{"duration":0.023255813953486637,"midi":35,"time":31.476744186046513,"velocity":0.2755905511811024},{"duration":0.023255813953486637,"midi":61,"time":31.476744186046513,"velocity":0.4251968503937008},{"duration":0.06976744186046346,"midi":90,"time":31.476744186046513,"velocity":0.2755905511811024},{"duration":0.03488372093023173,"midi":93,"time":31.476744186046513,"velocity":0.15748031496062992},{"duration":0.046511627906973274,"midi":97,"time":31.476744186046513,"velocity":0.14173228346456693},{"duration":0.046511627906973274,"midi":101,"time":31.476744186046513,"velocity":0.23622047244094488},{"duration":0.011627906976745095,"midi":53,"time":31.488372093023255,"velocity":0.5275590551181102},{"duration":0.03488372093023173,"midi":83,"time":31.488372093023255,"velocity":0.11023622047244094},{"duration":0.05813953488372192,"midi":88,"time":31.488372093023255,"velocity":0.2283464566929134},{"duration":0.023255813953486637,"midi":45,"time":31.5,"velocity":0.6141732283464567},{"duration":0.15116279069767558,"midi":66,"time":31.5,"velocity":0.3700787401574803},{"duration":0.24418604651162568,"midi":99,"time":31.511627906976745,"velocity":0.1968503937007874},{"duration":0.011627906976745095,"midi":44,"time":31.523255813953487,"velocity":0.5905511811023622},{"duration":0.02325581395349019,"midi":42,"time":31.53488372093023,"velocity":0.5669291338582677},{"duration":0.15116279069767558,"midi":61,"time":31.53488372093023,"velocity":0.2755905511811024},{"duration":0.13953488372093048,"midi":87,"time":31.53488372093023,"velocity":0.2125984251968504},{"duration":0.15116279069767558,"midi":98,"time":31.53488372093023,"velocity":0.23622047244094488},{"duration":0.023255813953486637,"midi":52,"time":31.546511627906977,"velocity":0.28346456692913385},{"duration":0.13953488372093048,"midi":86,"time":31.546511627906977,"velocity":0.2440944881889764},{"duration":0.03488372093023173,"midi":58,"time":31.558139534883722,"velocity":0.1732283464566929},{"duration":0.02325581395349019,"midi":53,"time":31.569767441860463,"velocity":0.2677165354330709},{"duration":0.09302325581395365,"midi":96,"time":31.569767441860463,"velocity":0.16535433070866143},{"duration":0.05813953488372192,"midi":101,"time":31.569767441860463,"velocity":0.14173228346456693},{"duration":0.02325581395349019,"midi":37,"time":31.58139534883721,"velocity":0.4015748031496063},{"duration":0.023255813953486637,"midi":36,"time":31.6046511627907,"velocity":0.31496062992125984},{"duration":0.023255813953486637,"midi":58,"time":31.6046511627907,"velocity":0.2992125984251969},{"duration":0.04651162790697683,"midi":91,"time":31.6046511627907,"velocity":0.18110236220472442},{"duration":0.02325581395349019,"midi":48,"time":31.61627906976744,"velocity":0.3464566929133858},{"duration":0.12790697674418894,"midi":77,"time":31.61627906976744,"velocity":0.2204724409448819},{"duration":0.02325581395349019,"midi":57,"time":31.627906976744185,"velocity":0.33858267716535434},{"duration":0.06976744186046702,"midi":75,"time":31.627906976744185,"velocity":0.11811023622047244},{"duration":0.03488372093023173,"midi":79,"time":31.627906976744185,"velocity":0.23622047244094488},{"duration":0.04651162790697683,"midi":83,"time":31.627906976744185,"velocity":0.1732283464566929},{"duration":0.04651162790697683,"midi":49,"time":31.63953488372093,"velocity":0.30708661417322836},{"duration":0.023255813953486637,"midi":65,"time":31.63953488372093,"velocity":0.2283464566929134},{"duration":0.10465116279069875,"midi":101,"time":31.63953488372093,"velocity":0.2283464566929134},{"duration":0.09302325581395365,"midi":103,"time":31.63953488372093,"velocity":0.30708661417322836},{"duration":0.023255813953486637,"midi":56,"time":31.651162790697676,"velocity":0.33858267716535434},{"duration":0.02325581395349019,"midi":37,"time":31.662790697674417,"velocity":0.36220472440944884},{"duration":0.034883720930235285,"midi":66,"time":31.662790697674417,"velocity":0.33858267716535434},{"duration":0.23255813953488413,"midi":92,"time":31.674418604651162,"velocity":0.33070866141732286},{"duration":0.03488372093023173,"midi":96,"time":31.674418604651162,"velocity":0.14173228346456693},{"duration":0.03488372093023173,"midi":50,"time":31.686046511627907,"velocity":0.31496062992125984},{"duration":0.11627906976744029,"midi":80,"time":31.686046511627907,"velocity":0.33070866141732286},{"duration":0.3488372093023244,"midi":87,"time":31.686046511627907,"velocity":0.2440944881889764},{"duration":0.023255813953486637,"midi":61,"time":31.697674418604652,"velocity":0.2283464566929134},{"duration":0.06976744186046702,"midi":66,"time":31.709302325581394,"velocity":0.3228346456692913},{"duration":0.04651162790697683,"midi":91,"time":31.732558139534884,"velocity":0.11023622047244094},{"duration":0.023255813953486637,"midi":47,"time":31.74418604651163,"velocity":0.3464566929133858},{"duration":0.023255813953486637,"midi":58,"time":31.74418604651163,"velocity":0.4015748031496063},{"duration":0.23255813953488413,"midi":88,"time":31.74418604651163,"velocity":0.31496062992125984},{"duration":0.03488372093023173,"midi":93,"time":31.74418604651163,"velocity":0.2125984251968504},{"duration":0.04651162790697683,"midi":98,"time":31.74418604651163,"velocity":0.30708661417322836},{"duration":0.04651162790697683,"midi":83,"time":31.75581395348837,"velocity":0.11023622047244094},{"duration":0.10465116279069875,"midi":48,"time":31.767441860465116,"velocity":0.36220472440944884},{"duration":0.13953488372093048,"midi":77,"time":31.767441860465116,"velocity":0.2992125984251969},{"duration":0.05813953488372192,"midi":61,"time":31.77906976744186,"velocity":0.4566929133858268},{"duration":0.25581395348837077,"midi":96,"time":31.77906976744186,"velocity":0.2755905511811024},{"duration":0.40697674418604635,"midi":99,"time":31.77906976744186,"velocity":0.3464566929133858},{"duration":0.04651162790697683,"midi":55,"time":31.790697674418606,"velocity":0.31496062992125984},{"duration":0.023255813953486637,"midi":72,"time":31.790697674418606,"velocity":0.2677165354330709},{"duration":0.06976744186046702,"midi":36,"time":31.802325581395348,"velocity":0.33070866141732286},{"duration":0.16279069767442067,"midi":91,"time":31.802325581395348,"velocity":0.1732283464566929},{"duration":0.3604651162790731,"midi":80,"time":31.813953488372093,"velocity":0.28346456692913385},{"duration":0.16279069767442067,"midi":98,"time":31.813953488372093,"velocity":0.36220472440944884},{"duration":0.03488372093023173,"midi":102,"time":31.813953488372093,"velocity":0.07874015748031496},{"duration":0.04651162790697683,"midi":60,"time":31.837209302325583,"velocity":0.48031496062992124},{"duration":0.17441860465115866,"midi":94,"time":31.837209302325583,"velocity":0.36220472440944884},{"duration":0.12790697674418539,"midi":68,"time":31.86046511627907,"velocity":0.29133858267716534},{"duration":0.03488372093023173,"midi":66,"time":31.872093023255815,"velocity":0.23622047244094488},{"duration":0.09302325581395365,"midi":60,"time":31.8953488372093,"velocity":0.5354330708661418},{"duration":0.23255813953488058,"midi":70,"time":31.906976744186046,"velocity":0.3464566929133858},{"duration":0.03488372093023173,"midi":66,"time":31.91860465116279,"velocity":0.28346456692913385},{"duration":0.2558139534883743,"midi":102,"time":31.91860465116279,"velocity":0.4409448818897638},{"duration":0.860465116279066,"midi":92,"time":31.930232558139537,"velocity":0.47244094488188976},{"duration":0.03488372093023173,"midi":55,"time":31.953488372093023,"velocity":0.18110236220472442},{"duration":0.12790697674418539,"midi":66,"time":31.96511627906977,"velocity":0.33070866141732286},{"duration":0.081395348837205,"midi":77,"time":31.96511627906977,"velocity":0.2992125984251969},{"duration":0.034883720930235285,"midi":61,"time":31.988372093023255,"velocity":0.4566929133858268},{"duration":0.034883720930235285,"midi":88,"time":31.988372093023255,"velocity":0.23622047244094488},{"duration":0.04651162790697683,"midi":91,"time":31.988372093023255,"velocity":0.11811023622047244},{"duration":0.05813953488371837,"midi":93,"time":31.988372093023255,"velocity":0.2125984251968504},{"duration":0.1976744186046524,"midi":101,"time":31.988372093023255,"velocity":0.3543307086614173},{"duration":0.03488372093023173,"midi":81,"time":32,"velocity":0.2047244094488189},{"duration":0.03488372093023173,"midi":84,"time":32,"velocity":0.07874015748031496},{"duration":0.03488372093023173,"midi":86,"time":32,"velocity":0.2283464566929134},{"duration":0.13953488372092693,"midi":97,"time":32,"velocity":0.29133858267716534},{"duration":0.09302325581395365,"midi":95,"time":32.01162790697674,"velocity":0.3937007874015748},{"duration":0.011627906976741542,"midi":48,"time":32.02325581395349,"velocity":0.5118110236220472},{"duration":0.081395348837205,"midi":68,"time":32.02325581395349,"velocity":0.25196850393700787},{"duration":0.011627906976741542,"midi":46,"time":32.03488372093023,"velocity":0.5669291338582677},{"duration":0.09302325581395365,"midi":61,"time":32.03488372093023,"velocity":0.31496062992125984},{"duration":0.04651162790698038,"midi":88,"time":32.03488372093023,"velocity":0.15748031496062992},{"duration":0.011627906976748648,"midi":44,"time":32.04651162790697,"velocity":0.5826771653543307},{"duration":0.11627906976744384,"midi":89,"time":32.04651162790697,"velocity":0.25196850393700787},{"duration":0.03488372093023884,"midi":103,"time":32.04651162790697,"velocity":0.33858267716535434},{"duration":0.02325581395349019,"midi":42,"time":32.05813953488372,"velocity":0.5669291338582677},{"duration":0.22093023255813904,"midi":77,"time":32.05813953488372,"velocity":0.2204724409448819},{"duration":0.011627906976741542,"midi":41,"time":32.08139534883721,"velocity":0.5275590551181102},{"duration":0.09302325581395365,"midi":51,"time":32.093023255813954,"velocity":0.2992125984251969},{"duration":0.04651162790698038,"midi":60,"time":32.127906976744185,"velocity":0.3228346456692913},{"duration":0.02325581395349019,"midi":34,"time":32.13953488372093,"velocity":0.4094488188976378},{"duration":0.13953488372093403,"midi":68,"time":32.13953488372093,"velocity":0.25196850393700787},{"duration":0.04651162790698038,"midi":72,"time":32.13953488372093,"velocity":0.4015748031496063},{"duration":0.03488372093023173,"midi":98,"time":32.151162790697676,"velocity":0.09448818897637795},{"duration":0.22093023255813904,"midi":70,"time":32.16279069767442,"velocity":0.5039370078740157},{"duration":0.03488372093023173,"midi":58,"time":32.18604651162791,"velocity":0.2204724409448819},{"duration":0.09302325581395365,"midi":73,"time":32.18604651162791,"velocity":0.3543307086614173},{"duration":0.17441860465116577,"midi":102,"time":32.18604651162791,"velocity":0.25196850393700787},{"duration":0.43023255813953654,"midi":80,"time":32.19767441860465,"velocity":0.3228346456692913},{"duration":0.2093023255813975,"midi":99,"time":32.19767441860465,"velocity":0.36220472440944884},{"duration":0.03488372093023884,"midi":66,"time":32.23255813953488,"velocity":0.2204724409448819},{"duration":0.04651162790698038,"midi":87,"time":32.23255813953488,"velocity":0.1732283464566929},{"duration":0.16279069767442422,"midi":101,"time":32.23255813953488,"velocity":0.12598425196850394},{"duration":0.046511627906973274,"midi":57,"time":32.24418604651163,"velocity":0.3937007874015748},{"duration":0.05813953488372192,"midi":91,"time":32.25581395348837,"velocity":0.31496062992125984},{"duration":0.11627906976744384,"midi":98,"time":32.25581395348837,"velocity":0.28346456692913385},{"duration":0.046511627906973274,"midi":79,"time":32.26744186046512,"velocity":0.2283464566929134},{"duration":0.046511627906973274,"midi":83,"time":32.26744186046512,"velocity":0.18110236220472442},{"duration":0.11627906976743674,"midi":89,"time":32.26744186046512,"velocity":0.23622047244094488},{"duration":0.03488372093023173,"midi":96,"time":32.26744186046512,"velocity":0.11811023622047244},{"duration":0.02325581395349019,"midi":74,"time":32.27906976744186,"velocity":0.31496062992125984},{"duration":0.06976744186046346,"midi":76,"time":32.27906976744186,"velocity":0.25196850393700787},{"duration":0.08139534883721211,"midi":53,"time":32.2906976744186,"velocity":0.3228346456692913},{"duration":0.08139534883721211,"midi":58,"time":32.2906976744186,"velocity":0.4251968503937008},{"duration":0.12790697674418539,"midi":77,"time":32.2906976744186,"velocity":0.2992125984251969},{"duration":0.1046511627906952,"midi":46,"time":32.30232558139535,"velocity":0.33858267716535434},{"duration":0.11627906976743674,"midi":73,"time":32.30232558139535,"velocity":0.3858267716535433},{"duration":0.24418604651162212,"midi":87,"time":32.30232558139535,"velocity":0.14960629921259844},{"duration":0.06976744186046346,"midi":100,"time":32.30232558139535,"velocity":0.2677165354330709},{"duration":0.08139534883721211,"midi":96,"time":32.325581395348834,"velocity":0.13385826771653545},{"duration":0.02325581395349019,"midi":35,"time":32.33720930232558,"velocity":0.3464566929133858},{"duration":0.11627906976744384,"midi":66,"time":32.348837209302324,"velocity":0.1889763779527559},{"duration":0.03488372093023173,"midi":34,"time":32.36046511627907,"velocity":0.3464566929133858},{"duration":0.08139534883721211,"midi":102,"time":32.372093023255815,"velocity":0.14173228346456693},{"duration":0.046511627906973274,"midi":60,"time":32.395348837209305,"velocity":0.1889763779527559},{"duration":0.12790697674418539,"midi":70,"time":32.395348837209305,"velocity":0.3779527559055118},{"duration":0.03488372093023884,"midi":54,"time":32.41860465116279,"velocity":0.08661417322834646},{"duration":0.15116279069767558,"midi":99,"time":32.41860465116279,"velocity":0.25196850393700787},{"duration":0.09302325581394655,"midi":73,"time":32.45348837209303,"velocity":0.2440944881889764},{"duration":0.03488372093023173,"midi":77,"time":32.46511627906977,"velocity":0.14173228346456693},{"duration":0.02325581395349019,"midi":59,"time":32.51162790697674,"velocity":0.3543307086614173},{"duration":0.023255813953483084,"midi":69,"time":32.52325581395349,"velocity":0.4015748031496063},{"duration":0.05813953488372192,"midi":77,"time":32.52325581395349,"velocity":0.2283464566929134},{"duration":0.046511627906973274,"midi":83,"time":32.52325581395349,"velocity":0.2204724409448819},{"duration":0.05813953488372192,"midi":96,"time":32.52325581395349,"velocity":0.2283464566929134},{"duration":0.1860465116279073,"midi":102,"time":32.52325581395349,"velocity":0.2125984251968504},{"duration":0.08139534883721211,"midi":66,"time":32.53488372093023,"velocity":0.36220472440944884},{"duration":0.05813953488372192,"midi":90,"time":32.53488372093023,"velocity":0.2755905511811024},{"duration":0.08139534883721211,"midi":94,"time":32.53488372093023,"velocity":0.14960629921259844},{"duration":0.08139534883721211,"midi":97,"time":32.53488372093023,"velocity":0.16535433070866143},{"duration":0.03488372093023173,"midi":100,"time":32.53488372093023,"velocity":0.1968503937007874},{"duration":0.02325581395349019,"midi":45,"time":32.54651162790697,"velocity":0.5511811023622047},{"duration":0.011627906976748648,"midi":53,"time":32.54651162790697,"velocity":0.5196850393700787},{"duration":0.02325581395349019,"midi":76,"time":32.54651162790697,"velocity":0.3543307086614173},{"duration":0.05813953488372192,"midi":84,"time":32.54651162790697,"velocity":0.3464566929133858},{"duration":0.05813953488372192,"midi":56,"time":32.55813953488372,"velocity":0.3937007874015748},{"duration":0.12790697674418539,"midi":87,"time":32.55813953488372,"velocity":0.14960629921259844},{"duration":0.03488372093023173,"midi":91,"time":32.55813953488372,"velocity":0.11023622047244094},{"duration":0.011627906976748648,"midi":44,"time":32.56976744186046,"velocity":0.6062992125984252},{"duration":0.04651162790698038,"midi":73,"time":32.56976744186046,"velocity":0.2755905511811024},{"duration":0.04651162790698038,"midi":75,"time":32.56976744186046,"velocity":0.4251968503937008},{"duration":0.011627906976741542,"midi":43,"time":32.58139534883721,"velocity":0.5826771653543307},{"duration":0.03488372093023173,"midi":82,"time":32.58139534883721,"velocity":0.1732283464566929},{"duration":0.11627906976743674,"midi":99,"time":32.58139534883721,"velocity":0.25196850393700787},{"duration":0.03488372093023173,"midi":103,"time":32.58139534883721,"velocity":0.16535433070866143},{"duration":0.02325581395349019,"midi":42,"time":32.593023255813954,"velocity":0.5590551181102362},{"duration":0.2093023255813975,"midi":77,"time":32.604651162790695,"velocity":0.2677165354330709},{"duration":0.05813953488372192,"midi":83,"time":32.604651162790695,"velocity":0.4094488188976378},{"duration":0.03488372093023173,"midi":67,"time":32.616279069767444,"velocity":0.2992125984251969},{"duration":0.03488372093023173,"midi":74,"time":32.616279069767444,"velocity":0.4409448818897638},{"duration":0.06976744186046346,"midi":61,"time":32.627906976744185,"velocity":0.14173228346456693},{"duration":0.02325581395349019,"midi":37,"time":32.63953488372093,"velocity":0.3779527559055118},{"duration":0.05813953488372192,"midi":56,"time":32.651162790697676,"velocity":0.3464566929133858},{"duration":0.03488372093023173,"midi":75,"time":32.651162790697676,"velocity":0.4094488188976378},{"duration":0.046511627906973274,"midi":80,"time":32.651162790697676,"velocity":0.3858267716535433},{"duration":0.03488372093023173,"midi":103,"time":32.651162790697676,"velocity":0.10236220472440945},{"duration":0.02325581395349019,"midi":36,"time":32.66279069767442,"velocity":0.2992125984251969},{"duration":0.02325581395349019,"midi":84,"time":32.66279069767442,"velocity":0.3464566929133858},{"duration":0.058139534883714816,"midi":83,"time":32.674418604651166,"velocity":0.18110236220472442},{"duration":0.02325581395349019,"midi":69,"time":32.68604651162791,"velocity":0.30708661417322836},{"duration":0.02325581395349019,"midi":76,"time":32.68604651162791,"velocity":0.36220472440944884},{"duration":0.06976744186046346,"midi":81,"time":32.68604651162791,"velocity":0.4015748031496063},{"duration":0.02325581395349019,"midi":85,"time":32.68604651162791,"velocity":0.29133858267716534},{"duration":0.03488372093023173,"midi":100,"time":32.68604651162791,"velocity":0.16535433070866143},{"duration":0.05813953488372192,"midi":61,"time":32.7093023255814,"velocity":0.09448818897637795},{"duration":0.05813953488372192,"midi":68,"time":32.7093023255814,"velocity":0.31496062992125984},{"duration":1.7906976744186025,"midi":99,"time":32.7093023255814,"velocity":0.4094488188976378},{"duration":0.02325581395349019,"midi":55,"time":32.73255813953488,"velocity":0.3937007874015748},{"duration":0.08139534883721211,"midi":84,"time":32.73255813953488,"velocity":0.29133858267716534},{"duration":0.03488372093023173,"midi":56,"time":32.75581395348837,"velocity":0.30708661417322836},{"duration":0.13953488372093403,"midi":70,"time":32.75581395348837,"velocity":0.28346456692913385},{"duration":0.06976744186046346,"midi":73,"time":32.75581395348837,"velocity":0.2992125984251969},{"duration":0.02325581395349019,"midi":76,"time":32.75581395348837,"velocity":0.2440944881889764},{"duration":0.09302325581395365,"midi":80,"time":32.75581395348837,"velocity":0.3543307086614173},{"duration":0.046511627906973274,"midi":75,"time":32.76744186046512,"velocity":0.30708661417322836},{"duration":0.08139534883721211,"midi":79,"time":32.7906976744186,"velocity":0.2047244094488189},{"duration":0.04651162790698038,"midi":91,"time":32.7906976744186,"velocity":0.2204724409448819},{"duration":0.03488372093023173,"midi":45,"time":32.80232558139535,"velocity":0.36220472440944884},{"duration":0.03488372093023173,"midi":68,"time":32.81395348837209,"velocity":0.25196850393700787},{"duration":0.03488372093023173,"midi":74,"time":32.81395348837209,"velocity":0.31496062992125984},{"duration":0.02325581395349019,"midi":76,"time":32.81395348837209,"velocity":0.2677165354330709},{"duration":0.04651162790698038,"midi":83,"time":32.81395348837209,"velocity":0.2677165354330709},{"duration":0.5930232558139537,"midi":87,"time":32.81395348837209,"velocity":0.2755905511811024},{"duration":0.03488372093023884,"midi":53,"time":32.825581395348834,"velocity":0.3543307086614173},{"duration":0.03488372093023884,"midi":58,"time":32.825581395348834,"velocity":0.29133858267716534},{"duration":0.03488372093023173,"midi":46,"time":32.83720930232558,"velocity":0.31496062992125984},{"duration":0.081395348837205,"midi":73,"time":32.83720930232558,"velocity":0.2677165354330709},{"duration":0.03488372093023173,"midi":81,"time":32.83720930232558,"velocity":0.1732283464566929},{"duration":0.08139534883721211,"midi":76,"time":32.848837209302324,"velocity":0.2677165354330709},{"duration":0.03488372093023173,"midi":77,"time":32.848837209302324,"velocity":0.07874015748031496},{"duration":0.06976744186046346,"midi":68,"time":32.86046511627907,"velocity":0.1732283464566929},{"duration":0.081395348837205,"midi":102,"time":32.86046511627907,"velocity":0.16535433070866143},{"duration":0.05813953488372192,"midi":34,"time":32.883720930232556,"velocity":0.3464566929133858},{"duration":0.03488372093023173,"midi":56,"time":32.895348837209305,"velocity":0.2440944881889764},{"duration":0.03488372093023173,"midi":77,"time":32.895348837209305,"velocity":0.12598425196850394},{"duration":0.17441860465115866,"midi":80,"time":32.895348837209305,"velocity":0.28346456692913385},{"duration":0.04651162790698038,"midi":91,"time":32.91860465116279,"velocity":0.16535433070866143},{"duration":0.02325581395349019,"midi":55,"time":32.93023255813954,"velocity":0.23622047244094488},{"duration":0.05813953488372192,"midi":79,"time":32.93023255813954,"velocity":0.1889763779527559},{"duration":0.046511627906973274,"midi":83,"time":32.93023255813954,"velocity":0.12598425196850394},{"duration":0.08139534883721211,"midi":68,"time":32.94186046511628,"velocity":0.1732283464566929},{"duration":0.04651162790698038,"midi":76,"time":32.94186046511628,"velocity":0.2204724409448819},{"duration":0.03488372093023173,"midi":53,"time":32.95348837209303,"velocity":0.25196850393700787},{"duration":0.023255813953483084,"midi":58,"time":32.95348837209303,"velocity":0.29133858267716534},{"duration":0.03488372093023173,"midi":81,"time":32.95348837209303,"velocity":0.12598425196850394},{"duration":0.03488372093023173,"midi":94,"time":32.95348837209303,"velocity":0.10236220472440945},{"duration":0.046511627906973274,"midi":46,"time":32.96511627906977,"velocity":0.23622047244094488},{"duration":0.02325581395349019,"midi":57,"time":32.97674418604651,"velocity":0.31496062992125984},{"duration":0.13953488372093403,"midi":102,"time":32.97674418604651,"velocity":0.16535433070866143},{"duration":0.04651162790698038,"midi":34,"time":33.01162790697674,"velocity":0.30708661417322836},{"duration":0.03488372093023173,"midi":57,"time":33.01162790697674,"velocity":0.11811023622047244},{"duration":0.03488372093023173,"midi":96,"time":33.01162790697674,"velocity":0.08661417322834646},{"duration":0.02325581395349019,"midi":56,"time":33.04651162790697,"velocity":0.23622047244094488},{"duration":0.05813953488372192,"midi":72,"time":33.05813953488372,"velocity":0.2677165354330709},{"duration":0.03488372093023173,"midi":88,"time":33.05813953488372,"velocity":0.13385826771653545},{"duration":0.046511627906973274,"midi":90,"time":33.05813953488372,"velocity":0.13385826771653545},{"duration":0.03488372093023173,"midi":91,"time":33.05813953488372,"velocity":0.13385826771653545},{"duration":0.03488372093023173,"midi":94,"time":33.05813953488372,"velocity":0.33858267716535434},{"duration":0.046511627906973274,"midi":95,"time":33.05813953488372,"velocity":0.18110236220472442},{"duration":0.15116279069767558,"midi":96,"time":33.05813953488372,"velocity":0.30708661417322836},{"duration":0.046511627906973274,"midi":97,"time":33.05813953488372,"velocity":0.1968503937007874},{"duration":0.05813953488372192,"midi":98,"time":33.05813953488372,"velocity":0.2204724409448819},{"duration":0.05813953488372192,"midi":69,"time":33.06976744186046,"velocity":0.28346456692913385},{"duration":0.04651162790698038,"midi":81,"time":33.06976744186046,"velocity":0.3228346456692913},{"duration":0.011627906976741542,"midi":48,"time":33.08139534883721,"velocity":0.5275590551181102},{"duration":0.03488372093023173,"midi":93,"time":33.08139534883721,"velocity":0.3464566929133858},{"duration":0.011627906976741542,"midi":45,"time":33.093023255813954,"velocity":0.6062992125984252},{"duration":0.02325581395349019,"midi":74,"time":33.093023255813954,"velocity":0.4094488188976378},{"duration":0.046511627906973274,"midi":103,"time":33.093023255813954,"velocity":0.2125984251968504},{"duration":0.011627906976748648,"midi":44,"time":33.104651162790695,"velocity":0.6141732283464567},{"duration":0.5348837209302317,"midi":77,"time":33.104651162790695,"velocity":0.33858267716535434},{"duration":0.2325581395348877,"midi":80,"time":33.104651162790695,"velocity":0.30708661417322836},{"duration":0.03488372093023173,"midi":91,"time":33.104651162790695,"velocity":0.2204724409448819},{"duration":0.7325581395348877,"midi":94,"time":33.104651162790695,"velocity":0.5354330708661418},{"duration":0.9767441860465169,"midi":101,"time":33.104651162790695,"velocity":0.29133858267716534},{"duration":0.023255813953483084,"midi":43,"time":33.116279069767444,"velocity":0.5748031496062992},{"duration":0.22093023255813904,"midi":75,"time":33.116279069767444,"velocity":0.49606299212598426},{"duration":0.05813953488372192,"midi":82,"time":33.116279069767444,"velocity":0.16535433070866143},{"duration":0.04651162790698038,"midi":58,"time":33.13953488372093,"velocity":0.2204724409448819},{"duration":0.05813953488372192,"midi":83,"time":33.13953488372093,"velocity":0.11811023622047244},{"duration":0.04651162790698038,"midi":90,"time":33.13953488372093,"velocity":0.1889763779527559},{"duration":0.04651162790698038,"midi":102,"time":33.13953488372093,"velocity":0.2440944881889764},{"duration":0.4534883720930196,"midi":63,"time":33.151162790697676,"velocity":0.47244094488188976},{"duration":0.05813953488372192,"midi":85,"time":33.16279069767442,"velocity":0.07086614173228346},{"duration":0.2325581395348877,"midi":92,"time":33.16279069767442,"velocity":0.31496062992125984},{"duration":0.023255813953483084,"midi":35,"time":33.174418604651166,"velocity":0.31496062992125984},{"duration":0.4534883720930196,"midi":91,"time":33.18604651162791,"velocity":0.3937007874015748},{"duration":0.09302325581395365,"midi":73,"time":33.19767441860465,"velocity":0.15748031496062992},{"duration":0.08139534883721211,"midi":82,"time":33.19767441860465,"velocity":0.16535433070866143},{"duration":0.11627906976744384,"midi":97,"time":33.19767441860465,"velocity":0.30708661417322836},{"duration":0.023255813953483084,"midi":36,"time":33.2093023255814,"velocity":0.30708661417322836},{"duration":0.06976744186046346,"midi":102,"time":33.22093023255814,"velocity":0.16535433070866143},{"duration":0.03488372093023884,"midi":93,"time":33.23255813953488,"velocity":0.11023622047244094},{"duration":0.05813953488372192,"midi":58,"time":33.25581395348837,"velocity":0.12598425196850394},{"duration":0.13953488372093403,"midi":96,"time":33.25581395348837,"velocity":0.25196850393700787},{"duration":0.04651162790698038,"midi":93,"time":33.2906976744186,"velocity":0.16535433070866143},{"duration":0.11627906976743674,"midi":84,"time":33.30232558139535,"velocity":0.2283464566929134},{"duration":0.046511627906973274,"midi":85,"time":33.30232558139535,"velocity":0.14173228346456693},{"duration":0.3139534883720927,"midi":97,"time":33.325581395348834,"velocity":0.3464566929133858},{"duration":0.03488372093023884,"midi":100,"time":33.325581395348834,"velocity":0.1732283464566929},{"duration":0.09302325581395365,"midi":69,"time":33.33720930232558,"velocity":0.2204724409448819},{"duration":0.09302325581395365,"midi":82,"time":33.33720930232558,"velocity":0.23622047244094488},{"duration":0.9883720930232585,"midi":75,"time":33.348837209302324,"velocity":0.5433070866141733},{"duration":0.023255813953483084,"midi":55,"time":33.36046511627907,"velocity":0.23622047244094488},{"duration":0.1046511627906952,"midi":70,"time":33.36046511627907,"velocity":0.16535433070866143},{"duration":0.058139534883714816,"midi":93,"time":33.36046511627907,"velocity":0.10236220472440945},{"duration":0.1046511627906952,"midi":80,"time":33.372093023255815,"velocity":0.25984251968503935},{"duration":0.023255813953483084,"midi":39,"time":33.395348837209305,"velocity":0.29133858267716534},{"duration":0.08139534883721211,"midi":85,"time":33.406976744186046,"velocity":0.14960629921259844},{"duration":0.17441860465116577,"midi":84,"time":33.44186046511628,"velocity":0.28346456692913385},{"duration":0.023255813953483084,"midi":72,"time":33.45348837209303,"velocity":0.2283464566929134},{"duration":0.046511627906973274,"midi":93,"time":33.45348837209303,"velocity":0.12598425196850394},{"duration":0.03488372093023173,"midi":55,"time":33.47674418604651,"velocity":0.23622047244094488},{"duration":0.03488372093023173,"midi":69,"time":33.47674418604651,"velocity":0.23622047244094488},{"duration":0.03488372093023173,"midi":73,"time":33.47674418604651,"velocity":0.2047244094488189},{"duration":0.3372093023255829,"midi":82,"time":33.47674418604651,"velocity":0.3858267716535433},{"duration":0.03488372093023173,"midi":72,"time":33.5,"velocity":0.1732283464566929},{"duration":0.08139534883721211,"midi":80,"time":33.5,"velocity":0.15748031496062992},{"duration":0.081395348837205,"midi":70,"time":33.52325581395349,"velocity":0.1732283464566929},{"duration":0.06976744186047057,"midi":73,"time":33.54651162790697,"velocity":0.23622047244094488},{"duration":0.02325581395349019,"midi":38,"time":33.56976744186046,"velocity":0.2283464566929134},{"duration":0.02325581395349019,"midi":58,"time":33.56976744186046,"velocity":0.3543307086614173},{"duration":0.046511627906973274,"midi":102,"time":33.58139534883721,"velocity":0.11811023622047244},{"duration":0.03488372093023173,"midi":86,"time":33.593023255813954,"velocity":0.18110236220472442},{"duration":0.06976744186046346,"midi":95,"time":33.593023255813954,"velocity":0.14960629921259844},{"duration":0.03488372093023173,"midi":100,"time":33.593023255813954,"velocity":0.12598425196850394},{"duration":0.011627906976741542,"midi":45,"time":33.616279069767444,"velocity":0.5433070866141733},{"duration":0.24418604651162923,"midi":63,"time":33.616279069767444,"velocity":0.31496062992125984},{"duration":0.011627906976741542,"midi":44,"time":33.627906976744185,"velocity":0.5984251968503937},{"duration":0.011627906976748648,"midi":43,"time":33.63953488372093,"velocity":0.5669291338582677},{"duration":0.011627906976741542,"midi":42,"time":33.651162790697676,"velocity":0.5590551181102362},{"duration":0.046511627906973274,"midi":85,"time":33.651162790697676,"velocity":0.14173228346456693},{"duration":0.13953488372092693,"midi":91,"time":33.651162790697676,"velocity":0.33858267716535434},{"duration":0.011627906976748648,"midi":41,"time":33.66279069767442,"velocity":0.5118110236220472},{"duration":0.05813953488372192,"midi":77,"time":33.66279069767442,"velocity":0.23622047244094488},{"duration":0.05813953488372192,"midi":97,"time":33.66279069767442,"velocity":0.2125984251968504},{"duration":0.03488372093023173,"midi":52,"time":33.69767441860465,"velocity":0.2283464566929134},{"duration":0.03488372093023173,"midi":90,"time":33.7093023255814,"velocity":0.14173228346456693},{"duration":0.03488372093023173,"midi":93,"time":33.7093023255814,"velocity":0.11811023622047244},{"duration":0.03488372093023173,"midi":56,"time":33.72093023255814,"velocity":0.2047244094488189},{"duration":0.11627906976744384,"midi":69,"time":33.72093023255814,"velocity":0.2204724409448819},{"duration":0.05813953488372192,"midi":81,"time":33.72093023255814,"velocity":0.23622047244094488},{"duration":0.02325581395349019,"midi":51,"time":33.73255813953488,"velocity":0.25984251968503935},{"duration":0.08139534883721211,"midi":77,"time":33.75581395348837,"velocity":0.1889763779527559},{"duration":0.04651162790698038,"midi":97,"time":33.75581395348837,"velocity":0.11811023622047244},{"duration":0.03488372093023173,"midi":39,"time":33.7906976744186,"velocity":0.33070866141732286},{"duration":0.03488372093023173,"midi":96,"time":33.80232558139535,"velocity":0.09448818897637795},{"duration":0.06976744186046346,"midi":90,"time":33.81395348837209,"velocity":0.2047244094488189},{"duration":0.02325581395349019,"midi":60,"time":33.83720930232558,"velocity":0.28346456692913385},{"duration":0.2093023255813904,"midi":84,"time":33.83720930232558,"velocity":0.25196850393700787},{"duration":0.3720930232558146,"midi":89,"time":33.83720930232558,"velocity":0.4645669291338583},{"duration":0.023255813953483084,"midi":57,"time":33.86046511627907,"velocity":0.2440944881889764},{"duration":0.081395348837205,"midi":65,"time":33.86046511627907,"velocity":0.48031496062992124},{"duration":0.023255813953483084,"midi":76,"time":33.86046511627907,"velocity":0.2283464566929134},{"duration":0.03488372093023173,"midi":81,"time":33.86046511627907,"velocity":0.1889763779527559},{"duration":0.046511627906973274,"midi":86,"time":33.86046511627907,"velocity":0.2204724409448819},{"duration":0.2093023255813904,"midi":93,"time":33.86046511627907,"velocity":0.2992125984251969},{"duration":0.19767441860464885,"midi":96,"time":33.86046511627907,"velocity":0.4251968503937008},{"duration":0.046511627906973274,"midi":70,"time":33.872093023255815,"velocity":0.08661417322834646},{"duration":0.09302325581395365,"midi":103,"time":33.872093023255815,"velocity":0.18110236220472442},{"duration":0.12790697674418539,"midi":51,"time":33.883720930232556,"velocity":0.28346456692913385},{"duration":0.16279069767441712,"midi":56,"time":33.883720930232556,"velocity":0.29133858267716534},{"duration":0.15116279069767558,"midi":79,"time":33.883720930232556,"velocity":0.14173228346456693},{"duration":0.30232558139535115,"midi":82,"time":33.883720930232556,"velocity":0.25984251968503935},{"duration":0.6279069767441854,"midi":91,"time":33.883720930232556,"velocity":0.3937007874015748},{"duration":0.48837209302325846,"midi":94,"time":33.883720930232556,"velocity":0.41732283464566927},{"duration":0.22093023255813904,"midi":72,"time":33.895348837209305,"velocity":0.1968503937007874},{"duration":0.12790697674418539,"midi":44,"time":33.906976744186046,"velocity":0.29133858267716534},{"duration":0.06976744186046346,"midi":60,"time":33.906976744186046,"velocity":0.1968503937007874},{"duration":0.02325581395349019,"midi":33,"time":33.93023255813954,"velocity":0.28346456692913385},{"duration":0.02325581395349019,"midi":66,"time":33.94186046511628,"velocity":0.33858267716535434},{"duration":0.046511627906973274,"midi":32,"time":33.95348837209303,"velocity":0.3228346456692913},{"duration":0.09302325581395365,"midi":65,"time":33.96511627906977,"velocity":0.47244094488188976},{"duration":0.02325581395349019,"midi":33,"time":34,"velocity":0.2283464566929134},{"duration":0.05813953488372192,"midi":60,"time":34.01162790697674,"velocity":0.29133858267716534},{"duration":0.09302325581395365,"midi":97,"time":34.03488372093023,"velocity":0.15748031496062992},{"duration":0.03488372093023173,"midi":66,"time":34.05813953488372,"velocity":0.30708661417322836},{"duration":0.046511627906973274,"midi":77,"time":34.05813953488372,"velocity":0.07874015748031496},{"duration":0.02325581395349019,"midi":57,"time":34.093023255813954,"velocity":0.3779527559055118},{"duration":0.03488372093023173,"midi":65,"time":34.093023255813954,"velocity":0.30708661417322836},{"duration":0.046511627906973274,"midi":93,"time":34.093023255813954,"velocity":0.1968503937007874},{"duration":0.04651162790698038,"midi":80,"time":34.104651162790695,"velocity":0.16535433070866143},{"duration":0.023255813953483084,"midi":53,"time":34.116279069767444,"velocity":0.3779527559055118},{"duration":0.09302325581395365,"midi":63,"time":34.116279069767444,"velocity":0.3937007874015748},{"duration":0.03488372093023173,"midi":96,"time":34.116279069767444,"velocity":0.2047244094488189},{"duration":0.03488372093023173,"midi":98,"time":34.116279069767444,"velocity":0.2125984251968504},{"duration":0.03488372093023173,"midi":100,"time":34.116279069767444,"velocity":0.13385826771653545},{"duration":0.03488372093023173,"midi":102,"time":34.116279069767444,"velocity":0.2440944881889764},{"duration":0.25581395348837077,"midi":68,"time":34.127906976744185,"velocity":0.1732283464566929},{"duration":0.011627906976748648,"midi":48,"time":34.13953488372093,"velocity":0.5196850393700787},{"duration":0.011627906976741542,"midi":45,"time":34.151162790697676,"velocity":0.6062992125984252},{"duration":0.03488372093023173,"midi":93,"time":34.151162790697676,"velocity":0.07874015748031496},{"duration":0.19767441860464885,"midi":97,"time":34.151162790697676,"velocity":0.29133858267716534},{"duration":0.011627906976748648,"midi":44,"time":34.16279069767442,"velocity":0.6062992125984252},{"duration":0.011627906976741542,"midi":43,"time":34.174418604651166,"velocity":0.5748031496062992},{"duration":0.046511627906973274,"midi":56,"time":34.174418604651166,"velocity":0.2440944881889764},{"duration":0.081395348837205,"midi":60,"time":34.174418604651166,"velocity":0.25984251968503935},{"duration":0.011627906976741542,"midi":42,"time":34.18604651162791,"velocity":0.5354330708661418},{"duration":0.03488372093023173,"midi":65,"time":34.19767441860465,"velocity":0.29133858267716534},{"duration":0.12790697674418539,"midi":82,"time":34.19767441860465,"velocity":0.48031496062992124},{"duration":0.02325581395349019,"midi":37,"time":34.23255813953488,"velocity":0.36220472440944884},{"duration":0.03488372093023884,"midi":63,"time":34.23255813953488,"velocity":0.31496062992125984},{"duration":0.03488372093023884,"midi":89,"time":34.23255813953488,"velocity":0.13385826771653545},{"duration":0.03488372093023173,"midi":36,"time":34.25581395348837,"velocity":0.2992125984251969},{"duration":0.023255813953483084,"midi":60,"time":34.26744186046512,"velocity":0.3779527559055118},{"duration":0.05813953488372192,"midi":63,"time":34.27906976744186,"velocity":0.28346456692913385},{"duration":0.023255813953483084,"midi":57,"time":34.30232558139535,"velocity":0.30708661417322836},{"duration":0.25581395348837077,"midi":89,"time":34.30232558139535,"velocity":0.2204724409448819},{"duration":0.06976744186046346,"midi":88,"time":34.31395348837209,"velocity":0.48031496062992124},{"duration":0.05813953488372192,"midi":53,"time":34.325581395348834,"velocity":0.25984251968503935},{"duration":0.04651162790698038,"midi":76,"time":34.325581395348834,"velocity":0.4015748031496063},{"duration":0.05813953488372192,"midi":83,"time":34.325581395348834,"velocity":0.4409448818897638},{"duration":0.081395348837205,"midi":60,"time":34.33720930232558,"velocity":0.3779527559055118},{"duration":0.03488372093023173,"midi":92,"time":34.33720930232558,"velocity":0.29133858267716534},{"duration":0.023255813953483084,"midi":64,"time":34.36046511627907,"velocity":0.2677165354330709},{"duration":0.5116279069767415,"midi":97,"time":34.36046511627907,"velocity":0.36220472440944884},{"duration":0.11627906976744384,"midi":75,"time":34.372093023255815,"velocity":0.4330708661417323},{"duration":0.03488372093023173,"midi":79,"time":34.372093023255815,"velocity":0.2204724409448819},{"duration":0.11627906976744384,"midi":87,"time":34.372093023255815,"velocity":0.44881889763779526},{"duration":0.1046511627907023,"midi":82,"time":34.383720930232556,"velocity":0.48031496062992124},{"duration":0.04651162790698038,"midi":86,"time":34.383720930232556,"velocity":0.2125984251968504},{"duration":0.05813953488372192,"midi":78,"time":34.395348837209305,"velocity":0.2204724409448819},{"duration":0.11627906976744384,"midi":44,"time":34.406976744186046,"velocity":0.33858267716535434},{"duration":0.05813953488372192,"midi":66,"time":34.406976744186046,"velocity":0.2204724409448819},{"duration":0.08139534883721211,"midi":70,"time":34.406976744186046,"velocity":0.13385826771653545},{"duration":0.11627906976744384,"midi":73,"time":34.406976744186046,"velocity":0.28346456692913385},{"duration":0.3720930232558146,"midi":101,"time":34.406976744186046,"velocity":0.23622047244094488},{"duration":0.03488372093023884,"midi":51,"time":34.41860465116279,"velocity":0.29133858267716534},{"duration":0.03488372093023884,"midi":61,"time":34.41860465116279,"velocity":0.36220472440944884},{"duration":0.08139534883721211,"midi":80,"time":34.41860465116279,"velocity":0.1732283464566929},{"duration":0.22093023255813904,"midi":92,"time":34.41860465116279,"velocity":0.31496062992125984},{"duration":0.046511627906973274,"midi":93,"time":34.43023255813954,"velocity":0.09448818897637795},{"duration":0.09302325581395365,"midi":96,"time":34.44186046511628,"velocity":0.1732283464566929},{"duration":0.023255813953483084,"midi":34,"time":34.45348837209303,"velocity":0.29133858267716534},{"duration":0.081395348837205,"midi":60,"time":34.45348837209303,"velocity":0.2755905511811024},{"duration":0.02325581395349019,"midi":54,"time":34.46511627906977,"velocity":0.23622047244094488},{"duration":0.03488372093023173,"midi":65,"time":34.46511627906977,"velocity":0.2204724409448819},{"duration":0.06976744186046346,"midi":102,"time":34.47674418604651,"velocity":0.1732283464566929},{"duration":0.046511627906973274,"midi":32,"time":34.48837209302326,"velocity":0.2992125984251969},{"duration":0.058139534883714816,"midi":76,"time":34.48837209302326,"velocity":0.4566929133858268},{"duration":0.058139534883714816,"midi":83,"time":34.48837209302326,"velocity":0.4881889763779528},{"duration":0.046511627906973274,"midi":88,"time":34.48837209302326,"velocity":0.47244094488188976},{"duration":0.046511627906973274,"midi":52,"time":34.5,"velocity":0.2440944881889764},{"duration":0.02325581395349019,"midi":64,"time":34.5,"velocity":0.28346456692913385},{"duration":0.03488372093023173,"midi":81,"time":34.51162790697674,"velocity":0.1732283464566929},{"duration":0.081395348837205,"midi":78,"time":34.52325581395349,"velocity":0.13385826771653545},{"duration":0.15116279069767558,"midi":80,"time":34.52325581395349,"velocity":0.2125984251968504},{"duration":0.046511627906973274,"midi":84,"time":34.52325581395349,"velocity":0.15748031496062992},{"duration":0.1046511627906952,"midi":44,"time":34.53488372093023,"velocity":0.3543307086614173},{"duration":0.04651162790698038,"midi":66,"time":34.53488372093023,"velocity":0.16535433070866143},{"duration":0.1046511627906952,"midi":68,"time":34.53488372093023,"velocity":0.1732283464566929},{"duration":0.04651162790698038,"midi":85,"time":34.53488372093023,"velocity":0.30708661417322836},{"duration":0.15116279069767558,"midi":87,"time":34.53488372093023,"velocity":0.4566929133858268},{"duration":0.3488372093023244,"midi":91,"time":34.53488372093023,"velocity":0.36220472440944884},{"duration":0.03488372093023884,"midi":51,"time":34.54651162790697,"velocity":0.3228346456692913},{"duration":0.03488372093023884,"midi":72,"time":34.54651162790697,"velocity":0.25196850393700787},{"duration":0.02325581395349019,"midi":74,"time":34.54651162790697,"velocity":0.2677165354330709},{"duration":0.2093023255813975,"midi":75,"time":34.54651162790697,"velocity":0.47244094488188976},{"duration":0.1279069767441925,"midi":82,"time":34.54651162790697,"velocity":0.4645669291338583},{"duration":0.03488372093023173,"midi":60,"time":34.55813953488372,"velocity":0.2677165354330709},{"duration":0.06976744186046346,"midi":73,"time":34.56976744186046,"velocity":0.30708661417322836},{"duration":0.02325581395349019,"midi":88,"time":34.56976744186046,"velocity":0.2677165354330709},{"duration":0.023255813953483084,"midi":52,"time":34.58139534883721,"velocity":0.33858267716535434},{"duration":0.16279069767441712,"midi":89,"time":34.58139534883721,"velocity":0.2204724409448819},{"duration":0.03488372093023173,"midi":33,"time":34.593023255813954,"velocity":0.31496062992125984},{"duration":0.08139534883721211,"midi":63,"time":34.593023255813954,"velocity":0.4251968503937008},{"duration":0.04651162790698038,"midi":32,"time":34.627906976744185,"velocity":0.3228346456692913},{"duration":0.03488372093023884,"midi":72,"time":34.63953488372093,"velocity":0.2125984251968504},{"duration":0.15116279069767558,"midi":95,"time":34.63953488372093,"velocity":0.2283464566929134},{"duration":0.05813953488372192,"midi":96,"time":34.63953488372093,"velocity":0.1732283464566929},{"duration":0.06976744186047057,"midi":100,"time":34.63953488372093,"velocity":0.11811023622047244},{"duration":0.1046511627907023,"midi":102,"time":34.63953488372093,"velocity":0.1732283464566929},{"duration":0.09302325581395365,"midi":90,"time":34.651162790697676,"velocity":0.33858267716535434},{"duration":0.06976744186046346,"midi":93,"time":34.651162790697676,"velocity":0.14173228346456693},{"duration":0.011627906976748648,"midi":53,"time":34.66279069767442,"velocity":0.5196850393700787},{"duration":0.03488372093023173,"midi":83,"time":34.66279069767442,"velocity":0.28346456692913385},{"duration":0.06976744186046346,"midi":88,"time":34.66279069767442,"velocity":0.31496062992125984},{"duration":0.12790697674418539,"midi":92,"time":34.66279069767442,"velocity":0.23622047244094488},{"duration":0.09302325581395365,"midi":98,"time":34.66279069767442,"velocity":0.10236220472440945},{"duration":0.011627906976741542,"midi":45,"time":34.674418604651166,"velocity":0.5354330708661418},{"duration":0.023255813953483084,"midi":81,"time":34.674418604651166,"velocity":0.33070866141732286},{"duration":0.011627906976741542,"midi":44,"time":34.68604651162791,"velocity":0.6062992125984252},{"duration":0.16279069767441712,"midi":80,"time":34.68604651162791,"velocity":0.23622047244094488},{"duration":0.046511627906973274,"midi":99,"time":34.68604651162791,"velocity":0.11811023622047244},{"duration":0.011627906976748648,"midi":43,"time":34.69767441860465,"velocity":0.5748031496062992},{"duration":0.02325581395349019,"midi":61,"time":34.69767441860465,"velocity":0.2755905511811024},{"duration":0.13953488372093403,"midi":85,"time":34.69767441860465,"velocity":0.2992125984251969},{"duration":0.023255813953483084,"midi":42,"time":34.7093023255814,"velocity":0.5590551181102362},{"duration":0.02325581395349019,"midi":52,"time":34.72093023255814,"velocity":0.33070866141732286},{"duration":0.11627906976744384,"midi":73,"time":34.72093023255814,"velocity":0.31496062992125984},{"duration":0.15116279069767558,"midi":82,"time":34.72093023255814,"velocity":0.36220472440944884},{"duration":0.06976744186047057,"midi":61,"time":34.73255813953488,"velocity":0.2677165354330709},{"duration":0.02325581395349019,"midi":53,"time":34.74418604651163,"velocity":0.3228346456692913},{"duration":0.03488372093023173,"midi":88,"time":34.74418604651163,"velocity":0.25196850393700787},{"duration":0.06976744186046346,"midi":99,"time":34.74418604651163,"velocity":0.2047244094488189},{"duration":0.11627906976743674,"midi":75,"time":34.76744186046512,"velocity":0.33858267716535434},{"duration":0.03488372093023173,"midi":78,"time":34.76744186046512,"velocity":0.14173228346456693},{"duration":0.02325581395349019,"midi":36,"time":34.77906976744186,"velocity":0.31496062992125984},{"duration":0.02325581395349019,"midi":53,"time":34.77906976744186,"velocity":0.25196850393700787},{"duration":0.03488372093023173,"midi":64,"time":34.77906976744186,"velocity":0.1889763779527559},{"duration":0.12790697674418539,"midi":101,"time":34.80232558139535,"velocity":0.12598425196850394},{"duration":0.12790697674418539,"midi":68,"time":34.81395348837209,"velocity":0.1968503937007874},{"duration":0.02325581395349019,"midi":54,"time":34.825581395348834,"velocity":0.23622047244094488},{"duration":0.046511627906973274,"midi":56,"time":34.83720930232558,"velocity":0.2440944881889764},{"duration":0.03488372093023173,"midi":84,"time":34.83720930232558,"velocity":0.10236220472440945},{"duration":0.03488372093023173,"midi":72,"time":34.848837209302324,"velocity":0.25984251968503935},{"duration":0.06976744186046346,"midi":83,"time":34.848837209302324,"velocity":0.31496062992125984},{"duration":0.046511627906973274,"midi":88,"time":34.86046511627907,"velocity":0.2440944881889764},{"duration":0.05813953488372192,"midi":85,"time":34.872093023255815,"velocity":0.2440944881889764},{"duration":0.046511627906973274,"midi":75,"time":34.895348837209305,"velocity":0.29133858267716534},{"duration":0.1046511627906952,"midi":65,"time":34.906976744186046,"velocity":0.2992125984251969},{"duration":0.02325581395349019,"midi":72,"time":34.906976744186046,"velocity":0.33858267716535434},{"duration":0.15116279069767558,"midi":91,"time":34.906976744186046,"velocity":0.11023622047244094},{"duration":0.02325581395349019,"midi":61,"time":34.91860465116279,"velocity":0.30708661417322836},{"duration":0.32558139534884134,"midi":70,"time":34.91860465116279,"velocity":0.36220472440944884},{"duration":0.06976744186047057,"midi":78,"time":34.91860465116279,"velocity":0.23622047244094488},{"duration":0.5465116279069804,"midi":92,"time":34.91860465116279,"velocity":0.2204724409448819},{"duration":0.02325581395349019,"midi":50,"time":34.93023255813954,"velocity":0.3464566929133858},{"duration":0.05813953488372192,"midi":86,"time":34.93023255813954,"velocity":0.18110236220472442},{"duration":0.04651162790698038,"midi":58,"time":34.94186046511628,"velocity":0.3937007874015748},{"duration":0.03488372093023173,"midi":74,"time":34.94186046511628,"velocity":0.2440944881889764},{"duration":0.2674418604651194,"midi":89,"time":34.94186046511628,"velocity":0.2992125984251969},{"duration":0.2674418604651194,"midi":94,"time":34.94186046511628,"velocity":0.33858267716535434},{"duration":0.04651162790698038,"midi":97,"time":34.94186046511628,"velocity":0.12598425196850394},{"duration":0.023255813953483084,"midi":40,"time":34.95348837209303,"velocity":0.3937007874015748},{"duration":0.09302325581394655,"midi":48,"time":34.95348837209303,"velocity":0.33070866141732286},{"duration":0.046511627906973274,"midi":75,"time":34.95348837209303,"velocity":0.14960629921259844},{"duration":0.27906976744185386,"midi":82,"time":34.95348837209303,"velocity":0.36220472440944884},{"duration":0.36046511627906597,"midi":98,"time":34.95348837209303,"velocity":0.25984251968503935},{"duration":0.1046511627906952,"midi":96,"time":34.96511627906977,"velocity":0.09448818897637795},{"duration":0.08139534883721211,"midi":73,"time":34.97674418604651,"velocity":0.23622047244094488},{"duration":0.023255813953483084,"midi":53,"time":34.98837209302326,"velocity":0.25984251968503935},{"duration":0.02325581395349019,"midi":31,"time":35,"velocity":0.2677165354330709},{"duration":0.03488372093023173,"midi":41,"time":35,"velocity":0.29133858267716534},{"duration":0.02325581395349019,"midi":58,"time":35.01162790697674,"velocity":0.2755905511811024},{"duration":0.03488372093023173,"midi":63,"time":35.01162790697674,"velocity":0.16535433070866143},{"duration":0.04651162790698038,"midi":88,"time":35.01162790697674,"velocity":0.2440944881889764},{"duration":0.03488372093023173,"midi":30,"time":35.02325581395349,"velocity":0.2755905511811024},{"duration":0.02325581395349019,"midi":57,"time":35.03488372093023,"velocity":0.2440944881889764},{"duration":0.09302325581395365,"midi":86,"time":35.03488372093023,"velocity":0.25196850393700787},{"duration":0.15116279069767558,"midi":87,"time":35.03488372093023,"velocity":0.2047244094488189},{"duration":0.02325581395349019,"midi":45,"time":35.04651162790697,"velocity":0.25984251968503935},{"duration":0.02325581395349019,"midi":61,"time":35.04651162790697,"velocity":0.2283464566929134},{"duration":0.046511627906973274,"midi":56,"time":35.05813953488372,"velocity":0.29133858267716534},{"duration":0.081395348837205,"midi":66,"time":35.05813953488372,"velocity":0.25984251968503935},{"duration":0.046511627906973274,"midi":72,"time":35.05813953488372,"velocity":0.1889763779527559},{"duration":0.06976744186046346,"midi":74,"time":35.05813953488372,"velocity":0.2677165354330709},{"duration":0.03488372093023173,"midi":44,"time":35.06976744186046,"velocity":0.3937007874015748},{"duration":0.05813953488372192,"midi":60,"time":35.06976744186046,"velocity":0.25984251968503935},{"duration":0.046511627906973274,"midi":63,"time":35.093023255813954,"velocity":0.15748031496062992},{"duration":0.08139534883721211,"midi":51,"time":35.104651162790695,"velocity":0.3464566929133858},{"duration":0.04651162790698038,"midi":68,"time":35.104651162790695,"velocity":0.11811023622047244},{"duration":0.023255813953483084,"midi":32,"time":35.116279069767444,"velocity":0.3779527559055118},{"duration":0.06976744186046346,"midi":77,"time":35.116279069767444,"velocity":0.2204724409448819},{"duration":0.03488372093023173,"midi":91,"time":35.116279069767444,"velocity":0.12598425196850394},{"duration":0.08139534883721211,"midi":75,"time":35.127906976744185,"velocity":0.23622047244094488},{"duration":0.02325581395349019,"midi":33,"time":35.13953488372093,"velocity":0.3700787401574803},{"duration":0.02325581395349019,"midi":44,"time":35.13953488372093,"velocity":0.2677165354330709},{"duration":0.02325581395349019,"midi":58,"time":35.151162790697676,"velocity":0.2440944881889764},{"duration":0.04651162790698038,"midi":32,"time":35.16279069767442,"velocity":0.3464566929133858},{"duration":0.04651162790698038,"midi":96,"time":35.16279069767442,"velocity":0.23622047244094488},{"duration":0.03488372093023173,"midi":97,"time":35.16279069767442,"velocity":0.09448818897637795},{"duration":0.03488372093023173,"midi":66,"time":35.174418604651166,"velocity":0.2204724409448819},{"duration":0.03488372093023173,"midi":79,"time":35.174418604651166,"velocity":0.23622047244094488},{"duration":0.046511627906973274,"midi":84,"time":35.174418604651166,"velocity":0.41732283464566927},{"duration":0.03488372093023173,"midi":93,"time":35.174418604651166,"velocity":0.14960629921259844},{"duration":0.03488372093023173,"midi":100,"time":35.174418604651166,"velocity":0.16535433070866143},{"duration":0.03488372093023173,"midi":88,"time":35.18604651162791,"velocity":0.33858267716535434},{"duration":0.011627906976748648,"midi":48,"time":35.19767441860465,"velocity":0.5511811023622047},{"duration":0.09302325581395365,"midi":58,"time":35.19767441860465,"velocity":0.2204724409448819},{"duration":0.03488372093023173,"midi":62,"time":35.19767441860465,"velocity":0.23622047244094488},{"duration":0.8953488372093048,"midi":99,"time":35.19767441860465,"velocity":0.33858267716535434},{"duration":0.011627906976741542,"midi":45,"time":35.2093023255814,"velocity":0.6141732283464567},{"duration":0.03488372093023173,"midi":65,"time":35.2093023255814,"velocity":0.08661417322834646},{"duration":0.860465116279066,"midi":73,"time":35.2093023255814,"velocity":0.4094488188976378},{"duration":0.8488372093023244,"midi":80,"time":35.2093023255814,"velocity":0.5669291338582677},{"duration":0.081395348837205,"midi":85,"time":35.2093023255814,"velocity":0.44881889763779526},{"duration":0.05813953488372192,"midi":95,"time":35.2093023255814,"velocity":0.2440944881889764},{"duration":0.011627906976741542,"midi":44,"time":35.22093023255814,"velocity":0.6141732283464567},{"duration":0.06976744186046346,"midi":89,"time":35.22093023255814,"velocity":0.4566929133858268},{"duration":0.02325581395349019,"midi":42,"time":35.23255813953488,"velocity":0.5826771653543307},{"duration":0.1046511627907023,"midi":94,"time":35.23255813953488,"velocity":0.2677165354330709},{"duration":0.1046511627906952,"midi":53,"time":35.24418604651163,"velocity":0.25984251968503935},{"duration":0.081395348837205,"midi":77,"time":35.24418604651163,"velocity":0.11811023622047244},{"duration":0.15116279069767558,"midi":82,"time":35.24418604651163,"velocity":0.2204724409448819},{"duration":0.05813953488372192,"midi":102,"time":35.24418604651163,"velocity":0.14960629921259844},{"duration":0.03488372093023173,"midi":37,"time":35.27906976744186,"velocity":0.4094488188976378},{"duration":0.08139534883721211,"midi":88,"time":35.27906976744186,"velocity":0.5196850393700787},{"duration":0.12790697674418539,"midi":61,"time":35.30232558139535,"velocity":0.23622047244094488},{"duration":0.3372093023255829,"midi":89,"time":35.31395348837209,"velocity":0.5118110236220472},{"duration":0.1046511627907023,"midi":98,"time":35.325581395348834,"velocity":0.10236220472440945},{"duration":0.081395348837205,"midi":95,"time":35.33720930232558,"velocity":0.2204724409448819},{"duration":0.03488372093023173,"midi":88,"time":35.383720930232556,"velocity":0.16535433070866143},{"duration":0.12790697674418539,"midi":94,"time":35.383720930232556,"velocity":0.2677165354330709},{"duration":0.03488372093023173,"midi":77,"time":35.406976744186046,"velocity":0.09448818897637795},{"duration":0.046511627906973274,"midi":66,"time":35.43023255813954,"velocity":0.18110236220472442},{"duration":0.25581395348837077,"midi":53,"time":35.44186046511628,"velocity":0.28346456692913385},{"duration":0.02325581395349019,"midi":58,"time":35.44186046511628,"velocity":0.2440944881889764},{"duration":0.05813953488372192,"midi":76,"time":35.44186046511628,"velocity":0.2440944881889764},{"duration":0.05813953488372192,"midi":83,"time":35.44186046511628,"velocity":0.15748031496062992},{"duration":0.03488372093023173,"midi":87,"time":35.44186046511628,"velocity":0.18110236220472442},{"duration":0.03488372093023173,"midi":91,"time":35.44186046511628,"velocity":0.1889763779527559},{"duration":0.03488372093023173,"midi":45,"time":35.45348837209303,"velocity":0.36220472440944884},{"duration":0.046511627906973274,"midi":68,"time":35.46511627906977,"velocity":0.15748031496062992},{"duration":0.03488372093023173,"midi":58,"time":35.47674418604651,"velocity":0.25984251968503935},{"duration":0.058139534883714816,"midi":46,"time":35.48837209302326,"velocity":0.2755905511811024},{"duration":0.12790697674418539,"midi":61,"time":35.5,"velocity":0.33070866141732286},{"duration":0.02325581395349019,"midi":35,"time":35.51162790697674,"velocity":0.33858267716535434},{"duration":0.03488372093023173,"midi":66,"time":35.51162790697674,"velocity":0.13385826771653545},{"duration":0.11627906976744384,"midi":95,"time":35.51162790697674,"velocity":0.18110236220472442},{"duration":0.04651162790698038,"midi":34,"time":35.53488372093023,"velocity":0.33858267716535434},{"duration":0.03488372093023173,"midi":82,"time":35.53488372093023,"velocity":0.08661417322834646},{"duration":0.05813953488372192,"midi":88,"time":35.55813953488372,"velocity":0.25196850393700787},{"duration":0.04651162790698038,"midi":83,"time":35.56976744186046,"velocity":0.2047244094488189},{"duration":0.04651162790698038,"midi":91,"time":35.56976744186046,"velocity":0.1889763779527559},{"duration":0.09302325581395365,"midi":68,"time":35.58139534883721,"velocity":0.1968503937007874},{"duration":0.06976744186046346,"midi":76,"time":35.58139534883721,"velocity":0.2283464566929134},{"duration":0.02325581395349019,"midi":45,"time":35.593023255813954,"velocity":0.33858267716535434},{"duration":0.1046511627906952,"midi":70,"time":35.593023255813954,"velocity":0.18110236220472442},{"duration":0.09302325581395365,"midi":46,"time":35.616279069767444,"velocity":0.28346456692913385},{"duration":0.03488372093023173,"midi":77,"time":35.627906976744185,"velocity":0.07874015748031496},{"duration":0.11627906976744384,"midi":94,"time":35.627906976744185,"velocity":0.2440944881889764},{"duration":0.05813953488372192,"midi":34,"time":35.651162790697676,"velocity":0.33070866141732286},{"duration":0.02325581395349019,"midi":61,"time":35.651162790697676,"velocity":0.2677165354330709},{"duration":0.03488372093023173,"midi":88,"time":35.651162790697676,"velocity":0.5196850393700787},{"duration":0.03488372093023173,"midi":61,"time":35.68604651162791,"velocity":0.4566929133858268},{"duration":0.30232558139535115,"midi":89,"time":35.68604651162791,"velocity":0.4645669291338583},{"duration":0.04651162790698038,"midi":78,"time":35.69767441860465,"velocity":0.14960629921259844},{"duration":0.04651162790698038,"midi":86,"time":35.69767441860465,"velocity":0.2047244094488189},{"duration":0.1046511627907023,"midi":95,"time":35.69767441860465,"velocity":0.2047244094488189},{"duration":0.05813953488372192,"midi":96,"time":35.69767441860465,"velocity":0.2125984251968504},{"duration":0.03488372093023173,"midi":100,"time":35.69767441860465,"velocity":0.14960629921259844},{"duration":0.04651162790698038,"midi":102,"time":35.69767441860465,"velocity":0.1968503937007874},{"duration":0.023255813953483084,"midi":67,"time":35.7093023255814,"velocity":0.3228346456692913},{"duration":0.081395348837205,"midi":88,"time":35.7093023255814,"velocity":0.2204724409448819},{"duration":0.011627906976741542,"midi":53,"time":35.72093023255814,"velocity":0.5118110236220472},{"duration":0.04651162790698038,"midi":70,"time":35.72093023255814,"velocity":0.09448818897637795},{"duration":0.03488372093023173,"midi":82,"time":35.72093023255814,"velocity":0.18110236220472442},{"duration":0.03488372093023173,"midi":90,"time":35.72093023255814,"velocity":0.29133858267716534},{"duration":0.011627906976748648,"midi":45,"time":35.73255813953488,"velocity":0.5511811023622047},{"duration":0.011627906976741542,"midi":44,"time":35.74418604651163,"velocity":0.6062992125984252},{"duration":0.03488372093023173,"midi":93,"time":35.74418604651163,"velocity":0.07874015748031496},{"duration":0.011627906976748648,"midi":43,"time":35.75581395348837,"velocity":0.5826771653543307},{"duration":0.023255813953483084,"midi":42,"time":35.76744186046512,"velocity":0.5590551181102362},{"duration":0.19767441860464885,"midi":61,"time":35.76744186046512,"velocity":0.28346456692913385},{"duration":0.06976744186046346,"midi":94,"time":35.80232558139535,"velocity":0.23622047244094488},{"duration":0.02325581395349019,"midi":37,"time":35.81395348837209,"velocity":0.3858267716535433},{"duration":0.02325581395349019,"midi":36,"time":35.83720930232558,"velocity":0.2992125984251969},{"duration":0.03488372093023173,"midi":82,"time":35.83720930232558,"velocity":0.25196850393700787},{"duration":0.046511627906973274,"midi":86,"time":35.83720930232558,"velocity":0.16535433070866143},{"duration":0.02325581395349019,"midi":48,"time":35.848837209302324,"velocity":0.3464566929133858},{"duration":0.04651162790698038,"midi":75,"time":35.848837209302324,"velocity":0.15748031496062992},{"duration":0.03488372093023173,"midi":77,"time":35.848837209302324,"velocity":0.18110236220472442},{"duration":0.03488372093023173,"midi":79,"time":35.848837209302324,"velocity":0.2440944881889764},{"duration":0.03488372093023173,"midi":83,"time":35.848837209302324,"velocity":0.13385826771653545},{"duration":0.023255813953483084,"midi":40,"time":35.86046511627907,"velocity":0.29133858267716534},{"duration":0.1046511627906952,"midi":56,"time":35.86046511627907,"velocity":0.30708661417322836},{"duration":0.081395348837205,"midi":65,"time":35.86046511627907,"velocity":0.2440944881889764},{"duration":0.1860465116279002,"midi":70,"time":35.86046511627907,"velocity":0.25196850393700787},{"duration":0.09302325581395365,"midi":95,"time":35.86046511627907,"velocity":0.23622047244094488},{"duration":0.05813953488372192,"midi":49,"time":35.872093023255815,"velocity":0.29133858267716534},{"duration":0.046511627906973274,"midi":37,"time":35.895348837209305,"velocity":0.3779527559055118},{"duration":0.03488372093023173,"midi":103,"time":35.895348837209305,"velocity":0.07086614173228346},{"duration":0.03488372093023884,"midi":78,"time":35.91860465116279,"velocity":0.07086614173228346},{"duration":0.03488372093023173,"midi":49,"time":35.94186046511628,"velocity":0.2755905511811024},{"duration":0.081395348837205,"midi":94,"time":35.95348837209303,"velocity":0.2125984251968504},{"duration":0.09302325581394655,"midi":102,"time":35.95348837209303,"velocity":0.2440944881889764},{"duration":0.03488372093023173,"midi":63,"time":35.96511627906977,"velocity":0.2677165354330709},{"duration":0.06976744186046346,"midi":78,"time":35.96511627906977,"velocity":0.2440944881889764},{"duration":0.03488372093023173,"midi":76,"time":35.97674418604651,"velocity":0.13385826771653545},{"duration":0.16279069767441712,"midi":48,"time":36,"velocity":0.3228346456692913},{"duration":0.13953488372092693,"midi":55,"time":36,"velocity":0.30708661417322836},{"duration":0.16279069767441712,"midi":89,"time":36,"velocity":0.47244094488188976},{"duration":0.05813953488372192,"midi":61,"time":36.01162790697674,"velocity":0.3228346456692913},{"duration":0.12790697674418539,"midi":95,"time":36.02325581395349,"velocity":0.2283464566929134},{"duration":0.04651162790698038,"midi":36,"time":36.03488372093023,"velocity":0.36220472440944884},{"duration":0.046511627906973274,"midi":81,"time":36.05813953488372,"velocity":0.4645669291338583},{"duration":0.02325581395349019,"midi":62,"time":36.06976744186046,"velocity":0.29133858267716534},{"duration":0.02325581395349019,"midi":74,"time":36.06976744186046,"velocity":0.3543307086614173},{"duration":0.03488372093023173,"midi":98,"time":36.06976744186046,"velocity":0.2992125984251969},{"duration":0.03488372093023173,"midi":100,"time":36.06976744186046,"velocity":0.11023622047244094},{"duration":0.03488372093023173,"midi":66,"time":36.08139534883721,"velocity":0.12598425196850394},{"duration":0.046511627906973274,"midi":36,"time":36.093023255813954,"velocity":0.2125984251968504},{"duration":0.06976744186046346,"midi":61,"time":36.093023255813954,"velocity":0.29133858267716534},{"duration":0.05813953488372192,"midi":73,"time":36.093023255813954,"velocity":0.3779527559055118},{"duration":0.3139534883720927,"midi":92,"time":36.093023255813954,"velocity":0.29133858267716534},{"duration":0.30232558139535115,"midi":80,"time":36.104651162790695,"velocity":0.47244094488188976},{"duration":0.30232558139535115,"midi":99,"time":36.104651162790695,"velocity":0.3700787401574803},{"duration":0.11627906976744384,"midi":70,"time":36.127906976744185,"velocity":0.14173228346456693},{"duration":0.08139534883721211,"midi":102,"time":36.127906976744185,"velocity":0.2677165354330709},{"duration":0.05813953488372192,"midi":94,"time":36.13953488372093,"velocity":0.2440944881889764},{"duration":0.03488372093023884,"midi":100,"time":36.13953488372093,"velocity":0.13385826771653545},{"duration":0.02325581395349019,"midi":72,"time":36.151162790697676,"velocity":0.2677165354330709},{"duration":0.09302325581395365,"midi":75,"time":36.151162790697676,"velocity":0.10236220472440945},{"duration":0.02325581395349019,"midi":88,"time":36.151162790697676,"velocity":0.4015748031496063},{"duration":0.22093023255813904,"midi":61,"time":36.174418604651166,"velocity":0.31496062992125984},{"duration":0.23255813953488058,"midi":73,"time":36.174418604651166,"velocity":0.4251968503937008},{"duration":0.48837209302325135,"midi":89,"time":36.174418604651166,"velocity":0.4645669291338583},{"duration":0.12790697674418539,"midi":95,"time":36.18604651162791,"velocity":0.2755905511811024},{"duration":0.02325581395349019,"midi":51,"time":36.23255813953488,"velocity":0.4330708661417323},{"duration":0.06976744186047057,"midi":77,"time":36.23255813953488,"velocity":0.2125984251968504},{"duration":0.02325581395349019,"midi":87,"time":36.23255813953488,"velocity":0.2283464566929134},{"duration":0.03488372093023884,"midi":90,"time":36.23255813953488,"velocity":0.1889763779527559},{"duration":0.25581395348837077,"midi":66,"time":36.24418604651163,"velocity":0.1968503937007874},{"duration":0.03488372093023173,"midi":68,"time":36.24418604651163,"velocity":0.18110236220472442},{"duration":0.011627906976748648,"midi":48,"time":36.25581395348837,"velocity":0.5196850393700787},{"duration":0.24418604651162923,"midi":75,"time":36.25581395348837,"velocity":0.2125984251968504},{"duration":0.011627906976741542,"midi":45,"time":36.26744186046512,"velocity":0.5826771653543307},{"duration":0.06976744186046346,"midi":56,"time":36.26744186046512,"velocity":0.2125984251968504},{"duration":0.011627906976741542,"midi":44,"time":36.27906976744186,"velocity":0.5905511811023622},{"duration":0.08139534883721211,"midi":102,"time":36.27906976744186,"velocity":0.2440944881889764},{"duration":0.02325581395349019,"midi":42,"time":36.2906976744186,"velocity":0.5748031496062992},{"duration":0.04651162790698038,"midi":51,"time":36.2906976744186,"velocity":0.28346456692913385},{"duration":0.1046511627907023,"midi":70,"time":36.2906976744186,"velocity":0.16535433070866143},{"duration":0.03488372093023173,"midi":94,"time":36.2906976744186,"velocity":0.2125984251968504},{"duration":0.011627906976741542,"midi":41,"time":36.31395348837209,"velocity":0.5275590551181102},{"duration":0.02325581395349019,"midi":40,"time":36.325581395348834,"velocity":0.44881889763779526},{"duration":0.1046511627907023,"midi":95,"time":36.325581395348834,"velocity":0.23622047244094488},{"duration":0.08139534883721211,"midi":51,"time":36.348837209302324,"velocity":0.2125984251968504},{"duration":0.06976744186046346,"midi":103,"time":36.348837209302324,"velocity":0.2204724409448819},{"duration":0.02325581395349019,"midi":35,"time":36.372093023255815,"velocity":0.3779527559055118},{"duration":0.023255813953483084,"midi":72,"time":36.395348837209305,"velocity":0.31496062992125984},{"duration":0.03488372093023173,"midi":44,"time":36.406976744186046,"velocity":0.11023622047244094},{"duration":0.03488372093023173,"midi":58,"time":36.406976744186046,"velocity":0.2992125984251969},{"duration":0.02325581395349019,"midi":73,"time":36.41860465116279,"velocity":0.25196850393700787},{"duration":0.04651162790698038,"midi":94,"time":36.41860465116279,"velocity":0.14960629921259844},{"duration":0.09302325581395365,"midi":78,"time":36.43023255813954,"velocity":0.25196850393700787},{"duration":0.15116279069767558,"midi":80,"time":36.43023255813954,"velocity":0.29133858267716534},{"duration":0.04651162790698038,"midi":57,"time":36.44186046511628,"velocity":0.31496062992125984},{"duration":0.15116279069767558,"midi":63,"time":36.44186046511628,"velocity":0.4881889763779528},{"duration":0.3953488372093048,"midi":99,"time":36.44186046511628,"velocity":0.3700787401574803},{"duration":0.046511627906973274,"midi":73,"time":36.45348837209303,"velocity":0.2283464566929134},{"duration":0.03488372093023173,"midi":90,"time":36.48837209302326,"velocity":0.25196850393700787},{"duration":0.11627906976743674,"midi":91,"time":36.48837209302326,"velocity":0.25984251968503935},{"duration":0.03488372093023173,"midi":93,"time":36.48837209302326,"velocity":0.13385826771653545},{"duration":0.03488372093023173,"midi":94,"time":36.48837209302326,"velocity":0.14960629921259844},{"duration":0.03488372093023173,"midi":95,"time":36.48837209302326,"velocity":0.14960629921259844},{"duration":0.15116279069767558,"midi":53,"time":36.5,"velocity":0.2992125984251969},{"duration":0.02325581395349019,"midi":74,"time":36.5,"velocity":0.25196850393700787},{"duration":0.046511627906973274,"midi":83,"time":36.5,"velocity":0.2047244094488189},{"duration":0.046511627906973274,"midi":88,"time":36.5,"velocity":0.2283464566929134},{"duration":0.09302325581395365,"midi":97,"time":36.5,"velocity":0.1968503937007874},{"duration":0.023255813953483084,"midi":45,"time":36.52325581395349,"velocity":0.3937007874015748},{"duration":0.05813953488372192,"midi":58,"time":36.52325581395349,"velocity":0.25984251968503935},{"duration":0.06976744186046346,"midi":73,"time":36.52325581395349,"velocity":0.2204724409448819},{"duration":0.08139534883721211,"midi":82,"time":36.53488372093023,"velocity":0.25984251968503935},{"duration":0.081395348837205,"midi":46,"time":36.55813953488372,"velocity":0.30708661417322836},{"duration":0.1860465116279073,"midi":66,"time":36.56976744186046,"velocity":0.2992125984251969},{"duration":0.04651162790698038,"midi":103,"time":36.56976744186046,"velocity":0.25984251968503935},{"duration":0.09302325581395365,"midi":34,"time":36.58139534883721,"velocity":0.33858267716535434},{"duration":0.03488372093023173,"midi":72,"time":36.593023255813954,"velocity":0.2047244094488189},{"duration":0.13953488372093403,"midi":75,"time":36.604651162790695,"velocity":0.14173228346456693},{"duration":0.06976744186046346,"midi":57,"time":36.627906976744185,"velocity":0.16535433070866143},{"duration":0.03488372093023884,"midi":61,"time":36.63953488372093,"velocity":0.14960629921259844},{"duration":0.22093023255814614,"midi":70,"time":36.63953488372093,"velocity":0.2755905511811024},{"duration":0.05813953488372192,"midi":80,"time":36.651162790697676,"velocity":0.11023622047244094},{"duration":0.046511627906973274,"midi":63,"time":36.7093023255814,"velocity":0.3700787401574803},{"duration":0.19767441860464885,"midi":73,"time":36.7093023255814,"velocity":0.2125984251968504},{"duration":0.19767441860465595,"midi":75,"time":36.75581395348837,"velocity":0.2283464566929134},{"duration":0.03488372093023173,"midi":77,"time":36.75581395348837,"velocity":0.36220472440944884},{"duration":0.09302325581395365,"midi":90,"time":36.75581395348837,"velocity":0.29133858267716534},{"duration":0.09302325581395365,"midi":95,"time":36.75581395348837,"velocity":0.2440944881889764},{"duration":0.05813953488372192,"midi":96,"time":36.75581395348837,"velocity":0.15748031496062992},{"duration":0.06976744186046346,"midi":97,"time":36.75581395348837,"velocity":0.16535433070866143},{"duration":0.06976744186046346,"midi":100,"time":36.75581395348837,"velocity":0.1968503937007874},{"duration":0.2906976744186025,"midi":101,"time":36.75581395348837,"velocity":0.2755905511811024},{"duration":0.04651162790698038,"midi":103,"time":36.75581395348837,"velocity":0.2047244094488189},{"duration":0.023255813953483084,"midi":63,"time":36.76744186046512,"velocity":0.4251968503937008},{"duration":0.03488372093023173,"midi":93,"time":36.76744186046512,"velocity":0.12598425196850394},{"duration":0.03488372093023173,"midi":98,"time":36.76744186046512,"velocity":0.13385826771653545},{"duration":0.02325581395349019,"midi":45,"time":36.77906976744186,"velocity":0.5669291338582677},{"duration":0.011627906976741542,"midi":53,"time":36.77906976744186,"velocity":0.5118110236220472},{"duration":0.02325581395349019,"midi":60,"time":36.77906976744186,"velocity":0.31496062992125984},{"duration":0.05813953488372192,"midi":88,"time":36.77906976744186,"velocity":0.15748031496062992},{"duration":0.06976744186046346,"midi":91,"time":36.77906976744186,"velocity":0.14173228346456693},{"duration":0.02325581395349019,"midi":65,"time":36.7906976744186,"velocity":0.28346456692913385},{"duration":0.011627906976741542,"midi":44,"time":36.80232558139535,"velocity":0.6220472440944882},{"duration":0.25581395348837077,"midi":77,"time":36.80232558139535,"velocity":0.41732283464566927},{"duration":0.3372093023255758,"midi":84,"time":36.80232558139535,"velocity":0.4330708661417323},{"duration":0.011627906976741542,"midi":43,"time":36.81395348837209,"velocity":0.5905511811023622},{"duration":0.02325581395349019,"midi":42,"time":36.825581395348834,"velocity":0.5669291338582677},{"duration":0.15116279069767558,"midi":65,"time":36.825581395348834,"velocity":0.4409448818897638},{"duration":0.09302325581395365,"midi":93,"time":36.86046511627907,"velocity":0.16535433070866143},{"duration":0.02325581395349019,"midi":37,"time":36.872093023255815,"velocity":0.3858267716535433},{"duration":0.03488372093023173,"midi":61,"time":36.872093023255815,"velocity":0.11811023622047244},{"duration":0.05813953488372192,"midi":80,"time":36.872093023255815,"velocity":0.08661417322834646},{"duration":0.05813953488372192,"midi":90,"time":36.872093023255815,"velocity":0.11811023622047244},{"duration":0.03488372093023173,"midi":36,"time":36.895348837209305,"velocity":0.3228346456692913},{"duration":0.12790697674418539,"midi":70,"time":36.906976744186046,"velocity":0.2440944881889764},{"duration":0.04651162790698038,"midi":99,"time":36.906976744186046,"velocity":0.07086614173228346},{"duration":0.05813953488372192,"midi":61,"time":36.91860465116279,"velocity":0.1889763779527559},{"duration":0.03488372093023173,"midi":85,"time":36.94186046511628,"velocity":0.16535433070866143},{"duration":0.03488372093023173,"midi":103,"time":36.94186046511628,"velocity":0.2283464566929134},{"duration":0.046511627906973274,"midi":102,"time":36.95348837209303,"velocity":0.23622047244094488},{"duration":0.02325581395349019,"midi":88,"time":36.96511627906977,"velocity":0.28346456692913385},{"duration":0.03488372093023173,"midi":95,"time":36.96511627906977,"velocity":0.07086614173228346},{"duration":0.046511627906973274,"midi":85,"time":36.98837209302326,"velocity":0.09448818897637795},{"duration":0.06976744186046346,"midi":87,"time":36.98837209302326,"velocity":0.2283464566929134},{"duration":0.06976744186047057,"midi":60,"time":37.01162790697674,"velocity":0.48031496062992124},{"duration":0.05813953488372192,"midi":91,"time":37.02325581395349,"velocity":0.29133858267716534},{"duration":0.046511627906973274,"midi":98,"time":37.02325581395349,"velocity":0.25196850393700787},{"duration":0.06976744186046346,"midi":102,"time":37.02325581395349,"velocity":0.2047244094488189},{"duration":0.05813953488372192,"midi":80,"time":37.03488372093023,"velocity":0.11023622047244094},{"duration":0.03488372093023173,"midi":83,"time":37.03488372093023,"velocity":0.15748031496062992},{"duration":0.05813953488372192,"midi":94,"time":37.03488372093023,"velocity":0.14173228346456693},{"duration":0.03488372093023884,"midi":78,"time":37.04651162790697,"velocity":0.2992125984251969},{"duration":0.17441860465115866,"midi":66,"time":37.05813953488372,"velocity":0.31496062992125984},{"duration":0.03488372093023173,"midi":88,"time":37.05813953488372,"velocity":0.16535433070866143},{"duration":0.02325581395349019,"midi":40,"time":37.06976744186046,"velocity":0.33858267716535434},{"duration":0.1046511627907023,"midi":77,"time":37.06976744186046,"velocity":0.2125984251968504},{"duration":0.12790697674418539,"midi":99,"time":37.06976744186046,"velocity":0.3779527559055118},{"duration":0.046511627906973274,"midi":61,"time":37.08139534883721,"velocity":0.3700787401574803},{"duration":0.058139534883714816,"midi":92,"time":37.08139534883721,"velocity":0.23622047244094488},{"duration":0.05813953488372192,"midi":48,"time":37.093023255813954,"velocity":0.25196850393700787},{"duration":0.08139534883721211,"midi":75,"time":37.093023255813954,"velocity":0.2204724409448819},{"duration":0.03488372093023173,"midi":95,"time":37.093023255813954,"velocity":0.08661417322834646},{"duration":0.046511627906973274,"midi":41,"time":37.116279069767444,"velocity":0.25196850393700787},{"duration":0.06976744186046346,"midi":63,"time":37.127906976744185,"velocity":0.2992125984251969},{"duration":0.02325581395349019,"midi":57,"time":37.13953488372093,"velocity":0.2992125984251969},{"duration":0.03488372093023884,"midi":72,"time":37.13953488372093,"velocity":0.2204724409448819},{"duration":0.046511627906973274,"midi":91,"time":37.151162790697676,"velocity":0.2047244094488189},{"duration":0.03488372093023173,"midi":92,"time":37.151162790697676,"velocity":0.14173228346456693},{"duration":0.04651162790698038,"midi":83,"time":37.16279069767442,"velocity":0.2125984251968504},{"duration":0.05813953488372192,"midi":85,"time":37.16279069767442,"velocity":0.14960629921259844},{"duration":0.04651162790698038,"midi":88,"time":37.16279069767442,"velocity":0.2283464566929134},{"duration":0.03488372093023173,"midi":94,"time":37.16279069767442,"velocity":0.07874015748031496},{"duration":0.03488372093023173,"midi":58,"time":37.174418604651166,"velocity":0.2992125984251969},{"duration":0.046511627906973274,"midi":73,"time":37.174418604651166,"velocity":0.18110236220472442},{"duration":0.081395348837205,"midi":76,"time":37.174418604651166,"velocity":0.2047244094488189},{"duration":0.06976744186046346,"midi":80,"time":37.174418604651166,"velocity":0.13385826771653545},{"duration":0.046511627906973274,"midi":81,"time":37.174418604651166,"velocity":0.10236220472440945},{"duration":0.05813953488372192,"midi":46,"time":37.18604651162791,"velocity":0.3543307086614173},{"duration":0.03488372093023173,"midi":79,"time":37.18604651162791,"velocity":0.1732283464566929},{"duration":0.09302325581395365,"midi":53,"time":37.19767441860465,"velocity":0.2755905511811024},{"duration":0.03488372093023173,"midi":84,"time":37.19767441860465,"velocity":0.08661417322834646},{"duration":0.023255813953483084,"midi":59,"time":37.2093023255814,"velocity":0.31496062992125984},{"duration":0.046511627906973274,"midi":63,"time":37.2093023255814,"velocity":0.2440944881889764},{"duration":0.12790697674418539,"midi":72,"time":37.22093023255814,"velocity":0.2440944881889764},{"duration":0.03488372093023884,"midi":34,"time":37.23255813953488,"velocity":0.3700787401574803},{"duration":0.02325581395349019,"midi":60,"time":37.24418604651163,"velocity":0.25196850393700787},{"duration":0.04651162790698038,"midi":64,"time":37.25581395348837,"velocity":0.4645669291338583},{"duration":0.03488372093023173,"midi":34,"time":37.27906976744186,"velocity":0.2755905511811024},{"duration":0.4534883720930196,"midi":75,"time":37.27906976744186,"velocity":0.5039370078740157},{"duration":0.05813953488372192,"midi":82,"time":37.27906976744186,"velocity":0.09448818897637795},{"duration":0.4418604651162781,"midi":91,"time":37.27906976744186,"velocity":0.3858267716535433},{"duration":0.43023255813953654,"midi":94,"time":37.27906976744186,"velocity":0.30708661417322836},{"duration":0.38372093023255616,"midi":99,"time":37.27906976744186,"velocity":0.4015748031496063},{"duration":0.23255813953488058,"midi":101,"time":37.27906976744186,"velocity":0.28346456692913385},{"duration":0.03488372093023173,"midi":102,"time":37.27906976744186,"velocity":0.18110236220472442},{"duration":0.04651162790698038,"midi":58,"time":37.2906976744186,"velocity":0.3228346456692913},{"duration":0.11627906976744384,"midi":68,"time":37.2906976744186,"velocity":0.1968503937007874},{"duration":0.03488372093023173,"midi":78,"time":37.2906976744186,"velocity":0.2440944881889764},{"duration":0.03488372093023173,"midi":83,"time":37.2906976744186,"velocity":0.18110236220472442},{"duration":0.03488372093023173,"midi":88,"time":37.2906976744186,"velocity":0.2125984251968504},{"duration":0.03488372093023173,"midi":89,"time":37.2906976744186,"velocity":0.1732283464566929},{"duration":0.046511627906973274,"midi":63,"time":37.30232558139535,"velocity":0.2440944881889764},{"duration":0.081395348837205,"midi":97,"time":37.30232558139535,"velocity":0.2677165354330709},{"duration":0.011627906976741542,"midi":47,"time":37.31395348837209,"velocity":0.5669291338582677},{"duration":0.05813953488372192,"midi":79,"time":37.31395348837209,"velocity":0.16535433070866143},{"duration":0.011627906976748648,"midi":45,"time":37.325581395348834,"velocity":0.6299212598425197},{"duration":0.011627906976741542,"midi":44,"time":37.33720930232558,"velocity":0.6220472440944882},{"duration":0.02325581395349019,"midi":42,"time":37.348837209302324,"velocity":0.5826771653543307},{"duration":0.08139534883721211,"midi":53,"time":37.348837209302324,"velocity":0.25196850393700787},{"duration":0.04651162790698038,"midi":58,"time":37.348837209302324,"velocity":0.2440944881889764},{"duration":0.03488372093023173,"midi":62,"time":37.372093023255815,"velocity":0.2125984251968504},{"duration":0.08139534883721211,"midi":82,"time":37.383720930232556,"velocity":0.11811023622047244},{"duration":0.16279069767441712,"midi":97,"time":37.395348837209305,"velocity":0.16535433070866143},{"duration":0.02325581395349019,"midi":36,"time":37.406976744186046,"velocity":0.3700787401574803},{"duration":0.32558139534883423,"midi":63,"time":37.406976744186046,"velocity":0.4645669291338583},{"duration":0.03488372093023173,"midi":82,"time":37.48837209302326,"velocity":0.14173228346456693},{"duration":0.081395348837205,"midi":96,"time":37.52325581395349,"velocity":0.36220472440944884},{"duration":0.1860465116279073,"midi":101,"time":37.52325581395349,"velocity":0.2440944881889764},{"duration":0.03488372093023173,"midi":90,"time":37.53488372093023,"velocity":0.18110236220472442},{"duration":0.02325581395349019,"midi":102,"time":37.53488372093023,"velocity":0.31496062992125984},{"duration":0.02325581395349019,"midi":82,"time":37.54651162790697,"velocity":0.2283464566929134},{"duration":0.03488372093023884,"midi":84,"time":37.54651162790697,"velocity":0.11023622047244094},{"duration":0.04651162790698038,"midi":86,"time":37.54651162790697,"velocity":0.16535433070866143},{"duration":0.03488372093023884,"midi":88,"time":37.54651162790697,"velocity":0.1732283464566929},{"duration":0.046511627906973274,"midi":72,"time":37.55813953488372,"velocity":0.1732283464566929},{"duration":0.046511627906973274,"midi":77,"time":37.55813953488372,"velocity":0.2204724409448819},{"duration":0.23255813953488058,"midi":103,"time":37.55813953488372,"velocity":0.4015748031496063},{"duration":0.12790697674418539,"midi":51,"time":37.56976744186046,"velocity":0.2677165354330709},{"duration":0.02325581395349019,"midi":66,"time":37.56976744186046,"velocity":0.23622047244094488},{"duration":0.03488372093023173,"midi":81,"time":37.56976744186046,"velocity":0.2283464566929134},{"duration":0.11627906976743674,"midi":44,"time":37.58139534883721,"velocity":0.3543307086614173},{"duration":0.058139534883714816,"midi":70,"time":37.58139534883721,"velocity":0.11811023622047244},{"duration":0.046511627906973274,"midi":79,"time":37.58139534883721,"velocity":0.08661417322834646},{"duration":0.11627906976744384,"midi":82,"time":37.604651162790695,"velocity":0.3937007874015748},{"duration":0.02325581395349019,"midi":33,"time":37.63953488372093,"velocity":0.30708661417322836},{"duration":0.06976744186047057,"midi":97,"time":37.63953488372093,"velocity":0.29133858267716534},{"duration":0.04651162790698038,"midi":32,"time":37.66279069767442,"velocity":0.31496062992125984},{"duration":0.046511627906973274,"midi":79,"time":37.68604651162791,"velocity":0.2440944881889764},{"duration":0.046511627906973274,"midi":88,"time":37.68604651162791,"velocity":0.1968503937007874},{"duration":0.11627906976744384,"midi":53,"time":37.69767441860465,"velocity":0.2992125984251969},{"duration":0.02325581395349019,"midi":59,"time":37.69767441860465,"velocity":0.2677165354330709},{"duration":0.023255813953483084,"midi":45,"time":37.7093023255814,"velocity":0.3464566929133858},{"duration":0.1046511627906952,"midi":70,"time":37.7093023255814,"velocity":0.09448818897637795},{"duration":0.046511627906973274,"midi":84,"time":37.7093023255814,"velocity":0.13385826771653545},{"duration":0.09302325581395365,"midi":58,"time":37.72093023255814,"velocity":0.25984251968503935},{"duration":0.03488372093023173,"midi":72,"time":37.72093023255814,"velocity":0.09448818897637795},{"duration":0.04651162790698038,"midi":77,"time":37.72093023255814,"velocity":0.15748031496062992},{"duration":0.03488372093023173,"midi":83,"time":37.72093023255814,"velocity":0.29133858267716534},{"duration":0.09302325581395365,"midi":46,"time":37.73255813953488,"velocity":0.28346456692913385},{"duration":0.02325581395349019,"midi":35,"time":37.74418604651163,"velocity":0.33858267716535434},{"duration":0.04651162790698038,"midi":63,"time":37.75581395348837,"velocity":0.33858267716535434},{"duration":0.058139534883714816,"midi":34,"time":37.76744186046512,"velocity":0.3543307086614173},{"duration":0.06976744186046346,"midi":87,"time":37.76744186046512,"velocity":0.3228346456692913},{"duration":0.05813953488372192,"midi":75,"time":37.7906976744186,"velocity":0.4409448818897638},{"duration":0.04651162790698038,"midi":82,"time":37.7906976744186,"velocity":0.4566929133858268},{"duration":0.13953488372093403,"midi":91,"time":37.7906976744186,"velocity":0.2125984251968504},{"duration":0.023255813953483084,"midi":64,"time":37.80232558139535,"velocity":0.3779527559055118},{"duration":0.1046511627906952,"midi":101,"time":37.81395348837209,"velocity":0.2047244094488189},{"duration":0.03488372093023173,"midi":102,"time":37.81395348837209,"velocity":0.1732283464566929},{"duration":0.08139534883721211,"midi":103,"time":37.81395348837209,"velocity":0.2125984251968504},{"duration":0.03488372093023884,"midi":45,"time":37.825581395348834,"velocity":0.5590551181102362},{"duration":0.03488372093023884,"midi":79,"time":37.825581395348834,"velocity":0.1732283464566929},{"duration":0.1046511627907023,"midi":85,"time":37.825581395348834,"velocity":0.10236220472440945},{"duration":0.1046511627907023,"midi":89,"time":37.825581395348834,"velocity":0.2125984251968504},{"duration":0.06976744186047057,"midi":90,"time":37.825581395348834,"velocity":0.2755905511811024},{"duration":0.04651162790698038,"midi":96,"time":37.825581395348834,"velocity":0.09448818897637795},{"duration":0.09302325581395365,"midi":98,"time":37.825581395348834,"velocity":0.14173228346456693},{"duration":0.03488372093023884,"midi":100,"time":37.825581395348834,"velocity":0.2047244094488189},{"duration":0.011627906976741542,"midi":53,"time":37.83720930232558,"velocity":0.5118110236220472},{"duration":0.02325581395349019,"midi":64,"time":37.83720930232558,"velocity":0.2440944881889764},{"duration":0.03488372093023173,"midi":70,"time":37.83720930232558,"velocity":0.09448818897637795},{"duration":0.046511627906973274,"midi":86,"time":37.83720930232558,"velocity":0.1732283464566929},{"duration":0.046511627906973274,"midi":88,"time":37.83720930232558,"velocity":0.25196850393700787},{"duration":0.03488372093023173,"midi":95,"time":37.83720930232558,"velocity":0.2047244094488189},{"duration":0.19767441860464885,"midi":82,"time":37.848837209302324,"velocity":0.49606299212598426},{"duration":0.011627906976741542,"midi":44,"time":37.86046511627907,"velocity":0.6141732283464567},{"duration":0.081395348837205,"midi":63,"time":37.86046511627907,"velocity":0.2677165354330709},{"duration":0.1046511627906952,"midi":75,"time":37.86046511627907,"velocity":0.4094488188976378},{"duration":0.19767441860464885,"midi":99,"time":37.86046511627907,"velocity":0.2755905511811024},{"duration":0.011627906976741542,"midi":43,"time":37.872093023255815,"velocity":0.5905511811023622},{"duration":0.15116279069767558,"midi":87,"time":37.872093023255815,"velocity":0.4094488188976378},{"duration":0.02325581395349019,"midi":42,"time":37.883720930232556,"velocity":0.5669291338582677},{"duration":0.023255813953483084,"midi":52,"time":37.895348837209305,"velocity":0.28346456692913385},{"duration":0.02325581395349019,"midi":37,"time":37.93023255813954,"velocity":0.4015748031496063},{"duration":0.08139534883721211,"midi":77,"time":37.94186046511628,"velocity":0.18110236220472442},{"duration":0.023255813953483084,"midi":36,"time":37.95348837209303,"velocity":0.3228346456692913},{"duration":0.06976744186046346,"midi":79,"time":37.95348837209303,"velocity":0.2204724409448819},{"duration":0.058139534883714816,"midi":86,"time":37.95348837209303,"velocity":0.1889763779527559},{"duration":0.02325581395349019,"midi":48,"time":37.96511627906977,"velocity":0.3543307086614173},{"duration":0.13953488372092693,"midi":56,"time":37.96511627906977,"velocity":0.31496062992125984},{"duration":0.02325581395349019,"midi":61,"time":37.96511627906977,"velocity":0.3228346456692913},{"duration":0.05813953488372192,"midi":71,"time":37.96511627906977,"velocity":0.1968503937007874},{"duration":0.08139534883721211,"midi":75,"time":37.97674418604651,"velocity":0.47244094488188976},{"duration":0.046511627906973274,"midi":49,"time":37.98837209302326,"velocity":0.2992125984251969},{"duration":0.03488372093023173,"midi":101,"time":37.98837209302326,"velocity":0.12598425196850394},{"duration":0.03488372093023173,"midi":63,"time":38,"velocity":0.2992125984251969},{"duration":0.04651162790698038,"midi":37,"time":38.01162790697674,"velocity":0.3937007874015748},{"duration":0.03488372093023173,"midi":50,"time":38.03488372093023,"velocity":0.31496062992125984},{"duration":0.08139534883721211,"midi":64,"time":38.03488372093023,"velocity":0.3700787401574803},{"duration":0.04651162790698038,"midi":83,"time":38.03488372093023,"velocity":0.30708661417322836},{"duration":0.02325581395349019,"midi":61,"time":38.04651162790697,"velocity":0.23622047244094488},{"duration":0.13953488372093403,"midi":72,"time":38.04651162790697,"velocity":0.2283464566929134},{"duration":0.02325581395349019,"midi":37,"time":38.06976744186046,"velocity":0.2440944881889764},{"duration":0.04651162790698038,"midi":77,"time":38.06976744186046,"velocity":0.4566929133858268},{"duration":0.03488372093023173,"midi":84,"time":38.06976744186046,"velocity":0.41732283464566927},{"duration":0.12790697674418539,"midi":82,"time":38.08139534883721,"velocity":0.3228346456692913},{"duration":0.06976744186046346,"midi":87,"time":38.08139534883721,"velocity":0.2047244094488189},{"duration":0.12790697674418539,"midi":93,"time":38.08139534883721,"velocity":0.23622047244094488},{"duration":0.12790697674418539,"midi":99,"time":38.08139534883721,"velocity":0.33858267716535434},{"duration":0.15116279069767558,"midi":60,"time":38.093023255813954,"velocity":0.2992125984251969},{"duration":0.06976744186046346,"midi":70,"time":38.093023255813954,"velocity":0.2125984251968504},{"duration":0.02325581395349019,"midi":81,"time":38.093023255813954,"velocity":0.2677165354330709},{"duration":0.046511627906973274,"midi":90,"time":38.093023255813954,"velocity":0.33858267716535434},{"duration":0.03488372093023173,"midi":97,"time":38.093023255813954,"velocity":0.10236220472440945},{"duration":0.17441860465116577,"midi":48,"time":38.104651162790695,"velocity":0.36220472440944884},{"duration":0.05813953488372192,"midi":75,"time":38.104651162790695,"velocity":0.3228346456692913},{"duration":0.02325581395349019,"midi":78,"time":38.104651162790695,"velocity":0.4094488188976378},{"duration":0.04651162790698038,"midi":85,"time":38.104651162790695,"velocity":0.4330708661417323},{"duration":0.11627906976743674,"midi":55,"time":38.116279069767444,"velocity":0.29133858267716534},{"duration":0.081395348837205,"midi":65,"time":38.116279069767444,"velocity":0.31496062992125984},{"duration":0.05813953488372192,"midi":80,"time":38.116279069767444,"velocity":0.25984251968503935},{"duration":0.32558139534884134,"midi":77,"time":38.127906976744185,"velocity":0.44881889763779526},{"duration":0.1046511627906952,"midi":96,"time":38.127906976744185,"velocity":0.12598425196850394},{"duration":0.08139534883721211,"midi":101,"time":38.127906976744185,"velocity":0.1968503937007874},{"duration":0.16279069767442422,"midi":84,"time":38.13953488372093,"velocity":0.41732283464566927},{"duration":0.1046511627906952,"midi":36,"time":38.151162790697676,"velocity":0.3700787401574803},{"duration":0.1860465116279073,"midi":68,"time":38.151162790697676,"velocity":0.1968503937007874},{"duration":0.03488372093023173,"midi":79,"time":38.151162790697676,"velocity":0.11811023622047244},{"duration":0.03488372093023173,"midi":63,"time":38.174418604651166,"velocity":0.3228346456692913},{"duration":0.058139534883714816,"midi":87,"time":38.174418604651166,"velocity":0.08661417322834646},{"duration":0.023255813953483084,"midi":64,"time":38.2093023255814,"velocity":0.4330708661417323},{"duration":0.03488372093023173,"midi":64,"time":38.24418604651163,"velocity":0.33858267716535434},{"duration":0.05813953488372192,"midi":82,"time":38.25581395348837,"velocity":0.12598425196850394},{"duration":0.046511627906973274,"midi":75,"time":38.26744186046512,"velocity":0.2047244094488189},{"duration":0.05813953488372192,"midi":65,"time":38.27906976744186,"velocity":0.31496062992125984},{"duration":0.12790697674418539,"midi":84,"time":38.31395348837209,"velocity":0.1968503937007874},{"duration":0.02325581395349019,"midi":63,"time":38.325581395348834,"velocity":0.25196850393700787},{"duration":0.03488372093023173,"midi":60,"time":38.33720930232558,"velocity":0.2283464566929134},{"duration":0.03488372093023173,"midi":82,"time":38.33720930232558,"velocity":0.10236220472440945},{"duration":0.03488372093023173,"midi":88,"time":38.33720930232558,"velocity":0.2125984251968504},{"duration":0.046511627906973274,"midi":95,"time":38.33720930232558,"velocity":0.33070866141732286},{"duration":0.1046511627906952,"midi":103,"time":38.33720930232558,"velocity":0.2204724409448819},{"duration":0.02325581395349019,"midi":65,"time":38.348837209302324,"velocity":0.4409448818897638},{"duration":0.09302325581395365,"midi":68,"time":38.348837209302324,"velocity":0.14173228346456693},{"duration":0.1046511627907023,"midi":91,"time":38.348837209302324,"velocity":0.28346456692913385},{"duration":0.1860465116279002,"midi":94,"time":38.36046511627907,"velocity":0.4330708661417323},{"duration":0.011627906976741542,"midi":48,"time":38.372093023255815,"velocity":0.5511811023622047},{"duration":0.1860465116279073,"midi":75,"time":38.372093023255815,"velocity":0.28346456692913385},{"duration":0.011627906976748648,"midi":45,"time":38.383720930232556,"velocity":0.6299212598425197},{"duration":0.17441860465116577,"midi":63,"time":38.383720930232556,"velocity":0.48031496062992124},{"duration":0.03488372093023173,"midi":97,"time":38.383720930232556,"velocity":0.2125984251968504},{"duration":0.011627906976741542,"midi":44,"time":38.395348837209305,"velocity":0.6220472440944882},{"duration":0.011627906976741542,"midi":43,"time":38.406976744186046,"velocity":0.5984251968503937},{"duration":0.13953488372092693,"midi":101,"time":38.406976744186046,"velocity":0.14960629921259844},{"duration":0.011627906976748648,"midi":42,"time":38.41860465116279,"velocity":0.5590551181102362},{"duration":0.08139534883721211,"midi":96,"time":38.41860465116279,"velocity":0.23622047244094488},{"duration":0.12790697674418539,"midi":80,"time":38.45348837209303,"velocity":0.2047244094488189},{"duration":0.03488372093023173,"midi":82,"time":38.45348837209303,"velocity":0.13385826771653545},{"duration":0.081395348837205,"midi":91,"time":38.46511627906977,"velocity":0.2125984251968504},{"duration":0.17441860465115866,"midi":103,"time":38.46511627906977,"velocity":0.28346456692913385},{"duration":0.03488372093023173,"midi":36,"time":38.47674418604651,"velocity":0.3464566929133858},{"duration":0.03488372093023173,"midi":97,"time":38.5,"velocity":0.23622047244094488},{"duration":0.06976744186046346,"midi":82,"time":38.53488372093023,"velocity":0.11023622047244094},{"duration":0.08139534883721211,"midi":93,"time":38.54651162790697,"velocity":0.41732283464566927},{"duration":0.02325581395349019,"midi":62,"time":38.55813953488372,"velocity":0.41732283464566927},{"duration":0.03488372093023173,"midi":95,"time":38.55813953488372,"velocity":0.3228346456692913},{"duration":0.05813953488372192,"midi":75,"time":38.56976744186046,"velocity":0.2204724409448819},{"duration":0.03488372093023173,"midi":91,"time":38.56976744186046,"velocity":0.14960629921259844},{"duration":0.2325581395348877,"midi":94,"time":38.56976744186046,"velocity":0.3700787401574803},{"duration":0.13953488372092693,"midi":63,"time":38.58139534883721,"velocity":0.33070866141732286},{"duration":0.19767441860464885,"midi":72,"time":38.58139534883721,"velocity":0.1732283464566929},{"duration":0.023255813953483084,"midi":57,"time":38.616279069767444,"velocity":0.44881889763779526},{"duration":0.1860465116279073,"midi":80,"time":38.616279069767444,"velocity":0.13385826771653545},{"duration":0.25581395348837077,"midi":68,"time":38.627906976744185,"velocity":0.4566929133858268},{"duration":0.19767441860464885,"midi":92,"time":38.627906976744185,"velocity":0.3228346456692913},{"duration":0.19767441860465595,"midi":56,"time":38.63953488372093,"velocity":0.4645669291338583},{"duration":0.09302325581395365,"midi":96,"time":38.651162790697676,"velocity":0.11811023622047244},{"duration":0.03488372093023173,"midi":103,"time":38.68604651162791,"velocity":0.09448818897637795},{"duration":0.12790697674418539,"midi":65,"time":38.69767441860465,"velocity":0.25196850393700787},{"duration":0.03488372093023173,"midi":62,"time":38.74418604651163,"velocity":0.1968503937007874},{"duration":0.046511627906973274,"midi":96,"time":38.77906976744186,"velocity":0.2125984251968504},{"duration":0.05813953488372192,"midi":97,"time":38.80232558139535,"velocity":0.18110236220472442},{"duration":0.04651162790698038,"midi":63,"time":38.825581395348834,"velocity":0.25984251968503935},{"duration":0.08139534883721211,"midi":103,"time":38.825581395348834,"velocity":0.1732283464566929},{"duration":0.03488372093023173,"midi":72,"time":38.83720930232558,"velocity":0.16535433070866143},{"duration":0.02325581395349019,"midi":56,"time":38.848837209302324,"velocity":0.4094488188976378},{"duration":0.03488372093023173,"midi":87,"time":38.848837209302324,"velocity":0.1968503937007874},{"duration":0.023255813953483084,"midi":65,"time":38.86046511627907,"velocity":0.3543307086614173},{"duration":0.1046511627906952,"midi":98,"time":38.86046511627907,"velocity":0.30708661417322836},{"duration":0.02325581395349019,"midi":57,"time":38.872093023255815,"velocity":0.4881889763779528},{"duration":0.02325581395349019,"midi":75,"time":38.872093023255815,"velocity":0.2440944881889764},{"duration":0.046511627906973274,"midi":82,"time":38.872093023255815,"velocity":0.14173228346456693},{"duration":0.09302325581395365,"midi":90,"time":38.872093023255815,"velocity":0.30708661417322836},{"duration":0.03488372093023173,"midi":92,"time":38.872093023255815,"velocity":0.15748031496062992},{"duration":0.05813953488372192,"midi":95,"time":38.872093023255815,"velocity":0.14960629921259844},{"duration":0.11627906976744384,"midi":96,"time":38.872093023255815,"velocity":0.23622047244094488},{"duration":0.11627906976744384,"midi":100,"time":38.872093023255815,"velocity":0.1732283464566929},{"duration":0.17441860465115866,"midi":101,"time":38.872093023255815,"velocity":0.18110236220472442},{"duration":0.02325581395349019,"midi":60,"time":38.883720930232556,"velocity":0.3937007874015748},{"duration":0.03488372093023173,"midi":64,"time":38.883720930232556,"velocity":0.3937007874015748},{"duration":0.05813953488372192,"midi":88,"time":38.883720930232556,"velocity":0.31496062992125984},{"duration":0.17441860465116577,"midi":89,"time":38.883720930232556,"velocity":0.2283464566929134},{"duration":0.1046511627907023,"midi":94,"time":38.883720930232556,"velocity":0.2283464566929134},{"duration":0.06976744186047057,"midi":97,"time":38.883720930232556,"velocity":0.16535433070866143},{"duration":0.3372093023255829,"midi":102,"time":38.883720930232556,"velocity":0.30708661417322836},{"duration":0.023255813953483084,"midi":45,"time":38.895348837209305,"velocity":0.5590551181102362},{"duration":0.011627906976741542,"midi":53,"time":38.895348837209305,"velocity":0.5118110236220472},{"duration":0.05813953488372192,"midi":99,"time":38.906976744186046,"velocity":0.14960629921259844},{"duration":0.011627906976748648,"midi":44,"time":38.91860465116279,"velocity":0.6141732283464567},{"duration":0.06976744186047057,"midi":80,"time":38.91860465116279,"velocity":0.2204724409448819},{"duration":0.05813953488372192,"midi":85,"time":38.91860465116279,"velocity":0.12598425196850394},{"duration":0.011627906976741542,"midi":43,"time":38.93023255813954,"velocity":0.5826771653543307},{"duration":0.06976744186046346,"midi":63,"time":38.93023255813954,"velocity":0.15748031496062992},{"duration":0.046511627906973274,"midi":91,"time":38.93023255813954,"velocity":0.11023622047244094},{"duration":0.011627906976748648,"midi":42,"time":38.94186046511628,"velocity":0.5590551181102362},{"duration":0.04651162790698038,"midi":75,"time":38.94186046511628,"velocity":0.3858267716535433},{"duration":0.05813953488372192,"midi":77,"time":38.94186046511628,"velocity":0.1889763779527559},{"duration":0.04651162790698038,"midi":92,"time":38.94186046511628,"velocity":0.2677165354330709},{"duration":0.03488372093023173,"midi":68,"time":38.95348837209303,"velocity":0.2677165354330709},{"duration":0.09302325581395365,"midi":97,"time":38.96511627906977,"velocity":0.1968503937007874},{"duration":0.06976744186046346,"midi":83,"time":38.97674418604651,"velocity":0.15748031496062992},{"duration":0.023255813953483084,"midi":37,"time":38.98837209302326,"velocity":0.3937007874015748},{"duration":0.046511627906973274,"midi":74,"time":38.98837209302326,"velocity":0.3858267716535433},{"duration":0.058139534883714816,"midi":91,"time":38.98837209302326,"velocity":0.33070866141732286},{"duration":0.03488372093023173,"midi":93,"time":38.98837209302326,"velocity":0.2755905511811024},{"duration":0.046511627906973274,"midi":95,"time":38.98837209302326,"velocity":0.28346456692913385},{"duration":0.03488372093023173,"midi":98,"time":38.98837209302326,"velocity":0.13385826771653545},{"duration":0.046511627906973274,"midi":60,"time":39,"velocity":0.1889763779527559},{"duration":0.02325581395349019,"midi":68,"time":39,"velocity":0.3228346456692913},{"duration":0.02325581395349019,"midi":36,"time":39.01162790697674,"velocity":0.30708661417322836},{"duration":0.03488372093023173,"midi":55,"time":39.01162790697674,"velocity":0.23622047244094488},{"duration":0.08139534883721211,"midi":77,"time":39.01162790697674,"velocity":0.18110236220472442},{"duration":0.06976744186046346,"midi":94,"time":39.02325581395349,"velocity":0.36220472440944884},{"duration":0.05813953488372192,"midi":68,"time":39.03488372093023,"velocity":0.4330708661417323},{"duration":0.05813953488372192,"midi":75,"time":39.03488372093023,"velocity":0.3228346456692913},{"duration":0.04651162790698038,"midi":92,"time":39.03488372093023,"velocity":0.33858267716535434},{"duration":0.11627906976744384,"midi":96,"time":39.03488372093023,"velocity":0.25196850393700787},{"duration":0.04651162790698038,"midi":56,"time":39.04651162790697,"velocity":0.33070866141732286},{"duration":0.2325581395348877,"midi":84,"time":39.04651162790697,"velocity":0.1968503937007874},{"duration":0.05813953488372192,"midi":98,"time":39.05813953488372,"velocity":0.18110236220472442},{"duration":0.06976744186046346,"midi":101,"time":39.05813953488372,"velocity":0.09448818897637795},{"duration":0.16279069767441712,"midi":72,"time":39.06976744186046,"velocity":0.2283464566929134},{"duration":0.03488372093023173,"midi":62,"time":39.08139534883721,"velocity":0.2283464566929134},{"duration":0.09302325581395365,"midi":88,"time":39.08139534883721,"velocity":0.16535433070866143},{"duration":0.09302325581395365,"midi":90,"time":39.08139534883721,"velocity":0.14960629921259844},{"duration":0.023255813953483084,"midi":93,"time":39.08139534883721,"velocity":0.3464566929133858},{"duration":0.03488372093023173,"midi":95,"time":39.08139534883721,"velocity":0.3543307086614173},{"duration":0.046511627906973274,"midi":76,"time":39.093023255813954,"velocity":0.2755905511811024},{"duration":0.09302325581395365,"midi":87,"time":39.093023255813954,"velocity":0.11023622047244094},{"duration":0.05813953488372192,"midi":56,"time":39.104651162790695,"velocity":0.3779527559055118},{"duration":0.05813953488372192,"midi":68,"time":39.104651162790695,"velocity":0.4015748031496063},{"duration":0.2325581395348877,"midi":92,"time":39.104651162790695,"velocity":0.3228346456692913},{"duration":0.04651162790698038,"midi":94,"time":39.104651162790695,"velocity":0.4015748031496063},{"duration":0.06976744186046346,"midi":63,"time":39.116279069767444,"velocity":0.2125984251968504},{"duration":0.11627906976743674,"midi":97,"time":39.116279069767444,"velocity":0.2125984251968504},{"duration":0.02325581395349019,"midi":74,"time":39.127906976744185,"velocity":0.33858267716535434},{"duration":0.09302325581395365,"midi":91,"time":39.13953488372093,"velocity":0.2125984251968504},{"duration":0.06976744186047057,"midi":95,"time":39.13953488372093,"velocity":0.33858267716535434},{"duration":0.046511627906973274,"midi":75,"time":39.151162790697676,"velocity":0.36220472440944884},{"duration":0.05813953488372192,"midi":78,"time":39.151162790697676,"velocity":0.1968503937007874},{"duration":0.046511627906973274,"midi":83,"time":39.151162790697676,"velocity":0.1889763779527559},{"duration":0.06976744186046346,"midi":93,"time":39.151162790697676,"velocity":0.4566929133858268},{"duration":0.05813953488372192,"midi":67,"time":39.16279069767442,"velocity":0.3228346456692913},{"duration":0.03488372093023173,"midi":94,"time":39.16279069767442,"velocity":0.14960629921259844},{"duration":0.023255813953483084,"midi":56,"time":39.174418604651166,"velocity":0.3779527559055118},{"duration":0.02325581395349019,"midi":40,"time":39.18604651162791,"velocity":0.36220472440944884},{"duration":0.08139534883721211,"midi":48,"time":39.18604651162791,"velocity":0.28346456692913385},{"duration":0.03488372093023173,"midi":74,"time":39.19767441860465,"velocity":0.2992125984251969},{"duration":0.1046511627906952,"midi":63,"time":39.2093023255814,"velocity":0.31496062992125984},{"duration":0.06976744186046346,"midi":77,"time":39.2093023255814,"velocity":0.14960629921259844},{"duration":0.06976744186046346,"midi":80,"time":39.2093023255814,"velocity":0.15748031496062992},{"duration":0.4534883720930196,"midi":94,"time":39.2093023255814,"velocity":0.4645669291338583},{"duration":0.1046511627906952,"midi":96,"time":39.2093023255814,"velocity":0.2755905511811024},{"duration":0.02325581395349019,"midi":56,"time":39.22093023255814,"velocity":0.28346456692913385},{"duration":0.1046511627906952,"midi":68,"time":39.22093023255814,"velocity":0.4251968503937008},{"duration":0.09302325581395365,"midi":75,"time":39.22093023255814,"velocity":0.31496062992125984},{"duration":0.04651162790698038,"midi":41,"time":39.23255813953488,"velocity":0.2440944881889764},{"duration":0.08139534883721211,"midi":93,"time":39.23255813953488,"velocity":0.2125984251968504},{"duration":0.04651162790698038,"midi":98,"time":39.23255813953488,"velocity":0.11023622047244094},{"duration":0.05813953488372192,"midi":102,"time":39.23255813953488,"velocity":0.11023622047244094},{"duration":0.03488372093023173,"midi":95,"time":39.24418604651163,"velocity":0.11023622047244094},{"duration":0.04651162790698038,"midi":56,"time":39.25581395348837,"velocity":0.3543307086614173},{"duration":0.046511627906973274,"midi":91,"time":39.26744186046512,"velocity":0.2283464566929134},{"duration":0.05813953488372192,"midi":79,"time":39.27906976744186,"velocity":0.2283464566929134},{"duration":0.05813953488372192,"midi":83,"time":39.27906976744186,"velocity":0.1889763779527559},{"duration":0.03488372093023173,"midi":86,"time":39.27906976744186,"velocity":0.09448818897637795},{"duration":0.046511627906973274,"midi":88,"time":39.27906976744186,"velocity":0.2204724409448819},{"duration":0.05813953488372192,"midi":70,"time":39.2906976744186,"velocity":0.10236220472440945},{"duration":0.06976744186047057,"midi":72,"time":39.2906976744186,"velocity":0.13385826771653545},{"duration":0.04651162790698038,"midi":81,"time":39.2906976744186,"velocity":0.11811023622047244},{"duration":0.08139534883721211,"midi":97,"time":39.2906976744186,"velocity":0.16535433070866143},{"duration":0.05813953488372192,"midi":46,"time":39.30232558139535,"velocity":0.3700787401574803},{"duration":0.03488372093023173,"midi":65,"time":39.30232558139535,"velocity":0.1889763779527559},{"duration":0.046511627906973274,"midi":102,"time":39.30232558139535,"velocity":0.2283464566929134},{"duration":0.02325581395349019,"midi":74,"time":39.31395348837209,"velocity":0.25196850393700787},{"duration":0.04651162790698038,"midi":76,"time":39.31395348837209,"velocity":0.14173228346456693},{"duration":0.08139534883721211,"midi":95,"time":39.31395348837209,"velocity":0.2677165354330709},{"duration":0.03488372093023884,"midi":55,"time":39.325581395348834,"velocity":0.3464566929133858},{"duration":0.02325581395349019,"midi":67,"time":39.325581395348834,"velocity":0.3543307086614173},{"duration":0.02325581395349019,"midi":34,"time":39.348837209302324,"velocity":0.3464566929133858},{"duration":0.13953488372093403,"midi":68,"time":39.348837209302324,"velocity":0.4094488188976378},{"duration":0.09302325581395365,"midi":96,"time":39.348837209302324,"velocity":0.25984251968503935},{"duration":0.04651162790698038,"midi":103,"time":39.348837209302324,"velocity":0.14173228346456693},{"duration":0.046511627906973274,"midi":56,"time":39.36046511627907,"velocity":0.3858267716535433},{"duration":0.081395348837205,"midi":93,"time":39.36046511627907,"velocity":0.2125984251968504},{"duration":0.02325581395349019,"midi":35,"time":39.372093023255815,"velocity":0.3228346456692913},{"duration":0.03488372093023173,"midi":46,"time":39.372093023255815,"velocity":0.18110236220472442},{"duration":0.03488372093023173,"midi":63,"time":39.372093023255815,"velocity":0.12598425196850394},{"duration":0.09302325581395365,"midi":98,"time":39.372093023255815,"velocity":0.14173228346456693},{"duration":0.04651162790698038,"midi":75,"time":39.383720930232556,"velocity":0.18110236220472442},{"duration":0.03488372093023173,"midi":34,"time":39.395348837209305,"velocity":0.2283464566929134},{"duration":0.046511627906973274,"midi":92,"time":39.395348837209305,"velocity":0.14960629921259844},{"duration":0.046511627906973274,"midi":102,"time":39.395348837209305,"velocity":0.1732283464566929},{"duration":0.04651162790698038,"midi":74,"time":39.406976744186046,"velocity":0.1889763779527559},{"duration":0.03488372093023173,"midi":78,"time":39.406976744186046,"velocity":0.2283464566929134},{"duration":0.03488372093023173,"midi":83,"time":39.406976744186046,"velocity":0.1889763779527559},{"duration":0.03488372093023173,"midi":91,"time":39.406976744186046,"velocity":0.2677165354330709},{"duration":0.04651162790698038,"midi":88,"time":39.41860465116279,"velocity":0.2677165354330709},{"duration":0.011627906976741542,"midi":48,"time":39.43023255813954,"velocity":0.5354330708661418},{"duration":0.081395348837205,"midi":62,"time":39.43023255813954,"velocity":0.18110236220472442},{"duration":0.011627906976748648,"midi":45,"time":39.44186046511628,"velocity":0.5984251968503937},{"duration":0.05813953488372192,"midi":72,"time":39.44186046511628,"velocity":0.13385826771653545},{"duration":0.011627906976741542,"midi":44,"time":39.45348837209303,"velocity":0.6141732283464567},{"duration":0.011627906976741542,"midi":43,"time":39.46511627906977,"velocity":0.5905511811023622},{"duration":0.046511627906973274,"midi":75,"time":39.46511627906977,"velocity":0.1968503937007874},{"duration":0.011627906976748648,"midi":42,"time":39.47674418604651,"velocity":0.5354330708661418},{"duration":0.06976744186046346,"midi":70,"time":39.47674418604651,"velocity":0.1732283464566929},{"duration":0.04651162790698038,"midi":95,"time":39.47674418604651,"velocity":0.11023622047244094},{"duration":0.023255813953483084,"midi":56,"time":39.48837209302326,"velocity":0.36220472440944884},{"duration":0.03488372093023173,"midi":67,"time":39.48837209302326,"velocity":0.33858267716535434},{"duration":0.02325581395349019,"midi":37,"time":39.51162790697674,"velocity":0.4094488188976378},{"duration":0.02325581395349019,"midi":55,"time":39.51162790697674,"velocity":0.4015748031496063},{"duration":0.04651162790698038,"midi":74,"time":39.51162790697674,"velocity":0.2283464566929134},{"duration":0.02325581395349019,"midi":67,"time":39.53488372093023,"velocity":0.25984251968503935},{"duration":0.02325581395349019,"midi":55,"time":39.54651162790697,"velocity":0.3937007874015748},{"duration":0.03488372093023173,"midi":68,"time":39.55813953488372,"velocity":0.2992125984251969},{"duration":0.03488372093023173,"midi":96,"time":39.55813953488372,"velocity":0.11811023622047244},{"duration":0.04651162790698038,"midi":56,"time":39.56976744186046,"velocity":0.3779527559055118},{"duration":0.03488372093023173,"midi":92,"time":39.58139534883721,"velocity":0.11023622047244094},{"duration":0.02325581395349019,"midi":67,"time":39.593023255813954,"velocity":0.25984251968503935},{"duration":0.09302325581395365,"midi":82,"time":39.593023255813954,"velocity":0.2125984251968504},{"duration":0.03488372093023173,"midi":55,"time":39.616279069767444,"velocity":0.2992125984251969},{"duration":0.05813953488372192,"midi":68,"time":39.616279069767444,"velocity":0.36220472440944884},{"duration":0.03488372093023173,"midi":93,"time":39.616279069767444,"velocity":0.11811023622047244},{"duration":0.04651162790698038,"midi":75,"time":39.627906976744185,"velocity":0.16535433070866143},{"duration":0.02325581395349019,"midi":56,"time":39.651162790697676,"velocity":0.30708661417322836},{"duration":0.02325581395349019,"midi":73,"time":39.66279069767442,"velocity":0.2440944881889764},{"duration":0.03488372093023173,"midi":88,"time":39.66279069767442,"velocity":0.1968503937007874},{"duration":0.05813953488372192,"midi":89,"time":39.66279069767442,"velocity":0.2125984251968504},{"duration":0.08139534883721211,"midi":93,"time":39.66279069767442,"velocity":0.13385826771653545},{"duration":0.12790697674418539,"midi":51,"time":39.674418604651166,"velocity":0.3228346456692913},{"duration":0.03488372093023173,"midi":57,"time":39.674418604651166,"velocity":0.29133858267716534},{"duration":0.25581395348837077,"midi":70,"time":39.674418604651166,"velocity":0.25984251968503935},{"duration":0.17441860465115866,"midi":78,"time":39.674418604651166,"velocity":0.2047244094488189},{"duration":0.03488372093023173,"midi":84,"time":39.674418604651166,"velocity":0.10236220472440945},{"duration":0.046511627906973274,"midi":86,"time":39.674418604651166,"velocity":0.2204724409448819},{"duration":0.1046511627906952,"midi":66,"time":39.68604651162791,"velocity":0.2677165354330709},{"duration":0.03488372093023173,"midi":68,"time":39.68604651162791,"velocity":0.2283464566929134},{"duration":0.08139534883721211,"midi":74,"time":39.68604651162791,"velocity":0.2992125984251969},{"duration":0.08139534883721211,"midi":77,"time":39.68604651162791,"velocity":0.23622047244094488},{"duration":0.05813953488372192,"midi":81,"time":39.68604651162791,"velocity":0.2440944881889764},{"duration":0.1046511627907023,"midi":44,"time":39.69767441860465,"velocity":0.4015748031496063},{"duration":0.08139534883721211,"midi":60,"time":39.69767441860465,"velocity":0.25196850393700787},{"duration":0.05813953488372192,"midi":68,"time":39.73255813953488,"velocity":0.2125984251968504},{"duration":0.2674418604651123,"midi":94,"time":39.74418604651163,"velocity":0.18110236220472442},{"duration":0.02325581395349019,"midi":33,"time":39.75581395348837,"velocity":0.3464566929133858},{"duration":0.05813953488372192,"midi":32,"time":39.77906976744186,"velocity":0.3543307086614173},{"duration":0.023255813953483084,"midi":45,"time":39.80232558139535,"velocity":0.25984251968503935},{"duration":0.05813953488372192,"midi":68,"time":39.80232558139535,"velocity":0.30708661417322836},{"duration":0.06976744186046346,"midi":76,"time":39.80232558139535,"velocity":0.2677165354330709},{"duration":0.046511627906973274,"midi":83,"time":39.80232558139535,"velocity":0.1968503937007874},{"duration":0.046511627906973274,"midi":85,"time":39.80232558139535,"velocity":0.14173228346456693},{"duration":0.046511627906973274,"midi":91,"time":39.80232558139535,"velocity":0.2204724409448819},{"duration":0.03488372093023173,"midi":74,"time":39.81395348837209,"velocity":0.18110236220472442},{"duration":0.05813953488372192,"midi":72,"time":39.825581395348834,"velocity":0.12598425196850394},{"duration":0.05813953488372192,"midi":77,"time":39.825581395348834,"velocity":0.12598425196850394},{"duration":0.03488372093023884,"midi":81,"time":39.825581395348834,"velocity":0.11023622047244094},{"duration":0.09302325581395365,"midi":53,"time":39.83720930232558,"velocity":0.3228346456692913},{"duration":0.06976744186046346,"midi":58,"time":39.83720930232558,"velocity":0.2755905511811024},{"duration":0.02325581395349019,"midi":62,"time":39.83720930232558,"velocity":0.2677165354330709},{"duration":0.04651162790698038,"midi":35,"time":39.848837209302324,"velocity":0.3464566929133858},{"duration":0.09302325581395365,"midi":46,"time":39.848837209302324,"velocity":0.31496062992125984},{"duration":0.05813953488372192,"midi":66,"time":39.872093023255815,"velocity":0.28346456692913385},{"duration":0.08139534883721211,"midi":75,"time":39.872093023255815,"velocity":0.16535433070866143},{"duration":0.046511627906973274,"midi":34,"time":39.895348837209305,"velocity":0.33858267716535434},{"duration":0.02325581395349019,"midi":57,"time":39.91860465116279,"velocity":0.3464566929133858},{"duration":0.03488372093023173,"midi":67,"time":39.93023255813954,"velocity":0.3464566929133858},{"duration":0.13953488372092693,"midi":73,"time":39.93023255813954,"velocity":0.14960629921259844},{"duration":0.081395348837205,"midi":88,"time":39.93023255813954,"velocity":0.23622047244094488},{"duration":0.09302325581395365,"midi":90,"time":39.93023255813954,"velocity":0.30708661417322836},{"duration":0.081395348837205,"midi":95,"time":39.93023255813954,"velocity":0.2440944881889764},{"duration":0.05813953488372192,"midi":96,"time":39.93023255813954,"velocity":0.2125984251968504},{"duration":0.06976744186046346,"midi":97,"time":39.93023255813954,"velocity":0.14960629921259844},{"duration":0.03488372093023173,"midi":99,"time":39.93023255813954,"velocity":0.14960629921259844},{"duration":0.06976744186046346,"midi":101,"time":39.93023255813954,"velocity":0.1732283464566929},{"duration":0.046511627906973274,"midi":103,"time":39.93023255813954,"velocity":0.1889763779527559},{"duration":0.02325581395349019,"midi":53,"time":39.94186046511628,"velocity":0.5196850393700787},{"duration":0.03488372093023173,"midi":60,"time":39.94186046511628,"velocity":0.4094488188976378},{"duration":0.03488372093023173,"midi":80,"time":39.94186046511628,"velocity":0.12598425196850394},{"duration":0.05813953488372192,"midi":91,"time":39.94186046511628,"velocity":0.1968503937007874},{"duration":0.03488372093023173,"midi":93,"time":39.94186046511628,"velocity":0.10236220472440945},{"duration":0.046511627906973274,"midi":83,"time":39.95348837209303,"velocity":0.14173228346456693},{"duration":0.06976744186046346,"midi":89,"time":39.95348837209303,"velocity":0.18110236220472442},{"duration":0.011627906976741542,"midi":45,"time":39.96511627906977,"velocity":0.5669291338582677},{"duration":0.05813953488372192,"midi":68,"time":39.96511627906977,"velocity":0.12598425196850394},{"duration":0.011627906976748648,"midi":44,"time":39.97674418604651,"velocity":0.6220472440944882},{"duration":0.011627906976741542,"midi":43,"time":39.98837209302326,"velocity":0.5984251968503937},{"duration":0.058139534883714816,"midi":75,"time":39.98837209302326,"velocity":0.11023622047244094},{"duration":0.09302325581395365,"midi":82,"time":39.98837209302326,"velocity":0.1968503937007874},{"duration":0.02325581395349019,"midi":42,"time":40,"velocity":0.5748031496062992},{"duration":0.02325581395349019,"midi":52,"time":40.01162790697674,"velocity":0.28346456692913385},{"duration":0.06976744186047057,"midi":70,"time":40.01162790697674,"velocity":0.16535433070866143},{"duration":0.046511627906973274,"midi":63,"time":40.02325581395349,"velocity":0.13385826771653545},{"duration":0.05813953488372192,"midi":89,"time":40.03488372093023,"velocity":0.13385826771653545},{"duration":0.02325581395349019,"midi":37,"time":40.04651162790697,"velocity":0.4094488188976378},{"duration":0.03488372093023884,"midi":52,"time":40.04651162790697,"velocity":0.2125984251968504},{"duration":0.06976744186046346,"midi":94,"time":40.05813953488372,"velocity":0.23622047244094488},{"duration":0.02325581395349019,"midi":57,"time":40.06976744186046,"velocity":0.2283464566929134},{"duration":0.04651162790698038,"midi":86,"time":40.06976744186046,"velocity":0.1968503937007874},{"duration":0.04651162790698038,"midi":91,"time":40.06976744186046,"velocity":0.2283464566929134},{"duration":0.03488372093023173,"midi":95,"time":40.06976744186046,"velocity":0.10236220472440945},{"duration":0.023255813953483084,"midi":48,"time":40.08139534883721,"velocity":0.36220472440944884},{"duration":0.081395348837205,"midi":73,"time":40.08139534883721,"velocity":0.14173228346456693},{"duration":0.1860465116279073,"midi":75,"time":40.08139534883721,"velocity":0.2283464566929134},{"duration":0.046511627906973274,"midi":77,"time":40.08139534883721,"velocity":0.16535433070866143},{"duration":0.03488372093023173,"midi":79,"time":40.08139534883721,"velocity":0.23622047244094488},{"duration":0.058139534883714816,"midi":83,"time":40.08139534883721,"velocity":0.2047244094488189},{"duration":0.1046511627906952,"midi":56,"time":40.093023255813954,"velocity":0.33070866141732286},{"duration":0.13953488372092693,"midi":61,"time":40.093023255813954,"velocity":0.2677165354330709},{"duration":0.06976744186046346,"midi":65,"time":40.093023255813954,"velocity":0.2440944881889764},{"duration":0.05813953488372192,"midi":82,"time":40.093023255813954,"velocity":0.25984251968503935},{"duration":0.046511627906973274,"midi":84,"time":40.093023255813954,"velocity":0.07874015748031496},{"duration":0.06976744186047057,"midi":49,"time":40.104651162790695,"velocity":0.3228346456692913},{"duration":0.3720930232558146,"midi":78,"time":40.116279069767444,"velocity":0.2992125984251969},{"duration":0.04651162790698038,"midi":37,"time":40.127906976744185,"velocity":0.3779527559055118},{"duration":0.023255813953483084,"midi":50,"time":40.174418604651166,"velocity":0.3228346456692913},{"duration":0.046511627906973274,"midi":80,"time":40.174418604651166,"velocity":0.2283464566929134},{"duration":0.05813953488372192,"midi":82,"time":40.19767441860465,"velocity":0.2283464566929134},{"duration":0.05813953488372192,"midi":85,"time":40.19767441860465,"velocity":0.1968503937007874},{"duration":0.04651162790698038,"midi":93,"time":40.19767441860465,"velocity":0.2440944881889764},{"duration":0.15116279069767558,"midi":55,"time":40.22093023255814,"velocity":0.29133858267716534},{"duration":0.11627906976744384,"midi":64,"time":40.22093023255814,"velocity":0.23622047244094488},{"duration":0.2093023255813975,"midi":70,"time":40.22093023255814,"velocity":0.25984251968503935},{"duration":0.05813953488372192,"midi":79,"time":40.22093023255814,"velocity":0.16535433070866143},{"duration":0.05813953488372192,"midi":81,"time":40.22093023255814,"velocity":0.25196850393700787},{"duration":0.03488372093023173,"midi":83,"time":40.22093023255814,"velocity":0.08661417322834646},{"duration":0.15116279069767558,"midi":48,"time":40.23255813953488,"velocity":0.3543307086614173},{"duration":0.09302325581395365,"midi":36,"time":40.26744186046512,"velocity":0.3464566929133858},{"duration":0.03488372093023173,"midi":75,"time":40.2906976744186,"velocity":0.11811023622047244},{"duration":0.04651162790698038,"midi":61,"time":40.325581395348834,"velocity":0.2047244094488189},{"duration":0.03488372093023173,"midi":63,"time":40.383720930232556,"velocity":0.2204724409448819},{"duration":0.023255813953483084,"midi":51,"time":40.395348837209305,"velocity":0.2283464566929134},{"duration":0.05813953488372192,"midi":66,"time":40.395348837209305,"velocity":0.28346456692913385},{"duration":0.02325581395349019,"midi":50,"time":40.41860465116279,"velocity":0.3543307086614173},{"duration":0.03488372093023173,"midi":63,"time":40.43023255813954,"velocity":0.28346456692913385},{"duration":0.02325581395349019,"midi":68,"time":40.44186046511628,"velocity":0.4015748031496063},{"duration":0.04651162790698038,"midi":92,"time":40.44186046511628,"velocity":0.23622047244094488},{"duration":0.05813953488372192,"midi":94,"time":40.44186046511628,"velocity":0.2677165354330709},{"duration":0.06976744186046346,"midi":95,"time":40.44186046511628,"velocity":0.25984251968503935},{"duration":0.2325581395348877,"midi":100,"time":40.44186046511628,"velocity":0.3779527559055118},{"duration":0.046511627906973274,"midi":91,"time":40.45348837209303,"velocity":0.2047244094488189},{"duration":0.03488372093023173,"midi":93,"time":40.45348837209303,"velocity":0.28346456692913385},{"duration":0.081395348837205,"midi":96,"time":40.45348837209303,"velocity":0.2440944881889764},{"duration":0.046511627906973274,"midi":97,"time":40.45348837209303,"velocity":0.2440944881889764},{"duration":0.24418604651162212,"midi":98,"time":40.45348837209303,"velocity":0.28346456692913385},{"duration":0.046511627906973274,"midi":101,"time":40.45348837209303,"velocity":0.14960629921259844},{"duration":0.046511627906973274,"midi":102,"time":40.45348837209303,"velocity":0.1889763779527559},{"duration":0.02325581395349019,"midi":48,"time":40.46511627906977,"velocity":0.41732283464566927},{"duration":0.02325581395349019,"midi":56,"time":40.46511627906977,"velocity":0.4094488188976378},{"duration":0.02325581395349019,"midi":69,"time":40.46511627906977,"velocity":0.3937007874015748},{"duration":0.38372093023255616,"midi":86,"time":40.46511627906977,"velocity":0.4645669291338583},{"duration":0.05813953488372192,"midi":89,"time":40.46511627906977,"velocity":0.29133858267716534},{"duration":0.06976744186046346,"midi":74,"time":40.47674418604651,"velocity":0.2440944881889764},{"duration":0.02325581395349019,"midi":77,"time":40.47674418604651,"velocity":0.3228346456692913},{"duration":0.011627906976741542,"midi":47,"time":40.48837209302326,"velocity":0.5354330708661418},{"duration":0.023255813953483084,"midi":57,"time":40.48837209302326,"velocity":0.3779527559055118},{"duration":0.11627906976743674,"midi":66,"time":40.48837209302326,"velocity":0.1968503937007874},{"duration":0.058139534883714816,"midi":70,"time":40.48837209302326,"velocity":0.14173228346456693},{"duration":0.09302325581395365,"midi":75,"time":40.48837209302326,"velocity":0.14960629921259844},{"duration":0.011627906976741542,"midi":45,"time":40.5,"velocity":0.5905511811023622},{"duration":0.02325581395349019,"midi":60,"time":40.5,"velocity":0.23622047244094488},{"duration":0.046511627906973274,"midi":63,"time":40.5,"velocity":0.2204724409448819},{"duration":0.02325581395349019,"midi":78,"time":40.5,"velocity":0.29133858267716534},{"duration":0.011627906976748648,"midi":44,"time":40.51162790697674,"velocity":0.5905511811023622},{"duration":0.09302325581395365,"midi":83,"time":40.51162790697674,"velocity":0.4094488188976378},{"duration":0.03488372093023173,"midi":94,"time":40.51162790697674,"velocity":0.08661417322834646},{"duration":0.023255813953483084,"midi":42,"time":40.52325581395349,"velocity":0.5826771653543307},{"duration":0.06976744186046346,"midi":90,"time":40.52325581395349,"velocity":0.2992125984251969},{"duration":0.09302325581395365,"midi":51,"time":40.53488372093023,"velocity":0.30708661417322836},{"duration":0.03488372093023173,"midi":58,"time":40.53488372093023,"velocity":0.25984251968503935},{"duration":0.05813953488372192,"midi":78,"time":40.53488372093023,"velocity":0.29133858267716534},{"duration":0.03488372093023173,"midi":92,"time":40.53488372093023,"velocity":0.10236220472440945},{"duration":0.011627906976748648,"midi":41,"time":40.54651162790697,"velocity":0.5196850393700787},{"duration":0.06976744186046346,"midi":70,"time":40.55813953488372,"velocity":0.28346456692913385},{"duration":0.02325581395349019,"midi":58,"time":40.593023255813954,"velocity":0.25196850393700787},{"duration":0.12790697674418539,"midi":77,"time":40.593023255813954,"velocity":0.33858267716535434},{"duration":0.3139534883720927,"midi":89,"time":40.593023255813954,"velocity":0.36220472440944884},{"duration":0.06976744186047057,"midi":82,"time":40.604651162790695,"velocity":0.4330708661417323},{"duration":0.023255813953483084,"midi":34,"time":40.616279069767444,"velocity":0.33070866141732286},{"duration":0.03488372093023173,"midi":58,"time":40.627906976744185,"velocity":0.29133858267716534},{"duration":0.08139534883721211,"midi":70,"time":40.63953488372093,"velocity":0.3464566929133858},{"duration":0.03488372093023884,"midi":75,"time":40.63953488372093,"velocity":0.16535433070866143},{"duration":0.06976744186046346,"midi":73,"time":40.66279069767442,"velocity":0.2125984251968504},{"duration":0.08139534883721211,"midi":102,"time":40.66279069767442,"velocity":0.2047244094488189},{"duration":0.023255813953483084,"midi":57,"time":40.674418604651166,"velocity":0.3779527559055118},{"duration":0.058139534883714816,"midi":99,"time":40.674418604651166,"velocity":0.33070866141732286},{"duration":0.02325581395349019,"midi":58,"time":40.69767441860465,"velocity":0.4251968503937008},{"duration":0.04651162790698038,"midi":75,"time":40.69767441860465,"velocity":0.23622047244094488},{"duration":0.023255813953483084,"midi":71,"time":40.7093023255814,"velocity":0.2992125984251969},{"duration":0.081395348837205,"midi":80,"time":40.7093023255814,"velocity":0.18110236220472442},{"duration":0.1860465116279073,"midi":100,"time":40.7093023255814,"velocity":0.2755905511811024},{"duration":0.05813953488372192,"midi":66,"time":40.72093023255814,"velocity":0.2047244094488189},{"duration":0.04651162790698038,"midi":78,"time":40.72093023255814,"velocity":0.2440944881889764},{"duration":0.3488372093023244,"midi":88,"time":40.72093023255814,"velocity":0.25196850393700787},{"duration":0.12790697674418539,"midi":91,"time":40.72093023255814,"velocity":0.3464566929133858},{"duration":0.3372093023255829,"midi":103,"time":40.72093023255814,"velocity":0.4566929133858268},{"duration":0.09302325581395365,"midi":60,"time":40.73255813953488,"velocity":0.4409448818897638},{"duration":0.19767441860465595,"midi":72,"time":40.73255813953488,"velocity":0.48031496062992124},{"duration":0.02325581395349019,"midi":45,"time":40.74418604651163,"velocity":0.3858267716535433},{"duration":0.13953488372092693,"midi":53,"time":40.74418604651163,"velocity":0.31496062992125984},{"duration":0.046511627906973274,"midi":76,"time":40.74418604651163,"velocity":0.23622047244094488},{"duration":0.13953488372093403,"midi":79,"time":40.75581395348837,"velocity":0.2047244094488189},{"duration":0.03488372093023173,"midi":81,"time":40.75581395348837,"velocity":0.10236220472440945},{"duration":0.16279069767441712,"midi":96,"time":40.75581395348837,"velocity":0.2204724409448819},{"duration":0.13953488372092693,"midi":46,"time":40.76744186046512,"velocity":0.31496062992125984},{"duration":0.023255813953483084,"midi":82,"time":40.76744186046512,"velocity":0.2283464566929134},{"duration":0.12790697674418539,"midi":82,"time":40.80232558139535,"velocity":0.2755905511811024},{"duration":0.09302325581395365,"midi":34,"time":40.81395348837209,"velocity":0.36220472440944884},{"duration":0.05813953488372192,"midi":77,"time":40.81395348837209,"velocity":0.11023622047244094},{"duration":0.04651162790698038,"midi":93,"time":40.81395348837209,"velocity":0.12598425196850394},{"duration":0.06976744186046346,"midi":60,"time":40.83720930232558,"velocity":0.41732283464566927},{"duration":0.046511627906973274,"midi":66,"time":40.83720930232558,"velocity":0.12598425196850394},{"duration":0.12790697674418539,"midi":78,"time":40.86046511627907,"velocity":0.1968503937007874},{"duration":0.046511627906973274,"midi":70,"time":40.872093023255815,"velocity":0.2283464566929134},{"duration":0.09302325581395365,"midi":75,"time":40.883720930232556,"velocity":0.1732283464566929},{"duration":0.02325581395349019,"midi":59,"time":40.906976744186046,"velocity":0.4330708661417323},{"duration":0.09302325581395365,"midi":66,"time":40.906976744186046,"velocity":0.3464566929133858},{"duration":0.046511627906973274,"midi":60,"time":40.93023255813954,"velocity":0.4881889763779528},{"duration":0.02325581395349019,"midi":63,"time":40.94186046511628,"velocity":0.29133858267716534},{"duration":0.09302325581395365,"midi":91,"time":40.96511627906977,"velocity":0.14173228346456693},{"duration":0.3139534883720927,"midi":73,"time":40.97674418604651,"velocity":0.3858267716535433},{"duration":0.06976744186046346,"midi":82,"time":40.97674418604651,"velocity":0.13385826771653545},{"duration":0.1046511627907023,"midi":89,"time":40.97674418604651,"velocity":0.2440944881889764},{"duration":0.3953488372093048,"midi":92,"time":40.97674418604651,"velocity":0.3937007874015748},{"duration":0.1046511627907023,"midi":95,"time":40.97674418604651,"velocity":0.2755905511811024},{"duration":0.03488372093023173,"midi":96,"time":40.97674418604651,"velocity":0.12598425196850394},{"duration":0.22093023255813904,"midi":97,"time":40.97674418604651,"velocity":0.3779527559055118},{"duration":0.1860465116279073,"midi":102,"time":40.97674418604651,"velocity":0.33858267716535434},{"duration":0.023255813953483084,"midi":62,"time":40.98837209302326,"velocity":0.5118110236220472},{"duration":0.03488372093023173,"midi":86,"time":40.98837209302326,"velocity":0.08661417322834646},{"duration":0.06976744186046346,"midi":90,"time":40.98837209302326,"velocity":0.23622047244094488},{"duration":0.06976744186046346,"midi":94,"time":40.98837209302326,"velocity":0.2204724409448819},{"duration":0.058139534883714816,"midi":98,"time":40.98837209302326,"velocity":0.11023622047244094},{"duration":0.16279069767441712,"midi":99,"time":40.98837209302326,"velocity":0.23622047244094488},{"duration":0.02325581395349019,"midi":67,"time":41,"velocity":0.30708661417322836},{"duration":0.03488372093023173,"midi":78,"time":41,"velocity":0.11811023622047244},{"duration":0.09302325581395365,"midi":80,"time":41,"velocity":0.1732283464566929},{"duration":0.03488372093023173,"midi":87,"time":41,"velocity":0.1968503937007874},{"duration":0.02325581395349019,"midi":45,"time":41.01162790697674,"velocity":0.5511811023622047},{"duration":0.05813953488372192,"midi":83,"time":41.01162790697674,"velocity":0.12598425196850394},{"duration":0.03488372093023173,"midi":61,"time":41.02325581395349,"velocity":0.2992125984251969},{"duration":0.081395348837205,"midi":66,"time":41.02325581395349,"velocity":0.2047244094488189},{"duration":0.03488372093023173,"midi":81,"time":41.02325581395349,"velocity":0.16535433070866143},{"duration":0.011627906976741542,"midi":44,"time":41.03488372093023,"velocity":0.5984251968503937},{"duration":0.011627906976748648,"midi":43,"time":41.04651162790697,"velocity":0.5669291338582677},{"duration":0.011627906976741542,"midi":42,"time":41.05813953488372,"velocity":0.5433070866141733},{"duration":0.046511627906973274,"midi":60,"time":41.05813953488372,"velocity":0.33070866141732286},{"duration":0.03488372093023173,"midi":87,"time":41.05813953488372,"velocity":0.11023622047244094},{"duration":0.02325581395349019,"midi":52,"time":41.06976744186046,"velocity":0.2677165354330709},{"duration":0.09302325581395365,"midi":70,"time":41.06976744186046,"velocity":0.2204724409448819},{"duration":0.02325581395349019,"midi":94,"time":41.06976744186046,"velocity":0.33070866141732286},{"duration":0.046511627906973274,"midi":98,"time":41.08139534883721,"velocity":0.09448818897637795},{"duration":0.046511627906973274,"midi":61,"time":41.093023255813954,"velocity":0.4015748031496063},{"duration":0.046511627906973274,"midi":89,"time":41.093023255813954,"velocity":0.09448818897637795},{"duration":0.05813953488372192,"midi":95,"time":41.093023255813954,"velocity":0.4015748031496063},{"duration":0.02325581395349019,"midi":37,"time":41.104651162790695,"velocity":0.3779527559055118},{"duration":0.04651162790698038,"midi":52,"time":41.104651162790695,"velocity":0.1968503937007874},{"duration":0.02325581395349019,"midi":36,"time":41.127906976744185,"velocity":0.2992125984251969},{"duration":0.04651162790698038,"midi":67,"time":41.127906976744185,"velocity":0.11023622047244094},{"duration":0.04651162790698038,"midi":83,"time":41.13953488372093,"velocity":0.13385826771653545},{"duration":0.03488372093023884,"midi":94,"time":41.13953488372093,"velocity":0.25984251968503935},{"duration":0.02325581395349019,"midi":57,"time":41.151162790697676,"velocity":0.31496062992125984},{"duration":0.02325581395349019,"midi":60,"time":41.16279069767442,"velocity":0.31496062992125984},{"duration":0.03488372093023173,"midi":71,"time":41.16279069767442,"velocity":0.2204724409448819},{"duration":0.08139534883721211,"midi":103,"time":41.16279069767442,"velocity":0.2047244094488189},{"duration":0.22093023255813904,"midi":75,"time":41.18604651162791,"velocity":0.23622047244094488},{"duration":0.04651162790698038,"midi":52,"time":41.19767441860465,"velocity":0.2125984251968504},{"duration":0.08139534883721211,"midi":70,"time":41.19767441860465,"velocity":0.2440944881889764},{"duration":0.1046511627907023,"midi":78,"time":41.19767441860465,"velocity":0.2677165354330709},{"duration":0.03488372093023173,"midi":61,"time":41.2093023255814,"velocity":0.2204724409448819},{"duration":0.06976744186046346,"midi":101,"time":41.2093023255814,"velocity":0.25196850393700787},{"duration":0.06976744186047057,"midi":97,"time":41.23255813953488,"velocity":0.33858267716535434},{"duration":0.06976744186047057,"midi":99,"time":41.23255813953488,"velocity":0.15748031496062992},{"duration":0.05813953488372192,"midi":100,"time":41.23255813953488,"velocity":0.23622047244094488},{"duration":0.03488372093023173,"midi":58,"time":41.24418604651163,"velocity":0.5196850393700787},{"duration":0.1046511627906952,"midi":80,"time":41.24418604651163,"velocity":0.1968503937007874},{"duration":0.046511627906973274,"midi":94,"time":41.24418604651163,"velocity":0.2047244094488189},{"duration":0.06976744186046346,"midi":102,"time":41.24418604651163,"velocity":0.13385826771653545},{"duration":0.04651162790698038,"midi":83,"time":41.25581395348837,"velocity":0.1968503937007874},{"duration":0.09302325581395365,"midi":103,"time":41.25581395348837,"velocity":0.29133858267716534},{"duration":0.023255813953483084,"midi":48,"time":41.26744186046512,"velocity":0.23622047244094488},{"duration":0.058139534883714816,"midi":86,"time":41.26744186046512,"velocity":0.16535433070866143},{"duration":0.03488372093023173,"midi":59,"time":41.27906976744186,"velocity":0.4645669291338583},{"duration":0.02325581395349019,"midi":95,"time":41.27906976744186,"velocity":0.2283464566929134},{"duration":0.02325581395349019,"midi":53,"time":41.2906976744186,"velocity":0.29133858267716534},{"duration":0.05813953488372192,"midi":74,"time":41.2906976744186,"velocity":0.2125984251968504},{"duration":0.023255813953483084,"midi":40,"time":41.30232558139535,"velocity":0.3937007874015748},{"duration":0.05813953488372192,"midi":48,"time":41.30232558139535,"velocity":0.2992125984251969},{"duration":0.12790697674418539,"midi":94,"time":41.30232558139535,"velocity":0.2755905511811024},{"duration":0.12790697674418539,"midi":96,"time":41.30232558139535,"velocity":0.30708661417322836},{"duration":0.11627906976744384,"midi":58,"time":41.31395348837209,"velocity":0.47244094488188976},{"duration":0.05813953488372192,"midi":41,"time":41.33720930232558,"velocity":0.30708661417322836},{"duration":0.081395348837205,"midi":89,"time":41.33720930232558,"velocity":0.23622047244094488},{"duration":0.03488372093023173,"midi":90,"time":41.33720930232558,"velocity":0.08661417322834646},{"duration":0.04651162790698038,"midi":102,"time":41.348837209302324,"velocity":0.31496062992125984},{"duration":0.05813953488372192,"midi":88,"time":41.383720930232556,"velocity":0.28346456692913385},{"duration":0.04651162790698038,"midi":91,"time":41.383720930232556,"velocity":0.2047244094488189},{"duration":0.06976744186046346,"midi":68,"time":41.395348837209305,"velocity":0.2125984251968504},{"duration":0.046511627906973274,"midi":79,"time":41.395348837209305,"velocity":0.2204724409448819},{"duration":0.046511627906973274,"midi":83,"time":41.395348837209305,"velocity":0.18110236220472442},{"duration":0.04651162790698038,"midi":62,"time":41.406976744186046,"velocity":0.2204724409448819},{"duration":0.06976744186046346,"midi":76,"time":41.406976744186046,"velocity":0.2677165354330709},{"duration":0.03488372093023884,"midi":53,"time":41.41860465116279,"velocity":0.33070866141732286},{"duration":0.05813953488372192,"midi":81,"time":41.41860465116279,"velocity":0.07874015748031496},{"duration":0.04651162790698038,"midi":86,"time":41.41860465116279,"velocity":0.2204724409448819},{"duration":0.03488372093023173,"midi":59,"time":41.43023255813954,"velocity":0.4251968503937008},{"duration":0.03488372093023173,"midi":46,"time":41.44186046511628,"velocity":0.3228346456692913},{"duration":0.03488372093023173,"midi":70,"time":41.44186046511628,"velocity":0.28346456692913385},{"duration":0.02325581395349019,"midi":34,"time":41.46511627906977,"velocity":0.36220472440944884},{"duration":0.03488372093023173,"midi":58,"time":41.48837209302326,"velocity":0.30708661417322836},{"duration":0.03488372093023173,"midi":68,"time":41.48837209302326,"velocity":0.14960629921259844},{"duration":0.06976744186046346,"midi":92,"time":41.48837209302326,"velocity":0.2125984251968504},{"duration":0.058139534883714816,"midi":96,"time":41.48837209302326,"velocity":0.16535433070866143},{"duration":0.02325581395349019,"midi":34,"time":41.5,"velocity":0.31496062992125984},{"duration":0.02325581395349019,"midi":54,"time":41.51162790697674,"velocity":0.2440944881889764},{"duration":0.04651162790698038,"midi":91,"time":41.51162790697674,"velocity":0.2204724409448819},{"duration":0.03488372093023173,"midi":95,"time":41.51162790697674,"velocity":0.2440944881889764},{"duration":0.06976744186046346,"midi":80,"time":41.52325581395349,"velocity":0.2047244094488189},{"duration":0.03488372093023173,"midi":83,"time":41.52325581395349,"velocity":0.15748031496062992},{"duration":0.03488372093023173,"midi":88,"time":41.52325581395349,"velocity":0.2440944881889764},{"duration":0.03488372093023173,"midi":102,"time":41.52325581395349,"velocity":0.14960629921259844},{"duration":0.05813953488372192,"midi":68,"time":41.53488372093023,"velocity":0.1968503937007874},{"duration":0.03488372093023173,"midi":74,"time":41.53488372093023,"velocity":0.1889763779527559},{"duration":0.08139534883721211,"midi":76,"time":41.53488372093023,"velocity":0.2677165354330709},{"duration":0.05813953488372192,"midi":79,"time":41.53488372093023,"velocity":0.18110236220472442},{"duration":0.011627906976748648,"midi":46,"time":41.54651162790697,"velocity":0.6062992125984252},{"duration":0.1279069767441925,"midi":70,"time":41.54651162790697,"velocity":0.2992125984251969},{"duration":0.011627906976741542,"midi":45,"time":41.55813953488372,"velocity":0.6456692913385826},{"duration":0.09302325581395365,"midi":58,"time":41.55813953488372,"velocity":0.33070866141732286},{"duration":0.06976744186046346,"midi":62,"time":41.55813953488372,"velocity":0.2125984251968504},{"duration":0.011627906976748648,"midi":44,"time":41.56976744186046,"velocity":0.6299212598425197},{"duration":0.023255813953483084,"midi":42,"time":41.58139534883721,"velocity":0.5905511811023622},{"duration":0.09302325581395365,"midi":53,"time":41.58139534883721,"velocity":0.2992125984251969},{"duration":0.1046511627906952,"midi":66,"time":41.593023255813954,"velocity":0.2125984251968504},{"duration":0.011627906976748648,"midi":41,"time":41.604651162790695,"velocity":0.5118110236220472},{"duration":0.06976744186047057,"midi":73,"time":41.604651162790695,"velocity":0.11811023622047244},{"duration":0.02325581395349019,"midi":37,"time":41.627906976744185,"velocity":0.4645669291338583},{"duration":0.03488372093023173,"midi":37,"time":41.66279069767442,"velocity":0.2047244094488189},{"duration":0.02325581395349019,"midi":58,"time":41.66279069767442,"velocity":0.2440944881889764},{"duration":0.02325581395349019,"midi":73,"time":41.77906976744186,"velocity":0.30708661417322836},{"duration":0.05813953488372192,"midi":85,"time":41.77906976744186,"velocity":0.33070866141732286},{"duration":0.046511627906973274,"midi":89,"time":41.77906976744186,"velocity":0.25984251968503935},{"duration":0.02325581395349019,"midi":57,"time":41.7906976744186,"velocity":0.2992125984251969},{"duration":0.08139534883721211,"midi":77,"time":41.7906976744186,"velocity":0.23622047244094488},{"duration":0.04651162790698038,"midi":81,"time":41.7906976744186,"velocity":0.3858267716535433},{"duration":0.08139534883721211,"midi":91,"time":41.7906976744186,"velocity":0.16535433070866143},{"duration":0.2325581395348877,"midi":101,"time":41.7906976744186,"velocity":0.3779527559055118},{"duration":0.11627906976743674,"midi":51,"time":41.80232558139535,"velocity":0.3228346456692913},{"duration":0.06976744186046346,"midi":66,"time":41.80232558139535,"velocity":0.2047244094488189},{"duration":0.046511627906973274,"midi":72,"time":41.80232558139535,"velocity":0.2125984251968504},{"duration":0.05813953488372192,"midi":44,"time":41.81395348837209,"velocity":0.4094488188976378},{"duration":0.05813953488372192,"midi":60,"time":41.81395348837209,"velocity":0.2047244094488189},{"duration":0.06976744186046346,"midi":75,"time":41.81395348837209,"velocity":0.3858267716535433},{"duration":0.30232558139535115,"midi":87,"time":41.81395348837209,"velocity":0.44881889763779526},{"duration":0.04651162790698038,"midi":70,"time":41.825581395348834,"velocity":0.11023622047244094},{"duration":0.08139534883721211,"midi":82,"time":41.825581395348834,"velocity":0.4015748031496063},{"duration":0.03488372093023173,"midi":103,"time":41.83720930232558,"velocity":0.1889763779527559},{"duration":0.02325581395349019,"midi":33,"time":41.872093023255815,"velocity":0.3464566929133858},{"duration":0.08139534883721211,"midi":96,"time":41.872093023255815,"velocity":0.16535433070866143},{"duration":0.06976744186046346,"midi":102,"time":41.872093023255815,"velocity":0.23622047244094488},{"duration":0.03488372093023173,"midi":44,"time":41.883720930232556,"velocity":0.2677165354330709},{"duration":0.02325581395349019,"midi":74,"time":41.883720930232556,"velocity":0.3937007874015748},{"duration":0.046511627906973274,"midi":32,"time":41.895348837209305,"velocity":0.3464566929133858},{"duration":0.13953488372092693,"midi":63,"time":41.906976744186046,"velocity":0.47244094488188976},{"duration":0.03488372093023884,"midi":78,"time":41.91860465116279,"velocity":0.28346456692913385},{"duration":0.27906976744186096,"midi":82,"time":41.91860465116279,"velocity":0.29133858267716534},{"duration":0.04651162790698038,"midi":83,"time":41.91860465116279,"velocity":0.2047244094488189},{"duration":0.03488372093023884,"midi":88,"time":41.91860465116279,"velocity":0.1968503937007874},{"duration":0.04651162790698038,"midi":91,"time":41.91860465116279,"velocity":0.2204724409448819},{"duration":0.081395348837205,"midi":68,"time":41.93023255813954,"velocity":0.2125984251968504},{"duration":0.09302325581395365,"midi":70,"time":41.93023255813954,"velocity":0.13385826771653545},{"duration":0.1046511627906952,"midi":53,"time":41.94186046511628,"velocity":0.33070866141732286},{"duration":0.09302325581395365,"midi":58,"time":41.94186046511628,"velocity":0.31496062992125984},{"duration":0.05813953488372192,"midi":79,"time":41.94186046511628,"velocity":0.2283464566929134},{"duration":0.058139534883714816,"midi":72,"time":41.95348837209303,"velocity":0.12598425196850394},{"duration":0.046511627906973274,"midi":97,"time":41.95348837209303,"velocity":0.08661417322834646},{"duration":0.03488372093023173,"midi":35,"time":41.97674418604651,"velocity":0.3858267716535433},{"duration":0.06976744186046346,"midi":46,"time":41.97674418604651,"velocity":0.33070866141732286},{"duration":0.03488372093023173,"midi":74,"time":41.98837209302326,"velocity":0.2125984251968504},{"duration":0.06976744186046346,"midi":78,"time":42,"velocity":0.16535433070866143},{"duration":0.02325581395349019,"midi":34,"time":42.01162790697674,"velocity":0.3937007874015748},{"duration":0.05813953488372192,"midi":73,"time":42.02325581395349,"velocity":0.1732283464566929},{"duration":0.12790697674418539,"midi":89,"time":42.02325581395349,"velocity":0.2677165354330709},{"duration":0.02325581395349019,"midi":34,"time":42.04651162790697,"velocity":0.31496062992125984},{"duration":0.03488372093023884,"midi":64,"time":42.04651162790697,"velocity":0.3858267716535433},{"duration":0.02325581395349019,"midi":67,"time":42.04651162790697,"velocity":0.3779527559055118},{"duration":0.1046511627907023,"midi":77,"time":42.04651162790697,"velocity":0.14960629921259844},{"duration":0.08139534883721211,"midi":88,"time":42.04651162790697,"velocity":0.2125984251968504},{"duration":0.06976744186047057,"midi":90,"time":42.04651162790697,"velocity":0.2992125984251969},{"duration":0.03488372093023884,"midi":92,"time":42.04651162790697,"velocity":0.16535433070866143},{"duration":0.05813953488372192,"midi":96,"time":42.04651162790697,"velocity":0.1732283464566929},{"duration":0.09302325581395365,"midi":97,"time":42.04651162790697,"velocity":0.16535433070866143},{"duration":0.02325581395349019,"midi":60,"time":42.05813953488372,"velocity":0.4015748031496063},{"duration":0.081395348837205,"midi":93,"time":42.05813953488372,"velocity":0.1732283464566929},{"duration":0.09302325581395365,"midi":95,"time":42.05813953488372,"velocity":0.07874015748031496},{"duration":0.046511627906973274,"midi":98,"time":42.05813953488372,"velocity":0.23622047244094488},{"duration":0.09302325581395365,"midi":103,"time":42.05813953488372,"velocity":0.25984251968503935},{"duration":0.04651162790698038,"midi":83,"time":42.06976744186046,"velocity":0.11811023622047244},{"duration":0.04651162790698038,"midi":91,"time":42.06976744186046,"velocity":0.23622047244094488},{"duration":0.011627906976741542,"midi":45,"time":42.08139534883721,"velocity":0.5669291338582677},{"duration":0.058139534883714816,"midi":65,"time":42.08139534883721,"velocity":0.4409448818897638},{"duration":0.011627906976741542,"midi":44,"time":42.093023255813954,"velocity":0.6062992125984252},{"duration":0.011627906976748648,"midi":43,"time":42.104651162790695,"velocity":0.5826771653543307},{"duration":0.011627906976741542,"midi":42,"time":42.116279069767444,"velocity":0.5590551181102362},{"duration":0.03488372093023173,"midi":98,"time":42.116279069767444,"velocity":0.2204724409448819},{"duration":0.02325581395349019,"midi":52,"time":42.127906976744185,"velocity":0.29133858267716534},{"duration":0.02325581395349019,"midi":64,"time":42.13953488372093,"velocity":0.4015748031496063},{"duration":0.02325581395349019,"midi":37,"time":42.16279069767442,"velocity":0.3858267716535433},{"duration":0.03488372093023173,"midi":62,"time":42.174418604651166,"velocity":0.31496062992125984},{"duration":0.03488372093023173,"midi":81,"time":42.174418604651166,"velocity":0.2283464566929134},{"duration":0.02325581395349019,"midi":36,"time":42.18604651162791,"velocity":0.29133858267716534},{"duration":0.09302325581395365,"midi":73,"time":42.18604651162791,"velocity":0.13385826771653545},{"duration":0.06976744186046346,"midi":77,"time":42.18604651162791,"velocity":0.2047244094488189},{"duration":0.1046511627906952,"midi":79,"time":42.18604651162791,"velocity":0.25196850393700787},{"duration":0.05813953488372192,"midi":86,"time":42.18604651162791,"velocity":0.1889763779527559},{"duration":0.02325581395349019,"midi":48,"time":42.19767441860465,"velocity":0.3543307086614173},{"duration":0.06976744186047057,"midi":71,"time":42.19767441860465,"velocity":0.1889763779527559},{"duration":0.023255813953483084,"midi":40,"time":42.2093023255814,"velocity":0.2992125984251969},{"duration":0.11627906976743674,"midi":56,"time":42.2093023255814,"velocity":0.2755905511811024},{"duration":0.13953488372092693,"midi":61,"time":42.2093023255814,"velocity":0.47244094488188976},{"duration":0.11627906976743674,"midi":65,"time":42.2093023255814,"velocity":0.3779527559055118},{"duration":0.03488372093023173,"midi":75,"time":42.2093023255814,"velocity":0.08661417322834646},{"duration":0.046511627906973274,"midi":82,"time":42.2093023255814,"velocity":0.2125984251968504},{"duration":0.03488372093023173,"midi":49,"time":42.22093023255814,"velocity":0.31496062992125984},{"duration":0.03488372093023173,"midi":37,"time":42.24418604651163,"velocity":0.3858267716535433},{"duration":0.03488372093023173,"midi":37,"time":42.2906976744186,"velocity":0.2755905511811024},{"duration":0.02325581395349019,"midi":50,"time":42.2906976744186,"velocity":0.3228346456692913},{"duration":0.12790697674418539,"midi":72,"time":42.31395348837209,"velocity":0.2677165354330709},{"duration":0.03488372093023173,"midi":80,"time":42.31395348837209,"velocity":0.2204724409448819},{"duration":0.02325581395349019,"midi":82,"time":42.31395348837209,"velocity":0.2440944881889764},{"duration":0.03488372093023173,"midi":83,"time":42.31395348837209,"velocity":0.25196850393700787},{"duration":0.04651162790698038,"midi":90,"time":42.31395348837209,"velocity":0.18110236220472442},{"duration":0.09302325581395365,"midi":91,"time":42.31395348837209,"velocity":0.3779527559055118},{"duration":0.03488372093023173,"midi":93,"time":42.31395348837209,"velocity":0.14960629921259844},{"duration":0.17441860465116577,"midi":94,"time":42.31395348837209,"velocity":0.30708661417322836},{"duration":0.06976744186046346,"midi":97,"time":42.31395348837209,"velocity":0.30708661417322836},{"duration":0.03488372093023173,"midi":100,"time":42.31395348837209,"velocity":0.14173228346456693},{"duration":0.19767441860464885,"midi":101,"time":42.31395348837209,"velocity":0.3700787401574803},{"duration":0.05813953488372192,"midi":102,"time":42.31395348837209,"velocity":0.2204724409448819},{"duration":0.03488372093023884,"midi":47,"time":42.325581395348834,"velocity":0.30708661417322836},{"duration":0.02325581395349019,"midi":57,"time":42.325581395348834,"velocity":0.2992125984251969},{"duration":0.04651162790698038,"midi":70,"time":42.325581395348834,"velocity":0.25984251968503935},{"duration":0.02325581395349019,"midi":76,"time":42.325581395348834,"velocity":0.3937007874015748},{"duration":0.03488372093023884,"midi":85,"time":42.325581395348834,"velocity":0.12598425196850394},{"duration":0.1046511627907023,"midi":87,"time":42.325581395348834,"velocity":0.30708661417322836},{"duration":0.04651162790698038,"midi":96,"time":42.325581395348834,"velocity":0.10236220472440945},{"duration":0.09302325581395365,"midi":99,"time":42.325581395348834,"velocity":0.3858267716535433},{"duration":0.081395348837205,"midi":78,"time":42.33720930232558,"velocity":0.2992125984251969},{"duration":0.046511627906973274,"midi":79,"time":42.33720930232558,"velocity":0.2125984251968504},{"duration":0.03488372093023173,"midi":81,"time":42.33720930232558,"velocity":0.15748031496062992},{"duration":0.04651162790698038,"midi":64,"time":42.348837209302324,"velocity":0.2440944881889764},{"duration":0.06976744186046346,"midi":75,"time":42.348837209302324,"velocity":0.4566929133858268},{"duration":0.06976744186046346,"midi":82,"time":42.348837209302324,"velocity":0.3543307086614173},{"duration":0.06976744186046346,"midi":48,"time":42.36046511627907,"velocity":0.29133858267716534},{"duration":0.03488372093023173,"midi":80,"time":42.372093023255815,"velocity":0.08661417322834646},{"duration":0.04651162790698038,"midi":36,"time":42.383720930232556,"velocity":0.3464566929133858},{"duration":0.05813953488372192,"midi":96,"time":42.383720930232556,"velocity":0.18110236220472442},{"duration":0.03488372093023173,"midi":55,"time":42.395348837209305,"velocity":0.3543307086614173},{"duration":0.08139534883721211,"midi":63,"time":42.41860465116279,"velocity":0.3464566929133858},{"duration":0.03488372093023884,"midi":68,"time":42.41860465116279,"velocity":0.25984251968503935},{"duration":0.03488372093023884,"midi":74,"time":42.41860465116279,"velocity":0.4645669291338583},{"duration":0.02325581395349019,"midi":81,"time":42.41860465116279,"velocity":0.36220472440944884},{"duration":0.046511627906973274,"midi":78,"time":42.43023255813954,"velocity":0.1732283464566929},{"duration":0.03488372093023173,"midi":36,"time":42.44186046511628,"velocity":0.18110236220472442},{"duration":0.06976744186046346,"midi":82,"time":42.44186046511628,"velocity":0.3543307086614173},{"duration":0.04651162790698038,"midi":87,"time":42.44186046511628,"velocity":0.2992125984251969},{"duration":0.09302325581395365,"midi":97,"time":42.44186046511628,"velocity":0.16535433070866143},{"duration":0.046511627906973274,"midi":69,"time":42.45348837209303,"velocity":0.18110236220472442},{"duration":0.046511627906973274,"midi":75,"time":42.45348837209303,"velocity":0.3858267716535433},{"duration":0.32558139534883423,"midi":91,"time":42.45348837209303,"velocity":0.4015748031496063},{"duration":0.04651162790698038,"midi":102,"time":42.47674418604651,"velocity":0.25984251968503935},{"duration":0.03488372093023173,"midi":83,"time":42.48837209302326,"velocity":0.3228346456692913},{"duration":0.03488372093023173,"midi":88,"time":42.48837209302326,"velocity":0.28346456692913385},{"duration":0.03488372093023173,"midi":100,"time":42.48837209302326,"velocity":0.30708661417322836},{"duration":0.03488372093023173,"midi":57,"time":42.5,"velocity":0.25984251968503935},{"duration":0.046511627906973274,"midi":64,"time":42.5,"velocity":0.33858267716535434},{"duration":0.03488372093023173,"midi":68,"time":42.5,"velocity":0.16535433070866143},{"duration":0.04651162790698038,"midi":75,"time":42.51162790697674,"velocity":0.3858267716535433},{"duration":0.03488372093023173,"midi":82,"time":42.52325581395349,"velocity":0.3464566929133858},{"duration":0.03488372093023173,"midi":99,"time":42.52325581395349,"velocity":0.28346456692913385},{"duration":0.2674418604651123,"midi":101,"time":42.52325581395349,"velocity":0.30708661417322836},{"duration":0.05813953488372192,"midi":67,"time":42.53488372093023,"velocity":0.2125984251968504},{"duration":0.06976744186046346,"midi":96,"time":42.53488372093023,"velocity":0.29133858267716534},{"duration":0.04651162790698038,"midi":58,"time":42.54651162790697,"velocity":0.25196850393700787},{"duration":0.03488372093023884,"midi":90,"time":42.54651162790697,"velocity":0.1732283464566929},{"duration":0.05813953488372192,"midi":93,"time":42.54651162790697,"velocity":0.33070866141732286},{"duration":0.04651162790698038,"midi":97,"time":42.54651162790697,"velocity":0.09448818897637795},{"duration":0.05813953488372192,"midi":98,"time":42.54651162790697,"velocity":0.2125984251968504},{"duration":0.05813953488372192,"midi":100,"time":42.54651162790697,"velocity":0.28346456692913385},{"duration":0.06976744186047057,"midi":102,"time":42.54651162790697,"velocity":0.31496062992125984},{"duration":0.046511627906973274,"midi":74,"time":42.55813953488372,"velocity":0.41732283464566927},{"duration":0.06976744186046346,"midi":77,"time":42.55813953488372,"velocity":0.2677165354330709},{"duration":0.05813953488372192,"midi":81,"time":42.55813953488372,"velocity":0.3228346456692913},{"duration":0.02325581395349019,"midi":55,"time":42.56976744186046,"velocity":0.2283464566929134},{"duration":0.03488372093023173,"midi":85,"time":42.56976744186046,"velocity":0.10236220472440945},{"duration":0.058139534883714816,"midi":65,"time":42.58139534883721,"velocity":0.2047244094488189},{"duration":0.046511627906973274,"midi":72,"time":42.58139534883721,"velocity":0.15748031496062992},{"duration":0.17441860465115866,"midi":82,"time":42.58139534883721,"velocity":0.2992125984251969},{"duration":0.19767441860464885,"midi":99,"time":42.58139534883721,"velocity":0.29133858267716534},{"duration":0.09302325581395365,"midi":69,"time":42.593023255813954,"velocity":0.1889763779527559},{"duration":0.02325581395349019,"midi":45,"time":42.604651162790695,"velocity":0.6220472440944882},{"duration":0.2558139534883779,"midi":75,"time":42.604651162790695,"velocity":0.3858267716535433},{"duration":0.1860465116279073,"midi":97,"time":42.604651162790695,"velocity":0.2440944881889764},{"duration":0.011627906976741542,"midi":44,"time":42.627906976744185,"velocity":0.5984251968503937},{"duration":0.02325581395349019,"midi":42,"time":42.63953488372093,"velocity":0.5748031496062992},{"duration":0.03488372093023173,"midi":53,"time":42.674418604651166,"velocity":0.2755905511811024},{"duration":0.03488372093023173,"midi":64,"time":42.674418604651166,"velocity":0.2440944881889764},{"duration":0.046511627906973274,"midi":72,"time":42.674418604651166,"velocity":0.15748031496062992},{"duration":0.06976744186046346,"midi":84,"time":42.674418604651166,"velocity":0.18110236220472442},{"duration":0.03488372093023173,"midi":68,"time":42.68604651162791,"velocity":0.25984251968503935},{"duration":0.08139534883721211,"midi":71,"time":42.69767441860465,"velocity":0.18110236220472442},{"duration":0.06976744186047057,"midi":78,"time":42.69767441860465,"velocity":0.2047244094488189},{"duration":0.09302325581395365,"midi":92,"time":42.69767441860465,"velocity":0.14960629921259844},{"duration":0.12790697674418539,"midi":102,"time":42.69767441860465,"velocity":0.14960629921259844},{"duration":0.023255813953483084,"midi":36,"time":42.7093023255814,"velocity":0.33858267716535434},{"duration":0.046511627906973274,"midi":77,"time":42.7093023255814,"velocity":0.2440944881889764},{"duration":0.023255813953483084,"midi":86,"time":42.7093023255814,"velocity":0.2677165354330709},{"duration":0.03488372093023173,"midi":88,"time":42.7093023255814,"velocity":0.2283464566929134},{"duration":0.03488372093023173,"midi":51,"time":42.72093023255814,"velocity":0.2440944881889764},{"duration":0.03488372093023173,"midi":67,"time":42.72093023255814,"velocity":0.30708661417322836},{"duration":0.05813953488372192,"midi":81,"time":42.72093023255814,"velocity":0.25196850393700787},{"duration":0.06976744186046346,"midi":83,"time":42.72093023255814,"velocity":0.23622047244094488},{"duration":0.08139534883721211,"midi":90,"time":42.72093023255814,"velocity":0.2992125984251969},{"duration":0.06976744186046346,"midi":85,"time":42.74418604651163,"velocity":0.15748031496062992},{"duration":0.02325581395349019,"midi":63,"time":42.75581395348837,"velocity":0.33858267716535434},{"duration":0.02325581395349019,"midi":55,"time":42.77906976744186,"velocity":0.3858267716535433},{"duration":0.046511627906973274,"midi":64,"time":42.77906976744186,"velocity":0.31496062992125984},{"duration":0.06976744186047057,"midi":82,"time":42.7906976744186,"velocity":0.28346456692913385},{"duration":0.04651162790698038,"midi":91,"time":42.7906976744186,"velocity":0.15748031496062992},{"duration":0.02325581395349019,"midi":52,"time":42.825581395348834,"velocity":0.28346456692913385},{"duration":0.06976744186047057,"midi":76,"time":42.825581395348834,"velocity":0.31496062992125984},{"duration":0.05813953488372192,"midi":89,"time":42.825581395348834,"velocity":0.10236220472440945},{"duration":0.13953488372093403,"midi":99,"time":42.825581395348834,"velocity":0.3700787401574803},{"duration":0.02325581395349019,"midi":57,"time":42.83720930232558,"velocity":0.25984251968503935},{"duration":0.02325581395349019,"midi":78,"time":42.83720930232558,"velocity":0.2677165354330709},{"duration":0.19767441860464885,"midi":68,"time":42.848837209302324,"velocity":0.3937007874015748},{"duration":0.6279069767441854,"midi":92,"time":42.848837209302324,"velocity":0.30708661417322836},{"duration":0.03488372093023173,"midi":98,"time":42.848837209302324,"velocity":0.14173228346456693},{"duration":0.04651162790698038,"midi":100,"time":42.848837209302324,"velocity":0.14960629921259844},{"duration":0.05813953488372192,"midi":102,"time":42.848837209302324,"velocity":0.16535433070866143},{"duration":0.023255813953483084,"midi":60,"time":42.86046511627907,"velocity":0.47244094488188976},{"duration":0.023255813953483084,"midi":79,"time":42.86046511627907,"velocity":0.2440944881889764},{"duration":0.081395348837205,"midi":87,"time":42.86046511627907,"velocity":0.25984251968503935},{"duration":0.06976744186046346,"midi":91,"time":42.86046511627907,"velocity":0.25984251968503935},{"duration":0.06976744186046346,"midi":82,"time":42.872093023255815,"velocity":0.2283464566929134},{"duration":0.046511627906973274,"midi":93,"time":42.872093023255815,"velocity":0.07874015748031496},{"duration":0.15116279069767558,"midi":96,"time":42.872093023255815,"velocity":0.2204724409448819},{"duration":0.046511627906973274,"midi":97,"time":42.872093023255815,"velocity":0.14173228346456693},{"duration":0.16279069767441712,"midi":101,"time":42.872093023255815,"velocity":0.18110236220472442},{"duration":0.06976744186047057,"midi":75,"time":42.883720930232556,"velocity":0.3464566929133858},{"duration":0.081395348837205,"midi":63,"time":42.895348837209305,"velocity":0.23622047244094488},{"duration":0.03488372093023173,"midi":98,"time":42.895348837209305,"velocity":0.11023622047244094},{"duration":0.05813953488372192,"midi":90,"time":42.906976744186046,"velocity":0.12598425196850394},{"duration":0.02325581395349019,"midi":55,"time":42.91860465116279,"velocity":0.3858267716535433},{"duration":0.04651162790698038,"midi":53,"time":42.94186046511628,"velocity":0.31496062992125984},{"duration":0.02325581395349019,"midi":75,"time":42.96511627906977,"velocity":0.3464566929133858},{"duration":0.02325581395349019,"midi":76,"time":42.96511627906977,"velocity":0.2283464566929134},{"duration":0.11627906976744384,"midi":91,"time":42.96511627906977,"velocity":0.25196850393700787},{"duration":0.023255813953483084,"midi":74,"time":42.98837209302326,"velocity":0.29133858267716534},{"duration":0.023255813953483084,"midi":77,"time":42.98837209302326,"velocity":0.2283464566929134},{"duration":0.03488372093023173,"midi":82,"time":42.98837209302326,"velocity":0.18110236220472442},{"duration":0.081395348837205,"midi":99,"time":42.98837209302326,"velocity":0.2755905511811024},{"duration":0.02325581395349019,"midi":75,"time":43,"velocity":0.2283464566929134},{"duration":0.03488372093023173,"midi":100,"time":43.01162790697674,"velocity":0.11811023622047244},{"duration":0.04651162790698038,"midi":102,"time":43.01162790697674,"velocity":0.1968503937007874},{"duration":0.05813953488372192,"midi":75,"time":43.03488372093023,"velocity":0.28346456692913385},{"duration":0.04651162790698038,"midi":82,"time":43.04651162790697,"velocity":0.14960629921259844},{"duration":0.03488372093023173,"midi":58,"time":43.06976744186046,"velocity":0.23622047244094488},{"duration":0.09302325581395365,"midi":70,"time":43.06976744186046,"velocity":0.33070866141732286},{"duration":0.1046511627906952,"midi":77,"time":43.08139534883721,"velocity":0.1968503937007874},{"duration":0.02325581395349019,"midi":54,"time":43.093023255813954,"velocity":0.4251968503937008},{"duration":0.046511627906973274,"midi":74,"time":43.093023255813954,"velocity":0.29133858267716534},{"duration":0.05813953488372192,"midi":93,"time":43.093023255813954,"velocity":0.1968503937007874},{"duration":0.13953488372092693,"midi":96,"time":43.093023255813954,"velocity":0.2125984251968504},{"duration":0.11627906976744384,"midi":100,"time":43.093023255813954,"velocity":0.16535433070866143},{"duration":0.02325581395349019,"midi":67,"time":43.104651162790695,"velocity":0.4015748031496063},{"duration":0.12790697674418539,"midi":90,"time":43.104651162790695,"velocity":0.29133858267716534},{"duration":0.05813953488372192,"midi":95,"time":43.104651162790695,"velocity":0.2125984251968504},{"duration":0.05813953488372192,"midi":97,"time":43.104651162790695,"velocity":0.1732283464566929},{"duration":0.09302325581395365,"midi":99,"time":43.104651162790695,"velocity":0.33070866141732286},{"duration":0.8255813953488413,"midi":101,"time":43.104651162790695,"velocity":0.33070866141732286},{"duration":0.03488372093023173,"midi":103,"time":43.104651162790695,"velocity":0.2047244094488189},{"duration":0.03488372093023173,"midi":45,"time":43.116279069767444,"velocity":0.5511811023622047},{"duration":0.011627906976741542,"midi":55,"time":43.116279069767444,"velocity":0.5511811023622047},{"duration":0.023255813953483084,"midi":60,"time":43.116279069767444,"velocity":0.41732283464566927},{"duration":0.16279069767441712,"midi":82,"time":43.116279069767444,"velocity":0.3858267716535433},{"duration":0.03488372093023173,"midi":88,"time":43.116279069767444,"velocity":0.14960629921259844},{"duration":0.03488372093023173,"midi":91,"time":43.116279069767444,"velocity":0.2047244094488189},{"duration":0.22093023255813904,"midi":98,"time":43.116279069767444,"velocity":0.3543307086614173},{"duration":0.011627906976741542,"midi":53,"time":43.127906976744185,"velocity":0.5196850393700787},{"duration":0.09302325581395365,"midi":68,"time":43.127906976744185,"velocity":0.4409448818897638},{"duration":0.04651162790698038,"midi":83,"time":43.127906976744185,"velocity":0.1968503937007874},{"duration":0.06976744186046346,"midi":87,"time":43.127906976744185,"velocity":0.2125984251968504},{"duration":0.05813953488372192,"midi":75,"time":43.13953488372093,"velocity":0.4330708661417323},{"duration":0.011627906976741542,"midi":44,"time":43.151162790697676,"velocity":0.5826771653543307},{"duration":0.011627906976748648,"midi":43,"time":43.16279069767442,"velocity":0.5511811023622047},{"duration":0.11627906976744384,"midi":89,"time":43.16279069767442,"velocity":0.25196850393700787},{"duration":0.03488372093023173,"midi":91,"time":43.16279069767442,"velocity":0.07086614173228346},{"duration":0.011627906976741542,"midi":42,"time":43.174418604651166,"velocity":0.5196850393700787},{"duration":0.09302325581395365,"midi":84,"time":43.174418604651166,"velocity":0.15748031496062992},{"duration":0.046511627906973274,"midi":97,"time":43.174418604651166,"velocity":0.15748031496062992},{"duration":0.05813953488372192,"midi":76,"time":43.18604651162791,"velocity":0.30708661417322836},{"duration":0.04651162790698038,"midi":103,"time":43.19767441860465,"velocity":0.14960629921259844},{"duration":0.16279069767441712,"midi":77,"time":43.2093023255814,"velocity":0.4330708661417323},{"duration":0.03488372093023173,"midi":86,"time":43.2093023255814,"velocity":0.1968503937007874},{"duration":0.081395348837205,"midi":91,"time":43.2093023255814,"velocity":0.1889763779527559},{"duration":0.02325581395349019,"midi":37,"time":43.22093023255814,"velocity":0.36220472440944884},{"duration":0.02325581395349019,"midi":73,"time":43.22093023255814,"velocity":0.2283464566929134},{"duration":0.09302325581395365,"midi":85,"time":43.22093023255814,"velocity":0.2440944881889764},{"duration":0.05813953488372192,"midi":87,"time":43.22093023255814,"velocity":0.2755905511811024},{"duration":0.02325581395349019,"midi":50,"time":43.23255813953488,"velocity":0.28346456692913385},{"duration":0.05813953488372192,"midi":75,"time":43.23255813953488,"velocity":0.3464566929133858},{"duration":0.11627906976744384,"midi":80,"time":43.23255813953488,"velocity":0.1889763779527559},{"duration":0.08139534883721211,"midi":95,"time":43.23255813953488,"velocity":0.12598425196850394},{"duration":0.2558139534883779,"midi":97,"time":43.23255813953488,"velocity":0.33070866141732286},{"duration":0.02325581395349019,"midi":36,"time":43.24418604651163,"velocity":0.28346456692913385},{"duration":0.046511627906973274,"midi":57,"time":43.24418604651163,"velocity":0.48031496062992124},{"duration":0.02325581395349019,"midi":68,"time":43.24418604651163,"velocity":0.25196850393700787},{"duration":0.1046511627906952,"midi":102,"time":43.24418604651163,"velocity":0.15748031496062992},{"duration":0.11627906976744384,"midi":70,"time":43.25581395348837,"velocity":0.4645669291338583},{"duration":0.13953488372093403,"midi":86,"time":43.25581395348837,"velocity":0.3464566929133858},{"duration":0.15116279069767558,"midi":96,"time":43.25581395348837,"velocity":0.28346456692913385},{"duration":0.023255813953483084,"midi":61,"time":43.26744186046512,"velocity":0.30708661417322836},{"duration":0.03488372093023173,"midi":53,"time":43.27906976744186,"velocity":0.3700787401574803},{"duration":0.12790697674418539,"midi":94,"time":43.27906976744186,"velocity":0.1889763779527559},{"duration":0.03488372093023173,"midi":58,"time":43.2906976744186,"velocity":0.36220472440944884},{"duration":0.02325581395349019,"midi":51,"time":43.31395348837209,"velocity":0.36220472440944884},{"duration":0.03488372093023173,"midi":64,"time":43.31395348837209,"velocity":0.08661417322834646},{"duration":0.06976744186046346,"midi":81,"time":43.31395348837209,"velocity":0.14173228346456693},{"duration":0.1046511627907023,"midi":85,"time":43.325581395348834,"velocity":0.4645669291338583},{"duration":0.05813953488372192,"midi":95,"time":43.325581395348834,"velocity":0.12598425196850394},{"duration":0.02325581395349019,"midi":56,"time":43.33720930232558,"velocity":0.36220472440944884},{"duration":0.06976744186046346,"midi":75,"time":43.33720930232558,"velocity":0.3779527559055118},{"duration":0.03488372093023173,"midi":48,"time":43.348837209302324,"velocity":0.25196850393700787},{"duration":0.06976744186046346,"midi":93,"time":43.36046511627907,"velocity":0.15748031496062992},{"duration":0.05813953488372192,"midi":73,"time":43.372093023255815,"velocity":0.5433070866141733},{"duration":0.046511627906973274,"midi":88,"time":43.372093023255815,"velocity":0.3700787401574803},{"duration":0.22093023255813904,"midi":102,"time":43.372093023255815,"velocity":0.36220472440944884},{"duration":0.02325581395349019,"midi":57,"time":43.383720930232556,"velocity":0.4015748031496063},{"duration":0.05813953488372192,"midi":70,"time":43.383720930232556,"velocity":0.29133858267716534},{"duration":0.04651162790698038,"midi":78,"time":43.383720930232556,"velocity":0.2047244094488189},{"duration":0.05813953488372192,"midi":80,"time":43.383720930232556,"velocity":0.30708661417322836},{"duration":0.08139534883721211,"midi":91,"time":43.383720930232556,"velocity":0.15748031496062992},{"duration":0.1046511627907023,"midi":99,"time":43.383720930232556,"velocity":0.3228346456692913},{"duration":0.03488372093023173,"midi":60,"time":43.395348837209305,"velocity":0.33858267716535434},{"duration":0.03488372093023173,"midi":40,"time":43.406976744186046,"velocity":0.33070866141732286},{"duration":0.08139534883721211,"midi":68,"time":43.406976744186046,"velocity":0.25984251968503935},{"duration":0.05813953488372192,"midi":89,"time":43.406976744186046,"velocity":0.1968503937007874},{"duration":0.12790697674418539,"midi":77,"time":43.41860465116279,"velocity":0.25984251968503935},{"duration":0.19767441860465595,"midi":94,"time":43.41860465116279,"velocity":0.2283464566929134},{"duration":0.046511627906973274,"midi":72,"time":43.43023255813954,"velocity":0.5196850393700787},{"duration":0.15116279069767558,"midi":100,"time":43.43023255813954,"velocity":0.30708661417322836},{"duration":0.12790697674418539,"midi":103,"time":43.43023255813954,"velocity":0.2755905511811024},{"duration":0.03488372093023173,"midi":88,"time":43.44186046511628,"velocity":0.25196850393700787},{"duration":0.03488372093023173,"midi":59,"time":43.45348837209303,"velocity":0.41732283464566927},{"duration":0.03488372093023173,"midi":76,"time":43.45348837209303,"velocity":0.1889763779527559},{"duration":0.09302325581394655,"midi":86,"time":43.45348837209303,"velocity":0.25196850393700787},{"duration":0.06976744186046346,"midi":90,"time":43.45348837209303,"velocity":0.36220472440944884},{"duration":0.02325581395349019,"midi":49,"time":43.46511627906977,"velocity":0.3937007874015748},{"duration":0.02325581395349019,"midi":70,"time":43.46511627906977,"velocity":0.3700787401574803},{"duration":0.023255813953483084,"midi":48,"time":43.48837209302326,"velocity":0.33070866141732286},{"duration":0.023255813953483084,"midi":53,"time":43.48837209302326,"velocity":0.28346456692913385},{"duration":0.023255813953483084,"midi":58,"time":43.48837209302326,"velocity":0.4409448818897638},{"duration":0.023255813953483084,"midi":71,"time":43.48837209302326,"velocity":0.3700787401574803},{"duration":0.17441860465115866,"midi":85,"time":43.48837209302326,"velocity":0.33858267716535434},{"duration":0.03488372093023173,"midi":87,"time":43.48837209302326,"velocity":0.11811023622047244},{"duration":0.03488372093023173,"midi":29,"time":43.5,"velocity":0.2283464566929134},{"duration":0.06976744186046346,"midi":81,"time":43.5,"velocity":0.2204724409448819},{"duration":0.17441860465116577,"midi":89,"time":43.5,"velocity":0.36220472440944884},{"duration":0.09302325581395365,"midi":99,"time":43.5,"velocity":0.1732283464566929},{"duration":0.06976744186047057,"midi":70,"time":43.51162790697674,"velocity":0.4094488188976378},{"duration":0.04651162790698038,"midi":73,"time":43.51162790697674,"velocity":0.3700787401574803},{"duration":0.12790697674418539,"midi":80,"time":43.51162790697674,"velocity":0.25196850393700787},{"duration":0.13953488372093403,"midi":88,"time":43.51162790697674,"velocity":0.1889763779527559},{"duration":0.17441860465116577,"midi":92,"time":43.51162790697674,"velocity":0.28346456692913385},{"duration":0.09302325581395365,"midi":95,"time":43.51162790697674,"velocity":0.2283464566929134},{"duration":0.1046511627906952,"midi":61,"time":43.53488372093023,"velocity":0.3464566929133858},{"duration":0.05813953488372192,"midi":90,"time":43.53488372093023,"velocity":0.1889763779527559},{"duration":0.05813953488372192,"midi":91,"time":43.53488372093023,"velocity":0.14173228346456693},{"duration":0.03488372093023173,"midi":66,"time":43.55813953488372,"velocity":0.1968503937007874},{"duration":0.08139534883721211,"midi":73,"time":43.56976744186046,"velocity":0.3937007874015748},{"duration":0.03488372093023173,"midi":75,"time":43.56976744186046,"velocity":0.2440944881889764},{"duration":0.03488372093023173,"midi":103,"time":43.56976744186046,"velocity":0.23622047244094488},{"duration":0.023255813953483084,"midi":45,"time":43.58139534883721,"velocity":0.28346456692913385},{"duration":0.03488372093023173,"midi":55,"time":43.58139534883721,"velocity":0.2992125984251969},{"duration":0.058139534883714816,"midi":68,"time":43.58139534883721,"velocity":0.18110236220472442},{"duration":0.046511627906973274,"midi":33,"time":43.593023255813954,"velocity":0.2992125984251969},{"duration":0.12790697674418539,"midi":102,"time":43.604651162790695,"velocity":0.2677165354330709},{"duration":0.03488372093023173,"midi":94,"time":43.627906976744185,"velocity":0.13385826771653545},{"duration":0.3488372093023244,"midi":96,"time":43.627906976744185,"velocity":0.36220472440944884},{"duration":0.06976744186046346,"midi":100,"time":43.627906976744185,"velocity":0.3228346456692913},{"duration":0.02325581395349019,"midi":64,"time":43.63953488372093,"velocity":0.5118110236220472},{"duration":0.04651162790698038,"midi":69,"time":43.63953488372093,"velocity":0.2992125984251969},{"duration":0.7093023255813975,"midi":93,"time":43.63953488372093,"velocity":0.5590551181102362},{"duration":0.04651162790698038,"midi":95,"time":43.63953488372093,"velocity":0.29133858267716534},{"duration":0.5,"midi":99,"time":43.63953488372093,"velocity":0.3779527559055118},{"duration":0.02325581395349019,"midi":56,"time":43.651162790697676,"velocity":0.3228346456692913},{"duration":0.09302325581395365,"midi":98,"time":43.651162790697676,"velocity":0.1889763779527559},{"duration":0.03488372093023173,"midi":65,"time":43.66279069767442,"velocity":0.5275590551181102},{"duration":0.04651162790698038,"midi":84,"time":43.66279069767442,"velocity":0.15748031496062992},{"duration":0.011627906976741542,"midi":45,"time":43.674418604651166,"velocity":0.5826771653543307},{"duration":0.058139534883714816,"midi":73,"time":43.674418604651166,"velocity":0.36220472440944884},{"duration":0.2906976744186025,"midi":103,"time":43.674418604651166,"velocity":0.30708661417322836},{"duration":0.011627906976741542,"midi":44,"time":43.68604651162791,"velocity":0.5826771653543307},{"duration":0.02325581395349019,"midi":68,"time":43.68604651162791,"velocity":0.2992125984251969},{"duration":0.7674418604651194,"midi":89,"time":43.68604651162791,"velocity":0.3937007874015748},{"duration":0.011627906976748648,"midi":43,"time":43.69767441860465,"velocity":0.5354330708661418},{"duration":0.03488372093023173,"midi":58,"time":43.69767441860465,"velocity":0.23622047244094488},{"duration":0.1046511627907023,"midi":70,"time":43.69767441860465,"velocity":0.3858267716535433},{"duration":0.05813953488372192,"midi":94,"time":43.69767441860465,"velocity":0.08661417322834646},{"duration":0.03488372093023173,"midi":65,"time":43.7093023255814,"velocity":0.3937007874015748},{"duration":0.1046511627906952,"midi":61,"time":43.72093023255814,"velocity":0.33070866141732286},{"duration":0.04651162790698038,"midi":68,"time":43.72093023255814,"velocity":0.4251968503937008},{"duration":0.17441860465116577,"midi":97,"time":43.73255813953488,"velocity":0.2440944881889764},{"duration":0.03488372093023173,"midi":45,"time":43.74418604651163,"velocity":0.2125984251968504},{"duration":0.3372093023255829,"midi":73,"time":43.74418604651163,"velocity":0.3700787401574803},{"duration":0.05813953488372192,"midi":84,"time":43.74418604651163,"velocity":0.2440944881889764},{"duration":0.16279069767441712,"midi":95,"time":43.75581395348837,"velocity":0.2047244094488189},{"duration":0.058139534883714816,"midi":67,"time":43.76744186046512,"velocity":0.4330708661417323},{"duration":0.02325581395349019,"midi":53,"time":43.77906976744186,"velocity":0.2440944881889764},{"duration":0.06976744186046346,"midi":98,"time":43.80232558139535,"velocity":0.15748031496062992},{"duration":0.09302325581395365,"midi":84,"time":43.81395348837209,"velocity":0.1732283464566929},{"duration":0.046511627906973274,"midi":65,"time":43.83720930232558,"velocity":0.47244094488188976},{"duration":0.02325581395349019,"midi":68,"time":43.83720930232558,"velocity":0.29133858267716534},{"duration":0.03488372093023173,"midi":47,"time":43.848837209302324,"velocity":0.09448818897637795},{"duration":0.04651162790698038,"midi":58,"time":43.848837209302324,"velocity":0.13385826771653545},{"duration":0.22093023255813904,"midi":82,"time":43.848837209302324,"velocity":0.25984251968503935},{"duration":0.06976744186046346,"midi":67,"time":43.86046511627907,"velocity":0.33858267716535434},{"duration":0.27906976744186096,"midi":61,"time":43.883720930232556,"velocity":0.3779527559055118},{"duration":0.03488372093023173,"midi":83,"time":43.895348837209305,"velocity":0.1889763779527559},{"duration":0.05813953488372192,"midi":76,"time":43.906976744186046,"velocity":0.1968503937007874},{"duration":0.02325581395349019,"midi":45,"time":43.91860465116279,"velocity":0.2440944881889764},{"duration":0.02325581395349019,"midi":51,"time":43.91860465116279,"velocity":0.2440944881889764},{"duration":0.02325581395349019,"midi":69,"time":43.91860465116279,"velocity":0.33070866141732286},{"duration":0.08139534883721211,"midi":84,"time":43.91860465116279,"velocity":0.1732283464566929},{"duration":0.8604651162790731,"midi":97,"time":43.91860465116279,"velocity":0.2755905511811024},{"duration":0.046511627906973274,"midi":78,"time":43.93023255813954,"velocity":0.11023622047244094},{"duration":0.058139534883714816,"midi":67,"time":43.95348837209303,"velocity":0.4251968503937008},{"duration":0.02325581395349019,"midi":39,"time":43.97674418604651,"velocity":0.30708661417322836},{"duration":0.1046511627907023,"midi":77,"time":43.97674418604651,"velocity":0.2677165354330709},{"duration":0.06976744186046346,"midi":80,"time":43.97674418604651,"velocity":0.1889763779527559},{"duration":0.11627906976744384,"midi":95,"time":43.97674418604651,"velocity":0.1732283464566929},{"duration":0.05813953488372192,"midi":70,"time":44,"velocity":0.33070866141732286},{"duration":0.03488372093023173,"midi":68,"time":44.01162790697674,"velocity":0.44881889763779526},{"duration":0.081395348837205,"midi":102,"time":44.02325581395349,"velocity":0.2283464566929134},{"duration":0.5697674418604635,"midi":103,"time":44.02325581395349,"velocity":0.36220472440944884},{"duration":0.03488372093023173,"midi":87,"time":44.03488372093023,"velocity":0.14960629921259844},{"duration":0.06976744186046346,"midi":92,"time":44.03488372093023,"velocity":0.31496062992125984},{"duration":0.06976744186046346,"midi":98,"time":44.03488372093023,"velocity":0.18110236220472442},{"duration":0.04651162790698038,"midi":100,"time":44.03488372093023,"velocity":0.33858267716535434},{"duration":0.13953488372093403,"midi":65,"time":44.04651162790697,"velocity":0.6141732283464567},{"duration":0.04651162790698038,"midi":81,"time":44.04651162790697,"velocity":0.2125984251968504},{"duration":0.40697674418604635,"midi":96,"time":44.05813953488372,"velocity":0.4015748031496063},{"duration":0.046511627906973274,"midi":74,"time":44.08139534883721,"velocity":0.30708661417322836},{"duration":0.03488372093023173,"midi":84,"time":44.08139534883721,"velocity":0.13385826771653545},{"duration":0.08139534883721211,"midi":68,"time":44.093023255813954,"velocity":0.4251968503937008},{"duration":0.02325581395349019,"midi":70,"time":44.093023255813954,"velocity":0.3228346456692913},{"duration":0.06976744186046346,"midi":85,"time":44.116279069767444,"velocity":0.23622047244094488},{"duration":0.02325581395349019,"midi":70,"time":44.127906976744185,"velocity":0.25984251968503935},{"duration":0.22093023255813904,"midi":73,"time":44.127906976744185,"velocity":0.3779527559055118},{"duration":0.30232558139535115,"midi":84,"time":44.127906976744185,"velocity":0.48031496062992124},{"duration":0.08139534883721211,"midi":98,"time":44.13953488372093,"velocity":0.10236220472440945},{"duration":0.03488372093023173,"midi":70,"time":44.16279069767442,"velocity":0.2677165354330709},{"duration":0.08139534883721211,"midi":88,"time":44.16279069767442,"velocity":0.1968503937007874},{"duration":0.04651162790698038,"midi":92,"time":44.16279069767442,"velocity":0.2047244094488189},{"duration":0.1046511627907023,"midi":102,"time":44.16279069767442,"velocity":0.15748031496062992},{"duration":0.023255813953483084,"midi":60,"time":44.174418604651166,"velocity":0.3937007874015748},{"duration":0.058139534883714816,"midi":83,"time":44.174418604651166,"velocity":0.18110236220472442},{"duration":0.06976744186046346,"midi":94,"time":44.174418604651166,"velocity":0.15748031496062992},{"duration":0.02325581395349019,"midi":45,"time":44.18604651162791,"velocity":0.5511811023622047},{"duration":0.05813953488372192,"midi":90,"time":44.18604651162791,"velocity":0.23622047244094488},{"duration":0.06976744186047057,"midi":61,"time":44.19767441860465,"velocity":0.2677165354330709},{"duration":0.11627906976744384,"midi":65,"time":44.19767441860465,"velocity":0.5354330708661418},{"duration":0.011627906976741542,"midi":44,"time":44.2093023255814,"velocity":0.5748031496062992},{"duration":0.046511627906973274,"midi":82,"time":44.2093023255814,"velocity":0.1889763779527559},{"duration":0.011627906976741542,"midi":43,"time":44.22093023255814,"velocity":0.5590551181102362},{"duration":0.03488372093023173,"midi":70,"time":44.22093023255814,"velocity":0.2440944881889764},{"duration":0.03488372093023173,"midi":75,"time":44.22093023255814,"velocity":0.09448818897637795},{"duration":0.011627906976748648,"midi":42,"time":44.23255813953488,"velocity":0.5354330708661418},{"duration":0.02325581395349019,"midi":51,"time":44.23255813953488,"velocity":0.28346456692913385},{"duration":0.03488372093023173,"midi":58,"time":44.24418604651163,"velocity":0.13385826771653545},{"duration":0.03488372093023173,"midi":68,"time":44.24418604651163,"velocity":0.3543307086614173},{"duration":0.12790697674418539,"midi":92,"time":44.24418604651163,"velocity":0.1732283464566929},{"duration":0.02325581395349019,"midi":53,"time":44.25581395348837,"velocity":0.2755905511811024},{"duration":0.081395348837205,"midi":70,"time":44.26744186046512,"velocity":0.33070866141732286},{"duration":0.058139534883714816,"midi":88,"time":44.26744186046512,"velocity":0.10236220472440945},{"duration":0.03488372093023173,"midi":95,"time":44.26744186046512,"velocity":0.08661417322834646},{"duration":0.058139534883714816,"midi":99,"time":44.26744186046512,"velocity":0.09448818897637795},{"duration":0.02325581395349019,"midi":37,"time":44.27906976744186,"velocity":0.3700787401574803},{"duration":0.05813953488372192,"midi":61,"time":44.27906976744186,"velocity":0.25196850393700787},{"duration":0.03488372093023173,"midi":91,"time":44.27906976744186,"velocity":0.08661417322834646},{"duration":0.2325581395348877,"midi":68,"time":44.2906976744186,"velocity":0.4094488188976378},{"duration":0.05813953488372192,"midi":90,"time":44.2906976744186,"velocity":0.1889763779527559},{"duration":0.081395348837205,"midi":48,"time":44.30232558139535,"velocity":0.33070866141732286},{"duration":0.12790697674418539,"midi":55,"time":44.31395348837209,"velocity":0.2992125984251969},{"duration":0.03488372093023173,"midi":81,"time":44.31395348837209,"velocity":0.23622047244094488},{"duration":0.1046511627906952,"midi":87,"time":44.31395348837209,"velocity":0.15748031496062992},{"duration":0.02325581395349019,"midi":40,"time":44.325581395348834,"velocity":0.25984251968503935},{"duration":0.08139534883721211,"midi":65,"time":44.325581395348834,"velocity":0.5826771653543307},{"duration":0.046511627906973274,"midi":36,"time":44.36046511627907,"velocity":0.3228346456692913},{"duration":0.03488372093023173,"midi":61,"time":44.36046511627907,"velocity":0.29133858267716534},{"duration":0.081395348837205,"midi":73,"time":44.36046511627907,"velocity":0.3700787401574803},{"duration":0.05813953488372192,"midi":92,"time":44.395348837209305,"velocity":0.13385826771653545},{"duration":0.06976744186046346,"midi":102,"time":44.395348837209305,"velocity":0.14960629921259844},{"duration":0.02325581395349019,"midi":64,"time":44.406976744186046,"velocity":0.5748031496062992},{"duration":0.04651162790698038,"midi":83,"time":44.406976744186046,"velocity":0.4881889763779528},{"duration":0.05813953488372192,"midi":98,"time":44.406976744186046,"velocity":0.2125984251968504},{"duration":0.09302325581395365,"midi":93,"time":44.41860465116279,"velocity":0.1889763779527559},{"duration":1.1046511627907023,"midi":99,"time":44.41860465116279,"velocity":0.36220472440944884},{"duration":0.081395348837205,"midi":63,"time":44.43023255813954,"velocity":0.5196850393700787},{"duration":0.2674418604651123,"midi":72,"time":44.43023255813954,"velocity":0.30708661417322836},{"duration":0.03488372093023173,"midi":77,"time":44.43023255813954,"velocity":0.16535433070866143},{"duration":0.046511627906973274,"midi":90,"time":44.43023255813954,"velocity":0.14960629921259844},{"duration":0.13953488372092693,"midi":91,"time":44.43023255813954,"velocity":0.25984251968503935},{"duration":0.09302325581395365,"midi":53,"time":44.44186046511628,"velocity":0.2755905511811024},{"duration":0.06976744186046346,"midi":79,"time":44.44186046511628,"velocity":0.18110236220472442},{"duration":0.1046511627906952,"midi":81,"time":44.44186046511628,"velocity":0.44881889763779526},{"duration":0.32558139534884134,"midi":87,"time":44.44186046511628,"velocity":0.5511811023622047},{"duration":0.30232558139535115,"midi":94,"time":44.44186046511628,"velocity":0.2677165354330709},{"duration":0.023255813953483084,"midi":45,"time":44.45348837209303,"velocity":0.33070866141732286},{"duration":0.023255813953483084,"midi":76,"time":44.45348837209303,"velocity":0.3937007874015748},{"duration":0.17441860465115866,"midi":82,"time":44.45348837209303,"velocity":0.48031496062992124},{"duration":0.13953488372093403,"midi":46,"time":44.47674418604651,"velocity":0.25984251968503935},{"duration":0.4534883720930267,"midi":75,"time":44.47674418604651,"velocity":0.5748031496062992},{"duration":0.05813953488372192,"midi":77,"time":44.47674418604651,"velocity":0.2283464566929134},{"duration":0.03488372093023173,"midi":85,"time":44.47674418604651,"velocity":0.36220472440944884},{"duration":0.04651162790698038,"midi":92,"time":44.47674418604651,"velocity":0.18110236220472442},{"duration":0.13953488372092693,"midi":84,"time":44.5,"velocity":0.4251968503937008},{"duration":0.046511627906973274,"midi":102,"time":44.5,"velocity":0.14173228346456693},{"duration":0.06976744186047057,"midi":34,"time":44.51162790697674,"velocity":0.2992125984251969},{"duration":0.03488372093023173,"midi":90,"time":44.51162790697674,"velocity":0.12598425196850394},{"duration":0.11627906976744384,"midi":68,"time":44.53488372093023,"velocity":0.3464566929133858},{"duration":0.09302325581395365,"midi":80,"time":44.53488372093023,"velocity":0.36220472440944884},{"duration":0.03488372093023884,"midi":63,"time":44.54651162790697,"velocity":0.29133858267716534},{"duration":0.04651162790698038,"midi":65,"time":44.56976744186046,"velocity":0.33070866141732286},{"duration":0.30232558139535115,"midi":91,"time":44.593023255813954,"velocity":0.1968503937007874},{"duration":0.06976744186046346,"midi":81,"time":44.616279069767444,"velocity":0.30708661417322836},{"duration":0.03488372093023173,"midi":63,"time":44.627906976744185,"velocity":0.3779527559055118},{"duration":0.03488372093023173,"midi":83,"time":44.627906976744185,"velocity":0.33070866141732286},{"duration":0.11627906976744384,"midi":103,"time":44.63953488372093,"velocity":0.2677165354330709},{"duration":0.02325581395349019,"midi":82,"time":44.651162790697676,"velocity":0.2440944881889764},{"duration":0.046511627906973274,"midi":92,"time":44.651162790697676,"velocity":0.18110236220472442},{"duration":0.03488372093023173,"midi":60,"time":44.66279069767442,"velocity":0.1889763779527559},{"duration":0.03488372093023173,"midi":68,"time":44.66279069767442,"velocity":0.31496062992125984},{"duration":0.15116279069767558,"midi":63,"time":44.68604651162791,"velocity":0.3700787401574803},{"duration":0.03488372093023173,"midi":82,"time":44.68604651162791,"velocity":0.3464566929133858},{"duration":0.02325581395349019,"midi":69,"time":44.69767441860465,"velocity":0.2283464566929134},{"duration":0.08139534883721211,"midi":78,"time":44.69767441860465,"velocity":0.11811023622047244},{"duration":0.05813953488372192,"midi":86,"time":44.69767441860465,"velocity":0.2047244094488189},{"duration":0.03488372093023173,"midi":89,"time":44.69767441860465,"velocity":0.2047244094488189},{"duration":0.05813953488372192,"midi":95,"time":44.69767441860465,"velocity":0.1732283464566929},{"duration":0.04651162790698038,"midi":102,"time":44.69767441860465,"velocity":0.25196850393700787},{"duration":0.011627906976741542,"midi":46,"time":44.72093023255814,"velocity":0.5196850393700787},{"duration":0.09302325581395365,"midi":56,"time":44.72093023255814,"velocity":0.2204724409448819},{"duration":0.05813953488372192,"midi":68,"time":44.72093023255814,"velocity":0.2677165354330709},{"duration":0.04651162790698038,"midi":83,"time":44.72093023255814,"velocity":0.28346456692913385},{"duration":0.011627906976748648,"midi":45,"time":44.73255813953488,"velocity":0.5748031496062992},{"duration":0.2558139534883779,"midi":72,"time":44.73255813953488,"velocity":0.3464566929133858},{"duration":0.011627906976741542,"midi":43,"time":44.74418604651163,"velocity":0.5669291338582677},{"duration":0.046511627906973274,"midi":81,"time":44.74418604651163,"velocity":0.18110236220472442},{"duration":0.24418604651162923,"midi":82,"time":44.74418604651163,"velocity":0.4409448818897638},{"duration":0.02325581395349019,"midi":42,"time":44.75581395348837,"velocity":0.5590551181102362},{"duration":0.09302325581395365,"midi":60,"time":44.75581395348837,"velocity":0.2677165354330709},{"duration":0.1046511627906952,"midi":51,"time":44.76744186046512,"velocity":0.25984251968503935},{"duration":0.17441860465116577,"midi":101,"time":44.77906976744186,"velocity":0.1889763779527559},{"duration":0.09302325581395365,"midi":97,"time":44.7906976744186,"velocity":0.13385826771653545},{"duration":0.023255813953483084,"midi":68,"time":44.80232558139535,"velocity":0.25196850393700787},{"duration":0.03488372093023173,"midi":81,"time":44.80232558139535,"velocity":0.16535433070866143},{"duration":0.023255813953483084,"midi":88,"time":44.80232558139535,"velocity":0.3937007874015748},{"duration":0.02325581395349019,"midi":35,"time":44.825581395348834,"velocity":0.3779527559055118},{"duration":0.13953488372092693,"midi":68,"time":44.83720930232558,"velocity":0.4251968503937008},{"duration":0.05813953488372192,"midi":81,"time":44.848837209302324,"velocity":0.1889763779527559},{"duration":0.11627906976743674,"midi":63,"time":44.86046511627907,"velocity":0.36220472440944884},{"duration":0.03488372093023173,"midi":88,"time":44.895348837209305,"velocity":0.2047244094488189},{"duration":0.04651162790698038,"midi":60,"time":44.906976744186046,"velocity":0.1968503937007874},{"duration":0.03488372093023173,"midi":97,"time":44.906976744186046,"velocity":0.15748031496062992},{"duration":0.03488372093023173,"midi":76,"time":44.93023255813954,"velocity":0.3228346456692913},{"duration":0.13953488372093403,"midi":81,"time":44.94186046511628,"velocity":0.2755905511811024},{"duration":0.03488372093023173,"midi":77,"time":44.95348837209303,"velocity":0.2283464566929134},{"duration":0.058139534883714816,"midi":86,"time":44.95348837209303,"velocity":0.2125984251968504},{"duration":0.03488372093023173,"midi":100,"time":44.95348837209303,"velocity":0.12598425196850394},{"duration":0.15116279069767558,"midi":51,"time":44.96511627906977,"velocity":0.2992125984251969},{"duration":0.02325581395349019,"midi":57,"time":44.96511627906977,"velocity":0.2440944881889764},{"duration":0.25581395348837077,"midi":75,"time":44.96511627906977,"velocity":0.4409448818897638},{"duration":0.04651162790698038,"midi":78,"time":44.97674418604651,"velocity":0.18110236220472442},{"duration":0.1046511627906952,"midi":56,"time":44.98837209302326,"velocity":0.23622047244094488},{"duration":0.06976744186046346,"midi":60,"time":44.98837209302326,"velocity":0.2755905511811024},{"duration":0.15116279069766847,"midi":68,"time":44.98837209302326,"velocity":0.4409448818897638},{"duration":0.058139534883714816,"midi":79,"time":44.98837209302326,"velocity":0.15748031496062992},{"duration":0.08139534883721211,"midi":44,"time":45,"velocity":0.36220472440944884},{"duration":0.03488372093023173,"midi":77,"time":45,"velocity":0.11811023622047244},{"duration":0.16279069767442422,"midi":82,"time":45.01162790697674,"velocity":0.18110236220472442},{"duration":0.03488372093023173,"midi":85,"time":45.01162790697674,"velocity":0.16535433070866143},{"duration":0.3372093023255829,"midi":72,"time":45.02325581395349,"velocity":0.3464566929133858},{"duration":0.05813953488372192,"midi":63,"time":45.04651162790697,"velocity":0.2992125984251969},{"duration":0.05813953488372192,"midi":97,"time":45.04651162790697,"velocity":0.11023622047244094},{"duration":0.1046511627906952,"midi":32,"time":45.05813953488372,"velocity":0.3464566929133858},{"duration":0.03488372093023173,"midi":91,"time":45.08139534883721,"velocity":0.11023622047244094},{"duration":0.09302325581395365,"midi":60,"time":45.116279069767444,"velocity":0.16535433070866143},{"duration":0.03488372093023173,"midi":81,"time":45.116279069767444,"velocity":0.09448818897637795},{"duration":0.09302325581395365,"midi":63,"time":45.127906976744185,"velocity":0.2992125984251969},{"duration":0.05813953488372192,"midi":80,"time":45.151162790697676,"velocity":0.2204724409448819},{"duration":0.11627906976744384,"midi":68,"time":45.16279069767442,"velocity":0.4409448818897638},{"duration":0.2325581395348877,"midi":97,"time":45.16279069767442,"velocity":0.2440944881889764},{"duration":0.08139534883721211,"midi":82,"time":45.18604651162791,"velocity":0.15748031496062992},{"duration":0.046511627906973274,"midi":55,"time":45.2093023255814,"velocity":0.5511811023622047},{"duration":0.023255813953483084,"midi":61,"time":45.2093023255814,"velocity":0.4015748031496063},{"duration":0.03488372093023173,"midi":77,"time":45.22093023255814,"velocity":0.11811023622047244},{"duration":0.06976744186046346,"midi":83,"time":45.22093023255814,"velocity":0.2047244094488189},{"duration":0.12790697674418539,"midi":90,"time":45.22093023255814,"velocity":0.30708661417322836},{"duration":0.06976744186046346,"midi":92,"time":45.22093023255814,"velocity":0.2204724409448819},{"duration":0.05813953488372192,"midi":93,"time":45.22093023255814,"velocity":0.16535433070866143},{"duration":0.30232558139535115,"midi":98,"time":45.22093023255814,"velocity":0.31496062992125984},{"duration":0.06976744186046346,"midi":100,"time":45.22093023255814,"velocity":0.1732283464566929},{"duration":0.03488372093023173,"midi":103,"time":45.22093023255814,"velocity":0.15748031496062992},{"duration":0.03488372093023884,"midi":45,"time":45.23255813953488,"velocity":0.5826771653543307},{"duration":0.02325581395349019,"midi":62,"time":45.23255813953488,"velocity":0.3779527559055118},{"duration":0.09302325581395365,"midi":94,"time":45.23255813953488,"velocity":0.1732283464566929},{"duration":0.04651162790698038,"midi":96,"time":45.23255813953488,"velocity":0.16535433070866143},{"duration":0.04651162790698038,"midi":101,"time":45.23255813953488,"velocity":0.2047244094488189},{"duration":0.2093023255813975,"midi":75,"time":45.24418604651163,"velocity":0.4409448818897638},{"duration":0.05813953488372192,"midi":88,"time":45.24418604651163,"velocity":0.2047244094488189},{"duration":0.02325581395349019,"midi":89,"time":45.24418604651163,"velocity":0.2992125984251969},{"duration":0.06976744186046346,"midi":56,"time":45.25581395348837,"velocity":0.41732283464566927},{"duration":0.2093023255813975,"midi":63,"time":45.25581395348837,"velocity":0.2283464566929134},{"duration":0.12790697674418539,"midi":81,"time":45.25581395348837,"velocity":0.36220472440944884},{"duration":0.011627906976741542,"midi":44,"time":45.26744186046512,"velocity":0.5984251968503937},{"duration":0.011627906976741542,"midi":43,"time":45.27906976744186,"velocity":0.5669291338582677},{"duration":0.02325581395349019,"midi":67,"time":45.27906976744186,"velocity":0.3543307086614173},{"duration":0.046511627906973274,"midi":89,"time":45.27906976744186,"velocity":0.14960629921259844},{"duration":0.011627906976748648,"midi":42,"time":45.2906976744186,"velocity":0.5354330708661418},{"duration":0.17441860465116577,"midi":86,"time":45.2906976744186,"velocity":0.3228346456692913},{"duration":0.30232558139534405,"midi":68,"time":45.30232558139535,"velocity":0.47244094488188976},{"duration":0.02325581395349019,"midi":37,"time":45.33720930232558,"velocity":0.3858267716535433},{"duration":0.05813953488372192,"midi":70,"time":45.33720930232558,"velocity":0.4566929133858268},{"duration":0.05813953488372192,"midi":89,"time":45.33720930232558,"velocity":0.12598425196850394},{"duration":0.19767441860464885,"midi":92,"time":45.33720930232558,"velocity":0.16535433070866143},{"duration":0.06976744186046346,"midi":100,"time":45.33720930232558,"velocity":0.12598425196850394},{"duration":0.09302325581395365,"midi":77,"time":45.348837209302324,"velocity":0.33070866141732286},{"duration":0.03488372093023173,"midi":88,"time":45.348837209302324,"velocity":0.2047244094488189},{"duration":0.023255813953483084,"midi":36,"time":45.36046511627907,"velocity":0.29133858267716534},{"duration":0.023255813953483084,"midi":85,"time":45.36046511627907,"velocity":0.28346456692913385},{"duration":0.046511627906973274,"midi":58,"time":45.372093023255815,"velocity":0.3937007874015748},{"duration":0.02325581395349019,"midi":78,"time":45.372093023255815,"velocity":0.2440944881889764},{"duration":0.02325581395349019,"midi":83,"time":45.372093023255815,"velocity":0.3858267716535433},{"duration":0.08139534883721211,"midi":96,"time":45.372093023255815,"velocity":0.33070866141732286},{"duration":0.27906976744186096,"midi":72,"time":45.383720930232556,"velocity":0.5511811023622047},{"duration":0.04651162790698038,"midi":94,"time":45.383720930232556,"velocity":0.14173228346456693},{"duration":0.023255813953483084,"midi":82,"time":45.395348837209305,"velocity":0.2440944881889764},{"duration":0.03488372093023173,"midi":81,"time":45.406976744186046,"velocity":0.09448818897637795},{"duration":0.02325581395349019,"midi":57,"time":45.41860465116279,"velocity":0.4015748031496063},{"duration":0.03488372093023173,"midi":56,"time":45.44186046511628,"velocity":0.4251968503937008},{"duration":0.03488372093023173,"midi":75,"time":45.46511627906977,"velocity":0.3543307086614173},{"duration":0.046511627906973274,"midi":83,"time":45.46511627906977,"velocity":0.2440944881889764},{"duration":0.16279069767441712,"midi":97,"time":45.46511627906977,"velocity":0.2204724409448819},{"duration":0.02325581395349019,"midi":59,"time":45.47674418604651,"velocity":0.3543307086614173},{"duration":0.03488372093023173,"midi":93,"time":45.47674418604651,"velocity":0.07874015748031496},{"duration":0.3139534883720927,"midi":102,"time":45.47674418604651,"velocity":0.2992125984251969},{"duration":0.081395348837205,"midi":88,"time":45.48837209302326,"velocity":0.2755905511811024},{"duration":0.02325581395349019,"midi":51,"time":45.5,"velocity":0.25984251968503935},{"duration":0.046511627906973274,"midi":60,"time":45.5,"velocity":0.33858267716535434},{"duration":0.03488372093023173,"midi":81,"time":45.5,"velocity":0.18110236220472442},{"duration":0.046511627906973274,"midi":86,"time":45.5,"velocity":0.14173228346456693},{"duration":0.22093023255813904,"midi":75,"time":45.51162790697674,"velocity":0.3228346456692913},{"duration":0.16279069767442422,"midi":101,"time":45.51162790697674,"velocity":0.2125984251968504},{"duration":0.023255813953483084,"midi":39,"time":45.52325581395349,"velocity":0.33858267716535434},{"duration":0.03488372093023173,"midi":66,"time":45.53488372093023,"velocity":0.28346456692913385},{"duration":1.3837209302325562,"midi":99,"time":45.53488372093023,"velocity":0.4330708661417323},{"duration":0.03488372093023173,"midi":103,"time":45.53488372093023,"velocity":0.10236220472440945},{"duration":0.13953488372093403,"midi":70,"time":45.54651162790697,"velocity":0.5039370078740157},{"duration":0.04651162790698038,"midi":85,"time":45.54651162790697,"velocity":0.16535433070866143},{"duration":0.02325581395349019,"midi":39,"time":45.55813953488372,"velocity":0.31496062992125984},{"duration":0.06976744186046346,"midi":58,"time":45.55813953488372,"velocity":0.4015748031496063},{"duration":0.03488372093023173,"midi":83,"time":45.55813953488372,"velocity":0.2677165354330709},{"duration":0.05813953488372192,"midi":86,"time":45.55813953488372,"velocity":0.30708661417322836},{"duration":0.02325581395349019,"midi":46,"time":45.56976744186046,"velocity":0.2992125984251969},{"duration":0.09302325581395365,"midi":77,"time":45.56976744186046,"velocity":0.3858267716535433},{"duration":0.046511627906973274,"midi":65,"time":45.593023255813954,"velocity":0.30708661417322836},{"duration":0.03488372093023173,"midi":92,"time":45.593023255813954,"velocity":0.14960629921259844},{"duration":0.05813953488372192,"midi":80,"time":45.616279069767444,"velocity":0.11023622047244094},{"duration":0.023255813953483084,"midi":85,"time":45.616279069767444,"velocity":0.2677165354330709},{"duration":0.046511627906973274,"midi":88,"time":45.616279069767444,"velocity":0.08661417322834646},{"duration":0.06976744186046346,"midi":91,"time":45.616279069767444,"velocity":0.14173228346456693},{"duration":0.16279069767441712,"midi":98,"time":45.616279069767444,"velocity":0.3228346456692913},{"duration":0.03488372093023173,"midi":83,"time":45.627906976744185,"velocity":0.16535433070866143},{"duration":0.02325581395349019,"midi":56,"time":45.63953488372093,"velocity":0.3779527559055118},{"duration":0.02325581395349019,"midi":60,"time":45.63953488372093,"velocity":0.23622047244094488},{"duration":0.05813953488372192,"midi":86,"time":45.63953488372093,"velocity":0.2992125984251969},{"duration":0.11627906976744384,"midi":51,"time":45.651162790697676,"velocity":0.2992125984251969},{"duration":0.02325581395349019,"midi":44,"time":45.66279069767442,"velocity":0.3700787401574803},{"duration":0.02325581395349019,"midi":64,"time":45.66279069767442,"velocity":0.23622047244094488},{"duration":0.12790697674418539,"midi":68,"time":45.66279069767442,"velocity":0.30708661417322836},{"duration":0.058139534883714816,"midi":73,"time":45.674418604651166,"velocity":0.3228346456692913},{"duration":0.09302325581395365,"midi":77,"time":45.674418604651166,"velocity":0.23622047244094488},{"duration":0.02325581395349019,"midi":33,"time":45.68604651162791,"velocity":0.25196850393700787},{"duration":0.02325581395349019,"midi":58,"time":45.68604651162791,"velocity":0.5039370078740157},{"duration":0.05813953488372192,"midi":44,"time":45.69767441860465,"velocity":0.25984251968503935},{"duration":0.06976744186047057,"midi":88,"time":45.69767441860465,"velocity":0.1968503937007874},{"duration":0.011627906976741542,"midi":59,"time":45.7093023255814,"velocity":0.5196850393700787},{"duration":0.046511627906973274,"midi":92,"time":45.7093023255814,"velocity":0.2047244094488189},{"duration":0.011627906976741542,"midi":60,"time":45.72093023255814,"velocity":0.5196850393700787},{"duration":0.04651162790698038,"midi":103,"time":45.72093023255814,"velocity":0.2755905511811024},{"duration":0.02325581395349019,"midi":31,"time":45.73255813953488,"velocity":0.3228346456692913},{"duration":0.011627906976748648,"midi":61,"time":45.73255813953488,"velocity":0.5196850393700787},{"duration":0.02325581395349019,"midi":72,"time":45.73255813953488,"velocity":0.2992125984251969},{"duration":0.1279069767441925,"midi":84,"time":45.73255813953488,"velocity":0.3700787401574803},{"duration":0.03488372093023884,"midi":90,"time":45.73255813953488,"velocity":0.25984251968503935},{"duration":0.19767441860465595,"midi":94,"time":45.73255813953488,"velocity":0.18110236220472442},{"duration":0.011627906976741542,"midi":62,"time":45.74418604651163,"velocity":0.5118110236220472},{"duration":0.25581395348837077,"midi":101,"time":45.74418604651163,"velocity":0.1889763779527559},{"duration":0.02325581395349019,"midi":32,"time":45.75581395348837,"velocity":0.25984251968503935},{"duration":0.02325581395349019,"midi":63,"time":45.75581395348837,"velocity":0.47244094488188976},{"duration":0.03488372093023173,"midi":71,"time":45.75581395348837,"velocity":0.1968503937007874},{"duration":0.2093023255813975,"midi":75,"time":45.75581395348837,"velocity":0.5275590551181102},{"duration":0.03488372093023173,"midi":82,"time":45.75581395348837,"velocity":0.14960629921259844},{"duration":0.48837209302325846,"midi":91,"time":45.75581395348837,"velocity":0.5433070866141733},{"duration":0.03488372093023173,"midi":60,"time":45.76744186046512,"velocity":0.2440944881889764},{"duration":0.03488372093023173,"midi":78,"time":45.76744186046512,"velocity":0.18110236220472442},{"duration":0.081395348837205,"midi":81,"time":45.76744186046512,"velocity":0.4409448818897638},{"duration":0.011627906976741542,"midi":48,"time":45.77906976744186,"velocity":0.5433070866141733},{"duration":0.046511627906973274,"midi":65,"time":45.77906976744186,"velocity":0.2204724409448819},{"duration":0.011627906976748648,"midi":45,"time":45.7906976744186,"velocity":0.6141732283464567},{"duration":0.1046511627907023,"midi":70,"time":45.7906976744186,"velocity":0.2677165354330709},{"duration":0.04651162790698038,"midi":73,"time":45.7906976744186,"velocity":0.2204724409448819},{"duration":0.011627906976741542,"midi":43,"time":45.80232558139535,"velocity":0.5984251968503937},{"duration":0.03488372093023173,"midi":102,"time":45.80232558139535,"velocity":0.07874015748031496},{"duration":0.02325581395349019,"midi":42,"time":45.81395348837209,"velocity":0.5669291338582677},{"duration":0.03488372093023173,"midi":88,"time":45.81395348837209,"velocity":0.14173228346456693},{"duration":0.1046511627907023,"midi":63,"time":45.825581395348834,"velocity":0.41732283464566927},{"duration":0.03488372093023884,"midi":92,"time":45.825581395348834,"velocity":0.15748031496062992},{"duration":0.05813953488372192,"midi":98,"time":45.825581395348834,"velocity":0.14960629921259844},{"duration":0.02325581395349019,"midi":40,"time":45.83720930232558,"velocity":0.47244094488188976},{"duration":0.11627906976744384,"midi":72,"time":45.83720930232558,"velocity":0.33858267716535434},{"duration":0.09302325581395365,"midi":97,"time":45.83720930232558,"velocity":0.29133858267716534},{"duration":0.12790697674418539,"midi":77,"time":45.848837209302324,"velocity":0.18110236220472442},{"duration":0.03488372093023173,"midi":80,"time":45.848837209302324,"velocity":0.3858267716535433},{"duration":0.1046511627907023,"midi":82,"time":45.848837209302324,"velocity":0.28346456692913385},{"duration":0.023255813953483084,"midi":85,"time":45.86046511627907,"velocity":0.25196850393700787},{"duration":0.03488372093023173,"midi":48,"time":45.872093023255815,"velocity":0.16535433070866143},{"duration":0.03488372093023173,"midi":59,"time":45.883720930232556,"velocity":0.3464566929133858},{"duration":0.03488372093023173,"midi":81,"time":45.883720930232556,"velocity":0.2440944881889764},{"duration":0.04651162790698038,"midi":100,"time":45.883720930232556,"velocity":0.28346456692913385},{"duration":0.02325581395349019,"midi":57,"time":45.906976744186046,"velocity":0.25196850393700787},{"duration":0.06976744186047057,"midi":68,"time":45.91860465116279,"velocity":0.16535433070866143},{"duration":0.06976744186047057,"midi":102,"time":45.91860465116279,"velocity":0.14960629921259844},{"duration":0.06976744186046346,"midi":65,"time":45.94186046511628,"velocity":0.4015748031496063},{"duration":0.046511627906973274,"midi":56,"time":45.95348837209303,"velocity":0.1732283464566929},{"duration":0.03488372093023173,"midi":73,"time":45.95348837209303,"velocity":0.08661417322834646},{"duration":0.06976744186046346,"midi":81,"time":45.95348837209303,"velocity":0.2204724409448819},{"duration":0.03488372093023173,"midi":41,"time":45.96511627906977,"velocity":0.09448818897637795},{"duration":0.03488372093023173,"midi":60,"time":45.97674418604651,"velocity":0.1732283464566929},{"duration":0.2906976744186096,"midi":75,"time":45.97674418604651,"velocity":0.36220472440944884},{"duration":0.04651162790698038,"midi":79,"time":45.97674418604651,"velocity":0.14173228346456693},{"duration":0.1046511627907023,"midi":97,"time":45.97674418604651,"velocity":0.1889763779527559},{"duration":0.046511627906973274,"midi":70,"time":45.98837209302326,"velocity":0.2125984251968504},{"duration":0.046511627906973274,"midi":72,"time":45.98837209302326,"velocity":0.1968503937007874},{"duration":0.11627906976744384,"midi":84,"time":46,"velocity":0.2755905511811024},{"duration":0.05813953488372192,"midi":102,"time":46,"velocity":0.2283464566929134},{"duration":0.03488372093023173,"midi":66,"time":46.01162790697674,"velocity":0.1889763779527559},{"duration":0.03488372093023173,"midi":89,"time":46.01162790697674,"velocity":0.11811023622047244},{"duration":0.03488372093023173,"midi":78,"time":46.02325581395349,"velocity":0.2204724409448819},{"duration":0.05813953488372192,"midi":80,"time":46.02325581395349,"velocity":0.1889763779527559},{"duration":0.03488372093023173,"midi":83,"time":46.02325581395349,"velocity":0.2283464566929134},{"duration":0.046511627906973274,"midi":86,"time":46.02325581395349,"velocity":0.2283464566929134},{"duration":0.05813953488372192,"midi":57,"time":46.03488372093023,"velocity":0.28346456692913385},{"duration":0.05813953488372192,"midi":71,"time":46.03488372093023,"velocity":0.25196850393700787},{"duration":0.04651162790698038,"midi":74,"time":46.04651162790697,"velocity":0.2047244094488189},{"duration":0.05813953488372192,"midi":79,"time":46.04651162790697,"velocity":0.16535433070866143},{"duration":0.02325581395349019,"midi":40,"time":46.05813953488372,"velocity":0.3858267716535433},{"duration":0.081395348837205,"midi":60,"time":46.05813953488372,"velocity":0.2677165354330709},{"duration":0.1046511627906952,"midi":82,"time":46.05813953488372,"velocity":0.18110236220472442},{"duration":0.02325581395349019,"midi":63,"time":46.06976744186046,"velocity":0.2440944881889764},{"duration":0.05813953488372192,"midi":81,"time":46.06976744186046,"velocity":0.2047244094488189},{"duration":0.046511627906973274,"midi":68,"time":46.093023255813954,"velocity":0.13385826771653545},{"duration":0.1046511627906952,"midi":72,"time":46.093023255813954,"velocity":0.28346456692913385},{"duration":0.03488372093023173,"midi":65,"time":46.104651162790695,"velocity":0.28346456692913385},{"duration":0.03488372093023173,"midi":30,"time":46.127906976744185,"velocity":0.23622047244094488},{"duration":0.06976744186046346,"midi":80,"time":46.127906976744185,"velocity":0.1889763779527559},{"duration":0.08139534883721211,"midi":100,"time":46.127906976744185,"velocity":0.2047244094488189},{"duration":0.22093023255813904,"midi":101,"time":46.127906976744185,"velocity":0.1889763779527559},{"duration":0.03488372093023884,"midi":63,"time":46.13953488372093,"velocity":0.5118110236220472},{"duration":0.03488372093023884,"midi":81,"time":46.13953488372093,"velocity":0.15748031496062992},{"duration":0.05813953488372192,"midi":92,"time":46.13953488372093,"velocity":0.4566929133858268},{"duration":0.1046511627907023,"midi":97,"time":46.13953488372093,"velocity":0.28346456692913385},{"duration":0.48837209302325846,"midi":102,"time":46.13953488372093,"velocity":0.4645669291338583},{"duration":0.046511627906973274,"midi":86,"time":46.151162790697676,"velocity":0.15748031496062992},{"duration":0.03488372093023173,"midi":90,"time":46.151162790697676,"velocity":0.11811023622047244},{"duration":0.05813953488372192,"midi":98,"time":46.151162790697676,"velocity":0.25984251968503935},{"duration":0.08139534883721211,"midi":53,"time":46.16279069767442,"velocity":0.2677165354330709},{"duration":0.04651162790698038,"midi":78,"time":46.16279069767442,"velocity":0.1732283464566929},{"duration":0.04651162790698038,"midi":83,"time":46.16279069767442,"velocity":0.1968503937007874},{"duration":0.1046511627907023,"midi":94,"time":46.16279069767442,"velocity":0.33070866141732286},{"duration":0.081395348837205,"midi":71,"time":46.174418604651166,"velocity":0.36220472440944884},{"duration":0.03488372093023173,"midi":40,"time":46.18604651162791,"velocity":0.3228346456692913},{"duration":0.02325581395349019,"midi":48,"time":46.18604651162791,"velocity":0.25984251968503935},{"duration":0.02325581395349019,"midi":65,"time":46.18604651162791,"velocity":0.4251968503937008},{"duration":0.02325581395349019,"midi":81,"time":46.18604651162791,"velocity":0.2283464566929134},{"duration":0.03488372093023173,"midi":63,"time":46.19767441860465,"velocity":0.3779527559055118},{"duration":0.02325581395349019,"midi":69,"time":46.19767441860465,"velocity":0.3464566929133858},{"duration":0.02325581395349019,"midi":73,"time":46.19767441860465,"velocity":0.28346456692913385},{"duration":0.05813953488372192,"midi":48,"time":46.22093023255814,"velocity":0.25196850393700787},{"duration":0.06976744186046346,"midi":68,"time":46.22093023255814,"velocity":0.3700787401574803},{"duration":0.03488372093023173,"midi":81,"time":46.22093023255814,"velocity":0.13385826771653545},{"duration":0.11627906976744384,"midi":96,"time":46.22093023255814,"velocity":0.4881889763779528},{"duration":0.02325581395349019,"midi":41,"time":46.23255813953488,"velocity":0.25984251968503935},{"duration":0.05813953488372192,"midi":62,"time":46.23255813953488,"velocity":0.4645669291338583},{"duration":0.03488372093023884,"midi":73,"time":46.23255813953488,"velocity":0.3858267716535433},{"duration":0.11627906976744384,"midi":90,"time":46.24418604651163,"velocity":0.4330708661417323},{"duration":0.05813953488372192,"midi":93,"time":46.25581395348837,"velocity":0.15748031496062992},{"duration":0.06976744186046346,"midi":98,"time":46.25581395348837,"velocity":0.10236220472440945},{"duration":0.03488372093023173,"midi":30,"time":46.26744186046512,"velocity":0.2283464566929134},{"duration":0.27906976744185386,"midi":72,"time":46.26744186046512,"velocity":0.48031496062992124},{"duration":0.058139534883714816,"midi":77,"time":46.26744186046512,"velocity":0.12598425196850394},{"duration":0.023255813953483084,"midi":81,"time":46.26744186046512,"velocity":0.2283464566929134},{"duration":0.27906976744186096,"midi":75,"time":46.27906976744186,"velocity":0.41732283464566927},{"duration":0.03488372093023173,"midi":86,"time":46.27906976744186,"velocity":0.1732283464566929},{"duration":0.11627906976744384,"midi":94,"time":46.27906976744186,"velocity":0.2204724409448819},{"duration":0.09302325581395365,"midi":95,"time":46.27906976744186,"velocity":0.18110236220472442},{"duration":0.16279069767441712,"midi":97,"time":46.27906976744186,"velocity":0.33070866141732286},{"duration":0.08139534883721211,"midi":100,"time":46.27906976744186,"velocity":0.18110236220472442},{"duration":0.03488372093023173,"midi":60,"time":46.2906976744186,"velocity":0.3700787401574803},{"duration":0.08139534883721211,"midi":88,"time":46.2906976744186,"velocity":0.3464566929133858},{"duration":0.25581395348837077,"midi":91,"time":46.2906976744186,"velocity":0.29133858267716534},{"duration":0.023255813953483084,"midi":65,"time":46.30232558139535,"velocity":0.3700787401574803},{"duration":0.03488372093023173,"midi":79,"time":46.30232558139535,"velocity":0.12598425196850394},{"duration":0.06976744186046346,"midi":83,"time":46.30232558139535,"velocity":0.3228346456692913},{"duration":0.09302325581395365,"midi":85,"time":46.30232558139535,"velocity":0.13385826771653545},{"duration":0.06976744186046346,"midi":89,"time":46.30232558139535,"velocity":0.14173228346456693},{"duration":0.02325581395349019,"midi":44,"time":46.31395348837209,"velocity":0.5905511811023622},{"duration":0.27906976744186096,"midi":68,"time":46.31395348837209,"velocity":0.3228346456692913},{"duration":0.04651162790698038,"midi":81,"time":46.31395348837209,"velocity":0.2125984251968504},{"duration":0.011627906976741542,"midi":43,"time":46.33720930232558,"velocity":0.5590551181102362},{"duration":0.081395348837205,"midi":92,"time":46.33720930232558,"velocity":0.14960629921259844},{"duration":0.011627906976748648,"midi":42,"time":46.348837209302324,"velocity":0.5275590551181102},{"duration":0.04651162790698038,"midi":64,"time":46.348837209302324,"velocity":0.3779527559055118},{"duration":0.03488372093023173,"midi":96,"time":46.36046511627907,"velocity":0.10236220472440945},{"duration":0.046511627906973274,"midi":103,"time":46.36046511627907,"velocity":0.4094488188976378},{"duration":0.06976744186047057,"midi":82,"time":46.383720930232556,"velocity":0.15748031496062992},{"duration":0.023255813953483084,"midi":37,"time":46.395348837209305,"velocity":0.3779527559055118},{"duration":0.03488372093023173,"midi":63,"time":46.395348837209305,"velocity":0.3937007874015748},{"duration":0.081395348837205,"midi":90,"time":46.395348837209305,"velocity":0.29133858267716534},{"duration":0.1046511627906952,"midi":101,"time":46.395348837209305,"velocity":0.16535433070866143},{"duration":0.06976744186046346,"midi":85,"time":46.406976744186046,"velocity":0.18110236220472442},{"duration":0.05813953488372192,"midi":96,"time":46.406976744186046,"velocity":0.2283464566929134},{"duration":0.02325581395349019,"midi":36,"time":46.41860465116279,"velocity":0.25984251968503935},{"duration":0.06976744186047057,"midi":78,"time":46.41860465116279,"velocity":0.2047244094488189},{"duration":0.04651162790698038,"midi":81,"time":46.41860465116279,"velocity":0.1968503937007874},{"duration":0.03488372093023884,"midi":93,"time":46.41860465116279,"velocity":0.2047244094488189},{"duration":0.17441860465116577,"midi":94,"time":46.41860465116279,"velocity":0.1968503937007874},{"duration":0.046511627906973274,"midi":55,"time":46.43023255813954,"velocity":0.25984251968503935},{"duration":0.03488372093023173,"midi":83,"time":46.43023255813954,"velocity":0.07874015748031496},{"duration":0.02325581395349019,"midi":40,"time":46.44186046511628,"velocity":0.30708661417322836},{"duration":0.38372093023255616,"midi":97,"time":46.45348837209303,"velocity":0.36220472440944884},{"duration":0.25581395348837077,"midi":103,"time":46.45348837209303,"velocity":0.3858267716535433},{"duration":0.05813953488372192,"midi":82,"time":46.46511627906977,"velocity":0.14960629921259844},{"duration":0.06976744186046346,"midi":48,"time":46.47674418604651,"velocity":0.29133858267716534},{"duration":0.03488372093023173,"midi":63,"time":46.47674418604651,"velocity":0.4409448818897638},{"duration":0.05813953488372192,"midi":96,"time":46.47674418604651,"velocity":0.09448818897637795},{"duration":0.06976744186046346,"midi":36,"time":46.48837209302326,"velocity":0.36220472440944884},{"duration":0.02325581395349019,"midi":56,"time":46.51162790697674,"velocity":0.4094488188976378},{"duration":0.06976744186046346,"midi":61,"time":46.52325581395349,"velocity":0.4330708661417323},{"duration":0.16279069767441712,"midi":83,"time":46.52325581395349,"velocity":0.31496062992125984},{"duration":0.7558139534883708,"midi":101,"time":46.52325581395349,"velocity":0.3937007874015748},{"duration":0.27906976744186096,"midi":80,"time":46.53488372093023,"velocity":0.5039370078740157},{"duration":0.05813953488372192,"midi":85,"time":46.53488372093023,"velocity":0.2440944881889764},{"duration":0.3139534883720927,"midi":89,"time":46.53488372093023,"velocity":0.5196850393700787},{"duration":0.02325581395349019,"midi":47,"time":46.54651162790697,"velocity":0.2677165354330709},{"duration":0.2906976744186096,"midi":95,"time":46.54651162790697,"velocity":0.36220472440944884},{"duration":0.06976744186046346,"midi":70,"time":46.55813953488372,"velocity":0.25196850393700787},{"duration":0.02325581395349019,"midi":72,"time":46.55813953488372,"velocity":0.2440944881889764},{"duration":0.02325581395349019,"midi":74,"time":46.55813953488372,"velocity":0.49606299212598426},{"duration":0.03488372093023173,"midi":88,"time":46.55813953488372,"velocity":0.14960629921259844},{"duration":0.1046511627906952,"midi":91,"time":46.55813953488372,"velocity":0.14173228346456693},{"duration":0.1046511627906952,"midi":96,"time":46.55813953488372,"velocity":0.28346456692913385},{"duration":0.02325581395349019,"midi":45,"time":46.56976744186046,"velocity":0.3543307086614173},{"duration":0.03488372093023173,"midi":79,"time":46.56976744186046,"velocity":0.1968503937007874},{"duration":0.2325581395348877,"midi":82,"time":46.56976744186046,"velocity":0.30708661417322836},{"duration":0.03488372093023173,"midi":93,"time":46.56976744186046,"velocity":0.1889763779527559},{"duration":0.046511627906973274,"midi":66,"time":46.58139534883721,"velocity":0.1732283464566929},{"duration":0.22093023255813904,"midi":73,"time":46.58139534883721,"velocity":0.5590551181102362},{"duration":0.023255813953483084,"midi":76,"time":46.58139534883721,"velocity":0.3228346456692913},{"duration":0.046511627906973274,"midi":87,"time":46.58139534883721,"velocity":0.16535433070866143},{"duration":0.02325581395349019,"midi":78,"time":46.593023255813954,"velocity":0.2283464566929134},{"duration":0.03488372093023173,"midi":100,"time":46.593023255813954,"velocity":0.07874015748031496},{"duration":0.05813953488372192,"midi":46,"time":46.604651162790695,"velocity":0.2440944881889764},{"duration":0.03488372093023173,"midi":61,"time":46.604651162790695,"velocity":0.3779527559055118},{"duration":0.06976744186047057,"midi":75,"time":46.604651162790695,"velocity":0.29133858267716534},{"duration":0.081395348837205,"midi":68,"time":46.616279069767444,"velocity":0.11023622047244094},{"duration":0.081395348837205,"midi":77,"time":46.616279069767444,"velocity":0.33858267716535434},{"duration":0.046511627906973274,"midi":93,"time":46.616279069767444,"velocity":0.1968503937007874},{"duration":0.1046511627906952,"midi":34,"time":46.627906976744185,"velocity":0.31496062992125984},{"duration":0.03488372093023884,"midi":53,"time":46.63953488372093,"velocity":0.10236220472440945},{"duration":0.34883720930233153,"midi":94,"time":46.63953488372093,"velocity":0.3228346456692913},{"duration":0.5465116279069804,"midi":102,"time":46.63953488372093,"velocity":0.41732283464566927},{"duration":0.03488372093023173,"midi":61,"time":46.651162790697676,"velocity":0.2440944881889764},{"duration":0.046511627906973274,"midi":64,"time":46.674418604651166,"velocity":0.2047244094488189},{"duration":0.046511627906973274,"midi":84,"time":46.674418604651166,"velocity":0.30708661417322836},{"duration":0.03488372093023173,"midi":100,"time":46.674418604651166,"velocity":0.11023622047244094},{"duration":0.2093023255813975,"midi":70,"time":46.69767441860465,"velocity":0.31496062992125984},{"duration":0.12790697674418539,"midi":93,"time":46.69767441860465,"velocity":0.2677165354330709},{"duration":0.05813953488372192,"midi":77,"time":46.7093023255814,"velocity":0.28346456692913385},{"duration":0.02325581395349019,"midi":64,"time":46.73255813953488,"velocity":0.25196850393700787},{"duration":0.03488372093023173,"midi":83,"time":46.74418604651163,"velocity":0.1889763779527559},{"duration":0.11627906976744384,"midi":103,"time":46.74418604651163,"velocity":0.4409448818897638},{"duration":0.02325581395349019,"midi":63,"time":46.75581395348837,"velocity":0.25196850393700787},{"duration":0.046511627906973274,"midi":61,"time":46.76744186046512,"velocity":0.2992125984251969},{"duration":0.03488372093023173,"midi":83,"time":46.7906976744186,"velocity":0.2283464566929134},{"duration":0.15116279069767558,"midi":96,"time":46.7906976744186,"velocity":0.2204724409448819},{"duration":0.3720930232558146,"midi":100,"time":46.7906976744186,"velocity":0.3937007874015748},{"duration":0.15116279069767558,"midi":84,"time":46.80232558139535,"velocity":0.4566929133858268},{"duration":0.13953488372092693,"midi":88,"time":46.80232558139535,"velocity":0.33070866141732286},{"duration":0.17441860465115866,"midi":91,"time":46.80232558139535,"velocity":0.4251968503937008},{"duration":0.03488372093023173,"midi":65,"time":46.81395348837209,"velocity":0.2677165354330709},{"duration":0.02325581395349019,"midi":73,"time":46.81395348837209,"velocity":0.3858267716535433},{"duration":0.09302325581395365,"midi":79,"time":46.81395348837209,"velocity":0.3464566929133858},{"duration":0.11627906976744384,"midi":98,"time":46.81395348837209,"velocity":0.16535433070866143},{"duration":0.16279069767442422,"midi":92,"time":46.825581395348834,"velocity":0.2283464566929134},{"duration":0.011627906976741542,"midi":46,"time":46.83720930232558,"velocity":0.5433070866141733},{"duration":0.011627906976748648,"midi":45,"time":46.848837209302324,"velocity":0.5984251968503937},{"duration":0.02325581395349019,"midi":73,"time":46.848837209302324,"velocity":0.3228346456692913},{"duration":0.06976744186046346,"midi":81,"time":46.848837209302324,"velocity":0.18110236220472442},{"duration":0.011627906976741542,"midi":44,"time":46.86046511627907,"velocity":0.5748031496062992},{"duration":0.03488372093023173,"midi":65,"time":46.86046511627907,"velocity":0.2992125984251969},{"duration":0.17441860465115866,"midi":89,"time":46.86046511627907,"velocity":0.3858267716535433},{"duration":0.046511627906973274,"midi":93,"time":46.86046511627907,"velocity":0.2125984251968504},{"duration":0.02325581395349019,"midi":42,"time":46.872093023255815,"velocity":0.5590551181102362},{"duration":0.1046511627906952,"midi":61,"time":46.872093023255815,"velocity":0.25984251968503935},{"duration":0.06976744186046346,"midi":72,"time":46.872093023255815,"velocity":0.4409448818897638},{"duration":0.1046511627907023,"midi":53,"time":46.883720930232556,"velocity":0.11811023622047244},{"duration":0.046511627906973274,"midi":66,"time":46.895348837209305,"velocity":0.29133858267716534},{"duration":0.046511627906973274,"midi":80,"time":46.895348837209305,"velocity":0.23622047244094488},{"duration":0.081395348837205,"midi":73,"time":46.93023255813954,"velocity":0.3779527559055118},{"duration":0.4186046511627879,"midi":77,"time":46.93023255813954,"velocity":0.5118110236220472},{"duration":0.03488372093023173,"midi":87,"time":46.93023255813954,"velocity":0.28346456692913385},{"duration":0.081395348837205,"midi":99,"time":46.93023255813954,"velocity":0.4015748031496063},{"duration":0.04651162790698038,"midi":36,"time":46.94186046511628,"velocity":0.2992125984251969},{"duration":0.17441860465116577,"midi":65,"time":46.94186046511628,"velocity":0.3779527559055118},{"duration":0.04651162790698038,"midi":71,"time":46.94186046511628,"velocity":0.2992125984251969},{"duration":0.02325581395349019,"midi":83,"time":46.94186046511628,"velocity":0.4330708661417323},{"duration":0.13953488372092693,"midi":86,"time":46.95348837209303,"velocity":0.3937007874015748},{"duration":0.046511627906973274,"midi":90,"time":46.95348837209303,"velocity":0.33070866141732286},{"duration":0.09302325581394655,"midi":93,"time":46.95348837209303,"velocity":0.14173228346456693},{"duration":0.1860465116279002,"midi":96,"time":46.95348837209303,"velocity":0.2125984251968504},{"duration":0.11627906976744384,"midi":58,"time":46.96511627906977,"velocity":0.3779527559055118},{"duration":0.05813953488372192,"midi":80,"time":46.96511627906977,"velocity":0.2283464566929134},{"duration":0.02325581395349019,"midi":82,"time":46.96511627906977,"velocity":0.36220472440944884},{"duration":0.02325581395349019,"midi":81,"time":46.97674418604651,"velocity":0.3464566929133858},{"duration":0.1046511627906952,"midi":70,"time":46.98837209302326,"velocity":0.3937007874015748},{"duration":0.11627906976743674,"midi":88,"time":46.98837209302326,"velocity":0.3858267716535433},{"duration":0.03488372093023173,"midi":72,"time":47,"velocity":0.25196850393700787},{"duration":0.12790697674418539,"midi":79,"time":47.01162790697674,"velocity":0.25196850393700787},{"duration":0.08139534883721211,"midi":82,"time":47.01162790697674,"velocity":0.47244094488188976},{"duration":0.05813953488372192,"midi":53,"time":47.02325581395349,"velocity":0.18110236220472442},{"duration":0.081395348837205,"midi":92,"time":47.02325581395349,"velocity":0.16535433070866143},{"duration":0.04651162790698038,"midi":73,"time":47.03488372093023,"velocity":0.2677165354330709},{"duration":0.06976744186046346,"midi":99,"time":47.03488372093023,"velocity":0.13385826771653545},{"duration":0.046511627906973274,"midi":93,"time":47.05813953488372,"velocity":0.1732283464566929},{"duration":0.04651162790698038,"midi":81,"time":47.06976744186046,"velocity":0.29133858267716534},{"duration":0.04651162790698038,"midi":90,"time":47.06976744186046,"velocity":0.1732283464566929},{"duration":0.023255813953483084,"midi":57,"time":47.08139534883721,"velocity":0.36220472440944884},{"duration":0.023255813953483084,"midi":74,"time":47.08139534883721,"velocity":0.2283464566929134},{"duration":0.03488372093023173,"midi":83,"time":47.08139534883721,"velocity":0.2047244094488189},{"duration":0.06976744186046346,"midi":85,"time":47.08139534883721,"velocity":0.31496062992125984},{"duration":0.02325581395349019,"midi":45,"time":47.093023255813954,"velocity":0.36220472440944884},{"duration":0.11627906976744384,"midi":53,"time":47.093023255813954,"velocity":0.33070866141732286},{"duration":0.02325581395349019,"midi":69,"time":47.093023255813954,"velocity":0.3700787401574803},{"duration":0.03488372093023173,"midi":72,"time":47.093023255813954,"velocity":0.2755905511811024},{"duration":0.02325581395349019,"midi":76,"time":47.093023255813954,"velocity":0.2677165354330709},{"duration":0.046511627906973274,"midi":80,"time":47.093023255813954,"velocity":0.1968503937007874},{"duration":0.04651162790698038,"midi":82,"time":47.104651162790695,"velocity":0.3937007874015748},{"duration":0.08139534883721211,"midi":86,"time":47.104651162790695,"velocity":0.33858267716535434},{"duration":0.09302325581395365,"midi":46,"time":47.116279069767444,"velocity":0.29133858267716534},{"duration":0.1046511627906952,"midi":70,"time":47.116279069767444,"velocity":0.4566929133858268},{"duration":0.046511627906973274,"midi":84,"time":47.116279069767444,"velocity":0.28346456692913385},{"duration":0.02325581395349019,"midi":36,"time":47.127906976744185,"velocity":0.30708661417322836},{"duration":0.08139534883721211,"midi":58,"time":47.127906976744185,"velocity":0.30708661417322836},{"duration":0.22093023255813904,"midi":65,"time":47.127906976744185,"velocity":0.4881889763779528},{"duration":0.46511627906976827,"midi":73,"time":47.127906976744185,"velocity":0.3700787401574803},{"duration":0.046511627906973274,"midi":61,"time":47.151162790697676,"velocity":0.25984251968503935},{"duration":0.05813953488372192,"midi":81,"time":47.151162790697676,"velocity":0.1732283464566929},{"duration":0.02325581395349019,"midi":83,"time":47.151162790697676,"velocity":0.2440944881889764},{"duration":0.05813953488372192,"midi":34,"time":47.16279069767442,"velocity":0.3228346456692913},{"duration":0.046511627906973274,"midi":84,"time":47.174418604651166,"velocity":0.15748031496062992},{"duration":0.05813953488372192,"midi":80,"time":47.19767441860465,"velocity":0.1732283464566929},{"duration":0.081395348837205,"midi":86,"time":47.2093023255814,"velocity":0.1968503937007874},{"duration":0.046511627906973274,"midi":88,"time":47.2093023255814,"velocity":0.18110236220472442},{"duration":0.046511627906973274,"midi":93,"time":47.2093023255814,"velocity":0.13385826771653545},{"duration":0.03488372093023173,"midi":99,"time":47.2093023255814,"velocity":0.07874015748031496},{"duration":0.09302325581395365,"midi":58,"time":47.22093023255814,"velocity":0.31496062992125984},{"duration":0.04651162790698038,"midi":68,"time":47.22093023255814,"velocity":0.2125984251968504},{"duration":0.04651162790698038,"midi":83,"time":47.22093023255814,"velocity":0.2204724409448819},{"duration":0.02325581395349019,"midi":45,"time":47.23255813953488,"velocity":0.33858267716535434},{"duration":0.08139534883721211,"midi":53,"time":47.23255813953488,"velocity":0.25196850393700787},{"duration":0.03488372093023884,"midi":76,"time":47.23255813953488,"velocity":0.2204724409448819},{"duration":0.03488372093023884,"midi":79,"time":47.23255813953488,"velocity":0.1968503937007874},{"duration":0.03488372093023884,"midi":84,"time":47.23255813953488,"velocity":0.1889763779527559},{"duration":0.02325581395349019,"midi":38,"time":47.24418604651163,"velocity":0.25196850393700787},{"duration":0.05813953488372192,"midi":46,"time":47.25581395348837,"velocity":0.2755905511811024},{"duration":0.03488372093023173,"midi":80,"time":47.27906976744186,"velocity":0.07086614173228346},{"duration":0.05813953488372192,"midi":34,"time":47.2906976744186,"velocity":0.33858267716535434},{"duration":0.03488372093023173,"midi":61,"time":47.2906976744186,"velocity":0.23622047244094488},{"duration":0.04651162790698038,"midi":69,"time":47.31395348837209,"velocity":0.33070866141732286},{"duration":0.04651162790698038,"midi":84,"time":47.31395348837209,"velocity":0.16535433070866143},{"duration":0.03488372093023884,"midi":55,"time":47.325581395348834,"velocity":0.5196850393700787},{"duration":0.1046511627906952,"midi":90,"time":47.33720930232558,"velocity":0.2755905511811024},{"duration":0.05813953488372192,"midi":91,"time":47.33720930232558,"velocity":0.25984251968503935},{"duration":0.2093023255813904,"midi":92,"time":47.33720930232558,"velocity":0.2755905511811024},{"duration":0.03488372093023173,"midi":95,"time":47.33720930232558,"velocity":0.1732283464566929},{"duration":0.1046511627906952,"midi":96,"time":47.33720930232558,"velocity":0.1732283464566929},{"duration":0.05813953488372192,"midi":97,"time":47.33720930232558,"velocity":0.13385826771653545},{"duration":0.2093023255813904,"midi":98,"time":47.33720930232558,"velocity":0.2677165354330709},{"duration":0.2093023255813904,"midi":99,"time":47.33720930232558,"velocity":0.23622047244094488},{"duration":0.06976744186046346,"midi":100,"time":47.33720930232558,"velocity":0.2047244094488189},{"duration":0.02325581395349019,"midi":61,"time":47.348837209302324,"velocity":0.36220472440944884},{"duration":0.04651162790698038,"midi":79,"time":47.348837209302324,"velocity":0.1968503937007874},{"duration":0.04651162790698038,"midi":86,"time":47.348837209302324,"velocity":0.2204724409448819},{"duration":0.08139534883721211,"midi":88,"time":47.348837209302324,"velocity":0.23622047244094488},{"duration":0.08139534883721211,"midi":94,"time":47.348837209302324,"velocity":0.1968503937007874},{"duration":0.081395348837205,"midi":68,"time":47.36046511627907,"velocity":0.36220472440944884},{"duration":0.046511627906973274,"midi":76,"time":47.36046511627907,"velocity":0.36220472440944884},{"duration":0.046511627906973274,"midi":83,"time":47.36046511627907,"velocity":0.1968503937007874},{"duration":0.09302325581395365,"midi":93,"time":47.36046511627907,"velocity":0.1732283464566929},{"duration":0.011627906976741542,"midi":45,"time":47.372093023255815,"velocity":0.5275590551181102},{"duration":0.1860465116279073,"midi":82,"time":47.372093023255815,"velocity":0.3543307086614173},{"duration":0.03488372093023173,"midi":84,"time":47.372093023255815,"velocity":0.07874015748031496},{"duration":0.046511627906973274,"midi":89,"time":47.372093023255815,"velocity":0.15748031496062992},{"duration":0.011627906976748648,"midi":44,"time":47.383720930232556,"velocity":0.5905511811023622},{"duration":0.11627906976744384,"midi":70,"time":47.383720930232556,"velocity":0.48031496062992124},{"duration":0.011627906976741542,"midi":43,"time":47.395348837209305,"velocity":0.5748031496062992},{"duration":0.081395348837205,"midi":65,"time":47.395348837209305,"velocity":0.29133858267716534},{"duration":0.13953488372092693,"midi":87,"time":47.395348837209305,"velocity":0.3779527559055118},{"duration":0.011627906976741542,"midi":42,"time":47.406976744186046,"velocity":0.5118110236220472},{"duration":0.05813953488372192,"midi":75,"time":47.406976744186046,"velocity":0.4330708661417323},{"duration":0.03488372093023173,"midi":91,"time":47.406976744186046,"velocity":0.14173228346456693},{"duration":0.05813953488372192,"midi":84,"time":47.41860465116279,"velocity":0.14173228346456693},{"duration":0.06976744186047057,"midi":86,"time":47.41860465116279,"velocity":0.2047244094488189},{"duration":0.046511627906973274,"midi":89,"time":47.43023255813954,"velocity":0.30708661417322836},{"duration":0.02325581395349019,"midi":37,"time":47.44186046511628,"velocity":0.41732283464566927},{"duration":0.02325581395349019,"midi":55,"time":47.44186046511628,"velocity":0.3779527559055118},{"duration":0.06976744186046346,"midi":88,"time":47.44186046511628,"velocity":0.2440944881889764},{"duration":0.12790697674418539,"midi":90,"time":47.45348837209303,"velocity":0.18110236220472442},{"duration":0.30232558139534405,"midi":100,"time":47.45348837209303,"velocity":0.2677165354330709},{"duration":0.03488372093023173,"midi":78,"time":47.46511627906977,"velocity":0.2204724409448819},{"duration":0.05813953488372192,"midi":91,"time":47.46511627906977,"velocity":0.15748031496062992},{"duration":0.5697674418604635,"midi":102,"time":47.46511627906977,"velocity":0.3858267716535433},{"duration":0.03488372093023173,"midi":58,"time":47.47674418604651,"velocity":0.3464566929133858},{"duration":0.03488372093023173,"midi":76,"time":47.47674418604651,"velocity":0.2992125984251969},{"duration":0.04651162790698038,"midi":81,"time":47.47674418604651,"velocity":0.2677165354330709},{"duration":0.023255813953483084,"midi":65,"time":47.48837209302326,"velocity":0.2440944881889764},{"duration":0.17441860465116577,"midi":48,"time":47.5,"velocity":0.3464566929133858},{"duration":0.02325581395349019,"midi":71,"time":47.5,"velocity":0.3779527559055118},{"duration":0.1046511627907023,"midi":77,"time":47.51162790697674,"velocity":0.25984251968503935},{"duration":0.03488372093023173,"midi":80,"time":47.51162790697674,"velocity":0.18110236220472442},{"duration":0.08139534883721211,"midi":86,"time":47.51162790697674,"velocity":0.2992125984251969},{"duration":0.3372093023255829,"midi":89,"time":47.51162790697674,"velocity":0.25984251968503935},{"duration":0.11627906976744384,"midi":96,"time":47.51162790697674,"velocity":0.2755905511811024},{"duration":0.03488372093023173,"midi":65,"time":47.52325581395349,"velocity":0.4015748031496063},{"duration":0.05813953488372192,"midi":70,"time":47.52325581395349,"velocity":0.48031496062992124},{"duration":0.046511627906973274,"midi":88,"time":47.52325581395349,"velocity":0.11023622047244094},{"duration":0.1046511627906952,"midi":36,"time":47.53488372093023,"velocity":0.3700787401574803},{"duration":0.03488372093023884,"midi":91,"time":47.54651162790697,"velocity":0.10236220472440945},{"duration":0.03488372093023173,"midi":55,"time":47.55813953488372,"velocity":0.3543307086614173},{"duration":0.03488372093023173,"midi":68,"time":47.55813953488372,"velocity":0.3700787401574803},{"duration":0.03488372093023173,"midi":75,"time":47.55813953488372,"velocity":0.1732283464566929},{"duration":0.13953488372092693,"midi":92,"time":47.55813953488372,"velocity":0.15748031496062992},{"duration":0.02325581395349019,"midi":56,"time":47.593023255813954,"velocity":0.3228346456692913},{"duration":0.17441860465116577,"midi":65,"time":47.593023255813954,"velocity":0.31496062992125984},{"duration":0.05813953488372192,"midi":70,"time":47.593023255813954,"velocity":0.28346456692913385},{"duration":0.05813953488372192,"midi":84,"time":47.593023255813954,"velocity":0.4251968503937008},{"duration":0.03488372093023173,"midi":88,"time":47.593023255813954,"velocity":0.25196850393700787},{"duration":0.12790697674418539,"midi":94,"time":47.593023255813954,"velocity":0.25196850393700787},{"duration":0.1046511627906952,"midi":97,"time":47.593023255813954,"velocity":0.2755905511811024},{"duration":0.05813953488372192,"midi":73,"time":47.604651162790695,"velocity":0.5590551181102362},{"duration":0.03488372093023173,"midi":75,"time":47.604651162790695,"velocity":0.2204724409448819},{"duration":0.46511627906976827,"midi":99,"time":47.604651162790695,"velocity":0.4251968503937008},{"duration":0.5348837209302317,"midi":101,"time":47.604651162790695,"velocity":0.33858267716535434},{"duration":0.03488372093023173,"midi":90,"time":47.616279069767444,"velocity":0.12598425196850394},{"duration":0.04651162790698038,"midi":68,"time":47.63953488372093,"velocity":0.15748031496062992},{"duration":0.03488372093023884,"midi":80,"time":47.63953488372093,"velocity":0.2755905511811024},{"duration":0.2093023255813975,"midi":82,"time":47.63953488372093,"velocity":0.3937007874015748},{"duration":0.16279069767441712,"midi":70,"time":47.66279069767442,"velocity":0.4881889763779528},{"duration":0.05813953488372192,"midi":72,"time":47.66279069767442,"velocity":0.5275590551181102},{"duration":0.09302325581395365,"midi":86,"time":47.66279069767442,"velocity":0.31496062992125984},{"duration":0.03488372093023173,"midi":87,"time":47.66279069767442,"velocity":0.2047244094488189},{"duration":0.03488372093023173,"midi":88,"time":47.66279069767442,"velocity":0.2125984251968504},{"duration":0.15116279069767558,"midi":96,"time":47.66279069767442,"velocity":0.3228346456692913},{"duration":0.03488372093023173,"midi":83,"time":47.674418604651166,"velocity":0.33858267716535434},{"duration":0.058139534883714816,"midi":85,"time":47.674418604651166,"velocity":0.2125984251968504},{"duration":0.046511627906973274,"midi":91,"time":47.674418604651166,"velocity":0.08661417322834646},{"duration":0.03488372093023173,"midi":93,"time":47.68604651162791,"velocity":0.10236220472440945},{"duration":0.03488372093023173,"midi":87,"time":47.7093023255814,"velocity":0.14173228346456693},{"duration":0.2093023255813975,"midi":92,"time":47.72093023255814,"velocity":0.1889763779527559},{"duration":0.02325581395349019,"midi":75,"time":47.73255813953488,"velocity":0.23622047244094488},{"duration":0.05813953488372192,"midi":83,"time":47.73255813953488,"velocity":0.2283464566929134},{"duration":0.03488372093023884,"midi":90,"time":47.73255813953488,"velocity":0.14960629921259844},{"duration":0.04651162790698038,"midi":91,"time":47.73255813953488,"velocity":0.15748031496062992},{"duration":0.7906976744186096,"midi":97,"time":47.73255813953488,"velocity":0.29133858267716534},{"duration":0.081395348837205,"midi":72,"time":47.74418604651163,"velocity":0.3228346456692913},{"duration":0.03488372093023173,"midi":79,"time":47.74418604651163,"velocity":0.18110236220472442},{"duration":0.13953488372092693,"midi":80,"time":47.74418604651163,"velocity":0.23622047244094488},{"duration":0.03488372093023173,"midi":88,"time":47.74418604651163,"velocity":0.1889763779527559},{"duration":0.02325581395349019,"midi":45,"time":47.75581395348837,"velocity":0.33858267716535434},{"duration":0.02325581395349019,"midi":53,"time":47.75581395348837,"velocity":0.2677165354330709},{"duration":0.03488372093023173,"midi":76,"time":47.75581395348837,"velocity":0.2440944881889764},{"duration":0.06976744186046346,"midi":58,"time":47.76744186046512,"velocity":0.4409448818897638},{"duration":0.06976744186046346,"midi":86,"time":47.76744186046512,"velocity":0.3937007874015748},{"duration":0.02325581395349019,"midi":62,"time":47.77906976744186,"velocity":0.2440944881889764},{"duration":0.06976744186047057,"midi":91,"time":47.7906976744186,"velocity":0.14173228346456693},{"duration":0.06976744186046346,"midi":46,"time":47.80232558139535,"velocity":0.2283464566929134},{"duration":0.06976744186046346,"midi":34,"time":47.81395348837209,"velocity":0.31496062992125984},{"duration":0.03488372093023884,"midi":66,"time":47.825581395348834,"velocity":0.2283464566929134},{"duration":0.03488372093023884,"midi":73,"time":47.825581395348834,"velocity":0.3700787401574803},{"duration":0.15116279069767558,"midi":85,"time":47.83720930232558,"velocity":0.4645669291338583},{"duration":0.13953488372092693,"midi":95,"time":47.83720930232558,"velocity":0.2283464566929134},{"duration":0.04651162790698038,"midi":83,"time":47.848837209302324,"velocity":0.2440944881889764},{"duration":0.04651162790698038,"midi":90,"time":47.848837209302324,"velocity":0.25984251968503935},{"duration":0.03488372093023173,"midi":68,"time":47.86046511627907,"velocity":0.2440944881889764},{"duration":0.046511627906973274,"midi":72,"time":47.86046511627907,"velocity":0.33070866141732286},{"duration":0.081395348837205,"midi":82,"time":47.86046511627907,"velocity":0.2047244094488189},{"duration":0.046511627906973274,"midi":88,"time":47.86046511627907,"velocity":0.33858267716535434},{"duration":0.03488372093023173,"midi":93,"time":47.86046511627907,"velocity":0.1732283464566929},{"duration":0.11627906976743674,"midi":96,"time":47.86046511627907,"velocity":0.11811023622047244},{"duration":0.1046511627906952,"midi":103,"time":47.86046511627907,"velocity":0.2125984251968504},{"duration":0.1046511627906952,"midi":61,"time":47.872093023255815,"velocity":0.5196850393700787},{"duration":0.02325581395349019,"midi":66,"time":47.872093023255815,"velocity":0.29133858267716534},{"duration":0.04651162790698038,"midi":76,"time":47.883720930232556,"velocity":0.09448818897637795},{"duration":0.08139534883721211,"midi":81,"time":47.883720930232556,"velocity":0.4094488188976378},{"duration":0.011627906976741542,"midi":47,"time":47.895348837209305,"velocity":0.5590551181102362},{"duration":0.09302325581395365,"midi":65,"time":47.895348837209305,"velocity":0.2755905511811024},{"duration":0.046511627906973274,"midi":69,"time":47.895348837209305,"velocity":0.2204724409448819},{"duration":0.011627906976741542,"midi":45,"time":47.906976744186046,"velocity":0.6299212598425197},{"duration":0.02325581395349019,"midi":74,"time":47.906976744186046,"velocity":0.44881889763779526},{"duration":0.06976744186046346,"midi":89,"time":47.906976744186046,"velocity":0.2992125984251969},{"duration":0.011627906976748648,"midi":44,"time":47.91860465116279,"velocity":0.6141732283464567},{"duration":0.08139534883721211,"midi":98,"time":47.91860465116279,"velocity":0.11811023622047244},{"duration":0.02325581395349019,"midi":42,"time":47.93023255813954,"velocity":0.5433070866141733},{"duration":0.11627906976743674,"midi":100,"time":47.93023255813954,"velocity":0.33070866141732286},{"duration":0.09302325581395365,"midi":70,"time":47.94186046511628,"velocity":0.31496062992125984},{"duration":0.023255813953483084,"midi":41,"time":47.95348837209303,"velocity":0.3858267716535433},{"duration":0.046511627906973274,"midi":72,"time":47.96511627906977,"velocity":0.5433070866141733},{"duration":0.046511627906973274,"midi":88,"time":47.96511627906977,"velocity":0.33070866141732286},{"duration":0.03488372093023173,"midi":92,"time":47.96511627906977,"velocity":0.11811023622047244},{"duration":0.02325581395349019,"midi":46,"time":47.97674418604651,"velocity":0.29133858267716534},{"duration":0.06976744186046346,"midi":80,"time":47.97674418604651,"velocity":0.3464566929133858},{"duration":0.03488372093023173,"midi":91,"time":47.97674418604651,"velocity":0.15748031496062992},{"duration":0.03488372093023173,"midi":94,"time":47.97674418604651,"velocity":0.16535433070866143},{"duration":0.05813953488372192,"midi":73,"time":48.01162790697674,"velocity":0.5354330708661418},{"duration":0.1046511627907023,"midi":89,"time":48.01162790697674,"velocity":0.36220472440944884},{"duration":0.08139534883721211,"midi":95,"time":48.01162790697674,"velocity":0.23622047244094488},{"duration":0.03488372093023173,"midi":61,"time":48.02325581395349,"velocity":0.2283464566929134},{"duration":0.03488372093023173,"midi":65,"time":48.03488372093023,"velocity":0.2283464566929134},{"duration":0.05813953488372192,"midi":103,"time":48.03488372093023,"velocity":0.2677165354330709},{"duration":0.05813953488372192,"midi":78,"time":48.04651162790697,"velocity":0.16535433070866143},{"duration":0.02325581395349019,"midi":81,"time":48.04651162790697,"velocity":0.4330708661417323},{"duration":0.19767441860465595,"midi":82,"time":48.04651162790697,"velocity":0.2125984251968504},{"duration":0.06976744186046346,"midi":70,"time":48.05813953488372,"velocity":0.1968503937007874},{"duration":0.11627906976744384,"midi":100,"time":48.05813953488372,"velocity":0.3779527559055118},{"duration":0.03488372093023173,"midi":61,"time":48.06976744186046,"velocity":0.2755905511811024},{"duration":0.02325581395349019,"midi":74,"time":48.06976744186046,"velocity":0.30708661417322836},{"duration":0.05813953488372192,"midi":80,"time":48.06976744186046,"velocity":0.49606299212598426},{"duration":0.04651162790698038,"midi":93,"time":48.06976744186046,"velocity":0.11023622047244094},{"duration":0.058139534883714816,"midi":65,"time":48.08139534883721,"velocity":0.2677165354330709},{"duration":0.046511627906973274,"midi":99,"time":48.08139534883721,"velocity":0.33858267716535434},{"duration":0.46511627906976116,"midi":102,"time":48.08139534883721,"velocity":0.4566929133858268},{"duration":0.046511627906973274,"midi":73,"time":48.093023255813954,"velocity":0.5118110236220472},{"duration":0.04651162790698038,"midi":68,"time":48.104651162790695,"velocity":0.18110236220472442},{"duration":0.06976744186046346,"midi":61,"time":48.116279069767444,"velocity":0.30708661417322836},{"duration":0.06976744186046346,"midi":88,"time":48.116279069767444,"velocity":0.3779527559055118},{"duration":0.046511627906973274,"midi":95,"time":48.116279069767444,"velocity":0.1889763779527559},{"duration":0.03488372093023173,"midi":103,"time":48.116279069767444,"velocity":0.12598425196850394},{"duration":0.03488372093023173,"midi":72,"time":48.127906976744185,"velocity":0.5433070866141733},{"duration":0.04651162790698038,"midi":79,"time":48.127906976744185,"velocity":0.36220472440944884},{"duration":0.03488372093023173,"midi":83,"time":48.127906976744185,"velocity":0.16535433070866143},{"duration":0.03488372093023173,"midi":89,"time":48.127906976744185,"velocity":0.2125984251968504},{"duration":0.03488372093023173,"midi":98,"time":48.127906976744185,"velocity":0.14960629921259844},{"duration":0.03488372093023884,"midi":76,"time":48.13953488372093,"velocity":0.14960629921259844},{"duration":0.02325581395349019,"midi":80,"time":48.13953488372093,"velocity":0.2755905511811024},{"duration":0.03488372093023173,"midi":69,"time":48.151162790697676,"velocity":0.2440944881889764},{"duration":1.0116279069767415,"midi":101,"time":48.151162790697676,"velocity":0.4409448818897638},{"duration":0.22093023255813904,"midi":73,"time":48.16279069767442,"velocity":0.5669291338582677},{"duration":0.09302325581395365,"midi":77,"time":48.16279069767442,"velocity":0.31496062992125984},{"duration":0.09302325581395365,"midi":103,"time":48.16279069767442,"velocity":0.2992125984251969},{"duration":0.03488372093023173,"midi":38,"time":48.174418604651166,"velocity":0.3543307086614173},{"duration":0.27906976744186096,"midi":70,"time":48.174418604651166,"velocity":0.28346456692913385},{"duration":0.17441860465115866,"midi":80,"time":48.174418604651166,"velocity":0.4645669291338583},{"duration":0.058139534883714816,"midi":99,"time":48.174418604651166,"velocity":0.28346456692913385},{"duration":0.05813953488372192,"midi":100,"time":48.18604651162791,"velocity":0.25196850393700787},{"duration":0.2093023255813975,"midi":61,"time":48.19767441860465,"velocity":0.5118110236220472},{"duration":0.03488372093023173,"midi":66,"time":48.19767441860465,"velocity":0.23622047244094488},{"duration":0.08139534883721211,"midi":95,"time":48.19767441860465,"velocity":0.16535433070866143},{"duration":0.06976744186046346,"midi":66,"time":48.24418604651163,"velocity":0.30708661417322836},{"duration":0.3139534883720927,"midi":99,"time":48.24418604651163,"velocity":0.30708661417322836},{"duration":0.03488372093023173,"midi":46,"time":48.26744186046512,"velocity":0.2204724409448819},{"duration":0.046511627906973274,"midi":94,"time":48.26744186046512,"velocity":0.15748031496062992},{"duration":0.2674418604651123,"midi":77,"time":48.27906976744186,"velocity":0.3228346456692913},{"duration":0.04651162790698038,"midi":88,"time":48.2906976744186,"velocity":0.29133858267716534},{"duration":0.03488372093023884,"midi":46,"time":48.325581395348834,"velocity":0.29133858267716534},{"duration":0.06976744186047057,"midi":66,"time":48.325581395348834,"velocity":0.3937007874015748},{"duration":0.03488372093023173,"midi":95,"time":48.33720930232558,"velocity":0.11023622047244094},{"duration":0.6162790697674438,"midi":103,"time":48.33720930232558,"velocity":0.3700787401574803},{"duration":0.03488372093023173,"midi":86,"time":48.36046511627907,"velocity":0.29133858267716534},{"duration":0.046511627906973274,"midi":80,"time":48.372093023255815,"velocity":0.23622047244094488},{"duration":0.046511627906973274,"midi":96,"time":48.372093023255815,"velocity":0.09448818897637795},{"duration":0.02325581395349019,"midi":38,"time":48.383720930232556,"velocity":0.2283464566929134},{"duration":0.02325581395349019,"midi":74,"time":48.383720930232556,"velocity":0.29133858267716534},{"duration":0.08139534883721211,"midi":90,"time":48.383720930232556,"velocity":0.25196850393700787},{"duration":0.023255813953483084,"midi":63,"time":48.395348837209305,"velocity":0.44881889763779526},{"duration":0.046511627906973274,"midi":88,"time":48.395348837209305,"velocity":0.1889763779527559},{"duration":0.046511627906973274,"midi":94,"time":48.395348837209305,"velocity":0.1889763779527559},{"duration":0.1046511627906952,"midi":95,"time":48.395348837209305,"velocity":0.13385826771653545},{"duration":0.2093023255813975,"midi":75,"time":48.406976744186046,"velocity":0.4566929133858268},{"duration":0.16279069767441712,"midi":91,"time":48.406976744186046,"velocity":0.2992125984251969},{"duration":0.02325581395349019,"midi":45,"time":48.41860465116279,"velocity":0.5748031496062992},{"duration":0.02325581395349019,"midi":62,"time":48.41860465116279,"velocity":0.4645669291338583},{"duration":0.03488372093023884,"midi":81,"time":48.41860465116279,"velocity":0.2125984251968504},{"duration":0.03488372093023884,"midi":83,"time":48.41860465116279,"velocity":0.14173228346456693},{"duration":0.12790697674418539,"midi":63,"time":48.43023255813954,"velocity":0.44881889763779526},{"duration":0.1046511627906952,"midi":66,"time":48.43023255813954,"velocity":0.3858267716535433},{"duration":0.09302325581395365,"midi":80,"time":48.43023255813954,"velocity":0.2283464566929134},{"duration":0.011627906976748648,"midi":44,"time":48.44186046511628,"velocity":0.5905511811023622},{"duration":0.16279069767441712,"midi":82,"time":48.44186046511628,"velocity":0.30708661417322836},{"duration":0.011627906976741542,"midi":43,"time":48.45348837209303,"velocity":0.5748031496062992},{"duration":0.011627906976741542,"midi":42,"time":48.46511627906977,"velocity":0.5354330708661418},{"duration":0.03488372093023173,"midi":86,"time":48.46511627906977,"velocity":0.11811023622047244},{"duration":0.05813953488372192,"midi":100,"time":48.46511627906977,"velocity":0.08661417322834646},{"duration":0.023255813953483084,"midi":53,"time":48.48837209302326,"velocity":0.2677165354330709},{"duration":0.09302325581395365,"midi":70,"time":48.48837209302326,"velocity":0.4645669291338583},{"duration":0.046511627906973274,"midi":96,"time":48.5,"velocity":0.2677165354330709},{"duration":0.02325581395349019,"midi":37,"time":48.51162790697674,"velocity":0.3700787401574803},{"duration":0.05813953488372192,"midi":90,"time":48.52325581395349,"velocity":0.1732283464566929},{"duration":0.05813953488372192,"midi":93,"time":48.52325581395349,"velocity":0.2125984251968504},{"duration":0.02325581395349019,"midi":36,"time":48.53488372093023,"velocity":0.28346456692913385},{"duration":0.02325581395349019,"midi":73,"time":48.53488372093023,"velocity":0.25984251968503935},{"duration":0.04651162790698038,"midi":80,"time":48.53488372093023,"velocity":0.25196850393700787},{"duration":0.04651162790698038,"midi":95,"time":48.53488372093023,"velocity":0.11023622047244094},{"duration":0.11627906976744384,"midi":55,"time":48.54651162790697,"velocity":0.2755905511811024},{"duration":0.02325581395349019,"midi":60,"time":48.54651162790697,"velocity":0.29133858267716534},{"duration":0.02325581395349019,"midi":40,"time":48.55813953488372,"velocity":0.28346456692913385},{"duration":0.1046511627906952,"midi":48,"time":48.55813953488372,"velocity":0.33070866141732286},{"duration":0.02325581395349019,"midi":65,"time":48.55813953488372,"velocity":0.4251968503937008},{"duration":0.02325581395349019,"midi":61,"time":48.56976744186046,"velocity":0.4015748031496063},{"duration":0.1046511627907023,"midi":68,"time":48.56976744186046,"velocity":0.5433070866141733},{"duration":0.09302325581395365,"midi":73,"time":48.58139534883721,"velocity":0.49606299212598426},{"duration":0.08139534883721211,"midi":36,"time":48.593023255813954,"velocity":0.3464566929133858},{"duration":0.03488372093023173,"midi":63,"time":48.604651162790695,"velocity":0.3543307086614173},{"duration":0.04651162790698038,"midi":60,"time":48.627906976744185,"velocity":0.33858267716535434},{"duration":0.22093023255813904,"midi":75,"time":48.627906976744185,"velocity":0.3543307086614173},{"duration":0.05813953488372192,"midi":84,"time":48.627906976744185,"velocity":0.3779527559055118},{"duration":0.1046511627906952,"midi":91,"time":48.627906976744185,"velocity":0.2125984251968504},{"duration":0.05813953488372192,"midi":88,"time":48.63953488372093,"velocity":0.30708661417322836},{"duration":0.2674418604651194,"midi":94,"time":48.63953488372093,"velocity":0.1732283464566929},{"duration":0.09302325581395365,"midi":95,"time":48.63953488372093,"velocity":0.18110236220472442},{"duration":0.03488372093023173,"midi":81,"time":48.651162790697676,"velocity":0.14960629921259844},{"duration":0.05813953488372192,"midi":87,"time":48.651162790697676,"velocity":0.3937007874015748},{"duration":0.1046511627906952,"midi":102,"time":48.651162790697676,"velocity":0.29133858267716534},{"duration":0.05813953488372192,"midi":63,"time":48.66279069767442,"velocity":0.3858267716535433},{"duration":0.06976744186046346,"midi":90,"time":48.66279069767442,"velocity":0.23622047244094488},{"duration":0.12790697674418539,"midi":100,"time":48.66279069767442,"velocity":0.3858267716535433},{"duration":0.06976744186046346,"midi":72,"time":48.674418604651166,"velocity":0.5196850393700787},{"duration":0.081395348837205,"midi":78,"time":48.674418604651166,"velocity":0.31496062992125984},{"duration":0.058139534883714816,"midi":83,"time":48.674418604651166,"velocity":0.3937007874015748},{"duration":0.02325581395349019,"midi":45,"time":48.68604651162791,"velocity":0.3464566929133858},{"duration":0.05813953488372192,"midi":58,"time":48.68604651162791,"velocity":0.36220472440944884},{"duration":0.03488372093023173,"midi":68,"time":48.68604651162791,"velocity":0.15748031496062992},{"duration":0.02325581395349019,"midi":53,"time":48.69767441860465,"velocity":0.2755905511811024},{"duration":0.06976744186047057,"midi":86,"time":48.69767441860465,"velocity":0.4645669291338583},{"duration":0.06976744186046346,"midi":88,"time":48.7093023255814,"velocity":0.12598425196850394},{"duration":0.12790697674418539,"midi":46,"time":48.72093023255814,"velocity":0.28346456692913385},{"duration":0.05813953488372192,"midi":80,"time":48.73255813953488,"velocity":0.1968503937007874},{"duration":0.03488372093023884,"midi":82,"time":48.73255813953488,"velocity":0.44881889763779526},{"duration":0.03488372093023884,"midi":89,"time":48.73255813953488,"velocity":0.3464566929133858},{"duration":0.081395348837205,"midi":34,"time":48.74418604651163,"velocity":0.28346456692913385},{"duration":0.03488372093023173,"midi":68,"time":48.74418604651163,"velocity":0.2125984251968504},{"duration":0.05813953488372192,"midi":53,"time":48.75581395348837,"velocity":0.28346456692913385},{"duration":0.02325581395349019,"midi":58,"time":48.75581395348837,"velocity":0.3779527559055118},{"duration":0.03488372093023173,"midi":63,"time":48.75581395348837,"velocity":0.28346456692913385},{"duration":0.08139534883721211,"midi":85,"time":48.75581395348837,"velocity":0.07874015748031496},{"duration":0.1860465116279073,"midi":72,"time":48.76744186046512,"velocity":0.3937007874015748},{"duration":0.03488372093023173,"midi":83,"time":48.76744186046512,"velocity":0.3937007874015748},{"duration":0.06976744186046346,"midi":87,"time":48.76744186046512,"velocity":0.49606299212598426},{"duration":0.058139534883714816,"midi":90,"time":48.76744186046512,"velocity":0.2677165354330709},{"duration":0.03488372093023173,"midi":59,"time":48.77906976744186,"velocity":0.2992125984251969},{"duration":0.09302325581395365,"midi":79,"time":48.77906976744186,"velocity":0.3464566929133858},{"duration":0.08139534883721211,"midi":93,"time":48.77906976744186,"velocity":0.11811023622047244},{"duration":0.04651162790698038,"midi":84,"time":48.7906976744186,"velocity":0.44881889763779526},{"duration":0.05813953488372192,"midi":68,"time":48.80232558139535,"velocity":0.2992125984251969},{"duration":0.12790697674418539,"midi":98,"time":48.80232558139535,"velocity":0.11023622047244094},{"duration":0.4418604651162781,"midi":100,"time":48.80232558139535,"velocity":0.41732283464566927},{"duration":0.04651162790698038,"midi":60,"time":48.81395348837209,"velocity":0.29133858267716534},{"duration":0.08139534883721211,"midi":88,"time":48.825581395348834,"velocity":0.41732283464566927},{"duration":0.046511627906973274,"midi":86,"time":48.83720930232558,"velocity":0.14173228346456693},{"duration":0.17441860465115866,"midi":102,"time":48.83720930232558,"velocity":0.1889763779527559},{"duration":0.04651162790698038,"midi":84,"time":48.848837209302324,"velocity":0.4330708661417323},{"duration":0.09302325581395365,"midi":95,"time":48.86046511627907,"velocity":0.14960629921259844},{"duration":0.03488372093023173,"midi":63,"time":48.872093023255815,"velocity":0.14960629921259844},{"duration":0.02325581395349019,"midi":78,"time":48.872093023255815,"velocity":0.29133858267716534},{"duration":0.02325581395349019,"midi":87,"time":48.872093023255815,"velocity":0.3543307086614173},{"duration":0.08139534883721211,"midi":83,"time":48.883720930232556,"velocity":0.4015748031496063},{"duration":0.023255813953483084,"midi":60,"time":48.895348837209305,"velocity":0.25196850393700787},{"duration":0.046511627906973274,"midi":68,"time":48.895348837209305,"velocity":0.14960629921259844},{"duration":0.046511627906973274,"midi":91,"time":48.895348837209305,"velocity":0.11811023622047244},{"duration":0.03488372093023173,"midi":78,"time":48.906976744186046,"velocity":0.2992125984251969},{"duration":0.04651162790698038,"midi":92,"time":48.906976744186046,"velocity":0.11023622047244094},{"duration":0.02325581395349019,"midi":82,"time":48.91860465116279,"velocity":0.3858267716535433},{"duration":0.40697674418604635,"midi":86,"time":48.91860465116279,"velocity":0.4094488188976378},{"duration":0.04651162790698038,"midi":89,"time":48.91860465116279,"velocity":0.2283464566929134},{"duration":0.05813953488372192,"midi":66,"time":48.93023255813954,"velocity":0.1889763779527559},{"duration":0.2674418604651123,"midi":77,"time":48.93023255813954,"velocity":0.4251968503937008},{"duration":0.046511627906973274,"midi":87,"time":48.93023255813954,"velocity":0.3858267716535433},{"duration":0.02325581395349019,"midi":71,"time":48.94186046511628,"velocity":0.25196850393700787},{"duration":0.06976744186046346,"midi":80,"time":48.94186046511628,"velocity":0.16535433070866143},{"duration":0.03488372093023173,"midi":88,"time":48.94186046511628,"velocity":0.10236220472440945},{"duration":0.011627906976741542,"midi":48,"time":48.95348837209303,"velocity":0.5118110236220472},{"duration":0.058139534883714816,"midi":63,"time":48.95348837209303,"velocity":0.2204724409448819},{"duration":0.27906976744185386,"midi":75,"time":48.95348837209303,"velocity":0.3858267716535433},{"duration":0.03488372093023173,"midi":82,"time":48.95348837209303,"velocity":0.3937007874015748},{"duration":0.011627906976741542,"midi":45,"time":48.96511627906977,"velocity":0.5748031496062992},{"duration":0.03488372093023173,"midi":56,"time":48.96511627906977,"velocity":0.25984251968503935},{"duration":0.03488372093023173,"midi":70,"time":48.96511627906977,"velocity":0.31496062992125984},{"duration":0.03488372093023173,"midi":42,"time":48.97674418604651,"velocity":0.5748031496062992},{"duration":0.02325581395349019,"midi":83,"time":48.97674418604651,"velocity":0.3779527559055118},{"duration":0.03488372093023173,"midi":91,"time":48.97674418604651,"velocity":0.11023622047244094},{"duration":0.09302325581395365,"midi":103,"time":48.97674418604651,"velocity":0.23622047244094488},{"duration":0.19767441860464885,"midi":88,"time":48.98837209302326,"velocity":0.2204724409448819},{"duration":0.1046511627906952,"midi":51,"time":49,"velocity":0.2992125984251969},{"duration":0.02325581395349019,"midi":71,"time":49,"velocity":0.25984251968503935},{"duration":0.30232558139535115,"midi":82,"time":49,"velocity":0.4015748031496063},{"duration":0.02325581395349019,"midi":59,"time":49.01162790697674,"velocity":0.33858267716535434},{"duration":0.023255813953483084,"midi":40,"time":49.02325581395349,"velocity":0.3779527559055118},{"duration":0.11627906976743674,"midi":70,"time":49.02325581395349,"velocity":0.3700787401574803},{"duration":0.2674418604651123,"midi":72,"time":49.02325581395349,"velocity":0.3937007874015748},{"duration":0.11627906976743674,"midi":79,"time":49.02325581395349,"velocity":0.14173228346456693},{"duration":0.05813953488372192,"midi":97,"time":49.02325581395349,"velocity":0.14173228346456693},{"duration":0.08139534883721211,"midi":58,"time":49.03488372093023,"velocity":0.33070866141732286},{"duration":0.02325581395349019,"midi":68,"time":49.05813953488372,"velocity":0.2283464566929134},{"duration":0.02325581395349019,"midi":34,"time":49.06976744186046,"velocity":0.3464566929133858},{"duration":0.09302325581395365,"midi":102,"time":49.08139534883721,"velocity":0.15748031496062992},{"duration":0.30232558139535115,"midi":68,"time":49.093023255813954,"velocity":0.49606299212598426},{"duration":0.4767441860465098,"midi":99,"time":49.093023255813954,"velocity":0.33858267716535434},{"duration":0.03488372093023173,"midi":44,"time":49.104651162790695,"velocity":0.08661417322834646},{"duration":0.03488372093023173,"midi":57,"time":49.116279069767444,"velocity":0.5275590551181102},{"duration":0.046511627906973274,"midi":83,"time":49.116279069767444,"velocity":0.14960629921259844},{"duration":0.046511627906973274,"midi":56,"time":49.151162790697676,"velocity":0.5118110236220472},{"duration":0.06976744186046346,"midi":91,"time":49.16279069767442,"velocity":0.29133858267716534},{"duration":0.11627906976743674,"midi":92,"time":49.174418604651166,"velocity":0.4094488188976378},{"duration":0.058139534883714816,"midi":97,"time":49.174418604651166,"velocity":0.23622047244094488},{"duration":0.03488372093023173,"midi":101,"time":49.174418604651166,"velocity":0.12598425196850394},{"duration":0.03488372093023173,"midi":93,"time":49.18604651162791,"velocity":0.11811023622047244},{"duration":0.2906976744186025,"midi":96,"time":49.18604651162791,"velocity":0.3858267716535433},{"duration":0.02325581395349019,"midi":55,"time":49.19767441860465,"velocity":0.31496062992125984},{"duration":0.05813953488372192,"midi":78,"time":49.19767441860465,"velocity":0.2125984251968504},{"duration":0.08139534883721211,"midi":90,"time":49.19767441860465,"velocity":0.30708661417322836},{"duration":0.22093023255813904,"midi":103,"time":49.19767441860465,"velocity":0.33070866141732286},{"duration":0.05813953488372192,"midi":81,"time":49.2093023255814,"velocity":0.16535433070866143},{"duration":0.17441860465116577,"midi":44,"time":49.22093023255814,"velocity":0.3779527559055118},{"duration":0.11627906976744384,"midi":51,"time":49.22093023255814,"velocity":0.2992125984251969},{"duration":0.02325581395349019,"midi":76,"time":49.22093023255814,"velocity":0.4409448818897638},{"duration":0.02325581395349019,"midi":70,"time":49.23255813953488,"velocity":0.2283464566929134},{"duration":0.05813953488372192,"midi":101,"time":49.23255813953488,"velocity":0.2047244094488189},{"duration":0.2093023255813975,"midi":63,"time":49.24418604651163,"velocity":0.33070866141732286},{"duration":0.046511627906973274,"midi":75,"time":49.24418604651163,"velocity":0.4881889763779528},{"duration":0.03488372093023173,"midi":77,"time":49.24418604651163,"velocity":0.23622047244094488},{"duration":0.02325581395349019,"midi":57,"time":49.25581395348837,"velocity":0.33858267716535434},{"duration":0.046511627906973274,"midi":70,"time":49.26744186046512,"velocity":0.1889763779527559},{"duration":0.058139534883714816,"midi":89,"time":49.26744186046512,"velocity":0.2992125984251969},{"duration":0.02325581395349019,"midi":33,"time":49.27906976744186,"velocity":0.2755905511811024},{"duration":0.03488372093023173,"midi":79,"time":49.27906976744186,"velocity":0.2677165354330709},{"duration":0.06976744186046346,"midi":83,"time":49.27906976744186,"velocity":0.2440944881889764},{"duration":0.1860465116279073,"midi":91,"time":49.27906976744186,"velocity":0.4881889763779528},{"duration":0.05813953488372192,"midi":93,"time":49.27906976744186,"velocity":0.2283464566929134},{"duration":0.15116279069767558,"midi":95,"time":49.27906976744186,"velocity":0.33858267716535434},{"duration":0.13953488372092693,"midi":97,"time":49.27906976744186,"velocity":0.28346456692913385},{"duration":0.04651162790698038,"midi":74,"time":49.2906976744186,"velocity":0.3779527559055118},{"duration":0.081395348837205,"midi":32,"time":49.30232558139535,"velocity":0.29133858267716534},{"duration":0.05813953488372192,"midi":57,"time":49.30232558139535,"velocity":0.4094488188976378},{"duration":0.05813953488372192,"midi":100,"time":49.30232558139535,"velocity":0.16535433070866143},{"duration":0.04651162790698038,"midi":94,"time":49.31395348837209,"velocity":0.2677165354330709},{"duration":0.6744186046511658,"midi":75,"time":49.325581395348834,"velocity":0.48031496062992124},{"duration":0.03488372093023884,"midi":77,"time":49.325581395348834,"velocity":0.13385826771653545},{"duration":0.03488372093023884,"midi":84,"time":49.325581395348834,"velocity":0.18110236220472442},{"duration":0.09302325581395365,"midi":90,"time":49.325581395348834,"velocity":0.3779527559055118},{"duration":0.2093023255813975,"midi":101,"time":49.325581395348834,"velocity":0.29133858267716534},{"duration":0.43023255813953654,"midi":72,"time":49.33720930232558,"velocity":0.30708661417322836},{"duration":0.046511627906973274,"midi":56,"time":49.36046511627907,"velocity":0.4251968503937008},{"duration":0.058139534883714816,"midi":81,"time":49.36046511627907,"velocity":0.30708661417322836},{"duration":0.12790697674418539,"midi":94,"time":49.372093023255815,"velocity":0.1968503937007874},{"duration":0.05813953488372192,"midi":100,"time":49.372093023255815,"velocity":0.1968503937007874},{"duration":0.023255813953483084,"midi":67,"time":49.395348837209305,"velocity":0.33070866141732286},{"duration":0.06976744186046346,"midi":82,"time":49.406976744186046,"velocity":0.14173228346456693},{"duration":0.03488372093023884,"midi":68,"time":49.41860465116279,"velocity":0.33070866141732286},{"duration":0.04651162790698038,"midi":86,"time":49.44186046511628,"velocity":0.14173228346456693},{"duration":0.13953488372093403,"midi":90,"time":49.44186046511628,"velocity":0.28346456692913385},{"duration":0.05813953488372192,"midi":92,"time":49.44186046511628,"velocity":0.1889763779527559},{"duration":0.046511627906973274,"midi":60,"time":49.45348837209303,"velocity":0.4015748031496063},{"duration":0.1046511627906952,"midi":93,"time":49.45348837209303,"velocity":0.18110236220472442},{"duration":0.046511627906973274,"midi":95,"time":49.45348837209303,"velocity":0.14960629921259844},{"duration":0.09302325581394655,"midi":97,"time":49.45348837209303,"velocity":0.1732283464566929},{"duration":0.03488372093023173,"midi":100,"time":49.45348837209303,"velocity":0.2204724409448819},{"duration":0.03488372093023173,"midi":45,"time":49.46511627906977,"velocity":0.5826771653543307},{"duration":0.011627906976741542,"midi":55,"time":49.46511627906977,"velocity":0.5118110236220472},{"duration":0.02325581395349019,"midi":62,"time":49.46511627906977,"velocity":0.3937007874015748},{"duration":0.081395348837205,"midi":89,"time":49.46511627906977,"velocity":0.2283464566929134},{"duration":0.08139534883721211,"midi":83,"time":49.47674418604651,"velocity":0.12598425196850394},{"duration":0.05813953488372192,"midi":88,"time":49.47674418604651,"velocity":0.14173228346456693},{"duration":0.05813953488372192,"midi":91,"time":49.47674418604651,"velocity":0.2204724409448819},{"duration":0.023255813953483084,"midi":56,"time":49.48837209302326,"velocity":0.2992125984251969},{"duration":0.46511627906976827,"midi":63,"time":49.48837209302326,"velocity":0.28346456692913385},{"duration":0.38372093023255616,"midi":68,"time":49.48837209302326,"velocity":0.3228346456692913},{"duration":0.011627906976741542,"midi":44,"time":49.5,"velocity":0.6062992125984252},{"duration":0.011627906976748648,"midi":43,"time":49.51162790697674,"velocity":0.5826771653543307},{"duration":0.011627906976741542,"midi":42,"time":49.52325581395349,"velocity":0.5511811023622047},{"duration":0.03488372093023173,"midi":58,"time":49.53488372093023,"velocity":0.15748031496062992},{"duration":0.02325581395349019,"midi":53,"time":49.54651162790697,"velocity":0.25196850393700787},{"duration":0.046511627906973274,"midi":81,"time":49.55813953488372,"velocity":0.11023622047244094},{"duration":0.2093023255813975,"midi":91,"time":49.55813953488372,"velocity":0.14173228346456693},{"duration":0.06976744186046346,"midi":92,"time":49.55813953488372,"velocity":0.15748031496062992},{"duration":0.02325581395349019,"midi":37,"time":49.56976744186046,"velocity":0.3858267716535433},{"duration":0.02325581395349019,"midi":57,"time":49.56976744186046,"velocity":0.31496062992125984},{"duration":0.03488372093023173,"midi":78,"time":49.58139534883721,"velocity":0.09448818897637795},{"duration":0.17441860465116577,"midi":99,"time":49.593023255813954,"velocity":0.1968503937007874},{"duration":0.03488372093023173,"midi":35,"time":49.604651162790695,"velocity":0.25196850393700787},{"duration":0.06976744186046346,"midi":56,"time":49.616279069767444,"velocity":0.3228346456692913},{"duration":0.04651162790698038,"midi":92,"time":49.63953488372093,"velocity":0.16535433070866143},{"duration":0.03488372093023173,"midi":57,"time":49.68604651162791,"velocity":0.1968503937007874},{"duration":0.03488372093023173,"midi":88,"time":49.7093023255814,"velocity":0.2125984251968504},{"duration":0.046511627906973274,"midi":90,"time":49.7093023255814,"velocity":0.08661417322834646},{"duration":0.02325581395349019,"midi":55,"time":49.72093023255814,"velocity":0.41732283464566927},{"duration":0.04651162790698038,"midi":77,"time":49.72093023255814,"velocity":0.1889763779527559},{"duration":0.08139534883721211,"midi":78,"time":49.72093023255814,"velocity":0.16535433070866143},{"duration":0.05813953488372192,"midi":81,"time":49.72093023255814,"velocity":0.2125984251968504},{"duration":0.04651162790698038,"midi":86,"time":49.72093023255814,"velocity":0.2047244094488189},{"duration":0.05813953488372192,"midi":92,"time":49.72093023255814,"velocity":0.13385826771653545},{"duration":0.11627906976744384,"midi":93,"time":49.72093023255814,"velocity":0.2440944881889764},{"duration":0.03488372093023173,"midi":95,"time":49.72093023255814,"velocity":0.12598425196850394},{"duration":0.13953488372093403,"midi":97,"time":49.72093023255814,"velocity":0.18110236220472442},{"duration":0.03488372093023173,"midi":102,"time":49.72093023255814,"velocity":0.13385826771653545},{"duration":0.03488372093023884,"midi":89,"time":49.73255813953488,"velocity":0.2204724409448819},{"duration":0.09302325581395365,"midi":94,"time":49.73255813953488,"velocity":0.1732283464566929},{"duration":0.1046511627906952,"midi":44,"time":49.74418604651163,"velocity":0.3779527559055118},{"duration":0.081395348837205,"midi":51,"time":49.74418604651163,"velocity":0.33858267716535434},{"duration":0.02325581395349019,"midi":56,"time":49.74418604651163,"velocity":0.5748031496062992},{"duration":0.011627906976741542,"midi":57,"time":49.76744186046512,"velocity":0.5905511811023622},{"duration":0.06976744186046346,"midi":95,"time":49.76744186046512,"velocity":0.07086614173228346},{"duration":0.05813953488372192,"midi":56,"time":49.77906976744186,"velocity":0.5590551181102362},{"duration":0.06976744186046346,"midi":91,"time":49.77906976744186,"velocity":0.18110236220472442},{"duration":0.12790697674418539,"midi":96,"time":49.77906976744186,"velocity":0.31496062992125984},{"duration":0.12790697674418539,"midi":102,"time":49.77906976744186,"velocity":0.2755905511811024},{"duration":0.023255813953483084,"midi":33,"time":49.80232558139535,"velocity":0.28346456692913385},{"duration":0.046511627906973274,"midi":79,"time":49.80232558139535,"velocity":0.07874015748031496},{"duration":0.04651162790698038,"midi":32,"time":49.825581395348834,"velocity":0.28346456692913385},{"duration":0.09302325581395365,"midi":99,"time":49.825581395348834,"velocity":0.1732283464566929},{"duration":0.11627906976744384,"midi":72,"time":49.83720930232558,"velocity":0.2283464566929134},{"duration":0.046511627906973274,"midi":94,"time":49.83720930232558,"velocity":0.2992125984251969},{"duration":0.06976744186046346,"midi":98,"time":49.83720930232558,"velocity":0.12598425196850394},{"duration":0.03488372093023173,"midi":100,"time":49.83720930232558,"velocity":0.10236220472440945},{"duration":0.046511627906973274,"midi":101,"time":49.83720930232558,"velocity":0.07086614173228346},{"duration":0.06976744186046346,"midi":56,"time":49.848837209302324,"velocity":0.5511811023622047},{"duration":0.09302325581395365,"midi":78,"time":49.848837209302324,"velocity":0.1968503937007874},{"duration":0.05813953488372192,"midi":86,"time":49.848837209302324,"velocity":0.2204724409448819},{"duration":0.05813953488372192,"midi":92,"time":49.848837209302324,"velocity":0.23622047244094488},{"duration":0.03488372093023173,"midi":93,"time":49.848837209302324,"velocity":0.13385826771653545},{"duration":0.06976744186046346,"midi":77,"time":49.86046511627907,"velocity":0.2204724409448819},{"duration":0.058139534883714816,"midi":81,"time":49.86046511627907,"velocity":0.2047244094488189},{"duration":0.046511627906973274,"midi":89,"time":49.86046511627907,"velocity":0.2440944881889764},{"duration":0.03488372093023173,"midi":66,"time":49.872093023255815,"velocity":0.2204724409448819},{"duration":0.06976744186046346,"midi":70,"time":49.872093023255815,"velocity":0.12598425196850394},{"duration":0.046511627906973274,"midi":74,"time":49.872093023255815,"velocity":0.25196850393700787},{"duration":0.11627906976744384,"midi":44,"time":49.883720930232556,"velocity":0.3779527559055118},{"duration":0.03488372093023173,"midi":79,"time":49.883720930232556,"velocity":0.11811023622047244},{"duration":0.02325581395349019,"midi":35,"time":49.906976744186046,"velocity":0.29133858267716534},{"duration":0.04651162790698038,"midi":57,"time":49.91860465116279,"velocity":0.4409448818897638},{"duration":0.08139534883721211,"midi":68,"time":49.91860465116279,"velocity":0.28346456692913385},{"duration":0.02325581395349019,"midi":33,"time":49.93023255813954,"velocity":0.28346456692913385},{"duration":0.09302325581395365,"midi":92,"time":49.94186046511628,"velocity":0.2283464566929134},{"duration":0.058139534883714816,"midi":32,"time":49.95348837209303,"velocity":0.29133858267716534},{"duration":0.046511627906973274,"midi":51,"time":49.95348837209303,"velocity":0.3228346456692913},{"duration":0.02325581395349019,"midi":56,"time":49.96511627906977,"velocity":0.4251968503937008},{"duration":0.06976744186046346,"midi":72,"time":49.96511627906977,"velocity":0.4094488188976378},{"duration":0.11627906976744384,"midi":91,"time":49.96511627906977,"velocity":0.31496062992125984},{"duration":0.046511627906973274,"midi":98,"time":49.96511627906977,"velocity":0.2204724409448819},{"duration":0.05813953488372192,"midi":102,"time":49.96511627906977,"velocity":0.33070866141732286},{"duration":0.04651162790698038,"midi":78,"time":49.97674418604651,"velocity":0.23622047244094488},{"duration":0.02325581395349019,"midi":88,"time":49.97674418604651,"velocity":0.25984251968503935},{"duration":0.11627906976744384,"midi":95,"time":49.97674418604651,"velocity":0.2992125984251969},{"duration":0.09302325581395365,"midi":97,"time":49.97674418604651,"velocity":0.2283464566929134},{"duration":0.04651162790698038,"midi":99,"time":49.97674418604651,"velocity":0.2440944881889764},{"duration":0.05813953488372192,"midi":101,"time":49.97674418604651,"velocity":0.16535433070866143},{"duration":0.046511627906973274,"midi":83,"time":49.98837209302326,"velocity":0.1889763779527559},{"duration":0.046511627906973274,"midi":85,"time":49.98837209302326,"velocity":0.3937007874015748},{"duration":0.046511627906973274,"midi":61,"time":50,"velocity":0.3937007874015748},{"duration":0.08139534883721211,"midi":89,"time":50,"velocity":0.36220472440944884},{"duration":0.011627906976748648,"midi":48,"time":50.01162790697674,"velocity":0.5511811023622047},{"duration":0.02325581395349019,"midi":56,"time":50.01162790697674,"velocity":0.30708661417322836},{"duration":0.32558139534884134,"midi":94,"time":50.01162790697674,"velocity":0.33070866141732286},{"duration":0.011627906976741542,"midi":45,"time":50.02325581395349,"velocity":0.6220472440944882},{"duration":0.05813953488372192,"midi":81,"time":50.02325581395349,"velocity":0.4094488188976378},{"duration":0.011627906976741542,"midi":43,"time":50.03488372093023,"velocity":0.6062992125984252},{"duration":0.06976744186046346,"midi":76,"time":50.03488372093023,"velocity":0.25984251968503935},{"duration":0.03488372093023173,"midi":79,"time":50.03488372093023,"velocity":0.07086614173228346},{"duration":0.08139534883721211,"midi":86,"time":50.03488372093023,"velocity":0.4015748031496063},{"duration":0.2093023255813975,"midi":99,"time":50.03488372093023,"velocity":0.2047244094488189},{"duration":0.11627906976744384,"midi":102,"time":50.03488372093023,"velocity":0.3700787401574803},{"duration":0.02325581395349019,"midi":42,"time":50.04651162790697,"velocity":0.5748031496062992},{"duration":0.06976744186047057,"midi":74,"time":50.04651162790697,"velocity":0.5511811023622047},{"duration":0.15116279069767558,"midi":87,"time":50.04651162790697,"velocity":0.3543307086614173},{"duration":0.1046511627907023,"midi":96,"time":50.04651162790697,"velocity":0.4015748031496063},{"duration":0.06976744186046346,"midi":56,"time":50.05813953488372,"velocity":0.3464566929133858},{"duration":0.02325581395349019,"midi":63,"time":50.06976744186046,"velocity":0.25984251968503935},{"duration":0.06976744186046346,"midi":92,"time":50.06976744186046,"velocity":0.2047244094488189},{"duration":0.03488372093023173,"midi":90,"time":50.08139534883721,"velocity":0.4409448818897638},{"duration":0.03488372093023173,"midi":81,"time":50.093023255813954,"velocity":0.3700787401574803},{"duration":0.4767441860465098,"midi":91,"time":50.093023255813954,"velocity":0.4881889763779528},{"duration":0.1860465116279073,"midi":63,"time":50.104651162790695,"velocity":0.3700787401574803},{"duration":0.02325581395349019,"midi":72,"time":50.104651162790695,"velocity":0.25984251968503935},{"duration":0.3953488372092977,"midi":75,"time":50.116279069767444,"velocity":0.6141732283464567},{"duration":0.02325581395349019,"midi":73,"time":50.127906976744185,"velocity":0.2755905511811024},{"duration":0.46511627906976827,"midi":80,"time":50.127906976744185,"velocity":0.3228346456692913},{"duration":0.04651162790698038,"midi":90,"time":50.127906976744185,"velocity":0.13385826771653545},{"duration":0.19767441860464885,"midi":97,"time":50.127906976744185,"velocity":0.3228346456692913},{"duration":0.12790697674418539,"midi":68,"time":50.151162790697676,"velocity":0.18110236220472442},{"duration":0.02325581395349019,"midi":72,"time":50.151162790697676,"velocity":0.3543307086614173},{"duration":0.03488372093023173,"midi":86,"time":50.151162790697676,"velocity":0.08661417322834646},{"duration":0.1046511627907023,"midi":82,"time":50.16279069767442,"velocity":0.29133858267716534},{"duration":0.023255813953483084,"midi":73,"time":50.174418604651166,"velocity":0.3700787401574803},{"duration":0.02325581395349019,"midi":83,"time":50.18604651162791,"velocity":0.2283464566929134},{"duration":0.046511627906973274,"midi":102,"time":50.18604651162791,"velocity":0.10236220472440945},{"duration":0.3604651162790731,"midi":72,"time":50.19767441860465,"velocity":0.41732283464566927},{"duration":0.08139534883721211,"midi":89,"time":50.19767441860465,"velocity":0.15748031496062992},{"duration":0.05813953488372192,"midi":96,"time":50.19767441860465,"velocity":0.12598425196850394},{"duration":0.046511627906973274,"midi":86,"time":50.2093023255814,"velocity":0.1732283464566929},{"duration":0.03488372093023173,"midi":81,"time":50.24418604651163,"velocity":0.15748031496062992},{"duration":0.081395348837205,"midi":90,"time":50.24418604651163,"velocity":0.2125984251968504},{"duration":0.04651162790698038,"midi":78,"time":50.25581395348837,"velocity":0.15748031496062992},{"duration":0.1046511627906952,"midi":48,"time":50.26744186046512,"velocity":0.2677165354330709},{"duration":0.046511627906973274,"midi":88,"time":50.26744186046512,"velocity":0.10236220472440945},{"duration":0.06976744186046346,"midi":99,"time":50.26744186046512,"velocity":0.30708661417322836},{"duration":0.09302325581395365,"midi":60,"time":50.27906976744186,"velocity":0.3464566929133858},{"duration":0.09302325581395365,"midi":101,"time":50.27906976744186,"velocity":0.2047244094488189},{"duration":0.02325581395349019,"midi":40,"time":50.2906976744186,"velocity":0.33070866141732286},{"duration":0.02325581395349019,"midi":64,"time":50.2906976744186,"velocity":0.2283464566929134},{"duration":0.03488372093023173,"midi":81,"time":50.2906976744186,"velocity":0.14960629921259844},{"duration":0.03488372093023173,"midi":86,"time":50.2906976744186,"velocity":0.11811023622047244},{"duration":0.03488372093023173,"midi":82,"time":50.31395348837209,"velocity":0.15748031496062992},{"duration":0.2093023255813975,"midi":68,"time":50.325581395348834,"velocity":0.3779527559055118},{"duration":0.03488372093023173,"midi":41,"time":50.33720930232558,"velocity":0.2440944881889764},{"duration":0.03488372093023173,"midi":30,"time":50.36046511627907,"velocity":0.2283464566929134},{"duration":0.03488372093023173,"midi":56,"time":50.36046511627907,"velocity":0.2755905511811024},{"duration":0.03488372093023173,"midi":88,"time":50.36046511627907,"velocity":0.14960629921259844},{"duration":0.12790697674418539,"midi":63,"time":50.372093023255815,"velocity":0.3228346456692913},{"duration":0.03488372093023173,"midi":85,"time":50.372093023255815,"velocity":0.1732283464566929},{"duration":0.11627906976744384,"midi":94,"time":50.372093023255815,"velocity":0.14960629921259844},{"duration":0.03488372093023173,"midi":60,"time":50.383720930232556,"velocity":0.33858267716535434},{"duration":0.05813953488372192,"midi":78,"time":50.383720930232556,"velocity":0.2440944881889764},{"duration":0.03488372093023173,"midi":86,"time":50.395348837209305,"velocity":0.1732283464566929},{"duration":0.02325581395349019,"midi":53,"time":50.406976744186046,"velocity":0.2755905511811024},{"duration":0.09302325581395365,"midi":82,"time":50.406976744186046,"velocity":0.2283464566929134},{"duration":0.02325581395349019,"midi":40,"time":50.43023255813954,"velocity":0.36220472440944884},{"duration":0.081395348837205,"midi":48,"time":50.43023255813954,"velocity":0.29133858267716534},{"duration":0.2093023255813904,"midi":102,"time":50.45348837209303,"velocity":0.33858267716535434},{"duration":0.046511627906973274,"midi":41,"time":50.46511627906977,"velocity":0.28346456692913385},{"duration":0.03488372093023173,"midi":60,"time":50.47674418604651,"velocity":0.44881889763779526},{"duration":0.2093023255813975,"midi":99,"time":50.47674418604651,"velocity":0.2677165354330709},{"duration":0.17441860465116577,"midi":100,"time":50.47674418604651,"velocity":0.2204724409448819},{"duration":0.03488372093023173,"midi":30,"time":50.5,"velocity":0.25196850393700787},{"duration":0.1046511627906952,"midi":92,"time":50.5,"velocity":0.3779527559055118},{"duration":0.16279069767441712,"midi":96,"time":50.5,"velocity":0.28346456692913385},{"duration":0.02325581395349019,"midi":61,"time":50.51162790697674,"velocity":0.5354330708661418},{"duration":0.04651162790698038,"midi":86,"time":50.51162790697674,"velocity":0.15748031496062992},{"duration":0.05813953488372192,"midi":88,"time":50.51162790697674,"velocity":0.2125984251968504},{"duration":0.9069767441860463,"midi":89,"time":50.51162790697674,"velocity":0.49606299212598426},{"duration":0.05813953488372192,"midi":90,"time":50.51162790697674,"velocity":0.28346456692913385},{"duration":0.03488372093023173,"midi":95,"time":50.51162790697674,"velocity":0.08661417322834646},{"duration":0.12790697674418539,"midi":97,"time":50.51162790697674,"velocity":0.25196850393700787},{"duration":0.05813953488372192,"midi":75,"time":50.52325581395349,"velocity":0.2204724409448819},{"duration":0.05813953488372192,"midi":83,"time":50.52325581395349,"velocity":0.13385826771653545},{"duration":0.03488372093023173,"midi":94,"time":50.52325581395349,"velocity":0.12598425196850394},{"duration":0.13953488372092693,"midi":98,"time":50.52325581395349,"velocity":0.1889763779527559},{"duration":0.03488372093023173,"midi":62,"time":50.53488372093023,"velocity":0.4330708661417323},{"duration":0.09302325581395365,"midi":93,"time":50.53488372093023,"velocity":0.2204724409448819},{"duration":0.02325581395349019,"midi":44,"time":50.54651162790697,"velocity":0.5905511811023622},{"duration":0.06976744186047057,"midi":82,"time":50.54651162790697,"velocity":0.13385826771653545},{"duration":0.02325581395349019,"midi":52,"time":50.55813953488372,"velocity":0.31496062992125984},{"duration":0.081395348837205,"midi":73,"time":50.55813953488372,"velocity":0.4330708661417323},{"duration":0.081395348837205,"midi":95,"time":50.55813953488372,"velocity":0.3700787401574803},{"duration":0.011627906976748648,"midi":43,"time":50.56976744186046,"velocity":0.5590551181102362},{"duration":0.02325581395349019,"midi":61,"time":50.56976744186046,"velocity":0.3700787401574803},{"duration":0.3604651162790731,"midi":84,"time":50.56976744186046,"velocity":0.2677165354330709},{"duration":0.15116279069767558,"midi":94,"time":50.56976744186046,"velocity":0.4015748031496063},{"duration":0.011627906976741542,"midi":42,"time":50.58139534883721,"velocity":0.5196850393700787},{"duration":0.058139534883714816,"midi":66,"time":50.58139534883721,"velocity":0.3464566929133858},{"duration":0.02325581395349019,"midi":60,"time":50.593023255813954,"velocity":0.2755905511811024},{"duration":0.03488372093023173,"midi":86,"time":50.593023255813954,"velocity":0.13385826771653545},{"duration":0.046511627906973274,"midi":91,"time":50.593023255813954,"velocity":0.49606299212598426},{"duration":0.2558139534883779,"midi":68,"time":50.604651162790695,"velocity":0.3228346456692913},{"duration":0.06976744186047057,"midi":75,"time":50.604651162790695,"velocity":0.3543307086614173},{"duration":0.02325581395349019,"midi":37,"time":50.627906976744185,"velocity":0.3700787401574803},{"duration":0.02325581395349019,"midi":60,"time":50.627906976744185,"velocity":0.31496062992125984},{"duration":0.04651162790698038,"midi":56,"time":50.63953488372093,"velocity":0.2992125984251969},{"duration":0.02325581395349019,"midi":65,"time":50.63953488372093,"velocity":0.2755905511811024},{"duration":0.1046511627907023,"midi":72,"time":50.63953488372093,"velocity":0.4409448818897638},{"duration":0.04651162790698038,"midi":82,"time":50.63953488372093,"velocity":0.14960629921259844},{"duration":0.4534883720930267,"midi":92,"time":50.63953488372093,"velocity":0.4566929133858268},{"duration":0.30232558139535115,"midi":103,"time":50.63953488372093,"velocity":0.31496062992125984},{"duration":0.02325581395349019,"midi":36,"time":50.651162790697676,"velocity":0.2440944881889764},{"duration":0.046511627906973274,"midi":61,"time":50.651162790697676,"velocity":0.3464566929133858},{"duration":0.06976744186046346,"midi":85,"time":50.651162790697676,"velocity":0.1889763779527559},{"duration":0.02325581395349019,"midi":91,"time":50.651162790697676,"velocity":0.25196850393700787},{"duration":0.16279069767441712,"midi":95,"time":50.651162790697676,"velocity":0.5433070866141733},{"duration":0.09302325581395365,"midi":48,"time":50.66279069767442,"velocity":0.2992125984251969},{"duration":0.08139534883721211,"midi":78,"time":50.66279069767442,"velocity":0.1968503937007874},{"duration":0.03488372093023173,"midi":64,"time":50.674418604651166,"velocity":0.29133858267716534},{"duration":0.03488372093023173,"midi":81,"time":50.674418604651166,"velocity":0.2283464566929134},{"duration":0.02325581395349019,"midi":39,"time":50.68604651162791,"velocity":0.2440944881889764},{"duration":0.05813953488372192,"midi":74,"time":50.68604651162791,"velocity":0.3228346456692913},{"duration":0.13953488372092693,"midi":75,"time":50.68604651162791,"velocity":0.3228346456692913},{"duration":0.06976744186046346,"midi":91,"time":50.68604651162791,"velocity":0.2125984251968504},{"duration":0.12790697674418539,"midi":93,"time":50.69767441860465,"velocity":0.25196850393700787},{"duration":0.023255813953483084,"midi":65,"time":50.7093023255814,"velocity":0.33070866141732286},{"duration":0.05813953488372192,"midi":36,"time":50.72093023255814,"velocity":0.3228346456692913},{"duration":0.04651162790698038,"midi":61,"time":50.72093023255814,"velocity":0.44881889763779526},{"duration":0.04651162790698038,"midi":66,"time":50.73255813953488,"velocity":0.23622047244094488},{"duration":0.081395348837205,"midi":94,"time":50.74418604651163,"velocity":0.4409448818897638},{"duration":0.03488372093023173,"midi":97,"time":50.74418604651163,"velocity":0.07874015748031496},{"duration":0.15116279069767558,"midi":102,"time":50.74418604651163,"velocity":0.23622047244094488},{"duration":0.02325581395349019,"midi":74,"time":50.75581395348837,"velocity":0.30708661417322836},{"duration":0.1046511627907023,"midi":88,"time":50.75581395348837,"velocity":0.4409448818897638},{"duration":0.03488372093023173,"midi":60,"time":50.76744186046512,"velocity":0.41732283464566927},{"duration":0.046511627906973274,"midi":72,"time":50.76744186046512,"velocity":0.4330708661417323},{"duration":0.03488372093023173,"midi":65,"time":50.77906976744186,"velocity":0.2677165354330709},{"duration":0.15116279069767558,"midi":91,"time":50.77906976744186,"velocity":0.2992125984251969},{"duration":0.03488372093023173,"midi":83,"time":50.7906976744186,"velocity":0.1732283464566929},{"duration":0.023255813953483084,"midi":45,"time":50.80232558139535,"velocity":0.3543307086614173},{"duration":0.05813953488372192,"midi":79,"time":50.80232558139535,"velocity":0.1732283464566929},{"duration":0.04651162790698038,"midi":61,"time":50.81395348837209,"velocity":0.48031496062992124},{"duration":0.23255813953488058,"midi":77,"time":50.81395348837209,"velocity":0.3228346456692913},{"duration":0.1046511627907023,"midi":46,"time":50.825581395348834,"velocity":0.2755905511811024},{"duration":0.03488372093023884,"midi":76,"time":50.825581395348834,"velocity":0.1732283464566929},{"duration":0.27906976744186096,"midi":95,"time":50.825581395348834,"velocity":0.3543307086614173},{"duration":0.05813953488372192,"midi":81,"time":50.83720930232558,"velocity":0.1889763779527559},{"duration":0.03488372093023173,"midi":74,"time":50.848837209302324,"velocity":0.3228346456692913},{"duration":0.03488372093023173,"midi":93,"time":50.848837209302324,"velocity":0.1889763779527559},{"duration":0.1046511627906952,"midi":34,"time":50.86046511627907,"velocity":0.3464566929133858},{"duration":0.023255813953483084,"midi":53,"time":50.86046511627907,"velocity":0.2677165354330709},{"duration":0.03488372093023173,"midi":62,"time":50.86046511627907,"velocity":0.4566929133858268},{"duration":0.06976744186047057,"midi":66,"time":50.883720930232556,"velocity":0.33858267716535434},{"duration":0.19767441860465595,"midi":68,"time":50.883720930232556,"velocity":0.25984251968503935},{"duration":0.12790697674418539,"midi":73,"time":50.883720930232556,"velocity":0.5275590551181102},{"duration":0.046511627906973274,"midi":61,"time":50.895348837209305,"velocity":0.4566929133858268},{"duration":0.12790697674418539,"midi":93,"time":50.895348837209305,"velocity":0.1889763779527559},{"duration":0.12790697674418539,"midi":56,"time":50.91860465116279,"velocity":0.2677165354330709},{"duration":0.11627906976743674,"midi":80,"time":50.93023255813954,"velocity":0.2677165354330709},{"duration":0.05813953488372192,"midi":62,"time":50.94186046511628,"velocity":0.3464566929133858},{"duration":0.05813953488372192,"midi":75,"time":50.94186046511628,"velocity":0.2125984251968504},{"duration":0.05813953488372192,"midi":102,"time":50.94186046511628,"velocity":0.2755905511811024},{"duration":0.058139534883714816,"midi":65,"time":50.95348837209303,"velocity":0.30708661417322836},{"duration":0.058139534883714816,"midi":103,"time":50.95348837209303,"velocity":0.13385826771653545},{"duration":0.06976744186046346,"midi":86,"time":50.97674418604651,"velocity":0.25196850393700787},{"duration":0.03488372093023173,"midi":96,"time":50.98837209302326,"velocity":0.10236220472440945},{"duration":0.02325581395349019,"midi":63,"time":51,"velocity":0.2677165354330709},{"duration":0.05813953488372192,"midi":84,"time":51,"velocity":0.14173228346456693},{"duration":0.023255813953483084,"midi":74,"time":51.02325581395349,"velocity":0.33070866141732286},{"duration":0.046511627906973274,"midi":85,"time":51.02325581395349,"velocity":0.1968503937007874},{"duration":0.09302325581395365,"midi":62,"time":51.03488372093023,"velocity":0.28346456692913385},{"duration":0.03488372093023173,"midi":79,"time":51.03488372093023,"velocity":0.2125984251968504},{"duration":0.03488372093023173,"midi":96,"time":51.03488372093023,"velocity":0.2047244094488189},{"duration":0.03488372093023173,"midi":100,"time":51.03488372093023,"velocity":0.11811023622047244},{"duration":0.03488372093023173,"midi":102,"time":51.03488372093023,"velocity":0.1968503937007874},{"duration":0.03488372093023173,"midi":103,"time":51.03488372093023,"velocity":0.11023622047244094},{"duration":0.02325581395349019,"midi":73,"time":51.04651162790697,"velocity":0.41732283464566927},{"duration":0.5581395348837219,"midi":77,"time":51.05813953488372,"velocity":0.3779527559055118},{"duration":0.02325581395349019,"midi":45,"time":51.06976744186046,"velocity":0.6377952755905512},{"duration":0.02325581395349019,"midi":74,"time":51.06976744186046,"velocity":0.31496062992125984},{"duration":0.1860465116279073,"midi":56,"time":51.08139534883721,"velocity":0.1968503937007874},{"duration":0.011627906976741542,"midi":44,"time":51.093023255813954,"velocity":0.6062992125984252},{"duration":0.05813953488372192,"midi":68,"time":51.093023255813954,"velocity":0.31496062992125984},{"duration":0.27906976744186096,"midi":73,"time":51.093023255813954,"velocity":0.48031496062992124},{"duration":0.05813953488372192,"midi":93,"time":51.093023255813954,"velocity":0.14173228346456693},{"duration":0.02325581395349019,"midi":42,"time":51.104651162790695,"velocity":0.5826771653543307},{"duration":0.46511627906976827,"midi":92,"time":51.104651162790695,"velocity":0.31496062992125984},{"duration":0.046511627906973274,"midi":84,"time":51.116279069767444,"velocity":0.13385826771653545},{"duration":0.05813953488372192,"midi":61,"time":51.127906976744185,"velocity":0.3779527559055118},{"duration":0.03488372093023173,"midi":91,"time":51.127906976744185,"velocity":0.23622047244094488},{"duration":0.081395348837205,"midi":65,"time":51.151162790697676,"velocity":0.2755905511811024},{"duration":0.16279069767441712,"midi":75,"time":51.151162790697676,"velocity":0.2283464566929134},{"duration":0.5232558139534902,"midi":68,"time":51.16279069767442,"velocity":0.5118110236220472},{"duration":0.1046511627907023,"midi":95,"time":51.16279069767442,"velocity":0.2204724409448819},{"duration":0.03488372093023173,"midi":36,"time":51.174418604651166,"velocity":0.33858267716535434},{"duration":0.04651162790698038,"midi":61,"time":51.19767441860465,"velocity":0.3543307086614173},{"duration":0.04651162790698038,"midi":84,"time":51.19767441860465,"velocity":0.14960629921259844},{"duration":0.08139534883721211,"midi":93,"time":51.25581395348837,"velocity":0.09448818897637795},{"duration":0.06976744186046346,"midi":65,"time":51.26744186046512,"velocity":0.25984251968503935},{"duration":0.03488372093023173,"midi":94,"time":51.26744186046512,"velocity":0.10236220472440945},{"duration":0.06976744186046346,"midi":81,"time":51.30232558139535,"velocity":0.2440944881889764},{"duration":0.16279069767441712,"midi":84,"time":51.30232558139535,"velocity":0.14960629921259844},{"duration":0.05813953488372192,"midi":86,"time":51.30232558139535,"velocity":0.2204724409448819},{"duration":0.03488372093023173,"midi":95,"time":51.30232558139535,"velocity":0.14173228346456693},{"duration":0.16279069767441712,"midi":51,"time":51.31395348837209,"velocity":0.31496062992125984},{"duration":0.08139534883721211,"midi":56,"time":51.31395348837209,"velocity":0.33858267716535434},{"duration":0.02325581395349019,"midi":62,"time":51.31395348837209,"velocity":0.2283464566929134},{"duration":0.05813953488372192,"midi":88,"time":51.31395348837209,"velocity":0.11023622047244094},{"duration":0.09302325581395365,"midi":90,"time":51.31395348837209,"velocity":0.14960629921259844},{"duration":0.19767441860465595,"midi":87,"time":51.325581395348834,"velocity":0.29133858267716534},{"duration":0.15116279069767558,"midi":96,"time":51.33720930232558,"velocity":0.2440944881889764},{"duration":0.081395348837205,"midi":102,"time":51.33720930232558,"velocity":0.14960629921259844},{"duration":0.11627906976744384,"midi":44,"time":51.348837209302324,"velocity":0.3464566929133858},{"duration":0.06976744186046346,"midi":75,"time":51.348837209302324,"velocity":0.2283464566929134},{"duration":0.03488372093023173,"midi":91,"time":51.36046511627907,"velocity":0.07874015748031496},{"duration":0.03488372093023173,"midi":94,"time":51.372093023255815,"velocity":0.07086614173228346},{"duration":0.17441860465116577,"midi":73,"time":51.383720930232556,"velocity":0.3779527559055118},{"duration":0.023255813953483084,"midi":65,"time":51.395348837209305,"velocity":0.2283464566929134},{"duration":0.1046511627906952,"midi":32,"time":51.406976744186046,"velocity":0.3700787401574803},{"duration":0.03488372093023884,"midi":61,"time":51.41860465116279,"velocity":0.2047244094488189},{"duration":0.02325581395349019,"midi":66,"time":51.41860465116279,"velocity":0.2677165354330709},{"duration":0.06976744186046346,"midi":102,"time":51.44186046511628,"velocity":0.11811023622047244},{"duration":0.04651162790698038,"midi":61,"time":51.47674418604651,"velocity":0.33858267716535434},{"duration":0.03488372093023173,"midi":61,"time":51.53488372093023,"velocity":0.30708661417322836},{"duration":0.03488372093023173,"midi":65,"time":51.53488372093023,"velocity":0.30708661417322836},{"duration":0.2558139534883779,"midi":99,"time":51.54651162790697,"velocity":0.3464566929133858},{"duration":0.02325581395349019,"midi":54,"time":51.55813953488372,"velocity":0.4566929133858268},{"duration":0.02325581395349019,"midi":72,"time":51.55813953488372,"velocity":0.29133858267716534},{"duration":0.03488372093023173,"midi":85,"time":51.55813953488372,"velocity":0.14173228346456693},{"duration":0.02325581395349019,"midi":91,"time":51.55813953488372,"velocity":0.28346456692913385},{"duration":0.046511627906973274,"midi":93,"time":51.55813953488372,"velocity":0.16535433070866143},{"duration":0.16279069767441712,"midi":94,"time":51.55813953488372,"velocity":0.28346456692913385},{"duration":0.12790697674418539,"midi":97,"time":51.55813953488372,"velocity":0.2047244094488189},{"duration":0.25581395348837077,"midi":98,"time":51.55813953488372,"velocity":0.25984251968503935},{"duration":0.1046511627906952,"midi":100,"time":51.55813953488372,"velocity":0.1889763779527559},{"duration":0.6395348837209269,"midi":102,"time":51.55813953488372,"velocity":0.29133858267716534},{"duration":0.03488372093023173,"midi":62,"time":51.56976744186046,"velocity":0.41732283464566927},{"duration":0.04651162790698038,"midi":75,"time":51.56976744186046,"velocity":0.3464566929133858},{"duration":0.06976744186046346,"midi":86,"time":51.56976744186046,"velocity":0.25984251968503935},{"duration":0.08139534883721211,"midi":88,"time":51.56976744186046,"velocity":0.25196850393700787},{"duration":0.11627906976744384,"midi":90,"time":51.56976744186046,"velocity":0.36220472440944884},{"duration":0.08139534883721211,"midi":95,"time":51.56976744186046,"velocity":0.2125984251968504},{"duration":0.17441860465116577,"midi":96,"time":51.56976744186046,"velocity":0.2125984251968504},{"duration":0.011627906976741542,"midi":55,"time":51.58139534883721,"velocity":0.5196850393700787},{"duration":0.046511627906973274,"midi":70,"time":51.58139534883721,"velocity":0.29133858267716534},{"duration":0.13953488372092693,"midi":73,"time":51.58139534883721,"velocity":0.31496062992125984},{"duration":0.03488372093023173,"midi":79,"time":51.58139534883721,"velocity":0.28346456692913385},{"duration":0.11627906976743674,"midi":82,"time":51.58139534883721,"velocity":0.33070866141732286},{"duration":0.1046511627906952,"midi":84,"time":51.58139534883721,"velocity":0.2440944881889764},{"duration":0.02325581395349019,"midi":45,"time":51.593023255813954,"velocity":0.5826771653543307},{"duration":0.046511627906973274,"midi":65,"time":51.593023255813954,"velocity":0.12598425196850394},{"duration":0.02325581395349019,"midi":76,"time":51.604651162790695,"velocity":0.4015748031496063},{"duration":0.011627906976741542,"midi":44,"time":51.616279069767444,"velocity":0.5826771653543307},{"duration":0.05813953488372192,"midi":93,"time":51.616279069767444,"velocity":0.11023622047244094},{"duration":0.02325581395349019,"midi":42,"time":51.627906976744185,"velocity":0.5826771653543307},{"duration":0.05813953488372192,"midi":56,"time":51.627906976744185,"velocity":0.44881889763779526},{"duration":0.04651162790698038,"midi":61,"time":51.627906976744185,"velocity":0.2440944881889764},{"duration":0.06976744186046346,"midi":75,"time":51.627906976744185,"velocity":0.4330708661417323},{"duration":0.08139534883721211,"midi":70,"time":51.63953488372093,"velocity":0.41732283464566927},{"duration":0.06976744186047057,"midi":77,"time":51.63953488372093,"velocity":0.3858267716535433},{"duration":0.09302325581395365,"midi":86,"time":51.66279069767442,"velocity":0.3937007874015748},{"duration":0.13953488372093403,"midi":88,"time":51.66279069767442,"velocity":0.2755905511811024},{"duration":0.03488372093023173,"midi":65,"time":51.674418604651166,"velocity":0.14173228346456693},{"duration":0.17441860465115866,"midi":92,"time":51.674418604651166,"velocity":0.29133858267716534},{"duration":0.02325581395349019,"midi":37,"time":51.68604651162791,"velocity":0.3228346456692913},{"duration":0.02325581395349019,"midi":58,"time":51.68604651162791,"velocity":0.33858267716535434},{"duration":0.5465116279069733,"midi":85,"time":51.68604651162791,"velocity":0.5984251968503937},{"duration":0.12790697674418539,"midi":95,"time":51.68604651162791,"velocity":0.25984251968503935},{"duration":0.03488372093023173,"midi":68,"time":51.69767441860465,"velocity":0.3543307086614173},{"duration":0.08139534883721211,"midi":78,"time":51.69767441860465,"velocity":0.3543307086614173},{"duration":0.04651162790698038,"midi":83,"time":51.69767441860465,"velocity":0.3464566929133858},{"duration":0.03488372093023173,"midi":93,"time":51.69767441860465,"velocity":0.14960629921259844},{"duration":0.023255813953483084,"midi":35,"time":51.7093023255814,"velocity":0.2677165354330709},{"duration":0.09302325581395365,"midi":51,"time":51.72093023255814,"velocity":0.3543307086614173},{"duration":0.02325581395349019,"midi":61,"time":51.72093023255814,"velocity":0.3464566929133858},{"duration":0.02325581395349019,"midi":71,"time":51.72093023255814,"velocity":0.4409448818897638},{"duration":0.02325581395349019,"midi":74,"time":51.72093023255814,"velocity":0.28346456692913385},{"duration":0.04651162790698038,"midi":87,"time":51.72093023255814,"velocity":0.3543307086614173},{"duration":0.11627906976744384,"midi":44,"time":51.74418604651163,"velocity":0.3700787401574803},{"duration":0.02325581395349019,"midi":60,"time":51.74418604651163,"velocity":0.33070866141732286},{"duration":0.16279069767441712,"midi":70,"time":51.74418604651163,"velocity":0.5196850393700787},{"duration":0.04651162790698038,"midi":96,"time":51.75581395348837,"velocity":0.2755905511811024},{"duration":0.09302325581395365,"midi":73,"time":51.76744186046512,"velocity":0.44881889763779526},{"duration":0.046511627906973274,"midi":86,"time":51.76744186046512,"velocity":0.3464566929133858},{"duration":0.02325581395349019,"midi":33,"time":51.77906976744186,"velocity":0.2992125984251969},{"duration":0.02325581395349019,"midi":61,"time":51.77906976744186,"velocity":0.29133858267716534},{"duration":0.03488372093023173,"midi":68,"time":51.77906976744186,"velocity":0.3543307086614173},{"duration":0.03488372093023173,"midi":75,"time":51.77906976744186,"velocity":0.2755905511811024},{"duration":0.046511627906973274,"midi":77,"time":51.77906976744186,"velocity":0.2047244094488189},{"duration":0.05813953488372192,"midi":32,"time":51.80232558139535,"velocity":0.3228346456692913},{"duration":0.03488372093023173,"midi":57,"time":51.80232558139535,"velocity":0.4015748031496063},{"duration":0.046511627906973274,"midi":66,"time":51.80232558139535,"velocity":0.25196850393700787},{"duration":0.02325581395349019,"midi":76,"time":51.81395348837209,"velocity":0.30708661417322836},{"duration":0.03488372093023173,"midi":83,"time":51.81395348837209,"velocity":0.12598425196850394},{"duration":0.03488372093023173,"midi":84,"time":51.81395348837209,"velocity":0.2125984251968504},{"duration":0.08139534883721211,"midi":89,"time":51.81395348837209,"velocity":0.2992125984251969},{"duration":0.05813953488372192,"midi":96,"time":51.81395348837209,"velocity":0.23622047244094488},{"duration":0.16279069767442422,"midi":95,"time":51.825581395348834,"velocity":0.18110236220472442},{"duration":0.081395348837205,"midi":56,"time":51.83720930232558,"velocity":0.3779527559055118},{"duration":0.02325581395349019,"midi":75,"time":51.83720930232558,"velocity":0.2755905511811024},{"duration":0.11627906976744384,"midi":80,"time":51.83720930232558,"velocity":0.31496062992125984},{"duration":0.081395348837205,"midi":94,"time":51.83720930232558,"velocity":0.2283464566929134},{"duration":0.22093023255813904,"midi":99,"time":51.83720930232558,"velocity":0.2283464566929134},{"duration":0.05813953488372192,"midi":61,"time":51.848837209302324,"velocity":0.25984251968503935},{"duration":0.03488372093023173,"midi":74,"time":51.848837209302324,"velocity":0.29133858267716534},{"duration":0.24418604651162212,"midi":101,"time":51.86046511627907,"velocity":0.31496062992125984},{"duration":0.5,"midi":103,"time":51.86046511627907,"velocity":0.3543307086614173},{"duration":0.03488372093023173,"midi":65,"time":51.872093023255815,"velocity":0.1732283464566929},{"duration":0.03488372093023173,"midi":75,"time":51.872093023255815,"velocity":0.16535433070866143},{"duration":0.02325581395349019,"midi":73,"time":51.883720930232556,"velocity":0.4251968503937008},{"duration":0.04651162790698038,"midi":86,"time":51.883720930232556,"velocity":0.14173228346456693},{"duration":0.13953488372092693,"midi":100,"time":51.895348837209305,"velocity":0.3228346456692913},{"duration":0.03488372093023173,"midi":60,"time":51.906976744186046,"velocity":0.4015748031496063},{"duration":0.03488372093023173,"midi":72,"time":51.906976744186046,"velocity":0.4409448818897638},{"duration":0.09302325581395365,"midi":89,"time":51.906976744186046,"velocity":0.31496062992125984},{"duration":0.03488372093023173,"midi":90,"time":51.906976744186046,"velocity":0.07874015748031496},{"duration":0.03488372093023173,"midi":91,"time":51.906976744186046,"velocity":0.13385826771653545},{"duration":0.04651162790698038,"midi":96,"time":51.906976744186046,"velocity":0.2283464566929134},{"duration":0.04651162790698038,"midi":65,"time":51.91860465116279,"velocity":0.2992125984251969},{"duration":0.03488372093023884,"midi":87,"time":51.91860465116279,"velocity":0.25984251968503935},{"duration":0.081395348837205,"midi":70,"time":51.93023255813954,"velocity":0.5433070866141733},{"duration":0.081395348837205,"midi":75,"time":51.93023255813954,"velocity":0.14173228346456693},{"duration":0.02325581395349019,"midi":78,"time":51.94186046511628,"velocity":0.25984251968503935},{"duration":0.058139534883714816,"midi":86,"time":51.95348837209303,"velocity":0.3228346456692913},{"duration":0.02325581395349019,"midi":66,"time":51.96511627906977,"velocity":0.2755905511811024},{"duration":0.05813953488372192,"midi":77,"time":51.96511627906977,"velocity":0.2677165354330709},{"duration":0.046511627906973274,"midi":88,"time":51.96511627906977,"velocity":0.11811023622047244},{"duration":0.046511627906973274,"midi":91,"time":51.96511627906977,"velocity":0.16535433070866143},{"duration":0.3488372093023244,"midi":96,"time":51.96511627906977,"velocity":0.5039370078740157},{"duration":0.02325581395349019,"midi":58,"time":51.97674418604651,"velocity":0.47244094488188976},{"duration":0.04651162790698038,"midi":79,"time":51.97674418604651,"velocity":0.23622047244094488},{"duration":0.02325581395349019,"midi":83,"time":51.97674418604651,"velocity":0.2440944881889764},{"duration":0.046511627906973274,"midi":61,"time":51.98837209302326,"velocity":0.41732283464566927},{"duration":0.023255813953483084,"midi":65,"time":51.98837209302326,"velocity":0.2283464566929134},{"duration":0.1046511627906952,"midi":80,"time":51.98837209302326,"velocity":0.23622047244094488},{"duration":0.09302325581395365,"midi":49,"time":52,"velocity":0.31496062992125984},{"duration":0.02325581395349019,"midi":71,"time":52,"velocity":0.3464566929133858},{"duration":0.03488372093023173,"midi":90,"time":52,"velocity":0.2047244094488189},{"duration":0.19767441860464885,"midi":95,"time":52,"velocity":0.2283464566929134},{"duration":0.02325581395349019,"midi":66,"time":52.01162790697674,"velocity":0.2677165354330709},{"duration":0.1046511627907023,"midi":89,"time":52.01162790697674,"velocity":0.28346456692913385},{"duration":0.06976744186046346,"midi":37,"time":52.02325581395349,"velocity":0.3464566929133858},{"duration":0.06976744186046346,"midi":61,"time":52.05813953488372,"velocity":0.5118110236220472},{"duration":0.03488372093023173,"midi":75,"time":52.05813953488372,"velocity":0.25196850393700787},{"duration":0.02325581395349019,"midi":65,"time":52.093023255813954,"velocity":0.3937007874015748},{"duration":0.03488372093023173,"midi":79,"time":52.093023255813954,"velocity":0.1968503937007874},{"duration":0.03488372093023173,"midi":81,"time":52.093023255813954,"velocity":0.2440944881889764},{"duration":0.02325581395349019,"midi":83,"time":52.093023255813954,"velocity":0.25196850393700787},{"duration":0.046511627906973274,"midi":86,"time":52.093023255813954,"velocity":0.12598425196850394},{"duration":0.046511627906973274,"midi":90,"time":52.093023255813954,"velocity":0.2283464566929134},{"duration":0.03488372093023173,"midi":94,"time":52.093023255813954,"velocity":0.07086614173228346},{"duration":0.046511627906973274,"midi":98,"time":52.093023255813954,"velocity":0.12598425196850394},{"duration":0.11627906976744384,"midi":100,"time":52.093023255813954,"velocity":0.16535433070866143},{"duration":0.8023255813953512,"midi":77,"time":52.104651162790695,"velocity":0.5511811023622047},{"duration":0.08139534883721211,"midi":84,"time":52.104651162790695,"velocity":0.3700787401574803},{"duration":0.3604651162790731,"midi":93,"time":52.104651162790695,"velocity":0.41732283464566927},{"duration":0.1046511627907023,"midi":99,"time":52.104651162790695,"velocity":0.3228346456692913},{"duration":0.03488372093023173,"midi":68,"time":52.116279069767444,"velocity":0.2677165354330709},{"duration":0.06976744186046346,"midi":70,"time":52.116279069767444,"velocity":0.3700787401574803},{"duration":0.011627906976741542,"midi":46,"time":52.127906976744185,"velocity":0.5590551181102362},{"duration":0.011627906976748648,"midi":45,"time":52.13953488372093,"velocity":0.6141732283464567},{"duration":0.5465116279069804,"midi":101,"time":52.13953488372093,"velocity":0.30708661417322836},{"duration":0.011627906976741542,"midi":44,"time":52.151162790697676,"velocity":0.5826771653543307},{"duration":0.046511627906973274,"midi":58,"time":52.151162790697676,"velocity":0.33858267716535434},{"duration":0.09302325581395365,"midi":73,"time":52.151162790697676,"velocity":0.29133858267716534},{"duration":0.06976744186046346,"midi":86,"time":52.16279069767442,"velocity":0.11023622047244094},{"duration":0.11627906976744384,"midi":98,"time":52.16279069767442,"velocity":0.2283464566929134},{"duration":0.02325581395349019,"midi":69,"time":52.18604651162791,"velocity":0.33070866141732286},{"duration":0.03488372093023173,"midi":83,"time":52.18604651162791,"velocity":0.2047244094488189},{"duration":0.03488372093023173,"midi":61,"time":52.19767441860465,"velocity":0.25196850393700787},{"duration":0.05813953488372192,"midi":84,"time":52.19767441860465,"velocity":0.2204724409448819},{"duration":0.023255813953483084,"midi":46,"time":52.2093023255814,"velocity":0.25984251968503935},{"duration":0.03488372093023173,"midi":58,"time":52.2093023255814,"velocity":0.2992125984251969},{"duration":0.17441860465115866,"midi":67,"time":52.2093023255814,"velocity":0.49606299212598426},{"duration":0.13953488372092693,"midi":102,"time":52.2093023255814,"velocity":0.1889763779527559},{"duration":0.1279069767441925,"midi":92,"time":52.23255813953488,"velocity":0.2283464566929134},{"duration":0.17441860465116577,"midi":99,"time":52.23255813953488,"velocity":0.2677165354330709},{"duration":0.3139534883720927,"midi":85,"time":52.24418604651163,"velocity":0.29133858267716534},{"duration":0.02325581395349019,"midi":61,"time":52.25581395348837,"velocity":0.33858267716535434},{"duration":0.05813953488372192,"midi":73,"time":52.25581395348837,"velocity":0.3464566929133858},{"duration":0.04651162790698038,"midi":100,"time":52.25581395348837,"velocity":0.09448818897637795},{"duration":0.03488372093023173,"midi":80,"time":52.26744186046512,"velocity":0.15748031496062992},{"duration":0.13953488372092693,"midi":84,"time":52.26744186046512,"velocity":0.2440944881889764},{"duration":0.1046511627906952,"midi":95,"time":52.27906976744186,"velocity":0.29133858267716534},{"duration":0.04651162790698038,"midi":70,"time":52.31395348837209,"velocity":0.2204724409448819},{"duration":0.06976744186047057,"midi":73,"time":52.325581395348834,"velocity":0.2755905511811024},{"duration":0.1860465116279073,"midi":96,"time":52.325581395348834,"velocity":0.29133858267716534},{"duration":0.06976744186046346,"midi":81,"time":52.36046511627907,"velocity":0.18110236220472442},{"duration":0.046511627906973274,"midi":90,"time":52.36046511627907,"velocity":0.14173228346456693},{"duration":0.02325581395349019,"midi":66,"time":52.383720930232556,"velocity":0.33858267716535434},{"duration":0.05813953488372192,"midi":82,"time":52.383720930232556,"velocity":0.25984251968503935},{"duration":0.11627906976744384,"midi":103,"time":52.383720930232556,"velocity":0.1889763779527559},{"duration":0.023255813953483084,"midi":39,"time":52.395348837209305,"velocity":0.3464566929133858},{"duration":0.023255813953483084,"midi":55,"time":52.395348837209305,"velocity":0.30708661417322836},{"duration":0.023255813953483084,"midi":65,"time":52.395348837209305,"velocity":0.25196850393700787},{"duration":0.15116279069766847,"midi":70,"time":52.395348837209305,"velocity":0.3779527559055118},{"duration":0.1046511627906952,"midi":61,"time":52.406976744186046,"velocity":0.3779527559055118},{"duration":0.02325581395349019,"midi":68,"time":52.406976744186046,"velocity":0.41732283464566927},{"duration":0.03488372093023884,"midi":53,"time":52.41860465116279,"velocity":0.29133858267716534},{"duration":0.05813953488372192,"midi":67,"time":52.43023255813954,"velocity":0.4409448818897638},{"duration":0.03488372093023173,"midi":80,"time":52.43023255813954,"velocity":0.14173228346456693},{"duration":0.03488372093023173,"midi":102,"time":52.44186046511628,"velocity":0.09448818897637795},{"duration":0.08139534883721211,"midi":92,"time":52.47674418604651,"velocity":0.25196850393700787},{"duration":0.09302325581395365,"midi":100,"time":52.47674418604651,"velocity":0.3464566929133858},{"duration":0.023255813953483084,"midi":64,"time":52.48837209302326,"velocity":0.4645669291338583},{"duration":0.058139534883714816,"midi":68,"time":52.48837209302326,"velocity":0.36220472440944884},{"duration":0.081395348837205,"midi":81,"time":52.48837209302326,"velocity":0.16535433070866143},{"duration":0.03488372093023173,"midi":83,"time":52.48837209302326,"velocity":0.2047244094488189},{"duration":0.22093023255813904,"midi":93,"time":52.48837209302326,"velocity":0.3464566929133858},{"duration":0.058139534883714816,"midi":95,"time":52.48837209302326,"velocity":0.2755905511811024},{"duration":0.081395348837205,"midi":98,"time":52.48837209302326,"velocity":0.33858267716535434},{"duration":0.081395348837205,"midi":99,"time":52.48837209302326,"velocity":0.2047244094488189},{"duration":0.25581395348837077,"midi":102,"time":52.48837209302326,"velocity":0.3700787401574803},{"duration":0.03488372093023173,"midi":88,"time":52.5,"velocity":0.14960629921259844},{"duration":0.02325581395349019,"midi":45,"time":52.51162790697674,"velocity":0.23622047244094488},{"duration":0.22093023255813904,"midi":65,"time":52.51162790697674,"velocity":0.6141732283464567},{"duration":0.13953488372093403,"midi":103,"time":52.51162790697674,"velocity":0.31496062992125984},{"duration":0.19767441860464885,"midi":61,"time":52.52325581395349,"velocity":0.4094488188976378},{"duration":0.03488372093023173,"midi":90,"time":52.52325581395349,"velocity":0.12598425196850394},{"duration":0.2093023255813904,"midi":96,"time":52.52325581395349,"velocity":0.3464566929133858},{"duration":0.03488372093023173,"midi":74,"time":52.53488372093023,"velocity":0.3779527559055118},{"duration":0.13953488372093403,"midi":80,"time":52.54651162790697,"velocity":0.1968503937007874},{"duration":0.05813953488372192,"midi":70,"time":52.55813953488372,"velocity":0.3858267716535433},{"duration":0.2906976744186025,"midi":73,"time":52.55813953488372,"velocity":0.4566929133858268},{"duration":0.2093023255813975,"midi":84,"time":52.55813953488372,"velocity":0.2125984251968504},{"duration":0.081395348837205,"midi":97,"time":52.55813953488372,"velocity":0.2283464566929134},{"duration":0.03488372093023173,"midi":39,"time":52.593023255813954,"velocity":0.2440944881889764},{"duration":0.1046511627906952,"midi":95,"time":52.593023255813954,"velocity":0.16535433070866143},{"duration":0.03488372093023173,"midi":99,"time":52.593023255813954,"velocity":0.11811023622047244},{"duration":0.06976744186047057,"midi":94,"time":52.604651162790695,"velocity":0.14960629921259844},{"duration":0.03488372093023173,"midi":68,"time":52.627906976744185,"velocity":0.4251968503937008},{"duration":0.06976744186046346,"midi":88,"time":52.627906976744185,"velocity":0.2047244094488189},{"duration":0.08139534883721211,"midi":90,"time":52.627906976744185,"velocity":0.2992125984251969},{"duration":0.04651162790698038,"midi":98,"time":52.627906976744185,"velocity":0.16535433070866143},{"duration":0.06976744186047057,"midi":70,"time":52.63953488372093,"velocity":0.33858267716535434},{"duration":0.03488372093023884,"midi":75,"time":52.63953488372093,"velocity":0.11811023622047244},{"duration":0.02325581395349019,"midi":45,"time":52.651162790697676,"velocity":0.5590551181102362},{"duration":0.13953488372092693,"midi":97,"time":52.651162790697676,"velocity":0.2204724409448819},{"duration":0.11627906976744384,"midi":92,"time":52.66279069767442,"velocity":0.25196850393700787},{"duration":0.05813953488372192,"midi":103,"time":52.66279069767442,"velocity":0.13385826771653545},{"duration":0.011627906976741542,"midi":44,"time":52.674418604651166,"velocity":0.5511811023622047},{"duration":0.02325581395349019,"midi":42,"time":52.68604651162791,"velocity":0.5433070866141733},{"duration":0.02325581395349019,"midi":51,"time":52.68604651162791,"velocity":0.2755905511811024},{"duration":0.03488372093023173,"midi":69,"time":52.69767441860465,"velocity":0.3700787401574803},{"duration":0.046511627906973274,"midi":80,"time":52.7093023255814,"velocity":0.1732283464566929},{"duration":0.03488372093023173,"midi":99,"time":52.7093023255814,"velocity":0.11023622047244094},{"duration":0.06976744186046346,"midi":93,"time":52.72093023255814,"velocity":0.2283464566929134},{"duration":0.1279069767441925,"midi":68,"time":52.73255813953488,"velocity":0.4566929133858268},{"duration":0.02325581395349019,"midi":37,"time":52.74418604651163,"velocity":0.3700787401574803},{"duration":0.1046511627906952,"midi":61,"time":52.74418604651163,"velocity":0.4094488188976378},{"duration":0.02325581395349019,"midi":65,"time":52.74418604651163,"velocity":0.3858267716535433},{"duration":0.03488372093023173,"midi":81,"time":52.75581395348837,"velocity":0.23622047244094488},{"duration":0.05813953488372192,"midi":90,"time":52.75581395348837,"velocity":0.1889763779527559},{"duration":0.03488372093023173,"midi":94,"time":52.75581395348837,"velocity":0.12598425196850394},{"duration":0.11627906976744384,"midi":48,"time":52.77906976744186,"velocity":0.3543307086614173},{"duration":0.11627906976744384,"midi":55,"time":52.77906976744186,"velocity":0.31496062992125984},{"duration":0.11627906976744384,"midi":65,"time":52.77906976744186,"velocity":0.4881889763779528},{"duration":0.08139534883721211,"midi":82,"time":52.77906976744186,"velocity":0.1889763779527559},{"duration":0.05813953488372192,"midi":95,"time":52.7906976744186,"velocity":0.13385826771653545},{"duration":0.06976744186047057,"midi":36,"time":52.825581395348834,"velocity":0.33070866141732286},{"duration":0.19767441860465595,"midi":97,"time":52.825581395348834,"velocity":0.28346456692913385},{"duration":0.03488372093023173,"midi":60,"time":52.848837209302324,"velocity":0.3779527559055118},{"duration":0.1046511627906952,"midi":73,"time":52.86046511627907,"velocity":0.3228346456692913},{"duration":0.8372093023255758,"midi":87,"time":52.86046511627907,"velocity":0.5196850393700787},{"duration":0.12790697674418539,"midi":68,"time":52.872093023255815,"velocity":0.3858267716535433},{"duration":0.046511627906973274,"midi":86,"time":52.872093023255815,"velocity":0.2755905511811024},{"duration":0.06976744186047057,"midi":75,"time":52.883720930232556,"velocity":0.5669291338582677},{"duration":0.16279069767441712,"midi":90,"time":52.883720930232556,"velocity":0.18110236220472442},{"duration":0.06976744186047057,"midi":95,"time":52.883720930232556,"velocity":0.2677165354330709},{"duration":0.023255813953483084,"midi":62,"time":52.895348837209305,"velocity":0.4881889763779528},{"duration":0.023255813953483084,"midi":78,"time":52.895348837209305,"velocity":0.2283464566929134},{"duration":0.046511627906973274,"midi":82,"time":52.895348837209305,"velocity":0.41732283464566927},{"duration":0.22093023255813904,"midi":91,"time":52.895348837209305,"velocity":0.3700787401574803},{"duration":0.30232558139534405,"midi":92,"time":52.895348837209305,"velocity":0.3779527559055118},{"duration":0.09302325581395365,"midi":100,"time":52.895348837209305,"velocity":0.16535433070866143},{"duration":0.02325581395349019,"midi":53,"time":52.906976744186046,"velocity":0.2440944881889764},{"duration":0.03488372093023173,"midi":84,"time":52.906976744186046,"velocity":0.16535433070866143},{"duration":0.046511627906973274,"midi":77,"time":52.93023255813954,"velocity":0.12598425196850394},{"duration":0.05813953488372192,"midi":81,"time":52.93023255813954,"velocity":0.3937007874015748},{"duration":0.03488372093023173,"midi":101,"time":52.93023255813954,"velocity":0.11023622047244094},{"duration":0.12790697674418539,"midi":46,"time":52.94186046511628,"velocity":0.25196850393700787},{"duration":0.02325581395349019,"midi":53,"time":52.94186046511628,"velocity":0.2283464566929134},{"duration":0.02325581395349019,"midi":60,"time":52.94186046511628,"velocity":0.33070866141732286},{"duration":0.02325581395349019,"midi":83,"time":52.94186046511628,"velocity":0.44881889763779526},{"duration":0.11627906976744384,"midi":102,"time":52.94186046511628,"velocity":0.1889763779527559},{"duration":0.023255813953483084,"midi":76,"time":52.95348837209303,"velocity":0.4881889763779528},{"duration":0.1046511627907023,"midi":34,"time":52.97674418604651,"velocity":0.29133858267716534},{"duration":0.03488372093023173,"midi":63,"time":52.97674418604651,"velocity":0.2677165354330709},{"duration":0.1046511627907023,"midi":75,"time":52.97674418604651,"velocity":0.4015748031496063},{"duration":0.02325581395349019,"midi":83,"time":52.97674418604651,"velocity":0.4330708661417323},{"duration":0.2674418604651194,"midi":84,"time":52.97674418604651,"velocity":0.3937007874015748},{"duration":0.03488372093023173,"midi":53,"time":52.98837209302326,"velocity":0.25196850393700787},{"duration":0.09302325581395365,"midi":77,"time":52.98837209302326,"velocity":0.09448818897637795},{"duration":0.058139534883714816,"midi":82,"time":52.98837209302326,"velocity":0.4881889763779528},{"duration":0.046511627906973274,"midi":98,"time":53,"velocity":0.2677165354330709},{"duration":0.13953488372093403,"midi":68,"time":53.01162790697674,"velocity":0.3858267716535433},{"duration":0.02325581395349019,"midi":86,"time":53.01162790697674,"velocity":0.44881889763779526},{"duration":0.023255813953483084,"midi":55,"time":53.02325581395349,"velocity":0.2283464566929134},{"duration":0.05813953488372192,"midi":93,"time":53.03488372093023,"velocity":0.2047244094488189},{"duration":0.15116279069767558,"midi":97,"time":53.03488372093023,"velocity":0.2047244094488189},{"duration":0.05813953488372192,"midi":101,"time":53.03488372093023,"velocity":0.14960629921259844},{"duration":0.04651162790698038,"midi":63,"time":53.04651162790697,"velocity":0.31496062992125984},{"duration":0.046511627906973274,"midi":81,"time":53.05813953488372,"velocity":0.25196850393700787},{"duration":0.03488372093023173,"midi":82,"time":53.05813953488372,"velocity":0.5748031496062992},{"duration":0.046511627906973274,"midi":76,"time":53.08139534883721,"velocity":0.48031496062992124},{"duration":0.1046511627906952,"midi":95,"time":53.08139534883721,"velocity":0.2755905511811024},{"duration":0.09302325581395365,"midi":102,"time":53.08139534883721,"velocity":0.2440944881889764},{"duration":0.03488372093023173,"midi":83,"time":53.093023255813954,"velocity":0.5354330708661418},{"duration":0.12790697674418539,"midi":100,"time":53.093023255813954,"velocity":0.2204724409448819},{"duration":0.04651162790698038,"midi":63,"time":53.104651162790695,"velocity":0.30708661417322836},{"duration":0.046511627906973274,"midi":72,"time":53.116279069767444,"velocity":0.2283464566929134},{"duration":0.5348837209302317,"midi":82,"time":53.116279069767444,"velocity":0.5433070866141733},{"duration":0.4534883720930267,"midi":91,"time":53.127906976744185,"velocity":0.5118110236220472},{"duration":0.02325581395349019,"midi":76,"time":53.13953488372093,"velocity":0.4094488188976378},{"duration":0.11627906976744384,"midi":101,"time":53.151162790697676,"velocity":0.1732283464566929},{"duration":0.02325581395349019,"midi":63,"time":53.16279069767442,"velocity":0.33070866141732286},{"duration":0.06976744186046346,"midi":68,"time":53.16279069767442,"velocity":0.2755905511811024},{"duration":1.0232558139534902,"midi":75,"time":53.16279069767442,"velocity":0.5196850393700787},{"duration":0.03488372093023173,"midi":78,"time":53.16279069767442,"velocity":0.2677165354330709},{"duration":0.081395348837205,"midi":56,"time":53.174418604651166,"velocity":0.30708661417322836},{"duration":0.15116279069766847,"midi":60,"time":53.174418604651166,"velocity":0.2992125984251969},{"duration":0.03488372093023173,"midi":77,"time":53.174418604651166,"velocity":0.1968503937007874},{"duration":0.011627906976741542,"midi":46,"time":53.18604651162791,"velocity":0.5433070866141733},{"duration":0.011627906976748648,"midi":45,"time":53.19767441860465,"velocity":0.5748031496062992},{"duration":0.03488372093023173,"midi":93,"time":53.19767441860465,"velocity":0.14173228346456693},{"duration":0.011627906976741542,"midi":43,"time":53.2093023255814,"velocity":0.5669291338582677},{"duration":0.02325581395349019,"midi":42,"time":53.22093023255814,"velocity":0.5511811023622047},{"duration":0.02325581395349019,"midi":51,"time":53.22093023255814,"velocity":0.2755905511811024},{"duration":0.1860465116279073,"midi":97,"time":53.22093023255814,"velocity":0.28346456692913385},{"duration":0.02325581395349019,"midi":85,"time":53.23255813953488,"velocity":0.2677165354330709},{"duration":0.046511627906973274,"midi":68,"time":53.24418604651163,"velocity":0.30708661417322836},{"duration":0.046511627906973274,"midi":89,"time":53.24418604651163,"velocity":0.08661417322834646},{"duration":0.08139534883721211,"midi":51,"time":53.25581395348837,"velocity":0.1968503937007874},{"duration":0.1860465116279073,"midi":84,"time":53.25581395348837,"velocity":0.3543307086614173},{"duration":0.046511627906973274,"midi":81,"time":53.27906976744186,"velocity":0.3700787401574803},{"duration":0.16279069767441712,"midi":92,"time":53.27906976744186,"velocity":0.12598425196850394},{"duration":0.08139534883721211,"midi":63,"time":53.2906976744186,"velocity":0.30708661417322836},{"duration":0.03488372093023173,"midi":95,"time":53.2906976744186,"velocity":0.15748031496062992},{"duration":0.023255813953483084,"midi":34,"time":53.30232558139535,"velocity":0.33858267716535434},{"duration":0.03488372093023173,"midi":68,"time":53.30232558139535,"velocity":0.2755905511811024},{"duration":0.2674418604651123,"midi":72,"time":53.30232558139535,"velocity":0.3464566929133858},{"duration":0.03488372093023884,"midi":44,"time":53.325581395348834,"velocity":0.10236220472440945},{"duration":0.02325581395349019,"midi":69,"time":53.348837209302324,"velocity":0.28346456692913385},{"duration":0.3139534883720927,"midi":68,"time":53.372093023255815,"velocity":0.44881889763779526},{"duration":0.04651162790698038,"midi":56,"time":53.383720930232556,"velocity":0.2440944881889764},{"duration":0.023255813953483084,"midi":63,"time":53.395348837209305,"velocity":0.2283464566929134},{"duration":0.04651162790698038,"midi":86,"time":53.41860465116279,"velocity":0.2125984251968504},{"duration":0.05813953488372192,"midi":90,"time":53.41860465116279,"velocity":0.11811023622047244},{"duration":0.08139534883721211,"midi":93,"time":53.41860465116279,"velocity":0.11811023622047244},{"duration":0.02325581395349019,"midi":62,"time":53.43023255813954,"velocity":0.2440944881889764},{"duration":0.05813953488372192,"midi":78,"time":53.43023255813954,"velocity":0.1968503937007874},{"duration":0.02325581395349019,"midi":81,"time":53.43023255813954,"velocity":0.2992125984251969},{"duration":0.046511627906973274,"midi":89,"time":53.43023255813954,"velocity":0.25984251968503935},{"duration":0.12790697674418539,"midi":56,"time":53.44186046511628,"velocity":0.3543307086614173},{"duration":0.02325581395349019,"midi":74,"time":53.44186046511628,"velocity":0.25984251968503935},{"duration":0.1046511627906952,"midi":97,"time":53.44186046511628,"velocity":0.14173228346456693},{"duration":0.09302325581394655,"midi":51,"time":53.45348837209303,"velocity":0.30708661417322836},{"duration":0.09302325581394655,"midi":63,"time":53.45348837209303,"velocity":0.33070866141732286},{"duration":0.03488372093023173,"midi":66,"time":53.45348837209303,"velocity":0.1968503937007874},{"duration":0.13953488372092693,"midi":44,"time":53.46511627906977,"velocity":0.3543307086614173},{"duration":0.03488372093023173,"midi":101,"time":53.48837209302326,"velocity":0.10236220472440945},{"duration":0.02325581395349019,"midi":33,"time":53.5,"velocity":0.2992125984251969},{"duration":0.023255813953483084,"midi":32,"time":53.52325581395349,"velocity":0.31496062992125984},{"duration":0.02325581395349019,"midi":60,"time":53.53488372093023,"velocity":0.2283464566929134},{"duration":0.05813953488372192,"midi":32,"time":53.55813953488372,"velocity":0.2755905511811024},{"duration":0.081395348837205,"midi":79,"time":53.55813953488372,"velocity":0.07874015748031496},{"duration":0.2093023255813975,"midi":84,"time":53.56976744186046,"velocity":0.29133858267716534},{"duration":0.046511627906973274,"midi":63,"time":53.593023255813954,"velocity":0.2283464566929134},{"duration":0.05813953488372192,"midi":72,"time":53.604651162790695,"velocity":0.2440944881889764},{"duration":0.05813953488372192,"midi":97,"time":53.616279069767444,"velocity":0.13385826771653545},{"duration":0.03488372093023884,"midi":60,"time":53.63953488372093,"velocity":0.1968503937007874},{"duration":0.03488372093023884,"midi":81,"time":53.63953488372093,"velocity":0.1732283464566929},{"duration":0.1046511627907023,"midi":91,"time":53.66279069767442,"velocity":0.2440944881889764},{"duration":0.03488372093023173,"midi":78,"time":53.674418604651166,"velocity":0.16535433070866143},{"duration":0.046511627906973274,"midi":102,"time":53.674418604651166,"velocity":0.25196850393700787},{"duration":0.02325581395349019,"midi":66,"time":53.68604651162791,"velocity":0.3937007874015748},{"duration":0.03488372093023173,"midi":73,"time":53.68604651162791,"velocity":0.2047244094488189},{"duration":0.05813953488372192,"midi":88,"time":53.68604651162791,"velocity":0.2677165354330709},{"duration":0.046511627906973274,"midi":89,"time":53.68604651162791,"velocity":0.2440944881889764},{"duration":0.046511627906973274,"midi":93,"time":53.68604651162791,"velocity":0.18110236220472442},{"duration":0.09302325581395365,"midi":94,"time":53.68604651162791,"velocity":0.16535433070866143},{"duration":0.03488372093023173,"midi":95,"time":53.68604651162791,"velocity":0.23622047244094488},{"duration":0.19767441860464885,"midi":96,"time":53.68604651162791,"velocity":0.2992125984251969},{"duration":0.19767441860464885,"midi":97,"time":53.68604651162791,"velocity":0.29133858267716534},{"duration":0.05813953488372192,"midi":98,"time":53.68604651162791,"velocity":0.09448818897637795},{"duration":0.03488372093023173,"midi":45,"time":53.69767441860465,"velocity":0.5984251968503937},{"duration":0.02325581395349019,"midi":60,"time":53.69767441860465,"velocity":0.3937007874015748},{"duration":0.06976744186047057,"midi":68,"time":53.69767441860465,"velocity":0.33858267716535434},{"duration":0.08139534883721211,"midi":90,"time":53.69767441860465,"velocity":0.36220472440944884},{"duration":0.04651162790698038,"midi":63,"time":53.72093023255814,"velocity":0.15748031496062992},{"duration":0.12790697674418539,"midi":72,"time":53.72093023255814,"velocity":0.3543307086614173},{"duration":0.1046511627906952,"midi":82,"time":53.72093023255814,"velocity":0.30708661417322836},{"duration":0.011627906976748648,"midi":44,"time":53.73255813953488,"velocity":0.5984251968503937},{"duration":0.011627906976741542,"midi":43,"time":53.74418604651163,"velocity":0.5748031496062992},{"duration":0.05813953488372192,"midi":56,"time":53.74418604651163,"velocity":0.3858267716535433},{"duration":0.011627906976748648,"midi":42,"time":53.75581395348837,"velocity":0.5354330708661418},{"duration":0.05813953488372192,"midi":85,"time":53.75581395348837,"velocity":0.2283464566929134},{"duration":0.09302325581395365,"midi":89,"time":53.75581395348837,"velocity":0.2992125984251969},{"duration":0.03488372093023173,"midi":67,"time":53.76744186046512,"velocity":0.3700787401574803},{"duration":0.046511627906973274,"midi":88,"time":53.76744186046512,"velocity":0.2677165354330709},{"duration":0.16279069767441712,"midi":92,"time":53.76744186046512,"velocity":0.2440944881889764},{"duration":0.046511627906973274,"midi":93,"time":53.76744186046512,"velocity":0.09448818897637795},{"duration":0.08139534883721211,"midi":86,"time":53.77906976744186,"velocity":0.2677165354330709},{"duration":0.04651162790698038,"midi":63,"time":53.7906976744186,"velocity":0.1968503937007874},{"duration":0.023255813953483084,"midi":37,"time":53.80232558139535,"velocity":0.3858267716535433},{"duration":0.023255813953483084,"midi":57,"time":53.80232558139535,"velocity":0.4015748031496063},{"duration":0.05813953488372192,"midi":102,"time":53.80232558139535,"velocity":0.18110236220472442},{"duration":0.03488372093023884,"midi":36,"time":53.825581395348834,"velocity":0.29133858267716534},{"duration":0.03488372093023884,"midi":58,"time":53.825581395348834,"velocity":0.3700787401574803},{"duration":0.08139534883721211,"midi":70,"time":53.825581395348834,"velocity":0.5196850393700787},{"duration":0.046511627906973274,"midi":80,"time":53.83720930232558,"velocity":0.2283464566929134},{"duration":0.03488372093023173,"midi":83,"time":53.83720930232558,"velocity":0.3464566929133858},{"duration":0.1046511627907023,"midi":63,"time":53.848837209302324,"velocity":0.1968503937007874},{"duration":0.023255813953483084,"midi":59,"time":53.86046511627907,"velocity":0.33858267716535434},{"duration":0.1046511627906952,"midi":68,"time":53.86046511627907,"velocity":0.4251968503937008},{"duration":0.03488372093023173,"midi":78,"time":53.86046511627907,"velocity":0.11023622047244094},{"duration":0.02325581395349019,"midi":58,"time":53.883720930232556,"velocity":0.33858267716535434},{"duration":0.06976744186047057,"midi":72,"time":53.883720930232556,"velocity":0.5433070866141733},{"duration":0.04651162790698038,"midi":83,"time":53.906976744186046,"velocity":0.09448818897637795},{"duration":0.08139534883721211,"midi":56,"time":53.91860465116279,"velocity":0.3937007874015748},{"duration":0.02325581395349019,"midi":71,"time":53.91860465116279,"velocity":0.23622047244094488},{"duration":0.06976744186046346,"midi":88,"time":53.93023255813954,"velocity":0.25984251968503935},{"duration":0.05813953488372192,"midi":90,"time":53.93023255813954,"velocity":0.14173228346456693},{"duration":0.12790697674418539,"midi":96,"time":53.93023255813954,"velocity":0.2283464566929134},{"duration":0.06976744186046346,"midi":79,"time":53.94186046511628,"velocity":0.2047244094488189},{"duration":0.04651162790698038,"midi":85,"time":53.94186046511628,"velocity":0.4330708661417323},{"duration":0.03488372093023173,"midi":73,"time":53.95348837209303,"velocity":0.5590551181102362},{"duration":0.046511627906973274,"midi":81,"time":53.95348837209303,"velocity":0.2440944881889764},{"duration":0.058139534883714816,"midi":92,"time":53.95348837209303,"velocity":0.13385826771653545},{"duration":0.16279069767441712,"midi":100,"time":53.95348837209303,"velocity":0.28346456692913385},{"duration":0.16279069767441712,"midi":102,"time":53.95348837209303,"velocity":0.31496062992125984},{"duration":0.06976744186046346,"midi":84,"time":53.97674418604651,"velocity":0.36220472440944884},{"duration":0.08139534883721211,"midi":86,"time":53.97674418604651,"velocity":0.12598425196850394},{"duration":0.03488372093023173,"midi":59,"time":53.98837209302326,"velocity":0.4094488188976378},{"duration":0.06976744186046346,"midi":72,"time":53.98837209302326,"velocity":0.5196850393700787},{"duration":0.12790697674418539,"midi":101,"time":53.98837209302326,"velocity":0.25196850393700787},{"duration":0.09302325581395365,"midi":97,"time":54,"velocity":0.07086614173228346},{"duration":0.02325581395349019,"midi":66,"time":54.01162790697674,"velocity":0.2440944881889764},{"duration":0.03488372093023173,"midi":68,"time":54.01162790697674,"velocity":0.2283464566929134},{"duration":0.023255813953483084,"midi":39,"time":54.02325581395349,"velocity":0.3228346456692913},{"duration":0.05813953488372192,"midi":58,"time":54.02325581395349,"velocity":0.4566929133858268},{"duration":0.06976744186046346,"midi":77,"time":54.02325581395349,"velocity":0.14960629921259844},{"duration":0.03488372093023173,"midi":46,"time":54.03488372093023,"velocity":0.30708661417322836},{"duration":0.03488372093023173,"midi":65,"time":54.03488372093023,"velocity":0.28346456692913385},{"duration":0.05813953488372192,"midi":92,"time":54.03488372093023,"velocity":0.1732283464566929},{"duration":0.08139534883721211,"midi":81,"time":54.04651162790697,"velocity":0.1968503937007874},{"duration":0.03488372093023884,"midi":103,"time":54.04651162790697,"velocity":0.09448818897637795},{"duration":0.02325581395349019,"midi":39,"time":54.05813953488372,"velocity":0.29133858267716534},{"duration":0.046511627906973274,"midi":63,"time":54.05813953488372,"velocity":0.2440944881889764},{"duration":0.046511627906973274,"midi":83,"time":54.05813953488372,"velocity":0.14173228346456693},{"duration":0.03488372093023173,"midi":85,"time":54.05813953488372,"velocity":0.18110236220472442},{"duration":0.04651162790698038,"midi":84,"time":54.06976744186046,"velocity":0.1889763779527559},{"duration":0.04651162790698038,"midi":88,"time":54.06976744186046,"velocity":0.13385826771653545},{"duration":0.03488372093023173,"midi":57,"time":54.08139534883721,"velocity":0.41732283464566927},{"duration":0.023255813953483084,"midi":65,"time":54.08139534883721,"velocity":0.2755905511811024},{"duration":0.058139534883714816,"midi":78,"time":54.08139534883721,"velocity":0.15748031496062992},{"duration":0.046511627906973274,"midi":74,"time":54.093023255813954,"velocity":0.2047244094488189},{"duration":0.02325581395349019,"midi":64,"time":54.104651162790695,"velocity":0.25196850393700787},{"duration":0.02325581395349019,"midi":44,"time":54.127906976744185,"velocity":0.3464566929133858},{"duration":0.05813953488372192,"midi":51,"time":54.127906976744185,"velocity":0.2440944881889764},{"duration":0.02325581395349019,"midi":72,"time":54.127906976744185,"velocity":0.2755905511811024},{"duration":0.05813953488372192,"midi":64,"time":54.13953488372093,"velocity":0.2204724409448819},{"duration":0.05813953488372192,"midi":85,"time":54.13953488372093,"velocity":0.15748031496062992},{"duration":0.02325581395349019,"midi":33,"time":54.151162790697676,"velocity":0.2283464566929134},{"duration":0.03488372093023173,"midi":73,"time":54.151162790697676,"velocity":0.33858267716535434},{"duration":0.04651162790698038,"midi":44,"time":54.16279069767442,"velocity":0.2283464566929134},{"duration":0.03488372093023173,"midi":32,"time":54.18604651162791,"velocity":0.25984251968503935},{"duration":0.046511627906973274,"midi":72,"time":54.18604651162791,"velocity":0.2047244094488189},{"duration":0.08139534883721211,"midi":92,"time":54.18604651162791,"velocity":0.11811023622047244},{"duration":0.09302325581395365,"midi":84,"time":54.19767441860465,"velocity":0.28346456692913385},{"duration":0.03488372093023173,"midi":76,"time":54.2093023255814,"velocity":0.12598425196850394},{"duration":0.7093023255813904,"midi":99,"time":54.2093023255814,"velocity":0.3543307086614173},{"duration":0.3488372093023244,"midi":100,"time":54.2093023255814,"velocity":0.3464566929133858},{"duration":0.05813953488372192,"midi":101,"time":54.2093023255814,"velocity":0.23622047244094488},{"duration":0.2906976744186025,"midi":102,"time":54.2093023255814,"velocity":0.4566929133858268},{"duration":0.11627906976743674,"midi":103,"time":54.2093023255814,"velocity":0.33858267716535434},{"duration":0.03488372093023173,"midi":73,"time":54.22093023255814,"velocity":0.23622047244094488},{"duration":0.11627906976744384,"midi":78,"time":54.22093023255814,"velocity":0.30708661417322836},{"duration":0.05813953488372192,"midi":82,"time":54.22093023255814,"velocity":0.15748031496062992},{"duration":0.06976744186046346,"midi":87,"time":54.22093023255814,"velocity":0.14173228346456693},{"duration":0.03488372093023173,"midi":89,"time":54.22093023255814,"velocity":0.07086614173228346},{"duration":0.11627906976744384,"midi":90,"time":54.22093023255814,"velocity":0.48031496062992124},{"duration":0.03488372093023173,"midi":91,"time":54.22093023255814,"velocity":0.41732283464566927},{"duration":0.03488372093023173,"midi":93,"time":54.22093023255814,"velocity":0.14173228346456693},{"duration":0.12790697674418539,"midi":94,"time":54.22093023255814,"velocity":0.3779527559055118},{"duration":0.2325581395348877,"midi":96,"time":54.22093023255814,"velocity":0.4409448818897638},{"duration":0.2093023255813975,"midi":98,"time":54.22093023255814,"velocity":0.2755905511811024},{"duration":0.02325581395349019,"midi":57,"time":54.23255813953488,"velocity":0.28346456692913385},{"duration":0.02325581395349019,"midi":67,"time":54.23255813953488,"velocity":0.3543307086614173},{"duration":0.1046511627907023,"midi":81,"time":54.23255813953488,"velocity":0.18110236220472442},{"duration":0.04651162790698038,"midi":86,"time":54.23255813953488,"velocity":0.2125984251968504},{"duration":0.011627906976741542,"midi":46,"time":54.24418604651163,"velocity":0.5354330708661418},{"duration":0.011627906976748648,"midi":45,"time":54.25581395348837,"velocity":0.5748031496062992},{"duration":0.03488372093023173,"midi":65,"time":54.25581395348837,"velocity":0.33858267716535434},{"duration":0.02325581395349019,"midi":68,"time":54.25581395348837,"velocity":0.28346456692913385},{"duration":0.03488372093023173,"midi":72,"time":54.25581395348837,"velocity":0.3228346456692913},{"duration":0.04651162790698038,"midi":76,"time":54.25581395348837,"velocity":0.30708661417322836},{"duration":0.011627906976741542,"midi":43,"time":54.26744186046512,"velocity":0.5748031496062992},{"duration":0.046511627906973274,"midi":71,"time":54.26744186046512,"velocity":0.2440944881889764},{"duration":0.03488372093023173,"midi":95,"time":54.26744186046512,"velocity":0.2204724409448819},{"duration":0.30232558139534405,"midi":97,"time":54.26744186046512,"velocity":0.3700787401574803},{"duration":0.02325581395349019,"midi":42,"time":54.27906976744186,"velocity":0.5511811023622047},{"duration":0.03488372093023173,"midi":53,"time":54.27906976744186,"velocity":0.25196850393700787},{"duration":0.09302325581395365,"midi":83,"time":54.27906976744186,"velocity":0.41732283464566927},{"duration":0.05813953488372192,"midi":85,"time":54.27906976744186,"velocity":0.29133858267716534},{"duration":0.03488372093023173,"midi":66,"time":54.2906976744186,"velocity":0.3937007874015748},{"duration":0.023255813953483084,"midi":40,"time":54.30232558139535,"velocity":0.4566929133858268},{"duration":0.046511627906973274,"midi":75,"time":54.30232558139535,"velocity":0.28346456692913385},{"duration":0.03488372093023884,"midi":67,"time":54.325581395348834,"velocity":0.30708661417322836},{"duration":0.03488372093023173,"midi":63,"time":54.33720930232558,"velocity":0.25984251968503935},{"duration":0.02325581395349019,"midi":71,"time":54.33720930232558,"velocity":0.23622047244094488},{"duration":0.02325581395349019,"midi":86,"time":54.33720930232558,"velocity":0.33070866141732286},{"duration":0.046511627906973274,"midi":91,"time":54.33720930232558,"velocity":0.47244094488188976},{"duration":0.15116279069767558,"midi":95,"time":54.33720930232558,"velocity":0.5039370078740157},{"duration":0.23255813953488058,"midi":101,"time":54.33720930232558,"velocity":0.36220472440944884},{"duration":0.06976744186046346,"midi":48,"time":54.348837209302324,"velocity":0.14960629921259844},{"duration":0.46511627906976827,"midi":87,"time":54.348837209302324,"velocity":0.33070866141732286},{"duration":0.058139534883714816,"midi":56,"time":54.36046511627907,"velocity":0.2283464566929134},{"duration":0.023255813953483084,"midi":66,"time":54.36046511627907,"velocity":0.2755905511811024},{"duration":0.24418604651162212,"midi":68,"time":54.36046511627907,"velocity":0.49606299212598426},{"duration":0.023255813953483084,"midi":72,"time":54.36046511627907,"velocity":0.25984251968503935},{"duration":0.06976744186046346,"midi":90,"time":54.36046511627907,"velocity":0.1889763779527559},{"duration":0.2674418604651123,"midi":92,"time":54.36046511627907,"velocity":0.5275590551181102},{"duration":0.046511627906973274,"midi":94,"time":54.36046511627907,"velocity":0.13385826771653545},{"duration":0.3720930232558146,"midi":75,"time":54.372093023255815,"velocity":0.4015748031496063},{"duration":0.05813953488372192,"midi":84,"time":54.372093023255815,"velocity":0.41732283464566927},{"duration":0.046511627906973274,"midi":82,"time":54.395348837209305,"velocity":0.2125984251968504},{"duration":0.08139534883721211,"midi":65,"time":54.406976744186046,"velocity":0.3779527559055118},{"duration":0.17441860465116577,"midi":72,"time":54.406976744186046,"velocity":0.33858267716535434},{"duration":0.02325581395349019,"midi":79,"time":54.43023255813954,"velocity":0.2283464566929134},{"duration":0.02325581395349019,"midi":81,"time":54.43023255813954,"velocity":0.2283464566929134},{"duration":0.03488372093023173,"midi":83,"time":54.43023255813954,"velocity":0.14960629921259844},{"duration":0.2325581395348877,"midi":84,"time":54.44186046511628,"velocity":0.3464566929133858},{"duration":0.1046511627906952,"midi":90,"time":54.44186046511628,"velocity":0.2755905511811024},{"duration":0.03488372093023173,"midi":103,"time":54.44186046511628,"velocity":0.13385826771653545},{"duration":0.720930232558139,"midi":96,"time":54.46511627906977,"velocity":0.5748031496062992},{"duration":0.03488372093023173,"midi":58,"time":54.47674418604651,"velocity":0.2125984251968504},{"duration":0.046511627906973274,"midi":48,"time":54.48837209302326,"velocity":0.2440944881889764},{"duration":0.058139534883714816,"midi":82,"time":54.48837209302326,"velocity":0.11811023622047244},{"duration":0.058139534883714816,"midi":86,"time":54.48837209302326,"velocity":0.1968503937007874},{"duration":0.1046511627906952,"midi":103,"time":54.48837209302326,"velocity":0.2047244094488189},{"duration":0.02325581395349019,"midi":41,"time":54.5,"velocity":0.2992125984251969},{"duration":0.1046511627906952,"midi":65,"time":54.5,"velocity":0.3858267716535433},{"duration":0.03488372093023173,"midi":78,"time":54.5,"velocity":0.23622047244094488},{"duration":0.43023255813953654,"midi":102,"time":54.51162790697674,"velocity":0.4409448818897638},{"duration":0.023255813953483084,"midi":40,"time":54.52325581395349,"velocity":0.3464566929133858},{"duration":0.046511627906973274,"midi":91,"time":54.52325581395349,"velocity":0.2204724409448819},{"duration":0.02325581395349019,"midi":41,"time":54.55813953488372,"velocity":0.23622047244094488},{"duration":0.03488372093023173,"midi":57,"time":54.55813953488372,"velocity":0.12598425196850394},{"duration":0.046511627906973274,"midi":90,"time":54.55813953488372,"velocity":0.10236220472440945},{"duration":0.04651162790698038,"midi":100,"time":54.56976744186046,"velocity":0.11023622047244094},{"duration":0.03488372093023173,"midi":60,"time":54.58139534883721,"velocity":0.08661417322834646},{"duration":0.023255813953483084,"midi":73,"time":54.58139534883721,"velocity":0.3543307086614173},{"duration":0.05813953488372192,"midi":95,"time":54.593023255813954,"velocity":0.4645669291338583},{"duration":0.02325581395349019,"midi":67,"time":54.604651162790695,"velocity":0.4645669291338583},{"duration":0.03488372093023173,"midi":72,"time":54.604651162790695,"velocity":0.3700787401574803},{"duration":0.04651162790698038,"midi":77,"time":54.604651162790695,"velocity":0.14960629921259844},{"duration":0.1046511627907023,"midi":83,"time":54.604651162790695,"velocity":0.2125984251968504},{"duration":0.03488372093023173,"midi":86,"time":54.604651162790695,"velocity":0.2204724409448819},{"duration":0.06976744186047057,"midi":91,"time":54.604651162790695,"velocity":0.3228346456692913},{"duration":0.05813953488372192,"midi":98,"time":54.604651162790695,"velocity":0.2440944881889764},{"duration":0.15116279069767558,"midi":97,"time":54.616279069767444,"velocity":0.2047244094488189},{"duration":0.02325581395349019,"midi":66,"time":54.627906976744185,"velocity":0.41732283464566927},{"duration":0.06976744186046346,"midi":93,"time":54.627906976744185,"velocity":0.23622047244094488},{"duration":0.02325581395349019,"midi":53,"time":54.63953488372093,"velocity":0.25196850393700787},{"duration":0.03488372093023884,"midi":71,"time":54.63953488372093,"velocity":0.25196850393700787},{"duration":0.16279069767442422,"midi":82,"time":54.63953488372093,"velocity":0.15748031496062992},{"duration":0.02325581395349019,"midi":92,"time":54.63953488372093,"velocity":0.2755905511811024},{"duration":0.03488372093023884,"midi":94,"time":54.63953488372093,"velocity":0.3228346456692913},{"duration":0.02325581395349019,"midi":65,"time":54.651162790697676,"velocity":0.4015748031496063},{"duration":0.24418604651162923,"midi":72,"time":54.66279069767442,"velocity":0.5039370078740157},{"duration":0.08139534883721211,"midi":80,"time":54.66279069767442,"velocity":0.25984251968503935},{"duration":0.2325581395348877,"midi":95,"time":54.66279069767442,"velocity":0.2677165354330709},{"duration":0.03488372093023173,"midi":53,"time":54.674418604651166,"velocity":0.25196850393700787},{"duration":0.023255813953483084,"midi":67,"time":54.674418604651166,"velocity":0.36220472440944884},{"duration":0.12790697674418539,"midi":92,"time":54.674418604651166,"velocity":0.28346456692913385},{"duration":0.046511627906973274,"midi":63,"time":54.68604651162791,"velocity":0.25984251968503935},{"duration":0.02325581395349019,"midi":31,"time":54.69767441860465,"velocity":0.2440944881889764},{"duration":0.02325581395349019,"midi":58,"time":54.69767441860465,"velocity":0.41732283464566927},{"duration":0.08139534883721211,"midi":66,"time":54.69767441860465,"velocity":0.4330708661417323},{"duration":0.1046511627907023,"midi":100,"time":54.69767441860465,"velocity":0.14960629921259844},{"duration":0.15116279069767558,"midi":101,"time":54.69767441860465,"velocity":0.18110236220472442},{"duration":0.02325581395349019,"midi":41,"time":54.72093023255814,"velocity":0.2755905511811024},{"duration":0.24418604651162923,"midi":91,"time":54.72093023255814,"velocity":0.25196850393700787},{"duration":0.02325581395349019,"midi":56,"time":54.73255813953488,"velocity":0.5039370078740157},{"duration":0.04651162790698038,"midi":90,"time":54.73255813953488,"velocity":0.25984251968503935},{"duration":0.05813953488372192,"midi":98,"time":54.73255813953488,"velocity":0.2204724409448819},{"duration":0.046511627906973274,"midi":61,"time":54.74418604651163,"velocity":0.4094488188976378},{"duration":0.03488372093023173,"midi":81,"time":54.74418604651163,"velocity":0.15748031496062992},{"duration":0.03488372093023173,"midi":89,"time":54.74418604651163,"velocity":0.2992125984251969},{"duration":0.1860465116279073,"midi":94,"time":54.74418604651163,"velocity":0.3700787401574803},{"duration":0.05813953488372192,"midi":75,"time":54.75581395348837,"velocity":0.2283464566929134},{"duration":0.023255813953483084,"midi":45,"time":54.76744186046512,"velocity":0.5826771653543307},{"duration":0.023255813953483084,"midi":93,"time":54.76744186046512,"velocity":0.2283464566929134},{"duration":0.27906976744186096,"midi":88,"time":54.77906976744186,"velocity":0.4094488188976378},{"duration":0.011627906976748648,"midi":44,"time":54.7906976744186,"velocity":0.5905511811023622},{"duration":0.13953488372093403,"midi":60,"time":54.7906976744186,"velocity":0.4566929133858268},{"duration":0.12790697674418539,"midi":90,"time":54.7906976744186,"velocity":0.16535433070866143},{"duration":0.011627906976741542,"midi":43,"time":54.80232558139535,"velocity":0.5590551181102362},{"duration":0.09302325581395365,"midi":103,"time":54.80232558139535,"velocity":0.25196850393700787},{"duration":0.011627906976741542,"midi":42,"time":54.81395348837209,"velocity":0.5118110236220472},{"duration":0.04651162790698038,"midi":98,"time":54.81395348837209,"velocity":0.09448818897637795},{"duration":0.09302325581395365,"midi":75,"time":54.825581395348834,"velocity":0.3779527559055118},{"duration":0.08139534883721211,"midi":92,"time":54.825581395348834,"velocity":0.2677165354330709},{"duration":0.09302325581395365,"midi":65,"time":54.83720930232558,"velocity":0.3464566929133858},{"duration":0.09302325581395365,"midi":68,"time":54.83720930232558,"velocity":0.2677165354330709},{"duration":0.04651162790698038,"midi":79,"time":54.848837209302324,"velocity":0.14960629921259844},{"duration":0.023255813953483084,"midi":37,"time":54.86046511627907,"velocity":0.36220472440944884},{"duration":0.05813953488372192,"midi":83,"time":54.872093023255815,"velocity":0.15748031496062992},{"duration":0.06976744186047057,"midi":81,"time":54.883720930232556,"velocity":0.2440944881889764},{"duration":0.06976744186047057,"midi":82,"time":54.883720930232556,"velocity":0.15748031496062992},{"duration":0.03488372093023173,"midi":85,"time":54.883720930232556,"velocity":0.16535433070866143},{"duration":0.1046511627906952,"midi":48,"time":54.895348837209305,"velocity":0.33070866141732286},{"duration":0.05813953488372192,"midi":78,"time":54.895348837209305,"velocity":0.2125984251968504},{"duration":0.02325581395349019,"midi":73,"time":54.906976744186046,"velocity":0.2440944881889764},{"duration":0.04651162790698038,"midi":84,"time":54.906976744186046,"velocity":0.1889763779527559},{"duration":0.02325581395349019,"midi":55,"time":54.91860465116279,"velocity":0.25196850393700787},{"duration":0.06976744186046346,"midi":72,"time":54.93023255813954,"velocity":0.4566929133858268},{"duration":0.03488372093023173,"midi":74,"time":54.93023255813954,"velocity":0.18110236220472442},{"duration":0.38372093023255616,"midi":99,"time":54.93023255813954,"velocity":0.36220472440944884},{"duration":0.04651162790698038,"midi":36,"time":54.94186046511628,"velocity":0.3700787401574803},{"duration":0.02325581395349019,"midi":56,"time":54.94186046511628,"velocity":0.3543307086614173},{"duration":0.03488372093023173,"midi":65,"time":54.94186046511628,"velocity":0.3543307086614173},{"duration":0.11627906976744384,"midi":94,"time":54.94186046511628,"velocity":0.2992125984251969},{"duration":0.3604651162790731,"midi":97,"time":54.94186046511628,"velocity":0.2125984251968504},{"duration":0.046511627906973274,"midi":75,"time":54.95348837209303,"velocity":0.33858267716535434},{"duration":0.03488372093023173,"midi":61,"time":54.96511627906977,"velocity":0.3464566929133858},{"duration":0.09302325581395365,"midi":68,"time":54.97674418604651,"velocity":0.2755905511811024},{"duration":0.023255813953483084,"midi":37,"time":54.98837209302326,"velocity":0.2440944881889764},{"duration":0.09302325581395365,"midi":90,"time":54.98837209302326,"velocity":0.23622047244094488},{"duration":0.02325581395349019,"midi":56,"time":55,"velocity":0.25984251968503935},{"duration":0.05813953488372192,"midi":60,"time":55,"velocity":0.33070866141732286},{"duration":0.09302325581395365,"midi":73,"time":55,"velocity":0.5905511811023622},{"duration":0.046511627906973274,"midi":86,"time":55,"velocity":0.09448818897637795},{"duration":0.05813953488372192,"midi":91,"time":55,"velocity":0.16535433070866143},{"duration":0.03488372093023173,"midi":79,"time":55.01162790697674,"velocity":0.30708661417322836},{"duration":0.2906976744186096,"midi":80,"time":55.01162790697674,"velocity":0.4881889763779528},{"duration":0.02325581395349019,"midi":89,"time":55.01162790697674,"velocity":0.4094488188976378},{"duration":0.1046511627907023,"midi":95,"time":55.01162790697674,"velocity":0.25196850393700787},{"duration":1.6162790697674438,"midi":101,"time":55.01162790697674,"velocity":0.4251968503937008},{"duration":0.03488372093023173,"midi":45,"time":55.02325581395349,"velocity":0.3543307086614173},{"duration":0.12790697674418539,"midi":53,"time":55.02325581395349,"velocity":0.36220472440944884},{"duration":0.03488372093023173,"midi":82,"time":55.02325581395349,"velocity":0.2125984251968504},{"duration":0.046511627906973274,"midi":103,"time":55.02325581395349,"velocity":0.25984251968503935},{"duration":0.1046511627906952,"midi":75,"time":55.03488372093023,"velocity":0.2677165354330709},{"duration":0.02325581395349019,"midi":84,"time":55.03488372093023,"velocity":0.25984251968503935},{"duration":0.24418604651162923,"midi":89,"time":55.04651162790697,"velocity":0.5196850393700787},{"duration":0.12790697674418539,"midi":46,"time":55.05813953488372,"velocity":0.28346456692913385},{"duration":0.02325581395349019,"midi":61,"time":55.05813953488372,"velocity":0.29133858267716534},{"duration":0.05813953488372192,"midi":66,"time":55.05813953488372,"velocity":0.1968503937007874},{"duration":0.02325581395349019,"midi":77,"time":55.05813953488372,"velocity":0.29133858267716534},{"duration":0.06976744186046346,"midi":83,"time":55.05813953488372,"velocity":0.2992125984251969},{"duration":0.40697674418604635,"midi":93,"time":55.05813953488372,"velocity":0.3779527559055118},{"duration":0.06976744186046346,"midi":70,"time":55.06976744186046,"velocity":0.2125984251968504},{"duration":0.1860465116279073,"midi":94,"time":55.06976744186046,"velocity":0.31496062992125984},{"duration":0.09302325581395365,"midi":102,"time":55.06976744186046,"velocity":0.28346456692913385},{"duration":0.023255813953483084,"midi":35,"time":55.08139534883721,"velocity":0.2992125984251969},{"duration":0.2906976744186025,"midi":77,"time":55.093023255813954,"velocity":0.31496062992125984},{"duration":0.05813953488372192,"midi":34,"time":55.104651162790695,"velocity":0.2755905511811024},{"duration":0.05813953488372192,"midi":82,"time":55.104651162790695,"velocity":0.28346456692913385},{"duration":0.1860465116279073,"midi":73,"time":55.116279069767444,"velocity":0.5275590551181102},{"duration":0.1046511627906952,"midi":95,"time":55.127906976744185,"velocity":0.2992125984251969},{"duration":0.05813953488372192,"midi":84,"time":55.151162790697676,"velocity":0.4015748031496063},{"duration":0.1046511627907023,"midi":65,"time":55.16279069767442,"velocity":0.25196850393700787},{"duration":0.15116279069767558,"midi":103,"time":55.16279069767442,"velocity":0.2677165354330709},{"duration":0.058139534883714816,"midi":82,"time":55.174418604651166,"velocity":0.23622047244094488},{"duration":0.12790697674418539,"midi":70,"time":55.18604651162791,"velocity":0.18110236220472442},{"duration":0.1046511627906952,"midi":61,"time":55.22093023255814,"velocity":0.2677165354330709},{"duration":0.08139534883721211,"midi":84,"time":55.22093023255814,"velocity":0.3779527559055118},{"duration":0.16279069767441712,"midi":82,"time":55.24418604651163,"velocity":0.4251968503937008},{"duration":0.06976744186046346,"midi":95,"time":55.24418604651163,"velocity":0.2755905511811024},{"duration":0.38372093023255616,"midi":102,"time":55.24418604651163,"velocity":0.3700787401574803},{"duration":0.04651162790698038,"midi":75,"time":55.25581395348837,"velocity":0.14173228346456693},{"duration":0.2093023255813975,"midi":100,"time":55.25581395348837,"velocity":0.33070866141732286},{"duration":0.03488372093023173,"midi":66,"time":55.26744186046512,"velocity":0.14173228346456693},{"duration":0.11627906976743674,"midi":88,"time":55.26744186046512,"velocity":0.47244094488188976},{"duration":0.17441860465116577,"midi":91,"time":55.27906976744186,"velocity":0.3464566929133858},{"duration":0.04651162790698038,"midi":72,"time":55.2906976744186,"velocity":0.28346456692913385},{"duration":0.023255813953483084,"midi":45,"time":55.30232558139535,"velocity":0.5984251968503937},{"duration":0.06976744186046346,"midi":65,"time":55.30232558139535,"velocity":0.2755905511811024},{"duration":0.081395348837205,"midi":79,"time":55.30232558139535,"velocity":0.4251968503937008},{"duration":0.06976744186046346,"midi":92,"time":55.30232558139535,"velocity":0.2047244094488189},{"duration":0.09302325581395365,"midi":84,"time":55.31395348837209,"velocity":0.44881889763779526},{"duration":0.1046511627906952,"midi":98,"time":55.31395348837209,"velocity":0.28346456692913385},{"duration":0.011627906976748648,"midi":43,"time":55.325581395348834,"velocity":0.5669291338582677},{"duration":0.02325581395349019,"midi":42,"time":55.33720930232558,"velocity":0.5433070866141733},{"duration":0.02325581395349019,"midi":73,"time":55.33720930232558,"velocity":0.30708661417322836},{"duration":0.05813953488372192,"midi":75,"time":55.33720930232558,"velocity":0.14173228346456693},{"duration":0.1046511627907023,"midi":61,"time":55.348837209302324,"velocity":0.3543307086614173},{"duration":0.1046511627907023,"midi":89,"time":55.348837209302324,"velocity":0.5275590551181102},{"duration":0.22093023255813904,"midi":95,"time":55.348837209302324,"velocity":0.25196850393700787},{"duration":0.32558139534884134,"midi":99,"time":55.348837209302324,"velocity":0.2204724409448819},{"duration":0.046511627906973274,"midi":72,"time":55.36046511627907,"velocity":0.3464566929133858},{"duration":0.05813953488372192,"midi":66,"time":55.372093023255815,"velocity":0.3543307086614173},{"duration":0.03488372093023173,"midi":87,"time":55.372093023255815,"velocity":0.31496062992125984},{"duration":0.04651162790698038,"midi":80,"time":55.383720930232556,"velocity":0.29133858267716534},{"duration":0.03488372093023173,"midi":90,"time":55.383720930232556,"velocity":0.36220472440944884},{"duration":0.023255813953483084,"midi":58,"time":55.395348837209305,"velocity":0.29133858267716534},{"duration":0.03488372093023173,"midi":86,"time":55.395348837209305,"velocity":0.28346456692913385},{"duration":0.03488372093023173,"midi":36,"time":55.406976744186046,"velocity":0.28346456692913385},{"duration":0.03488372093023173,"midi":76,"time":55.406976744186046,"velocity":0.31496062992125984},{"duration":0.05813953488372192,"midi":81,"time":55.406976744186046,"velocity":0.5039370078740157},{"duration":0.02325581395349019,"midi":83,"time":55.406976744186046,"velocity":0.3858267716535433},{"duration":0.19767441860464885,"midi":94,"time":55.406976744186046,"velocity":0.33858267716535434},{"duration":0.08139534883721211,"midi":84,"time":55.41860465116279,"velocity":0.3858267716535433},{"duration":0.19767441860464885,"midi":65,"time":55.43023255813954,"velocity":0.36220472440944884},{"duration":0.02325581395349019,"midi":57,"time":55.44186046511628,"velocity":0.25984251968503935},{"duration":0.09302325581395365,"midi":77,"time":55.44186046511628,"velocity":0.44881889763779526},{"duration":0.3139534883720927,"midi":80,"time":55.45348837209303,"velocity":0.4015748031496063},{"duration":0.011627906976741542,"midi":88,"time":55.45348837209303,"velocity":0.5196850393700787},{"duration":0.058139534883714816,"midi":98,"time":55.45348837209303,"velocity":0.11023622047244094},{"duration":0.03488372093023173,"midi":58,"time":55.46511627906977,"velocity":0.2283464566929134},{"duration":0.3488372093023244,"midi":70,"time":55.46511627906977,"velocity":0.4251968503937008},{"duration":0.15116279069767558,"midi":82,"time":55.46511627906977,"velocity":0.5433070866141733},{"duration":0.1046511627906952,"midi":86,"time":55.46511627906977,"velocity":0.3937007874015748},{"duration":0.1860465116279073,"midi":91,"time":55.46511627906977,"velocity":0.2677165354330709},{"duration":0.06976744186046346,"midi":73,"time":55.47674418604651,"velocity":0.1968503937007874},{"duration":0.08139534883721211,"midi":85,"time":55.47674418604651,"velocity":0.3228346456692913},{"duration":0.04651162790698038,"midi":88,"time":55.47674418604651,"velocity":0.3779527559055118},{"duration":0.03488372093023173,"midi":75,"time":55.48837209302326,"velocity":0.11811023622047244},{"duration":0.06976744186046346,"midi":90,"time":55.48837209302326,"velocity":0.3543307086614173},{"duration":0.03488372093023173,"midi":83,"time":55.5,"velocity":0.29133858267716534},{"duration":0.02325581395349019,"midi":87,"time":55.5,"velocity":0.3858267716535433},{"duration":0.06976744186046346,"midi":93,"time":55.5,"velocity":0.2047244094488189},{"duration":0.023255813953483084,"midi":78,"time":55.52325581395349,"velocity":0.2440944881889764},{"duration":0.2906976744186025,"midi":89,"time":55.52325581395349,"velocity":0.48031496062992124},{"duration":0.13953488372093403,"midi":61,"time":55.53488372093023,"velocity":0.33858267716535434},{"duration":0.03488372093023884,"midi":45,"time":55.54651162790697,"velocity":0.33070866141732286},{"duration":0.1279069767441925,"midi":77,"time":55.54651162790697,"velocity":0.4330708661417323},{"duration":0.05813953488372192,"midi":84,"time":55.54651162790697,"velocity":0.36220472440944884},{"duration":0.09302325581395365,"midi":53,"time":55.55813953488372,"velocity":0.2677165354330709},{"duration":0.03488372093023173,"midi":58,"time":55.55813953488372,"velocity":0.2677165354330709},{"duration":0.046511627906973274,"midi":68,"time":55.55813953488372,"velocity":0.2047244094488189},{"duration":0.09302325581395365,"midi":85,"time":55.56976744186046,"velocity":0.3228346456692913},{"duration":0.09302325581395365,"midi":46,"time":55.58139534883721,"velocity":0.2755905511811024},{"duration":0.023255813953483084,"midi":72,"time":55.58139534883721,"velocity":0.2283464566929134},{"duration":0.046511627906973274,"midi":90,"time":55.593023255813954,"velocity":0.1732283464566929},{"duration":0.08139534883721211,"midi":93,"time":55.593023255813954,"velocity":0.14960629921259844},{"duration":0.02325581395349019,"midi":35,"time":55.604651162790695,"velocity":0.33070866141732286},{"duration":0.24418604651162923,"midi":86,"time":55.604651162790695,"velocity":0.28346456692913385},{"duration":0.09302325581395365,"midi":95,"time":55.604651162790695,"velocity":0.2677165354330709},{"duration":0.06976744186046346,"midi":34,"time":55.627906976744185,"velocity":0.3228346456692913},{"duration":0.05813953488372192,"midi":82,"time":55.627906976744185,"velocity":0.48031496062992124},{"duration":0.17441860465116577,"midi":65,"time":55.63953488372093,"velocity":0.4645669291338583},{"duration":0.04651162790698038,"midi":72,"time":55.63953488372093,"velocity":0.2204724409448819},{"duration":0.11627906976744384,"midi":100,"time":55.63953488372093,"velocity":0.2992125984251969},{"duration":0.06976744186046346,"midi":58,"time":55.651162790697676,"velocity":0.3858267716535433},{"duration":0.03488372093023173,"midi":78,"time":55.66279069767442,"velocity":0.25984251968503935},{"duration":0.04651162790698038,"midi":88,"time":55.66279069767442,"velocity":0.15748031496062992},{"duration":0.02325581395349019,"midi":90,"time":55.66279069767442,"velocity":0.31496062992125984},{"duration":0.03488372093023173,"midi":97,"time":55.66279069767442,"velocity":0.09448818897637795},{"duration":0.046511627906973274,"midi":85,"time":55.674418604651166,"velocity":0.2283464566929134},{"duration":0.09302325581395365,"midi":53,"time":55.68604651162791,"velocity":0.30708661417322836},{"duration":0.11627906976744384,"midi":84,"time":55.68604651162791,"velocity":0.1889763779527559},{"duration":0.1046511627906952,"midi":93,"time":55.68604651162791,"velocity":0.13385826771653545},{"duration":0.03488372093023173,"midi":99,"time":55.68604651162791,"velocity":0.07874015748031496},{"duration":0.03488372093023173,"midi":83,"time":55.69767441860465,"velocity":0.23622047244094488},{"duration":0.046511627906973274,"midi":46,"time":55.7093023255814,"velocity":0.2755905511811024},{"duration":0.3488372093023244,"midi":73,"time":55.7093023255814,"velocity":0.33858267716535434},{"duration":0.2093023255813975,"midi":96,"time":55.72093023255814,"velocity":0.1968503937007874},{"duration":0.05813953488372192,"midi":61,"time":55.73255813953488,"velocity":0.2677165354330709},{"duration":0.05813953488372192,"midi":34,"time":55.75581395348837,"velocity":0.3464566929133858},{"duration":0.03488372093023173,"midi":80,"time":55.77906976744186,"velocity":0.14173228346456693},{"duration":0.2906976744186025,"midi":99,"time":55.77906976744186,"velocity":0.23622047244094488},{"duration":0.15116279069767558,"midi":88,"time":55.7906976744186,"velocity":0.18110236220472442},{"duration":0.17441860465116577,"midi":92,"time":55.7906976744186,"velocity":0.2047244094488189},{"duration":0.09302325581395365,"midi":95,"time":55.7906976744186,"velocity":0.11811023622047244},{"duration":0.11627906976744384,"midi":100,"time":55.7906976744186,"velocity":0.1968503937007874},{"duration":1.279069767441861,"midi":102,"time":55.7906976744186,"velocity":0.41732283464566927},{"duration":0.011627906976741542,"midi":56,"time":55.80232558139535,"velocity":0.5118110236220472},{"duration":0.046511627906973274,"midi":79,"time":55.80232558139535,"velocity":0.2047244094488189},{"duration":0.03488372093023173,"midi":87,"time":55.80232558139535,"velocity":0.18110236220472442},{"duration":0.03488372093023173,"midi":45,"time":55.81395348837209,"velocity":0.5984251968503937},{"duration":0.011627906976741542,"midi":55,"time":55.81395348837209,"velocity":0.5196850393700787},{"duration":0.02325581395349019,"midi":63,"time":55.81395348837209,"velocity":0.3464566929133858},{"duration":0.02325581395349019,"midi":66,"time":55.81395348837209,"velocity":0.3543307086614173},{"duration":0.08139534883721211,"midi":81,"time":55.81395348837209,"velocity":0.1968503937007874},{"duration":0.12790697674418539,"midi":90,"time":55.81395348837209,"velocity":0.33070866141732286},{"duration":0.011627906976748648,"midi":51,"time":55.825581395348834,"velocity":0.5275590551181102},{"duration":0.02325581395349019,"midi":91,"time":55.825581395348834,"velocity":0.23622047244094488},{"duration":0.13953488372092693,"midi":65,"time":55.83720930232558,"velocity":0.3858267716535433},{"duration":0.046511627906973274,"midi":68,"time":55.83720930232558,"velocity":0.2755905511811024},{"duration":0.09302325581395365,"midi":75,"time":55.83720930232558,"velocity":0.3937007874015748},{"duration":0.05813953488372192,"midi":89,"time":55.83720930232558,"velocity":0.1968503937007874},{"duration":0.011627906976748648,"midi":44,"time":55.848837209302324,"velocity":0.6062992125984252},{"duration":0.22093023255813904,"midi":97,"time":55.848837209302324,"velocity":0.2677165354330709},{"duration":0.023255813953483084,"midi":42,"time":55.86046511627907,"velocity":0.5669291338582677},{"duration":0.023255813953483084,"midi":57,"time":55.86046511627907,"velocity":0.3937007874015748},{"duration":0.058139534883714816,"midi":84,"time":55.86046511627907,"velocity":0.1732283464566929},{"duration":0.023255813953483084,"midi":91,"time":55.86046511627907,"velocity":0.3228346456692913},{"duration":0.03488372093023173,"midi":68,"time":55.895348837209305,"velocity":0.23622047244094488},{"duration":0.046511627906973274,"midi":86,"time":55.895348837209305,"velocity":0.2440944881889764},{"duration":0.03488372093023173,"midi":91,"time":55.895348837209305,"velocity":0.09448818897637795},{"duration":0.081395348837205,"midi":93,"time":55.895348837209305,"velocity":0.13385826771653545},{"duration":0.03488372093023173,"midi":37,"time":55.906976744186046,"velocity":0.4330708661417323},{"duration":0.02325581395349019,"midi":53,"time":55.91860465116279,"velocity":0.30708661417322836},{"duration":0.02325581395349019,"midi":58,"time":55.91860465116279,"velocity":0.31496062992125984},{"duration":0.03488372093023884,"midi":70,"time":55.91860465116279,"velocity":0.41732283464566927},{"duration":0.12790697674418539,"midi":83,"time":55.93023255813954,"velocity":0.4094488188976378},{"duration":0.581395348837205,"midi":100,"time":55.93023255813954,"velocity":0.33858267716535434},{"duration":0.06976744186046346,"midi":48,"time":55.94186046511628,"velocity":0.30708661417322836},{"duration":0.03488372093023173,"midi":68,"time":55.94186046511628,"velocity":0.2440944881889764},{"duration":0.08139534883721211,"midi":71,"time":55.94186046511628,"velocity":0.47244094488188976},{"duration":0.15116279069767558,"midi":87,"time":55.94186046511628,"velocity":0.3779527559055118},{"duration":0.13953488372092693,"midi":78,"time":55.95348837209303,"velocity":0.31496062992125984},{"duration":0.02325581395349019,"midi":40,"time":55.96511627906977,"velocity":0.28346456692913385},{"duration":0.03488372093023173,"midi":55,"time":55.97674418604651,"velocity":0.3700787401574803},{"duration":0.04651162790698038,"midi":82,"time":55.97674418604651,"velocity":0.29133858267716534},{"duration":0.03488372093023173,"midi":64,"time":55.98837209302326,"velocity":0.25984251968503935},{"duration":0.046511627906973274,"midi":89,"time":55.98837209302326,"velocity":0.12598425196850394},{"duration":0.12790697674418539,"midi":75,"time":56,"velocity":0.31496062992125984},{"duration":0.1046511627907023,"midi":36,"time":56.01162790697674,"velocity":0.3700787401574803},{"duration":0.05813953488372192,"midi":66,"time":56.01162790697674,"velocity":0.2677165354330709},{"duration":0.04651162790698038,"midi":70,"time":56.01162790697674,"velocity":0.30708661417322836},{"duration":0.023255813953483084,"midi":56,"time":56.02325581395349,"velocity":0.3464566929133858},{"duration":0.023255813953483084,"midi":59,"time":56.02325581395349,"velocity":0.2992125984251969},{"duration":0.06976744186046346,"midi":81,"time":56.02325581395349,"velocity":0.13385826771653545},{"duration":0.03488372093023884,"midi":55,"time":56.04651162790697,"velocity":0.2440944881889764},{"duration":0.08139534883721211,"midi":60,"time":56.04651162790697,"velocity":0.2992125984251969},{"duration":0.03488372093023884,"midi":72,"time":56.04651162790697,"velocity":0.4881889763779528},{"duration":0.046511627906973274,"midi":79,"time":56.05813953488372,"velocity":0.2677165354330709},{"duration":0.03488372093023173,"midi":83,"time":56.06976744186046,"velocity":0.2283464566929134},{"duration":0.03488372093023173,"midi":88,"time":56.06976744186046,"velocity":0.2283464566929134},{"duration":0.05813953488372192,"midi":98,"time":56.06976744186046,"velocity":0.10236220472440945},{"duration":0.011627906976741542,"midi":73,"time":56.08139534883721,"velocity":0.5196850393700787},{"duration":0.03488372093023173,"midi":94,"time":56.08139534883721,"velocity":0.14173228346456693},{"duration":0.046511627906973274,"midi":72,"time":56.093023255813954,"velocity":0.5275590551181102},{"duration":0.05813953488372192,"midi":85,"time":56.093023255813954,"velocity":0.4330708661417323},{"duration":0.19767441860464885,"midi":99,"time":56.093023255813954,"velocity":0.3464566929133858},{"duration":0.09302325581395365,"midi":103,"time":56.093023255813954,"velocity":0.2283464566929134},{"duration":0.17441860465116577,"midi":65,"time":56.104651162790695,"velocity":0.33858267716535434},{"duration":0.24418604651162923,"midi":80,"time":56.104651162790695,"velocity":0.2047244094488189},{"duration":0.03488372093023173,"midi":82,"time":56.104651162790695,"velocity":0.09448818897637795},{"duration":0.13953488372093403,"midi":89,"time":56.104651162790695,"velocity":0.2755905511811024},{"duration":0.11627906976743674,"midi":83,"time":56.116279069767444,"velocity":0.2755905511811024},{"duration":0.03488372093023173,"midi":59,"time":56.127906976744185,"velocity":0.4251968503937008},{"duration":0.04651162790698038,"midi":68,"time":56.13953488372093,"velocity":0.25984251968503935},{"duration":0.03488372093023884,"midi":73,"time":56.13953488372093,"velocity":0.47244094488188976},{"duration":0.046511627906973274,"midi":84,"time":56.151162790697676,"velocity":0.2204724409448819},{"duration":0.09302325581395365,"midi":86,"time":56.151162790697676,"velocity":0.3228346456692913},{"duration":0.046511627906973274,"midi":91,"time":56.151162790697676,"velocity":0.08661417322834646},{"duration":0.081395348837205,"midi":96,"time":56.151162790697676,"velocity":0.2283464566929134},{"duration":0.03488372093023173,"midi":58,"time":56.16279069767442,"velocity":0.4330708661417323},{"duration":0.05813953488372192,"midi":82,"time":56.16279069767442,"velocity":0.2677165354330709},{"duration":0.03488372093023173,"midi":70,"time":56.174418604651166,"velocity":0.4330708661417323},{"duration":0.081395348837205,"midi":97,"time":56.174418604651166,"velocity":0.2125984251968504},{"duration":0.02325581395349019,"midi":71,"time":56.19767441860465,"velocity":0.36220472440944884},{"duration":0.06976744186047057,"midi":85,"time":56.19767441860465,"velocity":0.1732283464566929},{"duration":0.04651162790698038,"midi":88,"time":56.19767441860465,"velocity":0.2440944881889764},{"duration":0.03488372093023173,"midi":74,"time":56.2093023255814,"velocity":0.16535433070866143},{"duration":0.03488372093023173,"midi":91,"time":56.2093023255814,"velocity":0.2204724409448819},{"duration":0.02325581395349019,"midi":45,"time":56.22093023255814,"velocity":0.3543307086614173},{"duration":0.04651162790698038,"midi":76,"time":56.22093023255814,"velocity":0.2283464566929134},{"duration":0.04651162790698038,"midi":79,"time":56.22093023255814,"velocity":0.18110236220472442},{"duration":0.1046511627906952,"midi":84,"time":56.22093023255814,"velocity":0.18110236220472442},{"duration":0.05813953488372192,"midi":82,"time":56.23255813953488,"velocity":0.2677165354330709},{"duration":0.046511627906973274,"midi":46,"time":56.24418604651163,"velocity":0.28346456692913385},{"duration":0.03488372093023173,"midi":70,"time":56.24418604651163,"velocity":0.3779527559055118},{"duration":0.02325581395349019,"midi":54,"time":56.25581395348837,"velocity":0.28346456692913385},{"duration":0.02325581395349019,"midi":58,"time":56.25581395348837,"velocity":0.3858267716535433},{"duration":0.05813953488372192,"midi":72,"time":56.25581395348837,"velocity":0.36220472440944884},{"duration":0.023255813953483084,"midi":35,"time":56.26744186046512,"velocity":0.31496062992125984},{"duration":0.046511627906973274,"midi":69,"time":56.26744186046512,"velocity":0.2283464566929134},{"duration":0.02325581395349019,"midi":61,"time":56.27906976744186,"velocity":0.29133858267716534},{"duration":0.03488372093023173,"midi":88,"time":56.27906976744186,"velocity":0.10236220472440945},{"duration":0.05813953488372192,"midi":97,"time":56.27906976744186,"velocity":0.25196850393700787},{"duration":0.04651162790698038,"midi":34,"time":56.2906976744186,"velocity":0.2992125984251969},{"duration":0.06976744186047057,"midi":85,"time":56.2906976744186,"velocity":0.14173228346456693},{"duration":0.023255813953483084,"midi":62,"time":56.30232558139535,"velocity":0.3700787401574803},{"duration":0.046511627906973274,"midi":73,"time":56.30232558139535,"velocity":0.4094488188976378},{"duration":0.13953488372093403,"midi":95,"time":56.31395348837209,"velocity":0.28346456692913385},{"duration":0.05813953488372192,"midi":99,"time":56.31395348837209,"velocity":0.2440944881889764},{"duration":0.04651162790698038,"midi":70,"time":56.325581395348834,"velocity":0.2047244094488189},{"duration":0.04651162790698038,"midi":79,"time":56.325581395348834,"velocity":0.14960629921259844},{"duration":0.09302325581395365,"midi":90,"time":56.325581395348834,"velocity":0.2992125984251969},{"duration":0.2558139534883779,"midi":92,"time":56.325581395348834,"velocity":0.4881889763779528},{"duration":0.08139534883721211,"midi":93,"time":56.325581395348834,"velocity":0.25196850393700787},{"duration":0.03488372093023884,"midi":94,"time":56.325581395348834,"velocity":0.2125984251968504},{"duration":0.11627906976744384,"midi":96,"time":56.325581395348834,"velocity":0.28346456692913385},{"duration":0.1046511627906952,"midi":74,"time":56.33720930232558,"velocity":0.5669291338582677},{"duration":0.03488372093023173,"midi":76,"time":56.33720930232558,"velocity":0.1732283464566929},{"duration":0.05813953488372192,"midi":81,"time":56.33720930232558,"velocity":0.30708661417322836},{"duration":0.06976744186046346,"midi":98,"time":56.33720930232558,"velocity":0.2283464566929134},{"duration":0.03488372093023173,"midi":103,"time":56.33720930232558,"velocity":0.13385826771653545},{"duration":0.03488372093023173,"midi":62,"time":56.348837209302324,"velocity":0.3228346456692913},{"duration":0.03488372093023173,"midi":72,"time":56.348837209302324,"velocity":0.3858267716535433},{"duration":0.011627906976741542,"midi":46,"time":56.36046511627907,"velocity":0.5748031496062992},{"duration":0.023255813953483084,"midi":60,"time":56.36046511627907,"velocity":0.2677165354330709},{"duration":0.011627906976741542,"midi":45,"time":56.372093023255815,"velocity":0.6220472440944882},{"duration":0.02325581395349019,"midi":55,"time":56.372093023255815,"velocity":0.2992125984251969},{"duration":0.03488372093023173,"midi":42,"time":56.383720930232556,"velocity":0.5826771653543307},{"duration":0.11627906976744384,"midi":61,"time":56.383720930232556,"velocity":0.2677165354330709},{"duration":0.09302325581395365,"midi":70,"time":56.383720930232556,"velocity":0.25984251968503935},{"duration":0.1046511627907023,"midi":80,"time":56.383720930232556,"velocity":0.28346456692913385},{"duration":0.06976744186047057,"midi":85,"time":56.383720930232556,"velocity":0.13385826771653545},{"duration":0.11627906976744384,"midi":99,"time":56.383720930232556,"velocity":0.25196850393700787},{"duration":0.046511627906973274,"midi":103,"time":56.395348837209305,"velocity":0.31496062992125984},{"duration":0.22093023255813904,"midi":89,"time":56.406976744186046,"velocity":0.3700787401574803},{"duration":1,"midi":97,"time":56.406976744186046,"velocity":0.3543307086614173},{"duration":0.03488372093023884,"midi":58,"time":56.41860465116279,"velocity":0.2204724409448819},{"duration":0.04651162790698038,"midi":93,"time":56.41860465116279,"velocity":0.14173228346456693},{"duration":0.02325581395349019,"midi":46,"time":56.43023255813954,"velocity":0.2755905511811024},{"duration":0.046511627906973274,"midi":84,"time":56.43023255813954,"velocity":0.09448818897637795},{"duration":0.03488372093023173,"midi":66,"time":56.44186046511628,"velocity":0.25196850393700787},{"duration":0.24418604651162923,"midi":73,"time":56.44186046511628,"velocity":0.5511811023622047},{"duration":0.03488372093023173,"midi":94,"time":56.44186046511628,"velocity":0.1968503937007874},{"duration":0.058139534883714816,"midi":96,"time":56.45348837209303,"velocity":0.1968503937007874},{"duration":0.02325581395349019,"midi":37,"time":56.46511627906977,"velocity":0.3464566929133858},{"duration":0.02325581395349019,"midi":91,"time":56.46511627906977,"velocity":0.4645669291338583},{"duration":0.15116279069767558,"midi":95,"time":56.46511627906977,"velocity":0.4015748031496063},{"duration":0.03488372093023173,"midi":66,"time":56.48837209302326,"velocity":0.2204724409448819},{"duration":0.12790697674418539,"midi":70,"time":56.48837209302326,"velocity":0.28346456692913385},{"duration":0.15116279069766847,"midi":103,"time":56.48837209302326,"velocity":0.2440944881889764},{"duration":0.02325581395349019,"midi":58,"time":56.5,"velocity":0.25196850393700787},{"duration":0.03488372093023173,"midi":74,"time":56.5,"velocity":0.41732283464566927},{"duration":0.046511627906973274,"midi":98,"time":56.5,"velocity":0.12598425196850394},{"duration":0.09302325581395365,"midi":61,"time":56.51162790697674,"velocity":0.4015748031496063},{"duration":0.04651162790698038,"midi":77,"time":56.51162790697674,"velocity":0.2283464566929134},{"duration":0.3139534883720927,"midi":99,"time":56.51162790697674,"velocity":0.33070866141732286},{"duration":0.03488372093023173,"midi":38,"time":56.52325581395349,"velocity":0.11811023622047244},{"duration":0.06976744186046346,"midi":54,"time":56.52325581395349,"velocity":0.23622047244094488},{"duration":0.06976744186046346,"midi":81,"time":56.52325581395349,"velocity":0.1968503937007874},{"duration":0.02325581395349019,"midi":66,"time":56.53488372093023,"velocity":0.23622047244094488},{"duration":0.03488372093023173,"midi":86,"time":56.53488372093023,"velocity":0.10236220472440945},{"duration":0.03488372093023173,"midi":100,"time":56.53488372093023,"velocity":0.2125984251968504},{"duration":0.1046511627907023,"midi":93,"time":56.54651162790697,"velocity":0.3228346456692913},{"duration":0.046511627906973274,"midi":65,"time":56.55813953488372,"velocity":0.13385826771653545},{"duration":0.03488372093023173,"midi":80,"time":56.55813953488372,"velocity":0.18110236220472442},{"duration":0.046511627906973274,"midi":96,"time":56.55813953488372,"velocity":0.12598425196850394},{"duration":0.06976744186046346,"midi":84,"time":56.58139534883721,"velocity":0.2677165354330709},{"duration":0.046511627906973274,"midi":91,"time":56.58139534883721,"velocity":0.4881889763779528},{"duration":0.03488372093023173,"midi":98,"time":56.58139534883721,"velocity":0.13385826771653545},{"duration":0.03488372093023173,"midi":79,"time":56.593023255813954,"velocity":0.2283464566929134},{"duration":0.04651162790698038,"midi":94,"time":56.604651162790695,"velocity":0.25984251968503935},{"duration":0.03488372093023173,"midi":100,"time":56.604651162790695,"velocity":0.25196850393700787},{"duration":0.12790697674418539,"midi":77,"time":56.616279069767444,"velocity":0.2755905511811024},{"duration":0.03488372093023173,"midi":88,"time":56.616279069767444,"velocity":0.3543307086614173},{"duration":0.2906976744186025,"midi":92,"time":56.616279069767444,"velocity":0.4330708661417323},{"duration":0.02325581395349019,"midi":39,"time":56.627906976744185,"velocity":0.33070866141732286},{"duration":0.02325581395349019,"midi":58,"time":56.627906976744185,"velocity":0.2440944881889764},{"duration":0.08139534883721211,"midi":65,"time":56.627906976744185,"velocity":0.1968503937007874},{"duration":0.30232558139535115,"midi":80,"time":56.627906976744185,"velocity":0.3228346456692913},{"duration":0.2093023255813975,"midi":70,"time":56.63953488372093,"velocity":0.2440944881889764},{"duration":0.13953488372093403,"midi":89,"time":56.63953488372093,"velocity":0.4645669291338583},{"duration":0.1860465116279073,"midi":95,"time":56.651162790697676,"velocity":0.28346456692913385},{"duration":0.02325581395349019,"midi":55,"time":56.66279069767442,"velocity":0.2440944881889764},{"duration":0.15116279069767558,"midi":61,"time":56.66279069767442,"velocity":0.41732283464566927},{"duration":0.02325581395349019,"midi":91,"time":56.66279069767442,"velocity":0.2677165354330709},{"duration":0.3720930232558146,"midi":73,"time":56.69767441860465,"velocity":0.5669291338582677},{"duration":0.06976744186046346,"midi":66,"time":56.7093023255814,"velocity":0.25196850393700787},{"duration":0.02325581395349019,"midi":54,"time":56.72093023255814,"velocity":0.2283464566929134},{"duration":0.03488372093023173,"midi":37,"time":56.74418604651163,"velocity":0.2992125984251969},{"duration":0.03488372093023173,"midi":76,"time":56.74418604651163,"velocity":0.14173228346456693},{"duration":0.03488372093023173,"midi":94,"time":56.74418604651163,"velocity":0.23622047244094488},{"duration":0.02325581395349019,"midi":38,"time":56.77906976744186,"velocity":0.33858267716535434},{"duration":0.03488372093023173,"midi":88,"time":56.77906976744186,"velocity":0.4094488188976378},{"duration":0.046511627906973274,"midi":91,"time":56.77906976744186,"velocity":0.2440944881889764},{"duration":0.046511627906973274,"midi":103,"time":56.77906976744186,"velocity":0.28346456692913385},{"duration":0.02325581395349019,"midi":55,"time":56.7906976744186,"velocity":0.23622047244094488},{"duration":0.08139534883721211,"midi":66,"time":56.7906976744186,"velocity":0.3937007874015748},{"duration":0.1046511627907023,"midi":86,"time":56.7906976744186,"velocity":0.3464566929133858},{"duration":0.05813953488372192,"midi":77,"time":56.80232558139535,"velocity":0.2755905511811024},{"duration":0.05813953488372192,"midi":62,"time":56.81395348837209,"velocity":0.48031496062992124},{"duration":0.02325581395349019,"midi":39,"time":56.83720930232558,"velocity":0.25984251968503935},{"duration":0.3139534883720927,"midi":103,"time":56.83720930232558,"velocity":0.41732283464566927},{"duration":0.05813953488372192,"midi":82,"time":56.848837209302324,"velocity":0.2047244094488189},{"duration":0.06976744186046346,"midi":96,"time":56.848837209302324,"velocity":0.12598425196850394},{"duration":1.6162790697674438,"midi":99,"time":56.848837209302324,"velocity":0.47244094488188976},{"duration":0.13953488372092693,"midi":75,"time":56.86046511627907,"velocity":0.3779527559055118},{"duration":0.06976744186046346,"midi":88,"time":56.86046511627907,"velocity":0.2047244094488189},{"duration":0.15116279069766847,"midi":91,"time":56.86046511627907,"velocity":0.25984251968503935},{"duration":0.03488372093023173,"midi":93,"time":56.86046511627907,"velocity":0.14173228346456693},{"duration":0.081395348837205,"midi":94,"time":56.86046511627907,"velocity":0.2047244094488189},{"duration":0.16279069767441712,"midi":63,"time":56.872093023255815,"velocity":0.4566929133858268},{"duration":0.12790697674418539,"midi":70,"time":56.872093023255815,"velocity":0.2992125984251969},{"duration":0.03488372093023173,"midi":44,"time":56.883720930232556,"velocity":0.5826771653543307},{"duration":0.02325581395349019,"midi":66,"time":56.883720930232556,"velocity":0.2440944881889764},{"duration":0.23255813953488058,"midi":77,"time":56.895348837209305,"velocity":0.31496062992125984},{"duration":0.046511627906973274,"midi":95,"time":56.895348837209305,"velocity":0.11811023622047244},{"duration":0.011627906976748648,"midi":43,"time":56.91860465116279,"velocity":0.5590551181102362},{"duration":0.02325581395349019,"midi":51,"time":56.91860465116279,"velocity":0.25984251968503935},{"duration":0.1046511627907023,"midi":66,"time":56.91860465116279,"velocity":0.3779527559055118},{"duration":0.011627906976741542,"midi":42,"time":56.93023255813954,"velocity":0.5118110236220472},{"duration":0.023255813953483084,"midi":53,"time":56.95348837209303,"velocity":0.25196850393700787},{"duration":0.02325581395349019,"midi":37,"time":56.97674418604651,"velocity":0.3543307086614173},{"duration":0.13953488372092693,"midi":55,"time":56.98837209302326,"velocity":0.30708661417322836},{"duration":0.081395348837205,"midi":81,"time":56.98837209302326,"velocity":0.28346456692913385},{"duration":0.046511627906973274,"midi":90,"time":56.98837209302326,"velocity":0.18110236220472442},{"duration":0.06976744186046346,"midi":92,"time":56.98837209302326,"velocity":0.14173228346456693},{"duration":0.08139534883721211,"midi":48,"time":57,"velocity":0.3464566929133858},{"duration":0.05813953488372192,"midi":69,"time":57,"velocity":0.5275590551181102},{"duration":0.05813953488372192,"midi":95,"time":57,"velocity":0.13385826771653545},{"duration":0.05813953488372192,"midi":88,"time":57.01162790697674,"velocity":0.2677165354330709},{"duration":0.023255813953483084,"midi":41,"time":57.02325581395349,"velocity":0.23622047244094488},{"duration":0.02325581395349019,"midi":64,"time":57.03488372093023,"velocity":0.2992125984251969},{"duration":0.03488372093023884,"midi":66,"time":57.04651162790697,"velocity":0.3700787401574803},{"duration":0.06976744186046346,"midi":36,"time":57.05813953488372,"velocity":0.33858267716535434},{"duration":0.16279069767441712,"midi":68,"time":57.05813953488372,"velocity":0.5826771653543307},{"duration":0.06976744186046346,"midi":86,"time":57.05813953488372,"velocity":0.16535433070866143},{"duration":0.5581395348837219,"midi":63,"time":57.06976744186046,"velocity":0.3543307086614173},{"duration":0.12790697674418539,"midi":87,"time":57.06976744186046,"velocity":0.4645669291338583},{"duration":0.046511627906973274,"midi":73,"time":57.08139534883721,"velocity":0.28346456692913385},{"duration":0.06976744186046346,"midi":98,"time":57.08139534883721,"velocity":0.2440944881889764},{"duration":0.16279069767441712,"midi":101,"time":57.08139534883721,"velocity":0.2677165354330709},{"duration":0.04651162790698038,"midi":85,"time":57.104651162790695,"velocity":0.31496062992125984},{"duration":0.05813953488372192,"midi":91,"time":57.104651162790695,"velocity":0.2283464566929134},{"duration":0.046511627906973274,"midi":83,"time":57.116279069767444,"velocity":0.2283464566929134},{"duration":0.081395348837205,"midi":90,"time":57.116279069767444,"velocity":0.25984251968503935},{"duration":0.02325581395349019,"midi":53,"time":57.127906976744185,"velocity":0.2283464566929134},{"duration":0.11627906976744384,"midi":78,"time":57.127906976744185,"velocity":0.36220472440944884},{"duration":0.03488372093023173,"midi":81,"time":57.127906976744185,"velocity":0.2677165354330709},{"duration":0.02325581395349019,"midi":88,"time":57.127906976744185,"velocity":0.4094488188976378},{"duration":0.02325581395349019,"midi":45,"time":57.13953488372093,"velocity":0.33858267716535434},{"duration":0.02325581395349019,"midi":59,"time":57.13953488372093,"velocity":0.3464566929133858},{"duration":0.02325581395349019,"midi":76,"time":57.13953488372093,"velocity":0.36220472440944884},{"duration":0.1279069767441925,"midi":89,"time":57.13953488372093,"velocity":0.4330708661417323},{"duration":0.1279069767441925,"midi":94,"time":57.13953488372093,"velocity":0.2125984251968504},{"duration":0.09302325581395365,"midi":82,"time":57.151162790697676,"velocity":0.4330708661417323},{"duration":0.12790697674418539,"midi":100,"time":57.151162790697676,"velocity":0.25984251968503935},{"duration":0.11627906976744384,"midi":46,"time":57.16279069767442,"velocity":0.2755905511811024},{"duration":0.04651162790698038,"midi":53,"time":57.16279069767442,"velocity":0.2755905511811024},{"duration":0.03488372093023173,"midi":71,"time":57.16279069767442,"velocity":0.30708661417322836},{"duration":0.081395348837205,"midi":84,"time":57.174418604651166,"velocity":0.16535433070866143},{"duration":0.12790697674418539,"midi":86,"time":57.174418604651166,"velocity":0.4251968503937008},{"duration":0.06976744186046346,"midi":103,"time":57.174418604651166,"velocity":0.14960629921259844},{"duration":0.06976744186046346,"midi":58,"time":57.18604651162791,"velocity":0.36220472440944884},{"duration":0.08139534883721211,"midi":77,"time":57.18604651162791,"velocity":0.3464566929133858},{"duration":0.11627906976744384,"midi":34,"time":57.19767441860465,"velocity":0.33070866141732286},{"duration":0.03488372093023173,"midi":72,"time":57.19767441860465,"velocity":0.2125984251968504},{"duration":0.04651162790698038,"midi":91,"time":57.19767441860465,"velocity":0.1732283464566929},{"duration":0.05813953488372192,"midi":85,"time":57.2093023255814,"velocity":0.33858267716535434},{"duration":0.05813953488372192,"midi":53,"time":57.22093023255814,"velocity":0.25196850393700787},{"duration":0.02325581395349019,"midi":69,"time":57.23255813953488,"velocity":0.36220472440944884},{"duration":0.03488372093023884,"midi":83,"time":57.23255813953488,"velocity":0.4409448818897638},{"duration":0.04651162790698038,"midi":102,"time":57.23255813953488,"velocity":0.2440944881889764},{"duration":0.06976744186046346,"midi":72,"time":57.24418604651163,"velocity":0.28346456692913385},{"duration":0.03488372093023173,"midi":90,"time":57.24418604651163,"velocity":0.3543307086614173},{"duration":0.06976744186046346,"midi":68,"time":57.25581395348837,"velocity":0.36220472440944884},{"duration":0.02325581395349019,"midi":78,"time":57.25581395348837,"velocity":0.31496062992125984},{"duration":0.02325581395349019,"midi":87,"time":57.25581395348837,"velocity":0.47244094488188976},{"duration":0.22093023255813904,"midi":84,"time":57.26744186046512,"velocity":0.44881889763779526},{"duration":0.046511627906973274,"midi":79,"time":57.27906976744186,"velocity":0.3858267716535433},{"duration":0.08139534883721211,"midi":88,"time":57.27906976744186,"velocity":0.5590551181102362},{"duration":0.2093023255813975,"midi":91,"time":57.27906976744186,"velocity":0.3858267716535433},{"duration":0.17441860465116577,"midi":94,"time":57.27906976744186,"velocity":0.25196850393700787},{"duration":0.023255813953483084,"midi":73,"time":57.30232558139535,"velocity":0.23622047244094488},{"duration":0.06976744186046346,"midi":77,"time":57.30232558139535,"velocity":0.11811023622047244},{"duration":0.11627906976743674,"midi":82,"time":57.30232558139535,"velocity":0.2283464566929134},{"duration":0.05813953488372192,"midi":86,"time":57.31395348837209,"velocity":0.13385826771653545},{"duration":0.03488372093023884,"midi":69,"time":57.325581395348834,"velocity":0.15748031496062992},{"duration":0.17441860465116577,"midi":72,"time":57.325581395348834,"velocity":0.41732283464566927},{"duration":0.06976744186046346,"midi":101,"time":57.33720930232558,"velocity":0.2047244094488189},{"duration":0.03488372093023173,"midi":68,"time":57.36046511627907,"velocity":0.1889763779527559},{"duration":0.12790697674418539,"midi":79,"time":57.36046511627907,"velocity":0.3858267716535433},{"duration":0.023255813953483084,"midi":87,"time":57.36046511627907,"velocity":0.36220472440944884},{"duration":0.05813953488372192,"midi":86,"time":57.383720930232556,"velocity":0.2992125984251969},{"duration":0.1046511627907023,"midi":88,"time":57.383720930232556,"velocity":0.5354330708661418},{"duration":0.04651162790698038,"midi":93,"time":57.383720930232556,"velocity":0.09448818897637795},{"duration":0.03488372093023173,"midi":95,"time":57.383720930232556,"velocity":0.2204724409448819},{"duration":0.03488372093023173,"midi":102,"time":57.383720930232556,"velocity":0.13385826771653545},{"duration":0.02325581395349019,"midi":60,"time":57.406976744186046,"velocity":0.2283464566929134},{"duration":0.04651162790698038,"midi":66,"time":57.406976744186046,"velocity":0.1732283464566929},{"duration":0.12790697674418539,"midi":68,"time":57.406976744186046,"velocity":0.2125984251968504},{"duration":0.02325581395349019,"midi":81,"time":57.406976744186046,"velocity":0.2440944881889764},{"duration":0.011627906976748648,"midi":46,"time":57.41860465116279,"velocity":0.5275590551181102},{"duration":0.011627906976741542,"midi":45,"time":57.43023255813954,"velocity":0.5590551181102362},{"duration":0.03488372093023173,"midi":74,"time":57.43023255813954,"velocity":0.13385826771653545},{"duration":0.06976744186046346,"midi":82,"time":57.43023255813954,"velocity":0.2047244094488189},{"duration":0.11627906976743674,"midi":97,"time":57.43023255813954,"velocity":0.14960629921259844},{"duration":0.03488372093023173,"midi":42,"time":57.44186046511628,"velocity":0.5669291338582677},{"duration":0.03488372093023173,"midi":60,"time":57.44186046511628,"velocity":0.25984251968503935},{"duration":0.03488372093023173,"midi":77,"time":57.44186046511628,"velocity":0.08661417322834646},{"duration":0.5465116279069804,"midi":101,"time":57.44186046511628,"velocity":0.28346456692913385},{"duration":0.06976744186046346,"midi":51,"time":57.45348837209303,"velocity":0.2992125984251969},{"duration":0.05813953488372192,"midi":93,"time":57.46511627906977,"velocity":0.16535433070866143},{"duration":0.04651162790698038,"midi":81,"time":57.47674418604651,"velocity":0.18110236220472442},{"duration":0.023255813953483084,"midi":78,"time":57.48837209302326,"velocity":0.3858267716535433},{"duration":0.046511627906973274,"midi":83,"time":57.48837209302326,"velocity":0.4409448818897638},{"duration":0.06976744186046346,"midi":87,"time":57.48837209302326,"velocity":0.5039370078740157},{"duration":0.046511627906973274,"midi":90,"time":57.48837209302326,"velocity":0.4094488188976378},{"duration":0.02325581395349019,"midi":37,"time":57.5,"velocity":0.3779527559055118},{"duration":0.03488372093023173,"midi":71,"time":57.5,"velocity":0.23622047244094488},{"duration":0.02325581395349019,"midi":79,"time":57.51162790697674,"velocity":0.2755905511811024},{"duration":0.046511627906973274,"midi":88,"time":57.52325581395349,"velocity":0.3228346456692913},{"duration":0.05813953488372192,"midi":103,"time":57.52325581395349,"velocity":0.15748031496062992},{"duration":0.02325581395349019,"midi":34,"time":57.53488372093023,"velocity":0.3228346456692913},{"duration":0.12790697674418539,"midi":70,"time":57.53488372093023,"velocity":0.3700787401574803},{"duration":0.02325581395349019,"midi":78,"time":57.53488372093023,"velocity":0.25984251968503935},{"duration":0.03488372093023173,"midi":82,"time":57.53488372093023,"velocity":0.4881889763779528},{"duration":0.22093023255813904,"midi":84,"time":57.53488372093023,"velocity":0.30708661417322836},{"duration":0.1046511627906952,"midi":86,"time":57.53488372093023,"velocity":0.4015748031496063},{"duration":0.3372093023255829,"midi":89,"time":57.53488372093023,"velocity":0.48031496062992124},{"duration":0.05813953488372192,"midi":91,"time":57.53488372093023,"velocity":0.2204724409448819},{"duration":0.04651162790698038,"midi":44,"time":57.54651162790697,"velocity":0.09448818897637795},{"duration":0.08139534883721211,"midi":77,"time":57.54651162790697,"velocity":0.41732283464566927},{"duration":0.13953488372092693,"midi":68,"time":57.55813953488372,"velocity":0.28346456692913385},{"duration":0.11627906976744384,"midi":79,"time":57.55813953488372,"velocity":0.2677165354330709},{"duration":0.06976744186046346,"midi":72,"time":57.56976744186046,"velocity":0.28346456692913385},{"duration":0.046511627906973274,"midi":58,"time":57.58139534883721,"velocity":0.25196850393700787},{"duration":0.046511627906973274,"midi":82,"time":57.58139534883721,"velocity":0.4645669291338583},{"duration":0.081395348837205,"midi":88,"time":57.58139534883721,"velocity":0.36220472440944884},{"duration":0.04651162790698038,"midi":57,"time":57.627906976744185,"velocity":0.30708661417322836},{"duration":0.03488372093023173,"midi":76,"time":57.627906976744185,"velocity":0.3464566929133858},{"duration":0.1046511627906952,"midi":81,"time":57.627906976744185,"velocity":0.4881889763779528},{"duration":0.08139534883721211,"midi":87,"time":57.627906976744185,"velocity":0.3228346456692913},{"duration":0.1046511627906952,"midi":95,"time":57.627906976744185,"velocity":0.25196850393700787},{"duration":0.02325581395349019,"midi":85,"time":57.63953488372093,"velocity":0.3937007874015748},{"duration":0.03488372093023173,"midi":77,"time":57.651162790697676,"velocity":0.3543307086614173},{"duration":0.15116279069767558,"midi":51,"time":57.66279069767442,"velocity":0.2992125984251969},{"duration":0.03488372093023173,"midi":74,"time":57.66279069767442,"velocity":0.31496062992125984},{"duration":0.06976744186046346,"midi":86,"time":57.66279069767442,"velocity":0.4251968503937008},{"duration":0.11627906976744384,"midi":92,"time":57.66279069767442,"velocity":0.18110236220472442},{"duration":0.023255813953483084,"midi":56,"time":57.674418604651166,"velocity":0.30708661417322836},{"duration":0.1046511627906952,"midi":78,"time":57.674418604651166,"velocity":0.2755905511811024},{"duration":0.1046511627906952,"midi":80,"time":57.674418604651166,"velocity":0.5196850393700787},{"duration":0.046511627906973274,"midi":60,"time":57.68604651162791,"velocity":0.2047244094488189},{"duration":0.5465116279069733,"midi":72,"time":57.68604651162791,"velocity":0.4094488188976378},{"duration":0.19767441860464885,"midi":75,"time":57.68604651162791,"velocity":0.4566929133858268},{"duration":0.046511627906973274,"midi":83,"time":57.68604651162791,"velocity":0.25984251968503935},{"duration":0.15116279069767558,"midi":44,"time":57.69767441860465,"velocity":0.3543307086614173},{"duration":0.4767441860465098,"midi":68,"time":57.7093023255814,"velocity":0.3937007874015748},{"duration":0.1046511627906952,"midi":77,"time":57.7093023255814,"velocity":0.23622047244094488},{"duration":0.12790697674418539,"midi":94,"time":57.7093023255814,"velocity":0.2125984251968504},{"duration":0.02325581395349019,"midi":55,"time":57.72093023255814,"velocity":0.31496062992125984},{"duration":0.02325581395349019,"midi":33,"time":57.73255813953488,"velocity":0.25984251968503935},{"duration":0.02325581395349019,"midi":82,"time":57.73255813953488,"velocity":0.2677165354330709},{"duration":0.03488372093023884,"midi":103,"time":57.73255813953488,"velocity":0.2755905511811024},{"duration":0.046511627906973274,"midi":56,"time":57.74418604651163,"velocity":0.3543307086614173},{"duration":0.03488372093023173,"midi":70,"time":57.74418604651163,"velocity":0.16535433070866143},{"duration":0.046511627906973274,"midi":88,"time":57.74418604651163,"velocity":0.1732283464566929},{"duration":0.081395348837205,"midi":91,"time":57.74418604651163,"velocity":0.18110236220472442},{"duration":0.22093023255813904,"midi":98,"time":57.74418604651163,"velocity":0.2677165354330709},{"duration":0.08139534883721211,"midi":32,"time":57.75581395348837,"velocity":0.2755905511811024},{"duration":0.02325581395349019,"midi":83,"time":57.75581395348837,"velocity":0.29133858267716534},{"duration":0.1046511627907023,"midi":102,"time":57.75581395348837,"velocity":0.14960629921259844},{"duration":0.03488372093023173,"midi":86,"time":57.76744186046512,"velocity":0.2204724409448819},{"duration":0.046511627906973274,"midi":82,"time":57.77906976744186,"velocity":0.30708661417322836},{"duration":0.03488372093023173,"midi":80,"time":57.7906976744186,"velocity":0.47244094488188976},{"duration":0.02325581395349019,"midi":79,"time":57.81395348837209,"velocity":0.36220472440944884},{"duration":0.03488372093023884,"midi":83,"time":57.825581395348834,"velocity":0.16535433070866143},{"duration":0.16279069767442422,"midi":90,"time":57.825581395348834,"velocity":0.3937007874015748},{"duration":0.05813953488372192,"midi":96,"time":57.825581395348834,"velocity":0.11811023622047244},{"duration":0.09302325581395365,"midi":80,"time":57.83720930232558,"velocity":0.4409448818897638},{"duration":0.046511627906973274,"midi":86,"time":57.83720930232558,"velocity":0.30708661417322836},{"duration":0.046511627906973274,"midi":88,"time":57.83720930232558,"velocity":0.2440944881889764},{"duration":0.06976744186046346,"midi":63,"time":57.848837209302324,"velocity":0.29133858267716534},{"duration":0.023255813953483084,"midi":56,"time":57.86046511627907,"velocity":0.2677165354330709},{"duration":0.081395348837205,"midi":82,"time":57.86046511627907,"velocity":0.12598425196850394},{"duration":0.03488372093023173,"midi":83,"time":57.883720930232556,"velocity":0.09448818897637795},{"duration":0.03488372093023173,"midi":56,"time":57.895348837209305,"velocity":0.47244094488188976},{"duration":0.06976744186046346,"midi":75,"time":57.895348837209305,"velocity":0.36220472440944884},{"duration":0.06976744186046346,"midi":86,"time":57.895348837209305,"velocity":0.1889763779527559},{"duration":0.1046511627906952,"midi":89,"time":57.895348837209305,"velocity":0.2125984251968504},{"duration":0.04651162790698038,"midi":88,"time":57.91860465116279,"velocity":0.25196850393700787},{"duration":0.1046511627907023,"midi":93,"time":57.91860465116279,"velocity":0.12598425196850394},{"duration":0.06976744186047057,"midi":94,"time":57.91860465116279,"velocity":0.25196850393700787},{"duration":0.05813953488372192,"midi":95,"time":57.91860465116279,"velocity":0.1732283464566929},{"duration":0.03488372093023173,"midi":45,"time":57.93023255813954,"velocity":0.6062992125984252},{"duration":0.011627906976741542,"midi":53,"time":57.93023255813954,"velocity":0.5196850393700787},{"duration":0.05813953488372192,"midi":79,"time":57.93023255813954,"velocity":0.2047244094488189},{"duration":0.046511627906973274,"midi":81,"time":57.93023255813954,"velocity":0.1732283464566929},{"duration":0.1046511627906952,"midi":97,"time":57.93023255813954,"velocity":0.1732283464566929},{"duration":0.08139534883721211,"midi":85,"time":57.94186046511628,"velocity":0.14173228346456693},{"duration":0.046511627906973274,"midi":60,"time":57.95348837209303,"velocity":0.1889763779527559},{"duration":0.058139534883714816,"midi":83,"time":57.95348837209303,"velocity":0.1889763779527559},{"duration":0.011627906976741542,"midi":44,"time":57.96511627906977,"velocity":0.5984251968503937},{"duration":0.011627906976748648,"midi":43,"time":57.97674418604651,"velocity":0.5826771653543307},{"duration":0.011627906976741542,"midi":42,"time":57.98837209302326,"velocity":0.5433070866141733},{"duration":0.023255813953483084,"midi":52,"time":57.98837209302326,"velocity":0.28346456692913385},{"duration":0.19767441860464885,"midi":63,"time":57.98837209302326,"velocity":0.2992125984251969},{"duration":0.11627906976743674,"midi":75,"time":57.98837209302326,"velocity":0.33070866141732286},{"duration":0.058139534883714816,"midi":88,"time":57.98837209302326,"velocity":0.11023622047244094},{"duration":0.06976744186047057,"midi":60,"time":58.01162790697674,"velocity":0.2125984251968504},{"duration":0.03488372093023173,"midi":37,"time":58.02325581395349,"velocity":0.41732283464566927},{"duration":0.03488372093023173,"midi":56,"time":58.02325581395349,"velocity":0.2755905511811024},{"duration":0.09302325581395365,"midi":90,"time":58.02325581395349,"velocity":0.10236220472440945},{"duration":0.06976744186046346,"midi":82,"time":58.03488372093023,"velocity":0.14173228346456693},{"duration":0.02325581395349019,"midi":36,"time":58.05813953488372,"velocity":0.2992125984251969},{"duration":0.05813953488372192,"midi":57,"time":58.05813953488372,"velocity":0.31496062992125984},{"duration":0.2093023255813975,"midi":92,"time":58.104651162790695,"velocity":0.3464566929133858},{"duration":0.05813953488372192,"midi":60,"time":58.116279069767444,"velocity":0.1732283464566929},{"duration":0.09302325581395365,"midi":75,"time":58.116279069767444,"velocity":0.3464566929133858},{"duration":0.046511627906973274,"midi":89,"time":58.116279069767444,"velocity":0.07086614173228346},{"duration":0.05813953488372192,"midi":82,"time":58.13953488372093,"velocity":0.1732283464566929},{"duration":0.19767441860465595,"midi":91,"time":58.16279069767442,"velocity":0.4409448818897638},{"duration":0.03488372093023173,"midi":77,"time":58.174418604651166,"velocity":0.23622047244094488},{"duration":0.09302325581395365,"midi":89,"time":58.174418604651166,"velocity":0.2440944881889764},{"duration":0.15116279069766847,"midi":93,"time":58.174418604651166,"velocity":0.31496062992125984},{"duration":0.19767441860464885,"midi":94,"time":58.174418604651166,"velocity":0.3228346456692913},{"duration":0.5116279069767415,"midi":95,"time":58.174418604651166,"velocity":0.4409448818897638},{"duration":0.19767441860464885,"midi":96,"time":58.174418604651166,"velocity":0.3937007874015748},{"duration":0.1860465116279073,"midi":97,"time":58.174418604651166,"velocity":0.25984251968503935},{"duration":0.1860465116279073,"midi":102,"time":58.174418604651166,"velocity":0.33070866141732286},{"duration":0.06976744186046346,"midi":81,"time":58.18604651162791,"velocity":0.2677165354330709},{"duration":0.03488372093023173,"midi":51,"time":58.19767441860465,"velocity":0.28346456692913385},{"duration":0.03488372093023173,"midi":66,"time":58.19767441860465,"velocity":0.2677165354330709},{"duration":0.03488372093023173,"midi":70,"time":58.19767441860465,"velocity":0.29133858267716534},{"duration":0.03488372093023173,"midi":86,"time":58.19767441860465,"velocity":0.2125984251968504},{"duration":0.1860465116279073,"midi":98,"time":58.19767441860465,"velocity":0.2125984251968504},{"duration":0.023255813953483084,"midi":76,"time":58.2093023255814,"velocity":0.33070866141732286},{"duration":0.06976744186046346,"midi":90,"time":58.2093023255814,"velocity":0.28346456692913385},{"duration":0.02325581395349019,"midi":44,"time":58.22093023255814,"velocity":0.3700787401574803},{"duration":0.02325581395349019,"midi":57,"time":58.22093023255814,"velocity":0.4409448818897638},{"duration":0.09302325581395365,"midi":63,"time":58.23255813953488,"velocity":0.25196850393700787},{"duration":0.04651162790698038,"midi":75,"time":58.23255813953488,"velocity":0.41732283464566927},{"duration":0.16279069767442422,"midi":84,"time":58.23255813953488,"velocity":0.16535433070866143},{"duration":0.03488372093023173,"midi":56,"time":58.24418604651163,"velocity":0.41732283464566927},{"duration":0.05813953488372192,"midi":44,"time":58.25581395348837,"velocity":0.25984251968503935},{"duration":0.12790697674418539,"midi":86,"time":58.25581395348837,"velocity":0.2283464566929134},{"duration":0.023255813953483084,"midi":33,"time":58.26744186046512,"velocity":0.2992125984251969},{"duration":0.03488372093023173,"midi":51,"time":58.26744186046512,"velocity":0.13385826771653545},{"duration":0.046511627906973274,"midi":74,"time":58.26744186046512,"velocity":0.3464566929133858},{"duration":0.058139534883714816,"midi":100,"time":58.26744186046512,"velocity":0.18110236220472442},{"duration":0.02325581395349019,"midi":32,"time":58.2906976744186,"velocity":0.28346456692913385},{"duration":0.03488372093023173,"midi":60,"time":58.2906976744186,"velocity":0.2047244094488189},{"duration":0.09302325581395365,"midi":72,"time":58.2906976744186,"velocity":0.2755905511811024},{"duration":0.03488372093023173,"midi":52,"time":58.30232558139535,"velocity":0.2125984251968504},{"duration":0.05813953488372192,"midi":90,"time":58.30232558139535,"velocity":0.2677165354330709},{"duration":0.046511627906973274,"midi":101,"time":58.30232558139535,"velocity":0.2125984251968504},{"duration":0.02325581395349019,"midi":45,"time":58.31395348837209,"velocity":0.25196850393700787},{"duration":0.02325581395349019,"midi":75,"time":58.31395348837209,"velocity":0.33858267716535434},{"duration":0.05813953488372192,"midi":81,"time":58.31395348837209,"velocity":0.1968503937007874},{"duration":0.04651162790698038,"midi":88,"time":58.31395348837209,"velocity":0.1968503937007874},{"duration":0.05813953488372192,"midi":78,"time":58.325581395348834,"velocity":0.18110236220472442},{"duration":0.05813953488372192,"midi":89,"time":58.325581395348834,"velocity":0.2125984251968504},{"duration":0.04651162790698038,"midi":92,"time":58.325581395348834,"velocity":0.3228346456692913},{"duration":0.081395348837205,"midi":44,"time":58.33720930232558,"velocity":0.3858267716535433},{"duration":0.02325581395349019,"midi":51,"time":58.33720930232558,"velocity":0.2755905511811024},{"duration":0.046511627906973274,"midi":74,"time":58.33720930232558,"velocity":0.2440944881889764},{"duration":0.03488372093023173,"midi":77,"time":58.33720930232558,"velocity":0.2125984251968504},{"duration":0.11627906976744384,"midi":87,"time":58.33720930232558,"velocity":0.18110236220472442},{"duration":0.02325581395349019,"midi":57,"time":58.348837209302324,"velocity":0.5118110236220472},{"duration":0.13953488372093403,"midi":75,"time":58.348837209302324,"velocity":0.3543307086614173},{"duration":0.03488372093023173,"midi":56,"time":58.372093023255815,"velocity":0.5118110236220472},{"duration":0.046511627906973274,"midi":70,"time":58.372093023255815,"velocity":0.13385826771653545},{"duration":0.13953488372092693,"midi":93,"time":58.372093023255815,"velocity":0.15748031496062992},{"duration":0.06976744186047057,"midi":92,"time":58.383720930232556,"velocity":0.2755905511811024},{"duration":0.023255813953483084,"midi":33,"time":58.395348837209305,"velocity":0.30708661417322836},{"duration":0.03488372093023173,"midi":51,"time":58.395348837209305,"velocity":0.29133858267716534},{"duration":0.15116279069767558,"midi":91,"time":58.406976744186046,"velocity":0.2440944881889764},{"duration":0.1046511627906952,"midi":96,"time":58.406976744186046,"velocity":0.2992125984251969},{"duration":0.03488372093023884,"midi":32,"time":58.41860465116279,"velocity":0.30708661417322836},{"duration":0.02325581395349019,"midi":56,"time":58.41860465116279,"velocity":0.4566929133858268},{"duration":0.40697674418604635,"midi":94,"time":58.41860465116279,"velocity":0.33858267716535434},{"duration":0.13953488372093403,"midi":97,"time":58.41860465116279,"velocity":0.2440944881889764},{"duration":0.04651162790698038,"midi":102,"time":58.41860465116279,"velocity":0.2125984251968504},{"duration":0.02325581395349019,"midi":58,"time":58.43023255813954,"velocity":0.4094488188976378},{"duration":0.36046511627906597,"midi":84,"time":58.43023255813954,"velocity":0.33070866141732286},{"duration":0.03488372093023173,"midi":72,"time":58.44186046511628,"velocity":0.4251968503937008},{"duration":0.04651162790698038,"midi":81,"time":58.44186046511628,"velocity":0.2125984251968504},{"duration":0.05813953488372192,"midi":83,"time":58.44186046511628,"velocity":0.2440944881889764},{"duration":0.04651162790698038,"midi":86,"time":58.44186046511628,"velocity":0.2440944881889764},{"duration":0.05813953488372192,"midi":100,"time":58.44186046511628,"velocity":0.18110236220472442},{"duration":0.6744186046511658,"midi":101,"time":58.44186046511628,"velocity":0.2677165354330709},{"duration":0.27906976744186096,"midi":103,"time":58.44186046511628,"velocity":0.33858267716535434},{"duration":0.023255813953483084,"midi":60,"time":58.45348837209303,"velocity":0.4645669291338583},{"duration":0.023255813953483084,"midi":66,"time":58.45348837209303,"velocity":0.23622047244094488},{"duration":0.023255813953483084,"midi":88,"time":58.45348837209303,"velocity":0.25196850393700787},{"duration":0.09302325581395365,"midi":89,"time":58.46511627906977,"velocity":0.4330708661417323},{"duration":0.011627906976748648,"midi":46,"time":58.47674418604651,"velocity":0.5826771653543307},{"duration":0.02325581395349019,"midi":57,"time":58.47674418604651,"velocity":0.2992125984251969},{"duration":0.17441860465116577,"midi":73,"time":58.47674418604651,"velocity":0.5354330708661418},{"duration":0.011627906976741542,"midi":44,"time":58.48837209302326,"velocity":0.6062992125984252},{"duration":0.046511627906973274,"midi":80,"time":58.48837209302326,"velocity":0.2755905511811024},{"duration":0.25581395348837077,"midi":82,"time":58.48837209302326,"velocity":0.4015748031496063},{"duration":0.011627906976741542,"midi":43,"time":58.5,"velocity":0.5826771653543307},{"duration":0.02325581395349019,"midi":60,"time":58.5,"velocity":0.23622047244094488},{"duration":0.6162790697674438,"midi":92,"time":58.5,"velocity":0.5118110236220472},{"duration":0.011627906976748648,"midi":42,"time":58.51162790697674,"velocity":0.5433070866141733},{"duration":0.05813953488372192,"midi":81,"time":58.51162790697674,"velocity":0.2204724409448819},{"duration":0.38372093023256326,"midi":99,"time":58.51162790697674,"velocity":0.30708661417322836},{"duration":0.023255813953483084,"midi":57,"time":58.52325581395349,"velocity":0.2992125984251969},{"duration":0.046511627906973274,"midi":63,"time":58.52325581395349,"velocity":0.3543307086614173},{"duration":0.023255813953483084,"midi":76,"time":58.52325581395349,"velocity":0.2755905511811024},{"duration":0.30232558139534405,"midi":87,"time":58.52325581395349,"velocity":0.31496062992125984},{"duration":0.02325581395349019,"midi":40,"time":58.53488372093023,"velocity":0.4645669291338583},{"duration":0.08139534883721211,"midi":56,"time":58.54651162790697,"velocity":0.3464566929133858},{"duration":0.1860465116279073,"midi":75,"time":58.54651162790697,"velocity":0.5669291338582677},{"duration":0.06976744186047057,"midi":102,"time":58.54651162790697,"velocity":0.30708661417322836},{"duration":0.02325581395349019,"midi":86,"time":58.55813953488372,"velocity":0.2755905511811024},{"duration":0.03488372093023173,"midi":90,"time":58.55813953488372,"velocity":0.48031496062992124},{"duration":0.02325581395349019,"midi":35,"time":58.56976744186046,"velocity":0.29133858267716534},{"duration":0.418604651162795,"midi":80,"time":58.56976744186046,"velocity":0.3937007874015748},{"duration":0.17441860465116577,"midi":89,"time":58.56976744186046,"velocity":0.2125984251968504},{"duration":0.15116279069767558,"midi":91,"time":58.56976744186046,"velocity":0.5118110236220472},{"duration":0.03488372093023173,"midi":61,"time":58.593023255813954,"velocity":0.25984251968503935},{"duration":0.13953488372092693,"midi":97,"time":58.593023255813954,"velocity":0.31496062992125984},{"duration":0.06976744186046346,"midi":60,"time":58.651162790697676,"velocity":0.28346456692913385},{"duration":0.03488372093023173,"midi":72,"time":58.651162790697676,"velocity":0.33070866141732286},{"duration":0.046511627906973274,"midi":63,"time":58.674418604651166,"velocity":0.2755905511811024},{"duration":0.046511627906973274,"midi":88,"time":58.674418604651166,"velocity":0.23622047244094488},{"duration":0.046511627906973274,"midi":73,"time":58.68604651162791,"velocity":0.4330708661417323},{"duration":0.11627906976744384,"midi":90,"time":58.69767441860465,"velocity":0.4645669291338583},{"duration":0.38372093023256326,"midi":95,"time":58.69767441860465,"velocity":0.36220472440944884},{"duration":0.05813953488372192,"midi":98,"time":58.7093023255814,"velocity":0.1968503937007874},{"duration":0.11627906976744384,"midi":48,"time":58.72093023255814,"velocity":0.25196850393700787},{"duration":0.04651162790698038,"midi":61,"time":58.72093023255814,"velocity":0.3228346456692913},{"duration":0.03488372093023173,"midi":78,"time":58.72093023255814,"velocity":0.18110236220472442},{"duration":0.03488372093023173,"midi":86,"time":58.72093023255814,"velocity":0.2125984251968504},{"duration":0.04651162790698038,"midi":93,"time":58.72093023255814,"velocity":0.16535433070866143},{"duration":0.02325581395349019,"midi":96,"time":58.72093023255814,"velocity":0.3543307086614173},{"duration":0.06976744186046346,"midi":100,"time":58.72093023255814,"velocity":0.16535433070866143},{"duration":0.02325581395349019,"midi":74,"time":58.73255813953488,"velocity":0.4566929133858268},{"duration":0.1860465116279073,"midi":91,"time":58.73255813953488,"velocity":0.3858267716535433},{"duration":0.046511627906973274,"midi":65,"time":58.74418604651163,"velocity":0.2047244094488189},{"duration":0.27906976744186096,"midi":97,"time":58.74418604651163,"velocity":0.29133858267716534},{"duration":0.02325581395349019,"midi":40,"time":58.75581395348837,"velocity":0.3543307086614173},{"duration":0.02325581395349019,"midi":57,"time":58.75581395348837,"velocity":0.33070866141732286},{"duration":0.08139534883721211,"midi":73,"time":58.75581395348837,"velocity":0.49606299212598426},{"duration":0.06976744186046346,"midi":82,"time":58.75581395348837,"velocity":0.1732283464566929},{"duration":0.03488372093023173,"midi":89,"time":58.75581395348837,"velocity":0.3937007874015748},{"duration":0.05813953488372192,"midi":41,"time":58.77906976744186,"velocity":0.25196850393700787},{"duration":0.1046511627906952,"midi":56,"time":58.77906976744186,"velocity":0.3937007874015748},{"duration":0.1860465116279073,"midi":75,"time":58.77906976744186,"velocity":0.4094488188976378},{"duration":0.13953488372092693,"midi":89,"time":58.80232558139535,"velocity":0.3228346456692913},{"duration":0.1046511627906952,"midi":84,"time":58.81395348837209,"velocity":0.2125984251968504},{"duration":0.03488372093023884,"midi":30,"time":58.825581395348834,"velocity":0.1968503937007874},{"duration":0.06976744186046346,"midi":65,"time":58.83720930232558,"velocity":0.14173228346456693},{"duration":0.03488372093023173,"midi":82,"time":58.83720930232558,"velocity":0.1732283464566929},{"duration":0.05813953488372192,"midi":83,"time":58.83720930232558,"velocity":0.18110236220472442},{"duration":0.03488372093023173,"midi":73,"time":58.848837209302324,"velocity":0.3700787401574803},{"duration":0.05813953488372192,"midi":78,"time":58.848837209302324,"velocity":0.2125984251968504},{"duration":0.11627906976743674,"midi":77,"time":58.86046511627907,"velocity":0.25984251968503935},{"duration":0.03488372093023173,"midi":98,"time":58.86046511627907,"velocity":0.13385826771653545},{"duration":0.1046511627906952,"midi":48,"time":58.872093023255815,"velocity":0.29133858267716534},{"duration":0.5465116279069733,"midi":102,"time":58.872093023255815,"velocity":0.3858267716535433},{"duration":0.02325581395349019,"midi":40,"time":58.883720930232556,"velocity":0.3543307086614173},{"duration":0.04651162790698038,"midi":55,"time":58.883720930232556,"velocity":0.3700787401574803},{"duration":0.02325581395349019,"midi":72,"time":58.883720930232556,"velocity":0.2677165354330709},{"duration":0.11627906976744384,"midi":82,"time":58.883720930232556,"velocity":0.1968503937007874},{"duration":0.03488372093023173,"midi":73,"time":58.895348837209305,"velocity":0.36220472440944884},{"duration":0.15116279069767558,"midi":90,"time":58.906976744186046,"velocity":0.2755905511811024},{"duration":0.02325581395349019,"midi":31,"time":58.93023255813954,"velocity":0.2677165354330709},{"duration":0.02325581395349019,"midi":56,"time":58.93023255813954,"velocity":0.2992125984251969},{"duration":0.02325581395349019,"midi":74,"time":58.93023255813954,"velocity":0.28346456692913385},{"duration":0.1046511627906952,"midi":91,"time":58.93023255813954,"velocity":0.2755905511811024},{"duration":0.13953488372092693,"midi":96,"time":58.93023255813954,"velocity":0.2677165354330709},{"duration":0.046511627906973274,"midi":30,"time":58.95348837209303,"velocity":0.2677165354330709},{"duration":0.06976744186046346,"midi":73,"time":58.95348837209303,"velocity":0.31496062992125984},{"duration":0.02325581395349019,"midi":62,"time":58.96511627906977,"velocity":0.41732283464566927},{"duration":0.23255813953488058,"midi":89,"time":58.96511627906977,"velocity":0.3858267716535433},{"duration":0.081395348837205,"midi":99,"time":58.96511627906977,"velocity":0.31496062992125984},{"duration":0.17441860465115866,"midi":100,"time":58.96511627906977,"velocity":0.2755905511811024},{"duration":0.02325581395349019,"midi":47,"time":58.97674418604651,"velocity":0.30708661417322836},{"duration":0.03488372093023173,"midi":67,"time":58.97674418604651,"velocity":0.33858267716535434},{"duration":0.1860465116279073,"midi":87,"time":58.97674418604651,"velocity":0.1889763779527559},{"duration":0.09302325581395365,"midi":93,"time":58.97674418604651,"velocity":0.4645669291338583},{"duration":0.15116279069767558,"midi":98,"time":58.97674418604651,"velocity":0.2992125984251969},{"duration":0.03488372093023173,"midi":61,"time":58.98837209302326,"velocity":0.4566929133858268},{"duration":0.1860465116279073,"midi":80,"time":59,"velocity":0.29133858267716534},{"duration":0.046511627906973274,"midi":83,"time":59,"velocity":0.12598425196850394},{"duration":0.03488372093023173,"midi":88,"time":59,"velocity":0.15748031496062992},{"duration":0.02325581395349019,"midi":44,"time":59.01162790697674,"velocity":0.5905511811023622},{"duration":0.02325581395349019,"midi":65,"time":59.01162790697674,"velocity":0.29133858267716534},{"duration":0.03488372093023173,"midi":62,"time":59.02325581395349,"velocity":0.4645669291338583},{"duration":0.023255813953483084,"midi":69,"time":59.02325581395349,"velocity":0.2677165354330709},{"duration":0.011627906976741542,"midi":43,"time":59.03488372093023,"velocity":0.5511811023622047},{"duration":0.03488372093023173,"midi":66,"time":59.03488372093023,"velocity":0.2677165354330709},{"duration":0.02325581395349019,"midi":52,"time":59.04651162790697,"velocity":0.2677165354330709},{"duration":0.04651162790698038,"midi":77,"time":59.04651162790697,"velocity":0.15748031496062992},{"duration":0.08139534883721211,"midi":84,"time":59.04651162790697,"velocity":0.1732283464566929},{"duration":0.046511627906973274,"midi":61,"time":59.05813953488372,"velocity":0.49606299212598426},{"duration":0.12790697674418539,"midi":85,"time":59.05813953488372,"velocity":0.15748031496062992},{"duration":0.15116279069767558,"midi":94,"time":59.05813953488372,"velocity":0.3779527559055118},{"duration":0.13953488372092693,"midi":97,"time":59.05813953488372,"velocity":0.2204724409448819},{"duration":0.1046511627906952,"midi":99,"time":59.05813953488372,"velocity":0.1968503937007874},{"duration":0.02325581395349019,"midi":53,"time":59.06976744186046,"velocity":0.23622047244094488},{"duration":0.04651162790698038,"midi":65,"time":59.06976744186046,"velocity":0.31496062992125984},{"duration":0.16279069767441712,"midi":82,"time":59.06976744186046,"velocity":0.1732283464566929},{"duration":0.06976744186046346,"midi":93,"time":59.08139534883721,"velocity":0.2204724409448819},{"duration":0.03488372093023173,"midi":68,"time":59.093023255813954,"velocity":0.14173228346456693},{"duration":0.046511627906973274,"midi":88,"time":59.093023255813954,"velocity":0.2283464566929134},{"duration":0.046511627906973274,"midi":90,"time":59.093023255813954,"velocity":0.2283464566929134},{"duration":0.17441860465116577,"midi":91,"time":59.093023255813954,"velocity":0.5196850393700787},{"duration":0.1046511627906952,"midi":96,"time":59.093023255813954,"velocity":0.2440944881889764},{"duration":0.02325581395349019,"midi":60,"time":59.104651162790695,"velocity":0.4094488188976378},{"duration":0.03488372093023173,"midi":70,"time":59.116279069767444,"velocity":0.15748031496062992},{"duration":0.12790697674418539,"midi":48,"time":59.127906976744185,"velocity":0.2992125984251969},{"duration":0.05813953488372192,"midi":61,"time":59.127906976744185,"velocity":0.5118110236220472},{"duration":0.04651162790698038,"midi":55,"time":59.13953488372093,"velocity":0.25196850393700787},{"duration":0.02325581395349019,"midi":77,"time":59.151162790697676,"velocity":0.25196850393700787},{"duration":0.03488372093023173,"midi":92,"time":59.151162790697676,"velocity":0.3779527559055118},{"duration":0.1046511627906952,"midi":95,"time":59.151162790697676,"velocity":0.4645669291338583},{"duration":0.12790697674418539,"midi":68,"time":59.16279069767442,"velocity":0.3700787401574803},{"duration":0.08139534883721211,"midi":100,"time":59.16279069767442,"velocity":0.13385826771653545},{"duration":0.06976744186046346,"midi":36,"time":59.174418604651166,"velocity":0.3228346456692913},{"duration":0.046511627906973274,"midi":74,"time":59.174418604651166,"velocity":0.33070866141732286},{"duration":0.046511627906973274,"midi":93,"time":59.174418604651166,"velocity":0.3228346456692913},{"duration":0.03488372093023173,"midi":62,"time":59.18604651162791,"velocity":0.5118110236220472},{"duration":0.02325581395349019,"midi":81,"time":59.18604651162791,"velocity":0.2283464566929134},{"duration":0.11627906976744384,"midi":84,"time":59.18604651162791,"velocity":0.1889763779527559},{"duration":0.03488372093023173,"midi":90,"time":59.18604651162791,"velocity":0.4015748031496063},{"duration":0.03488372093023173,"midi":99,"time":59.18604651162791,"velocity":0.11023622047244094},{"duration":0.02325581395349019,"midi":55,"time":59.19767441860465,"velocity":0.23622047244094488},{"duration":0.8837209302325562,"midi":77,"time":59.2093023255814,"velocity":0.3700787401574803},{"duration":0.081395348837205,"midi":92,"time":59.2093023255814,"velocity":0.29133858267716534},{"duration":0.03488372093023173,"midi":61,"time":59.22093023255814,"velocity":0.5196850393700787},{"duration":0.02325581395349019,"midi":66,"time":59.22093023255814,"velocity":0.25196850393700787},{"duration":0.03488372093023884,"midi":88,"time":59.23255813953488,"velocity":0.14960629921259844},{"duration":0.081395348837205,"midi":65,"time":59.24418604651163,"velocity":0.3779527559055118},{"duration":0.046511627906973274,"midi":83,"time":59.24418604651163,"velocity":0.15748031496062992},{"duration":0.03488372093023173,"midi":85,"time":59.24418604651163,"velocity":0.10236220472440945},{"duration":0.046511627906973274,"midi":90,"time":59.24418604651163,"velocity":0.14960629921259844},{"duration":0.046511627906973274,"midi":99,"time":59.24418604651163,"velocity":0.11811023622047244},{"duration":0.13953488372093403,"midi":53,"time":59.25581395348837,"velocity":0.28346456692913385},{"duration":0.24418604651162923,"midi":73,"time":59.25581395348837,"velocity":0.5275590551181102},{"duration":0.08139534883721211,"midi":76,"time":59.25581395348837,"velocity":0.2283464566929134},{"duration":0.1046511627907023,"midi":93,"time":59.25581395348837,"velocity":0.15748031496062992},{"duration":0.08139534883721211,"midi":94,"time":59.25581395348837,"velocity":0.4330708661417323},{"duration":0.13953488372092693,"midi":46,"time":59.27906976744186,"velocity":0.29133858267716534},{"duration":0.02325581395349019,"midi":60,"time":59.27906976744186,"velocity":0.3700787401574803},{"duration":0.03488372093023173,"midi":87,"time":59.27906976744186,"velocity":0.08661417322834646},{"duration":0.05813953488372192,"midi":88,"time":59.27906976744186,"velocity":0.3858267716535433},{"duration":0.1046511627906952,"midi":91,"time":59.27906976744186,"velocity":0.2283464566929134},{"duration":0.09302325581395365,"midi":92,"time":59.30232558139535,"velocity":0.3937007874015748},{"duration":0.1046511627906952,"midi":62,"time":59.31395348837209,"velocity":0.4881889763779528},{"duration":0.05813953488372192,"midi":84,"time":59.31395348837209,"velocity":0.07874015748031496},{"duration":0.08139534883721211,"midi":34,"time":59.325581395348834,"velocity":0.33070866141732286},{"duration":0.06976744186047057,"midi":66,"time":59.325581395348834,"velocity":0.4015748031496063},{"duration":0.27906976744186096,"midi":95,"time":59.325581395348834,"velocity":0.3543307086614173},{"duration":0.05813953488372192,"midi":86,"time":59.33720930232558,"velocity":0.25984251968503935},{"duration":0.06976744186046346,"midi":81,"time":59.348837209302324,"velocity":0.25196850393700787},{"duration":0.03488372093023173,"midi":87,"time":59.348837209302324,"velocity":0.07874015748031496},{"duration":0.04651162790698038,"midi":100,"time":59.348837209302324,"velocity":0.07874015748031496},{"duration":0.02325581395349019,"midi":68,"time":59.383720930232556,"velocity":0.28346456692913385},{"duration":0.04651162790698038,"midi":75,"time":59.406976744186046,"velocity":0.2047244094488189},{"duration":0.04651162790698038,"midi":61,"time":59.41860465116279,"velocity":0.49606299212598426},{"duration":0.13953488372093403,"midi":80,"time":59.41860465116279,"velocity":0.28346456692913385},{"duration":0.03488372093023173,"midi":65,"time":59.43023255813954,"velocity":0.33070866141732286},{"duration":0.16279069767441712,"midi":88,"time":59.43023255813954,"velocity":0.2677165354330709},{"duration":0.081395348837205,"midi":92,"time":59.43023255813954,"velocity":0.33070866141732286},{"duration":0.06976744186046346,"midi":68,"time":59.44186046511628,"velocity":0.4015748031496063},{"duration":0.02325581395349019,"midi":60,"time":59.46511627906977,"velocity":0.4094488188976378},{"duration":0.02325581395349019,"midi":64,"time":59.46511627906977,"velocity":0.29133858267716534},{"duration":0.11627906976744384,"midi":84,"time":59.46511627906977,"velocity":0.2125984251968504},{"duration":0.13953488372092693,"midi":94,"time":59.46511627906977,"velocity":0.18110236220472442},{"duration":0.16279069767441712,"midi":61,"time":59.48837209302326,"velocity":0.4881889763779528},{"duration":0.023255813953483084,"midi":65,"time":59.48837209302326,"velocity":0.3700787401574803},{"duration":0.03488372093023173,"midi":72,"time":59.48837209302326,"velocity":0.4094488188976378},{"duration":0.09302325581395365,"midi":87,"time":59.5,"velocity":0.2125984251968504},{"duration":0.08139534883721211,"midi":90,"time":59.5,"velocity":0.2283464566929134},{"duration":0.08139534883721211,"midi":91,"time":59.5,"velocity":0.18110236220472442},{"duration":0.1046511627906952,"midi":93,"time":59.5,"velocity":0.15748031496062992},{"duration":0.06976744186046346,"midi":96,"time":59.5,"velocity":0.2204724409448819},{"duration":0.24418604651162923,"midi":97,"time":59.5,"velocity":0.28346456692913385},{"duration":0.02325581395349019,"midi":75,"time":59.51162790697674,"velocity":0.2755905511811024},{"duration":0.04651162790698038,"midi":79,"time":59.51162790697674,"velocity":0.2440944881889764},{"duration":0.03488372093023173,"midi":98,"time":59.51162790697674,"velocity":0.15748031496062992},{"duration":0.12790697674418539,"midi":68,"time":59.52325581395349,"velocity":0.33858267716535434},{"duration":0.3720930232558146,"midi":92,"time":59.52325581395349,"velocity":0.3858267716535433},{"duration":0.02325581395349019,"midi":45,"time":59.53488372093023,"velocity":0.6062992125984252},{"duration":0.03488372093023173,"midi":74,"time":59.53488372093023,"velocity":0.16535433070866143},{"duration":0.02325581395349019,"midi":66,"time":59.54651162790697,"velocity":0.25196850393700787},{"duration":0.05813953488372192,"midi":82,"time":59.54651162790697,"velocity":0.2047244094488189},{"duration":0.03488372093023884,"midi":83,"time":59.54651162790697,"velocity":0.14173228346456693},{"duration":0.011627906976741542,"midi":44,"time":59.55813953488372,"velocity":0.5748031496062992},{"duration":0.011627906976748648,"midi":42,"time":59.56976744186046,"velocity":0.5511811023622047},{"duration":0.04651162790698038,"midi":65,"time":59.56976744186046,"velocity":0.25196850393700787},{"duration":0.05813953488372192,"midi":81,"time":59.56976744186046,"velocity":0.2047244094488189},{"duration":0.023255813953483084,"midi":55,"time":59.58139534883721,"velocity":0.2992125984251969},{"duration":0.03488372093023173,"midi":74,"time":59.58139534883721,"velocity":0.2992125984251969},{"duration":0.02325581395349019,"midi":38,"time":59.604651162790695,"velocity":0.4015748031496063},{"duration":0.03488372093023173,"midi":75,"time":59.604651162790695,"velocity":0.11023622047244094},{"duration":0.023255813953483084,"midi":53,"time":59.616279069767444,"velocity":0.2677165354330709},{"duration":0.06976744186046346,"midi":102,"time":59.616279069767444,"velocity":0.14173228346456693},{"duration":0.1046511627906952,"midi":99,"time":59.627906976744185,"velocity":0.2440944881889764},{"duration":0.02325581395349019,"midi":36,"time":59.63953488372093,"velocity":0.31496062992125984},{"duration":0.05813953488372192,"midi":66,"time":59.63953488372093,"velocity":0.29133858267716534},{"duration":0.08139534883721211,"midi":87,"time":59.63953488372093,"velocity":0.14960629921259844},{"duration":0.04651162790698038,"midi":94,"time":59.63953488372093,"velocity":0.10236220472440945},{"duration":0.03488372093023884,"midi":95,"time":59.63953488372093,"velocity":0.10236220472440945},{"duration":0.06976744186047057,"midi":96,"time":59.63953488372093,"velocity":0.16535433070866143},{"duration":0.03488372093023884,"midi":98,"time":59.63953488372093,"velocity":0.10236220472440945},{"duration":0.046511627906973274,"midi":69,"time":59.651162790697676,"velocity":0.30708661417322836},{"duration":0.02325581395349019,"midi":79,"time":59.651162790697676,"velocity":0.23622047244094488},{"duration":0.03488372093023173,"midi":100,"time":59.651162790697676,"velocity":0.11811023622047244},{"duration":0.03488372093023173,"midi":103,"time":59.651162790697676,"velocity":0.11023622047244094},{"duration":0.16279069767441712,"midi":73,"time":59.66279069767442,"velocity":0.49606299212598426},{"duration":0.11627906976744384,"midi":95,"time":59.68604651162791,"velocity":0.1889763779527559},{"duration":0.02325581395349019,"midi":68,"time":59.69767441860465,"velocity":0.30708661417322836},{"duration":0.02325581395349019,"midi":75,"time":59.69767441860465,"velocity":0.23622047244094488},{"duration":0.046511627906973274,"midi":66,"time":59.7093023255814,"velocity":0.3228346456692913},{"duration":0.03488372093023173,"midi":90,"time":59.7093023255814,"velocity":0.18110236220472442},{"duration":0.06976744186046346,"midi":103,"time":59.7093023255814,"velocity":0.08661417322834646},{"duration":0.03488372093023173,"midi":53,"time":59.74418604651163,"velocity":0.28346456692913385},{"duration":0.02325581395349019,"midi":61,"time":59.74418604651163,"velocity":0.33070866141732286},{"duration":0.02325581395349019,"midi":65,"time":59.74418604651163,"velocity":0.29133858267716534},{"duration":0.08139534883721211,"midi":68,"time":59.75581395348837,"velocity":0.3937007874015748},{"duration":0.08139534883721211,"midi":99,"time":59.75581395348837,"velocity":0.14960629921259844},{"duration":0.023255813953483084,"midi":62,"time":59.76744186046512,"velocity":0.3858267716535433},{"duration":0.023255813953483084,"midi":75,"time":59.76744186046512,"velocity":0.25984251968503935},{"duration":0.046511627906973274,"midi":81,"time":59.76744186046512,"velocity":0.28346456692913385},{"duration":0.03488372093023173,"midi":91,"time":59.76744186046512,"velocity":0.13385826771653545},{"duration":0.02325581395349019,"midi":52,"time":59.77906976744186,"velocity":0.2677165354330709},{"duration":0.02325581395349019,"midi":57,"time":59.77906976744186,"velocity":0.30708661417322836},{"duration":0.046511627906973274,"midi":86,"time":59.77906976744186,"velocity":0.28346456692913385},{"duration":0.08139534883721211,"midi":97,"time":59.77906976744186,"velocity":0.14173228346456693},{"duration":0.046511627906973274,"midi":102,"time":59.77906976744186,"velocity":0.10236220472440945},{"duration":0.16279069767442422,"midi":44,"time":59.7906976744186,"velocity":0.4015748031496063},{"duration":0.02325581395349019,"midi":66,"time":59.7906976744186,"velocity":0.3543307086614173},{"duration":0.05813953488372192,"midi":79,"time":59.7906976744186,"velocity":0.2047244094488189},{"duration":0.05813953488372192,"midi":51,"time":59.80232558139535,"velocity":0.33070866141732286},{"duration":0.046511627906973274,"midi":84,"time":59.80232558139535,"velocity":0.12598425196850394},{"duration":0.17441860465116577,"midi":65,"time":59.81395348837209,"velocity":0.3937007874015748},{"duration":0.03488372093023884,"midi":74,"time":59.825581395348834,"velocity":0.3543307086614173},{"duration":0.02325581395349019,"midi":62,"time":59.83720930232558,"velocity":0.2992125984251969},{"duration":0.081395348837205,"midi":80,"time":59.83720930232558,"velocity":0.13385826771653545},{"duration":0.09302325581395365,"midi":85,"time":59.83720930232558,"velocity":0.12598425196850394},{"duration":0.046511627906973274,"midi":88,"time":59.83720930232558,"velocity":0.14960629921259844},{"duration":0.03488372093023173,"midi":33,"time":59.848837209302324,"velocity":0.3464566929133858},{"duration":0.17441860465115866,"midi":61,"time":59.86046511627907,"velocity":0.4094488188976378},{"duration":0.1046511627906952,"midi":73,"time":59.86046511627907,"velocity":0.4251968503937008},{"duration":0.02325581395349019,"midi":51,"time":59.872093023255815,"velocity":0.2677165354330709},{"duration":0.1046511627907023,"midi":32,"time":59.883720930232556,"velocity":0.3543307086614173},{"duration":0.25581395348837077,"midi":68,"time":59.883720930232556,"velocity":0.3858267716535433},{"duration":0.6860465116279073,"midi":92,"time":59.906976744186046,"velocity":0.33858267716535434},{"duration":0.05813953488372192,"midi":97,"time":59.91860465116279,"velocity":0.18110236220472442},{"duration":0.05813953488372192,"midi":99,"time":59.93023255813954,"velocity":0.14960629921259844},{"duration":0.03488372093023173,"midi":56,"time":59.95348837209303,"velocity":0.2440944881889764},{"duration":0.12790697674418539,"midi":90,"time":59.96511627906977,"velocity":0.2283464566929134},{"duration":0.05813953488372192,"midi":66,"time":60,"velocity":0.4330708661417323},{"duration":0.03488372093023173,"midi":74,"time":60.01162790697674,"velocity":0.2125984251968504},{"duration":0.046511627906973274,"midi":79,"time":60.02325581395349,"velocity":0.29133858267716534},{"duration":0.023255813953483084,"midi":82,"time":60.02325581395349,"velocity":0.2283464566929134},{"duration":0.05813953488372192,"midi":93,"time":60.02325581395349,"velocity":0.16535433070866143},{"duration":0.11627906976743674,"midi":97,"time":60.02325581395349,"velocity":0.30708661417322836},{"duration":0.02325581395349019,"midi":62,"time":60.03488372093023,"velocity":0.4645669291338583},{"duration":0.09302325581395365,"midi":73,"time":60.03488372093023,"velocity":0.33070866141732286},{"duration":0.06976744186046346,"midi":83,"time":60.03488372093023,"velocity":0.2440944881889764},{"duration":0.08139534883721211,"midi":88,"time":60.03488372093023,"velocity":0.2755905511811024},{"duration":0.08139534883721211,"midi":96,"time":60.03488372093023,"velocity":0.1968503937007874},{"duration":0.03488372093023173,"midi":98,"time":60.03488372093023,"velocity":0.15748031496062992},{"duration":0.2325581395348877,"midi":99,"time":60.03488372093023,"velocity":0.2677165354330709},{"duration":0.06976744186046346,"midi":101,"time":60.03488372093023,"velocity":0.11811023622047244},{"duration":0.06976744186046346,"midi":103,"time":60.03488372093023,"velocity":0.12598425196850394},{"duration":0.02325581395349019,"midi":46,"time":60.04651162790697,"velocity":0.5275590551181102},{"duration":0.06976744186047057,"midi":94,"time":60.04651162790697,"velocity":0.15748031496062992},{"duration":0.011627906976748648,"midi":45,"time":60.06976744186046,"velocity":0.5905511811023622},{"duration":0.02325581395349019,"midi":58,"time":60.06976744186046,"velocity":0.36220472440944884},{"duration":0.05813953488372192,"midi":82,"time":60.06976744186046,"velocity":0.2204724409448819},{"duration":0.011627906976741542,"midi":44,"time":60.08139534883721,"velocity":0.5826771653543307},{"duration":0.046511627906973274,"midi":65,"time":60.08139534883721,"velocity":0.15748031496062992},{"duration":0.03488372093023173,"midi":71,"time":60.08139534883721,"velocity":0.13385826771653545},{"duration":0.058139534883714816,"midi":87,"time":60.08139534883721,"velocity":0.10236220472440945},{"duration":0.011627906976741542,"midi":42,"time":60.093023255813954,"velocity":0.5905511811023622},{"duration":0.02325581395349019,"midi":57,"time":60.093023255813954,"velocity":0.33858267716535434},{"duration":0.03488372093023173,"midi":41,"time":60.104651162790695,"velocity":0.5118110236220472},{"duration":0.05813953488372192,"midi":61,"time":60.127906976744185,"velocity":0.2283464566929134},{"duration":0.04651162790698038,"midi":77,"time":60.127906976744185,"velocity":0.14173228346456693},{"duration":0.2093023255813975,"midi":68,"time":60.151162790697676,"velocity":0.3779527559055118},{"duration":0.05813953488372192,"midi":81,"time":60.16279069767442,"velocity":0.2204724409448819},{"duration":0.03488372093023173,"midi":87,"time":60.16279069767442,"velocity":0.2047244094488189},{"duration":0.08139534883721211,"midi":88,"time":60.16279069767442,"velocity":0.2755905511811024},{"duration":0.1046511627907023,"midi":89,"time":60.16279069767442,"velocity":0.31496062992125984},{"duration":0.09302325581395365,"midi":94,"time":60.16279069767442,"velocity":0.15748031496062992},{"duration":0.023255813953483084,"midi":74,"time":60.174418604651166,"velocity":0.3543307086614173},{"duration":0.046511627906973274,"midi":78,"time":60.174418604651166,"velocity":0.23622047244094488},{"duration":0.058139534883714816,"midi":90,"time":60.174418604651166,"velocity":0.25984251968503935},{"duration":0.12790697674418539,"midi":95,"time":60.174418604651166,"velocity":0.14960629921259844},{"duration":0.22093023255813904,"midi":97,"time":60.174418604651166,"velocity":0.28346456692913385},{"duration":0.13953488372092693,"midi":44,"time":60.18604651162791,"velocity":0.3937007874015748},{"duration":0.02325581395349019,"midi":60,"time":60.18604651162791,"velocity":0.2283464566929134},{"duration":0.046511627906973274,"midi":77,"time":60.18604651162791,"velocity":0.1889763779527559},{"duration":0.046511627906973274,"midi":96,"time":60.18604651162791,"velocity":0.12598425196850394},{"duration":0.03488372093023173,"midi":70,"time":60.19767441860465,"velocity":0.1732283464566929},{"duration":0.04651162790698038,"midi":73,"time":60.19767441860465,"velocity":0.31496062992125984},{"duration":0.06976744186047057,"midi":91,"time":60.19767441860465,"velocity":0.1968503937007874},{"duration":0.046511627906973274,"midi":66,"time":60.2093023255814,"velocity":0.2204724409448819},{"duration":0.046511627906973274,"midi":82,"time":60.2093023255814,"velocity":0.18110236220472442},{"duration":0.03488372093023173,"midi":83,"time":60.2093023255814,"velocity":0.15748031496062992},{"duration":0.03488372093023173,"midi":51,"time":60.22093023255814,"velocity":0.4015748031496063},{"duration":0.02325581395349019,"midi":57,"time":60.22093023255814,"velocity":0.25984251968503935},{"duration":0.03488372093023173,"midi":87,"time":60.22093023255814,"velocity":0.16535433070866143},{"duration":0.04651162790698038,"midi":60,"time":60.23255813953488,"velocity":0.25984251968503935},{"duration":0.02325581395349019,"midi":33,"time":60.24418604651163,"velocity":0.3464566929133858},{"duration":0.03488372093023173,"midi":74,"time":60.24418604651163,"velocity":0.25196850393700787},{"duration":0.02325581395349019,"midi":52,"time":60.25581395348837,"velocity":0.33858267716535434},{"duration":0.04651162790698038,"midi":75,"time":60.25581395348837,"velocity":0.13385826771653545},{"duration":0.09302325581395365,"midi":32,"time":60.26744186046512,"velocity":0.3700787401574803},{"duration":0.03488372093023173,"midi":51,"time":60.27906976744186,"velocity":0.31496062992125984},{"duration":0.05813953488372192,"midi":65,"time":60.30232558139535,"velocity":0.12598425196850394},{"duration":0.03488372093023173,"midi":90,"time":60.30232558139535,"velocity":0.10236220472440945},{"duration":0.06976744186046346,"midi":73,"time":60.31395348837209,"velocity":0.2283464566929134},{"duration":0.05813953488372192,"midi":99,"time":60.325581395348834,"velocity":0.12598425196850394},{"duration":0.03488372093023173,"midi":87,"time":60.33720930232558,"velocity":0.07086614173228346},{"duration":0.03488372093023173,"midi":51,"time":60.36046511627907,"velocity":0.07874015748031496},{"duration":0.06976744186046346,"midi":66,"time":60.36046511627907,"velocity":0.1732283464566929},{"duration":0.12790697674418539,"midi":73,"time":60.395348837209305,"velocity":0.28346456692913385},{"duration":0.03488372093023884,"midi":69,"time":60.41860465116279,"velocity":0.1889763779527559},{"duration":0.02325581395349019,"midi":62,"time":60.43023255813954,"velocity":0.2677165354330709},{"duration":0.03488372093023173,"midi":67,"time":60.43023255813954,"velocity":0.2677165354330709},{"duration":0.02325581395349019,"midi":77,"time":60.43023255813954,"velocity":0.2755905511811024},{"duration":0.02325581395349019,"midi":79,"time":60.43023255813954,"velocity":0.2677165354330709},{"duration":0.02325581395349019,"midi":81,"time":60.43023255813954,"velocity":0.2440944881889764},{"duration":0.05813953488372192,"midi":86,"time":60.43023255813954,"velocity":0.23622047244094488},{"duration":0.05813953488372192,"midi":94,"time":60.43023255813954,"velocity":0.23622047244094488},{"duration":0.16279069767441712,"midi":97,"time":60.43023255813954,"velocity":0.2283464566929134},{"duration":0.02325581395349019,"midi":48,"time":60.44186046511628,"velocity":0.3858267716535433},{"duration":0.08139534883721211,"midi":71,"time":60.44186046511628,"velocity":0.2204724409448819},{"duration":0.04651162790698038,"midi":84,"time":60.44186046511628,"velocity":0.14173228346456693},{"duration":0.1046511627906952,"midi":90,"time":60.44186046511628,"velocity":0.1732283464566929},{"duration":0.05813953488372192,"midi":100,"time":60.44186046511628,"velocity":0.09448818897637795},{"duration":0.11627906976743674,"midi":56,"time":60.45348837209303,"velocity":0.28346456692913385},{"duration":0.06976744186046346,"midi":61,"time":60.45348837209303,"velocity":0.31496062992125984},{"duration":0.06976744186046346,"midi":75,"time":60.45348837209303,"velocity":0.15748031496062992},{"duration":0.09302325581394655,"midi":80,"time":60.45348837209303,"velocity":0.15748031496062992},{"duration":0.058139534883714816,"midi":82,"time":60.45348837209303,"velocity":0.25196850393700787},{"duration":0.09302325581395365,"midi":49,"time":60.46511627906977,"velocity":0.3464566929133858},{"duration":0.02325581395349019,"midi":66,"time":60.46511627906977,"velocity":0.33858267716535434},{"duration":0.02325581395349019,"midi":79,"time":60.46511627906977,"velocity":0.25196850393700787},{"duration":0.05813953488372192,"midi":99,"time":60.46511627906977,"velocity":0.14173228346456693},{"duration":0.046511627906973274,"midi":37,"time":60.48837209302326,"velocity":0.3858267716535433},{"duration":0.058139534883714816,"midi":65,"time":60.48837209302326,"velocity":0.25984251968503935},{"duration":0.05813953488372192,"midi":73,"time":60.53488372093023,"velocity":0.16535433070866143},{"duration":0.081395348837205,"midi":76,"time":60.55813953488372,"velocity":0.2755905511811024},{"duration":0.05813953488372192,"midi":79,"time":60.55813953488372,"velocity":0.2283464566929134},{"duration":0.046511627906973274,"midi":83,"time":60.55813953488372,"velocity":0.1968503937007874},{"duration":0.2906976744186025,"midi":85,"time":60.55813953488372,"velocity":0.23622047244094488},{"duration":0.03488372093023173,"midi":90,"time":60.55813953488372,"velocity":0.15748031496062992},{"duration":0.03488372093023173,"midi":91,"time":60.55813953488372,"velocity":0.2440944881889764},{"duration":0.03488372093023173,"midi":93,"time":60.55813953488372,"velocity":0.1732283464566929},{"duration":0.03488372093023173,"midi":94,"time":60.55813953488372,"velocity":0.2204724409448819},{"duration":0.03488372093023173,"midi":95,"time":60.55813953488372,"velocity":0.2125984251968504},{"duration":0.17441860465115866,"midi":96,"time":60.55813953488372,"velocity":0.1732283464566929},{"duration":0.03488372093023173,"midi":102,"time":60.55813953488372,"velocity":0.2125984251968504},{"duration":0.02325581395349019,"midi":62,"time":60.56976744186046,"velocity":0.2283464566929134},{"duration":0.05813953488372192,"midi":101,"time":60.56976744186046,"velocity":0.10236220472440945},{"duration":0.011627906976741542,"midi":48,"time":60.58139534883721,"velocity":0.5354330708661418},{"duration":0.081395348837205,"midi":68,"time":60.58139534883721,"velocity":0.2283464566929134},{"duration":0.011627906976741542,"midi":46,"time":60.593023255813954,"velocity":0.6062992125984252},{"duration":0.12790697674418539,"midi":65,"time":60.593023255813954,"velocity":0.33070866141732286},{"duration":0.011627906976748648,"midi":45,"time":60.604651162790695,"velocity":0.6377952755905512},{"duration":0.03488372093023173,"midi":62,"time":60.604651162790695,"velocity":0.2204724409448819},{"duration":0.011627906976741542,"midi":44,"time":60.616279069767444,"velocity":0.6062992125984252},{"duration":0.046511627906973274,"midi":53,"time":60.616279069767444,"velocity":0.2204724409448819},{"duration":0.011627906976741542,"midi":42,"time":60.627906976744185,"velocity":0.5511811023622047},{"duration":0.09302325581395365,"midi":84,"time":60.627906976744185,"velocity":0.16535433070866143},{"duration":0.011627906976748648,"midi":41,"time":60.63953488372093,"velocity":0.5196850393700787},{"duration":0.03488372093023884,"midi":61,"time":60.63953488372093,"velocity":0.2125984251968504},{"duration":0.011627906976741542,"midi":38,"time":60.651162790697676,"velocity":0.5118110236220472},{"duration":0.23255813953488058,"midi":89,"time":60.651162790697676,"velocity":0.25984251968503935},{"duration":0.02325581395349019,"midi":37,"time":60.66279069767442,"velocity":0.47244094488188976},{"duration":0.02325581395349019,"midi":54,"time":60.66279069767442,"velocity":0.23622047244094488},{"duration":0.09302325581395365,"midi":82,"time":60.66279069767442,"velocity":0.18110236220472442},{"duration":0.02325581395349019,"midi":38,"time":60.68604651162791,"velocity":0.2283464566929134},{"duration":0.12790697674418539,"midi":61,"time":60.68604651162791,"velocity":0.1732283464566929},{"duration":0.06976744186047057,"midi":73,"time":60.69767441860465,"velocity":0.2677165354330709},{"duration":0.09302325581395365,"midi":92,"time":60.7093023255814,"velocity":0.2125984251968504},{"duration":0.02325581395349019,"midi":66,"time":60.72093023255814,"velocity":0.29133858267716534},{"duration":0.03488372093023173,"midi":78,"time":60.72093023255814,"velocity":0.29133858267716534},{"duration":0.03488372093023173,"midi":102,"time":60.72093023255814,"velocity":0.08661417322834646},{"duration":0.09302325581395365,"midi":77,"time":60.74418604651163,"velocity":0.25984251968503935},{"duration":0.2093023255813975,"midi":65,"time":60.75581395348837,"velocity":0.2677165354330709},{"duration":0.03488372093023173,"midi":93,"time":60.77906976744186,"velocity":0.07086614173228346},{"duration":0.08139534883721211,"midi":70,"time":60.7906976744186,"velocity":0.14173228346456693},{"duration":0.05813953488372192,"midi":82,"time":60.7906976744186,"velocity":0.16535433070866143},{"duration":0.04651162790698038,"midi":86,"time":60.81395348837209,"velocity":0.13385826771653545},{"duration":0.02325581395349019,"midi":56,"time":60.825581395348834,"velocity":0.48031496062992124},{"duration":0.02325581395349019,"midi":74,"time":60.825581395348834,"velocity":0.25196850393700787},{"duration":0.06976744186047057,"midi":79,"time":60.825581395348834,"velocity":0.2047244094488189},{"duration":0.05813953488372192,"midi":83,"time":60.825581395348834,"velocity":0.2204724409448819},{"duration":0.03488372093023884,"midi":88,"time":60.825581395348834,"velocity":0.2125984251968504},{"duration":0.09302325581395365,"midi":91,"time":60.825581395348834,"velocity":0.2677165354330709},{"duration":0.05813953488372192,"midi":95,"time":60.825581395348834,"velocity":0.25984251968503935},{"duration":0.06976744186046346,"midi":76,"time":60.83720930232558,"velocity":0.25196850393700787},{"duration":0.06976744186046346,"midi":80,"time":60.83720930232558,"velocity":0.18110236220472442},{"duration":0.03488372093023173,"midi":90,"time":60.83720930232558,"velocity":0.11811023622047244},{"duration":0.02325581395349019,"midi":45,"time":60.848837209302324,"velocity":0.3937007874015748},{"duration":0.02325581395349019,"midi":73,"time":60.848837209302324,"velocity":0.25196850393700787},{"duration":0.04651162790698038,"midi":81,"time":60.848837209302324,"velocity":0.10236220472440945},{"duration":0.04651162790698038,"midi":93,"time":60.848837209302324,"velocity":0.2677165354330709},{"duration":0.058139534883714816,"midi":53,"time":60.86046511627907,"velocity":0.3228346456692913},{"duration":0.046511627906973274,"midi":96,"time":60.86046511627907,"velocity":0.4094488188976378},{"duration":0.05813953488372192,"midi":46,"time":60.872093023255815,"velocity":0.31496062992125984},{"duration":0.03488372093023173,"midi":60,"time":60.872093023255815,"velocity":0.44881889763779526},{"duration":0.1860465116279073,"midi":94,"time":60.872093023255815,"velocity":0.3779527559055118},{"duration":0.03488372093023173,"midi":98,"time":60.883720930232556,"velocity":0.13385826771653545},{"duration":0.023255813953483084,"midi":35,"time":60.895348837209305,"velocity":0.3700787401574803},{"duration":0.03488372093023173,"midi":97,"time":60.895348837209305,"velocity":0.4330708661417323},{"duration":0.06976744186046346,"midi":100,"time":60.895348837209305,"velocity":0.16535433070866143},{"duration":0.1046511627906952,"midi":102,"time":60.895348837209305,"velocity":0.14960629921259844},{"duration":0.03488372093023173,"midi":61,"time":60.906976744186046,"velocity":0.4251968503937008},{"duration":0.04651162790698038,"midi":34,"time":60.91860465116279,"velocity":0.3700787401574803},{"duration":0.03488372093023173,"midi":70,"time":60.93023255813954,"velocity":0.14173228346456693},{"duration":0.081395348837205,"midi":91,"time":60.93023255813954,"velocity":0.3464566929133858},{"duration":0.081395348837205,"midi":96,"time":60.93023255813954,"velocity":0.3858267716535433},{"duration":0.04651162790698038,"midi":60,"time":60.94186046511628,"velocity":0.3779527559055118},{"duration":0.03488372093023173,"midi":98,"time":60.94186046511628,"velocity":0.1889763779527559},{"duration":0.03488372093023173,"midi":78,"time":60.95348837209303,"velocity":0.2677165354330709},{"duration":0.046511627906973274,"midi":88,"time":60.95348837209303,"velocity":0.2047244094488189},{"duration":0.09302325581395365,"midi":76,"time":60.96511627906977,"velocity":0.23622047244094488},{"duration":0.03488372093023173,"midi":83,"time":60.96511627906977,"velocity":0.16535433070866143},{"duration":0.02325581395349019,"midi":45,"time":60.97674418604651,"velocity":0.3464566929133858},{"duration":0.09302325581395365,"midi":53,"time":60.97674418604651,"velocity":0.28346456692913385},{"duration":0.11627906976744384,"midi":70,"time":60.97674418604651,"velocity":0.2283464566929134},{"duration":0.09302325581395365,"midi":80,"time":60.97674418604651,"velocity":0.10236220472440945},{"duration":0.08139534883721211,"midi":84,"time":60.97674418604651,"velocity":0.10236220472440945},{"duration":0.04651162790698038,"midi":93,"time":60.97674418604651,"velocity":0.13385826771653545},{"duration":0.046511627906973274,"midi":66,"time":60.98837209302326,"velocity":0.2992125984251969},{"duration":0.046511627906973274,"midi":72,"time":60.98837209302326,"velocity":0.2047244094488189},{"duration":0.03488372093023173,"midi":81,"time":60.98837209302326,"velocity":0.07086614173228346},{"duration":0.058139534883714816,"midi":97,"time":60.98837209302326,"velocity":0.2755905511811024},{"duration":0.02325581395349019,"midi":37,"time":61,"velocity":0.2677165354330709},{"duration":0.06976744186046346,"midi":46,"time":61,"velocity":0.2992125984251969},{"duration":0.02325581395349019,"midi":58,"time":61,"velocity":0.3543307086614173},{"duration":0.2674418604651123,"midi":73,"time":61.02325581395349,"velocity":0.4330708661417323},{"duration":0.3488372093023244,"midi":77,"time":61.02325581395349,"velocity":0.30708661417322836},{"duration":0.046511627906973274,"midi":98,"time":61.02325581395349,"velocity":0.2283464566929134},{"duration":0.06976744186046346,"midi":60,"time":61.03488372093023,"velocity":0.5118110236220472},{"duration":0.04651162790698038,"midi":34,"time":61.04651162790697,"velocity":0.3228346456692913},{"duration":0.03488372093023884,"midi":66,"time":61.04651162790697,"velocity":0.25984251968503935},{"duration":0.24418604651162923,"midi":94,"time":61.06976744186046,"velocity":0.1732283464566929},{"duration":0.081395348837205,"midi":88,"time":61.08139534883721,"velocity":0.2125984251968504},{"duration":0.081395348837205,"midi":91,"time":61.08139534883721,"velocity":0.2204724409448819},{"duration":0.03488372093023173,"midi":96,"time":61.08139534883721,"velocity":0.2283464566929134},{"duration":0.11627906976743674,"midi":97,"time":61.08139534883721,"velocity":0.1968503937007874},{"duration":0.05813953488372192,"midi":90,"time":61.093023255813954,"velocity":0.25196850393700787},{"duration":0.08139534883721211,"midi":95,"time":61.093023255813954,"velocity":0.16535433070866143},{"duration":0.03488372093023173,"midi":98,"time":61.093023255813954,"velocity":0.1732283464566929},{"duration":0.09302325581395365,"midi":99,"time":61.093023255813954,"velocity":0.14960629921259844},{"duration":0.2093023255813975,"midi":101,"time":61.093023255813954,"velocity":0.23622047244094488},{"duration":0.1860465116279073,"midi":103,"time":61.093023255813954,"velocity":0.31496062992125984},{"duration":0.02325581395349019,"midi":45,"time":61.104651162790695,"velocity":0.5354330708661418},{"duration":0.011627906976748648,"midi":53,"time":61.104651162790695,"velocity":0.5196850393700787},{"duration":0.02325581395349019,"midi":62,"time":61.104651162790695,"velocity":0.4330708661417323},{"duration":0.04651162790698038,"midi":92,"time":61.104651162790695,"velocity":0.16535433070866143},{"duration":0.011627906976741542,"midi":51,"time":61.116279069767444,"velocity":0.5118110236220472},{"duration":0.2093023255813904,"midi":80,"time":61.116279069767444,"velocity":0.3858267716535433},{"duration":0.02325581395349019,"midi":44,"time":61.127906976744185,"velocity":0.6141732283464567},{"duration":0.02325581395349019,"midi":61,"time":61.127906976744185,"velocity":0.33070866141732286},{"duration":0.4767441860465098,"midi":66,"time":61.127906976744185,"velocity":0.4094488188976378},{"duration":0.2674418604651194,"midi":70,"time":61.127906976744185,"velocity":0.3228346456692913},{"duration":0.02325581395349019,"midi":42,"time":61.151162790697676,"velocity":0.5748031496062992},{"duration":0.03488372093023173,"midi":87,"time":61.151162790697676,"velocity":0.11023622047244094},{"duration":0.02325581395349019,"midi":52,"time":61.16279069767442,"velocity":0.29133858267716534},{"duration":0.02325581395349019,"midi":61,"time":61.18604651162791,"velocity":0.2992125984251969},{"duration":0.02325581395349019,"midi":37,"time":61.19767441860465,"velocity":0.4015748031496063},{"duration":0.02325581395349019,"midi":36,"time":61.22093023255814,"velocity":0.31496062992125984},{"duration":0.04651162790698038,"midi":61,"time":61.22093023255814,"velocity":0.4330708661417323},{"duration":0.06976744186046346,"midi":79,"time":61.22093023255814,"velocity":0.25196850393700787},{"duration":0.05813953488372192,"midi":86,"time":61.22093023255814,"velocity":0.1889763779527559},{"duration":0.05813953488372192,"midi":95,"time":61.22093023255814,"velocity":0.14173228346456693},{"duration":0.02325581395349019,"midi":48,"time":61.23255813953488,"velocity":0.3464566929133858},{"duration":0.02325581395349019,"midi":55,"time":61.23255813953488,"velocity":0.2677165354330709},{"duration":0.05813953488372192,"midi":83,"time":61.23255813953488,"velocity":0.13385826771653545},{"duration":0.03488372093023173,"midi":49,"time":61.25581395348837,"velocity":0.30708661417322836},{"duration":0.03488372093023173,"midi":75,"time":61.26744186046512,"velocity":0.07086614173228346},{"duration":0.046511627906973274,"midi":37,"time":61.27906976744186,"velocity":0.3858267716535433},{"duration":0.02325581395349019,"midi":56,"time":61.27906976744186,"velocity":0.29133858267716534},{"duration":0.02325581395349019,"midi":60,"time":61.2906976744186,"velocity":0.41732283464566927},{"duration":0.3139534883720927,"midi":73,"time":61.30232558139535,"velocity":0.3464566929133858},{"duration":0.02325581395349019,"midi":59,"time":61.31395348837209,"velocity":0.49606299212598426},{"duration":0.02325581395349019,"midi":50,"time":61.325581395348834,"velocity":0.29133858267716534},{"duration":0.02325581395349019,"midi":37,"time":61.33720930232558,"velocity":0.2440944881889764},{"duration":0.081395348837205,"midi":58,"time":61.33720930232558,"velocity":0.4881889763779528},{"duration":0.13953488372092693,"midi":103,"time":61.33720930232558,"velocity":0.3543307086614173},{"duration":0.04651162790698038,"midi":90,"time":61.348837209302324,"velocity":0.2125984251968504},{"duration":0.03488372093023173,"midi":91,"time":61.348837209302324,"velocity":0.15748031496062992},{"duration":0.12790697674418539,"midi":92,"time":61.348837209302324,"velocity":0.30708661417322836},{"duration":0.03488372093023173,"midi":96,"time":61.348837209302324,"velocity":0.2125984251968504},{"duration":0.09302325581395365,"midi":98,"time":61.348837209302324,"velocity":0.33070866141732286},{"duration":0.03488372093023173,"midi":99,"time":61.348837209302324,"velocity":0.09448818897637795},{"duration":0.03488372093023173,"midi":47,"time":61.36046511627907,"velocity":0.3543307086614173},{"duration":0.03488372093023173,"midi":94,"time":61.36046511627907,"velocity":0.2440944881889764},{"duration":0.081395348837205,"midi":100,"time":61.36046511627907,"velocity":0.15748031496062992},{"duration":0.03488372093023173,"midi":101,"time":61.36046511627907,"velocity":0.07086614173228346},{"duration":0.03488372093023173,"midi":76,"time":61.372093023255815,"velocity":0.13385826771653545},{"duration":0.03488372093023173,"midi":79,"time":61.372093023255815,"velocity":0.14173228346456693},{"duration":0.02325581395349019,"midi":81,"time":61.372093023255815,"velocity":0.2440944881889764},{"duration":0.03488372093023173,"midi":97,"time":61.383720930232556,"velocity":0.25196850393700787},{"duration":0.12790697674418539,"midi":48,"time":61.395348837209305,"velocity":0.31496062992125984},{"duration":0.09302325581395365,"midi":80,"time":61.395348837209305,"velocity":0.2125984251968504},{"duration":0.09302325581395365,"midi":36,"time":61.41860465116279,"velocity":0.33858267716535434},{"duration":0.03488372093023884,"midi":101,"time":61.41860465116279,"velocity":0.08661417322834646},{"duration":0.2093023255813975,"midi":77,"time":61.44186046511628,"velocity":0.25984251968503935},{"duration":0.02325581395349019,"midi":61,"time":61.47674418604651,"velocity":0.28346456692913385},{"duration":0.32558139534883423,"midi":70,"time":61.5,"velocity":0.25984251968503935},{"duration":0.02325581395349019,"midi":59,"time":61.51162790697674,"velocity":0.25984251968503935},{"duration":0.05813953488372192,"midi":58,"time":61.53488372093023,"velocity":0.30708661417322836},{"duration":0.03488372093023173,"midi":98,"time":61.593023255813954,"velocity":0.2283464566929134},{"duration":0.15116279069767558,"midi":99,"time":61.593023255813954,"velocity":0.2440944881889764},{"duration":0.04651162790698038,"midi":90,"time":61.604651162790695,"velocity":0.15748031496062992},{"duration":0.04651162790698038,"midi":95,"time":61.604651162790695,"velocity":0.2047244094488189},{"duration":0.03488372093023173,"midi":100,"time":61.604651162790695,"velocity":0.23622047244094488},{"duration":0.08139534883721211,"midi":103,"time":61.604651162790695,"velocity":0.25196850393700787},{"duration":0.046511627906973274,"midi":74,"time":61.616279069767444,"velocity":0.47244094488188976},{"duration":0.06976744186046346,"midi":78,"time":61.616279069767444,"velocity":0.2125984251968504},{"duration":0.023255813953483084,"midi":85,"time":61.616279069767444,"velocity":0.33070866141732286},{"duration":0.15116279069767558,"midi":89,"time":61.616279069767444,"velocity":0.3228346456692913},{"duration":0.12790697674418539,"midi":92,"time":61.616279069767444,"velocity":0.25984251968503935},{"duration":0.03488372093023173,"midi":96,"time":61.616279069767444,"velocity":0.2047244094488189},{"duration":0.02325581395349019,"midi":62,"time":61.627906976744185,"velocity":0.29133858267716534},{"duration":0.02325581395349019,"midi":80,"time":61.627906976744185,"velocity":0.23622047244094488},{"duration":0.011627906976748648,"midi":48,"time":61.63953488372093,"velocity":0.5118110236220472},{"duration":0.05813953488372192,"midi":66,"time":61.63953488372093,"velocity":0.1732283464566929},{"duration":0.011627906976741542,"midi":46,"time":61.651162790697676,"velocity":0.5669291338582677},{"duration":0.06976744186046346,"midi":56,"time":61.651162790697676,"velocity":0.2283464566929134},{"duration":0.1046511627906952,"midi":61,"time":61.651162790697676,"velocity":0.3228346456692913},{"duration":0.11627906976744384,"midi":85,"time":61.651162790697676,"velocity":0.2755905511811024},{"duration":0.011627906976748648,"midi":44,"time":61.66279069767442,"velocity":0.5826771653543307},{"duration":0.08139534883721211,"midi":73,"time":61.66279069767442,"velocity":0.44881889763779526},{"duration":0.08139534883721211,"midi":80,"time":61.66279069767442,"velocity":0.3937007874015748},{"duration":0.023255813953483084,"midi":42,"time":61.674418604651166,"velocity":0.5905511811023622},{"duration":0.4418604651162781,"midi":77,"time":61.674418604651166,"velocity":0.31496062992125984},{"duration":0.046511627906973274,"midi":102,"time":61.674418604651166,"velocity":0.2125984251968504},{"duration":0.05813953488372192,"midi":51,"time":61.68604651162791,"velocity":0.3228346456692913},{"duration":0.011627906976748648,"midi":41,"time":61.69767441860465,"velocity":0.5433070866141733},{"duration":0.05813953488372192,"midi":95,"time":61.7093023255814,"velocity":0.15748031496062992},{"duration":0.03488372093023173,"midi":103,"time":61.72093023255814,"velocity":0.25984251968503935},{"duration":0.17441860465116577,"midi":66,"time":61.73255813953488,"velocity":0.2440944881889764},{"duration":0.05813953488372192,"midi":74,"time":61.74418604651163,"velocity":0.4881889763779528},{"duration":0.05813953488372192,"midi":81,"time":61.74418604651163,"velocity":0.3937007874015748},{"duration":0.06976744186046346,"midi":100,"time":61.74418604651163,"velocity":0.3700787401574803},{"duration":0.03488372093023173,"midi":62,"time":61.75581395348837,"velocity":0.25196850393700787},{"duration":0.08139534883721211,"midi":102,"time":61.75581395348837,"velocity":0.2047244094488189},{"duration":0.023255813953483084,"midi":34,"time":61.76744186046512,"velocity":0.36220472440944884},{"duration":0.04651162790698038,"midi":44,"time":61.7906976744186,"velocity":0.14960629921259844},{"duration":0.05813953488372192,"midi":61,"time":61.7906976744186,"velocity":0.3858267716535433},{"duration":0.03488372093023173,"midi":89,"time":61.7906976744186,"velocity":0.3228346456692913},{"duration":0.03488372093023173,"midi":92,"time":61.7906976744186,"velocity":0.13385826771653545},{"duration":0.03488372093023173,"midi":101,"time":61.7906976744186,"velocity":0.33070866141732286},{"duration":0.023255813953483084,"midi":73,"time":61.80232558139535,"velocity":0.41732283464566927},{"duration":0.023255813953483084,"midi":80,"time":61.80232558139535,"velocity":0.3464566929133858},{"duration":0.03488372093023173,"midi":96,"time":61.81395348837209,"velocity":0.07874015748031496},{"duration":0.04651162790698038,"midi":72,"time":61.825581395348834,"velocity":0.4251968503937008},{"duration":0.03488372093023884,"midi":88,"time":61.825581395348834,"velocity":0.33070866141732286},{"duration":0.2093023255813975,"midi":100,"time":61.825581395348834,"velocity":0.4330708661417323},{"duration":0.03488372093023173,"midi":80,"time":61.83720930232558,"velocity":0.1889763779527559},{"duration":0.1860465116279073,"midi":70,"time":61.848837209302324,"velocity":0.2677165354330709},{"duration":0.023255813953483084,"midi":58,"time":61.86046511627907,"velocity":0.36220472440944884},{"duration":0.023255813953483084,"midi":61,"time":61.86046511627907,"velocity":0.29133858267716534},{"duration":0.09302325581395365,"midi":86,"time":61.872093023255815,"velocity":0.2440944881889764},{"duration":0.06976744186046346,"midi":99,"time":61.872093023255815,"velocity":0.23622047244094488},{"duration":0.08139534883721211,"midi":74,"time":61.883720930232556,"velocity":0.5354330708661418},{"duration":0.05813953488372192,"midi":83,"time":61.883720930232556,"velocity":0.2204724409448819},{"duration":0.03488372093023173,"midi":88,"time":61.883720930232556,"velocity":0.28346456692913385},{"duration":0.08139534883721211,"midi":90,"time":61.883720930232556,"velocity":0.25984251968503935},{"duration":0.04651162790698038,"midi":91,"time":61.883720930232556,"velocity":0.2677165354330709},{"duration":0.11627906976743674,"midi":58,"time":61.895348837209305,"velocity":0.28346456692913385},{"duration":0.13953488372092693,"midi":62,"time":61.895348837209305,"velocity":0.41732283464566927},{"duration":0.023255813953483084,"midi":76,"time":61.895348837209305,"velocity":0.25984251968503935},{"duration":0.03488372093023173,"midi":80,"time":61.895348837209305,"velocity":0.30708661417322836},{"duration":0.06976744186046346,"midi":93,"time":61.895348837209305,"velocity":0.13385826771653545},{"duration":0.06976744186046346,"midi":98,"time":61.895348837209305,"velocity":0.29133858267716534},{"duration":0.081395348837205,"midi":102,"time":61.895348837209305,"velocity":0.25984251968503935},{"duration":0.02325581395349019,"midi":45,"time":61.906976744186046,"velocity":0.41732283464566927},{"duration":0.13953488372092693,"midi":53,"time":61.906976744186046,"velocity":0.33858267716535434},{"duration":0.08139534883721211,"midi":68,"time":61.906976744186046,"velocity":0.2283464566929134},{"duration":0.04651162790698038,"midi":79,"time":61.906976744186046,"velocity":0.23622047244094488},{"duration":0.06976744186046346,"midi":81,"time":61.906976744186046,"velocity":0.2755905511811024},{"duration":0.08139534883721211,"midi":46,"time":61.94186046511628,"velocity":0.3228346456692913},{"duration":0.05813953488372192,"midi":85,"time":61.94186046511628,"velocity":0.2677165354330709},{"duration":0.023255813953483084,"midi":35,"time":61.95348837209303,"velocity":0.3779527559055118},{"duration":0.081395348837205,"midi":89,"time":61.95348837209303,"velocity":0.4566929133858268},{"duration":0.03488372093023173,"midi":73,"time":61.96511627906977,"velocity":0.49606299212598426},{"duration":0.02325581395349019,"midi":80,"time":61.96511627906977,"velocity":0.29133858267716534},{"duration":0.02325581395349019,"midi":97,"time":61.96511627906977,"velocity":0.2677165354330709},{"duration":0.046511627906973274,"midi":103,"time":61.96511627906977,"velocity":0.2204724409448819},{"duration":0.02325581395349019,"midi":34,"time":61.97674418604651,"velocity":0.3779527559055118},{"duration":0.1046511627906952,"midi":66,"time":61.98837209302326,"velocity":0.2283464566929134},{"duration":0.046511627906973274,"midi":81,"time":61.98837209302326,"velocity":0.33070866141732286},{"duration":0.046511627906973274,"midi":98,"time":61.98837209302326,"velocity":0.18110236220472442},{"duration":0.03488372093023173,"midi":74,"time":62,"velocity":0.5196850393700787},{"duration":0.046511627906973274,"midi":96,"time":62,"velocity":0.3228346456692913},{"duration":0.04651162790698038,"midi":34,"time":62.01162790697674,"velocity":0.2992125984251969},{"duration":0.03488372093023173,"midi":90,"time":62.01162790697674,"velocity":0.31496062992125984},{"duration":0.023255813953483084,"midi":72,"time":62.02325581395349,"velocity":0.25196850393700787},{"duration":0.15116279069767558,"midi":75,"time":62.03488372093023,"velocity":0.4881889763779528},{"duration":0.15116279069767558,"midi":82,"time":62.03488372093023,"velocity":0.3228346456692913},{"duration":0.2325581395348877,"midi":91,"time":62.03488372093023,"velocity":0.3228346456692913},{"duration":0.1046511627907023,"midi":97,"time":62.04651162790697,"velocity":0.3464566929133858},{"duration":0.02325581395349019,"midi":62,"time":62.05813953488372,"velocity":0.25196850393700787},{"duration":0.02325581395349019,"midi":73,"time":62.06976744186046,"velocity":0.33858267716535434},{"duration":0.03488372093023173,"midi":86,"time":62.06976744186046,"velocity":0.07086614173228346},{"duration":0.02325581395349019,"midi":61,"time":62.093023255813954,"velocity":0.25196850393700787},{"duration":0.02325581395349019,"midi":74,"time":62.093023255813954,"velocity":0.3543307086614173},{"duration":0.03488372093023173,"midi":100,"time":62.093023255813954,"velocity":0.18110236220472442},{"duration":0.04651162790698038,"midi":81,"time":62.104651162790695,"velocity":0.11811023622047244},{"duration":0.02325581395349019,"midi":61,"time":62.13953488372093,"velocity":0.4330708661417323},{"duration":0.03488372093023884,"midi":79,"time":62.13953488372093,"velocity":0.12598425196850394},{"duration":0.04651162790698038,"midi":100,"time":62.13953488372093,"velocity":0.1732283464566929},{"duration":0.1046511627907023,"midi":102,"time":62.13953488372093,"velocity":0.2204724409448819},{"duration":0.02325581395349019,"midi":66,"time":62.151162790697676,"velocity":0.3858267716535433},{"duration":0.05813953488372192,"midi":77,"time":62.151162790697676,"velocity":0.1732283464566929},{"duration":0.03488372093023173,"midi":80,"time":62.151162790697676,"velocity":0.16535433070866143},{"duration":0.03488372093023173,"midi":93,"time":62.151162790697676,"velocity":0.09448818897637795},{"duration":0.046511627906973274,"midi":96,"time":62.151162790697676,"velocity":0.13385826771653545},{"duration":0.03488372093023173,"midi":45,"time":62.16279069767442,"velocity":0.6141732283464567},{"duration":0.011627906976748648,"midi":53,"time":62.16279069767442,"velocity":0.5196850393700787},{"duration":0.03488372093023173,"midi":73,"time":62.16279069767442,"velocity":0.25984251968503935},{"duration":0.11627906976744384,"midi":90,"time":62.16279069767442,"velocity":0.2755905511811024},{"duration":0.03488372093023173,"midi":95,"time":62.174418604651166,"velocity":0.11811023622047244},{"duration":0.09302325581395365,"midi":97,"time":62.174418604651166,"velocity":0.2204724409448819},{"duration":0.046511627906973274,"midi":64,"time":62.18604651162791,"velocity":0.29133858267716534},{"duration":0.03488372093023173,"midi":83,"time":62.18604651162791,"velocity":0.3464566929133858},{"duration":0.011627906976748648,"midi":44,"time":62.19767441860465,"velocity":0.5905511811023622},{"duration":0.24418604651162923,"midi":70,"time":62.19767441860465,"velocity":0.25196850393700787},{"duration":0.03488372093023173,"midi":74,"time":62.19767441860465,"velocity":0.29133858267716534},{"duration":0.03488372093023173,"midi":88,"time":62.19767441860465,"velocity":0.29133858267716534},{"duration":0.023255813953483084,"midi":42,"time":62.2093023255814,"velocity":0.5748031496062992},{"duration":0.08139534883721211,"midi":75,"time":62.23255813953488,"velocity":0.36220472440944884},{"duration":0.02325581395349019,"midi":53,"time":62.24418604651163,"velocity":0.23622047244094488},{"duration":0.02325581395349019,"midi":37,"time":62.25581395348837,"velocity":0.4094488188976378},{"duration":0.06976744186046346,"midi":73,"time":62.26744186046512,"velocity":0.2047244094488189},{"duration":0.02325581395349019,"midi":36,"time":62.27906976744186,"velocity":0.33070866141732286},{"duration":0.05813953488372192,"midi":58,"time":62.2906976744186,"velocity":0.15748031496062992},{"duration":0.02325581395349019,"midi":66,"time":62.2906976744186,"velocity":0.23622047244094488},{"duration":0.03488372093023173,"midi":35,"time":62.30232558139535,"velocity":0.2204724409448819},{"duration":0.09302325581395365,"midi":87,"time":62.31395348837209,"velocity":0.18110236220472442},{"duration":0.13953488372093403,"midi":66,"time":62.325581395348834,"velocity":0.2677165354330709},{"duration":0.06976744186047057,"midi":77,"time":62.325581395348834,"velocity":0.2204724409448819},{"duration":0.081395348837205,"midi":74,"time":62.33720930232558,"velocity":0.25196850393700787},{"duration":0.03488372093023173,"midi":75,"time":62.33720930232558,"velocity":0.18110236220472442},{"duration":0.03488372093023173,"midi":97,"time":62.36046511627907,"velocity":0.10236220472440945},{"duration":0.05813953488372192,"midi":76,"time":62.372093023255815,"velocity":0.2047244094488189},{"duration":0.03488372093023173,"midi":91,"time":62.372093023255815,"velocity":0.08661417322834646},{"duration":0.06976744186046346,"midi":78,"time":62.406976744186046,"velocity":0.2677165354330709},{"duration":0.04651162790698038,"midi":81,"time":62.406976744186046,"velocity":0.11023622047244094},{"duration":0.06976744186046346,"midi":83,"time":62.406976744186046,"velocity":0.2755905511811024},{"duration":0.04651162790698038,"midi":85,"time":62.406976744186046,"velocity":0.1968503937007874},{"duration":0.05813953488372192,"midi":86,"time":62.406976744186046,"velocity":0.25196850393700787},{"duration":0.03488372093023173,"midi":89,"time":62.406976744186046,"velocity":0.14960629921259844},{"duration":0.11627906976744384,"midi":48,"time":62.41860465116279,"velocity":0.33070866141732286},{"duration":0.02325581395349019,"midi":73,"time":62.41860465116279,"velocity":0.2755905511811024},{"duration":0.03488372093023173,"midi":63,"time":62.43023255813954,"velocity":0.2204724409448819},{"duration":0.08139534883721211,"midi":71,"time":62.44186046511628,"velocity":0.1889763779527559},{"duration":0.023255813953483084,"midi":40,"time":62.45348837209303,"velocity":0.41732283464566927},{"duration":0.023255813953483084,"midi":73,"time":62.45348837209303,"velocity":0.2755905511811024},{"duration":0.02325581395349019,"midi":31,"time":62.5,"velocity":0.23622047244094488},{"duration":0.03488372093023173,"midi":41,"time":62.5,"velocity":0.2992125984251969},{"duration":0.03488372093023173,"midi":30,"time":62.52325581395349,"velocity":0.2440944881889764},{"duration":0.03488372093023173,"midi":66,"time":62.52325581395349,"velocity":0.14173228346456693},{"duration":0.02325581395349019,"midi":75,"time":62.53488372093023,"velocity":0.25984251968503935},{"duration":0.08139534883721211,"midi":70,"time":62.54651162790697,"velocity":0.1889763779527559},{"duration":0.03488372093023884,"midi":78,"time":62.54651162790697,"velocity":0.23622047244094488},{"duration":0.05813953488372192,"midi":83,"time":62.54651162790697,"velocity":0.2283464566929134},{"duration":0.03488372093023884,"midi":88,"time":62.54651162790697,"velocity":0.23622047244094488},{"duration":0.03488372093023884,"midi":89,"time":62.54651162790697,"velocity":0.14173228346456693},{"duration":0.03488372093023884,"midi":91,"time":62.54651162790697,"velocity":0.2204724409448819},{"duration":0.11627906976744384,"midi":58,"time":62.55813953488372,"velocity":0.3228346456692913},{"duration":0.05813953488372192,"midi":68,"time":62.55813953488372,"velocity":0.2125984251968504},{"duration":0.09302325581395365,"midi":76,"time":62.55813953488372,"velocity":0.30708661417322836},{"duration":0.08139534883721211,"midi":53,"time":62.56976744186046,"velocity":0.29133858267716534},{"duration":0.06976744186046346,"midi":62,"time":62.56976744186046,"velocity":0.25196850393700787},{"duration":0.06976744186046346,"midi":72,"time":62.56976744186046,"velocity":0.11811023622047244},{"duration":0.04651162790698038,"midi":79,"time":62.56976744186046,"velocity":0.2047244094488189},{"duration":0.04651162790698038,"midi":81,"time":62.56976744186046,"velocity":0.12598425196850394},{"duration":0.046511627906973274,"midi":46,"time":62.58139534883721,"velocity":0.3700787401574803},{"duration":0.05813953488372192,"midi":34,"time":62.627906976744185,"velocity":0.3779527559055118},{"duration":0.081395348837205,"midi":80,"time":62.674418604651166,"velocity":0.1889763779527559},{"duration":0.046511627906973274,"midi":83,"time":62.674418604651166,"velocity":0.1968503937007874},{"duration":0.03488372093023173,"midi":88,"time":62.674418604651166,"velocity":0.23622047244094488},{"duration":0.03488372093023173,"midi":90,"time":62.674418604651166,"velocity":0.16535433070866143},{"duration":0.058139534883714816,"midi":91,"time":62.674418604651166,"velocity":0.11023622047244094},{"duration":0.15116279069766847,"midi":94,"time":62.674418604651166,"velocity":0.18110236220472442},{"duration":0.03488372093023173,"midi":95,"time":62.674418604651166,"velocity":0.1968503937007874},{"duration":0.03488372093023173,"midi":98,"time":62.674418604651166,"velocity":0.16535433070866143},{"duration":0.11627906976744384,"midi":58,"time":62.68604651162791,"velocity":0.3543307086614173},{"duration":0.03488372093023173,"midi":74,"time":62.68604651162791,"velocity":0.23622047244094488},{"duration":0.08139534883721211,"midi":76,"time":62.68604651162791,"velocity":0.2755905511811024},{"duration":0.05813953488372192,"midi":79,"time":62.68604651162791,"velocity":0.14173228346456693},{"duration":0.011627906976748648,"midi":47,"time":62.69767441860465,"velocity":0.5748031496062992},{"duration":0.09302325581395365,"midi":68,"time":62.69767441860465,"velocity":0.1732283464566929},{"duration":0.2906976744186096,"midi":70,"time":62.69767441860465,"velocity":0.4409448818897638},{"duration":0.023255813953483084,"midi":45,"time":62.7093023255814,"velocity":0.6377952755905512},{"duration":0.25581395348837077,"midi":72,"time":62.7093023255814,"velocity":0.2677165354330709},{"duration":0.09302325581395365,"midi":53,"time":62.72093023255814,"velocity":0.30708661417322836},{"duration":0.2674418604651194,"midi":82,"time":62.72093023255814,"velocity":0.5039370078740157},{"duration":0.03488372093023884,"midi":42,"time":62.73255813953488,"velocity":0.5984251968503937},{"duration":0.2906976744186025,"midi":87,"time":62.74418604651163,"velocity":0.2204724409448819},{"duration":0.04651162790698038,"midi":63,"time":62.75581395348837,"velocity":0.2047244094488189},{"duration":0.011627906976741542,"midi":38,"time":62.76744186046512,"velocity":0.5118110236220472},{"duration":0.03488372093023173,"midi":91,"time":62.77906976744186,"velocity":0.08661417322834646},{"duration":0.03488372093023173,"midi":36,"time":62.7906976744186,"velocity":0.4251968503937008},{"duration":0.17441860465115866,"midi":80,"time":62.80232558139535,"velocity":0.16535433070866143},{"duration":0.03488372093023173,"midi":91,"time":62.83720930232558,"velocity":0.11023622047244094},{"duration":0.06976744186046346,"midi":60,"time":62.86046511627907,"velocity":0.1889763779527559},{"duration":0.03488372093023173,"midi":79,"time":62.86046511627907,"velocity":0.11023622047244094},{"duration":0.04651162790698038,"midi":68,"time":62.883720930232556,"velocity":0.11023622047244094},{"duration":0.03488372093023173,"midi":63,"time":62.895348837209305,"velocity":0.07874015748031496},{"duration":0.05813953488372192,"midi":89,"time":62.93023255813954,"velocity":0.2440944881889764},{"duration":0.1860465116279073,"midi":91,"time":62.93023255813954,"velocity":0.2047244094488189},{"duration":0.03488372093023173,"midi":98,"time":62.93023255813954,"velocity":0.14173228346456693},{"duration":0.08139534883721211,"midi":78,"time":62.94186046511628,"velocity":0.2125984251968504},{"duration":0.11627906976743674,"midi":51,"time":62.95348837209303,"velocity":0.30708661417322836},{"duration":0.06976744186046346,"midi":66,"time":62.95348837209303,"velocity":0.18110236220472442},{"duration":0.06976744186046346,"midi":74,"time":62.95348837209303,"velocity":0.25984251968503935},{"duration":0.1046511627906952,"midi":44,"time":62.96511627906977,"velocity":0.3779527559055118},{"duration":0.15116279069766847,"midi":68,"time":62.98837209302326,"velocity":0.23622047244094488},{"duration":0.03488372093023173,"midi":71,"time":62.98837209302326,"velocity":0.3779527559055118},{"duration":0.1046511627906952,"midi":75,"time":62.98837209302326,"velocity":0.2755905511811024},{"duration":0.081395348837205,"midi":79,"time":62.98837209302326,"velocity":0.10236220472440945},{"duration":0.03488372093023173,"midi":83,"time":62.98837209302326,"velocity":0.4566929133858268},{"duration":0.06976744186047057,"midi":60,"time":63.01162790697674,"velocity":0.33858267716535434},{"duration":0.03488372093023173,"midi":101,"time":63.01162790697674,"velocity":0.11023622047244094},{"duration":0.023255813953483084,"midi":33,"time":63.02325581395349,"velocity":0.29133858267716534},{"duration":0.2093023255813904,"midi":72,"time":63.02325581395349,"velocity":0.4566929133858268},{"duration":0.03488372093023173,"midi":77,"time":63.02325581395349,"velocity":0.11023622047244094},{"duration":0.05813953488372192,"midi":84,"time":63.02325581395349,"velocity":0.48031496062992124},{"duration":0.05813953488372192,"midi":100,"time":63.02325581395349,"velocity":0.2283464566929134},{"duration":0.03488372093023173,"midi":82,"time":63.03488372093023,"velocity":0.1889763779527559},{"duration":0.03488372093023884,"midi":32,"time":63.04651162790697,"velocity":0.2992125984251969},{"duration":0.02325581395349019,"midi":70,"time":63.05813953488372,"velocity":0.2283464566929134},{"duration":0.02325581395349019,"midi":78,"time":63.06976744186046,"velocity":0.2677165354330709},{"duration":0.04651162790698038,"midi":88,"time":63.06976744186046,"velocity":0.2283464566929134},{"duration":0.03488372093023173,"midi":92,"time":63.06976744186046,"velocity":0.10236220472440945},{"duration":0.023255813953483084,"midi":46,"time":63.08139534883721,"velocity":0.33070866141732286},{"duration":0.046511627906973274,"midi":83,"time":63.08139534883721,"velocity":0.2677165354330709},{"duration":0.02325581395349019,"midi":79,"time":63.093023255813954,"velocity":0.2677165354330709},{"duration":0.09302325581395365,"midi":53,"time":63.104651162790695,"velocity":0.29133858267716534},{"duration":0.081395348837205,"midi":46,"time":63.116279069767444,"velocity":0.2677165354330709},{"duration":0.02325581395349019,"midi":35,"time":63.127906976744185,"velocity":0.33070866141732286},{"duration":0.03488372093023173,"midi":79,"time":63.127906976744185,"velocity":0.12598425196850394},{"duration":0.08139534883721211,"midi":70,"time":63.13953488372093,"velocity":0.29133858267716534},{"duration":0.32558139534884134,"midi":75,"time":63.13953488372093,"velocity":0.2992125984251969},{"duration":0.05813953488372192,"midi":34,"time":63.151162790697676,"velocity":0.33858267716535434},{"duration":0.02325581395349019,"midi":60,"time":63.18604651162791,"velocity":0.36220472440944884},{"duration":0.03488372093023173,"midi":83,"time":63.18604651162791,"velocity":0.1968503937007874},{"duration":0.06976744186047057,"midi":102,"time":63.19767441860465,"velocity":0.25984251968503935},{"duration":0.03488372093023173,"midi":62,"time":63.2093023255814,"velocity":0.4015748031496063},{"duration":0.06976744186046346,"midi":88,"time":63.2093023255814,"velocity":0.2283464566929134},{"duration":0.081395348837205,"midi":90,"time":63.2093023255814,"velocity":0.2440944881889764},{"duration":0.046511627906973274,"midi":92,"time":63.2093023255814,"velocity":0.15748031496062992},{"duration":0.046511627906973274,"midi":93,"time":63.2093023255814,"velocity":0.18110236220472442},{"duration":0.081395348837205,"midi":94,"time":63.2093023255814,"velocity":0.11811023622047244},{"duration":0.046511627906973274,"midi":95,"time":63.2093023255814,"velocity":0.2047244094488189},{"duration":0.046511627906973274,"midi":97,"time":63.2093023255814,"velocity":0.1732283464566929},{"duration":0.05813953488372192,"midi":101,"time":63.2093023255814,"velocity":0.18110236220472442},{"duration":0.1046511627906952,"midi":89,"time":63.22093023255814,"velocity":0.25984251968503935},{"duration":0.011627906976748648,"midi":45,"time":63.23255813953488,"velocity":0.5354330708661418},{"duration":0.04651162790698038,"midi":68,"time":63.23255813953488,"velocity":0.11023622047244094},{"duration":0.03488372093023884,"midi":71,"time":63.23255813953488,"velocity":0.3779527559055118},{"duration":0.02325581395349019,"midi":44,"time":63.24418604651163,"velocity":0.6062992125984252},{"duration":0.22093023255813904,"midi":82,"time":63.24418604651163,"velocity":0.4330708661417323},{"duration":0.05813953488372192,"midi":103,"time":63.24418604651163,"velocity":0.2992125984251969},{"duration":0.06976744186046346,"midi":58,"time":63.25581395348837,"velocity":0.31496062992125984},{"duration":0.023255813953483084,"midi":42,"time":63.26744186046512,"velocity":0.5669291338582677},{"duration":0.09302325581395365,"midi":70,"time":63.26744186046512,"velocity":0.4015748031496063},{"duration":0.1860465116279073,"midi":77,"time":63.26744186046512,"velocity":0.29133858267716534},{"duration":0.03488372093023173,"midi":85,"time":63.26744186046512,"velocity":0.09448818897637795},{"duration":0.1860465116279073,"midi":72,"time":63.27906976744186,"velocity":0.2992125984251969},{"duration":0.3488372093023244,"midi":101,"time":63.2906976744186,"velocity":0.31496062992125984},{"duration":0.023255813953483084,"midi":53,"time":63.30232558139535,"velocity":0.23622047244094488},{"duration":0.03488372093023173,"midi":80,"time":63.30232558139535,"velocity":0.08661417322834646},{"duration":0.081395348837205,"midi":102,"time":63.30232558139535,"velocity":0.25984251968503935},{"duration":0.02325581395349019,"midi":37,"time":63.31395348837209,"velocity":0.4015748031496063},{"duration":0.02325581395349019,"midi":57,"time":63.325581395348834,"velocity":0.2992125984251969},{"duration":0.05813953488372192,"midi":86,"time":63.33720930232558,"velocity":0.1889763779527559},{"duration":0.03488372093023173,"midi":58,"time":63.348837209302324,"velocity":0.33858267716535434},{"duration":0.02325581395349019,"midi":62,"time":63.348837209302324,"velocity":0.23622047244094488},{"duration":0.08139534883721211,"midi":79,"time":63.348837209302324,"velocity":0.2677165354330709},{"duration":0.04651162790698038,"midi":83,"time":63.348837209302324,"velocity":0.18110236220472442},{"duration":0.12790697674418539,"midi":65,"time":63.36046511627907,"velocity":0.2440944881889764},{"duration":0.081395348837205,"midi":99,"time":63.36046511627907,"velocity":0.15748031496062992},{"duration":0.03488372093023173,"midi":49,"time":63.372093023255815,"velocity":0.2992125984251969},{"duration":0.11627906976744384,"midi":70,"time":63.372093023255815,"velocity":0.44881889763779526},{"duration":0.03488372093023173,"midi":57,"time":63.383720930232556,"velocity":0.4015748031496063},{"duration":0.09302325581395365,"midi":80,"time":63.383720930232556,"velocity":0.14960629921259844},{"duration":0.046511627906973274,"midi":37,"time":63.43023255813954,"velocity":0.2992125984251969},{"duration":0.02325581395349019,"midi":58,"time":63.44186046511628,"velocity":0.44881889763779526},{"duration":0.05813953488372192,"midi":100,"time":63.44186046511628,"velocity":0.2204724409448819},{"duration":0.09302325581395365,"midi":68,"time":63.46511627906977,"velocity":0.31496062992125984},{"duration":0.05813953488372192,"midi":76,"time":63.46511627906977,"velocity":0.1889763779527559},{"duration":0.05813953488372192,"midi":78,"time":63.46511627906977,"velocity":0.2204724409448819},{"duration":0.03488372093023173,"midi":83,"time":63.46511627906977,"velocity":0.4330708661417323},{"duration":0.11627906976744384,"midi":87,"time":63.46511627906977,"velocity":0.28346456692913385},{"duration":0.046511627906973274,"midi":93,"time":63.46511627906977,"velocity":0.23622047244094488},{"duration":0.03488372093023173,"midi":97,"time":63.46511627906977,"velocity":0.12598425196850394},{"duration":0.03488372093023173,"midi":102,"time":63.46511627906977,"velocity":0.33858267716535434},{"duration":0.04651162790698038,"midi":72,"time":63.47674418604651,"velocity":0.4566929133858268},{"duration":0.06976744186046346,"midi":81,"time":63.47674418604651,"velocity":0.2440944881889764},{"duration":0.04651162790698038,"midi":85,"time":63.47674418604651,"velocity":0.1732283464566929},{"duration":0.081395348837205,"midi":64,"time":63.48837209302326,"velocity":0.2125984251968504},{"duration":0.046511627906973274,"midi":79,"time":63.48837209302326,"velocity":0.2440944881889764},{"duration":0.11627906976744384,"midi":48,"time":63.5,"velocity":0.3700787401574803},{"duration":0.05813953488372192,"midi":55,"time":63.5,"velocity":0.31496062992125984},{"duration":0.06976744186046346,"midi":60,"time":63.5,"velocity":0.4015748031496063},{"duration":0.02325581395349019,"midi":103,"time":63.5,"velocity":0.25196850393700787},{"duration":0.06976744186047057,"midi":83,"time":63.51162790697674,"velocity":0.48031496062992124},{"duration":0.06976744186046346,"midi":75,"time":63.52325581395349,"velocity":0.18110236220472442},{"duration":0.046511627906973274,"midi":102,"time":63.52325581395349,"velocity":0.28346456692913385},{"duration":0.04651162790698038,"midi":36,"time":63.53488372093023,"velocity":0.3543307086614173},{"duration":0.03488372093023173,"midi":78,"time":63.53488372093023,"velocity":0.33858267716535434},{"duration":0.13953488372093403,"midi":70,"time":63.54651162790697,"velocity":0.41732283464566927},{"duration":0.1046511627906952,"midi":103,"time":63.55813953488372,"velocity":0.2283464566929134},{"duration":0.08139534883721211,"midi":58,"time":63.56976744186046,"velocity":0.31496062992125984},{"duration":0.04651162790698038,"midi":68,"time":63.56976744186046,"velocity":0.2992125984251969},{"duration":0.11627906976744384,"midi":77,"time":63.56976744186046,"velocity":0.36220472440944884},{"duration":0.15116279069767558,"midi":82,"time":63.56976744186046,"velocity":0.49606299212598426},{"duration":0.12790697674418539,"midi":86,"time":63.56976744186046,"velocity":0.2755905511811024},{"duration":0.03488372093023173,"midi":36,"time":63.593023255813954,"velocity":0.1889763779527559},{"duration":0.08139534883721211,"midi":75,"time":63.604651162790695,"velocity":0.28346456692913385},{"duration":0.06976744186047057,"midi":83,"time":63.604651162790695,"velocity":0.29133858267716534},{"duration":0.03488372093023173,"midi":68,"time":63.627906976744185,"velocity":0.29133858267716534},{"duration":0.1860465116279073,"midi":102,"time":63.66279069767442,"velocity":0.25984251968503935},{"duration":0.03488372093023173,"midi":58,"time":63.674418604651166,"velocity":0.2677165354330709},{"duration":0.046511627906973274,"midi":72,"time":63.674418604651166,"velocity":0.23622047244094488},{"duration":0.02325581395349019,"midi":69,"time":63.68604651162791,"velocity":0.33070866141732286},{"duration":0.02325581395349019,"midi":76,"time":63.68604651162791,"velocity":0.4015748031496063},{"duration":0.02325581395349019,"midi":83,"time":63.68604651162791,"velocity":0.2440944881889764},{"duration":0.05813953488372192,"midi":63,"time":63.69767441860465,"velocity":0.2283464566929134},{"duration":0.04651162790698038,"midi":84,"time":63.69767441860465,"velocity":0.25196850393700787},{"duration":0.05813953488372192,"midi":68,"time":63.7093023255814,"velocity":0.3543307086614173},{"duration":0.03488372093023173,"midi":75,"time":63.7093023255814,"velocity":0.48031496062992124},{"duration":0.03488372093023173,"midi":80,"time":63.7093023255814,"velocity":0.3700787401574803},{"duration":0.02325581395349019,"midi":56,"time":63.72093023255814,"velocity":0.36220472440944884},{"duration":0.08139534883721211,"midi":70,"time":63.72093023255814,"velocity":0.23622047244094488},{"duration":0.04651162790698038,"midi":81,"time":63.72093023255814,"velocity":0.13385826771653545},{"duration":0.03488372093023173,"midi":95,"time":63.72093023255814,"velocity":0.1968503937007874},{"duration":0.03488372093023173,"midi":103,"time":63.72093023255814,"velocity":0.14173228346456693},{"duration":0.04651162790698038,"midi":83,"time":63.73255813953488,"velocity":0.28346456692913385},{"duration":0.03488372093023173,"midi":74,"time":63.74418604651163,"velocity":0.4094488188976378},{"duration":0.03488372093023173,"midi":79,"time":63.74418604651163,"velocity":0.2125984251968504},{"duration":0.011627906976748648,"midi":48,"time":63.75581395348837,"velocity":0.5354330708661418},{"duration":0.1046511627907023,"midi":77,"time":63.75581395348837,"velocity":0.16535433070866143},{"duration":0.011627906976741542,"midi":45,"time":63.76744186046512,"velocity":0.6220472440944882},{"duration":0.38372093023254905,"midi":72,"time":63.76744186046512,"velocity":0.25196850393700787},{"duration":0.11627906976743674,"midi":82,"time":63.76744186046512,"velocity":0.29133858267716534},{"duration":0.011627906976741542,"midi":44,"time":63.77906976744186,"velocity":0.6220472440944882},{"duration":0.2906976744186025,"midi":68,"time":63.77906976744186,"velocity":0.3700787401574803},{"duration":0.09302325581395365,"midi":75,"time":63.77906976744186,"velocity":0.4566929133858268},{"duration":0.08139534883721211,"midi":84,"time":63.77906976744186,"velocity":0.3228346456692913},{"duration":0.011627906976748648,"midi":43,"time":63.7906976744186,"velocity":0.5984251968503937},{"duration":0.04651162790698038,"midi":56,"time":63.7906976744186,"velocity":0.3937007874015748},{"duration":0.011627906976741542,"midi":42,"time":63.80232558139535,"velocity":0.5669291338582677},{"duration":0.02325581395349019,"midi":37,"time":63.848837209302324,"velocity":0.3858267716535433},{"duration":0.03488372093023173,"midi":56,"time":63.848837209302324,"velocity":0.3543307086614173},{"duration":0.11627906976743674,"midi":83,"time":63.86046511627907,"velocity":0.3779527559055118},{"duration":0.11627906976743674,"midi":102,"time":63.86046511627907,"velocity":0.1968503937007874},{"duration":0.02325581395349019,"midi":36,"time":63.872093023255815,"velocity":0.30708661417322836},{"duration":0.046511627906973274,"midi":74,"time":63.872093023255815,"velocity":0.44881889763779526},{"duration":0.03488372093023173,"midi":77,"time":63.872093023255815,"velocity":0.10236220472440945},{"duration":0.03488372093023173,"midi":79,"time":63.872093023255815,"velocity":0.29133858267716534},{"duration":0.04651162790698038,"midi":81,"time":63.883720930232556,"velocity":0.2204724409448819},{"duration":0.16279069767441712,"midi":56,"time":63.895348837209305,"velocity":0.4330708661417323},{"duration":0.04651162790698038,"midi":70,"time":63.906976744186046,"velocity":0.2047244094488189},{"duration":0.13953488372093403,"midi":80,"time":63.906976744186046,"velocity":0.4094488188976378},{"duration":0.13953488372093403,"midi":75,"time":63.91860465116279,"velocity":0.49606299212598426},{"duration":0.03488372093023884,"midi":103,"time":63.91860465116279,"velocity":0.15748031496062992},{"duration":0.09302325581394655,"midi":84,"time":63.93023255813954,"velocity":0.29133858267716534},{"duration":0.06976744186045636,"midi":63,"time":63.95348837209303,"velocity":0.09448818897637795},{"duration":0.04651162790698038,"midi":82,"time":63.98837209302326,"velocity":0.13385826771653545},{"duration":0.034883720930224626,"midi":103,"time":63.98837209302326,"velocity":0.1889763779527559},{"duration":0.08139534883721922,"midi":83,"time":64.02325581395348,"velocity":0.3779527559055118},{"duration":0.04651162790696617,"midi":74,"time":64.04651162790698,"velocity":0.3779527559055118},{"duration":0.034883720930224626,"midi":79,"time":64.04651162790698,"velocity":0.1889763779527559},{"duration":0.034883720930224626,"midi":55,"time":64.05813953488372,"velocity":0.4409448818897638},{"duration":0.12790697674418539,"midi":68,"time":64.0813953488372,"velocity":0.33070866141732286},{"duration":0.06976744186046346,"midi":70,"time":64.0813953488372,"velocity":0.2125984251968504},{"duration":0.06976744186047767,"midi":56,"time":64.09302325581395,"velocity":0.47244094488188976},{"duration":0.05813953488372192,"midi":75,"time":64.09302325581395,"velocity":0.4645669291338583},{"duration":0.1279069767441996,"midi":77,"time":64.09302325581395,"velocity":0.1968503937007874},{"duration":0.11627906976744384,"midi":82,"time":64.1046511627907,"velocity":0.33858267716535434},{"duration":0.05813953488372192,"midi":81,"time":64.11627906976744,"velocity":0.41732283464566927},{"duration":0.03488372093023884,"midi":76,"time":64.13953488372093,"velocity":0.3937007874015748},{"duration":0.023255813953483084,"midi":57,"time":64.16279069767442,"velocity":0.48031496062992124},{"duration":0.09302325581394655,"midi":70,"time":64.16279069767442,"velocity":0.2125984251968504},{"duration":0.04651162790698038,"midi":75,"time":64.17441860465117,"velocity":0.4409448818897638},{"duration":0.034883720930224626,"midi":84,"time":64.17441860465117,"velocity":0.2047244094488189},{"duration":0.04651162790698038,"midi":56,"time":64.18604651162791,"velocity":0.4409448818897638},{"duration":0.06976744186046346,"midi":72,"time":64.19767441860465,"velocity":0.15748031496062992},{"duration":0.023255813953497295,"midi":67,"time":64.20930232558139,"velocity":0.29133858267716534},{"duration":0.023255813953483084,"midi":74,"time":64.22093023255815,"velocity":0.4015748031496063},{"duration":0.034883720930224626,"midi":81,"time":64.22093023255815,"velocity":0.2440944881889764},{"duration":0.023255813953483084,"midi":55,"time":64.23255813953489,"velocity":0.48031496062992124},{"duration":0.04651162790696617,"midi":68,"time":64.23255813953489,"velocity":0.3937007874015748},{"duration":0.09302325581394655,"midi":75,"time":64.24418604651163,"velocity":0.3937007874015748},{"duration":0.04651162790698038,"midi":83,"time":64.24418604651163,"velocity":0.2204724409448819},{"duration":0.03488372093023884,"midi":99,"time":64.25581395348837,"velocity":0.2047244094488189},{"duration":0.023255813953497295,"midi":60,"time":64.26744186046511,"velocity":0.4251968503937008},{"duration":0.03488372093023884,"midi":73,"time":64.26744186046511,"velocity":0.15748031496062992},{"duration":0.06976744186046346,"midi":88,"time":64.26744186046511,"velocity":0.2125984251968504},{"duration":0.08139534883721922,"midi":90,"time":64.26744186046511,"velocity":0.28346456692913385},{"duration":0.03488372093023884,"midi":93,"time":64.26744186046511,"velocity":0.14173228346456693},{"duration":0.06976744186046346,"midi":94,"time":64.26744186046511,"velocity":0.1889763779527559},{"duration":0.08139534883721922,"midi":96,"time":64.26744186046511,"velocity":0.16535433070866143},{"duration":0.06976744186046346,"midi":97,"time":64.26744186046511,"velocity":0.16535433070866143},{"duration":0.05813953488372192,"midi":98,"time":64.26744186046511,"velocity":0.11811023622047244},{"duration":0.05813953488372192,"midi":101,"time":64.26744186046511,"velocity":0.13385826771653545},{"duration":0.06976744186046346,"midi":103,"time":64.26744186046511,"velocity":0.16535433070866143},{"duration":0.03488372093023884,"midi":45,"time":64.27906976744185,"velocity":0.6220472440944882},{"duration":0.011627906976755753,"midi":52,"time":64.27906976744185,"velocity":0.5196850393700787},{"duration":0.08139534883721922,"midi":89,"time":64.27906976744185,"velocity":0.2283464566929134},{"duration":0.13953488372092693,"midi":68,"time":64.29069767441861,"velocity":0.33070866141732286},{"duration":0.04651162790696617,"midi":91,"time":64.29069767441861,"velocity":0.14173228346456693},{"duration":0.09302325581394655,"midi":72,"time":64.30232558139535,"velocity":0.1889763779527559},{"duration":0.011627906976741542,"midi":44,"time":64.31395348837209,"velocity":0.5984251968503937},{"duration":0.023255813953497295,"midi":42,"time":64.32558139534883,"velocity":0.5748031496062992},{"duration":0.06976744186046346,"midi":63,"time":64.32558139534883,"velocity":0.07874015748031496},{"duration":0.03488372093023884,"midi":76,"time":64.33720930232558,"velocity":0.13385826771653545},{"duration":0.05813953488372192,"midi":70,"time":64.36046511627907,"velocity":0.18110236220472442},{"duration":0.04651162790698038,"midi":75,"time":64.36046511627907,"velocity":0.4094488188976378},{"duration":0.023255813953483084,"midi":37,"time":64.37209302325581,"velocity":0.4094488188976378},{"duration":0.023255813953497295,"midi":36,"time":64.3953488372093,"velocity":0.3228346456692913},{"duration":0.03488372093023884,"midi":64,"time":64.3953488372093,"velocity":0.07874015748031496},{"duration":0.05813953488372192,"midi":83,"time":64.3953488372093,"velocity":0.2047244094488189},{"duration":0.034883720930224626,"midi":55,"time":64.40697674418605,"velocity":0.48031496062992124},{"duration":0.023255813953483084,"midi":74,"time":64.40697674418605,"velocity":0.3779527559055118},{"duration":0.11627906976744384,"midi":70,"time":64.43023255813954,"velocity":0.2440944881889764},{"duration":0.023255813953483084,"midi":75,"time":64.43023255813954,"velocity":0.36220472440944884},{"duration":0.06976744186046346,"midi":56,"time":64.44186046511628,"velocity":0.48031496062992124},{"duration":0.023255813953483084,"midi":74,"time":64.44186046511628,"velocity":0.29133858267716534},{"duration":0.03488372093023884,"midi":84,"time":64.45348837209302,"velocity":0.07086614173228346},{"duration":0.17441860465116577,"midi":75,"time":64.46511627906976,"velocity":0.33858267716535434},{"duration":0.04651162790698038,"midi":72,"time":64.48837209302326,"velocity":0.2204724409448819},{"duration":0.023255813953497295,"midi":55,"time":64.51162790697674,"velocity":0.3700787401574803},{"duration":0.09302325581396076,"midi":78,"time":64.52325581395348,"velocity":0.23622047244094488},{"duration":0.05813953488372192,"midi":80,"time":64.52325581395348,"velocity":0.2283464566929134},{"duration":0.1046511627907023,"midi":83,"time":64.52325581395348,"velocity":0.23622047244094488},{"duration":0.05813953488370771,"midi":56,"time":64.53488372093024,"velocity":0.4015748031496063},{"duration":0.04651162790696617,"midi":86,"time":64.53488372093024,"velocity":0.2283464566929134},{"duration":0.04651162790696617,"midi":63,"time":64.54651162790698,"velocity":0.1889763779527559},{"duration":0.04651162790698038,"midi":79,"time":64.55813953488372,"velocity":0.11023622047244094},{"duration":0.023255813953483084,"midi":40,"time":64.56976744186046,"velocity":0.3779527559055118},{"duration":0.09302325581396076,"midi":48,"time":64.59302325581395,"velocity":0.31496062992125984},{"duration":0.04651162790698038,"midi":65,"time":64.59302325581395,"velocity":0.11811023622047244},{"duration":0.034883720930224626,"midi":57,"time":64.61627906976744,"velocity":0.2440944881889764},{"duration":0.13953488372092693,"midi":68,"time":64.61627906976744,"velocity":0.23622047244094488},{"duration":0.03488372093023884,"midi":70,"time":64.62790697674419,"velocity":0.18110236220472442},{"duration":0.03488372093023884,"midi":30,"time":64.63953488372093,"velocity":0.2440944881889764},{"duration":0.09302325581394655,"midi":53,"time":64.66279069767442,"velocity":0.3464566929133858},{"duration":0.09302325581394655,"midi":62,"time":64.66279069767442,"velocity":0.2125984251968504},{"duration":0.04651162790696617,"midi":83,"time":64.66279069767442,"velocity":0.2047244094488189},{"duration":0.04651162790696617,"midi":88,"time":64.66279069767442,"velocity":0.16535433070866143},{"duration":0.034883720930224626,"midi":89,"time":64.66279069767442,"velocity":0.11811023622047244},{"duration":0.04651162790696617,"midi":91,"time":64.66279069767442,"velocity":0.1732283464566929},{"duration":0.04651162790698038,"midi":76,"time":64.67441860465117,"velocity":0.2204724409448819},{"duration":0.05813953488372192,"midi":79,"time":64.67441860465117,"velocity":0.2283464566929134},{"duration":0.023255813953483084,"midi":45,"time":64.68604651162791,"velocity":0.3858267716535433},{"duration":0.023255813953483084,"midi":58,"time":64.68604651162791,"velocity":0.28346456692913385},{"duration":0.05813953488372192,"midi":72,"time":64.69767441860465,"velocity":0.08661417322834646},{"duration":0.03488372093023884,"midi":77,"time":64.69767441860465,"velocity":0.07086614173228346},{"duration":0.03488372093023884,"midi":70,"time":64.70930232558139,"velocity":0.07874015748031496},{"duration":0.04651162790696617,"midi":58,"time":64.72093023255815,"velocity":0.2755905511811024},{"duration":0.023255813953483084,"midi":34,"time":64.74418604651163,"velocity":0.3543307086614173},{"duration":0.023255813953483084,"midi":47,"time":64.74418604651163,"velocity":0.2440944881889764},{"duration":0.08139534883721922,"midi":80,"time":64.76744186046511,"velocity":0.23622047244094488},{"duration":0.023255813953497295,"midi":34,"time":64.77906976744185,"velocity":0.2992125984251969},{"duration":0.22093023255813193,"midi":70,"time":64.79069767441861,"velocity":0.11023622047244094},{"duration":0.034883720930224626,"midi":74,"time":64.79069767441861,"velocity":0.28346456692913385},{"duration":0.034883720930224626,"midi":88,"time":64.79069767441861,"velocity":0.18110236220472442},{"duration":0.13953488372092693,"midi":89,"time":64.79069767441861,"velocity":0.2125984251968504},{"duration":0.034883720930224626,"midi":91,"time":64.79069767441861,"velocity":0.2283464566929134},{"duration":0.034883720930224626,"midi":96,"time":64.79069767441861,"velocity":0.16535433070866143},{"duration":0.034883720930224626,"midi":102,"time":64.79069767441861,"velocity":0.15748031496062992},{"duration":0.023255813953483084,"midi":63,"time":64.80232558139535,"velocity":0.29133858267716534},{"duration":0.05813953488372192,"midi":68,"time":64.80232558139535,"velocity":0.1968503937007874},{"duration":0.05813953488372192,"midi":79,"time":64.80232558139535,"velocity":0.2755905511811024},{"duration":0.011627906976741542,"midi":48,"time":64.81395348837209,"velocity":0.5669291338582677},{"duration":0.023255813953497295,"midi":45,"time":64.82558139534883,"velocity":0.6377952755905512},{"duration":0.023255813953497295,"midi":62,"time":64.82558139534883,"velocity":0.2283464566929134},{"duration":0.03488372093023884,"midi":65,"time":64.83720930232558,"velocity":0.1968503937007874},{"duration":0.011627906976741542,"midi":43,"time":64.84883720930233,"velocity":0.5984251968503937},{"duration":0.24418604651161502,"midi":61,"time":64.84883720930233,"velocity":0.2677165354330709},{"duration":0.011627906976741542,"midi":42,"time":64.86046511627907,"velocity":0.5354330708661418},{"duration":0.05813953488372192,"midi":53,"time":64.86046511627907,"velocity":0.31496062992125984},{"duration":0.17441860465116577,"midi":80,"time":64.86046511627907,"velocity":0.15748031496062992},{"duration":0.011627906976741542,"midi":41,"time":64.87209302325581,"velocity":0.5118110236220472},{"duration":0.03488372093023884,"midi":75,"time":64.8953488372093,"velocity":0.15748031496062992},{"duration":0.15116279069768268,"midi":78,"time":64.8953488372093,"velocity":0.1732283464566929},{"duration":0.023255813953483084,"midi":37,"time":64.9186046511628,"velocity":0.28346456692913385},{"duration":0.034883720930224626,"midi":66,"time":64.9186046511628,"velocity":0.2283464566929134},{"duration":0.09302325581396076,"midi":82,"time":64.94186046511628,"velocity":0.1889763779527559},{"duration":0.034883720930224626,"midi":65,"time":64.97674418604652,"velocity":0.23622047244094488},{"duration":0.06976744186046346,"midi":75,"time":64.97674418604652,"velocity":0.13385826771653545},{"duration":0.04651162790696617,"midi":89,"time":64.97674418604652,"velocity":0.14960629921259844},{"duration":0.04651162790698038,"midi":51,"time":64.98837209302326,"velocity":0.3464566929133858},{"duration":0.10465116279068809,"midi":84,"time":64.98837209302326,"velocity":0.11811023622047244},{"duration":0.03488372093023884,"midi":66,"time":65.01162790697674,"velocity":0.23622047244094488},{"duration":0.06976744186046346,"midi":85,"time":65.01162790697674,"velocity":0.25196850393700787},{"duration":0.04651162790696617,"midi":94,"time":65.03488372093024,"velocity":0.25196850393700787},{"duration":0.034883720930224626,"midi":100,"time":65.03488372093024,"velocity":0.07086614173228346},{"duration":0.034883720930224626,"midi":69,"time":65.04651162790698,"velocity":0.33070866141732286},{"duration":0.034883720930224626,"midi":77,"time":65.04651162790698,"velocity":0.2440944881889764},{"duration":0.06976744186046346,"midi":88,"time":65.04651162790698,"velocity":0.1968503937007874},{"duration":0.081395348837205,"midi":89,"time":65.04651162790698,"velocity":0.25984251968503935},{"duration":0.04651162790696617,"midi":93,"time":65.04651162790698,"velocity":0.2204724409448819},{"duration":0.04651162790696617,"midi":95,"time":65.04651162790698,"velocity":0.1968503937007874},{"duration":0.034883720930224626,"midi":96,"time":65.04651162790698,"velocity":0.1732283464566929},{"duration":0.09302325581394655,"midi":103,"time":65.04651162790698,"velocity":0.23622047244094488},{"duration":0.023255813953483084,"midi":55,"time":65.05813953488372,"velocity":0.4409448818897638},{"duration":0.081395348837205,"midi":66,"time":65.05813953488372,"velocity":0.2755905511811024},{"duration":0.04651162790698038,"midi":74,"time":65.05813953488372,"velocity":0.25196850393700787},{"duration":0.034883720930224626,"midi":87,"time":65.05813953488372,"velocity":0.15748031496062992},{"duration":0.034883720930224626,"midi":92,"time":65.05813953488372,"velocity":0.2204724409448819},{"duration":0.081395348837205,"midi":51,"time":65.06976744186046,"velocity":0.3228346456692913},{"duration":0.023255813953483084,"midi":90,"time":65.06976744186046,"velocity":0.2283464566929134},{"duration":0.11627906976744384,"midi":44,"time":65.0813953488372,"velocity":0.3779527559055118},{"duration":0.12790697674418539,"midi":70,"time":65.0813953488372,"velocity":0.47244094488188976},{"duration":0.22093023255814614,"midi":77,"time":65.09302325581395,"velocity":0.3779527559055118},{"duration":0.11627906976744384,"midi":82,"time":65.09302325581395,"velocity":0.49606299212598426},{"duration":0.11627906976744384,"midi":73,"time":65.1046511627907,"velocity":0.2440944881889764},{"duration":0.034883720930224626,"midi":75,"time":65.1046511627907,"velocity":0.07874015748031496},{"duration":0.06976744186046346,"midi":98,"time":65.1046511627907,"velocity":0.2283464566929134},{"duration":0.023255813953483084,"midi":58,"time":65.11627906976744,"velocity":0.3228346456692913},{"duration":0.023255813953497295,"midi":33,"time":65.13953488372093,"velocity":0.31496062992125984},{"duration":0.06976744186046346,"midi":100,"time":65.13953488372093,"velocity":0.1889763779527559},{"duration":0.05813953488372192,"midi":66,"time":65.15116279069767,"velocity":0.25196850393700787},{"duration":0.034883720930224626,"midi":32,"time":65.16279069767442,"velocity":0.31496062992125984},{"duration":0.023255813953483084,"midi":59,"time":65.16279069767442,"velocity":0.2440944881889764},{"duration":0.034883720930224626,"midi":75,"time":65.16279069767442,"velocity":0.15748031496062992},{"duration":0.034883720930224626,"midi":103,"time":65.16279069767442,"velocity":0.07874015748031496},{"duration":0.034883720930224626,"midi":101,"time":65.17441860465117,"velocity":0.10236220472440945},{"duration":0.03488372093023884,"midi":58,"time":65.18604651162791,"velocity":0.3228346456692913},{"duration":0.03488372093023884,"midi":79,"time":65.18604651162791,"velocity":0.25984251968503935},{"duration":0.04651162790698038,"midi":83,"time":65.18604651162791,"velocity":0.2283464566929134},{"duration":0.04651162790698038,"midi":88,"time":65.18604651162791,"velocity":0.1968503937007874},{"duration":0.03488372093023884,"midi":81,"time":65.20930232558139,"velocity":0.3228346456692913},{"duration":0.023255813953483084,"midi":53,"time":65.22093023255815,"velocity":0.33070866141732286},{"duration":0.04651162790696617,"midi":62,"time":65.22093023255815,"velocity":0.23622047244094488},{"duration":0.12790697674418539,"midi":66,"time":65.22093023255815,"velocity":0.4094488188976378},{"duration":0.04651162790696617,"midi":76,"time":65.22093023255815,"velocity":0.1968503937007874},{"duration":0.09302325581394655,"midi":46,"time":65.23255813953489,"velocity":0.2992125984251969},{"duration":0.034883720930224626,"midi":80,"time":65.23255813953489,"velocity":0.1889763779527559},{"duration":0.034883720930224626,"midi":35,"time":65.24418604651163,"velocity":0.3779527559055118},{"duration":0.023255813953483084,"midi":57,"time":65.24418604651163,"velocity":0.4015748031496063},{"duration":0.06976744186046346,"midi":70,"time":65.24418604651163,"velocity":0.2125984251968504},{"duration":0.1860465116279073,"midi":82,"time":65.24418604651163,"velocity":0.3543307086614173},{"duration":0.04651162790698038,"midi":34,"time":65.27906976744185,"velocity":0.3700787401574803},{"duration":0.03488372093023884,"midi":81,"time":65.27906976744185,"velocity":0.12598425196850394},{"duration":0.03488372093023884,"midi":86,"time":65.27906976744185,"velocity":0.08661417322834646},{"duration":0.17441860465116577,"midi":100,"time":65.27906976744185,"velocity":0.23622047244094488},{"duration":0.3488372093023173,"midi":73,"time":65.29069767441861,"velocity":0.30708661417322836},{"duration":0.15116279069766847,"midi":98,"time":65.29069767441861,"velocity":0.18110236220472442},{"duration":0.034883720930224626,"midi":61,"time":65.30232558139535,"velocity":0.4330708661417323},{"duration":0.03488372093023884,"midi":53,"time":65.31395348837209,"velocity":0.5039370078740157},{"duration":0.023255813953483084,"midi":57,"time":65.31395348837209,"velocity":0.4330708661417323},{"duration":0.15116279069766847,"midi":88,"time":65.31395348837209,"velocity":0.2204724409448819},{"duration":0.023255813953483084,"midi":90,"time":65.31395348837209,"velocity":0.2677165354330709},{"duration":0.081395348837205,"midi":92,"time":65.31395348837209,"velocity":0.2125984251968504},{"duration":0.06976744186046346,"midi":95,"time":65.31395348837209,"velocity":0.16535433070866143},{"duration":0.081395348837205,"midi":96,"time":65.31395348837209,"velocity":0.1968503937007874},{"duration":0.06976744186046346,"midi":97,"time":65.31395348837209,"velocity":0.1732283464566929},{"duration":0.081395348837205,"midi":99,"time":65.31395348837209,"velocity":0.1968503937007874},{"duration":0.12790697674418539,"midi":77,"time":65.32558139534883,"velocity":0.3858267716535433},{"duration":0.2906976744186096,"midi":86,"time":65.32558139534883,"velocity":0.3700787401574803},{"duration":0.08139534883721922,"midi":93,"time":65.32558139534883,"velocity":0.14173228346456693},{"duration":0.023255813953497295,"midi":60,"time":65.33720930232558,"velocity":0.2992125984251969},{"duration":0.04651162790698038,"midi":91,"time":65.33720930232558,"velocity":0.2440944881889764},{"duration":0.011627906976741542,"midi":45,"time":65.34883720930233,"velocity":0.5433070866141733},{"duration":0.30232558139533694,"midi":70,"time":65.34883720930233,"velocity":0.31496062992125984},{"duration":0.05813953488372192,"midi":90,"time":65.34883720930233,"velocity":0.16535433070866143},{"duration":0.023255813953483084,"midi":44,"time":65.36046511627907,"velocity":0.6141732283464567},{"duration":0.09302325581394655,"midi":58,"time":65.36046511627907,"velocity":0.2204724409448819},{"duration":0.023255813953497295,"midi":42,"time":65.38372093023256,"velocity":0.5669291338582677},{"duration":0.023255813953497295,"midi":52,"time":65.3953488372093,"velocity":0.2992125984251969},{"duration":0.06976744186046346,"midi":81,"time":65.3953488372093,"velocity":0.16535433070866143},{"duration":0.081395348837205,"midi":66,"time":65.40697674418605,"velocity":0.3464566929133858},{"duration":0.023255813953483084,"midi":37,"time":65.43023255813954,"velocity":0.4015748031496063},{"duration":0.03488372093023884,"midi":83,"time":65.44186046511628,"velocity":0.18110236220472442},{"duration":0.04651162790698038,"midi":91,"time":65.44186046511628,"velocity":0.15748031496062992},{"duration":0.023255813953497295,"midi":36,"time":65.45348837209302,"velocity":0.3228346456692913},{"duration":0.16279069767442422,"midi":61,"time":65.45348837209302,"velocity":0.41732283464566927},{"duration":0.03488372093023884,"midi":92,"time":65.45348837209302,"velocity":0.11023622047244094},{"duration":0.03488372093023884,"midi":96,"time":65.45348837209302,"velocity":0.07086614173228346},{"duration":0.023255813953497295,"midi":48,"time":65.46511627906976,"velocity":0.3543307086614173},{"duration":0.08139534883721922,"midi":77,"time":65.46511627906976,"velocity":0.2755905511811024},{"duration":0.05813953488372192,"midi":79,"time":65.46511627906976,"velocity":0.28346456692913385},{"duration":0.034883720930224626,"midi":56,"time":65.47674418604652,"velocity":0.2755905511811024},{"duration":0.081395348837205,"midi":75,"time":65.47674418604652,"velocity":0.11811023622047244},{"duration":0.034883720930224626,"midi":49,"time":65.48837209302326,"velocity":0.31496062992125984},{"duration":0.2325581395348877,"midi":66,"time":65.5,"velocity":0.3779527559055118},{"duration":0.04651162790698038,"midi":37,"time":65.51162790697674,"velocity":0.3858267716535433},{"duration":0.023255813953497295,"midi":57,"time":65.51162790697674,"velocity":0.29133858267716534},{"duration":0.03488372093023884,"midi":80,"time":65.52325581395348,"velocity":0.08661417322834646},{"duration":0.034883720930224626,"midi":56,"time":65.53488372093024,"velocity":0.2283464566929134},{"duration":0.04651162790698038,"midi":77,"time":65.5813953488372,"velocity":0.30708661417322836},{"duration":0.08139534883721922,"midi":81,"time":65.5813953488372,"velocity":0.2677165354330709},{"duration":0.04651162790698038,"midi":90,"time":65.5813953488372,"velocity":0.2047244094488189},{"duration":0.30232558139535115,"midi":91,"time":65.5813953488372,"velocity":0.3700787401574803},{"duration":0.33720930232559,"midi":94,"time":65.5813953488372,"velocity":0.36220472440944884},{"duration":0.03488372093023884,"midi":83,"time":65.59302325581395,"velocity":0.11811023622047244},{"duration":0.04651162790698038,"midi":88,"time":65.59302325581395,"velocity":0.15748031496062992},{"duration":0.25581395348837077,"midi":79,"time":65.6046511627907,"velocity":0.13385826771653545},{"duration":0.22093023255813193,"midi":84,"time":65.6046511627907,"velocity":0.14173228346456693},{"duration":0.27906976744185386,"midi":96,"time":65.6046511627907,"velocity":0.3779527559055118},{"duration":0.081395348837205,"midi":48,"time":65.61627906976744,"velocity":0.36220472440944884},{"duration":0.2325581395348877,"midi":60,"time":65.61627906976744,"velocity":0.4566929133858268},{"duration":0.081395348837205,"midi":55,"time":65.62790697674419,"velocity":0.2992125984251969},{"duration":0.22093023255814614,"midi":77,"time":65.63953488372093,"velocity":0.28346456692913385},{"duration":0.08139534883721922,"midi":36,"time":65.65116279069767,"velocity":0.3700787401574803},{"duration":0.22093023255814614,"midi":103,"time":65.65116279069767,"velocity":0.4094488188976378},{"duration":0.04651162790698038,"midi":101,"time":65.68604651162791,"velocity":0.14960629921259844},{"duration":0.081395348837205,"midi":65,"time":65.73255813953489,"velocity":0.14173228346456693},{"duration":0.24418604651162923,"midi":102,"time":65.73255813953489,"velocity":0.2755905511811024},{"duration":0.38372093023257037,"midi":70,"time":65.77906976744185,"velocity":0.2755905511811024},{"duration":0.05813953488372192,"midi":66,"time":65.80232558139535,"velocity":0.18110236220472442},{"duration":0.06976744186046346,"midi":100,"time":65.80232558139535,"velocity":0.28346456692913385},{"duration":0.03488372093023884,"midi":88,"time":65.83720930232558,"velocity":0.1889763779527559},{"duration":0.33720930232559,"midi":92,"time":65.83720930232558,"velocity":0.41732283464566927},{"duration":0.023255813953483084,"midi":61,"time":65.84883720930233,"velocity":0.4566929133858268},{"duration":0.034883720930224626,"midi":80,"time":65.84883720930233,"velocity":0.13385826771653545},{"duration":0.034883720930224626,"midi":86,"time":65.84883720930233,"velocity":0.2125984251968504},{"duration":0.034883720930224626,"midi":93,"time":65.84883720930233,"velocity":0.15748031496062992},{"duration":0.19767441860464885,"midi":95,"time":65.84883720930233,"velocity":0.4409448818897638},{"duration":0.19767441860464885,"midi":99,"time":65.84883720930233,"velocity":0.3228346456692913},{"duration":0.04651162790698038,"midi":81,"time":65.86046511627907,"velocity":0.2283464566929134},{"duration":0.17441860465116577,"midi":97,"time":65.86046511627907,"velocity":0.3228346456692913},{"duration":0.16279069767441,"midi":101,"time":65.86046511627907,"velocity":0.2283464566929134},{"duration":0.011627906976741542,"midi":47,"time":65.87209302325581,"velocity":0.5275590551181102},{"duration":0.03488372093023884,"midi":66,"time":65.87209302325581,"velocity":0.16535433070866143},{"duration":0.16279069767442422,"midi":77,"time":65.87209302325581,"velocity":0.2440944881889764},{"duration":0.011627906976741542,"midi":46,"time":65.88372093023256,"velocity":0.5748031496062992},{"duration":0.09302325581396076,"midi":56,"time":65.88372093023256,"velocity":0.2204724409448819},{"duration":0.03488372093023884,"midi":75,"time":65.88372093023256,"velocity":0.10236220472440945},{"duration":0.011627906976755753,"midi":44,"time":65.8953488372093,"velocity":0.5826771653543307},{"duration":0.08139534883721922,"midi":80,"time":65.8953488372093,"velocity":0.1732283464566929},{"duration":0.023255813953483084,"midi":42,"time":65.90697674418605,"velocity":0.5905511811023622},{"duration":0.10465116279068809,"midi":61,"time":65.90697674418605,"velocity":0.30708661417322836},{"duration":0.12790697674418539,"midi":51,"time":65.9186046511628,"velocity":0.33070866141732286},{"duration":0.011627906976741542,"midi":41,"time":65.93023255813954,"velocity":0.5433070866141733},{"duration":0.08139534883721922,"midi":94,"time":65.95348837209302,"velocity":0.13385826771653545},{"duration":0.10465116279068809,"midi":66,"time":65.97674418604652,"velocity":0.2440944881889764},{"duration":0.023255813953483084,"midi":103,"time":65.97674418604652,"velocity":0.2677165354330709},{"duration":0.023255813953483084,"midi":34,"time":66,"velocity":0.33858267716535434},{"duration":0.04651162790698038,"midi":44,"time":66.02325581395348,"velocity":0.12598425196850394},{"duration":0.081395348837205,"midi":77,"time":66.04651162790698,"velocity":0.1968503937007874},{"duration":0.15116279069766847,"midi":97,"time":66.05813953488372,"velocity":0.1732283464566929},{"duration":0.30232558139535115,"midi":73,"time":66.0813953488372,"velocity":0.3700787401574803},{"duration":0.023255813953483084,"midi":57,"time":66.1046511627907,"velocity":0.33070866141732286},{"duration":0.04651162790696617,"midi":66,"time":66.1046511627907,"velocity":0.2677165354330709},{"duration":0.05813953488372192,"midi":88,"time":66.1046511627907,"velocity":0.2283464566929134},{"duration":0.05813953488372192,"midi":91,"time":66.1046511627907,"velocity":0.2125984251968504},{"duration":0.06976744186046346,"midi":95,"time":66.1046511627907,"velocity":0.2992125984251969},{"duration":0.05813953488372192,"midi":99,"time":66.1046511627907,"velocity":0.11023622047244094},{"duration":0.081395348837205,"midi":79,"time":66.11627906976744,"velocity":0.2283464566929134},{"duration":0.04651162790698038,"midi":83,"time":66.11627906976744,"velocity":0.2125984251968504},{"duration":0.034883720930224626,"midi":86,"time":66.11627906976744,"velocity":0.11023622047244094},{"duration":0.13953488372092693,"midi":53,"time":66.12790697674419,"velocity":0.30708661417322836},{"duration":0.03488372093023884,"midi":68,"time":66.12790697674419,"velocity":0.2125984251968504},{"duration":0.081395348837205,"midi":76,"time":66.12790697674419,"velocity":0.2677165354330709},{"duration":0.1046511627907023,"midi":100,"time":66.12790697674419,"velocity":0.25196850393700787},{"duration":0.03488372093023884,"midi":102,"time":66.12790697674419,"velocity":0.14960629921259844},{"duration":0.023255813953497295,"midi":45,"time":66.13953488372093,"velocity":0.3937007874015748},{"duration":0.023255813953497295,"midi":59,"time":66.13953488372093,"velocity":0.48031496062992124},{"duration":0.03488372093023884,"midi":81,"time":66.13953488372093,"velocity":0.08661417322834646},{"duration":0.16279069767442422,"midi":98,"time":66.13953488372093,"velocity":0.2677165354330709},{"duration":0.17441860465116577,"midi":103,"time":66.13953488372093,"velocity":0.33070866141732286},{"duration":0.16279069767441,"midi":58,"time":66.16279069767442,"velocity":0.4409448818897638},{"duration":0.2093023255813904,"midi":66,"time":66.16279069767442,"velocity":0.2755905511811024},{"duration":0.023255813953483084,"midi":71,"time":66.16279069767442,"velocity":0.2283464566929134},{"duration":0.034883720930224626,"midi":77,"time":66.16279069767442,"velocity":0.13385826771653545},{"duration":0.09302325581394655,"midi":94,"time":66.16279069767442,"velocity":0.4094488188976378},{"duration":0.081395348837205,"midi":101,"time":66.16279069767442,"velocity":0.16535433070866143},{"duration":0.081395348837205,"midi":46,"time":66.17441860465117,"velocity":0.30708661417322836},{"duration":0.034883720930224626,"midi":96,"time":66.17441860465117,"velocity":0.08661417322834646},{"duration":0.04651162790698038,"midi":34,"time":66.19767441860465,"velocity":0.3700787401574803},{"duration":0.034883720930224626,"midi":77,"time":66.22093023255815,"velocity":0.09448818897637795},{"duration":0.09302325581394655,"midi":96,"time":66.23255813953489,"velocity":0.18110236220472442},{"duration":0.03488372093023884,"midi":34,"time":66.25581395348837,"velocity":0.2125984251968504},{"duration":0.15116279069768268,"midi":77,"time":66.26744186046511,"velocity":0.2125984251968504},{"duration":0.06976744186046346,"midi":94,"time":66.26744186046511,"velocity":0.23622047244094488},{"duration":0.023255813953497295,"midi":57,"time":66.32558139534883,"velocity":0.49606299212598426},{"duration":0.023255813953483084,"midi":74,"time":66.37209302325581,"velocity":0.2283464566929134},{"duration":0.04651162790698038,"midi":87,"time":66.37209302325581,"velocity":0.33070866141732286},{"duration":0.09302325581394655,"midi":88,"time":66.37209302325581,"velocity":0.28346456692913385},{"duration":0.05813953488372192,"midi":96,"time":66.37209302325581,"velocity":0.2204724409448819},{"duration":0.03488372093023884,"midi":97,"time":66.37209302325581,"velocity":0.1968503937007874},{"duration":0.11627906976744384,"midi":98,"time":66.37209302325581,"velocity":0.33070866141732286},{"duration":0.11627906976744384,"midi":101,"time":66.37209302325581,"velocity":0.2204724409448819},{"duration":0.09302325581394655,"midi":102,"time":66.37209302325581,"velocity":0.1968503937007874},{"duration":0.023255813953497295,"midi":53,"time":66.38372093023256,"velocity":0.5039370078740157},{"duration":0.023255813953497295,"midi":69,"time":66.38372093023256,"velocity":0.29133858267716534},{"duration":0.04651162790698038,"midi":80,"time":66.38372093023256,"velocity":0.1732283464566929},{"duration":0.03488372093023884,"midi":84,"time":66.38372093023256,"velocity":0.23622047244094488},{"duration":0.09302325581396076,"midi":90,"time":66.38372093023256,"velocity":0.25984251968503935},{"duration":0.05813953488372192,"midi":91,"time":66.38372093023256,"velocity":0.1889763779527559},{"duration":0.03488372093023884,"midi":45,"time":66.3953488372093,"velocity":0.6141732283464567},{"duration":0.023255813953497295,"midi":60,"time":66.3953488372093,"velocity":0.29133858267716534},{"duration":0.023255813953497295,"midi":75,"time":66.3953488372093,"velocity":0.28346456692913385},{"duration":0.06976744186046346,"midi":85,"time":66.3953488372093,"velocity":0.30708661417322836},{"duration":0.023255813953483084,"midi":68,"time":66.40697674418605,"velocity":0.2440944881889764},{"duration":0.05813953488372192,"midi":66,"time":66.4186046511628,"velocity":0.14960629921259844},{"duration":0.04651162790696617,"midi":76,"time":66.4186046511628,"velocity":0.3700787401574803},{"duration":0.04651162790696617,"midi":95,"time":66.4186046511628,"velocity":0.10236220472440945},{"duration":0.011627906976741542,"midi":43,"time":66.43023255813954,"velocity":0.5826771653543307},{"duration":0.19767441860464885,"midi":77,"time":66.43023255813954,"velocity":0.2677165354330709},{"duration":0.034883720930224626,"midi":81,"time":66.43023255813954,"velocity":0.2204724409448819},{"duration":0.034883720930224626,"midi":82,"time":66.43023255813954,"velocity":0.11023622047244094},{"duration":0.023255813953483084,"midi":42,"time":66.44186046511628,"velocity":0.5669291338582677},{"duration":0.023255813953483084,"midi":56,"time":66.44186046511628,"velocity":0.3779527559055118},{"duration":0.03488372093023884,"midi":73,"time":66.44186046511628,"velocity":0.13385826771653545},{"duration":0.04651162790698038,"midi":84,"time":66.45348837209302,"velocity":0.29133858267716534},{"duration":0.023255813953497295,"midi":57,"time":66.46511627906976,"velocity":0.36220472440944884},{"duration":0.1046511627907023,"midi":68,"time":66.46511627906976,"velocity":0.2755905511811024},{"duration":0.09302325581396076,"midi":75,"time":66.46511627906976,"velocity":0.4409448818897638},{"duration":0.1046511627907023,"midi":80,"time":66.46511627906976,"velocity":0.2755905511811024},{"duration":0.023255813953483084,"midi":37,"time":66.48837209302326,"velocity":0.3937007874015748},{"duration":0.023255813953483084,"midi":83,"time":66.5,"velocity":0.2677165354330709},{"duration":0.023255813953497295,"midi":36,"time":66.51162790697674,"velocity":0.31496062992125984},{"duration":0.04651162790698038,"midi":84,"time":66.52325581395348,"velocity":0.29133858267716534},{"duration":0.09302325581394655,"midi":73,"time":66.53488372093024,"velocity":0.1889763779527559},{"duration":0.081395348837205,"midi":98,"time":66.53488372093024,"velocity":0.2047244094488189},{"duration":0.023255813953483084,"midi":56,"time":66.54651162790698,"velocity":0.4094488188976378},{"duration":0.04651162790696617,"midi":66,"time":66.54651162790698,"velocity":0.23622047244094488},{"duration":0.16279069767441,"midi":90,"time":66.54651162790698,"velocity":0.2047244094488189},{"duration":0.05813953488372192,"midi":101,"time":66.54651162790698,"velocity":0.16535433070866143},{"duration":0.034883720930224626,"midi":76,"time":66.55813953488372,"velocity":0.36220472440944884},{"duration":0.04651162790698038,"midi":88,"time":66.55813953488372,"velocity":0.4094488188976378},{"duration":0.023255813953483084,"midi":57,"time":66.56976744186046,"velocity":0.3543307086614173},{"duration":0.023255813953483084,"midi":85,"time":66.56976744186046,"velocity":0.33070866141732286},{"duration":0.03488372093023884,"midi":51,"time":66.5813953488372,"velocity":0.14960629921259844},{"duration":0.06976744186047767,"midi":56,"time":66.59302325581395,"velocity":0.4015748031496063},{"duration":0.08139534883721922,"midi":75,"time":66.59302325581395,"velocity":0.4330708661417323},{"duration":0.17441860465116577,"midi":84,"time":66.59302325581395,"velocity":0.2440944881889764},{"duration":0.05813953488372192,"midi":100,"time":66.6046511627907,"velocity":0.1889763779527559},{"duration":0.034883720930224626,"midi":88,"time":66.61627906976744,"velocity":0.12598425196850394},{"duration":0.04651162790698038,"midi":89,"time":66.62790697674419,"velocity":0.12598425196850394},{"duration":0.03488372093023884,"midi":73,"time":66.63953488372093,"velocity":0.16535433070866143},{"duration":0.03488372093023884,"midi":91,"time":66.63953488372093,"velocity":0.18110236220472442},{"duration":0.03488372093023884,"midi":45,"time":66.65116279069767,"velocity":0.3779527559055118},{"duration":0.023255813953497295,"midi":58,"time":66.65116279069767,"velocity":0.28346456692913385},{"duration":0.023255813953483084,"midi":53,"time":66.66279069767442,"velocity":0.3228346456692913},{"duration":0.04651162790696617,"midi":79,"time":66.66279069767442,"velocity":0.2125984251968504},{"duration":0.09302325581394655,"midi":101,"time":66.66279069767442,"velocity":0.2204724409448819},{"duration":0.034883720930224626,"midi":72,"time":66.67441860465117,"velocity":0.13385826771653545},{"duration":0.034883720930224626,"midi":77,"time":66.67441860465117,"velocity":0.2283464566929134},{"duration":0.04651162790698038,"midi":46,"time":66.68604651162791,"velocity":0.30708661417322836},{"duration":0.05813953488372192,"midi":88,"time":66.68604651162791,"velocity":0.2283464566929134},{"duration":0.04651162790698038,"midi":100,"time":66.68604651162791,"velocity":0.2283464566929134},{"duration":0.023255813953497295,"midi":69,"time":66.69767441860465,"velocity":0.2283464566929134},{"duration":0.05813953488372192,"midi":75,"time":66.69767441860465,"velocity":0.25984251968503935},{"duration":0.023255813953497295,"midi":35,"time":66.70930232558139,"velocity":0.3700787401574803},{"duration":0.023255813953497295,"midi":57,"time":66.70930232558139,"velocity":0.41732283464566927},{"duration":0.04651162790696617,"midi":68,"time":66.72093023255815,"velocity":0.28346456692913385},{"duration":0.04651162790696617,"midi":34,"time":66.73255813953489,"velocity":0.36220472440944884},{"duration":0.034883720930224626,"midi":56,"time":66.73255813953489,"velocity":0.3700787401574803},{"duration":0.04651162790698038,"midi":76,"time":66.75581395348837,"velocity":0.2440944881889764},{"duration":0.04651162790698038,"midi":91,"time":66.76744186046511,"velocity":0.1968503937007874},{"duration":0.06976744186047767,"midi":62,"time":66.77906976744185,"velocity":0.15748031496062992},{"duration":0.05813953488372192,"midi":79,"time":66.77906976744185,"velocity":0.1968503937007874},{"duration":0.08139534883721922,"midi":80,"time":66.77906976744185,"velocity":0.15748031496062992},{"duration":0.06976744186047767,"midi":83,"time":66.77906976744185,"velocity":0.14173228346456693},{"duration":0.05813953488372192,"midi":53,"time":66.79069767441861,"velocity":0.2440944881889764},{"duration":0.13953488372092693,"midi":68,"time":66.79069767441861,"velocity":0.2755905511811024},{"duration":0.11627906976744384,"midi":75,"time":66.80232558139535,"velocity":0.2283464566929134},{"duration":0.023255813953483084,"midi":46,"time":66.81395348837209,"velocity":0.25984251968503935},{"duration":0.04651162790698038,"midi":84,"time":66.82558139534883,"velocity":0.11811023622047244},{"duration":0.03488372093023884,"midi":47,"time":66.83720930232558,"velocity":0.1968503937007874},{"duration":0.04651162790698038,"midi":34,"time":66.86046511627907,"velocity":0.29133858267716534},{"duration":0.04651162790698038,"midi":56,"time":66.87209302325581,"velocity":0.29133858267716534},{"duration":0.06976744186046346,"midi":81,"time":66.90697674418605,"velocity":0.1968503937007874},{"duration":0.034883720930224626,"midi":88,"time":66.90697674418605,"velocity":0.12598425196850394},{"duration":0.034883720930224626,"midi":97,"time":66.90697674418605,"velocity":0.15748031496062992},{"duration":0.034883720930224626,"midi":72,"time":66.9186046511628,"velocity":0.1889763779527559},{"duration":0.04651162790696617,"midi":76,"time":66.9186046511628,"velocity":0.1889763779527559},{"duration":0.034883720930224626,"midi":82,"time":66.9186046511628,"velocity":0.15748031496062992},{"duration":0.011627906976741542,"midi":48,"time":66.93023255813954,"velocity":0.5354330708661418},{"duration":0.09302325581394655,"midi":69,"time":66.93023255813954,"velocity":0.2440944881889764},{"duration":0.011627906976741542,"midi":45,"time":66.94186046511628,"velocity":0.6220472440944882},{"duration":0.25581395348837077,"midi":73,"time":66.94186046511628,"velocity":0.1968503937007874},{"duration":0.011627906976741542,"midi":44,"time":66.95348837209302,"velocity":0.6299212598425197},{"duration":0.023255813953497295,"midi":43,"time":66.96511627906976,"velocity":0.5905511811023622},{"duration":0.3139534883720927,"midi":77,"time":66.96511627906976,"velocity":0.28346456692913385},{"duration":0.06976744186046346,"midi":58,"time":66.97674418604652,"velocity":0.1732283464566929},{"duration":0.16279069767441,"midi":65,"time":66.98837209302326,"velocity":0.30708661417322836},{"duration":0.023255813953497295,"midi":35,"time":67.02325581395348,"velocity":0.3228346456692913},{"duration":0.13953488372094114,"midi":61,"time":67.02325581395348,"velocity":0.1732283464566929},{"duration":0.023255813953483084,"midi":36,"time":67.05813953488372,"velocity":0.3464566929133858},{"duration":0.04651162790698038,"midi":70,"time":67.12790697674419,"velocity":0.11811023622047244},{"duration":0.034883720930224626,"midi":83,"time":67.16279069767442,"velocity":0.18110236220472442},{"duration":0.034883720930224626,"midi":94,"time":67.16279069767442,"velocity":0.10236220472440945},{"duration":0.034883720930224626,"midi":103,"time":67.16279069767442,"velocity":0.15748031496062992},{"duration":0.023255813953483084,"midi":79,"time":67.17441860465117,"velocity":0.25196850393700787},{"duration":0.034883720930224626,"midi":81,"time":67.17441860465117,"velocity":0.2204724409448819},{"duration":0.081395348837205,"midi":84,"time":67.17441860465117,"velocity":0.2125984251968504},{"duration":0.1860465116279073,"midi":87,"time":67.17441860465117,"velocity":0.48031496062992124},{"duration":0.023255813953483084,"midi":90,"time":67.17441860465117,"velocity":0.2440944881889764},{"duration":0.03488372093023884,"midi":67,"time":67.18604651162791,"velocity":0.4251968503937008},{"duration":0.03488372093023884,"midi":72,"time":67.18604651162791,"velocity":0.2204724409448819},{"duration":0.03488372093023884,"midi":91,"time":67.18604651162791,"velocity":0.2677165354330709},{"duration":0.05813953488372192,"midi":80,"time":67.19767441860465,"velocity":0.3543307086614173},{"duration":0.023255813953497295,"midi":38,"time":67.20930232558139,"velocity":0.3700787401574803},{"duration":0.023255813953497295,"midi":55,"time":67.20930232558139,"velocity":0.2440944881889764},{"duration":0.034883720930224626,"midi":65,"time":67.22093023255815,"velocity":0.16535433070866143},{"duration":0.09302325581394655,"midi":68,"time":67.22093023255815,"velocity":0.3779527559055118},{"duration":0.09302325581394655,"midi":73,"time":67.22093023255815,"velocity":0.23622047244094488},{"duration":0.06976744186046346,"midi":58,"time":67.23255813953489,"velocity":0.16535433070866143},{"duration":0.023255813953483084,"midi":39,"time":67.24418604651163,"velocity":0.33858267716535434},{"duration":0.04651162790696617,"midi":65,"time":67.29069767441861,"velocity":0.2755905511811024},{"duration":0.04651162790696617,"midi":101,"time":67.29069767441861,"velocity":0.16535433070866143},{"duration":0.034883720930224626,"midi":78,"time":67.30232558139535,"velocity":0.18110236220472442},{"duration":0.034883720930224626,"midi":88,"time":67.30232558139535,"velocity":0.12598425196850394},{"duration":0.05813953488372192,"midi":69,"time":67.31395348837209,"velocity":0.25196850393700787},{"duration":0.04651162790698038,"midi":72,"time":67.31395348837209,"velocity":0.23622047244094488},{"duration":0.04651162790698038,"midi":76,"time":67.31395348837209,"velocity":0.2204724409448819},{"duration":0.03488372093023884,"midi":86,"time":67.31395348837209,"velocity":0.2440944881889764},{"duration":0.04651162790698038,"midi":89,"time":67.31395348837209,"velocity":0.14173228346456693},{"duration":0.023255813953497295,"midi":38,"time":67.32558139534883,"velocity":0.28346456692913385},{"duration":0.03488372093023884,"midi":55,"time":67.32558139534883,"velocity":0.28346456692913385},{"duration":0.03488372093023884,"midi":61,"time":67.32558139534883,"velocity":0.25196850393700787},{"duration":0.04651162790698038,"midi":65,"time":67.36046511627907,"velocity":0.3228346456692913},{"duration":0.06976744186046346,"midi":73,"time":67.36046511627907,"velocity":0.15748031496062992},{"duration":0.023255813953483084,"midi":68,"time":67.37209302325581,"velocity":0.25196850393700787},{"duration":0.03488372093023884,"midi":58,"time":67.3953488372093,"velocity":0.1889763779527559},{"duration":0.06976744186046346,"midi":68,"time":67.40697674418605,"velocity":0.48031496062992124},{"duration":0.034883720930224626,"midi":87,"time":67.40697674418605,"velocity":0.11811023622047244},{"duration":0.06976744186046346,"midi":102,"time":67.40697674418605,"velocity":0.1732283464566929},{"duration":0.10465116279068809,"midi":100,"time":67.4186046511628,"velocity":0.30708661417322836},{"duration":0.04651162790698038,"midi":77,"time":67.43023255813954,"velocity":0.11811023622047244},{"duration":0.034883720930224626,"midi":79,"time":67.43023255813954,"velocity":0.1732283464566929},{"duration":0.04651162790698038,"midi":86,"time":67.43023255813954,"velocity":0.2125984251968504},{"duration":0.09302325581394655,"midi":89,"time":67.43023255813954,"velocity":0.23622047244094488},{"duration":0.081395348837205,"midi":90,"time":67.43023255813954,"velocity":0.28346456692913385},{"duration":0.034883720930224626,"midi":92,"time":67.43023255813954,"velocity":0.2047244094488189},{"duration":0.081395348837205,"midi":97,"time":67.43023255813954,"velocity":0.11811023622047244},{"duration":0.06976744186046346,"midi":99,"time":67.43023255813954,"velocity":0.15748031496062992},{"duration":0.06976744186046346,"midi":101,"time":67.43023255813954,"velocity":0.2440944881889764},{"duration":0.05813953488372192,"midi":103,"time":67.43023255813954,"velocity":0.1889763779527559},{"duration":0.06976744186046346,"midi":93,"time":67.44186046511628,"velocity":0.2204724409448819},{"duration":0.05813953488372192,"midi":94,"time":67.44186046511628,"velocity":0.1732283464566929},{"duration":0.081395348837205,"midi":95,"time":67.44186046511628,"velocity":0.10236220472440945},{"duration":0.023255813953497295,"midi":45,"time":67.45348837209302,"velocity":0.5669291338582677},{"duration":0.04651162790698038,"midi":83,"time":67.45348837209302,"velocity":0.11023622047244094},{"duration":0.08139534883721922,"midi":88,"time":67.45348837209302,"velocity":0.36220472440944884},{"duration":0.03488372093023884,"midi":96,"time":67.45348837209302,"velocity":0.09448818897637795},{"duration":0.011627906976741542,"midi":44,"time":67.47674418604652,"velocity":0.6141732283464567},{"duration":0.034883720930224626,"midi":69,"time":67.47674418604652,"velocity":0.31496062992125984},{"duration":0.034883720930224626,"midi":87,"time":67.47674418604652,"velocity":0.14960629921259844},{"duration":0.011627906976741542,"midi":43,"time":67.48837209302326,"velocity":0.5905511811023622},{"duration":0.011627906976741542,"midi":42,"time":67.5,"velocity":0.5748031496062992},{"duration":0.03488372093023884,"midi":85,"time":67.5,"velocity":0.09448818897637795},{"duration":0.011627906976741542,"midi":41,"time":67.51162790697674,"velocity":0.5118110236220472},{"duration":0.023255813953497295,"midi":52,"time":67.51162790697674,"velocity":0.25984251968503935},{"duration":0.081395348837205,"midi":68,"time":67.51162790697674,"velocity":0.4409448818897638},{"duration":0.03488372093023884,"midi":92,"time":67.51162790697674,"velocity":0.1968503937007874},{"duration":0.023255813953497295,"midi":99,"time":67.52325581395348,"velocity":0.2440944881889764},{"duration":0.05813953488370771,"midi":101,"time":67.53488372093024,"velocity":0.16535433070866143},{"duration":0.023255813953483084,"midi":37,"time":67.54651162790698,"velocity":0.4015748031496063},{"duration":0.04651162790696617,"midi":88,"time":67.54651162790698,"velocity":0.07874015748031496},{"duration":0.023255813953483084,"midi":65,"time":67.55813953488372,"velocity":0.28346456692913385},{"duration":0.03488372093023884,"midi":73,"time":67.56976744186046,"velocity":0.1968503937007874},{"duration":0.03488372093023884,"midi":75,"time":67.56976744186046,"velocity":0.07086614173228346},{"duration":0.03488372093023884,"midi":82,"time":67.56976744186046,"velocity":0.2047244094488189},{"duration":0.03488372093023884,"midi":87,"time":67.56976744186046,"velocity":0.2047244094488189},{"duration":0.04651162790698038,"midi":76,"time":67.5813953488372,"velocity":0.2125984251968504},{"duration":0.03488372093023884,"midi":84,"time":67.5813953488372,"velocity":0.2047244094488189},{"duration":0.03488372093023884,"midi":61,"time":67.59302325581395,"velocity":0.13385826771653545},{"duration":0.04651162790698038,"midi":69,"time":67.59302325581395,"velocity":0.2992125984251969},{"duration":0.081395348837205,"midi":63,"time":67.6046511627907,"velocity":0.18110236220472442},{"duration":0.034883720930224626,"midi":72,"time":67.61627906976744,"velocity":0.14960629921259844},{"duration":0.03488372093023884,"midi":51,"time":67.63953488372093,"velocity":0.2992125984251969},{"duration":0.03488372093023884,"midi":68,"time":67.63953488372093,"velocity":0.28346456692913385},{"duration":0.10465116279068809,"midi":81,"time":67.66279069767442,"velocity":0.23622047244094488},{"duration":0.09302325581394655,"midi":88,"time":67.66279069767442,"velocity":0.41732283464566927},{"duration":0.034883720930224626,"midi":69,"time":67.67441860465117,"velocity":0.2204724409448819},{"duration":0.04651162790698038,"midi":101,"time":67.68604651162791,"velocity":0.2125984251968504},{"duration":0.081395348837205,"midi":102,"time":67.68604651162791,"velocity":0.2677165354330709},{"duration":0.023255813953497295,"midi":65,"time":67.69767441860465,"velocity":0.41732283464566927},{"duration":0.05813953488372192,"midi":86,"time":67.69767441860465,"velocity":0.2204724409448819},{"duration":0.04651162790698038,"midi":87,"time":67.69767441860465,"velocity":0.2047244094488189},{"duration":0.03488372093023884,"midi":92,"time":67.69767441860465,"velocity":0.2047244094488189},{"duration":0.03488372093023884,"midi":94,"time":67.69767441860465,"velocity":0.13385826771653545},{"duration":0.4418604651162781,"midi":99,"time":67.69767441860465,"velocity":0.31496062992125984},{"duration":0.03488372093023884,"midi":57,"time":67.70930232558139,"velocity":0.2992125984251969},{"duration":0.05813953488372192,"midi":68,"time":67.70930232558139,"velocity":0.2125984251968504},{"duration":0.05813953488372192,"midi":76,"time":67.70930232558139,"velocity":0.4094488188976378},{"duration":0.05813953488372192,"midi":78,"time":67.70930232558139,"velocity":0.1968503937007874},{"duration":0.05813953488372192,"midi":83,"time":67.70930232558139,"velocity":0.25984251968503935},{"duration":0.03488372093023884,"midi":89,"time":67.70930232558139,"velocity":0.2204724409448819},{"duration":0.3139534883720927,"midi":97,"time":67.70930232558139,"velocity":0.2440944881889764},{"duration":0.023255813953483084,"midi":41,"time":67.72093023255815,"velocity":0.3937007874015748},{"duration":0.023255813953483084,"midi":64,"time":67.72093023255815,"velocity":0.4330708661417323},{"duration":0.05813953488370771,"midi":74,"time":67.72093023255815,"velocity":0.2283464566929134},{"duration":0.12790697674418539,"midi":80,"time":67.72093023255815,"velocity":0.25984251968503935},{"duration":0.744186046511615,"midi":91,"time":67.72093023255815,"velocity":0.3779527559055118},{"duration":0.09302325581394655,"midi":51,"time":67.73255813953489,"velocity":0.28346456692913385},{"duration":0.081395348837205,"midi":56,"time":67.74418604651163,"velocity":0.28346456692913385},{"duration":0.06976744186046346,"midi":94,"time":67.74418604651163,"velocity":0.2677165354330709},{"duration":0.13953488372092693,"midi":44,"time":67.75581395348837,"velocity":0.33858267716535434},{"duration":0.05813953488372192,"midi":60,"time":67.75581395348837,"velocity":0.1889763779527559},{"duration":0.38372093023255616,"midi":87,"time":67.75581395348837,"velocity":0.44881889763779526},{"duration":0.16279069767442422,"midi":75,"time":67.76744186046511,"velocity":0.4251968503937008},{"duration":0.17441860465116577,"midi":82,"time":67.76744186046511,"velocity":0.3464566929133858},{"duration":0.04651162790696617,"midi":32,"time":67.79069767441861,"velocity":0.33070866141732286},{"duration":0.13953488372092693,"midi":63,"time":67.79069767441861,"velocity":0.28346456692913385},{"duration":0.11627906976744384,"midi":84,"time":67.79069767441861,"velocity":0.09448818897637795},{"duration":0.13953488372092693,"midi":101,"time":67.80232558139535,"velocity":0.3228346456692913},{"duration":0.03488372093023884,"midi":79,"time":67.83720930232558,"velocity":0.11023622047244094},{"duration":0.05813953488372192,"midi":32,"time":67.84883720930233,"velocity":0.23622047244094488},{"duration":0.05813953488372192,"midi":60,"time":67.8953488372093,"velocity":0.11023622047244094},{"duration":0.023255813953483084,"midi":76,"time":67.93023255813954,"velocity":0.4015748031496063},{"duration":0.15116279069766847,"midi":63,"time":67.94186046511628,"velocity":0.2755905511811024},{"duration":0.023255813953483084,"midi":83,"time":67.94186046511628,"velocity":0.3543307086614173},{"duration":0.05813953488372192,"midi":68,"time":67.95348837209302,"velocity":0.28346456692913385},{"duration":0.27906976744186807,"midi":75,"time":67.95348837209302,"velocity":0.4645669291338583},{"duration":0.17441860465116577,"midi":101,"time":67.95348837209302,"velocity":0.25984251968503935},{"duration":0.1860465116279073,"midi":82,"time":67.96511627906976,"velocity":0.36220472440944884},{"duration":0.03488372093023884,"midi":93,"time":67.96511627906976,"velocity":0.07874015748031496},{"duration":0.011627906976741542,"midi":48,"time":67.98837209302326,"velocity":0.5590551181102362},{"duration":0.011627906976741542,"midi":45,"time":68,"velocity":0.6377952755905512},{"duration":0.011627906976741542,"midi":44,"time":68.01162790697674,"velocity":0.6220472440944882},{"duration":0.03488372093023884,"midi":69,"time":68.01162790697674,"velocity":0.11023622047244094},{"duration":0.081395348837205,"midi":72,"time":68.01162790697674,"velocity":0.14960629921259844},{"duration":0.011627906976755753,"midi":43,"time":68.02325581395348,"velocity":0.5984251968503937},{"duration":0.08139534883721922,"midi":60,"time":68.02325581395348,"velocity":0.2047244094488189},{"duration":0.011627906976741542,"midi":42,"time":68.03488372093024,"velocity":0.5511811023622047},{"duration":0.05813953488372192,"midi":68,"time":68.04651162790698,"velocity":0.25984251968503935},{"duration":0.034883720930224626,"midi":79,"time":68.04651162790698,"velocity":0.07874015748031496},{"duration":0.04651162790698038,"midi":36,"time":68.09302325581395,"velocity":0.3464566929133858},{"duration":0.06976744186046346,"midi":77,"time":68.1046511627907,"velocity":0.07086614173228346},{"duration":0.12790697674418539,"midi":60,"time":68.11627906976744,"velocity":0.25984251968503935},{"duration":0.12790697674418539,"midi":63,"time":68.11627906976744,"velocity":0.3779527559055118},{"duration":0.081395348837205,"midi":82,"time":68.16279069767442,"velocity":0.25984251968503935},{"duration":0.05813953488370771,"midi":86,"time":68.22093023255815,"velocity":0.2283464566929134},{"duration":0.034883720930224626,"midi":77,"time":68.23255813953489,"velocity":0.2125984251968504},{"duration":0.034883720930224626,"midi":81,"time":68.23255813953489,"velocity":0.2125984251968504},{"duration":0.06976744186046346,"midi":89,"time":68.23255813953489,"velocity":0.2440944881889764},{"duration":0.034883720930224626,"midi":95,"time":68.23255813953489,"velocity":0.11811023622047244},{"duration":0.023255813953483084,"midi":98,"time":68.23255813953489,"velocity":0.2283464566929134},{"duration":0.13953488372092693,"midi":65,"time":68.24418604651163,"velocity":0.4881889763779528},{"duration":0.034883720930224626,"midi":68,"time":68.24418604651163,"velocity":0.2125984251968504},{"duration":0.05813953488372192,"midi":74,"time":68.24418604651163,"velocity":0.23622047244094488},{"duration":0.06976744186046346,"midi":78,"time":68.24418604651163,"velocity":0.1968503937007874},{"duration":0.05813953488372192,"midi":44,"time":68.25581395348837,"velocity":0.3779527559055118},{"duration":0.05813953488372192,"midi":51,"time":68.25581395348837,"velocity":0.31496062992125984},{"duration":0.09302325581396076,"midi":60,"time":68.25581395348837,"velocity":0.2677165354330709},{"duration":0.03488372093023884,"midi":82,"time":68.25581395348837,"velocity":0.18110236220472442},{"duration":0.11627906976744384,"midi":99,"time":68.25581395348837,"velocity":0.33858267716535434},{"duration":0.03488372093023884,"midi":97,"time":68.26744186046511,"velocity":0.07086614173228346},{"duration":0.1046511627907023,"midi":75,"time":68.27906976744185,"velocity":0.33070866141732286},{"duration":0.08139534883721922,"midi":80,"time":68.27906976744185,"velocity":0.11023622047244094},{"duration":0.17441860465116577,"midi":82,"time":68.30232558139535,"velocity":0.25196850393700787},{"duration":0.023255813953483084,"midi":33,"time":68.31395348837209,"velocity":0.2992125984251969},{"duration":0.023255813953483084,"midi":52,"time":68.31395348837209,"velocity":0.2677165354330709},{"duration":0.03488372093023884,"midi":44,"time":68.32558139534883,"velocity":0.2440944881889764},{"duration":0.03488372093023884,"midi":100,"time":68.32558139534883,"velocity":0.18110236220472442},{"duration":0.03488372093023884,"midi":32,"time":68.33720930232558,"velocity":0.30708661417322836},{"duration":0.10465116279068809,"midi":78,"time":68.36046511627907,"velocity":0.15748031496062992},{"duration":0.04651162790698038,"midi":84,"time":68.36046511627907,"velocity":0.1732283464566929},{"duration":0.04651162790698038,"midi":86,"time":68.36046511627907,"velocity":0.2047244094488189},{"duration":0.04651162790698038,"midi":89,"time":68.36046511627907,"velocity":0.23622047244094488},{"duration":0.04651162790698038,"midi":74,"time":68.37209302325581,"velocity":0.2677165354330709},{"duration":0.04651162790698038,"midi":79,"time":68.37209302325581,"velocity":0.15748031496062992},{"duration":0.023255813953497295,"midi":52,"time":68.38372093023256,"velocity":0.33858267716535434},{"duration":0.05813953488372192,"midi":66,"time":68.38372093023256,"velocity":0.28346456692913385},{"duration":0.05813953488372192,"midi":77,"time":68.38372093023256,"velocity":0.2283464566929134},{"duration":0.09302325581396076,"midi":44,"time":68.3953488372093,"velocity":0.3937007874015748},{"duration":0.06976744186046346,"midi":60,"time":68.3953488372093,"velocity":0.11023622047244094},{"duration":0.04651162790698038,"midi":70,"time":68.3953488372093,"velocity":0.10236220472440945},{"duration":0.081395348837205,"midi":75,"time":68.40697674418605,"velocity":0.25984251968503935},{"duration":0.05813953488372192,"midi":52,"time":68.43023255813954,"velocity":0.36220472440944884},{"duration":0.023255813953483084,"midi":33,"time":68.44186046511628,"velocity":0.30708661417322836},{"duration":0.04651162790698038,"midi":65,"time":68.44186046511628,"velocity":0.31496062992125984},{"duration":0.05813953488372192,"midi":32,"time":68.46511627906976,"velocity":0.3228346456692913},{"duration":0.05813953488372192,"midi":79,"time":68.46511627906976,"velocity":0.1968503937007874},{"duration":0.023255813953483084,"midi":59,"time":68.47674418604652,"velocity":0.36220472440944884},{"duration":0.06976744186046346,"midi":64,"time":68.48837209302326,"velocity":0.4566929133858268},{"duration":0.034883720930224626,"midi":84,"time":68.48837209302326,"velocity":0.18110236220472442},{"duration":0.09302325581394655,"midi":89,"time":68.48837209302326,"velocity":0.2125984251968504},{"duration":0.05813953488372192,"midi":95,"time":68.48837209302326,"velocity":0.2047244094488189},{"duration":0.06976744186046346,"midi":100,"time":68.48837209302326,"velocity":0.2047244094488189},{"duration":0.081395348837205,"midi":102,"time":68.48837209302326,"velocity":0.2283464566929134},{"duration":0.034883720930224626,"midi":103,"time":68.48837209302326,"velocity":0.1889763779527559},{"duration":0.04651162790698038,"midi":83,"time":68.5,"velocity":0.1732283464566929},{"duration":0.05813953488372192,"midi":90,"time":68.5,"velocity":0.30708661417322836},{"duration":0.03488372093023884,"midi":92,"time":68.5,"velocity":0.2440944881889764},{"duration":0.17441860465116577,"midi":94,"time":68.5,"velocity":0.3700787401574803},{"duration":0.03488372093023884,"midi":98,"time":68.5,"velocity":0.11811023622047244},{"duration":0.03488372093023884,"midi":70,"time":68.51162790697674,"velocity":0.10236220472440945},{"duration":0.25581395348837077,"midi":97,"time":68.51162790697674,"velocity":0.29133858267716534},{"duration":0.011627906976755753,"midi":45,"time":68.52325581395348,"velocity":0.5669291338582677},{"duration":0.11627906976744384,"midi":82,"time":68.52325581395348,"velocity":0.28346456692913385},{"duration":0.011627906976741542,"midi":44,"time":68.53488372093024,"velocity":0.6062992125984252},{"duration":0.05813953488370771,"midi":68,"time":68.53488372093024,"velocity":0.11811023622047244},{"duration":0.2093023255813904,"midi":91,"time":68.53488372093024,"velocity":0.36220472440944884},{"duration":0.011627906976741542,"midi":43,"time":68.54651162790698,"velocity":0.5826771653543307},{"duration":0.19767441860464885,"midi":75,"time":68.54651162790698,"velocity":0.4251968503937008},{"duration":0.011627906976741542,"midi":42,"time":68.55813953488372,"velocity":0.5590551181102362},{"duration":0.04651162790698038,"midi":63,"time":68.55813953488372,"velocity":0.1968503937007874},{"duration":0.05813953488372192,"midi":72,"time":68.55813953488372,"velocity":0.11023622047244094},{"duration":0.034883720930224626,"midi":85,"time":68.55813953488372,"velocity":0.09448818897637795},{"duration":0.04651162790698038,"midi":52,"time":68.5813953488372,"velocity":0.2440944881889764},{"duration":0.023255813953483084,"midi":37,"time":68.6046511627907,"velocity":0.3858267716535433},{"duration":0.05813953488372192,"midi":60,"time":68.61627906976744,"velocity":0.15748031496062992},{"duration":0.06976744186046346,"midi":63,"time":68.61627906976744,"velocity":0.2755905511811024},{"duration":0.03488372093023884,"midi":36,"time":68.62790697674419,"velocity":0.31496062992125984},{"duration":0.03488372093023884,"midi":80,"time":68.62790697674419,"velocity":0.07874015748031496},{"duration":0.05813953488372192,"midi":82,"time":68.66279069767442,"velocity":0.11811023622047244},{"duration":0.11627906976742963,"midi":102,"time":68.66279069767442,"velocity":0.12598425196850394},{"duration":0.023255813953483084,"midi":95,"time":68.67441860465117,"velocity":0.3228346456692913},{"duration":0.03488372093023884,"midi":60,"time":68.68604651162791,"velocity":0.18110236220472442},{"duration":0.023255813953483084,"midi":65,"time":68.68604651162791,"velocity":0.25196850393700787},{"duration":0.03488372093023884,"midi":53,"time":68.69767441860465,"velocity":0.14960629921259844},{"duration":0.09302325581396076,"midi":94,"time":68.69767441860465,"velocity":0.4645669291338583},{"duration":0.03488372093023884,"midi":68,"time":68.70930232558139,"velocity":0.11811023622047244},{"duration":0.023255813953483084,"midi":93,"time":68.72093023255815,"velocity":0.30708661417322836},{"duration":0.05813953488370771,"midi":98,"time":68.72093023255815,"velocity":0.2125984251968504},{"duration":0.023255813953483084,"midi":61,"time":68.73255813953489,"velocity":0.3543307086614173},{"duration":0.04651162790696617,"midi":95,"time":68.73255813953489,"velocity":0.25196850393700787},{"duration":0.034883720930224626,"midi":66,"time":68.74418604651163,"velocity":0.2677165354330709},{"duration":0.023255813953483084,"midi":76,"time":68.74418604651163,"velocity":0.28346456692913385},{"duration":0.22093023255813193,"midi":92,"time":68.74418604651163,"velocity":0.3937007874015748},{"duration":0.03488372093023884,"midi":60,"time":68.75581395348837,"velocity":0.33070866141732286},{"duration":0.023255813953483084,"midi":72,"time":68.75581395348837,"velocity":0.33070866141732286},{"duration":0.03488372093023884,"midi":80,"time":68.75581395348837,"velocity":0.11023622047244094},{"duration":0.06976744186046346,"midi":83,"time":68.75581395348837,"velocity":0.2283464566929134},{"duration":0.04651162790698038,"midi":86,"time":68.75581395348837,"velocity":0.2125984251968504},{"duration":0.16279069767442422,"midi":87,"time":68.75581395348837,"velocity":0.1889763779527559},{"duration":0.1046511627907023,"midi":89,"time":68.75581395348837,"velocity":0.16535433070866143},{"duration":0.023255813953483084,"midi":96,"time":68.75581395348837,"velocity":0.33070866141732286},{"duration":0.1046511627907023,"midi":48,"time":68.77906976744185,"velocity":0.2992125984251969},{"duration":0.11627906976744384,"midi":65,"time":68.77906976744185,"velocity":0.41732283464566927},{"duration":0.06976744186047767,"midi":71,"time":68.77906976744185,"velocity":0.2125984251968504},{"duration":0.023255813953497295,"midi":73,"time":68.77906976744185,"velocity":0.2677165354330709},{"duration":0.1046511627907023,"midi":75,"time":68.77906976744185,"velocity":0.31496062992125984},{"duration":0.04651162790698038,"midi":91,"time":68.77906976744185,"velocity":0.16535433070866143},{"duration":0.45348837209303383,"midi":97,"time":68.77906976744185,"velocity":0.3228346456692913},{"duration":0.09302325581396076,"midi":99,"time":68.77906976744185,"velocity":0.2440944881889764},{"duration":0.08139534883721922,"midi":103,"time":68.77906976744185,"velocity":0.1889763779527559},{"duration":0.10465116279068809,"midi":53,"time":68.79069767441861,"velocity":0.2992125984251969},{"duration":0.023255813953483084,"midi":61,"time":68.79069767441861,"velocity":0.30708661417322836},{"duration":0.05813953488372192,"midi":95,"time":68.79069767441861,"velocity":0.4015748031496063},{"duration":0.023255813953483084,"midi":40,"time":68.80232558139535,"velocity":0.4015748031496063},{"duration":0.023255813953483084,"midi":74,"time":68.80232558139535,"velocity":0.2440944881889764},{"duration":0.034883720930224626,"midi":79,"time":68.80232558139535,"velocity":0.11023622047244094},{"duration":0.05813953488372192,"midi":61,"time":68.82558139534883,"velocity":0.3464566929133858},{"duration":0.09302325581396076,"midi":94,"time":68.82558139534883,"velocity":0.3779527559055118},{"duration":0.05813953488372192,"midi":41,"time":68.83720930232558,"velocity":0.2992125984251969},{"duration":0.11627906976742963,"midi":102,"time":68.84883720930233,"velocity":0.23622047244094488},{"duration":0.034883720930224626,"midi":68,"time":68.86046511627907,"velocity":0.16535433070866143},{"duration":0.10465116279068809,"midi":72,"time":68.86046511627907,"velocity":0.4015748031496063},{"duration":0.05813953488372192,"midi":88,"time":68.86046511627907,"velocity":0.2047244094488189},{"duration":0.03488372093023884,"midi":76,"time":68.87209302325581,"velocity":0.1968503937007874},{"duration":0.06976744186046346,"midi":91,"time":68.87209302325581,"velocity":0.30708661417322836},{"duration":0.04651162790698038,"midi":98,"time":68.87209302325581,"velocity":0.2755905511811024},{"duration":0.04651162790698038,"midi":57,"time":68.88372093023256,"velocity":0.2440944881889764},{"duration":0.023255813953497295,"midi":60,"time":68.88372093023256,"velocity":0.25984251968503935},{"duration":0.04651162790698038,"midi":93,"time":68.88372093023256,"velocity":0.11023622047244094},{"duration":0.17441860465116577,"midi":95,"time":68.88372093023256,"velocity":0.2047244094488189},{"duration":0.03488372093023884,"midi":96,"time":68.88372093023256,"velocity":0.28346456692913385},{"duration":0.023255813953497295,"midi":29,"time":68.8953488372093,"velocity":0.2440944881889764},{"duration":0.09302325581396076,"midi":66,"time":68.8953488372093,"velocity":0.1889763779527559},{"duration":0.05813953488372192,"midi":80,"time":68.8953488372093,"velocity":0.13385826771653545},{"duration":0.04651162790698038,"midi":81,"time":68.8953488372093,"velocity":0.2125984251968504},{"duration":0.04651162790698038,"midi":86,"time":68.8953488372093,"velocity":0.2125984251968504},{"duration":0.081395348837205,"midi":68,"time":68.90697674418605,"velocity":0.12598425196850394},{"duration":0.034883720930224626,"midi":99,"time":68.90697674418605,"velocity":0.2125984251968504},{"duration":0.05813953488372192,"midi":44,"time":68.9186046511628,"velocity":0.4015748031496063},{"duration":0.06976744186046346,"midi":70,"time":68.9186046511628,"velocity":0.08661417322834646},{"duration":0.034883720930224626,"midi":75,"time":68.9186046511628,"velocity":0.2755905511811024},{"duration":0.05813953488372192,"midi":79,"time":68.9186046511628,"velocity":0.11023622047244094},{"duration":0.023255813953483084,"midi":52,"time":68.93023255813954,"velocity":0.3228346456692913},{"duration":0.06976744186046346,"midi":94,"time":68.93023255813954,"velocity":0.18110236220472442},{"duration":0.023255813953483084,"midi":61,"time":68.94186046511628,"velocity":0.29133858267716534},{"duration":0.08139534883721922,"midi":51,"time":68.95348837209302,"velocity":0.3228346456692913},{"duration":0.023255813953497295,"midi":32,"time":68.96511627906976,"velocity":0.3543307086614173},{"duration":0.04651162790698038,"midi":74,"time":68.96511627906976,"velocity":0.11811023622047244},{"duration":0.034883720930224626,"midi":33,"time":68.98837209302326,"velocity":0.3464566929133858},{"duration":0.023255813953483084,"midi":44,"time":68.98837209302326,"velocity":0.2755905511811024},{"duration":0.03488372093023884,"midi":61,"time":69,"velocity":0.2204724409448819},{"duration":0.05813953488372192,"midi":92,"time":69,"velocity":0.12598425196850394},{"duration":0.03488372093023884,"midi":94,"time":69.01162790697674,"velocity":0.1732283464566929},{"duration":0.06976744186046346,"midi":102,"time":69.01162790697674,"velocity":0.2047244094488189},{"duration":0.04651162790698038,"midi":103,"time":69.01162790697674,"velocity":0.2204724409448819},{"duration":0.03488372093023884,"midi":78,"time":69.02325581395348,"velocity":0.2283464566929134},{"duration":0.1860465116279073,"midi":80,"time":69.02325581395348,"velocity":0.08661417322834646},{"duration":0.04651162790698038,"midi":88,"time":69.02325581395348,"velocity":0.13385826771653545},{"duration":0.2325581395348877,"midi":91,"time":69.02325581395348,"velocity":0.3464566929133858},{"duration":0.03488372093023884,"midi":93,"time":69.02325581395348,"velocity":0.14173228346456693},{"duration":0.03488372093023884,"midi":100,"time":69.02325581395348,"velocity":0.2047244094488189},{"duration":0.023255813953483084,"midi":33,"time":69.03488372093024,"velocity":0.2755905511811024},{"duration":0.023255813953483084,"midi":48,"time":69.03488372093024,"velocity":0.5748031496062992},{"duration":0.06976744186046346,"midi":89,"time":69.03488372093024,"velocity":0.07874015748031496},{"duration":0.034883720930224626,"midi":58,"time":69.04651162790698,"velocity":0.13385826771653545},{"duration":0.023255813953483084,"midi":64,"time":69.04651162790698,"velocity":0.3228346456692913},{"duration":0.05813953488372192,"midi":68,"time":69.04651162790698,"velocity":0.09448818897637795},{"duration":0.16279069767441,"midi":75,"time":69.04651162790698,"velocity":0.4330708661417323},{"duration":0.011627906976741542,"midi":45,"time":69.05813953488372,"velocity":0.6220472440944882},{"duration":0.023255813953483084,"midi":62,"time":69.05813953488372,"velocity":0.28346456692913385},{"duration":0.1860465116279073,"midi":77,"time":69.05813953488372,"velocity":0.2047244094488189},{"duration":0.011627906976741542,"midi":44,"time":69.06976744186046,"velocity":0.6220472440944882},{"duration":0.023255813953483084,"midi":54,"time":69.06976744186046,"velocity":0.2992125984251969},{"duration":0.22093023255814614,"midi":82,"time":69.06976744186046,"velocity":0.1968503937007874},{"duration":0.13953488372092693,"midi":94,"time":69.06976744186046,"velocity":0.30708661417322836},{"duration":0.023255813953497295,"midi":42,"time":69.0813953488372,"velocity":0.5826771653543307},{"duration":0.03488372093023884,"midi":61,"time":69.0813953488372,"velocity":0.2283464566929134},{"duration":0.08139534883721922,"midi":99,"time":69.0813953488372,"velocity":0.2204724409448819},{"duration":0.05813953488372192,"midi":101,"time":69.0813953488372,"velocity":0.15748031496062992},{"duration":0.04651162790698038,"midi":72,"time":69.09302325581395,"velocity":0.12598425196850394},{"duration":0.011627906976741542,"midi":41,"time":69.1046511627907,"velocity":0.5118110236220472},{"duration":0.023255813953483084,"midi":54,"time":69.1046511627907,"velocity":0.25196850393700787},{"duration":0.034883720930224626,"midi":63,"time":69.11627906976744,"velocity":0.2283464566929134},{"duration":0.15116279069766847,"midi":96,"time":69.11627906976744,"velocity":0.1732283464566929},{"duration":0.03488372093023884,"midi":37,"time":69.12790697674419,"velocity":0.4330708661417323},{"duration":0.11627906976742963,"midi":65,"time":69.16279069767442,"velocity":0.2677165354330709},{"duration":0.081395348837205,"midi":73,"time":69.16279069767442,"velocity":0.1968503937007874},{"duration":0.09302325581396076,"midi":70,"time":69.19767441860465,"velocity":0.1889763779527559},{"duration":0.05813953488372192,"midi":84,"time":69.19767441860465,"velocity":0.09448818897637795},{"duration":0.034883720930224626,"midi":58,"time":69.22093023255815,"velocity":0.13385826771653545},{"duration":0.034883720930224626,"midi":75,"time":69.22093023255815,"velocity":0.2992125984251969},{"duration":0.034883720930224626,"midi":94,"time":69.22093023255815,"velocity":0.23622047244094488},{"duration":0.05813953488372192,"midi":78,"time":69.23255813953489,"velocity":0.14173228346456693},{"duration":0.081395348837205,"midi":93,"time":69.24418604651163,"velocity":0.29133858267716534},{"duration":0.023255813953483084,"midi":62,"time":69.25581395348837,"velocity":0.23622047244094488},{"duration":0.06976744186046346,"midi":74,"time":69.25581395348837,"velocity":0.23622047244094488},{"duration":0.05813953488372192,"midi":95,"time":69.25581395348837,"velocity":0.2283464566929134},{"duration":0.03488372093023884,"midi":58,"time":69.26744186046511,"velocity":0.33070866141732286},{"duration":0.06976744186046346,"midi":72,"time":69.26744186046511,"velocity":0.33858267716535434},{"duration":0.09302325581396076,"midi":94,"time":69.26744186046511,"velocity":0.3858267716535433},{"duration":0.09302325581396076,"midi":80,"time":69.27906976744185,"velocity":0.2204724409448819},{"duration":0.05813953488372192,"midi":88,"time":69.27906976744185,"velocity":0.2283464566929134},{"duration":0.09302325581396076,"midi":89,"time":69.27906976744185,"velocity":0.15748031496062992},{"duration":0.04651162790698038,"midi":96,"time":69.27906976744185,"velocity":0.2992125984251969},{"duration":0.1046511627907023,"midi":99,"time":69.27906976744185,"velocity":0.14173228346456693},{"duration":0.023255813953483084,"midi":46,"time":69.29069767441861,"velocity":0.33070866141732286},{"duration":0.034883720930224626,"midi":66,"time":69.29069767441861,"velocity":0.25196850393700787},{"duration":0.034883720930224626,"midi":79,"time":69.29069767441861,"velocity":0.2677165354330709},{"duration":0.04651162790696617,"midi":83,"time":69.29069767441861,"velocity":0.2125984251968504},{"duration":0.10465116279068809,"midi":102,"time":69.29069767441861,"velocity":0.10236220472440945},{"duration":0.13953488372092693,"midi":53,"time":69.30232558139535,"velocity":0.3228346456692913},{"duration":0.06976744186046346,"midi":76,"time":69.30232558139535,"velocity":0.2440944881889764},{"duration":0.04651162790698038,"midi":81,"time":69.30232558139535,"velocity":0.09448818897637795},{"duration":0.06976744186046346,"midi":61,"time":69.31395348837209,"velocity":0.4645669291338583},{"duration":0.11627906976744384,"midi":70,"time":69.31395348837209,"velocity":0.16535433070866143},{"duration":0.24418604651162923,"midi":77,"time":69.31395348837209,"velocity":0.3228346456692913},{"duration":0.16279069767442422,"midi":92,"time":69.31395348837209,"velocity":0.33858267716535434},{"duration":0.09302325581396076,"midi":46,"time":69.32558139534883,"velocity":0.33070866141732286},{"duration":0.05813953488372192,"midi":95,"time":69.32558139534883,"velocity":0.29133858267716534},{"duration":0.08139534883721922,"midi":97,"time":69.32558139534883,"velocity":0.29133858267716534},{"duration":0.04651162790696617,"midi":66,"time":69.34883720930233,"velocity":0.25196850393700787},{"duration":0.023255813953483084,"midi":35,"time":69.36046511627907,"velocity":0.36220472440944884},{"duration":0.06976744186046346,"midi":72,"time":69.37209302325581,"velocity":0.36220472440944884},{"duration":0.09302325581394655,"midi":88,"time":69.37209302325581,"velocity":0.2125984251968504},{"duration":0.05813953488372192,"midi":34,"time":69.38372093023256,"velocity":0.3543307086614173},{"duration":0.03488372093023884,"midi":60,"time":69.38372093023256,"velocity":0.3937007874015748},{"duration":0.11627906976744384,"midi":80,"time":69.38372093023256,"velocity":0.1889763779527559},{"duration":0.06976744186046346,"midi":94,"time":69.38372093023256,"velocity":0.2677165354330709},{"duration":0.04651162790698038,"midi":98,"time":69.3953488372093,"velocity":0.1889763779527559},{"duration":0.04651162790696617,"midi":66,"time":69.40697674418605,"velocity":0.2677165354330709},{"duration":0.034883720930224626,"midi":96,"time":69.40697674418605,"velocity":0.18110236220472442},{"duration":0.04651162790696617,"midi":83,"time":69.4186046511628,"velocity":0.1968503937007874},{"duration":0.034883720930224626,"midi":86,"time":69.4186046511628,"velocity":0.08661417322834646},{"duration":0.034883720930224626,"midi":91,"time":69.4186046511628,"velocity":0.1732283464566929},{"duration":0.081395348837205,"midi":76,"time":69.43023255813954,"velocity":0.2440944881889764},{"duration":0.023255813953483084,"midi":45,"time":69.44186046511628,"velocity":0.33858267716535434},{"duration":0.11627906976744384,"midi":73,"time":69.44186046511628,"velocity":0.31496062992125984},{"duration":0.09302325581396076,"midi":53,"time":69.45348837209302,"velocity":0.30708661417322836},{"duration":0.023255813953497295,"midi":61,"time":69.45348837209302,"velocity":0.2992125984251969},{"duration":0.08139534883721922,"midi":46,"time":69.46511627906976,"velocity":0.28346456692913385},{"duration":0.03488372093023884,"midi":66,"time":69.46511627906976,"velocity":0.2283464566929134},{"duration":0.034883720930224626,"midi":58,"time":69.47674418604652,"velocity":0.28346456692913385},{"duration":0.05813953488372192,"midi":34,"time":69.5,"velocity":0.33858267716535434},{"duration":0.03488372093023884,"midi":66,"time":69.51162790697674,"velocity":0.2440944881889764},{"duration":0.023255813953497295,"midi":61,"time":69.52325581395348,"velocity":0.2755905511811024},{"duration":0.19767441860464885,"midi":97,"time":69.53488372093024,"velocity":0.2755905511811024},{"duration":0.034883720930224626,"midi":100,"time":69.53488372093024,"velocity":0.23622047244094488},{"duration":0.034883720930224626,"midi":62,"time":69.54651162790698,"velocity":0.47244094488188976},{"duration":0.034883720930224626,"midi":79,"time":69.54651162790698,"velocity":0.16535433070866143},{"duration":0.04651162790696617,"midi":81,"time":69.54651162790698,"velocity":0.25984251968503935},{"duration":0.04651162790696617,"midi":86,"time":69.54651162790698,"velocity":0.2283464566929134},{"duration":0.081395348837205,"midi":88,"time":69.54651162790698,"velocity":0.2125984251968504},{"duration":0.06976744186046346,"midi":90,"time":69.54651162790698,"velocity":0.28346456692913385},{"duration":0.17441860465116577,"midi":92,"time":69.54651162790698,"velocity":0.1732283464566929},{"duration":0.19767441860464885,"midi":94,"time":69.54651162790698,"velocity":0.2047244094488189},{"duration":0.17441860465116577,"midi":95,"time":69.54651162790698,"velocity":0.1889763779527559},{"duration":0.05813953488372192,"midi":96,"time":69.54651162790698,"velocity":0.1968503937007874},{"duration":0.22093023255813193,"midi":99,"time":69.54651162790698,"velocity":0.33070866141732286},{"duration":0.10465116279068809,"midi":101,"time":69.54651162790698,"velocity":0.23622047244094488},{"duration":0.081395348837205,"midi":103,"time":69.54651162790698,"velocity":0.2440944881889764},{"duration":0.023255813953483084,"midi":53,"time":69.55813953488372,"velocity":0.4881889763779528},{"duration":0.13953488372092693,"midi":70,"time":69.55813953488372,"velocity":0.1968503937007874},{"duration":0.05813953488372192,"midi":83,"time":69.55813953488372,"velocity":0.13385826771653545},{"duration":0.24418604651162923,"midi":89,"time":69.55813953488372,"velocity":0.3858267716535433},{"duration":0.023255813953483084,"midi":45,"time":69.56976744186046,"velocity":0.5669291338582677},{"duration":0.19767441860464885,"midi":82,"time":69.56976744186046,"velocity":0.2125984251968504},{"duration":0.30232558139535115,"midi":85,"time":69.5813953488372,"velocity":0.3464566929133858},{"duration":0.011627906976755753,"midi":44,"time":69.59302325581395,"velocity":0.6062992125984252},{"duration":0.13953488372094114,"midi":73,"time":69.59302325581395,"velocity":0.31496062992125984},{"duration":0.17441860465116577,"midi":80,"time":69.59302325581395,"velocity":0.4015748031496063},{"duration":0.1279069767441996,"midi":91,"time":69.59302325581395,"velocity":0.1968503937007874},{"duration":0.011627906976741542,"midi":43,"time":69.6046511627907,"velocity":0.5826771653543307},{"duration":0.09302325581394655,"midi":66,"time":69.6046511627907,"velocity":0.30708661417322836},{"duration":0.15116279069766847,"midi":75,"time":69.6046511627907,"velocity":0.2677165354330709},{"duration":0.011627906976741542,"midi":42,"time":69.61627906976744,"velocity":0.5590551181102362},{"duration":0.023255813953497295,"midi":53,"time":69.63953488372093,"velocity":0.2677165354330709},{"duration":0.13953488372092693,"midi":61,"time":69.63953488372093,"velocity":0.3228346456692913},{"duration":0.48837209302325846,"midi":77,"time":69.63953488372093,"velocity":0.3779527559055118},{"duration":0.023255813953483084,"midi":37,"time":69.66279069767442,"velocity":0.3937007874015748},{"duration":0.023255813953483084,"midi":52,"time":69.66279069767442,"velocity":0.2283464566929134},{"duration":0.023255813953483084,"midi":36,"time":69.68604651162791,"velocity":0.30708661417322836},{"duration":0.03488372093023884,"midi":71,"time":69.68604651162791,"velocity":0.1889763779527559},{"duration":0.03488372093023884,"midi":79,"time":69.68604651162791,"velocity":0.25984251968503935},{"duration":0.05813953488372192,"midi":84,"time":69.68604651162791,"velocity":0.2047244094488189},{"duration":0.04651162790698038,"midi":86,"time":69.68604651162791,"velocity":0.18110236220472442},{"duration":0.023255813953497295,"midi":48,"time":69.69767441860465,"velocity":0.3464566929133858},{"duration":0.03488372093023884,"midi":66,"time":69.70930232558139,"velocity":0.3779527559055118},{"duration":0.034883720930224626,"midi":49,"time":69.72093023255815,"velocity":0.2992125984251969},{"duration":0.034883720930224626,"midi":57,"time":69.73255813953489,"velocity":0.3700787401574803},{"duration":0.023255813953483084,"midi":65,"time":69.73255813953489,"velocity":0.25196850393700787},{"duration":0.023255813953483084,"midi":72,"time":69.73255813953489,"velocity":0.30708661417322836},{"duration":0.081395348837205,"midi":37,"time":69.74418604651163,"velocity":0.3858267716535433},{"duration":0.03488372093023884,"midi":66,"time":69.75581395348837,"velocity":0.31496062992125984},{"duration":0.023255813953497295,"midi":56,"time":69.76744186046511,"velocity":0.3779527559055118},{"duration":0.45348837209303383,"midi":70,"time":69.76744186046511,"velocity":0.3464566929133858},{"duration":0.03488372093023884,"midi":81,"time":69.76744186046511,"velocity":0.07086614173228346},{"duration":0.03488372093023884,"midi":62,"time":69.77906976744185,"velocity":0.12598425196850394},{"duration":0.023255813953483084,"midi":50,"time":69.79069767441861,"velocity":0.29133858267716534},{"duration":0.034883720930224626,"midi":55,"time":69.79069767441861,"velocity":0.3700787401574803},{"duration":0.023255813953483084,"midi":66,"time":69.80232558139535,"velocity":0.30708661417322836},{"duration":0.1860465116279073,"midi":92,"time":69.80232558139535,"velocity":0.3228346456692913},{"duration":0.1860465116279073,"midi":94,"time":69.80232558139535,"velocity":0.2755905511811024},{"duration":0.05813953488372192,"midi":90,"time":69.81395348837209,"velocity":0.1889763779527559},{"duration":0.03488372093023884,"midi":93,"time":69.81395348837209,"velocity":0.18110236220472442},{"duration":0.15116279069766847,"midi":96,"time":69.81395348837209,"velocity":0.3228346456692913},{"duration":0.03488372093023884,"midi":65,"time":69.82558139534883,"velocity":0.3228346456692913},{"duration":0.023255813953497295,"midi":81,"time":69.82558139534883,"velocity":0.2440944881889764},{"duration":0.11627906976744384,"midi":58,"time":69.83720930232558,"velocity":0.4566929133858268},{"duration":0.12790697674418539,"midi":48,"time":69.84883720930233,"velocity":0.33858267716535434},{"duration":0.04651162790698038,"midi":95,"time":69.86046511627907,"velocity":0.11023622047244094},{"duration":0.34883720930233153,"midi":73,"time":69.87209302325581,"velocity":0.4409448818897638},{"duration":0.1046511627907023,"midi":80,"time":69.87209302325581,"velocity":0.14173228346456693},{"duration":0.1046511627907023,"midi":103,"time":69.87209302325581,"velocity":0.25984251968503935},{"duration":0.09302325581396076,"midi":36,"time":69.88372093023256,"velocity":0.3858267716535433},{"duration":0.05813953488372192,"midi":66,"time":69.8953488372093,"velocity":0.2755905511811024},{"duration":0.034883720930224626,"midi":98,"time":69.90697674418605,"velocity":0.08661417322834646},{"duration":0.03488372093023884,"midi":65,"time":69.95348837209302,"velocity":0.2204724409448819},{"duration":0.023255813953483084,"midi":56,"time":69.97674418604652,"velocity":0.41732283464566927},{"duration":0.2906976744185954,"midi":66,"time":69.98837209302326,"velocity":0.2992125984251969},{"duration":0.023255813953483084,"midi":55,"time":70,"velocity":0.3464566929133858},{"duration":0.023255813953483084,"midi":59,"time":70.05813953488372,"velocity":0.2440944881889764},{"duration":0.034883720930224626,"midi":80,"time":70.05813953488372,"velocity":0.16535433070866143},{"duration":0.04651162790698038,"midi":84,"time":70.06976744186046,"velocity":0.13385826771653545},{"duration":0.03488372093023884,"midi":88,"time":70.06976744186046,"velocity":0.2047244094488189},{"duration":0.03488372093023884,"midi":95,"time":70.06976744186046,"velocity":0.2440944881889764},{"duration":0.03488372093023884,"midi":98,"time":70.06976744186046,"velocity":0.16535433070866143},{"duration":0.03488372093023884,"midi":100,"time":70.06976744186046,"velocity":0.28346456692913385},{"duration":0.03488372093023884,"midi":102,"time":70.06976744186046,"velocity":0.2283464566929134},{"duration":0.03488372093023884,"midi":81,"time":70.0813953488372,"velocity":0.2047244094488189},{"duration":0.08139534883721922,"midi":99,"time":70.0813953488372,"velocity":0.2283464566929134},{"duration":0.19767441860464885,"midi":101,"time":70.0813953488372,"velocity":0.41732283464566927},{"duration":0.06976744186046346,"midi":103,"time":70.0813953488372,"velocity":0.2125984251968504},{"duration":0.04651162790698038,"midi":61,"time":70.09302325581395,"velocity":0.4015748031496063},{"duration":0.03488372093023884,"midi":86,"time":70.09302325581395,"velocity":0.29133858267716534},{"duration":0.011627906976741542,"midi":46,"time":70.1046511627907,"velocity":0.5669291338582677},{"duration":0.17441860465115155,"midi":80,"time":70.1046511627907,"velocity":0.28346456692913385},{"duration":0.011627906976741542,"midi":45,"time":70.11627906976744,"velocity":0.6062992125984252},{"duration":0.034883720930224626,"midi":68,"time":70.11627906976744,"velocity":0.11811023622047244},{"duration":0.011627906976741542,"midi":44,"time":70.12790697674419,"velocity":0.5984251968503937},{"duration":0.13953488372092693,"midi":75,"time":70.12790697674419,"velocity":0.1889763779527559},{"duration":0.023255813953497295,"midi":42,"time":70.13953488372093,"velocity":0.5984251968503937},{"duration":0.22093023255814614,"midi":77,"time":70.13953488372093,"velocity":0.3464566929133858},{"duration":0.09302325581396076,"midi":51,"time":70.15116279069767,"velocity":0.2992125984251969},{"duration":0.05813953488372192,"midi":61,"time":70.15116279069767,"velocity":0.31496062992125984},{"duration":0.09302325581396076,"midi":102,"time":70.15116279069767,"velocity":0.2677165354330709},{"duration":0.011627906976741542,"midi":41,"time":70.16279069767442,"velocity":0.5196850393700787},{"duration":0.023255813953483084,"midi":34,"time":70.23255813953489,"velocity":0.36220472440944884},{"duration":0.034883720930224626,"midi":56,"time":70.23255813953489,"velocity":0.1889763779527559},{"duration":0.3139534883720927,"midi":70,"time":70.25581395348837,"velocity":0.49606299212598426},{"duration":0.09302325581396076,"midi":73,"time":70.25581395348837,"velocity":0.3228346456692913},{"duration":0.034883720930224626,"midi":65,"time":70.29069767441861,"velocity":0.2125984251968504},{"duration":0.034883720930224626,"midi":58,"time":70.30232558139535,"velocity":0.2125984251968504},{"duration":0.1046511627907023,"midi":80,"time":70.31395348837209,"velocity":0.2125984251968504},{"duration":0.03488372093023884,"midi":66,"time":70.32558139534883,"velocity":0.25196850393700787},{"duration":0.04651162790696617,"midi":45,"time":70.34883720930233,"velocity":0.41732283464566927},{"duration":0.24418604651161502,"midi":58,"time":70.34883720930233,"velocity":0.4645669291338583},{"duration":0.04651162790696617,"midi":74,"time":70.34883720930233,"velocity":0.2440944881889764},{"duration":0.06976744186046346,"midi":79,"time":70.34883720930233,"velocity":0.2204724409448819},{"duration":0.05813953488372192,"midi":83,"time":70.34883720930233,"velocity":0.1968503937007874},{"duration":0.034883720930224626,"midi":85,"time":70.34883720930233,"velocity":0.10236220472440945},{"duration":0.04651162790696617,"midi":88,"time":70.34883720930233,"velocity":0.2204724409448819},{"duration":0.04651162790696617,"midi":91,"time":70.34883720930233,"velocity":0.2283464566929134},{"duration":0.04651162790698038,"midi":68,"time":70.36046511627907,"velocity":0.2440944881889764},{"duration":0.081395348837205,"midi":76,"time":70.36046511627907,"velocity":0.2755905511811024},{"duration":0.034883720930224626,"midi":101,"time":70.36046511627907,"velocity":0.11811023622047244},{"duration":0.11627906976744384,"midi":53,"time":70.37209302325581,"velocity":0.30708661417322836},{"duration":0.17441860465116577,"midi":77,"time":70.37209302325581,"velocity":0.31496062992125984},{"duration":0.11627906976742963,"midi":46,"time":70.40697674418605,"velocity":0.3228346456692913},{"duration":0.25581395348837077,"midi":73,"time":70.40697674418605,"velocity":0.4566929133858268},{"duration":0.13953488372092693,"midi":103,"time":70.40697674418605,"velocity":0.14960629921259844},{"duration":0.23255813953487348,"midi":66,"time":70.4186046511628,"velocity":0.3700787401574803},{"duration":0.11627906976744384,"midi":101,"time":70.4186046511628,"velocity":0.16535433070866143},{"duration":0.081395348837205,"midi":34,"time":70.43023255813954,"velocity":0.3858267716535433},{"duration":0.05813953488372192,"midi":77,"time":70.56976744186046,"velocity":0.1968503937007874},{"duration":0.023255813953497295,"midi":59,"time":70.59302325581395,"velocity":0.4094488188976378},{"duration":0.1046511627907023,"midi":100,"time":70.59302325581395,"velocity":0.14960629921259844},{"duration":0.1860465116279073,"midi":80,"time":70.6046511627907,"velocity":0.33070866141732286},{"duration":0.09302325581394655,"midi":90,"time":70.6046511627907,"velocity":0.28346456692913385},{"duration":0.034883720930224626,"midi":93,"time":70.6046511627907,"velocity":0.1732283464566929},{"duration":0.05813953488372192,"midi":95,"time":70.6046511627907,"velocity":0.1889763779527559},{"duration":0.05813953488372192,"midi":96,"time":70.6046511627907,"velocity":0.16535433070866143},{"duration":0.081395348837205,"midi":97,"time":70.6046511627907,"velocity":0.18110236220472442},{"duration":0.09302325581394655,"midi":99,"time":70.6046511627907,"velocity":0.1732283464566929},{"duration":0.09302325581394655,"midi":101,"time":70.6046511627907,"velocity":0.15748031496062992},{"duration":0.05813953488372192,"midi":103,"time":70.6046511627907,"velocity":0.1889763779527559},{"duration":0.023255813953483084,"midi":62,"time":70.61627906976744,"velocity":0.3858267716535433},{"duration":0.023255813953483084,"midi":79,"time":70.61627906976744,"velocity":0.2283464566929134},{"duration":0.081395348837205,"midi":89,"time":70.61627906976744,"velocity":0.25196850393700787},{"duration":0.023255813953483084,"midi":45,"time":70.62790697674419,"velocity":0.5669291338582677},{"duration":0.16279069767442422,"midi":70,"time":70.62790697674419,"velocity":0.3228346456692913},{"duration":0.03488372093023884,"midi":88,"time":70.62790697674419,"velocity":0.1732283464566929},{"duration":0.05813953488372192,"midi":98,"time":70.62790697674419,"velocity":0.11811023622047244},{"duration":0.04651162790698038,"midi":77,"time":70.63953488372093,"velocity":0.16535433070866143},{"duration":0.011627906976755753,"midi":44,"time":70.65116279069767,"velocity":0.6141732283464567},{"duration":0.011627906976741542,"midi":43,"time":70.66279069767442,"velocity":0.5905511811023622},{"duration":0.19767441860464885,"midi":66,"time":70.66279069767442,"velocity":0.2677165354330709},{"duration":0.04651162790696617,"midi":72,"time":70.66279069767442,"velocity":0.25984251968503935},{"duration":0.034883720930224626,"midi":87,"time":70.66279069767442,"velocity":0.11811023622047244},{"duration":0.011627906976741542,"midi":42,"time":70.67441860465117,"velocity":0.5669291338582677},{"duration":0.011627906976741542,"midi":41,"time":70.68604651162791,"velocity":0.5118110236220472},{"duration":0.17441860465116577,"midi":73,"time":70.70930232558139,"velocity":0.2755905511811024},{"duration":0.04651162790698038,"midi":77,"time":70.70930232558139,"velocity":0.14960629921259844},{"duration":0.023255813953483084,"midi":37,"time":70.72093023255815,"velocity":0.4094488188976378},{"duration":0.023255813953483084,"midi":36,"time":70.74418604651163,"velocity":0.3228346456692913},{"duration":0.03488372093023884,"midi":57,"time":70.75581395348837,"velocity":0.18110236220472442},{"duration":0.17441860465116577,"midi":77,"time":70.76744186046511,"velocity":0.23622047244094488},{"duration":0.034883720930224626,"midi":60,"time":70.80232558139535,"velocity":0.14960629921259844},{"duration":0.034883720930224626,"midi":64,"time":70.86046511627907,"velocity":0.4409448818897638},{"duration":0.12790697674418539,"midi":75,"time":70.86046511627907,"velocity":0.33858267716535434},{"duration":0.04651162790698038,"midi":88,"time":70.86046511627907,"velocity":0.1889763779527559},{"duration":0.1860465116279073,"midi":94,"time":70.86046511627907,"velocity":0.3779527559055118},{"duration":0.04651162790698038,"midi":95,"time":70.86046511627907,"velocity":0.13385826771653545},{"duration":0.023255813953483084,"midi":70,"time":70.87209302325581,"velocity":0.25984251968503935},{"duration":0.03488372093023884,"midi":80,"time":70.87209302325581,"velocity":0.11811023622047244},{"duration":0.05813953488372192,"midi":83,"time":70.87209302325581,"velocity":0.2125984251968504},{"duration":0.04651162790698038,"midi":86,"time":70.87209302325581,"velocity":0.23622047244094488},{"duration":0.03488372093023884,"midi":90,"time":70.87209302325581,"velocity":0.15748031496062992},{"duration":0.1046511627907023,"midi":91,"time":70.87209302325581,"velocity":0.3779527559055118},{"duration":0.06976744186046346,"midi":97,"time":70.87209302325581,"velocity":0.4015748031496063},{"duration":0.1046511627907023,"midi":99,"time":70.87209302325581,"velocity":0.33070866141732286},{"duration":0.1046511627907023,"midi":101,"time":70.87209302325581,"velocity":0.4094488188976378},{"duration":0.03488372093023884,"midi":78,"time":70.88372093023256,"velocity":0.1968503937007874},{"duration":0.03488372093023884,"midi":81,"time":70.88372093023256,"velocity":0.13385826771653545},{"duration":0.05813953488372192,"midi":63,"time":70.8953488372093,"velocity":0.33858267716535434},{"duration":0.04651162790698038,"midi":71,"time":70.8953488372093,"velocity":0.25196850393700787},{"duration":0.023255813953497295,"midi":73,"time":70.8953488372093,"velocity":0.2440944881889764},{"duration":0.081395348837205,"midi":48,"time":70.9186046511628,"velocity":0.3228346456692913},{"duration":0.05813953488372192,"midi":41,"time":70.94186046511628,"velocity":0.30708661417322836},{"duration":0.04651162790698038,"midi":57,"time":70.94186046511628,"velocity":0.14960629921259844},{"duration":0.03488372093023884,"midi":70,"time":70.94186046511628,"velocity":0.1889763779527559},{"duration":0.081395348837205,"midi":96,"time":70.94186046511628,"velocity":0.33858267716535434},{"duration":0.04651162790698038,"midi":102,"time":70.94186046511628,"velocity":0.10236220472440945},{"duration":0.06976744186046346,"midi":90,"time":70.95348837209302,"velocity":0.2677165354330709},{"duration":0.023255813953483084,"midi":62,"time":70.97674418604652,"velocity":0.4094488188976378},{"duration":0.05813953488372192,"midi":86,"time":70.97674418604652,"velocity":0.13385826771653545},{"duration":0.034883720930224626,"midi":98,"time":70.97674418604652,"velocity":0.2755905511811024},{"duration":0.081395348837205,"midi":100,"time":70.97674418604652,"velocity":0.4015748031496063},{"duration":0.04651162790698038,"midi":30,"time":70.98837209302326,"velocity":0.2047244094488189},{"duration":0.13953488372092693,"midi":53,"time":71,"velocity":0.3228346456692913},{"duration":0.04651162790698038,"midi":80,"time":71,"velocity":0.2047244094488189},{"duration":0.06976744186046346,"midi":88,"time":71,"velocity":0.28346456692913385},{"duration":0.04651162790698038,"midi":91,"time":71,"velocity":0.1732283464566929},{"duration":0.1046511627907023,"midi":58,"time":71.01162790697674,"velocity":0.25196850393700787},{"duration":0.023255813953497295,"midi":64,"time":71.01162790697674,"velocity":0.33070866141732286},{"duration":0.05813953488372192,"midi":79,"time":71.01162790697674,"velocity":0.2440944881889764},{"duration":0.04651162790698038,"midi":83,"time":71.01162790697674,"velocity":0.18110236220472442},{"duration":0.03488372093023884,"midi":69,"time":71.02325581395348,"velocity":0.3700787401574803},{"duration":0.023255813953483084,"midi":45,"time":71.03488372093024,"velocity":0.3937007874015748},{"duration":0.05813953488370771,"midi":62,"time":71.03488372093024,"velocity":0.33070866141732286},{"duration":0.04651162790696617,"midi":77,"time":71.03488372093024,"velocity":0.14960629921259844},{"duration":0.034883720930224626,"midi":72,"time":71.04651162790698,"velocity":0.07874015748031496},{"duration":0.023255813953483084,"midi":35,"time":71.06976744186046,"velocity":0.3543307086614173},{"duration":0.023255813953497295,"midi":68,"time":71.0813953488372,"velocity":0.30708661417322836},{"duration":0.06976744186047767,"midi":34,"time":71.09302325581395,"velocity":0.33070866141732286},{"duration":0.05813953488372192,"midi":75,"time":71.09302325581395,"velocity":0.25196850393700787},{"duration":0.04651162790698038,"midi":97,"time":71.09302325581395,"velocity":0.16535433070866143},{"duration":0.03488372093023884,"midi":94,"time":71.12790697674419,"velocity":0.1732283464566929},{"duration":0.17441860465116577,"midi":58,"time":71.13953488372093,"velocity":0.36220472440944884},{"duration":0.023255813953497295,"midi":69,"time":71.13953488372093,"velocity":0.2283464566929134},{"duration":0.03488372093023884,"midi":78,"time":71.13953488372093,"velocity":0.28346456692913385},{"duration":0.1860465116279073,"midi":80,"time":71.13953488372093,"velocity":0.2047244094488189},{"duration":0.03488372093023884,"midi":83,"time":71.13953488372093,"velocity":0.18110236220472442},{"duration":0.03488372093023884,"midi":93,"time":71.13953488372093,"velocity":0.14960629921259844},{"duration":0.023255813953497295,"midi":95,"time":71.13953488372093,"velocity":0.23622047244094488},{"duration":0.03488372093023884,"midi":101,"time":71.13953488372093,"velocity":0.07086614173228346},{"duration":0.03488372093023884,"midi":102,"time":71.13953488372093,"velocity":0.13385826771653545},{"duration":0.04651162790698038,"midi":74,"time":71.15116279069767,"velocity":0.18110236220472442},{"duration":0.06976744186047767,"midi":76,"time":71.15116279069767,"velocity":0.25984251968503935},{"duration":0.08139534883721922,"midi":91,"time":71.15116279069767,"velocity":0.16535433070866143},{"duration":0.011627906976741542,"midi":47,"time":71.16279069767442,"velocity":0.5826771653543307},{"duration":0.011627906976741542,"midi":45,"time":71.17441860465117,"velocity":0.6377952755905512},{"duration":0.011627906976741542,"midi":44,"time":71.18604651162791,"velocity":0.6299212598425197},{"duration":0.1046511627907023,"midi":82,"time":71.18604651162791,"velocity":0.14960629921259844},{"duration":0.023255813953497295,"midi":42,"time":71.19767441860465,"velocity":0.5905511811023622},{"duration":0.06976744186046346,"midi":53,"time":71.19767441860465,"velocity":0.2992125984251969},{"duration":0.22093023255814614,"midi":63,"time":71.19767441860465,"velocity":0.25984251968503935},{"duration":0.03488372093023884,"midi":68,"time":71.19767441860465,"velocity":0.16535433070866143},{"duration":0.011627906976741542,"midi":41,"time":71.22093023255815,"velocity":0.5118110236220472},{"duration":0.06976744186046346,"midi":84,"time":71.23255813953489,"velocity":0.14173228346456693},{"duration":0.023255813953483084,"midi":36,"time":71.25581395348837,"velocity":0.3937007874015748},{"duration":0.03488372093023884,"midi":68,"time":71.25581395348837,"velocity":0.2047244094488189},{"duration":0.04651162790698038,"midi":91,"time":71.25581395348837,"velocity":0.11811023622047244},{"duration":0.03488372093023884,"midi":37,"time":71.27906976744185,"velocity":0.1889763779527559},{"duration":0.24418604651162923,"midi":87,"time":71.29069767441861,"velocity":0.16535433070866143},{"duration":0.1046511627907023,"midi":84,"time":71.33720930232558,"velocity":0.25196850393700787},{"duration":0.04651162790698038,"midi":91,"time":71.33720930232558,"velocity":0.14960629921259844},{"duration":0.023255813953483084,"midi":52,"time":71.37209302325581,"velocity":0.2992125984251969},{"duration":0.03488372093023884,"midi":72,"time":71.38372093023256,"velocity":0.2440944881889764},{"duration":0.081395348837205,"midi":86,"time":71.38372093023256,"velocity":0.1968503937007874},{"duration":0.03488372093023884,"midi":88,"time":71.3953488372093,"velocity":0.16535433070866143},{"duration":0.05813953488372192,"midi":89,"time":71.3953488372093,"velocity":0.2204724409448819},{"duration":0.05813953488372192,"midi":94,"time":71.3953488372093,"velocity":0.09448818897637795},{"duration":0.023255813953483084,"midi":57,"time":71.4186046511628,"velocity":0.44881889763779526},{"duration":0.05813953488372192,"midi":66,"time":71.4186046511628,"velocity":0.2047244094488189},{"duration":0.11627906976744384,"midi":70,"time":71.4186046511628,"velocity":0.48031496062992124},{"duration":0.081395348837205,"midi":74,"time":71.4186046511628,"velocity":0.23622047244094488},{"duration":0.04651162790696617,"midi":78,"time":71.4186046511628,"velocity":0.2204724409448819},{"duration":0.05813953488372192,"midi":102,"time":71.4186046511628,"velocity":0.2204724409448819},{"duration":0.1046511627907023,"midi":44,"time":71.43023255813954,"velocity":0.3779527559055118},{"duration":0.09302325581394655,"midi":51,"time":71.43023255813954,"velocity":0.30708661417322836},{"duration":0.04651162790698038,"midi":79,"time":71.43023255813954,"velocity":0.11811023622047244},{"duration":0.06976744186046346,"midi":77,"time":71.45348837209302,"velocity":0.1968503937007874},{"duration":0.09302325581396076,"midi":80,"time":71.46511627906976,"velocity":0.14173228346456693},{"duration":0.08139534883721922,"midi":84,"time":71.46511627906976,"velocity":0.14173228346456693},{"duration":0.023255813953483084,"midi":33,"time":71.48837209302326,"velocity":0.2992125984251969},{"duration":0.023255813953483084,"midi":57,"time":71.48837209302326,"velocity":0.3464566929133858},{"duration":0.05813953488372192,"midi":32,"time":71.51162790697674,"velocity":0.30708661417322836},{"duration":0.04651162790698038,"midi":78,"time":71.52325581395348,"velocity":0.23622047244094488},{"duration":0.03488372093023884,"midi":83,"time":71.52325581395348,"velocity":0.3228346456692913},{"duration":0.04651162790696617,"midi":68,"time":71.53488372093024,"velocity":0.23622047244094488},{"duration":0.023255813953483084,"midi":71,"time":71.53488372093024,"velocity":0.44881889763779526},{"duration":0.04651162790696617,"midi":88,"time":71.53488372093024,"velocity":0.2440944881889764},{"duration":0.04651162790696617,"midi":91,"time":71.53488372093024,"velocity":0.1968503937007874},{"duration":0.034883720930224626,"midi":94,"time":71.53488372093024,"velocity":0.09448818897637795},{"duration":0.023255813953483084,"midi":46,"time":71.54651162790698,"velocity":0.33858267716535434},{"duration":0.04651162790696617,"midi":76,"time":71.54651162790698,"velocity":0.25196850393700787},{"duration":0.04651162790698038,"midi":53,"time":71.55813953488372,"velocity":0.31496062992125984},{"duration":0.1046511627907023,"midi":60,"time":71.55813953488372,"velocity":0.3779527559055118},{"duration":0.1046511627907023,"midi":72,"time":71.55813953488372,"velocity":0.4881889763779528},{"duration":0.1046511627907023,"midi":79,"time":71.55813953488372,"velocity":0.3464566929133858},{"duration":0.04651162790698038,"midi":81,"time":71.55813953488372,"velocity":0.10236220472440945},{"duration":0.25581395348837077,"midi":82,"time":71.55813953488372,"velocity":0.2440944881889764},{"duration":0.04651162790698038,"midi":77,"time":71.56976744186046,"velocity":0.13385826771653545},{"duration":0.05813953488372192,"midi":46,"time":71.5813953488372,"velocity":0.29133858267716534},{"duration":0.03488372093023884,"midi":35,"time":71.59302325581395,"velocity":0.33858267716535434},{"duration":0.34883720930233153,"midi":75,"time":71.59302325581395,"velocity":0.3700787401574803},{"duration":0.06976744186046346,"midi":68,"time":71.6046511627907,"velocity":0.2992125984251969},{"duration":0.05813953488372192,"midi":34,"time":71.62790697674419,"velocity":0.3464566929133858},{"duration":0.03488372093023884,"midi":63,"time":71.63953488372093,"velocity":0.3858267716535433},{"duration":0.03488372093023884,"midi":102,"time":71.65116279069767,"velocity":0.2283464566929134},{"duration":0.023255813953483084,"midi":59,"time":71.66279069767442,"velocity":0.4409448818897638},{"duration":0.023255813953483084,"midi":78,"time":71.66279069767442,"velocity":0.30708661417322836},{"duration":0.19767441860464885,"midi":89,"time":71.66279069767442,"velocity":0.2283464566929134},{"duration":0.05813953488372192,"midi":96,"time":71.66279069767442,"velocity":0.18110236220472442},{"duration":0.081395348837205,"midi":99,"time":71.66279069767442,"velocity":0.13385826771653545},{"duration":0.25581395348837077,"midi":101,"time":71.66279069767442,"velocity":0.25196850393700787},{"duration":0.081395348837205,"midi":103,"time":71.66279069767442,"velocity":0.2677165354330709},{"duration":0.06976744186046346,"midi":88,"time":71.67441860465117,"velocity":0.2204724409448819},{"duration":0.04651162790698038,"midi":90,"time":71.67441860465117,"velocity":0.31496062992125984},{"duration":0.04651162790698038,"midi":93,"time":71.67441860465117,"velocity":0.14173228346456693},{"duration":0.04651162790698038,"midi":98,"time":71.67441860465117,"velocity":0.15748031496062992},{"duration":0.023255813953483084,"midi":45,"time":71.68604651162791,"velocity":0.5669291338582677},{"duration":0.05813953488372192,"midi":72,"time":71.68604651162791,"velocity":0.2755905511811024},{"duration":0.03488372093023884,"midi":91,"time":71.68604651162791,"velocity":0.13385826771653545},{"duration":0.023255813953497295,"midi":59,"time":71.69767441860465,"velocity":0.25984251968503935},{"duration":0.2325581395348877,"midi":70,"time":71.69767441860465,"velocity":0.4566929133858268},{"duration":0.011627906976755753,"midi":44,"time":71.70930232558139,"velocity":0.6141732283464567},{"duration":0.1860465116279073,"midi":102,"time":71.70930232558139,"velocity":0.31496062992125984},{"duration":0.011627906976741542,"midi":43,"time":71.72093023255815,"velocity":0.5826771653543307},{"duration":0.10465116279068809,"midi":58,"time":71.72093023255815,"velocity":0.33858267716535434},{"duration":0.034883720930224626,"midi":83,"time":71.72093023255815,"velocity":0.15748031496062992},{"duration":0.011627906976741542,"midi":42,"time":71.73255813953489,"velocity":0.5590551181102362},{"duration":0.034883720930224626,"midi":85,"time":71.73255813953489,"velocity":0.10236220472440945},{"duration":0.011627906976741542,"midi":41,"time":71.74418604651163,"velocity":0.5118110236220472},{"duration":0.17441860465116577,"midi":72,"time":71.75581395348837,"velocity":0.4094488188976378},{"duration":0.03488372093023884,"midi":77,"time":71.75581395348837,"velocity":0.13385826771653545},{"duration":0.04651162790698038,"midi":79,"time":71.76744186046511,"velocity":0.2204724409448819},{"duration":0.023255813953497295,"midi":37,"time":71.77906976744185,"velocity":0.3937007874015748},{"duration":0.03488372093023884,"midi":52,"time":71.77906976744185,"velocity":0.2047244094488189},{"duration":0.11627906976744384,"midi":92,"time":71.77906976744185,"velocity":0.11023622047244094},{"duration":0.11627906976744384,"midi":83,"time":71.79069767441861,"velocity":0.2204724409448819},{"duration":0.09302325581394655,"midi":99,"time":71.79069767441861,"velocity":0.07874015748031496},{"duration":0.023255813953483084,"midi":36,"time":71.80232558139535,"velocity":0.2992125984251969},{"duration":0.023255813953483084,"midi":78,"time":71.80232558139535,"velocity":0.2755905511811024},{"duration":0.05813953488372192,"midi":86,"time":71.80232558139535,"velocity":0.16535433070866143},{"duration":0.023255813953483084,"midi":48,"time":71.81395348837209,"velocity":0.3543307086614173},{"duration":0.15116279069766847,"midi":65,"time":71.81395348837209,"velocity":0.2283464566929134},{"duration":0.1046511627907023,"midi":77,"time":71.81395348837209,"velocity":0.23622047244094488},{"duration":0.04651162790698038,"midi":80,"time":71.81395348837209,"velocity":0.1732283464566929},{"duration":0.03488372093023884,"midi":40,"time":71.82558139534883,"velocity":0.30708661417322836},{"duration":0.023255813953497295,"midi":57,"time":71.82558139534883,"velocity":0.3858267716535433},{"duration":0.06976744186046346,"midi":79,"time":71.82558139534883,"velocity":0.28346456692913385},{"duration":0.023255813953497295,"midi":49,"time":71.83720930232558,"velocity":0.31496062992125984},{"duration":0.023255813953483084,"midi":56,"time":71.84883720930233,"velocity":0.36220472440944884},{"duration":0.04651162790698038,"midi":37,"time":71.86046511627907,"velocity":0.36220472440944884},{"duration":0.034883720930224626,"midi":61,"time":71.86046511627907,"velocity":0.2677165354330709},{"duration":0.05813953488372192,"midi":96,"time":71.86046511627907,"velocity":0.11023622047244094},{"duration":0.05813953488372192,"midi":98,"time":71.86046511627907,"velocity":0.09448818897637795},{"duration":0.04651162790698038,"midi":80,"time":71.87209302325581,"velocity":0.11811023622047244},{"duration":0.06976744186046346,"midi":58,"time":71.88372093023256,"velocity":0.4645669291338583},{"duration":0.13953488372092693,"midi":100,"time":71.88372093023256,"velocity":0.29133858267716534},{"duration":0.03488372093023884,"midi":50,"time":71.8953488372093,"velocity":0.2992125984251969},{"duration":0.04651162790698038,"midi":103,"time":71.8953488372093,"velocity":0.10236220472440945},{"duration":0.023255813953483084,"midi":77,"time":71.93023255813954,"velocity":0.25984251968503935},{"duration":0.04651162790698038,"midi":85,"time":71.93023255813954,"velocity":0.2125984251968504},{"duration":0.06976744186046346,"midi":91,"time":71.93023255813954,"velocity":0.2440944881889764},{"duration":0.04651162790698038,"midi":93,"time":71.93023255813954,"velocity":0.2283464566929134},{"duration":0.13953488372092693,"midi":102,"time":71.93023255813954,"velocity":0.23622047244094488},{"duration":0.03488372093023884,"midi":60,"time":71.94186046511628,"velocity":0.3779527559055118},{"duration":0.09302325581396076,"midi":72,"time":71.94186046511628,"velocity":0.44881889763779526},{"duration":0.023255813953483084,"midi":76,"time":71.94186046511628,"velocity":0.2283464566929134},{"duration":0.09302325581396076,"midi":79,"time":71.94186046511628,"velocity":0.3858267716535433},{"duration":0.04651162790698038,"midi":81,"time":71.94186046511628,"velocity":0.2440944881889764},{"duration":0.03488372093023884,"midi":83,"time":71.94186046511628,"velocity":0.2047244094488189},{"duration":0.06976744186046346,"midi":88,"time":71.94186046511628,"velocity":0.3228346456692913},{"duration":0.03488372093023884,"midi":90,"time":71.94186046511628,"velocity":0.18110236220472442},{"duration":0.11627906976744384,"midi":101,"time":71.94186046511628,"velocity":0.18110236220472442},{"duration":0.1046511627907023,"midi":70,"time":71.95348837209302,"velocity":0.4566929133858268},{"duration":0.03488372093023884,"midi":78,"time":71.95348837209302,"velocity":0.25196850393700787},{"duration":0.11627906976744384,"midi":48,"time":71.96511627906976,"velocity":0.33858267716535434},{"duration":0.1046511627907023,"midi":64,"time":71.96511627906976,"velocity":0.2283464566929134},{"duration":0.04651162790698038,"midi":74,"time":71.96511627906976,"velocity":0.1968503937007874},{"duration":0.023255813953483084,"midi":55,"time":71.98837209302326,"velocity":0.29133858267716534},{"duration":0.034883720930224626,"midi":77,"time":71.98837209302326,"velocity":0.16535433070866143},{"duration":0.081395348837205,"midi":36,"time":72,"velocity":0.3543307086614173},{"duration":0.04651162790698038,"midi":83,"time":72.01162790697674,"velocity":0.4409448818897638},{"duration":0.04651162790698038,"midi":87,"time":72.01162790697674,"velocity":0.09448818897637795},{"duration":0.04651162790698038,"midi":78,"time":72.02325581395348,"velocity":0.30708661417322836},{"duration":0.10465116279068809,"midi":58,"time":72.03488372093024,"velocity":0.3858267716535433},{"duration":0.11627906976742963,"midi":75,"time":72.03488372093024,"velocity":0.2440944881889764},{"duration":0.081395348837205,"midi":103,"time":72.04651162790698,"velocity":0.18110236220472442},{"duration":0.1046511627907023,"midi":82,"time":72.05813953488372,"velocity":0.4881889763779528},{"duration":0.034883720930224626,"midi":86,"time":72.05813953488372,"velocity":0.07086614173228346},{"duration":0.13953488372092693,"midi":72,"time":72.06976744186046,"velocity":0.4094488188976378},{"duration":0.09302325581396076,"midi":77,"time":72.06976744186046,"velocity":0.31496062992125984},{"duration":0.1046511627907023,"midi":79,"time":72.09302325581395,"velocity":0.2283464566929134},{"duration":0.03488372093023884,"midi":101,"time":72.09302325581395,"velocity":0.11811023622047244},{"duration":0.034883720930224626,"midi":57,"time":72.16279069767442,"velocity":0.3937007874015748},{"duration":0.023255813953483084,"midi":81,"time":72.16279069767442,"velocity":0.4015748031496063},{"duration":0.05813953488372192,"midi":100,"time":72.16279069767442,"velocity":0.10236220472440945},{"duration":0.081395348837205,"midi":68,"time":72.17441860465117,"velocity":0.3228346456692913},{"duration":0.4534883720930196,"midi":75,"time":72.17441860465117,"velocity":0.4251968503937008},{"duration":0.05813953488372192,"midi":77,"time":72.17441860465117,"velocity":0.2283464566929134},{"duration":0.03488372093023884,"midi":56,"time":72.19767441860465,"velocity":0.3464566929133858},{"duration":0.023255813953497295,"midi":60,"time":72.19767441860465,"velocity":0.29133858267716534},{"duration":0.17441860465116577,"midi":70,"time":72.20930232558139,"velocity":0.33858267716535434},{"duration":0.023255813953497295,"midi":79,"time":72.20930232558139,"velocity":0.29133858267716534},{"duration":0.011627906976741542,"midi":48,"time":72.22093023255815,"velocity":0.5590551181102362},{"duration":0.034883720930224626,"midi":83,"time":72.22093023255815,"velocity":0.18110236220472442},{"duration":0.011627906976741542,"midi":45,"time":72.23255813953489,"velocity":0.6299212598425197},{"duration":0.2674418604651123,"midi":80,"time":72.23255813953489,"velocity":0.3700787401574803},{"duration":0.011627906976741542,"midi":44,"time":72.24418604651163,"velocity":0.6220472440944882},{"duration":0.17441860465116577,"midi":84,"time":72.24418604651163,"velocity":0.28346456692913385},{"duration":0.011627906976741542,"midi":43,"time":72.25581395348837,"velocity":0.5984251968503937},{"duration":0.011627906976741542,"midi":42,"time":72.26744186046511,"velocity":0.5590551181102362},{"duration":0.04651162790698038,"midi":36,"time":72.32558139534883,"velocity":0.3543307086614173},{"duration":0.1046511627907023,"midi":82,"time":72.38372093023256,"velocity":0.13385826771653545},{"duration":0.30232558139535115,"midi":72,"time":72.4186046511628,"velocity":0.30708661417322836},{"duration":0.05813953488372192,"midi":63,"time":72.43023255813954,"velocity":0.07874015748031496},{"duration":0.034883720930224626,"midi":60,"time":72.47674418604652,"velocity":0.18110236220472442},{"duration":0.05813953488372192,"midi":79,"time":72.48837209302326,"velocity":0.3779527559055118},{"duration":0.04651162790698038,"midi":83,"time":72.48837209302326,"velocity":0.2204724409448819},{"duration":0.034883720930224626,"midi":88,"time":72.48837209302326,"velocity":0.18110236220472442},{"duration":0.04651162790698038,"midi":70,"time":72.5,"velocity":0.25984251968503935},{"duration":0.04651162790696617,"midi":83,"time":72.54651162790698,"velocity":0.25984251968503935},{"duration":0.05813953488372192,"midi":70,"time":72.56976744186046,"velocity":0.2992125984251969},{"duration":0.03488372093023884,"midi":77,"time":72.56976744186046,"velocity":0.1732283464566929},{"duration":0.04651162790698038,"midi":78,"time":72.5813953488372,"velocity":0.11023622047244094},{"duration":0.09302325581396076,"midi":82,"time":72.59302325581395,"velocity":0.30708661417322836},{"duration":0.04651162790698038,"midi":101,"time":72.59302325581395,"velocity":0.11811023622047244},{"duration":0.05813953488372192,"midi":69,"time":72.61627906976744,"velocity":0.28346456692913385},{"duration":0.04651162790698038,"midi":81,"time":72.61627906976744,"velocity":0.3858267716535433},{"duration":0.023255813953483084,"midi":56,"time":72.62790697674419,"velocity":0.4251968503937008},{"duration":0.03488372093023884,"midi":76,"time":72.62790697674419,"velocity":0.2440944881889764},{"duration":0.03488372093023884,"midi":57,"time":72.65116279069767,"velocity":0.3937007874015748},{"duration":0.04651162790696617,"midi":70,"time":72.66279069767442,"velocity":0.2204724409448819},{"duration":0.034883720930224626,"midi":75,"time":72.66279069767442,"velocity":0.1889763779527559},{"duration":0.034883720930224626,"midi":80,"time":72.66279069767442,"velocity":0.31496062992125984},{"duration":0.04651162790698038,"midi":68,"time":72.67441860465117,"velocity":0.3700787401574803},{"duration":0.023255813953483084,"midi":56,"time":72.68604651162791,"velocity":0.3228346456692913},{"duration":0.03488372093023884,"midi":63,"time":72.68604651162791,"velocity":0.2047244094488189},{"duration":0.081395348837205,"midi":81,"time":72.68604651162791,"velocity":0.1889763779527559},{"duration":0.023255813953497295,"midi":79,"time":72.69767441860465,"velocity":0.28346456692913385},{"duration":0.03488372093023884,"midi":55,"time":72.70930232558139,"velocity":0.5196850393700787},{"duration":0.023255813953497295,"midi":74,"time":72.70930232558139,"velocity":0.2283464566929134},{"duration":0.023255813953483084,"midi":61,"time":72.72093023255815,"velocity":0.4015748031496063},{"duration":0.023255813953483084,"midi":69,"time":72.72093023255815,"velocity":0.23622047244094488},{"duration":0.034883720930224626,"midi":78,"time":72.72093023255815,"velocity":0.1889763779527559},{"duration":0.081395348837205,"midi":82,"time":72.72093023255815,"velocity":0.15748031496062992},{"duration":0.081395348837205,"midi":88,"time":72.72093023255815,"velocity":0.2125984251968504},{"duration":0.09302325581394655,"midi":89,"time":72.72093023255815,"velocity":0.2047244094488189},{"duration":0.05813953488370771,"midi":96,"time":72.72093023255815,"velocity":0.1889763779527559},{"duration":0.09302325581394655,"midi":102,"time":72.72093023255815,"velocity":0.1732283464566929},{"duration":0.13953488372092693,"midi":75,"time":72.73255813953489,"velocity":0.2283464566929134},{"duration":0.05813953488372192,"midi":83,"time":72.73255813953489,"velocity":0.14960629921259844},{"duration":0.034883720930224626,"midi":86,"time":72.73255813953489,"velocity":0.1732283464566929},{"duration":0.04651162790696617,"midi":90,"time":72.73255813953489,"velocity":0.25196850393700787},{"duration":0.04651162790696617,"midi":95,"time":72.73255813953489,"velocity":0.14960629921259844},{"duration":0.04651162790696617,"midi":97,"time":72.73255813953489,"velocity":0.09448818897637795},{"duration":0.12790697674418539,"midi":68,"time":72.74418604651163,"velocity":0.28346456692913385},{"duration":0.04651162790698038,"midi":91,"time":72.74418604651163,"velocity":0.2204724409448819},{"duration":0.011627906976741542,"midi":45,"time":72.75581395348837,"velocity":0.5669291338582677},{"duration":0.06976744186046346,"midi":56,"time":72.75581395348837,"velocity":0.36220472440944884},{"duration":0.06976744186046346,"midi":85,"time":72.75581395348837,"velocity":0.07874015748031496},{"duration":0.011627906976741542,"midi":44,"time":72.76744186046511,"velocity":0.6141732283464567},{"duration":0.2325581395348877,"midi":72,"time":72.76744186046511,"velocity":0.2283464566929134},{"duration":0.03488372093023884,"midi":99,"time":72.76744186046511,"velocity":0.12598425196850394},{"duration":0.011627906976755753,"midi":43,"time":72.77906976744185,"velocity":0.5826771653543307},{"duration":0.011627906976741542,"midi":42,"time":72.79069767441861,"velocity":0.5669291338582677},{"duration":0.023255813953483084,"midi":51,"time":72.79069767441861,"velocity":0.2755905511811024},{"duration":0.081395348837205,"midi":70,"time":72.80232558139535,"velocity":0.14960629921259844},{"duration":0.023255813953497295,"midi":37,"time":72.83720930232558,"velocity":0.4015748031496063},{"duration":0.1046511627907023,"midi":56,"time":72.83720930232558,"velocity":0.4645669291338583},{"duration":0.03488372093023884,"midi":81,"time":72.83720930232558,"velocity":0.18110236220472442},{"duration":0.034883720930224626,"midi":36,"time":72.86046511627907,"velocity":0.31496062992125984},{"duration":0.03488372093023884,"midi":75,"time":72.88372093023256,"velocity":0.28346456692913385},{"duration":0.09302325581396076,"midi":70,"time":72.8953488372093,"velocity":0.2125984251968504},{"duration":0.05813953488372192,"midi":75,"time":72.93023255813954,"velocity":0.28346456692913385},{"duration":0.023255813953483084,"midi":55,"time":72.94186046511628,"velocity":0.25984251968503935},{"duration":0.03488372093023884,"midi":56,"time":72.96511627906976,"velocity":0.2677165354330709},{"duration":0.034883720930224626,"midi":52,"time":72.97674418604652,"velocity":0.2677165354330709},{"duration":0.04651162790698038,"midi":78,"time":72.98837209302326,"velocity":0.2204724409448819},{"duration":0.034883720930224626,"midi":81,"time":72.98837209302326,"velocity":0.09448818897637795},{"duration":0.05813953488372192,"midi":83,"time":72.98837209302326,"velocity":0.2125984251968504},{"duration":0.04651162790698038,"midi":86,"time":72.98837209302326,"velocity":0.2204724409448819},{"duration":0.023255813953483084,"midi":48,"time":73,"velocity":0.25196850393700787},{"duration":0.05813953488372192,"midi":75,"time":73,"velocity":0.25196850393700787},{"duration":0.023255813953497295,"midi":41,"time":73.01162790697674,"velocity":0.3543307086614173},{"duration":0.04651162790698038,"midi":63,"time":73.01162790697674,"velocity":0.2283464566929134},{"duration":0.05813953488372192,"midi":79,"time":73.02325581395348,"velocity":0.18110236220472442},{"duration":0.023255813953483084,"midi":40,"time":73.03488372093024,"velocity":0.3937007874015748},{"duration":0.081395348837205,"midi":48,"time":73.03488372093024,"velocity":0.30708661417322836},{"duration":0.05813953488372192,"midi":41,"time":73.06976744186046,"velocity":0.30708661417322836},{"duration":0.06976744186046346,"midi":65,"time":73.06976744186046,"velocity":0.10236220472440945},{"duration":0.04651162790698038,"midi":68,"time":73.0813953488372,"velocity":0.1889763779527559},{"duration":0.034883720930224626,"midi":75,"time":73.1046511627907,"velocity":0.2204724409448819},{"duration":0.04651162790698038,"midi":91,"time":73.11627906976744,"velocity":0.2283464566929134},{"duration":0.023255813953483084,"midi":55,"time":73.12790697674419,"velocity":0.2992125984251969},{"duration":0.12790697674418539,"midi":72,"time":73.12790697674419,"velocity":0.14173228346456693},{"duration":0.05813953488372192,"midi":79,"time":73.12790697674419,"velocity":0.2283464566929134},{"duration":0.04651162790698038,"midi":83,"time":73.12790697674419,"velocity":0.2047244094488189},{"duration":0.03488372093023884,"midi":86,"time":73.12790697674419,"velocity":0.11811023622047244},{"duration":0.04651162790698038,"midi":88,"time":73.12790697674419,"velocity":0.2047244094488189},{"duration":0.08139534883721922,"midi":68,"time":73.13953488372093,"velocity":0.25984251968503935},{"duration":0.05813953488372192,"midi":70,"time":73.13953488372093,"velocity":0.16535433070866143},{"duration":0.1046511627907023,"midi":76,"time":73.13953488372093,"velocity":0.25196850393700787},{"duration":0.03488372093023884,"midi":81,"time":73.13953488372093,"velocity":0.18110236220472442},{"duration":0.08139534883721922,"midi":82,"time":73.13953488372093,"velocity":0.18110236220472442},{"duration":0.023255813953497295,"midi":47,"time":73.15116279069767,"velocity":0.3700787401574803},{"duration":0.06976744186047767,"midi":53,"time":73.15116279069767,"velocity":0.2992125984251969},{"duration":0.03488372093023884,"midi":58,"time":73.15116279069767,"velocity":0.33070866141732286},{"duration":0.06976744186047767,"midi":62,"time":73.15116279069767,"velocity":0.1968503937007874},{"duration":0.05813953488372192,"midi":77,"time":73.15116279069767,"velocity":0.14960629921259844},{"duration":0.023255813953497295,"midi":34,"time":73.19767441860465,"velocity":0.3464566929133858},{"duration":0.03488372093023884,"midi":58,"time":73.19767441860465,"velocity":0.2677165354330709},{"duration":0.023255813953483084,"midi":35,"time":73.22093023255815,"velocity":0.33070866141732286},{"duration":0.04651162790698038,"midi":103,"time":73.24418604651163,"velocity":0.2047244094488189},{"duration":0.023255813953483084,"midi":66,"time":73.25581395348837,"velocity":0.2677165354330709},{"duration":0.03488372093023884,"midi":80,"time":73.25581395348837,"velocity":0.14173228346456693},{"duration":0.2674418604651123,"midi":85,"time":73.25581395348837,"velocity":0.2204724409448819},{"duration":0.03488372093023884,"midi":88,"time":73.25581395348837,"velocity":0.1968503937007874},{"duration":0.03488372093023884,"midi":91,"time":73.25581395348837,"velocity":0.2283464566929134},{"duration":0.9651162790697754,"midi":92,"time":73.25581395348837,"velocity":0.3543307086614173},{"duration":0.03488372093023884,"midi":96,"time":73.25581395348837,"velocity":0.2125984251968504},{"duration":0.03488372093023884,"midi":102,"time":73.25581395348837,"velocity":0.1732283464566929},{"duration":0.09302325581396076,"midi":58,"time":73.26744186046511,"velocity":0.2992125984251969},{"duration":0.05813953488372192,"midi":62,"time":73.26744186046511,"velocity":0.2283464566929134},{"duration":0.06976744186046346,"midi":68,"time":73.26744186046511,"velocity":0.15748031496062992},{"duration":0.05813953488372192,"midi":76,"time":73.26744186046511,"velocity":0.2125984251968504},{"duration":0.03488372093023884,"midi":83,"time":73.26744186046511,"velocity":0.11811023622047244},{"duration":0.19767441860464885,"midi":99,"time":73.26744186046511,"velocity":0.2283464566929134},{"duration":0.011627906976755753,"midi":47,"time":73.27906976744185,"velocity":0.5748031496062992},{"duration":0.04651162790698038,"midi":65,"time":73.27906976744185,"velocity":0.2125984251968504},{"duration":0.011627906976741542,"midi":45,"time":73.29069767441861,"velocity":0.6299212598425197},{"duration":0.011627906976741542,"midi":44,"time":73.30232558139535,"velocity":0.6220472440944882},{"duration":0.023255813953483084,"midi":42,"time":73.31395348837209,"velocity":0.5748031496062992},{"duration":0.023255813953497295,"midi":53,"time":73.32558139534883,"velocity":0.30708661417322836},{"duration":0.04651162790698038,"midi":78,"time":73.32558139534883,"velocity":0.14960629921259844},{"duration":0.38372093023255616,"midi":80,"time":73.32558139534883,"velocity":0.29133858267716534},{"duration":0.13953488372094114,"midi":89,"time":73.33720930232558,"velocity":0.1968503937007874},{"duration":0.04651162790696617,"midi":37,"time":73.34883720930233,"velocity":0.49606299212598426},{"duration":0.05813953488372192,"midi":54,"time":73.34883720930233,"velocity":0.30708661417322836},{"duration":0.05813953488372192,"midi":75,"time":73.34883720930233,"velocity":0.13385826771653545},{"duration":0.10465116279068809,"midi":61,"time":73.36046511627907,"velocity":0.18110236220472442},{"duration":0.09302325581394655,"midi":68,"time":73.36046511627907,"velocity":0.18110236220472442},{"duration":0.06976744186046346,"midi":58,"time":73.37209302325581,"velocity":0.2047244094488189},{"duration":0.03488372093023884,"midi":65,"time":73.37209302325581,"velocity":0.18110236220472442},{"duration":0.12790697674418539,"midi":87,"time":73.37209302325581,"velocity":0.1732283464566929},{"duration":0.1860465116279073,"midi":77,"time":73.38372093023256,"velocity":0.2755905511811024},{"duration":0.6046511627907023,"midi":70,"time":73.3953488372093,"velocity":0.41732283464566927},{"duration":0.034883720930224626,"midi":55,"time":73.40697674418605,"velocity":0.18110236220472442},{"duration":0.1046511627907023,"midi":73,"time":73.43023255813954,"velocity":0.25196850393700787},{"duration":0.081395348837205,"midi":54,"time":73.44186046511628,"velocity":0.3464566929133858},{"duration":0.03488372093023884,"midi":58,"time":73.45348837209302,"velocity":0.18110236220472442},{"duration":0.13953488372092693,"midi":99,"time":73.47674418604652,"velocity":0.2283464566929134},{"duration":0.11627906976744384,"midi":102,"time":73.48837209302326,"velocity":0.13385826771653545},{"duration":0.03488372093023884,"midi":86,"time":73.51162790697674,"velocity":0.2440944881889764},{"duration":0.06976744186046346,"midi":87,"time":73.51162790697674,"velocity":0.1889763779527559},{"duration":0.03488372093023884,"midi":95,"time":73.52325581395348,"velocity":0.09448818897637795},{"duration":0.10465116279068809,"midi":44,"time":73.53488372093024,"velocity":0.3543307086614173},{"duration":0.011627906976741542,"midi":56,"time":73.53488372093024,"velocity":0.5354330708661418},{"duration":0.05813953488370771,"midi":72,"time":73.53488372093024,"velocity":0.1968503937007874},{"duration":0.06976744186046346,"midi":74,"time":73.53488372093024,"velocity":0.25196850393700787},{"duration":0.04651162790696617,"midi":81,"time":73.53488372093024,"velocity":0.2047244094488189},{"duration":0.06976744186046346,"midi":85,"time":73.53488372093024,"velocity":0.11811023622047244},{"duration":0.023255813953483084,"midi":57,"time":73.54651162790698,"velocity":0.5433070866141733},{"duration":0.4418604651162781,"midi":94,"time":73.54651162790698,"velocity":0.41732283464566927},{"duration":0.09302325581394655,"midi":51,"time":73.55813953488372,"velocity":0.30708661417322836},{"duration":0.4534883720930196,"midi":96,"time":73.55813953488372,"velocity":0.31496062992125984},{"duration":0.081395348837205,"midi":58,"time":73.56976744186046,"velocity":0.4566929133858268},{"duration":0.4651162790697754,"midi":77,"time":73.59302325581395,"velocity":0.33070866141732286},{"duration":0.15116279069768268,"midi":98,"time":73.59302325581395,"velocity":0.15748031496062992},{"duration":0.16279069767442422,"midi":103,"time":73.59302325581395,"velocity":0.23622047244094488},{"duration":0.023255813953483084,"midi":33,"time":73.6046511627907,"velocity":0.3464566929133858},{"duration":0.05813953488372192,"midi":87,"time":73.61627906976744,"velocity":0.2125984251968504},{"duration":0.04651162790698038,"midi":32,"time":73.62790697674419,"velocity":0.3464566929133858},{"duration":0.05813953488372192,"midi":66,"time":73.62790697674419,"velocity":0.2677165354330709},{"duration":0.03488372093023884,"midi":73,"time":73.62790697674419,"velocity":0.1968503937007874},{"duration":0.023255813953497295,"midi":59,"time":73.65116279069767,"velocity":0.4015748031496063},{"duration":0.03488372093023884,"midi":74,"time":73.65116279069767,"velocity":0.1968503937007874},{"duration":0.04651162790698038,"midi":83,"time":73.65116279069767,"velocity":0.2047244094488189},{"duration":0.04651162790698038,"midi":88,"time":73.65116279069767,"velocity":0.16535433070866143},{"duration":0.03488372093023884,"midi":91,"time":73.65116279069767,"velocity":0.1889763779527559},{"duration":0.034883720930224626,"midi":45,"time":73.66279069767442,"velocity":0.3700787401574803},{"duration":0.081395348837205,"midi":53,"time":73.66279069767442,"velocity":0.28346456692913385},{"duration":0.09302325581394655,"midi":76,"time":73.66279069767442,"velocity":0.2204724409448819},{"duration":0.081395348837205,"midi":85,"time":73.66279069767442,"velocity":0.08661417322834646},{"duration":0.081395348837205,"midi":58,"time":73.67441860465117,"velocity":0.44881889763779526},{"duration":0.04651162790698038,"midi":79,"time":73.67441860465117,"velocity":0.1968503937007874},{"duration":0.1046511627907023,"midi":65,"time":73.68604651162791,"velocity":0.3858267716535433},{"duration":0.34883720930233153,"midi":73,"time":73.69767441860465,"velocity":0.2677165354330709},{"duration":0.023255813953497295,"midi":35,"time":73.70930232558139,"velocity":0.3543307086614173},{"duration":0.08139534883721922,"midi":46,"time":73.70930232558139,"velocity":0.29133858267716534},{"duration":0.05813953488370771,"midi":68,"time":73.72093023255815,"velocity":0.2283464566929134},{"duration":0.05813953488372192,"midi":34,"time":73.73255813953489,"velocity":0.3700787401574803},{"duration":0.12790697674418539,"midi":80,"time":73.73255813953489,"velocity":0.28346456692913385},{"duration":0.09302325581394655,"midi":87,"time":73.73255813953489,"velocity":0.14960629921259844},{"duration":0.4418604651162781,"midi":82,"time":73.74418604651163,"velocity":0.4566929133858268},{"duration":0.03488372093023884,"midi":57,"time":73.75581395348837,"velocity":0.47244094488188976},{"duration":0.15116279069768268,"midi":99,"time":73.75581395348837,"velocity":0.2440944881889764},{"duration":0.09302325581396076,"midi":102,"time":73.76744186046511,"velocity":0.25196850393700787},{"duration":0.03488372093023884,"midi":84,"time":73.77906976744185,"velocity":0.12598425196850394},{"duration":0.08139534883721922,"midi":88,"time":73.77906976744185,"velocity":0.25196850393700787},{"duration":0.08139534883721922,"midi":90,"time":73.77906976744185,"velocity":0.2677165354330709},{"duration":0.06976744186047767,"midi":91,"time":73.77906976744185,"velocity":0.25196850393700787},{"duration":0.05813953488372192,"midi":95,"time":73.77906976744185,"velocity":0.1968503937007874},{"duration":0.05813953488372192,"midi":97,"time":73.77906976744185,"velocity":0.12598425196850394},{"duration":0.04651162790698038,"midi":98,"time":73.77906976744185,"velocity":0.18110236220472442},{"duration":0.19767441860466306,"midi":101,"time":73.77906976744185,"velocity":0.2283464566929134},{"duration":0.011627906976741542,"midi":55,"time":73.79069767441861,"velocity":0.5118110236220472},{"duration":0.023255813953483084,"midi":60,"time":73.79069767441861,"velocity":0.4015748031496063},{"duration":0.034883720930224626,"midi":83,"time":73.79069767441861,"velocity":0.14173228346456693},{"duration":0.06976744186046346,"midi":93,"time":73.79069767441861,"velocity":0.12598425196850394},{"duration":0.011627906976741542,"midi":45,"time":73.81395348837209,"velocity":0.5748031496062992},{"duration":0.023255813953483084,"midi":58,"time":73.81395348837209,"velocity":0.29133858267716534},{"duration":0.011627906976741542,"midi":44,"time":73.82558139534883,"velocity":0.6141732283464567},{"duration":0.011627906976755753,"midi":43,"time":73.83720930232558,"velocity":0.5826771653543307},{"duration":0.023255813953497295,"midi":57,"time":73.83720930232558,"velocity":0.23622047244094488},{"duration":0.22093023255814614,"midi":87,"time":73.83720930232558,"velocity":0.2440944881889764},{"duration":0.011627906976741542,"midi":42,"time":73.84883720930233,"velocity":0.5590551181102362},{"duration":0.023255813953483084,"midi":53,"time":73.87209302325581,"velocity":0.30708661417322836},{"duration":0.023255813953497295,"midi":37,"time":73.8953488372093,"velocity":0.3858267716535433},{"duration":0.6744186046511658,"midi":80,"time":73.8953488372093,"velocity":0.3937007874015748},{"duration":0.034883720930224626,"midi":58,"time":73.90697674418605,"velocity":0.2755905511811024},{"duration":0.05813953488370771,"midi":66,"time":73.90697674418605,"velocity":0.31496062992125984},{"duration":0.04651162790696617,"midi":91,"time":73.90697674418605,"velocity":0.1968503937007874},{"duration":0.023255813953483084,"midi":36,"time":73.9186046511628,"velocity":0.2992125984251969},{"duration":0.04651162790696617,"midi":61,"time":73.9186046511628,"velocity":0.29133858267716534},{"duration":0.06976744186046346,"midi":86,"time":73.9186046511628,"velocity":0.18110236220472442},{"duration":0.023255813953483084,"midi":48,"time":73.93023255813954,"velocity":0.33858267716535434},{"duration":0.081395348837205,"midi":75,"time":73.93023255813954,"velocity":0.10236220472440945},{"duration":0.034883720930224626,"midi":79,"time":73.93023255813954,"velocity":0.2047244094488189},{"duration":0.04651162790698038,"midi":84,"time":73.93023255813954,"velocity":0.11023622047244094},{"duration":0.16279069767441,"midi":102,"time":73.93023255813954,"velocity":0.2283464566929134},{"duration":0.023255813953483084,"midi":40,"time":73.94186046511628,"velocity":0.2677165354330709},{"duration":0.15116279069766847,"midi":99,"time":73.94186046511628,"velocity":0.29133858267716534},{"duration":0.03488372093023884,"midi":49,"time":73.95348837209302,"velocity":0.29133858267716534},{"duration":0.03488372093023884,"midi":58,"time":73.95348837209302,"velocity":0.3543307086614173},{"duration":0.03488372093023884,"midi":78,"time":73.96511627906976,"velocity":0.1889763779527559},{"duration":0.023255813953483084,"midi":36,"time":73.97674418604652,"velocity":0.3700787401574803},{"duration":0.023255813953483084,"midi":66,"time":73.97674418604652,"velocity":0.31496062992125984},{"duration":0.023255813953483084,"midi":49,"time":74,"velocity":0.2283464566929134},{"duration":0.023255813953483084,"midi":56,"time":74,"velocity":0.3858267716535433},{"duration":0.06976744186046346,"midi":66,"time":74.01162790697674,"velocity":0.2755905511811024},{"duration":0.03488372093023884,"midi":70,"time":74.01162790697674,"velocity":0.33070866141732286},{"duration":0.03488372093023884,"midi":37,"time":74.02325581395348,"velocity":0.25196850393700787},{"duration":0.023255813953497295,"midi":58,"time":74.02325581395348,"velocity":0.3464566929133858},{"duration":0.023255813953483084,"midi":55,"time":74.04651162790698,"velocity":0.3228346456692913},{"duration":0.023255813953483084,"midi":59,"time":74.04651162790698,"velocity":0.3779527559055118},{"duration":0.04651162790696617,"midi":88,"time":74.04651162790698,"velocity":0.2992125984251969},{"duration":0.12790697674418539,"midi":91,"time":74.04651162790698,"velocity":0.3779527559055118},{"duration":0.2674418604651123,"midi":96,"time":74.04651162790698,"velocity":0.36220472440944884},{"duration":0.1046511627907023,"midi":72,"time":74.05813953488372,"velocity":0.4566929133858268},{"duration":0.034883720930224626,"midi":76,"time":74.05813953488372,"velocity":0.15748031496062992},{"duration":0.081395348837205,"midi":93,"time":74.05813953488372,"velocity":0.2125984251968504},{"duration":0.11627906976744384,"midi":98,"time":74.05813953488372,"velocity":0.3700787401574803},{"duration":0.1046511627907023,"midi":101,"time":74.05813953488372,"velocity":0.23622047244094488},{"duration":0.1046511627907023,"midi":60,"time":74.06976744186046,"velocity":0.4015748031496063},{"duration":0.06976744186046346,"midi":64,"time":74.06976744186046,"velocity":0.25984251968503935},{"duration":0.08139534883721922,"midi":48,"time":74.0813953488372,"velocity":0.33070866141732286},{"duration":0.08139534883721922,"midi":55,"time":74.0813953488372,"velocity":0.33070866141732286},{"duration":0.27906976744186807,"midi":77,"time":74.09302325581395,"velocity":0.2992125984251969},{"duration":0.03488372093023884,"midi":79,"time":74.09302325581395,"velocity":0.12598425196850394},{"duration":0.255813953488385,"midi":87,"time":74.09302325581395,"velocity":0.2204724409448819},{"duration":0.2906976744185954,"midi":66,"time":74.1046511627907,"velocity":0.33858267716535434},{"duration":0.06976744186046346,"midi":36,"time":74.11627906976744,"velocity":0.36220472440944884},{"duration":0.7441860465116292,"midi":99,"time":74.11627906976744,"velocity":0.3464566929133858},{"duration":0.33720930232559,"midi":102,"time":74.13953488372093,"velocity":0.3464566929133858},{"duration":0.03488372093023884,"midi":70,"time":74.15116279069767,"velocity":0.25196850393700787},{"duration":0.09302325581396076,"midi":73,"time":74.15116279069767,"velocity":0.25196850393700787},{"duration":0.034883720930224626,"midi":57,"time":74.17441860465117,"velocity":0.4251968503937008},{"duration":0.03488372093023884,"midi":70,"time":74.19767441860465,"velocity":0.1889763779527559},{"duration":0.09302325581396076,"midi":56,"time":74.20930232558139,"velocity":0.3858267716535433},{"duration":0.081395348837205,"midi":72,"time":74.23255813953489,"velocity":0.31496062992125984},{"duration":0.11627906976744384,"midi":103,"time":74.25581395348837,"velocity":0.33070866141732286},{"duration":0.04651162790698038,"midi":98,"time":74.27906976744185,"velocity":0.2755905511811024},{"duration":0.06976744186046346,"midi":62,"time":74.29069767441861,"velocity":0.41732283464566927},{"duration":0.05813953488372192,"midi":91,"time":74.29069767441861,"velocity":0.16535433070866143},{"duration":0.05813953488372192,"midi":93,"time":74.29069767441861,"velocity":0.18110236220472442},{"duration":0.04651162790696617,"midi":94,"time":74.29069767441861,"velocity":0.2047244094488189},{"duration":0.09302325581394655,"midi":95,"time":74.29069767441861,"velocity":0.3937007874015748},{"duration":0.034883720930224626,"midi":100,"time":74.29069767441861,"velocity":0.2992125984251969},{"duration":0.22093023255813193,"midi":101,"time":74.29069767441861,"velocity":0.33070866141732286},{"duration":0.023255813953483084,"midi":57,"time":74.30232558139535,"velocity":0.2755905511811024},{"duration":0.034883720930224626,"midi":88,"time":74.30232558139535,"velocity":0.11023622047244094},{"duration":0.04651162790698038,"midi":70,"time":74.31395348837209,"velocity":0.2125984251968504},{"duration":0.03488372093023884,"midi":81,"time":74.31395348837209,"velocity":0.1732283464566929},{"duration":0.19767441860464885,"midi":97,"time":74.31395348837209,"velocity":0.2755905511811024},{"duration":0.22093023255814614,"midi":68,"time":74.32558139534883,"velocity":0.33070866141732286},{"duration":0.011627906976755753,"midi":47,"time":74.33720930232558,"velocity":0.5275590551181102},{"duration":0.08139534883721922,"midi":60,"time":74.33720930232558,"velocity":0.25196850393700787},{"duration":0.011627906976741542,"midi":45,"time":74.34883720930233,"velocity":0.5905511811023622},{"duration":0.17441860465115155,"midi":73,"time":74.34883720930233,"velocity":0.4566929133858268},{"duration":0.011627906976741542,"midi":43,"time":74.36046511627907,"velocity":0.5905511811023622},{"duration":0.023255813953483084,"midi":42,"time":74.37209302325581,"velocity":0.5669291338582677},{"duration":0.13953488372092693,"midi":70,"time":74.37209302325581,"velocity":0.25196850393700787},{"duration":0.03488372093023884,"midi":51,"time":74.38372093023256,"velocity":0.30708661417322836},{"duration":0.03488372093023884,"midi":56,"time":74.38372093023256,"velocity":0.23622047244094488},{"duration":0.4767441860465169,"midi":77,"time":74.38372093023256,"velocity":0.3779527559055118},{"duration":0.03488372093023884,"midi":94,"time":74.38372093023256,"velocity":0.4330708661417323},{"duration":0.011627906976755753,"midi":41,"time":74.3953488372093,"velocity":0.5196850393700787},{"duration":0.081395348837205,"midi":61,"time":74.4186046511628,"velocity":0.2992125984251969},{"duration":0.13953488372092693,"midi":95,"time":74.4186046511628,"velocity":0.3937007874015748},{"duration":0.05813953488372192,"midi":51,"time":74.43023255813954,"velocity":0.2125984251968504},{"duration":0.06976744186046346,"midi":103,"time":74.43023255813954,"velocity":0.30708661417322836},{"duration":0.023255813953497295,"midi":34,"time":74.45348837209302,"velocity":0.4094488188976378},{"duration":0.023255813953497295,"midi":66,"time":74.45348837209302,"velocity":0.2283464566929134},{"duration":0.023255813953483084,"midi":66,"time":74.5,"velocity":0.23622047244094488},{"duration":0.03488372093023884,"midi":94,"time":74.5,"velocity":0.31496062992125984},{"duration":0.27906976744185386,"midi":102,"time":74.5,"velocity":0.3858267716535433},{"duration":0.03488372093023884,"midi":103,"time":74.51162790697674,"velocity":0.11811023622047244},{"duration":0.023255813953497295,"midi":72,"time":74.52325581395348,"velocity":0.30708661417322836},{"duration":0.023255813953483084,"midi":59,"time":74.53488372093024,"velocity":0.4409448818897638},{"duration":0.081395348837205,"midi":66,"time":74.53488372093024,"velocity":0.30708661417322836},{"duration":0.11627906976742963,"midi":70,"time":74.53488372093024,"velocity":0.3937007874015748},{"duration":0.25581395348837077,"midi":96,"time":74.54651162790698,"velocity":0.2755905511811024},{"duration":0.034883720930224626,"midi":58,"time":74.55813953488372,"velocity":0.4645669291338583},{"duration":0.24418604651162923,"midi":73,"time":74.55813953488372,"velocity":0.36220472440944884},{"duration":0.17441860465116577,"midi":94,"time":74.55813953488372,"velocity":0.2047244094488189},{"duration":0.1046511627907023,"midi":86,"time":74.56976744186046,"velocity":0.13385826771653545},{"duration":0.04651162790698038,"midi":91,"time":74.56976744186046,"velocity":0.2125984251968504},{"duration":0.03488372093023884,"midi":95,"time":74.56976744186046,"velocity":0.11811023622047244},{"duration":0.04651162790698038,"midi":79,"time":74.5813953488372,"velocity":0.2125984251968504},{"duration":0.04651162790698038,"midi":83,"time":74.5813953488372,"velocity":0.2047244094488189},{"duration":0.03488372093023884,"midi":88,"time":74.5813953488372,"velocity":0.2204724409448819},{"duration":0.13953488372094114,"midi":53,"time":74.59302325581395,"velocity":0.31496062992125984},{"duration":0.03488372093023884,"midi":76,"time":74.59302325581395,"velocity":0.2440944881889764},{"duration":0.255813953488385,"midi":80,"time":74.59302325581395,"velocity":0.33070866141732286},{"duration":0.034883720930224626,"midi":58,"time":74.6046511627907,"velocity":0.30708661417322836},{"duration":0.081395348837205,"midi":46,"time":74.61627906976744,"velocity":0.31496062992125984},{"duration":0.023255813953483084,"midi":62,"time":74.61627906976744,"velocity":0.23622047244094488},{"duration":0.081395348837205,"midi":87,"time":74.61627906976744,"velocity":0.12598425196850394},{"duration":0.081395348837205,"midi":91,"time":74.62790697674419,"velocity":0.2047244094488189},{"duration":0.03488372093023884,"midi":61,"time":74.63953488372093,"velocity":0.25196850393700787},{"duration":0.023255813953497295,"midi":66,"time":74.63953488372093,"velocity":0.2283464566929134},{"duration":0.03488372093023884,"midi":95,"time":74.65116279069767,"velocity":0.07874015748031496},{"duration":0.06976744186046346,"midi":34,"time":74.66279069767442,"velocity":0.3858267716535433},{"duration":0.09302325581394655,"midi":58,"time":74.66279069767442,"velocity":0.3937007874015748},{"duration":0.05813953488372192,"midi":66,"time":74.68604651162791,"velocity":0.2204724409448819},{"duration":0.03488372093023884,"midi":86,"time":74.69767441860465,"velocity":0.16535433070866143},{"duration":0.19767441860466306,"midi":92,"time":74.70930232558139,"velocity":0.33858267716535434},{"duration":0.2674418604651123,"midi":87,"time":74.74418604651163,"velocity":0.2755905511811024},{"duration":0.023255813953483084,"midi":57,"time":74.75581395348837,"velocity":0.4251968503937008},{"duration":0.06976744186046346,"midi":61,"time":74.75581395348837,"velocity":0.2047244094488189},{"duration":0.03488372093023884,"midi":56,"time":74.77906976744185,"velocity":0.4645669291338583},{"duration":0.023255813953483084,"midi":65,"time":74.80232558139535,"velocity":0.2440944881889764},{"duration":0.25581395348837077,"midi":102,"time":74.80232558139535,"velocity":0.18110236220472442},{"duration":0.06976744186046346,"midi":73,"time":74.81395348837209,"velocity":0.2677165354330709},{"duration":0.023255813953497295,"midi":66,"time":74.82558139534883,"velocity":0.3779527559055118},{"duration":0.023255813953497295,"midi":55,"time":74.83720930232558,"velocity":0.5433070866141733},{"duration":0.023255813953497295,"midi":63,"time":74.83720930232558,"velocity":0.3858267716535433},{"duration":0.22093023255814614,"midi":68,"time":74.83720930232558,"velocity":0.41732283464566927},{"duration":0.09302325581396076,"midi":90,"time":74.83720930232558,"velocity":0.2440944881889764},{"duration":0.09302325581396076,"midi":93,"time":74.83720930232558,"velocity":0.11023622047244094},{"duration":0.11627906976744384,"midi":95,"time":74.83720930232558,"velocity":0.2440944881889764},{"duration":0.05813953488372192,"midi":96,"time":74.83720930232558,"velocity":0.2125984251968504},{"duration":0.05813953488372192,"midi":97,"time":74.83720930232558,"velocity":0.14173228346456693},{"duration":0.03488372093023884,"midi":100,"time":74.83720930232558,"velocity":0.1889763779527559},{"duration":0.03488372093023884,"midi":103,"time":74.83720930232558,"velocity":0.15748031496062992},{"duration":0.034883720930224626,"midi":81,"time":74.84883720930233,"velocity":0.16535433070866143},{"duration":0.034883720930224626,"midi":88,"time":74.84883720930233,"velocity":0.2204724409448819},{"duration":0.023255813953483084,"midi":45,"time":74.86046511627907,"velocity":0.5748031496062992},{"duration":0.16279069767441,"midi":75,"time":74.86046511627907,"velocity":0.2992125984251969},{"duration":0.04651162790698038,"midi":83,"time":74.86046511627907,"velocity":0.11811023622047244},{"duration":0.04651162790698038,"midi":91,"time":74.86046511627907,"velocity":0.11023622047244094},{"duration":0.023255813953483084,"midi":56,"time":74.87209302325581,"velocity":0.23622047244094488},{"duration":0.011627906976741542,"midi":44,"time":74.88372093023256,"velocity":0.6062992125984252},{"duration":0.011627906976755753,"midi":43,"time":74.8953488372093,"velocity":0.5826771653543307},{"duration":0.03488372093023884,"midi":57,"time":74.8953488372093,"velocity":0.31496062992125984},{"duration":0.27906976744186807,"midi":77,"time":74.8953488372093,"velocity":0.2440944881889764},{"duration":0.011627906976741542,"midi":42,"time":74.90697674418605,"velocity":0.5511811023622047},{"duration":0.034883720930224626,"midi":73,"time":74.90697674418605,"velocity":0.07874015748031496},{"duration":0.09302325581394655,"midi":96,"time":74.9186046511628,"velocity":0.2677165354330709},{"duration":0.5232558139534831,"midi":92,"time":74.93023255813954,"velocity":0.3700787401574803},{"duration":0.023255813953497295,"midi":37,"time":74.95348837209302,"velocity":0.3700787401574803},{"duration":0.09302325581396076,"midi":56,"time":74.95348837209302,"velocity":0.41732283464566927},{"duration":0.05813953488372192,"midi":70,"time":74.95348837209302,"velocity":0.18110236220472442},{"duration":0.023255813953483084,"midi":36,"time":74.97674418604652,"velocity":0.2992125984251969},{"duration":0.06976744186046346,"midi":73,"time":74.98837209302326,"velocity":0.25196850393700787},{"duration":0.09302325581394655,"midi":90,"time":74.98837209302326,"velocity":0.16535433070866143},{"duration":0.05813953488372192,"midi":81,"time":75.01162790697674,"velocity":0.2755905511811024},{"duration":0.04651162790698038,"midi":88,"time":75.01162790697674,"velocity":0.33858267716535434},{"duration":0.03488372093023884,"midi":76,"time":75.02325581395348,"velocity":0.33858267716535434},{"duration":0.03488372093023884,"midi":95,"time":75.02325581395348,"velocity":0.2047244094488189},{"duration":0.034883720930224626,"midi":57,"time":75.04651162790698,"velocity":0.3464566929133858},{"duration":0.05813953488372192,"midi":70,"time":75.04651162790698,"velocity":0.2204724409448819},{"duration":0.034883720930224626,"midi":84,"time":75.04651162790698,"velocity":0.1732283464566929},{"duration":0.034883720930224626,"midi":75,"time":75.05813953488372,"velocity":0.3700787401574803},{"duration":0.09302325581394655,"midi":94,"time":75.05813953488372,"velocity":0.1968503937007874},{"duration":0.17441860465116577,"midi":80,"time":75.06976744186046,"velocity":0.29133858267716534},{"duration":0.08139534883721922,"midi":68,"time":75.0813953488372,"velocity":0.29133858267716534},{"duration":0.06976744186046346,"midi":83,"time":75.0813953488372,"velocity":0.2125984251968504},{"duration":0.04651162790698038,"midi":55,"time":75.09302325581395,"velocity":0.3779527559055118},{"duration":0.05813953488372192,"midi":74,"time":75.09302325581395,"velocity":0.3700787401574803},{"duration":0.05813953488372192,"midi":88,"time":75.09302325581395,"velocity":0.2125984251968504},{"duration":0.05813953488372192,"midi":91,"time":75.09302325581395,"velocity":0.25196850393700787},{"duration":0.034883720930224626,"midi":79,"time":75.1046511627907,"velocity":0.2755905511811024},{"duration":0.034883720930224626,"midi":93,"time":75.1046511627907,"velocity":0.07086614173228346},{"duration":0.023255813953483084,"midi":60,"time":75.11627906976744,"velocity":0.28346456692913385},{"duration":0.023255813953483084,"midi":45,"time":75.12790697674419,"velocity":0.36220472440944884},{"duration":0.023255813953483084,"midi":76,"time":75.12790697674419,"velocity":0.25984251968503935},{"duration":0.06976744186047767,"midi":46,"time":75.15116279069767,"velocity":0.2992125984251969},{"duration":0.12790697674418539,"midi":73,"time":75.15116279069767,"velocity":0.2283464566929134},{"duration":0.03488372093023884,"midi":79,"time":75.15116279069767,"velocity":0.07874015748031496},{"duration":0.023255813953483084,"midi":56,"time":75.16279069767442,"velocity":0.44881889763779526},{"duration":0.034883720930224626,"midi":76,"time":75.16279069767442,"velocity":0.2677165354330709},{"duration":0.023255813953483084,"midi":35,"time":75.17441860465117,"velocity":0.36220472440944884},{"duration":0.22093023255813193,"midi":102,"time":75.17441860465117,"velocity":0.1968503937007874},{"duration":0.03488372093023884,"midi":57,"time":75.18604651162791,"velocity":0.4330708661417323},{"duration":0.04651162790698038,"midi":34,"time":75.19767441860465,"velocity":0.3543307086614173},{"duration":0.05813953488372192,"midi":75,"time":75.19767441860465,"velocity":0.25196850393700787},{"duration":0.03488372093023884,"midi":77,"time":75.20930232558139,"velocity":0.13385826771653545},{"duration":0.034883720930224626,"midi":56,"time":75.22093023255815,"velocity":0.3228346456692913},{"duration":0.023255813953483084,"midi":69,"time":75.23255813953489,"velocity":0.25984251968503935},{"duration":0.04651162790696617,"midi":91,"time":75.23255813953489,"velocity":0.18110236220472442},{"duration":0.04651162790698038,"midi":83,"time":75.24418604651163,"velocity":0.14173228346456693},{"duration":0.023255813953483084,"midi":45,"time":75.25581395348837,"velocity":0.31496062992125984},{"duration":0.04651162790698038,"midi":62,"time":75.25581395348837,"velocity":0.16535433070866143},{"duration":0.04651162790698038,"midi":68,"time":75.25581395348837,"velocity":0.2440944881889764},{"duration":0.023255813953497295,"midi":75,"time":75.26744186046511,"velocity":0.25984251968503935},{"duration":0.03488372093023884,"midi":79,"time":75.26744186046511,"velocity":0.14960629921259844},{"duration":0.023255813953497295,"midi":37,"time":75.27906976744185,"velocity":0.2677165354330709},{"duration":0.05813953488372192,"midi":76,"time":75.27906976744185,"velocity":0.15748031496062992},{"duration":0.3604651162790731,"midi":80,"time":75.27906976744185,"velocity":0.2992125984251969},{"duration":0.418604651162795,"midi":99,"time":75.31395348837209,"velocity":0.30708661417322836},{"duration":0.04651162790698038,"midi":34,"time":75.32558139534883,"velocity":0.30708661417322836},{"duration":0.03488372093023884,"midi":68,"time":75.32558139534883,"velocity":0.09448818897637795},{"duration":0.03488372093023884,"midi":75,"time":75.33720930232558,"velocity":0.15748031496062992},{"duration":0.023255813953483084,"midi":56,"time":75.34883720930233,"velocity":0.2283464566929134},{"duration":0.034883720930224626,"midi":96,"time":75.36046511627907,"velocity":0.1968503937007874},{"duration":0.09302325581394655,"midi":69,"time":75.37209302325581,"velocity":0.2283464566929134},{"duration":0.05813953488372192,"midi":76,"time":75.37209302325581,"velocity":0.15748031496062992},{"duration":0.03488372093023884,"midi":85,"time":75.37209302325581,"velocity":0.07874015748031496},{"duration":0.03488372093023884,"midi":88,"time":75.37209302325581,"velocity":0.15748031496062992},{"duration":0.011627906976755753,"midi":48,"time":75.3953488372093,"velocity":0.5433070866141733},{"duration":0.011627906976741542,"midi":45,"time":75.40697674418605,"velocity":0.6299212598425197},{"duration":0.04651162790696617,"midi":61,"time":75.40697674418605,"velocity":0.13385826771653545},{"duration":0.011627906976741542,"midi":44,"time":75.4186046511628,"velocity":0.6299212598425197},{"duration":0.011627906976741542,"midi":43,"time":75.43023255813954,"velocity":0.5826771653543307},{"duration":0.06976744186046346,"midi":65,"time":75.43023255813954,"velocity":0.2125984251968504},{"duration":0.12790697674418539,"midi":73,"time":75.43023255813954,"velocity":0.2440944881889764},{"duration":0.011627906976741542,"midi":42,"time":75.44186046511628,"velocity":0.5196850393700787},{"duration":0.08139534883721922,"midi":70,"time":75.45348837209302,"velocity":0.11811023622047244},{"duration":0.05813953488372192,"midi":96,"time":75.45348837209302,"velocity":0.09448818897637795},{"duration":0.04651162790698038,"midi":102,"time":75.45348837209302,"velocity":0.15748031496062992},{"duration":0.05813953488372192,"midi":58,"time":75.46511627906976,"velocity":0.18110236220472442},{"duration":0.17441860465115155,"midi":92,"time":75.47674418604652,"velocity":0.31496062992125984},{"duration":0.023255813953483084,"midi":35,"time":75.48837209302326,"velocity":0.31496062992125984},{"duration":0.03488372093023884,"midi":61,"time":75.51162790697674,"velocity":0.10236220472440945},{"duration":0.06976744186046346,"midi":77,"time":75.51162790697674,"velocity":0.07874015748031496},{"duration":0.023255813953497295,"midi":36,"time":75.52325581395348,"velocity":0.33858267716535434},{"duration":0.04651162790698038,"midi":66,"time":75.52325581395348,"velocity":0.2755905511811024},{"duration":0.04651162790696617,"midi":55,"time":75.54651162790698,"velocity":0.48031496062992124},{"duration":0.081395348837205,"midi":102,"time":75.54651162790698,"velocity":0.1889763779527559},{"duration":0.06976744186046346,"midi":68,"time":75.56976744186046,"velocity":0.2755905511811024},{"duration":0.06976744186046346,"midi":96,"time":75.56976744186046,"velocity":0.14173228346456693},{"duration":0.04651162790698038,"midi":56,"time":75.59302325581395,"velocity":0.4881889763779528},{"duration":0.04651162790696617,"midi":73,"time":75.6046511627907,"velocity":0.2204724409448819},{"duration":0.023255813953483084,"midi":66,"time":75.62790697674419,"velocity":0.23622047244094488},{"duration":0.03488372093023884,"midi":83,"time":75.62790697674419,"velocity":0.18110236220472442},{"duration":0.04651162790698038,"midi":84,"time":75.62790697674419,"velocity":0.2755905511811024},{"duration":0.06976744186046346,"midi":69,"time":75.63953488372093,"velocity":0.25984251968503935},{"duration":0.023255813953497295,"midi":76,"time":75.63953488372093,"velocity":0.2677165354330709},{"duration":0.3139534883720927,"midi":89,"time":75.63953488372093,"velocity":0.2755905511811024},{"duration":0.04651162790698038,"midi":90,"time":75.63953488372093,"velocity":0.1889763779527559},{"duration":0.023255813953497295,"midi":65,"time":75.65116279069767,"velocity":0.2755905511811024},{"duration":0.12790697674418539,"midi":95,"time":75.65116279069767,"velocity":0.18110236220472442},{"duration":0.023255813953483084,"midi":63,"time":75.66279069767442,"velocity":0.4409448818897638},{"duration":0.04651162790696617,"midi":77,"time":75.66279069767442,"velocity":0.2992125984251969},{"duration":0.04651162790696617,"midi":91,"time":75.66279069767442,"velocity":0.2755905511811024},{"duration":0.034883720930224626,"midi":92,"time":75.66279069767442,"velocity":0.2047244094488189},{"duration":0.05813953488372192,"midi":94,"time":75.66279069767442,"velocity":0.2755905511811024},{"duration":0.22093023255813193,"midi":96,"time":75.66279069767442,"velocity":0.2755905511811024},{"duration":0.5,"midi":101,"time":75.66279069767442,"velocity":0.3700787401574803},{"duration":0.034883720930224626,"midi":58,"time":75.67441860465117,"velocity":0.3228346456692913},{"duration":0.09302325581394655,"midi":80,"time":75.67441860465117,"velocity":0.2440944881889764},{"duration":0.09302325581394655,"midi":97,"time":75.67441860465117,"velocity":0.3779527559055118},{"duration":0.023255813953483084,"midi":37,"time":75.68604651162791,"velocity":0.36220472440944884},{"duration":0.081395348837205,"midi":73,"time":75.69767441860465,"velocity":0.16535433070866143},{"duration":0.081395348837205,"midi":76,"time":75.69767441860465,"velocity":0.48031496062992124},{"duration":0.06976744186046346,"midi":84,"time":75.69767441860465,"velocity":0.2125984251968504},{"duration":0.06976744186046346,"midi":102,"time":75.69767441860465,"velocity":0.3228346456692913},{"duration":0.04651162790698038,"midi":64,"time":75.70930232558139,"velocity":0.3543307086614173},{"duration":0.034883720930224626,"midi":77,"time":75.72093023255815,"velocity":0.33070866141732286},{"duration":0.05813953488370771,"midi":83,"time":75.72093023255815,"velocity":0.2204724409448819},{"duration":0.023255813953483084,"midi":98,"time":75.72093023255815,"velocity":0.25984251968503935},{"duration":0.023255813953483084,"midi":45,"time":75.73255813953489,"velocity":0.2440944881889764},{"duration":0.04651162790698038,"midi":93,"time":75.74418604651163,"velocity":0.12598425196850394},{"duration":0.32558139534883423,"midi":99,"time":75.74418604651163,"velocity":0.3228346456692913},{"duration":0.15116279069768268,"midi":91,"time":75.75581395348837,"velocity":0.13385826771653545},{"duration":0.023255813953497295,"midi":55,"time":75.76744186046511,"velocity":0.28346456692913385},{"duration":0.03488372093023884,"midi":81,"time":75.76744186046511,"velocity":0.2125984251968504},{"duration":0.05813953488372192,"midi":69,"time":75.77906976744185,"velocity":0.2440944881889764},{"duration":0.03488372093023884,"midi":72,"time":75.77906976744185,"velocity":0.23622047244094488},{"duration":0.1279069767441996,"midi":75,"time":75.77906976744185,"velocity":0.48031496062992124},{"duration":0.1046511627907023,"midi":82,"time":75.77906976744185,"velocity":0.23622047244094488},{"duration":0.081395348837205,"midi":77,"time":75.79069767441861,"velocity":0.31496062992125984},{"duration":0.023255813953483084,"midi":38,"time":75.80232558139535,"velocity":0.36220472440944884},{"duration":0.023255813953483084,"midi":55,"time":75.80232558139535,"velocity":0.33858267716535434},{"duration":0.081395348837205,"midi":80,"time":75.80232558139535,"velocity":0.1889763779527559},{"duration":0.04651162790698038,"midi":63,"time":75.81395348837209,"velocity":0.3464566929133858},{"duration":0.03488372093023884,"midi":70,"time":75.82558139534883,"velocity":0.2283464566929134},{"duration":0.08139534883721922,"midi":73,"time":75.82558139534883,"velocity":0.15748031496062992},{"duration":0.04651162790698038,"midi":103,"time":75.82558139534883,"velocity":0.16535433070866143},{"duration":0.03488372093023884,"midi":39,"time":75.83720930232558,"velocity":0.33070866141732286},{"duration":0.023255813953483084,"midi":55,"time":75.84883720930233,"velocity":0.2677165354330709},{"duration":0.12790697674418539,"midi":97,"time":75.86046511627907,"velocity":0.14960629921259844},{"duration":0.03488372093023884,"midi":63,"time":75.87209302325581,"velocity":0.4330708661417323},{"duration":0.03488372093023884,"midi":65,"time":75.87209302325581,"velocity":0.3779527559055118},{"duration":0.03488372093023884,"midi":55,"time":75.88372093023256,"velocity":0.49606299212598426},{"duration":0.09302325581396076,"midi":88,"time":75.88372093023256,"velocity":0.2677165354330709},{"duration":0.081395348837205,"midi":102,"time":75.88372093023256,"velocity":0.1889763779527559},{"duration":0.06976744186046346,"midi":82,"time":75.8953488372093,"velocity":0.18110236220472442},{"duration":0.06976744186046346,"midi":90,"time":75.8953488372093,"velocity":0.3228346456692913},{"duration":0.03488372093023884,"midi":93,"time":75.8953488372093,"velocity":0.14960629921259844},{"duration":0.09302325581396076,"midi":94,"time":75.8953488372093,"velocity":0.2047244094488189},{"duration":0.05813953488372192,"midi":95,"time":75.8953488372093,"velocity":0.14173228346456693},{"duration":0.15116279069768268,"midi":96,"time":75.8953488372093,"velocity":0.2204724409448819},{"duration":0.13953488372094114,"midi":103,"time":75.8953488372093,"velocity":0.2440944881889764},{"duration":0.034883720930224626,"midi":60,"time":75.90697674418605,"velocity":0.3700787401574803},{"duration":0.023255813953483084,"midi":64,"time":75.90697674418605,"velocity":0.44881889763779526},{"duration":0.04651162790696617,"midi":98,"time":75.90697674418605,"velocity":0.15748031496062992},{"duration":0.023255813953483084,"midi":45,"time":75.9186046511628,"velocity":0.5669291338582677},{"duration":0.04651162790696617,"midi":83,"time":75.9186046511628,"velocity":0.12598425196850394},{"duration":0.034883720930224626,"midi":85,"time":75.9186046511628,"velocity":0.08661417322834646},{"duration":0.04651162790696617,"midi":91,"time":75.9186046511628,"velocity":0.2283464566929134},{"duration":0.13953488372092693,"midi":65,"time":75.93023255813954,"velocity":0.4566929133858268},{"duration":0.16279069767441,"midi":84,"time":75.93023255813954,"velocity":0.2755905511811024},{"duration":0.011627906976741542,"midi":44,"time":75.94186046511628,"velocity":0.6062992125984252},{"duration":0.11627906976744384,"midi":93,"time":75.94186046511628,"velocity":0.1968503937007874},{"duration":0.011627906976741542,"midi":43,"time":75.95348837209302,"velocity":0.5826771653543307},{"duration":0.011627906976755753,"midi":42,"time":75.96511627906976,"velocity":0.5669291338582677},{"duration":0.06976744186047767,"midi":72,"time":75.96511627906976,"velocity":0.1968503937007874},{"duration":0.011627906976741542,"midi":41,"time":75.97674418604652,"velocity":0.5118110236220472},{"duration":0.023255813953483084,"midi":52,"time":75.97674418604652,"velocity":0.28346456692913385},{"duration":0.11627906976744384,"midi":75,"time":75.98837209302326,"velocity":0.25984251968503935},{"duration":0.023255813953497295,"midi":37,"time":76.01162790697674,"velocity":0.3937007874015748},{"duration":0.03488372093023884,"midi":52,"time":76.01162790697674,"velocity":0.2047244094488189},{"duration":0.05813953488372192,"midi":81,"time":76.02325581395348,"velocity":0.2204724409448819},{"duration":0.10465116279068809,"midi":63,"time":76.03488372093024,"velocity":0.3779527559055118},{"duration":0.04651162790696617,"midi":85,"time":76.03488372093024,"velocity":0.14173228346456693},{"duration":0.023255813953483084,"midi":35,"time":76.04651162790698,"velocity":0.25196850393700787},{"duration":0.09302325581394655,"midi":69,"time":76.04651162790698,"velocity":0.25196850393700787},{"duration":0.04651162790698038,"midi":73,"time":76.05813953488372,"velocity":0.18110236220472442},{"duration":0.023255813953497295,"midi":38,"time":76.0813953488372,"velocity":0.3858267716535433},{"duration":0.023255813953497295,"midi":55,"time":76.0813953488372,"velocity":0.2755905511811024},{"duration":0.08139534883721922,"midi":77,"time":76.09302325581395,"velocity":0.2204724409448819},{"duration":0.034883720930224626,"midi":56,"time":76.1046511627907,"velocity":0.36220472440944884},{"duration":0.034883720930224626,"midi":67,"time":76.1046511627907,"velocity":0.2755905511811024},{"duration":0.023255813953483084,"midi":39,"time":76.11627906976744,"velocity":0.30708661417322836},{"duration":0.15116279069766847,"midi":96,"time":76.11627906976744,"velocity":0.2047244094488189},{"duration":0.04651162790698038,"midi":81,"time":76.12790697674419,"velocity":0.4251968503937008},{"duration":0.04651162790698038,"midi":69,"time":76.15116279069767,"velocity":0.5118110236220472},{"duration":0.04651162790698038,"midi":87,"time":76.15116279069767,"velocity":0.1732283464566929},{"duration":0.09302325581396076,"midi":89,"time":76.15116279069767,"velocity":0.2204724409448819},{"duration":0.034883720930224626,"midi":73,"time":76.16279069767442,"velocity":0.2204724409448819},{"duration":0.04651162790696617,"midi":78,"time":76.16279069767442,"velocity":0.16535433070866143},{"duration":0.05813953488372192,"midi":83,"time":76.16279069767442,"velocity":0.12598425196850394},{"duration":0.023255813953483084,"midi":57,"time":76.17441860465117,"velocity":0.28346456692913385},{"duration":0.04651162790698038,"midi":63,"time":76.17441860465117,"velocity":0.3543307086614173},{"duration":0.023255813953483084,"midi":66,"time":76.17441860465117,"velocity":0.2283464566929134},{"duration":0.023255813953483084,"midi":82,"time":76.17441860465117,"velocity":0.33858267716535434},{"duration":0.04651162790698038,"midi":86,"time":76.17441860465117,"velocity":0.2440944881889764},{"duration":0.034883720930224626,"midi":88,"time":76.17441860465117,"velocity":0.08661417322834646},{"duration":0.023255813953483084,"midi":41,"time":76.18604651162791,"velocity":0.3779527559055118},{"duration":0.023255813953483084,"midi":74,"time":76.18604651162791,"velocity":0.2755905511811024},{"duration":0.12790697674418539,"midi":91,"time":76.18604651162791,"velocity":0.3858267716535433},{"duration":1.418604651162795,"midi":94,"time":76.18604651162791,"velocity":0.4251968503937008},{"duration":0.24418604651162923,"midi":97,"time":76.18604651162791,"velocity":0.18110236220472442},{"duration":0.023255813953497295,"midi":51,"time":76.19767441860465,"velocity":0.31496062992125984},{"duration":0.023255813953497295,"midi":56,"time":76.19767441860465,"velocity":0.23622047244094488},{"duration":0.2325581395348877,"midi":60,"time":76.19767441860465,"velocity":0.2677165354330709},{"duration":0.04651162790698038,"midi":70,"time":76.19767441860465,"velocity":0.4330708661417323},{"duration":0.1046511627907023,"midi":77,"time":76.19767441860465,"velocity":0.2992125984251969},{"duration":0.918604651162795,"midi":99,"time":76.19767441860465,"velocity":0.33858267716535434},{"duration":0.03488372093023884,"midi":102,"time":76.19767441860465,"velocity":0.16535433070866143},{"duration":0.023255813953497295,"midi":72,"time":76.20930232558139,"velocity":0.28346456692913385},{"duration":0.03488372093023884,"midi":79,"time":76.20930232558139,"velocity":0.11811023622047244},{"duration":0.22093023255814614,"midi":87,"time":76.20930232558139,"velocity":0.30708661417322836},{"duration":0.023255813953483084,"midi":35,"time":76.22093023255815,"velocity":0.31496062992125984},{"duration":0.081395348837205,"midi":75,"time":76.22093023255815,"velocity":0.5039370078740157},{"duration":0.06976744186046346,"midi":44,"time":76.23255813953489,"velocity":0.3228346456692913},{"duration":0.034883720930224626,"midi":51,"time":76.23255813953489,"velocity":0.29133858267716534},{"duration":0.023255813953483084,"midi":33,"time":76.24418604651163,"velocity":0.3228346456692913},{"duration":0.04651162790698038,"midi":81,"time":76.25581395348837,"velocity":0.14173228346456693},{"duration":0.03488372093023884,"midi":32,"time":76.26744186046511,"velocity":0.3464566929133858},{"duration":0.03488372093023884,"midi":52,"time":76.26744186046511,"velocity":0.30708661417322836},{"duration":0.04651162790698038,"midi":64,"time":76.30232558139535,"velocity":0.33070866141732286},{"duration":0.04651162790698038,"midi":76,"time":76.30232558139535,"velocity":0.48031496062992124},{"duration":0.05813953488372192,"midi":82,"time":76.30232558139535,"velocity":0.1889763779527559},{"duration":0.034883720930224626,"midi":95,"time":76.30232558139535,"velocity":0.2047244094488189},{"duration":0.034883720930224626,"midi":102,"time":76.30232558139535,"velocity":0.2283464566929134},{"duration":0.023255813953483084,"midi":32,"time":76.31395348837209,"velocity":0.25984251968503935},{"duration":0.03488372093023884,"midi":92,"time":76.31395348837209,"velocity":0.3937007874015748},{"duration":0.09302325581396076,"midi":98,"time":76.31395348837209,"velocity":0.2677165354330709},{"duration":0.023255813953497295,"midi":75,"time":76.32558139534883,"velocity":0.23622047244094488},{"duration":0.04651162790698038,"midi":69,"time":76.33720930232558,"velocity":0.28346456692913385},{"duration":0.32558139534884845,"midi":96,"time":76.33720930232558,"velocity":0.36220472440944884},{"duration":0.5813953488372192,"midi":101,"time":76.33720930232558,"velocity":0.30708661417322836},{"duration":0.06976744186047767,"midi":103,"time":76.33720930232558,"velocity":0.2125984251968504},{"duration":0.081395348837205,"midi":65,"time":76.34883720930233,"velocity":0.3700787401574803},{"duration":0.36046511627905886,"midi":77,"time":76.34883720930233,"velocity":0.48031496062992124},{"duration":0.2906976744185954,"midi":84,"time":76.34883720930233,"velocity":0.2440944881889764},{"duration":0.1860465116279073,"midi":91,"time":76.34883720930233,"velocity":0.18110236220472442},{"duration":0.48837209302324425,"midi":93,"time":76.34883720930233,"velocity":0.41732283464566927},{"duration":0.023255813953497295,"midi":70,"time":76.38372093023256,"velocity":0.2992125984251969},{"duration":0.09302325581396076,"midi":75,"time":76.38372093023256,"velocity":0.33070866141732286},{"duration":0.03488372093023884,"midi":79,"time":76.38372093023256,"velocity":0.10236220472440945},{"duration":0.23255813953487348,"midi":103,"time":76.4186046511628,"velocity":0.28346456692913385},{"duration":0.034883720930224626,"midi":61,"time":76.43023255813954,"velocity":0.3858267716535433},{"duration":0.023255813953483084,"midi":67,"time":76.43023255813954,"velocity":0.2283464566929134},{"duration":0.04651162790698038,"midi":95,"time":76.43023255813954,"velocity":0.10236220472440945},{"duration":0.034883720930224626,"midi":102,"time":76.43023255813954,"velocity":0.12598425196850394},{"duration":0.023255813953483084,"midi":81,"time":76.44186046511628,"velocity":0.23622047244094488},{"duration":0.011627906976741542,"midi":47,"time":76.45348837209302,"velocity":0.5590551181102362},{"duration":0.011627906976755753,"midi":45,"time":76.46511627906976,"velocity":0.6220472440944882},{"duration":0.1860465116279073,"midi":65,"time":76.46511627906976,"velocity":0.49606299212598426},{"duration":0.011627906976741542,"midi":44,"time":76.47674418604652,"velocity":0.5984251968503937},{"duration":0.023255813953483084,"midi":42,"time":76.48837209302326,"velocity":0.5748031496062992},{"duration":0.023255813953483084,"midi":75,"time":76.48837209302326,"velocity":0.2755905511811024},{"duration":0.023255813953497295,"midi":55,"time":76.51162790697674,"velocity":0.23622047244094488},{"duration":0.03488372093023884,"midi":82,"time":76.51162790697674,"velocity":0.11023622047244094},{"duration":0.05813953488372192,"midi":75,"time":76.52325581395348,"velocity":0.2755905511811024},{"duration":0.023255813953483084,"midi":36,"time":76.55813953488372,"velocity":0.33070866141732286},{"duration":0.04651162790698038,"midi":79,"time":76.55813953488372,"velocity":0.1889763779527559},{"duration":0.034883720930224626,"midi":80,"time":76.55813953488372,"velocity":0.16535433070866143},{"duration":0.12790697674418539,"midi":82,"time":76.56976744186046,"velocity":0.12598425196850394},{"duration":0.023255813953483084,"midi":59,"time":76.6046511627907,"velocity":0.29133858267716534},{"duration":0.09302325581394655,"midi":75,"time":76.6046511627907,"velocity":0.1968503937007874},{"duration":0.09302325581394655,"midi":68,"time":76.61627906976744,"velocity":0.15748031496062992},{"duration":0.034883720930224626,"midi":98,"time":76.61627906976744,"velocity":0.1732283464566929},{"duration":0.2325581395348877,"midi":87,"time":76.62790697674419,"velocity":0.2047244094488189},{"duration":0.03488372093023884,"midi":100,"time":76.62790697674419,"velocity":0.07874015748031496},{"duration":0.03488372093023884,"midi":95,"time":76.63953488372093,"velocity":0.2992125984251969},{"duration":0.03488372093023884,"midi":102,"time":76.63953488372093,"velocity":0.16535433070866143},{"duration":0.034883720930224626,"midi":56,"time":76.66279069767442,"velocity":0.2125984251968504},{"duration":0.05813953488372192,"midi":63,"time":76.66279069767442,"velocity":0.49606299212598426},{"duration":0.1860465116279073,"midi":103,"time":76.66279069767442,"velocity":0.33858267716535434},{"duration":0.03488372093023884,"midi":72,"time":76.68604651162791,"velocity":0.2440944881889764},{"duration":0.04651162790698038,"midi":78,"time":76.69767441860465,"velocity":0.23622047244094488},{"duration":0.03488372093023884,"midi":81,"time":76.69767441860465,"velocity":0.23622047244094488},{"duration":0.04651162790698038,"midi":86,"time":76.69767441860465,"velocity":0.2125984251968504},{"duration":0.16279069767442422,"midi":91,"time":76.69767441860465,"velocity":0.3858267716535433},{"duration":0.05813953488372192,"midi":95,"time":76.69767441860465,"velocity":0.14173228346456693},{"duration":0.06976744186046346,"midi":44,"time":76.70930232558139,"velocity":0.3464566929133858},{"duration":0.09302325581396076,"midi":51,"time":76.70930232558139,"velocity":0.29133858267716534},{"duration":0.12790697674418539,"midi":73,"time":76.70930232558139,"velocity":0.30708661417322836},{"duration":0.03488372093023884,"midi":76,"time":76.70930232558139,"velocity":0.2283464566929134},{"duration":0.05813953488370771,"midi":60,"time":76.72093023255815,"velocity":0.33858267716535434},{"duration":0.04651162790696617,"midi":70,"time":76.72093023255815,"velocity":0.2677165354330709},{"duration":0.2093023255813904,"midi":75,"time":76.72093023255815,"velocity":0.4645669291338583},{"duration":0.10465116279068809,"midi":92,"time":76.72093023255815,"velocity":0.2755905511811024},{"duration":0.40697674418603924,"midi":97,"time":76.72093023255815,"velocity":0.30708661417322836},{"duration":0.04651162790698038,"midi":77,"time":76.74418604651163,"velocity":0.23622047244094488},{"duration":0.03488372093023884,"midi":79,"time":76.75581395348837,"velocity":0.15748031496062992},{"duration":0.023255813953497295,"midi":64,"time":76.76744186046511,"velocity":0.33858267716535434},{"duration":0.023255813953497295,"midi":33,"time":76.77906976744185,"velocity":0.2992125984251969},{"duration":0.034883720930224626,"midi":44,"time":76.79069767441861,"velocity":0.1968503937007874},{"duration":0.034883720930224626,"midi":57,"time":76.79069767441861,"velocity":0.25984251968503935},{"duration":0.04651162790698038,"midi":32,"time":76.80232558139535,"velocity":0.29133858267716534},{"duration":0.034883720930224626,"midi":77,"time":76.80232558139535,"velocity":0.29133858267716534},{"duration":0.04651162790698038,"midi":82,"time":76.80232558139535,"velocity":0.25984251968503935},{"duration":0.3720930232558146,"midi":96,"time":76.80232558139535,"velocity":0.2283464566929134},{"duration":0.023255813953483084,"midi":63,"time":76.81395348837209,"velocity":0.33858267716535434},{"duration":0.081395348837205,"midi":84,"time":76.81395348837209,"velocity":0.12598425196850394},{"duration":0.023255813953497295,"midi":76,"time":76.82558139534883,"velocity":0.36220472440944884},{"duration":0.023255813953497295,"midi":86,"time":76.82558139534883,"velocity":0.25196850393700787},{"duration":0.05813953488372192,"midi":95,"time":76.82558139534883,"velocity":0.12598425196850394},{"duration":0.06976744186047767,"midi":51,"time":76.83720930232558,"velocity":0.2992125984251969},{"duration":0.023255813953497295,"midi":64,"time":76.83720930232558,"velocity":0.33858267716535434},{"duration":0.05813953488372192,"midi":92,"time":76.83720930232558,"velocity":0.2440944881889764},{"duration":0.19767441860464885,"midi":77,"time":76.84883720930233,"velocity":0.2755905511811024},{"duration":0.034883720930224626,"midi":81,"time":76.84883720930233,"velocity":0.2440944881889764},{"duration":0.12790697674418539,"midi":85,"time":76.84883720930233,"velocity":0.2755905511811024},{"duration":0.023255813953483084,"midi":102,"time":76.84883720930233,"velocity":0.41732283464566927},{"duration":0.06976744186046346,"midi":44,"time":76.86046511627907,"velocity":0.3464566929133858},{"duration":0.06976744186046346,"midi":63,"time":76.86046511627907,"velocity":0.41732283464566927},{"duration":0.06976744186046346,"midi":80,"time":76.86046511627907,"velocity":0.14960629921259844},{"duration":0.1860465116279073,"midi":91,"time":76.87209302325581,"velocity":0.2677165354330709},{"duration":0.2674418604651123,"midi":103,"time":76.87209302325581,"velocity":0.3464566929133858},{"duration":0.1046511627907023,"midi":73,"time":76.88372093023256,"velocity":0.28346456692913385},{"duration":0.04651162790698038,"midi":82,"time":76.88372093023256,"velocity":0.1968503937007874},{"duration":0.27906976744186807,"midi":93,"time":76.88372093023256,"velocity":0.25196850393700787},{"duration":0.023255813953483084,"midi":33,"time":76.90697674418605,"velocity":0.31496062992125984},{"duration":0.023255813953483084,"midi":55,"time":76.90697674418605,"velocity":0.3228346456692913},{"duration":0.023255813953483084,"midi":95,"time":76.9186046511628,"velocity":0.4015748031496063},{"duration":0.023255813953483084,"midi":102,"time":76.9186046511628,"velocity":0.2440944881889764},{"duration":0.05813953488372192,"midi":32,"time":76.93023255813954,"velocity":0.33070866141732286},{"duration":0.09302325581394655,"midi":83,"time":76.93023255813954,"velocity":0.14173228346456693},{"duration":0.12790697674418539,"midi":101,"time":76.93023255813954,"velocity":0.2440944881889764},{"duration":0.12790697674418539,"midi":75,"time":76.94186046511628,"velocity":0.41732283464566927},{"duration":0.2093023255813904,"midi":80,"time":76.94186046511628,"velocity":0.2125984251968504},{"duration":0.09302325581396076,"midi":63,"time":76.95348837209302,"velocity":0.4409448818897638},{"duration":0.06976744186046346,"midi":90,"time":76.95348837209302,"velocity":0.2755905511811024},{"duration":0.5116279069767415,"midi":92,"time":76.95348837209302,"velocity":0.3543307086614173},{"duration":0.06976744186046346,"midi":95,"time":76.95348837209302,"velocity":0.25196850393700787},{"duration":0.03488372093023884,"midi":100,"time":76.95348837209302,"velocity":0.09448818897637795},{"duration":0.03488372093023884,"midi":60,"time":76.96511627906976,"velocity":0.3858267716535433},{"duration":0.12790697674418539,"midi":88,"time":76.96511627906976,"velocity":0.23622047244094488},{"duration":0.03488372093023884,"midi":98,"time":76.96511627906976,"velocity":0.12598425196850394},{"duration":0.06976744186046346,"midi":82,"time":76.97674418604652,"velocity":0.2047244094488189},{"duration":0.011627906976741542,"midi":45,"time":76.98837209302326,"velocity":0.5590551181102362},{"duration":0.16279069767441,"midi":85,"time":76.98837209302326,"velocity":0.28346456692913385},{"duration":0.011627906976741542,"midi":44,"time":77,"velocity":0.5984251968503937},{"duration":0.011627906976741542,"midi":43,"time":77.01162790697674,"velocity":0.5748031496062992},{"duration":0.011627906976755753,"midi":42,"time":77.02325581395348,"velocity":0.5433070866141733},{"duration":0.15116279069768268,"midi":73,"time":77.02325581395348,"velocity":0.3228346456692913},{"duration":0.03488372093023884,"midi":84,"time":77.02325581395348,"velocity":0.14173228346456693},{"duration":0.06976744186046346,"midi":95,"time":77.03488372093024,"velocity":0.30708661417322836},{"duration":0.06976744186046346,"midi":100,"time":77.03488372093024,"velocity":0.2440944881889764},{"duration":0.034883720930224626,"midi":53,"time":77.04651162790698,"velocity":0.33070866141732286},{"duration":0.023255813953483084,"midi":64,"time":77.04651162790698,"velocity":0.3858267716535433},{"duration":0.06976744186046346,"midi":83,"time":77.04651162790698,"velocity":0.12598425196850394},{"duration":0.023255813953483084,"midi":37,"time":77.06976744186046,"velocity":0.3779527559055118},{"duration":0.11627906976744384,"midi":84,"time":77.06976744186046,"velocity":0.16535433070866143},{"duration":0.023255813953497295,"midi":64,"time":77.0813953488372,"velocity":0.4251968503937008},{"duration":0.04651162790698038,"midi":75,"time":77.0813953488372,"velocity":0.2440944881889764},{"duration":0.1046511627907023,"midi":77,"time":77.0813953488372,"velocity":0.31496062992125984},{"duration":0.05813953488372192,"midi":101,"time":77.0813953488372,"velocity":0.1732283464566929},{"duration":0.023255813953497295,"midi":36,"time":77.09302325581395,"velocity":0.2992125984251969},{"duration":0.04651162790698038,"midi":68,"time":77.09302325581395,"velocity":0.1889763779527559},{"duration":0.05813953488372192,"midi":91,"time":77.09302325581395,"velocity":0.14173228346456693},{"duration":0.023255813953483084,"midi":51,"time":77.1046511627907,"velocity":0.2440944881889764},{"duration":0.034883720930224626,"midi":35,"time":77.11627906976744,"velocity":0.16535433070866143},{"duration":0.03488372093023884,"midi":69,"time":77.13953488372093,"velocity":0.13385826771653545},{"duration":0.1046511627907023,"midi":75,"time":77.15116279069767,"velocity":0.36220472440944884},{"duration":0.04651162790698038,"midi":79,"time":77.15116279069767,"velocity":0.14173228346456693},{"duration":0.023255813953483084,"midi":53,"time":77.16279069767442,"velocity":0.2283464566929134},{"duration":0.023255813953483084,"midi":61,"time":77.16279069767442,"velocity":0.2992125984251969},{"duration":0.034883720930224626,"midi":64,"time":77.16279069767442,"velocity":0.30708661417322836},{"duration":0.034883720930224626,"midi":82,"time":77.16279069767442,"velocity":0.09448818897637795},{"duration":0.04651162790698038,"midi":72,"time":77.17441860465117,"velocity":0.2283464566929134},{"duration":0.05813953488372192,"midi":85,"time":77.18604651162791,"velocity":0.25196850393700787},{"duration":0.09302325581396076,"midi":63,"time":77.19767441860465,"velocity":0.4094488188976378},{"duration":0.05813953488372192,"midi":73,"time":77.20930232558139,"velocity":0.29133858267716534},{"duration":0.1046511627907023,"midi":103,"time":77.20930232558139,"velocity":0.1732283464566929},{"duration":0.023255813953483084,"midi":59,"time":77.22093023255815,"velocity":0.36220472440944884},{"duration":0.06976744186046346,"midi":80,"time":77.22093023255815,"velocity":0.13385826771653545},{"duration":0.04651162790696617,"midi":84,"time":77.22093023255815,"velocity":0.16535433070866143},{"duration":0.2906976744185954,"midi":89,"time":77.22093023255815,"velocity":0.29133858267716534},{"duration":0.034883720930224626,"midi":95,"time":77.22093023255815,"velocity":0.08661417322834646},{"duration":0.06976744186046346,"midi":99,"time":77.22093023255815,"velocity":0.09448818897637795},{"duration":0.034883720930224626,"midi":69,"time":77.23255813953489,"velocity":0.3464566929133858},{"duration":0.034883720930224626,"midi":78,"time":77.23255813953489,"velocity":0.1732283464566929},{"duration":0.04651162790696617,"midi":83,"time":77.23255813953489,"velocity":0.25196850393700787},{"duration":0.05813953488372192,"midi":86,"time":77.23255813953489,"velocity":0.23622047244094488},{"duration":0.1046511627907023,"midi":48,"time":77.24418604651163,"velocity":0.33070866141732286},{"duration":0.034883720930224626,"midi":58,"time":77.24418604651163,"velocity":0.4015748031496063},{"duration":0.11627906976744384,"midi":53,"time":77.25581395348837,"velocity":0.3464566929133858},{"duration":0.27906976744186807,"midi":82,"time":77.25581395348837,"velocity":0.2992125984251969},{"duration":0.03488372093023884,"midi":91,"time":77.25581395348837,"velocity":0.09448818897637795},{"duration":0.2325581395348877,"midi":98,"time":77.25581395348837,"velocity":0.2440944881889764},{"duration":0.023255813953497295,"midi":40,"time":77.26744186046511,"velocity":0.3858267716535433},{"duration":0.04651162790698038,"midi":77,"time":77.26744186046511,"velocity":0.18110236220472442},{"duration":0.03488372093023884,"midi":79,"time":77.26744186046511,"velocity":0.12598425196850394},{"duration":0.08139534883721922,"midi":85,"time":77.27906976744185,"velocity":0.1968503937007874},{"duration":0.034883720930224626,"midi":64,"time":77.29069767441861,"velocity":0.3228346456692913},{"duration":0.06976744186046346,"midi":73,"time":77.30232558139535,"velocity":0.23622047244094488},{"duration":0.06976744186046346,"midi":91,"time":77.30232558139535,"velocity":0.2047244094488189},{"duration":0.03488372093023884,"midi":58,"time":77.31395348837209,"velocity":0.33858267716535434},{"duration":0.4418604651162781,"midi":70,"time":77.31395348837209,"velocity":0.3543307086614173},{"duration":0.03488372093023884,"midi":63,"time":77.32558139534883,"velocity":0.25196850393700787},{"duration":0.03488372093023884,"midi":30,"time":77.33720930232558,"velocity":0.25196850393700787},{"duration":0.023255813953497295,"midi":41,"time":77.33720930232558,"velocity":0.2755905511811024},{"duration":0.04651162790696617,"midi":90,"time":77.34883720930233,"velocity":0.11811023622047244},{"duration":0.11627906976744384,"midi":44,"time":77.36046511627907,"velocity":0.4015748031496063},{"duration":0.023255813953483084,"midi":76,"time":77.36046511627907,"velocity":0.25984251968503935},{"duration":0.04651162790698038,"midi":78,"time":77.36046511627907,"velocity":0.25984251968503935},{"duration":0.034883720930224626,"midi":84,"time":77.36046511627907,"velocity":0.11811023622047244},{"duration":0.06976744186046346,"midi":86,"time":77.36046511627907,"velocity":0.2204724409448819},{"duration":0.04651162790698038,"midi":99,"time":77.36046511627907,"velocity":0.11023622047244094},{"duration":0.04651162790698038,"midi":102,"time":77.36046511627907,"velocity":0.23622047244094488},{"duration":0.023255813953483084,"midi":50,"time":77.37209302325581,"velocity":0.3543307086614173},{"duration":0.05813953488372192,"midi":66,"time":77.37209302325581,"velocity":0.30708661417322836},{"duration":0.05813953488372192,"midi":74,"time":77.37209302325581,"velocity":0.29133858267716534},{"duration":0.03488372093023884,"midi":100,"time":77.37209302325581,"velocity":0.09448818897637795},{"duration":0.05813953488372192,"midi":60,"time":77.38372093023256,"velocity":0.2677165354330709},{"duration":0.081395348837205,"midi":63,"time":77.38372093023256,"velocity":0.2755905511811024},{"duration":0.11627906976744384,"midi":77,"time":77.38372093023256,"velocity":0.23622047244094488},{"duration":0.03488372093023884,"midi":79,"time":77.3953488372093,"velocity":0.08661417322834646},{"duration":0.04651162790698038,"midi":91,"time":77.3953488372093,"velocity":0.09448818897637795},{"duration":0.023255813953483084,"midi":51,"time":77.4186046511628,"velocity":0.3543307086614173},{"duration":0.04651162790698038,"midi":33,"time":77.44186046511628,"velocity":0.36220472440944884},{"duration":0.023255813953483084,"midi":52,"time":77.44186046511628,"velocity":0.2440944881889764},{"duration":0.13953488372092693,"midi":93,"time":77.44186046511628,"velocity":0.4015748031496063},{"duration":0.1046511627907023,"midi":97,"time":77.44186046511628,"velocity":0.2204724409448819},{"duration":0.11627906976744384,"midi":91,"time":77.45348837209302,"velocity":0.23622047244094488},{"duration":0.12790697674418539,"midi":102,"time":77.45348837209302,"velocity":0.1889763779527559},{"duration":0.03488372093023884,"midi":51,"time":77.46511627906976,"velocity":0.30708661417322836},{"duration":0.023255813953483084,"midi":58,"time":77.47674418604652,"velocity":0.2755905511811024},{"duration":0.05813953488372192,"midi":85,"time":77.47674418604652,"velocity":0.12598425196850394},{"duration":0.04651162790696617,"midi":88,"time":77.47674418604652,"velocity":0.2283464566929134},{"duration":0.034883720930224626,"midi":92,"time":77.47674418604652,"velocity":0.2755905511811024},{"duration":0.081395348837205,"midi":96,"time":77.47674418604652,"velocity":0.2992125984251969},{"duration":0.034883720930224626,"midi":99,"time":77.47674418604652,"velocity":0.07086614173228346},{"duration":0.04651162790698038,"midi":66,"time":77.48837209302326,"velocity":0.1732283464566929},{"duration":0.05813953488372192,"midi":79,"time":77.48837209302326,"velocity":0.2283464566929134},{"duration":0.034883720930224626,"midi":95,"time":77.48837209302326,"velocity":0.1889763779527559},{"duration":0.023255813953483084,"midi":48,"time":77.5,"velocity":0.5669291338582677},{"duration":0.11627906976744384,"midi":98,"time":77.5,"velocity":0.31496062992125984},{"duration":0.023255813953497295,"midi":62,"time":77.51162790697674,"velocity":0.23622047244094488},{"duration":0.023255813953497295,"midi":75,"time":77.51162790697674,"velocity":0.28346456692913385},{"duration":0.04651162790698038,"midi":77,"time":77.51162790697674,"velocity":0.15748031496062992},{"duration":0.05813953488372192,"midi":90,"time":77.51162790697674,"velocity":0.2283464566929134},{"duration":0.011627906976755753,"midi":45,"time":77.52325581395348,"velocity":0.6299212598425197},{"duration":0.06976744186046346,"midi":81,"time":77.52325581395348,"velocity":0.3543307086614173},{"duration":0.19767441860466306,"midi":92,"time":77.52325581395348,"velocity":0.3858267716535433},{"duration":0.011627906976741542,"midi":44,"time":77.53488372093024,"velocity":0.6220472440944882},{"duration":0.023255813953483084,"midi":64,"time":77.53488372093024,"velocity":0.23622047244094488},{"duration":0.05813953488370771,"midi":74,"time":77.53488372093024,"velocity":0.3228346456692913},{"duration":0.023255813953483084,"midi":42,"time":77.54651162790698,"velocity":0.5748031496062992},{"duration":0.04651162790696617,"midi":75,"time":77.54651162790698,"velocity":0.2204724409448819},{"duration":0.2674418604651123,"midi":89,"time":77.54651162790698,"velocity":0.3543307086614173},{"duration":0.034883720930224626,"midi":100,"time":77.54651162790698,"velocity":0.11023622047244094},{"duration":0.1046511627907023,"midi":53,"time":77.55813953488372,"velocity":0.25984251968503935},{"duration":0.05813953488372192,"midi":95,"time":77.55813953488372,"velocity":0.31496062992125984},{"duration":0.03488372093023884,"midi":103,"time":77.56976744186046,"velocity":0.09448818897637795},{"duration":0.03488372093023884,"midi":64,"time":77.5813953488372,"velocity":0.2125984251968504},{"duration":0.13953488372094114,"midi":85,"time":77.5813953488372,"velocity":0.2125984251968504},{"duration":0.13953488372094114,"midi":97,"time":77.5813953488372,"velocity":0.2677165354330709},{"duration":0.04651162790698038,"midi":37,"time":77.59302325581395,"velocity":0.4015748031496063},{"duration":0.06976744186047767,"midi":61,"time":77.59302325581395,"velocity":0.23622047244094488},{"duration":0.1279069767441996,"midi":73,"time":77.59302325581395,"velocity":0.3779527559055118},{"duration":0.11627906976744384,"midi":80,"time":77.59302325581395,"velocity":0.33858267716535434},{"duration":0.11627906976744384,"midi":99,"time":77.6046511627907,"velocity":0.18110236220472442},{"duration":0.06976744186046346,"midi":102,"time":77.6046511627907,"velocity":0.2440944881889764},{"duration":0.06976744186046346,"midi":75,"time":77.61627906976744,"velocity":0.12598425196850394},{"duration":0.04651162790698038,"midi":94,"time":77.61627906976744,"velocity":0.3543307086614173},{"duration":0.03488372093023884,"midi":46,"time":77.62790697674419,"velocity":0.14960629921259844},{"duration":0.04651162790698038,"midi":93,"time":77.62790697674419,"velocity":0.1889763779527559},{"duration":0.12790697674418539,"midi":98,"time":77.65116279069767,"velocity":0.25984251968503935},{"duration":0.16279069767441,"midi":95,"time":77.66279069767442,"velocity":0.3543307086614173},{"duration":0.034883720930224626,"midi":61,"time":77.67441860465117,"velocity":0.2283464566929134},{"duration":0.06976744186046346,"midi":58,"time":77.69767441860465,"velocity":0.2755905511811024},{"duration":0.023255813953497295,"midi":62,"time":77.70930232558139,"velocity":0.25196850393700787},{"duration":0.04651162790698038,"midi":77,"time":77.70930232558139,"velocity":0.11023622047244094},{"duration":0.03488372093023884,"midi":81,"time":77.70930232558139,"velocity":0.4015748031496063},{"duration":0.27906976744186807,"midi":94,"time":77.70930232558139,"velocity":0.36220472440944884},{"duration":0.034883720930224626,"midi":61,"time":77.73255813953489,"velocity":0.25984251968503935},{"duration":0.06976744186046346,"midi":73,"time":77.73255813953489,"velocity":0.3700787401574803},{"duration":1.16279069767441,"midi":92,"time":77.73255813953489,"velocity":0.44881889763779526},{"duration":1,"midi":97,"time":77.73255813953489,"velocity":0.2755905511811024},{"duration":1.0465116279069662,"midi":99,"time":77.73255813953489,"velocity":0.2992125984251969},{"duration":0.023255813953483084,"midi":69,"time":77.74418604651163,"velocity":0.33070866141732286},{"duration":0.05813953488372192,"midi":80,"time":77.74418604651163,"velocity":0.31496062992125984},{"duration":0.04651162790698038,"midi":86,"time":77.74418604651163,"velocity":0.14960629921259844},{"duration":0.04651162790698038,"midi":91,"time":77.74418604651163,"velocity":0.25196850393700787},{"duration":0.03488372093023884,"midi":45,"time":77.75581395348837,"velocity":0.3543307086614173},{"duration":0.05813953488372192,"midi":76,"time":77.75581395348837,"velocity":0.2283464566929134},{"duration":0.03488372093023884,"midi":83,"time":77.75581395348837,"velocity":0.16535433070866143},{"duration":0.11627906976744384,"midi":102,"time":77.75581395348837,"velocity":0.2440944881889764},{"duration":0.03488372093023884,"midi":68,"time":77.76744186046511,"velocity":0.3543307086614173},{"duration":0.22093023255814614,"midi":70,"time":77.76744186046511,"velocity":0.23622047244094488},{"duration":0.05813953488372192,"midi":88,"time":77.76744186046511,"velocity":0.25984251968503935},{"duration":0.04651162790696617,"midi":46,"time":77.79069767441861,"velocity":0.2992125984251969},{"duration":0.023255813953483084,"midi":53,"time":77.79069767441861,"velocity":0.2755905511811024},{"duration":0.034883720930224626,"midi":79,"time":77.79069767441861,"velocity":0.2677165354330709},{"duration":0.05813953488372192,"midi":61,"time":77.81395348837209,"velocity":0.25984251968503935},{"duration":0.40697674418605345,"midi":73,"time":77.81395348837209,"velocity":0.41732283464566927},{"duration":0.04651162790698038,"midi":75,"time":77.81395348837209,"velocity":0.1968503937007874},{"duration":0.1860465116279073,"midi":53,"time":77.82558139534883,"velocity":0.30708661417322836},{"duration":0.8953488372093119,"midi":80,"time":77.82558139534883,"velocity":0.3700787401574803},{"duration":0.11627906976744384,"midi":89,"time":77.82558139534883,"velocity":0.2283464566929134},{"duration":0.06976744186047767,"midi":34,"time":77.83720930232558,"velocity":0.3543307086614173},{"duration":0.12790697674418539,"midi":95,"time":77.83720930232558,"velocity":0.36220472440944884},{"duration":0.023255813953483084,"midi":62,"time":77.87209302325581,"velocity":0.23622047244094488},{"duration":0.04651162790698038,"midi":91,"time":77.87209302325581,"velocity":0.2440944881889764},{"duration":0.023255813953497295,"midi":44,"time":77.88372093023256,"velocity":0.2677165354330709},{"duration":0.081395348837205,"midi":58,"time":77.88372093023256,"velocity":0.2755905511811024},{"duration":0.04651162790698038,"midi":83,"time":77.88372093023256,"velocity":0.18110236220472442},{"duration":0.04651162790698038,"midi":88,"time":77.88372093023256,"velocity":0.2047244094488189},{"duration":0.05813953488372192,"midi":68,"time":77.8953488372093,"velocity":0.14173228346456693},{"duration":0.08139534883721922,"midi":76,"time":77.8953488372093,"velocity":0.25984251968503935},{"duration":0.023255813953483084,"midi":45,"time":77.90697674418605,"velocity":0.36220472440944884},{"duration":0.1860465116278931,"midi":102,"time":77.90697674418605,"velocity":0.23622047244094488},{"duration":0.081395348837205,"midi":46,"time":77.93023255813954,"velocity":0.2992125984251969},{"duration":0.05813953488372192,"midi":34,"time":77.96511627906976,"velocity":0.3543307086614173},{"duration":0.03488372093023884,"midi":61,"time":77.96511627906976,"velocity":0.28346456692913385},{"duration":0.4418604651162781,"midi":89,"time":77.97674418604652,"velocity":0.28346456692913385},{"duration":0.48837209302325846,"midi":95,"time":77.98837209302326,"velocity":0.4015748031496063},{"duration":0.8488372093023173,"midi":101,"time":77.98837209302326,"velocity":0.2992125984251969},{"duration":0.11627906976744384,"midi":103,"time":77.98837209302326,"velocity":0.29133858267716534},{"duration":0.023255813953483084,"midi":65,"time":78,"velocity":0.3543307086614173},{"duration":0.05813953488372192,"midi":75,"time":78,"velocity":0.1889763779527559},{"duration":0.09302325581394655,"midi":91,"time":78,"velocity":0.2204724409448819},{"duration":0.023255813953497295,"midi":45,"time":78.01162790697674,"velocity":0.25984251968503935},{"duration":0.081395348837205,"midi":88,"time":78.01162790697674,"velocity":0.2204724409448819},{"duration":0.09302325581396076,"midi":90,"time":78.01162790697674,"velocity":0.29133858267716534},{"duration":0.05813953488372192,"midi":96,"time":78.01162790697674,"velocity":0.18110236220472442},{"duration":0.023255813953497295,"midi":60,"time":78.02325581395348,"velocity":0.3858267716535433},{"duration":0.03488372093023884,"midi":67,"time":78.02325581395348,"velocity":0.2755905511811024},{"duration":0.03488372093023884,"midi":87,"time":78.02325581395348,"velocity":0.2125984251968504},{"duration":0.05813953488372192,"midi":94,"time":78.02325581395348,"velocity":0.23622047244094488},{"duration":0.04651162790696617,"midi":83,"time":78.03488372093024,"velocity":0.13385826771653545},{"duration":0.06976744186046346,"midi":93,"time":78.03488372093024,"velocity":0.14173228346456693},{"duration":0.011627906976741542,"midi":45,"time":78.04651162790698,"velocity":0.5826771653543307},{"duration":0.011627906976741542,"midi":44,"time":78.05813953488372,"velocity":0.6062992125984252},{"duration":0.011627906976741542,"midi":43,"time":78.06976744186046,"velocity":0.5826771653543307},{"duration":0.05813953488372192,"midi":61,"time":78.06976744186046,"velocity":0.1968503937007874},{"duration":0.011627906976741542,"midi":42,"time":78.0813953488372,"velocity":0.5511811023622047},{"duration":0.09302325581396076,"midi":66,"time":78.0813953488372,"velocity":0.25984251968503935},{"duration":0.03488372093023884,"midi":75,"time":78.0813953488372,"velocity":0.11023622047244094},{"duration":0.023255813953483084,"midi":53,"time":78.1046511627907,"velocity":0.25984251968503935},{"duration":0.04651162790696617,"midi":70,"time":78.1046511627907,"velocity":0.15748031496062992},{"duration":0.06976744186046346,"midi":102,"time":78.1046511627907,"velocity":0.2992125984251969},{"duration":0.023255813953483084,"midi":37,"time":78.12790697674419,"velocity":0.3858267716535433},{"duration":0.05813953488372192,"midi":94,"time":78.12790697674419,"velocity":0.3228346456692913},{"duration":0.06976744186046346,"midi":61,"time":78.13953488372093,"velocity":0.30708661417322836},{"duration":0.04651162790698038,"midi":98,"time":78.13953488372093,"velocity":0.1732283464566929},{"duration":0.023255813953497295,"midi":36,"time":78.15116279069767,"velocity":0.29133858267716534},{"duration":0.03488372093023884,"midi":48,"time":78.15116279069767,"velocity":0.33070866141732286},{"duration":0.023255813953497295,"midi":55,"time":78.15116279069767,"velocity":0.30708661417322836},{"duration":0.04651162790698038,"midi":77,"time":78.15116279069767,"velocity":0.16535433070866143},{"duration":0.04651162790698038,"midi":82,"time":78.15116279069767,"velocity":0.2283464566929134},{"duration":0.04651162790698038,"midi":83,"time":78.15116279069767,"velocity":0.11811023622047244},{"duration":0.05813953488372192,"midi":86,"time":78.15116279069767,"velocity":0.12598425196850394},{"duration":0.10465116279068809,"midi":68,"time":78.16279069767442,"velocity":0.29133858267716534},{"duration":0.034883720930224626,"midi":84,"time":78.16279069767442,"velocity":0.11811023622047244},{"duration":0.10465116279068809,"midi":103,"time":78.16279069767442,"velocity":0.2440944881889764},{"duration":0.023255813953483084,"midi":40,"time":78.17441860465117,"velocity":0.2755905511811024},{"duration":0.10465116279068809,"midi":56,"time":78.17441860465117,"velocity":0.3543307086614173},{"duration":0.081395348837205,"midi":65,"time":78.17441860465117,"velocity":0.2125984251968504},{"duration":0.034883720930224626,"midi":79,"time":78.17441860465117,"velocity":0.23622047244094488},{"duration":0.03488372093023884,"midi":49,"time":78.18604651162791,"velocity":0.28346456692913385},{"duration":0.03488372093023884,"midi":71,"time":78.18604651162791,"velocity":0.14173228346456693},{"duration":0.03488372093023884,"midi":37,"time":78.20930232558139,"velocity":0.36220472440944884},{"duration":0.16279069767442422,"midi":78,"time":78.20930232558139,"velocity":0.2677165354330709},{"duration":0.24418604651161502,"midi":82,"time":78.22093023255815,"velocity":0.2204724409448819},{"duration":0.1860465116279073,"midi":73,"time":78.23255813953489,"velocity":0.4094488188976378},{"duration":0.023255813953483084,"midi":38,"time":78.24418604651163,"velocity":0.25196850393700787},{"duration":0.03488372093023884,"midi":66,"time":78.25581395348837,"velocity":0.16535433070866143},{"duration":0.023255813953497295,"midi":49,"time":78.26744186046511,"velocity":0.2677165354330709},{"duration":0.03488372093023884,"midi":65,"time":78.26744186046511,"velocity":0.1968503937007874},{"duration":0.06976744186046346,"midi":102,"time":78.26744186046511,"velocity":0.29133858267716534},{"duration":0.04651162790698038,"midi":76,"time":78.27906976744185,"velocity":0.1889763779527559},{"duration":0.034883720930224626,"midi":47,"time":78.29069767441861,"velocity":0.30708661417322836},{"duration":0.13953488372092693,"midi":55,"time":78.30232558139535,"velocity":0.3464566929133858},{"duration":0.05813953488372192,"midi":64,"time":78.30232558139535,"velocity":0.2440944881889764},{"duration":0.13953488372092693,"midi":48,"time":78.32558139534883,"velocity":0.2992125984251969},{"duration":0.1046511627907023,"midi":103,"time":78.32558139534883,"velocity":0.30708661417322836},{"duration":0.04651162790698038,"midi":61,"time":78.33720930232558,"velocity":0.33858267716535434},{"duration":0.03488372093023884,"midi":75,"time":78.33720930232558,"velocity":0.12598425196850394},{"duration":0.081395348837205,"midi":36,"time":78.34883720930233,"velocity":0.3543307086614173},{"duration":0.05813953488372192,"midi":70,"time":78.36046511627907,"velocity":0.2204724409448819},{"duration":0.08139534883721922,"midi":61,"time":78.3953488372093,"velocity":0.3779527559055118},{"duration":0.09302325581394655,"midi":68,"time":78.40697674418605,"velocity":0.2992125984251969},{"duration":0.034883720930224626,"midi":98,"time":78.40697674418605,"velocity":0.14960629921259844},{"duration":0.034883720930224626,"midi":100,"time":78.40697674418605,"velocity":0.14960629921259844},{"duration":0.081395348837205,"midi":102,"time":78.40697674418605,"velocity":0.28346456692913385},{"duration":0.023255813953483084,"midi":72,"time":78.4186046511628,"velocity":0.2755905511811024},{"duration":0.15116279069766847,"midi":89,"time":78.43023255813954,"velocity":0.2440944881889764},{"duration":0.05813953488372192,"midi":56,"time":78.44186046511628,"velocity":0.3228346456692913},{"duration":0.40697674418605345,"midi":73,"time":78.44186046511628,"velocity":0.4566929133858268},{"duration":0.17441860465116577,"midi":103,"time":78.44186046511628,"velocity":0.3228346456692913},{"duration":0.04651162790698038,"midi":70,"time":78.45348837209302,"velocity":0.14173228346456693},{"duration":0.03488372093023884,"midi":94,"time":78.45348837209302,"velocity":0.3543307086614173},{"duration":0.11627906976744384,"midi":63,"time":78.46511627906976,"velocity":0.29133858267716534},{"duration":0.12790697674418539,"midi":66,"time":78.48837209302326,"velocity":0.29133858267716534},{"duration":0.3488372093023173,"midi":95,"time":78.48837209302326,"velocity":0.3228346456692913},{"duration":0.034883720930224626,"midi":91,"time":78.53488372093024,"velocity":0.14960629921259844},{"duration":0.034883720930224626,"midi":96,"time":78.53488372093024,"velocity":0.2125984251968504},{"duration":0.034883720930224626,"midi":90,"time":78.54651162790698,"velocity":0.18110236220472442},{"duration":0.011627906976741542,"midi":48,"time":78.56976744186046,"velocity":0.5354330708661418},{"duration":0.04651162790698038,"midi":77,"time":78.56976744186046,"velocity":0.14173228346456693},{"duration":0.011627906976741542,"midi":45,"time":78.5813953488372,"velocity":0.5984251968503937},{"duration":0.1046511627907023,"midi":56,"time":78.5813953488372,"velocity":0.1889763779527559},{"duration":0.05813953488372192,"midi":82,"time":78.5813953488372,"velocity":0.09448818897637795},{"duration":0.011627906976755753,"midi":43,"time":78.59302325581395,"velocity":0.5905511811023622},{"duration":0.17441860465116577,"midi":89,"time":78.59302325581395,"velocity":0.2283464566929134},{"duration":0.023255813953483084,"midi":42,"time":78.6046511627907,"velocity":0.5590551181102362},{"duration":0.12790697674418539,"midi":51,"time":78.6046511627907,"velocity":0.29133858267716534},{"duration":0.023255813953483084,"midi":102,"time":78.6046511627907,"velocity":0.30708661417322836},{"duration":0.011627906976741542,"midi":41,"time":78.62790697674419,"velocity":0.5196850393700787},{"duration":0.4418604651162781,"midi":70,"time":78.62790697674419,"velocity":0.2440944881889764},{"duration":0.1860465116279073,"midi":78,"time":78.62790697674419,"velocity":0.14173228346456693},{"duration":0.19767441860464885,"midi":103,"time":78.62790697674419,"velocity":0.3228346456692913},{"duration":0.023255813953497295,"midi":40,"time":78.63953488372093,"velocity":0.4015748031496063},{"duration":0.023255813953483084,"midi":34,"time":78.68604651162791,"velocity":0.3858267716535433},{"duration":0.05813953488372192,"midi":61,"time":78.69767441860465,"velocity":0.4094488188976378},{"duration":0.05813953488372192,"midi":66,"time":78.74418604651163,"velocity":0.07086614173228346},{"duration":0.06976744186046346,"midi":75,"time":78.74418604651163,"velocity":0.23622047244094488},{"duration":0.03488372093023884,"midi":60,"time":78.75581395348837,"velocity":0.4094488188976378},{"duration":0.09302325581396076,"midi":80,"time":78.75581395348837,"velocity":0.18110236220472442},{"duration":0.06976744186046346,"midi":89,"time":78.79069767441861,"velocity":0.2125984251968504},{"duration":0.04651162790698038,"midi":86,"time":78.80232558139535,"velocity":0.1889763779527559},{"duration":0.04651162790698038,"midi":93,"time":78.80232558139535,"velocity":0.2204724409448819},{"duration":0.034883720930224626,"midi":98,"time":78.80232558139535,"velocity":0.1968503937007874},{"duration":0.034883720930224626,"midi":100,"time":78.80232558139535,"velocity":0.29133858267716534},{"duration":0.03488372093023884,"midi":45,"time":78.81395348837209,"velocity":0.3779527559055118},{"duration":0.06976744186046346,"midi":76,"time":78.81395348837209,"velocity":0.2677165354330709},{"duration":0.04651162790698038,"midi":83,"time":78.81395348837209,"velocity":0.16535433070866143},{"duration":0.16279069767442422,"midi":91,"time":78.81395348837209,"velocity":0.2755905511811024},{"duration":0.03488372093023884,"midi":94,"time":78.81395348837209,"velocity":0.25984251968503935},{"duration":0.15116279069766847,"midi":97,"time":78.81395348837209,"velocity":0.41732283464566927},{"duration":0.06976744186046346,"midi":102,"time":78.81395348837209,"velocity":0.30708661417322836},{"duration":0.023255813953497295,"midi":53,"time":78.82558139534883,"velocity":0.28346456692913385},{"duration":0.05813953488372192,"midi":64,"time":78.82558139534883,"velocity":0.3779527559055118},{"duration":0.08139534883721922,"midi":68,"time":78.82558139534883,"velocity":0.2755905511811024},{"duration":0.03488372093023884,"midi":74,"time":78.82558139534883,"velocity":0.14960629921259844},{"duration":0.04651162790698038,"midi":81,"time":78.82558139534883,"velocity":0.10236220472440945},{"duration":0.023255813953497295,"midi":99,"time":78.82558139534883,"velocity":0.2992125984251969},{"duration":0.023255813953497295,"midi":78,"time":78.83720930232558,"velocity":0.2283464566929134},{"duration":0.05813953488372192,"midi":46,"time":78.84883720930233,"velocity":0.31496062992125984},{"duration":0.04651162790696617,"midi":72,"time":78.84883720930233,"velocity":0.16535433070866143},{"duration":0.034883720930224626,"midi":95,"time":78.84883720930233,"velocity":0.25984251968503935},{"duration":0.081395348837205,"midi":53,"time":78.86046511627907,"velocity":0.28346456692913385},{"duration":0.05813953488372192,"midi":63,"time":78.88372093023256,"velocity":0.3543307086614173},{"duration":0.12790697674418539,"midi":94,"time":78.88372093023256,"velocity":0.3228346456692913},{"duration":0.03488372093023884,"midi":99,"time":78.88372093023256,"velocity":0.11811023622047244},{"duration":0.081395348837205,"midi":101,"time":78.88372093023256,"velocity":0.25196850393700787},{"duration":0.04651162790698038,"midi":34,"time":78.8953488372093,"velocity":0.31496062992125984},{"duration":0.023255813953483084,"midi":60,"time":78.94186046511628,"velocity":0.30708661417322836},{"duration":0.05813953488372192,"midi":66,"time":78.95348837209302,"velocity":0.13385826771653545},{"duration":0.03488372093023884,"midi":61,"time":78.96511627906976,"velocity":0.30708661417322836},{"duration":0.1046511627907023,"midi":73,"time":79,"velocity":0.2047244094488189},{"duration":0.03488372093023884,"midi":92,"time":79,"velocity":0.07874015748031496},{"duration":0.081395348837205,"midi":78,"time":79.01162790697674,"velocity":0.28346456692913385},{"duration":0.06976744186046346,"midi":91,"time":79.01162790697674,"velocity":0.15748031496062992},{"duration":0.11627906976744384,"midi":97,"time":79.01162790697674,"velocity":0.2283464566929134},{"duration":0.05813953488372192,"midi":64,"time":79.02325581395348,"velocity":0.4330708661417323},{"duration":0.04651162790698038,"midi":66,"time":79.02325581395348,"velocity":0.2755905511811024},{"duration":0.1860465116279073,"midi":75,"time":79.03488372093024,"velocity":0.1732283464566929},{"duration":0.09302325581394655,"midi":89,"time":79.03488372093024,"velocity":0.2283464566929134},{"duration":0.04651162790696617,"midi":61,"time":79.04651162790698,"velocity":0.4330708661417323},{"duration":0.081395348837205,"midi":95,"time":79.04651162790698,"velocity":0.16535433070866143},{"duration":0.023255813953483084,"midi":69,"time":79.06976744186046,"velocity":0.2677165354330709},{"duration":0.081395348837205,"midi":88,"time":79.06976744186046,"velocity":0.2204724409448819},{"duration":0.03488372093023884,"midi":92,"time":79.06976744186046,"velocity":0.23622047244094488},{"duration":0.19767441860464885,"midi":93,"time":79.06976744186046,"velocity":0.36220472440944884},{"duration":0.2325581395348877,"midi":96,"time":79.06976744186046,"velocity":0.33858267716535434},{"duration":0.06976744186046346,"midi":98,"time":79.06976744186046,"velocity":0.18110236220472442},{"duration":0.05813953488372192,"midi":99,"time":79.06976744186046,"velocity":0.1968503937007874},{"duration":0.081395348837205,"midi":102,"time":79.06976744186046,"velocity":0.2125984251968504},{"duration":0.05813953488372192,"midi":103,"time":79.06976744186046,"velocity":0.2125984251968504},{"duration":0.03488372093023884,"midi":65,"time":79.0813953488372,"velocity":0.47244094488188976},{"duration":0.03488372093023884,"midi":90,"time":79.0813953488372,"velocity":0.28346456692913385},{"duration":0.023255813953497295,"midi":45,"time":79.09302325581395,"velocity":0.5826771653543307},{"duration":0.04651162790698038,"midi":83,"time":79.09302325581395,"velocity":0.13385826771653545},{"duration":0.05813953488372192,"midi":91,"time":79.09302325581395,"velocity":0.1732283464566929},{"duration":0.011627906976741542,"midi":44,"time":79.11627906976744,"velocity":0.6062992125984252},{"duration":0.04651162790698038,"midi":66,"time":79.11627906976744,"velocity":0.4330708661417323},{"duration":0.011627906976741542,"midi":43,"time":79.12790697674419,"velocity":0.5748031496062992},{"duration":0.12790697674418539,"midi":82,"time":79.12790697674419,"velocity":0.11811023622047244},{"duration":0.011627906976741542,"midi":42,"time":79.13953488372093,"velocity":0.5511811023622047},{"duration":0.16279069767442422,"midi":77,"time":79.13953488372093,"velocity":0.25196850393700787},{"duration":0.1860465116279073,"midi":89,"time":79.13953488372093,"velocity":0.4015748031496063},{"duration":0.03488372093023884,"midi":95,"time":79.13953488372093,"velocity":0.08661417322834646},{"duration":0.04651162790698038,"midi":73,"time":79.15116279069767,"velocity":0.11811023622047244},{"duration":0.04651162790698038,"midi":94,"time":79.15116279069767,"velocity":0.11811023622047244},{"duration":0.023255813953483084,"midi":53,"time":79.16279069767442,"velocity":0.25196850393700787},{"duration":0.17441860465115155,"midi":65,"time":79.16279069767442,"velocity":0.5433070866141733},{"duration":0.17441860465116577,"midi":84,"time":79.17441860465117,"velocity":0.4645669291338583},{"duration":0.023255813953483084,"midi":37,"time":79.18604651162791,"velocity":0.3779527559055118},{"duration":0.12790697674418539,"midi":70,"time":79.19767441860465,"velocity":0.29133858267716534},{"duration":0.03488372093023884,"midi":72,"time":79.19767441860465,"velocity":0.18110236220472442},{"duration":0.03488372093023884,"midi":99,"time":79.19767441860465,"velocity":0.1968503937007874},{"duration":0.023255813953497295,"midi":36,"time":79.20930232558139,"velocity":0.2992125984251969},{"duration":0.023255813953497295,"midi":55,"time":79.20930232558139,"velocity":0.28346456692913385},{"duration":0.03488372093023884,"midi":91,"time":79.20930232558139,"velocity":0.11811023622047244},{"duration":0.05813953488370771,"midi":68,"time":79.22093023255815,"velocity":0.30708661417322836},{"duration":0.05813953488372192,"midi":56,"time":79.23255813953489,"velocity":0.2677165354330709},{"duration":0.05813953488372192,"midi":73,"time":79.23255813953489,"velocity":0.14173228346456693},{"duration":0.04651162790698038,"midi":103,"time":79.26744186046511,"velocity":0.2125984251968504},{"duration":0.09302325581396076,"midi":93,"time":79.27906976744185,"velocity":0.1968503937007874},{"duration":0.023255813953483084,"midi":75,"time":79.29069767441861,"velocity":0.2440944881889764},{"duration":0.04651162790698038,"midi":76,"time":79.30232558139535,"velocity":0.33070866141732286},{"duration":0.17441860465116577,"midi":97,"time":79.30232558139535,"velocity":0.36220472440944884},{"duration":0.03488372093023884,"midi":73,"time":79.31395348837209,"velocity":0.2283464566929134},{"duration":0.03488372093023884,"midi":98,"time":79.31395348837209,"velocity":0.11023622047244094},{"duration":0.023255813953497295,"midi":64,"time":79.32558139534883,"velocity":0.47244094488188976},{"duration":0.08139534883721922,"midi":82,"time":79.32558139534883,"velocity":0.3464566929133858},{"duration":0.03488372093023884,"midi":90,"time":79.32558139534883,"velocity":0.14960629921259844},{"duration":0.05813953488372192,"midi":71,"time":79.33720930232558,"velocity":0.1889763779527559},{"duration":0.03488372093023884,"midi":86,"time":79.33720930232558,"velocity":0.18110236220472442},{"duration":0.06976744186047767,"midi":87,"time":79.33720930232558,"velocity":0.5039370078740157},{"duration":0.08139534883721922,"midi":89,"time":79.33720930232558,"velocity":0.16535433070866143},{"duration":0.03488372093023884,"midi":103,"time":79.33720930232558,"velocity":0.25196850393700787},{"duration":0.023255813953483084,"midi":65,"time":79.34883720930233,"velocity":0.3937007874015748},{"duration":0.05813953488372192,"midi":75,"time":79.34883720930233,"velocity":0.49606299212598426},{"duration":0.034883720930224626,"midi":80,"time":79.34883720930233,"velocity":0.09448818897637795},{"duration":0.023255813953483084,"midi":83,"time":79.34883720930233,"velocity":0.28346456692913385},{"duration":0.023255813953483084,"midi":41,"time":79.36046511627907,"velocity":0.33070866141732286},{"duration":0.06976744186046346,"midi":63,"time":79.36046511627907,"velocity":0.25984251968503935},{"duration":0.05813953488372192,"midi":78,"time":79.36046511627907,"velocity":0.18110236220472442},{"duration":0.10465116279068809,"midi":84,"time":79.36046511627907,"velocity":0.1889763779527559},{"duration":0.5930232558139465,"midi":91,"time":79.36046511627907,"velocity":0.4566929133858268},{"duration":0.023255813953497295,"midi":83,"time":79.3953488372093,"velocity":0.3700787401574803},{"duration":0.05813953488372192,"midi":102,"time":79.3953488372093,"velocity":0.2677165354330709},{"duration":0.034883720930224626,"midi":48,"time":79.40697674418605,"velocity":0.25984251968503935},{"duration":0.023255813953483084,"midi":76,"time":79.40697674418605,"velocity":0.3937007874015748},{"duration":0.023255813953483084,"midi":88,"time":79.40697674418605,"velocity":0.4409448818897638},{"duration":0.05813953488372192,"midi":41,"time":79.4186046511628,"velocity":0.2440944881889764},{"duration":0.27906976744185386,"midi":82,"time":79.4186046511628,"velocity":0.41732283464566927},{"duration":0.081395348837205,"midi":65,"time":79.43023255813954,"velocity":0.2992125984251969},{"duration":0.4534883720930196,"midi":75,"time":79.43023255813954,"velocity":0.4330708661417323},{"duration":0.034883720930224626,"midi":101,"time":79.43023255813954,"velocity":0.16535433070866143},{"duration":0.03488372093023884,"midi":73,"time":79.44186046511628,"velocity":0.2047244094488189},{"duration":0.04651162790698038,"midi":78,"time":79.45348837209302,"velocity":0.25196850393700787},{"duration":0.03488372093023884,"midi":95,"time":79.45348837209302,"velocity":0.11023622047244094},{"duration":0.03488372093023884,"midi":61,"time":79.46511627906976,"velocity":0.29133858267716534},{"duration":0.023255813953497295,"midi":69,"time":79.46511627906976,"velocity":0.3700787401574803},{"duration":0.06976744186047767,"midi":80,"time":79.46511627906976,"velocity":0.1968503937007874},{"duration":0.03488372093023884,"midi":83,"time":79.46511627906976,"velocity":0.2440944881889764},{"duration":0.03488372093023884,"midi":88,"time":79.46511627906976,"velocity":0.1889763779527559},{"duration":0.03488372093023884,"midi":89,"time":79.46511627906976,"velocity":0.14173228346456693},{"duration":0.04651162790698038,"midi":93,"time":79.46511627906976,"velocity":0.1968503937007874},{"duration":0.03488372093023884,"midi":96,"time":79.46511627906976,"velocity":0.2992125984251969},{"duration":0.03488372093023884,"midi":98,"time":79.46511627906976,"velocity":0.2204724409448819},{"duration":0.03488372093023884,"midi":100,"time":79.46511627906976,"velocity":0.1968503937007874},{"duration":0.03488372093023884,"midi":102,"time":79.46511627906976,"velocity":0.14173228346456693},{"duration":0.023255813953483084,"midi":57,"time":79.47674418604652,"velocity":0.30708661417322836},{"duration":0.05813953488372192,"midi":72,"time":79.47674418604652,"velocity":0.2992125984251969},{"duration":0.06976744186046346,"midi":68,"time":79.48837209302326,"velocity":0.3779527559055118},{"duration":0.023255813953483084,"midi":62,"time":79.5,"velocity":0.29133858267716534},{"duration":0.17441860465116577,"midi":97,"time":79.5,"velocity":0.29133858267716534},{"duration":0.22093023255814614,"midi":101,"time":79.5,"velocity":0.23622047244094488},{"duration":0.081395348837205,"midi":46,"time":79.51162790697674,"velocity":0.33858267716535434},{"duration":0.06976744186046346,"midi":70,"time":79.51162790697674,"velocity":0.14173228346456693},{"duration":0.03488372093023884,"midi":64,"time":79.52325581395348,"velocity":0.3228346456692913},{"duration":0.023255813953483084,"midi":55,"time":79.53488372093024,"velocity":0.2992125984251969},{"duration":0.023255813953483084,"midi":34,"time":79.54651162790698,"velocity":0.30708661417322836},{"duration":0.034883720930224626,"midi":53,"time":79.54651162790698,"velocity":0.2440944881889764},{"duration":0.023255813953497295,"midi":34,"time":79.5813953488372,"velocity":0.25196850393700787},{"duration":0.06976744186046346,"midi":68,"time":79.5813953488372,"velocity":0.2755905511811024},{"duration":0.03488372093023884,"midi":89,"time":79.59302325581395,"velocity":0.1889763779527559},{"duration":0.03488372093023884,"midi":95,"time":79.59302325581395,"velocity":0.23622047244094488},{"duration":0.04651162790696617,"midi":79,"time":79.6046511627907,"velocity":0.2125984251968504},{"duration":0.034883720930224626,"midi":83,"time":79.6046511627907,"velocity":0.18110236220472442},{"duration":0.09302325581394655,"midi":58,"time":79.61627906976744,"velocity":0.31496062992125984},{"duration":0.023255813953483084,"midi":45,"time":79.62790697674419,"velocity":0.6299212598425197},{"duration":0.081395348837205,"midi":72,"time":79.62790697674419,"velocity":0.13385826771653545},{"duration":0.08139534883721922,"midi":65,"time":79.63953488372093,"velocity":0.28346456692913385},{"duration":0.011627906976755753,"midi":44,"time":79.65116279069767,"velocity":0.5984251968503937},{"duration":0.023255813953483084,"midi":42,"time":79.66279069767442,"velocity":0.5669291338582677},{"duration":0.081395348837205,"midi":53,"time":79.66279069767442,"velocity":0.2677165354330709},{"duration":0.023255813953497295,"midi":37,"time":79.69767441860465,"velocity":0.4881889763779528},{"duration":0.023255813953497295,"midi":62,"time":79.69767441860465,"velocity":0.28346456692913385},{"duration":0.17441860465116577,"midi":82,"time":79.70930232558139,"velocity":0.28346456692913385},{"duration":0.023255813953483084,"midi":36,"time":79.72093023255815,"velocity":0.36220472440944884},{"duration":0.06976744186046346,"midi":63,"time":79.72093023255815,"velocity":0.23622047244094488},{"duration":0.24418604651162923,"midi":68,"time":79.75581395348837,"velocity":0.4015748031496063},{"duration":0.023255813953483084,"midi":73,"time":79.86046511627907,"velocity":0.33070866141732286},{"duration":0.034883720930224626,"midi":93,"time":79.86046511627907,"velocity":0.2440944881889764},{"duration":0.2093023255813904,"midi":97,"time":79.86046511627907,"velocity":0.33858267716535434},{"duration":0.034883720930224626,"midi":98,"time":79.86046511627907,"velocity":0.25196850393700787},{"duration":0.034883720930224626,"midi":100,"time":79.86046511627907,"velocity":0.1732283464566929},{"duration":0.11627906976744384,"midi":56,"time":79.87209302325581,"velocity":0.3937007874015748},{"duration":0.03488372093023884,"midi":64,"time":79.87209302325581,"velocity":0.3937007874015748},{"duration":0.081395348837205,"midi":78,"time":79.87209302325581,"velocity":0.14173228346456693},{"duration":0.04651162790698038,"midi":81,"time":79.87209302325581,"velocity":0.1889763779527559},{"duration":0.03488372093023884,"midi":84,"time":79.87209302325581,"velocity":0.07086614173228346},{"duration":0.03488372093023884,"midi":86,"time":79.87209302325581,"velocity":0.23622047244094488},{"duration":0.03488372093023884,"midi":92,"time":79.87209302325581,"velocity":0.15748031496062992},{"duration":0.5,"midi":94,"time":79.87209302325581,"velocity":0.48031496062992124},{"duration":0.17441860465116577,"midi":101,"time":79.87209302325581,"velocity":0.1889763779527559},{"duration":0.09302325581396076,"midi":72,"time":79.88372093023256,"velocity":0.2755905511811024},{"duration":0.03488372093023884,"midi":74,"time":79.88372093023256,"velocity":0.29133858267716534},{"duration":0.09302325581396076,"midi":79,"time":79.88372093023256,"velocity":0.09448818897637795},{"duration":0.09302325581396076,"midi":51,"time":79.8953488372093,"velocity":0.2992125984251969},{"duration":0.19767441860464885,"midi":75,"time":79.8953488372093,"velocity":0.3700787401574803},{"duration":0.15116279069768268,"midi":82,"time":79.8953488372093,"velocity":0.1732283464566929},{"duration":0.04651162790696617,"midi":44,"time":79.90697674418605,"velocity":0.33070866141732286},{"duration":0.13953488372092693,"midi":63,"time":79.90697674418605,"velocity":0.36220472440944884},{"duration":0.04651162790696617,"midi":70,"time":79.90697674418605,"velocity":0.07874015748031496},{"duration":0.023255813953497295,"midi":33,"time":79.95348837209302,"velocity":0.2755905511811024},{"duration":0.03488372093023884,"midi":44,"time":79.96511627906976,"velocity":0.2125984251968504},{"duration":0.034883720930224626,"midi":32,"time":79.97674418604652,"velocity":0.28346456692913385},{"duration":0.09302325581394655,"midi":91,"time":79.97674418604652,"velocity":0.2440944881889764},{"duration":0.06976744186046346,"midi":83,"time":80,"velocity":0.14960629921259844},{"duration":0.03488372093023884,"midi":88,"time":80,"velocity":0.16535433070866143},{"duration":0.03488372093023884,"midi":79,"time":80.01162790697674,"velocity":0.2440944881889764},{"duration":0.1046511627907023,"midi":53,"time":80.02325581395348,"velocity":0.31496062992125984},{"duration":0.09302325581396076,"midi":58,"time":80.02325581395348,"velocity":0.2755905511811024},{"duration":0.05813953488372192,"midi":68,"time":80.02325581395348,"velocity":0.09448818897637795},{"duration":0.10465116279068809,"midi":46,"time":80.03488372093024,"velocity":0.2992125984251969},{"duration":0.17441860465115155,"midi":72,"time":80.03488372093024,"velocity":0.2204724409448819},{"duration":0.034883720930224626,"midi":64,"time":80.04651162790698,"velocity":0.3779527559055118},{"duration":0.023255813953483084,"midi":35,"time":80.05813953488372,"velocity":0.3543307086614173},{"duration":0.11627906976744384,"midi":77,"time":80.05813953488372,"velocity":0.1889763779527559},{"duration":0.16279069767442422,"midi":82,"time":80.06976744186046,"velocity":0.4251968503937008},{"duration":0.06976744186046346,"midi":34,"time":80.0813953488372,"velocity":0.36220472440944884},{"duration":0.023255813953497295,"midi":63,"time":80.0813953488372,"velocity":0.3464566929133858},{"duration":0.023255813953483084,"midi":62,"time":80.1046511627907,"velocity":0.33858267716535434},{"duration":0.15116279069766847,"midi":75,"time":80.1046511627907,"velocity":0.4094488188976378},{"duration":0.034883720930224626,"midi":78,"time":80.11627906976744,"velocity":0.2047244094488189},{"duration":0.09302325581394655,"midi":90,"time":80.11627906976744,"velocity":0.31496062992125984},{"duration":0.03488372093023884,"midi":88,"time":80.12790697674419,"velocity":0.2440944881889764},{"duration":0.03488372093023884,"midi":92,"time":80.12790697674419,"velocity":0.1968503937007874},{"duration":0.05813953488372192,"midi":95,"time":80.12790697674419,"velocity":0.12598425196850394},{"duration":0.04651162790698038,"midi":97,"time":80.12790697674419,"velocity":0.1889763779527559},{"duration":0.06976744186046346,"midi":101,"time":80.12790697674419,"velocity":0.15748031496062992},{"duration":0.09302325581396076,"midi":103,"time":80.12790697674419,"velocity":0.12598425196850394},{"duration":0.023255813953497295,"midi":60,"time":80.13953488372093,"velocity":0.4094488188976378},{"duration":0.11627906976744384,"midi":63,"time":80.13953488372093,"velocity":0.36220472440944884},{"duration":0.03488372093023884,"midi":70,"time":80.13953488372093,"velocity":0.1889763779527559},{"duration":0.06976744186046346,"midi":89,"time":80.13953488372093,"velocity":0.2204724409448819},{"duration":0.03488372093023884,"midi":96,"time":80.13953488372093,"velocity":0.13385826771653545},{"duration":0.15116279069768268,"midi":91,"time":80.15116279069767,"velocity":0.15748031496062992},{"duration":0.011627906976741542,"midi":45,"time":80.16279069767442,"velocity":0.5826771653543307},{"duration":0.011627906976741542,"midi":44,"time":80.17441860465117,"velocity":0.6062992125984252},{"duration":0.011627906976741542,"midi":43,"time":80.18604651162791,"velocity":0.5826771653543307},{"duration":0.011627906976741542,"midi":42,"time":80.19767441860465,"velocity":0.5511811023622047},{"duration":0.03488372093023884,"midi":85,"time":80.19767441860465,"velocity":0.11811023622047244},{"duration":0.023255813953483084,"midi":53,"time":80.22093023255815,"velocity":0.25196850393700787},{"duration":0.034883720930224626,"midi":60,"time":80.22093023255815,"velocity":0.2125984251968504},{"duration":0.09302325581394655,"midi":83,"time":80.23255813953489,"velocity":0.4409448818897638},{"duration":0.09302325581394655,"midi":88,"time":80.23255813953489,"velocity":0.4645669291338583},{"duration":0.09302325581394655,"midi":102,"time":80.23255813953489,"velocity":0.1732283464566929},{"duration":0.023255813953483084,"midi":37,"time":80.24418604651163,"velocity":0.3858267716535433},{"duration":0.081395348837205,"midi":76,"time":80.24418604651163,"velocity":0.3779527559055118},{"duration":0.1860465116279073,"midi":68,"time":80.25581395348837,"velocity":0.3228346456692913},{"duration":0.04651162790698038,"midi":72,"time":80.25581395348837,"velocity":0.25196850393700787},{"duration":0.03488372093023884,"midi":77,"time":80.25581395348837,"velocity":0.1968503937007874},{"duration":0.04651162790698038,"midi":82,"time":80.25581395348837,"velocity":0.23622047244094488},{"duration":0.06976744186046346,"midi":86,"time":80.25581395348837,"velocity":0.2047244094488189},{"duration":0.03488372093023884,"midi":93,"time":80.25581395348837,"velocity":0.1968503937007874},{"duration":0.04651162790698038,"midi":99,"time":80.25581395348837,"velocity":0.14960629921259844},{"duration":0.03488372093023884,"midi":101,"time":80.25581395348837,"velocity":0.09448818897637795},{"duration":0.023255813953497295,"midi":36,"time":80.26744186046511,"velocity":0.2992125984251969},{"duration":0.03488372093023884,"midi":48,"time":80.26744186046511,"velocity":0.33858267716535434},{"duration":0.023255813953497295,"midi":55,"time":80.26744186046511,"velocity":0.36220472440944884},{"duration":0.023255813953497295,"midi":64,"time":80.26744186046511,"velocity":0.33070866141732286},{"duration":0.06976744186046346,"midi":79,"time":80.26744186046511,"velocity":0.2283464566929134},{"duration":0.03488372093023884,"midi":92,"time":80.26744186046511,"velocity":0.14960629921259844},{"duration":0.023255813953483084,"midi":40,"time":80.29069767441861,"velocity":0.25196850393700787},{"duration":0.10465116279068809,"midi":56,"time":80.29069767441861,"velocity":0.3700787401574803},{"duration":0.034883720930224626,"midi":61,"time":80.29069767441861,"velocity":0.28346456692913385},{"duration":0.09302325581394655,"midi":65,"time":80.29069767441861,"velocity":0.31496062992125984},{"duration":0.034883720930224626,"midi":49,"time":80.30232558139535,"velocity":0.2677165354330709},{"duration":0.04651162790698038,"midi":37,"time":80.31395348837209,"velocity":0.36220472440944884},{"duration":0.081395348837205,"midi":72,"time":80.31395348837209,"velocity":0.1732283464566929},{"duration":0.06976744186046346,"midi":75,"time":80.32558139534883,"velocity":0.5039370078740157},{"duration":0.15116279069768268,"midi":82,"time":80.32558139534883,"velocity":0.36220472440944884},{"duration":0.03488372093023884,"midi":61,"time":80.33720930232558,"velocity":0.2204724409448819},{"duration":0.03488372093023884,"midi":37,"time":80.37209302325581,"velocity":0.23622047244094488},{"duration":0.04651162790698038,"midi":64,"time":80.37209302325581,"velocity":0.3779527559055118},{"duration":0.06976744186046346,"midi":88,"time":80.37209302325581,"velocity":0.25196850393700787},{"duration":0.023255813953497295,"midi":50,"time":80.3953488372093,"velocity":0.30708661417322836},{"duration":0.12790697674418539,"midi":55,"time":80.3953488372093,"velocity":0.2755905511811024},{"duration":0.27906976744186807,"midi":77,"time":80.3953488372093,"velocity":0.4881889763779528},{"duration":0.04651162790698038,"midi":90,"time":80.3953488372093,"velocity":0.16535433070866143},{"duration":0.11627906976744384,"midi":93,"time":80.3953488372093,"velocity":0.2125984251968504},{"duration":0.1046511627907023,"midi":99,"time":80.3953488372093,"velocity":0.31496062992125984},{"duration":0.05813953488370771,"midi":70,"time":80.40697674418605,"velocity":0.1889763779527559},{"duration":0.05813953488370771,"midi":81,"time":80.40697674418605,"velocity":0.2204724409448819},{"duration":0.15116279069766847,"midi":84,"time":80.40697674418605,"velocity":0.31496062992125984},{"duration":0.09302325581394655,"midi":101,"time":80.40697674418605,"velocity":0.14960629921259844},{"duration":0.034883720930224626,"midi":103,"time":80.40697674418605,"velocity":0.1889763779527559},{"duration":0.12790697674418539,"midi":48,"time":80.4186046511628,"velocity":0.3779527559055118},{"duration":0.09302325581394655,"midi":65,"time":80.4186046511628,"velocity":0.3858267716535433},{"duration":0.04651162790696617,"midi":79,"time":80.4186046511628,"velocity":0.14173228346456693},{"duration":0.023255813953483084,"midi":76,"time":80.43023255813954,"velocity":0.25196850393700787},{"duration":0.06976744186046346,"midi":83,"time":80.44186046511628,"velocity":0.2047244094488189},{"duration":0.09302325581396076,"midi":36,"time":80.46511627906976,"velocity":0.3543307086614173},{"duration":0.023255813953497295,"midi":76,"time":80.46511627906976,"velocity":0.2283464566929134},{"duration":0.19767441860466306,"midi":80,"time":80.46511627906976,"velocity":0.1968503937007874},{"duration":0.034883720930224626,"midi":103,"time":80.47674418604652,"velocity":0.23622047244094488},{"duration":0.04651162790698038,"midi":68,"time":80.48837209302326,"velocity":0.15748031496062992},{"duration":0.05813953488372192,"midi":98,"time":80.5,"velocity":0.2125984251968504},{"duration":0.04651162790698038,"midi":64,"time":80.51162790697674,"velocity":0.30708661417322836},{"duration":0.04651162790698038,"midi":82,"time":80.51162790697674,"velocity":0.1889763779527559},{"duration":0.023255813953497295,"midi":69,"time":80.52325581395348,"velocity":0.2755905511811024},{"duration":0.04651162790698038,"midi":99,"time":80.52325581395348,"velocity":0.18110236220472442},{"duration":0.034883720930224626,"midi":75,"time":80.53488372093024,"velocity":0.31496062992125984},{"duration":0.05813953488372192,"midi":56,"time":80.54651162790698,"velocity":0.2992125984251969},{"duration":0.05813953488372192,"midi":88,"time":80.54651162790698,"velocity":0.11811023622047244},{"duration":0.034883720930224626,"midi":63,"time":80.55813953488372,"velocity":0.15748031496062992},{"duration":0.05813953488372192,"midi":60,"time":80.5813953488372,"velocity":0.14960629921259844},{"duration":0.06976744186046346,"midi":87,"time":80.5813953488372,"velocity":0.08661417322834646},{"duration":0.04651162790698038,"midi":65,"time":80.61627906976744,"velocity":0.2992125984251969},{"duration":0.06976744186046346,"midi":84,"time":80.63953488372093,"velocity":0.2283464566929134},{"duration":0.023255813953497295,"midi":55,"time":80.65116279069767,"velocity":0.2992125984251969},{"duration":0.08139534883721922,"midi":95,"time":80.65116279069767,"velocity":0.2992125984251969},{"duration":0.03488372093023884,"midi":96,"time":80.65116279069767,"velocity":0.25196850393700787},{"duration":0.03488372093023884,"midi":103,"time":80.65116279069767,"velocity":0.2283464566929134},{"duration":0.19767441860464885,"midi":68,"time":80.66279069767442,"velocity":0.1889763779527559},{"duration":0.13953488372092693,"midi":72,"time":80.66279069767442,"velocity":0.12598425196850394},{"duration":0.06976744186046346,"midi":83,"time":80.66279069767442,"velocity":0.14173228346456693},{"duration":0.06976744186046346,"midi":92,"time":80.66279069767442,"velocity":0.33070866141732286},{"duration":0.06976744186046346,"midi":102,"time":80.66279069767442,"velocity":0.15748031496062992},{"duration":0.034883720930224626,"midi":76,"time":80.67441860465117,"velocity":0.16535433070866143},{"duration":0.023255813953483084,"midi":45,"time":80.68604651162791,"velocity":0.6377952755905512},{"duration":0.05813953488372192,"midi":64,"time":80.68604651162791,"velocity":0.4409448818897638},{"duration":0.09302325581396076,"midi":77,"time":80.69767441860465,"velocity":0.16535433070866143},{"duration":0.011627906976755753,"midi":44,"time":80.70930232558139,"velocity":0.6062992125984252},{"duration":0.023255813953483084,"midi":42,"time":80.72093023255815,"velocity":0.5826771653543307},{"duration":0.15116279069766847,"midi":97,"time":80.72093023255815,"velocity":0.2125984251968504},{"duration":0.16279069767441,"midi":75,"time":80.73255813953489,"velocity":0.2755905511811024},{"duration":0.06976744186046346,"midi":82,"time":80.73255813953489,"velocity":0.14173228346456693},{"duration":0.15116279069766847,"midi":91,"time":80.73255813953489,"velocity":0.29133858267716534},{"duration":0.15116279069766847,"midi":94,"time":80.73255813953489,"velocity":0.4251968503937008},{"duration":0.15116279069766847,"midi":101,"time":80.73255813953489,"velocity":0.1889763779527559},{"duration":0.05813953488372192,"midi":60,"time":80.74418604651163,"velocity":0.15748031496062992},{"duration":0.023255813953483084,"midi":63,"time":80.74418604651163,"velocity":0.33070866141732286},{"duration":0.3720930232558146,"midi":103,"time":80.75581395348837,"velocity":0.4330708661417323},{"duration":0.1046511627907023,"midi":63,"time":80.77906976744185,"velocity":0.41732283464566927},{"duration":0.034883720930224626,"midi":36,"time":80.79069767441861,"velocity":0.33858267716535434},{"duration":0.04651162790698038,"midi":80,"time":80.86046511627907,"velocity":0.14173228346456693},{"duration":0.3139534883720927,"midi":72,"time":80.87209302325581,"velocity":0.31496062992125984},{"duration":0.15116279069766847,"midi":77,"time":80.87209302325581,"velocity":0.1732283464566929},{"duration":0.03488372093023884,"midi":96,"time":80.87209302325581,"velocity":0.1889763779527559},{"duration":0.023255813953497295,"midi":62,"time":80.88372093023256,"velocity":0.3937007874015748},{"duration":0.05813953488372192,"midi":93,"time":80.88372093023256,"velocity":0.3779527559055118},{"duration":0.05813953488372192,"midi":95,"time":80.88372093023256,"velocity":0.30708661417322836},{"duration":0.5465116279069804,"midi":94,"time":80.8953488372093,"velocity":0.3779527559055118},{"duration":0.17441860465115155,"midi":63,"time":80.90697674418605,"velocity":0.36220472440944884},{"duration":0.023255813953483084,"midi":59,"time":80.9186046511628,"velocity":0.30708661417322836},{"duration":0.23255813953487348,"midi":68,"time":80.9186046511628,"velocity":0.4251968503937008},{"duration":0.04651162790696617,"midi":91,"time":80.9186046511628,"velocity":0.15748031496062992},{"duration":0.13953488372092693,"midi":96,"time":80.9186046511628,"velocity":0.15748031496062992},{"duration":0.034883720930224626,"midi":98,"time":80.9186046511628,"velocity":0.2047244094488189},{"duration":0.04651162790696617,"midi":99,"time":80.9186046511628,"velocity":0.2047244094488189},{"duration":0.034883720930224626,"midi":102,"time":80.9186046511628,"velocity":0.10236220472440945},{"duration":0.19767441860464885,"midi":92,"time":80.93023255813954,"velocity":0.31496062992125984},{"duration":0.04651162790698038,"midi":97,"time":80.93023255813954,"velocity":0.07874015748031496},{"duration":0.03488372093023884,"midi":93,"time":80.95348837209302,"velocity":0.08661417322834646},{"duration":0.17441860465116577,"midi":56,"time":80.96511627906976,"velocity":0.4409448818897638},{"duration":0.13953488372094114,"midi":77,"time":81.0813953488372,"velocity":0.1889763779527559},{"duration":0.09302325581396076,"midi":75,"time":81.09302325581395,"velocity":0.2047244094488189},{"duration":0.03488372093023884,"midi":102,"time":81.09302325581395,"velocity":0.12598425196850394},{"duration":0.03488372093023884,"midi":93,"time":81.12790697674419,"velocity":0.10236220472440945},{"duration":0.023255813953497295,"midi":55,"time":81.13953488372093,"velocity":0.4015748031496063},{"duration":0.12790697674418539,"midi":102,"time":81.13953488372093,"velocity":0.2677165354330709},{"duration":0.034883720930224626,"midi":56,"time":81.16279069767442,"velocity":0.5039370078740157},{"duration":0.17441860465116577,"midi":97,"time":81.17441860465117,"velocity":0.30708661417322836},{"duration":0.19767441860464885,"midi":103,"time":81.17441860465117,"velocity":0.2204724409448819},{"duration":0.081395348837205,"midi":89,"time":81.18604651162791,"velocity":0.2125984251968504},{"duration":0.09302325581394655,"midi":90,"time":81.18604651162791,"velocity":0.29133858267716534},{"duration":0.30232558139535115,"midi":92,"time":81.18604651162791,"velocity":0.3464566929133858},{"duration":0.06976744186046346,"midi":95,"time":81.18604651162791,"velocity":0.18110236220472442},{"duration":0.24418604651162923,"midi":96,"time":81.18604651162791,"velocity":0.18110236220472442},{"duration":0.05813953488372192,"midi":98,"time":81.18604651162791,"velocity":0.1889763779527559},{"duration":0.03488372093023884,"midi":100,"time":81.18604651162791,"velocity":0.11023622047244094},{"duration":0.03488372093023884,"midi":45,"time":81.19767441860465,"velocity":0.5905511811023622},{"duration":0.011627906976741542,"midi":55,"time":81.19767441860465,"velocity":0.5354330708661418},{"duration":0.03488372093023884,"midi":72,"time":81.19767441860465,"velocity":0.2047244094488189},{"duration":0.06976744186046346,"midi":82,"time":81.19767441860465,"velocity":0.13385826771653545},{"duration":0.09302325581396076,"midi":88,"time":81.19767441860465,"velocity":0.2283464566929134},{"duration":0.06976744186046346,"midi":93,"time":81.19767441860465,"velocity":0.14960629921259844},{"duration":0.05813953488372192,"midi":101,"time":81.19767441860465,"velocity":0.2283464566929134},{"duration":0.08139534883721922,"midi":56,"time":81.20930232558139,"velocity":0.4015748031496063},{"duration":0.24418604651162923,"midi":75,"time":81.20930232558139,"velocity":0.3779527559055118},{"duration":0.04651162790698038,"midi":83,"time":81.20930232558139,"velocity":0.12598425196850394},{"duration":0.011627906976741542,"midi":44,"time":81.23255813953489,"velocity":0.6062992125984252},{"duration":0.011627906976741542,"midi":43,"time":81.24418604651163,"velocity":0.5748031496062992},{"duration":0.11627906976744384,"midi":84,"time":81.24418604651163,"velocity":0.1732283464566929},{"duration":0.011627906976741542,"midi":42,"time":81.25581395348837,"velocity":0.5354330708661418},{"duration":0.04651162790698038,"midi":63,"time":81.27906976744185,"velocity":0.1968503937007874},{"duration":0.06976744186047767,"midi":77,"time":81.27906976744185,"velocity":0.09448818897637795},{"duration":0.1860465116279073,"midi":102,"time":81.29069767441861,"velocity":0.23622047244094488},{"duration":0.023255813953483084,"midi":37,"time":81.30232558139535,"velocity":0.36220472440944884},{"duration":0.023255813953483084,"midi":56,"time":81.30232558139535,"velocity":0.4094488188976378},{"duration":0.12790697674418539,"midi":90,"time":81.30232558139535,"velocity":0.2283464566929134},{"duration":0.06976744186046346,"midi":72,"time":81.31395348837209,"velocity":0.2677165354330709},{"duration":0.03488372093023884,"midi":93,"time":81.31395348837209,"velocity":0.1968503937007874},{"duration":0.09302325581396076,"midi":98,"time":81.31395348837209,"velocity":0.1889763779527559},{"duration":0.04651162790698038,"midi":99,"time":81.31395348837209,"velocity":0.2204724409448819},{"duration":0.03488372093023884,"midi":35,"time":81.33720930232558,"velocity":0.2283464566929134},{"duration":0.12790697674418539,"midi":56,"time":81.33720930232558,"velocity":0.4251968503937008},{"duration":0.05813953488372192,"midi":63,"time":81.36046511627907,"velocity":0.28346456692913385},{"duration":0.05813953488370771,"midi":72,"time":81.40697674418605,"velocity":0.1968503937007874},{"duration":0.11627906976742963,"midi":97,"time":81.40697674418605,"velocity":0.14960629921259844},{"duration":0.034883720930224626,"midi":103,"time":81.40697674418605,"velocity":0.15748031496062992},{"duration":0.06976744186046346,"midi":60,"time":81.4186046511628,"velocity":0.23622047244094488},{"duration":0.034883720930224626,"midi":77,"time":81.4186046511628,"velocity":0.13385826771653545},{"duration":0.05813953488372192,"midi":95,"time":81.43023255813954,"velocity":0.2283464566929134},{"duration":0.023255813953483084,"midi":67,"time":81.44186046511628,"velocity":0.3700787401574803},{"duration":0.081395348837205,"midi":78,"time":81.44186046511628,"velocity":0.1889763779527559},{"duration":0.06976744186046346,"midi":91,"time":81.44186046511628,"velocity":0.23622047244094488},{"duration":0.05813953488372192,"midi":93,"time":81.44186046511628,"velocity":0.4015748031496063},{"duration":0.03488372093023884,"midi":74,"time":81.45348837209302,"velocity":0.3543307086614173},{"duration":0.13953488372092693,"midi":80,"time":81.45348837209302,"velocity":0.2125984251968504},{"duration":0.023255813953497295,"midi":55,"time":81.46511627906976,"velocity":0.4015748031496063},{"duration":0.30232558139535115,"midi":68,"time":81.46511627906976,"velocity":0.4566929133858268},{"duration":0.023255813953483084,"midi":41,"time":81.47674418604652,"velocity":0.33858267716535434},{"duration":0.081395348837205,"midi":75,"time":81.47674418604652,"velocity":0.31496062992125984},{"duration":0.023255813953483084,"midi":56,"time":81.48837209302326,"velocity":0.4094488188976378},{"duration":0.2093023255813904,"midi":96,"time":81.48837209302326,"velocity":0.23622047244094488},{"duration":0.05813953488372192,"midi":72,"time":81.5,"velocity":0.2047244094488189},{"duration":0.081395348837205,"midi":77,"time":81.5,"velocity":0.14960629921259844},{"duration":0.1860465116279073,"midi":92,"time":81.5,"velocity":0.3543307086614173},{"duration":0.2093023255813904,"midi":94,"time":81.5,"velocity":0.4094488188976378},{"duration":0.1046511627907023,"midi":102,"time":81.51162790697674,"velocity":0.1968503937007874},{"duration":0.03488372093023884,"midi":48,"time":81.52325581395348,"velocity":0.2677165354330709},{"duration":0.1046511627907023,"midi":56,"time":81.52325581395348,"velocity":0.4330708661417323},{"duration":0.04651162790696617,"midi":41,"time":81.53488372093024,"velocity":0.25984251968503935},{"duration":0.04651162790696617,"midi":65,"time":81.53488372093024,"velocity":0.10236220472440945},{"duration":0.05813953488372192,"midi":103,"time":81.56976744186046,"velocity":0.11811023622047244},{"duration":0.13953488372094114,"midi":75,"time":81.5813953488372,"velocity":0.3700787401574803},{"duration":0.06976744186046346,"midi":79,"time":81.5813953488372,"velocity":0.2283464566929134},{"duration":0.05813953488372192,"midi":84,"time":81.5813953488372,"velocity":0.1732283464566929},{"duration":0.03488372093023884,"midi":86,"time":81.5813953488372,"velocity":0.18110236220472442},{"duration":0.04651162790698038,"midi":88,"time":81.5813953488372,"velocity":0.1889763779527559},{"duration":0.04651162790698038,"midi":93,"time":81.5813953488372,"velocity":0.15748031496062992},{"duration":0.04651162790698038,"midi":99,"time":81.5813953488372,"velocity":0.15748031496062992},{"duration":0.04651162790698038,"midi":101,"time":81.5813953488372,"velocity":0.12598425196850394},{"duration":0.023255813953497295,"midi":63,"time":81.59302325581395,"velocity":0.2755905511811024},{"duration":0.06976744186047767,"midi":72,"time":81.59302325581395,"velocity":0.2204724409448819},{"duration":0.03488372093023884,"midi":81,"time":81.59302325581395,"velocity":0.15748031496062992},{"duration":0.05813953488372192,"midi":97,"time":81.59302325581395,"velocity":0.11811023622047244},{"duration":0.05813953488372192,"midi":62,"time":81.61627906976744,"velocity":0.2047244094488189},{"duration":0.04651162790698038,"midi":70,"time":81.61627906976744,"velocity":0.14173228346456693},{"duration":0.023255813953483084,"midi":55,"time":81.62790697674419,"velocity":0.4251968503937008},{"duration":0.081395348837205,"midi":102,"time":81.62790697674419,"velocity":0.12598425196850394},{"duration":0.023255813953497295,"midi":35,"time":81.63953488372093,"velocity":0.36220472440944884},{"duration":0.03488372093023884,"midi":46,"time":81.65116279069767,"velocity":0.2755905511811024},{"duration":0.023255813953483084,"midi":34,"time":81.66279069767442,"velocity":0.3543307086614173},{"duration":0.03488372093023884,"midi":57,"time":81.68604651162791,"velocity":0.36220472440944884},{"duration":0.05813953488372192,"midi":93,"time":81.68604651162791,"velocity":0.3779527559055118},{"duration":0.04651162790698038,"midi":95,"time":81.68604651162791,"velocity":0.29133858267716534},{"duration":0.023255813953497295,"midi":34,"time":81.69767441860465,"velocity":0.2755905511811024},{"duration":0.05813953488372192,"midi":97,"time":81.69767441860465,"velocity":0.1732283464566929},{"duration":0.1046511627907023,"midi":74,"time":81.70930232558139,"velocity":0.2204724409448819},{"duration":0.04651162790698038,"midi":88,"time":81.70930232558139,"velocity":0.14960629921259844},{"duration":0.03488372093023884,"midi":96,"time":81.70930232558139,"velocity":0.2125984251968504},{"duration":0.03488372093023884,"midi":100,"time":81.70930232558139,"velocity":0.1968503937007874},{"duration":0.04651162790698038,"midi":103,"time":81.70930232558139,"velocity":0.2125984251968504},{"duration":0.05813953488370771,"midi":70,"time":81.72093023255815,"velocity":0.15748031496062992},{"duration":0.04651162790696617,"midi":76,"time":81.72093023255815,"velocity":0.1889763779527559},{"duration":0.034883720930224626,"midi":78,"time":81.72093023255815,"velocity":0.2047244094488189},{"duration":0.04651162790696617,"midi":83,"time":81.72093023255815,"velocity":0.16535433070866143},{"duration":0.034883720930224626,"midi":91,"time":81.72093023255815,"velocity":0.14960629921259844},{"duration":0.034883720930224626,"midi":94,"time":81.72093023255815,"velocity":0.2992125984251969},{"duration":0.034883720930224626,"midi":65,"time":81.73255813953489,"velocity":0.11023622047244094},{"duration":0.011627906976741542,"midi":46,"time":81.74418604651163,"velocity":0.5590551181102362},{"duration":0.023255813953483084,"midi":55,"time":81.74418604651163,"velocity":0.30708661417322836},{"duration":0.06976744186046346,"midi":62,"time":81.74418604651163,"velocity":0.23622047244094488},{"duration":0.011627906976741542,"midi":45,"time":81.75581395348837,"velocity":0.6220472440944882},{"duration":0.04651162790698038,"midi":79,"time":81.75581395348837,"velocity":0.08661417322834646},{"duration":0.06976744186046346,"midi":93,"time":81.75581395348837,"velocity":0.29133858267716534},{"duration":0.011627906976741542,"midi":44,"time":81.76744186046511,"velocity":0.6220472440944882},{"duration":0.03488372093023884,"midi":58,"time":81.76744186046511,"velocity":0.25984251968503935},{"duration":0.06976744186046346,"midi":95,"time":81.76744186046511,"velocity":0.1889763779527559},{"duration":0.023255813953497295,"midi":42,"time":81.77906976744185,"velocity":0.5669291338582677},{"duration":0.023255813953497295,"midi":53,"time":81.77906976744185,"velocity":0.25196850393700787},{"duration":0.03488372093023884,"midi":68,"time":81.77906976744185,"velocity":0.25196850393700787},{"duration":0.03488372093023884,"midi":94,"time":81.77906976744185,"velocity":0.2047244094488189},{"duration":0.034883720930224626,"midi":55,"time":81.80232558139535,"velocity":0.3543307086614173},{"duration":0.1046511627907023,"midi":78,"time":81.80232558139535,"velocity":0.1732283464566929},{"duration":0.03488372093023884,"midi":37,"time":81.81395348837209,"velocity":0.47244094488188976},{"duration":0.17441860465116577,"midi":63,"time":81.81395348837209,"velocity":0.2755905511811024},{"duration":0.1046511627907023,"midi":68,"time":81.82558139534883,"velocity":0.4645669291338583},{"duration":0.3139534883720927,"midi":94,"time":81.82558139534883,"velocity":0.3543307086614173},{"duration":0.03488372093023884,"midi":56,"time":81.83720930232558,"velocity":0.3779527559055118},{"duration":0.04651162790698038,"midi":85,"time":81.83720930232558,"velocity":0.09448818897637795},{"duration":0.06976744186047767,"midi":92,"time":81.83720930232558,"velocity":0.2677165354330709},{"duration":0.04651162790698038,"midi":96,"time":81.86046511627907,"velocity":0.11023622047244094},{"duration":0.023255813953483084,"midi":66,"time":81.87209302325581,"velocity":0.2283464566929134},{"duration":0.05813953488372192,"midi":56,"time":81.88372093023256,"velocity":0.4094488188976378},{"duration":0.1046511627907023,"midi":82,"time":81.88372093023256,"velocity":0.1732283464566929},{"duration":0.04651162790696617,"midi":95,"time":81.90697674418605,"velocity":0.12598425196850394},{"duration":0.023255813953483084,"midi":67,"time":81.93023255813954,"velocity":0.3228346456692913},{"duration":0.023255813953483084,"midi":55,"time":81.94186046511628,"velocity":0.3228346456692913},{"duration":0.081395348837205,"midi":92,"time":81.94186046511628,"velocity":0.2047244094488189},{"duration":0.16279069767442422,"midi":68,"time":81.95348837209302,"velocity":0.4094488188976378},{"duration":0.05813953488372192,"midi":96,"time":81.95348837209302,"velocity":0.10236220472440945},{"duration":0.03488372093023884,"midi":56,"time":81.96511627906976,"velocity":0.3543307086614173},{"duration":0.06976744186047767,"midi":74,"time":81.96511627906976,"velocity":0.29133858267716534},{"duration":0.034883720930224626,"midi":61,"time":81.97674418604652,"velocity":0.2047244094488189},{"duration":0.081395348837205,"midi":77,"time":81.97674418604652,"velocity":0.2440944881889764},{"duration":0.034883720930224626,"midi":91,"time":81.97674418604652,"velocity":0.2283464566929134},{"duration":0.04651162790696617,"midi":93,"time":81.97674418604652,"velocity":0.12598425196850394},{"duration":0.034883720930224626,"midi":95,"time":81.97674418604652,"velocity":0.14960629921259844},{"duration":0.04651162790696617,"midi":98,"time":81.97674418604652,"velocity":0.2440944881889764},{"duration":0.04651162790696617,"midi":99,"time":81.97674418604652,"velocity":0.23622047244094488},{"duration":0.034883720930224626,"midi":100,"time":81.97674418604652,"velocity":0.18110236220472442},{"duration":0.05813953488372192,"midi":81,"time":81.98837209302326,"velocity":0.23622047244094488},{"duration":0.04651162790698038,"midi":102,"time":81.98837209302326,"velocity":0.11811023622047244},{"duration":0.11627906976744384,"midi":44,"time":82,"velocity":0.3858267716535433},{"duration":0.06976744186046346,"midi":78,"time":82,"velocity":0.2677165354330709},{"duration":0.05813953488372192,"midi":87,"time":82,"velocity":0.10236220472440945},{"duration":0.05813953488372192,"midi":51,"time":82.01162790697674,"velocity":0.3228346456692913},{"duration":0.04651162790698038,"midi":60,"time":82.01162790697674,"velocity":0.2677165354330709},{"duration":0.03488372093023884,"midi":66,"time":82.01162790697674,"velocity":0.2204724409448819},{"duration":0.11627906976744384,"midi":75,"time":82.01162790697674,"velocity":0.25196850393700787},{"duration":0.04651162790696617,"midi":82,"time":82.04651162790698,"velocity":0.11023622047244094},{"duration":0.034883720930224626,"midi":33,"time":82.05813953488372,"velocity":0.31496062992125984},{"duration":0.023255813953483084,"midi":55,"time":82.06976744186046,"velocity":0.33858267716535434},{"duration":0.03488372093023884,"midi":32,"time":82.09302325581395,"velocity":0.3228346456692913},{"duration":0.03488372093023884,"midi":52,"time":82.09302325581395,"velocity":0.25984251968503935},{"duration":0.03488372093023884,"midi":61,"time":82.09302325581395,"velocity":0.1889763779527559},{"duration":0.023255813953483084,"midi":78,"time":82.1046511627907,"velocity":0.2440944881889764},{"duration":0.034883720930224626,"midi":85,"time":82.1046511627907,"velocity":0.13385826771653545},{"duration":0.04651162790696617,"midi":91,"time":82.1046511627907,"velocity":0.1889763779527559},{"duration":0.034883720930224626,"midi":95,"time":82.1046511627907,"velocity":0.14960629921259844},{"duration":0.034883720930224626,"midi":63,"time":82.11627906976744,"velocity":0.25196850393700787},{"duration":0.04651162790698038,"midi":83,"time":82.11627906976744,"velocity":0.2047244094488189},{"duration":0.04651162790698038,"midi":88,"time":82.11627906976744,"velocity":0.2047244094488189},{"duration":0.03488372093023884,"midi":46,"time":82.12790697674419,"velocity":0.3464566929133858},{"duration":0.11627906976744384,"midi":68,"time":82.12790697674419,"velocity":0.29133858267716534},{"duration":0.06976744186046346,"midi":76,"time":82.12790697674419,"velocity":0.28346456692913385},{"duration":0.023255813953483084,"midi":79,"time":82.12790697674419,"velocity":0.2755905511811024},{"duration":0.04651162790698038,"midi":81,"time":82.12790697674419,"velocity":0.11811023622047244},{"duration":0.08139534883721922,"midi":53,"time":82.13953488372093,"velocity":0.33070866141732286},{"duration":0.24418604651162923,"midi":73,"time":82.13953488372093,"velocity":0.1968503937007874},{"duration":0.08139534883721922,"midi":82,"time":82.13953488372093,"velocity":0.10236220472440945},{"duration":0.023255813953483084,"midi":35,"time":82.17441860465117,"velocity":0.3543307086614173},{"duration":0.06976744186046346,"midi":46,"time":82.17441860465117,"velocity":0.3228346456692913},{"duration":0.023255813953483084,"midi":62,"time":82.17441860465117,"velocity":0.2283464566929134},{"duration":0.10465116279068809,"midi":78,"time":82.17441860465117,"velocity":0.2440944881889764},{"duration":0.05813953488372192,"midi":34,"time":82.19767441860465,"velocity":0.36220472440944884},{"duration":0.12790697674418539,"midi":89,"time":82.19767441860465,"velocity":0.2204724409448819},{"duration":0.03488372093023884,"midi":61,"time":82.20930232558139,"velocity":0.31496062992125984},{"duration":0.023255813953483084,"midi":66,"time":82.23255813953489,"velocity":0.36220472440944884},{"duration":0.081395348837205,"midi":75,"time":82.23255813953489,"velocity":0.14960629921259844},{"duration":0.04651162790698038,"midi":45,"time":82.24418604651163,"velocity":0.5984251968503937},{"duration":0.09302325581394655,"midi":87,"time":82.24418604651163,"velocity":0.2283464566929134},{"duration":0.081395348837205,"midi":88,"time":82.24418604651163,"velocity":0.2204724409448819},{"duration":0.081395348837205,"midi":90,"time":82.24418604651163,"velocity":0.31496062992125984},{"duration":0.06976744186046346,"midi":93,"time":82.24418604651163,"velocity":0.12598425196850394},{"duration":0.05813953488372192,"midi":94,"time":82.24418604651163,"velocity":0.2677165354330709},{"duration":0.05813953488372192,"midi":95,"time":82.24418604651163,"velocity":0.1968503937007874},{"duration":0.081395348837205,"midi":96,"time":82.24418604651163,"velocity":0.2204724409448819},{"duration":0.081395348837205,"midi":97,"time":82.24418604651163,"velocity":0.18110236220472442},{"duration":0.05813953488372192,"midi":101,"time":82.24418604651163,"velocity":0.2283464566929134},{"duration":0.011627906976741542,"midi":53,"time":82.25581395348837,"velocity":0.5118110236220472},{"duration":0.023255813953483084,"midi":60,"time":82.25581395348837,"velocity":0.3937007874015748},{"duration":0.05813953488372192,"midi":91,"time":82.25581395348837,"velocity":0.1732283464566929},{"duration":0.03488372093023884,"midi":98,"time":82.25581395348837,"velocity":0.07874015748031496},{"duration":0.011627906976741542,"midi":51,"time":82.26744186046511,"velocity":0.5196850393700787},{"duration":0.03488372093023884,"midi":66,"time":82.26744186046511,"velocity":0.13385826771653545},{"duration":0.03488372093023884,"midi":83,"time":82.26744186046511,"velocity":0.13385826771653545},{"duration":0.011627906976741542,"midi":44,"time":82.29069767441861,"velocity":0.6141732283464567},{"duration":0.09302325581394655,"midi":82,"time":82.29069767441861,"velocity":0.16535433070866143},{"duration":0.011627906976741542,"midi":43,"time":82.30232558139535,"velocity":0.5905511811023622},{"duration":0.034883720930224626,"midi":68,"time":82.30232558139535,"velocity":0.12598425196850394},{"duration":0.09302325581394655,"midi":70,"time":82.30232558139535,"velocity":0.1968503937007874},{"duration":0.011627906976741542,"midi":42,"time":82.31395348837209,"velocity":0.5511811023622047},{"duration":0.1860465116279073,"midi":75,"time":82.32558139534883,"velocity":0.1968503937007874},{"duration":0.023255813953497295,"midi":53,"time":82.33720930232558,"velocity":0.2440944881889764},{"duration":0.023255813953483084,"midi":37,"time":82.36046511627907,"velocity":0.3937007874015748},{"duration":0.034883720930224626,"midi":78,"time":82.36046511627907,"velocity":0.2992125984251969},{"duration":0.023255813953483084,"midi":64,"time":82.37209302325581,"velocity":0.23622047244094488},{"duration":0.09302325581394655,"midi":68,"time":82.37209302325581,"velocity":0.3858267716535433},{"duration":0.03488372093023884,"midi":89,"time":82.37209302325581,"velocity":0.15748031496062992},{"duration":0.03488372093023884,"midi":92,"time":82.37209302325581,"velocity":0.1968503937007874},{"duration":0.03488372093023884,"midi":94,"time":82.37209302325581,"velocity":0.1889763779527559},{"duration":0.03488372093023884,"midi":98,"time":82.37209302325581,"velocity":0.2677165354330709},{"duration":0.04651162790698038,"midi":99,"time":82.37209302325581,"velocity":0.25196850393700787},{"duration":0.03488372093023884,"midi":100,"time":82.37209302325581,"velocity":0.2047244094488189},{"duration":0.023255813953497295,"midi":36,"time":82.38372093023256,"velocity":0.31496062992125984},{"duration":0.023255813953497295,"midi":55,"time":82.38372093023256,"velocity":0.3700787401574803},{"duration":0.09302325581396076,"midi":72,"time":82.38372093023256,"velocity":0.2677165354330709},{"duration":0.023255813953497295,"midi":81,"time":82.38372093023256,"velocity":0.2283464566929134},{"duration":0.04651162790698038,"midi":83,"time":82.38372093023256,"velocity":0.16535433070866143},{"duration":0.03488372093023884,"midi":91,"time":82.38372093023256,"velocity":0.13385826771653545},{"duration":0.023255813953497295,"midi":48,"time":82.3953488372093,"velocity":0.33070866141732286},{"duration":0.04651162790698038,"midi":65,"time":82.3953488372093,"velocity":0.28346456692913385},{"duration":0.023255813953497295,"midi":79,"time":82.3953488372093,"velocity":0.25984251968503935},{"duration":0.03488372093023884,"midi":86,"time":82.3953488372093,"velocity":0.1732283464566929},{"duration":0.10465116279068809,"midi":56,"time":82.40697674418605,"velocity":0.3543307086614173},{"duration":0.023255813953483084,"midi":61,"time":82.40697674418605,"velocity":0.28346456692913385},{"duration":0.034883720930224626,"midi":82,"time":82.40697674418605,"velocity":0.2047244094488189},{"duration":0.04651162790696617,"midi":49,"time":82.4186046511628,"velocity":0.31496062992125984},{"duration":0.09302325581394655,"midi":78,"time":82.4186046511628,"velocity":0.2125984251968504},{"duration":0.081395348837205,"midi":37,"time":82.44186046511628,"velocity":0.3779527559055118},{"duration":0.023255813953483084,"midi":63,"time":82.44186046511628,"velocity":0.2677165354330709},{"duration":0.06976744186046346,"midi":66,"time":82.45348837209302,"velocity":0.3228346456692913},{"duration":0.05813953488372192,"midi":73,"time":82.46511627906976,"velocity":0.11023622047244094},{"duration":0.023255813953483084,"midi":50,"time":82.47674418604652,"velocity":0.33858267716535434},{"duration":0.05813953488372192,"midi":63,"time":82.47674418604652,"velocity":0.2992125984251969},{"duration":0.04651162790698038,"midi":69,"time":82.48837209302326,"velocity":0.4330708661417323},{"duration":0.04651162790698038,"midi":87,"time":82.5,"velocity":0.25196850393700787},{"duration":0.03488372093023884,"midi":98,"time":82.5,"velocity":0.16535433070866143},{"duration":0.1046511627907023,"midi":100,"time":82.5,"velocity":0.14960629921259844},{"duration":0.023255813953497295,"midi":80,"time":82.51162790697674,"velocity":0.25984251968503935},{"duration":0.023255813953497295,"midi":84,"time":82.51162790697674,"velocity":0.33070866141732286},{"duration":0.05813953488372192,"midi":85,"time":82.51162790697674,"velocity":0.1968503937007874},{"duration":0.04651162790698038,"midi":90,"time":82.51162790697674,"velocity":0.14173228346456693},{"duration":0.03488372093023884,"midi":93,"time":82.51162790697674,"velocity":0.1889763779527559},{"duration":0.04651162790698038,"midi":94,"time":82.51162790697674,"velocity":0.12598425196850394},{"duration":0.11627906976744384,"midi":103,"time":82.51162790697674,"velocity":0.2204724409448819},{"duration":0.12790697674418539,"midi":56,"time":82.52325581395348,"velocity":0.49606299212598426},{"duration":0.25581395348837077,"midi":75,"time":82.52325581395348,"velocity":0.3937007874015748},{"duration":0.09302325581396076,"midi":78,"time":82.52325581395348,"velocity":0.28346456692913385},{"duration":0.08139534883721922,"midi":82,"time":82.52325581395348,"velocity":0.11023622047244094},{"duration":0.034883720930224626,"midi":64,"time":82.53488372093024,"velocity":0.3228346456692913},{"duration":0.04651162790696617,"midi":83,"time":82.53488372093024,"velocity":0.4330708661417323},{"duration":0.023255813953483084,"midi":38,"time":82.54651162790698,"velocity":0.3228346456692913},{"duration":0.12790697674418539,"midi":48,"time":82.54651162790698,"velocity":0.30708661417322836},{"duration":0.05813953488372192,"midi":73,"time":82.56976744186046,"velocity":0.16535433070866143},{"duration":0.08139534883721922,"midi":36,"time":82.5813953488372,"velocity":0.3700787401574803},{"duration":0.03488372093023884,"midi":64,"time":82.5813953488372,"velocity":0.2125984251968504},{"duration":0.03488372093023884,"midi":84,"time":82.5813953488372,"velocity":0.16535433070866143},{"duration":0.034883720930224626,"midi":83,"time":82.6046511627907,"velocity":0.13385826771653545},{"duration":0.04651162790698038,"midi":100,"time":82.62790697674419,"velocity":0.14173228346456693},{"duration":0.06976744186046346,"midi":72,"time":82.63953488372093,"velocity":0.23622047244094488},{"duration":0.04651162790698038,"midi":86,"time":82.63953488372093,"velocity":0.11023622047244094},{"duration":0.03488372093023884,"midi":93,"time":82.63953488372093,"velocity":0.18110236220472442},{"duration":0.03488372093023884,"midi":94,"time":82.63953488372093,"velocity":0.09448818897637795},{"duration":0.03488372093023884,"midi":98,"time":82.63953488372093,"velocity":0.18110236220472442},{"duration":0.05813953488372192,"midi":99,"time":82.63953488372093,"velocity":0.2047244094488189},{"duration":0.03488372093023884,"midi":102,"time":82.63953488372093,"velocity":0.11023622047244094},{"duration":0.023255813953497295,"midi":55,"time":82.65116279069767,"velocity":0.44881889763779526},{"duration":0.06976744186047767,"midi":63,"time":82.65116279069767,"velocity":0.1732283464566929},{"duration":0.023255813953497295,"midi":69,"time":82.65116279069767,"velocity":0.3228346456692913},{"duration":0.04651162790696617,"midi":70,"time":82.66279069767442,"velocity":0.2047244094488189},{"duration":0.081395348837205,"midi":56,"time":82.67441860465117,"velocity":0.36220472440944884},{"duration":0.09302325581396076,"midi":73,"time":82.69767441860465,"velocity":0.2047244094488189},{"duration":0.04651162790698038,"midi":66,"time":82.70930232558139,"velocity":0.14960629921259844},{"duration":0.04651162790696617,"midi":83,"time":82.72093023255815,"velocity":0.2204724409448819},{"duration":0.05813953488372192,"midi":57,"time":82.75581395348837,"velocity":0.5039370078740157},{"duration":0.16279069767442422,"midi":92,"time":82.75581395348837,"velocity":0.2677165354330709},{"duration":0.16279069767442422,"midi":98,"time":82.75581395348837,"velocity":0.2755905511811024},{"duration":0.12790697674418539,"midi":101,"time":82.75581395348837,"velocity":0.2283464566929134},{"duration":0.03488372093023884,"midi":78,"time":82.76744186046511,"velocity":0.28346456692913385},{"duration":0.04651162790698038,"midi":86,"time":82.76744186046511,"velocity":0.18110236220472442},{"duration":0.1860465116279073,"midi":89,"time":82.76744186046511,"velocity":0.4094488188976378},{"duration":0.03488372093023884,"midi":95,"time":82.76744186046511,"velocity":0.1889763779527559},{"duration":0.34883720930233153,"midi":96,"time":82.76744186046511,"velocity":0.28346456692913385},{"duration":0.03488372093023884,"midi":97,"time":82.76744186046511,"velocity":0.14173228346456693},{"duration":0.1860465116279073,"midi":100,"time":82.76744186046511,"velocity":0.33070866141732286},{"duration":0.03488372093023884,"midi":102,"time":82.76744186046511,"velocity":0.1732283464566929},{"duration":0.03488372093023884,"midi":62,"time":82.77906976744185,"velocity":0.2204724409448819},{"duration":0.023255813953497295,"midi":68,"time":82.77906976744185,"velocity":0.2992125984251969},{"duration":0.17441860465116577,"midi":94,"time":82.77906976744185,"velocity":0.2677165354330709},{"duration":0.16279069767442422,"midi":103,"time":82.77906976744185,"velocity":0.4251968503937008},{"duration":0.04651162790696617,"midi":66,"time":82.79069767441861,"velocity":0.23622047244094488},{"duration":0.09302325581394655,"midi":70,"time":82.79069767441861,"velocity":0.41732283464566927},{"duration":0.034883720930224626,"midi":77,"time":82.79069767441861,"velocity":0.2755905511811024},{"duration":0.034883720930224626,"midi":87,"time":82.79069767441861,"velocity":0.08661417322834646},{"duration":0.011627906976741542,"midi":46,"time":82.80232558139535,"velocity":0.5748031496062992},{"duration":0.011627906976741542,"midi":45,"time":82.81395348837209,"velocity":0.6062992125984252},{"duration":0.023255813953483084,"midi":56,"time":82.81395348837209,"velocity":0.3228346456692913},{"duration":0.011627906976741542,"midi":43,"time":82.82558139534883,"velocity":0.5905511811023622},{"duration":0.023255813953497295,"midi":42,"time":82.83720930232558,"velocity":0.5826771653543307},{"duration":0.11627906976744384,"midi":51,"time":82.83720930232558,"velocity":0.30708661417322836},{"duration":0.03488372093023884,"midi":77,"time":82.83720930232558,"velocity":0.2440944881889764},{"duration":0.12790697674418539,"midi":86,"time":82.84883720930233,"velocity":0.2440944881889764},{"duration":0.05813953488372192,"midi":102,"time":82.84883720930233,"velocity":0.1889763779527559},{"duration":0.023255813953483084,"midi":58,"time":82.86046511627907,"velocity":0.33858267716535434},{"duration":0.034883720930224626,"midi":78,"time":82.86046511627907,"velocity":0.2440944881889764},{"duration":0.04651162790698038,"midi":99,"time":82.86046511627907,"velocity":0.13385826771653545},{"duration":0.03488372093023884,"midi":38,"time":82.87209302325581,"velocity":0.4015748031496063},{"duration":0.023255813953497295,"midi":71,"time":82.88372093023256,"velocity":0.33070866141732286},{"duration":0.023255813953497295,"midi":58,"time":82.8953488372093,"velocity":0.30708661417322836},{"duration":0.06976744186046346,"midi":73,"time":82.8953488372093,"velocity":0.09448818897637795},{"duration":0.15116279069768268,"midi":77,"time":82.8953488372093,"velocity":0.28346456692913385},{"duration":0.16279069767442422,"midi":82,"time":82.8953488372093,"velocity":0.3858267716535433},{"duration":0.023255813953483084,"midi":35,"time":82.90697674418605,"velocity":0.3779527559055118},{"duration":0.06976744186046346,"midi":70,"time":82.90697674418605,"velocity":0.4409448818897638},{"duration":0.023255813953483084,"midi":58,"time":82.93023255813954,"velocity":0.33070866141732286},{"duration":0.03488372093023884,"midi":44,"time":82.94186046511628,"velocity":0.14173228346456693},{"duration":0.06976744186046346,"midi":66,"time":82.94186046511628,"velocity":0.2047244094488189},{"duration":0.05813953488372192,"midi":102,"time":82.94186046511628,"velocity":0.4015748031496063},{"duration":0.22093023255813193,"midi":103,"time":82.97674418604652,"velocity":0.3700787401574803},{"duration":0.03488372093023884,"midi":58,"time":83,"velocity":0.47244094488188976},{"duration":0.3720930232558146,"midi":94,"time":83,"velocity":0.4251968503937008},{"duration":0.30232558139535115,"midi":98,"time":83,"velocity":0.30708661417322836},{"duration":0.1860465116279073,"midi":100,"time":83.01162790697674,"velocity":0.14173228346456693},{"duration":0.023255813953497295,"midi":64,"time":83.02325581395348,"velocity":0.2992125984251969},{"duration":0.04651162790698038,"midi":74,"time":83.02325581395348,"velocity":0.2125984251968504},{"duration":0.034883720930224626,"midi":59,"time":83.03488372093024,"velocity":0.48031496062992124},{"duration":0.10465116279068809,"midi":68,"time":83.03488372093024,"velocity":0.28346456692913385},{"duration":0.06976744186046346,"midi":76,"time":83.03488372093024,"velocity":0.31496062992125984},{"duration":0.10465116279068809,"midi":91,"time":83.03488372093024,"velocity":0.25984251968503935},{"duration":0.034883720930224626,"midi":92,"time":83.03488372093024,"velocity":0.2677165354330709},{"duration":0.034883720930224626,"midi":95,"time":83.03488372093024,"velocity":0.28346456692913385},{"duration":0.04651162790696617,"midi":99,"time":83.03488372093024,"velocity":0.1889763779527559},{"duration":0.3372093023255758,"midi":102,"time":83.03488372093024,"velocity":0.2992125984251969},{"duration":0.04651162790696617,"midi":63,"time":83.04651162790698,"velocity":0.4015748031496063},{"duration":0.15116279069766847,"midi":72,"time":83.04651162790698,"velocity":0.31496062992125984},{"duration":0.023255813953483084,"midi":79,"time":83.04651162790698,"velocity":0.25196850393700787},{"duration":0.034883720930224626,"midi":83,"time":83.04651162790698,"velocity":0.23622047244094488},{"duration":0.023255813953483084,"midi":45,"time":83.05813953488372,"velocity":0.36220472440944884},{"duration":0.023255813953483084,"midi":53,"time":83.05813953488372,"velocity":0.2677165354330709},{"duration":0.12790697674418539,"midi":70,"time":83.06976744186046,"velocity":0.2992125984251969},{"duration":0.04651162790698038,"midi":89,"time":83.06976744186046,"velocity":0.11023622047244094},{"duration":0.12790697674418539,"midi":46,"time":83.0813953488372,"velocity":0.31496062992125984},{"duration":0.023255813953497295,"midi":60,"time":83.0813953488372,"velocity":0.4015748031496063},{"duration":0.03488372093023884,"midi":77,"time":83.0813953488372,"velocity":0.2204724409448819},{"duration":0.023255813953497295,"midi":36,"time":83.09302325581395,"velocity":0.3228346456692913},{"duration":0.08139534883721922,"midi":53,"time":83.09302325581395,"velocity":0.28346456692913385},{"duration":0.04651162790696617,"midi":66,"time":83.1046511627907,"velocity":0.13385826771653545},{"duration":0.17441860465116577,"midi":60,"time":83.11627906976744,"velocity":0.4566929133858268},{"duration":0.081395348837205,"midi":34,"time":83.12790697674419,"velocity":0.33070866141732286},{"duration":0.04651162790698038,"midi":101,"time":83.12790697674419,"velocity":0.09448818897637795},{"duration":0.06976744186046346,"midi":96,"time":83.13953488372093,"velocity":0.1732283464566929},{"duration":0.04651162790698038,"midi":78,"time":83.15116279069767,"velocity":0.14960629921259844},{"duration":0.034883720930224626,"midi":76,"time":83.22093023255815,"velocity":0.1732283464566929},{"duration":0.04651162790698038,"midi":103,"time":83.24418604651163,"velocity":0.11023622047244094},{"duration":0.03488372093023884,"midi":66,"time":83.25581395348837,"velocity":0.14960629921259844},{"duration":0.04651162790698038,"midi":70,"time":83.25581395348837,"velocity":0.11023622047244094},{"duration":0.03488372093023884,"midi":75,"time":83.25581395348837,"velocity":0.25984251968503935},{"duration":0.1279069767441996,"midi":91,"time":83.27906976744185,"velocity":0.3543307086614173},{"duration":0.08139534883721922,"midi":96,"time":83.27906976744185,"velocity":0.2440944881889764},{"duration":0.023255813953483084,"midi":61,"time":83.29069767441861,"velocity":0.49606299212598426},{"duration":0.034883720930224626,"midi":78,"time":83.29069767441861,"velocity":0.15748031496062992},{"duration":0.04651162790696617,"midi":88,"time":83.29069767441861,"velocity":0.28346456692913385},{"duration":0.034883720930224626,"midi":67,"time":83.30232558139535,"velocity":0.33858267716535434},{"duration":0.034883720930224626,"midi":87,"time":83.30232558139535,"velocity":0.1732283464566929},{"duration":0.09302325581394655,"midi":97,"time":83.30232558139535,"velocity":0.2992125984251969},{"duration":0.081395348837205,"midi":99,"time":83.30232558139535,"velocity":0.25196850393700787},{"duration":0.1860465116279073,"midi":101,"time":83.30232558139535,"velocity":0.2440944881889764},{"duration":0.03488372093023884,"midi":45,"time":83.31395348837209,"velocity":0.5984251968503937},{"duration":0.023255813953483084,"midi":60,"time":83.31395348837209,"velocity":0.41732283464566927},{"duration":0.03488372093023884,"midi":81,"time":83.31395348837209,"velocity":0.13385826771653545},{"duration":0.023255813953483084,"midi":92,"time":83.31395348837209,"velocity":0.3228346456692913},{"duration":0.03488372093023884,"midi":70,"time":83.32558139534883,"velocity":0.11023622047244094},{"duration":0.04651162790698038,"midi":75,"time":83.32558139534883,"velocity":0.09448818897637795},{"duration":0.05813953488372192,"midi":90,"time":83.32558139534883,"velocity":0.1968503937007874},{"duration":0.12790697674418539,"midi":95,"time":83.32558139534883,"velocity":0.18110236220472442},{"duration":0.03488372093023884,"midi":61,"time":83.33720930232558,"velocity":0.25984251968503935},{"duration":0.05813953488372192,"midi":89,"time":83.33720930232558,"velocity":0.30708661417322836},{"duration":0.011627906976741542,"midi":44,"time":83.34883720930233,"velocity":0.5984251968503937},{"duration":0.04651162790696617,"midi":52,"time":83.34883720930233,"velocity":0.30708661417322836},{"duration":0.12790697674418539,"midi":80,"time":83.34883720930233,"velocity":0.25984251968503935},{"duration":0.04651162790696617,"midi":88,"time":83.34883720930233,"velocity":0.14173228346456693},{"duration":0.011627906976741542,"midi":43,"time":83.36046511627907,"velocity":0.5748031496062992},{"duration":0.04651162790698038,"midi":71,"time":83.36046511627907,"velocity":0.11023622047244094},{"duration":0.05813953488372192,"midi":78,"time":83.36046511627907,"velocity":0.14960629921259844},{"duration":0.011627906976741542,"midi":42,"time":83.37209302325581,"velocity":0.5354330708661418},{"duration":0.023255813953497295,"midi":61,"time":83.38372093023256,"velocity":0.25196850393700787},{"duration":0.023255813953497295,"midi":100,"time":83.38372093023256,"velocity":0.2440944881889764},{"duration":0.023255813953497295,"midi":53,"time":83.3953488372093,"velocity":0.25984251968503935},{"duration":0.09302325581396076,"midi":94,"time":83.3953488372093,"velocity":0.28346456692913385},{"duration":0.034883720930224626,"midi":70,"time":83.40697674418605,"velocity":0.23622047244094488},{"duration":0.12790697674418539,"midi":75,"time":83.40697674418605,"velocity":0.2047244094488189},{"duration":0.05813953488370771,"midi":99,"time":83.40697674418605,"velocity":0.2755905511811024},{"duration":0.023255813953483084,"midi":62,"time":83.4186046511628,"velocity":0.25196850393700787},{"duration":0.12790697674418539,"midi":89,"time":83.4186046511628,"velocity":0.1968503937007874},{"duration":0.023255813953483084,"midi":36,"time":83.43023255813954,"velocity":0.33858267716535434},{"duration":0.034883720930224626,"midi":55,"time":83.43023255813954,"velocity":0.33070866141732286},{"duration":0.034883720930224626,"midi":91,"time":83.43023255813954,"velocity":0.10236220472440945},{"duration":0.034883720930224626,"midi":98,"time":83.43023255813954,"velocity":0.2283464566929134},{"duration":0.034883720930224626,"midi":100,"time":83.43023255813954,"velocity":0.1732283464566929},{"duration":0.034883720930224626,"midi":102,"time":83.43023255813954,"velocity":0.11023622047244094},{"duration":0.023255813953483084,"midi":60,"time":83.44186046511628,"velocity":0.33858267716535434},{"duration":0.12790697674418539,"midi":78,"time":83.44186046511628,"velocity":0.18110236220472442},{"duration":0.08139534883721922,"midi":68,"time":83.45348837209302,"velocity":0.3464566929133858},{"duration":0.06976744186046346,"midi":70,"time":83.45348837209302,"velocity":0.29133858267716534},{"duration":0.023255813953483084,"midi":73,"time":83.47674418604652,"velocity":0.2283464566929134},{"duration":0.023255813953483084,"midi":56,"time":83.48837209302326,"velocity":0.2992125984251969},{"duration":0.03488372093023884,"midi":61,"time":83.5,"velocity":0.16535433070866143},{"duration":0.06976744186046346,"midi":66,"time":83.5,"velocity":0.23622047244094488},{"duration":0.04651162790698038,"midi":85,"time":83.5,"velocity":0.16535433070866143},{"duration":0.12790697674418539,"midi":73,"time":83.52325581395348,"velocity":0.28346456692913385},{"duration":0.034883720930224626,"midi":80,"time":83.53488372093024,"velocity":0.08661417322834646},{"duration":0.10465116279068809,"midi":63,"time":83.54651162790698,"velocity":0.3543307086614173},{"duration":0.023255813953483084,"midi":57,"time":83.56976744186046,"velocity":0.3464566929133858},{"duration":0.023255813953483084,"midi":68,"time":83.56976744186046,"velocity":0.2440944881889764},{"duration":0.023255813953483084,"midi":83,"time":83.56976744186046,"velocity":0.2440944881889764},{"duration":0.06976744186046346,"midi":87,"time":83.56976744186046,"velocity":0.12598425196850394},{"duration":0.04651162790698038,"midi":92,"time":83.56976744186046,"velocity":0.18110236220472442},{"duration":0.09302325581396076,"midi":95,"time":83.56976744186046,"velocity":0.3464566929133858},{"duration":0.03488372093023884,"midi":81,"time":83.5813953488372,"velocity":0.14960629921259844},{"duration":0.05813953488372192,"midi":90,"time":83.5813953488372,"velocity":0.1968503937007874},{"duration":0.023255813953497295,"midi":58,"time":83.59302325581395,"velocity":0.47244094488188976},{"duration":0.034883720930224626,"midi":53,"time":83.6046511627907,"velocity":0.28346456692913385},{"duration":0.023255813953483084,"midi":40,"time":83.61627906976744,"velocity":0.3937007874015748},{"duration":0.034883720930224626,"midi":48,"time":83.61627906976744,"velocity":0.2992125984251969},{"duration":0.034883720930224626,"midi":59,"time":83.61627906976744,"velocity":0.4645669291338583},{"duration":0.034883720930224626,"midi":93,"time":83.61627906976744,"velocity":0.2440944881889764},{"duration":0.09302325581396076,"midi":70,"time":83.62790697674419,"velocity":0.31496062992125984},{"duration":0.06976744186046346,"midi":41,"time":83.63953488372093,"velocity":0.30708661417322836},{"duration":0.03488372093023884,"midi":65,"time":83.63953488372093,"velocity":0.14173228346456693},{"duration":0.05813953488372192,"midi":58,"time":83.65116279069767,"velocity":0.5118110236220472},{"duration":0.03488372093023884,"midi":72,"time":83.65116279069767,"velocity":0.2047244094488189},{"duration":0.081395348837205,"midi":86,"time":83.67441860465117,"velocity":0.1732283464566929},{"duration":0.04651162790698038,"midi":103,"time":83.68604651162791,"velocity":0.16535433070866143},{"duration":0.023255813953497295,"midi":72,"time":83.69767441860465,"velocity":0.25196850393700787},{"duration":0.06976744186046346,"midi":83,"time":83.69767441860465,"velocity":0.25984251968503935},{"duration":0.03488372093023884,"midi":89,"time":83.69767441860465,"velocity":0.13385826771653545},{"duration":0.04651162790698038,"midi":91,"time":83.69767441860465,"velocity":0.25984251968503935},{"duration":0.03488372093023884,"midi":92,"time":83.69767441860465,"velocity":0.2047244094488189},{"duration":0.03488372093023884,"midi":98,"time":83.69767441860465,"velocity":0.2125984251968504},{"duration":0.03488372093023884,"midi":99,"time":83.69767441860465,"velocity":0.18110236220472442},{"duration":0.03488372093023884,"midi":100,"time":83.69767441860465,"velocity":0.16535433070866143},{"duration":0.023255813953497295,"midi":46,"time":83.70930232558139,"velocity":0.33070866141732286},{"duration":0.09302325581396076,"midi":68,"time":83.70930232558139,"velocity":0.3700787401574803},{"duration":0.03488372093023884,"midi":74,"time":83.70930232558139,"velocity":0.14960629921259844},{"duration":0.08139534883721922,"midi":76,"time":83.70930232558139,"velocity":0.2677165354330709},{"duration":0.04651162790698038,"midi":81,"time":83.70930232558139,"velocity":0.09448818897637795},{"duration":0.023255813953483084,"midi":62,"time":83.72093023255815,"velocity":0.25196850393700787},{"duration":0.023255813953483084,"midi":71,"time":83.72093023255815,"velocity":0.28346456692913385},{"duration":0.04651162790696617,"midi":79,"time":83.72093023255815,"velocity":0.1968503937007874},{"duration":0.023255813953483084,"midi":59,"time":83.73255813953489,"velocity":0.4015748031496063},{"duration":0.034883720930224626,"midi":65,"time":83.73255813953489,"velocity":0.14173228346456693},{"duration":0.06976744186046346,"midi":72,"time":83.73255813953489,"velocity":0.14960629921259844},{"duration":0.04651162790698038,"midi":46,"time":83.74418604651163,"velocity":0.3464566929133858},{"duration":0.03488372093023884,"midi":35,"time":83.75581395348837,"velocity":0.3779527559055118},{"duration":0.03488372093023884,"midi":57,"time":83.75581395348837,"velocity":0.4015748031496063},{"duration":0.023255813953483084,"midi":58,"time":83.79069767441861,"velocity":0.30708661417322836},{"duration":0.04651162790696617,"midi":73,"time":83.79069767441861,"velocity":0.2440944881889764},{"duration":0.023255813953483084,"midi":35,"time":83.80232558139535,"velocity":0.3543307086614173},{"duration":0.023255813953483084,"midi":59,"time":83.81395348837209,"velocity":0.2440944881889764},{"duration":0.25581395348837077,"midi":70,"time":83.81395348837209,"velocity":0.23622047244094488},{"duration":0.023255813953497295,"midi":60,"time":83.82558139534883,"velocity":0.2755905511811024},{"duration":0.06976744186046346,"midi":68,"time":83.82558139534883,"velocity":0.18110236220472442},{"duration":0.03488372093023884,"midi":78,"time":83.82558139534883,"velocity":0.23622047244094488},{"duration":0.04651162790698038,"midi":83,"time":83.82558139534883,"velocity":0.1889763779527559},{"duration":0.04651162790698038,"midi":88,"time":83.82558139534883,"velocity":0.2677165354330709},{"duration":0.03488372093023884,"midi":96,"time":83.82558139534883,"velocity":0.1968503937007874},{"duration":0.03488372093023884,"midi":97,"time":83.82558139534883,"velocity":0.1968503937007874},{"duration":0.03488372093023884,"midi":102,"time":83.82558139534883,"velocity":0.18110236220472442},{"duration":0.03488372093023884,"midi":103,"time":83.82558139534883,"velocity":0.1968503937007874},{"duration":0.03488372093023884,"midi":74,"time":83.83720930232558,"velocity":0.2755905511811024},{"duration":0.03488372093023884,"midi":91,"time":83.83720930232558,"velocity":0.2204724409448819},{"duration":0.011627906976741542,"midi":48,"time":83.84883720930233,"velocity":0.5433070866141733},{"duration":0.04651162790696617,"midi":76,"time":83.84883720930233,"velocity":0.2283464566929134},{"duration":0.04651162790696617,"midi":81,"time":83.84883720930233,"velocity":0.07086614173228346},{"duration":0.023255813953483084,"midi":45,"time":83.86046511627907,"velocity":0.6535433070866141},{"duration":0.04651162790698038,"midi":72,"time":83.86046511627907,"velocity":0.18110236220472442},{"duration":0.05813953488372192,"midi":79,"time":83.86046511627907,"velocity":0.18110236220472442},{"duration":0.03488372093023884,"midi":77,"time":83.87209302325581,"velocity":0.13385826771653545},{"duration":0.011627906976741542,"midi":43,"time":83.88372093023256,"velocity":0.6141732283464567},{"duration":0.023255813953497295,"midi":42,"time":83.8953488372093,"velocity":0.5669291338582677},{"duration":0.05813953488372192,"midi":53,"time":83.8953488372093,"velocity":0.3228346456692913},{"duration":0.15116279069768268,"midi":75,"time":83.8953488372093,"velocity":0.1732283464566929},{"duration":0.11627906976742963,"midi":73,"time":83.90697674418605,"velocity":0.2125984251968504},{"duration":0.05813953488372192,"midi":63,"time":83.9186046511628,"velocity":0.3228346456692913},{"duration":0.12790697674418539,"midi":78,"time":83.9186046511628,"velocity":0.2204724409448819},{"duration":0.023255813953483084,"midi":37,"time":83.93023255813954,"velocity":0.5039370078740157},{"duration":0.03488372093023884,"midi":37,"time":83.96511627906976,"velocity":0.25984251968503935},{"duration":0.03488372093023884,"midi":89,"time":83.96511627906976,"velocity":0.11811023622047244},{"duration":0.04651162790698038,"midi":66,"time":84,"velocity":0.14960629921259844},{"duration":0.04651162790696617,"midi":63,"time":84.03488372093024,"velocity":0.12598425196850394},{"duration":0.034883720930224626,"midi":59,"time":84.04651162790698,"velocity":0.08661417322834646},{"duration":0.05813953488372192,"midi":72,"time":84.09302325581395,"velocity":0.2440944881889764},{"duration":0.023255813953497295,"midi":86,"time":84.09302325581395,"velocity":0.3937007874015748},{"duration":0.05813953488372192,"midi":89,"time":84.09302325581395,"velocity":0.2204724409448819},{"duration":0.1860465116279073,"midi":99,"time":84.09302325581395,"velocity":0.2755905511811024},{"duration":0.4418604651162923,"midi":101,"time":84.09302325581395,"velocity":0.3700787401574803},{"duration":0.03488372093023884,"midi":102,"time":84.09302325581395,"velocity":0.1889763779527559},{"duration":0.12790697674418539,"midi":63,"time":84.1046511627907,"velocity":0.47244094488188976},{"duration":0.09302325581394655,"midi":68,"time":84.1046511627907,"velocity":0.3937007874015748},{"duration":0.023255813953483084,"midi":77,"time":84.1046511627907,"velocity":0.2755905511811024},{"duration":0.023255813953483084,"midi":81,"time":84.1046511627907,"velocity":0.23622047244094488},{"duration":0.3488372093023173,"midi":87,"time":84.1046511627907,"velocity":0.5039370078740157},{"duration":0.25581395348837077,"midi":91,"time":84.1046511627907,"velocity":0.4566929133858268},{"duration":0.034883720930224626,"midi":92,"time":84.1046511627907,"velocity":0.13385826771653545},{"duration":0.1860465116279073,"midi":94,"time":84.1046511627907,"velocity":0.18110236220472442},{"duration":0.16279069767441,"midi":97,"time":84.1046511627907,"velocity":0.2283464566929134},{"duration":0.034883720930224626,"midi":100,"time":84.1046511627907,"velocity":0.11023622047244094},{"duration":0.12790697674418539,"midi":51,"time":84.11627906976744,"velocity":0.31496062992125984},{"duration":0.06976744186046346,"midi":56,"time":84.11627906976744,"velocity":0.4094488188976378},{"duration":0.06976744186046346,"midi":78,"time":84.11627906976744,"velocity":0.16535433070866143},{"duration":0.13953488372092693,"midi":82,"time":84.12790697674419,"velocity":0.4409448818897638},{"duration":0.05813953488372192,"midi":44,"time":84.13953488372093,"velocity":0.33858267716535434},{"duration":0.03488372093023884,"midi":60,"time":84.13953488372093,"velocity":0.23622047244094488},{"duration":0.034883720930224626,"midi":33,"time":84.17441860465117,"velocity":0.33858267716535434},{"duration":0.04651162790698038,"midi":32,"time":84.20930232558139,"velocity":0.33858267716535434},{"duration":0.1046511627907023,"midi":68,"time":84.20930232558139,"velocity":0.2677165354330709},{"duration":0.034883720930224626,"midi":59,"time":84.22093023255815,"velocity":0.2440944881889764},{"duration":0.034883720930224626,"midi":86,"time":84.22093023255815,"velocity":0.12598425196850394},{"duration":0.081395348837205,"midi":79,"time":84.23255813953489,"velocity":0.2440944881889764},{"duration":0.04651162790696617,"midi":83,"time":84.23255813953489,"velocity":0.1889763779527559},{"duration":0.023255813953483084,"midi":45,"time":84.24418604651163,"velocity":0.4015748031496063},{"duration":0.11627906976744384,"midi":53,"time":84.24418604651163,"velocity":0.33858267716535434},{"duration":0.1046511627907023,"midi":70,"time":84.24418604651163,"velocity":0.1732283464566929},{"duration":0.034883720930224626,"midi":88,"time":84.24418604651163,"velocity":0.2047244094488189},{"duration":0.023255813953483084,"midi":58,"time":84.25581395348837,"velocity":0.2992125984251969},{"duration":0.09302325581396076,"midi":46,"time":84.26744186046511,"velocity":0.33070866141732286},{"duration":0.023255813953497295,"midi":62,"time":84.26744186046511,"velocity":0.2992125984251969},{"duration":0.03488372093023884,"midi":77,"time":84.26744186046511,"velocity":0.09448818897637795},{"duration":0.023255813953497295,"midi":59,"time":84.27906976744185,"velocity":0.23622047244094488},{"duration":0.023255813953483084,"midi":63,"time":84.29069767441861,"velocity":0.3228346456692913},{"duration":0.034883720930224626,"midi":72,"time":84.29069767441861,"velocity":0.11023622047244094},{"duration":0.081395348837205,"midi":34,"time":84.30232558139535,"velocity":0.3858267716535433},{"duration":0.19767441860464885,"midi":82,"time":84.30232558139535,"velocity":0.2204724409448819},{"duration":0.15116279069766847,"midi":85,"time":84.31395348837209,"velocity":0.2204724409448819},{"duration":0.03488372093023884,"midi":66,"time":84.32558139534883,"velocity":0.3228346456692913},{"duration":0.08139534883721922,"midi":73,"time":84.32558139534883,"velocity":0.18110236220472442},{"duration":0.03488372093023884,"midi":80,"time":84.32558139534883,"velocity":0.10236220472440945},{"duration":0.1046511627907023,"midi":89,"time":84.32558139534883,"velocity":0.2677165354330709},{"duration":0.023255813953483084,"midi":63,"time":84.34883720930233,"velocity":0.47244094488188976},{"duration":0.034883720930224626,"midi":67,"time":84.34883720930233,"velocity":0.36220472440944884},{"duration":0.10465116279068809,"midi":90,"time":84.34883720930233,"velocity":0.36220472440944884},{"duration":0.04651162790696617,"midi":100,"time":84.34883720930233,"velocity":0.1889763779527559},{"duration":0.034883720930224626,"midi":81,"time":84.36046511627907,"velocity":0.14960629921259844},{"duration":0.04651162790698038,"midi":93,"time":84.36046511627907,"velocity":0.1732283464566929},{"duration":0.04651162790698038,"midi":95,"time":84.36046511627907,"velocity":0.12598425196850394},{"duration":0.034883720930224626,"midi":98,"time":84.36046511627907,"velocity":0.1968503937007874},{"duration":0.034883720930224626,"midi":103,"time":84.36046511627907,"velocity":0.2677165354330709},{"duration":0.011627906976741542,"midi":53,"time":84.37209302325581,"velocity":0.5118110236220472},{"duration":0.05813953488372192,"midi":83,"time":84.37209302325581,"velocity":0.15748031496062992},{"duration":0.06976744186046346,"midi":88,"time":84.37209302325581,"velocity":0.12598425196850394},{"duration":0.023255813953497295,"midi":45,"time":84.38372093023256,"velocity":0.5984251968503937},{"duration":0.06976744186046346,"midi":66,"time":84.38372093023256,"velocity":0.4566929133858268},{"duration":0.11627906976744384,"midi":75,"time":84.38372093023256,"velocity":0.2204724409448819},{"duration":0.011627906976741542,"midi":44,"time":84.40697674418605,"velocity":0.5905511811023622},{"duration":0.034883720930224626,"midi":51,"time":84.40697674418605,"velocity":0.30708661417322836},{"duration":0.011627906976741542,"midi":43,"time":84.4186046511628,"velocity":0.5748031496062992},{"duration":0.011627906976741542,"midi":42,"time":84.43023255813954,"velocity":0.5354330708661418},{"duration":0.081395348837205,"midi":93,"time":84.44186046511628,"velocity":0.2755905511811024},{"duration":0.023255813953497295,"midi":53,"time":84.45348837209302,"velocity":0.2440944881889764},{"duration":0.05813953488372192,"midi":65,"time":84.45348837209302,"velocity":0.5039370078740157},{"duration":0.08139534883721922,"midi":89,"time":84.45348837209302,"velocity":0.3858267716535433},{"duration":0.03488372093023884,"midi":96,"time":84.46511627906976,"velocity":0.10236220472440945},{"duration":0.023255813953483084,"midi":37,"time":84.47674418604652,"velocity":0.3700787401574803},{"duration":0.034883720930224626,"midi":103,"time":84.47674418604652,"velocity":0.23622047244094488},{"duration":0.023255813953483084,"midi":55,"time":84.48837209302326,"velocity":0.33070866141732286},{"duration":0.023255813953483084,"midi":78,"time":84.48837209302326,"velocity":0.25196850393700787},{"duration":0.04651162790698038,"midi":86,"time":84.48837209302326,"velocity":0.25196850393700787},{"duration":0.034883720930224626,"midi":91,"time":84.48837209302326,"velocity":0.12598425196850394},{"duration":0.04651162790698038,"midi":100,"time":84.48837209302326,"velocity":0.2755905511811024},{"duration":0.023255813953483084,"midi":48,"time":84.5,"velocity":0.3700787401574803},{"duration":0.09302325581394655,"midi":68,"time":84.5,"velocity":0.29133858267716534},{"duration":0.081395348837205,"midi":73,"time":84.5,"velocity":0.2440944881889764},{"duration":0.11627906976744384,"midi":56,"time":84.51162790697674,"velocity":0.3937007874015748},{"duration":0.1046511627907023,"midi":61,"time":84.51162790697674,"velocity":0.30708661417322836},{"duration":0.023255813953497295,"midi":64,"time":84.51162790697674,"velocity":0.36220472440944884},{"duration":0.04651162790698038,"midi":75,"time":84.51162790697674,"velocity":0.1732283464566929},{"duration":0.05813953488372192,"midi":79,"time":84.51162790697674,"velocity":0.25196850393700787},{"duration":0.04651162790698038,"midi":82,"time":84.51162790697674,"velocity":0.1968503937007874},{"duration":0.05813953488372192,"midi":83,"time":84.51162790697674,"velocity":0.11811023622047244},{"duration":0.023255813953497295,"midi":41,"time":84.52325581395348,"velocity":0.2755905511811024},{"duration":0.04651162790698038,"midi":49,"time":84.52325581395348,"velocity":0.3228346456692913},{"duration":0.034883720930224626,"midi":37,"time":84.55813953488372,"velocity":0.3779527559055118},{"duration":0.05813953488372192,"midi":65,"time":84.55813953488372,"velocity":0.2992125984251969},{"duration":0.03488372093023884,"midi":72,"time":84.56976744186046,"velocity":0.08661417322834646},{"duration":0.05813953488372192,"midi":75,"time":84.56976744186046,"velocity":0.11811023622047244},{"duration":0.03488372093023884,"midi":101,"time":84.56976744186046,"velocity":0.08661417322834646},{"duration":0.034883720930224626,"midi":37,"time":84.6046511627907,"velocity":0.25196850393700787},{"duration":0.04651162790698038,"midi":85,"time":84.61627906976744,"velocity":0.2047244094488189},{"duration":0.04651162790698038,"midi":91,"time":84.61627906976744,"velocity":0.18110236220472442},{"duration":0.04651162790698038,"midi":93,"time":84.61627906976744,"velocity":0.18110236220472442},{"duration":0.081395348837205,"midi":72,"time":84.62790697674419,"velocity":0.2047244094488189},{"duration":0.06976744186046346,"midi":81,"time":84.62790697674419,"velocity":0.2283464566929134},{"duration":0.04651162790698038,"midi":90,"time":84.62790697674419,"velocity":0.25196850393700787},{"duration":0.05813953488372192,"midi":92,"time":84.62790697674419,"velocity":0.31496062992125984},{"duration":0.03488372093023884,"midi":99,"time":84.62790697674419,"velocity":0.14960629921259844},{"duration":0.05813953488372192,"midi":100,"time":84.62790697674419,"velocity":0.28346456692913385},{"duration":0.03488372093023884,"midi":101,"time":84.62790697674419,"velocity":0.2677165354330709},{"duration":0.05813953488372192,"midi":102,"time":84.62790697674419,"velocity":0.3779527559055118},{"duration":0.04651162790698038,"midi":64,"time":84.63953488372093,"velocity":0.5196850393700787},{"duration":0.06976744186046346,"midi":70,"time":84.63953488372093,"velocity":0.14960629921259844},{"duration":0.03488372093023884,"midi":78,"time":84.63953488372093,"velocity":0.2677165354330709},{"duration":0.09302325581396076,"midi":82,"time":84.63953488372093,"velocity":0.16535433070866143},{"duration":0.06976744186046346,"midi":97,"time":84.63953488372093,"velocity":0.2047244094488189},{"duration":0.1046511627907023,"midi":55,"time":84.65116279069767,"velocity":0.25984251968503935},{"duration":0.03488372093023884,"midi":60,"time":84.65116279069767,"velocity":0.2283464566929134},{"duration":0.03488372093023884,"midi":74,"time":84.65116279069767,"velocity":0.14173228346456693},{"duration":0.11627906976742963,"midi":48,"time":84.66279069767442,"velocity":0.2992125984251969},{"duration":0.034883720930224626,"midi":79,"time":84.66279069767442,"velocity":0.07086614173228346},{"duration":0.023255813953483084,"midi":95,"time":84.66279069767442,"velocity":0.23622047244094488},{"duration":0.023255813953483084,"midi":37,"time":84.67441860465117,"velocity":0.3464566929133858},{"duration":0.06976744186046346,"midi":75,"time":84.67441860465117,"velocity":0.2440944881889764},{"duration":0.05813953488372192,"midi":103,"time":84.67441860465117,"velocity":0.33858267716535434},{"duration":0.04651162790698038,"midi":63,"time":84.68604651162791,"velocity":0.4566929133858268},{"duration":0.03488372093023884,"midi":91,"time":84.68604651162791,"velocity":0.28346456692913385},{"duration":0.05813953488372192,"midi":94,"time":84.68604651162791,"velocity":0.4645669291338583},{"duration":0.03488372093023884,"midi":99,"time":84.68604651162791,"velocity":0.16535433070866143},{"duration":0.2325581395348877,"midi":101,"time":84.68604651162791,"velocity":0.3543307086614173},{"duration":0.081395348837205,"midi":36,"time":84.69767441860465,"velocity":0.36220472440944884},{"duration":0.09302325581396076,"midi":80,"time":84.69767441860465,"velocity":0.10236220472440945},{"duration":0.05813953488372192,"midi":96,"time":84.70930232558139,"velocity":0.25984251968503935},{"duration":0.06976744186046346,"midi":102,"time":84.70930232558139,"velocity":0.3228346456692913},{"duration":0.034883720930224626,"midi":72,"time":84.72093023255815,"velocity":0.15748031496062992},{"duration":0.05813953488370771,"midi":90,"time":84.72093023255815,"velocity":0.2047244094488189},{"duration":0.06976744186046346,"midi":98,"time":84.72093023255815,"velocity":0.2125984251968504},{"duration":0.023255813953483084,"midi":62,"time":84.73255813953489,"velocity":0.44881889763779526},{"duration":0.05813953488372192,"midi":93,"time":84.73255813953489,"velocity":0.47244094488188976},{"duration":0.06976744186046346,"midi":100,"time":84.73255813953489,"velocity":0.2204724409448819},{"duration":0.034883720930224626,"midi":87,"time":84.74418604651163,"velocity":0.09448818897637795},{"duration":0.05813953488372192,"midi":103,"time":84.74418604651163,"velocity":0.23622047244094488},{"duration":0.023255813953483084,"midi":54,"time":84.75581395348837,"velocity":0.2755905511811024},{"duration":0.12790697674418539,"midi":63,"time":84.75581395348837,"velocity":0.5039370078740157},{"duration":0.06976744186046346,"midi":82,"time":84.75581395348837,"velocity":0.2125984251968504},{"duration":0.15116279069768268,"midi":91,"time":84.75581395348837,"velocity":0.1732283464566929},{"duration":0.22093023255814614,"midi":94,"time":84.75581395348837,"velocity":0.4881889763779528},{"duration":0.03488372093023884,"midi":99,"time":84.75581395348837,"velocity":0.2047244094488189},{"duration":0.09302325581396076,"midi":68,"time":84.76744186046511,"velocity":0.33858267716535434},{"duration":0.09302325581396076,"midi":97,"time":84.76744186046511,"velocity":0.2125984251968504},{"duration":0.1046511627907023,"midi":56,"time":84.77906976744185,"velocity":0.30708661417322836},{"duration":0.12790697674418539,"midi":72,"time":84.79069767441861,"velocity":0.23622047244094488},{"duration":0.11627906976744384,"midi":103,"time":84.82558139534883,"velocity":0.23622047244094488},{"duration":0.04651162790696617,"midi":82,"time":84.84883720930233,"velocity":0.1732283464566929},{"duration":0.13953488372092693,"midi":96,"time":84.86046511627907,"velocity":0.2677165354330709},{"duration":0.09302325581394655,"midi":102,"time":84.87209302325581,"velocity":0.18110236220472442},{"duration":0.023255813953497295,"midi":62,"time":84.88372093023256,"velocity":0.5039370078740157},{"duration":0.023255813953497295,"midi":69,"time":84.88372093023256,"velocity":0.25984251968503935},{"duration":0.04651162790698038,"midi":78,"time":84.88372093023256,"velocity":0.2204724409448819},{"duration":0.03488372093023884,"midi":81,"time":84.88372093023256,"velocity":0.28346456692913385},{"duration":0.04651162790698038,"midi":98,"time":84.88372093023256,"velocity":0.12598425196850394},{"duration":0.04651162790698038,"midi":100,"time":84.88372093023256,"velocity":0.11023622047244094},{"duration":0.05813953488372192,"midi":93,"time":84.8953488372093,"velocity":0.44881889763779526},{"duration":0.023255813953483084,"midi":45,"time":84.90697674418605,"velocity":0.5905511811023622},{"duration":0.13953488372092693,"midi":68,"time":84.90697674418605,"velocity":0.2283464566929134},{"duration":0.17441860465115155,"midi":97,"time":84.90697674418605,"velocity":0.2440944881889764},{"duration":0.1860465116279073,"midi":63,"time":84.9186046511628,"velocity":0.47244094488188976},{"duration":0.05813953488372192,"midi":91,"time":84.9186046511628,"velocity":0.14960629921259844},{"duration":0.011627906976741542,"midi":44,"time":84.93023255813954,"velocity":0.6062992125984252},{"duration":0.011627906976741542,"midi":43,"time":84.94186046511628,"velocity":0.5669291338582677},{"duration":0.011627906976741542,"midi":42,"time":84.95348837209302,"velocity":0.5511811023622047},{"duration":0.023255813953497295,"midi":56,"time":84.95348837209302,"velocity":0.3464566929133858},{"duration":0.03488372093023884,"midi":83,"time":84.96511627906976,"velocity":0.11811023622047244},{"duration":0.04651162790698038,"midi":95,"time":84.96511627906976,"velocity":0.3543307086614173},{"duration":0.04651162790696617,"midi":78,"time":84.97674418604652,"velocity":0.08661417322834646},{"duration":0.17441860465116577,"midi":72,"time":84.98837209302326,"velocity":0.28346456692913385},{"duration":0.034883720930224626,"midi":91,"time":84.98837209302326,"velocity":0.14960629921259844},{"duration":0.10465116279068809,"midi":101,"time":84.98837209302326,"velocity":0.2047244094488189},{"duration":0.023255813953483084,"midi":37,"time":85,"velocity":0.3779527559055118},{"duration":0.023255813953483084,"midi":53,"time":85,"velocity":0.31496062992125984},{"duration":0.03488372093023884,"midi":82,"time":85,"velocity":0.14173228346456693},{"duration":0.11627906976744384,"midi":87,"time":85,"velocity":0.2440944881889764},{"duration":0.2093023255813904,"midi":94,"time":85,"velocity":0.33858267716535434},{"duration":0.023255813953497295,"midi":80,"time":85.01162790697674,"velocity":0.29133858267716534},{"duration":0.05813953488372192,"midi":98,"time":85.01162790697674,"velocity":0.16535433070866143},{"duration":0.03488372093023884,"midi":36,"time":85.02325581395348,"velocity":0.31496062992125984},{"duration":0.03488372093023884,"midi":51,"time":85.02325581395348,"velocity":0.23622047244094488},{"duration":0.03488372093023884,"midi":77,"time":85.02325581395348,"velocity":0.25196850393700787},{"duration":0.08139534883721922,"midi":88,"time":85.02325581395348,"velocity":0.2677165354330709},{"duration":0.06976744186046346,"midi":90,"time":85.02325581395348,"velocity":0.30708661417322836},{"duration":0.05813953488372192,"midi":103,"time":85.02325581395348,"velocity":0.1889763779527559},{"duration":0.023255813953483084,"midi":79,"time":85.03488372093024,"velocity":0.30708661417322836},{"duration":0.06976744186046346,"midi":95,"time":85.03488372093024,"velocity":0.1968503937007874},{"duration":0.034883720930224626,"midi":69,"time":85.04651162790698,"velocity":0.2047244094488189},{"duration":0.081395348837205,"midi":82,"time":85.04651162790698,"velocity":0.25984251968503935},{"duration":0.034883720930224626,"midi":83,"time":85.04651162790698,"velocity":0.1732283464566929},{"duration":0.081395348837205,"midi":85,"time":85.04651162790698,"velocity":0.15748031496062992},{"duration":0.03488372093023884,"midi":57,"time":85.06976744186046,"velocity":0.29133858267716534},{"duration":0.08139534883721922,"midi":68,"time":85.0813953488372,"velocity":0.25984251968503935},{"duration":0.04651162790698038,"midi":78,"time":85.0813953488372,"velocity":0.07874015748031496},{"duration":0.023255813953483084,"midi":62,"time":85.1046511627907,"velocity":0.3228346456692913},{"duration":0.04651162790698038,"midi":53,"time":85.12790697674419,"velocity":0.2283464566929134},{"duration":0.03488372093023884,"midi":58,"time":85.12790697674419,"velocity":0.23622047244094488},{"duration":0.04651162790698038,"midi":63,"time":85.12790697674419,"velocity":0.2047244094488189},{"duration":0.05813953488372192,"midi":77,"time":85.12790697674419,"velocity":0.1732283464566929},{"duration":0.15116279069768268,"midi":75,"time":85.13953488372093,"velocity":0.30708661417322836},{"duration":0.08139534883721922,"midi":82,"time":85.13953488372093,"velocity":0.2283464566929134},{"duration":0.03488372093023884,"midi":83,"time":85.13953488372093,"velocity":0.1968503937007874},{"duration":0.255813953488385,"midi":80,"time":85.15116279069767,"velocity":0.3858267716535433},{"duration":0.08139534883721922,"midi":91,"time":85.15116279069767,"velocity":0.2204724409448819},{"duration":0.03488372093023884,"midi":93,"time":85.15116279069767,"velocity":0.1889763779527559},{"duration":0.17441860465116577,"midi":96,"time":85.15116279069767,"velocity":0.2125984251968504},{"duration":0.05813953488372192,"midi":98,"time":85.15116279069767,"velocity":0.16535433070866143},{"duration":0.09302325581396076,"midi":99,"time":85.15116279069767,"velocity":0.33070866141732286},{"duration":0.023255813953483084,"midi":61,"time":85.16279069767442,"velocity":0.2677165354330709},{"duration":0.05813953488372192,"midi":84,"time":85.16279069767442,"velocity":0.1889763779527559},{"duration":0.6279069767441854,"midi":92,"time":85.16279069767442,"velocity":0.4094488188976378},{"duration":0.04651162790696617,"midi":97,"time":85.16279069767442,"velocity":0.14173228346456693},{"duration":0.034883720930224626,"midi":100,"time":85.16279069767442,"velocity":0.13385826771653545},{"duration":0.05813953488372192,"midi":101,"time":85.16279069767442,"velocity":0.12598425196850394},{"duration":0.081395348837205,"midi":102,"time":85.16279069767442,"velocity":0.2677165354330709},{"duration":0.034883720930224626,"midi":56,"time":85.17441860465117,"velocity":0.31496062992125984},{"duration":0.06976744186046346,"midi":68,"time":85.17441860465117,"velocity":0.5039370078740157},{"duration":0.15116279069766847,"midi":72,"time":85.17441860465117,"velocity":0.3543307086614173},{"duration":0.081395348837205,"midi":90,"time":85.17441860465117,"velocity":0.1889763779527559},{"duration":0.05813953488372192,"midi":63,"time":85.18604651162791,"velocity":0.2283464566929134},{"duration":0.03488372093023884,"midi":93,"time":85.19767441860465,"velocity":0.08661417322834646},{"duration":0.04651162790696617,"midi":94,"time":85.23255813953489,"velocity":0.14960629921259844},{"duration":0.04651162790698038,"midi":53,"time":85.25581395348837,"velocity":0.2992125984251969},{"duration":0.03488372093023884,"midi":58,"time":85.25581395348837,"velocity":0.2440944881889764},{"duration":0.03488372093023884,"midi":63,"time":85.25581395348837,"velocity":0.2992125984251969},{"duration":0.12790697674418539,"midi":68,"time":85.26744186046511,"velocity":0.3228346456692913},{"duration":0.08139534883721922,"midi":82,"time":85.26744186046511,"velocity":0.2047244094488189},{"duration":0.04651162790698038,"midi":90,"time":85.26744186046511,"velocity":0.11811023622047244},{"duration":0.08139534883721922,"midi":93,"time":85.26744186046511,"velocity":0.1732283464566929},{"duration":0.023255813953497295,"midi":78,"time":85.27906976744185,"velocity":0.31496062992125984},{"duration":0.05813953488372192,"midi":73,"time":85.29069767441861,"velocity":0.16535433070866143},{"duration":0.081395348837205,"midi":88,"time":85.29069767441861,"velocity":0.18110236220472442},{"duration":0.22093023255813193,"midi":94,"time":85.29069767441861,"velocity":0.30708661417322836},{"duration":0.05813953488372192,"midi":97,"time":85.29069767441861,"velocity":0.08661417322834646},{"duration":0.48837209302324425,"midi":99,"time":85.29069767441861,"velocity":0.3700787401574803},{"duration":0.04651162790696617,"midi":100,"time":85.29069767441861,"velocity":0.1968503937007874},{"duration":0.023255813953483084,"midi":60,"time":85.30232558139535,"velocity":0.4645669291338583},{"duration":0.023255813953483084,"midi":77,"time":85.30232558139535,"velocity":0.2283464566929134},{"duration":0.05813953488372192,"midi":87,"time":85.30232558139535,"velocity":0.14960629921259844},{"duration":0.05813953488372192,"midi":102,"time":85.30232558139535,"velocity":0.1968503937007874},{"duration":0.023255813953483084,"midi":64,"time":85.31395348837209,"velocity":0.29133858267716534},{"duration":0.08139534883721922,"midi":63,"time":85.33720930232558,"velocity":0.3464566929133858},{"duration":0.03488372093023884,"midi":72,"time":85.37209302325581,"velocity":0.2755905511811024},{"duration":0.023255813953497295,"midi":53,"time":85.38372093023256,"velocity":0.3700787401574803},{"duration":0.023255813953497295,"midi":59,"time":85.3953488372093,"velocity":0.23622047244094488},{"duration":0.023255813953497295,"midi":67,"time":85.3953488372093,"velocity":0.23622047244094488},{"duration":0.023255813953483084,"midi":78,"time":85.40697674418605,"velocity":0.31496062992125984},{"duration":0.034883720930224626,"midi":81,"time":85.40697674418605,"velocity":0.2755905511811024},{"duration":0.3139534883720927,"midi":96,"time":85.40697674418605,"velocity":0.28346456692913385},{"duration":0.11627906976742963,"midi":101,"time":85.40697674418605,"velocity":0.25984251968503935},{"duration":0.12790697674418539,"midi":102,"time":85.40697674418605,"velocity":0.2204724409448819},{"duration":0.023255813953483084,"midi":72,"time":85.4186046511628,"velocity":0.2677165354330709},{"duration":0.081395348837205,"midi":77,"time":85.4186046511628,"velocity":0.2755905511811024},{"duration":0.2674418604651123,"midi":86,"time":85.4186046511628,"velocity":0.3700787401574803},{"duration":0.05813953488372192,"midi":91,"time":85.4186046511628,"velocity":0.2047244094488189},{"duration":0.10465116279068809,"midi":95,"time":85.4186046511628,"velocity":0.25984251968503935},{"duration":0.09302325581394655,"midi":100,"time":85.4186046511628,"velocity":0.2204724409448819},{"duration":0.06976744186046346,"midi":103,"time":85.4186046511628,"velocity":0.23622047244094488},{"duration":0.034883720930224626,"midi":45,"time":85.43023255813954,"velocity":0.5748031496062992},{"duration":0.034883720930224626,"midi":55,"time":85.43023255813954,"velocity":0.5196850393700787},{"duration":0.023255813953483084,"midi":64,"time":85.43023255813954,"velocity":0.31496062992125984},{"duration":0.023255813953483084,"midi":69,"time":85.43023255813954,"velocity":0.29133858267716534},{"duration":0.034883720930224626,"midi":79,"time":85.43023255813954,"velocity":0.2677165354330709},{"duration":0.11627906976744384,"midi":82,"time":85.43023255813954,"velocity":0.2992125984251969},{"duration":0.081395348837205,"midi":87,"time":85.43023255813954,"velocity":0.15748031496062992},{"duration":0.06976744186046346,"midi":89,"time":85.43023255813954,"velocity":0.2992125984251969},{"duration":0.05813953488372192,"midi":97,"time":85.43023255813954,"velocity":0.11023622047244094},{"duration":0.023255813953483084,"midi":60,"time":85.44186046511628,"velocity":0.4409448818897638},{"duration":0.09302325581396076,"midi":80,"time":85.44186046511628,"velocity":0.2047244094488189},{"duration":0.04651162790698038,"midi":83,"time":85.44186046511628,"velocity":0.16535433070866143},{"duration":0.15116279069766847,"midi":88,"time":85.44186046511628,"velocity":0.23622047244094488},{"duration":0.09302325581396076,"midi":68,"time":85.45348837209302,"velocity":0.41732283464566927},{"duration":0.011627906976755753,"midi":44,"time":85.46511627906976,"velocity":0.5669291338582677},{"duration":0.09302325581396076,"midi":75,"time":85.46511627906976,"velocity":0.44881889763779526},{"duration":0.023255813953483084,"midi":42,"time":85.47674418604652,"velocity":0.5511811023622047},{"duration":0.023255813953483084,"midi":52,"time":85.47674418604652,"velocity":0.3228346456692913},{"duration":0.04651162790696617,"midi":84,"time":85.47674418604652,"velocity":0.14173228346456693},{"duration":0.09302325581394655,"midi":90,"time":85.48837209302326,"velocity":0.30708661417322836},{"duration":0.04651162790698038,"midi":89,"time":85.51162790697674,"velocity":0.1968503937007874},{"duration":0.03488372093023884,"midi":72,"time":85.52325581395348,"velocity":0.25196850393700787},{"duration":0.04651162790698038,"midi":81,"time":85.52325581395348,"velocity":0.29133858267716534},{"duration":0.023255813953483084,"midi":71,"time":85.53488372093024,"velocity":0.2755905511811024},{"duration":0.2906976744185954,"midi":77,"time":85.53488372093024,"velocity":0.41732283464566927},{"duration":0.023255813953483084,"midi":78,"time":85.53488372093024,"velocity":0.2992125984251969},{"duration":0.034883720930224626,"midi":36,"time":85.54651162790698,"velocity":0.3228346456692913},{"duration":0.023255813953483084,"midi":63,"time":85.54651162790698,"velocity":0.31496062992125984},{"duration":0.2093023255813904,"midi":85,"time":85.54651162790698,"velocity":0.4409448818897638},{"duration":0.05813953488372192,"midi":91,"time":85.54651162790698,"velocity":0.15748031496062992},{"duration":0.05813953488372192,"midi":95,"time":85.54651162790698,"velocity":0.18110236220472442},{"duration":0.023255813953483084,"midi":56,"time":85.55813953488372,"velocity":0.4881889763779528},{"duration":0.12790697674418539,"midi":70,"time":85.55813953488372,"velocity":0.48031496062992124},{"duration":0.05813953488372192,"midi":73,"time":85.55813953488372,"velocity":0.3464566929133858},{"duration":0.034883720930224626,"midi":74,"time":85.55813953488372,"velocity":0.2677165354330709},{"duration":0.09302325581394655,"midi":80,"time":85.55813953488372,"velocity":0.28346456692913385},{"duration":0.13953488372092693,"midi":101,"time":85.55813953488372,"velocity":0.2440944881889764},{"duration":0.023255813953483084,"midi":62,"time":85.56976744186046,"velocity":0.25984251968503935},{"duration":0.03488372093023884,"midi":93,"time":85.56976744186046,"velocity":0.10236220472440945},{"duration":0.023255813953497295,"midi":57,"time":85.5813953488372,"velocity":0.4409448818897638},{"duration":0.023255813953497295,"midi":61,"time":85.59302325581395,"velocity":0.2755905511811024},{"duration":0.023255813953483084,"midi":58,"time":85.6046511627907,"velocity":0.3937007874015748},{"duration":0.023255813953483084,"midi":90,"time":85.61627906976744,"velocity":0.23622047244094488},{"duration":0.081395348837205,"midi":95,"time":85.61627906976744,"velocity":0.2125984251968504},{"duration":0.04651162790698038,"midi":103,"time":85.62790697674419,"velocity":0.09448818897637795},{"duration":0.04651162790698038,"midi":73,"time":85.63953488372093,"velocity":0.2047244094488189},{"duration":0.05813953488372192,"midi":75,"time":85.65116279069767,"velocity":0.31496062992125984},{"duration":0.034883720930224626,"midi":56,"time":85.66279069767442,"velocity":0.47244094488188976},{"duration":0.04651162790698038,"midi":84,"time":85.67441860465117,"velocity":0.2283464566929134},{"duration":0.06976744186046346,"midi":90,"time":85.67441860465117,"velocity":0.1889763779527559},{"duration":0.03488372093023884,"midi":83,"time":85.68604651162791,"velocity":0.2283464566929134},{"duration":0.05813953488372192,"midi":88,"time":85.68604651162791,"velocity":0.3543307086614173},{"duration":0.19767441860464885,"midi":94,"time":85.68604651162791,"velocity":0.25984251968503935},{"duration":0.418604651162795,"midi":102,"time":85.68604651162791,"velocity":0.4015748031496063},{"duration":0.05813953488372192,"midi":61,"time":85.69767441860465,"velocity":0.3937007874015748},{"duration":0.05813953488372192,"midi":73,"time":85.69767441860465,"velocity":0.5511811023622047},{"duration":0.05813953488372192,"midi":80,"time":85.69767441860465,"velocity":0.2755905511811024},{"duration":0.023255813953497295,"midi":53,"time":85.70930232558139,"velocity":0.3464566929133858},{"duration":0.09302325581396076,"midi":82,"time":85.70930232558139,"velocity":0.2440944881889764},{"duration":0.023255813953483084,"midi":40,"time":85.72093023255815,"velocity":0.3228346456692913},{"duration":0.034883720930224626,"midi":68,"time":85.72093023255815,"velocity":0.09448818897637795},{"duration":0.30232558139533694,"midi":101,"time":85.72093023255815,"velocity":0.3858267716535433},{"duration":0.023255813953483084,"midi":48,"time":85.73255813953489,"velocity":0.29133858267716534},{"duration":0.023255813953483084,"midi":56,"time":85.74418604651163,"velocity":0.33858267716535434},{"duration":0.1046511627907023,"midi":96,"time":85.74418604651163,"velocity":0.30708661417322836},{"duration":0.023255813953483084,"midi":60,"time":85.75581395348837,"velocity":0.2755905511811024},{"duration":0.04651162790698038,"midi":72,"time":85.75581395348837,"velocity":0.5275590551181102},{"duration":0.09302325581396076,"midi":88,"time":85.75581395348837,"velocity":0.2204724409448819},{"duration":0.15116279069768268,"midi":100,"time":85.75581395348837,"velocity":0.29133858267716534},{"duration":0.12790697674418539,"midi":103,"time":85.75581395348837,"velocity":0.25196850393700787},{"duration":0.05813953488372192,"midi":53,"time":85.76744186046511,"velocity":0.28346456692913385},{"duration":0.04651162790698038,"midi":70,"time":85.76744186046511,"velocity":0.36220472440944884},{"duration":0.2906976744186096,"midi":98,"time":85.76744186046511,"velocity":0.2204724409448819},{"duration":0.05813953488372192,"midi":59,"time":85.77906976744185,"velocity":0.44881889763779526},{"duration":0.04651162790698038,"midi":75,"time":85.77906976744185,"velocity":0.12598425196850394},{"duration":0.11627906976744384,"midi":95,"time":85.77906976744185,"velocity":0.2677165354330709},{"duration":0.03488372093023884,"midi":97,"time":85.77906976744185,"velocity":0.11023622047244094},{"duration":0.023255813953483084,"midi":30,"time":85.79069767441861,"velocity":0.2283464566929134},{"duration":0.023255813953483084,"midi":41,"time":85.79069767441861,"velocity":0.23622047244094488},{"duration":0.15116279069766847,"midi":80,"time":85.80232558139535,"velocity":0.25196850393700787},{"duration":0.09302325581394655,"midi":83,"time":85.80232558139535,"velocity":0.2283464566929134},{"duration":0.17441860465116577,"midi":85,"time":85.80232558139535,"velocity":0.33070866141732286},{"duration":0.06976744186046346,"midi":86,"time":85.80232558139535,"velocity":0.23622047244094488},{"duration":0.023255813953483084,"midi":29,"time":85.81395348837209,"velocity":0.2440944881889764},{"duration":0.023255813953483084,"midi":69,"time":85.81395348837209,"velocity":0.3937007874015748},{"duration":0.03488372093023884,"midi":87,"time":85.81395348837209,"velocity":0.1889763779527559},{"duration":0.1046511627907023,"midi":90,"time":85.81395348837209,"velocity":0.36220472440944884},{"duration":0.15116279069766847,"midi":92,"time":85.81395348837209,"velocity":0.4015748031496063},{"duration":0.023255813953497295,"midi":67,"time":85.82558139534883,"velocity":0.41732283464566927},{"duration":0.03488372093023884,"midi":74,"time":85.82558139534883,"velocity":0.30708661417322836},{"duration":0.03488372093023884,"midi":76,"time":85.82558139534883,"velocity":0.14960629921259844},{"duration":0.08139534883721922,"midi":93,"time":85.82558139534883,"velocity":0.25984251968503935},{"duration":0.03488372093023884,"midi":58,"time":85.83720930232558,"velocity":0.4330708661417323},{"duration":0.11627906976744384,"midi":70,"time":85.83720930232558,"velocity":0.4330708661417323},{"duration":0.1046511627907023,"midi":78,"time":85.83720930232558,"velocity":0.15748031496062992},{"duration":0.023255813953483084,"midi":45,"time":85.84883720930233,"velocity":0.33858267716535434},{"duration":0.06976744186046346,"midi":66,"time":85.84883720930233,"velocity":0.3700787401574803},{"duration":0.09302325581394655,"midi":89,"time":85.84883720930233,"velocity":0.36220472440944884},{"duration":0.034883720930224626,"midi":77,"time":85.86046511627907,"velocity":0.10236220472440945},{"duration":0.04651162790698038,"midi":87,"time":85.86046511627907,"velocity":0.08661417322834646},{"duration":0.04651162790698038,"midi":96,"time":85.86046511627907,"velocity":0.1968503937007874},{"duration":0.03488372093023884,"midi":84,"time":85.87209302325581,"velocity":0.11811023622047244},{"duration":0.023255813953497295,"midi":51,"time":85.88372093023256,"velocity":0.4094488188976378},{"duration":0.05813953488372192,"midi":56,"time":85.88372093023256,"velocity":0.44881889763779526},{"duration":0.05813953488372192,"midi":73,"time":85.8953488372093,"velocity":0.3779527559055118},{"duration":0.04651162790698038,"midi":88,"time":85.8953488372093,"velocity":0.14173228346456693},{"duration":0.04651162790696617,"midi":33,"time":85.90697674418605,"velocity":0.2992125984251969},{"duration":0.023255813953483084,"midi":50,"time":85.90697674418605,"velocity":0.3464566929133858},{"duration":0.034883720930224626,"midi":61,"time":85.90697674418605,"velocity":0.2440944881889764},{"duration":0.034883720930224626,"midi":86,"time":85.90697674418605,"velocity":0.10236220472440945},{"duration":0.2674418604651123,"midi":95,"time":85.90697674418605,"velocity":0.30708661417322836},{"duration":0.034883720930224626,"midi":77,"time":85.9186046511628,"velocity":0.1968503937007874},{"duration":0.30232558139535115,"midi":99,"time":85.9186046511628,"velocity":0.33070866141732286},{"duration":0.05813953488372192,"midi":94,"time":85.93023255813954,"velocity":0.2283464566929134},{"duration":0.023255813953483084,"midi":66,"time":85.94186046511628,"velocity":0.28346456692913385},{"duration":0.081395348837205,"midi":84,"time":85.94186046511628,"velocity":0.2992125984251969},{"duration":0.06976744186046346,"midi":87,"time":85.94186046511628,"velocity":0.23622047244094488},{"duration":0.03488372093023884,"midi":91,"time":85.94186046511628,"velocity":0.14960629921259844},{"duration":0.6395348837209269,"midi":93,"time":85.94186046511628,"velocity":0.5433070866141733},{"duration":0.3139534883720927,"midi":96,"time":85.94186046511628,"velocity":0.3858267716535433},{"duration":0.05813953488372192,"midi":100,"time":85.94186046511628,"velocity":0.23622047244094488},{"duration":0.09302325581396076,"midi":103,"time":85.94186046511628,"velocity":0.2047244094488189},{"duration":0.05813953488372192,"midi":72,"time":85.95348837209302,"velocity":0.4094488188976378},{"duration":0.04651162790698038,"midi":75,"time":85.95348837209302,"velocity":0.25196850393700787},{"duration":0.03488372093023884,"midi":88,"time":85.95348837209302,"velocity":0.09448818897637795},{"duration":0.04651162790698038,"midi":90,"time":85.95348837209302,"velocity":0.11811023622047244},{"duration":0.023255813953497295,"midi":60,"time":85.96511627906976,"velocity":0.36220472440944884},{"duration":0.023255813953497295,"midi":68,"time":85.96511627906976,"velocity":0.25984251968503935},{"duration":0.03488372093023884,"midi":86,"time":85.96511627906976,"velocity":0.07874015748031496},{"duration":0.011627906976741542,"midi":46,"time":85.97674418604652,"velocity":0.5511811023622047},{"duration":0.023255813953483084,"midi":55,"time":85.97674418604652,"velocity":0.4094488188976378},{"duration":0.023255813953483084,"midi":64,"time":85.97674418604652,"velocity":0.48031496062992124},{"duration":0.09302325581394655,"midi":77,"time":85.97674418604652,"velocity":0.1732283464566929},{"duration":0.023255813953483084,"midi":44,"time":85.98837209302326,"velocity":0.5984251968503937},{"duration":0.023255813953483084,"midi":61,"time":85.98837209302326,"velocity":0.2755905511811024},{"duration":0.24418604651162923,"midi":89,"time":85.98837209302326,"velocity":0.33070866141732286},{"duration":0.023255813953483084,"midi":65,"time":86,"velocity":0.47244094488188976},{"duration":0.3372093023255758,"midi":85,"time":86,"velocity":0.25196850393700787},{"duration":0.03488372093023884,"midi":62,"time":86.01162790697674,"velocity":0.2440944881889764},{"duration":0.023255813953497295,"midi":73,"time":86.01162790697674,"velocity":0.2440944881889764},{"duration":0.17441860465116577,"midi":82,"time":86.01162790697674,"velocity":0.2677165354330709},{"duration":0.2093023255814046,"midi":92,"time":86.01162790697674,"velocity":0.25196850393700787},{"duration":0.03488372093023884,"midi":68,"time":86.02325581395348,"velocity":0.44881889763779526},{"duration":0.1046511627907023,"midi":70,"time":86.02325581395348,"velocity":0.3937007874015748},{"duration":0.023255813953483084,"midi":65,"time":86.03488372093024,"velocity":0.3228346456692913},{"duration":0.034883720930224626,"midi":84,"time":86.03488372093024,"velocity":0.09448818897637795},{"duration":0.16279069767441,"midi":101,"time":86.03488372093024,"velocity":0.36220472440944884},{"duration":0.034883720930224626,"midi":61,"time":86.04651162790698,"velocity":0.2283464566929134},{"duration":0.3372093023255758,"midi":73,"time":86.04651162790698,"velocity":0.4015748031496063},{"duration":0.04651162790696617,"midi":103,"time":86.04651162790698,"velocity":0.28346456692913385},{"duration":0.09302325581394655,"midi":67,"time":86.05813953488372,"velocity":0.5118110236220472},{"duration":0.05813953488372192,"midi":78,"time":86.05813953488372,"velocity":0.1968503937007874},{"duration":0.06976744186046346,"midi":77,"time":86.1046511627907,"velocity":0.29133858267716534},{"duration":0.09302325581394655,"midi":103,"time":86.1046511627907,"velocity":0.1889763779527559},{"duration":0.04651162790698038,"midi":58,"time":86.11627906976744,"velocity":0.2047244094488189},{"duration":0.034883720930224626,"midi":98,"time":86.11627906976744,"velocity":0.11811023622047244},{"duration":0.06976744186046346,"midi":54,"time":86.12790697674419,"velocity":0.29133858267716534},{"duration":0.11627906976744384,"midi":84,"time":86.12790697674419,"velocity":0.2755905511811024},{"duration":0.03488372093023884,"midi":61,"time":86.13953488372093,"velocity":0.25984251968503935},{"duration":0.023255813953497295,"midi":65,"time":86.15116279069767,"velocity":0.3937007874015748},{"duration":0.023255813953497295,"midi":68,"time":86.15116279069767,"velocity":0.29133858267716534},{"duration":0.034883720930224626,"midi":78,"time":86.16279069767442,"velocity":0.15748031496062992},{"duration":0.05813953488372192,"midi":67,"time":86.17441860465117,"velocity":0.3700787401574803},{"duration":0.05813953488372192,"midi":70,"time":86.17441860465117,"velocity":0.25196850393700787},{"duration":0.023255813953483084,"midi":65,"time":86.18604651162791,"velocity":0.4566929133858268},{"duration":0.03488372093023884,"midi":90,"time":86.20930232558139,"velocity":0.13385826771653545},{"duration":0.04651162790696617,"midi":81,"time":86.22093023255815,"velocity":0.23622047244094488},{"duration":0.04651162790696617,"midi":68,"time":86.23255813953489,"velocity":0.4330708661417323},{"duration":0.023255813953483084,"midi":39,"time":86.24418604651163,"velocity":0.3464566929133858},{"duration":0.023255813953483084,"midi":65,"time":86.24418604651163,"velocity":0.2440944881889764},{"duration":0.023255813953483084,"midi":55,"time":86.25581395348837,"velocity":0.30708661417322836},{"duration":0.05813953488372192,"midi":82,"time":86.25581395348837,"velocity":0.15748031496062992},{"duration":0.4767441860465169,"midi":89,"time":86.25581395348837,"velocity":0.3700787401574803},{"duration":0.11627906976744384,"midi":99,"time":86.25581395348837,"velocity":0.1732283464566929},{"duration":0.023255813953497295,"midi":37,"time":86.26744186046511,"velocity":0.3858267716535433},{"duration":0.19767441860464885,"midi":61,"time":86.26744186046511,"velocity":0.3937007874015748},{"duration":0.08139534883721922,"midi":70,"time":86.26744186046511,"velocity":0.2125984251968504},{"duration":0.04651162790698038,"midi":95,"time":86.26744186046511,"velocity":0.11023622047244094},{"duration":0.023255813953497295,"midi":53,"time":86.27906976744185,"velocity":0.2755905511811024},{"duration":0.04651162790698038,"midi":67,"time":86.27906976744185,"velocity":0.4015748031496063},{"duration":0.034883720930224626,"midi":84,"time":86.30232558139535,"velocity":0.11023622047244094},{"duration":0.03488372093023884,"midi":54,"time":86.32558139534883,"velocity":0.2677165354330709},{"duration":0.03488372093023884,"midi":68,"time":86.32558139534883,"velocity":0.4015748031496063},{"duration":0.1046511627907023,"midi":82,"time":86.33720930232558,"velocity":0.25196850393700787},{"duration":0.03488372093023884,"midi":86,"time":86.33720930232558,"velocity":0.12598425196850394},{"duration":0.04651162790698038,"midi":95,"time":86.33720930232558,"velocity":0.2125984251968504},{"duration":0.034883720930224626,"midi":81,"time":86.34883720930233,"velocity":0.1889763779527559},{"duration":0.17441860465115155,"midi":84,"time":86.34883720930233,"velocity":0.2440944881889764},{"duration":0.06976744186046346,"midi":87,"time":86.34883720930233,"velocity":0.16535433070866143},{"duration":0.1860465116279073,"midi":92,"time":86.34883720930233,"velocity":0.33858267716535434},{"duration":0.06976744186046346,"midi":100,"time":86.34883720930233,"velocity":0.30708661417322836},{"duration":0.25581395348837077,"midi":103,"time":86.34883720930233,"velocity":0.3228346456692913},{"duration":0.023255813953483084,"midi":69,"time":86.36046511627907,"velocity":0.4094488188976378},{"duration":0.05813953488372192,"midi":98,"time":86.36046511627907,"velocity":0.2204724409448819},{"duration":0.16279069767441,"midi":102,"time":86.36046511627907,"velocity":0.2047244094488189},{"duration":0.023255813953483084,"midi":37,"time":86.37209302325581,"velocity":0.2992125984251969},{"duration":0.1046511627907023,"midi":65,"time":86.37209302325581,"velocity":0.5669291338582677},{"duration":0.06976744186046346,"midi":74,"time":86.37209302325581,"velocity":0.33858267716535434},{"duration":0.1046511627907023,"midi":68,"time":86.38372093023256,"velocity":0.4645669291338583},{"duration":0.4534883720930196,"midi":96,"time":86.38372093023256,"velocity":0.3779527559055118},{"duration":0.19767441860464885,"midi":99,"time":86.38372093023256,"velocity":0.2755905511811024},{"duration":0.023255813953497295,"midi":71,"time":86.3953488372093,"velocity":0.25984251968503935},{"duration":0.023255813953483084,"midi":55,"time":86.40697674418605,"velocity":0.2440944881889764},{"duration":0.023255813953497295,"midi":39,"time":86.45348837209302,"velocity":0.25196850393700787},{"duration":0.12790697674418539,"midi":82,"time":86.45348837209302,"velocity":0.2204724409448819},{"duration":0.06976744186046346,"midi":98,"time":86.45348837209302,"velocity":0.18110236220472442},{"duration":0.023255813953483084,"midi":54,"time":86.47674418604652,"velocity":0.5039370078740157},{"duration":0.023255813953483084,"midi":62,"time":86.47674418604652,"velocity":0.41732283464566927},{"duration":0.04651162790696617,"midi":87,"time":86.47674418604652,"velocity":0.15748031496062992},{"duration":0.034883720930224626,"midi":45,"time":86.48837209302326,"velocity":0.5826771653543307},{"duration":0.06976744186046346,"midi":70,"time":86.48837209302326,"velocity":0.3700787401574803},{"duration":0.04651162790698038,"midi":90,"time":86.48837209302326,"velocity":0.2677165354330709},{"duration":0.13953488372092693,"midi":73,"time":86.5,"velocity":0.3937007874015748},{"duration":0.04651162790698038,"midi":88,"time":86.5,"velocity":0.13385826771653545},{"duration":0.04651162790698038,"midi":91,"time":86.5,"velocity":0.16535433070866143},{"duration":0.04651162790698038,"midi":58,"time":86.51162790697674,"velocity":0.1889763779527559},{"duration":0.12790697674418539,"midi":65,"time":86.51162790697674,"velocity":0.5196850393700787},{"duration":0.011627906976755753,"midi":44,"time":86.52325581395348,"velocity":0.5826771653543307},{"duration":0.023255813953497295,"midi":52,"time":86.52325581395348,"velocity":0.3464566929133858},{"duration":0.011627906976741542,"midi":43,"time":86.53488372093024,"velocity":0.5669291338582677},{"duration":0.04651162790696617,"midi":84,"time":86.53488372093024,"velocity":0.1968503937007874},{"duration":0.011627906976741542,"midi":42,"time":86.54651162790698,"velocity":0.5275590551181102},{"duration":0.023255813953483084,"midi":69,"time":86.54651162790698,"velocity":0.2992125984251969},{"duration":0.023255813953483084,"midi":53,"time":86.55813953488372,"velocity":0.33858267716535434},{"duration":0.04651162790698038,"midi":92,"time":86.55813953488372,"velocity":0.18110236220472442},{"duration":0.25581395348837077,"midi":68,"time":86.56976744186046,"velocity":0.4094488188976378},{"duration":0.03488372093023884,"midi":88,"time":86.56976744186046,"velocity":0.11811023622047244},{"duration":0.023255813953497295,"midi":37,"time":86.59302325581395,"velocity":0.3700787401574803},{"duration":0.2093023255814046,"midi":84,"time":86.59302325581395,"velocity":0.44881889763779526},{"duration":0.09302325581396076,"midi":93,"time":86.59302325581395,"velocity":0.2992125984251969},{"duration":0.05813953488372192,"midi":61,"time":86.6046511627907,"velocity":0.33070866141732286},{"duration":0.418604651162795,"midi":103,"time":86.61627906976744,"velocity":0.23622047244094488},{"duration":0.1046511627907023,"midi":48,"time":86.63953488372093,"velocity":0.3228346456692913},{"duration":0.023255813953497295,"midi":55,"time":86.63953488372093,"velocity":0.28346456692913385},{"duration":0.023255813953497295,"midi":78,"time":86.63953488372093,"velocity":0.2992125984251969},{"duration":0.09302325581396076,"midi":65,"time":86.65116279069767,"velocity":0.5669291338582677},{"duration":0.034883720930224626,"midi":87,"time":86.66279069767442,"velocity":0.09448818897637795},{"duration":0.04651162790698038,"midi":36,"time":86.67441860465117,"velocity":0.3464566929133858},{"duration":0.04651162790698038,"midi":55,"time":86.69767441860465,"velocity":0.25984251968503935},{"duration":0.03488372093023884,"midi":61,"time":86.69767441860465,"velocity":0.2440944881889764},{"duration":0.09302325581396076,"midi":93,"time":86.69767441860465,"velocity":0.14173228346456693},{"duration":0.023255813953483084,"midi":76,"time":86.72093023255815,"velocity":0.2677165354330709},{"duration":0.081395348837205,"midi":102,"time":86.72093023255815,"velocity":0.13385826771653545},{"duration":0.24418604651162923,"midi":72,"time":86.73255813953489,"velocity":0.30708661417322836},{"duration":0.04651162790696617,"midi":83,"time":86.73255813953489,"velocity":0.4566929133858268},{"duration":0.034883720930224626,"midi":86,"time":86.73255813953489,"velocity":0.07086614173228346},{"duration":0.09302325581394655,"midi":88,"time":86.73255813953489,"velocity":0.33858267716535434},{"duration":0.1046511627907023,"midi":58,"time":86.74418604651163,"velocity":0.33858267716535434},{"duration":0.011627906976741542,"midi":64,"time":86.74418604651163,"velocity":0.5275590551181102},{"duration":0.023255813953483084,"midi":75,"time":86.74418604651163,"velocity":0.4015748031496063},{"duration":0.15116279069766847,"midi":91,"time":86.74418604651163,"velocity":0.2992125984251969},{"duration":0.05813953488372192,"midi":98,"time":86.74418604651163,"velocity":0.15748031496062992},{"duration":1.7674418604651123,"midi":99,"time":86.74418604651163,"velocity":0.4251968503937008},{"duration":0.023255813953483084,"midi":45,"time":86.75581395348837,"velocity":0.3464566929133858},{"duration":0.03488372093023884,"midi":53,"time":86.75581395348837,"velocity":0.31496062992125984},{"duration":0.11627906976744384,"midi":81,"time":86.75581395348837,"velocity":0.4566929133858268},{"duration":0.17441860465116577,"midi":92,"time":86.75581395348837,"velocity":0.23622047244094488},{"duration":0.30232558139535115,"midi":97,"time":86.75581395348837,"velocity":0.23622047244094488},{"duration":0.06976744186046346,"midi":101,"time":86.75581395348837,"velocity":0.16535433070866143},{"duration":0.03488372093023884,"midi":76,"time":86.76744186046511,"velocity":0.3858267716535433},{"duration":0.05813953488372192,"midi":79,"time":86.76744186046511,"velocity":0.1968503937007874},{"duration":0.16279069767442422,"midi":94,"time":86.76744186046511,"velocity":0.2204724409448819},{"duration":0.11627906976744384,"midi":46,"time":86.77906976744185,"velocity":0.29133858267716534},{"duration":0.05813953488372192,"midi":65,"time":86.77906976744185,"velocity":0.4251968503937008},{"duration":0.17441860465116577,"midi":82,"time":86.77906976744185,"velocity":0.4645669291338583},{"duration":0.3604651162790731,"midi":87,"time":86.77906976744185,"velocity":0.5354330708661418},{"duration":0.05813953488372192,"midi":89,"time":86.77906976744185,"velocity":0.12598425196850394},{"duration":0.04651162790698038,"midi":53,"time":86.80232558139535,"velocity":0.2440944881889764},{"duration":0.25581395348837077,"midi":75,"time":86.80232558139535,"velocity":0.5669291338582677},{"duration":0.034883720930224626,"midi":85,"time":86.80232558139535,"velocity":0.3700787401574803},{"duration":0.15116279069766847,"midi":84,"time":86.81395348837209,"velocity":0.3543307086614173},{"duration":0.03488372093023884,"midi":90,"time":86.81395348837209,"velocity":0.09448818897637795},{"duration":0.1046511627907023,"midi":34,"time":86.82558139534883,"velocity":0.30708661417322836},{"duration":0.034883720930224626,"midi":64,"time":86.84883720930233,"velocity":0.33858267716535434},{"duration":0.15116279069766847,"midi":68,"time":86.84883720930233,"velocity":0.4015748031496063},{"duration":0.10465116279068809,"midi":80,"time":86.84883720930233,"velocity":0.4094488188976378},{"duration":0.24418604651161502,"midi":101,"time":86.84883720930233,"velocity":0.2755905511811024},{"duration":0.023255813953497295,"midi":63,"time":86.88372093023256,"velocity":0.2440944881889764},{"duration":0.04651162790698038,"midi":65,"time":86.88372093023256,"velocity":0.2992125984251969},{"duration":0.03488372093023884,"midi":90,"time":86.88372093023256,"velocity":0.23622047244094488},{"duration":0.034883720930224626,"midi":64,"time":86.93023255813954,"velocity":0.3858267716535433},{"duration":0.04651162790698038,"midi":77,"time":86.93023255813954,"velocity":0.12598425196850394},{"duration":0.05813953488372192,"midi":81,"time":86.93023255813954,"velocity":0.3858267716535433},{"duration":0.22093023255814614,"midi":91,"time":86.95348837209302,"velocity":0.2440944881889764},{"duration":0.08139534883721922,"midi":92,"time":86.95348837209302,"velocity":0.2204724409448819},{"duration":0.04651162790698038,"midi":58,"time":86.96511627906976,"velocity":0.25984251968503935},{"duration":0.023255813953497295,"midi":63,"time":86.96511627906976,"velocity":0.2440944881889764},{"duration":0.12790697674418539,"midi":82,"time":86.96511627906976,"velocity":0.3543307086614173},{"duration":0.05813953488372192,"midi":84,"time":86.97674418604652,"velocity":0.2204724409448819},{"duration":0.034883720930224626,"midi":65,"time":86.98837209302326,"velocity":0.2755905511811024},{"duration":0.023255813953483084,"midi":69,"time":87,"velocity":0.2677165354330709},{"duration":0.05813953488372192,"midi":78,"time":87,"velocity":0.23622047244094488},{"duration":0.023255813953483084,"midi":85,"time":87,"velocity":0.23622047244094488},{"duration":0.04651162790698038,"midi":89,"time":87,"velocity":0.1968503937007874},{"duration":0.03488372093023884,"midi":95,"time":87,"velocity":0.2125984251968504},{"duration":0.05813953488372192,"midi":100,"time":87,"velocity":0.14960629921259844},{"duration":0.023255813953497295,"midi":48,"time":87.01162790697674,"velocity":0.48031496062992124},{"duration":0.05813953488372192,"midi":102,"time":87.01162790697674,"velocity":0.2125984251968504},{"duration":0.023255813953497295,"midi":55,"time":87.02325581395348,"velocity":0.3228346456692913},{"duration":0.023255813953497295,"midi":61,"time":87.02325581395348,"velocity":0.2677165354330709},{"duration":0.011627906976741542,"midi":46,"time":87.03488372093024,"velocity":0.5511811023622047},{"duration":0.011627906976741542,"midi":45,"time":87.04651162790698,"velocity":0.5905511811023622},{"duration":0.081395348837205,"midi":68,"time":87.04651162790698,"velocity":0.3464566929133858},{"duration":0.04651162790696617,"midi":70,"time":87.04651162790698,"velocity":0.14173228346456693},{"duration":0.011627906976741542,"midi":43,"time":87.05813953488372,"velocity":0.5826771653543307},{"duration":0.06976744186046346,"midi":76,"time":87.05813953488372,"velocity":0.3779527559055118},{"duration":0.023255813953483084,"midi":42,"time":87.06976744186046,"velocity":0.5669291338582677},{"duration":0.023255813953483084,"midi":51,"time":87.06976744186046,"velocity":0.2755905511811024},{"duration":0.023255813953483084,"midi":60,"time":87.06976744186046,"velocity":0.25984251968503935},{"duration":0.08139534883721922,"midi":73,"time":87.0813953488372,"velocity":0.18110236220472442},{"duration":0.13953488372094114,"midi":84,"time":87.0813953488372,"velocity":0.2125984251968504},{"duration":0.034883720930224626,"midi":38,"time":87.1046511627907,"velocity":0.3858267716535433},{"duration":0.10465116279068809,"midi":51,"time":87.1046511627907,"velocity":0.2283464566929134},{"duration":0.43023255813953654,"midi":63,"time":87.1046511627907,"velocity":0.41732283464566927},{"duration":0.034883720930224626,"midi":97,"time":87.1046511627907,"velocity":0.1889763779527559},{"duration":0.11627906976744384,"midi":101,"time":87.1046511627907,"velocity":0.18110236220472442},{"duration":0.12790697674418539,"midi":75,"time":87.11627906976744,"velocity":0.5275590551181102},{"duration":0.09302325581394655,"midi":82,"time":87.11627906976744,"velocity":0.3779527559055118},{"duration":0.05813953488372192,"midi":68,"time":87.13953488372093,"velocity":0.3228346456692913},{"duration":0.023255813953497295,"midi":88,"time":87.13953488372093,"velocity":0.2440944881889764},{"duration":0.023255813953497295,"midi":34,"time":87.15116279069767,"velocity":0.36220472440944884},{"duration":0.034883720930224626,"midi":44,"time":87.17441860465117,"velocity":0.11811023622047244},{"duration":0.04651162790698038,"midi":58,"time":87.17441860465117,"velocity":0.13385826771653545},{"duration":0.023255813953483084,"midi":81,"time":87.17441860465117,"velocity":0.2992125984251969},{"duration":0.023255813953483084,"midi":88,"time":87.17441860465117,"velocity":0.25984251968503935},{"duration":0.1046511627907023,"midi":91,"time":87.19767441860465,"velocity":0.12598425196850394},{"duration":0.06976744186046346,"midi":68,"time":87.20930232558139,"velocity":0.4409448818897638},{"duration":0.04651162790696617,"midi":81,"time":87.22093023255815,"velocity":0.1889763779527559},{"duration":0.04651162790696617,"midi":58,"time":87.23255813953489,"velocity":0.1968503937007874},{"duration":0.04651162790696617,"midi":76,"time":87.23255813953489,"velocity":0.29133858267716534},{"duration":0.04651162790696617,"midi":82,"time":87.23255813953489,"velocity":0.2283464566929134},{"duration":0.4651162790697754,"midi":72,"time":87.25581395348837,"velocity":0.36220472440944884},{"duration":0.03488372093023884,"midi":100,"time":87.25581395348837,"velocity":0.1732283464566929},{"duration":0.05813953488372192,"midi":86,"time":87.26744186046511,"velocity":0.25196850393700787},{"duration":0.03488372093023884,"midi":89,"time":87.26744186046511,"velocity":0.2440944881889764},{"duration":0.03488372093023884,"midi":90,"time":87.26744186046511,"velocity":0.11811023622047244},{"duration":0.03488372093023884,"midi":93,"time":87.26744186046511,"velocity":0.11811023622047244},{"duration":0.15116279069768268,"midi":51,"time":87.27906976744185,"velocity":0.3228346456692913},{"duration":0.023255813953497295,"midi":57,"time":87.27906976744185,"velocity":0.2440944881889764},{"duration":0.05813953488372192,"midi":78,"time":87.27906976744185,"velocity":0.2283464566929134},{"duration":0.03488372093023884,"midi":81,"time":87.27906976744185,"velocity":0.2047244094488189},{"duration":0.023255813953483084,"midi":61,"time":87.29069767441861,"velocity":0.25196850393700787},{"duration":0.04651162790696617,"midi":68,"time":87.29069767441861,"velocity":0.33070866141732286},{"duration":0.04651162790696617,"midi":74,"time":87.29069767441861,"velocity":0.2677165354330709},{"duration":0.09302325581394655,"midi":56,"time":87.30232558139535,"velocity":0.29133858267716534},{"duration":0.034883720930224626,"midi":82,"time":87.30232558139535,"velocity":0.14960629921259844},{"duration":0.04651162790698038,"midi":88,"time":87.30232558139535,"velocity":0.2440944881889764},{"duration":0.11627906976744384,"midi":44,"time":87.31395348837209,"velocity":0.3937007874015748},{"duration":0.1046511627907023,"midi":97,"time":87.31395348837209,"velocity":0.15748031496062992},{"duration":0.2093023255814046,"midi":75,"time":87.33720930232558,"velocity":0.4566929133858268},{"duration":0.08139534883721922,"midi":81,"time":87.33720930232558,"velocity":0.2677165354330709},{"duration":0.11627906976742963,"midi":82,"time":87.34883720930233,"velocity":0.1968503937007874},{"duration":0.10465116279068809,"midi":32,"time":87.36046511627907,"velocity":0.30708661417322836},{"duration":0.05813953488372192,"midi":79,"time":87.37209302325581,"velocity":0.11811023622047244},{"duration":0.13953488372094114,"midi":68,"time":87.3953488372093,"velocity":0.4645669291338583},{"duration":0.03488372093023884,"midi":81,"time":87.45348837209302,"velocity":0.13385826771653545},{"duration":0.12790697674418539,"midi":97,"time":87.45348837209302,"velocity":0.2204724409448819},{"duration":0.11627906976742963,"midi":82,"time":87.47674418604652,"velocity":0.2204724409448819},{"duration":0.023255813953497295,"midi":69,"time":87.52325581395348,"velocity":0.25196850393700787},{"duration":0.03488372093023884,"midi":78,"time":87.52325581395348,"velocity":0.2283464566929134},{"duration":0.034883720930224626,"midi":74,"time":87.53488372093024,"velocity":0.25984251968503935},{"duration":0.034883720930224626,"midi":89,"time":87.53488372093024,"velocity":0.2047244094488189},{"duration":0.10465116279068809,"midi":90,"time":87.53488372093024,"velocity":0.30708661417322836},{"duration":0.034883720930224626,"midi":93,"time":87.53488372093024,"velocity":0.13385826771653545},{"duration":0.24418604651161502,"midi":96,"time":87.53488372093024,"velocity":0.31496062992125984},{"duration":0.09302325581394655,"midi":100,"time":87.53488372093024,"velocity":0.1732283464566929},{"duration":0.05813953488370771,"midi":103,"time":87.53488372093024,"velocity":0.14960629921259844},{"duration":0.011627906976741542,"midi":55,"time":87.54651162790698,"velocity":0.5433070866141733},{"duration":0.06976744186046346,"midi":91,"time":87.54651162790698,"velocity":0.25984251968503935},{"duration":0.19767441860464885,"midi":98,"time":87.54651162790698,"velocity":0.30708661417322836},{"duration":0.011627906976741542,"midi":51,"time":87.55813953488372,"velocity":0.5118110236220472},{"duration":0.034883720930224626,"midi":77,"time":87.55813953488372,"velocity":0.11811023622047244},{"duration":0.04651162790698038,"midi":83,"time":87.55813953488372,"velocity":0.1968503937007874},{"duration":0.04651162790698038,"midi":88,"time":87.55813953488372,"velocity":0.18110236220472442},{"duration":0.011627906976741542,"midi":45,"time":87.56976744186046,"velocity":0.5984251968503937},{"duration":0.05813953488372192,"midi":63,"time":87.56976744186046,"velocity":0.1889763779527559},{"duration":0.38372093023255616,"midi":75,"time":87.56976744186046,"velocity":0.5275590551181102},{"duration":0.011627906976741542,"midi":44,"time":87.5813953488372,"velocity":0.5984251968503937},{"duration":0.011627906976755753,"midi":43,"time":87.59302325581395,"velocity":0.5669291338582677},{"duration":0.023255813953497295,"midi":52,"time":87.59302325581395,"velocity":0.2677165354330709},{"duration":0.05813953488372192,"midi":56,"time":87.59302325581395,"velocity":0.4409448818897638},{"duration":0.06976744186047767,"midi":80,"time":87.59302325581395,"velocity":0.18110236220472442},{"duration":0.011627906976741542,"midi":42,"time":87.6046511627907,"velocity":0.5196850393700787},{"duration":0.12790697674418539,"midi":97,"time":87.6046511627907,"velocity":0.2440944881889764},{"duration":0.17441860465116577,"midi":86,"time":87.61627906976744,"velocity":0.3228346456692913},{"duration":0.03488372093023884,"midi":82,"time":87.62790697674419,"velocity":0.07874015748031496},{"duration":0.03488372093023884,"midi":85,"time":87.63953488372093,"velocity":0.12598425196850394},{"duration":0.04651162790698038,"midi":91,"time":87.63953488372093,"velocity":0.09448818897637795},{"duration":0.023255813953497295,"midi":37,"time":87.65116279069767,"velocity":0.3700787401574803},{"duration":0.034883720930224626,"midi":57,"time":87.66279069767442,"velocity":0.3937007874015748},{"duration":0.04651162790696617,"midi":81,"time":87.66279069767442,"velocity":0.33858267716535434},{"duration":0.023255813953483084,"midi":36,"time":87.67441860465117,"velocity":0.29133858267716534},{"duration":0.12790697674418539,"midi":63,"time":87.67441860465117,"velocity":0.25984251968503935},{"duration":0.023255813953483084,"midi":68,"time":87.67441860465117,"velocity":0.28346456692913385},{"duration":0.04651162790698038,"midi":70,"time":87.67441860465117,"velocity":0.4645669291338583},{"duration":0.09302325581394655,"midi":77,"time":87.67441860465117,"velocity":0.2992125984251969},{"duration":0.023255813953483084,"midi":85,"time":87.68604651162791,"velocity":0.2992125984251969},{"duration":0.04651162790698038,"midi":58,"time":87.69767441860465,"velocity":0.3700787401574803},{"duration":0.023255813953497295,"midi":78,"time":87.69767441860465,"velocity":0.2283464566929134},{"duration":0.023255813953497295,"midi":83,"time":87.69767441860465,"velocity":0.3858267716535433},{"duration":0.04651162790698038,"midi":102,"time":87.69767441860465,"velocity":0.07874015748031496},{"duration":0.023255813953483084,"midi":71,"time":87.72093023255815,"velocity":0.33858267716535434},{"duration":0.034883720930224626,"midi":82,"time":87.72093023255815,"velocity":0.2755905511811024},{"duration":0.1860465116279073,"midi":68,"time":87.73255813953489,"velocity":0.4409448818897638},{"duration":0.15116279069766847,"midi":72,"time":87.73255813953489,"velocity":0.5511811023622047},{"duration":0.04651162790698038,"midi":56,"time":87.75581395348837,"velocity":0.3700787401574803},{"duration":0.04651162790696617,"midi":82,"time":87.79069767441861,"velocity":0.2440944881889764},{"duration":0.04651162790696617,"midi":85,"time":87.79069767441861,"velocity":0.33070866141732286},{"duration":0.04651162790698038,"midi":90,"time":87.80232558139535,"velocity":0.10236220472440945},{"duration":0.13953488372092693,"midi":96,"time":87.80232558139535,"velocity":0.1732283464566929},{"duration":0.30232558139535115,"midi":102,"time":87.80232558139535,"velocity":0.31496062992125984},{"duration":0.023255813953483084,"midi":58,"time":87.81395348837209,"velocity":0.31496062992125984},{"duration":0.13953488372092693,"midi":81,"time":87.81395348837209,"velocity":0.28346456692913385},{"duration":0.16279069767442422,"midi":100,"time":87.81395348837209,"velocity":0.2283464566929134},{"duration":0.05813953488372192,"midi":88,"time":87.82558139534883,"velocity":0.2204724409448819},{"duration":0.16279069767442422,"midi":91,"time":87.82558139534883,"velocity":0.13385826771653545},{"duration":0.023255813953483084,"midi":66,"time":87.84883720930233,"velocity":0.29133858267716534},{"duration":0.13953488372092693,"midi":101,"time":87.84883720930233,"velocity":0.23622047244094488},{"duration":0.05813953488372192,"midi":46,"time":87.86046511627907,"velocity":0.30708661417322836},{"duration":0.023255813953483084,"midi":60,"time":87.86046511627907,"velocity":0.31496062992125984},{"duration":0.05813953488372192,"midi":65,"time":87.87209302325581,"velocity":0.28346456692913385},{"duration":0.06976744186046346,"midi":58,"time":87.88372093023256,"velocity":0.3779527559055118},{"duration":0.13953488372092693,"midi":70,"time":87.88372093023256,"velocity":0.4881889763779528},{"duration":0.04651162790698038,"midi":83,"time":87.88372093023256,"velocity":0.2677165354330709},{"duration":0.04651162790698038,"midi":72,"time":87.8953488372093,"velocity":0.2992125984251969},{"duration":0.08139534883721922,"midi":77,"time":87.8953488372093,"velocity":0.4094488188976378},{"duration":0.05813953488372192,"midi":86,"time":87.8953488372093,"velocity":0.23622047244094488},{"duration":0.05813953488372192,"midi":92,"time":87.8953488372093,"velocity":0.11811023622047244},{"duration":0.06976744186046346,"midi":64,"time":87.93023255813954,"velocity":0.30708661417322836},{"duration":0.04651162790698038,"midi":85,"time":87.93023255813954,"velocity":0.28346456692913385},{"duration":0.04651162790698038,"midi":74,"time":87.94186046511628,"velocity":0.2440944881889764},{"duration":0.04651162790698038,"midi":80,"time":87.94186046511628,"velocity":0.15748031496062992},{"duration":0.023255813953497295,"midi":57,"time":87.95348837209302,"velocity":0.3228346456692913},{"duration":0.03488372093023884,"midi":84,"time":87.95348837209302,"velocity":0.14173228346456693},{"duration":0.11627906976744384,"midi":51,"time":87.96511627906976,"velocity":0.33070866141732286},{"duration":0.05813953488372192,"midi":75,"time":87.96511627906976,"velocity":0.2204724409448819},{"duration":0.05813953488372192,"midi":86,"time":87.97674418604652,"velocity":0.25984251968503935},{"duration":0.12790697674418539,"midi":98,"time":87.97674418604652,"velocity":0.3228346456692913},{"duration":0.023255813953483084,"midi":45,"time":87.98837209302326,"velocity":0.3228346456692913},{"duration":0.081395348837205,"midi":77,"time":87.98837209302326,"velocity":0.2283464566929134},{"duration":0.03488372093023884,"midi":58,"time":88,"velocity":0.5039370078740157},{"duration":0.023255813953497295,"midi":44,"time":88.01162790697674,"velocity":0.2677165354330709},{"duration":0.03488372093023884,"midi":84,"time":88.01162790697674,"velocity":0.15748031496062992},{"duration":0.09302325581396076,"midi":92,"time":88.01162790697674,"velocity":0.18110236220472442},{"duration":0.023255813953497295,"midi":32,"time":88.02325581395348,"velocity":0.33070866141732286},{"duration":0.08139534883721922,"midi":72,"time":88.02325581395348,"velocity":0.36220472440944884},{"duration":0.03488372093023884,"midi":80,"time":88.02325581395348,"velocity":0.11023622047244094},{"duration":0.04651162790698038,"midi":85,"time":88.02325581395348,"velocity":0.2204724409448819},{"duration":0.011627906976741542,"midi":59,"time":88.03488372093024,"velocity":0.5118110236220472},{"duration":0.06976744186046346,"midi":88,"time":88.03488372093024,"velocity":0.2283464566929134},{"duration":0.023255813953483084,"midi":60,"time":88.04651162790698,"velocity":0.5118110236220472},{"duration":0.06976744186046346,"midi":68,"time":88.04651162790698,"velocity":0.2440944881889764},{"duration":0.2906976744185954,"midi":103,"time":88.04651162790698,"velocity":0.4094488188976378},{"duration":0.034883720930224626,"midi":32,"time":88.05813953488372,"velocity":0.28346456692913385},{"duration":0.06976744186046346,"midi":78,"time":88.05813953488372,"velocity":0.23622047244094488},{"duration":0.04651162790698038,"midi":86,"time":88.05813953488372,"velocity":0.2283464566929134},{"duration":0.034883720930224626,"midi":90,"time":88.05813953488372,"velocity":0.2440944881889764},{"duration":0.38372093023255616,"midi":91,"time":88.05813953488372,"velocity":0.47244094488188976},{"duration":0.034883720930224626,"midi":93,"time":88.05813953488372,"velocity":0.15748031496062992},{"duration":0.034883720930224626,"midi":95,"time":88.05813953488372,"velocity":0.2125984251968504},{"duration":0.24418604651162923,"midi":97,"time":88.05813953488372,"velocity":0.2440944881889764},{"duration":0.2093023255813904,"midi":101,"time":88.05813953488372,"velocity":0.1889763779527559},{"duration":0.011627906976741542,"midi":62,"time":88.06976744186046,"velocity":0.5118110236220472},{"duration":0.09302325581396076,"midi":81,"time":88.06976744186046,"velocity":0.4566929133858268},{"duration":0.05813953488372192,"midi":83,"time":88.06976744186046,"velocity":0.2440944881889764},{"duration":0.2674418604651123,"midi":94,"time":88.06976744186046,"velocity":0.2047244094488189},{"duration":0.023255813953497295,"midi":60,"time":88.0813953488372,"velocity":0.2677165354330709},{"duration":0.023255813953497295,"midi":63,"time":88.0813953488372,"velocity":0.4566929133858268},{"duration":0.09302325581396076,"midi":75,"time":88.0813953488372,"velocity":0.48031496062992124},{"duration":0.011627906976755753,"midi":46,"time":88.09302325581395,"velocity":0.5590551181102362},{"duration":0.023255813953497295,"midi":64,"time":88.09302325581395,"velocity":0.28346456692913385},{"duration":0.011627906976741542,"midi":45,"time":88.1046511627907,"velocity":0.5984251968503937},{"duration":0.04651162790696617,"midi":73,"time":88.1046511627907,"velocity":0.23622047244094488},{"duration":0.011627906976741542,"midi":43,"time":88.11627906976744,"velocity":0.5905511811023622},{"duration":0.023255813953483084,"midi":60,"time":88.11627906976744,"velocity":0.2283464566929134},{"duration":0.1046511627907023,"midi":70,"time":88.11627906976744,"velocity":0.29133858267716534},{"duration":0.011627906976741542,"midi":42,"time":88.12790697674419,"velocity":0.5590551181102362},{"duration":0.04651162790698038,"midi":92,"time":88.12790697674419,"velocity":0.12598425196850394},{"duration":0.03488372093023884,"midi":98,"time":88.12790697674419,"velocity":0.13385826771653545},{"duration":0.03488372093023884,"midi":100,"time":88.12790697674419,"velocity":0.08661417322834646},{"duration":0.011627906976741542,"midi":41,"time":88.13953488372093,"velocity":0.5196850393700787},{"duration":0.023255813953497295,"midi":64,"time":88.13953488372093,"velocity":0.25984251968503935},{"duration":0.023255813953497295,"midi":40,"time":88.15116279069767,"velocity":0.4645669291338583},{"duration":0.11627906976744384,"midi":77,"time":88.15116279069767,"velocity":0.1968503937007874},{"duration":0.023255813953483084,"midi":48,"time":88.16279069767442,"velocity":0.2440944881889764},{"duration":0.09302325581394655,"midi":63,"time":88.16279069767442,"velocity":0.3464566929133858},{"duration":0.034883720930224626,"midi":80,"time":88.16279069767442,"velocity":0.3937007874015748},{"duration":0.04651162790698038,"midi":53,"time":88.17441860465117,"velocity":0.2204724409448819},{"duration":0.034883720930224626,"midi":72,"time":88.17441860465117,"velocity":0.15748031496062992},{"duration":0.25581395348837077,"midi":75,"time":88.18604651162791,"velocity":0.5433070866141733},{"duration":0.13953488372092693,"midi":84,"time":88.18604651162791,"velocity":0.31496062992125984},{"duration":0.023255813953483084,"midi":85,"time":88.18604651162791,"velocity":0.25984251968503935},{"duration":0.081395348837205,"midi":100,"time":88.18604651162791,"velocity":0.2677165354330709},{"duration":0.03488372093023884,"midi":102,"time":88.18604651162791,"velocity":0.10236220472440945},{"duration":0.03488372093023884,"midi":81,"time":88.19767441860465,"velocity":0.29133858267716534},{"duration":0.06976744186046346,"midi":80,"time":88.20930232558139,"velocity":0.1968503937007874},{"duration":0.023255813953483084,"midi":59,"time":88.22093023255815,"velocity":0.25984251968503935},{"duration":0.24418604651162923,"midi":53,"time":88.23255813953489,"velocity":0.2992125984251969},{"duration":0.22093023255813193,"midi":65,"time":88.24418604651163,"velocity":0.4094488188976378},{"duration":0.2674418604651123,"midi":72,"time":88.24418604651163,"velocity":0.3700787401574803},{"duration":0.034883720930224626,"midi":88,"time":88.24418604651163,"velocity":0.10236220472440945},{"duration":0.06976744186046346,"midi":81,"time":88.25581395348837,"velocity":0.2755905511811024},{"duration":0.03488372093023884,"midi":102,"time":88.25581395348837,"velocity":0.10236220472440945},{"duration":0.03488372093023884,"midi":60,"time":88.27906976744185,"velocity":0.18110236220472442},{"duration":0.04651162790698038,"midi":80,"time":88.31395348837209,"velocity":0.28346456692913385},{"duration":0.06976744186046346,"midi":97,"time":88.31395348837209,"velocity":0.08661417322834646},{"duration":0.04651162790698038,"midi":78,"time":88.32558139534883,"velocity":0.2047244094488189},{"duration":0.04651162790698038,"midi":83,"time":88.32558139534883,"velocity":0.2125984251968504},{"duration":0.04651162790698038,"midi":86,"time":88.32558139534883,"velocity":0.2283464566929134},{"duration":0.06976744186047767,"midi":81,"time":88.33720930232558,"velocity":0.2283464566929134},{"duration":0.023255813953483084,"midi":41,"time":88.34883720930233,"velocity":0.3543307086614173},{"duration":0.023255813953483084,"midi":69,"time":88.34883720930233,"velocity":0.25196850393700787},{"duration":0.023255813953483084,"midi":48,"time":88.36046511627907,"velocity":0.31496062992125984},{"duration":0.023255813953483084,"midi":40,"time":88.37209302325581,"velocity":0.3937007874015748},{"duration":0.081395348837205,"midi":68,"time":88.38372093023256,"velocity":0.1968503937007874},{"duration":0.06976744186046346,"midi":80,"time":88.38372093023256,"velocity":0.2125984251968504},{"duration":0.05813953488372192,"midi":48,"time":88.3953488372093,"velocity":0.25984251968503935},{"duration":0.023255813953483084,"midi":41,"time":88.40697674418605,"velocity":0.2992125984251969},{"duration":0.034883720930224626,"midi":94,"time":88.40697674418605,"velocity":0.13385826771653545},{"duration":0.03488372093023884,"midi":30,"time":88.44186046511628,"velocity":0.2125984251968504},{"duration":0.081395348837205,"midi":79,"time":88.44186046511628,"velocity":0.1889763779527559},{"duration":0.2906976744186096,"midi":97,"time":88.44186046511628,"velocity":0.30708661417322836},{"duration":0.12790697674418539,"midi":100,"time":88.44186046511628,"velocity":0.2204724409448819},{"duration":0.5116279069767415,"midi":102,"time":88.44186046511628,"velocity":0.47244094488188976},{"duration":0.04651162790698038,"midi":82,"time":88.45348837209302,"velocity":0.23622047244094488},{"duration":0.03488372093023884,"midi":63,"time":88.46511627906976,"velocity":0.4881889763779528},{"duration":0.03488372093023884,"midi":80,"time":88.46511627906976,"velocity":0.11023622047244094},{"duration":0.03488372093023884,"midi":86,"time":88.46511627906976,"velocity":0.15748031496062992},{"duration":0.03488372093023884,"midi":90,"time":88.46511627906976,"velocity":0.15748031496062992},{"duration":0.04651162790698038,"midi":92,"time":88.46511627906976,"velocity":0.31496062992125984},{"duration":0.05813953488372192,"midi":101,"time":88.46511627906976,"velocity":0.16535433070866143},{"duration":0.11627906976744384,"midi":103,"time":88.46511627906976,"velocity":0.2677165354330709},{"duration":0.04651162790696617,"midi":88,"time":88.47674418604652,"velocity":0.10236220472440945},{"duration":0.09302325581394655,"midi":91,"time":88.47674418604652,"velocity":0.5354330708661418},{"duration":0.05813953488372192,"midi":98,"time":88.47674418604652,"velocity":0.2677165354330709},{"duration":0.023255813953483084,"midi":53,"time":88.48837209302326,"velocity":0.2440944881889764},{"duration":0.04651162790698038,"midi":69,"time":88.48837209302326,"velocity":0.36220472440944884},{"duration":0.023255813953483084,"midi":40,"time":88.5,"velocity":0.3228346456692913},{"duration":0.03488372093023884,"midi":83,"time":88.5,"velocity":0.14173228346456693},{"duration":0.09302325581394655,"midi":94,"time":88.5,"velocity":0.3228346456692913},{"duration":0.023255813953497295,"midi":71,"time":88.51162790697674,"velocity":0.30708661417322836},{"duration":0.1046511627907023,"midi":84,"time":88.51162790697674,"velocity":0.1889763779527559},{"duration":0.05813953488372192,"midi":53,"time":88.52325581395348,"velocity":0.23622047244094488},{"duration":0.30232558139535115,"midi":72,"time":88.52325581395348,"velocity":0.47244094488188976},{"duration":0.034883720930224626,"midi":63,"time":88.53488372093024,"velocity":0.3779527559055118},{"duration":0.034883720930224626,"midi":82,"time":88.53488372093024,"velocity":0.11811023622047244},{"duration":0.11627906976742963,"midi":101,"time":88.53488372093024,"velocity":0.2047244094488189},{"duration":0.034883720930224626,"midi":41,"time":88.54651162790698,"velocity":0.2440944881889764},{"duration":0.023255813953483084,"midi":57,"time":88.54651162790698,"velocity":0.2283464566929134},{"duration":0.023255813953483084,"midi":69,"time":88.54651162790698,"velocity":0.30708661417322836},{"duration":0.09302325581394655,"midi":77,"time":88.54651162790698,"velocity":0.14960629921259844},{"duration":0.081395348837205,"midi":96,"time":88.54651162790698,"velocity":0.4409448818897638},{"duration":0.04651162790698038,"midi":80,"time":88.55813953488372,"velocity":0.1732283464566929},{"duration":0.03488372093023884,"midi":30,"time":88.56976744186046,"velocity":0.1968503937007874},{"duration":0.03488372093023884,"midi":62,"time":88.56976744186046,"velocity":0.4015748031496063},{"duration":0.11627906976744384,"midi":90,"time":88.56976744186046,"velocity":0.4330708661417323},{"duration":0.03488372093023884,"midi":67,"time":88.5813953488372,"velocity":0.2992125984251969},{"duration":0.05813953488372192,"midi":91,"time":88.5813953488372,"velocity":0.1889763779527559},{"duration":0.03488372093023884,"midi":93,"time":88.5813953488372,"velocity":0.2047244094488189},{"duration":0.05813953488372192,"midi":95,"time":88.5813953488372,"velocity":0.14960629921259844},{"duration":0.04651162790698038,"midi":98,"time":88.5813953488372,"velocity":0.11811023622047244},{"duration":0.023255813953497295,"midi":69,"time":88.59302325581395,"velocity":0.25984251968503935},{"duration":0.06976744186047767,"midi":82,"time":88.59302325581395,"velocity":0.25196850393700787},{"duration":0.08139534883721922,"midi":89,"time":88.59302325581395,"velocity":0.2204724409448819},{"duration":0.023255813953483084,"midi":46,"time":88.6046511627907,"velocity":0.49606299212598426},{"duration":0.034883720930224626,"midi":88,"time":88.6046511627907,"velocity":0.18110236220472442},{"duration":0.034883720930224626,"midi":65,"time":88.61627906976744,"velocity":0.3228346456692913},{"duration":0.2674418604651123,"midi":68,"time":88.61627906976744,"velocity":0.4094488188976378},{"duration":0.05813953488372192,"midi":85,"time":88.61627906976744,"velocity":0.11811023622047244},{"duration":0.04651162790698038,"midi":103,"time":88.61627906976744,"velocity":0.31496062992125984},{"duration":0.011627906976741542,"midi":45,"time":88.62790697674419,"velocity":0.5905511811023622},{"duration":0.11627906976744384,"midi":75,"time":88.62790697674419,"velocity":0.47244094488188976},{"duration":0.011627906976741542,"midi":44,"time":88.63953488372093,"velocity":0.5826771653543307},{"duration":0.023255813953497295,"midi":51,"time":88.63953488372093,"velocity":0.31496062992125984},{"duration":0.09302325581396076,"midi":81,"time":88.63953488372093,"velocity":0.2204724409448819},{"duration":0.5697674418604635,"midi":99,"time":88.63953488372093,"velocity":0.4094488188976378},{"duration":0.011627906976755753,"midi":43,"time":88.65116279069767,"velocity":0.5590551181102362},{"duration":0.03488372093023884,"midi":64,"time":88.65116279069767,"velocity":0.4566929133858268},{"duration":0.04651162790698038,"midi":88,"time":88.65116279069767,"velocity":0.33858267716535434},{"duration":0.2674418604651265,"midi":91,"time":88.65116279069767,"velocity":0.29133858267716534},{"duration":0.03488372093023884,"midi":95,"time":88.65116279069767,"velocity":0.1968503937007874},{"duration":0.011627906976741542,"midi":42,"time":88.66279069767442,"velocity":0.5118110236220472},{"duration":0.023255813953483084,"midi":52,"time":88.66279069767442,"velocity":0.28346456692913385},{"duration":0.06976744186046346,"midi":83,"time":88.66279069767442,"velocity":0.2992125984251969},{"duration":0.15116279069766847,"midi":103,"time":88.67441860465117,"velocity":0.3937007874015748},{"duration":0.05813953488372192,"midi":63,"time":88.68604651162791,"velocity":0.3779527559055118},{"duration":0.023255813953483084,"midi":65,"time":88.68604651162791,"velocity":0.3937007874015748},{"duration":0.04651162790698038,"midi":92,"time":88.68604651162791,"velocity":0.14960629921259844},{"duration":0.12790697674418539,"midi":101,"time":88.69767441860465,"velocity":0.15748031496062992},{"duration":0.1046511627907023,"midi":82,"time":88.70930232558139,"velocity":0.2204724409448819},{"duration":0.081395348837205,"midi":90,"time":88.72093023255815,"velocity":0.2440944881889764},{"duration":0.023255813953483084,"midi":54,"time":88.73255813953489,"velocity":0.2440944881889764},{"duration":0.023255813953483084,"midi":65,"time":88.73255813953489,"velocity":0.3779527559055118},{"duration":0.034883720930224626,"midi":85,"time":88.73255813953489,"velocity":0.1732283464566929},{"duration":0.034883720930224626,"midi":93,"time":88.73255813953489,"velocity":0.14960629921259844},{"duration":0.09302325581394655,"midi":48,"time":88.74418604651163,"velocity":0.33070866141732286},{"duration":0.023255813953483084,"midi":81,"time":88.74418604651163,"velocity":0.23622047244094488},{"duration":0.023255813953483084,"midi":55,"time":88.75581395348837,"velocity":0.30708661417322836},{"duration":0.1046511627907023,"midi":75,"time":88.75581395348837,"velocity":0.3700787401574803},{"duration":0.05813953488372192,"midi":77,"time":88.75581395348837,"velocity":0.2204724409448819},{"duration":0.05813953488372192,"midi":65,"time":88.76744186046511,"velocity":0.44881889763779526},{"duration":0.16279069767442422,"midi":97,"time":88.76744186046511,"velocity":0.36220472440944884},{"duration":0.023255813953497295,"midi":60,"time":88.77906976744185,"velocity":0.36220472440944884},{"duration":0.06976744186046346,"midi":36,"time":88.79069767441861,"velocity":0.33858267716535434},{"duration":0.023255813953483084,"midi":63,"time":88.79069767441861,"velocity":0.33858267716535434},{"duration":0.023255813953483084,"midi":59,"time":88.81395348837209,"velocity":0.28346456692913385},{"duration":0.023255813953483084,"midi":62,"time":88.81395348837209,"velocity":0.3464566929133858},{"duration":0.05813953488372192,"midi":90,"time":88.81395348837209,"velocity":0.2125984251968504},{"duration":0.03488372093023884,"midi":82,"time":88.82558139534883,"velocity":0.13385826771653545},{"duration":0.17441860465116577,"midi":96,"time":88.82558139534883,"velocity":0.25984251968503935},{"duration":0.04651162790698038,"midi":63,"time":88.83720930232558,"velocity":0.3937007874015748},{"duration":0.7906976744186096,"midi":101,"time":88.83720930232558,"velocity":0.4015748031496063},{"duration":0.09302325581396076,"midi":103,"time":88.83720930232558,"velocity":0.3700787401574803},{"duration":0.023255813953483084,"midi":55,"time":88.84883720930233,"velocity":0.33070866141732286},{"duration":0.10465116279068809,"midi":83,"time":88.84883720930233,"velocity":0.2677165354330709},{"duration":0.034883720930224626,"midi":85,"time":88.84883720930233,"velocity":0.16535433070866143},{"duration":0.04651162790696617,"midi":88,"time":88.84883720930233,"velocity":0.1732283464566929},{"duration":0.32558139534883423,"midi":92,"time":88.84883720930233,"velocity":0.4015748031496063},{"duration":0.16279069767441,"midi":95,"time":88.84883720930233,"velocity":0.33070866141732286},{"duration":0.04651162790696617,"midi":98,"time":88.84883720930233,"velocity":0.10236220472440945},{"duration":0.081395348837205,"midi":70,"time":88.86046511627907,"velocity":0.29133858267716534},{"duration":0.034883720930224626,"midi":76,"time":88.86046511627907,"velocity":0.23622047244094488},{"duration":0.2906976744185954,"midi":89,"time":88.86046511627907,"velocity":0.4645669291338583},{"duration":0.023255813953483084,"midi":45,"time":88.87209302325581,"velocity":0.36220472440944884},{"duration":0.081395348837205,"midi":61,"time":88.87209302325581,"velocity":0.30708661417322836},{"duration":0.04651162790698038,"midi":74,"time":88.87209302325581,"velocity":0.5196850393700787},{"duration":0.04651162790698038,"midi":93,"time":88.87209302325581,"velocity":0.2440944881889764},{"duration":0.06976744186046346,"midi":58,"time":88.88372093023256,"velocity":0.3228346456692913},{"duration":0.023255813953497295,"midi":65,"time":88.88372093023256,"velocity":0.3464566929133858},{"duration":0.11627906976744384,"midi":46,"time":88.8953488372093,"velocity":0.29133858267716534},{"duration":0.023255813953497295,"midi":53,"time":88.8953488372093,"velocity":0.2677165354330709},{"duration":0.12790697674418539,"midi":68,"time":88.8953488372093,"velocity":0.28346456692913385},{"duration":0.38372093023255616,"midi":82,"time":88.8953488372093,"velocity":0.4330708661417323},{"duration":0.03488372093023884,"midi":84,"time":88.8953488372093,"velocity":0.18110236220472442},{"duration":0.2093023255814046,"midi":85,"time":88.8953488372093,"velocity":0.3779527559055118},{"duration":0.1046511627907023,"midi":87,"time":88.8953488372093,"velocity":0.16535433070866143},{"duration":0.08139534883721922,"midi":100,"time":88.8953488372093,"velocity":0.11023622047244094},{"duration":0.11627906976742963,"midi":98,"time":88.90697674418605,"velocity":0.11023622047244094},{"duration":0.22093023255813193,"midi":73,"time":88.9186046511628,"velocity":0.5196850393700787},{"duration":0.05813953488372192,"midi":75,"time":88.93023255813954,"velocity":0.25196850393700787},{"duration":0.12790697674418539,"midi":77,"time":88.93023255813954,"velocity":0.33858267716535434},{"duration":0.19767441860464885,"midi":80,"time":88.93023255813954,"velocity":0.44881889763779526},{"duration":0.04651162790698038,"midi":34,"time":88.94186046511628,"velocity":0.33070866141732286},{"duration":0.09302325581396076,"midi":65,"time":88.94186046511628,"velocity":0.33858267716535434},{"duration":0.04651162790698038,"midi":93,"time":88.94186046511628,"velocity":0.13385826771653545},{"duration":0.023255813953483084,"midi":103,"time":88.94186046511628,"velocity":0.29133858267716534},{"duration":0.023255813953497295,"midi":60,"time":88.95348837209302,"velocity":0.28346456692913385},{"duration":0.04651162790698038,"midi":70,"time":88.95348837209302,"velocity":0.1732283464566929},{"duration":0.023255813953497295,"midi":83,"time":88.96511627906976,"velocity":0.2992125984251969},{"duration":0.08139534883721922,"midi":102,"time":88.96511627906976,"velocity":0.3779527559055118},{"duration":0.13953488372092693,"midi":61,"time":88.97674418604652,"velocity":0.33858267716535434},{"duration":0.05813953488372192,"midi":84,"time":88.98837209302326,"velocity":0.30708661417322836},{"duration":0.03488372093023884,"midi":53,"time":89,"velocity":0.16535433070866143},{"duration":0.05813953488372192,"midi":70,"time":89.01162790697674,"velocity":0.1889763779527559},{"duration":0.11627906976744384,"midi":95,"time":89.02325581395348,"velocity":0.25196850393700787},{"duration":0.11627906976742963,"midi":93,"time":89.03488372093024,"velocity":0.28346456692913385},{"duration":0.04651162790696617,"midi":53,"time":89.04651162790698,"velocity":0.1968503937007874},{"duration":0.04651162790696617,"midi":68,"time":89.04651162790698,"velocity":0.1732283464566929},{"duration":0.034883720930224626,"midi":75,"time":89.04651162790698,"velocity":0.13385826771653545},{"duration":0.09302325581394655,"midi":103,"time":89.04651162790698,"velocity":0.41732283464566927},{"duration":0.05813953488372192,"midi":65,"time":89.05813953488372,"velocity":0.29133858267716534},{"duration":0.023255813953483084,"midi":78,"time":89.05813953488372,"velocity":0.2992125984251969},{"duration":0.04651162790696617,"midi":70,"time":89.1046511627907,"velocity":0.16535433070866143},{"duration":0.17441860465115155,"midi":84,"time":89.1046511627907,"velocity":0.47244094488188976},{"duration":0.3720930232558146,"midi":102,"time":89.1046511627907,"velocity":0.36220472440944884},{"duration":0.034883720930224626,"midi":81,"time":89.11627906976744,"velocity":0.2204724409448819},{"duration":0.034883720930224626,"midi":87,"time":89.11627906976744,"velocity":0.11023622047244094},{"duration":0.3488372093023173,"midi":91,"time":89.11627906976744,"velocity":0.3700787401574803},{"duration":0.43023255813953654,"midi":100,"time":89.11627906976744,"velocity":0.4094488188976378},{"duration":0.13953488372092693,"midi":61,"time":89.12790697674419,"velocity":0.2755905511811024},{"duration":0.04651162790698038,"midi":68,"time":89.12790697674419,"velocity":0.09448818897637795},{"duration":0.023255813953483084,"midi":72,"time":89.12790697674419,"velocity":0.36220472440944884},{"duration":0.1046511627907023,"midi":79,"time":89.12790697674419,"velocity":0.3543307086614173},{"duration":0.13953488372092693,"midi":98,"time":89.12790697674419,"velocity":0.16535433070866143},{"duration":0.17441860465116577,"midi":85,"time":89.13953488372093,"velocity":0.33858267716535434},{"duration":0.03488372093023884,"midi":86,"time":89.13953488372093,"velocity":0.08661417322834646},{"duration":0.15116279069768268,"midi":88,"time":89.13953488372093,"velocity":0.3228346456692913},{"duration":0.011627906976755753,"midi":45,"time":89.15116279069767,"velocity":0.5826771653543307},{"duration":0.04651162790698038,"midi":73,"time":89.15116279069767,"velocity":0.36220472440944884},{"duration":0.011627906976741542,"midi":44,"time":89.16279069767442,"velocity":0.6062992125984252},{"duration":0.05813953488372192,"midi":70,"time":89.16279069767442,"velocity":0.2677165354330709},{"duration":0.05813953488372192,"midi":75,"time":89.16279069767442,"velocity":0.11811023622047244},{"duration":0.05813953488372192,"midi":81,"time":89.16279069767442,"velocity":0.18110236220472442},{"duration":0.05813953488372192,"midi":93,"time":89.16279069767442,"velocity":0.2047244094488189},{"duration":0.011627906976741542,"midi":43,"time":89.17441860465117,"velocity":0.5748031496062992},{"duration":0.30232558139535115,"midi":89,"time":89.17441860465117,"velocity":0.44881889763779526},{"duration":0.011627906976741542,"midi":42,"time":89.18604651162791,"velocity":0.5433070866141733},{"duration":0.081395348837205,"midi":78,"time":89.18604651162791,"velocity":0.31496062992125984},{"duration":0.06976744186046346,"midi":66,"time":89.19767441860465,"velocity":0.2204724409448819},{"duration":0.06976744186046346,"midi":72,"time":89.19767441860465,"velocity":0.4330708661417323},{"duration":0.023255813953483084,"midi":37,"time":89.23255813953489,"velocity":0.36220472440944884},{"duration":0.06976744186046346,"midi":80,"time":89.23255813953489,"velocity":0.2440944881889764},{"duration":0.17441860465116577,"midi":93,"time":89.24418604651163,"velocity":0.1732283464566929},{"duration":0.03488372093023884,"midi":36,"time":89.25581395348837,"velocity":0.2755905511811024},{"duration":0.081395348837205,"midi":73,"time":89.25581395348837,"velocity":0.3858267716535433},{"duration":0.06976744186046346,"midi":86,"time":89.25581395348837,"velocity":0.3228346456692913},{"duration":0.15116279069768268,"midi":99,"time":89.25581395348837,"velocity":0.3937007874015748},{"duration":0.16279069767442422,"midi":77,"time":89.26744186046511,"velocity":0.4330708661417323},{"duration":0.023255813953497295,"midi":83,"time":89.26744186046511,"velocity":0.4251968503937008},{"duration":0.023255813953497295,"midi":90,"time":89.26744186046511,"velocity":0.2992125984251969},{"duration":0.34883720930233153,"midi":70,"time":89.27906976744185,"velocity":0.4566929133858268},{"duration":0.023255813953483084,"midi":58,"time":89.29069767441861,"velocity":0.2677165354330709},{"duration":0.04651162790698038,"midi":83,"time":89.30232558139535,"velocity":0.30708661417322836},{"duration":0.023255813953483084,"midi":64,"time":89.31395348837209,"velocity":0.2283464566929134},{"duration":0.04651162790698038,"midi":81,"time":89.31395348837209,"velocity":0.3464566929133858},{"duration":0.09302325581396076,"midi":94,"time":89.31395348837209,"velocity":0.12598425196850394},{"duration":0.08139534883721922,"midi":58,"time":89.32558139534883,"velocity":0.3858267716535433},{"duration":0.08139534883721922,"midi":79,"time":89.32558139534883,"velocity":0.2204724409448819},{"duration":0.08139534883721922,"midi":92,"time":89.32558139534883,"velocity":0.12598425196850394},{"duration":0.08139534883721922,"midi":53,"time":89.33720930232558,"velocity":0.3228346456692913},{"duration":0.06976744186047767,"midi":86,"time":89.33720930232558,"velocity":0.3858267716535433},{"duration":0.1046511627907023,"midi":88,"time":89.33720930232558,"velocity":0.25984251968503935},{"duration":0.034883720930224626,"midi":84,"time":89.36046511627907,"velocity":0.2440944881889764},{"duration":0.04651162790698038,"midi":81,"time":89.37209302325581,"velocity":0.2283464566929134},{"duration":0.023255813953497295,"midi":61,"time":89.38372093023256,"velocity":0.23622047244094488},{"duration":0.04651162790698038,"midi":83,"time":89.38372093023256,"velocity":0.2755905511811024},{"duration":0.05813953488372192,"midi":85,"time":89.3953488372093,"velocity":0.36220472440944884},{"duration":0.023255813953483084,"midi":45,"time":89.40697674418605,"velocity":0.36220472440944884},{"duration":0.023255813953483084,"midi":57,"time":89.40697674418605,"velocity":0.3937007874015748},{"duration":0.3953488372092977,"midi":65,"time":89.40697674418605,"velocity":0.4645669291338583},{"duration":0.034883720930224626,"midi":76,"time":89.40697674418605,"velocity":0.2755905511811024},{"duration":0.04651162790696617,"midi":80,"time":89.40697674418605,"velocity":0.13385826771653545},{"duration":0.034883720930224626,"midi":72,"time":89.4186046511628,"velocity":0.33070866141732286},{"duration":0.04651162790698038,"midi":46,"time":89.43023255813954,"velocity":0.2755905511811024},{"duration":0.22093023255813193,"midi":53,"time":89.43023255813954,"velocity":0.36220472440944884},{"duration":0.04651162790698038,"midi":58,"time":89.43023255813954,"velocity":0.3779527559055118},{"duration":0.24418604651162923,"midi":86,"time":89.43023255813954,"velocity":0.2992125984251969},{"duration":0.19767441860464885,"midi":73,"time":89.44186046511628,"velocity":0.3779527559055118},{"duration":0.023255813953497295,"midi":35,"time":89.45348837209302,"velocity":0.3228346456692913},{"duration":0.04651162790698038,"midi":99,"time":89.45348837209302,"velocity":0.10236220472440945},{"duration":0.06976744186047767,"midi":83,"time":89.46511627906976,"velocity":0.2283464566929134},{"duration":0.09302325581396076,"midi":93,"time":89.46511627906976,"velocity":0.14173228346456693},{"duration":0.04651162790696617,"midi":34,"time":89.47674418604652,"velocity":0.31496062992125984},{"duration":0.023255813953483084,"midi":59,"time":89.47674418604652,"velocity":0.2283464566929134},{"duration":0.09302325581394655,"midi":68,"time":89.48837209302326,"velocity":0.25196850393700787},{"duration":0.06976744186046346,"midi":88,"time":89.48837209302326,"velocity":0.2283464566929134},{"duration":0.04651162790698038,"midi":58,"time":89.5,"velocity":0.2755905511811024},{"duration":0.05813953488372192,"midi":76,"time":89.51162790697674,"velocity":0.2440944881889764},{"duration":0.03488372093023884,"midi":91,"time":89.51162790697674,"velocity":0.18110236220472442},{"duration":0.12790697674418539,"midi":84,"time":89.53488372093024,"velocity":0.1968503937007874},{"duration":0.023255813953483084,"midi":62,"time":89.54651162790698,"velocity":0.25984251968503935},{"duration":0.04651162790698038,"midi":46,"time":89.55813953488372,"velocity":0.2755905511811024},{"duration":0.034883720930224626,"midi":79,"time":89.55813953488372,"velocity":0.10236220472440945},{"duration":0.05813953488372192,"midi":34,"time":89.59302325581395,"velocity":0.3228346456692913},{"duration":0.034883720930224626,"midi":58,"time":89.6046511627907,"velocity":0.2992125984251969},{"duration":0.16279069767441,"midi":89,"time":89.61627906976744,"velocity":0.28346456692913385},{"duration":0.023255813953483084,"midi":72,"time":89.62790697674419,"velocity":0.25984251968503935},{"duration":0.023255813953497295,"midi":61,"time":89.63953488372093,"velocity":0.4094488188976378},{"duration":0.05813953488372192,"midi":82,"time":89.63953488372093,"velocity":0.1889763779527559},{"duration":0.03488372093023884,"midi":95,"time":89.63953488372093,"velocity":0.2047244094488189},{"duration":0.06976744186046346,"midi":96,"time":89.63953488372093,"velocity":0.2204724409448819},{"duration":0.7209302325581461,"midi":102,"time":89.63953488372093,"velocity":0.3779527559055118},{"duration":0.03488372093023884,"midi":78,"time":89.65116279069767,"velocity":0.12598425196850394},{"duration":0.05813953488372192,"midi":88,"time":89.65116279069767,"velocity":0.3228346456692913},{"duration":0.1046511627907023,"midi":91,"time":89.65116279069767,"velocity":0.2992125984251969},{"duration":0.03488372093023884,"midi":93,"time":89.65116279069767,"velocity":0.15748031496062992},{"duration":0.04651162790698038,"midi":97,"time":89.65116279069767,"velocity":0.14960629921259844},{"duration":0.1860465116279073,"midi":99,"time":89.65116279069767,"velocity":0.25984251968503935},{"duration":0.011627906976741542,"midi":53,"time":89.66279069767442,"velocity":0.5275590551181102},{"duration":0.05813953488372192,"midi":62,"time":89.66279069767442,"velocity":0.31496062992125984},{"duration":0.10465116279068809,"midi":68,"time":89.66279069767442,"velocity":0.3543307086614173},{"duration":0.081395348837205,"midi":85,"time":89.66279069767442,"velocity":0.16535433070866143},{"duration":0.17441860465115155,"midi":92,"time":89.66279069767442,"velocity":0.25196850393700787},{"duration":0.011627906976741542,"midi":47,"time":89.67441860465117,"velocity":0.5354330708661418},{"duration":0.081395348837205,"midi":90,"time":89.67441860465117,"velocity":0.29133858267716534},{"duration":0.011627906976741542,"midi":45,"time":89.68604651162791,"velocity":0.6141732283464567},{"duration":0.13953488372092693,"midi":70,"time":89.68604651162791,"velocity":0.3228346456692913},{"duration":0.023255813953483084,"midi":75,"time":89.68604651162791,"velocity":0.25196850393700787},{"duration":0.081395348837205,"midi":84,"time":89.68604651162791,"velocity":0.18110236220472442},{"duration":0.03488372093023884,"midi":95,"time":89.68604651162791,"velocity":0.09448818897637795},{"duration":0.011627906976741542,"midi":44,"time":89.69767441860465,"velocity":0.6062992125984252},{"duration":0.023255813953497295,"midi":42,"time":89.70930232558139,"velocity":0.5511811023622047},{"duration":0.023255813953497295,"midi":56,"time":89.70930232558139,"velocity":0.41732283464566927},{"duration":0.023255813953497295,"midi":76,"time":89.70930232558139,"velocity":0.3700787401574803},{"duration":0.05813953488372192,"midi":87,"time":89.70930232558139,"velocity":0.14960629921259844},{"duration":0.13953488372092693,"midi":73,"time":89.72093023255815,"velocity":0.3228346456692913},{"duration":0.06976744186046346,"midi":75,"time":89.73255813953489,"velocity":0.4330708661417323},{"duration":0.04651162790698038,"midi":86,"time":89.74418604651163,"velocity":0.16535433070866143},{"duration":0.04651162790698038,"midi":37,"time":89.75581395348837,"velocity":0.41732283464566927},{"duration":0.023255813953497295,"midi":55,"time":89.76744186046511,"velocity":0.3464566929133858},{"duration":0.03488372093023884,"midi":90,"time":89.76744186046511,"velocity":0.2204724409448819},{"duration":0.06976744186046346,"midi":91,"time":89.76744186046511,"velocity":0.1889763779527559},{"duration":0.03488372093023884,"midi":81,"time":89.77906976744185,"velocity":0.29133858267716534},{"duration":0.04651162790698038,"midi":84,"time":89.77906976744185,"velocity":0.15748031496062992},{"duration":0.1860465116279073,"midi":89,"time":89.79069767441861,"velocity":0.1968503937007874},{"duration":0.06976744186046346,"midi":77,"time":89.80232558139535,"velocity":0.2755905511811024},{"duration":0.12790697674418539,"midi":86,"time":89.80232558139535,"velocity":0.3858267716535433},{"duration":0.27906976744185386,"midi":100,"time":89.80232558139535,"velocity":0.25196850393700787},{"duration":0.023255813953483084,"midi":40,"time":89.81395348837209,"velocity":0.25984251968503935},{"duration":0.05813953488372192,"midi":48,"time":89.81395348837209,"velocity":0.33858267716535434},{"duration":0.023255813953483084,"midi":58,"time":89.81395348837209,"velocity":0.33858267716535434},{"duration":0.081395348837205,"midi":75,"time":89.81395348837209,"velocity":0.2440944881889764},{"duration":0.03488372093023884,"midi":80,"time":89.81395348837209,"velocity":0.2047244094488189},{"duration":0.04651162790698038,"midi":64,"time":89.82558139534883,"velocity":0.28346456692913385},{"duration":0.023255813953497295,"midi":83,"time":89.82558139534883,"velocity":0.3228346456692913},{"duration":0.05813953488372192,"midi":96,"time":89.82558139534883,"velocity":0.2204724409448819},{"duration":0.17441860465116577,"midi":70,"time":89.83720930232558,"velocity":0.5118110236220472},{"duration":0.023255813953497295,"midi":87,"time":89.83720930232558,"velocity":0.36220472440944884},{"duration":0.081395348837205,"midi":36,"time":89.84883720930233,"velocity":0.3700787401574803},{"duration":0.023255813953483084,"midi":55,"time":89.84883720930233,"velocity":0.28346456692913385},{"duration":0.05813953488372192,"midi":90,"time":89.84883720930233,"velocity":0.16535433070866143},{"duration":0.023255813953483084,"midi":66,"time":89.87209302325581,"velocity":0.3464566929133858},{"duration":0.03488372093023884,"midi":68,"time":89.87209302325581,"velocity":0.2992125984251969},{"duration":0.06976744186046346,"midi":91,"time":89.87209302325581,"velocity":0.10236220472440945},{"duration":0.023255813953497295,"midi":53,"time":89.88372093023256,"velocity":0.31496062992125984},{"duration":0.1046511627907023,"midi":73,"time":89.88372093023256,"velocity":0.5590551181102362},{"duration":0.06976744186046346,"midi":77,"time":89.88372093023256,"velocity":0.2204724409448819},{"duration":0.03488372093023884,"midi":61,"time":89.8953488372093,"velocity":0.25196850393700787},{"duration":0.023255813953483084,"midi":56,"time":89.90697674418605,"velocity":0.30708661417322836},{"duration":0.05813953488370771,"midi":75,"time":89.90697674418605,"velocity":0.16535433070866143},{"duration":0.034883720930224626,"midi":80,"time":89.90697674418605,"velocity":0.13385826771653545},{"duration":0.081395348837205,"midi":84,"time":89.9186046511628,"velocity":0.4251968503937008},{"duration":0.034883720930224626,"midi":88,"time":89.9186046511628,"velocity":0.2440944881889764},{"duration":0.081395348837205,"midi":94,"time":89.9186046511628,"velocity":0.2125984251968504},{"duration":0.05813953488372192,"midi":97,"time":89.9186046511628,"velocity":0.2992125984251969},{"duration":0.05813953488372192,"midi":55,"time":89.93023255813954,"velocity":0.29133858267716534},{"duration":0.023255813953483084,"midi":60,"time":89.93023255813954,"velocity":0.33070866141732286},{"duration":0.06976744186046346,"midi":65,"time":89.93023255813954,"velocity":0.2677165354330709},{"duration":0.034883720930224626,"midi":90,"time":89.93023255813954,"velocity":0.15748031496062992},{"duration":0.034883720930224626,"midi":92,"time":89.93023255813954,"velocity":0.13385826771653545},{"duration":0.25581395348837077,"midi":99,"time":89.93023255813954,"velocity":0.41732283464566927},{"duration":0.03488372093023884,"midi":61,"time":89.95348837209302,"velocity":0.2992125984251969},{"duration":0.04651162790698038,"midi":80,"time":89.95348837209302,"velocity":0.2677165354330709},{"duration":0.2093023255814046,"midi":101,"time":89.96511627906976,"velocity":0.31496062992125984},{"duration":0.04651162790696617,"midi":88,"time":89.97674418604652,"velocity":0.1889763779527559},{"duration":0.04651162790698038,"midi":72,"time":89.98837209302326,"velocity":0.5275590551181102},{"duration":0.05813953488372192,"midi":87,"time":89.98837209302326,"velocity":0.2047244094488189},{"duration":0.081395348837205,"midi":97,"time":89.98837209302326,"velocity":0.15748031496062992},{"duration":0.03488372093023884,"midi":68,"time":90,"velocity":0.2992125984251969},{"duration":0.03488372093023884,"midi":83,"time":90,"velocity":0.2992125984251969},{"duration":0.06976744186046346,"midi":65,"time":90.01162790697674,"velocity":0.2992125984251969},{"duration":0.023255813953497295,"midi":71,"time":90.01162790697674,"velocity":0.33070866141732286},{"duration":0.04651162790698038,"midi":85,"time":90.01162790697674,"velocity":0.2047244094488189},{"duration":0.17441860465116577,"midi":89,"time":90.01162790697674,"velocity":0.23622047244094488},{"duration":0.15116279069768268,"midi":82,"time":90.02325581395348,"velocity":0.3779527559055118},{"duration":0.13953488372094114,"midi":86,"time":90.02325581395348,"velocity":0.3779527559055118},{"duration":0.10465116279068809,"midi":70,"time":90.03488372093024,"velocity":0.47244094488188976},{"duration":0.023255813953483084,"midi":73,"time":90.03488372093024,"velocity":0.23622047244094488},{"duration":0.11627906976742963,"midi":77,"time":90.03488372093024,"velocity":0.2992125984251969},{"duration":0.06976744186046346,"midi":91,"time":90.03488372093024,"velocity":0.1968503937007874},{"duration":0.05813953488372192,"midi":80,"time":90.04651162790698,"velocity":0.13385826771653545},{"duration":0.04651162790696617,"midi":88,"time":90.04651162790698,"velocity":0.2204724409448819},{"duration":0.034883720930224626,"midi":72,"time":90.05813953488372,"velocity":0.16535433070866143},{"duration":0.034883720930224626,"midi":74,"time":90.05813953488372,"velocity":0.18110236220472442},{"duration":0.04651162790698038,"midi":76,"time":90.05813953488372,"velocity":0.2204724409448819},{"duration":0.05813953488372192,"midi":83,"time":90.05813953488372,"velocity":0.16535433070866143},{"duration":0.023255813953483084,"midi":45,"time":90.06976744186046,"velocity":0.3700787401574803},{"duration":0.05813953488372192,"midi":53,"time":90.06976744186046,"velocity":0.2677165354330709},{"duration":0.023255813953483084,"midi":58,"time":90.06976744186046,"velocity":0.29133858267716534},{"duration":0.03488372093023884,"midi":62,"time":90.06976744186046,"velocity":0.14960629921259844},{"duration":0.03488372093023884,"midi":79,"time":90.06976744186046,"velocity":0.18110236220472442},{"duration":0.05813953488372192,"midi":46,"time":90.09302325581395,"velocity":0.28346456692913385},{"duration":0.023255813953497295,"midi":59,"time":90.09302325581395,"velocity":0.2755905511811024},{"duration":0.09302325581396076,"midi":73,"time":90.09302325581395,"velocity":0.3464566929133858},{"duration":0.023255813953483084,"midi":66,"time":90.1046511627907,"velocity":0.23622047244094488},{"duration":0.06976744186046346,"midi":58,"time":90.11627906976744,"velocity":0.4645669291338583},{"duration":0.7325581395348877,"midi":97,"time":90.11627906976744,"velocity":0.2992125984251969},{"duration":0.06976744186046346,"midi":34,"time":90.12790697674419,"velocity":0.2992125984251969},{"duration":0.04651162790698038,"midi":80,"time":90.12790697674419,"velocity":0.11023622047244094},{"duration":0.03488372093023884,"midi":65,"time":90.13953488372093,"velocity":0.18110236220472442},{"duration":0.08139534883721922,"midi":91,"time":90.13953488372093,"velocity":0.25984251968503935},{"duration":0.16279069767442422,"midi":95,"time":90.13953488372093,"velocity":0.2125984251968504},{"duration":0.034883720930224626,"midi":81,"time":90.16279069767442,"velocity":0.2283464566929134},{"duration":0.04651162790696617,"midi":90,"time":90.16279069767442,"velocity":0.2125984251968504},{"duration":0.2674418604651123,"midi":92,"time":90.16279069767442,"velocity":0.2283464566929134},{"duration":0.04651162790696617,"midi":100,"time":90.16279069767442,"velocity":0.15748031496062992},{"duration":0.023255813953483084,"midi":77,"time":90.17441860465117,"velocity":0.2283464566929134},{"duration":0.034883720930224626,"midi":83,"time":90.17441860465117,"velocity":0.25984251968503935},{"duration":0.15116279069766847,"midi":96,"time":90.17441860465117,"velocity":0.2125984251968504},{"duration":0.023255813953483084,"midi":60,"time":90.18604651162791,"velocity":0.49606299212598426},{"duration":0.7209302325581461,"midi":101,"time":90.18604651162791,"velocity":0.4409448818897638},{"duration":0.011627906976741542,"midi":48,"time":90.19767441860465,"velocity":0.5196850393700787},{"duration":0.04651162790698038,"midi":69,"time":90.19767441860465,"velocity":0.2204724409448819},{"duration":0.24418604651162923,"midi":78,"time":90.19767441860465,"velocity":0.1968503937007874},{"duration":0.1046511627907023,"midi":89,"time":90.19767441860465,"velocity":0.2992125984251969},{"duration":0.011627906976755753,"midi":45,"time":90.20930232558139,"velocity":0.6062992125984252},{"duration":0.1046511627907023,"midi":61,"time":90.20930232558139,"velocity":0.3464566929133858},{"duration":0.22093023255814614,"midi":65,"time":90.20930232558139,"velocity":0.33858267716535434},{"duration":0.3139534883720927,"midi":82,"time":90.20930232558139,"velocity":0.2755905511811024},{"duration":0.023255813953483084,"midi":44,"time":90.22093023255815,"velocity":0.6299212598425197},{"duration":0.023255813953483084,"midi":74,"time":90.22093023255815,"velocity":0.44881889763779526},{"duration":0.05813953488370771,"midi":81,"time":90.22093023255815,"velocity":0.4015748031496063},{"duration":0.023255813953483084,"midi":100,"time":90.22093023255815,"velocity":0.2440944881889764},{"duration":0.09302325581394655,"midi":103,"time":90.22093023255815,"velocity":0.25196850393700787},{"duration":0.12790697674418539,"midi":70,"time":90.23255813953489,"velocity":0.3228346456692913},{"duration":0.023255813953483084,"midi":42,"time":90.24418604651163,"velocity":0.4881889763779528},{"duration":0.04651162790698038,"midi":73,"time":90.24418604651163,"velocity":0.47244094488188976},{"duration":0.2093023255813904,"midi":99,"time":90.24418604651163,"velocity":0.33070866141732286},{"duration":0.2093023255813904,"midi":85,"time":90.25581395348837,"velocity":0.47244094488188976},{"duration":0.09302325581396076,"midi":80,"time":90.27906976744185,"velocity":0.36220472440944884},{"duration":0.04651162790698038,"midi":88,"time":90.27906976744185,"velocity":0.30708661417322836},{"duration":0.05813953488372192,"midi":91,"time":90.27906976744185,"velocity":0.11811023622047244},{"duration":0.06976744186047767,"midi":100,"time":90.27906976744185,"velocity":0.3228346456692913},{"duration":0.023255813953483084,"midi":35,"time":90.29069767441861,"velocity":0.3464566929133858},{"duration":0.04651162790696617,"midi":72,"time":90.29069767441861,"velocity":0.5039370078740157},{"duration":0.05813953488372192,"midi":93,"time":90.29069767441861,"velocity":0.07874015748031496},{"duration":0.03488372093023884,"midi":37,"time":90.31395348837209,"velocity":0.3464566929133858},{"duration":0.11627906976744384,"midi":89,"time":90.32558139534883,"velocity":0.33858267716535434},{"duration":0.16279069767442422,"midi":95,"time":90.32558139534883,"velocity":0.18110236220472442},{"duration":0.04651162790698038,"midi":58,"time":90.33720930232558,"velocity":0.33858267716535434},{"duration":0.04651162790698038,"midi":68,"time":90.33720930232558,"velocity":0.14173228346456693},{"duration":0.06976744186047767,"midi":73,"time":90.33720930232558,"velocity":0.5275590551181102},{"duration":0.081395348837205,"midi":61,"time":90.34883720930233,"velocity":0.3464566929133858},{"duration":0.034883720930224626,"midi":81,"time":90.36046511627907,"velocity":0.4251968503937008},{"duration":0.05813953488372192,"midi":96,"time":90.36046511627907,"velocity":0.10236220472440945},{"duration":0.05813953488372192,"midi":103,"time":90.36046511627907,"velocity":0.25984251968503935},{"duration":0.023255813953483084,"midi":100,"time":90.37209302325581,"velocity":0.2992125984251969},{"duration":0.06976744186046346,"midi":80,"time":90.3953488372093,"velocity":0.4645669291338583},{"duration":0.16279069767442422,"midi":102,"time":90.3953488372093,"velocity":0.44881889763779526},{"duration":0.023255813953483084,"midi":74,"time":90.40697674418605,"velocity":0.2677165354330709},{"duration":0.04651162790696617,"midi":93,"time":90.4186046511628,"velocity":0.09448818897637795},{"duration":0.11627906976744384,"midi":100,"time":90.4186046511628,"velocity":0.33070866141732286},{"duration":0.023255813953483084,"midi":73,"time":90.43023255813954,"velocity":0.4645669291338583},{"duration":0.5465116279069804,"midi":77,"time":90.43023255813954,"velocity":0.3464566929133858},{"duration":0.06976744186046346,"midi":91,"time":90.43023255813954,"velocity":0.2204724409448819},{"duration":0.04651162790698038,"midi":61,"time":90.44186046511628,"velocity":0.2440944881889764},{"duration":0.023255813953483084,"midi":65,"time":90.44186046511628,"velocity":0.28346456692913385},{"duration":0.05813953488372192,"midi":88,"time":90.44186046511628,"velocity":0.3937007874015748},{"duration":0.05813953488372192,"midi":96,"time":90.44186046511628,"velocity":0.14960629921259844},{"duration":0.04651162790698038,"midi":72,"time":90.45348837209302,"velocity":0.5275590551181102},{"duration":0.03488372093023884,"midi":79,"time":90.45348837209302,"velocity":0.30708661417322836},{"duration":0.03488372093023884,"midi":98,"time":90.45348837209302,"velocity":0.13385826771653545},{"duration":0.04651162790698038,"midi":69,"time":90.46511627906976,"velocity":0.2125984251968504},{"duration":0.023255813953497295,"midi":81,"time":90.46511627906976,"velocity":0.2755905511811024},{"duration":0.034883720930224626,"midi":65,"time":90.47674418604652,"velocity":0.33070866141732286},{"duration":0.2325581395348877,"midi":80,"time":90.48837209302326,"velocity":0.4566929133858268},{"duration":0.09302325581394655,"midi":70,"time":90.5,"velocity":0.25984251968503935},{"duration":0.19767441860464885,"midi":85,"time":90.5,"velocity":0.5196850393700787},{"duration":0.1046511627907023,"midi":99,"time":90.5,"velocity":0.2677165354330709},{"duration":0.05813953488372192,"midi":66,"time":90.51162790697674,"velocity":0.3858267716535433},{"duration":0.04651162790698038,"midi":72,"time":90.51162790697674,"velocity":0.41732283464566927},{"duration":0.081395348837205,"midi":95,"time":90.51162790697674,"velocity":0.2125984251968504},{"duration":0.081395348837205,"midi":93,"time":90.53488372093024,"velocity":0.12598425196850394},{"duration":0.04651162790696617,"midi":103,"time":90.53488372093024,"velocity":0.1968503937007874},{"duration":0.06976744186046346,"midi":73,"time":90.54651162790698,"velocity":0.4094488188976378},{"duration":0.05813953488372192,"midi":61,"time":90.55813953488372,"velocity":0.2755905511811024},{"duration":0.03488372093023884,"midi":65,"time":90.56976744186046,"velocity":0.28346456692913385},{"duration":0.24418604651162923,"midi":102,"time":90.5813953488372,"velocity":0.31496062992125984},{"duration":0.023255813953497295,"midi":57,"time":90.59302325581395,"velocity":0.2283464566929134},{"duration":0.04651162790698038,"midi":69,"time":90.59302325581395,"velocity":0.2440944881889764},{"duration":0.023255813953483084,"midi":38,"time":90.6046511627907,"velocity":0.3228346456692913},{"duration":0.023255813953483084,"midi":72,"time":90.6046511627907,"velocity":0.47244094488188976},{"duration":0.081395348837205,"midi":65,"time":90.61627906976744,"velocity":0.3464566929133858},{"duration":0.034883720930224626,"midi":88,"time":90.61627906976744,"velocity":0.29133858267716534},{"duration":0.05813953488372192,"midi":73,"time":90.62790697674419,"velocity":0.5039370078740157},{"duration":0.03488372093023884,"midi":58,"time":90.63953488372093,"velocity":0.1968503937007874},{"duration":0.2325581395348877,"midi":99,"time":90.63953488372093,"velocity":0.28346456692913385},{"duration":0.05813953488372192,"midi":103,"time":90.63953488372093,"velocity":0.28346456692913385},{"duration":0.03488372093023884,"midi":61,"time":90.65116279069767,"velocity":0.29133858267716534},{"duration":0.08139534883721922,"midi":70,"time":90.65116279069767,"velocity":0.23622047244094488},{"duration":0.13953488372094114,"midi":95,"time":90.65116279069767,"velocity":0.1732283464566929},{"duration":0.05813953488372192,"midi":86,"time":90.67441860465117,"velocity":0.31496062992125984},{"duration":0.04651162790698038,"midi":62,"time":90.68604651162791,"velocity":0.5354330708661418},{"duration":0.023255813953483084,"midi":72,"time":90.68604651162791,"velocity":0.31496062992125984},{"duration":0.1046511627907023,"midi":100,"time":90.68604651162791,"velocity":0.25984251968503935},{"duration":0.023255813953497295,"midi":55,"time":90.69767441860465,"velocity":0.4330708661417323},{"duration":0.06976744186046346,"midi":90,"time":90.69767441860465,"velocity":0.2992125984251969},{"duration":0.22093023255814614,"midi":73,"time":90.70930232558139,"velocity":0.36220472440944884},{"duration":0.05813953488372192,"midi":93,"time":90.70930232558139,"velocity":0.08661417322834646},{"duration":0.09302325581396076,"midi":94,"time":90.70930232558139,"velocity":0.1889763779527559},{"duration":0.034883720930224626,"midi":45,"time":90.72093023255815,"velocity":0.5826771653543307},{"duration":0.19767441860464885,"midi":82,"time":90.72093023255815,"velocity":0.36220472440944884},{"duration":0.04651162790696617,"midi":83,"time":90.72093023255815,"velocity":0.12598425196850394},{"duration":0.034883720930224626,"midi":88,"time":90.72093023255815,"velocity":0.14960629921259844},{"duration":0.13953488372092693,"midi":91,"time":90.72093023255815,"velocity":0.25196850393700787},{"duration":0.1860465116279073,"midi":103,"time":90.72093023255815,"velocity":0.3858267716535433},{"duration":0.12790697674418539,"midi":63,"time":90.73255813953489,"velocity":0.44881889763779526},{"duration":0.24418604651162923,"midi":75,"time":90.73255813953489,"velocity":0.4645669291338583},{"duration":0.011627906976741542,"midi":44,"time":90.75581395348837,"velocity":0.5669291338582677},{"duration":0.023255813953497295,"midi":42,"time":90.76744186046511,"velocity":0.5590551181102362},{"duration":0.08139534883721922,"midi":70,"time":90.76744186046511,"velocity":0.33858267716535434},{"duration":0.03488372093023884,"midi":86,"time":90.76744186046511,"velocity":0.08661417322834646},{"duration":0.03488372093023884,"midi":58,"time":90.77906976744185,"velocity":0.14173228346456693},{"duration":0.08139534883721922,"midi":80,"time":90.77906976744185,"velocity":0.23622047244094488},{"duration":0.05813953488372192,"midi":96,"time":90.81395348837209,"velocity":0.25984251968503935},{"duration":0.04651162790698038,"midi":90,"time":90.82558139534883,"velocity":0.2047244094488189},{"duration":0.023255813953497295,"midi":36,"time":90.83720930232558,"velocity":0.2992125984251969},{"duration":0.03488372093023884,"midi":93,"time":90.83720930232558,"velocity":0.1889763779527559},{"duration":0.12790697674418539,"midi":55,"time":90.84883720930233,"velocity":0.30708661417322836},{"duration":0.023255813953483084,"midi":71,"time":90.84883720930233,"velocity":0.3543307086614173},{"duration":0.06976744186046346,"midi":48,"time":90.86046511627907,"velocity":0.3464566929133858},{"duration":0.034883720930224626,"midi":81,"time":90.86046511627907,"velocity":0.1889763779527559},{"duration":0.04651162790698038,"midi":63,"time":90.87209302325581,"velocity":0.4015748031496063},{"duration":0.03488372093023884,"midi":70,"time":90.87209302325581,"velocity":0.3937007874015748},{"duration":0.04651162790698038,"midi":80,"time":90.88372093023256,"velocity":0.18110236220472442},{"duration":0.13953488372094114,"midi":68,"time":90.8953488372093,"velocity":0.5354330708661418},{"duration":0.06976744186046346,"midi":36,"time":90.90697674418605,"velocity":0.3543307086614173},{"duration":0.034883720930224626,"midi":81,"time":90.9186046511628,"velocity":0.2755905511811024},{"duration":0.13953488372092693,"midi":63,"time":90.93023255813954,"velocity":0.3779527559055118},{"duration":0.03488372093023884,"midi":73,"time":90.94186046511628,"velocity":0.3937007874015748},{"duration":0.16279069767442422,"midi":101,"time":90.94186046511628,"velocity":0.18110236220472442},{"duration":0.05813953488372192,"midi":84,"time":90.95348837209302,"velocity":0.3700787401574803},{"duration":0.08139534883721922,"midi":91,"time":90.95348837209302,"velocity":0.25984251968503935},{"duration":0.04651162790698038,"midi":86,"time":90.96511627906976,"velocity":0.12598425196850394},{"duration":0.32558139534884845,"midi":94,"time":90.96511627906976,"velocity":0.1732283464566929},{"duration":0.2325581395348877,"midi":103,"time":90.96511627906976,"velocity":0.2992125984251969},{"duration":0.023255813953483084,"midi":53,"time":90.97674418604652,"velocity":0.28346456692913385},{"duration":0.04651162790696617,"midi":59,"time":90.97674418604652,"velocity":0.33858267716535434},{"duration":0.04651162790696617,"midi":72,"time":90.97674418604652,"velocity":0.5039370078740157},{"duration":0.034883720930224626,"midi":76,"time":90.97674418604652,"velocity":0.28346456692913385},{"duration":0.06976744186046346,"midi":87,"time":90.97674418604652,"velocity":0.3464566929133858},{"duration":0.081395348837205,"midi":95,"time":90.97674418604652,"velocity":0.1968503937007874},{"duration":0.48837209302324425,"midi":100,"time":90.97674418604652,"velocity":0.41732283464566927},{"duration":0.023255813953483084,"midi":45,"time":90.98837209302326,"velocity":0.3543307086614173},{"duration":0.15116279069766847,"midi":78,"time":90.98837209302326,"velocity":0.29133858267716534},{"duration":0.06976744186046346,"midi":83,"time":90.98837209302326,"velocity":0.4094488188976378},{"duration":0.03488372093023884,"midi":81,"time":91,"velocity":0.10236220472440945},{"duration":0.12790697674418539,"midi":102,"time":91,"velocity":0.2992125984251969},{"duration":0.13953488372092693,"midi":46,"time":91.01162790697674,"velocity":0.29133858267716534},{"duration":0.023255813953497295,"midi":53,"time":91.01162790697674,"velocity":0.2992125984251969},{"duration":0.27906976744186807,"midi":99,"time":91.01162790697674,"velocity":0.3858267716535433},{"duration":0.023255813953497295,"midi":58,"time":91.02325581395348,"velocity":0.31496062992125984},{"duration":0.023255813953497295,"midi":66,"time":91.02325581395348,"velocity":0.23622047244094488},{"duration":0.06976744186046346,"midi":86,"time":91.02325581395348,"velocity":0.4645669291338583},{"duration":0.04651162790696617,"midi":72,"time":91.03488372093024,"velocity":0.23622047244094488},{"duration":0.05813953488370771,"midi":89,"time":91.03488372093024,"velocity":0.3464566929133858},{"duration":0.09302325581394655,"midi":34,"time":91.04651162790698,"velocity":0.30708661417322836},{"duration":0.04651162790698038,"midi":58,"time":91.05813953488372,"velocity":0.3543307086614173},{"duration":0.11627906976744384,"midi":68,"time":91.05813953488372,"velocity":0.3464566929133858},{"duration":0.034883720930224626,"midi":82,"time":91.05813953488372,"velocity":0.4409448818897638},{"duration":0.04651162790698038,"midi":91,"time":91.05813953488372,"velocity":0.2204724409448819},{"duration":0.023255813953483084,"midi":53,"time":91.06976744186046,"velocity":0.25196850393700787},{"duration":0.03488372093023884,"midi":88,"time":91.06976744186046,"velocity":0.11811023622047244},{"duration":0.1046511627907023,"midi":75,"time":91.0813953488372,"velocity":0.11023622047244094},{"duration":0.023255813953497295,"midi":83,"time":91.09302325581395,"velocity":0.3700787401574803},{"duration":0.04651162790698038,"midi":85,"time":91.09302325581395,"velocity":0.09448818897637795},{"duration":0.03488372093023884,"midi":87,"time":91.09302325581395,"velocity":0.4881889763779528},{"duration":0.023255813953483084,"midi":60,"time":91.1046511627907,"velocity":0.3228346456692913},{"duration":0.081395348837205,"midi":93,"time":91.1046511627907,"velocity":0.14960629921259844},{"duration":0.13953488372092693,"midi":72,"time":91.11627906976744,"velocity":0.4015748031496063},{"duration":0.04651162790698038,"midi":84,"time":91.11627906976744,"velocity":0.44881889763779526},{"duration":0.11627906976744384,"midi":88,"time":91.11627906976744,"velocity":0.41732283464566927},{"duration":0.3604651162790731,"midi":101,"time":91.11627906976744,"velocity":0.3464566929133858},{"duration":0.1046511627907023,"midi":91,"time":91.12790697674419,"velocity":0.2125984251968504},{"duration":0.15116279069766847,"midi":98,"time":91.12790697674419,"velocity":0.16535433070866143},{"duration":0.05813953488372192,"midi":79,"time":91.13953488372093,"velocity":0.31496062992125984},{"duration":0.04651162790698038,"midi":87,"time":91.13953488372093,"velocity":0.4094488188976378},{"duration":0.05813953488372192,"midi":86,"time":91.15116279069767,"velocity":0.2283464566929134},{"duration":0.06976744186046346,"midi":63,"time":91.16279069767442,"velocity":0.23622047244094488},{"duration":0.034883720930224626,"midi":67,"time":91.17441860465117,"velocity":0.1732283464566929},{"duration":0.1860465116279073,"midi":102,"time":91.17441860465117,"velocity":0.2125984251968504},{"duration":0.04651162790698038,"midi":78,"time":91.18604651162791,"velocity":0.25196850393700787},{"duration":0.081395348837205,"midi":95,"time":91.18604651162791,"velocity":0.2677165354330709},{"duration":0.06976744186046346,"midi":59,"time":91.19767441860465,"velocity":0.1889763779527559},{"duration":0.04651162790698038,"midi":80,"time":91.19767441860465,"velocity":0.14960629921259844},{"duration":0.081395348837205,"midi":84,"time":91.19767441860465,"velocity":0.4015748031496063},{"duration":0.04651162790698038,"midi":87,"time":91.19767441860465,"velocity":0.33858267716535434},{"duration":0.03488372093023884,"midi":68,"time":91.20930232558139,"velocity":0.1889763779527559},{"duration":0.04651162790696617,"midi":93,"time":91.22093023255815,"velocity":0.14960629921259844},{"duration":0.11627906976744384,"midi":75,"time":91.23255813953489,"velocity":0.29133858267716534},{"duration":0.2906976744185954,"midi":77,"time":91.23255813953489,"velocity":0.41732283464566927},{"duration":0.04651162790696617,"midi":81,"time":91.23255813953489,"velocity":0.1732283464566929},{"duration":0.081395348837205,"midi":83,"time":91.23255813953489,"velocity":0.3937007874015748},{"duration":0.36046511627905886,"midi":86,"time":91.23255813953489,"velocity":0.4251968503937008},{"duration":0.023255813953483084,"midi":82,"time":91.24418604651163,"velocity":0.3543307086614173},{"duration":0.05813953488372192,"midi":66,"time":91.25581395348837,"velocity":0.16535433070866143},{"duration":0.06976744186046346,"midi":68,"time":91.25581395348837,"velocity":0.13385826771653545},{"duration":0.011627906976741542,"midi":46,"time":91.26744186046511,"velocity":0.5511811023622047},{"duration":0.023255813953497295,"midi":87,"time":91.26744186046511,"velocity":0.36220472440944884},{"duration":0.011627906976755753,"midi":44,"time":91.27906976744185,"velocity":0.5669291338582677},{"duration":0.023255813953497295,"midi":72,"time":91.27906976744185,"velocity":0.25984251968503935},{"duration":0.034883720930224626,"midi":42,"time":91.29069767441861,"velocity":0.5748031496062992},{"duration":0.04651162790696617,"midi":56,"time":91.29069767441861,"velocity":0.2677165354330709},{"duration":0.11627906976744384,"midi":63,"time":91.29069767441861,"velocity":0.3228346456692913},{"duration":0.10465116279068809,"midi":103,"time":91.29069767441861,"velocity":0.2204724409448819},{"duration":0.034883720930224626,"midi":51,"time":91.30232558139535,"velocity":0.29133858267716534},{"duration":0.04651162790698038,"midi":71,"time":91.30232558139535,"velocity":0.31496062992125984},{"duration":0.2093023255813904,"midi":82,"time":91.30232558139535,"velocity":0.3937007874015748},{"duration":0.04651162790698038,"midi":84,"time":91.31395348837209,"velocity":0.28346456692913385},{"duration":0.06976744186046346,"midi":91,"time":91.31395348837209,"velocity":0.07086614173228346},{"duration":0.2093023255814046,"midi":88,"time":91.32558139534883,"velocity":0.2047244094488189},{"duration":0.023255813953497295,"midi":52,"time":91.33720930232558,"velocity":0.25196850393700787},{"duration":0.1046511627907023,"midi":58,"time":91.33720930232558,"velocity":0.33070866141732286},{"duration":0.06976744186047767,"midi":68,"time":91.33720930232558,"velocity":0.2204724409448819},{"duration":0.12790697674418539,"midi":70,"time":91.34883720930233,"velocity":0.3700787401574803},{"duration":0.034883720930224626,"midi":51,"time":91.36046511627907,"velocity":0.13385826771653545},{"duration":0.034883720930224626,"midi":83,"time":91.36046511627907,"velocity":0.25984251968503935},{"duration":0.034883720930224626,"midi":92,"time":91.36046511627907,"velocity":0.07086614173228346},{"duration":0.04651162790698038,"midi":96,"time":91.36046511627907,"velocity":0.10236220472440945},{"duration":0.1860465116279073,"midi":75,"time":91.37209302325581,"velocity":0.47244094488188976},{"duration":0.023255813953497295,"midi":34,"time":91.38372093023256,"velocity":0.31496062992125984},{"duration":0.034883720930224626,"midi":44,"time":91.40697674418605,"velocity":0.09448818897637795},{"duration":0.23255813953487348,"midi":72,"time":91.40697674418605,"velocity":0.31496062992125984},{"duration":0.04651162790696617,"midi":102,"time":91.40697674418605,"velocity":0.12598425196850394},{"duration":0.9651162790697612,"midi":68,"time":91.4186046511628,"velocity":0.4645669291338583},{"duration":0.7790697674418539,"midi":99,"time":91.4186046511628,"velocity":0.33858267716535434},{"duration":0.081395348837205,"midi":63,"time":91.43023255813954,"velocity":0.2755905511811024},{"duration":0.03488372093023884,"midi":57,"time":91.44186046511628,"velocity":0.5275590551181102},{"duration":0.03488372093023884,"midi":83,"time":91.44186046511628,"velocity":0.1732283464566929},{"duration":0.04651162790696617,"midi":56,"time":91.47674418604652,"velocity":0.5118110236220472},{"duration":0.2674418604651123,"midi":100,"time":91.47674418604652,"velocity":0.2283464566929134},{"duration":0.081395348837205,"midi":91,"time":91.48837209302326,"velocity":0.28346456692913385},{"duration":0.03488372093023884,"midi":93,"time":91.5,"velocity":0.14960629921259844},{"duration":0.03488372093023884,"midi":95,"time":91.5,"velocity":0.09448818897637795},{"duration":0.04651162790698038,"midi":97,"time":91.5,"velocity":0.2125984251968504},{"duration":0.3139534883720927,"midi":101,"time":91.5,"velocity":0.2992125984251969},{"duration":0.04651162790698038,"midi":81,"time":91.51162790697674,"velocity":0.2047244094488189},{"duration":0.03488372093023884,"midi":83,"time":91.51162790697674,"velocity":0.12598425196850394},{"duration":0.09302325581396076,"midi":90,"time":91.51162790697674,"velocity":0.31496062992125984},{"duration":0.2325581395348877,"midi":96,"time":91.51162790697674,"velocity":0.4015748031496063},{"duration":0.15116279069768268,"midi":44,"time":91.52325581395348,"velocity":0.3858267716535433},{"duration":0.03488372093023884,"midi":78,"time":91.52325581395348,"velocity":0.2283464566929134},{"duration":0.10465116279068809,"midi":51,"time":91.53488372093024,"velocity":0.30708661417322836},{"duration":0.22093023255813193,"midi":63,"time":91.53488372093024,"velocity":0.31496062992125984},{"duration":0.3372093023255758,"midi":92,"time":91.53488372093024,"velocity":0.4094488188976378},{"duration":0.081395348837205,"midi":82,"time":91.54651162790698,"velocity":0.2204724409448819},{"duration":0.023255813953483084,"midi":76,"time":91.55813953488372,"velocity":0.3937007874015748},{"duration":0.023255813953497295,"midi":57,"time":91.5813953488372,"velocity":0.3543307086614173},{"duration":0.11627906976744384,"midi":75,"time":91.5813953488372,"velocity":0.3858267716535433},{"duration":0.09302325581396076,"midi":32,"time":91.59302325581395,"velocity":0.2755905511811024},{"duration":0.03488372093023884,"midi":60,"time":91.59302325581395,"velocity":0.18110236220472442},{"duration":0.05813953488372192,"midi":70,"time":91.59302325581395,"velocity":0.14960629921259844},{"duration":0.08139534883721922,"midi":77,"time":91.59302325581395,"velocity":0.11023622047244094},{"duration":0.04651162790698038,"midi":79,"time":91.59302325581395,"velocity":0.31496062992125984},{"duration":0.05813953488372192,"midi":89,"time":91.59302325581395,"velocity":0.30708661417322836},{"duration":0.16279069767442422,"midi":95,"time":91.59302325581395,"velocity":0.33070866141732286},{"duration":0.33720930232559,"midi":97,"time":91.59302325581395,"velocity":0.28346456692913385},{"duration":0.05813953488372192,"midi":83,"time":91.6046511627907,"velocity":0.2047244094488189},{"duration":0.24418604651162923,"midi":91,"time":91.6046511627907,"velocity":0.47244094488188976},{"duration":0.05813953488372192,"midi":93,"time":91.6046511627907,"velocity":0.25984251968503935},{"duration":0.034883720930224626,"midi":74,"time":91.61627906976744,"velocity":0.36220472440944884},{"duration":0.023255813953483084,"midi":57,"time":91.62790697674419,"velocity":0.25984251968503935},{"duration":0.04651162790698038,"midi":82,"time":91.63953488372093,"velocity":0.1889763779527559},{"duration":0.04651162790698038,"midi":94,"time":91.63953488372093,"velocity":0.25984251968503935},{"duration":0.24418604651162923,"midi":72,"time":91.65116279069767,"velocity":0.4094488188976378},{"duration":0.1860465116279073,"midi":90,"time":91.65116279069767,"velocity":0.3700787401574803},{"duration":0.04651162790698038,"midi":56,"time":91.67441860465117,"velocity":0.3937007874015748},{"duration":0.04651162790698038,"midi":76,"time":91.68604651162791,"velocity":0.3464566929133858},{"duration":0.04651162790698038,"midi":81,"time":91.68604651162791,"velocity":0.30708661417322836},{"duration":0.12790697674418539,"midi":82,"time":91.69767441860465,"velocity":0.1732283464566929},{"duration":0.09302325581396076,"midi":87,"time":91.70930232558139,"velocity":0.15748031496062992},{"duration":0.023255813953483084,"midi":57,"time":91.72093023255815,"velocity":0.29133858267716534},{"duration":0.081395348837205,"midi":75,"time":91.73255813953489,"velocity":0.3937007874015748},{"duration":0.12790697674418539,"midi":89,"time":91.73255813953489,"velocity":0.2125984251968504},{"duration":0.034883720930224626,"midi":56,"time":91.74418604651163,"velocity":0.44881889763779526},{"duration":0.04651162790698038,"midi":60,"time":91.74418604651163,"velocity":0.4330708661417323},{"duration":0.04651162790698038,"midi":100,"time":91.75581395348837,"velocity":0.2204724409448819},{"duration":0.023255813953497295,"midi":66,"time":91.76744186046511,"velocity":0.3779527559055118},{"duration":0.06976744186046346,"midi":88,"time":91.76744186046511,"velocity":0.25984251968503935},{"duration":0.06976744186046346,"midi":95,"time":91.76744186046511,"velocity":0.10236220472440945},{"duration":0.03488372093023884,"midi":98,"time":91.76744186046511,"velocity":0.12598425196850394},{"duration":0.03488372093023884,"midi":45,"time":91.77906976744185,"velocity":0.6141732283464567},{"duration":0.034883720930224626,"midi":77,"time":91.79069767441861,"velocity":0.09448818897637795},{"duration":0.034883720930224626,"midi":63,"time":91.80232558139535,"velocity":0.15748031496062992},{"duration":0.06976744186046346,"midi":83,"time":91.80232558139535,"velocity":0.15748031496062992},{"duration":0.011627906976741542,"midi":44,"time":91.81395348837209,"velocity":0.5905511811023622},{"duration":0.03488372093023884,"midi":74,"time":91.81395348837209,"velocity":0.16535433070866143},{"duration":0.03488372093023884,"midi":81,"time":91.81395348837209,"velocity":0.09448818897637795},{"duration":0.023255813953497295,"midi":42,"time":91.82558139534883,"velocity":0.5748031496062992},{"duration":0.023255813953497295,"midi":51,"time":91.82558139534883,"velocity":0.28346456692913385},{"duration":0.03488372093023884,"midi":93,"time":91.82558139534883,"velocity":0.11811023622047244},{"duration":0.19767441860464885,"midi":75,"time":91.84883720930233,"velocity":0.3700787401574803},{"duration":0.023255813953483084,"midi":53,"time":91.86046511627907,"velocity":0.2283464566929134},{"duration":0.034883720930224626,"midi":60,"time":91.86046511627907,"velocity":0.14173228346456693},{"duration":0.15116279069766847,"midi":90,"time":91.86046511627907,"velocity":0.18110236220472442},{"duration":0.023255813953483084,"midi":37,"time":91.87209302325581,"velocity":0.4015748031496063},{"duration":0.03488372093023884,"midi":98,"time":91.88372093023256,"velocity":0.12598425196850394},{"duration":0.03488372093023884,"midi":36,"time":91.8953488372093,"velocity":0.33858267716535434},{"duration":0.03488372093023884,"midi":78,"time":91.8953488372093,"velocity":0.14960629921259844},{"duration":0.11627906976744384,"midi":82,"time":91.8953488372093,"velocity":0.12598425196850394},{"duration":0.034883720930224626,"midi":56,"time":91.90697674418605,"velocity":0.2204724409448819},{"duration":0.11627906976744384,"midi":63,"time":91.9186046511628,"velocity":0.25984251968503935},{"duration":0.15116279069766847,"midi":72,"time":91.9186046511628,"velocity":0.2677165354330709},{"duration":0.081395348837205,"midi":91,"time":91.9186046511628,"velocity":0.10236220472440945},{"duration":0.03488372093023884,"midi":57,"time":91.96511627906976,"velocity":0.2755905511811024},{"duration":0.16279069767442422,"midi":92,"time":91.96511627906976,"velocity":0.16535433070866143},{"duration":0.05813953488372192,"midi":86,"time":92.02325581395348,"velocity":0.25196850393700787},{"duration":0.05813953488372192,"midi":89,"time":92.02325581395348,"velocity":0.2440944881889764},{"duration":0.08139534883721922,"midi":90,"time":92.02325581395348,"velocity":0.15748031496062992},{"duration":0.023255813953483084,"midi":54,"time":92.03488372093024,"velocity":0.3700787401574803},{"duration":0.06976744186046346,"midi":81,"time":92.03488372093024,"velocity":0.1732283464566929},{"duration":0.13953488372092693,"midi":93,"time":92.03488372093024,"velocity":0.25196850393700787},{"duration":0.04651162790696617,"midi":74,"time":92.04651162790698,"velocity":0.23622047244094488},{"duration":0.034883720930224626,"midi":63,"time":92.05813953488372,"velocity":0.15748031496062992},{"duration":0.2325581395348877,"midi":75,"time":92.05813953488372,"velocity":0.2992125984251969},{"duration":0.04651162790698038,"midi":77,"time":92.05813953488372,"velocity":0.2125984251968504},{"duration":0.06976744186046346,"midi":94,"time":92.05813953488372,"velocity":0.14960629921259844},{"duration":0.06976744186046346,"midi":97,"time":92.05813953488372,"velocity":0.14960629921259844},{"duration":0.034883720930224626,"midi":103,"time":92.05813953488372,"velocity":0.10236220472440945},{"duration":0.04651162790698038,"midi":44,"time":92.06976744186046,"velocity":0.3543307086614173},{"duration":0.16279069767442422,"midi":56,"time":92.06976744186046,"velocity":0.5984251968503937},{"duration":0.023255813953497295,"midi":51,"time":92.0813953488372,"velocity":0.2440944881889764},{"duration":0.22093023255814614,"midi":72,"time":92.0813953488372,"velocity":0.30708661417322836},{"duration":0.09302325581394655,"midi":91,"time":92.1046511627907,"velocity":0.2283464566929134},{"duration":0.05813953488372192,"midi":96,"time":92.1046511627907,"velocity":0.12598425196850394},{"duration":0.12790697674418539,"midi":102,"time":92.1046511627907,"velocity":0.25196850393700787},{"duration":0.05813953488372192,"midi":32,"time":92.12790697674419,"velocity":0.2755905511811024},{"duration":0.09302325581396076,"midi":92,"time":92.13953488372093,"velocity":0.2047244094488189},{"duration":0.03488372093023884,"midi":95,"time":92.13953488372093,"velocity":0.25984251968503935},{"duration":0.05813953488372192,"midi":86,"time":92.15116279069767,"velocity":0.1968503937007874},{"duration":0.04651162790698038,"midi":94,"time":92.15116279069767,"velocity":0.28346456692913385},{"duration":0.05813953488372192,"midi":100,"time":92.15116279069767,"velocity":0.09448818897637795},{"duration":0.023255813953483084,"midi":45,"time":92.16279069767442,"velocity":0.2677165354330709},{"duration":0.034883720930224626,"midi":66,"time":92.16279069767442,"velocity":0.2047244094488189},{"duration":0.081395348837205,"midi":78,"time":92.16279069767442,"velocity":0.2047244094488189},{"duration":0.04651162790696617,"midi":81,"time":92.16279069767442,"velocity":0.1968503937007874},{"duration":0.04651162790696617,"midi":89,"time":92.16279069767442,"velocity":0.2125984251968504},{"duration":0.034883720930224626,"midi":74,"time":92.17441860465117,"velocity":0.23622047244094488},{"duration":0.06976744186046346,"midi":77,"time":92.17441860465117,"velocity":0.2047244094488189},{"duration":0.06976744186046346,"midi":96,"time":92.17441860465117,"velocity":0.28346456692913385},{"duration":0.05813953488372192,"midi":44,"time":92.18604651162791,"velocity":0.3700787401574803},{"duration":0.06976744186046346,"midi":79,"time":92.18604651162791,"velocity":0.09448818897637795},{"duration":0.034883720930224626,"midi":51,"time":92.22093023255815,"velocity":0.2992125984251969},{"duration":0.034883720930224626,"midi":57,"time":92.23255813953489,"velocity":0.3858267716535433},{"duration":0.023255813953483084,"midi":33,"time":92.24418604651163,"velocity":0.2755905511811024},{"duration":0.06976744186046346,"midi":92,"time":92.24418604651163,"velocity":0.12598425196850394},{"duration":0.04651162790698038,"midi":44,"time":92.25581395348837,"velocity":0.28346456692913385},{"duration":0.05813953488372192,"midi":32,"time":92.26744186046511,"velocity":0.2755905511811024},{"duration":0.04651162790698038,"midi":56,"time":92.26744186046511,"velocity":0.4330708661417323},{"duration":0.06976744186047767,"midi":96,"time":92.27906976744185,"velocity":0.2047244094488189},{"duration":0.023255813953483084,"midi":71,"time":92.29069767441861,"velocity":0.29133858267716534},{"duration":0.04651162790696617,"midi":78,"time":92.29069767441861,"velocity":0.2204724409448819},{"duration":0.3720930232558146,"midi":87,"time":92.29069767441861,"velocity":0.3700787401574803},{"duration":0.10465116279068809,"midi":91,"time":92.29069767441861,"velocity":0.30708661417322836},{"duration":0.38372093023255616,"midi":94,"time":92.29069767441861,"velocity":0.3543307086614173},{"duration":0.05813953488372192,"midi":98,"time":92.29069767441861,"velocity":0.25984251968503935},{"duration":0.06976744186046346,"midi":100,"time":92.29069767441861,"velocity":0.18110236220472442},{"duration":0.081395348837205,"midi":101,"time":92.29069767441861,"velocity":0.14960629921259844},{"duration":0.22093023255813193,"midi":102,"time":92.29069767441861,"velocity":0.3858267716535433},{"duration":0.034883720930224626,"midi":60,"time":92.30232558139535,"velocity":0.4330708661417323},{"duration":0.05813953488372192,"midi":75,"time":92.30232558139535,"velocity":0.25196850393700787},{"duration":0.11627906976744384,"midi":97,"time":92.30232558139535,"velocity":0.2125984251968504},{"duration":0.011627906976741542,"midi":48,"time":92.31395348837209,"velocity":0.5275590551181102},{"duration":0.06976744186046346,"midi":82,"time":92.31395348837209,"velocity":0.16535433070866143},{"duration":0.023255813953483084,"midi":88,"time":92.31395348837209,"velocity":0.3464566929133858},{"duration":0.011627906976741542,"midi":46,"time":92.32558139534883,"velocity":0.5748031496062992},{"duration":0.04651162790698038,"midi":73,"time":92.32558139534883,"velocity":0.48031496062992124},{"duration":0.15116279069768268,"midi":92,"time":92.32558139534883,"velocity":0.2047244094488189},{"duration":0.011627906976755753,"midi":44,"time":92.33720930232558,"velocity":0.5984251968503937},{"duration":0.05813953488372192,"midi":89,"time":92.33720930232558,"velocity":0.36220472440944884},{"duration":0.023255813953483084,"midi":42,"time":92.34883720930233,"velocity":0.6062992125984252},{"duration":0.04651162790696617,"midi":60,"time":92.34883720930233,"velocity":0.2992125984251969},{"duration":0.10465116279068809,"midi":81,"time":92.34883720930233,"velocity":0.4330708661417323},{"duration":0.06976744186046346,"midi":95,"time":92.34883720930233,"velocity":0.28346456692913385},{"duration":0.023255813953483084,"midi":55,"time":92.36046511627907,"velocity":0.2992125984251969},{"duration":0.023255813953483084,"midi":76,"time":92.36046511627907,"velocity":0.2440944881889764},{"duration":0.081395348837205,"midi":86,"time":92.36046511627907,"velocity":0.3779527559055118},{"duration":0.06976744186046346,"midi":90,"time":92.36046511627907,"velocity":0.4409448818897638},{"duration":0.011627906976741542,"midi":41,"time":92.37209302325581,"velocity":0.5275590551181102},{"duration":0.081395348837205,"midi":74,"time":92.37209302325581,"velocity":0.5511811023622047},{"duration":0.09302325581394655,"midi":96,"time":92.37209302325581,"velocity":0.3858267716535433},{"duration":0.05813953488372192,"midi":56,"time":92.38372093023256,"velocity":0.36220472440944884},{"duration":0.023255813953497295,"midi":80,"time":92.3953488372093,"velocity":0.3228346456692913},{"duration":0.09302325581396076,"midi":100,"time":92.3953488372093,"velocity":0.15748031496062992},{"duration":0.034883720930224626,"midi":48,"time":92.40697674418605,"velocity":0.1889763779527559},{"duration":0.04651162790696617,"midi":89,"time":92.4186046511628,"velocity":0.13385826771653545},{"duration":0.023255813953483084,"midi":39,"time":92.43023255813954,"velocity":0.29133858267716534},{"duration":0.3604651162790731,"midi":80,"time":92.43023255813954,"velocity":0.3543307086614173},{"duration":0.4534883720930196,"midi":91,"time":92.43023255813954,"velocity":0.48031496062992124},{"duration":0.2093023255813904,"midi":63,"time":92.44186046511628,"velocity":0.3700787401574803},{"duration":0.418604651162795,"midi":75,"time":92.44186046511628,"velocity":0.5984251968503937},{"duration":0.03488372093023884,"midi":31,"time":92.45348837209302,"velocity":0.2047244094488189},{"duration":0.04651162790698038,"midi":72,"time":92.45348837209302,"velocity":0.3779527559055118},{"duration":0.15116279069768268,"midi":82,"time":92.45348837209302,"velocity":0.28346456692913385},{"duration":0.19767441860464885,"midi":97,"time":92.45348837209302,"velocity":0.31496062992125984},{"duration":0.03488372093023884,"midi":56,"time":92.46511627906976,"velocity":0.2677165354330709},{"duration":0.023255813953497295,"midi":60,"time":92.46511627906976,"velocity":0.2992125984251969},{"duration":0.081395348837205,"midi":101,"time":92.47674418604652,"velocity":0.2283464566929134},{"duration":0.034883720930224626,"midi":79,"time":92.48837209302326,"velocity":0.11023622047244094},{"duration":0.034883720930224626,"midi":90,"time":92.48837209302326,"velocity":0.14173228346456693},{"duration":0.04651162790698038,"midi":56,"time":92.51162790697674,"velocity":0.2755905511811024},{"duration":0.06976744186046346,"midi":72,"time":92.51162790697674,"velocity":0.3937007874015748},{"duration":0.03488372093023884,"midi":81,"time":92.51162790697674,"velocity":0.11023622047244094},{"duration":0.08139534883721922,"midi":89,"time":92.52325581395348,"velocity":0.1889763779527559},{"duration":0.06976744186046346,"midi":85,"time":92.53488372093024,"velocity":0.2283464566929134},{"duration":0.034883720930224626,"midi":88,"time":92.54651162790698,"velocity":0.12598425196850394},{"duration":0.10465116279068809,"midi":102,"time":92.54651162790698,"velocity":0.14960629921259844},{"duration":0.04651162790698038,"midi":78,"time":92.55813953488372,"velocity":0.18110236220472442},{"duration":0.04651162790698038,"midi":48,"time":92.56976744186046,"velocity":0.2677165354330709},{"duration":0.023255813953497295,"midi":41,"time":92.5813953488372,"velocity":0.30708661417322836},{"duration":0.09302325581396076,"midi":60,"time":92.59302325581395,"velocity":0.3543307086614173},{"duration":0.09302325581396076,"midi":101,"time":92.59302325581395,"velocity":0.2047244094488189},{"duration":0.023255813953483084,"midi":40,"time":92.6046511627907,"velocity":0.33858267716535434},{"duration":0.04651162790696617,"midi":81,"time":92.6046511627907,"velocity":0.14960629921259844},{"duration":0.034883720930224626,"midi":90,"time":92.6046511627907,"velocity":0.12598425196850394},{"duration":0.03488372093023884,"midi":48,"time":92.62790697674419,"velocity":0.25984251968503935},{"duration":0.04651162790698038,"midi":41,"time":92.63953488372093,"velocity":0.2677165354330709},{"duration":0.05813953488372192,"midi":82,"time":92.63953488372093,"velocity":0.09448818897637795},{"duration":0.023255813953483084,"midi":30,"time":92.68604651162791,"velocity":0.23622047244094488},{"duration":0.023255813953483084,"midi":64,"time":92.68604651162791,"velocity":0.25196850393700787},{"duration":0.04651162790698038,"midi":86,"time":92.68604651162791,"velocity":0.2125984251968504},{"duration":0.03488372093023884,"midi":90,"time":92.68604651162791,"velocity":0.14173228346456693},{"duration":0.04651162790698038,"midi":94,"time":92.68604651162791,"velocity":0.12598425196850394},{"duration":0.03488372093023884,"midi":78,"time":92.69767441860465,"velocity":0.2440944881889764},{"duration":0.03488372093023884,"midi":83,"time":92.69767441860465,"velocity":0.2440944881889764},{"duration":0.1046511627907023,"midi":48,"time":92.70930232558139,"velocity":0.2992125984251969},{"duration":0.1046511627907023,"midi":63,"time":92.70930232558139,"velocity":0.33070866141732286},{"duration":0.023255813953497295,"midi":69,"time":92.70930232558139,"velocity":0.2440944881889764},{"duration":0.023255813953497295,"midi":73,"time":92.70930232558139,"velocity":0.2283464566929134},{"duration":0.023255813953483084,"midi":57,"time":92.72093023255815,"velocity":0.25984251968503935},{"duration":0.05813953488370771,"midi":71,"time":92.72093023255815,"velocity":0.2204724409448819},{"duration":0.12790697674418539,"midi":84,"time":92.72093023255815,"velocity":0.16535433070866143},{"duration":0.034883720930224626,"midi":88,"time":92.72093023255815,"velocity":0.09448818897637795},{"duration":0.023255813953483084,"midi":40,"time":92.73255813953489,"velocity":0.3700787401574803},{"duration":0.05813953488372192,"midi":82,"time":92.74418604651163,"velocity":0.1732283464566929},{"duration":0.023255813953483084,"midi":42,"time":92.75581395348837,"velocity":0.2992125984251969},{"duration":0.04651162790698038,"midi":72,"time":92.76744186046511,"velocity":0.14960629921259844},{"duration":0.03488372093023884,"midi":41,"time":92.77906976744185,"velocity":0.2677165354330709},{"duration":0.255813953488385,"midi":102,"time":92.77906976744185,"velocity":0.3779527559055118},{"duration":0.05813953488372192,"midi":60,"time":92.79069767441861,"velocity":0.5196850393700787},{"duration":0.12790697674418539,"midi":92,"time":92.79069767441861,"velocity":0.3543307086614173},{"duration":0.10465116279068809,"midi":100,"time":92.79069767441861,"velocity":0.1889763779527559},{"duration":0.034883720930224626,"midi":30,"time":92.80232558139535,"velocity":0.2204724409448819},{"duration":0.03488372093023884,"midi":78,"time":92.81395348837209,"velocity":0.11811023622047244},{"duration":0.17441860465116577,"midi":90,"time":92.81395348837209,"velocity":0.29133858267716534},{"duration":0.32558139534883423,"midi":101,"time":92.81395348837209,"velocity":0.2283464566929134},{"duration":0.023255813953497295,"midi":67,"time":92.82558139534883,"velocity":0.3464566929133858},{"duration":0.1046511627907023,"midi":80,"time":92.82558139534883,"velocity":0.2125984251968504},{"duration":0.2674418604651123,"midi":89,"time":92.82558139534883,"velocity":0.5039370078740157},{"duration":0.03488372093023884,"midi":95,"time":92.82558139534883,"velocity":0.14960629921259844},{"duration":0.11627906976744384,"midi":97,"time":92.82558139534883,"velocity":0.2677165354330709},{"duration":0.04651162790698038,"midi":96,"time":92.83720930232558,"velocity":0.25984251968503935},{"duration":0.12790697674418539,"midi":98,"time":92.83720930232558,"velocity":0.15748031496062992},{"duration":0.011627906976741542,"midi":45,"time":92.84883720930233,"velocity":0.5118110236220472},{"duration":0.034883720930224626,"midi":73,"time":92.84883720930233,"velocity":0.3779527559055118},{"duration":0.04651162790696617,"midi":83,"time":92.84883720930233,"velocity":0.11811023622047244},{"duration":0.023255813953483084,"midi":44,"time":92.86046511627907,"velocity":0.5905511811023622},{"duration":0.023255813953483084,"midi":62,"time":92.86046511627907,"velocity":0.4409448818897638},{"duration":0.04651162790698038,"midi":66,"time":92.87209302325581,"velocity":0.33858267716535434},{"duration":0.03488372093023884,"midi":75,"time":92.87209302325581,"velocity":0.1968503937007874},{"duration":0.06976744186046346,"midi":86,"time":92.87209302325581,"velocity":0.2204724409448819},{"duration":0.03488372093023884,"midi":88,"time":92.87209302325581,"velocity":0.12598425196850394},{"duration":0.023255813953497295,"midi":42,"time":92.88372093023256,"velocity":0.5433070866141733},{"duration":0.03488372093023884,"midi":57,"time":92.88372093023256,"velocity":0.1968503937007874},{"duration":0.03488372093023884,"midi":61,"time":92.88372093023256,"velocity":0.44881889763779526},{"duration":0.04651162790698038,"midi":72,"time":92.88372093023256,"velocity":0.3937007874015748},{"duration":0.04651162790698038,"midi":74,"time":92.88372093023256,"velocity":0.28346456692913385},{"duration":0.11627906976744384,"midi":85,"time":92.88372093023256,"velocity":0.18110236220472442},{"duration":0.04651162790698038,"midi":95,"time":92.88372093023256,"velocity":0.3937007874015748},{"duration":0.023255813953497295,"midi":52,"time":92.8953488372093,"velocity":0.25984251968503935},{"duration":0.06976744186046346,"midi":96,"time":92.90697674418605,"velocity":0.28346456692913385},{"duration":0.023255813953483084,"midi":63,"time":92.9186046511628,"velocity":0.28346456692913385},{"duration":0.034883720930224626,"midi":87,"time":92.9186046511628,"velocity":0.10236220472440945},{"duration":0.081395348837205,"midi":91,"time":92.9186046511628,"velocity":0.49606299212598426},{"duration":0.06976744186046346,"midi":93,"time":92.9186046511628,"velocity":0.11811023622047244},{"duration":0.06976744186046346,"midi":94,"time":92.9186046511628,"velocity":0.4015748031496063},{"duration":0.034883720930224626,"midi":56,"time":92.93023255813954,"velocity":0.23622047244094488},{"duration":0.05813953488372192,"midi":73,"time":92.93023255813954,"velocity":0.3779527559055118},{"duration":0.023255813953483084,"midi":65,"time":92.94186046511628,"velocity":0.29133858267716534},{"duration":0.03488372093023884,"midi":95,"time":92.94186046511628,"velocity":0.12598425196850394},{"duration":0.03488372093023884,"midi":61,"time":92.95348837209302,"velocity":0.41732283464566927},{"duration":0.3604651162790731,"midi":68,"time":92.95348837209302,"velocity":0.33070866141732286},{"duration":0.13953488372092693,"midi":75,"time":92.95348837209302,"velocity":0.36220472440944884},{"duration":0.09302325581396076,"midi":78,"time":92.95348837209302,"velocity":0.23622047244094488},{"duration":0.023255813953497295,"midi":81,"time":92.95348837209302,"velocity":0.25984251968503935},{"duration":0.05813953488372192,"midi":92,"time":92.95348837209302,"velocity":0.4409448818897638},{"duration":0.08139534883721922,"midi":97,"time":92.95348837209302,"velocity":0.2204724409448819},{"duration":0.023255813953497295,"midi":47,"time":92.96511627906976,"velocity":0.2992125984251969},{"duration":0.05813953488372192,"midi":64,"time":92.96511627906976,"velocity":0.2677165354330709},{"duration":0.04651162790698038,"midi":82,"time":92.96511627906976,"velocity":0.2204724409448819},{"duration":0.023255813953483084,"midi":40,"time":92.98837209302326,"velocity":0.25196850393700787},{"duration":0.11627906976744384,"midi":48,"time":92.98837209302326,"velocity":0.2677165354330709},{"duration":0.05813953488372192,"midi":55,"time":92.98837209302326,"velocity":0.29133858267716534},{"duration":0.38372093023255616,"midi":95,"time":92.98837209302326,"velocity":0.5511811023622047},{"duration":0.04651162790698038,"midi":61,"time":93,"velocity":0.36220472440944884},{"duration":0.12790697674418539,"midi":103,"time":93,"velocity":0.23622047244094488},{"duration":0.04651162790698038,"midi":94,"time":93.01162790697674,"velocity":0.16535433070866143},{"duration":0.06976744186046346,"midi":36,"time":93.02325581395348,"velocity":0.31496062992125984},{"duration":0.023255813953497295,"midi":65,"time":93.02325581395348,"velocity":0.29133858267716534},{"duration":0.15116279069766847,"midi":91,"time":93.03488372093024,"velocity":0.2755905511811024},{"duration":0.05813953488370771,"midi":93,"time":93.03488372093024,"velocity":0.3228346456692913},{"duration":0.8604651162790731,"midi":80,"time":93.04651162790698,"velocity":0.33858267716535434},{"duration":0.034883720930224626,"midi":61,"time":93.05813953488372,"velocity":0.47244094488188976},{"duration":0.034883720930224626,"midi":66,"time":93.05813953488372,"velocity":0.2125984251968504},{"duration":0.081395348837205,"midi":84,"time":93.05813953488372,"velocity":0.29133858267716534},{"duration":0.04651162790698038,"midi":85,"time":93.05813953488372,"velocity":0.1968503937007874},{"duration":0.12790697674418539,"midi":102,"time":93.05813953488372,"velocity":0.29133858267716534},{"duration":0.081395348837205,"midi":94,"time":93.06976744186046,"velocity":0.4409448818897638},{"duration":0.11627906976744384,"midi":100,"time":93.06976744186046,"velocity":0.15748031496062992},{"duration":0.03488372093023884,"midi":82,"time":93.0813953488372,"velocity":0.10236220472440945},{"duration":0.04651162790698038,"midi":60,"time":93.09302325581395,"velocity":0.4566929133858268},{"duration":0.08139534883721922,"midi":65,"time":93.09302325581395,"velocity":0.28346456692913385},{"duration":0.03488372093023884,"midi":76,"time":93.09302325581395,"velocity":0.2440944881889764},{"duration":0.03488372093023884,"midi":79,"time":93.09302325581395,"velocity":0.23622047244094488},{"duration":0.03488372093023884,"midi":83,"time":93.09302325581395,"velocity":0.15748031496062992},{"duration":0.11627906976744384,"midi":88,"time":93.09302325581395,"velocity":0.44881889763779526},{"duration":0.023255813953483084,"midi":45,"time":93.1046511627907,"velocity":0.33858267716535434},{"duration":0.05813953488372192,"midi":53,"time":93.1046511627907,"velocity":0.30708661417322836},{"duration":0.023255813953483084,"midi":89,"time":93.1046511627907,"velocity":0.2755905511811024},{"duration":0.1046511627907023,"midi":46,"time":93.12790697674419,"velocity":0.2677165354330709},{"duration":0.05813953488372192,"midi":75,"time":93.12790697674419,"velocity":0.2204724409448819},{"duration":0.04651162790698038,"midi":61,"time":93.13953488372093,"velocity":0.5039370078740157},{"duration":0.1860465116279073,"midi":93,"time":93.13953488372093,"velocity":0.2283464566929134},{"duration":0.32558139534884845,"midi":77,"time":93.15116279069767,"velocity":0.33858267716535434},{"duration":0.11627906976744384,"midi":84,"time":93.15116279069767,"velocity":0.25196850393700787},{"duration":0.05813953488372192,"midi":34,"time":93.16279069767442,"velocity":0.33070866141732286},{"duration":0.023255813953483084,"midi":54,"time":93.16279069767442,"velocity":0.25196850393700787},{"duration":0.023255813953483084,"midi":62,"time":93.18604651162791,"velocity":0.48031496062992124},{"duration":0.04651162790698038,"midi":66,"time":93.19767441860465,"velocity":0.3464566929133858},{"duration":0.1046511627907023,"midi":56,"time":93.20930232558139,"velocity":0.25196850393700787},{"duration":0.1046511627907023,"midi":61,"time":93.20930232558139,"velocity":0.48031496062992124},{"duration":0.1046511627907023,"midi":85,"time":93.20930232558139,"velocity":0.3858267716535433},{"duration":0.034883720930224626,"midi":75,"time":93.22093023255815,"velocity":0.2047244094488189},{"duration":0.11627906976742963,"midi":91,"time":93.22093023255815,"velocity":0.1732283464566929},{"duration":0.034883720930224626,"midi":34,"time":93.23255813953489,"velocity":0.14173228346456693},{"duration":0.06976744186046346,"midi":65,"time":93.24418604651163,"velocity":0.33858267716535434},{"duration":0.023255813953483084,"midi":88,"time":93.25581395348837,"velocity":0.25196850393700787},{"duration":0.06976744186046346,"midi":102,"time":93.25581395348837,"velocity":0.2677165354330709},{"duration":0.081395348837205,"midi":84,"time":93.29069767441861,"velocity":0.2440944881889764},{"duration":0.034883720930224626,"midi":72,"time":93.30232558139535,"velocity":0.4251968503937008},{"duration":0.06976744186046346,"midi":86,"time":93.30232558139535,"velocity":0.2677165354330709},{"duration":0.034883720930224626,"midi":88,"time":93.30232558139535,"velocity":0.15748031496062992},{"duration":0.081395348837205,"midi":94,"time":93.30232558139535,"velocity":0.12598425196850394},{"duration":0.023255813953483084,"midi":62,"time":93.31395348837209,"velocity":0.41732283464566927},{"duration":0.03488372093023884,"midi":56,"time":93.32558139534883,"velocity":0.12598425196850394},{"duration":0.03488372093023884,"midi":68,"time":93.32558139534883,"velocity":0.29133858267716534},{"duration":0.03488372093023884,"midi":61,"time":93.33720930232558,"velocity":0.4015748031496063},{"duration":0.034883720930224626,"midi":93,"time":93.34883720930233,"velocity":0.15748031496062992},{"duration":0.034883720930224626,"midi":99,"time":93.34883720930233,"velocity":0.18110236220472442},{"duration":0.034883720930224626,"midi":102,"time":93.34883720930233,"velocity":0.12598425196850394},{"duration":0.04651162790698038,"midi":66,"time":93.36046511627907,"velocity":0.3464566929133858},{"duration":0.023255813953483084,"midi":70,"time":93.36046511627907,"velocity":0.2283464566929134},{"duration":0.023255813953483084,"midi":75,"time":93.36046511627907,"velocity":0.29133858267716534},{"duration":0.034883720930224626,"midi":79,"time":93.36046511627907,"velocity":0.2047244094488189},{"duration":0.011627906976741542,"midi":48,"time":93.37209302325581,"velocity":0.5118110236220472},{"duration":0.03488372093023884,"midi":62,"time":93.37209302325581,"velocity":0.3858267716535433},{"duration":0.05813953488372192,"midi":68,"time":93.37209302325581,"velocity":0.25984251968503935},{"duration":0.011627906976741542,"midi":45,"time":93.38372093023256,"velocity":0.6062992125984252},{"duration":0.09302325581396076,"midi":73,"time":93.38372093023256,"velocity":0.3700787401574803},{"duration":0.011627906976755753,"midi":44,"time":93.3953488372093,"velocity":0.6220472440944882},{"duration":0.011627906976741542,"midi":43,"time":93.40697674418605,"velocity":0.5984251968503937},{"duration":0.081395348837205,"midi":61,"time":93.40697674418605,"velocity":0.36220472440944884},{"duration":0.034883720930224626,"midi":84,"time":93.40697674418605,"velocity":0.09448818897637795},{"duration":0.011627906976741542,"midi":42,"time":93.4186046511628,"velocity":0.5669291338582677},{"duration":0.034883720930224626,"midi":93,"time":93.4186046511628,"velocity":0.09448818897637795},{"duration":0.011627906976741542,"midi":41,"time":93.43023255813954,"velocity":0.5196850393700787},{"duration":0.05813953488372192,"midi":75,"time":93.43023255813954,"velocity":0.18110236220472442},{"duration":0.04651162790698038,"midi":94,"time":93.43023255813954,"velocity":0.07086614173228346},{"duration":0.023255813953483084,"midi":66,"time":93.44186046511628,"velocity":0.2755905511811024},{"duration":0.15116279069768268,"midi":84,"time":93.45348837209302,"velocity":0.16535433070866143},{"duration":0.04651162790698038,"midi":91,"time":93.45348837209302,"velocity":0.2440944881889764},{"duration":0.023255813953497295,"midi":37,"time":93.46511627906976,"velocity":0.3937007874015748},{"duration":0.05813953488372192,"midi":65,"time":93.46511627906976,"velocity":0.36220472440944884},{"duration":0.2325581395348877,"midi":68,"time":93.46511627906976,"velocity":0.4645669291338583},{"duration":0.034883720930224626,"midi":36,"time":93.48837209302326,"velocity":0.31496062992125984},{"duration":0.09302325581394655,"midi":73,"time":93.48837209302326,"velocity":0.3858267716535433},{"duration":0.10465116279068809,"midi":95,"time":93.48837209302326,"velocity":0.2440944881889764},{"duration":0.081395348837205,"midi":79,"time":93.5,"velocity":0.14173228346456693},{"duration":0.17441860465116577,"midi":89,"time":93.5,"velocity":0.2283464566929134},{"duration":0.3604651162790731,"midi":92,"time":93.5,"velocity":0.3543307086614173},{"duration":0.05813953488372192,"midi":61,"time":93.51162790697674,"velocity":0.4015748031496063},{"duration":0.11627906976744384,"midi":75,"time":93.52325581395348,"velocity":0.2283464566929134},{"duration":0.3604651162790731,"midi":77,"time":93.54651162790698,"velocity":0.3779527559055118},{"duration":0.04651162790698038,"midi":62,"time":93.56976744186046,"velocity":0.2440944881889764},{"duration":0.05813953488372192,"midi":73,"time":93.59302325581395,"velocity":0.4015748031496063},{"duration":0.04651162790698038,"midi":94,"time":93.59302325581395,"velocity":0.11023622047244094},{"duration":0.023255813953483084,"midi":53,"time":93.6046511627907,"velocity":0.25984251968503935},{"duration":0.034883720930224626,"midi":82,"time":93.6046511627907,"velocity":0.2125984251968504},{"duration":0.04651162790696617,"midi":86,"time":93.6046511627907,"velocity":0.25196850393700787},{"duration":0.05813953488372192,"midi":84,"time":93.61627906976744,"velocity":0.18110236220472442},{"duration":0.04651162790698038,"midi":90,"time":93.61627906976744,"velocity":0.15748031496062992},{"duration":0.12790697674418539,"midi":99,"time":93.61627906976744,"velocity":0.28346456692913385},{"duration":0.05813953488372192,"midi":81,"time":93.62790697674419,"velocity":0.25196850393700787},{"duration":0.12790697674418539,"midi":87,"time":93.62790697674419,"velocity":0.2677165354330709},{"duration":0.11627906976744384,"midi":44,"time":93.63953488372093,"velocity":0.3937007874015748},{"duration":0.06976744186046346,"midi":51,"time":93.63953488372093,"velocity":0.3228346456692913},{"duration":0.023255813953497295,"midi":61,"time":93.63953488372093,"velocity":0.28346456692913385},{"duration":0.1046511627907023,"midi":96,"time":93.63953488372093,"velocity":0.23622047244094488},{"duration":0.023255813953497295,"midi":74,"time":93.65116279069767,"velocity":0.33858267716535434},{"duration":0.034883720930224626,"midi":94,"time":93.66279069767442,"velocity":0.13385826771653545},{"duration":0.081395348837205,"midi":65,"time":93.67441860465117,"velocity":0.3228346456692913},{"duration":0.19767441860464885,"midi":73,"time":93.67441860465117,"velocity":0.4566929133858268},{"duration":0.023255813953483084,"midi":60,"time":93.68604651162791,"velocity":0.2440944881889764},{"duration":0.023255813953497295,"midi":33,"time":93.69767441860465,"velocity":0.3543307086614173},{"duration":0.1860465116279073,"midi":68,"time":93.70930232558139,"velocity":0.47244094488188976},{"duration":0.10465116279068809,"midi":32,"time":93.72093023255815,"velocity":0.36220472440944884},{"duration":0.034883720930224626,"midi":61,"time":93.74418604651163,"velocity":0.4015748031496063},{"duration":0.034883720930224626,"midi":83,"time":93.74418604651163,"velocity":0.13385826771653545},{"duration":0.03488372093023884,"midi":51,"time":93.75581395348837,"velocity":0.2440944881889764},{"duration":0.03488372093023884,"midi":79,"time":93.75581395348837,"velocity":0.2283464566929134},{"duration":0.03488372093023884,"midi":98,"time":93.75581395348837,"velocity":0.07874015748031496},{"duration":0.06976744186046346,"midi":102,"time":93.75581395348837,"velocity":0.12598425196850394},{"duration":0.05813953488372192,"midi":87,"time":93.76744186046511,"velocity":0.16535433070866143},{"duration":0.08139534883721922,"midi":99,"time":93.76744186046511,"velocity":0.25984251968503935},{"duration":0.12790697674418539,"midi":65,"time":93.79069767441861,"velocity":0.3858267716535433},{"duration":0.023255813953497295,"midi":55,"time":93.82558139534883,"velocity":0.25984251968503935},{"duration":0.13953488372092693,"midi":61,"time":93.82558139534883,"velocity":0.4881889763779528},{"duration":0.034883720930224626,"midi":75,"time":93.84883720930233,"velocity":0.11811023622047244},{"duration":0.05813953488372192,"midi":84,"time":93.86046511627907,"velocity":0.2047244094488189},{"duration":0.023255813953483084,"midi":71,"time":93.87209302325581,"velocity":0.25196850393700787},{"duration":0.03488372093023884,"midi":74,"time":93.87209302325581,"velocity":0.2677165354330709},{"duration":0.05813953488372192,"midi":88,"time":93.87209302325581,"velocity":0.2677165354330709},{"duration":0.15116279069766847,"midi":94,"time":93.87209302325581,"velocity":0.25196850393700787},{"duration":0.09302325581394655,"midi":95,"time":93.87209302325581,"velocity":0.2440944881889764},{"duration":0.24418604651162923,"midi":99,"time":93.87209302325581,"velocity":0.25984251968503935},{"duration":0.6860465116279073,"midi":102,"time":93.87209302325581,"velocity":0.28346456692913385},{"duration":0.03488372093023884,"midi":90,"time":93.88372093023256,"velocity":0.28346456692913385},{"duration":0.06976744186046346,"midi":91,"time":93.88372093023256,"velocity":0.28346456692913385},{"duration":0.2325581395348877,"midi":96,"time":93.88372093023256,"velocity":0.2677165354330709},{"duration":0.081395348837205,"midi":97,"time":93.88372093023256,"velocity":0.2204724409448819},{"duration":0.2093023255813904,"midi":98,"time":93.88372093023256,"velocity":0.2755905511811024},{"duration":0.8023255813953512,"midi":101,"time":93.88372093023256,"velocity":0.3228346456692913},{"duration":0.03488372093023884,"midi":45,"time":93.8953488372093,"velocity":0.5905511811023622},{"duration":0.011627906976755753,"midi":55,"time":93.8953488372093,"velocity":0.5275590551181102},{"duration":0.03488372093023884,"midi":82,"time":93.8953488372093,"velocity":0.2204724409448819},{"duration":0.03488372093023884,"midi":87,"time":93.8953488372093,"velocity":0.1889763779527559},{"duration":0.10465116279068809,"midi":56,"time":93.90697674418605,"velocity":0.5039370078740157},{"duration":0.023255813953483084,"midi":70,"time":93.90697674418605,"velocity":0.25984251968503935},{"duration":0.11627906976742963,"midi":75,"time":93.90697674418605,"velocity":0.4645669291338583},{"duration":0.034883720930224626,"midi":79,"time":93.90697674418605,"velocity":0.14173228346456693},{"duration":0.10465116279068809,"midi":77,"time":93.9186046511628,"velocity":0.3543307086614173},{"duration":0.011627906976741542,"midi":43,"time":93.93023255813954,"velocity":0.5826771653543307},{"duration":0.06976744186046346,"midi":65,"time":93.93023255813954,"velocity":0.30708661417322836},{"duration":0.04651162790698038,"midi":86,"time":93.93023255813954,"velocity":0.12598425196850394},{"duration":0.2906976744186096,"midi":90,"time":93.93023255813954,"velocity":0.3228346456692913},{"duration":0.011627906976741542,"midi":42,"time":93.94186046511628,"velocity":0.5669291338582677},{"duration":0.09302325581396076,"midi":82,"time":93.94186046511628,"velocity":0.33858267716535434},{"duration":0.023255813953497295,"midi":41,"time":93.95348837209302,"velocity":0.47244094488188976},{"duration":0.03488372093023884,"midi":72,"time":93.96511627906976,"velocity":0.14173228346456693},{"duration":0.04651162790698038,"midi":84,"time":93.96511627906976,"velocity":0.25984251968503935},{"duration":0.1046511627907023,"midi":88,"time":93.96511627906976,"velocity":0.2992125984251969},{"duration":0.023255813953483084,"midi":49,"time":93.97674418604652,"velocity":0.29133858267716534},{"duration":0.023255813953483084,"midi":37,"time":93.98837209302326,"velocity":0.33070866141732286},{"duration":0.05813953488372192,"midi":70,"time":93.98837209302326,"velocity":0.4094488188976378},{"duration":0.081395348837205,"midi":85,"time":93.98837209302326,"velocity":0.28346456692913385},{"duration":0.24418604651162923,"midi":97,"time":93.98837209302326,"velocity":0.33070866141732286},{"duration":0.023255813953483084,"midi":73,"time":94,"velocity":0.25196850393700787},{"duration":0.06976744186046346,"midi":86,"time":94,"velocity":0.3937007874015748},{"duration":0.023255813953497295,"midi":58,"time":94.01162790697674,"velocity":0.3700787401574803},{"duration":0.023255813953497295,"midi":68,"time":94.01162790697674,"velocity":0.2283464566929134},{"duration":0.04651162790698038,"midi":81,"time":94.01162790697674,"velocity":0.29133858267716534},{"duration":0.023255813953497295,"midi":61,"time":94.02325581395348,"velocity":0.2755905511811024},{"duration":0.03488372093023884,"midi":72,"time":94.02325581395348,"velocity":0.3700787401574803},{"duration":0.023255813953497295,"midi":78,"time":94.02325581395348,"velocity":0.2992125984251969},{"duration":0.04651162790698038,"midi":83,"time":94.02325581395348,"velocity":0.3464566929133858},{"duration":0.04651162790698038,"midi":91,"time":94.02325581395348,"velocity":0.2047244094488189},{"duration":0.06976744186046346,"midi":44,"time":94.03488372093024,"velocity":0.36220472440944884},{"duration":0.05813953488370771,"midi":51,"time":94.03488372093024,"velocity":0.3543307086614173},{"duration":0.023255813953483084,"midi":55,"time":94.03488372093024,"velocity":0.3700787401574803},{"duration":0.05813953488370771,"midi":77,"time":94.03488372093024,"velocity":0.31496062992125984},{"duration":0.081395348837205,"midi":66,"time":94.04651162790698,"velocity":0.33070866141732286},{"duration":0.023255813953483084,"midi":71,"time":94.04651162790698,"velocity":0.4330708661417323},{"duration":0.034883720930224626,"midi":87,"time":94.04651162790698,"velocity":0.2677165354330709},{"duration":0.04651162790698038,"midi":56,"time":94.05813953488372,"velocity":0.4251968503937008},{"duration":0.023255813953483084,"midi":73,"time":94.05813953488372,"velocity":0.2992125984251969},{"duration":0.034883720930224626,"midi":82,"time":94.05813953488372,"velocity":0.29133858267716534},{"duration":0.03488372093023884,"midi":61,"time":94.06976744186046,"velocity":0.3228346456692913},{"duration":0.15116279069768268,"midi":70,"time":94.06976744186046,"velocity":0.5039370078740157},{"duration":0.19767441860464885,"midi":85,"time":94.0813953488372,"velocity":0.5905511811023622},{"duration":0.05813953488372192,"midi":86,"time":94.0813953488372,"velocity":0.33070866141732286},{"duration":0.08139534883721922,"midi":92,"time":94.0813953488372,"velocity":0.3228346456692913},{"duration":0.03488372093023884,"midi":103,"time":94.0813953488372,"velocity":0.13385826771653545},{"duration":0.023255813953497295,"midi":33,"time":94.09302325581395,"velocity":0.33070866141732286},{"duration":0.08139534883721922,"midi":73,"time":94.09302325581395,"velocity":0.41732283464566927},{"duration":0.034883720930224626,"midi":51,"time":94.1046511627907,"velocity":0.29133858267716534},{"duration":0.023255813953483084,"midi":55,"time":94.1046511627907,"velocity":0.3228346456692913},{"duration":0.05813953488372192,"midi":32,"time":94.11627906976744,"velocity":0.3543307086614173},{"duration":0.09302325581396076,"midi":56,"time":94.12790697674419,"velocity":0.48031496062992124},{"duration":0.03488372093023884,"midi":69,"time":94.12790697674419,"velocity":0.2440944881889764},{"duration":0.03488372093023884,"midi":76,"time":94.12790697674419,"velocity":0.25196850393700787},{"duration":0.12790697674418539,"midi":77,"time":94.12790697674419,"velocity":0.14960629921259844},{"duration":0.03488372093023884,"midi":84,"time":94.13953488372093,"velocity":0.23622047244094488},{"duration":0.03488372093023884,"midi":87,"time":94.13953488372093,"velocity":0.14960629921259844},{"duration":0.2325581395348877,"midi":96,"time":94.13953488372093,"velocity":0.23622047244094488},{"duration":0.03488372093023884,"midi":60,"time":94.15116279069767,"velocity":0.3937007874015748},{"duration":0.05813953488372192,"midi":65,"time":94.16279069767442,"velocity":0.1732283464566929},{"duration":0.023255813953483084,"midi":75,"time":94.16279069767442,"velocity":0.2440944881889764},{"duration":0.25581395348837077,"midi":80,"time":94.16279069767442,"velocity":0.29133858267716534},{"duration":0.1860465116279073,"midi":99,"time":94.16279069767442,"velocity":0.2440944881889764},{"duration":0.04651162790698038,"midi":74,"time":94.17441860465117,"velocity":0.30708661417322836},{"duration":0.05813953488372192,"midi":95,"time":94.17441860465117,"velocity":0.14960629921259844},{"duration":0.023255813953483084,"midi":61,"time":94.18604651162791,"velocity":0.2755905511811024},{"duration":0.023255813953483084,"midi":88,"time":94.18604651162791,"velocity":0.2440944881889764},{"duration":0.2325581395348877,"midi":92,"time":94.18604651162791,"velocity":0.3228346456692913},{"duration":0.12790697674418539,"midi":103,"time":94.18604651162791,"velocity":0.2755905511811024},{"duration":0.023255813953483084,"midi":73,"time":94.22093023255815,"velocity":0.4566929133858268},{"duration":0.16279069767441,"midi":89,"time":94.22093023255815,"velocity":0.2992125984251969},{"duration":0.034883720930224626,"midi":56,"time":94.23255813953489,"velocity":0.33858267716535434},{"duration":0.034883720930224626,"midi":60,"time":94.23255813953489,"velocity":0.3937007874015748},{"duration":0.05813953488372192,"midi":65,"time":94.23255813953489,"velocity":0.2755905511811024},{"duration":0.034883720930224626,"midi":81,"time":94.23255813953489,"velocity":0.10236220472440945},{"duration":0.034883720930224626,"midi":88,"time":94.23255813953489,"velocity":0.2440944881889764},{"duration":0.10465116279068809,"midi":98,"time":94.23255813953489,"velocity":0.18110236220472442},{"duration":0.12790697674418539,"midi":100,"time":94.23255813953489,"velocity":0.3779527559055118},{"duration":0.023255813953483084,"midi":72,"time":94.24418604651163,"velocity":0.4015748031496063},{"duration":0.034883720930224626,"midi":83,"time":94.24418604651163,"velocity":0.1968503937007874},{"duration":0.09302325581394655,"midi":91,"time":94.24418604651163,"velocity":0.2047244094488189},{"duration":0.03488372093023884,"midi":87,"time":94.25581395348837,"velocity":0.29133858267716534},{"duration":0.1860465116279073,"midi":95,"time":94.25581395348837,"velocity":0.2677165354330709},{"duration":0.13953488372094114,"midi":70,"time":94.26744186046511,"velocity":0.5590551181102362},{"duration":0.06976744186047767,"midi":77,"time":94.27906976744185,"velocity":0.3228346456692913},{"duration":0.08139534883721922,"midi":88,"time":94.27906976744185,"velocity":0.1732283464566929},{"duration":0.023255813953483084,"midi":48,"time":94.29069767441861,"velocity":0.33070866141732286},{"duration":0.023255813953483084,"midi":56,"time":94.29069767441861,"velocity":0.44881889763779526},{"duration":0.04651162790696617,"midi":73,"time":94.29069767441861,"velocity":0.2283464566929134},{"duration":0.13953488372092693,"midi":85,"time":94.29069767441861,"velocity":0.3228346456692913},{"duration":0.06976744186046346,"midi":83,"time":94.30232558139535,"velocity":0.29133858267716534},{"duration":0.05813953488372192,"midi":86,"time":94.30232558139535,"velocity":0.2677165354330709},{"duration":0.05813953488372192,"midi":49,"time":94.31395348837209,"velocity":0.2755905511811024},{"duration":0.05813953488372192,"midi":65,"time":94.31395348837209,"velocity":0.28346456692913385},{"duration":0.04651162790698038,"midi":56,"time":94.32558139534883,"velocity":0.4645669291338583},{"duration":0.05813953488372192,"midi":78,"time":94.32558139534883,"velocity":0.2283464566929134},{"duration":0.04651162790698038,"midi":103,"time":94.32558139534883,"velocity":0.2204724409448819},{"duration":0.03488372093023884,"midi":37,"time":94.33720930232558,"velocity":0.3464566929133858},{"duration":0.04651162790696617,"midi":72,"time":94.34883720930233,"velocity":0.31496062992125984},{"duration":0.023255813953483084,"midi":60,"time":94.36046511627907,"velocity":0.5275590551181102},{"duration":0.023255813953483084,"midi":38,"time":94.37209302325581,"velocity":0.25984251968503935},{"duration":0.05813953488372192,"midi":66,"time":94.37209302325581,"velocity":0.33070866141732286},{"duration":0.04651162790698038,"midi":56,"time":94.38372093023256,"velocity":0.4094488188976378},{"duration":0.06976744186046346,"midi":61,"time":94.38372093023256,"velocity":0.5275590551181102},{"duration":0.43023255813953654,"midi":96,"time":94.38372093023256,"velocity":0.49606299212598426},{"duration":0.04651162790698038,"midi":98,"time":94.38372093023256,"velocity":0.14173228346456693},{"duration":0.30232558139535115,"midi":99,"time":94.3953488372093,"velocity":0.3700787401574803},{"duration":0.034883720930224626,"midi":69,"time":94.40697674418605,"velocity":0.28346456692913385},{"duration":0.06976744186046346,"midi":75,"time":94.40697674418605,"velocity":0.2283464566929134},{"duration":0.081395348837205,"midi":82,"time":94.40697674418605,"velocity":0.2992125984251969},{"duration":0.10465116279068809,"midi":84,"time":94.40697674418605,"velocity":0.25984251968503935},{"duration":0.40697674418603924,"midi":93,"time":94.40697674418605,"velocity":0.4566929133858268},{"duration":0.3139534883720927,"midi":103,"time":94.40697674418605,"velocity":0.31496062992125984},{"duration":0.6279069767441854,"midi":77,"time":94.4186046511628,"velocity":0.5118110236220472},{"duration":0.06976744186046346,"midi":100,"time":94.4186046511628,"velocity":0.14960629921259844},{"duration":0.034883720930224626,"midi":65,"time":94.43023255813954,"velocity":0.3464566929133858},{"duration":0.023255813953483084,"midi":88,"time":94.43023255813954,"velocity":0.25196850393700787},{"duration":0.09302325581394655,"midi":92,"time":94.43023255813954,"velocity":0.16535433070866143},{"duration":0.011627906976741542,"midi":45,"time":94.44186046511628,"velocity":0.5905511811023622},{"duration":0.023255813953483084,"midi":58,"time":94.44186046511628,"velocity":0.2755905511811024},{"duration":0.06976744186046346,"midi":70,"time":94.44186046511628,"velocity":0.33070866141732286},{"duration":0.081395348837205,"midi":80,"time":94.44186046511628,"velocity":0.2440944881889764},{"duration":0.023255813953497295,"midi":44,"time":94.45348837209302,"velocity":0.6141732283464567},{"duration":0.06976744186046346,"midi":98,"time":94.45348837209302,"velocity":0.14960629921259844},{"duration":0.023255813953483084,"midi":55,"time":94.47674418604652,"velocity":0.33858267716535434},{"duration":0.12790697674418539,"midi":61,"time":94.47674418604652,"velocity":0.3858267716535433},{"duration":0.023255813953483084,"midi":66,"time":94.47674418604652,"velocity":0.30708661417322836},{"duration":0.023255813953483084,"midi":41,"time":94.48837209302326,"velocity":0.4409448818897638},{"duration":0.034883720930224626,"midi":83,"time":94.48837209302326,"velocity":0.2440944881889764},{"duration":0.034883720930224626,"midi":86,"time":94.48837209302326,"velocity":0.11023622047244094},{"duration":0.03488372093023884,"midi":56,"time":94.5,"velocity":0.2440944881889764},{"duration":0.11627906976744384,"midi":67,"time":94.5,"velocity":0.48031496062992124},{"duration":0.023255813953497295,"midi":35,"time":94.52325581395348,"velocity":0.29133858267716534},{"duration":0.17441860465116577,"midi":82,"time":94.52325581395348,"velocity":0.23622047244094488},{"duration":0.2093023255814046,"midi":95,"time":94.52325581395348,"velocity":0.29133858267716534},{"duration":0.05813953488372192,"midi":100,"time":94.52325581395348,"velocity":0.07086614173228346},{"duration":0.034883720930224626,"midi":80,"time":94.53488372093024,"velocity":0.1889763779527559},{"duration":0.034883720930224626,"midi":84,"time":94.53488372093024,"velocity":0.14960629921259844},{"duration":0.06976744186046346,"midi":98,"time":94.53488372093024,"velocity":0.2047244094488189},{"duration":0.023255813953483084,"midi":37,"time":94.54651162790698,"velocity":0.2992125984251969},{"duration":0.11627906976744384,"midi":70,"time":94.54651162790698,"velocity":0.2283464566929134},{"duration":0.05813953488372192,"midi":83,"time":94.56976744186046,"velocity":0.11023622047244094},{"duration":0.04651162790698038,"midi":80,"time":94.5813953488372,"velocity":0.2755905511811024},{"duration":0.13953488372094114,"midi":84,"time":94.5813953488372,"velocity":0.1968503937007874},{"duration":0.05813953488372192,"midi":102,"time":94.5813953488372,"velocity":0.11023622047244094},{"duration":0.1279069767441996,"midi":86,"time":94.59302325581395,"velocity":0.16535433070866143},{"duration":0.2093023255813904,"midi":61,"time":94.61627906976744,"velocity":0.36220472440944884},{"duration":0.034883720930224626,"midi":65,"time":94.61627906976744,"velocity":0.4251968503937008},{"duration":0.03488372093023884,"midi":67,"time":94.62790697674419,"velocity":0.3858267716535433},{"duration":0.03488372093023884,"midi":72,"time":94.62790697674419,"velocity":0.25984251968503935},{"duration":0.22093023255814614,"midi":73,"time":94.65116279069767,"velocity":0.3937007874015748},{"duration":0.03488372093023884,"midi":80,"time":94.65116279069767,"velocity":0.2283464566929134},{"duration":0.06976744186046346,"midi":65,"time":94.67441860465117,"velocity":0.3464566929133858},{"duration":0.023255813953483084,"midi":69,"time":94.67441860465117,"velocity":0.3858267716535433},{"duration":0.034883720930224626,"midi":88,"time":94.67441860465117,"velocity":0.14173228346456693},{"duration":0.03488372093023884,"midi":68,"time":94.69767441860465,"velocity":0.33858267716535434},{"duration":0.081395348837205,"midi":70,"time":94.69767441860465,"velocity":0.30708661417322836},{"duration":0.023255813953497295,"midi":55,"time":94.70930232558139,"velocity":0.25984251968503935},{"duration":0.034883720930224626,"midi":67,"time":94.73255813953489,"velocity":0.47244094488188976},{"duration":0.05813953488372192,"midi":101,"time":94.73255813953489,"velocity":0.10236220472440945},{"duration":0.05813953488372192,"midi":65,"time":94.75581395348837,"velocity":0.2677165354330709},{"duration":0.09302325581396076,"midi":68,"time":94.76744186046511,"velocity":0.49606299212598426},{"duration":0.03488372093023884,"midi":84,"time":94.77906976744185,"velocity":0.10236220472440945},{"duration":0.081395348837205,"midi":92,"time":94.79069767441861,"velocity":0.2440944881889764},{"duration":0.22093023255813193,"midi":102,"time":94.79069767441861,"velocity":0.3937007874015748},{"duration":0.034883720930224626,"midi":83,"time":94.80232558139535,"velocity":0.15748031496062992},{"duration":0.11627906976744384,"midi":100,"time":94.80232558139535,"velocity":0.3543307086614173},{"duration":0.03488372093023884,"midi":70,"time":94.81395348837209,"velocity":0.28346456692913385},{"duration":0.1860465116279073,"midi":95,"time":94.81395348837209,"velocity":0.2755905511811024},{"duration":0.15116279069766847,"midi":99,"time":94.81395348837209,"velocity":0.1732283464566929},{"duration":0.03488372093023884,"midi":103,"time":94.81395348837209,"velocity":0.2677165354330709},{"duration":0.04651162790698038,"midi":46,"time":94.82558139534883,"velocity":0.2677165354330709},{"duration":0.06976744186046346,"midi":98,"time":94.82558139534883,"velocity":0.33070866141732286},{"duration":0.04651162790698038,"midi":61,"time":94.83720930232558,"velocity":0.25984251968503935},{"duration":0.22093023255814614,"midi":65,"time":94.83720930232558,"velocity":0.6062992125984252},{"duration":0.16279069767442422,"midi":93,"time":94.83720930232558,"velocity":0.33070866141732286},{"duration":0.2093023255814046,"midi":96,"time":94.83720930232558,"velocity":0.3779527559055118},{"duration":0.1860465116279073,"midi":101,"time":94.83720930232558,"velocity":0.2677165354330709},{"duration":0.023255813953483084,"midi":37,"time":94.84883720930233,"velocity":0.3464566929133858},{"duration":0.034883720930224626,"midi":70,"time":94.86046511627907,"velocity":0.2677165354330709},{"duration":0.15116279069766847,"midi":103,"time":94.86046511627907,"velocity":0.33858267716535434},{"duration":0.023255813953483084,"midi":55,"time":94.87209302325581,"velocity":0.23622047244094488},{"duration":0.04651162790698038,"midi":85,"time":94.87209302325581,"velocity":0.2047244094488189},{"duration":0.023255813953483084,"midi":90,"time":94.87209302325581,"velocity":0.2283464566929134},{"duration":0.023255813953497295,"midi":62,"time":94.88372093023256,"velocity":0.23622047244094488},{"duration":0.023255813953497295,"midi":40,"time":94.8953488372093,"velocity":0.2283464566929134},{"duration":0.32558139534884845,"midi":73,"time":94.8953488372093,"velocity":0.4015748031496063},{"duration":0.04651162790696617,"midi":61,"time":94.90697674418605,"velocity":0.4251968503937008},{"duration":0.13953488372092693,"midi":84,"time":94.90697674418605,"velocity":0.2677165354330709},{"duration":0.12790697674418539,"midi":92,"time":94.90697674418605,"velocity":0.2204724409448819},{"duration":0.4186046511627808,"midi":97,"time":94.9186046511628,"velocity":0.33858267716535434},{"duration":0.023255813953483084,"midi":56,"time":94.93023255813954,"velocity":0.4094488188976378},{"duration":0.12790697674418539,"midi":68,"time":94.93023255813954,"velocity":0.41732283464566927},{"duration":0.06976744186046346,"midi":100,"time":94.93023255813954,"velocity":0.15748031496062992},{"duration":0.05813953488372192,"midi":87,"time":94.94186046511628,"velocity":0.1968503937007874},{"duration":0.03488372093023884,"midi":88,"time":94.94186046511628,"velocity":0.1968503937007874},{"duration":0.04651162790698038,"midi":90,"time":94.94186046511628,"velocity":0.2204724409448819},{"duration":0.023255813953497295,"midi":70,"time":94.95348837209302,"velocity":0.23622047244094488},{"duration":0.04651162790698038,"midi":91,"time":94.95348837209302,"velocity":0.14173228346456693},{"duration":0.023255813953497295,"midi":45,"time":94.96511627906976,"velocity":0.5590551181102362},{"duration":0.011627906976741542,"midi":44,"time":94.98837209302326,"velocity":0.5354330708661418},{"duration":0.05813953488372192,"midi":88,"time":94.98837209302326,"velocity":0.11811023622047244},{"duration":0.023255813953483084,"midi":42,"time":95,"velocity":0.5275590551181102},{"duration":0.023255813953497295,"midi":52,"time":95.01162790697674,"velocity":0.2677165354330709},{"duration":0.03488372093023884,"midi":93,"time":95.01162790697674,"velocity":0.08661417322834646},{"duration":0.023255813953483084,"midi":53,"time":95.03488372093024,"velocity":0.2283464566929134},{"duration":0.09302325581394655,"midi":98,"time":95.03488372093024,"velocity":0.11811023622047244},{"duration":0.034883720930224626,"midi":103,"time":95.03488372093024,"velocity":0.08661417322834646},{"duration":0.023255813953483084,"midi":60,"time":95.04651162790698,"velocity":0.2677165354330709},{"duration":0.04651162790698038,"midi":66,"time":95.05813953488372,"velocity":0.5433070866141733},{"duration":0.04651162790698038,"midi":77,"time":95.05813953488372,"velocity":0.2677165354330709},{"duration":0.04651162790698038,"midi":87,"time":95.05813953488372,"velocity":0.2047244094488189},{"duration":0.023255813953483084,"midi":36,"time":95.06976744186046,"velocity":0.2992125984251969},{"duration":0.081395348837205,"midi":61,"time":95.06976744186046,"velocity":0.4251968503937008},{"duration":0.05813953488372192,"midi":81,"time":95.06976744186046,"velocity":0.2047244094488189},{"duration":0.03488372093023884,"midi":90,"time":95.06976744186046,"velocity":0.16535433070866143},{"duration":0.09302325581396076,"midi":55,"time":95.0813953488372,"velocity":0.2992125984251969},{"duration":0.04651162790698038,"midi":84,"time":95.0813953488372,"velocity":0.08661417322834646},{"duration":0.09302325581396076,"midi":92,"time":95.0813953488372,"velocity":0.13385826771653545},{"duration":0.11627906976744384,"midi":48,"time":95.09302325581395,"velocity":0.3464566929133858},{"duration":0.04651162790698038,"midi":95,"time":95.09302325581395,"velocity":0.11023622047244094},{"duration":0.04651162790696617,"midi":68,"time":95.1046511627907,"velocity":0.4330708661417323},{"duration":0.023255813953483084,"midi":78,"time":95.1046511627907,"velocity":0.2677165354330709},{"duration":0.023255813953483084,"midi":65,"time":95.11627906976744,"velocity":0.4330708661417323},{"duration":0.05813953488372192,"midi":96,"time":95.11627906976744,"velocity":0.13385826771653545},{"duration":0.03488372093023884,"midi":103,"time":95.12790697674419,"velocity":0.09448818897637795},{"duration":0.06976744186046346,"midi":36,"time":95.13953488372093,"velocity":0.33858267716535434},{"duration":0.06976744186047767,"midi":65,"time":95.15116279069767,"velocity":0.44881889763779526},{"duration":0.04651162790696617,"midi":68,"time":95.16279069767442,"velocity":0.3228346456692913},{"duration":0.1860465116279073,"midi":87,"time":95.16279069767442,"velocity":0.5354330708661418},{"duration":0.081395348837205,"midi":84,"time":95.17441860465117,"velocity":0.30708661417322836},{"duration":0.05813953488372192,"midi":102,"time":95.17441860465117,"velocity":0.07086614173228346},{"duration":0.03488372093023884,"midi":95,"time":95.18604651162791,"velocity":0.09448818897637795},{"duration":0.023255813953497295,"midi":61,"time":95.19767441860465,"velocity":0.49606299212598426},{"duration":0.04651162790698038,"midi":82,"time":95.19767441860465,"velocity":0.44881889763779526},{"duration":0.023255813953497295,"midi":88,"time":95.19767441860465,"velocity":0.29133858267716534},{"duration":0.04651162790698038,"midi":90,"time":95.19767441860465,"velocity":0.1968503937007874},{"duration":0.06976744186046346,"midi":75,"time":95.20930232558139,"velocity":0.5590551181102362},{"duration":0.05813953488372192,"midi":91,"time":95.20930232558139,"velocity":0.2440944881889764},{"duration":0.27906976744186807,"midi":92,"time":95.20930232558139,"velocity":0.33070866141732286},{"duration":0.023255813953483084,"midi":55,"time":95.22093023255815,"velocity":0.31496062992125984},{"duration":0.023255813953483084,"midi":62,"time":95.22093023255815,"velocity":0.48031496062992124},{"duration":0.034883720930224626,"midi":68,"time":95.22093023255815,"velocity":0.33070866141732286},{"duration":0.023255813953483084,"midi":64,"time":95.23255813953489,"velocity":0.25196850393700787},{"duration":0.034883720930224626,"midi":79,"time":95.23255813953489,"velocity":0.1732283464566929},{"duration":0.13953488372092693,"midi":46,"time":95.24418604651163,"velocity":0.28346456692913385},{"duration":0.06976744186046346,"midi":81,"time":95.24418604651163,"velocity":0.4015748031496063},{"duration":0.023255813953483084,"midi":83,"time":95.24418604651163,"velocity":0.3779527559055118},{"duration":0.04651162790698038,"midi":85,"time":95.24418604651163,"velocity":0.28346456692913385},{"duration":0.03488372093023884,"midi":66,"time":95.25581395348837,"velocity":0.2125984251968504},{"duration":0.04651162790698038,"midi":69,"time":95.25581395348837,"velocity":0.25984251968503935},{"duration":0.11627906976744384,"midi":100,"time":95.25581395348837,"velocity":0.2755905511811024},{"duration":0.24418604651162923,"midi":102,"time":95.25581395348837,"velocity":0.2677165354330709},{"duration":0.023255813953497295,"midi":53,"time":95.26744186046511,"velocity":0.2440944881889764},{"duration":0.1046511627907023,"midi":82,"time":95.26744186046511,"velocity":0.48031496062992124},{"duration":0.04651162790698038,"midi":90,"time":95.26744186046511,"velocity":0.12598425196850394},{"duration":0.05813953488372192,"midi":34,"time":95.27906976744185,"velocity":0.2992125984251969},{"duration":0.15116279069768268,"midi":72,"time":95.27906976744185,"velocity":0.1968503937007874},{"duration":0.03488372093023884,"midi":76,"time":95.27906976744185,"velocity":0.4645669291338583},{"duration":0.023255813953497295,"midi":83,"time":95.27906976744185,"velocity":0.33070866141732286},{"duration":0.8139534883720927,"midi":91,"time":95.27906976744185,"velocity":0.49606299212598426},{"duration":0.023255813953483084,"midi":61,"time":95.29069767441861,"velocity":0.25984251968503935},{"duration":0.5232558139534831,"midi":84,"time":95.29069767441861,"velocity":0.3858267716535433},{"duration":0.081395348837205,"midi":63,"time":95.30232558139535,"velocity":0.3543307086614173},{"duration":0.6046511627907023,"midi":68,"time":95.30232558139535,"velocity":0.48031496062992124},{"duration":0.023255813953483084,"midi":60,"time":95.31395348837209,"velocity":0.2677165354330709},{"duration":0.023255813953483084,"midi":74,"time":95.31395348837209,"velocity":0.33070866141732286},{"duration":0.03488372093023884,"midi":95,"time":95.31395348837209,"velocity":0.09448818897637795},{"duration":0.03488372093023884,"midi":98,"time":95.32558139534883,"velocity":0.2992125984251969},{"duration":0.04651162790698038,"midi":75,"time":95.33720930232558,"velocity":0.3700787401574803},{"duration":0.03488372093023884,"midi":86,"time":95.33720930232558,"velocity":0.4330708661417323},{"duration":0.04651162790698038,"midi":88,"time":95.33720930232558,"velocity":0.36220472440944884},{"duration":0.03488372093023884,"midi":93,"time":95.33720930232558,"velocity":0.2440944881889764},{"duration":0.04651162790696617,"midi":34,"time":95.34883720930233,"velocity":0.1732283464566929},{"duration":0.081395348837205,"midi":101,"time":95.34883720930233,"velocity":0.11811023622047244},{"duration":0.24418604651162923,"midi":97,"time":95.36046511627907,"velocity":0.25196850393700787},{"duration":0.04651162790698038,"midi":56,"time":95.37209302325581,"velocity":0.14960629921259844},{"duration":0.03488372093023884,"midi":60,"time":95.37209302325581,"velocity":0.2992125984251969},{"duration":0.1046511627907023,"midi":87,"time":95.37209302325581,"velocity":0.44881889763779526},{"duration":0.03488372093023884,"midi":82,"time":95.38372093023256,"velocity":0.5590551181102362},{"duration":0.023255813953497295,"midi":75,"time":95.3953488372093,"velocity":0.33070866141732286},{"duration":0.034883720930224626,"midi":88,"time":95.40697674418605,"velocity":0.25984251968503935},{"duration":0.06976744186046346,"midi":100,"time":95.40697674418605,"velocity":0.28346456692913385},{"duration":0.04651162790696617,"midi":73,"time":95.4186046511628,"velocity":0.2204724409448819},{"duration":0.034883720930224626,"midi":76,"time":95.4186046511628,"velocity":0.5118110236220472},{"duration":0.034883720930224626,"midi":83,"time":95.4186046511628,"velocity":0.5669291338582677},{"duration":0.04651162790698038,"midi":56,"time":95.43023255813954,"velocity":0.15748031496062992},{"duration":0.034883720930224626,"midi":63,"time":95.43023255813954,"velocity":0.29133858267716534},{"duration":0.023255813953483084,"midi":81,"time":95.43023255813954,"velocity":0.2755905511811024},{"duration":0.5232558139534831,"midi":82,"time":95.43023255813954,"velocity":0.5275590551181102},{"duration":0.2325581395348877,"midi":60,"time":95.44186046511628,"velocity":0.33070866141732286},{"duration":0.3139534883720927,"midi":75,"time":95.45348837209302,"velocity":0.5039370078740157},{"duration":0.03488372093023884,"midi":88,"time":95.45348837209302,"velocity":0.36220472440944884},{"duration":0.06976744186047767,"midi":78,"time":95.46511627906976,"velocity":0.1968503937007874},{"duration":0.04651162790698038,"midi":86,"time":95.46511627906976,"velocity":0.25984251968503935},{"duration":0.06976744186047767,"midi":101,"time":95.46511627906976,"velocity":0.14960629921259844},{"duration":0.023255813953483084,"midi":48,"time":95.47674418604652,"velocity":0.47244094488188976},{"duration":0.034883720930224626,"midi":89,"time":95.47674418604652,"velocity":0.14173228346456693},{"duration":0.04651162790698038,"midi":93,"time":95.48837209302326,"velocity":0.14960629921259844},{"duration":0.034883720930224626,"midi":100,"time":95.48837209302326,"velocity":0.10236220472440945},{"duration":0.011627906976741542,"midi":46,"time":95.5,"velocity":0.5354330708661418},{"duration":0.023255813953483084,"midi":63,"time":95.5,"velocity":0.25984251968503935},{"duration":0.011627906976741542,"midi":44,"time":95.51162790697674,"velocity":0.5511811023622047},{"duration":0.023255813953497295,"midi":42,"time":95.52325581395348,"velocity":0.5433070866141733},{"duration":0.1046511627907023,"midi":56,"time":95.52325581395348,"velocity":0.2125984251968504},{"duration":0.034883720930224626,"midi":51,"time":95.53488372093024,"velocity":0.25984251968503935},{"duration":0.19767441860464885,"midi":63,"time":95.55813953488372,"velocity":0.3543307086614173},{"duration":0.09302325581394655,"midi":101,"time":95.55813953488372,"velocity":0.1732283464566929},{"duration":0.03488372093023884,"midi":81,"time":95.59302325581395,"velocity":0.3779527559055118},{"duration":0.05813953488372192,"midi":95,"time":95.59302325581395,"velocity":0.1889763779527559},{"duration":0.023255813953483084,"midi":34,"time":95.61627906976744,"velocity":0.29133858267716534},{"duration":0.5,"midi":97,"time":95.61627906976744,"velocity":0.36220472440944884},{"duration":0.034883720930224626,"midi":102,"time":95.61627906976744,"velocity":0.07086614173228346},{"duration":0.05813953488372192,"midi":56,"time":95.67441860465117,"velocity":0.1889763779527559},{"duration":0.05813953488372192,"midi":79,"time":95.67441860465117,"velocity":0.12598425196850394},{"duration":0.25581395348837077,"midi":60,"time":95.70930232558139,"velocity":0.33070866141732286},{"duration":0.10465116279068809,"midi":51,"time":95.73255813953489,"velocity":0.2755905511811024},{"duration":0.04651162790696617,"midi":77,"time":95.73255813953489,"velocity":0.2440944881889764},{"duration":0.05813953488372192,"midi":86,"time":95.73255813953489,"velocity":0.2125984251968504},{"duration":0.1046511627907023,"midi":56,"time":95.74418604651163,"velocity":0.29133858267716534},{"duration":0.04651162790698038,"midi":74,"time":95.74418604651163,"velocity":0.23622047244094488},{"duration":0.06976744186046346,"midi":78,"time":95.74418604651163,"velocity":0.18110236220472442},{"duration":0.081395348837205,"midi":81,"time":95.74418604651163,"velocity":0.25196850393700787},{"duration":0.11627906976744384,"midi":44,"time":95.75581395348837,"velocity":0.3779527559055118},{"duration":0.17441860465116577,"midi":75,"time":95.77906976744185,"velocity":0.44881889763779526},{"duration":0.023255813953483084,"midi":33,"time":95.81395348837209,"velocity":0.2755905511811024},{"duration":0.09302325581396076,"midi":32,"time":95.83720930232558,"velocity":0.2755905511811024},{"duration":0.04651162790696617,"midi":51,"time":95.84883720930233,"velocity":0.14960629921259844},{"duration":0.06976744186046346,"midi":79,"time":95.8953488372093,"velocity":0.12598425196850394},{"duration":0.09302325581394655,"midi":63,"time":95.9186046511628,"velocity":0.4409448818897638},{"duration":0.13953488372092693,"midi":68,"time":95.9186046511628,"velocity":0.4251968503937008},{"duration":0.13953488372094114,"midi":82,"time":95.96511627906976,"velocity":0.25196850393700787},{"duration":0.05813953488372192,"midi":89,"time":95.98837209302326,"velocity":0.23622047244094488},{"duration":0.05813953488372192,"midi":95,"time":95.98837209302326,"velocity":0.1732283464566929},{"duration":0.13953488372092693,"midi":96,"time":95.98837209302326,"velocity":0.2992125984251969},{"duration":0.06976744186046346,"midi":102,"time":95.98837209302326,"velocity":0.2440944881889764},{"duration":0.13953488372092693,"midi":88,"time":96,"velocity":0.25196850393700787},{"duration":0.081395348837205,"midi":90,"time":96,"velocity":0.3937007874015748},{"duration":0.023255813953497295,"midi":45,"time":96.01162790697674,"velocity":0.5433070866141733},{"duration":0.011627906976741542,"midi":53,"time":96.01162790697674,"velocity":0.5196850393700787},{"duration":0.023255813953497295,"midi":62,"time":96.01162790697674,"velocity":0.3228346456692913},{"duration":0.023255813953483084,"midi":44,"time":96.03488372093024,"velocity":0.6141732283464567},{"duration":0.023255813953483084,"midi":67,"time":96.04651162790698,"velocity":0.3858267716535433},{"duration":0.04651162790696617,"midi":93,"time":96.04651162790698,"velocity":0.07874015748031496},{"duration":0.023255813953483084,"midi":42,"time":96.05813953488372,"velocity":0.5590551181102362},{"duration":0.11627906976744384,"midi":68,"time":96.06976744186046,"velocity":0.48031496062992124},{"duration":0.08139534883721922,"midi":63,"time":96.0813953488372,"velocity":0.2125984251968504},{"duration":0.05813953488372192,"midi":85,"time":96.0813953488372,"velocity":0.1968503937007874},{"duration":0.09302325581396076,"midi":89,"time":96.0813953488372,"velocity":0.28346456692913385},{"duration":0.04651162790698038,"midi":83,"time":96.09302325581395,"velocity":0.10236220472440945},{"duration":0.023255813953483084,"midi":37,"time":96.1046511627907,"velocity":0.3937007874015748},{"duration":0.034883720930224626,"midi":57,"time":96.11627906976744,"velocity":0.3543307086614173},{"duration":0.03488372093023884,"midi":36,"time":96.12790697674419,"velocity":0.31496062992125984},{"duration":0.03488372093023884,"midi":86,"time":96.12790697674419,"velocity":0.2283464566929134},{"duration":0.03488372093023884,"midi":91,"time":96.12790697674419,"velocity":0.07086614173228346},{"duration":0.17441860465116577,"midi":97,"time":96.12790697674419,"velocity":0.28346456692913385},{"duration":0.04651162790698038,"midi":102,"time":96.12790697674419,"velocity":0.15748031496062992},{"duration":0.06976744186046346,"midi":96,"time":96.13953488372093,"velocity":0.28346456692913385},{"duration":0.023255813953497295,"midi":58,"time":96.15116279069767,"velocity":0.36220472440944884},{"duration":0.08139534883721922,"midi":70,"time":96.15116279069767,"velocity":0.5275590551181102},{"duration":0.034883720930224626,"midi":77,"time":96.16279069767442,"velocity":0.2125984251968504},{"duration":0.034883720930224626,"midi":83,"time":96.16279069767442,"velocity":0.33070866141732286},{"duration":0.034883720930224626,"midi":103,"time":96.16279069767442,"velocity":0.11023622047244094},{"duration":0.023255813953483084,"midi":59,"time":96.18604651162791,"velocity":0.3779527559055118},{"duration":0.081395348837205,"midi":80,"time":96.18604651162791,"velocity":0.13385826771653545},{"duration":0.081395348837205,"midi":68,"time":96.19767441860465,"velocity":0.4645669291338583},{"duration":0.023255813953497295,"midi":58,"time":96.20930232558139,"velocity":0.36220472440944884},{"duration":0.05813953488372192,"midi":72,"time":96.20930232558139,"velocity":0.4251968503937008},{"duration":0.05813953488372192,"midi":83,"time":96.23255813953489,"velocity":0.25196850393700787},{"duration":0.034883720930224626,"midi":89,"time":96.24418604651163,"velocity":0.14173228346456693},{"duration":0.081395348837205,"midi":88,"time":96.25581395348837,"velocity":0.2440944881889764},{"duration":0.023255813953497295,"midi":45,"time":96.26744186046511,"velocity":0.2283464566929134},{"duration":0.03488372093023884,"midi":56,"time":96.26744186046511,"velocity":0.25984251968503935},{"duration":0.04651162790698038,"midi":73,"time":96.26744186046511,"velocity":0.5748031496062992},{"duration":0.03488372093023884,"midi":79,"time":96.26744186046511,"velocity":0.11811023622047244},{"duration":0.03488372093023884,"midi":81,"time":96.26744186046511,"velocity":0.18110236220472442},{"duration":0.03488372093023884,"midi":90,"time":96.26744186046511,"velocity":0.11811023622047244},{"duration":0.13953488372094114,"midi":102,"time":96.27906976744185,"velocity":0.2992125984251969},{"duration":0.023255813953483084,"midi":39,"time":96.29069767441861,"velocity":0.33070866141732286},{"duration":0.034883720930224626,"midi":63,"time":96.29069767441861,"velocity":0.25984251968503935},{"duration":0.034883720930224626,"midi":66,"time":96.29069767441861,"velocity":0.28346456692913385},{"duration":0.081395348837205,"midi":68,"time":96.29069767441861,"velocity":0.36220472440944884},{"duration":0.12790697674418539,"midi":100,"time":96.29069767441861,"velocity":0.28346456692913385},{"duration":0.034883720930224626,"midi":84,"time":96.30232558139535,"velocity":0.3228346456692913},{"duration":0.13953488372092693,"midi":101,"time":96.30232558139535,"velocity":0.25984251968503935},{"duration":0.04651162790698038,"midi":103,"time":96.30232558139535,"velocity":0.18110236220472442},{"duration":0.023255813953483084,"midi":38,"time":96.31395348837209,"velocity":0.36220472440944884},{"duration":0.06976744186046346,"midi":72,"time":96.31395348837209,"velocity":0.47244094488188976},{"duration":0.081395348837205,"midi":86,"time":96.31395348837209,"velocity":0.15748031496062992},{"duration":0.13953488372092693,"midi":65,"time":96.32558139534883,"velocity":0.3937007874015748},{"duration":0.06976744186047767,"midi":58,"time":96.33720930232558,"velocity":0.47244094488188976},{"duration":0.023255813953497295,"midi":85,"time":96.33720930232558,"velocity":0.2283464566929134},{"duration":0.05813953488372192,"midi":92,"time":96.33720930232558,"velocity":0.1732283464566929},{"duration":0.081395348837205,"midi":89,"time":96.34883720930233,"velocity":0.2204724409448819},{"duration":0.03488372093023884,"midi":103,"time":96.37209302325581,"velocity":0.14173228346456693},{"duration":0.023255813953497295,"midi":40,"time":96.38372093023256,"velocity":0.28346456692913385},{"duration":0.03488372093023884,"midi":85,"time":96.38372093023256,"velocity":0.1968503937007874},{"duration":0.03488372093023884,"midi":68,"time":96.3953488372093,"velocity":0.2125984251968504},{"duration":0.023255813953497295,"midi":72,"time":96.3953488372093,"velocity":0.2283464566929134},{"duration":0.04651162790698038,"midi":88,"time":96.3953488372093,"velocity":0.15748031496062992},{"duration":0.023255813953483084,"midi":57,"time":96.40697674418605,"velocity":0.48031496062992124},{"duration":0.034883720930224626,"midi":78,"time":96.40697674418605,"velocity":0.15748031496062992},{"duration":0.034883720930224626,"midi":81,"time":96.40697674418605,"velocity":0.2204724409448819},{"duration":0.04651162790696617,"midi":74,"time":96.4186046511628,"velocity":0.18110236220472442},{"duration":0.09302325581394655,"midi":56,"time":96.43023255813954,"velocity":0.4330708661417323},{"duration":0.03488372093023884,"midi":33,"time":96.46511627906976,"velocity":0.25984251968503935},{"duration":0.05813953488372192,"midi":64,"time":96.46511627906976,"velocity":0.2992125984251969},{"duration":0.04651162790698038,"midi":85,"time":96.46511627906976,"velocity":0.1732283464566929},{"duration":0.034883720930224626,"midi":73,"time":96.47674418604652,"velocity":0.3228346456692913},{"duration":0.03488372093023884,"midi":75,"time":96.5,"velocity":0.10236220472440945},{"duration":0.03488372093023884,"midi":72,"time":96.51162790697674,"velocity":0.25984251968503935},{"duration":0.09302325581396076,"midi":84,"time":96.51162790697674,"velocity":0.2755905511811024},{"duration":0.023255813953497295,"midi":45,"time":96.52325581395348,"velocity":0.31496062992125984},{"duration":0.04651162790698038,"midi":78,"time":96.52325581395348,"velocity":0.14960629921259844},{"duration":0.05813953488372192,"midi":93,"time":96.52325581395348,"velocity":0.10236220472440945},{"duration":0.1046511627907023,"midi":101,"time":96.52325581395348,"velocity":0.25984251968503935},{"duration":0.034883720930224626,"midi":77,"time":96.53488372093024,"velocity":0.14960629921259844},{"duration":0.05813953488370771,"midi":82,"time":96.53488372093024,"velocity":0.11023622047244094},{"duration":0.3372093023255758,"midi":100,"time":96.53488372093024,"velocity":0.3700787401574803},{"duration":0.05813953488370771,"midi":103,"time":96.53488372093024,"velocity":0.3543307086614173},{"duration":0.06976744186046346,"midi":88,"time":96.54651162790698,"velocity":0.2283464566929134},{"duration":0.034883720930224626,"midi":91,"time":96.54651162790698,"velocity":0.4251968503937008},{"duration":0.12790697674418539,"midi":94,"time":96.54651162790698,"velocity":0.3700787401574803},{"duration":0.5697674418604635,"midi":99,"time":96.54651162790698,"velocity":0.3779527559055118},{"duration":0.5,"midi":102,"time":96.54651162790698,"velocity":0.4409448818897638},{"duration":0.011627906976741542,"midi":45,"time":96.55813953488372,"velocity":0.5511811023622047},{"duration":0.023255813953483084,"midi":64,"time":96.55813953488372,"velocity":0.2677165354330709},{"duration":0.1046511627907023,"midi":81,"time":96.55813953488372,"velocity":0.13385826771653545},{"duration":0.04651162790698038,"midi":86,"time":96.55813953488372,"velocity":0.1732283464566929},{"duration":0.16279069767442422,"midi":98,"time":96.55813953488372,"velocity":0.31496062992125984},{"duration":0.011627906976741542,"midi":44,"time":96.56976744186046,"velocity":0.5669291338582677},{"duration":0.03488372093023884,"midi":68,"time":96.56976744186046,"velocity":0.3464566929133858},{"duration":0.03488372093023884,"midi":72,"time":96.56976744186046,"velocity":0.2755905511811024},{"duration":0.03488372093023884,"midi":76,"time":96.56976744186046,"velocity":0.29133858267716534},{"duration":0.38372093023255616,"midi":87,"time":96.56976744186046,"velocity":0.3937007874015748},{"duration":0.04651162790698038,"midi":95,"time":96.56976744186046,"velocity":0.14173228346456693},{"duration":0.023255813953497295,"midi":42,"time":96.5813953488372,"velocity":0.5590551181102362},{"duration":0.04651162790698038,"midi":57,"time":96.5813953488372,"velocity":0.3543307086614173},{"duration":0.03488372093023884,"midi":65,"time":96.5813953488372,"velocity":0.33070866141732286},{"duration":0.06976744186046346,"midi":71,"time":96.5813953488372,"velocity":0.2125984251968504},{"duration":0.09302325581396076,"midi":83,"time":96.5813953488372,"velocity":0.3700787401574803},{"duration":0.08139534883721922,"midi":90,"time":96.5813953488372,"velocity":0.4881889763779528},{"duration":0.06976744186047767,"midi":75,"time":96.59302325581395,"velocity":0.2755905511811024},{"duration":0.05813953488372192,"midi":78,"time":96.59302325581395,"velocity":0.2992125984251969},{"duration":0.06976744186047767,"midi":97,"time":96.59302325581395,"velocity":0.3228346456692913},{"duration":0.05813953488372192,"midi":53,"time":96.6046511627907,"velocity":0.25984251968503935},{"duration":0.05813953488372192,"midi":85,"time":96.6046511627907,"velocity":0.31496062992125984},{"duration":0.023255813953483084,"midi":40,"time":96.61627906976744,"velocity":0.41732283464566927},{"duration":0.04651162790698038,"midi":66,"time":96.61627906976744,"velocity":0.3858267716535433},{"duration":0.03488372093023884,"midi":80,"time":96.62790697674419,"velocity":0.14960629921259844},{"duration":0.023255813953483084,"midi":91,"time":96.62790697674419,"velocity":0.28346456692913385},{"duration":0.03488372093023884,"midi":48,"time":96.63953488372093,"velocity":0.1968503937007874},{"duration":0.13953488372092693,"midi":68,"time":96.63953488372093,"velocity":0.4645669291338583},{"duration":0.09302325581396076,"midi":77,"time":96.65116279069767,"velocity":0.1732283464566929},{"duration":0.1046511627907023,"midi":79,"time":96.65116279069767,"velocity":0.29133858267716534},{"duration":0.023255813953483084,"midi":39,"time":96.66279069767442,"velocity":0.28346456692913385},{"duration":0.034883720930224626,"midi":63,"time":96.66279069767442,"velocity":0.30708661417322836},{"duration":0.06976744186046346,"midi":84,"time":96.66279069767442,"velocity":0.3700787401574803},{"duration":0.023255813953483084,"midi":86,"time":96.66279069767442,"velocity":0.3464566929133858},{"duration":0.06976744186046346,"midi":91,"time":96.66279069767442,"velocity":0.48031496062992124},{"duration":0.1860465116279073,"midi":101,"time":96.66279069767442,"velocity":0.36220472440944884},{"duration":0.06976744186046346,"midi":76,"time":96.68604651162791,"velocity":0.2755905511811024},{"duration":0.06976744186046346,"midi":90,"time":96.68604651162791,"velocity":0.1732283464566929},{"duration":0.32558139534883423,"midi":92,"time":96.68604651162791,"velocity":0.5275590551181102},{"duration":0.11627906976744384,"midi":96,"time":96.68604651162791,"velocity":0.49606299212598426},{"duration":0.09302325581396076,"midi":65,"time":96.69767441860465,"velocity":0.41732283464566927},{"duration":0.04651162790698038,"midi":94,"time":96.69767441860465,"velocity":0.12598425196850394},{"duration":0.2906976744186096,"midi":97,"time":96.69767441860465,"velocity":0.18110236220472442},{"duration":0.13953488372092693,"midi":72,"time":96.73255813953489,"velocity":0.2992125984251969},{"duration":0.04651162790696617,"midi":85,"time":96.73255813953489,"velocity":0.2283464566929134},{"duration":0.034883720930224626,"midi":30,"time":96.74418604651163,"velocity":0.11023622047244094},{"duration":0.04651162790698038,"midi":56,"time":96.74418604651163,"velocity":0.1889763779527559},{"duration":0.24418604651162923,"midi":84,"time":96.74418604651163,"velocity":0.3543307086614173},{"duration":0.03488372093023884,"midi":75,"time":96.75581395348837,"velocity":0.2677165354330709},{"duration":0.03488372093023884,"midi":91,"time":96.75581395348837,"velocity":0.28346456692913385},{"duration":0.03488372093023884,"midi":98,"time":96.77906976744185,"velocity":0.11811023622047244},{"duration":0.023255813953483084,"midi":69,"time":96.79069767441861,"velocity":0.23622047244094488},{"duration":0.06976744186046346,"midi":90,"time":96.79069767441861,"velocity":0.2755905511811024},{"duration":0.05813953488372192,"midi":93,"time":96.79069767441861,"velocity":0.15748031496062992},{"duration":0.10465116279068809,"midi":94,"time":96.79069767441861,"velocity":0.2125984251968504},{"duration":0.11627906976744384,"midi":65,"time":96.80232558139535,"velocity":0.3858267716535433},{"duration":0.04651162790698038,"midi":83,"time":96.80232558139535,"velocity":0.12598425196850394},{"duration":0.04651162790698038,"midi":95,"time":96.80232558139535,"velocity":0.47244094488188976},{"duration":0.023255813953483084,"midi":41,"time":96.81395348837209,"velocity":0.31496062992125984},{"duration":0.081395348837205,"midi":57,"time":96.81395348837209,"velocity":0.16535433070866143},{"duration":0.11627906976744384,"midi":68,"time":96.81395348837209,"velocity":0.4566929133858268},{"duration":0.03488372093023884,"midi":75,"time":96.81395348837209,"velocity":0.1968503937007874},{"duration":0.04651162790698038,"midi":79,"time":96.81395348837209,"velocity":0.2125984251968504},{"duration":0.46511627906976116,"midi":96,"time":96.81395348837209,"velocity":0.5826771653543307},{"duration":0.023255813953497295,"midi":63,"time":96.82558139534883,"velocity":0.29133858267716534},{"duration":0.023255813953497295,"midi":40,"time":96.83720930232558,"velocity":0.3228346456692913},{"duration":0.04651162790698038,"midi":103,"time":96.83720930232558,"velocity":0.1968503937007874},{"duration":0.04651162790696617,"midi":60,"time":96.84883720930233,"velocity":0.11023622047244094},{"duration":0.05813953488372192,"midi":75,"time":96.86046511627907,"velocity":0.2283464566929134},{"duration":0.034883720930224626,"midi":83,"time":96.86046511627907,"velocity":0.12598425196850394},{"duration":0.034883720930224626,"midi":91,"time":96.86046511627907,"velocity":0.23622047244094488},{"duration":0.10465116279068809,"midi":101,"time":96.86046511627907,"velocity":0.2047244094488189},{"duration":0.09302325581396076,"midi":90,"time":96.8953488372093,"velocity":0.10236220472440945},{"duration":0.1860465116278931,"midi":72,"time":96.90697674418605,"velocity":0.3700787401574803},{"duration":0.06976744186046346,"midi":78,"time":96.9186046511628,"velocity":0.2125984251968504},{"duration":0.04651162790696617,"midi":83,"time":96.9186046511628,"velocity":0.1732283464566929},{"duration":0.05813953488372192,"midi":86,"time":96.9186046511628,"velocity":0.23622047244094488},{"duration":0.04651162790696617,"midi":95,"time":96.9186046511628,"velocity":0.4881889763779528},{"duration":0.06976744186046346,"midi":98,"time":96.9186046511628,"velocity":0.2677165354330709},{"duration":0.011627906976741542,"midi":67,"time":96.93023255813954,"velocity":0.5118110236220472},{"duration":0.3953488372092977,"midi":75,"time":96.93023255813954,"velocity":0.4330708661417323},{"duration":0.12790697674418539,"midi":91,"time":96.93023255813954,"velocity":0.33858267716535434},{"duration":0.03488372093023884,"midi":93,"time":96.94186046511628,"velocity":0.11023622047244094},{"duration":0.04651162790698038,"midi":53,"time":96.95348837209302,"velocity":0.2283464566929134},{"duration":0.03488372093023884,"midi":57,"time":96.95348837209302,"velocity":0.2283464566929134},{"duration":0.023255813953497295,"midi":66,"time":96.95348837209302,"velocity":0.4330708661417323},{"duration":0.05813953488372192,"midi":100,"time":96.95348837209302,"velocity":0.10236220472440945},{"duration":0.023255813953497295,"midi":40,"time":96.96511627906976,"velocity":0.2992125984251969},{"duration":0.03488372093023884,"midi":65,"time":96.96511627906976,"velocity":0.47244094488188976},{"duration":0.03488372093023884,"midi":94,"time":96.96511627906976,"velocity":0.2992125984251969},{"duration":0.06976744186046346,"midi":82,"time":96.97674418604652,"velocity":0.14960629921259844},{"duration":0.023255813953483084,"midi":42,"time":96.98837209302326,"velocity":0.25196850393700787},{"duration":0.05813953488372192,"midi":48,"time":96.98837209302326,"velocity":0.25196850393700787},{"duration":0.04651162790698038,"midi":95,"time":96.98837209302326,"velocity":0.3228346456692913},{"duration":0.03488372093023884,"midi":66,"time":97,"velocity":0.4015748031496063},{"duration":0.09302325581394655,"midi":77,"time":97,"velocity":0.14173228346456693},{"duration":0.03488372093023884,"midi":90,"time":97,"velocity":0.10236220472440945},{"duration":0.03488372093023884,"midi":41,"time":97.01162790697674,"velocity":0.2440944881889764},{"duration":0.03488372093023884,"midi":63,"time":97.01162790697674,"velocity":0.2677165354330709},{"duration":0.11627906976744384,"midi":92,"time":97.02325581395348,"velocity":0.2440944881889764},{"duration":0.25581395348837077,"midi":94,"time":97.02325581395348,"velocity":0.2755905511811024},{"duration":0.11627906976744384,"midi":101,"time":97.02325581395348,"velocity":0.1889763779527559},{"duration":0.023255813953483084,"midi":57,"time":97.03488372093024,"velocity":0.5118110236220472},{"duration":0.034883720930224626,"midi":65,"time":97.03488372093024,"velocity":0.4330708661417323},{"duration":0.11627906976742963,"midi":68,"time":97.03488372093024,"velocity":0.3858267716535433},{"duration":0.081395348837205,"midi":97,"time":97.03488372093024,"velocity":0.18110236220472442},{"duration":0.2093023255813904,"midi":88,"time":97.04651162790698,"velocity":0.4015748031496063},{"duration":0.06976744186046346,"midi":95,"time":97.04651162790698,"velocity":0.25196850393700787},{"duration":0.011627906976741542,"midi":56,"time":97.05813953488372,"velocity":0.5511811023622047},{"duration":0.023255813953483084,"midi":63,"time":97.05813953488372,"velocity":0.41732283464566927},{"duration":0.04651162790698038,"midi":90,"time":97.05813953488372,"velocity":0.2677165354330709},{"duration":0.17441860465116577,"midi":102,"time":97.05813953488372,"velocity":0.28346456692913385},{"duration":0.011627906976741542,"midi":55,"time":97.06976744186046,"velocity":0.5275590551181102},{"duration":0.011627906976741542,"midi":45,"time":97.0813953488372,"velocity":0.5354330708661418},{"duration":0.04651162790698038,"midi":65,"time":97.0813953488372,"velocity":0.3543307086614173},{"duration":0.03488372093023884,"midi":83,"time":97.0813953488372,"velocity":0.14173228346456693},{"duration":0.16279069767442422,"midi":91,"time":97.0813953488372,"velocity":0.28346456692913385},{"duration":0.011627906976755753,"midi":44,"time":97.09302325581395,"velocity":0.5984251968503937},{"duration":0.023255813953497295,"midi":61,"time":97.09302325581395,"velocity":0.4330708661417323},{"duration":0.011627906976741542,"midi":43,"time":97.1046511627907,"velocity":0.5590551181102362},{"duration":0.10465116279068809,"midi":84,"time":97.1046511627907,"velocity":0.28346456692913385},{"duration":0.023255813953483084,"midi":42,"time":97.11627906976744,"velocity":0.5354330708661418},{"duration":0.023255813953483084,"midi":51,"time":97.11627906976744,"velocity":0.25984251968503935},{"duration":0.09302325581394655,"midi":60,"time":97.11627906976744,"velocity":0.47244094488188976},{"duration":0.5116279069767415,"midi":99,"time":97.12790697674419,"velocity":0.3779527559055118},{"duration":0.06976744186046346,"midi":98,"time":97.13953488372093,"velocity":0.09448818897637795},{"duration":0.03488372093023884,"midi":77,"time":97.15116279069767,"velocity":0.14960629921259844},{"duration":0.11627906976744384,"midi":95,"time":97.15116279069767,"velocity":0.1889763779527559},{"duration":0.023255813953483084,"midi":63,"time":97.16279069767442,"velocity":0.2992125984251969},{"duration":0.24418604651162923,"midi":68,"time":97.16279069767442,"velocity":0.3937007874015748},{"duration":0.06976744186046346,"midi":92,"time":97.16279069767442,"velocity":0.2204724409448819},{"duration":0.04651162790698038,"midi":83,"time":97.17441860465117,"velocity":0.15748031496062992},{"duration":0.05813953488372192,"midi":97,"time":97.17441860465117,"velocity":0.11811023622047244},{"duration":0.023255813953483084,"midi":36,"time":97.18604651162791,"velocity":0.25196850393700787},{"duration":0.06976744186046346,"midi":81,"time":97.18604651162791,"velocity":0.2204724409448819},{"duration":0.04651162790698038,"midi":85,"time":97.18604651162791,"velocity":0.18110236220472442},{"duration":0.04651162790698038,"midi":90,"time":97.18604651162791,"velocity":0.10236220472440945},{"duration":0.11627906976744384,"midi":48,"time":97.19767441860465,"velocity":0.33858267716535434},{"duration":0.03488372093023884,"midi":55,"time":97.19767441860465,"velocity":0.2677165354330709},{"duration":0.023255813953497295,"midi":61,"time":97.20930232558139,"velocity":0.3779527559055118},{"duration":0.06976744186046346,"midi":78,"time":97.20930232558139,"velocity":0.1732283464566929},{"duration":0.04651162790698038,"midi":82,"time":97.20930232558139,"velocity":0.14960629921259844},{"duration":0.034883720930224626,"midi":65,"time":97.22093023255815,"velocity":0.3779527559055118},{"duration":0.04651162790698038,"midi":36,"time":97.24418604651163,"velocity":0.3700787401574803},{"duration":0.034883720930224626,"midi":92,"time":97.24418604651163,"velocity":0.11023622047244094},{"duration":0.1046511627907023,"midi":91,"time":97.25581395348837,"velocity":0.14960629921259844},{"duration":0.05813953488372192,"midi":57,"time":97.26744186046511,"velocity":0.33070866141732286},{"duration":0.023255813953497295,"midi":65,"time":97.27906976744185,"velocity":0.36220472440944884},{"duration":0.023255813953483084,"midi":66,"time":97.30232558139535,"velocity":0.30708661417322836},{"duration":0.081395348837205,"midi":88,"time":97.30232558139535,"velocity":0.41732283464566927},{"duration":0.023255813953483084,"midi":63,"time":97.31395348837209,"velocity":0.3700787401574803},{"duration":0.3139534883720927,"midi":80,"time":97.31395348837209,"velocity":0.5118110236220472},{"duration":0.03488372093023884,"midi":90,"time":97.31395348837209,"velocity":0.2755905511811024},{"duration":0.16279069767442422,"midi":94,"time":97.31395348837209,"velocity":0.2440944881889764},{"duration":0.30232558139535115,"midi":97,"time":97.31395348837209,"velocity":0.2677165354330709},{"duration":1.058139534883722,"midi":101,"time":97.31395348837209,"velocity":0.4409448818897638},{"duration":0.05813953488372192,"midi":58,"time":97.32558139534883,"velocity":0.3700787401574803},{"duration":0.08139534883721922,"midi":73,"time":97.32558139534883,"velocity":0.5984251968503937},{"duration":0.023255813953497295,"midi":45,"time":97.33720930232558,"velocity":0.3228346456692913},{"duration":0.03488372093023884,"midi":78,"time":97.33720930232558,"velocity":0.3464566929133858},{"duration":0.4418604651162781,"midi":89,"time":97.33720930232558,"velocity":0.5433070866141733},{"duration":0.09302325581396076,"midi":95,"time":97.33720930232558,"velocity":0.2992125984251969},{"duration":0.1860465116279073,"midi":53,"time":97.34883720930233,"velocity":0.2992125984251969},{"duration":0.36046511627905886,"midi":93,"time":97.34883720930233,"velocity":0.33858267716535434},{"duration":0.04651162790696617,"midi":103,"time":97.34883720930233,"velocity":0.2992125984251969},{"duration":0.05813953488372192,"midi":46,"time":97.36046511627907,"velocity":0.28346456692913385},{"duration":0.023255813953483084,"midi":79,"time":97.36046511627907,"velocity":0.28346456692913385},{"duration":0.04651162790698038,"midi":83,"time":97.36046511627907,"velocity":0.2755905511811024},{"duration":0.081395348837205,"midi":96,"time":97.36046511627907,"velocity":0.14960629921259844},{"duration":0.023255813953483084,"midi":36,"time":97.37209302325581,"velocity":0.2755905511811024},{"duration":0.023255813953483084,"midi":77,"time":97.37209302325581,"velocity":0.28346456692913385},{"duration":0.023255813953483084,"midi":84,"time":97.37209302325581,"velocity":0.2283464566929134},{"duration":0.023255813953497295,"midi":102,"time":97.38372093023256,"velocity":0.23622047244094488},{"duration":0.06976744186046346,"midi":61,"time":97.3953488372093,"velocity":0.3779527559055118},{"duration":0.081395348837205,"midi":34,"time":97.40697674418605,"velocity":0.2992125984251969},{"duration":0.12790697674418539,"midi":82,"time":97.40697674418605,"velocity":0.29133858267716534},{"duration":0.2906976744185954,"midi":77,"time":97.4186046511628,"velocity":0.2992125984251969},{"duration":0.05813953488372192,"midi":68,"time":97.43023255813954,"velocity":0.1732283464566929},{"duration":0.19767441860464885,"midi":73,"time":97.43023255813954,"velocity":0.4645669291338583},{"duration":0.05813953488372192,"midi":102,"time":97.43023255813954,"velocity":0.33070866141732286},{"duration":0.15116279069766847,"midi":84,"time":97.44186046511628,"velocity":0.3779527559055118},{"duration":0.16279069767442422,"midi":95,"time":97.44186046511628,"velocity":0.2992125984251969},{"duration":0.03488372093023884,"midi":86,"time":97.45348837209302,"velocity":0.07086614173228346},{"duration":0.081395348837205,"midi":103,"time":97.47674418604652,"velocity":0.2047244094488189},{"duration":0.04651162790698038,"midi":61,"time":97.5,"velocity":0.2440944881889764},{"duration":0.48837209302325846,"midi":102,"time":97.54651162790698,"velocity":0.4015748031496063},{"duration":0.15116279069766847,"midi":82,"time":97.55813953488372,"velocity":0.25196850393700787},{"duration":0.023255813953497295,"midi":52,"time":97.5813953488372,"velocity":0.3779527559055118},{"duration":0.418604651162795,"midi":94,"time":97.5813953488372,"velocity":0.2992125984251969},{"duration":0.12790697674418539,"midi":100,"time":97.5813953488372,"velocity":0.36220472440944884},{"duration":0.2093023255814046,"midi":103,"time":97.5813953488372,"velocity":0.2283464566929134},{"duration":0.08139534883721922,"midi":61,"time":97.59302325581395,"velocity":0.2755905511811024},{"duration":0.03488372093023884,"midi":68,"time":97.59302325581395,"velocity":0.10236220472440945},{"duration":0.09302325581396076,"midi":70,"time":97.59302325581395,"velocity":0.2677165354330709},{"duration":0.06976744186047767,"midi":91,"time":97.59302325581395,"velocity":0.3464566929133858},{"duration":0.011627906976741542,"midi":48,"time":97.6046511627907,"velocity":0.5118110236220472},{"duration":0.09302325581394655,"midi":79,"time":97.6046511627907,"velocity":0.4645669291338583},{"duration":0.15116279069766847,"midi":84,"time":97.6046511627907,"velocity":0.3700787401574803},{"duration":0.011627906976741542,"midi":45,"time":97.61627906976744,"velocity":0.5905511811023622},{"duration":0.05813953488372192,"midi":53,"time":97.61627906976744,"velocity":0.1968503937007874},{"duration":0.04651162790698038,"midi":65,"time":97.61627906976744,"velocity":0.2440944881889764},{"duration":0.09302325581394655,"midi":88,"time":97.61627906976744,"velocity":0.4645669291338583},{"duration":0.011627906976741542,"midi":44,"time":97.62790697674419,"velocity":0.5905511811023622},{"duration":0.09302325581396076,"midi":72,"time":97.62790697674419,"velocity":0.4094488188976378},{"duration":0.11627906976744384,"midi":92,"time":97.62790697674419,"velocity":0.29133858267716534},{"duration":0.011627906976741542,"midi":43,"time":97.63953488372093,"velocity":0.5590551181102362},{"duration":0.1046511627907023,"midi":98,"time":97.63953488372093,"velocity":0.31496062992125984},{"duration":0.011627906976755753,"midi":42,"time":97.65116279069767,"velocity":0.5275590551181102},{"duration":0.12790697674418539,"midi":95,"time":97.65116279069767,"velocity":0.2204724409448819},{"duration":0.04651162790696617,"midi":66,"time":97.66279069767442,"velocity":0.3858267716535433},{"duration":0.2906976744185954,"midi":99,"time":97.67441860465117,"velocity":0.2755905511811024},{"duration":0.023255813953483084,"midi":80,"time":97.68604651162791,"velocity":0.28346456692913385},{"duration":0.05813953488372192,"midi":90,"time":97.68604651162791,"velocity":0.3700787401574803},{"duration":0.06976744186046346,"midi":87,"time":97.69767441860465,"velocity":0.3543307086614173},{"duration":0.03488372093023884,"midi":36,"time":97.70930232558139,"velocity":0.31496062992125984},{"duration":0.19767441860466306,"midi":65,"time":97.70930232558139,"velocity":0.4015748031496063},{"duration":0.3604651162790731,"midi":73,"time":97.70930232558139,"velocity":0.3464566929133858},{"duration":0.03488372093023884,"midi":79,"time":97.70930232558139,"velocity":0.2677165354330709},{"duration":0.10465116279068809,"midi":70,"time":97.72093023255815,"velocity":0.25984251968503935},{"duration":0.05813953488370771,"midi":80,"time":97.72093023255815,"velocity":0.2440944881889764},{"duration":0.034883720930224626,"midi":82,"time":97.72093023255815,"velocity":0.4566929133858268},{"duration":0.15116279069766847,"midi":86,"time":97.72093023255815,"velocity":0.3779527559055118},{"duration":0.06976744186046346,"midi":100,"time":97.72093023255815,"velocity":0.2047244094488189},{"duration":0.023255813953483084,"midi":76,"time":97.73255813953489,"velocity":0.28346456692913385},{"duration":0.04651162790696617,"midi":81,"time":97.73255813953489,"velocity":0.48031496062992124},{"duration":0.03488372093023884,"midi":57,"time":97.75581395348837,"velocity":0.28346456692913385},{"duration":0.023255813953497295,"midi":76,"time":97.76744186046511,"velocity":0.2677165354330709},{"duration":0.05813953488372192,"midi":84,"time":97.76744186046511,"velocity":0.2677165354330709},{"duration":0.06976744186047767,"midi":82,"time":97.77906976744185,"velocity":0.5590551181102362},{"duration":0.011627906976755753,"midi":88,"time":97.77906976744185,"velocity":0.5275590551181102},{"duration":0.27906976744186807,"midi":92,"time":97.77906976744185,"velocity":0.23622047244094488},{"duration":0.04651162790696617,"midi":58,"time":97.79069767441861,"velocity":0.2440944881889764},{"duration":0.05813953488372192,"midi":61,"time":97.79069767441861,"velocity":0.25984251968503935},{"duration":0.2093023255813904,"midi":77,"time":97.79069767441861,"velocity":0.4251968503937008},{"duration":0.09302325581394655,"midi":80,"time":97.79069767441861,"velocity":0.2677165354330709},{"duration":0.1860465116279073,"midi":89,"time":97.79069767441861,"velocity":0.5039370078740157},{"duration":0.034883720930224626,"midi":79,"time":97.80232558139535,"velocity":0.16535433070866143},{"duration":0.15116279069766847,"midi":100,"time":97.80232558139535,"velocity":0.2204724409448819},{"duration":0.04651162790698038,"midi":90,"time":97.81395348837209,"velocity":0.3937007874015748},{"duration":0.023255813953497295,"midi":87,"time":97.82558139534883,"velocity":0.36220472440944884},{"duration":0.06976744186046346,"midi":88,"time":97.82558139534883,"velocity":0.2677165354330709},{"duration":0.27906976744186807,"midi":70,"time":97.83720930232558,"velocity":0.33858267716535434},{"duration":0.023255813953497295,"midi":83,"time":97.83720930232558,"velocity":0.4094488188976378},{"duration":0.05813953488372192,"midi":93,"time":97.84883720930233,"velocity":0.18110236220472442},{"duration":0.034883720930224626,"midi":79,"time":97.86046511627907,"velocity":0.2755905511811024},{"duration":0.27906976744185386,"midi":82,"time":97.86046511627907,"velocity":0.5118110236220472},{"duration":0.081395348837205,"midi":53,"time":97.87209302325581,"velocity":0.25196850393700787},{"duration":0.09302325581396076,"midi":46,"time":97.88372093023256,"velocity":0.2755905511811024},{"duration":0.11627906976744384,"midi":80,"time":97.8953488372093,"velocity":0.3543307086614173},{"duration":0.023255813953497295,"midi":86,"time":97.8953488372093,"velocity":0.30708661417322836},{"duration":0.034883720930224626,"midi":35,"time":97.90697674418605,"velocity":0.3228346456692913},{"duration":0.034883720930224626,"midi":62,"time":97.90697674418605,"velocity":0.18110236220472442},{"duration":0.04651162790696617,"midi":90,"time":97.90697674418605,"velocity":0.2125984251968504},{"duration":0.11627906976742963,"midi":91,"time":97.90697674418605,"velocity":0.2755905511811024},{"duration":0.1860465116279073,"midi":65,"time":97.9186046511628,"velocity":0.4409448818897638},{"duration":0.04651162790696617,"midi":95,"time":97.9186046511628,"velocity":0.2047244094488189},{"duration":0.04651162790698038,"midi":86,"time":97.93023255813954,"velocity":0.2755905511811024},{"duration":0.081395348837205,"midi":93,"time":97.93023255813954,"velocity":0.10236220472440945},{"duration":0.04651162790698038,"midi":34,"time":97.94186046511628,"velocity":0.31496062992125984},{"duration":0.03488372093023884,"midi":59,"time":97.96511627906976,"velocity":0.2204724409448819},{"duration":0.24418604651162923,"midi":100,"time":97.96511627906976,"velocity":0.3228346456692913},{"duration":0.06976744186046346,"midi":83,"time":97.97674418604652,"velocity":0.25196850393700787},{"duration":0.023255813953483084,"midi":87,"time":97.97674418604652,"velocity":0.33070866141732286},{"duration":0.06976744186046346,"midi":88,"time":97.97674418604652,"velocity":0.2283464566929134},{"duration":0.034883720930224626,"midi":90,"time":97.97674418604652,"velocity":0.33858267716535434},{"duration":0.10465116279068809,"midi":53,"time":97.98837209302326,"velocity":0.3228346456692913},{"duration":0.023255813953483084,"midi":78,"time":97.98837209302326,"velocity":0.33070866141732286},{"duration":0.03488372093023884,"midi":58,"time":98,"velocity":0.30708661417322836},{"duration":0.1046511627907023,"midi":86,"time":98,"velocity":0.30708661417322836},{"duration":0.11627906976744384,"midi":84,"time":98.01162790697674,"velocity":0.1732283464566929},{"duration":0.08139534883721922,"midi":46,"time":98.02325581395348,"velocity":0.28346456692913385},{"duration":0.03488372093023884,"midi":90,"time":98.02325581395348,"velocity":0.18110236220472442},{"duration":0.023255813953483084,"midi":35,"time":98.04651162790698,"velocity":0.2992125984251969},{"duration":0.04651162790698038,"midi":80,"time":98.06976744186046,"velocity":0.1732283464566929},{"duration":0.04651162790698038,"midi":93,"time":98.06976744186046,"velocity":0.11023622047244094},{"duration":0.30232558139535115,"midi":73,"time":98.0813953488372,"velocity":0.3464566929133858},{"duration":0.13953488372094114,"midi":88,"time":98.0813953488372,"velocity":0.25196850393700787},{"duration":0.023255813953497295,"midi":34,"time":98.09302325581395,"velocity":0.23622047244094488},{"duration":0.023255813953497295,"midi":58,"time":98.09302325581395,"velocity":0.36220472440944884},{"duration":0.023255813953483084,"midi":66,"time":98.1046511627907,"velocity":0.36220472440944884},{"duration":0.27906976744185386,"midi":90,"time":98.1046511627907,"velocity":0.3543307086614173},{"duration":0.05813953488372192,"midi":92,"time":98.1046511627907,"velocity":0.25196850393700787},{"duration":0.06976744186046346,"midi":95,"time":98.1046511627907,"velocity":0.13385826771653545},{"duration":0.16279069767441,"midi":96,"time":98.1046511627907,"velocity":0.2204724409448819},{"duration":0.27906976744185386,"midi":99,"time":98.1046511627907,"velocity":0.2440944881889764},{"duration":1.104651162790688,"midi":102,"time":98.1046511627907,"velocity":0.4330708661417323},{"duration":0.011627906976741542,"midi":55,"time":98.11627906976744,"velocity":0.5354330708661418},{"duration":0.023255813953483084,"midi":62,"time":98.11627906976744,"velocity":0.4094488188976378},{"duration":0.06976744186046346,"midi":76,"time":98.11627906976744,"velocity":0.4566929133858268},{"duration":0.05813953488372192,"midi":81,"time":98.11627906976744,"velocity":0.2047244094488189},{"duration":0.09302325581394655,"midi":91,"time":98.11627906976744,"velocity":0.33858267716535434},{"duration":0.2674418604651123,"midi":98,"time":98.11627906976744,"velocity":0.2992125984251969},{"duration":0.011627906976741542,"midi":53,"time":98.12790697674419,"velocity":0.5826771653543307},{"duration":0.11627906976744384,"midi":68,"time":98.12790697674419,"velocity":0.33070866141732286},{"duration":0.04651162790698038,"midi":83,"time":98.12790697674419,"velocity":0.16535433070866143},{"duration":0.1046511627907023,"midi":86,"time":98.12790697674419,"velocity":0.11811023622047244},{"duration":1.5465116279069804,"midi":97,"time":98.12790697674419,"velocity":0.3700787401574803},{"duration":0.023255813953497295,"midi":45,"time":98.13953488372093,"velocity":0.6141732283464567},{"duration":0.1046511627907023,"midi":65,"time":98.13953488372093,"velocity":0.3228346456692913},{"duration":0.03488372093023884,"midi":93,"time":98.13953488372093,"velocity":0.2283464566929134},{"duration":0.011627906976741542,"midi":43,"time":98.16279069767442,"velocity":0.5748031496062992},{"duration":0.023255813953483084,"midi":42,"time":98.17441860465117,"velocity":0.5275590551181102},{"duration":0.06976744186046346,"midi":82,"time":98.17441860465117,"velocity":0.2440944881889764},{"duration":0.081395348837205,"midi":92,"time":98.17441860465117,"velocity":0.1968503937007874},{"duration":0.023255813953483084,"midi":57,"time":98.18604651162791,"velocity":0.4015748031496063},{"duration":0.05813953488372192,"midi":75,"time":98.18604651162791,"velocity":0.4251968503937008},{"duration":0.04651162790698038,"midi":84,"time":98.18604651162791,"velocity":0.2047244094488189},{"duration":0.06976744186046346,"midi":70,"time":98.19767441860465,"velocity":0.48031496062992124},{"duration":0.05813953488372192,"midi":37,"time":98.20930232558139,"velocity":0.4566929133858268},{"duration":0.03488372093023884,"midi":89,"time":98.20930232558139,"velocity":0.09448818897637795},{"duration":0.15116279069766847,"midi":83,"time":98.23255813953489,"velocity":0.4094488188976378},{"duration":0.05813953488372192,"midi":88,"time":98.23255813953489,"velocity":0.2283464566929134},{"duration":0.15116279069766847,"midi":78,"time":98.24418604651163,"velocity":0.36220472440944884},{"duration":0.04651162790698038,"midi":81,"time":98.24418604651163,"velocity":0.2047244094488189},{"duration":0.05813953488372192,"midi":94,"time":98.24418604651163,"velocity":0.2047244094488189},{"duration":0.04651162790698038,"midi":76,"time":98.25581395348837,"velocity":0.2283464566929134},{"duration":0.1860465116279073,"midi":48,"time":98.26744186046511,"velocity":0.31496062992125984},{"duration":0.023255813953497295,"midi":64,"time":98.26744186046511,"velocity":0.23622047244094488},{"duration":0.05813953488372192,"midi":71,"time":98.26744186046511,"velocity":0.5118110236220472},{"duration":0.04651162790696617,"midi":59,"time":98.29069767441861,"velocity":0.41732283464566927},{"duration":0.034883720930224626,"midi":65,"time":98.29069767441861,"velocity":0.30708661417322836},{"duration":0.05813953488372192,"midi":80,"time":98.29069767441861,"velocity":0.15748031496062992},{"duration":0.04651162790696617,"midi":103,"time":98.29069767441861,"velocity":0.08661417322834646},{"duration":0.081395348837205,"midi":36,"time":98.31395348837209,"velocity":0.33070866141732286},{"duration":0.023255813953483084,"midi":55,"time":98.31395348837209,"velocity":0.3700787401574803},{"duration":0.04651162790698038,"midi":75,"time":98.31395348837209,"velocity":0.2440944881889764},{"duration":0.04651162790698038,"midi":89,"time":98.31395348837209,"velocity":0.13385826771653545},{"duration":0.19767441860464885,"midi":100,"time":98.31395348837209,"velocity":0.23622047244094488},{"duration":0.08139534883721922,"midi":70,"time":98.32558139534883,"velocity":0.4015748031496063},{"duration":0.023255813953497295,"midi":56,"time":98.33720930232558,"velocity":0.4251968503937008},{"duration":0.04651162790698038,"midi":66,"time":98.33720930232558,"velocity":0.3228346456692913},{"duration":0.09302325581394655,"midi":94,"time":98.34883720930233,"velocity":0.13385826771653545},{"duration":0.04651162790698038,"midi":55,"time":98.36046511627907,"velocity":0.3464566929133858},{"duration":0.023255813953483084,"midi":76,"time":98.36046511627907,"velocity":0.28346456692913385},{"duration":0.1860465116279073,"midi":96,"time":98.37209302325581,"velocity":0.25984251968503935},{"duration":0.05813953488372192,"midi":65,"time":98.38372093023256,"velocity":0.1968503937007874},{"duration":0.03488372093023884,"midi":75,"time":98.38372093023256,"velocity":0.25196850393700787},{"duration":0.04651162790698038,"midi":79,"time":98.38372093023256,"velocity":0.2677165354330709},{"duration":0.06976744186046346,"midi":84,"time":98.38372093023256,"velocity":0.3700787401574803},{"duration":0.04651162790698038,"midi":88,"time":98.38372093023256,"velocity":0.2677165354330709},{"duration":0.03488372093023884,"midi":89,"time":98.38372093023256,"velocity":0.07086614173228346},{"duration":0.023255813953497295,"midi":73,"time":98.3953488372093,"velocity":0.5354330708661418},{"duration":0.04651162790698038,"midi":83,"time":98.3953488372093,"velocity":0.2125984251968504},{"duration":0.05813953488372192,"midi":90,"time":98.3953488372093,"velocity":0.14173228346456693},{"duration":0.034883720930224626,"midi":72,"time":98.4186046511628,"velocity":0.5196850393700787},{"duration":0.24418604651162923,"midi":80,"time":98.4186046511628,"velocity":0.29133858267716534},{"duration":0.06976744186046346,"midi":85,"time":98.4186046511628,"velocity":0.4330708661417323},{"duration":0.1860465116279073,"midi":99,"time":98.4186046511628,"velocity":0.36220472440944884},{"duration":0.9186046511627808,"midi":101,"time":98.4186046511628,"velocity":0.30708661417322836},{"duration":0.05813953488372192,"midi":87,"time":98.43023255813954,"velocity":0.13385826771653545},{"duration":0.12790697674418539,"midi":89,"time":98.43023255813954,"velocity":0.29133858267716534},{"duration":0.034883720930224626,"midi":98,"time":98.43023255813954,"velocity":0.15748031496062992},{"duration":0.081395348837205,"midi":103,"time":98.43023255813954,"velocity":0.1968503937007874},{"duration":0.03488372093023884,"midi":70,"time":98.44186046511628,"velocity":0.29133858267716534},{"duration":0.06976744186046346,"midi":59,"time":98.45348837209302,"velocity":0.41732283464566927},{"duration":0.04651162790698038,"midi":65,"time":98.45348837209302,"velocity":0.2125984251968504},{"duration":0.09302325581396076,"midi":73,"time":98.45348837209302,"velocity":0.4566929133858268},{"duration":0.09302325581396076,"midi":83,"time":98.45348837209302,"velocity":0.2677165354330709},{"duration":0.11627906976744384,"midi":86,"time":98.45348837209302,"velocity":0.33858267716535434},{"duration":0.03488372093023884,"midi":71,"time":98.46511627906976,"velocity":0.44881889763779526},{"duration":0.081395348837205,"midi":77,"time":98.48837209302326,"velocity":0.2992125984251969},{"duration":0.04651162790698038,"midi":66,"time":98.5,"velocity":0.2283464566929134},{"duration":0.12790697674418539,"midi":70,"time":98.5,"velocity":0.4881889763779528},{"duration":0.081395348837205,"midi":87,"time":98.5,"velocity":0.2047244094488189},{"duration":0.081395348837205,"midi":91,"time":98.5,"velocity":0.1732283464566929},{"duration":0.418604651162795,"midi":92,"time":98.51162790697674,"velocity":0.5039370078740157},{"duration":0.023255813953497295,"midi":45,"time":98.52325581395348,"velocity":0.3464566929133858},{"duration":0.08139534883721922,"midi":100,"time":98.52325581395348,"velocity":0.33858267716535434},{"duration":0.05813953488370771,"midi":76,"time":98.53488372093024,"velocity":0.2755905511811024},{"duration":0.023255813953483084,"midi":57,"time":98.54651162790698,"velocity":0.4015748031496063},{"duration":0.023255813953483084,"midi":73,"time":98.55813953488372,"velocity":0.2755905511811024},{"duration":0.04651162790698038,"midi":46,"time":98.56976744186046,"velocity":0.25196850393700787},{"duration":0.04651162790698038,"midi":89,"time":98.56976744186046,"velocity":0.2440944881889764},{"duration":0.03488372093023884,"midi":67,"time":98.5813953488372,"velocity":0.16535433070866143},{"duration":0.023255813953497295,"midi":72,"time":98.5813953488372,"velocity":0.2677165354330709},{"duration":0.08139534883721922,"midi":77,"time":98.5813953488372,"velocity":0.2283464566929134},{"duration":0.03488372093023884,"midi":86,"time":98.5813953488372,"velocity":0.11023622047244094},{"duration":0.05813953488372192,"midi":34,"time":98.59302325581395,"velocity":0.30708661417322836},{"duration":0.03488372093023884,"midi":57,"time":98.59302325581395,"velocity":0.30708661417322836},{"duration":0.03488372093023884,"midi":88,"time":98.59302325581395,"velocity":0.13385826771653545},{"duration":0.04651162790698038,"midi":95,"time":98.59302325581395,"velocity":0.1732283464566929},{"duration":0.023255813953483084,"midi":73,"time":98.6046511627907,"velocity":0.31496062992125984},{"duration":0.034883720930224626,"midi":47,"time":98.61627906976744,"velocity":0.1732283464566929},{"duration":0.023255813953483084,"midi":62,"time":98.62790697674419,"velocity":0.33070866141732286},{"duration":0.081395348837205,"midi":72,"time":98.62790697674419,"velocity":0.4645669291338583},{"duration":0.03488372093023884,"midi":83,"time":98.62790697674419,"velocity":0.1732283464566929},{"duration":0.1046511627907023,"midi":90,"time":98.63953488372093,"velocity":0.3543307086614173},{"duration":0.05813953488372192,"midi":91,"time":98.63953488372093,"velocity":0.14173228346456693},{"duration":0.1046511627907023,"midi":96,"time":98.63953488372093,"velocity":0.33070866141732286},{"duration":0.30232558139535115,"midi":99,"time":98.63953488372093,"velocity":0.29133858267716534},{"duration":0.12790697674418539,"midi":103,"time":98.63953488372093,"velocity":0.30708661417322836},{"duration":0.03488372093023884,"midi":78,"time":98.65116279069767,"velocity":0.2283464566929134},{"duration":0.05813953488372192,"midi":86,"time":98.65116279069767,"velocity":0.1968503937007874},{"duration":0.03488372093023884,"midi":88,"time":98.65116279069767,"velocity":0.14960629921259844},{"duration":0.09302325581396076,"midi":93,"time":98.65116279069767,"velocity":0.28346456692913385},{"duration":0.11627906976744384,"midi":95,"time":98.65116279069767,"velocity":0.2992125984251969},{"duration":0.023255813953483084,"midi":61,"time":98.66279069767442,"velocity":0.3700787401574803},{"duration":0.034883720930224626,"midi":69,"time":98.66279069767442,"velocity":0.18110236220472442},{"duration":0.09302325581394655,"midi":74,"time":98.66279069767442,"velocity":0.5669291338582677},{"duration":0.06976744186046346,"midi":81,"time":98.66279069767442,"velocity":0.3228346456692913},{"duration":0.06976744186046346,"midi":98,"time":98.66279069767442,"velocity":0.2677165354330709},{"duration":0.011627906976741542,"midi":45,"time":98.67441860465117,"velocity":0.5826771653543307},{"duration":0.6976744186046488,"midi":77,"time":98.67441860465117,"velocity":0.4251968503937008},{"duration":0.2674418604651123,"midi":85,"time":98.67441860465117,"velocity":0.36220472440944884},{"duration":0.15116279069766847,"midi":100,"time":98.67441860465117,"velocity":0.2677165354330709},{"duration":0.011627906976741542,"midi":44,"time":98.68604651162791,"velocity":0.5905511811023622},{"duration":0.023255813953483084,"midi":60,"time":98.68604651162791,"velocity":0.3464566929133858},{"duration":0.023255813953497295,"midi":43,"time":98.69767441860465,"velocity":0.5590551181102362},{"duration":0.19767441860464885,"midi":80,"time":98.69767441860465,"velocity":0.2755905511811024},{"duration":0.11627906976744384,"midi":58,"time":98.70930232558139,"velocity":0.36220472440944884},{"duration":0.023255813953497295,"midi":61,"time":98.70930232558139,"velocity":0.2677165354330709},{"duration":0.03488372093023884,"midi":93,"time":98.75581395348837,"velocity":0.18110236220472442},{"duration":0.05813953488372192,"midi":65,"time":98.76744186046511,"velocity":0.2677165354330709},{"duration":0.08139534883721922,"midi":73,"time":98.76744186046511,"velocity":0.5826771653543307},{"duration":0.05813953488372192,"midi":94,"time":98.76744186046511,"velocity":0.2283464566929134},{"duration":0.03488372093023884,"midi":37,"time":98.77906976744185,"velocity":0.30708661417322836},{"duration":0.11627906976744384,"midi":82,"time":98.77906976744185,"velocity":0.18110236220472442},{"duration":0.04651162790698038,"midi":88,"time":98.77906976744185,"velocity":0.14960629921259844},{"duration":0.06976744186047767,"midi":96,"time":98.77906976744185,"velocity":0.2204724409448819},{"duration":0.023255813953483084,"midi":91,"time":98.79069767441861,"velocity":0.47244094488188976},{"duration":0.034883720930224626,"midi":98,"time":98.79069767441861,"velocity":0.12598425196850394},{"duration":0.16279069767441,"midi":95,"time":98.80232558139535,"velocity":0.4094488188976378},{"duration":0.081395348837205,"midi":61,"time":98.81395348837209,"velocity":0.4251968503937008},{"duration":0.023255813953497295,"midi":66,"time":98.82558139534883,"velocity":0.25196850393700787},{"duration":0.12790697674418539,"midi":103,"time":98.82558139534883,"velocity":0.2755905511811024},{"duration":0.023255813953483084,"midi":74,"time":98.84883720930233,"velocity":0.3858267716535433},{"duration":0.04651162790698038,"midi":66,"time":98.86046511627907,"velocity":0.31496062992125984},{"duration":0.023255813953483084,"midi":73,"time":98.87209302325581,"velocity":0.5118110236220472},{"duration":0.03488372093023884,"midi":81,"time":98.87209302325581,"velocity":0.16535433070866143},{"duration":0.05813953488372192,"midi":100,"time":98.87209302325581,"velocity":0.23622047244094488},{"duration":0.04651162790698038,"midi":93,"time":98.88372093023256,"velocity":0.36220472440944884},{"duration":0.06976744186046346,"midi":98,"time":98.88372093023256,"velocity":0.15748031496062992},{"duration":0.03488372093023884,"midi":88,"time":98.8953488372093,"velocity":0.2204724409448819},{"duration":0.03488372093023884,"midi":96,"time":98.8953488372093,"velocity":0.1732283464566929},{"duration":0.13953488372092693,"midi":61,"time":98.90697674418605,"velocity":0.31496062992125984},{"duration":0.04651162790696617,"midi":72,"time":98.90697674418605,"velocity":0.5433070866141733},{"duration":0.034883720930224626,"midi":91,"time":98.90697674418605,"velocity":0.5039370078740157},{"duration":0.034883720930224626,"midi":69,"time":98.9186046511628,"velocity":0.1968503937007874},{"duration":0.05813953488372192,"midi":94,"time":98.9186046511628,"velocity":0.28346456692913385},{"duration":0.023255813953483084,"midi":67,"time":98.93023255813954,"velocity":0.2283464566929134},{"duration":0.03488372093023884,"midi":88,"time":98.94186046511628,"velocity":0.4015748031496063},{"duration":0.3139534883720927,"midi":92,"time":98.94186046511628,"velocity":0.4409448818897638},{"duration":0.13953488372092693,"midi":66,"time":98.95348837209302,"velocity":0.33070866141732286},{"duration":0.3720930232558146,"midi":70,"time":98.95348837209302,"velocity":0.31496062992125984},{"duration":0.05813953488372192,"midi":73,"time":98.95348837209302,"velocity":0.5354330708661418},{"duration":1.476744186046517,"midi":99,"time":98.95348837209302,"velocity":0.5118110236220472},{"duration":0.1860465116279073,"midi":80,"time":98.97674418604652,"velocity":0.3228346456692913},{"duration":0.3720930232558146,"midi":89,"time":98.97674418604652,"velocity":0.49606299212598426},{"duration":0.06976744186046346,"midi":95,"time":98.97674418604652,"velocity":0.31496062992125984},{"duration":0.023255813953483084,"midi":39,"time":98.98837209302326,"velocity":0.25984251968503935},{"duration":0.023255813953483084,"midi":91,"time":98.98837209302326,"velocity":0.31496062992125984},{"duration":0.05813953488372192,"midi":103,"time":99,"velocity":0.31496062992125984},{"duration":0.3139534883720927,"midi":73,"time":99.02325581395348,"velocity":0.5590551181102362},{"duration":0.034883720930224626,"midi":93,"time":99.05813953488372,"velocity":0.08661417322834646},{"duration":0.06976744186046346,"midi":95,"time":99.05813953488372,"velocity":0.2677165354330709},{"duration":0.04651162790698038,"midi":58,"time":99.09302325581395,"velocity":0.1889763779527559},{"duration":0.22093023255813193,"midi":66,"time":99.1046511627907,"velocity":0.4330708661417323},{"duration":0.04651162790698038,"midi":62,"time":99.11627906976744,"velocity":0.4015748031496063},{"duration":0.1046511627907023,"midi":100,"time":99.11627906976744,"velocity":0.3464566929133858},{"duration":0.05813953488372192,"midi":81,"time":99.12790697674419,"velocity":0.14173228346456693},{"duration":0.081395348837205,"midi":86,"time":99.12790697674419,"velocity":0.3779527559055118},{"duration":0.22093023255814614,"midi":103,"time":99.12790697674419,"velocity":0.4409448818897638},{"duration":0.2093023255814046,"midi":95,"time":99.13953488372093,"velocity":0.14960629921259844},{"duration":0.034883720930224626,"midi":61,"time":99.16279069767442,"velocity":0.44881889763779526},{"duration":0.081395348837205,"midi":90,"time":99.16279069767442,"velocity":0.28346456692913385},{"duration":0.1860465116279073,"midi":91,"time":99.16279069767442,"velocity":0.25984251968503935},{"duration":0.081395348837205,"midi":93,"time":99.16279069767442,"velocity":0.16535433070866143},{"duration":0.04651162790696617,"midi":96,"time":99.16279069767442,"velocity":0.25196850393700787},{"duration":0.04651162790698038,"midi":80,"time":99.17441860465117,"velocity":0.16535433070866143},{"duration":0.023255813953483084,"midi":88,"time":99.17441860465117,"velocity":0.23622047244094488},{"duration":0.04651162790698038,"midi":94,"time":99.17441860465117,"velocity":0.16535433070866143},{"duration":0.2093023255813904,"midi":75,"time":99.18604651162791,"velocity":0.41732283464566927},{"duration":0.04651162790698038,"midi":83,"time":99.18604651162791,"velocity":0.16535433070866143},{"duration":0.011627906976741542,"midi":45,"time":99.19767441860465,"velocity":0.5354330708661418},{"duration":0.011627906976755753,"midi":44,"time":99.20930232558139,"velocity":0.5826771653543307},{"duration":0.13953488372094114,"midi":63,"time":99.20930232558139,"velocity":0.4881889763779528},{"duration":0.03488372093023884,"midi":98,"time":99.20930232558139,"velocity":0.09448818897637795},{"duration":0.011627906976741542,"midi":43,"time":99.22093023255815,"velocity":0.5590551181102362},{"duration":0.011627906976741542,"midi":42,"time":99.23255813953489,"velocity":0.5354330708661418},{"duration":0.023255813953483084,"midi":52,"time":99.24418604651163,"velocity":0.23622047244094488},{"duration":0.081395348837205,"midi":80,"time":99.24418604651163,"velocity":0.25196850393700787},{"duration":0.03488372093023884,"midi":102,"time":99.25581395348837,"velocity":0.28346456692913385},{"duration":0.03488372093023884,"midi":100,"time":99.26744186046511,"velocity":0.07086614173228346},{"duration":0.023255813953497295,"midi":37,"time":99.27906976744185,"velocity":0.36220472440944884},{"duration":0.034883720930224626,"midi":90,"time":99.29069767441861,"velocity":0.12598425196850394},{"duration":0.04651162790696617,"midi":93,"time":99.29069767441861,"velocity":0.18110236220472442},{"duration":0.023255813953483084,"midi":36,"time":99.30232558139535,"velocity":0.2755905511811024},{"duration":0.09302325581396076,"midi":55,"time":99.31395348837209,"velocity":0.2755905511811024},{"duration":0.03488372093023884,"midi":84,"time":99.31395348837209,"velocity":0.11811023622047244},{"duration":0.1046511627907023,"midi":48,"time":99.32558139534883,"velocity":0.3464566929133858},{"duration":0.05813953488372192,"midi":69,"time":99.32558139534883,"velocity":0.5511811023622047},{"duration":0.06976744186046346,"midi":88,"time":99.32558139534883,"velocity":0.25984251968503935},{"duration":0.023255813953497295,"midi":66,"time":99.33720930232558,"velocity":0.33858267716535434},{"duration":0.04651162790696617,"midi":61,"time":99.34883720930233,"velocity":0.4015748031496063},{"duration":0.034883720930224626,"midi":64,"time":99.34883720930233,"velocity":0.29133858267716534},{"duration":0.081395348837205,"midi":36,"time":99.36046511627907,"velocity":0.33858267716535434},{"duration":0.4418604651162781,"midi":103,"time":99.37209302325581,"velocity":0.30708661417322836},{"duration":0.06976744186046346,"midi":68,"time":99.38372093023256,"velocity":0.5984251968503937},{"duration":0.023255813953497295,"midi":62,"time":99.3953488372093,"velocity":0.30708661417322836},{"duration":0.04651162790698038,"midi":77,"time":99.3953488372093,"velocity":0.1889763779527559},{"duration":0.05813953488372192,"midi":87,"time":99.3953488372093,"velocity":0.2992125984251969},{"duration":0.081395348837205,"midi":98,"time":99.40697674418605,"velocity":0.2125984251968504},{"duration":0.034883720930224626,"midi":63,"time":99.4186046511628,"velocity":0.2992125984251969},{"duration":0.034883720930224626,"midi":75,"time":99.4186046511628,"velocity":0.3228346456692913},{"duration":0.034883720930224626,"midi":89,"time":99.4186046511628,"velocity":0.2125984251968504},{"duration":0.23255813953487348,"midi":101,"time":99.4186046511628,"velocity":0.23622047244094488},{"duration":0.081395348837205,"midi":83,"time":99.43023255813954,"velocity":0.3700787401574803},{"duration":0.09302325581394655,"midi":90,"time":99.43023255813954,"velocity":0.2755905511811024},{"duration":0.15116279069766847,"midi":91,"time":99.43023255813954,"velocity":0.2204724409448819},{"duration":0.7325581395348877,"midi":100,"time":99.43023255813954,"velocity":0.4251968503937008},{"duration":0.023255813953483084,"midi":58,"time":99.44186046511628,"velocity":0.30708661417322836},{"duration":0.03488372093023884,"midi":74,"time":99.44186046511628,"velocity":0.3700787401574803},{"duration":0.04651162790698038,"midi":88,"time":99.44186046511628,"velocity":0.3937007874015748},{"duration":0.5232558139534831,"midi":94,"time":99.44186046511628,"velocity":0.28346456692913385},{"duration":0.023255813953497295,"midi":45,"time":99.45348837209302,"velocity":0.3228346456692913},{"duration":0.03488372093023884,"midi":72,"time":99.45348837209302,"velocity":0.3464566929133858},{"duration":0.04651162790698038,"midi":76,"time":99.45348837209302,"velocity":0.4094488188976378},{"duration":0.11627906976744384,"midi":78,"time":99.45348837209302,"velocity":0.3937007874015748},{"duration":0.2093023255814046,"midi":68,"time":99.46511627906976,"velocity":0.4251968503937008},{"duration":0.04651162790698038,"midi":87,"time":99.46511627906976,"velocity":0.44881889763779526},{"duration":0.12790697674418539,"midi":46,"time":99.47674418604652,"velocity":0.29133858267716534},{"duration":0.023255813953483084,"midi":53,"time":99.47674418604652,"velocity":0.2677165354330709},{"duration":0.15116279069766847,"midi":63,"time":99.47674418604652,"velocity":0.3700787401574803},{"duration":0.05813953488372192,"midi":71,"time":99.47674418604652,"velocity":0.3464566929133858},{"duration":0.09302325581394655,"midi":82,"time":99.47674418604652,"velocity":0.41732283464566927},{"duration":0.05813953488372192,"midi":73,"time":99.48837209302326,"velocity":0.29133858267716534},{"duration":0.13953488372092693,"midi":86,"time":99.5,"velocity":0.4330708661417323},{"duration":0.16279069767442422,"midi":89,"time":99.5,"velocity":0.41732283464566927},{"duration":0.081395348837205,"midi":34,"time":99.51162790697674,"velocity":0.28346456692913385},{"duration":0.023255813953497295,"midi":60,"time":99.51162790697674,"velocity":0.29133858267716534},{"duration":0.081395348837205,"midi":77,"time":99.51162790697674,"velocity":0.3700787401574803},{"duration":0.05813953488372192,"midi":84,"time":99.51162790697674,"velocity":0.1889763779527559},{"duration":0.023255813953497295,"midi":87,"time":99.52325581395348,"velocity":0.2283464566929134},{"duration":0.05813953488370771,"midi":85,"time":99.53488372093024,"velocity":0.33858267716535434},{"duration":0.023255813953483084,"midi":58,"time":99.54651162790698,"velocity":0.3228346456692913},{"duration":0.04651162790696617,"midi":92,"time":99.54651162790698,"velocity":0.12598425196850394},{"duration":0.034883720930224626,"midi":83,"time":99.55813953488372,"velocity":0.4409448818897638},{"duration":0.04651162790698038,"midi":59,"time":99.56976744186046,"velocity":0.2677165354330709},{"duration":0.05813953488372192,"midi":81,"time":99.56976744186046,"velocity":0.2125984251968504},{"duration":0.04651162790698038,"midi":87,"time":99.56976744186046,"velocity":0.5039370078740157},{"duration":0.03488372093023884,"midi":90,"time":99.56976744186046,"velocity":0.31496062992125984},{"duration":0.24418604651162923,"midi":84,"time":99.5813953488372,"velocity":0.4566929133858268},{"duration":0.2325581395348877,"midi":79,"time":99.59302325581395,"velocity":0.4015748031496063},{"duration":0.10465116279068809,"midi":72,"time":99.6046511627907,"velocity":0.3779527559055118},{"duration":0.16279069767441,"midi":82,"time":99.6046511627907,"velocity":0.25196850393700787},{"duration":0.09302325581394655,"midi":88,"time":99.6046511627907,"velocity":0.5748031496062992},{"duration":0.081395348837205,"midi":60,"time":99.61627906976744,"velocity":0.30708661417322836},{"duration":0.03488372093023884,"midi":63,"time":99.65116279069767,"velocity":0.23622047244094488},{"duration":0.081395348837205,"midi":101,"time":99.66279069767442,"velocity":0.1968503937007874},{"duration":0.15116279069766847,"midi":86,"time":99.67441860465117,"velocity":0.1732283464566929},{"duration":0.023255813953483084,"midi":56,"time":99.68604651162791,"velocity":0.23622047244094488},{"duration":0.11627906976744384,"midi":80,"time":99.68604651162791,"velocity":0.2204724409448819},{"duration":0.023255813953483084,"midi":87,"time":99.68604651162791,"velocity":0.3700787401574803},{"duration":0.081395348837205,"midi":89,"time":99.68604651162791,"velocity":0.31496062992125984},{"duration":0.05813953488372192,"midi":63,"time":99.69767441860465,"velocity":0.2992125984251969},{"duration":0.17441860465116577,"midi":68,"time":99.69767441860465,"velocity":0.23622047244094488},{"duration":0.03488372093023884,"midi":85,"time":99.69767441860465,"velocity":0.11023622047244094},{"duration":0.03488372093023884,"midi":66,"time":99.70930232558139,"velocity":0.1732283464566929},{"duration":0.023255813953497295,"midi":73,"time":99.70930232558139,"velocity":0.23622047244094488},{"duration":0.03488372093023884,"midi":81,"time":99.70930232558139,"velocity":0.2125984251968504},{"duration":0.1046511627907023,"midi":88,"time":99.70930232558139,"velocity":0.5433070866141733},{"duration":0.16279069767441,"midi":60,"time":99.72093023255815,"velocity":0.33070866141732286},{"duration":0.011627906976741542,"midi":45,"time":99.73255813953489,"velocity":0.5511811023622047},{"duration":0.22093023255813193,"midi":75,"time":99.73255813953489,"velocity":0.2992125984251969},{"duration":0.011627906976741542,"midi":43,"time":99.74418604651163,"velocity":0.5511811023622047},{"duration":0.023255813953483084,"midi":42,"time":99.75581395348837,"velocity":0.5354330708661418},{"duration":0.06976744186046346,"midi":51,"time":99.75581395348837,"velocity":0.28346456692913385},{"duration":0.03488372093023884,"midi":83,"time":99.75581395348837,"velocity":0.1968503937007874},{"duration":0.5232558139534973,"midi":101,"time":99.76744186046511,"velocity":0.29133858267716534},{"duration":0.03488372093023884,"midi":41,"time":99.77906976744185,"velocity":0.5118110236220472},{"duration":0.06976744186047767,"midi":81,"time":99.77906976744185,"velocity":0.2047244094488189},{"duration":0.06976744186046346,"midi":97,"time":99.79069767441861,"velocity":0.14173228346456693},{"duration":0.05813953488372192,"midi":87,"time":99.81395348837209,"velocity":0.5118110236220472},{"duration":0.04651162790698038,"midi":95,"time":99.81395348837209,"velocity":0.23622047244094488},{"duration":0.24418604651162923,"midi":102,"time":99.81395348837209,"velocity":0.2677165354330709},{"duration":0.03488372093023884,"midi":35,"time":99.82558139534883,"velocity":0.3937007874015748},{"duration":0.03488372093023884,"midi":71,"time":99.82558139534883,"velocity":0.2677165354330709},{"duration":0.03488372093023884,"midi":83,"time":99.82558139534883,"velocity":0.4566929133858268},{"duration":0.03488372093023884,"midi":85,"time":99.82558139534883,"velocity":0.13385826771653545},{"duration":0.22093023255814614,"midi":88,"time":99.82558139534883,"velocity":0.4409448818897638},{"duration":0.03488372093023884,"midi":90,"time":99.82558139534883,"velocity":0.4251968503937008},{"duration":0.034883720930224626,"midi":78,"time":99.84883720930233,"velocity":0.2440944881889764},{"duration":0.081395348837205,"midi":80,"time":99.84883720930233,"velocity":0.25984251968503935},{"duration":0.15116279069766847,"midi":96,"time":99.84883720930233,"velocity":0.2047244094488189},{"duration":0.05813953488372192,"midi":70,"time":99.86046511627907,"velocity":0.3700787401574803},{"duration":0.09302325581394655,"midi":82,"time":99.86046511627907,"velocity":0.49606299212598426},{"duration":0.09302325581394655,"midi":86,"time":99.86046511627907,"velocity":0.4015748031496063},{"duration":0.1860465116279073,"midi":89,"time":99.86046511627907,"velocity":0.48031496062992124},{"duration":0.27906976744185386,"midi":91,"time":99.86046511627907,"velocity":0.25196850393700787},{"duration":0.081395348837205,"midi":77,"time":99.87209302325581,"velocity":0.4251968503937008},{"duration":0.48837209302325846,"midi":68,"time":99.88372093023256,"velocity":0.4409448818897638},{"duration":0.081395348837205,"midi":72,"time":99.88372093023256,"velocity":0.2755905511811024},{"duration":0.04651162790698038,"midi":63,"time":99.8953488372093,"velocity":0.16535433070866143},{"duration":0.13953488372094114,"midi":79,"time":99.8953488372093,"velocity":0.4409448818897638},{"duration":0.023255813953483084,"midi":71,"time":99.9186046511628,"velocity":0.2283464566929134},{"duration":0.15116279069766847,"midi":60,"time":99.94186046511628,"velocity":0.29133858267716534},{"duration":0.05813953488372192,"midi":85,"time":99.94186046511628,"velocity":0.4094488188976378},{"duration":0.03488372093023884,"midi":76,"time":99.95348837209302,"velocity":0.3779527559055118},{"duration":0.03488372093023884,"midi":81,"time":99.95348837209302,"velocity":0.4881889763779528},{"duration":0.05813953488372192,"midi":87,"time":99.95348837209302,"velocity":0.23622047244094488},{"duration":0.03488372093023884,"midi":95,"time":99.95348837209302,"velocity":0.07874015748031496},{"duration":0.03488372093023884,"midi":57,"time":99.96511627906976,"velocity":0.28346456692913385},{"duration":0.16279069767441,"midi":44,"time":99.98837209302326,"velocity":0.36220472440944884},{"duration":0.05813953488372192,"midi":51,"time":99.98837209302326,"velocity":0.28346456692913385},{"duration":0.12790697674418539,"midi":63,"time":99.98837209302326,"velocity":0.3543307086614173},{"duration":0.22093023255813193,"midi":75,"time":99.98837209302326,"velocity":0.41732283464566927},{"duration":0.04651162790698038,"midi":84,"time":99.98837209302326,"velocity":0.2440944881889764},{"duration":0.05813953488372192,"midi":86,"time":99.98837209302326,"velocity":0.4094488188976378},{"duration":0.1046511627907023,"midi":56,"time":100,"velocity":0.3700787401574803},{"duration":0.09302325581394655,"midi":72,"time":100,"velocity":0.30708661417322836},{"duration":0.03488372093023884,"midi":74,"time":100,"velocity":0.25196850393700787},{"duration":0.15116279069766847,"midi":77,"time":100,"velocity":0.29133858267716534},{"duration":0.03488372093023884,"midi":81,"time":100,"velocity":0.18110236220472442},{"duration":0.04651162790698038,"midi":95,"time":100,"velocity":0.1968503937007874},{"duration":0.2325581395348877,"midi":97,"time":100.01162790697674,"velocity":0.16535433070866143},{"duration":0.06976744186046346,"midi":80,"time":100.03488372093024,"velocity":0.5196850393700787},{"duration":0.023255813953483084,"midi":83,"time":100.03488372093024,"velocity":0.2755905511811024},{"duration":0.034883720930224626,"midi":85,"time":100.03488372093024,"velocity":0.08661417322834646},{"duration":0.034883720930224626,"midi":90,"time":100.03488372093024,"velocity":0.3543307086614173},{"duration":0.05813953488370771,"midi":103,"time":100.03488372093024,"velocity":0.29133858267716534},{"duration":0.11627906976744384,"midi":94,"time":100.04651162790698,"velocity":0.2047244094488189},{"duration":0.04651162790698038,"midi":32,"time":100.05813953488372,"velocity":0.28346456692913385},{"duration":0.034883720930224626,"midi":82,"time":100.05813953488372,"velocity":0.29133858267716534},{"duration":0.12790697674418539,"midi":89,"time":100.05813953488372,"velocity":0.41732283464566927},{"duration":0.11627906976744384,"midi":102,"time":100.06976744186046,"velocity":0.1968503937007874},{"duration":0.04651162790698038,"midi":88,"time":100.0813953488372,"velocity":0.2755905511811024},{"duration":0.15116279069768268,"midi":83,"time":100.09302325581395,"velocity":0.29133858267716534},{"duration":0.04651162790698038,"midi":86,"time":100.09302325581395,"velocity":0.25196850393700787},{"duration":0.03488372093023884,"midi":90,"time":100.09302325581395,"velocity":0.18110236220472442},{"duration":0.24418604651162923,"midi":98,"time":100.09302325581395,"velocity":0.25196850393700787},{"duration":0.023255813953483084,"midi":57,"time":100.1046511627907,"velocity":0.25984251968503935},{"duration":0.05813953488372192,"midi":82,"time":100.1046511627907,"velocity":0.29133858267716534},{"duration":0.034883720930224626,"midi":32,"time":100.11627906976744,"velocity":0.14960629921259844},{"duration":0.034883720930224626,"midi":80,"time":100.11627906976744,"velocity":0.47244094488188976},{"duration":0.3720930232558146,"midi":72,"time":100.12790697674419,"velocity":0.31496062992125984},{"duration":0.06976744186046346,"midi":79,"time":100.12790697674419,"velocity":0.44881889763779526},{"duration":0.08139534883721922,"midi":63,"time":100.13953488372093,"velocity":0.3700787401574803},{"duration":0.05813953488372192,"midi":96,"time":100.13953488372093,"velocity":0.16535433070866143},{"duration":0.03488372093023884,"midi":85,"time":100.15116279069767,"velocity":0.15748031496062992},{"duration":0.034883720930224626,"midi":86,"time":100.16279069767442,"velocity":0.29133858267716534},{"duration":0.19767441860464885,"midi":90,"time":100.16279069767442,"velocity":0.36220472440944884},{"duration":0.034883720930224626,"midi":100,"time":100.17441860465117,"velocity":0.14960629921259844},{"duration":0.023255813953497295,"midi":59,"time":100.20930232558139,"velocity":0.36220472440944884},{"duration":0.1046511627907023,"midi":89,"time":100.20930232558139,"velocity":0.23622047244094488},{"duration":0.15116279069768268,"midi":94,"time":100.20930232558139,"velocity":0.2047244094488189},{"duration":0.36046511627905886,"midi":75,"time":100.22093023255815,"velocity":0.4645669291338583},{"duration":0.05813953488370771,"midi":88,"time":100.22093023255815,"velocity":0.2440944881889764},{"duration":0.06976744186046346,"midi":82,"time":100.23255813953489,"velocity":0.1968503937007874},{"duration":0.034883720930224626,"midi":85,"time":100.23255813953489,"velocity":0.10236220472440945},{"duration":0.05813953488372192,"midi":86,"time":100.23255813953489,"velocity":0.14960629921259844},{"duration":0.023255813953483084,"midi":45,"time":100.24418604651163,"velocity":0.5590551181102362},{"duration":0.17441860465116577,"midi":91,"time":100.24418604651163,"velocity":0.14960629921259844},{"duration":0.05813953488372192,"midi":103,"time":100.24418604651163,"velocity":0.14960629921259844},{"duration":0.25581395348837077,"midi":63,"time":100.25581395348837,"velocity":0.2755905511811024},{"duration":0.1046511627907023,"midi":83,"time":100.25581395348837,"velocity":0.11023622047244094},{"duration":0.011627906976741542,"midi":44,"time":100.26744186046511,"velocity":0.6141732283464567},{"duration":0.011627906976755753,"midi":43,"time":100.27906976744185,"velocity":0.5905511811023622},{"duration":0.011627906976741542,"midi":42,"time":100.29069767441861,"velocity":0.5590551181102362},{"duration":0.034883720930224626,"midi":85,"time":100.29069767441861,"velocity":0.14173228346456693},{"duration":0.081395348837205,"midi":86,"time":100.30232558139535,"velocity":0.15748031496062992},{"duration":0.023255813953497295,"midi":37,"time":100.33720930232558,"velocity":0.3937007874015748},{"duration":0.04651162790696617,"midi":79,"time":100.34883720930233,"velocity":0.14960629921259844},{"duration":0.034883720930224626,"midi":36,"time":100.36046511627907,"velocity":0.33070866141732286},{"duration":0.09302325581394655,"midi":56,"time":100.37209302325581,"velocity":0.3228346456692913},{"duration":0.03488372093023884,"midi":80,"time":100.3953488372093,"velocity":0.25196850393700787},{"duration":0.12790697674418539,"midi":90,"time":100.3953488372093,"velocity":0.2283464566929134},{"duration":0.034883720930224626,"midi":79,"time":100.4186046511628,"velocity":0.12598425196850394},{"duration":0.13953488372092693,"midi":80,"time":100.44186046511628,"velocity":0.2992125984251969},{"duration":0.04651162790698038,"midi":88,"time":100.44186046511628,"velocity":0.12598425196850394},{"duration":0.04651162790698038,"midi":82,"time":100.45348837209302,"velocity":0.14173228346456693},{"duration":0.03488372093023884,"midi":57,"time":100.46511627906976,"velocity":0.2125984251968504},{"duration":0.05813953488372192,"midi":99,"time":100.46511627906976,"velocity":0.11811023622047244},{"duration":0.034883720930224626,"midi":73,"time":100.48837209302326,"velocity":0.33858267716535434},{"duration":0.06976744186046346,"midi":78,"time":100.48837209302326,"velocity":0.2677165354330709},{"duration":0.05813953488372192,"midi":86,"time":100.48837209302326,"velocity":0.2283464566929134},{"duration":0.1860465116279073,"midi":89,"time":100.48837209302326,"velocity":0.28346456692913385},{"duration":0.2906976744185954,"midi":91,"time":100.48837209302326,"velocity":0.44881889763779526},{"duration":0.081395348837205,"midi":92,"time":100.48837209302326,"velocity":0.3858267716535433},{"duration":0.16279069767441,"midi":93,"time":100.48837209302326,"velocity":0.3543307086614173},{"duration":0.11627906976744384,"midi":94,"time":100.48837209302326,"velocity":0.33070866141732286},{"duration":0.15116279069766847,"midi":95,"time":100.48837209302326,"velocity":0.4645669291338583},{"duration":0.06976744186046346,"midi":96,"time":100.48837209302326,"velocity":0.4015748031496063},{"duration":0.17441860465116577,"midi":97,"time":100.48837209302326,"velocity":0.2992125984251969},{"duration":0.03488372093023884,"midi":60,"time":100.5,"velocity":0.2125984251968504},{"duration":0.023255813953483084,"midi":77,"time":100.5,"velocity":0.25196850393700787},{"duration":0.19767441860464885,"midi":98,"time":100.5,"velocity":0.23622047244094488},{"duration":0.16279069767442422,"midi":102,"time":100.5,"velocity":0.3228346456692913},{"duration":0.03488372093023884,"midi":79,"time":100.51162790697674,"velocity":0.18110236220472442},{"duration":0.03488372093023884,"midi":81,"time":100.51162790697674,"velocity":0.2125984251968504},{"duration":0.1046511627907023,"midi":82,"time":100.52325581395348,"velocity":0.2283464566929134},{"duration":0.1860465116279073,"midi":100,"time":100.52325581395348,"velocity":0.2047244094488189},{"duration":0.05813953488370771,"midi":44,"time":100.53488372093024,"velocity":0.33070866141732286},{"duration":0.23255813953487348,"midi":63,"time":100.53488372093024,"velocity":0.29133858267716534},{"duration":0.06976744186046346,"midi":57,"time":100.54651162790698,"velocity":0.3937007874015748},{"duration":0.034883720930224626,"midi":85,"time":100.54651162790698,"velocity":0.11811023622047244},{"duration":0.06976744186046346,"midi":79,"time":100.55813953488372,"velocity":0.23622047244094488},{"duration":0.023255813953483084,"midi":33,"time":100.56976744186046,"velocity":0.2992125984251969},{"duration":0.11627906976744384,"midi":96,"time":100.56976744186046,"velocity":0.33070866141732286},{"duration":0.1860465116279073,"midi":68,"time":100.5813953488372,"velocity":0.41732283464566927},{"duration":0.05813953488372192,"midi":74,"time":100.5813953488372,"velocity":0.3779527559055118},{"duration":0.03488372093023884,"midi":88,"time":100.5813953488372,"velocity":0.1889763779527559},{"duration":0.2093023255814046,"midi":92,"time":100.5813953488372,"velocity":0.33858267716535434},{"duration":0.03488372093023884,"midi":32,"time":100.59302325581395,"velocity":0.29133858267716534},{"duration":0.04651162790698038,"midi":81,"time":100.61627906976744,"velocity":0.1889763779527559},{"duration":0.034883720930224626,"midi":83,"time":100.61627906976744,"velocity":0.1889763779527559},{"duration":0.023255813953483084,"midi":45,"time":100.62790697674419,"velocity":0.29133858267716534},{"duration":0.03488372093023884,"midi":75,"time":100.62790697674419,"velocity":0.3779527559055118},{"duration":0.05813953488372192,"midi":78,"time":100.62790697674419,"velocity":0.1968503937007874},{"duration":0.03488372093023884,"midi":56,"time":100.63953488372093,"velocity":0.4645669291338583},{"duration":0.05813953488372192,"midi":72,"time":100.63953488372093,"velocity":0.2283464566929134},{"duration":0.04651162790698038,"midi":77,"time":100.63953488372093,"velocity":0.2047244094488189},{"duration":0.03488372093023884,"midi":90,"time":100.63953488372093,"velocity":0.2677165354330709},{"duration":0.12790697674418539,"midi":94,"time":100.63953488372093,"velocity":0.28346456692913385},{"duration":0.09302325581396076,"midi":44,"time":100.65116279069767,"velocity":0.36220472440944884},{"duration":0.06976744186047767,"midi":51,"time":100.65116279069767,"velocity":0.2992125984251969},{"duration":0.05813953488372192,"midi":74,"time":100.65116279069767,"velocity":0.2204724409448819},{"duration":0.2325581395348877,"midi":84,"time":100.65116279069767,"velocity":0.2755905511811024},{"duration":0.10465116279068809,"midi":82,"time":100.66279069767442,"velocity":0.14960629921259844},{"duration":0.023255813953483084,"midi":57,"time":100.67441860465117,"velocity":0.5275590551181102},{"duration":0.03488372093023884,"midi":33,"time":100.69767441860465,"velocity":0.29133858267716534},{"duration":0.03488372093023884,"midi":56,"time":100.69767441860465,"velocity":0.5039370078740157},{"duration":0.09302325581396076,"midi":87,"time":100.69767441860465,"velocity":0.23622047244094488},{"duration":0.05813953488372192,"midi":93,"time":100.69767441860465,"velocity":0.12598425196850394},{"duration":0.09302325581396076,"midi":72,"time":100.70930232558139,"velocity":0.47244094488188976},{"duration":0.1046511627907023,"midi":75,"time":100.70930232558139,"velocity":0.31496062992125984},{"duration":0.09302325581394655,"midi":90,"time":100.72093023255815,"velocity":0.23622047244094488},{"duration":0.06976744186046346,"midi":95,"time":100.72093023255815,"velocity":0.30708661417322836},{"duration":0.034883720930224626,"midi":32,"time":100.73255813953489,"velocity":0.2992125984251969},{"duration":0.15116279069766847,"midi":97,"time":100.73255813953489,"velocity":0.2204724409448819},{"duration":0.023255813953483084,"midi":58,"time":100.74418604651163,"velocity":0.47244094488188976},{"duration":0.034883720930224626,"midi":85,"time":100.74418604651163,"velocity":0.2125984251968504},{"duration":0.06976744186046346,"midi":86,"time":100.74418604651163,"velocity":0.2125984251968504},{"duration":0.11627906976744384,"midi":102,"time":100.74418604651163,"velocity":0.31496062992125984},{"duration":0.03488372093023884,"midi":66,"time":100.75581395348837,"velocity":0.11811023622047244},{"duration":0.04651162790698038,"midi":78,"time":100.75581395348837,"velocity":0.25196850393700787},{"duration":0.04651162790698038,"midi":83,"time":100.75581395348837,"velocity":0.25984251968503935},{"duration":0.04651162790698038,"midi":101,"time":100.75581395348837,"velocity":0.12598425196850394},{"duration":0.023255813953497295,"midi":59,"time":100.76744186046511,"velocity":0.44881889763779526},{"duration":0.03488372093023884,"midi":77,"time":100.76744186046511,"velocity":0.1968503937007874},{"duration":0.04651162790698038,"midi":81,"time":100.76744186046511,"velocity":0.2204724409448819},{"duration":0.011627906976755753,"midi":48,"time":100.77906976744185,"velocity":0.5511811023622047},{"duration":0.08139534883721922,"midi":68,"time":100.77906976744185,"velocity":0.25984251968503935},{"duration":0.06976744186047767,"midi":94,"time":100.77906976744185,"velocity":0.16535433070866143},{"duration":0.011627906976741542,"midi":45,"time":100.79069767441861,"velocity":0.6141732283464567},{"duration":0.023255813953483084,"midi":60,"time":100.79069767441861,"velocity":0.31496062992125984},{"duration":0.09302325581394655,"midi":89,"time":100.79069767441861,"velocity":0.4251968503937008},{"duration":0.09302325581394655,"midi":91,"time":100.79069767441861,"velocity":0.23622047244094488},{"duration":0.011627906976741542,"midi":44,"time":100.80232558139535,"velocity":0.5905511811023622},{"duration":0.12790697674418539,"midi":73,"time":100.80232558139535,"velocity":0.5826771653543307},{"duration":0.22093023255813193,"midi":82,"time":100.80232558139535,"velocity":0.3779527559055118},{"duration":0.4418604651162781,"midi":92,"time":100.80232558139535,"velocity":0.4251968503937008},{"duration":0.19767441860464885,"midi":95,"time":100.80232558139535,"velocity":0.4015748031496063},{"duration":0.023255813953483084,"midi":42,"time":100.81395348837209,"velocity":0.5748031496062992},{"duration":0.6162790697674438,"midi":80,"time":100.81395348837209,"velocity":0.31496062992125984},{"duration":0.04651162790698038,"midi":75,"time":100.82558139534883,"velocity":0.33070866141732286},{"duration":0.03488372093023884,"midi":99,"time":100.83720930232558,"velocity":0.14960629921259844},{"duration":0.04651162790696617,"midi":63,"time":100.84883720930233,"velocity":0.30708661417322836},{"duration":0.05813953488372192,"midi":93,"time":100.84883720930233,"velocity":0.15748031496062992},{"duration":0.23255813953487348,"midi":103,"time":100.84883720930233,"velocity":0.33858267716535434},{"duration":0.023255813953483084,"midi":56,"time":100.87209302325581,"velocity":0.31496062992125984},{"duration":0.04651162790698038,"midi":90,"time":100.87209302325581,"velocity":0.5118110236220472},{"duration":0.023255813953497295,"midi":86,"time":100.88372093023256,"velocity":0.31496062992125984},{"duration":0.081395348837205,"midi":96,"time":100.88372093023256,"velocity":0.33070866141732286},{"duration":0.34883720930233153,"midi":75,"time":100.8953488372093,"velocity":0.5984251968503937},{"duration":0.16279069767442422,"midi":84,"time":100.8953488372093,"velocity":0.28346456692913385},{"duration":0.3604651162790731,"midi":89,"time":100.8953488372093,"velocity":0.4015748031496063},{"duration":0.16279069767442422,"midi":91,"time":100.8953488372093,"velocity":0.5118110236220472},{"duration":0.13953488372094114,"midi":99,"time":100.8953488372093,"velocity":0.2204724409448819},{"duration":0.034883720930224626,"midi":61,"time":100.90697674418605,"velocity":0.2992125984251969},{"duration":0.023255813953483084,"midi":63,"time":100.90697674418605,"velocity":0.25196850393700787},{"duration":0.023255813953483084,"midi":72,"time":100.93023255813954,"velocity":0.28346456692913385},{"duration":0.081395348837205,"midi":56,"time":100.94186046511628,"velocity":0.30708661417322836},{"duration":0.023255813953483084,"midi":60,"time":100.94186046511628,"velocity":0.28346456692913385},{"duration":0.30232558139535115,"midi":97,"time":100.94186046511628,"velocity":0.33070866141732286},{"duration":0.1046511627907023,"midi":63,"time":100.95348837209302,"velocity":0.3228346456692913},{"duration":0.023255813953497295,"midi":73,"time":100.95348837209302,"velocity":0.23622047244094488},{"duration":0.034883720930224626,"midi":72,"time":100.97674418604652,"velocity":0.29133858267716534},{"duration":0.034883720930224626,"midi":90,"time":100.98837209302326,"velocity":0.16535433070866143},{"duration":0.03488372093023884,"midi":73,"time":101.01162790697674,"velocity":0.4015748031496063},{"duration":0.03488372093023884,"midi":83,"time":101.02325581395348,"velocity":0.15748031496062992},{"duration":0.08139534883721922,"midi":95,"time":101.02325581395348,"velocity":0.2992125984251969},{"duration":0.034883720930224626,"midi":78,"time":101.03488372093024,"velocity":0.15748031496062992},{"duration":0.04651162790696617,"midi":98,"time":101.03488372093024,"velocity":0.2204724409448819},{"duration":0.13953488372092693,"midi":102,"time":101.03488372093024,"velocity":0.4015748031496063},{"duration":0.034883720930224626,"midi":74,"time":101.04651162790698,"velocity":0.4645669291338583},{"duration":0.05813953488372192,"midi":81,"time":101.04651162790698,"velocity":0.2440944881889764},{"duration":0.11627906976744384,"midi":90,"time":101.04651162790698,"velocity":0.4330708661417323},{"duration":0.06976744186046346,"midi":96,"time":101.04651162790698,"velocity":0.3543307086614173},{"duration":0.06976744186046346,"midi":100,"time":101.04651162790698,"velocity":0.2125984251968504},{"duration":0.023255813953483084,"midi":40,"time":101.05813953488372,"velocity":0.33070866141732286},{"duration":0.023255813953483084,"midi":60,"time":101.05813953488372,"velocity":0.2755905511811024},{"duration":0.06976744186046346,"midi":68,"time":101.05813953488372,"velocity":0.14960629921259844},{"duration":0.1046511627907023,"midi":56,"time":101.06976744186046,"velocity":0.3700787401574803},{"duration":0.17441860465116577,"midi":91,"time":101.06976744186046,"velocity":0.3228346456692913},{"duration":0.023255813953497295,"midi":42,"time":101.0813953488372,"velocity":0.25984251968503935},{"duration":0.11627906976744384,"midi":61,"time":101.0813953488372,"velocity":0.3858267716535433},{"duration":0.11627906976744384,"midi":73,"time":101.0813953488372,"velocity":0.47244094488188976},{"duration":0.03488372093023884,"midi":48,"time":101.09302325581395,"velocity":0.2283464566929134},{"duration":0.1279069767441996,"midi":65,"time":101.09302325581395,"velocity":0.25196850393700787},{"duration":0.04651162790698038,"midi":94,"time":101.09302325581395,"velocity":0.3543307086614173},{"duration":0.023255813953483084,"midi":41,"time":101.1046511627907,"velocity":0.23622047244094488},{"duration":0.03488372093023884,"midi":30,"time":101.12790697674419,"velocity":0.2047244094488189},{"duration":0.03488372093023884,"midi":82,"time":101.12790697674419,"velocity":0.18110236220472442},{"duration":0.09302325581396076,"midi":95,"time":101.13953488372093,"velocity":0.3937007874015748},{"duration":0.03488372093023884,"midi":96,"time":101.13953488372093,"velocity":0.13385826771653545},{"duration":0.05813953488372192,"midi":78,"time":101.15116279069767,"velocity":0.2047244094488189},{"duration":0.04651162790698038,"midi":83,"time":101.15116279069767,"velocity":0.2125984251968504},{"duration":0.04651162790696617,"midi":84,"time":101.16279069767442,"velocity":0.23622047244094488},{"duration":0.03488372093023884,"midi":40,"time":101.18604651162791,"velocity":0.3464566929133858},{"duration":0.03488372093023884,"midi":57,"time":101.18604651162791,"velocity":0.33070866141732286},{"duration":0.03488372093023884,"midi":72,"time":101.19767441860465,"velocity":0.33070866141732286},{"duration":0.16279069767442422,"midi":102,"time":101.20930232558139,"velocity":0.31496062992125984},{"duration":0.05813953488370771,"midi":48,"time":101.22093023255815,"velocity":0.2755905511811024},{"duration":0.023255813953483084,"midi":73,"time":101.23255813953489,"velocity":0.3543307086614173},{"duration":0.04651162790696617,"midi":77,"time":101.23255813953489,"velocity":0.13385826771653545},{"duration":0.081395348837205,"midi":84,"time":101.23255813953489,"velocity":0.14173228346456693},{"duration":0.1046511627907023,"midi":90,"time":101.24418604651163,"velocity":0.2440944881889764},{"duration":0.023255813953483084,"midi":68,"time":101.25581395348837,"velocity":0.2755905511811024},{"duration":0.023255813953483084,"midi":74,"time":101.25581395348837,"velocity":0.33070866141732286},{"duration":0.05813953488372192,"midi":91,"time":101.25581395348837,"velocity":0.2204724409448819},{"duration":0.04651162790698038,"midi":95,"time":101.25581395348837,"velocity":0.11023622047244094},{"duration":0.24418604651162923,"midi":96,"time":101.26744186046511,"velocity":0.18110236220472442},{"duration":0.08139534883721922,"midi":97,"time":101.26744186046511,"velocity":0.2283464566929134},{"duration":0.023255813953497295,"midi":64,"time":101.27906976744185,"velocity":0.3700787401574803},{"duration":0.023255813953497295,"midi":67,"time":101.27906976744185,"velocity":0.3464566929133858},{"duration":0.03488372093023884,"midi":73,"time":101.27906976744185,"velocity":0.3543307086614173},{"duration":0.05813953488372192,"midi":82,"time":101.27906976744185,"velocity":0.13385826771653545},{"duration":0.17441860465116577,"midi":89,"time":101.27906976744185,"velocity":0.31496062992125984},{"duration":0.06976744186047767,"midi":92,"time":101.27906976744185,"velocity":0.36220472440944884},{"duration":0.06976744186047767,"midi":100,"time":101.27906976744185,"velocity":0.1968503937007874},{"duration":0.16279069767442422,"midi":101,"time":101.27906976744185,"velocity":0.3543307086614173},{"duration":0.034883720930224626,"midi":86,"time":101.29069767441861,"velocity":0.16535433070866143},{"duration":0.06976744186046346,"midi":88,"time":101.29069767441861,"velocity":0.18110236220472442},{"duration":0.04651162790696617,"midi":93,"time":101.29069767441861,"velocity":0.1732283464566929},{"duration":0.09302325581394655,"midi":94,"time":101.29069767441861,"velocity":0.1732283464566929},{"duration":0.09302325581394655,"midi":98,"time":101.29069767441861,"velocity":0.2677165354330709},{"duration":0.011627906976741542,"midi":45,"time":101.31395348837209,"velocity":0.5511811023622047},{"duration":0.04651162790698038,"midi":75,"time":101.31395348837209,"velocity":0.2440944881889764},{"duration":0.011627906976741542,"midi":44,"time":101.32558139534883,"velocity":0.5905511811023622},{"duration":0.03488372093023884,"midi":61,"time":101.32558139534883,"velocity":0.4881889763779528},{"duration":0.03488372093023884,"midi":69,"time":101.32558139534883,"velocity":0.1732283464566929},{"duration":0.08139534883721922,"midi":91,"time":101.32558139534883,"velocity":0.15748031496062992},{"duration":0.1046511627907023,"midi":95,"time":101.32558139534883,"velocity":0.1968503937007874},{"duration":0.011627906976755753,"midi":43,"time":101.33720930232558,"velocity":0.5433070866141733},{"duration":0.023255813953497295,"midi":66,"time":101.33720930232558,"velocity":0.23622047244094488},{"duration":0.011627906976741542,"midi":42,"time":101.34883720930233,"velocity":0.5196850393700787},{"duration":0.09302325581394655,"midi":74,"time":101.34883720930233,"velocity":0.31496062992125984},{"duration":0.081395348837205,"midi":77,"time":101.34883720930233,"velocity":0.2677165354330709},{"duration":0.023255813953483084,"midi":93,"time":101.34883720930233,"velocity":0.4566929133858268},{"duration":0.023255813953483084,"midi":52,"time":101.36046511627907,"velocity":0.25984251968503935},{"duration":0.023255813953483084,"midi":62,"time":101.36046511627907,"velocity":0.49606299212598426},{"duration":0.17441860465116577,"midi":68,"time":101.36046511627907,"velocity":0.2992125984251969},{"duration":0.034883720930224626,"midi":100,"time":101.36046511627907,"velocity":0.2283464566929134},{"duration":0.05813953488372192,"midi":84,"time":101.37209302325581,"velocity":0.14960629921259844},{"duration":0.05813953488372192,"midi":92,"time":101.37209302325581,"velocity":0.5275590551181102},{"duration":0.04651162790698038,"midi":61,"time":101.38372093023256,"velocity":0.5039370078740157},{"duration":0.081395348837205,"midi":65,"time":101.38372093023256,"velocity":0.3228346456692913},{"duration":0.09302325581396076,"midi":82,"time":101.38372093023256,"velocity":0.11811023622047244},{"duration":0.023255813953497295,"midi":37,"time":101.3953488372093,"velocity":0.3700787401574803},{"duration":0.03488372093023884,"midi":56,"time":101.3953488372093,"velocity":0.29133858267716534},{"duration":0.08139534883721922,"midi":94,"time":101.3953488372093,"velocity":0.4015748031496063},{"duration":0.5,"midi":102,"time":101.3953488372093,"velocity":0.3779527559055118},{"duration":0.023255813953483084,"midi":72,"time":101.40697674418605,"velocity":0.33070866141732286},{"duration":0.05813953488370771,"midi":90,"time":101.40697674418605,"velocity":0.23622047244094488},{"duration":0.05813953488370771,"midi":100,"time":101.40697674418605,"velocity":0.2125984251968504},{"duration":0.023255813953483084,"midi":36,"time":101.4186046511628,"velocity":0.2440944881889764},{"duration":0.034883720930224626,"midi":70,"time":101.4186046511628,"velocity":0.15748031496062992},{"duration":0.04651162790696617,"midi":88,"time":101.4186046511628,"velocity":0.29133858267716534},{"duration":0.15116279069766847,"midi":91,"time":101.4186046511628,"velocity":0.5354330708661418},{"duration":0.023255813953483084,"midi":47,"time":101.43023255813954,"velocity":0.2992125984251969},{"duration":0.023255813953483084,"midi":60,"time":101.43023255813954,"velocity":0.4330708661417323},{"duration":0.034883720930224626,"midi":73,"time":101.43023255813954,"velocity":0.3700787401574803},{"duration":0.034883720930224626,"midi":78,"time":101.43023255813954,"velocity":0.14173228346456693},{"duration":0.04651162790698038,"midi":87,"time":101.43023255813954,"velocity":0.09448818897637795},{"duration":0.04651162790698038,"midi":93,"time":101.43023255813954,"velocity":0.1732283464566929},{"duration":0.023255813953483084,"midi":40,"time":101.44186046511628,"velocity":0.2755905511811024},{"duration":0.023255813953483084,"midi":56,"time":101.44186046511628,"velocity":0.2992125984251969},{"duration":0.03488372093023884,"midi":99,"time":101.44186046511628,"velocity":0.14960629921259844},{"duration":0.06976744186046346,"midi":48,"time":101.45348837209302,"velocity":0.25984251968503935},{"duration":0.05813953488372192,"midi":61,"time":101.45348837209302,"velocity":0.5118110236220472},{"duration":0.023255813953497295,"midi":55,"time":101.46511627906976,"velocity":0.33858267716535434},{"duration":0.04651162790698038,"midi":74,"time":101.46511627906976,"velocity":0.28346456692913385},{"duration":0.9069767441860535,"midi":77,"time":101.46511627906976,"velocity":0.3937007874015748},{"duration":0.03488372093023884,"midi":89,"time":101.46511627906976,"velocity":0.4015748031496063},{"duration":0.05813953488372192,"midi":92,"time":101.46511627906976,"velocity":0.4015748031496063},{"duration":0.11627906976744384,"midi":95,"time":101.46511627906976,"velocity":0.4881889763779528},{"duration":0.05813953488372192,"midi":75,"time":101.47674418604652,"velocity":0.33070866141732286},{"duration":0.06976744186046346,"midi":36,"time":101.48837209302326,"velocity":0.33070866141732286},{"duration":0.04651162790698038,"midi":94,"time":101.48837209302326,"velocity":0.16535433070866143},{"duration":0.023255813953483084,"midi":81,"time":101.5,"velocity":0.25984251968503935},{"duration":0.06976744186046346,"midi":84,"time":101.5,"velocity":0.1889763779527559},{"duration":0.13953488372092693,"midi":90,"time":101.5,"velocity":0.4094488188976378},{"duration":0.03488372093023884,"midi":93,"time":101.5,"velocity":0.28346456692913385},{"duration":0.04651162790698038,"midi":56,"time":101.51162790697674,"velocity":0.2283464566929134},{"duration":0.03488372093023884,"midi":62,"time":101.51162790697674,"velocity":0.48031496062992124},{"duration":0.06976744186046346,"midi":100,"time":101.51162790697674,"velocity":0.10236220472440945},{"duration":0.11627906976744384,"midi":99,"time":101.52325581395348,"velocity":0.15748031496062992},{"duration":0.034883720930224626,"midi":81,"time":101.53488372093024,"velocity":0.23622047244094488},{"duration":0.04651162790696617,"midi":88,"time":101.53488372093024,"velocity":0.1732283464566929},{"duration":0.04651162790696617,"midi":92,"time":101.53488372093024,"velocity":0.3700787401574803},{"duration":0.04651162790696617,"midi":61,"time":101.54651162790698,"velocity":0.47244094488188976},{"duration":0.10465116279068809,"midi":68,"time":101.54651162790698,"velocity":0.36220472440944884},{"duration":0.04651162790696617,"midi":85,"time":101.54651162790698,"velocity":0.1732283464566929},{"duration":0.16279069767441,"midi":97,"time":101.54651162790698,"velocity":0.1968503937007874},{"duration":0.023255813953483084,"midi":78,"time":101.55813953488372,"velocity":0.23622047244094488},{"duration":0.034883720930224626,"midi":83,"time":101.55813953488372,"velocity":0.1732283464566929},{"duration":0.03488372093023884,"midi":45,"time":101.56976744186046,"velocity":0.3779527559055118},{"duration":0.05813953488372192,"midi":65,"time":101.56976744186046,"velocity":0.31496062992125984},{"duration":0.33720930232559,"midi":73,"time":101.56976744186046,"velocity":0.47244094488188976},{"duration":0.023255813953497295,"midi":53,"time":101.5813953488372,"velocity":0.30708661417322836},{"duration":0.08139534883721922,"midi":93,"time":101.5813953488372,"velocity":0.13385826771653545},{"duration":0.04651162790698038,"midi":94,"time":101.5813953488372,"velocity":0.4251968503937008},{"duration":0.1046511627907023,"midi":84,"time":101.59302325581395,"velocity":0.2677165354330709},{"duration":0.023255813953497295,"midi":88,"time":101.59302325581395,"velocity":0.3543307086614173},{"duration":0.45348837209303383,"midi":92,"time":101.59302325581395,"velocity":0.3700787401574803},{"duration":0.3604651162790731,"midi":95,"time":101.59302325581395,"velocity":0.3937007874015748},{"duration":0.023255813953483084,"midi":36,"time":101.6046511627907,"velocity":0.2755905511811024},{"duration":0.04651162790696617,"midi":46,"time":101.6046511627907,"velocity":0.2755905511811024},{"duration":0.04651162790698038,"midi":60,"time":101.61627906976744,"velocity":0.4251968503937008},{"duration":0.034883720930224626,"midi":75,"time":101.61627906976744,"velocity":0.18110236220472442},{"duration":0.023255813953483084,"midi":89,"time":101.61627906976744,"velocity":0.4015748031496063},{"duration":0.081395348837205,"midi":34,"time":101.62790697674419,"velocity":0.30708661417322836},{"duration":0.023255813953483084,"midi":88,"time":101.62790697674419,"velocity":0.4330708661417323},{"duration":0.03488372093023884,"midi":66,"time":101.65116279069767,"velocity":0.3543307086614173},{"duration":0.06976744186047767,"midi":86,"time":101.65116279069767,"velocity":0.25984251968503935},{"duration":0.05813953488372192,"midi":89,"time":101.65116279069767,"velocity":0.41732283464566927},{"duration":0.03488372093023884,"midi":94,"time":101.65116279069767,"velocity":0.2755905511811024},{"duration":0.023255813953483084,"midi":61,"time":101.66279069767442,"velocity":0.5433070866141733},{"duration":0.4186046511627808,"midi":68,"time":101.66279069767442,"velocity":0.3858267716535433},{"duration":0.04651162790698038,"midi":103,"time":101.67441860465117,"velocity":0.2204724409448819},{"duration":0.03488372093023884,"midi":56,"time":101.68604651162791,"velocity":0.2125984251968504},{"duration":0.04651162790698038,"midi":62,"time":101.68604651162791,"velocity":0.5590551181102362},{"duration":0.04651162790698038,"midi":90,"time":101.68604651162791,"velocity":0.2677165354330709},{"duration":0.04651162790698038,"midi":100,"time":101.68604651162791,"velocity":0.14173228346456693},{"duration":0.04651162790698038,"midi":81,"time":101.69767441860465,"velocity":0.25196850393700787},{"duration":0.034883720930224626,"midi":65,"time":101.72093023255815,"velocity":0.15748031496062992},{"duration":0.034883720930224626,"midi":84,"time":101.72093023255815,"velocity":0.1968503937007874},{"duration":0.12790697674418539,"midi":94,"time":101.72093023255815,"velocity":0.25196850393700787},{"duration":0.09302325581394655,"midi":99,"time":101.72093023255815,"velocity":0.12598425196850394},{"duration":0.05813953488372192,"midi":61,"time":101.73255813953489,"velocity":0.5118110236220472},{"duration":0.023255813953483084,"midi":55,"time":101.75581395348837,"velocity":0.3228346456692913},{"duration":0.03488372093023884,"midi":53,"time":101.77906976744185,"velocity":0.1968503937007874},{"duration":0.03488372093023884,"midi":75,"time":101.77906976744185,"velocity":0.13385826771653545},{"duration":0.04651162790698038,"midi":88,"time":101.77906976744185,"velocity":0.30708661417322836},{"duration":0.05813953488372192,"midi":91,"time":101.77906976744185,"velocity":0.16535433070866143},{"duration":0.09302325581396076,"midi":96,"time":101.77906976744185,"velocity":0.12598425196850394},{"duration":0.023255813953483084,"midi":60,"time":101.79069767441861,"velocity":0.3937007874015748},{"duration":0.034883720930224626,"midi":90,"time":101.79069767441861,"velocity":0.07874015748031496},{"duration":0.023255813953483084,"midi":52,"time":101.81395348837209,"velocity":0.3937007874015748},{"duration":0.03488372093023884,"midi":61,"time":101.81395348837209,"velocity":0.4015748031496063},{"duration":0.023255813953483084,"midi":66,"time":101.81395348837209,"velocity":0.33070866141732286},{"duration":0.05813953488372192,"midi":84,"time":101.81395348837209,"velocity":0.18110236220472442},{"duration":0.05813953488372192,"midi":87,"time":101.81395348837209,"velocity":0.1889763779527559},{"duration":0.03488372093023884,"midi":93,"time":101.81395348837209,"velocity":0.16535433070866143},{"duration":0.011627906976755753,"midi":46,"time":101.83720930232558,"velocity":0.5433070866141733},{"duration":0.06976744186047767,"midi":75,"time":101.83720930232558,"velocity":0.16535433070866143},{"duration":0.011627906976741542,"midi":45,"time":101.84883720930233,"velocity":0.6141732283464567},{"duration":0.09302325581394655,"midi":62,"time":101.84883720930233,"velocity":0.2992125984251969},{"duration":0.011627906976741542,"midi":44,"time":101.86046511627907,"velocity":0.5984251968503937},{"duration":0.023255813953483084,"midi":42,"time":101.87209302325581,"velocity":0.5748031496062992},{"duration":0.05813953488372192,"midi":65,"time":101.87209302325581,"velocity":0.2677165354330709},{"duration":0.12790697674418539,"midi":84,"time":101.88372093023256,"velocity":0.2283464566929134},{"duration":0.05813953488372192,"midi":56,"time":101.9186046511628,"velocity":0.2125984251968504},{"duration":0.05813953488372192,"midi":75,"time":101.93023255813954,"velocity":0.14960629921259844},{"duration":0.03488372093023884,"midi":36,"time":101.94186046511628,"velocity":0.33858267716535434},{"duration":0.16279069767442422,"midi":61,"time":101.94186046511628,"velocity":0.4015748031496063},{"duration":0.03488372093023884,"midi":65,"time":101.94186046511628,"velocity":0.29133858267716534},{"duration":0.05813953488372192,"midi":94,"time":101.94186046511628,"velocity":0.11811023622047244},{"duration":0.06976744186046346,"midi":87,"time":101.95348837209302,"velocity":0.14960629921259844},{"duration":0.08139534883721922,"midi":97,"time":101.95348837209302,"velocity":0.2755905511811024},{"duration":0.06976744186046346,"midi":102,"time":101.95348837209302,"velocity":0.14173228346456693},{"duration":0.12790697674418539,"midi":73,"time":101.96511627906976,"velocity":0.4015748031496063},{"duration":0.11627906976744384,"midi":91,"time":101.96511627906976,"velocity":0.25196850393700787},{"duration":0.05813953488372192,"midi":93,"time":101.96511627906976,"velocity":0.2125984251968504},{"duration":0.08139534883721922,"midi":99,"time":101.96511627906976,"velocity":0.25196850393700787},{"duration":0.034883720930224626,"midi":56,"time":101.98837209302326,"velocity":0.2677165354330709},{"duration":0.15116279069766847,"midi":95,"time":101.98837209302326,"velocity":0.2125984251968504},{"duration":0.023255813953483084,"midi":66,"time":102,"velocity":0.30708661417322836},{"duration":0.15116279069768268,"midi":65,"time":102.02325581395348,"velocity":0.4015748031496063},{"duration":0.034883720930224626,"midi":87,"time":102.04651162790698,"velocity":0.1732283464566929},{"duration":0.06976744186046346,"midi":86,"time":102.06976744186046,"velocity":0.2440944881889764},{"duration":0.04651162790698038,"midi":93,"time":102.06976744186046,"velocity":0.16535433070866143},{"duration":0.023255813953497295,"midi":76,"time":102.0813953488372,"velocity":0.25984251968503935},{"duration":0.04651162790698038,"midi":81,"time":102.0813953488372,"velocity":0.2204724409448819},{"duration":0.1046511627907023,"midi":44,"time":102.09302325581395,"velocity":0.3937007874015748},{"duration":0.03488372093023884,"midi":68,"time":102.09302325581395,"velocity":0.31496062992125984},{"duration":0.03488372093023884,"midi":102,"time":102.09302325581395,"velocity":0.09448818897637795},{"duration":0.05813953488372192,"midi":51,"time":102.1046511627907,"velocity":0.33070866141732286},{"duration":0.2674418604651123,"midi":73,"time":102.1046511627907,"velocity":0.4251968503937008},{"duration":0.034883720930224626,"midi":88,"time":102.1046511627907,"velocity":0.2440944881889764},{"duration":0.05813953488372192,"midi":97,"time":102.1046511627907,"velocity":0.18110236220472442},{"duration":0.05813953488372192,"midi":99,"time":102.1046511627907,"velocity":0.16535433070866143},{"duration":0.023255813953483084,"midi":69,"time":102.12790697674419,"velocity":0.29133858267716534},{"duration":0.03488372093023884,"midi":90,"time":102.12790697674419,"velocity":0.09448818897637795},{"duration":0.023255813953497295,"midi":60,"time":102.15116279069767,"velocity":0.25196850393700787},{"duration":0.1860465116279073,"midi":68,"time":102.15116279069767,"velocity":0.3543307086614173},{"duration":0.034883720930224626,"midi":52,"time":102.16279069767442,"velocity":0.36220472440944884},{"duration":0.09302325581394655,"midi":32,"time":102.17441860465117,"velocity":0.36220472440944884},{"duration":0.04651162790698038,"midi":61,"time":102.17441860465117,"velocity":0.2204724409448819},{"duration":0.023255813953483084,"midi":66,"time":102.17441860465117,"velocity":0.3543307086614173},{"duration":0.11627906976744384,"midi":65,"time":102.19767441860465,"velocity":0.2755905511811024},{"duration":0.023255813953497295,"midi":56,"time":102.20930232558139,"velocity":0.31496062992125984},{"duration":0.09302325581396076,"midi":94,"time":102.20930232558139,"velocity":0.10236220472440945},{"duration":0.06976744186046346,"midi":95,"time":102.20930232558139,"velocity":0.11023622047244094},{"duration":0.05813953488372192,"midi":103,"time":102.20930232558139,"velocity":0.09448818897637795},{"duration":0.09302325581394655,"midi":87,"time":102.22093023255815,"velocity":0.16535433070866143},{"duration":0.081395348837205,"midi":99,"time":102.22093023255815,"velocity":0.2283464566929134},{"duration":0.22093023255813193,"midi":101,"time":102.22093023255815,"velocity":0.2125984251968504},{"duration":0.09302325581394655,"midi":90,"time":102.23255813953489,"velocity":0.25984251968503935},{"duration":0.05813953488372192,"midi":97,"time":102.23255813953489,"velocity":0.1968503937007874},{"duration":0.023255813953483084,"midi":57,"time":102.24418604651163,"velocity":0.2677165354330709},{"duration":0.023255813953483084,"midi":71,"time":102.25581395348837,"velocity":0.30708661417322836},{"duration":0.023255813953497295,"midi":55,"time":102.26744186046511,"velocity":0.3464566929133858},{"duration":0.06976744186047767,"midi":84,"time":102.27906976744185,"velocity":0.09448818897637795},{"duration":0.081395348837205,"midi":62,"time":102.30232558139535,"velocity":0.44881889763779526},{"duration":0.03488372093023884,"midi":66,"time":102.31395348837209,"velocity":0.4015748031496063},{"duration":0.03488372093023884,"midi":75,"time":102.32558139534883,"velocity":0.13385826771653545},{"duration":0.17441860465116577,"midi":90,"time":102.33720930232558,"velocity":0.29133858267716534},{"duration":0.05813953488372192,"midi":93,"time":102.33720930232558,"velocity":0.2677165354330709},{"duration":0.05813953488372192,"midi":95,"time":102.33720930232558,"velocity":0.2125984251968504},{"duration":0.27906976744186807,"midi":96,"time":102.33720930232558,"velocity":0.2677165354330709},{"duration":0.11627906976744384,"midi":97,"time":102.33720930232558,"velocity":0.28346456692913385},{"duration":0.1046511627907023,"midi":99,"time":102.33720930232558,"velocity":0.31496062992125984},{"duration":0.1046511627907023,"midi":100,"time":102.33720930232558,"velocity":0.23622047244094488},{"duration":0.034883720930224626,"midi":55,"time":102.34883720930233,"velocity":0.5354330708661418},{"duration":0.04651162790696617,"midi":81,"time":102.34883720930233,"velocity":0.2204724409448819},{"duration":0.04651162790696617,"midi":83,"time":102.34883720930233,"velocity":0.2204724409448819},{"duration":0.04651162790696617,"midi":86,"time":102.34883720930233,"velocity":0.2204724409448819},{"duration":0.034883720930224626,"midi":88,"time":102.34883720930233,"velocity":0.2755905511811024},{"duration":0.034883720930224626,"midi":94,"time":102.34883720930233,"velocity":0.2047244094488189},{"duration":0.2906976744185954,"midi":98,"time":102.34883720930233,"velocity":0.31496062992125984},{"duration":0.023255813953483084,"midi":76,"time":102.36046511627907,"velocity":0.25196850393700787},{"duration":0.09302325581394655,"midi":80,"time":102.36046511627907,"velocity":0.2992125984251969},{"duration":0.011627906976741542,"midi":45,"time":102.37209302325581,"velocity":0.5590551181102362},{"duration":0.09302325581394655,"midi":65,"time":102.37209302325581,"velocity":0.2283464566929134},{"duration":0.1046511627907023,"midi":68,"time":102.37209302325581,"velocity":0.4330708661417323},{"duration":0.09302325581394655,"midi":87,"time":102.37209302325581,"velocity":0.1732283464566929},{"duration":0.011627906976741542,"midi":44,"time":102.38372093023256,"velocity":0.5826771653543307},{"duration":0.05813953488372192,"midi":61,"time":102.38372093023256,"velocity":0.2204724409448819},{"duration":0.05813953488372192,"midi":75,"time":102.38372093023256,"velocity":0.4645669291338583},{"duration":0.011627906976755753,"midi":43,"time":102.3953488372093,"velocity":0.5669291338582677},{"duration":0.1046511627907023,"midi":56,"time":102.3953488372093,"velocity":0.5039370078740157},{"duration":0.04651162790698038,"midi":84,"time":102.3953488372093,"velocity":0.18110236220472442},{"duration":0.04651162790698038,"midi":94,"time":102.3953488372093,"velocity":0.23622047244094488},{"duration":0.011627906976741542,"midi":42,"time":102.40697674418605,"velocity":0.5354330708661418},{"duration":0.034883720930224626,"midi":93,"time":102.4186046511628,"velocity":0.07086614173228346},{"duration":0.034883720930224626,"midi":49,"time":102.43023255813954,"velocity":0.25984251968503935},{"duration":0.04651162790698038,"midi":76,"time":102.43023255813954,"velocity":0.2283464566929134},{"duration":0.034883720930224626,"midi":83,"time":102.43023255813954,"velocity":0.07874015748031496},{"duration":0.13953488372092693,"midi":88,"time":102.43023255813954,"velocity":0.2440944881889764},{"duration":0.09302325581394655,"midi":89,"time":102.43023255813954,"velocity":0.25984251968503935},{"duration":0.16279069767442422,"midi":75,"time":102.46511627906976,"velocity":0.36220472440944884},{"duration":0.023255813953497295,"midi":78,"time":102.46511627906976,"velocity":0.23622047244094488},{"duration":0.05813953488372192,"midi":82,"time":102.46511627906976,"velocity":0.3937007874015748},{"duration":0.04651162790698038,"midi":84,"time":102.46511627906976,"velocity":0.2204724409448819},{"duration":0.04651162790698038,"midi":86,"time":102.46511627906976,"velocity":0.2992125984251969},{"duration":0.11627906976744384,"midi":95,"time":102.46511627906976,"velocity":0.18110236220472442},{"duration":0.38372093023257037,"midi":97,"time":102.46511627906976,"velocity":0.29133858267716534},{"duration":0.2325581395348877,"midi":99,"time":102.46511627906976,"velocity":0.33070866141732286},{"duration":0.023255813953483084,"midi":71,"time":102.47674418604652,"velocity":0.3228346456692913},{"duration":0.06976744186046346,"midi":101,"time":102.47674418604652,"velocity":0.25984251968503935},{"duration":0.12790697674418539,"midi":77,"time":102.48837209302326,"velocity":0.3937007874015748},{"duration":0.11627906976744384,"midi":80,"time":102.48837209302326,"velocity":0.2125984251968504},{"duration":0.04651162790698038,"midi":91,"time":102.48837209302326,"velocity":0.16535433070866143},{"duration":0.03488372093023884,"midi":51,"time":102.5,"velocity":0.31496062992125984},{"duration":0.023255813953483084,"midi":60,"time":102.5,"velocity":0.25196850393700787},{"duration":0.03488372093023884,"midi":66,"time":102.5,"velocity":0.15748031496062992},{"duration":0.1046511627907023,"midi":70,"time":102.5,"velocity":0.4881889763779528},{"duration":0.06976744186046346,"midi":73,"time":102.5,"velocity":0.30708661417322836},{"duration":0.06976744186046346,"midi":44,"time":102.51162790697674,"velocity":0.33070866141732286},{"duration":0.1046511627907023,"midi":86,"time":102.52325581395348,"velocity":0.36220472440944884},{"duration":0.03488372093023884,"midi":90,"time":102.52325581395348,"velocity":0.30708661417322836},{"duration":0.023255813953483084,"midi":52,"time":102.54651162790698,"velocity":0.2992125984251969},{"duration":0.023255813953483084,"midi":58,"time":102.54651162790698,"velocity":0.3937007874015748},{"duration":0.04651162790696617,"midi":83,"time":102.54651162790698,"velocity":0.18110236220472442},{"duration":0.09302325581396076,"midi":32,"time":102.56976744186046,"velocity":0.33070866141732286},{"duration":0.023255813953497295,"midi":56,"time":102.5813953488372,"velocity":0.48031496062992124},{"duration":0.3604651162790731,"midi":102,"time":102.5813953488372,"velocity":0.3779527559055118},{"duration":0.05813953488372192,"midi":90,"time":102.59302325581395,"velocity":0.15748031496062992},{"duration":0.023255813953483084,"midi":63,"time":102.6046511627907,"velocity":0.28346456692913385},{"duration":0.034883720930224626,"midi":79,"time":102.6046511627907,"velocity":0.14960629921259844},{"duration":0.04651162790696617,"midi":88,"time":102.6046511627907,"velocity":0.36220472440944884},{"duration":0.04651162790696617,"midi":95,"time":102.6046511627907,"velocity":0.2440944881889764},{"duration":0.09302325581394655,"midi":56,"time":102.61627906976744,"velocity":0.47244094488188976},{"duration":0.05813953488372192,"midi":73,"time":102.61627906976744,"velocity":0.5196850393700787},{"duration":0.03488372093023884,"midi":61,"time":102.62790697674419,"velocity":0.3228346456692913},{"duration":0.06976744186046346,"midi":89,"time":102.63953488372093,"velocity":0.2677165354330709},{"duration":0.1860465116279073,"midi":101,"time":102.63953488372093,"velocity":0.33858267716535434},{"duration":0.04651162790696617,"midi":87,"time":102.66279069767442,"velocity":0.18110236220472442},{"duration":0.16279069767441,"midi":100,"time":102.66279069767442,"velocity":0.31496062992125984},{"duration":0.04651162790698038,"midi":72,"time":102.67441860465117,"velocity":0.5118110236220472},{"duration":0.1860465116279073,"midi":86,"time":102.67441860465117,"velocity":0.33070866141732286},{"duration":0.034883720930224626,"midi":91,"time":102.67441860465117,"velocity":0.13385826771653545},{"duration":0.05813953488372192,"midi":103,"time":102.67441860465117,"velocity":0.30708661417322836},{"duration":0.13953488372092693,"midi":82,"time":102.68604651162791,"velocity":0.2283464566929134},{"duration":0.04651162790698038,"midi":59,"time":102.69767441860465,"velocity":0.3858267716535433},{"duration":0.03488372093023884,"midi":70,"time":102.69767441860465,"velocity":0.3543307086614173},{"duration":0.04651162790698038,"midi":75,"time":102.69767441860465,"velocity":0.23622047244094488},{"duration":0.12790697674418539,"midi":77,"time":102.69767441860465,"velocity":0.33858267716535434},{"duration":0.03488372093023884,"midi":49,"time":102.70930232558139,"velocity":0.25984251968503935},{"duration":0.03488372093023884,"midi":65,"time":102.70930232558139,"velocity":0.18110236220472442},{"duration":0.09302325581394655,"midi":95,"time":102.72093023255815,"velocity":0.25196850393700787},{"duration":0.023255813953483084,"midi":71,"time":102.73255813953489,"velocity":0.4015748031496063},{"duration":0.05813953488372192,"midi":79,"time":102.73255813953489,"velocity":0.23622047244094488},{"duration":0.12790697674418539,"midi":92,"time":102.73255813953489,"velocity":0.31496062992125984},{"duration":0.09302325581394655,"midi":94,"time":102.73255813953489,"velocity":0.31496062992125984},{"duration":0.081395348837205,"midi":99,"time":102.73255813953489,"velocity":0.2204724409448819},{"duration":0.023255813953483084,"midi":53,"time":102.74418604651163,"velocity":0.33070866141732286},{"duration":0.034883720930224626,"midi":58,"time":102.74418604651163,"velocity":0.4409448818897638},{"duration":0.023255813953483084,"midi":72,"time":102.74418604651163,"velocity":0.28346456692913385},{"duration":0.023255813953483084,"midi":74,"time":102.74418604651163,"velocity":0.2283464566929134},{"duration":0.17441860465116577,"midi":88,"time":102.74418604651163,"velocity":0.16535433070866143},{"duration":0.06976744186046346,"midi":90,"time":102.74418604651163,"velocity":0.2992125984251969},{"duration":0.1046511627907023,"midi":103,"time":102.74418604651163,"velocity":0.18110236220472442},{"duration":0.081395348837205,"midi":70,"time":102.75581395348837,"velocity":0.4566929133858268},{"duration":0.03488372093023884,"midi":87,"time":102.75581395348837,"velocity":0.11023622047244094},{"duration":0.09302325581396076,"midi":96,"time":102.75581395348837,"velocity":0.2047244094488189},{"duration":0.023255813953497295,"midi":66,"time":102.76744186046511,"velocity":0.28346456692913385},{"duration":0.11627906976744384,"midi":73,"time":102.76744186046511,"velocity":0.3937007874015748},{"duration":0.03488372093023884,"midi":75,"time":102.76744186046511,"velocity":0.14960629921259844},{"duration":0.05813953488372192,"midi":93,"time":102.76744186046511,"velocity":0.2047244094488189},{"duration":0.03488372093023884,"midi":38,"time":102.77906976744185,"velocity":0.3464566929133858},{"duration":0.09302325581396076,"midi":61,"time":102.77906976744185,"velocity":0.2992125984251969},{"duration":0.081395348837205,"midi":56,"time":102.79069767441861,"velocity":0.4409448818897638},{"duration":0.081395348837205,"midi":80,"time":102.79069767441861,"velocity":0.11811023622047244},{"duration":0.023255813953483084,"midi":50,"time":102.80232558139535,"velocity":0.41732283464566927},{"duration":0.04651162790698038,"midi":37,"time":102.81395348837209,"velocity":0.3464566929133858},{"duration":0.023255813953483084,"midi":66,"time":102.81395348837209,"velocity":0.2283464566929134},{"duration":0.023255813953497295,"midi":48,"time":102.83720930232558,"velocity":0.33858267716535434},{"duration":0.03488372093023884,"midi":77,"time":102.83720930232558,"velocity":0.13385826771653545},{"duration":0.023255813953483084,"midi":69,"time":102.86046511627907,"velocity":0.25984251968503935},{"duration":0.04651162790698038,"midi":79,"time":102.86046511627907,"velocity":0.16535433070866143},{"duration":0.11627906976744384,"midi":84,"time":102.86046511627907,"velocity":0.25984251968503935},{"duration":0.4418604651162781,"midi":89,"time":102.86046511627907,"velocity":0.3858267716535433},{"duration":0.10465116279068809,"midi":98,"time":102.86046511627907,"velocity":0.2440944881889764},{"duration":0.06976744186046346,"midi":100,"time":102.86046511627907,"velocity":0.2992125984251969},{"duration":0.023255813953483084,"midi":63,"time":102.87209302325581,"velocity":0.4409448818897638},{"duration":0.03488372093023884,"midi":87,"time":102.87209302325581,"velocity":0.15748031496062992},{"duration":0.15116279069766847,"midi":95,"time":102.87209302325581,"velocity":0.30708661417322836},{"duration":0.418604651162795,"midi":96,"time":102.87209302325581,"velocity":0.31496062992125984},{"duration":0.2325581395348877,"midi":99,"time":102.87209302325581,"velocity":0.3700787401574803},{"duration":0.13953488372092693,"midi":103,"time":102.87209302325581,"velocity":0.23622047244094488},{"duration":0.023255813953497295,"midi":72,"time":102.88372093023256,"velocity":0.3779527559055118},{"duration":0.023255813953497295,"midi":45,"time":102.8953488372093,"velocity":0.5826771653543307},{"duration":0.023255813953497295,"midi":64,"time":102.8953488372093,"velocity":0.4881889763779528},{"duration":0.09302325581396076,"midi":86,"time":102.8953488372093,"velocity":0.14960629921259844},{"duration":0.11627906976744384,"midi":92,"time":102.8953488372093,"velocity":0.1889763779527559},{"duration":0.6976744186046488,"midi":93,"time":102.90697674418605,"velocity":0.5669291338582677},{"duration":0.023255813953483084,"midi":44,"time":102.9186046511628,"velocity":0.5826771653543307},{"duration":0.023255813953483084,"midi":53,"time":102.9186046511628,"velocity":0.41732283464566927},{"duration":0.034883720930224626,"midi":58,"time":102.9186046511628,"velocity":0.28346456692913385},{"duration":0.023255813953483084,"midi":61,"time":102.9186046511628,"velocity":0.2992125984251969},{"duration":0.023255813953483084,"midi":65,"time":102.9186046511628,"velocity":0.4645669291338583},{"duration":0.04651162790696617,"midi":68,"time":102.9186046511628,"velocity":0.36220472440944884},{"duration":0.023255813953483084,"midi":72,"time":102.9186046511628,"velocity":0.28346456692913385},{"duration":0.04651162790696617,"midi":78,"time":102.9186046511628,"velocity":0.11811023622047244},{"duration":0.11627906976744384,"midi":85,"time":102.93023255813954,"velocity":0.2283464566929134},{"duration":0.05813953488372192,"midi":73,"time":102.94186046511628,"velocity":0.36220472440944884},{"duration":0.081395348837205,"midi":82,"time":102.94186046511628,"velocity":0.2047244094488189},{"duration":0.1046511627907023,"midi":97,"time":102.94186046511628,"velocity":0.23622047244094488},{"duration":0.023255813953497295,"midi":41,"time":102.95348837209302,"velocity":0.4015748031496063},{"duration":0.023255813953497295,"midi":58,"time":102.96511627906976,"velocity":0.31496062992125984},{"duration":0.09302325581396076,"midi":67,"time":102.96511627906976,"velocity":0.5118110236220472},{"duration":0.19767441860466306,"midi":77,"time":102.96511627906976,"velocity":0.3779527559055118},{"duration":0.12790697674418539,"midi":84,"time":102.98837209302326,"velocity":0.1968503937007874},{"duration":0.023255813953483084,"midi":46,"time":103,"velocity":0.2440944881889764},{"duration":0.023255813953483084,"midi":55,"time":103,"velocity":0.2283464566929134},{"duration":0.023255813953497295,"midi":37,"time":103.01162790697674,"velocity":0.28346456692913385},{"duration":0.06976744186046346,"midi":61,"time":103.01162790697674,"velocity":0.2677165354330709},{"duration":0.2906976744186096,"midi":73,"time":103.01162790697674,"velocity":0.3779527559055118},{"duration":0.1046511627907023,"midi":98,"time":103.02325581395348,"velocity":0.16535433070866143},{"duration":0.023255813953483084,"midi":70,"time":103.03488372093024,"velocity":0.29133858267716534},{"duration":0.06976744186046346,"midi":80,"time":103.03488372093024,"velocity":0.2283464566929134},{"duration":0.12790697674418539,"midi":95,"time":103.04651162790698,"velocity":0.2047244094488189},{"duration":0.06976744186046346,"midi":97,"time":103.05813953488372,"velocity":0.16535433070866143},{"duration":0.05813953488372192,"midi":65,"time":103.06976744186046,"velocity":0.4881889763779528},{"duration":0.03488372093023884,"midi":67,"time":103.06976744186046,"velocity":0.3937007874015748},{"duration":0.023255813953497295,"midi":54,"time":103.0813953488372,"velocity":0.23622047244094488},{"duration":0.023255813953497295,"midi":69,"time":103.09302325581395,"velocity":0.2440944881889764},{"duration":0.09302325581394655,"midi":61,"time":103.11627906976744,"velocity":0.30708661417322836},{"duration":0.023255813953483084,"midi":67,"time":103.11627906976744,"velocity":0.33070866141732286},{"duration":0.023255813953483084,"midi":70,"time":103.11627906976744,"velocity":0.28346456692913385},{"duration":0.04651162790698038,"midi":82,"time":103.11627906976744,"velocity":0.28346456692913385},{"duration":0.09302325581396076,"midi":86,"time":103.12790697674419,"velocity":0.12598425196850394},{"duration":0.25581395348837077,"midi":99,"time":103.12790697674419,"velocity":0.3228346456692913},{"duration":0.03488372093023884,"midi":45,"time":103.13953488372093,"velocity":0.2440944881889764},{"duration":0.03488372093023884,"midi":68,"time":103.13953488372093,"velocity":0.44881889763779526},{"duration":0.05813953488372192,"midi":76,"time":103.13953488372093,"velocity":0.1968503937007874},{"duration":0.11627906976744384,"midi":78,"time":103.13953488372093,"velocity":0.16535433070866143},{"duration":0.09302325581396076,"midi":84,"time":103.15116279069767,"velocity":0.1968503937007874},{"duration":0.8023255813953512,"midi":97,"time":103.15116279069767,"velocity":0.30708661417322836},{"duration":0.04651162790696617,"midi":55,"time":103.16279069767442,"velocity":0.29133858267716534},{"duration":0.034883720930224626,"midi":72,"time":103.16279069767442,"velocity":0.1968503937007874},{"duration":0.04651162790698038,"midi":67,"time":103.17441860465117,"velocity":0.4409448818897638},{"duration":0.11627906976744384,"midi":82,"time":103.17441860465117,"velocity":0.2125984251968504},{"duration":0.06976744186046346,"midi":70,"time":103.20930232558139,"velocity":0.2440944881889764},{"duration":0.023255813953483084,"midi":65,"time":103.22093023255815,"velocity":0.2677165354330709},{"duration":0.06976744186046346,"midi":68,"time":103.22093023255815,"velocity":0.4645669291338583},{"duration":0.04651162790696617,"midi":61,"time":103.23255813953489,"velocity":0.2283464566929134},{"duration":0.03488372093023884,"midi":77,"time":103.25581395348837,"velocity":0.16535433070866143},{"duration":0.04651162790698038,"midi":87,"time":103.25581395348837,"velocity":0.2047244094488189},{"duration":0.12790697674418539,"midi":65,"time":103.26744186046511,"velocity":0.6062992125984252},{"duration":0.04651162790698038,"midi":76,"time":103.26744186046511,"velocity":0.2125984251968504},{"duration":0.09302325581396076,"midi":92,"time":103.26744186046511,"velocity":0.3543307086614173},{"duration":0.19767441860464885,"midi":102,"time":103.26744186046511,"velocity":0.25984251968503935},{"duration":0.6046511627907023,"midi":103,"time":103.26744186046511,"velocity":0.3937007874015748},{"duration":0.03488372093023884,"midi":81,"time":103.27906976744185,"velocity":0.1968503937007874},{"duration":0.3720930232558146,"midi":84,"time":103.27906976744185,"velocity":0.47244094488188976},{"duration":0.15116279069768268,"midi":95,"time":103.27906976744185,"velocity":0.14173228346456693},{"duration":0.05813953488372192,"midi":98,"time":103.27906976744185,"velocity":0.18110236220472442},{"duration":0.023255813953483084,"midi":69,"time":103.29069767441861,"velocity":0.36220472440944884},{"duration":0.04651162790696617,"midi":100,"time":103.29069767441861,"velocity":0.33858267716535434},{"duration":0.023255813953483084,"midi":71,"time":103.30232558139535,"velocity":0.29133858267716534},{"duration":0.023255813953483084,"midi":46,"time":103.31395348837209,"velocity":0.2755905511811024},{"duration":0.023255813953483084,"midi":68,"time":103.31395348837209,"velocity":0.3858267716535433},{"duration":0.03488372093023884,"midi":87,"time":103.31395348837209,"velocity":0.11023622047244094},{"duration":0.5116279069767415,"midi":89,"time":103.31395348837209,"velocity":0.4094488188976378},{"duration":0.03488372093023884,"midi":55,"time":103.33720930232558,"velocity":0.23622047244094488},{"duration":0.17441860465116577,"midi":70,"time":103.33720930232558,"velocity":0.3464566929133858},{"duration":0.05813953488372192,"midi":74,"time":103.33720930232558,"velocity":0.3228346456692913},{"duration":0.05813953488372192,"midi":61,"time":103.34883720930233,"velocity":0.4094488188976378},{"duration":0.04651162790696617,"midi":68,"time":103.34883720930233,"velocity":0.4094488188976378},{"duration":0.04651162790698038,"midi":88,"time":103.3953488372093,"velocity":0.23622047244094488},{"duration":0.034883720930224626,"midi":60,"time":103.40697674418605,"velocity":0.4015748031496063},{"duration":0.04651162790696617,"midi":90,"time":103.40697674418605,"velocity":0.23622047244094488},{"duration":0.023255813953483084,"midi":45,"time":103.4186046511628,"velocity":0.5511811023622047},{"duration":0.12790697674418539,"midi":65,"time":103.4186046511628,"velocity":0.5590551181102362},{"duration":0.24418604651162923,"midi":73,"time":103.4186046511628,"velocity":0.3779527559055118},{"duration":0.12790697674418539,"midi":92,"time":103.43023255813954,"velocity":0.1732283464566929},{"duration":0.034883720930224626,"midi":99,"time":103.43023255813954,"velocity":0.10236220472440945},{"duration":0.011627906976741542,"midi":44,"time":103.44186046511628,"velocity":0.5905511811023622},{"duration":0.011627906976741542,"midi":43,"time":103.45348837209302,"velocity":0.5590551181102362},{"duration":0.011627906976755753,"midi":42,"time":103.46511627906976,"velocity":0.5275590551181102},{"duration":0.04651162790698038,"midi":58,"time":103.46511627906976,"velocity":0.15748031496062992},{"duration":0.023255813953483084,"midi":53,"time":103.48837209302326,"velocity":0.23622047244094488},{"duration":0.03488372093023884,"midi":61,"time":103.5,"velocity":0.1889763779527559},{"duration":0.04651162790698038,"midi":102,"time":103.5,"velocity":0.07086614173228346},{"duration":0.023255813953497295,"midi":37,"time":103.51162790697674,"velocity":0.3543307086614173},{"duration":0.03488372093023884,"midi":69,"time":103.51162790697674,"velocity":0.33858267716535434},{"duration":0.13953488372094114,"midi":87,"time":103.52325581395348,"velocity":0.1732283464566929},{"duration":0.03488372093023884,"midi":90,"time":103.52325581395348,"velocity":0.12598425196850394},{"duration":0.023255813953483084,"midi":36,"time":103.53488372093024,"velocity":0.2677165354330709},{"duration":0.023255813953483084,"midi":48,"time":103.53488372093024,"velocity":0.28346456692913385},{"duration":0.3720930232558146,"midi":68,"time":103.54651162790698,"velocity":0.41732283464566927},{"duration":0.04651162790698038,"midi":55,"time":103.55813953488372,"velocity":0.28346456692913385},{"duration":0.1046511627907023,"midi":65,"time":103.55813953488372,"velocity":0.6062992125984252},{"duration":0.1046511627907023,"midi":48,"time":103.56976744186046,"velocity":0.29133858267716534},{"duration":0.04651162790698038,"midi":61,"time":103.56976744186046,"velocity":0.3543307086614173},{"duration":0.023255813953497295,"midi":36,"time":103.59302325581395,"velocity":0.33858267716535434},{"duration":0.04651162790698038,"midi":55,"time":103.61627906976744,"velocity":0.23622047244094488},{"duration":0.034883720930224626,"midi":82,"time":103.61627906976744,"velocity":0.11811023622047244},{"duration":0.04651162790698038,"midi":98,"time":103.63953488372093,"velocity":0.1968503937007874},{"duration":0.06976744186047767,"midi":76,"time":103.65116279069767,"velocity":0.4251968503937008},{"duration":0.04651162790698038,"midi":83,"time":103.65116279069767,"velocity":0.48031496062992124},{"duration":0.04651162790698038,"midi":102,"time":103.65116279069767,"velocity":0.14960629921259844},{"duration":0.011627906976741542,"midi":64,"time":103.66279069767442,"velocity":0.5354330708661418},{"duration":0.04651162790696617,"midi":90,"time":103.66279069767442,"velocity":0.12598425196850394},{"duration":0.27906976744185386,"midi":91,"time":103.66279069767442,"velocity":0.28346456692913385},{"duration":1.1511627906976685,"midi":99,"time":103.66279069767442,"velocity":0.3700787401574803},{"duration":0.13953488372092693,"midi":72,"time":103.67441860465117,"velocity":0.2047244094488189},{"duration":0.034883720930224626,"midi":79,"time":103.67441860465117,"velocity":0.23622047244094488},{"duration":0.5,"midi":87,"time":103.67441860465117,"velocity":0.5511811023622047},{"duration":0.3372093023255758,"midi":94,"time":103.67441860465117,"velocity":0.2677165354330709},{"duration":0.09302325581394655,"midi":100,"time":103.67441860465117,"velocity":0.2047244094488189},{"duration":0.023255813953483084,"midi":45,"time":103.68604651162791,"velocity":0.31496062992125984},{"duration":0.023255813953483084,"midi":64,"time":103.68604651162791,"velocity":0.4645669291338583},{"duration":0.09302325581394655,"midi":84,"time":103.68604651162791,"velocity":0.3464566929133858},{"duration":0.023255813953497295,"midi":53,"time":103.69767441860465,"velocity":0.31496062992125984},{"duration":0.023255813953497295,"midi":65,"time":103.69767441860465,"velocity":0.36220472440944884},{"duration":0.43023255813953654,"midi":82,"time":103.69767441860465,"velocity":0.4881889763779528},{"duration":0.12790697674418539,"midi":46,"time":103.70930232558139,"velocity":0.28346456692913385},{"duration":0.25581395348837077,"midi":75,"time":103.72093023255815,"velocity":0.5590551181102362},{"duration":0.04651162790696617,"midi":63,"time":103.73255813953489,"velocity":0.3464566929133858},{"duration":0.04651162790696617,"midi":77,"time":103.73255813953489,"velocity":0.13385826771653545},{"duration":0.09302325581394655,"midi":81,"time":103.73255813953489,"velocity":0.4409448818897638},{"duration":0.06976744186046346,"midi":34,"time":103.74418604651163,"velocity":0.30708661417322836},{"duration":0.023255813953483084,"midi":53,"time":103.74418604651163,"velocity":0.2440944881889764},{"duration":0.09302325581396076,"midi":65,"time":103.75581395348837,"velocity":0.3464566929133858},{"duration":0.023255813953497295,"midi":85,"time":103.76744186046511,"velocity":0.25196850393700787},{"duration":0.03488372093023884,"midi":102,"time":103.76744186046511,"velocity":0.11811023622047244},{"duration":0.023255813953483084,"midi":60,"time":103.79069767441861,"velocity":0.2440944881889764},{"duration":0.15116279069766847,"midi":84,"time":103.79069767441861,"velocity":0.36220472440944884},{"duration":0.081395348837205,"midi":56,"time":103.81395348837209,"velocity":0.2047244094488189},{"duration":0.05813953488372192,"midi":60,"time":103.82558139534883,"velocity":0.1889763779527559},{"duration":0.023255813953483084,"midi":64,"time":103.84883720930233,"velocity":0.4015748031496063},{"duration":0.06976744186046346,"midi":63,"time":103.87209302325581,"velocity":0.3700787401574803},{"duration":0.13953488372092693,"midi":72,"time":103.88372093023256,"velocity":0.2992125984251969},{"duration":0.05813953488372192,"midi":81,"time":103.8953488372093,"velocity":0.36220472440944884},{"duration":0.03488372093023884,"midi":85,"time":103.8953488372093,"velocity":0.1889763779527559},{"duration":0.023255813953483084,"midi":60,"time":103.9186046511628,"velocity":0.25196850393700787},{"duration":0.023255813953483084,"midi":69,"time":103.9186046511628,"velocity":0.2677165354330709},{"duration":0.05813953488372192,"midi":89,"time":103.93023255813954,"velocity":0.2125984251968504},{"duration":0.04651162790698038,"midi":102,"time":103.93023255813954,"velocity":0.2125984251968504},{"duration":0.023255813953483084,"midi":62,"time":103.94186046511628,"velocity":0.23622047244094488},{"duration":0.04651162790698038,"midi":68,"time":103.94186046511628,"velocity":0.31496062992125984},{"duration":0.08139534883721922,"midi":91,"time":103.95348837209302,"velocity":0.1889763779527559},{"duration":0.011627906976755753,"midi":45,"time":103.96511627906976,"velocity":0.5590551181102362},{"duration":0.40697674418605345,"midi":63,"time":103.96511627906976,"velocity":0.41732283464566927},{"duration":0.05813953488372192,"midi":80,"time":103.96511627906976,"velocity":0.33858267716535434},{"duration":0.05813953488372192,"midi":86,"time":103.96511627906976,"velocity":0.1889763779527559},{"duration":0.011627906976741542,"midi":43,"time":103.97674418604652,"velocity":0.5590551181102362},{"duration":0.06976744186046346,"midi":76,"time":103.97674418604652,"velocity":0.3779527559055118},{"duration":0.023255813953483084,"midi":42,"time":103.98837209302326,"velocity":0.5433070866141733},{"duration":0.11627906976744384,"midi":51,"time":103.98837209302326,"velocity":0.2992125984251969},{"duration":0.06976744186046346,"midi":68,"time":104.01162790697674,"velocity":0.28346456692913385},{"duration":0.04651162790698038,"midi":97,"time":104.01162790697674,"velocity":0.10236220472440945},{"duration":0.03488372093023884,"midi":102,"time":104.01162790697674,"velocity":0.15748031496062992},{"duration":0.023255813953497295,"midi":40,"time":104.02325581395348,"velocity":0.3937007874015748},{"duration":0.03488372093023884,"midi":56,"time":104.02325581395348,"velocity":0.14960629921259844},{"duration":0.04651162790698038,"midi":73,"time":104.02325581395348,"velocity":0.1968503937007874},{"duration":0.03488372093023884,"midi":81,"time":104.02325581395348,"velocity":0.25984251968503935},{"duration":0.4418604651162781,"midi":75,"time":104.03488372093024,"velocity":0.5118110236220472},{"duration":0.09302325581394655,"midi":101,"time":104.03488372093024,"velocity":0.16535433070866143},{"duration":0.11627906976744384,"midi":91,"time":104.04651162790698,"velocity":0.18110236220472442},{"duration":0.023255813953483084,"midi":35,"time":104.05813953488372,"velocity":0.3858267716535433},{"duration":0.04651162790698038,"midi":60,"time":104.0813953488372,"velocity":0.2677165354330709},{"duration":0.06976744186047767,"midi":68,"time":104.09302325581395,"velocity":0.44881889763779526},{"duration":0.05813953488372192,"midi":81,"time":104.11627906976744,"velocity":0.2125984251968504},{"duration":0.04651162790698038,"midi":60,"time":104.13953488372093,"velocity":0.2755905511811024},{"duration":0.04651162790698038,"midi":70,"time":104.13953488372093,"velocity":0.11023622047244094},{"duration":0.03488372093023884,"midi":102,"time":104.15116279069767,"velocity":0.07874015748031496},{"duration":0.06976744186046346,"midi":80,"time":104.16279069767442,"velocity":0.2283464566929134},{"duration":0.2674418604651123,"midi":68,"time":104.17441860465117,"velocity":0.47244094488188976},{"duration":0.06976744186046346,"midi":81,"time":104.18604651162791,"velocity":0.2047244094488189},{"duration":0.04651162790698038,"midi":86,"time":104.18604651162791,"velocity":0.2125984251968504},{"duration":0.04651162790698038,"midi":89,"time":104.18604651162791,"velocity":0.2125984251968504},{"duration":0.023255813953497295,"midi":57,"time":104.19767441860465,"velocity":0.29133858267716534},{"duration":0.1046511627907023,"midi":51,"time":104.20930232558139,"velocity":0.2992125984251969},{"duration":0.03488372093023884,"midi":77,"time":104.20930232558139,"velocity":0.2440944881889764},{"duration":0.03488372093023884,"midi":94,"time":104.20930232558139,"velocity":0.07874015748031496},{"duration":0.13953488372092693,"midi":56,"time":104.22093023255815,"velocity":0.3228346456692913},{"duration":0.38372093023255616,"midi":72,"time":104.22093023255815,"velocity":0.33858267716535434},{"duration":0.034883720930224626,"midi":100,"time":104.22093023255815,"velocity":0.12598425196850394},{"duration":0.081395348837205,"midi":44,"time":104.23255813953489,"velocity":0.36220472440944884},{"duration":0.034883720930224626,"midi":78,"time":104.23255813953489,"velocity":0.11811023622047244},{"duration":0.034883720930224626,"midi":82,"time":104.23255813953489,"velocity":0.12598425196850394},{"duration":0.03488372093023884,"midi":88,"time":104.25581395348837,"velocity":0.25196850393700787},{"duration":0.13953488372094114,"midi":81,"time":104.26744186046511,"velocity":0.2125984251968504},{"duration":0.11627906976744384,"midi":82,"time":104.27906976744185,"velocity":0.15748031496062992},{"duration":0.10465116279068809,"midi":32,"time":104.29069767441861,"velocity":0.3228346456692913},{"duration":0.15116279069766847,"midi":60,"time":104.30232558139535,"velocity":0.29133858267716534},{"duration":0.023255813953483084,"midi":57,"time":104.36046511627907,"velocity":0.25984251968503935},{"duration":0.023255813953497295,"midi":56,"time":104.38372093023256,"velocity":0.25196850393700787},{"duration":0.04651162790698038,"midi":94,"time":104.3953488372093,"velocity":0.09448818897637795},{"duration":0.13953488372092693,"midi":63,"time":104.40697674418605,"velocity":0.41732283464566927},{"duration":0.09302325581394655,"midi":79,"time":104.40697674418605,"velocity":0.18110236220472442},{"duration":0.04651162790696617,"midi":56,"time":104.4186046511628,"velocity":0.4566929133858268},{"duration":0.023255813953483084,"midi":69,"time":104.44186046511628,"velocity":0.3543307086614173},{"duration":0.04651162790698038,"midi":91,"time":104.45348837209302,"velocity":0.25984251968503935},{"duration":0.04651162790698038,"midi":93,"time":104.45348837209302,"velocity":0.14960629921259844},{"duration":0.11627906976744384,"midi":94,"time":104.45348837209302,"velocity":0.1968503937007874},{"duration":0.09302325581396076,"midi":97,"time":104.45348837209302,"velocity":0.18110236220472442},{"duration":0.06976744186046346,"midi":100,"time":104.45348837209302,"velocity":0.25984251968503935},{"duration":0.06976744186046346,"midi":101,"time":104.45348837209302,"velocity":0.2125984251968504},{"duration":0.09302325581396076,"midi":102,"time":104.45348837209302,"velocity":0.14173228346456693},{"duration":0.023255813953497295,"midi":55,"time":104.46511627906976,"velocity":0.5433070866141733},{"duration":0.03488372093023884,"midi":60,"time":104.46511627906976,"velocity":0.3858267716535433},{"duration":0.15116279069768268,"midi":68,"time":104.46511627906976,"velocity":0.4566929133858268},{"duration":0.03488372093023884,"midi":77,"time":104.46511627906976,"velocity":0.08661417322834646},{"duration":0.03488372093023884,"midi":82,"time":104.46511627906976,"velocity":0.14173228346456693},{"duration":0.05813953488372192,"midi":89,"time":104.46511627906976,"velocity":0.23622047244094488},{"duration":0.05813953488372192,"midi":92,"time":104.46511627906976,"velocity":0.2283464566929134},{"duration":0.04651162790698038,"midi":95,"time":104.46511627906976,"velocity":0.15748031496062992},{"duration":0.2325581395348877,"midi":96,"time":104.46511627906976,"velocity":0.33858267716535434},{"duration":0.1860465116279073,"midi":98,"time":104.46511627906976,"velocity":0.33070866141732286},{"duration":0.023255813953483084,"midi":45,"time":104.47674418604652,"velocity":0.5669291338582677},{"duration":0.023255813953483084,"midi":74,"time":104.47674418604652,"velocity":0.29133858267716534},{"duration":0.04651162790696617,"midi":81,"time":104.47674418604652,"velocity":0.14960629921259844},{"duration":0.081395348837205,"midi":56,"time":104.48837209302326,"velocity":0.4251968503937008},{"duration":0.05813953488372192,"midi":75,"time":104.48837209302326,"velocity":0.44881889763779526},{"duration":0.011627906976741542,"midi":44,"time":104.5,"velocity":0.5905511811023622},{"duration":0.15116279069766847,"midi":90,"time":104.5,"velocity":0.25196850393700787},{"duration":0.011627906976741542,"midi":43,"time":104.51162790697674,"velocity":0.5590551181102362},{"duration":0.011627906976755753,"midi":42,"time":104.52325581395348,"velocity":0.5275590551181102},{"duration":0.09302325581394655,"midi":85,"time":104.53488372093024,"velocity":0.28346456692913385},{"duration":0.12790697674418539,"midi":75,"time":104.55813953488372,"velocity":0.3543307086614173},{"duration":0.034883720930224626,"midi":83,"time":104.55813953488372,"velocity":0.18110236220472442},{"duration":0.023255813953483084,"midi":37,"time":104.56976744186046,"velocity":0.3779527559055118},{"duration":0.04651162790698038,"midi":92,"time":104.56976744186046,"velocity":0.15748031496062992},{"duration":0.023255813953497295,"midi":56,"time":104.5813953488372,"velocity":0.3779527559055118},{"duration":0.03488372093023884,"midi":81,"time":104.5813953488372,"velocity":0.3543307086614173},{"duration":0.04651162790698038,"midi":100,"time":104.5813953488372,"velocity":0.09448818897637795},{"duration":0.023255813953497295,"midi":36,"time":104.59302325581395,"velocity":0.28346456692913385},{"duration":0.04651162790698038,"midi":70,"time":104.59302325581395,"velocity":0.4645669291338583},{"duration":0.08139534883721922,"midi":77,"time":104.59302325581395,"velocity":0.31496062992125984},{"duration":0.06976744186046346,"midi":58,"time":104.6046511627907,"velocity":0.41732283464566927},{"duration":0.11627906976744384,"midi":63,"time":104.6046511627907,"velocity":0.2047244094488189},{"duration":0.04651162790696617,"midi":83,"time":104.6046511627907,"velocity":0.3858267716535433},{"duration":0.10465116279068809,"midi":86,"time":104.6046511627907,"velocity":0.33070866141732286},{"duration":0.06976744186046346,"midi":68,"time":104.62790697674419,"velocity":0.4015748031496063},{"duration":0.04651162790698038,"midi":82,"time":104.63953488372093,"velocity":0.2677165354330709},{"duration":0.15116279069766847,"midi":72,"time":104.67441860465117,"velocity":0.5354330708661418},{"duration":0.04651162790698038,"midi":56,"time":104.68604651162791,"velocity":0.41732283464566927},{"duration":0.13953488372092693,"midi":75,"time":104.69767441860465,"velocity":0.4015748031496063},{"duration":0.04651162790698038,"midi":90,"time":104.69767441860465,"velocity":0.15748031496062992},{"duration":0.05813953488370771,"midi":66,"time":104.72093023255815,"velocity":0.3228346456692913},{"duration":0.05813953488370771,"midi":89,"time":104.72093023255815,"velocity":0.2204724409448819},{"duration":0.16279069767441,"midi":97,"time":104.72093023255815,"velocity":0.2755905511811024},{"duration":0.3139534883720927,"midi":102,"time":104.72093023255815,"velocity":0.30708661417322836},{"duration":0.023255813953483084,"midi":45,"time":104.73255813953489,"velocity":0.2440944881889764},{"duration":0.034883720930224626,"midi":79,"time":104.73255813953489,"velocity":0.2204724409448819},{"duration":0.023255813953483084,"midi":81,"time":104.73255813953489,"velocity":0.25196850393700787},{"duration":0.15116279069766847,"midi":100,"time":104.73255813953489,"velocity":0.23622047244094488},{"duration":0.023255813953483084,"midi":69,"time":104.74418604651163,"velocity":0.33858267716535434},{"duration":0.023255813953483084,"midi":39,"time":104.75581395348837,"velocity":0.33858267716535434},{"duration":0.04651162790698038,"midi":80,"time":104.76744186046511,"velocity":0.16535433070866143},{"duration":0.023255813953497295,"midi":68,"time":104.77906976744185,"velocity":0.28346456692913385},{"duration":0.03488372093023884,"midi":103,"time":104.77906976744185,"velocity":0.09448818897637795},{"duration":0.034883720930224626,"midi":39,"time":104.79069767441861,"velocity":0.3228346456692913},{"duration":0.17441860465115155,"midi":86,"time":104.79069767441861,"velocity":0.3464566929133858},{"duration":0.023255813953483084,"midi":66,"time":104.80232558139535,"velocity":0.28346456692913385},{"duration":0.13953488372092693,"midi":70,"time":104.80232558139535,"velocity":0.5039370078740157},{"duration":0.09302325581394655,"midi":77,"time":104.80232558139535,"velocity":0.3464566929133858},{"duration":0.034883720930224626,"midi":83,"time":104.80232558139535,"velocity":0.28346456692913385},{"duration":0.05813953488372192,"midi":58,"time":104.81395348837209,"velocity":0.3779527559055118},{"duration":0.03488372093023884,"midi":65,"time":104.82558139534883,"velocity":0.4015748031496063},{"duration":0.4534883720930196,"midi":99,"time":104.82558139534883,"velocity":0.44881889763779526},{"duration":0.03488372093023884,"midi":87,"time":104.83720930232558,"velocity":0.12598425196850394},{"duration":0.12790697674418539,"midi":80,"time":104.84883720930233,"velocity":0.18110236220472442},{"duration":0.023255813953483084,"midi":81,"time":104.84883720930233,"velocity":0.33070866141732286},{"duration":0.034883720930224626,"midi":83,"time":104.84883720930233,"velocity":0.14173228346456693},{"duration":0.034883720930224626,"midi":64,"time":104.86046511627907,"velocity":0.2992125984251969},{"duration":0.05813953488372192,"midi":74,"time":104.86046511627907,"velocity":0.25196850393700787},{"duration":0.03488372093023884,"midi":56,"time":104.88372093023256,"velocity":0.3543307086614173},{"duration":0.023255813953497295,"midi":65,"time":104.8953488372093,"velocity":0.29133858267716534},{"duration":0.19767441860464885,"midi":75,"time":104.8953488372093,"velocity":0.49606299212598426},{"duration":0.023255813953483084,"midi":45,"time":104.90697674418605,"velocity":0.31496062992125984},{"duration":0.034883720930224626,"midi":77,"time":104.9186046511628,"velocity":0.1889763779527559},{"duration":0.034883720930224626,"midi":84,"time":104.9186046511628,"velocity":0.16535433070866143},{"duration":0.04651162790698038,"midi":44,"time":104.93023255813954,"velocity":0.29133858267716534},{"duration":0.06976744186046346,"midi":51,"time":104.93023255813954,"velocity":0.2677165354330709},{"duration":0.023255813953483084,"midi":63,"time":104.93023255813954,"velocity":0.36220472440944884},{"duration":0.04651162790698038,"midi":92,"time":104.93023255813954,"velocity":0.1889763779527559},{"duration":0.023255813953483084,"midi":59,"time":104.94186046511628,"velocity":0.5118110236220472},{"duration":0.023255813953483084,"midi":73,"time":104.94186046511628,"velocity":0.25984251968503935},{"duration":0.05813953488372192,"midi":85,"time":104.94186046511628,"velocity":0.2677165354330709},{"duration":0.05813953488372192,"midi":32,"time":104.95348837209302,"velocity":0.31496062992125984},{"duration":0.023255813953497295,"midi":64,"time":104.95348837209302,"velocity":0.2677165354330709},{"duration":0.03488372093023884,"midi":88,"time":104.95348837209302,"velocity":0.1968503937007874},{"duration":0.011627906976755753,"midi":60,"time":104.96511627906976,"velocity":0.5118110236220472},{"duration":0.5232558139534973,"midi":91,"time":104.96511627906976,"velocity":0.5590551181102362},{"duration":0.04651162790698038,"midi":96,"time":104.96511627906976,"velocity":0.2047244094488189},{"duration":0.011627906976741542,"midi":61,"time":104.97674418604652,"velocity":0.5196850393700787},{"duration":0.04651162790696617,"midi":86,"time":104.97674418604652,"velocity":0.23622047244094488},{"duration":0.034883720930224626,"midi":93,"time":104.97674418604652,"velocity":0.11023622047244094},{"duration":0.034883720930224626,"midi":95,"time":104.97674418604652,"velocity":0.15748031496062992},{"duration":0.1860465116279073,"midi":97,"time":104.97674418604652,"velocity":0.2992125984251969},{"duration":0.034883720930224626,"midi":68,"time":104.98837209302326,"velocity":0.2677165354330709},{"duration":0.081395348837205,"midi":81,"time":104.98837209302326,"velocity":0.4094488188976378},{"duration":0.1860465116279073,"midi":94,"time":104.98837209302326,"velocity":0.2047244094488189},{"duration":0.05813953488372192,"midi":100,"time":104.98837209302326,"velocity":0.15748031496062992},{"duration":0.03488372093023884,"midi":58,"time":105,"velocity":0.2440944881889764},{"duration":0.04651162790698038,"midi":63,"time":105,"velocity":0.4645669291338583},{"duration":0.011627906976741542,"midi":48,"time":105.01162790697674,"velocity":0.5196850393700787},{"duration":0.03488372093023884,"midi":82,"time":105.01162790697674,"velocity":0.1889763779527559},{"duration":0.04651162790698038,"midi":88,"time":105.01162790697674,"velocity":0.2125984251968504},{"duration":0.011627906976755753,"midi":45,"time":105.02325581395348,"velocity":0.5748031496062992},{"duration":0.011627906976741542,"midi":43,"time":105.03488372093024,"velocity":0.5669291338582677},{"duration":0.06976744186046346,"midi":65,"time":105.03488372093024,"velocity":0.2992125984251969},{"duration":0.034883720930224626,"midi":73,"time":105.03488372093024,"velocity":0.14960629921259844},{"duration":0.023255813953483084,"midi":42,"time":105.04651162790698,"velocity":0.5511811023622047},{"duration":0.09302325581394655,"midi":70,"time":105.04651162790698,"velocity":0.2992125984251969},{"duration":0.081395348837205,"midi":82,"time":105.05813953488372,"velocity":0.30708661417322836},{"duration":0.034883720930224626,"midi":102,"time":105.05813953488372,"velocity":0.3858267716535433},{"duration":0.04651162790698038,"midi":72,"time":105.06976744186046,"velocity":0.2204724409448819},{"duration":0.05813953488372192,"midi":80,"time":105.06976744186046,"velocity":0.3858267716535433},{"duration":0.06976744186046346,"midi":85,"time":105.06976744186046,"velocity":0.2677165354330709},{"duration":0.023255813953497295,"midi":63,"time":105.09302325581395,"velocity":0.2992125984251969},{"duration":0.09302325581396076,"midi":88,"time":105.09302325581395,"velocity":0.1968503937007874},{"duration":0.1860465116279073,"midi":75,"time":105.1046511627907,"velocity":0.5275590551181102},{"duration":0.11627906976744384,"midi":81,"time":105.1046511627907,"velocity":0.1889763779527559},{"duration":0.023255813953483084,"midi":100,"time":105.11627906976744,"velocity":0.31496062992125984},{"duration":0.023255813953483084,"midi":38,"time":105.12790697674419,"velocity":0.23622047244094488},{"duration":0.1046511627907023,"midi":53,"time":105.12790697674419,"velocity":0.1889763779527559},{"duration":0.03488372093023884,"midi":72,"time":105.12790697674419,"velocity":0.28346456692913385},{"duration":0.023255813953497295,"midi":59,"time":105.13953488372093,"velocity":0.2440944881889764},{"duration":0.023255813953497295,"midi":64,"time":105.13953488372093,"velocity":0.31496062992125984},{"duration":0.04651162790698038,"midi":68,"time":105.13953488372093,"velocity":0.11023622047244094},{"duration":0.08139534883721922,"midi":77,"time":105.15116279069767,"velocity":0.15748031496062992},{"duration":0.023255813953483084,"midi":65,"time":105.16279069767442,"velocity":0.33858267716535434},{"duration":0.034883720930224626,"midi":63,"time":105.17441860465117,"velocity":0.3700787401574803},{"duration":0.03488372093023884,"midi":92,"time":105.18604651162791,"velocity":0.14173228346456693},{"duration":0.11627906976744384,"midi":97,"time":105.18604651162791,"velocity":0.16535433070866143},{"duration":0.03488372093023884,"midi":66,"time":105.19767441860465,"velocity":0.3858267716535433},{"duration":0.2093023255814046,"midi":72,"time":105.19767441860465,"velocity":0.3228346456692913},{"duration":0.081395348837205,"midi":80,"time":105.19767441860465,"velocity":0.1968503937007874},{"duration":0.09302325581396076,"midi":94,"time":105.19767441860465,"velocity":0.1732283464566929},{"duration":0.04651162790696617,"midi":60,"time":105.22093023255815,"velocity":0.1889763779527559},{"duration":0.10465116279068809,"midi":68,"time":105.22093023255815,"velocity":0.28346456692913385},{"duration":0.023255813953483084,"midi":65,"time":105.23255813953489,"velocity":0.3464566929133858},{"duration":0.05813953488372192,"midi":82,"time":105.23255813953489,"velocity":0.2440944881889764},{"duration":0.15116279069766847,"midi":63,"time":105.24418604651163,"velocity":0.3700787401574803},{"duration":0.06976744186046346,"midi":81,"time":105.24418604651163,"velocity":0.2283464566929134},{"duration":0.04651162790698038,"midi":86,"time":105.24418604651163,"velocity":0.1968503937007874},{"duration":0.05813953488372192,"midi":78,"time":105.25581395348837,"velocity":0.2047244094488189},{"duration":0.023255813953483084,"midi":102,"time":105.25581395348837,"velocity":0.23622047244094488},{"duration":0.023255813953497295,"midi":48,"time":105.26744186046511,"velocity":0.2755905511811024},{"duration":0.023255813953497295,"midi":66,"time":105.26744186046511,"velocity":0.2992125984251969},{"duration":0.03488372093023884,"midi":83,"time":105.27906976744185,"velocity":0.10236220472440945},{"duration":0.023255813953483084,"midi":40,"time":105.29069767441861,"velocity":0.3700787401574803},{"duration":0.17441860465116577,"midi":75,"time":105.30232558139535,"velocity":0.4015748031496063},{"duration":0.081395348837205,"midi":82,"time":105.30232558139535,"velocity":0.15748031496062992},{"duration":0.15116279069766847,"midi":100,"time":105.31395348837209,"velocity":0.25196850393700787},{"duration":0.04651162790698038,"midi":48,"time":105.33720930232558,"velocity":0.18110236220472442},{"duration":0.13953488372092693,"midi":97,"time":105.34883720930233,"velocity":0.3464566929133858},{"duration":0.034883720930224626,"midi":30,"time":105.36046511627907,"velocity":0.23622047244094488},{"duration":0.27906976744185386,"midi":102,"time":105.36046511627907,"velocity":0.47244094488188976},{"duration":0.05813953488372192,"midi":98,"time":105.37209302325581,"velocity":0.2204724409448819},{"duration":0.2093023255813904,"midi":101,"time":105.37209302325581,"velocity":0.2125984251968504},{"duration":0.05813953488372192,"midi":78,"time":105.38372093023256,"velocity":0.16535433070866143},{"duration":0.04651162790698038,"midi":86,"time":105.38372093023256,"velocity":0.07874015748031496},{"duration":0.3953488372092977,"midi":87,"time":105.38372093023256,"velocity":0.41732283464566927},{"duration":0.04651162790698038,"midi":93,"time":105.38372093023256,"velocity":0.15748031496062992},{"duration":0.34883720930233153,"midi":94,"time":105.38372093023256,"velocity":0.31496062992125984},{"duration":0.023255813953497295,"midi":64,"time":105.3953488372093,"velocity":0.4330708661417323},{"duration":0.03488372093023884,"midi":69,"time":105.3953488372093,"velocity":0.3937007874015748},{"duration":0.16279069767442422,"midi":80,"time":105.3953488372093,"velocity":0.2283464566929134},{"duration":0.034883720930224626,"midi":57,"time":105.40697674418605,"velocity":0.2755905511811024},{"duration":0.023255813953483084,"midi":73,"time":105.40697674418605,"velocity":0.31496062992125984},{"duration":0.09302325581394655,"midi":82,"time":105.40697674418605,"velocity":0.1732283464566929},{"duration":0.023255813953483084,"midi":92,"time":105.40697674418605,"velocity":0.3543307086614173},{"duration":0.023255813953483084,"midi":40,"time":105.43023255813954,"velocity":0.31496062992125984},{"duration":0.023255813953483084,"midi":64,"time":105.43023255813954,"velocity":0.36220472440944884},{"duration":0.1046511627907023,"midi":68,"time":105.43023255813954,"velocity":0.3700787401574803},{"duration":0.05813953488372192,"midi":84,"time":105.43023255813954,"velocity":0.15748031496062992},{"duration":0.03488372093023884,"midi":73,"time":105.44186046511628,"velocity":0.3779527559055118},{"duration":0.1046511627907023,"midi":96,"time":105.44186046511628,"velocity":0.4645669291338583},{"duration":0.05813953488372192,"midi":48,"time":105.45348837209302,"velocity":0.23622047244094488},{"duration":0.023255813953497295,"midi":63,"time":105.45348837209302,"velocity":0.3543307086614173},{"duration":0.023255813953497295,"midi":65,"time":105.45348837209302,"velocity":0.2677165354330709},{"duration":0.05813953488372192,"midi":62,"time":105.47674418604652,"velocity":0.4645669291338583},{"duration":0.034883720930224626,"midi":72,"time":105.47674418604652,"velocity":0.4015748031496063},{"duration":0.081395348837205,"midi":90,"time":105.48837209302326,"velocity":0.4566929133858268},{"duration":0.04651162790698038,"midi":98,"time":105.48837209302326,"velocity":0.11023622047244094},{"duration":0.03488372093023884,"midi":30,"time":105.5,"velocity":0.2047244094488189},{"duration":0.023255813953483084,"midi":71,"time":105.5,"velocity":0.30708661417322836},{"duration":0.05813953488372192,"midi":77,"time":105.5,"velocity":0.09448818897637795},{"duration":0.04651162790698038,"midi":81,"time":105.5,"velocity":0.1889763779527559},{"duration":0.023255813953483084,"midi":91,"time":105.5,"velocity":0.29133858267716534},{"duration":0.09302325581396076,"midi":89,"time":105.51162790697674,"velocity":0.16535433070866143},{"duration":0.11627906976744384,"midi":95,"time":105.51162790697674,"velocity":0.2125984251968504},{"duration":0.16279069767442422,"midi":97,"time":105.51162790697674,"velocity":0.36220472440944884},{"duration":0.06976744186046346,"midi":103,"time":105.51162790697674,"velocity":0.31496062992125984},{"duration":0.25581395348837077,"midi":72,"time":105.52325581395348,"velocity":0.4251968503937008},{"duration":0.2674418604651265,"midi":75,"time":105.52325581395348,"velocity":0.4645669291338583},{"duration":0.03488372093023884,"midi":88,"time":105.52325581395348,"velocity":0.2125984251968504},{"duration":0.034883720930224626,"midi":63,"time":105.53488372093024,"velocity":0.3464566929133858},{"duration":0.09302325581394655,"midi":83,"time":105.53488372093024,"velocity":0.30708661417322836},{"duration":0.12790697674418539,"midi":91,"time":105.53488372093024,"velocity":0.2125984251968504},{"duration":0.011627906976741542,"midi":45,"time":105.54651162790698,"velocity":0.5669291338582677},{"duration":0.034883720930224626,"midi":68,"time":105.54651162790698,"velocity":0.09448818897637795},{"duration":0.011627906976741542,"midi":44,"time":105.55813953488372,"velocity":0.5905511811023622},{"duration":0.034883720930224626,"midi":100,"time":105.55813953488372,"velocity":0.14960629921259844},{"duration":0.011627906976741542,"midi":43,"time":105.56976744186046,"velocity":0.5590551181102362},{"duration":0.05813953488372192,"midi":64,"time":105.56976744186046,"velocity":0.4409448818897638},{"duration":0.09302325581396076,"midi":80,"time":105.56976744186046,"velocity":0.2440944881889764},{"duration":0.03488372093023884,"midi":88,"time":105.56976744186046,"velocity":0.33070866141732286},{"duration":0.011627906976741542,"midi":42,"time":105.5813953488372,"velocity":0.5275590551181102},{"duration":0.1046511627907023,"midi":68,"time":105.59302325581395,"velocity":0.2677165354330709},{"duration":0.9069767441860535,"midi":99,"time":105.59302325581395,"velocity":0.4251968503937008},{"duration":0.09302325581396076,"midi":101,"time":105.59302325581395,"velocity":0.1889763779527559},{"duration":0.12790697674418539,"midi":90,"time":105.6046511627907,"velocity":0.2677165354330709},{"duration":0.04651162790696617,"midi":103,"time":105.6046511627907,"velocity":0.4094488188976378},{"duration":0.034883720930224626,"midi":65,"time":105.61627906976744,"velocity":0.3700787401574803},{"duration":0.023255813953483084,"midi":37,"time":105.62790697674419,"velocity":0.36220472440944884},{"duration":0.03488372093023884,"midi":82,"time":105.62790697674419,"velocity":0.2440944881889764},{"duration":0.04651162790698038,"midi":88,"time":105.62790697674419,"velocity":0.15748031496062992},{"duration":0.03488372093023884,"midi":63,"time":105.63953488372093,"velocity":0.3464566929133858},{"duration":0.023255813953497295,"midi":36,"time":105.65116279069767,"velocity":0.25196850393700787},{"duration":0.03488372093023884,"midi":85,"time":105.65116279069767,"velocity":0.1889763779527559},{"duration":0.03488372093023884,"midi":93,"time":105.65116279069767,"velocity":0.15748031496062992},{"duration":0.05813953488372192,"midi":96,"time":105.65116279069767,"velocity":0.25196850393700787},{"duration":0.09302325581396076,"midi":102,"time":105.65116279069767,"velocity":0.44881889763779526},{"duration":0.023255813953483084,"midi":47,"time":105.66279069767442,"velocity":0.3228346456692913},{"duration":0.034883720930224626,"midi":65,"time":105.66279069767442,"velocity":0.4330708661417323},{"duration":0.034883720930224626,"midi":70,"time":105.66279069767442,"velocity":0.14960629921259844},{"duration":0.05813953488372192,"midi":78,"time":105.66279069767442,"velocity":0.2204724409448819},{"duration":0.023255813953483084,"midi":103,"time":105.66279069767442,"velocity":0.3464566929133858},{"duration":0.023255813953483084,"midi":40,"time":105.67441860465117,"velocity":0.28346456692913385},{"duration":0.034883720930224626,"midi":79,"time":105.67441860465117,"velocity":0.15748031496062992},{"duration":0.09302325581394655,"midi":82,"time":105.67441860465117,"velocity":0.25984251968503935},{"duration":0.16279069767441,"midi":91,"time":105.67441860465117,"velocity":0.28346456692913385},{"duration":0.1046511627907023,"midi":48,"time":105.68604651162791,"velocity":0.29133858267716534},{"duration":0.05813953488372192,"midi":55,"time":105.68604651162791,"velocity":0.25984251968503935},{"duration":0.3720930232558146,"midi":97,"time":105.69767441860465,"velocity":0.3700787401574803},{"duration":0.17441860465116577,"midi":103,"time":105.69767441860465,"velocity":0.36220472440944884},{"duration":0.05813953488372192,"midi":63,"time":105.70930232558139,"velocity":0.4645669291338583},{"duration":0.04651162790696617,"midi":36,"time":105.72093023255815,"velocity":0.36220472440944884},{"duration":0.04651162790696617,"midi":68,"time":105.73255813953489,"velocity":0.1968503937007874},{"duration":0.023255813953483084,"midi":56,"time":105.74418604651163,"velocity":0.3779527559055118},{"duration":0.034883720930224626,"midi":60,"time":105.74418604651163,"velocity":0.4015748031496063},{"duration":0.04651162790698038,"midi":66,"time":105.74418604651163,"velocity":0.2125984251968504},{"duration":0.04651162790698038,"midi":90,"time":105.75581395348837,"velocity":0.16535433070866143},{"duration":0.04651162790698038,"midi":100,"time":105.75581395348837,"velocity":0.12598425196850394},{"duration":0.9069767441860535,"midi":101,"time":105.75581395348837,"velocity":0.41732283464566927},{"duration":0.05813953488372192,"midi":102,"time":105.75581395348837,"velocity":0.31496062992125984},{"duration":0.27906976744186807,"midi":80,"time":105.76744186046511,"velocity":0.47244094488188976},{"duration":0.04651162790698038,"midi":83,"time":105.76744186046511,"velocity":0.18110236220472442},{"duration":0.06976744186046346,"midi":85,"time":105.76744186046511,"velocity":0.31496062992125984},{"duration":0.04651162790698038,"midi":88,"time":105.76744186046511,"velocity":0.2047244094488189},{"duration":0.04651162790698038,"midi":93,"time":105.76744186046511,"velocity":0.18110236220472442},{"duration":0.04651162790698038,"midi":98,"time":105.76744186046511,"velocity":0.10236220472440945},{"duration":0.023255813953497295,"midi":61,"time":105.77906976744185,"velocity":0.41732283464566927},{"duration":0.023255813953497295,"midi":73,"time":105.77906976744185,"velocity":0.4330708661417323},{"duration":0.27906976744186807,"midi":89,"time":105.77906976744185,"velocity":0.4409448818897638},{"duration":0.06976744186047767,"midi":95,"time":105.77906976744185,"velocity":0.3543307086614173},{"duration":0.19767441860466306,"midi":96,"time":105.77906976744185,"velocity":0.25196850393700787},{"duration":0.04651162790696617,"midi":70,"time":105.79069767441861,"velocity":0.2992125984251969},{"duration":0.034883720930224626,"midi":77,"time":105.79069767441861,"velocity":0.30708661417322836},{"duration":0.023255813953483084,"midi":45,"time":105.80232558139535,"velocity":0.33858267716535434},{"duration":0.25581395348837077,"midi":53,"time":105.80232558139535,"velocity":0.3228346456692913},{"duration":0.023255813953483084,"midi":62,"time":105.80232558139535,"velocity":0.4015748031496063},{"duration":0.023255813953483084,"midi":74,"time":105.80232558139535,"velocity":0.5354330708661418},{"duration":0.04651162790698038,"midi":84,"time":105.80232558139535,"velocity":0.29133858267716534},{"duration":0.04651162790698038,"midi":68,"time":105.81395348837209,"velocity":0.14173228346456693},{"duration":0.023255813953483084,"midi":75,"time":105.81395348837209,"velocity":0.25984251968503935},{"duration":0.08139534883721922,"midi":61,"time":105.82558139534883,"velocity":0.3937007874015748},{"duration":0.13953488372092693,"midi":73,"time":105.82558139534883,"velocity":0.5511811023622047},{"duration":0.04651162790698038,"midi":78,"time":105.82558139534883,"velocity":0.2204724409448819},{"duration":0.16279069767442422,"midi":102,"time":105.82558139534883,"velocity":0.41732283464566927},{"duration":0.023255813953497295,"midi":47,"time":105.83720930232558,"velocity":0.25984251968503935},{"duration":0.12790697674418539,"midi":87,"time":105.83720930232558,"velocity":0.1732283464566929},{"duration":0.03488372093023884,"midi":100,"time":105.83720930232558,"velocity":0.07874015748031496},{"duration":0.023255813953483084,"midi":35,"time":105.84883720930233,"velocity":0.29133858267716534},{"duration":0.04651162790696617,"midi":83,"time":105.84883720930233,"velocity":0.28346456692913385},{"duration":0.22093023255813193,"midi":93,"time":105.84883720930233,"velocity":0.2125984251968504},{"duration":0.06976744186046346,"midi":46,"time":105.86046511627907,"velocity":0.2283464566929134},{"duration":0.15116279069766847,"midi":95,"time":105.86046511627907,"velocity":0.2992125984251969},{"duration":0.03488372093023884,"midi":34,"time":105.87209302325581,"velocity":0.28346456692913385},{"duration":0.081395348837205,"midi":94,"time":105.87209302325581,"velocity":0.2992125984251969},{"duration":0.05813953488372192,"midi":70,"time":105.88372093023256,"velocity":0.2047244094488189},{"duration":0.023255813953497295,"midi":84,"time":105.88372093023256,"velocity":0.25984251968503935},{"duration":0.06976744186046346,"midi":77,"time":105.8953488372093,"velocity":0.15748031496062992},{"duration":0.06976744186046346,"midi":103,"time":105.8953488372093,"velocity":0.10236220472440945},{"duration":0.04651162790698038,"midi":58,"time":105.93023255813954,"velocity":0.31496062992125984},{"duration":0.04651162790698038,"midi":83,"time":105.93023255813954,"velocity":0.1732283464566929},{"duration":0.09302325581396076,"midi":68,"time":105.94186046511628,"velocity":0.18110236220472442},{"duration":0.05813953488372192,"midi":100,"time":105.94186046511628,"velocity":0.07086614173228346},{"duration":0.04651162790698038,"midi":78,"time":105.96511627906976,"velocity":0.25984251968503935},{"duration":0.06976744186047767,"midi":84,"time":105.96511627906976,"velocity":0.3228346456692913},{"duration":0.13953488372092693,"midi":73,"time":105.97674418604652,"velocity":0.4566929133858268},{"duration":0.05813953488372192,"midi":61,"time":105.98837209302326,"velocity":0.2992125984251969},{"duration":0.081395348837205,"midi":103,"time":105.98837209302326,"velocity":0.4409448818897638},{"duration":0.06976744186046346,"midi":70,"time":106.01162790697674,"velocity":0.2440944881889764},{"duration":0.418604651162795,"midi":102,"time":106.02325581395348,"velocity":0.3779527559055118},{"duration":0.034883720930224626,"midi":95,"time":106.03488372093024,"velocity":0.14173228346456693},{"duration":0.24418604651161502,"midi":100,"time":106.03488372093024,"velocity":0.3937007874015748},{"duration":0.034883720930224626,"midi":64,"time":106.04651162790698,"velocity":0.31496062992125984},{"duration":0.10465116279068809,"midi":79,"time":106.04651162790698,"velocity":0.3858267716535433},{"duration":0.17441860465116577,"midi":84,"time":106.04651162790698,"velocity":0.4409448818897638},{"duration":0.15116279069766847,"midi":91,"time":106.04651162790698,"velocity":0.4015748031496063},{"duration":0.034883720930224626,"midi":81,"time":106.05813953488372,"velocity":0.2440944881889764},{"duration":0.1046511627907023,"midi":88,"time":106.05813953488372,"velocity":0.31496062992125984},{"duration":0.011627906976741542,"midi":46,"time":106.06976744186046,"velocity":0.5354330708661418},{"duration":0.16279069767442422,"midi":89,"time":106.06976744186046,"velocity":0.33858267716535434},{"duration":0.011627906976741542,"midi":45,"time":106.0813953488372,"velocity":0.5905511811023622},{"duration":0.03488372093023884,"midi":65,"time":106.0813953488372,"velocity":0.3543307086614173},{"duration":0.011627906976755753,"midi":44,"time":106.09302325581395,"velocity":0.5669291338582677},{"duration":0.04651162790698038,"midi":70,"time":106.09302325581395,"velocity":0.2440944881889764},{"duration":0.06976744186047767,"midi":98,"time":106.09302325581395,"velocity":0.1889763779527559},{"duration":0.023255813953483084,"midi":42,"time":106.1046511627907,"velocity":0.5433070866141733},{"duration":0.081395348837205,"midi":75,"time":106.1046511627907,"velocity":0.11811023622047244},{"duration":0.04651162790698038,"midi":66,"time":106.11627906976744,"velocity":0.3700787401574803},{"duration":0.06976744186046346,"midi":72,"time":106.11627906976744,"velocity":0.4645669291338583},{"duration":0.09302325581396076,"midi":53,"time":106.12790697674419,"velocity":0.1968503937007874},{"duration":0.023255813953483084,"midi":60,"time":106.12790697674419,"velocity":0.2677165354330709},{"duration":0.05813953488372192,"midi":80,"time":106.13953488372093,"velocity":0.23622047244094488},{"duration":0.03488372093023884,"midi":82,"time":106.15116279069767,"velocity":0.3543307086614173},{"duration":0.03488372093023884,"midi":86,"time":106.15116279069767,"velocity":0.13385826771653545},{"duration":0.08139534883721922,"midi":93,"time":106.15116279069767,"velocity":0.18110236220472442},{"duration":0.023255813953483084,"midi":37,"time":106.16279069767442,"velocity":0.33070866141732286},{"duration":0.034883720930224626,"midi":62,"time":106.16279069767442,"velocity":0.2283464566929134},{"duration":0.04651162790696617,"midi":68,"time":106.16279069767442,"velocity":0.12598425196850394},{"duration":0.4418604651162781,"midi":77,"time":106.16279069767442,"velocity":0.47244094488188976},{"duration":0.04651162790696617,"midi":81,"time":106.16279069767442,"velocity":0.2204724409448819},{"duration":0.034883720930224626,"midi":87,"time":106.16279069767442,"velocity":0.31496062992125984},{"duration":0.05813953488372192,"midi":73,"time":106.17441860465117,"velocity":0.33858267716535434},{"duration":0.081395348837205,"midi":83,"time":106.17441860465117,"velocity":0.44881889763779526},{"duration":0.05813953488372192,"midi":61,"time":106.18604651162791,"velocity":0.25196850393700787},{"duration":0.023255813953483084,"midi":90,"time":106.18604651162791,"velocity":0.28346456692913385},{"duration":0.023255813953497295,"midi":64,"time":106.19767441860465,"velocity":0.2283464566929134},{"duration":0.12790697674418539,"midi":70,"time":106.19767441860465,"velocity":0.4094488188976378},{"duration":0.03488372093023884,"midi":86,"time":106.19767441860465,"velocity":0.33858267716535434},{"duration":0.081395348837205,"midi":92,"time":106.19767441860465,"velocity":0.1889763779527559},{"duration":0.09302325581396076,"midi":94,"time":106.19767441860465,"velocity":0.1732283464566929},{"duration":0.03488372093023884,"midi":80,"time":106.20930232558139,"velocity":0.2992125984251969},{"duration":0.1046511627907023,"midi":88,"time":106.20930232558139,"velocity":0.44881889763779526},{"duration":0.034883720930224626,"midi":57,"time":106.22093023255815,"velocity":0.29133858267716534},{"duration":0.034883720930224626,"midi":65,"time":106.22093023255815,"velocity":0.31496062992125984},{"duration":0.034883720930224626,"midi":81,"time":106.22093023255815,"velocity":0.36220472440944884},{"duration":0.04651162790696617,"midi":85,"time":106.22093023255815,"velocity":0.3700787401574803},{"duration":0.034883720930224626,"midi":91,"time":106.22093023255815,"velocity":0.16535433070866143},{"duration":0.19767441860464885,"midi":53,"time":106.23255813953489,"velocity":0.33858267716535434},{"duration":0.05813953488372192,"midi":73,"time":106.24418604651163,"velocity":0.3700787401574803},{"duration":0.034883720930224626,"midi":75,"time":106.24418604651163,"velocity":0.13385826771653545},{"duration":0.09302325581394655,"midi":82,"time":106.24418604651163,"velocity":0.4566929133858268},{"duration":0.09302325581394655,"midi":86,"time":106.24418604651163,"velocity":0.4015748031496063},{"duration":0.05813953488372192,"midi":58,"time":106.25581395348837,"velocity":0.31496062992125984},{"duration":0.05813953488372192,"midi":84,"time":106.25581395348837,"velocity":0.2755905511811024},{"duration":0.06976744186046346,"midi":79,"time":106.26744186046511,"velocity":0.23622047244094488},{"duration":0.034883720930224626,"midi":61,"time":106.29069767441861,"velocity":0.2755905511811024},{"duration":0.15116279069766847,"midi":65,"time":106.30232558139535,"velocity":0.4330708661417323},{"duration":0.023255813953483084,"midi":83,"time":106.30232558139535,"velocity":0.2440944881889764},{"duration":0.023255813953483084,"midi":57,"time":106.31395348837209,"velocity":0.3700787401574803},{"duration":0.03488372093023884,"midi":81,"time":106.31395348837209,"velocity":0.2283464566929134},{"duration":0.03488372093023884,"midi":85,"time":106.31395348837209,"velocity":0.3228346456692913},{"duration":0.03488372093023884,"midi":90,"time":106.31395348837209,"velocity":0.14173228346456693},{"duration":0.023255813953497295,"midi":45,"time":106.32558139534883,"velocity":0.3700787401574803},{"duration":0.05813953488372192,"midi":72,"time":106.32558139534883,"velocity":0.3700787401574803},{"duration":0.03488372093023884,"midi":80,"time":106.32558139534883,"velocity":0.2125984251968504},{"duration":0.03488372093023884,"midi":88,"time":106.32558139534883,"velocity":0.18110236220472442},{"duration":0.06976744186046346,"midi":103,"time":106.32558139534883,"velocity":0.2283464566929134},{"duration":0.1046511627907023,"midi":58,"time":106.33720930232558,"velocity":0.4015748031496063},{"duration":0.04651162790698038,"midi":76,"time":106.33720930232558,"velocity":0.2283464566929134},{"duration":0.023255813953497295,"midi":83,"time":106.33720930232558,"velocity":0.2283464566929134},{"duration":0.06976744186046346,"midi":46,"time":106.34883720930233,"velocity":0.29133858267716534},{"duration":0.12790697674418539,"midi":86,"time":106.34883720930233,"velocity":0.31496062992125984},{"duration":0.2093023255813904,"midi":73,"time":106.36046511627907,"velocity":0.36220472440944884},{"duration":0.03488372093023884,"midi":90,"time":106.37209302325581,"velocity":0.11023622047244094},{"duration":0.03488372093023884,"midi":93,"time":106.37209302325581,"velocity":0.10236220472440945},{"duration":0.023255813953497295,"midi":35,"time":106.38372093023256,"velocity":0.31496062992125984},{"duration":0.04651162790698038,"midi":83,"time":106.38372093023256,"velocity":0.23622047244094488},{"duration":0.05813953488372192,"midi":61,"time":106.3953488372093,"velocity":0.28346456692913385},{"duration":0.05813953488370771,"midi":34,"time":106.40697674418605,"velocity":0.31496062992125984},{"duration":0.11627906976742963,"midi":80,"time":106.40697674418605,"velocity":0.2755905511811024},{"duration":0.04651162790696617,"midi":84,"time":106.4186046511628,"velocity":0.25984251968503935},{"duration":0.05813953488372192,"midi":88,"time":106.4186046511628,"velocity":0.1889763779527559},{"duration":0.034883720930224626,"midi":81,"time":106.43023255813954,"velocity":0.10236220472440945},{"duration":0.081395348837205,"midi":91,"time":106.43023255813954,"velocity":0.2125984251968504},{"duration":0.081395348837205,"midi":53,"time":106.44186046511628,"velocity":0.30708661417322836},{"duration":0.04651162790698038,"midi":83,"time":106.44186046511628,"velocity":0.16535433070866143},{"duration":0.09302325581396076,"midi":58,"time":106.45348837209302,"velocity":0.4094488188976378},{"duration":0.023255813953497295,"midi":45,"time":106.46511627906976,"velocity":0.3464566929133858},{"duration":0.05813953488372192,"midi":68,"time":106.46511627906976,"velocity":0.1968503937007874},{"duration":0.023255813953483084,"midi":38,"time":106.47674418604652,"velocity":0.25196850393700787},{"duration":0.10465116279068809,"midi":65,"time":106.48837209302326,"velocity":0.4409448818897638},{"duration":0.05813953488372192,"midi":46,"time":106.5,"velocity":0.25984251968503935},{"duration":0.023255813953497295,"midi":35,"time":106.51162790697674,"velocity":0.33070866141732286},{"duration":0.04651162790698038,"midi":81,"time":106.51162790697674,"velocity":0.14960629921259844},{"duration":0.03488372093023884,"midi":61,"time":106.52325581395348,"velocity":0.29133858267716534},{"duration":0.05813953488370771,"midi":34,"time":106.53488372093024,"velocity":0.3228346456692913},{"duration":0.11627906976744384,"midi":99,"time":106.55813953488372,"velocity":0.1889763779527559},{"duration":0.03488372093023884,"midi":55,"time":106.56976744186046,"velocity":0.5354330708661418},{"duration":0.04651162790698038,"midi":76,"time":106.56976744186046,"velocity":0.3228346456692913},{"duration":0.09302325581396076,"midi":90,"time":106.56976744186046,"velocity":0.30708661417322836},{"duration":0.06976744186046346,"midi":92,"time":106.56976744186046,"velocity":0.25196850393700787},{"duration":0.03488372093023884,"midi":93,"time":106.56976744186046,"velocity":0.14960629921259844},{"duration":0.04651162790698038,"midi":95,"time":106.56976744186046,"velocity":0.2440944881889764},{"duration":0.11627906976744384,"midi":96,"time":106.56976744186046,"velocity":0.2047244094488189},{"duration":0.11627906976744384,"midi":103,"time":106.56976744186046,"velocity":0.18110236220472442},{"duration":0.023255813953497295,"midi":62,"time":106.5813953488372,"velocity":0.3700787401574803},{"duration":0.11627906976744384,"midi":68,"time":106.5813953488372,"velocity":0.4094488188976378},{"duration":0.05813953488372192,"midi":83,"time":106.5813953488372,"velocity":0.2125984251968504},{"duration":0.05813953488372192,"midi":97,"time":106.5813953488372,"velocity":0.18110236220472442},{"duration":0.023255813953497295,"midi":45,"time":106.59302325581395,"velocity":0.5275590551181102},{"duration":0.04651162790698038,"midi":81,"time":106.59302325581395,"velocity":0.1968503937007874},{"duration":0.1046511627907023,"midi":84,"time":106.59302325581395,"velocity":0.1732283464566929},{"duration":0.04651162790698038,"midi":86,"time":106.59302325581395,"velocity":0.18110236220472442},{"duration":0.08139534883721922,"midi":91,"time":106.59302325581395,"velocity":0.2992125984251969},{"duration":0.1860465116279073,"midi":98,"time":106.6046511627907,"velocity":0.2992125984251969},{"duration":0.011627906976741542,"midi":44,"time":106.61627906976744,"velocity":0.5748031496062992},{"duration":0.09302325581394655,"midi":65,"time":106.61627906976744,"velocity":0.3779527559055118},{"duration":0.2674418604651123,"midi":75,"time":106.61627906976744,"velocity":0.4330708661417323},{"duration":0.023255813953483084,"midi":42,"time":106.62790697674419,"velocity":0.5669291338582677},{"duration":0.05813953488372192,"midi":56,"time":106.62790697674419,"velocity":0.4330708661417323},{"duration":0.1046511627907023,"midi":61,"time":106.62790697674419,"velocity":0.3464566929133858},{"duration":0.2093023255814046,"midi":73,"time":106.63953488372093,"velocity":0.3543307086614173},{"duration":0.15116279069766847,"midi":70,"time":106.66279069767442,"velocity":0.5118110236220472},{"duration":0.32558139534883423,"midi":100,"time":106.66279069767442,"velocity":0.25196850393700787},{"duration":0.034883720930224626,"midi":38,"time":106.67441860465117,"velocity":0.36220472440944884},{"duration":0.034883720930224626,"midi":83,"time":106.67441860465117,"velocity":0.18110236220472442},{"duration":0.06976744186046346,"midi":86,"time":106.67441860465117,"velocity":0.2992125984251969},{"duration":0.04651162790698038,"midi":88,"time":106.68604651162791,"velocity":0.13385826771653545},{"duration":0.19767441860464885,"midi":90,"time":106.68604651162791,"velocity":0.2283464566929134},{"duration":0.023255813953497295,"midi":56,"time":106.69767441860465,"velocity":0.4015748031496063},{"duration":0.03488372093023884,"midi":81,"time":106.69767441860465,"velocity":0.1968503937007874},{"duration":0.05813953488372192,"midi":91,"time":106.69767441860465,"velocity":0.14173228346456693},{"duration":0.418604651162795,"midi":99,"time":106.69767441860465,"velocity":0.4409448818897638},{"duration":0.023255813953497295,"midi":36,"time":106.70930232558139,"velocity":0.23622047244094488},{"duration":0.023255813953497295,"midi":47,"time":106.70930232558139,"velocity":0.3464566929133858},{"duration":0.09302325581396076,"midi":96,"time":106.70930232558139,"velocity":0.2440944881889764},{"duration":0.06976744186046346,"midi":92,"time":106.72093023255815,"velocity":0.14960629921259844},{"duration":0.3139534883720927,"midi":102,"time":106.72093023255815,"velocity":0.3700787401574803},{"duration":0.034883720930224626,"midi":48,"time":106.73255813953489,"velocity":0.3464566929133858},{"duration":0.034883720930224626,"midi":65,"time":106.74418604651163,"velocity":0.29133858267716534},{"duration":0.034883720930224626,"midi":79,"time":106.74418604651163,"velocity":0.07874015748031496},{"duration":0.023255813953483084,"midi":83,"time":106.74418604651163,"velocity":0.3779527559055118},{"duration":0.081395348837205,"midi":86,"time":106.75581395348837,"velocity":0.3543307086614173},{"duration":0.04651162790698038,"midi":36,"time":106.76744186046511,"velocity":0.3464566929133858},{"duration":0.023255813953497295,"midi":66,"time":106.77906976744185,"velocity":0.36220472440944884},{"duration":0.03488372093023884,"midi":88,"time":106.77906976744185,"velocity":0.16535433070866143},{"duration":0.023255813953483084,"midi":56,"time":106.79069767441861,"velocity":0.2755905511811024},{"duration":0.034883720930224626,"midi":61,"time":106.79069767441861,"velocity":0.2440944881889764},{"duration":0.081395348837205,"midi":68,"time":106.79069767441861,"velocity":0.4251968503937008},{"duration":0.06976744186046346,"midi":91,"time":106.79069767441861,"velocity":0.14960629921259844},{"duration":0.023255813953483084,"midi":55,"time":106.81395348837209,"velocity":0.33858267716535434},{"duration":0.03488372093023884,"midi":36,"time":106.82558139534883,"velocity":0.18110236220472442},{"duration":0.05813953488372192,"midi":77,"time":106.82558139534883,"velocity":0.16535433070866143},{"duration":0.023255813953497295,"midi":60,"time":106.83720930232558,"velocity":0.3543307086614173},{"duration":0.023255813953497295,"midi":66,"time":106.83720930232558,"velocity":0.23622047244094488},{"duration":0.04651162790698038,"midi":88,"time":106.83720930232558,"velocity":0.2440944881889764},{"duration":0.05813953488372192,"midi":89,"time":106.83720930232558,"velocity":0.25196850393700787},{"duration":0.05813953488372192,"midi":92,"time":106.83720930232558,"velocity":0.10236220472440945},{"duration":0.06976744186047767,"midi":94,"time":106.83720930232558,"velocity":0.2440944881889764},{"duration":0.03488372093023884,"midi":96,"time":106.83720930232558,"velocity":0.25984251968503935},{"duration":0.023255813953483084,"midi":55,"time":106.84883720930233,"velocity":0.29133858267716534},{"duration":0.05813953488372192,"midi":70,"time":106.84883720930233,"velocity":0.2440944881889764},{"duration":0.06976744186046346,"midi":97,"time":106.84883720930233,"velocity":0.30708661417322836},{"duration":0.15116279069766847,"midi":65,"time":106.86046511627907,"velocity":0.3228346456692913},{"duration":0.04651162790698038,"midi":73,"time":106.86046511627907,"velocity":0.5669291338582677},{"duration":0.05813953488372192,"midi":84,"time":106.86046511627907,"velocity":0.4409448818897638},{"duration":0.04651162790698038,"midi":86,"time":106.86046511627907,"velocity":0.14173228346456693},{"duration":0.15116279069766847,"midi":82,"time":106.87209302325581,"velocity":0.3937007874015748},{"duration":0.03488372093023884,"midi":80,"time":106.88372093023256,"velocity":0.2677165354330709},{"duration":0.04651162790698038,"midi":88,"time":106.8953488372093,"velocity":0.2204724409448819},{"duration":0.12790697674418539,"midi":91,"time":106.8953488372093,"velocity":0.16535433070866143},{"duration":1.5465116279069804,"midi":101,"time":106.8953488372093,"velocity":0.4566929133858268},{"duration":0.034883720930224626,"midi":72,"time":106.90697674418605,"velocity":0.5118110236220472},{"duration":0.034883720930224626,"midi":83,"time":106.90697674418605,"velocity":0.3228346456692913},{"duration":0.05813953488370771,"midi":87,"time":106.90697674418605,"velocity":0.2283464566929134},{"duration":0.13953488372092693,"midi":98,"time":106.90697674418605,"velocity":0.2125984251968504},{"duration":0.04651162790696617,"midi":85,"time":106.9186046511628,"velocity":0.15748031496062992},{"duration":0.034883720930224626,"midi":92,"time":106.9186046511628,"velocity":0.11023622047244094},{"duration":0.023255813953483084,"midi":71,"time":106.93023255813954,"velocity":0.4015748031496063},{"duration":0.05813953488372192,"midi":97,"time":106.93023255813954,"velocity":0.1968503937007874},{"duration":0.04651162790698038,"midi":103,"time":106.94186046511628,"velocity":0.28346456692913385},{"duration":0.03488372093023884,"midi":59,"time":106.95348837209302,"velocity":0.2677165354330709},{"duration":0.1046511627907023,"midi":70,"time":106.95348837209302,"velocity":0.5118110236220472},{"duration":0.04651162790698038,"midi":86,"time":106.95348837209302,"velocity":0.33070866141732286},{"duration":0.1046511627907023,"midi":96,"time":106.95348837209302,"velocity":0.30708661417322836},{"duration":0.03488372093023884,"midi":74,"time":106.96511627906976,"velocity":0.15748031496062992},{"duration":0.1046511627907023,"midi":80,"time":106.96511627906976,"velocity":0.1732283464566929},{"duration":0.034883720930224626,"midi":83,"time":106.97674418604652,"velocity":0.14173228346456693},{"duration":0.034883720930224626,"midi":88,"time":106.97674418604652,"velocity":0.12598425196850394},{"duration":0.023255813953483084,"midi":45,"time":106.98837209302326,"velocity":0.3228346456692913},{"duration":0.05813953488372192,"midi":53,"time":106.98837209302326,"velocity":0.2677165354330709},{"duration":0.023255813953483084,"midi":58,"time":106.98837209302326,"velocity":0.28346456692913385},{"duration":0.1046511627907023,"midi":73,"time":107,"velocity":0.3543307086614173},{"duration":0.1046511627907023,"midi":46,"time":107.01162790697674,"velocity":0.2677165354330709},{"duration":0.09302325581396076,"midi":86,"time":107.01162790697674,"velocity":0.3700787401574803},{"duration":0.023255813953497295,"midi":36,"time":107.02325581395348,"velocity":0.29133858267716534},{"duration":0.08139534883721922,"midi":58,"time":107.02325581395348,"velocity":0.4566929133858268},{"duration":0.08139534883721922,"midi":77,"time":107.02325581395348,"velocity":0.28346456692913385},{"duration":0.19767441860464885,"midi":85,"time":107.03488372093024,"velocity":0.48031496062992124},{"duration":0.09302325581394655,"midi":91,"time":107.03488372093024,"velocity":0.2677165354330709},{"duration":0.19767441860464885,"midi":95,"time":107.04651162790698,"velocity":0.2125984251968504},{"duration":0.04651162790698038,"midi":34,"time":107.05813953488372,"velocity":0.30708661417322836},{"duration":0.034883720930224626,"midi":69,"time":107.05813953488372,"velocity":0.23622047244094488},{"duration":0.081395348837205,"midi":102,"time":107.05813953488372,"velocity":0.1968503937007874},{"duration":0.03488372093023884,"midi":66,"time":107.06976744186046,"velocity":0.1968503937007874},{"duration":0.05813953488372192,"midi":88,"time":107.09302325581395,"velocity":0.28346456692913385},{"duration":0.04651162790698038,"midi":90,"time":107.09302325581395,"velocity":0.16535433070866143},{"duration":0.04651162790696617,"midi":78,"time":107.1046511627907,"velocity":0.14960629921259844},{"duration":0.034883720930224626,"midi":81,"time":107.1046511627907,"velocity":0.2283464566929134},{"duration":0.023255813953483084,"midi":83,"time":107.1046511627907,"velocity":0.2677165354330709},{"duration":0.04651162790696617,"midi":84,"time":107.1046511627907,"velocity":0.2755905511811024},{"duration":0.034883720930224626,"midi":98,"time":107.1046511627907,"velocity":0.13385826771653545},{"duration":0.05813953488372192,"midi":61,"time":107.11627906976744,"velocity":0.47244094488188976},{"duration":0.2674418604651123,"midi":92,"time":107.11627906976744,"velocity":0.18110236220472442},{"duration":0.011627906976741542,"midi":46,"time":107.12790697674419,"velocity":0.5433070866141733},{"duration":0.1046511627907023,"midi":77,"time":107.12790697674419,"velocity":0.23622047244094488},{"duration":0.081395348837205,"midi":103,"time":107.12790697674419,"velocity":0.2283464566929134},{"duration":0.011627906976741542,"midi":45,"time":107.13953488372093,"velocity":0.6141732283464567},{"duration":0.25581395348837077,"midi":65,"time":107.13953488372093,"velocity":0.3228346456692913},{"duration":0.023255813953497295,"midi":74,"time":107.13953488372093,"velocity":0.4330708661417323},{"duration":0.08139534883721922,"midi":89,"time":107.13953488372093,"velocity":0.30708661417322836},{"duration":0.023255813953497295,"midi":100,"time":107.13953488372093,"velocity":0.2992125984251969},{"duration":0.011627906976755753,"midi":44,"time":107.15116279069767,"velocity":0.5984251968503937},{"duration":0.03488372093023884,"midi":81,"time":107.15116279069767,"velocity":0.3779527559055118},{"duration":0.023255813953483084,"midi":42,"time":107.16279069767442,"velocity":0.5275590551181102},{"duration":0.06976744186046346,"midi":70,"time":107.16279069767442,"velocity":0.2992125984251969},{"duration":0.04651162790696617,"midi":73,"time":107.16279069767442,"velocity":0.49606299212598426},{"duration":0.6279069767441854,"midi":99,"time":107.16279069767442,"velocity":0.3464566929133858},{"duration":0.5581395348837219,"midi":102,"time":107.16279069767442,"velocity":0.4330708661417323},{"duration":0.11627906976744384,"midi":58,"time":107.17441860465117,"velocity":0.3543307086614173},{"duration":0.03488372093023884,"midi":80,"time":107.18604651162791,"velocity":0.3779527559055118},{"duration":0.05813953488372192,"midi":72,"time":107.19767441860465,"velocity":0.5433070866141733},{"duration":0.06976744186046346,"midi":94,"time":107.19767441860465,"velocity":0.25984251968503935},{"duration":0.04651162790698038,"midi":98,"time":107.19767441860465,"velocity":0.11811023622047244},{"duration":0.081395348837205,"midi":100,"time":107.19767441860465,"velocity":0.33070866141732286},{"duration":0.023255813953497295,"midi":46,"time":107.20930232558139,"velocity":0.2677165354330709},{"duration":0.04651162790698038,"midi":88,"time":107.20930232558139,"velocity":0.33858267716535434},{"duration":0.034883720930224626,"midi":79,"time":107.22093023255815,"velocity":0.3464566929133858},{"duration":0.04651162790698038,"midi":80,"time":107.24418604651163,"velocity":0.33858267716535434},{"duration":0.16279069767442422,"midi":85,"time":107.24418604651163,"velocity":0.49606299212598426},{"duration":0.11627906976744384,"midi":73,"time":107.25581395348837,"velocity":0.5354330708661418},{"duration":0.03488372093023884,"midi":89,"time":107.25581395348837,"velocity":0.30708661417322836},{"duration":0.08139534883721922,"midi":95,"time":107.26744186046511,"velocity":0.2204724409448819},{"duration":0.13953488372094114,"midi":61,"time":107.27906976744185,"velocity":0.4251968503937008},{"duration":0.11627906976744384,"midi":82,"time":107.27906976744185,"velocity":0.1968503937007874},{"duration":0.05813953488372192,"midi":103,"time":107.27906976744185,"velocity":0.23622047244094488},{"duration":0.023255813953483084,"midi":81,"time":107.29069767441861,"velocity":0.4330708661417323},{"duration":0.1046511627907023,"midi":89,"time":107.30232558139535,"velocity":0.3700787401574803},{"duration":0.11627906976744384,"midi":100,"time":107.30232558139535,"velocity":0.3543307086614173},{"duration":0.05813953488372192,"midi":54,"time":107.31395348837209,"velocity":0.15748031496062992},{"duration":0.05813953488372192,"midi":70,"time":107.31395348837209,"velocity":0.1732283464566929},{"duration":0.081395348837205,"midi":80,"time":107.31395348837209,"velocity":0.48031496062992124},{"duration":0.034883720930224626,"midi":68,"time":107.36046511627907,"velocity":0.25196850393700787},{"duration":0.034883720930224626,"midi":88,"time":107.36046511627907,"velocity":0.4015748031496063},{"duration":0.081395348837205,"midi":96,"time":107.36046511627907,"velocity":0.16535433070866143},{"duration":0.04651162790698038,"midi":72,"time":107.37209302325581,"velocity":0.5433070866141733},{"duration":0.03488372093023884,"midi":79,"time":107.37209302325581,"velocity":0.2992125984251969},{"duration":0.03488372093023884,"midi":90,"time":107.37209302325581,"velocity":0.07874015748031496},{"duration":0.04651162790698038,"midi":95,"time":107.37209302325581,"velocity":0.1732283464566929},{"duration":0.03488372093023884,"midi":98,"time":107.37209302325581,"velocity":0.07874015748031496},{"duration":0.023255813953497295,"midi":46,"time":107.3953488372093,"velocity":0.29133858267716534},{"duration":0.09302325581396076,"midi":66,"time":107.3953488372093,"velocity":0.30708661417322836},{"duration":0.03488372093023884,"midi":69,"time":107.3953488372093,"velocity":0.2204724409448819},{"duration":0.03488372093023884,"midi":94,"time":107.3953488372093,"velocity":0.13385826771653545},{"duration":0.023255813953483084,"midi":55,"time":107.40697674418605,"velocity":0.25984251968503935},{"duration":0.19767441860464885,"midi":80,"time":107.40697674418605,"velocity":0.47244094488188976},{"duration":0.13953488372092693,"midi":73,"time":107.4186046511628,"velocity":0.5433070866141733},{"duration":0.081395348837205,"midi":70,"time":107.43023255813954,"velocity":0.2047244094488189},{"duration":0.023255813953483084,"midi":61,"time":107.44186046511628,"velocity":0.23622047244094488},{"duration":0.081395348837205,"midi":95,"time":107.44186046511628,"velocity":0.1889763779527559},{"duration":0.04651162790698038,"midi":103,"time":107.45348837209302,"velocity":0.15748031496062992},{"duration":0.04651162790698038,"midi":62,"time":107.46511627906976,"velocity":0.2047244094488189},{"duration":0.034883720930224626,"midi":54,"time":107.47674418604652,"velocity":0.2755905511811024},{"duration":0.06976744186046346,"midi":65,"time":107.48837209302326,"velocity":0.28346456692913385},{"duration":0.03488372093023884,"midi":76,"time":107.5,"velocity":0.1889763779527559},{"duration":0.06976744186046346,"midi":69,"time":107.52325581395348,"velocity":0.2204724409448819},{"duration":0.023255813953483084,"midi":38,"time":107.53488372093024,"velocity":0.3228346456692913},{"duration":0.04651162790696617,"midi":95,"time":107.54651162790698,"velocity":0.14960629921259844},{"duration":0.081395348837205,"midi":66,"time":107.55813953488372,"velocity":0.41732283464566927},{"duration":0.05813953488372192,"midi":72,"time":107.55813953488372,"velocity":0.3937007874015748},{"duration":0.023255813953483084,"midi":46,"time":107.56976744186046,"velocity":0.2755905511811024},{"duration":0.25581395348837077,"midi":103,"time":107.56976744186046,"velocity":0.3779527559055118},{"duration":0.03488372093023884,"midi":61,"time":107.5813953488372,"velocity":0.44881889763779526},{"duration":0.11627906976744384,"midi":100,"time":107.5813953488372,"velocity":0.28346456692913385},{"duration":0.04651162790698038,"midi":86,"time":107.59302325581395,"velocity":0.3228346456692913},{"duration":0.081395348837205,"midi":96,"time":107.6046511627907,"velocity":0.15748031496062992},{"duration":0.034883720930224626,"midi":62,"time":107.61627906976744,"velocity":0.4645669291338583},{"duration":0.11627906976744384,"midi":73,"time":107.61627906976744,"velocity":0.31496062992125984},{"duration":0.1860465116279073,"midi":80,"time":107.61627906976744,"velocity":0.28346456692913385},{"duration":0.11627906976744384,"midi":82,"time":107.62790697674419,"velocity":0.23622047244094488},{"duration":0.05813953488372192,"midi":89,"time":107.62790697674419,"velocity":0.2677165354330709},{"duration":0.09302325581396076,"midi":95,"time":107.62790697674419,"velocity":0.15748031496062992},{"duration":0.03488372093023884,"midi":45,"time":107.63953488372093,"velocity":0.5590551181102362},{"duration":0.023255813953497295,"midi":67,"time":107.63953488372093,"velocity":0.3937007874015748},{"duration":0.04651162790698038,"midi":83,"time":107.63953488372093,"velocity":0.11811023622047244},{"duration":0.17441860465116577,"midi":87,"time":107.63953488372093,"velocity":0.3464566929133858},{"duration":0.06976744186046346,"midi":90,"time":107.63953488372093,"velocity":0.33858267716535434},{"duration":0.05813953488372192,"midi":93,"time":107.63953488372093,"velocity":0.10236220472440945},{"duration":0.11627906976744384,"midi":63,"time":107.65116279069767,"velocity":0.48031496062992124},{"duration":0.1860465116279073,"midi":75,"time":107.65116279069767,"velocity":0.48031496062992124},{"duration":0.13953488372094114,"midi":91,"time":107.65116279069767,"velocity":0.2755905511811024},{"duration":0.15116279069766847,"midi":66,"time":107.66279069767442,"velocity":0.4015748031496063},{"duration":0.16279069767441,"midi":70,"time":107.66279069767442,"velocity":0.5196850393700787},{"duration":0.011627906976741542,"midi":44,"time":107.67441860465117,"velocity":0.5826771653543307},{"duration":0.023255813953483084,"midi":52,"time":107.67441860465117,"velocity":0.3228346456692913},{"duration":0.034883720930224626,"midi":77,"time":107.67441860465117,"velocity":0.14173228346456693},{"duration":0.011627906976741542,"midi":43,"time":107.68604651162791,"velocity":0.5590551181102362},{"duration":0.06976744186046346,"midi":58,"time":107.68604651162791,"velocity":0.2047244094488189},{"duration":0.011627906976741542,"midi":42,"time":107.69767441860465,"velocity":0.5275590551181102},{"duration":0.023255813953483084,"midi":53,"time":107.72093023255815,"velocity":0.2440944881889764},{"duration":0.023255813953483084,"midi":72,"time":107.73255813953489,"velocity":0.33858267716535434},{"duration":0.04651162790696617,"midi":77,"time":107.73255813953489,"velocity":0.33858267716535434},{"duration":0.05813953488372192,"midi":102,"time":107.73255813953489,"velocity":0.15748031496062992},{"duration":0.023255813953483084,"midi":37,"time":107.74418604651163,"velocity":0.3543307086614173},{"duration":0.05813953488372192,"midi":90,"time":107.74418604651163,"velocity":0.15748031496062992},{"duration":0.05813953488372192,"midi":96,"time":107.74418604651163,"velocity":0.2677165354330709},{"duration":0.081395348837205,"midi":55,"time":107.75581395348837,"velocity":0.29133858267716534},{"duration":0.15116279069768268,"midi":73,"time":107.75581395348837,"velocity":0.4881889763779528},{"duration":0.11627906976744384,"midi":93,"time":107.75581395348837,"velocity":0.15748031496062992},{"duration":0.023255813953497295,"midi":62,"time":107.76744186046511,"velocity":0.36220472440944884},{"duration":0.11627906976744384,"midi":48,"time":107.77906976744185,"velocity":0.33070866141732286},{"duration":0.03488372093023884,"midi":84,"time":107.77906976744185,"velocity":0.08661417322834646},{"duration":0.023255813953483084,"midi":63,"time":107.79069767441861,"velocity":0.4094488188976378},{"duration":0.13953488372092693,"midi":77,"time":107.79069767441861,"velocity":0.30708661417322836},{"duration":0.06976744186046346,"midi":81,"time":107.79069767441861,"velocity":0.31496062992125984},{"duration":0.034883720930224626,"midi":83,"time":107.79069767441861,"velocity":0.10236220472440945},{"duration":0.034883720930224626,"midi":86,"time":107.79069767441861,"velocity":0.14173228346456693},{"duration":0.081395348837205,"midi":61,"time":107.81395348837209,"velocity":0.4409448818897638},{"duration":0.081395348837205,"midi":68,"time":107.81395348837209,"velocity":0.5433070866141733},{"duration":0.08139534883721922,"midi":36,"time":107.82558139534883,"velocity":0.3464566929133858},{"duration":0.04651162790698038,"midi":92,"time":107.82558139534883,"velocity":0.14173228346456693},{"duration":0.03488372093023884,"midi":99,"time":107.83720930232558,"velocity":0.1732283464566929},{"duration":0.34883720930233153,"midi":103,"time":107.83720930232558,"velocity":0.30708661417322836},{"duration":0.05813953488372192,"midi":75,"time":107.86046511627907,"velocity":0.33070866141732286},{"duration":0.05813953488372192,"midi":86,"time":107.86046511627907,"velocity":0.08661417322834646},{"duration":0.13953488372092693,"midi":91,"time":107.87209302325581,"velocity":0.2204724409448819},{"duration":0.03488372093023884,"midi":54,"time":107.88372093023256,"velocity":0.29133858267716534},{"duration":0.03488372093023884,"midi":81,"time":107.88372093023256,"velocity":0.16535433070866143},{"duration":0.22093023255814614,"midi":84,"time":107.88372093023256,"velocity":0.41732283464566927},{"duration":0.04651162790698038,"midi":88,"time":107.88372093023256,"velocity":0.30708661417322836},{"duration":0.11627906976744384,"midi":94,"time":107.88372093023256,"velocity":0.1968503937007874},{"duration":0.4534883720930196,"midi":100,"time":107.88372093023256,"velocity":0.4409448818897638},{"duration":0.1860465116279073,"midi":102,"time":107.88372093023256,"velocity":0.3228346456692913},{"duration":0.023255813953497295,"midi":67,"time":107.8953488372093,"velocity":0.3228346456692913},{"duration":0.08139534883721922,"midi":90,"time":107.8953488372093,"velocity":0.25984251968503935},{"duration":0.034883720930224626,"midi":45,"time":107.90697674418605,"velocity":0.33858267716535434},{"duration":0.09302325581394655,"midi":72,"time":107.90697674418605,"velocity":0.5354330708661418},{"duration":0.15116279069766847,"midi":80,"time":107.90697674418605,"velocity":0.2440944881889764},{"duration":0.081395348837205,"midi":95,"time":107.90697674418605,"velocity":0.1889763779527559},{"duration":0.023255813953483084,"midi":53,"time":107.9186046511628,"velocity":0.31496062992125984},{"duration":0.04651162790696617,"midi":76,"time":107.9186046511628,"velocity":0.2125984251968504},{"duration":0.034883720930224626,"midi":87,"time":107.9186046511628,"velocity":0.33070866141732286},{"duration":0.023255813953483084,"midi":71,"time":107.93023255813954,"velocity":0.4094488188976378},{"duration":0.081395348837205,"midi":78,"time":107.93023255813954,"velocity":0.31496062992125984},{"duration":0.034883720930224626,"midi":83,"time":107.93023255813954,"velocity":0.4094488188976378},{"duration":0.2674418604651123,"midi":99,"time":107.93023255813954,"velocity":0.3779527559055118},{"duration":0.081395348837205,"midi":46,"time":107.94186046511628,"velocity":0.30708661417322836},{"duration":0.03488372093023884,"midi":60,"time":107.94186046511628,"velocity":0.36220472440944884},{"duration":0.081395348837205,"midi":86,"time":107.94186046511628,"velocity":0.4881889763779528},{"duration":0.04651162790698038,"midi":53,"time":107.95348837209302,"velocity":0.2755905511811024},{"duration":0.04651162790698038,"midi":68,"time":107.95348837209302,"velocity":0.25196850393700787},{"duration":0.023255813953497295,"midi":70,"time":107.95348837209302,"velocity":0.23622047244094488},{"duration":0.2093023255814046,"midi":88,"time":107.95348837209302,"velocity":0.4330708661417323},{"duration":0.023255813953497295,"midi":35,"time":107.96511627906976,"velocity":0.2755905511811024},{"duration":0.5116279069767558,"midi":75,"time":107.96511627906976,"velocity":0.4645669291338583},{"duration":0.04651162790698038,"midi":82,"time":107.96511627906976,"velocity":0.4566929133858268},{"duration":0.09302325581394655,"midi":63,"time":107.97674418604652,"velocity":0.3464566929133858},{"duration":0.034883720930224626,"midi":89,"time":107.97674418604652,"velocity":0.36220472440944884},{"duration":0.05813953488372192,"midi":34,"time":107.98837209302326,"velocity":0.2755905511811024},{"duration":0.034883720930224626,"midi":66,"time":107.98837209302326,"velocity":0.2047244094488189},{"duration":0.034883720930224626,"midi":70,"time":107.98837209302326,"velocity":0.3464566929133858},{"duration":0.023255813953483084,"midi":54,"time":108,"velocity":0.2677165354330709},{"duration":0.023255813953483084,"midi":59,"time":108,"velocity":0.2677165354330709},{"duration":0.03488372093023884,"midi":83,"time":108,"velocity":0.4015748031496063},{"duration":0.081395348837205,"midi":97,"time":108,"velocity":0.1732283464566929},{"duration":0.40697674418605345,"midi":68,"time":108.01162790697674,"velocity":0.36220472440944884},{"duration":0.03488372093023884,"midi":72,"time":108.01162790697674,"velocity":0.25196850393700787},{"duration":0.05813953488372192,"midi":90,"time":108.01162790697674,"velocity":0.2755905511811024},{"duration":0.03488372093023884,"midi":78,"time":108.02325581395348,"velocity":0.31496062992125984},{"duration":0.03488372093023884,"midi":87,"time":108.02325581395348,"velocity":0.4881889763779528},{"duration":0.16279069767442422,"midi":93,"time":108.02325581395348,"velocity":0.16535433070866143},{"duration":0.11627906976744384,"midi":94,"time":108.02325581395348,"velocity":0.18110236220472442},{"duration":0.06976744186046346,"midi":60,"time":108.03488372093024,"velocity":0.36220472440944884},{"duration":0.023255813953483084,"midi":71,"time":108.03488372093024,"velocity":0.3779527559055118},{"duration":0.06976744186046346,"midi":91,"time":108.04651162790698,"velocity":0.2677165354330709},{"duration":0.081395348837205,"midi":72,"time":108.05813953488372,"velocity":0.4566929133858268},{"duration":0.05813953488372192,"midi":79,"time":108.05813953488372,"velocity":0.36220472440944884},{"duration":0.06976744186046346,"midi":98,"time":108.05813953488372,"velocity":0.15748031496062992},{"duration":0.2093023255814046,"midi":102,"time":108.0813953488372,"velocity":0.1968503937007874},{"duration":0.05813953488372192,"midi":56,"time":108.09302325581395,"velocity":0.16535433070866143},{"duration":0.03488372093023884,"midi":85,"time":108.09302325581395,"velocity":0.11811023622047244},{"duration":0.1046511627907023,"midi":97,"time":108.09302325581395,"velocity":0.16535433070866143},{"duration":0.04651162790696617,"midi":90,"time":108.1046511627907,"velocity":0.2204724409448819},{"duration":0.10465116279068809,"midi":95,"time":108.1046511627907,"velocity":0.2755905511811024},{"duration":0.034883720930224626,"midi":78,"time":108.11627906976744,"velocity":0.2677165354330709},{"duration":0.03488372093023884,"midi":71,"time":108.12790697674419,"velocity":0.2992125984251969},{"duration":0.023255813953497295,"midi":79,"time":108.13953488372093,"velocity":0.3228346456692913},{"duration":0.04651162790698038,"midi":92,"time":108.13953488372093,"velocity":0.18110236220472442},{"duration":0.03488372093023884,"midi":59,"time":108.15116279069767,"velocity":0.31496062992125984},{"duration":0.05813953488372192,"midi":83,"time":108.15116279069767,"velocity":0.4094488188976378},{"duration":0.05813953488372192,"midi":89,"time":108.15116279069767,"velocity":0.25984251968503935},{"duration":0.08139534883721922,"midi":98,"time":108.15116279069767,"velocity":0.13385826771653545},{"duration":0.04651162790696617,"midi":72,"time":108.16279069767442,"velocity":0.30708661417322836},{"duration":0.034883720930224626,"midi":78,"time":108.16279069767442,"velocity":0.3700787401574803},{"duration":0.023255813953483084,"midi":82,"time":108.16279069767442,"velocity":0.41732283464566927},{"duration":0.36046511627905886,"midi":86,"time":108.16279069767442,"velocity":0.4409448818897638},{"duration":0.034883720930224626,"midi":91,"time":108.16279069767442,"velocity":0.11023622047244094},{"duration":0.034883720930224626,"midi":74,"time":108.17441860465117,"velocity":0.2283464566929134},{"duration":0.011627906976741542,"midi":47,"time":108.18604651162791,"velocity":0.5196850393700787},{"duration":0.011627906976741542,"midi":45,"time":108.19767441860465,"velocity":0.5748031496062992},{"duration":0.04651162790698038,"midi":70,"time":108.19767441860465,"velocity":0.33070866141732286},{"duration":0.25581395348837077,"midi":77,"time":108.19767441860465,"velocity":0.4251968503937008},{"duration":0.09302325581396076,"midi":82,"time":108.19767441860465,"velocity":0.4251968503937008},{"duration":0.011627906976755753,"midi":43,"time":108.20930232558139,"velocity":0.5748031496062992},{"duration":0.03488372093023884,"midi":56,"time":108.20930232558139,"velocity":0.28346456692913385},{"duration":0.08139534883721922,"midi":63,"time":108.20930232558139,"velocity":0.2755905511811024},{"duration":0.12790697674418539,"midi":96,"time":108.20930232558139,"velocity":0.14173228346456693},{"duration":0.1046511627907023,"midi":103,"time":108.20930232558139,"velocity":0.23622047244094488},{"duration":0.023255813953483084,"midi":42,"time":108.22093023255815,"velocity":0.5590551181102362},{"duration":0.034883720930224626,"midi":83,"time":108.22093023255815,"velocity":0.3543307086614173},{"duration":0.10465116279068809,"midi":51,"time":108.23255813953489,"velocity":0.28346456692913385},{"duration":0.04651162790696617,"midi":79,"time":108.23255813953489,"velocity":0.1732283464566929},{"duration":0.023255813953483084,"midi":71,"time":108.24418604651163,"velocity":0.2992125984251969},{"duration":0.05813953488372192,"midi":88,"time":108.24418604651163,"velocity":0.23622047244094488},{"duration":0.09302325581396076,"midi":70,"time":108.26744186046511,"velocity":0.3858267716535433},{"duration":0.023255813953497295,"midi":72,"time":108.26744186046511,"velocity":0.23622047244094488},{"duration":0.13953488372094114,"midi":84,"time":108.27906976744185,"velocity":0.23622047244094488},{"duration":0.023255813953483084,"midi":35,"time":108.29069767441861,"velocity":0.3700787401574803},{"duration":0.081395348837205,"midi":82,"time":108.30232558139535,"velocity":0.3858267716535433},{"duration":0.03488372093023884,"midi":58,"time":108.31395348837209,"velocity":0.30708661417322836},{"duration":0.06976744186046346,"midi":88,"time":108.31395348837209,"velocity":0.2047244094488189},{"duration":0.05813953488372192,"midi":102,"time":108.31395348837209,"velocity":0.1889763779527559},{"duration":0.3953488372093119,"midi":99,"time":108.32558139534883,"velocity":0.36220472440944884},{"duration":0.09302325581396076,"midi":63,"time":108.33720930232558,"velocity":0.3228346456692913},{"duration":0.04651162790696617,"midi":57,"time":108.34883720930233,"velocity":0.5354330708661418},{"duration":0.7325581395348735,"midi":72,"time":108.36046511627907,"velocity":0.3700787401574803},{"duration":0.06976744186046346,"midi":83,"time":108.36046511627907,"velocity":0.1968503937007874},{"duration":0.04651162790698038,"midi":56,"time":108.3953488372093,"velocity":0.5196850393700787},{"duration":0.38372093023255616,"midi":102,"time":108.3953488372093,"velocity":0.33858267716535434},{"duration":0.05813953488370771,"midi":91,"time":108.40697674418605,"velocity":0.25196850393700787},{"duration":0.06976744186046346,"midi":60,"time":108.4186046511628,"velocity":0.3228346456692913},{"duration":0.11627906976744384,"midi":82,"time":108.4186046511628,"velocity":0.2755905511811024},{"duration":0.11627906976744384,"midi":90,"time":108.4186046511628,"velocity":0.33070866141732286},{"duration":0.10465116279068809,"midi":92,"time":108.4186046511628,"velocity":0.41732283464566927},{"duration":0.11627906976744384,"midi":94,"time":108.4186046511628,"velocity":0.3543307086614173},{"duration":0.05813953488372192,"midi":97,"time":108.4186046511628,"velocity":0.1889763779527559},{"duration":0.3372093023255758,"midi":100,"time":108.4186046511628,"velocity":0.2440944881889764},{"duration":0.19767441860464885,"midi":103,"time":108.4186046511628,"velocity":0.2755905511811024},{"duration":0.2674418604651123,"midi":96,"time":108.43023255813954,"velocity":0.3937007874015748},{"duration":0.023255813953483084,"midi":81,"time":108.44186046511628,"velocity":0.2440944881889764},{"duration":0.16279069767442422,"midi":44,"time":108.45348837209302,"velocity":0.3779527559055118},{"duration":0.11627906976744384,"midi":51,"time":108.45348837209302,"velocity":0.29133858267716534},{"duration":0.04651162790698038,"midi":79,"time":108.45348837209302,"velocity":0.18110236220472442},{"duration":0.30232558139535115,"midi":101,"time":108.45348837209302,"velocity":0.28346456692913385},{"duration":0.17441860465116577,"midi":63,"time":108.46511627906976,"velocity":0.33858267716535434},{"duration":0.023255813953497295,"midi":76,"time":108.46511627906976,"velocity":0.41732283464566927},{"duration":0.05813953488372192,"midi":87,"time":108.47674418604652,"velocity":0.2204724409448819},{"duration":0.04651162790698038,"midi":75,"time":108.48837209302326,"velocity":0.48031496062992124},{"duration":0.05813953488372192,"midi":77,"time":108.5,"velocity":0.14960629921259844},{"duration":0.13953488372092693,"midi":97,"time":108.5,"velocity":0.25984251968503935},{"duration":0.081395348837205,"midi":89,"time":108.51162790697674,"velocity":0.3228346456692913},{"duration":0.09302325581396076,"midi":32,"time":108.52325581395348,"velocity":0.2755905511811024},{"duration":0.05813953488372192,"midi":74,"time":108.52325581395348,"velocity":0.3779527559055118},{"duration":0.04651162790698038,"midi":79,"time":108.52325581395348,"velocity":0.29133858267716534},{"duration":0.05813953488372192,"midi":83,"time":108.52325581395348,"velocity":0.25196850393700787},{"duration":0.16279069767442422,"midi":91,"time":108.52325581395348,"velocity":0.49606299212598426},{"duration":0.04651162790698038,"midi":93,"time":108.52325581395348,"velocity":0.23622047244094488},{"duration":0.06976744186046346,"midi":95,"time":108.52325581395348,"velocity":0.3228346456692913},{"duration":0.15116279069768268,"midi":98,"time":108.52325581395348,"velocity":0.3228346456692913},{"duration":0.05813953488372192,"midi":87,"time":108.54651162790698,"velocity":0.1732283464566929},{"duration":0.034883720930224626,"midi":88,"time":108.54651162790698,"velocity":0.2283464566929134},{"duration":0.22093023255813193,"midi":94,"time":108.55813953488372,"velocity":0.25984251968503935},{"duration":0.023255813953483084,"midi":57,"time":108.56976744186046,"velocity":0.4015748031496063},{"duration":0.4651162790697754,"midi":68,"time":108.56976744186046,"velocity":0.41732283464566927},{"duration":0.09302325581396076,"midi":75,"time":108.56976744186046,"velocity":0.4409448818897638},{"duration":0.17441860465116577,"midi":90,"time":108.5813953488372,"velocity":0.41732283464566927},{"duration":0.08139534883721922,"midi":56,"time":108.59302325581395,"velocity":0.4566929133858268},{"duration":0.08139534883721922,"midi":82,"time":108.59302325581395,"velocity":0.14960629921259844},{"duration":0.05813953488372192,"midi":81,"time":108.6046511627907,"velocity":0.33070866141732286},{"duration":0.034883720930224626,"midi":88,"time":108.6046511627907,"velocity":0.11023622047244094},{"duration":0.19767441860464885,"midi":95,"time":108.6046511627907,"velocity":0.1889763779527559},{"duration":0.03488372093023884,"midi":79,"time":108.63953488372093,"velocity":0.16535433070866143},{"duration":0.12790697674418539,"midi":89,"time":108.63953488372093,"velocity":0.25984251968503935},{"duration":0.023255813953483084,"midi":76,"time":108.66279069767442,"velocity":0.2755905511811024},{"duration":0.023255813953483084,"midi":65,"time":108.67441860465117,"velocity":0.3464566929133858},{"duration":0.05813953488372192,"midi":75,"time":108.67441860465117,"velocity":0.31496062992125984},{"duration":0.11627906976744384,"midi":97,"time":108.67441860465117,"velocity":0.1732283464566929},{"duration":0.09302325581394655,"midi":93,"time":108.68604651162791,"velocity":0.14960629921259844},{"duration":0.023255813953497295,"midi":60,"time":108.69767441860465,"velocity":0.4015748031496063},{"duration":0.11627906976744384,"midi":91,"time":108.69767441860465,"velocity":0.2283464566929134},{"duration":0.023255813953497295,"midi":45,"time":108.70930232558139,"velocity":0.5748031496062992},{"duration":0.04651162790698038,"midi":77,"time":108.70930232558139,"velocity":0.11811023622047244},{"duration":0.04651162790696617,"midi":56,"time":108.72093023255815,"velocity":0.28346456692913385},{"duration":0.23255813953487348,"midi":63,"time":108.72093023255815,"velocity":0.1889763779527559},{"duration":0.05813953488370771,"midi":74,"time":108.72093023255815,"velocity":0.23622047244094488},{"duration":0.06976744186046346,"midi":82,"time":108.72093023255815,"velocity":0.1968503937007874},{"duration":0.034883720930224626,"midi":92,"time":108.72093023255815,"velocity":0.07086614173228346},{"duration":0.034883720930224626,"midi":96,"time":108.72093023255815,"velocity":0.11811023622047244},{"duration":0.011627906976741542,"midi":44,"time":108.73255813953489,"velocity":0.6062992125984252},{"duration":0.011627906976741542,"midi":43,"time":108.74418604651163,"velocity":0.5826771653543307},{"duration":0.034883720930224626,"midi":79,"time":108.74418604651163,"velocity":0.07874015748031496},{"duration":0.04651162790698038,"midi":81,"time":108.74418604651163,"velocity":0.11023622047244094},{"duration":0.04651162790698038,"midi":85,"time":108.74418604651163,"velocity":0.11811023622047244},{"duration":0.081395348837205,"midi":87,"time":108.74418604651163,"velocity":0.13385826771653545},{"duration":0.25581395348837077,"midi":99,"time":108.74418604651163,"velocity":0.2204724409448819},{"duration":0.011627906976741542,"midi":42,"time":108.75581395348837,"velocity":0.5511811023622047},{"duration":0.023255813953497295,"midi":52,"time":108.76744186046511,"velocity":0.30708661417322836},{"duration":0.2093023255814046,"midi":75,"time":108.76744186046511,"velocity":0.3700787401574803},{"duration":0.05813953488372192,"midi":90,"time":108.76744186046511,"velocity":0.14960629921259844},{"duration":0.04651162790698038,"midi":96,"time":108.76744186046511,"velocity":0.11811023622047244},{"duration":0.023255813953483084,"midi":37,"time":108.80232558139535,"velocity":0.3937007874015748},{"duration":0.12790697674418539,"midi":56,"time":108.80232558139535,"velocity":0.3779527559055118},{"duration":0.023255813953497295,"midi":36,"time":108.82558139534883,"velocity":0.2992125984251969},{"duration":0.06976744186046346,"midi":91,"time":108.82558139534883,"velocity":0.12598425196850394},{"duration":0.04651162790698038,"midi":94,"time":108.83720930232558,"velocity":0.07086614173228346},{"duration":0.04651162790698038,"midi":90,"time":108.86046511627907,"velocity":0.08661417322834646},{"duration":0.06976744186046346,"midi":90,"time":108.94186046511628,"velocity":0.09448818897637795},{"duration":0.03488372093023884,"midi":55,"time":108.95348837209302,"velocity":0.3937007874015748},{"duration":0.06976744186046346,"midi":78,"time":108.95348837209302,"velocity":0.16535433070866143},{"duration":0.1046511627907023,"midi":79,"time":108.95348837209302,"velocity":0.14960629921259844},{"duration":0.05813953488372192,"midi":81,"time":108.95348837209302,"velocity":0.1968503937007874},{"duration":0.04651162790698038,"midi":86,"time":108.95348837209302,"velocity":0.1889763779527559},{"duration":0.04651162790698038,"midi":89,"time":108.95348837209302,"velocity":0.23622047244094488},{"duration":0.09302325581396076,"midi":92,"time":108.95348837209302,"velocity":0.2440944881889764},{"duration":0.06976744186046346,"midi":98,"time":108.95348837209302,"velocity":0.1889763779527559},{"duration":0.13953488372094114,"midi":93,"time":108.96511627906976,"velocity":0.28346456692913385},{"duration":0.06976744186047767,"midi":97,"time":108.96511627906976,"velocity":0.1889763779527559},{"duration":0.03488372093023884,"midi":102,"time":108.96511627906976,"velocity":0.11811023622047244},{"duration":0.081395348837205,"midi":44,"time":108.97674418604652,"velocity":0.3779527559055118},{"duration":0.11627906976742963,"midi":63,"time":108.97674418604652,"velocity":0.23622047244094488},{"duration":0.05813953488372192,"midi":56,"time":108.98837209302326,"velocity":0.6062992125984252},{"duration":0.10465116279068809,"midi":75,"time":108.98837209302326,"velocity":0.23622047244094488},{"duration":0.05813953488372192,"midi":94,"time":108.98837209302326,"velocity":0.14173228346456693},{"duration":0.15116279069768268,"midi":102,"time":109.01162790697674,"velocity":0.2677165354330709},{"duration":0.09302325581396076,"midi":91,"time":109.02325581395348,"velocity":0.2440944881889764},{"duration":0.023255813953483084,"midi":33,"time":109.03488372093024,"velocity":0.28346456692913385},{"duration":0.17441860465116577,"midi":68,"time":109.04651162790698,"velocity":0.29133858267716534},{"duration":0.04651162790696617,"midi":95,"time":109.04651162790698,"velocity":0.28346456692913385},{"duration":0.04651162790698038,"midi":32,"time":109.05813953488372,"velocity":0.28346456692913385},{"duration":0.04651162790698038,"midi":97,"time":109.05813953488372,"velocity":0.1968503937007874},{"duration":0.081395348837205,"midi":99,"time":109.05813953488372,"velocity":0.12598425196850394},{"duration":0.023255813953483084,"midi":55,"time":109.06976744186046,"velocity":0.4330708661417323},{"duration":0.04651162790698038,"midi":86,"time":109.0813953488372,"velocity":0.18110236220472442},{"duration":0.03488372093023884,"midi":100,"time":109.0813953488372,"velocity":0.10236220472440945},{"duration":0.023255813953497295,"midi":45,"time":109.09302325581395,"velocity":0.2992125984251969},{"duration":0.06976744186047767,"midi":56,"time":109.09302325581395,"velocity":0.5669291338582677},{"duration":0.05813953488372192,"midi":77,"time":109.09302325581395,"velocity":0.2047244094488189},{"duration":0.04651162790698038,"midi":81,"time":109.09302325581395,"velocity":0.14960629921259844},{"duration":0.04651162790698038,"midi":84,"time":109.09302325581395,"velocity":0.09448818897637795},{"duration":0.03488372093023884,"midi":89,"time":109.09302325581395,"velocity":0.2204724409448819},{"duration":0.05813953488372192,"midi":92,"time":109.09302325581395,"velocity":0.18110236220472442},{"duration":0.03488372093023884,"midi":94,"time":109.09302325581395,"velocity":0.2204724409448819},{"duration":0.03488372093023884,"midi":96,"time":109.09302325581395,"velocity":0.28346456692913385},{"duration":0.04651162790696617,"midi":66,"time":109.1046511627907,"velocity":0.2047244094488189},{"duration":0.05813953488372192,"midi":79,"time":109.1046511627907,"velocity":0.11023622047244094},{"duration":0.11627906976744384,"midi":44,"time":109.11627906976744,"velocity":0.3543307086614173},{"duration":0.09302325581394655,"midi":63,"time":109.11627906976744,"velocity":0.13385826771653545},{"duration":0.12790697674418539,"midi":75,"time":109.11627906976744,"velocity":0.33070866141732286},{"duration":0.04651162790698038,"midi":70,"time":109.12790697674419,"velocity":0.11023622047244094},{"duration":0.023255813953483084,"midi":33,"time":109.16279069767442,"velocity":0.2677165354330709},{"duration":0.034883720930224626,"midi":51,"time":109.16279069767442,"velocity":0.2440944881889764},{"duration":0.04651162790696617,"midi":57,"time":109.16279069767442,"velocity":0.4015748031496063},{"duration":0.22093023255813193,"midi":92,"time":109.17441860465117,"velocity":0.2047244094488189},{"duration":0.04651162790698038,"midi":32,"time":109.18604651162791,"velocity":0.28346456692913385},{"duration":0.05813953488372192,"midi":99,"time":109.18604651162791,"velocity":0.25196850393700787},{"duration":0.03488372093023884,"midi":51,"time":109.20930232558139,"velocity":0.4094488188976378},{"duration":0.05813953488372192,"midi":78,"time":109.20930232558139,"velocity":0.25196850393700787},{"duration":0.15116279069768268,"midi":91,"time":109.20930232558139,"velocity":0.33070866141732286},{"duration":0.05813953488372192,"midi":96,"time":109.20930232558139,"velocity":0.2125984251968504},{"duration":0.11627906976744384,"midi":97,"time":109.20930232558139,"velocity":0.2283464566929134},{"duration":0.05813953488372192,"midi":98,"time":109.20930232558139,"velocity":0.23622047244094488},{"duration":0.05813953488372192,"midi":102,"time":109.20930232558139,"velocity":0.28346456692913385},{"duration":0.023255813953483084,"midi":59,"time":109.22093023255815,"velocity":0.4330708661417323},{"duration":0.04651162790696617,"midi":72,"time":109.22093023255815,"velocity":0.4645669291338583},{"duration":0.034883720930224626,"midi":86,"time":109.22093023255815,"velocity":0.1968503937007874},{"duration":0.034883720930224626,"midi":88,"time":109.22093023255815,"velocity":0.33070866141732286},{"duration":0.034883720930224626,"midi":93,"time":109.22093023255815,"velocity":0.07086614173228346},{"duration":0.4534883720930196,"midi":94,"time":109.22093023255815,"velocity":0.3543307086614173},{"duration":0.11627906976742963,"midi":95,"time":109.22093023255815,"velocity":0.28346456692913385},{"duration":0.05813953488370771,"midi":101,"time":109.22093023255815,"velocity":0.1968503937007874},{"duration":0.011627906976741542,"midi":48,"time":109.24418604651163,"velocity":0.5275590551181102},{"duration":0.011627906976741542,"midi":45,"time":109.25581395348837,"velocity":0.5984251968503937},{"duration":0.023255813953483084,"midi":61,"time":109.25581395348837,"velocity":0.33070866141732286},{"duration":0.03488372093023884,"midi":85,"time":109.25581395348837,"velocity":0.4094488188976378},{"duration":0.09302325581396076,"midi":89,"time":109.25581395348837,"velocity":0.3858267716535433},{"duration":0.05813953488372192,"midi":99,"time":109.25581395348837,"velocity":0.2047244094488189},{"duration":0.011627906976741542,"midi":43,"time":109.26744186046511,"velocity":0.5905511811023622},{"duration":0.05813953488372192,"midi":76,"time":109.26744186046511,"velocity":0.29133858267716534},{"duration":0.11627906976744384,"midi":81,"time":109.26744186046511,"velocity":0.3700787401574803},{"duration":0.023255813953497295,"midi":42,"time":109.27906976744185,"velocity":0.5748031496062992},{"duration":0.13953488372094114,"midi":60,"time":109.27906976744185,"velocity":0.31496062992125984},{"duration":0.06976744186047767,"midi":74,"time":109.27906976744185,"velocity":0.5511811023622047},{"duration":0.11627906976744384,"midi":102,"time":109.27906976744185,"velocity":0.3937007874015748},{"duration":0.05813953488372192,"midi":63,"time":109.29069767441861,"velocity":0.29133858267716534},{"duration":0.15116279069766847,"midi":96,"time":109.29069767441861,"velocity":0.4015748031496063},{"duration":0.03488372093023884,"midi":56,"time":109.31395348837209,"velocity":0.2992125984251969},{"duration":0.03488372093023884,"midi":83,"time":109.31395348837209,"velocity":0.16535433070866143},{"duration":0.06976744186046346,"midi":79,"time":109.32558139534883,"velocity":0.07874015748031496},{"duration":0.05813953488372192,"midi":90,"time":109.32558139534883,"velocity":0.4409448818897638},{"duration":0.03488372093023884,"midi":48,"time":109.33720930232558,"velocity":0.16535433070866143},{"duration":0.40697674418605345,"midi":68,"time":109.33720930232558,"velocity":0.33070866141732286},{"duration":0.023255813953483084,"midi":73,"time":109.34883720930233,"velocity":0.31496062992125984},{"duration":0.5697674418604635,"midi":75,"time":109.34883720930233,"velocity":0.6062992125984252},{"duration":0.023255813953483084,"midi":38,"time":109.36046511627907,"velocity":0.2440944881889764},{"duration":0.05813953488372192,"midi":56,"time":109.37209302325581,"velocity":0.29133858267716534},{"duration":0.03488372093023884,"midi":72,"time":109.37209302325581,"velocity":0.36220472440944884},{"duration":0.16279069767442422,"midi":82,"time":109.37209302325581,"velocity":0.31496062992125984},{"duration":0.40697674418603924,"midi":91,"time":109.37209302325581,"velocity":0.48031496062992124},{"duration":0.13953488372092693,"midi":97,"time":109.37209302325581,"velocity":0.33070866141732286},{"duration":0.17441860465116577,"midi":63,"time":109.38372093023256,"velocity":0.31496062992125984},{"duration":0.08139534883721922,"midi":101,"time":109.3953488372093,"velocity":0.23622047244094488},{"duration":0.034883720930224626,"midi":86,"time":109.40697674418605,"velocity":0.12598425196850394},{"duration":0.16279069767441,"midi":102,"time":109.40697674418605,"velocity":0.16535433070866143},{"duration":0.3488372093023173,"midi":72,"time":109.4186046511628,"velocity":0.3543307086614173},{"duration":0.023255813953483084,"midi":57,"time":109.43023255813954,"velocity":0.2283464566929134},{"duration":0.081395348837205,"midi":89,"time":109.44186046511628,"velocity":0.16535433070866143},{"duration":0.03488372093023884,"midi":61,"time":109.45348837209302,"velocity":0.16535433070866143},{"duration":0.05813953488372192,"midi":86,"time":109.45348837209302,"velocity":0.2047244094488189},{"duration":0.12790697674418539,"midi":60,"time":109.48837209302326,"velocity":0.30708661417322836},{"duration":0.04651162790698038,"midi":78,"time":109.5,"velocity":0.14960629921259844},{"duration":0.1046511627907023,"midi":101,"time":109.51162790697674,"velocity":0.2283464566929134},{"duration":0.023255813953497295,"midi":40,"time":109.52325581395348,"velocity":0.3228346456692913},{"duration":0.06976744186046346,"midi":48,"time":109.52325581395348,"velocity":0.25984251968503935},{"duration":0.04651162790698038,"midi":90,"time":109.52325581395348,"velocity":0.2125984251968504},{"duration":0.32558139534884845,"midi":92,"time":109.52325581395348,"velocity":0.3779527559055118},{"duration":0.12790697674418539,"midi":97,"time":109.52325581395348,"velocity":0.2047244094488189},{"duration":0.05813953488372192,"midi":82,"time":109.55813953488372,"velocity":0.14960629921259844},{"duration":0.03488372093023884,"midi":30,"time":109.59302325581395,"velocity":0.2283464566929134},{"duration":0.04651162790698038,"midi":56,"time":109.59302325581395,"velocity":0.3228346456692913},{"duration":0.06976744186047767,"midi":90,"time":109.59302325581395,"velocity":0.11811023622047244},{"duration":0.05813953488372192,"midi":78,"time":109.61627906976744,"velocity":0.25196850393700787},{"duration":0.034883720930224626,"midi":83,"time":109.61627906976744,"velocity":0.2204724409448819},{"duration":0.04651162790698038,"midi":65,"time":109.62790697674419,"velocity":0.14960629921259844},{"duration":0.04651162790698038,"midi":86,"time":109.62790697674419,"velocity":0.2125984251968504},{"duration":0.023255813953497295,"midi":56,"time":109.65116279069767,"velocity":0.3228346456692913},{"duration":0.2093023255814046,"midi":82,"time":109.65116279069767,"velocity":0.1968503937007874},{"duration":0.023255813953483084,"midi":40,"time":109.66279069767442,"velocity":0.36220472440944884},{"duration":0.06976744186046346,"midi":60,"time":109.67441860465117,"velocity":0.2992125984251969},{"duration":0.034883720930224626,"midi":63,"time":109.67441860465117,"velocity":0.1732283464566929},{"duration":0.2674418604651123,"midi":102,"time":109.69767441860465,"velocity":0.3700787401574803},{"duration":0.04651162790698038,"midi":41,"time":109.70930232558139,"velocity":0.2677165354330709},{"duration":0.03488372093023884,"midi":48,"time":109.70930232558139,"velocity":0.25984251968503935},{"duration":0.16279069767442422,"midi":100,"time":109.70930232558139,"velocity":0.18110236220472442},{"duration":0.023255813953483084,"midi":56,"time":109.72093023255815,"velocity":0.28346456692913385},{"duration":0.034883720930224626,"midi":30,"time":109.73255813953489,"velocity":0.2125984251968504},{"duration":0.32558139534883423,"midi":101,"time":109.73255813953489,"velocity":0.23622047244094488},{"duration":0.023255813953483084,"midi":63,"time":109.74418604651163,"velocity":0.4645669291338583},{"duration":0.06976744186046346,"midi":90,"time":109.74418604651163,"velocity":0.2440944881889764},{"duration":0.13953488372092693,"midi":95,"time":109.74418604651163,"velocity":0.4015748031496063},{"duration":0.11627906976744384,"midi":97,"time":109.74418604651163,"velocity":0.2440944881889764},{"duration":0.12790697674418539,"midi":98,"time":109.74418604651163,"velocity":0.1968503937007874},{"duration":0.09302325581396076,"midi":66,"time":109.75581395348837,"velocity":0.33858267716535434},{"duration":0.04651162790698038,"midi":68,"time":109.75581395348837,"velocity":0.2677165354330709},{"duration":0.03488372093023884,"midi":73,"time":109.75581395348837,"velocity":0.2992125984251969},{"duration":0.04651162790698038,"midi":89,"time":109.75581395348837,"velocity":0.2125984251968504},{"duration":0.15116279069768268,"midi":96,"time":109.75581395348837,"velocity":0.2677165354330709},{"duration":0.03488372093023884,"midi":62,"time":109.76744186046511,"velocity":0.47244094488188976},{"duration":0.04651162790698038,"midi":83,"time":109.76744186046511,"velocity":0.11023622047244094},{"duration":0.05813953488372192,"midi":88,"time":109.76744186046511,"velocity":0.14173228346456693},{"duration":0.011627906976755753,"midi":45,"time":109.77906976744185,"velocity":0.5590551181102362},{"duration":0.04651162790698038,"midi":86,"time":109.77906976744185,"velocity":0.2204724409448819},{"duration":0.023255813953497295,"midi":93,"time":109.77906976744185,"velocity":0.2440944881889764},{"duration":0.011627906976741542,"midi":44,"time":109.79069767441861,"velocity":0.5826771653543307},{"duration":0.023255813953483084,"midi":72,"time":109.79069767441861,"velocity":0.2440944881889764},{"duration":0.011627906976741542,"midi":43,"time":109.80232558139535,"velocity":0.5511811023622047},{"duration":0.034883720930224626,"midi":61,"time":109.80232558139535,"velocity":0.4251968503937008},{"duration":0.011627906976741542,"midi":42,"time":109.81395348837209,"velocity":0.5196850393700787},{"duration":0.03488372093023884,"midi":84,"time":109.81395348837209,"velocity":0.16535433070866143},{"duration":0.4534883720930196,"midi":89,"time":109.81395348837209,"velocity":0.5196850393700787},{"duration":0.023255813953497295,"midi":52,"time":109.82558139534883,"velocity":0.25984251968503935},{"duration":0.023255813953497295,"midi":73,"time":109.82558139534883,"velocity":0.4330708661417323},{"duration":0.023255813953497295,"midi":62,"time":109.83720930232558,"velocity":0.33858267716535434},{"duration":0.12790697674418539,"midi":68,"time":109.83720930232558,"velocity":0.3779527559055118},{"duration":0.16279069767442422,"midi":91,"time":109.83720930232558,"velocity":0.5039370078740157},{"duration":0.06976744186047767,"midi":94,"time":109.83720930232558,"velocity":0.41732283464566927},{"duration":0.05813953488372192,"midi":72,"time":109.84883720930233,"velocity":0.47244094488188976},{"duration":0.034883720930224626,"midi":85,"time":109.84883720930233,"velocity":0.14960629921259844},{"duration":0.034883720930224626,"midi":90,"time":109.84883720930233,"velocity":0.12598425196850394},{"duration":0.023255813953483084,"midi":37,"time":109.86046511627907,"velocity":0.3543307086614173},{"duration":0.034883720930224626,"midi":56,"time":109.86046511627907,"velocity":0.2677165354330709},{"duration":0.05813953488372192,"midi":61,"time":109.86046511627907,"velocity":0.41732283464566927},{"duration":0.05813953488372192,"midi":64,"time":109.87209302325581,"velocity":0.30708661417322836},{"duration":0.05813953488372192,"midi":97,"time":109.87209302325581,"velocity":0.1732283464566929},{"duration":0.03488372093023884,"midi":99,"time":109.87209302325581,"velocity":0.08661417322834646},{"duration":0.023255813953497295,"midi":36,"time":109.88372093023256,"velocity":0.25196850393700787},{"duration":0.16279069767442422,"midi":92,"time":109.88372093023256,"velocity":0.4566929133858268},{"duration":0.09302325581396076,"midi":48,"time":109.8953488372093,"velocity":0.2992125984251969},{"duration":0.06976744186046346,"midi":78,"time":109.8953488372093,"velocity":0.1889763779527559},{"duration":0.03488372093023884,"midi":82,"time":109.8953488372093,"velocity":0.13385826771653545},{"duration":0.03488372093023884,"midi":83,"time":109.8953488372093,"velocity":0.10236220472440945},{"duration":0.023255813953483084,"midi":40,"time":109.90697674418605,"velocity":0.25984251968503935},{"duration":0.15116279069766847,"midi":95,"time":109.90697674418605,"velocity":0.5511811023622047},{"duration":0.023255813953483084,"midi":55,"time":109.9186046511628,"velocity":0.2992125984251969},{"duration":0.034883720930224626,"midi":72,"time":109.9186046511628,"velocity":0.2204724409448819},{"duration":0.04651162790696617,"midi":93,"time":109.9186046511628,"velocity":0.1968503937007874},{"duration":0.034883720930224626,"midi":65,"time":109.93023255813954,"velocity":0.2283464566929134},{"duration":0.034883720930224626,"midi":74,"time":109.93023255813954,"velocity":0.2992125984251969},{"duration":0.04651162790698038,"midi":94,"time":109.93023255813954,"velocity":0.2204724409448819},{"duration":0.06976744186046346,"midi":61,"time":109.94186046511628,"velocity":0.4645669291338583},{"duration":0.06976744186046346,"midi":36,"time":109.95348837209302,"velocity":0.33070866141732286},{"duration":0.06976744186046346,"midi":75,"time":109.95348837209302,"velocity":0.2992125984251969},{"duration":0.034883720930224626,"midi":68,"time":109.97674418604652,"velocity":0.1732283464566929},{"duration":0.081395348837205,"midi":93,"time":109.98837209302326,"velocity":0.1732283464566929},{"duration":0.081395348837205,"midi":94,"time":109.98837209302326,"velocity":0.44881889763779526},{"duration":0.11627906976744384,"midi":102,"time":109.98837209302326,"velocity":0.2992125984251969},{"duration":0.04651162790698038,"midi":65,"time":110,"velocity":0.3228346456692913},{"duration":0.06976744186046346,"midi":72,"time":110,"velocity":0.47244094488188976},{"duration":0.03488372093023884,"midi":90,"time":110,"velocity":0.14173228346456693},{"duration":0.03488372093023884,"midi":60,"time":110.01162790697674,"velocity":0.4881889763779528},{"duration":0.03488372093023884,"midi":83,"time":110.01162790697674,"velocity":0.1732283464566929},{"duration":0.05813953488372192,"midi":91,"time":110.01162790697674,"velocity":0.30708661417322836},{"duration":0.11627906976744384,"midi":68,"time":110.02325581395348,"velocity":0.3464566929133858},{"duration":0.19767441860466306,"midi":87,"time":110.02325581395348,"velocity":0.15748031496062992},{"duration":0.06976744186046346,"midi":88,"time":110.02325581395348,"velocity":0.4566929133858268},{"duration":0.023255813953483084,"midi":45,"time":110.03488372093024,"velocity":0.3464566929133858},{"duration":0.04651162790696617,"midi":75,"time":110.03488372093024,"velocity":0.30708661417322836},{"duration":0.04651162790696617,"midi":79,"time":110.03488372093024,"velocity":0.2047244094488189},{"duration":0.06976744186046346,"midi":53,"time":110.04651162790698,"velocity":0.2755905511811024},{"duration":0.05813953488372192,"midi":61,"time":110.04651162790698,"velocity":0.47244094488188976},{"duration":0.09302325581394655,"midi":46,"time":110.05813953488372,"velocity":0.2677165354330709},{"duration":0.034883720930224626,"midi":85,"time":110.05813953488372,"velocity":0.2125984251968504},{"duration":0.15116279069766847,"midi":92,"time":110.05813953488372,"velocity":0.3228346456692913},{"duration":0.16279069767442422,"midi":95,"time":110.06976744186046,"velocity":0.4409448818897638},{"duration":0.023255813953497295,"midi":35,"time":110.0813953488372,"velocity":0.30708661417322836},{"duration":0.04651162790698038,"midi":74,"time":110.09302325581395,"velocity":0.4645669291338583},{"duration":0.04651162790698038,"midi":81,"time":110.09302325581395,"velocity":0.2283464566929134},{"duration":0.04651162790698038,"midi":84,"time":110.09302325581395,"velocity":0.08661417322834646},{"duration":0.06976744186046346,"midi":34,"time":110.1046511627907,"velocity":0.30708661417322836},{"duration":0.034883720930224626,"midi":62,"time":110.1046511627907,"velocity":0.4566929133858268},{"duration":0.04651162790696617,"midi":66,"time":110.1046511627907,"velocity":0.36220472440944884},{"duration":0.16279069767441,"midi":85,"time":110.1046511627907,"velocity":0.3779527559055118},{"duration":0.05813953488372192,"midi":93,"time":110.1046511627907,"velocity":0.2440944881889764},{"duration":0.12790697674418539,"midi":102,"time":110.11627906976744,"velocity":0.2992125984251969},{"duration":0.19767441860464885,"midi":77,"time":110.12790697674419,"velocity":0.31496062992125984},{"duration":0.05813953488372192,"midi":61,"time":110.13953488372093,"velocity":0.3700787401574803},{"duration":0.03488372093023884,"midi":75,"time":110.13953488372093,"velocity":0.2755905511811024},{"duration":0.08139534883721922,"midi":65,"time":110.15116279069767,"velocity":0.29133858267716534},{"duration":0.09302325581396076,"midi":68,"time":110.15116279069767,"velocity":0.29133858267716534},{"duration":0.10465116279068809,"midi":56,"time":110.16279069767442,"velocity":0.23622047244094488},{"duration":0.11627906976742963,"midi":73,"time":110.16279069767442,"velocity":0.5118110236220472},{"duration":0.081395348837205,"midi":91,"time":110.16279069767442,"velocity":0.23622047244094488},{"duration":0.04651162790698038,"midi":93,"time":110.17441860465117,"velocity":0.15748031496062992},{"duration":0.03488372093023884,"midi":75,"time":110.18604651162791,"velocity":0.14173228346456693},{"duration":0.023255813953483084,"midi":60,"time":110.22093023255815,"velocity":0.3543307086614173},{"duration":0.05813953488370771,"midi":86,"time":110.22093023255815,"velocity":0.28346456692913385},{"duration":0.06976744186046346,"midi":88,"time":110.22093023255815,"velocity":0.25196850393700787},{"duration":0.034883720930224626,"midi":96,"time":110.22093023255815,"velocity":0.09448818897637795},{"duration":0.04651162790696617,"midi":75,"time":110.23255813953489,"velocity":0.09448818897637795},{"duration":0.09302325581394655,"midi":84,"time":110.23255813953489,"velocity":0.2125984251968504},{"duration":0.06976744186046346,"midi":92,"time":110.23255813953489,"velocity":0.23622047244094488},{"duration":0.05813953488372192,"midi":61,"time":110.24418604651163,"velocity":0.4409448818897638},{"duration":0.1046511627907023,"midi":93,"time":110.24418604651163,"velocity":0.1732283464566929},{"duration":0.023255813953497295,"midi":65,"time":110.26744186046511,"velocity":0.25984251968503935},{"duration":0.04651162790698038,"midi":95,"time":110.26744186046511,"velocity":0.15748031496062992},{"duration":0.13953488372094114,"midi":85,"time":110.27906976744185,"velocity":0.2204724409448819},{"duration":0.03488372093023884,"midi":102,"time":110.27906976744185,"velocity":0.14173228346456693},{"duration":0.023255813953483084,"midi":66,"time":110.29069767441861,"velocity":0.2677165354330709},{"duration":0.011627906976741542,"midi":46,"time":110.30232558139535,"velocity":0.5748031496062992},{"duration":0.034883720930224626,"midi":62,"time":110.30232558139535,"velocity":0.41732283464566927},{"duration":0.034883720930224626,"midi":68,"time":110.30232558139535,"velocity":0.14960629921259844},{"duration":0.011627906976741542,"midi":45,"time":110.31395348837209,"velocity":0.6299212598425197},{"duration":0.011627906976741542,"midi":44,"time":110.32558139534883,"velocity":0.6062992125984252},{"duration":0.04651162790698038,"midi":103,"time":110.32558139534883,"velocity":0.07874015748031496},{"duration":0.023255813953497295,"midi":42,"time":110.33720930232558,"velocity":0.5826771653543307},{"duration":0.03488372093023884,"midi":61,"time":110.33720930232558,"velocity":0.3937007874015748},{"duration":0.023255813953497295,"midi":67,"time":110.33720930232558,"velocity":0.2440944881889764},{"duration":0.06976744186047767,"midi":95,"time":110.33720930232558,"velocity":0.18110236220472442},{"duration":0.04651162790696617,"midi":68,"time":110.34883720930233,"velocity":0.28346456692913385},{"duration":0.7209302325581319,"midi":92,"time":110.34883720930233,"velocity":0.33858267716535434},{"duration":0.034883720930224626,"midi":74,"time":110.36046511627907,"velocity":0.29133858267716534},{"duration":0.04651162790698038,"midi":65,"time":110.37209302325581,"velocity":0.31496062992125984},{"duration":0.03488372093023884,"midi":91,"time":110.37209302325581,"velocity":0.2440944881889764},{"duration":0.06976744186046346,"midi":61,"time":110.3953488372093,"velocity":0.33070866141732286},{"duration":0.5348837209302388,"midi":73,"time":110.3953488372093,"velocity":0.4330708661417323},{"duration":0.04651162790696617,"midi":36,"time":110.40697674418605,"velocity":0.33858267716535434},{"duration":0.04651162790696617,"midi":89,"time":110.4186046511628,"velocity":0.1732283464566929},{"duration":0.09302325581394655,"midi":95,"time":110.4186046511628,"velocity":0.25196850393700787},{"duration":0.06976744186046346,"midi":75,"time":110.43023255813954,"velocity":0.1968503937007874},{"duration":0.15116279069766847,"midi":65,"time":110.44186046511628,"velocity":0.25984251968503935},{"duration":0.13953488372092693,"midi":68,"time":110.44186046511628,"velocity":0.2755905511811024},{"duration":0.04651162790698038,"midi":84,"time":110.46511627906976,"velocity":0.11023622047244094},{"duration":0.034883720930224626,"midi":61,"time":110.47674418604652,"velocity":0.2992125984251969},{"duration":0.06976744186046346,"midi":77,"time":110.47674418604652,"velocity":0.2677165354330709},{"duration":0.2093023255813904,"midi":80,"time":110.47674418604652,"velocity":0.3228346456692913},{"duration":0.03488372093023884,"midi":75,"time":110.51162790697674,"velocity":0.2204724409448819},{"duration":0.11627906976744384,"midi":94,"time":110.51162790697674,"velocity":0.14173228346456693},{"duration":0.034883720930224626,"midi":78,"time":110.53488372093024,"velocity":0.29133858267716534},{"duration":0.05813953488370771,"midi":81,"time":110.53488372093024,"velocity":0.25984251968503935},{"duration":0.081395348837205,"midi":86,"time":110.53488372093024,"velocity":0.23622047244094488},{"duration":0.04651162790696617,"midi":88,"time":110.53488372093024,"velocity":0.23622047244094488},{"duration":0.04651162790696617,"midi":91,"time":110.53488372093024,"velocity":0.16535433070866143},{"duration":0.023255813953483084,"midi":44,"time":110.54651162790698,"velocity":0.3464566929133858},{"duration":0.023255813953483084,"midi":52,"time":110.54651162790698,"velocity":0.28346456692913385},{"duration":0.023255813953483084,"midi":61,"time":110.54651162790698,"velocity":0.4330708661417323},{"duration":0.081395348837205,"midi":84,"time":110.54651162790698,"velocity":0.2125984251968504},{"duration":0.12790697674418539,"midi":99,"time":110.54651162790698,"velocity":0.2677165354330709},{"duration":0.4418604651162781,"midi":77,"time":110.55813953488372,"velocity":0.3464566929133858},{"duration":0.19767441860464885,"midi":87,"time":110.55813953488372,"velocity":0.2677165354330709},{"duration":0.081395348837205,"midi":102,"time":110.55813953488372,"velocity":0.14960629921259844},{"duration":0.05813953488372192,"midi":51,"time":110.56976744186046,"velocity":0.33858267716535434},{"duration":0.1046511627907023,"midi":60,"time":110.56976744186046,"velocity":0.4566929133858268},{"duration":0.03488372093023884,"midi":70,"time":110.56976744186046,"velocity":0.10236220472440945},{"duration":0.1046511627907023,"midi":75,"time":110.56976744186046,"velocity":0.25984251968503935},{"duration":0.08139534883721922,"midi":44,"time":110.5813953488372,"velocity":0.36220472440944884},{"duration":0.08139534883721922,"midi":68,"time":110.59302325581395,"velocity":0.28346456692913385},{"duration":0.05813953488372192,"midi":66,"time":110.61627906976744,"velocity":0.30708661417322836},{"duration":0.03488372093023884,"midi":52,"time":110.62790697674419,"velocity":0.36220472440944884},{"duration":0.1046511627907023,"midi":32,"time":110.63953488372093,"velocity":0.3700787401574803},{"duration":0.04651162790696617,"midi":58,"time":110.66279069767442,"velocity":0.3858267716535433},{"duration":0.034883720930224626,"midi":67,"time":110.67441860465117,"velocity":0.25984251968503935},{"duration":0.034883720930224626,"midi":91,"time":110.67441860465117,"velocity":0.12598425196850394},{"duration":0.05813953488372192,"midi":102,"time":110.67441860465117,"velocity":0.09448818897637795},{"duration":0.06976744186046346,"midi":75,"time":110.68604651162791,"velocity":0.1968503937007874},{"duration":0.04651162790698038,"midi":84,"time":110.68604651162791,"velocity":0.13385826771653545},{"duration":0.15116279069768268,"midi":80,"time":110.69767441860465,"velocity":0.25196850393700787},{"duration":0.05813953488372192,"midi":61,"time":110.70930232558139,"velocity":0.3228346456692913},{"duration":0.11627906976744384,"midi":68,"time":110.70930232558139,"velocity":0.4881889763779528},{"duration":0.034883720930224626,"midi":65,"time":110.74418604651163,"velocity":0.1889763779527559},{"duration":0.023255813953497295,"midi":51,"time":110.76744186046511,"velocity":0.25196850393700787},{"duration":0.023255813953497295,"midi":61,"time":110.77906976744185,"velocity":0.3228346456692913},{"duration":0.023255813953483084,"midi":75,"time":110.79069767441861,"velocity":0.2283464566929134},{"duration":0.05813953488372192,"midi":84,"time":110.79069767441861,"velocity":0.2047244094488189},{"duration":0.25581395348837077,"midi":99,"time":110.79069767441861,"velocity":0.2677165354330709},{"duration":0.081395348837205,"midi":100,"time":110.79069767441861,"velocity":0.1968503937007874},{"duration":0.034883720930224626,"midi":62,"time":110.80232558139535,"velocity":0.4251968503937008},{"duration":0.13953488372092693,"midi":82,"time":110.80232558139535,"velocity":0.3858267716535433},{"duration":0.034883720930224626,"midi":83,"time":110.80232558139535,"velocity":0.2204724409448819},{"duration":0.11627906976744384,"midi":89,"time":110.80232558139535,"velocity":0.36220472440944884},{"duration":0.034883720930224626,"midi":91,"time":110.80232558139535,"velocity":0.33858267716535434},{"duration":0.06976744186046346,"midi":93,"time":110.80232558139535,"velocity":0.2204724409448819},{"duration":0.1860465116279073,"midi":96,"time":110.80232558139535,"velocity":0.2204724409448819},{"duration":0.9767441860465027,"midi":97,"time":110.80232558139535,"velocity":0.3464566929133858},{"duration":0.16279069767441,"midi":98,"time":110.80232558139535,"velocity":0.2992125984251969},{"duration":0.66279069767441,"midi":102,"time":110.80232558139535,"velocity":0.33070866141732286},{"duration":0.05813953488372192,"midi":79,"time":110.81395348837209,"velocity":0.2440944881889764},{"duration":0.05813953488372192,"midi":86,"time":110.81395348837209,"velocity":0.2047244094488189},{"duration":0.05813953488372192,"midi":88,"time":110.81395348837209,"velocity":0.2440944881889764},{"duration":0.06976744186046346,"midi":95,"time":110.81395348837209,"velocity":0.2440944881889764},{"duration":0.023255813953497295,"midi":45,"time":110.82558139534883,"velocity":0.5669291338582677},{"duration":0.023255813953497295,"midi":71,"time":110.82558139534883,"velocity":0.2677165354330709},{"duration":0.11627906976744384,"midi":90,"time":110.82558139534883,"velocity":0.3700787401574803},{"duration":0.03488372093023884,"midi":76,"time":110.83720930232558,"velocity":0.3937007874015748},{"duration":0.011627906976741542,"midi":44,"time":110.84883720930233,"velocity":0.5826771653543307},{"duration":0.05813953488372192,"midi":61,"time":110.84883720930233,"velocity":0.2047244094488189},{"duration":0.12790697674418539,"midi":68,"time":110.84883720930233,"velocity":0.4094488188976378},{"duration":0.011627906976741542,"midi":43,"time":110.86046511627907,"velocity":0.5748031496062992},{"duration":0.06976744186046346,"midi":56,"time":110.86046511627907,"velocity":0.48031496062992124},{"duration":0.06976744186046346,"midi":87,"time":110.86046511627907,"velocity":0.1889763779527559},{"duration":0.03488372093023884,"midi":41,"time":110.87209302325581,"velocity":0.5275590551181102},{"duration":0.06976744186046346,"midi":65,"time":110.87209302325581,"velocity":0.15748031496062992},{"duration":0.081395348837205,"midi":75,"time":110.87209302325581,"velocity":0.4566929133858268},{"duration":0.11627906976744384,"midi":84,"time":110.87209302325581,"velocity":0.25196850393700787},{"duration":0.05813953488372192,"midi":88,"time":110.8953488372093,"velocity":0.2125984251968504},{"duration":0.04651162790696617,"midi":86,"time":110.90697674418605,"velocity":0.3464566929133858},{"duration":0.023255813953483084,"midi":37,"time":110.9186046511628,"velocity":0.2283464566929134},{"duration":0.023255813953483084,"midi":57,"time":110.93023255813954,"velocity":0.36220472440944884},{"duration":0.023255813953483084,"midi":70,"time":110.93023255813954,"velocity":0.3700787401574803},{"duration":0.023255813953483084,"midi":44,"time":110.94186046511628,"velocity":0.2755905511811024},{"duration":0.023255813953483084,"midi":72,"time":110.94186046511628,"velocity":0.33070866141732286},{"duration":0.03488372093023884,"midi":81,"time":110.94186046511628,"velocity":0.2440944881889764},{"duration":0.04651162790698038,"midi":83,"time":110.94186046511628,"velocity":0.3700787401574803},{"duration":0.04651162790698038,"midi":56,"time":110.95348837209302,"velocity":0.4409448818897638},{"duration":0.03488372093023884,"midi":71,"time":110.95348837209302,"velocity":0.41732283464566927},{"duration":0.03488372093023884,"midi":78,"time":110.95348837209302,"velocity":0.2440944881889764},{"duration":0.05813953488372192,"midi":87,"time":110.95348837209302,"velocity":0.3858267716535433},{"duration":0.04651162790698038,"midi":51,"time":110.96511627906976,"velocity":0.30708661417322836},{"duration":0.05813953488372192,"midi":66,"time":110.96511627906976,"velocity":0.2125984251968504},{"duration":0.1046511627907023,"midi":73,"time":110.96511627906976,"velocity":0.4015748031496063},{"duration":0.10465116279068809,"midi":44,"time":110.97674418604652,"velocity":0.3228346456692913},{"duration":0.034883720930224626,"midi":98,"time":110.97674418604652,"velocity":0.18110236220472442},{"duration":0.034883720930224626,"midi":60,"time":110.98837209302326,"velocity":0.33858267716535434},{"duration":0.09302325581394655,"midi":70,"time":110.98837209302326,"velocity":0.4881889763779528},{"duration":0.06976744186046346,"midi":75,"time":110.98837209302326,"velocity":0.23622047244094488},{"duration":0.3139534883720927,"midi":85,"time":110.98837209302326,"velocity":0.5905511811023622},{"duration":0.03488372093023884,"midi":78,"time":111,"velocity":0.23622047244094488},{"duration":0.1046511627907023,"midi":90,"time":111,"velocity":0.23622047244094488},{"duration":0.13953488372092693,"midi":96,"time":111,"velocity":0.2755905511811024},{"duration":0.03488372093023884,"midi":103,"time":111,"velocity":0.10236220472440945},{"duration":0.023255813953497295,"midi":33,"time":111.01162790697674,"velocity":0.31496062992125984},{"duration":0.05813953488372192,"midi":68,"time":111.01162790697674,"velocity":0.2755905511811024},{"duration":0.1046511627907023,"midi":89,"time":111.01162790697674,"velocity":0.29133858267716534},{"duration":0.06976744186046346,"midi":51,"time":111.02325581395348,"velocity":0.31496062992125984},{"duration":0.09302325581394655,"midi":32,"time":111.03488372093024,"velocity":0.3543307086614173},{"duration":0.034883720930224626,"midi":57,"time":111.03488372093024,"velocity":0.3937007874015748},{"duration":0.034883720930224626,"midi":66,"time":111.03488372093024,"velocity":0.30708661417322836},{"duration":0.2674418604651123,"midi":100,"time":111.03488372093024,"velocity":0.36220472440944884},{"duration":0.034883720930224626,"midi":76,"time":111.04651162790698,"velocity":0.2755905511811024},{"duration":0.03488372093023884,"midi":60,"time":111.06976744186046,"velocity":0.3543307086614173},{"duration":0.06976744186046346,"midi":77,"time":111.06976744186046,"velocity":0.13385826771653545},{"duration":0.09302325581396076,"midi":80,"time":111.06976744186046,"velocity":0.29133858267716534},{"duration":0.03488372093023884,"midi":91,"time":111.06976744186046,"velocity":0.07086614173228346},{"duration":0.081395348837205,"midi":94,"time":111.06976744186046,"velocity":0.2125984251968504},{"duration":0.03488372093023884,"midi":66,"time":111.0813953488372,"velocity":0.1968503937007874},{"duration":0.12790697674418539,"midi":99,"time":111.0813953488372,"velocity":0.23622047244094488},{"duration":0.03488372093023884,"midi":74,"time":111.09302325581395,"velocity":0.29133858267716534},{"duration":0.03488372093023884,"midi":76,"time":111.09302325581395,"velocity":0.16535433070866143},{"duration":0.06976744186046346,"midi":68,"time":111.1046511627907,"velocity":0.25196850393700787},{"duration":0.04651162790696617,"midi":70,"time":111.1046511627907,"velocity":0.2677165354330709},{"duration":0.12790697674418539,"midi":103,"time":111.1046511627907,"velocity":0.29133858267716534},{"duration":0.023255813953483084,"midi":73,"time":111.12790697674419,"velocity":0.4251968503937008},{"duration":0.2325581395348877,"midi":92,"time":111.12790697674419,"velocity":0.4015748031496063},{"duration":0.03488372093023884,"midi":60,"time":111.13953488372093,"velocity":0.3543307086614173},{"duration":0.06976744186046346,"midi":78,"time":111.13953488372093,"velocity":0.23622047244094488},{"duration":0.1046511627907023,"midi":89,"time":111.13953488372093,"velocity":0.30708661417322836},{"duration":0.03488372093023884,"midi":98,"time":111.13953488372093,"velocity":0.11811023622047244},{"duration":0.03488372093023884,"midi":72,"time":111.15116279069767,"velocity":0.44881889763779526},{"duration":0.04651162790696617,"midi":65,"time":111.16279069767442,"velocity":0.2755905511811024},{"duration":0.04651162790698038,"midi":59,"time":111.17441860465117,"velocity":0.4645669291338583},{"duration":0.12790697674418539,"midi":70,"time":111.17441860465117,"velocity":0.5118110236220472},{"duration":0.034883720930224626,"midi":87,"time":111.17441860465117,"velocity":0.25984251968503935},{"duration":0.4534883720930196,"midi":95,"time":111.17441860465117,"velocity":0.3228346456692913},{"duration":0.03488372093023884,"midi":91,"time":111.19767441860465,"velocity":0.2125984251968504},{"duration":0.023255813953497295,"midi":48,"time":111.20930232558139,"velocity":0.33070866141732286},{"duration":0.05813953488372192,"midi":73,"time":111.20930232558139,"velocity":0.31496062992125984},{"duration":0.05813953488372192,"midi":77,"time":111.20930232558139,"velocity":0.2992125984251969},{"duration":0.08139534883721922,"midi":79,"time":111.20930232558139,"velocity":0.2283464566929134},{"duration":0.6046511627907023,"midi":96,"time":111.20930232558139,"velocity":0.5039370078740157},{"duration":0.04651162790698038,"midi":98,"time":111.20930232558139,"velocity":0.2125984251968504},{"duration":0.023255813953483084,"midi":58,"time":111.22093023255815,"velocity":0.4015748031496063},{"duration":0.06976744186046346,"midi":88,"time":111.22093023255815,"velocity":0.1889763779527559},{"duration":0.081395348837205,"midi":99,"time":111.22093023255815,"velocity":0.13385826771653545},{"duration":0.06976744186046346,"midi":49,"time":111.23255813953489,"velocity":0.28346456692913385},{"duration":0.06976744186046346,"midi":66,"time":111.23255813953489,"velocity":0.3228346456692913},{"duration":0.10465116279068809,"midi":80,"time":111.23255813953489,"velocity":0.1968503937007874},{"duration":0.05813953488372192,"midi":83,"time":111.23255813953489,"velocity":0.2755905511811024},{"duration":0.05813953488372192,"midi":87,"time":111.23255813953489,"velocity":0.1889763779527559},{"duration":0.05813953488372192,"midi":90,"time":111.23255813953489,"velocity":0.25196850393700787},{"duration":0.034883720930224626,"midi":61,"time":111.24418604651163,"velocity":0.33070866141732286},{"duration":0.05813953488372192,"midi":103,"time":111.24418604651163,"velocity":0.25196850393700787},{"duration":0.05813953488372192,"midi":37,"time":111.25581395348837,"velocity":0.29133858267716534},{"duration":0.05813953488372192,"midi":72,"time":111.26744186046511,"velocity":0.25196850393700787},{"duration":0.03488372093023884,"midi":60,"time":111.27906976744185,"velocity":0.48031496062992124},{"duration":0.034883720930224626,"midi":68,"time":111.29069767441861,"velocity":0.2125984251968504},{"duration":0.05813953488372192,"midi":98,"time":111.29069767441861,"velocity":0.1732283464566929},{"duration":0.04651162790698038,"midi":86,"time":111.30232558139535,"velocity":0.1968503937007874},{"duration":0.023255813953483084,"midi":56,"time":111.31395348837209,"velocity":0.31496062992125984},{"duration":0.04651162790698038,"midi":73,"time":111.31395348837209,"velocity":0.25196850393700787},{"duration":0.3139534883720927,"midi":85,"time":111.31395348837209,"velocity":0.2992125984251969},{"duration":0.11627906976744384,"midi":90,"time":111.31395348837209,"velocity":0.2204724409448819},{"duration":0.05813953488372192,"midi":65,"time":111.32558139534883,"velocity":0.3858267716535433},{"duration":0.04651162790698038,"midi":70,"time":111.32558139534883,"velocity":0.33858267716535434},{"duration":0.04651162790698038,"midi":89,"time":111.32558139534883,"velocity":0.2755905511811024},{"duration":0.03488372093023884,"midi":91,"time":111.32558139534883,"velocity":0.1968503937007874},{"duration":0.023255813953497295,"midi":51,"time":111.33720930232558,"velocity":0.44881889763779526},{"duration":0.023255813953497295,"midi":58,"time":111.33720930232558,"velocity":0.29133858267716534},{"duration":0.023255813953497295,"midi":76,"time":111.33720930232558,"velocity":0.25196850393700787},{"duration":0.22093023255814614,"midi":84,"time":111.33720930232558,"velocity":0.28346456692913385},{"duration":0.06976744186047767,"midi":88,"time":111.33720930232558,"velocity":0.2755905511811024},{"duration":0.40697674418605345,"midi":93,"time":111.33720930232558,"velocity":0.4330708661417323},{"duration":0.023255813953483084,"midi":61,"time":111.34883720930233,"velocity":0.30708661417322836},{"duration":0.3953488372092977,"midi":77,"time":111.34883720930233,"velocity":0.5118110236220472},{"duration":0.10465116279068809,"midi":99,"time":111.34883720930233,"velocity":0.3700787401574803},{"duration":0.023255813953483084,"midi":103,"time":111.34883720930233,"velocity":0.36220472440944884},{"duration":0.011627906976741542,"midi":46,"time":111.36046511627907,"velocity":0.5354330708661418},{"duration":0.16279069767441,"midi":80,"time":111.36046511627907,"velocity":0.2992125984251969},{"duration":0.1860465116279073,"midi":98,"time":111.36046511627907,"velocity":0.1889763779527559},{"duration":0.011627906976741542,"midi":45,"time":111.37209302325581,"velocity":0.5905511811023622},{"duration":0.03488372093023884,"midi":54,"time":111.37209302325581,"velocity":0.2755905511811024},{"duration":0.06976744186046346,"midi":73,"time":111.37209302325581,"velocity":0.2440944881889764},{"duration":0.011627906976741542,"midi":44,"time":111.38372093023256,"velocity":0.5748031496062992},{"duration":0.023255813953497295,"midi":66,"time":111.38372093023256,"velocity":0.28346456692913385},{"duration":0.023255813953497295,"midi":71,"time":111.3953488372093,"velocity":0.31496062992125984},{"duration":0.05813953488372192,"midi":82,"time":111.3953488372093,"velocity":0.2992125984251969},{"duration":0.05813953488372192,"midi":86,"time":111.3953488372093,"velocity":0.13385826771653545},{"duration":0.22093023255814614,"midi":103,"time":111.3953488372093,"velocity":0.30708661417322836},{"duration":0.04651162790696617,"midi":61,"time":111.40697674418605,"velocity":0.2440944881889764},{"duration":0.12790697674418539,"midi":67,"time":111.40697674418605,"velocity":0.5354330708661418},{"duration":0.06976744186046346,"midi":100,"time":111.43023255813954,"velocity":0.11023622047244094},{"duration":0.023255813953483084,"midi":64,"time":111.44186046511628,"velocity":0.2440944881889764},{"duration":0.05813953488372192,"midi":70,"time":111.44186046511628,"velocity":0.33070866141732286},{"duration":0.023255813953497295,"midi":45,"time":111.45348837209302,"velocity":0.23622047244094488},{"duration":0.023255813953497295,"midi":55,"time":111.46511627906976,"velocity":0.28346456692913385},{"duration":0.05813953488372192,"midi":86,"time":111.46511627906976,"velocity":0.16535433070866143},{"duration":0.3139534883720927,"midi":73,"time":111.47674418604652,"velocity":0.4251968503937008},{"duration":0.081395348837205,"midi":54,"time":111.48837209302326,"velocity":0.2440944881889764},{"duration":0.081395348837205,"midi":102,"time":111.48837209302326,"velocity":0.14173228346456693},{"duration":0.1046511627907023,"midi":99,"time":111.51162790697674,"velocity":0.1889763779527559},{"duration":0.08139534883721922,"midi":65,"time":111.52325581395348,"velocity":0.44881889763779526},{"duration":0.2093023255813904,"midi":70,"time":111.53488372093024,"velocity":0.33858267716535434},{"duration":0.023255813953483084,"midi":67,"time":111.54651162790698,"velocity":0.3937007874015748},{"duration":0.03488372093023884,"midi":54,"time":111.5813953488372,"velocity":0.2755905511811024},{"duration":0.03488372093023884,"midi":66,"time":111.59302325581395,"velocity":0.3937007874015748},{"duration":0.13953488372094114,"midi":84,"time":111.59302325581395,"velocity":0.25984251968503935},{"duration":0.04651162790696617,"midi":88,"time":111.6046511627907,"velocity":0.11023622047244094},{"duration":0.06976744186046346,"midi":58,"time":111.61627906976744,"velocity":0.28346456692913385},{"duration":0.023255813953483084,"midi":68,"time":111.61627906976744,"velocity":0.4330708661417323},{"duration":0.16279069767442422,"midi":95,"time":111.65116279069767,"velocity":0.29133858267716534},{"duration":0.034883720930224626,"midi":67,"time":111.66279069767442,"velocity":0.4645669291338583},{"duration":0.081395348837205,"midi":80,"time":111.67441860465117,"velocity":0.1968503937007874},{"duration":0.04651162790698038,"midi":61,"time":111.69767441860465,"velocity":0.3228346456692913},{"duration":0.023255813953497295,"midi":66,"time":111.69767441860465,"velocity":0.3779527559055118},{"duration":0.03488372093023884,"midi":68,"time":111.69767441860465,"velocity":0.3543307086614173},{"duration":0.22093023255814614,"midi":102,"time":111.69767441860465,"velocity":0.36220472440944884},{"duration":0.1046511627907023,"midi":100,"time":111.70930232558139,"velocity":0.3464566929133858},{"duration":0.04651162790698038,"midi":103,"time":111.70930232558139,"velocity":0.13385826771653545},{"duration":0.034883720930224626,"midi":90,"time":111.72093023255815,"velocity":0.13385826771653545},{"duration":0.034883720930224626,"midi":64,"time":111.73255813953489,"velocity":0.5196850393700787},{"duration":0.034883720930224626,"midi":87,"time":111.73255813953489,"velocity":0.1889763779527559},{"duration":0.06976744186046346,"midi":98,"time":111.73255813953489,"velocity":0.28346456692913385},{"duration":0.13953488372092693,"midi":99,"time":111.73255813953489,"velocity":0.1968503937007874},{"duration":0.023255813953483084,"midi":45,"time":111.74418604651163,"velocity":0.25984251968503935},{"duration":0.023255813953483084,"midi":69,"time":111.74418604651163,"velocity":0.4251968503937008},{"duration":0.034883720930224626,"midi":78,"time":111.74418604651163,"velocity":0.09448818897637795},{"duration":0.034883720930224626,"midi":88,"time":111.74418604651163,"velocity":0.12598425196850394},{"duration":0.2906976744186096,"midi":93,"time":111.75581395348837,"velocity":0.30708661417322836},{"duration":0.2325581395348877,"midi":65,"time":111.76744186046511,"velocity":0.6141732283464567},{"duration":0.023255813953497295,"midi":68,"time":111.76744186046511,"velocity":0.4251968503937008},{"duration":0.03488372093023884,"midi":90,"time":111.76744186046511,"velocity":0.18110236220472442},{"duration":0.17441860465116577,"midi":103,"time":111.76744186046511,"velocity":0.3228346456692913},{"duration":0.04651162790698038,"midi":61,"time":111.77906976744185,"velocity":0.15748031496062992},{"duration":0.023255813953483084,"midi":54,"time":111.79069767441861,"velocity":0.25196850393700787},{"duration":0.034883720930224626,"midi":46,"time":111.80232558139535,"velocity":0.2677165354330709},{"duration":0.06976744186046346,"midi":68,"time":111.80232558139535,"velocity":0.4330708661417323},{"duration":0.3372093023255758,"midi":73,"time":111.80232558139535,"velocity":0.3543307086614173},{"duration":0.16279069767442422,"midi":84,"time":111.81395348837209,"velocity":0.25984251968503935},{"duration":0.023255813953497295,"midi":54,"time":111.82558139534883,"velocity":0.2283464566929134},{"duration":0.1046511627907023,"midi":95,"time":111.83720930232558,"velocity":0.12598425196850394},{"duration":0.13953488372094114,"midi":96,"time":111.83720930232558,"velocity":0.33070866141732286},{"duration":0.034883720930224626,"midi":81,"time":111.86046511627907,"velocity":0.14960629921259844},{"duration":0.034883720930224626,"midi":88,"time":111.86046511627907,"velocity":0.1968503937007874},{"duration":0.05813953488372192,"midi":90,"time":111.86046511627907,"velocity":0.25196850393700787},{"duration":0.03488372093023884,"midi":87,"time":111.87209302325581,"velocity":0.1732283464566929},{"duration":0.023255813953497295,"midi":45,"time":111.88372093023256,"velocity":0.5590551181102362},{"duration":0.03488372093023884,"midi":70,"time":111.88372093023256,"velocity":0.13385826771653545},{"duration":0.05813953488372192,"midi":61,"time":111.8953488372093,"velocity":0.2677165354330709},{"duration":0.05813953488372192,"midi":92,"time":111.8953488372093,"velocity":0.2283464566929134},{"duration":0.011627906976741542,"midi":44,"time":111.90697674418605,"velocity":0.5590551181102362},{"duration":0.023255813953483084,"midi":68,"time":111.90697674418605,"velocity":0.2992125984251969},{"duration":0.023255813953483084,"midi":42,"time":111.9186046511628,"velocity":0.5433070866141733},{"duration":0.04651162790696617,"midi":88,"time":111.9186046511628,"velocity":0.15748031496062992},{"duration":0.023255813953483084,"midi":51,"time":111.93023255813954,"velocity":0.25984251968503935},{"duration":0.2093023255813904,"midi":68,"time":111.94186046511628,"velocity":0.48031496062992124},{"duration":0.081395348837205,"midi":102,"time":111.94186046511628,"velocity":0.15748031496062992},{"duration":0.03488372093023884,"midi":53,"time":111.95348837209302,"velocity":0.2992125984251969},{"duration":0.04651162790698038,"midi":87,"time":111.96511627906976,"velocity":0.16535433070866143},{"duration":0.06976744186047767,"midi":95,"time":111.96511627906976,"velocity":0.14960629921259844},{"duration":0.023255813953483084,"midi":37,"time":111.97674418604652,"velocity":0.3543307086614173},{"duration":0.09302325581394655,"midi":61,"time":111.97674418604652,"velocity":0.3464566929133858},{"duration":0.081395348837205,"midi":82,"time":111.98837209302326,"velocity":0.13385826771653545},{"duration":0.13953488372092693,"midi":48,"time":112,"velocity":0.3464566929133858},{"duration":0.023255813953483084,"midi":54,"time":112,"velocity":0.2677165354330709},{"duration":0.05813953488372192,"midi":79,"time":112,"velocity":0.11023622047244094},{"duration":0.04651162790698038,"midi":90,"time":112,"velocity":0.1968503937007874},{"duration":0.081395348837205,"midi":81,"time":112.01162790697674,"velocity":0.2204724409448819},{"duration":0.023255813953497295,"midi":41,"time":112.02325581395348,"velocity":0.2440944881889764},{"duration":0.03488372093023884,"midi":55,"time":112.02325581395348,"velocity":0.3464566929133858},{"duration":0.10465116279068809,"midi":65,"time":112.03488372093024,"velocity":0.48031496062992124},{"duration":0.06976744186046346,"midi":36,"time":112.05813953488372,"velocity":0.3228346456692913},{"duration":0.05813953488372192,"midi":87,"time":112.05813953488372,"velocity":0.2204724409448819},{"duration":0.034883720930224626,"midi":92,"time":112.05813953488372,"velocity":0.11811023622047244},{"duration":0.05813953488372192,"midi":55,"time":112.06976744186046,"velocity":0.2755905511811024},{"duration":0.05813953488372192,"midi":86,"time":112.09302325581395,"velocity":0.30708661417322836},{"duration":0.04651162790698038,"midi":96,"time":112.09302325581395,"velocity":0.08661417322834646},{"duration":0.034883720930224626,"midi":83,"time":112.1046511627907,"velocity":0.3464566929133858},{"duration":0.11627906976744384,"midi":90,"time":112.11627906976744,"velocity":0.1968503937007874},{"duration":0.2906976744186096,"midi":91,"time":112.11627906976744,"velocity":0.4015748031496063},{"duration":0.06976744186046346,"midi":93,"time":112.11627906976744,"velocity":0.11811023622047244},{"duration":0.081395348837205,"midi":94,"time":112.11627906976744,"velocity":0.2440944881889764},{"duration":0.023255813953483084,"midi":84,"time":112.12790697674419,"velocity":0.2440944881889764},{"duration":0.13953488372092693,"midi":87,"time":112.12790697674419,"velocity":0.5590551181102362},{"duration":0.15116279069766847,"midi":97,"time":112.12790697674419,"velocity":0.2677165354330709},{"duration":0.11627906976744384,"midi":100,"time":112.12790697674419,"velocity":0.12598425196850394},{"duration":0.03488372093023884,"midi":45,"time":112.13953488372093,"velocity":0.36220472440944884},{"duration":0.04651162790698038,"midi":75,"time":112.13953488372093,"velocity":0.5590551181102362},{"duration":0.04651162790698038,"midi":79,"time":112.13953488372093,"velocity":0.2125984251968504},{"duration":0.023255813953497295,"midi":82,"time":112.13953488372093,"velocity":0.4251968503937008},{"duration":0.023255813953497295,"midi":59,"time":112.15116279069767,"velocity":0.23622047244094488},{"duration":0.08139534883721922,"midi":63,"time":112.15116279069767,"velocity":0.3228346456692913},{"duration":0.05813953488372192,"midi":77,"time":112.15116279069767,"velocity":0.14173228346456693},{"duration":0.05813953488372192,"midi":81,"time":112.15116279069767,"velocity":0.3700787401574803},{"duration":0.04651162790698038,"midi":83,"time":112.15116279069767,"velocity":0.4330708661417323},{"duration":0.04651162790698038,"midi":85,"time":112.15116279069767,"velocity":0.25984251968503935},{"duration":0.023255813953483084,"midi":53,"time":112.16279069767442,"velocity":0.2440944881889764},{"duration":0.034883720930224626,"midi":68,"time":112.16279069767442,"velocity":0.2440944881889764},{"duration":0.13953488372092693,"midi":46,"time":112.17441860465117,"velocity":0.23622047244094488},{"duration":0.17441860465116577,"midi":80,"time":112.17441860465117,"velocity":0.3937007874015748},{"duration":0.023255813953483084,"midi":35,"time":112.18604651162791,"velocity":0.28346456692913385},{"duration":0.05813953488372192,"midi":73,"time":112.18604651162791,"velocity":0.18110236220472442},{"duration":0.03488372093023884,"midi":76,"time":112.18604651162791,"velocity":0.49606299212598426},{"duration":0.7674418604651123,"midi":84,"time":112.18604651162791,"velocity":0.3937007874015748},{"duration":0.081395348837205,"midi":53,"time":112.19767441860465,"velocity":0.2283464566929134},{"duration":0.04651162790698038,"midi":82,"time":112.19767441860465,"velocity":0.5275590551181102},{"duration":0.16279069767442422,"midi":101,"time":112.19767441860465,"velocity":0.11023622047244094},{"duration":0.06976744186046346,"midi":34,"time":112.20930232558139,"velocity":0.29133858267716534},{"duration":0.15116279069768268,"midi":68,"time":112.20930232558139,"velocity":0.36220472440944884},{"duration":0.06976744186046346,"midi":75,"time":112.22093023255815,"velocity":0.4094488188976378},{"duration":0.09302325581394655,"midi":63,"time":112.24418604651163,"velocity":0.3779527559055118},{"duration":0.43023255813953654,"midi":72,"time":112.24418604651163,"velocity":0.2755905511811024},{"duration":0.04651162790698038,"midi":81,"time":112.24418604651163,"velocity":0.5039370078740157},{"duration":0.04651162790698038,"midi":88,"time":112.24418604651163,"velocity":0.07874015748031496},{"duration":0.034883720930224626,"midi":98,"time":112.24418604651163,"velocity":0.2755905511811024},{"duration":0.04651162790698038,"midi":86,"time":112.25581395348837,"velocity":0.4094488188976378},{"duration":0.023255813953483084,"midi":90,"time":112.25581395348837,"velocity":0.2283464566929134},{"duration":0.05813953488372192,"midi":82,"time":112.27906976744185,"velocity":0.5354330708661418},{"duration":0.081395348837205,"midi":87,"time":112.29069767441861,"velocity":0.4566929133858268},{"duration":0.13953488372092693,"midi":97,"time":112.29069767441861,"velocity":0.2283464566929134},{"duration":0.04651162790698038,"midi":75,"time":112.30232558139535,"velocity":0.4330708661417323},{"duration":0.05813953488372192,"midi":81,"time":112.31395348837209,"velocity":0.3937007874015748},{"duration":0.03488372093023884,"midi":88,"time":112.31395348837209,"velocity":0.2204724409448819},{"duration":0.09302325581396076,"midi":95,"time":112.31395348837209,"velocity":0.28346456692913385},{"duration":0.1046511627907023,"midi":102,"time":112.31395348837209,"velocity":0.28346456692913385},{"duration":0.06976744186046346,"midi":100,"time":112.32558139534883,"velocity":0.2440944881889764},{"duration":0.04651162790698038,"midi":60,"time":112.33720930232558,"velocity":0.2283464566929134},{"duration":0.023255813953497295,"midi":64,"time":112.33720930232558,"velocity":0.25196850393700787},{"duration":0.03488372093023884,"midi":83,"time":112.33720930232558,"velocity":0.5433070866141733},{"duration":0.023255813953483084,"midi":76,"time":112.34883720930233,"velocity":0.49606299212598426},{"duration":0.04651162790698038,"midi":69,"time":112.36046511627907,"velocity":0.2677165354330709},{"duration":0.4186046511627808,"midi":82,"time":112.36046511627907,"velocity":0.5590551181102362},{"duration":0.04651162790698038,"midi":88,"time":112.37209302325581,"velocity":0.4251968503937008},{"duration":0.06976744186046346,"midi":101,"time":112.37209302325581,"velocity":0.2204724409448819},{"duration":0.06976744186046346,"midi":63,"time":112.38372093023256,"velocity":0.28346456692913385},{"duration":0.023255813953497295,"midi":76,"time":112.38372093023256,"velocity":0.3937007874015748},{"duration":0.05813953488372192,"midi":78,"time":112.38372093023256,"velocity":0.25984251968503935},{"duration":0.04651162790698038,"midi":80,"time":112.38372093023256,"velocity":0.2047244094488189},{"duration":0.22093023255814614,"midi":87,"time":112.38372093023256,"velocity":0.41732283464566927},{"duration":0.03488372093023884,"midi":98,"time":112.38372093023256,"velocity":0.13385826771653545},{"duration":0.04651162790698038,"midi":75,"time":112.3953488372093,"velocity":0.41732283464566927},{"duration":0.03488372093023884,"midi":86,"time":112.3953488372093,"velocity":0.14173228346456693},{"duration":0.023255813953497295,"midi":90,"time":112.3953488372093,"velocity":0.33858267716535434},{"duration":0.023255813953483084,"midi":68,"time":112.40697674418605,"velocity":0.25984251968503935},{"duration":0.034883720930224626,"midi":89,"time":112.40697674418605,"velocity":0.1889763779527559},{"duration":0.2093023255813904,"midi":91,"time":112.4186046511628,"velocity":0.5039370078740157},{"duration":0.011627906976741542,"midi":45,"time":112.43023255813954,"velocity":0.5511811023622047},{"duration":0.03488372093023884,"midi":42,"time":112.44186046511628,"velocity":0.5433070866141733},{"duration":0.03488372093023884,"midi":80,"time":112.44186046511628,"velocity":0.09448818897637795},{"duration":0.08139534883721922,"midi":68,"time":112.45348837209302,"velocity":0.3937007874015748},{"duration":0.32558139534883423,"midi":75,"time":112.45348837209302,"velocity":0.5196850393700787},{"duration":0.1046511627907023,"midi":51,"time":112.46511627906976,"velocity":0.2204724409448819},{"duration":0.03488372093023884,"midi":101,"time":112.46511627906976,"velocity":0.14173228346456693},{"duration":0.023255813953483084,"midi":64,"time":112.47674418604652,"velocity":0.2283464566929134},{"duration":0.05813953488372192,"midi":81,"time":112.47674418604652,"velocity":0.3228346456692913},{"duration":0.10465116279068809,"midi":97,"time":112.47674418604652,"velocity":0.25984251968503935},{"duration":0.023255813953483084,"midi":40,"time":112.48837209302326,"velocity":0.28346456692913385},{"duration":0.1046511627907023,"midi":63,"time":112.5,"velocity":0.25196850393700787},{"duration":0.03488372093023884,"midi":88,"time":112.51162790697674,"velocity":0.23622047244094488},{"duration":0.03488372093023884,"midi":95,"time":112.51162790697674,"velocity":0.12598425196850394},{"duration":0.03488372093023884,"midi":79,"time":112.52325581395348,"velocity":0.13385826771653545},{"duration":0.023255813953483084,"midi":34,"time":112.53488372093024,"velocity":0.3228346456692913},{"duration":0.11627906976742963,"midi":60,"time":112.53488372093024,"velocity":0.2204724409448819},{"duration":0.04651162790696617,"midi":80,"time":112.53488372093024,"velocity":0.2283464566929134},{"duration":0.034883720930224626,"midi":101,"time":112.53488372093024,"velocity":0.07874015748031496},{"duration":0.023255813953483084,"midi":68,"time":112.54651162790698,"velocity":0.29133858267716534},{"duration":0.1860465116279073,"midi":68,"time":112.5813953488372,"velocity":0.5039370078740157},{"duration":0.05813953488372192,"midi":65,"time":112.59302325581395,"velocity":0.16535433070866143},{"duration":0.034883720930224626,"midi":56,"time":112.6046511627907,"velocity":0.09448818897637795},{"duration":0.034883720930224626,"midi":90,"time":112.6046511627907,"velocity":0.2204724409448819},{"duration":0.034883720930224626,"midi":83,"time":112.61627906976744,"velocity":0.2125984251968504},{"duration":0.33720930232559,"midi":91,"time":112.63953488372093,"velocity":0.31496062992125984},{"duration":0.03488372093023884,"midi":61,"time":112.65116279069767,"velocity":0.25984251968503935},{"duration":0.09302325581396076,"midi":78,"time":112.65116279069767,"velocity":0.18110236220472442},{"duration":0.05813953488372192,"midi":86,"time":112.65116279069767,"velocity":0.2204724409448819},{"duration":0.03488372093023884,"midi":89,"time":112.65116279069767,"velocity":0.2283464566929134},{"duration":0.05813953488372192,"midi":81,"time":112.66279069767442,"velocity":0.25984251968503935},{"duration":0.04651162790698038,"midi":74,"time":112.67441860465117,"velocity":0.28346456692913385},{"duration":0.034883720930224626,"midi":92,"time":112.67441860465117,"velocity":0.15748031496062992},{"duration":0.09302325581394655,"midi":51,"time":112.68604651162791,"velocity":0.29133858267716534},{"duration":0.12790697674418539,"midi":63,"time":112.68604651162791,"velocity":0.3543307086614173},{"duration":0.2325581395348877,"midi":72,"time":112.68604651162791,"velocity":0.29133858267716534},{"duration":0.03488372093023884,"midi":97,"time":112.68604651162791,"velocity":0.11811023622047244},{"duration":0.16279069767442422,"midi":44,"time":112.69767441860465,"velocity":0.3464566929133858},{"duration":0.04651162790698038,"midi":100,"time":112.69767441860465,"velocity":0.08661417322834646},{"duration":0.023255813953497295,"midi":35,"time":112.70930232558139,"velocity":0.25984251968503935},{"duration":0.034883720930224626,"midi":60,"time":112.72093023255815,"velocity":0.2204724409448819},{"duration":0.023255813953483084,"midi":33,"time":112.73255813953489,"velocity":0.2755905511811024},{"duration":0.034883720930224626,"midi":97,"time":112.74418604651163,"velocity":0.14960629921259844},{"duration":0.081395348837205,"midi":32,"time":112.75581395348837,"velocity":0.2992125984251969},{"duration":0.13953488372094114,"midi":68,"time":112.77906976744185,"velocity":0.4645669291338583},{"duration":0.16279069767441,"midi":75,"time":112.79069767441861,"velocity":0.36220472440944884},{"duration":0.05813953488372192,"midi":82,"time":112.79069767441861,"velocity":0.2992125984251969},{"duration":0.034883720930224626,"midi":92,"time":112.79069767441861,"velocity":0.10236220472440945},{"duration":0.06976744186046346,"midi":60,"time":112.80232558139535,"velocity":0.16535433070866143},{"duration":0.22093023255814614,"midi":97,"time":112.81395348837209,"velocity":0.3464566929133858},{"duration":0.05813953488372192,"midi":81,"time":112.84883720930233,"velocity":0.16535433070866143},{"duration":0.04651162790698038,"midi":63,"time":112.86046511627907,"velocity":0.25196850393700787},{"duration":0.11627906976744384,"midi":82,"time":112.86046511627907,"velocity":0.25984251968503935},{"duration":0.04651162790698038,"midi":88,"time":112.86046511627907,"velocity":0.18110236220472442},{"duration":0.034883720930224626,"midi":78,"time":112.90697674418605,"velocity":0.2204724409448819},{"duration":0.06976744186046346,"midi":88,"time":112.9186046511628,"velocity":0.23622047244094488},{"duration":0.034883720930224626,"midi":90,"time":112.9186046511628,"velocity":0.2677165354330709},{"duration":0.034883720930224626,"midi":93,"time":112.9186046511628,"velocity":0.12598425196850394},{"duration":0.04651162790696617,"midi":95,"time":112.9186046511628,"velocity":0.12598425196850394},{"duration":0.04651162790696617,"midi":98,"time":112.9186046511628,"velocity":0.18110236220472442},{"duration":0.06976744186046346,"midi":101,"time":112.9186046511628,"velocity":0.2440944881889764},{"duration":0.034883720930224626,"midi":45,"time":112.93023255813954,"velocity":0.5905511811023622},{"duration":0.011627906976741542,"midi":53,"time":112.93023255813954,"velocity":0.5196850393700787},{"duration":0.023255813953483084,"midi":67,"time":112.93023255813954,"velocity":0.31496062992125984},{"duration":0.05813953488372192,"midi":83,"time":112.93023255813954,"velocity":0.2204724409448819},{"duration":0.034883720930224626,"midi":89,"time":112.93023255813954,"velocity":0.2283464566929134},{"duration":0.011627906976741542,"midi":52,"time":112.94186046511628,"velocity":0.5118110236220472},{"duration":0.023255813953483084,"midi":69,"time":112.94186046511628,"velocity":0.28346456692913385},{"duration":0.11627906976744384,"midi":63,"time":112.95348837209302,"velocity":0.25196850393700787},{"duration":0.12790697674418539,"midi":72,"time":112.95348837209302,"velocity":0.2283464566929134},{"duration":0.09302325581396076,"midi":96,"time":112.95348837209302,"velocity":0.30708661417322836},{"duration":0.011627906976755753,"midi":44,"time":112.96511627906976,"velocity":0.5984251968503937},{"duration":0.16279069767442422,"midi":68,"time":112.96511627906976,"velocity":0.4409448818897638},{"duration":0.40697674418605345,"midi":75,"time":112.96511627906976,"velocity":0.4015748031496063},{"duration":0.03488372093023884,"midi":84,"time":112.96511627906976,"velocity":0.25196850393700787},{"duration":0.03488372093023884,"midi":90,"time":112.96511627906976,"velocity":0.3700787401574803},{"duration":0.011627906976741542,"midi":43,"time":112.97674418604652,"velocity":0.5669291338582677},{"duration":0.034883720930224626,"midi":56,"time":112.97674418604652,"velocity":0.3858267716535433},{"duration":0.011627906976741542,"midi":42,"time":112.98837209302326,"velocity":0.5196850393700787},{"duration":0.03488372093023884,"midi":83,"time":113,"velocity":0.14960629921259844},{"duration":0.081395348837205,"midi":86,"time":113,"velocity":0.2677165354330709},{"duration":0.05813953488372192,"midi":88,"time":113,"velocity":0.2755905511811024},{"duration":0.15116279069766847,"midi":89,"time":113,"velocity":0.29133858267716534},{"duration":0.11627906976744384,"midi":91,"time":113,"velocity":0.11811023622047244},{"duration":0.04651162790698038,"midi":85,"time":113.01162790697674,"velocity":0.2125984251968504},{"duration":0.023255813953497295,"midi":54,"time":113.02325581395348,"velocity":0.33858267716535434},{"duration":0.05813953488372192,"midi":92,"time":113.02325581395348,"velocity":0.2283464566929134},{"duration":0.023255813953483084,"midi":37,"time":113.03488372093024,"velocity":0.3700787401574803},{"duration":0.05813953488370771,"midi":102,"time":113.03488372093024,"velocity":0.15748031496062992},{"duration":0.023255813953483084,"midi":81,"time":113.04651162790698,"velocity":0.29133858267716534},{"duration":0.17441860465116577,"midi":97,"time":113.04651162790698,"velocity":0.25984251968503935},{"duration":0.023255813953483084,"midi":57,"time":113.05813953488372,"velocity":0.41732283464566927},{"duration":0.05813953488372192,"midi":87,"time":113.05813953488372,"velocity":0.4330708661417323},{"duration":0.06976744186046346,"midi":96,"time":113.05813953488372,"velocity":0.2677165354330709},{"duration":0.081395348837205,"midi":70,"time":113.06976744186046,"velocity":0.5354330708661418},{"duration":0.03488372093023884,"midi":77,"time":113.06976744186046,"velocity":0.2125984251968504},{"duration":0.04651162790698038,"midi":83,"time":113.06976744186046,"velocity":0.33070866141732286},{"duration":0.023255813953497295,"midi":59,"time":113.09302325581395,"velocity":0.3464566929133858},{"duration":0.1279069767441996,"midi":63,"time":113.09302325581395,"velocity":0.2755905511811024},{"duration":0.034883720930224626,"midi":58,"time":113.11627906976744,"velocity":0.36220472440944884},{"duration":0.034883720930224626,"midi":84,"time":113.11627906976744,"velocity":0.11811023622047244},{"duration":0.023255813953483084,"midi":86,"time":113.11627906976744,"velocity":0.25984251968503935},{"duration":0.16279069767442422,"midi":68,"time":113.13953488372093,"velocity":0.4330708661417323},{"duration":0.05813953488372192,"midi":72,"time":113.13953488372093,"velocity":0.5748031496062992},{"duration":0.05813953488372192,"midi":56,"time":113.16279069767442,"velocity":0.4330708661417323},{"duration":0.04651162790696617,"midi":90,"time":113.16279069767442,"velocity":0.2204724409448819},{"duration":0.034883720930224626,"midi":91,"time":113.16279069767442,"velocity":0.11023622047244094},{"duration":0.12790697674418539,"midi":96,"time":113.16279069767442,"velocity":0.2125984251968504},{"duration":0.06976744186046346,"midi":81,"time":113.17441860465117,"velocity":0.2204724409448819},{"duration":0.023255813953483084,"midi":66,"time":113.18604651162791,"velocity":0.25196850393700787},{"duration":0.03488372093023884,"midi":83,"time":113.18604651162791,"velocity":0.2047244094488189},{"duration":0.04651162790698038,"midi":85,"time":113.18604651162791,"velocity":0.4251968503937008},{"duration":0.05813953488372192,"midi":88,"time":113.18604651162791,"velocity":0.2440944881889764},{"duration":0.05813953488372192,"midi":94,"time":113.18604651162791,"velocity":0.15748031496062992},{"duration":0.03488372093023884,"midi":73,"time":113.19767441860465,"velocity":0.5984251968503937},{"duration":0.13953488372092693,"midi":102,"time":113.19767441860465,"velocity":0.30708661417322836},{"duration":0.023255813953497295,"midi":60,"time":113.20930232558139,"velocity":0.2440944881889764},{"duration":0.03488372093023884,"midi":79,"time":113.20930232558139,"velocity":0.11811023622047244},{"duration":0.03488372093023884,"midi":82,"time":113.20930232558139,"velocity":0.12598425196850394},{"duration":0.12790697674418539,"midi":100,"time":113.20930232558139,"velocity":0.29133858267716534},{"duration":0.023255813953483084,"midi":84,"time":113.22093023255815,"velocity":0.3464566929133858},{"duration":0.034883720930224626,"midi":103,"time":113.22093023255815,"velocity":0.16535433070866143},{"duration":0.09302325581394655,"midi":65,"time":113.23255813953489,"velocity":0.3228346456692913},{"duration":0.034883720930224626,"midi":72,"time":113.23255813953489,"velocity":0.4645669291338583},{"duration":0.11627906976744384,"midi":101,"time":113.23255813953489,"velocity":0.2755905511811024},{"duration":0.034883720930224626,"midi":83,"time":113.24418604651163,"velocity":0.33070866141732286},{"duration":0.04651162790698038,"midi":85,"time":113.24418604651163,"velocity":0.18110236220472442},{"duration":0.05813953488372192,"midi":89,"time":113.24418604651163,"velocity":0.09448818897637795},{"duration":0.05813953488372192,"midi":39,"time":113.25581395348837,"velocity":0.3228346456692913},{"duration":0.06976744186046346,"midi":58,"time":113.25581395348837,"velocity":0.48031496062992124},{"duration":0.04651162790698038,"midi":82,"time":113.25581395348837,"velocity":0.18110236220472442},{"duration":0.04651162790698038,"midi":92,"time":113.25581395348837,"velocity":0.13385826771653545},{"duration":0.15116279069768268,"midi":99,"time":113.25581395348837,"velocity":0.2755905511811024},{"duration":0.023255813953497295,"midi":73,"time":113.26744186046511,"velocity":0.2283464566929134},{"duration":0.08139534883721922,"midi":86,"time":113.27906976744185,"velocity":0.1968503937007874},{"duration":0.09302325581394655,"midi":81,"time":113.29069767441861,"velocity":0.1968503937007874},{"duration":0.034883720930224626,"midi":83,"time":113.30232558139535,"velocity":0.10236220472440945},{"duration":0.023255813953483084,"midi":88,"time":113.30232558139535,"velocity":0.25196850393700787},{"duration":0.034883720930224626,"midi":91,"time":113.30232558139535,"velocity":0.12598425196850394},{"duration":0.034883720930224626,"midi":97,"time":113.30232558139535,"velocity":0.11023622047244094},{"duration":0.023255813953483084,"midi":40,"time":113.31395348837209,"velocity":0.23622047244094488},{"duration":0.05813953488372192,"midi":78,"time":113.31395348837209,"velocity":0.15748031496062992},{"duration":0.023255813953497295,"midi":57,"time":113.32558139534883,"velocity":0.4409448818897638},{"duration":0.023255813953497295,"midi":64,"time":113.32558139534883,"velocity":0.31496062992125984},{"duration":0.08139534883721922,"midi":68,"time":113.32558139534883,"velocity":0.3228346456692913},{"duration":0.03488372093023884,"midi":89,"time":113.32558139534883,"velocity":0.29133858267716534},{"duration":0.03488372093023884,"midi":92,"time":113.32558139534883,"velocity":0.09448818897637795},{"duration":0.09302325581396076,"midi":85,"time":113.33720930232558,"velocity":0.16535433070866143},{"duration":0.034883720930224626,"midi":56,"time":113.34883720930233,"velocity":0.3464566929133858},{"duration":0.023255813953483084,"midi":65,"time":113.34883720930233,"velocity":0.25984251968503935},{"duration":0.081395348837205,"midi":73,"time":113.34883720930233,"velocity":0.33070866141732286},{"duration":0.023255813953483084,"midi":64,"time":113.37209302325581,"velocity":0.28346456692913385},{"duration":0.03488372093023884,"midi":70,"time":113.37209302325581,"velocity":0.07086614173228346},{"duration":0.03488372093023884,"midi":44,"time":113.38372093023256,"velocity":0.28346456692913385},{"duration":0.06976744186046346,"midi":51,"time":113.3953488372093,"velocity":0.29133858267716534},{"duration":0.06976744186046346,"midi":63,"time":113.3953488372093,"velocity":0.2992125984251969},{"duration":0.09302325581394655,"midi":92,"time":113.40697674418605,"velocity":0.13385826771653545},{"duration":0.04651162790696617,"midi":32,"time":113.4186046511628,"velocity":0.2755905511811024},{"duration":0.023255813953483084,"midi":72,"time":113.4186046511628,"velocity":0.29133858267716534},{"duration":0.081395348837205,"midi":82,"time":113.43023255813954,"velocity":0.15748031496062992},{"duration":0.03488372093023884,"midi":59,"time":113.44186046511628,"velocity":0.2283464566929134},{"duration":0.13953488372092693,"midi":87,"time":113.44186046511628,"velocity":0.16535433070866143},{"duration":0.1046511627907023,"midi":88,"time":113.44186046511628,"velocity":0.14173228346456693},{"duration":0.081395348837205,"midi":95,"time":113.44186046511628,"velocity":0.15748031496062992},{"duration":0.7093023255813904,"midi":102,"time":113.44186046511628,"velocity":0.44881889763779526},{"duration":0.04651162790698038,"midi":64,"time":113.45348837209302,"velocity":0.3858267716535433},{"duration":0.13953488372092693,"midi":78,"time":113.45348837209302,"velocity":0.30708661417322836},{"duration":0.05813953488372192,"midi":86,"time":113.45348837209302,"velocity":0.14960629921259844},{"duration":0.09302325581396076,"midi":93,"time":113.45348837209302,"velocity":0.08661417322834646},{"duration":0.13953488372092693,"midi":96,"time":113.45348837209302,"velocity":0.2755905511811024},{"duration":0.03488372093023884,"midi":97,"time":113.45348837209302,"velocity":0.07086614173228346},{"duration":0.08139534883721922,"midi":99,"time":113.45348837209302,"velocity":0.2283464566929134},{"duration":0.16279069767442422,"midi":100,"time":113.45348837209302,"velocity":0.33858267716535434},{"duration":0.06976744186046346,"midi":101,"time":113.45348837209302,"velocity":0.25196850393700787},{"duration":0.05813953488372192,"midi":103,"time":113.45348837209302,"velocity":0.3858267716535433},{"duration":0.03488372093023884,"midi":67,"time":113.46511627906976,"velocity":0.3464566929133858},{"duration":0.05813953488372192,"midi":84,"time":113.46511627906976,"velocity":0.2677165354330709},{"duration":0.03488372093023884,"midi":91,"time":113.46511627906976,"velocity":0.4251968503937008},{"duration":0.011627906976741542,"midi":46,"time":113.47674418604652,"velocity":0.5196850393700787},{"duration":0.023255813953483084,"midi":72,"time":113.47674418604652,"velocity":0.2440944881889764},{"duration":0.3139534883720927,"midi":94,"time":113.47674418604652,"velocity":0.3543307086614173},{"duration":0.011627906976741542,"midi":45,"time":113.48837209302326,"velocity":0.5826771653543307},{"duration":0.05813953488372192,"midi":98,"time":113.48837209302326,"velocity":0.1732283464566929},{"duration":0.011627906976741542,"midi":43,"time":113.5,"velocity":0.5669291338582677},{"duration":0.03488372093023884,"midi":65,"time":113.5,"velocity":0.3700787401574803},{"duration":0.03488372093023884,"midi":81,"time":113.5,"velocity":0.14173228346456693},{"duration":0.081395348837205,"midi":90,"time":113.5,"velocity":0.4881889763779528},{"duration":0.22093023255814614,"midi":97,"time":113.5,"velocity":0.33070866141732286},{"duration":0.011627906976741542,"midi":42,"time":113.51162790697674,"velocity":0.5354330708661418},{"duration":0.06976744186046346,"midi":75,"time":113.51162790697674,"velocity":0.2125984251968504},{"duration":0.06976744186046346,"midi":80,"time":113.51162790697674,"velocity":0.15748031496062992},{"duration":0.06976744186046346,"midi":83,"time":113.51162790697674,"velocity":0.36220472440944884},{"duration":0.06976744186046346,"midi":85,"time":113.51162790697674,"velocity":0.31496062992125984},{"duration":0.09302325581396076,"midi":63,"time":113.52325581395348,"velocity":0.3779527559055118},{"duration":0.023255813953483084,"midi":40,"time":113.53488372093024,"velocity":0.44881889763779526},{"duration":0.023255813953483084,"midi":56,"time":113.53488372093024,"velocity":0.2677165354330709},{"duration":0.034883720930224626,"midi":66,"time":113.53488372093024,"velocity":0.36220472440944884},{"duration":0.40697674418603924,"midi":84,"time":113.53488372093024,"velocity":0.3228346456692913},{"duration":0.04651162790696617,"midi":71,"time":113.54651162790698,"velocity":0.2047244094488189},{"duration":0.6162790697674438,"midi":99,"time":113.54651162790698,"velocity":0.3779527559055118},{"duration":0.034883720930224626,"midi":60,"time":113.55813953488372,"velocity":0.1732283464566929},{"duration":0.023255813953483084,"midi":35,"time":113.56976744186046,"velocity":0.29133858267716534},{"duration":0.03488372093023884,"midi":56,"time":113.56976744186046,"velocity":0.2283464566929134},{"duration":0.023255813953483084,"midi":67,"time":113.56976744186046,"velocity":0.25984251968503935},{"duration":0.03488372093023884,"midi":74,"time":113.56976744186046,"velocity":0.1968503937007874},{"duration":0.03488372093023884,"midi":79,"time":113.56976744186046,"velocity":0.28346456692913385},{"duration":0.06976744186046346,"midi":98,"time":113.56976744186046,"velocity":0.29133858267716534},{"duration":0.023255813953497295,"midi":86,"time":113.5813953488372,"velocity":0.3464566929133858},{"duration":0.08139534883721922,"midi":91,"time":113.5813953488372,"velocity":0.48031496062992124},{"duration":0.15116279069768268,"midi":95,"time":113.5813953488372,"velocity":0.5118110236220472},{"duration":0.1860465116279073,"midi":101,"time":113.5813953488372,"velocity":0.3464566929133858},{"duration":0.11627906976744384,"midi":68,"time":113.59302325581395,"velocity":0.47244094488188976},{"duration":0.023255813953497295,"midi":72,"time":113.59302325581395,"velocity":0.25196850393700787},{"duration":0.03488372093023884,"midi":83,"time":113.59302325581395,"velocity":0.2047244094488189},{"duration":0.03488372093023884,"midi":90,"time":113.59302325581395,"velocity":0.3700787401574803},{"duration":0.04651162790696617,"midi":77,"time":113.6046511627907,"velocity":0.11023622047244094},{"duration":0.27906976744185386,"midi":87,"time":113.6046511627907,"velocity":0.3779527559055118},{"duration":0.2906976744185954,"midi":92,"time":113.6046511627907,"velocity":0.5275590551181102},{"duration":0.09302325581394655,"midi":96,"time":113.6046511627907,"velocity":0.4094488188976378},{"duration":0.04651162790698038,"midi":60,"time":113.61627906976744,"velocity":0.14173228346456693},{"duration":0.05813953488372192,"midi":65,"time":113.61627906976744,"velocity":0.3858267716535433},{"duration":0.04651162790698038,"midi":79,"time":113.61627906976744,"velocity":0.18110236220472442},{"duration":0.034883720930224626,"midi":85,"time":113.61627906976744,"velocity":0.2204724409448819},{"duration":0.3604651162790731,"midi":72,"time":113.62790697674419,"velocity":0.3700787401574803},{"duration":0.05813953488372192,"midi":90,"time":113.63953488372093,"velocity":0.07874015748031496},{"duration":0.03488372093023884,"midi":83,"time":113.65116279069767,"velocity":0.11811023622047244},{"duration":0.034883720930224626,"midi":60,"time":113.67441860465117,"velocity":0.14960629921259844},{"duration":0.023255813953483084,"midi":79,"time":113.67441860465117,"velocity":0.23622047244094488},{"duration":0.034883720930224626,"midi":91,"time":113.67441860465117,"velocity":0.41732283464566927},{"duration":0.05813953488372192,"midi":98,"time":113.67441860465117,"velocity":0.1889763779527559},{"duration":0.023255813953483084,"midi":66,"time":113.68604651162791,"velocity":0.4015748031496063},{"duration":0.04651162790698038,"midi":75,"time":113.68604651162791,"velocity":0.2125984251968504},{"duration":0.17441860465116577,"midi":100,"time":113.68604651162791,"velocity":0.1968503937007874},{"duration":0.16279069767442422,"midi":65,"time":113.70930232558139,"velocity":0.44881889763779526},{"duration":0.03488372093023884,"midi":78,"time":113.70930232558139,"velocity":0.2283464566929134},{"duration":0.08139534883721922,"midi":90,"time":113.70930232558139,"velocity":0.28346456692913385},{"duration":0.1860465116279073,"midi":96,"time":113.70930232558139,"velocity":0.5669291338582677},{"duration":0.16279069767441,"midi":68,"time":113.72093023255815,"velocity":0.5275590551181102},{"duration":0.034883720930224626,"midi":83,"time":113.72093023255815,"velocity":0.1889763779527559},{"duration":0.034883720930224626,"midi":86,"time":113.72093023255815,"velocity":0.15748031496062992},{"duration":0.023255813953483084,"midi":91,"time":113.72093023255815,"velocity":0.4645669291338583},{"duration":0.22093023255813193,"midi":53,"time":113.73255813953489,"velocity":0.3228346456692913},{"duration":0.034883720930224626,"midi":63,"time":113.74418604651163,"velocity":0.2677165354330709},{"duration":0.48837209302325846,"midi":75,"time":113.74418604651163,"velocity":0.4251968503937008},{"duration":0.081395348837205,"midi":82,"time":113.74418604651163,"velocity":0.12598425196850394},{"duration":0.04651162790698038,"midi":97,"time":113.74418604651163,"velocity":0.14173228346456693},{"duration":0.023255813953483084,"midi":40,"time":113.75581395348837,"velocity":0.33070866141732286},{"duration":0.05813953488372192,"midi":98,"time":113.75581395348837,"velocity":0.1732283464566929},{"duration":0.05813953488372192,"midi":103,"time":113.75581395348837,"velocity":0.2047244094488189},{"duration":0.04651162790698038,"midi":91,"time":113.76744186046511,"velocity":0.18110236220472442},{"duration":0.08139534883721922,"midi":60,"time":113.77906976744185,"velocity":0.2440944881889764},{"duration":0.034883720930224626,"midi":95,"time":113.79069767441861,"velocity":0.2755905511811024},{"duration":0.1046511627907023,"midi":97,"time":113.81395348837209,"velocity":0.15748031496062992},{"duration":0.03488372093023884,"midi":30,"time":113.82558139534883,"velocity":0.14173228346456693},{"duration":0.06976744186046346,"midi":101,"time":113.82558139534883,"velocity":0.2283464566929134},{"duration":0.17441860465116577,"midi":95,"time":113.83720930232558,"velocity":0.48031496062992124},{"duration":0.06976744186047767,"midi":98,"time":113.83720930232558,"velocity":0.25984251968503935},{"duration":0.09302325581394655,"midi":78,"time":113.84883720930233,"velocity":0.1968503937007874},{"duration":0.04651162790696617,"midi":86,"time":113.84883720930233,"velocity":0.15748031496062992},{"duration":0.12790697674418539,"midi":91,"time":113.84883720930233,"velocity":0.3228346456692913},{"duration":0.023255813953483084,"midi":66,"time":113.87209302325581,"velocity":0.5118110236220472},{"duration":0.023255813953497295,"midi":40,"time":113.88372093023256,"velocity":0.30708661417322836},{"duration":0.13953488372092693,"midi":65,"time":113.88372093023256,"velocity":0.5196850393700787},{"duration":0.03488372093023884,"midi":94,"time":113.88372093023256,"velocity":0.3228346456692913},{"duration":0.081395348837205,"midi":80,"time":113.90697674418605,"velocity":0.15748031496062992},{"duration":0.15116279069766847,"midi":101,"time":113.90697674418605,"velocity":0.1968503937007874},{"duration":0.034883720930224626,"midi":60,"time":113.9186046511628,"velocity":0.3543307086614173},{"duration":0.13953488372092693,"midi":90,"time":113.9186046511628,"velocity":0.25196850393700787},{"duration":0.19767441860464885,"midi":92,"time":113.9186046511628,"velocity":0.2125984251968504},{"duration":0.43023255813953654,"midi":96,"time":113.9186046511628,"velocity":0.4566929133858268},{"duration":0.27906976744185386,"midi":68,"time":113.93023255813954,"velocity":0.41732283464566927},{"duration":0.04651162790698038,"midi":30,"time":113.95348837209302,"velocity":0.2204724409448819},{"duration":0.023255813953497295,"midi":41,"time":113.95348837209302,"velocity":0.2283464566929134},{"duration":0.25581395348837077,"midi":94,"time":113.95348837209302,"velocity":0.3543307086614173},{"duration":0.034883720930224626,"midi":62,"time":113.97674418604652,"velocity":0.41732283464566927},{"duration":0.023255813953483084,"midi":78,"time":113.97674418604652,"velocity":0.25196850393700787},{"duration":0.04651162790696617,"midi":82,"time":113.97674418604652,"velocity":0.16535433070866143},{"duration":0.2093023255813904,"midi":88,"time":113.97674418604652,"velocity":0.3937007874015748},{"duration":0.034883720930224626,"midi":93,"time":113.97674418604652,"velocity":0.3464566929133858},{"duration":0.04651162790696617,"midi":97,"time":113.97674418604652,"velocity":0.12598425196850394},{"duration":0.034883720930224626,"midi":71,"time":113.98837209302326,"velocity":0.1732283464566929},{"duration":0.023255813953483084,"midi":89,"time":113.98837209302326,"velocity":0.23622047244094488},{"duration":0.2674418604651123,"midi":91,"time":113.98837209302326,"velocity":0.2992125984251969},{"duration":0.13953488372092693,"midi":98,"time":113.98837209302326,"velocity":0.18110236220472442},{"duration":0.023255813953483084,"midi":45,"time":114,"velocity":0.5826771653543307},{"duration":0.03488372093023884,"midi":81,"time":114,"velocity":0.10236220472440945},{"duration":0.04651162790698038,"midi":83,"time":114,"velocity":0.1968503937007874},{"duration":0.011627906976755753,"midi":44,"time":114.02325581395348,"velocity":0.5905511811023622},{"duration":0.023255813953497295,"midi":51,"time":114.02325581395348,"velocity":0.30708661417322836},{"duration":0.1046511627907023,"midi":60,"time":114.02325581395348,"velocity":0.4251968503937008},{"duration":0.19767441860466306,"midi":72,"time":114.02325581395348,"velocity":0.48031496062992124},{"duration":0.011627906976741542,"midi":43,"time":114.03488372093024,"velocity":0.5590551181102362},{"duration":0.011627906976741542,"midi":42,"time":114.04651162790698,"velocity":0.5196850393700787},{"duration":0.023255813953483084,"midi":52,"time":114.04651162790698,"velocity":0.33070866141732286},{"duration":0.034883720930224626,"midi":79,"time":114.04651162790698,"velocity":0.16535433070866143},{"duration":0.023255813953483084,"midi":65,"time":114.05813953488372,"velocity":0.3779527559055118},{"duration":0.023255813953483084,"midi":53,"time":114.06976744186046,"velocity":0.29133858267716534},{"duration":0.1046511627907023,"midi":82,"time":114.06976744186046,"velocity":0.2283464566929134},{"duration":0.023255813953497295,"midi":37,"time":114.09302325581395,"velocity":0.3543307086614173},{"duration":0.023255813953497295,"midi":65,"time":114.09302325581395,"velocity":0.4015748031496063},{"duration":0.04651162790698038,"midi":95,"time":114.09302325581395,"velocity":0.2047244094488189},{"duration":0.04651162790696617,"midi":90,"time":114.1046511627907,"velocity":0.1732283464566929},{"duration":0.023255813953483084,"midi":36,"time":114.11627906976744,"velocity":0.2283464566929134},{"duration":0.034883720930224626,"midi":93,"time":114.11627906976744,"velocity":0.1968503937007874},{"duration":0.034883720930224626,"midi":101,"time":114.11627906976744,"velocity":0.15748031496062992},{"duration":0.09302325581396076,"midi":48,"time":114.12790697674419,"velocity":0.3228346456692913},{"duration":0.023255813953483084,"midi":66,"time":114.12790697674419,"velocity":0.29133858267716534},{"duration":0.03488372093023884,"midi":81,"time":114.12790697674419,"velocity":0.2440944881889764},{"duration":0.04651162790698038,"midi":85,"time":114.12790697674419,"velocity":0.1889763779527559},{"duration":0.03488372093023884,"midi":55,"time":114.15116279069767,"velocity":0.33858267716535434},{"duration":0.08139534883721922,"midi":60,"time":114.15116279069767,"velocity":0.3937007874015748},{"duration":0.081395348837205,"midi":36,"time":114.18604651162791,"velocity":0.3543307086614173},{"duration":0.023255813953483084,"midi":56,"time":114.18604651162791,"velocity":0.33070866141732286},{"duration":0.03488372093023884,"midi":77,"time":114.18604651162791,"velocity":0.08661417322834646},{"duration":0.38372093023255616,"midi":99,"time":114.19767441860465,"velocity":0.3779527559055118},{"duration":0.023255813953497295,"midi":63,"time":114.20930232558139,"velocity":0.4330708661417323},{"duration":0.17441860465115155,"midi":102,"time":114.22093023255815,"velocity":0.33858267716535434},{"duration":0.16279069767441,"midi":85,"time":114.23255813953489,"velocity":0.5039370078740157},{"duration":0.04651162790696617,"midi":89,"time":114.23255813953489,"velocity":0.36220472440944884},{"duration":0.06976744186046346,"midi":90,"time":114.23255813953489,"velocity":0.2440944881889764},{"duration":0.24418604651162923,"midi":92,"time":114.23255813953489,"velocity":0.2755905511811024},{"duration":0.034883720930224626,"midi":94,"time":114.23255813953489,"velocity":0.23622047244094488},{"duration":0.10465116279068809,"midi":100,"time":114.23255813953489,"velocity":0.14173228346456693},{"duration":0.04651162790698038,"midi":63,"time":114.24418604651163,"velocity":0.2992125984251969},{"duration":0.04651162790698038,"midi":68,"time":114.24418604651163,"velocity":0.2755905511811024},{"duration":0.081395348837205,"midi":73,"time":114.24418604651163,"velocity":0.5905511811023622},{"duration":0.034883720930224626,"midi":78,"time":114.24418604651163,"velocity":0.30708661417322836},{"duration":0.30232558139535115,"midi":80,"time":114.24418604651163,"velocity":0.49606299212598426},{"duration":0.034883720930224626,"midi":83,"time":114.24418604651163,"velocity":0.2047244094488189},{"duration":0.034883720930224626,"midi":86,"time":114.24418604651163,"velocity":0.1732283464566929},{"duration":0.40697674418603924,"midi":93,"time":114.24418604651163,"velocity":0.3464566929133858},{"duration":0.081395348837205,"midi":95,"time":114.24418604651163,"velocity":0.2204724409448819},{"duration":0.5116279069767415,"midi":101,"time":114.24418604651163,"velocity":0.41732283464566927},{"duration":0.023255813953483084,"midi":59,"time":114.25581395348837,"velocity":0.3464566929133858},{"duration":0.04651162790698038,"midi":88,"time":114.25581395348837,"velocity":0.33858267716535434},{"duration":0.023255813953497295,"midi":45,"time":114.26744186046511,"velocity":0.3543307086614173},{"duration":0.08139534883721922,"midi":70,"time":114.26744186046511,"velocity":0.2283464566929134},{"duration":0.09302325581396076,"midi":75,"time":114.26744186046511,"velocity":0.3700787401574803},{"duration":0.023255813953497295,"midi":82,"time":114.26744186046511,"velocity":0.30708661417322836},{"duration":0.24418604651162923,"midi":53,"time":114.27906976744185,"velocity":0.3700787401574803},{"duration":0.05813953488372192,"midi":77,"time":114.27906976744185,"velocity":0.30708661417322836},{"duration":0.023255813953497295,"midi":84,"time":114.27906976744185,"velocity":0.23622047244094488},{"duration":0.06976744186046346,"midi":46,"time":114.29069767441861,"velocity":0.2677165354330709},{"duration":0.04651162790696617,"midi":83,"time":114.29069767441861,"velocity":0.29133858267716534},{"duration":0.23255813953487348,"midi":89,"time":114.29069767441861,"velocity":0.5511811023622047},{"duration":0.023255813953483084,"midi":60,"time":114.30232558139535,"velocity":0.3779527559055118},{"duration":0.11627906976744384,"midi":68,"time":114.30232558139535,"velocity":0.25196850393700787},{"duration":0.09302325581396076,"midi":34,"time":114.32558139534883,"velocity":0.30708661417322836},{"duration":0.023255813953497295,"midi":58,"time":114.32558139534883,"velocity":0.31496062992125984},{"duration":0.04651162790698038,"midi":61,"time":114.32558139534883,"velocity":0.31496062992125984},{"duration":0.023255813953497295,"midi":72,"time":114.32558139534883,"velocity":0.28346456692913385},{"duration":0.06976744186046346,"midi":82,"time":114.32558139534883,"velocity":0.30708661417322836},{"duration":0.081395348837205,"midi":84,"time":114.34883720930233,"velocity":0.3858267716535433},{"duration":0.06976744186046346,"midi":95,"time":114.34883720930233,"velocity":0.2992125984251969},{"duration":0.19767441860464885,"midi":73,"time":114.36046511627907,"velocity":0.5433070866141733},{"duration":0.03488372093023884,"midi":81,"time":114.37209302325581,"velocity":0.18110236220472442},{"duration":0.1046511627907023,"midi":58,"time":114.38372093023256,"velocity":0.3228346456692913},{"duration":0.05813953488372192,"midi":75,"time":114.38372093023256,"velocity":0.1889763779527559},{"duration":0.04651162790696617,"midi":102,"time":114.40697674418605,"velocity":0.25196850393700787},{"duration":0.034883720930224626,"midi":82,"time":114.4186046511628,"velocity":0.1968503937007874},{"duration":0.034883720930224626,"midi":103,"time":114.43023255813954,"velocity":0.2440944881889764},{"duration":0.03488372093023884,"midi":100,"time":114.44186046511628,"velocity":0.09448818897637795},{"duration":0.08139534883721922,"midi":75,"time":114.45348837209302,"velocity":0.18110236220472442},{"duration":0.16279069767442422,"midi":82,"time":114.46511627906976,"velocity":0.28346456692913385},{"duration":0.08139534883721922,"midi":84,"time":114.46511627906976,"velocity":0.3779527559055118},{"duration":0.2674418604651265,"midi":102,"time":114.46511627906976,"velocity":0.3858267716535433},{"duration":0.034883720930224626,"midi":63,"time":114.47674418604652,"velocity":0.25196850393700787},{"duration":0.15116279069766847,"midi":91,"time":114.5,"velocity":0.36220472440944884},{"duration":0.2906976744186096,"midi":100,"time":114.5,"velocity":0.33858267716535434},{"duration":0.12790697674418539,"midi":88,"time":114.51162790697674,"velocity":0.48031496062992124},{"duration":0.03488372093023884,"midi":60,"time":114.52325581395348,"velocity":0.33070866141732286},{"duration":0.011627906976741542,"midi":46,"time":114.53488372093024,"velocity":0.5511811023622047},{"duration":0.12790697674418539,"midi":79,"time":114.53488372093024,"velocity":0.4566929133858268},{"duration":0.11627906976742963,"midi":98,"time":114.53488372093024,"velocity":0.2755905511811024},{"duration":0.011627906976741542,"midi":45,"time":114.54651162790698,"velocity":0.5984251968503937},{"duration":0.04651162790696617,"midi":92,"time":114.54651162790698,"velocity":0.16535433070866143},{"duration":0.011627906976741542,"midi":44,"time":114.55813953488372,"velocity":0.5669291338582677},{"duration":0.12790697674418539,"midi":53,"time":114.55813953488372,"velocity":0.2440944881889764},{"duration":0.1046511627907023,"midi":84,"time":114.55813953488372,"velocity":0.4015748031496063},{"duration":0.023255813953483084,"midi":42,"time":114.56976744186046,"velocity":0.5433070866141733},{"duration":0.04651162790698038,"midi":66,"time":114.56976744186046,"velocity":0.3543307086614173},{"duration":0.3604651162790731,"midi":94,"time":114.56976744186046,"velocity":0.28346456692913385},{"duration":0.2093023255813904,"midi":95,"time":114.56976744186046,"velocity":0.25196850393700787},{"duration":0.023255813953497295,"midi":58,"time":114.5813953488372,"velocity":0.23622047244094488},{"duration":0.023255813953497295,"midi":73,"time":114.5813953488372,"velocity":0.30708661417322836},{"duration":0.03488372093023884,"midi":86,"time":114.59302325581395,"velocity":0.10236220472440945},{"duration":0.5581395348837219,"midi":99,"time":114.59302325581395,"velocity":0.2677165354330709},{"duration":0.04651162790696617,"midi":61,"time":114.6046511627907,"velocity":0.2047244094488189},{"duration":0.034883720930224626,"midi":72,"time":114.6046511627907,"velocity":0.3700787401574803},{"duration":0.09302325581394655,"midi":89,"time":114.6046511627907,"velocity":0.5118110236220472},{"duration":0.30232558139535115,"midi":65,"time":114.61627906976744,"velocity":0.44881889763779526},{"duration":0.11627906976744384,"midi":80,"time":114.61627906976744,"velocity":0.33070866141732286},{"duration":0.034883720930224626,"midi":87,"time":114.61627906976744,"velocity":0.31496062992125984},{"duration":0.05813953488372192,"midi":97,"time":114.61627906976744,"velocity":0.14960629921259844},{"duration":0.05813953488372192,"midi":78,"time":114.62790697674419,"velocity":0.28346456692913385},{"duration":0.12790697674418539,"midi":85,"time":114.62790697674419,"velocity":0.4015748031496063},{"duration":0.04651162790698038,"midi":90,"time":114.62790697674419,"velocity":0.36220472440944884},{"duration":0.023255813953497295,"midi":36,"time":114.63953488372093,"velocity":0.29133858267716534},{"duration":0.08139534883721922,"midi":73,"time":114.63953488372093,"velocity":0.33858267716535434},{"duration":0.03488372093023884,"midi":82,"time":114.63953488372093,"velocity":0.44881889763779526},{"duration":0.03488372093023884,"midi":86,"time":114.63953488372093,"velocity":0.2992125984251969},{"duration":0.11627906976744384,"midi":58,"time":114.65116279069767,"velocity":0.33858267716535434},{"duration":0.04651162790698038,"midi":76,"time":114.65116279069767,"velocity":0.25984251968503935},{"duration":0.05813953488372192,"midi":81,"time":114.66279069767442,"velocity":0.5275590551181102},{"duration":0.32558139534883423,"midi":91,"time":114.66279069767442,"velocity":0.3228346456692913},{"duration":0.04651162790698038,"midi":84,"time":114.67441860465117,"velocity":0.28346456692913385},{"duration":0.04651162790698038,"midi":87,"time":114.67441860465117,"velocity":0.14173228346456693},{"duration":0.06976744186046346,"midi":53,"time":114.69767441860465,"velocity":0.18110236220472442},{"duration":0.17441860465116577,"midi":77,"time":114.69767441860465,"velocity":0.44881889763779526},{"duration":0.011627906976741542,"midi":88,"time":114.69767441860465,"velocity":0.5354330708661418},{"duration":0.05813953488372192,"midi":98,"time":114.69767441860465,"velocity":0.14960629921259844},{"duration":0.24418604651162923,"midi":82,"time":114.70930232558139,"velocity":0.47244094488188976},{"duration":0.08139534883721922,"midi":86,"time":114.70930232558139,"velocity":0.3779527559055118},{"duration":0.2674418604651265,"midi":89,"time":114.70930232558139,"velocity":0.4881889763779528},{"duration":0.06976744186046346,"midi":72,"time":114.72093023255815,"velocity":0.25196850393700787},{"duration":0.04651162790696617,"midi":88,"time":114.72093023255815,"velocity":0.29133858267716534},{"duration":0.05813953488372192,"midi":90,"time":114.73255813953489,"velocity":0.3858267716535433},{"duration":0.034883720930224626,"midi":92,"time":114.73255813953489,"velocity":0.12598425196850394},{"duration":0.023255813953483084,"midi":87,"time":114.74418604651163,"velocity":0.36220472440944884},{"duration":0.023255813953483084,"midi":83,"time":114.75581395348837,"velocity":0.4015748031496063},{"duration":0.03488372093023884,"midi":84,"time":114.75581395348837,"velocity":0.3228346456692913},{"duration":0.023255813953497295,"midi":59,"time":114.76744186046511,"velocity":0.25984251968503935},{"duration":0.023255813953497295,"midi":79,"time":114.76744186046511,"velocity":0.25196850393700787},{"duration":0.15116279069768268,"midi":85,"time":114.76744186046511,"velocity":0.3779527559055118},{"duration":0.023255813953497295,"midi":81,"time":114.77906976744185,"velocity":0.4251968503937008},{"duration":0.023255813953483084,"midi":45,"time":114.79069767441861,"velocity":0.33070866141732286},{"duration":0.04651162790696617,"midi":58,"time":114.79069767441861,"velocity":0.29133858267716534},{"duration":0.034883720930224626,"midi":68,"time":114.79069767441861,"velocity":0.2125984251968504},{"duration":0.40697674418603924,"midi":73,"time":114.79069767441861,"velocity":0.36220472440944884},{"duration":0.16279069767441,"midi":80,"time":114.79069767441861,"velocity":0.3228346456692913},{"duration":0.034883720930224626,"midi":83,"time":114.79069767441861,"velocity":0.11811023622047244},{"duration":0.023255813953483084,"midi":79,"time":114.80232558139535,"velocity":0.25196850393700787},{"duration":0.023255813953483084,"midi":88,"time":114.80232558139535,"velocity":0.33070866141732286},{"duration":0.04651162790698038,"midi":46,"time":114.81395348837209,"velocity":0.25984251968503935},{"duration":0.06976744186046346,"midi":84,"time":114.82558139534883,"velocity":0.10236220472440945},{"duration":0.05813953488372192,"midi":95,"time":114.82558139534883,"velocity":0.23622047244094488},{"duration":0.023255813953497295,"midi":35,"time":114.83720930232558,"velocity":0.3228346456692913},{"duration":0.023255813953483084,"midi":61,"time":114.84883720930233,"velocity":0.2283464566929134},{"duration":0.12790697674418539,"midi":86,"time":114.84883720930233,"velocity":0.23622047244094488},{"duration":0.04651162790696617,"midi":93,"time":114.84883720930233,"velocity":0.16535433070866143},{"duration":0.05813953488372192,"midi":34,"time":114.86046511627907,"velocity":0.3228346456692913},{"duration":0.023255813953483084,"midi":59,"time":114.87209302325581,"velocity":0.25196850393700787},{"duration":0.023255813953483084,"midi":76,"time":114.87209302325581,"velocity":0.36220472440944884},{"duration":0.03488372093023884,"midi":81,"time":114.87209302325581,"velocity":0.36220472440944884},{"duration":0.15116279069768268,"midi":53,"time":114.88372093023256,"velocity":0.3543307086614173},{"duration":0.081395348837205,"midi":100,"time":114.88372093023256,"velocity":0.33858267716535434},{"duration":0.03488372093023884,"midi":75,"time":114.8953488372093,"velocity":0.2283464566929134},{"duration":0.023255813953483084,"midi":59,"time":114.90697674418605,"velocity":0.3700787401574803},{"duration":0.04651162790696617,"midi":90,"time":114.90697674418605,"velocity":0.3779527559055118},{"duration":0.034883720930224626,"midi":95,"time":114.90697674418605,"velocity":0.15748031496062992},{"duration":0.034883720930224626,"midi":68,"time":114.9186046511628,"velocity":0.16535433070866143},{"duration":0.13953488372092693,"midi":77,"time":114.9186046511628,"velocity":0.3779527559055118},{"duration":0.04651162790696617,"midi":79,"time":114.9186046511628,"velocity":0.1968503937007874},{"duration":0.023255813953483084,"midi":45,"time":114.93023255813954,"velocity":0.33858267716535434},{"duration":0.034883720930224626,"midi":58,"time":114.93023255813954,"velocity":0.3858267716535433},{"duration":0.034883720930224626,"midi":93,"time":114.93023255813954,"velocity":0.10236220472440945},{"duration":0.023255813953483084,"midi":37,"time":114.94186046511628,"velocity":0.2755905511811024},{"duration":0.04651162790698038,"midi":75,"time":114.94186046511628,"velocity":0.11811023622047244},{"duration":0.023255813953483084,"midi":81,"time":114.94186046511628,"velocity":0.28346456692913385},{"duration":0.05813953488372192,"midi":46,"time":114.95348837209302,"velocity":0.2677165354330709},{"duration":0.023255813953497295,"midi":63,"time":114.96511627906976,"velocity":0.2440944881889764},{"duration":0.24418604651162923,"midi":82,"time":114.96511627906976,"velocity":0.3700787401574803},{"duration":0.023255813953483084,"midi":35,"time":114.97674418604652,"velocity":0.33858267716535434},{"duration":0.09302325581394655,"midi":70,"time":114.97674418604652,"velocity":0.3543307086614173},{"duration":0.034883720930224626,"midi":88,"time":114.97674418604652,"velocity":0.25196850393700787},{"duration":0.04651162790698038,"midi":34,"time":115,"velocity":0.33070866141732286},{"duration":0.03488372093023884,"midi":80,"time":115,"velocity":0.11023622047244094},{"duration":0.03488372093023884,"midi":84,"time":115,"velocity":0.13385826771653545},{"duration":0.15116279069766847,"midi":86,"time":115,"velocity":0.1889763779527559},{"duration":0.03488372093023884,"midi":58,"time":115.01162790697674,"velocity":0.4409448818897638},{"duration":0.023255813953497295,"midi":63,"time":115.01162790697674,"velocity":0.2755905511811024},{"duration":0.023255813953483084,"midi":67,"time":115.03488372093024,"velocity":0.3464566929133858},{"duration":0.10465116279068809,"midi":88,"time":115.03488372093024,"velocity":0.28346456692913385},{"duration":0.2906976744185954,"midi":90,"time":115.03488372093024,"velocity":0.33070866141732286},{"duration":0.17441860465115155,"midi":91,"time":115.03488372093024,"velocity":0.33858267716535434},{"duration":0.034883720930224626,"midi":95,"time":115.03488372093024,"velocity":0.1889763779527559},{"duration":0.09302325581394655,"midi":96,"time":115.03488372093024,"velocity":0.25196850393700787},{"duration":0.011627906976741542,"midi":55,"time":115.04651162790698,"velocity":0.5433070866141733},{"duration":0.023255813953483084,"midi":61,"time":115.04651162790698,"velocity":0.3543307086614173},{"duration":0.05813953488372192,"midi":76,"time":115.04651162790698,"velocity":0.44881889763779526},{"duration":0.05813953488372192,"midi":83,"time":115.04651162790698,"velocity":0.15748031496062992},{"duration":0.13953488372092693,"midi":92,"time":115.04651162790698,"velocity":0.25196850393700787},{"duration":0.17441860465116577,"midi":98,"time":115.05813953488372,"velocity":0.28346456692913385},{"duration":0.011627906976741542,"midi":45,"time":115.06976744186046,"velocity":0.5511811023622047},{"duration":0.011627906976741542,"midi":44,"time":115.0813953488372,"velocity":0.5905511811023622},{"duration":0.023255813953497295,"midi":69,"time":115.0813953488372,"velocity":0.23622047244094488},{"duration":0.011627906976755753,"midi":43,"time":115.09302325581395,"velocity":0.5748031496062992},{"duration":0.03488372093023884,"midi":65,"time":115.09302325581395,"velocity":0.2440944881889764},{"duration":0.08139534883721922,"midi":87,"time":115.09302325581395,"velocity":0.1889763779527559},{"duration":0.04651162790696617,"midi":57,"time":115.1046511627907,"velocity":0.41732283464566927},{"duration":0.10465116279068809,"midi":70,"time":115.1046511627907,"velocity":0.49606299212598426},{"duration":0.05813953488372192,"midi":75,"time":115.1046511627907,"velocity":0.4409448818897638},{"duration":0.034883720930224626,"midi":84,"time":115.11627906976744,"velocity":0.14960629921259844},{"duration":0.06976744186046346,"midi":80,"time":115.12790697674419,"velocity":0.2204724409448819},{"duration":0.19767441860464885,"midi":97,"time":115.12790697674419,"velocity":0.28346456692913385},{"duration":0.023255813953497295,"midi":37,"time":115.13953488372093,"velocity":0.4015748031496063},{"duration":0.05813953488372192,"midi":65,"time":115.13953488372093,"velocity":0.28346456692913385},{"duration":0.023255813953483084,"midi":86,"time":115.16279069767442,"velocity":0.2755905511811024},{"duration":0.034883720930224626,"midi":93,"time":115.16279069767442,"velocity":0.25196850393700787},{"duration":0.081395348837205,"midi":96,"time":115.16279069767442,"velocity":0.10236220472440945},{"duration":0.081395348837205,"midi":78,"time":115.17441860465117,"velocity":0.33858267716535434},{"duration":0.05813953488372192,"midi":88,"time":115.17441860465117,"velocity":0.1968503937007874},{"duration":0.081395348837205,"midi":95,"time":115.17441860465117,"velocity":0.12598425196850394},{"duration":0.09302325581394655,"midi":99,"time":115.17441860465117,"velocity":0.2440944881889764},{"duration":0.04651162790698038,"midi":76,"time":115.18604651162791,"velocity":0.25984251968503935},{"duration":0.1046511627907023,"midi":83,"time":115.18604651162791,"velocity":0.4094488188976378},{"duration":0.03488372093023884,"midi":87,"time":115.18604651162791,"velocity":0.3464566929133858},{"duration":0.17441860465116577,"midi":48,"time":115.19767441860465,"velocity":0.3464566929133858},{"duration":0.023255813953497295,"midi":58,"time":115.19767441860465,"velocity":0.3858267716535433},{"duration":0.06976744186046346,"midi":71,"time":115.19767441860465,"velocity":0.5039370078740157},{"duration":0.03488372093023884,"midi":81,"time":115.19767441860465,"velocity":0.1889763779527559},{"duration":0.06976744186046346,"midi":101,"time":115.20930232558139,"velocity":0.2047244094488189},{"duration":0.023255813953483084,"midi":55,"time":115.22093023255815,"velocity":0.2992125984251969},{"duration":0.034883720930224626,"midi":59,"time":115.22093023255815,"velocity":0.3700787401574803},{"duration":0.10465116279068809,"midi":36,"time":115.23255813953489,"velocity":0.36220472440944884},{"duration":0.034883720930224626,"midi":80,"time":115.23255813953489,"velocity":0.10236220472440945},{"duration":0.034883720930224626,"midi":82,"time":115.23255813953489,"velocity":0.12598425196850394},{"duration":0.10465116279068809,"midi":87,"time":115.23255813953489,"velocity":0.3937007874015748},{"duration":0.04651162790696617,"midi":94,"time":115.23255813953489,"velocity":0.14173228346456693},{"duration":0.04651162790698038,"midi":77,"time":115.24418604651163,"velocity":0.18110236220472442},{"duration":0.023255813953483084,"midi":68,"time":115.25581395348837,"velocity":0.23622047244094488},{"duration":0.03488372093023884,"midi":70,"time":115.25581395348837,"velocity":0.4015748031496063},{"duration":0.04651162790698038,"midi":73,"time":115.25581395348837,"velocity":0.25984251968503935},{"duration":0.16279069767442422,"midi":100,"time":115.25581395348837,"velocity":0.28346456692913385},{"duration":0.03488372093023884,"midi":76,"time":115.26744186046511,"velocity":0.29133858267716534},{"duration":0.04651162790698038,"midi":78,"time":115.26744186046511,"velocity":0.2125984251968504},{"duration":0.05813953488372192,"midi":55,"time":115.27906976744185,"velocity":0.3700787401574803},{"duration":0.04651162790698038,"midi":80,"time":115.27906976744185,"velocity":0.2125984251968504},{"duration":0.09302325581396076,"midi":91,"time":115.27906976744185,"velocity":0.1889763779527559},{"duration":0.1860465116279073,"midi":96,"time":115.29069767441861,"velocity":0.2677165354330709},{"duration":0.034883720930224626,"midi":72,"time":115.30232558139535,"velocity":0.5275590551181102},{"duration":0.06976744186046346,"midi":75,"time":115.30232558139535,"velocity":0.2755905511811024},{"duration":0.05813953488372192,"midi":77,"time":115.30232558139535,"velocity":0.11811023622047244},{"duration":0.05813953488372192,"midi":88,"time":115.30232558139535,"velocity":0.25984251968503935},{"duration":0.16279069767441,"midi":101,"time":115.30232558139535,"velocity":0.25196850393700787},{"duration":0.023255813953483084,"midi":70,"time":115.31395348837209,"velocity":0.29133858267716534},{"duration":0.03488372093023884,"midi":98,"time":115.31395348837209,"velocity":0.10236220472440945},{"duration":0.023255813953497295,"midi":79,"time":115.32558139534883,"velocity":0.23622047244094488},{"duration":0.023255813953497295,"midi":56,"time":115.33720930232558,"velocity":0.28346456692913385},{"duration":0.13953488372094114,"midi":65,"time":115.33720930232558,"velocity":0.2677165354330709},{"duration":0.08139534883721922,"midi":73,"time":115.33720930232558,"velocity":0.5511811023622047},{"duration":0.03488372093023884,"midi":86,"time":115.33720930232558,"velocity":0.13385826771653545},{"duration":0.05813953488372192,"midi":80,"time":115.34883720930233,"velocity":0.2755905511811024},{"duration":0.081395348837205,"midi":103,"time":115.34883720930233,"velocity":0.2204724409448819},{"duration":0.034883720930224626,"midi":70,"time":115.36046511627907,"velocity":0.3543307086614173},{"duration":0.034883720930224626,"midi":89,"time":115.36046511627907,"velocity":0.25196850393700787},{"duration":0.48837209302325846,"midi":99,"time":115.36046511627907,"velocity":0.33070866141732286},{"duration":0.05813953488372192,"midi":59,"time":115.37209302325581,"velocity":0.4015748031496063},{"duration":0.03488372093023884,"midi":71,"time":115.38372093023256,"velocity":0.4409448818897638},{"duration":0.13953488372094114,"midi":86,"time":115.3953488372093,"velocity":0.33858267716535434},{"duration":0.023255813953497295,"midi":88,"time":115.3953488372093,"velocity":0.25984251968503935},{"duration":0.081395348837205,"midi":77,"time":115.40697674418605,"velocity":0.28346456692913385},{"duration":0.034883720930224626,"midi":70,"time":115.4186046511628,"velocity":0.47244094488188976},{"duration":0.04651162790696617,"midi":93,"time":115.4186046511628,"velocity":0.11811023622047244},{"duration":0.22093023255813193,"midi":97,"time":115.4186046511628,"velocity":0.2677165354330709},{"duration":0.023255813953483084,"midi":58,"time":115.43023255813954,"velocity":0.23622047244094488},{"duration":0.05813953488372192,"midi":80,"time":115.43023255813954,"velocity":0.14173228346456693},{"duration":0.06976744186046346,"midi":91,"time":115.43023255813954,"velocity":0.2047244094488189},{"duration":0.081395348837205,"midi":100,"time":115.43023255813954,"velocity":0.33070866141732286},{"duration":0.081395348837205,"midi":62,"time":115.44186046511628,"velocity":0.2204724409448819},{"duration":0.03488372093023884,"midi":94,"time":115.44186046511628,"velocity":0.08661417322834646},{"duration":0.023255813953497295,"midi":45,"time":115.45348837209302,"velocity":0.33070866141732286},{"duration":0.04651162790698038,"midi":76,"time":115.45348837209302,"velocity":0.14173228346456693},{"duration":0.03488372093023884,"midi":56,"time":115.46511627906976,"velocity":0.3543307086614173},{"duration":0.05813953488372192,"midi":82,"time":115.46511627906976,"velocity":0.31496062992125984},{"duration":0.08139534883721922,"midi":87,"time":115.46511627906976,"velocity":0.18110236220472442},{"duration":0.09302325581394655,"midi":46,"time":115.47674418604652,"velocity":0.2755905511811024},{"duration":0.023255813953483084,"midi":73,"time":115.47674418604652,"velocity":0.23622047244094488},{"duration":0.05813953488372192,"midi":70,"time":115.48837209302326,"velocity":0.4251968503937008},{"duration":0.11627906976744384,"midi":84,"time":115.48837209302326,"velocity":0.25984251968503935},{"duration":0.06976744186046346,"midi":89,"time":115.48837209302326,"velocity":0.25196850393700787},{"duration":0.023255813953483084,"midi":35,"time":115.5,"velocity":0.31496062992125984},{"duration":0.05813953488372192,"midi":57,"time":115.5,"velocity":0.31496062992125984},{"duration":0.06976744186046346,"midi":72,"time":115.5,"velocity":0.30708661417322836},{"duration":0.03488372093023884,"midi":77,"time":115.5,"velocity":0.18110236220472442},{"duration":0.05813953488372192,"midi":34,"time":115.52325581395348,"velocity":0.30708661417322836},{"duration":0.03488372093023884,"midi":61,"time":115.52325581395348,"velocity":0.33070866141732286},{"duration":0.16279069767441,"midi":95,"time":115.53488372093024,"velocity":0.2992125984251969},{"duration":0.3139534883720927,"midi":85,"time":115.54651162790698,"velocity":0.3464566929133858},{"duration":0.22093023255813193,"midi":100,"time":115.54651162790698,"velocity":0.2677165354330709},{"duration":0.034883720930224626,"midi":60,"time":115.55813953488372,"velocity":0.3543307086614173},{"duration":0.034883720930224626,"midi":65,"time":115.55813953488372,"velocity":0.2755905511811024},{"duration":0.034883720930224626,"midi":80,"time":115.55813953488372,"velocity":0.1968503937007874},{"duration":0.15116279069766847,"midi":93,"time":115.55813953488372,"velocity":0.2755905511811024},{"duration":0.034883720930224626,"midi":94,"time":115.55813953488372,"velocity":0.15748031496062992},{"duration":0.05813953488372192,"midi":103,"time":115.55813953488372,"velocity":0.18110236220472442},{"duration":0.023255813953483084,"midi":73,"time":115.56976744186046,"velocity":0.4015748031496063},{"duration":0.04651162790698038,"midi":76,"time":115.56976744186046,"velocity":0.2204724409448819},{"duration":0.06976744186046346,"midi":81,"time":115.56976744186046,"velocity":0.29133858267716534},{"duration":0.05813953488372192,"midi":86,"time":115.56976744186046,"velocity":0.2047244094488189},{"duration":0.081395348837205,"midi":90,"time":115.56976744186046,"velocity":0.30708661417322836},{"duration":0.27906976744186807,"midi":92,"time":115.56976744186046,"velocity":0.5039370078740157},{"duration":0.11627906976744384,"midi":96,"time":115.56976744186046,"velocity":0.33070866141732286},{"duration":0.081395348837205,"midi":98,"time":115.56976744186046,"velocity":0.2755905511811024},{"duration":0.03488372093023884,"midi":69,"time":115.5813953488372,"velocity":0.2125984251968504},{"duration":0.03488372093023884,"midi":89,"time":115.5813953488372,"velocity":0.14173228346456693},{"duration":0.011627906976755753,"midi":46,"time":115.59302325581395,"velocity":0.5354330708661418},{"duration":0.03488372093023884,"midi":62,"time":115.59302325581395,"velocity":0.2677165354330709},{"duration":0.03488372093023884,"midi":72,"time":115.59302325581395,"velocity":0.44881889763779526},{"duration":0.09302325581396076,"midi":74,"time":115.59302325581395,"velocity":0.5748031496062992},{"duration":0.011627906976741542,"midi":45,"time":115.6046511627907,"velocity":0.6062992125984252},{"duration":0.05813953488372192,"midi":77,"time":115.6046511627907,"velocity":0.18110236220472442},{"duration":0.011627906976741542,"midi":44,"time":115.61627906976744,"velocity":0.5905511811023622},{"duration":0.15116279069766847,"midi":65,"time":115.61627906976744,"velocity":0.30708661417322836},{"duration":0.023255813953483084,"midi":42,"time":115.62790697674419,"velocity":0.5118110236220472},{"duration":0.04651162790698038,"midi":58,"time":115.62790697674419,"velocity":0.25984251968503935},{"duration":0.09302325581396076,"midi":80,"time":115.62790697674419,"velocity":0.2440944881889764},{"duration":0.4534883720930196,"midi":101,"time":115.62790697674419,"velocity":0.29133858267716534},{"duration":0.2906976744186096,"midi":82,"time":115.63953488372093,"velocity":0.1889763779527559},{"duration":0.19767441860464885,"midi":89,"time":115.63953488372093,"velocity":0.3543307086614173},{"duration":0.09302325581396076,"midi":78,"time":115.65116279069767,"velocity":0.2204724409448819},{"duration":0.418604651162795,"midi":97,"time":115.65116279069767,"velocity":0.3700787401574803},{"duration":0.04651162790698038,"midi":103,"time":115.65116279069767,"velocity":0.28346456692913385},{"duration":0.023255813953483084,"midi":54,"time":115.66279069767442,"velocity":0.33070866141732286},{"duration":0.023255813953483084,"midi":46,"time":115.67441860465117,"velocity":0.2677165354330709},{"duration":0.1860465116279073,"midi":61,"time":115.67441860465117,"velocity":0.4015748031496063},{"duration":0.023255813953483084,"midi":55,"time":115.68604651162791,"velocity":0.30708661417322836},{"duration":0.13953488372092693,"midi":73,"time":115.68604651162791,"velocity":0.5905511811023622},{"duration":0.03488372093023884,"midi":98,"time":115.68604651162791,"velocity":0.11811023622047244},{"duration":0.12790697674418539,"midi":54,"time":115.70930232558139,"velocity":0.25984251968503935},{"duration":0.023255813953497295,"midi":91,"time":115.70930232558139,"velocity":0.47244094488188976},{"duration":0.06976744186046346,"midi":96,"time":115.70930232558139,"velocity":0.1889763779527559},{"duration":0.11627906976744384,"midi":70,"time":115.73255813953489,"velocity":0.2047244094488189},{"duration":0.034883720930224626,"midi":80,"time":115.73255813953489,"velocity":0.2125984251968504},{"duration":0.15116279069766847,"midi":95,"time":115.73255813953489,"velocity":0.41732283464566927},{"duration":0.09302325581394655,"midi":103,"time":115.73255813953489,"velocity":0.25984251968503935},{"duration":0.023255813953483084,"midi":74,"time":115.75581395348837,"velocity":0.3858267716535433},{"duration":0.04651162790698038,"midi":80,"time":115.77906976744185,"velocity":0.23622047244094488},{"duration":0.40697674418605345,"midi":102,"time":115.77906976744185,"velocity":0.4330708661417323},{"duration":0.023255813953483084,"midi":93,"time":115.79069767441861,"velocity":0.3779527559055118},{"duration":0.09302325581394655,"midi":100,"time":115.79069767441861,"velocity":0.2204724409448819},{"duration":0.06976744186046346,"midi":81,"time":115.80232558139535,"velocity":0.2047244094488189},{"duration":0.05813953488372192,"midi":96,"time":115.80232558139535,"velocity":0.12598425196850394},{"duration":0.05813953488372192,"midi":98,"time":115.80232558139535,"velocity":0.16535433070866143},{"duration":0.03488372093023884,"midi":88,"time":115.82558139534883,"velocity":0.1968503937007874},{"duration":0.04651162790698038,"midi":91,"time":115.82558139534883,"velocity":0.4881889763779528},{"duration":0.2906976744186096,"midi":73,"time":115.83720930232558,"velocity":0.5590551181102362},{"duration":0.023255813953483084,"midi":55,"time":115.84883720930233,"velocity":0.23622047244094488},{"duration":0.06976744186046346,"midi":69,"time":115.84883720930233,"velocity":0.1732283464566929},{"duration":0.25581395348837077,"midi":80,"time":115.84883720930233,"velocity":0.36220472440944884},{"duration":0.17441860465115155,"midi":89,"time":115.84883720930233,"velocity":0.49606299212598426},{"duration":0.04651162790696617,"midi":94,"time":115.84883720930233,"velocity":0.25984251968503935},{"duration":0.023255813953483084,"midi":46,"time":115.86046511627907,"velocity":0.30708661417322836},{"duration":0.05813953488372192,"midi":84,"time":115.86046511627907,"velocity":0.2204724409448819},{"duration":0.3953488372092977,"midi":92,"time":115.86046511627907,"velocity":0.44881889763779526},{"duration":0.8139534883720927,"midi":99,"time":115.86046511627907,"velocity":0.5196850393700787},{"duration":0.04651162790698038,"midi":66,"time":115.87209302325581,"velocity":0.29133858267716534},{"duration":0.05813953488372192,"midi":61,"time":115.8953488372093,"velocity":0.28346456692913385},{"duration":0.27906976744186807,"midi":95,"time":115.8953488372093,"velocity":0.29133858267716534},{"duration":0.09302325581394655,"midi":70,"time":115.90697674418605,"velocity":0.1968503937007874},{"duration":0.05813953488372192,"midi":58,"time":115.9186046511628,"velocity":0.23622047244094488},{"duration":0.034883720930224626,"midi":103,"time":115.9186046511628,"velocity":0.2204724409448819},{"duration":0.034883720930224626,"midi":66,"time":115.93023255813954,"velocity":0.33070866141732286},{"duration":0.03488372093023884,"midi":83,"time":115.96511627906976,"velocity":0.13385826771653545},{"duration":0.05813953488372192,"midi":61,"time":115.97674418604652,"velocity":0.25984251968503935},{"duration":0.06976744186046346,"midi":66,"time":115.97674418604652,"velocity":0.3228346456692913},{"duration":0.034883720930224626,"midi":84,"time":115.97674418604652,"velocity":0.15748031496062992},{"duration":0.06976744186046346,"midi":69,"time":115.98837209302326,"velocity":0.1889763779527559},{"duration":0.34883720930233153,"midi":77,"time":116,"velocity":0.3543307086614173},{"duration":0.04651162790698038,"midi":82,"time":116,"velocity":0.1889763779527559},{"duration":0.03488372093023884,"midi":58,"time":116.01162790697674,"velocity":0.2204724409448819},{"duration":0.03488372093023884,"midi":88,"time":116.02325581395348,"velocity":0.4251968503937008},{"duration":0.06976744186046346,"midi":62,"time":116.03488372093024,"velocity":0.44881889763779526},{"duration":0.034883720930224626,"midi":103,"time":116.03488372093024,"velocity":0.31496062992125984},{"duration":0.034883720930224626,"midi":46,"time":116.04651162790698,"velocity":0.2755905511811024},{"duration":0.081395348837205,"midi":86,"time":116.04651162790698,"velocity":0.3700787401574803},{"duration":0.023255813953483084,"midi":66,"time":116.05813953488372,"velocity":0.2283464566929134},{"duration":0.023255813953497295,"midi":58,"time":116.0813953488372,"velocity":0.4094488188976378},{"duration":0.17441860465116577,"midi":70,"time":116.0813953488372,"velocity":0.4251968503937008},{"duration":0.03488372093023884,"midi":78,"time":116.09302325581395,"velocity":0.2047244094488189},{"duration":0.05813953488372192,"midi":96,"time":116.09302325581395,"velocity":0.1889763779527559},{"duration":0.22093023255814614,"midi":103,"time":116.09302325581395,"velocity":0.44881889763779526},{"duration":0.16279069767441,"midi":63,"time":116.1046511627907,"velocity":0.4645669291338583},{"duration":0.034883720930224626,"midi":83,"time":116.1046511627907,"velocity":0.14173228346456693},{"duration":0.12790697674418539,"midi":91,"time":116.1046511627907,"velocity":0.3228346456692913},{"duration":0.023255813953483084,"midi":45,"time":116.11627906976744,"velocity":0.5669291338582677},{"duration":0.011627906976741542,"midi":44,"time":116.13953488372093,"velocity":0.5748031496062992},{"duration":0.12790697674418539,"midi":73,"time":116.13953488372093,"velocity":0.4409448818897638},{"duration":0.011627906976755753,"midi":43,"time":116.15116279069767,"velocity":0.5590551181102362},{"duration":0.011627906976741542,"midi":42,"time":116.16279069767442,"velocity":0.5275590551181102},{"duration":0.081395348837205,"midi":58,"time":116.16279069767442,"velocity":0.2125984251968504},{"duration":0.034883720930224626,"midi":100,"time":116.17441860465117,"velocity":0.09448818897637795},{"duration":0.023255813953483084,"midi":53,"time":116.18604651162791,"velocity":0.2440944881889764},{"duration":0.04651162790698038,"midi":80,"time":116.19767441860465,"velocity":0.25984251968503935},{"duration":0.023255813953497295,"midi":37,"time":116.20930232558139,"velocity":0.3464566929133858},{"duration":0.03488372093023884,"midi":66,"time":116.20930232558139,"velocity":0.33070866141732286},{"duration":0.034883720930224626,"midi":90,"time":116.22093023255815,"velocity":0.1968503937007874},{"duration":0.081395348837205,"midi":88,"time":116.23255813953489,"velocity":0.28346456692913385},{"duration":0.034883720930224626,"midi":93,"time":116.23255813953489,"velocity":0.16535433070866143},{"duration":0.034883720930224626,"midi":95,"time":116.23255813953489,"velocity":0.11023622047244094},{"duration":0.081395348837205,"midi":81,"time":116.24418604651163,"velocity":0.29133858267716534},{"duration":0.034883720930224626,"midi":83,"time":116.24418604651163,"velocity":0.08661417322834646},{"duration":0.04651162790698038,"midi":48,"time":116.25581395348837,"velocity":0.33070866141732286},{"duration":0.04651162790698038,"midi":69,"time":116.25581395348837,"velocity":0.5590551181102362},{"duration":0.03488372093023884,"midi":79,"time":116.25581395348837,"velocity":0.08661417322834646},{"duration":0.03488372093023884,"midi":55,"time":116.26744186046511,"velocity":0.2125984251968504},{"duration":0.04651162790698038,"midi":61,"time":116.26744186046511,"velocity":0.3937007874015748},{"duration":0.023255813953497295,"midi":64,"time":116.26744186046511,"velocity":0.3464566929133858},{"duration":0.10465116279068809,"midi":73,"time":116.29069767441861,"velocity":0.3937007874015748},{"duration":0.081395348837205,"midi":75,"time":116.29069767441861,"velocity":0.3228346456692913},{"duration":0.04651162790698038,"midi":36,"time":116.30232558139535,"velocity":0.31496062992125984},{"duration":0.023255813953483084,"midi":56,"time":116.30232558139535,"velocity":0.2283464566929134},{"duration":0.06976744186046346,"midi":68,"time":116.30232558139535,"velocity":0.6062992125984252},{"duration":0.22093023255813193,"midi":87,"time":116.30232558139535,"velocity":0.5039370078740157},{"duration":0.05813953488372192,"midi":63,"time":116.32558139534883,"velocity":0.3858267716535433},{"duration":0.12790697674418539,"midi":101,"time":116.32558139534883,"velocity":0.25196850393700787},{"duration":0.03488372093023884,"midi":92,"time":116.33720930232558,"velocity":0.14173228346456693},{"duration":0.06976744186047767,"midi":98,"time":116.33720930232558,"velocity":0.2125984251968504},{"duration":0.16279069767442422,"midi":103,"time":116.33720930232558,"velocity":0.2125984251968504},{"duration":0.034883720930224626,"midi":82,"time":116.34883720930233,"velocity":0.10236220472440945},{"duration":0.15116279069766847,"midi":89,"time":116.34883720930233,"velocity":0.4330708661417323},{"duration":0.06976744186046346,"midi":91,"time":116.34883720930233,"velocity":0.2204724409448819},{"duration":0.06976744186046346,"midi":83,"time":116.36046511627907,"velocity":0.3543307086614173},{"duration":0.081395348837205,"midi":88,"time":116.36046511627907,"velocity":0.3228346456692913},{"duration":0.023255813953483084,"midi":79,"time":116.37209302325581,"velocity":0.3779527559055118},{"duration":0.06976744186046346,"midi":90,"time":116.37209302325581,"velocity":0.29133858267716534},{"duration":0.11627906976744384,"midi":94,"time":116.37209302325581,"velocity":0.14173228346456693},{"duration":0.023255813953497295,"midi":45,"time":116.38372093023256,"velocity":0.3700787401574803},{"duration":0.023255813953497295,"midi":66,"time":116.38372093023256,"velocity":0.25984251968503935},{"duration":0.03488372093023884,"midi":76,"time":116.38372093023256,"velocity":0.2283464566929134},{"duration":0.15116279069768268,"midi":63,"time":116.3953488372093,"velocity":0.3779527559055118},{"duration":0.09302325581396076,"midi":78,"time":116.3953488372093,"velocity":0.4094488188976378},{"duration":0.05813953488372192,"midi":92,"time":116.3953488372093,"velocity":0.16535433070866143},{"duration":0.023255813953483084,"midi":46,"time":116.40697674418605,"velocity":0.28346456692913385},{"duration":0.05813953488370771,"midi":68,"time":116.40697674418605,"velocity":0.33070866141732286},{"duration":0.05813953488370771,"midi":71,"time":116.40697674418605,"velocity":0.3543307086614173},{"duration":0.081395348837205,"midi":86,"time":116.40697674418605,"velocity":0.4094488188976378},{"duration":0.023255813953483084,"midi":57,"time":116.4186046511628,"velocity":0.30708661417322836},{"duration":0.04651162790696617,"midi":73,"time":116.4186046511628,"velocity":0.2125984251968504},{"duration":0.06976744186046346,"midi":82,"time":116.4186046511628,"velocity":0.4094488188976378},{"duration":0.3372093023255758,"midi":84,"time":116.4186046511628,"velocity":0.4645669291338583},{"duration":0.7093023255813904,"midi":100,"time":116.4186046511628,"velocity":0.41732283464566927},{"duration":0.081395348837205,"midi":77,"time":116.43023255813954,"velocity":0.3779527559055118},{"duration":0.03488372093023884,"midi":34,"time":116.44186046511628,"velocity":0.2992125984251969},{"duration":0.023255813953497295,"midi":57,"time":116.45348837209302,"velocity":0.33858267716535434},{"duration":0.03488372093023884,"midi":85,"time":116.45348837209302,"velocity":0.36220472440944884},{"duration":0.04651162790698038,"midi":91,"time":116.45348837209302,"velocity":0.15748031496062992},{"duration":0.023255813953483084,"midi":69,"time":116.47674418604652,"velocity":0.3937007874015748},{"duration":0.034883720930224626,"midi":83,"time":116.47674418604652,"velocity":0.44881889763779526},{"duration":0.24418604651162923,"midi":72,"time":116.48837209302326,"velocity":0.3779527559055118},{"duration":0.034883720930224626,"midi":90,"time":116.48837209302326,"velocity":0.3464566929133858},{"duration":0.081395348837205,"midi":68,"time":116.5,"velocity":0.3700787401574803},{"duration":0.03488372093023884,"midi":81,"time":116.5,"velocity":0.16535433070866143},{"duration":0.16279069767442422,"midi":86,"time":116.5,"velocity":0.2440944881889764},{"duration":0.081395348837205,"midi":79,"time":116.51162790697674,"velocity":0.3858267716535433},{"duration":0.2325581395348877,"midi":91,"time":116.51162790697674,"velocity":0.3858267716535433},{"duration":0.418604651162795,"midi":98,"time":116.51162790697674,"velocity":0.3464566929133858},{"duration":0.03488372093023884,"midi":56,"time":116.52325581395348,"velocity":0.2677165354330709},{"duration":0.2093023255814046,"midi":88,"time":116.52325581395348,"velocity":0.5826771653543307},{"duration":0.12790697674418539,"midi":82,"time":116.53488372093024,"velocity":0.2125984251968504},{"duration":0.034883720930224626,"midi":87,"time":116.53488372093024,"velocity":0.3464566929133858},{"duration":0.1860465116279073,"midi":94,"time":116.53488372093024,"velocity":0.30708661417322836},{"duration":0.1860465116279073,"midi":63,"time":116.55813953488372,"velocity":0.3228346456692913},{"duration":0.034883720930224626,"midi":89,"time":116.55813953488372,"velocity":0.11811023622047244},{"duration":0.023255813953483084,"midi":56,"time":116.56976744186046,"velocity":0.2440944881889764},{"duration":0.3139534883720927,"midi":68,"time":116.6046511627907,"velocity":0.30708661417322836},{"duration":0.04651162790696617,"midi":77,"time":116.6046511627907,"velocity":0.15748031496062992},{"duration":0.13953488372092693,"midi":79,"time":116.6046511627907,"velocity":0.3779527559055118},{"duration":0.15116279069766847,"midi":81,"time":116.61627906976744,"velocity":0.2204724409448819},{"duration":0.034883720930224626,"midi":95,"time":116.61627906976744,"velocity":0.2047244094488189},{"duration":0.05813953488372192,"midi":89,"time":116.62790697674419,"velocity":0.1968503937007874},{"duration":0.04651162790698038,"midi":92,"time":116.62790697674419,"velocity":0.14960629921259844},{"duration":0.011627906976755753,"midi":46,"time":116.65116279069767,"velocity":0.5354330708661418},{"duration":0.03488372093023884,"midi":87,"time":116.65116279069767,"velocity":0.2125984251968504},{"duration":0.011627906976741542,"midi":45,"time":116.66279069767442,"velocity":0.5669291338582677},{"duration":0.011627906976741542,"midi":43,"time":116.67441860465117,"velocity":0.5669291338582677},{"duration":0.05813953488372192,"midi":51,"time":116.67441860465117,"velocity":0.30708661417322836},{"duration":0.034883720930224626,"midi":83,"time":116.67441860465117,"velocity":0.18110236220472442},{"duration":0.4418604651162781,"midi":101,"time":116.67441860465117,"velocity":0.2992125984251969},{"duration":0.023255813953483084,"midi":42,"time":116.68604651162791,"velocity":0.5511811023622047},{"duration":0.13953488372094114,"midi":75,"time":116.70930232558139,"velocity":0.36220472440944884},{"duration":0.034883720930224626,"midi":38,"time":116.72093023255815,"velocity":0.3543307086614173},{"duration":0.06976744186046346,"midi":99,"time":116.72093023255815,"velocity":0.3464566929133858},{"duration":0.081395348837205,"midi":87,"time":116.73255813953489,"velocity":0.5275590551181102},{"duration":0.04651162790696617,"midi":95,"time":116.73255813953489,"velocity":0.2204724409448819},{"duration":0.034883720930224626,"midi":51,"time":116.74418604651163,"velocity":0.14960629921259844},{"duration":0.04651162790698038,"midi":72,"time":116.74418604651163,"velocity":0.31496062992125984},{"duration":0.05813953488372192,"midi":78,"time":116.74418604651163,"velocity":0.33858267716535434},{"duration":0.034883720930224626,"midi":83,"time":116.74418604651163,"velocity":0.4566929133858268},{"duration":0.034883720930224626,"midi":89,"time":116.74418604651163,"velocity":0.14173228346456693},{"duration":0.04651162790698038,"midi":90,"time":116.74418604651163,"velocity":0.48031496062992124},{"duration":0.023255813953483084,"midi":35,"time":116.75581395348837,"velocity":0.3543307086614173},{"duration":0.04651162790698038,"midi":63,"time":116.75581395348837,"velocity":0.16535433070866143},{"duration":0.023255813953497295,"midi":71,"time":116.76744186046511,"velocity":0.3228346456692913},{"duration":0.03488372093023884,"midi":88,"time":116.76744186046511,"velocity":0.3779527559055118},{"duration":0.12790697674418539,"midi":91,"time":116.76744186046511,"velocity":0.1732283464566929},{"duration":0.1046511627907023,"midi":92,"time":116.76744186046511,"velocity":0.1968503937007874},{"duration":0.08139534883721922,"midi":103,"time":116.76744186046511,"velocity":0.25984251968503935},{"duration":0.023255813953497295,"midi":34,"time":116.77906976744185,"velocity":0.2440944881889764},{"duration":0.04651162790698038,"midi":44,"time":116.77906976744185,"velocity":0.11811023622047244},{"duration":0.11627906976744384,"midi":82,"time":116.77906976744185,"velocity":0.5039370078740157},{"duration":0.09302325581396076,"midi":86,"time":116.77906976744185,"velocity":0.4015748031496063},{"duration":0.034883720930224626,"midi":70,"time":116.79069767441861,"velocity":0.3464566929133858},{"duration":0.081395348837205,"midi":77,"time":116.79069767441861,"velocity":0.4094488188976378},{"duration":0.09302325581394655,"midi":89,"time":116.79069767441861,"velocity":0.4881889763779528},{"duration":0.1046511627907023,"midi":72,"time":116.80232558139535,"velocity":0.29133858267716534},{"duration":0.15116279069766847,"midi":79,"time":116.81395348837209,"velocity":0.4881889763779528},{"duration":0.1046511627907023,"midi":88,"time":116.81395348837209,"velocity":0.3937007874015748},{"duration":0.09302325581396076,"midi":63,"time":116.83720930232558,"velocity":0.1968503937007874},{"duration":0.04651162790696617,"midi":58,"time":116.84883720930233,"velocity":0.29133858267716534},{"duration":0.034883720930224626,"midi":87,"time":116.84883720930233,"velocity":0.1889763779527559},{"duration":0.04651162790698038,"midi":85,"time":116.86046511627907,"velocity":0.36220472440944884},{"duration":0.05813953488372192,"midi":76,"time":116.87209302325581,"velocity":0.3228346456692913},{"duration":0.1046511627907023,"midi":81,"time":116.87209302325581,"velocity":0.5039370078740157},{"duration":0.09302325581394655,"midi":95,"time":116.87209302325581,"velocity":0.2047244094488189},{"duration":0.06976744186046346,"midi":103,"time":116.87209302325581,"velocity":0.1968503937007874},{"duration":0.023255813953497295,"midi":90,"time":116.88372093023256,"velocity":0.2283464566929134},{"duration":0.023255813953497295,"midi":57,"time":116.8953488372093,"velocity":0.3937007874015748},{"duration":0.09302325581396076,"midi":83,"time":116.8953488372093,"velocity":0.2677165354330709},{"duration":0.22093023255814614,"midi":89,"time":116.8953488372093,"velocity":0.4251968503937008},{"duration":0.03488372093023884,"midi":94,"time":116.8953488372093,"velocity":0.15748031496062992},{"duration":0.17441860465115155,"midi":44,"time":116.90697674418605,"velocity":0.3700787401574803},{"duration":0.023255813953483084,"midi":60,"time":116.90697674418605,"velocity":0.2283464566929134},{"duration":0.023255813953483084,"midi":74,"time":116.90697674418605,"velocity":0.2755905511811024},{"duration":0.04651162790696617,"midi":80,"time":116.90697674418605,"velocity":0.4409448818897638},{"duration":0.06976744186046346,"midi":86,"time":116.90697674418605,"velocity":0.41732283464566927},{"duration":0.034883720930224626,"midi":51,"time":116.9186046511628,"velocity":0.29133858267716534},{"duration":0.05813953488372192,"midi":56,"time":116.9186046511628,"velocity":0.3937007874015748},{"duration":0.23255813953487348,"midi":72,"time":116.9186046511628,"velocity":0.2992125984251969},{"duration":0.09302325581394655,"midi":75,"time":116.93023255813954,"velocity":0.3464566929133858},{"duration":0.09302325581394655,"midi":77,"time":116.93023255813954,"velocity":0.2283464566929134},{"duration":0.081395348837205,"midi":87,"time":116.93023255813954,"velocity":0.3543307086614173},{"duration":0.7441860465116292,"midi":63,"time":116.94186046511628,"velocity":0.48031496062992124},{"duration":0.27906976744186807,"midi":68,"time":116.94186046511628,"velocity":0.3937007874015748},{"duration":0.03488372093023884,"midi":33,"time":116.96511627906976,"velocity":0.2677165354330709},{"duration":0.05813953488372192,"midi":51,"time":116.96511627906976,"velocity":0.2755905511811024},{"duration":0.05813953488372192,"midi":80,"time":116.96511627906976,"velocity":0.5354330708661418},{"duration":0.04651162790698038,"midi":94,"time":116.96511627906976,"velocity":0.2204724409448819},{"duration":0.04651162790696617,"midi":70,"time":116.97674418604652,"velocity":0.14960629921259844},{"duration":0.034883720930224626,"midi":103,"time":116.97674418604652,"velocity":0.2992125984251969},{"duration":0.09302325581394655,"midi":82,"time":116.98837209302326,"velocity":0.31496062992125984},{"duration":0.11627906976744384,"midi":102,"time":116.98837209302326,"velocity":0.2440944881889764},{"duration":0.081395348837205,"midi":32,"time":117,"velocity":0.2677165354330709},{"duration":0.22093023255814614,"midi":83,"time":117,"velocity":0.2755905511811024},{"duration":0.05813953488372192,"midi":86,"time":117,"velocity":0.30708661417322836},{"duration":0.03488372093023884,"midi":90,"time":117,"velocity":0.14960629921259844},{"duration":0.1046511627907023,"midi":97,"time":117,"velocity":0.2047244094488189},{"duration":0.023255813953497295,"midi":88,"time":117.01162790697674,"velocity":0.2283464566929134},{"duration":0.5930232558139465,"midi":75,"time":117.03488372093024,"velocity":0.49606299212598426},{"duration":0.034883720930224626,"midi":77,"time":117.03488372093024,"velocity":0.16535433070866143},{"duration":0.034883720930224626,"midi":80,"time":117.03488372093024,"velocity":0.4409448818897638},{"duration":0.06976744186046346,"midi":79,"time":117.04651162790698,"velocity":0.4251968503937008},{"duration":0.17441860465116577,"midi":90,"time":117.06976744186046,"velocity":0.4251968503937008},{"duration":0.03488372093023884,"midi":93,"time":117.06976744186046,"velocity":0.07874015748031496},{"duration":0.05813953488372192,"midi":55,"time":117.0813953488372,"velocity":0.1968503937007874},{"duration":0.03488372093023884,"midi":85,"time":117.0813953488372,"velocity":0.14960629921259844},{"duration":0.04651162790698038,"midi":86,"time":117.0813953488372,"velocity":0.31496062992125984},{"duration":0.03488372093023884,"midi":96,"time":117.0813953488372,"velocity":0.10236220472440945},{"duration":0.03488372093023884,"midi":88,"time":117.09302325581395,"velocity":0.2047244094488189},{"duration":0.1279069767441996,"midi":92,"time":117.09302325581395,"velocity":0.1889763779527559},{"duration":0.11627906976744384,"midi":80,"time":117.11627906976744,"velocity":0.3937007874015748},{"duration":0.16279069767442422,"midi":89,"time":117.12790697674419,"velocity":0.23622047244094488},{"duration":0.023255813953497295,"midi":56,"time":117.13953488372093,"velocity":0.4566929133858268},{"duration":0.03488372093023884,"midi":82,"time":117.13953488372093,"velocity":0.13385826771653545},{"duration":0.03488372093023884,"midi":86,"time":117.13953488372093,"velocity":0.14960629921259844},{"duration":0.06976744186047767,"midi":93,"time":117.15116279069767,"velocity":0.14960629921259844},{"duration":0.09302325581396076,"midi":97,"time":117.15116279069767,"velocity":0.13385826771653545},{"duration":0.05813953488372192,"midi":100,"time":117.15116279069767,"velocity":0.14960629921259844},{"duration":0.05813953488372192,"midi":103,"time":117.15116279069767,"velocity":0.11023622047244094},{"duration":0.034883720930224626,"midi":45,"time":117.16279069767442,"velocity":0.5905511811023622},{"duration":0.011627906976741542,"midi":55,"time":117.16279069767442,"velocity":0.5118110236220472},{"duration":0.2674418604651123,"midi":72,"time":117.16279069767442,"velocity":0.29133858267716534},{"duration":0.034883720930224626,"midi":88,"time":117.16279069767442,"velocity":0.2125984251968504},{"duration":0.04651162790698038,"midi":91,"time":117.17441860465117,"velocity":0.12598425196850394},{"duration":0.011627906976741542,"midi":44,"time":117.19767441860465,"velocity":0.5905511811023622},{"duration":0.03488372093023884,"midi":82,"time":117.19767441860465,"velocity":0.14960629921259844},{"duration":0.011627906976755753,"midi":43,"time":117.20930232558139,"velocity":0.5669291338582677},{"duration":0.023255813953497295,"midi":51,"time":117.20930232558139,"velocity":0.2992125984251969},{"duration":0.011627906976741542,"midi":42,"time":117.22093023255815,"velocity":0.5275590551181102},{"duration":0.04651162790696617,"midi":79,"time":117.22093023255815,"velocity":0.13385826771653545},{"duration":0.22093023255813193,"midi":68,"time":117.24418604651163,"velocity":0.31496062992125984},{"duration":0.1046511627907023,"midi":56,"time":117.25581395348837,"velocity":0.3543307086614173},{"duration":0.05813953488372192,"midi":86,"time":117.25581395348837,"velocity":0.12598425196850394},{"duration":0.023255813953497295,"midi":37,"time":117.26744186046511,"velocity":0.3700787401574803},{"duration":0.04651162790698038,"midi":99,"time":117.26744186046511,"velocity":0.14173228346456693},{"duration":0.023255813953483084,"midi":36,"time":117.29069767441861,"velocity":0.28346456692913385},{"duration":0.05813953488372192,"midi":79,"time":117.29069767441861,"velocity":0.1889763779527559},{"duration":0.4767441860465169,"midi":99,"time":117.32558139534883,"velocity":0.2992125984251969},{"duration":0.03488372093023884,"midi":60,"time":117.33720930232558,"velocity":0.1889763779527559},{"duration":0.09302325581396076,"midi":82,"time":117.33720930232558,"velocity":0.16535433070866143},{"duration":0.17441860465116577,"midi":88,"time":117.36046511627907,"velocity":0.25984251968503935},{"duration":0.04651162790696617,"midi":77,"time":117.40697674418605,"velocity":0.2677165354330709},{"duration":0.05813953488370771,"midi":86,"time":117.40697674418605,"velocity":0.18110236220472442},{"duration":0.09302325581394655,"midi":90,"time":117.40697674418605,"velocity":0.2992125984251969},{"duration":0.19767441860464885,"midi":91,"time":117.40697674418605,"velocity":0.4566929133858268},{"duration":0.16279069767441,"midi":93,"time":117.40697674418605,"velocity":0.30708661417322836},{"duration":0.081395348837205,"midi":94,"time":117.40697674418605,"velocity":0.2125984251968504},{"duration":0.06976744186046346,"midi":96,"time":117.40697674418605,"velocity":0.3700787401574803},{"duration":0.023255813953483084,"midi":57,"time":117.4186046511628,"velocity":0.25196850393700787},{"duration":0.12790697674418539,"midi":92,"time":117.4186046511628,"velocity":0.4251968503937008},{"duration":0.09302325581394655,"midi":97,"time":117.4186046511628,"velocity":0.2677165354330709},{"duration":0.11627906976744384,"midi":44,"time":117.43023255813954,"velocity":0.3779527559055118},{"duration":0.023255813953483084,"midi":66,"time":117.43023255813954,"velocity":0.29133858267716534},{"duration":0.034883720930224626,"midi":73,"time":117.43023255813954,"velocity":0.30708661417322836},{"duration":0.023255813953483084,"midi":81,"time":117.43023255813954,"velocity":0.2283464566929134},{"duration":0.19767441860464885,"midi":98,"time":117.43023255813954,"velocity":0.23622047244094488},{"duration":0.17441860465116577,"midi":102,"time":117.43023255813954,"velocity":0.3228346456692913},{"duration":0.13953488372092693,"midi":95,"time":117.44186046511628,"velocity":0.4566929133858268},{"duration":0.06976744186046346,"midi":56,"time":117.45348837209302,"velocity":0.41732283464566927},{"duration":0.081395348837205,"midi":82,"time":117.47674418604652,"velocity":0.1889763779527559},{"duration":0.034883720930224626,"midi":89,"time":117.47674418604652,"velocity":0.14173228346456693},{"duration":0.12790697674418539,"midi":96,"time":117.48837209302326,"velocity":0.31496062992125984},{"duration":0.023255813953483084,"midi":33,"time":117.5,"velocity":0.25984251968503935},{"duration":0.081395348837205,"midi":67,"time":117.5,"velocity":0.2755905511811024},{"duration":0.05813953488372192,"midi":86,"time":117.5,"velocity":0.2125984251968504},{"duration":0.2674418604651123,"midi":94,"time":117.5,"velocity":0.3464566929133858},{"duration":0.03488372093023884,"midi":72,"time":117.51162790697674,"velocity":0.09448818897637795},{"duration":0.03488372093023884,"midi":74,"time":117.51162790697674,"velocity":0.36220472440944884},{"duration":0.03488372093023884,"midi":32,"time":117.52325581395348,"velocity":0.2283464566929134},{"duration":0.034883720930224626,"midi":83,"time":117.53488372093024,"velocity":0.18110236220472442},{"duration":0.06976744186046346,"midi":89,"time":117.53488372093024,"velocity":0.23622047244094488},{"duration":0.06976744186046346,"midi":97,"time":117.53488372093024,"velocity":0.12598425196850394},{"duration":0.081395348837205,"midi":81,"time":117.54651162790698,"velocity":0.2125984251968504},{"duration":0.081395348837205,"midi":90,"time":117.54651162790698,"velocity":0.2677165354330709},{"duration":0.034883720930224626,"midi":72,"time":117.55813953488372,"velocity":0.18110236220472442},{"duration":0.081395348837205,"midi":78,"time":117.55813953488372,"velocity":0.16535433070866143},{"duration":0.16279069767442422,"midi":92,"time":117.55813953488372,"velocity":0.2992125984251969},{"duration":0.034883720930224626,"midi":101,"time":117.55813953488372,"velocity":0.23622047244094488},{"duration":0.06976744186046346,"midi":51,"time":117.56976744186046,"velocity":0.2755905511811024},{"duration":0.03488372093023884,"midi":74,"time":117.56976744186046,"velocity":0.1889763779527559},{"duration":0.04651162790698038,"midi":77,"time":117.56976744186046,"velocity":0.2047244094488189},{"duration":0.03488372093023884,"midi":100,"time":117.56976744186046,"velocity":0.14960629921259844},{"duration":0.06976744186046346,"midi":44,"time":117.5813953488372,"velocity":0.3700787401574803},{"duration":0.023255813953497295,"midi":68,"time":117.5813953488372,"velocity":0.28346456692913385},{"duration":0.03488372093023884,"midi":70,"time":117.5813953488372,"velocity":0.2047244094488189},{"duration":0.03488372093023884,"midi":79,"time":117.5813953488372,"velocity":0.14173228346456693},{"duration":0.023255813953497295,"midi":57,"time":117.59302325581395,"velocity":0.4881889763779528},{"duration":0.11627906976744384,"midi":72,"time":117.6046511627907,"velocity":0.44881889763779526},{"duration":0.034883720930224626,"midi":56,"time":117.61627906976744,"velocity":0.48031496062992124},{"duration":0.034883720930224626,"midi":74,"time":117.61627906976744,"velocity":0.25196850393700787},{"duration":0.023255813953483084,"midi":33,"time":117.62790697674419,"velocity":0.29133858267716534},{"duration":0.1046511627907023,"midi":91,"time":117.62790697674419,"velocity":0.25196850393700787},{"duration":0.081395348837205,"midi":93,"time":117.62790697674419,"velocity":0.2677165354330709},{"duration":0.15116279069766847,"midi":102,"time":117.62790697674419,"velocity":0.29133858267716534},{"duration":0.12790697674418539,"midi":80,"time":117.63953488372093,"velocity":0.2992125984251969},{"duration":0.023255813953497295,"midi":32,"time":117.65116279069767,"velocity":0.2992125984251969},{"duration":0.05813953488372192,"midi":90,"time":117.65116279069767,"velocity":0.23622047244094488},{"duration":0.2093023255814046,"midi":95,"time":117.65116279069767,"velocity":0.3937007874015748},{"duration":0.034883720930224626,"midi":51,"time":117.66279069767442,"velocity":0.3700787401574803},{"duration":0.15116279069766847,"midi":97,"time":117.66279069767442,"velocity":0.2125984251968504},{"duration":0.034883720930224626,"midi":74,"time":117.67441860465117,"velocity":0.33070866141732286},{"duration":0.023255813953483084,"midi":88,"time":117.67441860465117,"velocity":0.2440944881889764},{"duration":0.11627906976744384,"midi":89,"time":117.67441860465117,"velocity":0.4251968503937008},{"duration":0.023255813953483084,"midi":59,"time":117.68604651162791,"velocity":0.3543307086614173},{"duration":0.04651162790698038,"midi":78,"time":117.68604651162791,"velocity":0.2755905511811024},{"duration":0.011627906976741542,"midi":48,"time":117.69767441860465,"velocity":0.5118110236220472},{"duration":0.11627906976744384,"midi":82,"time":117.69767441860465,"velocity":0.3543307086614173},{"duration":0.023255813953497295,"midi":87,"time":117.69767441860465,"velocity":0.2677165354330709},{"duration":0.011627906976755753,"midi":46,"time":117.70930232558139,"velocity":0.5748031496062992},{"duration":0.011627906976741542,"midi":45,"time":117.72093023255815,"velocity":0.6062992125984252},{"duration":0.11627906976742963,"midi":73,"time":117.72093023255815,"velocity":0.5669291338582677},{"duration":0.034883720930224626,"midi":103,"time":117.72093023255815,"velocity":0.2677165354330709},{"duration":0.023255813953483084,"midi":42,"time":117.73255813953489,"velocity":0.5905511811023622},{"duration":0.23255813953487348,"midi":68,"time":117.73255813953489,"velocity":0.3464566929133858},{"duration":0.17441860465116577,"midi":75,"time":117.73255813953489,"velocity":0.5826771653543307},{"duration":0.13953488372092693,"midi":92,"time":117.73255813953489,"velocity":0.3543307086614173},{"duration":0.1046511627907023,"midi":63,"time":117.74418604651163,"velocity":0.33858267716535434},{"duration":0.04651162790698038,"midi":91,"time":117.75581395348837,"velocity":0.1889763779527559},{"duration":0.03488372093023884,"midi":93,"time":117.75581395348837,"velocity":0.07086614173228346},{"duration":0.023255813953497295,"midi":40,"time":117.76744186046511,"velocity":0.4409448818897638},{"duration":0.11627906976744384,"midi":56,"time":117.76744186046511,"velocity":0.3700787401574803},{"duration":0.2093023255814046,"midi":103,"time":117.76744186046511,"velocity":0.33858267716535434},{"duration":0.40697674418603924,"midi":80,"time":117.79069767441861,"velocity":0.36220472440944884},{"duration":0.04651162790696617,"midi":90,"time":117.79069767441861,"velocity":0.49606299212598426},{"duration":0.081395348837205,"midi":96,"time":117.79069767441861,"velocity":0.31496062992125984},{"duration":0.034883720930224626,"midi":93,"time":117.80232558139535,"velocity":0.2125984251968504},{"duration":0.03488372093023884,"midi":48,"time":117.81395348837209,"velocity":0.11811023622047244},{"duration":0.09302325581396076,"midi":89,"time":117.81395348837209,"velocity":0.2677165354330709},{"duration":0.17441860465116577,"midi":91,"time":117.81395348837209,"velocity":0.5196850393700787},{"duration":0.09302325581396076,"midi":94,"time":117.81395348837209,"velocity":0.2283464566929134},{"duration":0.12790697674418539,"midi":82,"time":117.82558139534883,"velocity":0.4251968503937008},{"duration":0.12790697674418539,"midi":97,"time":117.83720930232558,"velocity":0.3228346456692913},{"duration":0.023255813953483084,"midi":73,"time":117.84883720930233,"velocity":0.25984251968503935},{"duration":0.06976744186046346,"midi":63,"time":117.87209302325581,"velocity":0.2677165354330709},{"duration":0.05813953488372192,"midi":72,"time":117.87209302325581,"velocity":0.3543307086614173},{"duration":0.03488372093023884,"midi":90,"time":117.88372093023256,"velocity":0.16535433070866143},{"duration":0.25581395348837077,"midi":102,"time":117.88372093023256,"velocity":0.4094488188976378},{"duration":0.04651162790698038,"midi":56,"time":117.8953488372093,"velocity":0.2047244094488189},{"duration":0.05813953488372192,"midi":60,"time":117.8953488372093,"velocity":0.25984251968503935},{"duration":0.38372093023255616,"midi":92,"time":117.8953488372093,"velocity":0.3858267716535433},{"duration":0.43023255813953654,"midi":95,"time":117.8953488372093,"velocity":0.3937007874015748},{"duration":0.05813953488372192,"midi":75,"time":117.9186046511628,"velocity":0.5826771653543307},{"duration":0.25581395348837077,"midi":89,"time":117.9186046511628,"velocity":0.3700787401574803},{"duration":0.034883720930224626,"midi":73,"time":117.93023255813954,"velocity":0.4015748031496063},{"duration":0.05813953488372192,"midi":78,"time":117.94186046511628,"velocity":0.2204724409448819},{"duration":0.05813953488372192,"midi":86,"time":117.94186046511628,"velocity":0.18110236220472442},{"duration":0.19767441860464885,"midi":96,"time":117.94186046511628,"velocity":0.3700787401574803},{"duration":0.04651162790698038,"midi":81,"time":117.95348837209302,"velocity":0.2755905511811024},{"duration":0.13953488372092693,"midi":90,"time":117.95348837209302,"velocity":0.44881889763779526},{"duration":0.04651162790698038,"midi":98,"time":117.95348837209302,"velocity":0.2204724409448819},{"duration":0.023255813953497295,"midi":41,"time":117.96511627906976,"velocity":0.2992125984251969},{"duration":0.03488372093023884,"midi":60,"time":117.96511627906976,"velocity":0.25984251968503935},{"duration":0.03488372093023884,"midi":69,"time":117.96511627906976,"velocity":0.1732283464566929},{"duration":0.023255813953497295,"midi":74,"time":117.96511627906976,"velocity":0.3858267716535433},{"duration":0.06976744186047767,"midi":100,"time":117.96511627906976,"velocity":0.18110236220472442},{"duration":0.09302325581394655,"midi":48,"time":117.97674418604652,"velocity":0.2440944881889764},{"duration":0.38372093023255616,"midi":85,"time":117.97674418604652,"velocity":0.28346456692913385},{"duration":0.30232558139533694,"midi":97,"time":117.97674418604652,"velocity":0.33070866141732286},{"duration":0.023255813953483084,"midi":40,"time":117.98837209302326,"velocity":0.33070866141732286},{"duration":0.09302325581394655,"midi":73,"time":117.98837209302326,"velocity":0.48031496062992124},{"duration":0.10465116279068809,"midi":75,"time":117.98837209302326,"velocity":0.41732283464566927},{"duration":0.04651162790698038,"midi":82,"time":117.98837209302326,"velocity":0.07874015748031496},{"duration":0.034883720930224626,"midi":103,"time":117.98837209302326,"velocity":0.2755905511811024},{"duration":0.15116279069766847,"midi":61,"time":118,"velocity":0.33858267716535434},{"duration":0.023255813953483084,"midi":91,"time":118,"velocity":0.28346456692913385},{"duration":0.03488372093023884,"midi":41,"time":118.01162790697674,"velocity":0.2440944881889764},{"duration":0.081395348837205,"midi":68,"time":118.01162790697674,"velocity":0.18110236220472442},{"duration":0.11627906976744384,"midi":91,"time":118.04651162790698,"velocity":0.28346456692913385},{"duration":0.034883720930224626,"midi":30,"time":118.05813953488372,"velocity":0.2047244094488189},{"duration":0.05813953488372192,"midi":82,"time":118.05813953488372,"velocity":0.1889763779527559},{"duration":0.023255813953483084,"midi":57,"time":118.06976744186046,"velocity":0.2283464566929134},{"duration":0.03488372093023884,"midi":100,"time":118.06976744186046,"velocity":0.14173228346456693},{"duration":0.13953488372094114,"midi":77,"time":118.0813953488372,"velocity":0.23622047244094488},{"duration":0.023255813953497295,"midi":73,"time":118.09302325581395,"velocity":0.41732283464566927},{"duration":0.04651162790696617,"midi":53,"time":118.1046511627907,"velocity":0.2755905511811024},{"duration":0.04651162790696617,"midi":68,"time":118.1046511627907,"velocity":0.23622047244094488},{"duration":0.15116279069766847,"midi":75,"time":118.1046511627907,"velocity":0.33858267716535434},{"duration":0.05813953488372192,"midi":84,"time":118.1046511627907,"velocity":0.2047244094488189},{"duration":0.023255813953483084,"midi":40,"time":118.11627906976744,"velocity":0.33858267716535434},{"duration":0.023255813953483084,"midi":72,"time":118.11627906976744,"velocity":0.3464566929133858},{"duration":0.034883720930224626,"midi":94,"time":118.11627906976744,"velocity":0.14960629921259844},{"duration":0.05813953488372192,"midi":48,"time":118.13953488372093,"velocity":0.28346456692913385},{"duration":0.1046511627907023,"midi":90,"time":118.15116279069767,"velocity":0.28346456692913385},{"duration":0.023255813953483084,"midi":31,"time":118.16279069767442,"velocity":0.2440944881889764},{"duration":0.023255813953483084,"midi":74,"time":118.16279069767442,"velocity":0.23622047244094488},{"duration":0.1860465116279073,"midi":96,"time":118.16279069767442,"velocity":0.2755905511811024},{"duration":0.1860465116279073,"midi":99,"time":118.16279069767442,"velocity":0.25196850393700787},{"duration":0.09302325581394655,"midi":91,"time":118.17441860465117,"velocity":0.2755905511811024},{"duration":0.04651162790698038,"midi":30,"time":118.18604651162791,"velocity":0.2440944881889764},{"duration":0.023255813953483084,"midi":41,"time":118.18604651162791,"velocity":0.25196850393700787},{"duration":0.023255813953483084,"midi":55,"time":118.18604651162791,"velocity":0.2755905511811024},{"duration":0.04651162790698038,"midi":73,"time":118.18604651162791,"velocity":0.33070866141732286},{"duration":0.15116279069766847,"midi":89,"time":118.18604651162791,"velocity":0.31496062992125984},{"duration":0.03488372093023884,"midi":62,"time":118.19767441860465,"velocity":0.4094488188976378},{"duration":0.03488372093023884,"midi":78,"time":118.19767441860465,"velocity":0.1968503937007874},{"duration":0.023255813953497295,"midi":67,"time":118.20930232558139,"velocity":0.3543307086614173},{"duration":0.03488372093023884,"midi":88,"time":118.20930232558139,"velocity":0.2125984251968504},{"duration":0.04651162790698038,"midi":93,"time":118.20930232558139,"velocity":0.14960629921259844},{"duration":0.03488372093023884,"midi":94,"time":118.20930232558139,"velocity":0.2125984251968504},{"duration":0.1046511627907023,"midi":100,"time":118.20930232558139,"velocity":0.2440944881889764},{"duration":0.1046511627907023,"midi":103,"time":118.20930232558139,"velocity":0.3228346456692913},{"duration":0.023255813953483084,"midi":60,"time":118.22093023255815,"velocity":0.3937007874015748},{"duration":0.12790697674418539,"midi":80,"time":118.22093023255815,"velocity":0.31496062992125984},{"duration":0.034883720930224626,"midi":86,"time":118.22093023255815,"velocity":0.1732283464566929},{"duration":0.09302325581394655,"midi":98,"time":118.22093023255815,"velocity":0.2992125984251969},{"duration":0.05813953488372192,"midi":66,"time":118.23255813953489,"velocity":0.28346456692913385},{"duration":0.05813953488372192,"midi":77,"time":118.23255813953489,"velocity":0.1968503937007874},{"duration":0.023255813953483084,"midi":44,"time":118.24418604651163,"velocity":0.5826771653543307},{"duration":0.023255813953483084,"midi":61,"time":118.24418604651163,"velocity":0.49606299212598426},{"duration":0.034883720930224626,"midi":69,"time":118.24418604651163,"velocity":0.15748031496062992},{"duration":0.034883720930224626,"midi":82,"time":118.24418604651163,"velocity":0.14960629921259844},{"duration":0.011627906976741542,"midi":43,"time":118.26744186046511,"velocity":0.5354330708661418},{"duration":0.03488372093023884,"midi":51,"time":118.26744186046511,"velocity":0.29133858267716534},{"duration":0.03488372093023884,"midi":56,"time":118.26744186046511,"velocity":0.2992125984251969},{"duration":0.03488372093023884,"midi":62,"time":118.26744186046511,"velocity":0.4881889763779528},{"duration":0.03488372093023884,"midi":88,"time":118.26744186046511,"velocity":0.11023622047244094},{"duration":0.023255813953497295,"midi":93,"time":118.26744186046511,"velocity":0.4566929133858268},{"duration":0.04651162790698038,"midi":84,"time":118.27906976744185,"velocity":0.1968503937007874},{"duration":0.05813953488372192,"midi":65,"time":118.29069767441861,"velocity":0.30708661417322836},{"duration":0.09302325581394655,"midi":75,"time":118.29069767441861,"velocity":0.2755905511811024},{"duration":0.04651162790696617,"midi":92,"time":118.29069767441861,"velocity":0.5275590551181102},{"duration":0.034883720930224626,"midi":61,"time":118.30232558139535,"velocity":0.4566929133858268},{"duration":0.023255813953483084,"midi":56,"time":118.31395348837209,"velocity":0.28346456692913385},{"duration":0.13953488372092693,"midi":94,"time":118.31395348837209,"velocity":0.3779527559055118},{"duration":0.3372093023255758,"midi":102,"time":118.31395348837209,"velocity":0.4094488188976378},{"duration":0.05813953488372192,"midi":88,"time":118.32558139534883,"velocity":0.28346456692913385},{"duration":0.023255813953497295,"midi":36,"time":118.33720930232558,"velocity":0.2755905511811024},{"duration":0.03488372093023884,"midi":60,"time":118.33720930232558,"velocity":0.44881889763779526},{"duration":0.11627906976744384,"midi":82,"time":118.33720930232558,"velocity":0.1732283464566929},{"duration":0.03488372093023884,"midi":84,"time":118.33720930232558,"velocity":0.16535433070866143},{"duration":0.03488372093023884,"midi":90,"time":118.33720930232558,"velocity":0.2047244094488189},{"duration":0.24418604651162923,"midi":91,"time":118.33720930232558,"velocity":0.5196850393700787},{"duration":0.04651162790698038,"midi":93,"time":118.33720930232558,"velocity":0.25196850393700787},{"duration":0.081395348837205,"midi":48,"time":118.34883720930233,"velocity":0.31496062992125984},{"duration":0.06976744186046346,"midi":101,"time":118.34883720930233,"velocity":0.1889763779527559},{"duration":0.023255813953483084,"midi":56,"time":118.36046511627907,"velocity":0.28346456692913385},{"duration":0.04651162790698038,"midi":65,"time":118.36046511627907,"velocity":0.23622047244094488},{"duration":0.034883720930224626,"midi":80,"time":118.36046511627907,"velocity":0.1889763779527559},{"duration":0.05813953488372192,"midi":89,"time":118.36046511627907,"velocity":0.4015748031496063},{"duration":0.06976744186046346,"midi":96,"time":118.36046511627907,"velocity":0.18110236220472442},{"duration":0.04651162790698038,"midi":61,"time":118.37209302325581,"velocity":0.5433070866141733},{"duration":0.13953488372092693,"midi":85,"time":118.37209302325581,"velocity":0.2204724409448819},{"duration":0.03488372093023884,"midi":99,"time":118.37209302325581,"velocity":0.14173228346456693},{"duration":0.04651162790698038,"midi":55,"time":118.38372093023256,"velocity":0.25984251968503935},{"duration":0.5232558139534973,"midi":77,"time":118.38372093023256,"velocity":0.2992125984251969},{"duration":0.04651162790698038,"midi":92,"time":118.38372093023256,"velocity":0.4094488188976378},{"duration":0.08139534883721922,"midi":74,"time":118.3953488372093,"velocity":0.3779527559055118},{"duration":0.08139534883721922,"midi":84,"time":118.3953488372093,"velocity":0.18110236220472442},{"duration":0.3953488372093119,"midi":95,"time":118.3953488372093,"velocity":0.49606299212598426},{"duration":0.06976744186046346,"midi":36,"time":118.40697674418605,"velocity":0.2992125984251969},{"duration":0.05813953488370771,"midi":81,"time":118.40697674418605,"velocity":0.2125984251968504},{"duration":0.10465116279068809,"midi":62,"time":118.4186046511628,"velocity":0.5590551181102362},{"duration":0.05813953488372192,"midi":87,"time":118.4186046511628,"velocity":0.14960629921259844},{"duration":0.09302325581394655,"midi":90,"time":118.4186046511628,"velocity":0.4094488188976378},{"duration":0.081395348837205,"midi":93,"time":118.4186046511628,"velocity":0.3228346456692913},{"duration":0.13953488372092693,"midi":68,"time":118.43023255813954,"velocity":0.3464566929133858},{"duration":0.12790697674418539,"midi":89,"time":118.43023255813954,"velocity":0.3700787401574803},{"duration":0.023255813953497295,"midi":65,"time":118.46511627906976,"velocity":0.36220472440944884},{"duration":0.03488372093023884,"midi":75,"time":118.46511627906976,"velocity":0.33858267716535434},{"duration":0.023255813953497295,"midi":82,"time":118.46511627906976,"velocity":0.2283464566929134},{"duration":0.09302325581396076,"midi":94,"time":118.46511627906976,"velocity":0.4094488188976378},{"duration":0.16279069767441,"midi":73,"time":118.47674418604652,"velocity":0.5118110236220472},{"duration":0.04651162790696617,"midi":83,"time":118.47674418604652,"velocity":0.2125984251968504},{"duration":0.5232558139534831,"midi":92,"time":118.47674418604652,"velocity":0.3700787401574803},{"duration":0.023255813953483084,"midi":45,"time":118.48837209302326,"velocity":0.3700787401574803},{"duration":0.023255813953483084,"midi":53,"time":118.48837209302326,"velocity":0.25196850393700787},{"duration":0.034883720930224626,"midi":70,"time":118.48837209302326,"velocity":0.18110236220472442},{"duration":0.04651162790698038,"midi":79,"time":118.48837209302326,"velocity":0.1889763779527559},{"duration":0.034883720930224626,"midi":81,"time":118.48837209302326,"velocity":0.1968503937007874},{"duration":0.04651162790698038,"midi":65,"time":118.5,"velocity":0.3464566929133858},{"duration":0.04651162790698038,"midi":76,"time":118.5,"velocity":0.1889763779527559},{"duration":0.1046511627907023,"midi":46,"time":118.51162790697674,"velocity":0.29133858267716534},{"duration":0.08139534883721922,"midi":96,"time":118.52325581395348,"velocity":0.1889763779527559},{"duration":0.023255813953483084,"midi":61,"time":118.53488372093024,"velocity":0.44881889763779526},{"duration":0.023255813953483084,"midi":55,"time":118.54651162790698,"velocity":0.29133858267716534},{"duration":0.023255813953483084,"midi":88,"time":118.54651162790698,"velocity":0.41732283464566927},{"duration":0.04651162790696617,"midi":93,"time":118.54651162790698,"velocity":0.09448818897637795},{"duration":0.04651162790698038,"midi":34,"time":118.55813953488372,"velocity":0.31496062992125984},{"duration":0.06976744186046346,"midi":62,"time":118.55813953488372,"velocity":0.5275590551181102},{"duration":0.06976744186046346,"midi":66,"time":118.55813953488372,"velocity":0.3858267716535433},{"duration":0.13953488372092693,"midi":89,"time":118.56976744186046,"velocity":0.3779527559055118},{"duration":0.04651162790698038,"midi":94,"time":118.56976744186046,"velocity":0.2440944881889764},{"duration":0.03488372093023884,"midi":80,"time":118.5813953488372,"velocity":0.2125984251968504},{"duration":0.06976744186046346,"midi":86,"time":118.5813953488372,"velocity":0.25196850393700787},{"duration":0.04651162790698038,"midi":56,"time":118.59302325581395,"velocity":0.2047244094488189},{"duration":0.034883720930224626,"midi":82,"time":118.6046511627907,"velocity":0.18110236220472442},{"duration":0.11627906976744384,"midi":91,"time":118.6046511627907,"velocity":0.14173228346456693},{"duration":0.034883720930224626,"midi":90,"time":118.61627906976744,"velocity":0.2047244094488189},{"duration":0.034883720930224626,"midi":93,"time":118.61627906976744,"velocity":0.23622047244094488},{"duration":0.011627906976741542,"midi":61,"time":118.62790697674419,"velocity":0.5196850393700787},{"duration":0.09302325581396076,"midi":68,"time":118.62790697674419,"velocity":0.29133858267716534},{"duration":0.04651162790698038,"midi":74,"time":118.62790697674419,"velocity":0.30708661417322836},{"duration":0.03488372093023884,"midi":81,"time":118.62790697674419,"velocity":0.2125984251968504},{"duration":0.023255813953497295,"midi":65,"time":118.63953488372093,"velocity":0.2755905511811024},{"duration":0.04651162790698038,"midi":75,"time":118.63953488372093,"velocity":0.2125984251968504},{"duration":0.05813953488372192,"midi":61,"time":118.65116279069767,"velocity":0.5118110236220472},{"duration":0.04651162790698038,"midi":85,"time":118.65116279069767,"velocity":0.29133858267716534},{"duration":0.16279069767442422,"midi":96,"time":118.65116279069767,"velocity":0.1968503937007874},{"duration":0.034883720930224626,"midi":94,"time":118.66279069767442,"velocity":0.2440944881889764},{"duration":0.12790697674418539,"midi":102,"time":118.67441860465117,"velocity":0.1889763779527559},{"duration":0.03488372093023884,"midi":84,"time":118.68604651162791,"velocity":0.11023622047244094},{"duration":0.05813953488372192,"midi":56,"time":118.69767441860465,"velocity":0.25196850393700787},{"duration":0.023255813953497295,"midi":74,"time":118.69767441860465,"velocity":0.36220472440944884},{"duration":0.023255813953497295,"midi":60,"time":118.70930232558139,"velocity":0.4015748031496063},{"duration":0.023255813953497295,"midi":65,"time":118.70930232558139,"velocity":0.41732283464566927},{"duration":0.11627906976744384,"midi":88,"time":118.70930232558139,"velocity":0.3228346456692913},{"duration":0.05813953488372192,"midi":93,"time":118.70930232558139,"velocity":0.12598425196850394},{"duration":0.27906976744185386,"midi":73,"time":118.72093023255815,"velocity":0.4330708661417323},{"duration":0.11627906976742963,"midi":94,"time":118.72093023255815,"velocity":0.23622047244094488},{"duration":0.023255813953483084,"midi":61,"time":118.73255813953489,"velocity":0.4251968503937008},{"duration":0.15116279069766847,"midi":68,"time":118.73255813953489,"velocity":0.3543307086614173},{"duration":0.09302325581394655,"midi":91,"time":118.73255813953489,"velocity":0.16535433070866143},{"duration":0.11627906976744384,"midi":97,"time":118.73255813953489,"velocity":0.2440944881889764},{"duration":0.09302325581394655,"midi":99,"time":118.73255813953489,"velocity":0.25984251968503935},{"duration":0.09302325581394655,"midi":101,"time":118.73255813953489,"velocity":0.2283464566929134},{"duration":0.04651162790696617,"midi":103,"time":118.73255813953489,"velocity":0.1968503937007874},{"duration":0.06976744186046346,"midi":98,"time":118.74418604651163,"velocity":0.11023622047244094},{"duration":0.023255813953483084,"midi":66,"time":118.75581395348837,"velocity":0.25196850393700787},{"duration":0.03488372093023884,"midi":87,"time":118.75581395348837,"velocity":0.14173228346456693},{"duration":0.06976744186046346,"midi":90,"time":118.75581395348837,"velocity":0.2755905511811024},{"duration":0.011627906976741542,"midi":45,"time":118.76744186046511,"velocity":0.5905511811023622},{"duration":0.03488372093023884,"midi":75,"time":118.76744186046511,"velocity":0.07086614173228346},{"duration":0.04651162790698038,"midi":83,"time":118.76744186046511,"velocity":0.12598425196850394},{"duration":0.011627906976755753,"midi":44,"time":118.77906976744185,"velocity":0.6141732283464567},{"duration":0.05813953488372192,"midi":65,"time":118.77906976744185,"velocity":0.2440944881889764},{"duration":0.011627906976741542,"midi":43,"time":118.79069767441861,"velocity":0.5826771653543307},{"duration":0.011627906976741542,"midi":42,"time":118.80232558139535,"velocity":0.5590551181102362},{"duration":0.023255813953483084,"midi":61,"time":118.80232558139535,"velocity":0.25196850393700787},{"duration":0.034883720930224626,"midi":82,"time":118.80232558139535,"velocity":0.07874015748031496},{"duration":0.04651162790698038,"midi":56,"time":118.81395348837209,"velocity":0.2283464566929134},{"duration":0.05813953488372192,"midi":95,"time":118.81395348837209,"velocity":0.14173228346456693},{"duration":0.023255813953483084,"midi":37,"time":118.84883720930233,"velocity":0.3858267716535433},{"duration":0.04651162790696617,"midi":61,"time":118.84883720930233,"velocity":0.3464566929133858},{"duration":0.034883720930224626,"midi":90,"time":118.86046511627907,"velocity":0.12598425196850394},{"duration":0.03488372093023884,"midi":36,"time":118.87209302325581,"velocity":0.29133858267716534},{"duration":0.05813953488372192,"midi":91,"time":118.87209302325581,"velocity":0.2677165354330709},{"duration":0.05813953488372192,"midi":93,"time":118.87209302325581,"velocity":0.2047244094488189},{"duration":0.04651162790698038,"midi":94,"time":118.87209302325581,"velocity":0.11023622047244094},{"duration":0.25581395348837077,"midi":102,"time":118.87209302325581,"velocity":0.12598425196850394},{"duration":0.04651162790698038,"midi":69,"time":118.88372093023256,"velocity":0.07086614173228346},{"duration":0.19767441860464885,"midi":80,"time":118.88372093023256,"velocity":0.2677165354330709},{"duration":0.19767441860464885,"midi":99,"time":118.88372093023256,"velocity":0.2440944881889764},{"duration":0.05813953488372192,"midi":66,"time":118.8953488372093,"velocity":0.30708661417322836},{"duration":0.03488372093023884,"midi":75,"time":118.8953488372093,"velocity":0.1889763779527559},{"duration":0.034883720930224626,"midi":61,"time":118.90697674418605,"velocity":0.3700787401574803},{"duration":0.12790697674418539,"midi":95,"time":118.9186046511628,"velocity":0.2204724409448819},{"duration":0.034883720930224626,"midi":88,"time":118.93023255813954,"velocity":0.09448818897637795},{"duration":0.11627906976744384,"midi":90,"time":118.94186046511628,"velocity":0.16535433070866143},{"duration":0.04651162790698038,"midi":65,"time":118.95348837209302,"velocity":0.30708661417322836},{"duration":0.03488372093023884,"midi":68,"time":118.95348837209302,"velocity":0.30708661417322836},{"duration":0.03488372093023884,"midi":61,"time":118.96511627906976,"velocity":0.33070866141732286},{"duration":0.023255813953483084,"midi":75,"time":118.98837209302326,"velocity":0.28346456692913385},{"duration":0.04651162790698038,"midi":60,"time":119,"velocity":0.41732283464566927},{"duration":0.05813953488372192,"midi":68,"time":119,"velocity":0.4251968503937008},{"duration":0.03488372093023884,"midi":76,"time":119,"velocity":0.2755905511811024},{"duration":0.06976744186046346,"midi":86,"time":119,"velocity":0.23622047244094488},{"duration":0.081395348837205,"midi":93,"time":119,"velocity":0.1968503937007874},{"duration":0.05813953488372192,"midi":96,"time":119,"velocity":0.14173228346456693},{"duration":0.1046511627907023,"midi":97,"time":119,"velocity":0.1732283464566929},{"duration":0.04651162790698038,"midi":81,"time":119.01162790697674,"velocity":0.25196850393700787},{"duration":0.04651162790698038,"midi":89,"time":119.01162790697674,"velocity":0.2125984251968504},{"duration":0.04651162790698038,"midi":78,"time":119.02325581395348,"velocity":0.18110236220472442},{"duration":0.11627906976742963,"midi":51,"time":119.03488372093024,"velocity":0.33858267716535434},{"duration":0.034883720930224626,"midi":65,"time":119.03488372093024,"velocity":0.3779527559055118},{"duration":0.11627906976744384,"midi":44,"time":119.04651162790698,"velocity":0.3543307086614173},{"duration":0.023255813953483084,"midi":74,"time":119.04651162790698,"velocity":0.25984251968503935},{"duration":0.04651162790698038,"midi":60,"time":119.05813953488372,"velocity":0.2677165354330709},{"duration":0.06976744186046346,"midi":70,"time":119.05813953488372,"velocity":0.10236220472440945},{"duration":0.04651162790698038,"midi":66,"time":119.06976744186046,"velocity":0.36220472440944884},{"duration":0.023255813953483084,"midi":73,"time":119.06976744186046,"velocity":0.33858267716535434},{"duration":0.023255813953497295,"midi":33,"time":119.0813953488372,"velocity":0.33070866141732286},{"duration":0.16279069767442422,"midi":92,"time":119.0813953488372,"velocity":0.2677165354330709},{"duration":0.023255813953497295,"midi":74,"time":119.09302325581395,"velocity":0.29133858267716534},{"duration":0.09302325581396076,"midi":85,"time":119.09302325581395,"velocity":0.12598425196850394},{"duration":0.09302325581394655,"midi":32,"time":119.1046511627907,"velocity":0.3464566929133858},{"duration":0.034883720930224626,"midi":61,"time":119.1046511627907,"velocity":0.25984251968503935},{"duration":0.11627906976744384,"midi":73,"time":119.1046511627907,"velocity":0.3858267716535433},{"duration":0.034883720930224626,"midi":75,"time":119.1046511627907,"velocity":0.1732283464566929},{"duration":0.04651162790698038,"midi":89,"time":119.11627906976744,"velocity":0.14173228346456693},{"duration":0.06976744186046346,"midi":65,"time":119.12790697674419,"velocity":0.28346456692913385},{"duration":0.023255813953483084,"midi":69,"time":119.12790697674419,"velocity":0.25196850393700787},{"duration":0.06976744186046346,"midi":97,"time":119.13953488372093,"velocity":0.1732283464566929},{"duration":0.08139534883721922,"midi":99,"time":119.13953488372093,"velocity":0.2047244094488189},{"duration":0.09302325581396076,"midi":61,"time":119.15116279069767,"velocity":0.3700787401574803},{"duration":0.023255813953497295,"midi":68,"time":119.15116279069767,"velocity":0.29133858267716534},{"duration":0.023255813953483084,"midi":69,"time":119.17441860465117,"velocity":0.2992125984251969},{"duration":0.05813953488372192,"midi":87,"time":119.17441860465117,"velocity":0.15748031496062992},{"duration":0.06976744186046346,"midi":90,"time":119.17441860465117,"velocity":0.2283464566929134},{"duration":0.15116279069766847,"midi":102,"time":119.17441860465117,"velocity":0.28346456692913385},{"duration":0.04651162790698038,"midi":101,"time":119.18604651162791,"velocity":0.14173228346456693},{"duration":0.023255813953497295,"midi":56,"time":119.19767441860465,"velocity":0.28346456692913385},{"duration":0.03488372093023884,"midi":75,"time":119.19767441860465,"velocity":0.14960629921259844},{"duration":0.03488372093023884,"midi":84,"time":119.19767441860465,"velocity":0.07086614173228346},{"duration":0.06976744186046346,"midi":66,"time":119.20930232558139,"velocity":0.3700787401574803},{"duration":0.034883720930224626,"midi":85,"time":119.22093023255815,"velocity":0.08661417322834646},{"duration":0.034883720930224626,"midi":56,"time":119.23255813953489,"velocity":0.2992125984251969},{"duration":0.023255813953483084,"midi":62,"time":119.24418604651163,"velocity":0.33070866141732286},{"duration":0.06976744186046346,"midi":100,"time":119.25581395348837,"velocity":0.18110236220472442},{"duration":0.04651162790698038,"midi":81,"time":119.26744186046511,"velocity":0.12598425196850394},{"duration":0.04651162790698038,"midi":86,"time":119.26744186046511,"velocity":0.1889763779527559},{"duration":0.03488372093023884,"midi":88,"time":119.26744186046511,"velocity":0.1968503937007874},{"duration":0.05813953488372192,"midi":89,"time":119.26744186046511,"velocity":0.29133858267716534},{"duration":0.08139534883721922,"midi":90,"time":119.26744186046511,"velocity":0.25196850393700787},{"duration":0.09302325581396076,"midi":91,"time":119.26744186046511,"velocity":0.2047244094488189},{"duration":0.06976744186046346,"midi":94,"time":119.26744186046511,"velocity":0.2047244094488189},{"duration":0.06976744186046346,"midi":95,"time":119.26744186046511,"velocity":0.1889763779527559},{"duration":0.06976744186046346,"midi":96,"time":119.26744186046511,"velocity":0.1968503937007874},{"duration":0.25581395348837077,"midi":97,"time":119.26744186046511,"velocity":0.33858267716535434},{"duration":0.05813953488372192,"midi":99,"time":119.26744186046511,"velocity":0.1889763779527559},{"duration":0.023255813953497295,"midi":55,"time":119.27906976744185,"velocity":0.47244094488188976},{"duration":0.08139534883721922,"midi":71,"time":119.27906976744185,"velocity":0.33858267716535434},{"duration":0.08139534883721922,"midi":79,"time":119.27906976744185,"velocity":0.18110236220472442},{"duration":0.2325581395348877,"midi":80,"time":119.27906976744185,"velocity":0.2283464566929134},{"duration":0.13953488372094114,"midi":85,"time":119.27906976744185,"velocity":0.1968503937007874},{"duration":0.5116279069767558,"midi":92,"time":119.27906976744185,"velocity":0.3228346456692913},{"duration":0.011627906976741542,"midi":46,"time":119.29069767441861,"velocity":0.5354330708661418},{"duration":0.09302325581394655,"midi":73,"time":119.29069767441861,"velocity":0.2125984251968504},{"duration":0.034883720930224626,"midi":75,"time":119.29069767441861,"velocity":0.15748031496062992},{"duration":0.011627906976741542,"midi":45,"time":119.30232558139535,"velocity":0.5905511811023622},{"duration":0.04651162790698038,"midi":56,"time":119.30232558139535,"velocity":0.31496062992125984},{"duration":0.04651162790698038,"midi":65,"time":119.30232558139535,"velocity":0.18110236220472442},{"duration":0.011627906976741542,"midi":44,"time":119.31395348837209,"velocity":0.5826771653543307},{"duration":0.081395348837205,"midi":61,"time":119.31395348837209,"velocity":0.23622047244094488},{"duration":0.03488372093023884,"midi":42,"time":119.32558139534883,"velocity":0.5826771653543307},{"duration":0.03488372093023884,"midi":67,"time":119.38372093023256,"velocity":0.25196850393700787},{"duration":0.06976744186046346,"midi":78,"time":119.38372093023256,"velocity":0.2204724409448819},{"duration":0.06976744186046346,"midi":87,"time":119.38372093023256,"velocity":0.1968503937007874},{"duration":0.15116279069768268,"midi":89,"time":119.38372093023256,"velocity":0.2283464566929134},{"duration":0.023255813953497295,"midi":55,"time":119.3953488372093,"velocity":0.33070866141732286},{"duration":0.04651162790698038,"midi":73,"time":119.3953488372093,"velocity":0.30708661417322836},{"duration":0.06976744186046346,"midi":86,"time":119.3953488372093,"velocity":0.25196850393700787},{"duration":0.09302325581396076,"midi":90,"time":119.3953488372093,"velocity":0.2755905511811024},{"duration":0.15116279069768268,"midi":95,"time":119.3953488372093,"velocity":0.15748031496062992},{"duration":0.06976744186046346,"midi":103,"time":119.3953488372093,"velocity":0.14173228346456693},{"duration":0.023255813953483084,"midi":72,"time":119.40697674418605,"velocity":0.29133858267716534},{"duration":0.04651162790696617,"midi":81,"time":119.40697674418605,"velocity":0.23622047244094488},{"duration":0.06976744186046346,"midi":83,"time":119.40697674418605,"velocity":0.1732283464566929},{"duration":0.06976744186046346,"midi":94,"time":119.40697674418605,"velocity":0.13385826771653545},{"duration":0.06976744186046346,"midi":96,"time":119.40697674418605,"velocity":0.14960629921259844},{"duration":0.034883720930224626,"midi":100,"time":119.40697674418605,"velocity":0.07086614173228346},{"duration":0.05813953488372192,"midi":56,"time":119.4186046511628,"velocity":0.3858267716535433},{"duration":0.023255813953483084,"midi":66,"time":119.4186046511628,"velocity":0.2283464566929134},{"duration":0.17441860465115155,"midi":75,"time":119.4186046511628,"velocity":0.2440944881889764},{"duration":0.04651162790696617,"midi":77,"time":119.4186046511628,"velocity":0.2047244094488189},{"duration":0.04651162790698038,"midi":51,"time":119.43023255813954,"velocity":0.36220472440944884},{"duration":0.06976744186046346,"midi":60,"time":119.43023255813954,"velocity":0.25196850393700787},{"duration":0.05813953488372192,"midi":88,"time":119.43023255813954,"velocity":0.16535433070866143},{"duration":0.05813953488372192,"midi":91,"time":119.43023255813954,"velocity":0.14173228346456693},{"duration":0.06976744186046346,"midi":99,"time":119.43023255813954,"velocity":0.2992125984251969},{"duration":0.05813953488372192,"midi":44,"time":119.44186046511628,"velocity":0.3543307086614173},{"duration":0.05813953488372192,"midi":73,"time":119.45348837209302,"velocity":0.2440944881889764},{"duration":0.023255813953483084,"midi":33,"time":119.47674418604652,"velocity":0.33070866141732286},{"duration":0.023255813953483084,"midi":56,"time":119.48837209302326,"velocity":0.3700787401574803},{"duration":0.09302325581394655,"midi":32,"time":119.5,"velocity":0.3543307086614173},{"duration":0.023255813953497295,"midi":51,"time":119.51162790697674,"velocity":0.31496062992125984},{"duration":0.03488372093023884,"midi":66,"time":119.51162790697674,"velocity":0.08661417322834646},{"duration":0.023255813953497295,"midi":73,"time":119.52325581395348,"velocity":0.2283464566929134},{"duration":0.034883720930224626,"midi":56,"time":119.53488372093024,"velocity":0.3464566929133858},{"duration":0.034883720930224626,"midi":84,"time":119.53488372093024,"velocity":0.07874015748031496},{"duration":0.081395348837205,"midi":99,"time":119.53488372093024,"velocity":0.18110236220472442},{"duration":0.05813953488370771,"midi":102,"time":119.53488372093024,"velocity":0.10236220472440945},{"duration":0.081395348837205,"midi":80,"time":119.54651162790698,"velocity":0.13385826771653545},{"duration":0.034883720930224626,"midi":65,"time":119.55813953488372,"velocity":0.11023622047244094},{"duration":0.06976744186046346,"midi":97,"time":119.55813953488372,"velocity":0.23622047244094488},{"duration":0.023255813953483084,"midi":56,"time":119.61627906976744,"velocity":0.2283464566929134},{"duration":0.034883720930224626,"midi":74,"time":119.61627906976744,"velocity":0.10236220472440945},{"duration":0.03488372093023884,"midi":67,"time":119.63953488372093,"velocity":0.29133858267716534},{"duration":0.05813953488372192,"midi":56,"time":119.65116279069767,"velocity":0.4409448818897638},{"duration":0.023255813953497295,"midi":75,"time":119.65116279069767,"velocity":0.2283464566929134},{"duration":0.04651162790698038,"midi":93,"time":119.65116279069767,"velocity":0.2204724409448819},{"duration":0.09302325581394655,"midi":71,"time":119.66279069767442,"velocity":0.23622047244094488},{"duration":0.023255813953483084,"midi":81,"time":119.66279069767442,"velocity":0.23622047244094488},{"duration":0.06976744186046346,"midi":86,"time":119.66279069767442,"velocity":0.2440944881889764},{"duration":0.05813953488372192,"midi":91,"time":119.66279069767442,"velocity":0.23622047244094488},{"duration":0.04651162790696617,"midi":94,"time":119.66279069767442,"velocity":0.23622047244094488},{"duration":0.034883720930224626,"midi":95,"time":119.66279069767442,"velocity":0.14173228346456693},{"duration":0.081395348837205,"midi":99,"time":119.66279069767442,"velocity":0.12598425196850394},{"duration":0.04651162790696617,"midi":100,"time":119.66279069767442,"velocity":0.11811023622047244},{"duration":0.04651162790698038,"midi":77,"time":119.67441860465117,"velocity":0.23622047244094488},{"duration":0.05813953488372192,"midi":79,"time":119.67441860465117,"velocity":0.30708661417322836},{"duration":0.09302325581394655,"midi":61,"time":119.68604651162791,"velocity":0.29133858267716534},{"duration":0.06976744186046346,"midi":65,"time":119.68604651162791,"velocity":0.2677165354330709},{"duration":0.16279069767442422,"midi":73,"time":119.68604651162791,"velocity":0.29133858267716534},{"duration":0.05813953488372192,"midi":75,"time":119.68604651162791,"velocity":0.14173228346456693},{"duration":0.05813953488372192,"midi":82,"time":119.68604651162791,"velocity":0.2125984251968504},{"duration":0.05813953488372192,"midi":84,"time":119.68604651162791,"velocity":0.08661417322834646},{"duration":0.023255813953497295,"midi":50,"time":119.69767441860465,"velocity":0.3779527559055118},{"duration":0.06976744186046346,"midi":97,"time":119.69767441860465,"velocity":0.1968503937007874},{"duration":0.06976744186046346,"midi":37,"time":119.72093023255815,"velocity":0.3937007874015748},{"duration":0.023255813953483084,"midi":50,"time":119.73255813953489,"velocity":0.33858267716535434},{"duration":0.03488372093023884,"midi":56,"time":119.75581395348837,"velocity":0.2677165354330709},{"duration":0.023255813953483084,"midi":64,"time":119.79069767441861,"velocity":0.30708661417322836},{"duration":0.034883720930224626,"midi":94,"time":119.79069767441861,"velocity":0.2283464566929134},{"duration":0.034883720930224626,"midi":96,"time":119.79069767441861,"velocity":0.29133858267716534},{"duration":0.034883720930224626,"midi":97,"time":119.79069767441861,"velocity":0.1968503937007874},{"duration":0.034883720930224626,"midi":100,"time":119.79069767441861,"velocity":0.1968503937007874},{"duration":0.034883720930224626,"midi":102,"time":119.79069767441861,"velocity":0.1732283464566929},{"duration":0.04651162790696617,"midi":103,"time":119.79069767441861,"velocity":0.1968503937007874},{"duration":0.034883720930224626,"midi":77,"time":119.80232558139535,"velocity":0.15748031496062992},{"duration":0.034883720930224626,"midi":79,"time":119.80232558139535,"velocity":0.23622047244094488},{"duration":0.05813953488372192,"midi":81,"time":119.80232558139535,"velocity":0.2047244094488189},{"duration":0.034883720930224626,"midi":88,"time":119.80232558139535,"velocity":0.12598425196850394},{"duration":0.034883720930224626,"midi":95,"time":119.80232558139535,"velocity":0.10236220472440945},{"duration":0.011627906976741542,"midi":48,"time":119.81395348837209,"velocity":0.5275590551181102},{"duration":0.03488372093023884,"midi":63,"time":119.81395348837209,"velocity":0.31496062992125984},{"duration":0.03488372093023884,"midi":67,"time":119.81395348837209,"velocity":0.2755905511811024},{"duration":0.03488372093023884,"midi":84,"time":119.81395348837209,"velocity":0.1732283464566929},{"duration":0.023255813953497295,"midi":45,"time":119.82558139534883,"velocity":0.6220472440944882},{"duration":0.06976744186046346,"midi":58,"time":119.82558139534883,"velocity":0.28346456692913385},{"duration":0.011627906976741542,"midi":43,"time":119.84883720930233,"velocity":0.6062992125984252},{"duration":0.011627906976741542,"midi":42,"time":119.86046511627907,"velocity":0.5984251968503937},{"duration":0.023255813953483084,"midi":51,"time":119.86046511627907,"velocity":0.2677165354330709},{"duration":0.17441860465116577,"midi":67,"time":119.86046511627907,"velocity":0.5511811023622047},{"duration":0.034883720930224626,"midi":99,"time":119.86046511627907,"velocity":0.08661417322834646},{"duration":0.011627906976741542,"midi":41,"time":119.87209302325581,"velocity":0.5511811023622047},{"duration":0.034883720930224626,"midi":61,"time":119.90697674418605,"velocity":0.15748031496062992},{"duration":0.04651162790698038,"midi":36,"time":119.93023255813954,"velocity":0.33070866141732286},{"duration":0.1046511627907023,"midi":61,"time":119.95348837209302,"velocity":0.1889763779527559},{"duration":0.034883720930224626,"midi":92,"time":119.97674418604652,"velocity":0.08661417322834646},{"duration":0.16279069767442422,"midi":56,"time":120.02325581395348,"velocity":0.28346456692913385},{"duration":0.04651162790696617,"midi":68,"time":120.03488372093024,"velocity":0.4015748031496063},{"duration":0.034883720930224626,"midi":62,"time":120.05813953488372,"velocity":0.2047244094488189},{"duration":0.023255813953483084,"midi":78,"time":120.05813953488372,"velocity":0.23622047244094488},{"duration":0.023255813953483084,"midi":81,"time":120.05813953488372,"velocity":0.25196850393700787},{"duration":0.04651162790698038,"midi":86,"time":120.05813953488372,"velocity":0.1968503937007874},{"duration":0.04651162790698038,"midi":91,"time":120.05813953488372,"velocity":0.2283464566929134},{"duration":0.04651162790698038,"midi":94,"time":120.05813953488372,"velocity":0.25196850393700787},{"duration":0.023255813953483084,"midi":48,"time":120.06976744186046,"velocity":0.3858267716535433},{"duration":0.06976744186046346,"midi":71,"time":120.06976744186046,"velocity":0.1889763779527559},{"duration":0.04651162790698038,"midi":77,"time":120.06976744186046,"velocity":0.18110236220472442},{"duration":0.05813953488372192,"midi":83,"time":120.06976744186046,"velocity":0.2204724409448819},{"duration":0.03488372093023884,"midi":67,"time":120.0813953488372,"velocity":0.48031496062992124},{"duration":0.04651162790698038,"midi":75,"time":120.0813953488372,"velocity":0.11811023622047244},{"duration":0.06976744186046346,"midi":80,"time":120.0813953488372,"velocity":0.11023622047244094},{"duration":0.05813953488372192,"midi":82,"time":120.0813953488372,"velocity":0.25196850393700787},{"duration":0.04651162790698038,"midi":84,"time":120.0813953488372,"velocity":0.07874015748031496},{"duration":0.09302325581396076,"midi":49,"time":120.09302325581395,"velocity":0.33070866141732286},{"duration":0.06976744186046346,"midi":37,"time":120.11627906976744,"velocity":0.3700787401574803},{"duration":0.04651162790698038,"midi":68,"time":120.13953488372093,"velocity":0.3700787401574803},{"duration":0.03488372093023884,"midi":83,"time":120.18604651162791,"velocity":0.2440944881889764},{"duration":0.04651162790698038,"midi":93,"time":120.18604651162791,"velocity":0.2283464566929134},{"duration":0.05813953488372192,"midi":96,"time":120.18604651162791,"velocity":0.2125984251968504},{"duration":0.11627906976744384,"midi":58,"time":120.19767441860465,"velocity":0.31496062992125984},{"duration":0.023255813953497295,"midi":64,"time":120.19767441860465,"velocity":0.2755905511811024},{"duration":0.06976744186046346,"midi":73,"time":120.19767441860465,"velocity":0.2125984251968504},{"duration":0.081395348837205,"midi":75,"time":120.19767441860465,"velocity":0.11811023622047244},{"duration":0.05813953488372192,"midi":77,"time":120.19767441860465,"velocity":0.13385826771653545},{"duration":0.05813953488372192,"midi":81,"time":120.19767441860465,"velocity":0.2755905511811024},{"duration":0.05813953488372192,"midi":85,"time":120.19767441860465,"velocity":0.2204724409448819},{"duration":0.03488372093023884,"midi":88,"time":120.19767441860465,"velocity":0.1968503937007874},{"duration":0.081395348837205,"midi":94,"time":120.19767441860465,"velocity":0.07086614173228346},{"duration":0.11627906976744384,"midi":51,"time":120.20930232558139,"velocity":0.3228346456692913},{"duration":0.06976744186046346,"midi":68,"time":120.20930232558139,"velocity":0.4881889763779528},{"duration":0.03488372093023884,"midi":79,"time":120.20930232558139,"velocity":0.1732283464566929},{"duration":0.04651162790698038,"midi":87,"time":120.20930232558139,"velocity":0.14173228346456693},{"duration":0.081395348837205,"midi":39,"time":120.24418604651163,"velocity":0.33070866141732286},{"duration":0.023255813953497295,"midi":67,"time":120.26744186046511,"velocity":0.25984251968503935},{"duration":0.034883720930224626,"midi":68,"time":120.29069767441861,"velocity":0.30708661417322836},{"duration":0.023255813953483084,"midi":57,"time":120.31395348837209,"velocity":0.4330708661417323},{"duration":0.03488372093023884,"midi":67,"time":120.32558139534883,"velocity":0.3700787401574803},{"duration":0.03488372093023884,"midi":73,"time":120.32558139534883,"velocity":0.11811023622047244},{"duration":0.03488372093023884,"midi":81,"time":120.32558139534883,"velocity":0.14173228346456693},{"duration":0.08139534883721922,"midi":82,"time":120.32558139534883,"velocity":0.14960629921259844},{"duration":0.03488372093023884,"midi":86,"time":120.32558139534883,"velocity":0.1889763779527559},{"duration":0.09302325581396076,"midi":88,"time":120.32558139534883,"velocity":0.2204724409448819},{"duration":0.09302325581396076,"midi":89,"time":120.32558139534883,"velocity":0.2283464566929134},{"duration":0.05813953488372192,"midi":90,"time":120.32558139534883,"velocity":0.28346456692913385},{"duration":0.05813953488372192,"midi":93,"time":120.32558139534883,"velocity":0.15748031496062992},{"duration":0.06976744186046346,"midi":94,"time":120.32558139534883,"velocity":0.18110236220472442},{"duration":0.05813953488372192,"midi":95,"time":120.32558139534883,"velocity":0.1889763779527559},{"duration":0.05813953488372192,"midi":96,"time":120.32558139534883,"velocity":0.1968503937007874},{"duration":0.06976744186046346,"midi":97,"time":120.32558139534883,"velocity":0.1889763779527559},{"duration":0.04651162790698038,"midi":103,"time":120.32558139534883,"velocity":0.18110236220472442},{"duration":0.03488372093023884,"midi":45,"time":120.33720930232558,"velocity":0.6062992125984252},{"duration":0.011627906976755753,"midi":53,"time":120.33720930232558,"velocity":0.5118110236220472},{"duration":0.05813953488372192,"midi":83,"time":120.33720930232558,"velocity":0.11811023622047244},{"duration":0.04651162790698038,"midi":91,"time":120.33720930232558,"velocity":0.18110236220472442},{"duration":0.011627906976741542,"midi":51,"time":120.34883720930233,"velocity":0.5118110236220472},{"duration":0.05813953488372192,"midi":68,"time":120.36046511627907,"velocity":0.4015748031496063},{"duration":0.04651162790698038,"midi":99,"time":120.36046511627907,"velocity":0.08661417322834646},{"duration":0.011627906976741542,"midi":44,"time":120.37209302325581,"velocity":0.6062992125984252},{"duration":0.011627906976741542,"midi":43,"time":120.38372093023256,"velocity":0.5826771653543307},{"duration":0.011627906976755753,"midi":42,"time":120.3953488372093,"velocity":0.5433070866141733},{"duration":0.023255813953497295,"midi":52,"time":120.3953488372093,"velocity":0.2992125984251969},{"duration":0.023255813953483084,"midi":53,"time":120.4186046511628,"velocity":0.2677165354330709},{"duration":0.10465116279068809,"midi":87,"time":120.4186046511628,"velocity":0.2283464566929134},{"duration":0.081395348837205,"midi":68,"time":120.43023255813954,"velocity":0.49606299212598426},{"duration":0.023255813953483084,"midi":37,"time":120.44186046511628,"velocity":0.3779527559055118},{"duration":0.023255813953497295,"midi":53,"time":120.45348837209302,"velocity":0.2755905511811024},{"duration":0.15116279069768268,"midi":61,"time":120.45348837209302,"velocity":0.28346456692913385},{"duration":0.03488372093023884,"midi":96,"time":120.45348837209302,"velocity":0.16535433070866143},{"duration":0.03488372093023884,"midi":70,"time":120.46511627906976,"velocity":0.1968503937007874},{"duration":0.05813953488372192,"midi":76,"time":120.46511627906976,"velocity":0.18110236220472442},{"duration":0.04651162790698038,"midi":84,"time":120.46511627906976,"velocity":0.1968503937007874},{"duration":0.03488372093023884,"midi":91,"time":120.46511627906976,"velocity":0.12598425196850394},{"duration":0.09302325581394655,"midi":54,"time":120.47674418604652,"velocity":0.31496062992125984},{"duration":0.05813953488372192,"midi":42,"time":120.5,"velocity":0.33070866141732286},{"duration":0.09302325581396076,"midi":68,"time":120.52325581395348,"velocity":0.44881889763779526},{"duration":0.05813953488372192,"midi":88,"time":120.55813953488372,"velocity":0.1968503937007874},{"duration":0.023255813953483084,"midi":53,"time":120.56976744186046,"velocity":0.25196850393700787},{"duration":0.023255813953497295,"midi":52,"time":120.59302325581395,"velocity":0.30708661417322836},{"duration":0.06976744186047767,"midi":75,"time":120.59302325581395,"velocity":0.15748031496062992},{"duration":0.04651162790698038,"midi":79,"time":120.59302325581395,"velocity":0.14960629921259844},{"duration":0.04651162790698038,"midi":81,"time":120.59302325581395,"velocity":0.09448818897637795},{"duration":0.05813953488372192,"midi":83,"time":120.59302325581395,"velocity":0.1889763779527559},{"duration":0.05813953488372192,"midi":86,"time":120.59302325581395,"velocity":0.18110236220472442},{"duration":0.04651162790698038,"midi":87,"time":120.59302325581395,"velocity":0.2204724409448819},{"duration":0.03488372093023884,"midi":90,"time":120.59302325581395,"velocity":0.10236220472440945},{"duration":0.04651162790698038,"midi":97,"time":120.59302325581395,"velocity":0.07874015748031496},{"duration":0.11627906976744384,"midi":60,"time":120.6046511627907,"velocity":0.30708661417322836},{"duration":0.05813953488372192,"midi":65,"time":120.6046511627907,"velocity":0.2440944881889764},{"duration":0.034883720930224626,"midi":53,"time":120.61627906976744,"velocity":0.30708661417322836},{"duration":0.023255813953483084,"midi":69,"time":120.61627906976744,"velocity":0.31496062992125984},{"duration":0.023255813953483084,"midi":67,"time":120.62790697674419,"velocity":0.29133858267716534},{"duration":0.04651162790698038,"midi":94,"time":120.62790697674419,"velocity":0.08661417322834646},{"duration":0.08139534883721922,"midi":41,"time":120.63953488372093,"velocity":0.33070866141732286},{"duration":0.15116279069768268,"midi":68,"time":120.65116279069767,"velocity":0.44881889763779526},{"duration":0.06976744186046346,"midi":87,"time":120.66279069767442,"velocity":0.11811023622047244},{"duration":0.023255813953483084,"midi":69,"time":120.79069767441861,"velocity":0.29133858267716534},{"duration":0.04651162790698038,"midi":68,"time":120.81395348837209,"velocity":0.3700787401574803},{"duration":0.03488372093023884,"midi":87,"time":120.82558139534883,"velocity":0.1732283464566929},{"duration":0.05813953488372192,"midi":77,"time":120.84883720930233,"velocity":0.15748031496062992},{"duration":0.05813953488372192,"midi":86,"time":120.84883720930233,"velocity":0.2204724409448819},{"duration":0.034883720930224626,"midi":93,"time":120.84883720930233,"velocity":0.18110236220472442},{"duration":0.06976744186046346,"midi":95,"time":120.84883720930233,"velocity":0.23622047244094488},{"duration":0.034883720930224626,"midi":97,"time":120.84883720930233,"velocity":0.18110236220472442},{"duration":0.034883720930224626,"midi":100,"time":120.84883720930233,"velocity":0.2204724409448819},{"duration":0.034883720930224626,"midi":102,"time":120.84883720930233,"velocity":0.14960629921259844},{"duration":0.15116279069766847,"midi":61,"time":120.86046511627907,"velocity":0.2992125984251969},{"duration":0.023255813953483084,"midi":66,"time":120.86046511627907,"velocity":0.2755905511811024},{"duration":0.06976744186046346,"midi":71,"time":120.86046511627907,"velocity":0.15748031496062992},{"duration":0.081395348837205,"midi":79,"time":120.86046511627907,"velocity":0.1889763779527559},{"duration":0.05813953488372192,"midi":83,"time":120.86046511627907,"velocity":0.15748031496062992},{"duration":0.011627906976741542,"midi":48,"time":120.87209302325581,"velocity":0.5511811023622047},{"duration":0.011627906976741542,"midi":46,"time":120.88372093023256,"velocity":0.5984251968503937},{"duration":0.1046511627907023,"midi":56,"time":120.88372093023256,"velocity":0.25984251968503935},{"duration":0.11627906976744384,"midi":65,"time":120.88372093023256,"velocity":0.2047244094488189},{"duration":0.09302325581396076,"midi":68,"time":120.88372093023256,"velocity":0.3937007874015748},{"duration":0.04651162790698038,"midi":82,"time":120.88372093023256,"velocity":0.12598425196850394},{"duration":0.011627906976755753,"midi":45,"time":120.8953488372093,"velocity":0.6141732283464567},{"duration":0.011627906976741542,"midi":43,"time":120.90697674418605,"velocity":0.6062992125984252},{"duration":0.011627906976741542,"midi":42,"time":120.9186046511628,"velocity":0.5905511811023622},{"duration":0.11627906976744384,"midi":99,"time":120.9186046511628,"velocity":0.12598425196850394},{"duration":0.023255813953483084,"midi":41,"time":120.93023255813954,"velocity":0.49606299212598426},{"duration":0.05813953488372192,"midi":49,"time":120.94186046511628,"velocity":0.29133858267716534},{"duration":0.04651162790698038,"midi":88,"time":120.94186046511628,"velocity":0.07086614173228346},{"duration":0.023255813953483084,"midi":36,"time":120.97674418604652,"velocity":0.2992125984251969},{"duration":0.2093023255813904,"midi":68,"time":120.98837209302326,"velocity":0.47244094488188976},{"duration":0.09302325581396076,"midi":61,"time":121.02325581395348,"velocity":0.16535433070866143},{"duration":0.03488372093023884,"midi":87,"time":121.09302325581395,"velocity":0.11811023622047244},{"duration":0.06976744186046346,"midi":88,"time":121.1046511627907,"velocity":0.2204724409448819},{"duration":0.04651162790696617,"midi":99,"time":121.1046511627907,"velocity":0.13385826771653545},{"duration":0.023255813953483084,"midi":65,"time":121.11627906976744,"velocity":0.2992125984251969},{"duration":0.05813953488372192,"midi":79,"time":121.11627906976744,"velocity":0.25196850393700787},{"duration":0.034883720930224626,"midi":93,"time":121.11627906976744,"velocity":0.2440944881889764},{"duration":0.034883720930224626,"midi":95,"time":121.11627906976744,"velocity":0.1889763779527559},{"duration":0.04651162790698038,"midi":96,"time":121.11627906976744,"velocity":0.23622047244094488},{"duration":0.023255813953483084,"midi":73,"time":121.12790697674419,"velocity":0.29133858267716534},{"duration":0.09302325581396076,"midi":75,"time":121.12790697674419,"velocity":0.2125984251968504},{"duration":0.06976744186046346,"midi":81,"time":121.12790697674419,"velocity":0.29133858267716534},{"duration":0.05813953488372192,"midi":84,"time":121.12790697674419,"velocity":0.2204724409448819},{"duration":0.023255813953497295,"midi":59,"time":121.13953488372093,"velocity":0.3700787401574803},{"duration":0.08139534883721922,"midi":63,"time":121.13953488372093,"velocity":0.29133858267716534},{"duration":0.05813953488372192,"midi":77,"time":121.13953488372093,"velocity":0.18110236220472442},{"duration":0.04651162790698038,"midi":82,"time":121.13953488372093,"velocity":0.11811023622047244},{"duration":0.04651162790698038,"midi":72,"time":121.15116279069767,"velocity":0.1889763779527559},{"duration":0.023255813953483084,"midi":52,"time":121.16279069767442,"velocity":0.3858267716535433},{"duration":0.023255813953483084,"midi":58,"time":121.16279069767442,"velocity":0.3543307086614173},{"duration":0.034883720930224626,"midi":39,"time":121.17441860465117,"velocity":0.3700787401574803},{"duration":0.023255813953497295,"midi":58,"time":121.19767441860465,"velocity":0.2677165354330709},{"duration":0.03488372093023884,"midi":67,"time":121.19767441860465,"velocity":0.29133858267716534},{"duration":0.023255813953483084,"midi":52,"time":121.22093023255815,"velocity":0.2992125984251969},{"duration":0.034883720930224626,"midi":60,"time":121.22093023255815,"velocity":0.2755905511811024},{"duration":0.04651162790696617,"midi":68,"time":121.23255813953489,"velocity":0.4330708661417323},{"duration":0.04651162790698038,"midi":100,"time":121.25581395348837,"velocity":0.10236220472440945},{"duration":0.05813953488372192,"midi":60,"time":121.27906976744185,"velocity":0.29133858267716534},{"duration":0.023255813953497295,"midi":69,"time":121.27906976744185,"velocity":0.2283464566929134},{"duration":0.06976744186046346,"midi":53,"time":121.29069767441861,"velocity":0.25196850393700787},{"duration":0.05813953488372192,"midi":68,"time":121.30232558139535,"velocity":0.4094488188976378},{"duration":0.03488372093023884,"midi":87,"time":121.31395348837209,"velocity":0.12598425196850394},{"duration":0.023255813953483084,"midi":57,"time":121.37209302325581,"velocity":0.4251968503937008},{"duration":0.023255813953483084,"midi":61,"time":121.37209302325581,"velocity":0.41732283464566927},{"duration":0.023255813953483084,"midi":67,"time":121.37209302325581,"velocity":0.3937007874015748},{"duration":0.11627906976744384,"midi":72,"time":121.37209302325581,"velocity":0.1968503937007874},{"duration":0.1046511627907023,"midi":87,"time":121.37209302325581,"velocity":0.1889763779527559},{"duration":0.03488372093023884,"midi":80,"time":121.38372093023256,"velocity":0.12598425196850394},{"duration":0.06976744186046346,"midi":88,"time":121.38372093023256,"velocity":0.18110236220472442},{"duration":0.05813953488372192,"midi":90,"time":121.38372093023256,"velocity":0.29133858267716534},{"duration":0.04651162790698038,"midi":96,"time":121.38372093023256,"velocity":0.09448818897637795},{"duration":0.04651162790698038,"midi":97,"time":121.38372093023256,"velocity":0.12598425196850394},{"duration":0.03488372093023884,"midi":98,"time":121.38372093023256,"velocity":0.2047244094488189},{"duration":0.03488372093023884,"midi":100,"time":121.38372093023256,"velocity":0.1968503937007874},{"duration":0.05813953488372192,"midi":101,"time":121.38372093023256,"velocity":0.1732283464566929},{"duration":0.03488372093023884,"midi":103,"time":121.38372093023256,"velocity":0.15748031496062992},{"duration":0.03488372093023884,"midi":45,"time":121.3953488372093,"velocity":0.5984251968503937},{"duration":0.011627906976755753,"midi":55,"time":121.3953488372093,"velocity":0.5275590551181102},{"duration":0.17441860465116577,"midi":68,"time":121.3953488372093,"velocity":0.4330708661417323},{"duration":0.03488372093023884,"midi":81,"time":121.3953488372093,"velocity":0.14960629921259844},{"duration":0.05813953488372192,"midi":83,"time":121.3953488372093,"velocity":0.14960629921259844},{"duration":0.08139534883721922,"midi":89,"time":121.3953488372093,"velocity":0.2047244094488189},{"duration":0.06976744186046346,"midi":94,"time":121.3953488372093,"velocity":0.14173228346456693},{"duration":0.034883720930224626,"midi":70,"time":121.40697674418605,"velocity":0.13385826771653545},{"duration":0.06976744186046346,"midi":85,"time":121.40697674418605,"velocity":0.10236220472440945},{"duration":0.04651162790696617,"midi":56,"time":121.4186046511628,"velocity":0.25196850393700787},{"duration":0.011627906976741542,"midi":44,"time":121.43023255813954,"velocity":0.5984251968503937},{"duration":0.023255813953483084,"midi":51,"time":121.43023255813954,"velocity":0.30708661417322836},{"duration":0.011627906976741542,"midi":43,"time":121.44186046511628,"velocity":0.5748031496062992},{"duration":0.011627906976741542,"midi":42,"time":121.45348837209302,"velocity":0.5354330708661418},{"duration":0.023255813953497295,"midi":52,"time":121.45348837209302,"velocity":0.2992125984251969},{"duration":0.03488372093023884,"midi":36,"time":121.51162790697674,"velocity":0.33858267716535434},{"duration":0.09302325581396076,"midi":74,"time":121.51162790697674,"velocity":0.1968503937007874},{"duration":0.03488372093023884,"midi":87,"time":121.51162790697674,"velocity":0.15748031496062992},{"duration":0.06976744186046346,"midi":70,"time":121.52325581395348,"velocity":0.2992125984251969},{"duration":0.06976744186046346,"midi":77,"time":121.52325581395348,"velocity":0.10236220472440945},{"duration":0.034883720930224626,"midi":65,"time":121.54651162790698,"velocity":0.18110236220472442},{"duration":0.081395348837205,"midi":87,"time":121.55813953488372,"velocity":0.13385826771653545},{"duration":0.03488372093023884,"midi":67,"time":121.56976744186046,"velocity":0.2125984251968504},{"duration":0.023255813953483084,"midi":66,"time":121.62790697674419,"velocity":0.25984251968503935},{"duration":0.16279069767442422,"midi":68,"time":121.62790697674419,"velocity":0.3464566929133858},{"duration":0.04651162790698038,"midi":70,"time":121.62790697674419,"velocity":0.2992125984251969},{"duration":0.03488372093023884,"midi":85,"time":121.63953488372093,"velocity":0.14960629921259844},{"duration":0.05813953488372192,"midi":86,"time":121.63953488372093,"velocity":0.2440944881889764},{"duration":0.03488372093023884,"midi":81,"time":121.65116279069767,"velocity":0.09448818897637795},{"duration":0.05813953488372192,"midi":83,"time":121.65116279069767,"velocity":0.2283464566929134},{"duration":0.03488372093023884,"midi":84,"time":121.65116279069767,"velocity":0.11811023622047244},{"duration":0.023255813953483084,"midi":48,"time":121.66279069767442,"velocity":0.30708661417322836},{"duration":0.023255813953483084,"midi":41,"time":121.67441860465117,"velocity":0.3858267716535433},{"duration":0.081395348837205,"midi":65,"time":121.67441860465117,"velocity":0.3779527559055118},{"duration":0.05813953488372192,"midi":71,"time":121.67441860465117,"velocity":0.2677165354330709},{"duration":0.03488372093023884,"midi":57,"time":121.68604651162791,"velocity":0.2204724409448819},{"duration":0.03488372093023884,"midi":75,"time":121.69767441860465,"velocity":0.07086614173228346},{"duration":0.03488372093023884,"midi":94,"time":121.69767441860465,"velocity":0.07874015748031496},{"duration":0.05813953488370771,"midi":48,"time":121.72093023255815,"velocity":0.2992125984251969},{"duration":0.034883720930224626,"midi":89,"time":121.72093023255815,"velocity":0.08661417322834646},{"duration":0.05813953488372192,"midi":41,"time":121.73255813953489,"velocity":0.2992125984251969},{"duration":0.04651162790698038,"midi":64,"time":121.75581395348837,"velocity":0.36220472440944884},{"duration":0.03488372093023884,"midi":88,"time":121.76744186046511,"velocity":0.15748031496062992},{"duration":0.09302325581396076,"midi":70,"time":121.77906976744185,"velocity":0.33858267716535434},{"duration":0.03488372093023884,"midi":74,"time":121.77906976744185,"velocity":0.2204724409448819},{"duration":0.03488372093023884,"midi":77,"time":121.77906976744185,"velocity":0.25196850393700787},{"duration":0.05813953488372192,"midi":81,"time":121.77906976744185,"velocity":0.2283464566929134},{"duration":0.034883720930224626,"midi":57,"time":121.79069767441861,"velocity":0.2755905511811024},{"duration":0.04651162790696617,"midi":84,"time":121.79069767441861,"velocity":0.11811023622047244},{"duration":0.034883720930224626,"midi":87,"time":121.79069767441861,"velocity":0.16535433070866143},{"duration":0.034883720930224626,"midi":51,"time":121.80232558139535,"velocity":0.33070866141732286},{"duration":0.023255813953483084,"midi":66,"time":121.80232558139535,"velocity":0.3700787401574803},{"duration":0.023255813953483084,"midi":60,"time":121.81395348837209,"velocity":0.23622047244094488},{"duration":0.04651162790698038,"midi":63,"time":121.81395348837209,"velocity":0.3700787401574803},{"duration":0.04651162790698038,"midi":68,"time":121.81395348837209,"velocity":0.18110236220472442},{"duration":0.03488372093023884,"midi":79,"time":121.81395348837209,"velocity":0.09448818897637795},{"duration":0.05813953488372192,"midi":44,"time":121.82558139534883,"velocity":0.36220472440944884},{"duration":0.04651162790698038,"midi":74,"time":121.82558139534883,"velocity":0.2755905511811024},{"duration":0.04651162790698038,"midi":77,"time":121.82558139534883,"velocity":0.1968503937007874},{"duration":0.05813953488372192,"midi":51,"time":121.84883720930233,"velocity":0.2992125984251969},{"duration":0.04651162790698038,"midi":32,"time":121.87209302325581,"velocity":0.3464566929133858},{"duration":0.03488372093023884,"midi":70,"time":121.88372093023256,"velocity":0.25196850393700787},{"duration":0.04651162790698038,"midi":72,"time":121.8953488372093,"velocity":0.33070866141732286},{"duration":0.15116279069766847,"midi":58,"time":121.90697674418605,"velocity":0.29133858267716534},{"duration":0.034883720930224626,"midi":65,"time":121.90697674418605,"velocity":0.3779527559055118},{"duration":0.05813953488370771,"midi":79,"time":121.90697674418605,"velocity":0.1968503937007874},{"duration":0.04651162790696617,"midi":88,"time":121.90697674418605,"velocity":0.18110236220472442},{"duration":0.034883720930224626,"midi":96,"time":121.90697674418605,"velocity":0.18110236220472442},{"duration":0.034883720930224626,"midi":98,"time":121.90697674418605,"velocity":0.16535433070866143},{"duration":0.15116279069766847,"midi":99,"time":121.90697674418605,"velocity":0.2204724409448819},{"duration":0.034883720930224626,"midi":100,"time":121.90697674418605,"velocity":0.2125984251968504},{"duration":0.06976744186046346,"midi":102,"time":121.90697674418605,"velocity":0.16535433070866143},{"duration":0.034883720930224626,"midi":103,"time":121.90697674418605,"velocity":0.2283464566929134},{"duration":0.034883720930224626,"midi":83,"time":121.9186046511628,"velocity":0.13385826771653545},{"duration":0.15116279069766847,"midi":101,"time":121.9186046511628,"velocity":0.11023622047244094},{"duration":0.011627906976741542,"midi":48,"time":121.93023255813954,"velocity":0.5354330708661418},{"duration":0.05813953488372192,"midi":76,"time":121.93023255813954,"velocity":0.2125984251968504},{"duration":0.034883720930224626,"midi":80,"time":121.93023255813954,"velocity":0.07874015748031496},{"duration":0.023255813953483084,"midi":45,"time":121.94186046511628,"velocity":0.6299212598425197},{"duration":0.023255813953483084,"midi":67,"time":121.94186046511628,"velocity":0.33070866141732286},{"duration":0.023255813953483084,"midi":73,"time":121.94186046511628,"velocity":0.28346456692913385},{"duration":0.011627906976755753,"midi":43,"time":121.96511627906976,"velocity":0.5984251968503937},{"duration":0.08139534883721922,"midi":68,"time":121.96511627906976,"velocity":0.3543307086614173},{"duration":0.023255813953483084,"midi":42,"time":121.97674418604652,"velocity":0.5433070866141733},{"duration":0.10465116279068809,"midi":53,"time":121.97674418604652,"velocity":0.2677165354330709},{"duration":0.034883720930224626,"midi":62,"time":121.98837209302326,"velocity":0.1968503937007874},{"duration":0.2093023255813904,"midi":73,"time":121.98837209302326,"velocity":0.36220472440944884},{"duration":0.04651162790698038,"midi":70,"time":122.01162790697674,"velocity":0.29133858267716534},{"duration":0.03488372093023884,"midi":36,"time":122.02325581395348,"velocity":0.41732283464566927},{"duration":0.12790697674418539,"midi":96,"time":122.02325581395348,"velocity":0.2677165354330709},{"duration":0.034883720930224626,"midi":98,"time":122.05813953488372,"velocity":0.10236220472440945},{"duration":0.03488372093023884,"midi":46,"time":122.06976744186046,"velocity":0.10236220472440945},{"duration":0.06976744186046346,"midi":70,"time":122.0813953488372,"velocity":0.2677165354330709},{"duration":0.04651162790698038,"midi":65,"time":122.11627906976744,"velocity":0.18110236220472442},{"duration":0.13953488372094114,"midi":68,"time":122.15116279069767,"velocity":0.2204724409448819},{"duration":0.12790697674418539,"midi":51,"time":122.17441860465117,"velocity":0.30708661417322836},{"duration":0.06976744186046346,"midi":77,"time":122.17441860465117,"velocity":0.2125984251968504},{"duration":0.05813953488372192,"midi":86,"time":122.17441860465117,"velocity":0.2204724409448819},{"duration":0.04651162790698038,"midi":89,"time":122.17441860465117,"velocity":0.2440944881889764},{"duration":0.034883720930224626,"midi":91,"time":122.17441860465117,"velocity":0.07086614173228346},{"duration":0.05813953488372192,"midi":78,"time":122.18604651162791,"velocity":0.1968503937007874},{"duration":0.04651162790698038,"midi":81,"time":122.18604651162791,"velocity":0.2204724409448819},{"duration":0.11627906976744384,"midi":44,"time":122.19767441860465,"velocity":0.3858267716535433},{"duration":0.04651162790698038,"midi":66,"time":122.19767441860465,"velocity":0.18110236220472442},{"duration":0.06976744186046346,"midi":70,"time":122.19767441860465,"velocity":0.12598425196850394},{"duration":0.04651162790698038,"midi":74,"time":122.19767441860465,"velocity":0.2440944881889764},{"duration":0.11627906976744384,"midi":60,"time":122.20930232558139,"velocity":0.2204724409448819},{"duration":0.03488372093023884,"midi":100,"time":122.20930232558139,"velocity":0.08661417322834646},{"duration":0.034883720930224626,"midi":75,"time":122.22093023255815,"velocity":0.07874015748031496},{"duration":0.023255813953483084,"midi":33,"time":122.25581395348837,"velocity":0.29133858267716534},{"duration":0.03488372093023884,"midi":73,"time":122.25581395348837,"velocity":0.15748031496062992},{"duration":0.04651162790698038,"midi":94,"time":122.25581395348837,"velocity":0.13385826771653545},{"duration":0.03488372093023884,"midi":65,"time":122.26744186046511,"velocity":0.11811023622047244},{"duration":0.04651162790698038,"midi":32,"time":122.27906976744185,"velocity":0.30708661417322836},{"duration":0.023255813953483084,"midi":69,"time":122.29069767441861,"velocity":0.3700787401574803},{"duration":0.10465116279068809,"midi":102,"time":122.29069767441861,"velocity":0.14173228346456693},{"duration":0.023255813953483084,"midi":73,"time":122.30232558139535,"velocity":0.2992125984251969},{"duration":0.05813953488372192,"midi":88,"time":122.30232558139535,"velocity":0.2283464566929134},{"duration":0.04651162790698038,"midi":91,"time":122.30232558139535,"velocity":0.2047244094488189},{"duration":0.034883720930224626,"midi":97,"time":122.30232558139535,"velocity":0.15748031496062992},{"duration":0.023255813953483084,"midi":46,"time":122.31395348837209,"velocity":0.33070866141732286},{"duration":0.05813953488372192,"midi":66,"time":122.31395348837209,"velocity":0.3228346456692913},{"duration":0.13953488372092693,"midi":68,"time":122.31395348837209,"velocity":0.3464566929133858},{"duration":0.1046511627907023,"midi":70,"time":122.31395348837209,"velocity":0.3464566929133858},{"duration":0.04651162790698038,"midi":83,"time":122.31395348837209,"velocity":0.1968503937007874},{"duration":0.03488372093023884,"midi":86,"time":122.31395348837209,"velocity":0.08661417322834646},{"duration":0.05813953488372192,"midi":74,"time":122.32558139534883,"velocity":0.33858267716535434},{"duration":0.06976744186046346,"midi":76,"time":122.32558139534883,"velocity":0.2440944881889764},{"duration":0.06976744186046346,"midi":79,"time":122.32558139534883,"velocity":0.25196850393700787},{"duration":0.04651162790698038,"midi":81,"time":122.32558139534883,"velocity":0.14960629921259844},{"duration":0.05813953488372192,"midi":98,"time":122.32558139534883,"velocity":0.11811023622047244},{"duration":0.09302325581396076,"midi":53,"time":122.33720930232558,"velocity":0.30708661417322836},{"duration":0.08139534883721922,"midi":58,"time":122.33720930232558,"velocity":0.28346456692913385},{"duration":0.06976744186047767,"midi":62,"time":122.33720930232558,"velocity":0.1968503937007874},{"duration":0.081395348837205,"midi":46,"time":122.34883720930233,"velocity":0.30708661417322836},{"duration":0.023255813953483084,"midi":35,"time":122.37209302325581,"velocity":0.33858267716535434},{"duration":0.081395348837205,"midi":65,"time":122.37209302325581,"velocity":0.4251968503937008},{"duration":0.19767441860464885,"midi":73,"time":122.38372093023256,"velocity":0.3228346456692913},{"duration":0.16279069767442422,"midi":92,"time":122.38372093023256,"velocity":0.2440944881889764},{"duration":0.13953488372092693,"midi":96,"time":122.38372093023256,"velocity":0.1732283464566929},{"duration":0.04651162790698038,"midi":34,"time":122.3953488372093,"velocity":0.33070866141732286},{"duration":0.06976744186046346,"midi":95,"time":122.43023255813954,"velocity":0.1968503937007874},{"duration":0.03488372093023884,"midi":79,"time":122.44186046511628,"velocity":0.11811023622047244},{"duration":0.06976744186046346,"midi":83,"time":122.44186046511628,"velocity":0.14173228346456693},{"duration":0.03488372093023884,"midi":87,"time":122.44186046511628,"velocity":0.14960629921259844},{"duration":0.06976744186046346,"midi":88,"time":122.44186046511628,"velocity":0.25984251968503935},{"duration":0.09302325581396076,"midi":89,"time":122.44186046511628,"velocity":0.1968503937007874},{"duration":0.06976744186046346,"midi":90,"time":122.44186046511628,"velocity":0.2992125984251969},{"duration":0.04651162790698038,"midi":93,"time":122.44186046511628,"velocity":0.1732283464566929},{"duration":0.06976744186046346,"midi":94,"time":122.44186046511628,"velocity":0.12598425196850394},{"duration":0.03488372093023884,"midi":98,"time":122.44186046511628,"velocity":0.1732283464566929},{"duration":0.011627906976741542,"midi":53,"time":122.45348837209302,"velocity":0.5118110236220472},{"duration":0.023255813953497295,"midi":62,"time":122.45348837209302,"velocity":0.29133858267716534},{"duration":0.04651162790698038,"midi":101,"time":122.45348837209302,"velocity":0.2047244094488189},{"duration":0.023255813953497295,"midi":45,"time":122.46511627906976,"velocity":0.6141732283464567},{"duration":0.011627906976755753,"midi":51,"time":122.46511627906976,"velocity":0.5118110236220472},{"duration":0.06976744186047767,"midi":65,"time":122.46511627906976,"velocity":0.25984251968503935},{"duration":0.12790697674418539,"midi":68,"time":122.46511627906976,"velocity":0.30708661417322836},{"duration":0.05813953488372192,"midi":82,"time":122.46511627906976,"velocity":0.1732283464566929},{"duration":0.03488372093023884,"midi":91,"time":122.46511627906976,"velocity":0.16535433070866143},{"duration":0.011627906976741542,"midi":44,"time":122.48837209302326,"velocity":0.5984251968503937},{"duration":0.023255813953483084,"midi":42,"time":122.5,"velocity":0.5826771653543307},{"duration":0.023255813953483084,"midi":51,"time":122.5,"velocity":0.2992125984251969},{"duration":0.06976744186046346,"midi":70,"time":122.5,"velocity":0.2440944881889764},{"duration":0.03488372093023884,"midi":87,"time":122.5,"velocity":0.10236220472440945},{"duration":0.023255813953483084,"midi":53,"time":122.53488372093024,"velocity":0.25196850393700787},{"duration":0.034883720930224626,"midi":65,"time":122.54651162790698,"velocity":0.25984251968503935},{"duration":0.09302325581394655,"midi":82,"time":122.54651162790698,"velocity":0.2440944881889764},{"duration":0.023255813953483084,"midi":36,"time":122.56976744186046,"velocity":0.33070866141732286},{"duration":0.15116279069768268,"midi":61,"time":122.56976744186046,"velocity":0.3228346456692913},{"duration":0.023255813953483084,"midi":78,"time":122.56976744186046,"velocity":0.2440944881889764},{"duration":0.081395348837205,"midi":84,"time":122.56976744186046,"velocity":0.11811023622047244},{"duration":0.04651162790698038,"midi":91,"time":122.56976744186046,"velocity":0.1889763779527559},{"duration":0.03488372093023884,"midi":93,"time":122.56976744186046,"velocity":0.12598425196850394},{"duration":0.023255813953497295,"midi":48,"time":122.5813953488372,"velocity":0.3700787401574803},{"duration":0.11627906976744384,"midi":56,"time":122.5813953488372,"velocity":0.2755905511811024},{"duration":0.03488372093023884,"midi":77,"time":122.5813953488372,"velocity":0.1732283464566929},{"duration":0.06976744186046346,"midi":83,"time":122.5813953488372,"velocity":0.2125984251968504},{"duration":0.04651162790698038,"midi":86,"time":122.5813953488372,"velocity":0.18110236220472442},{"duration":0.1046511627907023,"midi":65,"time":122.59302325581395,"velocity":0.3464566929133858},{"duration":0.04651162790698038,"midi":70,"time":122.59302325581395,"velocity":0.2047244094488189},{"duration":0.04651162790698038,"midi":75,"time":122.59302325581395,"velocity":0.10236220472440945},{"duration":0.08139534883721922,"midi":79,"time":122.59302325581395,"velocity":0.2440944881889764},{"duration":0.034883720930224626,"midi":49,"time":122.6046511627907,"velocity":0.3228346456692913},{"duration":0.034883720930224626,"midi":80,"time":122.6046511627907,"velocity":0.11811023622047244},{"duration":0.023255813953497295,"midi":50,"time":122.63953488372093,"velocity":0.33070866141732286},{"duration":0.023255813953497295,"midi":37,"time":122.65116279069767,"velocity":0.3464566929133858},{"duration":0.16279069767441,"midi":72,"time":122.67441860465117,"velocity":0.33070866141732286},{"duration":0.034883720930224626,"midi":75,"time":122.67441860465117,"velocity":0.16535433070866143},{"duration":0.034883720930224626,"midi":80,"time":122.67441860465117,"velocity":0.25196850393700787},{"duration":0.12790697674418539,"midi":88,"time":122.67441860465117,"velocity":0.2992125984251969},{"duration":0.023255813953483084,"midi":50,"time":122.68604651162791,"velocity":0.33070866141732286},{"duration":0.03488372093023884,"midi":92,"time":122.68604651162791,"velocity":0.2677165354330709},{"duration":0.09302325581396076,"midi":81,"time":122.69767441860465,"velocity":0.44881889763779526},{"duration":0.09302325581396076,"midi":85,"time":122.69767441860465,"velocity":0.3543307086614173},{"duration":0.04651162790698038,"midi":87,"time":122.69767441860465,"velocity":0.2047244094488189},{"duration":0.081395348837205,"midi":90,"time":122.69767441860465,"velocity":0.2440944881889764},{"duration":0.12790697674418539,"midi":94,"time":122.69767441860465,"velocity":0.16535433070866143},{"duration":0.05813953488372192,"midi":76,"time":122.70930232558139,"velocity":0.1968503937007874},{"duration":0.08139534883721922,"midi":78,"time":122.70930232558139,"velocity":0.25196850393700787},{"duration":0.2093023255814046,"midi":91,"time":122.70930232558139,"velocity":0.2755905511811024},{"duration":0.09302325581394655,"midi":60,"time":122.72093023255815,"velocity":0.30708661417322836},{"duration":0.06976744186046346,"midi":70,"time":122.72093023255815,"velocity":0.1732283464566929},{"duration":0.05813953488372192,"midi":64,"time":122.73255813953489,"velocity":0.2440944881889764},{"duration":0.25581395348837077,"midi":92,"time":122.73255813953489,"velocity":0.23622047244094488},{"duration":0.11627906976744384,"midi":48,"time":122.74418604651163,"velocity":0.33070866141732286},{"duration":0.06976744186046346,"midi":55,"time":122.74418604651163,"velocity":0.30708661417322836},{"duration":0.13953488372092693,"midi":82,"time":122.74418604651163,"velocity":0.3700787401574803},{"duration":0.023255813953483084,"midi":37,"time":122.75581395348837,"velocity":0.3543307086614173},{"duration":0.13953488372092693,"midi":84,"time":122.75581395348837,"velocity":0.3700787401574803},{"duration":0.06976744186046346,"midi":75,"time":122.76744186046511,"velocity":0.14173228346456693},{"duration":0.06976744186047767,"midi":36,"time":122.77906976744185,"velocity":0.3543307086614173},{"duration":0.11627906976744384,"midi":80,"time":122.77906976744185,"velocity":0.4094488188976378},{"duration":0.08139534883721922,"midi":87,"time":122.77906976744185,"velocity":0.16535433070866143},{"duration":0.04651162790698038,"midi":100,"time":122.80232558139535,"velocity":0.07874015748031496},{"duration":0.081395348837205,"midi":63,"time":122.81395348837209,"velocity":0.15748031496062992},{"duration":0.11627906976744384,"midi":56,"time":122.86046511627907,"velocity":0.18110236220472442},{"duration":0.05813953488372192,"midi":72,"time":122.86046511627907,"velocity":0.2992125984251969},{"duration":0.05813953488372192,"midi":81,"time":122.86046511627907,"velocity":0.33858267716535434},{"duration":0.06976744186046346,"midi":88,"time":122.86046511627907,"velocity":0.18110236220472442},{"duration":0.04651162790698038,"midi":83,"time":122.87209302325581,"velocity":0.2047244094488189},{"duration":0.03488372093023884,"midi":76,"time":122.88372093023256,"velocity":0.11811023622047244},{"duration":0.023255813953497295,"midi":85,"time":122.88372093023256,"velocity":0.2677165354330709},{"duration":0.05813953488372192,"midi":82,"time":122.8953488372093,"velocity":0.18110236220472442},{"duration":0.19767441860464885,"midi":80,"time":122.90697674418605,"velocity":0.3228346456692913},{"duration":0.04651162790698038,"midi":65,"time":122.93023255813954,"velocity":0.18110236220472442},{"duration":0.03488372093023884,"midi":87,"time":122.94186046511628,"velocity":0.18110236220472442},{"duration":0.05813953488372192,"midi":84,"time":122.96511627906976,"velocity":0.18110236220472442},{"duration":0.03488372093023884,"midi":91,"time":122.96511627906976,"velocity":0.14173228346456693},{"duration":0.05813953488372192,"midi":81,"time":122.97674418604652,"velocity":0.15748031496062992},{"duration":0.034883720930224626,"midi":86,"time":122.97674418604652,"velocity":0.12598425196850394},{"duration":0.011627906976741542,"midi":48,"time":122.98837209302326,"velocity":0.5354330708661418},{"duration":0.011627906976741542,"midi":45,"time":123,"velocity":0.6220472440944882},{"duration":0.011627906976741542,"midi":44,"time":123.01162790697674,"velocity":0.6299212598425197},{"duration":0.081395348837205,"midi":73,"time":123.01162790697674,"velocity":0.11023622047244094},{"duration":0.011627906976755753,"midi":43,"time":123.02325581395348,"velocity":0.6062992125984252},{"duration":0.04651162790698038,"midi":68,"time":123.02325581395348,"velocity":0.13385826771653545},{"duration":0.011627906976741542,"midi":42,"time":123.03488372093024,"velocity":0.5748031496062992},{"duration":0.011627906976741542,"midi":41,"time":123.04651162790698,"velocity":0.5275590551181102},{"duration":0.023255813953497295,"midi":37,"time":123.0813953488372,"velocity":0.4015748031496063},{"duration":0.034883720930224626,"midi":36,"time":123.1046511627907,"velocity":0.33070866141732286},{"duration":0.081395348837205,"midi":81,"time":123.1046511627907,"velocity":0.2125984251968504},{"duration":0.05813953488372192,"midi":70,"time":123.11627906976744,"velocity":0.2204724409448819},{"duration":0.034883720930224626,"midi":74,"time":123.11627906976744,"velocity":0.12598425196850394},{"duration":0.06976744186046346,"midi":84,"time":123.17441860465117,"velocity":0.08661417322834646},{"duration":0.04651162790698038,"midi":80,"time":123.18604651162791,"velocity":0.16535433070866143},{"duration":0.11627906976744384,"midi":74,"time":123.23255813953489,"velocity":0.2677165354330709},{"duration":0.13953488372092693,"midi":81,"time":123.23255813953489,"velocity":0.2283464566929134},{"duration":0.023255813953483084,"midi":66,"time":123.24418604651163,"velocity":0.2677165354330709},{"duration":0.12790697674418539,"midi":70,"time":123.24418604651163,"velocity":0.3779527559055118},{"duration":0.06976744186046346,"midi":77,"time":123.24418604651163,"velocity":0.18110236220472442},{"duration":0.17441860465116577,"midi":58,"time":123.25581395348837,"velocity":0.2047244094488189},{"duration":0.17441860465116577,"midi":65,"time":123.26744186046511,"velocity":0.25984251968503935},{"duration":0.1279069767441996,"midi":84,"time":123.27906976744185,"velocity":0.16535433070866143},{"duration":0.05813953488372192,"midi":80,"time":123.33720930232558,"velocity":0.13385826771653545},{"duration":0.023255813953483084,"midi":75,"time":123.36046511627907,"velocity":0.23622047244094488},{"duration":0.023255813953483084,"midi":71,"time":123.37209302325581,"velocity":0.25984251968503935},{"duration":0.081395348837205,"midi":74,"time":123.38372093023256,"velocity":0.25984251968503935},{"duration":0.05813953488372192,"midi":70,"time":123.43023255813954,"velocity":0.1732283464566929},{"duration":0.034883720930224626,"midi":80,"time":123.47674418604652,"velocity":0.2047244094488189},{"duration":0.023255813953483084,"midi":55,"time":123.48837209302326,"velocity":0.4645669291338583},{"duration":0.081395348837205,"midi":102,"time":123.48837209302326,"velocity":0.2204724409448819},{"duration":0.023255813953483084,"midi":60,"time":123.5,"velocity":0.4251968503937008},{"duration":0.05813953488372192,"midi":68,"time":123.5,"velocity":0.3700787401574803},{"duration":0.03488372093023884,"midi":73,"time":123.5,"velocity":0.2204724409448819},{"duration":0.03488372093023884,"midi":79,"time":123.5,"velocity":0.1968503937007874},{"duration":0.06976744186046346,"midi":82,"time":123.5,"velocity":0.1732283464566929},{"duration":0.06976744186046346,"midi":88,"time":123.5,"velocity":0.25984251968503935},{"duration":0.081395348837205,"midi":89,"time":123.5,"velocity":0.2283464566929134},{"duration":0.081395348837205,"midi":90,"time":123.5,"velocity":0.2677165354330709},{"duration":0.081395348837205,"midi":93,"time":123.5,"velocity":0.12598425196850394},{"duration":0.06976744186046346,"midi":94,"time":123.5,"velocity":0.1968503937007874},{"duration":0.05813953488372192,"midi":97,"time":123.5,"velocity":0.18110236220472442},{"duration":0.04651162790698038,"midi":98,"time":123.5,"velocity":0.09448818897637795},{"duration":0.03488372093023884,"midi":45,"time":123.51162790697674,"velocity":0.6141732283464567},{"duration":0.04651162790698038,"midi":83,"time":123.51162790697674,"velocity":0.12598425196850394},{"duration":0.05813953488372192,"midi":95,"time":123.52325581395348,"velocity":0.14173228346456693},{"duration":0.04651162790696617,"midi":99,"time":123.53488372093024,"velocity":0.13385826771653545},{"duration":0.011627906976741542,"midi":44,"time":123.54651162790698,"velocity":0.5905511811023622},{"duration":0.023255813953483084,"midi":42,"time":123.55813953488372,"velocity":0.5748031496062992},{"duration":0.04651162790698038,"midi":68,"time":123.56976744186046,"velocity":0.1968503937007874},{"duration":0.023255813953497295,"midi":56,"time":123.5813953488372,"velocity":0.36220472440944884},{"duration":0.023255813953483084,"midi":37,"time":123.6046511627907,"velocity":0.4015748031496063},{"duration":0.04651162790698038,"midi":63,"time":123.61627906976744,"velocity":0.15748031496062992},{"duration":0.03488372093023884,"midi":36,"time":123.62790697674419,"velocity":0.3228346456692913},{"duration":0.023255813953483084,"midi":55,"time":123.62790697674419,"velocity":0.4015748031496063},{"duration":0.06976744186046346,"midi":70,"time":123.62790697674419,"velocity":0.23622047244094488},{"duration":0.03488372093023884,"midi":79,"time":123.63953488372093,"velocity":0.14173228346456693},{"duration":0.15116279069768268,"midi":56,"time":123.65116279069767,"velocity":0.3937007874015748},{"duration":0.03488372093023884,"midi":85,"time":123.65116279069767,"velocity":0.07874015748031496},{"duration":0.05813953488372192,"midi":63,"time":123.67441860465117,"velocity":0.15748031496062992},{"duration":0.04651162790698038,"midi":88,"time":123.75581395348837,"velocity":0.2125984251968504},{"duration":0.03488372093023884,"midi":89,"time":123.75581395348837,"velocity":0.14960629921259844},{"duration":0.04651162790698038,"midi":91,"time":123.75581395348837,"velocity":0.2047244094488189},{"duration":0.023255813953497295,"midi":62,"time":123.76744186046511,"velocity":0.2283464566929134},{"duration":0.05813953488372192,"midi":79,"time":123.76744186046511,"velocity":0.25984251968503935},{"duration":0.04651162790698038,"midi":83,"time":123.76744186046511,"velocity":0.18110236220472442},{"duration":0.023255813953497295,"midi":45,"time":123.77906976744185,"velocity":0.3858267716535433},{"duration":0.08139534883721922,"midi":70,"time":123.77906976744185,"velocity":0.11023622047244094},{"duration":0.05813953488372192,"midi":76,"time":123.77906976744185,"velocity":0.2440944881889764},{"duration":0.04651162790698038,"midi":81,"time":123.77906976744185,"velocity":0.11811023622047244},{"duration":0.023255813953483084,"midi":53,"time":123.79069767441861,"velocity":0.3228346456692913},{"duration":0.04651162790696617,"midi":72,"time":123.79069767441861,"velocity":0.07874015748031496},{"duration":0.081395348837205,"midi":46,"time":123.80232558139535,"velocity":0.31496062992125984},{"duration":0.05813953488372192,"midi":34,"time":123.83720930232558,"velocity":0.3464566929133858},{"duration":0.19767441860464885,"midi":56,"time":123.84883720930233,"velocity":0.4330708661417323},{"duration":0.05813953488372192,"midi":70,"time":123.88372093023256,"velocity":0.33070866141732286},{"duration":0.05813953488372192,"midi":91,"time":123.88372093023256,"velocity":0.23622047244094488},{"duration":0.03488372093023884,"midi":93,"time":123.88372093023256,"velocity":0.1732283464566929},{"duration":0.05813953488372192,"midi":94,"time":123.88372093023256,"velocity":0.25196850393700787},{"duration":0.023255813953497295,"midi":62,"time":123.8953488372093,"velocity":0.29133858267716534},{"duration":0.08139534883721922,"midi":73,"time":123.8953488372093,"velocity":0.10236220472440945},{"duration":0.05813953488372192,"midi":77,"time":123.8953488372093,"velocity":0.2204724409448819},{"duration":0.06976744186046346,"midi":83,"time":123.8953488372093,"velocity":0.1889763779527559},{"duration":0.05813953488372192,"midi":86,"time":123.8953488372093,"velocity":0.1968503937007874},{"duration":0.023255813953483084,"midi":48,"time":123.90697674418605,"velocity":0.3858267716535433},{"duration":0.11627906976742963,"midi":65,"time":123.90697674418605,"velocity":0.2992125984251969},{"duration":0.09302325581394655,"midi":75,"time":123.90697674418605,"velocity":0.2755905511811024},{"duration":0.081395348837205,"midi":79,"time":123.90697674418605,"velocity":0.30708661417322836},{"duration":0.05813953488372192,"midi":61,"time":123.9186046511628,"velocity":0.33070866141732286},{"duration":0.04651162790698038,"midi":49,"time":123.93023255813954,"velocity":0.3464566929133858},{"duration":0.03488372093023884,"midi":37,"time":123.95348837209302,"velocity":0.4015748031496063},{"duration":0.03488372093023884,"midi":70,"time":123.95348837209302,"velocity":0.12598425196850394},{"duration":0.034883720930224626,"midi":49,"time":123.98837209302326,"velocity":0.1968503937007874},{"duration":0.04651162790698038,"midi":62,"time":123.98837209302326,"velocity":0.31496062992125984},{"duration":0.034883720930224626,"midi":69,"time":123.98837209302326,"velocity":0.14960629921259844},{"duration":0.03488372093023884,"midi":37,"time":124,"velocity":0.2755905511811024},{"duration":0.03488372093023884,"midi":83,"time":124.02325581395348,"velocity":0.1889763779527559},{"duration":0.03488372093023884,"midi":94,"time":124.02325581395348,"velocity":0.14960629921259844},{"duration":0.03488372093023884,"midi":96,"time":124.02325581395348,"velocity":0.09448818897637795},{"duration":0.03488372093023884,"midi":101,"time":124.02325581395348,"velocity":0.12598425196850394},{"duration":0.05813953488372192,"midi":102,"time":124.02325581395348,"velocity":0.1889763779527559},{"duration":0.03488372093023884,"midi":103,"time":124.02325581395348,"velocity":0.12598425196850394},{"duration":0.06976744186046346,"midi":63,"time":124.03488372093024,"velocity":0.3543307086614173},{"duration":0.22093023255813193,"midi":67,"time":124.03488372093024,"velocity":0.5590551181102362},{"duration":0.05813953488370771,"midi":70,"time":124.03488372093024,"velocity":0.2204724409448819},{"duration":0.034883720930224626,"midi":73,"time":124.03488372093024,"velocity":0.11811023622047244},{"duration":0.04651162790696617,"midi":77,"time":124.03488372093024,"velocity":0.1889763779527559},{"duration":0.05813953488370771,"midi":81,"time":124.03488372093024,"velocity":0.1732283464566929},{"duration":0.034883720930224626,"midi":88,"time":124.03488372093024,"velocity":0.16535433070866143},{"duration":0.04651162790696617,"midi":98,"time":124.03488372093024,"velocity":0.08661417322834646},{"duration":0.011627906976741542,"midi":48,"time":124.04651162790698,"velocity":0.5433070866141733},{"duration":0.011627906976741542,"midi":45,"time":124.05813953488372,"velocity":0.6141732283464567},{"duration":0.081395348837205,"midi":58,"time":124.05813953488372,"velocity":0.2204724409448819},{"duration":0.011627906976741542,"midi":44,"time":124.06976744186046,"velocity":0.6062992125984252},{"duration":0.011627906976741542,"midi":43,"time":124.0813953488372,"velocity":0.5984251968503937},{"duration":0.011627906976755753,"midi":42,"time":124.09302325581395,"velocity":0.5748031496062992},{"duration":0.011627906976741542,"midi":41,"time":124.1046511627907,"velocity":0.5196850393700787},{"duration":0.16279069767442422,"midi":61,"time":124.12790697674419,"velocity":0.16535433070866143},{"duration":0.023255813953497295,"midi":37,"time":124.13953488372093,"velocity":0.4015748031496063},{"duration":0.034883720930224626,"midi":36,"time":124.16279069767442,"velocity":0.2992125984251969},{"duration":0.2093023255813904,"midi":56,"time":124.17441860465117,"velocity":0.3228346456692913},{"duration":0.023255813953483084,"midi":68,"time":124.25581395348837,"velocity":0.4566929133858268},{"duration":0.04651162790698038,"midi":67,"time":124.27906976744185,"velocity":0.44881889763779526},{"duration":0.03488372093023884,"midi":99,"time":124.27906976744185,"velocity":0.10236220472440945},{"duration":0.04651162790696617,"midi":77,"time":124.29069767441861,"velocity":0.1889763779527559},{"duration":0.04651162790696617,"midi":86,"time":124.29069767441861,"velocity":0.2283464566929134},{"duration":0.04651162790696617,"midi":91,"time":124.29069767441861,"velocity":0.2047244094488189},{"duration":0.034883720930224626,"midi":94,"time":124.29069767441861,"velocity":0.2283464566929134},{"duration":0.023255813953483084,"midi":48,"time":124.30232558139535,"velocity":0.3700787401574803},{"duration":0.06976744186046346,"midi":71,"time":124.30232558139535,"velocity":0.1889763779527559},{"duration":0.04651162790698038,"midi":73,"time":124.30232558139535,"velocity":0.10236220472440945},{"duration":0.05813953488372192,"midi":82,"time":124.30232558139535,"velocity":0.25196850393700787},{"duration":0.081395348837205,"midi":61,"time":124.31395348837209,"velocity":0.2047244094488189},{"duration":0.04651162790698038,"midi":75,"time":124.31395348837209,"velocity":0.10236220472440945},{"duration":0.09302325581396076,"midi":49,"time":124.32558139534883,"velocity":0.31496062992125984},{"duration":0.023255813953497295,"midi":65,"time":124.32558139534883,"velocity":0.2440944881889764},{"duration":0.05813953488372192,"midi":68,"time":124.32558139534883,"velocity":0.49606299212598426},{"duration":0.081395348837205,"midi":37,"time":124.34883720930233,"velocity":0.3858267716535433},{"duration":0.04651162790698038,"midi":67,"time":124.37209302325581,"velocity":0.31496062992125984},{"duration":0.11627906976744384,"midi":87,"time":124.37209302325581,"velocity":0.14173228346456693},{"duration":0.06976744186046346,"midi":68,"time":124.40697674418605,"velocity":0.4330708661417323},{"duration":0.023255813953483084,"midi":48,"time":124.4186046511628,"velocity":0.2755905511811024},{"duration":0.04651162790696617,"midi":79,"time":124.4186046511628,"velocity":0.2047244094488189},{"duration":0.081395348837205,"midi":81,"time":124.4186046511628,"velocity":0.25984251968503935},{"duration":0.04651162790696617,"midi":88,"time":124.4186046511628,"velocity":0.2283464566929134},{"duration":0.034883720930224626,"midi":95,"time":124.4186046511628,"velocity":0.07086614173228346},{"duration":0.081395348837205,"midi":96,"time":124.4186046511628,"velocity":0.1889763779527559},{"duration":0.11627906976744384,"midi":58,"time":124.43023255813954,"velocity":0.3464566929133858},{"duration":0.06976744186046346,"midi":73,"time":124.43023255813954,"velocity":0.1968503937007874},{"duration":0.05813953488372192,"midi":75,"time":124.43023255813954,"velocity":0.11811023622047244},{"duration":0.04651162790698038,"midi":85,"time":124.43023255813954,"velocity":0.1968503937007874},{"duration":0.11627906976744384,"midi":51,"time":124.44186046511628,"velocity":0.33070866141732286},{"duration":0.03488372093023884,"midi":84,"time":124.44186046511628,"velocity":0.2047244094488189},{"duration":0.03488372093023884,"midi":86,"time":124.44186046511628,"velocity":0.09448818897637795},{"duration":0.03488372093023884,"midi":77,"time":124.45348837209302,"velocity":0.13385826771653545},{"duration":0.081395348837205,"midi":39,"time":124.47674418604652,"velocity":0.3543307086614173},{"duration":0.023255813953483084,"midi":67,"time":124.47674418604652,"velocity":0.3464566929133858},{"duration":0.034883720930224626,"midi":94,"time":124.47674418604652,"velocity":0.12598425196850394},{"duration":0.04651162790698038,"midi":68,"time":124.5,"velocity":0.4094488188976378},{"duration":0.05813953488370771,"midi":87,"time":124.53488372093024,"velocity":0.2204724409448819},{"duration":0.09302325581394655,"midi":89,"time":124.54651162790698,"velocity":0.2283464566929134},{"duration":0.06976744186046346,"midi":90,"time":124.54651162790698,"velocity":0.29133858267716534},{"duration":0.05813953488372192,"midi":96,"time":124.54651162790698,"velocity":0.1968503937007874},{"duration":0.034883720930224626,"midi":103,"time":124.54651162790698,"velocity":0.1732283464566929},{"duration":0.034883720930224626,"midi":80,"time":124.55813953488372,"velocity":0.15748031496062992},{"duration":0.06976744186046346,"midi":88,"time":124.55813953488372,"velocity":0.2440944881889764},{"duration":0.081395348837205,"midi":93,"time":124.55813953488372,"velocity":0.11023622047244094},{"duration":0.06976744186046346,"midi":94,"time":124.55813953488372,"velocity":0.2047244094488189},{"duration":0.04651162790698038,"midi":95,"time":124.55813953488372,"velocity":0.11811023622047244},{"duration":0.06976744186046346,"midi":97,"time":124.55813953488372,"velocity":0.1968503937007874},{"duration":0.03488372093023884,"midi":45,"time":124.56976744186046,"velocity":0.6220472440944882},{"duration":0.1860465116279073,"midi":68,"time":124.56976744186046,"velocity":0.4094488188976378},{"duration":0.05813953488372192,"midi":83,"time":124.56976744186046,"velocity":0.13385826771653545},{"duration":0.023255813953483084,"midi":91,"time":124.56976744186046,"velocity":0.25984251968503935},{"duration":0.011627906976741542,"midi":44,"time":124.6046511627907,"velocity":0.5984251968503937},{"duration":0.12790697674418539,"midi":87,"time":124.6046511627907,"velocity":0.2440944881889764},{"duration":0.023255813953483084,"midi":42,"time":124.61627906976744,"velocity":0.5826771653543307},{"duration":0.034883720930224626,"midi":85,"time":124.61627906976744,"velocity":0.09448818897637795},{"duration":0.023255813953497295,"midi":53,"time":124.65116279069767,"velocity":0.2440944881889764},{"duration":0.023255813953483084,"midi":37,"time":124.66279069767442,"velocity":0.4015748031496063},{"duration":0.04651162790698038,"midi":78,"time":124.67441860465117,"velocity":0.1889763779527559},{"duration":0.023255813953483084,"midi":36,"time":124.68604651162791,"velocity":0.3228346456692913},{"duration":0.13953488372092693,"midi":61,"time":124.68604651162791,"velocity":0.2755905511811024},{"duration":0.023255813953483084,"midi":66,"time":124.68604651162791,"velocity":0.25196850393700787},{"duration":0.06976744186046346,"midi":76,"time":124.68604651162791,"velocity":0.18110236220472442},{"duration":0.04651162790698038,"midi":82,"time":124.68604651162791,"velocity":0.13385826771653545},{"duration":0.06976744186046346,"midi":84,"time":124.68604651162791,"velocity":0.2204724409448819},{"duration":0.05813953488372192,"midi":54,"time":124.69767441860465,"velocity":0.2992125984251969},{"duration":0.03488372093023884,"midi":91,"time":124.69767441860465,"velocity":0.15748031496062992},{"duration":0.05813953488372192,"midi":42,"time":124.73255813953489,"velocity":0.3228346456692913},{"duration":0.04651162790698038,"midi":68,"time":124.76744186046511,"velocity":0.3700787401574803},{"duration":0.1860465116279073,"midi":68,"time":124.82558139534883,"velocity":0.48031496062992124},{"duration":0.05813953488372192,"midi":75,"time":124.82558139534883,"velocity":0.1889763779527559},{"duration":0.04651162790698038,"midi":81,"time":124.82558139534883,"velocity":0.10236220472440945},{"duration":0.05813953488372192,"midi":83,"time":124.82558139534883,"velocity":0.1968503937007874},{"duration":0.04651162790698038,"midi":86,"time":124.82558139534883,"velocity":0.2047244094488189},{"duration":0.08139534883721922,"midi":87,"time":124.82558139534883,"velocity":0.1889763779527559},{"duration":0.03488372093023884,"midi":90,"time":124.82558139534883,"velocity":0.15748031496062992},{"duration":0.09302325581396076,"midi":53,"time":124.83720930232558,"velocity":0.33070866141732286},{"duration":0.05813953488372192,"midi":96,"time":124.83720930232558,"velocity":0.09448818897637795},{"duration":0.03488372093023884,"midi":97,"time":124.83720930232558,"velocity":0.07874015748031496},{"duration":0.023255813953483084,"midi":60,"time":124.84883720930233,"velocity":0.25984251968503935},{"duration":0.081395348837205,"midi":41,"time":124.86046511627907,"velocity":0.33858267716535434},{"duration":0.05813953488372192,"midi":94,"time":124.86046511627907,"velocity":0.14173228346456693},{"duration":0.06976744186046346,"midi":60,"time":124.88372093023256,"velocity":0.2204724409448819},{"duration":0.09302325581394655,"midi":87,"time":124.98837209302326,"velocity":0.15748031496062992},{"duration":0.03488372093023884,"midi":69,"time":125.01162790697674,"velocity":0.3228346456692913},{"duration":0.034883720930224626,"midi":68,"time":125.04651162790698,"velocity":0.3779527559055118},{"duration":0.04651162790698038,"midi":77,"time":125.0813953488372,"velocity":0.1968503937007874},{"duration":0.04651162790698038,"midi":83,"time":125.0813953488372,"velocity":0.14173228346456693},{"duration":0.03488372093023884,"midi":86,"time":125.0813953488372,"velocity":0.2204724409448819},{"duration":0.03488372093023884,"midi":91,"time":125.0813953488372,"velocity":0.2047244094488189},{"duration":0.03488372093023884,"midi":94,"time":125.0813953488372,"velocity":0.2677165354330709},{"duration":0.06976744186046346,"midi":95,"time":125.0813953488372,"velocity":0.2283464566929134},{"duration":0.255813953488385,"midi":61,"time":125.09302325581395,"velocity":0.28346456692913385},{"duration":0.023255813953497295,"midi":66,"time":125.09302325581395,"velocity":0.29133858267716534},{"duration":0.04651162790698038,"midi":71,"time":125.09302325581395,"velocity":0.15748031496062992},{"duration":0.011627906976741542,"midi":48,"time":125.1046511627907,"velocity":0.5826771653543307},{"duration":0.1860465116279073,"midi":68,"time":125.1046511627907,"velocity":0.44881889763779526},{"duration":0.06976744186046346,"midi":79,"time":125.1046511627907,"velocity":0.1968503937007874},{"duration":0.04651162790696617,"midi":82,"time":125.1046511627907,"velocity":0.1889763779527559},{"duration":0.011627906976741542,"midi":45,"time":125.11627906976744,"velocity":0.6062992125984252},{"duration":0.1046511627907023,"midi":56,"time":125.11627906976744,"velocity":0.25984251968503935},{"duration":0.11627906976744384,"midi":65,"time":125.11627906976744,"velocity":0.2125984251968504},{"duration":0.011627906976741542,"midi":44,"time":125.12790697674419,"velocity":0.6062992125984252},{"duration":0.011627906976741542,"midi":42,"time":125.13953488372093,"velocity":0.6141732283464567},{"duration":0.04651162790698038,"midi":99,"time":125.13953488372093,"velocity":0.11811023622047244},{"duration":0.03488372093023884,"midi":41,"time":125.15116279069767,"velocity":0.5511811023622047},{"duration":0.05813953488372192,"midi":49,"time":125.17441860465117,"velocity":0.2755905511811024},{"duration":0.04651162790696617,"midi":35,"time":125.22093023255815,"velocity":0.1968503937007874},{"duration":0.04651162790696617,"midi":87,"time":125.23255813953489,"velocity":0.07874015748031496},{"duration":0.1046511627907023,"midi":68,"time":125.30232558139535,"velocity":0.4409448818897638},{"duration":0.09302325581394655,"midi":88,"time":125.30232558139535,"velocity":0.2283464566929134},{"duration":0.04651162790698038,"midi":99,"time":125.32558139534883,"velocity":0.09448818897637795},{"duration":0.023255813953497295,"midi":65,"time":125.33720930232558,"velocity":0.2992125984251969},{"duration":0.04651162790698038,"midi":96,"time":125.33720930232558,"velocity":0.23622047244094488},{"duration":0.03488372093023884,"midi":98,"time":125.33720930232558,"velocity":0.09448818897637795},{"duration":0.09302325581394655,"midi":75,"time":125.34883720930233,"velocity":0.2125984251968504},{"duration":0.04651162790696617,"midi":79,"time":125.34883720930233,"velocity":0.25984251968503935},{"duration":0.05813953488372192,"midi":84,"time":125.34883720930233,"velocity":0.2440944881889764},{"duration":0.05813953488372192,"midi":85,"time":125.34883720930233,"velocity":0.23622047244094488},{"duration":0.034883720930224626,"midi":93,"time":125.34883720930233,"velocity":0.2283464566929134},{"duration":0.023255813953483084,"midi":73,"time":125.36046511627907,"velocity":0.2992125984251969},{"duration":0.05813953488372192,"midi":81,"time":125.36046511627907,"velocity":0.25196850393700787},{"duration":0.04651162790698038,"midi":86,"time":125.36046511627907,"velocity":0.11023622047244094},{"duration":0.023255813953483084,"midi":51,"time":125.37209302325581,"velocity":0.33858267716535434},{"duration":0.023255813953483084,"midi":59,"time":125.37209302325581,"velocity":0.3700787401574803},{"duration":0.05813953488372192,"midi":77,"time":125.37209302325581,"velocity":0.1889763779527559},{"duration":0.04651162790698038,"midi":72,"time":125.38372093023256,"velocity":0.14173228346456693},{"duration":0.023255813953497295,"midi":52,"time":125.3953488372093,"velocity":0.3858267716535433},{"duration":0.023255813953497295,"midi":58,"time":125.3953488372093,"velocity":0.36220472440944884},{"duration":0.023255813953483084,"midi":39,"time":125.40697674418605,"velocity":0.3700787401574803},{"duration":0.04651162790696617,"midi":67,"time":125.40697674418605,"velocity":0.3700787401574803},{"duration":0.023255813953483084,"midi":40,"time":125.43023255813954,"velocity":0.28346456692913385},{"duration":0.05813953488372192,"midi":60,"time":125.43023255813954,"velocity":0.28346456692913385},{"duration":0.023255813953483084,"midi":69,"time":125.44186046511628,"velocity":0.3543307086614173},{"duration":0.023255813953497295,"midi":52,"time":125.45348837209302,"velocity":0.2992125984251969},{"duration":0.1046511627907023,"midi":68,"time":125.46511627906976,"velocity":0.4251968503937008},{"duration":0.034883720930224626,"midi":78,"time":125.47674418604652,"velocity":0.15748031496062992},{"duration":0.081395348837205,"midi":87,"time":125.47674418604652,"velocity":0.13385826771653545},{"duration":0.023255813953483084,"midi":59,"time":125.48837209302326,"velocity":0.25196850393700787},{"duration":0.023255813953483084,"midi":73,"time":125.48837209302326,"velocity":0.25984251968503935},{"duration":0.03488372093023884,"midi":96,"time":125.5,"velocity":0.07086614173228346},{"duration":0.04651162790698038,"midi":101,"time":125.5,"velocity":0.07086614173228346},{"duration":0.06976744186046346,"midi":60,"time":125.51162790697674,"velocity":0.15748031496062992},{"duration":0.03488372093023884,"midi":72,"time":125.51162790697674,"velocity":0.2440944881889764},{"duration":0.09302325581396076,"midi":53,"time":125.52325581395348,"velocity":0.2440944881889764},{"duration":0.034883720930224626,"midi":94,"time":125.53488372093024,"velocity":0.07086614173228346},{"duration":0.05813953488372192,"midi":67,"time":125.56976744186046,"velocity":0.47244094488188976},{"duration":0.04651162790696617,"midi":72,"time":125.6046511627907,"velocity":0.2440944881889764},{"duration":0.09302325581394655,"midi":87,"time":125.6046511627907,"velocity":0.2047244094488189},{"duration":0.09302325581394655,"midi":88,"time":125.6046511627907,"velocity":0.23622047244094488},{"duration":0.05813953488372192,"midi":97,"time":125.6046511627907,"velocity":0.18110236220472442},{"duration":0.06976744186046346,"midi":99,"time":125.6046511627907,"velocity":0.2204724409448819},{"duration":0.06976744186046346,"midi":101,"time":125.6046511627907,"velocity":0.16535433070866143},{"duration":0.081395348837205,"midi":102,"time":125.6046511627907,"velocity":0.2047244094488189},{"duration":0.081395348837205,"midi":89,"time":125.61627906976744,"velocity":0.1968503937007874},{"duration":0.06976744186046346,"midi":90,"time":125.61627906976744,"velocity":0.2677165354330709},{"duration":0.05813953488372192,"midi":91,"time":125.61627906976744,"velocity":0.08661417322834646},{"duration":0.06976744186046346,"midi":94,"time":125.61627906976744,"velocity":0.15748031496062992},{"duration":0.04651162790698038,"midi":95,"time":125.61627906976744,"velocity":0.10236220472440945},{"duration":0.06976744186046346,"midi":96,"time":125.61627906976744,"velocity":0.08661417322834646},{"duration":0.023255813953483084,"midi":45,"time":125.62790697674419,"velocity":0.5511811023622047},{"duration":0.011627906976741542,"midi":53,"time":125.62790697674419,"velocity":0.5196850393700787},{"duration":0.05813953488372192,"midi":68,"time":125.62790697674419,"velocity":0.30708661417322836},{"duration":0.04651162790698038,"midi":83,"time":125.62790697674419,"velocity":0.09448818897637795},{"duration":0.04651162790698038,"midi":82,"time":125.63953488372093,"velocity":0.16535433070866143},{"duration":0.023255813953497295,"midi":44,"time":125.65116279069767,"velocity":0.6141732283464567},{"duration":0.04651162790696617,"midi":93,"time":125.66279069767442,"velocity":0.07874015748031496},{"duration":0.023255813953483084,"midi":42,"time":125.67441860465117,"velocity":0.5669291338582677},{"duration":0.023255813953483084,"midi":67,"time":125.67441860465117,"velocity":0.25196850393700787},{"duration":0.034883720930224626,"midi":85,"time":125.67441860465117,"velocity":0.10236220472440945},{"duration":0.06976744186046346,"midi":68,"time":125.69767441860465,"velocity":0.4251968503937008},{"duration":0.023255813953497295,"midi":53,"time":125.70930232558139,"velocity":0.2283464566929134},{"duration":0.023255813953483084,"midi":37,"time":125.72093023255815,"velocity":0.4015748031496063},{"duration":0.04651162790696617,"midi":56,"time":125.72093023255815,"velocity":0.2283464566929134},{"duration":0.034883720930224626,"midi":36,"time":125.74418604651163,"velocity":0.3228346456692913},{"duration":0.034883720930224626,"midi":78,"time":125.74418604651163,"velocity":0.14960629921259844},{"duration":0.06976744186046346,"midi":70,"time":125.75581395348837,"velocity":0.28346456692913385},{"duration":0.05813953488372192,"midi":74,"time":125.75581395348837,"velocity":0.18110236220472442},{"duration":0.03488372093023884,"midi":65,"time":125.77906976744185,"velocity":0.14960629921259844},{"duration":0.09302325581396076,"midi":68,"time":125.77906976744185,"velocity":0.3700787401574803},{"duration":0.05813953488372192,"midi":87,"time":125.79069767441861,"velocity":0.14960629921259844},{"duration":0.03488372093023884,"midi":51,"time":125.83720930232558,"velocity":0.13385826771653545},{"duration":0.04651162790698038,"midi":66,"time":125.83720930232558,"velocity":0.33070866141732286},{"duration":0.023255813953483084,"midi":52,"time":125.87209302325581,"velocity":0.2440944881889764},{"duration":0.05813953488372192,"midi":74,"time":125.87209302325581,"velocity":0.2125984251968504},{"duration":0.1046511627907023,"midi":83,"time":125.87209302325581,"velocity":0.2283464566929134},{"duration":0.05813953488372192,"midi":84,"time":125.87209302325581,"velocity":0.16535433070866143},{"duration":0.03488372093023884,"midi":87,"time":125.87209302325581,"velocity":0.15748031496062992},{"duration":0.023255813953497295,"midi":65,"time":125.88372093023256,"velocity":0.33070866141732286},{"duration":0.03488372093023884,"midi":71,"time":125.88372093023256,"velocity":0.25196850393700787},{"duration":0.05813953488372192,"midi":78,"time":125.88372093023256,"velocity":0.2204724409448819},{"duration":0.03488372093023884,"midi":81,"time":125.88372093023256,"velocity":0.09448818897637795},{"duration":0.03488372093023884,"midi":86,"time":125.88372093023256,"velocity":0.2204724409448819},{"duration":0.03488372093023884,"midi":92,"time":125.88372093023256,"velocity":0.11811023622047244},{"duration":0.04651162790698038,"midi":100,"time":125.88372093023256,"velocity":0.07874015748031496},{"duration":0.1046511627907023,"midi":48,"time":125.8953488372093,"velocity":0.3228346456692913},{"duration":0.03488372093023884,"midi":75,"time":125.8953488372093,"velocity":0.11811023622047244},{"duration":0.023255813953483084,"midi":63,"time":125.90697674418605,"velocity":0.25984251968503935},{"duration":0.023255813953483084,"midi":40,"time":125.9186046511628,"velocity":0.3858267716535433},{"duration":0.034883720930224626,"midi":57,"time":125.9186046511628,"velocity":0.2440944881889764},{"duration":0.034883720930224626,"midi":65,"time":125.93023255813954,"velocity":0.3700787401574803},{"duration":0.05813953488372192,"midi":71,"time":125.93023255813954,"velocity":0.1732283464566929},{"duration":0.03488372093023884,"midi":74,"time":125.94186046511628,"velocity":0.10236220472440945},{"duration":0.05813953488372192,"midi":41,"time":125.96511627906976,"velocity":0.29133858267716534},{"duration":0.04651162790698038,"midi":64,"time":125.96511627906976,"velocity":0.3543307086614173},{"duration":0.023255813953483084,"midi":50,"time":126,"velocity":0.2440944881889764},{"duration":0.05813953488372192,"midi":86,"time":126,"velocity":0.2204724409448819},{"duration":0.03488372093023884,"midi":88,"time":126,"velocity":0.1889763779527559},{"duration":0.04651162790698038,"midi":89,"time":126,"velocity":0.2047244094488189},{"duration":0.06976744186046346,"midi":78,"time":126.01162790697674,"velocity":0.25196850393700787},{"duration":0.06976744186046346,"midi":81,"time":126.01162790697674,"velocity":0.23622047244094488},{"duration":0.04651162790698038,"midi":84,"time":126.01162790697674,"velocity":0.13385826771653545},{"duration":0.08139534883721922,"midi":70,"time":126.02325581395348,"velocity":0.3858267716535433},{"duration":0.05813953488372192,"midi":74,"time":126.02325581395348,"velocity":0.3779527559055118},{"duration":0.023255813953483084,"midi":45,"time":126.03488372093024,"velocity":0.36220472440944884},{"duration":0.09302325581394655,"midi":63,"time":126.03488372093024,"velocity":0.3700787401574803},{"duration":0.09302325581394655,"midi":51,"time":126.04651162790698,"velocity":0.33070866141732286},{"duration":0.023255813953483084,"midi":60,"time":126.04651162790698,"velocity":0.2677165354330709},{"duration":0.023255813953483084,"midi":77,"time":126.04651162790698,"velocity":0.2283464566929134},{"duration":0.05813953488372192,"midi":44,"time":126.05813953488372,"velocity":0.36220472440944884},{"duration":0.034883720930224626,"midi":66,"time":126.05813953488372,"velocity":0.2204724409448819},{"duration":0.023255813953497295,"midi":32,"time":126.0813953488372,"velocity":0.33070866141732286},{"duration":0.04651162790698038,"midi":68,"time":126.09302325581395,"velocity":0.1889763779527559},{"duration":0.03488372093023884,"midi":87,"time":126.09302325581395,"velocity":0.09448818897637795},{"duration":0.05813953488372192,"midi":32,"time":126.11627906976744,"velocity":0.31496062992125984},{"duration":0.05813953488372192,"midi":70,"time":126.11627906976744,"velocity":0.23622047244094488},{"duration":0.04651162790698038,"midi":64,"time":126.12790697674419,"velocity":0.23622047244094488},{"duration":0.15116279069768268,"midi":58,"time":126.13953488372093,"velocity":0.2992125984251969},{"duration":0.05813953488372192,"midi":74,"time":126.13953488372093,"velocity":0.15748031496062992},{"duration":0.06976744186046346,"midi":76,"time":126.13953488372093,"velocity":0.2440944881889764},{"duration":0.04651162790698038,"midi":78,"time":126.13953488372093,"velocity":0.23622047244094488},{"duration":0.03488372093023884,"midi":83,"time":126.13953488372093,"velocity":0.14173228346456693},{"duration":0.03488372093023884,"midi":91,"time":126.13953488372093,"velocity":0.2283464566929134},{"duration":0.16279069767442422,"midi":68,"time":126.15116279069767,"velocity":0.3858267716535433},{"duration":0.011627906976741542,"midi":48,"time":126.16279069767442,"velocity":0.5748031496062992},{"duration":0.034883720930224626,"midi":63,"time":126.16279069767442,"velocity":0.2047244094488189},{"duration":0.05813953488372192,"midi":72,"time":126.16279069767442,"velocity":0.3779527559055118},{"duration":0.011627906976741542,"midi":45,"time":126.17441860465117,"velocity":0.6377952755905512},{"duration":0.011627906976741542,"midi":44,"time":126.18604651162791,"velocity":0.6299212598425197},{"duration":0.03488372093023884,"midi":65,"time":126.18604651162791,"velocity":0.2283464566929134},{"duration":0.1860465116279073,"midi":99,"time":126.18604651162791,"velocity":0.2283464566929134},{"duration":0.15116279069766847,"midi":101,"time":126.18604651162791,"velocity":0.14960629921259844},{"duration":0.03488372093023884,"midi":103,"time":126.18604651162791,"velocity":0.14173228346456693},{"duration":0.011627906976741542,"midi":43,"time":126.19767441860465,"velocity":0.5905511811023622},{"duration":0.1046511627907023,"midi":53,"time":126.19767441860465,"velocity":0.25984251968503935},{"duration":0.023255813953497295,"midi":42,"time":126.20930232558139,"velocity":0.5354330708661418},{"duration":0.04651162790698038,"midi":102,"time":126.20930232558139,"velocity":0.11811023622047244},{"duration":0.034883720930224626,"midi":73,"time":126.22093023255815,"velocity":0.3464566929133858},{"duration":0.023255813953483084,"midi":74,"time":126.24418604651163,"velocity":0.25984251968503935},{"duration":0.05813953488372192,"midi":98,"time":126.24418604651163,"velocity":0.08661417322834646},{"duration":0.023255813953483084,"midi":36,"time":126.25581395348837,"velocity":0.3937007874015748},{"duration":0.16279069767442422,"midi":73,"time":126.26744186046511,"velocity":0.4015748031496063},{"duration":0.05813953488372192,"midi":46,"time":126.27906976744185,"velocity":0.15748031496062992},{"duration":0.06976744186046346,"midi":65,"time":126.30232558139535,"velocity":0.2125984251968504},{"duration":0.023255813953483084,"midi":70,"time":126.30232558139535,"velocity":0.31496062992125984},{"duration":0.12790697674418539,"midi":96,"time":126.30232558139535,"velocity":0.3228346456692913},{"duration":0.03488372093023884,"midi":67,"time":126.31395348837209,"velocity":0.23622047244094488},{"duration":0.03488372093023884,"midi":69,"time":126.32558139534883,"velocity":0.25196850393700787},{"duration":0.03488372093023884,"midi":98,"time":126.32558139534883,"velocity":0.12598425196850394},{"duration":0.04651162790698038,"midi":70,"time":126.36046511627907,"velocity":0.28346456692913385},{"duration":0.04651162790698038,"midi":65,"time":126.3953488372093,"velocity":0.2204724409448819},{"duration":0.09302325581394655,"midi":68,"time":126.40697674418605,"velocity":0.1889763779527559},{"duration":0.081395348837205,"midi":77,"time":126.40697674418605,"velocity":0.2283464566929134},{"duration":0.05813953488370771,"midi":81,"time":126.40697674418605,"velocity":0.2204724409448819},{"duration":0.04651162790696617,"midi":86,"time":126.40697674418605,"velocity":0.23622047244094488},{"duration":0.04651162790696617,"midi":89,"time":126.40697674418605,"velocity":0.2440944881889764},{"duration":0.04651162790696617,"midi":90,"time":126.40697674418605,"velocity":0.13385826771653545},{"duration":0.11627906976744384,"midi":51,"time":126.4186046511628,"velocity":0.30708661417322836},{"duration":0.034883720930224626,"midi":78,"time":126.4186046511628,"velocity":0.18110236220472442},{"duration":0.15116279069766847,"midi":94,"time":126.4186046511628,"velocity":0.12598425196850394},{"duration":0.1046511627907023,"midi":44,"time":126.43023255813954,"velocity":0.3858267716535433},{"duration":0.09302325581394655,"midi":60,"time":126.43023255813954,"velocity":0.2047244094488189},{"duration":0.04651162790698038,"midi":66,"time":126.43023255813954,"velocity":0.14960629921259844},{"duration":0.081395348837205,"midi":74,"time":126.43023255813954,"velocity":0.2125984251968504},{"duration":0.034883720930224626,"midi":100,"time":126.43023255813954,"velocity":0.12598425196850394},{"duration":0.03488372093023884,"midi":79,"time":126.44186046511628,"velocity":0.07086614173228346},{"duration":0.023255813953483084,"midi":33,"time":126.48837209302326,"velocity":0.30708661417322836},{"duration":0.03488372093023884,"midi":32,"time":126.51162790697674,"velocity":0.3228346456692913},{"duration":0.03488372093023884,"midi":68,"time":126.51162790697674,"velocity":0.16535433070866143},{"duration":0.03488372093023884,"midi":73,"time":126.51162790697674,"velocity":0.13385826771653545},{"duration":0.03488372093023884,"midi":65,"time":126.52325581395348,"velocity":0.13385826771653545},{"duration":0.034883720930224626,"midi":78,"time":126.53488372093024,"velocity":0.2755905511811024},{"duration":0.04651162790696617,"midi":88,"time":126.53488372093024,"velocity":0.23622047244094488},{"duration":0.034883720930224626,"midi":89,"time":126.53488372093024,"velocity":0.13385826771653545},{"duration":0.04651162790696617,"midi":91,"time":126.53488372093024,"velocity":0.2440944881889764},{"duration":0.023255813953483084,"midi":54,"time":126.54651162790698,"velocity":0.25984251968503935},{"duration":0.11627906976744384,"midi":74,"time":126.54651162790698,"velocity":0.33858267716535434},{"duration":0.081395348837205,"midi":76,"time":126.54651162790698,"velocity":0.25984251968503935},{"duration":0.081395348837205,"midi":80,"time":126.54651162790698,"velocity":0.2204724409448819},{"duration":0.05813953488372192,"midi":83,"time":126.54651162790698,"velocity":0.1732283464566929},{"duration":0.023255813953483084,"midi":68,"time":126.55813953488372,"velocity":0.4015748031496063},{"duration":0.04651162790698038,"midi":81,"time":126.55813953488372,"velocity":0.12598425196850394},{"duration":0.09302325581396076,"midi":53,"time":126.56976744186046,"velocity":0.31496062992125984},{"duration":0.09302325581396076,"midi":58,"time":126.56976744186046,"velocity":0.25984251968503935},{"duration":0.03488372093023884,"midi":77,"time":126.56976744186046,"velocity":0.12598425196850394},{"duration":0.04651162790698038,"midi":79,"time":126.56976744186046,"velocity":0.1968503937007874},{"duration":0.081395348837205,"midi":102,"time":126.56976744186046,"velocity":0.15748031496062992},{"duration":0.09302325581396076,"midi":46,"time":126.5813953488372,"velocity":0.2992125984251969},{"duration":0.023255813953497295,"midi":35,"time":126.59302325581395,"velocity":0.33070866141732286},{"duration":0.05813953488372192,"midi":66,"time":126.59302325581395,"velocity":0.30708661417322836},{"duration":0.08139534883721922,"midi":68,"time":126.59302325581395,"velocity":0.36220472440944884},{"duration":0.04651162790698038,"midi":70,"time":126.59302325581395,"velocity":0.3464566929133858},{"duration":0.03488372093023884,"midi":96,"time":126.59302325581395,"velocity":0.08661417322834646},{"duration":0.03488372093023884,"midi":97,"time":126.59302325581395,"velocity":0.13385826771653545},{"duration":0.06976744186046346,"midi":62,"time":126.6046511627907,"velocity":0.3464566929133858},{"duration":0.05813953488372192,"midi":34,"time":126.61627906976744,"velocity":0.33070866141732286},{"duration":0.32558139534884845,"midi":65,"time":126.65116279069767,"velocity":0.4094488188976378},{"duration":0.06976744186047767,"midi":96,"time":126.65116279069767,"velocity":0.16535433070866143},{"duration":0.08139534883721922,"midi":101,"time":126.65116279069767,"velocity":0.16535433070866143},{"duration":0.1860465116279073,"midi":73,"time":126.66279069767442,"velocity":0.3937007874015748},{"duration":0.09302325581394655,"midi":90,"time":126.66279069767442,"velocity":0.2755905511811024},{"duration":0.24418604651162923,"midi":92,"time":126.66279069767442,"velocity":0.23622047244094488},{"duration":0.05813953488372192,"midi":99,"time":126.66279069767442,"velocity":0.1968503937007874},{"duration":0.04651162790696617,"midi":100,"time":126.66279069767442,"velocity":0.1968503937007874},{"duration":0.10465116279068809,"midi":80,"time":126.67441860465117,"velocity":0.18110236220472442},{"duration":0.06976744186046346,"midi":88,"time":126.67441860465117,"velocity":0.18110236220472442},{"duration":0.09302325581394655,"midi":93,"time":126.67441860465117,"velocity":0.16535433070866143},{"duration":0.011627906976741542,"midi":53,"time":126.68604651162791,"velocity":0.5118110236220472},{"duration":0.04651162790698038,"midi":83,"time":126.68604651162791,"velocity":0.10236220472440945},{"duration":0.09302325581394655,"midi":89,"time":126.68604651162791,"velocity":0.18110236220472442},{"duration":0.023255813953497295,"midi":45,"time":126.69767441860465,"velocity":0.6141732283464567},{"duration":0.03488372093023884,"midi":103,"time":126.69767441860465,"velocity":0.11023622047244094},{"duration":0.06976744186046346,"midi":70,"time":126.70930232558139,"velocity":0.2440944881889764},{"duration":0.011627906976741542,"midi":44,"time":126.72093023255815,"velocity":0.5905511811023622},{"duration":0.034883720930224626,"midi":51,"time":126.72093023255815,"velocity":0.28346456692913385},{"duration":0.023255813953483084,"midi":42,"time":126.73255813953489,"velocity":0.5669291338582677},{"duration":0.13953488372092693,"midi":68,"time":126.75581395348837,"velocity":0.3543307086614173},{"duration":0.023255813953497295,"midi":53,"time":126.76744186046511,"velocity":0.2440944881889764},{"duration":0.023255813953497295,"midi":37,"time":126.77906976744185,"velocity":0.3937007874015748},{"duration":0.03488372093023884,"midi":82,"time":126.77906976744185,"velocity":0.07874015748031496},{"duration":0.034883720930224626,"midi":70,"time":126.79069767441861,"velocity":0.2283464566929134},{"duration":0.023255813953483084,"midi":36,"time":126.80232558139535,"velocity":0.3228346456692913},{"duration":0.023255813953483084,"midi":78,"time":126.80232558139535,"velocity":0.25196850393700787},{"duration":0.023255813953483084,"midi":81,"time":126.80232558139535,"velocity":0.25196850393700787},{"duration":0.05813953488372192,"midi":86,"time":126.80232558139535,"velocity":0.2204724409448819},{"duration":0.034883720930224626,"midi":91,"time":126.80232558139535,"velocity":0.14173228346456693},{"duration":0.04651162790698038,"midi":94,"time":126.80232558139535,"velocity":0.2125984251968504},{"duration":0.034883720930224626,"midi":95,"time":126.80232558139535,"velocity":0.14173228346456693},{"duration":0.023255813953483084,"midi":48,"time":126.81395348837209,"velocity":0.36220472440944884},{"duration":0.15116279069766847,"midi":61,"time":126.81395348837209,"velocity":0.29133858267716534},{"duration":0.04651162790698038,"midi":83,"time":126.81395348837209,"velocity":0.1732283464566929},{"duration":0.11627906976744384,"midi":56,"time":126.82558139534883,"velocity":0.3228346456692913},{"duration":0.04651162790698038,"midi":75,"time":126.82558139534883,"velocity":0.11023622047244094},{"duration":0.05813953488372192,"midi":79,"time":126.82558139534883,"velocity":0.25196850393700787},{"duration":0.04651162790698038,"midi":82,"time":126.82558139534883,"velocity":0.2755905511811024},{"duration":0.023255813953497295,"midi":49,"time":126.83720930232558,"velocity":0.31496062992125984},{"duration":0.03488372093023884,"midi":70,"time":126.83720930232558,"velocity":0.28346456692913385},{"duration":0.023255813953483084,"midi":50,"time":126.86046511627907,"velocity":0.33070866141732286},{"duration":0.03488372093023884,"midi":37,"time":126.87209302325581,"velocity":0.3937007874015748},{"duration":0.023255813953483084,"midi":50,"time":126.90697674418605,"velocity":0.3228346456692913},{"duration":0.023255813953483084,"midi":37,"time":126.9186046511628,"velocity":0.25196850393700787},{"duration":0.04651162790698038,"midi":80,"time":126.93023255813954,"velocity":0.31496062992125984},{"duration":0.034883720930224626,"midi":87,"time":126.93023255813954,"velocity":0.11023622047244094},{"duration":0.081395348837205,"midi":90,"time":126.93023255813954,"velocity":0.14173228346456693},{"duration":0.09302325581394655,"midi":93,"time":126.93023255813954,"velocity":0.18110236220472442},{"duration":0.11627906976744384,"midi":48,"time":126.94186046511628,"velocity":0.3779527559055118},{"duration":0.03488372093023884,"midi":68,"time":126.94186046511628,"velocity":0.33070866141732286},{"duration":0.13953488372092693,"midi":72,"time":126.94186046511628,"velocity":0.30708661417322836},{"duration":0.03488372093023884,"midi":83,"time":126.94186046511628,"velocity":0.13385826771653545},{"duration":0.081395348837205,"midi":88,"time":126.94186046511628,"velocity":0.29133858267716534},{"duration":0.08139534883721922,"midi":75,"time":126.95348837209302,"velocity":0.2125984251968504},{"duration":0.05813953488372192,"midi":78,"time":126.95348837209302,"velocity":0.2677165354330709},{"duration":0.05813953488372192,"midi":84,"time":126.95348837209302,"velocity":0.3464566929133858},{"duration":0.08139534883721922,"midi":55,"time":126.96511627906976,"velocity":0.31496062992125984},{"duration":0.023255813953483084,"midi":69,"time":126.97674418604652,"velocity":0.29133858267716534},{"duration":0.10465116279068809,"midi":81,"time":126.97674418604652,"velocity":0.47244094488188976},{"duration":0.06976744186046346,"midi":92,"time":126.97674418604652,"velocity":0.1968503937007874},{"duration":0.034883720930224626,"midi":70,"time":126.98837209302326,"velocity":0.14173228346456693},{"duration":0.11627906976744384,"midi":91,"time":126.98837209302326,"velocity":0.28346456692913385},{"duration":0.09302325581394655,"midi":36,"time":127,"velocity":0.3779527559055118},{"duration":0.03488372093023884,"midi":89,"time":127,"velocity":0.09448818897637795},{"duration":0.06976744186046346,"midi":94,"time":127,"velocity":0.16535433070866143},{"duration":0.023255813953497295,"midi":85,"time":127.01162790697674,"velocity":0.3858267716535433},{"duration":0.2093023255814046,"midi":82,"time":127.02325581395348,"velocity":0.3464566929133858},{"duration":0.13953488372094114,"midi":84,"time":127.02325581395348,"velocity":0.3858267716535433},{"duration":0.04651162790696617,"midi":75,"time":127.04651162790698,"velocity":0.16535433070866143},{"duration":0.09302325581394655,"midi":87,"time":127.04651162790698,"velocity":0.2125984251968504},{"duration":0.034883720930224626,"midi":65,"time":127.05813953488372,"velocity":0.08661417322834646},{"duration":0.1046511627907023,"midi":80,"time":127.05813953488372,"velocity":0.4094488188976378},{"duration":0.034883720930224626,"midi":73,"time":127.11627906976744,"velocity":0.2755905511811024},{"duration":0.1046511627907023,"midi":91,"time":127.11627906976744,"velocity":0.1732283464566929},{"duration":0.04651162790698038,"midi":93,"time":127.11627906976744,"velocity":0.12598425196850394},{"duration":0.03488372093023884,"midi":56,"time":127.12790697674419,"velocity":0.08661417322834646},{"duration":0.03488372093023884,"midi":63,"time":127.12790697674419,"velocity":0.11811023622047244},{"duration":0.05813953488372192,"midi":70,"time":127.13953488372093,"velocity":0.1968503937007874},{"duration":0.06976744186046346,"midi":81,"time":127.13953488372093,"velocity":0.3700787401574803},{"duration":0.05813953488372192,"midi":88,"time":127.13953488372093,"velocity":0.2283464566929134},{"duration":0.023255813953497295,"midi":72,"time":127.15116279069767,"velocity":0.28346456692913385},{"duration":0.034883720930224626,"midi":76,"time":127.16279069767442,"velocity":0.14960629921259844},{"duration":0.04651162790698038,"midi":73,"time":127.17441860465117,"velocity":0.14960629921259844},{"duration":0.04651162790698038,"midi":84,"time":127.18604651162791,"velocity":0.2283464566929134},{"duration":0.03488372093023884,"midi":78,"time":127.19767441860465,"velocity":0.1968503937007874},{"duration":0.03488372093023884,"midi":100,"time":127.19767441860465,"velocity":0.11811023622047244},{"duration":0.03488372093023884,"midi":102,"time":127.19767441860465,"velocity":0.13385826771653545},{"duration":0.03488372093023884,"midi":103,"time":127.19767441860465,"velocity":0.18110236220472442},{"duration":0.03488372093023884,"midi":69,"time":127.20930232558139,"velocity":0.16535433070866143},{"duration":0.11627906976744384,"midi":80,"time":127.20930232558139,"velocity":0.29133858267716534},{"duration":0.03488372093023884,"midi":87,"time":127.20930232558139,"velocity":0.15748031496062992},{"duration":0.011627906976741542,"midi":48,"time":127.22093023255815,"velocity":0.5275590551181102},{"duration":0.011627906976741542,"midi":45,"time":127.23255813953489,"velocity":0.6141732283464567},{"duration":0.10465116279068809,"midi":65,"time":127.23255813953489,"velocity":0.11023622047244094},{"duration":0.011627906976741542,"midi":44,"time":127.24418604651163,"velocity":0.6220472440944882},{"duration":0.04651162790698038,"midi":86,"time":127.24418604651163,"velocity":0.15748031496062992},{"duration":0.011627906976741542,"midi":43,"time":127.25581395348837,"velocity":0.5984251968503937},{"duration":0.06976744186046346,"midi":73,"time":127.25581395348837,"velocity":0.14960629921259844},{"duration":0.05813953488372192,"midi":81,"time":127.25581395348837,"velocity":0.23622047244094488},{"duration":0.011627906976741542,"midi":42,"time":127.26744186046511,"velocity":0.5669291338582677},{"duration":0.011627906976755753,"midi":41,"time":127.27906976744185,"velocity":0.5118110236220472},{"duration":0.05813953488372192,"midi":84,"time":127.29069767441861,"velocity":0.2047244094488189},{"duration":0.023255813953483084,"midi":37,"time":127.31395348837209,"velocity":0.3937007874015748},{"duration":0.023255813953497295,"midi":36,"time":127.33720930232558,"velocity":0.3228346456692913},{"duration":0.25581395348837077,"midi":70,"time":127.34883720930233,"velocity":0.3937007874015748},{"duration":0.04651162790696617,"midi":74,"time":127.34883720930233,"velocity":0.14960629921259844},{"duration":0.11627906976744384,"midi":81,"time":127.36046511627907,"velocity":0.25196850393700787},{"duration":0.04651162790698038,"midi":80,"time":127.46511627906976,"velocity":0.2440944881889764},{"duration":0.09302325581394655,"midi":74,"time":127.47674418604652,"velocity":0.2677165354330709},{"duration":0.081395348837205,"midi":77,"time":127.47674418604652,"velocity":0.14960629921259844},{"duration":0.11627906976744384,"midi":58,"time":127.48837209302326,"velocity":0.14960629921259844},{"duration":0.12790697674418539,"midi":65,"time":127.48837209302326,"velocity":0.30708661417322836},{"duration":0.04651162790698038,"midi":84,"time":127.5,"velocity":0.18110236220472442},{"duration":0.09302325581396076,"midi":81,"time":127.51162790697674,"velocity":0.2440944881889764},{"duration":0.06976744186046346,"midi":84,"time":127.55813953488372,"velocity":0.16535433070866143},{"duration":0.04651162790698038,"midi":75,"time":127.56976744186046,"velocity":0.2125984251968504},{"duration":0.023255813953483084,"midi":71,"time":127.6046511627907,"velocity":0.23622047244094488},{"duration":0.06976744186046346,"midi":80,"time":127.6046511627907,"velocity":0.1968503937007874},{"duration":0.09302325581394655,"midi":74,"time":127.61627906976744,"velocity":0.2440944881889764},{"duration":0.04651162790698038,"midi":65,"time":127.62790697674419,"velocity":0.2204724409448819},{"duration":0.05813953488372192,"midi":70,"time":127.62790697674419,"velocity":0.23622047244094488},{"duration":0.1046511627907023,"midi":81,"time":127.62790697674419,"velocity":0.16535433070866143},{"duration":0.04651162790698038,"midi":84,"time":127.63953488372093,"velocity":0.16535433070866143},{"duration":0.11627906976742963,"midi":68,"time":127.72093023255815,"velocity":0.3858267716535433},{"duration":0.04651162790696617,"midi":96,"time":127.72093023255815,"velocity":0.2047244094488189},{"duration":0.034883720930224626,"midi":99,"time":127.72093023255815,"velocity":0.1968503937007874},{"duration":0.034883720930224626,"midi":100,"time":127.72093023255815,"velocity":0.1889763779527559},{"duration":0.023255813953483084,"midi":53,"time":127.73255813953489,"velocity":0.5118110236220472},{"duration":0.034883720930224626,"midi":62,"time":127.73255813953489,"velocity":0.4094488188976378},{"duration":0.034883720930224626,"midi":73,"time":127.73255813953489,"velocity":0.2204724409448819},{"duration":0.034883720930224626,"midi":87,"time":127.73255813953489,"velocity":0.2204724409448819},{"duration":0.081395348837205,"midi":88,"time":127.73255813953489,"velocity":0.1968503937007874},{"duration":0.06976744186046346,"midi":90,"time":127.73255813953489,"velocity":0.2755905511811024},{"duration":0.081395348837205,"midi":91,"time":127.73255813953489,"velocity":0.1889763779527559},{"duration":0.05813953488372192,"midi":95,"time":127.73255813953489,"velocity":0.2204724409448819},{"duration":0.06976744186046346,"midi":97,"time":127.73255813953489,"velocity":0.1889763779527559},{"duration":0.034883720930224626,"midi":98,"time":127.73255813953489,"velocity":0.12598425196850394},{"duration":0.06976744186046346,"midi":101,"time":127.73255813953489,"velocity":0.2125984251968504},{"duration":0.034883720930224626,"midi":45,"time":127.74418604651163,"velocity":0.6062992125984252},{"duration":0.05813953488372192,"midi":83,"time":127.74418604651163,"velocity":0.12598425196850394},{"duration":0.081395348837205,"midi":89,"time":127.74418604651163,"velocity":0.2440944881889764},{"duration":0.06976744186046346,"midi":94,"time":127.74418604651163,"velocity":0.11023622047244094},{"duration":0.04651162790698038,"midi":82,"time":127.76744186046511,"velocity":0.14173228346456693},{"duration":0.011627906976755753,"midi":44,"time":127.77906976744185,"velocity":0.5984251968503937},{"duration":0.023255813953497295,"midi":51,"time":127.77906976744185,"velocity":0.29133858267716534},{"duration":0.011627906976741542,"midi":43,"time":127.79069767441861,"velocity":0.5748031496062992},{"duration":0.034883720930224626,"midi":85,"time":127.79069767441861,"velocity":0.10236220472440945},{"duration":0.011627906976741542,"midi":42,"time":127.80232558139535,"velocity":0.5354330708661418},{"duration":0.023255813953483084,"midi":52,"time":127.80232558139535,"velocity":0.31496062992125984},{"duration":0.023255813953497295,"midi":53,"time":127.82558139534883,"velocity":0.2755905511811024},{"duration":0.023255813953497295,"midi":37,"time":127.83720930232558,"velocity":0.4094488188976378},{"duration":0.034883720930224626,"midi":36,"time":127.86046511627907,"velocity":0.33858267716535434},{"duration":0.081395348837205,"midi":75,"time":127.86046511627907,"velocity":0.14960629921259844},{"duration":0.06976744186046346,"midi":70,"time":127.87209302325581,"velocity":0.25196850393700787},{"duration":0.12790697674418539,"midi":56,"time":127.88372093023256,"velocity":0.3543307086614173},{"duration":0.06976744186046346,"midi":63,"time":127.88372093023256,"velocity":0.16535433070866143},{"duration":0.034883720930224626,"midi":78,"time":127.98837209302326,"velocity":0.1968503937007874},{"duration":0.04651162790696617,"midi":88,"time":127.98837209302326,"velocity":0.1889763779527559},{"duration":0.034883720930224626,"midi":89,"time":127.98837209302326,"velocity":0.14960629921259844},{"duration":0.04651162790696617,"midi":91,"time":127.98837209302326,"velocity":0.2047244094488189},{"duration":0.05813953488370771,"midi":80,"time":128,"velocity":0.18110236220472442},{"duration":0.05813953488370771,"midi":83,"time":128,"velocity":0.1968503937007874},{"duration":0.023255813953483084,"midi":45,"time":128.01162790697674,"velocity":0.3937007874015748},{"duration":0.023255813953483084,"midi":53,"time":128.01162790697674,"velocity":0.31496062992125984},{"duration":0.034883720930224626,"midi":68,"time":128.01162790697674,"velocity":0.16535433070866143},{"duration":0.08139534883721922,"midi":76,"time":128.01162790697674,"velocity":0.2677165354330709},{"duration":0.023255813953483084,"midi":62,"time":128.02325581395348,"velocity":0.25984251968503935},{"duration":0.04651162790699459,"midi":79,"time":128.02325581395348,"velocity":0.16535433070866143},{"duration":0.09302325581396076,"midi":46,"time":128.03488372093022,"velocity":0.3228346456692913},{"duration":0.03488372093025305,"midi":72,"time":128.03488372093022,"velocity":0.12598425196850394},{"duration":0.023255813953511506,"midi":53,"time":128.04651162790697,"velocity":0.31496062992125984},{"duration":0.19767441860463464,"midi":56,"time":128.06976744186048,"velocity":0.41732283464566927},{"duration":0.04651162790696617,"midi":34,"time":128.08139534883722,"velocity":0.3700787401574803},{"duration":0.04651162790696617,"midi":81,"time":128.08139534883722,"velocity":0.08661417322834646},{"duration":0.023255813953483084,"midi":67,"time":128.11627906976744,"velocity":0.29133858267716534},{"duration":0.04651162790696617,"midi":93,"time":128.11627906976744,"velocity":0.1732283464566929},{"duration":0.1046511627907023,"midi":75,"time":128.12790697674419,"velocity":0.1968503937007874},{"duration":0.08139534883721922,"midi":82,"time":128.12790697674419,"velocity":0.25196850393700787},{"duration":0.08139534883721922,"midi":83,"time":128.12790697674419,"velocity":0.18110236220472442},{"duration":0.05813953488370771,"midi":86,"time":128.12790697674419,"velocity":0.2125984251968504},{"duration":0.05813953488370771,"midi":91,"time":128.12790697674419,"velocity":0.1889763779527559},{"duration":0.04651162790696617,"midi":94,"time":128.12790697674419,"velocity":0.25984251968503935},{"duration":0.034883720930224626,"midi":100,"time":128.12790697674419,"velocity":0.12598425196850394},{"duration":0.023255813953483084,"midi":61,"time":128.13953488372093,"velocity":0.31496062992125984},{"duration":0.023255813953483084,"midi":66,"time":128.13953488372093,"velocity":0.29133858267716534},{"duration":0.05813953488373613,"midi":70,"time":128.13953488372093,"velocity":0.29133858267716534},{"duration":0.04651162790696617,"midi":77,"time":128.13953488372093,"velocity":0.2125984251968504},{"duration":0.08139534883721922,"midi":79,"time":128.13953488372093,"velocity":0.30708661417322836},{"duration":0.034883720930224626,"midi":97,"time":128.13953488372093,"velocity":0.10236220472440945},{"duration":0.08139534883721922,"midi":49,"time":128.1627906976744,"velocity":0.3543307086614173},{"duration":0.06976744186047767,"midi":80,"time":128.1627906976744,"velocity":0.12598425196850394},{"duration":0.023255813953511506,"midi":38,"time":128.17441860465115,"velocity":0.3858267716535433},{"duration":0.05813953488370771,"midi":37,"time":128.19767441860466,"velocity":0.4015748031496063},{"duration":0.04651162790696617,"midi":70,"time":128.22093023255815,"velocity":0.1968503937007874},{"duration":0.06976744186047767,"midi":63,"time":128.25581395348837,"velocity":0.31496062992125984},{"duration":0.023255813953483084,"midi":78,"time":128.25581395348837,"velocity":0.23622047244094488},{"duration":0.034883720930224626,"midi":83,"time":128.25581395348837,"velocity":0.1889763779527559},{"duration":0.034883720930224626,"midi":91,"time":128.25581395348837,"velocity":0.15748031496062992},{"duration":0.034883720930224626,"midi":95,"time":128.25581395348837,"velocity":0.1968503937007874},{"duration":0.04651162790696617,"midi":102,"time":128.25581395348837,"velocity":0.14173228346456693},{"duration":0.034883720930224626,"midi":103,"time":128.25581395348837,"velocity":0.16535433070866143},{"duration":0.08139534883721922,"midi":73,"time":128.2674418604651,"velocity":0.1968503937007874},{"duration":0.023255813953483084,"midi":79,"time":128.2674418604651,"velocity":0.2440944881889764},{"duration":0.04651162790699459,"midi":81,"time":128.2674418604651,"velocity":0.1968503937007874},{"duration":0.034883720930224626,"midi":88,"time":128.2674418604651,"velocity":0.16535433070866143},{"duration":0.04651162790699459,"midi":98,"time":128.2674418604651,"velocity":0.13385826771653545},{"duration":0.011627906976741542,"midi":48,"time":128.27906976744185,"velocity":0.5354330708661418},{"duration":0.023255813953511506,"midi":45,"time":128.2906976744186,"velocity":0.6220472440944882},{"duration":0.08139534883721922,"midi":58,"time":128.2906976744186,"velocity":0.25196850393700787},{"duration":0.011627906976741542,"midi":43,"time":128.3139534883721,"velocity":0.6062992125984252},{"duration":0.011627906976741542,"midi":42,"time":128.32558139534885,"velocity":0.5984251968503937},{"duration":0.011627906976741542,"midi":41,"time":128.3372093023256,"velocity":0.5433070866141733},{"duration":0.13953488372092693,"midi":67,"time":128.3372093023256,"velocity":0.5748031496062992},{"duration":0.13953488372092693,"midi":61,"time":128.38372093023256,"velocity":0.14960629921259844},{"duration":0.034883720930224626,"midi":36,"time":128.3953488372093,"velocity":0.3228346456692913},{"duration":0.034883720930224626,"midi":67,"time":128.48837209302326,"velocity":0.2677165354330709},{"duration":0.023255813953483084,"midi":69,"time":128.51162790697674,"velocity":0.4094488188976378},{"duration":0.023255813953483084,"midi":74,"time":128.52325581395348,"velocity":0.2755905511811024},{"duration":0.034883720930224626,"midi":91,"time":128.52325581395348,"velocity":0.28346456692913385},{"duration":0.08139534883721922,"midi":92,"time":128.52325581395348,"velocity":0.2992125984251969},{"duration":0.023255813953483084,"midi":93,"time":128.52325581395348,"velocity":0.2677165354330709},{"duration":0.06976744186047767,"midi":94,"time":128.52325581395348,"velocity":0.29133858267716534},{"duration":0.023255813953483084,"midi":98,"time":128.52325581395348,"velocity":0.28346456692913385},{"duration":0.08139534883721922,"midi":99,"time":128.52325581395348,"velocity":0.3543307086614173},{"duration":0.04651162790699459,"midi":100,"time":128.52325581395348,"velocity":0.2125984251968504},{"duration":0.09302325581396076,"midi":102,"time":128.52325581395348,"velocity":0.18110236220472442},{"duration":0.023255813953483084,"midi":48,"time":128.53488372093022,"velocity":0.3700787401574803},{"duration":0.023255813953483084,"midi":55,"time":128.53488372093022,"velocity":0.4094488188976378},{"duration":0.15116279069766847,"midi":68,"time":128.53488372093022,"velocity":0.5118110236220472},{"duration":0.06976744186047767,"midi":71,"time":128.53488372093022,"velocity":0.18110236220472442},{"duration":0.03488372093025305,"midi":77,"time":128.53488372093022,"velocity":0.2125984251968504},{"duration":0.06976744186047767,"midi":79,"time":128.53488372093022,"velocity":0.2440944881889764},{"duration":0.09302325581396076,"midi":96,"time":128.53488372093022,"velocity":0.18110236220472442},{"duration":0.03488372093025305,"midi":97,"time":128.53488372093022,"velocity":0.13385826771653545},{"duration":0.05813953488373613,"midi":101,"time":128.53488372093022,"velocity":0.11811023622047244},{"duration":0.09302325581396076,"midi":61,"time":128.54651162790697,"velocity":0.2677165354330709},{"duration":0.023255813953511506,"midi":65,"time":128.54651162790697,"velocity":0.2440944881889764},{"duration":0.05813953488373613,"midi":75,"time":128.54651162790697,"velocity":0.4566929133858268},{"duration":0.03488372093025305,"midi":82,"time":128.54651162790697,"velocity":0.2125984251968504},{"duration":0.05813953488373613,"midi":49,"time":128.5581395348837,"velocity":0.31496062992125984},{"duration":0.04651162790699459,"midi":84,"time":128.5581395348837,"velocity":0.1732283464566929},{"duration":0.11627906976744384,"midi":90,"time":128.5581395348837,"velocity":0.31496062992125984},{"duration":0.19767441860466306,"midi":98,"time":128.5581395348837,"velocity":0.30708661417322836},{"duration":0.0813953488371908,"midi":56,"time":128.58139534883722,"velocity":0.4094488188976378},{"duration":0.034883720930224626,"midi":95,"time":128.58139534883722,"velocity":0.16535433070866143},{"duration":0.034883720930224626,"midi":100,"time":128.58139534883722,"velocity":0.1968503937007874},{"duration":0.05813953488370771,"midi":37,"time":128.59302325581396,"velocity":0.3779527559055118},{"duration":0.023255813953483084,"midi":76,"time":128.59302325581396,"velocity":0.2440944881889764},{"duration":0.17441860465115155,"midi":89,"time":128.6046511627907,"velocity":0.23622047244094488},{"duration":0.06976744186047767,"midi":84,"time":128.62790697674419,"velocity":0.2047244094488189},{"duration":0.09302325581396076,"midi":85,"time":128.62790697674419,"velocity":0.18110236220472442},{"duration":0.11627906976744384,"midi":86,"time":128.62790697674419,"velocity":0.36220472440944884},{"duration":0.13953488372092693,"midi":70,"time":128.63953488372093,"velocity":0.4645669291338583},{"duration":0.18604651162792152,"midi":77,"time":128.63953488372093,"velocity":0.3858267716535433},{"duration":0.023255813953483084,"midi":81,"time":128.63953488372093,"velocity":0.23622047244094488},{"duration":0.05813953488373613,"midi":88,"time":128.63953488372093,"velocity":0.23622047244094488},{"duration":0.04651162790699459,"midi":79,"time":128.65116279069767,"velocity":0.1889763779527559},{"duration":0.05813953488373613,"midi":95,"time":128.65116279069767,"velocity":0.12598425196850394},{"duration":0.1046511627907023,"midi":96,"time":128.65116279069767,"velocity":0.2125984251968504},{"duration":0.023255813953483084,"midi":64,"time":128.6627906976744,"velocity":0.25196850393700787},{"duration":0.08139534883721922,"midi":73,"time":128.6627906976744,"velocity":0.1732283464566929},{"duration":0.06976744186047767,"midi":51,"time":128.67441860465115,"velocity":0.31496062992125984},{"duration":0.05813953488373613,"midi":58,"time":128.67441860465115,"velocity":0.3464566929133858},{"duration":0.05813953488373613,"midi":81,"time":128.67441860465115,"velocity":0.2283464566929134},{"duration":0.03488372093025305,"midi":92,"time":128.67441860465115,"velocity":0.08661417322834646},{"duration":0.09302325581393234,"midi":68,"time":128.69767441860466,"velocity":0.3779527559055118},{"duration":0.05813953488370771,"midi":39,"time":128.7093023255814,"velocity":0.3228346456692913},{"duration":0.06976744186044925,"midi":75,"time":128.72093023255815,"velocity":0.2755905511811024},{"duration":0.15116279069766847,"midi":99,"time":128.7325581395349,"velocity":0.2125984251968504},{"duration":0.023255813953483084,"midi":56,"time":128.74418604651163,"velocity":0.3779527559055118},{"duration":0.023255813953483084,"midi":62,"time":128.7674418604651,"velocity":0.36220472440944884},{"duration":0.09302325581396076,"midi":88,"time":128.7674418604651,"velocity":0.2677165354330709},{"duration":0.1046511627907023,"midi":94,"time":128.7674418604651,"velocity":0.2125984251968504},{"duration":0.05813953488373613,"midi":73,"time":128.77906976744185,"velocity":0.4645669291338583},{"duration":0.09302325581396076,"midi":90,"time":128.77906976744185,"velocity":0.30708661417322836},{"duration":0.05813953488373613,"midi":95,"time":128.77906976744185,"velocity":0.2283464566929134},{"duration":0.09302325581396076,"midi":96,"time":128.77906976744185,"velocity":0.13385826771653545},{"duration":0.18604651162792152,"midi":101,"time":128.77906976744185,"velocity":0.2440944881889764},{"duration":0.2093023255814046,"midi":102,"time":128.77906976744185,"velocity":0.33858267716535434},{"duration":0.11627906976744384,"midi":103,"time":128.77906976744185,"velocity":0.2440944881889764},{"duration":0.023255813953511506,"midi":67,"time":128.7906976744186,"velocity":0.3464566929133858},{"duration":0.023255813953511506,"midi":70,"time":128.7906976744186,"velocity":0.25196850393700787},{"duration":0.08139534883721922,"midi":93,"time":128.7906976744186,"velocity":0.12598425196850394},{"duration":0.13953488372092693,"midi":100,"time":128.7906976744186,"velocity":0.30708661417322836},{"duration":0.023255813953511506,"midi":60,"time":128.80232558139534,"velocity":0.3543307086614173},{"duration":0.03488372093025305,"midi":80,"time":128.80232558139534,"velocity":0.1889763779527559},{"duration":0.03488372093025305,"midi":87,"time":128.80232558139534,"velocity":0.2440944881889764},{"duration":0.023255813953483084,"midi":45,"time":128.8139534883721,"velocity":0.5984251968503937},{"duration":0.034883720930224626,"midi":68,"time":128.8139534883721,"velocity":0.30708661417322836},{"duration":0.023255813953483084,"midi":61,"time":128.82558139534885,"velocity":0.2283464566929134},{"duration":0.06976744186044925,"midi":84,"time":128.82558139534885,"velocity":0.3228346456692913},{"duration":0.011627906976741542,"midi":44,"time":128.8372093023256,"velocity":0.5826771653543307},{"duration":0.04651162790696617,"midi":72,"time":128.8372093023256,"velocity":0.4409448818897638},{"duration":0.15116279069766847,"midi":98,"time":128.8372093023256,"velocity":0.2440944881889764},{"duration":0.023255813953483084,"midi":42,"time":128.84883720930233,"velocity":0.5590551181102362},{"duration":0.023255813953483084,"midi":51,"time":128.84883720930233,"velocity":0.29133858267716534},{"duration":0.023255813953483084,"midi":69,"time":128.84883720930233,"velocity":0.30708661417322836},{"duration":0.09302325581396076,"midi":77,"time":128.84883720930233,"velocity":0.25196850393700787},{"duration":0.05813953488370771,"midi":85,"time":128.84883720930233,"velocity":0.10236220472440945},{"duration":0.034883720930224626,"midi":59,"time":128.86046511627907,"velocity":0.3858267716535433},{"duration":0.09302325581396076,"midi":82,"time":128.86046511627907,"velocity":0.1968503937007874},{"duration":0.06976744186044925,"midi":86,"time":128.86046511627907,"velocity":0.25196850393700787},{"duration":0.023255813953483084,"midi":70,"time":128.87209302325581,"velocity":0.3228346456692913},{"duration":0.023255813953483084,"midi":53,"time":128.88372093023256,"velocity":0.23622047244094488},{"duration":0.06976744186047767,"midi":58,"time":128.8953488372093,"velocity":0.4094488188976378},{"duration":0.023255813953483084,"midi":69,"time":128.8953488372093,"velocity":0.29133858267716534},{"duration":0.023255813953483084,"midi":71,"time":128.8953488372093,"velocity":0.3779527559055118},{"duration":0.06976744186047767,"midi":88,"time":128.8953488372093,"velocity":0.14960629921259844},{"duration":0.034883720930224626,"midi":90,"time":128.8953488372093,"velocity":0.3543307086614173},{"duration":0.06976744186047767,"midi":87,"time":128.90697674418604,"velocity":0.2440944881889764},{"duration":0.05813953488373613,"midi":92,"time":128.90697674418604,"velocity":0.2204724409448819},{"duration":0.08139534883721922,"midi":94,"time":128.90697674418604,"velocity":0.2204724409448819},{"duration":0.023255813953511506,"midi":36,"time":128.91860465116278,"velocity":0.30708661417322836},{"duration":0.05813953488373613,"midi":68,"time":128.91860465116278,"velocity":0.4645669291338583},{"duration":0.04651162790699459,"midi":70,"time":128.91860465116278,"velocity":0.4251968503937008},{"duration":0.06976744186047767,"midi":78,"time":128.91860465116278,"velocity":0.18110236220472442},{"duration":0.05813953488373613,"midi":84,"time":128.91860465116278,"velocity":0.2047244094488189},{"duration":0.04651162790699459,"midi":91,"time":128.91860465116278,"velocity":0.14173228346456693},{"duration":0.03488372093025305,"midi":93,"time":128.91860465116278,"velocity":0.13385826771653545},{"duration":0.05813953488373613,"midi":95,"time":128.91860465116278,"velocity":0.2283464566929134},{"duration":0.04651162790699459,"midi":89,"time":128.93023255813952,"velocity":0.3700787401574803},{"duration":0.05813953488370771,"midi":76,"time":128.9418604651163,"velocity":0.12598425196850394},{"duration":0.09302325581393234,"midi":73,"time":128.95348837209303,"velocity":0.33070866141732286},{"duration":0.11627906976744384,"midi":88,"time":128.97674418604652,"velocity":0.15748031496062992},{"duration":0.04651162790696617,"midi":55,"time":128.98837209302326,"velocity":0.3543307086614173},{"duration":0.09302325581396076,"midi":68,"time":128.98837209302326,"velocity":0.47244094488188976},{"duration":0.09302325581396076,"midi":102,"time":129,"velocity":0.3464566929133858},{"duration":0.023255813953483084,"midi":61,"time":129.02325581395348,"velocity":0.2283464566929134},{"duration":0.1046511627907023,"midi":100,"time":129.02325581395348,"velocity":0.3228346456692913},{"duration":0.45348837209303383,"midi":101,"time":129.02325581395348,"velocity":0.3700787401574803},{"duration":0.08139534883721922,"midi":84,"time":129.03488372093022,"velocity":0.14173228346456693},{"duration":0.05813953488373613,"midi":95,"time":129.03488372093022,"velocity":0.30708661417322836},{"duration":0.023255813953511506,"midi":72,"time":129.04651162790697,"velocity":0.2440944881889764},{"duration":0.26744186046514073,"midi":77,"time":129.04651162790697,"velocity":0.36220472440944884},{"duration":0.04651162790699459,"midi":90,"time":129.04651162790697,"velocity":0.14960629921259844},{"duration":0.03488372093025305,"midi":92,"time":129.04651162790697,"velocity":0.1889763779527559},{"duration":0.4186046511628092,"midi":96,"time":129.04651162790697,"velocity":0.3858267716535433},{"duration":0.06976744186047767,"midi":98,"time":129.04651162790697,"velocity":0.29133858267716534},{"duration":0.12790697674418539,"midi":103,"time":129.04651162790697,"velocity":0.2125984251968504},{"duration":0.12790697674418539,"midi":53,"time":129.0581395348837,"velocity":0.2677165354330709},{"duration":0.09302325581396076,"midi":65,"time":129.0581395348837,"velocity":0.5354330708661418},{"duration":0.05813953488373613,"midi":75,"time":129.0581395348837,"velocity":0.15748031496062992},{"duration":0.05813953488373613,"midi":83,"time":129.0581395348837,"velocity":0.16535433070866143},{"duration":0.04651162790699459,"midi":86,"time":129.0581395348837,"velocity":0.13385826771653545},{"duration":0.5,"midi":93,"time":129.0581395348837,"velocity":0.5905511811023622},{"duration":0.22093023255814614,"midi":99,"time":129.0581395348837,"velocity":0.3700787401574803},{"duration":0.034883720930224626,"midi":79,"time":129.06976744186048,"velocity":0.10236220472440945},{"duration":0.0813953488371908,"midi":41,"time":129.09302325581396,"velocity":0.30708661417322836},{"duration":0.023255813953483084,"midi":60,"time":129.09302325581396,"velocity":0.2755905511811024},{"duration":0.034883720930224626,"midi":68,"time":129.09302325581396,"velocity":0.4094488188976378},{"duration":0.06976744186044925,"midi":70,"time":129.1046511627907,"velocity":0.2440944881889764},{"duration":0.04651162790696617,"midi":60,"time":129.12790697674419,"velocity":0.31496062992125984},{"duration":0.16279069767443843,"midi":84,"time":129.15116279069767,"velocity":0.23622047244094488},{"duration":0.16279069767443843,"midi":68,"time":129.1627906976744,"velocity":0.4094488188976378},{"duration":0.1511627906976969,"midi":65,"time":129.17441860465115,"velocity":0.44881889763779526},{"duration":0.05813953488373613,"midi":73,"time":129.17441860465115,"velocity":0.07874015748031496},{"duration":0.0813953488371908,"midi":89,"time":129.2093023255814,"velocity":0.3858267716535433},{"duration":0.05813953488370771,"midi":103,"time":129.2325581395349,"velocity":0.11811023622047244},{"duration":0.05813953488370771,"midi":55,"time":129.3139534883721,"velocity":0.3858267716535433},{"duration":0.034883720930224626,"midi":88,"time":129.3139534883721,"velocity":0.11811023622047244},{"duration":0.034883720930224626,"midi":89,"time":129.3139534883721,"velocity":0.2047244094488189},{"duration":0.1860465116278931,"midi":99,"time":129.3139534883721,"velocity":0.2992125984251969},{"duration":0.04651162790696617,"midi":100,"time":129.3139534883721,"velocity":0.2047244094488189},{"duration":0.09302325581393234,"midi":102,"time":129.3139534883721,"velocity":0.2047244094488189},{"duration":0.04651162790696617,"midi":103,"time":129.3139534883721,"velocity":0.07086614173228346},{"duration":0.023255813953483084,"midi":62,"time":129.32558139534885,"velocity":0.33070866141732286},{"duration":0.22093023255811772,"midi":77,"time":129.32558139534885,"velocity":0.3779527559055118},{"duration":0.06976744186044925,"midi":79,"time":129.32558139534885,"velocity":0.25196850393700787},{"duration":0.034883720930224626,"midi":86,"time":129.32558139534885,"velocity":0.2440944881889764},{"duration":0.023255813953483084,"midi":95,"time":129.32558139534885,"velocity":0.2283464566929134},{"duration":0.20930232558137618,"midi":98,"time":129.32558139534885,"velocity":0.3543307086614173},{"duration":0.011627906976741542,"midi":47,"time":129.3372093023256,"velocity":0.5354330708661418},{"duration":0.034883720930224626,"midi":65,"time":129.3372093023256,"velocity":0.25196850393700787},{"duration":0.034883720930224626,"midi":68,"time":129.3372093023256,"velocity":0.3858267716535433},{"duration":0.05813953488370771,"midi":75,"time":129.3372093023256,"velocity":0.3779527559055118},{"duration":0.034883720930224626,"midi":82,"time":129.3372093023256,"velocity":0.15748031496062992},{"duration":0.05813953488370771,"midi":92,"time":129.3372093023256,"velocity":0.2283464566929134},{"duration":0.011627906976741542,"midi":45,"time":129.34883720930233,"velocity":0.5905511811023622},{"duration":0.09302325581396076,"midi":61,"time":129.34883720930233,"velocity":0.28346456692913385},{"duration":0.05813953488370771,"midi":84,"time":129.34883720930233,"velocity":0.15748031496062992},{"duration":0.0813953488371908,"midi":90,"time":129.34883720930233,"velocity":0.2992125984251969},{"duration":0.011627906976741542,"midi":44,"time":129.36046511627907,"velocity":0.5984251968503937},{"duration":0.011627906976741542,"midi":43,"time":129.37209302325581,"velocity":0.5905511811023622},{"duration":0.04651162790696617,"midi":56,"time":129.37209302325581,"velocity":0.3464566929133858},{"duration":0.023255813953483084,"midi":69,"time":129.37209302325581,"velocity":0.3464566929133858},{"duration":0.034883720930224626,"midi":95,"time":129.37209302325581,"velocity":0.15748031496062992},{"duration":0.034883720930224626,"midi":41,"time":129.38372093023256,"velocity":0.5669291338582677},{"duration":0.023255813953483084,"midi":76,"time":129.38372093023256,"velocity":0.23622047244094488},{"duration":0.05813953488373613,"midi":68,"time":129.3953488372093,"velocity":0.4094488188976378},{"duration":0.05813953488373613,"midi":87,"time":129.3953488372093,"velocity":0.2283464566929134},{"duration":0.03488372093025305,"midi":49,"time":129.40697674418604,"velocity":0.2677165354330709},{"duration":0.1511627906976969,"midi":86,"time":129.41860465116278,"velocity":0.3464566929133858},{"duration":0.03488372093025305,"midi":65,"time":129.43023255813952,"velocity":0.2047244094488189},{"duration":0.023255813953511506,"midi":71,"time":129.43023255813952,"velocity":0.2283464566929134},{"duration":0.04651162790699459,"midi":82,"time":129.43023255813952,"velocity":0.3937007874015748},{"duration":0.03488372093025305,"midi":88,"time":129.43023255813952,"velocity":0.2440944881889764},{"duration":0.023255813953483084,"midi":35,"time":129.45348837209303,"velocity":0.2283464566929134},{"duration":0.10465116279067388,"midi":70,"time":129.45348837209303,"velocity":0.4566929133858268},{"duration":0.15116279069766847,"midi":68,"time":129.46511627906978,"velocity":0.4566929133858268},{"duration":0.023255813953483084,"midi":56,"time":129.47674418604652,"velocity":0.2755905511811024},{"duration":0.034883720930224626,"midi":97,"time":129.47674418604652,"velocity":0.2283464566929134},{"duration":0.034883720930224626,"midi":102,"time":129.47674418604652,"velocity":0.1889763779527559},{"duration":0.04651162790696617,"midi":90,"time":129.48837209302326,"velocity":0.1968503937007874},{"duration":0.12790697674418539,"midi":96,"time":129.48837209302326,"velocity":0.2677165354330709},{"duration":0.034883720930224626,"midi":58,"time":129.5,"velocity":0.33070866141732286},{"duration":0.05813953488373613,"midi":75,"time":129.52325581395348,"velocity":0.2440944881889764},{"duration":0.25581395348837077,"midi":99,"time":129.52325581395348,"velocity":0.2755905511811024},{"duration":0.04651162790699459,"midi":56,"time":129.53488372093022,"velocity":0.3464566929133858},{"duration":0.04651162790699459,"midi":61,"time":129.53488372093022,"velocity":0.31496062992125984},{"duration":0.023255813953511506,"midi":72,"time":129.5581395348837,"velocity":0.3543307086614173},{"duration":0.05813953488373613,"midi":90,"time":129.5581395348837,"velocity":0.2204724409448819},{"duration":0.11627906976744384,"midi":102,"time":129.5581395348837,"velocity":0.3700787401574803},{"duration":0.05813953488370771,"midi":85,"time":129.56976744186048,"velocity":0.3464566929133858},{"duration":0.0813953488371908,"midi":88,"time":129.56976744186048,"velocity":0.2677165354330709},{"duration":0.04651162790696617,"midi":95,"time":129.56976744186048,"velocity":0.2204724409448819},{"duration":0.023255813953483084,"midi":60,"time":129.58139534883722,"velocity":0.3543307086614173},{"duration":0.05813953488370771,"midi":73,"time":129.58139534883722,"velocity":0.5275590551181102},{"duration":0.09302325581393234,"midi":84,"time":129.58139534883722,"velocity":0.3464566929133858},{"duration":0.034883720930224626,"midi":91,"time":129.58139534883722,"velocity":0.14960629921259844},{"duration":0.034883720930224626,"midi":93,"time":129.58139534883722,"velocity":0.18110236220472442},{"duration":0.0813953488371908,"midi":63,"time":129.59302325581396,"velocity":0.2992125984251969},{"duration":0.17441860465115155,"midi":77,"time":129.59302325581396,"velocity":0.2283464566929134},{"duration":0.04651162790696617,"midi":94,"time":129.59302325581396,"velocity":0.12598425196850394},{"duration":0.19767441860463464,"midi":101,"time":129.59302325581396,"velocity":0.30708661417322836},{"duration":0.023255813953483084,"midi":70,"time":129.6046511627907,"velocity":0.29133858267716534},{"duration":0.04651162790696617,"midi":81,"time":129.6046511627907,"velocity":0.2440944881889764},{"duration":0.034883720930224626,"midi":86,"time":129.6046511627907,"velocity":0.11023622047244094},{"duration":0.023255813953483084,"midi":67,"time":129.61627906976744,"velocity":0.29133858267716534},{"duration":0.023255813953483084,"midi":52,"time":129.62790697674419,"velocity":0.3464566929133858},{"duration":0.023255813953483084,"midi":68,"time":129.62790697674419,"velocity":0.33858267716535434},{"duration":0.12790697674418539,"midi":100,"time":129.62790697674419,"velocity":0.3464566929133858},{"duration":0.09302325581396076,"midi":103,"time":129.62790697674419,"velocity":0.25196850393700787},{"duration":0.034883720930224626,"midi":39,"time":129.63953488372093,"velocity":0.3700787401574803},{"duration":0.034883720930224626,"midi":72,"time":129.63953488372093,"velocity":0.4645669291338583},{"duration":0.023255813953483084,"midi":69,"time":129.65116279069767,"velocity":0.2992125984251969},{"duration":0.12790697674418539,"midi":82,"time":129.65116279069767,"velocity":0.23622047244094488},{"duration":0.04651162790699459,"midi":59,"time":129.6627906976744,"velocity":0.4094488188976378},{"duration":0.08139534883721922,"midi":86,"time":129.6627906976744,"velocity":0.2677165354330709},{"duration":0.03488372093025305,"midi":52,"time":129.67441860465115,"velocity":0.30708661417322836},{"duration":0.05813953488373613,"midi":68,"time":129.67441860465115,"velocity":0.4094488188976378},{"duration":0.03488372093025305,"midi":85,"time":129.67441860465115,"velocity":0.14173228346456693},{"duration":0.03488372093025305,"midi":89,"time":129.67441860465115,"velocity":0.2992125984251969},{"duration":0.2558139534883992,"midi":102,"time":129.6860465116279,"velocity":0.36220472440944884},{"duration":0.09302325581393234,"midi":65,"time":129.69767441860466,"velocity":0.1889763779527559},{"duration":0.023255813953483084,"midi":90,"time":129.69767441860466,"velocity":0.3464566929133858},{"duration":0.04651162790696617,"midi":58,"time":129.7093023255814,"velocity":0.4251968503937008},{"duration":0.06976744186044925,"midi":70,"time":129.7093023255814,"velocity":0.4409448818897638},{"duration":0.05813953488370771,"midi":89,"time":129.72093023255815,"velocity":0.3937007874015748},{"duration":0.05813953488370771,"midi":95,"time":129.72093023255815,"velocity":0.25984251968503935},{"duration":0.05813953488370771,"midi":97,"time":129.7325581395349,"velocity":0.09448818897637795},{"duration":0.09302325581396076,"midi":73,"time":129.74418604651163,"velocity":0.33858267716535434},{"duration":0.04651162790696617,"midi":93,"time":129.74418604651163,"velocity":0.18110236220472442},{"duration":0.05813953488370771,"midi":103,"time":129.74418604651163,"velocity":0.16535433070866143},{"duration":0.023255813953483084,"midi":69,"time":129.7674418604651,"velocity":0.29133858267716534},{"duration":0.023255813953483084,"midi":55,"time":129.77906976744185,"velocity":0.31496062992125984},{"duration":0.04651162790699459,"midi":68,"time":129.7906976744186,"velocity":0.44881889763779526},{"duration":0.03488372093025305,"midi":61,"time":129.80232558139534,"velocity":0.11023622047244094},{"duration":0.30232558139533694,"midi":101,"time":129.8139534883721,"velocity":0.3543307086614173},{"duration":0.06976744186044925,"midi":84,"time":129.82558139534885,"velocity":0.25196850393700787},{"duration":0.05813953488370771,"midi":95,"time":129.82558139534885,"velocity":0.31496062992125984},{"duration":0.11627906976744384,"midi":100,"time":129.82558139534885,"velocity":0.2440944881889764},{"duration":0.034883720930224626,"midi":69,"time":129.8372093023256,"velocity":0.3543307086614173},{"duration":0.04651162790696617,"midi":72,"time":129.8372093023256,"velocity":0.2125984251968504},{"duration":0.034883720930224626,"midi":89,"time":129.8372093023256,"velocity":0.2047244094488189},{"duration":0.5116279069767415,"midi":93,"time":129.8372093023256,"velocity":0.5433070866141733},{"duration":0.0813953488371908,"midi":94,"time":129.8372093023256,"velocity":0.16535433070866143},{"duration":0.3488372093023031,"midi":96,"time":129.8372093023256,"velocity":0.3543307086614173},{"duration":0.06976744186044925,"midi":98,"time":129.8372093023256,"velocity":0.2677165354330709},{"duration":0.3953488372092977,"midi":99,"time":129.8372093023256,"velocity":0.3858267716535433},{"duration":0.023255813953483084,"midi":60,"time":129.84883720930233,"velocity":0.4409448818897638},{"duration":0.034883720930224626,"midi":87,"time":129.84883720930233,"velocity":0.1968503937007874},{"duration":0.034883720930224626,"midi":88,"time":129.84883720930233,"velocity":0.2125984251968504},{"duration":0.04651162790696617,"midi":91,"time":129.84883720930233,"velocity":0.25196850393700787},{"duration":0.023255813953483084,"midi":92,"time":129.84883720930233,"velocity":0.2283464566929134},{"duration":0.06976744186044925,"midi":97,"time":129.84883720930233,"velocity":0.10236220472440945},{"duration":0.034883720930224626,"midi":65,"time":129.86046511627907,"velocity":0.44881889763779526},{"duration":0.023255813953483084,"midi":90,"time":129.86046511627907,"velocity":0.23622047244094488},{"duration":0.023255813953483084,"midi":45,"time":129.87209302325581,"velocity":0.5984251968503937},{"duration":0.22093023255814614,"midi":68,"time":129.87209302325581,"velocity":0.41732283464566927},{"duration":0.08139534883721922,"midi":89,"time":129.88372093023256,"velocity":0.29133858267716534},{"duration":0.011627906976741542,"midi":44,"time":129.8953488372093,"velocity":0.5748031496062992},{"duration":0.011627906976741542,"midi":43,"time":129.90697674418604,"velocity":0.5511811023622047},{"duration":0.03488372093025305,"midi":65,"time":129.90697674418604,"velocity":0.23622047244094488},{"duration":0.03488372093025305,"midi":70,"time":129.90697674418604,"velocity":0.16535433070866143},{"duration":0.03488372093025305,"midi":87,"time":129.90697674418604,"velocity":0.10236220472440945},{"duration":0.023255813953511506,"midi":52,"time":129.91860465116278,"velocity":0.2755905511811024},{"duration":0.1511627906976969,"midi":77,"time":129.91860465116278,"velocity":0.33858267716535434},{"duration":0.03488372093025305,"midi":103,"time":129.93023255813952,"velocity":0.12598425196850394},{"duration":0.12790697674418539,"midi":84,"time":129.9418604651163,"velocity":0.23622047244094488},{"duration":0.13953488372092693,"midi":65,"time":129.95348837209303,"velocity":0.4409448818897638},{"duration":0.034883720930224626,"midi":36,"time":129.97674418604652,"velocity":0.2992125984251969},{"duration":0.023255813953483084,"midi":55,"time":129.97674418604652,"velocity":0.2440944881889764},{"duration":0.04651162790696617,"midi":100,"time":129.97674418604652,"velocity":0.07086614173228346},{"duration":0.05813953488370771,"midi":70,"time":129.98837209302326,"velocity":0.2755905511811024},{"duration":0.05813953488370771,"midi":74,"time":129.98837209302326,"velocity":0.14960629921259844},{"duration":0.08139534883721922,"midi":89,"time":130,"velocity":0.3937007874015748},{"duration":0.04651162790699459,"midi":103,"time":130.03488372093022,"velocity":0.13385826771653545},{"duration":0.08139534883721922,"midi":87,"time":130.04651162790697,"velocity":0.15748031496062992},{"duration":0.034883720930224626,"midi":52,"time":130.09302325581396,"velocity":0.2283464566929134},{"duration":0.05813953488370771,"midi":77,"time":130.09302325581396,"velocity":0.15748031496062992},{"duration":0.05813953488370771,"midi":83,"time":130.1046511627907,"velocity":0.2047244094488189},{"duration":0.034883720930224626,"midi":84,"time":130.1046511627907,"velocity":0.1732283464566929},{"duration":0.05813953488370771,"midi":78,"time":130.11627906976744,"velocity":0.23622047244094488},{"duration":0.04651162790696617,"midi":86,"time":130.11627906976744,"velocity":0.2677165354330709},{"duration":0.034883720930224626,"midi":92,"time":130.11627906976744,"velocity":0.09448818897637795},{"duration":0.034883720930224626,"midi":66,"time":130.12790697674419,"velocity":0.2992125984251969},{"duration":0.04651162790696617,"midi":71,"time":130.12790697674419,"velocity":0.25196850393700787},{"duration":0.023255813953483084,"midi":73,"time":130.12790697674419,"velocity":0.23622047244094488},{"duration":0.05813953488370771,"midi":101,"time":130.12790697674419,"velocity":0.15748031496062992},{"duration":0.09302325581396076,"midi":68,"time":130.13953488372093,"velocity":0.33070866141732286},{"duration":0.034883720930224626,"midi":100,"time":130.13953488372093,"velocity":0.10236220472440945},{"duration":0.023255813953483084,"midi":40,"time":130.15116279069767,"velocity":0.3779527559055118},{"duration":0.08139534883721922,"midi":48,"time":130.15116279069767,"velocity":0.31496062992125984},{"duration":0.034883720930224626,"midi":57,"time":130.15116279069767,"velocity":0.2204724409448819},{"duration":0.023255813953483084,"midi":65,"time":130.1627906976744,"velocity":0.2992125984251969},{"duration":0.023255813953511506,"midi":67,"time":130.17441860465115,"velocity":0.25196850393700787},{"duration":0.03488372093025305,"midi":84,"time":130.17441860465115,"velocity":0.16535433070866143},{"duration":0.05813953488370771,"midi":41,"time":130.19767441860466,"velocity":0.29133858267716534},{"duration":0.09302325581393234,"midi":65,"time":130.19767441860466,"velocity":0.41732283464566927},{"duration":0.034883720930224626,"midi":30,"time":130.22093023255815,"velocity":0.2440944881889764},{"duration":0.034883720930224626,"midi":101,"time":130.22093023255815,"velocity":0.07086614173228346},{"duration":0.04651162790696617,"midi":74,"time":130.24418604651163,"velocity":0.3543307086614173},{"duration":0.05813953488370771,"midi":81,"time":130.24418604651163,"velocity":0.23622047244094488},{"duration":0.04651162790696617,"midi":84,"time":130.24418604651163,"velocity":0.12598425196850394},{"duration":0.06976744186047767,"midi":87,"time":130.24418604651163,"velocity":0.13385826771653545},{"duration":0.034883720930224626,"midi":92,"time":130.24418604651163,"velocity":0.12598425196850394},{"duration":0.034883720930224626,"midi":95,"time":130.24418604651163,"velocity":0.15748031496062992},{"duration":0.023255813953483084,"midi":57,"time":130.25581395348837,"velocity":0.2992125984251969},{"duration":0.06976744186047767,"midi":70,"time":130.25581395348837,"velocity":0.3858267716535433},{"duration":0.04651162790696617,"midi":80,"time":130.25581395348837,"velocity":0.09448818897637795},{"duration":0.08139534883721922,"midi":44,"time":130.2674418604651,"velocity":0.36220472440944884},{"duration":0.023255813953483084,"midi":51,"time":130.27906976744185,"velocity":0.3228346456692913},{"duration":0.023255813953511506,"midi":64,"time":130.2906976744186,"velocity":0.3779527559055118},{"duration":0.04651162790699459,"midi":68,"time":130.30232558139534,"velocity":0.2204724409448819},{"duration":0.04651162790699459,"midi":77,"time":130.30232558139534,"velocity":0.11023622047244094},{"duration":0.09302325581393234,"midi":32,"time":130.3139534883721,"velocity":0.3464566929133858},{"duration":0.05813953488370771,"midi":51,"time":130.3139534883721,"velocity":0.30708661417322836},{"duration":0.034883720930224626,"midi":74,"time":130.3139534883721,"velocity":0.12598425196850394},{"duration":0.05813953488370771,"midi":64,"time":130.34883720930233,"velocity":0.33070866141732286},{"duration":0.04651162790696617,"midi":72,"time":130.34883720930233,"velocity":0.3858267716535433},{"duration":0.19767441860463464,"midi":93,"time":130.36046511627907,"velocity":0.31496062992125984},{"duration":0.034883720930224626,"midi":98,"time":130.36046511627907,"velocity":0.10236220472440945},{"duration":0.15116279069766847,"midi":99,"time":130.36046511627907,"velocity":0.2677165354330709},{"duration":0.04651162790696617,"midi":101,"time":130.36046511627907,"velocity":0.1889763779527559},{"duration":0.034883720930224626,"midi":103,"time":130.36046511627907,"velocity":0.09448818897637795},{"duration":0.034883720930224626,"midi":68,"time":130.37209302325581,"velocity":0.23622047244094488},{"duration":0.034883720930224626,"midi":79,"time":130.37209302325581,"velocity":0.14173228346456693},{"duration":0.034883720930224626,"midi":91,"time":130.37209302325581,"velocity":0.14173228346456693},{"duration":0.034883720930224626,"midi":92,"time":130.37209302325581,"velocity":0.14173228346456693},{"duration":0.034883720930224626,"midi":94,"time":130.37209302325581,"velocity":0.1889763779527559},{"duration":0.034883720930224626,"midi":95,"time":130.37209302325581,"velocity":0.2440944881889764},{"duration":0.05813953488370771,"midi":97,"time":130.37209302325581,"velocity":0.16535433070866143},{"duration":0.034883720930224626,"midi":102,"time":130.37209302325581,"velocity":0.2047244094488189},{"duration":0.13953488372092693,"midi":58,"time":130.38372093023256,"velocity":0.31496062992125984},{"duration":0.034883720930224626,"midi":83,"time":130.38372093023256,"velocity":0.15748031496062992},{"duration":0.011627906976741542,"midi":48,"time":130.3953488372093,"velocity":0.5511811023622047},{"duration":0.034883720930224626,"midi":73,"time":130.3953488372093,"velocity":0.3543307086614173},{"duration":0.17441860465117998,"midi":80,"time":130.3953488372093,"velocity":0.2992125984251969},{"duration":0.023255813953483084,"midi":45,"time":130.40697674418604,"velocity":0.6220472440944882},{"duration":0.11627906976744384,"midi":53,"time":130.41860465116278,"velocity":0.25196850393700787},{"duration":0.06976744186047767,"midi":68,"time":130.41860465116278,"velocity":0.3858267716535433},{"duration":0.1046511627907023,"midi":70,"time":130.41860465116278,"velocity":0.33070866141732286},{"duration":0.1046511627907023,"midi":101,"time":130.41860465116278,"velocity":0.13385826771653545},{"duration":0.011627906976769964,"midi":43,"time":130.43023255813952,"velocity":0.5826771653543307},{"duration":0.09302325581396076,"midi":62,"time":130.43023255813952,"velocity":0.1968503937007874},{"duration":0.023255813953511506,"midi":65,"time":130.43023255813952,"velocity":0.25196850393700787},{"duration":0.05813953488373613,"midi":98,"time":130.43023255813952,"velocity":0.07086614173228346},{"duration":0.023255813953483084,"midi":42,"time":130.4418604651163,"velocity":0.5196850393700787},{"duration":0.1860465116278931,"midi":73,"time":130.4418604651163,"velocity":0.4015748031496063},{"duration":0.034883720930224626,"midi":96,"time":130.4418604651163,"velocity":0.07874015748031496},{"duration":0.034883720930224626,"midi":36,"time":130.48837209302326,"velocity":0.3937007874015748},{"duration":0.04651162790696617,"midi":67,"time":130.48837209302326,"velocity":0.2992125984251969},{"duration":0.11627906976744384,"midi":96,"time":130.48837209302326,"velocity":0.33858267716535434},{"duration":0.09302325581396076,"midi":77,"time":130.51162790697674,"velocity":0.2204724409448819},{"duration":0.034883720930224626,"midi":98,"time":130.51162790697674,"velocity":0.12598425196850394},{"duration":0.04651162790699459,"midi":68,"time":130.53488372093022,"velocity":0.28346456692913385},{"duration":0.1046511627907023,"midi":70,"time":130.53488372093022,"velocity":0.2992125984251969},{"duration":0.034883720930224626,"midi":68,"time":130.62790697674419,"velocity":0.2204724409448819},{"duration":0.13953488372092693,"midi":51,"time":130.63953488372093,"velocity":0.30708661417322836},{"duration":0.034883720930224626,"midi":57,"time":130.63953488372093,"velocity":0.2204724409448819},{"duration":0.034883720930224626,"midi":72,"time":130.63953488372093,"velocity":0.15748031496062992},{"duration":0.09302325581396076,"midi":74,"time":130.63953488372093,"velocity":0.23622047244094488},{"duration":0.1046511627907023,"midi":77,"time":130.63953488372093,"velocity":0.2283464566929134},{"duration":0.09302325581396076,"midi":78,"time":130.63953488372093,"velocity":0.18110236220472442},{"duration":0.04651162790696617,"midi":86,"time":130.63953488372093,"velocity":0.2440944881889764},{"duration":0.04651162790696617,"midi":89,"time":130.63953488372093,"velocity":0.2283464566929134},{"duration":0.034883720930224626,"midi":66,"time":130.65116279069767,"velocity":0.2677165354330709},{"duration":0.04651162790699459,"midi":81,"time":130.65116279069767,"velocity":0.2125984251968504},{"duration":0.11627906976744384,"midi":44,"time":130.6627906976744,"velocity":0.3858267716535433},{"duration":0.12790697674418539,"midi":60,"time":130.6627906976744,"velocity":0.2283464566929134},{"duration":0.05813953488373613,"midi":70,"time":130.6627906976744,"velocity":0.1732283464566929},{"duration":0.03488372093025305,"midi":96,"time":130.67441860465115,"velocity":0.08661417322834646},{"duration":0.034883720930224626,"midi":66,"time":130.7093023255814,"velocity":0.14960629921259844},{"duration":0.023255813953483084,"midi":33,"time":130.72093023255815,"velocity":0.3228346456692913},{"duration":0.04651162790696617,"midi":94,"time":130.72093023255815,"velocity":0.09448818897637795},{"duration":0.04651162790696617,"midi":32,"time":130.74418604651163,"velocity":0.33070866141732286},{"duration":0.034883720930224626,"midi":69,"time":130.74418604651163,"velocity":0.4330708661417323},{"duration":0.11627906976744384,"midi":102,"time":130.74418604651163,"velocity":0.15748031496062992},{"duration":0.023255813953483084,"midi":73,"time":130.75581395348837,"velocity":0.33858267716535434},{"duration":0.05813953488373613,"midi":66,"time":130.7674418604651,"velocity":0.36220472440944884},{"duration":0.04651162790699459,"midi":83,"time":130.7674418604651,"velocity":0.1889763779527559},{"duration":0.04651162790699459,"midi":91,"time":130.7674418604651,"velocity":0.23622047244094488},{"duration":0.034883720930224626,"midi":92,"time":130.7674418604651,"velocity":0.14173228346456693},{"duration":0.06976744186047767,"midi":97,"time":130.7674418604651,"velocity":0.13385826771653545},{"duration":0.023255813953483084,"midi":46,"time":130.77906976744185,"velocity":0.3228346456692913},{"duration":0.09302325581396076,"midi":68,"time":130.77906976744185,"velocity":0.3858267716535433},{"duration":0.05813953488373613,"midi":74,"time":130.77906976744185,"velocity":0.3779527559055118},{"duration":0.06976744186047767,"midi":76,"time":130.77906976744185,"velocity":0.2440944881889764},{"duration":0.1046511627907023,"midi":70,"time":130.7906976744186,"velocity":0.33070866141732286},{"duration":0.09302325581396076,"midi":53,"time":130.80232558139534,"velocity":0.2992125984251969},{"duration":0.08139534883721922,"midi":58,"time":130.80232558139534,"velocity":0.25196850393700787},{"duration":0.05813953488373613,"midi":62,"time":130.80232558139534,"velocity":0.1732283464566929},{"duration":0.05813953488373613,"midi":77,"time":130.80232558139534,"velocity":0.10236220472440945},{"duration":0.03488372093025305,"midi":79,"time":130.80232558139534,"velocity":0.15748031496062992},{"duration":0.09302325581393234,"midi":46,"time":130.8139534883721,"velocity":0.29133858267716534},{"duration":0.023255813953483084,"midi":35,"time":130.82558139534885,"velocity":0.3228346456692913},{"duration":0.0813953488371908,"midi":65,"time":130.82558139534885,"velocity":0.4015748031496063},{"duration":0.25581395348837077,"midi":73,"time":130.8372093023256,"velocity":0.36220472440944884},{"duration":0.16279069767441,"midi":92,"time":130.8372093023256,"velocity":0.28346456692913385},{"duration":0.04651162790696617,"midi":96,"time":130.8372093023256,"velocity":0.1889763779527559},{"duration":0.05813953488370771,"midi":34,"time":130.84883720930233,"velocity":0.3228346456692913},{"duration":0.023255813953483084,"midi":68,"time":130.88372093023256,"velocity":0.3228346456692913},{"duration":0.08139534883721922,"midi":88,"time":130.8953488372093,"velocity":0.2283464566929134},{"duration":0.06976744186047767,"midi":90,"time":130.8953488372093,"velocity":0.2755905511811024},{"duration":0.08139534883721922,"midi":93,"time":130.8953488372093,"velocity":0.16535433070866143},{"duration":0.09302325581396076,"midi":99,"time":130.8953488372093,"velocity":0.13385826771653545},{"duration":0.023255813953483084,"midi":67,"time":130.90697674418604,"velocity":0.3700787401574803},{"duration":0.03488372093025305,"midi":77,"time":130.90697674418604,"velocity":0.11811023622047244},{"duration":0.03488372093025305,"midi":87,"time":130.90697674418604,"velocity":0.16535433070866143},{"duration":0.09302325581396076,"midi":89,"time":130.90697674418604,"velocity":0.2440944881889764},{"duration":0.04651162790699459,"midi":95,"time":130.90697674418604,"velocity":0.15748031496062992},{"duration":0.03488372093025305,"midi":97,"time":130.90697674418604,"velocity":0.1889763779527559},{"duration":0.03488372093025305,"midi":98,"time":130.90697674418604,"velocity":0.1732283464566929},{"duration":0.011627906976741542,"midi":53,"time":130.91860465116278,"velocity":0.5118110236220472},{"duration":0.1046511627907023,"midi":70,"time":130.91860465116278,"velocity":0.2755905511811024},{"duration":0.04651162790699459,"midi":83,"time":130.91860465116278,"velocity":0.11023622047244094},{"duration":0.05813953488373613,"midi":91,"time":130.91860465116278,"velocity":0.2125984251968504},{"duration":0.04651162790699459,"midi":94,"time":130.91860465116278,"velocity":0.13385826771653545},{"duration":0.023255813953511506,"midi":45,"time":130.93023255813952,"velocity":0.5984251968503937},{"duration":0.11627906976744384,"midi":65,"time":130.93023255813952,"velocity":0.25984251968503935},{"duration":0.13953488372092693,"midi":68,"time":130.9418604651163,"velocity":0.3228346456692913},{"duration":0.011627906976741542,"midi":44,"time":130.95348837209303,"velocity":0.5826771653543307},{"duration":0.023255813953483084,"midi":51,"time":130.95348837209303,"velocity":0.29133858267716534},{"duration":0.023255813953483084,"midi":42,"time":130.96511627906978,"velocity":0.5669291338582677},{"duration":0.023255813953483084,"midi":52,"time":130.97674418604652,"velocity":0.28346456692913385},{"duration":0.023255813953483084,"midi":53,"time":131,"velocity":0.23622047244094488},{"duration":0.05813953488370771,"midi":93,"time":131,"velocity":0.16535433070866143},{"duration":0.08139534883721922,"midi":92,"time":131.01162790697674,"velocity":0.11023622047244094},{"duration":0.023255813953483084,"midi":36,"time":131.03488372093022,"velocity":0.2992125984251969},{"duration":0.15116279069766847,"midi":61,"time":131.03488372093022,"velocity":0.2677165354330709},{"duration":0.05813953488373613,"midi":83,"time":131.03488372093022,"velocity":0.2283464566929134},{"duration":0.04651162790699459,"midi":86,"time":131.03488372093022,"velocity":0.2204724409448819},{"duration":0.03488372093025305,"midi":87,"time":131.03488372093022,"velocity":0.07874015748031496},{"duration":0.04651162790699459,"midi":91,"time":131.03488372093022,"velocity":0.2047244094488189},{"duration":0.05813953488373613,"midi":96,"time":131.03488372093022,"velocity":0.14173228346456693},{"duration":0.023255813953511506,"midi":48,"time":131.04651162790697,"velocity":0.3700787401574803},{"duration":0.023255813953511506,"midi":55,"time":131.04651162790697,"velocity":0.25984251968503935},{"duration":0.03488372093025305,"midi":77,"time":131.04651162790697,"velocity":0.07874015748031496},{"duration":0.05813953488373613,"midi":79,"time":131.04651162790697,"velocity":0.2440944881889764},{"duration":0.04651162790699459,"midi":84,"time":131.04651162790697,"velocity":0.11023622047244094},{"duration":0.03488372093025305,"midi":66,"time":131.0581395348837,"velocity":0.2047244094488189},{"duration":0.04651162790699459,"midi":71,"time":131.0581395348837,"velocity":0.2440944881889764},{"duration":0.05813953488373613,"midi":75,"time":131.0581395348837,"velocity":0.09448818897637795},{"duration":0.17441860465117998,"midi":85,"time":131.0581395348837,"velocity":0.3937007874015748},{"duration":0.06976744186044925,"midi":49,"time":131.06976744186048,"velocity":0.3228346456692913},{"duration":0.11627906976741542,"midi":56,"time":131.06976744186048,"velocity":0.2755905511811024},{"duration":0.09302325581393234,"midi":89,"time":131.08139534883722,"velocity":0.15748031496062992},{"duration":0.04651162790696617,"midi":74,"time":131.09302325581396,"velocity":0.10236220472440945},{"duration":0.023255813953483084,"midi":37,"time":131.11627906976744,"velocity":0.3543307086614173},{"duration":0.06976744186044925,"midi":65,"time":131.11627906976744,"velocity":0.2047244094488189},{"duration":0.034883720930224626,"midi":68,"time":131.11627906976744,"velocity":0.2755905511811024},{"duration":0.15116279069766847,"midi":88,"time":131.11627906976744,"velocity":0.2992125984251969},{"duration":0.11627906976744384,"midi":72,"time":131.12790697674419,"velocity":0.3779527559055118},{"duration":0.04651162790696617,"midi":50,"time":131.13953488372093,"velocity":0.2992125984251969},{"duration":0.04651162790696617,"midi":75,"time":131.13953488372093,"velocity":0.2283464566929134},{"duration":0.023255813953483084,"midi":37,"time":131.15116279069767,"velocity":0.23622047244094488},{"duration":0.034883720930224626,"midi":69,"time":131.15116279069767,"velocity":0.2992125984251969},{"duration":0.08139534883721922,"midi":81,"time":131.15116279069767,"velocity":0.49606299212598426},{"duration":0.06976744186047767,"midi":92,"time":131.15116279069767,"velocity":0.18110236220472442},{"duration":0.09302325581396076,"midi":78,"time":131.1627906976744,"velocity":0.2440944881889764},{"duration":0.03488372093025305,"midi":76,"time":131.17441860465115,"velocity":0.1732283464566929},{"duration":0.1046511627907023,"midi":94,"time":131.17441860465115,"velocity":0.10236220472440945},{"duration":0.11627906976744384,"midi":55,"time":131.1860465116279,"velocity":0.29133858267716534},{"duration":0.04651162790699459,"midi":64,"time":131.1860465116279,"velocity":0.28346456692913385},{"duration":0.04651162790699459,"midi":68,"time":131.1860465116279,"velocity":0.2125984251968504},{"duration":0.1279069767442138,"midi":70,"time":131.1860465116279,"velocity":0.2283464566929134},{"duration":0.09302325581396076,"midi":91,"time":131.1860465116279,"velocity":0.2992125984251969},{"duration":0.11627906976744384,"midi":48,"time":131.19767441860466,"velocity":0.3543307086614173},{"duration":0.13953488372092693,"midi":84,"time":131.2093023255814,"velocity":0.3858267716535433},{"duration":0.023255813953483084,"midi":37,"time":131.22093023255815,"velocity":0.3543307086614173},{"duration":0.1046511627907023,"midi":82,"time":131.22093023255815,"velocity":0.33858267716535434},{"duration":0.11627906976744384,"midi":80,"time":131.2325581395349,"velocity":0.41732283464566927},{"duration":0.08139534883721922,"midi":87,"time":131.2325581395349,"velocity":0.1968503937007874},{"duration":0.08139534883721922,"midi":36,"time":131.24418604651163,"velocity":0.3543307086614173},{"duration":0.034883720930224626,"midi":75,"time":131.24418604651163,"velocity":0.07086614173228346},{"duration":0.023255813953483084,"midi":81,"time":131.24418604651163,"velocity":0.2440944881889764},{"duration":0.05813953488373613,"midi":65,"time":131.2674418604651,"velocity":0.13385826771653545},{"duration":0.04651162790699459,"midi":72,"time":131.2674418604651,"velocity":0.1889763779527559},{"duration":0.03488372093025305,"midi":90,"time":131.27906976744185,"velocity":0.1889763779527559},{"duration":0.03488372093025305,"midi":68,"time":131.2906976744186,"velocity":0.1889763779527559},{"duration":0.03488372093025305,"midi":73,"time":131.2906976744186,"velocity":0.2283464566929134},{"duration":0.03488372093025305,"midi":56,"time":131.30232558139534,"velocity":0.11811023622047244},{"duration":0.0813953488371908,"midi":88,"time":131.3139534883721,"velocity":0.2283464566929134},{"duration":0.05813953488370771,"midi":91,"time":131.3139534883721,"velocity":0.18110236220472442},{"duration":0.034883720930224626,"midi":72,"time":131.32558139534885,"velocity":0.2992125984251969},{"duration":0.04651162790696617,"midi":76,"time":131.32558139534885,"velocity":0.1889763779527559},{"duration":0.0813953488371908,"midi":81,"time":131.32558139534885,"velocity":0.4645669291338583},{"duration":0.034883720930224626,"midi":70,"time":131.3372093023256,"velocity":0.09448818897637795},{"duration":0.034883720930224626,"midi":82,"time":131.3372093023256,"velocity":0.16535433070866143},{"duration":0.023255813953483084,"midi":85,"time":131.3372093023256,"velocity":0.2440944881889764},{"duration":0.09302325581396076,"midi":84,"time":131.36046511627907,"velocity":0.25196850393700787},{"duration":0.034883720930224626,"midi":72,"time":131.37209302325581,"velocity":0.1889763779527559},{"duration":0.06976744186047767,"midi":65,"time":131.38372093023256,"velocity":0.2047244094488189},{"duration":0.1046511627907023,"midi":80,"time":131.38372093023256,"velocity":0.3779527559055118},{"duration":0.034883720930224626,"midi":69,"time":131.3953488372093,"velocity":0.11811023622047244},{"duration":0.04651162790699459,"midi":86,"time":131.41860465116278,"velocity":0.23622047244094488},{"duration":0.11627906976744384,"midi":73,"time":131.43023255813952,"velocity":0.2204724409448819},{"duration":0.03488372093025305,"midi":102,"time":131.43023255813952,"velocity":0.15748031496062992},{"duration":0.011627906976741542,"midi":48,"time":131.45348837209303,"velocity":0.5275590551181102},{"duration":0.011627906976741542,"midi":45,"time":131.46511627906978,"velocity":0.6141732283464567},{"duration":0.04651162790696617,"midi":65,"time":131.46511627906978,"velocity":0.09448818897637795},{"duration":0.011627906976741542,"midi":44,"time":131.47674418604652,"velocity":0.6220472440944882},{"duration":0.011627906976741542,"midi":43,"time":131.48837209302326,"velocity":0.5984251968503937},{"duration":0.06976744186044925,"midi":68,"time":131.48837209302326,"velocity":0.10236220472440945},{"duration":0.023255813953483084,"midi":81,"time":131.48837209302326,"velocity":0.28346456692913385},{"duration":0.04651162790696617,"midi":84,"time":131.48837209302326,"velocity":0.12598425196850394},{"duration":0.011627906976741542,"midi":42,"time":131.5,"velocity":0.5748031496062992},{"duration":0.011627906976741542,"midi":41,"time":131.51162790697674,"velocity":0.5196850393700787},{"duration":0.27906976744185386,"midi":81,"time":131.52325581395348,"velocity":0.2677165354330709},{"duration":0.04651162790699459,"midi":36,"time":131.5581395348837,"velocity":0.36220472440944884},{"duration":0.05813953488370771,"midi":70,"time":131.58139534883722,"velocity":0.2204724409448819},{"duration":0.034883720930224626,"midi":74,"time":131.58139534883722,"velocity":0.14960629921259844},{"duration":0.06976744186044925,"midi":65,"time":131.59302325581396,"velocity":0.11023622047244094},{"duration":0.13953488372092693,"midi":70,"time":131.69767441860466,"velocity":0.3858267716535433},{"duration":0.11627906976744384,"midi":74,"time":131.69767441860466,"velocity":0.25984251968503935},{"duration":0.034883720930224626,"midi":88,"time":131.69767441860466,"velocity":0.07086614173228346},{"duration":0.023255813953483084,"midi":66,"time":131.7093023255814,"velocity":0.2992125984251969},{"duration":0.0813953488371908,"midi":77,"time":131.7093023255814,"velocity":0.15748031496062992},{"duration":0.1860465116278931,"midi":58,"time":131.72093023255815,"velocity":0.1968503937007874},{"duration":0.1860465116278931,"midi":65,"time":131.7325581395349,"velocity":0.25984251968503935},{"duration":0.06976744186044925,"midi":84,"time":131.7325581395349,"velocity":0.18110236220472442},{"duration":0.04651162790699459,"midi":80,"time":131.7906976744186,"velocity":0.2125984251968504},{"duration":0.05813953488370771,"midi":81,"time":131.8139534883721,"velocity":0.12598425196850394},{"duration":0.05813953488370771,"midi":84,"time":131.8139534883721,"velocity":0.11811023622047244},{"duration":0.023255813953483084,"midi":71,"time":131.8372093023256,"velocity":0.25984251968503935},{"duration":0.09302325581393234,"midi":74,"time":131.8372093023256,"velocity":0.2440944881889764},{"duration":0.04651162790696617,"midi":80,"time":131.86046511627907,"velocity":0.2283464566929134},{"duration":0.04651162790699459,"midi":80,"time":131.93023255813952,"velocity":0.15748031496062992},{"duration":0.023255813953483084,"midi":55,"time":131.95348837209303,"velocity":0.4645669291338583},{"duration":0.10465116279067388,"midi":68,"time":131.95348837209303,"velocity":0.33858267716535434},{"duration":0.05813953488370771,"midi":73,"time":131.95348837209303,"velocity":0.2283464566929134},{"duration":0.034883720930224626,"midi":77,"time":131.95348837209303,"velocity":0.11811023622047244},{"duration":0.06976744186044925,"midi":90,"time":131.95348837209303,"velocity":0.29133858267716534},{"duration":0.034883720930224626,"midi":99,"time":131.95348837209303,"velocity":0.18110236220472442},{"duration":0.034883720930224626,"midi":60,"time":131.96511627906978,"velocity":0.4251968503937008},{"duration":0.034883720930224626,"midi":79,"time":131.96511627906978,"velocity":0.13385826771653545},{"duration":0.05813953488370771,"midi":82,"time":131.96511627906978,"velocity":0.1732283464566929},{"duration":0.034883720930224626,"midi":87,"time":131.96511627906978,"velocity":0.1889763779527559},{"duration":0.06976744186044925,"midi":88,"time":131.96511627906978,"velocity":0.2204724409448819},{"duration":0.04651162790696617,"midi":96,"time":131.96511627906978,"velocity":0.14960629921259844},{"duration":0.05813953488370771,"midi":101,"time":131.96511627906978,"velocity":0.18110236220472442},{"duration":0.034883720930224626,"midi":45,"time":131.97674418604652,"velocity":0.6141732283464567},{"duration":0.023255813953483084,"midi":64,"time":131.97674418604652,"velocity":0.23622047244094488},{"duration":0.05813953488370771,"midi":83,"time":131.97674418604652,"velocity":0.11811023622047244},{"duration":0.06976744186044925,"midi":89,"time":131.97674418604652,"velocity":0.2125984251968504},{"duration":0.011627906976741542,"midi":44,"time":132.01162790697674,"velocity":0.5984251968503937},{"duration":0.023255813953483084,"midi":51,"time":132.01162790697674,"velocity":0.28346456692913385},{"duration":0.023255813953483084,"midi":42,"time":132.02325581395348,"velocity":0.5826771653543307},{"duration":0.023255813953483084,"midi":37,"time":132.06976744186048,"velocity":0.4015748031496063},{"duration":0.16279069767441,"midi":56,"time":132.08139534883722,"velocity":0.3937007874015748},{"duration":0.023255813953483084,"midi":36,"time":132.09302325581396,"velocity":0.3228346456692913},{"duration":0.0813953488371908,"midi":63,"time":132.09302325581396,"velocity":0.2047244094488189},{"duration":0.06976744186044925,"midi":70,"time":132.1046511627907,"velocity":0.2283464566929134},{"duration":0.034883720930224626,"midi":79,"time":132.1046511627907,"velocity":0.11811023622047244},{"duration":0.034883720930224626,"midi":69,"time":132.22093023255815,"velocity":0.18110236220472442},{"duration":0.04651162790696617,"midi":78,"time":132.22093023255815,"velocity":0.1968503937007874},{"duration":0.04651162790696617,"midi":88,"time":132.22093023255815,"velocity":0.2440944881889764},{"duration":0.04651162790696617,"midi":91,"time":132.22093023255815,"velocity":0.2125984251968504},{"duration":0.034883720930224626,"midi":63,"time":132.2325581395349,"velocity":0.23622047244094488},{"duration":0.034883720930224626,"midi":66,"time":132.2325581395349,"velocity":0.08661417322834646},{"duration":0.05813953488370771,"midi":80,"time":132.2325581395349,"velocity":0.2047244094488189},{"duration":0.04651162790696617,"midi":83,"time":132.2325581395349,"velocity":0.18110236220472442},{"duration":0.034883720930224626,"midi":86,"time":132.2325581395349,"velocity":0.08661417322834646},{"duration":0.023255813953483084,"midi":45,"time":132.24418604651163,"velocity":0.3937007874015748},{"duration":0.034883720930224626,"midi":74,"time":132.24418604651163,"velocity":0.14173228346456693},{"duration":0.08139534883721922,"midi":76,"time":132.24418604651163,"velocity":0.25984251968503935},{"duration":0.023255813953483084,"midi":55,"time":132.25581395348837,"velocity":0.36220472440944884},{"duration":0.1046511627907023,"midi":68,"time":132.25581395348837,"velocity":0.1889763779527559},{"duration":0.034883720930224626,"midi":72,"time":132.25581395348837,"velocity":0.13385826771653545},{"duration":0.05813953488373613,"midi":77,"time":132.25581395348837,"velocity":0.09448818897637795},{"duration":0.04651162790699459,"midi":46,"time":132.2674418604651,"velocity":0.33070866141732286},{"duration":0.034883720930224626,"midi":62,"time":132.2674418604651,"velocity":0.18110236220472442},{"duration":0.034883720930224626,"midi":65,"time":132.2674418604651,"velocity":0.14960629921259844},{"duration":0.034883720930224626,"midi":79,"time":132.2674418604651,"velocity":0.15748031496062992},{"duration":0.023255813953511506,"midi":55,"time":132.2906976744186,"velocity":0.33858267716535434},{"duration":0.05813953488370771,"midi":34,"time":132.3139534883721,"velocity":0.33070866141732286},{"duration":0.15116279069766847,"midi":56,"time":132.3372093023256,"velocity":0.4566929133858268},{"duration":0.023255813953483084,"midi":71,"time":132.36046511627907,"velocity":0.28346456692913385},{"duration":0.06976744186044925,"midi":82,"time":132.36046511627907,"velocity":0.2677165354330709},{"duration":0.05813953488370771,"midi":86,"time":132.36046511627907,"velocity":0.2283464566929134},{"duration":0.04651162790696617,"midi":91,"time":132.36046511627907,"velocity":0.1889763779527559},{"duration":0.034883720930224626,"midi":93,"time":132.36046511627907,"velocity":0.1732283464566929},{"duration":0.04651162790696617,"midi":94,"time":132.36046511627907,"velocity":0.2677165354330709},{"duration":0.034883720930224626,"midi":96,"time":132.36046511627907,"velocity":0.08661417322834646},{"duration":0.023255813953483084,"midi":62,"time":132.37209302325581,"velocity":0.33070866141732286},{"duration":0.05813953488370771,"midi":73,"time":132.37209302325581,"velocity":0.13385826771653545},{"duration":0.04651162790696617,"midi":77,"time":132.37209302325581,"velocity":0.2125984251968504},{"duration":0.06976744186047767,"midi":79,"time":132.37209302325581,"velocity":0.2992125984251969},{"duration":0.04651162790696617,"midi":70,"time":132.38372093023256,"velocity":0.28346456692913385},{"duration":0.034883720930224626,"midi":84,"time":132.38372093023256,"velocity":0.07874015748031496},{"duration":0.06976744186047767,"midi":49,"time":132.3953488372093,"velocity":0.3543307086614173},{"duration":0.034883720930224626,"midi":80,"time":132.3953488372093,"velocity":0.10236220472440945},{"duration":0.023255813953483084,"midi":38,"time":132.40697674418604,"velocity":0.3937007874015748},{"duration":0.05813953488373613,"midi":65,"time":132.40697674418604,"velocity":0.25984251968503935},{"duration":0.06976744186047767,"midi":37,"time":132.43023255813952,"velocity":0.4015748031496063},{"duration":0.04651162790696617,"midi":70,"time":132.47674418604652,"velocity":0.13385826771653545},{"duration":0.13953488372092693,"midi":67,"time":132.48837209302326,"velocity":0.44881889763779526},{"duration":0.034883720930224626,"midi":78,"time":132.48837209302326,"velocity":0.2125984251968504},{"duration":0.05813953488370771,"midi":84,"time":132.48837209302326,"velocity":0.1889763779527559},{"duration":0.04651162790696617,"midi":85,"time":132.48837209302326,"velocity":0.14173228346456693},{"duration":0.034883720930224626,"midi":91,"time":132.48837209302326,"velocity":0.14960629921259844},{"duration":0.034883720930224626,"midi":93,"time":132.48837209302326,"velocity":0.2204724409448819},{"duration":0.034883720930224626,"midi":96,"time":132.48837209302326,"velocity":0.2992125984251969},{"duration":0.034883720930224626,"midi":102,"time":132.48837209302326,"velocity":0.1889763779527559},{"duration":0.023255813953483084,"midi":61,"time":132.5,"velocity":0.3228346456692913},{"duration":0.011627906976741542,"midi":48,"time":132.51162790697674,"velocity":0.5511811023622047},{"duration":0.04651162790696617,"midi":81,"time":132.51162790697674,"velocity":0.2047244094488189},{"duration":0.011627906976741542,"midi":45,"time":132.52325581395348,"velocity":0.6062992125984252},{"duration":0.08139534883721922,"midi":58,"time":132.52325581395348,"velocity":0.2440944881889764},{"duration":0.011627906976741542,"midi":44,"time":132.53488372093022,"velocity":0.6141732283464567},{"duration":0.011627906976741542,"midi":43,"time":132.54651162790697,"velocity":0.6062992125984252},{"duration":0.03488372093025305,"midi":63,"time":132.54651162790697,"velocity":0.1732283464566929},{"duration":0.011627906976769964,"midi":42,"time":132.5581395348837,"velocity":0.5826771653543307},{"duration":0.011627906976741542,"midi":41,"time":132.56976744186048,"velocity":0.5275590551181102},{"duration":0.023255813953483084,"midi":38,"time":132.59302325581396,"velocity":0.4251968503937008},{"duration":0.16279069767441,"midi":61,"time":132.59302325581396,"velocity":0.14960629921259844},{"duration":0.034883720930224626,"midi":36,"time":132.62790697674419,"velocity":0.30708661417322836},{"duration":0.2674418604651123,"midi":56,"time":132.62790697674419,"velocity":0.4251968503937008},{"duration":0.023255813953483084,"midi":67,"time":132.63953488372093,"velocity":0.28346456692913385},{"duration":0.08139534883721922,"midi":68,"time":132.6627906976744,"velocity":0.4330708661417323},{"duration":0.023255813953483084,"midi":67,"time":132.74418604651163,"velocity":0.4566929133858268},{"duration":0.08139534883721922,"midi":99,"time":132.74418604651163,"velocity":0.2440944881889764},{"duration":0.034883720930224626,"midi":62,"time":132.75581395348837,"velocity":0.2125984251968504},{"duration":0.06976744186047767,"midi":82,"time":132.75581395348837,"velocity":0.2283464566929134},{"duration":0.08139534883721922,"midi":83,"time":132.75581395348837,"velocity":0.16535433070866143},{"duration":0.04651162790696617,"midi":86,"time":132.75581395348837,"velocity":0.1889763779527559},{"duration":0.04651162790696617,"midi":91,"time":132.75581395348837,"velocity":0.25196850393700787},{"duration":0.1046511627907023,"midi":92,"time":132.75581395348837,"velocity":0.2440944881889764},{"duration":0.05813953488373613,"midi":94,"time":132.75581395348837,"velocity":0.2440944881889764},{"duration":0.19767441860466306,"midi":98,"time":132.75581395348837,"velocity":0.2677165354330709},{"duration":0.04651162790696617,"midi":100,"time":132.75581395348837,"velocity":0.16535433070866143},{"duration":0.09302325581396076,"midi":102,"time":132.75581395348837,"velocity":0.13385826771653545},{"duration":0.023255813953483084,"midi":48,"time":132.7674418604651,"velocity":0.36220472440944884},{"duration":0.09302325581396076,"midi":68,"time":132.7674418604651,"velocity":0.5433070866141733},{"duration":0.05813953488373613,"midi":71,"time":132.7674418604651,"velocity":0.1889763779527559},{"duration":0.06976744186047767,"midi":75,"time":132.7674418604651,"velocity":0.4094488188976378},{"duration":0.034883720930224626,"midi":77,"time":132.7674418604651,"velocity":0.15748031496062992},{"duration":0.06976744186047767,"midi":79,"time":132.7674418604651,"velocity":0.2204724409448819},{"duration":0.034883720930224626,"midi":97,"time":132.7674418604651,"velocity":0.12598425196850394},{"duration":0.08139534883721922,"midi":96,"time":132.77906976744185,"velocity":0.15748031496062992},{"duration":0.08139534883721922,"midi":49,"time":132.7906976744186,"velocity":0.30708661417322836},{"duration":0.04651162790699459,"midi":84,"time":132.7906976744186,"velocity":0.1732283464566929},{"duration":0.11627906976744384,"midi":90,"time":132.7906976744186,"velocity":0.2755905511811024},{"duration":0.06976744186044925,"midi":37,"time":132.82558139534885,"velocity":0.36220472440944884},{"duration":0.04651162790696617,"midi":76,"time":132.82558139534885,"velocity":0.16535433070866143},{"duration":0.12790697674418539,"midi":86,"time":132.84883720930233,"velocity":0.3228346456692913},{"duration":0.034883720930224626,"midi":97,"time":132.86046511627907,"velocity":0.15748031496062992},{"duration":0.13953488372092693,"midi":75,"time":132.87209302325581,"velocity":0.2204724409448819},{"duration":0.09302325581396076,"midi":77,"time":132.87209302325581,"velocity":0.3543307086614173},{"duration":0.1046511627907023,"midi":82,"time":132.87209302325581,"velocity":0.3464566929133858},{"duration":0.06976744186047767,"midi":84,"time":132.87209302325581,"velocity":0.1968503937007874},{"duration":0.05813953488370771,"midi":88,"time":132.87209302325581,"velocity":0.2440944881889764},{"duration":0.034883720930224626,"midi":99,"time":132.87209302325581,"velocity":0.18110236220472442},{"duration":0.034883720930224626,"midi":64,"time":132.88372093023256,"velocity":0.2440944881889764},{"duration":0.08139534883721922,"midi":73,"time":132.88372093023256,"velocity":0.18110236220472442},{"duration":0.04651162790696617,"midi":93,"time":132.88372093023256,"velocity":0.2047244094488189},{"duration":0.08139534883721922,"midi":96,"time":132.88372093023256,"velocity":0.2047244094488189},{"duration":0.09302325581396076,"midi":70,"time":132.8953488372093,"velocity":0.4094488188976378},{"duration":0.034883720930224626,"midi":79,"time":132.8953488372093,"velocity":0.1732283464566929},{"duration":0.05813953488373613,"midi":101,"time":132.8953488372093,"velocity":0.1968503937007874},{"duration":0.06976744186047767,"midi":51,"time":132.90697674418604,"velocity":0.33070866141732286},{"duration":0.05813953488373613,"midi":58,"time":132.90697674418604,"velocity":0.33858267716535434},{"duration":0.03488372093025305,"midi":68,"time":132.90697674418604,"velocity":0.3858267716535433},{"duration":0.05813953488373613,"midi":81,"time":132.90697674418604,"velocity":0.2677165354330709},{"duration":0.03488372093025305,"midi":85,"time":132.90697674418604,"velocity":0.1968503937007874},{"duration":0.06976744186044925,"midi":39,"time":132.9418604651163,"velocity":0.3228346456692913},{"duration":0.06976744186044925,"midi":68,"time":132.95348837209303,"velocity":0.4330708661417323},{"duration":0.06976744186044925,"midi":77,"time":132.98837209302326,"velocity":0.2283464566929134},{"duration":0.034883720930224626,"midi":62,"time":133,"velocity":0.3937007874015748},{"duration":0.05813953488370771,"midi":88,"time":133,"velocity":0.33858267716535434},{"duration":0.09302325581396076,"midi":94,"time":133,"velocity":0.2047244094488189},{"duration":0.17441860465115155,"midi":102,"time":133,"velocity":0.3228346456692913},{"duration":0.05813953488373613,"midi":73,"time":133.01162790697674,"velocity":0.4409448818897638},{"duration":0.034883720930224626,"midi":84,"time":133.01162790697674,"velocity":0.1889763779527559},{"duration":0.06976744186047767,"midi":90,"time":133.01162790697674,"velocity":0.25984251968503935},{"duration":0.05813953488373613,"midi":95,"time":133.01162790697674,"velocity":0.25196850393700787},{"duration":0.034883720930224626,"midi":98,"time":133.01162790697674,"velocity":0.14173228346456693},{"duration":0.06976744186047767,"midi":99,"time":133.01162790697674,"velocity":0.18110236220472442},{"duration":0.034883720930224626,"midi":87,"time":133.02325581395348,"velocity":0.1732283464566929},{"duration":0.06976744186047767,"midi":101,"time":133.02325581395348,"velocity":0.1968503937007874},{"duration":0.034883720930224626,"midi":103,"time":133.02325581395348,"velocity":0.25984251968503935},{"duration":0.023255813953483084,"midi":60,"time":133.03488372093022,"velocity":0.33070866141732286},{"duration":0.05813953488373613,"midi":68,"time":133.03488372093022,"velocity":0.3543307086614173},{"duration":0.03488372093025305,"midi":81,"time":133.03488372093022,"velocity":0.13385826771653545},{"duration":0.09302325581396076,"midi":89,"time":133.03488372093022,"velocity":0.25196850393700787},{"duration":0.06976744186047767,"midi":91,"time":133.03488372093022,"velocity":0.15748031496062992},{"duration":0.023255813953511506,"midi":45,"time":133.04651162790697,"velocity":0.6062992125984252},{"duration":0.03488372093025305,"midi":83,"time":133.04651162790697,"velocity":0.11023622047244094},{"duration":0.04651162790699459,"midi":84,"time":133.0581395348837,"velocity":0.31496062992125984},{"duration":0.011627906976741542,"midi":44,"time":133.06976744186048,"velocity":0.5826771653543307},{"duration":0.04651162790696617,"midi":72,"time":133.06976744186048,"velocity":0.3937007874015748},{"duration":0.11627906976741542,"midi":82,"time":133.06976744186048,"velocity":0.14173228346456693},{"duration":0.11627906976741542,"midi":103,"time":133.06976744186048,"velocity":0.28346456692913385},{"duration":0.023255813953483084,"midi":42,"time":133.08139534883722,"velocity":0.5590551181102362},{"duration":0.04651162790696617,"midi":59,"time":133.09302325581396,"velocity":0.3543307086614173},{"duration":0.023255813953483084,"midi":70,"time":133.09302325581396,"velocity":0.2677165354330709},{"duration":0.034883720930224626,"midi":85,"time":133.09302325581396,"velocity":0.11023622047244094},{"duration":0.05813953488370771,"midi":88,"time":133.09302325581396,"velocity":0.1732283464566929},{"duration":0.06976744186044925,"midi":68,"time":133.1046511627907,"velocity":0.4015748031496063},{"duration":0.05813953488370771,"midi":77,"time":133.1046511627907,"velocity":0.14960629921259844},{"duration":0.09302325581396076,"midi":98,"time":133.1046511627907,"velocity":0.2047244094488189},{"duration":0.023255813953483084,"midi":53,"time":133.11627906976744,"velocity":0.2283464566929134},{"duration":0.04651162790696617,"midi":86,"time":133.11627906976744,"velocity":0.1968503937007874},{"duration":0.09302325581396076,"midi":96,"time":133.11627906976744,"velocity":0.14960629921259844},{"duration":0.023255813953483084,"midi":37,"time":133.12790697674419,"velocity":0.3937007874015748},{"duration":0.034883720930224626,"midi":90,"time":133.12790697674419,"velocity":0.2755905511811024},{"duration":0.08139534883721922,"midi":101,"time":133.12790697674419,"velocity":0.2047244094488189},{"duration":0.05813953488373613,"midi":58,"time":133.13953488372093,"velocity":0.4015748031496063},{"duration":0.05813953488373613,"midi":89,"time":133.13953488372093,"velocity":0.33070866141732286},{"duration":0.023255813953483084,"midi":36,"time":133.15116279069767,"velocity":0.30708661417322836},{"duration":0.05813953488373613,"midi":84,"time":133.15116279069767,"velocity":0.2204724409448819},{"duration":0.04651162790699459,"midi":87,"time":133.15116279069767,"velocity":0.2125984251968504},{"duration":0.04651162790699459,"midi":92,"time":133.15116279069767,"velocity":0.14173228346456693},{"duration":0.05813953488373613,"midi":95,"time":133.15116279069767,"velocity":0.2125984251968504},{"duration":0.023255813953483084,"midi":53,"time":133.1627906976744,"velocity":0.25984251968503935},{"duration":0.04651162790699459,"midi":66,"time":133.1627906976744,"velocity":0.30708661417322836},{"duration":0.05813953488373613,"midi":76,"time":133.1627906976744,"velocity":0.16535433070866143},{"duration":0.03488372093025305,"midi":91,"time":133.1627906976744,"velocity":0.14960629921259844},{"duration":0.1046511627907023,"midi":61,"time":133.17441860465115,"velocity":0.2992125984251969},{"duration":0.03488372093025305,"midi":80,"time":133.17441860465115,"velocity":0.10236220472440945},{"duration":0.08139534883721922,"midi":73,"time":133.1860465116279,"velocity":0.2992125984251969},{"duration":0.023255813953483084,"midi":42,"time":133.19767441860466,"velocity":0.31496062992125984},{"duration":0.034883720930224626,"midi":55,"time":133.19767441860466,"velocity":0.31496062992125984},{"duration":0.06976744186044925,"midi":68,"time":133.19767441860466,"velocity":0.36220472440944884},{"duration":0.034883720930224626,"midi":103,"time":133.19767441860466,"velocity":0.14173228346456693},{"duration":0.034883720930224626,"midi":54,"time":133.2325581395349,"velocity":0.23622047244094488},{"duration":0.09302325581396076,"midi":102,"time":133.2325581395349,"velocity":0.2677165354330709},{"duration":0.08139534883721922,"midi":88,"time":133.24418604651163,"velocity":0.14960629921259844},{"duration":0.05813953488373613,"midi":72,"time":133.2674418604651,"velocity":0.30708661417322836},{"duration":0.05813953488373613,"midi":95,"time":133.2674418604651,"velocity":0.2755905511811024},{"duration":0.06976744186047767,"midi":100,"time":133.2674418604651,"velocity":0.30708661417322836},{"duration":0.023255813953483084,"midi":51,"time":133.27906976744185,"velocity":0.29133858267716534},{"duration":0.023255813953483084,"midi":60,"time":133.27906976744185,"velocity":0.28346456692913385},{"duration":0.12790697674418539,"midi":87,"time":133.27906976744185,"velocity":0.16535433070866143},{"duration":0.03488372093025305,"midi":92,"time":133.27906976744185,"velocity":0.2047244094488189},{"duration":0.40697674418603924,"midi":96,"time":133.27906976744185,"velocity":0.3543307086614173},{"duration":0.04651162790699459,"midi":98,"time":133.27906976744185,"velocity":0.2440944881889764},{"duration":0.3604651162790731,"midi":99,"time":133.27906976744185,"velocity":0.3543307086614173},{"duration":0.22093023255814614,"midi":101,"time":133.27906976744185,"velocity":0.3228346456692913},{"duration":0.04651162790699459,"midi":65,"time":133.2906976744186,"velocity":0.49606299212598426},{"duration":0.06976744186047767,"midi":75,"time":133.2906976744186,"velocity":0.16535433070866143},{"duration":0.03488372093025305,"midi":81,"time":133.2906976744186,"velocity":0.11023622047244094},{"duration":0.05813953488373613,"midi":83,"time":133.2906976744186,"velocity":0.18110236220472442},{"duration":0.03488372093025305,"midi":86,"time":133.2906976744186,"velocity":0.15748031496062992},{"duration":0.03488372093025305,"midi":90,"time":133.2906976744186,"velocity":0.14173228346456693},{"duration":0.33720930232559,"midi":93,"time":133.2906976744186,"velocity":0.5433070866141733},{"duration":0.023255813953511506,"midi":52,"time":133.30232558139534,"velocity":0.3228346456692913},{"duration":0.023255813953511506,"midi":61,"time":133.30232558139534,"velocity":0.2677165354330709},{"duration":0.19767441860463464,"midi":89,"time":133.3139534883721,"velocity":0.3700787401574803},{"duration":0.06976744186044925,"midi":94,"time":133.3139534883721,"velocity":0.12598425196850394},{"duration":0.0813953488371908,"midi":103,"time":133.3139534883721,"velocity":0.13385826771653545},{"duration":0.0813953488371908,"midi":41,"time":133.32558139534885,"velocity":0.2992125984251969},{"duration":0.023255813953483084,"midi":60,"time":133.32558139534885,"velocity":0.2755905511811024},{"duration":0.13953488372092693,"midi":68,"time":133.3372093023256,"velocity":0.4094488188976378},{"duration":0.034883720930224626,"midi":70,"time":133.3372093023256,"velocity":0.28346456692913385},{"duration":0.023255813953483084,"midi":60,"time":133.36046511627907,"velocity":0.28346456692913385},{"duration":0.13953488372092693,"midi":65,"time":133.38372093023256,"velocity":0.41732283464566927},{"duration":0.16279069767441,"midi":84,"time":133.38372093023256,"velocity":0.2047244094488189},{"duration":0.05813953488370771,"midi":103,"time":133.46511627906978,"velocity":0.15748031496062992},{"duration":0.034883720930224626,"midi":69,"time":133.47674418604652,"velocity":0.30708661417322836},{"duration":0.034883720930224626,"midi":98,"time":133.47674418604652,"velocity":0.10236220472440945},{"duration":0.06976744186044925,"midi":87,"time":133.48837209302326,"velocity":0.15748031496062992},{"duration":0.034883720930224626,"midi":68,"time":133.51162790697674,"velocity":0.3779527559055118},{"duration":0.023255813953483084,"midi":67,"time":133.53488372093022,"velocity":0.3858267716535433},{"duration":0.03488372093025305,"midi":62,"time":133.54651162790697,"velocity":0.33070866141732286},{"duration":0.06976744186047767,"midi":82,"time":133.54651162790697,"velocity":0.1889763779527559},{"duration":0.04651162790699459,"midi":91,"time":133.54651162790697,"velocity":0.1889763779527559},{"duration":0.09302325581396076,"midi":98,"time":133.54651162790697,"velocity":0.23622047244094488},{"duration":0.04651162790699459,"midi":100,"time":133.54651162790697,"velocity":0.18110236220472442},{"duration":0.08139534883721922,"midi":102,"time":133.54651162790697,"velocity":0.2204724409448819},{"duration":0.04651162790699459,"midi":55,"time":133.5581395348837,"velocity":0.3779527559055118},{"duration":0.17441860465117998,"midi":68,"time":133.5581395348837,"velocity":0.4566929133858268},{"duration":0.03488372093025305,"midi":71,"time":133.5581395348837,"velocity":0.2125984251968504},{"duration":0.04651162790699459,"midi":73,"time":133.5581395348837,"velocity":0.09448818897637795},{"duration":0.08139534883721922,"midi":75,"time":133.5581395348837,"velocity":0.3858267716535433},{"duration":0.05813953488373613,"midi":79,"time":133.5581395348837,"velocity":0.2755905511811024},{"duration":0.03488372093025305,"midi":86,"time":133.5581395348837,"velocity":0.16535433070866143},{"duration":0.03488372093025305,"midi":97,"time":133.5581395348837,"velocity":0.2125984251968504},{"duration":0.011627906976741542,"midi":47,"time":133.56976744186048,"velocity":0.5511811023622047},{"duration":0.09302325581393234,"midi":90,"time":133.56976744186048,"velocity":0.23622047244094488},{"duration":0.05813953488370771,"midi":92,"time":133.56976744186048,"velocity":0.23622047244094488},{"duration":0.011627906976741542,"midi":45,"time":133.58139534883722,"velocity":0.5984251968503937},{"duration":0.09302325581393234,"midi":61,"time":133.58139534883722,"velocity":0.28346456692913385},{"duration":0.05813953488370771,"midi":65,"time":133.58139534883722,"velocity":0.2204724409448819},{"duration":0.04651162790696617,"midi":84,"time":133.58139534883722,"velocity":0.11811023622047244},{"duration":0.011627906976741542,"midi":44,"time":133.59302325581396,"velocity":0.6062992125984252},{"duration":0.04651162790696617,"midi":95,"time":133.59302325581396,"velocity":0.08661417322834646},{"duration":0.011627906976741542,"midi":42,"time":133.6046511627907,"velocity":0.6062992125984252},{"duration":0.023255813953483084,"midi":56,"time":133.6046511627907,"velocity":0.33070866141732286},{"duration":0.0813953488371908,"midi":88,"time":133.6046511627907,"velocity":0.1968503937007874},{"duration":0.1046511627907023,"midi":101,"time":133.6046511627907,"velocity":0.1968503937007874},{"duration":0.034883720930224626,"midi":41,"time":133.61627906976744,"velocity":0.5511811023622047},{"duration":0.023255813953483084,"midi":57,"time":133.62790697674419,"velocity":0.30708661417322836},{"duration":0.05813953488373613,"midi":49,"time":133.63953488372093,"velocity":0.2755905511811024},{"duration":0.09302325581396076,"midi":98,"time":133.65116279069767,"velocity":0.2992125984251969},{"duration":0.023255813953483084,"midi":71,"time":133.6627906976744,"velocity":0.2440944881889764},{"duration":0.03488372093025305,"midi":75,"time":133.6627906976744,"velocity":0.11023622047244094},{"duration":0.11627906976744384,"midi":86,"time":133.6627906976744,"velocity":0.31496062992125984},{"duration":0.18604651162792152,"midi":93,"time":133.6627906976744,"velocity":0.2125984251968504},{"duration":0.03488372093025305,"midi":82,"time":133.67441860465115,"velocity":0.3464566929133858},{"duration":0.1046511627907023,"midi":70,"time":133.6860465116279,"velocity":0.4251968503937008},{"duration":0.04651162790699459,"midi":100,"time":133.6860465116279,"velocity":0.08661417322834646},{"duration":0.034883720930224626,"midi":90,"time":133.7093023255814,"velocity":0.2283464566929134},{"duration":0.023255813953483084,"midi":58,"time":133.72093023255815,"velocity":0.29133858267716534},{"duration":0.09302325581396076,"midi":68,"time":133.75581395348837,"velocity":0.41732283464566927},{"duration":0.12790697674418539,"midi":88,"time":133.75581395348837,"velocity":0.36220472440944884},{"duration":0.04651162790699459,"midi":56,"time":133.7674418604651,"velocity":0.31496062992125984},{"duration":0.06976744186047767,"midi":61,"time":133.7674418604651,"velocity":0.33070866141732286},{"duration":0.03488372093025305,"midi":75,"time":133.77906976744185,"velocity":0.15748031496062992},{"duration":0.08139534883721922,"midi":98,"time":133.77906976744185,"velocity":0.1732283464566929},{"duration":0.08139534883721922,"midi":94,"time":133.7906976744186,"velocity":0.15748031496062992},{"duration":0.05813953488373613,"midi":73,"time":133.80232558139534,"velocity":0.4409448818897638},{"duration":0.03488372093025305,"midi":79,"time":133.80232558139534,"velocity":0.28346456692913385},{"duration":0.11627906976744384,"midi":84,"time":133.80232558139534,"velocity":0.33858267716535434},{"duration":0.03488372093025305,"midi":90,"time":133.80232558139534,"velocity":0.11811023622047244},{"duration":0.08139534883721922,"midi":99,"time":133.80232558139534,"velocity":0.29133858267716534},{"duration":0.19767441860466306,"midi":102,"time":133.80232558139534,"velocity":0.33070866141732286},{"duration":0.17441860465115155,"midi":77,"time":133.8139534883721,"velocity":0.15748031496062992},{"duration":0.034883720930224626,"midi":92,"time":133.8139534883721,"velocity":0.1732283464566929},{"duration":0.06976744186044925,"midi":75,"time":133.82558139534885,"velocity":0.13385826771653545},{"duration":0.05813953488370771,"midi":81,"time":133.82558139534885,"velocity":0.28346456692913385},{"duration":0.06976744186044925,"midi":86,"time":133.82558139534885,"velocity":0.15748031496062992},{"duration":0.17441860465115155,"midi":101,"time":133.82558139534885,"velocity":0.29133858267716534},{"duration":0.04651162790696617,"midi":60,"time":133.8372093023256,"velocity":0.4251968503937008},{"duration":0.17441860465115155,"midi":82,"time":133.8372093023256,"velocity":0.2204724409448819},{"duration":0.023255813953483084,"midi":67,"time":133.84883720930233,"velocity":0.25984251968503935},{"duration":0.023255813953483084,"midi":52,"time":133.86046511627907,"velocity":0.3779527559055118},{"duration":0.04651162790696617,"midi":72,"time":133.86046511627907,"velocity":0.4330708661417323},{"duration":0.04651162790696617,"midi":103,"time":133.86046511627907,"velocity":0.14960629921259844},{"duration":0.023255813953483084,"midi":39,"time":133.87209302325581,"velocity":0.36220472440944884},{"duration":0.04651162790696617,"midi":63,"time":133.87209302325581,"velocity":0.2755905511811024},{"duration":0.05813953488373613,"midi":59,"time":133.88372093023256,"velocity":0.4094488188976378},{"duration":0.034883720930224626,"midi":40,"time":133.8953488372093,"velocity":0.28346456692913385},{"duration":0.023255813953483084,"midi":70,"time":133.8953488372093,"velocity":0.30708661417322836},{"duration":0.04651162790699459,"midi":67,"time":133.90697674418604,"velocity":0.2755905511811024},{"duration":0.05813953488373613,"midi":86,"time":133.90697674418604,"velocity":0.2125984251968504},{"duration":0.09302325581396076,"midi":98,"time":133.90697674418604,"velocity":0.25984251968503935},{"duration":0.023255813953511506,"midi":52,"time":133.91860465116278,"velocity":0.29133858267716534},{"duration":0.03488372093025305,"midi":90,"time":133.91860465116278,"velocity":0.30708661417322836},{"duration":0.1046511627907023,"midi":103,"time":133.93023255813952,"velocity":0.15748031496062992},{"duration":0.034883720930224626,"midi":58,"time":133.9418604651163,"velocity":0.3700787401574803},{"duration":0.06976744186044925,"midi":65,"time":133.9418604651163,"velocity":0.2125984251968504},{"duration":0.023255813953483084,"midi":70,"time":133.9418604651163,"velocity":0.3858267716535433},{"duration":0.04651162790696617,"midi":73,"time":133.9418604651163,"velocity":0.29133858267716534},{"duration":0.06976744186044925,"midi":87,"time":133.9418604651163,"velocity":0.11023622047244094},{"duration":0.05813953488370771,"midi":93,"time":133.9418604651163,"velocity":0.13385826771653545},{"duration":0.04651162790696617,"midi":99,"time":133.9418604651163,"velocity":0.1732283464566929},{"duration":0.023255813953483084,"midi":68,"time":133.95348837209303,"velocity":0.4251968503937008},{"duration":0.04651162790696617,"midi":89,"time":133.95348837209303,"velocity":0.30708661417322836},{"duration":0.034883720930224626,"midi":92,"time":133.95348837209303,"velocity":0.2047244094488189},{"duration":0.05813953488370771,"midi":95,"time":133.95348837209303,"velocity":0.2204724409448819},{"duration":0.034883720930224626,"midi":68,"time":133.98837209302326,"velocity":0.4015748031496063},{"duration":0.023255813953483084,"midi":70,"time":133.98837209302326,"velocity":0.25984251968503935},{"duration":0.023255813953483084,"midi":72,"time":133.98837209302326,"velocity":0.25984251968503935},{"duration":0.05813953488373613,"midi":73,"time":134.01162790697674,"velocity":0.2992125984251969},{"duration":0.03488372093025305,"midi":53,"time":134.03488372093022,"velocity":0.11811023622047244},{"duration":0.06976744186047767,"midi":80,"time":134.03488372093022,"velocity":0.2204724409448819},{"duration":0.11627906976744384,"midi":102,"time":134.03488372093022,"velocity":0.3464566929133858},{"duration":0.023255813953511506,"midi":67,"time":134.04651162790697,"velocity":0.3937007874015748},{"duration":0.04651162790699459,"midi":84,"time":134.0581395348837,"velocity":0.14960629921259844},{"duration":0.06976744186047767,"midi":95,"time":134.0581395348837,"velocity":0.25196850393700787},{"duration":0.03488372093025305,"midi":100,"time":134.0581395348837,"velocity":0.23622047244094488},{"duration":0.023255813953483084,"midi":64,"time":134.06976744186048,"velocity":0.3779527559055118},{"duration":0.034883720930224626,"midi":68,"time":134.06976744186048,"velocity":0.49606299212598426},{"duration":0.04651162790696617,"midi":72,"time":134.06976744186048,"velocity":0.25196850393700787},{"duration":0.12790697674418539,"midi":88,"time":134.06976744186048,"velocity":0.2204724409448819},{"duration":0.36046511627904465,"midi":93,"time":134.06976744186048,"velocity":0.5118110236220472},{"duration":0.04651162790696617,"midi":98,"time":134.06976744186048,"velocity":0.14960629921259844},{"duration":0.23255813953485927,"midi":99,"time":134.06976744186048,"velocity":0.3543307086614173},{"duration":0.24418604651162923,"midi":101,"time":134.06976744186048,"velocity":0.33858267716535434},{"duration":0.023255813953483084,"midi":60,"time":134.08139534883722,"velocity":0.3858267716535433},{"duration":0.10465116279067388,"midi":82,"time":134.08139534883722,"velocity":0.15748031496062992},{"duration":0.10465116279067388,"midi":87,"time":134.08139534883722,"velocity":0.1968503937007874},{"duration":0.12790697674418539,"midi":89,"time":134.08139534883722,"velocity":0.29133858267716534},{"duration":0.06976744186044925,"midi":90,"time":134.08139534883722,"velocity":0.2440944881889764},{"duration":0.05813953488370771,"midi":94,"time":134.08139534883722,"velocity":0.1889763779527559},{"duration":0.3139534883720785,"midi":96,"time":134.08139534883722,"velocity":0.33070866141732286},{"duration":0.04651162790696617,"midi":97,"time":134.08139534883722,"velocity":0.2125984251968504},{"duration":0.05813953488370771,"midi":103,"time":134.08139534883722,"velocity":0.2125984251968504},{"duration":0.06976744186044925,"midi":65,"time":134.09302325581396,"velocity":0.4251968503937008},{"duration":0.011627906976741542,"midi":45,"time":134.1046511627907,"velocity":0.5433070866141733},{"duration":0.034883720930224626,"midi":86,"time":134.1046511627907,"velocity":0.09448818897637795},{"duration":0.023255813953483084,"midi":44,"time":134.11627906976744,"velocity":0.5984251968503937},{"duration":0.11627906976744384,"midi":68,"time":134.11627906976744,"velocity":0.33858267716535434},{"duration":0.06976744186044925,"midi":73,"time":134.11627906976744,"velocity":0.10236220472440945},{"duration":0.023255813953483084,"midi":42,"time":134.13953488372093,"velocity":0.5511811023622047},{"duration":0.04651162790696617,"midi":70,"time":134.13953488372093,"velocity":0.2047244094488189},{"duration":0.034883720930224626,"midi":85,"time":134.13953488372093,"velocity":0.11023622047244094},{"duration":0.04651162790699459,"midi":103,"time":134.15116279069767,"velocity":0.2047244094488189},{"duration":0.023255813953483084,"midi":52,"time":134.1627906976744,"velocity":0.2755905511811024},{"duration":0.023255813953511506,"midi":53,"time":134.17441860465115,"velocity":0.23622047244094488},{"duration":0.16279069767443843,"midi":84,"time":134.17441860465115,"velocity":0.1889763779527559},{"duration":0.023255813953511506,"midi":37,"time":134.1860465116279,"velocity":0.3779527559055118},{"duration":0.11627906976744384,"midi":65,"time":134.1860465116279,"velocity":0.4409448818897638},{"duration":0.034883720930224626,"midi":36,"time":134.2093023255814,"velocity":0.2992125984251969},{"duration":0.13953488372092693,"midi":70,"time":134.2093023255814,"velocity":0.2755905511811024},{"duration":0.05813953488370771,"midi":74,"time":134.22093023255815,"velocity":0.1968503937007874},{"duration":0.06976744186044925,"midi":89,"time":134.2325581395349,"velocity":0.3700787401574803},{"duration":0.04651162790696617,"midi":68,"time":134.24418604651163,"velocity":0.3858267716535433},{"duration":0.05813953488373613,"midi":87,"time":134.25581395348837,"velocity":0.13385826771653545},{"duration":0.023255813953483084,"midi":66,"time":134.3139534883721,"velocity":0.3700787401574803},{"duration":0.034883720930224626,"midi":101,"time":134.32558139534885,"velocity":0.12598425196850394},{"duration":0.023255813953483084,"midi":59,"time":134.3372093023256,"velocity":0.25984251968503935},{"duration":0.16279069767441,"midi":65,"time":134.3372093023256,"velocity":0.4409448818897638},{"duration":0.023255813953483084,"midi":74,"time":134.3372093023256,"velocity":0.2440944881889764},{"duration":0.04651162790696617,"midi":83,"time":134.3372093023256,"velocity":0.2283464566929134},{"duration":0.06976744186044925,"midi":89,"time":134.3372093023256,"velocity":0.1889763779527559},{"duration":0.05813953488370771,"midi":92,"time":134.3372093023256,"velocity":0.09448818897637795},{"duration":0.034883720930224626,"midi":71,"time":134.34883720930233,"velocity":0.2755905511811024},{"duration":0.04651162790696617,"midi":78,"time":134.34883720930233,"velocity":0.23622047244094488},{"duration":0.04651162790696617,"midi":80,"time":134.34883720930233,"velocity":0.18110236220472442},{"duration":0.04651162790696617,"midi":87,"time":134.34883720930233,"velocity":0.12598425196850394},{"duration":0.023255813953483084,"midi":73,"time":134.36046511627907,"velocity":0.25984251968503935},{"duration":0.034883720930224626,"midi":86,"time":134.36046511627907,"velocity":0.13385826771653545},{"duration":0.023255813953483084,"midi":40,"time":134.38372093023256,"velocity":0.3700787401574803},{"duration":0.08139534883721922,"midi":48,"time":134.38372093023256,"velocity":0.2992125984251969},{"duration":0.023255813953483084,"midi":70,"time":134.38372093023256,"velocity":0.25196850393700787},{"duration":0.04651162790696617,"midi":84,"time":134.38372093023256,"velocity":0.11811023622047244},{"duration":0.023255813953483084,"midi":57,"time":134.3953488372093,"velocity":0.23622047244094488},{"duration":0.04651162790699459,"midi":99,"time":134.40697674418604,"velocity":0.16535433070866143},{"duration":0.023255813953511506,"midi":67,"time":134.41860465116278,"velocity":0.25196850393700787},{"duration":0.05813953488373613,"midi":41,"time":134.43023255813952,"velocity":0.30708661417322836},{"duration":0.04651162790699459,"midi":70,"time":134.43023255813952,"velocity":0.1889763779527559},{"duration":0.034883720930224626,"midi":58,"time":134.4418604651163,"velocity":0.2440944881889764},{"duration":0.034883720930224626,"midi":61,"time":134.4418604651163,"velocity":0.23622047244094488},{"duration":0.06976744186044925,"midi":101,"time":134.4418604651163,"velocity":0.11023622047244094},{"duration":0.23255813953485927,"midi":93,"time":134.45348837209303,"velocity":0.2125984251968504},{"duration":0.1046511627907023,"midi":74,"time":134.46511627906978,"velocity":0.33858267716535434},{"duration":0.023255813953483084,"midi":62,"time":134.47674418604652,"velocity":0.2992125984251969},{"duration":0.023255813953483084,"midi":71,"time":134.47674418604652,"velocity":0.29133858267716534},{"duration":0.06976744186044925,"midi":81,"time":134.47674418604652,"velocity":0.18110236220472442},{"duration":0.034883720930224626,"midi":99,"time":134.47674418604652,"velocity":0.10236220472440945},{"duration":0.06976744186047767,"midi":70,"time":134.5,"velocity":0.33070866141732286},{"duration":0.06976744186047767,"midi":44,"time":134.51162790697674,"velocity":0.36220472440944884},{"duration":0.023255813953483084,"midi":51,"time":134.51162790697674,"velocity":0.33858267716535434},{"duration":0.034883720930224626,"midi":68,"time":134.51162790697674,"velocity":0.23622047244094488},{"duration":0.034883720930224626,"midi":64,"time":134.52325581395348,"velocity":0.33858267716535434},{"duration":0.034883720930224626,"midi":77,"time":134.52325581395348,"velocity":0.2204724409448819},{"duration":0.03488372093025305,"midi":78,"time":134.53488372093022,"velocity":0.08661417322834646},{"duration":0.06976744186047767,"midi":32,"time":134.54651162790697,"velocity":0.3464566929133858},{"duration":0.023255813953511506,"midi":51,"time":134.54651162790697,"velocity":0.31496062992125984},{"duration":0.03488372093025305,"midi":63,"time":134.5581395348837,"velocity":0.3228346456692913},{"duration":0.06976744186047767,"midi":87,"time":134.5581395348837,"velocity":0.1968503937007874},{"duration":0.034883720930224626,"midi":52,"time":134.56976744186048,"velocity":0.33858267716535434},{"duration":0.0813953488371908,"midi":68,"time":134.56976744186048,"velocity":0.23622047244094488},{"duration":0.023255813953483084,"midi":62,"time":134.59302325581396,"velocity":0.30708661417322836},{"duration":0.06976744186044925,"midi":65,"time":134.59302325581396,"velocity":0.36220472440944884},{"duration":0.04651162790696617,"midi":78,"time":134.6046511627907,"velocity":0.25196850393700787},{"duration":0.16279069767441,"midi":80,"time":134.6046511627907,"velocity":0.3228346456692913},{"duration":0.05813953488370771,"midi":83,"time":134.6046511627907,"velocity":0.13385826771653545},{"duration":0.04651162790696617,"midi":89,"time":134.6046511627907,"velocity":0.07874015748031496},{"duration":0.034883720930224626,"midi":91,"time":134.6046511627907,"velocity":0.14173228346456693},{"duration":0.034883720930224626,"midi":95,"time":134.6046511627907,"velocity":0.23622047244094488},{"duration":0.034883720930224626,"midi":96,"time":134.6046511627907,"velocity":0.13385826771653545},{"duration":0.023255813953483084,"midi":48,"time":134.61627906976744,"velocity":0.5669291338582677},{"duration":0.11627906976744384,"midi":58,"time":134.61627906976744,"velocity":0.3228346456692913},{"duration":0.06976744186044925,"midi":76,"time":134.61627906976744,"velocity":0.25984251968503935},{"duration":0.011627906976741542,"midi":45,"time":134.63953488372093,"velocity":0.6377952755905512},{"duration":0.04651162790696617,"midi":72,"time":134.63953488372093,"velocity":0.3779527559055118},{"duration":0.011627906976741542,"midi":44,"time":134.65116279069767,"velocity":0.6299212598425197},{"duration":0.18604651162792152,"midi":101,"time":134.65116279069767,"velocity":0.16535433070866143},{"duration":0.023255813953483084,"midi":42,"time":134.6627906976744,"velocity":0.5905511811023622},{"duration":0.22093023255814614,"midi":99,"time":134.6627906976744,"velocity":0.2755905511811024},{"duration":0.04651162790699459,"midi":103,"time":134.6627906976744,"velocity":0.14960629921259844},{"duration":0.06976744186047767,"midi":53,"time":134.67441860465115,"velocity":0.2440944881889764},{"duration":0.03488372093025305,"midi":65,"time":134.67441860465115,"velocity":0.33858267716535434},{"duration":0.023255813953511506,"midi":68,"time":134.67441860465115,"velocity":0.25984251968503935},{"duration":0.09302325581396076,"midi":102,"time":134.67441860465115,"velocity":0.13385826771653545},{"duration":0.04651162790699459,"midi":73,"time":134.6860465116279,"velocity":0.3858267716535433},{"duration":0.023255813953483084,"midi":67,"time":134.69767441860466,"velocity":0.36220472440944884},{"duration":0.0813953488371908,"midi":93,"time":134.69767441860466,"velocity":0.29133858267716534},{"duration":0.06976744186044925,"midi":97,"time":134.69767441860466,"velocity":0.11023622047244094},{"duration":0.06976744186044925,"midi":98,"time":134.7093023255814,"velocity":0.14173228346456693},{"duration":0.023255813953483084,"midi":36,"time":134.72093023255815,"velocity":0.3858267716535433},{"duration":0.12790697674418539,"midi":68,"time":134.72093023255815,"velocity":0.3937007874015748},{"duration":0.034883720930224626,"midi":74,"time":134.72093023255815,"velocity":0.2677165354330709},{"duration":0.04651162790696617,"midi":79,"time":134.7325581395349,"velocity":0.25984251968503935},{"duration":0.034883720930224626,"midi":83,"time":134.7325581395349,"velocity":0.1732283464566929},{"duration":0.04651162790696617,"midi":85,"time":134.7325581395349,"velocity":0.2125984251968504},{"duration":0.15116279069766847,"midi":96,"time":134.7325581395349,"velocity":0.3228346456692913},{"duration":0.04651162790696617,"midi":100,"time":134.7325581395349,"velocity":0.13385826771653545},{"duration":0.12790697674418539,"midi":73,"time":134.74418604651163,"velocity":0.4015748031496063},{"duration":0.034883720930224626,"midi":87,"time":134.74418604651163,"velocity":0.07874015748031496},{"duration":0.034883720930224626,"midi":88,"time":134.74418604651163,"velocity":0.10236220472440945},{"duration":0.034883720930224626,"midi":70,"time":134.75581395348837,"velocity":0.3228346456692913},{"duration":0.034883720930224626,"midi":103,"time":134.75581395348837,"velocity":0.07874015748031496},{"duration":0.06976744186047767,"midi":65,"time":134.77906976744185,"velocity":0.31496062992125984},{"duration":0.03488372093025305,"midi":98,"time":134.80232558139534,"velocity":0.09448818897637795},{"duration":0.023255813953483084,"midi":55,"time":134.8139534883721,"velocity":0.29133858267716534},{"duration":0.09302325581393234,"midi":82,"time":134.8139534883721,"velocity":0.12598425196850394},{"duration":0.05813953488370771,"midi":70,"time":134.8372093023256,"velocity":0.31496062992125984},{"duration":0.06976744186044925,"midi":84,"time":134.86046511627907,"velocity":0.13385826771653545},{"duration":0.034883720930224626,"midi":88,"time":134.86046511627907,"velocity":0.15748031496062992},{"duration":0.09302325581396076,"midi":93,"time":134.86046511627907,"velocity":0.15748031496062992},{"duration":0.034883720930224626,"midi":57,"time":134.87209302325581,"velocity":0.29133858267716534},{"duration":0.05813953488370771,"midi":74,"time":134.87209302325581,"velocity":0.29133858267716534},{"duration":0.04651162790696617,"midi":89,"time":134.87209302325581,"velocity":0.2440944881889764},{"duration":0.034883720930224626,"midi":98,"time":134.87209302325581,"velocity":0.07874015748031496},{"duration":0.04651162790696617,"midi":51,"time":134.88372093023256,"velocity":0.29133858267716534},{"duration":0.04651162790696617,"midi":66,"time":134.88372093023256,"velocity":0.2992125984251969},{"duration":0.023255813953483084,"midi":76,"time":134.88372093023256,"velocity":0.25984251968503935},{"duration":0.04651162790696617,"midi":79,"time":134.88372093023256,"velocity":0.14960629921259844},{"duration":0.04651162790696617,"midi":81,"time":134.88372093023256,"velocity":0.16535433070866143},{"duration":0.1046511627907023,"midi":44,"time":134.8953488372093,"velocity":0.3700787401574803},{"duration":0.05813953488373613,"midi":60,"time":134.8953488372093,"velocity":0.33858267716535434},{"duration":0.034883720930224626,"midi":64,"time":134.8953488372093,"velocity":0.1732283464566929},{"duration":0.06976744186047767,"midi":68,"time":134.8953488372093,"velocity":0.2047244094488189},{"duration":0.034883720930224626,"midi":100,"time":134.8953488372093,"velocity":0.10236220472440945},{"duration":0.05813953488373613,"midi":77,"time":134.90697674418604,"velocity":0.1889763779527559},{"duration":0.06976744186047767,"midi":65,"time":134.93023255813952,"velocity":0.1732283464566929},{"duration":0.023255813953483084,"midi":51,"time":134.9418604651163,"velocity":0.2677165354330709},{"duration":0.0813953488371908,"midi":94,"time":134.9418604651163,"velocity":0.11023622047244094},{"duration":0.023255813953483084,"midi":33,"time":134.95348837209303,"velocity":0.31496062992125984},{"duration":0.05813953488370771,"midi":32,"time":134.97674418604652,"velocity":0.31496062992125984},{"duration":0.04651162790696617,"midi":68,"time":134.98837209302326,"velocity":0.2283464566929134},{"duration":0.034883720930224626,"midi":96,"time":134.98837209302326,"velocity":0.09448818897637795},{"duration":0.05813953488370771,"midi":74,"time":135,"velocity":0.2204724409448819},{"duration":0.06976744186047767,"midi":83,"time":135,"velocity":0.18110236220472442},{"duration":0.04651162790696617,"midi":88,"time":135,"velocity":0.1968503937007874},{"duration":0.034883720930224626,"midi":89,"time":135,"velocity":0.13385826771653545},{"duration":0.034883720930224626,"midi":91,"time":135,"velocity":0.1968503937007874},{"duration":0.034883720930224626,"midi":46,"time":135.01162790697674,"velocity":0.3464566929133858},{"duration":0.1046511627907023,"midi":53,"time":135.01162790697674,"velocity":0.3228346456692913},{"duration":0.08139534883721922,"midi":62,"time":135.01162790697674,"velocity":0.2283464566929134},{"duration":0.08139534883721922,"midi":76,"time":135.01162790697674,"velocity":0.2125984251968504},{"duration":0.04651162790696617,"midi":79,"time":135.01162790697674,"velocity":0.2677165354330709},{"duration":0.03488372093025305,"midi":69,"time":135.03488372093022,"velocity":0.3700787401574803},{"duration":0.18604651162792152,"midi":102,"time":135.03488372093022,"velocity":0.2440944881889764},{"duration":0.08139534883721922,"midi":66,"time":135.04651162790697,"velocity":0.31496062992125984},{"duration":0.023255813953511506,"midi":35,"time":135.0581395348837,"velocity":0.3464566929133858},{"duration":0.04651162790699459,"midi":46,"time":135.0581395348837,"velocity":0.29133858267716534},{"duration":0.03488372093025305,"midi":97,"time":135.0581395348837,"velocity":0.14173228346456693},{"duration":0.05813953488370771,"midi":68,"time":135.06976744186048,"velocity":0.3779527559055118},{"duration":0.05813953488370771,"midi":74,"time":135.06976744186048,"velocity":0.3464566929133858},{"duration":0.05813953488370771,"midi":34,"time":135.08139534883722,"velocity":0.36220472440944884},{"duration":0.034883720930224626,"midi":70,"time":135.08139534883722,"velocity":0.3779527559055118},{"duration":0.12790697674418539,"midi":96,"time":135.08139534883722,"velocity":0.13385826771653545},{"duration":0.034883720930224626,"midi":98,"time":135.09302325581396,"velocity":0.10236220472440945},{"duration":0.023255813953483084,"midi":54,"time":135.11627906976744,"velocity":0.23622047244094488},{"duration":0.08139534883721922,"midi":97,"time":135.11627906976744,"velocity":0.23622047244094488},{"duration":0.034883720930224626,"midi":62,"time":135.12790697674419,"velocity":0.44881889763779526},{"duration":0.034883720930224626,"midi":78,"time":135.12790697674419,"velocity":0.2440944881889764},{"duration":0.13953488372092693,"midi":80,"time":135.12790697674419,"velocity":0.30708661417322836},{"duration":0.05813953488370771,"midi":90,"time":135.12790697674419,"velocity":0.25196850393700787},{"duration":0.05813953488370771,"midi":95,"time":135.12790697674419,"velocity":0.2047244094488189},{"duration":0.034883720930224626,"midi":99,"time":135.12790697674419,"velocity":0.2047244094488189},{"duration":0.06976744186047767,"midi":101,"time":135.12790697674419,"velocity":0.2283464566929134},{"duration":0.023255813953483084,"midi":66,"time":135.13953488372093,"velocity":0.41732283464566927},{"duration":0.034883720930224626,"midi":85,"time":135.13953488372093,"velocity":0.14960629921259844},{"duration":0.06976744186047767,"midi":88,"time":135.13953488372093,"velocity":0.15748031496062992},{"duration":0.08139534883721922,"midi":89,"time":135.13953488372093,"velocity":0.1732283464566929},{"duration":0.06976744186047767,"midi":91,"time":135.13953488372093,"velocity":0.18110236220472442},{"duration":0.034883720930224626,"midi":94,"time":135.13953488372093,"velocity":0.1732283464566929},{"duration":0.05813953488373613,"midi":100,"time":135.13953488372093,"velocity":0.15748031496062992},{"duration":0.023255813953483084,"midi":73,"time":135.15116279069767,"velocity":0.23622047244094488},{"duration":0.05813953488373613,"midi":83,"time":135.15116279069767,"velocity":0.14960629921259844},{"duration":0.023255813953483084,"midi":45,"time":135.1627906976744,"velocity":0.5984251968503937},{"duration":0.11627906976744384,"midi":65,"time":135.1627906976744,"velocity":0.33858267716535434},{"duration":0.04651162790699459,"midi":70,"time":135.1627906976744,"velocity":0.2283464566929134},{"duration":0.03488372093025305,"midi":81,"time":135.1627906976744,"velocity":0.10236220472440945},{"duration":0.09302325581396076,"midi":93,"time":135.17441860465115,"velocity":0.1968503937007874},{"duration":0.04651162790699459,"midi":98,"time":135.17441860465115,"velocity":0.07874015748031496},{"duration":0.09302325581396076,"midi":99,"time":135.17441860465115,"velocity":0.14173228346456693},{"duration":0.011627906976769964,"midi":43,"time":135.1860465116279,"velocity":0.5669291338582677},{"duration":0.13953488372095535,"midi":73,"time":135.1860465116279,"velocity":0.4015748031496063},{"duration":0.011627906976741542,"midi":42,"time":135.19767441860466,"velocity":0.5511811023622047},{"duration":0.1860465116278931,"midi":68,"time":135.19767441860466,"velocity":0.33070866141732286},{"duration":0.034883720930224626,"midi":87,"time":135.19767441860466,"velocity":0.07086614173228346},{"duration":0.034883720930224626,"midi":82,"time":135.2093023255814,"velocity":0.11023622047244094},{"duration":0.09302325581396076,"midi":70,"time":135.22093023255815,"velocity":0.31496062992125984},{"duration":0.023255813953483084,"midi":37,"time":135.24418604651163,"velocity":0.3858267716535433},{"duration":0.034883720930224626,"midi":52,"time":135.24418604651163,"velocity":0.28346456692913385},{"duration":0.034883720930224626,"midi":89,"time":135.24418604651163,"velocity":0.14173228346456693},{"duration":0.06976744186047767,"midi":79,"time":135.2674418604651,"velocity":0.2283464566929134},{"duration":0.05813953488373613,"midi":87,"time":135.2674418604651,"velocity":0.12598425196850394},{"duration":0.04651162790699459,"midi":94,"time":135.2674418604651,"velocity":0.23622047244094488},{"duration":0.04651162790699459,"midi":77,"time":135.27906976744185,"velocity":0.2047244094488189},{"duration":0.05813953488373613,"midi":83,"time":135.27906976744185,"velocity":0.1968503937007874},{"duration":0.05813953488373613,"midi":86,"time":135.27906976744185,"velocity":0.1889763779527559},{"duration":0.1046511627907023,"midi":61,"time":135.2906976744186,"velocity":0.28346456692913385},{"duration":0.09302325581396076,"midi":49,"time":135.30232558139534,"velocity":0.33858267716535434},{"duration":0.09302325581396076,"midi":56,"time":135.30232558139534,"velocity":0.3228346456692913},{"duration":0.04651162790699459,"midi":75,"time":135.30232558139534,"velocity":0.07874015748031496},{"duration":0.034883720930224626,"midi":37,"time":135.3372093023256,"velocity":0.3858267716535433},{"duration":0.13953488372092693,"midi":82,"time":135.3372093023256,"velocity":0.23622047244094488},{"duration":0.04651162790696617,"midi":96,"time":135.3372093023256,"velocity":0.11023622047244094},{"duration":0.06976744186044925,"midi":87,"time":135.34883720930233,"velocity":0.14960629921259844},{"duration":0.04651162790696617,"midi":65,"time":135.37209302325581,"velocity":0.3228346456692913},{"duration":0.023255813953483084,"midi":59,"time":135.3953488372093,"velocity":0.33858267716535434},{"duration":0.04651162790699459,"midi":76,"time":135.3953488372093,"velocity":0.2992125984251969},{"duration":0.034883720930224626,"midi":81,"time":135.3953488372093,"velocity":0.30708661417322836},{"duration":0.09302325581396076,"midi":90,"time":135.3953488372093,"velocity":0.18110236220472442},{"duration":0.034883720930224626,"midi":96,"time":135.3953488372093,"velocity":0.10236220472440945},{"duration":0.023255813953483084,"midi":70,"time":135.40697674418604,"velocity":0.29133858267716534},{"duration":0.03488372093025305,"midi":74,"time":135.40697674418604,"velocity":0.25984251968503935},{"duration":0.06976744186047767,"midi":78,"time":135.40697674418604,"velocity":0.33858267716535434},{"duration":0.11627906976744384,"midi":88,"time":135.40697674418604,"velocity":0.30708661417322836},{"duration":0.023255813953511506,"midi":61,"time":135.41860465116278,"velocity":0.29133858267716534},{"duration":0.03488372093025305,"midi":64,"time":135.41860465116278,"velocity":0.28346456692913385},{"duration":0.023255813953511506,"midi":67,"time":135.41860465116278,"velocity":0.2283464566929134},{"duration":0.05813953488373613,"midi":72,"time":135.41860465116278,"velocity":0.25984251968503935},{"duration":0.12790697674418539,"midi":48,"time":135.43023255813952,"velocity":0.3543307086614173},{"duration":0.03488372093025305,"midi":69,"time":135.43023255813952,"velocity":0.2204724409448819},{"duration":0.05813953488373613,"midi":75,"time":135.43023255813952,"velocity":0.1968503937007874},{"duration":0.05813953488373613,"midi":84,"time":135.43023255813952,"velocity":0.28346456692913385},{"duration":0.04651162790699459,"midi":89,"time":135.43023255813952,"velocity":0.11811023622047244},{"duration":0.05813953488370771,"midi":55,"time":135.4418604651163,"velocity":0.33858267716535434},{"duration":0.0813953488371908,"midi":81,"time":135.4418604651163,"velocity":0.48031496062992124},{"duration":0.06976744186044925,"midi":92,"time":135.4418604651163,"velocity":0.2204724409448819},{"duration":0.09302325581393234,"midi":36,"time":135.46511627906978,"velocity":0.36220472440944884},{"duration":0.034883720930224626,"midi":64,"time":135.46511627906978,"velocity":0.2677165354330709},{"duration":0.09302325581393234,"midi":68,"time":135.46511627906978,"velocity":0.2204724409448819},{"duration":0.19767441860463464,"midi":91,"time":135.46511627906978,"velocity":0.31496062992125984},{"duration":0.023255813953483084,"midi":73,"time":135.47674418604652,"velocity":0.2992125984251969},{"duration":0.034883720930224626,"midi":85,"time":135.47674418604652,"velocity":0.3937007874015748},{"duration":0.1046511627907023,"midi":94,"time":135.47674418604652,"velocity":0.11811023622047244},{"duration":0.04651162790696617,"midi":70,"time":135.48837209302326,"velocity":0.15748031496062992},{"duration":0.12790697674418539,"midi":82,"time":135.48837209302326,"velocity":0.31496062992125984},{"duration":0.034883720930224626,"midi":65,"time":135.5,"velocity":0.11811023622047244},{"duration":0.13953488372092693,"midi":84,"time":135.5,"velocity":0.4094488188976378},{"duration":0.04651162790696617,"midi":90,"time":135.5,"velocity":0.11023622047244094},{"duration":0.05813953488373613,"midi":63,"time":135.52325581395348,"velocity":0.15748031496062992},{"duration":0.11627906976744384,"midi":80,"time":135.52325581395348,"velocity":0.4409448818897638},{"duration":0.08139534883721922,"midi":87,"time":135.52325581395348,"velocity":0.23622047244094488},{"duration":0.023255813953483084,"midi":81,"time":135.53488372093022,"velocity":0.23622047244094488},{"duration":0.023255813953511506,"midi":58,"time":135.5581395348837,"velocity":0.2677165354330709},{"duration":0.08139534883721922,"midi":72,"time":135.5581395348837,"velocity":0.29133858267716534},{"duration":0.05813953488370771,"midi":53,"time":135.58139534883722,"velocity":0.14173228346456693},{"duration":0.034883720930224626,"midi":74,"time":135.58139534883722,"velocity":0.1889763779527559},{"duration":0.034883720930224626,"midi":57,"time":135.59302325581396,"velocity":0.16535433070866143},{"duration":0.3604651162790731,"midi":88,"time":135.59302325581396,"velocity":0.25984251968503935},{"duration":0.05813953488370771,"midi":69,"time":135.6046511627907,"velocity":0.1732283464566929},{"duration":0.09302325581396076,"midi":81,"time":135.61627906976744,"velocity":0.4330708661417323},{"duration":0.034883720930224626,"midi":58,"time":135.62790697674419,"velocity":0.14960629921259844},{"duration":0.04651162790696617,"midi":76,"time":135.62790697674419,"velocity":0.2047244094488189},{"duration":0.06976744186047767,"midi":85,"time":135.62790697674419,"velocity":0.30708661417322836},{"duration":0.08139534883721922,"midi":82,"time":135.63953488372093,"velocity":0.1732283464566929},{"duration":0.05813953488373613,"midi":72,"time":135.65116279069767,"velocity":0.18110236220472442},{"duration":0.023255813953483084,"midi":59,"time":135.6627906976744,"velocity":0.2283464566929134},{"duration":0.023255813953483084,"midi":84,"time":135.6627906976744,"velocity":0.23622047244094488},{"duration":0.09302325581396076,"midi":90,"time":135.6627906976744,"velocity":0.28346456692913385},{"duration":0.09302325581396076,"midi":95,"time":135.6627906976744,"velocity":0.23622047244094488},{"duration":0.06976744186047767,"midi":101,"time":135.6627906976744,"velocity":0.2125984251968504},{"duration":0.08139534883721922,"midi":103,"time":135.6627906976744,"velocity":0.25196850393700787},{"duration":0.03488372093025305,"midi":66,"time":135.67441860465115,"velocity":0.14960629921259844},{"duration":0.08139534883721922,"midi":86,"time":135.67441860465115,"velocity":0.2440944881889764},{"duration":0.08139534883721922,"midi":89,"time":135.67441860465115,"velocity":0.2125984251968504},{"duration":0.05813953488373613,"midi":99,"time":135.67441860465115,"velocity":0.11023622047244094},{"duration":0.011627906976769964,"midi":48,"time":135.6860465116279,"velocity":0.5433070866141733},{"duration":0.11627906976744384,"midi":80,"time":135.6860465116279,"velocity":0.30708661417322836},{"duration":0.05813953488373613,"midi":83,"time":135.6860465116279,"velocity":0.2204724409448819},{"duration":0.011627906976741542,"midi":45,"time":135.69767441860466,"velocity":0.6141732283464567},{"duration":0.034883720930224626,"midi":84,"time":135.69767441860466,"velocity":0.18110236220472442},{"duration":0.06976744186044925,"midi":91,"time":135.69767441860466,"velocity":0.15748031496062992},{"duration":0.011627906976741542,"midi":44,"time":135.7093023255814,"velocity":0.6062992125984252},{"duration":0.0813953488371908,"midi":73,"time":135.7093023255814,"velocity":0.2125984251968504},{"duration":0.011627906976741542,"midi":43,"time":135.72093023255815,"velocity":0.5826771653543307},{"duration":0.011627906976741542,"midi":42,"time":135.7325581395349,"velocity":0.5433070866141733},{"duration":0.06976744186044925,"midi":65,"time":135.7325581395349,"velocity":0.14173228346456693},{"duration":0.034883720930224626,"midi":85,"time":135.7325581395349,"velocity":0.23622047244094488},{"duration":0.05813953488373613,"midi":68,"time":135.7674418604651,"velocity":0.28346456692913385},{"duration":0.1046511627907023,"midi":83,"time":135.7674418604651,"velocity":0.2047244094488189},{"duration":0.04651162790699459,"midi":36,"time":135.7906976744186,"velocity":0.3543307086614173},{"duration":0.04651162790699459,"midi":74,"time":135.7906976744186,"velocity":0.2204724409448819},{"duration":0.06976744186047767,"midi":76,"time":135.7906976744186,"velocity":0.2440944881889764},{"duration":0.03488372093025305,"midi":84,"time":135.7906976744186,"velocity":0.2204724409448819},{"duration":0.023255813953511506,"midi":79,"time":135.80232558139534,"velocity":0.28346456692913385},{"duration":0.03488372093025305,"midi":87,"time":135.80232558139534,"velocity":0.1732283464566929},{"duration":0.08139534883721922,"midi":94,"time":135.80232558139534,"velocity":0.16535433070866143},{"duration":0.08139534883721922,"midi":97,"time":135.80232558139534,"velocity":0.11811023622047244},{"duration":0.06976744186047767,"midi":101,"time":135.80232558139534,"velocity":0.1968503937007874},{"duration":0.08139534883721922,"midi":102,"time":135.80232558139534,"velocity":0.12598425196850394},{"duration":0.023255813953483084,"midi":63,"time":135.8139534883721,"velocity":0.2283464566929134},{"duration":0.034883720930224626,"midi":72,"time":135.8139534883721,"velocity":0.1968503937007874},{"duration":0.0813953488371908,"midi":89,"time":135.8139534883721,"velocity":0.2283464566929134},{"duration":0.0813953488371908,"midi":85,"time":135.82558139534885,"velocity":0.1968503937007874},{"duration":0.034883720930224626,"midi":96,"time":135.82558139534885,"velocity":0.07086614173228346},{"duration":0.04651162790696617,"midi":82,"time":135.8372093023256,"velocity":0.2047244094488189},{"duration":0.04651162790696617,"midi":99,"time":135.8372093023256,"velocity":0.12598425196850394},{"duration":0.04651162790696617,"midi":87,"time":135.84883720930233,"velocity":0.15748031496062992},{"duration":0.034883720930224626,"midi":90,"time":135.84883720930233,"velocity":0.12598425196850394},{"duration":0.11627906976744384,"midi":81,"time":135.86046511627907,"velocity":0.2204724409448819},{"duration":0.023255813953483084,"midi":51,"time":135.87209302325581,"velocity":0.31496062992125984},{"duration":0.04651162790696617,"midi":73,"time":135.87209302325581,"velocity":0.08661417322834646},{"duration":0.04651162790699459,"midi":77,"time":135.8953488372093,"velocity":0.2047244094488189},{"duration":0.03488372093025305,"midi":75,"time":135.90697674418604,"velocity":0.2992125984251969},{"duration":0.023255813953511506,"midi":57,"time":135.93023255813952,"velocity":0.3543307086614173},{"duration":0.03488372093025305,"midi":66,"time":135.93023255813952,"velocity":0.3700787401574803},{"duration":0.023255813953511506,"midi":71,"time":135.93023255813952,"velocity":0.31496062992125984},{"duration":0.03488372093025305,"midi":80,"time":135.93023255813952,"velocity":0.11023622047244094},{"duration":0.04651162790699459,"midi":85,"time":135.93023255813952,"velocity":0.2047244094488189},{"duration":0.09302325581396076,"midi":90,"time":135.93023255813952,"velocity":0.2125984251968504},{"duration":0.19767441860466306,"midi":91,"time":135.93023255813952,"velocity":0.2204724409448819},{"duration":0.08139534883721922,"midi":94,"time":135.93023255813952,"velocity":0.1968503937007874},{"duration":0.05813953488373613,"midi":96,"time":135.93023255813952,"velocity":0.15748031496062992},{"duration":0.09302325581396076,"midi":98,"time":135.93023255813952,"velocity":0.1889763779527559},{"duration":0.05813953488370771,"midi":74,"time":135.9418604651163,"velocity":0.3228346456692913},{"duration":0.04651162790696617,"midi":92,"time":135.9418604651163,"velocity":0.2204724409448819},{"duration":0.034883720930224626,"midi":55,"time":135.95348837209303,"velocity":0.3858267716535433},{"duration":0.11627906976744384,"midi":70,"time":135.95348837209303,"velocity":0.33858267716535434},{"duration":0.17441860465115155,"midi":84,"time":135.95348837209303,"velocity":0.23622047244094488},{"duration":0.04651162790696617,"midi":65,"time":135.96511627906978,"velocity":0.18110236220472442},{"duration":0.05813953488370771,"midi":80,"time":135.97674418604652,"velocity":0.25984251968503935},{"duration":0.04651162790696617,"midi":88,"time":135.97674418604652,"velocity":0.1889763779527559},{"duration":0.034883720930224626,"midi":50,"time":135.98837209302326,"velocity":0.28346456692913385},{"duration":0.034883720930224626,"midi":87,"time":135.98837209302326,"velocity":0.14173228346456693},{"duration":0.06976744186047767,"midi":81,"time":136,"velocity":0.28346456692913385},{"duration":0.11627906976744384,"midi":88,"time":136.03488372093022,"velocity":0.25196850393700787},{"duration":0.03488372093025305,"midi":65,"time":136.04651162790697,"velocity":0.1889763779527559},{"duration":0.03488372093025305,"midi":75,"time":136.04651162790697,"velocity":0.2204724409448819},{"duration":0.023255813953511506,"midi":55,"time":136.0581395348837,"velocity":0.28346456692913385},{"duration":0.04651162790699459,"midi":87,"time":136.0581395348837,"velocity":0.2204724409448819},{"duration":0.09302325581396076,"midi":90,"time":136.0581395348837,"velocity":0.2440944881889764},{"duration":0.04651162790699459,"midi":98,"time":136.0581395348837,"velocity":0.18110236220472442},{"duration":0.06976744186047767,"midi":101,"time":136.0581395348837,"velocity":0.1732283464566929},{"duration":0.023255813953483084,"midi":71,"time":136.06976744186048,"velocity":0.2677165354330709},{"duration":0.034883720930224626,"midi":77,"time":136.06976744186048,"velocity":0.2204724409448819},{"duration":0.10465116279067388,"midi":80,"time":136.06976744186048,"velocity":0.23622047244094488},{"duration":0.0813953488371908,"midi":94,"time":136.06976744186048,"velocity":0.1732283464566929},{"duration":0.06976744186044925,"midi":95,"time":136.06976744186048,"velocity":0.11811023622047244},{"duration":0.034883720930224626,"midi":58,"time":136.08139534883722,"velocity":0.1968503937007874},{"duration":0.0813953488371908,"midi":74,"time":136.08139534883722,"velocity":0.2440944881889764},{"duration":0.034883720930224626,"midi":85,"time":136.08139534883722,"velocity":0.08661417322834646},{"duration":0.06976744186044925,"midi":97,"time":136.08139534883722,"velocity":0.1732283464566929},{"duration":0.04651162790696617,"midi":65,"time":136.09302325581396,"velocity":0.1889763779527559},{"duration":0.13953488372092693,"midi":81,"time":136.09302325581396,"velocity":0.25196850393700787},{"duration":0.034883720930224626,"midi":83,"time":136.09302325581396,"velocity":0.16535433070866143},{"duration":0.034883720930224626,"midi":82,"time":136.11627906976744,"velocity":0.10236220472440945},{"duration":0.034883720930224626,"midi":87,"time":136.11627906976744,"velocity":0.13385826771653545},{"duration":0.05813953488370771,"midi":85,"time":136.12790697674419,"velocity":0.15748031496062992},{"duration":0.034883720930224626,"midi":50,"time":136.13953488372093,"velocity":0.1968503937007874},{"duration":0.06976744186047767,"midi":70,"time":136.13953488372093,"velocity":0.2992125984251969},{"duration":0.023255813953511506,"midi":64,"time":136.17441860465115,"velocity":0.3937007874015748},{"duration":0.05813953488373613,"midi":72,"time":136.17441860465115,"velocity":0.25196850393700787},{"duration":0.03488372093025305,"midi":92,"time":136.1860465116279,"velocity":0.10236220472440945},{"duration":0.03488372093025305,"midi":95,"time":136.1860465116279,"velocity":0.1889763779527559},{"duration":0.03488372093025305,"midi":96,"time":136.1860465116279,"velocity":0.15748031496062992},{"duration":0.03488372093025305,"midi":97,"time":136.1860465116279,"velocity":0.12598425196850394},{"duration":0.03488372093025305,"midi":99,"time":136.1860465116279,"velocity":0.12598425196850394},{"duration":0.04651162790699459,"midi":100,"time":136.1860465116279,"velocity":0.1889763779527559},{"duration":0.06976744186047767,"midi":102,"time":136.1860465116279,"velocity":0.2204724409448819},{"duration":0.034883720930224626,"midi":62,"time":136.19767441860466,"velocity":0.44881889763779526},{"duration":0.023255813953483084,"midi":67,"time":136.19767441860466,"velocity":0.3543307086614173},{"duration":0.034883720930224626,"midi":91,"time":136.2093023255814,"velocity":0.08661417322834646},{"duration":0.011627906976741542,"midi":45,"time":136.22093023255815,"velocity":0.5669291338582677},{"duration":0.05813953488370771,"midi":68,"time":136.22093023255815,"velocity":0.2204724409448819},{"duration":0.023255813953483084,"midi":44,"time":136.2325581395349,"velocity":0.6220472440944882},{"duration":0.023255813953483084,"midi":52,"time":136.2325581395349,"velocity":0.44881889763779526},{"duration":0.09302325581396076,"midi":73,"time":136.2325581395349,"velocity":0.14960629921259844},{"duration":0.023255813953483084,"midi":42,"time":136.25581395348837,"velocity":0.5748031496062992},{"duration":0.034883720930224626,"midi":51,"time":136.25581395348837,"velocity":0.3858267716535433},{"duration":0.03488372093025305,"midi":53,"time":136.2906976744186,"velocity":0.2755905511811024},{"duration":0.023255813953511506,"midi":37,"time":136.30232558139534,"velocity":0.3937007874015748},{"duration":0.034883720930224626,"midi":78,"time":136.3139534883721,"velocity":0.1732283464566929},{"duration":0.04651162790696617,"midi":36,"time":136.32558139534885,"velocity":0.31496062992125984},{"duration":0.034883720930224626,"midi":54,"time":136.32558139534885,"velocity":0.4094488188976378},{"duration":0.034883720930224626,"midi":94,"time":136.32558139534885,"velocity":0.08661417322834646},{"duration":0.034883720930224626,"midi":100,"time":136.32558139534885,"velocity":0.11023622047244094},{"duration":0.023255813953483084,"midi":67,"time":136.3372093023256,"velocity":0.2677165354330709},{"duration":0.06976744186044925,"midi":70,"time":136.3372093023256,"velocity":0.3228346456692913},{"duration":0.023255813953483084,"midi":73,"time":136.3372093023256,"velocity":0.2677165354330709},{"duration":0.034883720930224626,"midi":80,"time":136.3372093023256,"velocity":0.11023622047244094},{"duration":0.034883720930224626,"midi":91,"time":136.3372093023256,"velocity":0.09448818897637795},{"duration":0.06976744186044925,"midi":63,"time":136.34883720930233,"velocity":0.13385826771653545},{"duration":0.023255813953483084,"midi":53,"time":136.36046511627907,"velocity":0.3700787401574803},{"duration":0.034883720930224626,"midi":67,"time":136.3953488372093,"velocity":0.14173228346456693},{"duration":0.023255813953511506,"midi":48,"time":136.41860465116278,"velocity":0.28346456692913385},{"duration":0.03488372093025305,"midi":70,"time":136.41860465116278,"velocity":0.16535433070866143},{"duration":0.023255813953511506,"midi":53,"time":136.43023255813952,"velocity":0.25196850393700787},{"duration":0.023255813953483084,"midi":60,"time":136.45348837209303,"velocity":0.3464566929133858},{"duration":0.06976744186044925,"midi":74,"time":136.45348837209303,"velocity":0.28346456692913385},{"duration":0.023255813953483084,"midi":78,"time":136.45348837209303,"velocity":0.25984251968503935},{"duration":0.0813953488371908,"midi":80,"time":136.45348837209303,"velocity":0.25196850393700787},{"duration":0.04651162790696617,"midi":88,"time":136.45348837209303,"velocity":0.25196850393700787},{"duration":0.04651162790696617,"midi":89,"time":136.45348837209303,"velocity":0.14173228346456693},{"duration":0.023255813953483084,"midi":91,"time":136.45348837209303,"velocity":0.2677165354330709},{"duration":0.023255813953483084,"midi":66,"time":136.46511627906978,"velocity":0.30708661417322836},{"duration":0.034883720930224626,"midi":69,"time":136.46511627906978,"velocity":0.1732283464566929},{"duration":0.0813953488371908,"midi":76,"time":136.46511627906978,"velocity":0.2992125984251969},{"duration":0.04651162790696617,"midi":81,"time":136.46511627906978,"velocity":0.18110236220472442},{"duration":0.04651162790696617,"midi":83,"time":136.46511627906978,"velocity":0.1889763779527559},{"duration":0.04651162790696617,"midi":53,"time":136.47674418604652,"velocity":0.48031496062992124},{"duration":0.1046511627907023,"midi":58,"time":136.47674418604652,"velocity":0.30708661417322836},{"duration":0.034883720930224626,"midi":79,"time":136.5,"velocity":0.16535433070866143},{"duration":0.023255813953483084,"midi":46,"time":136.52325581395348,"velocity":0.3228346456692913},{"duration":0.04651162790699459,"midi":53,"time":136.53488372093022,"velocity":0.3228346456692913},{"duration":0.05813953488373613,"midi":34,"time":136.54651162790697,"velocity":0.33070866141732286},{"duration":0.023255813953511506,"midi":47,"time":136.54651162790697,"velocity":0.33858267716535434},{"duration":0.023255813953483084,"midi":54,"time":136.58139534883722,"velocity":0.25196850393700787},{"duration":0.05813953488370771,"midi":73,"time":136.58139534883722,"velocity":0.18110236220472442},{"duration":0.06976744186044925,"midi":77,"time":136.58139534883722,"velocity":0.2677165354330709},{"duration":0.034883720930224626,"midi":92,"time":136.58139534883722,"velocity":0.16535433070866143},{"duration":0.034883720930224626,"midi":93,"time":136.58139534883722,"velocity":0.16535433070866143},{"duration":0.05813953488370771,"midi":94,"time":136.58139534883722,"velocity":0.2440944881889764},{"duration":0.023255813953483084,"midi":48,"time":136.59302325581396,"velocity":0.4094488188976378},{"duration":0.1046511627907023,"midi":65,"time":136.59302325581396,"velocity":0.2755905511811024},{"duration":0.09302325581393234,"midi":71,"time":136.59302325581396,"velocity":0.2283464566929134},{"duration":0.06976744186044925,"midi":82,"time":136.59302325581396,"velocity":0.2283464566929134},{"duration":0.04651162790696617,"midi":86,"time":136.59302325581396,"velocity":0.2204724409448819},{"duration":0.034883720930224626,"midi":91,"time":136.59302325581396,"velocity":0.2204724409448819},{"duration":0.09302325581396076,"midi":61,"time":136.6046511627907,"velocity":0.28346456692913385},{"duration":0.0813953488371908,"midi":75,"time":136.6046511627907,"velocity":0.14173228346456693},{"duration":0.06976744186044925,"midi":79,"time":136.6046511627907,"velocity":0.2755905511811024},{"duration":0.023255813953483084,"midi":49,"time":136.61627906976744,"velocity":0.3858267716535433},{"duration":0.034883720930224626,"midi":84,"time":136.61627906976744,"velocity":0.07086614173228346},{"duration":0.05813953488370771,"midi":56,"time":136.62790697674419,"velocity":0.33070866141732286},{"duration":0.034883720930224626,"midi":80,"time":136.62790697674419,"velocity":0.11023622047244094},{"duration":0.06976744186047767,"midi":37,"time":136.65116279069767,"velocity":0.4015748031496063},{"duration":0.034883720930224626,"midi":76,"time":136.69767441860466,"velocity":0.11811023622047244},{"duration":0.034883720930224626,"midi":62,"time":136.7093023255814,"velocity":0.18110236220472442},{"duration":0.04651162790696617,"midi":102,"time":136.7093023255814,"velocity":0.13385826771653545},{"duration":0.034883720930224626,"midi":103,"time":136.7093023255814,"velocity":0.14960629921259844},{"duration":0.011627906976741542,"midi":48,"time":136.7325581395349,"velocity":0.5433070866141733},{"duration":0.011627906976741542,"midi":45,"time":136.74418604651163,"velocity":0.6220472440944882},{"duration":0.011627906976741542,"midi":44,"time":136.75581395348837,"velocity":0.6220472440944882},{"duration":0.011627906976741542,"midi":43,"time":136.7674418604651,"velocity":0.5984251968503937},{"duration":0.011627906976741542,"midi":42,"time":136.77906976744185,"velocity":0.5669291338582677},{"duration":0.011627906976741542,"midi":41,"time":136.7906976744186,"velocity":0.5118110236220472},{"duration":0.023255813953483084,"midi":37,"time":136.82558139534885,"velocity":0.4015748031496063},{"duration":0.034883720930224626,"midi":36,"time":136.84883720930233,"velocity":0.31496062992125984},{"duration":0.034883720930224626,"midi":68,"time":136.96511627906978,"velocity":0.12598425196850394},{"duration":0.034883720930224626,"midi":95,"time":136.98837209302326,"velocity":0.2125984251968504},{"duration":0.16279069767441,"midi":91,"time":137,"velocity":0.25196850393700787},{"duration":0.11627906976744384,"midi":102,"time":137,"velocity":0.07874015748031496},{"duration":0.13953488372092693,"midi":72,"time":137.01162790697674,"velocity":0.1732283464566929},{"duration":0.13953488372092693,"midi":94,"time":137.01162790697674,"velocity":0.3228346456692913},{"duration":0.04651162790696617,"midi":96,"time":137.01162790697674,"velocity":0.3858267716535433},{"duration":0.05813953488373613,"midi":60,"time":137.02325581395348,"velocity":0.3858267716535433},{"duration":0.09302325581396076,"midi":100,"time":137.04651162790697,"velocity":0.11023622047244094},{"duration":0.06976744186047767,"midi":98,"time":137.0581395348837,"velocity":0.13385826771653545},{"duration":0.06976744186044925,"midi":96,"time":137.06976744186048,"velocity":0.3543307086614173},{"duration":0.034883720930224626,"midi":60,"time":137.09302325581396,"velocity":0.31496062992125984},{"duration":0.034883720930224626,"midi":97,"time":137.13953488372093,"velocity":0.1889763779527559},{"duration":0.023255813953483084,"midi":59,"time":137.1627906976744,"velocity":0.3464566929133858},{"duration":0.04651162790699459,"midi":98,"time":137.17441860465115,"velocity":0.15748031496062992},{"duration":0.06976744186047767,"midi":60,"time":137.1860465116279,"velocity":0.4566929133858268},{"duration":0.12790697674418539,"midi":94,"time":137.19767441860466,"velocity":0.1968503937007874},{"duration":0.04651162790696617,"midi":79,"time":137.2325581395349,"velocity":0.15748031496062992},{"duration":0.09302325581396076,"midi":88,"time":137.2325581395349,"velocity":0.25984251968503935},{"duration":0.05813953488370771,"midi":96,"time":137.2325581395349,"velocity":0.2204724409448819},{"duration":0.1046511627907023,"midi":102,"time":137.2325581395349,"velocity":0.15748031496062992},{"duration":0.034883720930224626,"midi":82,"time":137.24418604651163,"velocity":0.12598425196850394},{"duration":0.11627906976744384,"midi":85,"time":137.24418604651163,"velocity":0.33858267716535434},{"duration":0.05813953488370771,"midi":90,"time":137.24418604651163,"velocity":0.2755905511811024},{"duration":0.06976744186047767,"midi":92,"time":137.24418604651163,"velocity":0.2125984251968504},{"duration":0.08139534883721922,"midi":95,"time":137.24418604651163,"velocity":0.11811023622047244},{"duration":0.034883720930224626,"midi":98,"time":137.24418604651163,"velocity":0.08661417322834646},{"duration":0.19767441860466306,"midi":101,"time":137.24418604651163,"velocity":0.2125984251968504},{"duration":0.04651162790696617,"midi":103,"time":137.24418604651163,"velocity":0.11023622047244094},{"duration":0.034883720930224626,"midi":45,"time":137.25581395348837,"velocity":0.6141732283464567},{"duration":0.023255813953483084,"midi":62,"time":137.25581395348837,"velocity":0.3543307086614173},{"duration":0.19767441860466306,"midi":80,"time":137.25581395348837,"velocity":0.2992125984251969},{"duration":0.11627906976744384,"midi":89,"time":137.25581395348837,"velocity":0.2755905511811024},{"duration":0.13953488372092693,"midi":61,"time":137.27906976744185,"velocity":0.2755905511811024},{"duration":0.16279069767443843,"midi":73,"time":137.27906976744185,"velocity":0.3700787401574803},{"duration":0.03488372093025305,"midi":83,"time":137.27906976744185,"velocity":0.14960629921259844},{"duration":0.011627906976741542,"midi":44,"time":137.2906976744186,"velocity":0.5826771653543307},{"duration":0.03488372093025305,"midi":87,"time":137.2906976744186,"velocity":0.12598425196850394},{"duration":0.023255813953511506,"midi":42,"time":137.30232558139534,"velocity":0.5669291338582677},{"duration":0.023255813953483084,"midi":53,"time":137.3372093023256,"velocity":0.23622047244094488},{"duration":0.023255813953483084,"midi":37,"time":137.34883720930233,"velocity":0.4015748031496063},{"duration":0.034883720930224626,"midi":52,"time":137.36046511627907,"velocity":0.1732283464566929},{"duration":0.05813953488370771,"midi":103,"time":137.36046511627907,"velocity":0.25196850393700787},{"duration":0.034883720930224626,"midi":36,"time":137.37209302325581,"velocity":0.31496062992125984},{"duration":0.04651162790696617,"midi":95,"time":137.37209302325581,"velocity":0.07874015748031496},{"duration":0.023255813953511506,"midi":60,"time":137.43023255813952,"velocity":0.2755905511811024},{"duration":0.034883720930224626,"midi":59,"time":137.45348837209303,"velocity":0.41732283464566927},{"duration":0.04651162790696617,"midi":51,"time":137.46511627906978,"velocity":0.14173228346456693},{"duration":0.17441860465115155,"midi":73,"time":137.46511627906978,"velocity":0.2125984251968504},{"duration":0.04651162790696617,"midi":58,"time":137.48837209302326,"velocity":0.4094488188976378},{"duration":0.08139534883721922,"midi":92,"time":137.5,"velocity":0.25196850393700787},{"duration":0.034883720930224626,"midi":94,"time":137.51162790697674,"velocity":0.15748031496062992},{"duration":0.06976744186047767,"midi":98,"time":137.51162790697674,"velocity":0.2677165354330709},{"duration":0.06976744186047767,"midi":100,"time":137.52325581395348,"velocity":0.14960629921259844},{"duration":0.09302325581396076,"midi":103,"time":137.52325581395348,"velocity":0.29133858267716534},{"duration":0.03488372093025305,"midi":97,"time":137.53488372093022,"velocity":0.1732283464566929},{"duration":0.03488372093025305,"midi":58,"time":137.54651162790697,"velocity":0.33070866141732286},{"duration":0.023255813953483084,"midi":56,"time":137.59302325581396,"velocity":0.3228346456692913},{"duration":0.034883720930224626,"midi":80,"time":137.59302325581396,"velocity":0.08661417322834646},{"duration":0.023255813953483084,"midi":60,"time":137.65116279069767,"velocity":0.23622047244094488},{"duration":0.05813953488373613,"midi":58,"time":137.6860465116279,"velocity":0.2047244094488189},{"duration":0.023255813953483084,"midi":62,"time":137.74418604651163,"velocity":0.3858267716535433},{"duration":0.05813953488373613,"midi":74,"time":137.75581395348837,"velocity":0.3858267716535433},{"duration":0.034883720930224626,"midi":93,"time":137.75581395348837,"velocity":0.18110236220472442},{"duration":0.034883720930224626,"midi":95,"time":137.75581395348837,"velocity":0.2440944881889764},{"duration":0.034883720930224626,"midi":100,"time":137.75581395348837,"velocity":0.1968503937007874},{"duration":0.034883720930224626,"midi":103,"time":137.75581395348837,"velocity":0.2204724409448819},{"duration":0.023255813953483084,"midi":61,"time":137.7674418604651,"velocity":0.3700787401574803},{"duration":0.12790697674418539,"midi":85,"time":137.7674418604651,"velocity":0.1968503937007874},{"duration":0.08139534883721922,"midi":89,"time":137.7674418604651,"velocity":0.25984251968503935},{"duration":0.04651162790699459,"midi":92,"time":137.7674418604651,"velocity":0.2204724409448819},{"duration":0.11627906976744384,"midi":80,"time":137.77906976744185,"velocity":0.30708661417322836},{"duration":0.04651162790699459,"midi":97,"time":137.77906976744185,"velocity":0.23622047244094488},{"duration":0.011627906976741542,"midi":48,"time":137.7906976744186,"velocity":0.5354330708661418},{"duration":0.011627906976769964,"midi":45,"time":137.80232558139534,"velocity":0.6141732283464567},{"duration":0.11627906976744384,"midi":61,"time":137.80232558139534,"velocity":0.2283464566929134},{"duration":0.011627906976741542,"midi":44,"time":137.8139534883721,"velocity":0.6220472440944882},{"duration":0.0813953488371908,"midi":73,"time":137.8139534883721,"velocity":0.3700787401574803},{"duration":0.0813953488371908,"midi":99,"time":137.8139534883721,"velocity":0.2047244094488189},{"duration":0.011627906976741542,"midi":43,"time":137.82558139534885,"velocity":0.5984251968503937},{"duration":0.04651162790696617,"midi":102,"time":137.82558139534885,"velocity":0.15748031496062992},{"duration":0.011627906976741542,"midi":42,"time":137.8372093023256,"velocity":0.5590551181102362},{"duration":0.034883720930224626,"midi":100,"time":137.8372093023256,"velocity":0.15748031496062992},{"duration":0.05813953488370771,"midi":89,"time":137.86046511627907,"velocity":0.2204724409448819},{"duration":0.05813953488370771,"midi":95,"time":137.87209302325581,"velocity":0.08661417322834646},{"duration":0.034883720930224626,"midi":103,"time":137.87209302325581,"velocity":0.2047244094488189},{"duration":0.023255813953483084,"midi":37,"time":137.88372093023256,"velocity":0.3858267716535433},{"duration":0.05813953488373613,"midi":74,"time":137.8953488372093,"velocity":0.4015748031496063},{"duration":0.05813953488373613,"midi":81,"time":137.8953488372093,"velocity":0.33070866141732286},{"duration":0.06976744186047767,"midi":100,"time":137.8953488372093,"velocity":0.2992125984251969},{"duration":0.023255813953483084,"midi":36,"time":137.90697674418604,"velocity":0.2992125984251969},{"duration":0.04651162790699459,"midi":101,"time":137.93023255813952,"velocity":0.23622047244094488},{"duration":0.04651162790696617,"midi":61,"time":137.9418604651163,"velocity":0.29133858267716534},{"duration":0.06976744186044925,"midi":89,"time":137.9418604651163,"velocity":0.25984251968503935},{"duration":0.034883720930224626,"midi":92,"time":137.9418604651163,"velocity":0.09448818897637795},{"duration":0.023255813953483084,"midi":73,"time":137.95348837209303,"velocity":0.3464566929133858},{"duration":0.023255813953483084,"midi":80,"time":137.95348837209303,"velocity":0.2283464566929134},{"duration":0.05813953488370771,"midi":72,"time":137.97674418604652,"velocity":0.33070866141732286},{"duration":0.034883720930224626,"midi":74,"time":137.97674418604652,"velocity":0.2125984251968504},{"duration":0.034883720930224626,"midi":88,"time":137.97674418604652,"velocity":0.25984251968503935},{"duration":0.023255813953483084,"midi":58,"time":138.01162790697674,"velocity":0.2755905511811024},{"duration":0.05813953488373613,"midi":80,"time":138.02325581395348,"velocity":0.14960629921259844},{"duration":0.023255813953483084,"midi":73,"time":138.03488372093022,"velocity":0.2440944881889764},{"duration":0.09302325581396076,"midi":81,"time":138.03488372093022,"velocity":0.2125984251968504},{"duration":0.1046511627907023,"midi":100,"time":138.03488372093022,"velocity":0.3700787401574803},{"duration":0.06976744186047767,"midi":86,"time":138.04651162790697,"velocity":0.1732283464566929},{"duration":0.05813953488373613,"midi":90,"time":138.04651162790697,"velocity":0.18110236220472442},{"duration":0.05813953488373613,"midi":102,"time":138.04651162790697,"velocity":0.1889763779527559},{"duration":0.05813953488373613,"midi":62,"time":138.0581395348837,"velocity":0.28346456692913385},{"duration":0.05813953488373613,"midi":74,"time":138.0581395348837,"velocity":0.4881889763779528},{"duration":0.05813953488373613,"midi":98,"time":138.0581395348837,"velocity":0.23622047244094488},{"duration":0.0813953488371908,"midi":89,"time":138.1046511627907,"velocity":0.3779527559055118},{"duration":0.034883720930224626,"midi":73,"time":138.11627906976744,"velocity":0.4251968503937008},{"duration":0.034883720930224626,"midi":80,"time":138.11627906976744,"velocity":0.25984251968503935},{"duration":0.04651162790696617,"midi":97,"time":138.11627906976744,"velocity":0.1889763779527559},{"duration":0.04651162790696617,"midi":103,"time":138.11627906976744,"velocity":0.15748031496062992},{"duration":0.034883720930224626,"midi":74,"time":138.15116279069767,"velocity":0.4251968503937008},{"duration":0.034883720930224626,"midi":81,"time":138.15116279069767,"velocity":0.2677165354330709},{"duration":0.023255813953483084,"midi":90,"time":138.1627906976744,"velocity":0.23622047244094488},{"duration":0.03488372093025305,"midi":96,"time":138.1627906976744,"velocity":0.23622047244094488},{"duration":0.04651162790699459,"midi":63,"time":138.1860465116279,"velocity":0.14960629921259844},{"duration":0.17441860465117998,"midi":75,"time":138.1860465116279,"velocity":0.41732283464566927},{"duration":0.13953488372095535,"midi":82,"time":138.1860465116279,"velocity":0.25984251968503935},{"duration":0.1279069767442138,"midi":91,"time":138.1860465116279,"velocity":0.25984251968503935},{"duration":0.023255813953483084,"midi":74,"time":138.19767441860466,"velocity":0.2283464566929134},{"duration":0.1860465116278931,"midi":97,"time":138.19767441860466,"velocity":0.2755905511811024},{"duration":0.023255813953511506,"midi":61,"time":138.2906976744186,"velocity":0.41732283464566927},{"duration":0.09302325581396076,"midi":89,"time":138.2906976744186,"velocity":0.2440944881889764},{"duration":0.04651162790699459,"midi":102,"time":138.2906976744186,"velocity":0.2283464566929134},{"duration":0.03488372093025305,"midi":77,"time":138.30232558139534,"velocity":0.07874015748031496},{"duration":0.05813953488373613,"midi":90,"time":138.30232558139534,"velocity":0.29133858267716534},{"duration":0.05813953488373613,"midi":93,"time":138.30232558139534,"velocity":0.11811023622047244},{"duration":0.04651162790699459,"midi":96,"time":138.30232558139534,"velocity":0.15748031496062992},{"duration":0.03488372093025305,"midi":100,"time":138.30232558139534,"velocity":0.16535433070866143},{"duration":0.034883720930224626,"midi":45,"time":138.3139534883721,"velocity":0.6220472440944882},{"duration":0.023255813953483084,"midi":62,"time":138.3139534883721,"velocity":0.25196850393700787},{"duration":0.034883720930224626,"midi":66,"time":138.3139534883721,"velocity":0.14173228346456693},{"duration":0.034883720930224626,"midi":73,"time":138.3139534883721,"velocity":0.18110236220472442},{"duration":0.05813953488370771,"midi":83,"time":138.3139534883721,"velocity":0.2992125984251969},{"duration":0.16279069767441,"midi":91,"time":138.32558139534885,"velocity":0.18110236220472442},{"duration":0.04651162790696617,"midi":64,"time":138.3372093023256,"velocity":0.2125984251968504},{"duration":0.023255813953483084,"midi":82,"time":138.3372093023256,"velocity":0.2755905511811024},{"duration":0.011627906976741542,"midi":44,"time":138.34883720930233,"velocity":0.5905511811023622},{"duration":0.034883720930224626,"midi":88,"time":138.34883720930233,"velocity":0.25196850393700787},{"duration":0.023255813953483084,"midi":42,"time":138.36046511627907,"velocity":0.5748031496062992},{"duration":0.034883720930224626,"midi":74,"time":138.36046511627907,"velocity":0.18110236220472442},{"duration":0.034883720930224626,"midi":80,"time":138.36046511627907,"velocity":0.07874015748031496},{"duration":0.023255813953483084,"midi":53,"time":138.3953488372093,"velocity":0.2283464566929134},{"duration":0.04651162790699459,"midi":75,"time":138.3953488372093,"velocity":0.1968503937007874},{"duration":0.023255813953483084,"midi":37,"time":138.40697674418604,"velocity":0.4015748031496063},{"duration":0.03488372093025305,"midi":52,"time":138.41860465116278,"velocity":0.18110236220472442},{"duration":0.03488372093025305,"midi":36,"time":138.43023255813952,"velocity":0.33070866141732286},{"duration":0.09302325581393234,"midi":87,"time":138.4418604651163,"velocity":0.11811023622047244},{"duration":0.10465116279067388,"midi":75,"time":138.45348837209303,"velocity":0.16535433070866143},{"duration":0.04651162790699459,"midi":51,"time":138.52325581395348,"velocity":0.15748031496062992},{"duration":0.03488372093025305,"midi":91,"time":138.53488372093022,"velocity":0.07874015748031496},{"duration":0.03488372093025305,"midi":64,"time":138.5581395348837,"velocity":0.08661417322834646},{"duration":0.04651162790696617,"midi":52,"time":138.56976744186048,"velocity":0.10236220472440945},{"duration":0.04651162790696617,"midi":60,"time":138.56976744186048,"velocity":0.14173228346456693},{"duration":0.034883720930224626,"midi":66,"time":138.82558139534885,"velocity":0.14960629921259844},{"duration":0.011627906976741542,"midi":48,"time":138.84883720930233,"velocity":0.5511811023622047},{"duration":0.011627906976741542,"midi":45,"time":138.86046511627907,"velocity":0.6299212598425197},{"duration":0.011627906976741542,"midi":44,"time":138.87209302325581,"velocity":0.6299212598425197},{"duration":0.011627906976741542,"midi":43,"time":138.88372093023256,"velocity":0.5984251968503937},{"duration":0.011627906976741542,"midi":42,"time":138.8953488372093,"velocity":0.5669291338582677},{"duration":0.023255813953483084,"midi":37,"time":138.9418604651163,"velocity":0.3937007874015748},{"duration":0.034883720930224626,"midi":36,"time":138.96511627906978,"velocity":0.31496062992125984},{"duration":0.06976744186044925,"midi":58,"time":139.08139534883722,"velocity":0.25984251968503935},{"duration":0.06976744186044925,"midi":70,"time":139.08139534883722,"velocity":0.36220472440944884},{"duration":0.05813953488370771,"midi":82,"time":139.08139534883722,"velocity":0.4251968503937008},{"duration":0.04651162790696617,"midi":77,"time":139.09302325581396,"velocity":0.10236220472440945},{"duration":0.034883720930224626,"midi":83,"time":139.13953488372093,"velocity":0.3858267716535433},{"duration":0.08139534883721922,"midi":72,"time":139.1627906976744,"velocity":0.3700787401574803},{"duration":0.03488372093025305,"midi":60,"time":139.17441860465115,"velocity":0.14960629921259844},{"duration":0.05813953488373613,"midi":84,"time":139.17441860465115,"velocity":0.3937007874015748},{"duration":0.03488372093025305,"midi":100,"time":139.17441860465115,"velocity":0.14173228346456693},{"duration":0.06976744186047767,"midi":82,"time":139.27906976744185,"velocity":0.18110236220472442},{"duration":0.04651162790699459,"midi":70,"time":139.2906976744186,"velocity":0.15748031496062992},{"duration":0.06976744186044925,"midi":83,"time":139.3372093023256,"velocity":0.29133858267716534},{"duration":0.04651162790696617,"midi":62,"time":139.34883720930233,"velocity":0.4015748031496063},{"duration":0.034883720930224626,"midi":92,"time":139.34883720930233,"velocity":0.1732283464566929},{"duration":0.06976744186044925,"midi":99,"time":139.34883720930233,"velocity":0.2125984251968504},{"duration":0.06976744186044925,"midi":101,"time":139.34883720930233,"velocity":0.2204724409448819},{"duration":0.09302325581396076,"midi":102,"time":139.34883720930233,"velocity":0.23622047244094488},{"duration":0.034883720930224626,"midi":77,"time":139.36046511627907,"velocity":0.09448818897637795},{"duration":0.034883720930224626,"midi":79,"time":139.36046511627907,"velocity":0.14173228346456693},{"duration":0.034883720930224626,"midi":81,"time":139.36046511627907,"velocity":0.14173228346456693},{"duration":0.034883720930224626,"midi":87,"time":139.36046511627907,"velocity":0.1732283464566929},{"duration":0.06976744186044925,"midi":88,"time":139.36046511627907,"velocity":0.25196850393700787},{"duration":0.08139534883721922,"midi":90,"time":139.36046511627907,"velocity":0.29133858267716534},{"duration":0.09302325581396076,"midi":93,"time":139.36046511627907,"velocity":0.16535433070866143},{"duration":0.08139534883721922,"midi":94,"time":139.36046511627907,"velocity":0.14173228346456693},{"duration":0.08139534883721922,"midi":96,"time":139.36046511627907,"velocity":0.11023622047244094},{"duration":0.05813953488370771,"midi":97,"time":139.36046511627907,"velocity":0.14173228346456693},{"duration":0.034883720930224626,"midi":98,"time":139.36046511627907,"velocity":0.08661417322834646},{"duration":0.09302325581396076,"midi":103,"time":139.36046511627907,"velocity":0.2047244094488189},{"duration":0.023255813953483084,"midi":45,"time":139.37209302325581,"velocity":0.5669291338582677},{"duration":0.034883720930224626,"midi":71,"time":139.37209302325581,"velocity":0.28346456692913385},{"duration":0.06976744186047767,"midi":89,"time":139.37209302325581,"velocity":0.25196850393700787},{"duration":0.06976744186047767,"midi":85,"time":139.38372093023256,"velocity":0.10236220472440945},{"duration":0.011627906976741542,"midi":44,"time":139.3953488372093,"velocity":0.6141732283464567},{"duration":0.2906976744185954,"midi":82,"time":139.3953488372093,"velocity":0.3543307086614173},{"duration":0.011627906976741542,"midi":43,"time":139.40697674418604,"velocity":0.5826771653543307},{"duration":0.06976744186047767,"midi":58,"time":139.40697674418604,"velocity":0.2440944881889764},{"duration":0.2093023255814046,"midi":70,"time":139.40697674418604,"velocity":0.3543307086614173},{"duration":0.023255813953511506,"midi":42,"time":139.41860465116278,"velocity":0.5669291338582677},{"duration":0.03488372093025305,"midi":87,"time":139.41860465116278,"velocity":0.11811023622047244},{"duration":0.16279069767443843,"midi":77,"time":139.43023255813952,"velocity":0.2047244094488189},{"duration":0.2674418604651123,"midi":101,"time":139.45348837209303,"velocity":0.25984251968503935},{"duration":0.034883720930224626,"midi":102,"time":139.45348837209303,"velocity":0.16535433070866143},{"duration":0.023255813953483084,"midi":37,"time":139.46511627906978,"velocity":0.4015748031496063},{"duration":0.023255813953483084,"midi":36,"time":139.48837209302326,"velocity":0.31496062992125984},{"duration":0.04651162790696617,"midi":58,"time":139.48837209302326,"velocity":0.25196850393700787},{"duration":0.05813953488370771,"midi":96,"time":139.48837209302326,"velocity":0.08661417322834646},{"duration":0.04651162790699459,"midi":99,"time":139.53488372093022,"velocity":0.11023622047244094},{"duration":0.09302325581396076,"midi":58,"time":139.54651162790697,"velocity":0.3543307086614173},{"duration":0.04651162790696617,"midi":100,"time":139.58139534883722,"velocity":0.1732283464566929},{"duration":0.04651162790696617,"midi":102,"time":139.6046511627907,"velocity":0.2440944881889764},{"duration":0.023255813953483084,"midi":71,"time":139.61627906976744,"velocity":0.33070866141732286},{"duration":0.034883720930224626,"midi":83,"time":139.61627906976744,"velocity":0.36220472440944884},{"duration":0.034883720930224626,"midi":72,"time":139.63953488372093,"velocity":0.3700787401574803},{"duration":0.06976744186047767,"midi":87,"time":139.65116279069767,"velocity":0.2204724409448819},{"duration":0.08139534883721922,"midi":83,"time":139.6627906976744,"velocity":0.41732283464566927},{"duration":0.023255813953511506,"midi":71,"time":139.67441860465115,"velocity":0.2440944881889764},{"duration":0.04651162790699459,"midi":78,"time":139.67441860465115,"velocity":0.2440944881889764},{"duration":0.04651162790699459,"midi":102,"time":139.67441860465115,"velocity":0.23622047244094488},{"duration":0.04651162790699459,"midi":70,"time":139.6860465116279,"velocity":0.25196850393700787},{"duration":0.10465116279067388,"midi":58,"time":139.69767441860466,"velocity":0.25196850393700787},{"duration":0.1046511627907023,"midi":103,"time":139.7093023255814,"velocity":0.15748031496062992},{"duration":0.11627906976744384,"midi":77,"time":139.72093023255815,"velocity":0.2992125984251969},{"duration":0.11627906976744384,"midi":82,"time":139.72093023255815,"velocity":0.4330708661417323},{"duration":0.11627906976744384,"midi":86,"time":139.72093023255815,"velocity":0.1968503937007874},{"duration":0.1046511627907023,"midi":70,"time":139.74418604651163,"velocity":0.2992125984251969},{"duration":0.034883720930224626,"midi":58,"time":139.8139534883721,"velocity":0.1889763779527559},{"duration":0.04651162790696617,"midi":83,"time":139.8139534883721,"velocity":0.15748031496062992},{"duration":0.10465116279067388,"midi":102,"time":139.8139534883721,"velocity":0.1968503937007874},{"duration":0.034883720930224626,"midi":72,"time":139.8372093023256,"velocity":0.1889763779527559},{"duration":0.023255813953483084,"midi":76,"time":139.8372093023256,"velocity":0.31496062992125984},{"duration":0.05813953488370771,"midi":81,"time":139.8372093023256,"velocity":0.36220472440944884},{"duration":0.04651162790696617,"midi":57,"time":139.84883720930233,"velocity":0.28346456692913385},{"duration":0.034883720930224626,"midi":68,"time":139.86046511627907,"velocity":0.1968503937007874},{"duration":0.034883720930224626,"midi":75,"time":139.86046511627907,"velocity":0.3858267716535433},{"duration":0.023255813953483084,"midi":80,"time":139.86046511627907,"velocity":0.2677165354330709},{"duration":0.034883720930224626,"midi":84,"time":139.86046511627907,"velocity":0.1889763779527559},{"duration":0.034883720930224626,"midi":95,"time":139.87209302325581,"velocity":0.16535433070866143},{"duration":0.034883720930224626,"midi":79,"time":139.88372093023256,"velocity":0.15748031496062992},{"duration":0.04651162790696617,"midi":83,"time":139.88372093023256,"velocity":0.1968503937007874},{"duration":0.034883720930224626,"midi":74,"time":139.8953488372093,"velocity":0.3228346456692913},{"duration":0.011627906976741542,"midi":48,"time":139.90697674418604,"velocity":0.5511811023622047},{"duration":0.13953488372092693,"midi":82,"time":139.90697674418604,"velocity":0.2125984251968504},{"duration":0.011627906976741542,"midi":45,"time":139.91860465116278,"velocity":0.6299212598425197},{"duration":0.1046511627907023,"midi":68,"time":139.91860465116278,"velocity":0.2283464566929134},{"duration":0.1046511627907023,"midi":80,"time":139.91860465116278,"velocity":0.23622047244094488},{"duration":0.011627906976769964,"midi":44,"time":139.93023255813952,"velocity":0.6220472440944882},{"duration":0.11627906976744384,"midi":75,"time":139.93023255813952,"velocity":0.3779527559055118},{"duration":0.08139534883721922,"midi":84,"time":139.93023255813952,"velocity":0.2283464566929134},{"duration":0.011627906976741542,"midi":43,"time":139.9418604651163,"velocity":0.5984251968503937},{"duration":0.09302325581393234,"midi":56,"time":139.9418604651163,"velocity":0.2992125984251969},{"duration":0.011627906976741542,"midi":42,"time":139.95348837209303,"velocity":0.5590551181102362},{"duration":0.034883720930224626,"midi":102,"time":139.96511627906978,"velocity":0.07086614173228346},{"duration":0.04651162790696617,"midi":77,"time":140,"velocity":0.07874015748031496},{"duration":0.034883720930224626,"midi":36,"time":140.01162790697674,"velocity":0.3543307086614173},{"duration":0.11627906976744384,"midi":83,"time":140.01162790697674,"velocity":0.29133858267716534},{"duration":0.05813953488373613,"midi":102,"time":140.01162790697674,"velocity":0.10236220472440945},{"duration":0.034883720930224626,"midi":79,"time":140.02325581395348,"velocity":0.18110236220472442},{"duration":0.023255813953483084,"midi":74,"time":140.03488372093022,"velocity":0.3700787401574803},{"duration":0.16279069767443843,"midi":56,"time":140.04651162790697,"velocity":0.3543307086614173},{"duration":0.06976744186047767,"midi":75,"time":140.0581395348837,"velocity":0.3858267716535433},{"duration":0.12790697674418539,"midi":80,"time":140.0581395348837,"velocity":0.3228346456692913},{"duration":0.06976744186044925,"midi":84,"time":140.08139534883722,"velocity":0.14960629921259844},{"duration":0.05813953488373613,"midi":75,"time":140.13953488372093,"velocity":0.3779527559055118},{"duration":0.034883720930224626,"midi":82,"time":140.13953488372093,"velocity":0.07874015748031496},{"duration":0.1046511627907023,"midi":83,"time":140.15116279069767,"velocity":0.3700787401574803},{"duration":0.04651162790699459,"midi":72,"time":140.1627906976744,"velocity":0.2755905511811024},{"duration":0.03488372093025305,"midi":101,"time":140.1627906976744,"velocity":0.08661417322834646},{"duration":0.05813953488373613,"midi":67,"time":140.1860465116279,"velocity":0.18110236220472442},{"duration":0.04651162790696617,"midi":74,"time":140.19767441860466,"velocity":0.31496062992125984},{"duration":0.05813953488370771,"midi":55,"time":140.2093023255814,"velocity":0.36220472440944884},{"duration":0.04651162790696617,"midi":71,"time":140.2093023255814,"velocity":0.12598425196850394},{"duration":0.04651162790696617,"midi":78,"time":140.2093023255814,"velocity":0.11023622047244094},{"duration":0.04651162790696617,"midi":80,"time":140.2325581395349,"velocity":0.28346456692913385},{"duration":0.034883720930224626,"midi":68,"time":140.24418604651163,"velocity":0.1968503937007874},{"duration":0.04651162790696617,"midi":75,"time":140.24418604651163,"velocity":0.3779527559055118},{"duration":0.05813953488370771,"midi":84,"time":140.24418604651163,"velocity":0.14960629921259844},{"duration":0.11627906976744384,"midi":82,"time":140.25581395348837,"velocity":0.3228346456692913},{"duration":0.034883720930224626,"midi":56,"time":140.2674418604651,"velocity":0.3937007874015748},{"duration":0.11627906976744384,"midi":70,"time":140.2674418604651,"velocity":0.14960629921259844},{"duration":0.04651162790699459,"midi":76,"time":140.27906976744185,"velocity":0.31496062992125984},{"duration":0.09302325581396076,"midi":77,"time":140.27906976744185,"velocity":0.18110236220472442},{"duration":0.04651162790699459,"midi":81,"time":140.27906976744185,"velocity":0.33858267716535434},{"duration":0.03488372093025305,"midi":57,"time":140.30232558139534,"velocity":0.3937007874015748},{"duration":0.034883720930224626,"midi":68,"time":140.32558139534885,"velocity":0.13385826771653545},{"duration":0.034883720930224626,"midi":75,"time":140.32558139534885,"velocity":0.3543307086614173},{"duration":0.04651162790696617,"midi":80,"time":140.32558139534885,"velocity":0.2440944881889764},{"duration":0.034883720930224626,"midi":56,"time":140.3372093023256,"velocity":0.31496062992125984},{"duration":0.034883720930224626,"midi":67,"time":140.36046511627907,"velocity":0.1968503937007874},{"duration":0.034883720930224626,"midi":74,"time":140.36046511627907,"velocity":0.30708661417322836},{"duration":0.034883720930224626,"midi":55,"time":140.37209302325581,"velocity":0.41732283464566927},{"duration":0.034883720930224626,"midi":81,"time":140.37209302325581,"velocity":0.25196850393700787},{"duration":0.023255813953483084,"midi":68,"time":140.3953488372093,"velocity":0.3543307086614173},{"duration":0.11627906976744384,"midi":75,"time":140.3953488372093,"velocity":0.3464566929133858},{"duration":0.04651162790699459,"midi":83,"time":140.3953488372093,"velocity":0.13385826771653545},{"duration":0.08139534883721922,"midi":88,"time":140.40697674418604,"velocity":0.25196850393700787},{"duration":0.09302325581396076,"midi":90,"time":140.40697674418604,"velocity":0.2755905511811024},{"duration":0.06976744186047767,"midi":96,"time":140.40697674418604,"velocity":0.15748031496062992},{"duration":0.06976744186047767,"midi":99,"time":140.40697674418604,"velocity":0.18110236220472442},{"duration":0.023255813953511506,"midi":53,"time":140.41860465116278,"velocity":0.5039370078740157},{"duration":0.023255813953511506,"midi":60,"time":140.41860465116278,"velocity":0.4094488188976378},{"duration":0.1046511627907023,"midi":85,"time":140.41860465116278,"velocity":0.1732283464566929},{"duration":0.08139534883721922,"midi":93,"time":140.41860465116278,"velocity":0.16535433070866143},{"duration":0.06976744186047767,"midi":94,"time":140.41860465116278,"velocity":0.1889763779527559},{"duration":0.08139534883721922,"midi":97,"time":140.41860465116278,"velocity":0.1968503937007874},{"duration":0.04651162790699459,"midi":98,"time":140.41860465116278,"velocity":0.14960629921259844},{"duration":0.05813953488373613,"midi":101,"time":140.41860465116278,"velocity":0.14173228346456693},{"duration":0.023255813953511506,"midi":45,"time":140.43023255813952,"velocity":0.5669291338582677},{"duration":0.1046511627907023,"midi":68,"time":140.43023255813952,"velocity":0.23622047244094488},{"duration":0.06976744186047767,"midi":89,"time":140.43023255813952,"velocity":0.2283464566929134},{"duration":0.034883720930224626,"midi":81,"time":140.4418604651163,"velocity":0.1732283464566929},{"duration":0.011627906976741542,"midi":44,"time":140.45348837209303,"velocity":0.6141732283464567},{"duration":0.034883720930224626,"midi":83,"time":140.45348837209303,"velocity":0.15748031496062992},{"duration":0.04651162790696617,"midi":91,"time":140.45348837209303,"velocity":0.14960629921259844},{"duration":0.011627906976741542,"midi":43,"time":140.46511627906978,"velocity":0.5905511811023622},{"duration":0.023255813953483084,"midi":42,"time":140.47674418604652,"velocity":0.5748031496062992},{"duration":0.034883720930224626,"midi":56,"time":140.48837209302326,"velocity":0.28346456692913385},{"duration":0.034883720930224626,"midi":84,"time":140.48837209302326,"velocity":0.11023622047244094},{"duration":0.023255813953483084,"midi":37,"time":140.52325581395348,"velocity":0.4015748031496063},{"duration":0.034883720930224626,"midi":75,"time":140.52325581395348,"velocity":0.36220472440944884},{"duration":0.08139534883721922,"midi":83,"time":140.52325581395348,"velocity":0.16535433070866143},{"duration":0.023255813953483084,"midi":56,"time":140.53488372093022,"velocity":0.3937007874015748},{"duration":0.023255813953511506,"midi":36,"time":140.54651162790697,"velocity":0.31496062992125984},{"duration":0.023255813953511506,"midi":55,"time":140.5581395348837,"velocity":0.4094488188976378},{"duration":0.04651162790699459,"midi":74,"time":140.5581395348837,"velocity":0.29133858267716534},{"duration":0.10465116279067388,"midi":68,"time":140.56976744186048,"velocity":0.2047244094488189},{"duration":0.04651162790696617,"midi":56,"time":140.58139534883722,"velocity":0.4094488188976378},{"duration":0.1046511627907023,"midi":80,"time":140.59302325581396,"velocity":0.2440944881889764},{"duration":0.12790697674418539,"midi":75,"time":140.6046511627907,"velocity":0.29133858267716534},{"duration":0.034883720930224626,"midi":84,"time":140.6046511627907,"velocity":0.07874015748031496},{"duration":0.023255813953483084,"midi":56,"time":140.63953488372093,"velocity":0.2755905511811024},{"duration":0.023255813953483084,"midi":55,"time":140.6627906976744,"velocity":0.29133858267716534},{"duration":0.04651162790699459,"midi":56,"time":140.6860465116279,"velocity":0.3464566929133858},{"duration":0.04651162790699459,"midi":72,"time":140.6860465116279,"velocity":0.1732283464566929},{"duration":0.09302325581396076,"midi":83,"time":140.6860465116279,"velocity":0.2204724409448819},{"duration":0.034883720930224626,"midi":74,"time":140.7325581395349,"velocity":0.12598425196850394},{"duration":0.04651162790699459,"midi":75,"time":140.7674418604651,"velocity":0.14960629921259844},{"duration":0.12790697674418539,"midi":82,"time":140.77906976744185,"velocity":0.15748031496062992},{"duration":0.05813953488373613,"midi":81,"time":140.80232558139534,"velocity":0.1732283464566929},{"duration":0.04651162790696617,"midi":76,"time":140.8139534883721,"velocity":0.13385826771653545},{"duration":0.023255813953483084,"midi":57,"time":140.84883720930233,"velocity":0.2283464566929134},{"duration":0.034883720930224626,"midi":75,"time":140.86046511627907,"velocity":0.09448818897637795},{"duration":0.034883720930224626,"midi":56,"time":140.87209302325581,"velocity":0.14173228346456693},{"duration":0.12790697674418539,"midi":75,"time":140.91860465116278,"velocity":0.2204724409448819},{"duration":0.011627906976741542,"midi":48,"time":140.96511627906978,"velocity":0.5511811023622047},{"duration":0.011627906976741542,"midi":45,"time":140.97674418604652,"velocity":0.6299212598425197},{"duration":0.011627906976741542,"midi":44,"time":140.98837209302326,"velocity":0.6220472440944882},{"duration":0.011627906976741542,"midi":43,"time":141,"velocity":0.5984251968503937},{"duration":0.011627906976741542,"midi":42,"time":141.01162790697674,"velocity":0.5590551181102362},{"duration":0.04651162790696617,"midi":36,"time":141.06976744186048,"velocity":0.3543307086614173},{"duration":0.04651162790696617,"midi":74,"time":141.08139534883722,"velocity":0.07874015748031496},{"duration":0.04651162790696617,"midi":56,"time":141.09302325581396,"velocity":0.11023622047244094},{"duration":0.034883720930224626,"midi":51,"time":141.13953488372093,"velocity":0.25196850393700787},{"duration":0.05813953488373613,"midi":75,"time":141.13953488372093,"velocity":0.09448818897637795},{"duration":0.04651162790696617,"midi":93,"time":141.19767441860466,"velocity":0.16535433070866143},{"duration":0.034883720930224626,"midi":94,"time":141.19767441860466,"velocity":0.11811023622047244},{"duration":0.06976744186044925,"midi":102,"time":141.19767441860466,"velocity":0.14173228346456693},{"duration":0.034883720930224626,"midi":103,"time":141.2093023255814,"velocity":0.12598425196850394},{"duration":0.023255813953483084,"midi":56,"time":141.22093023255815,"velocity":0.3779527559055118},{"duration":0.15116279069766847,"midi":70,"time":141.2325581395349,"velocity":0.4015748031496063},{"duration":0.11627906976744384,"midi":82,"time":141.24418604651163,"velocity":0.4251968503937008},{"duration":0.1046511627907023,"midi":77,"time":141.25581395348837,"velocity":0.25196850393700787},{"duration":0.034883720930224626,"midi":98,"time":141.25581395348837,"velocity":0.1968503937007874},{"duration":0.06976744186047767,"midi":100,"time":141.2906976744186,"velocity":0.12598425196850394},{"duration":0.06976744186047767,"midi":58,"time":141.30232558139534,"velocity":0.1968503937007874},{"duration":0.034883720930224626,"midi":81,"time":141.36046511627907,"velocity":0.29133858267716534},{"duration":0.05813953488373613,"midi":56,"time":141.38372093023256,"velocity":0.25984251968503935},{"duration":0.03488372093025305,"midi":70,"time":141.43023255813952,"velocity":0.18110236220472442},{"duration":0.13953488372092693,"midi":82,"time":141.4418604651163,"velocity":0.2755905511811024},{"duration":0.023255813953483084,"midi":58,"time":141.45348837209303,"velocity":0.3700787401574803},{"duration":0.034883720930224626,"midi":53,"time":141.46511627906978,"velocity":0.49606299212598426},{"duration":0.12790697674418539,"midi":88,"time":141.46511627906978,"velocity":0.23622047244094488},{"duration":0.09302325581393234,"midi":90,"time":141.46511627906978,"velocity":0.30708661417322836},{"duration":0.06976744186044925,"midi":92,"time":141.46511627906978,"velocity":0.2204724409448819},{"duration":0.0813953488371908,"midi":95,"time":141.46511627906978,"velocity":0.1732283464566929},{"duration":0.05813953488370771,"midi":96,"time":141.46511627906978,"velocity":0.2047244094488189},{"duration":0.0813953488371908,"midi":97,"time":141.46511627906978,"velocity":0.15748031496062992},{"duration":0.0813953488371908,"midi":101,"time":141.46511627906978,"velocity":0.1889763779527559},{"duration":0.04651162790696617,"midi":70,"time":141.47674418604652,"velocity":0.2283464566929134},{"duration":0.12790697674418539,"midi":86,"time":141.47674418604652,"velocity":0.2992125984251969},{"duration":0.13953488372092693,"midi":89,"time":141.47674418604652,"velocity":0.2440944881889764},{"duration":0.04651162790696617,"midi":93,"time":141.47674418604652,"velocity":0.14960629921259844},{"duration":0.06976744186044925,"midi":99,"time":141.47674418604652,"velocity":0.1732283464566929},{"duration":0.023255813953483084,"midi":45,"time":141.48837209302326,"velocity":0.5590551181102362},{"duration":0.09302325581396076,"midi":77,"time":141.48837209302326,"velocity":0.2440944881889764},{"duration":0.04651162790696617,"midi":83,"time":141.48837209302326,"velocity":0.12598425196850394},{"duration":0.06976744186047767,"midi":85,"time":141.5,"velocity":0.10236220472440945},{"duration":0.04651162790696617,"midi":91,"time":141.5,"velocity":0.13385826771653545},{"duration":0.011627906976741542,"midi":44,"time":141.51162790697674,"velocity":0.6062992125984252},{"duration":0.011627906976741542,"midi":43,"time":141.52325581395348,"velocity":0.5826771653543307},{"duration":0.034883720930224626,"midi":87,"time":141.52325581395348,"velocity":0.12598425196850394},{"duration":0.023255813953483084,"midi":42,"time":141.53488372093022,"velocity":0.5669291338582677},{"duration":0.05813953488373613,"midi":58,"time":141.53488372093022,"velocity":0.18110236220472442},{"duration":0.023255813953511506,"midi":52,"time":141.54651162790697,"velocity":0.2755905511811024},{"duration":0.023255813953483084,"midi":37,"time":141.58139534883722,"velocity":0.3937007874015748},{"duration":0.034883720930224626,"midi":76,"time":141.58139534883722,"velocity":0.1732283464566929},{"duration":0.023255813953483084,"midi":36,"time":141.6046511627907,"velocity":0.3228346456692913},{"duration":0.04651162790696617,"midi":77,"time":141.61627906976744,"velocity":0.08661417322834646},{"duration":0.034883720930224626,"midi":35,"time":141.62790697674419,"velocity":0.1968503937007874},{"duration":0.023255813953511506,"midi":56,"time":141.67441860465115,"velocity":0.2283464566929134},{"duration":0.06976744186047767,"midi":82,"time":141.6860465116279,"velocity":0.1889763779527559},{"duration":0.04651162790696617,"midi":52,"time":141.7093023255814,"velocity":0.14173228346456693},{"duration":0.05813953488370771,"midi":86,"time":141.7325581395349,"velocity":0.10236220472440945},{"duration":0.2674418604651123,"midi":91,"time":141.75581395348837,"velocity":0.31496062992125984},{"duration":0.2674418604651123,"midi":94,"time":141.75581395348837,"velocity":0.28346456692913385},{"duration":0.2674418604651123,"midi":96,"time":141.75581395348837,"velocity":0.2992125984251969},{"duration":0.2325581395348877,"midi":60,"time":141.7674418604651,"velocity":0.3779527559055118},{"duration":0.11627906976744384,"midi":98,"time":141.7674418604651,"velocity":0.13385826771653545},{"duration":0.17441860465117998,"midi":103,"time":141.80232558139534,"velocity":0.3543307086614173},{"duration":0.04651162790696617,"midi":101,"time":141.82558139534885,"velocity":0.09448818897637795},{"duration":0.06976744186044925,"midi":98,"time":141.95348837209303,"velocity":0.1968503937007874},{"duration":0.06976744186044925,"midi":100,"time":141.95348837209303,"velocity":0.2047244094488189},{"duration":0.16279069767441,"midi":102,"time":141.95348837209303,"velocity":0.2283464566929134},{"duration":0.19767441860463464,"midi":92,"time":141.98837209302326,"velocity":0.33858267716535434},{"duration":0.1860465116278931,"midi":97,"time":141.98837209302326,"velocity":0.2677165354330709},{"duration":0.034883720930224626,"midi":61,"time":142,"velocity":0.3858267716535433},{"duration":0.15116279069766847,"midi":99,"time":142,"velocity":0.2283464566929134},{"duration":0.16279069767441,"midi":101,"time":142,"velocity":0.1889763779527559},{"duration":0.011627906976741542,"midi":48,"time":142.02325581395348,"velocity":0.5511811023622047},{"duration":0.011627906976741542,"midi":45,"time":142.03488372093022,"velocity":0.6299212598425197},{"duration":0.011627906976741542,"midi":44,"time":142.04651162790697,"velocity":0.6220472440944882},{"duration":0.11627906976744384,"midi":61,"time":142.04651162790697,"velocity":0.25984251968503935},{"duration":0.011627906976769964,"midi":43,"time":142.0581395348837,"velocity":0.5984251968503937},{"duration":0.13953488372095535,"midi":95,"time":142.0581395348837,"velocity":0.3779527559055118},{"duration":0.011627906976741542,"midi":42,"time":142.06976744186048,"velocity":0.5590551181102362},{"duration":0.034883720930224626,"midi":80,"time":142.09302325581396,"velocity":0.07086614173228346},{"duration":0.034883720930224626,"midi":103,"time":142.11627906976744,"velocity":0.2204724409448819},{"duration":0.04651162790696617,"midi":36,"time":142.12790697674419,"velocity":0.3464566929133858},{"duration":0.09302325581396076,"midi":73,"time":142.22093023255815,"velocity":0.18110236220472442},{"duration":0.09302325581396076,"midi":92,"time":142.25581395348837,"velocity":0.07874015748031496},{"duration":0.04651162790699459,"midi":59,"time":142.2674418604651,"velocity":0.3700787401574803},{"duration":0.05813953488373613,"midi":95,"time":142.2674418604651,"velocity":0.2283464566929134},{"duration":0.04651162790699459,"midi":99,"time":142.2674418604651,"velocity":0.13385826771653545},{"duration":0.1046511627907023,"midi":100,"time":142.27906976744185,"velocity":0.1732283464566929},{"duration":0.16279069767443843,"midi":98,"time":142.2906976744186,"velocity":0.2204724409448819},{"duration":0.13953488372092693,"midi":103,"time":142.2906976744186,"velocity":0.25984251968503935},{"duration":0.06976744186047767,"midi":101,"time":142.30232558139534,"velocity":0.11023622047244094},{"duration":0.16279069767441,"midi":58,"time":142.3139534883721,"velocity":0.3779527559055118},{"duration":0.09302325581393234,"midi":94,"time":142.3139534883721,"velocity":0.3543307086614173},{"duration":0.08139534883721922,"midi":96,"time":142.3953488372093,"velocity":0.12598425196850394},{"duration":0.1046511627907023,"midi":94,"time":142.41860465116278,"velocity":0.12598425196850394},{"duration":0.023255813953483084,"midi":57,"time":142.47674418604652,"velocity":0.41732283464566927},{"duration":0.023255813953483084,"midi":63,"time":142.51162790697674,"velocity":0.3779527559055118},{"duration":0.04651162790699459,"midi":82,"time":142.52325581395348,"velocity":0.1732283464566929},{"duration":0.04651162790699459,"midi":87,"time":142.52325581395348,"velocity":0.29133858267716534},{"duration":0.09302325581396076,"midi":88,"time":142.52325581395348,"velocity":0.2440944881889764},{"duration":0.09302325581396076,"midi":90,"time":142.52325581395348,"velocity":0.2755905511811024},{"duration":0.034883720930224626,"midi":95,"time":142.52325581395348,"velocity":0.2125984251968504},{"duration":0.05813953488373613,"midi":96,"time":142.52325581395348,"velocity":0.2204724409448819},{"duration":0.08139534883721922,"midi":97,"time":142.52325581395348,"velocity":0.12598425196850394},{"duration":0.06976744186047767,"midi":101,"time":142.52325581395348,"velocity":0.1889763779527559},{"duration":0.023255813953483084,"midi":53,"time":142.53488372093022,"velocity":0.49606299212598426},{"duration":0.03488372093025305,"midi":77,"time":142.53488372093022,"velocity":0.11811023622047244},{"duration":0.03488372093025305,"midi":79,"time":142.53488372093022,"velocity":0.15748031496062992},{"duration":0.1046511627907023,"midi":98,"time":142.53488372093022,"velocity":0.28346456692913385},{"duration":0.06976744186047767,"midi":103,"time":142.53488372093022,"velocity":0.18110236220472442},{"duration":0.023255813953511506,"midi":45,"time":142.54651162790697,"velocity":0.5669291338582677},{"duration":0.023255813953511506,"midi":60,"time":142.54651162790697,"velocity":0.29133858267716534},{"duration":0.06976744186047767,"midi":85,"time":142.54651162790697,"velocity":0.2440944881889764},{"duration":0.06976744186047767,"midi":89,"time":142.54651162790697,"velocity":0.2047244094488189},{"duration":0.06976744186047767,"midi":93,"time":142.54651162790697,"velocity":0.07874015748031496},{"duration":0.04651162790699459,"midi":81,"time":142.5581395348837,"velocity":0.14173228346456693},{"duration":0.04651162790699459,"midi":83,"time":142.5581395348837,"velocity":0.14960629921259844},{"duration":0.011627906976741542,"midi":44,"time":142.56976744186048,"velocity":0.6220472440944882},{"duration":0.04651162790696617,"midi":76,"time":142.56976744186048,"velocity":0.2992125984251969},{"duration":0.011627906976741542,"midi":43,"time":142.58139534883722,"velocity":0.5905511811023622},{"duration":0.04651162790696617,"midi":69,"time":142.58139534883722,"velocity":0.14173228346456693},{"duration":0.023255813953483084,"midi":42,"time":142.59302325581396,"velocity":0.5669291338582677},{"duration":0.023255813953483084,"midi":56,"time":142.59302325581396,"velocity":0.3228346456692913},{"duration":0.11627906976744384,"midi":80,"time":142.6046511627907,"velocity":0.2047244094488189},{"duration":0.04651162790696617,"midi":84,"time":142.6046511627907,"velocity":0.2283464566929134},{"duration":0.023255813953483084,"midi":57,"time":142.61627906976744,"velocity":0.28346456692913385},{"duration":0.1046511627907023,"midi":75,"time":142.61627906976744,"velocity":0.3700787401574803},{"duration":0.023255813953483084,"midi":53,"time":142.62790697674419,"velocity":0.2283464566929134},{"duration":0.09302325581396076,"midi":68,"time":142.62790697674419,"velocity":0.2047244094488189},{"duration":0.023255813953483084,"midi":37,"time":142.63953488372093,"velocity":0.3937007874015748},{"duration":0.04651162790699459,"midi":100,"time":142.65116279069767,"velocity":0.08661417322834646},{"duration":0.023255813953483084,"midi":36,"time":142.6627906976744,"velocity":0.3228346456692913},{"duration":0.04651162790699459,"midi":84,"time":142.67441860465115,"velocity":0.1968503937007874},{"duration":0.023255813953483084,"midi":56,"time":142.69767441860466,"velocity":0.30708661417322836},{"duration":0.06976744186044925,"midi":98,"time":142.69767441860466,"velocity":0.07086614173228346},{"duration":0.06976744186044925,"midi":88,"time":142.7093023255814,"velocity":0.33858267716535434},{"duration":0.034883720930224626,"midi":101,"time":142.7093023255814,"velocity":0.10236220472440945},{"duration":0.023255813953483084,"midi":57,"time":142.72093023255815,"velocity":0.25984251968503935},{"duration":0.023255813953483084,"midi":76,"time":142.72093023255815,"velocity":0.3228346456692913},{"duration":0.023255813953483084,"midi":85,"time":142.72093023255815,"velocity":0.25196850393700787},{"duration":0.06976744186047767,"midi":56,"time":142.74418604651163,"velocity":0.2992125984251969},{"duration":0.12790697674418539,"midi":75,"time":142.74418604651163,"velocity":0.3543307086614173},{"duration":0.08139534883721922,"midi":84,"time":142.74418604651163,"velocity":0.2125984251968504},{"duration":0.09302325581396076,"midi":99,"time":142.74418604651163,"velocity":0.12598425196850394},{"duration":0.04651162790699459,"midi":100,"time":142.77906976744185,"velocity":0.10236220472440945},{"duration":0.09302325581393234,"midi":101,"time":142.8139534883721,"velocity":0.1889763779527559},{"duration":0.05813953488370771,"midi":102,"time":142.8139534883721,"velocity":0.11811023622047244},{"duration":0.023255813953483084,"midi":57,"time":142.8372093023256,"velocity":0.25984251968503935},{"duration":0.034883720930224626,"midi":81,"time":142.8372093023256,"velocity":0.07874015748031496},{"duration":0.034883720930224626,"midi":100,"time":142.8372093023256,"velocity":0.18110236220472442},{"duration":0.08139534883721922,"midi":56,"time":142.86046511627907,"velocity":0.2992125984251969},{"duration":0.04651162790696617,"midi":75,"time":142.88372093023256,"velocity":0.1889763779527559},{"duration":0.10465116279067388,"midi":75,"time":142.95348837209303,"velocity":0.2047244094488189},{"duration":0.06976744186047767,"midi":56,"time":143,"velocity":0.2283464566929134},{"duration":0.03488372093025305,"midi":66,"time":143.0581395348837,"velocity":0.14960629921259844},{"duration":0.011627906976741542,"midi":48,"time":143.08139534883722,"velocity":0.5433070866141733},{"duration":0.011627906976741542,"midi":45,"time":143.09302325581396,"velocity":0.6220472440944882},{"duration":0.011627906976741542,"midi":44,"time":143.1046511627907,"velocity":0.6220472440944882},{"duration":0.11627906976744384,"midi":77,"time":143.1046511627907,"velocity":0.23622047244094488},{"duration":0.011627906976741542,"midi":43,"time":143.11627906976744,"velocity":0.5984251968503937},{"duration":0.2093023255814046,"midi":61,"time":143.11627906976744,"velocity":0.25196850393700787},{"duration":0.011627906976741542,"midi":42,"time":143.12790697674419,"velocity":0.5590551181102362},{"duration":0.04651162790696617,"midi":66,"time":143.12790697674419,"velocity":0.18110236220472442},{"duration":0.023255813953511506,"midi":37,"time":143.17441860465115,"velocity":0.3937007874015748},{"duration":0.023255813953511506,"midi":66,"time":143.1860465116279,"velocity":0.23622047244094488},{"duration":0.034883720930224626,"midi":36,"time":143.19767441860466,"velocity":0.30708661417322836},{"duration":0.0813953488371908,"midi":65,"time":143.2093023255814,"velocity":0.1968503937007874},{"duration":0.06976744186044925,"midi":70,"time":143.3139534883721,"velocity":0.2047244094488189},{"duration":0.04651162790696617,"midi":94,"time":143.3139534883721,"velocity":0.11023622047244094},{"duration":0.034883720930224626,"midi":103,"time":143.3139534883721,"velocity":0.15748031496062992},{"duration":0.034883720930224626,"midi":93,"time":143.32558139534885,"velocity":0.13385826771653545},{"duration":0.13953488372092693,"midi":61,"time":143.3372093023256,"velocity":0.1968503937007874},{"duration":0.06976744186044925,"midi":80,"time":143.3372093023256,"velocity":0.31496062992125984},{"duration":0.034883720930224626,"midi":91,"time":143.3372093023256,"velocity":0.2283464566929134},{"duration":0.24418604651162923,"midi":58,"time":143.34883720930233,"velocity":0.33070866141732286},{"duration":0.17441860465115155,"midi":87,"time":143.34883720930233,"velocity":0.4409448818897638},{"duration":0.13953488372092693,"midi":68,"time":143.36046511627907,"velocity":0.33070866141732286},{"duration":0.04651162790699459,"midi":80,"time":143.41860465116278,"velocity":0.3543307086614173},{"duration":0.034883720930224626,"midi":78,"time":143.45348837209303,"velocity":0.14960629921259844},{"duration":0.023255813953483084,"midi":86,"time":143.46511627906978,"velocity":0.2283464566929134},{"duration":0.04651162790696617,"midi":89,"time":143.47674418604652,"velocity":0.15748031496062992},{"duration":0.08139534883721922,"midi":61,"time":143.48837209302326,"velocity":0.1968503937007874},{"duration":0.05813953488370771,"midi":65,"time":143.5,"velocity":0.23622047244094488},{"duration":0.04651162790696617,"midi":84,"time":143.51162790697674,"velocity":0.10236220472440945},{"duration":0.08139534883721922,"midi":68,"time":143.54651162790697,"velocity":0.4409448818897638},{"duration":0.11627906976741542,"midi":102,"time":143.56976744186048,"velocity":0.18110236220472442},{"duration":0.034883720930224626,"midi":72,"time":143.58139534883722,"velocity":0.13385826771653545},{"duration":0.04651162790696617,"midi":86,"time":143.58139534883722,"velocity":0.2283464566929134},{"duration":0.09302325581393234,"midi":90,"time":143.58139534883722,"velocity":0.29133858267716534},{"duration":0.10465116279067388,"midi":100,"time":143.58139534883722,"velocity":0.25984251968503935},{"duration":0.034883720930224626,"midi":103,"time":143.58139534883722,"velocity":0.2125984251968504},{"duration":0.023255813953483084,"midi":60,"time":143.59302325581396,"velocity":0.4094488188976378},{"duration":0.0813953488371908,"midi":89,"time":143.59302325581396,"velocity":0.2440944881889764},{"duration":0.0813953488371908,"midi":93,"time":143.59302325581396,"velocity":0.15748031496062992},{"duration":0.06976744186044925,"midi":94,"time":143.59302325581396,"velocity":0.2047244094488189},{"duration":0.0813953488371908,"midi":95,"time":143.59302325581396,"velocity":0.14173228346456693},{"duration":0.0813953488371908,"midi":96,"time":143.59302325581396,"velocity":0.11811023622047244},{"duration":0.04651162790696617,"midi":97,"time":143.59302325581396,"velocity":0.08661417322834646},{"duration":0.06976744186044925,"midi":99,"time":143.59302325581396,"velocity":0.14960629921259844},{"duration":0.034883720930224626,"midi":45,"time":143.6046511627907,"velocity":0.6141732283464567},{"duration":0.05813953488370771,"midi":83,"time":143.6046511627907,"velocity":0.14173228346456693},{"duration":0.06976744186044925,"midi":88,"time":143.6046511627907,"velocity":0.31496062992125984},{"duration":0.034883720930224626,"midi":91,"time":143.61627906976744,"velocity":0.11023622047244094},{"duration":0.034883720930224626,"midi":69,"time":143.62790697674419,"velocity":0.25196850393700787},{"duration":0.034883720930224626,"midi":81,"time":143.62790697674419,"velocity":0.25196850393700787},{"duration":0.06976744186047767,"midi":87,"time":143.62790697674419,"velocity":0.1889763779527559},{"duration":0.011627906976741542,"midi":44,"time":143.63953488372093,"velocity":0.5826771653543307},{"duration":0.023255813953483084,"midi":42,"time":143.65116279069767,"velocity":0.5669291338582677},{"duration":0.04651162790699459,"midi":80,"time":143.65116279069767,"velocity":0.12598425196850394},{"duration":0.034883720930224626,"midi":85,"time":143.65116279069767,"velocity":0.11811023622047244},{"duration":0.05813953488373613,"midi":68,"time":143.6627906976744,"velocity":0.3937007874015748},{"duration":0.05813953488373613,"midi":101,"time":143.6860465116279,"velocity":0.11811023622047244},{"duration":0.023255813953483084,"midi":37,"time":143.69767441860466,"velocity":0.3937007874015748},{"duration":0.034883720930224626,"midi":102,"time":143.69767441860466,"velocity":0.14173228346456693},{"duration":0.034883720930224626,"midi":52,"time":143.7093023255814,"velocity":0.14960629921259844},{"duration":0.034883720930224626,"midi":65,"time":143.7093023255814,"velocity":0.1968503937007874},{"duration":0.034883720930224626,"midi":36,"time":143.72093023255815,"velocity":0.31496062992125984},{"duration":0.06976744186047767,"midi":68,"time":143.7674418604651,"velocity":0.2755905511811024},{"duration":0.04651162790696617,"midi":51,"time":143.8139534883721,"velocity":0.12598425196850394},{"duration":0.034883720930224626,"midi":69,"time":143.82558139534885,"velocity":0.10236220472440945},{"duration":0.27906976744185386,"midi":60,"time":143.84883720930233,"velocity":0.2125984251968504},{"duration":0.05813953488370771,"midi":88,"time":143.84883720930233,"velocity":0.3543307086614173},{"duration":0.04651162790696617,"midi":102,"time":143.84883720930233,"velocity":0.2283464566929134},{"duration":0.023255813953483084,"midi":65,"time":143.86046511627907,"velocity":0.3543307086614173},{"duration":0.05813953488370771,"midi":76,"time":143.86046511627907,"velocity":0.3700787401574803},{"duration":0.034883720930224626,"midi":101,"time":143.86046511627907,"velocity":0.15748031496062992},{"duration":0.04651162790696617,"midi":83,"time":143.87209302325581,"velocity":0.18110236220472442},{"duration":0.27906976744185386,"midi":91,"time":143.87209302325581,"velocity":0.33070866141732286},{"duration":0.30232558139533694,"midi":97,"time":143.87209302325581,"velocity":0.18110236220472442},{"duration":0.2325581395348877,"midi":99,"time":143.87209302325581,"velocity":0.25196850393700787},{"duration":0.023255813953483084,"midi":64,"time":143.88372093023256,"velocity":0.25984251968503935},{"duration":0.05813953488373613,"midi":72,"time":143.88372093023256,"velocity":0.2204724409448819},{"duration":0.06976744186047767,"midi":94,"time":143.88372093023256,"velocity":0.14960629921259844},{"duration":0.06976744186047767,"midi":80,"time":143.8953488372093,"velocity":0.2125984251968504},{"duration":0.16279069767443843,"midi":68,"time":143.90697674418604,"velocity":0.2755905511811024},{"duration":0.05813953488373613,"midi":87,"time":143.90697674418604,"velocity":0.41732283464566927},{"duration":0.38372093023255616,"midi":75,"time":143.91860465116278,"velocity":0.3779527559055118},{"duration":0.18604651162792152,"midi":82,"time":143.91860465116278,"velocity":0.2992125984251969},{"duration":0.03488372093025305,"midi":63,"time":143.93023255813952,"velocity":0.2204724409448819},{"duration":0.05813953488370771,"midi":56,"time":143.95348837209303,"velocity":0.16535433070866143},{"duration":0.13953488372092693,"midi":101,"time":143.95348837209303,"velocity":0.2440944881889764},{"duration":0.0813953488371908,"midi":79,"time":143.96511627906978,"velocity":0.10236220472440945},{"duration":0.034883720930224626,"midi":63,"time":143.97674418604652,"velocity":0.15748031496062992},{"duration":0.04651162790699459,"midi":56,"time":144.02325581395348,"velocity":0.13385826771653545},{"duration":0.04651162790696617,"midi":102,"time":144.09302325581396,"velocity":0.2440944881889764},{"duration":0.034883720930224626,"midi":63,"time":144.1046511627907,"velocity":0.2204724409448819},{"duration":0.05813953488370771,"midi":68,"time":144.1046511627907,"velocity":0.2992125984251969},{"duration":0.023255813953483084,"midi":83,"time":144.1046511627907,"velocity":0.2992125984251969},{"duration":0.04651162790696617,"midi":100,"time":144.1046511627907,"velocity":0.14960629921259844},{"duration":0.13953488372092693,"midi":101,"time":144.11627906976744,"velocity":0.2047244094488189},{"duration":0.13953488372092693,"midi":82,"time":144.12790697674419,"velocity":0.30708661417322836},{"duration":0.011627906976741542,"midi":48,"time":144.13953488372093,"velocity":0.5354330708661418},{"duration":0.011627906976741542,"midi":45,"time":144.15116279069767,"velocity":0.6220472440944882},{"duration":0.15116279069766847,"midi":63,"time":144.15116279069767,"velocity":0.2755905511811024},{"duration":0.011627906976741542,"midi":44,"time":144.1627906976744,"velocity":0.6220472440944882},{"duration":0.03488372093025305,"midi":88,"time":144.1627906976744,"velocity":0.07086614173228346},{"duration":0.011627906976741542,"midi":43,"time":144.17441860465115,"velocity":0.5984251968503937},{"duration":0.16279069767443843,"midi":91,"time":144.17441860465115,"velocity":0.33070866141732286},{"duration":0.011627906976769964,"midi":42,"time":144.1860465116279,"velocity":0.5590551181102362},{"duration":0.3139534883720785,"midi":60,"time":144.19767441860466,"velocity":0.1968503937007874},{"duration":0.04651162790696617,"midi":68,"time":144.19767441860466,"velocity":0.23622047244094488},{"duration":0.023255813953483084,"midi":37,"time":144.2325581395349,"velocity":0.3858267716535433},{"duration":0.034883720930224626,"midi":36,"time":144.25581395348837,"velocity":0.30708661417322836},{"duration":0.03488372093025305,"midi":82,"time":144.27906976744185,"velocity":0.08661417322834646},{"duration":0.05813953488373613,"midi":84,"time":144.27906976744185,"velocity":0.09448818897637795},{"duration":0.12790697674418539,"midi":87,"time":144.30232558139534,"velocity":0.1968503937007874},{"duration":0.05813953488370771,"midi":75,"time":144.3139534883721,"velocity":0.25196850393700787},{"duration":0.10465116279067388,"midi":82,"time":144.32558139534885,"velocity":0.16535433070866143},{"duration":0.05813953488370771,"midi":63,"time":144.3372093023256,"velocity":0.1968503937007874},{"duration":0.06976744186047767,"midi":79,"time":144.37209302325581,"velocity":0.11023622047244094},{"duration":0.13953488372092693,"midi":65,"time":144.38372093023256,"velocity":0.4251968503937008},{"duration":0.04651162790696617,"midi":103,"time":144.38372093023256,"velocity":0.2204724409448819},{"duration":0.06976744186047767,"midi":76,"time":144.40697674418604,"velocity":0.28346456692913385},{"duration":0.25581395348837077,"midi":91,"time":144.40697674418604,"velocity":0.2047244094488189},{"duration":0.18604651162792152,"midi":99,"time":144.40697674418604,"velocity":0.2440944881889764},{"duration":0.03488372093025305,"midi":95,"time":144.41860465116278,"velocity":0.11023622047244094},{"duration":0.36046511627904465,"midi":87,"time":144.4418604651163,"velocity":0.29133858267716534},{"duration":0.034883720930224626,"midi":68,"time":144.45348837209303,"velocity":0.14960629921259844},{"duration":0.19767441860463464,"midi":82,"time":144.45348837209303,"velocity":0.2047244094488189},{"duration":0.30232558139533694,"midi":101,"time":144.45348837209303,"velocity":0.1732283464566929},{"duration":0.17441860465115155,"midi":75,"time":144.47674418604652,"velocity":0.3543307086614173},{"duration":0.04651162790696617,"midi":80,"time":144.48837209302326,"velocity":0.07086614173228346},{"duration":0.13953488372092693,"midi":79,"time":144.51162790697674,"velocity":0.11811023622047244},{"duration":0.034883720930224626,"midi":60,"time":144.52325581395348,"velocity":0.12598425196850394},{"duration":0.05813953488373613,"midi":63,"time":144.53488372093022,"velocity":0.1889763779527559},{"duration":0.03488372093025305,"midi":65,"time":144.53488372093022,"velocity":0.11023622047244094},{"duration":0.06976744186044925,"midi":65,"time":144.58139534883722,"velocity":0.3543307086614173},{"duration":0.0813953488371908,"midi":60,"time":144.59302325581396,"velocity":0.4094488188976378},{"duration":0.023255813953483084,"midi":55,"time":144.63953488372093,"velocity":0.47244094488188976},{"duration":0.04651162790696617,"midi":76,"time":144.63953488372093,"velocity":0.15748031496062992},{"duration":0.034883720930224626,"midi":84,"time":144.63953488372093,"velocity":0.1732283464566929},{"duration":0.04651162790696617,"midi":88,"time":144.63953488372093,"velocity":0.2440944881889764},{"duration":0.09302325581396076,"midi":89,"time":144.63953488372093,"velocity":0.2440944881889764},{"duration":0.06976744186047767,"midi":95,"time":144.63953488372093,"velocity":0.1889763779527559},{"duration":0.05813953488373613,"midi":97,"time":144.63953488372093,"velocity":0.15748031496062992},{"duration":0.08139534883721922,"midi":102,"time":144.63953488372093,"velocity":0.2677165354330709},{"duration":0.05813953488373613,"midi":64,"time":144.65116279069767,"velocity":0.4251968503937008},{"duration":0.05813953488373613,"midi":83,"time":144.65116279069767,"velocity":0.13385826771653545},{"duration":0.05813953488373613,"midi":90,"time":144.65116279069767,"velocity":0.30708661417322836},{"duration":0.17441860465117998,"midi":94,"time":144.65116279069767,"velocity":0.31496062992125984},{"duration":0.04651162790699459,"midi":98,"time":144.65116279069767,"velocity":0.14960629921259844},{"duration":0.03488372093025305,"midi":45,"time":144.6627906976744,"velocity":0.6141732283464567},{"duration":0.03488372093025305,"midi":70,"time":144.6627906976744,"velocity":0.11811023622047244},{"duration":0.16279069767443843,"midi":75,"time":144.67441860465115,"velocity":0.3937007874015748},{"duration":0.25581395348837077,"midi":91,"time":144.67441860465115,"velocity":0.30708661417322836},{"duration":0.08139534883721922,"midi":68,"time":144.6860465116279,"velocity":0.14960629921259844},{"duration":0.011627906976741542,"midi":44,"time":144.69767441860466,"velocity":0.5826771653543307},{"duration":0.09302325581393234,"midi":82,"time":144.69767441860466,"velocity":0.2755905511811024},{"duration":0.034883720930224626,"midi":93,"time":144.69767441860466,"velocity":0.07874015748031496},{"duration":0.023255813953483084,"midi":42,"time":144.7093023255814,"velocity":0.5669291338582677},{"duration":0.034883720930224626,"midi":85,"time":144.7093023255814,"velocity":0.12598425196850394},{"duration":0.16279069767441,"midi":97,"time":144.7093023255814,"velocity":0.2283464566929134},{"duration":0.08139534883721922,"midi":63,"time":144.7325581395349,"velocity":0.2755905511811024},{"duration":0.034883720930224626,"midi":60,"time":144.74418604651163,"velocity":0.11023622047244094},{"duration":0.023255813953483084,"midi":37,"time":144.75581395348837,"velocity":0.3937007874015748},{"duration":0.03488372093025305,"midi":36,"time":144.77906976744185,"velocity":0.31496062992125984},{"duration":0.03488372093025305,"midi":68,"time":144.77906976744185,"velocity":0.10236220472440945},{"duration":0.1046511627907023,"midi":72,"time":144.77906976744185,"velocity":0.10236220472440945},{"duration":0.03488372093025305,"midi":65,"time":144.80232558139534,"velocity":0.2440944881889764},{"duration":0.06976744186044925,"midi":82,"time":144.8139534883721,"velocity":0.07086614173228346},{"duration":0.023255813953483084,"midi":76,"time":144.82558139534885,"velocity":0.2440944881889764},{"duration":0.023255813953483084,"midi":95,"time":144.82558139534885,"velocity":0.2755905511811024},{"duration":0.023255813953483084,"midi":64,"time":144.8372093023256,"velocity":0.30708661417322836},{"duration":0.04651162790696617,"midi":75,"time":144.84883720930233,"velocity":0.2755905511811024},{"duration":0.023255813953483084,"midi":94,"time":144.84883720930233,"velocity":0.2755905511811024},{"duration":0.023255813953483084,"midi":63,"time":144.86046511627907,"velocity":0.2992125984251969},{"duration":0.06976744186044925,"midi":96,"time":144.86046511627907,"velocity":0.25984251968503935},{"duration":0.034883720930224626,"midi":68,"time":144.87209302325581,"velocity":0.11811023622047244},{"duration":0.04651162790696617,"midi":93,"time":144.87209302325581,"velocity":0.2440944881889764},{"duration":0.05813953488373613,"midi":94,"time":144.88372093023256,"velocity":0.4094488188976378},{"duration":0.023255813953483084,"midi":60,"time":144.90697674418604,"velocity":0.2283464566929134},{"duration":0.04651162790699459,"midi":75,"time":144.90697674418604,"velocity":0.1732283464566929},{"duration":0.03488372093025305,"midi":84,"time":144.91860465116278,"velocity":0.08661417322834646},{"duration":0.11627906976744384,"midi":97,"time":144.91860465116278,"velocity":0.2755905511811024},{"duration":0.08139534883721922,"midi":61,"time":144.93023255813952,"velocity":0.2992125984251969},{"duration":0.1046511627907023,"midi":65,"time":144.93023255813952,"velocity":0.3937007874015748},{"duration":0.18604651162792152,"midi":92,"time":144.93023255813952,"velocity":0.36220472440944884},{"duration":0.1046511627907023,"midi":99,"time":144.93023255813952,"velocity":0.1889763779527559},{"duration":0.08139534883721922,"midi":103,"time":144.93023255813952,"velocity":0.18110236220472442},{"duration":0.06976744186044925,"midi":95,"time":144.9418604651163,"velocity":0.3464566929133858},{"duration":0.034883720930224626,"midi":76,"time":144.95348837209303,"velocity":0.15748031496062992},{"duration":0.034883720930224626,"midi":87,"time":144.95348837209303,"velocity":0.15748031496062992},{"duration":0.05813953488370771,"midi":89,"time":144.96511627906978,"velocity":0.11811023622047244},{"duration":0.11627906976744384,"midi":75,"time":144.98837209302326,"velocity":0.2440944881889764},{"duration":0.17441860465115155,"midi":94,"time":144.98837209302326,"velocity":0.33858267716535434},{"duration":0.04651162790696617,"midi":60,"time":145.01162790697674,"velocity":0.2755905511811024},{"duration":0.06976744186047767,"midi":68,"time":145.01162790697674,"velocity":0.11023622047244094},{"duration":0.09302325581396076,"midi":72,"time":145.02325581395348,"velocity":0.3700787401574803},{"duration":0.034883720930224626,"midi":88,"time":145.02325581395348,"velocity":0.08661417322834646},{"duration":0.034883720930224626,"midi":98,"time":145.02325581395348,"velocity":0.1732283464566929},{"duration":0.04651162790699459,"midi":100,"time":145.02325581395348,"velocity":0.09448818897637795},{"duration":0.08139534883721922,"midi":102,"time":145.02325581395348,"velocity":0.18110236220472442},{"duration":0.06976744186047767,"midi":91,"time":145.03488372093022,"velocity":0.2992125984251969},{"duration":0.03488372093025305,"midi":96,"time":145.03488372093022,"velocity":0.2283464566929134},{"duration":0.04651162790699459,"midi":61,"time":145.0581395348837,"velocity":0.2047244094488189},{"duration":0.03488372093025305,"midi":99,"time":145.0581395348837,"velocity":0.16535433070866143},{"duration":0.05813953488370771,"midi":95,"time":145.06976744186048,"velocity":0.16535433070866143},{"duration":0.034883720930224626,"midi":97,"time":145.06976744186048,"velocity":0.14960629921259844},{"duration":0.034883720930224626,"midi":101,"time":145.08139534883722,"velocity":0.10236220472440945},{"duration":0.04651162790696617,"midi":61,"time":145.13953488372093,"velocity":0.1889763779527559},{"duration":0.05813953488373613,"midi":92,"time":145.1627906976744,"velocity":0.23622047244094488},{"duration":0.04651162790699459,"midi":95,"time":145.1627906976744,"velocity":0.15748031496062992},{"duration":0.05813953488373613,"midi":76,"time":145.17441860465115,"velocity":0.31496062992125984},{"duration":0.05813953488373613,"midi":100,"time":145.17441860465115,"velocity":0.1889763779527559},{"duration":0.03488372093025305,"midi":102,"time":145.17441860465115,"velocity":0.1968503937007874},{"duration":0.03488372093025305,"midi":103,"time":145.17441860465115,"velocity":0.16535433070866143},{"duration":0.023255813953511506,"midi":65,"time":145.1860465116279,"velocity":0.2992125984251969},{"duration":0.011627906976741542,"midi":48,"time":145.19767441860466,"velocity":0.5433070866141733},{"duration":0.011627906976741542,"midi":45,"time":145.2093023255814,"velocity":0.6220472440944882},{"duration":0.011627906976741542,"midi":44,"time":145.22093023255815,"velocity":0.6141732283464567},{"duration":0.1860465116278931,"midi":91,"time":145.22093023255815,"velocity":0.31496062992125984},{"duration":0.011627906976741542,"midi":43,"time":145.2325581395349,"velocity":0.5905511811023622},{"duration":0.11627906976744384,"midi":63,"time":145.2325581395349,"velocity":0.18110236220472442},{"duration":0.06976744186044925,"midi":72,"time":145.2325581395349,"velocity":0.14960629921259844},{"duration":0.12790697674418539,"midi":75,"time":145.2325581395349,"velocity":0.4094488188976378},{"duration":0.12790697674418539,"midi":94,"time":145.2325581395349,"velocity":0.2992125984251969},{"duration":0.2093023255814046,"midi":97,"time":145.2325581395349,"velocity":0.2283464566929134},{"duration":0.06976744186044925,"midi":99,"time":145.2325581395349,"velocity":0.16535433070866143},{"duration":0.05813953488370771,"midi":101,"time":145.2325581395349,"velocity":0.14173228346456693},{"duration":0.011627906976741542,"midi":42,"time":145.24418604651163,"velocity":0.5511811023622047},{"duration":0.04651162790699459,"midi":82,"time":145.2674418604651,"velocity":0.10236220472440945},{"duration":0.04651162790699459,"midi":36,"time":145.30232558139534,"velocity":0.3464566929133858},{"duration":0.034883720930224626,"midi":64,"time":145.34883720930233,"velocity":0.15748031496062992},{"duration":0.034883720930224626,"midi":75,"time":145.37209302325581,"velocity":0.28346456692913385},{"duration":0.034883720930224626,"midi":94,"time":145.37209302325581,"velocity":0.2204724409448819},{"duration":0.03488372093025305,"midi":62,"time":145.40697674418604,"velocity":0.2047244094488189},{"duration":0.05813953488373613,"midi":93,"time":145.40697674418604,"velocity":0.1889763779527559},{"duration":0.03488372093025305,"midi":95,"time":145.40697674418604,"velocity":0.14960629921259844},{"duration":0.023255813953511506,"midi":73,"time":145.41860465116278,"velocity":0.23622047244094488},{"duration":0.09302325581396076,"midi":94,"time":145.41860465116278,"velocity":0.36220472440944884},{"duration":0.023255813953511506,"midi":58,"time":145.43023255813952,"velocity":0.2440944881889764},{"duration":0.04651162790696617,"midi":72,"time":145.4418604651163,"velocity":0.2992125984251969},{"duration":0.034883720930224626,"midi":96,"time":145.4418604651163,"velocity":0.2677165354330709},{"duration":0.023255813953483084,"midi":60,"time":145.45348837209303,"velocity":0.3543307086614173},{"duration":0.09302325581393234,"midi":65,"time":145.46511627906978,"velocity":0.2125984251968504},{"duration":0.09302325581393234,"midi":92,"time":145.46511627906978,"velocity":0.2992125984251969},{"duration":0.06976744186044925,"midi":95,"time":145.46511627906978,"velocity":0.28346456692913385},{"duration":0.05813953488370771,"midi":99,"time":145.46511627906978,"velocity":0.14960629921259844},{"duration":0.04651162790696617,"midi":103,"time":145.46511627906978,"velocity":0.11023622047244094},{"duration":0.05813953488370771,"midi":61,"time":145.47674418604652,"velocity":0.4015748031496063},{"duration":0.09302325581396076,"midi":97,"time":145.47674418604652,"velocity":0.2440944881889764},{"duration":0.06976744186044925,"midi":101,"time":145.47674418604652,"velocity":0.08661417322834646},{"duration":0.04651162790699459,"midi":60,"time":145.53488372093022,"velocity":0.30708661417322836},{"duration":0.08139534883721922,"midi":72,"time":145.53488372093022,"velocity":0.31496062992125984},{"duration":0.06976744186047767,"midi":94,"time":145.53488372093022,"velocity":0.25196850393700787},{"duration":0.04651162790699459,"midi":91,"time":145.5581395348837,"velocity":0.1732283464566929},{"duration":0.03488372093025305,"midi":98,"time":145.5581395348837,"velocity":0.11023622047244094},{"duration":0.023255813953483084,"midi":57,"time":145.59302325581396,"velocity":0.2283464566929134},{"duration":0.04651162790696617,"midi":61,"time":145.59302325581396,"velocity":0.14173228346456693},{"duration":0.034883720930224626,"midi":72,"time":145.65116279069767,"velocity":0.07874015748031496},{"duration":0.034883720930224626,"midi":62,"time":145.69767441860466,"velocity":0.44881889763779526},{"duration":0.034883720930224626,"midi":79,"time":145.69767441860466,"velocity":0.1889763779527559},{"duration":0.05813953488370771,"midi":81,"time":145.69767441860466,"velocity":0.2125984251968504},{"duration":0.0813953488371908,"midi":88,"time":145.69767441860466,"velocity":0.2440944881889764},{"duration":0.19767441860463464,"midi":89,"time":145.69767441860466,"velocity":0.33070866141732286},{"duration":0.0813953488371908,"midi":90,"time":145.69767441860466,"velocity":0.2992125984251969},{"duration":0.05813953488370771,"midi":95,"time":145.69767441860466,"velocity":0.2283464566929134},{"duration":0.034883720930224626,"midi":96,"time":145.69767441860466,"velocity":0.18110236220472442},{"duration":0.23255813953485927,"midi":97,"time":145.69767441860466,"velocity":0.2440944881889764},{"duration":0.1860465116278931,"midi":99,"time":145.69767441860466,"velocity":0.2440944881889764},{"duration":0.0813953488371908,"midi":103,"time":145.69767441860466,"velocity":0.2204724409448819},{"duration":0.023255813953483084,"midi":67,"time":145.7093023255814,"velocity":0.3228346456692913},{"duration":0.034883720930224626,"midi":82,"time":145.7093023255814,"velocity":0.11023622047244094},{"duration":0.05813953488370771,"midi":83,"time":145.7093023255814,"velocity":0.11811023622047244},{"duration":0.12790697674418539,"midi":91,"time":145.7093023255814,"velocity":0.2125984251968504},{"duration":0.05813953488370771,"midi":94,"time":145.7093023255814,"velocity":0.16535433070866143},{"duration":0.023255813953483084,"midi":45,"time":145.72093023255815,"velocity":0.5669291338582677},{"duration":0.034883720930224626,"midi":70,"time":145.72093023255815,"velocity":0.08661417322834646},{"duration":0.19767441860463464,"midi":85,"time":145.72093023255815,"velocity":0.2677165354330709},{"duration":0.06976744186044925,"midi":92,"time":145.72093023255815,"velocity":0.1889763779527559},{"duration":0.011627906976741542,"midi":44,"time":145.74418604651163,"velocity":0.6141732283464567},{"duration":0.16279069767441,"midi":80,"time":145.74418604651163,"velocity":0.33858267716535434},{"duration":0.011627906976741542,"midi":43,"time":145.75581395348837,"velocity":0.5826771653543307},{"duration":0.13953488372092693,"midi":73,"time":145.75581395348837,"velocity":0.2755905511811024},{"duration":0.023255813953483084,"midi":42,"time":145.7674418604651,"velocity":0.5669291338582677},{"duration":0.16279069767441,"midi":75,"time":145.7674418604651,"velocity":0.2283464566929134},{"duration":0.023255813953483084,"midi":52,"time":145.77906976744185,"velocity":0.2677165354330709},{"duration":0.09302325581396076,"midi":61,"time":145.7906976744186,"velocity":0.1889763779527559},{"duration":0.09302325581396076,"midi":94,"time":145.7906976744186,"velocity":0.13385826771653545},{"duration":0.023255813953483084,"midi":37,"time":145.8139534883721,"velocity":0.3937007874015748},{"duration":0.034883720930224626,"midi":52,"time":145.8139534883721,"velocity":0.1889763779527559},{"duration":0.05813953488370771,"midi":95,"time":145.8139534883721,"velocity":0.09448818897637795},{"duration":0.023255813953483084,"midi":36,"time":145.8372093023256,"velocity":0.30708661417322836},{"duration":0.04651162790699459,"midi":56,"time":145.8953488372093,"velocity":0.30708661417322836},{"duration":0.04651162790699459,"midi":62,"time":145.90697674418604,"velocity":0.10236220472440945},{"duration":0.1046511627907023,"midi":89,"time":145.93023255813952,"velocity":0.1968503937007874},{"duration":0.034883720930224626,"midi":55,"time":145.9418604651163,"velocity":0.31496062992125984},{"duration":0.034883720930224626,"midi":73,"time":145.9418604651163,"velocity":0.13385826771653545},{"duration":0.15116279069766847,"midi":94,"time":145.95348837209303,"velocity":0.2677165354330709},{"duration":0.11627906976744384,"midi":80,"time":145.96511627906978,"velocity":0.12598425196850394},{"duration":0.13953488372092693,"midi":58,"time":145.98837209302326,"velocity":0.4251968503937008},{"duration":0.04651162790696617,"midi":85,"time":146,"velocity":0.08661417322834646},{"duration":0.12790697674418539,"midi":92,"time":146,"velocity":0.2440944881889764},{"duration":0.06976744186047767,"midi":95,"time":146,"velocity":0.13385826771653545},{"duration":0.06976744186047767,"midi":97,"time":146,"velocity":0.11023622047244094},{"duration":0.08139534883721922,"midi":73,"time":146.01162790697674,"velocity":0.18110236220472442},{"duration":0.09302325581396076,"midi":96,"time":146.02325581395348,"velocity":0.25984251968503935},{"duration":0.1046511627907023,"midi":103,"time":146.02325581395348,"velocity":0.1732283464566929},{"duration":0.04651162790696617,"midi":72,"time":146.09302325581396,"velocity":0.16535433070866143},{"duration":0.04651162790696617,"midi":55,"time":146.13953488372093,"velocity":0.3228346456692913},{"duration":0.04651162790696617,"midi":62,"time":146.2093023255814,"velocity":0.33858267716535434},{"duration":0.034883720930224626,"midi":100,"time":146.22093023255815,"velocity":0.2283464566929134},{"duration":0.034883720930224626,"midi":102,"time":146.22093023255815,"velocity":0.18110236220472442},{"duration":0.034883720930224626,"midi":97,"time":146.2325581395349,"velocity":0.10236220472440945},{"duration":0.06976744186044925,"midi":103,"time":146.2325581395349,"velocity":0.1732283464566929},{"duration":0.15116279069766847,"midi":73,"time":146.24418604651163,"velocity":0.33070866141732286},{"duration":0.034883720930224626,"midi":99,"time":146.24418604651163,"velocity":0.15748031496062992},{"duration":0.2093023255814046,"midi":101,"time":146.24418604651163,"velocity":0.3464566929133858},{"duration":0.011627906976741542,"midi":48,"time":146.25581395348837,"velocity":0.5590551181102362},{"duration":0.1046511627907023,"midi":61,"time":146.25581395348837,"velocity":0.1968503937007874},{"duration":0.12790697674418539,"midi":80,"time":146.25581395348837,"velocity":0.2047244094488189},{"duration":0.011627906976741542,"midi":45,"time":146.2674418604651,"velocity":0.6299212598425197},{"duration":0.011627906976741542,"midi":44,"time":146.27906976744185,"velocity":0.6220472440944882},{"duration":0.011627906976741542,"midi":43,"time":146.2906976744186,"velocity":0.5984251968503937},{"duration":0.011627906976769964,"midi":42,"time":146.30232558139534,"velocity":0.5590551181102362},{"duration":0.05813953488373613,"midi":75,"time":146.30232558139534,"velocity":0.11023622047244094},{"duration":0.06976744186047767,"midi":102,"time":146.30232558139534,"velocity":0.2125984251968504},{"duration":0.04651162790696617,"midi":36,"time":146.36046511627907,"velocity":0.3543307086614173},{"duration":0.04651162790696617,"midi":57,"time":146.38372093023256,"velocity":0.15748031496062992},{"duration":0.03488372093025305,"midi":61,"time":146.43023255813952,"velocity":0.08661417322834646},{"duration":0.06976744186044925,"midi":73,"time":146.4418604651163,"velocity":0.2125984251968504},{"duration":0.023255813953483084,"midi":58,"time":146.5,"velocity":0.33858267716535434},{"duration":0.22093023255814614,"midi":70,"time":146.51162790697674,"velocity":0.3937007874015748},{"duration":0.034883720930224626,"midi":86,"time":146.51162790697674,"velocity":0.13385826771653545},{"duration":0.2093023255814046,"midi":58,"time":146.53488372093022,"velocity":0.2992125984251969},{"duration":0.03488372093025305,"midi":73,"time":146.53488372093022,"velocity":0.10236220472440945},{"duration":0.15116279069766847,"midi":77,"time":146.53488372093022,"velocity":0.2283464566929134},{"duration":0.0813953488371908,"midi":101,"time":146.58139534883722,"velocity":0.12598425196850394},{"duration":0.09302325581393234,"midi":103,"time":146.58139534883722,"velocity":0.11811023622047244},{"duration":0.034883720930224626,"midi":71,"time":146.7093023255814,"velocity":0.14960629921259844},{"duration":0.023255813953483084,"midi":59,"time":146.74418604651163,"velocity":0.3779527559055118},{"duration":0.023255813953483084,"midi":72,"time":146.74418604651163,"velocity":0.3464566929133858},{"duration":0.04651162790696617,"midi":80,"time":146.75581395348837,"velocity":0.2755905511811024},{"duration":0.08139534883721922,"midi":88,"time":146.75581395348837,"velocity":0.2440944881889764},{"duration":0.09302325581396076,"midi":90,"time":146.75581395348837,"velocity":0.2992125984251969},{"duration":0.09302325581396076,"midi":95,"time":146.75581395348837,"velocity":0.2047244094488189},{"duration":0.05813953488373613,"midi":96,"time":146.75581395348837,"velocity":0.15748031496062992},{"duration":0.09302325581396076,"midi":97,"time":146.75581395348837,"velocity":0.18110236220472442},{"duration":0.09302325581396076,"midi":99,"time":146.75581395348837,"velocity":0.14173228346456693},{"duration":0.06976744186047767,"midi":101,"time":146.75581395348837,"velocity":0.14173228346456693},{"duration":0.05813953488373613,"midi":103,"time":146.75581395348837,"velocity":0.18110236220472442},{"duration":0.023255813953483084,"midi":66,"time":146.7674418604651,"velocity":0.3464566929133858},{"duration":0.04651162790699459,"midi":73,"time":146.7674418604651,"velocity":0.3228346456692913},{"duration":0.08139534883721922,"midi":87,"time":146.7674418604651,"velocity":0.1968503937007874},{"duration":0.023255813953483084,"midi":45,"time":146.77906976744185,"velocity":0.5669291338582677},{"duration":0.13953488372092693,"midi":70,"time":146.77906976744185,"velocity":0.1889763779527559},{"duration":0.06976744186047767,"midi":89,"time":146.77906976744185,"velocity":0.2283464566929134},{"duration":0.04651162790699459,"midi":91,"time":146.77906976744185,"velocity":0.2283464566929134},{"duration":0.03488372093025305,"midi":98,"time":146.77906976744185,"velocity":0.07874015748031496},{"duration":0.03488372093025305,"midi":81,"time":146.7906976744186,"velocity":0.1889763779527559},{"duration":0.011627906976769964,"midi":44,"time":146.80232558139534,"velocity":0.6141732283464567},{"duration":0.011627906976741542,"midi":43,"time":146.8139534883721,"velocity":0.5826771653543307},{"duration":0.034883720930224626,"midi":72,"time":146.8139534883721,"velocity":0.1968503937007874},{"duration":0.034883720930224626,"midi":80,"time":146.8139534883721,"velocity":0.11023622047244094},{"duration":0.011627906976741542,"midi":42,"time":146.82558139534885,"velocity":0.5669291338582677},{"duration":0.011627906976741542,"midi":41,"time":146.8372093023256,"velocity":0.5118110236220472},{"duration":0.023255813953483084,"midi":37,"time":146.87209302325581,"velocity":0.3937007874015748},{"duration":0.034883720930224626,"midi":64,"time":146.88372093023256,"velocity":0.07086614173228346},{"duration":0.034883720930224626,"midi":36,"time":146.8953488372093,"velocity":0.3228346456692913},{"duration":0.05813953488370771,"midi":73,"time":146.95348837209303,"velocity":0.14960629921259844},{"duration":0.034883720930224626,"midi":80,"time":146.95348837209303,"velocity":0.10236220472440945},{"duration":0.05813953488370771,"midi":52,"time":147,"velocity":0.16535433070866143},{"duration":0.034883720930224626,"midi":72,"time":147.01162790697674,"velocity":0.07874015748031496},{"duration":0.04651162790696617,"midi":87,"time":147.01162790697674,"velocity":0.15748031496062992},{"duration":0.023255813953483084,"midi":64,"time":147.02325581395348,"velocity":0.3858267716535433},{"duration":0.12790697674418539,"midi":75,"time":147.02325581395348,"velocity":0.2440944881889764},{"duration":0.08139534883721922,"midi":91,"time":147.02325581395348,"velocity":0.31496062992125984},{"duration":0.12790697674418539,"midi":94,"time":147.02325581395348,"velocity":0.2992125984251969},{"duration":0.06976744186047767,"midi":97,"time":147.02325581395348,"velocity":0.3228346456692913},{"duration":0.08139534883721922,"midi":63,"time":147.04651162790697,"velocity":0.3228346456692913},{"duration":0.09302325581396076,"midi":101,"time":147.04651162790697,"velocity":0.3464566929133858},{"duration":0.06976744186047767,"midi":99,"time":147.0581395348837,"velocity":0.28346456692913385},{"duration":0.06976744186044925,"midi":96,"time":147.09302325581396,"velocity":0.28346456692913385},{"duration":0.05813953488370771,"midi":90,"time":147.1046511627907,"velocity":0.2047244094488189},{"duration":0.023255813953483084,"midi":62,"time":147.12790697674419,"velocity":0.3464566929133858},{"duration":0.034883720930224626,"midi":98,"time":147.12790697674419,"velocity":0.18110236220472442},{"duration":0.023255813953483084,"midi":100,"time":147.13953488372093,"velocity":0.28346456692913385},{"duration":0.023255813953483084,"midi":64,"time":147.1627906976744,"velocity":0.2440944881889764},{"duration":0.03488372093025305,"midi":69,"time":147.17441860465115,"velocity":0.3464566929133858},{"duration":0.023255813953483084,"midi":68,"time":147.2325581395349,"velocity":0.25984251968503935},{"duration":0.03488372093025305,"midi":66,"time":147.2906976744186,"velocity":0.14960629921259844},{"duration":0.04651162790699459,"midi":101,"time":147.2906976744186,"velocity":0.10236220472440945},{"duration":0.011627906976741542,"midi":48,"time":147.3139534883721,"velocity":0.5511811023622047},{"duration":0.011627906976741542,"midi":45,"time":147.32558139534885,"velocity":0.6299212598425197},{"duration":0.011627906976741542,"midi":44,"time":147.3372093023256,"velocity":0.6220472440944882},{"duration":0.011627906976741542,"midi":43,"time":147.34883720930233,"velocity":0.5984251968503937},{"duration":0.011627906976741542,"midi":42,"time":147.36046511627907,"velocity":0.5590551181102362},{"duration":0.04651162790699459,"midi":36,"time":147.41860465116278,"velocity":0.36220472440944884},{"duration":0.10465116279067388,"midi":70,"time":147.56976744186048,"velocity":0.4015748031496063},{"duration":0.09302325581393234,"midi":58,"time":147.58139534883722,"velocity":0.3228346456692913},{"duration":0.034883720930224626,"midi":98,"time":147.59302325581396,"velocity":0.09448818897637795},{"duration":0.04651162790696617,"midi":77,"time":147.62790697674419,"velocity":0.12598425196850394},{"duration":0.03488372093025305,"midi":59,"time":147.67441860465115,"velocity":0.2204724409448819},{"duration":0.03488372093025305,"midi":71,"time":147.67441860465115,"velocity":0.3779527559055118},{"duration":0.03488372093025305,"midi":78,"time":147.67441860465115,"velocity":0.25196850393700787},{"duration":0.1046511627907023,"midi":60,"time":147.7093023255814,"velocity":0.25196850393700787},{"duration":0.1046511627907023,"midi":72,"time":147.7093023255814,"velocity":0.4015748031496063},{"duration":0.1046511627907023,"midi":79,"time":147.7093023255814,"velocity":0.25984251968503935},{"duration":0.04651162790696617,"midi":70,"time":147.74418604651163,"velocity":0.2047244094488189},{"duration":0.2325581395348877,"midi":82,"time":147.80232558139534,"velocity":0.2125984251968504},{"duration":0.06976744186047767,"midi":102,"time":147.80232558139534,"velocity":0.2047244094488189},{"duration":0.034883720930224626,"midi":71,"time":147.8139534883721,"velocity":0.3700787401574803},{"duration":0.023255813953483084,"midi":78,"time":147.8139534883721,"velocity":0.25196850393700787},{"duration":0.034883720930224626,"midi":80,"time":147.8139534883721,"velocity":0.18110236220472442},{"duration":0.16279069767441,"midi":89,"time":147.8139534883721,"velocity":0.25196850393700787},{"duration":0.06976744186044925,"midi":90,"time":147.8139534883721,"velocity":0.3464566929133858},{"duration":0.06976744186044925,"midi":99,"time":147.8139534883721,"velocity":0.12598425196850394},{"duration":0.09302325581393234,"midi":103,"time":147.8139534883721,"velocity":0.2125984251968504},{"duration":0.023255813953483084,"midi":60,"time":147.82558139534885,"velocity":0.4094488188976378},{"duration":0.023255813953483084,"midi":67,"time":147.82558139534885,"velocity":0.31496062992125984},{"duration":0.0813953488371908,"midi":87,"time":147.82558139534885,"velocity":0.1968503937007874},{"duration":0.05813953488370771,"midi":93,"time":147.82558139534885,"velocity":0.1732283464566929},{"duration":0.023255813953483084,"midi":45,"time":147.8372093023256,"velocity":0.5748031496062992},{"duration":0.2325581395348877,"midi":70,"time":147.8372093023256,"velocity":0.3700787401574803},{"duration":0.05813953488370771,"midi":88,"time":147.8372093023256,"velocity":0.23622047244094488},{"duration":0.06976744186044925,"midi":97,"time":147.8372093023256,"velocity":0.12598425196850394},{"duration":0.023255813953483084,"midi":59,"time":147.84883720930233,"velocity":0.25196850393700787},{"duration":0.034883720930224626,"midi":91,"time":147.84883720930233,"velocity":0.11811023622047244},{"duration":0.011627906976741542,"midi":44,"time":147.86046511627907,"velocity":0.6141732283464567},{"duration":0.011627906976741542,"midi":43,"time":147.87209302325581,"velocity":0.5826771653543307},{"duration":0.08139534883721922,"midi":58,"time":147.87209302325581,"velocity":0.2677165354330709},{"duration":0.034883720930224626,"midi":83,"time":147.87209302325581,"velocity":0.13385826771653545},{"duration":0.011627906976741542,"midi":42,"time":147.88372093023256,"velocity":0.5669291338582677},{"duration":0.034883720930224626,"midi":85,"time":147.88372093023256,"velocity":0.12598425196850394},{"duration":0.011627906976741542,"midi":41,"time":147.8953488372093,"velocity":0.5118110236220472},{"duration":0.023255813953483084,"midi":52,"time":147.8953488372093,"velocity":0.2677165354330709},{"duration":0.034883720930224626,"midi":79,"time":147.8953488372093,"velocity":0.11811023622047244},{"duration":0.13953488372092693,"midi":102,"time":147.90697674418604,"velocity":0.2440944881889764},{"duration":0.023255813953511506,"midi":37,"time":147.93023255813952,"velocity":0.3937007874015748},{"duration":0.034883720930224626,"midi":36,"time":147.95348837209303,"velocity":0.31496062992125984},{"duration":0.034883720930224626,"midi":72,"time":147.95348837209303,"velocity":0.2283464566929134},{"duration":0.06976744186044925,"midi":58,"time":147.96511627906978,"velocity":0.2992125984251969},{"duration":0.05813953488370771,"midi":77,"time":147.96511627906978,"velocity":0.13385826771653545},{"duration":0.04651162790699459,"midi":58,"time":148.04651162790697,"velocity":0.3779527559055118},{"duration":0.03488372093025305,"midi":100,"time":148.04651162790697,"velocity":0.14960629921259844},{"duration":0.10465116279067388,"midi":72,"time":148.06976744186048,"velocity":0.3543307086614173},{"duration":0.12790697674418539,"midi":101,"time":148.08139534883722,"velocity":0.16535433070866143},{"duration":0.0813953488371908,"midi":79,"time":148.09302325581396,"velocity":0.2992125984251969},{"duration":0.0813953488371908,"midi":88,"time":148.09302325581396,"velocity":0.25984251968503935},{"duration":0.023255813953483084,"midi":60,"time":148.1046511627907,"velocity":0.2992125984251969},{"duration":0.1046511627907023,"midi":70,"time":148.1046511627907,"velocity":0.3858267716535433},{"duration":0.034883720930224626,"midi":102,"time":148.11627906976744,"velocity":0.10236220472440945},{"duration":0.034883720930224626,"midi":60,"time":148.13953488372093,"velocity":0.2755905511811024},{"duration":0.1046511627907023,"midi":58,"time":148.1627906976744,"velocity":0.31496062992125984},{"duration":0.05813953488373613,"midi":78,"time":148.17441860465115,"velocity":0.2440944881889764},{"duration":0.04651162790699459,"midi":83,"time":148.17441860465115,"velocity":0.3858267716535433},{"duration":0.034883720930224626,"midi":103,"time":148.19767441860466,"velocity":0.08661417322834646},{"duration":0.023255813953483084,"midi":71,"time":148.2093023255814,"velocity":0.29133858267716534},{"duration":0.09302325581396076,"midi":82,"time":148.22093023255815,"velocity":0.4251968503937008},{"duration":0.12790697674418539,"midi":72,"time":148.2325581395349,"velocity":0.3228346456692913},{"duration":0.08139534883721922,"midi":77,"time":148.2325581395349,"velocity":0.2440944881889764},{"duration":0.1046511627907023,"midi":79,"time":148.2325581395349,"velocity":0.1889763779527559},{"duration":0.023255813953511506,"midi":58,"time":148.30232558139534,"velocity":0.2440944881889764},{"duration":0.023255813953483084,"midi":76,"time":148.3139534883721,"velocity":0.2440944881889764},{"duration":0.023255813953483084,"midi":81,"time":148.3139534883721,"velocity":0.33070866141732286},{"duration":0.023255813953483084,"midi":57,"time":148.32558139534885,"velocity":0.2992125984251969},{"duration":0.33720930232556157,"midi":75,"time":148.3372093023256,"velocity":0.30708661417322836},{"duration":0.023255813953483084,"midi":80,"time":148.3372093023256,"velocity":0.25984251968503935},{"duration":0.04651162790696617,"midi":71,"time":148.34883720930233,"velocity":0.1889763779527559},{"duration":0.023255813953483084,"midi":79,"time":148.36046511627907,"velocity":0.2283464566929134},{"duration":0.011627906976741542,"midi":47,"time":148.37209302325581,"velocity":0.5590551181102362},{"duration":0.011627906976741542,"midi":45,"time":148.38372093023256,"velocity":0.6299212598425197},{"duration":0.023255813953483084,"midi":55,"time":148.38372093023256,"velocity":0.28346456692913385},{"duration":0.27906976744185386,"midi":68,"time":148.38372093023256,"velocity":0.2992125984251969},{"duration":0.011627906976741542,"midi":44,"time":148.3953488372093,"velocity":0.6141732283464567},{"duration":0.011627906976741542,"midi":43,"time":148.40697674418604,"velocity":0.5905511811023622},{"duration":0.04651162790699459,"midi":56,"time":148.40697674418604,"velocity":0.3464566929133858},{"duration":0.011627906976741542,"midi":42,"time":148.41860465116278,"velocity":0.5511811023622047},{"duration":0.08139534883721922,"midi":82,"time":148.43023255813952,"velocity":0.25196850393700787},{"duration":0.13953488372095535,"midi":84,"time":148.43023255813952,"velocity":0.1889763779527559},{"duration":0.0813953488371908,"midi":70,"time":148.45348837209303,"velocity":0.2125984251968504},{"duration":0.13953488372092693,"midi":56,"time":148.46511627906978,"velocity":0.3858267716535433},{"duration":0.034883720930224626,"midi":36,"time":148.47674418604652,"velocity":0.3464566929133858},{"duration":0.15116279069766847,"midi":56,"time":148.61627906976744,"velocity":0.3937007874015748},{"duration":0.09302325581396076,"midi":72,"time":148.61627906976744,"velocity":0.23622047244094488},{"duration":0.034883720930224626,"midi":60,"time":148.62790697674419,"velocity":0.10236220472440945},{"duration":0.06976744186047767,"midi":79,"time":148.62790697674419,"velocity":0.33070866141732286},{"duration":0.034883720930224626,"midi":88,"time":148.63953488372093,"velocity":0.12598425196850394},{"duration":0.034883720930224626,"midi":70,"time":148.65116279069767,"velocity":0.13385826771653545},{"duration":0.023255813953483084,"midi":74,"time":148.6627906976744,"velocity":0.2283464566929134},{"duration":0.06976744186047767,"midi":75,"time":148.6860465116279,"velocity":0.2677165354330709},{"duration":0.034883720930224626,"midi":70,"time":148.69767441860466,"velocity":0.1889763779527559},{"duration":0.06976744186044925,"midi":78,"time":148.69767441860466,"velocity":0.16535433070866143},{"duration":0.06976744186044925,"midi":80,"time":148.69767441860466,"velocity":0.25984251968503935},{"duration":0.04651162790696617,"midi":83,"time":148.69767441860466,"velocity":0.2283464566929134},{"duration":0.034883720930224626,"midi":71,"time":148.7325581395349,"velocity":0.16535433070866143},{"duration":0.09302325581396076,"midi":82,"time":148.74418604651163,"velocity":0.30708661417322836},{"duration":0.04651162790696617,"midi":76,"time":148.75581395348837,"velocity":0.15748031496062992},{"duration":0.1046511627907023,"midi":72,"time":148.7674418604651,"velocity":0.14173228346456693},{"duration":0.034883720930224626,"midi":77,"time":148.7674418604651,"velocity":0.07874015748031496},{"duration":0.04651162790699459,"midi":81,"time":148.7674418604651,"velocity":0.30708661417322836},{"duration":0.03488372093025305,"midi":69,"time":148.77906976744185,"velocity":0.16535433070866143},{"duration":0.04651162790699459,"midi":57,"time":148.7906976744186,"velocity":0.3543307086614173},{"duration":0.04651162790696617,"midi":68,"time":148.8139534883721,"velocity":0.25196850393700787},{"duration":0.034883720930224626,"midi":77,"time":148.8139534883721,"velocity":0.12598425196850394},{"duration":0.023255813953483084,"midi":56,"time":148.8372093023256,"velocity":0.2283464566929134},{"duration":0.06976744186044925,"midi":81,"time":148.8372093023256,"velocity":0.1732283464566929},{"duration":0.034883720930224626,"midi":55,"time":148.86046511627907,"velocity":0.5039370078740157},{"duration":0.023255813953483084,"midi":61,"time":148.87209302325581,"velocity":0.3937007874015748},{"duration":0.034883720930224626,"midi":77,"time":148.87209302325581,"velocity":0.14173228346456693},{"duration":0.11627906976744384,"midi":89,"time":148.87209302325581,"velocity":0.25196850393700787},{"duration":0.08139534883721922,"midi":90,"time":148.87209302325581,"velocity":0.2992125984251969},{"duration":0.08139534883721922,"midi":94,"time":148.87209302325581,"velocity":0.2047244094488189},{"duration":0.05813953488370771,"midi":95,"time":148.87209302325581,"velocity":0.1968503937007874},{"duration":0.05813953488370771,"midi":96,"time":148.87209302325581,"velocity":0.2047244094488189},{"duration":0.08139534883721922,"midi":99,"time":148.87209302325581,"velocity":0.12598425196850394},{"duration":0.034883720930224626,"midi":100,"time":148.87209302325581,"velocity":0.1732283464566929},{"duration":0.034883720930224626,"midi":75,"time":148.88372093023256,"velocity":0.16535433070866143},{"duration":0.08139534883721922,"midi":82,"time":148.88372093023256,"velocity":0.18110236220472442},{"duration":0.05813953488373613,"midi":83,"time":148.88372093023256,"velocity":0.15748031496062992},{"duration":0.11627906976744384,"midi":85,"time":148.88372093023256,"velocity":0.15748031496062992},{"duration":0.034883720930224626,"midi":87,"time":148.88372093023256,"velocity":0.1968503937007874},{"duration":0.06976744186047767,"midi":88,"time":148.88372093023256,"velocity":0.25196850393700787},{"duration":0.034883720930224626,"midi":98,"time":148.88372093023256,"velocity":0.15748031496062992},{"duration":0.023255813953483084,"midi":45,"time":148.8953488372093,"velocity":0.5826771653543307},{"duration":0.04651162790699459,"midi":91,"time":148.8953488372093,"velocity":0.2283464566929134},{"duration":0.011627906976741542,"midi":44,"time":148.91860465116278,"velocity":0.6141732283464567},{"duration":0.04651162790699459,"midi":68,"time":148.91860465116278,"velocity":0.11811023622047244},{"duration":0.011627906976769964,"midi":43,"time":148.93023255813952,"velocity":0.5905511811023622},{"duration":0.25581395348837077,"midi":75,"time":148.93023255813952,"velocity":0.2047244094488189},{"duration":0.011627906976741542,"midi":42,"time":148.9418604651163,"velocity":0.5590551181102362},{"duration":0.023255813953483084,"midi":56,"time":148.9418604651163,"velocity":0.2755905511811024},{"duration":0.04651162790696617,"midi":80,"time":148.9418604651163,"velocity":0.16535433070866143},{"duration":0.023255813953483084,"midi":55,"time":148.97674418604652,"velocity":0.3464566929133858},{"duration":0.023255813953483084,"midi":37,"time":148.98837209302326,"velocity":0.3937007874015748},{"duration":0.11627906976744384,"midi":68,"time":148.98837209302326,"velocity":0.1889763779527559},{"duration":0.034883720930224626,"midi":81,"time":148.98837209302326,"velocity":0.16535433070866143},{"duration":0.05813953488370771,"midi":56,"time":149,"velocity":0.3779527559055118},{"duration":0.034883720930224626,"midi":78,"time":149,"velocity":0.12598425196850394},{"duration":0.034883720930224626,"midi":36,"time":149.01162790697674,"velocity":0.30708661417322836},{"duration":0.023255813953483084,"midi":56,"time":149.06976744186048,"velocity":0.23622047244094488},{"duration":0.034883720930224626,"midi":70,"time":149.06976744186048,"velocity":0.09448818897637795},{"duration":0.034883720930224626,"midi":52,"time":149.11627906976744,"velocity":0.18110236220472442},{"duration":0.06976744186047767,"midi":68,"time":149.12790697674419,"velocity":0.13385826771653545},{"duration":0.1046511627907023,"midi":51,"time":149.15116279069767,"velocity":0.1732283464566929},{"duration":0.04651162790699459,"midi":72,"time":149.1627906976744,"velocity":0.11023622047244094},{"duration":0.05813953488373613,"midi":79,"time":149.1627906976744,"velocity":0.18110236220472442},{"duration":0.09302325581396076,"midi":82,"time":149.27906976744185,"velocity":0.13385826771653545},{"duration":0.05813953488373613,"midi":81,"time":149.2906976744186,"velocity":0.12598425196850394},{"duration":0.05813953488373613,"midi":57,"time":149.30232558139534,"velocity":0.1889763779527559},{"duration":0.04651162790696617,"midi":56,"time":149.36046511627907,"velocity":0.13385826771653545},{"duration":0.034883720930224626,"midi":96,"time":149.3953488372093,"velocity":0.1889763779527559},{"duration":0.023255813953511506,"midi":45,"time":149.43023255813952,"velocity":0.6299212598425197},{"duration":0.011627906976741542,"midi":44,"time":149.45348837209303,"velocity":0.6062992125984252},{"duration":0.023255813953483084,"midi":42,"time":149.46511627906978,"velocity":0.5826771653543307},{"duration":0.03488372093025305,"midi":36,"time":149.53488372093022,"velocity":0.33070866141732286},{"duration":0.03488372093025305,"midi":68,"time":149.67441860465115,"velocity":0.15748031496062992},{"duration":0.023255813953483084,"midi":57,"time":149.69767441860466,"velocity":0.4409448818897638},{"duration":0.22093023255811772,"midi":70,"time":149.7093023255814,"velocity":0.2283464566929134},{"duration":0.15116279069766847,"midi":92,"time":149.7093023255814,"velocity":0.2283464566929134},{"duration":0.30232558139533694,"midi":94,"time":149.7093023255814,"velocity":0.3543307086614173},{"duration":0.19767441860463464,"midi":58,"time":149.72093023255815,"velocity":0.4094488188976378},{"duration":0.16279069767441,"midi":96,"time":149.7325581395349,"velocity":0.25196850393700787},{"duration":0.13953488372092693,"midi":98,"time":149.75581395348837,"velocity":0.08661417322834646},{"duration":0.08139534883721922,"midi":101,"time":149.75581395348837,"velocity":0.10236220472440945},{"duration":0.15116279069766847,"midi":103,"time":149.75581395348837,"velocity":0.14960629921259844},{"duration":0.023255813953511506,"midi":57,"time":149.91860465116278,"velocity":0.4645669291338583},{"duration":0.023255813953511506,"midi":62,"time":149.91860465116278,"velocity":0.4015748031496063},{"duration":0.023255813953511506,"midi":78,"time":149.93023255813952,"velocity":0.2283464566929134},{"duration":0.22093023255814614,"midi":82,"time":149.93023255813952,"velocity":0.3779527559055118},{"duration":0.03488372093025305,"midi":84,"time":149.93023255813952,"velocity":0.16535433070866143},{"duration":0.09302325581396076,"midi":87,"time":149.93023255813952,"velocity":0.16535433070866143},{"duration":0.09302325581396076,"midi":89,"time":149.93023255813952,"velocity":0.2125984251968504},{"duration":0.08139534883721922,"midi":90,"time":149.93023255813952,"velocity":0.31496062992125984},{"duration":0.06976744186047767,"midi":92,"time":149.93023255813952,"velocity":0.23622047244094488},{"duration":0.06976744186047767,"midi":93,"time":149.93023255813952,"velocity":0.2125984251968504},{"duration":0.08139534883721922,"midi":95,"time":149.93023255813952,"velocity":0.2047244094488189},{"duration":0.05813953488373613,"midi":96,"time":149.93023255813952,"velocity":0.18110236220472442},{"duration":0.08139534883721922,"midi":97,"time":149.93023255813952,"velocity":0.11023622047244094},{"duration":0.05813953488373613,"midi":98,"time":149.93023255813952,"velocity":0.15748031496062992},{"duration":0.04651162790699459,"midi":100,"time":149.93023255813952,"velocity":0.2047244094488189},{"duration":0.19767441860466306,"midi":101,"time":149.93023255813952,"velocity":0.2283464566929134},{"duration":0.11627906976744384,"midi":103,"time":149.93023255813952,"velocity":0.2283464566929134},{"duration":0.20930232558137618,"midi":70,"time":149.9418604651163,"velocity":0.3543307086614173},{"duration":0.034883720930224626,"midi":83,"time":149.9418604651163,"velocity":0.13385826771653545},{"duration":0.06976744186044925,"midi":88,"time":149.9418604651163,"velocity":0.28346456692913385},{"duration":0.023255813953483084,"midi":45,"time":149.95348837209303,"velocity":0.5905511811023622},{"duration":0.04651162790696617,"midi":58,"time":149.96511627906978,"velocity":0.28346456692913385},{"duration":0.011627906976741542,"midi":44,"time":149.97674418604652,"velocity":0.6141732283464567},{"duration":0.0813953488371908,"midi":77,"time":149.97674418604652,"velocity":0.16535433070866143},{"duration":0.034883720930224626,"midi":91,"time":149.97674418604652,"velocity":0.10236220472440945},{"duration":0.011627906976741542,"midi":43,"time":149.98837209302326,"velocity":0.5826771653543307},{"duration":0.04651162790696617,"midi":85,"time":149.98837209302326,"velocity":0.16535433070866143},{"duration":0.011627906976741542,"midi":42,"time":150,"velocity":0.5590551181102362},{"duration":0.023255813953483084,"midi":53,"time":150.02325581395348,"velocity":0.2440944881889764},{"duration":0.023255813953511506,"midi":37,"time":150.04651162790697,"velocity":0.3858267716535433},{"duration":0.023255813953483084,"midi":36,"time":150.06976744186048,"velocity":0.29133858267716534},{"duration":0.05813953488370771,"midi":77,"time":150.08139534883722,"velocity":0.14960629921259844},{"duration":0.034883720930224626,"midi":58,"time":150.1046511627907,"velocity":0.2677165354330709},{"duration":0.034883720930224626,"midi":56,"time":150.15116279069767,"velocity":0.2992125984251969},{"duration":0.03488372093025305,"midi":70,"time":150.1627906976744,"velocity":0.2755905511811024},{"duration":0.023255813953511506,"midi":59,"time":150.1860465116279,"velocity":0.2992125984251969},{"duration":0.04651162790699459,"midi":99,"time":150.1860465116279,"velocity":0.2204724409448819},{"duration":0.09302325581393234,"midi":88,"time":150.19767441860466,"velocity":0.2677165354330709},{"duration":0.13953488372092693,"midi":72,"time":150.2093023255814,"velocity":0.3779527559055118},{"duration":0.1046511627907023,"midi":91,"time":150.2093023255814,"velocity":0.30708661417322836},{"duration":0.0813953488371908,"midi":98,"time":150.22093023255815,"velocity":0.3228346456692913},{"duration":0.0813953488371908,"midi":101,"time":150.22093023255815,"velocity":0.14960629921259844},{"duration":0.023255813953483084,"midi":57,"time":150.2325581395349,"velocity":0.30708661417322836},{"duration":0.08139534883721922,"midi":96,"time":150.24418604651163,"velocity":0.29133858267716534},{"duration":0.034883720930224626,"midi":92,"time":150.25581395348837,"velocity":0.09448818897637795},{"duration":0.06976744186047767,"midi":94,"time":150.25581395348837,"velocity":0.1968503937007874},{"duration":0.03488372093025305,"midi":60,"time":150.27906976744185,"velocity":0.29133858267716534},{"duration":0.023255813953483084,"midi":57,"time":150.32558139534885,"velocity":0.36220472440944884},{"duration":0.11627906976744384,"midi":56,"time":150.34883720930233,"velocity":0.3779527559055118},{"duration":0.1046511627907023,"midi":72,"time":150.3953488372093,"velocity":0.2440944881889764},{"duration":0.04651162790696617,"midi":62,"time":150.4418604651163,"velocity":0.36220472440944884},{"duration":0.034883720930224626,"midi":94,"time":150.4418604651163,"velocity":0.13385826771653545},{"duration":0.04651162790696617,"midi":98,"time":150.4418604651163,"velocity":0.15748031496062992},{"duration":0.04651162790696617,"midi":102,"time":150.4418604651163,"velocity":0.2440944881889764},{"duration":0.0813953488371908,"midi":103,"time":150.4418604651163,"velocity":0.2204724409448819},{"duration":0.034883720930224626,"midi":66,"time":150.45348837209303,"velocity":0.14173228346456693},{"duration":0.034883720930224626,"midi":91,"time":150.45348837209303,"velocity":0.16535433070866143},{"duration":0.0813953488371908,"midi":95,"time":150.45348837209303,"velocity":0.33858267716535434},{"duration":0.034883720930224626,"midi":96,"time":150.45348837209303,"velocity":0.2047244094488189},{"duration":0.034883720930224626,"midi":100,"time":150.45348837209303,"velocity":0.25196850393700787},{"duration":0.19767441860463464,"midi":92,"time":150.46511627906978,"velocity":0.1732283464566929},{"duration":0.1860465116278931,"midi":101,"time":150.46511627906978,"velocity":0.23622047244094488},{"duration":0.1860465116278931,"midi":97,"time":150.47674418604652,"velocity":0.2125984251968504},{"duration":0.023255813953483084,"midi":45,"time":150.48837209302326,"velocity":0.6377952755905512},{"duration":0.1860465116278931,"midi":73,"time":150.48837209302326,"velocity":0.3700787401574803},{"duration":0.17441860465115155,"midi":99,"time":150.48837209302326,"velocity":0.2755905511811024},{"duration":0.011627906976741542,"midi":44,"time":150.51162790697674,"velocity":0.6062992125984252},{"duration":0.06976744186047767,"midi":102,"time":150.51162790697674,"velocity":0.16535433070866143},{"duration":0.023255813953483084,"midi":42,"time":150.52325581395348,"velocity":0.5826771653543307},{"duration":0.04651162790699459,"midi":94,"time":150.53488372093022,"velocity":0.36220472440944884},{"duration":0.03488372093025305,"midi":56,"time":150.54651162790697,"velocity":0.10236220472440945},{"duration":0.0813953488371908,"midi":61,"time":150.58139534883722,"velocity":0.1732283464566929},{"duration":0.06976744186044925,"midi":95,"time":150.58139534883722,"velocity":0.3228346456692913},{"duration":0.06976744186044925,"midi":103,"time":150.58139534883722,"velocity":0.2440944881889764},{"duration":0.034883720930224626,"midi":36,"time":150.59302325581396,"velocity":0.33070866141732286},{"duration":0.034883720930224626,"midi":102,"time":150.63953488372093,"velocity":0.11811023622047244},{"duration":0.034883720930224626,"midi":94,"time":150.65116279069767,"velocity":0.2440944881889764},{"duration":0.023255813953483084,"midi":60,"time":150.6627906976744,"velocity":0.2677165354330709},{"duration":0.04651162790699459,"midi":72,"time":150.6627906976744,"velocity":0.29133858267716534},{"duration":0.03488372093025305,"midi":103,"time":150.6627906976744,"velocity":0.07874015748031496},{"duration":0.023255813953511506,"midi":59,"time":150.6860465116279,"velocity":0.3937007874015748},{"duration":0.11627906976744384,"midi":58,"time":150.7093023255814,"velocity":0.41732283464566927},{"duration":0.15116279069766847,"midi":73,"time":150.7093023255814,"velocity":0.14173228346456693},{"duration":0.19767441860463464,"midi":96,"time":150.7093023255814,"velocity":0.2204724409448819},{"duration":0.1860465116278931,"midi":77,"time":150.72093023255815,"velocity":0.2992125984251969},{"duration":0.17441860465115155,"midi":89,"time":150.72093023255815,"velocity":0.31496062992125984},{"duration":0.19767441860463464,"midi":102,"time":150.7325581395349,"velocity":0.3228346456692913},{"duration":0.034883720930224626,"midi":92,"time":150.74418604651163,"velocity":0.09448818897637795},{"duration":0.08139534883721922,"midi":95,"time":150.74418604651163,"velocity":0.08661417322834646},{"duration":0.15116279069766847,"midi":99,"time":150.74418604651163,"velocity":0.23622047244094488},{"duration":0.06976744186047767,"midi":91,"time":150.7906976744186,"velocity":0.14173228346456693},{"duration":0.023255813953483084,"midi":58,"time":150.88372093023256,"velocity":0.29133858267716534},{"duration":0.04651162790699459,"midi":81,"time":150.8953488372093,"velocity":0.2440944881889764},{"duration":0.023255813953483084,"midi":57,"time":150.90697674418604,"velocity":0.3543307086614173},{"duration":0.03488372093025305,"midi":56,"time":150.93023255813952,"velocity":0.3937007874015748},{"duration":0.023255813953483084,"midi":62,"time":150.97674418604652,"velocity":0.3937007874015748},{"duration":0.023255813953483084,"midi":55,"time":150.98837209302326,"velocity":0.5118110236220472},{"duration":0.034883720930224626,"midi":73,"time":150.98837209302326,"velocity":0.11023622047244094},{"duration":0.034883720930224626,"midi":81,"time":150.98837209302326,"velocity":0.14960629921259844},{"duration":0.1046511627907023,"midi":82,"time":150.98837209302326,"velocity":0.14960629921259844},{"duration":0.1046511627907023,"midi":85,"time":150.98837209302326,"velocity":0.12598425196850394},{"duration":0.15116279069766847,"midi":89,"time":150.98837209302326,"velocity":0.2677165354330709},{"duration":0.09302325581396076,"midi":90,"time":150.98837209302326,"velocity":0.29133858267716534},{"duration":0.05813953488370771,"midi":91,"time":150.98837209302326,"velocity":0.2125984251968504},{"duration":0.08139534883721922,"midi":94,"time":150.98837209302326,"velocity":0.1889763779527559},{"duration":0.05813953488370771,"midi":95,"time":150.98837209302326,"velocity":0.16535433070866143},{"duration":0.06976744186044925,"midi":96,"time":150.98837209302326,"velocity":0.1889763779527559},{"duration":0.08139534883721922,"midi":97,"time":150.98837209302326,"velocity":0.18110236220472442},{"duration":0.034883720930224626,"midi":45,"time":151,"velocity":0.5826771653543307},{"duration":0.05813953488370771,"midi":83,"time":151,"velocity":0.13385826771653545},{"duration":0.11627906976744384,"midi":88,"time":151,"velocity":0.25196850393700787},{"duration":0.034883720930224626,"midi":98,"time":151,"velocity":0.10236220472440945},{"duration":0.17441860465115155,"midi":68,"time":151.01162790697674,"velocity":0.3779527559055118},{"duration":0.034883720930224626,"midi":75,"time":151.01162790697674,"velocity":0.12598425196850394},{"duration":0.034883720930224626,"midi":99,"time":151.02325581395348,"velocity":0.11811023622047244},{"duration":0.011627906976741542,"midi":44,"time":151.03488372093022,"velocity":0.6062992125984252},{"duration":0.011627906976741542,"midi":43,"time":151.04651162790697,"velocity":0.5826771653543307},{"duration":0.11627906976744384,"midi":87,"time":151.04651162790697,"velocity":0.14960629921259844},{"duration":0.03488372093025305,"midi":93,"time":151.04651162790697,"velocity":0.07874015748031496},{"duration":0.011627906976769964,"midi":42,"time":151.0581395348837,"velocity":0.5511811023622047},{"duration":0.11627906976744384,"midi":75,"time":151.0581395348837,"velocity":0.2440944881889764},{"duration":0.034883720930224626,"midi":95,"time":151.08139534883722,"velocity":0.2125984251968504},{"duration":0.034883720930224626,"midi":92,"time":151.09302325581396,"velocity":0.09448818897637795},{"duration":0.06976744186044925,"midi":94,"time":151.09302325581396,"velocity":0.07874015748031496},{"duration":0.023255813953483084,"midi":37,"time":151.1046511627907,"velocity":0.3858267716535433},{"duration":0.09302325581396076,"midi":56,"time":151.1046511627907,"velocity":0.36220472440944884},{"duration":0.034883720930224626,"midi":78,"time":151.11627906976744,"velocity":0.12598425196850394},{"duration":0.034883720930224626,"midi":96,"time":151.11627906976744,"velocity":0.1968503937007874},{"duration":0.023255813953483084,"midi":36,"time":151.12790697674419,"velocity":0.2992125984251969},{"duration":0.05813953488373613,"midi":102,"time":151.15116279069767,"velocity":0.09448818897637795},{"duration":0.03488372093025305,"midi":88,"time":151.1627906976744,"velocity":0.2440944881889764},{"duration":0.03488372093025305,"midi":76,"time":151.17441860465115,"velocity":0.2677165354330709},{"duration":0.04651162790699459,"midi":81,"time":151.17441860465115,"velocity":0.2125984251968504},{"duration":0.03488372093025305,"midi":95,"time":151.17441860465115,"velocity":0.13385826771653545},{"duration":0.05813953488370771,"midi":57,"time":151.19767441860466,"velocity":0.3228346456692913},{"duration":0.034883720930224626,"midi":87,"time":151.19767441860466,"velocity":0.2204724409448819},{"duration":0.09302325581393234,"midi":68,"time":151.2093023255814,"velocity":0.18110236220472442},{"duration":0.034883720930224626,"midi":75,"time":151.2093023255814,"velocity":0.29133858267716534},{"duration":0.034883720930224626,"midi":84,"time":151.2093023255814,"velocity":0.10236220472440945},{"duration":0.06976744186047767,"midi":55,"time":151.24418604651163,"velocity":0.33070866141732286},{"duration":0.05813953488370771,"midi":74,"time":151.24418604651163,"velocity":0.2440944881889764},{"duration":0.034883720930224626,"midi":88,"time":151.25581395348837,"velocity":0.07086614173228346},{"duration":0.023255813953483084,"midi":56,"time":151.3139534883721,"velocity":0.3700787401574803},{"duration":0.034883720930224626,"midi":76,"time":151.3139534883721,"velocity":0.14960629921259844},{"duration":0.034883720930224626,"midi":81,"time":151.32558139534885,"velocity":0.09448818897637795},{"duration":0.034883720930224626,"midi":57,"time":151.3372093023256,"velocity":0.36220472440944884},{"duration":0.034883720930224626,"midi":56,"time":151.3953488372093,"velocity":0.1889763779527559},{"duration":0.034883720930224626,"midi":57,"time":151.5,"velocity":0.31496062992125984},{"duration":0.034883720930224626,"midi":103,"time":151.51162790697674,"velocity":0.18110236220472442},{"duration":0.023255813953511506,"midi":45,"time":151.54651162790697,"velocity":0.6377952755905512},{"duration":0.011627906976741542,"midi":44,"time":151.56976744186048,"velocity":0.6062992125984252},{"duration":0.023255813953483084,"midi":42,"time":151.58139534883722,"velocity":0.5826771653543307},{"duration":0.0813953488371908,"midi":61,"time":151.59302325581396,"velocity":0.14960629921259844},{"duration":0.3139534883720785,"midi":73,"time":151.59302325581396,"velocity":0.1732283464566929},{"duration":0.04651162790696617,"midi":80,"time":151.59302325581396,"velocity":0.08661417322834646},{"duration":0.12790697674418539,"midi":70,"time":151.6046511627907,"velocity":0.16535433070866143},{"duration":0.09302325581396076,"midi":89,"time":151.63953488372093,"velocity":0.10236220472440945},{"duration":0.034883720930224626,"midi":36,"time":151.65116279069767,"velocity":0.33858267716535434},{"duration":0.05813953488373613,"midi":61,"time":151.6860465116279,"velocity":0.10236220472440945},{"duration":0.17441860465117998,"midi":77,"time":151.6860465116279,"velocity":0.2047244094488189},{"duration":0.04651162790696617,"midi":55,"time":151.69767441860466,"velocity":0.3700787401574803},{"duration":0.034883720930224626,"midi":68,"time":151.7325581395349,"velocity":0.1889763779527559},{"duration":0.023255813953483084,"midi":56,"time":151.74418604651163,"velocity":0.4094488188976378},{"duration":0.023255813953483084,"midi":55,"time":151.7674418604651,"velocity":0.3779527559055118},{"duration":0.03488372093025305,"midi":65,"time":151.77906976744185,"velocity":0.11023622047244094},{"duration":0.034883720930224626,"midi":56,"time":151.8139534883721,"velocity":0.2125984251968504},{"duration":0.04651162790696617,"midi":94,"time":151.8139534883721,"velocity":0.1968503937007874},{"duration":0.023255813953483084,"midi":75,"time":151.82558139534885,"velocity":0.29133858267716534},{"duration":0.034883720930224626,"midi":91,"time":151.82558139534885,"velocity":0.2204724409448819},{"duration":0.04651162790696617,"midi":97,"time":151.82558139534885,"velocity":0.30708661417322836},{"duration":0.06976744186044925,"midi":64,"time":151.8372093023256,"velocity":0.3779527559055118},{"duration":0.0813953488371908,"midi":76,"time":151.84883720930233,"velocity":0.3937007874015748},{"duration":0.06976744186044925,"midi":102,"time":151.84883720930233,"velocity":0.25984251968503935},{"duration":0.05813953488370771,"midi":84,"time":151.86046511627907,"velocity":0.10236220472440945},{"duration":0.034883720930224626,"midi":95,"time":151.86046511627907,"velocity":0.11811023622047244},{"duration":0.034883720930224626,"midi":83,"time":151.88372093023256,"velocity":0.14960629921259844},{"duration":0.034883720930224626,"midi":58,"time":151.8953488372093,"velocity":0.09448818897637795},{"duration":0.04651162790699459,"midi":70,"time":151.90697674418604,"velocity":0.11023622047244094},{"duration":0.11627906976744384,"midi":82,"time":151.91860465116278,"velocity":0.1889763779527559},{"duration":0.11627906976744384,"midi":101,"time":151.91860465116278,"velocity":0.29133858267716534},{"duration":0.11627906976744384,"midi":75,"time":151.93023255813952,"velocity":0.41732283464566927},{"duration":0.034883720930224626,"midi":58,"time":151.96511627906978,"velocity":0.11811023622047244},{"duration":0.04651162790696617,"midi":73,"time":151.97674418604652,"velocity":0.11811023622047244},{"duration":0.034883720930224626,"midi":63,"time":152.02325581395348,"velocity":0.3779527559055118},{"duration":0.034883720930224626,"midi":78,"time":152.02325581395348,"velocity":0.1968503937007874},{"duration":0.1046511627907023,"midi":88,"time":152.02325581395348,"velocity":0.2992125984251969},{"duration":0.023255813953483084,"midi":59,"time":152.03488372093022,"velocity":0.41732283464566927},{"duration":0.023255813953483084,"midi":65,"time":152.03488372093022,"velocity":0.3779527559055118},{"duration":0.06976744186047767,"midi":97,"time":152.03488372093022,"velocity":0.11811023622047244},{"duration":0.04651162790699459,"midi":102,"time":152.03488372093022,"velocity":0.1889763779527559},{"duration":0.04651162790699459,"midi":76,"time":152.04651162790697,"velocity":0.2047244094488189},{"duration":0.03488372093025305,"midi":87,"time":152.04651162790697,"velocity":0.1889763779527559},{"duration":0.13953488372092693,"midi":93,"time":152.04651162790697,"velocity":0.16535433070866143},{"duration":0.08139534883721922,"midi":94,"time":152.04651162790697,"velocity":0.1968503937007874},{"duration":0.05813953488373613,"midi":95,"time":152.04651162790697,"velocity":0.11023622047244094},{"duration":0.1046511627907023,"midi":96,"time":152.04651162790697,"velocity":0.14960629921259844},{"duration":0.09302325581396076,"midi":101,"time":152.04651162790697,"velocity":0.28346456692913385},{"duration":0.03488372093025305,"midi":45,"time":152.0581395348837,"velocity":0.5905511811023622},{"duration":0.03488372093025305,"midi":60,"time":152.0581395348837,"velocity":0.3858267716535433},{"duration":0.023255813953511506,"midi":64,"time":152.0581395348837,"velocity":0.3700787401574803},{"duration":0.05813953488373613,"midi":90,"time":152.0581395348837,"velocity":0.33070866141732286},{"duration":0.06976744186047767,"midi":98,"time":152.0581395348837,"velocity":0.14173228346456693},{"duration":0.04651162790696617,"midi":83,"time":152.06976744186048,"velocity":0.13385826771653545},{"duration":0.11627906976741542,"midi":89,"time":152.06976744186048,"velocity":0.2204724409448819},{"duration":0.04651162790696617,"midi":91,"time":152.06976744186048,"velocity":0.2125984251968504},{"duration":0.11627906976744384,"midi":65,"time":152.08139534883722,"velocity":0.3543307086614173},{"duration":0.09302325581393234,"midi":99,"time":152.08139534883722,"velocity":0.2440944881889764},{"duration":0.011627906976741542,"midi":44,"time":152.09302325581396,"velocity":0.6062992125984252},{"duration":0.034883720930224626,"midi":82,"time":152.09302325581396,"velocity":0.18110236220472442},{"duration":0.011627906976741542,"midi":43,"time":152.1046511627907,"velocity":0.5826771653543307},{"duration":0.0813953488371908,"midi":84,"time":152.1046511627907,"velocity":0.2047244094488189},{"duration":0.034883720930224626,"midi":87,"time":152.1046511627907,"velocity":0.11023622047244094},{"duration":0.011627906976741542,"midi":42,"time":152.11627906976744,"velocity":0.5511811023622047},{"duration":0.1046511627907023,"midi":75,"time":152.11627906976744,"velocity":0.2283464566929134},{"duration":0.04651162790696617,"midi":72,"time":152.12790697674419,"velocity":0.10236220472440945},{"duration":0.023255813953483084,"midi":53,"time":152.13953488372093,"velocity":0.23622047244094488},{"duration":0.023255813953483084,"midi":37,"time":152.1627906976744,"velocity":0.3779527559055118},{"duration":0.023255813953511506,"midi":36,"time":152.1860465116279,"velocity":0.2992125984251969},{"duration":0.034883720930224626,"midi":57,"time":152.2093023255814,"velocity":0.14960629921259844},{"duration":0.06976744186044925,"midi":63,"time":152.2093023255814,"velocity":0.2755905511811024},{"duration":0.023255813953483084,"midi":57,"time":152.25581395348837,"velocity":0.2755905511811024},{"duration":0.04651162790699459,"midi":81,"time":152.27906976744185,"velocity":0.33858267716535434},{"duration":0.04651162790699459,"midi":69,"time":152.2906976744186,"velocity":0.4566929133858268},{"duration":0.034883720930224626,"midi":65,"time":152.3139534883721,"velocity":0.10236220472440945},{"duration":0.034883720930224626,"midi":82,"time":152.32558139534885,"velocity":0.25196850393700787},{"duration":0.034883720930224626,"midi":70,"time":152.3372093023256,"velocity":0.4251968503937008},{"duration":0.15116279069766847,"midi":72,"time":152.34883720930233,"velocity":0.31496062992125984},{"duration":0.1046511627907023,"midi":75,"time":152.34883720930233,"velocity":0.4409448818897638},{"duration":0.11627906976744384,"midi":101,"time":152.34883720930233,"velocity":0.13385826771653545},{"duration":0.0813953488371908,"midi":103,"time":152.34883720930233,"velocity":0.14960629921259844},{"duration":0.034883720930224626,"midi":56,"time":152.36046511627907,"velocity":0.15748031496062992},{"duration":0.023255813953483084,"midi":64,"time":152.36046511627907,"velocity":0.28346456692913385},{"duration":0.08139534883721922,"midi":99,"time":152.36046511627907,"velocity":0.2440944881889764},{"duration":0.05813953488370771,"midi":53,"time":152.37209302325581,"velocity":0.15748031496062992},{"duration":0.19767441860466306,"midi":60,"time":152.37209302325581,"velocity":0.1732283464566929},{"duration":0.05813953488370771,"midi":79,"time":152.37209302325581,"velocity":0.09448818897637795},{"duration":0.1046511627907023,"midi":91,"time":152.37209302325581,"velocity":0.3228346456692913},{"duration":0.03488372093025305,"midi":63,"time":152.40697674418604,"velocity":0.13385826771653545},{"duration":0.04651162790699459,"midi":94,"time":152.41860465116278,"velocity":0.11811023622047244},{"duration":0.04651162790699459,"midi":56,"time":152.43023255813952,"velocity":0.1968503937007874},{"duration":0.05813953488370771,"midi":88,"time":152.4418604651163,"velocity":0.11023622047244094},{"duration":0.06976744186044925,"midi":102,"time":152.4418604651163,"velocity":0.1889763779527559},{"duration":0.05813953488370771,"midi":64,"time":152.45348837209303,"velocity":0.29133858267716534},{"duration":0.034883720930224626,"midi":76,"time":152.45348837209303,"velocity":0.4015748031496063},{"duration":0.05813953488370771,"midi":92,"time":152.45348837209303,"velocity":0.33070866141732286},{"duration":0.034883720930224626,"midi":95,"time":152.45348837209303,"velocity":0.15748031496062992},{"duration":0.0813953488371908,"midi":98,"time":152.46511627906978,"velocity":0.1968503937007874},{"duration":0.40697674418603924,"midi":77,"time":152.48837209302326,"velocity":0.4015748031496063},{"duration":0.05813953488370771,"midi":81,"time":152.48837209302326,"velocity":0.16535433070866143},{"duration":0.32558139534884845,"midi":96,"time":152.48837209302326,"velocity":0.2755905511811024},{"duration":0.04651162790696617,"midi":101,"time":152.5,"velocity":0.07086614173228346},{"duration":0.04651162790696617,"midi":103,"time":152.5,"velocity":0.14173228346456693},{"duration":0.04651162790696617,"midi":65,"time":152.51162790697674,"velocity":0.30708661417322836},{"duration":0.05813953488373613,"midi":87,"time":152.51162790697674,"velocity":0.14173228346456693},{"duration":0.4767441860465169,"midi":93,"time":152.51162790697674,"velocity":0.3779527559055118},{"duration":0.04651162790699459,"midi":70,"time":152.52325581395348,"velocity":0.25984251968503935},{"duration":0.2906976744186238,"midi":75,"time":152.52325581395348,"velocity":0.3779527559055118},{"duration":0.06976744186047767,"midi":72,"time":152.53488372093022,"velocity":0.1889763779527559},{"duration":0.05813953488373613,"midi":91,"time":152.54651162790697,"velocity":0.11023622047244094},{"duration":0.03488372093025305,"midi":64,"time":152.5581395348837,"velocity":0.30708661417322836},{"duration":0.034883720930224626,"midi":98,"time":152.56976744186048,"velocity":0.2047244094488189},{"duration":0.19767441860463464,"midi":99,"time":152.56976744186048,"velocity":0.1968503937007874},{"duration":0.034883720930224626,"midi":102,"time":152.56976744186048,"velocity":0.2047244094488189},{"duration":0.034883720930224626,"midi":103,"time":152.56976744186048,"velocity":0.2204724409448819},{"duration":0.0813953488371908,"midi":60,"time":152.58139534883722,"velocity":0.3937007874015748},{"duration":0.034883720930224626,"midi":101,"time":152.58139534883722,"velocity":0.07086614173228346},{"duration":0.023255813953483084,"midi":66,"time":152.59302325581396,"velocity":0.2283464566929134},{"duration":0.011627906976741542,"midi":46,"time":152.6046511627907,"velocity":0.5905511811023622},{"duration":0.011627906976741542,"midi":45,"time":152.61627906976744,"velocity":0.6299212598425197},{"duration":0.17441860465115155,"midi":65,"time":152.61627906976744,"velocity":0.41732283464566927},{"duration":0.011627906976741542,"midi":44,"time":152.62790697674419,"velocity":0.6062992125984252},{"duration":0.023255813953483084,"midi":42,"time":152.63953488372093,"velocity":0.5826771653543307},{"duration":0.05813953488373613,"midi":101,"time":152.65116279069767,"velocity":0.11811023622047244},{"duration":0.06976744186047767,"midi":103,"time":152.65116279069767,"velocity":0.13385826771653545},{"duration":0.04651162790696617,"midi":36,"time":152.7093023255814,"velocity":0.33070866141732286},{"duration":0.034883720930224626,"midi":79,"time":152.7093023255814,"velocity":0.16535433070866143},{"duration":0.04651162790696617,"midi":60,"time":152.72093023255815,"velocity":0.2755905511811024},{"duration":0.06976744186044925,"midi":103,"time":152.7325581395349,"velocity":0.1889763779527559},{"duration":0.034883720930224626,"midi":101,"time":152.74418604651163,"velocity":0.14173228346456693},{"duration":0.1046511627907023,"midi":72,"time":152.7674418604651,"velocity":0.1968503937007874},{"duration":0.034883720930224626,"midi":98,"time":152.7674418604651,"velocity":0.12598425196850394},{"duration":0.023255813953483084,"midi":60,"time":152.77906976744185,"velocity":0.23622047244094488},{"duration":0.023255813953511506,"midi":64,"time":152.7906976744186,"velocity":0.44881889763779526},{"duration":0.4651162790697754,"midi":94,"time":152.80232558139534,"velocity":0.36220472440944884},{"duration":0.10465116279067388,"midi":63,"time":152.8139534883721,"velocity":0.44881889763779526},{"duration":0.3720930232558146,"midi":101,"time":152.82558139534885,"velocity":0.28346456692913385},{"duration":0.11627906976744384,"midi":103,"time":152.82558139534885,"velocity":0.25984251968503935},{"duration":0.24418604651162923,"midi":75,"time":152.8372093023256,"velocity":0.48031496062992124},{"duration":0.3604651162790731,"midi":99,"time":152.8372093023256,"velocity":0.2125984251968504},{"duration":0.034883720930224626,"midi":81,"time":152.84883720930233,"velocity":0.16535433070866143},{"duration":0.034883720930224626,"midi":70,"time":152.87209302325581,"velocity":0.18110236220472442},{"duration":0.13953488372092693,"midi":91,"time":152.87209302325581,"velocity":0.33858267716535434},{"duration":0.023255813953483084,"midi":58,"time":152.88372093023256,"velocity":0.2283464566929134},{"duration":0.1046511627907023,"midi":72,"time":152.88372093023256,"velocity":0.1968503937007874},{"duration":0.13953488372092693,"midi":97,"time":152.88372093023256,"velocity":0.1732283464566929},{"duration":0.03488372093025305,"midi":54,"time":152.91860465116278,"velocity":0.3228346456692913},{"duration":0.04651162790699459,"midi":77,"time":152.91860465116278,"velocity":0.18110236220472442},{"duration":0.023255813953483084,"midi":64,"time":152.9418604651163,"velocity":0.31496062992125984},{"duration":0.034883720930224626,"midi":82,"time":152.95348837209303,"velocity":0.16535433070866143},{"duration":0.04651162790696617,"midi":80,"time":152.96511627906978,"velocity":0.29133858267716534},{"duration":0.17441860465115155,"midi":96,"time":152.96511627906978,"velocity":0.2125984251968504},{"duration":0.05813953488370771,"midi":98,"time":152.97674418604652,"velocity":0.1732283464566929},{"duration":0.04651162790696617,"midi":102,"time":152.98837209302326,"velocity":0.33858267716535434},{"duration":0.06976744186047767,"midi":63,"time":153.01162790697674,"velocity":0.3700787401574803},{"duration":0.04651162790696617,"midi":72,"time":153.01162790697674,"velocity":0.1732283464566929},{"duration":0.18604651162792152,"midi":77,"time":153.02325581395348,"velocity":0.29133858267716534},{"duration":0.18604651162792152,"midi":91,"time":153.02325581395348,"velocity":0.25984251968503935},{"duration":0.03488372093025305,"midi":55,"time":153.03488372093022,"velocity":0.33858267716535434},{"duration":0.2790697674418823,"midi":93,"time":153.03488372093022,"velocity":0.2283464566929134},{"duration":0.18604651162792152,"midi":97,"time":153.03488372093022,"velocity":0.2755905511811024},{"duration":0.03488372093025305,"midi":82,"time":153.04651162790697,"velocity":0.14173228346456693},{"duration":0.03488372093025305,"midi":102,"time":153.0581395348837,"velocity":0.15748031496062992},{"duration":0.034883720930224626,"midi":60,"time":153.06976744186048,"velocity":0.16535433070866143},{"duration":0.023255813953483084,"midi":64,"time":153.08139534883722,"velocity":0.2755905511811024},{"duration":0.11627906976744384,"midi":75,"time":153.09302325581396,"velocity":0.3937007874015748},{"duration":0.05813953488370771,"midi":84,"time":153.09302325581396,"velocity":0.12598425196850394},{"duration":0.034883720930224626,"midi":80,"time":153.1046511627907,"velocity":0.2125984251968504},{"duration":0.06976744186044925,"midi":83,"time":153.1046511627907,"velocity":0.16535433070866143},{"duration":0.0813953488371908,"midi":88,"time":153.1046511627907,"velocity":0.2677165354330709},{"duration":0.09302325581396076,"midi":90,"time":153.1046511627907,"velocity":0.2755905511811024},{"duration":0.0813953488371908,"midi":95,"time":153.1046511627907,"velocity":0.2755905511811024},{"duration":0.034883720930224626,"midi":45,"time":153.11627906976744,"velocity":0.5826771653543307},{"duration":0.034883720930224626,"midi":60,"time":153.11627906976744,"velocity":0.4094488188976378},{"duration":0.034883720930224626,"midi":70,"time":153.11627906976744,"velocity":0.07874015748031496},{"duration":0.034883720930224626,"midi":98,"time":153.11627906976744,"velocity":0.11023622047244094},{"duration":0.04651162790696617,"midi":63,"time":153.13953488372093,"velocity":0.2677165354330709},{"duration":0.011627906976741542,"midi":44,"time":153.15116279069767,"velocity":0.6062992125984252},{"duration":0.04651162790699459,"midi":82,"time":153.15116279069767,"velocity":0.2047244094488189},{"duration":0.04651162790699459,"midi":96,"time":153.15116279069767,"velocity":0.14960629921259844},{"duration":0.011627906976741542,"midi":43,"time":153.1627906976744,"velocity":0.5748031496062992},{"duration":0.03488372093025305,"midi":85,"time":153.1627906976744,"velocity":0.10236220472440945},{"duration":0.011627906976741542,"midi":42,"time":153.17441860465115,"velocity":0.5354330708661418},{"duration":0.05813953488373613,"midi":84,"time":153.17441860465115,"velocity":0.11811023622047244},{"duration":0.023255813953483084,"midi":53,"time":153.19767441860466,"velocity":0.2677165354330709},{"duration":0.05813953488370771,"midi":64,"time":153.19767441860466,"velocity":0.3858267716535433},{"duration":0.034883720930224626,"midi":95,"time":153.19767441860466,"velocity":0.1732283464566929},{"duration":0.04651162790696617,"midi":100,"time":153.19767441860466,"velocity":0.18110236220472442},{"duration":0.04651162790696617,"midi":102,"time":153.19767441860466,"velocity":0.2047244094488189},{"duration":0.04651162790696617,"midi":92,"time":153.2093023255814,"velocity":0.2125984251968504},{"duration":0.023255813953483084,"midi":37,"time":153.22093023255815,"velocity":0.3779527559055118},{"duration":0.0813953488371908,"midi":77,"time":153.22093023255815,"velocity":0.2677165354330709},{"duration":0.04651162790696617,"midi":60,"time":153.2325581395349,"velocity":0.23622047244094488},{"duration":0.27906976744185386,"midi":75,"time":153.2325581395349,"velocity":0.30708661417322836},{"duration":0.08139534883721922,"midi":96,"time":153.2325581395349,"velocity":0.15748031496062992},{"duration":0.023255813953483084,"midi":36,"time":153.24418604651163,"velocity":0.29133858267716534},{"duration":0.04651162790696617,"midi":68,"time":153.24418604651163,"velocity":0.11023622047244094},{"duration":0.034883720930224626,"midi":65,"time":153.25581395348837,"velocity":0.18110236220472442},{"duration":0.023255813953483084,"midi":57,"time":153.2674418604651,"velocity":0.2677165354330709},{"duration":0.03488372093025305,"midi":73,"time":153.27906976744185,"velocity":0.2283464566929134},{"duration":0.023255813953511506,"midi":65,"time":153.30232558139534,"velocity":0.33858267716535434},{"duration":0.03488372093025305,"midi":103,"time":153.30232558139534,"velocity":0.12598425196850394},{"duration":0.034883720930224626,"midi":72,"time":153.3139534883721,"velocity":0.1732283464566929},{"duration":0.034883720930224626,"midi":95,"time":153.3139534883721,"velocity":0.08661417322834646},{"duration":0.023255813953483084,"midi":64,"time":153.32558139534885,"velocity":0.2440944881889764},{"duration":0.034883720930224626,"midi":94,"time":153.32558139534885,"velocity":0.13385826771653545},{"duration":0.11627906976744384,"midi":68,"time":153.3372093023256,"velocity":0.2677165354330709},{"duration":0.06976744186044925,"midi":63,"time":153.34883720930233,"velocity":0.33070866141732286},{"duration":0.034883720930224626,"midi":53,"time":153.36046511627907,"velocity":0.1968503937007874},{"duration":0.30232558139533694,"midi":94,"time":153.37209302325581,"velocity":0.2440944881889764},{"duration":0.034883720930224626,"midi":57,"time":153.3953488372093,"velocity":0.30708661417322836},{"duration":0.05813953488373613,"midi":72,"time":153.40697674418604,"velocity":0.2283464566929134},{"duration":0.023255813953511506,"midi":55,"time":153.43023255813952,"velocity":0.25984251968503935},{"duration":0.03488372093025305,"midi":60,"time":153.43023255813952,"velocity":0.14960629921259844},{"duration":0.023255813953511506,"midi":64,"time":153.43023255813952,"velocity":0.25196850393700787},{"duration":0.0813953488371908,"midi":91,"time":153.4418604651163,"velocity":0.2125984251968504},{"duration":0.023255813953483084,"midi":53,"time":153.45348837209303,"velocity":0.23622047244094488},{"duration":0.12790697674418539,"midi":63,"time":153.45348837209303,"velocity":0.2283464566929134},{"duration":0.0813953488371908,"midi":101,"time":153.47674418604652,"velocity":0.2204724409448819},{"duration":0.023255813953483084,"midi":50,"time":153.48837209302326,"velocity":0.2283464566929134},{"duration":0.05813953488370771,"midi":76,"time":153.5,"velocity":0.1968503937007874},{"duration":0.09302325581396076,"midi":99,"time":153.5,"velocity":0.15748031496062992},{"duration":0.023255813953483084,"midi":67,"time":153.51162790697674,"velocity":0.29133858267716534},{"duration":0.023255813953483084,"midi":69,"time":153.51162790697674,"velocity":0.25196850393700787},{"duration":0.04651162790696617,"midi":100,"time":153.51162790697674,"velocity":0.14960629921259844},{"duration":0.034883720930224626,"midi":102,"time":153.51162790697674,"velocity":0.23622047244094488},{"duration":0.04651162790699459,"midi":48,"time":153.52325581395348,"velocity":0.13385826771653545},{"duration":0.11627906976744384,"midi":75,"time":153.52325581395348,"velocity":0.25196850393700787},{"duration":0.13953488372092693,"midi":91,"time":153.54651162790697,"velocity":0.15748031496062992},{"duration":0.09302325581396076,"midi":77,"time":153.5581395348837,"velocity":0.1732283464566929},{"duration":0.9418604651162639,"midi":97,"time":153.58139534883722,"velocity":0.25984251968503935},{"duration":0.0813953488371908,"midi":93,"time":153.59302325581396,"velocity":0.2047244094488189},{"duration":0.023255813953483084,"midi":63,"time":153.62790697674419,"velocity":0.2992125984251969},{"duration":0.034883720930224626,"midi":84,"time":153.62790697674419,"velocity":0.33858267716535434},{"duration":0.034883720930224626,"midi":86,"time":153.62790697674419,"velocity":0.1732283464566929},{"duration":0.04651162790696617,"midi":88,"time":153.62790697674419,"velocity":0.33858267716535434},{"duration":0.034883720930224626,"midi":90,"time":153.62790697674419,"velocity":0.1732283464566929},{"duration":0.1046511627907023,"midi":101,"time":153.62790697674419,"velocity":0.2047244094488189},{"duration":0.034883720930224626,"midi":103,"time":153.62790697674419,"velocity":0.2125984251968504},{"duration":0.034883720930224626,"midi":66,"time":153.63953488372093,"velocity":0.31496062992125984},{"duration":0.8837209302325562,"midi":80,"time":153.63953488372093,"velocity":0.4881889763779528},{"duration":0.06976744186047767,"midi":98,"time":153.63953488372093,"velocity":0.1732283464566929},{"duration":0.8837209302325562,"midi":99,"time":153.63953488372093,"velocity":0.2677165354330709},{"duration":0.023255813953483084,"midi":62,"time":153.65116279069767,"velocity":0.29133858267716534},{"duration":0.023255813953483084,"midi":72,"time":153.65116279069767,"velocity":0.30708661417322836},{"duration":0.05813953488373613,"midi":76,"time":153.65116279069767,"velocity":0.14960629921259844},{"duration":0.023255813953483084,"midi":83,"time":153.65116279069767,"velocity":0.25984251968503935},{"duration":0.023255813953483084,"midi":45,"time":153.6627906976744,"velocity":0.6141732283464567},{"duration":0.09302325581396076,"midi":70,"time":153.6627906976744,"velocity":0.2047244094488189},{"duration":0.08139534883721922,"midi":85,"time":153.6627906976744,"velocity":0.36220472440944884},{"duration":0.05813953488373613,"midi":73,"time":153.67441860465115,"velocity":0.25984251968503935},{"duration":0.05813953488373613,"midi":89,"time":153.67441860465115,"velocity":0.3700787401574803},{"duration":0.011627906976769964,"midi":44,"time":153.6860465116279,"velocity":0.6141732283464567},{"duration":0.023255813953511506,"midi":58,"time":153.6860465116279,"velocity":0.2283464566929134},{"duration":0.011627906976741542,"midi":43,"time":153.69767441860466,"velocity":0.5748031496062992},{"duration":0.06976744186044925,"midi":61,"time":153.69767441860466,"velocity":0.2677165354330709},{"duration":0.034883720930224626,"midi":78,"time":153.69767441860466,"velocity":0.11811023622047244},{"duration":0.011627906976741542,"midi":42,"time":153.7093023255814,"velocity":0.5196850393700787},{"duration":0.1046511627907023,"midi":94,"time":153.7093023255814,"velocity":0.11811023622047244},{"duration":0.034883720930224626,"midi":53,"time":153.72093023255815,"velocity":0.29133858267716534},{"duration":0.023255813953483084,"midi":72,"time":153.7325581395349,"velocity":0.25196850393700787},{"duration":0.04651162790696617,"midi":88,"time":153.7325581395349,"velocity":0.41732283464566927},{"duration":0.023255813953483084,"midi":37,"time":153.74418604651163,"velocity":0.41732283464566927},{"duration":0.4186046511627808,"midi":73,"time":153.75581395348837,"velocity":0.3464566929133858},{"duration":0.034883720930224626,"midi":63,"time":153.7674418604651,"velocity":0.16535433070866143},{"duration":0.18604651162792152,"midi":89,"time":153.77906976744185,"velocity":0.4566929133858268},{"duration":0.023255813953511506,"midi":41,"time":153.80232558139534,"velocity":0.2440944881889764},{"duration":0.034883720930224626,"midi":60,"time":153.8139534883721,"velocity":0.08661417322834646},{"duration":0.06976744186044925,"midi":95,"time":153.8139534883721,"velocity":0.14173228346456693},{"duration":0.08139534883721922,"midi":94,"time":153.88372093023256,"velocity":0.18110236220472442},{"duration":0.04651162790699459,"midi":88,"time":153.8953488372093,"velocity":0.16535433070866143},{"duration":0.04651162790699459,"midi":98,"time":153.8953488372093,"velocity":0.1968503937007874},{"duration":0.023255813953483084,"midi":57,"time":153.90697674418604,"velocity":0.2283464566929134},{"duration":0.06976744186047767,"midi":76,"time":153.90697674418604,"velocity":0.1889763779527559},{"duration":0.04651162790699459,"midi":83,"time":153.90697674418604,"velocity":0.15748031496062992},{"duration":0.03488372093025305,"midi":93,"time":153.90697674418604,"velocity":0.16535433070866143},{"duration":0.03488372093025305,"midi":102,"time":153.90697674418604,"velocity":0.10236220472440945},{"duration":0.04651162790699459,"midi":61,"time":153.91860465116278,"velocity":0.29133858267716534},{"duration":0.06976744186047767,"midi":68,"time":153.91860465116278,"velocity":0.36220472440944884},{"duration":0.023255813953511506,"midi":56,"time":153.93023255813952,"velocity":0.2677165354330709},{"duration":0.0813953488371908,"midi":46,"time":153.9418604651163,"velocity":0.28346456692913385},{"duration":0.06976744186044925,"midi":34,"time":153.97674418604652,"velocity":0.30708661417322836},{"duration":0.06976744186044925,"midi":53,"time":153.97674418604652,"velocity":0.2125984251968504},{"duration":0.1046511627907023,"midi":61,"time":153.97674418604652,"velocity":0.31496062992125984},{"duration":0.13953488372092693,"midi":89,"time":153.97674418604652,"velocity":0.44881889763779526},{"duration":0.08139534883721922,"midi":95,"time":154,"velocity":0.2125984251968504},{"duration":0.1046511627907023,"midi":68,"time":154.02325581395348,"velocity":0.23622047244094488},{"duration":0.03488372093025305,"midi":83,"time":154.03488372093022,"velocity":0.18110236220472442},{"duration":0.04651162790699459,"midi":88,"time":154.03488372093022,"velocity":0.1732283464566929},{"duration":0.03488372093025305,"midi":90,"time":154.03488372093022,"velocity":0.13385826771653545},{"duration":0.03488372093025305,"midi":91,"time":154.03488372093022,"velocity":0.12598425196850394},{"duration":0.05813953488373613,"midi":76,"time":154.04651162790697,"velocity":0.2125984251968504},{"duration":0.03488372093025305,"midi":79,"time":154.04651162790697,"velocity":0.18110236220472442},{"duration":0.023255813953511506,"midi":45,"time":154.0581395348837,"velocity":0.30708661417322836},{"duration":0.11627906976744384,"midi":53,"time":154.0581395348837,"velocity":0.2755905511811024},{"duration":0.10465116279067388,"midi":46,"time":154.08139534883722,"velocity":0.25984251968503935},{"duration":0.06976744186044925,"midi":94,"time":154.08139534883722,"velocity":0.1968503937007874},{"duration":0.023255813953483084,"midi":36,"time":154.09302325581396,"velocity":0.2755905511811024},{"duration":0.034883720930224626,"midi":61,"time":154.09302325581396,"velocity":0.2992125984251969},{"duration":0.04651162790696617,"midi":34,"time":154.12790697674419,"velocity":0.2992125984251969},{"duration":0.30232558139533694,"midi":89,"time":154.12790697674419,"velocity":0.4330708661417323},{"duration":0.023255813953483084,"midi":61,"time":154.13953488372093,"velocity":0.23622047244094488},{"duration":0.023255813953483084,"midi":58,"time":154.15116279069767,"velocity":0.3543307086614173},{"duration":0.16279069767443843,"midi":95,"time":154.15116279069767,"velocity":0.1889763779527559},{"duration":0.03488372093025305,"midi":78,"time":154.1627906976744,"velocity":0.25196850393700787},{"duration":0.08139534883721922,"midi":88,"time":154.1627906976744,"velocity":0.2047244094488189},{"duration":0.08139534883721922,"midi":94,"time":154.1627906976744,"velocity":0.1968503937007874},{"duration":0.05813953488373613,"midi":96,"time":154.1627906976744,"velocity":0.11023622047244094},{"duration":0.08139534883721922,"midi":102,"time":154.1627906976744,"velocity":0.25196850393700787},{"duration":0.03488372093025305,"midi":60,"time":154.17441860465115,"velocity":0.3937007874015748},{"duration":0.023255813953511506,"midi":64,"time":154.17441860465115,"velocity":0.3543307086614173},{"duration":0.023255813953511506,"midi":67,"time":154.17441860465115,"velocity":0.2992125984251969},{"duration":0.04651162790699459,"midi":86,"time":154.17441860465115,"velocity":0.1889763779527559},{"duration":0.04651162790699459,"midi":90,"time":154.17441860465115,"velocity":0.28346456692913385},{"duration":0.023255813953511506,"midi":45,"time":154.1860465116279,"velocity":0.5590551181102362},{"duration":0.33720930232559,"midi":73,"time":154.1860465116279,"velocity":0.36220472440944884},{"duration":0.04651162790699459,"midi":83,"time":154.1860465116279,"velocity":0.10236220472440945},{"duration":0.04651162790699459,"midi":91,"time":154.1860465116279,"velocity":0.1732283464566929},{"duration":0.034883720930224626,"midi":66,"time":154.19767441860466,"velocity":0.11023622047244094},{"duration":0.011627906976741542,"midi":44,"time":154.2093023255814,"velocity":0.6062992125984252},{"duration":0.13953488372092693,"midi":61,"time":154.2093023255814,"velocity":0.2440944881889764},{"duration":0.011627906976741542,"midi":43,"time":154.22093023255815,"velocity":0.5748031496062992},{"duration":0.06976744186044925,"midi":82,"time":154.22093023255815,"velocity":0.12598425196850394},{"duration":0.011627906976741542,"midi":42,"time":154.2325581395349,"velocity":0.5511811023622047},{"duration":0.06976744186044925,"midi":70,"time":154.2325581395349,"velocity":0.18110236220472442},{"duration":0.023255813953483084,"midi":52,"time":154.24418604651163,"velocity":0.25984251968503935},{"duration":0.023255813953483084,"midi":37,"time":154.27906976744185,"velocity":0.4015748031496063},{"duration":0.04651162790699459,"midi":78,"time":154.27906976744185,"velocity":0.1968503937007874},{"duration":0.023255813953511506,"midi":36,"time":154.30232558139534,"velocity":0.3228346456692913},{"duration":0.023255813953511506,"midi":55,"time":154.30232558139534,"velocity":0.28346456692913385},{"duration":0.023255813953511506,"midi":69,"time":154.30232558139534,"velocity":0.2677165354330709},{"duration":0.04651162790699459,"midi":86,"time":154.30232558139534,"velocity":0.14960629921259844},{"duration":0.03488372093025305,"midi":91,"time":154.30232558139534,"velocity":0.1889763779527559},{"duration":0.03488372093025305,"midi":94,"time":154.30232558139534,"velocity":0.11811023622047244},{"duration":0.034883720930224626,"midi":77,"time":154.3139534883721,"velocity":0.11811023622047244},{"duration":0.19767441860463464,"midi":82,"time":154.3139534883721,"velocity":0.2204724409448819},{"duration":0.04651162790696617,"midi":83,"time":154.3139534883721,"velocity":0.11811023622047244},{"duration":0.10465116279067388,"midi":56,"time":154.32558139534885,"velocity":0.33858267716535434},{"duration":0.15116279069766847,"midi":75,"time":154.32558139534885,"velocity":0.14173228346456693},{"duration":0.04651162790696617,"midi":79,"time":154.32558139534885,"velocity":0.16535433070866143},{"duration":0.06976744186044925,"midi":95,"time":154.32558139534885,"velocity":0.14173228346456693},{"duration":0.034883720930224626,"midi":49,"time":154.3372093023256,"velocity":0.2440944881889764},{"duration":0.034883720930224626,"midi":66,"time":154.3372093023256,"velocity":0.2283464566929134},{"duration":0.04651162790696617,"midi":63,"time":154.36046511627907,"velocity":0.2440944881889764},{"duration":0.034883720930224626,"midi":50,"time":154.37209302325581,"velocity":0.25984251968503935},{"duration":0.034883720930224626,"midi":37,"time":154.38372093023256,"velocity":0.2677165354330709},{"duration":0.05813953488373613,"midi":66,"time":154.38372093023256,"velocity":0.2440944881889764},{"duration":0.06976744186047767,"midi":94,"time":154.3953488372093,"velocity":0.23622047244094488},{"duration":0.09302325581396076,"midi":102,"time":154.40697674418604,"velocity":0.2047244094488189},{"duration":0.03488372093025305,"midi":63,"time":154.41860465116278,"velocity":0.2677165354330709},{"duration":0.023255813953511506,"midi":50,"time":154.43023255813952,"velocity":0.2992125984251969},{"duration":0.03488372093025305,"midi":93,"time":154.43023255813952,"velocity":0.1732283464566929},{"duration":0.023255813953483084,"midi":56,"time":154.4418604651163,"velocity":0.23622047244094488},{"duration":0.023255813953483084,"midi":60,"time":154.4418604651163,"velocity":0.2283464566929134},{"duration":0.15116279069766847,"midi":89,"time":154.4418604651163,"velocity":0.4251968503937008},{"duration":0.11627906976744384,"midi":70,"time":154.45348837209303,"velocity":0.1889763779527559},{"duration":0.17441860465115155,"midi":48,"time":154.46511627906978,"velocity":0.3228346456692913},{"duration":0.1046511627907023,"midi":55,"time":154.46511627906978,"velocity":0.23622047244094488},{"duration":0.12790697674418539,"midi":95,"time":154.46511627906978,"velocity":0.18110236220472442},{"duration":0.023255813953483084,"midi":37,"time":154.48837209302326,"velocity":0.2992125984251969},{"duration":0.034883720930224626,"midi":61,"time":154.48837209302326,"velocity":0.23622047244094488},{"duration":0.034883720930224626,"midi":36,"time":154.51162790697674,"velocity":0.2992125984251969},{"duration":0.023255813953483084,"midi":74,"time":154.52325581395348,"velocity":0.28346456692913385},{"duration":0.034883720930224626,"midi":81,"time":154.52325581395348,"velocity":0.41732283464566927},{"duration":0.06976744186047767,"midi":98,"time":154.52325581395348,"velocity":0.25196850393700787},{"duration":0.05813953488373613,"midi":73,"time":154.54651162790697,"velocity":0.3700787401574803},{"duration":0.2558139534883992,"midi":80,"time":154.5581395348837,"velocity":0.41732283464566927},{"duration":0.04651162790699459,"midi":97,"time":154.5581395348837,"velocity":0.07874015748031496},{"duration":0.30232558139536536,"midi":99,"time":154.5581395348837,"velocity":0.30708661417322836},{"duration":0.023255813953483084,"midi":56,"time":154.56976744186048,"velocity":0.23622047244094488},{"duration":0.0813953488371908,"midi":68,"time":154.56976744186048,"velocity":0.28346456692913385},{"duration":0.0813953488371908,"midi":102,"time":154.56976744186048,"velocity":0.25196850393700787},{"duration":0.04651162790696617,"midi":88,"time":154.58139534883722,"velocity":0.36220472440944884},{"duration":0.04651162790696617,"midi":94,"time":154.59302325581396,"velocity":0.1968503937007874},{"duration":0.04651162790696617,"midi":56,"time":154.6046511627907,"velocity":0.2204724409448819},{"duration":0.25581395348837077,"midi":73,"time":154.62790697674419,"velocity":0.36220472440944884},{"duration":0.2325581395348877,"midi":89,"time":154.62790697674419,"velocity":0.4094488188976378},{"duration":0.034883720930224626,"midi":75,"time":154.63953488372093,"velocity":0.11023622047244094},{"duration":0.22093023255814614,"midi":95,"time":154.63953488372093,"velocity":0.2204724409448819},{"duration":0.09302325581396076,"midi":68,"time":154.67441860465115,"velocity":0.2677165354330709},{"duration":0.05813953488373613,"midi":78,"time":154.6860465116279,"velocity":0.2755905511811024},{"duration":0.03488372093025305,"midi":98,"time":154.6860465116279,"velocity":0.16535433070866143},{"duration":0.034883720930224626,"midi":103,"time":154.69767441860466,"velocity":0.16535433070866143},{"duration":0.05813953488370771,"midi":66,"time":154.7093023255814,"velocity":0.16535433070866143},{"duration":0.011627906976741542,"midi":48,"time":154.72093023255815,"velocity":0.5354330708661418},{"duration":0.04651162790696617,"midi":77,"time":154.72093023255815,"velocity":0.11811023622047244},{"duration":0.011627906976741542,"midi":45,"time":154.7325581395349,"velocity":0.5905511811023622},{"duration":0.06976744186044925,"midi":102,"time":154.7325581395349,"velocity":0.1732283464566929},{"duration":0.011627906976741542,"midi":44,"time":154.74418604651163,"velocity":0.5826771653543307},{"duration":0.023255813953483084,"midi":42,"time":154.75581395348837,"velocity":0.5748031496062992},{"duration":0.05813953488373613,"midi":75,"time":154.75581395348837,"velocity":0.13385826771653545},{"duration":0.1046511627907023,"midi":51,"time":154.7674418604651,"velocity":0.25984251968503935},{"duration":0.034883720930224626,"midi":56,"time":154.7674418604651,"velocity":0.11811023622047244},{"duration":0.011627906976741542,"midi":41,"time":154.77906976744185,"velocity":0.5196850393700787},{"duration":0.08139534883721922,"midi":78,"time":154.77906976744185,"velocity":0.14960629921259844},{"duration":0.03488372093025305,"midi":70,"time":154.80232558139534,"velocity":0.15748031496062992},{"duration":0.06976744186047767,"midi":103,"time":154.80232558139534,"velocity":0.15748031496062992},{"duration":0.20930232558137618,"midi":66,"time":154.8139534883721,"velocity":0.23622047244094488},{"duration":0.034883720930224626,"midi":80,"time":154.82558139534885,"velocity":0.1732283464566929},{"duration":0.023255813953483084,"midi":35,"time":154.8372093023256,"velocity":0.3700787401574803},{"duration":0.034883720930224626,"midi":61,"time":154.84883720930233,"velocity":0.16535433070866143},{"duration":0.05813953488370771,"midi":70,"time":154.84883720930233,"velocity":0.15748031496062992},{"duration":0.05813953488370771,"midi":80,"time":154.87209302325581,"velocity":0.2125984251968504},{"duration":0.11627906976744384,"midi":89,"time":154.87209302325581,"velocity":0.23622047244094488},{"duration":0.05813953488373613,"midi":57,"time":154.8953488372093,"velocity":0.2047244094488189},{"duration":0.03488372093025305,"midi":62,"time":154.93023255813952,"velocity":0.3700787401574803},{"duration":0.04651162790699459,"midi":75,"time":154.93023255813952,"velocity":0.2125984251968504},{"duration":0.0813953488371908,"midi":82,"time":154.9418604651163,"velocity":0.11811023622047244},{"duration":0.06976744186044925,"midi":91,"time":154.9418604651163,"velocity":0.2440944881889764},{"duration":0.05813953488370771,"midi":93,"time":154.9418604651163,"velocity":0.14960629921259844},{"duration":0.034883720930224626,"midi":94,"time":154.9418604651163,"velocity":0.11811023622047244},{"duration":0.034883720930224626,"midi":98,"time":154.9418604651163,"velocity":0.2047244094488189},{"duration":0.11627906976741542,"midi":99,"time":154.9418604651163,"velocity":0.33858267716535434},{"duration":0.04651162790696617,"midi":100,"time":154.9418604651163,"velocity":0.16535433070866143},{"duration":0.034883720930224626,"midi":102,"time":154.9418604651163,"velocity":0.10236220472440945},{"duration":0.04651162790696617,"midi":80,"time":154.95348837209303,"velocity":0.1732283464566929},{"duration":0.034883720930224626,"midi":85,"time":154.95348837209303,"velocity":0.11811023622047244},{"duration":0.24418604651162923,"midi":63,"time":154.96511627906978,"velocity":0.4015748031496063},{"duration":0.034883720930224626,"midi":76,"time":154.96511627906978,"velocity":0.3228346456692913},{"duration":0.04651162790696617,"midi":79,"time":154.96511627906978,"velocity":0.15748031496062992},{"duration":0.034883720930224626,"midi":83,"time":154.96511627906978,"velocity":0.14960629921259844},{"duration":0.023255813953483084,"midi":45,"time":154.97674418604652,"velocity":0.3464566929133858},{"duration":0.023255813953483084,"midi":53,"time":154.97674418604652,"velocity":0.23622047244094488},{"duration":0.06976744186044925,"midi":72,"time":154.97674418604652,"velocity":0.2204724409448819},{"duration":0.04651162790696617,"midi":97,"time":154.97674418604652,"velocity":0.14173228346456693},{"duration":0.1046511627907023,"midi":46,"time":155,"velocity":0.28346456692913385},{"duration":0.05813953488373613,"midi":53,"time":155.01162790697674,"velocity":0.25196850393700787},{"duration":0.17441860465117998,"midi":70,"time":155.02325581395348,"velocity":0.2047244094488189},{"duration":0.2093023255814046,"midi":73,"time":155.02325581395348,"velocity":0.14173228346456693},{"duration":0.04651162790699459,"midi":100,"time":155.02325581395348,"velocity":0.16535433070866143},{"duration":0.04651162790699459,"midi":103,"time":155.02325581395348,"velocity":0.2440944881889764},{"duration":0.09302325581396076,"midi":34,"time":155.04651162790697,"velocity":0.31496062992125984},{"duration":0.03488372093025305,"midi":66,"time":155.04651162790697,"velocity":0.14173228346456693},{"duration":0.06976744186044925,"midi":78,"time":155.09302325581396,"velocity":0.12598425196850394},{"duration":0.06976744186047767,"midi":66,"time":155.12790697674419,"velocity":0.11023622047244094},{"duration":0.15116279069766847,"midi":99,"time":155.15116279069767,"velocity":0.14173228346456693},{"duration":0.05813953488370771,"midi":82,"time":155.19767441860466,"velocity":0.13385826771653545},{"duration":0.023255813953483084,"midi":66,"time":155.2093023255814,"velocity":0.4251968503937008},{"duration":0.04651162790696617,"midi":72,"time":155.22093023255815,"velocity":0.11023622047244094},{"duration":0.04651162790696617,"midi":87,"time":155.22093023255815,"velocity":0.2125984251968504},{"duration":0.19767441860463464,"midi":89,"time":155.22093023255815,"velocity":0.25984251968503935},{"duration":0.09302325581396076,"midi":93,"time":155.22093023255815,"velocity":0.15748031496062992},{"duration":0.05813953488370771,"midi":95,"time":155.22093023255815,"velocity":0.2125984251968504},{"duration":0.05813953488370771,"midi":96,"time":155.22093023255815,"velocity":0.23622047244094488},{"duration":0.09302325581396076,"midi":97,"time":155.22093023255815,"velocity":0.1968503937007874},{"duration":0.034883720930224626,"midi":100,"time":155.22093023255815,"velocity":0.1732283464566929},{"duration":0.04651162790696617,"midi":103,"time":155.22093023255815,"velocity":0.11023622047244094},{"duration":0.19767441860463464,"midi":65,"time":155.2325581395349,"velocity":0.3700787401574803},{"duration":0.04651162790696617,"midi":80,"time":155.2325581395349,"velocity":0.1732283464566929},{"duration":0.2093023255814046,"midi":84,"time":155.2325581395349,"velocity":0.36220472440944884},{"duration":0.05813953488370771,"midi":88,"time":155.2325581395349,"velocity":0.25984251968503935},{"duration":0.06976744186044925,"midi":94,"time":155.2325581395349,"velocity":0.2204724409448819},{"duration":0.034883720930224626,"midi":98,"time":155.2325581395349,"velocity":0.14173228346456693},{"duration":0.023255813953483084,"midi":45,"time":155.24418604651163,"velocity":0.5748031496062992},{"duration":0.1860465116278931,"midi":77,"time":155.24418604651163,"velocity":0.3779527559055118},{"duration":0.034883720930224626,"midi":81,"time":155.24418604651163,"velocity":0.18110236220472442},{"duration":0.04651162790696617,"midi":83,"time":155.24418604651163,"velocity":0.14960629921259844},{"duration":0.034883720930224626,"midi":91,"time":155.24418604651163,"velocity":0.2204724409448819},{"duration":0.011627906976741542,"midi":44,"time":155.2674418604651,"velocity":0.6141732283464567},{"duration":0.011627906976741542,"midi":43,"time":155.27906976744185,"velocity":0.5826771653543307},{"duration":0.03488372093025305,"midi":73,"time":155.27906976744185,"velocity":0.11811023622047244},{"duration":0.08139534883721922,"midi":75,"time":155.27906976744185,"velocity":0.1968503937007874},{"duration":0.04651162790699459,"midi":82,"time":155.27906976744185,"velocity":0.13385826771653545},{"duration":0.011627906976741542,"midi":42,"time":155.2906976744186,"velocity":0.5590551181102362},{"duration":0.011627906976769964,"midi":41,"time":155.30232558139534,"velocity":0.5118110236220472},{"duration":0.05813953488373613,"midi":52,"time":155.30232558139534,"velocity":0.25984251968503935},{"duration":0.09302325581396076,"midi":61,"time":155.30232558139534,"velocity":0.1968503937007874},{"duration":0.06976744186047767,"midi":70,"time":155.30232558139534,"velocity":0.18110236220472442},{"duration":0.023255813953483084,"midi":37,"time":155.3372093023256,"velocity":0.4094488188976378},{"duration":0.04651162790696617,"midi":97,"time":155.3372093023256,"velocity":0.07874015748031496},{"duration":0.023255813953483084,"midi":36,"time":155.36046511627907,"velocity":0.3228346456692913},{"duration":0.034883720930224626,"midi":95,"time":155.36046511627907,"velocity":0.11811023622047244},{"duration":0.034883720930224626,"midi":98,"time":155.36046511627907,"velocity":0.08661417322834646},{"duration":0.08139534883721922,"midi":68,"time":155.37209302325581,"velocity":0.25984251968503935},{"duration":0.034883720930224626,"midi":71,"time":155.37209302325581,"velocity":0.1732283464566929},{"duration":0.06976744186047767,"midi":56,"time":155.38372093023256,"velocity":0.2125984251968504},{"duration":0.034883720930224626,"midi":82,"time":155.3953488372093,"velocity":0.13385826771653545},{"duration":0.04651162790699459,"midi":88,"time":155.40697674418604,"velocity":0.2047244094488189},{"duration":0.03488372093025305,"midi":102,"time":155.40697674418604,"velocity":0.18110236220472442},{"duration":0.03488372093025305,"midi":78,"time":155.41860465116278,"velocity":0.16535433070866143},{"duration":0.03488372093025305,"midi":73,"time":155.43023255813952,"velocity":0.14173228346456693},{"duration":0.05813953488370771,"midi":60,"time":155.46511627906978,"velocity":0.33858267716535434},{"duration":0.04651162790696617,"midi":66,"time":155.46511627906978,"velocity":0.23622047244094488},{"duration":0.06976744186044925,"midi":72,"time":155.46511627906978,"velocity":0.3700787401574803},{"duration":0.034883720930224626,"midi":77,"time":155.46511627906978,"velocity":0.2204724409448819},{"duration":0.06976744186044925,"midi":100,"time":155.46511627906978,"velocity":0.16535433070866143},{"duration":0.04651162790696617,"midi":91,"time":155.47674418604652,"velocity":0.2125984251968504},{"duration":0.04651162790696617,"midi":98,"time":155.47674418604652,"velocity":0.1968503937007874},{"duration":0.034883720930224626,"midi":75,"time":155.48837209302326,"velocity":0.14173228346456693},{"duration":0.05813953488370771,"midi":94,"time":155.48837209302326,"velocity":0.14960629921259844},{"duration":0.04651162790696617,"midi":101,"time":155.48837209302326,"velocity":0.07874015748031496},{"duration":0.04651162790696617,"midi":86,"time":155.5,"velocity":0.12598425196850394},{"duration":0.034883720930224626,"midi":88,"time":155.5,"velocity":0.08661417322834646},{"duration":0.023255813953483084,"midi":52,"time":155.51162790697674,"velocity":0.2440944881889764},{"duration":0.034883720930224626,"midi":102,"time":155.51162790697674,"velocity":0.12598425196850394},{"duration":0.04651162790699459,"midi":61,"time":155.52325581395348,"velocity":0.29133858267716534},{"duration":0.04651162790699459,"midi":92,"time":155.52325581395348,"velocity":0.1732283464566929},{"duration":0.05813953488373613,"midi":97,"time":155.52325581395348,"velocity":0.11811023622047244},{"duration":0.06976744186047767,"midi":99,"time":155.52325581395348,"velocity":0.31496062992125984},{"duration":0.023255813953483084,"midi":40,"time":155.53488372093022,"velocity":0.30708661417322836},{"duration":0.08139534883721922,"midi":77,"time":155.54651162790697,"velocity":0.13385826771653545},{"duration":0.04651162790699459,"midi":103,"time":155.54651162790697,"velocity":0.1968503937007874},{"duration":0.04651162790699459,"midi":48,"time":155.5581395348837,"velocity":0.2125984251968504},{"duration":0.04651162790696617,"midi":41,"time":155.56976744186048,"velocity":0.2125984251968504},{"duration":0.023255813953483084,"midi":60,"time":155.56976744186048,"velocity":0.2755905511811024},{"duration":0.04651162790696617,"midi":78,"time":155.58139534883722,"velocity":0.13385826771653545},{"duration":0.04651162790696617,"midi":80,"time":155.61627906976744,"velocity":0.14173228346456693},{"duration":0.04651162790696617,"midi":91,"time":155.61627906976744,"velocity":0.1889763779527559},{"duration":0.034883720930224626,"midi":98,"time":155.61627906976744,"velocity":0.2125984251968504},{"duration":0.04651162790696617,"midi":99,"time":155.61627906976744,"velocity":0.18110236220472442},{"duration":0.034883720930224626,"midi":100,"time":155.61627906976744,"velocity":0.1732283464566929},{"duration":0.034883720930224626,"midi":63,"time":155.62790697674419,"velocity":0.33070866141732286},{"duration":0.09302325581396076,"midi":68,"time":155.62790697674419,"velocity":0.25196850393700787},{"duration":0.06976744186047767,"midi":76,"time":155.62790697674419,"velocity":0.2125984251968504},{"duration":0.04651162790696617,"midi":79,"time":155.62790697674419,"velocity":0.1968503937007874},{"duration":0.04651162790696617,"midi":83,"time":155.62790697674419,"velocity":0.14960629921259844},{"duration":0.034883720930224626,"midi":93,"time":155.62790697674419,"velocity":0.1968503937007874},{"duration":0.023255813953483084,"midi":53,"time":155.63953488372093,"velocity":0.28346456692913385},{"duration":0.05813953488373613,"midi":72,"time":155.63953488372093,"velocity":0.28346456692913385},{"duration":0.023255813953483084,"midi":45,"time":155.65116279069767,"velocity":0.33070866141732286},{"duration":0.023255813953511506,"midi":35,"time":155.67441860465115,"velocity":0.33070866141732286},{"duration":0.03488372093025305,"midi":46,"time":155.67441860465115,"velocity":0.28346456692913385},{"duration":0.023255813953511506,"midi":53,"time":155.67441860465115,"velocity":0.25984251968503935},{"duration":0.023255813953483084,"midi":34,"time":155.69767441860466,"velocity":0.3228346456692913},{"duration":0.034883720930224626,"midi":63,"time":155.69767441860466,"velocity":0.2992125984251969},{"duration":0.023255813953483084,"midi":35,"time":155.72093023255815,"velocity":0.2992125984251969},{"duration":0.034883720930224626,"midi":46,"time":155.72093023255815,"velocity":0.18110236220472442},{"duration":0.4534883720930054,"midi":75,"time":155.7325581395349,"velocity":0.4881889763779528},{"duration":0.44186046511626387,"midi":91,"time":155.7325581395349,"velocity":0.4094488188976378},{"duration":0.22093023255814614,"midi":94,"time":155.7325581395349,"velocity":0.25984251968503935},{"duration":0.2674418604651123,"midi":99,"time":155.7325581395349,"velocity":0.3228346456692913},{"duration":0.023255813953483084,"midi":34,"time":155.74418604651163,"velocity":0.23622047244094488},{"duration":0.023255813953483084,"midi":63,"time":155.74418604651163,"velocity":0.3858267716535433},{"duration":0.08139534883721922,"midi":68,"time":155.74418604651163,"velocity":0.2440944881889764},{"duration":0.034883720930224626,"midi":82,"time":155.74418604651163,"velocity":0.14173228346456693},{"duration":0.034883720930224626,"midi":96,"time":155.74418604651163,"velocity":0.1889763779527559},{"duration":0.08139534883721922,"midi":97,"time":155.74418604651163,"velocity":0.2125984251968504},{"duration":0.034883720930224626,"midi":100,"time":155.74418604651163,"velocity":0.1732283464566929},{"duration":0.22093023255814614,"midi":101,"time":155.74418604651163,"velocity":0.2283464566929134},{"duration":0.034883720930224626,"midi":78,"time":155.75581395348837,"velocity":0.2204724409448819},{"duration":0.034883720930224626,"midi":83,"time":155.75581395348837,"velocity":0.12598425196850394},{"duration":0.034883720930224626,"midi":88,"time":155.75581395348837,"velocity":0.14173228346456693},{"duration":0.023255813953483084,"midi":90,"time":155.75581395348837,"velocity":0.2440944881889764},{"duration":0.011627906976741542,"midi":48,"time":155.77906976744185,"velocity":0.5590551181102362},{"duration":0.04651162790699459,"midi":65,"time":155.77906976744185,"velocity":0.14960629921259844},{"duration":0.011627906976741542,"midi":45,"time":155.7906976744186,"velocity":0.6220472440944882},{"duration":0.03488372093025305,"midi":79,"time":155.7906976744186,"velocity":0.07086614173228346},{"duration":0.011627906976769964,"midi":44,"time":155.80232558139534,"velocity":0.6220472440944882},{"duration":0.023255813953511506,"midi":54,"time":155.80232558139534,"velocity":0.2283464566929134},{"duration":0.023255813953483084,"midi":42,"time":155.8139534883721,"velocity":0.5826771653543307},{"duration":0.04651162790696617,"midi":58,"time":155.8139534883721,"velocity":0.14960629921259844},{"duration":0.06976744186044925,"midi":53,"time":155.82558139534885,"velocity":0.23622047244094488},{"duration":0.32558139534882,"midi":63,"time":155.84883720930233,"velocity":0.4094488188976378},{"duration":0.16279069767441,"midi":97,"time":155.84883720930233,"velocity":0.09448818897637795},{"duration":0.04651162790696617,"midi":37,"time":155.86046511627907,"velocity":0.41732283464566927},{"duration":0.13953488372092693,"midi":94,"time":155.97674418604652,"velocity":0.2204724409448819},{"duration":0.06976744186044925,"midi":98,"time":155.98837209302326,"velocity":0.2992125984251969},{"duration":0.1046511627907023,"midi":101,"time":155.98837209302326,"velocity":0.1889763779527559},{"duration":0.04651162790696617,"midi":96,"time":156,"velocity":0.33070866141732286},{"duration":0.11627906976744384,"midi":68,"time":156.01162790697674,"velocity":0.31496062992125984},{"duration":0.08139534883721922,"midi":72,"time":156.01162790697674,"velocity":0.2440944881889764},{"duration":0.08139534883721922,"midi":99,"time":156.01162790697674,"velocity":0.30708661417322836},{"duration":0.034883720930224626,"midi":100,"time":156.01162790697674,"velocity":0.11811023622047244},{"duration":0.034883720930224626,"midi":102,"time":156.01162790697674,"velocity":0.07874015748031496},{"duration":0.04651162790699459,"midi":77,"time":156.02325581395348,"velocity":0.1889763779527559},{"duration":0.034883720930224626,"midi":86,"time":156.02325581395348,"velocity":0.14960629921259844},{"duration":0.06976744186047767,"midi":44,"time":156.03488372093022,"velocity":0.29133858267716534},{"duration":0.04651162790699459,"midi":51,"time":156.03488372093022,"velocity":0.2440944881889764},{"duration":0.1046511627907023,"midi":56,"time":156.03488372093022,"velocity":0.3464566929133858},{"duration":0.03488372093025305,"midi":78,"time":156.03488372093022,"velocity":0.11811023622047244},{"duration":0.03488372093025305,"midi":97,"time":156.04651162790697,"velocity":0.16535433070866143},{"duration":0.11627906976744384,"midi":82,"time":156.0581395348837,"velocity":0.33070866141732286},{"duration":0.05813953488370771,"midi":51,"time":156.09302325581396,"velocity":0.2047244094488189},{"duration":0.06976744186044925,"midi":97,"time":156.1046511627907,"velocity":0.2125984251968504},{"duration":0.04651162790696617,"midi":32,"time":156.11627906976744,"velocity":0.2440944881889764},{"duration":0.08139534883721922,"midi":68,"time":156.13953488372093,"velocity":0.2283464566929134},{"duration":0.11627906976744384,"midi":58,"time":156.15116279069767,"velocity":0.2440944881889764},{"duration":0.04651162790699459,"midi":79,"time":156.15116279069767,"velocity":0.18110236220472442},{"duration":0.034883720930224626,"midi":88,"time":156.15116279069767,"velocity":0.12598425196850394},{"duration":0.023255813953483084,"midi":46,"time":156.1627906976744,"velocity":0.30708661417322836},{"duration":0.03488372093025305,"midi":83,"time":156.1627906976744,"velocity":0.25196850393700787},{"duration":0.1046511627907023,"midi":53,"time":156.17441860465115,"velocity":0.2755905511811024},{"duration":0.03488372093025305,"midi":64,"time":156.17441860465115,"velocity":0.2755905511811024},{"duration":0.0813953488371908,"midi":46,"time":156.19767441860466,"velocity":0.25984251968503935},{"duration":0.023255813953483084,"midi":35,"time":156.2093023255814,"velocity":0.30708661417322836},{"duration":0.0813953488371908,"midi":75,"time":156.2093023255814,"velocity":0.3937007874015748},{"duration":0.05813953488370771,"midi":62,"time":156.22093023255815,"velocity":0.2992125984251969},{"duration":0.05813953488370771,"midi":34,"time":156.2325581395349,"velocity":0.3228346456692913},{"duration":0.04651162790696617,"midi":82,"time":156.2325581395349,"velocity":0.4094488188976378},{"duration":0.19767441860466306,"midi":91,"time":156.24418604651163,"velocity":0.2677165354330709},{"duration":0.023255813953483084,"midi":63,"time":156.2674418604651,"velocity":0.3779527559055118},{"duration":0.023255813953483084,"midi":45,"time":156.27906976744185,"velocity":0.2283464566929134},{"duration":0.023255813953483084,"midi":78,"time":156.27906976744185,"velocity":0.25196850393700787},{"duration":0.03488372093025305,"midi":80,"time":156.27906976744185,"velocity":0.2047244094488189},{"duration":0.023255813953483084,"midi":83,"time":156.27906976744185,"velocity":0.3858267716535433},{"duration":0.03488372093025305,"midi":84,"time":156.27906976744185,"velocity":0.1968503937007874},{"duration":0.08139534883721922,"midi":90,"time":156.27906976744185,"velocity":0.31496062992125984},{"duration":0.08139534883721922,"midi":94,"time":156.27906976744185,"velocity":0.2204724409448819},{"duration":0.05813953488373613,"midi":97,"time":156.27906976744185,"velocity":0.1889763779527559},{"duration":0.03488372093025305,"midi":100,"time":156.27906976744185,"velocity":0.12598425196850394},{"duration":0.09302325581396076,"midi":101,"time":156.27906976744185,"velocity":0.18110236220472442},{"duration":0.08139534883721922,"midi":89,"time":156.2906976744186,"velocity":0.25196850393700787},{"duration":0.04651162790699459,"midi":98,"time":156.2906976744186,"velocity":0.08661417322834646},{"duration":0.12790697674418539,"midi":82,"time":156.30232558139534,"velocity":0.4094488188976378},{"duration":0.023255813953511506,"midi":88,"time":156.30232558139534,"velocity":0.2677165354330709},{"duration":0.011627906976741542,"midi":45,"time":156.3139534883721,"velocity":0.5748031496062992},{"duration":0.09302325581393234,"midi":75,"time":156.3139534883721,"velocity":0.4015748031496063},{"duration":0.011627906976741542,"midi":44,"time":156.32558139534885,"velocity":0.6062992125984252},{"duration":0.06976744186044925,"midi":63,"time":156.32558139534885,"velocity":0.2125984251968504},{"duration":0.034883720930224626,"midi":93,"time":156.32558139534885,"velocity":0.12598425196850394},{"duration":0.011627906976741542,"midi":43,"time":156.3372093023256,"velocity":0.5826771653543307},{"duration":0.034883720930224626,"midi":80,"time":156.3372093023256,"velocity":0.14960629921259844},{"duration":0.04651162790696617,"midi":85,"time":156.3372093023256,"velocity":0.14173228346456693},{"duration":0.011627906976741542,"midi":42,"time":156.34883720930233,"velocity":0.5511811023622047},{"duration":0.023255813953483084,"midi":52,"time":156.36046511627907,"velocity":0.2440944881889764},{"duration":0.023255813953483084,"midi":37,"time":156.3953488372093,"velocity":0.4015748031496063},{"duration":0.08139534883721922,"midi":63,"time":156.40697674418604,"velocity":0.33070866141732286},{"duration":0.023255813953511506,"midi":36,"time":156.41860465116278,"velocity":0.3228346456692913},{"duration":0.03488372093025305,"midi":72,"time":156.41860465116278,"velocity":0.2047244094488189},{"duration":0.09302325581396076,"midi":75,"time":156.41860465116278,"velocity":0.4015748031496063},{"duration":0.05813953488373613,"midi":79,"time":156.41860465116278,"velocity":0.15748031496062992},{"duration":0.023255813953511506,"midi":81,"time":156.41860465116278,"velocity":0.23622047244094488},{"duration":0.03488372093025305,"midi":86,"time":156.41860465116278,"velocity":0.1732283464566929},{"duration":0.11627906976744384,"midi":56,"time":156.43023255813952,"velocity":0.33070866141732286},{"duration":0.03488372093025305,"midi":101,"time":156.43023255813952,"velocity":0.12598425196850394},{"duration":0.023255813953483084,"midi":40,"time":156.4418604651163,"velocity":0.2283464566929134},{"duration":0.04651162790696617,"midi":82,"time":156.4418604651163,"velocity":0.36220472440944884},{"duration":0.05813953488370771,"midi":49,"time":156.45348837209303,"velocity":0.2440944881889764},{"duration":0.04651162790696617,"midi":72,"time":156.46511627906978,"velocity":0.07874015748031496},{"duration":0.023255813953483084,"midi":36,"time":156.47674418604652,"velocity":0.33858267716535434},{"duration":0.023255813953483084,"midi":65,"time":156.47674418604652,"velocity":0.2755905511811024},{"duration":0.023255813953483084,"midi":64,"time":156.5,"velocity":0.31496062992125984},{"duration":0.023255813953483084,"midi":50,"time":156.51162790697674,"velocity":0.2755905511811024},{"duration":0.034883720930224626,"midi":77,"time":156.51162790697674,"velocity":0.3937007874015748},{"duration":0.19767441860466306,"midi":82,"time":156.51162790697674,"velocity":0.25984251968503935},{"duration":0.04651162790696617,"midi":84,"time":156.51162790697674,"velocity":0.33858267716535434},{"duration":0.034883720930224626,"midi":65,"time":156.52325581395348,"velocity":0.2992125984251969},{"duration":0.023255813953511506,"midi":78,"time":156.54651162790697,"velocity":0.2440944881889764},{"duration":0.04651162790699459,"midi":81,"time":156.54651162790697,"velocity":0.1968503937007874},{"duration":0.04651162790699459,"midi":85,"time":156.54651162790697,"velocity":0.3858267716535433},{"duration":0.03488372093025305,"midi":90,"time":156.54651162790697,"velocity":0.3228346456692913},{"duration":0.023255813953511506,"midi":47,"time":156.5581395348837,"velocity":0.28346456692913385},{"duration":0.023255813953511506,"midi":63,"time":156.5581395348837,"velocity":0.2677165354330709},{"duration":0.023255813953511506,"midi":66,"time":156.5581395348837,"velocity":0.23622047244094488},{"duration":0.11627906976744384,"midi":77,"time":156.5581395348837,"velocity":0.4094488188976378},{"duration":0.13953488372092693,"midi":55,"time":156.56976744186048,"velocity":0.25984251968503935},{"duration":0.034883720930224626,"midi":70,"time":156.56976744186048,"velocity":0.15748031496062992},{"duration":0.034883720930224626,"midi":87,"time":156.56976744186048,"velocity":0.1889763779527559},{"duration":0.12790697674418539,"midi":48,"time":156.58139534883722,"velocity":0.30708661417322836},{"duration":0.09302325581393234,"midi":65,"time":156.58139534883722,"velocity":0.3464566929133858},{"duration":0.034883720930224626,"midi":75,"time":156.59302325581396,"velocity":0.11023622047244094},{"duration":0.1046511627907023,"midi":84,"time":156.59302325581396,"velocity":0.3700787401574803},{"duration":0.08139534883721922,"midi":36,"time":156.61627906976744,"velocity":0.33858267716535434},{"duration":0.05813953488373613,"midi":75,"time":156.63953488372093,"velocity":0.31496062992125984},{"duration":0.04651162790699459,"midi":64,"time":156.67441860465115,"velocity":0.2677165354330709},{"duration":0.03488372093025305,"midi":98,"time":156.67441860465115,"velocity":0.1968503937007874},{"duration":0.09302325581396076,"midi":99,"time":156.67441860465115,"velocity":0.18110236220472442},{"duration":0.2093023255814046,"midi":77,"time":156.6860465116279,"velocity":0.25196850393700787},{"duration":0.04651162790696617,"midi":68,"time":156.69767441860466,"velocity":0.2283464566929134},{"duration":0.034883720930224626,"midi":56,"time":156.7093023255814,"velocity":0.2677165354330709},{"duration":0.06976744186044925,"midi":65,"time":156.72093023255815,"velocity":0.15748031496062992},{"duration":0.06976744186047767,"midi":72,"time":156.74418604651163,"velocity":0.09448818897637795},{"duration":0.06976744186047767,"midi":85,"time":156.74418604651163,"velocity":0.2125984251968504},{"duration":0.04651162790699459,"midi":68,"time":156.7674418604651,"velocity":0.1889763779527559},{"duration":0.25581395348837077,"midi":75,"time":156.77906976744185,"velocity":0.25984251968503935},{"duration":0.03488372093025305,"midi":82,"time":156.77906976744185,"velocity":0.18110236220472442},{"duration":0.04651162790699459,"midi":95,"time":156.7906976744186,"velocity":0.25984251968503935},{"duration":0.03488372093025305,"midi":88,"time":156.80232558139534,"velocity":0.2125984251968504},{"duration":0.19767441860466306,"midi":94,"time":156.80232558139534,"velocity":0.36220472440944884},{"duration":0.03488372093025305,"midi":96,"time":156.80232558139534,"velocity":0.18110236220472442},{"duration":0.023255813953483084,"midi":64,"time":156.8139534883721,"velocity":0.4094488188976378},{"duration":0.034883720930224626,"midi":83,"time":156.8139534883721,"velocity":0.1968503937007874},{"duration":0.09302325581393234,"midi":103,"time":156.8139534883721,"velocity":0.14960629921259844},{"duration":0.16279069767441,"midi":91,"time":156.82558139534885,"velocity":0.23622047244094488},{"duration":0.04651162790696617,"midi":97,"time":156.82558139534885,"velocity":0.16535433070866143},{"duration":0.011627906976741542,"midi":46,"time":156.8372093023256,"velocity":0.5669291338582677},{"duration":0.16279069767441,"midi":63,"time":156.8372093023256,"velocity":0.41732283464566927},{"duration":0.011627906976741542,"midi":45,"time":156.84883720930233,"velocity":0.6220472440944882},{"duration":0.09302325581396076,"midi":82,"time":156.84883720930233,"velocity":0.14960629921259844},{"duration":0.011627906976741542,"midi":44,"time":156.86046511627907,"velocity":0.5984251968503937},{"duration":0.12790697674418539,"midi":101,"time":156.86046511627907,"velocity":0.13385826771653545},{"duration":0.023255813953483084,"midi":42,"time":156.87209302325581,"velocity":0.5748031496062992},{"duration":0.08139534883721922,"midi":96,"time":156.87209302325581,"velocity":0.16535433070866143},{"duration":0.034883720930224626,"midi":36,"time":156.9418604651163,"velocity":0.3464566929133858},{"duration":0.0813953488371908,"midi":72,"time":156.9418604651163,"velocity":0.07874015748031496},{"duration":0.04651162790696617,"midi":82,"time":156.95348837209303,"velocity":0.14960629921259844},{"duration":0.034883720930224626,"midi":97,"time":156.95348837209303,"velocity":0.15748031496062992},{"duration":0.023255813953483084,"midi":62,"time":157,"velocity":0.3937007874015748},{"duration":0.1860465116278931,"midi":93,"time":157,"velocity":0.3543307086614173},{"duration":0.034883720930224626,"midi":95,"time":157.01162790697674,"velocity":0.29133858267716534},{"duration":0.2325581395348877,"midi":94,"time":157.02325581395348,"velocity":0.3228346456692913},{"duration":0.06976744186047767,"midi":63,"time":157.03488372093022,"velocity":0.28346456692913385},{"duration":0.24418604651162923,"midi":92,"time":157.03488372093022,"velocity":0.29133858267716534},{"duration":0.09302325581396076,"midi":77,"time":157.04651162790697,"velocity":0.18110236220472442},{"duration":0.04651162790699459,"midi":57,"time":157.0581395348837,"velocity":0.3779527559055118},{"duration":0.05813953488370771,"midi":72,"time":157.06976744186048,"velocity":0.2125984251968504},{"duration":0.034883720930224626,"midi":98,"time":157.06976744186048,"velocity":0.1889763779527559},{"duration":0.0813953488371908,"midi":101,"time":157.06976744186048,"velocity":0.08661417322834646},{"duration":0.034883720930224626,"midi":99,"time":157.08139534883722,"velocity":0.14173228346456693},{"duration":0.2325581395348877,"midi":68,"time":157.09302325581396,"velocity":0.3779527559055118},{"duration":0.1860465116278931,"midi":56,"time":157.1046511627907,"velocity":0.41732283464566927},{"duration":0.06976744186047767,"midi":63,"time":157.12790697674419,"velocity":0.31496062992125984},{"duration":0.04651162790696617,"midi":63,"time":157.22093023255815,"velocity":0.23622047244094488},{"duration":0.04651162790696617,"midi":93,"time":157.22093023255815,"velocity":0.09448818897637795},{"duration":0.034883720930224626,"midi":96,"time":157.24418604651163,"velocity":0.1732283464566929},{"duration":0.08139534883721922,"midi":65,"time":157.25581395348837,"velocity":0.25984251968503935},{"duration":0.034883720930224626,"midi":89,"time":157.25581395348837,"velocity":0.09448818897637795},{"duration":0.04651162790699459,"midi":97,"time":157.2674418604651,"velocity":0.12598425196850394},{"duration":0.03488372093025305,"midi":56,"time":157.30232558139534,"velocity":0.3543307086614173},{"duration":0.05813953488373613,"midi":72,"time":157.30232558139534,"velocity":0.1968503937007874},{"duration":0.2325581395348877,"midi":94,"time":157.30232558139534,"velocity":0.3464566929133858},{"duration":0.10465116279067388,"midi":98,"time":157.3139534883721,"velocity":0.25196850393700787},{"duration":0.023255813953483084,"midi":69,"time":157.32558139534885,"velocity":0.3700787401574803},{"duration":0.11627906976744384,"midi":82,"time":157.32558139534885,"velocity":0.18110236220472442},{"duration":0.09302325581393234,"midi":88,"time":157.32558139534885,"velocity":0.25984251968503935},{"duration":0.034883720930224626,"midi":96,"time":157.32558139534885,"velocity":0.1732283464566929},{"duration":0.05813953488370771,"midi":76,"time":157.3372093023256,"velocity":0.31496062992125984},{"duration":0.04651162790696617,"midi":78,"time":157.3372093023256,"velocity":0.13385826771653545},{"duration":0.09302325581393234,"midi":87,"time":157.3372093023256,"velocity":0.2125984251968504},{"duration":0.11627906976744384,"midi":89,"time":157.3372093023256,"velocity":0.2283464566929134},{"duration":0.09302325581393234,"midi":90,"time":157.3372093023256,"velocity":0.3228346456692913},{"duration":0.034883720930224626,"midi":92,"time":157.3372093023256,"velocity":0.2047244094488189},{"duration":0.06976744186044925,"midi":95,"time":157.3372093023256,"velocity":0.1889763779527559},{"duration":0.034883720930224626,"midi":60,"time":157.34883720930233,"velocity":0.3779527559055118},{"duration":0.023255813953483084,"midi":67,"time":157.34883720930233,"velocity":0.30708661417322836},{"duration":0.034883720930224626,"midi":97,"time":157.34883720930233,"velocity":0.13385826771653545},{"duration":0.04651162790696617,"midi":83,"time":157.36046511627907,"velocity":0.14960629921259844},{"duration":0.034883720930224626,"midi":85,"time":157.36046511627907,"velocity":0.14960629921259844},{"duration":0.06976744186044925,"midi":91,"time":157.36046511627907,"velocity":0.25984251968503935},{"duration":0.011627906976741542,"midi":45,"time":157.37209302325581,"velocity":0.5748031496062992},{"duration":0.023255813953483084,"midi":56,"time":157.37209302325581,"velocity":0.25984251968503935},{"duration":0.011627906976741542,"midi":44,"time":157.38372093023256,"velocity":0.6062992125984252},{"duration":0.011627906976741542,"midi":43,"time":157.3953488372093,"velocity":0.5748031496062992},{"duration":0.034883720930224626,"midi":57,"time":157.3953488372093,"velocity":0.1968503937007874},{"duration":0.04651162790699459,"midi":68,"time":157.3953488372093,"velocity":0.2204724409448819},{"duration":0.04651162790699459,"midi":75,"time":157.3953488372093,"velocity":0.3464566929133858},{"duration":0.034883720930224626,"midi":84,"time":157.3953488372093,"velocity":0.12598425196850394},{"duration":0.011627906976741542,"midi":42,"time":157.40697674418604,"velocity":0.5433070866141733},{"duration":0.03488372093025305,"midi":85,"time":157.40697674418604,"velocity":0.07874015748031496},{"duration":0.03488372093025305,"midi":92,"time":157.40697674418604,"velocity":0.2283464566929134},{"duration":0.023255813953511506,"midi":52,"time":157.41860465116278,"velocity":0.25196850393700787},{"duration":0.08139534883721922,"midi":97,"time":157.41860465116278,"velocity":0.11811023622047244},{"duration":0.04651162790699459,"midi":95,"time":157.43023255813952,"velocity":0.25196850393700787},{"duration":0.034883720930224626,"midi":51,"time":157.4418604651163,"velocity":0.2047244094488189},{"duration":0.05813953488370771,"midi":74,"time":157.4418604651163,"velocity":0.33070866141732286},{"duration":0.0813953488371908,"midi":91,"time":157.4418604651163,"velocity":0.2755905511811024},{"duration":0.034883720930224626,"midi":93,"time":157.4418604651163,"velocity":0.29133858267716534},{"duration":0.023255813953483084,"midi":37,"time":157.45348837209303,"velocity":0.4015748031496063},{"duration":0.0813953488371908,"midi":72,"time":157.46511627906978,"velocity":0.2125984251968504},{"duration":0.06976744186044925,"midi":92,"time":157.46511627906978,"velocity":0.31496062992125984},{"duration":0.11627906976744384,"midi":98,"time":157.46511627906978,"velocity":0.2047244094488189},{"duration":0.04651162790696617,"midi":99,"time":157.46511627906978,"velocity":0.1732283464566929},{"duration":0.023255813953483084,"midi":36,"time":157.47674418604652,"velocity":0.31496062992125984},{"duration":0.034883720930224626,"midi":55,"time":157.47674418604652,"velocity":0.2204724409448819},{"duration":0.12790697674418539,"midi":96,"time":157.47674418604652,"velocity":0.2047244094488189},{"duration":0.034883720930224626,"midi":100,"time":157.47674418604652,"velocity":0.15748031496062992},{"duration":0.11627906976744384,"midi":68,"time":157.48837209302326,"velocity":0.4015748031496063},{"duration":0.05813953488370771,"midi":75,"time":157.5,"velocity":0.31496062992125984},{"duration":0.1046511627907023,"midi":101,"time":157.51162790697674,"velocity":0.07086614173228346},{"duration":0.034883720930224626,"midi":90,"time":157.52325581395348,"velocity":0.12598425196850394},{"duration":0.1046511627907023,"midi":56,"time":157.53488372093022,"velocity":0.3464566929133858},{"duration":0.04651162790699459,"midi":63,"time":157.53488372093022,"velocity":0.18110236220472442},{"duration":0.023255813953483084,"midi":93,"time":157.53488372093022,"velocity":0.31496062992125984},{"duration":0.023255813953483084,"midi":95,"time":157.53488372093022,"velocity":0.33070866141732286},{"duration":0.04651162790699459,"midi":76,"time":157.54651162790697,"velocity":0.25984251968503935},{"duration":0.22093023255814614,"midi":92,"time":157.5581395348837,"velocity":0.25196850393700787},{"duration":0.5232558139535115,"midi":94,"time":157.5581395348837,"velocity":0.4094488188976378},{"duration":0.034883720930224626,"midi":64,"time":157.58139534883722,"velocity":0.14960629921259844},{"duration":0.05813953488370771,"midi":75,"time":157.58139534883722,"velocity":0.25984251968503935},{"duration":0.034883720930224626,"midi":90,"time":157.58139534883722,"velocity":0.11023622047244094},{"duration":0.09302325581393234,"midi":97,"time":157.58139534883722,"velocity":0.16535433070866143},{"duration":0.09302325581393234,"midi":95,"time":157.59302325581396,"velocity":0.3228346456692913},{"duration":0.034883720930224626,"midi":67,"time":157.6046511627907,"velocity":0.33070866141732286},{"duration":0.04651162790696617,"midi":72,"time":157.6046511627907,"velocity":0.2204724409448819},{"duration":0.04651162790696617,"midi":78,"time":157.6046511627907,"velocity":0.16535433070866143},{"duration":0.04651162790696617,"midi":83,"time":157.6046511627907,"velocity":0.1889763779527559},{"duration":0.034883720930224626,"midi":86,"time":157.6046511627907,"velocity":0.14173228346456693},{"duration":0.05813953488370771,"midi":93,"time":157.6046511627907,"velocity":0.4015748031496063},{"duration":0.023255813953483084,"midi":41,"time":157.62790697674419,"velocity":0.30708661417322836},{"duration":0.04651162790696617,"midi":91,"time":157.62790697674419,"velocity":0.2125984251968504},{"duration":0.06976744186047767,"midi":60,"time":157.63953488372093,"velocity":0.14960629921259844},{"duration":0.034883720930224626,"midi":63,"time":157.63953488372093,"velocity":0.2204724409448819},{"duration":0.034883720930224626,"midi":71,"time":157.63953488372093,"velocity":0.13385826771653545},{"duration":0.034883720930224626,"midi":74,"time":157.63953488372093,"velocity":0.2755905511811024},{"duration":0.034883720930224626,"midi":79,"time":157.63953488372093,"velocity":0.14960629921259844},{"duration":0.023255813953483084,"midi":67,"time":157.65116279069767,"velocity":0.2755905511811024},{"duration":0.05813953488373613,"midi":48,"time":157.67441860465115,"velocity":0.2204724409448819},{"duration":0.03488372093025305,"midi":55,"time":157.67441860465115,"velocity":0.2440944881889764},{"duration":0.26744186046514073,"midi":68,"time":157.67441860465115,"velocity":0.3937007874015748},{"duration":0.08139534883721922,"midi":75,"time":157.67441860465115,"velocity":0.2677165354330709},{"duration":0.09302325581396076,"midi":96,"time":157.67441860465115,"velocity":0.2125984251968504},{"duration":0.06976744186047767,"midi":103,"time":157.67441860465115,"velocity":0.12598425196850394},{"duration":0.05813953488373613,"midi":41,"time":157.6860465116279,"velocity":0.2283464566929134},{"duration":0.05813953488373613,"midi":77,"time":157.6860465116279,"velocity":0.12598425196850394},{"duration":0.03488372093025305,"midi":98,"time":157.6860465116279,"velocity":0.09448818897637795},{"duration":0.04651162790696617,"midi":56,"time":157.7093023255814,"velocity":0.31496062992125984},{"duration":0.0813953488371908,"midi":63,"time":157.7093023255814,"velocity":0.29133858267716534},{"duration":0.034883720930224626,"midi":93,"time":157.7093023255814,"velocity":0.14173228346456693},{"duration":0.09302325581393234,"midi":95,"time":157.7093023255814,"velocity":0.18110236220472442},{"duration":0.04651162790696617,"midi":82,"time":157.7325581395349,"velocity":0.07086614173228346},{"duration":0.04651162790696617,"midi":88,"time":157.7325581395349,"velocity":0.12598425196850394},{"duration":0.04651162790696617,"midi":91,"time":157.7325581395349,"velocity":0.2204724409448819},{"duration":0.1046511627907023,"midi":97,"time":157.7325581395349,"velocity":0.14960629921259844},{"duration":0.034883720930224626,"midi":98,"time":157.7325581395349,"velocity":0.13385826771653545},{"duration":0.06976744186047767,"midi":72,"time":157.74418604651163,"velocity":0.14960629921259844},{"duration":0.034883720930224626,"midi":55,"time":157.75581395348837,"velocity":0.36220472440944884},{"duration":0.04651162790696617,"midi":74,"time":157.75581395348837,"velocity":0.2047244094488189},{"duration":0.04651162790696617,"midi":76,"time":157.75581395348837,"velocity":0.14173228346456693},{"duration":0.05813953488373613,"midi":79,"time":157.75581395348837,"velocity":0.14960629921259844},{"duration":0.09302325581396076,"midi":46,"time":157.77906976744185,"velocity":0.2992125984251969},{"duration":0.023255813953511506,"midi":62,"time":157.7906976744186,"velocity":0.23622047244094488},{"duration":0.023255813953511506,"midi":55,"time":157.80232558139534,"velocity":0.3228346456692913},{"duration":0.09302325581396076,"midi":96,"time":157.80232558139534,"velocity":0.18110236220472442},{"duration":0.023255813953483084,"midi":34,"time":157.8139534883721,"velocity":0.3228346456692913},{"duration":0.06976744186044925,"midi":56,"time":157.82558139534885,"velocity":0.3937007874015748},{"duration":0.04651162790696617,"midi":93,"time":157.82558139534885,"velocity":0.15748031496062992},{"duration":0.023255813953483084,"midi":34,"time":157.84883720930233,"velocity":0.25984251968503935},{"duration":0.11627906976744384,"midi":70,"time":157.86046511627907,"velocity":0.18110236220472442},{"duration":0.05813953488370771,"midi":88,"time":157.86046511627907,"velocity":0.16535433070866143},{"duration":0.04651162790696617,"midi":91,"time":157.86046511627907,"velocity":0.2204724409448819},{"duration":0.034883720930224626,"midi":92,"time":157.86046511627907,"velocity":0.1732283464566929},{"duration":0.034883720930224626,"midi":97,"time":157.86046511627907,"velocity":0.16535433070866143},{"duration":0.04651162790696617,"midi":102,"time":157.86046511627907,"velocity":0.18110236220472442},{"duration":0.023255813953483084,"midi":63,"time":157.87209302325581,"velocity":0.2440944881889764},{"duration":0.05813953488370771,"midi":79,"time":157.87209302325581,"velocity":0.2047244094488189},{"duration":0.034883720930224626,"midi":83,"time":157.87209302325581,"velocity":0.10236220472440945},{"duration":0.011627906976741542,"midi":46,"time":157.8953488372093,"velocity":0.5748031496062992},{"duration":0.08139534883721922,"midi":62,"time":157.8953488372093,"velocity":0.1732283464566929},{"duration":0.011627906976741542,"midi":45,"time":157.90697674418604,"velocity":0.6299212598425197},{"duration":0.03488372093025305,"midi":56,"time":157.90697674418604,"velocity":0.3228346456692913},{"duration":0.011627906976741542,"midi":44,"time":157.91860465116278,"velocity":0.6141732283464567},{"duration":0.023255813953511506,"midi":42,"time":157.93023255813952,"velocity":0.5669291338582677},{"duration":0.03488372093025305,"midi":75,"time":157.93023255813952,"velocity":0.18110236220472442},{"duration":0.023255813953483084,"midi":67,"time":157.9418604651163,"velocity":0.2677165354330709},{"duration":0.023255813953483084,"midi":55,"time":157.95348837209303,"velocity":0.3464566929133858},{"duration":0.034883720930224626,"midi":74,"time":157.96511627906978,"velocity":0.18110236220472442},{"duration":0.04651162790696617,"midi":37,"time":157.97674418604652,"velocity":0.41732283464566927},{"duration":0.023255813953483084,"midi":56,"time":157.97674418604652,"velocity":0.2755905511811024},{"duration":0.023255813953483084,"midi":55,"time":158,"velocity":0.3228346456692913},{"duration":0.034883720930224626,"midi":68,"time":158,"velocity":0.2204724409448819},{"duration":0.06976744186047767,"midi":75,"time":158,"velocity":0.13385826771653545},{"duration":0.04651162790699459,"midi":56,"time":158.02325581395348,"velocity":0.3228346456692913},{"duration":0.034883720930224626,"midi":75,"time":158.09302325581396,"velocity":0.12598425196850394},{"duration":0.09302325581396076,"midi":66,"time":158.12790697674419,"velocity":0.1732283464566929},{"duration":0.023255813953483084,"midi":73,"time":158.12790697674419,"velocity":0.2755905511811024},{"duration":0.034883720930224626,"midi":84,"time":158.12790697674419,"velocity":0.08661417322834646},{"duration":0.05813953488370771,"midi":86,"time":158.12790697674419,"velocity":0.2047244094488189},{"duration":0.034883720930224626,"midi":91,"time":158.12790697674419,"velocity":0.1732283464566929},{"duration":0.034883720930224626,"midi":95,"time":158.12790697674419,"velocity":0.1889763779527559},{"duration":0.034883720930224626,"midi":99,"time":158.12790697674419,"velocity":0.15748031496062992},{"duration":0.034883720930224626,"midi":100,"time":158.12790697674419,"velocity":0.13385826771653545},{"duration":0.04651162790696617,"midi":102,"time":158.12790697674419,"velocity":0.11811023622047244},{"duration":0.11627906976744384,"midi":56,"time":158.13953488372093,"velocity":0.3543307086614173},{"duration":0.13953488372092693,"midi":63,"time":158.13953488372093,"velocity":0.18110236220472442},{"duration":0.04651162790696617,"midi":81,"time":158.13953488372093,"velocity":0.1732283464566929},{"duration":0.034883720930224626,"midi":89,"time":158.13953488372093,"velocity":0.1732283464566929},{"duration":0.04651162790699459,"midi":72,"time":158.15116279069767,"velocity":0.2204724409448819},{"duration":0.05813953488373613,"midi":74,"time":158.15116279069767,"velocity":0.23622047244094488},{"duration":0.05813953488373613,"midi":77,"time":158.15116279069767,"velocity":0.2047244094488189},{"duration":0.09302325581396076,"midi":51,"time":158.1627906976744,"velocity":0.2677165354330709},{"duration":0.04651162790699459,"midi":70,"time":158.1627906976744,"velocity":0.1889763779527559},{"duration":0.16279069767443843,"midi":94,"time":158.1627906976744,"velocity":0.15748031496062992},{"duration":0.09302325581396076,"midi":44,"time":158.17441860465115,"velocity":0.30708661417322836},{"duration":0.04651162790696617,"midi":32,"time":158.2325581395349,"velocity":0.2755905511811024},{"duration":0.04651162790696617,"midi":78,"time":158.25581395348837,"velocity":0.2125984251968504},{"duration":0.06976744186047767,"midi":80,"time":158.25581395348837,"velocity":0.1732283464566929},{"duration":0.1046511627907023,"midi":82,"time":158.2674418604651,"velocity":0.14173228346456693},{"duration":0.04651162790699459,"midi":83,"time":158.2674418604651,"velocity":0.14960629921259844},{"duration":0.04651162790699459,"midi":88,"time":158.2674418604651,"velocity":0.1889763779527559},{"duration":0.034883720930224626,"midi":91,"time":158.2674418604651,"velocity":0.1732283464566929},{"duration":0.03488372093025305,"midi":46,"time":158.27906976744185,"velocity":0.31496062992125984},{"duration":0.04651162790699459,"midi":68,"time":158.27906976744185,"velocity":0.16535433070866143},{"duration":0.08139534883721922,"midi":72,"time":158.27906976744185,"velocity":0.11811023622047244},{"duration":0.05813953488373613,"midi":76,"time":158.27906976744185,"velocity":0.2283464566929134},{"duration":0.08139534883721922,"midi":53,"time":158.30232558139534,"velocity":0.29133858267716534},{"duration":0.023255813953483084,"midi":35,"time":158.32558139534885,"velocity":0.2992125984251969},{"duration":0.06976744186044925,"midi":46,"time":158.32558139534885,"velocity":0.28346456692913385},{"duration":0.05813953488370771,"midi":34,"time":158.34883720930233,"velocity":0.29133858267716534},{"duration":0.023255813953483084,"midi":63,"time":158.37209302325581,"velocity":0.25984251968503935},{"duration":0.034883720930224626,"midi":78,"time":158.38372093023256,"velocity":0.25196850393700787},{"duration":0.034883720930224626,"midi":80,"time":158.3953488372093,"velocity":0.14173228346456693},{"duration":0.034883720930224626,"midi":87,"time":158.3953488372093,"velocity":0.2125984251968504},{"duration":0.08139534883721922,"midi":88,"time":158.3953488372093,"velocity":0.2755905511811024},{"duration":0.08139534883721922,"midi":90,"time":158.3953488372093,"velocity":0.2677165354330709},{"duration":0.05813953488373613,"midi":91,"time":158.3953488372093,"velocity":0.1889763779527559},{"duration":0.08139534883721922,"midi":93,"time":158.3953488372093,"velocity":0.18110236220472442},{"duration":0.06976744186047767,"midi":95,"time":158.3953488372093,"velocity":0.2440944881889764},{"duration":0.034883720930224626,"midi":96,"time":158.3953488372093,"velocity":0.2283464566929134},{"duration":0.04651162790699459,"midi":98,"time":158.3953488372093,"velocity":0.1732283464566929},{"duration":0.05813953488373613,"midi":101,"time":158.3953488372093,"velocity":0.1889763779527559},{"duration":0.023255813953483084,"midi":62,"time":158.40697674418604,"velocity":0.3464566929133858},{"duration":0.023255813953483084,"midi":67,"time":158.40697674418604,"velocity":0.2677165354330709},{"duration":0.11627906976744384,"midi":70,"time":158.40697674418604,"velocity":0.14173228346456693},{"duration":0.06976744186047767,"midi":89,"time":158.40697674418604,"velocity":0.25984251968503935},{"duration":0.06976744186047767,"midi":94,"time":158.40697674418604,"velocity":0.2047244094488189},{"duration":0.08139534883721922,"midi":97,"time":158.40697674418604,"velocity":0.13385826771653545},{"duration":0.023255813953511506,"midi":45,"time":158.41860465116278,"velocity":0.5905511811023622},{"duration":0.04651162790699459,"midi":66,"time":158.41860465116278,"velocity":0.08661417322834646},{"duration":0.03488372093025305,"midi":81,"time":158.41860465116278,"velocity":0.1732283464566929},{"duration":0.04651162790699459,"midi":83,"time":158.41860465116278,"velocity":0.15748031496062992},{"duration":0.011627906976741542,"midi":44,"time":158.4418604651163,"velocity":0.6062992125984252},{"duration":0.034883720930224626,"midi":87,"time":158.4418604651163,"velocity":0.13385826771653545},{"duration":0.011627906976741542,"midi":43,"time":158.45348837209303,"velocity":0.5826771653543307},{"duration":0.034883720930224626,"midi":52,"time":158.45348837209303,"velocity":0.29133858267716534},{"duration":0.04651162790696617,"midi":85,"time":158.45348837209303,"velocity":0.1732283464566929},{"duration":0.011627906976741542,"midi":42,"time":158.46511627906978,"velocity":0.5511811023622047},{"duration":0.023255813953483084,"midi":53,"time":158.48837209302326,"velocity":0.25196850393700787},{"duration":0.034883720930224626,"midi":61,"time":158.5,"velocity":0.2125984251968504},{"duration":0.1046511627907023,"midi":56,"time":158.51162790697674,"velocity":0.3858267716535433},{"duration":0.034883720930224626,"midi":36,"time":158.52325581395348,"velocity":0.3700787401574803},{"duration":0.023255813953483084,"midi":69,"time":158.52325581395348,"velocity":0.3228346456692913},{"duration":0.09302325581396076,"midi":72,"time":158.52325581395348,"velocity":0.25984251968503935},{"duration":0.08139534883721922,"midi":77,"time":158.52325581395348,"velocity":0.2125984251968504},{"duration":0.034883720930224626,"midi":88,"time":158.52325581395348,"velocity":0.09448818897637795},{"duration":0.04651162790699459,"midi":93,"time":158.52325581395348,"velocity":0.1968503937007874},{"duration":0.04651162790699459,"midi":94,"time":158.52325581395348,"velocity":0.2125984251968504},{"duration":0.04651162790699459,"midi":99,"time":158.52325581395348,"velocity":0.18110236220472442},{"duration":0.05813953488373613,"midi":82,"time":158.53488372093022,"velocity":0.1889763779527559},{"duration":0.04651162790699459,"midi":86,"time":158.53488372093022,"velocity":0.2204724409448819},{"duration":0.04651162790699459,"midi":61,"time":158.54651162790697,"velocity":0.2283464566929134},{"duration":0.04651162790699459,"midi":79,"time":158.54651162790697,"velocity":0.1968503937007874},{"duration":0.04651162790699459,"midi":83,"time":158.54651162790697,"velocity":0.11811023622047244},{"duration":0.05813953488373613,"midi":65,"time":158.5581395348837,"velocity":0.1968503937007874},{"duration":0.034883720930224626,"midi":49,"time":158.56976744186048,"velocity":0.25196850393700787},{"duration":0.023255813953483084,"midi":36,"time":158.59302325581396,"velocity":0.33070866141732286},{"duration":0.04651162790696617,"midi":50,"time":158.6046511627907,"velocity":0.28346456692913385},{"duration":0.11627906976744384,"midi":75,"time":158.6046511627907,"velocity":0.2204724409448819},{"duration":0.13953488372092693,"midi":78,"time":158.6046511627907,"velocity":0.2047244094488189},{"duration":0.034883720930224626,"midi":57,"time":158.61627906976744,"velocity":0.2992125984251969},{"duration":0.034883720930224626,"midi":65,"time":158.62790697674419,"velocity":0.10236220472440945},{"duration":0.05813953488373613,"midi":68,"time":158.65116279069767,"velocity":0.23622047244094488},{"duration":0.03488372093025305,"midi":61,"time":158.6627906976744,"velocity":0.2125984251968504},{"duration":0.05813953488373613,"midi":72,"time":158.6627906976744,"velocity":0.14173228346456693},{"duration":0.03488372093025305,"midi":76,"time":158.6627906976744,"velocity":0.14960629921259844},{"duration":0.05813953488373613,"midi":82,"time":158.6627906976744,"velocity":0.1968503937007874},{"duration":0.06976744186047767,"midi":85,"time":158.6627906976744,"velocity":0.13385826771653545},{"duration":0.03488372093025305,"midi":93,"time":158.6627906976744,"velocity":0.12598425196850394},{"duration":0.023255813953511506,"midi":47,"time":158.67441860465115,"velocity":0.30708661417322836},{"duration":0.13953488372095535,"midi":55,"time":158.67441860465115,"velocity":0.28346456692913385},{"duration":0.12790697674418539,"midi":70,"time":158.67441860465115,"velocity":0.2204724409448819},{"duration":0.05813953488373613,"midi":81,"time":158.67441860465115,"velocity":0.2283464566929134},{"duration":0.05813953488373613,"midi":64,"time":158.6860465116279,"velocity":0.23622047244094488},{"duration":0.023255813953483084,"midi":38,"time":158.69767441860466,"velocity":0.2755905511811024},{"duration":0.12790697674418539,"midi":48,"time":158.69767441860466,"velocity":0.2992125984251969},{"duration":0.08139534883721922,"midi":36,"time":158.7325581395349,"velocity":0.33070866141732286},{"duration":0.04651162790696617,"midi":64,"time":158.75581395348837,"velocity":0.16535433070866143},{"duration":0.1046511627907023,"midi":68,"time":158.7906976744186,"velocity":0.2992125984251969},{"duration":0.03488372093025305,"midi":98,"time":158.7906976744186,"velocity":0.1732283464566929},{"duration":0.03488372093025305,"midi":99,"time":158.7906976744186,"velocity":0.14960629921259844},{"duration":0.05813953488373613,"midi":61,"time":158.80232558139534,"velocity":0.2283464566929134},{"duration":0.06976744186047767,"midi":78,"time":158.80232558139534,"velocity":0.13385826771653545},{"duration":0.04651162790696617,"midi":56,"time":158.8139534883721,"velocity":0.29133858267716534},{"duration":0.09302325581393234,"midi":66,"time":158.8139534883721,"velocity":0.30708661417322836},{"duration":0.04651162790696617,"midi":72,"time":158.8139534883721,"velocity":0.15748031496062992},{"duration":0.11627906976744384,"midi":75,"time":158.82558139534885,"velocity":0.1968503937007874},{"duration":0.0813953488371908,"midi":82,"time":158.84883720930233,"velocity":0.16535433070866143},{"duration":0.05813953488370771,"midi":73,"time":158.86046511627907,"velocity":0.14173228346456693},{"duration":0.023255813953483084,"midi":50,"time":158.87209302325581,"velocity":0.2677165354330709},{"duration":0.08139534883721922,"midi":94,"time":158.88372093023256,"velocity":0.18110236220472442},{"duration":0.023255813953483084,"midi":55,"time":158.8953488372093,"velocity":0.3937007874015748},{"duration":0.04651162790699459,"midi":93,"time":158.8953488372093,"velocity":0.23622047244094488},{"duration":0.2325581395348877,"midi":98,"time":158.8953488372093,"velocity":0.2204724409448819},{"duration":0.04651162790699459,"midi":90,"time":158.90697674418604,"velocity":0.2755905511811024},{"duration":0.023255813953483084,"midi":92,"time":158.90697674418604,"velocity":0.25196850393700787},{"duration":0.04651162790699459,"midi":95,"time":158.90697674418604,"velocity":0.2125984251968504},{"duration":0.06976744186047767,"midi":96,"time":158.90697674418604,"velocity":0.2204724409448819},{"duration":0.03488372093025305,"midi":97,"time":158.90697674418604,"velocity":0.2125984251968504},{"duration":0.2093023255814046,"midi":100,"time":158.90697674418604,"velocity":0.3228346456692913},{"duration":0.023255813953511506,"midi":56,"time":158.91860465116278,"velocity":0.3464566929133858},{"duration":0.023255813953511506,"midi":69,"time":158.91860465116278,"velocity":0.3464566929133858},{"duration":0.05813953488373613,"midi":72,"time":158.91860465116278,"velocity":0.1968503937007874},{"duration":0.023255813953511506,"midi":85,"time":158.91860465116278,"velocity":0.29133858267716534},{"duration":0.03488372093025305,"midi":88,"time":158.91860465116278,"velocity":0.2125984251968504},{"duration":0.03488372093025305,"midi":101,"time":158.91860465116278,"velocity":0.16535433070866143},{"duration":0.03488372093025305,"midi":103,"time":158.91860465116278,"velocity":0.14173228346456693},{"duration":0.04651162790699459,"midi":89,"time":158.93023255813952,"velocity":0.2204724409448819},{"duration":0.023255813953483084,"midi":58,"time":158.9418604651163,"velocity":0.29133858267716534},{"duration":0.16279069767441,"midi":66,"time":158.9418604651163,"velocity":0.12598425196850394},{"duration":0.04651162790696617,"midi":74,"time":158.9418604651163,"velocity":0.2125984251968504},{"duration":0.023255813953483084,"midi":78,"time":158.9418604651163,"velocity":0.3228346456692913},{"duration":0.034883720930224626,"midi":82,"time":158.9418604651163,"velocity":0.2440944881889764},{"duration":0.38372093023255616,"midi":86,"time":158.9418604651163,"velocity":0.4015748031496063},{"duration":0.011627906976741542,"midi":46,"time":158.95348837209303,"velocity":0.5748031496062992},{"duration":0.011627906976741542,"midi":45,"time":158.96511627906978,"velocity":0.6141732283464567},{"duration":0.011627906976741542,"midi":43,"time":158.97674418604652,"velocity":0.5984251968503937},{"duration":0.034883720930224626,"midi":78,"time":158.97674418604652,"velocity":0.25984251968503935},{"duration":0.034883720930224626,"midi":83,"time":158.97674418604652,"velocity":0.3228346456692913},{"duration":0.023255813953483084,"midi":42,"time":158.98837209302326,"velocity":0.5748031496062992},{"duration":0.11627906976744384,"midi":51,"time":158.98837209302326,"velocity":0.2677165354330709},{"duration":0.05813953488370771,"midi":70,"time":158.98837209302326,"velocity":0.2125984251968504},{"duration":0.05813953488370771,"midi":75,"time":159,"velocity":0.09448818897637795},{"duration":0.06976744186047767,"midi":73,"time":159.01162790697674,"velocity":0.12598425196850394},{"duration":0.12790697674418539,"midi":77,"time":159.01162790697674,"velocity":0.29133858267716534},{"duration":0.16279069767441,"midi":82,"time":159.01162790697674,"velocity":0.3779527559055118},{"duration":0.12790697674418539,"midi":89,"time":159.02325581395348,"velocity":0.30708661417322836},{"duration":0.023255813953483084,"midi":37,"time":159.03488372093022,"velocity":0.4015748031496063},{"duration":0.023255813953511506,"midi":35,"time":159.0581395348837,"velocity":0.4094488188976378},{"duration":0.06976744186044925,"midi":70,"time":159.06976744186048,"velocity":0.2677165354330709},{"duration":0.06976744186044925,"midi":75,"time":159.06976744186048,"velocity":0.15748031496062992},{"duration":0.034883720930224626,"midi":44,"time":159.09302325581396,"velocity":0.07874015748031496},{"duration":0.034883720930224626,"midi":73,"time":159.09302325581396,"velocity":0.12598425196850394},{"duration":0.1046511627907023,"midi":99,"time":159.11627906976744,"velocity":0.2755905511811024},{"duration":0.034883720930224626,"midi":57,"time":159.12790697674419,"velocity":0.33858267716535434},{"duration":0.13953488372092693,"midi":100,"time":159.15116279069767,"velocity":0.2440944881889764},{"duration":0.05813953488373613,"midi":75,"time":159.1627906976744,"velocity":0.25984251968503935},{"duration":0.19767441860466306,"midi":103,"time":159.1627906976744,"velocity":0.3700787401574803},{"duration":0.19767441860466306,"midi":72,"time":159.17441860465115,"velocity":0.41732283464566927},{"duration":0.25581395348837077,"midi":88,"time":159.17441860465115,"velocity":0.2440944881889764},{"duration":0.05813953488373613,"midi":89,"time":159.17441860465115,"velocity":0.1732283464566929},{"duration":0.17441860465117998,"midi":91,"time":159.17441860465115,"velocity":0.2047244094488189},{"duration":0.09302325581396076,"midi":94,"time":159.17441860465115,"velocity":0.18110236220472442},{"duration":0.03488372093025305,"midi":60,"time":159.1860465116279,"velocity":0.36220472440944884},{"duration":0.05813953488373613,"midi":79,"time":159.1860465116279,"velocity":0.23622047244094488},{"duration":0.05813953488373613,"midi":80,"time":159.1860465116279,"velocity":0.14960629921259844},{"duration":0.06976744186047767,"midi":83,"time":159.1860465116279,"velocity":0.16535433070866143},{"duration":0.03488372093025305,"midi":92,"time":159.1860465116279,"velocity":0.2047244094488189},{"duration":0.16279069767441,"midi":96,"time":159.19767441860466,"velocity":0.15748031496062992},{"duration":0.023255813953483084,"midi":45,"time":159.2093023255814,"velocity":0.33858267716535434},{"duration":0.023255813953483084,"midi":53,"time":159.2093023255814,"velocity":0.2677165354330709},{"duration":0.04651162790696617,"midi":66,"time":159.2093023255814,"velocity":0.16535433070866143},{"duration":0.04651162790696617,"midi":76,"time":159.2093023255814,"velocity":0.18110236220472442},{"duration":0.1046511627907023,"midi":77,"time":159.22093023255815,"velocity":0.09448818897637795},{"duration":0.08139534883721922,"midi":46,"time":159.2325581395349,"velocity":0.29133858267716534},{"duration":0.023255813953483084,"midi":36,"time":159.24418604651163,"velocity":0.29133858267716534},{"duration":0.05813953488370771,"midi":53,"time":159.24418604651163,"velocity":0.25984251968503935},{"duration":0.023255813953483084,"midi":57,"time":159.25581395348837,"velocity":0.31496062992125984},{"duration":0.05813953488373613,"midi":82,"time":159.25581395348837,"velocity":0.18110236220472442},{"duration":0.08139534883721922,"midi":79,"time":159.2674418604651,"velocity":0.2677165354330709},{"duration":0.034883720930224626,"midi":93,"time":159.2674418604651,"velocity":0.08661417322834646},{"duration":0.04651162790699459,"midi":101,"time":159.2674418604651,"velocity":0.15748031496062992},{"duration":0.04651162790699459,"midi":34,"time":159.27906976744185,"velocity":0.30708661417322836},{"duration":0.08139534883721922,"midi":60,"time":159.27906976744185,"velocity":0.3779527559055118},{"duration":0.04651162790696617,"midi":102,"time":159.3139534883721,"velocity":0.09448818897637795},{"duration":0.034883720930224626,"midi":46,"time":159.32558139534885,"velocity":0.11023622047244094},{"duration":0.05813953488370771,"midi":63,"time":159.32558139534885,"velocity":0.25196850393700787},{"duration":0.023255813953483084,"midi":59,"time":159.36046511627907,"velocity":0.3779527559055118},{"duration":0.05813953488370771,"midi":66,"time":159.36046511627907,"velocity":0.18110236220472442},{"duration":0.04651162790696617,"midi":60,"time":159.38372093023256,"velocity":0.4094488188976378},{"duration":0.04651162790696617,"midi":75,"time":159.38372093023256,"velocity":0.11023622047244094},{"duration":0.06976744186047767,"midi":78,"time":159.40697674418604,"velocity":0.1889763779527559},{"duration":0.04651162790699459,"midi":65,"time":159.41860465116278,"velocity":0.3464566929133858},{"duration":0.19767441860466306,"midi":102,"time":159.41860465116278,"velocity":0.2755905511811024},{"duration":0.023255813953511506,"midi":61,"time":159.43023255813952,"velocity":0.36220472440944884},{"duration":0.03488372093025305,"midi":89,"time":159.43023255813952,"velocity":0.2204724409448819},{"duration":0.13953488372095535,"midi":92,"time":159.43023255813952,"velocity":0.3543307086614173},{"duration":0.1046511627907023,"midi":95,"time":159.43023255813952,"velocity":0.2440944881889764},{"duration":0.19767441860466306,"midi":97,"time":159.43023255813952,"velocity":0.2992125984251969},{"duration":0.08139534883721922,"midi":103,"time":159.43023255813952,"velocity":0.33858267716535434},{"duration":0.17441860465115155,"midi":99,"time":159.4418604651163,"velocity":0.1968503937007874},{"duration":0.034883720930224626,"midi":82,"time":159.45348837209303,"velocity":0.15748031496062992},{"duration":0.0813953488371908,"midi":90,"time":159.45348837209303,"velocity":0.2992125984251969},{"duration":0.05813953488370771,"midi":96,"time":159.45348837209303,"velocity":0.14173228346456693},{"duration":0.05813953488370771,"midi":98,"time":159.45348837209303,"velocity":0.18110236220472442},{"duration":0.034883720930224626,"midi":100,"time":159.45348837209303,"velocity":0.2125984251968504},{"duration":0.034883720930224626,"midi":45,"time":159.46511627906978,"velocity":0.5905511811023622},{"duration":0.023255813953483084,"midi":61,"time":159.46511627906978,"velocity":0.3937007874015748},{"duration":0.023255813953483084,"midi":67,"time":159.46511627906978,"velocity":0.2755905511811024},{"duration":0.04651162790696617,"midi":70,"time":159.46511627906978,"velocity":0.12598425196850394},{"duration":0.06976744186044925,"midi":88,"time":159.46511627906978,"velocity":0.2440944881889764},{"duration":0.034883720930224626,"midi":93,"time":159.46511627906978,"velocity":0.15748031496062992},{"duration":0.034883720930224626,"midi":81,"time":159.47674418604652,"velocity":0.14173228346456693},{"duration":0.0813953488371908,"midi":89,"time":159.47674418604652,"velocity":0.16535433070866143},{"duration":0.06976744186044925,"midi":91,"time":159.47674418604652,"velocity":0.18110236220472442},{"duration":0.06976744186044925,"midi":94,"time":159.47674418604652,"velocity":0.25984251968503935},{"duration":0.034883720930224626,"midi":83,"time":159.48837209302326,"velocity":0.14960629921259844},{"duration":0.011627906976741542,"midi":44,"time":159.5,"velocity":0.5984251968503937},{"duration":0.023255813953483084,"midi":52,"time":159.5,"velocity":0.2992125984251969},{"duration":0.06976744186047767,"midi":67,"time":159.5,"velocity":0.09448818897637795},{"duration":0.011627906976741542,"midi":43,"time":159.51162790697674,"velocity":0.5748031496062992},{"duration":0.04651162790696617,"midi":80,"time":159.51162790697674,"velocity":0.11811023622047244},{"duration":0.034883720930224626,"midi":87,"time":159.51162790697674,"velocity":0.10236220472440945},{"duration":0.011627906976741542,"midi":42,"time":159.52325581395348,"velocity":0.5354330708661418},{"duration":0.04651162790699459,"midi":70,"time":159.53488372093022,"velocity":0.18110236220472442},{"duration":0.023255813953511506,"midi":53,"time":159.54651162790697,"velocity":0.23622047244094488},{"duration":0.03488372093025305,"midi":74,"time":159.54651162790697,"velocity":0.10236220472440945},{"duration":0.05813953488373613,"midi":95,"time":159.54651162790697,"velocity":0.36220472440944884},{"duration":0.023255813953483084,"midi":37,"time":159.56976744186048,"velocity":0.3937007874015748},{"duration":0.023255813953483084,"midi":60,"time":159.56976744186048,"velocity":0.2992125984251969},{"duration":0.034883720930224626,"midi":86,"time":159.58139534883722,"velocity":0.10236220472440945},{"duration":0.034883720930224626,"midi":92,"time":159.58139534883722,"velocity":0.15748031496062992},{"duration":0.034883720930224626,"midi":94,"time":159.58139534883722,"velocity":0.25196850393700787},{"duration":0.034883720930224626,"midi":98,"time":159.58139534883722,"velocity":0.16535433070866143},{"duration":0.023255813953483084,"midi":36,"time":159.59302325581396,"velocity":0.2992125984251969},{"duration":0.034883720930224626,"midi":56,"time":159.59302325581396,"velocity":0.28346456692913385},{"duration":0.09302325581393234,"midi":68,"time":159.59302325581396,"velocity":0.30708661417322836},{"duration":0.034883720930224626,"midi":72,"time":159.6046511627907,"velocity":0.2677165354330709},{"duration":0.05813953488370771,"midi":78,"time":159.6046511627907,"velocity":0.14173228346456693},{"duration":0.11627906976744384,"midi":75,"time":159.61627906976744,"velocity":0.2204724409448819},{"duration":0.1046511627907023,"midi":73,"time":159.62790697674419,"velocity":0.2047244094488189},{"duration":0.034883720930224626,"midi":103,"time":159.62790697674419,"velocity":0.11811023622047244},{"duration":0.06976744186047767,"midi":56,"time":159.63953488372093,"velocity":0.3464566929133858},{"duration":0.17441860465117998,"midi":92,"time":159.63953488372093,"velocity":0.3464566929133858},{"duration":0.034883720930224626,"midi":94,"time":159.65116279069767,"velocity":0.10236220472440945},{"duration":0.06976744186047767,"midi":66,"time":159.67441860465115,"velocity":0.18110236220472442},{"duration":0.03488372093025305,"midi":101,"time":159.67441860465115,"velocity":0.1732283464566929},{"duration":0.1279069767442138,"midi":78,"time":159.6860465116279,"velocity":0.23622047244094488},{"duration":0.04651162790699459,"midi":100,"time":159.6860465116279,"velocity":0.18110236220472442},{"duration":0.06976744186047767,"midi":102,"time":159.6860465116279,"velocity":0.14173228346456693},{"duration":0.10465116279067388,"midi":82,"time":159.69767441860466,"velocity":0.1889763779527559},{"duration":0.023255813953483084,"midi":58,"time":159.7093023255814,"velocity":0.4566929133858268},{"duration":0.04651162790696617,"midi":98,"time":159.7093023255814,"velocity":0.14960629921259844},{"duration":0.034883720930224626,"midi":86,"time":159.72093023255815,"velocity":0.16535433070866143},{"duration":0.11627906976744384,"midi":94,"time":159.72093023255815,"velocity":0.25196850393700787},{"duration":0.12790697674418539,"midi":96,"time":159.72093023255815,"velocity":0.29133858267716534},{"duration":0.0813953488371908,"midi":103,"time":159.72093023255815,"velocity":0.29133858267716534},{"duration":0.034883720930224626,"midi":59,"time":159.7325581395349,"velocity":0.4251968503937008},{"duration":0.023255813953483084,"midi":41,"time":159.74418604651163,"velocity":0.33858267716535434},{"duration":0.034883720930224626,"midi":73,"time":159.74418604651163,"velocity":0.1968503937007874},{"duration":0.04651162790699459,"midi":58,"time":159.7674418604651,"velocity":0.4330708661417323},{"duration":0.023255813953483084,"midi":42,"time":159.77906976744185,"velocity":0.2755905511811024},{"duration":0.03488372093025305,"midi":67,"time":159.77906976744185,"velocity":0.14173228346456693},{"duration":0.05813953488373613,"midi":75,"time":159.77906976744185,"velocity":0.14173228346456693},{"duration":0.08139534883721922,"midi":89,"time":159.7906976744186,"velocity":0.1732283464566929},{"duration":0.05813953488373613,"midi":41,"time":159.80232558139534,"velocity":0.25196850393700787},{"duration":0.023255813953511506,"midi":48,"time":159.80232558139534,"velocity":0.2440944881889764},{"duration":0.03488372093025305,"midi":102,"time":159.80232558139534,"velocity":0.2125984251968504},{"duration":0.05813953488370771,"midi":58,"time":159.82558139534885,"velocity":0.4015748031496063},{"duration":0.034883720930224626,"midi":73,"time":159.82558139534885,"velocity":0.07874015748031496},{"duration":0.04651162790696617,"midi":63,"time":159.8372093023256,"velocity":0.2992125984251969},{"duration":0.22093023255814614,"midi":68,"time":159.84883720930233,"velocity":0.30708661417322836},{"duration":0.04651162790696617,"midi":83,"time":159.84883720930233,"velocity":0.16535433070866143},{"duration":0.04651162790696617,"midi":88,"time":159.84883720930233,"velocity":0.1732283464566929},{"duration":0.04651162790696617,"midi":91,"time":159.84883720930233,"velocity":0.2125984251968504},{"duration":0.04651162790696617,"midi":92,"time":159.84883720930233,"velocity":0.23622047244094488},{"duration":0.034883720930224626,"midi":94,"time":159.84883720930233,"velocity":0.10236220472440945},{"duration":0.034883720930224626,"midi":99,"time":159.84883720930233,"velocity":0.10236220472440945},{"duration":0.08139534883721922,"midi":76,"time":159.86046511627907,"velocity":0.23622047244094488},{"duration":0.04651162790696617,"midi":86,"time":159.86046511627907,"velocity":0.13385826771653545},{"duration":0.023255813953483084,"midi":45,"time":159.87209302325581,"velocity":0.3228346456692913},{"duration":0.05813953488373613,"midi":46,"time":159.8953488372093,"velocity":0.31496062992125984},{"duration":0.023255813953483084,"midi":53,"time":159.8953488372093,"velocity":0.25984251968503935},{"duration":0.034883720930224626,"midi":58,"time":159.8953488372093,"velocity":0.4409448818897638},{"duration":0.023255813953511506,"midi":34,"time":159.93023255813952,"velocity":0.3228346456692913},{"duration":0.06976744186044925,"midi":92,"time":159.9418604651163,"velocity":0.11023622047244094},{"duration":0.023255813953483084,"midi":34,"time":159.96511627906978,"velocity":0.2755905511811024},{"duration":0.04651162790696617,"midi":88,"time":159.97674418604652,"velocity":0.2204724409448819},{"duration":0.034883720930224626,"midi":93,"time":159.97674418604652,"velocity":0.1732283464566929},{"duration":0.034883720930224626,"midi":96,"time":159.97674418604652,"velocity":0.15748031496062992},{"duration":0.034883720930224626,"midi":97,"time":159.97674418604652,"velocity":0.15748031496062992},{"duration":0.034883720930224626,"midi":103,"time":159.97674418604652,"velocity":0.2204724409448819},{"duration":0.09302325581396076,"midi":78,"time":159.98837209302326,"velocity":0.2047244094488189},{"duration":0.034883720930224626,"midi":83,"time":159.98837209302326,"velocity":0.13385826771653545},{"duration":0.034883720930224626,"midi":86,"time":159.98837209302326,"velocity":0.12598425196850394},{"duration":0.034883720930224626,"midi":91,"time":159.98837209302326,"velocity":0.16535433070866143},{"duration":0.034883720930224626,"midi":65,"time":160,"velocity":0.12598425196850394},{"duration":0.19767441860466306,"midi":70,"time":160,"velocity":0.2755905511811024},{"duration":0.05813953488370771,"midi":76,"time":160,"velocity":0.1968503937007874},{"duration":0.011627906976741542,"midi":46,"time":160.01162790697674,"velocity":0.5669291338582677},{"duration":0.04651162790696617,"midi":72,"time":160.01162790697674,"velocity":0.09448818897637795},{"duration":0.011627906976741542,"midi":45,"time":160.02325581395348,"velocity":0.6220472440944882},{"duration":0.023255813953483084,"midi":53,"time":160.02325581395348,"velocity":0.28346456692913385},{"duration":0.04651162790699459,"midi":62,"time":160.02325581395348,"velocity":0.2755905511811024},{"duration":0.011627906976741542,"midi":44,"time":160.03488372093022,"velocity":0.6141732283464567},{"duration":0.023255813953511506,"midi":42,"time":160.04651162790697,"velocity":0.5669291338582677},{"duration":0.023255813953511506,"midi":53,"time":160.0581395348837,"velocity":0.25196850393700787},{"duration":0.05813953488373613,"midi":94,"time":160.0581395348837,"velocity":0.11811023622047244},{"duration":0.11627906976741542,"midi":61,"time":160.06976744186048,"velocity":0.2047244094488189},{"duration":0.04651162790696617,"midi":53,"time":160.09302325581396,"velocity":0.14960629921259844},{"duration":0.034883720930224626,"midi":78,"time":160.09302325581396,"velocity":0.13385826771653545},{"duration":0.023255813953483084,"midi":37,"time":160.11627906976744,"velocity":0.2755905511811024},{"duration":0.03488372093025305,"midi":66,"time":160.17441860465115,"velocity":0.11811023622047244},{"duration":0.034883720930224626,"midi":85,"time":160.2325581395349,"velocity":0.2755905511811024},{"duration":0.09302325581396076,"midi":68,"time":160.24418604651163,"velocity":0.31496062992125984},{"duration":0.09302325581396076,"midi":72,"time":160.24418604651163,"velocity":0.28346456692913385},{"duration":0.023255813953483084,"midi":74,"time":160.24418604651163,"velocity":0.30708661417322836},{"duration":0.023255813953483084,"midi":81,"time":160.24418604651163,"velocity":0.2677165354330709},{"duration":0.09302325581396076,"midi":87,"time":160.24418604651163,"velocity":0.3700787401574803},{"duration":0.04651162790696617,"midi":89,"time":160.24418604651163,"velocity":0.2204724409448819},{"duration":0.034883720930224626,"midi":95,"time":160.24418604651163,"velocity":0.13385826771653545},{"duration":0.034883720930224626,"midi":98,"time":160.24418604651163,"velocity":0.1889763779527559},{"duration":0.1046511627907023,"midi":101,"time":160.24418604651163,"velocity":0.33070866141732286},{"duration":0.034883720930224626,"midi":102,"time":160.24418604651163,"velocity":0.14173228346456693},{"duration":0.05813953488373613,"midi":78,"time":160.25581395348837,"velocity":0.14960629921259844},{"duration":0.1046511627907023,"midi":56,"time":160.2674418604651,"velocity":0.3700787401574803},{"duration":0.06976744186047767,"midi":75,"time":160.2674418604651,"velocity":0.3543307086614173},{"duration":0.06976744186047767,"midi":82,"time":160.2674418604651,"velocity":0.3700787401574803},{"duration":0.09302325581396076,"midi":51,"time":160.27906976744185,"velocity":0.29133858267716534},{"duration":0.03488372093025305,"midi":66,"time":160.27906976744185,"velocity":0.15748031496062992},{"duration":0.09302325581396076,"midi":44,"time":160.2906976744186,"velocity":0.3228346456692913},{"duration":0.03488372093025305,"midi":103,"time":160.2906976744186,"velocity":0.15748031496062992},{"duration":0.034883720930224626,"midi":33,"time":160.32558139534885,"velocity":0.2992125984251969},{"duration":0.06976744186044925,"midi":102,"time":160.32558139534885,"velocity":0.16535433070866143},{"duration":0.05813953488370771,"midi":74,"time":160.3372093023256,"velocity":0.3543307086614173},{"duration":0.034883720930224626,"midi":81,"time":160.3372093023256,"velocity":0.28346456692913385},{"duration":0.034883720930224626,"midi":86,"time":160.3372093023256,"velocity":0.4094488188976378},{"duration":0.023255813953483084,"midi":100,"time":160.34883720930233,"velocity":0.33858267716535434},{"duration":0.034883720930224626,"midi":32,"time":160.36046511627907,"velocity":0.29133858267716534},{"duration":0.13953488372092693,"midi":63,"time":160.37209302325581,"velocity":0.41732283464566927},{"duration":0.08139534883721922,"midi":68,"time":160.37209302325581,"velocity":0.2125984251968504},{"duration":0.06976744186047767,"midi":87,"time":160.37209302325581,"velocity":0.3700787401574803},{"duration":0.05813953488370771,"midi":101,"time":160.37209302325581,"velocity":0.3228346456692913},{"duration":0.06976744186047767,"midi":79,"time":160.38372093023256,"velocity":0.2204724409448819},{"duration":0.04651162790696617,"midi":83,"time":160.38372093023256,"velocity":0.16535433070866143},{"duration":0.09302325581396076,"midi":58,"time":160.3953488372093,"velocity":0.2755905511811024},{"duration":0.04651162790699459,"midi":72,"time":160.3953488372093,"velocity":0.11811023622047244},{"duration":0.034883720930224626,"midi":82,"time":160.3953488372093,"velocity":0.11023622047244094},{"duration":0.034883720930224626,"midi":97,"time":160.3953488372093,"velocity":0.07874015748031496},{"duration":0.09302325581396076,"midi":53,"time":160.40697674418604,"velocity":0.2992125984251969},{"duration":0.09302325581396076,"midi":46,"time":160.41860465116278,"velocity":0.2992125984251969},{"duration":0.04651162790699459,"midi":74,"time":160.41860465116278,"velocity":0.2204724409448819},{"duration":0.023255813953483084,"midi":35,"time":160.4418604651163,"velocity":0.3543307086614173},{"duration":0.04651162790696617,"midi":85,"time":160.4418604651163,"velocity":0.09448818897637795},{"duration":0.15116279069766847,"midi":99,"time":160.4418604651163,"velocity":0.2283464566929134},{"duration":0.05813953488370771,"midi":66,"time":160.45348837209303,"velocity":0.3937007874015748},{"duration":0.034883720930224626,"midi":34,"time":160.46511627906978,"velocity":0.3543307086614173},{"duration":0.1046511627907023,"midi":82,"time":160.46511627906978,"velocity":0.15748031496062992},{"duration":0.1860465116278931,"midi":101,"time":160.46511627906978,"velocity":0.2440944881889764},{"duration":0.09302325581396076,"midi":87,"time":160.5,"velocity":0.29133858267716534},{"duration":0.09302325581396076,"midi":102,"time":160.5,"velocity":0.2204724409448819},{"duration":0.023255813953483084,"midi":34,"time":160.51162790697674,"velocity":0.25984251968503935},{"duration":0.04651162790696617,"midi":45,"time":160.51162790697674,"velocity":0.5826771653543307},{"duration":0.08139534883721922,"midi":65,"time":160.51162790697674,"velocity":0.4566929133858268},{"duration":0.08139534883721922,"midi":88,"time":160.51162790697674,"velocity":0.23622047244094488},{"duration":0.08139534883721922,"midi":90,"time":160.51162790697674,"velocity":0.33858267716535434},{"duration":0.08139534883721922,"midi":94,"time":160.51162790697674,"velocity":0.1889763779527559},{"duration":0.04651162790696617,"midi":95,"time":160.51162790697674,"velocity":0.11023622047244094},{"duration":0.05813953488373613,"midi":97,"time":160.51162790697674,"velocity":0.16535433070866143},{"duration":0.04651162790696617,"midi":98,"time":160.51162790697674,"velocity":0.23622047244094488},{"duration":0.05813953488373613,"midi":103,"time":160.51162790697674,"velocity":0.25984251968503935},{"duration":0.034883720930224626,"midi":70,"time":160.52325581395348,"velocity":0.14173228346456693},{"duration":0.05813953488373613,"midi":83,"time":160.52325581395348,"velocity":0.14960629921259844},{"duration":0.034883720930224626,"midi":85,"time":160.52325581395348,"velocity":0.14960629921259844},{"duration":0.06976744186047767,"midi":89,"time":160.52325581395348,"velocity":0.2125984251968504},{"duration":0.04651162790699459,"midi":96,"time":160.52325581395348,"velocity":0.11023622047244094},{"duration":0.03488372093025305,"midi":73,"time":160.54651162790697,"velocity":0.11023622047244094},{"duration":0.011627906976769964,"midi":44,"time":160.5581395348837,"velocity":0.5984251968503937},{"duration":0.011627906976741542,"midi":43,"time":160.56976744186048,"velocity":0.5748031496062992},{"duration":0.034883720930224626,"midi":75,"time":160.56976744186048,"velocity":0.15748031496062992},{"duration":0.04651162790696617,"midi":85,"time":160.56976744186048,"velocity":0.15748031496062992},{"duration":0.034883720930224626,"midi":98,"time":160.56976744186048,"velocity":0.15748031496062992},{"duration":0.011627906976741542,"midi":42,"time":160.58139534883722,"velocity":0.5433070866141733},{"duration":0.05813953488370771,"midi":64,"time":160.59302325581396,"velocity":0.25984251968503935},{"duration":0.023255813953483084,"midi":53,"time":160.6046511627907,"velocity":0.2440944881889764},{"duration":0.023255813953483084,"midi":37,"time":160.62790697674419,"velocity":0.3937007874015748},{"duration":0.04651162790696617,"midi":94,"time":160.63953488372093,"velocity":0.2047244094488189},{"duration":0.034883720930224626,"midi":99,"time":160.63953488372093,"velocity":0.14173228346456693},{"duration":0.034883720930224626,"midi":100,"time":160.63953488372093,"velocity":0.07874015748031496},{"duration":0.023255813953483084,"midi":36,"time":160.65116279069767,"velocity":0.30708661417322836},{"duration":0.023255813953483084,"midi":55,"time":160.65116279069767,"velocity":0.28346456692913385},{"duration":0.1046511627907023,"midi":61,"time":160.65116279069767,"velocity":0.23622047244094488},{"duration":0.06976744186047767,"midi":65,"time":160.65116279069767,"velocity":0.2677165354330709},{"duration":0.09302325581396076,"midi":68,"time":160.65116279069767,"velocity":0.28346456692913385},{"duration":0.09302325581396076,"midi":79,"time":160.65116279069767,"velocity":0.18110236220472442},{"duration":0.04651162790699459,"midi":83,"time":160.65116279069767,"velocity":0.10236220472440945},{"duration":0.04651162790699459,"midi":86,"time":160.65116279069767,"velocity":0.14960629921259844},{"duration":0.11627906976744384,"midi":56,"time":160.67441860465115,"velocity":0.2755905511811024},{"duration":0.03488372093025305,"midi":71,"time":160.67441860465115,"velocity":0.12598425196850394},{"duration":0.04651162790699459,"midi":82,"time":160.67441860465115,"velocity":0.18110236220472442},{"duration":0.04651162790699459,"midi":49,"time":160.6860465116279,"velocity":0.2677165354330709},{"duration":0.04651162790699459,"midi":75,"time":160.6860465116279,"velocity":0.10236220472440945},{"duration":0.0813953488371908,"midi":37,"time":160.7093023255814,"velocity":0.3464566929133858},{"duration":0.023255813953483084,"midi":50,"time":160.74418604651163,"velocity":0.2992125984251969},{"duration":0.5465116279069662,"midi":91,"time":160.75581395348837,"velocity":0.3779527559055118},{"duration":0.034883720930224626,"midi":92,"time":160.7674418604651,"velocity":0.30708661417322836},{"duration":0.11627906976744384,"midi":94,"time":160.7674418604651,"velocity":0.2755905511811024},{"duration":0.06976744186047767,"midi":97,"time":160.7674418604651,"velocity":0.2047244094488189},{"duration":0.09302325581396076,"midi":99,"time":160.7674418604651,"velocity":0.3543307086614173},{"duration":0.09302325581396076,"midi":64,"time":160.77906976744185,"velocity":0.4015748031496063},{"duration":0.04651162790699459,"midi":78,"time":160.77906976744185,"velocity":0.18110236220472442},{"duration":0.08139534883721922,"midi":82,"time":160.77906976744185,"velocity":0.3464566929133858},{"duration":0.03488372093025305,"midi":85,"time":160.77906976744185,"velocity":0.14960629921259844},{"duration":0.09302325581396076,"midi":87,"time":160.77906976744185,"velocity":0.2440944881889764},{"duration":0.03488372093025305,"midi":93,"time":160.77906976744185,"velocity":0.14960629921259844},{"duration":0.04651162790699459,"midi":98,"time":160.77906976744185,"velocity":0.13385826771653545},{"duration":0.09302325581396076,"midi":101,"time":160.77906976744185,"velocity":0.31496062992125984},{"duration":0.023255813953511506,"midi":47,"time":160.7906976744186,"velocity":0.2755905511811024},{"duration":0.04651162790699459,"midi":79,"time":160.7906976744186,"velocity":0.11023622047244094},{"duration":0.023255813953511506,"midi":55,"time":160.80232558139534,"velocity":0.25984251968503935},{"duration":0.03488372093025305,"midi":70,"time":160.80232558139534,"velocity":0.09448818897637795},{"duration":0.05813953488373613,"midi":75,"time":160.80232558139534,"velocity":0.3858267716535433},{"duration":0.04651162790699459,"midi":81,"time":160.80232558139534,"velocity":0.14173228346456693},{"duration":0.04651162790696617,"midi":48,"time":160.8139534883721,"velocity":0.25196850393700787},{"duration":0.06976744186044925,"midi":36,"time":160.8372093023256,"velocity":0.33070866141732286},{"duration":0.12790697674418539,"midi":96,"time":160.8372093023256,"velocity":0.14960629921259844},{"duration":0.06976744186044925,"midi":80,"time":160.84883720930233,"velocity":0.1968503937007874},{"duration":0.05813953488370771,"midi":90,"time":160.84883720930233,"velocity":0.2204724409448819},{"duration":0.05813953488370771,"midi":68,"time":160.86046511627907,"velocity":0.1889763779527559},{"duration":0.034883720930224626,"midi":74,"time":160.86046511627907,"velocity":0.3937007874015748},{"duration":0.034883720930224626,"midi":81,"time":160.86046511627907,"velocity":0.3543307086614173},{"duration":0.05813953488370771,"midi":84,"time":160.86046511627907,"velocity":0.07874015748031496},{"duration":0.034883720930224626,"midi":98,"time":160.86046511627907,"velocity":0.2283464566929134},{"duration":0.04651162790696617,"midi":53,"time":160.87209302325581,"velocity":0.33858267716535434},{"duration":0.04651162790696617,"midi":63,"time":160.87209302325581,"velocity":0.4015748031496063},{"duration":0.08139534883721922,"midi":99,"time":160.87209302325581,"velocity":0.29133858267716534},{"duration":0.1046511627907023,"midi":100,"time":160.87209302325581,"velocity":0.30708661417322836},{"duration":0.034883720930224626,"midi":75,"time":160.8953488372093,"velocity":0.4015748031496063},{"duration":0.023255813953483084,"midi":78,"time":160.8953488372093,"velocity":0.31496062992125984},{"duration":0.04651162790699459,"midi":82,"time":160.8953488372093,"velocity":0.25984251968503935},{"duration":0.15116279069766847,"midi":72,"time":160.90697674418604,"velocity":0.2283464566929134},{"duration":0.03488372093025305,"midi":98,"time":160.90697674418604,"velocity":0.13385826771653545},{"duration":0.03488372093025305,"midi":101,"time":160.90697674418604,"velocity":0.2283464566929134},{"duration":0.023255813953511506,"midi":77,"time":160.91860465116278,"velocity":0.3228346456692913},{"duration":0.023255813953511506,"midi":79,"time":160.91860465116278,"velocity":0.2992125984251969},{"duration":0.1511627906976969,"midi":85,"time":160.91860465116278,"velocity":0.10236220472440945},{"duration":0.06976744186047767,"midi":68,"time":160.93023255813952,"velocity":0.25984251968503935},{"duration":0.03488372093025305,"midi":76,"time":160.93023255813952,"velocity":0.29133858267716534},{"duration":0.03488372093025305,"midi":95,"time":160.93023255813952,"velocity":0.1889763779527559},{"duration":0.05813953488373613,"midi":97,"time":160.93023255813952,"velocity":0.14960629921259844},{"duration":0.04651162790696617,"midi":78,"time":160.9418604651163,"velocity":0.1968503937007874},{"duration":0.023255813953483084,"midi":83,"time":160.9418604651163,"velocity":0.25196850393700787},{"duration":0.04651162790696617,"midi":63,"time":160.96511627906978,"velocity":0.2755905511811024},{"duration":0.04651162790696617,"midi":75,"time":160.96511627906978,"velocity":0.3858267716535433},{"duration":0.04651162790696617,"midi":82,"time":160.96511627906978,"velocity":0.31496062992125984},{"duration":0.05813953488370771,"midi":99,"time":160.96511627906978,"velocity":0.2204724409448819},{"duration":0.034883720930224626,"midi":101,"time":160.96511627906978,"velocity":0.14173228346456693},{"duration":0.023255813953483084,"midi":55,"time":160.97674418604652,"velocity":0.3464566929133858},{"duration":0.09302325581396076,"midi":96,"time":160.97674418604652,"velocity":0.2440944881889764},{"duration":0.04651162790696617,"midi":86,"time":160.98837209302326,"velocity":0.2204724409448819},{"duration":0.08139534883721922,"midi":102,"time":160.98837209302326,"velocity":0.2125984251968504},{"duration":0.034883720930224626,"midi":66,"time":161,"velocity":0.1889763779527559},{"duration":0.034883720930224626,"midi":90,"time":161,"velocity":0.11811023622047244},{"duration":0.08139534883721922,"midi":93,"time":161,"velocity":0.31496062992125984},{"duration":0.06976744186047767,"midi":100,"time":161,"velocity":0.23622047244094488},{"duration":0.023255813953483084,"midi":53,"time":161.01162790697674,"velocity":0.29133858267716534},{"duration":0.04651162790696617,"midi":74,"time":161.01162790697674,"velocity":0.33070866141732286},{"duration":0.04651162790696617,"midi":80,"time":161.01162790697674,"velocity":0.1968503937007874},{"duration":0.04651162790696617,"midi":81,"time":161.01162790697674,"velocity":0.25196850393700787},{"duration":0.13953488372092693,"midi":87,"time":161.02325581395348,"velocity":0.16535433070866143},{"duration":0.05813953488373613,"midi":68,"time":161.03488372093022,"velocity":0.16535433070866143},{"duration":0.24418604651162923,"midi":94,"time":161.03488372093022,"velocity":0.2440944881889764},{"duration":0.17441860465117998,"midi":97,"time":161.04651162790697,"velocity":0.2204724409448819},{"duration":0.19767441860466306,"midi":101,"time":161.04651162790697,"velocity":0.2677165354330709},{"duration":0.1511627906976969,"midi":75,"time":161.0581395348837,"velocity":0.3543307086614173},{"duration":0.12790697674418539,"midi":82,"time":161.0581395348837,"velocity":0.2440944881889764},{"duration":0.19767441860466306,"midi":99,"time":161.0581395348837,"velocity":0.23622047244094488},{"duration":0.023255813953483084,"midi":45,"time":161.06976744186048,"velocity":0.6220472440944882},{"duration":0.034883720930224626,"midi":62,"time":161.06976744186048,"velocity":0.1732283464566929},{"duration":0.011627906976741542,"midi":44,"time":161.09302325581396,"velocity":0.5905511811023622},{"duration":0.011627906976741542,"midi":42,"time":161.1046511627907,"velocity":0.5669291338582677},{"duration":0.034883720930224626,"midi":63,"time":161.1046511627907,"velocity":0.11023622047244094},{"duration":0.011627906976741542,"midi":41,"time":161.11627906976744,"velocity":0.5275590551181102},{"duration":0.06976744186044925,"midi":67,"time":161.11627906976744,"velocity":0.16535433070866143},{"duration":0.034883720930224626,"midi":58,"time":161.12790697674419,"velocity":0.09448818897637795},{"duration":0.034883720930224626,"midi":73,"time":161.12790697674419,"velocity":0.10236220472440945},{"duration":0.023255813953483084,"midi":63,"time":161.1627906976744,"velocity":0.2440944881889764},{"duration":0.023255813953483084,"midi":78,"time":161.1627906976744,"velocity":0.25196850393700787},{"duration":0.03488372093025305,"midi":36,"time":161.17441860465115,"velocity":0.3464566929133858},{"duration":0.1046511627907023,"midi":83,"time":161.17441860465115,"velocity":0.18110236220472442},{"duration":0.13953488372095535,"midi":88,"time":161.17441860465115,"velocity":0.25196850393700787},{"duration":0.08139534883721922,"midi":90,"time":161.17441860465115,"velocity":0.29133858267716534},{"duration":0.09302325581396076,"midi":96,"time":161.17441860465115,"velocity":0.18110236220472442},{"duration":0.1046511627907023,"midi":98,"time":161.17441860465115,"velocity":0.2047244094488189},{"duration":0.04651162790699459,"midi":68,"time":161.1860465116279,"velocity":0.08661417322834646},{"duration":0.023255813953511506,"midi":79,"time":161.1860465116279,"velocity":0.28346456692913385},{"duration":0.023255813953511506,"midi":81,"time":161.1860465116279,"velocity":0.25984251968503935},{"duration":0.09302325581396076,"midi":85,"time":161.1860465116279,"velocity":0.1968503937007874},{"duration":0.1046511627907023,"midi":89,"time":161.1860465116279,"velocity":0.30708661417322836},{"duration":0.05813953488370771,"midi":64,"time":161.19767441860466,"velocity":0.28346456692913385},{"duration":0.034883720930224626,"midi":74,"time":161.19767441860466,"velocity":0.11023622047244094},{"duration":0.034883720930224626,"midi":77,"time":161.19767441860466,"velocity":0.10236220472440945},{"duration":0.023255813953483084,"midi":82,"time":161.19767441860466,"velocity":0.23622047244094488},{"duration":0.034883720930224626,"midi":71,"time":161.22093023255815,"velocity":0.16535433070866143},{"duration":0.04651162790696617,"midi":81,"time":161.22093023255815,"velocity":0.1889763779527559},{"duration":0.05813953488370771,"midi":80,"time":161.2325581395349,"velocity":0.16535433070866143},{"duration":0.04651162790696617,"midi":87,"time":161.2325581395349,"velocity":0.13385826771653545},{"duration":0.13953488372092693,"midi":75,"time":161.25581395348837,"velocity":0.2992125984251969},{"duration":0.11627906976744384,"midi":68,"time":161.27906976744185,"velocity":0.4330708661417323},{"duration":0.03488372093025305,"midi":77,"time":161.27906976744185,"velocity":0.10236220472440945},{"duration":0.11627906976744384,"midi":82,"time":161.27906976744185,"velocity":0.2125984251968504},{"duration":0.06976744186047767,"midi":97,"time":161.27906976744185,"velocity":0.08661417322834646},{"duration":0.24418604651162923,"midi":92,"time":161.30232558139534,"velocity":0.3464566929133858},{"duration":0.03488372093025305,"midi":98,"time":161.30232558139534,"velocity":0.2125984251968504},{"duration":0.11627906976744384,"midi":99,"time":161.30232558139534,"velocity":0.28346456692913385},{"duration":0.09302325581396076,"midi":102,"time":161.30232558139534,"velocity":0.2125984251968504},{"duration":0.023255813953483084,"midi":60,"time":161.3139534883721,"velocity":0.28346456692913385},{"duration":0.034883720930224626,"midi":64,"time":161.3139534883721,"velocity":0.2125984251968504},{"duration":0.0813953488371908,"midi":91,"time":161.3139534883721,"velocity":0.2204724409448819},{"duration":0.17441860465115155,"midi":96,"time":161.3139534883721,"velocity":0.13385826771653545},{"duration":0.034883720930224626,"midi":100,"time":161.3139534883721,"velocity":0.12598425196850394},{"duration":0.04651162790696617,"midi":90,"time":161.32558139534885,"velocity":0.13385826771653545},{"duration":0.023255813953483084,"midi":59,"time":161.3372093023256,"velocity":0.23622047244094488},{"duration":0.06976744186044925,"midi":72,"time":161.3372093023256,"velocity":0.15748031496062992},{"duration":0.023255813953483084,"midi":55,"time":161.34883720930233,"velocity":0.25984251968503935},{"duration":0.034883720930224626,"midi":101,"time":161.37209302325581,"velocity":0.14173228346456693},{"duration":0.023255813953483084,"midi":60,"time":161.38372093023256,"velocity":0.2283464566929134},{"duration":0.023255813953483084,"midi":53,"time":161.3953488372093,"velocity":0.25196850393700787},{"duration":0.023255813953483084,"midi":74,"time":161.3953488372093,"velocity":0.25984251968503935},{"duration":0.04651162790699459,"midi":77,"time":161.3953488372093,"velocity":0.08661417322834646},{"duration":0.06976744186047767,"midi":100,"time":161.40697674418604,"velocity":0.11023622047244094},{"duration":0.03488372093025305,"midi":68,"time":161.41860465116278,"velocity":0.23622047244094488},{"duration":0.023255813953511506,"midi":62,"time":161.43023255813952,"velocity":0.3858267716535433},{"duration":0.05813953488373613,"midi":78,"time":161.43023255813952,"velocity":0.2283464566929134},{"duration":0.1046511627907023,"midi":80,"time":161.43023255813952,"velocity":0.31496062992125984},{"duration":0.09302325581396076,"midi":83,"time":161.43023255813952,"velocity":0.18110236220472442},{"duration":0.04651162790699459,"midi":91,"time":161.43023255813952,"velocity":0.1889763779527559},{"duration":0.04651162790696617,"midi":84,"time":161.4418604651163,"velocity":0.09448818897637795},{"duration":0.034883720930224626,"midi":98,"time":161.4418604651163,"velocity":0.11811023622047244},{"duration":0.023255813953483084,"midi":60,"time":161.45348837209303,"velocity":0.48031496062992124},{"duration":0.034883720930224626,"midi":77,"time":161.45348837209303,"velocity":0.2283464566929134},{"duration":0.04651162790696617,"midi":102,"time":161.45348837209303,"velocity":0.12598425196850394},{"duration":0.04651162790696617,"midi":68,"time":161.47674418604652,"velocity":0.1889763779527559},{"duration":0.04651162790696617,"midi":94,"time":161.48837209302326,"velocity":0.11023622047244094},{"duration":0.023255813953483084,"midi":74,"time":161.5,"velocity":0.2283464566929134},{"duration":0.034883720930224626,"midi":60,"time":161.52325581395348,"velocity":0.25196850393700787},{"duration":0.03488372093025305,"midi":53,"time":161.53488372093022,"velocity":0.3700787401574803},{"duration":0.08139534883721922,"midi":93,"time":161.53488372093022,"velocity":0.1889763779527559},{"duration":0.04651162790699459,"midi":61,"time":161.54651162790697,"velocity":0.4015748031496063},{"duration":0.03488372093025305,"midi":80,"time":161.54651162790697,"velocity":0.2047244094488189},{"duration":0.08139534883721922,"midi":78,"time":161.5581395348837,"velocity":0.2992125984251969},{"duration":0.04651162790696617,"midi":55,"time":161.56976744186048,"velocity":0.5275590551181102},{"duration":0.023255813953483084,"midi":66,"time":161.56976744186048,"velocity":0.36220472440944884},{"duration":0.034883720930224626,"midi":76,"time":161.56976744186048,"velocity":0.2283464566929134},{"duration":0.20930232558137618,"midi":82,"time":161.56976744186048,"velocity":0.3228346456692913},{"duration":0.034883720930224626,"midi":84,"time":161.56976744186048,"velocity":0.16535433070866143},{"duration":0.05813953488370771,"midi":88,"time":161.56976744186048,"velocity":0.2283464566929134},{"duration":0.0813953488371908,"midi":89,"time":161.56976744186048,"velocity":0.2755905511811024},{"duration":0.05813953488370771,"midi":91,"time":161.56976744186048,"velocity":0.1968503937007874},{"duration":0.034883720930224626,"midi":95,"time":161.56976744186048,"velocity":0.2047244094488189},{"duration":0.10465116279067388,"midi":96,"time":161.56976744186048,"velocity":0.25196850393700787},{"duration":0.05813953488370771,"midi":97,"time":161.56976744186048,"velocity":0.1889763779527559},{"duration":0.09302325581393234,"midi":99,"time":161.56976744186048,"velocity":0.2755905511811024},{"duration":0.023255813953483084,"midi":46,"time":161.58139534883722,"velocity":0.47244094488188976},{"duration":0.10465116279067388,"midi":68,"time":161.58139534883722,"velocity":0.4015748031496063},{"duration":0.034883720930224626,"midi":83,"time":161.58139534883722,"velocity":0.1968503937007874},{"duration":0.19767441860463464,"midi":98,"time":161.58139534883722,"velocity":0.25984251968503935},{"duration":0.023255813953483084,"midi":62,"time":161.59302325581396,"velocity":0.2440944881889764},{"duration":0.06976744186044925,"midi":72,"time":161.59302325581396,"velocity":0.14960629921259844},{"duration":0.011627906976741542,"midi":45,"time":161.6046511627907,"velocity":0.5669291338582677},{"duration":0.05813953488370771,"midi":75,"time":161.6046511627907,"velocity":0.41732283464566927},{"duration":0.2093023255814046,"midi":92,"time":161.6046511627907,"velocity":0.25196850393700787},{"duration":0.05813953488370771,"midi":103,"time":161.6046511627907,"velocity":0.1968503937007874},{"duration":0.011627906976741542,"midi":44,"time":161.61627906976744,"velocity":0.5590551181102362},{"duration":0.034883720930224626,"midi":84,"time":161.61627906976744,"velocity":0.2047244094488189},{"duration":0.06976744186044925,"midi":95,"time":161.61627906976744,"velocity":0.10236220472440945},{"duration":0.011627906976741542,"midi":43,"time":161.62790697674419,"velocity":0.5354330708661418},{"duration":0.034883720930224626,"midi":81,"time":161.62790697674419,"velocity":0.18110236220472442},{"duration":0.034883720930224626,"midi":53,"time":161.63953488372093,"velocity":0.4015748031496063},{"duration":0.034883720930224626,"midi":85,"time":161.63953488372093,"velocity":0.12598425196850394},{"duration":0.05813953488373613,"midi":78,"time":161.65116279069767,"velocity":0.2283464566929134},{"duration":0.04651162790699459,"midi":56,"time":161.6627906976744,"velocity":0.3700787401574803},{"duration":0.03488372093025305,"midi":76,"time":161.6627906976744,"velocity":0.2204724409448819},{"duration":0.05813953488373613,"midi":91,"time":161.67441860465115,"velocity":0.13385826771653545},{"duration":0.2325581395348877,"midi":97,"time":161.67441860465115,"velocity":0.3543307086614173},{"duration":0.023255813953511506,"midi":37,"time":161.6860465116279,"velocity":0.3779527559055118},{"duration":0.05813953488373613,"midi":75,"time":161.6860465116279,"velocity":0.2677165354330709},{"duration":0.2093023255814046,"midi":85,"time":161.6860465116279,"velocity":0.3858267716535433},{"duration":0.2093023255814046,"midi":99,"time":161.6860465116279,"velocity":0.28346456692913385},{"duration":0.034883720930224626,"midi":72,"time":161.69767441860466,"velocity":0.2992125984251969},{"duration":0.09302325581393234,"midi":86,"time":161.69767441860466,"velocity":0.31496062992125984},{"duration":0.11627906976744384,"midi":89,"time":161.69767441860466,"velocity":0.33858267716535434},{"duration":0.034883720930224626,"midi":93,"time":161.69767441860466,"velocity":0.12598425196850394},{"duration":0.05813953488370771,"midi":95,"time":161.69767441860466,"velocity":0.2125984251968504},{"duration":0.04651162790696617,"midi":96,"time":161.69767441860466,"velocity":0.15748031496062992},{"duration":0.04651162790696617,"midi":100,"time":161.69767441860466,"velocity":0.12598425196850394},{"duration":0.034883720930224626,"midi":55,"time":161.7093023255814,"velocity":0.3700787401574803},{"duration":0.023255813953483084,"midi":61,"time":161.7093023255814,"velocity":0.3464566929133858},{"duration":0.15116279069766847,"midi":70,"time":161.7093023255814,"velocity":0.4409448818897638},{"duration":0.1046511627907023,"midi":77,"time":161.7093023255814,"velocity":0.4094488188976378},{"duration":0.09302325581393234,"midi":80,"time":161.7093023255814,"velocity":0.2283464566929134},{"duration":0.034883720930224626,"midi":35,"time":161.72093023255815,"velocity":0.2204724409448819},{"duration":0.023255813953483084,"midi":68,"time":161.72093023255815,"velocity":0.33858267716535434},{"duration":0.05813953488370771,"midi":58,"time":161.7325581395349,"velocity":0.3858267716535433},{"duration":0.034883720930224626,"midi":102,"time":161.74418604651163,"velocity":0.2204724409448819},{"duration":0.04651162790696617,"midi":90,"time":161.75581395348837,"velocity":0.11023622047244094},{"duration":0.04651162790699459,"midi":96,"time":161.7674418604651,"velocity":0.2440944881889764},{"duration":0.05813953488373613,"midi":68,"time":161.77906976744185,"velocity":0.2440944881889764},{"duration":0.04651162790699459,"midi":73,"time":161.77906976744185,"velocity":0.16535433070866143},{"duration":0.03488372093025305,"midi":56,"time":161.80232558139534,"velocity":0.3779527559055118},{"duration":0.03488372093025305,"midi":87,"time":161.80232558139534,"velocity":0.18110236220472442},{"duration":0.034883720930224626,"midi":66,"time":161.82558139534885,"velocity":0.18110236220472442},{"duration":0.023255813953483084,"midi":76,"time":161.82558139534885,"velocity":0.2283464566929134},{"duration":0.04651162790696617,"midi":83,"time":161.82558139534885,"velocity":0.10236220472440945},{"duration":0.034883720930224626,"midi":88,"time":161.82558139534885,"velocity":0.33070866141732286},{"duration":0.10465116279067388,"midi":89,"time":161.82558139534885,"velocity":0.2440944881889764},{"duration":0.05813953488370771,"midi":95,"time":161.82558139534885,"velocity":0.15748031496062992},{"duration":0.4186046511627808,"midi":102,"time":161.82558139534885,"velocity":0.33858267716535434},{"duration":0.05813953488370771,"midi":73,"time":161.8372093023256,"velocity":0.5039370078740157},{"duration":0.04651162790696617,"midi":78,"time":161.8372093023256,"velocity":0.2204724409448819},{"duration":0.05813953488370771,"midi":80,"time":161.8372093023256,"velocity":0.2677165354330709},{"duration":0.034883720930224626,"midi":86,"time":161.8372093023256,"velocity":0.16535433070866143},{"duration":0.023255813953483084,"midi":61,"time":161.84883720930233,"velocity":0.2283464566929134},{"duration":0.06976744186044925,"midi":75,"time":161.84883720930233,"velocity":0.25196850393700787},{"duration":0.11627906976744384,"midi":82,"time":161.86046511627907,"velocity":0.1732283464566929},{"duration":0.22093023255814614,"midi":101,"time":161.86046511627907,"velocity":0.28346456692913385},{"duration":0.023255813953483084,"midi":40,"time":161.87209302325581,"velocity":0.29133858267716534},{"duration":0.034883720930224626,"midi":68,"time":161.87209302325581,"velocity":0.16535433070866143},{"duration":0.16279069767441,"midi":98,"time":161.87209302325581,"velocity":0.14173228346456693},{"duration":0.023255813953483084,"midi":55,"time":161.88372093023256,"velocity":0.2440944881889764},{"duration":0.05813953488373613,"midi":94,"time":161.88372093023256,"velocity":0.1889763779527559},{"duration":0.25581395348837077,"midi":100,"time":161.88372093023256,"velocity":0.2755905511811024},{"duration":0.023255813953483084,"midi":50,"time":161.8953488372093,"velocity":0.25196850393700787},{"duration":0.04651162790699459,"midi":72,"time":161.8953488372093,"velocity":0.4645669291338583},{"duration":0.17441860465117998,"midi":88,"time":161.8953488372093,"velocity":0.28346456692913385},{"duration":0.06976744186047767,"midi":91,"time":161.8953488372093,"velocity":0.11811023622047244},{"duration":0.05813953488373613,"midi":103,"time":161.8953488372093,"velocity":0.1968503937007874},{"duration":0.04651162790699459,"midi":59,"time":161.91860465116278,"velocity":0.3228346456692913},{"duration":0.023255813953511506,"midi":55,"time":161.93023255813952,"velocity":0.23622047244094488},{"duration":0.06976744186047767,"midi":76,"time":161.93023255813952,"velocity":0.3228346456692913},{"duration":0.19767441860466306,"midi":85,"time":161.93023255813952,"velocity":0.29133858267716534},{"duration":0.08139534883721922,"midi":86,"time":161.93023255813952,"velocity":0.25196850393700787},{"duration":0.034883720930224626,"midi":30,"time":161.9418604651163,"velocity":0.2047244094488189},{"duration":0.023255813953483084,"midi":49,"time":161.9418604651163,"velocity":0.3228346456692913},{"duration":0.034883720930224626,"midi":71,"time":161.9418604651163,"velocity":0.3464566929133858},{"duration":0.09302325581393234,"midi":90,"time":161.95348837209303,"velocity":0.33070866141732286},{"duration":0.034883720930224626,"midi":67,"time":161.96511627906978,"velocity":0.3779527559055118},{"duration":0.04651162790696617,"midi":87,"time":161.96511627906978,"velocity":0.25984251968503935},{"duration":0.023255813953483084,"midi":89,"time":161.96511627906978,"velocity":0.3858267716535433},{"duration":0.3953488372092977,"midi":92,"time":161.96511627906978,"velocity":0.25196850393700787},{"duration":0.09302325581393234,"midi":93,"time":161.96511627906978,"velocity":0.2047244094488189},{"duration":0.0813953488371908,"midi":94,"time":161.96511627906978,"velocity":0.2204724409448819},{"duration":0.023255813953483084,"midi":55,"time":161.97674418604652,"velocity":0.4409448818897638},{"duration":0.0813953488371908,"midi":70,"time":161.97674418604652,"velocity":0.3700787401574803},{"duration":0.034883720930224626,"midi":74,"time":161.97674418604652,"velocity":0.31496062992125984},{"duration":0.034883720930224626,"midi":81,"time":161.97674418604652,"velocity":0.1732283464566929},{"duration":0.09302325581396076,"midi":95,"time":161.97674418604652,"velocity":0.2440944881889764},{"duration":0.11627906976744384,"midi":80,"time":161.98837209302326,"velocity":0.1889763779527559},{"duration":0.08139534883721922,"midi":66,"time":162,"velocity":0.3700787401574803},{"duration":0.034883720930224626,"midi":77,"time":162,"velocity":0.2283464566929134},{"duration":0.034883720930224626,"midi":73,"time":162.01162790697674,"velocity":0.2204724409448819},{"duration":0.03488372093025305,"midi":51,"time":162.03488372093022,"velocity":0.4094488188976378},{"duration":0.08139534883721922,"midi":32,"time":162.04651162790697,"velocity":0.28346456692913385},{"duration":0.05813953488373613,"midi":61,"time":162.04651162790697,"velocity":0.2283464566929134},{"duration":0.023255813953511506,"midi":74,"time":162.04651162790697,"velocity":0.25196850393700787},{"duration":0.03488372093025305,"midi":73,"time":162.0581395348837,"velocity":0.2677165354330709},{"duration":0.034883720930224626,"midi":90,"time":162.06976744186048,"velocity":0.11811023622047244},{"duration":0.023255813953483084,"midi":68,"time":162.08139534883722,"velocity":0.25984251968503935},{"duration":0.023255813953483084,"midi":64,"time":162.09302325581396,"velocity":0.47244094488188976},{"duration":0.023255813953483084,"midi":77,"time":162.09302325581396,"velocity":0.2677165354330709},{"duration":0.06976744186044925,"midi":78,"time":162.09302325581396,"velocity":0.2204724409448819},{"duration":0.17441860465115155,"midi":84,"time":162.09302325581396,"velocity":0.23622047244094488},{"duration":0.05813953488370771,"midi":95,"time":162.09302325581396,"velocity":0.2992125984251969},{"duration":0.40697674418603924,"midi":96,"time":162.09302325581396,"velocity":0.33070866141732286},{"duration":0.05813953488370771,"midi":98,"time":162.09302325581396,"velocity":0.23622047244094488},{"duration":0.32558139534882,"midi":101,"time":162.09302325581396,"velocity":0.2992125984251969},{"duration":0.05813953488370771,"midi":103,"time":162.09302325581396,"velocity":0.2204724409448819},{"duration":0.04651162790696617,"midi":71,"time":162.1046511627907,"velocity":0.36220472440944884},{"duration":0.034883720930224626,"midi":74,"time":162.1046511627907,"velocity":0.2047244094488189},{"duration":0.034883720930224626,"midi":81,"time":162.1046511627907,"velocity":0.2204724409448819},{"duration":0.04651162790696617,"midi":88,"time":162.1046511627907,"velocity":0.1732283464566929},{"duration":0.3139534883720785,"midi":89,"time":162.1046511627907,"velocity":0.4015748031496063},{"duration":0.04651162790696617,"midi":65,"time":162.11627906976744,"velocity":0.5118110236220472},{"duration":0.24418604651162923,"midi":82,"time":162.11627906976744,"velocity":0.2204724409448819},{"duration":0.3953488372092977,"midi":93,"time":162.11627906976744,"velocity":0.5354330708661418},{"duration":0.011627906976741542,"midi":45,"time":162.12790697674419,"velocity":0.5748031496062992},{"duration":0.25581395348837077,"midi":99,"time":162.12790697674419,"velocity":0.33858267716535434},{"duration":0.011627906976741542,"midi":44,"time":162.13953488372093,"velocity":0.5984251968503937},{"duration":0.06976744186047767,"midi":58,"time":162.13953488372093,"velocity":0.25984251968503935},{"duration":0.09302325581396076,"midi":61,"time":162.13953488372093,"velocity":0.25196850393700787},{"duration":0.04651162790696617,"midi":73,"time":162.13953488372093,"velocity":0.31496062992125984},{"duration":0.023255813953483084,"midi":43,"time":162.15116279069767,"velocity":0.5590551181102362},{"duration":0.18604651162792152,"midi":80,"time":162.15116279069767,"velocity":0.2440944881889764},{"duration":0.03488372093025305,"midi":72,"time":162.1627906976744,"velocity":0.1889763779527559},{"duration":0.16279069767443843,"midi":97,"time":162.1627906976744,"velocity":0.1968503937007874},{"duration":0.023255813953511506,"midi":65,"time":162.17441860465115,"velocity":0.3228346456692913},{"duration":0.06976744186047767,"midi":68,"time":162.1860465116279,"velocity":0.33858267716535434},{"duration":0.03488372093025305,"midi":103,"time":162.1860465116279,"velocity":0.18110236220472442},{"duration":0.17441860465115155,"midi":73,"time":162.19767441860466,"velocity":0.3858267716535433},{"duration":0.034883720930224626,"midi":36,"time":162.2093023255814,"velocity":0.3543307086614173},{"duration":0.023255813953483084,"midi":54,"time":162.2093023255814,"velocity":0.3228346456692913},{"duration":0.0813953488371908,"midi":65,"time":162.2093023255814,"velocity":0.3228346456692913},{"duration":0.12790697674418539,"midi":77,"time":162.2093023255814,"velocity":0.36220472440944884},{"duration":0.11627906976744384,"midi":98,"time":162.2093023255814,"velocity":0.1732283464566929},{"duration":0.034883720930224626,"midi":46,"time":162.22093023255815,"velocity":0.30708661417322836},{"duration":0.023255813953483084,"midi":70,"time":162.22093023255815,"velocity":0.30708661417322836},{"duration":0.034883720930224626,"midi":54,"time":162.24418604651163,"velocity":0.2125984251968504},{"duration":0.09302325581396076,"midi":70,"time":162.25581395348837,"velocity":0.3464566929133858},{"duration":0.05813953488373613,"midi":102,"time":162.2674418604651,"velocity":0.11023622047244094},{"duration":0.03488372093025305,"midi":58,"time":162.2906976744186,"velocity":0.14960629921259844},{"duration":0.03488372093025305,"midi":64,"time":162.2906976744186,"velocity":0.4409448818897638},{"duration":0.12790697674418539,"midi":84,"time":162.2906976744186,"velocity":0.1968503937007874},{"duration":0.05813953488373613,"midi":95,"time":162.2906976744186,"velocity":0.14173228346456693},{"duration":0.05813953488373613,"midi":103,"time":162.2906976744186,"velocity":0.18110236220472442},{"duration":0.05813953488370771,"midi":54,"time":162.3139534883721,"velocity":0.11811023622047244},{"duration":0.023255813953483084,"midi":61,"time":162.32558139534885,"velocity":0.2283464566929134},{"duration":0.09302325581393234,"midi":65,"time":162.32558139534885,"velocity":0.4566929133858268},{"duration":0.04651162790696617,"midi":58,"time":162.3372093023256,"velocity":0.2125984251968504},{"duration":0.27906976744185386,"midi":61,"time":162.36046511627907,"velocity":0.41732283464566927},{"duration":0.06976744186047767,"midi":80,"time":162.37209302325581,"velocity":0.18110236220472442},{"duration":0.06976744186047767,"midi":85,"time":162.37209302325581,"velocity":0.14173228346456693},{"duration":0.034883720930224626,"midi":69,"time":162.38372093023256,"velocity":0.2204724409448819},{"duration":0.09302325581396076,"midi":82,"time":162.38372093023256,"velocity":0.2047244094488189},{"duration":0.1046511627907023,"midi":70,"time":162.40697674418604,"velocity":0.3464566929133858},{"duration":0.023255813953511506,"midi":66,"time":162.41860465116278,"velocity":0.2440944881889764},{"duration":0.034883720930224626,"midi":65,"time":162.4418604651163,"velocity":0.30708661417322836},{"duration":0.22093023255811772,"midi":97,"time":162.46511627906978,"velocity":0.1968503937007874},{"duration":0.023255813953483084,"midi":66,"time":162.47674418604652,"velocity":0.3228346456692913},{"duration":0.0813953488371908,"midi":92,"time":162.47674418604652,"velocity":0.3228346456692913},{"duration":0.04651162790696617,"midi":83,"time":162.48837209302326,"velocity":0.14960629921259844},{"duration":0.05813953488370771,"midi":100,"time":162.48837209302326,"velocity":0.31496062992125984},{"duration":0.33720930232559,"midi":101,"time":162.48837209302326,"velocity":0.2755905511811024},{"duration":0.3720930232558146,"midi":103,"time":162.48837209302326,"velocity":0.33070866141732286},{"duration":0.12790697674418539,"midi":65,"time":162.5,"velocity":0.5669291338582677},{"duration":0.05813953488370771,"midi":81,"time":162.5,"velocity":0.18110236220472442},{"duration":0.04651162790696617,"midi":98,"time":162.5,"velocity":0.13385826771653545},{"duration":0.2093023255814046,"midi":102,"time":162.5,"velocity":0.2677165354330709},{"duration":0.023255813953483084,"midi":69,"time":162.51162790697674,"velocity":0.4251968503937008},{"duration":0.13953488372092693,"midi":82,"time":162.51162790697674,"velocity":0.18110236220472442},{"duration":0.08139534883721922,"midi":99,"time":162.51162790697674,"velocity":0.2992125984251969},{"duration":0.023255813953483084,"midi":36,"time":162.52325581395348,"velocity":0.23622047244094488},{"duration":0.25581395348837077,"midi":89,"time":162.52325581395348,"velocity":0.3937007874015748},{"duration":0.2906976744186238,"midi":93,"time":162.52325581395348,"velocity":0.3700787401574803},{"duration":0.38372093023255616,"midi":96,"time":162.52325581395348,"velocity":0.3464566929133858},{"duration":0.08139534883721922,"midi":68,"time":162.53488372093022,"velocity":0.3937007874015748},{"duration":0.023255813953511506,"midi":37,"time":162.54651162790697,"velocity":0.30708661417322836},{"duration":0.11627906976744384,"midi":70,"time":162.54651162790697,"velocity":0.4094488188976378},{"duration":0.023255813953511506,"midi":74,"time":162.54651162790697,"velocity":0.2755905511811024},{"duration":0.04651162790696617,"midi":84,"time":162.58139534883722,"velocity":0.2047244094488189},{"duration":0.023255813953483084,"midi":55,"time":162.61627906976744,"velocity":0.4094488188976378},{"duration":0.05813953488370771,"midi":80,"time":162.61627906976744,"velocity":0.2204724409448819},{"duration":0.13953488372092693,"midi":92,"time":162.61627906976744,"velocity":0.2204724409448819},{"duration":0.034883720930224626,"midi":64,"time":162.62790697674419,"velocity":0.4330708661417323},{"duration":0.034883720930224626,"midi":87,"time":162.62790697674419,"velocity":0.18110236220472442},{"duration":0.08139534883721922,"midi":88,"time":162.62790697674419,"velocity":0.2283464566929134},{"duration":0.05813953488370771,"midi":90,"time":162.62790697674419,"velocity":0.29133858267716534},{"duration":0.034883720930224626,"midi":95,"time":162.62790697674419,"velocity":0.1889763779527559},{"duration":0.034883720930224626,"midi":45,"time":162.63953488372093,"velocity":0.5748031496062992},{"duration":0.023255813953483084,"midi":60,"time":162.63953488372093,"velocity":0.3779527559055118},{"duration":0.034883720930224626,"midi":68,"time":162.65116279069767,"velocity":0.1968503937007874},{"duration":0.034883720930224626,"midi":83,"time":162.65116279069767,"velocity":0.14173228346456693},{"duration":0.04651162790699459,"midi":91,"time":162.65116279069767,"velocity":0.2047244094488189},{"duration":0.18604651162792152,"midi":61,"time":162.6627906976744,"velocity":0.3464566929133858},{"duration":0.1046511627907023,"midi":65,"time":162.6627906976744,"velocity":0.5039370078740157},{"duration":0.011627906976741542,"midi":44,"time":162.67441860465115,"velocity":0.5669291338582677},{"duration":0.12790697674418539,"midi":70,"time":162.67441860465115,"velocity":0.3543307086614173},{"duration":0.22093023255814614,"midi":84,"time":162.67441860465115,"velocity":0.4330708661417323},{"duration":0.011627906976769964,"midi":43,"time":162.6860465116279,"velocity":0.5511811023622047},{"duration":0.023255813953511506,"midi":51,"time":162.6860465116279,"velocity":0.25196850393700787},{"duration":0.011627906976741542,"midi":42,"time":162.69767441860466,"velocity":0.5196850393700787},{"duration":0.06976744186044925,"midi":80,"time":162.7093023255814,"velocity":0.2125984251968504},{"duration":0.023255813953483084,"midi":53,"time":162.72093023255815,"velocity":0.2283464566929134},{"duration":0.034883720930224626,"midi":68,"time":162.72093023255815,"velocity":0.28346456692913385},{"duration":0.05813953488370771,"midi":99,"time":162.72093023255815,"velocity":0.11811023622047244},{"duration":0.06976744186047767,"midi":55,"time":162.74418604651163,"velocity":0.2677165354330709},{"duration":0.023255813953483084,"midi":36,"time":162.75581395348837,"velocity":0.33070866141732286},{"duration":0.04651162790696617,"midi":90,"time":162.75581395348837,"velocity":0.15748031496062992},{"duration":0.023255813953483084,"midi":47,"time":162.7674418604651,"velocity":0.30708661417322836},{"duration":0.09302325581396076,"midi":65,"time":162.77906976744185,"velocity":0.5354330708661418},{"duration":0.04651162790699459,"midi":92,"time":162.77906976744185,"velocity":0.13385826771653545},{"duration":0.05813953488373613,"midi":48,"time":162.7906976744186,"velocity":0.29133858267716534},{"duration":0.04651162790699459,"midi":68,"time":162.7906976744186,"velocity":0.3228346456692913},{"duration":0.05813953488373613,"midi":87,"time":162.80232558139534,"velocity":0.11811023622047244},{"duration":0.0813953488371908,"midi":36,"time":162.82558139534885,"velocity":0.30708661417322836},{"duration":0.05813953488370771,"midi":55,"time":162.82558139534885,"velocity":0.25196850393700787},{"duration":0.034883720930224626,"midi":82,"time":162.8372093023256,"velocity":0.14173228346456693},{"duration":0.08139534883721922,"midi":83,"time":162.86046511627907,"velocity":0.4015748031496063},{"duration":0.023255813953483084,"midi":64,"time":162.87209302325581,"velocity":0.5196850393700787},{"duration":0.034883720930224626,"midi":102,"time":162.87209302325581,"velocity":0.11023622047244094},{"duration":0.2325581395348877,"midi":72,"time":162.88372093023256,"velocity":0.33070866141732286},{"duration":0.32558139534884845,"midi":75,"time":162.88372093023256,"velocity":0.4881889763779528},{"duration":0.08139534883721922,"midi":88,"time":162.88372093023256,"velocity":0.33858267716535434},{"duration":0.6744186046511516,"midi":99,"time":162.88372093023256,"velocity":0.2755905511811024},{"duration":0.18604651162792152,"midi":103,"time":162.88372093023256,"velocity":0.2125984251968504},{"duration":0.023255813953483084,"midi":69,"time":162.8953488372093,"velocity":0.29133858267716534},{"duration":0.034883720930224626,"midi":85,"time":162.8953488372093,"velocity":0.10236220472440945},{"duration":0.34883720930233153,"midi":91,"time":162.8953488372093,"velocity":0.33070866141732286},{"duration":0.05813953488373613,"midi":97,"time":162.8953488372093,"velocity":0.18110236220472442},{"duration":0.023255813953483084,"midi":45,"time":162.90697674418604,"velocity":0.31496062992125984},{"duration":0.04651162790699459,"midi":79,"time":162.90697674418604,"velocity":0.2125984251968504},{"duration":0.09302325581396076,"midi":82,"time":162.90697674418604,"velocity":0.4409448818897638},{"duration":0.5697674418604777,"midi":87,"time":162.90697674418604,"velocity":0.4881889763779528},{"duration":0.16279069767443843,"midi":92,"time":162.90697674418604,"velocity":0.23622047244094488},{"duration":0.023255813953511506,"midi":53,"time":162.91860465116278,"velocity":0.2440944881889764},{"duration":0.03488372093025305,"midi":65,"time":162.91860465116278,"velocity":0.3779527559055118},{"duration":0.06976744186047767,"midi":81,"time":162.91860465116278,"velocity":0.4566929133858268},{"duration":0.04651162790699459,"midi":84,"time":162.91860465116278,"velocity":0.3937007874015748},{"duration":0.12790697674418539,"midi":46,"time":162.93023255813952,"velocity":0.2677165354330709},{"duration":0.023255813953511506,"midi":60,"time":162.93023255813952,"velocity":0.28346456692913385},{"duration":0.04651162790696617,"midi":70,"time":162.9418604651163,"velocity":0.13385826771653545},{"duration":0.023255813953483084,"midi":80,"time":162.95348837209303,"velocity":0.2283464566929134},{"duration":0.0813953488371908,"midi":63,"time":162.96511627906978,"velocity":0.3543307086614173},{"duration":0.06976744186044925,"midi":34,"time":162.97674418604652,"velocity":0.28346456692913385},{"duration":0.12790697674418539,"midi":84,"time":162.97674418604652,"velocity":0.4094488188976378},{"duration":0.20930232558137618,"midi":97,"time":162.97674418604652,"velocity":0.1889763779527559},{"duration":0.1046511627907023,"midi":80,"time":162.98837209302326,"velocity":0.41732283464566927},{"duration":0.22093023255814614,"midi":101,"time":162.98837209302326,"velocity":0.2677165354330709},{"duration":0.023255813953483084,"midi":81,"time":163,"velocity":0.23622047244094488},{"duration":0.08139534883721922,"midi":82,"time":163.01162790697674,"velocity":0.3543307086614173},{"duration":0.034883720930224626,"midi":70,"time":163.02325581395348,"velocity":0.14960629921259844},{"duration":0.04651162790699459,"midi":65,"time":163.03488372093022,"velocity":0.2677165354330709},{"duration":0.12790697674418539,"midi":68,"time":163.03488372093022,"velocity":0.23622047244094488},{"duration":0.04651162790699459,"midi":90,"time":163.04651162790697,"velocity":0.11811023622047244},{"duration":0.023255813953483084,"midi":83,"time":163.08139534883722,"velocity":0.3228346456692913},{"duration":0.2674418604651123,"midi":63,"time":163.09302325581396,"velocity":0.36220472440944884},{"duration":0.04651162790696617,"midi":70,"time":163.09302325581396,"velocity":0.14173228346456693},{"duration":0.0813953488371908,"midi":81,"time":163.09302325581396,"velocity":0.3779527559055118},{"duration":0.034883720930224626,"midi":85,"time":163.09302325581396,"velocity":0.29133858267716534},{"duration":0.06976744186044925,"midi":92,"time":163.09302325581396,"velocity":0.1968503937007874},{"duration":0.034883720930224626,"midi":82,"time":163.1046511627907,"velocity":0.3858267716535433},{"duration":0.034883720930224626,"midi":88,"time":163.1046511627907,"velocity":0.16535433070866143},{"duration":0.04651162790696617,"midi":73,"time":163.11627906976744,"velocity":0.11023622047244094},{"duration":0.16279069767441,"midi":84,"time":163.12790697674419,"velocity":0.2677165354330709},{"duration":0.05813953488373613,"midi":78,"time":163.15116279069767,"velocity":0.16535433070866143},{"duration":0.08139534883721922,"midi":82,"time":163.15116279069767,"velocity":0.2440944881889764},{"duration":0.034883720930224626,"midi":89,"time":163.15116279069767,"velocity":0.1732283464566929},{"duration":0.08139534883721922,"midi":95,"time":163.15116279069767,"velocity":0.1889763779527559},{"duration":0.04651162790699459,"midi":102,"time":163.15116279069767,"velocity":0.14173228346456693},{"duration":0.03488372093025305,"midi":80,"time":163.1627906976744,"velocity":0.2440944881889764},{"duration":0.023255813953511506,"midi":88,"time":163.17441860465115,"velocity":0.33070866141732286},{"duration":0.011627906976769964,"midi":46,"time":163.1860465116279,"velocity":0.5511811023622047},{"duration":0.48837209302325846,"midi":68,"time":163.1860465116279,"velocity":0.2677165354330709},{"duration":0.011627906976741542,"midi":45,"time":163.19767441860466,"velocity":0.5826771653543307},{"duration":0.06976744186044925,"midi":81,"time":163.19767441860466,"velocity":0.2677165354330709},{"duration":0.011627906976741542,"midi":43,"time":163.2093023255814,"velocity":0.5748031496062992},{"duration":0.034883720930224626,"midi":76,"time":163.2093023255814,"velocity":0.33070866141732286},{"duration":0.023255813953483084,"midi":42,"time":163.22093023255815,"velocity":0.5511811023622047},{"duration":0.023255813953483084,"midi":51,"time":163.22093023255815,"velocity":0.2440944881889764},{"duration":0.22093023255814614,"midi":72,"time":163.22093023255815,"velocity":0.36220472440944884},{"duration":0.12790697674418539,"midi":94,"time":163.2325581395349,"velocity":0.13385826771653545},{"duration":0.034883720930224626,"midi":101,"time":163.2325581395349,"velocity":0.16535433070866143},{"duration":0.04651162790696617,"midi":60,"time":163.24418604651163,"velocity":0.14173228346456693},{"duration":0.17441860465115155,"midi":75,"time":163.24418604651163,"velocity":0.49606299212598426},{"duration":0.023255813953483084,"midi":38,"time":163.25581395348837,"velocity":0.3858267716535433},{"duration":0.06976744186047767,"midi":51,"time":163.25581395348837,"velocity":0.18110236220472442},{"duration":0.09302325581396076,"midi":82,"time":163.25581395348837,"velocity":0.3700787401574803},{"duration":0.023255813953511506,"midi":35,"time":163.2906976744186,"velocity":0.3700787401574803},{"duration":0.03488372093025305,"midi":79,"time":163.2906976744186,"velocity":0.13385826771653545},{"duration":0.05813953488373613,"midi":101,"time":163.2906976744186,"velocity":0.10236220472440945},{"duration":0.034883720930224626,"midi":33,"time":163.32558139534885,"velocity":0.14173228346456693},{"duration":0.034883720930224626,"midi":44,"time":163.32558139534885,"velocity":0.07086614173228346},{"duration":0.034883720930224626,"midi":77,"time":163.3372093023256,"velocity":0.12598425196850394},{"duration":0.034883720930224626,"midi":79,"time":163.3372093023256,"velocity":0.14960629921259844},{"duration":0.09302325581396076,"midi":81,"time":163.34883720930233,"velocity":0.2440944881889764},{"duration":0.034883720930224626,"midi":65,"time":163.36046511627907,"velocity":0.16535433070866143},{"duration":0.03488372093025305,"midi":57,"time":163.40697674418604,"velocity":0.13385826771653545},{"duration":0.03488372093025305,"midi":79,"time":163.40697674418604,"velocity":0.14960629921259844},{"duration":0.04651162790699459,"midi":86,"time":163.41860465116278,"velocity":0.2047244094488189},{"duration":0.04651162790699459,"midi":89,"time":163.41860465116278,"velocity":0.2047244094488189},{"duration":0.1511627906976969,"midi":51,"time":163.43023255813952,"velocity":0.2755905511811024},{"duration":0.05813953488373613,"midi":66,"time":163.43023255813952,"velocity":0.15748031496062992},{"duration":0.30232558139536536,"midi":75,"time":163.43023255813952,"velocity":0.3858267716535433},{"duration":0.03488372093025305,"midi":77,"time":163.43023255813952,"velocity":0.1968503937007874},{"duration":0.05813953488373613,"midi":78,"time":163.43023255813952,"velocity":0.16535433070866143},{"duration":0.034883720930224626,"midi":82,"time":163.4418604651163,"velocity":0.1968503937007874},{"duration":0.05813953488370771,"midi":70,"time":163.45348837209303,"velocity":0.14173228346456693},{"duration":0.0813953488371908,"midi":81,"time":163.45348837209303,"velocity":0.2755905511811024},{"duration":0.13953488372092693,"midi":44,"time":163.46511627906978,"velocity":0.33070866141732286},{"duration":0.09302325581393234,"midi":72,"time":163.46511627906978,"velocity":0.2677165354330709},{"duration":0.023255813953483084,"midi":35,"time":163.47674418604652,"velocity":0.25196850393700787},{"duration":0.023255813953483084,"midi":33,"time":163.5,"velocity":0.25984251968503935},{"duration":0.034883720930224626,"midi":97,"time":163.51162790697674,"velocity":0.11023622047244094},{"duration":0.08139534883721922,"midi":32,"time":163.52325581395348,"velocity":0.2677165354330709},{"duration":0.034883720930224626,"midi":82,"time":163.56976744186048,"velocity":0.12598425196850394},{"duration":0.11627906976744384,"midi":79,"time":163.58139534883722,"velocity":0.1732283464566929},{"duration":0.06976744186044925,"midi":84,"time":163.58139534883722,"velocity":0.1732283464566929},{"duration":0.06976744186044925,"midi":81,"time":163.6046511627907,"velocity":0.1968503937007874},{"duration":0.04651162790696617,"midi":82,"time":163.61627906976744,"velocity":0.13385826771653545},{"duration":0.05813953488373613,"midi":72,"time":163.63953488372093,"velocity":0.2283464566929134},{"duration":0.034883720930224626,"midi":63,"time":163.65116279069767,"velocity":0.33070866141732286},{"duration":0.023255813953483084,"midi":54,"time":163.6627906976744,"velocity":0.25984251968503935},{"duration":0.03488372093025305,"midi":60,"time":163.67441860465115,"velocity":0.4094488188976378},{"duration":0.04651162790699459,"midi":91,"time":163.67441860465115,"velocity":0.30708661417322836},{"duration":0.03488372093025305,"midi":100,"time":163.67441860465115,"velocity":0.12598425196850394},{"duration":0.023255813953511506,"midi":55,"time":163.6860465116279,"velocity":0.5039370078740157},{"duration":0.08139534883721922,"midi":89,"time":163.6860465116279,"velocity":0.2283464566929134},{"duration":0.1279069767442138,"midi":90,"time":163.6860465116279,"velocity":0.33858267716535434},{"duration":0.04651162790699459,"midi":93,"time":163.6860465116279,"velocity":0.08661417322834646},{"duration":0.08139534883721922,"midi":94,"time":163.6860465116279,"velocity":0.2677165354330709},{"duration":0.04651162790699459,"midi":96,"time":163.6860465116279,"velocity":0.1889763779527559},{"duration":0.08139534883721922,"midi":97,"time":163.6860465116279,"velocity":0.23622047244094488},{"duration":0.17441860465117998,"midi":98,"time":163.6860465116279,"velocity":0.25196850393700787},{"duration":0.034883720930224626,"midi":45,"time":163.69767441860466,"velocity":0.5905511811023622},{"duration":0.05813953488370771,"midi":88,"time":163.69767441860466,"velocity":0.23622047244094488},{"duration":0.0813953488371908,"midi":95,"time":163.69767441860466,"velocity":0.1732283464566929},{"duration":0.06976744186044925,"midi":56,"time":163.7093023255814,"velocity":0.4015748031496063},{"duration":0.04651162790696617,"midi":81,"time":163.7093023255814,"velocity":0.18110236220472442},{"duration":0.04651162790696617,"midi":83,"time":163.7093023255814,"velocity":0.15748031496062992},{"duration":0.11627906976744384,"midi":72,"time":163.72093023255815,"velocity":0.25984251968503935},{"duration":0.034883720930224626,"midi":103,"time":163.72093023255815,"velocity":0.07086614173228346},{"duration":0.011627906976741542,"midi":44,"time":163.7325581395349,"velocity":0.5905511811023622},{"duration":0.034883720930224626,"midi":51,"time":163.7325581395349,"velocity":0.28346456692913385},{"duration":0.034883720930224626,"midi":76,"time":163.7325581395349,"velocity":0.31496062992125984},{"duration":0.011627906976741542,"midi":43,"time":163.74418604651163,"velocity":0.5669291338582677},{"duration":0.08139534883721922,"midi":87,"time":163.74418604651163,"velocity":0.2204724409448819},{"duration":0.011627906976741542,"midi":42,"time":163.75581395348837,"velocity":0.5275590551181102},{"duration":0.034883720930224626,"midi":85,"time":163.75581395348837,"velocity":0.13385826771653545},{"duration":0.25581395348837077,"midi":75,"time":163.7674418604651,"velocity":0.33858267716535434},{"duration":0.04651162790699459,"midi":86,"time":163.7674418604651,"velocity":0.10236220472440945},{"duration":0.04651162790699459,"midi":63,"time":163.77906976744185,"velocity":0.15748031496062992},{"duration":0.09302325581396076,"midi":92,"time":163.77906976744185,"velocity":0.18110236220472442},{"duration":0.03488372093025305,"midi":81,"time":163.7906976744186,"velocity":0.28346456692913385},{"duration":0.023255813953511506,"midi":37,"time":163.80232558139534,"velocity":0.3937007874015748},{"duration":0.023255813953511506,"midi":56,"time":163.80232558139534,"velocity":0.28346456692913385},{"duration":0.04651162790699459,"midi":70,"time":163.80232558139534,"velocity":0.3858267716535433},{"duration":0.03488372093025305,"midi":85,"time":163.80232558139534,"velocity":0.23622047244094488},{"duration":0.034883720930224626,"midi":77,"time":163.8139534883721,"velocity":0.25984251968503935},{"duration":0.023255813953483084,"midi":36,"time":163.82558139534885,"velocity":0.29133858267716534},{"duration":0.034883720930224626,"midi":57,"time":163.82558139534885,"velocity":0.36220472440944884},{"duration":0.023255813953483084,"midi":83,"time":163.82558139534885,"velocity":0.33858267716535434},{"duration":0.10465116279067388,"midi":86,"time":163.82558139534885,"velocity":0.25196850393700787},{"duration":0.06976744186044925,"midi":96,"time":163.8372093023256,"velocity":0.2677165354330709},{"duration":0.023255813953483084,"midi":71,"time":163.84883720930233,"velocity":0.25984251968503935},{"duration":0.023255813953483084,"midi":56,"time":163.86046511627907,"velocity":0.25984251968503935},{"duration":0.04651162790696617,"midi":77,"time":163.86046511627907,"velocity":0.1889763779527559},{"duration":0.1860465116278931,"midi":68,"time":163.87209302325581,"velocity":0.3858267716535433},{"duration":0.09302325581396076,"midi":72,"time":163.87209302325581,"velocity":0.3543307086614173},{"duration":0.034883720930224626,"midi":57,"time":163.88372093023256,"velocity":0.3543307086614173},{"duration":0.18604651162792152,"midi":63,"time":163.8953488372093,"velocity":0.2283464566929134},{"duration":0.05813953488373613,"midi":90,"time":163.91860465116278,"velocity":0.14173228346456693},{"duration":0.03488372093025305,"midi":98,"time":163.93023255813952,"velocity":0.10236220472440945},{"duration":0.04651162790696617,"midi":79,"time":163.9418604651163,"velocity":0.2204724409448819},{"duration":0.06976744186044925,"midi":81,"time":163.9418604651163,"velocity":0.15748031496062992},{"duration":0.10465116279067388,"midi":84,"time":163.9418604651163,"velocity":0.41732283464566927},{"duration":0.09302325581393234,"midi":97,"time":163.9418604651163,"velocity":0.1889763779527559},{"duration":0.023255813953483084,"midi":73,"time":163.95348837209303,"velocity":0.3543307086614173},{"duration":0.04651162790696617,"midi":88,"time":163.95348837209303,"velocity":0.2204724409448819},{"duration":0.034883720930224626,"midi":94,"time":163.95348837209303,"velocity":0.12598425196850394},{"duration":0.19767441860463464,"midi":102,"time":163.95348837209303,"velocity":0.25984251968503935},{"duration":0.023255813953483084,"midi":52,"time":163.96511627906978,"velocity":0.2440944881889764},{"duration":0.0813953488371908,"midi":72,"time":163.97674418604652,"velocity":0.5196850393700787},{"duration":0.023255813953483084,"midi":38,"time":163.98837209302326,"velocity":0.31496062992125984},{"duration":0.034883720930224626,"midi":76,"time":163.98837209302326,"velocity":0.11023622047244094},{"duration":0.05813953488370771,"midi":101,"time":163.98837209302326,"velocity":0.08661417322834646},{"duration":0.023255813953483084,"midi":57,"time":164.01162790697674,"velocity":0.25984251968503935},{"duration":0.05813953488373613,"midi":86,"time":164.01162790697674,"velocity":0.1968503937007874},{"duration":0.13953488372092693,"midi":70,"time":164.02325581395348,"velocity":0.44881889763779526},{"duration":0.09302325581396076,"midi":77,"time":164.02325581395348,"velocity":0.2992125984251969},{"duration":0.034883720930224626,"midi":83,"time":164.02325581395348,"velocity":0.18110236220472442},{"duration":0.16279069767441,"midi":99,"time":164.02325581395348,"velocity":0.3228346456692913},{"duration":0.03488372093025305,"midi":46,"time":164.03488372093022,"velocity":0.2755905511811024},{"duration":0.05813953488373613,"midi":58,"time":164.03488372093022,"velocity":0.3543307086614173},{"duration":0.05813953488373613,"midi":81,"time":164.03488372093022,"velocity":0.25196850393700787},{"duration":0.03488372093025305,"midi":92,"time":164.03488372093022,"velocity":0.11023622047244094},{"duration":0.03488372093025305,"midi":75,"time":164.04651162790697,"velocity":0.2440944881889764},{"duration":0.023255813953511506,"midi":39,"time":164.0581395348837,"velocity":0.25984251968503935},{"duration":0.034883720930224626,"midi":85,"time":164.06976744186048,"velocity":0.28346456692913385},{"duration":0.034883720930224626,"midi":88,"time":164.06976744186048,"velocity":0.25196850393700787},{"duration":0.04651162790696617,"midi":60,"time":164.08139534883722,"velocity":0.25196850393700787},{"duration":0.04651162790696617,"midi":87,"time":164.08139534883722,"velocity":0.12598425196850394},{"duration":0.04651162790696617,"midi":74,"time":164.09302325581396,"velocity":0.2047244094488189},{"duration":0.034883720930224626,"midi":56,"time":164.1046511627907,"velocity":0.3543307086614173},{"duration":0.034883720930224626,"midi":66,"time":164.1046511627907,"velocity":0.14960629921259844},{"duration":0.06976744186044925,"midi":86,"time":164.1046511627907,"velocity":0.23622047244094488},{"duration":0.05813953488370771,"midi":75,"time":164.11627906976744,"velocity":0.2204724409448819},{"duration":0.034883720930224626,"midi":85,"time":164.11627906976744,"velocity":0.13385826771653545},{"duration":0.12790697674418539,"midi":98,"time":164.11627906976744,"velocity":0.2755905511811024},{"duration":0.05813953488373613,"midi":51,"time":164.13953488372093,"velocity":0.25196850393700787},{"duration":0.04651162790696617,"midi":77,"time":164.13953488372093,"velocity":0.1732283464566929},{"duration":0.05813953488373613,"midi":44,"time":164.15116279069767,"velocity":0.28346456692913385},{"duration":0.023255813953483084,"midi":58,"time":164.15116279069767,"velocity":0.44881889763779526},{"duration":0.1046511627907023,"midi":68,"time":164.1627906976744,"velocity":0.2204724409448819},{"duration":0.023255813953483084,"midi":73,"time":164.1627906976744,"velocity":0.25984251968503935},{"duration":0.08139534883721922,"midi":102,"time":164.1627906976744,"velocity":0.23622047244094488},{"duration":0.05813953488373613,"midi":92,"time":164.17441860465115,"velocity":0.13385826771653545},{"duration":0.03488372093025305,"midi":32,"time":164.1860465116279,"velocity":0.2992125984251969},{"duration":0.023255813953511506,"midi":72,"time":164.1860465116279,"velocity":0.2677165354330709},{"duration":0.2790697674418823,"midi":103,"time":164.1860465116279,"velocity":0.36220472440944884},{"duration":0.10465116279067388,"midi":91,"time":164.19767441860466,"velocity":0.3700787401574803},{"duration":0.5930232558139323,"midi":99,"time":164.19767441860466,"velocity":0.4251968503937008},{"duration":0.023255813953483084,"midi":51,"time":164.2093023255814,"velocity":0.3228346456692913},{"duration":0.09302325581393234,"midi":73,"time":164.2093023255814,"velocity":0.23622047244094488},{"duration":0.20930232558137618,"midi":94,"time":164.2093023255814,"velocity":0.25984251968503935},{"duration":0.04651162790696617,"midi":96,"time":164.2093023255814,"velocity":0.1968503937007874},{"duration":0.19767441860463464,"midi":101,"time":164.2093023255814,"velocity":0.14173228346456693},{"duration":0.0813953488371908,"midi":63,"time":164.22093023255815,"velocity":0.4409448818897638},{"duration":0.19767441860463464,"midi":75,"time":164.22093023255815,"velocity":0.5039370078740157},{"duration":0.05813953488370771,"midi":78,"time":164.22093023255815,"velocity":0.1732283464566929},{"duration":0.011627906976741542,"midi":46,"time":164.24418604651163,"velocity":0.5669291338582677},{"duration":0.06976744186047767,"midi":81,"time":164.24418604651163,"velocity":0.44881889763779526},{"duration":0.011627906976741542,"midi":45,"time":164.25581395348837,"velocity":0.6141732283464567},{"duration":0.023255813953483084,"midi":53,"time":164.25581395348837,"velocity":0.2677165354330709},{"duration":0.011627906976741542,"midi":43,"time":164.2674418604651,"velocity":0.5905511811023622},{"duration":0.08139534883721922,"midi":70,"time":164.2674418604651,"velocity":0.23622047244094488},{"duration":0.11627906976744384,"midi":84,"time":164.2674418604651,"velocity":0.3464566929133858},{"duration":0.17441860465117998,"midi":97,"time":164.2674418604651,"velocity":0.2677165354330709},{"duration":0.011627906976741542,"midi":42,"time":164.27906976744185,"velocity":0.5590551181102362},{"duration":0.04651162790699459,"midi":100,"time":164.27906976744185,"velocity":0.10236220472440945},{"duration":0.011627906976741542,"midi":41,"time":164.2906976744186,"velocity":0.5196850393700787},{"duration":0.05813953488373613,"midi":56,"time":164.2906976744186,"velocity":0.25984251968503935},{"duration":0.08139534883721922,"midi":72,"time":164.30232558139534,"velocity":0.2047244094488189},{"duration":0.023255813953483084,"midi":80,"time":164.3139534883721,"velocity":0.3700787401574803},{"duration":0.3953488372092977,"midi":91,"time":164.3139534883721,"velocity":0.49606299212598426},{"duration":0.13953488372092693,"midi":79,"time":164.32558139534885,"velocity":0.14960629921259844},{"duration":0.09302325581393234,"midi":77,"time":164.3372093023256,"velocity":0.14173228346456693},{"duration":0.11627906976744384,"midi":81,"time":164.3372093023256,"velocity":0.28346456692913385},{"duration":0.06976744186044925,"midi":88,"time":164.3372093023256,"velocity":0.10236220472440945},{"duration":0.06976744186044925,"midi":53,"time":164.34883720930233,"velocity":0.1889763779527559},{"duration":0.19767441860466306,"midi":63,"time":164.3953488372093,"velocity":0.33858267716535434},{"duration":0.2325581395348877,"midi":68,"time":164.3953488372093,"velocity":0.2755905511811024},{"duration":0.25581395348837077,"midi":72,"time":164.3953488372093,"velocity":0.2755905511811024},{"duration":0.3139534883721069,"midi":53,"time":164.43023255813952,"velocity":0.3228346456692913},{"duration":0.03488372093025305,"midi":75,"time":164.43023255813952,"velocity":0.3464566929133858},{"duration":0.06976744186047767,"midi":82,"time":164.43023255813952,"velocity":0.2283464566929134},{"duration":0.22093023255811772,"midi":80,"time":164.4418604651163,"velocity":0.28346456692913385},{"duration":0.034883720930224626,"midi":76,"time":164.45348837209303,"velocity":0.23622047244094488},{"duration":0.04651162790696617,"midi":86,"time":164.47674418604652,"velocity":0.1732283464566929},{"duration":0.04651162790696617,"midi":78,"time":164.48837209302326,"velocity":0.1732283464566929},{"duration":0.08139534883721922,"midi":84,"time":164.48837209302326,"velocity":0.2755905511811024},{"duration":0.023255813953483084,"midi":41,"time":164.5,"velocity":0.30708661417322836},{"duration":0.023255813953483084,"midi":48,"time":164.51162790697674,"velocity":0.25984251968503935},{"duration":0.023255813953483084,"midi":40,"time":164.52325581395348,"velocity":0.3464566929133858},{"duration":0.034883720930224626,"midi":82,"time":164.52325581395348,"velocity":0.18110236220472442},{"duration":0.04651162790699459,"midi":48,"time":164.54651162790697,"velocity":0.2204724409448819},{"duration":0.16279069767443843,"midi":97,"time":164.5581395348837,"velocity":0.30708661417322836},{"duration":0.0813953488371908,"midi":100,"time":164.58139534883722,"velocity":0.1889763779527559},{"duration":0.034883720930224626,"midi":30,"time":164.59302325581396,"velocity":0.2047244094488189},{"duration":0.3604651162790731,"midi":102,"time":164.59302325581396,"velocity":0.41732283464566927},{"duration":0.034883720930224626,"midi":57,"time":164.6046511627907,"velocity":0.18110236220472442},{"duration":0.05813953488370771,"midi":64,"time":164.6046511627907,"velocity":0.3858267716535433},{"duration":0.034883720930224626,"midi":98,"time":164.6046511627907,"velocity":0.2204724409448819},{"duration":0.034883720930224626,"midi":85,"time":164.61627906976744,"velocity":0.09448818897637795},{"duration":0.034883720930224626,"midi":86,"time":164.61627906976744,"velocity":0.12598425196850394},{"duration":0.04651162790696617,"midi":88,"time":164.61627906976744,"velocity":0.08661417322834646},{"duration":0.04651162790696617,"midi":92,"time":164.61627906976744,"velocity":0.31496062992125984},{"duration":0.11627906976744384,"midi":94,"time":164.61627906976744,"velocity":0.2755905511811024},{"duration":0.034883720930224626,"midi":101,"time":164.61627906976744,"velocity":0.07086614173228346},{"duration":0.04651162790696617,"midi":69,"time":164.62790697674419,"velocity":0.3858267716535433},{"duration":0.023255813953483084,"midi":40,"time":164.65116279069767,"velocity":0.2992125984251969},{"duration":0.08139534883721922,"midi":79,"time":164.65116279069767,"velocity":0.15748031496062992},{"duration":0.04651162790699459,"midi":60,"time":164.6627906976744,"velocity":0.25196850393700787},{"duration":0.05813953488373613,"midi":71,"time":164.6627906976744,"velocity":0.3464566929133858},{"duration":0.13953488372092693,"midi":84,"time":164.6627906976744,"velocity":0.2125984251968504},{"duration":0.03488372093025305,"midi":64,"time":164.67441860465115,"velocity":0.31496062992125984},{"duration":0.16279069767443843,"midi":68,"time":164.67441860465115,"velocity":0.3700787401574803},{"duration":0.03488372093025305,"midi":73,"time":164.6860465116279,"velocity":0.3464566929133858},{"duration":0.05813953488370771,"midi":96,"time":164.69767441860466,"velocity":0.4094488188976378},{"duration":0.034883720930224626,"midi":63,"time":164.7093023255814,"velocity":0.3700787401574803},{"duration":0.11627906976744384,"midi":90,"time":164.7093023255814,"velocity":0.3858267716535433},{"duration":0.04651162790696617,"midi":30,"time":164.72093023255815,"velocity":0.1889763779527559},{"duration":0.023255813953483084,"midi":56,"time":164.72093023255815,"velocity":0.23622047244094488},{"duration":0.023255813953483084,"midi":72,"time":164.72093023255815,"velocity":0.3700787401574803},{"duration":0.2674418604651123,"midi":91,"time":164.72093023255815,"velocity":0.36220472440944884},{"duration":0.04651162790696617,"midi":77,"time":164.7325581395349,"velocity":0.11023622047244094},{"duration":0.034883720930224626,"midi":86,"time":164.7325581395349,"velocity":0.1732283464566929},{"duration":0.09302325581396076,"midi":101,"time":164.7325581395349,"velocity":0.2047244094488189},{"duration":0.023255813953483084,"midi":73,"time":164.74418604651163,"velocity":0.3464566929133858},{"duration":0.06976744186047767,"midi":88,"time":164.74418604651163,"velocity":0.25984251968503935},{"duration":0.08139534883721922,"midi":94,"time":164.74418604651163,"velocity":0.2204724409448819},{"duration":0.15116279069766847,"midi":97,"time":164.74418604651163,"velocity":0.29133858267716534},{"duration":0.12790697674418539,"midi":103,"time":164.74418604651163,"velocity":0.3779527559055118},{"duration":0.09302325581396076,"midi":60,"time":164.75581395348837,"velocity":0.36220472440944884},{"duration":0.034883720930224626,"midi":79,"time":164.75581395348837,"velocity":0.2125984251968504},{"duration":0.08139534883721922,"midi":83,"time":164.75581395348837,"velocity":0.2677165354330709},{"duration":0.06976744186047767,"midi":89,"time":164.75581395348837,"velocity":0.2440944881889764},{"duration":0.023255813953483084,"midi":45,"time":164.7674418604651,"velocity":0.5905511811023622},{"duration":0.24418604651162923,"midi":72,"time":164.7674418604651,"velocity":0.4330708661417323},{"duration":0.034883720930224626,"midi":81,"time":164.7674418604651,"velocity":0.1968503937007874},{"duration":0.06976744186047767,"midi":85,"time":164.7674418604651,"velocity":0.18110236220472442},{"duration":0.24418604651162923,"midi":87,"time":164.7674418604651,"velocity":0.33070866141732286},{"duration":0.06976744186047767,"midi":64,"time":164.77906976744185,"velocity":0.3937007874015748},{"duration":0.011627906976741542,"midi":44,"time":164.7906976744186,"velocity":0.5826771653543307},{"duration":0.011627906976769964,"midi":43,"time":164.80232558139534,"velocity":0.5511811023622047},{"duration":0.011627906976741542,"midi":42,"time":164.8139534883721,"velocity":0.5118110236220472},{"duration":0.023255813953483084,"midi":52,"time":164.8139534883721,"velocity":0.2677165354330709},{"duration":0.1860465116278931,"midi":75,"time":164.82558139534885,"velocity":0.3228346456692913},{"duration":0.023255813953483084,"midi":53,"time":164.8372093023256,"velocity":0.2283464566929134},{"duration":0.05813953488370771,"midi":82,"time":164.8372093023256,"velocity":0.2047244094488189},{"duration":0.04651162790696617,"midi":63,"time":164.84883720930233,"velocity":0.33858267716535434},{"duration":0.023255813953483084,"midi":66,"time":164.87209302325581,"velocity":0.2677165354330709},{"duration":0.034883720930224626,"midi":76,"time":164.87209302325581,"velocity":0.11811023622047244},{"duration":0.034883720930224626,"midi":93,"time":164.87209302325581,"velocity":0.16535433070866143},{"duration":0.04651162790696617,"midi":81,"time":164.88372093023256,"velocity":0.18110236220472442},{"duration":0.034883720930224626,"midi":85,"time":164.88372093023256,"velocity":0.14960629921259844},{"duration":0.13953488372092693,"midi":90,"time":164.88372093023256,"velocity":0.2440944881889764},{"duration":0.09302325581396076,"midi":48,"time":164.8953488372093,"velocity":0.2992125984251969},{"duration":0.04651162790699459,"midi":65,"time":164.8953488372093,"velocity":0.3779527559055118},{"duration":0.09302325581396076,"midi":79,"time":164.8953488372093,"velocity":0.14960629921259844},{"duration":0.023255813953483084,"midi":55,"time":164.90697674418604,"velocity":0.2677165354330709},{"duration":0.05813953488373613,"midi":97,"time":164.90697674418604,"velocity":0.30708661417322836},{"duration":0.06976744186047767,"midi":63,"time":164.93023255813952,"velocity":0.4409448818897638},{"duration":0.09302325581396076,"midi":68,"time":164.93023255813952,"velocity":0.2755905511811024},{"duration":0.04651162790696617,"midi":36,"time":164.9418604651163,"velocity":0.29133858267716534},{"duration":0.023255813953483084,"midi":56,"time":164.96511627906978,"velocity":0.30708661417322836},{"duration":0.034883720930224626,"midi":77,"time":164.97674418604652,"velocity":0.10236220472440945},{"duration":0.3604651162790731,"midi":99,"time":164.97674418604652,"velocity":0.3700787401574803},{"duration":0.06976744186044925,"midi":102,"time":164.97674418604652,"velocity":0.2677165354330709},{"duration":0.33720930232559,"midi":92,"time":164.98837209302326,"velocity":0.36220472440944884},{"duration":0.3139534883720785,"midi":97,"time":164.98837209302326,"velocity":0.2755905511811024},{"duration":0.2674418604651123,"midi":101,"time":164.98837209302326,"velocity":0.33070866141732286},{"duration":0.023255813953483084,"midi":58,"time":165,"velocity":0.30708661417322836},{"duration":0.13953488372092693,"midi":85,"time":165,"velocity":0.33858267716535434},{"duration":0.034883720930224626,"midi":88,"time":165,"velocity":0.1732283464566929},{"duration":0.15116279069766847,"midi":89,"time":165,"velocity":0.3937007874015748},{"duration":0.2093023255814046,"midi":95,"time":165,"velocity":0.30708661417322836},{"duration":0.15116279069766847,"midi":61,"time":165.01162790697674,"velocity":0.4330708661417323},{"duration":0.023255813953483084,"midi":74,"time":165.01162790697674,"velocity":0.48031496062992124},{"duration":0.034883720930224626,"midi":83,"time":165.01162790697674,"velocity":0.1968503937007874},{"duration":0.034883720930224626,"midi":91,"time":165.01162790697674,"velocity":0.2047244094488189},{"duration":0.13953488372092693,"midi":53,"time":165.02325581395348,"velocity":0.33070866141732286},{"duration":0.1046511627907023,"midi":65,"time":165.02325581395348,"velocity":0.3464566929133858},{"duration":0.04651162790699459,"midi":70,"time":165.02325581395348,"velocity":0.2755905511811024},{"duration":0.023255813953483084,"midi":75,"time":165.02325581395348,"velocity":0.3228346456692913},{"duration":0.04651162790699459,"midi":78,"time":165.02325581395348,"velocity":0.2283464566929134},{"duration":0.034883720930224626,"midi":93,"time":165.02325581395348,"velocity":0.1889763779527559},{"duration":0.18604651162792152,"midi":96,"time":165.02325581395348,"velocity":0.2677165354330709},{"duration":0.023255813953483084,"midi":45,"time":165.03488372093022,"velocity":0.2992125984251969},{"duration":0.15116279069766847,"midi":73,"time":165.03488372093022,"velocity":0.5118110236220472},{"duration":0.2325581395348877,"midi":80,"time":165.03488372093022,"velocity":0.4330708661417323},{"duration":0.12790697674418539,"midi":82,"time":165.03488372093022,"velocity":0.36220472440944884},{"duration":0.04651162790699459,"midi":68,"time":165.04651162790697,"velocity":0.1732283464566929},{"duration":0.08139534883721922,"midi":46,"time":165.0581395348837,"velocity":0.23622047244094488},{"duration":0.13953488372095535,"midi":102,"time":165.0581395348837,"velocity":0.3700787401574803},{"duration":0.034883720930224626,"midi":84,"time":165.06976744186048,"velocity":0.28346456692913385},{"duration":0.06976744186044925,"midi":86,"time":165.06976744186048,"velocity":0.09448818897637795},{"duration":0.04651162790696617,"midi":34,"time":165.09302325581396,"velocity":0.29133858267716534},{"duration":0.04651162790696617,"midi":83,"time":165.09302325581396,"velocity":0.30708661417322836},{"duration":0.19767441860463464,"midi":93,"time":165.09302325581396,"velocity":0.23622047244094488},{"duration":0.1046511627907023,"midi":70,"time":165.1046511627907,"velocity":0.2440944881889764},{"duration":0.05813953488373613,"midi":75,"time":165.13953488372093,"velocity":0.15748031496062992},{"duration":0.034883720930224626,"midi":81,"time":165.13953488372093,"velocity":0.2440944881889764},{"duration":0.04651162790696617,"midi":84,"time":165.13953488372093,"velocity":0.29133858267716534},{"duration":0.08139534883721922,"midi":100,"time":165.13953488372093,"velocity":0.13385826771653545},{"duration":0.023255813953483084,"midi":58,"time":165.15116279069767,"velocity":0.2992125984251969},{"duration":0.034883720930224626,"midi":98,"time":165.15116279069767,"velocity":0.11023622047244094},{"duration":0.12790697674418539,"midi":89,"time":165.1627906976744,"velocity":0.33858267716535434},{"duration":0.023255813953511506,"midi":72,"time":165.17441860465115,"velocity":0.3228346456692913},{"duration":0.06976744186047767,"midi":83,"time":165.1860465116279,"velocity":0.2125984251968504},{"duration":0.034883720930224626,"midi":58,"time":165.19767441860466,"velocity":0.23622047244094488},{"duration":0.034883720930224626,"midi":63,"time":165.19767441860466,"velocity":0.2047244094488189},{"duration":0.06976744186044925,"midi":73,"time":165.19767441860466,"velocity":0.3858267716535433},{"duration":0.034883720930224626,"midi":103,"time":165.19767441860466,"velocity":0.4094488188976378},{"duration":0.0813953488371908,"midi":77,"time":165.2093023255814,"velocity":0.2992125984251969},{"duration":0.1046511627907023,"midi":94,"time":165.2093023255814,"velocity":0.2283464566929134},{"duration":0.05813953488370771,"midi":68,"time":165.22093023255815,"velocity":0.15748031496062992},{"duration":0.0813953488371908,"midi":95,"time":165.22093023255815,"velocity":0.2204724409448819},{"duration":0.06976744186044925,"midi":61,"time":165.2325581395349,"velocity":0.2992125984251969},{"duration":0.5697674418604493,"midi":65,"time":165.2325581395349,"velocity":0.36220472440944884},{"duration":0.09302325581396076,"midi":82,"time":165.2325581395349,"velocity":0.2283464566929134},{"duration":0.22093023255814614,"midi":102,"time":165.2325581395349,"velocity":0.36220472440944884},{"duration":0.023255813953483084,"midi":58,"time":165.25581395348837,"velocity":0.28346456692913385},{"duration":0.023255813953483084,"midi":72,"time":165.25581395348837,"velocity":0.36220472440944884},{"duration":0.11627906976744384,"midi":81,"time":165.25581395348837,"velocity":0.1968503937007874},{"duration":0.15116279069766847,"midi":84,"time":165.25581395348837,"velocity":0.4015748031496063},{"duration":0.13953488372092693,"midi":91,"time":165.25581395348837,"velocity":0.3228346456692913},{"duration":0.22093023255814614,"midi":100,"time":165.25581395348837,"velocity":0.33070866141732286},{"duration":0.023255813953483084,"midi":54,"time":165.2674418604651,"velocity":0.31496062992125984},{"duration":0.1046511627907023,"midi":79,"time":165.2674418604651,"velocity":0.30708661417322836},{"duration":0.034883720930224626,"midi":86,"time":165.2674418604651,"velocity":0.08661417322834646},{"duration":0.1046511627907023,"midi":98,"time":165.2674418604651,"velocity":0.11023622047244094},{"duration":0.04651162790699459,"midi":73,"time":165.27906976744185,"velocity":0.33858267716535434},{"duration":0.04651162790699459,"midi":76,"time":165.27906976744185,"velocity":0.16535433070866143},{"duration":0.011627906976769964,"midi":45,"time":165.30232558139534,"velocity":0.5905511811023622},{"duration":0.03488372093025305,"midi":60,"time":165.30232558139534,"velocity":0.29133858267716534},{"duration":0.011627906976741542,"midi":44,"time":165.3139534883721,"velocity":0.6062992125984252},{"duration":0.05813953488370771,"midi":89,"time":165.3139534883721,"velocity":0.2440944881889764},{"duration":0.011627906976741542,"midi":43,"time":165.32558139534885,"velocity":0.5826771653543307},{"duration":0.05813953488370771,"midi":88,"time":165.32558139534885,"velocity":0.2677165354330709},{"duration":0.011627906976741542,"midi":42,"time":165.3372093023256,"velocity":0.5511811023622047},{"duration":0.04651162790696617,"midi":70,"time":165.3372093023256,"velocity":0.2992125984251969},{"duration":0.06976744186044925,"midi":72,"time":165.3372093023256,"velocity":0.4015748031496063},{"duration":0.06976744186044925,"midi":92,"time":165.3372093023256,"velocity":0.1732283464566929},{"duration":0.05813953488370771,"midi":53,"time":165.34883720930233,"velocity":0.11811023622047244},{"duration":0.034883720930224626,"midi":60,"time":165.34883720930233,"velocity":0.25984251968503935},{"duration":0.023255813953483084,"midi":78,"time":165.36046511627907,"velocity":0.2677165354330709},{"duration":0.04651162790696617,"midi":80,"time":165.36046511627907,"velocity":0.2125984251968504},{"duration":0.11627906976744384,"midi":85,"time":165.36046511627907,"velocity":0.2992125984251969},{"duration":0.05813953488370771,"midi":90,"time":165.37209302325581,"velocity":0.2755905511811024},{"duration":0.023255813953483084,"midi":37,"time":165.38372093023256,"velocity":0.4015748031496063},{"duration":0.27906976744185386,"midi":77,"time":165.38372093023256,"velocity":0.4251968503937008},{"duration":0.18604651162792152,"midi":99,"time":165.38372093023256,"velocity":0.29133858267716534},{"duration":0.2906976744185954,"midi":73,"time":165.3953488372093,"velocity":0.3464566929133858},{"duration":0.023255813953483084,"midi":83,"time":165.3953488372093,"velocity":0.41732283464566927},{"duration":0.03488372093025305,"midi":36,"time":165.40697674418604,"velocity":0.31496062992125984},{"duration":0.15116279069766847,"midi":70,"time":165.40697674418604,"velocity":0.4330708661417323},{"duration":0.06976744186047767,"midi":81,"time":165.40697674418604,"velocity":0.2440944881889764},{"duration":0.04651162790699459,"midi":103,"time":165.40697674418604,"velocity":0.14173228346456693},{"duration":0.06976744186047767,"midi":61,"time":165.41860465116278,"velocity":0.2125984251968504},{"duration":0.03488372093025305,"midi":86,"time":165.41860465116278,"velocity":0.2204724409448819},{"duration":0.04651162790699459,"midi":80,"time":165.43023255813952,"velocity":0.16535433070866143},{"duration":0.05813953488373613,"midi":83,"time":165.43023255813952,"velocity":0.29133858267716534},{"duration":0.05813953488370771,"midi":96,"time":165.4418604651163,"velocity":0.1889763779527559},{"duration":0.034883720930224626,"midi":53,"time":165.46511627906978,"velocity":0.07874015748031496},{"duration":0.09302325581393234,"midi":86,"time":165.46511627906978,"velocity":0.3228346456692913},{"duration":0.05813953488370771,"midi":58,"time":165.47674418604652,"velocity":0.2755905511811024},{"duration":0.09302325581396076,"midi":79,"time":165.47674418604652,"velocity":0.2204724409448819},{"duration":0.04651162790696617,"midi":88,"time":165.47674418604652,"velocity":0.3543307086614173},{"duration":0.04651162790696617,"midi":84,"time":165.48837209302326,"velocity":0.1968503937007874},{"duration":0.1046511627907023,"midi":102,"time":165.51162790697674,"velocity":0.16535433070866143},{"duration":0.05813953488373613,"midi":75,"time":165.52325581395348,"velocity":0.23622047244094488},{"duration":0.034883720930224626,"midi":92,"time":165.52325581395348,"velocity":0.11023622047244094},{"duration":0.023255813953483084,"midi":57,"time":165.53488372093022,"velocity":0.29133858267716534},{"duration":0.03488372093025305,"midi":61,"time":165.53488372093022,"velocity":0.30708661417322836},{"duration":0.05813953488373613,"midi":80,"time":165.53488372093022,"velocity":0.2125984251968504},{"duration":0.03488372093025305,"midi":83,"time":165.53488372093022,"velocity":0.28346456692913385},{"duration":0.03488372093025305,"midi":45,"time":165.54651162790697,"velocity":0.33070866141732286},{"duration":0.04651162790699459,"midi":88,"time":165.54651162790697,"velocity":0.1889763779527559},{"duration":0.03488372093025305,"midi":53,"time":165.5581395348837,"velocity":0.28346456692913385},{"duration":0.11627906976744384,"midi":58,"time":165.5581395348837,"velocity":0.4015748031496063},{"duration":0.034883720930224626,"midi":82,"time":165.56976744186048,"velocity":0.36220472440944884},{"duration":0.11627906976741542,"midi":86,"time":165.56976744186048,"velocity":0.2755905511811024},{"duration":0.04651162790696617,"midi":46,"time":165.58139534883722,"velocity":0.2677165354330709},{"duration":0.034883720930224626,"midi":90,"time":165.59302325581396,"velocity":0.09448818897637795},{"duration":0.023255813953483084,"midi":53,"time":165.6046511627907,"velocity":0.2283464566929134},{"duration":0.06976744186044925,"midi":75,"time":165.6046511627907,"velocity":0.12598425196850394},{"duration":0.034883720930224626,"midi":83,"time":165.6046511627907,"velocity":0.23622047244094488},{"duration":0.05813953488370771,"midi":34,"time":165.61627906976744,"velocity":0.28346456692913385},{"duration":0.034883720930224626,"midi":68,"time":165.61627906976744,"velocity":0.11023622047244094},{"duration":0.04651162790696617,"midi":81,"time":165.62790697674419,"velocity":0.13385826771653545},{"duration":0.08139534883721922,"midi":84,"time":165.63953488372093,"velocity":0.14960629921259844},{"duration":0.12790697674418539,"midi":101,"time":165.63953488372093,"velocity":0.14173228346456693},{"duration":0.05813953488373613,"midi":88,"time":165.65116279069767,"velocity":0.18110236220472442},{"duration":0.05813953488373613,"midi":76,"time":165.6627906976744,"velocity":0.2204724409448819},{"duration":0.05813953488373613,"midi":80,"time":165.6627906976744,"velocity":0.2283464566929134},{"duration":0.03488372093025305,"midi":91,"time":165.6627906976744,"velocity":0.16535433070866143},{"duration":0.023255813953511506,"midi":45,"time":165.6860465116279,"velocity":0.3228346456692913},{"duration":0.04651162790699459,"midi":79,"time":165.6860465116279,"velocity":0.1732283464566929},{"duration":0.023255813953483084,"midi":62,"time":165.69767441860466,"velocity":0.28346456692913385},{"duration":0.04651162790696617,"midi":46,"time":165.7093023255814,"velocity":0.25984251968503935},{"duration":0.04651162790696617,"midi":53,"time":165.7093023255814,"velocity":0.14960629921259844},{"duration":0.2325581395348877,"midi":75,"time":165.7093023255814,"velocity":0.3700787401574803},{"duration":0.0813953488371908,"midi":85,"time":165.72093023255815,"velocity":0.14173228346456693},{"duration":0.06976744186047767,"midi":34,"time":165.75581395348837,"velocity":0.3228346456692913},{"duration":0.034883720930224626,"midi":57,"time":165.75581395348837,"velocity":0.18110236220472442},{"duration":0.05813953488373613,"midi":81,"time":165.77906976744185,"velocity":0.1968503937007874},{"duration":0.03488372093025305,"midi":84,"time":165.77906976744185,"velocity":0.16535433070866143},{"duration":0.03488372093025305,"midi":55,"time":165.7906976744186,"velocity":0.5118110236220472},{"duration":0.03488372093025305,"midi":69,"time":165.7906976744186,"velocity":0.2125984251968504},{"duration":0.06976744186047767,"midi":86,"time":165.7906976744186,"velocity":0.25984251968503935},{"duration":0.09302325581396076,"midi":90,"time":165.7906976744186,"velocity":0.33070866141732286},{"duration":0.18604651162792152,"midi":99,"time":165.7906976744186,"velocity":0.2047244094488189},{"duration":0.06976744186047767,"midi":101,"time":165.7906976744186,"velocity":0.2125984251968504},{"duration":0.03488372093025305,"midi":63,"time":165.80232558139534,"velocity":0.41732283464566927},{"duration":0.08139534883721922,"midi":88,"time":165.80232558139534,"velocity":0.25984251968503935},{"duration":0.19767441860466306,"midi":92,"time":165.80232558139534,"velocity":0.2204724409448819},{"duration":0.04651162790699459,"midi":95,"time":165.80232558139534,"velocity":0.1732283464566929},{"duration":0.05813953488373613,"midi":97,"time":165.80232558139534,"velocity":0.09448818897637795},{"duration":0.05813953488373613,"midi":103,"time":165.80232558139534,"velocity":0.08661417322834646},{"duration":0.023255813953483084,"midi":45,"time":165.8139534883721,"velocity":0.4566929133858268},{"duration":0.023255813953483084,"midi":66,"time":165.8139534883721,"velocity":0.25196850393700787},{"duration":0.13953488372092693,"midi":89,"time":165.8139534883721,"velocity":0.2755905511811024},{"duration":0.05813953488370771,"midi":91,"time":165.8139534883721,"velocity":0.33070866141732286},{"duration":0.09302325581393234,"midi":68,"time":165.82558139534885,"velocity":0.29133858267716534},{"duration":0.0813953488371908,"midi":70,"time":165.82558139534885,"velocity":0.1889763779527559},{"duration":0.011627906976741542,"midi":44,"time":165.8372093023256,"velocity":0.5748031496062992},{"duration":0.034883720930224626,"midi":62,"time":165.8372093023256,"velocity":0.2047244094488189},{"duration":0.034883720930224626,"midi":83,"time":165.8372093023256,"velocity":0.1732283464566929},{"duration":0.011627906976741542,"midi":43,"time":165.84883720930233,"velocity":0.5826771653543307},{"duration":0.023255813953483084,"midi":42,"time":165.86046511627907,"velocity":0.5669291338582677},{"duration":0.034883720930224626,"midi":56,"time":165.86046511627907,"velocity":0.3543307086614173},{"duration":0.2674418604651123,"midi":73,"time":165.86046511627907,"velocity":0.5118110236220472},{"duration":0.1046511627907023,"midi":84,"time":165.86046511627907,"velocity":0.14960629921259844},{"duration":0.05813953488370771,"midi":86,"time":165.87209302325581,"velocity":0.14173228346456693},{"duration":0.06976744186047767,"midi":77,"time":165.88372093023256,"velocity":0.25984251968503935},{"duration":0.034883720930224626,"midi":38,"time":165.8953488372093,"velocity":0.4330708661417323},{"duration":0.034883720930224626,"midi":55,"time":165.8953488372093,"velocity":0.3464566929133858},{"duration":0.05813953488373613,"midi":65,"time":165.8953488372093,"velocity":0.18110236220472442},{"duration":0.05813953488373613,"midi":88,"time":165.90697674418604,"velocity":0.14960629921259844},{"duration":0.03488372093025305,"midi":70,"time":165.93023255813952,"velocity":0.3858267716535433},{"duration":0.05813953488373613,"midi":81,"time":165.93023255813952,"velocity":0.2440944881889764},{"duration":0.023255813953483084,"midi":47,"time":165.9418604651163,"velocity":0.33070866141732286},{"duration":0.023255813953483084,"midi":58,"time":165.9418604651163,"velocity":0.29133858267716534},{"duration":0.11627906976741542,"midi":86,"time":165.9418604651163,"velocity":0.33858267716535434},{"duration":0.023255813953483084,"midi":69,"time":165.95348837209303,"velocity":0.23622047244094488},{"duration":0.04651162790696617,"midi":48,"time":165.96511627906978,"velocity":0.29133858267716534},{"duration":0.034883720930224626,"midi":55,"time":165.96511627906978,"velocity":0.30708661417322836},{"duration":0.05813953488370771,"midi":77,"time":165.96511627906978,"velocity":0.33070866141732286},{"duration":0.023255813953483084,"midi":83,"time":165.96511627906978,"velocity":0.25984251968503935},{"duration":0.0813953488371908,"midi":70,"time":165.97674418604652,"velocity":0.4094488188976378},{"duration":0.13953488372092693,"midi":75,"time":165.97674418604652,"velocity":0.16535433070866143},{"duration":0.04651162790696617,"midi":96,"time":165.97674418604652,"velocity":0.1968503937007874},{"duration":0.2325581395348877,"midi":100,"time":165.97674418604652,"velocity":0.18110236220472442},{"duration":0.06976744186044925,"midi":66,"time":165.98837209302326,"velocity":0.31496062992125984},{"duration":0.09302325581396076,"midi":80,"time":165.98837209302326,"velocity":0.13385826771653545},{"duration":0.1046511627907023,"midi":36,"time":166,"velocity":0.3464566929133858},{"duration":0.06976744186047767,"midi":61,"time":166,"velocity":0.2204724409448819},{"duration":0.06976744186047767,"midi":68,"time":166.01162790697674,"velocity":0.3464566929133858},{"duration":0.08139534883721922,"midi":88,"time":166.01162790697674,"velocity":0.16535433070866143},{"duration":0.03488372093025305,"midi":90,"time":166.03488372093022,"velocity":0.16535433070866143},{"duration":0.023255813953511506,"midi":55,"time":166.0581395348837,"velocity":0.29133858267716534},{"duration":0.08139534883721922,"midi":84,"time":166.0581395348837,"velocity":0.3858267716535433},{"duration":0.05813953488373613,"midi":89,"time":166.0581395348837,"velocity":0.1968503937007874},{"duration":0.04651162790699459,"midi":94,"time":166.0581395348837,"velocity":0.1732283464566929},{"duration":0.11627906976744384,"midi":97,"time":166.0581395348837,"velocity":0.2125984251968504},{"duration":0.023255813953483084,"midi":60,"time":166.06976744186048,"velocity":0.28346456692913385},{"duration":0.034883720930224626,"midi":70,"time":166.06976744186048,"velocity":0.15748031496062992},{"duration":0.23255813953485927,"midi":99,"time":166.06976744186048,"velocity":0.36220472440944884},{"duration":0.2325581395348877,"midi":82,"time":166.08139534883722,"velocity":0.3464566929133858},{"duration":0.04651162790696617,"midi":55,"time":166.09302325581396,"velocity":0.2440944881889764},{"duration":0.04651162790696617,"midi":80,"time":166.1046511627907,"velocity":0.1968503937007874},{"duration":0.48837209302325846,"midi":101,"time":166.1046511627907,"velocity":0.33858267716535434},{"duration":0.034883720930224626,"midi":88,"time":166.11627906976744,"velocity":0.15748031496062992},{"duration":0.023255813953483084,"midi":60,"time":166.12790697674419,"velocity":0.23622047244094488},{"duration":0.04651162790696617,"midi":72,"time":166.12790697674419,"velocity":0.4251968503937008},{"duration":0.034883720930224626,"midi":83,"time":166.12790697674419,"velocity":0.2677165354330709},{"duration":0.06976744186047767,"midi":87,"time":166.13953488372093,"velocity":0.1889763779527559},{"duration":0.09302325581396076,"midi":89,"time":166.13953488372093,"velocity":0.2047244094488189},{"duration":0.034883720930224626,"midi":61,"time":166.15116279069767,"velocity":0.11811023622047244},{"duration":0.04651162790699459,"midi":65,"time":166.15116279069767,"velocity":0.2125984251968504},{"duration":0.08139534883721922,"midi":92,"time":166.15116279069767,"velocity":0.12598425196850394},{"duration":0.11627906976744384,"midi":70,"time":166.1627906976744,"velocity":0.4409448818897638},{"duration":0.1046511627907023,"midi":77,"time":166.1627906976744,"velocity":0.2677165354330709},{"duration":0.05813953488373613,"midi":86,"time":166.1627906976744,"velocity":0.25196850393700787},{"duration":0.1046511627907023,"midi":53,"time":166.1860465116279,"velocity":0.25984251968503935},{"duration":0.03488372093025305,"midi":60,"time":166.1860465116279,"velocity":0.14960629921259844},{"duration":0.09302325581393234,"midi":80,"time":166.19767441860466,"velocity":0.1968503937007874},{"duration":0.04651162790696617,"midi":83,"time":166.19767441860466,"velocity":0.1968503937007874},{"duration":0.04651162790696617,"midi":91,"time":166.19767441860466,"velocity":0.18110236220472442},{"duration":0.034883720930224626,"midi":45,"time":166.2093023255814,"velocity":0.33070866141732286},{"duration":0.04651162790696617,"midi":76,"time":166.2093023255814,"velocity":0.2047244094488189},{"duration":0.023255813953483084,"midi":85,"time":166.2093023255814,"velocity":0.31496062992125984},{"duration":0.09302325581396076,"midi":86,"time":166.2325581395349,"velocity":0.30708661417322836},{"duration":0.09302325581396076,"midi":46,"time":166.24418604651163,"velocity":0.2440944881889764},{"duration":0.023255813953483084,"midi":35,"time":166.2674418604651,"velocity":0.2677165354330709},{"duration":0.034883720930224626,"midi":58,"time":166.2674418604651,"velocity":0.3543307086614173},{"duration":0.023255813953483084,"midi":72,"time":166.2674418604651,"velocity":0.2677165354330709},{"duration":0.22093023255814614,"midi":97,"time":166.2674418604651,"velocity":0.1889763779527559},{"duration":0.04651162790699459,"midi":61,"time":166.27906976744185,"velocity":0.3700787401574803},{"duration":0.03488372093025305,"midi":69,"time":166.27906976744185,"velocity":0.14960629921259844},{"duration":0.023255813953511506,"midi":34,"time":166.2906976744186,"velocity":0.25196850393700787},{"duration":0.08139534883721922,"midi":73,"time":166.2906976744186,"velocity":0.3779527559055118},{"duration":0.05813953488373613,"midi":84,"time":166.30232558139534,"velocity":0.25196850393700787},{"duration":0.034883720930224626,"midi":91,"time":166.3139534883721,"velocity":0.23622047244094488},{"duration":0.023255813953483084,"midi":60,"time":166.32558139534885,"velocity":0.4015748031496063},{"duration":0.09302325581393234,"midi":81,"time":166.32558139534885,"velocity":0.3228346456692913},{"duration":0.5116279069767415,"midi":85,"time":166.32558139534885,"velocity":0.48031496062992124},{"duration":0.034883720930224626,"midi":87,"time":166.32558139534885,"velocity":0.13385826771653545},{"duration":0.04651162790696617,"midi":88,"time":166.32558139534885,"velocity":0.2755905511811024},{"duration":0.034883720930224626,"midi":90,"time":166.32558139534885,"velocity":0.13385826771653545},{"duration":0.04651162790696617,"midi":95,"time":166.32558139534885,"velocity":0.23622047244094488},{"duration":0.05813953488370771,"midi":102,"time":166.32558139534885,"velocity":0.2283464566929134},{"duration":0.06976744186044925,"midi":78,"time":166.3372093023256,"velocity":0.2677165354330709},{"duration":0.0813953488371908,"midi":61,"time":166.34883720930233,"velocity":0.30708661417322836},{"duration":0.011627906976741542,"midi":46,"time":166.36046511627907,"velocity":0.5905511811023622},{"duration":0.12790697674418539,"midi":65,"time":166.36046511627907,"velocity":0.23622047244094488},{"duration":0.09302325581396076,"midi":89,"time":166.36046511627907,"velocity":0.2677165354330709},{"duration":0.023255813953483084,"midi":44,"time":166.37209302325581,"velocity":0.6299212598425197},{"duration":0.023255813953483084,"midi":74,"time":166.37209302325581,"velocity":0.3779527559055118},{"duration":0.06976744186047767,"midi":98,"time":166.37209302325581,"velocity":0.08661417322834646},{"duration":0.2325581395348877,"midi":82,"time":166.38372093023256,"velocity":0.2440944881889764},{"duration":0.2093023255814046,"midi":92,"time":166.38372093023256,"velocity":0.14960629921259844},{"duration":0.2093023255814046,"midi":99,"time":166.38372093023256,"velocity":0.28346456692913385},{"duration":0.023255813953483084,"midi":42,"time":166.3953488372093,"velocity":0.5196850393700787},{"duration":0.3604651162790731,"midi":58,"time":166.3953488372093,"velocity":0.33858267716535434},{"duration":0.27906976744185386,"midi":102,"time":166.3953488372093,"velocity":0.3937007874015748},{"duration":0.023255813953483084,"midi":74,"time":166.40697674418604,"velocity":0.33070866141732286},{"duration":0.023255813953511506,"midi":53,"time":166.41860465116278,"velocity":0.31496062992125984},{"duration":0.05813953488373613,"midi":72,"time":166.41860465116278,"velocity":0.44881889763779526},{"duration":0.2906976744186238,"midi":77,"time":166.41860465116278,"velocity":0.29133858267716534},{"duration":0.023255813953511506,"midi":80,"time":166.41860465116278,"velocity":0.31496062992125984},{"duration":0.04651162790699459,"midi":88,"time":166.41860465116278,"velocity":0.2677165354330709},{"duration":0.023255813953511506,"midi":46,"time":166.43023255813952,"velocity":0.2440944881889764},{"duration":0.03488372093025305,"midi":91,"time":166.43023255813952,"velocity":0.09448818897637795},{"duration":0.023255813953483084,"midi":36,"time":166.4418604651163,"velocity":0.3700787401574803},{"duration":0.023255813953483084,"midi":79,"time":166.4418604651163,"velocity":0.25984251968503935},{"duration":0.10465116279067388,"midi":93,"time":166.4418604651163,"velocity":0.07874015748031496},{"duration":0.023255813953483084,"midi":37,"time":166.46511627906978,"velocity":0.33858267716535434},{"duration":0.3604651162790731,"midi":80,"time":166.46511627906978,"velocity":0.4330708661417323},{"duration":0.023255813953483084,"midi":54,"time":166.47674418604652,"velocity":0.25196850393700787},{"duration":0.04651162790696617,"midi":73,"time":166.47674418604652,"velocity":0.4645669291338583},{"duration":0.13953488372092693,"midi":95,"time":166.47674418604652,"velocity":0.14960629921259844},{"duration":0.034883720930224626,"midi":66,"time":166.48837209302326,"velocity":0.25196850393700787},{"duration":0.06976744186044925,"midi":103,"time":166.48837209302326,"velocity":0.2677165354330709},{"duration":0.11627906976744384,"midi":100,"time":166.51162790697674,"velocity":0.33070866141732286},{"duration":0.023255813953483084,"midi":74,"time":166.52325581395348,"velocity":0.31496062992125984},{"duration":0.023255813953483084,"midi":66,"time":166.53488372093022,"velocity":0.33070866141732286},{"duration":0.05813953488373613,"midi":73,"time":166.54651162790697,"velocity":0.4409448818897638},{"duration":0.03488372093025305,"midi":65,"time":166.5581395348837,"velocity":0.30708661417322836},{"duration":0.05813953488370771,"midi":84,"time":166.56976744186048,"velocity":0.3779527559055118},{"duration":0.06976744186044925,"midi":88,"time":166.56976744186048,"velocity":0.3228346456692913},{"duration":0.034883720930224626,"midi":79,"time":166.58139534883722,"velocity":0.33070866141732286},{"duration":0.034883720930224626,"midi":66,"time":166.59302325581396,"velocity":0.36220472440944884},{"duration":0.034883720930224626,"midi":72,"time":166.59302325581396,"velocity":0.5039370078740157},{"duration":0.034883720930224626,"midi":69,"time":166.6046511627907,"velocity":0.15748031496062992},{"duration":0.34883720930233153,"midi":101,"time":166.61627906976744,"velocity":0.4094488188976378},{"duration":0.023255813953483084,"midi":39,"time":166.62790697674419,"velocity":0.2992125984251969},{"duration":0.34883720930233153,"midi":73,"time":166.62790697674419,"velocity":0.5039370078740157},{"duration":0.1046511627907023,"midi":66,"time":166.63953488372093,"velocity":0.2992125984251969},{"duration":0.05813953488373613,"midi":99,"time":166.63953488372093,"velocity":0.2204724409448819},{"duration":0.03488372093025305,"midi":40,"time":166.67441860465115,"velocity":0.23622047244094488},{"duration":0.04651162790699459,"midi":95,"time":166.67441860465115,"velocity":0.14173228346456693},{"duration":0.03488372093025305,"midi":100,"time":166.67441860465115,"velocity":0.1889763779527559},{"duration":0.04651162790699459,"midi":103,"time":166.67441860465115,"velocity":0.16535433070866143},{"duration":0.034883720930224626,"midi":61,"time":166.69767441860466,"velocity":0.12598425196850394},{"duration":0.034883720930224626,"midi":99,"time":166.7093023255814,"velocity":0.15748031496062992},{"duration":0.22093023255811772,"midi":102,"time":166.7093023255814,"velocity":0.25984251968503935},{"duration":0.04651162790696617,"midi":63,"time":166.7325581395349,"velocity":0.18110236220472442},{"duration":0.034883720930224626,"midi":69,"time":166.74418604651163,"velocity":0.2204724409448819},{"duration":0.19767441860466306,"midi":77,"time":166.74418604651163,"velocity":0.3543307086614173},{"duration":0.2325581395348877,"midi":70,"time":166.75581395348837,"velocity":0.2677165354330709},{"duration":0.034883720930224626,"midi":37,"time":166.7674418604651,"velocity":0.28346456692913385},{"duration":0.08139534883721922,"midi":66,"time":166.7674418604651,"velocity":0.33070866141732286},{"duration":0.05813953488373613,"midi":61,"time":166.77906976744185,"velocity":0.3779527559055118},{"duration":0.04651162790699459,"midi":103,"time":166.77906976744185,"velocity":0.2283464566929134},{"duration":0.11627906976744384,"midi":100,"time":166.80232558139534,"velocity":0.2204724409448819},{"duration":0.04651162790696617,"midi":86,"time":166.8139534883721,"velocity":0.2283464566929134},{"duration":0.034883720930224626,"midi":46,"time":166.82558139534885,"velocity":0.23622047244094488},{"duration":0.1860465116278931,"midi":99,"time":166.82558139534885,"velocity":0.25196850393700787},{"duration":0.05813953488370771,"midi":80,"time":166.8372093023256,"velocity":0.1889763779527559},{"duration":0.023255813953483084,"midi":57,"time":166.84883720930233,"velocity":0.3937007874015748},{"duration":0.023255813953483084,"midi":63,"time":166.84883720930233,"velocity":0.4566929133858268},{"duration":0.0813953488371908,"midi":90,"time":166.84883720930233,"velocity":0.2992125984251969},{"duration":0.034883720930224626,"midi":93,"time":166.84883720930233,"velocity":0.13385826771653545},{"duration":0.16279069767441,"midi":103,"time":166.84883720930233,"velocity":0.29133858267716534},{"duration":0.17441860465115155,"midi":66,"time":166.86046511627907,"velocity":0.36220472440944884},{"duration":0.05813953488370771,"midi":83,"time":166.86046511627907,"velocity":0.16535433070866143},{"duration":0.06976744186044925,"midi":96,"time":166.86046511627907,"velocity":0.14960629921259844},{"duration":0.33720930232559,"midi":97,"time":166.86046511627907,"velocity":0.23622047244094488},{"duration":0.023255813953483084,"midi":88,"time":166.87209302325581,"velocity":0.2440944881889764},{"duration":0.023255813953483084,"midi":45,"time":166.88372093023256,"velocity":0.5905511811023622},{"duration":0.15116279069766847,"midi":63,"time":166.88372093023256,"velocity":0.4251968503937008},{"duration":0.09302325581396076,"midi":91,"time":166.88372093023256,"velocity":0.2204724409448819},{"duration":0.011627906976741542,"midi":44,"time":166.90697674418604,"velocity":0.5748031496062992},{"duration":0.03488372093025305,"midi":93,"time":166.90697674418604,"velocity":0.07874015748031496},{"duration":0.023255813953511506,"midi":42,"time":166.91860465116278,"velocity":0.5590551181102362},{"duration":0.1046511627907023,"midi":80,"time":166.91860465116278,"velocity":0.1732283464566929},{"duration":0.023255813953511506,"midi":52,"time":166.93023255813952,"velocity":0.25984251968503935},{"duration":0.05813953488370771,"midi":96,"time":166.95348837209303,"velocity":0.2125984251968504},{"duration":0.05813953488370771,"midi":89,"time":166.96511627906978,"velocity":0.14173228346456693},{"duration":0.04651162790696617,"midi":101,"time":166.97674418604652,"velocity":0.15748031496062992},{"duration":0.023255813953483084,"midi":36,"time":166.98837209302326,"velocity":0.3464566929133858},{"duration":0.06976744186044925,"midi":84,"time":166.98837209302326,"velocity":0.11023622047244094},{"duration":0.04651162790696617,"midi":85,"time":166.98837209302326,"velocity":0.1889763779527559},{"duration":0.05813953488370771,"midi":93,"time":166.98837209302326,"velocity":0.1889763779527559},{"duration":0.034883720930224626,"midi":70,"time":167,"velocity":0.3779527559055118},{"duration":0.13953488372092693,"midi":73,"time":167,"velocity":0.4015748031496063},{"duration":0.05813953488373613,"midi":48,"time":167.01162790697674,"velocity":0.2992125984251969},{"duration":0.04651162790696617,"midi":55,"time":167.01162790697674,"velocity":0.29133858267716534},{"duration":0.034883720930224626,"midi":61,"time":167.01162790697674,"velocity":0.3543307086614173},{"duration":0.034883720930224626,"midi":81,"time":167.01162790697674,"velocity":0.2440944881889764},{"duration":0.1046511627907023,"midi":75,"time":167.03488372093022,"velocity":0.2755905511811024},{"duration":0.09302325581396076,"midi":77,"time":167.03488372093022,"velocity":0.25196850393700787},{"duration":0.03488372093025305,"midi":80,"time":167.03488372093022,"velocity":0.2755905511811024},{"duration":0.08139534883721922,"midi":36,"time":167.0581395348837,"velocity":0.3228346456692913},{"duration":0.1511627906976969,"midi":63,"time":167.0581395348837,"velocity":0.3858267716535433},{"duration":0.06976744186047767,"midi":68,"time":167.0581395348837,"velocity":0.47244094488188976},{"duration":0.03488372093025305,"midi":81,"time":167.0581395348837,"velocity":0.2440944881889764},{"duration":0.034883720930224626,"midi":55,"time":167.09302325581396,"velocity":0.1968503937007874},{"duration":0.034883720930224626,"midi":84,"time":167.1046511627907,"velocity":0.28346456692913385},{"duration":0.04651162790696617,"midi":88,"time":167.1046511627907,"velocity":0.1732283464566929},{"duration":0.034883720930224626,"midi":94,"time":167.1046511627907,"velocity":0.11023622047244094},{"duration":0.023255813953483084,"midi":60,"time":167.11627906976744,"velocity":0.31496062992125984},{"duration":0.034883720930224626,"midi":66,"time":167.11627906976744,"velocity":0.29133858267716534},{"duration":0.05813953488370771,"midi":87,"time":167.11627906976744,"velocity":0.28346456692913385},{"duration":0.05813953488370771,"midi":91,"time":167.11627906976744,"velocity":0.23622047244094488},{"duration":0.06976744186047767,"midi":53,"time":167.12790697674419,"velocity":0.28346456692913385},{"duration":0.04651162790696617,"midi":72,"time":167.12790697674419,"velocity":0.4330708661417323},{"duration":0.04651162790696617,"midi":83,"time":167.12790697674419,"velocity":0.2992125984251969},{"duration":0.4186046511627808,"midi":100,"time":167.12790697674419,"velocity":0.36220472440944884},{"duration":0.27906976744185386,"midi":101,"time":167.12790697674419,"velocity":0.3228346456692913},{"duration":0.023255813953483084,"midi":45,"time":167.13953488372093,"velocity":0.30708661417322836},{"duration":0.023255813953483084,"midi":77,"time":167.13953488372093,"velocity":0.2440944881889764},{"duration":0.034883720930224626,"midi":85,"time":167.13953488372093,"velocity":0.09448818897637795},{"duration":0.2906976744185954,"midi":99,"time":167.13953488372093,"velocity":0.3464566929133858},{"duration":0.04651162790696617,"midi":102,"time":167.13953488372093,"velocity":0.2125984251968504},{"duration":0.08139534883721922,"midi":58,"time":167.15116279069767,"velocity":0.3700787401574803},{"duration":0.09302325581396076,"midi":78,"time":167.15116279069767,"velocity":0.2677165354330709},{"duration":0.034883720930224626,"midi":80,"time":167.15116279069767,"velocity":0.09448818897637795},{"duration":0.19767441860466306,"midi":94,"time":167.15116279069767,"velocity":0.18110236220472442},{"duration":0.12790697674418539,"midi":46,"time":167.1627906976744,"velocity":0.2755905511811024},{"duration":0.06976744186047767,"midi":82,"time":167.1627906976744,"velocity":0.4015748031496063},{"duration":0.06976744186047767,"midi":86,"time":167.1627906976744,"velocity":0.41732283464566927},{"duration":0.04651162790699459,"midi":88,"time":167.1627906976744,"velocity":0.16535433070866143},{"duration":0.06976744186047767,"midi":89,"time":167.17441860465115,"velocity":0.30708661417322836},{"duration":0.12790697674418539,"midi":103,"time":167.17441860465115,"velocity":0.29133858267716534},{"duration":0.05813953488373613,"midi":96,"time":167.1860465116279,"velocity":0.07086614173228346},{"duration":0.023255813953483084,"midi":54,"time":167.19767441860466,"velocity":0.28346456692913385},{"duration":0.034883720930224626,"midi":91,"time":167.19767441860466,"velocity":0.07874015748031496},{"duration":0.04651162790696617,"midi":34,"time":167.2093023255814,"velocity":0.2677165354330709},{"duration":0.023255813953483084,"midi":62,"time":167.2093023255814,"velocity":0.2283464566929134},{"duration":0.11627906976744384,"midi":84,"time":167.2093023255814,"velocity":0.36220472440944884},{"duration":0.04651162790696617,"midi":80,"time":167.22093023255815,"velocity":0.15748031496062992},{"duration":0.023255813953483084,"midi":59,"time":167.2325581395349,"velocity":0.28346456692913385},{"duration":0.034883720930224626,"midi":87,"time":167.2325581395349,"velocity":0.41732283464566927},{"duration":0.12790697674418539,"midi":72,"time":167.24418604651163,"velocity":0.3543307086614173},{"duration":0.034883720930224626,"midi":95,"time":167.24418604651163,"velocity":0.11811023622047244},{"duration":0.08139534883721922,"midi":97,"time":167.24418604651163,"velocity":0.14173228346456693},{"duration":0.08139534883721922,"midi":56,"time":167.25581395348837,"velocity":0.18110236220472442},{"duration":0.11627906976744384,"midi":88,"time":167.25581395348837,"velocity":0.36220472440944884},{"duration":0.09302325581396076,"midi":91,"time":167.25581395348837,"velocity":0.2125984251968504},{"duration":0.08139534883721922,"midi":79,"time":167.2674418604651,"velocity":0.2755905511811024},{"duration":0.1046511627907023,"midi":63,"time":167.27906976744185,"velocity":0.2125984251968504},{"duration":0.03488372093025305,"midi":80,"time":167.27906976744185,"velocity":0.2047244094488189},{"duration":0.04651162790699459,"midi":87,"time":167.27906976744185,"velocity":0.36220472440944884},{"duration":0.03488372093025305,"midi":93,"time":167.27906976744185,"velocity":0.08661417322834646},{"duration":0.05813953488373613,"midi":98,"time":167.27906976744185,"velocity":0.12598425196850394},{"duration":0.023255813953511506,"midi":68,"time":167.2906976744186,"velocity":0.25196850393700787},{"duration":0.06976744186047767,"midi":102,"time":167.30232558139534,"velocity":0.14173228346456693},{"duration":0.04651162790696617,"midi":86,"time":167.3139534883721,"velocity":0.14173228346456693},{"duration":0.11627906976741542,"midi":95,"time":167.3139534883721,"velocity":0.1968503937007874},{"duration":0.034883720930224626,"midi":60,"time":167.32558139534885,"velocity":0.2047244094488189},{"duration":0.5232558139534831,"midi":68,"time":167.32558139534885,"velocity":0.44881889763779526},{"duration":0.06976744186044925,"midi":83,"time":167.32558139534885,"velocity":0.3700787401574803},{"duration":0.023255813953483084,"midi":84,"time":167.3372093023256,"velocity":0.3858267716535433},{"duration":0.11627906976744384,"midi":87,"time":167.3372093023256,"velocity":0.3228346456692913},{"duration":0.06976744186044925,"midi":90,"time":167.3372093023256,"velocity":0.16535433070866143},{"duration":0.0813953488371908,"midi":71,"time":167.34883720930233,"velocity":0.1968503937007874},{"duration":0.06976744186044925,"midi":91,"time":167.36046511627907,"velocity":0.10236220472440945},{"duration":0.023255813953483084,"midi":78,"time":167.37209302325581,"velocity":0.23622047244094488},{"duration":0.34883720930233153,"midi":86,"time":167.37209302325581,"velocity":0.36220472440944884},{"duration":0.04651162790696617,"midi":103,"time":167.37209302325581,"velocity":0.1889763779527559},{"duration":0.09302325581396076,"midi":60,"time":167.38372093023256,"velocity":0.25196850393700787},{"duration":0.034883720930224626,"midi":77,"time":167.38372093023256,"velocity":0.2992125984251969},{"duration":0.04651162790696617,"midi":82,"time":167.38372093023256,"velocity":0.33858267716535434},{"duration":0.034883720930224626,"midi":96,"time":167.38372093023256,"velocity":0.14173228346456693},{"duration":0.1046511627907023,"midi":102,"time":167.38372093023256,"velocity":0.1732283464566929},{"duration":0.04651162790699459,"midi":74,"time":167.3953488372093,"velocity":0.1968503937007874},{"duration":0.034883720930224626,"midi":97,"time":167.3953488372093,"velocity":0.10236220472440945},{"duration":0.2674418604651123,"midi":75,"time":167.40697674418604,"velocity":0.2992125984251969},{"duration":0.04651162790699459,"midi":83,"time":167.40697674418604,"velocity":0.2992125984251969},{"duration":0.011627906976741542,"midi":46,"time":167.41860465116278,"velocity":0.5590551181102362},{"duration":0.06976744186047767,"midi":56,"time":167.41860465116278,"velocity":0.2755905511811024},{"duration":0.011627906976769964,"midi":44,"time":167.43023255813952,"velocity":0.5905511811023622},{"duration":0.2325581395348877,"midi":77,"time":167.43023255813952,"velocity":0.36220472440944884},{"duration":0.1046511627907023,"midi":84,"time":167.43023255813952,"velocity":0.1889763779527559},{"duration":0.023255813953483084,"midi":42,"time":167.4418604651163,"velocity":0.5748031496062992},{"duration":0.034883720930224626,"midi":79,"time":167.4418604651163,"velocity":0.15748031496062992},{"duration":0.034883720930224626,"midi":82,"time":167.4418604651163,"velocity":0.33858267716535434},{"duration":0.04651162790696617,"midi":72,"time":167.45348837209303,"velocity":0.2677165354330709},{"duration":0.16279069767441,"midi":101,"time":167.45348837209303,"velocity":0.2283464566929134},{"duration":0.06976744186044925,"midi":103,"time":167.45348837209303,"velocity":0.11811023622047244},{"duration":0.011627906976741542,"midi":41,"time":167.46511627906978,"velocity":0.5275590551181102},{"duration":0.023255813953483084,"midi":51,"time":167.46511627906978,"velocity":0.2440944881889764},{"duration":0.034883720930224626,"midi":99,"time":167.46511627906978,"velocity":0.12598425196850394},{"duration":0.1046511627907023,"midi":70,"time":167.47674418604652,"velocity":0.3228346456692913},{"duration":0.034883720930224626,"midi":88,"time":167.47674418604652,"velocity":0.1732283464566929},{"duration":0.023255813953483084,"midi":39,"time":167.48837209302326,"velocity":0.3779527559055118},{"duration":0.08139534883721922,"midi":58,"time":167.48837209302326,"velocity":0.33858267716535434},{"duration":0.08139534883721922,"midi":82,"time":167.48837209302326,"velocity":0.3464566929133858},{"duration":0.48837209302325846,"midi":99,"time":167.51162790697674,"velocity":0.25984251968503935},{"duration":0.034883720930224626,"midi":35,"time":167.52325581395348,"velocity":0.3779527559055118},{"duration":0.09302325581396076,"midi":79,"time":167.52325581395348,"velocity":0.10236220472440945},{"duration":0.04651162790696617,"midi":57,"time":167.56976744186048,"velocity":0.44881889763779526},{"duration":0.19767441860463464,"midi":63,"time":167.56976744186048,"velocity":0.2125984251968504},{"duration":0.04651162790696617,"midi":83,"time":167.56976744186048,"velocity":0.1732283464566929},{"duration":0.05813953488370771,"midi":82,"time":167.58139534883722,"velocity":0.1732283464566929},{"duration":0.05813953488370771,"midi":72,"time":167.59302325581396,"velocity":0.14173228346456693},{"duration":0.16279069767441,"midi":84,"time":167.59302325581396,"velocity":0.14960629921259844},{"duration":0.04651162790696617,"midi":91,"time":167.61627906976744,"velocity":0.2204724409448819},{"duration":0.1046511627907023,"midi":90,"time":167.63953488372093,"velocity":0.28346456692913385},{"duration":0.2325581395348877,"midi":92,"time":167.63953488372093,"velocity":0.3779527559055118},{"duration":0.04651162790696617,"midi":100,"time":167.63953488372093,"velocity":0.10236220472440945},{"duration":0.034883720930224626,"midi":88,"time":167.65116279069767,"velocity":0.14173228346456693},{"duration":0.08139534883721922,"midi":94,"time":167.65116279069767,"velocity":0.28346456692913385},{"duration":0.04651162790699459,"midi":76,"time":167.6627906976744,"velocity":0.4409448818897638},{"duration":0.03488372093025305,"midi":78,"time":167.6627906976744,"velocity":0.16535433070866143},{"duration":0.03488372093025305,"midi":103,"time":167.6627906976744,"velocity":0.09448818897637795},{"duration":0.16279069767443843,"midi":44,"time":167.67441860465115,"velocity":0.3543307086614173},{"duration":0.023255813953511506,"midi":74,"time":167.67441860465115,"velocity":0.23622047244094488},{"duration":0.06976744186047767,"midi":96,"time":167.67441860465115,"velocity":0.33070866141732286},{"duration":0.1046511627907023,"midi":51,"time":167.6860465116279,"velocity":0.2755905511811024},{"duration":0.4186046511628092,"midi":72,"time":167.6860465116279,"velocity":0.28346456692913385},{"duration":0.023255813953511506,"midi":95,"time":167.6860465116279,"velocity":0.2440944881889764},{"duration":0.05813953488370771,"midi":70,"time":167.7093023255814,"velocity":0.16535433070866143},{"duration":0.2325581395348877,"midi":75,"time":167.7093023255814,"velocity":0.4566929133858268},{"duration":0.06976744186044925,"midi":89,"time":167.72093023255815,"velocity":0.2755905511811024},{"duration":0.023255813953483084,"midi":33,"time":167.7325581395349,"velocity":0.2283464566929134},{"duration":0.05813953488370771,"midi":79,"time":167.7325581395349,"velocity":0.23622047244094488},{"duration":0.05813953488370771,"midi":93,"time":167.7325581395349,"velocity":0.1889763779527559},{"duration":0.13953488372092693,"midi":95,"time":167.7325581395349,"velocity":0.2755905511811024},{"duration":0.12790697674418539,"midi":97,"time":167.7325581395349,"velocity":0.2125984251968504},{"duration":0.04651162790696617,"midi":57,"time":167.74418604651163,"velocity":0.2677165354330709},{"duration":0.05813953488370771,"midi":74,"time":167.74418604651163,"velocity":0.33070866141732286},{"duration":0.05813953488370771,"midi":83,"time":167.74418604651163,"velocity":0.16535433070866143},{"duration":0.1046511627907023,"midi":91,"time":167.74418604651163,"velocity":0.41732283464566927},{"duration":0.08139534883721922,"midi":32,"time":167.75581395348837,"velocity":0.2440944881889764},{"duration":0.12790697674418539,"midi":96,"time":167.75581395348837,"velocity":0.25196850393700787},{"duration":0.1046511627907023,"midi":100,"time":167.7674418604651,"velocity":0.25196850393700787},{"duration":0.09302325581396076,"midi":94,"time":167.77906976744185,"velocity":0.18110236220472442},{"duration":0.24418604651162923,"midi":90,"time":167.7906976744186,"velocity":0.33070866141732286},{"duration":0.08139534883721922,"midi":98,"time":167.80232558139534,"velocity":0.2440944881889764},{"duration":0.034883720930224626,"midi":56,"time":167.8139534883721,"velocity":0.3700787401574803},{"duration":0.034883720930224626,"midi":81,"time":167.82558139534885,"velocity":0.25196850393700787},{"duration":0.023255813953483084,"midi":57,"time":167.84883720930233,"velocity":0.29133858267716534},{"duration":0.04651162790696617,"midi":68,"time":167.86046511627907,"velocity":0.36220472440944884},{"duration":0.034883720930224626,"midi":91,"time":167.86046511627907,"velocity":0.07874015748031496},{"duration":0.04651162790699459,"midi":79,"time":167.90697674418604,"velocity":0.1889763779527559},{"duration":0.04651162790699459,"midi":92,"time":167.90697674418604,"velocity":0.14960629921259844},{"duration":0.05813953488373613,"midi":96,"time":167.90697674418604,"velocity":0.1889763779527559},{"duration":0.05813953488373613,"midi":100,"time":167.90697674418604,"velocity":0.14960629921259844},{"duration":0.023255813953511506,"midi":60,"time":167.91860465116278,"velocity":0.4015748031496063},{"duration":0.06976744186047767,"midi":83,"time":167.91860465116278,"velocity":0.07874015748031496},{"duration":0.03488372093025305,"midi":85,"time":167.91860465116278,"velocity":0.18110236220472442},{"duration":0.06976744186047767,"midi":88,"time":167.91860465116278,"velocity":0.2125984251968504},{"duration":0.08139534883721922,"midi":89,"time":167.91860465116278,"velocity":0.2125984251968504},{"duration":0.06976744186047767,"midi":94,"time":167.91860465116278,"velocity":0.1889763779527559},{"duration":0.09302325581396076,"midi":97,"time":167.91860465116278,"velocity":0.2125984251968504},{"duration":0.03488372093025305,"midi":98,"time":167.91860465116278,"velocity":0.09448818897637795},{"duration":0.06976744186047767,"midi":101,"time":167.91860465116278,"velocity":0.2204724409448819},{"duration":0.04651162790699459,"midi":103,"time":167.91860465116278,"velocity":0.16535433070866143},{"duration":0.03488372093025305,"midi":45,"time":167.93023255813952,"velocity":0.5984251968503937},{"duration":0.023255813953511506,"midi":67,"time":167.93023255813952,"velocity":0.25196850393700787},{"duration":0.08139534883721922,"midi":95,"time":167.93023255813952,"velocity":0.09448818897637795},{"duration":0.3139534883720785,"midi":68,"time":167.9418604651163,"velocity":0.2992125984251969},{"duration":0.0813953488371908,"midi":91,"time":167.9418604651163,"velocity":0.2204724409448819},{"duration":0.034883720930224626,"midi":63,"time":167.95348837209303,"velocity":0.11811023622047244},{"duration":0.034883720930224626,"midi":74,"time":167.95348837209303,"velocity":0.11023622047244094},{"duration":0.011627906976741542,"midi":44,"time":167.96511627906978,"velocity":0.5826771653543307},{"duration":0.27906976744185386,"midi":75,"time":167.96511627906978,"velocity":0.2755905511811024},{"duration":0.0813953488371908,"midi":82,"time":167.96511627906978,"velocity":0.11023622047244094},{"duration":0.034883720930224626,"midi":93,"time":167.96511627906978,"velocity":0.13385826771653545},{"duration":0.023255813953483084,"midi":42,"time":167.97674418604652,"velocity":0.5669291338582677},{"duration":0.034883720930224626,"midi":85,"time":167.97674418604652,"velocity":0.11811023622047244},{"duration":0.04651162790696617,"midi":98,"time":167.97674418604652,"velocity":0.07086614173228346},{"duration":0.06976744186047767,"midi":57,"time":168.01162790697674,"velocity":0.2047244094488189},{"duration":0.17441860465117998,"midi":63,"time":168.02325581395348,"velocity":0.2204724409448819},{"duration":0.023255813953511506,"midi":36,"time":168.04651162790697,"velocity":0.33858267716535434},{"duration":0.05813953488370771,"midi":56,"time":168.08139534883722,"velocity":0.1968503937007874},{"duration":0.04651162790696617,"midi":60,"time":168.11627906976744,"velocity":0.09448818897637795},{"duration":0.034883720930224626,"midi":51,"time":168.12790697674419,"velocity":0.15748031496062992},{"duration":0.05813953488370771,"midi":99,"time":168.12790697674419,"velocity":0.11023622047244094},{"duration":0.18604651162792152,"midi":72,"time":168.17441860465115,"velocity":0.2440944881889764},{"duration":0.04651162790699459,"midi":86,"time":168.17441860465115,"velocity":0.1968503937007874},{"duration":0.04651162790699459,"midi":89,"time":168.17441860465115,"velocity":0.1889763779527559},{"duration":0.03488372093025305,"midi":90,"time":168.17441860465115,"velocity":0.15748031496062992},{"duration":0.023255813953511506,"midi":55,"time":168.1860465116279,"velocity":0.3543307086614173},{"duration":0.04651162790699459,"midi":77,"time":168.1860465116279,"velocity":0.1889763779527559},{"duration":0.03488372093025305,"midi":81,"time":168.1860465116279,"velocity":0.1732283464566929},{"duration":0.08139534883721922,"midi":92,"time":168.1860465116279,"velocity":0.14960629921259844},{"duration":0.11627906976744384,"midi":93,"time":168.1860465116279,"velocity":0.2047244094488189},{"duration":0.05813953488373613,"midi":97,"time":168.1860465116279,"velocity":0.07874015748031496},{"duration":0.034883720930224626,"midi":51,"time":168.19767441860466,"velocity":0.25984251968503935},{"duration":0.034883720930224626,"midi":74,"time":168.19767441860466,"velocity":0.2047244094488189},{"duration":0.05813953488370771,"midi":79,"time":168.19767441860466,"velocity":0.13385826771653545},{"duration":0.05813953488370771,"midi":44,"time":168.22093023255815,"velocity":0.30708661417322836},{"duration":0.034883720930224626,"midi":56,"time":168.2325581395349,"velocity":0.48031496062992124},{"duration":0.05813953488370771,"midi":96,"time":168.2325581395349,"velocity":0.11811023622047244},{"duration":0.05813953488370771,"midi":60,"time":168.24418604651163,"velocity":0.3228346456692913},{"duration":0.034883720930224626,"midi":33,"time":168.25581395348837,"velocity":0.25196850393700787},{"duration":0.1046511627907023,"midi":102,"time":168.25581395348837,"velocity":0.18110236220472442},{"duration":0.13953488372092693,"midi":68,"time":168.2674418604651,"velocity":0.2992125984251969},{"duration":0.04651162790699459,"midi":75,"time":168.2674418604651,"velocity":0.15748031496062992},{"duration":0.05813953488373613,"midi":91,"time":168.27906976744185,"velocity":0.18110236220472442},{"duration":0.04651162790699459,"midi":32,"time":168.2906976744186,"velocity":0.23622047244094488},{"duration":0.09302325581396076,"midi":56,"time":168.30232558139534,"velocity":0.5275590551181102},{"duration":0.05813953488373613,"midi":92,"time":168.30232558139534,"velocity":0.15748031496062992},{"duration":0.03488372093025305,"midi":94,"time":168.30232558139534,"velocity":0.1889763779527559},{"duration":0.05813953488373613,"midi":96,"time":168.30232558139534,"velocity":0.23622047244094488},{"duration":0.04651162790699459,"midi":98,"time":168.30232558139534,"velocity":0.08661417322834646},{"duration":0.09302325581393234,"midi":63,"time":168.3139534883721,"velocity":0.1968503937007874},{"duration":0.05813953488370771,"midi":78,"time":168.3139534883721,"velocity":0.14960629921259844},{"duration":0.04651162790696617,"midi":81,"time":168.3139534883721,"velocity":0.16535433070866143},{"duration":0.034883720930224626,"midi":86,"time":168.3139534883721,"velocity":0.15748031496062992},{"duration":0.034883720930224626,"midi":89,"time":168.3139534883721,"velocity":0.1732283464566929},{"duration":0.06976744186044925,"midi":74,"time":168.32558139534885,"velocity":0.2125984251968504},{"duration":0.04651162790696617,"midi":77,"time":168.32558139534885,"velocity":0.18110236220472442},{"duration":0.05813953488370771,"midi":44,"time":168.3372093023256,"velocity":0.3228346456692913},{"duration":0.034883720930224626,"midi":79,"time":168.3372093023256,"velocity":0.07874015748031496},{"duration":0.023255813953483084,"midi":51,"time":168.37209302325581,"velocity":0.2440944881889764},{"duration":0.08139534883721922,"midi":72,"time":168.38372093023256,"velocity":0.33858267716535434},{"duration":0.023255813953483084,"midi":33,"time":168.3953488372093,"velocity":0.2440944881889764},{"duration":0.034883720930224626,"midi":57,"time":168.3953488372093,"velocity":0.31496062992125984},{"duration":0.04651162790699459,"midi":44,"time":168.40697674418604,"velocity":0.2125984251968504},{"duration":0.03488372093025305,"midi":32,"time":168.41860465116278,"velocity":0.2440944881889764},{"duration":0.04651162790699459,"midi":51,"time":168.41860465116278,"velocity":0.3858267716535433},{"duration":0.023255813953511506,"midi":59,"time":168.43023255813952,"velocity":0.41732283464566927},{"duration":0.04651162790699459,"midi":98,"time":168.43023255813952,"velocity":0.16535433070866143},{"duration":0.12790697674418539,"midi":99,"time":168.43023255813952,"velocity":0.2204724409448819},{"duration":0.08139534883721922,"midi":100,"time":168.43023255813952,"velocity":0.1732283464566929},{"duration":0.04651162790699459,"midi":102,"time":168.43023255813952,"velocity":0.25196850393700787},{"duration":0.1046511627907023,"midi":103,"time":168.43023255813952,"velocity":0.23622047244094488},{"duration":0.034883720930224626,"midi":86,"time":168.4418604651163,"velocity":0.16535433070866143},{"duration":0.12790697674418539,"midi":87,"time":168.4418604651163,"velocity":0.15748031496062992},{"duration":0.023255813953483084,"midi":88,"time":168.4418604651163,"velocity":0.25196850393700787},{"duration":0.034883720930224626,"midi":90,"time":168.4418604651163,"velocity":0.1968503937007874},{"duration":0.09302325581393234,"midi":95,"time":168.4418604651163,"velocity":0.2204724409448819},{"duration":0.05813953488370771,"midi":97,"time":168.4418604651163,"velocity":0.14960629921259844},{"duration":0.05813953488370771,"midi":101,"time":168.4418604651163,"velocity":0.11023622047244094},{"duration":0.011627906976741542,"midi":48,"time":168.46511627906978,"velocity":0.5275590551181102},{"duration":0.023255813953483084,"midi":73,"time":168.46511627906978,"velocity":0.33858267716535434},{"duration":0.06976744186044925,"midi":89,"time":168.46511627906978,"velocity":0.29133858267716534},{"duration":0.48837209302325846,"midi":94,"time":168.46511627906978,"velocity":0.28346456692913385},{"duration":0.011627906976741542,"midi":45,"time":168.47674418604652,"velocity":0.6062992125984252},{"duration":0.023255813953483084,"midi":72,"time":168.47674418604652,"velocity":0.3779527559055118},{"duration":0.034883720930224626,"midi":82,"time":168.47674418604652,"velocity":0.08661417322834646},{"duration":0.09302325581396076,"midi":91,"time":168.47674418604652,"velocity":0.15748031496062992},{"duration":0.011627906976741542,"midi":44,"time":168.48837209302326,"velocity":0.6062992125984252},{"duration":0.09302325581396076,"midi":76,"time":168.48837209302326,"velocity":0.29133858267716534},{"duration":0.04651162790696617,"midi":81,"time":168.48837209302326,"velocity":0.3858267716535433},{"duration":0.023255813953483084,"midi":42,"time":168.5,"velocity":0.5905511811023622},{"duration":0.034883720930224626,"midi":73,"time":168.5,"velocity":0.4566929133858268},{"duration":0.08139534883721922,"midi":86,"time":168.5,"velocity":0.30708661417322836},{"duration":0.08139534883721922,"midi":90,"time":168.5,"velocity":0.33858267716535434},{"duration":0.08139534883721922,"midi":92,"time":168.5,"velocity":0.1732283464566929},{"duration":0.09302325581396076,"midi":96,"time":168.5,"velocity":0.33858267716535434},{"duration":0.034883720930224626,"midi":74,"time":168.52325581395348,"velocity":0.44881889763779526},{"duration":0.04651162790699459,"midi":60,"time":168.53488372093022,"velocity":0.1968503937007874},{"duration":0.05813953488373613,"midi":68,"time":168.53488372093022,"velocity":0.14960629921259844},{"duration":0.03488372093025305,"midi":79,"time":168.53488372093022,"velocity":0.14173228346456693},{"duration":0.03488372093025305,"midi":83,"time":168.53488372093022,"velocity":0.1968503937007874},{"duration":0.05813953488373613,"midi":100,"time":168.53488372093022,"velocity":0.14173228346456693},{"duration":0.04651162790699459,"midi":81,"time":168.54651162790697,"velocity":0.3228346456692913},{"duration":0.023255813953511506,"midi":72,"time":168.5581395348837,"velocity":0.25196850393700787},{"duration":0.32558139534882,"midi":84,"time":168.56976744186048,"velocity":0.3779527559055118},{"duration":0.034883720930224626,"midi":48,"time":168.58139534883722,"velocity":0.10236220472440945},{"duration":0.7209302325581177,"midi":75,"time":168.58139534883722,"velocity":0.5118110236220472},{"duration":0.40697674418603924,"midi":80,"time":168.58139534883722,"velocity":0.31496062992125984},{"duration":0.17441860465115155,"midi":91,"time":168.58139534883722,"velocity":0.4330708661417323},{"duration":0.06976744186044925,"midi":60,"time":168.59302325581396,"velocity":0.2992125984251969},{"duration":0.0813953488371908,"midi":72,"time":168.59302325581396,"velocity":0.4094488188976378},{"duration":0.12790697674418539,"midi":82,"time":168.59302325581396,"velocity":0.23622047244094488},{"duration":0.13953488372092693,"midi":97,"time":168.59302325581396,"velocity":0.23622047244094488},{"duration":0.04651162790696617,"midi":88,"time":168.61627906976744,"velocity":0.12598425196850394},{"duration":0.08139534883721922,"midi":101,"time":168.61627906976744,"velocity":0.13385826771653545},{"duration":0.12790697674418539,"midi":68,"time":168.62790697674419,"velocity":0.14173228346456693},{"duration":0.034883720930224626,"midi":41,"time":168.65116279069767,"velocity":0.08661417322834646},{"duration":0.03488372093025305,"midi":56,"time":168.6627906976744,"velocity":0.14960629921259844},{"duration":0.3139534883721069,"midi":72,"time":168.6860465116279,"velocity":0.4094488188976378},{"duration":0.034883720930224626,"midi":89,"time":168.7093023255814,"velocity":0.14173228346456693},{"duration":0.06976744186044925,"midi":102,"time":168.7093023255814,"velocity":0.11023622047244094},{"duration":0.034883720930224626,"midi":78,"time":168.72093023255815,"velocity":0.13385826771653545},{"duration":0.034883720930224626,"midi":86,"time":168.72093023255815,"velocity":0.1889763779527559},{"duration":0.023255813953483084,"midi":41,"time":168.7325581395349,"velocity":0.2992125984251969},{"duration":0.09302325581396076,"midi":101,"time":168.7325581395349,"velocity":0.18110236220472442},{"duration":0.034883720930224626,"midi":57,"time":168.74418604651163,"velocity":0.3464566929133858},{"duration":0.023255813953483084,"midi":74,"time":168.74418604651163,"velocity":0.29133858267716534},{"duration":0.06976744186047767,"midi":97,"time":168.74418604651163,"velocity":0.1732283464566929},{"duration":0.24418604651162923,"midi":91,"time":168.7674418604651,"velocity":0.3700787401574803},{"duration":0.023255813953483084,"midi":60,"time":168.77906976744185,"velocity":0.29133858267716534},{"duration":0.08139534883721922,"midi":88,"time":168.77906976744185,"velocity":0.14960629921259844},{"duration":0.023255813953511506,"midi":41,"time":168.7906976744186,"velocity":0.2440944881889764},{"duration":0.17441860465117998,"midi":68,"time":168.7906976744186,"velocity":0.31496062992125984},{"duration":0.03488372093025305,"midi":48,"time":168.80232558139534,"velocity":0.18110236220472442},{"duration":0.05813953488373613,"midi":56,"time":168.80232558139534,"velocity":0.2677165354330709},{"duration":0.034883720930224626,"midi":30,"time":168.82558139534885,"velocity":0.1968503937007874},{"duration":0.034883720930224626,"midi":60,"time":168.82558139534885,"velocity":0.31496062992125984},{"duration":0.04651162790696617,"midi":86,"time":168.8372093023256,"velocity":0.14173228346456693},{"duration":0.034883720930224626,"midi":90,"time":168.8372093023256,"velocity":0.10236220472440945},{"duration":0.04651162790696617,"midi":78,"time":168.84883720930233,"velocity":0.12598425196850394},{"duration":0.1046511627907023,"midi":48,"time":168.86046511627907,"velocity":0.2440944881889764},{"duration":0.04651162790696617,"midi":53,"time":168.87209302325581,"velocity":0.25196850393700787},{"duration":0.023255813953483084,"midi":40,"time":168.88372093023256,"velocity":0.31496062992125984},{"duration":0.04651162790699459,"midi":82,"time":168.8953488372093,"velocity":0.13385826771653545},{"duration":0.03488372093025305,"midi":41,"time":168.93023255813952,"velocity":0.2204724409448819},{"duration":0.06976744186044925,"midi":98,"time":168.95348837209303,"velocity":0.14960629921259844},{"duration":0.15116279069766847,"midi":100,"time":168.95348837209303,"velocity":0.1732283464566929},{"duration":0.38372093023255616,"midi":89,"time":168.96511627906978,"velocity":0.4409448818897638},{"duration":0.19767441860463464,"midi":92,"time":168.96511627906978,"velocity":0.3228346456692913},{"duration":0.05813953488370771,"midi":96,"time":168.96511627906978,"velocity":0.2204724409448819},{"duration":0.1046511627907023,"midi":97,"time":168.96511627906978,"velocity":0.2677165354330709},{"duration":0.17441860465115155,"midi":102,"time":168.96511627906978,"velocity":0.2755905511811024},{"duration":0.023255813953483084,"midi":53,"time":168.97674418604652,"velocity":0.48031496062992124},{"duration":0.034883720930224626,"midi":88,"time":168.97674418604652,"velocity":0.1732283464566929},{"duration":0.0813953488371908,"midi":90,"time":168.97674418604652,"velocity":0.2677165354330709},{"duration":0.13953488372092693,"midi":94,"time":168.97674418604652,"velocity":0.33070866141732286},{"duration":0.04651162790696617,"midi":62,"time":168.98837209302326,"velocity":0.3937007874015748},{"duration":0.034883720930224626,"midi":68,"time":168.98837209302326,"velocity":0.2440944881889764},{"duration":0.04651162790696617,"midi":73,"time":168.98837209302326,"velocity":0.3464566929133858},{"duration":0.06976744186044925,"midi":81,"time":168.98837209302326,"velocity":0.16535433070866143},{"duration":0.04651162790696617,"midi":83,"time":168.98837209302326,"velocity":0.14960629921259844},{"duration":0.05813953488370771,"midi":93,"time":168.98837209302326,"velocity":0.18110236220472442},{"duration":0.011627906976741542,"midi":45,"time":169,"velocity":0.5354330708661418},{"duration":0.1046511627907023,"midi":66,"time":169,"velocity":0.33070866141732286},{"duration":0.06976744186047767,"midi":86,"time":169,"velocity":0.12598425196850394},{"duration":0.023255813953483084,"midi":44,"time":169.01162790697674,"velocity":0.5984251968503937},{"duration":0.05813953488373613,"midi":95,"time":169.01162790697674,"velocity":0.28346456692913385},{"duration":0.023255813953483084,"midi":42,"time":169.03488372093022,"velocity":0.5354330708661418},{"duration":0.023255813953483084,"midi":61,"time":169.03488372093022,"velocity":0.2440944881889764},{"duration":0.08139534883721922,"midi":96,"time":169.03488372093022,"velocity":0.2204724409448819},{"duration":0.023255813953511506,"midi":52,"time":169.04651162790697,"velocity":0.2440944881889764},{"duration":0.023255813953511506,"midi":73,"time":169.04651162790697,"velocity":0.30708661417322836},{"duration":0.25581395348837077,"midi":91,"time":169.04651162790697,"velocity":0.4015748031496063},{"duration":0.03488372093025305,"midi":63,"time":169.0581395348837,"velocity":0.2677165354330709},{"duration":0.05813953488373613,"midi":80,"time":169.0581395348837,"velocity":0.14173228346456693},{"duration":0.023255813953483084,"midi":69,"time":169.06976744186048,"velocity":0.25984251968503935},{"duration":0.13953488372092693,"midi":72,"time":169.06976744186048,"velocity":0.4094488188976378},{"duration":0.034883720930224626,"midi":56,"time":169.08139534883722,"velocity":0.14173228346456693},{"duration":0.04651162790696617,"midi":61,"time":169.09302325581396,"velocity":0.3937007874015748},{"duration":0.023255813953483084,"midi":64,"time":169.09302325581396,"velocity":0.3228346456692913},{"duration":0.034883720930224626,"midi":90,"time":169.09302325581396,"velocity":0.14960629921259844},{"duration":0.3604651162790731,"midi":95,"time":169.09302325581396,"velocity":0.4566929133858268},{"duration":0.09302325581393234,"midi":97,"time":169.09302325581396,"velocity":0.14173228346456693},{"duration":0.04651162790696617,"midi":79,"time":169.1046511627907,"velocity":0.14173228346456693},{"duration":0.09302325581396076,"midi":81,"time":169.1046511627907,"velocity":0.1889763779527559},{"duration":0.0813953488371908,"midi":82,"time":169.1046511627907,"velocity":0.1732283464566929},{"duration":0.06976744186044925,"midi":48,"time":169.11627906976744,"velocity":0.2755905511811024},{"duration":0.05813953488370771,"midi":55,"time":169.12790697674419,"velocity":0.1732283464566929},{"duration":0.04651162790696617,"midi":64,"time":169.12790697674419,"velocity":0.4015748031496063},{"duration":0.05813953488370771,"midi":78,"time":169.12790697674419,"velocity":0.14173228346456693},{"duration":0.023255813953483084,"midi":61,"time":169.15116279069767,"velocity":0.2992125984251969},{"duration":0.2093023255814046,"midi":68,"time":169.15116279069767,"velocity":0.30708661417322836},{"duration":0.023255813953483084,"midi":93,"time":169.1627906976744,"velocity":0.2440944881889764},{"duration":0.1511627906976969,"midi":102,"time":169.1627906976744,"velocity":0.18110236220472442},{"duration":0.023255813953511506,"midi":65,"time":169.17441860465115,"velocity":0.33070866141732286},{"duration":0.04651162790699459,"midi":92,"time":169.1860465116279,"velocity":0.33070866141732286},{"duration":0.034883720930224626,"midi":36,"time":169.19767441860466,"velocity":0.1968503937007874},{"duration":0.023255813953483084,"midi":61,"time":169.19767441860466,"velocity":0.4094488188976378},{"duration":0.3139534883720785,"midi":80,"time":169.19767441860466,"velocity":0.30708661417322836},{"duration":0.04651162790696617,"midi":85,"time":169.19767441860466,"velocity":0.10236220472440945},{"duration":0.0813953488371908,"midi":94,"time":169.19767441860466,"velocity":0.36220472440944884},{"duration":0.05813953488370771,"midi":84,"time":169.2093023255814,"velocity":0.25196850393700787},{"duration":0.04651162790696617,"midi":60,"time":169.22093023255815,"velocity":0.4251968503937008},{"duration":0.06976744186044925,"midi":72,"time":169.22093023255815,"velocity":0.4330708661417323},{"duration":0.034883720930224626,"midi":65,"time":169.2325581395349,"velocity":0.2440944881889764},{"duration":0.08139534883721922,"midi":93,"time":169.2325581395349,"velocity":0.18110236220472442},{"duration":0.034883720930224626,"midi":78,"time":169.24418604651163,"velocity":0.11811023622047244},{"duration":0.034883720930224626,"midi":83,"time":169.24418604651163,"velocity":0.1732283464566929},{"duration":0.05813953488370771,"midi":88,"time":169.24418604651163,"velocity":0.3700787401574803},{"duration":0.023255813953483084,"midi":45,"time":169.25581395348837,"velocity":0.30708661417322836},{"duration":0.034883720930224626,"midi":53,"time":169.25581395348837,"velocity":0.2204724409448819},{"duration":0.06976744186047767,"midi":85,"time":169.25581395348837,"velocity":0.29133858267716534},{"duration":0.06976744186047767,"midi":61,"time":169.2674418604651,"velocity":0.48031496062992124},{"duration":0.11627906976744384,"midi":46,"time":169.27906976744185,"velocity":0.2283464566929134},{"duration":0.03488372093025305,"midi":70,"time":169.27906976744185,"velocity":0.07874015748031496},{"duration":0.023255813953511506,"midi":36,"time":169.2906976744186,"velocity":0.25984251968503935},{"duration":0.25581395348837077,"midi":77,"time":169.30232558139534,"velocity":0.2992125984251969},{"duration":0.04651162790699459,"midi":84,"time":169.30232558139534,"velocity":0.1889763779527559},{"duration":0.05813953488370771,"midi":34,"time":169.3139534883721,"velocity":0.2755905511811024},{"duration":0.034883720930224626,"midi":55,"time":169.3139534883721,"velocity":0.2992125984251969},{"duration":0.04651162790696617,"midi":86,"time":169.3139534883721,"velocity":0.2125984251968504},{"duration":0.04651162790696617,"midi":74,"time":169.32558139534885,"velocity":0.3700787401574803},{"duration":0.0813953488371908,"midi":87,"time":169.32558139534885,"velocity":0.10236220472440945},{"duration":0.023255813953483084,"midi":62,"time":169.3372093023256,"velocity":0.4251968503937008},{"duration":0.06976744186044925,"midi":66,"time":169.3372093023256,"velocity":0.2677165354330709},{"duration":0.1046511627907023,"midi":85,"time":169.3372093023256,"velocity":0.29133858267716534},{"duration":0.0813953488371908,"midi":93,"time":169.34883720930233,"velocity":0.2125984251968504},{"duration":0.08139534883721922,"midi":61,"time":169.36046511627907,"velocity":0.4251968503937008},{"duration":0.034883720930224626,"midi":56,"time":169.37209302325581,"velocity":0.11023622047244094},{"duration":0.04651162790699459,"midi":102,"time":169.3953488372093,"velocity":0.2047244094488189},{"duration":0.05813953488373613,"midi":65,"time":169.40697674418604,"velocity":0.25984251968503935},{"duration":0.05813953488373613,"midi":56,"time":169.43023255813952,"velocity":0.18110236220472442},{"duration":0.09302325581396076,"midi":84,"time":169.43023255813952,"velocity":0.16535433070866143},{"duration":0.05813953488373613,"midi":86,"time":169.43023255813952,"velocity":0.1968503937007874},{"duration":0.03488372093025305,"midi":91,"time":169.43023255813952,"velocity":0.07874015748031496},{"duration":0.023255813953483084,"midi":62,"time":169.4418604651163,"velocity":0.2992125984251969},{"duration":0.06976744186044925,"midi":88,"time":169.4418604651163,"velocity":0.15748031496062992},{"duration":0.034883720930224626,"midi":93,"time":169.4418604651163,"velocity":0.09448818897637795},{"duration":0.034883720930224626,"midi":61,"time":169.46511627906978,"velocity":0.41732283464566927},{"duration":0.023255813953483084,"midi":64,"time":169.46511627906978,"velocity":0.2440944881889764},{"duration":0.05813953488370771,"midi":68,"time":169.46511627906978,"velocity":0.2125984251968504},{"duration":0.023255813953483084,"midi":65,"time":169.48837209302326,"velocity":0.28346456692913385},{"duration":0.034883720930224626,"midi":79,"time":169.48837209302326,"velocity":0.2283464566929134},{"duration":0.034883720930224626,"midi":93,"time":169.48837209302326,"velocity":0.12598425196850394},{"duration":0.034883720930224626,"midi":95,"time":169.48837209302326,"velocity":0.1732283464566929},{"duration":0.023255813953483084,"midi":62,"time":169.5,"velocity":0.41732283464566927},{"duration":0.034883720930224626,"midi":103,"time":169.5,"velocity":0.13385826771653545},{"duration":0.011627906976741542,"midi":46,"time":169.52325581395348,"velocity":0.5275590551181102},{"duration":0.034883720930224626,"midi":69,"time":169.52325581395348,"velocity":0.2204724409448819},{"duration":0.023255813953483084,"midi":74,"time":169.52325581395348,"velocity":0.28346456692913385},{"duration":0.011627906976741542,"midi":45,"time":169.53488372093022,"velocity":0.6062992125984252},{"duration":0.03488372093025305,"midi":66,"time":169.53488372093022,"velocity":0.23622047244094488},{"duration":0.05813953488373613,"midi":93,"time":169.53488372093022,"velocity":0.15748031496062992},{"duration":0.011627906976741542,"midi":44,"time":169.54651162790697,"velocity":0.5984251968503937},{"duration":0.023255813953511506,"midi":57,"time":169.54651162790697,"velocity":0.3228346456692913},{"duration":0.26744186046514073,"midi":73,"time":169.54651162790697,"velocity":0.4645669291338583},{"duration":0.011627906976769964,"midi":43,"time":169.5581395348837,"velocity":0.5748031496062992},{"duration":0.05813953488373613,"midi":68,"time":169.5581395348837,"velocity":0.2440944881889764},{"duration":0.08139534883721922,"midi":84,"time":169.5581395348837,"velocity":0.13385826771653545},{"duration":0.04651162790699459,"midi":92,"time":169.5581395348837,"velocity":0.11811023622047244},{"duration":0.011627906976741542,"midi":42,"time":169.56976744186048,"velocity":0.5354330708661418},{"duration":0.20930232558137618,"midi":77,"time":169.56976744186048,"velocity":0.30708661417322836},{"duration":0.034883720930224626,"midi":60,"time":169.59302325581396,"velocity":0.2125984251968504},{"duration":0.04651162790696617,"midi":91,"time":169.59302325581396,"velocity":0.1732283464566929},{"duration":0.023255813953483084,"midi":37,"time":169.61627906976744,"velocity":0.3937007874015748},{"duration":0.08139534883721922,"midi":65,"time":169.61627906976744,"velocity":0.3543307086614173},{"duration":0.023255813953483084,"midi":36,"time":169.63953488372093,"velocity":0.2992125984251969},{"duration":0.04651162790696617,"midi":68,"time":169.63953488372093,"velocity":0.2047244094488189},{"duration":0.1046511627907023,"midi":75,"time":169.63953488372093,"velocity":0.1889763779527559},{"duration":0.3604651162790731,"midi":80,"time":169.63953488372093,"velocity":0.23622047244094488},{"duration":0.08139534883721922,"midi":95,"time":169.65116279069767,"velocity":0.2047244094488189},{"duration":0.05813953488373613,"midi":61,"time":169.6627906976744,"velocity":0.3858267716535433},{"duration":0.19767441860466306,"midi":92,"time":169.67441860465115,"velocity":0.31496062992125984},{"duration":0.03488372093025305,"midi":84,"time":169.6860465116279,"velocity":0.14173228346456693},{"duration":0.09302325581393234,"midi":68,"time":169.7093023255814,"velocity":0.2440944881889764},{"duration":0.06976744186044925,"midi":65,"time":169.7325581395349,"velocity":0.30708661417322836},{"duration":0.04651162790696617,"midi":61,"time":169.74418604651163,"velocity":0.3543307086614173},{"duration":0.034883720930224626,"midi":57,"time":169.75581395348837,"velocity":0.2755905511811024},{"duration":0.034883720930224626,"midi":88,"time":169.75581395348837,"velocity":0.14960629921259844},{"duration":0.04651162790699459,"midi":78,"time":169.7674418604651,"velocity":0.23622047244094488},{"duration":0.04651162790699459,"midi":81,"time":169.7674418604651,"velocity":0.2204724409448819},{"duration":0.1046511627907023,"midi":84,"time":169.7674418604651,"velocity":0.18110236220472442},{"duration":0.034883720930224626,"midi":86,"time":169.7674418604651,"velocity":0.1889763779527559},{"duration":0.034883720930224626,"midi":91,"time":169.7674418604651,"velocity":0.07086614173228346},{"duration":0.04651162790699459,"midi":51,"time":169.77906976744185,"velocity":0.2677165354330709},{"duration":0.08139534883721922,"midi":87,"time":169.77906976744185,"velocity":0.1889763779527559},{"duration":0.023255813953511506,"midi":56,"time":169.7906976744186,"velocity":0.31496062992125984},{"duration":0.08139534883721922,"midi":60,"time":169.7906976744186,"velocity":0.33070866141732286},{"duration":0.06976744186047767,"midi":75,"time":169.7906976744186,"velocity":0.1889763779527559},{"duration":0.04651162790699459,"midi":44,"time":169.80232558139534,"velocity":0.33070866141732286},{"duration":0.09302325581393234,"midi":77,"time":169.8139534883721,"velocity":0.25196850393700787},{"duration":0.06976744186044925,"midi":96,"time":169.8139534883721,"velocity":0.18110236220472442},{"duration":0.04651162790696617,"midi":65,"time":169.82558139534885,"velocity":0.2047244094488189},{"duration":0.0813953488371908,"midi":73,"time":169.82558139534885,"velocity":0.4409448818897638},{"duration":0.023255813953483084,"midi":51,"time":169.8372093023256,"velocity":0.2755905511811024},{"duration":0.023255813953483084,"midi":55,"time":169.8372093023256,"velocity":0.28346456692913385},{"duration":0.023255813953483084,"midi":33,"time":169.84883720930233,"velocity":0.2992125984251969},{"duration":0.04651162790696617,"midi":68,"time":169.84883720930233,"velocity":0.23622047244094488},{"duration":0.04651162790696617,"midi":44,"time":169.86046511627907,"velocity":0.25196850393700787},{"duration":0.034883720930224626,"midi":52,"time":169.86046511627907,"velocity":0.3228346456692913},{"duration":0.08139534883721922,"midi":32,"time":169.87209302325581,"velocity":0.30708661417322836},{"duration":0.034883720930224626,"midi":61,"time":169.87209302325581,"velocity":0.25196850393700787},{"duration":0.05813953488370771,"midi":66,"time":169.87209302325581,"velocity":0.2283464566929134},{"duration":0.034883720930224626,"midi":75,"time":169.87209302325581,"velocity":0.2755905511811024},{"duration":0.034883720930224626,"midi":51,"time":169.8953488372093,"velocity":0.1968503937007874},{"duration":0.034883720930224626,"midi":69,"time":169.8953488372093,"velocity":0.3228346456692913},{"duration":0.05813953488373613,"midi":84,"time":169.8953488372093,"velocity":0.10236220472440945},{"duration":0.3604651162790731,"midi":92,"time":169.8953488372093,"velocity":0.2677165354330709},{"duration":0.04651162790699459,"midi":100,"time":169.8953488372093,"velocity":0.07874015748031496},{"duration":0.023255813953483084,"midi":72,"time":169.90697674418604,"velocity":0.2755905511811024},{"duration":0.03488372093025305,"midi":76,"time":169.90697674418604,"velocity":0.29133858267716534},{"duration":0.06976744186047767,"midi":89,"time":169.90697674418604,"velocity":0.11023622047244094},{"duration":0.1046511627907023,"midi":85,"time":169.91860465116278,"velocity":0.11811023622047244},{"duration":0.06976744186047767,"midi":99,"time":169.91860465116278,"velocity":0.15748031496062992},{"duration":0.05813953488373613,"midi":65,"time":169.93023255813952,"velocity":0.2283464566929134},{"duration":0.03488372093025305,"midi":73,"time":169.93023255813952,"velocity":0.25984251968503935},{"duration":0.06976744186044925,"midi":61,"time":169.9418604651163,"velocity":0.30708661417322836},{"duration":0.22093023255811772,"midi":77,"time":169.9418604651163,"velocity":0.2677165354330709},{"duration":0.0813953488371908,"midi":68,"time":169.95348837209303,"velocity":0.4251968503937008},{"duration":0.023255813953483084,"midi":51,"time":170,"velocity":0.30708661417322836},{"duration":0.023255813953483084,"midi":71,"time":170.02325581395348,"velocity":0.25196850393700787},{"duration":0.1046511627907023,"midi":87,"time":170.02325581395348,"velocity":0.23622047244094488},{"duration":0.06976744186047767,"midi":88,"time":170.02325581395348,"velocity":0.25984251968503935},{"duration":0.08139534883721922,"midi":89,"time":170.02325581395348,"velocity":0.30708661417322836},{"duration":0.17441860465117998,"midi":90,"time":170.02325581395348,"velocity":0.3228346456692913},{"duration":0.05813953488373613,"midi":91,"time":170.02325581395348,"velocity":0.2283464566929134},{"duration":0.05813953488373613,"midi":95,"time":170.02325581395348,"velocity":0.18110236220472442},{"duration":0.5697674418604777,"midi":97,"time":170.02325581395348,"velocity":0.28346456692913385},{"duration":0.2093023255814046,"midi":99,"time":170.02325581395348,"velocity":0.2677165354330709},{"duration":0.023255813953483084,"midi":53,"time":170.03488372093022,"velocity":0.44881889763779526},{"duration":0.18604651162792152,"midi":73,"time":170.03488372093022,"velocity":0.3228346456692913},{"duration":0.03488372093025305,"midi":84,"time":170.03488372093022,"velocity":0.15748031496062992},{"duration":0.13953488372092693,"midi":94,"time":170.03488372093022,"velocity":0.2283464566929134},{"duration":0.18604651162792152,"midi":98,"time":170.03488372093022,"velocity":0.2047244094488189},{"duration":0.023255813953511506,"midi":45,"time":170.04651162790697,"velocity":0.5511811023622047},{"duration":0.023255813953511506,"midi":70,"time":170.04651162790697,"velocity":0.2440944881889764},{"duration":0.023255813953511506,"midi":75,"time":170.04651162790697,"velocity":0.25196850393700787},{"duration":0.023255813953511506,"midi":58,"time":170.0581395348837,"velocity":0.3937007874015748},{"duration":0.09302325581396076,"midi":65,"time":170.0581395348837,"velocity":0.23622047244094488},{"duration":0.05813953488373613,"midi":93,"time":170.0581395348837,"velocity":0.11811023622047244},{"duration":0.011627906976741542,"midi":44,"time":170.06976744186048,"velocity":0.5826771653543307},{"duration":0.034883720930224626,"midi":61,"time":170.06976744186048,"velocity":0.2204724409448819},{"duration":0.11627906976741542,"midi":68,"time":170.06976744186048,"velocity":0.4015748031496063},{"duration":0.011627906976741542,"midi":43,"time":170.08139534883722,"velocity":0.5669291338582677},{"duration":0.1860465116278931,"midi":75,"time":170.08139534883722,"velocity":0.3700787401574803},{"duration":0.011627906976741542,"midi":42,"time":170.09302325581396,"velocity":0.5511811023622047},{"duration":0.023255813953483084,"midi":56,"time":170.09302325581396,"velocity":0.3543307086614173},{"duration":0.05813953488370771,"midi":96,"time":170.09302325581396,"velocity":0.08661417322834646},{"duration":0.023255813953483084,"midi":41,"time":170.1046511627907,"velocity":0.47244094488188976},{"duration":0.05813953488370771,"midi":84,"time":170.1046511627907,"velocity":0.1889763779527559},{"duration":0.04651162790696617,"midi":82,"time":170.11627906976744,"velocity":0.2677165354330709},{"duration":0.04651162790696617,"midi":88,"time":170.11627906976744,"velocity":0.14173228346456693},{"duration":0.023255813953483084,"midi":49,"time":170.12790697674419,"velocity":0.25984251968503935},{"duration":0.023255813953483084,"midi":70,"time":170.13953488372093,"velocity":0.2992125984251969},{"duration":0.04651162790696617,"midi":86,"time":170.13953488372093,"velocity":0.2677165354330709},{"duration":0.03488372093025305,"midi":52,"time":170.1627906976744,"velocity":0.2677165354330709},{"duration":0.023255813953483084,"midi":71,"time":170.1627906976744,"velocity":0.33858267716535434},{"duration":0.05813953488373613,"midi":81,"time":170.1627906976744,"velocity":0.2755905511811024},{"duration":0.023255813953511506,"midi":69,"time":170.17441860465115,"velocity":0.28346456692913385},{"duration":0.1511627906976969,"midi":77,"time":170.17441860465115,"velocity":0.23622047244094488},{"duration":0.06976744186047767,"midi":60,"time":170.1860465116279,"velocity":0.33070866141732286},{"duration":0.03488372093025305,"midi":66,"time":170.1860465116279,"velocity":0.18110236220472442},{"duration":0.19767441860466306,"midi":80,"time":170.1860465116279,"velocity":0.25196850393700787},{"duration":0.10465116279067388,"midi":44,"time":170.19767441860466,"velocity":0.31496062992125984},{"duration":0.10465116279067388,"midi":51,"time":170.19767441860466,"velocity":0.31496062992125984},{"duration":0.0813953488371908,"midi":70,"time":170.19767441860466,"velocity":0.4094488188976378},{"duration":0.05813953488370771,"midi":74,"time":170.19767441860466,"velocity":0.18110236220472442},{"duration":0.06976744186044925,"midi":68,"time":170.22093023255815,"velocity":0.36220472440944884},{"duration":0.04651162790696617,"midi":96,"time":170.22093023255815,"velocity":0.18110236220472442},{"duration":0.034883720930224626,"midi":103,"time":170.22093023255815,"velocity":0.07874015748031496},{"duration":0.13953488372092693,"midi":85,"time":170.24418604651163,"velocity":0.5118110236220472},{"duration":0.05813953488370771,"midi":90,"time":170.24418604651163,"velocity":0.18110236220472442},{"duration":0.08139534883721922,"midi":100,"time":170.24418604651163,"velocity":0.1732283464566929},{"duration":0.1046511627907023,"midi":32,"time":170.25581395348837,"velocity":0.30708661417322836},{"duration":0.034883720930224626,"midi":57,"time":170.25581395348837,"velocity":0.2992125984251969},{"duration":0.08139534883721922,"midi":66,"time":170.2674418604651,"velocity":0.31496062992125984},{"duration":0.034883720930224626,"midi":76,"time":170.2674418604651,"velocity":0.13385826771653545},{"duration":0.023255813953483084,"midi":72,"time":170.27906976744185,"velocity":0.3464566929133858},{"duration":0.04651162790699459,"midi":96,"time":170.27906976744185,"velocity":0.18110236220472442},{"duration":0.06976744186047767,"midi":61,"time":170.2906976744186,"velocity":0.2204724409448819},{"duration":0.38372093023255616,"midi":92,"time":170.2906976744186,"velocity":0.3228346456692913},{"duration":0.08139534883721922,"midi":99,"time":170.2906976744186,"velocity":0.1889763779527559},{"duration":0.03488372093025305,"midi":75,"time":170.30232558139534,"velocity":0.1732283464566929},{"duration":0.03488372093025305,"midi":95,"time":170.30232558139534,"velocity":0.14960629921259844},{"duration":0.04651162790696617,"midi":70,"time":170.3139534883721,"velocity":0.23622047244094488},{"duration":0.034883720930224626,"midi":103,"time":170.3139534883721,"velocity":0.15748031496062992},{"duration":0.023255813953483084,"midi":57,"time":170.32558139534885,"velocity":0.25984251968503935},{"duration":0.04651162790696617,"midi":73,"time":170.32558139534885,"velocity":0.3858267716535433},{"duration":0.4534883720930054,"midi":101,"time":170.32558139534885,"velocity":0.30708661417322836},{"duration":0.04651162790696617,"midi":94,"time":170.3372093023256,"velocity":0.13385826771653545},{"duration":0.13953488372092693,"midi":89,"time":170.34883720930233,"velocity":0.2677165354330709},{"duration":0.15116279069766847,"midi":100,"time":170.34883720930233,"velocity":0.3464566929133858},{"duration":0.05813953488370771,"midi":65,"time":170.36046511627907,"velocity":0.2047244094488189},{"duration":0.034883720930224626,"midi":88,"time":170.36046511627907,"velocity":0.14173228346456693},{"duration":0.034883720930224626,"midi":96,"time":170.36046511627907,"velocity":0.13385826771653545},{"duration":0.13953488372092693,"midi":103,"time":170.36046511627907,"velocity":0.23622047244094488},{"duration":0.023255813953483084,"midi":60,"time":170.37209302325581,"velocity":0.29133858267716534},{"duration":0.034883720930224626,"midi":72,"time":170.37209302325581,"velocity":0.36220472440944884},{"duration":0.034883720930224626,"midi":87,"time":170.38372093023256,"velocity":0.1968503937007874},{"duration":0.19767441860466306,"midi":95,"time":170.38372093023256,"velocity":0.1968503937007874},{"duration":0.034883720930224626,"midi":59,"time":170.3953488372093,"velocity":0.3779527559055118},{"duration":0.12790697674418539,"midi":70,"time":170.40697674418604,"velocity":0.4645669291338583},{"duration":0.03488372093025305,"midi":78,"time":170.40697674418604,"velocity":0.1732283464566929},{"duration":0.08139534883721922,"midi":85,"time":170.40697674418604,"velocity":0.23622047244094488},{"duration":0.06976744186047767,"midi":86,"time":170.41860465116278,"velocity":0.25984251968503935},{"duration":0.1046511627907023,"midi":88,"time":170.41860465116278,"velocity":0.2283464566929134},{"duration":0.08139534883721922,"midi":96,"time":170.41860465116278,"velocity":0.2283464566929134},{"duration":0.03488372093025305,"midi":58,"time":170.43023255813952,"velocity":0.4015748031496063},{"duration":0.05813953488373613,"midi":61,"time":170.43023255813952,"velocity":0.3700787401574803},{"duration":0.03488372093025305,"midi":91,"time":170.43023255813952,"velocity":0.2047244094488189},{"duration":0.05813953488370771,"midi":77,"time":170.4418604651163,"velocity":0.1889763779527559},{"duration":0.04651162790696617,"midi":79,"time":170.4418604651163,"velocity":0.2047244094488189},{"duration":0.11627906976744384,"midi":49,"time":170.45348837209303,"velocity":0.28346456692913385},{"duration":0.04651162790696617,"midi":66,"time":170.45348837209303,"velocity":0.3228346456692913},{"duration":0.034883720930224626,"midi":75,"time":170.45348837209303,"velocity":0.14960629921259844},{"duration":0.034883720930224626,"midi":90,"time":170.45348837209303,"velocity":0.13385826771653545},{"duration":0.034883720930224626,"midi":84,"time":170.47674418604652,"velocity":0.11023622047244094},{"duration":0.08139534883721922,"midi":37,"time":170.48837209302326,"velocity":0.31496062992125984},{"duration":0.034883720930224626,"midi":72,"time":170.48837209302326,"velocity":0.14960629921259844},{"duration":0.05813953488370771,"midi":85,"time":170.5,"velocity":0.2440944881889764},{"duration":0.034883720930224626,"midi":61,"time":170.51162790697674,"velocity":0.4251968503937008},{"duration":0.03488372093025305,"midi":68,"time":170.53488372093022,"velocity":0.2755905511811024},{"duration":0.04651162790699459,"midi":100,"time":170.53488372093022,"velocity":0.11811023622047244},{"duration":0.03488372093025305,"midi":65,"time":170.54651162790697,"velocity":0.3464566929133858},{"duration":0.03488372093025305,"midi":83,"time":170.54651162790697,"velocity":0.1732283464566929},{"duration":0.05813953488373613,"midi":86,"time":170.54651162790697,"velocity":0.09448818897637795},{"duration":0.03488372093025305,"midi":88,"time":170.54651162790697,"velocity":0.29133858267716534},{"duration":0.04651162790699459,"midi":90,"time":170.54651162790697,"velocity":0.2047244094488189},{"duration":0.4767441860465169,"midi":96,"time":170.54651162790697,"velocity":0.41732283464566927},{"duration":0.05813953488373613,"midi":98,"time":170.54651162790697,"velocity":0.16535433070866143},{"duration":0.24418604651162923,"midi":103,"time":170.54651162790697,"velocity":0.31496062992125984},{"duration":0.18604651162792152,"midi":77,"time":170.5581395348837,"velocity":0.4566929133858268},{"duration":0.05813953488373613,"midi":84,"time":170.5581395348837,"velocity":0.2047244094488189},{"duration":0.26744186046514073,"midi":93,"time":170.5581395348837,"velocity":0.3464566929133858},{"duration":0.03488372093025305,"midi":94,"time":170.5581395348837,"velocity":0.11023622047244094},{"duration":0.13953488372092693,"midi":61,"time":170.56976744186048,"velocity":0.33070866141732286},{"duration":0.034883720930224626,"midi":81,"time":170.56976744186048,"velocity":0.23622047244094488},{"duration":0.2906976744185954,"midi":99,"time":170.56976744186048,"velocity":0.2755905511811024},{"duration":0.011627906976741542,"midi":48,"time":170.58139534883722,"velocity":0.5275590551181102},{"duration":0.011627906976741542,"midi":45,"time":170.59302325581396,"velocity":0.6062992125984252},{"duration":0.034883720930224626,"midi":54,"time":170.59302325581396,"velocity":0.31496062992125984},{"duration":0.023255813953483084,"midi":69,"time":170.59302325581396,"velocity":0.30708661417322836},{"duration":0.0813953488371908,"midi":73,"time":170.59302325581396,"velocity":0.33070866141732286},{"duration":0.011627906976741542,"midi":44,"time":170.6046511627907,"velocity":0.6062992125984252},{"duration":0.023255813953483084,"midi":65,"time":170.6046511627907,"velocity":0.2440944881889764},{"duration":0.1046511627907023,"midi":70,"time":170.6046511627907,"velocity":0.3543307086614173},{"duration":0.06976744186044925,"midi":80,"time":170.6046511627907,"velocity":0.2677165354330709},{"duration":0.15116279069766847,"midi":82,"time":170.6046511627907,"velocity":0.3543307086614173},{"duration":0.3953488372092977,"midi":97,"time":170.6046511627907,"velocity":0.3464566929133858},{"duration":0.011627906976741542,"midi":43,"time":170.61627906976744,"velocity":0.5433070866141733},{"duration":0.023255813953483084,"midi":55,"time":170.62790697674419,"velocity":0.2992125984251969},{"duration":0.023255813953483084,"midi":66,"time":170.62790697674419,"velocity":0.23622047244094488},{"duration":0.08139534883721922,"midi":86,"time":170.62790697674419,"velocity":0.1889763779527559},{"duration":0.1046511627907023,"midi":84,"time":170.63953488372093,"velocity":0.23622047244094488},{"duration":0.034883720930224626,"midi":65,"time":170.65116279069767,"velocity":0.23622047244094488},{"duration":0.04651162790699459,"midi":88,"time":170.65116279069767,"velocity":0.07874015748031496},{"duration":0.05813953488373613,"midi":81,"time":170.67441860465115,"velocity":0.2125984251968504},{"duration":0.03488372093025305,"midi":95,"time":170.67441860465115,"velocity":0.08661417322834646},{"duration":0.11627906976744384,"midi":92,"time":170.6860465116279,"velocity":0.2047244094488189},{"duration":0.10465116279067388,"midi":54,"time":170.69767441860466,"velocity":0.2440944881889764},{"duration":0.09302325581393234,"midi":65,"time":170.69767441860466,"velocity":0.4094488188976378},{"duration":0.023255813953483084,"midi":36,"time":170.7093023255814,"velocity":0.31496062992125984},{"duration":0.034883720930224626,"midi":83,"time":170.7093023255814,"velocity":0.11811023622047244},{"duration":0.034883720930224626,"midi":86,"time":170.72093023255815,"velocity":0.08661417322834646},{"duration":0.09302325581396076,"midi":102,"time":170.72093023255815,"velocity":0.18110236220472442},{"duration":0.034883720930224626,"midi":39,"time":170.7325581395349,"velocity":0.14173228346456693},{"duration":0.09302325581396076,"midi":70,"time":170.7325581395349,"velocity":0.2047244094488189},{"duration":0.034883720930224626,"midi":80,"time":170.7325581395349,"velocity":0.23622047244094488},{"duration":0.08139534883721922,"midi":95,"time":170.7325581395349,"velocity":0.2283464566929134},{"duration":0.08139534883721922,"midi":73,"time":170.75581395348837,"velocity":0.3700787401574803},{"duration":0.06976744186047767,"midi":84,"time":170.75581395348837,"velocity":0.1889763779527559},{"duration":0.04651162790699459,"midi":82,"time":170.77906976744185,"velocity":0.2125984251968504},{"duration":0.03488372093025305,"midi":66,"time":170.7906976744186,"velocity":0.29133858267716534},{"duration":0.023255813953511506,"midi":55,"time":170.80232558139534,"velocity":0.23622047244094488},{"duration":0.034883720930224626,"midi":86,"time":170.8139534883721,"velocity":0.07086614173228346},{"duration":0.06976744186044925,"midi":103,"time":170.8139534883721,"velocity":0.10236220472440945},{"duration":0.04651162790696617,"midi":69,"time":170.82558139534885,"velocity":0.23622047244094488},{"duration":0.034883720930224626,"midi":84,"time":170.8372093023256,"velocity":0.15748031496062992},{"duration":0.11627906976744384,"midi":66,"time":170.84883720930233,"velocity":0.2992125984251969},{"duration":0.1046511627907023,"midi":82,"time":170.84883720930233,"velocity":0.15748031496062992},{"duration":0.034883720930224626,"midi":54,"time":170.86046511627907,"velocity":0.2677165354330709},{"duration":0.13953488372092693,"midi":70,"time":170.86046511627907,"velocity":0.3779527559055118},{"duration":0.09302325581396076,"midi":61,"time":170.87209302325581,"velocity":0.2992125984251969},{"duration":0.023255813953511506,"midi":54,"time":170.93023255813952,"velocity":0.2283464566929134},{"duration":0.04651162790699459,"midi":99,"time":170.93023255813952,"velocity":0.11811023622047244},{"duration":0.05813953488373613,"midi":100,"time":170.93023255813952,"velocity":0.2755905511811024},{"duration":0.09302325581393234,"midi":98,"time":170.9418604651163,"velocity":0.2992125984251969},{"duration":0.05813953488370771,"midi":102,"time":170.9418604651163,"velocity":0.2992125984251969},{"duration":0.023255813953483084,"midi":64,"time":170.95348837209303,"velocity":0.4409448818897638},{"duration":0.0813953488371908,"midi":81,"time":170.95348837209303,"velocity":0.14960629921259844},{"duration":0.10465116279067388,"midi":92,"time":170.95348837209303,"velocity":0.14960629921259844},{"duration":0.04651162790696617,"midi":95,"time":170.95348837209303,"velocity":0.2283464566929134},{"duration":0.22093023255814614,"midi":65,"time":170.97674418604652,"velocity":0.5590551181102362},{"duration":0.023255813953483084,"midi":73,"time":170.97674418604652,"velocity":0.36220472440944884},{"duration":0.22093023255814614,"midi":93,"time":170.97674418604652,"velocity":0.2677165354330709},{"duration":0.17441860465115155,"midi":103,"time":170.97674418604652,"velocity":0.29133858267716534},{"duration":0.023255813953483084,"midi":69,"time":170.98837209302326,"velocity":0.3858267716535433},{"duration":0.023255813953483084,"midi":74,"time":171,"velocity":0.28346456692913385},{"duration":0.1860465116278931,"midi":84,"time":171,"velocity":0.2047244094488189},{"duration":0.04651162790696617,"midi":99,"time":171,"velocity":0.09448818897637795},{"duration":0.034883720930224626,"midi":70,"time":171.01162790697674,"velocity":0.3700787401574803},{"duration":0.19767441860466306,"midi":97,"time":171.01162790697674,"velocity":0.2677165354330709},{"duration":0.11627906976744384,"midi":102,"time":171.01162790697674,"velocity":0.1889763779527559},{"duration":0.023255813953483084,"midi":73,"time":171.02325581395348,"velocity":0.28346456692913385},{"duration":0.16279069767443843,"midi":96,"time":171.03488372093022,"velocity":0.31496062992125984},{"duration":0.04651162790699459,"midi":55,"time":171.0581395348837,"velocity":0.4094488188976378},{"duration":0.04651162790699459,"midi":70,"time":171.0581395348837,"velocity":0.3464566929133858},{"duration":0.30232558139536536,"midi":73,"time":171.0581395348837,"velocity":0.33070866141732286},{"duration":0.023255813953483084,"midi":68,"time":171.06976744186048,"velocity":0.36220472440944884},{"duration":0.0813953488371908,"midi":90,"time":171.08139534883722,"velocity":0.29133858267716534},{"duration":0.0813953488371908,"midi":94,"time":171.08139534883722,"velocity":0.2204724409448819},{"duration":0.034883720930224626,"midi":95,"time":171.08139534883722,"velocity":0.2204724409448819},{"duration":0.09302325581393234,"midi":99,"time":171.08139534883722,"velocity":0.14173228346456693},{"duration":0.034883720930224626,"midi":60,"time":171.09302325581396,"velocity":0.3779527559055118},{"duration":0.034883720930224626,"midi":87,"time":171.09302325581396,"velocity":0.2204724409448819},{"duration":0.04651162790696617,"midi":98,"time":171.09302325581396,"velocity":0.13385826771653545},{"duration":0.023255813953483084,"midi":45,"time":171.1046511627907,"velocity":0.5433070866141733},{"duration":0.09302325581396076,"midi":88,"time":171.1046511627907,"velocity":0.14960629921259844},{"duration":0.011627906976741542,"midi":44,"time":171.12790697674419,"velocity":0.5826771653543307},{"duration":0.034883720930224626,"midi":70,"time":171.12790697674419,"velocity":0.14173228346456693},{"duration":0.034883720930224626,"midi":95,"time":171.12790697674419,"velocity":0.16535433070866143},{"duration":0.011627906976741542,"midi":43,"time":171.13953488372093,"velocity":0.5511811023622047},{"duration":0.06976744186047767,"midi":68,"time":171.13953488372093,"velocity":0.28346456692913385},{"duration":0.011627906976741542,"midi":42,"time":171.15116279069767,"velocity":0.5354330708661418},{"duration":0.023255813953511506,"midi":38,"time":171.1860465116279,"velocity":0.4015748031496063},{"duration":0.11627906976744384,"midi":61,"time":171.19767441860466,"velocity":0.33858267716535434},{"duration":0.13953488372092693,"midi":70,"time":171.19767441860466,"velocity":0.23622047244094488},{"duration":0.034883720930224626,"midi":66,"time":171.2093023255814,"velocity":0.3700787401574803},{"duration":0.023255813953483084,"midi":36,"time":171.22093023255815,"velocity":0.2992125984251969},{"duration":0.04651162790696617,"midi":68,"time":171.22093023255815,"velocity":0.2204724409448819},{"duration":0.034883720930224626,"midi":93,"time":171.22093023255815,"velocity":0.15748031496062992},{"duration":0.04651162790696617,"midi":65,"time":171.24418604651163,"velocity":0.31496062992125984},{"duration":0.04651162790696617,"midi":81,"time":171.24418604651163,"velocity":0.18110236220472442},{"duration":0.04651162790696617,"midi":55,"time":171.25581395348837,"velocity":0.2755905511811024},{"duration":0.05813953488373613,"midi":36,"time":171.27906976744185,"velocity":0.3228346456692913},{"duration":0.04651162790699459,"midi":65,"time":171.30232558139534,"velocity":0.33070866141732286},{"duration":0.034883720930224626,"midi":88,"time":171.3372093023256,"velocity":0.2204724409448819},{"duration":0.06976744186044925,"midi":94,"time":171.3372093023256,"velocity":0.31496062992125984},{"duration":0.034883720930224626,"midi":62,"time":171.34883720930233,"velocity":0.4330708661417323},{"duration":0.04651162790696617,"midi":75,"time":171.34883720930233,"velocity":0.44881889763779526},{"duration":0.06976744186044925,"midi":80,"time":171.34883720930233,"velocity":0.3228346456692913},{"duration":0.04651162790696617,"midi":82,"time":171.34883720930233,"velocity":0.2992125984251969},{"duration":0.034883720930224626,"midi":90,"time":171.34883720930233,"velocity":0.15748031496062992},{"duration":0.05813953488370771,"midi":91,"time":171.34883720930233,"velocity":0.2283464566929134},{"duration":0.15116279069766847,"midi":92,"time":171.34883720930233,"velocity":0.33070866141732286},{"duration":0.11627906976744384,"midi":97,"time":171.34883720930233,"velocity":0.2440944881889764},{"duration":0.1046511627907023,"midi":83,"time":171.36046511627907,"velocity":0.4330708661417323},{"duration":0.034883720930224626,"midi":84,"time":171.36046511627907,"velocity":0.2283464566929134},{"duration":0.22093023255814614,"midi":87,"time":171.36046511627907,"velocity":0.4645669291338583},{"duration":0.023255813953483084,"midi":45,"time":171.37209302325581,"velocity":0.2992125984251969},{"duration":0.023255813953483084,"midi":53,"time":171.37209302325581,"velocity":0.25984251968503935},{"duration":0.023255813953483084,"midi":56,"time":171.37209302325581,"velocity":0.25984251968503935},{"duration":0.023255813953483084,"midi":61,"time":171.37209302325581,"velocity":0.29133858267716534},{"duration":0.034883720930224626,"midi":68,"time":171.37209302325581,"velocity":0.29133858267716534},{"duration":0.06976744186047767,"midi":93,"time":171.38372093023256,"velocity":0.25984251968503935},{"duration":0.04651162790699459,"midi":46,"time":171.3953488372093,"velocity":0.25196850393700787},{"duration":0.04651162790699459,"midi":63,"time":171.3953488372093,"velocity":0.2755905511811024},{"duration":0.034883720930224626,"midi":76,"time":171.3953488372093,"velocity":0.4251968503937008},{"duration":0.05813953488373613,"midi":81,"time":171.3953488372093,"velocity":0.41732283464566927},{"duration":0.034883720930224626,"midi":85,"time":171.3953488372093,"velocity":0.3228346456692913},{"duration":0.023255813953483084,"midi":56,"time":171.40697674418604,"velocity":0.2440944881889764},{"duration":0.06976744186047767,"midi":90,"time":171.40697674418604,"velocity":0.1968503937007874},{"duration":0.05813953488373613,"midi":60,"time":171.41860465116278,"velocity":0.29133858267716534},{"duration":0.19767441860466306,"midi":94,"time":171.41860465116278,"velocity":0.23622047244094488},{"duration":0.03488372093025305,"midi":103,"time":171.41860465116278,"velocity":0.10236220472440945},{"duration":0.06976744186047767,"midi":34,"time":171.43023255813952,"velocity":0.2755905511811024},{"duration":0.12790697674418539,"midi":75,"time":171.43023255813952,"velocity":0.31496062992125984},{"duration":0.12790697674418539,"midi":80,"time":171.43023255813952,"velocity":0.30708661417322836},{"duration":0.4186046511628092,"midi":84,"time":171.43023255813952,"velocity":0.41732283464566927},{"duration":0.43023255813955075,"midi":91,"time":171.43023255813952,"velocity":0.4330708661417323},{"duration":0.034883720930224626,"midi":64,"time":171.4418604651163,"velocity":0.25196850393700787},{"duration":0.034883720930224626,"midi":68,"time":171.45348837209303,"velocity":0.16535433070866143},{"duration":0.05813953488370771,"midi":98,"time":171.45348837209303,"velocity":0.23622047244094488},{"duration":0.023255813953483084,"midi":53,"time":171.46511627906978,"velocity":0.2283464566929134},{"duration":0.0813953488371908,"midi":82,"time":171.46511627906978,"velocity":0.5118110236220472},{"duration":0.034883720930224626,"midi":101,"time":171.46511627906978,"velocity":0.11023622047244094},{"duration":0.05813953488370771,"midi":63,"time":171.47674418604652,"velocity":0.3228346456692913},{"duration":0.04651162790696617,"midi":73,"time":171.47674418604652,"velocity":0.11811023622047244},{"duration":0.034883720930224626,"midi":90,"time":171.48837209302326,"velocity":0.25984251968503935},{"duration":0.04651162790696617,"midi":93,"time":171.48837209302326,"velocity":0.2047244094488189},{"duration":0.034883720930224626,"midi":100,"time":171.48837209302326,"velocity":0.07086614173228346},{"duration":0.034883720930224626,"midi":70,"time":171.5,"velocity":0.12598425196850394},{"duration":0.09302325581396076,"midi":86,"time":171.5,"velocity":0.2755905511811024},{"duration":0.12790697674418539,"midi":60,"time":171.51162790697674,"velocity":0.2992125984251969},{"duration":0.04651162790699459,"midi":68,"time":171.52325581395348,"velocity":0.1889763779527559},{"duration":0.1046511627907023,"midi":97,"time":171.52325581395348,"velocity":0.18110236220472442},{"duration":0.04651162790699459,"midi":100,"time":171.53488372093022,"velocity":0.2125984251968504},{"duration":0.023255813953511506,"midi":83,"time":171.54651162790697,"velocity":0.47244094488188976},{"duration":0.1046511627907023,"midi":102,"time":171.54651162790697,"velocity":0.1968503937007874},{"duration":0.03488372093025305,"midi":76,"time":171.5581395348837,"velocity":0.4094488188976378},{"duration":0.06976744186047767,"midi":79,"time":171.5581395348837,"velocity":0.14960629921259844},{"duration":0.3604651162790731,"midi":82,"time":171.5581395348837,"velocity":0.4881889763779528},{"duration":0.5813953488371908,"midi":72,"time":171.56976744186048,"velocity":0.3779527559055118},{"duration":0.023255813953483084,"midi":80,"time":171.56976744186048,"velocity":0.2677165354330709},{"duration":0.4186046511627808,"midi":87,"time":171.59302325581396,"velocity":0.3858267716535433},{"duration":0.023255813953483084,"midi":76,"time":171.6046511627907,"velocity":0.31496062992125984},{"duration":0.04651162790696617,"midi":77,"time":171.6046511627907,"velocity":0.2204724409448819},{"duration":0.04651162790696617,"midi":101,"time":171.6046511627907,"velocity":0.16535433070866143},{"duration":0.05813953488370771,"midi":80,"time":171.61627906976744,"velocity":0.2125984251968504},{"duration":0.023255813953483084,"midi":90,"time":171.61627906976744,"velocity":0.25196850393700787},{"duration":0.06976744186044925,"midi":93,"time":171.61627906976744,"velocity":0.1732283464566929},{"duration":0.05813953488370771,"midi":70,"time":171.62790697674419,"velocity":0.12598425196850394},{"duration":0.18604651162792152,"midi":75,"time":171.62790697674419,"velocity":0.4645669291338583},{"duration":0.011627906976741542,"midi":48,"time":171.63953488372093,"velocity":0.5118110236220472},{"duration":0.5,"midi":63,"time":171.63953488372093,"velocity":0.3700787401574803},{"duration":0.011627906976741542,"midi":45,"time":171.65116279069767,"velocity":0.5669291338582677},{"duration":0.011627906976741542,"midi":44,"time":171.6627906976744,"velocity":0.5590551181102362},{"duration":0.023255813953511506,"midi":42,"time":171.67441860465115,"velocity":0.5433070866141733},{"duration":0.04651162790699459,"midi":51,"time":171.67441860465115,"velocity":0.2204724409448819},{"duration":0.05813953488373613,"midi":80,"time":171.6860465116279,"velocity":0.28346456692913385},{"duration":0.06976744186047767,"midi":97,"time":171.6860465116279,"velocity":0.2125984251968504},{"duration":0.03488372093025305,"midi":101,"time":171.6860465116279,"velocity":0.11023622047244094},{"duration":0.023255813953483084,"midi":40,"time":171.7093023255814,"velocity":0.4015748031496063},{"duration":0.1046511627907023,"midi":60,"time":171.72093023255815,"velocity":0.2677165354330709},{"duration":0.05813953488370771,"midi":95,"time":171.72093023255815,"velocity":0.1732283464566929},{"duration":0.04651162790696617,"midi":51,"time":171.7325581395349,"velocity":0.10236220472440945},{"duration":0.4186046511627808,"midi":68,"time":171.74418604651163,"velocity":0.3858267716535433},{"duration":0.04651162790696617,"midi":81,"time":171.74418604651163,"velocity":0.3700787401574803},{"duration":0.034883720930224626,"midi":101,"time":171.74418604651163,"velocity":0.08661417322834646},{"duration":0.06976744186047767,"midi":88,"time":171.75581395348837,"velocity":0.13385826771653545},{"duration":0.023255813953483084,"midi":34,"time":171.7674418604651,"velocity":0.2677165354330709},{"duration":0.08139534883721922,"midi":97,"time":171.7674418604651,"velocity":0.2047244094488189},{"duration":0.023255813953511506,"midi":83,"time":171.80232558139534,"velocity":0.25196850393700787},{"duration":0.11627906976744384,"midi":75,"time":171.82558139534885,"velocity":0.41732283464566927},{"duration":0.04651162790696617,"midi":86,"time":171.87209302325581,"velocity":0.1889763779527559},{"duration":0.034883720930224626,"midi":88,"time":171.87209302325581,"velocity":0.14960629921259844},{"duration":0.09302325581396076,"midi":56,"time":171.88372093023256,"velocity":0.28346456692913385},{"duration":0.034883720930224626,"midi":89,"time":171.88372093023256,"velocity":0.18110236220472442},{"duration":0.1046511627907023,"midi":44,"time":171.8953488372093,"velocity":0.33858267716535434},{"duration":0.12790697674418539,"midi":51,"time":171.8953488372093,"velocity":0.2677165354330709},{"duration":0.05813953488373613,"midi":66,"time":171.8953488372093,"velocity":0.1889763779527559},{"duration":0.15116279069766847,"midi":91,"time":171.8953488372093,"velocity":0.18110236220472442},{"duration":0.03488372093025305,"midi":93,"time":171.90697674418604,"velocity":0.08661417322834646},{"duration":0.03488372093025305,"midi":81,"time":171.91860465116278,"velocity":0.2440944881889764},{"duration":0.05813953488373613,"midi":94,"time":171.91860465116278,"velocity":0.08661417322834646},{"duration":0.1046511627907023,"midi":82,"time":171.93023255813952,"velocity":0.28346456692913385},{"duration":0.09302325581393234,"midi":60,"time":171.96511627906978,"velocity":0.23622047244094488},{"duration":0.09302325581396076,"midi":32,"time":171.97674418604652,"velocity":0.29133858267716534},{"duration":0.034883720930224626,"midi":81,"time":172.01162790697674,"velocity":0.10236220472440945},{"duration":0.06976744186047767,"midi":94,"time":172.04651162790697,"velocity":0.07086614173228346},{"duration":0.05813953488373613,"midi":97,"time":172.0581395348837,"velocity":0.09448818897637795},{"duration":0.23255813953485927,"midi":82,"time":172.06976744186048,"velocity":0.25984251968503935},{"duration":0.12790697674418539,"midi":91,"time":172.06976744186048,"velocity":0.2125984251968504},{"duration":0.19767441860466306,"midi":99,"time":172.11627906976744,"velocity":0.25196850393700787},{"duration":0.034883720930224626,"midi":73,"time":172.13953488372093,"velocity":0.1732283464566929},{"duration":0.034883720930224626,"midi":77,"time":172.13953488372093,"velocity":0.11811023622047244},{"duration":0.034883720930224626,"midi":83,"time":172.13953488372093,"velocity":0.18110236220472442},{"duration":0.05813953488373613,"midi":89,"time":172.13953488372093,"velocity":0.2677165354330709},{"duration":0.06976744186047767,"midi":95,"time":172.13953488372093,"velocity":0.1968503937007874},{"duration":0.11627906976744384,"midi":96,"time":172.13953488372093,"velocity":0.2125984251968504},{"duration":0.09302325581396076,"midi":97,"time":172.13953488372093,"velocity":0.2677165354330709},{"duration":0.05813953488373613,"midi":100,"time":172.13953488372093,"velocity":0.1732283464566929},{"duration":0.08139534883721922,"midi":102,"time":172.13953488372093,"velocity":0.2440944881889764},{"duration":0.04651162790699459,"midi":60,"time":172.15116279069767,"velocity":0.4094488188976378},{"duration":0.06976744186047767,"midi":88,"time":172.15116279069767,"velocity":0.2125984251968504},{"duration":0.08139534883721922,"midi":90,"time":172.15116279069767,"velocity":0.3228346456692913},{"duration":0.09302325581396076,"midi":93,"time":172.15116279069767,"velocity":0.16535433070866143},{"duration":0.023255813953483084,"midi":45,"time":172.1627906976744,"velocity":0.5669291338582677},{"duration":0.3953488372092977,"midi":63,"time":172.1627906976744,"velocity":0.2440944881889764},{"duration":0.06976744186047767,"midi":84,"time":172.1627906976744,"velocity":0.25984251968503935},{"duration":0.03488372093025305,"midi":98,"time":172.1627906976744,"velocity":0.14960629921259844},{"duration":0.1511627906976969,"midi":68,"time":172.17441860465115,"velocity":0.3464566929133858},{"duration":0.1046511627907023,"midi":85,"time":172.17441860465115,"velocity":0.1732283464566929},{"duration":0.011627906976769964,"midi":44,"time":172.1860465116279,"velocity":0.6062992125984252},{"duration":0.011627906976741542,"midi":43,"time":172.19767441860466,"velocity":0.5748031496062992},{"duration":0.04651162790696617,"midi":56,"time":172.19767441860466,"velocity":0.30708661417322836},{"duration":0.011627906976741542,"midi":42,"time":172.2093023255814,"velocity":0.5511811023622047},{"duration":0.034883720930224626,"midi":60,"time":172.2093023255814,"velocity":0.16535433070866143},{"duration":0.09302325581396076,"midi":89,"time":172.22093023255815,"velocity":0.15748031496062992},{"duration":0.05813953488370771,"midi":87,"time":172.2325581395349,"velocity":0.1968503937007874},{"duration":0.023255813953483084,"midi":53,"time":172.24418604651163,"velocity":0.2677165354330709},{"duration":0.09302325581396076,"midi":97,"time":172.24418604651163,"velocity":0.1968503937007874},{"duration":0.023255813953483084,"midi":37,"time":172.25581395348837,"velocity":0.4015748031496063},{"duration":0.12790697674418539,"midi":75,"time":172.2674418604651,"velocity":0.29133858267716534},{"duration":0.023255813953483084,"midi":36,"time":172.27906976744185,"velocity":0.31496062992125984},{"duration":0.08139534883721922,"midi":70,"time":172.27906976744185,"velocity":0.4566929133858268},{"duration":0.04651162790699459,"midi":83,"time":172.27906976744185,"velocity":0.25196850393700787},{"duration":0.04651162790699459,"midi":96,"time":172.27906976744185,"velocity":0.2125984251968504},{"duration":0.023255813953511506,"midi":58,"time":172.2906976744186,"velocity":0.33070866141732286},{"duration":0.04651162790699459,"midi":87,"time":172.30232558139534,"velocity":0.33858267716535434},{"duration":0.023255813953483084,"midi":56,"time":172.3139534883721,"velocity":0.2440944881889764},{"duration":0.034883720930224626,"midi":86,"time":172.32558139534885,"velocity":0.25196850393700787},{"duration":0.023255813953483084,"midi":58,"time":172.3372093023256,"velocity":0.28346456692913385},{"duration":0.0813953488371908,"midi":68,"time":172.3372093023256,"velocity":0.25196850393700787},{"duration":0.0813953488371908,"midi":72,"time":172.34883720930233,"velocity":0.5118110236220472},{"duration":0.09302325581396076,"midi":56,"time":172.37209302325581,"velocity":0.3228346456692913},{"duration":0.13953488372092693,"midi":83,"time":172.37209302325581,"velocity":0.25984251968503935},{"duration":0.06976744186047767,"midi":88,"time":172.38372093023256,"velocity":0.2125984251968504},{"duration":0.04651162790699459,"midi":85,"time":172.3953488372093,"velocity":0.3543307086614173},{"duration":0.12790697674418539,"midi":81,"time":172.40697674418604,"velocity":0.2283464566929134},{"duration":0.03488372093025305,"midi":99,"time":172.40697674418604,"velocity":0.09448818897637795},{"duration":0.04651162790699459,"midi":102,"time":172.40697674418604,"velocity":0.2283464566929134},{"duration":0.023255813953511506,"midi":69,"time":172.41860465116278,"velocity":0.25984251968503935},{"duration":0.023255813953511506,"midi":73,"time":172.41860465116278,"velocity":0.47244094488188976},{"duration":0.11627906976744384,"midi":100,"time":172.41860465116278,"velocity":0.2204724409448819},{"duration":0.023255813953511506,"midi":60,"time":172.43023255813952,"velocity":0.25196850393700787},{"duration":0.18604651162792152,"midi":68,"time":172.43023255813952,"velocity":0.33858267716535434},{"duration":0.023255813953483084,"midi":39,"time":172.4418604651163,"velocity":0.31496062992125984},{"duration":0.05813953488370771,"midi":72,"time":172.4418604651163,"velocity":0.4251968503937008},{"duration":0.10465116279067388,"midi":75,"time":172.4418604651163,"velocity":0.2677165354330709},{"duration":0.034883720930224626,"midi":71,"time":172.45348837209303,"velocity":0.28346456692913385},{"duration":0.034883720930224626,"midi":101,"time":172.45348837209303,"velocity":0.15748031496062992},{"duration":0.034883720930224626,"midi":58,"time":172.46511627906978,"velocity":0.3700787401574803},{"duration":0.06976744186044925,"midi":102,"time":172.47674418604652,"velocity":0.16535433070866143},{"duration":0.04651162790696617,"midi":99,"time":172.5,"velocity":0.18110236220472442},{"duration":0.023255813953483084,"midi":58,"time":172.51162790697674,"velocity":0.3779527559055118},{"duration":0.04651162790696617,"midi":85,"time":172.51162790697674,"velocity":0.11023622047244094},{"duration":0.04651162790696617,"midi":101,"time":172.51162790697674,"velocity":0.2125984251968504},{"duration":0.034883720930224626,"midi":88,"time":172.52325581395348,"velocity":0.2047244094488189},{"duration":0.034883720930224626,"midi":92,"time":172.52325581395348,"velocity":0.07874015748031496},{"duration":0.03488372093025305,"midi":57,"time":172.53488372093022,"velocity":0.33070866141732286},{"duration":0.08139534883721922,"midi":72,"time":172.53488372093022,"velocity":0.23622047244094488},{"duration":0.023255813953511506,"midi":39,"time":172.54651162790697,"velocity":0.23622047244094488},{"duration":0.06976744186047767,"midi":77,"time":172.54651162790697,"velocity":0.14960629921259844},{"duration":0.04651162790699459,"midi":81,"time":172.54651162790697,"velocity":0.1732283464566929},{"duration":0.03488372093025305,"midi":89,"time":172.54651162790697,"velocity":0.2204724409448819},{"duration":0.12790697674418539,"midi":51,"time":172.56976744186048,"velocity":0.4094488188976378},{"duration":0.05813953488370771,"midi":60,"time":172.56976744186048,"velocity":0.11023622047244094},{"duration":0.09302325581393234,"midi":75,"time":172.56976744186048,"velocity":0.18110236220472442},{"duration":0.023255813953483084,"midi":44,"time":172.58139534883722,"velocity":0.3228346456692913},{"duration":0.05813953488370771,"midi":70,"time":172.58139534883722,"velocity":0.14173228346456693},{"duration":0.04651162790696617,"midi":85,"time":172.6046511627907,"velocity":0.11023622047244094},{"duration":0.04651162790696617,"midi":44,"time":172.61627906976744,"velocity":0.2440944881889764},{"duration":0.04651162790696617,"midi":73,"time":172.61627906976744,"velocity":0.2677165354330709},{"duration":0.05813953488373613,"midi":32,"time":172.63953488372093,"velocity":0.29133858267716534},{"duration":0.09302325581396076,"midi":99,"time":172.6627906976744,"velocity":0.16535433070866143},{"duration":0.06976744186047767,"midi":101,"time":172.6627906976744,"velocity":0.2283464566929134},{"duration":0.4767441860465169,"midi":102,"time":172.6627906976744,"velocity":0.3937007874015748},{"duration":0.08139534883721922,"midi":78,"time":172.67441860465115,"velocity":0.23622047244094488},{"duration":0.04651162790699459,"midi":83,"time":172.67441860465115,"velocity":0.11811023622047244},{"duration":0.08139534883721922,"midi":86,"time":172.67441860465115,"velocity":0.15748031496062992},{"duration":0.5116279069767415,"midi":87,"time":172.67441860465115,"velocity":0.33070866141732286},{"duration":0.04651162790699459,"midi":89,"time":172.67441860465115,"velocity":0.08661417322834646},{"duration":0.06976744186047767,"midi":91,"time":172.67441860465115,"velocity":0.3700787401574803},{"duration":0.03488372093025305,"midi":93,"time":172.67441860465115,"velocity":0.09448818897637795},{"duration":0.18604651162792152,"midi":94,"time":172.67441860465115,"velocity":0.3228346456692913},{"duration":0.03488372093025305,"midi":95,"time":172.67441860465115,"velocity":0.1968503937007874},{"duration":0.16279069767443843,"midi":97,"time":172.67441860465115,"velocity":0.25196850393700787},{"duration":0.2093023255814046,"midi":98,"time":172.67441860465115,"velocity":0.2440944881889764},{"duration":0.16279069767443843,"midi":100,"time":172.67441860465115,"velocity":0.2992125984251969},{"duration":0.03488372093025305,"midi":74,"time":172.6860465116279,"velocity":0.1732283464566929},{"duration":0.011627906976741542,"midi":48,"time":172.69767441860466,"velocity":0.5354330708661418},{"duration":0.023255813953483084,"midi":68,"time":172.69767441860466,"velocity":0.2992125984251969},{"duration":0.04651162790696617,"midi":84,"time":172.69767441860466,"velocity":0.2204724409448819},{"duration":0.011627906976741542,"midi":45,"time":172.7093023255814,"velocity":0.5984251968503937},{"duration":0.0813953488371908,"midi":72,"time":172.7093023255814,"velocity":0.2992125984251969},{"duration":0.04651162790696617,"midi":76,"time":172.7093023255814,"velocity":0.3464566929133858},{"duration":0.09302325581393234,"midi":81,"time":172.7093023255814,"velocity":0.1732283464566929},{"duration":0.19767441860463464,"midi":96,"time":172.7093023255814,"velocity":0.3543307086614173},{"duration":0.011627906976741542,"midi":43,"time":172.72093023255815,"velocity":0.5826771653543307},{"duration":0.023255813953483084,"midi":57,"time":172.72093023255815,"velocity":0.2440944881889764},{"duration":0.0813953488371908,"midi":90,"time":172.72093023255815,"velocity":0.4015748031496063},{"duration":0.04651162790696617,"midi":95,"time":172.72093023255815,"velocity":0.14960629921259844},{"duration":0.023255813953483084,"midi":42,"time":172.7325581395349,"velocity":0.5669291338582677},{"duration":0.12790697674418539,"midi":63,"time":172.7325581395349,"velocity":0.2047244094488189},{"duration":0.09302325581396076,"midi":83,"time":172.7325581395349,"velocity":0.3858267716535433},{"duration":0.04651162790696617,"midi":66,"time":172.74418604651163,"velocity":0.28346456692913385},{"duration":0.034883720930224626,"midi":75,"time":172.74418604651163,"velocity":0.23622047244094488},{"duration":0.05813953488370771,"midi":80,"time":172.74418604651163,"velocity":0.1732283464566929},{"duration":0.04651162790696617,"midi":85,"time":172.75581395348837,"velocity":0.25984251968503935},{"duration":0.04651162790699459,"midi":71,"time":172.77906976744185,"velocity":0.1968503937007874},{"duration":0.11627906976744384,"midi":77,"time":172.7906976744186,"velocity":0.11811023622047244},{"duration":0.03488372093025305,"midi":79,"time":172.7906976744186,"velocity":0.23622047244094488},{"duration":0.1046511627907023,"midi":101,"time":172.7906976744186,"velocity":0.1968503937007874},{"duration":0.03488372093025305,"midi":103,"time":172.7906976744186,"velocity":0.1889763779527559},{"duration":0.12790697674418539,"midi":68,"time":172.80232558139534,"velocity":0.3858267716535433},{"duration":0.11627906976744384,"midi":91,"time":172.80232558139534,"velocity":0.4015748031496063},{"duration":0.023255813953483084,"midi":38,"time":172.8139534883721,"velocity":0.2677165354330709},{"duration":0.023255813953483084,"midi":74,"time":172.8139534883721,"velocity":0.2677165354330709},{"duration":0.05813953488370771,"midi":90,"time":172.8139534883721,"velocity":0.1889763779527559},{"duration":0.13953488372092693,"midi":92,"time":172.8139534883721,"velocity":0.47244094488188976},{"duration":0.6279069767441854,"midi":75,"time":172.82558139534885,"velocity":0.41732283464566927},{"duration":0.04651162790696617,"midi":84,"time":172.82558139534885,"velocity":0.3779527559055118},{"duration":0.05813953488370771,"midi":65,"time":172.8372093023256,"velocity":0.2440944881889764},{"duration":0.034883720930224626,"midi":30,"time":172.86046511627907,"velocity":0.14173228346456693},{"duration":0.08139534883721922,"midi":82,"time":172.86046511627907,"velocity":0.1968503937007874},{"duration":0.1046511627907023,"midi":83,"time":172.86046511627907,"velocity":0.2755905511811024},{"duration":0.04651162790696617,"midi":85,"time":172.86046511627907,"velocity":0.23622047244094488},{"duration":0.05813953488370771,"midi":53,"time":172.87209302325581,"velocity":0.2047244094488189},{"duration":0.2325581395348877,"midi":72,"time":172.87209302325581,"velocity":0.3700787401574803},{"duration":0.16279069767441,"midi":100,"time":172.87209302325581,"velocity":0.18110236220472442},{"duration":0.06976744186047767,"midi":95,"time":172.8953488372093,"velocity":0.44881889763779526},{"duration":0.03488372093025305,"midi":63,"time":172.90697674418604,"velocity":0.18110236220472442},{"duration":0.17441860465117998,"midi":94,"time":172.90697674418604,"velocity":0.2047244094488189},{"duration":0.06976744186047767,"midi":101,"time":172.90697674418604,"velocity":0.30708661417322836},{"duration":0.04651162790699459,"midi":77,"time":172.91860465116278,"velocity":0.12598425196850394},{"duration":0.04651162790699459,"midi":90,"time":172.91860465116278,"velocity":0.2283464566929134},{"duration":0.12790697674418539,"midi":96,"time":172.91860465116278,"velocity":0.5039370078740157},{"duration":0.05813953488373613,"midi":65,"time":172.93023255813952,"velocity":0.2992125984251969},{"duration":0.05813953488373613,"midi":78,"time":172.93023255813952,"velocity":0.1968503937007874},{"duration":0.13953488372095535,"midi":80,"time":172.93023255813952,"velocity":0.2677165354330709},{"duration":0.10465116279067388,"midi":91,"time":172.9418604651163,"velocity":0.3779527559055118},{"duration":0.11627906976744384,"midi":68,"time":172.96511627906978,"velocity":0.4645669291338583},{"duration":0.12790697674418539,"midi":92,"time":172.96511627906978,"velocity":0.41732283464566927},{"duration":0.023255813953483084,"midi":40,"time":172.97674418604652,"velocity":0.30708661417322836},{"duration":0.09302325581396076,"midi":63,"time":172.97674418604652,"velocity":0.28346456692913385},{"duration":0.034883720930224626,"midi":48,"time":173.01162790697674,"velocity":0.16535433070866143},{"duration":0.11627906976744384,"midi":101,"time":173.03488372093022,"velocity":0.23622047244094488},{"duration":0.05813953488373613,"midi":95,"time":173.04651162790697,"velocity":0.4330708661417323},{"duration":0.04651162790699459,"midi":30,"time":173.0581395348837,"velocity":0.16535433070866143},{"duration":0.03488372093025305,"midi":79,"time":173.0581395348837,"velocity":0.15748031496062992},{"duration":0.09302325581396076,"midi":91,"time":173.0581395348837,"velocity":0.30708661417322836},{"duration":0.3139534883721069,"midi":96,"time":173.0581395348837,"velocity":0.3779527559055118},{"duration":0.05813953488373613,"midi":98,"time":173.0581395348837,"velocity":0.1732283464566929},{"duration":0.034883720930224626,"midi":85,"time":173.06976744186048,"velocity":0.10236220472440945},{"duration":0.034883720930224626,"midi":86,"time":173.06976744186048,"velocity":0.16535433070866143},{"duration":0.034883720930224626,"midi":78,"time":173.08139534883722,"velocity":0.18110236220472442},{"duration":0.034883720930224626,"midi":83,"time":173.08139534883722,"velocity":0.15748031496062992},{"duration":0.034883720930224626,"midi":80,"time":173.09302325581396,"velocity":0.10236220472440945},{"duration":0.05813953488370771,"midi":94,"time":173.09302325581396,"velocity":0.2992125984251969},{"duration":0.023255813953483084,"midi":57,"time":173.1046511627907,"velocity":0.29133858267716534},{"duration":0.09302325581396076,"midi":68,"time":173.1046511627907,"velocity":0.33858267716535434},{"duration":0.09302325581396076,"midi":82,"time":173.1046511627907,"velocity":0.09448818897637795},{"duration":0.05813953488370771,"midi":84,"time":173.1046511627907,"velocity":0.16535433070866143},{"duration":0.15116279069766847,"midi":92,"time":173.1046511627907,"velocity":0.2283464566929134},{"duration":0.023255813953483084,"midi":40,"time":173.11627906976744,"velocity":0.29133858267716534},{"duration":0.06976744186044925,"midi":63,"time":173.11627906976744,"velocity":0.33070866141732286},{"duration":0.023255813953483084,"midi":65,"time":173.11627906976744,"velocity":0.2755905511811024},{"duration":0.05813953488370771,"midi":72,"time":173.11627906976744,"velocity":0.2047244094488189},{"duration":0.04651162790696617,"midi":95,"time":173.11627906976744,"velocity":0.2204724409448819},{"duration":0.034883720930224626,"midi":56,"time":173.12790697674419,"velocity":0.2440944881889764},{"duration":0.06976744186047767,"midi":79,"time":173.12790697674419,"velocity":0.14960629921259844},{"duration":0.04651162790696617,"midi":48,"time":173.13953488372093,"velocity":0.23622047244094488},{"duration":0.023255813953483084,"midi":66,"time":173.13953488372093,"velocity":0.3228346456692913},{"duration":0.04651162790699459,"midi":41,"time":173.1627906976744,"velocity":0.2125984251968504},{"duration":0.19767441860466306,"midi":102,"time":173.1627906976744,"velocity":0.2440944881889764},{"duration":0.08139534883721922,"midi":95,"time":173.17441860465115,"velocity":0.16535433070866143},{"duration":0.023255813953511506,"midi":56,"time":173.1860465116279,"velocity":0.4251968503937008},{"duration":0.034883720930224626,"midi":67,"time":173.19767441860466,"velocity":0.3543307086614173},{"duration":0.16279069767441,"midi":88,"time":173.19767441860466,"velocity":0.33858267716535434},{"duration":0.05813953488370771,"midi":90,"time":173.19767441860466,"velocity":0.30708661417322836},{"duration":0.17441860465115155,"midi":94,"time":173.19767441860466,"velocity":0.3937007874015748},{"duration":0.05813953488370771,"midi":97,"time":173.19767441860466,"velocity":0.16535433070866143},{"duration":0.04651162790696617,"midi":98,"time":173.19767441860466,"velocity":0.12598425196850394},{"duration":0.06976744186044925,"midi":101,"time":173.19767441860466,"velocity":0.2440944881889764},{"duration":0.12790697674418539,"midi":103,"time":173.19767441860466,"velocity":0.1968503937007874},{"duration":0.034883720930224626,"midi":61,"time":173.2093023255814,"velocity":0.4251968503937008},{"duration":0.12790697674418539,"midi":84,"time":173.22093023255815,"velocity":0.33858267716535434},{"duration":0.04651162790696617,"midi":86,"time":173.22093023255815,"velocity":0.2047244094488189},{"duration":0.15116279069766847,"midi":91,"time":173.22093023255815,"velocity":0.2440944881889764},{"duration":0.011627906976741542,"midi":45,"time":173.2325581395349,"velocity":0.5590551181102362},{"duration":0.04651162790696617,"midi":83,"time":173.2325581395349,"velocity":0.14173228346456693},{"duration":0.011627906976741542,"midi":44,"time":173.24418604651163,"velocity":0.5984251968503937},{"duration":0.011627906976741542,"midi":43,"time":173.25581395348837,"velocity":0.5590551181102362},{"duration":0.2093023255814046,"midi":72,"time":173.25581395348837,"velocity":0.48031496062992124},{"duration":0.09302325581396076,"midi":80,"time":173.25581395348837,"velocity":0.15748031496062992},{"duration":0.011627906976741542,"midi":42,"time":173.2674418604651,"velocity":0.5354330708661418},{"duration":0.06976744186047767,"midi":60,"time":173.2674418604651,"velocity":0.3543307086614173},{"duration":0.09302325581396076,"midi":93,"time":173.2674418604651,"velocity":0.16535433070866143},{"duration":0.17441860465117998,"midi":68,"time":173.27906976744185,"velocity":0.29133858267716534},{"duration":0.09302325581396076,"midi":92,"time":173.2906976744186,"velocity":0.15748031496062992},{"duration":0.023255813953511506,"midi":56,"time":173.30232558139534,"velocity":0.2440944881889764},{"duration":0.17441860465117998,"midi":63,"time":173.30232558139534,"velocity":0.3779527559055118},{"duration":0.023255813953483084,"midi":37,"time":173.3139534883721,"velocity":0.4015748031496063},{"duration":0.0813953488371908,"midi":85,"time":173.3139534883721,"velocity":0.11023622047244094},{"duration":0.04651162790696617,"midi":95,"time":173.32558139534885,"velocity":0.11023622047244094},{"duration":0.1046511627907023,"midi":82,"time":173.3372093023256,"velocity":0.2204724409448819},{"duration":0.034883720930224626,"midi":90,"time":173.3372093023256,"velocity":0.15748031496062992},{"duration":0.06976744186044925,"midi":78,"time":173.34883720930233,"velocity":0.1732283464566929},{"duration":0.05813953488370771,"midi":81,"time":173.34883720930233,"velocity":0.1889763779527559},{"duration":0.05813953488370771,"midi":83,"time":173.34883720930233,"velocity":0.14173228346456693},{"duration":0.023255813953483084,"midi":48,"time":173.3953488372093,"velocity":0.25196850393700787},{"duration":0.05813953488373613,"midi":36,"time":173.40697674418604,"velocity":0.31496062992125984},{"duration":0.034883720930224626,"midi":56,"time":173.4418604651163,"velocity":0.2204724409448819},{"duration":0.04651162790696617,"midi":88,"time":173.4418604651163,"velocity":0.3464566929133858},{"duration":0.034883720930224626,"midi":90,"time":173.45348837209303,"velocity":0.15748031496062992},{"duration":0.0813953488371908,"midi":97,"time":173.45348837209303,"velocity":0.13385826771653545},{"duration":0.33720930232556157,"midi":99,"time":173.45348837209303,"velocity":0.31496062992125984},{"duration":0.19767441860463464,"midi":102,"time":173.45348837209303,"velocity":0.25196850393700787},{"duration":0.0813953488371908,"midi":73,"time":173.46511627906978,"velocity":0.5354330708661418},{"duration":0.034883720930224626,"midi":80,"time":173.46511627906978,"velocity":0.2125984251968504},{"duration":0.05813953488370771,"midi":82,"time":173.46511627906978,"velocity":0.2992125984251969},{"duration":0.2674418604651123,"midi":89,"time":173.46511627906978,"velocity":0.4881889763779528},{"duration":0.034883720930224626,"midi":91,"time":173.46511627906978,"velocity":0.13385826771653545},{"duration":0.034883720930224626,"midi":68,"time":173.47674418604652,"velocity":0.14960629921259844},{"duration":0.034883720930224626,"midi":78,"time":173.47674418604652,"velocity":0.33070866141732286},{"duration":0.023255813953483084,"midi":45,"time":173.48837209302326,"velocity":0.33070866141732286},{"duration":0.17441860465115155,"midi":53,"time":173.48837209302326,"velocity":0.2992125984251969},{"duration":0.25581395348837077,"midi":58,"time":173.48837209302326,"velocity":0.3779527559055118},{"duration":0.034883720930224626,"midi":75,"time":173.48837209302326,"velocity":0.25196850393700787},{"duration":0.023255813953483084,"midi":81,"time":173.48837209302326,"velocity":0.2755905511811024},{"duration":0.3720930232558146,"midi":93,"time":173.48837209302326,"velocity":0.3700787401574803},{"duration":0.06976744186044925,"midi":95,"time":173.48837209302326,"velocity":0.1968503937007874},{"duration":0.034883720930224626,"midi":103,"time":173.48837209302326,"velocity":0.2283464566929134},{"duration":0.06976744186047767,"midi":100,"time":173.5,"velocity":0.09448818897637795},{"duration":0.11627906976744384,"midi":46,"time":173.51162790697674,"velocity":0.25196850393700787},{"duration":0.034883720930224626,"midi":77,"time":173.51162790697674,"velocity":0.31496062992125984},{"duration":0.25581395348837077,"midi":80,"time":173.51162790697674,"velocity":0.4645669291338583},{"duration":0.023255813953483084,"midi":81,"time":173.52325581395348,"velocity":0.23622047244094488},{"duration":0.023255813953483084,"midi":83,"time":173.52325581395348,"velocity":0.29133858267716534},{"duration":0.05813953488373613,"midi":61,"time":173.53488372093022,"velocity":0.3700787401574803},{"duration":0.06976744186047767,"midi":34,"time":173.54651162790697,"velocity":0.29133858267716534},{"duration":0.06976744186047767,"midi":82,"time":173.54651162790697,"velocity":0.28346456692913385},{"duration":0.17441860465117998,"midi":77,"time":173.5581395348837,"velocity":0.29133858267716534},{"duration":0.25581395348837077,"midi":73,"time":173.56976744186048,"velocity":0.3937007874015748},{"duration":0.11627906976741542,"midi":75,"time":173.56976744186048,"velocity":0.2204724409448819},{"duration":0.10465116279067388,"midi":63,"time":173.58139534883722,"velocity":0.29133858267716534},{"duration":0.15116279069766847,"midi":95,"time":173.58139534883722,"velocity":0.25196850393700787},{"duration":0.3139534883720785,"midi":84,"time":173.59302325581396,"velocity":0.4015748031496063},{"duration":0.17441860465115155,"midi":82,"time":173.62790697674419,"velocity":0.3228346456692913},{"duration":0.05813953488373613,"midi":53,"time":173.67441860465115,"velocity":0.16535433070866143},{"duration":0.18604651162792152,"midi":85,"time":173.67441860465115,"velocity":0.4094488188976378},{"duration":0.06976744186047767,"midi":103,"time":173.6860465116279,"velocity":0.2047244094488189},{"duration":0.4302325581395223,"midi":65,"time":173.7093023255814,"velocity":0.3464566929133858},{"duration":0.15116279069766847,"midi":100,"time":173.7093023255814,"velocity":0.29133858267716534},{"duration":0.33720930232556157,"midi":102,"time":173.7093023255814,"velocity":0.29133858267716534},{"duration":0.11627906976744384,"midi":88,"time":173.72093023255815,"velocity":0.3700787401574803},{"duration":0.38372093023255616,"midi":91,"time":173.72093023255815,"velocity":0.25984251968503935},{"duration":0.13953488372092693,"midi":98,"time":173.7325581395349,"velocity":0.18110236220472442},{"duration":0.08139534883721922,"midi":61,"time":173.74418604651163,"velocity":0.2992125984251969},{"duration":0.011627906976741542,"midi":47,"time":173.75581395348837,"velocity":0.5196850393700787},{"duration":0.011627906976741542,"midi":45,"time":173.7674418604651,"velocity":0.5984251968503937},{"duration":0.1046511627907023,"midi":79,"time":173.7674418604651,"velocity":0.3700787401574803},{"duration":0.011627906976741542,"midi":44,"time":173.77906976744185,"velocity":0.5826771653543307},{"duration":0.03488372093025305,"midi":81,"time":173.77906976744185,"velocity":0.10236220472440945},{"duration":0.023255813953511506,"midi":42,"time":173.7906976744186,"velocity":0.5669291338582677},{"duration":0.2325581395348877,"midi":92,"time":173.7906976744186,"velocity":0.18110236220472442},{"duration":0.2093023255814046,"midi":53,"time":173.80232558139534,"velocity":0.2204724409448819},{"duration":0.1046511627907023,"midi":95,"time":173.80232558139534,"velocity":0.2677165354330709},{"duration":0.3604651162790731,"midi":99,"time":173.80232558139534,"velocity":0.2204724409448819},{"duration":0.534883720930253,"midi":101,"time":173.80232558139534,"velocity":0.25984251968503935},{"duration":0.06976744186044925,"midi":82,"time":173.8139534883721,"velocity":0.3937007874015748},{"duration":0.09302325581393234,"midi":89,"time":173.8139534883721,"velocity":0.4094488188976378},{"duration":0.05813953488370771,"midi":72,"time":173.82558139534885,"velocity":0.31496062992125984},{"duration":0.034883720930224626,"midi":61,"time":173.8372093023256,"velocity":0.14173228346456693},{"duration":0.05813953488370771,"midi":70,"time":173.8372093023256,"velocity":0.1732283464566929},{"duration":0.06976744186044925,"midi":87,"time":173.8372093023256,"velocity":0.25984251968503935},{"duration":0.04651162790696617,"midi":90,"time":173.8372093023256,"velocity":0.30708661417322836},{"duration":0.1046511627907023,"midi":86,"time":173.84883720930233,"velocity":0.3464566929133858},{"duration":0.034883720930224626,"midi":36,"time":173.86046511627907,"velocity":0.33070866141732286},{"duration":0.04651162790696617,"midi":75,"time":173.86046511627907,"velocity":0.13385826771653545},{"duration":0.034883720930224626,"midi":80,"time":173.86046511627907,"velocity":0.1889763779527559},{"duration":0.04651162790696617,"midi":81,"time":173.87209302325581,"velocity":0.4330708661417323},{"duration":0.04651162790696617,"midi":85,"time":173.87209302325581,"velocity":0.4015748031496063},{"duration":0.034883720930224626,"midi":100,"time":173.87209302325581,"velocity":0.08661417322834646},{"duration":0.17441860465115155,"midi":73,"time":173.88372093023256,"velocity":0.3464566929133858},{"duration":0.034883720930224626,"midi":83,"time":173.88372093023256,"velocity":0.2755905511811024},{"duration":0.034883720930224626,"midi":61,"time":173.8953488372093,"velocity":0.2755905511811024},{"duration":0.04651162790699459,"midi":80,"time":173.90697674418604,"velocity":0.1889763779527559},{"duration":0.04651162790699459,"midi":58,"time":173.91860465116278,"velocity":0.2677165354330709},{"duration":0.1046511627907023,"midi":70,"time":173.91860465116278,"velocity":0.2755905511811024},{"duration":0.04651162790699459,"midi":72,"time":173.91860465116278,"velocity":0.1732283464566929},{"duration":0.2325581395348877,"midi":82,"time":173.91860465116278,"velocity":0.41732283464566927},{"duration":0.03488372093025305,"midi":84,"time":173.91860465116278,"velocity":0.30708661417322836},{"duration":0.04651162790699459,"midi":89,"time":173.91860465116278,"velocity":0.4409448818897638},{"duration":0.11627906976744384,"midi":100,"time":173.91860465116278,"velocity":0.14960629921259844},{"duration":0.04651162790696617,"midi":88,"time":173.9418604651163,"velocity":0.2992125984251969},{"duration":0.05813953488370771,"midi":90,"time":173.9418604651163,"velocity":0.2992125984251969},{"duration":0.034883720930224626,"midi":87,"time":173.95348837209303,"velocity":0.3464566929133858},{"duration":0.05813953488370771,"midi":80,"time":173.96511627906978,"velocity":0.2677165354330709},{"duration":0.034883720930224626,"midi":89,"time":173.97674418604652,"velocity":0.4015748031496063},{"duration":0.06976744186044925,"midi":93,"time":173.97674418604652,"velocity":0.11811023622047244},{"duration":0.023255813953483084,"midi":86,"time":173.98837209302326,"velocity":0.23622047244094488},{"duration":0.11627906976744384,"midi":58,"time":174,"velocity":0.3464566929133858},{"duration":0.05813953488370771,"midi":83,"time":174,"velocity":0.33858267716535434},{"duration":0.034883720930224626,"midi":84,"time":174,"velocity":0.25984251968503935},{"duration":0.023255813953483084,"midi":45,"time":174.01162790697674,"velocity":0.33070866141732286},{"duration":0.034883720930224626,"midi":62,"time":174.01162790697674,"velocity":0.1889763779527559},{"duration":0.04651162790696617,"midi":68,"time":174.01162790697674,"velocity":0.14960629921259844},{"duration":0.05813953488373613,"midi":86,"time":174.02325581395348,"velocity":0.2992125984251969},{"duration":0.06976744186047767,"midi":46,"time":174.03488372093022,"velocity":0.2677165354330709},{"duration":0.3604651162790731,"midi":70,"time":174.03488372093022,"velocity":0.36220472440944884},{"duration":0.11627906976744384,"midi":80,"time":174.03488372093022,"velocity":0.3700787401574803},{"duration":0.13953488372092693,"midi":89,"time":174.03488372093022,"velocity":0.36220472440944884},{"duration":0.023255813953483084,"midi":35,"time":174.06976744186048,"velocity":0.29133858267716534},{"duration":0.11627906976741542,"midi":73,"time":174.06976744186048,"velocity":0.3543307086614173},{"duration":0.10465116279067388,"midi":95,"time":174.06976744186048,"velocity":0.23622047244094488},{"duration":0.04651162790696617,"midi":102,"time":174.08139534883722,"velocity":0.16535433070866143},{"duration":0.05813953488370771,"midi":34,"time":174.09302325581396,"velocity":0.28346456692913385},{"duration":0.05813953488370771,"midi":86,"time":174.09302325581396,"velocity":0.2125984251968504},{"duration":0.1046511627907023,"midi":100,"time":174.09302325581396,"velocity":0.2755905511811024},{"duration":0.034883720930224626,"midi":103,"time":174.1046511627907,"velocity":0.11811023622047244},{"duration":0.034883720930224626,"midi":78,"time":174.11627906976744,"velocity":0.2440944881889764},{"duration":0.034883720930224626,"midi":81,"time":174.12790697674419,"velocity":0.2755905511811024},{"duration":0.034883720930224626,"midi":91,"time":174.12790697674419,"velocity":0.12598425196850394},{"duration":0.034883720930224626,"midi":45,"time":174.13953488372093,"velocity":0.31496062992125984},{"duration":0.034883720930224626,"midi":58,"time":174.13953488372093,"velocity":0.2125984251968504},{"duration":0.06976744186047767,"midi":68,"time":174.13953488372093,"velocity":0.13385826771653545},{"duration":0.05813953488373613,"midi":88,"time":174.13953488372093,"velocity":0.13385826771653545},{"duration":0.09302325581396076,"midi":53,"time":174.15116279069767,"velocity":0.25196850393700787},{"duration":0.04651162790699459,"midi":79,"time":174.15116279069767,"velocity":0.14960629921259844},{"duration":0.09302325581396076,"midi":65,"time":174.1627906976744,"velocity":0.33858267716535434},{"duration":0.13953488372092693,"midi":80,"time":174.1627906976744,"velocity":0.2440944881889764},{"duration":0.1046511627907023,"midi":84,"time":174.1627906976744,"velocity":0.1732283464566929},{"duration":0.06976744186047767,"midi":46,"time":174.17441860465115,"velocity":0.2283464566929134},{"duration":0.023255813953483084,"midi":35,"time":174.19767441860466,"velocity":0.28346456692913385},{"duration":0.023255813953483084,"midi":88,"time":174.2093023255814,"velocity":0.2283464566929134},{"duration":0.034883720930224626,"midi":93,"time":174.2093023255814,"velocity":0.10236220472440945},{"duration":0.04651162790696617,"midi":34,"time":174.22093023255815,"velocity":0.29133858267716534},{"duration":0.023255813953483084,"midi":73,"time":174.22093023255815,"velocity":0.2283464566929134},{"duration":0.04651162790696617,"midi":61,"time":174.24418604651163,"velocity":0.3543307086614173},{"duration":0.034883720930224626,"midi":72,"time":174.24418604651163,"velocity":0.2755905511811024},{"duration":0.11627906976744384,"midi":88,"time":174.24418604651163,"velocity":0.31496062992125984},{"duration":0.13953488372092693,"midi":99,"time":174.24418604651163,"velocity":0.2440944881889764},{"duration":0.023255813953483084,"midi":55,"time":174.25581395348837,"velocity":0.48031496062992124},{"duration":0.034883720930224626,"midi":79,"time":174.25581395348837,"velocity":0.2283464566929134},{"duration":0.11627906976744384,"midi":85,"time":174.25581395348837,"velocity":0.1889763779527559},{"duration":0.16279069767441,"midi":90,"time":174.25581395348837,"velocity":0.30708661417322836},{"duration":0.17441860465115155,"midi":92,"time":174.25581395348837,"velocity":0.2677165354330709},{"duration":0.06976744186047767,"midi":95,"time":174.25581395348837,"velocity":0.15748031496062992},{"duration":0.034883720930224626,"midi":103,"time":174.25581395348837,"velocity":0.18110236220472442},{"duration":0.24418604651162923,"midi":65,"time":174.2674418604651,"velocity":0.3779527559055118},{"duration":0.05813953488373613,"midi":83,"time":174.2674418604651,"velocity":0.2125984251968504},{"duration":0.04651162790699459,"midi":86,"time":174.2674418604651,"velocity":0.2047244094488189},{"duration":0.03488372093025305,"midi":45,"time":174.27906976744185,"velocity":0.5984251968503937},{"duration":0.023255813953483084,"midi":89,"time":174.27906976744185,"velocity":0.2677165354330709},{"duration":0.023255813953511506,"midi":76,"time":174.2906976744186,"velocity":0.33858267716535434},{"duration":0.04651162790699459,"midi":93,"time":174.2906976744186,"velocity":0.14960629921259844},{"duration":0.023255813953511506,"midi":52,"time":174.30232558139534,"velocity":0.3779527559055118},{"duration":0.04651162790699459,"midi":81,"time":174.30232558139534,"velocity":0.2204724409448819},{"duration":0.011627906976741542,"midi":44,"time":174.3139534883721,"velocity":0.5748031496062992},{"duration":0.09302325581393234,"midi":73,"time":174.3139534883721,"velocity":0.18110236220472442},{"duration":0.05813953488370771,"midi":75,"time":174.3139534883721,"velocity":0.33070866141732286},{"duration":0.034883720930224626,"midi":103,"time":174.3139534883721,"velocity":0.10236220472440945},{"duration":0.011627906976741542,"midi":42,"time":174.32558139534885,"velocity":0.5275590551181102},{"duration":0.023255813953483084,"midi":91,"time":174.32558139534885,"velocity":0.2283464566929134},{"duration":0.034883720930224626,"midi":96,"time":174.32558139534885,"velocity":0.13385826771653545},{"duration":0.023255813953483084,"midi":57,"time":174.3372093023256,"velocity":0.3700787401574803},{"duration":0.034883720930224626,"midi":91,"time":174.37209302325581,"velocity":0.07086614173228346},{"duration":0.13953488372092693,"midi":97,"time":174.38372093023256,"velocity":0.2204724409448819},{"duration":0.023255813953483084,"midi":36,"time":174.3953488372093,"velocity":0.25984251968503935},{"duration":0.05813953488373613,"midi":71,"time":174.3953488372093,"velocity":0.4251968503937008},{"duration":0.08139534883721922,"midi":78,"time":174.3953488372093,"velocity":0.3228346456692913},{"duration":0.08139534883721922,"midi":85,"time":174.3953488372093,"velocity":0.2047244094488189},{"duration":0.12790697674418539,"midi":87,"time":174.3953488372093,"velocity":0.31496062992125984},{"duration":0.05813953488373613,"midi":88,"time":174.3953488372093,"velocity":0.2283464566929134},{"duration":0.04651162790699459,"midi":76,"time":174.40697674418604,"velocity":0.16535433070866143},{"duration":0.03488372093025305,"midi":81,"time":174.40697674418604,"velocity":0.2440944881889764},{"duration":0.023255813953511506,"midi":40,"time":174.41860465116278,"velocity":0.2440944881889764},{"duration":0.09302325581396076,"midi":48,"time":174.41860465116278,"velocity":0.31496062992125984},{"duration":0.04651162790699459,"midi":101,"time":174.43023255813952,"velocity":0.16535433070866143},{"duration":0.10465116279067388,"midi":36,"time":174.45348837209303,"velocity":0.33070866141732286},{"duration":0.04651162790696617,"midi":70,"time":174.45348837209303,"velocity":0.4566929133858268},{"duration":0.05813953488370771,"midi":86,"time":174.45348837209303,"velocity":0.16535433070866143},{"duration":0.05813953488370771,"midi":94,"time":174.45348837209303,"velocity":0.14173228346456693},{"duration":0.034883720930224626,"midi":73,"time":174.47674418604652,"velocity":0.1968503937007874},{"duration":0.034883720930224626,"midi":76,"time":174.48837209302326,"velocity":0.2204724409448819},{"duration":0.04651162790696617,"midi":78,"time":174.48837209302326,"velocity":0.2125984251968504},{"duration":0.12790697674418539,"midi":80,"time":174.48837209302326,"velocity":0.2047244094488189},{"duration":0.023255813953483084,"midi":55,"time":174.5,"velocity":0.33858267716535434},{"duration":0.034883720930224626,"midi":61,"time":174.5,"velocity":0.2992125984251969},{"duration":0.023255813953483084,"midi":71,"time":174.5,"velocity":0.31496062992125984},{"duration":0.023255813953483084,"midi":66,"time":174.51162790697674,"velocity":0.28346456692913385},{"duration":0.08139534883721922,"midi":84,"time":174.51162790697674,"velocity":0.2992125984251969},{"duration":0.05813953488373613,"midi":91,"time":174.51162790697674,"velocity":0.14960629921259844},{"duration":0.04651162790699459,"midi":70,"time":174.52325581395348,"velocity":0.29133858267716534},{"duration":0.034883720930224626,"midi":72,"time":174.52325581395348,"velocity":0.47244094488188976},{"duration":0.04651162790699459,"midi":88,"time":174.52325581395348,"velocity":0.2440944881889764},{"duration":0.023255813953483084,"midi":55,"time":174.53488372093022,"velocity":0.25984251968503935},{"duration":0.05813953488373613,"midi":60,"time":174.53488372093022,"velocity":0.2755905511811024},{"duration":0.03488372093025305,"midi":65,"time":174.53488372093022,"velocity":0.14960629921259844},{"duration":0.06976744186047767,"midi":85,"time":174.54651162790697,"velocity":0.3700787401574803},{"duration":0.03488372093025305,"midi":94,"time":174.54651162790697,"velocity":0.07874015748031496},{"duration":0.03488372093025305,"midi":63,"time":174.5581395348837,"velocity":0.13385826771653545},{"duration":0.023255813953511506,"midi":73,"time":174.5581395348837,"velocity":0.4409448818897638},{"duration":0.17441860465117998,"midi":101,"time":174.5581395348837,"velocity":0.25196850393700787},{"duration":0.023255813953483084,"midi":72,"time":174.56976744186048,"velocity":0.4015748031496063},{"duration":0.09302325581393234,"midi":89,"time":174.56976744186048,"velocity":0.23622047244094488},{"duration":0.04651162790696617,"midi":93,"time":174.56976744186048,"velocity":0.07874015748031496},{"duration":0.12790697674418539,"midi":99,"time":174.56976744186048,"velocity":0.28346456692913385},{"duration":0.0813953488371908,"midi":65,"time":174.58139534883722,"velocity":0.23622047244094488},{"duration":0.023255813953483084,"midi":71,"time":174.58139534883722,"velocity":0.2440944881889764},{"duration":0.023255813953483084,"midi":59,"time":174.59302325581396,"velocity":0.33070866141732286},{"duration":0.04651162790696617,"midi":73,"time":174.59302325581396,"velocity":0.4330708661417323},{"duration":0.034883720930224626,"midi":58,"time":174.61627906976744,"velocity":0.3779527559055118},{"duration":0.08139534883721922,"midi":83,"time":174.61627906976744,"velocity":0.23622047244094488},{"duration":0.034883720930224626,"midi":103,"time":174.61627906976744,"velocity":0.11023622047244094},{"duration":0.05813953488370771,"midi":70,"time":174.62790697674419,"velocity":0.4015748031496063},{"duration":0.05813953488370771,"midi":86,"time":174.62790697674419,"velocity":0.2677165354330709},{"duration":0.12790697674418539,"midi":80,"time":174.63953488372093,"velocity":0.18110236220472442},{"duration":0.06976744186047767,"midi":87,"time":174.63953488372093,"velocity":0.25196850393700787},{"duration":0.05813953488373613,"midi":91,"time":174.65116279069767,"velocity":0.14173228346456693},{"duration":0.034883720930224626,"midi":97,"time":174.65116279069767,"velocity":0.15748031496062992},{"duration":0.08139534883721922,"midi":100,"time":174.65116279069767,"velocity":0.28346456692913385},{"duration":0.023255813953483084,"midi":58,"time":174.6627906976744,"velocity":0.36220472440944884},{"duration":0.04651162790699459,"midi":76,"time":174.6627906976744,"velocity":0.2047244094488189},{"duration":0.04651162790699459,"midi":90,"time":174.6627906976744,"velocity":0.14173228346456693},{"duration":0.023255813953511506,"midi":45,"time":174.67441860465115,"velocity":0.31496062992125984},{"duration":0.023255813953511506,"midi":63,"time":174.67441860465115,"velocity":0.2440944881889764},{"duration":0.06976744186047767,"midi":77,"time":174.67441860465115,"velocity":0.16535433070866143},{"duration":0.03488372093025305,"midi":73,"time":174.6860465116279,"velocity":0.1732283464566929},{"duration":0.034883720930224626,"midi":46,"time":174.69767441860466,"velocity":0.23622047244094488},{"duration":0.034883720930224626,"midi":70,"time":174.69767441860466,"velocity":0.3543307086614173},{"duration":0.034883720930224626,"midi":86,"time":174.69767441860466,"velocity":0.14960629921259844},{"duration":0.034883720930224626,"midi":84,"time":174.7093023255814,"velocity":0.10236220472440945},{"duration":0.023255813953483084,"midi":35,"time":174.72093023255815,"velocity":0.28346456692913385},{"duration":0.04651162790696617,"midi":72,"time":174.72093023255815,"velocity":0.29133858267716534},{"duration":0.1046511627907023,"midi":97,"time":174.72093023255815,"velocity":0.1889763779527559},{"duration":0.04651162790696617,"midi":34,"time":174.74418604651163,"velocity":0.2677165354330709},{"duration":0.034883720930224626,"midi":53,"time":174.74418604651163,"velocity":0.1732283464566929},{"duration":0.15116279069766847,"midi":85,"time":174.75581395348837,"velocity":0.2125984251968504},{"duration":0.06976744186047767,"midi":88,"time":174.75581395348837,"velocity":0.18110236220472442},{"duration":0.04651162790696617,"midi":95,"time":174.75581395348837,"velocity":0.13385826771653545},{"duration":0.17441860465115155,"midi":102,"time":174.75581395348837,"velocity":0.1968503937007874},{"duration":0.04651162790699459,"midi":73,"time":174.7674418604651,"velocity":0.3779527559055118},{"duration":0.04651162790699459,"midi":91,"time":174.77906976744185,"velocity":0.16535433070866143},{"duration":0.5465116279069946,"midi":92,"time":174.77906976744185,"velocity":0.41732283464566927},{"duration":0.12790697674418539,"midi":99,"time":174.77906976744185,"velocity":0.1968503937007874},{"duration":0.023255813953511506,"midi":59,"time":174.7906976744186,"velocity":0.33070866141732286},{"duration":0.023255813953511506,"midi":64,"time":174.7906976744186,"velocity":0.23622047244094488},{"duration":0.04651162790699459,"midi":69,"time":174.7906976744186,"velocity":0.2440944881889764},{"duration":0.13953488372092693,"midi":78,"time":174.7906976744186,"velocity":0.2283464566929134},{"duration":0.08139534883721922,"midi":93,"time":174.7906976744186,"velocity":0.16535433070866143},{"duration":0.11627906976744384,"midi":96,"time":174.7906976744186,"velocity":0.2047244094488189},{"duration":0.03488372093025305,"midi":101,"time":174.7906976744186,"velocity":0.16535433070866143},{"duration":0.05813953488373613,"midi":74,"time":174.80232558139534,"velocity":0.49606299212598426},{"duration":0.04651162790699459,"midi":81,"time":174.80232558139534,"velocity":0.2677165354330709},{"duration":0.08139534883721922,"midi":98,"time":174.80232558139534,"velocity":0.2047244094488189},{"duration":0.1511627906976969,"midi":100,"time":174.80232558139534,"velocity":0.2283464566929134},{"duration":0.011627906976741542,"midi":46,"time":174.8139534883721,"velocity":0.5354330708661418},{"duration":0.023255813953483084,"midi":72,"time":174.8139534883721,"velocity":0.2755905511811024},{"duration":0.011627906976741542,"midi":45,"time":174.82558139534885,"velocity":0.6141732283464567},{"duration":0.23255813953485927,"midi":82,"time":174.82558139534885,"velocity":0.2204724409448819},{"duration":0.011627906976741542,"midi":44,"time":174.8372093023256,"velocity":0.6062992125984252},{"duration":0.11627906976744384,"midi":58,"time":174.8372093023256,"velocity":0.29133858267716534},{"duration":0.44186046511626387,"midi":101,"time":174.8372093023256,"velocity":0.25984251968503935},{"duration":0.023255813953483084,"midi":42,"time":174.84883720930233,"velocity":0.5511811023622047},{"duration":0.023255813953483084,"midi":55,"time":174.84883720930233,"velocity":0.31496062992125984},{"duration":0.09302325581396076,"midi":80,"time":174.84883720930233,"velocity":0.23622047244094488},{"duration":0.05813953488370771,"midi":95,"time":174.84883720930233,"velocity":0.23622047244094488},{"duration":0.04651162790696617,"midi":103,"time":174.84883720930233,"velocity":0.2125984251968504},{"duration":0.2093023255814046,"midi":65,"time":174.86046511627907,"velocity":0.28346456692913385},{"duration":0.19767441860463464,"midi":97,"time":174.86046511627907,"velocity":0.2440944881889764},{"duration":0.023255813953483084,"midi":53,"time":174.87209302325581,"velocity":0.31496062992125984},{"duration":0.023255813953483084,"midi":74,"time":174.87209302325581,"velocity":0.3779527559055118},{"duration":0.22093023255814614,"midi":89,"time":174.87209302325581,"velocity":0.30708661417322836},{"duration":0.023255813953483084,"midi":46,"time":174.8953488372093,"velocity":0.2440944881889764},{"duration":0.24418604651162923,"midi":73,"time":174.8953488372093,"velocity":0.49606299212598426},{"duration":0.023255813953483084,"midi":36,"time":174.90697674418604,"velocity":0.3700787401574803},{"duration":0.04651162790699459,"midi":61,"time":174.91860465116278,"velocity":0.1968503937007874},{"duration":0.03488372093025305,"midi":91,"time":174.91860465116278,"velocity":0.3858267716535433},{"duration":0.23255813953485927,"midi":95,"time":174.9418604651163,"velocity":0.3464566929133858},{"duration":0.33720930232556157,"midi":99,"time":174.95348837209303,"velocity":0.2992125984251969},{"duration":0.06976744186044925,"midi":80,"time":174.96511627906978,"velocity":0.2125984251968504},{"duration":0.15116279069766847,"midi":103,"time":174.96511627906978,"velocity":0.1968503937007874},{"duration":0.034883720930224626,"midi":53,"time":174.97674418604652,"velocity":0.1968503937007874},{"duration":0.04651162790696617,"midi":61,"time":174.98837209302326,"velocity":0.2755905511811024},{"duration":0.4186046511627808,"midi":102,"time":174.98837209302326,"velocity":0.41732283464566927},{"duration":0.08139534883721922,"midi":78,"time":175,"velocity":0.14960629921259844},{"duration":0.04651162790696617,"midi":100,"time":175,"velocity":0.18110236220472442},{"duration":0.05813953488373613,"midi":84,"time":175.03488372093022,"velocity":0.2125984251968504},{"duration":0.023255813953511506,"midi":91,"time":175.04651162790697,"velocity":0.4330708661417323},{"duration":0.08139534883721922,"midi":93,"time":175.04651162790697,"velocity":0.10236220472440945},{"duration":0.04651162790699459,"midi":98,"time":175.04651162790697,"velocity":0.14173228346456693},{"duration":0.12790697674418539,"midi":61,"time":175.0581395348837,"velocity":0.25984251968503935},{"duration":0.03488372093025305,"midi":81,"time":175.0581395348837,"velocity":0.12598425196850394},{"duration":0.06976744186047767,"midi":94,"time":175.0581395348837,"velocity":0.1732283464566929},{"duration":0.023255813953483084,"midi":53,"time":175.06976744186048,"velocity":0.2440944881889764},{"duration":0.034883720930224626,"midi":69,"time":175.06976744186048,"velocity":0.1968503937007874},{"duration":0.0813953488371908,"midi":77,"time":175.06976744186048,"velocity":0.2440944881889764},{"duration":0.20930232558137618,"midi":82,"time":175.06976744186048,"velocity":0.18110236220472442},{"duration":0.12790697674418539,"midi":65,"time":175.08139534883722,"velocity":0.29133858267716534},{"duration":0.023255813953483084,"midi":88,"time":175.08139534883722,"velocity":0.33070866141732286},{"duration":0.023255813953483084,"midi":38,"time":175.09302325581396,"velocity":0.3228346456692913},{"duration":0.16279069767441,"midi":80,"time":175.09302325581396,"velocity":0.2677165354330709},{"duration":0.034883720930224626,"midi":55,"time":175.1046511627907,"velocity":0.2283464566929134},{"duration":0.09302325581396076,"midi":70,"time":175.1046511627907,"velocity":0.2440944881889764},{"duration":0.33720930232559,"midi":89,"time":175.1046511627907,"velocity":0.4409448818897638},{"duration":0.034883720930224626,"midi":103,"time":175.12790697674419,"velocity":0.16535433070866143},{"duration":0.04651162790696617,"midi":78,"time":175.13953488372093,"velocity":0.16535433070866143},{"duration":0.16279069767443843,"midi":73,"time":175.15116279069767,"velocity":0.5039370078740157},{"duration":0.03488372093025305,"midi":95,"time":175.1860465116279,"velocity":0.2440944881889764},{"duration":0.05813953488370771,"midi":61,"time":175.19767441860466,"velocity":0.25196850393700787},{"duration":0.05813953488370771,"midi":69,"time":175.19767441860466,"velocity":0.16535433070866143},{"duration":0.06976744186044925,"midi":66,"time":175.2093023255814,"velocity":0.25196850393700787},{"duration":0.023255813953483084,"midi":55,"time":175.22093023255815,"velocity":0.25984251968503935},{"duration":0.023255813953483084,"midi":46,"time":175.2325581395349,"velocity":0.2677165354330709},{"duration":0.023255813953483084,"midi":53,"time":175.24418604651163,"velocity":0.31496062992125984},{"duration":0.034883720930224626,"midi":91,"time":175.24418604651163,"velocity":0.14960629921259844},{"duration":0.034883720930224626,"midi":95,"time":175.24418604651163,"velocity":0.09448818897637795},{"duration":0.13953488372092693,"midi":100,"time":175.24418604651163,"velocity":0.28346456692913385},{"duration":0.034883720930224626,"midi":103,"time":175.25581395348837,"velocity":0.25196850393700787},{"duration":0.09302325581396076,"midi":86,"time":175.2674418604651,"velocity":0.31496062992125984},{"duration":0.04651162790699459,"midi":62,"time":175.27906976744185,"velocity":0.41732283464566927},{"duration":0.06976744186047767,"midi":80,"time":175.2906976744186,"velocity":0.16535433070866143},{"duration":0.023255813953511506,"midi":66,"time":175.30232558139534,"velocity":0.3543307086614173},{"duration":0.17441860465117998,"midi":70,"time":175.30232558139534,"velocity":0.33070866141732286},{"duration":0.023255813953483084,"midi":59,"time":175.3139534883721,"velocity":0.3779527559055118},{"duration":0.0813953488371908,"midi":90,"time":175.3139534883721,"velocity":0.2677165354330709},{"duration":0.034883720930224626,"midi":91,"time":175.3139534883721,"velocity":0.1968503937007874},{"duration":0.04651162790696617,"midi":93,"time":175.3139534883721,"velocity":0.11023622047244094},{"duration":0.06976744186044925,"midi":94,"time":175.3139534883721,"velocity":0.2204724409448819},{"duration":0.10465116279067388,"midi":95,"time":175.3139534883721,"velocity":0.2125984251968504},{"duration":0.04651162790696617,"midi":96,"time":175.3139534883721,"velocity":0.2204724409448819},{"duration":0.5465116279069662,"midi":99,"time":175.3139534883721,"velocity":0.4251968503937008},{"duration":0.10465116279067388,"midi":63,"time":175.32558139534885,"velocity":0.4251968503937008},{"duration":0.023255813953483084,"midi":67,"time":175.32558139534885,"velocity":0.30708661417322836},{"duration":0.0813953488371908,"midi":73,"time":175.32558139534885,"velocity":0.2992125984251969},{"duration":0.17441860465115155,"midi":87,"time":175.32558139534885,"velocity":0.2677165354330709},{"duration":0.023255813953483084,"midi":45,"time":175.3372093023256,"velocity":0.5590551181102362},{"duration":0.0813953488371908,"midi":77,"time":175.3372093023256,"velocity":0.25984251968503935},{"duration":0.16279069767441,"midi":103,"time":175.3372093023256,"velocity":0.3700787401574803},{"duration":0.034883720930224626,"midi":92,"time":175.34883720930233,"velocity":0.16535433070866143},{"duration":0.011627906976741542,"midi":44,"time":175.36046511627907,"velocity":0.5905511811023622},{"duration":0.08139534883721922,"midi":52,"time":175.36046511627907,"velocity":0.28346456692913385},{"duration":0.011627906976741542,"midi":43,"time":175.37209302325581,"velocity":0.5669291338582677},{"duration":0.034883720930224626,"midi":93,"time":175.37209302325581,"velocity":0.08661417322834646},{"duration":0.011627906976741542,"midi":42,"time":175.38372093023256,"velocity":0.5433070866141733},{"duration":0.05813953488373613,"midi":80,"time":175.38372093023256,"velocity":0.10236220472440945},{"duration":0.09302325581396076,"midi":91,"time":175.38372093023256,"velocity":0.11811023622047244},{"duration":0.05813953488373613,"midi":66,"time":175.3953488372093,"velocity":0.2992125984251969},{"duration":0.17441860465117998,"midi":73,"time":175.41860465116278,"velocity":0.4015748031496063},{"duration":0.023255813953511506,"midi":37,"time":175.43023255813952,"velocity":0.3937007874015748},{"duration":0.023255813953483084,"midi":53,"time":175.4418604651163,"velocity":0.28346456692913385},{"duration":0.023255813953483084,"midi":63,"time":175.4418604651163,"velocity":0.36220472440944884},{"duration":0.023255813953483084,"midi":36,"time":175.45348837209303,"velocity":0.30708661417322836},{"duration":0.034883720930224626,"midi":78,"time":175.45348837209303,"velocity":0.2047244094488189},{"duration":0.06976744186044925,"midi":88,"time":175.45348837209303,"velocity":0.1968503937007874},{"duration":0.034883720930224626,"midi":93,"time":175.45348837209303,"velocity":0.15748031496062992},{"duration":0.023255813953483084,"midi":64,"time":175.46511627906978,"velocity":0.30708661417322836},{"duration":0.04651162790696617,"midi":69,"time":175.46511627906978,"velocity":0.47244094488188976},{"duration":0.05813953488370771,"midi":89,"time":175.46511627906978,"velocity":0.14960629921259844},{"duration":0.04651162790696617,"midi":95,"time":175.46511627906978,"velocity":0.08661417322834646},{"duration":0.08139534883721922,"midi":48,"time":175.48837209302326,"velocity":0.25984251968503935},{"duration":0.12790697674418539,"midi":77,"time":175.48837209302326,"velocity":0.2204724409448819},{"duration":0.04651162790696617,"midi":61,"time":175.5,"velocity":0.33070866141732286},{"duration":0.08139534883721922,"midi":36,"time":175.51162790697674,"velocity":0.29133858267716534},{"duration":0.05813953488373613,"midi":55,"time":175.51162790697674,"velocity":0.23622047244094488},{"duration":0.08139534883721922,"midi":68,"time":175.51162790697674,"velocity":0.5275590551181102},{"duration":0.08139534883721922,"midi":87,"time":175.51162790697674,"velocity":0.2677165354330709},{"duration":0.1046511627907023,"midi":98,"time":175.51162790697674,"velocity":0.15748031496062992},{"duration":0.09302325581396076,"midi":75,"time":175.52325581395348,"velocity":0.3228346456692913},{"duration":0.15116279069766847,"midi":103,"time":175.53488372093022,"velocity":0.2047244094488189},{"duration":0.03488372093025305,"midi":101,"time":175.54651162790697,"velocity":0.12598425196850394},{"duration":0.03488372093025305,"midi":63,"time":175.5581395348837,"velocity":0.2992125984251969},{"duration":0.034883720930224626,"midi":83,"time":175.56976744186048,"velocity":0.30708661417322836},{"duration":0.09302325581393234,"midi":91,"time":175.56976744186048,"velocity":0.2047244094488189},{"duration":0.023255813953483084,"midi":69,"time":175.58139534883722,"velocity":0.29133858267716534},{"duration":0.023255813953483084,"midi":79,"time":175.58139534883722,"velocity":0.31496062992125984},{"duration":0.04651162790696617,"midi":88,"time":175.58139534883722,"velocity":0.33858267716535434},{"duration":0.034883720930224626,"midi":53,"time":175.59302325581396,"velocity":0.28346456692913385},{"duration":0.04651162790696617,"midi":74,"time":175.59302325581396,"velocity":0.2755905511811024},{"duration":0.7093023255813762,"midi":100,"time":175.59302325581396,"velocity":0.36220472440944884},{"duration":0.023255813953483084,"midi":45,"time":175.6046511627907,"velocity":0.2992125984251969},{"duration":0.023255813953483084,"midi":59,"time":175.6046511627907,"velocity":0.2992125984251969},{"duration":0.1046511627907023,"midi":84,"time":175.6046511627907,"velocity":0.2992125984251969},{"duration":0.06976744186044925,"midi":87,"time":175.6046511627907,"velocity":0.33858267716535434},{"duration":0.04651162790696617,"midi":90,"time":175.6046511627907,"velocity":0.1732283464566929},{"duration":0.2906976744185954,"midi":94,"time":175.6046511627907,"velocity":0.2204724409448819},{"duration":0.12790697674418539,"midi":63,"time":175.61627906976744,"velocity":0.3464566929133858},{"duration":0.08139534883721922,"midi":82,"time":175.61627906976744,"velocity":0.33858267716535434},{"duration":0.12790697674418539,"midi":46,"time":175.62790697674419,"velocity":0.25984251968503935},{"duration":0.05813953488370771,"midi":70,"time":175.62790697674419,"velocity":0.28346456692913385},{"duration":0.023255813953483084,"midi":78,"time":175.62790697674419,"velocity":0.3228346456692913},{"duration":0.11627906976744384,"midi":86,"time":175.62790697674419,"velocity":0.3700787401574803},{"duration":0.023255813953483084,"midi":53,"time":175.63953488372093,"velocity":0.25984251968503935},{"duration":0.034883720930224626,"midi":73,"time":175.63953488372093,"velocity":0.11023622047244094},{"duration":0.06976744186047767,"midi":77,"time":175.63953488372093,"velocity":0.31496062992125984},{"duration":0.11627906976744384,"midi":89,"time":175.63953488372093,"velocity":0.3543307086614173},{"duration":0.023255813953483084,"midi":79,"time":175.65116279069767,"velocity":0.2440944881889764},{"duration":0.06976744186047767,"midi":34,"time":175.6627906976744,"velocity":0.25196850393700787},{"duration":0.023255813953483084,"midi":85,"time":175.6627906976744,"velocity":0.2677165354330709},{"duration":0.04651162790699459,"midi":53,"time":175.67441860465115,"velocity":0.2755905511811024},{"duration":0.05813953488373613,"midi":83,"time":175.67441860465115,"velocity":0.4015748031496063},{"duration":0.03488372093025305,"midi":69,"time":175.6860465116279,"velocity":0.2755905511811024},{"duration":0.03488372093025305,"midi":91,"time":175.6860465116279,"velocity":0.16535433070866143},{"duration":0.034883720930224626,"midi":90,"time":175.69767441860466,"velocity":0.2755905511811024},{"duration":0.09302325581393234,"midi":68,"time":175.7093023255814,"velocity":0.33858267716535434},{"duration":0.06976744186044925,"midi":72,"time":175.7093023255814,"velocity":0.13385826771653545},{"duration":0.023255813953483084,"midi":78,"time":175.7093023255814,"velocity":0.2992125984251969},{"duration":0.034883720930224626,"midi":87,"time":175.7093023255814,"velocity":0.4645669291338583},{"duration":0.05813953488370771,"midi":82,"time":175.72093023255815,"velocity":0.11811023622047244},{"duration":0.25581395348837077,"midi":84,"time":175.72093023255815,"velocity":0.4094488188976378},{"duration":0.034883720930224626,"midi":79,"time":175.7325581395349,"velocity":0.31496062992125984},{"duration":0.2325581395348877,"midi":91,"time":175.7325581395349,"velocity":0.3543307086614173},{"duration":0.05813953488370771,"midi":97,"time":175.7325581395349,"velocity":0.14173228346456693},{"duration":0.09302325581396076,"midi":60,"time":175.74418604651163,"velocity":0.2047244094488189},{"duration":0.06976744186047767,"midi":75,"time":175.74418604651163,"velocity":0.11811023622047244},{"duration":0.08139534883721922,"midi":88,"time":175.74418604651163,"velocity":0.5275590551181102},{"duration":0.04651162790696617,"midi":77,"time":175.75581395348837,"velocity":0.12598425196850394},{"duration":0.09302325581396076,"midi":87,"time":175.75581395348837,"velocity":0.25984251968503935},{"duration":0.16279069767443843,"midi":72,"time":175.7906976744186,"velocity":0.3464566929133858},{"duration":0.04651162790699459,"midi":63,"time":175.80232558139534,"velocity":0.13385826771653545},{"duration":0.19767441860466306,"midi":79,"time":175.80232558139534,"velocity":0.3228346456692913},{"duration":0.06976744186044925,"midi":68,"time":175.8139534883721,"velocity":0.1889763779527559},{"duration":0.1046511627907023,"midi":88,"time":175.8372093023256,"velocity":0.48031496062992124},{"duration":0.06976744186044925,"midi":89,"time":175.8372093023256,"velocity":0.2204724409448819},{"duration":0.034883720930224626,"midi":75,"time":175.84883720930233,"velocity":0.11023622047244094},{"duration":0.04651162790696617,"midi":74,"time":175.86046511627907,"velocity":0.14173228346456693},{"duration":0.05813953488370771,"midi":86,"time":175.86046511627907,"velocity":0.14960629921259844},{"duration":0.011627906976741542,"midi":48,"time":175.87209302325581,"velocity":0.5275590551181102},{"duration":0.034883720930224626,"midi":66,"time":175.87209302325581,"velocity":0.09448818897637795},{"duration":0.011627906976741542,"midi":45,"time":175.88372093023256,"velocity":0.5984251968503937},{"duration":0.1046511627907023,"midi":56,"time":175.88372093023256,"velocity":0.25196850393700787},{"duration":0.034883720930224626,"midi":63,"time":175.88372093023256,"velocity":0.1968503937007874},{"duration":0.011627906976741542,"midi":44,"time":175.8953488372093,"velocity":0.5826771653543307},{"duration":0.08139534883721922,"midi":101,"time":175.8953488372093,"velocity":0.2204724409448819},{"duration":0.011627906976741542,"midi":42,"time":175.90697674418604,"velocity":0.5433070866141733},{"duration":0.011627906976741542,"midi":41,"time":175.91860465116278,"velocity":0.5196850393700787},{"duration":0.18604651162792152,"midi":75,"time":175.91860465116278,"velocity":0.2992125984251969},{"duration":0.023255813953511506,"midi":40,"time":175.93023255813952,"velocity":0.5039370078740157},{"duration":0.12790697674418539,"midi":60,"time":175.93023255813952,"velocity":0.2283464566929134},{"duration":0.03488372093025305,"midi":81,"time":175.93023255813952,"velocity":0.12598425196850394},{"duration":0.10465116279067388,"midi":87,"time":175.9418604651163,"velocity":0.4330708661417323},{"duration":0.05813953488370771,"midi":88,"time":175.95348837209303,"velocity":0.3779527559055118},{"duration":0.034883720930224626,"midi":95,"time":175.95348837209303,"velocity":0.16535433070866143},{"duration":0.04651162790696617,"midi":102,"time":175.95348837209303,"velocity":0.1968503937007874},{"duration":0.023255813953483084,"midi":83,"time":175.96511627906978,"velocity":0.3700787401574803},{"duration":0.034883720930224626,"midi":90,"time":175.96511627906978,"velocity":0.3858267716535433},{"duration":0.034883720930224626,"midi":97,"time":175.96511627906978,"velocity":0.13385826771653545},{"duration":0.034883720930224626,"midi":35,"time":175.97674418604652,"velocity":0.4015748031496063},{"duration":0.1860465116278931,"midi":72,"time":175.97674418604652,"velocity":0.29133858267716534},{"duration":0.04651162790696617,"midi":82,"time":175.98837209302326,"velocity":0.4330708661417323},{"duration":0.30232558139533694,"midi":101,"time":175.98837209302326,"velocity":0.16535433070866143},{"duration":0.05813953488370771,"midi":103,"time":175.98837209302326,"velocity":0.2125984251968504},{"duration":0.034883720930224626,"midi":63,"time":176,"velocity":0.14173228346456693},{"duration":0.034883720930224626,"midi":70,"time":176,"velocity":0.28346456692913385},{"duration":0.08139534883721922,"midi":77,"time":176,"velocity":0.36220472440944884},{"duration":0.09302325581396076,"midi":86,"time":176,"velocity":0.33858267716535434},{"duration":0.2906976744185954,"midi":89,"time":176,"velocity":0.4094488188976378},{"duration":0.04651162790696617,"midi":96,"time":176,"velocity":0.14173228346456693},{"duration":0.12790697674418539,"midi":79,"time":176.01162790697674,"velocity":0.16535433070866143},{"duration":0.06976744186047767,"midi":92,"time":176.01162790697674,"velocity":0.12598425196850394},{"duration":0.04651162790699459,"midi":68,"time":176.02325581395348,"velocity":0.15748031496062992},{"duration":0.023255813953483084,"midi":83,"time":176.02325581395348,"velocity":0.33858267716535434},{"duration":0.16279069767441,"midi":102,"time":176.02325581395348,"velocity":0.1889763779527559},{"duration":0.09302325581396076,"midi":88,"time":176.03488372093022,"velocity":0.33070866141732286},{"duration":0.03488372093025305,"midi":82,"time":176.04651162790697,"velocity":0.4015748031496063},{"duration":0.32558139534882,"midi":99,"time":176.06976744186048,"velocity":0.23622047244094488},{"duration":0.034883720930224626,"midi":60,"time":176.08139534883722,"velocity":0.2283464566929134},{"duration":0.05813953488370771,"midi":81,"time":176.08139534883722,"velocity":0.4094488188976378},{"duration":0.04651162790696617,"midi":85,"time":176.08139534883722,"velocity":0.33858267716535434},{"duration":0.06976744186044925,"midi":103,"time":176.08139534883722,"velocity":0.15748031496062992},{"duration":0.023255813953483084,"midi":76,"time":176.1046511627907,"velocity":0.3700787401574803},{"duration":0.0813953488371908,"midi":77,"time":176.1046511627907,"velocity":0.2204724409448819},{"duration":0.06976744186044925,"midi":86,"time":176.1046511627907,"velocity":0.33070866141732286},{"duration":0.0813953488371908,"midi":95,"time":176.1046511627907,"velocity":0.13385826771653545},{"duration":0.023255813953483084,"midi":61,"time":176.11627906976744,"velocity":0.2440944881889764},{"duration":0.25581395348837077,"midi":68,"time":176.11627906976744,"velocity":0.2440944881889764},{"duration":0.16279069767441,"midi":44,"time":176.12790697674419,"velocity":0.3464566929133858},{"duration":0.034883720930224626,"midi":74,"time":176.12790697674419,"velocity":0.2283464566929134},{"duration":0.034883720930224626,"midi":78,"time":176.12790697674419,"velocity":0.1889763779527559},{"duration":0.034883720930224626,"midi":87,"time":176.12790697674419,"velocity":0.25984251968503935},{"duration":0.04651162790696617,"midi":51,"time":176.13953488372093,"velocity":0.2677165354330709},{"duration":0.06976744186047767,"midi":60,"time":176.13953488372093,"velocity":0.2125984251968504},{"duration":0.023255813953483084,"midi":80,"time":176.13953488372093,"velocity":0.31496062992125984},{"duration":0.04651162790696617,"midi":83,"time":176.13953488372093,"velocity":0.2047244094488189},{"duration":0.3720930232558146,"midi":75,"time":176.15116279069767,"velocity":0.44881889763779526},{"duration":0.04651162790699459,"midi":70,"time":176.1627906976744,"velocity":0.09448818897637795},{"duration":0.12790697674418539,"midi":82,"time":176.1627906976744,"velocity":0.23622047244094488},{"duration":0.05813953488373613,"midi":80,"time":176.17441860465115,"velocity":0.4566929133858268},{"duration":0.03488372093025305,"midi":91,"time":176.17441860465115,"velocity":0.09448818897637795},{"duration":0.4418604651162923,"midi":72,"time":176.1860465116279,"velocity":0.28346456692913385},{"duration":0.03488372093025305,"midi":103,"time":176.1860465116279,"velocity":0.2283464566929134},{"duration":0.0813953488371908,"midi":32,"time":176.2093023255814,"velocity":0.25196850393700787},{"duration":0.034883720930224626,"midi":83,"time":176.2093023255814,"velocity":0.2047244094488189},{"duration":0.05813953488370771,"midi":77,"time":176.22093023255815,"velocity":0.2125984251968504},{"duration":0.034883720930224626,"midi":57,"time":176.2325581395349,"velocity":0.2283464566929134},{"duration":0.023255813953483084,"midi":81,"time":176.2325581395349,"velocity":0.4015748031496063},{"duration":0.034883720930224626,"midi":91,"time":176.2325581395349,"velocity":0.14960629921259844},{"duration":0.1046511627907023,"midi":98,"time":176.2325581395349,"velocity":0.1968503937007874},{"duration":0.023255813953483084,"midi":80,"time":176.25581395348837,"velocity":0.31496062992125984},{"duration":0.05813953488373613,"midi":81,"time":176.2674418604651,"velocity":0.25984251968503935},{"duration":0.034883720930224626,"midi":103,"time":176.2674418604651,"velocity":0.15748031496062992},{"duration":0.04651162790699459,"midi":79,"time":176.27906976744185,"velocity":0.36220472440944884},{"duration":0.11627906976744384,"midi":63,"time":176.2906976744186,"velocity":0.4409448818897638},{"duration":0.03488372093025305,"midi":83,"time":176.2906976744186,"velocity":0.11811023622047244},{"duration":0.03488372093025305,"midi":86,"time":176.2906976744186,"velocity":0.2204724409448819},{"duration":0.17441860465117998,"midi":90,"time":176.2906976744186,"velocity":0.2992125984251969},{"duration":0.03488372093025305,"midi":60,"time":176.30232558139534,"velocity":0.10236220472440945},{"duration":0.034883720930224626,"midi":80,"time":176.32558139534885,"velocity":0.31496062992125984},{"duration":0.034883720930224626,"midi":56,"time":176.34883720930233,"velocity":0.3779527559055118},{"duration":0.034883720930224626,"midi":89,"time":176.34883720930233,"velocity":0.12598425196850394},{"duration":0.05813953488370771,"midi":80,"time":176.37209302325581,"velocity":0.30708661417322836},{"duration":0.04651162790696617,"midi":82,"time":176.37209302325581,"velocity":0.11811023622047244},{"duration":0.08139534883721922,"midi":88,"time":176.37209302325581,"velocity":0.2677165354330709},{"duration":0.08139534883721922,"midi":94,"time":176.37209302325581,"velocity":0.2283464566929134},{"duration":0.06976744186047767,"midi":95,"time":176.37209302325581,"velocity":0.2283464566929134},{"duration":0.05813953488370771,"midi":96,"time":176.37209302325581,"velocity":0.2204724409448819},{"duration":0.08139534883721922,"midi":97,"time":176.37209302325581,"velocity":0.2125984251968504},{"duration":0.05813953488370771,"midi":101,"time":176.37209302325581,"velocity":0.1732283464566929},{"duration":0.06976744186047767,"midi":103,"time":176.37209302325581,"velocity":0.23622047244094488},{"duration":0.034883720930224626,"midi":45,"time":176.38372093023256,"velocity":0.5826771653543307},{"duration":0.034883720930224626,"midi":86,"time":176.38372093023256,"velocity":0.14173228346456693},{"duration":0.30232558139536536,"midi":68,"time":176.3953488372093,"velocity":0.3228346456692913},{"duration":0.04651162790699459,"midi":83,"time":176.3953488372093,"velocity":0.14173228346456693},{"duration":0.06976744186047767,"midi":85,"time":176.3953488372093,"velocity":0.14173228346456693},{"duration":0.11627906976744384,"midi":89,"time":176.3953488372093,"velocity":0.18110236220472442},{"duration":0.011627906976741542,"midi":44,"time":176.41860465116278,"velocity":0.5984251968503937},{"duration":0.023255813953511506,"midi":52,"time":176.41860465116278,"velocity":0.2992125984251969},{"duration":0.03488372093025305,"midi":81,"time":176.41860465116278,"velocity":0.14173228346456693},{"duration":0.011627906976769964,"midi":43,"time":176.43023255813952,"velocity":0.5748031496062992},{"duration":0.011627906976741542,"midi":42,"time":176.4418604651163,"velocity":0.5433070866141733},{"duration":0.023255813953483084,"midi":53,"time":176.46511627906978,"velocity":0.2677165354330709},{"duration":0.1860465116278931,"midi":63,"time":176.47674418604652,"velocity":0.25984251968503935},{"duration":0.023255813953483084,"midi":37,"time":176.48837209302326,"velocity":0.4015748031496063},{"duration":0.034883720930224626,"midi":82,"time":176.5,"velocity":0.13385826771653545},{"duration":0.023255813953483084,"midi":36,"time":176.51162790697674,"velocity":0.3228346456692913},{"duration":0.034883720930224626,"midi":56,"time":176.52325581395348,"velocity":0.1889763779527559},{"duration":0.03488372093025305,"midi":99,"time":176.5581395348837,"velocity":0.07086614173228346},{"duration":0.034883720930224626,"midi":73,"time":176.62790697674419,"velocity":0.30708661417322836},{"duration":0.3604651162790731,"midi":91,"time":176.62790697674419,"velocity":0.4015748031496063},{"duration":0.12790697674418539,"midi":94,"time":176.62790697674419,"velocity":0.2440944881889764},{"duration":0.19767441860466306,"midi":96,"time":176.62790697674419,"velocity":0.2992125984251969},{"duration":0.1046511627907023,"midi":44,"time":176.63953488372093,"velocity":0.3228346456692913},{"duration":0.023255813953483084,"midi":57,"time":176.63953488372093,"velocity":0.28346456692913385},{"duration":0.04651162790696617,"midi":78,"time":176.63953488372093,"velocity":0.1732283464566929},{"duration":0.04651162790696617,"midi":81,"time":176.63953488372093,"velocity":0.1732283464566929},{"duration":0.04651162790696617,"midi":86,"time":176.63953488372093,"velocity":0.1889763779527559},{"duration":0.2906976744185954,"midi":87,"time":176.63953488372093,"velocity":0.28346456692913385},{"duration":0.034883720930224626,"midi":88,"time":176.63953488372093,"velocity":0.07874015748031496},{"duration":0.13953488372092693,"midi":93,"time":176.63953488372093,"velocity":0.25196850393700787},{"duration":0.08139534883721922,"midi":97,"time":176.63953488372093,"velocity":0.2125984251968504},{"duration":0.034883720930224626,"midi":51,"time":176.65116279069767,"velocity":0.23622047244094488},{"duration":0.023255813953483084,"midi":74,"time":176.65116279069767,"velocity":0.3464566929133858},{"duration":0.1046511627907023,"midi":92,"time":176.65116279069767,"velocity":0.2992125984251969},{"duration":0.15116279069766847,"midi":95,"time":176.65116279069767,"velocity":0.3543307086614173},{"duration":0.09302325581396076,"midi":102,"time":176.65116279069767,"velocity":0.23622047244094488},{"duration":0.06976744186047767,"midi":56,"time":176.6627906976744,"velocity":0.3858267716535433},{"duration":0.04651162790699459,"midi":75,"time":176.6627906976744,"velocity":0.3858267716535433},{"duration":0.1046511627907023,"midi":72,"time":176.67441860465115,"velocity":0.2992125984251969},{"duration":0.03488372093025305,"midi":90,"time":176.67441860465115,"velocity":0.18110236220472442},{"duration":0.09302325581396076,"midi":82,"time":176.6860465116279,"velocity":0.2047244094488189},{"duration":0.03488372093025305,"midi":88,"time":176.6860465116279,"velocity":0.12598425196850394},{"duration":0.03488372093025305,"midi":100,"time":176.6860465116279,"velocity":0.14960629921259844},{"duration":0.04651162790696617,"midi":51,"time":176.69767441860466,"velocity":0.1968503937007874},{"duration":0.11627906976744384,"midi":89,"time":176.69767441860466,"velocity":0.18110236220472442},{"duration":0.12790697674418539,"midi":98,"time":176.69767441860466,"velocity":0.16535433070866143},{"duration":0.0813953488371908,"midi":75,"time":176.72093023255815,"velocity":0.2677165354330709},{"duration":0.034883720930224626,"midi":79,"time":176.72093023255815,"velocity":0.11023622047244094},{"duration":0.034883720930224626,"midi":86,"time":176.72093023255815,"velocity":0.14960629921259844},{"duration":0.04651162790696617,"midi":60,"time":176.7325581395349,"velocity":0.1889763779527559},{"duration":0.034883720930224626,"midi":32,"time":176.74418604651163,"velocity":0.2047244094488189},{"duration":0.04651162790696617,"midi":52,"time":176.74418604651163,"velocity":0.1889763779527559},{"duration":0.034883720930224626,"midi":56,"time":176.74418604651163,"velocity":0.16535433070866143},{"duration":0.12790697674418539,"midi":68,"time":176.75581395348837,"velocity":0.2992125984251969},{"duration":0.05813953488373613,"midi":90,"time":176.75581395348837,"velocity":0.2204724409448819},{"duration":0.08139534883721922,"midi":78,"time":176.7674418604651,"velocity":0.16535433070866143},{"duration":0.04651162790699459,"midi":81,"time":176.7674418604651,"velocity":0.2047244094488189},{"duration":0.05813953488373613,"midi":86,"time":176.7674418604651,"velocity":0.1968503937007874},{"duration":0.05813953488373613,"midi":92,"time":176.7674418604651,"velocity":0.23622047244094488},{"duration":0.04651162790699459,"midi":94,"time":176.7674418604651,"velocity":0.2125984251968504},{"duration":0.06976744186047767,"midi":77,"time":176.77906976744185,"velocity":0.18110236220472442},{"duration":0.09302325581396076,"midi":51,"time":176.7906976744186,"velocity":0.25196850393700787},{"duration":0.04651162790699459,"midi":74,"time":176.7906976744186,"velocity":0.2125984251968504},{"duration":0.3953488372092977,"midi":80,"time":176.7906976744186,"velocity":0.3228346456692913},{"duration":0.08139534883721922,"midi":100,"time":176.7906976744186,"velocity":0.09448818897637795},{"duration":0.06976744186047767,"midi":44,"time":176.80232558139534,"velocity":0.33858267716535434},{"duration":0.03488372093025305,"midi":57,"time":176.80232558139534,"velocity":0.41732283464566927},{"duration":0.12790697674418539,"midi":63,"time":176.8139534883721,"velocity":0.2755905511811024},{"duration":0.034883720930224626,"midi":72,"time":176.8139534883721,"velocity":0.1889763779527559},{"duration":0.20930232558137618,"midi":75,"time":176.82558139534885,"velocity":0.33858267716535434},{"duration":0.04651162790696617,"midi":56,"time":176.8372093023256,"velocity":0.4015748031496063},{"duration":0.034883720930224626,"midi":33,"time":176.84883720930233,"velocity":0.2677165354330709},{"duration":0.06976744186044925,"midi":72,"time":176.86046511627907,"velocity":0.3779527559055118},{"duration":0.17441860465115155,"midi":95,"time":176.86046511627907,"velocity":0.30708661417322836},{"duration":0.04651162790696617,"midi":97,"time":176.87209302325581,"velocity":0.14173228346456693},{"duration":0.04651162790696617,"midi":32,"time":176.88372093023256,"velocity":0.2677165354330709},{"duration":0.08139534883721922,"midi":93,"time":176.88372093023256,"velocity":0.14960629921259844},{"duration":0.023255813953483084,"midi":59,"time":176.8953488372093,"velocity":0.4015748031496063},{"duration":0.04651162790699459,"midi":81,"time":176.8953488372093,"velocity":0.1968503937007874},{"duration":0.034883720930224626,"midi":83,"time":176.8953488372093,"velocity":0.12598425196850394},{"duration":0.11627906976744384,"midi":89,"time":176.8953488372093,"velocity":0.3543307086614173},{"duration":0.04651162790699459,"midi":96,"time":176.8953488372093,"velocity":0.2204724409448819},{"duration":0.034883720930224626,"midi":100,"time":176.8953488372093,"velocity":0.2204724409448819},{"duration":0.03488372093025305,"midi":78,"time":176.90697674418604,"velocity":0.2992125984251969},{"duration":0.1046511627907023,"midi":85,"time":176.90697674418604,"velocity":0.2677165354330709},{"duration":0.30232558139536536,"midi":94,"time":176.90697674418604,"velocity":0.23622047244094488},{"duration":0.03488372093025305,"midi":98,"time":176.90697674418604,"velocity":0.13385826771653545},{"duration":0.06976744186047767,"midi":102,"time":176.90697674418604,"velocity":0.2047244094488189},{"duration":0.04651162790699459,"midi":60,"time":176.91860465116278,"velocity":0.3543307086614173},{"duration":0.011627906976769964,"midi":47,"time":176.93023255813952,"velocity":0.5669291338582677},{"duration":0.24418604651162923,"midi":73,"time":176.93023255813952,"velocity":0.5039370078740157},{"duration":0.011627906976741542,"midi":45,"time":176.9418604651163,"velocity":0.6141732283464567},{"duration":0.2906976744185954,"midi":82,"time":176.9418604651163,"velocity":0.3779527559055118},{"duration":0.011627906976741542,"midi":43,"time":176.95348837209303,"velocity":0.5984251968503937},{"duration":0.06976744186044925,"midi":63,"time":176.95348837209303,"velocity":0.29133858267716534},{"duration":0.023255813953483084,"midi":42,"time":176.96511627906978,"velocity":0.5669291338582677},{"duration":0.04651162790696617,"midi":81,"time":176.96511627906978,"velocity":0.23622047244094488},{"duration":0.04651162790696617,"midi":68,"time":176.97674418604652,"velocity":0.10236220472440945},{"duration":0.034883720930224626,"midi":99,"time":176.97674418604652,"velocity":0.14173228346456693},{"duration":0.05813953488370771,"midi":102,"time":176.98837209302326,"velocity":0.25196850393700787},{"duration":0.3953488372092977,"midi":91,"time":177,"velocity":0.44881889763779526},{"duration":0.034883720930224626,"midi":90,"time":177.01162790697674,"velocity":0.41732283464566927},{"duration":0.034883720930224626,"midi":98,"time":177.01162790697674,"velocity":0.14173228346456693},{"duration":0.034883720930224626,"midi":57,"time":177.02325581395348,"velocity":0.1968503937007874},{"duration":0.08139534883721922,"midi":61,"time":177.02325581395348,"velocity":0.2677165354330709},{"duration":0.05813953488373613,"midi":89,"time":177.02325581395348,"velocity":0.25984251968503935},{"duration":0.2790697674418823,"midi":75,"time":177.04651162790697,"velocity":0.5354330708661418},{"duration":0.11627906976744384,"midi":68,"time":177.0581395348837,"velocity":0.14173228346456693},{"duration":0.30232558139533694,"midi":97,"time":177.06976744186048,"velocity":0.25984251968503935},{"duration":0.034883720930224626,"midi":60,"time":177.1046511627907,"velocity":0.2992125984251969},{"duration":0.0813953488371908,"midi":89,"time":177.1046511627907,"velocity":0.1732283464566929},{"duration":0.04651162790696617,"midi":63,"time":177.12790697674419,"velocity":0.1968503937007874},{"duration":0.04651162790699459,"midi":77,"time":177.1627906976744,"velocity":0.1732283464566929},{"duration":0.023255813953483084,"midi":78,"time":177.1627906976744,"velocity":0.2283464566929134},{"duration":0.1511627906976969,"midi":96,"time":177.1627906976744,"velocity":0.23622047244094488},{"duration":0.09302325581396076,"midi":48,"time":177.17441860465115,"velocity":0.2204724409448819},{"duration":0.023255813953511506,"midi":61,"time":177.17441860465115,"velocity":0.4251968503937008},{"duration":0.04651162790699459,"midi":81,"time":177.17441860465115,"velocity":0.2755905511811024},{"duration":0.06976744186047767,"midi":84,"time":177.17441860465115,"velocity":0.23622047244094488},{"duration":0.04651162790699459,"midi":88,"time":177.17441860465115,"velocity":0.16535433070866143},{"duration":0.04651162790699459,"midi":98,"time":177.17441860465115,"velocity":0.11023622047244094},{"duration":0.09302325581396076,"midi":100,"time":177.17441860465115,"velocity":0.1732283464566929},{"duration":0.12790697674418539,"midi":102,"time":177.17441860465115,"velocity":0.2992125984251969},{"duration":0.03488372093025305,"midi":71,"time":177.1860465116279,"velocity":0.25196850393700787},{"duration":0.023255813953511506,"midi":74,"time":177.1860465116279,"velocity":0.4094488188976378},{"duration":0.05813953488373613,"midi":90,"time":177.1860465116279,"velocity":0.30708661417322836},{"duration":0.034883720930224626,"midi":40,"time":177.19767441860466,"velocity":0.2992125984251969},{"duration":0.023255813953483084,"midi":60,"time":177.19767441860466,"velocity":0.4566929133858268},{"duration":0.04651162790696617,"midi":68,"time":177.19767441860466,"velocity":0.14173228346456693},{"duration":0.16279069767441,"midi":80,"time":177.19767441860466,"velocity":0.2440944881889764},{"duration":0.19767441860463464,"midi":89,"time":177.19767441860466,"velocity":0.2992125984251969},{"duration":0.034883720930224626,"midi":95,"time":177.19767441860466,"velocity":0.25984251968503935},{"duration":0.1046511627907023,"midi":73,"time":177.2093023255814,"velocity":0.4330708661417323},{"duration":0.034883720930224626,"midi":61,"time":177.22093023255815,"velocity":0.41732283464566927},{"duration":0.09302325581396076,"midi":77,"time":177.22093023255815,"velocity":0.1732283464566929},{"duration":0.08139534883721922,"midi":41,"time":177.2325581395349,"velocity":0.2204724409448819},{"duration":0.023255813953483084,"midi":53,"time":177.2325581395349,"velocity":0.23622047244094488},{"duration":0.08139534883721922,"midi":95,"time":177.2674418604651,"velocity":0.2677165354330709},{"duration":0.03488372093025305,"midi":30,"time":177.27906976744185,"velocity":0.14960629921259844},{"duration":0.03488372093025305,"midi":51,"time":177.2906976744186,"velocity":0.2204724409448819},{"duration":0.03488372093025305,"midi":61,"time":177.2906976744186,"velocity":0.1968503937007874},{"duration":0.03488372093025305,"midi":83,"time":177.30232558139534,"velocity":0.13385826771653545},{"duration":0.05813953488370771,"midi":65,"time":177.3139534883721,"velocity":0.2440944881889764},{"duration":0.04651162790696617,"midi":72,"time":177.3139534883721,"velocity":0.28346456692913385},{"duration":0.023255813953483084,"midi":78,"time":177.3139534883721,"velocity":0.2677165354330709},{"duration":0.023255813953483084,"midi":62,"time":177.32558139534885,"velocity":0.25196850393700787},{"duration":0.09302325581393234,"midi":77,"time":177.32558139534885,"velocity":0.2677165354330709},{"duration":0.04651162790696617,"midi":93,"time":177.32558139534885,"velocity":0.09448818897637795},{"duration":0.09302325581393234,"midi":68,"time":177.3372093023256,"velocity":0.25196850393700787},{"duration":0.04651162790696617,"midi":61,"time":177.34883720930233,"velocity":0.25984251968503935},{"duration":0.04651162790696617,"midi":75,"time":177.34883720930233,"velocity":0.2283464566929134},{"duration":0.023255813953483084,"midi":56,"time":177.36046511627907,"velocity":0.2992125984251969},{"duration":0.034883720930224626,"midi":71,"time":177.36046511627907,"velocity":0.09448818897637795},{"duration":0.034883720930224626,"midi":102,"time":177.36046511627907,"velocity":0.09448818897637795},{"duration":0.034883720930224626,"midi":48,"time":177.37209302325581,"velocity":0.25984251968503935},{"duration":0.04651162790696617,"midi":41,"time":177.38372093023256,"velocity":0.2677165354330709},{"duration":0.034883720930224626,"midi":90,"time":177.38372093023256,"velocity":0.14173228346456693},{"duration":0.034883720930224626,"midi":60,"time":177.3953488372093,"velocity":0.2677165354330709},{"duration":0.04651162790699459,"midi":84,"time":177.3953488372093,"velocity":0.11811023622047244},{"duration":0.03488372093025305,"midi":73,"time":177.40697674418604,"velocity":0.25984251968503935},{"duration":0.45348837209303383,"midi":102,"time":177.40697674418604,"velocity":0.3228346456692913},{"duration":0.06976744186047767,"midi":75,"time":177.41860465116278,"velocity":0.14173228346456693},{"duration":0.03488372093025305,"midi":78,"time":177.41860465116278,"velocity":0.1889763779527559},{"duration":0.1511627906976969,"midi":89,"time":177.41860465116278,"velocity":0.30708661417322836},{"duration":0.12790697674418539,"midi":100,"time":177.41860465116278,"velocity":0.2125984251968504},{"duration":0.023255813953511506,"midi":49,"time":177.43023255813952,"velocity":0.2440944881889764},{"duration":0.05813953488373613,"midi":61,"time":177.43023255813952,"velocity":0.4409448818897638},{"duration":0.05813953488373613,"midi":81,"time":177.43023255813952,"velocity":0.1732283464566929},{"duration":0.023255813953511506,"midi":86,"time":177.43023255813952,"velocity":0.2283464566929134},{"duration":0.08139534883721922,"midi":88,"time":177.43023255813952,"velocity":0.25196850393700787},{"duration":0.04651162790699459,"midi":90,"time":177.43023255813952,"velocity":0.2755905511811024},{"duration":0.06976744186047767,"midi":92,"time":177.43023255813952,"velocity":0.33858267716535434},{"duration":0.09302325581396076,"midi":95,"time":177.43023255813952,"velocity":0.14960629921259844},{"duration":0.06976744186047767,"midi":97,"time":177.43023255813952,"velocity":0.25196850393700787},{"duration":0.12790697674418539,"midi":99,"time":177.43023255813952,"velocity":0.14960629921259844},{"duration":0.023255813953483084,"midi":67,"time":177.4418604651163,"velocity":0.28346456692913385},{"duration":0.0813953488371908,"midi":80,"time":177.4418604651163,"velocity":0.1889763779527559},{"duration":0.05813953488370771,"midi":83,"time":177.4418604651163,"velocity":0.1889763779527559},{"duration":0.16279069767441,"midi":93,"time":177.4418604651163,"velocity":0.33858267716535434},{"duration":0.034883720930224626,"midi":94,"time":177.4418604651163,"velocity":0.16535433070866143},{"duration":0.023255813953483084,"midi":45,"time":177.45348837209303,"velocity":0.5748031496062992},{"duration":0.05813953488370771,"midi":87,"time":177.45348837209303,"velocity":0.2204724409448819},{"duration":0.04651162790696617,"midi":91,"time":177.46511627906978,"velocity":0.14173228346456693},{"duration":0.011627906976741542,"midi":44,"time":177.47674418604652,"velocity":0.5748031496062992},{"duration":0.034883720930224626,"midi":52,"time":177.47674418604652,"velocity":0.25984251968503935},{"duration":0.06976744186044925,"midi":103,"time":177.47674418604652,"velocity":0.2204724409448819},{"duration":0.011627906976741542,"midi":43,"time":177.48837209302326,"velocity":0.5433070866141733},{"duration":0.05813953488370771,"midi":74,"time":177.48837209302326,"velocity":0.3543307086614173},{"duration":0.09302325581396076,"midi":84,"time":177.48837209302326,"velocity":0.18110236220472442},{"duration":0.04651162790696617,"midi":96,"time":177.48837209302326,"velocity":0.18110236220472442},{"duration":0.04651162790696617,"midi":98,"time":177.48837209302326,"velocity":0.13385826771653545},{"duration":0.06976744186047767,"midi":61,"time":177.5,"velocity":0.4330708661417323},{"duration":0.023255813953483084,"midi":66,"time":177.5,"velocity":0.31496062992125984},{"duration":0.19767441860466306,"midi":82,"time":177.5,"velocity":0.16535433070866143},{"duration":0.11627906976744384,"midi":85,"time":177.51162790697674,"velocity":0.1889763779527559},{"duration":0.034883720930224626,"midi":92,"time":177.51162790697674,"velocity":0.4330708661417323},{"duration":0.25581395348837077,"midi":65,"time":177.52325581395348,"velocity":0.4015748031496063},{"duration":0.1046511627907023,"midi":94,"time":177.52325581395348,"velocity":0.36220472440944884},{"duration":0.023255813953511506,"midi":37,"time":177.54651162790697,"velocity":0.3700787401574803},{"duration":0.04651162790699459,"midi":88,"time":177.54651162790697,"velocity":0.2047244094488189},{"duration":0.19767441860466306,"midi":91,"time":177.54651162790697,"velocity":0.4645669291338583},{"duration":0.03488372093025305,"midi":75,"time":177.5581395348837,"velocity":0.2440944881889764},{"duration":0.023255813953483084,"midi":36,"time":177.56976744186048,"velocity":0.2677165354330709},{"duration":0.023255813953483084,"midi":55,"time":177.56976744186048,"velocity":0.2283464566929134},{"duration":0.04651162790696617,"midi":90,"time":177.56976744186048,"velocity":0.13385826771653545},{"duration":0.04651162790696617,"midi":61,"time":177.58139534883722,"velocity":0.4330708661417323},{"duration":0.023255813953483084,"midi":72,"time":177.59302325581396,"velocity":0.3779527559055118},{"duration":0.1046511627907023,"midi":87,"time":177.59302325581396,"velocity":0.11811023622047244},{"duration":0.034883720930224626,"midi":89,"time":177.59302325581396,"velocity":0.33858267716535434},{"duration":0.0813953488371908,"midi":92,"time":177.59302325581396,"velocity":0.30708661417322836},{"duration":0.04651162790696617,"midi":75,"time":177.6046511627907,"velocity":0.25984251968503935},{"duration":0.3953488372092977,"midi":95,"time":177.61627906976744,"velocity":0.4015748031496063},{"duration":0.06976744186047767,"midi":36,"time":177.62790697674419,"velocity":0.28346456692913385},{"duration":0.04651162790696617,"midi":62,"time":177.62790697674419,"velocity":0.3858267716535433},{"duration":0.09302325581396076,"midi":68,"time":177.62790697674419,"velocity":0.2992125984251969},{"duration":0.18604651162792152,"midi":84,"time":177.62790697674419,"velocity":0.23622047244094488},{"duration":0.04651162790696617,"midi":90,"time":177.62790697674419,"velocity":0.36220472440944884},{"duration":0.034883720930224626,"midi":55,"time":177.63953488372093,"velocity":0.2204724409448819},{"duration":0.05813953488373613,"midi":93,"time":177.63953488372093,"velocity":0.23622047244094488},{"duration":0.05813953488373613,"midi":85,"time":177.6627906976744,"velocity":0.14173228346456693},{"duration":0.03488372093025305,"midi":61,"time":177.67441860465115,"velocity":0.44881889763779526},{"duration":0.09302325581396076,"midi":89,"time":177.67441860465115,"velocity":0.31496062992125984},{"duration":0.18604651162792152,"midi":92,"time":177.6860465116279,"velocity":0.28346456692913385},{"duration":0.13953488372092693,"midi":75,"time":177.69767441860466,"velocity":0.30708661417322836},{"duration":0.034883720930224626,"midi":83,"time":177.69767441860466,"velocity":0.13385826771653545},{"duration":0.034883720930224626,"midi":99,"time":177.7093023255814,"velocity":0.07874015748031496},{"duration":0.05813953488370771,"midi":61,"time":177.72093023255815,"velocity":0.3858267716535433},{"duration":0.11627906976744384,"midi":73,"time":177.72093023255815,"velocity":0.4251968503937008},{"duration":0.05813953488370771,"midi":94,"time":177.72093023255815,"velocity":0.2992125984251969},{"duration":0.09302325581396076,"midi":46,"time":177.7325581395349,"velocity":0.25984251968503935},{"duration":0.023255813953483084,"midi":68,"time":177.7325581395349,"velocity":0.23622047244094488},{"duration":0.023255813953483084,"midi":57,"time":177.74418604651163,"velocity":0.3779527559055118},{"duration":0.05813953488373613,"midi":68,"time":177.7674418604651,"velocity":0.2677165354330709},{"duration":0.06976744186047767,"midi":103,"time":177.7674418604651,"velocity":0.14173228346456693},{"duration":0.04651162790699459,"midi":34,"time":177.77906976744185,"velocity":0.25196850393700787},{"duration":0.023255813953483084,"midi":62,"time":177.77906976744185,"velocity":0.28346456692913385},{"duration":0.05813953488373613,"midi":66,"time":177.77906976744185,"velocity":0.3779527559055118},{"duration":0.03488372093025305,"midi":81,"time":177.77906976744185,"velocity":0.1732283464566929},{"duration":0.13953488372092693,"midi":89,"time":177.77906976744185,"velocity":0.30708661417322836},{"duration":0.04651162790699459,"midi":86,"time":177.7906976744186,"velocity":0.2047244094488189},{"duration":0.023255813953511506,"midi":61,"time":177.80232558139534,"velocity":0.4251968503937008},{"duration":0.023255813953483084,"midi":62,"time":177.82558139534885,"velocity":0.4251968503937008},{"duration":0.46511627906974695,"midi":77,"time":177.82558139534885,"velocity":0.33858267716535434},{"duration":0.023255813953483084,"midi":67,"time":177.8372093023256,"velocity":0.28346456692913385},{"duration":0.034883720930224626,"midi":81,"time":177.8372093023256,"velocity":0.12598425196850394},{"duration":0.09302325581393234,"midi":84,"time":177.8372093023256,"velocity":0.25196850393700787},{"duration":0.034883720930224626,"midi":90,"time":177.8372093023256,"velocity":0.12598425196850394},{"duration":0.11627906976744384,"midi":75,"time":177.84883720930233,"velocity":0.25196850393700787},{"duration":0.034883720930224626,"midi":56,"time":177.86046511627907,"velocity":0.25196850393700787},{"duration":0.023255813953483084,"midi":62,"time":177.86046511627907,"velocity":0.30708661417322836},{"duration":0.15116279069766847,"midi":68,"time":177.86046511627907,"velocity":0.3543307086614173},{"duration":0.023255813953483084,"midi":74,"time":177.86046511627907,"velocity":0.3543307086614173},{"duration":0.04651162790696617,"midi":93,"time":177.86046511627907,"velocity":0.13385826771653545},{"duration":0.034883720930224626,"midi":103,"time":177.86046511627907,"velocity":0.10236220472440945},{"duration":0.023255813953483084,"midi":65,"time":177.87209302325581,"velocity":0.2283464566929134},{"duration":0.04651162790696617,"midi":61,"time":177.88372093023256,"velocity":0.4251968503937008},{"duration":0.6046511627907023,"midi":92,"time":177.88372093023256,"velocity":0.25196850393700787},{"duration":0.06976744186047767,"midi":88,"time":177.8953488372093,"velocity":0.2047244094488189},{"duration":0.03488372093025305,"midi":56,"time":177.90697674418604,"velocity":0.2047244094488189},{"duration":0.03488372093025305,"midi":65,"time":177.93023255813952,"velocity":0.3543307086614173},{"duration":0.16279069767441,"midi":61,"time":177.9418604651163,"velocity":0.3937007874015748},{"duration":0.04651162790696617,"midi":94,"time":177.9418604651163,"velocity":0.11811023622047244},{"duration":0.13953488372092693,"midi":73,"time":177.95348837209303,"velocity":0.3937007874015748},{"duration":0.06976744186044925,"midi":84,"time":177.95348837209303,"velocity":0.11811023622047244},{"duration":0.034883720930224626,"midi":93,"time":177.95348837209303,"velocity":0.07874015748031496},{"duration":0.034883720930224626,"midi":102,"time":177.95348837209303,"velocity":0.15748031496062992},{"duration":0.05813953488370771,"midi":103,"time":177.95348837209303,"velocity":0.13385826771653545},{"duration":0.023255813953483084,"midi":66,"time":177.96511627906978,"velocity":0.3464566929133858},{"duration":0.034883720930224626,"midi":87,"time":177.96511627906978,"velocity":0.08661417322834646},{"duration":0.034883720930224626,"midi":99,"time":177.97674418604652,"velocity":0.08661417322834646},{"duration":0.023255813953483084,"midi":45,"time":177.98837209302326,"velocity":0.6141732283464567},{"duration":0.011627906976741542,"midi":44,"time":178.01162790697674,"velocity":0.5826771653543307},{"duration":0.011627906976741542,"midi":42,"time":178.02325581395348,"velocity":0.5590551181102362},{"duration":0.04651162790699459,"midi":65,"time":178.02325581395348,"velocity":0.2440944881889764},{"duration":0.011627906976741542,"midi":41,"time":178.03488372093022,"velocity":0.5118110236220472},{"duration":0.09302325581396076,"midi":68,"time":178.03488372093022,"velocity":0.4015748031496063},{"duration":0.12790697674418539,"midi":75,"time":178.03488372093022,"velocity":0.2440944881889764},{"duration":0.06976744186044925,"midi":91,"time":178.08139534883722,"velocity":0.1889763779527559},{"duration":0.034883720930224626,"midi":36,"time":178.09302325581396,"velocity":0.33858267716535434},{"duration":0.27906976744185386,"midi":73,"time":178.1046511627907,"velocity":0.4251968503937008},{"duration":0.023255813953483084,"midi":61,"time":178.11627906976744,"velocity":0.23622047244094488},{"duration":0.06976744186044925,"midi":66,"time":178.11627906976744,"velocity":0.2677165354330709},{"duration":0.05813953488370771,"midi":93,"time":178.11627906976744,"velocity":0.14173228346456693},{"duration":0.08139534883721922,"midi":99,"time":178.11627906976744,"velocity":0.18110236220472442},{"duration":0.15116279069766847,"midi":68,"time":178.13953488372093,"velocity":0.41732283464566927},{"duration":0.1046511627907023,"midi":95,"time":178.15116279069767,"velocity":0.16535433070866143},{"duration":0.08139534883721922,"midi":61,"time":178.1627906976744,"velocity":0.3779527559055118},{"duration":0.13953488372095535,"midi":65,"time":178.1860465116279,"velocity":0.2992125984251969},{"duration":0.05813953488373613,"midi":84,"time":178.1860465116279,"velocity":0.14173228346456693},{"duration":0.034883720930224626,"midi":75,"time":178.19767441860466,"velocity":0.2283464566929134},{"duration":0.023255813953483084,"midi":57,"time":178.22093023255815,"velocity":0.3228346456692913},{"duration":0.04651162790696617,"midi":86,"time":178.22093023255815,"velocity":0.2047244094488189},{"duration":0.034883720930224626,"midi":93,"time":178.22093023255815,"velocity":0.09448818897637795},{"duration":0.034883720930224626,"midi":102,"time":178.22093023255815,"velocity":0.09448818897637795},{"duration":0.05813953488370771,"midi":81,"time":178.2325581395349,"velocity":0.2677165354330709},{"duration":0.05813953488370771,"midi":97,"time":178.2325581395349,"velocity":0.10236220472440945},{"duration":0.12790697674418539,"midi":44,"time":178.24418604651163,"velocity":0.3700787401574803},{"duration":0.04651162790696617,"midi":51,"time":178.24418604651163,"velocity":0.3464566929133858},{"duration":0.08139534883721922,"midi":75,"time":178.24418604651163,"velocity":0.28346456692913385},{"duration":0.023255813953511506,"midi":53,"time":178.2906976744186,"velocity":0.36220472440944884},{"duration":0.023255813953511506,"midi":61,"time":178.2906976744186,"velocity":0.30708661417322836},{"duration":0.0813953488371908,"midi":32,"time":178.3139534883721,"velocity":0.31496062992125984},{"duration":0.023255813953483084,"midi":62,"time":178.3139534883721,"velocity":0.25196850393700787},{"duration":0.09302325581393234,"midi":68,"time":178.3139534883721,"velocity":0.31496062992125984},{"duration":0.023255813953483084,"midi":66,"time":178.32558139534885,"velocity":0.23622047244094488},{"duration":0.023255813953483084,"midi":61,"time":178.3372093023256,"velocity":0.25984251968503935},{"duration":0.09302325581396076,"midi":65,"time":178.34883720930233,"velocity":0.2677165354330709},{"duration":0.023255813953483084,"midi":71,"time":178.34883720930233,"velocity":0.2283464566929134},{"duration":0.034883720930224626,"midi":78,"time":178.36046511627907,"velocity":0.2440944881889764},{"duration":0.034883720930224626,"midi":84,"time":178.36046511627907,"velocity":0.09448818897637795},{"duration":0.034883720930224626,"midi":93,"time":178.36046511627907,"velocity":0.11023622047244094},{"duration":0.034883720930224626,"midi":96,"time":178.36046511627907,"velocity":0.12598425196850394},{"duration":0.034883720930224626,"midi":45,"time":178.37209302325581,"velocity":0.15748031496062992},{"duration":0.1046511627907023,"midi":77,"time":178.37209302325581,"velocity":0.28346456692913385},{"duration":0.04651162790696617,"midi":75,"time":178.38372093023256,"velocity":0.1889763779527559},{"duration":0.034883720930224626,"midi":99,"time":178.38372093023256,"velocity":0.11023622047244094},{"duration":0.09302325581396076,"midi":61,"time":178.3953488372093,"velocity":0.3543307086614173},{"duration":0.05813953488373613,"midi":73,"time":178.3953488372093,"velocity":0.4094488188976378},{"duration":0.034883720930224626,"midi":94,"time":178.3953488372093,"velocity":0.07874015748031496},{"duration":0.19767441860466306,"midi":102,"time":178.3953488372093,"velocity":0.25196850393700787},{"duration":0.05813953488373613,"midi":90,"time":178.40697674418604,"velocity":0.2204724409448819},{"duration":0.06976744186047767,"midi":101,"time":178.40697674418604,"velocity":0.14960629921259844},{"duration":0.023255813953511506,"midi":68,"time":178.41860465116278,"velocity":0.29133858267716534},{"duration":0.023255813953511506,"midi":53,"time":178.43023255813952,"velocity":0.28346456692913385},{"duration":0.023255813953483084,"midi":66,"time":178.45348837209303,"velocity":0.2755905511811024},{"duration":0.034883720930224626,"midi":57,"time":178.46511627906978,"velocity":0.3464566929133858},{"duration":0.023255813953483084,"midi":65,"time":178.47674418604652,"velocity":0.4094488188976378},{"duration":0.04651162790696617,"midi":74,"time":178.48837209302326,"velocity":0.23622047244094488},{"duration":0.04651162790696617,"midi":80,"time":178.48837209302326,"velocity":0.1889763779527559},{"duration":0.08139534883721922,"midi":82,"time":178.48837209302326,"velocity":0.2204724409448819},{"duration":0.04651162790696617,"midi":84,"time":178.48837209302326,"velocity":0.14173228346456693},{"duration":0.1046511627907023,"midi":87,"time":178.48837209302326,"velocity":0.16535433070866143},{"duration":0.06976744186044925,"midi":88,"time":178.48837209302326,"velocity":0.2125984251968504},{"duration":0.05813953488370771,"midi":89,"time":178.48837209302326,"velocity":0.2204724409448819},{"duration":0.09302325581396076,"midi":90,"time":178.48837209302326,"velocity":0.33070866141732286},{"duration":0.06976744186044925,"midi":91,"time":178.48837209302326,"velocity":0.25196850393700787},{"duration":0.04651162790696617,"midi":93,"time":178.48837209302326,"velocity":0.1889763779527559},{"duration":0.09302325581396076,"midi":95,"time":178.48837209302326,"velocity":0.15748031496062992},{"duration":0.38372093023255616,"midi":97,"time":178.48837209302326,"velocity":0.25984251968503935},{"duration":0.1046511627907023,"midi":98,"time":178.48837209302326,"velocity":0.1889763779527559},{"duration":0.09302325581396076,"midi":99,"time":178.48837209302326,"velocity":0.23622047244094488},{"duration":0.08139534883721922,"midi":100,"time":178.48837209302326,"velocity":0.2440944881889764},{"duration":0.023255813953483084,"midi":61,"time":178.5,"velocity":0.4251968503937008},{"duration":0.1046511627907023,"midi":68,"time":178.5,"velocity":0.4015748031496063},{"duration":0.034883720930224626,"midi":77,"time":178.5,"velocity":0.23622047244094488},{"duration":0.04651162790696617,"midi":79,"time":178.5,"velocity":0.1732283464566929},{"duration":0.05813953488370771,"midi":83,"time":178.5,"velocity":0.15748031496062992},{"duration":0.023255813953483084,"midi":45,"time":178.51162790697674,"velocity":0.5826771653543307},{"duration":0.023255813953483084,"midi":56,"time":178.51162790697674,"velocity":0.4251968503937008},{"duration":0.11627906976744384,"midi":85,"time":178.51162790697674,"velocity":0.2204724409448819},{"duration":0.1046511627907023,"midi":92,"time":178.51162790697674,"velocity":0.25984251968503935},{"duration":0.011627906976741542,"midi":44,"time":178.53488372093022,"velocity":0.5826771653543307},{"duration":0.05813953488373613,"midi":65,"time":178.53488372093022,"velocity":0.1968503937007874},{"duration":0.04651162790699459,"midi":75,"time":178.53488372093022,"velocity":0.3543307086614173},{"duration":0.05813953488373613,"midi":96,"time":178.53488372093022,"velocity":0.1889763779527559},{"duration":0.011627906976741542,"midi":42,"time":178.54651162790697,"velocity":0.5748031496062992},{"duration":0.1046511627907023,"midi":56,"time":178.54651162790697,"velocity":0.4251968503937008},{"duration":0.03488372093025305,"midi":84,"time":178.54651162790697,"velocity":0.13385826771653545},{"duration":0.023255813953511506,"midi":41,"time":178.5581395348837,"velocity":0.5118110236220472},{"duration":0.04651162790696617,"midi":83,"time":178.56976744186048,"velocity":0.07086614173228346},{"duration":0.06976744186044925,"midi":73,"time":178.58139534883722,"velocity":0.2677165354330709},{"duration":0.11627906976744384,"midi":88,"time":178.58139534883722,"velocity":0.29133858267716534},{"duration":0.034883720930224626,"midi":89,"time":178.58139534883722,"velocity":0.14960629921259844},{"duration":0.023255813953483084,"midi":38,"time":178.59302325581396,"velocity":0.36220472440944884},{"duration":0.13953488372092693,"midi":77,"time":178.59302325581396,"velocity":0.3228346456692913},{"duration":0.1046511627907023,"midi":90,"time":178.59302325581396,"velocity":0.25196850393700787},{"duration":0.11627906976744384,"midi":94,"time":178.59302325581396,"velocity":0.1732283464566929},{"duration":0.04651162790696617,"midi":69,"time":178.6046511627907,"velocity":0.2125984251968504},{"duration":0.17441860465115155,"midi":86,"time":178.6046511627907,"velocity":0.2992125984251969},{"duration":0.06976744186044925,"midi":66,"time":178.61627906976744,"velocity":0.2440944881889764},{"duration":0.023255813953483084,"midi":72,"time":178.61627906976744,"velocity":0.2992125984251969},{"duration":0.023255813953483084,"midi":81,"time":178.61627906976744,"velocity":0.30708661417322836},{"duration":0.034883720930224626,"midi":91,"time":178.61627906976744,"velocity":0.2440944881889764},{"duration":0.15116279069766847,"midi":95,"time":178.61627906976744,"velocity":0.1889763779527559},{"duration":0.06976744186044925,"midi":101,"time":178.61627906976744,"velocity":0.2440944881889764},{"duration":0.04651162790696617,"midi":83,"time":178.62790697674419,"velocity":0.2677165354330709},{"duration":0.05813953488370771,"midi":96,"time":178.62790697674419,"velocity":0.14173228346456693},{"duration":0.24418604651162923,"midi":99,"time":178.62790697674419,"velocity":0.25984251968503935},{"duration":0.08139534883721922,"midi":44,"time":178.63953488372093,"velocity":0.3543307086614173},{"duration":0.04651162790696617,"midi":75,"time":178.63953488372093,"velocity":0.2125984251968504},{"duration":0.05813953488373613,"midi":82,"time":178.63953488372093,"velocity":0.33858267716535434},{"duration":0.023255813953483084,"midi":55,"time":178.65116279069767,"velocity":0.28346456692913385},{"duration":0.04651162790699459,"midi":68,"time":178.65116279069767,"velocity":0.2125984251968504},{"duration":0.08139534883721922,"midi":70,"time":178.65116279069767,"velocity":0.3700787401574803},{"duration":0.04651162790699459,"midi":103,"time":178.65116279069767,"velocity":0.13385826771653545},{"duration":0.08139534883721922,"midi":92,"time":178.6627906976744,"velocity":0.25196850393700787},{"duration":0.03488372093025305,"midi":93,"time":178.67441860465115,"velocity":0.09448818897637795},{"duration":0.03488372093025305,"midi":58,"time":178.6860465116279,"velocity":0.31496062992125984},{"duration":0.034883720930224626,"midi":80,"time":178.69767441860466,"velocity":0.07086614173228346},{"duration":0.1046511627907023,"midi":32,"time":178.7093023255814,"velocity":0.2992125984251969},{"duration":0.023255813953483084,"midi":51,"time":178.7093023255814,"velocity":0.33070866141732286},{"duration":0.04651162790696617,"midi":68,"time":178.7093023255814,"velocity":0.2125984251968504},{"duration":0.05813953488370771,"midi":75,"time":178.7093023255814,"velocity":0.23622047244094488},{"duration":0.1046511627907023,"midi":88,"time":178.72093023255815,"velocity":0.3228346456692913},{"duration":0.023255813953483084,"midi":56,"time":178.74418604651163,"velocity":0.28346456692913385},{"duration":0.023255813953483084,"midi":60,"time":178.75581395348837,"velocity":0.30708661417322836},{"duration":0.08139534883721922,"midi":69,"time":178.75581395348837,"velocity":0.15748031496062992},{"duration":0.06976744186047767,"midi":73,"time":178.75581395348837,"velocity":0.48031496062992124},{"duration":0.09302325581396076,"midi":92,"time":178.75581395348837,"velocity":0.1732283464566929},{"duration":0.2093023255814046,"midi":102,"time":178.75581395348837,"velocity":0.2992125984251969},{"duration":0.05813953488373613,"midi":77,"time":178.7674418604651,"velocity":0.11023622047244094},{"duration":0.06976744186047767,"midi":94,"time":178.7674418604651,"velocity":0.11811023622047244},{"duration":0.023255813953483084,"midi":57,"time":178.77906976744185,"velocity":0.2283464566929134},{"duration":0.04651162790699459,"midi":61,"time":178.77906976744185,"velocity":0.2440944881889764},{"duration":0.04651162790699459,"midi":80,"time":178.77906976744185,"velocity":0.1889763779527559},{"duration":0.19767441860466306,"midi":101,"time":178.77906976744185,"velocity":0.29133858267716534},{"duration":0.023255813953483084,"midi":56,"time":178.8139534883721,"velocity":0.25984251968503935},{"duration":0.05813953488370771,"midi":84,"time":178.8139534883721,"velocity":0.31496062992125984},{"duration":0.16279069767441,"midi":103,"time":178.8139534883721,"velocity":0.1732283464566929},{"duration":0.023255813953483084,"midi":51,"time":178.82558139534885,"velocity":0.25984251968503935},{"duration":0.04651162790696617,"midi":72,"time":178.82558139534885,"velocity":0.41732283464566927},{"duration":0.034883720930224626,"midi":89,"time":178.82558139534885,"velocity":0.07086614173228346},{"duration":0.16279069767441,"midi":100,"time":178.82558139534885,"velocity":0.2677165354330709},{"duration":0.05813953488370771,"midi":82,"time":178.8372093023256,"velocity":0.12598425196850394},{"duration":0.034883720930224626,"midi":49,"time":178.84883720930233,"velocity":0.2283464566929134},{"duration":0.034883720930224626,"midi":59,"time":178.84883720930233,"velocity":0.30708661417322836},{"duration":0.023255813953483084,"midi":70,"time":178.84883720930233,"velocity":0.29133858267716534},{"duration":0.034883720930224626,"midi":77,"time":178.84883720930233,"velocity":0.11811023622047244},{"duration":0.0813953488371908,"midi":86,"time":178.84883720930233,"velocity":0.2677165354330709},{"duration":0.04651162790696617,"midi":66,"time":178.87209302325581,"velocity":0.4094488188976378},{"duration":0.023255813953483084,"midi":71,"time":178.87209302325581,"velocity":0.31496062992125984},{"duration":0.05813953488370771,"midi":89,"time":178.87209302325581,"velocity":0.2440944881889764},{"duration":0.08139534883721922,"midi":96,"time":178.87209302325581,"velocity":0.29133858267716534},{"duration":0.12790697674418539,"midi":88,"time":178.88372093023256,"velocity":0.1732283464566929},{"duration":0.08139534883721922,"midi":90,"time":178.88372093023256,"velocity":0.16535433070866143},{"duration":0.22093023255814614,"midi":92,"time":178.88372093023256,"velocity":0.23622047244094488},{"duration":0.1046511627907023,"midi":94,"time":178.88372093023256,"velocity":0.33070866141732286},{"duration":0.08139534883721922,"midi":95,"time":178.88372093023256,"velocity":0.18110236220472442},{"duration":0.023255813953483084,"midi":47,"time":178.8953488372093,"velocity":0.31496062992125984},{"duration":0.05813953488373613,"midi":70,"time":178.8953488372093,"velocity":0.33858267716535434},{"duration":0.034883720930224626,"midi":91,"time":178.8953488372093,"velocity":0.18110236220472442},{"duration":0.034883720930224626,"midi":97,"time":178.8953488372093,"velocity":0.16535433070866143},{"duration":0.06976744186047767,"midi":99,"time":178.8953488372093,"velocity":0.12598425196850394},{"duration":0.04651162790699459,"midi":77,"time":178.90697674418604,"velocity":0.12598425196850394},{"duration":0.04651162790699459,"midi":84,"time":178.90697674418604,"velocity":0.11023622047244094},{"duration":0.03488372093025305,"midi":51,"time":178.91860465116278,"velocity":0.3937007874015748},{"duration":0.04651162790699459,"midi":79,"time":178.91860465116278,"velocity":0.1889763779527559},{"duration":0.08139534883721922,"midi":80,"time":178.91860465116278,"velocity":0.11023622047244094},{"duration":0.03488372093025305,"midi":58,"time":178.93023255813952,"velocity":0.28346456692913385},{"duration":0.04651162790696617,"midi":37,"time":178.9418604651163,"velocity":0.33070866141732286},{"duration":0.023255813953483084,"midi":66,"time":178.9418604651163,"velocity":0.25984251968503935},{"duration":0.05813953488370771,"midi":56,"time":178.96511627906978,"velocity":0.31496062992125984},{"duration":0.023255813953483084,"midi":66,"time":178.97674418604652,"velocity":0.25984251968503935},{"duration":0.04651162790696617,"midi":73,"time":178.97674418604652,"velocity":0.4015748031496063},{"duration":0.023255813953483084,"midi":47,"time":178.98837209302326,"velocity":0.25984251968503935},{"duration":0.25581395348837077,"midi":99,"time":178.98837209302326,"velocity":0.3228346456692913},{"duration":0.12790697674418539,"midi":98,"time":179,"velocity":0.18110236220472442},{"duration":0.2674418604651123,"midi":101,"time":179,"velocity":0.2755905511811024},{"duration":0.09302325581396076,"midi":102,"time":179,"velocity":0.2755905511811024},{"duration":0.17441860465115155,"midi":103,"time":179,"velocity":0.14960629921259844},{"duration":0.023255813953483084,"midi":66,"time":179.01162790697674,"velocity":0.3779527559055118},{"duration":0.034883720930224626,"midi":70,"time":179.01162790697674,"velocity":0.31496062992125984},{"duration":0.034883720930224626,"midi":83,"time":179.01162790697674,"velocity":0.13385826771653545},{"duration":0.05813953488373613,"midi":91,"time":179.01162790697674,"velocity":0.07086614173228346},{"duration":0.04651162790696617,"midi":95,"time":179.01162790697674,"velocity":0.25196850393700787},{"duration":0.3139534883721069,"midi":96,"time":179.01162790697674,"velocity":0.3228346456692913},{"duration":0.08139534883721922,"midi":100,"time":179.01162790697674,"velocity":0.14960629921259844},{"duration":0.023255813953483084,"midi":54,"time":179.02325581395348,"velocity":0.36220472440944884},{"duration":0.06976744186047767,"midi":76,"time":179.02325581395348,"velocity":0.2047244094488189},{"duration":0.6860465116279215,"midi":93,"time":179.02325581395348,"velocity":0.5118110236220472},{"duration":0.023255813953483084,"midi":59,"time":179.03488372093022,"velocity":0.31496062992125984},{"duration":0.023255813953483084,"midi":64,"time":179.03488372093022,"velocity":0.4015748031496063},{"duration":0.06976744186047767,"midi":73,"time":179.03488372093022,"velocity":0.2992125984251969},{"duration":0.12790697674418539,"midi":89,"time":179.03488372093022,"velocity":0.25984251968503935},{"duration":0.011627906976741542,"midi":45,"time":179.04651162790697,"velocity":0.5511811023622047},{"duration":0.011627906976769964,"midi":44,"time":179.0581395348837,"velocity":0.5826771653543307},{"duration":0.023255813953511506,"midi":66,"time":179.0581395348837,"velocity":0.3779527559055118},{"duration":0.09302325581396076,"midi":70,"time":179.0581395348837,"velocity":0.33858267716535434},{"duration":0.023255813953483084,"midi":43,"time":179.06976744186048,"velocity":0.5669291338582677},{"duration":0.16279069767441,"midi":61,"time":179.06976744186048,"velocity":0.33858267716535434},{"duration":0.05813953488370771,"midi":84,"time":179.06976744186048,"velocity":0.13385826771653545},{"duration":0.04651162790696617,"midi":80,"time":179.08139534883722,"velocity":0.2125984251968504},{"duration":0.1046511627907023,"midi":67,"time":179.09302325581396,"velocity":0.44881889763779526},{"duration":0.04651162790696617,"midi":72,"time":179.09302325581396,"velocity":0.29133858267716534},{"duration":0.023255813953483084,"midi":54,"time":179.12790697674419,"velocity":0.2992125984251969},{"duration":0.12790697674418539,"midi":95,"time":179.12790697674419,"velocity":0.2125984251968504},{"duration":0.30232558139536536,"midi":73,"time":179.13953488372093,"velocity":0.3779527559055118},{"duration":0.04651162790696617,"midi":78,"time":179.13953488372093,"velocity":0.12598425196850394},{"duration":0.06976744186047767,"midi":80,"time":179.13953488372093,"velocity":0.2755905511811024},{"duration":0.034883720930224626,"midi":84,"time":179.15116279069767,"velocity":0.16535433070866143},{"duration":0.023255813953483084,"midi":36,"time":179.1627906976744,"velocity":0.28346456692913385},{"duration":0.08139534883721922,"midi":77,"time":179.17441860465115,"velocity":0.2440944881889764},{"duration":0.06976744186047767,"midi":102,"time":179.17441860465115,"velocity":0.07086614173228346},{"duration":0.1511627906976969,"midi":65,"time":179.1860465116279,"velocity":0.3937007874015748},{"duration":0.51162790697677,"midi":89,"time":179.1860465116279,"velocity":0.33070866141732286},{"duration":0.12790697674418539,"midi":68,"time":179.19767441860466,"velocity":0.3937007874015748},{"duration":0.06976744186044925,"midi":78,"time":179.2325581395349,"velocity":0.1889763779527559},{"duration":0.25581395348837077,"midi":82,"time":179.2325581395349,"velocity":0.2440944881889764},{"duration":0.04651162790696617,"midi":86,"time":179.2325581395349,"velocity":0.08661417322834646},{"duration":0.034883720930224626,"midi":103,"time":179.2325581395349,"velocity":0.10236220472440945},{"duration":0.2093023255814046,"midi":61,"time":179.25581395348837,"velocity":0.30708661417322836},{"duration":0.04651162790699459,"midi":81,"time":179.2906976744186,"velocity":0.15748031496062992},{"duration":0.09302325581396076,"midi":84,"time":179.30232558139534,"velocity":0.12598425196850394},{"duration":0.034883720930224626,"midi":67,"time":179.32558139534885,"velocity":0.41732283464566927},{"duration":0.04651162790696617,"midi":70,"time":179.3372093023256,"velocity":0.1732283464566929},{"duration":0.0813953488371908,"midi":80,"time":179.3372093023256,"velocity":0.18110236220472442},{"duration":0.034883720930224626,"midi":55,"time":179.34883720930233,"velocity":0.2204724409448819},{"duration":0.12790697674418539,"midi":97,"time":179.34883720930233,"velocity":0.14173228346456693},{"duration":0.15116279069766847,"midi":68,"time":179.36046511627907,"velocity":0.4645669291338583},{"duration":0.1046511627907023,"midi":102,"time":179.3953488372093,"velocity":0.18110236220472442},{"duration":0.023255813953483084,"midi":64,"time":179.40697674418604,"velocity":0.33858267716535434},{"duration":0.03488372093025305,"midi":78,"time":179.40697674418604,"velocity":0.2283464566929134},{"duration":0.03488372093025305,"midi":83,"time":179.40697674418604,"velocity":0.1732283464566929},{"duration":0.08139534883721922,"midi":87,"time":179.40697674418604,"velocity":0.16535433070866143},{"duration":0.04651162790699459,"midi":70,"time":179.41860465116278,"velocity":0.3700787401574803},{"duration":0.03488372093025305,"midi":81,"time":179.41860465116278,"velocity":0.18110236220472442},{"duration":0.05813953488373613,"midi":98,"time":179.41860465116278,"velocity":0.08661417322834646},{"duration":0.05813953488373613,"midi":74,"time":179.43023255813952,"velocity":0.33858267716535434},{"duration":0.06976744186047767,"midi":84,"time":179.43023255813952,"velocity":0.08661417322834646},{"duration":0.3139534883721069,"midi":92,"time":179.43023255813952,"velocity":0.2283464566929134},{"duration":0.30232558139536536,"midi":96,"time":179.43023255813952,"velocity":0.3228346456692913},{"duration":0.04651162790696617,"midi":37,"time":179.4418604651163,"velocity":0.3228346456692913},{"duration":0.034883720930224626,"midi":77,"time":179.4418604651163,"velocity":0.14960629921259844},{"duration":0.16279069767441,"midi":99,"time":179.4418604651163,"velocity":0.23622047244094488},{"duration":0.04651162790696617,"midi":100,"time":179.4418604651163,"velocity":0.2283464566929134},{"duration":0.10465116279067388,"midi":65,"time":179.45348837209303,"velocity":0.5275590551181102},{"duration":0.11627906976744384,"midi":85,"time":179.46511627906978,"velocity":0.2440944881889764},{"duration":0.04651162790696617,"midi":55,"time":179.47674418604652,"velocity":0.2204724409448819},{"duration":0.034883720930224626,"midi":78,"time":179.47674418604652,"velocity":0.14960629921259844},{"duration":0.2906976744185954,"midi":73,"time":179.48837209302326,"velocity":0.3858267716535433},{"duration":0.15116279069766847,"midi":103,"time":179.48837209302326,"velocity":0.29133858267716534},{"duration":0.06976744186047767,"midi":70,"time":179.5,"velocity":0.30708661417322836},{"duration":0.04651162790699459,"midi":84,"time":179.52325581395348,"velocity":0.14173228346456693},{"duration":0.05813953488373613,"midi":95,"time":179.52325581395348,"velocity":0.2125984251968504},{"duration":0.03488372093025305,"midi":87,"time":179.54651162790697,"velocity":0.2204724409448819},{"duration":0.11627906976744384,"midi":88,"time":179.54651162790697,"velocity":0.23622047244094488},{"duration":0.05813953488373613,"midi":90,"time":179.54651162790697,"velocity":0.2440944881889764},{"duration":0.05813953488373613,"midi":91,"time":179.54651162790697,"velocity":0.18110236220472442},{"duration":0.06976744186047767,"midi":94,"time":179.54651162790697,"velocity":0.2125984251968504},{"duration":0.03488372093025305,"midi":45,"time":179.5581395348837,"velocity":0.5826771653543307},{"duration":0.023255813953511506,"midi":64,"time":179.5581395348837,"velocity":0.4015748031496063},{"duration":0.05813953488373613,"midi":68,"time":179.5581395348837,"velocity":0.31496062992125984},{"duration":0.03488372093025305,"midi":98,"time":179.5581395348837,"velocity":0.12598425196850394},{"duration":0.11627906976744384,"midi":65,"time":179.58139534883722,"velocity":0.4566929133858268},{"duration":0.034883720930224626,"midi":70,"time":179.58139534883722,"velocity":0.23622047244094488},{"duration":0.011627906976741542,"midi":44,"time":179.59302325581396,"velocity":0.5748031496062992},{"duration":0.011627906976741542,"midi":43,"time":179.6046511627907,"velocity":0.5590551181102362},{"duration":0.023255813953483084,"midi":51,"time":179.6046511627907,"velocity":0.2677165354330709},{"duration":0.034883720930224626,"midi":87,"time":179.6046511627907,"velocity":0.12598425196850394},{"duration":0.011627906976741542,"midi":42,"time":179.61627906976744,"velocity":0.5275590551181102},{"duration":0.034883720930224626,"midi":68,"time":179.63953488372093,"velocity":0.3700787401574803},{"duration":0.09302325581396076,"midi":82,"time":179.65116279069767,"velocity":0.14960629921259844},{"duration":0.18604651162792152,"midi":84,"time":179.65116279069767,"velocity":0.4015748031496063},{"duration":0.023255813953483084,"midi":37,"time":179.6627906976744,"velocity":0.3779527559055118},{"duration":0.04651162790699459,"midi":87,"time":179.6627906976744,"velocity":0.1732283464566929},{"duration":0.023255813953511506,"midi":78,"time":179.6860465116279,"velocity":0.2283464566929134},{"duration":0.11627906976744384,"midi":103,"time":179.6860465116279,"velocity":0.1889763779527559},{"duration":0.40697674418603924,"midi":68,"time":179.69767441860466,"velocity":0.4251968503937008},{"duration":0.09302325581393234,"midi":48,"time":179.7093023255814,"velocity":0.2755905511811024},{"duration":0.1046511627907023,"midi":55,"time":179.7093023255814,"velocity":0.28346456692913385},{"duration":0.05813953488370771,"midi":101,"time":179.7093023255814,"velocity":0.14173228346456693},{"duration":0.0813953488371908,"midi":65,"time":179.72093023255815,"velocity":0.5196850393700787},{"duration":0.034883720930224626,"midi":61,"time":179.7325581395349,"velocity":0.2992125984251969},{"duration":0.08139534883721922,"midi":87,"time":179.7325581395349,"velocity":0.11811023622047244},{"duration":0.08139534883721922,"midi":36,"time":179.74418604651163,"velocity":0.31496062992125984},{"duration":0.16279069767441,"midi":72,"time":179.7674418604651,"velocity":0.33070866141732286},{"duration":0.08139534883721922,"midi":88,"time":179.7674418604651,"velocity":0.2992125984251969},{"duration":0.06976744186047767,"midi":76,"time":179.7906976744186,"velocity":0.3464566929133858},{"duration":0.04651162790699459,"midi":102,"time":179.7906976744186,"velocity":0.11023622047244094},{"duration":0.03488372093025305,"midi":64,"time":179.80232558139534,"velocity":0.5039370078740157},{"duration":0.1046511627907023,"midi":81,"time":179.80232558139534,"velocity":0.44881889763779526},{"duration":0.04651162790699459,"midi":83,"time":179.80232558139534,"velocity":0.4094488188976378},{"duration":0.03488372093025305,"midi":90,"time":179.80232558139534,"velocity":0.12598425196850394},{"duration":0.06976744186047767,"midi":92,"time":179.80232558139534,"velocity":0.2677165354330709},{"duration":0.3139534883721069,"midi":97,"time":179.80232558139534,"velocity":0.2125984251968504},{"duration":0.06976744186044925,"midi":89,"time":179.8139534883721,"velocity":0.14960629921259844},{"duration":0.27906976744185386,"midi":91,"time":179.8139534883721,"velocity":0.25196850393700787},{"duration":0.6046511627906739,"midi":99,"time":179.8139534883721,"velocity":0.2677165354330709},{"duration":0.023255813953483084,"midi":45,"time":179.82558139534885,"velocity":0.2677165354330709},{"duration":0.023255813953483084,"midi":53,"time":179.82558139534885,"velocity":0.2440944881889764},{"duration":0.023255813953483084,"midi":63,"time":179.8372093023256,"velocity":0.30708661417322836},{"duration":0.023255813953483084,"midi":65,"time":179.8372093023256,"velocity":0.33858267716535434},{"duration":0.034883720930224626,"midi":79,"time":179.8372093023256,"velocity":0.14960629921259844},{"duration":0.023255813953483084,"midi":85,"time":179.8372093023256,"velocity":0.3779527559055118},{"duration":0.27906976744185386,"midi":87,"time":179.8372093023256,"velocity":0.49606299212598426},{"duration":0.13953488372092693,"midi":94,"time":179.8372093023256,"velocity":0.23622047244094488},{"duration":0.15116279069766847,"midi":84,"time":179.84883720930233,"velocity":0.3779527559055118},{"duration":0.12790697674418539,"midi":46,"time":179.86046511627907,"velocity":0.2440944881889764},{"duration":0.023255813953483084,"midi":64,"time":179.86046511627907,"velocity":0.30708661417322836},{"duration":0.27906976744185386,"midi":75,"time":179.86046511627907,"velocity":0.49606299212598426},{"duration":0.05813953488370771,"midi":77,"time":179.86046511627907,"velocity":0.18110236220472442},{"duration":0.023255813953483084,"midi":88,"time":179.86046511627907,"velocity":0.2283464566929134},{"duration":0.034883720930224626,"midi":60,"time":179.87209302325581,"velocity":0.2755905511811024},{"duration":0.11627906976744384,"midi":82,"time":179.87209302325581,"velocity":0.4015748031496063},{"duration":0.023255813953483084,"midi":63,"time":179.88372093023256,"velocity":0.25196850393700787},{"duration":0.05813953488373613,"midi":85,"time":179.88372093023256,"velocity":0.25984251968503935},{"duration":0.06976744186047767,"midi":34,"time":179.8953488372093,"velocity":0.28346456692913385},{"duration":0.023255813953483084,"midi":53,"time":179.8953488372093,"velocity":0.23622047244094488},{"duration":0.1046511627907023,"midi":60,"time":179.91860465116278,"velocity":0.23622047244094488},{"duration":0.22093023255814614,"midi":101,"time":179.91860465116278,"velocity":0.2283464566929134},{"duration":0.05813953488373613,"midi":65,"time":179.93023255813952,"velocity":0.23622047244094488},{"duration":0.0813953488371908,"midi":72,"time":179.9418604651163,"velocity":0.3228346456692913},{"duration":0.12790697674418539,"midi":56,"time":179.95348837209303,"velocity":0.25984251968503935},{"duration":0.09302325581396076,"midi":81,"time":179.97674418604652,"velocity":0.3464566929133858},{"duration":0.023255813953483084,"midi":64,"time":179.98837209302326,"velocity":0.3464566929133858},{"duration":0.023255813953483084,"midi":85,"time":179.98837209302326,"velocity":0.2755905511811024},{"duration":0.05813953488370771,"midi":92,"time":179.98837209302326,"velocity":0.1732283464566929},{"duration":0.05813953488370771,"midi":82,"time":180,"velocity":0.2283464566929134},{"duration":0.034883720930224626,"midi":88,"time":180,"velocity":0.15748031496062992},{"duration":0.05813953488373613,"midi":63,"time":180.01162790697674,"velocity":0.33858267716535434},{"duration":0.05813953488370771,"midi":78,"time":180.06976744186048,"velocity":0.1889763779527559},{"duration":0.04651162790696617,"midi":82,"time":180.06976744186048,"velocity":0.2283464566929134},{"duration":0.034883720930224626,"midi":95,"time":180.06976744186048,"velocity":0.1732283464566929},{"duration":0.034883720930224626,"midi":60,"time":180.08139534883722,"velocity":0.33070866141732286},{"duration":0.04651162790696617,"midi":102,"time":180.08139534883722,"velocity":0.1732283464566929},{"duration":0.011627906976741542,"midi":46,"time":180.1046511627907,"velocity":0.5511811023622047},{"duration":0.16279069767441,"midi":56,"time":180.1046511627907,"velocity":0.2283464566929134},{"duration":0.034883720930224626,"midi":67,"time":180.1046511627907,"velocity":0.2047244094488189},{"duration":0.023255813953483084,"midi":88,"time":180.1046511627907,"velocity":0.33070866141732286},{"duration":0.011627906976741542,"midi":45,"time":180.11627906976744,"velocity":0.5826771653543307},{"duration":0.06976744186044925,"midi":73,"time":180.11627906976744,"velocity":0.2047244094488189},{"duration":0.034883720930224626,"midi":83,"time":180.11627906976744,"velocity":0.2047244094488189},{"duration":0.011627906976741542,"midi":43,"time":180.12790697674419,"velocity":0.5748031496062992},{"duration":0.33720930232559,"midi":60,"time":180.12790697674419,"velocity":0.33070866141732286},{"duration":0.034883720930224626,"midi":76,"time":180.12790697674419,"velocity":0.3700787401574803},{"duration":0.023255813953483084,"midi":42,"time":180.13953488372093,"velocity":0.5511811023622047},{"duration":0.09302325581396076,"midi":68,"time":180.13953488372093,"velocity":0.31496062992125984},{"duration":0.17441860465117998,"midi":81,"time":180.15116279069767,"velocity":0.1889763779527559},{"duration":0.11627906976744384,"midi":82,"time":180.15116279069767,"velocity":0.3228346456692913},{"duration":0.08139534883721922,"midi":51,"time":180.1627906976744,"velocity":0.23622047244094488},{"duration":0.18604651162792152,"midi":75,"time":180.1627906976744,"velocity":0.4881889763779528},{"duration":0.023255813953511506,"midi":38,"time":180.17441860465115,"velocity":0.3779527559055118},{"duration":0.17441860465117998,"midi":63,"time":180.17441860465115,"velocity":0.31496062992125984},{"duration":0.06976744186047767,"midi":84,"time":180.17441860465115,"velocity":0.11811023622047244},{"duration":0.03488372093025305,"midi":97,"time":180.17441860465115,"velocity":0.10236220472440945},{"duration":0.034883720930224626,"midi":91,"time":180.19767441860466,"velocity":0.10236220472440945},{"duration":0.023255813953483084,"midi":35,"time":180.2093023255814,"velocity":0.3858267716535433},{"duration":0.05813953488370771,"midi":101,"time":180.2093023255814,"velocity":0.14173228346456693},{"duration":0.034883720930224626,"midi":103,"time":180.22093023255815,"velocity":0.11811023622047244},{"duration":0.034883720930224626,"midi":80,"time":180.2325581395349,"velocity":0.12598425196850394},{"duration":0.034883720930224626,"midi":33,"time":180.24418604651163,"velocity":0.12598425196850394},{"duration":0.3604651162790731,"midi":68,"time":180.24418604651163,"velocity":0.4409448818897638},{"duration":0.24418604651162923,"midi":84,"time":180.2674418604651,"velocity":0.2283464566929134},{"duration":0.09302325581396076,"midi":91,"time":180.27906976744185,"velocity":0.12598425196850394},{"duration":0.08139534883721922,"midi":82,"time":180.2906976744186,"velocity":0.1889763779527559},{"duration":0.034883720930224626,"midi":88,"time":180.32558139534885,"velocity":0.2677165354330709},{"duration":0.023255813953483084,"midi":57,"time":180.3372093023256,"velocity":0.28346456692913385},{"duration":0.04651162790696617,"midi":86,"time":180.3372093023256,"velocity":0.2047244094488189},{"duration":0.05813953488370771,"midi":89,"time":180.3372093023256,"velocity":0.2047244094488189},{"duration":0.04651162790696617,"midi":74,"time":180.34883720930233,"velocity":0.2047244094488189},{"duration":0.05813953488370771,"midi":78,"time":180.34883720930233,"velocity":0.14173228346456693},{"duration":0.04651162790696617,"midi":87,"time":180.34883720930233,"velocity":0.29133858267716534},{"duration":0.09302325581396076,"midi":56,"time":180.36046511627907,"velocity":0.2992125984251969},{"duration":0.1046511627907023,"midi":81,"time":180.36046511627907,"velocity":0.25984251968503935},{"duration":0.06976744186047767,"midi":51,"time":180.37209302325581,"velocity":0.2677165354330709},{"duration":0.13953488372092693,"midi":44,"time":180.38372093023256,"velocity":0.30708661417322836},{"duration":0.24418604651162923,"midi":72,"time":180.38372093023256,"velocity":0.36220472440944884},{"duration":0.05813953488373613,"midi":82,"time":180.38372093023256,"velocity":0.2047244094488189},{"duration":0.15116279069766847,"midi":75,"time":180.3953488372093,"velocity":0.4566929133858268},{"duration":0.034883720930224626,"midi":88,"time":180.3953488372093,"velocity":0.2283464566929134},{"duration":0.023255813953511506,"midi":33,"time":180.41860465116278,"velocity":0.2755905511811024},{"duration":0.1511627906976969,"midi":63,"time":180.41860465116278,"velocity":0.4015748031496063},{"duration":0.05813953488373613,"midi":97,"time":180.43023255813952,"velocity":0.09448818897637795},{"duration":0.0813953488371908,"midi":32,"time":180.4418604651163,"velocity":0.28346456692913385},{"duration":0.09302325581396076,"midi":60,"time":180.5,"velocity":0.23622047244094488},{"duration":0.04651162790699459,"midi":56,"time":180.53488372093022,"velocity":0.16535433070866143},{"duration":0.08139534883721922,"midi":82,"time":180.5581395348837,"velocity":0.15748031496062992},{"duration":0.11627906976744384,"midi":99,"time":180.58139534883722,"velocity":0.2283464566929134},{"duration":0.023255813953483084,"midi":62,"time":180.59302325581396,"velocity":0.3937007874015748},{"duration":0.09302325581393234,"midi":95,"time":180.59302325581396,"velocity":0.23622047244094488},{"duration":0.0813953488371908,"midi":102,"time":180.59302325581396,"velocity":0.2125984251968504},{"duration":0.023255813953483084,"midi":78,"time":180.6046511627907,"velocity":0.2283464566929134},{"duration":0.12790697674418539,"midi":80,"time":180.6046511627907,"velocity":0.1968503937007874},{"duration":0.06976744186044925,"midi":88,"time":180.6046511627907,"velocity":0.25984251968503935},{"duration":0.034883720930224626,"midi":90,"time":180.6046511627907,"velocity":0.2992125984251969},{"duration":0.05813953488370771,"midi":92,"time":180.6046511627907,"velocity":0.2283464566929134},{"duration":0.06976744186044925,"midi":94,"time":180.6046511627907,"velocity":0.2125984251968504},{"duration":0.04651162790696617,"midi":96,"time":180.6046511627907,"velocity":0.16535433070866143},{"duration":0.0813953488371908,"midi":97,"time":180.6046511627907,"velocity":0.11811023622047244},{"duration":0.19767441860463464,"midi":98,"time":180.6046511627907,"velocity":0.2283464566929134},{"duration":0.05813953488370771,"midi":101,"time":180.6046511627907,"velocity":0.2204724409448819},{"duration":0.034883720930224626,"midi":103,"time":180.6046511627907,"velocity":0.2047244094488189},{"duration":0.034883720930224626,"midi":45,"time":180.61627906976744,"velocity":0.5984251968503937},{"duration":0.023255813953483084,"midi":67,"time":180.61627906976744,"velocity":0.30708661417322836},{"duration":0.034883720930224626,"midi":85,"time":180.61627906976744,"velocity":0.09448818897637795},{"duration":0.05813953488370771,"midi":89,"time":180.61627906976744,"velocity":0.2677165354330709},{"duration":0.08139534883721922,"midi":56,"time":180.62790697674419,"velocity":0.3543307086614173},{"duration":0.04651162790696617,"midi":68,"time":180.62790697674419,"velocity":0.3700787401574803},{"duration":0.25581395348837077,"midi":75,"time":180.62790697674419,"velocity":0.4409448818897638},{"duration":0.04651162790696617,"midi":81,"time":180.62790697674419,"velocity":0.18110236220472442},{"duration":0.034883720930224626,"midi":91,"time":180.62790697674419,"velocity":0.2047244094488189},{"duration":0.13953488372092693,"midi":63,"time":180.63953488372093,"velocity":0.2283464566929134},{"duration":0.011627906976741542,"midi":44,"time":180.65116279069767,"velocity":0.5826771653543307},{"duration":0.034883720930224626,"midi":51,"time":180.65116279069767,"velocity":0.29133858267716534},{"duration":0.1046511627907023,"midi":72,"time":180.65116279069767,"velocity":0.2992125984251969},{"duration":0.034883720930224626,"midi":82,"time":180.65116279069767,"velocity":0.1732283464566929},{"duration":0.05813953488373613,"midi":90,"time":180.65116279069767,"velocity":0.1732283464566929},{"duration":0.023255813953483084,"midi":42,"time":180.6627906976744,"velocity":0.5669291338582677},{"duration":0.03488372093025305,"midi":85,"time":180.67441860465115,"velocity":0.14960629921259844},{"duration":0.04651162790699459,"midi":60,"time":180.6860465116279,"velocity":0.16535433070866143},{"duration":0.13953488372095535,"midi":68,"time":180.6860465116279,"velocity":0.3700787401574803},{"duration":0.034883720930224626,"midi":56,"time":180.72093023255815,"velocity":0.4015748031496063},{"duration":0.06976744186044925,"midi":99,"time":180.72093023255815,"velocity":0.1732283464566929},{"duration":0.023255813953483084,"midi":36,"time":180.7325581395349,"velocity":0.3464566929133858},{"duration":0.04651162790696617,"midi":70,"time":180.7325581395349,"velocity":0.3937007874015748},{"duration":0.034883720930224626,"midi":81,"time":180.7325581395349,"velocity":0.25984251968503935},{"duration":0.034883720930224626,"midi":85,"time":180.7325581395349,"velocity":0.2440944881889764},{"duration":0.12790697674418539,"midi":86,"time":180.7325581395349,"velocity":0.25984251968503935},{"duration":0.04651162790696617,"midi":89,"time":180.7325581395349,"velocity":0.12598425196850394},{"duration":0.08139534883721922,"midi":77,"time":180.75581395348837,"velocity":0.2125984251968504},{"duration":0.023255813953483084,"midi":83,"time":180.75581395348837,"velocity":0.3228346456692913},{"duration":0.06976744186047767,"midi":96,"time":180.7674418604651,"velocity":0.25984251968503935},{"duration":0.023255813953483084,"midi":82,"time":180.77906976744185,"velocity":0.25196850393700787},{"duration":0.04651162790699459,"midi":57,"time":180.7906976744186,"velocity":0.28346456692913385},{"duration":0.1046511627907023,"midi":72,"time":180.7906976744186,"velocity":0.29133858267716534},{"duration":0.034883720930224626,"midi":99,"time":180.8139534883721,"velocity":0.07874015748031496},{"duration":0.06976744186044925,"midi":82,"time":180.82558139534885,"velocity":0.1732283464566929},{"duration":0.034883720930224626,"midi":56,"time":180.8372093023256,"velocity":0.30708661417322836},{"duration":0.06976744186044925,"midi":68,"time":180.8372093023256,"velocity":0.4015748031496063},{"duration":0.05813953488370771,"midi":90,"time":180.8372093023256,"velocity":0.11811023622047244},{"duration":0.06976744186044925,"midi":79,"time":180.86046511627907,"velocity":0.15748031496062992},{"duration":0.11627906976744384,"midi":84,"time":180.86046511627907,"velocity":0.3779527559055118},{"duration":0.034883720930224626,"midi":52,"time":180.87209302325581,"velocity":0.2440944881889764},{"duration":0.034883720930224626,"midi":66,"time":180.87209302325581,"velocity":0.28346456692913385},{"duration":0.034883720930224626,"midi":76,"time":180.87209302325581,"velocity":0.2047244094488189},{"duration":0.08139534883721922,"midi":81,"time":180.87209302325581,"velocity":0.1968503937007874},{"duration":0.023255813953483084,"midi":60,"time":180.88372093023256,"velocity":0.33070866141732286},{"duration":0.034883720930224626,"midi":73,"time":180.88372093023256,"velocity":0.48031496062992124},{"duration":0.08139534883721922,"midi":97,"time":180.88372093023256,"velocity":0.1732283464566929},{"duration":0.19767441860466306,"midi":102,"time":180.88372093023256,"velocity":0.2283464566929134},{"duration":0.13953488372092693,"midi":100,"time":180.8953488372093,"velocity":0.16535433070866143},{"duration":0.17441860465117998,"midi":99,"time":180.90697674418604,"velocity":0.29133858267716534},{"duration":0.023255813953511506,"midi":60,"time":180.91860465116278,"velocity":0.2677165354330709},{"duration":0.023255813953511506,"midi":69,"time":180.91860465116278,"velocity":0.23622047244094488},{"duration":0.05813953488373613,"midi":72,"time":180.91860465116278,"velocity":0.48031496062992124},{"duration":0.09302325581396076,"midi":65,"time":180.93023255813952,"velocity":0.3779527559055118},{"duration":0.023255813953511506,"midi":68,"time":180.93023255813952,"velocity":0.2283464566929134},{"duration":0.13953488372092693,"midi":70,"time":180.9418604651163,"velocity":0.4330708661417323},{"duration":0.04651162790696617,"midi":87,"time":180.9418604651163,"velocity":0.08661417322834646},{"duration":0.05813953488370771,"midi":58,"time":180.95348837209303,"velocity":0.3228346456692913},{"duration":0.05813953488370771,"midi":86,"time":180.95348837209303,"velocity":0.29133858267716534},{"duration":0.034883720930224626,"midi":83,"time":180.96511627906978,"velocity":0.14960629921259844},{"duration":0.05813953488370771,"midi":89,"time":180.96511627906978,"velocity":0.1889763779527559},{"duration":0.023255813953483084,"midi":39,"time":180.97674418604652,"velocity":0.25196850393700787},{"duration":0.034883720930224626,"midi":74,"time":181.01162790697674,"velocity":0.18110236220472442},{"duration":0.11627906976744384,"midi":75,"time":181.01162790697674,"velocity":0.2204724409448819},{"duration":0.04651162790699459,"midi":56,"time":181.02325581395348,"velocity":0.30708661417322836},{"duration":0.023255813953483084,"midi":64,"time":181.02325581395348,"velocity":0.23622047244094488},{"duration":0.04651162790699459,"midi":96,"time":181.02325581395348,"velocity":0.07874015748031496},{"duration":0.023255813953511506,"midi":63,"time":181.04651162790697,"velocity":0.2677165354330709},{"duration":0.11627906976744384,"midi":72,"time":181.04651162790697,"velocity":0.3937007874015748},{"duration":0.11627906976744384,"midi":98,"time":181.04651162790697,"velocity":0.23622047244094488},{"duration":0.023255813953511506,"midi":51,"time":181.0581395348837,"velocity":0.23622047244094488},{"duration":0.023255813953483084,"midi":33,"time":181.06976744186048,"velocity":0.25196850393700787},{"duration":0.023255813953483084,"midi":64,"time":181.06976744186048,"velocity":0.3700787401574803},{"duration":0.023255813953483084,"midi":68,"time":181.06976744186048,"velocity":0.23622047244094488},{"duration":0.09302325581393234,"midi":92,"time":181.08139534883722,"velocity":0.11023622047244094},{"duration":0.034883720930224626,"midi":44,"time":181.09302325581396,"velocity":0.1968503937007874},{"duration":0.023255813953483084,"midi":59,"time":181.09302325581396,"velocity":0.4409448818897638},{"duration":0.023255813953483084,"midi":63,"time":181.09302325581396,"velocity":0.31496062992125984},{"duration":0.04651162790696617,"midi":88,"time":181.09302325581396,"velocity":0.1889763779527559},{"duration":0.11627906976744384,"midi":103,"time":181.09302325581396,"velocity":0.29133858267716534},{"duration":0.05813953488370771,"midi":32,"time":181.1046511627907,"velocity":0.29133858267716534},{"duration":0.023255813953483084,"midi":65,"time":181.11627906976744,"velocity":0.31496062992125984},{"duration":0.08139534883721922,"midi":81,"time":181.11627906976744,"velocity":0.4409448818897638},{"duration":0.04651162790696617,"midi":102,"time":181.11627906976744,"velocity":0.2283464566929134},{"duration":0.023255813953483084,"midi":69,"time":181.12790697674419,"velocity":0.2440944881889764},{"duration":0.034883720930224626,"midi":78,"time":181.12790697674419,"velocity":0.2204724409448819},{"duration":0.034883720930224626,"midi":85,"time":181.12790697674419,"velocity":0.11811023622047244},{"duration":0.27906976744185386,"midi":87,"time":181.12790697674419,"velocity":0.29133858267716534},{"duration":0.4186046511627808,"midi":91,"time":181.12790697674419,"velocity":0.41732283464566927},{"duration":0.13953488372092693,"midi":94,"time":181.12790697674419,"velocity":0.1732283464566929},{"duration":0.18604651162792152,"midi":99,"time":181.12790697674419,"velocity":0.3937007874015748},{"duration":0.2093023255814046,"midi":75,"time":181.13953488372093,"velocity":0.4566929133858268},{"duration":0.24418604651162923,"midi":97,"time":181.13953488372093,"velocity":0.2440944881889764},{"duration":0.15116279069766847,"midi":101,"time":181.15116279069767,"velocity":0.09448818897637795},{"duration":0.011627906976741542,"midi":46,"time":181.1627906976744,"velocity":0.5590551181102362},{"duration":0.11627906976744384,"midi":82,"time":181.1627906976744,"velocity":0.29133858267716534},{"duration":0.011627906976741542,"midi":45,"time":181.17441860465115,"velocity":0.5905511811023622},{"duration":0.03488372093025305,"midi":68,"time":181.17441860465115,"velocity":0.15748031496062992},{"duration":0.011627906976769964,"midi":43,"time":181.1860465116279,"velocity":0.5826771653543307},{"duration":0.023255813953511506,"midi":63,"time":181.1860465116279,"velocity":0.23622047244094488},{"duration":0.05813953488373613,"midi":72,"time":181.1860465116279,"velocity":0.16535433070866143},{"duration":0.011627906976741542,"midi":42,"time":181.19767441860466,"velocity":0.5590551181102362},{"duration":0.06976744186044925,"midi":77,"time":181.19767441860466,"velocity":0.14960629921259844},{"duration":0.034883720930224626,"midi":80,"time":181.19767441860466,"velocity":0.3858267716535433},{"duration":0.011627906976741542,"midi":41,"time":181.2093023255814,"velocity":0.5118110236220472},{"duration":0.034883720930224626,"midi":63,"time":181.22093023255815,"velocity":0.31496062992125984},{"duration":0.04651162790696617,"midi":70,"time":181.22093023255815,"velocity":0.18110236220472442},{"duration":0.023255813953483084,"midi":56,"time":181.2325581395349,"velocity":0.28346456692913385},{"duration":0.034883720930224626,"midi":102,"time":181.24418604651163,"velocity":0.11811023622047244},{"duration":0.1046511627907023,"midi":65,"time":181.25581395348837,"velocity":0.3937007874015748},{"duration":0.04651162790696617,"midi":72,"time":181.25581395348837,"velocity":0.2755905511811024},{"duration":0.034883720930224626,"midi":100,"time":181.25581395348837,"velocity":0.2283464566929134},{"duration":0.023255813953483084,"midi":56,"time":181.2674418604651,"velocity":0.25984251968503935},{"duration":0.1046511627907023,"midi":81,"time":181.2674418604651,"velocity":0.3228346456692913},{"duration":0.10465116279067388,"midi":72,"time":181.3139534883721,"velocity":0.23622047244094488},{"duration":0.10465116279067388,"midi":82,"time":181.3139534883721,"velocity":0.18110236220472442},{"duration":0.04651162790696617,"midi":79,"time":181.3372093023256,"velocity":0.14173228346456693},{"duration":0.05813953488370771,"midi":56,"time":181.34883720930233,"velocity":0.1889763779527559},{"duration":0.034883720930224626,"midi":76,"time":181.34883720930233,"velocity":0.2125984251968504},{"duration":0.04651162790696617,"midi":66,"time":181.36046511627907,"velocity":0.2992125984251969},{"duration":0.09302325581396076,"midi":75,"time":181.36046511627907,"velocity":0.4094488188976378},{"duration":0.13953488372092693,"midi":80,"time":181.37209302325581,"velocity":0.2125984251968504},{"duration":0.08139534883721922,"midi":68,"time":181.3953488372093,"velocity":0.2283464566929134},{"duration":0.04651162790699459,"midi":88,"time":181.3953488372093,"velocity":0.08661417322834646},{"duration":0.09302325581396076,"midi":48,"time":181.40697674418604,"velocity":0.25196850393700787},{"duration":0.13953488372092693,"midi":65,"time":181.40697674418604,"velocity":0.4330708661417323},{"duration":0.05813953488373613,"midi":81,"time":181.40697674418604,"velocity":0.16535433070866143},{"duration":0.03488372093025305,"midi":86,"time":181.40697674418604,"velocity":0.1889763779527559},{"duration":0.023255813953511506,"midi":41,"time":181.41860465116278,"velocity":0.28346456692913385},{"duration":0.3953488372093261,"midi":99,"time":181.41860465116278,"velocity":0.1889763779527559},{"duration":0.023255813953483084,"midi":40,"time":181.4418604651163,"velocity":0.33858267716535434},{"duration":0.04651162790696617,"midi":79,"time":181.45348837209303,"velocity":0.08661417322834646},{"duration":0.22093023255811772,"midi":87,"time":181.45348837209303,"velocity":0.2047244094488189},{"duration":0.11627906976744384,"midi":53,"time":181.46511627906978,"velocity":0.23622047244094488},{"duration":0.04651162790696617,"midi":102,"time":181.46511627906978,"velocity":0.11811023622047244},{"duration":0.023255813953483084,"midi":41,"time":181.47674418604652,"velocity":0.2440944881889764},{"duration":0.034883720930224626,"midi":31,"time":181.48837209302326,"velocity":0.1968503937007874},{"duration":0.40697674418603924,"midi":97,"time":181.48837209302326,"velocity":0.2992125984251969},{"duration":0.034883720930224626,"midi":68,"time":181.5,"velocity":0.25196850393700787},{"duration":0.4418604651162923,"midi":75,"time":181.51162790697674,"velocity":0.3700787401574803},{"duration":0.22093023255814614,"midi":94,"time":181.51162790697674,"velocity":0.25196850393700787},{"duration":0.023255813953483084,"midi":72,"time":181.52325581395348,"velocity":0.25984251968503935},{"duration":0.09302325581396076,"midi":100,"time":181.52325581395348,"velocity":0.18110236220472442},{"duration":0.05813953488373613,"midi":69,"time":181.53488372093022,"velocity":0.28346456692913385},{"duration":0.04651162790699459,"midi":78,"time":181.53488372093022,"velocity":0.14960629921259844},{"duration":0.05813953488373613,"midi":83,"time":181.53488372093022,"velocity":0.15748031496062992},{"duration":0.04651162790699459,"midi":86,"time":181.53488372093022,"velocity":0.14960629921259844},{"duration":0.03488372093025305,"midi":98,"time":181.53488372093022,"velocity":0.2125984251968504},{"duration":0.05813953488373613,"midi":101,"time":181.53488372093022,"velocity":0.12598425196850394},{"duration":0.5930232558139608,"midi":102,"time":181.53488372093022,"velocity":0.41732283464566927},{"duration":0.03488372093025305,"midi":71,"time":181.54651162790697,"velocity":0.3228346456692913},{"duration":0.03488372093025305,"midi":73,"time":181.54651162790697,"velocity":0.2992125984251969},{"duration":0.08139534883721922,"midi":91,"time":181.5581395348837,"velocity":0.48031496062992124},{"duration":0.023255813953483084,"midi":40,"time":181.56976744186048,"velocity":0.28346456692913385},{"duration":0.0813953488371908,"midi":48,"time":181.56976744186048,"velocity":0.2283464566929134},{"duration":0.09302325581393234,"midi":65,"time":181.56976744186048,"velocity":0.4094488188976378},{"duration":0.05813953488370771,"midi":80,"time":181.56976744186048,"velocity":0.2125984251968504},{"duration":0.06976744186044925,"midi":72,"time":181.58139534883722,"velocity":0.4645669291338583},{"duration":0.13953488372092693,"midi":96,"time":181.58139534883722,"velocity":0.4094488188976378},{"duration":0.034883720930224626,"midi":57,"time":181.59302325581396,"velocity":0.18110236220472442},{"duration":0.05813953488370771,"midi":82,"time":181.59302325581396,"velocity":0.14960629921259844},{"duration":0.034883720930224626,"midi":63,"time":181.6046511627907,"velocity":0.36220472440944884},{"duration":0.11627906976744384,"midi":101,"time":181.6046511627907,"velocity":0.2204724409448819},{"duration":0.30232558139533694,"midi":68,"time":181.61627906976744,"velocity":0.3700787401574803},{"duration":0.06976744186047767,"midi":79,"time":181.62790697674419,"velocity":0.2204724409448819},{"duration":0.1046511627907023,"midi":100,"time":181.62790697674419,"velocity":0.2047244094488189},{"duration":0.034883720930224626,"midi":30,"time":181.63953488372093,"velocity":0.16535433070866143},{"duration":0.1046511627907023,"midi":90,"time":181.63953488372093,"velocity":0.4015748031496063},{"duration":0.1046511627907023,"midi":93,"time":181.63953488372093,"velocity":0.11811023622047244},{"duration":0.17441860465117998,"midi":92,"time":181.65116279069767,"velocity":0.15748031496062992},{"duration":0.034883720930224626,"midi":98,"time":181.65116279069767,"velocity":0.1732283464566929},{"duration":0.11627906976744384,"midi":103,"time":181.65116279069767,"velocity":0.25196850393700787},{"duration":0.03488372093025305,"midi":60,"time":181.6627906976744,"velocity":0.3937007874015748},{"duration":0.04651162790699459,"midi":82,"time":181.6627906976744,"velocity":0.25196850393700787},{"duration":0.023255813953483084,"midi":86,"time":181.6627906976744,"velocity":0.28346456692913385},{"duration":0.08139534883721922,"midi":88,"time":181.6627906976744,"velocity":0.25196850393700787},{"duration":0.06976744186047767,"midi":89,"time":181.67441860465115,"velocity":0.1968503937007874},{"duration":0.09302325581396076,"midi":95,"time":181.67441860465115,"velocity":0.14960629921259844},{"duration":0.023255813953511506,"midi":45,"time":181.6860465116279,"velocity":0.5984251968503937},{"duration":0.11627906976744384,"midi":91,"time":181.69767441860466,"velocity":0.2283464566929134},{"duration":0.011627906976741542,"midi":44,"time":181.7093023255814,"velocity":0.5905511811023622},{"duration":0.023255813953483084,"midi":51,"time":181.7093023255814,"velocity":0.29133858267716534},{"duration":0.04651162790696617,"midi":64,"time":181.7093023255814,"velocity":0.4094488188976378},{"duration":0.034883720930224626,"midi":83,"time":181.7093023255814,"velocity":0.2677165354330709},{"duration":0.04651162790696617,"midi":85,"time":181.7093023255814,"velocity":0.1732283464566929},{"duration":0.011627906976741542,"midi":43,"time":181.72093023255815,"velocity":0.5590551181102362},{"duration":0.011627906976741542,"midi":42,"time":181.7325581395349,"velocity":0.5196850393700787},{"duration":0.023255813953483084,"midi":52,"time":181.7325581395349,"velocity":0.25196850393700787},{"duration":0.12790697674418539,"midi":82,"time":181.74418604651163,"velocity":0.25196850393700787},{"duration":0.04651162790699459,"midi":65,"time":181.77906976744185,"velocity":0.36220472440944884},{"duration":0.023255813953483084,"midi":103,"time":181.77906976744185,"velocity":0.29133858267716534},{"duration":0.03488372093025305,"midi":36,"time":181.7906976744186,"velocity":0.33070866141732286},{"duration":0.03488372093025305,"midi":60,"time":181.7906976744186,"velocity":0.29133858267716534},{"duration":0.06976744186047767,"midi":79,"time":181.7906976744186,"velocity":0.08661417322834646},{"duration":0.06976744186047767,"midi":81,"time":181.7906976744186,"velocity":0.1732283464566929},{"duration":0.05813953488373613,"midi":90,"time":181.7906976744186,"velocity":0.2283464566929134},{"duration":0.04651162790699459,"midi":85,"time":181.80232558139534,"velocity":0.14173228346456693},{"duration":0.03488372093025305,"midi":101,"time":181.80232558139534,"velocity":0.09448818897637795},{"duration":0.04651162790696617,"midi":48,"time":181.82558139534885,"velocity":0.29133858267716534},{"duration":0.06976744186044925,"midi":78,"time":181.82558139534885,"velocity":0.1889763779527559},{"duration":0.13953488372092693,"midi":91,"time":181.82558139534885,"velocity":0.2283464566929134},{"duration":0.034883720930224626,"midi":55,"time":181.8372093023256,"velocity":0.28346456692913385},{"duration":0.034883720930224626,"midi":60,"time":181.8372093023256,"velocity":0.3543307086614173},{"duration":0.0813953488371908,"midi":103,"time":181.8372093023256,"velocity":0.25196850393700787},{"duration":0.023255813953483084,"midi":65,"time":181.84883720930233,"velocity":0.25984251968503935},{"duration":0.06976744186044925,"midi":36,"time":181.86046511627907,"velocity":0.3228346456692913},{"duration":0.023255813953483084,"midi":63,"time":181.86046511627907,"velocity":0.4015748031496063},{"duration":0.023255813953483084,"midi":56,"time":181.87209302325581,"velocity":0.30708661417322836},{"duration":0.023255813953483084,"midi":65,"time":181.88372093023256,"velocity":0.4015748031496063},{"duration":0.16279069767441,"midi":96,"time":181.88372093023256,"velocity":0.25196850393700787},{"duration":0.034883720930224626,"midi":57,"time":181.8953488372093,"velocity":0.30708661417322836},{"duration":0.034883720930224626,"midi":84,"time":181.8953488372093,"velocity":0.2047244094488189},{"duration":0.32558139534884845,"midi":99,"time":181.8953488372093,"velocity":0.3543307086614173},{"duration":0.04651162790699459,"midi":61,"time":181.90697674418604,"velocity":0.3543307086614173},{"duration":0.04651162790699459,"midi":93,"time":181.90697674418604,"velocity":0.2283464566929134},{"duration":0.04651162790699459,"midi":98,"time":181.90697674418604,"velocity":0.13385826771653545},{"duration":0.03488372093025305,"midi":73,"time":181.91860465116278,"velocity":0.3937007874015748},{"duration":0.17441860465117998,"midi":77,"time":181.91860465116278,"velocity":0.3228346456692913},{"duration":0.12790697674418539,"midi":82,"time":181.91860465116278,"velocity":0.36220472440944884},{"duration":0.04651162790699459,"midi":88,"time":181.91860465116278,"velocity":0.2125984251968504},{"duration":0.2790697674418823,"midi":89,"time":181.91860465116278,"velocity":0.3858267716535433},{"duration":0.38372093023255616,"midi":92,"time":181.91860465116278,"velocity":0.36220472440944884},{"duration":0.13953488372092693,"midi":95,"time":181.91860465116278,"velocity":0.28346456692913385},{"duration":0.2674418604651123,"midi":97,"time":181.91860465116278,"velocity":0.1968503937007874},{"duration":0.023255813953511506,"midi":66,"time":181.93023255813952,"velocity":0.25196850393700787},{"duration":0.26744186046514073,"midi":80,"time":181.93023255813952,"velocity":0.3858267716535433},{"duration":0.023255813953483084,"midi":53,"time":181.9418604651163,"velocity":0.2677165354330709},{"duration":0.10465116279067388,"midi":84,"time":181.9418604651163,"velocity":0.28346456692913385},{"duration":0.09302325581393234,"midi":103,"time":181.9418604651163,"velocity":0.30708661417322836},{"duration":0.05813953488370771,"midi":58,"time":181.95348837209303,"velocity":0.2755905511811024},{"duration":0.034883720930224626,"midi":65,"time":181.95348837209303,"velocity":0.30708661417322836},{"duration":0.034883720930224626,"midi":74,"time":181.95348837209303,"velocity":0.48031496062992124},{"duration":0.11627906976744384,"midi":100,"time":181.95348837209303,"velocity":0.23622047244094488},{"duration":0.12790697674418539,"midi":46,"time":181.96511627906978,"velocity":0.2755905511811024},{"duration":0.034883720930224626,"midi":61,"time":181.96511627906978,"velocity":0.28346456692913385},{"duration":0.2325581395348877,"midi":85,"time":181.96511627906978,"velocity":0.3779527559055118},{"duration":0.034883720930224626,"midi":87,"time":181.96511627906978,"velocity":0.14173228346456693},{"duration":0.20930232558137618,"midi":93,"time":181.96511627906978,"velocity":0.25984251968503935},{"duration":0.04651162790696617,"midi":76,"time":181.97674418604652,"velocity":0.2125984251968504},{"duration":0.034883720930224626,"midi":66,"time":181.98837209302326,"velocity":0.2440944881889764},{"duration":0.11627906976744384,"midi":73,"time":181.98837209302326,"velocity":0.49606299212598426},{"duration":0.05813953488370771,"midi":75,"time":182,"velocity":0.2047244094488189},{"duration":0.034883720930224626,"midi":83,"time":182,"velocity":0.3228346456692913},{"duration":0.034883720930224626,"midi":86,"time":182,"velocity":0.10236220472440945},{"duration":0.08139534883721922,"midi":34,"time":182.01162790697674,"velocity":0.25984251968503935},{"duration":0.04651162790699459,"midi":81,"time":182.02325581395348,"velocity":0.2440944881889764},{"duration":0.04651162790699459,"midi":63,"time":182.04651162790697,"velocity":0.2283464566929134},{"duration":0.05813953488373613,"midi":82,"time":182.0581395348837,"velocity":0.28346456692913385},{"duration":0.05813953488373613,"midi":96,"time":182.0581395348837,"velocity":0.18110236220472442},{"duration":0.11627906976741542,"midi":53,"time":182.06976744186048,"velocity":0.25196850393700787},{"duration":0.023255813953483084,"midi":84,"time":182.08139534883722,"velocity":0.25196850393700787},{"duration":0.10465116279067388,"midi":95,"time":182.08139534883722,"velocity":0.29133858267716534},{"duration":0.0813953488371908,"midi":65,"time":182.09302325581396,"velocity":0.2677165354330709},{"duration":0.06976744186044925,"midi":68,"time":182.1046511627907,"velocity":0.1889763779527559},{"duration":0.034883720930224626,"midi":72,"time":182.1046511627907,"velocity":0.18110236220472442},{"duration":0.06976744186044925,"midi":77,"time":182.1046511627907,"velocity":0.2992125984251969},{"duration":0.034883720930224626,"midi":83,"time":182.11627906976744,"velocity":0.23622047244094488},{"duration":0.05813953488370771,"midi":84,"time":182.11627906976744,"velocity":0.36220472440944884},{"duration":0.11627906976744384,"midi":94,"time":182.11627906976744,"velocity":0.28346456692913385},{"duration":0.04651162790696617,"midi":58,"time":182.12790697674419,"velocity":0.1968503937007874},{"duration":0.08139534883721922,"midi":82,"time":182.12790697674419,"velocity":0.31496062992125984},{"duration":0.08139534883721922,"midi":103,"time":182.12790697674419,"velocity":0.36220472440944884},{"duration":0.034883720930224626,"midi":61,"time":182.13953488372093,"velocity":0.13385826771653545},{"duration":0.05813953488373613,"midi":70,"time":182.13953488372093,"velocity":0.2047244094488189},{"duration":0.04651162790696617,"midi":73,"time":182.13953488372093,"velocity":0.33070866141732286},{"duration":0.13953488372092693,"midi":102,"time":182.1627906976744,"velocity":0.3464566929133858},{"duration":0.04651162790699459,"midi":61,"time":182.1860465116279,"velocity":0.3700787401574803},{"duration":0.023255813953511506,"midi":77,"time":182.1860465116279,"velocity":0.29133858267716534},{"duration":0.06976744186047767,"midi":93,"time":182.1860465116279,"velocity":0.2125984251968504},{"duration":0.03488372093025305,"midi":98,"time":182.1860465116279,"velocity":0.11811023622047244},{"duration":0.2325581395348877,"midi":100,"time":182.1860465116279,"velocity":0.3464566929133858},{"duration":0.034883720930224626,"midi":68,"time":182.19767441860466,"velocity":0.08661417322834646},{"duration":0.10465116279067388,"midi":78,"time":182.19767441860466,"velocity":0.2440944881889764},{"duration":0.09302325581393234,"midi":79,"time":182.19767441860466,"velocity":0.2440944881889764},{"duration":0.19767441860463464,"midi":81,"time":182.19767441860466,"velocity":0.29133858267716534},{"duration":0.12790697674418539,"midi":88,"time":182.19767441860466,"velocity":0.2755905511811024},{"duration":0.13953488372092693,"midi":91,"time":182.19767441860466,"velocity":0.33858267716535434},{"duration":0.11627906976744384,"midi":84,"time":182.2093023255814,"velocity":0.4015748031496063},{"duration":0.023255813953483084,"midi":45,"time":182.22093023255815,"velocity":0.6141732283464567},{"duration":0.04651162790696617,"midi":70,"time":182.22093023255815,"velocity":0.2204724409448819},{"duration":0.023255813953483084,"midi":72,"time":182.22093023255815,"velocity":0.2283464566929134},{"duration":0.16279069767441,"midi":85,"time":182.22093023255815,"velocity":0.30708661417322836},{"duration":0.023255813953483084,"midi":59,"time":182.2325581395349,"velocity":0.23622047244094488},{"duration":0.034883720930224626,"midi":73,"time":182.2325581395349,"velocity":0.2677165354330709},{"duration":0.4534883720930054,"midi":89,"time":182.2325581395349,"velocity":0.33070866141732286},{"duration":0.05813953488370771,"midi":98,"time":182.2325581395349,"velocity":0.10236220472440945},{"duration":0.011627906976741542,"midi":43,"time":182.24418604651163,"velocity":0.5748031496062992},{"duration":0.11627906976744384,"midi":66,"time":182.24418604651163,"velocity":0.29133858267716534},{"duration":0.09302325581396076,"midi":82,"time":182.24418604651163,"velocity":0.3779527559055118},{"duration":0.011627906976741542,"midi":42,"time":182.25581395348837,"velocity":0.5511811023622047},{"duration":0.06976744186047767,"midi":61,"time":182.25581395348837,"velocity":0.31496062992125984},{"duration":0.05813953488373613,"midi":72,"time":182.2674418604651,"velocity":0.4094488188976378},{"duration":0.04651162790699459,"midi":53,"time":182.2906976744186,"velocity":0.18110236220472442},{"duration":0.4651162790697754,"midi":77,"time":182.2906976744186,"velocity":0.4015748031496063},{"duration":0.04651162790699459,"midi":80,"time":182.2906976744186,"velocity":0.2047244094488189},{"duration":0.17441860465115155,"midi":86,"time":182.3139534883721,"velocity":0.31496062992125984},{"duration":0.04651162790696617,"midi":87,"time":182.3139534883721,"velocity":0.2283464566929134},{"duration":0.04651162790696617,"midi":90,"time":182.3139534883721,"velocity":0.2677165354330709},{"duration":0.034883720930224626,"midi":99,"time":182.3139534883721,"velocity":0.3228346456692913},{"duration":0.034883720930224626,"midi":36,"time":182.32558139534885,"velocity":0.31496062992125984},{"duration":0.05813953488370771,"midi":83,"time":182.32558139534885,"velocity":0.3858267716535433},{"duration":0.04651162790696617,"midi":61,"time":182.3372093023256,"velocity":0.2283464566929134},{"duration":0.034883720930224626,"midi":88,"time":182.3372093023256,"velocity":0.2204724409448819},{"duration":0.22093023255814614,"midi":73,"time":182.34883720930233,"velocity":0.33070866141732286},{"duration":0.023255813953483084,"midi":65,"time":182.36046511627907,"velocity":0.25984251968503935},{"duration":0.5348837209302246,"midi":70,"time":182.36046511627907,"velocity":0.4330708661417323},{"duration":0.16279069767441,"midi":96,"time":182.36046511627907,"velocity":0.15748031496062992},{"duration":0.023255813953483084,"midi":58,"time":182.37209302325581,"velocity":0.31496062992125984},{"duration":0.034883720930224626,"midi":92,"time":182.37209302325581,"velocity":0.11023622047244094},{"duration":0.08139534883721922,"midi":84,"time":182.38372093023256,"velocity":0.25984251968503935},{"duration":0.06976744186047767,"midi":58,"time":182.40697674418604,"velocity":0.3543307086614173},{"duration":0.08139534883721922,"midi":66,"time":182.40697674418604,"velocity":0.28346456692913385},{"duration":0.04651162790699459,"midi":81,"time":182.41860465116278,"velocity":0.1889763779527559},{"duration":0.06976744186047767,"midi":99,"time":182.41860465116278,"velocity":0.14960629921259844},{"duration":0.034883720930224626,"midi":83,"time":182.4418604651163,"velocity":0.25196850393700787},{"duration":0.0813953488371908,"midi":92,"time":182.4418604651163,"velocity":0.12598425196850394},{"duration":0.09302325581393234,"midi":102,"time":182.4418604651163,"velocity":0.1889763779527559},{"duration":0.05813953488370771,"midi":79,"time":182.45348837209303,"velocity":0.2283464566929134},{"duration":0.25581395348837077,"midi":80,"time":182.46511627906978,"velocity":0.2204724409448819},{"duration":0.034883720930224626,"midi":88,"time":182.46511627906978,"velocity":0.1968503937007874},{"duration":0.05813953488370771,"midi":93,"time":182.46511627906978,"velocity":0.10236220472440945},{"duration":0.023255813953483084,"midi":45,"time":182.47674418604652,"velocity":0.33070866141732286},{"duration":0.034883720930224626,"midi":61,"time":182.47674418604652,"velocity":0.30708661417322836},{"duration":0.04651162790696617,"midi":84,"time":182.47674418604652,"velocity":0.2440944881889764},{"duration":0.05813953488370771,"midi":103,"time":182.47674418604652,"velocity":0.15748031496062992},{"duration":0.05813953488370771,"midi":58,"time":182.48837209302326,"velocity":0.3937007874015748},{"duration":0.023255813953483084,"midi":65,"time":182.48837209302326,"velocity":0.28346456692913385},{"duration":0.09302325581396076,"midi":46,"time":182.5,"velocity":0.2677165354330709},{"duration":0.08139534883721922,"midi":86,"time":182.5,"velocity":0.25984251968503935},{"duration":0.023255813953483084,"midi":36,"time":182.51162790697674,"velocity":0.2755905511811024},{"duration":0.04651162790696617,"midi":99,"time":182.51162790697674,"velocity":0.2125984251968504},{"duration":0.05813953488373613,"midi":34,"time":182.53488372093022,"velocity":0.29133858267716534},{"duration":0.06976744186047767,"midi":84,"time":182.53488372093022,"velocity":0.1732283464566929},{"duration":0.17441860465117998,"midi":65,"time":182.54651162790697,"velocity":0.3858267716535433},{"duration":0.03488372093025305,"midi":58,"time":182.5581395348837,"velocity":0.2755905511811024},{"duration":0.03488372093025305,"midi":75,"time":182.5581395348837,"velocity":0.07874015748031496},{"duration":0.04651162790696617,"midi":88,"time":182.58139534883722,"velocity":0.1889763779527559},{"duration":0.04651162790696617,"midi":91,"time":182.58139534883722,"velocity":0.1732283464566929},{"duration":0.034883720930224626,"midi":45,"time":182.59302325581396,"velocity":0.31496062992125984},{"duration":0.04651162790696617,"midi":79,"time":182.59302325581396,"velocity":0.2047244094488189},{"duration":0.17441860465115155,"midi":86,"time":182.59302325581396,"velocity":0.2283464566929134},{"duration":0.04651162790696617,"midi":68,"time":182.6046511627907,"velocity":0.2047244094488189},{"duration":0.034883720930224626,"midi":83,"time":182.6046511627907,"velocity":0.11023622047244094},{"duration":0.08139534883721922,"midi":46,"time":182.62790697674419,"velocity":0.25984251968503935},{"duration":0.034883720930224626,"midi":85,"time":182.62790697674419,"velocity":0.1968503937007874},{"duration":0.034883720930224626,"midi":102,"time":182.62790697674419,"velocity":0.14960629921259844},{"duration":0.08139534883721922,"midi":53,"time":182.63953488372093,"velocity":0.2440944881889764},{"duration":0.06976744186047767,"midi":61,"time":182.63953488372093,"velocity":0.31496062992125984},{"duration":0.04651162790699459,"midi":34,"time":182.67441860465115,"velocity":0.29133858267716534},{"duration":0.09302325581396076,"midi":84,"time":182.67441860465115,"velocity":0.2204724409448819},{"duration":0.5,"midi":102,"time":182.6860465116279,"velocity":0.3228346456692913},{"duration":0.1046511627907023,"midi":99,"time":182.7093023255814,"velocity":0.1732283464566929},{"duration":0.034883720930224626,"midi":61,"time":182.72093023255815,"velocity":0.4330708661417323},{"duration":0.023255813953483084,"midi":67,"time":182.72093023255815,"velocity":0.3779527559055118},{"duration":0.04651162790696617,"midi":78,"time":182.72093023255815,"velocity":0.2283464566929134},{"duration":0.17441860465115155,"midi":88,"time":182.72093023255815,"velocity":0.31496062992125984},{"duration":0.09302325581396076,"midi":90,"time":182.72093023255815,"velocity":0.30708661417322836},{"duration":0.09302325581396076,"midi":94,"time":182.72093023255815,"velocity":0.2283464566929134},{"duration":0.04651162790696617,"midi":97,"time":182.72093023255815,"velocity":0.1968503937007874},{"duration":0.04651162790696617,"midi":75,"time":182.7325581395349,"velocity":0.2125984251968504},{"duration":0.034883720930224626,"midi":80,"time":182.7325581395349,"velocity":0.2677165354330709},{"duration":0.04651162790696617,"midi":83,"time":182.7325581395349,"velocity":0.2125984251968504},{"duration":0.19767441860463464,"midi":98,"time":182.7325581395349,"velocity":0.2440944881889764},{"duration":0.06976744186044925,"midi":103,"time":182.7325581395349,"velocity":0.11023622047244094},{"duration":0.06976744186047767,"midi":68,"time":182.74418604651163,"velocity":0.3228346456692913},{"duration":0.15116279069766847,"midi":85,"time":182.74418604651163,"velocity":0.2125984251968504},{"duration":0.08139534883721922,"midi":91,"time":182.74418604651163,"velocity":0.1889763779527559},{"duration":0.011627906976741542,"midi":45,"time":182.75581395348837,"velocity":0.5905511811023622},{"duration":0.13953488372092693,"midi":65,"time":182.75581395348837,"velocity":0.3464566929133858},{"duration":0.30232558139533694,"midi":73,"time":182.75581395348837,"velocity":0.5039370078740157},{"duration":0.034883720930224626,"midi":81,"time":182.75581395348837,"velocity":0.16535433070866143},{"duration":0.011627906976741542,"midi":44,"time":182.7674418604651,"velocity":0.5984251968503937},{"duration":0.05813953488373613,"midi":79,"time":182.7674418604651,"velocity":0.11023622047244094},{"duration":0.023255813953483084,"midi":42,"time":182.77906976744185,"velocity":0.5669291338582677},{"duration":0.023255813953483084,"midi":55,"time":182.77906976744185,"velocity":0.31496062992125984},{"duration":0.023255813953483084,"midi":61,"time":182.77906976744185,"velocity":0.23622047244094488},{"duration":0.05813953488373613,"midi":75,"time":182.7906976744186,"velocity":0.3858267716535433},{"duration":0.05813953488373613,"midi":84,"time":182.7906976744186,"velocity":0.1889763779527559},{"duration":0.05813953488373613,"midi":86,"time":182.7906976744186,"velocity":0.11023622047244094},{"duration":0.023255813953511506,"midi":56,"time":182.80232558139534,"velocity":0.33070866141732286},{"duration":0.05813953488373613,"midi":89,"time":182.80232558139534,"velocity":0.2677165354330709},{"duration":0.034883720930224626,"midi":37,"time":182.82558139534885,"velocity":0.4094488188976378},{"duration":0.05813953488370771,"midi":55,"time":182.82558139534885,"velocity":0.3543307086614173},{"duration":0.06976744186044925,"midi":81,"time":182.8372093023256,"velocity":0.29133858267716534},{"duration":0.05813953488370771,"midi":90,"time":182.8372093023256,"velocity":0.14960629921259844},{"duration":0.06976744186044925,"midi":99,"time":182.8372093023256,"velocity":0.1968503937007874},{"duration":0.023255813953483084,"midi":76,"time":182.86046511627907,"velocity":0.2677165354330709},{"duration":0.05813953488370771,"midi":83,"time":182.86046511627907,"velocity":0.29133858267716534},{"duration":0.13953488372092693,"midi":86,"time":182.86046511627907,"velocity":0.33070866141732286},{"duration":0.17441860465115155,"midi":48,"time":182.88372093023256,"velocity":0.31496062992125984},{"duration":0.023255813953483084,"midi":78,"time":182.88372093023256,"velocity":0.25196850393700787},{"duration":0.034883720930224626,"midi":64,"time":182.8953488372093,"velocity":0.2440944881889764},{"duration":0.04651162790699459,"midi":89,"time":182.8953488372093,"velocity":0.10236220472440945},{"duration":0.023255813953483084,"midi":61,"time":182.90697674418604,"velocity":0.2992125984251969},{"duration":0.16279069767443843,"midi":70,"time":182.90697674418604,"velocity":0.44881889763779526},{"duration":0.06976744186047767,"midi":75,"time":182.90697674418604,"velocity":0.15748031496062992},{"duration":0.12790697674418539,"midi":77,"time":182.90697674418604,"velocity":0.2440944881889764},{"duration":0.04651162790699459,"midi":80,"time":182.90697674418604,"velocity":0.08661417322834646},{"duration":0.04651162790699459,"midi":96,"time":182.90697674418604,"velocity":0.1732283464566929},{"duration":0.09302325581396076,"midi":100,"time":182.90697674418604,"velocity":0.1732283464566929},{"duration":0.1046511627907023,"midi":36,"time":182.91860465116278,"velocity":0.3464566929133858},{"duration":0.05813953488373613,"midi":55,"time":182.91860465116278,"velocity":0.2992125984251969},{"duration":0.023255813953511506,"midi":65,"time":182.93023255813952,"velocity":0.23622047244094488},{"duration":0.04651162790696617,"midi":68,"time":182.9418604651163,"velocity":0.30708661417322836},{"duration":0.05813953488370771,"midi":91,"time":182.9418604651163,"velocity":0.08661417322834646},{"duration":0.06976744186044925,"midi":90,"time":182.95348837209303,"velocity":0.1968503937007874},{"duration":0.023255813953483084,"midi":60,"time":182.98837209302326,"velocity":0.3464566929133858},{"duration":0.034883720930224626,"midi":75,"time":182.98837209302326,"velocity":0.12598425196850394},{"duration":0.04651162790696617,"midi":84,"time":182.98837209302326,"velocity":0.31496062992125984},{"duration":0.034883720930224626,"midi":92,"time":182.98837209302326,"velocity":0.10236220472440945},{"duration":0.04651162790696617,"midi":94,"time":182.98837209302326,"velocity":0.16535433070866143},{"duration":0.08139534883721922,"midi":97,"time":182.98837209302326,"velocity":0.2204724409448819},{"duration":0.19767441860466306,"midi":99,"time":183,"velocity":0.3937007874015748},{"duration":0.12790697674418539,"midi":65,"time":183.01162790697674,"velocity":0.2440944881889764},{"duration":0.04651162790696617,"midi":80,"time":183.01162790697674,"velocity":0.23622047244094488},{"duration":0.1046511627907023,"midi":100,"time":183.03488372093022,"velocity":0.18110236220472442},{"duration":0.6627906976744384,"midi":101,"time":183.03488372093022,"velocity":0.3779527559055118},{"duration":0.03488372093025305,"midi":88,"time":183.04651162790697,"velocity":0.15748031496062992},{"duration":0.023255813953511506,"midi":60,"time":183.0581395348837,"velocity":0.2755905511811024},{"duration":0.03488372093025305,"midi":72,"time":183.0581395348837,"velocity":0.4015748031496063},{"duration":0.05813953488373613,"midi":87,"time":183.0581395348837,"velocity":0.1889763779527559},{"duration":0.12790697674418539,"midi":96,"time":183.0581395348837,"velocity":0.23622047244094488},{"duration":0.023255813953483084,"midi":83,"time":183.06976744186048,"velocity":0.25196850393700787},{"duration":0.034883720930224626,"midi":73,"time":183.08139534883722,"velocity":0.30708661417322836},{"duration":0.1046511627907023,"midi":70,"time":183.09302325581396,"velocity":0.4251968503937008},{"duration":0.27906976744185386,"midi":77,"time":183.09302325581396,"velocity":0.28346456692913385},{"duration":0.12790697674418539,"midi":86,"time":183.09302325581396,"velocity":0.3228346456692913},{"duration":0.05813953488370771,"midi":92,"time":183.09302325581396,"velocity":0.14960629921259844},{"duration":0.1860465116278931,"midi":97,"time":183.1046511627907,"velocity":0.1889763779527559},{"duration":0.04651162790696617,"midi":74,"time":183.11627906976744,"velocity":0.13385826771653545},{"duration":0.04651162790696617,"midi":88,"time":183.11627906976744,"velocity":0.15748031496062992},{"duration":0.034883720930224626,"midi":91,"time":183.11627906976744,"velocity":0.1889763779527559},{"duration":0.034883720930224626,"midi":53,"time":183.12790697674419,"velocity":0.2204724409448819},{"duration":0.05813953488370771,"midi":72,"time":183.12790697674419,"velocity":0.1732283464566929},{"duration":0.023255813953483084,"midi":85,"time":183.12790697674419,"velocity":0.25196850393700787},{"duration":0.023255813953483084,"midi":45,"time":183.13953488372093,"velocity":0.33070866141732286},{"duration":0.03488372093025305,"midi":46,"time":183.1627906976744,"velocity":0.23622047244094488},{"duration":0.04651162790699459,"midi":53,"time":183.17441860465115,"velocity":0.2677165354330709},{"duration":0.023255813953511506,"midi":62,"time":183.17441860465115,"velocity":0.2283464566929134},{"duration":0.023255813953511506,"midi":35,"time":183.1860465116279,"velocity":0.2677165354330709},{"duration":0.023255813953511506,"midi":58,"time":183.1860465116279,"velocity":0.31496062992125984},{"duration":0.023255813953483084,"midi":69,"time":183.19767441860466,"velocity":0.25196850393700787},{"duration":0.023255813953483084,"midi":72,"time":183.19767441860466,"velocity":0.25984251968503935},{"duration":0.1860465116278931,"midi":85,"time":183.19767441860466,"velocity":0.4094488188976378},{"duration":0.04651162790696617,"midi":34,"time":183.2093023255814,"velocity":0.25196850393700787},{"duration":0.023255813953483084,"midi":57,"time":183.2093023255814,"velocity":0.3779527559055118},{"duration":0.09302325581393234,"midi":95,"time":183.2093023255814,"velocity":0.1889763779527559},{"duration":0.0813953488371908,"midi":102,"time":183.2093023255814,"velocity":0.15748031496062992},{"duration":0.023255813953483084,"midi":73,"time":183.22093023255815,"velocity":0.28346456692913385},{"duration":0.0813953488371908,"midi":99,"time":183.22093023255815,"velocity":0.11023622047244094},{"duration":0.023255813953483084,"midi":58,"time":183.2325581395349,"velocity":0.3779527559055118},{"duration":0.05813953488370771,"midi":72,"time":183.24418604651163,"velocity":0.2677165354330709},{"duration":0.034883720930224626,"midi":80,"time":183.24418604651163,"velocity":0.15748031496062992},{"duration":0.034883720930224626,"midi":83,"time":183.24418604651163,"velocity":0.1889763779527559},{"duration":0.034883720930224626,"midi":87,"time":183.24418604651163,"velocity":0.2125984251968504},{"duration":0.04651162790696617,"midi":88,"time":183.24418604651163,"velocity":0.25196850393700787},{"duration":0.034883720930224626,"midi":90,"time":183.24418604651163,"velocity":0.13385826771653545},{"duration":0.034883720930224626,"midi":93,"time":183.24418604651163,"velocity":0.18110236220472442},{"duration":0.034883720930224626,"midi":94,"time":183.24418604651163,"velocity":0.14960629921259844},{"duration":0.15116279069766847,"midi":96,"time":183.24418604651163,"velocity":0.2047244094488189},{"duration":0.08139534883721922,"midi":103,"time":183.24418604651163,"velocity":0.1732283464566929},{"duration":0.023255813953483084,"midi":66,"time":183.25581395348837,"velocity":0.2755905511811024},{"duration":0.18604651162792152,"midi":92,"time":183.25581395348837,"velocity":0.15748031496062992},{"duration":0.05813953488373613,"midi":69,"time":183.2674418604651,"velocity":0.1968503937007874},{"duration":0.05813953488373613,"midi":81,"time":183.2674418604651,"velocity":0.3228346456692913},{"duration":0.40697674418603924,"midi":82,"time":183.2674418604651,"velocity":0.25196850393700787},{"duration":0.011627906976741542,"midi":46,"time":183.27906976744185,"velocity":0.5748031496062992},{"duration":0.03488372093025305,"midi":61,"time":183.27906976744185,"velocity":0.2283464566929134},{"duration":0.2325581395348877,"midi":65,"time":183.27906976744185,"velocity":0.2677165354330709},{"duration":0.011627906976741542,"midi":45,"time":183.2906976744186,"velocity":0.6220472440944882},{"duration":0.04651162790699459,"midi":58,"time":183.2906976744186,"velocity":0.28346456692913385},{"duration":0.023255813953511506,"midi":74,"time":183.2906976744186,"velocity":0.3700787401574803},{"duration":0.12790697674418539,"midi":100,"time":183.2906976744186,"velocity":0.25984251968503935},{"duration":0.011627906976769964,"midi":44,"time":183.30232558139534,"velocity":0.5984251968503937},{"duration":0.06976744186047767,"midi":98,"time":183.30232558139534,"velocity":0.11811023622047244},{"duration":0.023255813953483084,"midi":42,"time":183.3139534883721,"velocity":0.5275590551181102},{"duration":0.034883720930224626,"midi":73,"time":183.3139534883721,"velocity":0.4015748031496063},{"duration":0.05813953488370771,"midi":99,"time":183.3139534883721,"velocity":0.2677165354330709},{"duration":0.04651162790696617,"midi":80,"time":183.32558139534885,"velocity":0.3464566929133858},{"duration":0.034883720930224626,"midi":95,"time":183.32558139534885,"velocity":0.12598425196850394},{"duration":0.034883720930224626,"midi":55,"time":183.3372093023256,"velocity":0.2992125984251969},{"duration":0.09302325581393234,"midi":86,"time":183.3372093023256,"velocity":0.15748031496062992},{"duration":0.0813953488371908,"midi":102,"time":183.3372093023256,"velocity":0.33070866141732286},{"duration":0.034883720930224626,"midi":46,"time":183.34883720930233,"velocity":0.25196850393700787},{"duration":0.1046511627907023,"midi":58,"time":183.34883720930233,"velocity":0.31496062992125984},{"duration":0.04651162790696617,"midi":72,"time":183.34883720930233,"velocity":0.4645669291338583},{"duration":0.1046511627907023,"midi":78,"time":183.34883720930233,"velocity":0.1889763779527559},{"duration":0.034883720930224626,"midi":88,"time":183.34883720930233,"velocity":0.2440944881889764},{"duration":0.16279069767441,"midi":80,"time":183.38372093023256,"velocity":0.3937007874015748},{"duration":0.09302325581396076,"midi":73,"time":183.3953488372093,"velocity":0.49606299212598426},{"duration":0.04651162790699459,"midi":99,"time":183.3953488372093,"velocity":0.2283464566929134},{"duration":0.05813953488373613,"midi":95,"time":183.40697674418604,"velocity":0.13385826771653545},{"duration":0.06976744186047767,"midi":103,"time":183.41860465116278,"velocity":0.23622047244094488},{"duration":0.03488372093025305,"midi":102,"time":183.43023255813952,"velocity":0.09448818897637795},{"duration":0.09302325581393234,"midi":54,"time":183.4418604651163,"velocity":0.2755905511811024},{"duration":0.15116279069766847,"midi":100,"time":183.4418604651163,"velocity":0.3228346456692913},{"duration":0.27906976744185386,"midi":77,"time":183.45348837209303,"velocity":0.29133858267716534},{"duration":0.05813953488370771,"midi":99,"time":183.45348837209303,"velocity":0.2047244094488189},{"duration":0.05813953488370771,"midi":61,"time":183.46511627906978,"velocity":0.2755905511811024},{"duration":0.023255813953483084,"midi":72,"time":183.47674418604652,"velocity":0.31496062992125984},{"duration":0.15116279069766847,"midi":102,"time":183.47674418604652,"velocity":0.3700787401574803},{"duration":0.06976744186047767,"midi":84,"time":183.5,"velocity":0.3228346456692913},{"duration":0.04651162790696617,"midi":88,"time":183.5,"velocity":0.30708661417322836},{"duration":0.06976744186047767,"midi":93,"time":183.5,"velocity":0.09448818897637795},{"duration":0.04651162790696617,"midi":72,"time":183.51162790697674,"velocity":0.5118110236220472},{"duration":0.034883720930224626,"midi":65,"time":183.52325581395348,"velocity":0.2125984251968504},{"duration":0.034883720930224626,"midi":79,"time":183.52325581395348,"velocity":0.25196850393700787},{"duration":0.023255813953483084,"midi":53,"time":183.53488372093022,"velocity":0.2677165354330709},{"duration":0.04651162790699459,"midi":69,"time":183.53488372093022,"velocity":0.2204724409448819},{"duration":0.03488372093025305,"midi":55,"time":183.5581395348837,"velocity":0.31496062992125984},{"duration":0.03488372093025305,"midi":73,"time":183.5581395348837,"velocity":0.49606299212598426},{"duration":0.19767441860466306,"midi":80,"time":183.5581395348837,"velocity":0.4094488188976378},{"duration":0.09302325581393234,"midi":99,"time":183.56976744186048,"velocity":0.2283464566929134},{"duration":0.1860465116278931,"midi":66,"time":183.58139534883722,"velocity":0.31496062992125984},{"duration":0.04651162790696617,"midi":54,"time":183.59302325581396,"velocity":0.2755905511811024},{"duration":0.05813953488370771,"midi":95,"time":183.59302325581396,"velocity":0.1889763779527559},{"duration":0.04651162790696617,"midi":103,"time":183.6046511627907,"velocity":0.15748031496062992},{"duration":0.1046511627907023,"midi":73,"time":183.61627906976744,"velocity":0.4409448818897638},{"duration":0.27906976744185386,"midi":70,"time":183.63953488372093,"velocity":0.30708661417322836},{"duration":0.04651162790696617,"midi":93,"time":183.63953488372093,"velocity":0.13385826771653545},{"duration":0.034883720930224626,"midi":84,"time":183.65116279069767,"velocity":0.30708661417322836},{"duration":0.22093023255814614,"midi":102,"time":183.65116279069767,"velocity":0.28346456692913385},{"duration":0.023255813953483084,"midi":46,"time":183.6627906976744,"velocity":0.23622047244094488},{"duration":0.023255813953483084,"midi":53,"time":183.6627906976744,"velocity":0.25984251968503935},{"duration":0.09302325581396076,"midi":61,"time":183.6627906976744,"velocity":0.29133858267716534},{"duration":0.03488372093025305,"midi":100,"time":183.6860465116279,"velocity":0.36220472440944884},{"duration":0.20930232558137618,"midi":99,"time":183.7093023255814,"velocity":0.2204724409448819},{"duration":0.1860465116278931,"midi":101,"time":183.7093023255814,"velocity":0.30708661417322836},{"duration":0.04651162790696617,"midi":103,"time":183.7093023255814,"velocity":0.2440944881889764},{"duration":0.034883720930224626,"midi":46,"time":183.72093023255815,"velocity":0.25984251968503935},{"duration":0.034883720930224626,"midi":72,"time":183.72093023255815,"velocity":0.30708661417322836},{"duration":0.034883720930224626,"midi":95,"time":183.72093023255815,"velocity":0.08661417322834646},{"duration":0.06976744186044925,"midi":100,"time":183.7325581395349,"velocity":0.1968503937007874},{"duration":0.08139534883721922,"midi":86,"time":183.74418604651163,"velocity":0.2283464566929134},{"duration":0.023255813953483084,"midi":54,"time":183.75581395348837,"velocity":0.2283464566929134},{"duration":0.04651162790696617,"midi":62,"time":183.75581395348837,"velocity":0.5039370078740157},{"duration":0.023255813953483084,"midi":65,"time":183.75581395348837,"velocity":0.33858267716535434},{"duration":0.034883720930224626,"midi":73,"time":183.75581395348837,"velocity":0.3543307086614173},{"duration":0.15116279069766847,"midi":80,"time":183.7674418604651,"velocity":0.2440944881889764},{"duration":0.03488372093025305,"midi":66,"time":183.77906976744185,"velocity":0.4015748031496063},{"duration":0.06976744186047767,"midi":88,"time":183.77906976744185,"velocity":0.2755905511811024},{"duration":0.05813953488373613,"midi":90,"time":183.77906976744185,"velocity":0.33070866141732286},{"duration":0.06976744186047767,"midi":95,"time":183.77906976744185,"velocity":0.10236220472440945},{"duration":0.16279069767443843,"midi":103,"time":183.77906976744185,"velocity":0.3464566929133858},{"duration":0.19767441860466306,"midi":75,"time":183.7906976744186,"velocity":0.4015748031496063},{"duration":0.04651162790699459,"midi":83,"time":183.7906976744186,"velocity":0.12598425196850394},{"duration":0.03488372093025305,"midi":94,"time":183.7906976744186,"velocity":0.1732283464566929},{"duration":0.023255813953511506,"midi":45,"time":183.80232558139534,"velocity":0.5905511811023622},{"duration":0.1046511627907023,"midi":63,"time":183.80232558139534,"velocity":0.3937007874015748},{"duration":0.16279069767443843,"midi":85,"time":183.80232558139534,"velocity":0.28346456692913385},{"duration":0.23255813953485927,"midi":73,"time":183.8139534883721,"velocity":0.3464566929133858},{"duration":0.011627906976741542,"midi":44,"time":183.82558139534885,"velocity":0.5905511811023622},{"duration":0.023255813953483084,"midi":66,"time":183.82558139534885,"velocity":0.25984251968503935},{"duration":0.25581395348837077,"midi":77,"time":183.82558139534885,"velocity":0.3779527559055118},{"duration":0.10465116279067388,"midi":91,"time":183.82558139534885,"velocity":0.2125984251968504},{"duration":0.05813953488370771,"midi":93,"time":183.82558139534885,"velocity":0.11811023622047244},{"duration":0.023255813953483084,"midi":42,"time":183.8372093023256,"velocity":0.5748031496062992},{"duration":0.023255813953483084,"midi":52,"time":183.8372093023256,"velocity":0.2992125984251969},{"duration":0.034883720930224626,"midi":53,"time":183.88372093023256,"velocity":0.2677165354330709},{"duration":0.05813953488373613,"midi":96,"time":183.88372093023256,"velocity":0.2283464566929134},{"duration":0.023255813953483084,"midi":37,"time":183.8953488372093,"velocity":0.3858267716535433},{"duration":0.023255813953483084,"midi":62,"time":183.90697674418604,"velocity":0.29133858267716534},{"duration":0.08139534883721922,"midi":82,"time":183.90697674418604,"velocity":0.33858267716535434},{"duration":0.04651162790699459,"midi":90,"time":183.90697674418604,"velocity":0.12598425196850394},{"duration":0.05813953488373613,"midi":93,"time":183.90697674418604,"velocity":0.1889763779527559},{"duration":0.023255813953511506,"midi":36,"time":183.91860465116278,"velocity":0.29133858267716534},{"duration":0.023255813953511506,"midi":54,"time":183.91860465116278,"velocity":0.25984251968503935},{"duration":0.023255813953511506,"midi":71,"time":183.91860465116278,"velocity":0.33070866141732286},{"duration":0.05813953488373613,"midi":81,"time":183.91860465116278,"velocity":0.1968503937007874},{"duration":0.1046511627907023,"midi":48,"time":183.93023255813952,"velocity":0.30708661417322836},{"duration":0.023255813953511506,"midi":63,"time":183.93023255813952,"velocity":0.3937007874015748},{"duration":0.034883720930224626,"midi":55,"time":183.9418604651163,"velocity":0.30708661417322836},{"duration":0.023255813953483084,"midi":70,"time":183.9418604651163,"velocity":0.3779527559055118},{"duration":0.023255813953483084,"midi":61,"time":183.95348837209303,"velocity":0.33070866141732286},{"duration":0.04651162790696617,"midi":97,"time":183.96511627906978,"velocity":0.12598425196850394},{"duration":0.0813953488371908,"midi":36,"time":183.97674418604652,"velocity":0.33070866141732286},{"duration":0.034883720930224626,"midi":55,"time":183.98837209302326,"velocity":0.2677165354330709},{"duration":0.04651162790696617,"midi":61,"time":183.98837209302326,"velocity":0.2677165354330709},{"duration":0.034883720930224626,"midi":64,"time":183.98837209302326,"velocity":0.2677165354330709},{"duration":0.12790697674418539,"midi":68,"time":183.98837209302326,"velocity":0.4566929133858268},{"duration":0.023255813953483084,"midi":81,"time":183.98837209302326,"velocity":0.25196850393700787},{"duration":0.034883720930224626,"midi":70,"time":184.01162790697674,"velocity":0.25984251968503935},{"duration":0.09302325581396076,"midi":75,"time":184.01162790697674,"velocity":0.31496062992125984},{"duration":0.023255813953483084,"midi":63,"time":184.02325581395348,"velocity":0.30708661417322836},{"duration":0.034883720930224626,"midi":84,"time":184.02325581395348,"velocity":0.30708661417322836},{"duration":0.03488372093025305,"midi":65,"time":184.03488372093022,"velocity":0.28346456692913385},{"duration":0.04651162790699459,"midi":88,"time":184.03488372093022,"velocity":0.28346456692913385},{"duration":0.24418604651162923,"midi":94,"time":184.03488372093022,"velocity":0.1889763779527559},{"duration":0.1046511627907023,"midi":97,"time":184.03488372093022,"velocity":0.16535433070866143},{"duration":0.22093023255814614,"midi":103,"time":184.03488372093022,"velocity":0.25984251968503935},{"duration":0.03488372093025305,"midi":72,"time":184.04651162790697,"velocity":0.4645669291338583},{"duration":0.04651162790699459,"midi":79,"time":184.04651162790697,"velocity":0.2677165354330709},{"duration":0.03488372093025305,"midi":82,"time":184.04651162790697,"velocity":0.18110236220472442},{"duration":0.03488372093025305,"midi":86,"time":184.04651162790697,"velocity":0.15748031496062992},{"duration":0.03488372093025305,"midi":92,"time":184.04651162790697,"velocity":0.07086614173228346},{"duration":0.43023255813955075,"midi":100,"time":184.04651162790697,"velocity":0.36220472440944884},{"duration":0.5,"midi":101,"time":184.04651162790697,"velocity":0.2677165354330709},{"duration":0.023255813953511506,"midi":45,"time":184.0581395348837,"velocity":0.31496062992125984},{"duration":0.2790697674418823,"midi":63,"time":184.0581395348837,"velocity":0.3779527559055118},{"duration":0.05813953488373613,"midi":83,"time":184.0581395348837,"velocity":0.3228346456692913},{"duration":0.034883720930224626,"midi":81,"time":184.06976744186048,"velocity":0.13385826771653545},{"duration":0.06976744186044925,"midi":102,"time":184.06976744186048,"velocity":0.23622047244094488},{"duration":0.10465116279067388,"midi":46,"time":184.08139534883722,"velocity":0.2677165354330709},{"duration":0.023255813953483084,"midi":53,"time":184.08139534883722,"velocity":0.2677165354330709},{"duration":0.023255813953483084,"midi":71,"time":184.08139534883722,"velocity":0.30708661417322836},{"duration":0.10465116279067388,"midi":84,"time":184.08139534883722,"velocity":0.29133858267716534},{"duration":0.023255813953483084,"midi":87,"time":184.08139534883722,"velocity":0.33070866141732286},{"duration":0.034883720930224626,"midi":70,"time":184.09302325581396,"velocity":0.1732283464566929},{"duration":0.06976744186044925,"midi":86,"time":184.09302325581396,"velocity":0.41732283464566927},{"duration":0.06976744186044925,"midi":58,"time":184.1046511627907,"velocity":0.33858267716535434},{"duration":0.034883720930224626,"midi":72,"time":184.1046511627907,"velocity":0.18110236220472442},{"duration":0.05813953488370771,"midi":89,"time":184.1046511627907,"velocity":0.30708661417322836},{"duration":0.023255813953483084,"midi":35,"time":184.11627906976744,"velocity":0.25984251968503935},{"duration":0.023255813953483084,"midi":53,"time":184.11627906976744,"velocity":0.2677165354330709},{"duration":0.04651162790696617,"midi":82,"time":184.11627906976744,"velocity":0.3464566929133858},{"duration":0.034883720930224626,"midi":91,"time":184.12790697674419,"velocity":0.15748031496062992},{"duration":0.05813953488373613,"midi":34,"time":184.13953488372093,"velocity":0.25196850393700787},{"duration":0.1046511627907023,"midi":68,"time":184.1627906976744,"velocity":0.25196850393700787},{"duration":0.1046511627907023,"midi":72,"time":184.1627906976744,"velocity":0.33858267716535434},{"duration":0.03488372093025305,"midi":83,"time":184.1627906976744,"velocity":0.30708661417322836},{"duration":0.03488372093025305,"midi":87,"time":184.1627906976744,"velocity":0.41732283464566927},{"duration":0.04651162790699459,"midi":90,"time":184.1627906976744,"velocity":0.1889763779527559},{"duration":0.03488372093025305,"midi":93,"time":184.1627906976744,"velocity":0.12598425196850394},{"duration":0.04651162790699459,"midi":97,"time":184.1627906976744,"velocity":0.09448818897637795},{"duration":0.03488372093025305,"midi":88,"time":184.1860465116279,"velocity":0.31496062992125984},{"duration":0.06976744186047767,"midi":91,"time":184.1860465116279,"velocity":0.1732283464566929},{"duration":0.05813953488370771,"midi":79,"time":184.19767441860466,"velocity":0.23622047244094488},{"duration":0.05813953488370771,"midi":84,"time":184.19767441860466,"velocity":0.3937007874015748},{"duration":0.034883720930224626,"midi":87,"time":184.2093023255814,"velocity":0.36220472440944884},{"duration":0.04651162790696617,"midi":98,"time":184.2093023255814,"velocity":0.12598425196850394},{"duration":0.04651162790696617,"midi":86,"time":184.22093023255815,"velocity":0.13385826771653545},{"duration":0.09302325581396076,"midi":88,"time":184.2325581395349,"velocity":0.3858267716535433},{"duration":0.12790697674418539,"midi":83,"time":184.25581395348837,"velocity":0.3779527559055118},{"duration":0.034883720930224626,"midi":87,"time":184.25581395348837,"velocity":0.3464566929133858},{"duration":0.08139534883721922,"midi":90,"time":184.25581395348837,"velocity":0.16535433070866143},{"duration":0.05813953488373613,"midi":97,"time":184.25581395348837,"velocity":0.11023622047244094},{"duration":0.04651162790699459,"midi":71,"time":184.2674418604651,"velocity":0.23622047244094488},{"duration":0.034883720930224626,"midi":84,"time":184.2674418604651,"velocity":0.3543307086614173},{"duration":0.04651162790699459,"midi":91,"time":184.2674418604651,"velocity":0.1732283464566929},{"duration":0.03488372093025305,"midi":79,"time":184.27906976744185,"velocity":0.2047244094488189},{"duration":0.04651162790699459,"midi":78,"time":184.2906976744186,"velocity":0.2992125984251969},{"duration":0.34883720930233153,"midi":86,"time":184.2906976744186,"velocity":0.3779527559055118},{"duration":0.023255813953511506,"midi":67,"time":184.30232558139534,"velocity":0.2677165354330709},{"duration":0.023255813953511506,"midi":73,"time":184.30232558139534,"velocity":0.28346456692913385},{"duration":0.04651162790699459,"midi":94,"time":184.30232558139534,"velocity":0.1732283464566929},{"duration":0.034883720930224626,"midi":59,"time":184.3139534883721,"velocity":0.23622047244094488},{"duration":0.04651162790696617,"midi":89,"time":184.3139534883721,"velocity":0.23622047244094488},{"duration":0.06976744186044925,"midi":66,"time":184.32558139534885,"velocity":0.2047244094488189},{"duration":0.034883720930224626,"midi":68,"time":184.32558139534885,"velocity":0.18110236220472442},{"duration":0.023255813953483084,"midi":72,"time":184.32558139534885,"velocity":0.2283464566929134},{"duration":0.034883720930224626,"midi":74,"time":184.32558139534885,"velocity":0.1732283464566929},{"duration":0.034883720930224626,"midi":77,"time":184.32558139534885,"velocity":0.28346456692913385},{"duration":0.011627906976741542,"midi":46,"time":184.3372093023256,"velocity":0.5433070866141733},{"duration":0.05813953488370771,"midi":70,"time":184.3372093023256,"velocity":0.28346456692913385},{"duration":0.011627906976741542,"midi":45,"time":184.34883720930233,"velocity":0.5905511811023622},{"duration":0.023255813953483084,"midi":78,"time":184.34883720930233,"velocity":0.25984251968503935},{"duration":0.05813953488370771,"midi":102,"time":184.34883720930233,"velocity":0.11811023622047244},{"duration":0.023255813953483084,"midi":42,"time":184.36046511627907,"velocity":0.5826771653543307},{"duration":0.05813953488370771,"midi":63,"time":184.36046511627907,"velocity":0.14173228346456693},{"duration":0.06976744186044925,"midi":72,"time":184.36046511627907,"velocity":0.2204724409448819},{"duration":0.034883720930224626,"midi":79,"time":184.36046511627907,"velocity":0.08661417322834646},{"duration":0.11627906976744384,"midi":82,"time":184.36046511627907,"velocity":0.3779527559055118},{"duration":0.12790697674418539,"midi":88,"time":184.36046511627907,"velocity":0.1732283464566929},{"duration":0.1046511627907023,"midi":103,"time":184.36046511627907,"velocity":0.1732283464566929},{"duration":0.034883720930224626,"midi":68,"time":184.37209302325581,"velocity":0.18110236220472442},{"duration":0.2093023255814046,"midi":77,"time":184.37209302325581,"velocity":0.3464566929133858},{"duration":0.023255813953483084,"midi":41,"time":184.38372093023256,"velocity":0.5354330708661418},{"duration":0.034883720930224626,"midi":51,"time":184.38372093023256,"velocity":0.2440944881889764},{"duration":0.034883720930224626,"midi":99,"time":184.3953488372093,"velocity":0.15748031496062992},{"duration":0.023255813953483084,"midi":39,"time":184.40697674418604,"velocity":0.3700787401574803},{"duration":0.1046511627907023,"midi":58,"time":184.40697674418604,"velocity":0.29133858267716534},{"duration":0.12790697674418539,"midi":70,"time":184.40697674418604,"velocity":0.3228346456692913},{"duration":0.05813953488373613,"midi":51,"time":184.43023255813952,"velocity":0.12598425196850394},{"duration":0.034883720930224626,"midi":35,"time":184.4418604651163,"velocity":0.3937007874015748},{"duration":0.05813953488370771,"midi":68,"time":184.4418604651163,"velocity":0.2204724409448819},{"duration":0.034883720930224626,"midi":72,"time":184.4418604651163,"velocity":0.14960629921259844},{"duration":0.22093023255811772,"midi":80,"time":184.4418604651163,"velocity":0.2677165354330709},{"duration":0.0813953488371908,"midi":99,"time":184.4418604651163,"velocity":0.28346456692913385},{"duration":0.13953488372092693,"midi":63,"time":184.45348837209303,"velocity":0.2125984251968504},{"duration":0.034883720930224626,"midi":102,"time":184.47674418604652,"velocity":0.09448818897637795},{"duration":0.034883720930224626,"midi":57,"time":184.51162790697674,"velocity":0.47244094488188976},{"duration":0.06976744186047767,"midi":83,"time":184.51162790697674,"velocity":0.14960629921259844},{"duration":0.7093023255814046,"midi":72,"time":184.53488372093022,"velocity":0.30708661417322836},{"duration":0.023255813953511506,"midi":56,"time":184.54651162790697,"velocity":0.4330708661417323},{"duration":0.1046511627907023,"midi":99,"time":184.54651162790697,"velocity":0.2125984251968504},{"duration":0.04651162790699459,"midi":91,"time":184.5581395348837,"velocity":0.1889763779527559},{"duration":0.10465116279067388,"midi":68,"time":184.56976744186048,"velocity":0.3937007874015748},{"duration":0.06976744186044925,"midi":78,"time":184.56976744186048,"velocity":0.1732283464566929},{"duration":0.11627906976741542,"midi":92,"time":184.56976744186048,"velocity":0.3779527559055118},{"duration":0.034883720930224626,"midi":100,"time":184.56976744186048,"velocity":0.16535433070866143},{"duration":0.09302325581393234,"midi":94,"time":184.58139534883722,"velocity":0.28346456692913385},{"duration":0.22093023255811772,"midi":96,"time":184.58139534883722,"velocity":0.33070866141732286},{"duration":0.034883720930224626,"midi":97,"time":184.58139534883722,"velocity":0.15748031496062992},{"duration":0.023255813953483084,"midi":74,"time":184.59302325581396,"velocity":0.2440944881889764},{"duration":0.06976744186044925,"midi":90,"time":184.59302325581396,"velocity":0.25984251968503935},{"duration":0.12790697674418539,"midi":51,"time":184.6046511627907,"velocity":0.2677165354330709},{"duration":0.034883720930224626,"midi":76,"time":184.6046511627907,"velocity":0.4409448818897638},{"duration":0.13953488372092693,"midi":44,"time":184.61627906976744,"velocity":0.33070866141732286},{"duration":0.06976744186044925,"midi":82,"time":184.61627906976744,"velocity":0.11023622047244094},{"duration":0.034883720930224626,"midi":101,"time":184.61627906976744,"velocity":0.10236220472440945},{"duration":0.034883720930224626,"midi":87,"time":184.62790697674419,"velocity":0.2047244094488189},{"duration":0.2906976744185954,"midi":75,"time":184.63953488372093,"velocity":0.4881889763779528},{"duration":0.023255813953483084,"midi":33,"time":184.65116279069767,"velocity":0.25984251968503935},{"duration":0.04651162790699459,"midi":79,"time":184.65116279069767,"velocity":0.25196850393700787},{"duration":0.05813953488373613,"midi":86,"time":184.6627906976744,"velocity":0.13385826771653545},{"duration":0.05813953488373613,"midi":89,"time":184.6627906976744,"velocity":0.2677165354330709},{"duration":0.05813953488373613,"midi":93,"time":184.6627906976744,"velocity":0.18110236220472442},{"duration":0.05813953488373613,"midi":95,"time":184.6627906976744,"velocity":0.28346456692913385},{"duration":0.12790697674418539,"midi":97,"time":184.6627906976744,"velocity":0.25196850393700787},{"duration":0.25581395348837077,"midi":99,"time":184.6627906976744,"velocity":0.30708661417322836},{"duration":0.08139534883721922,"midi":32,"time":184.67441860465115,"velocity":0.2677165354330709},{"duration":0.05813953488373613,"midi":83,"time":184.67441860465115,"velocity":0.1732283464566929},{"duration":0.16279069767443843,"midi":91,"time":184.67441860465115,"velocity":0.4094488188976378},{"duration":0.08139534883721922,"midi":68,"time":184.6860465116279,"velocity":0.2992125984251969},{"duration":0.11627906976744384,"midi":98,"time":184.6860465116279,"velocity":0.2440944881889764},{"duration":0.06976744186044925,"midi":80,"time":184.69767441860466,"velocity":0.2992125984251969},{"duration":0.034883720930224626,"midi":57,"time":184.7093023255814,"velocity":0.31496062992125984},{"duration":0.09302325581393234,"midi":94,"time":184.7093023255814,"velocity":0.15748031496062992},{"duration":0.09302325581393234,"midi":100,"time":184.7093023255814,"velocity":0.12598425196850394},{"duration":0.0813953488371908,"midi":90,"time":184.72093023255815,"velocity":0.33070866141732286},{"duration":0.04651162790696617,"midi":95,"time":184.7325581395349,"velocity":0.1732283464566929},{"duration":0.08139534883721922,"midi":101,"time":184.7325581395349,"velocity":0.2440944881889764},{"duration":0.04651162790696617,"midi":56,"time":184.74418604651163,"velocity":0.36220472440944884},{"duration":0.034883720930224626,"midi":81,"time":184.75581395348837,"velocity":0.2755905511811024},{"duration":0.023255813953483084,"midi":69,"time":184.7674418604651,"velocity":0.2283464566929134},{"duration":0.05813953488373613,"midi":57,"time":184.7906976744186,"velocity":0.41732283464566927},{"duration":0.04651162790699459,"midi":68,"time":184.7906976744186,"velocity":0.31496062992125984},{"duration":0.023255813953483084,"midi":60,"time":184.8139534883721,"velocity":0.28346456692913385},{"duration":0.19767441860463464,"midi":90,"time":184.8139534883721,"velocity":0.3464566929133858},{"duration":0.034883720930224626,"midi":79,"time":184.82558139534885,"velocity":0.14960629921259844},{"duration":0.0813953488371908,"midi":97,"time":184.82558139534885,"velocity":0.1968503937007874},{"duration":0.06976744186044925,"midi":88,"time":184.8372093023256,"velocity":0.2440944881889764},{"duration":0.0813953488371908,"midi":94,"time":184.8372093023256,"velocity":0.1732283464566929},{"duration":0.05813953488370771,"midi":96,"time":184.8372093023256,"velocity":0.18110236220472442},{"duration":0.05813953488370771,"midi":101,"time":184.8372093023256,"velocity":0.14960629921259844},{"duration":0.034883720930224626,"midi":45,"time":184.84883720930233,"velocity":0.5984251968503937},{"duration":0.1046511627907023,"midi":89,"time":184.84883720930233,"velocity":0.1889763779527559},{"duration":0.05813953488370771,"midi":91,"time":184.84883720930233,"velocity":0.2283464566929134},{"duration":0.5348837209302246,"midi":68,"time":184.86046511627907,"velocity":0.3543307086614173},{"duration":0.034883720930224626,"midi":81,"time":184.86046511627907,"velocity":0.1889763779527559},{"duration":0.034883720930224626,"midi":83,"time":184.86046511627907,"velocity":0.14173228346456693},{"duration":0.06976744186044925,"midi":85,"time":184.86046511627907,"velocity":0.13385826771653545},{"duration":0.011627906976741542,"midi":44,"time":184.88372093023256,"velocity":0.5984251968503937},{"duration":0.034883720930224626,"midi":82,"time":184.88372093023256,"velocity":0.11023622047244094},{"duration":0.011627906976741542,"midi":43,"time":184.8953488372093,"velocity":0.5748031496062992},{"duration":0.011627906976741542,"midi":42,"time":184.90697674418604,"velocity":0.5354330708661418},{"duration":0.023255813953483084,"midi":52,"time":184.90697674418604,"velocity":0.2677165354330709},{"duration":0.04651162790699459,"midi":96,"time":184.90697674418604,"velocity":0.11023622047244094},{"duration":0.034883720930224626,"midi":56,"time":184.95348837209303,"velocity":0.28346456692913385},{"duration":0.2906976744185954,"midi":75,"time":184.95348837209303,"velocity":0.2440944881889764},{"duration":0.023255813953483084,"midi":36,"time":184.96511627906978,"velocity":0.3464566929133858},{"duration":0.05813953488370771,"midi":63,"time":184.96511627906978,"velocity":0.1732283464566929},{"duration":0.034883720930224626,"midi":78,"time":184.96511627906978,"velocity":0.11811023622047244},{"duration":0.023255813953483084,"midi":35,"time":184.98837209302326,"velocity":0.23622047244094488},{"duration":0.08139534883721922,"midi":60,"time":184.98837209302326,"velocity":0.12598425196850394},{"duration":0.06976744186047767,"midi":63,"time":185.04651162790697,"velocity":0.18110236220472442},{"duration":0.034883720930224626,"midi":52,"time":185.08139534883722,"velocity":0.2755905511811024},{"duration":0.023255813953483084,"midi":60,"time":185.1046511627907,"velocity":0.25196850393700787},{"duration":0.06976744186044925,"midi":77,"time":185.1046511627907,"velocity":0.1889763779527559},{"duration":0.04651162790696617,"midi":81,"time":185.1046511627907,"velocity":0.18110236220472442},{"duration":0.04651162790696617,"midi":86,"time":185.1046511627907,"velocity":0.14960629921259844},{"duration":0.034883720930224626,"midi":91,"time":185.1046511627907,"velocity":0.07874015748031496},{"duration":0.023255813953483084,"midi":55,"time":185.11627906976744,"velocity":0.33858267716535434},{"duration":0.034883720930224626,"midi":78,"time":185.11627906976744,"velocity":0.15748031496062992},{"duration":0.1046511627907023,"midi":44,"time":185.12790697674419,"velocity":0.33070866141732286},{"duration":0.034883720930224626,"midi":92,"time":185.12790697674419,"velocity":0.11023622047244094},{"duration":0.06976744186047767,"midi":94,"time":185.12790697674419,"velocity":0.11811023622047244},{"duration":0.05813953488370771,"midi":97,"time":185.12790697674419,"velocity":0.11023622047244094},{"duration":0.12790697674418539,"midi":93,"time":185.13953488372093,"velocity":0.25196850393700787},{"duration":0.023255813953483084,"midi":57,"time":185.15116279069767,"velocity":0.5118110236220472},{"duration":0.034883720930224626,"midi":63,"time":185.15116279069767,"velocity":0.16535433070866143},{"duration":0.023255813953511506,"midi":56,"time":185.17441860465115,"velocity":0.47244094488188976},{"duration":0.11627906976744384,"midi":102,"time":185.17441860465115,"velocity":0.2047244094488189},{"duration":0.05813953488370771,"midi":32,"time":185.19767441860466,"velocity":0.25984251968503935},{"duration":0.034883720930224626,"midi":91,"time":185.2093023255814,"velocity":0.1732283464566929},{"duration":0.04651162790696617,"midi":97,"time":185.2093023255814,"velocity":0.12598425196850394},{"duration":0.023255813953483084,"midi":55,"time":185.22093023255815,"velocity":0.3779527559055118},{"duration":0.05813953488370771,"midi":96,"time":185.22093023255815,"velocity":0.2204724409448819},{"duration":0.06976744186044925,"midi":78,"time":185.2325581395349,"velocity":0.1732283464566929},{"duration":0.05813953488370771,"midi":81,"time":185.2325581395349,"velocity":0.16535433070866143},{"duration":0.04651162790696617,"midi":86,"time":185.2325581395349,"velocity":0.1732283464566929},{"duration":0.04651162790696617,"midi":89,"time":185.2325581395349,"velocity":0.1968503937007874},{"duration":0.05813953488370771,"midi":92,"time":185.2325581395349,"velocity":0.1889763779527559},{"duration":0.034883720930224626,"midi":94,"time":185.2325581395349,"velocity":0.1968503937007874},{"duration":0.06976744186047767,"midi":56,"time":185.24418604651163,"velocity":0.5118110236220472},{"duration":0.11627906976744384,"midi":63,"time":185.24418604651163,"velocity":0.2047244094488189},{"duration":0.04651162790696617,"midi":74,"time":185.24418604651163,"velocity":0.2047244094488189},{"duration":0.06976744186047767,"midi":77,"time":185.24418604651163,"velocity":0.1732283464566929},{"duration":0.1046511627907023,"midi":44,"time":185.2674418604651,"velocity":0.33858267716535434},{"duration":0.12790697674418539,"midi":75,"time":185.2674418604651,"velocity":0.25984251968503935},{"duration":0.034883720930224626,"midi":79,"time":185.2674418604651,"velocity":0.10236220472440945},{"duration":0.09302325581396076,"midi":51,"time":185.2906976744186,"velocity":0.3543307086614173},{"duration":0.023255813953483084,"midi":33,"time":185.3139534883721,"velocity":0.2440944881889764},{"duration":0.2674418604651123,"midi":92,"time":185.32558139534885,"velocity":0.15748031496062992},{"duration":0.04651162790696617,"midi":32,"time":185.3372093023256,"velocity":0.2440944881889764},{"duration":0.05813953488370771,"midi":72,"time":185.3372093023256,"velocity":0.48031496062992124},{"duration":0.04651162790696617,"midi":86,"time":185.36046511627907,"velocity":0.1968503937007874},{"duration":0.08139534883721922,"midi":91,"time":185.36046511627907,"velocity":0.1889763779527559},{"duration":0.33720930232559,"midi":94,"time":185.36046511627907,"velocity":0.25984251968503935},{"duration":0.034883720930224626,"midi":95,"time":185.36046511627907,"velocity":0.2677165354330709},{"duration":0.12790697674418539,"midi":97,"time":185.36046511627907,"velocity":0.1732283464566929},{"duration":0.05813953488370771,"midi":99,"time":185.36046511627907,"velocity":0.18110236220472442},{"duration":0.04651162790696617,"midi":100,"time":185.36046511627907,"velocity":0.1732283464566929},{"duration":0.034883720930224626,"midi":101,"time":185.36046511627907,"velocity":0.12598425196850394},{"duration":0.04651162790696617,"midi":102,"time":185.36046511627907,"velocity":0.2125984251968504},{"duration":0.2093023255814046,"midi":103,"time":185.36046511627907,"velocity":0.36220472440944884},{"duration":0.023255813953483084,"midi":88,"time":185.37209302325581,"velocity":0.2283464566929134},{"duration":0.011627906976741542,"midi":46,"time":185.3953488372093,"velocity":0.5748031496062992},{"duration":0.27906976744185386,"midi":63,"time":185.3953488372093,"velocity":0.3228346456692913},{"duration":0.034883720930224626,"midi":73,"time":185.3953488372093,"velocity":0.4251968503937008},{"duration":0.06976744186047767,"midi":76,"time":185.3953488372093,"velocity":0.2677165354330709},{"duration":0.034883720930224626,"midi":81,"time":185.3953488372093,"velocity":0.25196850393700787},{"duration":0.04651162790699459,"midi":89,"time":185.3953488372093,"velocity":0.25196850393700787},{"duration":0.011627906976741542,"midi":45,"time":185.40697674418604,"velocity":0.6141732283464567},{"duration":0.1046511627907023,"midi":68,"time":185.40697674418604,"velocity":0.1889763779527559},{"duration":0.011627906976741542,"midi":43,"time":185.41860465116278,"velocity":0.5905511811023622},{"duration":0.03488372093025305,"midi":56,"time":185.41860465116278,"velocity":0.30708661417322836},{"duration":0.09302325581396076,"midi":60,"time":185.41860465116278,"velocity":0.25196850393700787},{"duration":0.04651162790699459,"midi":95,"time":185.41860465116278,"velocity":0.14173228346456693},{"duration":0.011627906976769964,"midi":42,"time":185.43023255813952,"velocity":0.5590551181102362},{"duration":0.06976744186047767,"midi":74,"time":185.43023255813952,"velocity":0.4881889763779528},{"duration":0.04651162790699459,"midi":80,"time":185.43023255813952,"velocity":0.2440944881889764},{"duration":0.2325581395348877,"midi":84,"time":185.43023255813952,"velocity":0.33858267716535434},{"duration":0.08139534883721922,"midi":90,"time":185.43023255813952,"velocity":0.36220472440944884},{"duration":0.011627906976741542,"midi":41,"time":185.4418604651163,"velocity":0.5118110236220472},{"duration":0.034883720930224626,"midi":91,"time":185.45348837209303,"velocity":0.16535433070866143},{"duration":0.06976744186044925,"midi":56,"time":185.46511627906978,"velocity":0.31496062992125984},{"duration":0.09302325581393234,"midi":81,"time":185.46511627906978,"velocity":0.33858267716535434},{"duration":0.023255813953483084,"midi":36,"time":185.48837209302326,"velocity":0.33858267716535434},{"duration":0.04651162790696617,"midi":72,"time":185.48837209302326,"velocity":0.36220472440944884},{"duration":0.3139534883720785,"midi":75,"time":185.48837209302326,"velocity":0.5275590551181102},{"duration":0.05813953488370771,"midi":80,"time":185.48837209302326,"velocity":0.25984251968503935},{"duration":0.4186046511627808,"midi":91,"time":185.51162790697674,"velocity":0.4409448818897638},{"duration":0.2325581395348877,"midi":97,"time":185.51162790697674,"velocity":0.25196850393700787},{"duration":0.04651162790699459,"midi":60,"time":185.52325581395348,"velocity":0.28346456692913385},{"duration":0.19767441860466306,"midi":82,"time":185.53488372093022,"velocity":0.29133858267716534},{"duration":0.06976744186047767,"midi":68,"time":185.54651162790697,"velocity":0.13385826771653545},{"duration":0.24418604651162923,"midi":72,"time":185.54651162790697,"velocity":0.3858267716535433},{"duration":0.18604651162792152,"midi":80,"time":185.5581395348837,"velocity":0.3228346456692913},{"duration":0.06976744186047767,"midi":101,"time":185.5581395348837,"velocity":0.14173228346456693},{"duration":0.06976744186044925,"midi":60,"time":185.58139534883722,"velocity":0.31496062992125984},{"duration":0.05813953488370771,"midi":88,"time":185.58139534883722,"velocity":0.14173228346456693},{"duration":0.13953488372092693,"midi":102,"time":185.58139534883722,"velocity":0.13385826771653545},{"duration":0.05813953488370771,"midi":86,"time":185.6046511627907,"velocity":0.1968503937007874},{"duration":0.05813953488370771,"midi":90,"time":185.62790697674419,"velocity":0.08661417322834646},{"duration":0.11627906976744384,"midi":48,"time":185.63953488372093,"velocity":0.23622047244094488},{"duration":0.05813953488373613,"midi":78,"time":185.63953488372093,"velocity":0.13385826771653545},{"duration":0.05813953488373613,"midi":81,"time":185.65116279069767,"velocity":0.12598425196850394},{"duration":0.03488372093025305,"midi":53,"time":185.6627906976744,"velocity":0.1968503937007874},{"duration":0.03488372093025305,"midi":60,"time":185.6627906976744,"velocity":0.25984251968503935},{"duration":0.023255813953511506,"midi":40,"time":185.67441860465115,"velocity":0.31496062992125984},{"duration":0.05813953488373613,"midi":101,"time":185.67441860465115,"velocity":0.14960629921259844},{"duration":0.03488372093025305,"midi":57,"time":185.6860465116279,"velocity":0.25984251968503935},{"duration":0.05813953488370771,"midi":41,"time":185.69767441860466,"velocity":0.2440944881889764},{"duration":0.034883720930224626,"midi":63,"time":185.7093023255814,"velocity":0.2047244094488189},{"duration":0.06976744186044925,"midi":68,"time":185.7093023255814,"velocity":0.1889763779527559},{"duration":0.1860465116278931,"midi":60,"time":185.7325581395349,"velocity":0.4330708661417323},{"duration":0.034883720930224626,"midi":30,"time":185.74418604651163,"velocity":0.18110236220472442},{"duration":0.17441860465117998,"midi":80,"time":185.7674418604651,"velocity":0.2047244094488189},{"duration":0.034883720930224626,"midi":83,"time":185.7674418604651,"velocity":0.15748031496062992},{"duration":0.034883720930224626,"midi":86,"time":185.7674418604651,"velocity":0.15748031496062992},{"duration":0.04651162790699459,"midi":74,"time":185.77906976744185,"velocity":0.2125984251968504},{"duration":0.04651162790699459,"midi":78,"time":185.77906976744185,"velocity":0.11811023622047244},{"duration":0.04651162790699459,"midi":53,"time":185.7906976744186,"velocity":0.25984251968503935},{"duration":0.023255813953511506,"midi":40,"time":185.80232558139534,"velocity":0.31496062992125984},{"duration":0.08139534883721922,"midi":48,"time":185.80232558139534,"velocity":0.25196850393700787},{"duration":0.04651162790699459,"midi":57,"time":185.80232558139534,"velocity":0.2440944881889764},{"duration":0.03488372093025305,"midi":68,"time":185.80232558139534,"velocity":0.1889763779527559},{"duration":0.12790697674418539,"midi":75,"time":185.82558139534885,"velocity":0.30708661417322836},{"duration":0.04651162790696617,"midi":94,"time":185.8372093023256,"velocity":0.14173228346456693},{"duration":0.023255813953483084,"midi":31,"time":185.84883720930233,"velocity":0.2283464566929134},{"duration":0.1860465116278931,"midi":102,"time":185.86046511627907,"velocity":0.29133858267716534},{"duration":0.04651162790696617,"midi":30,"time":185.87209302325581,"velocity":0.2204724409448819},{"duration":0.023255813953483084,"midi":41,"time":185.87209302325581,"velocity":0.2283464566929134},{"duration":0.023255813953483084,"midi":66,"time":185.87209302325581,"velocity":0.2992125984251969},{"duration":0.1860465116278931,"midi":99,"time":185.87209302325581,"velocity":0.16535433070866143},{"duration":0.04651162790696617,"midi":70,"time":185.88372093023256,"velocity":0.2125984251968504},{"duration":0.22093023255814614,"midi":97,"time":185.88372093023256,"velocity":0.25984251968503935},{"duration":0.08139534883721922,"midi":98,"time":185.88372093023256,"velocity":0.18110236220472442},{"duration":0.12790697674418539,"midi":100,"time":185.88372093023256,"velocity":0.2125984251968504},{"duration":0.023255813953483084,"midi":64,"time":185.8953488372093,"velocity":0.3543307086614173},{"duration":0.1046511627907023,"midi":86,"time":185.8953488372093,"velocity":0.14173228346456693},{"duration":0.2674418604651123,"midi":89,"time":185.8953488372093,"velocity":0.4566929133858268},{"duration":0.06976744186047767,"midi":90,"time":185.8953488372093,"velocity":0.29133858267716534},{"duration":0.023255813953483084,"midi":93,"time":185.8953488372093,"velocity":0.2283464566929134},{"duration":0.15116279069766847,"midi":94,"time":185.8953488372093,"velocity":0.3700787401574803},{"duration":0.05813953488373613,"midi":66,"time":185.90697674418604,"velocity":0.3779527559055118},{"duration":0.05813953488373613,"midi":88,"time":185.90697674418604,"velocity":0.23622047244094488},{"duration":0.023255813953511506,"midi":45,"time":185.91860465116278,"velocity":0.5984251968503937},{"duration":0.04651162790699459,"midi":83,"time":185.91860465116278,"velocity":0.15748031496062992},{"duration":0.08139534883721922,"midi":92,"time":185.91860465116278,"velocity":0.33070866141732286},{"duration":0.023255813953511506,"midi":62,"time":185.93023255813952,"velocity":0.3700787401574803},{"duration":0.04651162790699459,"midi":82,"time":185.93023255813952,"velocity":0.11023622047244094},{"duration":0.03488372093025305,"midi":93,"time":185.93023255813952,"velocity":0.2047244094488189},{"duration":0.2790697674418823,"midi":95,"time":185.93023255813952,"velocity":0.5039370078740157},{"duration":0.011627906976741542,"midi":44,"time":185.9418604651163,"velocity":0.5905511811023622},{"duration":0.023255813953483084,"midi":51,"time":185.9418604651163,"velocity":0.28346456692913385},{"duration":0.05813953488370771,"midi":69,"time":185.9418604651163,"velocity":0.1889763779527559},{"duration":0.023255813953483084,"midi":73,"time":185.9418604651163,"velocity":0.3858267716535433},{"duration":0.011627906976741542,"midi":43,"time":185.95348837209303,"velocity":0.5511811023622047},{"duration":0.034883720930224626,"midi":61,"time":185.95348837209303,"velocity":0.36220472440944884},{"duration":0.023255813953483084,"midi":74,"time":185.95348837209303,"velocity":0.33070866141732286},{"duration":0.11627906976744384,"midi":96,"time":185.95348837209303,"velocity":0.1889763779527559},{"duration":0.023255813953483084,"midi":52,"time":185.96511627906978,"velocity":0.25984251968503935},{"duration":0.2906976744185954,"midi":75,"time":185.96511627906978,"velocity":0.3779527559055118},{"duration":0.034883720930224626,"midi":65,"time":185.97674418604652,"velocity":0.29133858267716534},{"duration":0.11627906976744384,"midi":73,"time":185.97674418604652,"velocity":0.41732283464566927},{"duration":0.06976744186044925,"midi":90,"time":185.98837209302326,"velocity":0.18110236220472442},{"duration":0.2325581395348877,"midi":91,"time":185.98837209302326,"velocity":0.3858267716535433},{"duration":0.05813953488370771,"midi":68,"time":186,"velocity":0.2204724409448819},{"duration":0.08139534883721922,"midi":82,"time":186,"velocity":0.2047244094488189},{"duration":0.023255813953483084,"midi":37,"time":186.01162790697674,"velocity":0.3779527559055118},{"duration":0.034883720930224626,"midi":61,"time":186.01162790697674,"velocity":0.44881889763779526},{"duration":0.034883720930224626,"midi":64,"time":186.02325581395348,"velocity":0.3779527559055118},{"duration":0.06976744186047767,"midi":78,"time":186.02325581395348,"velocity":0.2047244094488189},{"duration":0.05813953488373613,"midi":81,"time":186.02325581395348,"velocity":0.2440944881889764},{"duration":0.034883720930224626,"midi":84,"time":186.02325581395348,"velocity":0.07086614173228346},{"duration":0.023255813953483084,"midi":36,"time":186.03488372093022,"velocity":0.2677165354330709},{"duration":0.03488372093025305,"midi":92,"time":186.03488372093022,"velocity":0.3464566929133858},{"duration":0.05813953488373613,"midi":48,"time":186.04651162790697,"velocity":0.29133858267716534},{"duration":0.04651162790699459,"midi":55,"time":186.0581395348837,"velocity":0.2283464566929134},{"duration":0.03488372093025305,"midi":65,"time":186.0581395348837,"velocity":0.3779527559055118},{"duration":0.22093023255814614,"midi":102,"time":186.0581395348837,"velocity":0.2204724409448819},{"duration":0.12790697674418539,"midi":68,"time":186.06976744186048,"velocity":0.2992125984251969},{"duration":0.25581395348837077,"midi":93,"time":186.06976744186048,"velocity":0.33858267716535434},{"duration":0.04651162790696617,"midi":100,"time":186.06976744186048,"velocity":0.12598425196850394},{"duration":0.04651162790696617,"midi":94,"time":186.08139534883722,"velocity":0.11023622047244094},{"duration":0.06976744186044925,"midi":36,"time":186.09302325581396,"velocity":0.29133858267716534},{"duration":0.023255813953483084,"midi":62,"time":186.09302325581396,"velocity":0.30708661417322836},{"duration":0.034883720930224626,"midi":74,"time":186.09302325581396,"velocity":0.3700787401574803},{"duration":0.034883720930224626,"midi":85,"time":186.09302325581396,"velocity":0.16535433070866143},{"duration":0.034883720930224626,"midi":61,"time":186.11627906976744,"velocity":0.4330708661417323},{"duration":0.034883720930224626,"midi":65,"time":186.12790697674419,"velocity":0.3228346456692913},{"duration":0.2906976744185954,"midi":92,"time":186.12790697674419,"velocity":0.2677165354330709},{"duration":0.08139534883721922,"midi":94,"time":186.13953488372093,"velocity":0.3779527559055118},{"duration":0.04651162790696617,"midi":96,"time":186.13953488372093,"velocity":0.11023622047244094},{"duration":0.034883720930224626,"midi":62,"time":186.15116279069767,"velocity":0.41732283464566927},{"duration":0.04651162790699459,"midi":83,"time":186.15116279069767,"velocity":0.1889763779527559},{"duration":0.09302325581396076,"midi":88,"time":186.15116279069767,"velocity":0.3700787401574803},{"duration":0.03488372093025305,"midi":72,"time":186.1627906976744,"velocity":0.3543307086614173},{"duration":0.04651162790699459,"midi":89,"time":186.17441860465115,"velocity":0.2125984251968504},{"duration":0.05813953488373613,"midi":61,"time":186.1860465116279,"velocity":0.5039370078740157},{"duration":0.30232558139536536,"midi":77,"time":186.1860465116279,"velocity":0.2283464566929134},{"duration":0.09302325581393234,"midi":46,"time":186.19767441860466,"velocity":0.2677165354330709},{"duration":0.12790697674418539,"midi":84,"time":186.19767441860466,"velocity":0.1968503937007874},{"duration":0.04651162790696617,"midi":53,"time":186.22093023255815,"velocity":0.2440944881889764},{"duration":0.1046511627907023,"midi":95,"time":186.22093023255815,"velocity":0.3228346456692913},{"duration":0.06976744186044925,"midi":66,"time":186.2325581395349,"velocity":0.31496062992125984},{"duration":0.09302325581396076,"midi":89,"time":186.2325581395349,"velocity":0.2992125984251969},{"duration":0.15116279069766847,"midi":103,"time":186.2325581395349,"velocity":0.2204724409448819},{"duration":0.09302325581396076,"midi":34,"time":186.24418604651163,"velocity":0.29133858267716534},{"duration":0.023255813953483084,"midi":62,"time":186.24418604651163,"velocity":0.4409448818897638},{"duration":0.04651162790696617,"midi":72,"time":186.24418604651163,"velocity":0.12598425196850394},{"duration":0.034883720930224626,"midi":91,"time":186.25581395348837,"velocity":0.11023622047244094},{"duration":0.15116279069766847,"midi":61,"time":186.2674418604651,"velocity":0.4566929133858268},{"duration":0.034883720930224626,"midi":81,"time":186.2674418604651,"velocity":0.12598425196850394},{"duration":0.13953488372092693,"midi":56,"time":186.27906976744185,"velocity":0.2204724409448819},{"duration":0.05813953488373613,"midi":90,"time":186.2906976744186,"velocity":0.08661417322834646},{"duration":0.05813953488373613,"midi":65,"time":186.30232558139534,"velocity":0.3228346456692913},{"duration":0.11627906976744384,"midi":73,"time":186.30232558139534,"velocity":0.5196850393700787},{"duration":0.15116279069766847,"midi":80,"time":186.3139534883721,"velocity":0.25984251968503935},{"duration":0.034883720930224626,"midi":94,"time":186.3139534883721,"velocity":0.18110236220472442},{"duration":0.034883720930224626,"midi":91,"time":186.32558139534885,"velocity":0.1889763779527559},{"duration":0.04651162790696617,"midi":102,"time":186.32558139534885,"velocity":0.2440944881889764},{"duration":0.05813953488370771,"midi":89,"time":186.3372093023256,"velocity":0.25196850393700787},{"duration":0.15116279069766847,"midi":68,"time":186.34883720930233,"velocity":0.3228346456692913},{"duration":0.034883720930224626,"midi":86,"time":186.36046511627907,"velocity":0.1968503937007874},{"duration":0.04651162790696617,"midi":75,"time":186.37209302325581,"velocity":0.13385826771653545},{"duration":0.08139534883721922,"midi":93,"time":186.37209302325581,"velocity":0.2125984251968504},{"duration":0.023255813953483084,"midi":65,"time":186.38372093023256,"velocity":0.25196850393700787},{"duration":0.06976744186047767,"midi":84,"time":186.38372093023256,"velocity":0.11811023622047244},{"duration":0.034883720930224626,"midi":88,"time":186.38372093023256,"velocity":0.1889763779527559},{"duration":0.03488372093025305,"midi":74,"time":186.41860465116278,"velocity":0.4251968503937008},{"duration":0.03488372093025305,"midi":96,"time":186.41860465116278,"velocity":0.2204724409448819},{"duration":0.03488372093025305,"midi":103,"time":186.41860465116278,"velocity":0.2125984251968504},{"duration":0.023255813953511506,"midi":61,"time":186.43023255813952,"velocity":0.3858267716535433},{"duration":0.03488372093025305,"midi":66,"time":186.43023255813952,"velocity":0.33070866141732286},{"duration":0.011627906976741542,"midi":45,"time":186.45348837209303,"velocity":0.6062992125984252},{"duration":0.023255813953483084,"midi":62,"time":186.45348837209303,"velocity":0.28346456692913385},{"duration":0.0813953488371908,"midi":73,"time":186.45348837209303,"velocity":0.29133858267716534},{"duration":0.011627906976741542,"midi":44,"time":186.46511627906978,"velocity":0.6220472440944882},{"duration":0.034883720930224626,"midi":65,"time":186.46511627906978,"velocity":0.13385826771653545},{"duration":0.011627906976741542,"midi":43,"time":186.47674418604652,"velocity":0.5905511811023622},{"duration":0.023255813953483084,"midi":61,"time":186.47674418604652,"velocity":0.31496062992125984},{"duration":0.011627906976741542,"midi":42,"time":186.48837209302326,"velocity":0.5590551181102362},{"duration":0.011627906976741542,"midi":41,"time":186.5,"velocity":0.5118110236220472},{"duration":0.17441860465115155,"midi":77,"time":186.51162790697674,"velocity":0.33858267716535434},{"duration":0.43023255813955075,"midi":80,"time":186.51162790697674,"velocity":0.2992125984251969},{"duration":0.034883720930224626,"midi":55,"time":186.52325581395348,"velocity":0.1968503937007874},{"duration":0.023255813953483084,"midi":37,"time":186.53488372093022,"velocity":0.41732283464566927},{"duration":0.12790697674418539,"midi":61,"time":186.53488372093022,"velocity":0.3937007874015748},{"duration":0.03488372093025305,"midi":65,"time":186.53488372093022,"velocity":0.28346456692913385},{"duration":0.16279069767443843,"midi":68,"time":186.53488372093022,"velocity":0.30708661417322836},{"duration":0.03488372093025305,"midi":72,"time":186.53488372093022,"velocity":0.2677165354330709},{"duration":0.16279069767443843,"midi":75,"time":186.53488372093022,"velocity":0.2677165354330709},{"duration":0.03488372093025305,"midi":36,"time":186.5581395348837,"velocity":0.33858267716535434},{"duration":0.03488372093025305,"midi":56,"time":186.5581395348837,"velocity":0.14960629921259844},{"duration":0.26744186046514073,"midi":73,"time":186.5581395348837,"velocity":0.4881889763779528},{"duration":0.0813953488371908,"midi":95,"time":186.58139534883722,"velocity":0.1889763779527559},{"duration":0.04651162790699459,"midi":56,"time":186.6627906976744,"velocity":0.30708661417322836},{"duration":0.04651162790699459,"midi":62,"time":186.6627906976744,"velocity":0.33858267716535434},{"duration":0.023255813953511506,"midi":50,"time":186.6860465116279,"velocity":0.30708661417322836},{"duration":0.03488372093025305,"midi":71,"time":186.6860465116279,"velocity":0.18110236220472442},{"duration":0.03488372093025305,"midi":84,"time":186.6860465116279,"velocity":0.15748031496062992},{"duration":0.04651162790699459,"midi":86,"time":186.6860465116279,"velocity":0.1968503937007874},{"duration":0.04651162790699459,"midi":100,"time":186.6860465116279,"velocity":0.10236220472440945},{"duration":0.05813953488373613,"midi":102,"time":186.6860465116279,"velocity":0.10236220472440945},{"duration":0.17441860465115155,"midi":77,"time":186.69767441860466,"velocity":0.3228346456692913},{"duration":0.04651162790696617,"midi":88,"time":186.69767441860466,"velocity":0.14960629921259844},{"duration":0.034883720930224626,"midi":91,"time":186.69767441860466,"velocity":0.12598425196850394},{"duration":0.04651162790696617,"midi":51,"time":186.7093023255814,"velocity":0.2992125984251969},{"duration":0.24418604651162923,"midi":68,"time":186.7093023255814,"velocity":0.4330708661417323},{"duration":0.034883720930224626,"midi":81,"time":186.7093023255814,"velocity":0.11023622047244094},{"duration":0.023255813953483084,"midi":56,"time":186.72093023255815,"velocity":0.4330708661417323},{"duration":0.04651162790696617,"midi":65,"time":186.72093023255815,"velocity":0.29133858267716534},{"duration":0.04651162790696617,"midi":75,"time":186.72093023255815,"velocity":0.2204724409448819},{"duration":0.08139534883721922,"midi":44,"time":186.7325581395349,"velocity":0.29133858267716534},{"duration":0.023255813953483084,"midi":35,"time":186.74418604651163,"velocity":0.28346456692913385},{"duration":0.04651162790696617,"midi":96,"time":186.74418604651163,"velocity":0.13385826771653545},{"duration":0.09302325581396076,"midi":61,"time":186.75581395348837,"velocity":0.4015748031496063},{"duration":0.023255813953483084,"midi":33,"time":186.7674418604651,"velocity":0.2992125984251969},{"duration":0.023255813953483084,"midi":66,"time":186.7674418604651,"velocity":0.31496062992125984},{"duration":0.03488372093025305,"midi":75,"time":186.77906976744185,"velocity":0.12598425196850394},{"duration":0.08139534883721922,"midi":32,"time":186.7906976744186,"velocity":0.31496062992125984},{"duration":0.023255813953511506,"midi":52,"time":186.7906976744186,"velocity":0.31496062992125984},{"duration":0.09302325581396076,"midi":84,"time":186.7906976744186,"velocity":0.16535433070866143},{"duration":0.034883720930224626,"midi":51,"time":186.8139534883721,"velocity":0.29133858267716534},{"duration":0.023255813953483084,"midi":57,"time":186.8139534883721,"velocity":0.33070866141732286},{"duration":0.12790697674418539,"midi":65,"time":186.8139534883721,"velocity":0.2992125984251969},{"duration":0.0813953488371908,"midi":87,"time":186.8139534883721,"velocity":0.2047244094488189},{"duration":0.0813953488371908,"midi":72,"time":186.82558139534885,"velocity":0.2440944881889764},{"duration":0.0813953488371908,"midi":99,"time":186.82558139534885,"velocity":0.2047244094488189},{"duration":0.034883720930224626,"midi":103,"time":186.82558139534885,"velocity":0.10236220472440945},{"duration":0.023255813953483084,"midi":58,"time":186.8372093023256,"velocity":0.3937007874015748},{"duration":0.0813953488371908,"midi":85,"time":186.8372093023256,"velocity":0.10236220472440945},{"duration":0.034883720930224626,"midi":98,"time":186.8372093023256,"velocity":0.12598425196850394},{"duration":0.034883720930224626,"midi":102,"time":186.8372093023256,"velocity":0.09448818897637795},{"duration":0.2093023255814046,"midi":61,"time":186.86046511627907,"velocity":0.4330708661417323},{"duration":0.023255813953483084,"midi":53,"time":186.8953488372093,"velocity":0.31496062992125984},{"duration":0.03488372093025305,"midi":51,"time":186.91860465116278,"velocity":0.2755905511811024},{"duration":0.023255813953483084,"midi":56,"time":186.9418604651163,"velocity":0.3937007874015748},{"duration":0.023255813953483084,"midi":74,"time":186.9418604651163,"velocity":0.28346456692913385},{"duration":0.12790697674418539,"midi":89,"time":186.9418604651163,"velocity":0.31496062992125984},{"duration":0.0813953488371908,"midi":93,"time":186.9418604651163,"velocity":0.2204724409448819},{"duration":0.0813953488371908,"midi":95,"time":186.9418604651163,"velocity":0.2047244094488189},{"duration":0.06976744186044925,"midi":97,"time":186.9418604651163,"velocity":0.2755905511811024},{"duration":0.10465116279067388,"midi":98,"time":186.9418604651163,"velocity":0.16535433070866143},{"duration":0.11627906976741542,"midi":99,"time":186.9418604651163,"velocity":0.2440944881889764},{"duration":0.5232558139534831,"midi":102,"time":186.9418604651163,"velocity":0.28346456692913385},{"duration":0.034883720930224626,"midi":71,"time":186.95348837209303,"velocity":0.2992125984251969},{"duration":0.034883720930224626,"midi":79,"time":186.95348837209303,"velocity":0.2755905511811024},{"duration":0.12790697674418539,"midi":80,"time":186.95348837209303,"velocity":0.23622047244094488},{"duration":0.034883720930224626,"midi":88,"time":186.95348837209303,"velocity":0.2677165354330709},{"duration":0.20930232558137618,"midi":90,"time":186.95348837209303,"velocity":0.31496062992125984},{"duration":0.09302325581393234,"midi":94,"time":186.95348837209303,"velocity":0.23622047244094488},{"duration":0.05813953488370771,"midi":68,"time":186.96511627906978,"velocity":0.33070866141732286},{"duration":0.034883720930224626,"midi":75,"time":186.96511627906978,"velocity":0.2677165354330709},{"duration":0.023255813953483084,"midi":91,"time":186.96511627906978,"velocity":0.30708661417322836},{"duration":0.2325581395348877,"midi":92,"time":186.96511627906978,"velocity":0.2677165354330709},{"duration":0.034883720930224626,"midi":96,"time":186.96511627906978,"velocity":0.18110236220472442},{"duration":0.011627906976741542,"midi":47,"time":186.97674418604652,"velocity":0.5275590551181102},{"duration":0.05813953488370771,"midi":82,"time":186.97674418604652,"velocity":0.2047244094488189},{"duration":0.011627906976741542,"midi":45,"time":186.98837209302326,"velocity":0.5826771653543307},{"duration":0.16279069767441,"midi":87,"time":186.98837209302326,"velocity":0.2992125984251969},{"duration":0.011627906976741542,"midi":44,"time":187,"velocity":0.5748031496062992},{"duration":0.04651162790696617,"midi":65,"time":187,"velocity":0.2125984251968504},{"duration":0.023255813953483084,"midi":76,"time":187,"velocity":0.3464566929133858},{"duration":0.023255813953483084,"midi":42,"time":187.01162790697674,"velocity":0.5748031496062992},{"duration":0.023255813953483084,"midi":56,"time":187.01162790697674,"velocity":0.3700787401574803},{"duration":0.08139534883721922,"midi":70,"time":187.02325581395348,"velocity":0.3464566929133858},{"duration":0.05813953488373613,"midi":75,"time":187.02325581395348,"velocity":0.3543307086614173},{"duration":0.04651162790699459,"midi":68,"time":187.03488372093022,"velocity":0.3543307086614173},{"duration":0.03488372093025305,"midi":84,"time":187.03488372093022,"velocity":0.14173228346456693},{"duration":0.04651162790699459,"midi":88,"time":187.04651162790697,"velocity":0.2204724409448819},{"duration":0.25581395348837077,"midi":97,"time":187.04651162790697,"velocity":0.29133858267716534},{"duration":0.08139534883721922,"midi":96,"time":187.0581395348837,"velocity":0.14173228346456693},{"duration":0.08139534883721922,"midi":98,"time":187.0581395348837,"velocity":0.23622047244094488},{"duration":0.06976744186044925,"midi":86,"time":187.06976744186048,"velocity":0.31496062992125984},{"duration":0.023255813953483084,"midi":56,"time":187.08139534883722,"velocity":0.3543307086614173},{"duration":0.05813953488370771,"midi":78,"time":187.08139534883722,"velocity":0.23622047244094488},{"duration":0.11627906976744384,"midi":95,"time":187.08139534883722,"velocity":0.2047244094488189},{"duration":0.023255813953483084,"midi":47,"time":187.09302325581396,"velocity":0.29133858267716534},{"duration":0.04651162790696617,"midi":74,"time":187.09302325581396,"velocity":0.2125984251968504},{"duration":0.05813953488370771,"midi":80,"time":187.09302325581396,"velocity":0.14960629921259844},{"duration":0.04651162790696617,"midi":81,"time":187.09302325581396,"velocity":0.25984251968503935},{"duration":0.034883720930224626,"midi":83,"time":187.09302325581396,"velocity":0.2755905511811024},{"duration":0.06976744186044925,"midi":89,"time":187.09302325581396,"velocity":0.23622047244094488},{"duration":0.09302325581396076,"midi":51,"time":187.1046511627907,"velocity":0.33858267716535434},{"duration":0.034883720930224626,"midi":60,"time":187.1046511627907,"velocity":0.33858267716535434},{"duration":0.023255813953483084,"midi":71,"time":187.1046511627907,"velocity":0.31496062992125984},{"duration":0.1046511627907023,"midi":75,"time":187.1046511627907,"velocity":0.25196850393700787},{"duration":0.12790697674418539,"midi":44,"time":187.11627906976744,"velocity":0.33070866141732286},{"duration":0.05813953488370771,"midi":56,"time":187.11627906976744,"velocity":0.3543307086614173},{"duration":0.08139534883721922,"midi":70,"time":187.12790697674419,"velocity":0.4251968503937008},{"duration":0.09302325581396076,"midi":66,"time":187.13953488372093,"velocity":0.29133858267716534},{"duration":0.023255813953483084,"midi":77,"time":187.13953488372093,"velocity":0.2283464566929134},{"duration":0.023255813953483084,"midi":86,"time":187.15116279069767,"velocity":0.2283464566929134},{"duration":0.1046511627907023,"midi":96,"time":187.15116279069767,"velocity":0.14173228346456693},{"duration":0.09302325581396076,"midi":100,"time":187.15116279069767,"velocity":0.14960629921259844},{"duration":0.023255813953483084,"midi":33,"time":187.1627906976744,"velocity":0.29133858267716534},{"duration":0.023255813953483084,"midi":60,"time":187.1627906976744,"velocity":0.2283464566929134},{"duration":0.1511627906976969,"midi":85,"time":187.1627906976744,"velocity":0.5196850393700787},{"duration":0.03488372093025305,"midi":68,"time":187.17441860465115,"velocity":0.25984251968503935},{"duration":0.09302325581396076,"midi":32,"time":187.1860465116279,"velocity":0.31496062992125984},{"duration":0.05813953488373613,"midi":73,"time":187.1860465116279,"velocity":0.36220472440944884},{"duration":0.08139534883721922,"midi":90,"time":187.1860465116279,"velocity":0.13385826771653545},{"duration":0.1046511627907023,"midi":56,"time":187.2093023255814,"velocity":0.4330708661417323},{"duration":0.20930232558137618,"midi":89,"time":187.2093023255814,"velocity":0.28346456692913385},{"duration":0.0813953488371908,"midi":80,"time":187.22093023255815,"velocity":0.23622047244094488},{"duration":0.05813953488370771,"midi":82,"time":187.2325581395349,"velocity":0.10236220472440945},{"duration":0.09302325581396076,"midi":99,"time":187.2325581395349,"velocity":0.2047244094488189},{"duration":0.2093023255814046,"midi":101,"time":187.2325581395349,"velocity":0.3464566929133858},{"duration":0.05813953488370771,"midi":61,"time":187.24418604651163,"velocity":0.25196850393700787},{"duration":0.034883720930224626,"midi":70,"time":187.24418604651163,"velocity":0.2047244094488189},{"duration":0.04651162790696617,"midi":95,"time":187.24418604651163,"velocity":0.10236220472440945},{"duration":0.15116279069766847,"midi":103,"time":187.24418604651163,"velocity":0.2047244094488189},{"duration":0.04651162790696617,"midi":73,"time":187.25581395348837,"velocity":0.3779527559055118},{"duration":0.034883720930224626,"midi":94,"time":187.2674418604651,"velocity":0.11811023622047244},{"duration":0.13953488372092693,"midi":100,"time":187.27906976744185,"velocity":0.36220472440944884},{"duration":0.04651162790699459,"midi":96,"time":187.2906976744186,"velocity":0.1889763779527559},{"duration":0.023255813953511506,"midi":60,"time":187.30232558139534,"velocity":0.33070866141732286},{"duration":0.03488372093025305,"midi":72,"time":187.30232558139534,"velocity":0.36220472440944884},{"duration":0.034883720930224626,"midi":87,"time":187.3139534883721,"velocity":0.18110236220472442},{"duration":0.023255813953483084,"midi":59,"time":187.32558139534885,"velocity":0.4015748031496063},{"duration":0.034883720930224626,"midi":65,"time":187.32558139534885,"velocity":0.25196850393700787},{"duration":0.06976744186044925,"midi":70,"time":187.32558139534885,"velocity":0.3937007874015748},{"duration":0.06976744186044925,"midi":85,"time":187.32558139534885,"velocity":0.30708661417322836},{"duration":0.16279069767441,"midi":92,"time":187.32558139534885,"velocity":0.2677165354330709},{"duration":0.034883720930224626,"midi":78,"time":187.3372093023256,"velocity":0.2204724409448819},{"duration":0.05813953488370771,"midi":86,"time":187.34883720930233,"velocity":0.28346456692913385},{"duration":0.0813953488371908,"midi":88,"time":187.34883720930233,"velocity":0.1968503937007874},{"duration":0.05813953488370771,"midi":91,"time":187.34883720930233,"velocity":0.14960629921259844},{"duration":0.7674418604651123,"midi":96,"time":187.34883720930233,"velocity":0.4330708661417323},{"duration":0.13953488372092693,"midi":56,"time":187.36046511627907,"velocity":0.44881889763779526},{"duration":0.12790697674418539,"midi":73,"time":187.36046511627907,"velocity":0.31496062992125984},{"duration":0.05813953488370771,"midi":61,"time":187.37209302325581,"velocity":0.3937007874015748},{"duration":0.034883720930224626,"midi":66,"time":187.37209302325581,"velocity":0.3228346456692913},{"duration":0.1046511627907023,"midi":80,"time":187.37209302325581,"velocity":0.18110236220472442},{"duration":0.04651162790696617,"midi":83,"time":187.37209302325581,"velocity":0.2125984251968504},{"duration":0.023255813953483084,"midi":71,"time":187.38372093023256,"velocity":0.31496062992125984},{"duration":0.034883720930224626,"midi":75,"time":187.38372093023256,"velocity":0.12598425196850394},{"duration":0.034883720930224626,"midi":77,"time":187.38372093023256,"velocity":0.16535433070866143},{"duration":0.04651162790696617,"midi":84,"time":187.38372093023256,"velocity":0.09448818897637795},{"duration":0.1046511627907023,"midi":95,"time":187.38372093023256,"velocity":0.2677165354330709},{"duration":0.04651162790699459,"midi":49,"time":187.3953488372093,"velocity":0.2440944881889764},{"duration":0.034883720930224626,"midi":87,"time":187.3953488372093,"velocity":0.13385826771653545},{"duration":0.04651162790699459,"midi":37,"time":187.40697674418604,"velocity":0.3228346456692913},{"duration":0.023255813953483084,"midi":70,"time":187.40697674418604,"velocity":0.2677165354330709},{"duration":0.05813953488373613,"midi":65,"time":187.41860465116278,"velocity":0.23622047244094488},{"duration":0.023255813953511506,"midi":60,"time":187.43023255813952,"velocity":0.4409448818897638},{"duration":0.10465116279067388,"midi":70,"time":187.4418604651163,"velocity":0.23622047244094488},{"duration":0.023255813953483084,"midi":75,"time":187.46511627906978,"velocity":0.31496062992125984},{"duration":0.24418604651162923,"midi":101,"time":187.46511627906978,"velocity":0.2677165354330709},{"duration":0.25581395348837077,"midi":103,"time":187.46511627906978,"velocity":0.29133858267716534},{"duration":0.034883720930224626,"midi":61,"time":187.47674418604652,"velocity":0.3700787401574803},{"duration":0.04651162790696617,"midi":81,"time":187.47674418604652,"velocity":0.31496062992125984},{"duration":0.13953488372092693,"midi":84,"time":187.47674418604652,"velocity":0.25984251968503935},{"duration":0.034883720930224626,"midi":88,"time":187.47674418604652,"velocity":0.25984251968503935},{"duration":0.034883720930224626,"midi":90,"time":187.47674418604652,"velocity":0.1889763779527559},{"duration":0.40697674418603924,"midi":93,"time":187.47674418604652,"velocity":0.33070866141732286},{"duration":0.05813953488370771,"midi":94,"time":187.47674418604652,"velocity":0.1968503937007874},{"duration":0.04651162790696617,"midi":98,"time":187.47674418604652,"velocity":0.15748031496062992},{"duration":0.12790697674418539,"midi":102,"time":187.47674418604652,"velocity":0.28346456692913385},{"duration":0.023255813953483084,"midi":74,"time":187.48837209302326,"velocity":0.25196850393700787},{"duration":0.1860465116278931,"midi":82,"time":187.48837209302326,"velocity":0.30708661417322836},{"duration":0.2674418604651123,"midi":99,"time":187.48837209302326,"velocity":0.2677165354330709},{"duration":0.023255813953483084,"midi":64,"time":187.5,"velocity":0.2755905511811024},{"duration":0.2674418604651123,"midi":77,"time":187.5,"velocity":0.4566929133858268},{"duration":0.011627906976741542,"midi":45,"time":187.51162790697674,"velocity":0.5826771653543307},{"duration":0.04651162790696617,"midi":80,"time":187.51162790697674,"velocity":0.2047244094488189},{"duration":0.04651162790696617,"midi":95,"time":187.51162790697674,"velocity":0.16535433070866143},{"duration":0.023255813953483084,"midi":44,"time":187.52325581395348,"velocity":0.6062992125984252},{"duration":0.023255813953483084,"midi":58,"time":187.52325581395348,"velocity":0.28346456692913385},{"duration":0.023255813953483084,"midi":65,"time":187.52325581395348,"velocity":0.2992125984251969},{"duration":0.12790697674418539,"midi":73,"time":187.53488372093022,"velocity":0.33858267716535434},{"duration":0.03488372093025305,"midi":86,"time":187.54651162790697,"velocity":0.14960629921259844},{"duration":0.03488372093025305,"midi":58,"time":187.5581395348837,"velocity":0.2283464566929134},{"duration":0.12790697674418539,"midi":67,"time":187.5581395348837,"velocity":0.44881889763779526},{"duration":0.023255813953511506,"midi":70,"time":187.5581395348837,"velocity":0.2992125984251969},{"duration":0.08139534883721922,"midi":98,"time":187.5581395348837,"velocity":0.16535433070866143},{"duration":0.03488372093025305,"midi":100,"time":187.5581395348837,"velocity":0.12598425196850394},{"duration":0.10465116279067388,"midi":80,"time":187.56976744186048,"velocity":0.2204724409448819},{"duration":0.13953488372092693,"midi":95,"time":187.56976744186048,"velocity":0.2283464566929134},{"duration":0.034883720930224626,"midi":83,"time":187.59302325581396,"velocity":0.10236220472440945},{"duration":0.04651162790696617,"midi":70,"time":187.6046511627907,"velocity":0.16535433070866143},{"duration":0.034883720930224626,"midi":36,"time":187.61627906976744,"velocity":0.2992125984251969},{"duration":0.023255813953483084,"midi":60,"time":187.61627906976744,"velocity":0.3228346456692913},{"duration":0.034883720930224626,"midi":78,"time":187.61627906976744,"velocity":0.15748031496062992},{"duration":0.034883720930224626,"midi":65,"time":187.63953488372093,"velocity":0.2755905511811024},{"duration":0.05813953488373613,"midi":102,"time":187.63953488372093,"velocity":0.14960629921259844},{"duration":0.04651162790699459,"midi":84,"time":187.65116279069767,"velocity":0.2125984251968504},{"duration":0.04651162790699459,"midi":72,"time":187.6627906976744,"velocity":0.33070866141732286},{"duration":0.08139534883721922,"midi":58,"time":187.67441860465115,"velocity":0.25196850393700787},{"duration":0.03488372093025305,"midi":64,"time":187.67441860465115,"velocity":0.2047244094488189},{"duration":0.09302325581396076,"midi":68,"time":187.6860465116279,"velocity":0.4330708661417323},{"duration":0.1279069767442138,"midi":82,"time":187.6860465116279,"velocity":0.2283464566929134},{"duration":0.05813953488370771,"midi":65,"time":187.7093023255814,"velocity":0.3779527559055118},{"duration":0.15116279069766847,"midi":73,"time":187.7093023255814,"velocity":0.2755905511811024},{"duration":0.08139534883721922,"midi":84,"time":187.7325581395349,"velocity":0.2204724409448819},{"duration":0.034883720930224626,"midi":81,"time":187.75581395348837,"velocity":0.18110236220472442},{"duration":0.034883720930224626,"midi":92,"time":187.75581395348837,"velocity":0.10236220472440945},{"duration":0.023255813953483084,"midi":55,"time":187.77906976744185,"velocity":0.2283464566929134},{"duration":0.04651162790699459,"midi":67,"time":187.77906976744185,"velocity":0.4251968503937008},{"duration":0.38372093023255616,"midi":77,"time":187.77906976744185,"velocity":0.3700787401574803},{"duration":0.05813953488373613,"midi":95,"time":187.7906976744186,"velocity":0.10236220472440945},{"duration":0.06976744186044925,"midi":61,"time":187.8139534883721,"velocity":0.29133858267716534},{"duration":0.05813953488370771,"midi":65,"time":187.8139534883721,"velocity":0.3543307086614173},{"duration":0.04651162790696617,"midi":68,"time":187.82558139534885,"velocity":0.4566929133858268},{"duration":0.13953488372092693,"midi":99,"time":187.82558139534885,"velocity":0.15748031496062992},{"duration":0.11627906976744384,"midi":100,"time":187.82558139534885,"velocity":0.23622047244094488},{"duration":0.16279069767441,"midi":102,"time":187.82558139534885,"velocity":0.2992125984251969},{"duration":0.04651162790696617,"midi":70,"time":187.8372093023256,"velocity":0.36220472440944884},{"duration":0.04651162790696617,"midi":97,"time":187.8372093023256,"velocity":0.1732283464566929},{"duration":0.20930232558137618,"midi":103,"time":187.8372093023256,"velocity":0.29133858267716534},{"duration":0.06976744186044925,"midi":74,"time":187.86046511627907,"velocity":0.3779527559055118},{"duration":0.04651162790696617,"midi":81,"time":187.87209302325581,"velocity":0.13385826771653545},{"duration":0.05813953488370771,"midi":84,"time":187.87209302325581,"velocity":0.1968503937007874},{"duration":0.034883720930224626,"midi":68,"time":187.88372093023256,"velocity":0.3779527559055118},{"duration":0.023255813953483084,"midi":71,"time":187.88372093023256,"velocity":0.29133858267716534},{"duration":0.034883720930224626,"midi":88,"time":187.88372093023256,"velocity":0.14173228346456693},{"duration":0.05813953488373613,"midi":95,"time":187.88372093023256,"velocity":0.2047244094488189},{"duration":0.05813953488373613,"midi":98,"time":187.88372093023256,"velocity":0.3228346456692913},{"duration":0.24418604651162923,"midi":65,"time":187.8953488372093,"velocity":0.5590551181102362},{"duration":0.25581395348837077,"midi":97,"time":187.8953488372093,"velocity":0.1968503937007874},{"duration":0.05813953488373613,"midi":70,"time":187.90697674418604,"velocity":0.3464566929133858},{"duration":0.06976744186047767,"midi":85,"time":187.90697674418604,"velocity":0.25984251968503935},{"duration":0.2093023255814046,"midi":93,"time":187.90697674418604,"velocity":0.2283464566929134},{"duration":0.03488372093025305,"midi":37,"time":187.91860465116278,"velocity":0.31496062992125984},{"duration":0.05813953488373613,"midi":73,"time":187.91860465116278,"velocity":0.31496062992125984},{"duration":0.06976744186047767,"midi":92,"time":187.91860465116278,"velocity":0.14960629921259844},{"duration":0.06976744186047767,"midi":61,"time":187.93023255813952,"velocity":0.2204724409448819},{"duration":0.06976744186044925,"midi":80,"time":187.96511627906978,"velocity":0.1889763779527559},{"duration":0.05813953488370771,"midi":84,"time":187.96511627906978,"velocity":0.14173228346456693},{"duration":0.04651162790696617,"midi":68,"time":187.97674418604652,"velocity":0.4330708661417323},{"duration":0.023255813953483084,"midi":55,"time":188,"velocity":0.4251968503937008},{"duration":0.08139534883721922,"midi":73,"time":188,"velocity":0.28346456692913385},{"duration":0.17441860465115155,"midi":88,"time":188,"velocity":0.2047244094488189},{"duration":0.08139534883721922,"midi":92,"time":188,"velocity":0.25196850393700787},{"duration":0.06976744186047767,"midi":95,"time":188,"velocity":0.1889763779527559},{"duration":0.08139534883721922,"midi":102,"time":188,"velocity":0.2283464566929134},{"duration":0.034883720930224626,"midi":79,"time":188.01162790697674,"velocity":0.16535433070866143},{"duration":0.034883720930224626,"midi":86,"time":188.01162790697674,"velocity":0.1889763779527559},{"duration":0.06976744186047767,"midi":90,"time":188.01162790697674,"velocity":0.2677165354330709},{"duration":0.06976744186047767,"midi":99,"time":188.01162790697674,"velocity":0.09448818897637795},{"duration":0.034883720930224626,"midi":45,"time":188.02325581395348,"velocity":0.5905511811023622},{"duration":0.05813953488373613,"midi":91,"time":188.02325581395348,"velocity":0.1889763779527559},{"duration":0.023255813953483084,"midi":68,"time":188.03488372093022,"velocity":0.30708661417322836},{"duration":0.13953488372092693,"midi":84,"time":188.03488372093022,"velocity":0.1732283464566929},{"duration":0.011627906976769964,"midi":44,"time":188.0581395348837,"velocity":0.5669291338582677},{"duration":0.09302325581396076,"midi":80,"time":188.0581395348837,"velocity":0.2125984251968504},{"duration":0.023255813953483084,"midi":42,"time":188.06976744186048,"velocity":0.5590551181102362},{"duration":0.023255813953483084,"midi":68,"time":188.06976744186048,"velocity":0.3700787401574803},{"duration":0.19767441860463464,"midi":73,"time":188.09302325581396,"velocity":0.36220472440944884},{"duration":0.023255813953483084,"midi":70,"time":188.1046511627907,"velocity":0.2677165354330709},{"duration":0.023255813953483084,"midi":69,"time":188.11627906976744,"velocity":0.30708661417322836},{"duration":0.06976744186044925,"midi":87,"time":188.11627906976744,"velocity":0.13385826771653545},{"duration":0.023255813953483084,"midi":36,"time":188.13953488372093,"velocity":0.33858267716535434},{"duration":0.034883720930224626,"midi":66,"time":188.13953488372093,"velocity":0.3858267716535433},{"duration":0.16279069767441,"midi":68,"time":188.13953488372093,"velocity":0.3858267716535433},{"duration":0.04651162790696617,"midi":81,"time":188.13953488372093,"velocity":0.1968503937007874},{"duration":0.034883720930224626,"midi":60,"time":188.15116279069767,"velocity":0.25196850393700787},{"duration":0.04651162790699459,"midi":55,"time":188.1627906976744,"velocity":0.28346456692913385},{"duration":0.1046511627907023,"midi":48,"time":188.17441860465115,"velocity":0.28346456692913385},{"duration":0.1046511627907023,"midi":65,"time":188.17441860465115,"velocity":0.3858267716535433},{"duration":0.22093023255814614,"midi":97,"time":188.17441860465115,"velocity":0.2992125984251969},{"duration":0.023255813953511506,"midi":61,"time":188.1860465116279,"velocity":0.23622047244094488},{"duration":0.034883720930224626,"midi":70,"time":188.19767441860466,"velocity":0.2047244094488189},{"duration":0.04651162790696617,"midi":87,"time":188.19767441860466,"velocity":0.25196850393700787},{"duration":0.06976744186044925,"midi":36,"time":188.2093023255814,"velocity":0.3464566929133858},{"duration":0.04651162790696617,"midi":55,"time":188.22093023255815,"velocity":0.25196850393700787},{"duration":0.034883720930224626,"midi":61,"time":188.2325581395349,"velocity":0.2440944881889764},{"duration":0.04651162790696617,"midi":70,"time":188.24418604651163,"velocity":0.25196850393700787},{"duration":0.034883720930224626,"midi":82,"time":188.24418604651163,"velocity":0.3779527559055118},{"duration":0.023255813953483084,"midi":83,"time":188.24418604651163,"velocity":0.25196850393700787},{"duration":0.16279069767441,"midi":90,"time":188.24418604651163,"velocity":0.30708661417322836},{"duration":0.034883720930224626,"midi":76,"time":188.25581395348837,"velocity":0.2125984251968504},{"duration":0.034883720930224626,"midi":84,"time":188.25581395348837,"velocity":0.3228346456692913},{"duration":0.12790697674418539,"midi":91,"time":188.25581395348837,"velocity":0.29133858267716534},{"duration":0.25581395348837077,"midi":92,"time":188.25581395348837,"velocity":0.33858267716535434},{"duration":0.023255813953483084,"midi":62,"time":188.2674418604651,"velocity":0.41732283464566927},{"duration":0.08139534883721922,"midi":88,"time":188.2674418604651,"velocity":0.29133858267716534},{"duration":0.08139534883721922,"midi":93,"time":188.2674418604651,"velocity":0.16535433070866143},{"duration":0.09302325581396076,"midi":95,"time":188.2674418604651,"velocity":0.2440944881889764},{"duration":0.06976744186047767,"midi":75,"time":188.27906976744185,"velocity":0.5039370078740157},{"duration":0.06976744186047767,"midi":81,"time":188.27906976744185,"velocity":0.3937007874015748},{"duration":0.05813953488373613,"midi":83,"time":188.27906976744185,"velocity":0.47244094488188976},{"duration":0.05813953488373613,"midi":53,"time":188.2906976744186,"velocity":0.25196850393700787},{"duration":0.023255813953511506,"midi":72,"time":188.2906976744186,"velocity":0.25196850393700787},{"duration":0.03488372093025305,"midi":85,"time":188.2906976744186,"velocity":0.28346456692913385},{"duration":0.03488372093025305,"midi":101,"time":188.2906976744186,"velocity":0.10236220472440945},{"duration":0.18604651162792152,"midi":63,"time":188.30232558139534,"velocity":0.3779527559055118},{"duration":0.023255813953511506,"midi":69,"time":188.30232558139534,"velocity":0.23622047244094488},{"duration":0.17441860465115155,"midi":80,"time":188.3139534883721,"velocity":0.3464566929133858},{"duration":0.0813953488371908,"midi":82,"time":188.3139534883721,"velocity":0.3700787401574803},{"duration":0.33720930232556157,"midi":84,"time":188.3139534883721,"velocity":0.4015748031496063},{"duration":0.034883720930224626,"midi":70,"time":188.32558139534885,"velocity":0.2204724409448819},{"duration":0.09302325581393234,"midi":72,"time":188.32558139534885,"velocity":0.15748031496062992},{"duration":0.11627906976744384,"midi":46,"time":188.3372093023256,"velocity":0.2283464566929134},{"duration":0.1046511627907023,"midi":34,"time":188.34883720930233,"velocity":0.28346456692913385},{"duration":0.023255813953483084,"midi":55,"time":188.34883720930233,"velocity":0.29133858267716534},{"duration":0.5,"midi":68,"time":188.34883720930233,"velocity":0.41732283464566927},{"duration":0.023255813953483084,"midi":76,"time":188.34883720930233,"velocity":0.29133858267716534},{"duration":0.023255813953483084,"midi":86,"time":188.38372093023256,"velocity":0.4251968503937008},{"duration":0.034883720930224626,"midi":93,"time":188.38372093023256,"velocity":0.2755905511811024},{"duration":0.034883720930224626,"midi":83,"time":188.3953488372093,"velocity":0.23622047244094488},{"duration":0.023255813953483084,"midi":91,"time":188.3953488372093,"velocity":0.2755905511811024},{"duration":0.08139534883721922,"midi":82,"time":188.40697674418604,"velocity":0.5196850393700787},{"duration":0.03488372093025305,"midi":88,"time":188.40697674418604,"velocity":0.2755905511811024},{"duration":0.023255813953511506,"midi":57,"time":188.41860465116278,"velocity":0.2283464566929134},{"duration":0.04651162790699459,"midi":70,"time":188.41860465116278,"velocity":0.14173228346456693},{"duration":0.12790697674418539,"midi":91,"time":188.43023255813952,"velocity":0.33858267716535434},{"duration":0.10465116279067388,"midi":56,"time":188.4418604651163,"velocity":0.1968503937007874},{"duration":0.15116279069766847,"midi":97,"time":188.4418604651163,"velocity":0.2283464566929134},{"duration":0.04651162790696617,"midi":88,"time":188.45348837209303,"velocity":0.2440944881889764},{"duration":0.04651162790696617,"midi":72,"time":188.46511627906978,"velocity":0.2047244094488189},{"duration":0.04651162790696617,"midi":76,"time":188.46511627906978,"velocity":0.4330708661417323},{"duration":0.1046511627907023,"midi":102,"time":188.46511627906978,"velocity":0.13385826771653545},{"duration":0.04651162790696617,"midi":81,"time":188.47674418604652,"velocity":0.2992125984251969},{"duration":0.0813953488371908,"midi":95,"time":188.47674418604652,"velocity":0.1732283464566929},{"duration":0.034883720930224626,"midi":79,"time":188.48837209302326,"velocity":0.11023622047244094},{"duration":0.30232558139533694,"midi":63,"time":188.5,"velocity":0.28346456692913385},{"duration":0.15116279069766847,"midi":82,"time":188.5,"velocity":0.4881889763779528},{"duration":0.04651162790696617,"midi":75,"time":188.51162790697674,"velocity":0.4409448818897638},{"duration":0.06976744186047767,"midi":101,"time":188.51162790697674,"velocity":0.14960629921259844},{"duration":0.04651162790699459,"midi":86,"time":188.52325581395348,"velocity":0.1732283464566929},{"duration":0.08139534883721922,"midi":60,"time":188.53488372093022,"velocity":0.23622047244094488},{"duration":0.534883720930253,"midi":72,"time":188.53488372093022,"velocity":0.36220472440944884},{"duration":0.05813953488373613,"midi":78,"time":188.53488372093022,"velocity":0.2204724409448819},{"duration":0.023255813953483084,"midi":88,"time":188.53488372093022,"velocity":0.29133858267716534},{"duration":0.011627906976741542,"midi":46,"time":188.56976744186048,"velocity":0.5511811023622047},{"duration":0.1860465116278931,"midi":75,"time":188.56976744186048,"velocity":0.3543307086614173},{"duration":0.5,"midi":91,"time":188.56976744186048,"velocity":0.4566929133858268},{"duration":0.011627906976741542,"midi":44,"time":188.58139534883722,"velocity":0.5748031496062992},{"duration":0.023255813953483084,"midi":42,"time":188.59302325581396,"velocity":0.5669291338582677},{"duration":0.023255813953483084,"midi":51,"time":188.6046511627907,"velocity":0.2283464566929134},{"duration":0.1046511627907023,"midi":97,"time":188.61627906976744,"velocity":0.23622047244094488},{"duration":0.09302325581396076,"midi":101,"time":188.61627906976744,"velocity":0.12598425196850394},{"duration":0.06976744186047767,"midi":60,"time":188.62790697674419,"velocity":0.2125984251968504},{"duration":0.04651162790696617,"midi":81,"time":188.62790697674419,"velocity":0.4094488188976378},{"duration":0.023255813953483084,"midi":39,"time":188.63953488372093,"velocity":0.3543307086614173},{"duration":0.05813953488373613,"midi":92,"time":188.63953488372093,"velocity":0.11811023622047244},{"duration":0.023255813953483084,"midi":83,"time":188.65116279069767,"velocity":0.30708661417322836},{"duration":0.4186046511628092,"midi":82,"time":188.6627906976744,"velocity":0.44881889763779526},{"duration":0.023255813953511506,"midi":35,"time":188.67441860465115,"velocity":0.36220472440944884},{"duration":0.06976744186044925,"midi":56,"time":188.7093023255814,"velocity":0.1889763779527559},{"duration":0.04651162790696617,"midi":96,"time":188.7093023255814,"velocity":0.1732283464566929},{"duration":0.17441860465115155,"midi":60,"time":188.7325581395349,"velocity":0.2992125984251969},{"duration":0.1511627906976969,"midi":51,"time":188.80232558139534,"velocity":0.25984251968503935},{"duration":0.48837209302325846,"midi":75,"time":188.80232558139534,"velocity":0.4094488188976378},{"duration":0.03488372093025305,"midi":77,"time":188.80232558139534,"velocity":0.1968503937007874},{"duration":0.03488372093025305,"midi":86,"time":188.80232558139534,"velocity":0.1732283464566929},{"duration":0.05813953488373613,"midi":88,"time":188.80232558139534,"velocity":0.2047244094488189},{"duration":0.05813953488373613,"midi":95,"time":188.80232558139534,"velocity":0.11023622047244094},{"duration":0.034883720930224626,"midi":78,"time":188.8139534883721,"velocity":0.14173228346456693},{"duration":0.034883720930224626,"midi":66,"time":188.82558139534885,"velocity":0.13385826771653545},{"duration":0.023255813953483084,"midi":81,"time":188.8372093023256,"velocity":0.3228346456692913},{"duration":0.09302325581396076,"midi":44,"time":188.84883720930233,"velocity":0.29133858267716534},{"duration":0.05813953488370771,"midi":80,"time":188.84883720930233,"velocity":0.18110236220472442},{"duration":0.034883720930224626,"midi":68,"time":188.86046511627907,"velocity":0.33070866141732286},{"duration":0.1046511627907023,"midi":63,"time":188.87209302325581,"velocity":0.33858267716535434},{"duration":0.023255813953483084,"midi":33,"time":188.88372093023256,"velocity":0.29133858267716534},{"duration":0.023255813953483084,"midi":67,"time":188.8953488372093,"velocity":0.3228346456692913},{"duration":0.09302325581396076,"midi":32,"time":188.90697674418604,"velocity":0.2992125984251969},{"duration":0.1511627906976969,"midi":68,"time":188.91860465116278,"velocity":0.41732283464566927},{"duration":0.03488372093025305,"midi":57,"time":189.04651162790697,"velocity":0.4409448818897638},{"duration":0.03488372093025305,"midi":61,"time":189.04651162790697,"velocity":0.3937007874015748},{"duration":0.05813953488373613,"midi":86,"time":189.0581395348837,"velocity":0.14173228346456693},{"duration":0.08139534883721922,"midi":88,"time":189.0581395348837,"velocity":0.2755905511811024},{"duration":0.05813953488373613,"midi":95,"time":189.0581395348837,"velocity":0.2125984251968504},{"duration":0.08139534883721922,"midi":102,"time":189.0581395348837,"velocity":0.1732283464566929},{"duration":0.023255813953483084,"midi":67,"time":189.06976744186048,"velocity":0.3700787401574803},{"duration":0.16279069767441,"midi":89,"time":189.06976744186048,"velocity":0.2755905511811024},{"duration":0.05813953488370771,"midi":90,"time":189.06976744186048,"velocity":0.28346456692913385},{"duration":0.034883720930224626,"midi":93,"time":189.06976744186048,"velocity":0.2047244094488189},{"duration":0.12790697674418539,"midi":96,"time":189.06976744186048,"velocity":0.2125984251968504},{"duration":0.04651162790696617,"midi":98,"time":189.06976744186048,"velocity":0.18110236220472442},{"duration":0.011627906976741542,"midi":53,"time":189.08139534883722,"velocity":0.5196850393700787},{"duration":0.023255813953483084,"midi":62,"time":189.08139534883722,"velocity":0.2677165354330709},{"duration":0.12790697674418539,"midi":68,"time":189.08139534883722,"velocity":0.4251968503937008},{"duration":0.034883720930224626,"midi":83,"time":189.08139534883722,"velocity":0.23622047244094488},{"duration":0.09302325581393234,"midi":91,"time":189.08139534883722,"velocity":0.2283464566929134},{"duration":0.0813953488371908,"midi":97,"time":189.08139534883722,"velocity":0.25984251968503935},{"duration":0.023255813953483084,"midi":45,"time":189.09302325581396,"velocity":0.6062992125984252},{"duration":0.12790697674418539,"midi":82,"time":189.1046511627907,"velocity":0.1732283464566929},{"duration":0.011627906976741542,"midi":44,"time":189.11627906976744,"velocity":0.5905511811023622},{"duration":0.04651162790696617,"midi":84,"time":189.11627906976744,"velocity":0.2677165354330709},{"duration":0.023255813953483084,"midi":42,"time":189.12790697674419,"velocity":0.5590551181102362},{"duration":0.023255813953483084,"midi":51,"time":189.12790697674419,"velocity":0.28346456692913385},{"duration":0.04651162790696617,"midi":56,"time":189.12790697674419,"velocity":0.3464566929133858},{"duration":0.06976744186047767,"midi":85,"time":189.13953488372093,"velocity":0.15748031496062992},{"duration":0.023255813953483084,"midi":53,"time":189.1627906976744,"velocity":0.30708661417322836},{"duration":0.03488372093025305,"midi":88,"time":189.1627906976744,"velocity":0.18110236220472442},{"duration":0.023255813953483084,"midi":36,"time":189.19767441860466,"velocity":0.33858267716535434},{"duration":0.12790697674418539,"midi":63,"time":189.19767441860466,"velocity":0.1968503937007874},{"duration":0.034883720930224626,"midi":78,"time":189.19767441860466,"velocity":0.09448818897637795},{"duration":0.06976744186044925,"midi":97,"time":189.19767441860466,"velocity":0.1889763779527559},{"duration":0.034883720930224626,"midi":102,"time":189.19767441860466,"velocity":0.11023622047244094},{"duration":0.0813953488371908,"midi":70,"time":189.2093023255814,"velocity":0.4645669291338583},{"duration":0.034883720930224626,"midi":91,"time":189.2093023255814,"velocity":0.09448818897637795},{"duration":0.034883720930224626,"midi":83,"time":189.22093023255815,"velocity":0.2677165354330709},{"duration":0.034883720930224626,"midi":84,"time":189.24418604651163,"velocity":0.07874015748031496},{"duration":0.023255813953483084,"midi":59,"time":189.25581395348837,"velocity":0.30708661417322836},{"duration":0.05813953488373613,"midi":68,"time":189.25581395348837,"velocity":0.29133858267716534},{"duration":0.023255813953483084,"midi":57,"time":189.27906976744185,"velocity":0.36220472440944884},{"duration":0.06976744186047767,"midi":77,"time":189.27906976744185,"velocity":0.11811023622047244},{"duration":0.04651162790699459,"midi":72,"time":189.2906976744186,"velocity":0.3779527559055118},{"duration":0.06976744186047767,"midi":56,"time":189.30232558139534,"velocity":0.31496062992125984},{"duration":0.09302325581393234,"midi":87,"time":189.3139534883721,"velocity":0.2047244094488189},{"duration":0.04651162790696617,"midi":90,"time":189.3139534883721,"velocity":0.14960629921259844},{"duration":0.034883720930224626,"midi":96,"time":189.3139534883721,"velocity":0.09448818897637795},{"duration":0.04651162790696617,"midi":83,"time":189.32558139534885,"velocity":0.2125984251968504},{"duration":0.05813953488370771,"midi":85,"time":189.32558139534885,"velocity":0.3779527559055118},{"duration":0.034883720930224626,"midi":66,"time":189.3372093023256,"velocity":0.29133858267716534},{"duration":0.034883720930224626,"midi":73,"time":189.3372093023256,"velocity":0.5354330708661418},{"duration":0.04651162790696617,"midi":81,"time":189.3372093023256,"velocity":0.18110236220472442},{"duration":0.05813953488370771,"midi":88,"time":189.3372093023256,"velocity":0.1889763779527559},{"duration":0.09302325581393234,"midi":100,"time":189.3372093023256,"velocity":0.2125984251968504},{"duration":0.13953488372092693,"midi":102,"time":189.3372093023256,"velocity":0.23622047244094488},{"duration":0.034883720930224626,"midi":94,"time":189.34883720930233,"velocity":0.11811023622047244},{"duration":0.034883720930224626,"midi":75,"time":189.36046511627907,"velocity":0.15748031496062992},{"duration":0.034883720930224626,"midi":37,"time":189.37209302325581,"velocity":0.33070866141732286},{"duration":0.1046511627907023,"midi":65,"time":189.37209302325581,"velocity":0.3464566929133858},{"duration":0.034883720930224626,"midi":67,"time":189.37209302325581,"velocity":0.30708661417322836},{"duration":0.04651162790696617,"midi":72,"time":189.37209302325581,"velocity":0.49606299212598426},{"duration":0.034883720930224626,"midi":103,"time":189.37209302325581,"velocity":0.10236220472440945},{"duration":0.11627906976744384,"midi":70,"time":189.38372093023256,"velocity":0.3228346456692913},{"duration":0.1046511627907023,"midi":101,"time":189.38372093023256,"velocity":0.1889763779527559},{"duration":0.023255813953483084,"midi":83,"time":189.3953488372093,"velocity":0.28346456692913385},{"duration":0.05813953488373613,"midi":58,"time":189.40697674418604,"velocity":0.4015748031496063},{"duration":0.06976744186047767,"midi":75,"time":189.41860465116278,"velocity":0.1968503937007874},{"duration":0.03488372093025305,"midi":72,"time":189.43023255813952,"velocity":0.1968503937007874},{"duration":0.03488372093025305,"midi":86,"time":189.43023255813952,"velocity":0.10236220472440945},{"duration":0.06976744186047767,"midi":99,"time":189.43023255813952,"velocity":0.16535433070866143},{"duration":0.034883720930224626,"midi":40,"time":189.45348837209303,"velocity":0.25196850393700787},{"duration":0.04651162790696617,"midi":89,"time":189.45348837209303,"velocity":0.2440944881889764},{"duration":0.034883720930224626,"midi":100,"time":189.45348837209303,"velocity":0.10236220472440945},{"duration":0.04651162790696617,"midi":57,"time":189.46511627906978,"velocity":0.33858267716535434},{"duration":0.04651162790696617,"midi":78,"time":189.46511627906978,"velocity":0.07086614173228346},{"duration":0.034883720930224626,"midi":72,"time":189.47674418604652,"velocity":0.16535433070866143},{"duration":0.04651162790696617,"midi":74,"time":189.47674418604652,"velocity":0.18110236220472442},{"duration":0.09302325581396076,"midi":63,"time":189.48837209302326,"velocity":0.3543307086614173},{"duration":0.034883720930224626,"midi":77,"time":189.48837209302326,"velocity":0.11811023622047244},{"duration":0.034883720930224626,"midi":81,"time":189.48837209302326,"velocity":0.07874015748031496},{"duration":0.04651162790699459,"midi":51,"time":189.52325581395348,"velocity":0.2125984251968504},{"duration":0.05813953488373613,"midi":56,"time":189.53488372093022,"velocity":0.1968503937007874},{"duration":0.03488372093025305,"midi":73,"time":189.54651162790697,"velocity":0.2755905511811024},{"duration":0.034883720930224626,"midi":70,"time":189.56976744186048,"velocity":0.2677165354330709},{"duration":0.16279069767441,"midi":94,"time":189.58139534883722,"velocity":0.31496062992125984},{"duration":0.06976744186044925,"midi":95,"time":189.58139534883722,"velocity":0.1732283464566929},{"duration":0.034883720930224626,"midi":32,"time":189.59302325581396,"velocity":0.2440944881889764},{"duration":0.04651162790696617,"midi":84,"time":189.59302325581396,"velocity":0.25196850393700787},{"duration":0.6046511627907023,"midi":87,"time":189.59302325581396,"velocity":0.29133858267716534},{"duration":0.16279069767441,"midi":88,"time":189.59302325581396,"velocity":0.1968503937007874},{"duration":0.06976744186044925,"midi":91,"time":189.59302325581396,"velocity":0.3858267716535433},{"duration":0.13953488372092693,"midi":96,"time":189.59302325581396,"velocity":0.2755905511811024},{"duration":0.34883720930233153,"midi":100,"time":189.59302325581396,"velocity":0.28346456692913385},{"duration":0.48837209302325846,"midi":102,"time":189.59302325581396,"velocity":0.41732283464566927},{"duration":0.023255813953483084,"midi":65,"time":189.6046511627907,"velocity":0.33070866141732286},{"duration":0.05813953488370771,"midi":76,"time":189.6046511627907,"velocity":0.33858267716535434},{"duration":0.034883720930224626,"midi":81,"time":189.6046511627907,"velocity":0.14173228346456693},{"duration":0.034883720930224626,"midi":85,"time":189.6046511627907,"velocity":0.09448818897637795},{"duration":0.6279069767441854,"midi":99,"time":189.6046511627907,"velocity":0.31496062992125984},{"duration":0.06976744186044925,"midi":101,"time":189.6046511627907,"velocity":0.2047244094488189},{"duration":0.023255813953483084,"midi":71,"time":189.61627906976744,"velocity":0.25984251968503935},{"duration":0.034883720930224626,"midi":98,"time":189.61627906976744,"velocity":0.10236220472440945},{"duration":0.011627906976741542,"midi":45,"time":189.62790697674419,"velocity":0.5669291338582677},{"duration":0.023255813953483084,"midi":66,"time":189.62790697674419,"velocity":0.29133858267716534},{"duration":0.04651162790696617,"midi":68,"time":189.62790697674419,"velocity":0.25196850393700787},{"duration":0.09302325581396076,"midi":83,"time":189.62790697674419,"velocity":0.3779527559055118},{"duration":0.034883720930224626,"midi":89,"time":189.62790697674419,"velocity":0.13385826771653545},{"duration":0.011627906976741542,"midi":44,"time":189.63953488372093,"velocity":0.5826771653543307},{"duration":0.023255813953483084,"midi":42,"time":189.65116279069767,"velocity":0.5826771653543307},{"duration":0.08139534883721922,"midi":90,"time":189.65116279069767,"velocity":0.41732283464566927},{"duration":0.13953488372092693,"midi":97,"time":189.65116279069767,"velocity":0.23622047244094488},{"duration":0.04651162790699459,"midi":75,"time":189.6627906976744,"velocity":0.2047244094488189},{"duration":0.06976744186047767,"midi":85,"time":189.6627906976744,"velocity":0.2755905511811024},{"duration":0.04651162790699459,"midi":71,"time":189.67441860465115,"velocity":0.1732283464566929},{"duration":0.03488372093025305,"midi":66,"time":189.6860465116279,"velocity":0.25196850393700787},{"duration":0.034883720930224626,"midi":80,"time":189.69767441860466,"velocity":0.1732283464566929},{"duration":0.023255813953483084,"midi":91,"time":189.69767441860466,"velocity":0.28346456692913385},{"duration":0.17441860465115155,"midi":84,"time":189.7093023255814,"velocity":0.3543307086614173},{"duration":0.023255813953483084,"midi":67,"time":189.72093023255815,"velocity":0.2283464566929134},{"duration":0.034883720930224626,"midi":75,"time":189.72093023255815,"velocity":0.2047244094488189},{"duration":0.034883720930224626,"midi":77,"time":189.72093023255815,"velocity":0.16535433070866143},{"duration":0.034883720930224626,"midi":79,"time":189.72093023255815,"velocity":0.23622047244094488},{"duration":0.0813953488371908,"midi":98,"time":189.72093023255815,"velocity":0.1968503937007874},{"duration":0.0813953488371908,"midi":101,"time":189.72093023255815,"velocity":0.2047244094488189},{"duration":0.08139534883721922,"midi":65,"time":189.7325581395349,"velocity":0.3937007874015748},{"duration":0.023255813953483084,"midi":72,"time":189.7325581395349,"velocity":0.2283464566929134},{"duration":0.023255813953483084,"midi":86,"time":189.7325581395349,"velocity":0.2755905511811024},{"duration":0.034883720930224626,"midi":91,"time":189.7325581395349,"velocity":0.4015748031496063},{"duration":0.4651162790697754,"midi":92,"time":189.7325581395349,"velocity":0.4645669291338583},{"duration":0.11627906976744384,"midi":68,"time":189.74418604651163,"velocity":0.4015748031496063},{"duration":0.09302325581396076,"midi":96,"time":189.74418604651163,"velocity":0.36220472440944884},{"duration":0.034883720930224626,"midi":31,"time":189.75581395348837,"velocity":0.2125984251968504},{"duration":0.023255813953483084,"midi":73,"time":189.75581395348837,"velocity":0.2440944881889764},{"duration":0.034883720930224626,"midi":82,"time":189.75581395348837,"velocity":0.11023622047244094},{"duration":0.05813953488373613,"midi":75,"time":189.7674418604651,"velocity":0.3228346456692913},{"duration":0.04651162790699459,"midi":90,"time":189.7674418604651,"velocity":0.09448818897637795},{"duration":0.24418604651162923,"midi":94,"time":189.7674418604651,"velocity":0.2047244094488189},{"duration":0.05813953488373613,"midi":83,"time":189.77906976744185,"velocity":0.16535433070866143},{"duration":0.08139534883721922,"midi":91,"time":189.77906976744185,"velocity":0.2283464566929134},{"duration":0.1046511627907023,"midi":63,"time":189.80232558139534,"velocity":0.2677165354330709},{"duration":0.0813953488371908,"midi":72,"time":189.8139534883721,"velocity":0.29133858267716534},{"duration":0.09302325581393234,"midi":101,"time":189.82558139534885,"velocity":0.33070866141732286},{"duration":0.034883720930224626,"midi":95,"time":189.8372093023256,"velocity":0.4330708661417323},{"duration":0.4534883720930054,"midi":96,"time":189.84883720930233,"velocity":0.5039370078740157},{"duration":0.034883720930224626,"midi":70,"time":189.86046511627907,"velocity":0.18110236220472442},{"duration":0.06976744186044925,"midi":75,"time":189.86046511627907,"velocity":0.31496062992125984},{"duration":0.034883720930224626,"midi":86,"time":189.86046511627907,"velocity":0.12598425196850394},{"duration":0.04651162790696617,"midi":78,"time":189.87209302325581,"velocity":0.1968503937007874},{"duration":0.09302325581396076,"midi":91,"time":189.87209302325581,"velocity":0.3700787401574803},{"duration":0.034883720930224626,"midi":48,"time":189.88372093023256,"velocity":0.2440944881889764},{"duration":0.12790697674418539,"midi":68,"time":189.88372093023256,"velocity":0.44881889763779526},{"duration":0.12790697674418539,"midi":77,"time":189.88372093023256,"velocity":0.15748031496062992},{"duration":0.09302325581396076,"midi":97,"time":189.88372093023256,"velocity":0.14173228346456693},{"duration":0.034883720930224626,"midi":40,"time":189.8953488372093,"velocity":0.3228346456692913},{"duration":0.1046511627907023,"midi":65,"time":189.8953488372093,"velocity":0.3464566929133858},{"duration":0.034883720930224626,"midi":73,"time":189.8953488372093,"velocity":0.2677165354330709},{"duration":0.08139534883721922,"midi":84,"time":189.8953488372093,"velocity":0.2755905511811024},{"duration":0.03488372093025305,"midi":98,"time":189.91860465116278,"velocity":0.11811023622047244},{"duration":0.03488372093025305,"midi":48,"time":189.93023255813952,"velocity":0.1889763779527559},{"duration":0.08139534883721922,"midi":72,"time":189.93023255813952,"velocity":0.4409448818897638},{"duration":0.03488372093025305,"midi":82,"time":189.93023255813952,"velocity":0.10236220472440945},{"duration":0.09302325581396076,"midi":101,"time":189.93023255813952,"velocity":0.2283464566929134},{"duration":0.23255813953485927,"midi":75,"time":189.9418604651163,"velocity":0.3858267716535433},{"duration":0.1046511627907023,"midi":53,"time":189.96511627906978,"velocity":0.25196850393700787},{"duration":0.034883720930224626,"midi":30,"time":189.97674418604652,"velocity":0.1732283464566929},{"duration":0.034883720930224626,"midi":60,"time":189.97674418604652,"velocity":0.09448818897637795},{"duration":0.05813953488370771,"midi":79,"time":189.98837209302326,"velocity":0.18110236220472442},{"duration":0.05813953488370771,"midi":91,"time":189.98837209302326,"velocity":0.2755905511811024},{"duration":0.09302325581396076,"midi":95,"time":189.98837209302326,"velocity":0.3779527559055118},{"duration":0.05813953488370771,"midi":98,"time":189.98837209302326,"velocity":0.2125984251968504},{"duration":0.034883720930224626,"midi":71,"time":190,"velocity":0.2047244094488189},{"duration":0.034883720930224626,"midi":86,"time":190,"velocity":0.14960629921259844},{"duration":0.034883720930224626,"midi":90,"time":190,"velocity":0.16535433070866143},{"duration":0.023255813953483084,"midi":67,"time":190.01162790697674,"velocity":0.4330708661417323},{"duration":0.09302325581396076,"midi":48,"time":190.02325581395348,"velocity":0.23622047244094488},{"duration":0.034883720930224626,"midi":77,"time":190.02325581395348,"velocity":0.11811023622047244},{"duration":0.023255813953483084,"midi":40,"time":190.03488372093022,"velocity":0.29133858267716534},{"duration":0.13953488372092693,"midi":72,"time":190.03488372093022,"velocity":0.31496062992125984},{"duration":0.023255813953511506,"midi":63,"time":190.04651162790697,"velocity":0.3228346456692913},{"duration":0.03488372093025305,"midi":80,"time":190.04651162790697,"velocity":0.10236220472440945},{"duration":0.30232558139536536,"midi":68,"time":190.0581395348837,"velocity":0.31496062992125984},{"duration":0.06976744186044925,"midi":65,"time":190.06976744186048,"velocity":0.4330708661417323},{"duration":0.034883720930224626,"midi":41,"time":190.08139534883722,"velocity":0.2283464566929134},{"duration":0.09302325581393234,"midi":82,"time":190.08139534883722,"velocity":0.1968503937007874},{"duration":0.11627906976744384,"midi":101,"time":190.09302325581396,"velocity":0.1968503937007874},{"duration":0.034883720930224626,"midi":30,"time":190.1046511627907,"velocity":0.2125984251968504},{"duration":0.1046511627907023,"midi":95,"time":190.1046511627907,"velocity":0.18110236220472442},{"duration":0.05813953488370771,"midi":85,"time":190.11627906976744,"velocity":0.16535433070866143},{"duration":0.034883720930224626,"midi":88,"time":190.11627906976744,"velocity":0.2047244094488189},{"duration":0.1046511627907023,"midi":90,"time":190.11627906976744,"velocity":0.30708661417322836},{"duration":0.1860465116278931,"midi":94,"time":190.11627906976744,"velocity":0.41732283464566927},{"duration":0.023255813953483084,"midi":60,"time":190.12790697674419,"velocity":0.4330708661417323},{"duration":0.023255813953483084,"midi":91,"time":190.13953488372093,"velocity":0.2677165354330709},{"duration":0.13953488372092693,"midi":98,"time":190.13953488372093,"velocity":0.16535433070866143},{"duration":0.023255813953483084,"midi":45,"time":190.15116279069767,"velocity":0.6062992125984252},{"duration":0.034883720930224626,"midi":61,"time":190.15116279069767,"velocity":0.36220472440944884},{"duration":0.1046511627907023,"midi":84,"time":190.15116279069767,"velocity":0.3228346456692913},{"duration":0.1511627906976969,"midi":88,"time":190.1627906976744,"velocity":0.3228346456692913},{"duration":0.08139534883721922,"midi":93,"time":190.1627906976744,"velocity":0.12598425196850394},{"duration":0.011627906976741542,"midi":44,"time":190.17441860465115,"velocity":0.5826771653543307},{"duration":0.04651162790699459,"midi":63,"time":190.17441860465115,"velocity":0.33070866141732286},{"duration":0.05813953488373613,"midi":83,"time":190.17441860465115,"velocity":0.2047244094488189},{"duration":0.023255813953511506,"midi":42,"time":190.1860465116279,"velocity":0.5590551181102362},{"duration":0.03488372093025305,"midi":52,"time":190.1860465116279,"velocity":0.2755905511811024},{"duration":0.09302325581396076,"midi":60,"time":190.1860465116279,"velocity":0.3700787401574803},{"duration":0.1046511627907023,"midi":72,"time":190.1860465116279,"velocity":0.41732283464566927},{"duration":0.11627906976744384,"midi":91,"time":190.1860465116279,"velocity":0.2440944881889764},{"duration":0.04651162790696617,"midi":89,"time":190.19767441860466,"velocity":0.08661417322834646},{"duration":0.04651162790696617,"midi":82,"time":190.2093023255814,"velocity":0.14960629921259844},{"duration":0.023255813953483084,"midi":66,"time":190.22093023255815,"velocity":0.2755905511811024},{"duration":0.034883720930224626,"midi":63,"time":190.2325581395349,"velocity":0.33858267716535434},{"duration":0.06976744186044925,"midi":76,"time":190.2325581395349,"velocity":0.23622047244094488},{"duration":0.04651162790696617,"midi":87,"time":190.2325581395349,"velocity":0.12598425196850394},{"duration":0.04651162790696617,"midi":95,"time":190.2325581395349,"velocity":0.08661417322834646},{"duration":0.034883720930224626,"midi":83,"time":190.24418604651163,"velocity":0.09448818897637795},{"duration":0.034883720930224626,"midi":36,"time":190.25581395348837,"velocity":0.3228346456692913},{"duration":0.023255813953483084,"midi":66,"time":190.25581395348837,"velocity":0.28346456692913385},{"duration":0.04651162790696617,"midi":93,"time":190.25581395348837,"velocity":0.13385826771653545},{"duration":0.4302325581395223,"midi":99,"time":190.25581395348837,"velocity":0.31496062992125984},{"duration":0.023255813953483084,"midi":47,"time":190.2674418604651,"velocity":0.2992125984251969},{"duration":0.034883720930224626,"midi":56,"time":190.2674418604651,"velocity":0.33858267716535434},{"duration":0.04651162790699459,"midi":81,"time":190.2674418604651,"velocity":0.1732283464566929},{"duration":0.034883720930224626,"midi":85,"time":190.2674418604651,"velocity":0.13385826771653545},{"duration":0.04651162790699459,"midi":48,"time":190.2906976744186,"velocity":0.29133858267716534},{"duration":0.03488372093025305,"midi":74,"time":190.2906976744186,"velocity":0.12598425196850394},{"duration":0.023255813953511506,"midi":55,"time":190.30232558139534,"velocity":0.28346456692913385},{"duration":0.09302325581396076,"midi":65,"time":190.30232558139534,"velocity":0.3858267716535433},{"duration":0.05813953488373613,"midi":84,"time":190.30232558139534,"velocity":0.14173228346456693},{"duration":0.06976744186044925,"midi":36,"time":190.32558139534885,"velocity":0.31496062992125984},{"duration":0.023255813953483084,"midi":56,"time":190.32558139534885,"velocity":0.25984251968503935},{"duration":0.05813953488370771,"midi":75,"time":190.32558139534885,"velocity":0.30708661417322836},{"duration":0.06976744186044925,"midi":94,"time":190.32558139534885,"velocity":0.13385826771653545},{"duration":0.023255813953483084,"midi":60,"time":190.3372093023256,"velocity":0.2677165354330709},{"duration":0.04651162790696617,"midi":72,"time":190.3372093023256,"velocity":0.28346456692913385},{"duration":0.06976744186044925,"midi":82,"time":190.3372093023256,"velocity":0.2440944881889764},{"duration":0.13953488372092693,"midi":96,"time":190.3372093023256,"velocity":0.14173228346456693},{"duration":0.034883720930224626,"midi":61,"time":190.36046511627907,"velocity":0.25984251968503935},{"duration":0.05813953488370771,"midi":88,"time":190.36046511627907,"velocity":0.3228346456692913},{"duration":0.023255813953483084,"midi":78,"time":190.37209302325581,"velocity":0.2992125984251969},{"duration":0.023255813953483084,"midi":89,"time":190.37209302325581,"velocity":0.30708661417322836},{"duration":0.5697674418604777,"midi":93,"time":190.37209302325581,"velocity":0.3858267716535433},{"duration":0.023255813953483084,"midi":55,"time":190.38372093023256,"velocity":0.25196850393700787},{"duration":0.08139534883721922,"midi":85,"time":190.38372093023256,"velocity":0.47244094488188976},{"duration":0.04651162790696617,"midi":92,"time":190.38372093023256,"velocity":0.23622047244094488},{"duration":0.08139534883721922,"midi":95,"time":190.38372093023256,"velocity":0.25984251968503935},{"duration":0.7558139534883708,"midi":101,"time":190.38372093023256,"velocity":0.33858267716535434},{"duration":0.08139534883721922,"midi":102,"time":190.38372093023256,"velocity":0.12598425196850394},{"duration":0.04651162790699459,"midi":66,"time":190.3953488372093,"velocity":0.23622047244094488},{"duration":0.09302325581396076,"midi":73,"time":190.3953488372093,"velocity":0.5275590551181102},{"duration":0.04651162790699459,"midi":79,"time":190.3953488372093,"velocity":0.33070866141732286},{"duration":0.04651162790699459,"midi":84,"time":190.3953488372093,"velocity":0.2677165354330709},{"duration":0.034883720930224626,"midi":90,"time":190.3953488372093,"velocity":0.2677165354330709},{"duration":0.1046511627907023,"midi":103,"time":190.3953488372093,"velocity":0.1889763779527559},{"duration":0.03488372093025305,"midi":61,"time":190.40697674418604,"velocity":0.3543307086614173},{"duration":0.1046511627907023,"midi":75,"time":190.40697674418604,"velocity":0.2677165354330709},{"duration":0.3604651162790731,"midi":77,"time":190.40697674418604,"velocity":0.3228346456692913},{"duration":0.12790697674418539,"midi":80,"time":190.40697674418604,"velocity":0.4330708661417323},{"duration":0.04651162790699459,"midi":83,"time":190.40697674418604,"velocity":0.31496062992125984},{"duration":0.2674418604651123,"midi":89,"time":190.40697674418604,"velocity":0.47244094488188976},{"duration":0.12790697674418539,"midi":53,"time":190.41860465116278,"velocity":0.33070866141732286},{"duration":0.4767441860465169,"midi":94,"time":190.41860465116278,"velocity":0.2992125984251969},{"duration":0.12790697674418539,"midi":46,"time":190.43023255813952,"velocity":0.23622047244094488},{"duration":0.03488372093025305,"midi":58,"time":190.43023255813952,"velocity":0.33858267716535434},{"duration":0.05813953488370771,"midi":61,"time":190.45348837209303,"velocity":0.3464566929133858},{"duration":0.05813953488370771,"midi":68,"time":190.45348837209303,"velocity":0.14960629921259844},{"duration":0.11627906976744384,"midi":82,"time":190.45348837209303,"velocity":0.28346456692913385},{"duration":0.023255813953483084,"midi":84,"time":190.45348837209303,"velocity":0.2677165354330709},{"duration":0.05813953488370771,"midi":34,"time":190.46511627906978,"velocity":0.2992125984251969},{"duration":0.09302325581396076,"midi":58,"time":190.47674418604652,"velocity":0.30708661417322836},{"duration":0.023255813953483084,"midi":72,"time":190.48837209302326,"velocity":0.30708661417322836},{"duration":0.08139534883721922,"midi":84,"time":190.5,"velocity":0.3858267716535433},{"duration":0.04651162790696617,"midi":102,"time":190.5,"velocity":0.2440944881889764},{"duration":0.2093023255814046,"midi":73,"time":190.51162790697674,"velocity":0.4015748031496063},{"duration":0.06976744186047767,"midi":75,"time":190.52325581395348,"velocity":0.12598425196850394},{"duration":0.13953488372092693,"midi":103,"time":190.53488372093022,"velocity":0.16535433070866143},{"duration":0.1511627906976969,"midi":61,"time":190.54651162790697,"velocity":0.2755905511811024},{"duration":0.03488372093025305,"midi":65,"time":190.54651162790697,"velocity":0.1968503937007874},{"duration":0.13953488372095535,"midi":80,"time":190.5581395348837,"velocity":0.4409448818897638},{"duration":0.04651162790696617,"midi":68,"time":190.58139534883722,"velocity":0.07874015748031496},{"duration":0.034883720930224626,"midi":82,"time":190.58139534883722,"velocity":0.28346456692913385},{"duration":0.05813953488370771,"midi":95,"time":190.58139534883722,"velocity":0.2047244094488189},{"duration":0.06976744186044925,"midi":84,"time":190.59302325581396,"velocity":0.36220472440944884},{"duration":0.13953488372092693,"midi":65,"time":190.6046511627907,"velocity":0.33070866141732286},{"duration":0.13953488372092693,"midi":82,"time":190.62790697674419,"velocity":0.2755905511811024},{"duration":0.32558139534884845,"midi":102,"time":190.62790697674419,"velocity":0.3228346456692913},{"duration":0.12790697674418539,"midi":100,"time":190.65116279069767,"velocity":0.2755905511811024},{"duration":0.05813953488373613,"midi":58,"time":190.6627906976744,"velocity":0.23622047244094488},{"duration":0.13953488372092693,"midi":88,"time":190.6627906976744,"velocity":0.3543307086614173},{"duration":0.05813953488373613,"midi":84,"time":190.67441860465115,"velocity":0.3700787401574803},{"duration":0.011627906976769964,"midi":45,"time":190.6860465116279,"velocity":0.5905511811023622},{"duration":0.1279069767442138,"midi":91,"time":190.6860465116279,"velocity":0.28346456692913385},{"duration":0.1046511627907023,"midi":98,"time":190.6860465116279,"velocity":0.2047244094488189},{"duration":0.011627906976741542,"midi":44,"time":190.69767441860466,"velocity":0.6062992125984252},{"duration":0.06976744186044925,"midi":79,"time":190.69767441860466,"velocity":0.3700787401574803},{"duration":0.05813953488370771,"midi":95,"time":190.69767441860466,"velocity":0.2125984251968504},{"duration":0.011627906976741542,"midi":43,"time":190.7093023255814,"velocity":0.5748031496062992},{"duration":0.011627906976741542,"midi":42,"time":190.72093023255815,"velocity":0.5354330708661418},{"duration":0.034883720930224626,"midi":73,"time":190.7325581395349,"velocity":0.25196850393700787},{"duration":0.13953488372092693,"midi":89,"time":190.7325581395349,"velocity":0.4409448818897638},{"duration":0.034883720930224626,"midi":61,"time":190.74418604651163,"velocity":0.13385826771653545},{"duration":0.12790697674418539,"midi":65,"time":190.75581395348837,"velocity":0.36220472440944884},{"duration":0.023255813953483084,"midi":72,"time":190.75581395348837,"velocity":0.3228346456692913},{"duration":0.45348837209303383,"midi":80,"time":190.75581395348837,"velocity":0.2992125984251969},{"duration":0.034883720930224626,"midi":83,"time":190.75581395348837,"velocity":0.3228346456692913},{"duration":0.08139534883721922,"midi":96,"time":190.75581395348837,"velocity":0.12598425196850394},{"duration":0.12790697674418539,"midi":99,"time":190.75581395348837,"velocity":0.1889763779527559},{"duration":0.023255813953483084,"midi":37,"time":190.7674418604651,"velocity":0.3858267716535433},{"duration":0.05813953488373613,"midi":87,"time":190.7674418604651,"velocity":0.25196850393700787},{"duration":0.034883720930224626,"midi":90,"time":190.7674418604651,"velocity":0.2992125984251969},{"duration":0.05813953488373613,"midi":73,"time":190.77906976744185,"velocity":0.3228346456692913},{"duration":0.25581395348837077,"midi":82,"time":190.77906976744185,"velocity":0.48031496062992124},{"duration":0.15116279069766847,"midi":84,"time":190.77906976744185,"velocity":0.33070866141732286},{"duration":0.03488372093025305,"midi":36,"time":190.7906976744186,"velocity":0.2992125984251969},{"duration":0.09302325581396076,"midi":70,"time":190.7906976744186,"velocity":0.2677165354330709},{"duration":0.023255813953511506,"midi":86,"time":190.7906976744186,"velocity":0.23622047244094488},{"duration":0.06976744186047767,"midi":85,"time":190.80232558139534,"velocity":0.3543307086614173},{"duration":0.04651162790699459,"midi":100,"time":190.80232558139534,"velocity":0.09448818897637795},{"duration":0.034883720930224626,"midi":72,"time":190.8139534883721,"velocity":0.18110236220472442},{"duration":0.06976744186044925,"midi":58,"time":190.8372093023256,"velocity":0.25984251968503935},{"duration":0.05813953488370771,"midi":86,"time":190.84883720930233,"velocity":0.3543307086614173},{"duration":0.06976744186044925,"midi":77,"time":190.86046511627907,"velocity":0.36220472440944884},{"duration":0.05813953488370771,"midi":87,"time":190.86046511627907,"velocity":0.2992125984251969},{"duration":0.1046511627907023,"midi":100,"time":190.86046511627907,"velocity":0.16535433070866143},{"duration":0.04651162790696617,"midi":90,"time":190.87209302325581,"velocity":0.30708661417322836},{"duration":0.034883720930224626,"midi":95,"time":190.87209302325581,"velocity":0.15748031496062992},{"duration":0.05813953488373613,"midi":66,"time":190.88372093023256,"velocity":0.2755905511811024},{"duration":0.034883720930224626,"midi":75,"time":190.88372093023256,"velocity":0.08661417322834646},{"duration":0.06976744186047767,"midi":88,"time":190.88372093023256,"velocity":0.2755905511811024},{"duration":0.09302325581396076,"midi":85,"time":190.8953488372093,"velocity":0.33858267716535434},{"duration":0.04651162790699459,"midi":91,"time":190.8953488372093,"velocity":0.14173228346456693},{"duration":0.03488372093025305,"midi":59,"time":190.90697674418604,"velocity":0.23622047244094488},{"duration":0.09302325581396076,"midi":70,"time":190.90697674418604,"velocity":0.3228346456692913},{"duration":0.13953488372092693,"midi":89,"time":190.90697674418604,"velocity":0.4330708661417323},{"duration":0.023255813953511506,"midi":86,"time":190.91860465116278,"velocity":0.25196850393700787},{"duration":0.03488372093025305,"midi":68,"time":190.93023255813952,"velocity":0.15748031496062992},{"duration":0.1511627906976969,"midi":73,"time":190.93023255813952,"velocity":0.31496062992125984},{"duration":0.03488372093025305,"midi":83,"time":190.93023255813952,"velocity":0.23622047244094488},{"duration":0.023255813953483084,"midi":45,"time":190.9418604651163,"velocity":0.31496062992125984},{"duration":0.10465116279067388,"midi":53,"time":190.9418604651163,"velocity":0.2125984251968504},{"duration":0.04651162790696617,"midi":58,"time":190.9418604651163,"velocity":0.30708661417322836},{"duration":0.04651162790696617,"midi":62,"time":190.9418604651163,"velocity":0.1732283464566929},{"duration":0.16279069767441,"midi":65,"time":190.9418604651163,"velocity":0.33070866141732286},{"duration":0.11627906976741542,"midi":77,"time":190.9418604651163,"velocity":0.3700787401574803},{"duration":0.023255813953483084,"midi":86,"time":190.95348837209303,"velocity":0.29133858267716534},{"duration":0.034883720930224626,"midi":103,"time":190.95348837209303,"velocity":0.09448818897637795},{"duration":0.05813953488370771,"midi":46,"time":190.96511627906978,"velocity":0.2283464566929134},{"duration":0.05813953488370771,"midi":91,"time":190.96511627906978,"velocity":0.25196850393700787},{"duration":0.13953488372092693,"midi":93,"time":190.96511627906978,"velocity":0.14173228346456693},{"duration":0.04651162790696617,"midi":95,"time":190.96511627906978,"velocity":0.18110236220472442},{"duration":0.11627906976744384,"midi":102,"time":190.96511627906978,"velocity":0.16535433070866143},{"duration":0.023255813953483084,"midi":35,"time":190.98837209302326,"velocity":0.28346456692913385},{"duration":0.19767441860466306,"midi":84,"time":191,"velocity":0.1889763779527559},{"duration":0.04651162790696617,"midi":99,"time":191,"velocity":0.14960629921259844},{"duration":0.04651162790696617,"midi":34,"time":191.01162790697674,"velocity":0.28346456692913385},{"duration":0.04651162790696617,"midi":75,"time":191.01162790697674,"velocity":0.11023622047244094},{"duration":0.13953488372092693,"midi":86,"time":191.01162790697674,"velocity":0.25196850393700787},{"duration":0.2325581395348877,"midi":70,"time":191.02325581395348,"velocity":0.3700787401574803},{"duration":0.05813953488373613,"midi":81,"time":191.02325581395348,"velocity":0.28346456692913385},{"duration":0.06976744186047767,"midi":88,"time":191.02325581395348,"velocity":0.2125984251968504},{"duration":0.04651162790699459,"midi":83,"time":191.03488372093022,"velocity":0.1732283464566929},{"duration":0.06976744186047767,"midi":100,"time":191.03488372093022,"velocity":0.25196850393700787},{"duration":0.03488372093025305,"midi":78,"time":191.04651162790697,"velocity":0.25984251968503935},{"duration":0.023255813953511506,"midi":90,"time":191.04651162790697,"velocity":0.29133858267716534},{"duration":0.03488372093025305,"midi":97,"time":191.04651162790697,"velocity":0.11023622047244094},{"duration":0.03488372093025305,"midi":68,"time":191.0581395348837,"velocity":0.12598425196850394},{"duration":0.03488372093025305,"midi":76,"time":191.0581395348837,"velocity":0.2204724409448819},{"duration":0.2558139534883992,"midi":89,"time":191.0581395348837,"velocity":0.3228346456692913},{"duration":0.03488372093025305,"midi":91,"time":191.0581395348837,"velocity":0.12598425196850394},{"duration":0.023255813953483084,"midi":45,"time":191.06976744186048,"velocity":0.29133858267716534},{"duration":0.04651162790696617,"midi":58,"time":191.06976744186048,"velocity":0.33070866141732286},{"duration":0.04651162790696617,"midi":53,"time":191.08139534883722,"velocity":0.16535433070866143},{"duration":0.04651162790696617,"midi":46,"time":191.09302325581396,"velocity":0.23622047244094488},{"duration":0.034883720930224626,"midi":62,"time":191.09302325581396,"velocity":0.1968503937007874},{"duration":0.09302325581393234,"midi":73,"time":191.09302325581396,"velocity":0.28346456692913385},{"duration":0.04651162790696617,"midi":66,"time":191.1046511627907,"velocity":0.29133858267716534},{"duration":0.023255813953483084,"midi":35,"time":191.11627906976744,"velocity":0.29133858267716534},{"duration":0.04651162790696617,"midi":34,"time":191.13953488372093,"velocity":0.2992125984251969},{"duration":0.04651162790699459,"midi":65,"time":191.15116279069767,"velocity":0.3937007874015748},{"duration":0.12790697674418539,"midi":87,"time":191.17441860465115,"velocity":0.23622047244094488},{"duration":0.06976744186047767,"midi":91,"time":191.17441860465115,"velocity":0.31496062992125984},{"duration":0.09302325581396076,"midi":93,"time":191.17441860465115,"velocity":0.2125984251968504},{"duration":0.04651162790699459,"midi":97,"time":191.17441860465115,"velocity":0.16535433070866143},{"duration":0.03488372093025305,"midi":81,"time":191.1860465116279,"velocity":0.16535433070866143},{"duration":0.06976744186047767,"midi":83,"time":191.1860465116279,"velocity":0.25196850393700787},{"duration":0.09302325581396076,"midi":88,"time":191.1860465116279,"velocity":0.2283464566929134},{"duration":0.09302325581396076,"midi":94,"time":191.1860465116279,"velocity":0.2283464566929134},{"duration":0.023255813953483084,"midi":66,"time":191.19767441860466,"velocity":0.29133858267716534},{"duration":0.2906976744185954,"midi":90,"time":191.19767441860466,"velocity":0.28346456692913385},{"duration":0.1860465116278931,"midi":98,"time":191.19767441860466,"velocity":0.2204724409448819},{"duration":0.011627906976741542,"midi":48,"time":191.2093023255814,"velocity":0.5118110236220472},{"duration":0.034883720930224626,"midi":76,"time":191.2093023255814,"velocity":0.3700787401574803},{"duration":0.011627906976741542,"midi":45,"time":191.22093023255815,"velocity":0.5984251968503937},{"duration":0.22093023255814614,"midi":73,"time":191.22093023255815,"velocity":0.3228346456692913},{"duration":0.011627906976741542,"midi":44,"time":191.2325581395349,"velocity":0.5905511811023622},{"duration":0.06976744186044925,"midi":79,"time":191.2325581395349,"velocity":0.13385826771653545},{"duration":0.023255813953483084,"midi":42,"time":191.24418604651163,"velocity":0.5433070866141733},{"duration":0.05813953488370771,"midi":75,"time":191.24418604651163,"velocity":0.3543307086614173},{"duration":0.034883720930224626,"midi":57,"time":191.25581395348837,"velocity":0.36220472440944884},{"duration":0.023255813953483084,"midi":91,"time":191.25581395348837,"velocity":0.2283464566929134},{"duration":0.05813953488373613,"midi":96,"time":191.25581395348837,"velocity":0.08661417322834646},{"duration":0.13953488372092693,"midi":65,"time":191.2674418604651,"velocity":0.3464566929133858},{"duration":0.05813953488373613,"midi":82,"time":191.2906976744186,"velocity":0.31496062992125984},{"duration":0.03488372093025305,"midi":86,"time":191.2906976744186,"velocity":0.14960629921259844},{"duration":0.023255813953511506,"midi":70,"time":191.30232558139534,"velocity":0.33070866141732286},{"duration":0.03488372093025305,"midi":81,"time":191.30232558139534,"velocity":0.2047244094488189},{"duration":0.09302325581393234,"midi":55,"time":191.3139534883721,"velocity":0.33858267716535434},{"duration":0.034883720930224626,"midi":78,"time":191.3139534883721,"velocity":0.1889763779527559},{"duration":0.034883720930224626,"midi":93,"time":191.3139534883721,"velocity":0.2047244094488189},{"duration":0.09302325581393234,"midi":101,"time":191.3139534883721,"velocity":0.11811023622047244},{"duration":0.023255813953483084,"midi":59,"time":191.32558139534885,"velocity":0.25984251968503935},{"duration":0.09302325581393234,"midi":71,"time":191.32558139534885,"velocity":0.41732283464566927},{"duration":0.034883720930224626,"midi":87,"time":191.32558139534885,"velocity":0.23622047244094488},{"duration":0.034883720930224626,"midi":89,"time":191.32558139534885,"velocity":0.2204724409448819},{"duration":0.12790697674418539,"midi":97,"time":191.32558139534885,"velocity":0.2047244094488189},{"duration":0.034883720930224626,"midi":86,"time":191.3372093023256,"velocity":0.28346456692913385},{"duration":0.023255813953483084,"midi":40,"time":191.34883720930233,"velocity":0.23622047244094488},{"duration":0.04651162790696617,"midi":48,"time":191.34883720930233,"velocity":0.29133858267716534},{"duration":0.04651162790696617,"midi":78,"time":191.36046511627907,"velocity":0.2204724409448819},{"duration":0.08139534883721922,"midi":82,"time":191.36046511627907,"velocity":0.28346456692913385},{"duration":0.1046511627907023,"midi":36,"time":191.37209302325581,"velocity":0.33858267716535434},{"duration":0.034883720930224626,"midi":60,"time":191.37209302325581,"velocity":0.3543307086614173},{"duration":0.19767441860466306,"midi":87,"time":191.37209302325581,"velocity":0.3228346456692913},{"duration":0.034883720930224626,"midi":89,"time":191.37209302325581,"velocity":0.13385826771653545},{"duration":0.08139534883721922,"midi":100,"time":191.3953488372093,"velocity":0.11023622047244094},{"duration":0.023255813953483084,"midi":56,"time":191.40697674418604,"velocity":0.3464566929133858},{"duration":0.04651162790699459,"midi":66,"time":191.40697674418604,"velocity":0.33070866141732286},{"duration":0.04651162790699459,"midi":76,"time":191.40697674418604,"velocity":0.2047244094488189},{"duration":0.08139534883721922,"midi":70,"time":191.41860465116278,"velocity":0.3858267716535433},{"duration":0.023255813953511506,"midi":55,"time":191.43023255813952,"velocity":0.30708661417322836},{"duration":0.03488372093025305,"midi":81,"time":191.43023255813952,"velocity":0.14960629921259844},{"duration":0.06976744186044925,"midi":60,"time":191.4418604651163,"velocity":0.33858267716535434},{"duration":0.034883720930224626,"midi":72,"time":191.4418604651163,"velocity":0.4251968503937008},{"duration":0.05813953488370771,"midi":88,"time":191.4418604651163,"velocity":0.25196850393700787},{"duration":0.0813953488371908,"midi":96,"time":191.4418604651163,"velocity":0.1732283464566929},{"duration":0.13953488372092693,"midi":65,"time":191.45348837209303,"velocity":0.25984251968503935},{"duration":0.09302325581393234,"midi":85,"time":191.45348837209303,"velocity":0.3543307086614173},{"duration":0.034883720930224626,"midi":83,"time":191.46511627906978,"velocity":0.14960629921259844},{"duration":0.034883720930224626,"midi":91,"time":191.46511627906978,"velocity":0.10236220472440945},{"duration":0.0813953488371908,"midi":73,"time":191.47674418604652,"velocity":0.49606299212598426},{"duration":0.05813953488370771,"midi":95,"time":191.47674418604652,"velocity":0.2283464566929134},{"duration":0.034883720930224626,"midi":103,"time":191.48837209302326,"velocity":0.18110236220472442},{"duration":0.034883720930224626,"midi":53,"time":191.5,"velocity":0.13385826771653545},{"duration":0.034883720930224626,"midi":80,"time":191.5,"velocity":0.1732283464566929},{"duration":0.5232558139534831,"midi":89,"time":191.5,"velocity":0.28346456692913385},{"duration":0.15116279069766847,"midi":100,"time":191.5,"velocity":0.25196850393700787},{"duration":0.05813953488373613,"midi":59,"time":191.51162790697674,"velocity":0.3779527559055118},{"duration":0.03488372093025305,"midi":84,"time":191.53488372093022,"velocity":0.16535433070866143},{"duration":0.03488372093025305,"midi":103,"time":191.53488372093022,"velocity":0.12598425196850394},{"duration":0.1511627906976969,"midi":86,"time":191.54651162790697,"velocity":0.28346456692913385},{"duration":0.05813953488370771,"midi":58,"time":191.56976744186048,"velocity":0.3543307086614173},{"duration":0.12790697674418539,"midi":70,"time":191.56976744186048,"velocity":0.4015748031496063},{"duration":0.06976744186044925,"midi":85,"time":191.56976744186048,"velocity":0.1732283464566929},{"duration":0.04651162790696617,"midi":88,"time":191.56976744186048,"velocity":0.2125984251968504},{"duration":0.034883720930224626,"midi":92,"time":191.56976744186048,"velocity":0.14173228346456693},{"duration":0.06976744186044925,"midi":80,"time":191.58139534883722,"velocity":0.12598425196850394},{"duration":0.04651162790696617,"midi":91,"time":191.58139534883722,"velocity":0.14173228346456693},{"duration":0.023255813953483084,"midi":45,"time":191.59302325581396,"velocity":0.3228346456692913},{"duration":0.034883720930224626,"midi":53,"time":191.59302325581396,"velocity":0.28346456692913385},{"duration":0.05813953488370771,"midi":66,"time":191.59302325581396,"velocity":0.14173228346456693},{"duration":0.05813953488370771,"midi":76,"time":191.59302325581396,"velocity":0.2283464566929134},{"duration":0.04651162790696617,"midi":78,"time":191.59302325581396,"velocity":0.2283464566929134},{"duration":0.04651162790696617,"midi":103,"time":191.6046511627907,"velocity":0.16535433070866143},{"duration":0.04651162790696617,"midi":46,"time":191.61627906976744,"velocity":0.25984251968503935},{"duration":0.034883720930224626,"midi":73,"time":191.61627906976744,"velocity":0.11811023622047244},{"duration":0.023255813953483084,"midi":58,"time":191.63953488372093,"velocity":0.3464566929133858},{"duration":0.11627906976744384,"midi":97,"time":191.63953488372093,"velocity":0.23622047244094488},{"duration":0.023255813953483084,"midi":53,"time":191.65116279069767,"velocity":0.2283464566929134},{"duration":0.04651162790699459,"midi":92,"time":191.65116279069767,"velocity":0.09448818897637795},{"duration":0.06976744186047767,"midi":34,"time":191.6627906976744,"velocity":0.2677165354330709},{"duration":0.06976744186047767,"midi":73,"time":191.6627906976744,"velocity":0.3228346456692913},{"duration":0.03488372093025305,"midi":61,"time":191.67441860465115,"velocity":0.2992125984251969},{"duration":0.06976744186047767,"midi":95,"time":191.67441860465115,"velocity":0.2125984251968504},{"duration":0.15116279069766847,"midi":78,"time":191.7093023255814,"velocity":0.2125984251968504},{"duration":0.06976744186044925,"midi":81,"time":191.7093023255814,"velocity":0.25984251968503935},{"duration":0.034883720930224626,"midi":88,"time":191.7093023255814,"velocity":0.12598425196850394},{"duration":0.0813953488371908,"midi":90,"time":191.7093023255814,"velocity":0.25984251968503935},{"duration":0.2674418604651123,"midi":92,"time":191.7093023255814,"velocity":0.4330708661417323},{"duration":0.1046511627907023,"midi":96,"time":191.7093023255814,"velocity":0.25196850393700787},{"duration":0.15116279069766847,"midi":98,"time":191.7093023255814,"velocity":0.1968503937007874},{"duration":0.11627906976744384,"midi":100,"time":191.7093023255814,"velocity":0.2283464566929134},{"duration":0.023255813953483084,"midi":61,"time":191.72093023255815,"velocity":0.3228346456692913},{"duration":0.09302325581396076,"midi":84,"time":191.72093023255815,"velocity":0.2440944881889764},{"duration":0.011627906976741542,"midi":48,"time":191.7325581395349,"velocity":0.5354330708661418},{"duration":0.04651162790696617,"midi":65,"time":191.7325581395349,"velocity":0.1889763779527559},{"duration":0.09302325581396076,"midi":74,"time":191.7325581395349,"velocity":0.4881889763779528},{"duration":0.011627906976741542,"midi":45,"time":191.74418604651163,"velocity":0.6062992125984252},{"duration":0.12790697674418539,"midi":70,"time":191.74418604651163,"velocity":0.2677165354330709},{"duration":0.023255813953483084,"midi":72,"time":191.74418604651163,"velocity":0.3543307086614173},{"duration":0.011627906976741542,"midi":44,"time":191.75581395348837,"velocity":0.6220472440944882},{"duration":0.18604651162792152,"midi":85,"time":191.75581395348837,"velocity":0.28346456692913385},{"duration":0.023255813953483084,"midi":42,"time":191.7674418604651,"velocity":0.5748031496062992},{"duration":0.11627906976744384,"midi":58,"time":191.7674418604651,"velocity":0.2992125984251969},{"duration":0.023255813953483084,"midi":61,"time":191.7674418604651,"velocity":0.2283464566929134},{"duration":0.1046511627907023,"midi":80,"time":191.7674418604651,"velocity":0.1732283464566929},{"duration":0.06976744186047767,"midi":103,"time":191.7674418604651,"velocity":0.23622047244094488},{"duration":0.023255813953483084,"midi":52,"time":191.77906976744185,"velocity":0.2440944881889764},{"duration":0.05813953488373613,"midi":95,"time":191.77906976744185,"velocity":0.2125984251968504},{"duration":0.03488372093025305,"midi":99,"time":191.77906976744185,"velocity":0.13385826771653545},{"duration":0.13953488372092693,"midi":65,"time":191.7906976744186,"velocity":0.2440944881889764},{"duration":0.6162790697674438,"midi":97,"time":191.7906976744186,"velocity":0.30708661417322836},{"duration":0.11627906976744384,"midi":93,"time":191.80232558139534,"velocity":0.14960629921259844},{"duration":0.023255813953483084,"midi":36,"time":191.82558139534885,"velocity":0.3700787401574803},{"duration":0.034883720930224626,"midi":54,"time":191.82558139534885,"velocity":0.25984251968503935},{"duration":0.15116279069766847,"midi":73,"time":191.82558139534885,"velocity":0.5039370078740157},{"duration":0.023255813953483084,"midi":37,"time":191.84883720930233,"velocity":0.3464566929133858},{"duration":0.034883720930224626,"midi":88,"time":191.84883720930233,"velocity":0.13385826771653545},{"duration":0.04651162790696617,"midi":96,"time":191.84883720930233,"velocity":0.13385826771653545},{"duration":0.12790697674418539,"midi":103,"time":191.84883720930233,"velocity":0.1968503937007874},{"duration":0.8139534883720785,"midi":99,"time":191.86046511627907,"velocity":0.4094488188976378},{"duration":0.05813953488370771,"midi":102,"time":191.86046511627907,"velocity":0.07086614173228346},{"duration":0.08139534883721922,"midi":61,"time":191.87209302325581,"velocity":0.28346456692913385},{"duration":0.13953488372092693,"midi":95,"time":191.87209302325581,"velocity":0.33858267716535434},{"duration":0.06976744186047767,"midi":84,"time":191.90697674418604,"velocity":0.18110236220472442},{"duration":0.05813953488373613,"midi":58,"time":191.91860465116278,"velocity":0.23622047244094488},{"duration":0.03488372093025305,"midi":78,"time":191.91860465116278,"velocity":0.11811023622047244},{"duration":0.05813953488373613,"midi":66,"time":191.93023255813952,"velocity":0.1732283464566929},{"duration":0.04651162790699459,"midi":80,"time":191.93023255813952,"velocity":0.2283464566929134},{"duration":0.03488372093025305,"midi":86,"time":191.93023255813952,"velocity":0.1889763779527559},{"duration":0.023255813953511506,"midi":93,"time":191.93023255813952,"velocity":0.2755905511811024},{"duration":0.06976744186047767,"midi":100,"time":191.93023255813952,"velocity":0.1968503937007874},{"duration":0.34883720930233153,"midi":102,"time":191.93023255813952,"velocity":0.3700787401574803},{"duration":0.23255813953485927,"midi":70,"time":191.95348837209303,"velocity":0.2755905511811024},{"duration":0.06976744186044925,"midi":77,"time":191.95348837209303,"velocity":0.2755905511811024},{"duration":0.034883720930224626,"midi":91,"time":191.96511627906978,"velocity":0.4330708661417323},{"duration":0.13953488372092693,"midi":61,"time":191.97674418604652,"velocity":0.2755905511811024},{"duration":0.08139534883721922,"midi":73,"time":191.98837209302326,"velocity":0.47244094488188976},{"duration":0.05813953488370771,"midi":94,"time":191.98837209302326,"velocity":0.1732283464566929},{"duration":0.2093023255814046,"midi":80,"time":192,"velocity":0.2992125984251969},{"duration":0.12790697674418539,"midi":92,"time":192,"velocity":0.4015748031496063},{"duration":0.05813953488373613,"midi":78,"time":192.01162790697674,"velocity":0.1732283464566929},{"duration":0.023255813953483084,"midi":88,"time":192.01162790697674,"velocity":0.31496062992125984},{"duration":0.03488372093025305,"midi":66,"time":192.03488372093022,"velocity":0.25196850393700787},{"duration":0.13953488372092693,"midi":89,"time":192.03488372093022,"velocity":0.4330708661417323},{"duration":0.17441860465117998,"midi":95,"time":192.04651162790697,"velocity":0.23622047244094488},{"duration":0.09302325581396076,"midi":58,"time":192.0581395348837,"velocity":0.2047244094488189},{"duration":0.4651162790697754,"midi":77,"time":192.0581395348837,"velocity":0.33858267716535434},{"duration":0.05813953488373613,"midi":103,"time":192.0581395348837,"velocity":0.2047244094488189},{"duration":0.023255813953483084,"midi":66,"time":192.08139534883722,"velocity":0.2283464566929134},{"duration":0.16279069767441,"midi":73,"time":192.08139534883722,"velocity":0.49606299212598426},{"duration":0.06976744186044925,"midi":65,"time":192.1046511627907,"velocity":0.2440944881889764},{"duration":0.04651162790696617,"midi":84,"time":192.1046511627907,"velocity":0.15748031496062992},{"duration":0.023255813953483084,"midi":38,"time":192.13953488372093,"velocity":0.28346456692913385},{"duration":0.06976744186047767,"midi":61,"time":192.13953488372093,"velocity":0.3228346456692913},{"duration":0.04651162790699459,"midi":66,"time":192.1627906976744,"velocity":0.29133858267716534},{"duration":0.023255813953511506,"midi":51,"time":192.17441860465115,"velocity":0.2283464566929134},{"duration":0.023255813953511506,"midi":88,"time":192.17441860465115,"velocity":0.2755905511811024},{"duration":0.06976744186047767,"midi":91,"time":192.17441860465115,"velocity":0.15748031496062992},{"duration":0.11627906976744384,"midi":86,"time":192.1860465116279,"velocity":0.29133858267716534},{"duration":0.1860465116278931,"midi":103,"time":192.19767441860466,"velocity":0.3937007874015748},{"duration":0.0813953488371908,"midi":88,"time":192.2093023255814,"velocity":0.23622047244094488},{"duration":0.05813953488370771,"midi":81,"time":192.2325581395349,"velocity":0.11811023622047244},{"duration":0.06976744186044925,"midi":90,"time":192.2325581395349,"velocity":0.29133858267716534},{"duration":0.04651162790696617,"midi":93,"time":192.2325581395349,"velocity":0.12598425196850394},{"duration":0.08139534883721922,"midi":94,"time":192.2325581395349,"velocity":0.2125984251968504},{"duration":0.05813953488370771,"midi":95,"time":192.2325581395349,"velocity":0.23622047244094488},{"duration":0.023255813953483084,"midi":60,"time":192.24418604651163,"velocity":0.3700787401574803},{"duration":0.023255813953483084,"midi":67,"time":192.24418604651163,"velocity":0.30708661417322836},{"duration":0.16279069767441,"midi":75,"time":192.24418604651163,"velocity":0.33858267716535434},{"duration":0.034883720930224626,"midi":82,"time":192.24418604651163,"velocity":0.07874015748031496},{"duration":0.04651162790696617,"midi":96,"time":192.24418604651163,"velocity":0.12598425196850394},{"duration":0.023255813953483084,"midi":45,"time":192.25581395348837,"velocity":0.5433070866141733},{"duration":0.13953488372092693,"midi":63,"time":192.25581395348837,"velocity":0.4251968503937008},{"duration":0.25581395348837077,"midi":73,"time":192.25581395348837,"velocity":0.3858267716535433},{"duration":0.04651162790696617,"midi":83,"time":192.25581395348837,"velocity":0.13385826771653545},{"duration":0.1046511627907023,"midi":91,"time":192.25581395348837,"velocity":0.2125984251968504},{"duration":0.023255813953483084,"midi":58,"time":192.2674418604651,"velocity":0.29133858267716534},{"duration":0.04651162790699459,"midi":66,"time":192.2674418604651,"velocity":0.25196850393700787},{"duration":0.011627906976741542,"midi":44,"time":192.27906976744185,"velocity":0.5984251968503937},{"duration":0.011627906976741542,"midi":43,"time":192.2906976744186,"velocity":0.5748031496062992},{"duration":0.03488372093025305,"midi":82,"time":192.2906976744186,"velocity":0.16535433070866143},{"duration":0.04651162790699459,"midi":93,"time":192.2906976744186,"velocity":0.10236220472440945},{"duration":0.011627906976769964,"midi":42,"time":192.30232558139534,"velocity":0.5590551181102362},{"duration":0.08139534883721922,"midi":80,"time":192.30232558139534,"velocity":0.14960629921259844},{"duration":0.06976744186044925,"midi":70,"time":192.3139534883721,"velocity":0.1968503937007874},{"duration":0.034883720930224626,"midi":58,"time":192.32558139534885,"velocity":0.1889763779527559},{"duration":0.023255813953483084,"midi":53,"time":192.3372093023256,"velocity":0.23622047244094488},{"duration":0.023255813953483084,"midi":66,"time":192.36046511627907,"velocity":0.31496062992125984},{"duration":0.05813953488370771,"midi":90,"time":192.36046511627907,"velocity":0.14173228346456693},{"duration":0.05813953488370771,"midi":92,"time":192.36046511627907,"velocity":0.15748031496062992},{"duration":0.023255813953483084,"midi":36,"time":192.37209302325581,"velocity":0.3228346456692913},{"duration":0.023255813953483084,"midi":58,"time":192.37209302325581,"velocity":0.2283464566929134},{"duration":0.034883720930224626,"midi":93,"time":192.37209302325581,"velocity":0.15748031496062992},{"duration":0.05813953488373613,"midi":69,"time":192.38372093023256,"velocity":0.4645669291338583},{"duration":0.06976744186047767,"midi":88,"time":192.38372093023256,"velocity":0.16535433070866143},{"duration":0.09302325581396076,"midi":48,"time":192.3953488372093,"velocity":0.30708661417322836},{"duration":0.034883720930224626,"midi":55,"time":192.3953488372093,"velocity":0.30708661417322836},{"duration":0.023255813953483084,"midi":65,"time":192.3953488372093,"velocity":0.36220472440944884},{"duration":0.05813953488373613,"midi":61,"time":192.41860465116278,"velocity":0.3464566929133858},{"duration":0.08139534883721922,"midi":36,"time":192.43023255813952,"velocity":0.30708661417322836},{"duration":0.0813953488371908,"midi":68,"time":192.4418604651163,"velocity":0.5354330708661418},{"duration":0.12790697674418539,"midi":87,"time":192.45348837209303,"velocity":0.36220472440944884},{"duration":0.04651162790696617,"midi":55,"time":192.46511627906978,"velocity":0.23622047244094488},{"duration":0.1046511627907023,"midi":63,"time":192.46511627906978,"velocity":0.33070866141732286},{"duration":0.06976744186044925,"midi":98,"time":192.47674418604652,"velocity":0.16535433070866143},{"duration":0.034883720930224626,"midi":101,"time":192.47674418604652,"velocity":0.11023622047244094},{"duration":0.17441860465115155,"midi":103,"time":192.47674418604652,"velocity":0.2047244094488189},{"duration":0.2093023255814046,"midi":97,"time":192.48837209302326,"velocity":0.1889763779527559},{"duration":0.05813953488370771,"midi":88,"time":192.5,"velocity":0.33070866141732286},{"duration":0.38372093023255616,"midi":91,"time":192.5,"velocity":0.3228346456692913},{"duration":0.034883720930224626,"midi":53,"time":192.51162790697674,"velocity":0.31496062992125984},{"duration":0.023255813953483084,"midi":69,"time":192.51162790697674,"velocity":0.33070866141732286},{"duration":0.04651162790696617,"midi":79,"time":192.51162790697674,"velocity":0.3779527559055118},{"duration":0.06976744186047767,"midi":83,"time":192.51162790697674,"velocity":0.28346456692913385},{"duration":0.13953488372092693,"midi":89,"time":192.51162790697674,"velocity":0.36220472440944884},{"duration":0.06976744186047767,"midi":90,"time":192.51162790697674,"velocity":0.16535433070866143},{"duration":0.023255813953483084,"midi":45,"time":192.52325581395348,"velocity":0.31496062992125984},{"duration":0.023255813953483084,"midi":70,"time":192.52325581395348,"velocity":0.2283464566929134},{"duration":0.08139534883721922,"midi":68,"time":192.53488372093022,"velocity":0.2440944881889764},{"duration":0.11627906976744384,"midi":94,"time":192.53488372093022,"velocity":0.13385826771653545},{"duration":0.12790697674418539,"midi":46,"time":192.54651162790697,"velocity":0.25196850393700787},{"duration":0.06976744186047767,"midi":71,"time":192.54651162790697,"velocity":0.2440944881889764},{"duration":0.09302325581396076,"midi":84,"time":192.54651162790697,"velocity":0.18110236220472442},{"duration":0.023255813953511506,"midi":36,"time":192.5581395348837,"velocity":0.2440944881889764},{"duration":0.023255813953511506,"midi":53,"time":192.5581395348837,"velocity":0.25984251968503935},{"duration":0.06976744186047767,"midi":78,"time":192.5581395348837,"velocity":0.33070866141732286},{"duration":0.06976744186047767,"midi":82,"time":192.5581395348837,"velocity":0.36220472440944884},{"duration":0.12790697674418539,"midi":86,"time":192.5581395348837,"velocity":0.3700787401574803},{"duration":0.05813953488370771,"midi":77,"time":192.58139534883722,"velocity":0.28346456692913385},{"duration":0.06976744186044925,"midi":34,"time":192.59302325581396,"velocity":0.2440944881889764},{"duration":0.023255813953483084,"midi":85,"time":192.59302325581396,"velocity":0.29133858267716534},{"duration":0.023255813953483084,"midi":69,"time":192.62790697674419,"velocity":0.2440944881889764},{"duration":0.04651162790696617,"midi":83,"time":192.62790697674419,"velocity":0.3858267716535433},{"duration":0.034883720930224626,"midi":90,"time":192.62790697674419,"velocity":0.28346456692913385},{"duration":0.05813953488373613,"midi":56,"time":192.63953488372093,"velocity":0.1968503937007874},{"duration":0.034883720930224626,"midi":63,"time":192.63953488372093,"velocity":0.2283464566929134},{"duration":0.2325581395348877,"midi":72,"time":192.63953488372093,"velocity":0.29133858267716534},{"duration":0.023255813953483084,"midi":78,"time":192.63953488372093,"velocity":0.30708661417322836},{"duration":0.034883720930224626,"midi":87,"time":192.63953488372093,"velocity":0.4645669291338583},{"duration":0.13953488372092693,"midi":68,"time":192.65116279069767,"velocity":0.2992125984251969},{"duration":0.2325581395348877,"midi":84,"time":192.65116279069767,"velocity":0.3779527559055118},{"duration":0.04651162790699459,"midi":79,"time":192.6627906976744,"velocity":0.30708661417322836},{"duration":0.06976744186047767,"midi":88,"time":192.67441860465115,"velocity":0.49606299212598426},{"duration":0.1279069767442138,"midi":99,"time":192.6860465116279,"velocity":0.23622047244094488},{"duration":0.034883720930224626,"midi":63,"time":192.69767441860466,"velocity":0.1732283464566929},{"duration":0.13953488372092693,"midi":94,"time":192.69767441860466,"velocity":0.1968503937007874},{"duration":0.05813953488370771,"midi":56,"time":192.7093023255814,"velocity":0.1889763779527559},{"duration":0.05813953488370771,"midi":60,"time":192.7093023255814,"velocity":0.1732283464566929},{"duration":0.3139534883720785,"midi":75,"time":192.7093023255814,"velocity":0.2677165354330709},{"duration":0.04651162790696617,"midi":82,"time":192.72093023255815,"velocity":0.12598425196850394},{"duration":0.05813953488370771,"midi":87,"time":192.72093023255815,"velocity":0.31496062992125984},{"duration":0.05813953488370771,"midi":101,"time":192.7325581395349,"velocity":0.11023622047244094},{"duration":0.13953488372092693,"midi":79,"time":192.74418604651163,"velocity":0.33858267716535434},{"duration":0.034883720930224626,"midi":90,"time":192.75581395348837,"velocity":0.14960629921259844},{"duration":0.034883720930224626,"midi":81,"time":192.7674418604651,"velocity":0.14960629921259844},{"duration":0.1046511627907023,"midi":88,"time":192.7674418604651,"velocity":0.4881889763779528},{"duration":0.04651162790699459,"midi":66,"time":192.77906976744185,"velocity":0.2440944881889764},{"duration":0.03488372093025305,"midi":82,"time":192.77906976744185,"velocity":0.14960629921259844},{"duration":0.04651162790699459,"midi":86,"time":192.77906976744185,"velocity":0.1732283464566929},{"duration":0.011627906976741542,"midi":48,"time":192.7906976744186,"velocity":0.5118110236220472},{"duration":0.08139534883721922,"midi":77,"time":192.7906976744186,"velocity":0.15748031496062992},{"duration":0.011627906976769964,"midi":45,"time":192.80232558139534,"velocity":0.5748031496062992},{"duration":0.1046511627907023,"midi":56,"time":192.80232558139534,"velocity":0.25984251968503935},{"duration":0.09302325581396076,"midi":63,"time":192.80232558139534,"velocity":0.25984251968503935},{"duration":0.011627906976741542,"midi":44,"time":192.8139534883721,"velocity":0.5748031496062992},{"duration":0.023255813953483084,"midi":42,"time":192.82558139534885,"velocity":0.5669291338582677},{"duration":0.034883720930224626,"midi":97,"time":192.82558139534885,"velocity":0.10236220472440945},{"duration":0.0813953488371908,"midi":101,"time":192.82558139534885,"velocity":0.2204724409448819},{"duration":0.09302325581393234,"midi":51,"time":192.8372093023256,"velocity":0.25984251968503935},{"duration":0.04651162790696617,"midi":82,"time":192.8372093023256,"velocity":0.13385826771653545},{"duration":0.011627906976741542,"midi":41,"time":192.84883720930233,"velocity":0.5275590551181102},{"duration":0.05813953488370771,"midi":93,"time":192.84883720930233,"velocity":0.11811023622047244},{"duration":0.023255813953483084,"midi":40,"time":192.86046511627907,"velocity":0.4566929133858268},{"duration":0.12790697674418539,"midi":87,"time":192.86046511627907,"velocity":0.44881889763779526},{"duration":0.06976744186047767,"midi":60,"time":192.87209302325581,"velocity":0.1968503937007874},{"duration":0.4302325581395223,"midi":68,"time":192.87209302325581,"velocity":0.33858267716535434},{"duration":0.04651162790696617,"midi":81,"time":192.87209302325581,"velocity":0.11023622047244094},{"duration":0.04651162790696617,"midi":95,"time":192.87209302325581,"velocity":0.18110236220472442},{"duration":0.24418604651162923,"midi":102,"time":192.87209302325581,"velocity":0.23622047244094488},{"duration":0.04651162790696617,"midi":83,"time":192.88372093023256,"velocity":0.36220472440944884},{"duration":0.04651162790696617,"midi":90,"time":192.88372093023256,"velocity":0.3858267716535433},{"duration":0.1046511627907023,"midi":100,"time":192.88372093023256,"velocity":0.25984251968503935},{"duration":0.034883720930224626,"midi":71,"time":192.8953488372093,"velocity":0.25196850393700787},{"duration":0.13953488372092693,"midi":79,"time":192.8953488372093,"velocity":0.23622047244094488},{"duration":0.03488372093025305,"midi":35,"time":192.90697674418604,"velocity":0.3700787401574803},{"duration":0.03488372093025305,"midi":78,"time":192.90697674418604,"velocity":0.1968503937007874},{"duration":0.03488372093025305,"midi":88,"time":192.90697674418604,"velocity":0.31496062992125984},{"duration":0.1046511627907023,"midi":92,"time":192.90697674418604,"velocity":0.14173228346456693},{"duration":0.05813953488373613,"midi":97,"time":192.90697674418604,"velocity":0.14173228346456693},{"duration":0.04651162790699459,"midi":82,"time":192.91860465116278,"velocity":0.4409448818897638},{"duration":0.09302325581396076,"midi":98,"time":192.91860465116278,"velocity":0.2283464566929134},{"duration":0.05813953488373613,"midi":70,"time":192.93023255813952,"velocity":0.28346456692913385},{"duration":0.16279069767443843,"midi":86,"time":192.93023255813952,"velocity":0.33858267716535434},{"duration":0.11627906976744384,"midi":89,"time":192.93023255813952,"velocity":0.41732283464566927},{"duration":0.06976744186044925,"midi":77,"time":192.9418604651163,"velocity":0.3464566929133858},{"duration":0.034883720930224626,"midi":96,"time":192.9418604651163,"velocity":0.14173228346456693},{"duration":0.06976744186044925,"midi":84,"time":192.95348837209303,"velocity":0.1889763779527559},{"duration":0.06976744186044925,"midi":58,"time":192.97674418604652,"velocity":0.2204724409448819},{"duration":0.034883720930224626,"midi":82,"time":192.97674418604652,"velocity":0.3937007874015748},{"duration":0.09302325581396076,"midi":88,"time":192.97674418604652,"velocity":0.3228346456692913},{"duration":0.5930232558139608,"midi":72,"time":192.98837209302326,"velocity":0.3464566929133858},{"duration":0.023255813953483084,"midi":76,"time":193.01162790697674,"velocity":0.25984251968503935},{"duration":0.11627906976744384,"midi":81,"time":193.01162790697674,"velocity":0.4409448818897638},{"duration":0.034883720930224626,"midi":85,"time":193.01162790697674,"velocity":0.29133858267716534},{"duration":0.08139534883721922,"midi":77,"time":193.02325581395348,"velocity":0.29133858267716534},{"duration":0.034883720930224626,"midi":95,"time":193.02325581395348,"velocity":0.14173228346456693},{"duration":0.11627906976744384,"midi":103,"time":193.04651162790697,"velocity":0.2047244094488189},{"duration":0.16279069767443843,"midi":44,"time":193.0581395348837,"velocity":0.3464566929133858},{"duration":0.03488372093025305,"midi":74,"time":193.0581395348837,"velocity":0.2283464566929134},{"duration":0.08139534883721922,"midi":75,"time":193.0581395348837,"velocity":0.3464566929133858},{"duration":0.19767441860466306,"midi":89,"time":193.0581395348837,"velocity":0.3543307086614173},{"duration":0.0813953488371908,"midi":51,"time":193.06976744186048,"velocity":0.2677165354330709},{"duration":0.04651162790696617,"midi":79,"time":193.06976744186048,"velocity":0.4330708661417323},{"duration":0.04651162790696617,"midi":83,"time":193.06976744186048,"velocity":0.2047244094488189},{"duration":0.1046511627907023,"midi":82,"time":193.1046511627907,"velocity":0.2440944881889764},{"duration":0.05813953488370771,"midi":80,"time":193.11627906976744,"velocity":0.47244094488188976},{"duration":0.1046511627907023,"midi":32,"time":193.12790697674419,"velocity":0.2677165354330709},{"duration":0.04651162790696617,"midi":102,"time":193.13953488372093,"velocity":0.14173228346456693},{"duration":0.11627906976744384,"midi":75,"time":193.15116279069767,"velocity":0.3700787401574803},{"duration":0.04651162790699459,"midi":77,"time":193.15116279069767,"velocity":0.14960629921259844},{"duration":0.034883720930224626,"midi":88,"time":193.15116279069767,"velocity":0.18110236220472442},{"duration":0.04651162790699459,"midi":90,"time":193.15116279069767,"velocity":0.11023622047244094},{"duration":0.09302325581396076,"midi":97,"time":193.15116279069767,"velocity":0.11023622047244094},{"duration":0.03488372093025305,"midi":86,"time":193.1627906976744,"velocity":0.1889763779527559},{"duration":0.04651162790699459,"midi":91,"time":193.1627906976744,"velocity":0.14173228346456693},{"duration":0.04651162790699459,"midi":95,"time":193.1627906976744,"velocity":0.14173228346456693},{"duration":0.06976744186047767,"midi":79,"time":193.1860465116279,"velocity":0.3700787401574803},{"duration":0.023255813953511506,"midi":80,"time":193.1860465116279,"velocity":0.3779527559055118},{"duration":0.08139534883721922,"midi":83,"time":193.1860465116279,"velocity":0.13385826771653545},{"duration":0.034883720930224626,"midi":102,"time":193.2093023255814,"velocity":0.18110236220472442},{"duration":0.034883720930224626,"midi":86,"time":193.22093023255815,"velocity":0.2047244094488189},{"duration":0.16279069767441,"midi":90,"time":193.22093023255815,"velocity":0.3228346456692913},{"duration":0.034883720930224626,"midi":55,"time":193.2325581395349,"velocity":0.07086614173228346},{"duration":0.034883720930224626,"midi":56,"time":193.2674418604651,"velocity":0.29133858267716534},{"duration":0.034883720930224626,"midi":63,"time":193.2674418604651,"velocity":0.3464566929133858},{"duration":0.05813953488373613,"midi":98,"time":193.27906976744185,"velocity":0.09448818897637795},{"duration":0.023255813953511506,"midi":81,"time":193.2906976744186,"velocity":0.2283464566929134},{"duration":0.06976744186047767,"midi":88,"time":193.2906976744186,"velocity":0.25984251968503935},{"duration":0.05813953488373613,"midi":95,"time":193.2906976744186,"velocity":0.18110236220472442},{"duration":0.05813953488373613,"midi":97,"time":193.2906976744186,"velocity":0.16535433070866143},{"duration":0.023255813953511506,"midi":67,"time":193.30232558139534,"velocity":0.33070866141732286},{"duration":0.03488372093025305,"midi":82,"time":193.30232558139534,"velocity":0.13385826771653545},{"duration":0.05813953488373613,"midi":101,"time":193.30232558139534,"velocity":0.18110236220472442},{"duration":0.034883720930224626,"midi":45,"time":193.3139534883721,"velocity":0.6062992125984252},{"duration":0.09302325581393234,"midi":89,"time":193.3139534883721,"velocity":0.1732283464566929},{"duration":0.04651162790696617,"midi":91,"time":193.3139534883721,"velocity":0.16535433070866143},{"duration":0.034883720930224626,"midi":81,"time":193.32558139534885,"velocity":0.2047244094488189},{"duration":0.05813953488370771,"midi":85,"time":193.32558139534885,"velocity":0.11811023622047244},{"duration":0.034883720930224626,"midi":83,"time":193.3372093023256,"velocity":0.14960629921259844},{"duration":0.011627906976741542,"midi":43,"time":193.34883720930233,"velocity":0.5748031496062992},{"duration":0.023255813953483084,"midi":42,"time":193.36046511627907,"velocity":0.5590551181102362},{"duration":0.034883720930224626,"midi":79,"time":193.36046511627907,"velocity":0.2047244094488189},{"duration":0.04651162790696617,"midi":75,"time":193.37209302325581,"velocity":0.23622047244094488},{"duration":0.05813953488373613,"midi":63,"time":193.38372093023256,"velocity":0.16535433070866143},{"duration":0.023255813953483084,"midi":37,"time":193.40697674418604,"velocity":0.4094488188976378},{"duration":0.09302325581396076,"midi":56,"time":193.40697674418604,"velocity":0.28346456692913385},{"duration":0.22093023255814614,"midi":68,"time":193.40697674418604,"velocity":0.29133858267716534},{"duration":0.04651162790699459,"midi":79,"time":193.41860465116278,"velocity":0.18110236220472442},{"duration":0.023255813953511506,"midi":36,"time":193.43023255813952,"velocity":0.33070866141732286},{"duration":0.034883720930224626,"midi":63,"time":193.45348837209303,"velocity":0.14173228346456693},{"duration":0.23255813953485927,"midi":75,"time":193.45348837209303,"velocity":0.4409448818897638},{"duration":0.034883720930224626,"midi":99,"time":193.46511627906978,"velocity":0.08661417322834646},{"duration":0.03488372093025305,"midi":61,"time":193.5581395348837,"velocity":0.1889763779527559},{"duration":0.03488372093025305,"midi":86,"time":193.5581395348837,"velocity":0.2204724409448819},{"duration":0.05813953488373613,"midi":89,"time":193.5581395348837,"velocity":0.2283464566929134},{"duration":0.06976744186047767,"midi":90,"time":193.5581395348837,"velocity":0.18110236220472442},{"duration":0.06976744186044925,"midi":78,"time":193.56976744186048,"velocity":0.1889763779527559},{"duration":0.06976744186044925,"midi":81,"time":193.56976744186048,"velocity":0.14960629921259844},{"duration":0.04651162790696617,"midi":82,"time":193.56976744186048,"velocity":0.10236220472440945},{"duration":0.05813953488370771,"midi":92,"time":193.56976744186048,"velocity":0.2677165354330709},{"duration":0.13953488372092693,"midi":95,"time":193.56976744186048,"velocity":0.3700787401574803},{"duration":0.05813953488370771,"midi":96,"time":193.56976744186048,"velocity":0.29133858267716534},{"duration":0.11627906976744384,"midi":44,"time":193.58139534883722,"velocity":0.33858267716535434},{"duration":0.05813953488370771,"midi":93,"time":193.58139534883722,"velocity":0.2677165354330709},{"duration":0.13953488372092693,"midi":102,"time":193.58139534883722,"velocity":0.23622047244094488},{"duration":0.11627906976744384,"midi":72,"time":193.59302325581396,"velocity":0.28346456692913385},{"duration":0.16279069767441,"midi":94,"time":193.59302325581396,"velocity":0.2992125984251969},{"duration":0.05813953488370771,"midi":97,"time":193.59302325581396,"velocity":0.2283464566929134},{"duration":0.06976744186044925,"midi":51,"time":193.6046511627907,"velocity":0.2125984251968504},{"duration":0.06976744186044925,"midi":56,"time":193.6046511627907,"velocity":0.33858267716535434},{"duration":0.034883720930224626,"midi":69,"time":193.6046511627907,"velocity":0.2283464566929134},{"duration":0.3604651162790731,"midi":91,"time":193.6046511627907,"velocity":0.3779527559055118},{"duration":0.11627906976744384,"midi":98,"time":193.6046511627907,"velocity":0.16535433070866143},{"duration":0.1046511627907023,"midi":63,"time":193.61627906976744,"velocity":0.2440944881889764},{"duration":0.034883720930224626,"midi":80,"time":193.62790697674419,"velocity":0.13385826771653545},{"duration":0.034883720930224626,"midi":33,"time":193.63953488372093,"velocity":0.2204724409448819},{"duration":0.12790697674418539,"midi":82,"time":193.63953488372093,"velocity":0.14173228346456693},{"duration":0.2093023255814046,"midi":92,"time":193.63953488372093,"velocity":0.25196850393700787},{"duration":0.11627906976744384,"midi":96,"time":193.63953488372093,"velocity":0.2440944881889764},{"duration":0.034883720930224626,"midi":79,"time":193.65116279069767,"velocity":0.14173228346456693},{"duration":0.06976744186047767,"midi":93,"time":193.65116279069767,"velocity":0.2204724409448819},{"duration":0.1046511627907023,"midi":100,"time":193.65116279069767,"velocity":0.16535433070866143},{"duration":0.06976744186047767,"midi":86,"time":193.6627906976744,"velocity":0.1968503937007874},{"duration":0.03488372093025305,"midi":88,"time":193.6627906976744,"velocity":0.13385826771653545},{"duration":0.03488372093025305,"midi":32,"time":193.67441860465115,"velocity":0.2204724409448819},{"duration":0.04651162790699459,"midi":52,"time":193.67441860465115,"velocity":0.2204724409448819},{"duration":0.06976744186047767,"midi":74,"time":193.6860465116279,"velocity":0.30708661417322836},{"duration":0.16279069767443843,"midi":80,"time":193.6860465116279,"velocity":0.25196850393700787},{"duration":0.04651162790699459,"midi":89,"time":193.6860465116279,"velocity":0.2283464566929134},{"duration":0.023255813953483084,"midi":45,"time":193.69767441860466,"velocity":0.2440944881889764},{"duration":0.11627906976744384,"midi":75,"time":193.69767441860466,"velocity":0.25196850393700787},{"duration":0.06976744186044925,"midi":78,"time":193.69767441860466,"velocity":0.18110236220472442},{"duration":0.05813953488370771,"midi":90,"time":193.69767441860466,"velocity":0.1889763779527559},{"duration":0.1046511627907023,"midi":44,"time":193.72093023255815,"velocity":0.3464566929133858},{"duration":0.04651162790696617,"midi":51,"time":193.72093023255815,"velocity":0.25984251968503935},{"duration":0.04651162790696617,"midi":57,"time":193.72093023255815,"velocity":0.4015748031496063},{"duration":0.0813953488371908,"midi":68,"time":193.72093023255815,"velocity":0.23622047244094488},{"duration":0.034883720930224626,"midi":77,"time":193.72093023255815,"velocity":0.1732283464566929},{"duration":0.08139534883721922,"midi":63,"time":193.75581395348837,"velocity":0.31496062992125984},{"duration":0.023255813953483084,"midi":56,"time":193.7674418604651,"velocity":0.36220472440944884},{"duration":0.023255813953483084,"midi":33,"time":193.77906976744185,"velocity":0.2677165354330709},{"duration":0.13953488372092693,"midi":94,"time":193.77906976744185,"velocity":0.2047244094488189},{"duration":0.06976744186047767,"midi":95,"time":193.7906976744186,"velocity":0.25984251968503935},{"duration":0.03488372093025305,"midi":32,"time":193.80232558139534,"velocity":0.2677165354330709},{"duration":0.06976744186047767,"midi":72,"time":193.80232558139534,"velocity":0.4094488188976378},{"duration":0.05813953488373613,"midi":96,"time":193.80232558139534,"velocity":0.2283464566929134},{"duration":0.05813953488373613,"midi":100,"time":193.80232558139534,"velocity":0.2283464566929134},{"duration":0.19767441860466306,"midi":102,"time":193.80232558139534,"velocity":0.23622047244094488},{"duration":0.023255813953483084,"midi":81,"time":193.8139534883721,"velocity":0.2992125984251969},{"duration":0.034883720930224626,"midi":83,"time":193.8139534883721,"velocity":0.28346456692913385},{"duration":0.034883720930224626,"midi":90,"time":193.8139534883721,"velocity":0.15748031496062992},{"duration":0.034883720930224626,"midi":59,"time":193.82558139534885,"velocity":0.3543307086614173},{"duration":0.12790697674418539,"midi":75,"time":193.82558139534885,"velocity":0.3464566929133858},{"duration":0.04651162790696617,"midi":78,"time":193.82558139534885,"velocity":0.13385826771653545},{"duration":0.034883720930224626,"midi":85,"time":193.82558139534885,"velocity":0.09448818897637795},{"duration":0.11627906976744384,"midi":89,"time":193.82558139534885,"velocity":0.33858267716535434},{"duration":0.11627906976744384,"midi":97,"time":193.82558139534885,"velocity":0.13385826771653545},{"duration":0.3720930232558146,"midi":82,"time":193.8372093023256,"velocity":0.36220472440944884},{"duration":0.011627906976741542,"midi":48,"time":193.84883720930233,"velocity":0.5354330708661418},{"duration":0.011627906976741542,"midi":45,"time":193.86046511627907,"velocity":0.5905511811023622},{"duration":0.22093023255814614,"midi":92,"time":193.86046511627907,"velocity":0.2677165354330709},{"duration":0.011627906976741542,"midi":44,"time":193.87209302325581,"velocity":0.5984251968503937},{"duration":0.11627906976744384,"midi":73,"time":193.87209302325581,"velocity":0.48031496062992124},{"duration":0.11627906976744384,"midi":95,"time":193.87209302325581,"velocity":0.33070866141732286},{"duration":0.023255813953483084,"midi":42,"time":193.88372093023256,"velocity":0.5905511811023622},{"duration":0.034883720930224626,"midi":53,"time":193.88372093023256,"velocity":0.1732283464566929},{"duration":0.034883720930224626,"midi":93,"time":193.88372093023256,"velocity":0.07086614173228346},{"duration":0.05813953488373613,"midi":80,"time":193.8953488372093,"velocity":0.28346456692913385},{"duration":0.023255813953511506,"midi":57,"time":193.91860465116278,"velocity":0.23622047244094488},{"duration":0.03488372093025305,"midi":61,"time":193.91860465116278,"velocity":0.2755905511811024},{"duration":0.09302325581393234,"midi":56,"time":193.9418604651163,"velocity":0.33858267716535434},{"duration":0.11627906976741542,"midi":63,"time":193.9418604651163,"velocity":0.33070866141732286},{"duration":0.04651162790696617,"midi":90,"time":193.9418604651163,"velocity":0.4251968503937008},{"duration":0.023255813953483084,"midi":86,"time":193.95348837209303,"velocity":0.2677165354330709},{"duration":0.05813953488370771,"midi":96,"time":193.95348837209303,"velocity":0.28346456692913385},{"duration":0.19767441860463464,"midi":75,"time":193.96511627906978,"velocity":0.5039370078740157},{"duration":0.2906976744185954,"midi":80,"time":193.96511627906978,"velocity":0.36220472440944884},{"duration":0.15116279069766847,"midi":84,"time":193.96511627906978,"velocity":0.2755905511811024},{"duration":0.034883720930224626,"midi":89,"time":193.96511627906978,"velocity":0.1889763779527559},{"duration":0.023255813953483084,"midi":72,"time":193.97674418604652,"velocity":0.29133858267716534},{"duration":0.16279069767441,"midi":91,"time":193.97674418604652,"velocity":0.44881889763779526},{"duration":0.30232558139533694,"midi":99,"time":193.97674418604652,"velocity":0.23622047244094488},{"duration":0.034883720930224626,"midi":73,"time":194,"velocity":0.33070866141732286},{"duration":0.08139534883721922,"midi":60,"time":194.01162790697674,"velocity":0.2755905511811024},{"duration":0.16279069767441,"midi":95,"time":194.01162790697674,"velocity":0.2677165354330709},{"duration":0.30232558139536536,"midi":97,"time":194.01162790697674,"velocity":0.2755905511811024},{"duration":0.06976744186047767,"midi":89,"time":194.04651162790697,"velocity":0.14960629921259844},{"duration":0.04651162790696617,"midi":73,"time":194.06976744186048,"velocity":0.29133858267716534},{"duration":0.16279069767441,"midi":96,"time":194.08139534883722,"velocity":0.2992125984251969},{"duration":0.1860465116278931,"midi":61,"time":194.09302325581396,"velocity":0.3858267716535433},{"duration":0.2674418604651123,"midi":68,"time":194.09302325581396,"velocity":0.31496062992125984},{"duration":0.04651162790696617,"midi":86,"time":194.09302325581396,"velocity":0.1889763779527559},{"duration":0.12790697674418539,"midi":100,"time":194.09302325581396,"velocity":0.11811023622047244},{"duration":0.13953488372092693,"midi":102,"time":194.09302325581396,"velocity":0.3543307086614173},{"duration":0.034883720930224626,"midi":78,"time":194.1046511627907,"velocity":0.18110236220472442},{"duration":0.04651162790696617,"midi":90,"time":194.1046511627907,"velocity":0.3779527559055118},{"duration":0.023255813953483084,"midi":41,"time":194.11627906976744,"velocity":0.29133858267716534},{"duration":0.023255813953483084,"midi":74,"time":194.11627906976744,"velocity":0.3937007874015748},{"duration":0.1046511627907023,"midi":77,"time":194.12790697674419,"velocity":0.11023622047244094},{"duration":0.16279069767441,"midi":85,"time":194.12790697674419,"velocity":0.2125984251968504},{"duration":0.023255813953483084,"midi":40,"time":194.13953488372093,"velocity":0.31496062992125984},{"duration":0.16279069767441,"midi":73,"time":194.13953488372093,"velocity":0.4251968503937008},{"duration":0.18604651162792152,"midi":89,"time":194.13953488372093,"velocity":0.30708661417322836},{"duration":0.16279069767441,"midi":103,"time":194.13953488372093,"velocity":0.2283464566929134},{"duration":0.11627906976744384,"midi":56,"time":194.15116279069767,"velocity":0.3543307086614173},{"duration":0.17441860465117998,"midi":91,"time":194.15116279069767,"velocity":0.2047244094488189},{"duration":0.04651162790699459,"midi":93,"time":194.15116279069767,"velocity":0.10236220472440945},{"duration":0.03488372093025305,"midi":48,"time":194.1627906976744,"velocity":0.2204724409448819},{"duration":0.023255813953511506,"midi":41,"time":194.17441860465115,"velocity":0.2283464566929134},{"duration":0.05813953488373613,"midi":75,"time":194.17441860465115,"velocity":0.11023622047244094},{"duration":0.06976744186047767,"midi":84,"time":194.1860465116279,"velocity":0.2283464566929134},{"duration":0.034883720930224626,"midi":30,"time":194.2093023255814,"velocity":0.1968503937007874},{"duration":0.0813953488371908,"midi":95,"time":194.2093023255814,"velocity":0.28346456692913385},{"duration":0.04651162790696617,"midi":78,"time":194.22093023255815,"velocity":0.2047244094488189},{"duration":0.06976744186044925,"midi":87,"time":194.2325581395349,"velocity":0.14960629921259844},{"duration":0.05813953488370771,"midi":75,"time":194.24418604651163,"velocity":0.28346456692913385},{"duration":0.034883720930224626,"midi":83,"time":194.24418604651163,"velocity":0.1732283464566929},{"duration":0.09302325581396076,"midi":48,"time":194.25581395348837,"velocity":0.2440944881889764},{"duration":0.05813953488373613,"midi":77,"time":194.25581395348837,"velocity":0.18110236220472442},{"duration":0.034883720930224626,"midi":93,"time":194.25581395348837,"velocity":0.07874015748031496},{"duration":0.023255813953483084,"midi":40,"time":194.2674418604651,"velocity":0.30708661417322836},{"duration":0.023255813953483084,"midi":53,"time":194.2674418604651,"velocity":0.25196850393700787},{"duration":0.023255813953483084,"midi":55,"time":194.27906976744185,"velocity":0.3228346456692913},{"duration":0.04651162790699459,"midi":84,"time":194.27906976744185,"velocity":0.15748031496062992},{"duration":0.03488372093025305,"midi":61,"time":194.2906976744186,"velocity":0.2125984251968504},{"duration":0.03488372093025305,"midi":56,"time":194.30232558139534,"velocity":0.33070866141732286},{"duration":0.32558139534884845,"midi":85,"time":194.30232558139534,"velocity":0.2283464566929134},{"duration":0.11627906976744384,"midi":90,"time":194.30232558139534,"velocity":0.3543307086614173},{"duration":0.034883720930224626,"midi":41,"time":194.3139534883721,"velocity":0.2440944881889764},{"duration":0.0813953488371908,"midi":73,"time":194.3139534883721,"velocity":0.3464566929133858},{"duration":0.12790697674418539,"midi":95,"time":194.32558139534885,"velocity":0.1732283464566929},{"duration":0.25581395348837077,"midi":96,"time":194.32558139534885,"velocity":0.23622047244094488},{"duration":0.034883720930224626,"midi":30,"time":194.3372093023256,"velocity":0.2125984251968504},{"duration":0.034883720930224626,"midi":57,"time":194.3372093023256,"velocity":0.4409448818897638},{"duration":0.2325581395348877,"midi":97,"time":194.3372093023256,"velocity":0.2440944881889764},{"duration":0.13953488372092693,"midi":101,"time":194.3372093023256,"velocity":0.2283464566929134},{"duration":0.04651162790696617,"midi":64,"time":194.34883720930233,"velocity":0.3228346456692913},{"duration":0.034883720930224626,"midi":82,"time":194.34883720930233,"velocity":0.11811023622047244},{"duration":0.17441860465115155,"midi":89,"time":194.34883720930233,"velocity":0.28346456692913385},{"duration":0.1860465116278931,"midi":100,"time":194.34883720930233,"velocity":0.18110236220472442},{"duration":0.034883720930224626,"midi":60,"time":194.36046511627907,"velocity":0.3779527559055118},{"duration":0.034883720930224626,"midi":67,"time":194.36046511627907,"velocity":0.29133858267716534},{"duration":0.06976744186044925,"midi":77,"time":194.36046511627907,"velocity":0.12598425196850394},{"duration":0.034883720930224626,"midi":87,"time":194.36046511627907,"velocity":0.1732283464566929},{"duration":0.05813953488370771,"midi":92,"time":194.36046511627907,"velocity":0.2755905511811024},{"duration":0.06976744186044925,"midi":94,"time":194.36046511627907,"velocity":0.23622047244094488},{"duration":0.11627906976744384,"midi":103,"time":194.36046511627907,"velocity":0.25984251968503935},{"duration":0.04651162790696617,"midi":83,"time":194.37209302325581,"velocity":0.18110236220472442},{"duration":0.05813953488370771,"midi":88,"time":194.37209302325581,"velocity":0.2047244094488189},{"duration":0.05813953488370771,"midi":91,"time":194.37209302325581,"velocity":0.29133858267716534},{"duration":0.034883720930224626,"midi":98,"time":194.37209302325581,"velocity":0.18110236220472442},{"duration":0.011627906976741542,"midi":45,"time":194.38372093023256,"velocity":0.5354330708661418},{"duration":0.05813953488373613,"midi":74,"time":194.38372093023256,"velocity":0.33858267716535434},{"duration":0.05813953488373613,"midi":99,"time":194.38372093023256,"velocity":0.25196850393700787},{"duration":0.023255813953483084,"midi":44,"time":194.3953488372093,"velocity":0.5984251968503937},{"duration":0.023255813953483084,"midi":61,"time":194.3953488372093,"velocity":0.4330708661417323},{"duration":0.023255813953483084,"midi":66,"time":194.3953488372093,"velocity":0.2992125984251969},{"duration":0.05813953488373613,"midi":93,"time":194.3953488372093,"velocity":0.3700787401574803},{"duration":0.023255813953511506,"midi":42,"time":194.41860465116278,"velocity":0.5433070866141733},{"duration":0.023255813953511506,"midi":62,"time":194.41860465116278,"velocity":0.47244094488188976},{"duration":0.12790697674418539,"midi":65,"time":194.41860465116278,"velocity":0.3700787401574803},{"duration":0.03488372093025305,"midi":87,"time":194.41860465116278,"velocity":0.12598425196850394},{"duration":0.03488372093025305,"midi":98,"time":194.43023255813952,"velocity":0.2047244094488189},{"duration":0.06976744186044925,"midi":61,"time":194.4418604651163,"velocity":0.48031496062992124},{"duration":0.034883720930224626,"midi":84,"time":194.4418604651163,"velocity":0.14960629921259844},{"duration":0.12790697674418539,"midi":92,"time":194.4418604651163,"velocity":0.4645669291338583},{"duration":0.0813953488371908,"midi":75,"time":194.45348837209303,"velocity":0.3228346456692913},{"duration":0.09302325581393234,"midi":82,"time":194.45348837209303,"velocity":0.1732283464566929},{"duration":0.06976744186044925,"midi":90,"time":194.46511627906978,"velocity":0.14173228346456693},{"duration":0.0813953488371908,"midi":94,"time":194.46511627906978,"velocity":0.3543307086614173},{"duration":0.04651162790696617,"midi":99,"time":194.46511627906978,"velocity":0.08661417322834646},{"duration":0.06976744186044925,"midi":93,"time":194.47674418604652,"velocity":0.14173228346456693},{"duration":0.034883720930224626,"midi":36,"time":194.48837209302326,"velocity":0.30708661417322836},{"duration":0.023255813953483084,"midi":72,"time":194.48837209302326,"velocity":0.4015748031496063},{"duration":0.034883720930224626,"midi":81,"time":194.48837209302326,"velocity":0.1732283464566929},{"duration":0.04651162790696617,"midi":88,"time":194.48837209302326,"velocity":0.25196850393700787},{"duration":0.034883720930224626,"midi":91,"time":194.48837209302326,"velocity":0.4645669291338583},{"duration":0.034883720930224626,"midi":95,"time":194.48837209302326,"velocity":0.1732283464566929},{"duration":0.023255813953483084,"midi":60,"time":194.51162790697674,"velocity":0.30708661417322836},{"duration":0.04651162790696617,"midi":73,"time":194.51162790697674,"velocity":0.3464566929133858},{"duration":0.034883720930224626,"midi":101,"time":194.52325581395348,"velocity":0.09448818897637795},{"duration":0.03488372093025305,"midi":61,"time":194.53488372093022,"velocity":0.4566929133858268},{"duration":0.05813953488373613,"midi":89,"time":194.53488372093022,"velocity":0.33858267716535434},{"duration":0.06976744186047767,"midi":91,"time":194.53488372093022,"velocity":0.2125984251968504},{"duration":0.04651162790699459,"midi":99,"time":194.53488372093022,"velocity":0.10236220472440945},{"duration":0.1046511627907023,"midi":103,"time":194.53488372093022,"velocity":0.31496062992125984},{"duration":0.023255813953511506,"midi":48,"time":194.54651162790697,"velocity":0.2283464566929134},{"duration":0.03488372093025305,"midi":74,"time":194.54651162790697,"velocity":0.4015748031496063},{"duration":0.1046511627907023,"midi":95,"time":194.54651162790697,"velocity":0.41732283464566927},{"duration":0.06976744186047767,"midi":36,"time":194.5581395348837,"velocity":0.2755905511811024},{"duration":0.12790697674418539,"midi":84,"time":194.5581395348837,"velocity":0.18110236220472442},{"duration":0.03488372093025305,"midi":94,"time":194.5581395348837,"velocity":0.07086614173228346},{"duration":0.05813953488370771,"midi":62,"time":194.56976744186048,"velocity":0.4251968503937008},{"duration":0.0813953488371908,"midi":90,"time":194.56976744186048,"velocity":0.3700787401574803},{"duration":0.04651162790696617,"midi":93,"time":194.56976744186048,"velocity":0.2992125984251969},{"duration":0.15116279069766847,"midi":73,"time":194.58139534883722,"velocity":0.4409448818897638},{"duration":0.04651162790696617,"midi":86,"time":194.58139534883722,"velocity":0.14173228346456693},{"duration":0.11627906976744384,"midi":100,"time":194.58139534883722,"velocity":0.09448818897637795},{"duration":0.34883720930233153,"midi":92,"time":194.6046511627907,"velocity":0.2677165354330709},{"duration":0.08139534883721922,"midi":70,"time":194.61627906976744,"velocity":0.1889763779527559},{"duration":0.04651162790696617,"midi":81,"time":194.61627906976744,"velocity":0.2283464566929134},{"duration":0.04651162790696617,"midi":89,"time":194.61627906976744,"velocity":0.33070866141732286},{"duration":0.023255813953483084,"midi":61,"time":194.62790697674419,"velocity":0.5354330708661418},{"duration":0.034883720930224626,"midi":79,"time":194.62790697674419,"velocity":0.1968503937007874},{"duration":0.034883720930224626,"midi":83,"time":194.62790697674419,"velocity":0.11023622047244094},{"duration":0.023255813953483084,"midi":45,"time":194.63953488372093,"velocity":0.29133858267716534},{"duration":0.04651162790696617,"midi":76,"time":194.63953488372093,"velocity":0.23622047244094488},{"duration":0.023255813953483084,"midi":60,"time":194.65116279069767,"velocity":0.5118110236220472},{"duration":0.023255813953483084,"midi":65,"time":194.65116279069767,"velocity":0.2440944881889764},{"duration":0.08139534883721922,"midi":94,"time":194.65116279069767,"velocity":0.3228346456692913},{"duration":0.08139534883721922,"midi":46,"time":194.6627906976744,"velocity":0.2440944881889764},{"duration":0.05813953488373613,"midi":88,"time":194.6627906976744,"velocity":0.3700787401574803},{"duration":0.03488372093025305,"midi":54,"time":194.67441860465115,"velocity":0.2047244094488189},{"duration":0.023255813953511506,"midi":61,"time":194.67441860465115,"velocity":0.3779527559055118},{"duration":0.08139534883721922,"midi":66,"time":194.67441860465115,"velocity":0.3779527559055118},{"duration":0.04651162790699459,"midi":91,"time":194.6860465116279,"velocity":0.12598425196850394},{"duration":0.06976744186044925,"midi":84,"time":194.69767441860466,"velocity":0.14173228346456693},{"duration":0.0813953488371908,"midi":34,"time":194.7093023255814,"velocity":0.29133858267716534},{"duration":0.034883720930224626,"midi":61,"time":194.7093023255814,"velocity":0.44881889763779526},{"duration":0.13953488372092693,"midi":89,"time":194.7093023255814,"velocity":0.3228346456692913},{"duration":0.20930232558137618,"midi":95,"time":194.7093023255814,"velocity":0.31496062992125984},{"duration":0.16279069767441,"midi":56,"time":194.72093023255815,"velocity":0.3464566929133858},{"duration":0.05813953488370771,"midi":86,"time":194.72093023255815,"velocity":0.2204724409448819},{"duration":0.0813953488371908,"midi":93,"time":194.72093023255815,"velocity":0.2677165354330709},{"duration":0.04651162790696617,"midi":74,"time":194.7325581395349,"velocity":0.4015748031496063},{"duration":0.034883720930224626,"midi":80,"time":194.7325581395349,"velocity":0.2047244094488189},{"duration":0.04651162790696617,"midi":62,"time":194.74418604651163,"velocity":0.4409448818897638},{"duration":0.034883720930224626,"midi":51,"time":194.75581395348837,"velocity":0.16535433070866143},{"duration":0.12790697674418539,"midi":68,"time":194.75581395348837,"velocity":0.3779527559055118},{"duration":0.06976744186047767,"midi":85,"time":194.75581395348837,"velocity":0.14960629921259844},{"duration":0.11627906976744384,"midi":77,"time":194.7674418604651,"velocity":0.2755905511811024},{"duration":0.034883720930224626,"midi":81,"time":194.7674418604651,"velocity":0.15748031496062992},{"duration":0.04651162790699459,"midi":65,"time":194.77906976744185,"velocity":0.3228346456692913},{"duration":0.06976744186047767,"midi":61,"time":194.7906976744186,"velocity":0.44881889763779526},{"duration":0.03488372093025305,"midi":75,"time":194.80232558139534,"velocity":0.07086614173228346},{"duration":0.04651162790696617,"midi":88,"time":194.84883720930233,"velocity":0.23622047244094488},{"duration":0.16279069767441,"midi":73,"time":194.86046511627907,"velocity":0.3937007874015748},{"duration":0.08139534883721922,"midi":84,"time":194.87209302325581,"velocity":0.12598425196850394},{"duration":0.04651162790696617,"midi":94,"time":194.87209302325581,"velocity":0.15748031496062992},{"duration":0.023255813953483084,"midi":55,"time":194.88372093023256,"velocity":0.25984251968503935},{"duration":0.034883720930224626,"midi":66,"time":194.88372093023256,"velocity":0.3464566929133858},{"duration":0.023255813953483084,"midi":69,"time":194.88372093023256,"velocity":0.3464566929133858},{"duration":0.034883720930224626,"midi":93,"time":194.88372093023256,"velocity":0.11023622047244094},{"duration":0.04651162790696617,"midi":96,"time":194.88372093023256,"velocity":0.1889763779527559},{"duration":0.034883720930224626,"midi":98,"time":194.88372093023256,"velocity":0.13385826771653545},{"duration":0.034883720930224626,"midi":102,"time":194.88372093023256,"velocity":0.12598425196850394},{"duration":0.05813953488373613,"midi":103,"time":194.88372093023256,"velocity":0.12598425196850394},{"duration":0.13953488372092693,"midi":61,"time":194.8953488372093,"velocity":0.3858267716535433},{"duration":0.32558139534884845,"midi":77,"time":194.8953488372093,"velocity":0.3464566929133858},{"duration":0.034883720930224626,"midi":87,"time":194.8953488372093,"velocity":0.07086614173228346},{"duration":0.06976744186047767,"midi":99,"time":194.8953488372093,"velocity":0.09448818897637795},{"duration":0.03488372093025305,"midi":68,"time":194.90697674418604,"velocity":0.3228346456692913},{"duration":0.011627906976741542,"midi":46,"time":194.91860465116278,"velocity":0.5826771653543307},{"duration":0.011627906976769964,"midi":45,"time":194.93023255813952,"velocity":0.6220472440944882},{"duration":0.011627906976741542,"midi":44,"time":194.9418604651163,"velocity":0.5905511811023622},{"duration":0.023255813953483084,"midi":42,"time":194.95348837209303,"velocity":0.5748031496062992},{"duration":0.05813953488370771,"midi":65,"time":194.95348837209303,"velocity":0.2440944881889764},{"duration":0.09302325581393234,"midi":68,"time":194.96511627906978,"velocity":0.4094488188976378},{"duration":0.12790697674418539,"midi":75,"time":194.96511627906978,"velocity":0.23622047244094488},{"duration":0.5813953488371908,"midi":92,"time":194.96511627906978,"velocity":0.2755905511811024},{"duration":0.034883720930224626,"midi":36,"time":195.02325581395348,"velocity":0.33858267716535434},{"duration":0.08139534883721922,"midi":91,"time":195.02325581395348,"velocity":0.2125984251968504},{"duration":0.08139534883721922,"midi":66,"time":195.03488372093022,"velocity":0.2755905511811024},{"duration":0.25581395348837077,"midi":73,"time":195.03488372093022,"velocity":0.4251968503937008},{"duration":0.08139534883721922,"midi":97,"time":195.03488372093022,"velocity":0.1889763779527559},{"duration":0.023255813953511506,"midi":61,"time":195.04651162790697,"velocity":0.25196850393700787},{"duration":0.05813953488373613,"midi":93,"time":195.04651162790697,"velocity":0.12598425196850394},{"duration":0.08139534883721922,"midi":99,"time":195.04651162790697,"velocity":0.1732283464566929},{"duration":0.15116279069766847,"midi":68,"time":195.06976744186048,"velocity":0.4251968503937008},{"duration":0.10465116279067388,"midi":95,"time":195.08139534883722,"velocity":0.1732283464566929},{"duration":0.0813953488371908,"midi":61,"time":195.09302325581396,"velocity":0.3779527559055118},{"duration":0.13953488372092693,"midi":65,"time":195.11627906976744,"velocity":0.2992125984251969},{"duration":0.05813953488370771,"midi":84,"time":195.11627906976744,"velocity":0.13385826771653545},{"duration":0.034883720930224626,"midi":75,"time":195.12790697674419,"velocity":0.2204724409448819},{"duration":0.023255813953483084,"midi":57,"time":195.15116279069767,"velocity":0.33070866141732286},{"duration":0.023255813953483084,"midi":74,"time":195.15116279069767,"velocity":0.2992125984251969},{"duration":0.05813953488373613,"midi":51,"time":195.1627906976744,"velocity":0.3543307086614173},{"duration":0.06976744186047767,"midi":81,"time":195.1627906976744,"velocity":0.25196850393700787},{"duration":0.03488372093025305,"midi":90,"time":195.1627906976744,"velocity":0.14173228346456693},{"duration":0.11627906976744384,"midi":44,"time":195.17441860465115,"velocity":0.3700787401574803},{"duration":0.08139534883721922,"midi":75,"time":195.17441860465115,"velocity":0.29133858267716534},{"duration":0.023255813953483084,"midi":53,"time":195.22093023255815,"velocity":0.3543307086614173},{"duration":0.023255813953483084,"midi":61,"time":195.22093023255815,"velocity":0.30708661417322836},{"duration":0.023255813953483084,"midi":33,"time":195.2325581395349,"velocity":0.29133858267716534},{"duration":0.023255813953483084,"midi":62,"time":195.24418604651163,"velocity":0.25196850393700787},{"duration":0.09302325581396076,"midi":68,"time":195.24418604651163,"velocity":0.31496062992125984},{"duration":0.08139534883721922,"midi":32,"time":195.25581395348837,"velocity":0.30708661417322836},{"duration":0.023255813953483084,"midi":66,"time":195.25581395348837,"velocity":0.2283464566929134},{"duration":0.023255813953483084,"midi":61,"time":195.2674418604651,"velocity":0.2677165354330709},{"duration":0.03488372093025305,"midi":50,"time":195.27906976744185,"velocity":0.1968503937007874},{"duration":0.09302325581396076,"midi":65,"time":195.27906976744185,"velocity":0.2677165354330709},{"duration":0.03488372093025305,"midi":95,"time":195.27906976744185,"velocity":0.11811023622047244},{"duration":0.03488372093025305,"midi":78,"time":195.2906976744186,"velocity":0.2440944881889764},{"duration":0.03488372093025305,"midi":84,"time":195.2906976744186,"velocity":0.10236220472440945},{"duration":0.06976744186047767,"midi":85,"time":195.2906976744186,"velocity":0.14173228346456693},{"duration":0.04651162790699459,"midi":93,"time":195.2906976744186,"velocity":0.12598425196850394},{"duration":0.1046511627907023,"midi":77,"time":195.30232558139534,"velocity":0.28346456692913385},{"duration":0.04651162790699459,"midi":99,"time":195.30232558139534,"velocity":0.11023622047244094},{"duration":0.034883720930224626,"midi":75,"time":195.3139534883721,"velocity":0.1732283464566929},{"duration":0.0813953488371908,"midi":61,"time":195.32558139534885,"velocity":0.3543307086614173},{"duration":0.05813953488370771,"midi":73,"time":195.32558139534885,"velocity":0.4015748031496063},{"duration":0.04651162790696617,"midi":94,"time":195.32558139534885,"velocity":0.08661417322834646},{"duration":0.19767441860463464,"midi":102,"time":195.32558139534885,"velocity":0.2755905511811024},{"duration":0.06976744186044925,"midi":90,"time":195.3372093023256,"velocity":0.2047244094488189},{"duration":0.12790697674418539,"midi":101,"time":195.3372093023256,"velocity":0.1732283464566929},{"duration":0.023255813953483084,"midi":68,"time":195.34883720930233,"velocity":0.28346456692913385},{"duration":0.023255813953483084,"midi":53,"time":195.36046511627907,"velocity":0.2677165354330709},{"duration":0.04651162790696617,"midi":57,"time":195.38372093023256,"velocity":0.3464566929133858},{"duration":0.023255813953483084,"midi":66,"time":195.38372093023256,"velocity":0.2755905511811024},{"duration":0.034883720930224626,"midi":75,"time":195.38372093023256,"velocity":0.2047244094488189},{"duration":0.023255813953483084,"midi":62,"time":195.40697674418604,"velocity":0.4409448818897638},{"duration":0.023255813953483084,"midi":65,"time":195.40697674418604,"velocity":0.4015748031496063},{"duration":0.06976744186047767,"midi":93,"time":195.40697674418604,"velocity":0.1968503937007874},{"duration":0.08139534883721922,"midi":82,"time":195.41860465116278,"velocity":0.2047244094488189},{"duration":0.1046511627907023,"midi":87,"time":195.41860465116278,"velocity":0.16535433070866143},{"duration":0.06976744186047767,"midi":88,"time":195.41860465116278,"velocity":0.2125984251968504},{"duration":0.05813953488373613,"midi":89,"time":195.41860465116278,"velocity":0.2125984251968504},{"duration":0.09302325581396076,"midi":90,"time":195.41860465116278,"velocity":0.30708661417322836},{"duration":0.1046511627907023,"midi":95,"time":195.41860465116278,"velocity":0.1889763779527559},{"duration":0.38372093023255616,"midi":97,"time":195.41860465116278,"velocity":0.25196850393700787},{"duration":0.03488372093025305,"midi":98,"time":195.41860465116278,"velocity":0.1889763779527559},{"duration":0.08139534883721922,"midi":100,"time":195.41860465116278,"velocity":0.2204724409448819},{"duration":0.05813953488373613,"midi":103,"time":195.41860465116278,"velocity":0.2047244094488189},{"duration":0.023255813953511506,"midi":61,"time":195.43023255813952,"velocity":0.41732283464566927},{"duration":0.1046511627907023,"midi":68,"time":195.43023255813952,"velocity":0.3937007874015748},{"duration":0.03488372093025305,"midi":77,"time":195.43023255813952,"velocity":0.2283464566929134},{"duration":0.04651162790699459,"midi":79,"time":195.43023255813952,"velocity":0.18110236220472442},{"duration":0.05813953488373613,"midi":83,"time":195.43023255813952,"velocity":0.14173228346456693},{"duration":0.06976744186047767,"midi":99,"time":195.43023255813952,"velocity":0.2440944881889764},{"duration":0.023255813953483084,"midi":45,"time":195.4418604651163,"velocity":0.5826771653543307},{"duration":0.023255813953483084,"midi":56,"time":195.4418604651163,"velocity":0.4094488188976378},{"duration":0.11627906976741542,"midi":85,"time":195.4418604651163,"velocity":0.2204724409448819},{"duration":0.034883720930224626,"midi":91,"time":195.4418604651163,"velocity":0.2125984251968504},{"duration":0.011627906976741542,"midi":44,"time":195.46511627906978,"velocity":0.5826771653543307},{"duration":0.06976744186044925,"midi":65,"time":195.46511627906978,"velocity":0.18110236220472442},{"duration":0.04651162790696617,"midi":75,"time":195.46511627906978,"velocity":0.3543307086614173},{"duration":0.0813953488371908,"midi":96,"time":195.46511627906978,"velocity":0.14960629921259844},{"duration":0.011627906976741542,"midi":42,"time":195.47674418604652,"velocity":0.5669291338582677},{"duration":0.1046511627907023,"midi":56,"time":195.47674418604652,"velocity":0.41732283464566927},{"duration":0.034883720930224626,"midi":84,"time":195.47674418604652,"velocity":0.12598425196850394},{"duration":0.04651162790696617,"midi":98,"time":195.47674418604652,"velocity":0.2047244094488189},{"duration":0.023255813953483084,"midi":41,"time":195.48837209302326,"velocity":0.5039370078740157},{"duration":0.05813953488373613,"midi":73,"time":195.51162790697674,"velocity":0.25984251968503935},{"duration":0.034883720930224626,"midi":89,"time":195.51162790697674,"velocity":0.14173228346456693},{"duration":0.13953488372092693,"midi":90,"time":195.52325581395348,"velocity":0.25984251968503935},{"duration":0.11627906976744384,"midi":94,"time":195.52325581395348,"velocity":0.18110236220472442},{"duration":0.04651162790699459,"midi":69,"time":195.53488372093022,"velocity":0.2047244094488189},{"duration":0.17441860465117998,"midi":86,"time":195.53488372093022,"velocity":0.30708661417322836},{"duration":0.05813953488373613,"midi":60,"time":195.54651162790697,"velocity":0.2204724409448819},{"duration":0.06976744186047767,"midi":66,"time":195.54651162790697,"velocity":0.23622047244094488},{"duration":0.023255813953511506,"midi":72,"time":195.54651162790697,"velocity":0.29133858267716534},{"duration":0.11627906976744384,"midi":77,"time":195.54651162790697,"velocity":0.33070866141732286},{"duration":0.03488372093025305,"midi":80,"time":195.54651162790697,"velocity":0.10236220472440945},{"duration":0.08139534883721922,"midi":88,"time":195.54651162790697,"velocity":0.28346456692913385},{"duration":0.023255813953511506,"midi":91,"time":195.54651162790697,"velocity":0.2440944881889764},{"duration":0.13953488372092693,"midi":95,"time":195.54651162790697,"velocity":0.18110236220472442},{"duration":0.06976744186047767,"midi":101,"time":195.54651162790697,"velocity":0.2125984251968504},{"duration":0.04651162790699459,"midi":74,"time":195.5581395348837,"velocity":0.23622047244094488},{"duration":0.05813953488373613,"midi":82,"time":195.5581395348837,"velocity":0.33858267716535434},{"duration":0.05813953488373613,"midi":96,"time":195.5581395348837,"velocity":0.12598425196850394},{"duration":0.12790697674418539,"midi":99,"time":195.5581395348837,"velocity":0.25984251968503935},{"duration":0.33720930232559,"midi":102,"time":195.5581395348837,"velocity":0.2992125984251969},{"duration":0.0813953488371908,"midi":44,"time":195.56976744186048,"velocity":0.3464566929133858},{"duration":0.04651162790696617,"midi":75,"time":195.56976744186048,"velocity":0.2047244094488189},{"duration":0.0813953488371908,"midi":85,"time":195.56976744186048,"velocity":0.2125984251968504},{"duration":0.10465116279067388,"midi":92,"time":195.56976744186048,"velocity":0.2440944881889764},{"duration":0.0813953488371908,"midi":93,"time":195.56976744186048,"velocity":0.14173228346456693},{"duration":0.023255813953483084,"midi":55,"time":195.58139534883722,"velocity":0.2755905511811024},{"duration":0.04651162790696617,"midi":68,"time":195.58139534883722,"velocity":0.2125984251968504},{"duration":0.0813953488371908,"midi":70,"time":195.58139534883722,"velocity":0.3700787401574803},{"duration":0.04651162790696617,"midi":81,"time":195.6046511627907,"velocity":0.13385826771653545},{"duration":0.034883720930224626,"midi":58,"time":195.61627906976744,"velocity":0.31496062992125984},{"duration":0.1046511627907023,"midi":32,"time":195.63953488372093,"velocity":0.2992125984251969},{"duration":0.023255813953483084,"midi":51,"time":195.63953488372093,"velocity":0.33070866141732286},{"duration":0.04651162790696617,"midi":68,"time":195.63953488372093,"velocity":0.2204724409448819},{"duration":0.05813953488373613,"midi":75,"time":195.63953488372093,"velocity":0.23622047244094488},{"duration":0.023255813953483084,"midi":55,"time":195.6627906976744,"velocity":0.3543307086614173},{"duration":0.03488372093025305,"midi":69,"time":195.6860465116279,"velocity":0.14960629921259844},{"duration":0.06976744186047767,"midi":73,"time":195.6860465116279,"velocity":0.48031496062992124},{"duration":0.03488372093025305,"midi":88,"time":195.6860465116279,"velocity":0.3228346456692913},{"duration":0.08139534883721922,"midi":94,"time":195.6860465116279,"velocity":0.16535433070866143},{"duration":0.04651162790699459,"midi":103,"time":195.6860465116279,"velocity":0.2125984251968504},{"duration":0.05813953488370771,"midi":61,"time":195.69767441860466,"velocity":0.30708661417322836},{"duration":0.05813953488370771,"midi":77,"time":195.69767441860466,"velocity":0.12598425196850394},{"duration":0.0813953488371908,"midi":92,"time":195.69767441860466,"velocity":0.15748031496062992},{"duration":0.15116279069766847,"midi":99,"time":195.69767441860466,"velocity":0.2283464566929134},{"duration":0.023255813953483084,"midi":57,"time":195.7093023255814,"velocity":0.23622047244094488},{"duration":0.06976744186044925,"midi":80,"time":195.7093023255814,"velocity":0.1889763779527559},{"duration":0.4767441860465169,"midi":101,"time":195.72093023255815,"velocity":0.31496062992125984},{"duration":0.023255813953483084,"midi":56,"time":195.74418604651163,"velocity":0.2677165354330709},{"duration":0.05813953488370771,"midi":84,"time":195.74418604651163,"velocity":0.31496062992125984},{"duration":0.06976744186047767,"midi":103,"time":195.74418604651163,"velocity":0.1889763779527559},{"duration":0.023255813953483084,"midi":51,"time":195.75581395348837,"velocity":0.25984251968503935},{"duration":0.04651162790696617,"midi":72,"time":195.75581395348837,"velocity":0.41732283464566927},{"duration":0.034883720930224626,"midi":89,"time":195.75581395348837,"velocity":0.11023622047244094},{"duration":0.034883720930224626,"midi":75,"time":195.7674418604651,"velocity":0.07086614173228346},{"duration":0.05813953488373613,"midi":82,"time":195.7674418604651,"velocity":0.11811023622047244},{"duration":0.03488372093025305,"midi":59,"time":195.77906976744185,"velocity":0.30708661417322836},{"duration":0.023255813953483084,"midi":70,"time":195.77906976744185,"velocity":0.29133858267716534},{"duration":0.03488372093025305,"midi":77,"time":195.77906976744185,"velocity":0.11811023622047244},{"duration":0.09302325581396076,"midi":86,"time":195.77906976744185,"velocity":0.2755905511811024},{"duration":0.13953488372092693,"midi":100,"time":195.7906976744186,"velocity":0.2677165354330709},{"duration":0.04651162790699459,"midi":66,"time":195.80232558139534,"velocity":0.4094488188976378},{"duration":0.023255813953511506,"midi":71,"time":195.80232558139534,"velocity":0.3228346456692913},{"duration":0.03488372093025305,"midi":76,"time":195.80232558139534,"velocity":0.15748031496062992},{"duration":0.2325581395348877,"midi":92,"time":195.80232558139534,"velocity":0.23622047244094488},{"duration":0.0813953488371908,"midi":90,"time":195.8139534883721,"velocity":0.2755905511811024},{"duration":0.04651162790696617,"midi":93,"time":195.8139534883721,"velocity":0.1732283464566929},{"duration":0.11627906976741542,"midi":94,"time":195.8139534883721,"velocity":0.33070866141732286},{"duration":0.023255813953483084,"midi":47,"time":195.82558139534885,"velocity":0.31496062992125984},{"duration":0.05813953488370771,"midi":70,"time":195.82558139534885,"velocity":0.33858267716535434},{"duration":0.05813953488370771,"midi":83,"time":195.82558139534885,"velocity":0.16535433070866143},{"duration":0.11627906976744384,"midi":88,"time":195.82558139534885,"velocity":0.1968503937007874},{"duration":0.034883720930224626,"midi":103,"time":195.82558139534885,"velocity":0.11023622047244094},{"duration":0.04651162790696617,"midi":77,"time":195.8372093023256,"velocity":0.14173228346456693},{"duration":0.0813953488371908,"midi":97,"time":195.8372093023256,"velocity":0.13385826771653545},{"duration":0.04651162790696617,"midi":51,"time":195.84883720930233,"velocity":0.3937007874015748},{"duration":0.034883720930224626,"midi":59,"time":195.84883720930233,"velocity":0.33070866141732286},{"duration":0.034883720930224626,"midi":79,"time":195.84883720930233,"velocity":0.1968503937007874},{"duration":0.06976744186044925,"midi":80,"time":195.84883720930233,"velocity":0.09448818897637795},{"duration":0.034883720930224626,"midi":84,"time":195.84883720930233,"velocity":0.07874015748031496},{"duration":0.05813953488370771,"midi":95,"time":195.84883720930233,"velocity":0.16535433070866143},{"duration":0.05813953488370771,"midi":37,"time":195.87209302325581,"velocity":0.33070866141732286},{"duration":0.023255813953483084,"midi":66,"time":195.87209302325581,"velocity":0.2677165354330709},{"duration":0.034883720930224626,"midi":103,"time":195.87209302325581,"velocity":0.14960629921259844},{"duration":0.05813953488373613,"midi":56,"time":195.8953488372093,"velocity":0.31496062992125984},{"duration":0.023255813953483084,"midi":66,"time":195.90697674418604,"velocity":0.2677165354330709},{"duration":0.04651162790699459,"midi":73,"time":195.90697674418604,"velocity":0.4094488188976378},{"duration":0.023255813953511506,"midi":47,"time":195.91860465116278,"velocity":0.25984251968503935},{"duration":0.2674418604651123,"midi":99,"time":195.91860465116278,"velocity":0.3228346456692913},{"duration":0.32558139534884845,"midi":96,"time":195.93023255813952,"velocity":0.31496062992125984},{"duration":0.08139534883721922,"midi":98,"time":195.93023255813952,"velocity":0.18110236220472442},{"duration":0.13953488372095535,"midi":102,"time":195.93023255813952,"velocity":0.2047244094488189},{"duration":0.023255813953483084,"midi":66,"time":195.9418604651163,"velocity":0.3779527559055118},{"duration":0.15116279069766847,"midi":82,"time":195.9418604651163,"velocity":0.2440944881889764},{"duration":0.034883720930224626,"midi":83,"time":195.9418604651163,"velocity":0.13385826771653545},{"duration":0.04651162790696617,"midi":95,"time":195.9418604651163,"velocity":0.2125984251968504},{"duration":0.05813953488370771,"midi":100,"time":195.9418604651163,"velocity":0.18110236220472442},{"duration":0.034883720930224626,"midi":54,"time":195.95348837209303,"velocity":0.3779527559055118},{"duration":0.04651162790696617,"midi":76,"time":195.95348837209303,"velocity":0.2125984251968504},{"duration":0.3720930232558146,"midi":93,"time":195.95348837209303,"velocity":0.5039370078740157},{"duration":0.023255813953483084,"midi":59,"time":195.96511627906978,"velocity":0.30708661417322836},{"duration":0.023255813953483084,"midi":64,"time":195.96511627906978,"velocity":0.4015748031496063},{"duration":0.06976744186044925,"midi":73,"time":195.96511627906978,"velocity":0.2992125984251969},{"duration":0.13953488372092693,"midi":89,"time":195.96511627906978,"velocity":0.25984251968503935},{"duration":0.011627906976741542,"midi":45,"time":195.97674418604652,"velocity":0.5590551181102362},{"duration":0.011627906976741542,"midi":44,"time":195.98837209302326,"velocity":0.5826771653543307},{"duration":0.023255813953483084,"midi":66,"time":195.98837209302326,"velocity":0.3700787401574803},{"duration":0.09302325581396076,"midi":70,"time":195.98837209302326,"velocity":0.33858267716535434},{"duration":0.023255813953483084,"midi":43,"time":196,"velocity":0.5669291338582677},{"duration":0.16279069767441,"midi":61,"time":196,"velocity":0.33858267716535434},{"duration":0.034883720930224626,"midi":75,"time":196,"velocity":0.09448818897637795},{"duration":0.12790697674418539,"midi":80,"time":196.01162790697674,"velocity":0.2755905511811024},{"duration":0.11627906976744384,"midi":67,"time":196.02325581395348,"velocity":0.44881889763779526},{"duration":0.04651162790699459,"midi":72,"time":196.02325581395348,"velocity":0.29133858267716534},{"duration":0.034883720930224626,"midi":98,"time":196.02325581395348,"velocity":0.13385826771653545},{"duration":0.04651162790699459,"midi":103,"time":196.04651162790697,"velocity":0.1968503937007874},{"duration":0.023255813953511506,"midi":54,"time":196.0581395348837,"velocity":0.29133858267716534},{"duration":0.11627906976744384,"midi":95,"time":196.0581395348837,"velocity":0.2047244094488189},{"duration":0.30232558139533694,"midi":73,"time":196.06976744186048,"velocity":0.3779527559055118},{"duration":0.04651162790696617,"midi":78,"time":196.06976744186048,"velocity":0.12598425196850394},{"duration":0.05813953488370771,"midi":84,"time":196.08139534883722,"velocity":0.16535433070866143},{"duration":0.023255813953483084,"midi":36,"time":196.09302325581396,"velocity":0.28346456692913385},{"duration":0.0813953488371908,"midi":77,"time":196.1046511627907,"velocity":0.25196850393700787},{"duration":0.15116279069766847,"midi":65,"time":196.11627906976744,"velocity":0.3937007874015748},{"duration":0.30232558139533694,"midi":82,"time":196.11627906976744,"velocity":0.25196850393700787},{"duration":0.5,"midi":89,"time":196.11627906976744,"velocity":0.31496062992125984},{"duration":0.11627906976744384,"midi":68,"time":196.13953488372093,"velocity":0.4015748031496063},{"duration":0.034883720930224626,"midi":102,"time":196.13953488372093,"velocity":0.07874015748031496},{"duration":0.05813953488373613,"midi":86,"time":196.15116279069767,"velocity":0.07874015748031496},{"duration":0.06976744186047767,"midi":78,"time":196.1627906976744,"velocity":0.1968503937007874},{"duration":0.03488372093025305,"midi":103,"time":196.1627906976744,"velocity":0.11023622047244094},{"duration":0.2093023255814046,"midi":61,"time":196.1860465116279,"velocity":0.31496062992125984},{"duration":0.05813953488370771,"midi":81,"time":196.2093023255814,"velocity":0.1732283464566929},{"duration":0.1046511627907023,"midi":84,"time":196.22093023255815,"velocity":0.18110236220472442},{"duration":0.034883720930224626,"midi":67,"time":196.25581395348837,"velocity":0.4251968503937008},{"duration":0.04651162790699459,"midi":70,"time":196.2674418604651,"velocity":0.1732283464566929},{"duration":0.08139534883721922,"midi":80,"time":196.2674418604651,"velocity":0.1968503937007874},{"duration":0.03488372093025305,"midi":55,"time":196.27906976744185,"velocity":0.2204724409448819},{"duration":0.16279069767443843,"midi":97,"time":196.27906976744185,"velocity":0.15748031496062992},{"duration":0.1511627906976969,"midi":68,"time":196.2906976744186,"velocity":0.4645669291338583},{"duration":0.36046511627904465,"midi":96,"time":196.3139534883721,"velocity":0.33858267716535434},{"duration":0.0813953488371908,"midi":102,"time":196.32558139534885,"velocity":0.1968503937007874},{"duration":0.034883720930224626,"midi":78,"time":196.3372093023256,"velocity":0.2204724409448819},{"duration":0.034883720930224626,"midi":83,"time":196.3372093023256,"velocity":0.18110236220472442},{"duration":0.1046511627907023,"midi":87,"time":196.3372093023256,"velocity":0.13385826771653545},{"duration":0.3139534883720785,"midi":93,"time":196.3372093023256,"velocity":0.3228346456692913},{"duration":0.034883720930224626,"midi":45,"time":196.34883720930233,"velocity":0.1968503937007874},{"duration":0.04651162790696617,"midi":70,"time":196.34883720930233,"velocity":0.3700787401574803},{"duration":0.034883720930224626,"midi":81,"time":196.34883720930233,"velocity":0.1968503937007874},{"duration":0.05813953488370771,"midi":92,"time":196.34883720930233,"velocity":0.2677165354330709},{"duration":0.04651162790696617,"midi":98,"time":196.34883720930233,"velocity":0.13385826771653545},{"duration":0.12790697674418539,"midi":65,"time":196.36046511627907,"velocity":0.5354330708661418},{"duration":0.05813953488370771,"midi":74,"time":196.36046511627907,"velocity":0.3464566929133858},{"duration":0.04651162790696617,"midi":100,"time":196.36046511627907,"velocity":0.2755905511811024},{"duration":0.04651162790696617,"midi":37,"time":196.37209302325581,"velocity":0.33070866141732286},{"duration":0.17441860465115155,"midi":99,"time":196.37209302325581,"velocity":0.2283464566929134},{"duration":0.19767441860466306,"midi":103,"time":196.38372093023256,"velocity":0.31496062992125984},{"duration":0.11627906976744384,"midi":85,"time":196.3953488372093,"velocity":0.2440944881889764},{"duration":0.04651162790699459,"midi":55,"time":196.40697674418604,"velocity":0.2204724409448819},{"duration":0.03488372093025305,"midi":78,"time":196.40697674418604,"velocity":0.15748031496062992},{"duration":0.2093023255814046,"midi":73,"time":196.41860465116278,"velocity":0.3937007874015748},{"duration":0.25581395348837077,"midi":92,"time":196.41860465116278,"velocity":0.2047244094488189},{"duration":0.06976744186047767,"midi":70,"time":196.43023255813952,"velocity":0.3228346456692913},{"duration":0.04651162790696617,"midi":84,"time":196.45348837209303,"velocity":0.15748031496062992},{"duration":0.05813953488370771,"midi":95,"time":196.45348837209303,"velocity":0.2204724409448819},{"duration":0.06976744186044925,"midi":100,"time":196.46511627906978,"velocity":0.13385826771653545},{"duration":0.12790697674418539,"midi":102,"time":196.46511627906978,"velocity":0.2125984251968504},{"duration":0.04651162790696617,"midi":87,"time":196.47674418604652,"velocity":0.2440944881889764},{"duration":0.034883720930224626,"midi":88,"time":196.47674418604652,"velocity":0.25984251968503935},{"duration":0.05813953488370771,"midi":90,"time":196.47674418604652,"velocity":0.2677165354330709},{"duration":0.06976744186044925,"midi":94,"time":196.47674418604652,"velocity":0.2204724409448819},{"duration":0.034883720930224626,"midi":45,"time":196.48837209302326,"velocity":0.5826771653543307},{"duration":0.023255813953483084,"midi":55,"time":196.48837209302326,"velocity":0.4566929133858268},{"duration":0.023255813953483084,"midi":64,"time":196.48837209302326,"velocity":0.4094488188976378},{"duration":0.05813953488370771,"midi":68,"time":196.48837209302326,"velocity":0.31496062992125984},{"duration":0.034883720930224626,"midi":98,"time":196.48837209302326,"velocity":0.15748031496062992},{"duration":0.034883720930224626,"midi":83,"time":196.5,"velocity":0.16535433070866143},{"duration":0.04651162790696617,"midi":91,"time":196.5,"velocity":0.1732283464566929},{"duration":0.11627906976744384,"midi":65,"time":196.51162790697674,"velocity":0.4566929133858268},{"duration":0.034883720930224626,"midi":70,"time":196.51162790697674,"velocity":0.23622047244094488},{"duration":0.011627906976741542,"midi":44,"time":196.52325581395348,"velocity":0.5826771653543307},{"duration":0.05813953488373613,"midi":88,"time":196.52325581395348,"velocity":0.12598425196850394},{"duration":0.011627906976741542,"midi":43,"time":196.53488372093022,"velocity":0.5669291338582677},{"duration":0.023255813953483084,"midi":51,"time":196.53488372093022,"velocity":0.2677165354330709},{"duration":0.03488372093025305,"midi":87,"time":196.53488372093022,"velocity":0.14173228346456693},{"duration":0.011627906976741542,"midi":42,"time":196.54651162790697,"velocity":0.5275590551181102},{"duration":0.03488372093025305,"midi":61,"time":196.5581395348837,"velocity":0.10236220472440945},{"duration":0.034883720930224626,"midi":68,"time":196.56976744186048,"velocity":0.3700787401574803},{"duration":0.36046511627904465,"midi":84,"time":196.56976744186048,"velocity":0.4015748031496063},{"duration":0.09302325581393234,"midi":82,"time":196.58139534883722,"velocity":0.14960629921259844},{"duration":0.05813953488370771,"midi":87,"time":196.58139534883722,"velocity":0.16535433070866143},{"duration":0.023255813953483084,"midi":37,"time":196.59302325581396,"velocity":0.3779527559055118},{"duration":0.023255813953483084,"midi":47,"time":196.61627906976744,"velocity":0.30708661417322836},{"duration":0.034883720930224626,"midi":70,"time":196.61627906976744,"velocity":0.33858267716535434},{"duration":0.034883720930224626,"midi":78,"time":196.61627906976744,"velocity":0.29133858267716534},{"duration":0.1046511627907023,"midi":103,"time":196.61627906976744,"velocity":0.1889763779527559},{"duration":0.11627906976744384,"midi":55,"time":196.62790697674419,"velocity":0.29133858267716534},{"duration":0.09302325581396076,"midi":48,"time":196.63953488372093,"velocity":0.28346456692913385},{"duration":0.3953488372092977,"midi":68,"time":196.63953488372093,"velocity":0.4251968503937008},{"duration":0.08139534883721922,"midi":73,"time":196.63953488372093,"velocity":0.25984251968503935},{"duration":0.04651162790696617,"midi":101,"time":196.63953488372093,"velocity":0.14960629921259844},{"duration":0.08139534883721922,"midi":65,"time":196.65116279069767,"velocity":0.5196850393700787},{"duration":0.03488372093025305,"midi":61,"time":196.6627906976744,"velocity":0.2992125984251969},{"duration":0.09302325581396076,"midi":87,"time":196.6627906976744,"velocity":0.10236220472440945},{"duration":0.08139534883721922,"midi":36,"time":196.67441860465115,"velocity":0.3228346456692913},{"duration":0.0813953488371908,"midi":88,"time":196.69767441860466,"velocity":0.2992125984251969},{"duration":0.13953488372092693,"midi":72,"time":196.72093023255815,"velocity":0.33070866141732286},{"duration":0.05813953488370771,"midi":76,"time":196.72093023255815,"velocity":0.2992125984251969},{"duration":0.05813953488370771,"midi":83,"time":196.72093023255815,"velocity":0.41732283464566927},{"duration":0.04651162790696617,"midi":102,"time":196.72093023255815,"velocity":0.10236220472440945},{"duration":0.023255813953483084,"midi":64,"time":196.7325581395349,"velocity":0.5118110236220472},{"duration":0.1046511627907023,"midi":81,"time":196.7325581395349,"velocity":0.4566929133858268},{"duration":0.2906976744185954,"midi":91,"time":196.7325581395349,"velocity":0.25196850393700787},{"duration":0.06976744186044925,"midi":92,"time":196.7325581395349,"velocity":0.2677165354330709},{"duration":0.22093023255814614,"midi":97,"time":196.7325581395349,"velocity":0.1968503937007874},{"duration":0.05813953488370771,"midi":90,"time":196.74418604651163,"velocity":0.16535433070866143},{"duration":0.7558139534883708,"midi":99,"time":196.74418604651163,"velocity":0.2677165354330709},{"duration":0.023255813953483084,"midi":45,"time":196.75581395348837,"velocity":0.2755905511811024},{"duration":0.023255813953483084,"midi":53,"time":196.75581395348837,"velocity":0.2440944881889764},{"duration":0.034883720930224626,"midi":63,"time":196.75581395348837,"velocity":0.4015748031496063},{"duration":0.05813953488373613,"midi":89,"time":196.75581395348837,"velocity":0.10236220472440945},{"duration":0.023255813953483084,"midi":65,"time":196.7674418604651,"velocity":0.33858267716535434},{"duration":0.034883720930224626,"midi":79,"time":196.7674418604651,"velocity":0.14173228346456693},{"duration":0.27906976744185386,"midi":87,"time":196.7674418604651,"velocity":0.4881889763779528},{"duration":0.12790697674418539,"midi":94,"time":196.7674418604651,"velocity":0.2047244094488189},{"duration":0.13953488372092693,"midi":46,"time":196.77906976744185,"velocity":0.25984251968503935},{"duration":0.2906976744186238,"midi":75,"time":196.77906976744185,"velocity":0.4881889763779528},{"duration":0.2906976744186238,"midi":101,"time":196.77906976744185,"velocity":0.2283464566929134},{"duration":0.023255813953511506,"midi":64,"time":196.7906976744186,"velocity":0.31496062992125984},{"duration":0.05813953488373613,"midi":77,"time":196.7906976744186,"velocity":0.1732283464566929},{"duration":0.05813953488373613,"midi":88,"time":196.7906976744186,"velocity":0.2440944881889764},{"duration":0.03488372093025305,"midi":60,"time":196.80232558139534,"velocity":0.28346456692913385},{"duration":0.11627906976744384,"midi":82,"time":196.80232558139534,"velocity":0.4094488188976378},{"duration":0.023255813953483084,"midi":63,"time":196.8139534883721,"velocity":0.25984251968503935},{"duration":0.05813953488370771,"midi":85,"time":196.8139534883721,"velocity":0.2677165354330709},{"duration":0.09302325581393234,"midi":34,"time":196.82558139534885,"velocity":0.28346456692913385},{"duration":0.023255813953483084,"midi":53,"time":196.82558139534885,"velocity":0.2440944881889764},{"duration":0.06976744186044925,"midi":65,"time":196.84883720930233,"velocity":0.2440944881889764},{"duration":0.15116279069766847,"midi":56,"time":196.86046511627907,"velocity":0.2677165354330709},{"duration":0.08139534883721922,"midi":60,"time":196.87209302325581,"velocity":0.23622047244094488},{"duration":0.08139534883721922,"midi":72,"time":196.87209302325581,"velocity":0.33070866141732286},{"duration":0.08139534883721922,"midi":81,"time":196.90697674418604,"velocity":0.33858267716535434},{"duration":0.06976744186047767,"midi":92,"time":196.90697674418604,"velocity":0.16535433070866143},{"duration":0.023255813953511506,"midi":64,"time":196.91860465116278,"velocity":0.33070866141732286},{"duration":0.023255813953511506,"midi":85,"time":196.91860465116278,"velocity":0.2440944881889764},{"duration":0.05813953488370771,"midi":63,"time":196.9418604651163,"velocity":0.33858267716535434},{"duration":0.034883720930224626,"midi":94,"time":196.95348837209303,"velocity":0.13385826771653545},{"duration":0.034883720930224626,"midi":60,"time":196.96511627906978,"velocity":0.23622047244094488},{"duration":0.06976744186044925,"midi":82,"time":196.96511627906978,"velocity":0.2204724409448819},{"duration":0.0813953488371908,"midi":97,"time":196.96511627906978,"velocity":0.13385826771653545},{"duration":0.04651162790696617,"midi":78,"time":197,"velocity":0.1732283464566929},{"duration":0.034883720930224626,"midi":95,"time":197,"velocity":0.16535433070866143},{"duration":0.04651162790696617,"midi":102,"time":197,"velocity":0.1732283464566929},{"duration":0.034883720930224626,"midi":60,"time":197.01162790697674,"velocity":0.33070866141732286},{"duration":0.034883720930224626,"midi":89,"time":197.01162790697674,"velocity":0.13385826771653545},{"duration":0.011627906976741542,"midi":46,"time":197.03488372093022,"velocity":0.5590551181102362},{"duration":0.16279069767443843,"midi":56,"time":197.03488372093022,"velocity":0.2283464566929134},{"duration":0.04651162790699459,"midi":83,"time":197.03488372093022,"velocity":0.2047244094488189},{"duration":0.023255813953483084,"midi":88,"time":197.03488372093022,"velocity":0.33858267716535434},{"duration":0.011627906976741542,"midi":45,"time":197.04651162790697,"velocity":0.5905511811023622},{"duration":0.011627906976769964,"midi":43,"time":197.0581395348837,"velocity":0.5748031496062992},{"duration":0.33720930232559,"midi":60,"time":197.0581395348837,"velocity":0.3228346456692913},{"duration":0.1046511627907023,"midi":68,"time":197.0581395348837,"velocity":0.31496062992125984},{"duration":0.04651162790699459,"midi":73,"time":197.0581395348837,"velocity":0.15748031496062992},{"duration":0.04651162790699459,"midi":76,"time":197.0581395348837,"velocity":0.3779527559055118},{"duration":0.023255813953483084,"midi":42,"time":197.06976744186048,"velocity":0.5511811023622047},{"duration":0.034883720930224626,"midi":51,"time":197.06976744186048,"velocity":0.25984251968503935},{"duration":0.15116279069766847,"midi":81,"time":197.08139534883722,"velocity":0.1889763779527559},{"duration":0.19767441860463464,"midi":82,"time":197.08139534883722,"velocity":0.3228346456692913},{"duration":0.023255813953483084,"midi":38,"time":197.1046511627907,"velocity":0.3700787401574803},{"duration":0.17441860465115155,"midi":63,"time":197.1046511627907,"velocity":0.30708661417322836},{"duration":0.16279069767441,"midi":75,"time":197.1046511627907,"velocity":0.4881889763779528},{"duration":0.2093023255814046,"midi":84,"time":197.1046511627907,"velocity":0.2283464566929134},{"duration":0.034883720930224626,"midi":97,"time":197.1046511627907,"velocity":0.10236220472440945},{"duration":0.05813953488370771,"midi":51,"time":197.11627906976744,"velocity":0.16535433070866143},{"duration":0.034883720930224626,"midi":79,"time":197.12790697674419,"velocity":0.10236220472440945},{"duration":0.023255813953483084,"midi":35,"time":197.13953488372093,"velocity":0.3779527559055118},{"duration":0.06976744186047767,"midi":101,"time":197.13953488372093,"velocity":0.14173228346456693},{"duration":0.034883720930224626,"midi":103,"time":197.15116279069767,"velocity":0.11811023622047244},{"duration":0.03488372093025305,"midi":80,"time":197.1627906976744,"velocity":0.13385826771653545},{"duration":0.3604651162790731,"midi":68,"time":197.17441860465115,"velocity":0.4330708661417323},{"duration":0.1046511627907023,"midi":91,"time":197.2093023255814,"velocity":0.10236220472440945},{"duration":0.034883720930224626,"midi":76,"time":197.25581395348837,"velocity":0.1889763779527559},{"duration":0.034883720930224626,"midi":88,"time":197.25581395348837,"velocity":0.2440944881889764},{"duration":0.04651162790699459,"midi":89,"time":197.2674418604651,"velocity":0.1889763779527559},{"duration":0.13953488372092693,"midi":51,"time":197.27906976744185,"velocity":0.2677165354330709},{"duration":0.04651162790699459,"midi":74,"time":197.27906976744185,"velocity":0.2047244094488189},{"duration":0.05813953488373613,"midi":78,"time":197.27906976744185,"velocity":0.14173228346456693},{"duration":0.11627906976744384,"midi":81,"time":197.27906976744185,"velocity":0.25984251968503935},{"duration":0.15116279069766847,"midi":87,"time":197.27906976744185,"velocity":0.29133858267716534},{"duration":0.16279069767443843,"midi":56,"time":197.2906976744186,"velocity":0.29133858267716534},{"duration":0.08139534883721922,"midi":82,"time":197.2906976744186,"velocity":0.1968503937007874},{"duration":0.12790697674418539,"midi":44,"time":197.3139534883721,"velocity":0.2992125984251969},{"duration":0.2441860465116008,"midi":72,"time":197.3139534883721,"velocity":0.3464566929133858},{"duration":0.15116279069766847,"midi":75,"time":197.32558139534885,"velocity":0.44881889763779526},{"duration":0.023255813953483084,"midi":33,"time":197.34883720930233,"velocity":0.2755905511811024},{"duration":0.15116279069766847,"midi":63,"time":197.34883720930233,"velocity":0.3937007874015748},{"duration":0.08139534883721922,"midi":32,"time":197.37209302325581,"velocity":0.2755905511811024},{"duration":0.04651162790696617,"midi":97,"time":197.37209302325581,"velocity":0.08661417322834646},{"duration":0.09302325581396076,"midi":60,"time":197.43023255813952,"velocity":0.2283464566929134},{"duration":0.04651162790696617,"midi":56,"time":197.46511627906978,"velocity":0.14960629921259844},{"duration":0.12790697674418539,"midi":82,"time":197.48837209302326,"velocity":0.16535433070866143},{"duration":0.11627906976744384,"midi":99,"time":197.51162790697674,"velocity":0.2204724409448819},{"duration":0.034883720930224626,"midi":62,"time":197.52325581395348,"velocity":0.3858267716535433},{"duration":0.06976744186047767,"midi":95,"time":197.52325581395348,"velocity":0.2047244094488189},{"duration":0.023255813953483084,"midi":78,"time":197.53488372093022,"velocity":0.2283464566929134},{"duration":0.03488372093025305,"midi":80,"time":197.53488372093022,"velocity":0.18110236220472442},{"duration":0.06976744186047767,"midi":88,"time":197.53488372093022,"velocity":0.2755905511811024},{"duration":0.08139534883721922,"midi":90,"time":197.53488372093022,"velocity":0.29133858267716534},{"duration":0.05813953488373613,"midi":92,"time":197.53488372093022,"velocity":0.2440944881889764},{"duration":0.03488372093025305,"midi":93,"time":197.53488372093022,"velocity":0.08661417322834646},{"duration":0.06976744186047767,"midi":94,"time":197.53488372093022,"velocity":0.1889763779527559},{"duration":0.04651162790699459,"midi":96,"time":197.53488372093022,"velocity":0.1968503937007874},{"duration":0.18604651162792152,"midi":98,"time":197.53488372093022,"velocity":0.2204724409448819},{"duration":0.06976744186047767,"midi":101,"time":197.53488372093022,"velocity":0.13385826771653545},{"duration":0.03488372093025305,"midi":103,"time":197.53488372093022,"velocity":0.18110236220472442},{"duration":0.03488372093025305,"midi":45,"time":197.54651162790697,"velocity":0.5826771653543307},{"duration":0.023255813953511506,"midi":67,"time":197.54651162790697,"velocity":0.28346456692913385},{"duration":0.03488372093025305,"midi":85,"time":197.54651162790697,"velocity":0.13385826771653545},{"duration":0.05813953488373613,"midi":89,"time":197.54651162790697,"velocity":0.2204724409448819},{"duration":0.08139534883721922,"midi":56,"time":197.5581395348837,"velocity":0.3464566929133858},{"duration":0.04651162790699459,"midi":68,"time":197.5581395348837,"velocity":0.3543307086614173},{"duration":0.09302325581396076,"midi":75,"time":197.5581395348837,"velocity":0.4251968503937008},{"duration":0.03488372093025305,"midi":91,"time":197.5581395348837,"velocity":0.2125984251968504},{"duration":0.03488372093025305,"midi":97,"time":197.5581395348837,"velocity":0.13385826771653545},{"duration":0.13953488372092693,"midi":63,"time":197.56976744186048,"velocity":0.2125984251968504},{"duration":0.011627906976741542,"midi":44,"time":197.58139534883722,"velocity":0.5669291338582677},{"duration":0.034883720930224626,"midi":51,"time":197.58139534883722,"velocity":0.2677165354330709},{"duration":0.10465116279067388,"midi":72,"time":197.58139534883722,"velocity":0.29133858267716534},{"duration":0.011627906976741542,"midi":43,"time":197.59302325581396,"velocity":0.5511811023622047},{"duration":0.13953488372092693,"midi":68,"time":197.61627906976744,"velocity":0.3543307086614173},{"duration":0.034883720930224626,"midi":60,"time":197.62790697674419,"velocity":0.15748031496062992},{"duration":0.023255813953483084,"midi":37,"time":197.65116279069767,"velocity":0.3700787401574803},{"duration":0.023255813953483084,"midi":56,"time":197.65116279069767,"velocity":0.33858267716535434},{"duration":0.05813953488373613,"midi":87,"time":197.65116279069767,"velocity":0.16535433070866143},{"duration":0.04651162790699459,"midi":70,"time":197.6627906976744,"velocity":0.3779527559055118},{"duration":0.1511627906976969,"midi":75,"time":197.6627906976744,"velocity":0.33070866141732286},{"duration":0.04651162790699459,"midi":78,"time":197.6627906976744,"velocity":0.14173228346456693},{"duration":0.03488372093025305,"midi":81,"time":197.6627906976744,"velocity":0.25984251968503935},{"duration":0.03488372093025305,"midi":85,"time":197.6627906976744,"velocity":0.2204724409448819},{"duration":0.023255813953511506,"midi":57,"time":197.67441860465115,"velocity":0.3858267716535433},{"duration":0.06976744186047767,"midi":77,"time":197.6860465116279,"velocity":0.1968503937007874},{"duration":0.023255813953511506,"midi":83,"time":197.6860465116279,"velocity":0.30708661417322836},{"duration":0.1046511627907023,"midi":86,"time":197.6860465116279,"velocity":0.2440944881889764},{"duration":0.06976744186044925,"midi":96,"time":197.69767441860466,"velocity":0.2440944881889764},{"duration":0.023255813953483084,"midi":82,"time":197.7093023255814,"velocity":0.23622047244094488},{"duration":0.04651162790696617,"midi":57,"time":197.72093023255815,"velocity":0.2755905511811024},{"duration":0.1046511627907023,"midi":72,"time":197.72093023255815,"velocity":0.2755905511811024},{"duration":0.034883720930224626,"midi":56,"time":197.7674418604651,"velocity":0.29133858267716534},{"duration":0.06976744186047767,"midi":68,"time":197.7674418604651,"velocity":0.3858267716535433},{"duration":0.04651162790699459,"midi":52,"time":197.7906976744186,"velocity":0.2283464566929134},{"duration":0.06976744186047767,"midi":79,"time":197.7906976744186,"velocity":0.13385826771653545},{"duration":0.03488372093025305,"midi":82,"time":197.7906976744186,"velocity":0.1732283464566929},{"duration":0.04651162790699459,"midi":84,"time":197.7906976744186,"velocity":0.3700787401574803},{"duration":0.03488372093025305,"midi":90,"time":197.7906976744186,"velocity":0.10236220472440945},{"duration":0.03488372093025305,"midi":66,"time":197.80232558139534,"velocity":0.2755905511811024},{"duration":0.03488372093025305,"midi":76,"time":197.80232558139534,"velocity":0.1889763779527559},{"duration":0.08139534883721922,"midi":81,"time":197.80232558139534,"velocity":0.18110236220472442},{"duration":0.06976744186047767,"midi":97,"time":197.80232558139534,"velocity":0.16535433070866143},{"duration":0.023255813953483084,"midi":60,"time":197.8139534883721,"velocity":0.31496062992125984},{"duration":0.034883720930224626,"midi":73,"time":197.8139534883721,"velocity":0.47244094488188976},{"duration":0.034883720930224626,"midi":89,"time":197.8139534883721,"velocity":0.12598425196850394},{"duration":0.1860465116278931,"midi":102,"time":197.8139534883721,"velocity":0.2125984251968504},{"duration":0.04651162790696617,"midi":69,"time":197.82558139534885,"velocity":0.2204724409448819},{"duration":0.13953488372092693,"midi":100,"time":197.82558139534885,"velocity":0.15748031496062992},{"duration":0.034883720930224626,"midi":99,"time":197.8372093023256,"velocity":0.08661417322834646},{"duration":0.023255813953483084,"midi":37,"time":197.84883720930233,"velocity":0.31496062992125984},{"duration":0.023255813953483084,"midi":60,"time":197.84883720930233,"velocity":0.25196850393700787},{"duration":0.0813953488371908,"midi":72,"time":197.84883720930233,"velocity":0.4645669291338583},{"duration":0.09302325581396076,"midi":65,"time":197.86046511627907,"velocity":0.3543307086614173},{"duration":0.13953488372092693,"midi":70,"time":197.87209302325581,"velocity":0.41732283464566927},{"duration":0.05813953488373613,"midi":58,"time":197.88372093023256,"velocity":0.30708661417322836},{"duration":0.12790697674418539,"midi":86,"time":197.88372093023256,"velocity":0.2125984251968504},{"duration":0.034883720930224626,"midi":83,"time":197.8953488372093,"velocity":0.10236220472440945},{"duration":0.023255813953483084,"midi":39,"time":197.90697674418604,"velocity":0.23622047244094488},{"duration":0.1046511627907023,"midi":99,"time":197.90697674418604,"velocity":0.2755905511811024},{"duration":0.03488372093025305,"midi":85,"time":197.93023255813952,"velocity":0.25984251968503935},{"duration":0.03488372093025305,"midi":88,"time":197.93023255813952,"velocity":0.1889763779527559},{"duration":0.034883720930224626,"midi":74,"time":197.9418604651163,"velocity":0.16535433070866143},{"duration":0.11627906976741542,"midi":75,"time":197.9418604651163,"velocity":0.1968503937007874},{"duration":0.023255813953483084,"midi":81,"time":197.9418604651163,"velocity":0.25984251968503935},{"duration":0.04651162790696617,"midi":56,"time":197.95348837209303,"velocity":0.29133858267716534},{"duration":0.13953488372092693,"midi":72,"time":197.95348837209303,"velocity":0.3700787401574803},{"duration":0.023255813953483084,"midi":63,"time":197.97674418604652,"velocity":0.25196850393700787},{"duration":0.04651162790696617,"midi":51,"time":197.98837209302326,"velocity":0.2204724409448819},{"duration":0.023255813953483084,"midi":33,"time":198,"velocity":0.2440944881889764},{"duration":0.034883720930224626,"midi":63,"time":198.01162790697674,"velocity":0.3543307086614173},{"duration":0.04651162790696617,"midi":92,"time":198.01162790697674,"velocity":0.09448818897637795},{"duration":0.034883720930224626,"midi":44,"time":198.02325581395348,"velocity":0.1732283464566929},{"duration":0.023255813953483084,"midi":59,"time":198.02325581395348,"velocity":0.4251968503937008},{"duration":0.04651162790699459,"midi":88,"time":198.02325581395348,"velocity":0.18110236220472442},{"duration":0.06976744186047767,"midi":102,"time":198.02325581395348,"velocity":0.23622047244094488},{"duration":0.05813953488373613,"midi":32,"time":198.03488372093022,"velocity":0.28346456692913385},{"duration":0.2093023255814046,"midi":103,"time":198.03488372093022,"velocity":0.25196850393700787},{"duration":0.08139534883721922,"midi":81,"time":198.04651162790697,"velocity":0.4251968503937008},{"duration":0.17441860465117998,"midi":96,"time":198.04651162790697,"velocity":0.1968503937007874},{"duration":0.2093023255814046,"midi":99,"time":198.04651162790697,"velocity":0.3700787401574803},{"duration":0.023255813953511506,"midi":69,"time":198.0581395348837,"velocity":0.2283464566929134},{"duration":0.04651162790699459,"midi":78,"time":198.0581395348837,"velocity":0.2047244094488189},{"duration":0.2790697674418823,"midi":87,"time":198.0581395348837,"velocity":0.2755905511811024},{"duration":0.13953488372095535,"midi":94,"time":198.0581395348837,"velocity":0.16535433070866143},{"duration":0.03488372093025305,"midi":95,"time":198.0581395348837,"velocity":0.1889763779527559},{"duration":0.04651162790699459,"midi":97,"time":198.0581395348837,"velocity":0.2047244094488189},{"duration":0.3139534883720785,"midi":75,"time":198.06976744186048,"velocity":0.44881889763779526},{"duration":0.23255813953485927,"midi":91,"time":198.06976744186048,"velocity":0.4015748031496063},{"duration":0.09302325581393234,"midi":100,"time":198.06976744186048,"velocity":0.08661417322834646},{"duration":0.011627906976741542,"midi":46,"time":198.09302325581396,"velocity":0.5433070866141733},{"duration":0.034883720930224626,"midi":82,"time":198.09302325581396,"velocity":0.1732283464566929},{"duration":0.011627906976741542,"midi":45,"time":198.1046511627907,"velocity":0.5748031496062992},{"duration":0.034883720930224626,"midi":68,"time":198.1046511627907,"velocity":0.13385826771653545},{"duration":0.011627906976741542,"midi":43,"time":198.11627906976744,"velocity":0.5669291338582677},{"duration":0.05813953488370771,"midi":77,"time":198.11627906976744,"velocity":0.13385826771653545},{"duration":0.05813953488370771,"midi":97,"time":198.11627906976744,"velocity":0.14960629921259844},{"duration":0.1046511627907023,"midi":101,"time":198.11627906976744,"velocity":0.09448818897637795},{"duration":0.011627906976741542,"midi":42,"time":198.12790697674419,"velocity":0.5354330708661418},{"duration":0.034883720930224626,"midi":80,"time":198.12790697674419,"velocity":0.36220472440944884},{"duration":0.023255813953483084,"midi":102,"time":198.13953488372093,"velocity":0.2992125984251969},{"duration":0.034883720930224626,"midi":63,"time":198.15116279069767,"velocity":0.2992125984251969},{"duration":0.04651162790699459,"midi":70,"time":198.15116279069767,"velocity":0.16535433070866143},{"duration":0.023255813953483084,"midi":56,"time":198.1627906976744,"velocity":0.25196850393700787},{"duration":0.11627906976744384,"midi":65,"time":198.17441860465115,"velocity":0.3700787401574803},{"duration":0.03488372093025305,"midi":82,"time":198.17441860465115,"velocity":0.2755905511811024},{"duration":0.06976744186047767,"midi":100,"time":198.17441860465115,"velocity":0.2283464566929134},{"duration":0.03488372093025305,"midi":102,"time":198.17441860465115,"velocity":0.11023622047244094},{"duration":0.04651162790699459,"midi":72,"time":198.1860465116279,"velocity":0.25196850393700787},{"duration":0.11627906976744384,"midi":97,"time":198.1860465116279,"velocity":0.16535433070866143},{"duration":0.05813953488370771,"midi":48,"time":198.19767441860466,"velocity":0.11023622047244094},{"duration":0.034883720930224626,"midi":56,"time":198.19767441860466,"velocity":0.23622047244094488},{"duration":0.10465116279067388,"midi":81,"time":198.19767441860466,"velocity":0.2992125984251969},{"duration":0.1046511627907023,"midi":72,"time":198.24418604651163,"velocity":0.2125984251968504},{"duration":0.09302325581396076,"midi":82,"time":198.24418604651163,"velocity":0.12598425196850394},{"duration":0.034883720930224626,"midi":94,"time":198.2674418604651,"velocity":0.13385826771653545},{"duration":0.03488372093025305,"midi":76,"time":198.27906976744185,"velocity":0.1889763779527559},{"duration":0.04651162790699459,"midi":66,"time":198.2906976744186,"velocity":0.2755905511811024},{"duration":0.03488372093025305,"midi":56,"time":198.30232558139534,"velocity":0.16535433070866143},{"duration":0.09302325581396076,"midi":80,"time":198.30232558139534,"velocity":0.1889763779527559},{"duration":0.25581395348837077,"midi":91,"time":198.3139534883721,"velocity":0.4566929133858268},{"duration":0.0813953488371908,"midi":68,"time":198.32558139534885,"velocity":0.1968503937007874},{"duration":0.04651162790696617,"midi":83,"time":198.32558139534885,"velocity":0.16535433070866143},{"duration":0.13953488372092693,"midi":65,"time":198.3372093023256,"velocity":0.4015748031496063},{"duration":0.023255813953483084,"midi":41,"time":198.34883720930233,"velocity":0.25984251968503935},{"duration":0.1046511627907023,"midi":48,"time":198.34883720930233,"velocity":0.23622047244094488},{"duration":0.11627906976744384,"midi":72,"time":198.36046511627907,"velocity":0.23622047244094488},{"duration":0.27906976744185386,"midi":99,"time":198.36046511627907,"velocity":0.1732283464566929},{"duration":0.023255813953483084,"midi":40,"time":198.37209302325581,"velocity":0.31496062992125984},{"duration":0.034883720930224626,"midi":82,"time":198.37209302325581,"velocity":0.13385826771653545},{"duration":0.034883720930224626,"midi":87,"time":198.38372093023256,"velocity":0.09448818897637795},{"duration":0.05813953488373613,"midi":102,"time":198.38372093023256,"velocity":0.09448818897637795},{"duration":0.06976744186047767,"midi":53,"time":198.3953488372093,"velocity":0.14960629921259844},{"duration":0.03488372093025305,"midi":68,"time":198.43023255813952,"velocity":0.2283464566929134},{"duration":0.05813953488373613,"midi":87,"time":198.43023255813952,"velocity":0.15748031496062992},{"duration":0.06976744186044925,"midi":75,"time":198.4418604651163,"velocity":0.1968503937007874},{"duration":0.20930232558137618,"midi":94,"time":198.45348837209303,"velocity":0.2047244094488189},{"duration":0.04651162790696617,"midi":100,"time":198.45348837209303,"velocity":0.14173228346456693},{"duration":0.05813953488370771,"midi":69,"time":198.46511627906978,"velocity":0.2440944881889764},{"duration":0.034883720930224626,"midi":83,"time":198.46511627906978,"velocity":0.11023622047244094},{"duration":0.1046511627907023,"midi":97,"time":198.46511627906978,"velocity":0.2204724409448819},{"duration":0.034883720930224626,"midi":98,"time":198.46511627906978,"velocity":0.1732283464566929},{"duration":0.44186046511626387,"midi":102,"time":198.46511627906978,"velocity":0.4015748031496063},{"duration":0.034883720930224626,"midi":53,"time":198.47674418604652,"velocity":0.1968503937007874},{"duration":0.034883720930224626,"midi":71,"time":198.47674418604652,"velocity":0.29133858267716534},{"duration":0.034883720930224626,"midi":73,"time":198.47674418604652,"velocity":0.2755905511811024},{"duration":0.1046511627907023,"midi":65,"time":198.48837209302326,"velocity":0.3779527559055118},{"duration":0.023255813953483084,"midi":92,"time":198.48837209302326,"velocity":0.29133858267716534},{"duration":0.023255813953483084,"midi":40,"time":198.5,"velocity":0.2440944881889764},{"duration":0.08139534883721922,"midi":48,"time":198.5,"velocity":0.2047244094488189},{"duration":0.05813953488370771,"midi":80,"time":198.5,"velocity":0.1732283464566929},{"duration":0.30232558139536536,"midi":72,"time":198.51162790697674,"velocity":0.4251968503937008},{"duration":0.13953488372092693,"midi":96,"time":198.51162790697674,"velocity":0.36220472440944884},{"duration":0.034883720930224626,"midi":57,"time":198.52325581395348,"velocity":0.15748031496062992},{"duration":0.04651162790699459,"midi":82,"time":198.52325581395348,"velocity":0.11811023622047244},{"duration":0.03488372093025305,"midi":63,"time":198.53488372093022,"velocity":0.3228346456692913},{"duration":0.30232558139536536,"midi":68,"time":198.54651162790697,"velocity":0.33070866141732286},{"duration":0.33720930232559,"midi":75,"time":198.54651162790697,"velocity":0.3228346456692913},{"duration":0.05813953488373613,"midi":93,"time":198.5581395348837,"velocity":0.2283464566929134},{"duration":0.034883720930224626,"midi":30,"time":198.56976744186048,"velocity":0.11811023622047244},{"duration":0.04651162790696617,"midi":81,"time":198.56976744186048,"velocity":0.13385826771653545},{"duration":0.0813953488371908,"midi":90,"time":198.56976744186048,"velocity":0.3543307086614173},{"duration":0.034883720930224626,"midi":98,"time":198.58139534883722,"velocity":0.13385826771653545},{"duration":0.034883720930224626,"midi":60,"time":198.59302325581396,"velocity":0.36220472440944884},{"duration":0.034883720930224626,"midi":79,"time":198.59302325581396,"velocity":0.1889763779527559},{"duration":0.023255813953483084,"midi":86,"time":198.59302325581396,"velocity":0.25196850393700787},{"duration":0.04651162790696617,"midi":88,"time":198.59302325581396,"velocity":0.1732283464566929},{"duration":0.16279069767441,"midi":92,"time":198.59302325581396,"velocity":0.11023622047244094},{"duration":0.04651162790696617,"midi":100,"time":198.59302325581396,"velocity":0.1889763779527559},{"duration":0.04651162790696617,"midi":101,"time":198.59302325581396,"velocity":0.18110236220472442},{"duration":0.05813953488370771,"midi":89,"time":198.6046511627907,"velocity":0.18110236220472442},{"duration":0.034883720930224626,"midi":95,"time":198.6046511627907,"velocity":0.09448818897637795},{"duration":0.05813953488370771,"midi":103,"time":198.6046511627907,"velocity":0.2283464566929134},{"duration":0.023255813953483084,"midi":45,"time":198.61627906976744,"velocity":0.5669291338582677},{"duration":0.023255813953483084,"midi":82,"time":198.61627906976744,"velocity":0.2283464566929134},{"duration":0.11627906976744384,"midi":97,"time":198.61627906976744,"velocity":0.2125984251968504},{"duration":0.04651162790696617,"midi":83,"time":198.62790697674419,"velocity":0.2204724409448819},{"duration":0.011627906976741542,"midi":44,"time":198.63953488372093,"velocity":0.5590551181102362},{"duration":0.023255813953483084,"midi":51,"time":198.63953488372093,"velocity":0.25984251968503935},{"duration":0.04651162790696617,"midi":64,"time":198.63953488372093,"velocity":0.36220472440944884},{"duration":0.04651162790696617,"midi":85,"time":198.63953488372093,"velocity":0.12598425196850394},{"duration":0.011627906976741542,"midi":43,"time":198.65116279069767,"velocity":0.5275590551181102},{"duration":0.08139534883721922,"midi":91,"time":198.6627906976744,"velocity":0.1889763779527559},{"duration":0.12790697674418539,"midi":82,"time":198.67441860465115,"velocity":0.2125984251968504},{"duration":0.04651162790699459,"midi":103,"time":198.6860465116279,"velocity":0.23622047244094488},{"duration":0.04651162790696617,"midi":65,"time":198.7093023255814,"velocity":0.30708661417322836},{"duration":0.034883720930224626,"midi":36,"time":198.72093023255815,"velocity":0.29133858267716534},{"duration":0.023255813953483084,"midi":60,"time":198.7325581395349,"velocity":0.2440944881889764},{"duration":0.05813953488370771,"midi":81,"time":198.7325581395349,"velocity":0.11811023622047244},{"duration":0.04651162790696617,"midi":90,"time":198.7325581395349,"velocity":0.1968503937007874},{"duration":0.023255813953483084,"midi":47,"time":198.74418604651163,"velocity":0.2440944881889764},{"duration":0.1046511627907023,"midi":103,"time":198.74418604651163,"velocity":0.25196850393700787},{"duration":0.05813953488373613,"midi":78,"time":198.75581395348837,"velocity":0.13385826771653545},{"duration":0.023255813953483084,"midi":86,"time":198.75581395348837,"velocity":0.2283464566929134},{"duration":0.034883720930224626,"midi":48,"time":198.7674418604651,"velocity":0.2204724409448819},{"duration":0.034883720930224626,"midi":55,"time":198.7674418604651,"velocity":0.2440944881889764},{"duration":0.034883720930224626,"midi":60,"time":198.7674418604651,"velocity":0.2992125984251969},{"duration":0.12790697674418539,"midi":91,"time":198.7674418604651,"velocity":0.1732283464566929},{"duration":0.05813953488373613,"midi":97,"time":198.7674418604651,"velocity":0.23622047244094488},{"duration":0.023255813953511506,"midi":63,"time":198.7906976744186,"velocity":0.3543307086614173},{"duration":0.04651162790699459,"midi":36,"time":198.80232558139534,"velocity":0.28346456692913385},{"duration":0.023255813953511506,"midi":56,"time":198.80232558139534,"velocity":0.25196850393700787},{"duration":0.023255813953483084,"midi":65,"time":198.8139534883721,"velocity":0.3543307086614173},{"duration":0.034883720930224626,"midi":57,"time":198.82558139534885,"velocity":0.2677165354330709},{"duration":0.034883720930224626,"midi":84,"time":198.82558139534885,"velocity":0.14960629921259844},{"duration":0.32558139534882,"midi":99,"time":198.82558139534885,"velocity":0.2992125984251969},{"duration":0.09302325581393234,"midi":61,"time":198.8372093023256,"velocity":0.31496062992125984},{"duration":0.09302325581393234,"midi":96,"time":198.8372093023256,"velocity":0.2125984251968504},{"duration":0.17441860465115155,"midi":77,"time":198.84883720930233,"velocity":0.2755905511811024},{"duration":0.04651162790696617,"midi":88,"time":198.84883720930233,"velocity":0.18110236220472442},{"duration":0.27906976744185386,"midi":89,"time":198.84883720930233,"velocity":0.33070866141732286},{"duration":0.2906976744185954,"midi":92,"time":198.84883720930233,"velocity":0.29133858267716534},{"duration":0.034883720930224626,"midi":93,"time":198.84883720930233,"velocity":0.16535433070866143},{"duration":0.13953488372092693,"midi":95,"time":198.84883720930233,"velocity":0.2755905511811024},{"duration":0.1046511627907023,"midi":97,"time":198.84883720930233,"velocity":0.14960629921259844},{"duration":0.04651162790696617,"midi":68,"time":198.86046511627907,"velocity":0.16535433070866143},{"duration":0.04651162790696617,"midi":73,"time":198.86046511627907,"velocity":0.3937007874015748},{"duration":0.2674418604651123,"midi":80,"time":198.86046511627907,"velocity":0.33070866141732286},{"duration":0.11627906976744384,"midi":82,"time":198.86046511627907,"velocity":0.3228346456692913},{"duration":0.06976744186047767,"midi":103,"time":198.87209302325581,"velocity":0.2677165354330709},{"duration":0.05813953488373613,"midi":58,"time":198.88372093023256,"velocity":0.2283464566929134},{"duration":0.034883720930224626,"midi":65,"time":198.88372093023256,"velocity":0.25984251968503935},{"duration":0.11627906976744384,"midi":46,"time":198.8953488372093,"velocity":0.23622047244094488},{"duration":0.08139534883721922,"midi":84,"time":198.8953488372093,"velocity":0.25196850393700787},{"duration":0.034883720930224626,"midi":87,"time":198.8953488372093,"velocity":0.07874015748031496},{"duration":0.18604651162792152,"midi":93,"time":198.90697674418604,"velocity":0.2283464566929134},{"duration":0.11627906976744384,"midi":73,"time":198.91860465116278,"velocity":0.44881889763779526},{"duration":0.13953488372092693,"midi":102,"time":198.91860465116278,"velocity":0.33070866141732286},{"duration":0.04651162790699459,"midi":75,"time":198.93023255813952,"velocity":0.15748031496062992},{"duration":0.03488372093025305,"midi":83,"time":198.93023255813952,"velocity":0.2755905511811024},{"duration":0.03488372093025305,"midi":86,"time":198.93023255813952,"velocity":0.11023622047244094},{"duration":0.06976744186044925,"midi":34,"time":198.9418604651163,"velocity":0.2204724409448819},{"duration":0.034883720930224626,"midi":81,"time":198.96511627906978,"velocity":0.2047244094488189},{"duration":0.023255813953483084,"midi":100,"time":198.96511627906978,"velocity":0.25196850393700787},{"duration":0.034883720930224626,"midi":63,"time":198.98837209302326,"velocity":0.1732283464566929},{"duration":0.05813953488370771,"midi":82,"time":198.98837209302326,"velocity":0.23622047244094488},{"duration":0.04651162790696617,"midi":96,"time":198.98837209302326,"velocity":0.11811023622047244},{"duration":0.11627906976744384,"midi":53,"time":199,"velocity":0.2047244094488189},{"duration":0.034883720930224626,"midi":84,"time":199,"velocity":0.2283464566929134},{"duration":0.08139534883721922,"midi":97,"time":199,"velocity":0.13385826771653545},{"duration":0.09302325581396076,"midi":95,"time":199.01162790697674,"velocity":0.25984251968503935},{"duration":0.08139534883721922,"midi":65,"time":199.02325581395348,"velocity":0.2283464566929134},{"duration":0.06976744186047767,"midi":77,"time":199.03488372093022,"velocity":0.2440944881889764},{"duration":0.04651162790699459,"midi":68,"time":199.04651162790697,"velocity":0.14173228346456693},{"duration":0.03488372093025305,"midi":83,"time":199.04651162790697,"velocity":0.1889763779527559},{"duration":0.08139534883721922,"midi":82,"time":199.0581395348837,"velocity":0.2440944881889764},{"duration":0.04651162790699459,"midi":84,"time":199.0581395348837,"velocity":0.2992125984251969},{"duration":0.08139534883721922,"midi":103,"time":199.0581395348837,"velocity":0.30708661417322836},{"duration":0.034883720930224626,"midi":58,"time":199.06976744186048,"velocity":0.14173228346456693},{"duration":0.05813953488370771,"midi":70,"time":199.06976744186048,"velocity":0.14960629921259844},{"duration":0.04651162790696617,"midi":73,"time":199.06976744186048,"velocity":0.28346456692913385},{"duration":0.11627906976744384,"midi":102,"time":199.09302325581396,"velocity":0.29133858267716534},{"duration":0.09302325581396076,"midi":93,"time":199.1046511627907,"velocity":0.13385826771653545},{"duration":0.04651162790696617,"midi":61,"time":199.11627906976744,"velocity":0.31496062992125984},{"duration":0.023255813953483084,"midi":77,"time":199.11627906976744,"velocity":0.23622047244094488},{"duration":0.12790697674418539,"midi":88,"time":199.11627906976744,"velocity":0.1968503937007874},{"duration":0.15116279069766847,"midi":96,"time":199.11627906976744,"velocity":0.14173228346456693},{"duration":0.13953488372092693,"midi":100,"time":199.11627906976744,"velocity":0.2992125984251969},{"duration":0.09302325581396076,"midi":79,"time":199.12790697674419,"velocity":0.1968503937007874},{"duration":0.12790697674418539,"midi":81,"time":199.12790697674419,"velocity":0.1968503937007874},{"duration":0.15116279069766847,"midi":91,"time":199.12790697674419,"velocity":0.28346456692913385},{"duration":0.034883720930224626,"midi":72,"time":199.13953488372093,"velocity":0.1968503937007874},{"duration":0.11627906976744384,"midi":84,"time":199.13953488372093,"velocity":0.33070866141732286},{"duration":0.023255813953483084,"midi":45,"time":199.15116279069767,"velocity":0.5590551181102362},{"duration":0.04651162790699459,"midi":70,"time":199.15116279069767,"velocity":0.1732283464566929},{"duration":0.034883720930224626,"midi":85,"time":199.15116279069767,"velocity":0.23622047244094488},{"duration":0.03488372093025305,"midi":73,"time":199.1627906976744,"velocity":0.2047244094488189},{"duration":0.011627906976741542,"midi":43,"time":199.17441860465115,"velocity":0.5275590551181102},{"duration":0.05813953488373613,"midi":78,"time":199.17441860465115,"velocity":0.1889763779527559},{"duration":0.09302325581396076,"midi":89,"time":199.17441860465115,"velocity":0.28346456692913385},{"duration":0.04651162790699459,"midi":98,"time":199.17441860465115,"velocity":0.07086614173228346},{"duration":0.1046511627907023,"midi":66,"time":199.1860465116279,"velocity":0.2283464566929134},{"duration":0.09302325581396076,"midi":82,"time":199.1860465116279,"velocity":0.31496062992125984},{"duration":0.05813953488370771,"midi":72,"time":199.19767441860466,"velocity":0.3464566929133858},{"duration":0.11627906976744384,"midi":85,"time":199.19767441860466,"velocity":0.1732283464566929},{"duration":0.09302325581393234,"midi":53,"time":199.2093023255814,"velocity":0.11023622047244094},{"duration":0.04651162790696617,"midi":61,"time":199.2093023255814,"velocity":0.2047244094488189},{"duration":0.25581395348837077,"midi":77,"time":199.22093023255815,"velocity":0.33858267716535434},{"duration":0.04651162790696617,"midi":80,"time":199.22093023255815,"velocity":0.14960629921259844},{"duration":0.04651162790696617,"midi":90,"time":199.24418604651163,"velocity":0.2047244094488189},{"duration":0.034883720930224626,"midi":99,"time":199.24418604651163,"velocity":0.25984251968503935},{"duration":0.023255813953483084,"midi":36,"time":199.25581395348837,"velocity":0.25196850393700787},{"duration":0.05813953488373613,"midi":83,"time":199.25581395348837,"velocity":0.33070866141732286},{"duration":0.034883720930224626,"midi":87,"time":199.25581395348837,"velocity":0.18110236220472442},{"duration":0.04651162790699459,"midi":61,"time":199.2674418604651,"velocity":0.14960629921259844},{"duration":0.06976744186047767,"midi":81,"time":199.2674418604651,"velocity":0.2440944881889764},{"duration":0.034883720930224626,"midi":88,"time":199.2674418604651,"velocity":0.25196850393700787},{"duration":0.03488372093025305,"midi":73,"time":199.27906976744185,"velocity":0.25196850393700787},{"duration":0.534883720930253,"midi":70,"time":199.2906976744186,"velocity":0.3700787401574803},{"duration":0.023255813953511506,"midi":58,"time":199.30232558139534,"velocity":0.23622047244094488},{"duration":0.1046511627907023,"midi":86,"time":199.30232558139534,"velocity":0.25196850393700787},{"duration":0.03488372093025305,"midi":96,"time":199.30232558139534,"velocity":0.08661417322834646},{"duration":0.17441860465115155,"midi":73,"time":199.32558139534885,"velocity":0.2677165354330709},{"duration":0.06976744186044925,"midi":84,"time":199.32558139534885,"velocity":0.1968503937007874},{"duration":0.06976744186044925,"midi":58,"time":199.3372093023256,"velocity":0.29133858267716534},{"duration":0.0813953488371908,"midi":66,"time":199.3372093023256,"velocity":0.2125984251968504},{"duration":0.04651162790696617,"midi":81,"time":199.34883720930233,"velocity":0.10236220472440945},{"duration":0.034883720930224626,"midi":99,"time":199.37209302325581,"velocity":0.08661417322834646},{"duration":0.08139534883721922,"midi":102,"time":199.37209302325581,"velocity":0.14173228346456693},{"duration":0.04651162790696617,"midi":83,"time":199.38372093023256,"velocity":0.1732283464566929},{"duration":0.04651162790696617,"midi":91,"time":199.38372093023256,"velocity":0.08661417322834646},{"duration":0.05813953488373613,"midi":100,"time":199.38372093023256,"velocity":0.10236220472440945},{"duration":0.04651162790699459,"midi":79,"time":199.3953488372093,"velocity":0.16535433070866143},{"duration":0.034883720930224626,"midi":88,"time":199.3953488372093,"velocity":0.11811023622047244},{"duration":0.023255813953483084,"midi":45,"time":199.40697674418604,"velocity":0.2677165354330709},{"duration":0.05813953488373613,"midi":58,"time":199.41860465116278,"velocity":0.3228346456692913},{"duration":0.023255813953511506,"midi":61,"time":199.41860465116278,"velocity":0.2283464566929134},{"duration":0.03488372093025305,"midi":76,"time":199.41860465116278,"velocity":0.09448818897637795},{"duration":0.03488372093025305,"midi":84,"time":199.41860465116278,"velocity":0.18110236220472442},{"duration":0.08139534883721922,"midi":46,"time":199.43023255813952,"velocity":0.2047244094488189},{"duration":0.06976744186047767,"midi":86,"time":199.43023255813952,"velocity":0.18110236220472442},{"duration":0.20930232558137618,"midi":80,"time":199.4418604651163,"velocity":0.13385826771653545},{"duration":0.034883720930224626,"midi":99,"time":199.45348837209303,"velocity":0.11811023622047244},{"duration":0.04651162790696617,"midi":84,"time":199.46511627906978,"velocity":0.08661417322834646},{"duration":0.04651162790696617,"midi":34,"time":199.47674418604652,"velocity":0.1968503937007874},{"duration":0.17441860465115155,"midi":65,"time":199.47674418604652,"velocity":0.30708661417322836},{"duration":0.1046511627907023,"midi":89,"time":199.48837209302326,"velocity":0.14173228346456693},{"duration":0.04651162790699459,"midi":79,"time":199.52325581395348,"velocity":0.13385826771653545},{"duration":0.023255813953483084,"midi":45,"time":199.53488372093022,"velocity":0.25196850393700787},{"duration":0.03488372093025305,"midi":68,"time":199.53488372093022,"velocity":0.11811023622047244},{"duration":0.12790697674418539,"midi":86,"time":199.53488372093022,"velocity":0.11811023622047244},{"duration":0.06976744186047767,"midi":46,"time":199.5581395348837,"velocity":0.18110236220472442},{"duration":0.06976744186044925,"midi":61,"time":199.56976744186048,"velocity":0.2440944881889764},{"duration":0.04651162790696617,"midi":103,"time":199.58139534883722,"velocity":0.10236220472440945},{"duration":0.05813953488370771,"midi":34,"time":199.6046511627907,"velocity":0.2204724409448819},{"duration":0.04651162790696617,"midi":53,"time":199.6046511627907,"velocity":0.16535433070866143},{"duration":0.023255813953483084,"midi":61,"time":199.65116279069767,"velocity":0.3543307086614173},{"duration":0.023255813953483084,"midi":67,"time":199.65116279069767,"velocity":0.30708661417322836},{"duration":0.034883720930224626,"midi":78,"time":199.65116279069767,"velocity":0.15748031496062992},{"duration":0.034883720930224626,"midi":87,"time":199.65116279069767,"velocity":0.14960629921259844},{"duration":0.04651162790699459,"midi":88,"time":199.65116279069767,"velocity":0.25984251968503935},{"duration":0.1046511627907023,"midi":90,"time":199.65116279069767,"velocity":0.2283464566929134},{"duration":0.08139534883721922,"midi":94,"time":199.65116279069767,"velocity":0.1732283464566929},{"duration":0.04651162790699459,"midi":97,"time":199.65116279069767,"velocity":0.14960629921259844},{"duration":0.08139534883721922,"midi":99,"time":199.65116279069767,"velocity":0.14960629921259844},{"duration":0.03488372093025305,"midi":80,"time":199.6627906976744,"velocity":0.2125984251968504},{"duration":0.04651162790699459,"midi":83,"time":199.6627906976744,"velocity":0.16535433070866143},{"duration":0.06976744186047767,"midi":96,"time":199.6627906976744,"velocity":0.11811023622047244},{"duration":0.06976744186047767,"midi":68,"time":199.67441860465115,"velocity":0.2677165354330709},{"duration":0.04651162790699459,"midi":91,"time":199.67441860465115,"velocity":0.12598425196850394},{"duration":0.011627906976769964,"midi":45,"time":199.6860465116279,"velocity":0.5196850393700787},{"duration":0.13953488372095535,"midi":65,"time":199.6860465116279,"velocity":0.2677165354330709},{"duration":0.30232558139536536,"midi":73,"time":199.6860465116279,"velocity":0.41732283464566927},{"duration":0.06976744186047767,"midi":98,"time":199.6860465116279,"velocity":0.1732283464566929},{"duration":0.011627906976741542,"midi":44,"time":199.69767441860466,"velocity":0.5354330708661418},{"duration":0.023255813953483084,"midi":42,"time":199.7093023255814,"velocity":0.49606299212598426},{"duration":0.05813953488370771,"midi":75,"time":199.72093023255815,"velocity":0.30708661417322836},{"duration":0.05813953488370771,"midi":84,"time":199.72093023255815,"velocity":0.12598425196850394},{"duration":0.023255813953483084,"midi":56,"time":199.7325581395349,"velocity":0.25984251968503935},{"duration":0.034883720930224626,"midi":37,"time":199.75581395348837,"velocity":0.33070866141732286},{"duration":0.08139534883721922,"midi":55,"time":199.75581395348837,"velocity":0.2677165354330709},{"duration":0.04651162790699459,"midi":81,"time":199.77906976744185,"velocity":0.2204724409448819},{"duration":0.06976744186047767,"midi":83,"time":199.77906976744185,"velocity":0.2125984251968504},{"duration":0.06976744186047767,"midi":87,"time":199.77906976744185,"velocity":0.2440944881889764},{"duration":0.03488372093025305,"midi":88,"time":199.7906976744186,"velocity":0.07086614173228346},{"duration":0.05813953488373613,"midi":98,"time":199.80232558139534,"velocity":0.07874015748031496},{"duration":0.05813953488370771,"midi":48,"time":199.8139534883721,"velocity":0.23622047244094488},{"duration":0.17441860465115155,"midi":70,"time":199.8372093023256,"velocity":0.3700787401574803},{"duration":0.04651162790696617,"midi":77,"time":199.8372093023256,"velocity":0.14960629921259844},{"duration":0.0813953488371908,"midi":86,"time":199.8372093023256,"velocity":0.1732283464566929},{"duration":0.0813953488371908,"midi":36,"time":199.84883720930233,"velocity":0.2677165354330709},{"duration":0.04651162790696617,"midi":55,"time":199.84883720930233,"velocity":0.2204724409448819},{"duration":0.2325581395348877,"midi":102,"time":199.84883720930233,"velocity":0.2283464566929134},{"duration":0.06976744186044925,"midi":100,"time":199.86046511627907,"velocity":0.11023622047244094},{"duration":0.023255813953511506,"midi":60,"time":199.91860465116278,"velocity":0.25984251968503935},{"duration":0.03488372093025305,"midi":84,"time":199.93023255813952,"velocity":0.25196850393700787},{"duration":0.09302325581396076,"midi":89,"time":199.93023255813952,"velocity":0.11811023622047244},{"duration":0.11627906976741542,"midi":65,"time":199.9418604651163,"velocity":0.15748031496062992},{"duration":0.04651162790696617,"midi":97,"time":199.9418604651163,"velocity":0.09448818897637795},{"duration":0.17441860465115155,"midi":99,"time":199.9418604651163,"velocity":0.30708661417322836},{"duration":0.034883720930224626,"midi":80,"time":199.95348837209303,"velocity":0.16535433070866143},{"duration":0.09302325581393234,"midi":100,"time":199.96511627906978,"velocity":0.09448818897637795},{"duration":0.034883720930224626,"midi":72,"time":199.98837209302326,"velocity":0.2992125984251969},{"duration":0.13953488372092693,"midi":101,"time":199.98837209302326,"velocity":0.2204724409448819},{"duration":0.034883720930224626,"midi":73,"time":200.01162790697674,"velocity":0.2204724409448819},{"duration":0.13953488372092693,"midi":70,"time":200.02325581395348,"velocity":0.33070866141732286},{"duration":0.09302325581396076,"midi":96,"time":200.02325581395348,"velocity":0.14960629921259844},{"duration":0.04651162790699459,"midi":77,"time":200.03488372093022,"velocity":0.2047244094488189},{"duration":0.08139534883721922,"midi":86,"time":200.03488372093022,"velocity":0.23622047244094488},{"duration":0.03488372093025305,"midi":91,"time":200.04651162790697,"velocity":0.09448818897637795},{"duration":0.03488372093025305,"midi":53,"time":200.0581395348837,"velocity":0.12598425196850394},{"duration":0.023255813953483084,"midi":45,"time":200.06976744186048,"velocity":0.2440944881889764},{"duration":0.034883720930224626,"midi":46,"time":200.09302325581396,"velocity":0.14960629921259844},{"duration":0.034883720930224626,"midi":77,"time":200.09302325581396,"velocity":0.12598425196850394},{"duration":0.034883720930224626,"midi":53,"time":200.1046511627907,"velocity":0.1732283464566929},{"duration":0.05813953488370771,"midi":58,"time":200.11627906976744,"velocity":0.28346456692913385},{"duration":0.034883720930224626,"midi":72,"time":200.11627906976744,"velocity":0.16535433070866143},{"duration":0.04651162790696617,"midi":34,"time":200.13953488372093,"velocity":0.16535433070866143},{"duration":0.03488372093025305,"midi":72,"time":200.17441860465115,"velocity":0.1968503937007874},{"duration":0.03488372093025305,"midi":77,"time":200.17441860465115,"velocity":0.11023622047244094},{"duration":0.2906976744186238,"midi":85,"time":200.17441860465115,"velocity":0.36220472440944884},{"duration":0.04651162790699459,"midi":95,"time":200.17441860465115,"velocity":0.12598425196850394},{"duration":0.12790697674418539,"midi":96,"time":200.17441860465115,"velocity":0.12598425196850394},{"duration":0.03488372093025305,"midi":88,"time":200.1860465116279,"velocity":0.15748031496062992},{"duration":0.03488372093025305,"midi":102,"time":200.1860465116279,"velocity":0.08661417322834646},{"duration":0.011627906976741542,"midi":46,"time":200.2093023255814,"velocity":0.5118110236220472},{"duration":0.2325581395348877,"midi":65,"time":200.2093023255814,"velocity":0.1968503937007874},{"duration":0.011627906976741542,"midi":44,"time":200.22093023255815,"velocity":0.5433070866141733},{"duration":0.034883720930224626,"midi":69,"time":200.22093023255815,"velocity":0.12598425196850394},{"duration":0.023255813953483084,"midi":74,"time":200.22093023255815,"velocity":0.2992125984251969},{"duration":0.05813953488370771,"midi":81,"time":200.22093023255815,"velocity":0.25196850393700787},{"duration":0.034883720930224626,"midi":89,"time":200.22093023255815,"velocity":0.08661417322834646},{"duration":0.11627906976744384,"midi":100,"time":200.22093023255815,"velocity":0.18110236220472442},{"duration":0.0813953488371908,"midi":101,"time":200.22093023255815,"velocity":0.12598425196850394},{"duration":0.034883720930224626,"midi":103,"time":200.22093023255815,"velocity":0.08661417322834646},{"duration":0.034883720930224626,"midi":42,"time":200.2325581395349,"velocity":0.5039370078740157},{"duration":0.08139534883721922,"midi":82,"time":200.2325581395349,"velocity":0.14960629921259844},{"duration":0.13953488372092693,"midi":58,"time":200.24418604651163,"velocity":0.2204724409448819},{"duration":0.034883720930224626,"midi":73,"time":200.24418604651163,"velocity":0.30708661417322836},{"duration":0.04651162790696617,"midi":99,"time":200.24418604651163,"velocity":0.1732283464566929},{"duration":0.034883720930224626,"midi":92,"time":200.25581395348837,"velocity":0.07086614173228346},{"duration":0.09302325581396076,"midi":102,"time":200.25581395348837,"velocity":0.2440944881889764},{"duration":0.04651162790699459,"midi":89,"time":200.2674418604651,"velocity":0.13385826771653545},{"duration":0.04651162790699459,"midi":72,"time":200.27906976744185,"velocity":0.3779527559055118},{"duration":0.04651162790699459,"midi":88,"time":200.27906976744185,"velocity":0.14960629921259844},{"duration":0.023255813953483084,"midi":37,"time":200.3139534883721,"velocity":0.23622047244094488},{"duration":0.0813953488371908,"midi":73,"time":200.32558139534885,"velocity":0.3858267716535433},{"duration":0.15116279069766847,"midi":80,"time":200.32558139534885,"velocity":0.2992125984251969},{"duration":0.034883720930224626,"midi":89,"time":200.32558139534885,"velocity":0.15748031496062992},{"duration":0.034883720930224626,"midi":99,"time":200.3372093023256,"velocity":0.1732283464566929},{"duration":0.09302325581393234,"midi":101,"time":200.3372093023256,"velocity":0.15748031496062992},{"duration":0.09302325581396076,"midi":54,"time":200.37209302325581,"velocity":0.1732283464566929},{"duration":0.04651162790696617,"midi":89,"time":200.38372093023256,"velocity":0.14960629921259844},{"duration":0.034883720930224626,"midi":99,"time":200.38372093023256,"velocity":0.14960629921259844},{"duration":0.04651162790699459,"midi":61,"time":200.3953488372093,"velocity":0.16535433070866143},{"duration":0.09302325581396076,"midi":82,"time":200.3953488372093,"velocity":0.11023622047244094},{"duration":0.11627906976744384,"midi":102,"time":200.40697674418604,"velocity":0.2677165354330709},{"duration":0.06976744186047767,"midi":100,"time":200.41860465116278,"velocity":0.2204724409448819},{"duration":0.023255813953511506,"midi":73,"time":200.43023255813952,"velocity":0.33070866141732286},{"duration":0.06976744186047767,"midi":84,"time":200.43023255813952,"velocity":0.2204724409448819},{"duration":0.03488372093025305,"midi":88,"time":200.43023255813952,"velocity":0.2125984251968504},{"duration":0.04651162790696617,"midi":72,"time":200.4418604651163,"velocity":0.41732283464566927},{"duration":0.034883720930224626,"midi":65,"time":200.45348837209303,"velocity":0.12598425196850394},{"duration":0.1860465116278931,"midi":77,"time":200.45348837209303,"velocity":0.18110236220472442},{"duration":0.034883720930224626,"midi":79,"time":200.45348837209303,"velocity":0.14960629921259844},{"duration":0.034883720930224626,"midi":69,"time":200.46511627906978,"velocity":0.13385826771653545},{"duration":0.034883720930224626,"midi":55,"time":200.48837209302326,"velocity":0.2125984251968504},{"duration":0.04651162790696617,"midi":73,"time":200.48837209302326,"velocity":0.3937007874015748},{"duration":0.1860465116278931,"midi":80,"time":200.48837209302326,"velocity":0.2992125984251969},{"duration":0.04651162790696617,"midi":101,"time":200.48837209302326,"velocity":0.1968503937007874},{"duration":0.034883720930224626,"midi":99,"time":200.51162790697674,"velocity":0.13385826771653545},{"duration":0.034883720930224626,"midi":40,"time":200.52325581395348,"velocity":0.11811023622047244},{"duration":0.17441860465117998,"midi":66,"time":200.52325581395348,"velocity":0.2047244094488189},{"duration":0.09302325581396076,"midi":73,"time":200.54651162790697,"velocity":0.33858267716535434},{"duration":0.03488372093025305,"midi":54,"time":200.5581395348837,"velocity":0.12598425196850394},{"duration":0.11627906976744384,"midi":101,"time":200.5581395348837,"velocity":0.28346456692913385},{"duration":0.2674418604651123,"midi":70,"time":200.58139534883722,"velocity":0.2125984251968504},{"duration":0.06976744186044925,"midi":102,"time":200.6046511627907,"velocity":0.16535433070866143},{"duration":0.05813953488370771,"midi":54,"time":200.61627906976744,"velocity":0.2047244094488189},{"duration":0.05813953488370771,"midi":61,"time":200.61627906976744,"velocity":0.16535433070866143},{"duration":0.04651162790696617,"midi":72,"time":200.63953488372093,"velocity":0.2204724409448819},{"duration":0.034883720930224626,"midi":103,"time":200.63953488372093,"velocity":0.14173228346456693},{"duration":0.05813953488373613,"midi":62,"time":200.67441860465115,"velocity":0.4251968503937008},{"duration":0.06976744186047767,"midi":86,"time":200.67441860465115,"velocity":0.11023622047244094},{"duration":0.04651162790699459,"midi":100,"time":200.67441860465115,"velocity":0.09448818897637795},{"duration":0.03488372093025305,"midi":73,"time":200.6860465116279,"velocity":0.25196850393700787},{"duration":0.16279069767443843,"midi":80,"time":200.6860465116279,"velocity":0.13385826771653545},{"duration":0.06976744186044925,"midi":89,"time":200.69767441860466,"velocity":0.1968503937007874},{"duration":0.034883720930224626,"midi":66,"time":200.7093023255814,"velocity":0.30708661417322836},{"duration":0.034883720930224626,"midi":88,"time":200.7093023255814,"velocity":0.15748031496062992},{"duration":0.04651162790696617,"midi":90,"time":200.7093023255814,"velocity":0.2440944881889764},{"duration":0.1046511627907023,"midi":97,"time":200.7093023255814,"velocity":0.18110236220472442},{"duration":0.11627906976744384,"midi":99,"time":200.7093023255814,"velocity":0.11811023622047244},{"duration":0.15116279069766847,"midi":103,"time":200.7093023255814,"velocity":0.2283464566929134},{"duration":0.1860465116278931,"midi":75,"time":200.72093023255815,"velocity":0.2992125984251969},{"duration":0.023255813953483084,"midi":45,"time":200.7325581395349,"velocity":0.5039370078740157},{"duration":0.1046511627907023,"midi":63,"time":200.7325581395349,"velocity":0.2992125984251969},{"duration":0.22093023255814614,"midi":73,"time":200.75581395348837,"velocity":0.25196850393700787},{"duration":0.25581395348837077,"midi":77,"time":200.75581395348837,"velocity":0.2755905511811024},{"duration":0.04651162790696617,"midi":91,"time":200.75581395348837,"velocity":0.11811023622047244},{"duration":0.023255813953483084,"midi":42,"time":200.7674418604651,"velocity":0.4645669291338583},{"duration":0.04651162790699459,"midi":52,"time":200.7674418604651,"velocity":0.18110236220472442},{"duration":0.034883720930224626,"midi":53,"time":200.8139534883721,"velocity":0.16535433070866143},{"duration":0.034883720930224626,"midi":96,"time":200.8139534883721,"velocity":0.08661417322834646},{"duration":0.023255813953483084,"midi":37,"time":200.82558139534885,"velocity":0.2677165354330709},{"duration":0.09302325581393234,"midi":82,"time":200.82558139534885,"velocity":0.2440944881889764},{"duration":0.05813953488370771,"midi":81,"time":200.84883720930233,"velocity":0.11023622047244094},{"duration":0.09302325581396076,"midi":48,"time":200.86046511627907,"velocity":0.2047244094488189},{"duration":0.023255813953483084,"midi":63,"time":200.86046511627907,"velocity":0.28346456692913385},{"duration":0.034883720930224626,"midi":70,"time":200.86046511627907,"velocity":0.2677165354330709},{"duration":0.13953488372092693,"midi":68,"time":200.8953488372093,"velocity":0.3543307086614173},{"duration":0.06976744186047767,"midi":36,"time":200.90697674418604,"velocity":0.2125984251968504},{"duration":0.03488372093025305,"midi":55,"time":200.91860465116278,"velocity":0.1732283464566929},{"duration":0.03488372093025305,"midi":61,"time":200.91860465116278,"velocity":0.14960629921259844},{"duration":0.034883720930224626,"midi":70,"time":200.9418604651163,"velocity":0.15748031496062992},{"duration":0.3139534883720785,"midi":63,"time":200.95348837209303,"velocity":0.2677165354330709},{"duration":0.034883720930224626,"midi":84,"time":200.95348837209303,"velocity":0.2125984251968504},{"duration":0.034883720930224626,"midi":88,"time":200.96511627906978,"velocity":0.16535433070866143},{"duration":0.04651162790696617,"midi":72,"time":200.97674418604652,"velocity":0.3700787401574803},{"duration":0.034883720930224626,"midi":79,"time":200.97674418604652,"velocity":0.11811023622047244},{"duration":0.12790697674418539,"midi":103,"time":200.97674418604652,"velocity":0.14960629921259844},{"duration":0.04651162790696617,"midi":83,"time":200.98837209302326,"velocity":0.2125984251968504},{"duration":0.04651162790696617,"midi":94,"time":201.01162790697674,"velocity":0.07086614173228346},{"duration":0.06976744186047767,"midi":86,"time":201.02325581395348,"velocity":0.31496062992125984},{"duration":0.3720930232558146,"midi":100,"time":201.02325581395348,"velocity":0.2283464566929134},{"duration":0.08139534883721922,"midi":46,"time":201.03488372093022,"velocity":0.12598425196850394},{"duration":0.06976744186047767,"midi":58,"time":201.03488372093022,"velocity":0.2125984251968504},{"duration":0.05813953488373613,"midi":82,"time":201.03488372093022,"velocity":0.23622047244094488},{"duration":0.04651162790699459,"midi":89,"time":201.04651162790697,"velocity":0.1968503937007874},{"duration":0.04651162790699459,"midi":34,"time":201.0581395348837,"velocity":0.14173228346456693},{"duration":0.11627906976741542,"midi":84,"time":201.06976744186048,"velocity":0.29133858267716534},{"duration":0.06976744186044925,"midi":99,"time":201.06976744186048,"velocity":0.16535433070866143},{"duration":0.1046511627907023,"midi":72,"time":201.09302325581396,"velocity":0.23622047244094488},{"duration":0.034883720930224626,"midi":87,"time":201.09302325581396,"velocity":0.2992125984251969},{"duration":0.034883720930224626,"midi":90,"time":201.09302325581396,"velocity":0.10236220472440945},{"duration":0.04651162790696617,"midi":101,"time":201.1046511627907,"velocity":0.08661417322834646},{"duration":0.1046511627907023,"midi":88,"time":201.11627906976744,"velocity":0.2755905511811024},{"duration":0.06976744186044925,"midi":91,"time":201.11627906976744,"velocity":0.07874015748031496},{"duration":0.034883720930224626,"midi":68,"time":201.12790697674419,"velocity":0.14960629921259844},{"duration":0.05813953488373613,"midi":99,"time":201.15116279069767,"velocity":0.1968503937007874},{"duration":0.08139534883721922,"midi":83,"time":201.17441860465115,"velocity":0.25984251968503935},{"duration":0.04651162790699459,"midi":87,"time":201.1860465116279,"velocity":0.25196850393700787},{"duration":0.034883720930224626,"midi":84,"time":201.19767441860466,"velocity":0.25196850393700787},{"duration":0.034883720930224626,"midi":91,"time":201.19767441860466,"velocity":0.11023622047244094},{"duration":0.06976744186044925,"midi":101,"time":201.19767441860466,"velocity":0.14960629921259844},{"duration":0.04651162790696617,"midi":78,"time":201.22093023255815,"velocity":0.1889763779527559},{"duration":0.023255813953483084,"midi":86,"time":201.2325581395349,"velocity":0.25196850393700787},{"duration":0.04651162790696617,"midi":89,"time":201.2325581395349,"velocity":0.13385826771653545},{"duration":0.034883720930224626,"midi":99,"time":201.2325581395349,"velocity":0.16535433070866143},{"duration":0.034883720930224626,"midi":59,"time":201.24418604651163,"velocity":0.13385826771653545},{"duration":0.034883720930224626,"midi":66,"time":201.24418604651163,"velocity":0.12598425196850394},{"duration":0.04651162790696617,"midi":68,"time":201.24418604651163,"velocity":0.13385826771653545},{"duration":0.034883720930224626,"midi":82,"time":201.24418604651163,"velocity":0.2283464566929134},{"duration":0.04651162790696617,"midi":87,"time":201.24418604651163,"velocity":0.1889763779527559},{"duration":0.034883720930224626,"midi":74,"time":201.25581395348837,"velocity":0.07874015748031496},{"duration":0.22093023255814614,"midi":77,"time":201.25581395348837,"velocity":0.2125984251968504},{"duration":0.04651162790699459,"midi":70,"time":201.2674418604651,"velocity":0.18110236220472442},{"duration":0.04651162790699459,"midi":83,"time":201.2674418604651,"velocity":0.1889763779527559},{"duration":0.27906976744185386,"midi":86,"time":201.2674418604651,"velocity":0.2283464566929134},{"duration":0.023255813953511506,"midi":42,"time":201.2906976744186,"velocity":0.47244094488188976},{"duration":0.03488372093025305,"midi":68,"time":201.30232558139534,"velocity":0.07086614173228346},{"duration":0.034883720930224626,"midi":51,"time":201.3139534883721,"velocity":0.13385826771653545},{"duration":0.023255813953483084,"midi":82,"time":201.3139534883721,"velocity":0.25196850393700787},{"duration":0.04651162790696617,"midi":103,"time":201.32558139534885,"velocity":0.07086614173228346},{"duration":0.023255813953483084,"midi":39,"time":201.3372093023256,"velocity":0.25196850393700787},{"duration":0.1046511627907023,"midi":58,"time":201.3372093023256,"velocity":0.1889763779527559},{"duration":0.11627906976744384,"midi":70,"time":201.3372093023256,"velocity":0.1968503937007874},{"duration":0.09302325581393234,"midi":84,"time":201.3372093023256,"velocity":0.11023622047244094},{"duration":0.034883720930224626,"midi":35,"time":201.37209302325581,"velocity":0.25984251968503935},{"duration":0.05813953488370771,"midi":68,"time":201.37209302325581,"velocity":0.09448818897637795},{"duration":0.04651162790696617,"midi":101,"time":201.38372093023256,"velocity":0.07086614173228346},{"duration":0.03488372093025305,"midi":99,"time":201.40697674418604,"velocity":0.12598425196850394},{"duration":0.04651162790699459,"midi":63,"time":201.43023255813952,"velocity":0.07874015748031496},{"duration":0.034883720930224626,"midi":57,"time":201.4418604651163,"velocity":0.33858267716535434},{"duration":0.023255813953483084,"midi":56,"time":201.47674418604652,"velocity":0.29133858267716534},{"duration":0.1046511627907023,"midi":68,"time":201.5,"velocity":0.2677165354330709},{"duration":0.06976744186047767,"midi":72,"time":201.5,"velocity":0.12598425196850394},{"duration":0.034883720930224626,"midi":89,"time":201.5,"velocity":0.11811023622047244},{"duration":0.09302325581396076,"midi":92,"time":201.5,"velocity":0.15748031496062992},{"duration":0.11627906976744384,"midi":51,"time":201.51162790697674,"velocity":0.14960629921259844},{"duration":0.05813953488373613,"midi":90,"time":201.52325581395348,"velocity":0.13385826771653545},{"duration":0.08139534883721922,"midi":94,"time":201.52325581395348,"velocity":0.1889763779527559},{"duration":0.03488372093025305,"midi":56,"time":201.53488372093022,"velocity":0.14173228346456693},{"duration":0.023255813953483084,"midi":76,"time":201.53488372093022,"velocity":0.25196850393700787},{"duration":0.06976744186047767,"midi":96,"time":201.53488372093022,"velocity":0.16535433070866143},{"duration":0.09302325581396076,"midi":44,"time":201.54651162790697,"velocity":0.1889763779527559},{"duration":0.08139534883721922,"midi":75,"time":201.5581395348837,"velocity":0.3543307086614173},{"duration":0.034883720930224626,"midi":79,"time":201.59302325581396,"velocity":0.12598425196850394},{"duration":0.09302325581393234,"midi":91,"time":201.59302325581396,"velocity":0.25984251968503935},{"duration":0.06976744186044925,"midi":95,"time":201.59302325581396,"velocity":0.13385826771653545},{"duration":0.05813953488370771,"midi":32,"time":201.6046511627907,"velocity":0.14173228346456693},{"duration":0.48837209302325846,"midi":72,"time":201.6046511627907,"velocity":0.15748031496062992},{"duration":0.08139534883721922,"midi":68,"time":201.61627906976744,"velocity":0.1732283464566929},{"duration":0.034883720930224626,"midi":74,"time":201.62790697674419,"velocity":0.18110236220472442},{"duration":0.04651162790696617,"midi":96,"time":201.63953488372093,"velocity":0.16535433070866143},{"duration":0.06976744186047767,"midi":90,"time":201.65116279069767,"velocity":0.1968503937007874},{"duration":0.05813953488373613,"midi":56,"time":201.6627906976744,"velocity":0.2283464566929134},{"duration":0.13953488372092693,"midi":75,"time":201.6627906976744,"velocity":0.23622047244094488},{"duration":0.03488372093025305,"midi":98,"time":201.6860465116279,"velocity":0.11023622047244094},{"duration":0.05813953488373613,"midi":99,"time":201.6860465116279,"velocity":0.15748031496062992},{"duration":0.023255813953483084,"midi":61,"time":201.75581395348837,"velocity":0.28346456692913385},{"duration":0.034883720930224626,"midi":88,"time":201.7674418604651,"velocity":0.13385826771653545},{"duration":0.04651162790699459,"midi":90,"time":201.7674418604651,"velocity":0.2047244094488189},{"duration":0.03488372093025305,"midi":45,"time":201.77906976744185,"velocity":0.4881889763779528},{"duration":0.03488372093025305,"midi":89,"time":201.77906976744185,"velocity":0.13385826771653545},{"duration":0.03488372093025305,"midi":91,"time":201.77906976744185,"velocity":0.11811023622047244},{"duration":0.023255813953483084,"midi":42,"time":201.82558139534885,"velocity":0.4330708661417323},{"duration":0.2674418604651123,"midi":68,"time":201.84883720930233,"velocity":0.15748031496062992},{"duration":0.04651162790696617,"midi":56,"time":201.87209302325581,"velocity":0.13385826771653545},{"duration":0.12790697674418539,"midi":75,"time":202,"velocity":0.09448818897637795},{"duration":0.05813953488370771,"midi":44,"time":202.06976744186048,"velocity":0.1732283464566929},{"duration":0.034883720930224626,"midi":51,"time":202.06976744186048,"velocity":0.07874015748031496},{"duration":0.023255813953483084,"midi":57,"time":202.08139534883722,"velocity":0.36220472440944884},{"duration":0.023255813953483084,"midi":56,"time":202.1046511627907,"velocity":0.30708661417322836},{"duration":0.034883720930224626,"midi":32,"time":202.12790697674419,"velocity":0.11811023622047244},{"duration":0.19767441860466306,"midi":68,"time":202.12790697674419,"velocity":0.2047244094488189},{"duration":0.023255813953483084,"midi":55,"time":202.15116279069767,"velocity":0.2283464566929134},{"duration":0.06976744186047767,"midi":56,"time":202.17441860465115,"velocity":0.36220472440944884},{"duration":0.03488372093025305,"midi":44,"time":202.1860465116279,"velocity":0.1889763779527559},{"duration":0.0813953488371908,"midi":75,"time":202.2093023255814,"velocity":0.11811023622047244},{"duration":0.04651162790696617,"midi":44,"time":202.2325581395349,"velocity":0.11023622047244094},{"duration":0.034883720930224626,"midi":51,"time":202.2325581395349,"velocity":0.09448818897637795},{"duration":0.04651162790699459,"midi":32,"time":202.2674418604651,"velocity":0.09448818897637795},{"duration":0.03488372093025305,"midi":72,"time":202.2906976744186,"velocity":0.3543307086614173},{"duration":0.03488372093025305,"midi":58,"time":202.30232558139534,"velocity":0.29133858267716534},{"duration":0.03488372093025305,"midi":91,"time":202.30232558139534,"velocity":0.07874015748031496},{"duration":0.03488372093025305,"midi":102,"time":202.30232558139534,"velocity":0.09448818897637795},{"duration":0.2674418604651123,"midi":63,"time":202.32558139534885,"velocity":0.2125984251968504},{"duration":0.034883720930224626,"midi":73,"time":202.32558139534885,"velocity":0.29133858267716534},{"duration":0.05813953488370771,"midi":81,"time":202.32558139534885,"velocity":0.13385826771653545},{"duration":0.06976744186044925,"midi":89,"time":202.32558139534885,"velocity":0.15748031496062992},{"duration":0.023255813953483084,"midi":42,"time":202.34883720930233,"velocity":0.44881889763779526},{"duration":0.034883720930224626,"midi":56,"time":202.34883720930233,"velocity":0.15748031496062992},{"duration":0.04651162790696617,"midi":84,"time":202.34883720930233,"velocity":0.11023622047244094},{"duration":0.05813953488370771,"midi":74,"time":202.36046511627907,"velocity":0.33858267716535434},{"duration":0.06976744186047767,"midi":60,"time":202.37209302325581,"velocity":0.10236220472440945},{"duration":0.08139534883721922,"midi":102,"time":202.37209302325581,"velocity":0.1889763779527559},{"duration":0.05813953488373613,"midi":90,"time":202.38372093023256,"velocity":0.2125984251968504},{"duration":0.05813953488373613,"midi":96,"time":202.38372093023256,"velocity":0.18110236220472442},{"duration":0.05813953488373613,"midi":56,"time":202.3953488372093,"velocity":0.1732283464566929},{"duration":0.05813953488373613,"midi":81,"time":202.3953488372093,"velocity":0.18110236220472442},{"duration":0.32558139534884845,"midi":75,"time":202.40697674418604,"velocity":0.3779527559055118},{"duration":0.04651162790699459,"midi":72,"time":202.41860465116278,"velocity":0.2125984251968504},{"duration":0.04651162790699459,"midi":80,"time":202.41860465116278,"velocity":0.09448818897637795},{"duration":0.22093023255811772,"midi":91,"time":202.4418604651163,"velocity":0.29133858267716534},{"duration":0.034883720930224626,"midi":60,"time":202.46511627906978,"velocity":0.14173228346456693},{"duration":0.2325581395348877,"midi":72,"time":202.47674418604652,"velocity":0.23622047244094488},{"duration":0.04651162790696617,"midi":94,"time":202.47674418604652,"velocity":0.13385826771653545},{"duration":0.04651162790696617,"midi":97,"time":202.47674418604652,"velocity":0.11023622047244094},{"duration":0.11627906976744384,"midi":60,"time":202.51162790697674,"velocity":0.15748031496062992},{"duration":0.11627906976744384,"midi":80,"time":202.52325581395348,"velocity":0.15748031496062992},{"duration":0.05813953488373613,"midi":82,"time":202.52325581395348,"velocity":0.15748031496062992},{"duration":0.034883720930224626,"midi":53,"time":202.59302325581396,"velocity":0.07086614173228346},{"duration":0.034883720930224626,"midi":57,"time":202.61627906976744,"velocity":0.09448818897637795},{"duration":0.18604651162792152,"midi":60,"time":202.6627906976744,"velocity":0.28346456692913385},{"duration":0.04651162790699459,"midi":91,"time":202.67441860465115,"velocity":0.14960629921259844},{"duration":0.09302325581396076,"midi":48,"time":202.72093023255815,"velocity":0.07874015748031496},{"duration":0.04651162790696617,"midi":53,"time":202.72093023255815,"velocity":0.08661417322834646},{"duration":0.2325581395348877,"midi":75,"time":202.75581395348837,"velocity":0.1732283464566929},{"duration":0.04651162790696617,"midi":89,"time":202.82558139534885,"velocity":0.13385826771653545},{"duration":0.05813953488370771,"midi":90,"time":202.82558139534885,"velocity":0.14173228346456693},{"duration":0.034883720930224626,"midi":91,"time":202.82558139534885,"velocity":0.10236220472440945},{"duration":0.06976744186044925,"midi":66,"time":202.8372093023256,"velocity":0.2204724409448819},{"duration":0.06976744186044925,"midi":92,"time":202.84883720930233,"velocity":0.16535433070866143},{"duration":0.023255813953483084,"midi":44,"time":202.86046511627907,"velocity":0.44881889763779526},{"duration":0.06976744186044925,"midi":95,"time":202.86046511627907,"velocity":0.12598425196850394},{"duration":0.023255813953483084,"midi":73,"time":202.87209302325581,"velocity":0.2283464566929134},{"duration":0.023255813953483084,"midi":42,"time":202.88372093023256,"velocity":0.3779527559055118},{"duration":0.08139534883721922,"midi":94,"time":202.8953488372093,"velocity":0.1889763779527559},{"duration":0.03488372093025305,"midi":65,"time":202.90697674418604,"velocity":0.12598425196850394},{"duration":0.05813953488373613,"midi":73,"time":202.90697674418604,"velocity":0.2440944881889764},{"duration":0.05813953488373613,"midi":91,"time":202.91860465116278,"velocity":0.2047244094488189},{"duration":0.023255813953483084,"midi":61,"time":202.9418604651163,"velocity":0.2755905511811024},{"duration":0.034883720930224626,"midi":36,"time":202.95348837209303,"velocity":0.12598425196850394},{"duration":0.04651162790696617,"midi":64,"time":202.95348837209303,"velocity":0.2047244094488189},{"duration":0.04651162790696617,"midi":60,"time":202.96511627906978,"velocity":0.15748031496062992},{"duration":0.09302325581396076,"midi":95,"time":202.97674418604652,"velocity":0.31496062992125984},{"duration":0.04651162790696617,"midi":48,"time":202.98837209302326,"velocity":0.11023622047244094},{"duration":0.1046511627907023,"midi":89,"time":202.98837209302326,"velocity":0.2755905511811024},{"duration":0.09302325581396076,"midi":68,"time":203.01162790697674,"velocity":0.11811023622047244},{"duration":0.034883720930224626,"midi":36,"time":203.02325581395348,"velocity":0.13385826771653545},{"duration":0.05813953488373613,"midi":73,"time":203.03488372093022,"velocity":0.2047244094488189},{"duration":0.15116279069766847,"midi":75,"time":203.03488372093022,"velocity":0.2125984251968504},{"duration":0.03488372093025305,"midi":61,"time":203.04651162790697,"velocity":0.25196850393700787},{"duration":0.05813953488373613,"midi":92,"time":203.04651162790697,"velocity":0.08661417322834646},{"duration":0.03488372093025305,"midi":65,"time":203.0581395348837,"velocity":0.14960629921259844},{"duration":0.09302325581396076,"midi":94,"time":203.0581395348837,"velocity":0.18110236220472442},{"duration":0.034883720930224626,"midi":62,"time":203.08139534883722,"velocity":0.25984251968503935},{"duration":0.034883720930224626,"midi":72,"time":203.09302325581396,"velocity":0.1889763779527559},{"duration":0.06976744186044925,"midi":88,"time":203.09302325581396,"velocity":0.1889763779527559},{"duration":0.05813953488370771,"midi":61,"time":203.11627906976744,"velocity":0.31496062992125984},{"duration":0.06976744186047767,"midi":46,"time":203.12790697674419,"velocity":0.07874015748031496},{"duration":0.09302325581396076,"midi":95,"time":203.15116279069767,"velocity":0.13385826771653545},{"duration":0.05813953488373613,"midi":34,"time":203.17441860465115,"velocity":0.09448818897637795},{"duration":0.023255813953511506,"midi":62,"time":203.17441860465115,"velocity":0.25984251968503935},{"duration":0.03488372093025305,"midi":66,"time":203.1860465116279,"velocity":0.12598425196850394},{"duration":0.15116279069766847,"midi":61,"time":203.19767441860466,"velocity":0.2677165354330709},{"duration":0.1046511627907023,"midi":85,"time":203.22093023255815,"velocity":0.12598425196850394},{"duration":0.05813953488370771,"midi":65,"time":203.2325581395349,"velocity":0.13385826771653545},{"duration":0.11627906976744384,"midi":73,"time":203.2325581395349,"velocity":0.33070866141732286},{"duration":0.04651162790699459,"midi":68,"time":203.27906976744185,"velocity":0.10236220472440945},{"duration":0.0813953488371908,"midi":68,"time":203.34883720930233,"velocity":0.14960629921259844},{"duration":0.034883720930224626,"midi":74,"time":203.34883720930233,"velocity":0.2283464566929134},{"duration":0.034883720930224626,"midi":66,"time":203.36046511627907,"velocity":0.1732283464566929},{"duration":0.12790697674418539,"midi":77,"time":203.45348837209303,"velocity":0.13385826771653545},{"duration":0.09302325581393234,"midi":61,"time":203.46511627906978,"velocity":0.1968503937007874},{"duration":0.034883720930224626,"midi":36,"time":203.47674418604652,"velocity":0.1889763779527559},{"duration":0.2325581395348877,"midi":73,"time":203.5,"velocity":0.29133858267716534},{"duration":0.04651162790696617,"midi":75,"time":203.56976744186048,"velocity":0.07086614173228346},{"duration":0.034883720930224626,"midi":68,"time":203.59302325581396,"velocity":0.09448818897637795},{"duration":0.06976744186044925,"midi":56,"time":203.61627906976744,"velocity":0.2283464566929134},{"duration":0.22093023255814614,"midi":68,"time":203.63953488372093,"velocity":0.25196850393700787},{"duration":0.1046511627907023,"midi":77,"time":203.63953488372093,"velocity":0.08661417322834646},{"duration":0.04651162790699459,"midi":44,"time":203.6860465116279,"velocity":0.07086614173228346},{"duration":0.09302325581396076,"midi":61,"time":203.6860465116279,"velocity":0.2047244094488189},{"duration":0.06976744186044925,"midi":32,"time":203.72093023255815,"velocity":0.12598425196850394},{"duration":0.034883720930224626,"midi":51,"time":203.74418604651163,"velocity":0.07874015748031496},{"duration":0.08139534883721922,"midi":65,"time":203.75581395348837,"velocity":0.09448818897637795},{"duration":0.06976744186047767,"midi":61,"time":203.87209302325581,"velocity":0.25196850393700787},{"duration":0.06976744186047767,"midi":68,"time":203.87209302325581,"velocity":0.1732283464566929},{"duration":0.034883720930224626,"midi":89,"time":203.88372093023256,"velocity":0.15748031496062992},{"duration":0.05813953488373613,"midi":97,"time":203.88372093023256,"velocity":0.11023622047244094},{"duration":0.034883720930224626,"midi":45,"time":203.8953488372093,"velocity":0.4094488188976378},{"duration":0.034883720930224626,"midi":75,"time":203.8953488372093,"velocity":0.10236220472440945},{"duration":0.05813953488373613,"midi":90,"time":203.8953488372093,"velocity":0.14173228346456693},{"duration":0.05813953488373613,"midi":92,"time":203.8953488372093,"velocity":0.10236220472440945},{"duration":0.03488372093025305,"midi":56,"time":203.93023255813952,"velocity":0.16535433070866143},{"duration":0.023255813953483084,"midi":42,"time":203.9418604651163,"velocity":0.3700787401574803},{"duration":0.04651162790696617,"midi":75,"time":203.95348837209303,"velocity":0.14960629921259844},{"duration":0.034883720930224626,"midi":68,"time":203.97674418604652,"velocity":0.14173228346456693},{"duration":0.04651162790696617,"midi":70,"time":203.98837209302326,"velocity":0.14173228346456693},{"duration":0.034883720930224626,"midi":83,"time":204.02325581395348,"velocity":0.07086614173228346},{"duration":0.03488372093025305,"midi":97,"time":204.03488372093022,"velocity":0.09448818897637795},{"duration":0.08139534883721922,"midi":44,"time":204.04651162790697,"velocity":0.12598425196850394},{"duration":0.05813953488373613,"midi":56,"time":204.04651162790697,"velocity":0.14960629921259844},{"duration":0.06976744186047767,"midi":70,"time":204.0581395348837,"velocity":0.2204724409448819},{"duration":0.05813953488370771,"midi":51,"time":204.06976744186048,"velocity":0.13385826771653545},{"duration":0.05813953488370771,"midi":66,"time":204.08139534883722,"velocity":0.08661417322834646},{"duration":0.06976744186044925,"midi":32,"time":204.1046511627907,"velocity":0.11811023622047244},{"duration":0.1046511627907023,"midi":56,"time":204.13953488372093,"velocity":0.2125984251968504},{"duration":0.034883720930224626,"midi":73,"time":204.13953488372093,"velocity":0.14960629921259844},{"duration":0.06976744186047767,"midi":85,"time":204.1627906976744,"velocity":0.30708661417322836},{"duration":0.034883720930224626,"midi":72,"time":204.22093023255815,"velocity":0.16535433070866143},{"duration":0.05813953488373613,"midi":70,"time":204.2674418604651,"velocity":0.1889763779527559},{"duration":0.05813953488373613,"midi":100,"time":204.27906976744185,"velocity":0.18110236220472442},{"duration":0.12790697674418539,"midi":56,"time":204.2906976744186,"velocity":0.25196850393700787},{"duration":0.06976744186047767,"midi":61,"time":204.2906976744186,"velocity":0.1889763779527559},{"duration":0.03488372093025305,"midi":96,"time":204.2906976744186,"velocity":0.11023622047244094},{"duration":0.03488372093025305,"midi":101,"time":204.2906976744186,"velocity":0.15748031496062992},{"duration":0.04651162790696617,"midi":49,"time":204.3139534883721,"velocity":0.07086614173228346},{"duration":0.034883720930224626,"midi":37,"time":204.34883720930233,"velocity":0.12598425196850394},{"duration":0.023255813953483084,"midi":60,"time":204.36046511627907,"velocity":0.2283464566929134},{"duration":0.03488372093025305,"midi":81,"time":204.40697674418604,"velocity":0.12598425196850394},{"duration":0.11627906976744384,"midi":82,"time":204.41860465116278,"velocity":0.14173228346456693},{"duration":0.0813953488371908,"midi":89,"time":204.4418604651163,"velocity":0.08661417322834646},{"duration":0.12790697674418539,"midi":93,"time":204.4418604651163,"velocity":0.12598425196850394},{"duration":0.04651162790696617,"midi":97,"time":204.4418604651163,"velocity":0.08661417322834646},{"duration":0.04651162790696617,"midi":58,"time":204.45348837209303,"velocity":0.10236220472440945},{"duration":0.16279069767441,"midi":77,"time":204.45348837209303,"velocity":0.2440944881889764},{"duration":0.034883720930224626,"midi":84,"time":204.45348837209303,"velocity":0.07086614173228346},{"duration":0.023255813953483084,"midi":43,"time":204.46511627906978,"velocity":0.36220472440944884},{"duration":0.13953488372092693,"midi":96,"time":204.47674418604652,"velocity":0.2125984251968504},{"duration":0.12790697674418539,"midi":67,"time":204.48837209302326,"velocity":0.2440944881889764},{"duration":0.09302325581396076,"midi":68,"time":204.61627906976744,"velocity":0.2047244094488189},{"duration":0.05813953488373613,"midi":65,"time":204.63953488372093,"velocity":0.15748031496062992},{"duration":0.04651162790696617,"midi":67,"time":204.7093023255814,"velocity":0.2047244094488189},{"duration":0.04651162790696617,"midi":68,"time":204.75581395348837,"velocity":0.2204724409448819},{"duration":0.03488372093025305,"midi":65,"time":204.77906976744185,"velocity":0.12598425196850394},{"duration":0.04651162790699459,"midi":74,"time":204.80232558139534,"velocity":0.16535433070866143},{"duration":0.24418604651162923,"midi":65,"time":204.82558139534885,"velocity":0.33858267716535434},{"duration":0.04651162790696617,"midi":70,"time":204.8372093023256,"velocity":0.14173228346456693},{"duration":0.034883720930224626,"midi":73,"time":204.87209302325581,"velocity":0.07874015748031496},{"duration":0.04651162790699459,"midi":68,"time":204.90697674418604,"velocity":0.2047244094488189},{"duration":0.04651162790699459,"midi":103,"time":204.91860465116278,"velocity":0.07874015748031496},{"duration":0.034883720930224626,"midi":45,"time":204.95348837209303,"velocity":0.3779527559055118},{"duration":0.023255813953483084,"midi":42,"time":205,"velocity":0.33070866141732286},{"duration":0.1511627906976969,"midi":73,"time":205.0581395348837,"velocity":0.11023622047244094},{"duration":0.06976744186044925,"midi":68,"time":205.08139534883722,"velocity":0.11023622047244094},{"duration":0.1046511627907023,"midi":65,"time":205.1046511627907,"velocity":0.14173228346456693},{"duration":0.034883720930224626,"midi":36,"time":205.13953488372093,"velocity":0.08661417322834646},{"duration":0.04651162790699459,"midi":68,"time":205.1860465116279,"velocity":0.14173228346456693},{"duration":0.034883720930224626,"midi":62,"time":205.19767441860466,"velocity":0.1732283464566929},{"duration":0.05813953488370771,"midi":83,"time":205.19767441860466,"velocity":0.2283464566929134},{"duration":0.06976744186044925,"midi":81,"time":205.2093023255814,"velocity":0.16535433070866143},{"duration":0.05813953488370771,"midi":75,"time":205.22093023255815,"velocity":0.25984251968503935},{"duration":0.034883720930224626,"midi":92,"time":205.24418604651163,"velocity":0.07874015748031496},{"duration":0.05813953488373613,"midi":82,"time":205.25581395348837,"velocity":0.11811023622047244},{"duration":0.08139534883721922,"midi":63,"time":205.27906976744185,"velocity":0.11811023622047244},{"duration":0.04651162790699459,"midi":68,"time":205.2906976744186,"velocity":0.14960629921259844},{"duration":0.034883720930224626,"midi":84,"time":205.32558139534885,"velocity":0.11023622047244094},{"duration":0.06976744186044925,"midi":82,"time":205.3372093023256,"velocity":0.2677165354330709},{"duration":0.1046511627907023,"midi":87,"time":205.3372093023256,"velocity":0.1968503937007874},{"duration":0.034883720930224626,"midi":68,"time":205.3953488372093,"velocity":0.09448818897637795},{"duration":0.023255813953483084,"midi":83,"time":205.40697674418604,"velocity":0.25196850393700787},{"duration":0.1046511627907023,"midi":84,"time":205.40697674418604,"velocity":0.14960629921259844},{"duration":0.1511627906976969,"midi":82,"time":205.43023255813952,"velocity":0.2440944881889764},{"duration":0.04651162790696617,"midi":75,"time":205.4418604651163,"velocity":0.1889763779527559},{"duration":0.20930232558137618,"midi":68,"time":205.47674418604652,"velocity":0.15748031496062992},{"duration":0.2093023255814046,"midi":91,"time":205.48837209302326,"velocity":0.2125984251968504},{"duration":0.023255813953483084,"midi":42,"time":205.52325581395348,"velocity":0.31496062992125984},{"duration":0.03488372093025305,"midi":84,"time":205.53488372093022,"velocity":0.09448818897637795},{"duration":0.11627906976744384,"midi":87,"time":205.53488372093022,"velocity":0.16535433070866143},{"duration":0.11627906976744384,"midi":75,"time":205.5581395348837,"velocity":0.09448818897637795},{"duration":0.034883720930224626,"midi":81,"time":205.56976744186048,"velocity":0.16535433070866143},{"duration":0.1046511627907023,"midi":82,"time":205.6046511627907,"velocity":0.1889763779527559},{"duration":0.12790697674418539,"midi":72,"time":205.7325581395349,"velocity":0.08661417322834646},{"duration":0.12790697674418539,"midi":75,"time":205.74418604651163,"velocity":0.14173228346456693},{"duration":0.06976744186044925,"midi":68,"time":205.84883720930233,"velocity":0.12598425196850394},{"duration":0.13953488372092693,"midi":68,"time":205.98837209302326,"velocity":0.16535433070866143},{"duration":0.034883720930224626,"midi":45,"time":206.01162790697674,"velocity":0.3464566929133858},{"duration":0.023255813953511506,"midi":42,"time":206.0581395348837,"velocity":0.28346456692913385},{"duration":0.05813953488373613,"midi":70,"time":206.15116279069767,"velocity":0.18110236220472442},{"duration":0.034883720930224626,"midi":73,"time":206.2674418604651,"velocity":0.2440944881889764},{"duration":0.05813953488370771,"midi":58,"time":206.3372093023256,"velocity":0.10236220472440945},{"duration":0.0813953488371908,"midi":83,"time":206.56976744186048,"velocity":0.07874015748031496},{"duration":0.023255813953483084,"midi":42,"time":206.58139534883722,"velocity":0.29133858267716534},{"duration":0.0813953488371908,"midi":90,"time":206.58139534883722,"velocity":0.11811023622047244},{"duration":0.04651162790699459,"midi":65,"time":206.6860465116279,"velocity":0.08661417322834646},{"duration":0.08139534883721922,"midi":92,"time":206.6860465116279,"velocity":0.15748031496062992},{"duration":0.0813953488371908,"midi":68,"time":206.69767441860466,"velocity":0.10236220472440945},{"duration":0.06976744186044925,"midi":102,"time":206.69767441860466,"velocity":0.10236220472440945},{"duration":0.034883720930224626,"midi":95,"time":206.7674418604651,"velocity":0.14960629921259844},{"duration":0.11627906976744384,"midi":96,"time":206.80232558139534,"velocity":0.1968503937007874},{"duration":0.0813953488371908,"midi":68,"time":206.8372093023256,"velocity":0.11023622047244094},{"duration":0.034883720930224626,"midi":92,"time":206.86046511627907,"velocity":0.14960629921259844},{"duration":0.034883720930224626,"midi":102,"time":206.86046511627907,"velocity":0.10236220472440945},{"duration":0.034883720930224626,"midi":72,"time":206.87209302325581,"velocity":0.12598425196850394},{"duration":0.03488372093025305,"midi":67,"time":206.91860465116278,"velocity":0.13385826771653545},{"duration":0.03488372093025305,"midi":65,"time":207.03488372093022,"velocity":0.11811023622047244},{"duration":0.023255813953483084,"midi":44,"time":207.09302325581396,"velocity":0.29133858267716534},{"duration":0.04651162790696617,"midi":72,"time":207.13953488372093,"velocity":0.07874015748031496},{"duration":0.04651162790696617,"midi":73,"time":207.32558139534885,"velocity":0.1968503937007874},{"duration":0.04651162790696617,"midi":80,"time":207.38372093023256,"velocity":0.07874015748031496},{"duration":0.04651162790699459,"midi":89,"time":207.40697674418604,"velocity":0.09448818897637795},{"duration":0.03488372093025305,"midi":89,"time":207.5581395348837,"velocity":0.12598425196850394},{"duration":0.034883720930224626,"midi":82,"time":207.7325581395349,"velocity":0.11811023622047244},{"duration":0.1046511627907023,"midi":82,"time":207.77906976744185,"velocity":0.11023622047244094}]}]}
