{"tracks":[{"instrument":{"family":"piano","number":0,"name":"acoustic grand piano"},"notes":[{"duration":0.11450375,"midi":48,"time":0,"velocity":0.3937007874015748},{"duration":0.458015,"midi":36,"time":0,"velocity":0.3937007874015748},{"duration":0.11450375,"midi":51,"time":0.11450375,"velocity":0.3937007874015748},{"duration":0.2290075,"midi":55,"time":0.2290075,"velocity":0.3937007874015748},{"duration":0.22900749999999997,"midi":50,"time":0.458015,"velocity":0.3937007874015748},{"duration":0.458015,"midi":35,"time":0.458015,"velocity":0.3937007874015748},{"duration":0.11450375000000002,"midi":48,"time":0.6870225,"velocity":0.3937007874015748},{"duration":0.22900750000000003,"midi":53,"time":0.80152625,"velocity":0.3937007874015748},{"duration":0.45801499999999995,"midi":34,"time":0.91603,"velocity":0.3937007874015748},{"duration":0.22900750000000003,"midi":53,"time":1.03053375,"velocity":0.3937007874015748},{"duration":0.1145037499999999,"midi":48,"time":1.25954125,"velocity":0.3937007874015748},{"duration":0.34351125000000016,"midi":33,"time":1.374045,"velocity":0.3937007874015748},{"duration":0.22900750000000003,"midi":48,"time":1.374045,"velocity":0.3937007874015748},{"duration":0.22900750000000003,"midi":50,"time":1.6030525,"velocity":0.3937007874015748},{"duration":0.1145037499999999,"midi":32,"time":1.7175562500000001,"velocity":0.3937007874015748},{"duration":0.1145037499999999,"midi":48,"time":1.83206,"velocity":0.3937007874015748},{"duration":0.11450375000000013,"midi":51,"time":1.94656375,"velocity":0.3937007874015748},{"duration":0.2290074999999998,"midi":36,"time":2.0610675,"velocity":0.3937007874015748},{"duration":0.1145037499999999,"midi":55,"time":2.0610675,"velocity":0.3937007874015748},{"duration":0.1145037499999999,"midi":48,"time":2.17557125,"velocity":0.3937007874015748},{"duration":0.22900750000000025,"midi":50,"time":2.290075,"velocity":0.3937007874015748},{"duration":0.22900750000000025,"midi":35,"time":2.290075,"velocity":0.3937007874015748},{"duration":0.1145037499999999,"midi":48,"time":2.5190825,"velocity":0.3937007874015748},{"duration":0.2290074999999998,"midi":53,"time":2.63358625,"velocity":0.3937007874015748},{"duration":0.1145037499999999,"midi":34,"time":2.74809,"velocity":0.3937007874015748},{"duration":0.11450375000000035,"midi":33,"time":2.86259375,"velocity":0.3937007874015748},{"duration":0.22900750000000025,"midi":53,"time":2.86259375,"velocity":0.3937007874015748},{"duration":0.1145037499999999,"midi":48,"time":3.09160125,"velocity":0.3937007874015748},{"duration":0.1145037499999999,"midi":32,"time":3.09160125,"velocity":0.3937007874015748},{"duration":0.22900750000000025,"midi":48,"time":3.206105,"velocity":0.3937007874015748},{"duration":0.11450375000000035,"midi":32,"time":3.32060875,"velocity":0.3937007874015748},{"duration":0.2290074999999998,"midi":50,"time":3.4351125000000002,"velocity":0.3937007874015748},{"duration":0.1145037499999999,"midi":31,"time":3.4351125000000002,"velocity":0.3937007874015748},{"duration":0.1145037499999999,"midi":48,"time":3.66412,"velocity":0.3937007874015748},{"duration":0.45801500000000006,"midi":36,"time":3.66412,"velocity":0.3937007874015748},{"duration":0.1145037499999999,"midi":51,"time":3.77862375,"velocity":0.3937007874015748},{"duration":0.22900750000000025,"midi":55,"time":3.8931275,"velocity":0.3937007874015748},{"duration":0.4580149999999996,"midi":35,"time":4.122135,"velocity":0.3937007874015748},{"duration":0.2290074999999998,"midi":50,"time":4.122135,"velocity":0.3937007874015748},{"duration":0.1145037499999999,"midi":48,"time":4.3511425,"velocity":0.3937007874015748},{"duration":0.2290074999999998,"midi":53,"time":4.46564625,"velocity":0.3937007874015748},{"duration":0.4580150000000005,"midi":34,"time":4.58015,"velocity":0.3937007874015748},{"duration":0.2290075000000007,"midi":53,"time":4.69465375,"velocity":0.3937007874015748},{"duration":0.1145037499999999,"midi":48,"time":4.92366125,"velocity":0.3937007874015748},{"duration":0.2290074999999998,"midi":51,"time":5.038165,"velocity":0.3937007874015748},{"duration":0.3435112499999997,"midi":32,"time":5.038165,"velocity":0.3937007874015748},{"duration":0.2290074999999998,"midi":58,"time":5.2671725,"velocity":0.3937007874015748},{"duration":0.1145037499999999,"midi":31,"time":5.38167625,"velocity":0.3937007874015748},{"duration":0.1145037499999999,"midi":58,"time":5.49618,"velocity":0.3937007874015748},{"duration":0.1145037499999999,"midi":58,"time":5.49618,"velocity":0.3937007874015748},{"duration":0.917222747395833,"midi":31,"time":5.49618,"velocity":0.3937007874015748},{"duration":0.11450375000000079,"midi":60,"time":5.5570101171875,"velocity":0.3937007874015748},{"duration":0.11450375000000079,"midi":60,"time":5.5570101171875,"velocity":0.3937007874015748},{"duration":0.1145037499999999,"midi":58,"time":5.620225729166667,"velocity":0.3937007874015748},{"duration":0.1145037499999999,"midi":58,"time":5.620225729166667,"velocity":0.3937007874015748},{"duration":0.1145037499999999,"midi":60,"time":5.68224859375,"velocity":0.3937007874015748},{"duration":0.1145037499999999,"midi":60,"time":5.68224859375,"velocity":0.3937007874015748},{"duration":0.1145037499999999,"midi":58,"time":5.744271458333333,"velocity":0.3937007874015748},{"duration":0.1145037499999999,"midi":58,"time":5.744271458333333,"velocity":0.3937007874015748},{"duration":0.1145037499999999,"midi":60,"time":5.806294322916667,"velocity":0.3937007874015748},{"duration":0.1145037499999999,"midi":60,"time":5.806294322916667,"velocity":0.3937007874015748},{"duration":0.1145037499999999,"midi":58,"time":5.8683171875,"velocity":0.3937007874015748},{"duration":0.1145037499999999,"midi":58,"time":5.8683171875,"velocity":0.3937007874015748},{"duration":0.1145037499999999,"midi":60,"time":5.930340052083333,"velocity":0.3937007874015748},{"duration":0.1145037499999999,"midi":60,"time":5.930340052083333,"velocity":0.3937007874015748},{"duration":0.1145037499999999,"midi":58,"time":5.9935556640625,"velocity":0.3937007874015748},{"duration":0.1145037499999999,"midi":58,"time":5.9935556640625,"velocity":0.3937007874015748},{"duration":0.1145037499999999,"midi":60,"time":6.0555785286458335,"velocity":0.3937007874015748},{"duration":0.1145037499999999,"midi":60,"time":6.0555785286458335,"velocity":0.3937007874015748},{"duration":0.4580150000000005,"midi":36,"time":7.329432747395834,"velocity":0.3937007874015748},{"duration":0.3435112499999988,"midi":36,"time":7.787447747395834,"velocity":0.3937007874015748},{"duration":0.3435112499999988,"midi":55,"time":7.787447747395834,"velocity":0.3937007874015748},{"duration":0.11450375000000079,"midi":31,"time":8.130958997395833,"velocity":0.3937007874015748},{"duration":0.11450374999999902,"midi":34,"time":8.359966497395835,"velocity":0.3937007874015748},{"duration":0.2290074999999998,"midi":55,"time":8.474470247395834,"velocity":0.3937007874015748},{"duration":0.2290074999999998,"midi":31,"time":8.474470247395834,"velocity":0.3937007874015748},{"duration":0.2290074999999998,"midi":36,"time":8.703477747395834,"velocity":0.3937007874015748},{"duration":0.2290074999999998,"midi":31,"time":8.932485247395833,"velocity":0.3937007874015748},{"duration":0.4580150000000014,"midi":39,"time":9.161492747395833,"velocity":0.3937007874015748},{"duration":0.3435112499999988,"midi":39,"time":9.619507747395835,"velocity":0.3937007874015748},{"duration":0.3435112499999988,"midi":55,"time":9.619507747395835,"velocity":0.3937007874015748},{"duration":0.11450375000000079,"midi":34,"time":9.963018997395833,"velocity":0.3937007874015748},{"duration":0.11450375000000079,"midi":37,"time":10.192026497395833,"velocity":0.3937007874015748},{"duration":0.2290074999999998,"midi":55,"time":10.306530247395834,"velocity":0.3937007874015748},{"duration":0.2290074999999998,"midi":34,"time":10.306530247395834,"velocity":0.3937007874015748},{"duration":0.2290074999999998,"midi":39,"time":10.535537747395834,"velocity":0.3937007874015748},{"duration":0.2290074999999998,"midi":34,"time":10.764545247395834,"velocity":0.3937007874015748},{"duration":0.4580150000000014,"midi":38,"time":10.993552747395833,"velocity":0.3937007874015748},{"duration":0.3435112499999988,"midi":38,"time":11.451567747395835,"velocity":0.3937007874015748},{"duration":0.3435112499999988,"midi":54,"time":11.451567747395835,"velocity":0.3937007874015748},{"duration":0.11450375000000079,"midi":33,"time":11.795078997395834,"velocity":0.3937007874015748},{"duration":0.11450375000000079,"midi":36,"time":12.024086497395833,"velocity":0.3937007874015748},{"duration":0.2290074999999998,"midi":33,"time":12.138590247395834,"velocity":0.3937007874015748},{"duration":0.2290074999999998,"midi":54,"time":12.138590247395834,"velocity":0.3937007874015748},{"duration":0.2290074999999998,"midi":38,"time":12.367597747395834,"velocity":0.3937007874015748},{"duration":0.2290074999999998,"midi":33,"time":12.596605247395834,"velocity":0.3937007874015748},{"duration":0.4580149999999996,"midi":37,"time":12.825612747395834,"velocity":0.3937007874015748},{"duration":0.3435112500000006,"midi":37,"time":13.283627747395833,"velocity":0.3937007874015748},{"duration":0.3435112500000006,"midi":53,"time":13.283627747395833,"velocity":0.3937007874015748},{"duration":0.11450375000000079,"midi":32,"time":13.627138997395834,"velocity":0.3937007874015748},{"duration":0.11450375000000079,"midi":35,"time":13.856146497395834,"velocity":0.3937007874015748},{"duration":0.2290074999999998,"midi":53,"time":13.970650247395834,"velocity":0.3937007874015748},{"duration":0.2290074999999998,"midi":32,"time":13.970650247395834,"velocity":0.3937007874015748},{"duration":0.2290074999999998,"midi":37,"time":14.199657747395834,"velocity":0.3937007874015748},{"duration":0.22900749999999803,"midi":32,"time":14.428665247395834,"velocity":0.3937007874015748},{"duration":0.4580149999999996,"midi":36,"time":14.657672747395832,"velocity":0.3937007874015748},{"duration":0.3435112500000006,"midi":51,"time":15.115687747395832,"velocity":0.3937007874015748},{"duration":0.3435112500000006,"midi":36,"time":15.115687747395832,"velocity":0.3937007874015748},{"duration":0.11450375000000079,"midi":31,"time":15.459198997395832,"velocity":0.3937007874015748},{"duration":0.11450375000000079,"midi":34,"time":15.688206497395832,"velocity":0.3937007874015748},{"duration":0.22900749999999803,"midi":51,"time":15.802710247395833,"velocity":0.3937007874015748},{"duration":0.22900749999999803,"midi":31,"time":15.802710247395833,"velocity":0.3937007874015748},{"duration":0.22900750000000158,"midi":36,"time":16.03171774739583,"velocity":0.3937007874015748},{"duration":0.22900750000000158,"midi":31,"time":16.260725247395833,"velocity":0.3937007874015748},{"duration":0.4580149999999996,"midi":39,"time":16.489732747395834,"velocity":0.3937007874015748},{"duration":0.3435112499999988,"midi":55,"time":16.947747747395834,"velocity":0.3937007874015748},{"duration":0.3435112499999988,"midi":39,"time":16.947747747395834,"velocity":0.3937007874015748},{"duration":0.11450375000000079,"midi":34,"time":17.291258997395833,"velocity":0.3937007874015748},{"duration":0.11450374999999724,"midi":37,"time":17.520266497395834,"velocity":0.3937007874015748},{"duration":0.22900750000000158,"midi":55,"time":17.63477024739583,"velocity":0.3937007874015748},{"duration":0.22900750000000158,"midi":34,"time":17.63477024739583,"velocity":0.3937007874015748},{"duration":0.22900749999999803,"midi":39,"time":17.863777747395833,"velocity":0.3937007874015748},{"duration":0.22900750000000158,"midi":34,"time":18.09278524739583,"velocity":0.3937007874015748},{"duration":0.4580149999999996,"midi":38,"time":18.321792747395833,"velocity":0.3937007874015748},{"duration":0.3435112499999988,"midi":54,"time":18.779807747395832,"velocity":0.3937007874015748},{"duration":0.3435112499999988,"midi":38,"time":18.779807747395832,"velocity":0.3937007874015748},{"duration":0.11450375000000079,"midi":33,"time":19.12331899739583,"velocity":0.3937007874015748},{"duration":0.11450375000000079,"midi":36,"time":19.352326497395833,"velocity":0.3937007874015748},{"duration":0.22900749999999803,"midi":33,"time":19.466830247395833,"velocity":0.3937007874015748},{"duration":0.22900749999999803,"midi":54,"time":19.466830247395833,"velocity":0.3937007874015748},{"duration":0.22900750000000158,"midi":38,"time":19.69583774739583,"velocity":0.3937007874015748},{"duration":0.22900749999999803,"midi":33,"time":19.924845247395833,"velocity":0.3937007874015748},{"duration":0.22900750000000158,"midi":37,"time":20.15385274739583,"velocity":0.3937007874015748},{"duration":0.11450375000000079,"midi":37,"time":20.61186774739583,"velocity":0.3937007874015748},{"duration":0.4580149999999996,"midi":55,"time":21.069882747395834,"velocity":0.3937007874015748},{"duration":0.11450375000000079,"midi":32,"time":21.298890247395832,"velocity":0.3937007874015748},{"duration":0.4580149999999996,"midi":55,"time":21.527897747395834,"velocity":0.3937007874015748},{"duration":0.11450374999999724,"midi":37,"time":21.527897747395834,"velocity":0.3937007874015748},{"duration":0.11450375000000079,"midi":32,"time":21.75690524739583,"velocity":0.3937007874015748},{"duration":0.6870224999999976,"midi":54,"time":21.985912747395833,"velocity":0.3937007874015748},{"duration":0.4580149999999996,"midi":36,"time":21.985912747395833,"velocity":0.3937007874015748},{"duration":0.3435112499999988,"midi":36,"time":22.443927747395833,"velocity":0.3937007874015748},{"duration":1.1450375000000008,"midi":55,"time":22.67293524739583,"velocity":0.3937007874015748},{"duration":0.11450375000000079,"midi":31,"time":22.78743899739583,"velocity":0.3937007874015748},{"duration":0.11450375000000079,"midi":34,"time":23.016446497395833,"velocity":0.3937007874015748},{"duration":0.22900749999999803,"midi":31,"time":23.130950247395834,"velocity":0.3937007874015748},{"duration":0.22900750000000158,"midi":36,"time":23.359957747395832,"velocity":0.3937007874015748},{"duration":0.22900749999999803,"midi":31,"time":23.588965247395834,"velocity":0.3937007874015748},{"duration":0.4580149999999996,"midi":39,"time":23.81797274739583,"velocity":0.3937007874015748},{"duration":0.3435112500000024,"midi":39,"time":24.27598774739583,"velocity":0.3937007874015748},{"duration":0.11450374999999724,"midi":34,"time":24.619498997395834,"velocity":0.3937007874015748},{"duration":0.45801500000000317,"midi":51,"time":24.73400274739583,"velocity":0.3937007874015748},{"duration":0.11450375000000079,"midi":37,"time":24.84850649739583,"velocity":0.3937007874015748},{"duration":0.22900750000000158,"midi":34,"time":24.963010247395832,"velocity":0.3937007874015748},{"duration":0.22900749999999803,"midi":39,"time":25.192017747395834,"velocity":0.3937007874015748},{"duration":0.4580149999999996,"midi":53,"time":25.192017747395834,"velocity":0.3937007874015748},{"duration":0.22900750000000158,"midi":34,"time":25.421025247395832,"velocity":0.3937007874015748},{"duration":0.6870224999999976,"midi":54,"time":25.650032747395834,"velocity":0.3937007874015748},{"duration":0.4580149999999996,"midi":38,"time":25.650032747395834,"velocity":0.3937007874015748},{"duration":0.3435112499999988,"midi":38,"time":26.108047747395833,"velocity":0.3937007874015748},{"duration":1.1450375000000008,"midi":55,"time":26.33705524739583,"velocity":0.3937007874015748},{"duration":0.11450375000000079,"midi":33,"time":26.451558997395832,"velocity":0.3937007874015748},{"duration":0.11450374999999724,"midi":36,"time":26.680566497395834,"velocity":0.3937007874015748},{"duration":0.22900750000000158,"midi":33,"time":26.79507024739583,"velocity":0.3937007874015748},{"duration":0.22900750000000158,"midi":38,"time":27.024077747395832,"velocity":0.3937007874015748},{"duration":0.22900749999999803,"midi":33,"time":27.253085247395834,"velocity":0.3937007874015748},{"duration":0.4580149999999996,"midi":37,"time":27.482092747395832,"velocity":0.3937007874015748},{"duration":0.3435112500000024,"midi":37,"time":27.94010774739583,"velocity":0.3937007874015748},{"duration":0.11450374999999724,"midi":32,"time":28.283618997395834,"velocity":0.3937007874015748},{"duration":0.11450375000000079,"midi":35,"time":28.512626497395832,"velocity":0.3937007874015748},{"duration":0.22900749999999803,"midi":32,"time":28.627130247395833,"velocity":0.3937007874015748},{"duration":0.45801500000000317,"midi":55,"time":28.85613774739583,"velocity":0.3937007874015748},{"duration":0.22900750000000158,"midi":37,"time":28.85613774739583,"velocity":0.3937007874015748},{"duration":0.22900750000000158,"midi":32,"time":29.085145247395833,"velocity":0.3937007874015748},{"duration":0.45801500000000317,"midi":36,"time":29.314152747395834,"velocity":0.3937007874015748},{"duration":0.45801500000000317,"midi":60,"time":29.314152747395834,"velocity":0.3937007874015748},{"duration":0.22900749999999803,"midi":60,"time":29.772167747395837,"velocity":0.3937007874015748},{"duration":0.3435112499999988,"midi":36,"time":29.772167747395837,"velocity":0.3937007874015748},{"duration":0.11450375000000079,"midi":62,"time":30.001175247395835,"velocity":0.3937007874015748},{"duration":0.3435112499999988,"midi":63,"time":30.115678997395836,"velocity":0.3937007874015748},{"duration":0.11450375000000079,"midi":31,"time":30.115678997395836,"velocity":0.3937007874015748},{"duration":0.11450375000000079,"midi":34,"time":30.344686497395834,"velocity":0.3937007874015748},{"duration":0.22900750000000158,"midi":62,"time":30.459190247395835,"velocity":0.3937007874015748},{"duration":0.22900750000000158,"midi":31,"time":30.459190247395835,"velocity":0.3937007874015748},{"duration":0.22900749999999803,"midi":36,"time":30.688197747395837,"velocity":0.3937007874015748},{"duration":0.22900749999999803,"midi":60,"time":30.688197747395837,"velocity":0.3937007874015748},{"duration":0.11450375000000079,"midi":62,"time":30.917205247395835,"velocity":0.3937007874015748},{"duration":0.22900750000000158,"midi":31,"time":30.917205247395835,"velocity":0.3937007874015748},{"duration":0.5725187500000004,"midi":60,"time":31.031708997395835,"velocity":0.3937007874015748},{"duration":0.4580149999999996,"midi":39,"time":31.146212747395836,"velocity":0.3937007874015748},{"duration":0.3435112499999988,"midi":39,"time":31.604227747395836,"velocity":0.3937007874015748},{"duration":0.11450375000000079,"midi":34,"time":31.947738997395835,"velocity":0.3937007874015748},{"duration":0.11450375000000435,"midi":37,"time":32.17674649739583,"velocity":0.3937007874015748},{"duration":0.22900750000000158,"midi":51,"time":32.29125024739584,"velocity":0.3937007874015748},{"duration":0.22900750000000158,"midi":34,"time":32.29125024739584,"velocity":0.3937007874015748},{"duration":0.22900749999999448,"midi":51,"time":32.52025774739584,"velocity":0.3937007874015748},{"duration":0.22900749999999448,"midi":39,"time":32.52025774739584,"velocity":0.3937007874015748},{"duration":0.22900750000000158,"midi":51,"time":32.74926524739583,"velocity":0.3937007874015748},{"duration":0.22900750000000158,"midi":34,"time":32.74926524739583,"velocity":0.3937007874015748},{"duration":0.45801500000000317,"midi":32,"time":32.978272747395835,"velocity":0.3937007874015748},{"duration":0.22900750000000158,"midi":58,"time":32.978272747395835,"velocity":0.3937007874015748},{"duration":0.11450374999999724,"midi":56,"time":33.207280247395836,"velocity":0.3937007874015748},{"duration":0.9160299999999992,"midi":55,"time":33.32178399739583,"velocity":0.3937007874015748},{"duration":0.3435112499999988,"midi":32,"time":33.43628774739584,"velocity":0.3937007874015748},{"duration":0.11450374999999724,"midi":36,"time":33.77979899739584,"velocity":0.3937007874015748},{"duration":0.11450374999999724,"midi":36,"time":34.00880649739584,"velocity":0.3937007874015748},{"duration":0.22900750000000158,"midi":38,"time":34.123310247395835,"velocity":0.3937007874015748},{"duration":0.22900750000000158,"midi":38,"time":34.35231774739584,"velocity":0.3937007874015748},{"duration":0.22900749999999448,"midi":39,"time":34.58132524739584,"velocity":0.3937007874015748},{"duration":0.11450375000000435,"midi":67,"time":34.81033274739583,"velocity":0.3937007874015748},{"duration":0.45801500000000317,"midi":43,"time":34.81033274739583,"velocity":0.3937007874015748},{"duration":0.11450374999999724,"midi":68,"time":34.92483649739584,"velocity":0.3937007874015748},{"duration":0.11450375000000435,"midi":70,"time":35.039340247395835,"velocity":0.3937007874015748},{"duration":0.11450374999999724,"midi":63,"time":35.15384399739584,"velocity":0.3937007874015748},{"duration":0.3435112499999988,"midi":43,"time":35.268347747395836,"velocity":0.3937007874015748},{"duration":0.11450374999999724,"midi":65,"time":35.268347747395836,"velocity":0.3937007874015748},{"duration":0.11450375000000435,"midi":67,"time":35.38285149739583,"velocity":0.3937007874015748},{"duration":0.11450374999999724,"midi":59,"time":35.49735524739584,"velocity":0.3937007874015748},{"duration":0.11450375000000435,"midi":60,"time":35.611858997395835,"velocity":0.3937007874015748},{"duration":0.11450375000000435,"midi":46,"time":35.611858997395835,"velocity":0.3937007874015748},{"duration":0.11450374999999724,"midi":62,"time":35.72636274739584,"velocity":0.3937007874015748},{"duration":0.11450374999999724,"midi":55,"time":35.84086649739584,"velocity":0.3937007874015748},{"duration":0.11450374999999724,"midi":46,"time":35.84086649739584,"velocity":0.3937007874015748},{"duration":0.11450375000000435,"midi":56,"time":35.955370247395834,"velocity":0.3937007874015748},{"duration":0.22900750000000158,"midi":48,"time":35.955370247395834,"velocity":0.3937007874015748},{"duration":0.11450374999999724,"midi":58,"time":36.06987399739584,"velocity":0.3937007874015748},{"duration":0.22900750000000158,"midi":50,"time":36.184377747395835,"velocity":0.3937007874015748},{"duration":0.11450374999999724,"midi":55,"time":36.184377747395835,"velocity":0.3937007874015748},{"duration":0.11450375000000435,"midi":53,"time":36.29888149739583,"velocity":0.3937007874015748},{"duration":0.22900750000000158,"midi":43,"time":36.41338524739584,"velocity":0.3937007874015748},{"duration":0.11450374999999724,"midi":51,"time":36.41338524739584,"velocity":0.3937007874015748},{"duration":0.11450375000000435,"midi":50,"time":36.527888997395834,"velocity":0.3937007874015748},{"duration":0.45801499999999606,"midi":41,"time":36.64239274739584,"velocity":0.3937007874015748},{"duration":1.8320599999999985,"midi":48,"time":36.64239274739584,"velocity":0.3937007874015748},{"duration":0.45801500000000317,"midi":41,"time":37.100407747395835,"velocity":0.3937007874015748},{"duration":0.45801499999999606,"midi":41,"time":37.55842274739584,"velocity":0.3937007874015748},{"duration":0.45801500000000317,"midi":41,"time":38.016437747395834,"velocity":0.3937007874015748},{"duration":0.45801499999999606,"midi":44,"time":38.47445274739584,"velocity":0.3937007874015748},{"duration":1.8320599999999985,"midi":56,"time":38.47445274739584,"velocity":0.3937007874015748},{"duration":0.45801500000000317,"midi":44,"time":38.93246774739583,"velocity":0.3937007874015748},{"duration":0.45801500000000317,"midi":44,"time":39.390482747395836,"velocity":0.3937007874015748},{"duration":0.45801499999999606,"midi":44,"time":39.84849774739584,"velocity":0.3937007874015748},{"duration":1.8320599999999985,"midi":58,"time":40.306512747395836,"velocity":0.3937007874015748},{"duration":0.45801500000000317,"midi":43,"time":40.306512747395836,"velocity":0.3937007874015748},{"duration":0.45801499999999606,"midi":43,"time":40.76452774739584,"velocity":0.3937007874015748},{"duration":0.45801500000000317,"midi":43,"time":41.222542747395835,"velocity":0.3937007874015748},{"duration":0.45801499999999606,"midi":43,"time":41.68055774739584,"velocity":0.3937007874015748},{"duration":0.45801500000000317,"midi":43,"time":42.138572747395834,"velocity":0.3937007874015748},{"duration":1.8320599999999985,"midi":55,"time":42.138572747395834,"velocity":0.3937007874015748},{"duration":0.45801499999999606,"midi":43,"time":42.59658774739584,"velocity":0.3937007874015748},{"duration":0.45801500000000317,"midi":43,"time":43.05460274739583,"velocity":0.3937007874015748},{"duration":0.45801499999999606,"midi":43,"time":43.512617747395836,"velocity":0.3937007874015748},{"duration":1.8320600000000056,"midi":60,"time":43.97063274739583,"velocity":0.3937007874015748},{"duration":0.45801500000000317,"midi":45,"time":43.97063274739583,"velocity":0.3937007874015748},{"duration":0.45801500000000317,"midi":45,"time":44.428647747395836,"velocity":0.3937007874015748},{"duration":0.45801499999999606,"midi":45,"time":44.88666274739584,"velocity":0.3937007874015748},{"duration":0.45801500000000317,"midi":45,"time":45.344677747395835,"velocity":0.3937007874015748},{"duration":1.8320599999999985,"midi":55,"time":45.80269274739584,"velocity":0.3937007874015748},{"duration":0.45801499999999606,"midi":44,"time":45.80269274739584,"velocity":0.3937007874015748},{"duration":0.45801500000000317,"midi":44,"time":46.260707747395834,"velocity":0.3937007874015748},{"duration":0.45801499999999606,"midi":44,"time":46.71872274739584,"velocity":0.3937007874015748},{"duration":0.45801500000000317,"midi":44,"time":47.17673774739583,"velocity":0.3937007874015748},{"duration":0.45801499999999606,"midi":53,"time":47.63475274739584,"velocity":0.3937007874015748},{"duration":1.8320599999999985,"midi":31,"time":47.63475274739584,"velocity":0.3937007874015748},{"duration":0.45801500000000317,"midi":50,"time":48.09276774739583,"velocity":0.3937007874015748},{"duration":0.45801500000000317,"midi":51,"time":48.550782747395836,"velocity":0.3937007874015748},{"duration":0.45801499999999606,"midi":53,"time":49.00879774739584,"velocity":0.3937007874015748},{"duration":0.11450375000000435,"midi":56,"time":49.466812747395835,"velocity":0.3937007874015748},{"duration":0.11450375000000435,"midi":31,"time":49.466812747395835,"velocity":0.3937007874015748},{"duration":0.11450374999999724,"midi":41,"time":49.58131649739584,"velocity":0.3937007874015748},{"duration":0.11450374999999724,"midi":53,"time":49.58131649739584,"velocity":0.3937007874015748},{"duration":0.11450375000000435,"midi":51,"time":49.810323997395834,"velocity":0.3937007874015748},{"duration":0.11450375000000435,"midi":39,"time":49.810323997395834,"velocity":0.3937007874015748},{"duration":0.11450374999999724,"midi":50,"time":50.039331497395835,"velocity":0.3937007874015748},{"duration":0.11450374999999724,"midi":38,"time":50.039331497395835,"velocity":0.3937007874015748},{"duration":0.11450374999999724,"midi":36,"time":50.26833899739584,"velocity":0.3937007874015748},{"duration":0.11450374999999724,"midi":48,"time":50.26833899739584,"velocity":0.3937007874015748},{"duration":0.11450374999999724,"midi":58,"time":50.49734649739584,"velocity":0.3937007874015748},{"duration":0.11450374999999724,"midi":34,"time":50.49734649739584,"velocity":0.3937007874015748},{"duration":0.11450375000000435,"midi":32,"time":50.72635399739583,"velocity":0.3937007874015748},{"duration":0.11450375000000435,"midi":56,"time":50.72635399739583,"velocity":0.3937007874015748},{"duration":0.11450375000000435,"midi":55,"time":50.955361497395835,"velocity":0.3937007874015748},{"duration":0.11450375000000435,"midi":31,"time":50.955361497395835,"velocity":0.3937007874015748},{"duration":0.45801499999999606,"midi":31,"time":51.75688774739584,"velocity":0.3937007874015748},{"duration":0.45801499999999606,"midi":55,"time":51.75688774739584,"velocity":0.3937007874015748},{"duration":0.45801500000000317,"midi":35,"time":52.21490274739583,"velocity":0.3937007874015748},{"duration":0.45801500000000317,"midi":59,"time":52.21490274739583,"velocity":0.3937007874015748},{"duration":0.45801500000000317,"midi":62,"time":52.672917747395836,"velocity":0.3937007874015748},{"duration":0.45801500000000317,"midi":38,"time":52.672917747395836,"velocity":0.3937007874015748},{"duration":0.45801499999999606,"midi":36,"time":53.13093274739584,"velocity":0.3937007874015748},{"duration":0.11450375000000435,"midi":72,"time":53.588947747395835,"velocity":0.3937007874015748},{"duration":0.3435112499999988,"midi":36,"time":53.588947747395835,"velocity":0.3937007874015748},{"duration":0.22900749999999448,"midi":72,"time":53.70345149739584,"velocity":0.3937007874015748},{"duration":0.3435112499999988,"midi":39,"time":53.932458997395834,"velocity":0.3937007874015748},{"duration":0.11450375000000435,"midi":72,"time":53.932458997395834,"velocity":0.3937007874015748},{"duration":0.22900750000000158,"midi":29,"time":54.27597024739583,"velocity":0.3937007874015748},{"duration":0.22900750000000158,"midi":31,"time":54.504977747395834,"velocity":0.3937007874015748},{"duration":0.22900750000000158,"midi":36,"time":54.733985247395836,"velocity":0.3937007874015748},{"duration":0.45801499999999606,"midi":39,"time":54.96299274739584,"velocity":0.3937007874015748},{"duration":0.11450375000000435,"midi":70,"time":55.421007747395834,"velocity":0.3937007874015748},{"duration":0.34351125000000593,"midi":39,"time":55.421007747395834,"velocity":0.3937007874015748},{"duration":0.22900750000000158,"midi":70,"time":55.53551149739584,"velocity":0.3937007874015748},{"duration":0.3435112499999988,"midi":31,"time":55.76451899739584,"velocity":0.3937007874015748},{"duration":0.11450374999999724,"midi":70,"time":55.76451899739584,"velocity":0.3937007874015748},{"duration":0.22900749999999448,"midi":32,"time":56.10803024739584,"velocity":0.3937007874015748},{"duration":0.22900750000000158,"midi":34,"time":56.33703774739583,"velocity":0.3937007874015748},{"duration":0.22900750000000158,"midi":39,"time":56.566045247395834,"velocity":0.3937007874015748},{"duration":0.3435112499999988,"midi":32,"time":56.795052747395836,"velocity":0.3937007874015748},{"duration":0.11450375000000435,"midi":32,"time":57.138563997395835,"velocity":0.3937007874015748},{"duration":0.22900749999999448,"midi":60,"time":57.25306774739584,"velocity":0.3937007874015748},{"duration":0.3435112499999988,"midi":32,"time":57.25306774739584,"velocity":0.3937007874015748},{"duration":0.11450375000000435,"midi":60,"time":57.482075247395834,"velocity":0.3937007874015748},{"duration":0.22900750000000158,"midi":36,"time":57.59657899739584,"velocity":0.3937007874015748},{"duration":0.11450374999999724,"midi":60,"time":57.59657899739584,"velocity":0.3937007874015748},{"duration":0.22900749999999448,"midi":60,"time":57.82558649739584,"velocity":0.3937007874015748},{"duration":0.11450374999999724,"midi":36,"time":57.82558649739584,"velocity":0.3937007874015748},{"duration":0.22900750000000158,"midi":38,"time":57.94009024739584,"velocity":0.3937007874015748},{"duration":0.22900749999999448,"midi":60,"time":58.16909774739584,"velocity":0.3937007874015748},{"duration":0.22900749999999448,"midi":39,"time":58.16909774739584,"velocity":0.3937007874015748},{"duration":0.22900749999999448,"midi":32,"time":58.39810524739583,"velocity":0.3937007874015748},{"duration":0.3435112499999988,"midi":31,"time":58.62711274739583,"velocity":0.3937007874015748},{"duration":0.11450375000000435,"midi":31,"time":58.970623997395826,"velocity":0.3937007874015748},{"duration":0.3435112499999988,"midi":35,"time":59.08512774739583,"velocity":0.3937007874015748},{"duration":0.22900750000000158,"midi":35,"time":59.42863899739583,"velocity":0.3937007874015748},{"duration":0.11450374999999724,"midi":60,"time":59.42863899739583,"velocity":0.3937007874015748},{"duration":0.11450374999999724,"midi":35,"time":59.65764649739583,"velocity":0.3937007874015748},{"duration":0.22900750000000158,"midi":36,"time":59.77215024739583,"velocity":0.3937007874015748},{"duration":0.22900750000000158,"midi":38,"time":60.00115774739583,"velocity":0.3937007874015748},{"duration":0.11450374999999724,"midi":60,"time":60.00115774739583,"velocity":0.3937007874015748},{"duration":0.22900750000000158,"midi":31,"time":60.23016524739583,"velocity":0.3937007874015748},{"duration":0.11450374999999724,"midi":62,"time":60.23016524739583,"velocity":0.3937007874015748},{"duration":0.45801499999999606,"midi":36,"time":60.45917274739583,"velocity":0.3937007874015748},{"duration":0.3435112499999988,"midi":36,"time":60.91718774739583,"velocity":0.3937007874015748},{"duration":0.11450374999999724,"midi":72,"time":60.91718774739583,"velocity":0.3937007874015748},{"duration":0.22900750000000158,"midi":72,"time":61.031691497395826,"velocity":0.3937007874015748},{"duration":0.3435112499999988,"midi":39,"time":61.26069899739583,"velocity":0.3937007874015748},{"duration":0.11450375000000435,"midi":72,"time":61.26069899739583,"velocity":0.3937007874015748},{"duration":0.22900750000000158,"midi":29,"time":61.60421024739583,"velocity":0.3937007874015748},{"duration":0.22900750000000158,"midi":31,"time":61.83321774739583,"velocity":0.3937007874015748},{"duration":0.22900750000000158,"midi":36,"time":62.06222524739583,"velocity":0.3937007874015748},{"duration":0.45801499999999606,"midi":39,"time":62.29123274739583,"velocity":0.3937007874015748},{"duration":0.3435112499999988,"midi":39,"time":62.74924774739583,"velocity":0.3937007874015748},{"duration":0.11450375000000435,"midi":70,"time":62.74924774739583,"velocity":0.3937007874015748},{"duration":0.22900749999999448,"midi":70,"time":62.86375149739583,"velocity":0.3937007874015748},{"duration":0.34351125000000593,"midi":31,"time":63.092758997395826,"velocity":0.3937007874015748},{"duration":0.11450375000000435,"midi":70,"time":63.092758997395826,"velocity":0.3937007874015748},{"duration":0.22900749999999448,"midi":32,"time":63.43627024739583,"velocity":0.3937007874015748},{"duration":0.22900750000000158,"midi":34,"time":63.66527774739583,"velocity":0.3937007874015748},{"duration":0.22900749999999448,"midi":39,"time":63.89428524739583,"velocity":0.3937007874015748},{"duration":0.6870225000000119,"midi":62,"time":64.12329274739582,"velocity":0.3937007874015748},{"duration":0.34351125000000593,"midi":32,"time":64.12329274739582,"velocity":0.3937007874015748},{"duration":0.11450374999999724,"midi":32,"time":64.46680399739583,"velocity":0.3937007874015748},{"duration":0.34351125000000593,"midi":32,"time":64.58130774739583,"velocity":0.3937007874015748},{"duration":1.1450375000000008,"midi":60,"time":64.81031524739583,"velocity":0.3937007874015748},{"duration":0.22900749999999448,"midi":36,"time":64.92481899739583,"velocity":0.3937007874015748},{"duration":0.11450374999999724,"midi":36,"time":65.15382649739583,"velocity":0.3937007874015748},{"duration":0.2290075000000087,"midi":38,"time":65.26833024739582,"velocity":0.3937007874015748},{"duration":0.22900749999999448,"midi":39,"time":65.49733774739583,"velocity":0.3937007874015748},{"duration":0.2290075000000087,"midi":32,"time":65.72634524739583,"velocity":0.3937007874015748},{"duration":0.11450374999999724,"midi":55,"time":65.95535274739584,"velocity":0.3937007874015748},{"duration":0.11450374999999724,"midi":56,"time":66.06985649739583,"velocity":0.3937007874015748},{"duration":0.11450374999999724,"midi":58,"time":66.18436024739583,"velocity":0.3937007874015748},{"duration":0.11450374999999724,"midi":62,"time":66.29886399739583,"velocity":0.3937007874015748},{"duration":0.11450374999999724,"midi":38,"time":66.29886399739583,"velocity":0.3937007874015748},{"duration":0.11450375000001145,"midi":63,"time":66.41336774739582,"velocity":0.3937007874015748},{"duration":0.11450375000001145,"midi":39,"time":66.41336774739582,"velocity":0.3937007874015748},{"duration":0.11450374999999724,"midi":41,"time":66.52787149739584,"velocity":0.3937007874015748},{"duration":0.11450374999999724,"midi":65,"time":66.52787149739584,"velocity":0.3937007874015748},{"duration":0.11450374999999724,"midi":32,"time":66.64237524739583,"velocity":0.3937007874015748},{"duration":0.11450374999999724,"midi":68,"time":66.64237524739583,"velocity":0.3937007874015748},{"duration":0.11450374999999724,"midi":34,"time":66.75687899739583,"velocity":0.3937007874015748},{"duration":0.11450374999999724,"midi":70,"time":66.75687899739583,"velocity":0.3937007874015748},{"duration":0.2290075000000087,"midi":35,"time":66.87138274739583,"velocity":0.3937007874015748},{"duration":0.2290075000000087,"midi":71,"time":66.87138274739583,"velocity":0.3937007874015748},{"duration":0.6870224999999976,"midi":55,"time":67.10039024739584,"velocity":0.3937007874015748},{"duration":0.6870224999999976,"midi":31,"time":67.10039024739584,"velocity":0.3937007874015748},{"duration":0.45801499999998896,"midi":36,"time":67.78741274739583,"velocity":0.3937007874015748},{"duration":0.34351125000000593,"midi":36,"time":68.24542774739582,"velocity":0.3937007874015748},{"duration":0.11450375000001145,"midi":72,"time":68.24542774739582,"velocity":0.3937007874015748},{"duration":0.22900749999999448,"midi":72,"time":68.35993149739583,"velocity":0.3937007874015748},{"duration":0.11450374999999724,"midi":72,"time":68.58893899739583,"velocity":0.3937007874015748},{"duration":0.34351125000000593,"midi":39,"time":68.58893899739583,"velocity":0.3937007874015748},{"duration":0.22900749999999448,"midi":29,"time":68.93245024739583,"velocity":0.3937007874015748},{"duration":0.22900749999999448,"midi":31,"time":69.16145774739583,"velocity":0.3937007874015748},{"duration":0.2290075000000087,"midi":36,"time":69.39046524739582,"velocity":0.3937007874015748},{"duration":0.45801500000000317,"midi":39,"time":69.61947274739583,"velocity":0.3937007874015748},{"duration":0.3435112499999917,"midi":39,"time":70.07748774739584,"velocity":0.3937007874015748},{"duration":0.11450374999999724,"midi":70,"time":70.07748774739584,"velocity":0.3937007874015748},{"duration":0.22900749999999448,"midi":70,"time":70.19199149739583,"velocity":0.3937007874015748},{"duration":0.11450374999999724,"midi":70,"time":70.42099899739583,"velocity":0.3937007874015748},{"duration":0.34351125000000593,"midi":31,"time":70.42099899739583,"velocity":0.3937007874015748},{"duration":0.22900749999999448,"midi":32,"time":70.76451024739583,"velocity":0.3937007874015748},{"duration":0.2290075000000087,"midi":34,"time":70.99351774739583,"velocity":0.3937007874015748},{"duration":0.22900749999999448,"midi":39,"time":71.22252524739584,"velocity":0.3937007874015748},{"duration":0.34351125000000593,"midi":32,"time":71.45153274739583,"velocity":0.3937007874015748},{"duration":0.11450374999999724,"midi":32,"time":71.79504399739584,"velocity":0.3937007874015748},{"duration":0.3435112499999917,"midi":32,"time":71.90954774739583,"velocity":0.3937007874015748},{"duration":0.22900749999999448,"midi":60,"time":71.90954774739583,"velocity":0.3937007874015748},{"duration":0.11450374999999724,"midi":60,"time":72.13855524739583,"velocity":0.3937007874015748},{"duration":0.2290075000000087,"midi":36,"time":72.25305899739583,"velocity":0.3937007874015748},{"duration":0.11450374999999724,"midi":60,"time":72.25305899739583,"velocity":0.3937007874015748},{"duration":0.22900749999999448,"midi":60,"time":72.48206649739583,"velocity":0.3937007874015748},{"duration":0.11450374999999724,"midi":36,"time":72.48206649739583,"velocity":0.3937007874015748},{"duration":0.22900749999999448,"midi":38,"time":72.59657024739583,"velocity":0.3937007874015748},{"duration":0.2290075000000087,"midi":39,"time":72.82557774739583,"velocity":0.3937007874015748},{"duration":0.2290075000000087,"midi":60,"time":72.82557774739583,"velocity":0.3937007874015748},{"duration":0.22900749999999448,"midi":32,"time":73.05458524739583,"velocity":0.3937007874015748},{"duration":0.34351125000000593,"midi":31,"time":73.28359274739583,"velocity":0.3937007874015748},{"duration":0.11450374999999724,"midi":31,"time":73.62710399739584,"velocity":0.3937007874015748},{"duration":0.3435112499999917,"midi":35,"time":73.74160774739583,"velocity":0.3937007874015748},{"duration":0.2290075000000087,"midi":35,"time":74.08511899739582,"velocity":0.3937007874015748},{"duration":0.11450375000001145,"midi":60,"time":74.08511899739582,"velocity":0.3937007874015748},{"duration":0.11450374999999724,"midi":35,"time":74.31412649739583,"velocity":0.3937007874015748},{"duration":0.22900749999999448,"midi":36,"time":74.42863024739583,"velocity":0.3937007874015748},{"duration":0.2290075000000087,"midi":38,"time":74.65763774739582,"velocity":0.3937007874015748},{"duration":0.11450375000001145,"midi":60,"time":74.65763774739582,"velocity":0.3937007874015748},{"duration":0.11450374999999724,"midi":62,"time":74.88664524739583,"velocity":0.3937007874015748},{"duration":0.22900749999999448,"midi":31,"time":74.88664524739583,"velocity":0.3937007874015748},{"duration":0.9160300000000063,"midi":29,"time":75.11565274739583,"velocity":0.3937007874015748},{"duration":0.9160300000000063,"midi":60,"time":75.11565274739583,"velocity":0.3937007874015748},{"duration":0.9160299999999921,"midi":39,"time":76.03168274739583,"velocity":0.3937007874015748},{"duration":0.9160299999999921,"midi":58,"time":76.03168274739583,"velocity":0.3937007874015748},{"duration":1.8320599999999985,"midi":37,"time":76.94771274739583,"velocity":0.3937007874015748},{"duration":1.8320599999999985,"midi":56,"time":76.94771274739583,"velocity":0.3937007874015748},{"duration":1.3740450000000095,"midi":55,"time":78.77977274739582,"velocity":0.3937007874015748},{"duration":0.45801500000000317,"midi":31,"time":78.77977274739582,"velocity":0.3937007874015748},{"duration":0.11450374999999724,"midi":31,"time":79.23778774739583,"velocity":0.3937007874015748},{"duration":0.2290075000000087,"midi":28,"time":79.35229149739583,"velocity":0.3937007874015748},{"duration":0.22900749999999448,"midi":29,"time":79.58129899739583,"velocity":0.3937007874015748},{"duration":0.2290075000000087,"midi":33,"time":79.81030649739583,"velocity":0.3937007874015748},{"duration":0.22900749999999448,"midi":36,"time":80.03931399739584,"velocity":0.3937007874015748},{"duration":0.11450374999999724,"midi":41,"time":80.26832149739583,"velocity":0.3937007874015748},{"duration":0.22900749999999448,"midi":43,"time":80.38282524739583,"velocity":0.3937007874015748},{"duration":1.603052500000004,"midi":43,"time":80.61183274739582,"velocity":0.3937007874015748},{"duration":0.9160300000000063,"midi":55,"time":80.61183274739582,"velocity":0.3937007874015748},{"duration":0.45801500000000317,"midi":62,"time":81.52786274739583,"velocity":0.3937007874015748},{"duration":0.45801500000000317,"midi":58,"time":81.98587774739583,"velocity":0.3937007874015748},{"duration":0.2290075000000087,"midi":44,"time":82.21488524739583,"velocity":0.3937007874015748},{"duration":0.45801499999998896,"midi":56,"time":82.44389274739584,"velocity":0.3937007874015748},{"duration":1.6030524999999898,"midi":44,"time":82.44389274739584,"velocity":0.3937007874015748},{"duration":0.11450375000001145,"midi":60,"time":82.90190774739582,"velocity":0.3937007874015748},{"duration":0.22900749999999448,"midi":56,"time":83.01641149739584,"velocity":0.3937007874015748},{"duration":0.22900749999999448,"midi":60,"time":83.24541899739583,"velocity":0.3937007874015748},{"duration":0.11450375000001145,"midi":60,"time":83.47442649739583,"velocity":0.3937007874015748},{"duration":0.22900749999999448,"midi":62,"time":83.58893024739584,"velocity":0.3937007874015748},{"duration":0.22900749999999448,"midi":63,"time":83.81793774739583,"velocity":0.3937007874015748},{"duration":0.2290075000000087,"midi":46,"time":84.04694524739583,"velocity":0.3937007874015748},{"duration":0.2290075000000087,"midi":56,"time":84.04694524739583,"velocity":0.3937007874015748},{"duration":1.6030524999999898,"midi":46,"time":84.27595274739583,"velocity":0.3937007874015748},{"duration":0.45801499999998896,"midi":58,"time":84.27595274739583,"velocity":0.3937007874015748},{"duration":0.11450375000001145,"midi":62,"time":84.73396774739582,"velocity":0.3937007874015748},{"duration":0.22900749999999448,"midi":58,"time":84.84847149739583,"velocity":0.3937007874015748},{"duration":0.22900749999999448,"midi":62,"time":85.07747899739583,"velocity":0.3937007874015748},{"duration":0.11450375000001145,"midi":62,"time":85.30648649739582,"velocity":0.3937007874015748},{"duration":0.22900749999999448,"midi":63,"time":85.42099024739584,"velocity":0.3937007874015748},{"duration":0.22900749999999448,"midi":65,"time":85.64999774739583,"velocity":0.3937007874015748},{"duration":2.061067500000007,"midi":48,"time":85.87900524739582,"velocity":0.3937007874015748},{"duration":0.2290075000000087,"midi":58,"time":85.87900524739582,"velocity":0.3937007874015748},{"duration":1.8320599999999985,"midi":60,"time":86.10801274739583,"velocity":0.3937007874015748}]},{"instrument":{"family":"piano","number":0,"name":"acoustic grand piano"},"notes":[{"duration":0.11450375,"midi":60,"time":0,"velocity":0.3937007874015748},{"duration":0.458015,"midi":48,"time":0,"velocity":0.3937007874015748},{"duration":0.11450375,"midi":63,"time":0.11450375,"velocity":0.3937007874015748},{"duration":0.2290075,"midi":67,"time":0.2290075,"velocity":0.3937007874015748},{"duration":0.458015,"midi":47,"time":0.458015,"velocity":0.3937007874015748},{"duration":0.34351125,"midi":66,"time":0.458015,"velocity":0.3937007874015748},{"duration":0.22900750000000003,"midi":65,"time":0.80152625,"velocity":0.3937007874015748},{"duration":0.45801499999999995,"midi":46,"time":0.91603,"velocity":0.3937007874015748},{"duration":0.22900750000000003,"midi":65,"time":1.03053375,"velocity":0.3937007874015748},{"duration":0.1145037499999999,"midi":60,"time":1.25954125,"velocity":0.3937007874015748},{"duration":0.22900750000000003,"midi":63,"time":1.374045,"velocity":0.3937007874015748},{"duration":0.34351125000000016,"midi":45,"time":1.374045,"velocity":0.3937007874015748},{"duration":0.11450375000000013,"midi":65,"time":1.6030525,"velocity":0.3937007874015748},{"duration":0.1145037499999999,"midi":44,"time":1.7175562500000001,"velocity":0.3937007874015748},{"duration":0.1145037499999999,"midi":60,"time":1.83206,"velocity":0.3937007874015748},{"duration":0.11450375000000013,"midi":63,"time":1.94656375,"velocity":0.3937007874015748},{"duration":0.2290074999999998,"midi":48,"time":2.0610675,"velocity":0.3937007874015748},{"duration":0.1145037499999999,"midi":67,"time":2.0610675,"velocity":0.3937007874015748},{"duration":0.1145037499999999,"midi":60,"time":2.17557125,"velocity":0.3937007874015748},{"duration":0.22900750000000025,"midi":47,"time":2.290075,"velocity":0.3937007874015748},{"duration":0.22900750000000025,"midi":66,"time":2.290075,"velocity":0.3937007874015748},{"duration":0.1145037499999999,"midi":60,"time":2.5190825,"velocity":0.3937007874015748},{"duration":0.2290074999999998,"midi":65,"time":2.63358625,"velocity":0.3937007874015748},{"duration":0.1145037499999999,"midi":46,"time":2.74809,"velocity":0.3937007874015748},{"duration":0.11450375000000035,"midi":45,"time":2.86259375,"velocity":0.3937007874015748},{"duration":0.22900750000000025,"midi":65,"time":2.86259375,"velocity":0.3937007874015748},{"duration":0.1145037499999999,"midi":60,"time":3.09160125,"velocity":0.3937007874015748},{"duration":0.1145037499999999,"midi":44,"time":3.09160125,"velocity":0.3937007874015748},{"duration":0.22900750000000025,"midi":63,"time":3.206105,"velocity":0.3937007874015748},{"duration":0.11450375000000035,"midi":44,"time":3.32060875,"velocity":0.3937007874015748},{"duration":0.1145037499999999,"midi":65,"time":3.4351125000000002,"velocity":0.3937007874015748},{"duration":0.1145037499999999,"midi":43,"time":3.4351125000000002,"velocity":0.3937007874015748},{"duration":0.45801500000000006,"midi":48,"time":3.66412,"velocity":0.3937007874015748},{"duration":0.1145037499999999,"midi":60,"time":3.66412,"velocity":0.3937007874015748},{"duration":0.1145037499999999,"midi":63,"time":3.77862375,"velocity":0.3937007874015748},{"duration":0.22900750000000025,"midi":67,"time":3.8931275,"velocity":0.3937007874015748},{"duration":0.4580149999999996,"midi":47,"time":4.122135,"velocity":0.3937007874015748},{"duration":0.3435112499999997,"midi":66,"time":4.122135,"velocity":0.3937007874015748},{"duration":0.2290074999999998,"midi":65,"time":4.46564625,"velocity":0.3937007874015748},{"duration":0.4580150000000005,"midi":46,"time":4.58015,"velocity":0.3937007874015748},{"duration":0.2290075000000007,"midi":65,"time":4.69465375,"velocity":0.3937007874015748},{"duration":0.1145037499999999,"midi":60,"time":4.92366125,"velocity":0.3937007874015748},{"duration":0.3435112499999997,"midi":44,"time":5.038165,"velocity":0.3937007874015748},{"duration":0.2290074999999998,"midi":63,"time":5.038165,"velocity":0.3937007874015748},{"duration":0.2290074999999998,"midi":70,"time":5.2671725,"velocity":0.3937007874015748},{"duration":0.1145037499999999,"midi":43,"time":5.38167625,"velocity":0.3937007874015748},{"duration":0.917222747395833,"midi":43,"time":5.49618,"velocity":0.3937007874015748},{"duration":0.1145037499999999,"midi":70,"time":5.49618,"velocity":0.3937007874015748},{"duration":0.1145037499999999,"midi":70,"time":5.49618,"velocity":0.3937007874015748},{"duration":0.11450375000000079,"midi":72,"time":5.5570101171875,"velocity":0.3937007874015748},{"duration":0.11450375000000079,"midi":72,"time":5.5570101171875,"velocity":0.3937007874015748},{"duration":0.1145037499999999,"midi":70,"time":5.620225729166667,"velocity":0.3937007874015748},{"duration":0.1145037499999999,"midi":70,"time":5.620225729166667,"velocity":0.3937007874015748},{"duration":0.1145037499999999,"midi":72,"time":5.68224859375,"velocity":0.3937007874015748},{"duration":0.1145037499999999,"midi":72,"time":5.68224859375,"velocity":0.3937007874015748},{"duration":0.1145037499999999,"midi":70,"time":5.744271458333333,"velocity":0.3937007874015748},{"duration":0.1145037499999999,"midi":70,"time":5.744271458333333,"velocity":0.3937007874015748},{"duration":0.1145037499999999,"midi":72,"time":5.806294322916667,"velocity":0.3937007874015748},{"duration":0.1145037499999999,"midi":72,"time":5.806294322916667,"velocity":0.3937007874015748},{"duration":0.1145037499999999,"midi":70,"time":5.8683171875,"velocity":0.3937007874015748},{"duration":0.1145037499999999,"midi":70,"time":5.8683171875,"velocity":0.3937007874015748},{"duration":0.1145037499999999,"midi":72,"time":5.930340052083333,"velocity":0.3937007874015748},{"duration":0.1145037499999999,"midi":72,"time":5.930340052083333,"velocity":0.3937007874015748},{"duration":0.1145037499999999,"midi":70,"time":5.9935556640625,"velocity":0.3937007874015748},{"duration":0.1145037499999999,"midi":70,"time":5.9935556640625,"velocity":0.3937007874015748},{"duration":0.1145037499999999,"midi":72,"time":6.0555785286458335,"velocity":0.3937007874015748},{"duration":0.1145037499999999,"midi":72,"time":6.0555785286458335,"velocity":0.3937007874015748},{"duration":0.4580150000000005,"midi":67,"time":6.413402747395833,"velocity":0.3937007874015748},{"duration":0.4580150000000005,"midi":67,"time":6.871417747395833,"velocity":0.3937007874015748},{"duration":1.8320599999999994,"midi":48,"time":7.329432747395834,"velocity":0.3937007874015748},{"duration":0.6870225000000003,"midi":66,"time":7.329432747395834,"velocity":0.3937007874015748},{"duration":1.145037499999999,"midi":67,"time":8.016455247395834,"velocity":0.3937007874015748},{"duration":1.8320600000000002,"midi":46,"time":9.161492747395833,"velocity":0.3937007874015748},{"duration":0.4580149999999996,"midi":63,"time":10.077522747395834,"velocity":0.3937007874015748},{"duration":0.4580149999999996,"midi":65,"time":10.535537747395834,"velocity":0.3937007874015748},{"duration":0.6870225000000012,"midi":66,"time":10.993552747395833,"velocity":0.3937007874015748},{"duration":1.3740450000000006,"midi":45,"time":10.993552747395833,"velocity":0.3937007874015748},{"duration":1.145037499999999,"midi":67,"time":11.680575247395835,"velocity":0.3937007874015748},{"duration":0.4580149999999996,"midi":51,"time":12.367597747395834,"velocity":0.3937007874015748},{"duration":1.3740450000000006,"midi":53,"time":12.825612747395834,"velocity":0.3937007874015748},{"duration":0.45801499999999784,"midi":56,"time":14.199657747395834,"velocity":0.3937007874015748},{"duration":0.22900749999999803,"midi":67,"time":14.428665247395834,"velocity":0.3937007874015748},{"duration":0.2290074999999998,"midi":72,"time":14.657672747395832,"velocity":0.3937007874015748},{"duration":1.832060000000002,"midi":55,"time":14.657672747395832,"velocity":0.3937007874015748},{"duration":0.2290074999999998,"midi":67,"time":14.886680247395832,"velocity":0.3937007874015748},{"duration":0.2290074999999998,"midi":65,"time":15.115687747395832,"velocity":0.3937007874015748},{"duration":0.11450375000000079,"midi":63,"time":15.344695247395832,"velocity":0.3937007874015748},{"duration":0.2290074999999998,"midi":65,"time":15.459198997395832,"velocity":0.3937007874015748},{"duration":0.2290074999999998,"midi":65,"time":15.688206497395832,"velocity":0.3937007874015748},{"duration":0.11450374999999902,"midi":60,"time":15.917213997395832,"velocity":0.3937007874015748},{"duration":0.22900750000000158,"midi":63,"time":16.03171774739583,"velocity":0.3937007874015748},{"duration":0.11450375000000079,"midi":60,"time":16.260725247395833,"velocity":0.3937007874015748},{"duration":0.11450375000000079,"midi":63,"time":16.375228997395833,"velocity":0.3937007874015748},{"duration":1.8320599999999985,"midi":58,"time":16.489732747395834,"velocity":0.3937007874015748},{"duration":0.4580149999999996,"midi":63,"time":16.489732747395834,"velocity":0.3937007874015748},{"duration":0.22900750000000158,"midi":63,"time":17.63477024739583,"velocity":0.3937007874015748},{"duration":0.22900749999999803,"midi":65,"time":17.863777747395833,"velocity":0.3937007874015748},{"duration":0.22900750000000158,"midi":63,"time":18.09278524739583,"velocity":0.3937007874015748},{"duration":0.6870225000000012,"midi":66,"time":18.321792747395833,"velocity":0.3937007874015748},{"duration":1.8320599999999985,"midi":57,"time":18.321792747395833,"velocity":0.3937007874015748},{"duration":1.1450374999999973,"midi":67,"time":19.008815247395834,"velocity":0.3937007874015748},{"duration":0.11450375000000079,"midi":75,"time":20.15385274739583,"velocity":0.3937007874015748},{"duration":0.22900750000000158,"midi":77,"time":20.268356497395832,"velocity":0.3937007874015748},{"duration":0.11450374999999724,"midi":72,"time":20.497363997395833,"velocity":0.3937007874015748},{"duration":0.22900750000000158,"midi":75,"time":20.61186774739583,"velocity":0.3937007874015748},{"duration":0.11450375000000079,"midi":70,"time":20.840875247395832,"velocity":0.3937007874015748},{"duration":0.22900749999999803,"midi":72,"time":20.955378997395833,"velocity":0.3937007874015748},{"duration":0.11450375000000079,"midi":67,"time":21.18438649739583,"velocity":0.3937007874015748},{"duration":0.11450375000000079,"midi":60,"time":21.298890247395832,"velocity":0.3937007874015748},{"duration":0.11450375000000079,"midi":63,"time":21.413393997395833,"velocity":0.3937007874015748},{"duration":0.11450374999999724,"midi":70,"time":21.527897747395834,"velocity":0.3937007874015748},{"duration":0.11450375000000079,"midi":67,"time":21.64240149739583,"velocity":0.3937007874015748},{"duration":0.11450375000000079,"midi":63,"time":21.75690524739583,"velocity":0.3937007874015748},{"duration":0.11450375000000079,"midi":60,"time":21.871408997395832,"velocity":0.3937007874015748},{"duration":0.3435112499999988,"midi":55,"time":22.443927747395833,"velocity":0.3937007874015748},{"duration":0.3435112499999988,"midi":60,"time":22.443927747395833,"velocity":0.3937007874015748},{"duration":0.11450375000000079,"midi":60,"time":22.78743899739583,"velocity":0.3937007874015748},{"duration":0.11450375000000079,"midi":60,"time":23.016446497395833,"velocity":0.3937007874015748},{"duration":0.11450374999999724,"midi":55,"time":23.130950247395834,"velocity":0.3937007874015748},{"duration":0.22900749999999803,"midi":60,"time":23.130950247395834,"velocity":0.3937007874015748},{"duration":0.3435112500000024,"midi":55,"time":24.27598774739583,"velocity":0.3937007874015748},{"duration":0.3435112500000024,"midi":58,"time":24.27598774739583,"velocity":0.3937007874015748},{"duration":0.11450374999999724,"midi":58,"time":24.619498997395834,"velocity":0.3937007874015748},{"duration":0.11450375000000079,"midi":58,"time":24.84850649739583,"velocity":0.3937007874015748},{"duration":0.11450375000000079,"midi":55,"time":24.963010247395832,"velocity":0.3937007874015748},{"duration":0.22900750000000158,"midi":58,"time":24.963010247395832,"velocity":0.3937007874015748},{"duration":0.3435112499999988,"midi":57,"time":26.108047747395833,"velocity":0.3937007874015748},{"duration":0.3435112499999988,"midi":54,"time":26.108047747395833,"velocity":0.3937007874015748},{"duration":0.11450375000000079,"midi":57,"time":26.451558997395832,"velocity":0.3937007874015748},{"duration":0.11450374999999724,"midi":57,"time":26.680566497395834,"velocity":0.3937007874015748},{"duration":0.11450375000000079,"midi":54,"time":26.79507024739583,"velocity":0.3937007874015748},{"duration":0.22900750000000158,"midi":57,"time":26.79507024739583,"velocity":0.3937007874015748},{"duration":0.4580149999999996,"midi":63,"time":27.024077747395832,"velocity":0.3937007874015748},{"duration":0.4580149999999996,"midi":65,"time":27.482092747395832,"velocity":0.3937007874015748},{"duration":0.3435112500000024,"midi":53,"time":27.94010774739583,"velocity":0.3937007874015748},{"duration":0.4580149999999996,"midi":68,"time":27.94010774739583,"velocity":0.3937007874015748},{"duration":0.4580149999999996,"midi":75,"time":28.39812274739583,"velocity":0.3937007874015748},{"duration":0.11450375000000079,"midi":53,"time":28.627130247395833,"velocity":0.3937007874015748},{"duration":0.45801500000000317,"midi":73,"time":28.85613774739583,"velocity":0.3937007874015748},{"duration":1.832060000000002,"midi":72,"time":29.314152747395834,"velocity":0.3937007874015748},{"duration":0.3435112499999988,"midi":55,"time":29.772167747395837,"velocity":0.3937007874015748},{"duration":0.22900750000000158,"midi":55,"time":30.459190247395835,"velocity":0.3937007874015748},{"duration":1.8320599999999985,"midi":77,"time":31.146212747395836,"velocity":0.3937007874015748},{"duration":0.3435112499999988,"midi":55,"time":31.604227747395836,"velocity":0.3937007874015748},{"duration":0.22900750000000158,"midi":55,"time":32.29125024739584,"velocity":0.3937007874015748},{"duration":0.11450375000000435,"midi":79,"time":34.81033274739583,"velocity":0.3937007874015748},{"duration":0.11450374999999724,"midi":80,"time":34.92483649739584,"velocity":0.3937007874015748},{"duration":0.11450375000000435,"midi":82,"time":35.039340247395835,"velocity":0.3937007874015748},{"duration":0.11450374999999724,"midi":75,"time":35.15384399739584,"velocity":0.3937007874015748},{"duration":0.11450374999999724,"midi":77,"time":35.268347747395836,"velocity":0.3937007874015748},{"duration":0.11450375000000435,"midi":79,"time":35.38285149739583,"velocity":0.3937007874015748},{"duration":0.11450374999999724,"midi":71,"time":35.49735524739584,"velocity":0.3937007874015748},{"duration":0.11450375000000435,"midi":72,"time":35.611858997395835,"velocity":0.3937007874015748},{"duration":0.11450374999999724,"midi":74,"time":35.72636274739584,"velocity":0.3937007874015748},{"duration":0.11450374999999724,"midi":67,"time":35.84086649739584,"velocity":0.3937007874015748},{"duration":0.22900750000000158,"midi":55,"time":35.955370247395834,"velocity":0.3937007874015748},{"duration":0.11450375000000435,"midi":68,"time":35.955370247395834,"velocity":0.3937007874015748},{"duration":0.11450374999999724,"midi":70,"time":36.06987399739584,"velocity":0.3937007874015748},{"duration":0.22900750000000158,"midi":55,"time":36.184377747395835,"velocity":0.3937007874015748},{"duration":0.11450374999999724,"midi":67,"time":36.184377747395835,"velocity":0.3937007874015748},{"duration":0.11450375000000435,"midi":65,"time":36.29888149739583,"velocity":0.3937007874015748},{"duration":0.11450374999999724,"midi":63,"time":36.41338524739584,"velocity":0.3937007874015748},{"duration":0.22900750000000158,"midi":55,"time":36.41338524739584,"velocity":0.3937007874015748},{"duration":0.11450375000000435,"midi":62,"time":36.527888997395834,"velocity":0.3937007874015748},{"duration":1.8320599999999985,"midi":63,"time":36.64239274739584,"velocity":0.3937007874015748},{"duration":0.45801499999999606,"midi":60,"time":36.64239274739584,"velocity":0.3937007874015748},{"duration":0.22900750000000158,"midi":60,"time":37.100407747395835,"velocity":0.3937007874015748},{"duration":0.11450374999999724,"midi":58,"time":37.329415247395836,"velocity":0.3937007874015748},{"duration":1.9465637500000028,"midi":60,"time":37.44391899739583,"velocity":0.3937007874015748},{"duration":1.8320599999999985,"midi":72,"time":38.47445274739584,"velocity":0.3937007874015748},{"duration":0.3435112499999988,"midi":60,"time":39.390482747395836,"velocity":0.3937007874015748},{"duration":0.3435112499999988,"midi":62,"time":39.733993997395835,"velocity":0.3937007874015748},{"duration":0.22900750000000158,"midi":63,"time":40.077505247395834,"velocity":0.3937007874015748},{"duration":1.1450375000000008,"midi":62,"time":40.306512747395836,"velocity":0.3937007874015748},{"duration":1.8320599999999985,"midi":74,"time":40.306512747395836,"velocity":0.3937007874015748},{"duration":0.22900750000000158,"midi":58,"time":41.451550247395836,"velocity":0.3937007874015748},{"duration":0.22900750000000158,"midi":58,"time":41.68055774739584,"velocity":0.3937007874015748},{"duration":0.11450374999999724,"midi":60,"time":41.90956524739584,"velocity":0.3937007874015748},{"duration":1.0305337499999965,"midi":55,"time":42.02406899739584,"velocity":0.3937007874015748},{"duration":1.8320599999999985,"midi":70,"time":42.138572747395834,"velocity":0.3937007874015748},{"duration":0.22900749999999448,"midi":51,"time":43.74162524739584,"velocity":0.3937007874015748},{"duration":1.8320600000000056,"midi":65,"time":43.97063274739583,"velocity":0.3937007874015748},{"duration":0.45801500000000317,"midi":53,"time":43.97063274739583,"velocity":0.3937007874015748},{"duration":0.9160299999999992,"midi":55,"time":44.428647747395836,"velocity":0.3937007874015748},{"duration":0.22900750000000158,"midi":48,"time":45.344677747395835,"velocity":0.3937007874015748},{"duration":1.1450375000000008,"midi":51,"time":45.57368524739584,"velocity":0.3937007874015748},{"duration":1.8320599999999985,"midi":70,"time":45.80269274739584,"velocity":0.3937007874015748},{"duration":0.3435112499999988,"midi":55,"time":46.71872274739584,"velocity":0.3937007874015748},{"duration":0.3435112499999988,"midi":56,"time":47.062233997395836,"velocity":0.3937007874015748},{"duration":0.22900750000000158,"midi":58,"time":47.405745247395835,"velocity":0.3937007874015748},{"duration":1.8320599999999985,"midi":55,"time":47.63475274739584,"velocity":0.3937007874015748},{"duration":0.45801499999999606,"midi":72,"time":47.63475274739584,"velocity":0.3937007874015748},{"duration":0.45801500000000317,"midi":71,"time":48.09276774739583,"velocity":0.3937007874015748},{"duration":0.45801500000000317,"midi":72,"time":48.550782747395836,"velocity":0.3937007874015748},{"duration":0.45801499999999606,"midi":74,"time":49.00879774739584,"velocity":0.3937007874015748},{"duration":0.11450375000000435,"midi":55,"time":49.466812747395835,"velocity":0.3937007874015748},{"duration":0.11450375000000435,"midi":68,"time":49.466812747395835,"velocity":0.3937007874015748},{"duration":0.11450374999999724,"midi":70,"time":49.58131649739584,"velocity":0.3937007874015748},{"duration":0.11450374999999724,"midi":53,"time":49.58131649739584,"velocity":0.3937007874015748},{"duration":0.11450375000000435,"midi":72,"time":49.810323997395834,"velocity":0.3937007874015748},{"duration":0.11450375000000435,"midi":51,"time":49.810323997395834,"velocity":0.3937007874015748},{"duration":0.11450374999999724,"midi":50,"time":50.039331497395835,"velocity":0.3937007874015748},{"duration":0.11450374999999724,"midi":74,"time":50.039331497395835,"velocity":0.3937007874015748},{"duration":0.11450374999999724,"midi":75,"time":50.26833899739584,"velocity":0.3937007874015748},{"duration":0.11450374999999724,"midi":48,"time":50.26833899739584,"velocity":0.3937007874015748},{"duration":0.11450374999999724,"midi":77,"time":50.49734649739584,"velocity":0.3937007874015748},{"duration":0.11450374999999724,"midi":46,"time":50.49734649739584,"velocity":0.3937007874015748},{"duration":0.11450375000000435,"midi":79,"time":50.72635399739583,"velocity":0.3937007874015748},{"duration":0.11450375000000435,"midi":44,"time":50.72635399739583,"velocity":0.3937007874015748},{"duration":0.11450375000000435,"midi":43,"time":50.955361497395835,"velocity":0.3937007874015748},{"duration":0.11450375000000435,"midi":80,"time":50.955361497395835,"velocity":0.3937007874015748},{"duration":0.45801499999999606,"midi":43,"time":51.75688774739584,"velocity":0.3937007874015748},{"duration":0.45801499999999606,"midi":67,"time":51.75688774739584,"velocity":0.3937007874015748},{"duration":0.45801500000000317,"midi":47,"time":52.21490274739583,"velocity":0.3937007874015748},{"duration":0.45801500000000317,"midi":71,"time":52.21490274739583,"velocity":0.3937007874015748},{"duration":0.45801500000000317,"midi":50,"time":52.672917747395836,"velocity":0.3937007874015748},{"duration":0.45801500000000317,"midi":74,"time":52.672917747395836,"velocity":0.3937007874015748},{"duration":0.22900749999999448,"midi":75,"time":53.13093274739584,"velocity":0.3937007874015748},{"duration":0.22900749999999448,"midi":55,"time":53.13093274739584,"velocity":0.3937007874015748},{"duration":0.22900750000000158,"midi":74,"time":53.35994024739583,"velocity":0.3937007874015748},{"duration":0.11450375000000435,"midi":55,"time":53.588947747395835,"velocity":0.3937007874015748},{"duration":0.11450375000000435,"midi":72,"time":53.588947747395835,"velocity":0.3937007874015748},{"duration":0.22900749999999448,"midi":70,"time":53.70345149739584,"velocity":0.3937007874015748},{"duration":0.22900749999999448,"midi":55,"time":53.70345149739584,"velocity":0.3937007874015748},{"duration":0.11450375000000435,"midi":72,"time":53.932458997395834,"velocity":0.3937007874015748},{"duration":0.11450375000000435,"midi":55,"time":53.932458997395834,"velocity":0.3937007874015748},{"duration":0.22900750000000158,"midi":67,"time":54.27597024739583,"velocity":0.3937007874015748},{"duration":0.11450375000000435,"midi":55,"time":54.27597024739583,"velocity":0.3937007874015748},{"duration":0.22900750000000158,"midi":72,"time":54.504977747395834,"velocity":0.3937007874015748},{"duration":0.11450375000000435,"midi":55,"time":54.504977747395834,"velocity":0.3937007874015748},{"duration":0.22900750000000158,"midi":75,"time":54.733985247395836,"velocity":0.3937007874015748},{"duration":0.11450374999999724,"midi":55,"time":54.733985247395836,"velocity":0.3937007874015748},{"duration":0.22900750000000158,"midi":51,"time":54.96299274739584,"velocity":0.3937007874015748},{"duration":0.22900750000000158,"midi":79,"time":54.96299274739584,"velocity":0.3937007874015748},{"duration":0.22900749999999448,"midi":77,"time":55.19200024739584,"velocity":0.3937007874015748},{"duration":0.11450375000000435,"midi":51,"time":55.421007747395834,"velocity":0.3937007874015748},{"duration":0.11450375000000435,"midi":75,"time":55.421007747395834,"velocity":0.3937007874015748},{"duration":0.22900750000000158,"midi":51,"time":55.53551149739584,"velocity":0.3937007874015748},{"duration":0.22900750000000158,"midi":77,"time":55.53551149739584,"velocity":0.3937007874015748},{"duration":0.11450374999999724,"midi":75,"time":55.76451899739584,"velocity":0.3937007874015748},{"duration":0.11450374999999724,"midi":51,"time":55.76451899739584,"velocity":0.3937007874015748},{"duration":0.11450374999999724,"midi":51,"time":56.10803024739584,"velocity":0.3937007874015748},{"duration":0.11450375000000435,"midi":51,"time":56.33703774739583,"velocity":0.3937007874015748},{"duration":0.11450375000000435,"midi":70,"time":56.566045247395834,"velocity":0.3937007874015748},{"duration":0.11450375000000435,"midi":51,"time":56.566045247395834,"velocity":0.3937007874015748},{"duration":0.11450374999999724,"midi":70,"time":56.68054899739584,"velocity":0.3937007874015748},{"duration":0.22900750000000158,"midi":72,"time":56.795052747395836,"velocity":0.3937007874015748},{"duration":0.22900750000000158,"midi":48,"time":56.795052747395836,"velocity":0.3937007874015748},{"duration":0.22900750000000158,"midi":72,"time":57.02406024739584,"velocity":0.3937007874015748},{"duration":0.11450374999999724,"midi":48,"time":57.25306774739584,"velocity":0.3937007874015748},{"duration":0.22900749999999448,"midi":72,"time":57.25306774739584,"velocity":0.3937007874015748},{"duration":0.22900750000000158,"midi":48,"time":57.367571497395836,"velocity":0.3937007874015748},{"duration":0.11450375000000435,"midi":72,"time":57.482075247395834,"velocity":0.3937007874015748},{"duration":0.22900750000000158,"midi":72,"time":57.59657899739584,"velocity":0.3937007874015748},{"duration":0.11450374999999724,"midi":48,"time":57.59657899739584,"velocity":0.3937007874015748},{"duration":0.22900749999999448,"midi":72,"time":57.82558649739584,"velocity":0.3937007874015748},{"duration":0.11450374999999724,"midi":48,"time":57.94009024739584,"velocity":0.3937007874015748},{"duration":0.11450375000000435,"midi":72,"time":58.054593997395834,"velocity":0.3937007874015748},{"duration":0.11450374999999724,"midi":48,"time":58.16909774739584,"velocity":0.3937007874015748},{"duration":0.22900749999999448,"midi":72,"time":58.16909774739584,"velocity":0.3937007874015748},{"duration":0.11450375000000435,"midi":48,"time":58.39810524739583,"velocity":0.3937007874015748},{"duration":0.22900749999999448,"midi":72,"time":58.39810524739583,"velocity":0.3937007874015748},{"duration":0.22900750000000158,"midi":72,"time":58.62711274739583,"velocity":0.3937007874015748},{"duration":0.22900750000000158,"midi":50,"time":58.62711274739583,"velocity":0.3937007874015748},{"duration":0.22900750000000158,"midi":71,"time":58.85612024739583,"velocity":0.3937007874015748},{"duration":0.11450374999999724,"midi":71,"time":59.08512774739583,"velocity":0.3937007874015748},{"duration":0.11450374999999724,"midi":50,"time":59.08512774739583,"velocity":0.3937007874015748},{"duration":0.22900750000000158,"midi":50,"time":59.19963149739583,"velocity":0.3937007874015748},{"duration":0.22900750000000158,"midi":72,"time":59.19963149739583,"velocity":0.3937007874015748},{"duration":0.11450374999999724,"midi":50,"time":59.42863899739583,"velocity":0.3937007874015748},{"duration":1.0305337500000036,"midi":74,"time":59.42863899739583,"velocity":0.3937007874015748},{"duration":0.11450375000000435,"midi":50,"time":59.77215024739583,"velocity":0.3937007874015748},{"duration":0.11450374999999724,"midi":50,"time":60.00115774739583,"velocity":0.3937007874015748},{"duration":0.11450374999999724,"midi":50,"time":60.23016524739583,"velocity":0.3937007874015748},{"duration":0.22900749999999448,"midi":55,"time":60.45917274739583,"velocity":0.3937007874015748},{"duration":0.22900749999999448,"midi":75,"time":60.45917274739583,"velocity":0.3937007874015748},{"duration":0.22900750000000158,"midi":74,"time":60.68818024739583,"velocity":0.3937007874015748},{"duration":0.11450374999999724,"midi":72,"time":60.91718774739583,"velocity":0.3937007874015748},{"duration":0.11450374999999724,"midi":55,"time":60.91718774739583,"velocity":0.3937007874015748},{"duration":0.22900750000000158,"midi":55,"time":61.031691497395826,"velocity":0.3937007874015748},{"duration":0.22900750000000158,"midi":70,"time":61.031691497395826,"velocity":0.3937007874015748},{"duration":0.11450375000000435,"midi":72,"time":61.26069899739583,"velocity":0.3937007874015748},{"duration":0.11450375000000435,"midi":55,"time":61.26069899739583,"velocity":0.3937007874015748},{"duration":0.11450375000000435,"midi":55,"time":61.60421024739583,"velocity":0.3937007874015748},{"duration":0.22900750000000158,"midi":67,"time":61.60421024739583,"velocity":0.3937007874015748},{"duration":0.22900750000000158,"midi":72,"time":61.83321774739583,"velocity":0.3937007874015748},{"duration":0.11450375000000435,"midi":55,"time":61.83321774739583,"velocity":0.3937007874015748},{"duration":0.22900750000000158,"midi":75,"time":62.06222524739583,"velocity":0.3937007874015748},{"duration":0.11450374999999724,"midi":55,"time":62.06222524739583,"velocity":0.3937007874015748},{"duration":0.22900750000000158,"midi":51,"time":62.29123274739583,"velocity":0.3937007874015748},{"duration":0.6870224999999976,"midi":79,"time":62.29123274739583,"velocity":0.3937007874015748},{"duration":0.11450375000000435,"midi":51,"time":62.74924774739583,"velocity":0.3937007874015748},{"duration":0.22900749999999448,"midi":51,"time":62.86375149739583,"velocity":0.3937007874015748},{"duration":0.22900750000000158,"midi":70,"time":62.97825524739583,"velocity":0.3937007874015748},{"duration":0.11450375000000435,"midi":51,"time":63.092758997395826,"velocity":0.3937007874015748},{"duration":0.22900750000000158,"midi":80,"time":63.20726274739583,"velocity":0.3937007874015748},{"duration":0.11450374999999724,"midi":51,"time":63.43627024739583,"velocity":0.3937007874015748},{"duration":0.22900749999999448,"midi":79,"time":63.43627024739583,"velocity":0.3937007874015748},{"duration":0.11450375000000435,"midi":51,"time":63.66527774739583,"velocity":0.3937007874015748},{"duration":0.22900750000000158,"midi":77,"time":63.66527774739583,"velocity":0.3937007874015748},{"duration":0.11450374999999724,"midi":51,"time":63.89428524739583,"velocity":0.3937007874015748},{"duration":0.22900749999999448,"midi":79,"time":63.89428524739583,"velocity":0.3937007874015748},{"duration":0.6870225000000119,"midi":77,"time":64.12329274739582,"velocity":0.3937007874015748},{"duration":0.2290075000000087,"midi":48,"time":64.12329274739582,"velocity":0.3937007874015748},{"duration":0.11450374999999724,"midi":48,"time":64.58130774739583,"velocity":0.3937007874015748},{"duration":0.2290075000000087,"midi":48,"time":64.69581149739582,"velocity":0.3937007874015748},{"duration":1.1450375000000008,"midi":75,"time":64.81031524739583,"velocity":0.3937007874015748},{"duration":0.11450374999999724,"midi":48,"time":64.92481899739583,"velocity":0.3937007874015748},{"duration":0.11450375000001145,"midi":48,"time":65.26833024739582,"velocity":0.3937007874015748},{"duration":0.11450374999999724,"midi":48,"time":65.49733774739583,"velocity":0.3937007874015748},{"duration":0.11450374999999724,"midi":48,"time":65.72634524739583,"velocity":0.3937007874015748},{"duration":0.11450374999999724,"midi":67,"time":65.95535274739584,"velocity":0.3937007874015748},{"duration":0.11450374999999724,"midi":68,"time":66.06985649739583,"velocity":0.3937007874015748},{"duration":0.11450374999999724,"midi":70,"time":66.18436024739583,"velocity":0.3937007874015748},{"duration":0.11450374999999724,"midi":50,"time":66.29886399739583,"velocity":0.3937007874015748},{"duration":0.11450374999999724,"midi":74,"time":66.29886399739583,"velocity":0.3937007874015748},{"duration":0.11450375000001145,"midi":75,"time":66.41336774739582,"velocity":0.3937007874015748},{"duration":0.11450375000001145,"midi":51,"time":66.41336774739582,"velocity":0.3937007874015748},{"duration":0.11450374999999724,"midi":53,"time":66.52787149739584,"velocity":0.3937007874015748},{"duration":0.11450374999999724,"midi":77,"time":66.52787149739584,"velocity":0.3937007874015748},{"duration":0.11450374999999724,"midi":80,"time":66.64237524739583,"velocity":0.3937007874015748},{"duration":0.11450374999999724,"midi":44,"time":66.64237524739583,"velocity":0.3937007874015748},{"duration":0.11450374999999724,"midi":46,"time":66.75687899739583,"velocity":0.3937007874015748},{"duration":0.11450374999999724,"midi":82,"time":66.75687899739583,"velocity":0.3937007874015748},{"duration":0.2290075000000087,"midi":83,"time":66.87138274739583,"velocity":0.3937007874015748},{"duration":0.2290075000000087,"midi":47,"time":66.87138274739583,"velocity":0.3937007874015748},{"duration":0.6870224999999976,"midi":67,"time":67.10039024739584,"velocity":0.3937007874015748},{"duration":0.6870224999999976,"midi":43,"time":67.10039024739584,"velocity":0.3937007874015748},{"duration":0.45801499999998896,"midi":55,"time":67.78741274739583,"velocity":0.3937007874015748},{"duration":0.22900749999999448,"midi":75,"time":67.78741274739583,"velocity":0.3937007874015748},{"duration":0.22900749999999448,"midi":74,"time":68.01642024739583,"velocity":0.3937007874015748},{"duration":0.11450375000001145,"midi":72,"time":68.24542774739582,"velocity":0.3937007874015748},{"duration":0.11450375000001145,"midi":55,"time":68.24542774739582,"velocity":0.3937007874015748},{"duration":0.22900749999999448,"midi":55,"time":68.35993149739583,"velocity":0.3937007874015748},{"duration":0.22900749999999448,"midi":70,"time":68.35993149739583,"velocity":0.3937007874015748},{"duration":0.11450374999999724,"midi":55,"time":68.58893899739583,"velocity":0.3937007874015748},{"duration":0.11450374999999724,"midi":72,"time":68.58893899739583,"velocity":0.3937007874015748},{"duration":0.11450374999999724,"midi":55,"time":68.93245024739583,"velocity":0.3937007874015748},{"duration":0.22900749999999448,"midi":67,"time":68.93245024739583,"velocity":0.3937007874015748},{"duration":0.11450374999999724,"midi":55,"time":69.16145774739583,"velocity":0.3937007874015748},{"duration":0.22900749999999448,"midi":72,"time":69.16145774739583,"velocity":0.3937007874015748},{"duration":0.2290075000000087,"midi":75,"time":69.39046524739582,"velocity":0.3937007874015748},{"duration":0.11450375000001145,"midi":55,"time":69.39046524739582,"velocity":0.3937007874015748},{"duration":0.45801500000000317,"midi":51,"time":69.61947274739583,"velocity":0.3937007874015748},{"duration":0.22900749999999448,"midi":79,"time":69.61947274739583,"velocity":0.3937007874015748},{"duration":0.2290075000000087,"midi":77,"time":69.84848024739583,"velocity":0.3937007874015748},{"duration":0.11450374999999724,"midi":75,"time":70.07748774739584,"velocity":0.3937007874015748},{"duration":0.11450374999999724,"midi":51,"time":70.07748774739584,"velocity":0.3937007874015748},{"duration":0.22900749999999448,"midi":51,"time":70.19199149739583,"velocity":0.3937007874015748},{"duration":0.22900749999999448,"midi":77,"time":70.19199149739583,"velocity":0.3937007874015748},{"duration":0.11450374999999724,"midi":75,"time":70.42099899739583,"velocity":0.3937007874015748},{"duration":0.11450374999999724,"midi":51,"time":70.42099899739583,"velocity":0.3937007874015748},{"duration":0.11450374999999724,"midi":51,"time":70.76451024739583,"velocity":0.3937007874015748},{"duration":0.11450374999999724,"midi":51,"time":70.99351774739583,"velocity":0.3937007874015748},{"duration":0.11450374999999724,"midi":70,"time":71.22252524739584,"velocity":0.3937007874015748},{"duration":0.11450374999999724,"midi":51,"time":71.22252524739584,"velocity":0.3937007874015748},{"duration":0.11450374999999724,"midi":70,"time":71.33702899739583,"velocity":0.3937007874015748},{"duration":0.45801500000000317,"midi":48,"time":71.45153274739583,"velocity":0.3937007874015748},{"duration":0.22900749999999448,"midi":72,"time":71.45153274739583,"velocity":0.3937007874015748},{"duration":0.2290075000000087,"midi":72,"time":71.68054024739583,"velocity":0.3937007874015748},{"duration":0.22900749999999448,"midi":72,"time":71.90954774739583,"velocity":0.3937007874015748},{"duration":0.11450374999999724,"midi":48,"time":71.90954774739583,"velocity":0.3937007874015748},{"duration":0.22900749999999448,"midi":48,"time":72.02405149739583,"velocity":0.3937007874015748},{"duration":0.11450374999999724,"midi":72,"time":72.13855524739583,"velocity":0.3937007874015748},{"duration":0.2290075000000087,"midi":72,"time":72.25305899739583,"velocity":0.3937007874015748},{"duration":0.11450374999999724,"midi":48,"time":72.25305899739583,"velocity":0.3937007874015748},{"duration":0.22900749999999448,"midi":72,"time":72.48206649739583,"velocity":0.3937007874015748},{"duration":0.11450374999999724,"midi":48,"time":72.59657024739583,"velocity":0.3937007874015748},{"duration":0.11450374999999724,"midi":72,"time":72.71107399739583,"velocity":0.3937007874015748},{"duration":0.11450374999999724,"midi":48,"time":72.82557774739583,"velocity":0.3937007874015748},{"duration":0.2290075000000087,"midi":72,"time":72.82557774739583,"velocity":0.3937007874015748},{"duration":0.22900749999999448,"midi":72,"time":73.05458524739583,"velocity":0.3937007874015748},{"duration":0.11450374999999724,"midi":48,"time":73.05458524739583,"velocity":0.3937007874015748},{"duration":0.45801500000000317,"midi":50,"time":73.28359274739583,"velocity":0.3937007874015748},{"duration":0.22900749999999448,"midi":72,"time":73.28359274739583,"velocity":0.3937007874015748},{"duration":0.2290075000000087,"midi":71,"time":73.51260024739582,"velocity":0.3937007874015748},{"duration":0.11450374999999724,"midi":50,"time":73.74160774739583,"velocity":0.3937007874015748},{"duration":0.11450374999999724,"midi":71,"time":73.74160774739583,"velocity":0.3937007874015748},{"duration":0.22900749999999448,"midi":72,"time":73.85611149739583,"velocity":0.3937007874015748},{"duration":0.22900749999999448,"midi":50,"time":73.85611149739583,"velocity":0.3937007874015748},{"duration":0.11450375000001145,"midi":50,"time":74.08511899739582,"velocity":0.3937007874015748},{"duration":1.0305337500000036,"midi":74,"time":74.08511899739582,"velocity":0.3937007874015748},{"duration":0.11450374999999724,"midi":50,"time":74.42863024739583,"velocity":0.3937007874015748},{"duration":0.11450375000001145,"midi":50,"time":74.65763774739582,"velocity":0.3937007874015748},{"duration":0.11450374999999724,"midi":50,"time":74.88664524739583,"velocity":0.3937007874015748},{"duration":0.9160300000000063,"midi":41,"time":75.11565274739583,"velocity":0.3937007874015748},{"duration":0.2290075000000087,"midi":75,"time":75.11565274739583,"velocity":0.3937007874015748},{"duration":0.22900749999999448,"midi":74,"time":75.34466024739584,"velocity":0.3937007874015748},{"duration":0.11450374999999724,"midi":72,"time":75.57366774739583,"velocity":0.3937007874015748},{"duration":0.2290075000000087,"midi":70,"time":75.68817149739583,"velocity":0.3937007874015748},{"duration":0.11450374999999724,"midi":72,"time":75.91717899739584,"velocity":0.3937007874015748},{"duration":0.9160299999999921,"midi":39,"time":76.03168274739583,"velocity":0.3937007874015748},{"duration":0.22900749999999448,"midi":67,"time":76.26069024739583,"velocity":0.3937007874015748},{"duration":0.2290075000000087,"midi":72,"time":76.48969774739582,"velocity":0.3937007874015748},{"duration":0.22900749999999448,"midi":75,"time":76.71870524739583,"velocity":0.3937007874015748},{"duration":0.2290075000000087,"midi":79,"time":76.94771274739583,"velocity":0.3937007874015748},{"duration":1.8320599999999985,"midi":37,"time":76.94771274739583,"velocity":0.3937007874015748},{"duration":0.22900749999999448,"midi":77,"time":77.17672024739583,"velocity":0.3937007874015748},{"duration":0.11450374999999724,"midi":75,"time":77.40572774739583,"velocity":0.3937007874015748},{"duration":0.2290075000000087,"midi":77,"time":77.52023149739583,"velocity":0.3937007874015748},{"duration":0.11450374999999724,"midi":75,"time":77.74923899739584,"velocity":0.3937007874015748},{"duration":0.2290075000000087,"midi":67,"time":78.09275024739583,"velocity":0.3937007874015748},{"duration":0.22900749999999448,"midi":67,"time":78.32175774739584,"velocity":0.3937007874015748},{"duration":1.603052500000004,"midi":79,"time":78.55076524739583,"velocity":0.3937007874015748},{"duration":0.45801500000000317,"midi":38,"time":78.77977274739582,"velocity":0.3937007874015748},{"duration":0.11450374999999724,"midi":38,"time":79.23778774739583,"velocity":0.3937007874015748},{"duration":0.2290075000000087,"midi":40,"time":79.35229149739583,"velocity":0.3937007874015748},{"duration":0.22900749999999448,"midi":41,"time":79.58129899739583,"velocity":0.3937007874015748},{"duration":0.2290075000000087,"midi":45,"time":79.81030649739583,"velocity":0.3937007874015748},{"duration":0.22900749999999448,"midi":48,"time":80.03931399739584,"velocity":0.3937007874015748},{"duration":0.11450374999999724,"midi":53,"time":80.26832149739583,"velocity":0.3937007874015748},{"duration":0.22900749999999448,"midi":55,"time":80.38282524739583,"velocity":0.3937007874015748},{"duration":0.9160300000000063,"midi":67,"time":80.61183274739582,"velocity":0.3937007874015748},{"duration":1.603052500000004,"midi":55,"time":80.61183274739582,"velocity":0.3937007874015748},{"duration":0.45801500000000317,"midi":74,"time":81.52786274739583,"velocity":0.3937007874015748},{"duration":0.22900749999999448,"midi":77,"time":81.98587774739583,"velocity":0.3937007874015748},{"duration":0.2290075000000087,"midi":56,"time":82.21488524739583,"velocity":0.3937007874015748},{"duration":0.11450374999999724,"midi":75,"time":82.21488524739583,"velocity":0.3937007874015748},{"duration":0.11450375000001145,"midi":74,"time":82.32938899739582,"velocity":0.3937007874015748},{"duration":0.11450374999999724,"midi":74,"time":82.44389274739584,"velocity":0.3937007874015748},{"duration":0.45801499999998896,"midi":44,"time":82.44389274739584,"velocity":0.3937007874015748},{"duration":5.381676249999998,"midi":72,"time":82.55839649739583,"velocity":0.3937007874015748},{"duration":0.11450375000001145,"midi":48,"time":82.90190774739582,"velocity":0.3937007874015748},{"duration":0.22900749999999448,"midi":44,"time":83.01641149739584,"velocity":0.3937007874015748},{"duration":0.22900749999999448,"midi":48,"time":83.24541899739583,"velocity":0.3937007874015748},{"duration":0.11450375000001145,"midi":48,"time":83.47442649739583,"velocity":0.3937007874015748},{"duration":0.22900749999999448,"midi":50,"time":83.58893024739584,"velocity":0.3937007874015748},{"duration":0.22900749999999448,"midi":51,"time":83.81793774739583,"velocity":0.3937007874015748},{"duration":0.2290075000000087,"midi":44,"time":84.04694524739583,"velocity":0.3937007874015748},{"duration":0.45801499999998896,"midi":46,"time":84.27595274739583,"velocity":0.3937007874015748},{"duration":0.11450375000001145,"midi":50,"time":84.73396774739582,"velocity":0.3937007874015748},{"duration":0.22900749999999448,"midi":46,"time":84.84847149739583,"velocity":0.3937007874015748},{"duration":0.22900749999999448,"midi":50,"time":85.07747899739583,"velocity":0.3937007874015748},{"duration":0.11450375000001145,"midi":50,"time":85.30648649739582,"velocity":0.3937007874015748},{"duration":0.22900749999999448,"midi":51,"time":85.42099024739584,"velocity":0.3937007874015748},{"duration":0.22900749999999448,"midi":53,"time":85.64999774739583,"velocity":0.3937007874015748},{"duration":0.2290075000000087,"midi":46,"time":85.87900524739582,"velocity":0.3937007874015748},{"duration":1.8320599999999985,"midi":48,"time":86.10801274739583,"velocity":0.3937007874015748}]}]}
