{"tracks":[{"instrument":{"family":"guitar","number":24,"name":"acoustic guitar (nylon)"},"notes":[{"duration":0.25862049999999925,"midi":42,"time":16.8103325,"velocity":0.30708661417322836},{"duration":0.25862049999999925,"midi":30,"time":16.8103325,"velocity":0.30708661417322836},{"duration":0.2586205000000028,"midi":30,"time":16.93964275,"velocity":0.30708661417322836},{"duration":0.2586205000000028,"midi":42,"time":16.93964275,"velocity":0.30708661417322836},{"duration":0.25862049999999925,"midi":30,"time":17.327573500000003,"velocity":0.30708661417322836},{"duration":0.25862049999999925,"midi":42,"time":17.327573500000003,"velocity":0.30708661417322836},{"duration":0.25862049999999925,"midi":42,"time":17.456883750000003,"velocity":0.30708661417322836},{"duration":0.25862049999999925,"midi":30,"time":17.456883750000003,"velocity":0.30708661417322836},{"duration":0.25862049999999925,"midi":42,"time":17.844814500000002,"velocity":0.30708661417322836},{"duration":0.25862049999999925,"midi":30,"time":17.844814500000002,"velocity":0.30708661417322836},{"duration":0.25862049999999925,"midi":30,"time":17.97412475,"velocity":0.30708661417322836},{"duration":0.25862049999999925,"midi":42,"time":17.97412475,"velocity":0.30708661417322836},{"duration":0.25862049999999925,"midi":30,"time":18.362055500000004,"velocity":0.30708661417322836},{"duration":0.25862049999999925,"midi":42,"time":18.362055500000004,"velocity":0.30708661417322836},{"duration":0.25862049999999925,"midi":30,"time":18.491365750000003,"velocity":0.30708661417322836},{"duration":0.25862049999999925,"midi":42,"time":18.491365750000003,"velocity":0.30708661417322836},{"duration":0.25862049999999925,"midi":30,"time":18.879296500000002,"velocity":0.30708661417322836},{"duration":0.25862049999999925,"midi":42,"time":18.879296500000002,"velocity":0.30708661417322836},{"duration":0.25862049999999925,"midi":30,"time":19.008606750000002,"velocity":0.30708661417322836},{"duration":0.25862049999999925,"midi":42,"time":19.008606750000002,"velocity":0.30708661417322836},{"duration":0.2586205000000028,"midi":30,"time":19.3965375,"velocity":0.30708661417322836},{"duration":0.2586205000000028,"midi":42,"time":19.3965375,"velocity":0.30708661417322836},{"duration":0.25862049999999925,"midi":30,"time":19.525847750000004,"velocity":0.30708661417322836},{"duration":0.25862049999999925,"midi":42,"time":19.525847750000004,"velocity":0.30708661417322836},{"duration":0.25862049999999925,"midi":30,"time":19.913778500000003,"velocity":0.30708661417322836},{"duration":0.25862049999999925,"midi":42,"time":19.913778500000003,"velocity":0.30708661417322836},{"duration":0.25862049999999925,"midi":42,"time":20.043088750000003,"velocity":0.30708661417322836},{"duration":0.25862049999999925,"midi":30,"time":20.043088750000003,"velocity":0.30708661417322836},{"duration":0.2586205000000028,"midi":42,"time":20.4310195,"velocity":0.30708661417322836},{"duration":0.2586205000000028,"midi":30,"time":20.4310195,"velocity":0.30708661417322836},{"duration":0.2586205000000028,"midi":30,"time":20.56032975,"velocity":0.30708661417322836},{"duration":0.2586205000000028,"midi":42,"time":20.56032975,"velocity":0.30708661417322836},{"duration":0.25862049999999925,"midi":34,"time":20.948260500000004,"velocity":0.30708661417322836},{"duration":0.25862049999999925,"midi":46,"time":20.948260500000004,"velocity":0.30708661417322836},{"duration":0.25862049999999925,"midi":34,"time":21.077570750000003,"velocity":0.30708661417322836},{"duration":0.25862049999999925,"midi":46,"time":21.077570750000003,"velocity":0.30708661417322836},{"duration":0.25862049999999925,"midi":46,"time":21.465501500000002,"velocity":0.30708661417322836},{"duration":0.25862049999999925,"midi":34,"time":21.465501500000002,"velocity":0.30708661417322836},{"duration":0.25862049999999925,"midi":34,"time":21.59481175,"velocity":0.30708661417322836},{"duration":0.25862049999999925,"midi":46,"time":21.59481175,"velocity":0.30708661417322836},{"duration":0.25862049999999925,"midi":34,"time":21.982742500000004,"velocity":0.30708661417322836},{"duration":0.25862049999999925,"midi":46,"time":21.982742500000004,"velocity":0.30708661417322836},{"duration":0.25862049999999925,"midi":34,"time":22.112052750000004,"velocity":0.30708661417322836},{"duration":0.25862049999999925,"midi":46,"time":22.112052750000004,"velocity":0.30708661417322836},{"duration":0.25862049999999925,"midi":46,"time":22.499983500000003,"velocity":0.30708661417322836},{"duration":0.25862049999999925,"midi":34,"time":22.499983500000003,"velocity":0.30708661417322836},{"duration":0.25862049999999925,"midi":34,"time":22.629293750000002,"velocity":0.30708661417322836},{"duration":0.25862049999999925,"midi":46,"time":22.629293750000002,"velocity":0.30708661417322836},{"duration":0.2586205000000028,"midi":37,"time":23.0172245,"velocity":0.30708661417322836},{"duration":0.2586205000000028,"midi":49,"time":23.0172245,"velocity":0.30708661417322836},{"duration":0.25862049999999925,"midi":37,"time":23.146534750000004,"velocity":0.30708661417322836},{"duration":0.25862049999999925,"midi":49,"time":23.146534750000004,"velocity":0.30708661417322836},{"duration":0.25862049999999925,"midi":37,"time":23.534465500000003,"velocity":0.30708661417322836},{"duration":0.25862049999999925,"midi":49,"time":23.534465500000003,"velocity":0.30708661417322836},{"duration":0.25862049999999925,"midi":37,"time":23.663775750000003,"velocity":0.30708661417322836},{"duration":0.25862049999999925,"midi":49,"time":23.663775750000003,"velocity":0.30708661417322836},{"duration":0.2586205000000028,"midi":49,"time":24.0517065,"velocity":0.30708661417322836},{"duration":0.2586205000000028,"midi":37,"time":24.0517065,"velocity":0.30708661417322836},{"duration":0.2586205000000028,"midi":37,"time":24.18101675,"velocity":0.30708661417322836},{"duration":0.2586205000000028,"midi":49,"time":24.18101675,"velocity":0.30708661417322836},{"duration":0.25862049999999925,"midi":44,"time":24.568947500000004,"velocity":0.30708661417322836},{"duration":0.25862049999999925,"midi":32,"time":24.568947500000004,"velocity":0.30708661417322836},{"duration":0.25862049999999925,"midi":32,"time":24.698257750000003,"velocity":0.30708661417322836},{"duration":0.25862049999999925,"midi":44,"time":24.698257750000003,"velocity":0.30708661417322836},{"duration":0.25862049999999925,"midi":30,"time":25.086188500000002,"velocity":0.30708661417322836},{"duration":0.25862049999999925,"midi":42,"time":25.086188500000002,"velocity":0.30708661417322836},{"duration":0.2586205000000028,"midi":42,"time":25.215498750000002,"velocity":0.30708661417322836},{"duration":0.2586205000000028,"midi":30,"time":25.215498750000002,"velocity":0.30708661417322836},{"duration":0.25862049999999925,"midi":42,"time":25.603429500000004,"velocity":0.30708661417322836},{"duration":0.25862049999999925,"midi":30,"time":25.603429500000004,"velocity":0.30708661417322836},{"duration":0.25862049999999925,"midi":30,"time":25.732739750000004,"velocity":0.30708661417322836},{"duration":0.25862049999999925,"midi":42,"time":25.732739750000004,"velocity":0.30708661417322836},{"duration":0.25862049999999925,"midi":30,"time":26.120670500000003,"velocity":0.30708661417322836},{"duration":0.25862049999999925,"midi":42,"time":26.120670500000003,"velocity":0.30708661417322836},{"duration":0.25862049999999925,"midi":30,"time":26.249980750000002,"velocity":0.30708661417322836},{"duration":0.25862049999999925,"midi":42,"time":26.249980750000002,"velocity":0.30708661417322836},{"duration":0.25862049999999925,"midi":42,"time":26.637911500000005,"velocity":0.30708661417322836},{"duration":0.25862049999999925,"midi":30,"time":26.637911500000005,"velocity":0.30708661417322836},{"duration":0.25862049999999925,"midi":42,"time":26.767221750000004,"velocity":0.30708661417322836},{"duration":0.25862049999999925,"midi":30,"time":26.767221750000004,"velocity":0.30708661417322836},{"duration":0.25862049999999925,"midi":42,"time":27.155152500000003,"velocity":0.30708661417322836},{"duration":0.25862049999999925,"midi":30,"time":27.155152500000003,"velocity":0.30708661417322836},{"duration":0.25862049999999925,"midi":42,"time":27.284462750000003,"velocity":0.30708661417322836},{"duration":0.25862049999999925,"midi":30,"time":27.284462750000003,"velocity":0.30708661417322836},{"duration":0.2586205000000028,"midi":42,"time":27.672393500000002,"velocity":0.30708661417322836},{"duration":0.2586205000000028,"midi":30,"time":27.672393500000002,"velocity":0.30708661417322836},{"duration":0.25862049999999925,"midi":30,"time":27.801703750000005,"velocity":0.30708661417322836},{"duration":0.25862049999999925,"midi":42,"time":27.801703750000005,"velocity":0.30708661417322836},{"duration":0.25862049999999925,"midi":30,"time":28.189634500000004,"velocity":0.30708661417322836},{"duration":0.25862049999999925,"midi":42,"time":28.189634500000004,"velocity":0.30708661417322836},{"duration":0.25862049999999925,"midi":42,"time":28.318944750000004,"velocity":0.30708661417322836},{"duration":0.25862049999999925,"midi":30,"time":28.318944750000004,"velocity":0.30708661417322836},{"duration":0.25862049999999925,"midi":42,"time":28.706875500000002,"velocity":0.30708661417322836},{"duration":0.25862049999999925,"midi":30,"time":28.706875500000002,"velocity":0.30708661417322836},{"duration":0.2586205000000028,"midi":42,"time":28.836185750000002,"velocity":0.30708661417322836},{"duration":0.2586205000000028,"midi":30,"time":28.836185750000002,"velocity":0.30708661417322836},{"duration":0.25862049999999925,"midi":34,"time":29.224116500000004,"velocity":0.30708661417322836},{"duration":0.25862049999999925,"midi":46,"time":29.224116500000004,"velocity":0.30708661417322836},{"duration":0.25862049999999925,"midi":46,"time":29.353426750000004,"velocity":0.30708661417322836},{"duration":0.25862049999999925,"midi":34,"time":29.353426750000004,"velocity":0.30708661417322836},{"duration":0.25862049999999925,"midi":46,"time":29.741357500000003,"velocity":0.30708661417322836},{"duration":0.25862049999999925,"midi":34,"time":29.741357500000003,"velocity":0.30708661417322836},{"duration":0.25862049999999925,"midi":46,"time":29.870667750000003,"velocity":0.30708661417322836},{"duration":0.25862049999999925,"midi":34,"time":29.870667750000003,"velocity":0.30708661417322836},{"duration":0.25862049999999925,"midi":46,"time":30.258598500000005,"velocity":0.30708661417322836},{"duration":0.25862049999999925,"midi":34,"time":30.258598500000005,"velocity":0.30708661417322836},{"duration":0.25862049999999925,"midi":46,"time":30.387908750000005,"velocity":0.30708661417322836},{"duration":0.25862049999999925,"midi":34,"time":30.387908750000005,"velocity":0.30708661417322836},{"duration":0.25862049999999925,"midi":34,"time":30.775839500000004,"velocity":0.30708661417322836},{"duration":0.25862049999999925,"midi":46,"time":30.775839500000004,"velocity":0.30708661417322836},{"duration":0.25862049999999925,"midi":34,"time":30.905149750000003,"velocity":0.30708661417322836},{"duration":0.25862049999999925,"midi":46,"time":30.905149750000003,"velocity":0.30708661417322836},{"duration":0.2586205000000028,"midi":49,"time":31.293080500000002,"velocity":0.30708661417322836},{"duration":0.2586205000000028,"midi":37,"time":31.293080500000002,"velocity":0.30708661417322836},{"duration":0.25862049999999925,"midi":37,"time":31.422390750000005,"velocity":0.30708661417322836},{"duration":0.25862049999999925,"midi":49,"time":31.422390750000005,"velocity":0.30708661417322836},{"duration":0.2586205000000028,"midi":49,"time":31.810321500000004,"velocity":0.30708661417322836},{"duration":0.2586205000000028,"midi":37,"time":31.810321500000004,"velocity":0.30708661417322836},{"duration":0.25862049999999925,"midi":37,"time":31.939631750000004,"velocity":0.30708661417322836},{"duration":0.25862049999999925,"midi":49,"time":31.939631750000004,"velocity":0.30708661417322836},{"duration":0.25862049999999925,"midi":37,"time":32.327562500000006,"velocity":0.30708661417322836},{"duration":0.25862049999999925,"midi":49,"time":32.327562500000006,"velocity":0.30708661417322836},{"duration":0.25862049999999925,"midi":49,"time":32.45687275,"velocity":0.30708661417322836},{"duration":0.25862049999999925,"midi":37,"time":32.45687275,"velocity":0.30708661417322836},{"duration":0.25862049999999925,"midi":49,"time":32.844803500000005,"velocity":0.30708661417322836},{"duration":0.25862049999999925,"midi":37,"time":32.844803500000005,"velocity":0.30708661417322836},{"duration":0.25862050000000636,"midi":49,"time":32.97411375,"velocity":0.30708661417322836},{"duration":0.25862050000000636,"midi":37,"time":32.97411375,"velocity":0.30708661417322836},{"duration":0.25862049999999925,"midi":42,"time":33.3620445,"velocity":0.30708661417322836},{"duration":0.25862049999999925,"midi":30,"time":33.3620445,"velocity":0.30708661417322836},{"duration":0.25862049999999925,"midi":42,"time":33.491354750000006,"velocity":0.30708661417322836},{"duration":0.25862049999999925,"midi":30,"time":33.491354750000006,"velocity":0.30708661417322836},{"duration":0.25862049999999925,"midi":42,"time":33.8792855,"velocity":0.30708661417322836},{"duration":0.25862049999999925,"midi":30,"time":33.8792855,"velocity":0.30708661417322836},{"duration":0.25862049999999925,"midi":30,"time":34.008595750000005,"velocity":0.30708661417322836},{"duration":0.25862049999999925,"midi":42,"time":34.008595750000005,"velocity":0.30708661417322836},{"duration":0.25862049999999925,"midi":42,"time":34.39652650000001,"velocity":0.30708661417322836},{"duration":0.25862049999999925,"midi":30,"time":34.39652650000001,"velocity":0.30708661417322836},{"duration":0.25862049999999925,"midi":42,"time":34.52583675,"velocity":0.30708661417322836},{"duration":0.25862049999999925,"midi":30,"time":34.52583675,"velocity":0.30708661417322836},{"duration":0.25862049999999925,"midi":30,"time":34.913767500000006,"velocity":0.30708661417322836},{"duration":0.25862049999999925,"midi":42,"time":34.913767500000006,"velocity":0.30708661417322836},{"duration":0.25862049999999925,"midi":30,"time":35.04307775,"velocity":0.30708661417322836},{"duration":0.25862049999999925,"midi":42,"time":35.04307775,"velocity":0.30708661417322836},{"duration":0.25862049999999925,"midi":42,"time":35.431008500000004,"velocity":0.30708661417322836},{"duration":0.25862049999999925,"midi":30,"time":35.431008500000004,"velocity":0.30708661417322836},{"duration":0.25862049999999925,"midi":30,"time":35.56031875000001,"velocity":0.30708661417322836},{"duration":0.25862049999999925,"midi":42,"time":35.56031875000001,"velocity":0.30708661417322836},{"duration":0.25862049999999925,"midi":42,"time":35.9482495,"velocity":0.30708661417322836},{"duration":0.25862049999999925,"midi":30,"time":35.9482495,"velocity":0.30708661417322836},{"duration":0.25862049999999925,"midi":30,"time":36.077559750000006,"velocity":0.30708661417322836},{"duration":0.25862049999999925,"midi":42,"time":36.077559750000006,"velocity":0.30708661417322836},{"duration":0.25862050000000636,"midi":42,"time":36.4654905,"velocity":0.30708661417322836},{"duration":0.25862050000000636,"midi":30,"time":36.4654905,"velocity":0.30708661417322836},{"duration":0.25862049999999925,"midi":30,"time":36.594800750000005,"velocity":0.30708661417322836},{"duration":0.25862049999999925,"midi":42,"time":36.594800750000005,"velocity":0.30708661417322836},{"duration":0.25862049999999925,"midi":30,"time":36.98273150000001,"velocity":0.30708661417322836},{"duration":0.25862049999999925,"midi":42,"time":36.98273150000001,"velocity":0.30708661417322836},{"duration":0.25862049999999925,"midi":42,"time":37.11204175,"velocity":0.30708661417322836},{"duration":0.25862049999999925,"midi":30,"time":37.11204175,"velocity":0.30708661417322836},{"duration":0.25862049999999925,"midi":46,"time":37.499972500000005,"velocity":0.30708661417322836},{"duration":0.25862049999999925,"midi":34,"time":37.499972500000005,"velocity":0.30708661417322836},{"duration":0.25862050000000636,"midi":34,"time":37.62928275,"velocity":0.30708661417322836},{"duration":0.25862050000000636,"midi":46,"time":37.62928275,"velocity":0.30708661417322836},{"duration":0.25862049999999925,"midi":46,"time":38.017213500000004,"velocity":0.30708661417322836},{"duration":0.25862049999999925,"midi":34,"time":38.017213500000004,"velocity":0.30708661417322836},{"duration":0.25862049999999925,"midi":34,"time":38.14652375000001,"velocity":0.30708661417322836},{"duration":0.25862049999999925,"midi":46,"time":38.14652375000001,"velocity":0.30708661417322836},{"duration":0.25862049999999925,"midi":46,"time":38.5344545,"velocity":0.30708661417322836},{"duration":0.25862049999999925,"midi":34,"time":38.5344545,"velocity":0.30708661417322836},{"duration":0.25862049999999925,"midi":34,"time":38.663764750000006,"velocity":0.30708661417322836},{"duration":0.25862049999999925,"midi":46,"time":38.663764750000006,"velocity":0.30708661417322836},{"duration":0.25862049999999925,"midi":46,"time":39.05169550000001,"velocity":0.30708661417322836},{"duration":0.25862049999999925,"midi":34,"time":39.05169550000001,"velocity":0.30708661417322836},{"duration":0.25862049999999925,"midi":46,"time":39.181005750000004,"velocity":0.30708661417322836},{"duration":0.25862049999999925,"midi":34,"time":39.181005750000004,"velocity":0.30708661417322836},{"duration":0.25862049999999925,"midi":49,"time":39.56893650000001,"velocity":0.30708661417322836},{"duration":0.25862049999999925,"midi":37,"time":39.56893650000001,"velocity":0.30708661417322836},{"duration":0.25862049999999925,"midi":49,"time":39.69824675,"velocity":0.30708661417322836},{"duration":0.25862049999999925,"midi":37,"time":39.69824675,"velocity":0.30708661417322836},{"duration":0.25862049999999925,"midi":49,"time":40.086177500000005,"velocity":0.30708661417322836},{"duration":0.25862049999999925,"midi":37,"time":40.086177500000005,"velocity":0.30708661417322836},{"duration":0.25862049999999925,"midi":49,"time":40.21548775000001,"velocity":0.30708661417322836},{"duration":0.25862049999999925,"midi":37,"time":40.21548775000001,"velocity":0.30708661417322836},{"duration":0.25862049999999925,"midi":37,"time":40.603418500000004,"velocity":0.30708661417322836},{"duration":0.25862049999999925,"midi":49,"time":40.603418500000004,"velocity":0.30708661417322836},{"duration":0.25862049999999925,"midi":49,"time":40.73272875000001,"velocity":0.30708661417322836},{"duration":0.25862049999999925,"midi":37,"time":40.73272875000001,"velocity":0.30708661417322836},{"duration":0.25862050000000636,"midi":32,"time":41.1206595,"velocity":0.30708661417322836},{"duration":0.25862050000000636,"midi":44,"time":41.1206595,"velocity":0.30708661417322836},{"duration":0.25862049999999925,"midi":44,"time":41.249969750000005,"velocity":0.30708661417322836},{"duration":0.25862049999999925,"midi":32,"time":41.249969750000005,"velocity":0.30708661417322836},{"duration":0.25862049999999925,"midi":30,"time":41.63790050000001,"velocity":0.30708661417322836},{"duration":0.25862049999999925,"midi":42,"time":41.63790050000001,"velocity":0.30708661417322836},{"duration":0.25862049999999925,"midi":42,"time":41.767210750000004,"velocity":0.30708661417322836},{"duration":0.25862049999999925,"midi":30,"time":41.767210750000004,"velocity":0.30708661417322836},{"duration":0.25862049999999925,"midi":42,"time":42.155141500000006,"velocity":0.30708661417322836},{"duration":0.25862049999999925,"midi":30,"time":42.155141500000006,"velocity":0.30708661417322836},{"duration":0.25862049999999925,"midi":42,"time":42.28445175,"velocity":0.30708661417322836},{"duration":0.25862049999999925,"midi":30,"time":42.28445175,"velocity":0.30708661417322836},{"duration":0.25862049999999925,"midi":42,"time":42.672382500000005,"velocity":0.30708661417322836},{"duration":0.25862049999999925,"midi":30,"time":42.672382500000005,"velocity":0.30708661417322836},{"duration":0.25862049999999925,"midi":30,"time":42.80169275000001,"velocity":0.30708661417322836},{"duration":0.25862049999999925,"midi":42,"time":42.80169275000001,"velocity":0.30708661417322836},{"duration":0.25862049999999925,"midi":30,"time":43.1896235,"velocity":0.30708661417322836},{"duration":0.25862049999999925,"midi":42,"time":43.1896235,"velocity":0.30708661417322836},{"duration":0.25862049999999925,"midi":42,"time":43.31893375000001,"velocity":0.30708661417322836},{"duration":0.25862049999999925,"midi":30,"time":43.31893375000001,"velocity":0.30708661417322836},{"duration":0.25862050000000636,"midi":42,"time":43.7068645,"velocity":0.30708661417322836},{"duration":0.25862050000000636,"midi":30,"time":43.7068645,"velocity":0.30708661417322836},{"duration":0.25862049999999925,"midi":42,"time":43.836174750000005,"velocity":0.30708661417322836},{"duration":0.25862049999999925,"midi":30,"time":43.836174750000005,"velocity":0.30708661417322836},{"duration":0.25862049999999925,"midi":42,"time":44.22410550000001,"velocity":0.30708661417322836},{"duration":0.25862049999999925,"midi":30,"time":44.22410550000001,"velocity":0.30708661417322836},{"duration":0.25862049999999925,"midi":30,"time":44.35341575,"velocity":0.30708661417322836},{"duration":0.25862049999999925,"midi":42,"time":44.35341575,"velocity":0.30708661417322836},{"duration":0.25862049999999925,"midi":42,"time":44.741346500000006,"velocity":0.30708661417322836},{"duration":0.25862049999999925,"midi":30,"time":44.741346500000006,"velocity":0.30708661417322836},{"duration":0.25862050000000636,"midi":30,"time":44.87065675,"velocity":0.30708661417322836},{"duration":0.25862050000000636,"midi":42,"time":44.87065675,"velocity":0.30708661417322836},{"duration":0.25862049999999925,"midi":42,"time":45.258587500000004,"velocity":0.30708661417322836},{"duration":0.25862049999999925,"midi":30,"time":45.258587500000004,"velocity":0.30708661417322836},{"duration":0.25862049999999925,"midi":30,"time":45.38789775000001,"velocity":0.30708661417322836},{"duration":0.25862049999999925,"midi":42,"time":45.38789775000001,"velocity":0.30708661417322836},{"duration":0.25862049999999925,"midi":34,"time":45.7758285,"velocity":0.30708661417322836},{"duration":0.25862049999999925,"midi":46,"time":45.7758285,"velocity":0.30708661417322836},{"duration":0.25862049999999925,"midi":34,"time":45.905138750000006,"velocity":0.30708661417322836},{"duration":0.25862049999999925,"midi":46,"time":45.905138750000006,"velocity":0.30708661417322836},{"duration":0.25862049999999925,"midi":46,"time":46.29306950000001,"velocity":0.30708661417322836},{"duration":0.25862049999999925,"midi":34,"time":46.29306950000001,"velocity":0.30708661417322836},{"duration":0.25862049999999925,"midi":46,"time":46.422379750000005,"velocity":0.30708661417322836},{"duration":0.25862049999999925,"midi":34,"time":46.422379750000005,"velocity":0.30708661417322836},{"duration":0.25862049999999925,"midi":46,"time":46.81031050000001,"velocity":0.30708661417322836},{"duration":0.25862049999999925,"midi":34,"time":46.81031050000001,"velocity":0.30708661417322836},{"duration":0.25862049999999925,"midi":46,"time":46.93962075,"velocity":0.30708661417322836},{"duration":0.25862049999999925,"midi":34,"time":46.93962075,"velocity":0.30708661417322836},{"duration":0.25862049999999925,"midi":46,"time":47.327551500000006,"velocity":0.30708661417322836},{"duration":0.25862049999999925,"midi":34,"time":47.327551500000006,"velocity":0.30708661417322836},{"duration":0.25862049999999925,"midi":46,"time":47.45686175000001,"velocity":0.30708661417322836},{"duration":0.25862049999999925,"midi":34,"time":47.45686175000001,"velocity":0.30708661417322836},{"duration":0.25862049999999925,"midi":49,"time":47.844792500000004,"velocity":0.30708661417322836},{"duration":0.25862049999999925,"midi":37,"time":47.844792500000004,"velocity":0.30708661417322836},{"duration":0.25862049999999925,"midi":37,"time":47.97410275000001,"velocity":0.30708661417322836},{"duration":0.25862049999999925,"midi":49,"time":47.97410275000001,"velocity":0.30708661417322836},{"duration":0.25862050000000636,"midi":49,"time":48.3620335,"velocity":0.30708661417322836},{"duration":0.25862050000000636,"midi":37,"time":48.3620335,"velocity":0.30708661417322836},{"duration":0.25862049999999925,"midi":37,"time":48.491343750000006,"velocity":0.30708661417322836},{"duration":0.25862049999999925,"midi":49,"time":48.491343750000006,"velocity":0.30708661417322836},{"duration":0.25862049999999925,"midi":49,"time":48.87927450000001,"velocity":0.30708661417322836},{"duration":0.25862049999999925,"midi":37,"time":48.87927450000001,"velocity":0.30708661417322836},{"duration":0.25862049999999925,"midi":37,"time":49.008584750000004,"velocity":0.30708661417322836},{"duration":0.25862049999999925,"midi":49,"time":49.008584750000004,"velocity":0.30708661417322836},{"duration":0.25862049999999925,"midi":49,"time":49.39651550000001,"velocity":0.30708661417322836},{"duration":0.25862049999999925,"midi":37,"time":49.39651550000001,"velocity":0.30708661417322836},{"duration":0.25862050000000636,"midi":49,"time":49.52582575,"velocity":0.30708661417322836},{"duration":0.25862050000000636,"midi":37,"time":49.52582575,"velocity":0.30708661417322836},{"duration":0.25862049999999925,"midi":42,"time":49.913756500000005,"velocity":0.30708661417322836},{"duration":0.25862049999999925,"midi":30,"time":49.913756500000005,"velocity":0.30708661417322836},{"duration":0.25862049999999925,"midi":42,"time":50.04306675000001,"velocity":0.30708661417322836},{"duration":0.25862049999999925,"midi":30,"time":50.04306675000001,"velocity":0.30708661417322836},{"duration":0.25862049999999925,"midi":42,"time":50.430997500000004,"velocity":0.30708661417322836},{"duration":0.25862049999999925,"midi":30,"time":50.430997500000004,"velocity":0.30708661417322836},{"duration":0.25862049999999925,"midi":30,"time":50.56030775000001,"velocity":0.30708661417322836},{"duration":0.25862049999999925,"midi":42,"time":50.56030775000001,"velocity":0.30708661417322836},{"duration":0.25862049999999925,"midi":30,"time":50.94823850000001,"velocity":0.30708661417322836},{"duration":0.25862049999999925,"midi":42,"time":50.94823850000001,"velocity":0.30708661417322836},{"duration":0.25862049999999925,"midi":30,"time":51.077548750000005,"velocity":0.30708661417322836},{"duration":0.25862049999999925,"midi":42,"time":51.077548750000005,"velocity":0.30708661417322836},{"duration":0.25862049999999925,"midi":30,"time":51.46547950000001,"velocity":0.30708661417322836},{"duration":0.25862049999999925,"midi":42,"time":51.46547950000001,"velocity":0.30708661417322836},{"duration":0.25862049999999925,"midi":30,"time":51.594789750000004,"velocity":0.30708661417322836},{"duration":0.25862049999999925,"midi":42,"time":51.594789750000004,"velocity":0.30708661417322836},{"duration":0.25862049999999925,"midi":42,"time":51.982720500000006,"velocity":0.30708661417322836},{"duration":0.25862049999999925,"midi":30,"time":51.982720500000006,"velocity":0.30708661417322836},{"duration":0.25862049999999925,"midi":42,"time":52.11203075000001,"velocity":0.30708661417322836},{"duration":0.25862049999999925,"midi":30,"time":52.11203075000001,"velocity":0.30708661417322836},{"duration":0.25862049999999925,"midi":30,"time":52.499961500000005,"velocity":0.30708661417322836},{"duration":0.25862049999999925,"midi":42,"time":52.499961500000005,"velocity":0.30708661417322836},{"duration":0.25862049999999925,"midi":30,"time":52.62927175000001,"velocity":0.30708661417322836},{"duration":0.25862049999999925,"midi":42,"time":52.62927175000001,"velocity":0.30708661417322836},{"duration":0.25862050000000636,"midi":42,"time":53.0172025,"velocity":0.30708661417322836},{"duration":0.25862050000000636,"midi":30,"time":53.0172025,"velocity":0.30708661417322836},{"duration":0.25862049999999925,"midi":30,"time":53.14651275000001,"velocity":0.30708661417322836},{"duration":0.25862049999999925,"midi":42,"time":53.14651275000001,"velocity":0.30708661417322836},{"duration":0.25862049999999925,"midi":42,"time":53.53444350000001,"velocity":0.30708661417322836},{"duration":0.25862049999999925,"midi":30,"time":53.53444350000001,"velocity":0.30708661417322836},{"duration":0.25862049999999925,"midi":30,"time":53.663753750000005,"velocity":0.30708661417322836},{"duration":0.25862049999999925,"midi":42,"time":53.663753750000005,"velocity":0.30708661417322836},{"duration":0.25862049999999925,"midi":46,"time":54.05168450000001,"velocity":0.30708661417322836},{"duration":0.25862049999999925,"midi":34,"time":54.05168450000001,"velocity":0.30708661417322836},{"duration":0.25862050000000636,"midi":34,"time":54.18099475,"velocity":0.30708661417322836},{"duration":0.25862050000000636,"midi":46,"time":54.18099475,"velocity":0.30708661417322836},{"duration":0.25862049999999925,"midi":46,"time":54.568925500000006,"velocity":0.30708661417322836},{"duration":0.25862049999999925,"midi":34,"time":54.568925500000006,"velocity":0.30708661417322836},{"duration":0.25862049999999925,"midi":34,"time":54.69823575000001,"velocity":0.30708661417322836},{"duration":0.25862049999999925,"midi":46,"time":54.69823575000001,"velocity":0.30708661417322836},{"duration":0.25862049999999925,"midi":46,"time":55.086166500000004,"velocity":0.30708661417322836},{"duration":0.25862049999999925,"midi":34,"time":55.086166500000004,"velocity":0.30708661417322836},{"duration":0.25862049999999925,"midi":46,"time":55.21547675000001,"velocity":0.30708661417322836},{"duration":0.25862049999999925,"midi":34,"time":55.21547675000001,"velocity":0.30708661417322836},{"duration":0.25862049999999925,"midi":46,"time":55.60340750000001,"velocity":0.30708661417322836},{"duration":0.25862049999999925,"midi":34,"time":55.60340750000001,"velocity":0.30708661417322836},{"duration":0.25862049999999925,"midi":46,"time":55.732717750000006,"velocity":0.30708661417322836},{"duration":0.25862049999999925,"midi":34,"time":55.732717750000006,"velocity":0.30708661417322836},{"duration":0.25862049999999925,"midi":49,"time":56.12064850000001,"velocity":0.30708661417322836},{"duration":0.25862049999999925,"midi":37,"time":56.12064850000001,"velocity":0.30708661417322836},{"duration":0.25862049999999925,"midi":49,"time":56.249958750000005,"velocity":0.30708661417322836},{"duration":0.25862049999999925,"midi":37,"time":56.249958750000005,"velocity":0.30708661417322836},{"duration":0.25862049999999925,"midi":49,"time":56.63788950000001,"velocity":0.30708661417322836},{"duration":0.25862049999999925,"midi":37,"time":56.63788950000001,"velocity":0.30708661417322836},{"duration":0.25862049999999925,"midi":37,"time":56.76719975000001,"velocity":0.30708661417322836},{"duration":0.25862049999999925,"midi":49,"time":56.76719975000001,"velocity":0.30708661417322836},{"duration":0.25862049999999925,"midi":37,"time":57.155130500000006,"velocity":0.30708661417322836},{"duration":0.25862049999999925,"midi":49,"time":57.155130500000006,"velocity":0.30708661417322836},{"duration":0.25862049999999925,"midi":37,"time":57.28444075000001,"velocity":0.30708661417322836},{"duration":0.25862049999999925,"midi":49,"time":57.28444075000001,"velocity":0.30708661417322836},{"duration":0.25862049999999925,"midi":44,"time":57.672371500000004,"velocity":0.30708661417322836},{"duration":0.25862049999999925,"midi":32,"time":57.672371500000004,"velocity":0.30708661417322836},{"duration":0.25862049999999925,"midi":44,"time":57.80168175000001,"velocity":0.30708661417322836},{"duration":0.25862049999999925,"midi":32,"time":57.80168175000001,"velocity":0.30708661417322836},{"duration":0.25862049999999925,"midi":30,"time":58.18961250000001,"velocity":0.30708661417322836},{"duration":0.25862049999999925,"midi":42,"time":58.18961250000001,"velocity":0.30708661417322836},{"duration":0.25862049999999925,"midi":30,"time":58.318922750000006,"velocity":0.30708661417322836},{"duration":0.25862049999999925,"midi":42,"time":58.318922750000006,"velocity":0.30708661417322836},{"duration":0.25862049999999925,"midi":42,"time":58.70685350000001,"velocity":0.30708661417322836},{"duration":0.25862049999999925,"midi":30,"time":58.70685350000001,"velocity":0.30708661417322836},{"duration":0.25862049999999925,"midi":30,"time":58.836163750000004,"velocity":0.30708661417322836},{"duration":0.25862049999999925,"midi":42,"time":58.836163750000004,"velocity":0.30708661417322836},{"duration":0.25862049999999925,"midi":30,"time":59.22409450000001,"velocity":0.30708661417322836},{"duration":0.25862049999999925,"midi":42,"time":59.22409450000001,"velocity":0.30708661417322836},{"duration":0.25862049999999925,"midi":42,"time":59.35340475000001,"velocity":0.30708661417322836},{"duration":0.25862049999999925,"midi":30,"time":59.35340475000001,"velocity":0.30708661417322836},{"duration":0.25862049999999925,"midi":30,"time":59.741335500000005,"velocity":0.30708661417322836},{"duration":0.25862049999999925,"midi":42,"time":59.741335500000005,"velocity":0.30708661417322836},{"duration":0.25862049999999925,"midi":30,"time":59.87064575000001,"velocity":0.30708661417322836},{"duration":0.25862049999999925,"midi":42,"time":59.87064575000001,"velocity":0.30708661417322836},{"duration":0.25862050000000636,"midi":30,"time":60.258576500000004,"velocity":0.30708661417322836},{"duration":0.25862050000000636,"midi":42,"time":60.258576500000004,"velocity":0.30708661417322836},{"duration":0.25862049999999925,"midi":30,"time":60.38788675000001,"velocity":0.30708661417322836},{"duration":0.25862049999999925,"midi":42,"time":60.38788675000001,"velocity":0.30708661417322836},{"duration":0.25862049999999925,"midi":42,"time":60.77581750000001,"velocity":0.30708661417322836},{"duration":0.25862049999999925,"midi":30,"time":60.77581750000001,"velocity":0.30708661417322836},{"duration":0.25862049999999925,"midi":42,"time":60.905127750000005,"velocity":0.30708661417322836},{"duration":0.25862049999999925,"midi":30,"time":60.905127750000005,"velocity":0.30708661417322836},{"duration":0.25862049999999925,"midi":30,"time":61.29305850000001,"velocity":0.30708661417322836},{"duration":0.25862049999999925,"midi":42,"time":61.29305850000001,"velocity":0.30708661417322836},{"duration":0.25862050000000636,"midi":42,"time":61.422368750000004,"velocity":0.30708661417322836},{"duration":0.25862050000000636,"midi":30,"time":61.422368750000004,"velocity":0.30708661417322836},{"duration":0.25862049999999925,"midi":30,"time":61.810299500000006,"velocity":0.30708661417322836},{"duration":0.25862049999999925,"midi":42,"time":61.810299500000006,"velocity":0.30708661417322836},{"duration":0.25862049999999925,"midi":30,"time":61.93960975000001,"velocity":0.30708661417322836},{"duration":0.25862049999999925,"midi":42,"time":61.93960975000001,"velocity":0.30708661417322836},{"duration":0.25862049999999925,"midi":46,"time":62.327540500000005,"velocity":0.30708661417322836},{"duration":0.25862049999999925,"midi":34,"time":62.327540500000005,"velocity":0.30708661417322836},{"duration":0.25862049999999925,"midi":34,"time":62.45685075000001,"velocity":0.30708661417322836},{"duration":0.25862049999999925,"midi":46,"time":62.45685075000001,"velocity":0.30708661417322836},{"duration":0.25862049999999925,"midi":34,"time":62.84478150000001,"velocity":0.30708661417322836},{"duration":0.25862049999999925,"midi":46,"time":62.84478150000001,"velocity":0.30708661417322836},{"duration":0.25862049999999925,"midi":46,"time":62.97409175000001,"velocity":0.30708661417322836},{"duration":0.25862049999999925,"midi":34,"time":62.97409175000001,"velocity":0.30708661417322836},{"duration":0.25862049999999925,"midi":46,"time":63.36202250000001,"velocity":0.30708661417322836},{"duration":0.25862049999999925,"midi":34,"time":63.36202250000001,"velocity":0.30708661417322836},{"duration":0.25862049999999925,"midi":46,"time":63.491332750000005,"velocity":0.30708661417322836},{"duration":0.25862049999999925,"midi":34,"time":63.491332750000005,"velocity":0.30708661417322836},{"duration":0.25862050000000636,"midi":46,"time":63.87926350000001,"velocity":0.30708661417322836},{"duration":0.25862050000000636,"midi":34,"time":63.87926350000001,"velocity":0.30708661417322836},{"duration":0.25862049999999215,"midi":46,"time":64.00857375000001,"velocity":0.30708661417322836},{"duration":0.25862049999999215,"midi":34,"time":64.00857375000001,"velocity":0.30708661417322836},{"duration":0.25862050000000636,"midi":37,"time":64.3965045,"velocity":0.30708661417322836},{"duration":0.25862050000000636,"midi":49,"time":64.3965045,"velocity":0.30708661417322836},{"duration":0.25862049999999215,"midi":37,"time":64.52581475000001,"velocity":0.30708661417322836},{"duration":0.25862049999999215,"midi":49,"time":64.52581475000001,"velocity":0.30708661417322836},{"duration":0.25862050000000636,"midi":49,"time":64.9137455,"velocity":0.30708661417322836},{"duration":0.25862050000000636,"midi":37,"time":64.9137455,"velocity":0.30708661417322836},{"duration":0.25862050000000636,"midi":37,"time":65.04305575000001,"velocity":0.30708661417322836},{"duration":0.25862050000000636,"midi":49,"time":65.04305575000001,"velocity":0.30708661417322836},{"duration":0.25862049999999215,"midi":37,"time":65.17236600000001,"velocity":0.30708661417322836},{"duration":0.25862049999999215,"midi":49,"time":65.17236600000001,"velocity":0.30708661417322836},{"duration":0.25862049999999215,"midi":37,"time":65.30167625000001,"velocity":0.30708661417322836},{"duration":0.25862049999999215,"midi":49,"time":65.30167625000001,"velocity":0.30708661417322836},{"duration":0.25862050000000636,"midi":37,"time":65.4309865,"velocity":0.30708661417322836},{"duration":0.25862050000000636,"midi":49,"time":65.4309865,"velocity":0.30708661417322836},{"duration":0.25862050000000636,"midi":49,"time":65.56029675,"velocity":0.30708661417322836},{"duration":0.25862050000000636,"midi":37,"time":65.56029675,"velocity":0.30708661417322836},{"duration":0.25862049999999215,"midi":32,"time":65.68960700000001,"velocity":0.30708661417322836},{"duration":0.25862049999999215,"midi":44,"time":65.68960700000001,"velocity":0.30708661417322836},{"duration":0.25862049999999215,"midi":44,"time":65.81891725000001,"velocity":0.30708661417322836},{"duration":0.25862049999999215,"midi":32,"time":65.81891725000001,"velocity":0.30708661417322836},{"duration":0.25862050000000636,"midi":32,"time":65.9482275,"velocity":0.30708661417322836},{"duration":0.25862050000000636,"midi":44,"time":65.9482275,"velocity":0.30708661417322836},{"duration":0.25862050000000636,"midi":44,"time":66.07753775,"velocity":0.30708661417322836},{"duration":0.25862050000000636,"midi":32,"time":66.07753775,"velocity":0.30708661417322836},{"duration":0.25862050000000636,"midi":32,"time":66.20684800000001,"velocity":0.30708661417322836},{"duration":0.25862050000000636,"midi":44,"time":66.20684800000001,"velocity":0.30708661417322836},{"duration":0.25862049999999215,"midi":44,"time":66.33615825000001,"velocity":0.30708661417322836},{"duration":0.25862049999999215,"midi":32,"time":66.33615825000001,"velocity":0.30708661417322836},{"duration":0.25862050000000636,"midi":44,"time":66.724089,"velocity":0.30708661417322836},{"duration":0.25862050000000636,"midi":32,"time":66.724089,"velocity":0.30708661417322836},{"duration":0.25862049999999215,"midi":32,"time":66.85339925000001,"velocity":0.30708661417322836},{"duration":0.25862049999999215,"midi":44,"time":66.85339925000001,"velocity":0.30708661417322836},{"duration":0.25862050000000636,"midi":44,"time":67.24133,"velocity":0.30708661417322836},{"duration":0.25862050000000636,"midi":32,"time":67.24133,"velocity":0.30708661417322836},{"duration":0.25862050000000636,"midi":44,"time":67.37064025000001,"velocity":0.30708661417322836},{"duration":0.25862050000000636,"midi":32,"time":67.37064025000001,"velocity":0.30708661417322836},{"duration":0.25862050000000636,"midi":32,"time":67.758571,"velocity":0.30708661417322836},{"duration":0.25862050000000636,"midi":44,"time":67.758571,"velocity":0.30708661417322836},{"duration":0.25862050000000636,"midi":44,"time":67.88788125,"velocity":0.30708661417322836},{"duration":0.25862050000000636,"midi":32,"time":67.88788125,"velocity":0.30708661417322836},{"duration":0.25862050000000636,"midi":32,"time":68.275812,"velocity":0.30708661417322836},{"duration":0.25862050000000636,"midi":44,"time":68.275812,"velocity":0.30708661417322836},{"duration":0.25862050000000636,"midi":44,"time":68.40512225,"velocity":0.30708661417322836},{"duration":0.25862050000000636,"midi":32,"time":68.40512225,"velocity":0.30708661417322836},{"duration":0.25862049999999215,"midi":32,"time":68.79305300000001,"velocity":0.30708661417322836},{"duration":0.25862049999999215,"midi":44,"time":68.79305300000001,"velocity":0.30708661417322836},{"duration":0.25862050000000636,"midi":44,"time":68.92236325,"velocity":0.30708661417322836},{"duration":0.25862050000000636,"midi":32,"time":68.92236325,"velocity":0.30708661417322836},{"duration":0.25862049999999215,"midi":32,"time":69.31029400000001,"velocity":0.30708661417322836},{"duration":0.25862049999999215,"midi":44,"time":69.31029400000001,"velocity":0.30708661417322836},{"duration":0.25862050000000636,"midi":44,"time":69.43960425,"velocity":0.30708661417322836},{"duration":0.25862050000000636,"midi":32,"time":69.43960425,"velocity":0.30708661417322836},{"duration":0.25862049999999215,"midi":44,"time":69.82753500000001,"velocity":0.30708661417322836},{"duration":0.25862049999999215,"midi":32,"time":69.82753500000001,"velocity":0.30708661417322836},{"duration":0.25862049999999215,"midi":44,"time":69.95684525000001,"velocity":0.30708661417322836},{"duration":0.25862049999999215,"midi":32,"time":69.95684525000001,"velocity":0.30708661417322836},{"duration":0.25862049999999215,"midi":30,"time":70.34477600000001,"velocity":0.30708661417322836},{"duration":0.25862049999999215,"midi":42,"time":70.34477600000001,"velocity":0.30708661417322836},{"duration":0.25862049999999215,"midi":42,"time":70.47408625000001,"velocity":0.30708661417322836},{"duration":0.25862049999999215,"midi":30,"time":70.47408625000001,"velocity":0.30708661417322836},{"duration":0.25862050000000636,"midi":42,"time":70.86201700000001,"velocity":0.30708661417322836},{"duration":0.25862050000000636,"midi":30,"time":70.86201700000001,"velocity":0.30708661417322836},{"duration":0.25862049999999215,"midi":42,"time":70.99132725000001,"velocity":0.30708661417322836},{"duration":0.25862049999999215,"midi":30,"time":70.99132725000001,"velocity":0.30708661417322836},{"duration":0.25862050000000636,"midi":42,"time":71.37925800000001,"velocity":0.30708661417322836},{"duration":0.25862050000000636,"midi":30,"time":71.37925800000001,"velocity":0.30708661417322836},{"duration":0.25862049999999215,"midi":42,"time":71.50856825000001,"velocity":0.30708661417322836},{"duration":0.25862049999999215,"midi":30,"time":71.50856825000001,"velocity":0.30708661417322836},{"duration":0.25862050000000636,"midi":42,"time":71.896499,"velocity":0.30708661417322836},{"duration":0.25862050000000636,"midi":30,"time":71.896499,"velocity":0.30708661417322836},{"duration":0.25862050000000636,"midi":42,"time":72.02580925000001,"velocity":0.30708661417322836},{"duration":0.25862050000000636,"midi":30,"time":72.02580925000001,"velocity":0.30708661417322836},{"duration":0.25862050000000636,"midi":42,"time":72.41374,"velocity":0.30708661417322836},{"duration":0.25862050000000636,"midi":30,"time":72.41374,"velocity":0.30708661417322836},{"duration":0.25862050000000636,"midi":30,"time":72.54305025000001,"velocity":0.30708661417322836},{"duration":0.25862050000000636,"midi":42,"time":72.54305025000001,"velocity":0.30708661417322836},{"duration":0.25862050000000636,"midi":30,"time":72.930981,"velocity":0.30708661417322836},{"duration":0.25862050000000636,"midi":42,"time":72.930981,"velocity":0.30708661417322836},{"duration":0.25862050000000636,"midi":30,"time":73.06029125,"velocity":0.30708661417322836},{"duration":0.25862050000000636,"midi":42,"time":73.06029125,"velocity":0.30708661417322836},{"duration":0.25862049999999215,"midi":46,"time":73.44822200000002,"velocity":0.30708661417322836},{"duration":0.25862049999999215,"midi":34,"time":73.44822200000002,"velocity":0.30708661417322836},{"duration":0.25862050000000636,"midi":34,"time":73.57753225,"velocity":0.30708661417322836},{"duration":0.25862050000000636,"midi":46,"time":73.57753225,"velocity":0.30708661417322836},{"duration":0.25862049999999215,"midi":32,"time":73.96546300000001,"velocity":0.30708661417322836},{"duration":0.25862049999999215,"midi":44,"time":73.96546300000001,"velocity":0.30708661417322836},{"duration":0.25862050000000636,"midi":44,"time":74.09477325,"velocity":0.30708661417322836},{"duration":0.25862050000000636,"midi":32,"time":74.09477325,"velocity":0.30708661417322836},{"duration":0.25862049999999215,"midi":44,"time":74.48270400000001,"velocity":0.30708661417322836},{"duration":0.25862049999999215,"midi":32,"time":74.48270400000001,"velocity":0.30708661417322836},{"duration":0.25862049999999215,"midi":32,"time":74.61201425000002,"velocity":0.30708661417322836},{"duration":0.25862049999999215,"midi":44,"time":74.61201425000002,"velocity":0.30708661417322836},{"duration":0.25862049999999215,"midi":44,"time":74.99994500000001,"velocity":0.30708661417322836},{"duration":0.25862049999999215,"midi":32,"time":74.99994500000001,"velocity":0.30708661417322836},{"duration":0.25862049999999215,"midi":32,"time":75.12925525000001,"velocity":0.30708661417322836},{"duration":0.25862049999999215,"midi":44,"time":75.12925525000001,"velocity":0.30708661417322836},{"duration":0.25862050000000636,"midi":44,"time":75.51718600000001,"velocity":0.30708661417322836},{"duration":0.25862050000000636,"midi":32,"time":75.51718600000001,"velocity":0.30708661417322836},{"duration":0.25862049999999215,"midi":44,"time":75.64649625000001,"velocity":0.30708661417322836},{"duration":0.25862049999999215,"midi":32,"time":75.64649625000001,"velocity":0.30708661417322836},{"duration":0.25862050000000636,"midi":32,"time":76.03442700000001,"velocity":0.30708661417322836},{"duration":0.25862050000000636,"midi":44,"time":76.03442700000001,"velocity":0.30708661417322836},{"duration":0.25862049999999215,"midi":32,"time":76.16373725000001,"velocity":0.30708661417322836},{"duration":0.25862049999999215,"midi":44,"time":76.16373725000001,"velocity":0.30708661417322836},{"duration":0.25862050000000636,"midi":44,"time":76.551668,"velocity":0.30708661417322836},{"duration":0.25862050000000636,"midi":32,"time":76.551668,"velocity":0.30708661417322836},{"duration":0.25862050000000636,"midi":32,"time":76.68097825000001,"velocity":0.30708661417322836},{"duration":0.25862050000000636,"midi":44,"time":76.68097825000001,"velocity":0.30708661417322836},{"duration":0.25862050000000636,"midi":32,"time":77.068909,"velocity":0.30708661417322836},{"duration":0.25862050000000636,"midi":44,"time":77.068909,"velocity":0.30708661417322836},{"duration":0.25862050000000636,"midi":32,"time":77.19821925000001,"velocity":0.30708661417322836},{"duration":0.25862050000000636,"midi":44,"time":77.19821925000001,"velocity":0.30708661417322836},{"duration":0.25862050000000636,"midi":44,"time":77.58615,"velocity":0.30708661417322836},{"duration":0.25862050000000636,"midi":32,"time":77.58615,"velocity":0.30708661417322836},{"duration":0.25862050000000636,"midi":32,"time":77.71546025,"velocity":0.30708661417322836},{"duration":0.25862050000000636,"midi":44,"time":77.71546025,"velocity":0.30708661417322836},{"duration":0.25862049999999215,"midi":44,"time":78.10339100000002,"velocity":0.30708661417322836},{"duration":0.25862049999999215,"midi":32,"time":78.10339100000002,"velocity":0.30708661417322836},{"duration":0.25862050000000636,"midi":32,"time":78.23270125,"velocity":0.30708661417322836},{"duration":0.25862050000000636,"midi":44,"time":78.23270125,"velocity":0.30708661417322836},{"duration":0.25862049999999215,"midi":42,"time":78.62063200000001,"velocity":0.30708661417322836},{"duration":0.25862049999999215,"midi":30,"time":78.62063200000001,"velocity":0.30708661417322836},{"duration":0.25862050000000636,"midi":30,"time":78.74994225,"velocity":0.30708661417322836},{"duration":0.25862050000000636,"midi":42,"time":78.74994225,"velocity":0.30708661417322836},{"duration":0.25862049999999215,"midi":42,"time":79.13787300000001,"velocity":0.30708661417322836},{"duration":0.25862049999999215,"midi":30,"time":79.13787300000001,"velocity":0.30708661417322836},{"duration":0.25862049999999215,"midi":42,"time":79.26718325000002,"velocity":0.30708661417322836},{"duration":0.25862049999999215,"midi":30,"time":79.26718325000002,"velocity":0.30708661417322836},{"duration":0.25862049999999215,"midi":30,"time":79.65511400000001,"velocity":0.30708661417322836},{"duration":0.25862049999999215,"midi":42,"time":79.65511400000001,"velocity":0.30708661417322836},{"duration":0.25862049999999215,"midi":42,"time":79.78442425000001,"velocity":0.30708661417322836},{"duration":0.25862049999999215,"midi":30,"time":79.78442425000001,"velocity":0.30708661417322836},{"duration":0.25862050000000636,"midi":42,"time":80.17235500000001,"velocity":0.30708661417322836},{"duration":0.25862050000000636,"midi":30,"time":80.17235500000001,"velocity":0.30708661417322836},{"duration":0.25862049999999215,"midi":42,"time":80.30166525000001,"velocity":0.30708661417322836},{"duration":0.25862049999999215,"midi":30,"time":80.30166525000001,"velocity":0.30708661417322836},{"duration":0.25862050000000636,"midi":42,"time":80.68959600000001,"velocity":0.30708661417322836},{"duration":0.25862050000000636,"midi":30,"time":80.68959600000001,"velocity":0.30708661417322836},{"duration":0.25862049999999215,"midi":42,"time":80.81890625000001,"velocity":0.30708661417322836},{"duration":0.25862049999999215,"midi":30,"time":80.81890625000001,"velocity":0.30708661417322836},{"duration":0.25862050000000636,"midi":30,"time":81.20683700000001,"velocity":0.30708661417322836},{"duration":0.25862050000000636,"midi":42,"time":81.20683700000001,"velocity":0.30708661417322836},{"duration":0.25862050000000636,"midi":42,"time":81.33614725000001,"velocity":0.30708661417322836},{"duration":0.25862050000000636,"midi":30,"time":81.33614725000001,"velocity":0.30708661417322836},{"duration":0.25862050000000636,"midi":34,"time":81.724078,"velocity":0.30708661417322836},{"duration":0.25862050000000636,"midi":46,"time":81.724078,"velocity":0.30708661417322836},{"duration":0.25862050000000636,"midi":46,"time":81.85338825000001,"velocity":0.30708661417322836},{"duration":0.25862050000000636,"midi":34,"time":81.85338825000001,"velocity":0.30708661417322836},{"duration":0.25862050000000636,"midi":32,"time":82.241319,"velocity":0.30708661417322836},{"duration":0.25862050000000636,"midi":44,"time":82.241319,"velocity":0.30708661417322836},{"duration":0.25862050000000636,"midi":32,"time":82.37062925000001,"velocity":0.30708661417322836},{"duration":0.25862050000000636,"midi":44,"time":82.37062925000001,"velocity":0.30708661417322836},{"duration":0.25862049999999215,"midi":32,"time":82.75856000000002,"velocity":0.30708661417322836},{"duration":0.25862049999999215,"midi":44,"time":82.75856000000002,"velocity":0.30708661417322836},{"duration":0.25862050000000636,"midi":44,"time":82.88787025,"velocity":0.30708661417322836},{"duration":0.25862050000000636,"midi":32,"time":82.88787025,"velocity":0.30708661417322836},{"duration":0.25862049999999215,"midi":44,"time":83.27580100000002,"velocity":0.30708661417322836},{"duration":0.25862049999999215,"midi":32,"time":83.27580100000002,"velocity":0.30708661417322836},{"duration":0.25862050000000636,"midi":32,"time":83.40511125,"velocity":0.30708661417322836},{"duration":0.25862050000000636,"midi":44,"time":83.40511125,"velocity":0.30708661417322836},{"duration":0.25862049999999215,"midi":32,"time":83.79304200000001,"velocity":0.30708661417322836},{"duration":0.25862049999999215,"midi":44,"time":83.79304200000001,"velocity":0.30708661417322836},{"duration":0.25862050000000636,"midi":32,"time":83.92235225,"velocity":0.30708661417322836},{"duration":0.25862050000000636,"midi":44,"time":83.92235225,"velocity":0.30708661417322836},{"duration":0.25862049999999215,"midi":44,"time":84.31028300000001,"velocity":0.30708661417322836},{"duration":0.25862049999999215,"midi":32,"time":84.31028300000001,"velocity":0.30708661417322836},{"duration":0.25862049999999215,"midi":44,"time":84.43959325000002,"velocity":0.30708661417322836},{"duration":0.25862049999999215,"midi":32,"time":84.43959325000002,"velocity":0.30708661417322836},{"duration":0.25862049999999215,"midi":44,"time":84.82752400000001,"velocity":0.30708661417322836},{"duration":0.25862049999999215,"midi":32,"time":84.82752400000001,"velocity":0.30708661417322836},{"duration":0.25862049999999215,"midi":32,"time":84.95683425000001,"velocity":0.30708661417322836},{"duration":0.25862049999999215,"midi":44,"time":84.95683425000001,"velocity":0.30708661417322836},{"duration":0.25862050000000636,"midi":32,"time":85.34476500000001,"velocity":0.30708661417322836},{"duration":0.25862050000000636,"midi":44,"time":85.34476500000001,"velocity":0.30708661417322836},{"duration":0.25862049999999215,"midi":32,"time":85.47407525000001,"velocity":0.30708661417322836},{"duration":0.25862049999999215,"midi":44,"time":85.47407525000001,"velocity":0.30708661417322836},{"duration":0.25862050000000636,"midi":44,"time":85.86200600000001,"velocity":0.30708661417322836},{"duration":0.25862050000000636,"midi":32,"time":85.86200600000001,"velocity":0.30708661417322836},{"duration":0.25862049999999215,"midi":32,"time":85.99131625000001,"velocity":0.30708661417322836},{"duration":0.25862049999999215,"midi":44,"time":85.99131625000001,"velocity":0.30708661417322836},{"duration":0.25862050000000636,"midi":44,"time":86.379247,"velocity":0.30708661417322836},{"duration":0.25862050000000636,"midi":32,"time":86.379247,"velocity":0.30708661417322836},{"duration":0.25862050000000636,"midi":32,"time":86.50855725000001,"velocity":0.30708661417322836},{"duration":0.25862050000000636,"midi":44,"time":86.50855725000001,"velocity":0.30708661417322836},{"duration":0.25862050000000636,"midi":42,"time":86.896488,"velocity":0.30708661417322836},{"duration":0.25862050000000636,"midi":30,"time":86.896488,"velocity":0.30708661417322836},{"duration":0.25862050000000636,"midi":30,"time":87.02579825000001,"velocity":0.30708661417322836},{"duration":0.25862050000000636,"midi":42,"time":87.02579825000001,"velocity":0.30708661417322836},{"duration":0.25862050000000636,"midi":30,"time":87.413729,"velocity":0.30708661417322836},{"duration":0.25862050000000636,"midi":42,"time":87.413729,"velocity":0.30708661417322836},{"duration":0.25862050000000636,"midi":30,"time":87.54303925,"velocity":0.30708661417322836},{"duration":0.25862050000000636,"midi":42,"time":87.54303925,"velocity":0.30708661417322836},{"duration":0.25862049999999215,"midi":30,"time":87.93097000000002,"velocity":0.30708661417322836},{"duration":0.25862049999999215,"midi":42,"time":87.93097000000002,"velocity":0.30708661417322836},{"duration":0.25862050000000636,"midi":42,"time":88.06028025,"velocity":0.30708661417322836},{"duration":0.25862050000000636,"midi":30,"time":88.06028025,"velocity":0.30708661417322836},{"duration":0.25862049999999215,"midi":30,"time":88.44821100000001,"velocity":0.30708661417322836},{"duration":0.25862049999999215,"midi":42,"time":88.44821100000001,"velocity":0.30708661417322836},{"duration":0.25862050000000636,"midi":30,"time":88.57752125,"velocity":0.30708661417322836},{"duration":0.25862050000000636,"midi":42,"time":88.57752125,"velocity":0.30708661417322836},{"duration":0.25862049999999215,"midi":30,"time":88.96545200000001,"velocity":0.30708661417322836},{"duration":0.25862049999999215,"midi":42,"time":88.96545200000001,"velocity":0.30708661417322836},{"duration":0.25862049999999215,"midi":42,"time":89.09476225000002,"velocity":0.30708661417322836},{"duration":0.25862049999999215,"midi":30,"time":89.09476225000002,"velocity":0.30708661417322836},{"duration":0.25862049999999215,"midi":30,"time":89.48269300000001,"velocity":0.30708661417322836},{"duration":0.25862049999999215,"midi":42,"time":89.48269300000001,"velocity":0.30708661417322836},{"duration":0.25862049999999215,"midi":30,"time":89.61200325000001,"velocity":0.30708661417322836},{"duration":0.25862049999999215,"midi":42,"time":89.61200325000001,"velocity":0.30708661417322836},{"duration":0.25862050000000636,"midi":34,"time":89.99993400000001,"velocity":0.30708661417322836},{"duration":0.25862050000000636,"midi":46,"time":89.99993400000001,"velocity":0.30708661417322836},{"duration":0.25862049999999215,"midi":34,"time":90.12924425000001,"velocity":0.30708661417322836},{"duration":0.25862049999999215,"midi":46,"time":90.12924425000001,"velocity":0.30708661417322836},{"duration":0.25862050000000636,"midi":32,"time":90.51717500000001,"velocity":0.30708661417322836},{"duration":0.25862050000000636,"midi":44,"time":90.51717500000001,"velocity":0.30708661417322836},{"duration":0.25862049999999215,"midi":44,"time":90.64648525000001,"velocity":0.30708661417322836},{"duration":0.25862049999999215,"midi":32,"time":90.64648525000001,"velocity":0.30708661417322836},{"duration":0.25862050000000636,"midi":44,"time":91.03441600000001,"velocity":0.30708661417322836},{"duration":0.25862050000000636,"midi":32,"time":91.03441600000001,"velocity":0.30708661417322836},{"duration":0.25862050000000636,"midi":44,"time":91.16372625000001,"velocity":0.30708661417322836},{"duration":0.25862050000000636,"midi":32,"time":91.16372625000001,"velocity":0.30708661417322836},{"duration":0.25862050000000636,"midi":44,"time":91.551657,"velocity":0.30708661417322836},{"duration":0.25862050000000636,"midi":32,"time":91.551657,"velocity":0.30708661417322836},{"duration":0.25862050000000636,"midi":44,"time":91.68096725000001,"velocity":0.30708661417322836},{"duration":0.25862050000000636,"midi":32,"time":91.68096725000001,"velocity":0.30708661417322836},{"duration":0.25862050000000636,"midi":44,"time":92.068898,"velocity":0.30708661417322836},{"duration":0.25862050000000636,"midi":32,"time":92.068898,"velocity":0.30708661417322836},{"duration":0.25862050000000636,"midi":44,"time":92.19820825000001,"velocity":0.30708661417322836},{"duration":0.25862050000000636,"midi":32,"time":92.19820825000001,"velocity":0.30708661417322836},{"duration":0.25862049999999215,"midi":44,"time":92.58613900000002,"velocity":0.30708661417322836},{"duration":0.25862049999999215,"midi":32,"time":92.58613900000002,"velocity":0.30708661417322836},{"duration":0.25862050000000636,"midi":32,"time":92.71544925,"velocity":0.30708661417322836},{"duration":0.25862050000000636,"midi":44,"time":92.71544925,"velocity":0.30708661417322836},{"duration":0.25862049999999215,"midi":32,"time":93.10338000000002,"velocity":0.30708661417322836},{"duration":0.25862049999999215,"midi":44,"time":93.10338000000002,"velocity":0.30708661417322836},{"duration":0.25862050000000636,"midi":44,"time":93.23269025,"velocity":0.30708661417322836},{"duration":0.25862050000000636,"midi":32,"time":93.23269025,"velocity":0.30708661417322836},{"duration":0.25862049999999215,"midi":32,"time":93.62062100000001,"velocity":0.30708661417322836},{"duration":0.25862049999999215,"midi":44,"time":93.62062100000001,"velocity":0.30708661417322836},{"duration":0.25862049999999215,"midi":32,"time":93.74993125000002,"velocity":0.30708661417322836},{"duration":0.25862049999999215,"midi":44,"time":93.74993125000002,"velocity":0.30708661417322836},{"duration":0.25862049999999215,"midi":44,"time":94.13786200000001,"velocity":0.30708661417322836},{"duration":0.25862049999999215,"midi":32,"time":94.13786200000001,"velocity":0.30708661417322836},{"duration":0.25862049999999215,"midi":44,"time":94.26717225000002,"velocity":0.30708661417322836},{"duration":0.25862049999999215,"midi":32,"time":94.26717225000002,"velocity":0.30708661417322836},{"duration":0.25862050000000636,"midi":44,"time":94.65510300000001,"velocity":0.30708661417322836},{"duration":0.25862050000000636,"midi":32,"time":94.65510300000001,"velocity":0.30708661417322836},{"duration":0.25862049999999215,"midi":44,"time":94.78441325000001,"velocity":0.30708661417322836},{"duration":0.25862049999999215,"midi":32,"time":94.78441325000001,"velocity":0.30708661417322836},{"duration":0.25862050000000636,"midi":42,"time":95.17234400000001,"velocity":0.30708661417322836},{"duration":0.25862050000000636,"midi":30,"time":95.17234400000001,"velocity":0.30708661417322836},{"duration":0.25862049999999215,"midi":30,"time":95.30165425000001,"velocity":0.30708661417322836},{"duration":0.25862049999999215,"midi":42,"time":95.30165425000001,"velocity":0.30708661417322836},{"duration":0.25862050000000636,"midi":30,"time":95.68958500000001,"velocity":0.30708661417322836},{"duration":0.25862050000000636,"midi":42,"time":95.68958500000001,"velocity":0.30708661417322836},{"duration":0.25862050000000636,"midi":42,"time":95.81889525000001,"velocity":0.30708661417322836},{"duration":0.25862050000000636,"midi":30,"time":95.81889525000001,"velocity":0.30708661417322836},{"duration":0.25862050000000636,"midi":42,"time":96.206826,"velocity":0.30708661417322836},{"duration":0.25862050000000636,"midi":30,"time":96.206826,"velocity":0.30708661417322836},{"duration":0.25862050000000636,"midi":30,"time":96.33613625000001,"velocity":0.30708661417322836},{"duration":0.25862050000000636,"midi":42,"time":96.33613625000001,"velocity":0.30708661417322836},{"duration":0.25862050000000636,"midi":30,"time":96.724067,"velocity":0.30708661417322836},{"duration":0.25862050000000636,"midi":42,"time":96.724067,"velocity":0.30708661417322836},{"duration":0.25862050000000636,"midi":30,"time":96.85337725000001,"velocity":0.30708661417322836},{"duration":0.25862050000000636,"midi":42,"time":96.85337725000001,"velocity":0.30708661417322836},{"duration":0.25862049999999215,"midi":30,"time":97.24130800000002,"velocity":0.30708661417322836},{"duration":0.25862049999999215,"midi":42,"time":97.24130800000002,"velocity":0.30708661417322836},{"duration":0.25862050000000636,"midi":42,"time":97.37061825,"velocity":0.30708661417322836},{"duration":0.25862050000000636,"midi":30,"time":97.37061825,"velocity":0.30708661417322836},{"duration":0.25862049999999215,"midi":30,"time":97.75854900000002,"velocity":0.30708661417322836},{"duration":0.25862049999999215,"midi":42,"time":97.75854900000002,"velocity":0.30708661417322836},{"duration":0.25862050000000636,"midi":30,"time":97.88785925,"velocity":0.30708661417322836},{"duration":0.25862050000000636,"midi":42,"time":97.88785925,"velocity":0.30708661417322836},{"duration":0.25862049999999215,"midi":46,"time":98.27579000000001,"velocity":0.30708661417322836},{"duration":0.25862049999999215,"midi":34,"time":98.27579000000001,"velocity":0.30708661417322836},{"duration":0.25862049999999215,"midi":46,"time":98.40510025000002,"velocity":0.30708661417322836},{"duration":0.25862049999999215,"midi":34,"time":98.40510025000002,"velocity":0.30708661417322836},{"duration":0.25862049999999215,"midi":32,"time":98.79303100000001,"velocity":0.30708661417322836},{"duration":0.25862049999999215,"midi":44,"time":98.79303100000001,"velocity":0.30708661417322836},{"duration":0.25862049999999215,"midi":44,"time":98.92234125000002,"velocity":0.30708661417322836},{"duration":0.25862049999999215,"midi":32,"time":98.92234125000002,"velocity":0.30708661417322836},{"duration":0.25862049999999215,"midi":45,"time":99.56889250000002,"velocity":0.30708661417322836},{"duration":0.25862049999999215,"midi":33,"time":99.56889250000002,"velocity":0.30708661417322836},{"duration":0.25862050000000636,"midi":33,"time":99.69820275000001,"velocity":0.30708661417322836},{"duration":0.25862050000000636,"midi":45,"time":99.69820275000001,"velocity":0.30708661417322836},{"duration":0.25862049999999215,"midi":33,"time":100.08613350000002,"velocity":0.30708661417322836},{"duration":0.25862049999999215,"midi":45,"time":100.08613350000002,"velocity":0.30708661417322836},{"duration":0.25862050000000636,"midi":33,"time":100.21544375,"velocity":0.30708661417322836},{"duration":0.25862050000000636,"midi":45,"time":100.21544375,"velocity":0.30708661417322836},{"duration":0.25862049999999215,"midi":33,"time":100.60337450000002,"velocity":0.30708661417322836},{"duration":0.25862049999999215,"midi":45,"time":100.60337450000002,"velocity":0.30708661417322836},{"duration":0.25862049999999215,"midi":33,"time":100.73268475000002,"velocity":0.30708661417322836},{"duration":0.25862049999999215,"midi":45,"time":100.73268475000002,"velocity":0.30708661417322836},{"duration":0.25862049999999215,"midi":45,"time":101.12061550000001,"velocity":0.30708661417322836},{"duration":0.25862049999999215,"midi":33,"time":101.12061550000001,"velocity":0.30708661417322836},{"duration":0.25862049999999215,"midi":45,"time":101.24992575000002,"velocity":0.30708661417322836},{"duration":0.25862049999999215,"midi":33,"time":101.24992575000002,"velocity":0.30708661417322836},{"duration":0.25862050000000636,"midi":35,"time":101.63785650000001,"velocity":0.30708661417322836},{"duration":0.25862050000000636,"midi":47,"time":101.63785650000001,"velocity":0.30708661417322836},{"duration":0.25862049999999215,"midi":35,"time":101.76716675000002,"velocity":0.30708661417322836},{"duration":0.25862049999999215,"midi":47,"time":101.76716675000002,"velocity":0.30708661417322836},{"duration":0.25862050000000636,"midi":47,"time":102.15509750000001,"velocity":0.30708661417322836},{"duration":0.25862050000000636,"midi":35,"time":102.15509750000001,"velocity":0.30708661417322836},{"duration":0.25862049999999215,"midi":47,"time":102.28440775000001,"velocity":0.30708661417322836},{"duration":0.25862049999999215,"midi":35,"time":102.28440775000001,"velocity":0.30708661417322836},{"duration":0.25862050000000636,"midi":35,"time":102.67233850000001,"velocity":0.30708661417322836},{"duration":0.25862050000000636,"midi":47,"time":102.67233850000001,"velocity":0.30708661417322836},{"duration":0.25862050000000636,"midi":35,"time":102.80164875000001,"velocity":0.30708661417322836},{"duration":0.25862050000000636,"midi":47,"time":102.80164875000001,"velocity":0.30708661417322836},{"duration":0.25862050000000636,"midi":35,"time":103.18957950000001,"velocity":0.30708661417322836},{"duration":0.25862050000000636,"midi":47,"time":103.18957950000001,"velocity":0.30708661417322836},{"duration":0.25862050000000636,"midi":35,"time":103.31888975000001,"velocity":0.30708661417322836},{"duration":0.25862050000000636,"midi":47,"time":103.31888975000001,"velocity":0.30708661417322836},{"duration":0.25862050000000636,"midi":37,"time":103.7068205,"velocity":0.30708661417322836},{"duration":0.25862050000000636,"midi":49,"time":103.7068205,"velocity":0.30708661417322836},{"duration":0.25862050000000636,"midi":49,"time":103.83613075000001,"velocity":0.30708661417322836},{"duration":0.25862050000000636,"midi":37,"time":103.83613075000001,"velocity":0.30708661417322836},{"duration":0.25862049999999215,"midi":49,"time":104.22406150000002,"velocity":0.30708661417322836},{"duration":0.25862049999999215,"midi":37,"time":104.22406150000002,"velocity":0.30708661417322836},{"duration":0.25862050000000636,"midi":49,"time":104.35337175000001,"velocity":0.30708661417322836},{"duration":0.25862050000000636,"midi":37,"time":104.35337175000001,"velocity":0.30708661417322836},{"duration":0.25862049999999215,"midi":37,"time":104.74130250000002,"velocity":0.30708661417322836},{"duration":0.25862049999999215,"midi":49,"time":104.74130250000002,"velocity":0.30708661417322836},{"duration":0.25862050000000636,"midi":37,"time":104.87061275,"velocity":0.30708661417322836},{"duration":0.25862050000000636,"midi":49,"time":104.87061275,"velocity":0.30708661417322836},{"duration":0.25862049999999215,"midi":37,"time":105.25854350000002,"velocity":0.30708661417322836},{"duration":0.25862049999999215,"midi":49,"time":105.25854350000002,"velocity":0.30708661417322836},{"duration":0.25862049999999215,"midi":37,"time":105.38785375000002,"velocity":0.30708661417322836},{"duration":0.25862049999999215,"midi":49,"time":105.38785375000002,"velocity":0.30708661417322836},{"duration":0.25862049999999215,"midi":37,"time":105.77578450000001,"velocity":0.30708661417322836},{"duration":0.25862049999999215,"midi":49,"time":105.77578450000001,"velocity":0.30708661417322836},{"duration":0.25862049999999215,"midi":49,"time":105.90509475000002,"velocity":0.30708661417322836},{"duration":0.25862049999999215,"midi":37,"time":105.90509475000002,"velocity":0.30708661417322836},{"duration":0.25862050000000636,"midi":37,"time":106.29302550000001,"velocity":0.30708661417322836},{"duration":0.25862050000000636,"midi":49,"time":106.29302550000001,"velocity":0.30708661417322836},{"duration":0.25862049999999215,"midi":37,"time":106.42233575000002,"velocity":0.30708661417322836},{"duration":0.25862049999999215,"midi":49,"time":106.42233575000002,"velocity":0.30708661417322836},{"duration":0.25862050000000636,"midi":35,"time":106.81026650000001,"velocity":0.30708661417322836},{"duration":0.25862050000000636,"midi":47,"time":106.81026650000001,"velocity":0.30708661417322836},{"duration":0.25862049999999215,"midi":35,"time":106.93957675000001,"velocity":0.30708661417322836},{"duration":0.25862049999999215,"midi":47,"time":106.93957675000001,"velocity":0.30708661417322836},{"duration":0.25862050000000636,"midi":47,"time":107.32750750000001,"velocity":0.30708661417322836},{"duration":0.25862050000000636,"midi":35,"time":107.32750750000001,"velocity":0.30708661417322836},{"duration":0.25862050000000636,"midi":47,"time":107.45681775000001,"velocity":0.30708661417322836},{"duration":0.25862050000000636,"midi":35,"time":107.45681775000001,"velocity":0.30708661417322836},{"duration":0.25862050000000636,"midi":33,"time":107.84474850000001,"velocity":0.30708661417322836},{"duration":0.25862050000000636,"midi":45,"time":107.84474850000001,"velocity":0.30708661417322836},{"duration":0.25862050000000636,"midi":33,"time":107.97405875000001,"velocity":0.30708661417322836},{"duration":0.25862050000000636,"midi":45,"time":107.97405875000001,"velocity":0.30708661417322836},{"duration":0.25862050000000636,"midi":33,"time":108.3619895,"velocity":0.30708661417322836},{"duration":0.25862050000000636,"midi":45,"time":108.3619895,"velocity":0.30708661417322836},{"duration":0.25862050000000636,"midi":33,"time":108.49129975000001,"velocity":0.30708661417322836},{"duration":0.25862050000000636,"midi":45,"time":108.49129975000001,"velocity":0.30708661417322836},{"duration":0.25862049999999215,"midi":33,"time":108.87923050000002,"velocity":0.30708661417322836},{"duration":0.25862049999999215,"midi":45,"time":108.87923050000002,"velocity":0.30708661417322836},{"duration":0.25862050000000636,"midi":33,"time":109.00854075000001,"velocity":0.30708661417322836},{"duration":0.25862050000000636,"midi":45,"time":109.00854075000001,"velocity":0.30708661417322836},{"duration":0.25862049999999215,"midi":33,"time":109.39647150000002,"velocity":0.30708661417322836},{"duration":0.25862049999999215,"midi":45,"time":109.39647150000002,"velocity":0.30708661417322836},{"duration":0.25862050000000636,"midi":45,"time":109.52578175000001,"velocity":0.30708661417322836},{"duration":0.25862050000000636,"midi":33,"time":109.52578175000001,"velocity":0.30708661417322836},{"duration":0.25862049999999215,"midi":47,"time":109.91371250000002,"velocity":0.30708661417322836},{"duration":0.25862049999999215,"midi":35,"time":109.91371250000002,"velocity":0.30708661417322836},{"duration":0.25862049999999215,"midi":35,"time":110.04302275000002,"velocity":0.30708661417322836},{"duration":0.25862049999999215,"midi":47,"time":110.04302275000002,"velocity":0.30708661417322836},{"duration":0.25862049999999215,"midi":35,"time":110.43095350000002,"velocity":0.30708661417322836},{"duration":0.25862049999999215,"midi":47,"time":110.43095350000002,"velocity":0.30708661417322836},{"duration":0.25862049999999215,"midi":35,"time":110.56026375000002,"velocity":0.30708661417322836},{"duration":0.25862049999999215,"midi":47,"time":110.56026375000002,"velocity":0.30708661417322836},{"duration":0.25862050000000636,"midi":35,"time":110.94819450000001,"velocity":0.30708661417322836},{"duration":0.25862050000000636,"midi":47,"time":110.94819450000001,"velocity":0.30708661417322836},{"duration":0.25862049999999215,"midi":35,"time":111.07750475000002,"velocity":0.30708661417322836},{"duration":0.25862049999999215,"midi":47,"time":111.07750475000002,"velocity":0.30708661417322836},{"duration":0.25862050000000636,"midi":47,"time":111.46543550000001,"velocity":0.30708661417322836},{"duration":0.25862050000000636,"midi":35,"time":111.46543550000001,"velocity":0.30708661417322836},{"duration":0.25862049999999215,"midi":47,"time":111.59474575000002,"velocity":0.30708661417322836},{"duration":0.25862049999999215,"midi":35,"time":111.59474575000002,"velocity":0.30708661417322836},{"duration":0.25862050000000636,"midi":37,"time":111.98267650000001,"velocity":0.30708661417322836},{"duration":0.25862050000000636,"midi":49,"time":111.98267650000001,"velocity":0.30708661417322836},{"duration":0.25862050000000636,"midi":37,"time":112.11198675000001,"velocity":0.30708661417322836},{"duration":0.25862050000000636,"midi":49,"time":112.11198675000001,"velocity":0.30708661417322836},{"duration":0.25862050000000636,"midi":37,"time":112.49991750000001,"velocity":0.30708661417322836},{"duration":0.25862050000000636,"midi":49,"time":112.49991750000001,"velocity":0.30708661417322836},{"duration":0.25862050000000636,"midi":37,"time":112.62922775000001,"velocity":0.30708661417322836},{"duration":0.25862050000000636,"midi":49,"time":112.62922775000001,"velocity":0.30708661417322836},{"duration":0.25862050000000636,"midi":37,"time":113.01715850000001,"velocity":0.30708661417322836},{"duration":0.25862050000000636,"midi":49,"time":113.01715850000001,"velocity":0.30708661417322836},{"duration":0.25862050000000636,"midi":37,"time":113.14646875000001,"velocity":0.30708661417322836},{"duration":0.25862050000000636,"midi":49,"time":113.14646875000001,"velocity":0.30708661417322836},{"duration":0.25862049999999215,"midi":49,"time":113.53439950000002,"velocity":0.30708661417322836},{"duration":0.25862049999999215,"midi":37,"time":113.53439950000002,"velocity":0.30708661417322836},{"duration":0.25862050000000636,"midi":37,"time":113.66370975000001,"velocity":0.30708661417322836},{"duration":0.25862050000000636,"midi":49,"time":113.66370975000001,"velocity":0.30708661417322836},{"duration":0.25862049999999215,"midi":49,"time":114.05164050000002,"velocity":0.30708661417322836},{"duration":0.25862049999999215,"midi":37,"time":114.05164050000002,"velocity":0.30708661417322836},{"duration":0.25862050000000636,"midi":49,"time":114.18095075000001,"velocity":0.30708661417322836},{"duration":0.25862050000000636,"midi":37,"time":114.18095075000001,"velocity":0.30708661417322836},{"duration":0.25862049999999215,"midi":49,"time":114.56888150000002,"velocity":0.30708661417322836},{"duration":0.25862049999999215,"midi":37,"time":114.56888150000002,"velocity":0.30708661417322836},{"duration":0.25862049999999215,"midi":37,"time":114.69819175000002,"velocity":0.30708661417322836},{"duration":0.25862049999999215,"midi":49,"time":114.69819175000002,"velocity":0.30708661417322836},{"duration":0.25862049999999215,"midi":35,"time":115.08612250000002,"velocity":0.30708661417322836},{"duration":0.25862049999999215,"midi":47,"time":115.08612250000002,"velocity":0.30708661417322836},{"duration":0.25862049999999215,"midi":35,"time":115.21543275000002,"velocity":0.30708661417322836},{"duration":0.25862049999999215,"midi":47,"time":115.21543275000002,"velocity":0.30708661417322836},{"duration":0.25862049999999215,"midi":47,"time":115.60336350000001,"velocity":0.30708661417322836},{"duration":0.25862049999999215,"midi":35,"time":115.60336350000001,"velocity":0.30708661417322836},{"duration":0.25862049999999215,"midi":35,"time":115.73267375000002,"velocity":0.30708661417322836},{"duration":0.25862049999999215,"midi":47,"time":115.73267375000002,"velocity":0.30708661417322836},{"duration":0.25862050000000636,"midi":33,"time":116.12060450000001,"velocity":0.30708661417322836},{"duration":0.25862050000000636,"midi":45,"time":116.12060450000001,"velocity":0.30708661417322836},{"duration":0.25862049999999215,"midi":33,"time":116.24991475000002,"velocity":0.30708661417322836},{"duration":0.25862049999999215,"midi":45,"time":116.24991475000002,"velocity":0.30708661417322836},{"duration":0.25862050000000636,"midi":33,"time":116.63784550000001,"velocity":0.30708661417322836},{"duration":0.25862050000000636,"midi":45,"time":116.63784550000001,"velocity":0.30708661417322836},{"duration":0.25862049999999215,"midi":33,"time":116.76715575000001,"velocity":0.30708661417322836},{"duration":0.25862049999999215,"midi":45,"time":116.76715575000001,"velocity":0.30708661417322836},{"duration":0.25862050000000636,"midi":45,"time":117.15508650000001,"velocity":0.30708661417322836},{"duration":0.25862050000000636,"midi":33,"time":117.15508650000001,"velocity":0.30708661417322836},{"duration":0.25862050000000636,"midi":33,"time":117.28439675000001,"velocity":0.30708661417322836},{"duration":0.25862050000000636,"midi":45,"time":117.28439675000001,"velocity":0.30708661417322836},{"duration":0.25862050000000636,"midi":45,"time":117.67232750000001,"velocity":0.30708661417322836},{"duration":0.25862050000000636,"midi":33,"time":117.67232750000001,"velocity":0.30708661417322836},{"duration":0.25862050000000636,"midi":45,"time":117.80163775000001,"velocity":0.30708661417322836},{"duration":0.25862050000000636,"midi":33,"time":117.80163775000001,"velocity":0.30708661417322836},{"duration":0.25862050000000636,"midi":47,"time":118.18956850000001,"velocity":0.30708661417322836},{"duration":0.25862050000000636,"midi":35,"time":118.18956850000001,"velocity":0.30708661417322836},{"duration":0.25862050000000636,"midi":47,"time":118.31887875000001,"velocity":0.30708661417322836},{"duration":0.25862050000000636,"midi":35,"time":118.31887875000001,"velocity":0.30708661417322836},{"duration":0.25862049999999215,"midi":47,"time":118.70680950000002,"velocity":0.30708661417322836},{"duration":0.25862049999999215,"midi":35,"time":118.70680950000002,"velocity":0.30708661417322836},{"duration":0.25862050000000636,"midi":47,"time":118.83611975000001,"velocity":0.30708661417322836},{"duration":0.25862050000000636,"midi":35,"time":118.83611975000001,"velocity":0.30708661417322836},{"duration":0.25862049999999215,"midi":35,"time":119.22405050000002,"velocity":0.30708661417322836},{"duration":0.25862049999999215,"midi":47,"time":119.22405050000002,"velocity":0.30708661417322836},{"duration":0.25862050000000636,"midi":47,"time":119.35336075000001,"velocity":0.30708661417322836},{"duration":0.25862050000000636,"midi":35,"time":119.35336075000001,"velocity":0.30708661417322836},{"duration":0.25862049999999215,"midi":35,"time":119.74129150000002,"velocity":0.30708661417322836},{"duration":0.25862049999999215,"midi":47,"time":119.74129150000002,"velocity":0.30708661417322836},{"duration":0.25862049999999215,"midi":35,"time":119.87060175000002,"velocity":0.30708661417322836},{"duration":0.25862049999999215,"midi":47,"time":119.87060175000002,"velocity":0.30708661417322836},{"duration":0.25862049999999215,"midi":37,"time":120.25853250000002,"velocity":0.30708661417322836},{"duration":0.25862049999999215,"midi":49,"time":120.25853250000002,"velocity":0.30708661417322836},{"duration":0.25862049999999215,"midi":49,"time":120.38784275000002,"velocity":0.30708661417322836},{"duration":0.25862049999999215,"midi":37,"time":120.38784275000002,"velocity":0.30708661417322836},{"duration":0.25862050000000636,"midi":49,"time":120.77577350000001,"velocity":0.30708661417322836},{"duration":0.25862050000000636,"midi":37,"time":120.77577350000001,"velocity":0.30708661417322836},{"duration":0.25862049999999215,"midi":37,"time":120.90508375000002,"velocity":0.30708661417322836},{"duration":0.25862049999999215,"midi":49,"time":120.90508375000002,"velocity":0.30708661417322836},{"duration":0.25862050000000636,"midi":49,"time":121.29301450000001,"velocity":0.30708661417322836},{"duration":0.25862050000000636,"midi":37,"time":121.29301450000001,"velocity":0.30708661417322836},{"duration":0.25862049999999215,"midi":49,"time":121.42232475000002,"velocity":0.30708661417322836},{"duration":0.25862049999999215,"midi":37,"time":121.42232475000002,"velocity":0.30708661417322836},{"duration":0.25862050000000636,"midi":49,"time":121.81025550000001,"velocity":0.30708661417322836},{"duration":0.25862050000000636,"midi":37,"time":121.81025550000001,"velocity":0.30708661417322836},{"duration":0.25862050000000636,"midi":49,"time":121.93956575000001,"velocity":0.30708661417322836},{"duration":0.25862050000000636,"midi":37,"time":121.93956575000001,"velocity":0.30708661417322836},{"duration":0.25862050000000636,"midi":49,"time":122.32749650000001,"velocity":0.30708661417322836},{"duration":0.25862050000000636,"midi":37,"time":122.32749650000001,"velocity":0.30708661417322836},{"duration":0.25862050000000636,"midi":49,"time":122.45680675000001,"velocity":0.30708661417322836},{"duration":0.25862050000000636,"midi":37,"time":122.45680675000001,"velocity":0.30708661417322836},{"duration":0.25862050000000636,"midi":37,"time":122.84473750000001,"velocity":0.30708661417322836},{"duration":0.25862050000000636,"midi":49,"time":122.84473750000001,"velocity":0.30708661417322836},{"duration":0.25862050000000636,"midi":49,"time":122.97404775000001,"velocity":0.30708661417322836},{"duration":0.25862050000000636,"midi":37,"time":122.97404775000001,"velocity":0.30708661417322836},{"duration":0.25862049999999215,"midi":35,"time":123.36197850000002,"velocity":0.30708661417322836},{"duration":0.25862049999999215,"midi":47,"time":123.36197850000002,"velocity":0.30708661417322836},{"duration":0.25862050000000636,"midi":35,"time":123.49128875000001,"velocity":0.30708661417322836},{"duration":0.25862050000000636,"midi":47,"time":123.49128875000001,"velocity":0.30708661417322836},{"duration":0.25862049999999215,"midi":35,"time":123.87921950000002,"velocity":0.30708661417322836},{"duration":0.25862049999999215,"midi":47,"time":123.87921950000002,"velocity":0.30708661417322836},{"duration":0.25862050000000636,"midi":35,"time":124.00852975000001,"velocity":0.30708661417322836},{"duration":0.25862050000000636,"midi":47,"time":124.00852975000001,"velocity":0.30708661417322836},{"duration":0.25862049999999215,"midi":33,"time":124.39646050000002,"velocity":0.30708661417322836},{"duration":0.25862049999999215,"midi":45,"time":124.39646050000002,"velocity":0.30708661417322836},{"duration":0.25862049999999215,"midi":33,"time":124.52577075000002,"velocity":0.30708661417322836},{"duration":0.25862049999999215,"midi":45,"time":124.52577075000002,"velocity":0.30708661417322836},{"duration":0.25862049999999215,"midi":33,"time":124.91370150000002,"velocity":0.30708661417322836},{"duration":0.25862049999999215,"midi":45,"time":124.91370150000002,"velocity":0.30708661417322836},{"duration":0.25862049999999215,"midi":45,"time":125.04301175000002,"velocity":0.30708661417322836},{"duration":0.25862049999999215,"midi":33,"time":125.04301175000002,"velocity":0.30708661417322836},{"duration":0.25862050000000636,"midi":45,"time":125.43094250000001,"velocity":0.30708661417322836},{"duration":0.25862050000000636,"midi":33,"time":125.43094250000001,"velocity":0.30708661417322836},{"duration":0.25862049999999215,"midi":33,"time":125.56025275000002,"velocity":0.30708661417322836},{"duration":0.25862049999999215,"midi":45,"time":125.56025275000002,"velocity":0.30708661417322836},{"duration":0.25862050000000636,"midi":45,"time":125.94818350000001,"velocity":0.30708661417322836},{"duration":0.25862050000000636,"midi":33,"time":125.94818350000001,"velocity":0.30708661417322836},{"duration":0.25862049999999215,"midi":45,"time":126.07749375000002,"velocity":0.30708661417322836},{"duration":0.25862049999999215,"midi":33,"time":126.07749375000002,"velocity":0.30708661417322836},{"duration":0.25862050000000636,"midi":35,"time":126.46542450000001,"velocity":0.30708661417322836},{"duration":0.25862050000000636,"midi":47,"time":126.46542450000001,"velocity":0.30708661417322836},{"duration":0.25862050000000636,"midi":35,"time":126.59473475000001,"velocity":0.30708661417322836},{"duration":0.25862050000000636,"midi":47,"time":126.59473475000001,"velocity":0.30708661417322836},{"duration":0.25862050000000636,"midi":35,"time":126.98266550000001,"velocity":0.30708661417322836},{"duration":0.25862050000000636,"midi":47,"time":126.98266550000001,"velocity":0.30708661417322836},{"duration":0.25862050000000636,"midi":47,"time":127.11197575000001,"velocity":0.30708661417322836},{"duration":0.25862050000000636,"midi":35,"time":127.11197575000001,"velocity":0.30708661417322836},{"duration":0.25862050000000636,"midi":47,"time":127.49990650000001,"velocity":0.30708661417322836},{"duration":0.25862050000000636,"midi":35,"time":127.49990650000001,"velocity":0.30708661417322836},{"duration":0.25862050000000636,"midi":47,"time":127.62921675000001,"velocity":0.30708661417322836},{"duration":0.25862050000000636,"midi":35,"time":127.62921675000001,"velocity":0.30708661417322836},{"duration":0.25862050000000636,"midi":35,"time":128.01714750000002,"velocity":0.30708661417322836},{"duration":0.25862050000000636,"midi":47,"time":128.01714750000002,"velocity":0.30708661417322836},{"duration":0.25862049999997794,"midi":35,"time":128.14645775000002,"velocity":0.30708661417322836},{"duration":0.25862049999997794,"midi":47,"time":128.14645775000002,"velocity":0.30708661417322836},{"duration":0.25862050000000636,"midi":49,"time":128.5343885,"velocity":0.30708661417322836},{"duration":0.25862050000000636,"midi":37,"time":128.5343885,"velocity":0.30708661417322836},{"duration":0.25862050000000636,"midi":37,"time":128.66369875,"velocity":0.30708661417322836},{"duration":0.25862050000000636,"midi":49,"time":128.66369875,"velocity":0.30708661417322836},{"duration":0.25862050000000636,"midi":49,"time":129.05162950000002,"velocity":0.30708661417322836},{"duration":0.25862050000000636,"midi":37,"time":129.05162950000002,"velocity":0.30708661417322836},{"duration":0.25862050000000636,"midi":49,"time":129.18093975000002,"velocity":0.30708661417322836},{"duration":0.25862050000000636,"midi":37,"time":129.18093975000002,"velocity":0.30708661417322836},{"duration":0.25862050000000636,"midi":37,"time":129.5688705,"velocity":0.30708661417322836},{"duration":0.25862050000000636,"midi":49,"time":129.5688705,"velocity":0.30708661417322836},{"duration":0.25862050000000636,"midi":37,"time":129.69818075,"velocity":0.30708661417322836},{"duration":0.25862050000000636,"midi":49,"time":129.69818075,"velocity":0.30708661417322836},{"duration":0.25862050000000636,"midi":37,"time":130.08611150000002,"velocity":0.30708661417322836},{"duration":0.25862050000000636,"midi":49,"time":130.08611150000002,"velocity":0.30708661417322836},{"duration":0.25862050000000636,"midi":37,"time":130.21542175000002,"velocity":0.30708661417322836},{"duration":0.25862050000000636,"midi":49,"time":130.21542175000002,"velocity":0.30708661417322836},{"duration":0.25862049999997794,"midi":49,"time":130.60335250000003,"velocity":0.30708661417322836},{"duration":0.25862049999997794,"midi":37,"time":130.60335250000003,"velocity":0.30708661417322836},{"duration":0.25862050000000636,"midi":49,"time":130.73266275,"velocity":0.30708661417322836},{"duration":0.25862050000000636,"midi":37,"time":130.73266275,"velocity":0.30708661417322836},{"duration":0.25862050000000636,"midi":49,"time":131.1205935,"velocity":0.30708661417322836},{"duration":0.25862050000000636,"midi":37,"time":131.1205935,"velocity":0.30708661417322836},{"duration":0.25862050000000636,"midi":49,"time":131.24990375000002,"velocity":0.30708661417322836},{"duration":0.25862050000000636,"midi":37,"time":131.24990375000002,"velocity":0.30708661417322836},{"duration":0.25862049999997794,"midi":35,"time":131.63783450000003,"velocity":0.30708661417322836},{"duration":0.25862049999997794,"midi":47,"time":131.63783450000003,"velocity":0.30708661417322836},{"duration":0.25862049999997794,"midi":47,"time":131.76714475000003,"velocity":0.30708661417322836},{"duration":0.25862049999997794,"midi":35,"time":131.76714475000003,"velocity":0.30708661417322836},{"duration":0.25862050000000636,"midi":47,"time":132.1550755,"velocity":0.30708661417322836},{"duration":0.25862050000000636,"midi":35,"time":132.1550755,"velocity":0.30708661417322836},{"duration":0.25862050000000636,"midi":35,"time":132.28438575,"velocity":0.30708661417322836},{"duration":0.25862050000000636,"midi":47,"time":132.28438575,"velocity":0.30708661417322836},{"duration":0.25862049999997794,"midi":33,"time":149.22402850000003,"velocity":0.30708661417322836},{"duration":0.25862049999997794,"midi":45,"time":149.22402850000003,"velocity":0.30708661417322836},{"duration":0.25862050000000636,"midi":45,"time":149.35333875,"velocity":0.30708661417322836},{"duration":0.25862050000000636,"midi":33,"time":149.35333875,"velocity":0.30708661417322836},{"duration":0.25862050000000636,"midi":45,"time":149.74126950000002,"velocity":0.30708661417322836},{"duration":0.25862050000000636,"midi":33,"time":149.74126950000002,"velocity":0.30708661417322836},{"duration":0.25862050000000636,"midi":33,"time":149.87057975000002,"velocity":0.30708661417322836},{"duration":0.25862050000000636,"midi":45,"time":149.87057975000002,"velocity":0.30708661417322836},{"duration":0.25862049999997794,"midi":33,"time":150.25851050000003,"velocity":0.30708661417322836},{"duration":0.25862049999997794,"midi":45,"time":150.25851050000003,"velocity":0.30708661417322836},{"duration":0.25862049999997794,"midi":33,"time":150.38782075000003,"velocity":0.30708661417322836},{"duration":0.25862049999997794,"midi":45,"time":150.38782075000003,"velocity":0.30708661417322836},{"duration":0.25862050000000636,"midi":33,"time":150.7757515,"velocity":0.30708661417322836},{"duration":0.25862050000000636,"midi":45,"time":150.7757515,"velocity":0.30708661417322836},{"duration":0.25862050000000636,"midi":45,"time":150.90506175000002,"velocity":0.30708661417322836},{"duration":0.25862050000000636,"midi":33,"time":150.90506175000002,"velocity":0.30708661417322836},{"duration":0.25862050000000636,"midi":35,"time":151.29299250000003,"velocity":0.30708661417322836},{"duration":0.25862050000000636,"midi":47,"time":151.29299250000003,"velocity":0.30708661417322836},{"duration":0.25862049999997794,"midi":35,"time":151.42230275000003,"velocity":0.30708661417322836},{"duration":0.25862049999997794,"midi":47,"time":151.42230275000003,"velocity":0.30708661417322836},{"duration":0.25862050000000636,"midi":47,"time":151.8102335,"velocity":0.30708661417322836},{"duration":0.25862050000000636,"midi":35,"time":151.8102335,"velocity":0.30708661417322836},{"duration":0.25862050000000636,"midi":47,"time":151.93954375,"velocity":0.30708661417322836},{"duration":0.25862050000000636,"midi":35,"time":151.93954375,"velocity":0.30708661417322836},{"duration":0.25862050000000636,"midi":47,"time":152.32747450000002,"velocity":0.30708661417322836},{"duration":0.25862050000000636,"midi":35,"time":152.32747450000002,"velocity":0.30708661417322836},{"duration":0.25862050000000636,"midi":35,"time":152.45678475000003,"velocity":0.30708661417322836},{"duration":0.25862050000000636,"midi":47,"time":152.45678475000003,"velocity":0.30708661417322836},{"duration":0.25862050000000636,"midi":47,"time":152.8447155,"velocity":0.30708661417322836},{"duration":0.25862050000000636,"midi":35,"time":152.8447155,"velocity":0.30708661417322836},{"duration":0.25862050000000636,"midi":35,"time":152.97402575,"velocity":0.30708661417322836},{"duration":0.25862050000000636,"midi":47,"time":152.97402575,"velocity":0.30708661417322836},{"duration":0.25862050000000636,"midi":49,"time":153.36195650000002,"velocity":0.30708661417322836},{"duration":0.25862050000000636,"midi":37,"time":153.36195650000002,"velocity":0.30708661417322836},{"duration":0.25862050000000636,"midi":49,"time":153.49126675000002,"velocity":0.30708661417322836},{"duration":0.25862050000000636,"midi":37,"time":153.49126675000002,"velocity":0.30708661417322836},{"duration":0.25862049999997794,"midi":49,"time":153.87919750000003,"velocity":0.30708661417322836},{"duration":0.25862049999997794,"midi":37,"time":153.87919750000003,"velocity":0.30708661417322836},{"duration":0.25862050000000636,"midi":49,"time":154.00850775,"velocity":0.30708661417322836},{"duration":0.25862050000000636,"midi":37,"time":154.00850775,"velocity":0.30708661417322836},{"duration":0.25862050000000636,"midi":37,"time":154.39643850000002,"velocity":0.30708661417322836},{"duration":0.25862050000000636,"midi":49,"time":154.39643850000002,"velocity":0.30708661417322836},{"duration":0.25862050000000636,"midi":49,"time":154.52574875000002,"velocity":0.30708661417322836},{"duration":0.25862050000000636,"midi":37,"time":154.52574875000002,"velocity":0.30708661417322836},{"duration":0.25862049999997794,"midi":37,"time":154.91367950000003,"velocity":0.30708661417322836},{"duration":0.25862049999997794,"midi":49,"time":154.91367950000003,"velocity":0.30708661417322836},{"duration":0.25862049999997794,"midi":49,"time":155.04298975000003,"velocity":0.30708661417322836},{"duration":0.25862049999997794,"midi":37,"time":155.04298975000003,"velocity":0.30708661417322836},{"duration":0.25862050000000636,"midi":49,"time":155.4309205,"velocity":0.30708661417322836},{"duration":0.25862050000000636,"midi":37,"time":155.4309205,"velocity":0.30708661417322836},{"duration":0.25862050000000636,"midi":37,"time":155.56023075000002,"velocity":0.30708661417322836},{"duration":0.25862050000000636,"midi":49,"time":155.56023075000002,"velocity":0.30708661417322836},{"duration":0.25862050000000636,"midi":49,"time":155.94816150000003,"velocity":0.30708661417322836},{"duration":0.25862050000000636,"midi":37,"time":155.94816150000003,"velocity":0.30708661417322836},{"duration":0.25862049999997794,"midi":49,"time":156.07747175000003,"velocity":0.30708661417322836},{"duration":0.25862049999997794,"midi":37,"time":156.07747175000003,"velocity":0.30708661417322836},{"duration":0.25862050000000636,"midi":37,"time":156.4654025,"velocity":0.30708661417322836},{"duration":0.25862050000000636,"midi":49,"time":156.4654025,"velocity":0.30708661417322836},{"duration":0.25862050000000636,"midi":37,"time":156.59471275,"velocity":0.30708661417322836},{"duration":0.25862050000000636,"midi":49,"time":156.59471275,"velocity":0.30708661417322836},{"duration":0.25862050000000636,"midi":37,"time":156.98264350000002,"velocity":0.30708661417322836},{"duration":0.25862050000000636,"midi":49,"time":156.98264350000002,"velocity":0.30708661417322836},{"duration":0.25862050000000636,"midi":49,"time":157.11195375000003,"velocity":0.30708661417322836},{"duration":0.25862050000000636,"midi":37,"time":157.11195375000003,"velocity":0.30708661417322836},{"duration":0.25862050000000636,"midi":33,"time":157.4998845,"velocity":0.30708661417322836},{"duration":0.25862050000000636,"midi":45,"time":157.4998845,"velocity":0.30708661417322836},{"duration":0.25862050000000636,"midi":45,"time":157.62919475,"velocity":0.30708661417322836},{"duration":0.25862050000000636,"midi":33,"time":157.62919475,"velocity":0.30708661417322836},{"duration":0.25862050000000636,"midi":45,"time":158.01712550000002,"velocity":0.30708661417322836},{"duration":0.25862050000000636,"midi":33,"time":158.01712550000002,"velocity":0.30708661417322836},{"duration":0.25862050000000636,"midi":45,"time":158.14643575000002,"velocity":0.30708661417322836},{"duration":0.25862050000000636,"midi":33,"time":158.14643575000002,"velocity":0.30708661417322836},{"duration":0.25862049999997794,"midi":33,"time":158.53436650000003,"velocity":0.30708661417322836},{"duration":0.25862049999997794,"midi":45,"time":158.53436650000003,"velocity":0.30708661417322836},{"duration":0.25862050000000636,"midi":45,"time":158.66367675,"velocity":0.30708661417322836},{"duration":0.25862050000000636,"midi":33,"time":158.66367675,"velocity":0.30708661417322836},{"duration":0.25862050000000636,"midi":45,"time":159.05160750000002,"velocity":0.30708661417322836},{"duration":0.25862050000000636,"midi":33,"time":159.05160750000002,"velocity":0.30708661417322836},{"duration":0.25862050000000636,"midi":33,"time":159.18091775000002,"velocity":0.30708661417322836},{"duration":0.25862050000000636,"midi":45,"time":159.18091775000002,"velocity":0.30708661417322836},{"duration":0.25862049999997794,"midi":47,"time":159.56884850000003,"velocity":0.30708661417322836},{"duration":0.25862049999997794,"midi":35,"time":159.56884850000003,"velocity":0.30708661417322836},{"duration":0.25862049999997794,"midi":47,"time":159.69815875000003,"velocity":0.30708661417322836},{"duration":0.25862049999997794,"midi":35,"time":159.69815875000003,"velocity":0.30708661417322836},{"duration":0.25862050000000636,"midi":35,"time":160.0860895,"velocity":0.30708661417322836},{"duration":0.25862050000000636,"midi":47,"time":160.0860895,"velocity":0.30708661417322836},{"duration":0.25862050000000636,"midi":35,"time":160.21539975000002,"velocity":0.30708661417322836},{"duration":0.25862050000000636,"midi":47,"time":160.21539975000002,"velocity":0.30708661417322836},{"duration":0.25862050000000636,"midi":35,"time":160.60333050000003,"velocity":0.30708661417322836},{"duration":0.25862050000000636,"midi":47,"time":160.60333050000003,"velocity":0.30708661417322836},{"duration":0.25862049999997794,"midi":35,"time":160.73264075000003,"velocity":0.30708661417322836},{"duration":0.25862049999997794,"midi":47,"time":160.73264075000003,"velocity":0.30708661417322836},{"duration":0.25862050000000636,"midi":35,"time":161.1205715,"velocity":0.30708661417322836},{"duration":0.25862050000000636,"midi":47,"time":161.1205715,"velocity":0.30708661417322836},{"duration":0.25862050000000636,"midi":47,"time":161.24988175000001,"velocity":0.30708661417322836},{"duration":0.25862050000000636,"midi":35,"time":161.24988175000001,"velocity":0.30708661417322836},{"duration":0.25862050000000636,"midi":37,"time":161.63781250000002,"velocity":0.30708661417322836},{"duration":0.25862050000000636,"midi":49,"time":161.63781250000002,"velocity":0.30708661417322836},{"duration":0.25862050000000636,"midi":37,"time":161.76712275000003,"velocity":0.30708661417322836},{"duration":0.25862050000000636,"midi":49,"time":161.76712275000003,"velocity":0.30708661417322836},{"duration":0.25862050000000636,"midi":37,"time":162.1550535,"velocity":0.30708661417322836},{"duration":0.25862050000000636,"midi":49,"time":162.1550535,"velocity":0.30708661417322836},{"duration":0.25862050000000636,"midi":37,"time":162.28436375,"velocity":0.30708661417322836},{"duration":0.25862050000000636,"midi":49,"time":162.28436375,"velocity":0.30708661417322836},{"duration":0.25862050000000636,"midi":49,"time":162.67229450000002,"velocity":0.30708661417322836},{"duration":0.25862050000000636,"midi":37,"time":162.67229450000002,"velocity":0.30708661417322836},{"duration":0.25862050000000636,"midi":49,"time":162.80160475000002,"velocity":0.30708661417322836},{"duration":0.25862050000000636,"midi":37,"time":162.80160475000002,"velocity":0.30708661417322836},{"duration":0.25862049999997794,"midi":37,"time":163.18953550000003,"velocity":0.30708661417322836},{"duration":0.25862049999997794,"midi":49,"time":163.18953550000003,"velocity":0.30708661417322836},{"duration":0.25862050000000636,"midi":49,"time":163.31884575,"velocity":0.30708661417322836},{"duration":0.25862050000000636,"midi":37,"time":163.31884575,"velocity":0.30708661417322836}]},{"instrument":{"family":"synth lead","number":80,"name":"lead 1 (square)"},"notes":[{"duration":1.2931025000000034,"midi":73,"time":33.103424000000004,"velocity":0.30708661417322836},{"duration":1.2931025000000034,"midi":73,"time":33.3620445,"velocity":0.30708661417322836},{"duration":0.25862049999999925,"midi":72,"time":34.39652650000001,"velocity":0.30708661417322836},{"duration":0.25862049999999925,"midi":72,"time":34.65514700000001,"velocity":0.30708661417322836},{"duration":0.25862049999999925,"midi":73,"time":34.65514700000001,"velocity":0.30708661417322836},{"duration":1.5517229999999955,"midi":80,"time":34.913767500000006,"velocity":0.30708661417322836},{"duration":0.25862049999999925,"midi":73,"time":34.913767500000006,"velocity":0.30708661417322836},{"duration":1.5517230000000026,"midi":80,"time":35.172388000000005,"velocity":0.30708661417322836},{"duration":0.25862050000000636,"midi":68,"time":36.4654905,"velocity":0.30708661417322836},{"duration":0.25862049999999925,"midi":68,"time":36.72411100000001,"velocity":0.30708661417322836},{"duration":0.25862049999999925,"midi":73,"time":36.72411100000001,"velocity":0.30708661417322836},{"duration":1.5517229999999955,"midi":75,"time":36.98273150000001,"velocity":0.30708661417322836},{"duration":0.25862049999999925,"midi":73,"time":36.98273150000001,"velocity":0.30708661417322836},{"duration":1.5517229999999955,"midi":75,"time":37.241352000000006,"velocity":0.30708661417322836},{"duration":0.25862049999999925,"midi":68,"time":38.5344545,"velocity":0.30708661417322836},{"duration":0.25862050000000636,"midi":73,"time":38.793075,"velocity":0.30708661417322836},{"duration":0.25862050000000636,"midi":68,"time":38.793075,"velocity":0.30708661417322836},{"duration":0.5172409999999985,"midi":77,"time":39.05169550000001,"velocity":0.30708661417322836},{"duration":0.25862049999999925,"midi":73,"time":39.05169550000001,"velocity":0.30708661417322836},{"duration":0.5172409999999985,"midi":77,"time":39.31031600000001,"velocity":0.30708661417322836},{"duration":0.25862049999999925,"midi":66,"time":39.56893650000001,"velocity":0.30708661417322836},{"duration":0.25862049999999925,"midi":78,"time":39.56893650000001,"velocity":0.30708661417322836},{"duration":0.25862049999999925,"midi":65,"time":39.827557000000006,"velocity":0.30708661417322836},{"duration":0.25862049999999925,"midi":66,"time":39.827557000000006,"velocity":0.30708661417322836},{"duration":0.25862049999999925,"midi":78,"time":39.827557000000006,"velocity":0.30708661417322836},{"duration":0.25862049999999925,"midi":77,"time":39.827557000000006,"velocity":0.30708661417322836},{"duration":0.25862049999999925,"midi":75,"time":40.086177500000005,"velocity":0.30708661417322836},{"duration":0.25862049999999925,"midi":77,"time":40.086177500000005,"velocity":0.30708661417322836},{"duration":0.25862049999999925,"midi":63,"time":40.086177500000005,"velocity":0.30708661417322836},{"duration":0.25862049999999925,"midi":65,"time":40.086177500000005,"velocity":0.30708661417322836},{"duration":0.5172409999999985,"midi":61,"time":40.344798000000004,"velocity":0.30708661417322836},{"duration":0.25862049999999925,"midi":63,"time":40.344798000000004,"velocity":0.30708661417322836},{"duration":0.5172409999999985,"midi":73,"time":40.344798000000004,"velocity":0.30708661417322836},{"duration":0.25862049999999925,"midi":75,"time":40.344798000000004,"velocity":0.30708661417322836},{"duration":0.5172409999999985,"midi":61,"time":40.603418500000004,"velocity":0.30708661417322836},{"duration":0.5172409999999985,"midi":73,"time":40.603418500000004,"velocity":0.30708661417322836},{"duration":0.25862049999999925,"midi":60,"time":40.862039,"velocity":0.30708661417322836},{"duration":0.25862049999999925,"midi":72,"time":40.862039,"velocity":0.30708661417322836},{"duration":0.25862050000000636,"midi":72,"time":41.1206595,"velocity":0.30708661417322836},{"duration":1.5517230000000026,"midi":73,"time":41.1206595,"velocity":0.30708661417322836},{"duration":0.25862050000000636,"midi":60,"time":41.1206595,"velocity":0.30708661417322836},{"duration":1.5517230000000026,"midi":61,"time":41.1206595,"velocity":0.30708661417322836},{"duration":1.5517229999999955,"midi":61,"time":41.37928000000001,"velocity":0.30708661417322836},{"duration":1.5517229999999955,"midi":73,"time":41.37928000000001,"velocity":0.30708661417322836},{"duration":0.25862049999999925,"midi":72,"time":42.672382500000005,"velocity":0.30708661417322836},{"duration":0.25862049999999925,"midi":73,"time":42.931003000000004,"velocity":0.30708661417322836},{"duration":0.25862049999999925,"midi":72,"time":42.931003000000004,"velocity":0.30708661417322836},{"duration":1.5517230000000026,"midi":80,"time":43.1896235,"velocity":0.30708661417322836},{"duration":0.25862049999999925,"midi":73,"time":43.1896235,"velocity":0.30708661417322836},{"duration":1.5517230000000026,"midi":80,"time":43.448244,"velocity":0.30708661417322836},{"duration":0.25862049999999925,"midi":61,"time":44.741346500000006,"velocity":0.30708661417322836},{"duration":0.25862049999999925,"midi":73,"time":44.741346500000006,"velocity":0.30708661417322836},{"duration":0.25862049999999925,"midi":75,"time":44.999967000000005,"velocity":0.30708661417322836},{"duration":0.25862049999999925,"midi":63,"time":44.999967000000005,"velocity":0.30708661417322836},{"duration":0.25862049999999925,"midi":61,"time":44.999967000000005,"velocity":0.30708661417322836},{"duration":0.25862049999999925,"midi":73,"time":44.999967000000005,"velocity":0.30708661417322836},{"duration":1.5517230000000026,"midi":84,"time":45.258587500000004,"velocity":0.30708661417322836},{"duration":0.25862049999999925,"midi":63,"time":45.258587500000004,"velocity":0.30708661417322836},{"duration":0.25862049999999925,"midi":75,"time":45.258587500000004,"velocity":0.30708661417322836},{"duration":1.5517230000000026,"midi":72,"time":45.258587500000004,"velocity":0.30708661417322836},{"duration":1.5517230000000026,"midi":84,"time":45.517208000000004,"velocity":0.30708661417322836},{"duration":1.5517230000000026,"midi":72,"time":45.517208000000004,"velocity":0.30708661417322836},{"duration":0.25862049999999925,"midi":80,"time":46.81031050000001,"velocity":0.30708661417322836},{"duration":0.25862049999999925,"midi":68,"time":46.81031050000001,"velocity":0.30708661417322836},{"duration":0.25862049999999925,"midi":70,"time":47.068931000000006,"velocity":0.30708661417322836},{"duration":0.25862049999999925,"midi":82,"time":47.068931000000006,"velocity":0.30708661417322836},{"duration":0.25862049999999925,"midi":80,"time":47.068931000000006,"velocity":0.30708661417322836},{"duration":0.25862049999999925,"midi":68,"time":47.068931000000006,"velocity":0.30708661417322836},{"duration":0.5172409999999985,"midi":85,"time":47.327551500000006,"velocity":0.30708661417322836},{"duration":0.25862049999999925,"midi":70,"time":47.327551500000006,"velocity":0.30708661417322836},{"duration":0.25862049999999925,"midi":82,"time":47.327551500000006,"velocity":0.30708661417322836},{"duration":0.5172409999999985,"midi":73,"time":47.327551500000006,"velocity":0.30708661417322836},{"duration":0.5172409999999985,"midi":85,"time":47.586172000000005,"velocity":0.30708661417322836},{"duration":0.5172409999999985,"midi":73,"time":47.586172000000005,"velocity":0.30708661417322836},{"duration":0.25862049999999925,"midi":84,"time":47.844792500000004,"velocity":0.30708661417322836},{"duration":0.25862049999999925,"midi":72,"time":47.844792500000004,"velocity":0.30708661417322836},{"duration":0.25862049999999925,"midi":84,"time":48.103413,"velocity":0.30708661417322836},{"duration":0.25862049999999925,"midi":68,"time":48.103413,"velocity":0.30708661417322836},{"duration":0.25862049999999925,"midi":72,"time":48.103413,"velocity":0.30708661417322836},{"duration":0.25862049999999925,"midi":80,"time":48.103413,"velocity":0.30708661417322836},{"duration":0.25862050000000636,"midi":66,"time":48.3620335,"velocity":0.30708661417322836},{"duration":0.25862050000000636,"midi":68,"time":48.3620335,"velocity":0.30708661417322836},{"duration":0.25862050000000636,"midi":80,"time":48.3620335,"velocity":0.30708661417322836},{"duration":0.25862050000000636,"midi":78,"time":48.3620335,"velocity":0.30708661417322836},{"duration":0.25862049999999925,"midi":66,"time":48.62065400000001,"velocity":0.30708661417322836},{"duration":0.25862049999999925,"midi":77,"time":48.62065400000001,"velocity":0.30708661417322836},{"duration":0.25862049999999925,"midi":78,"time":48.62065400000001,"velocity":0.30708661417322836},{"duration":0.25862049999999925,"midi":65,"time":48.62065400000001,"velocity":0.30708661417322836},{"duration":0.25862049999999925,"midi":63,"time":48.87927450000001,"velocity":0.30708661417322836},{"duration":0.25862049999999925,"midi":75,"time":48.87927450000001,"velocity":0.30708661417322836},{"duration":0.25862049999999925,"midi":77,"time":48.87927450000001,"velocity":0.30708661417322836},{"duration":0.25862049999999925,"midi":65,"time":48.87927450000001,"velocity":0.30708661417322836},{"duration":0.25862049999999925,"midi":75,"time":49.13789500000001,"velocity":0.30708661417322836},{"duration":0.5172409999999985,"midi":73,"time":49.13789500000001,"velocity":0.30708661417322836},{"duration":0.25862049999999925,"midi":63,"time":49.13789500000001,"velocity":0.30708661417322836},{"duration":0.5172409999999985,"midi":61,"time":49.13789500000001,"velocity":0.30708661417322836},{"duration":0.5172409999999985,"midi":73,"time":49.39651550000001,"velocity":0.30708661417322836},{"duration":0.5172409999999985,"midi":61,"time":49.39651550000001,"velocity":0.30708661417322836},{"duration":1.2931025000000034,"midi":73,"time":49.655136000000006,"velocity":0.30708661417322836},{"duration":1.2931025000000034,"midi":73,"time":49.913756500000005,"velocity":0.30708661417322836},{"duration":0.25862049999999925,"midi":72,"time":50.94823850000001,"velocity":0.30708661417322836},{"duration":0.25862049999999925,"midi":72,"time":51.20685900000001,"velocity":0.30708661417322836},{"duration":0.25862049999999925,"midi":73,"time":51.20685900000001,"velocity":0.30708661417322836},{"duration":1.5517229999999955,"midi":80,"time":51.46547950000001,"velocity":0.30708661417322836},{"duration":0.25862049999999925,"midi":73,"time":51.46547950000001,"velocity":0.30708661417322836},{"duration":1.5517230000000026,"midi":80,"time":51.72410000000001,"velocity":0.30708661417322836},{"duration":0.25862050000000636,"midi":68,"time":53.0172025,"velocity":0.30708661417322836},{"duration":0.25862049999999925,"midi":73,"time":53.27582300000001,"velocity":0.30708661417322836},{"duration":0.25862049999999925,"midi":68,"time":53.27582300000001,"velocity":0.30708661417322836},{"duration":0.25862049999999925,"midi":73,"time":53.53444350000001,"velocity":0.30708661417322836},{"duration":1.5517229999999955,"midi":75,"time":53.53444350000001,"velocity":0.30708661417322836},{"duration":1.5517229999999955,"midi":75,"time":53.79306400000001,"velocity":0.30708661417322836},{"duration":0.25862049999999925,"midi":68,"time":55.086166500000004,"velocity":0.30708661417322836},{"duration":0.25862050000000636,"midi":73,"time":55.344787000000004,"velocity":0.30708661417322836},{"duration":0.25862050000000636,"midi":68,"time":55.344787000000004,"velocity":0.30708661417322836},{"duration":0.5172409999999985,"midi":77,"time":55.60340750000001,"velocity":0.30708661417322836},{"duration":0.25862049999999925,"midi":73,"time":55.60340750000001,"velocity":0.30708661417322836},{"duration":0.5172409999999985,"midi":77,"time":55.86202800000001,"velocity":0.30708661417322836},{"duration":0.25862049999999925,"midi":78,"time":56.12064850000001,"velocity":0.30708661417322836},{"duration":0.25862049999999925,"midi":66,"time":56.12064850000001,"velocity":0.30708661417322836},{"duration":0.25862049999999925,"midi":78,"time":56.37926900000001,"velocity":0.30708661417322836},{"duration":0.25862049999999925,"midi":77,"time":56.37926900000001,"velocity":0.30708661417322836},{"duration":0.25862049999999925,"midi":65,"time":56.37926900000001,"velocity":0.30708661417322836},{"duration":0.25862049999999925,"midi":66,"time":56.37926900000001,"velocity":0.30708661417322836},{"duration":0.25862049999999925,"midi":75,"time":56.63788950000001,"velocity":0.30708661417322836},{"duration":0.25862049999999925,"midi":65,"time":56.63788950000001,"velocity":0.30708661417322836},{"duration":0.25862049999999925,"midi":77,"time":56.63788950000001,"velocity":0.30708661417322836},{"duration":0.25862049999999925,"midi":63,"time":56.63788950000001,"velocity":0.30708661417322836},{"duration":0.5172409999999985,"midi":61,"time":56.896510000000006,"velocity":0.30708661417322836},{"duration":0.25862049999999925,"midi":63,"time":56.896510000000006,"velocity":0.30708661417322836},{"duration":0.25862049999999925,"midi":75,"time":56.896510000000006,"velocity":0.30708661417322836},{"duration":0.5172409999999985,"midi":73,"time":56.896510000000006,"velocity":0.30708661417322836},{"duration":0.5172409999999985,"midi":61,"time":57.155130500000006,"velocity":0.30708661417322836},{"duration":0.5172409999999985,"midi":73,"time":57.155130500000006,"velocity":0.30708661417322836},{"duration":0.25862049999999925,"midi":72,"time":57.413751000000005,"velocity":0.30708661417322836},{"duration":0.25862049999999925,"midi":60,"time":57.413751000000005,"velocity":0.30708661417322836},{"duration":1.5517230000000026,"midi":61,"time":57.672371500000004,"velocity":0.30708661417322836},{"duration":0.25862049999999925,"midi":60,"time":57.672371500000004,"velocity":0.30708661417322836},{"duration":0.25862049999999925,"midi":72,"time":57.672371500000004,"velocity":0.30708661417322836},{"duration":1.5517230000000026,"midi":73,"time":57.672371500000004,"velocity":0.30708661417322836},{"duration":1.5517230000000026,"midi":61,"time":57.930992,"velocity":0.30708661417322836},{"duration":1.5517230000000026,"midi":73,"time":57.930992,"velocity":0.30708661417322836},{"duration":0.25862049999999925,"midi":72,"time":59.22409450000001,"velocity":0.30708661417322836},{"duration":0.25862049999999925,"midi":72,"time":59.482715000000006,"velocity":0.30708661417322836},{"duration":0.25862049999999925,"midi":73,"time":59.482715000000006,"velocity":0.30708661417322836},{"duration":0.25862049999999925,"midi":73,"time":59.741335500000005,"velocity":0.30708661417322836},{"duration":1.5517230000000026,"midi":80,"time":59.741335500000005,"velocity":0.30708661417322836},{"duration":1.5517230000000026,"midi":80,"time":59.999956000000005,"velocity":0.30708661417322836},{"duration":0.25862049999999925,"midi":73,"time":61.29305850000001,"velocity":0.30708661417322836},{"duration":0.25862049999999925,"midi":61,"time":61.29305850000001,"velocity":0.30708661417322836},{"duration":0.25862049999999925,"midi":63,"time":61.55167900000001,"velocity":0.30708661417322836},{"duration":0.25862049999999925,"midi":73,"time":61.55167900000001,"velocity":0.30708661417322836},{"duration":0.25862049999999925,"midi":61,"time":61.55167900000001,"velocity":0.30708661417322836},{"duration":0.25862049999999925,"midi":75,"time":61.55167900000001,"velocity":0.30708661417322836},{"duration":1.5517230000000026,"midi":72,"time":61.810299500000006,"velocity":0.30708661417322836},{"duration":0.25862049999999925,"midi":75,"time":61.810299500000006,"velocity":0.30708661417322836},{"duration":1.5517230000000026,"midi":84,"time":61.810299500000006,"velocity":0.30708661417322836},{"duration":0.25862049999999925,"midi":63,"time":61.810299500000006,"velocity":0.30708661417322836},{"duration":1.5517230000000026,"midi":72,"time":62.068920000000006,"velocity":0.30708661417322836},{"duration":1.5517230000000026,"midi":84,"time":62.068920000000006,"velocity":0.30708661417322836},{"duration":0.25862049999999925,"midi":80,"time":63.36202250000001,"velocity":0.30708661417322836},{"duration":0.25862049999999925,"midi":68,"time":63.36202250000001,"velocity":0.30708661417322836},{"duration":0.25862049999999925,"midi":68,"time":63.62064300000001,"velocity":0.30708661417322836},{"duration":0.25862049999999925,"midi":80,"time":63.62064300000001,"velocity":0.30708661417322836},{"duration":0.25862049999999925,"midi":70,"time":63.62064300000001,"velocity":0.30708661417322836},{"duration":0.25862049999999925,"midi":82,"time":63.62064300000001,"velocity":0.30708661417322836},{"duration":0.25862050000000636,"midi":70,"time":63.87926350000001,"velocity":0.30708661417322836},{"duration":0.25862050000000636,"midi":82,"time":63.87926350000001,"velocity":0.30708661417322836},{"duration":0.5172409999999985,"midi":85,"time":63.87926350000001,"velocity":0.30708661417322836},{"duration":0.5172409999999985,"midi":73,"time":63.87926350000001,"velocity":0.30708661417322836},{"duration":0.5172409999999985,"midi":73,"time":64.13788400000001,"velocity":0.30708661417322836},{"duration":0.5172409999999985,"midi":85,"time":64.13788400000001,"velocity":0.30708661417322836},{"duration":0.25862050000000636,"midi":84,"time":64.3965045,"velocity":0.30708661417322836},{"duration":0.25862050000000636,"midi":72,"time":64.3965045,"velocity":0.30708661417322836},{"duration":0.25862049999999215,"midi":80,"time":64.65512500000001,"velocity":0.30708661417322836},{"duration":0.25862049999999215,"midi":72,"time":64.65512500000001,"velocity":0.30708661417322836},{"duration":0.25862049999999215,"midi":84,"time":64.65512500000001,"velocity":0.30708661417322836},{"duration":0.25862049999999215,"midi":68,"time":64.65512500000001,"velocity":0.30708661417322836},{"duration":0.25862050000000636,"midi":78,"time":64.9137455,"velocity":0.30708661417322836},{"duration":0.25862050000000636,"midi":66,"time":64.9137455,"velocity":0.30708661417322836},{"duration":0.25862050000000636,"midi":68,"time":64.9137455,"velocity":0.30708661417322836},{"duration":0.25862050000000636,"midi":80,"time":64.9137455,"velocity":0.30708661417322836},{"duration":0.25862049999999215,"midi":65,"time":65.17236600000001,"velocity":0.30708661417322836},{"duration":0.25862049999999215,"midi":78,"time":65.17236600000001,"velocity":0.30708661417322836},{"duration":0.25862049999999215,"midi":66,"time":65.17236600000001,"velocity":0.30708661417322836},{"duration":0.25862049999999215,"midi":77,"time":65.17236600000001,"velocity":0.30708661417322836},{"duration":0.25862050000000636,"midi":63,"time":65.4309865,"velocity":0.30708661417322836},{"duration":0.25862050000000636,"midi":65,"time":65.4309865,"velocity":0.30708661417322836},{"duration":0.25862050000000636,"midi":77,"time":65.4309865,"velocity":0.30708661417322836},{"duration":0.25862050000000636,"midi":75,"time":65.4309865,"velocity":0.30708661417322836},{"duration":0.25862049999999215,"midi":63,"time":65.68960700000001,"velocity":0.30708661417322836},{"duration":1.5517229999999955,"midi":61,"time":65.68960700000001,"velocity":0.30708661417322836},{"duration":0.25862049999999215,"midi":75,"time":65.68960700000001,"velocity":0.30708661417322836},{"duration":1.5517229999999955,"midi":73,"time":65.68960700000001,"velocity":0.30708661417322836},{"duration":1.5517230000000097,"midi":73,"time":65.9482275,"velocity":0.30708661417322836},{"duration":1.5517230000000097,"midi":61,"time":65.9482275,"velocity":0.30708661417322836},{"duration":1.5517229999999955,"midi":73,"time":99.31027200000001,"velocity":0.30708661417322836},{"duration":1.5517229999999955,"midi":61,"time":99.31027200000001,"velocity":0.30708661417322836},{"duration":1.5517229999999955,"midi":61,"time":99.56889250000002,"velocity":0.30708661417322836},{"duration":1.5517229999999955,"midi":73,"time":99.56889250000002,"velocity":0.30708661417322836},{"duration":0.7758615000000049,"midi":76,"time":101.12061550000001,"velocity":0.30708661417322836},{"duration":0.7758615000000049,"midi":64,"time":101.12061550000001,"velocity":0.30708661417322836},{"duration":0.7758615000000049,"midi":64,"time":101.379236,"velocity":0.30708661417322836},{"duration":0.7758615000000049,"midi":76,"time":101.379236,"velocity":0.30708661417322836},{"duration":0.25862049999999215,"midi":63,"time":101.89647700000002,"velocity":0.30708661417322836},{"duration":0.25862049999999215,"midi":75,"time":101.89647700000002,"velocity":0.30708661417322836},{"duration":0.25862050000000636,"midi":75,"time":102.15509750000001,"velocity":0.30708661417322836},{"duration":0.25862050000000636,"midi":63,"time":102.15509750000001,"velocity":0.30708661417322836},{"duration":0.25862049999999215,"midi":61,"time":102.41371800000002,"velocity":0.30708661417322836},{"duration":0.25862049999999215,"midi":73,"time":102.41371800000002,"velocity":0.30708661417322836},{"duration":0.25862050000000636,"midi":63,"time":102.67233850000001,"velocity":0.30708661417322836},{"duration":0.25862050000000636,"midi":61,"time":102.67233850000001,"velocity":0.30708661417322836},{"duration":0.25862050000000636,"midi":75,"time":102.67233850000001,"velocity":0.30708661417322836},{"duration":0.25862050000000636,"midi":73,"time":102.67233850000001,"velocity":0.30708661417322836},{"duration":0.25862049999999215,"midi":61,"time":102.93095900000002,"velocity":0.30708661417322836},{"duration":0.25862049999999215,"midi":75,"time":102.93095900000002,"velocity":0.30708661417322836},{"duration":0.25862049999999215,"midi":63,"time":102.93095900000002,"velocity":0.30708661417322836},{"duration":0.25862049999999215,"midi":73,"time":102.93095900000002,"velocity":0.30708661417322836},{"duration":0.25862050000000636,"midi":73,"time":103.18957950000001,"velocity":0.30708661417322836},{"duration":0.25862050000000636,"midi":61,"time":103.18957950000001,"velocity":0.30708661417322836},{"duration":1.8103435000000019,"midi":73,"time":103.18957950000001,"velocity":0.30708661417322836},{"duration":1.8103435000000019,"midi":61,"time":103.18957950000001,"velocity":0.30708661417322836},{"duration":1.8103435000000019,"midi":73,"time":103.44820000000001,"velocity":0.30708661417322836},{"duration":1.8103435000000019,"midi":61,"time":103.44820000000001,"velocity":0.30708661417322836},{"duration":0.7758614999999907,"midi":66,"time":105.25854350000002,"velocity":0.30708661417322836},{"duration":0.7758614999999907,"midi":78,"time":105.25854350000002,"velocity":0.30708661417322836},{"duration":0.7758615000000049,"midi":78,"time":105.51716400000001,"velocity":0.30708661417322836},{"duration":0.7758615000000049,"midi":66,"time":105.51716400000001,"velocity":0.30708661417322836},{"duration":0.25862050000000636,"midi":77,"time":106.034405,"velocity":0.30708661417322836},{"duration":0.25862050000000636,"midi":65,"time":106.034405,"velocity":0.30708661417322836},{"duration":0.25862050000000636,"midi":65,"time":106.29302550000001,"velocity":0.30708661417322836},{"duration":0.25862050000000636,"midi":77,"time":106.29302550000001,"velocity":0.30708661417322836},{"duration":0.25862049999999215,"midi":73,"time":106.55164600000002,"velocity":0.30708661417322836},{"duration":0.25862049999999215,"midi":61,"time":106.55164600000002,"velocity":0.30708661417322836},{"duration":0.25862050000000636,"midi":63,"time":106.81026650000001,"velocity":0.30708661417322836},{"duration":0.25862050000000636,"midi":61,"time":106.81026650000001,"velocity":0.30708661417322836},{"duration":0.25862050000000636,"midi":73,"time":106.81026650000001,"velocity":0.30708661417322836},{"duration":0.25862050000000636,"midi":75,"time":106.81026650000001,"velocity":0.30708661417322836},{"duration":0.25862049999999215,"midi":61,"time":107.06888700000002,"velocity":0.30708661417322836},{"duration":0.25862049999999215,"midi":73,"time":107.06888700000002,"velocity":0.30708661417322836},{"duration":0.25862049999999215,"midi":75,"time":107.06888700000002,"velocity":0.30708661417322836},{"duration":0.25862049999999215,"midi":63,"time":107.06888700000002,"velocity":0.30708661417322836},{"duration":0.25862050000000636,"midi":61,"time":107.32750750000001,"velocity":0.30708661417322836},{"duration":0.25862050000000636,"midi":73,"time":107.32750750000001,"velocity":0.30708661417322836},{"duration":1.5517229999999955,"midi":61,"time":107.58612800000002,"velocity":0.30708661417322836},{"duration":1.5517229999999955,"midi":73,"time":107.58612800000002,"velocity":0.30708661417322836},{"duration":1.5517230000000097,"midi":61,"time":107.84474850000001,"velocity":0.30708661417322836},{"duration":1.5517230000000097,"midi":73,"time":107.84474850000001,"velocity":0.30708661417322836},{"duration":0.7758614999999907,"midi":76,"time":109.39647150000002,"velocity":0.30708661417322836},{"duration":0.7758614999999907,"midi":64,"time":109.39647150000002,"velocity":0.30708661417322836},{"duration":0.7758615000000049,"midi":64,"time":109.65509200000001,"velocity":0.30708661417322836},{"duration":0.7758615000000049,"midi":76,"time":109.65509200000001,"velocity":0.30708661417322836},{"duration":0.25862050000000636,"midi":63,"time":110.17233300000001,"velocity":0.30708661417322836},{"duration":0.25862050000000636,"midi":75,"time":110.17233300000001,"velocity":0.30708661417322836},{"duration":0.25862049999999215,"midi":63,"time":110.43095350000002,"velocity":0.30708661417322836},{"duration":0.25862049999999215,"midi":75,"time":110.43095350000002,"velocity":0.30708661417322836},{"duration":0.25862050000000636,"midi":61,"time":110.68957400000001,"velocity":0.30708661417322836},{"duration":0.25862050000000636,"midi":73,"time":110.68957400000001,"velocity":0.30708661417322836},{"duration":0.25862050000000636,"midi":61,"time":110.94819450000001,"velocity":0.30708661417322836},{"duration":0.25862050000000636,"midi":73,"time":110.94819450000001,"velocity":0.30708661417322836},{"duration":0.25862050000000636,"midi":63,"time":110.94819450000001,"velocity":0.30708661417322836},{"duration":0.25862050000000636,"midi":75,"time":110.94819450000001,"velocity":0.30708661417322836},{"duration":0.25862049999999215,"midi":61,"time":111.20681500000002,"velocity":0.30708661417322836},{"duration":0.25862049999999215,"midi":73,"time":111.20681500000002,"velocity":0.30708661417322836},{"duration":0.25862049999999215,"midi":75,"time":111.20681500000002,"velocity":0.30708661417322836},{"duration":0.25862049999999215,"midi":63,"time":111.20681500000002,"velocity":0.30708661417322836},{"duration":0.25862050000000636,"midi":73,"time":111.46543550000001,"velocity":0.30708661417322836},{"duration":0.25862050000000636,"midi":61,"time":111.46543550000001,"velocity":0.30708661417322836},{"duration":1.8103435000000019,"midi":73,"time":111.46543550000001,"velocity":0.30708661417322836},{"duration":1.8103435000000019,"midi":61,"time":111.46543550000001,"velocity":0.30708661417322836},{"duration":1.8103435000000019,"midi":73,"time":111.72405600000002,"velocity":0.30708661417322836},{"duration":1.8103435000000019,"midi":61,"time":111.72405600000002,"velocity":0.30708661417322836},{"duration":0.7758614999999907,"midi":66,"time":113.53439950000002,"velocity":0.30708661417322836},{"duration":0.7758614999999907,"midi":78,"time":113.53439950000002,"velocity":0.30708661417322836},{"duration":0.7758615000000049,"midi":78,"time":113.79302000000001,"velocity":0.30708661417322836},{"duration":0.7758615000000049,"midi":66,"time":113.79302000000001,"velocity":0.30708661417322836},{"duration":0.25862050000000636,"midi":65,"time":114.31026100000001,"velocity":0.30708661417322836},{"duration":0.25862050000000636,"midi":77,"time":114.31026100000001,"velocity":0.30708661417322836},{"duration":0.25862049999999215,"midi":77,"time":114.56888150000002,"velocity":0.30708661417322836},{"duration":0.25862049999999215,"midi":65,"time":114.56888150000002,"velocity":0.30708661417322836},{"duration":0.25862050000000636,"midi":73,"time":114.82750200000001,"velocity":0.30708661417322836},{"duration":0.25862050000000636,"midi":61,"time":114.82750200000001,"velocity":0.30708661417322836},{"duration":0.25862049999999215,"midi":73,"time":115.08612250000002,"velocity":0.30708661417322836},{"duration":0.25862049999999215,"midi":75,"time":115.08612250000002,"velocity":0.30708661417322836},{"duration":0.25862049999999215,"midi":63,"time":115.08612250000002,"velocity":0.30708661417322836},{"duration":0.25862049999999215,"midi":61,"time":115.08612250000002,"velocity":0.30708661417322836},{"duration":0.25862050000000636,"midi":61,"time":115.34474300000001,"velocity":0.30708661417322836},{"duration":0.25862050000000636,"midi":75,"time":115.34474300000001,"velocity":0.30708661417322836},{"duration":0.25862050000000636,"midi":73,"time":115.34474300000001,"velocity":0.30708661417322836},{"duration":0.25862050000000636,"midi":63,"time":115.34474300000001,"velocity":0.30708661417322836},{"duration":0.25862049999999215,"midi":73,"time":115.60336350000001,"velocity":0.30708661417322836},{"duration":0.25862049999999215,"midi":61,"time":115.60336350000001,"velocity":0.30708661417322836},{"duration":1.5517230000000097,"midi":73,"time":115.861984,"velocity":0.30708661417322836},{"duration":1.5517230000000097,"midi":61,"time":115.861984,"velocity":0.30708661417322836},{"duration":1.5517229999999955,"midi":61,"time":116.12060450000001,"velocity":0.30708661417322836},{"duration":1.5517229999999955,"midi":73,"time":116.12060450000001,"velocity":0.30708661417322836},{"duration":0.7758615000000049,"midi":76,"time":117.67232750000001,"velocity":0.30708661417322836},{"duration":0.7758615000000049,"midi":64,"time":117.67232750000001,"velocity":0.30708661417322836},{"duration":0.7758615000000049,"midi":64,"time":117.93094800000001,"velocity":0.30708661417322836},{"duration":0.7758615000000049,"midi":76,"time":117.93094800000001,"velocity":0.30708661417322836},{"duration":0.25862050000000636,"midi":63,"time":118.44818900000001,"velocity":0.30708661417322836},{"duration":0.25862050000000636,"midi":75,"time":118.44818900000001,"velocity":0.30708661417322836},{"duration":0.25862049999999215,"midi":75,"time":118.70680950000002,"velocity":0.30708661417322836},{"duration":0.25862049999999215,"midi":63,"time":118.70680950000002,"velocity":0.30708661417322836},{"duration":0.25862050000000636,"midi":61,"time":118.96543000000001,"velocity":0.30708661417322836},{"duration":0.25862050000000636,"midi":73,"time":118.96543000000001,"velocity":0.30708661417322836},{"duration":0.25862049999999215,"midi":73,"time":119.22405050000002,"velocity":0.30708661417322836},{"duration":0.25862049999999215,"midi":75,"time":119.22405050000002,"velocity":0.30708661417322836},{"duration":0.25862049999999215,"midi":63,"time":119.22405050000002,"velocity":0.30708661417322836},{"duration":0.25862049999999215,"midi":61,"time":119.22405050000002,"velocity":0.30708661417322836},{"duration":0.25862050000000636,"midi":73,"time":119.48267100000001,"velocity":0.30708661417322836},{"duration":0.25862050000000636,"midi":75,"time":119.48267100000001,"velocity":0.30708661417322836},{"duration":0.25862050000000636,"midi":63,"time":119.48267100000001,"velocity":0.30708661417322836},{"duration":0.25862050000000636,"midi":61,"time":119.48267100000001,"velocity":0.30708661417322836},{"duration":0.25862049999999215,"midi":73,"time":119.74129150000002,"velocity":0.30708661417322836},{"duration":1.8103435000000019,"midi":73,"time":119.74129150000002,"velocity":0.30708661417322836},{"duration":0.25862049999999215,"midi":61,"time":119.74129150000002,"velocity":0.30708661417322836},{"duration":1.8103435000000019,"midi":61,"time":119.74129150000002,"velocity":0.30708661417322836},{"duration":1.8103435000000019,"midi":73,"time":119.99991200000001,"velocity":0.30708661417322836},{"duration":1.8103435000000019,"midi":61,"time":119.99991200000001,"velocity":0.30708661417322836},{"duration":0.7758615000000049,"midi":78,"time":121.81025550000001,"velocity":0.30708661417322836},{"duration":0.7758615000000049,"midi":66,"time":121.81025550000001,"velocity":0.30708661417322836},{"duration":0.7758614999999907,"midi":66,"time":122.06887600000002,"velocity":0.30708661417322836},{"duration":0.7758614999999907,"midi":78,"time":122.06887600000002,"velocity":0.30708661417322836},{"duration":0.25862049999999215,"midi":77,"time":122.58611700000002,"velocity":0.30708661417322836},{"duration":0.25862049999999215,"midi":65,"time":122.58611700000002,"velocity":0.30708661417322836},{"duration":0.25862050000000636,"midi":77,"time":122.84473750000001,"velocity":0.30708661417322836},{"duration":0.25862050000000636,"midi":65,"time":122.84473750000001,"velocity":0.30708661417322836},{"duration":0.25862050000000636,"midi":73,"time":123.10335800000001,"velocity":0.30708661417322836},{"duration":0.25862050000000636,"midi":61,"time":123.10335800000001,"velocity":0.30708661417322836},{"duration":0.25862049999999215,"midi":63,"time":123.36197850000002,"velocity":0.30708661417322836},{"duration":0.25862049999999215,"midi":75,"time":123.36197850000002,"velocity":0.30708661417322836},{"duration":0.25862049999999215,"midi":73,"time":123.36197850000002,"velocity":0.30708661417322836},{"duration":0.25862049999999215,"midi":61,"time":123.36197850000002,"velocity":0.30708661417322836},{"duration":0.25862050000000636,"midi":75,"time":123.62059900000001,"velocity":0.30708661417322836},{"duration":0.25862050000000636,"midi":73,"time":123.62059900000001,"velocity":0.30708661417322836},{"duration":0.25862050000000636,"midi":61,"time":123.62059900000001,"velocity":0.30708661417322836},{"duration":0.25862050000000636,"midi":63,"time":123.62059900000001,"velocity":0.30708661417322836},{"duration":0.25862049999999215,"midi":73,"time":123.87921950000002,"velocity":0.30708661417322836},{"duration":0.25862049999999215,"midi":61,"time":123.87921950000002,"velocity":0.30708661417322836},{"duration":1.5517230000000097,"midi":61,"time":124.13784000000001,"velocity":0.30708661417322836},{"duration":1.5517230000000097,"midi":73,"time":124.13784000000001,"velocity":0.30708661417322836},{"duration":1.5517229999999955,"midi":61,"time":124.39646050000002,"velocity":0.30708661417322836},{"duration":1.5517229999999955,"midi":73,"time":124.39646050000002,"velocity":0.30708661417322836},{"duration":0.7758615000000049,"midi":64,"time":125.94818350000001,"velocity":0.30708661417322836},{"duration":0.7758615000000049,"midi":76,"time":125.94818350000001,"velocity":0.30708661417322836},{"duration":0.7758614999999907,"midi":64,"time":126.20680400000002,"velocity":0.30708661417322836},{"duration":0.7758614999999907,"midi":76,"time":126.20680400000002,"velocity":0.30708661417322836},{"duration":0.25862049999999215,"midi":63,"time":126.72404500000002,"velocity":0.30708661417322836},{"duration":0.25862049999999215,"midi":75,"time":126.72404500000002,"velocity":0.30708661417322836},{"duration":0.25862050000000636,"midi":63,"time":126.98266550000001,"velocity":0.30708661417322836},{"duration":0.25862050000000636,"midi":75,"time":126.98266550000001,"velocity":0.30708661417322836},{"duration":0.25862049999999215,"midi":73,"time":127.24128600000002,"velocity":0.30708661417322836},{"duration":0.25862049999999215,"midi":61,"time":127.24128600000002,"velocity":0.30708661417322836},{"duration":0.25862050000000636,"midi":61,"time":127.49990650000001,"velocity":0.30708661417322836},{"duration":0.25862050000000636,"midi":63,"time":127.49990650000001,"velocity":0.30708661417322836},{"duration":0.25862050000000636,"midi":73,"time":127.49990650000001,"velocity":0.30708661417322836},{"duration":0.25862050000000636,"midi":75,"time":127.49990650000001,"velocity":0.30708661417322836},{"duration":0.25862050000000636,"midi":61,"time":127.75852700000002,"velocity":0.30708661417322836},{"duration":0.25862050000000636,"midi":73,"time":127.75852700000002,"velocity":0.30708661417322836},{"duration":0.25862050000000636,"midi":63,"time":127.75852700000002,"velocity":0.30708661417322836},{"duration":0.25862050000000636,"midi":75,"time":127.75852700000002,"velocity":0.30708661417322836},{"duration":0.25862050000000636,"midi":61,"time":128.01714750000002,"velocity":0.30708661417322836},{"duration":0.25862050000000636,"midi":73,"time":128.01714750000002,"velocity":0.30708661417322836},{"duration":1.8103434999999877,"midi":73,"time":128.01714750000002,"velocity":0.30708661417322836},{"duration":1.8103434999999877,"midi":61,"time":128.01714750000002,"velocity":0.30708661417322836},{"duration":1.8103434999999877,"midi":73,"time":128.27576800000003,"velocity":0.30708661417322836},{"duration":1.8103434999999877,"midi":61,"time":128.27576800000003,"velocity":0.30708661417322836},{"duration":0.7758614999999907,"midi":78,"time":130.08611150000002,"velocity":0.30708661417322836},{"duration":0.7758614999999907,"midi":66,"time":130.08611150000002,"velocity":0.30708661417322836},{"duration":0.7758614999999907,"midi":78,"time":130.34473200000002,"velocity":0.30708661417322836},{"duration":0.7758614999999907,"midi":66,"time":130.34473200000002,"velocity":0.30708661417322836},{"duration":0.25862050000000636,"midi":65,"time":130.861973,"velocity":0.30708661417322836},{"duration":0.25862050000000636,"midi":77,"time":130.861973,"velocity":0.30708661417322836},{"duration":0.25862050000000636,"midi":65,"time":131.1205935,"velocity":0.30708661417322836},{"duration":0.25862050000000636,"midi":77,"time":131.1205935,"velocity":0.30708661417322836},{"duration":0.25862050000000636,"midi":61,"time":131.37921400000002,"velocity":0.30708661417322836},{"duration":0.25862050000000636,"midi":73,"time":131.37921400000002,"velocity":0.30708661417322836},{"duration":0.25862049999997794,"midi":73,"time":131.63783450000003,"velocity":0.30708661417322836},{"duration":0.25862049999997794,"midi":61,"time":131.63783450000003,"velocity":0.30708661417322836},{"duration":0.25862049999997794,"midi":75,"time":131.63783450000003,"velocity":0.30708661417322836},{"duration":0.25862049999997794,"midi":63,"time":131.63783450000003,"velocity":0.30708661417322836},{"duration":0.25862050000000636,"midi":75,"time":131.896455,"velocity":0.30708661417322836},{"duration":0.25862050000000636,"midi":63,"time":131.896455,"velocity":0.30708661417322836},{"duration":0.25862050000000636,"midi":61,"time":131.896455,"velocity":0.30708661417322836},{"duration":0.25862050000000636,"midi":73,"time":131.896455,"velocity":0.30708661417322836},{"duration":0.25862050000000636,"midi":61,"time":132.1550755,"velocity":0.30708661417322836},{"duration":0.25862050000000636,"midi":73,"time":132.1550755,"velocity":0.30708661417322836},{"duration":2.068963999999994,"midi":73,"time":132.41369600000002,"velocity":0.23622047244094488},{"duration":2.068963999999994,"midi":69,"time":132.41369600000002,"velocity":0.1968503937007874},{"duration":2.068963999999994,"midi":75,"time":134.48266,"velocity":0.23622047244094488},{"duration":2.068963999999994,"midi":71,"time":134.48266,"velocity":0.1968503937007874},{"duration":2.0689640000000225,"midi":73,"time":136.551624,"velocity":0.1968503937007874},{"duration":2.0689640000000225,"midi":75,"time":136.551624,"velocity":0.2440944881889764},{"duration":1.034481999999997,"midi":75,"time":138.62058800000003,"velocity":0.1968503937007874},{"duration":2.068963999999994,"midi":77,"time":138.62058800000003,"velocity":0.2440944881889764},{"duration":1.034481999999997,"midi":73,"time":139.65507000000002,"velocity":0.1968503937007874},{"duration":2.068963999999994,"midi":73,"time":140.68955200000002,"velocity":0.23622047244094488},{"duration":2.068963999999994,"midi":69,"time":140.68955200000002,"velocity":0.1968503937007874},{"duration":2.068963999999994,"midi":75,"time":142.75851600000001,"velocity":0.23622047244094488},{"duration":2.068963999999994,"midi":71,"time":142.75851600000001,"velocity":0.1968503937007874},{"duration":2.0689640000000225,"midi":73,"time":144.82748,"velocity":0.1968503937007874},{"duration":2.0689640000000225,"midi":75,"time":144.82748,"velocity":0.2440944881889764},{"duration":2.068963999999994,"midi":77,"time":146.89644400000003,"velocity":0.2440944881889764},{"duration":1.034481999999997,"midi":75,"time":146.89644400000003,"velocity":0.1968503937007874},{"duration":1.034481999999997,"midi":73,"time":147.93092600000003,"velocity":0.1968503937007874},{"duration":2.068963999999994,"midi":69,"time":148.96540800000002,"velocity":0.1968503937007874},{"duration":2.068963999999994,"midi":73,"time":148.96540800000002,"velocity":0.23622047244094488},{"duration":2.068963999999994,"midi":71,"time":151.03437200000002,"velocity":0.1968503937007874},{"duration":2.068963999999994,"midi":75,"time":151.03437200000002,"velocity":0.23622047244094488},{"duration":2.068963999999994,"midi":75,"time":153.103336,"velocity":0.2440944881889764},{"duration":2.068963999999994,"midi":73,"time":153.103336,"velocity":0.1968503937007874},{"duration":1.0344820000000254,"midi":75,"time":155.1723,"velocity":0.1968503937007874},{"duration":2.0689640000000225,"midi":77,"time":155.1723,"velocity":0.2440944881889764},{"duration":1.034481999999997,"midi":73,"time":156.20678200000003,"velocity":0.1968503937007874},{"duration":2.068963999999994,"midi":73,"time":157.24126400000003,"velocity":0.23622047244094488},{"duration":2.068963999999994,"midi":69,"time":157.24126400000003,"velocity":0.1968503937007874},{"duration":2.068963999999994,"midi":75,"time":159.31022800000002,"velocity":0.23622047244094488},{"duration":2.068963999999994,"midi":71,"time":159.31022800000002,"velocity":0.1968503937007874},{"duration":2.068963999999994,"midi":73,"time":161.37919200000002,"velocity":0.1968503937007874},{"duration":2.068963999999994,"midi":75,"time":161.37919200000002,"velocity":0.2440944881889764}]},{"instrument":{"family":"bass","number":32,"name":"acoustic bass"},"notes":[{"duration":0.25862049999999925,"midi":42,"time":16.8103325,"velocity":0.30708661417322836},{"duration":0.25862049999999925,"midi":30,"time":16.8103325,"velocity":0.30708661417322836},{"duration":0.2586205000000028,"midi":30,"time":16.93964275,"velocity":0.30708661417322836},{"duration":0.2586205000000028,"midi":42,"time":16.93964275,"velocity":0.30708661417322836},{"duration":0.25862049999999925,"midi":30,"time":17.327573500000003,"velocity":0.30708661417322836},{"duration":0.25862049999999925,"midi":42,"time":17.327573500000003,"velocity":0.30708661417322836},{"duration":0.25862049999999925,"midi":42,"time":17.456883750000003,"velocity":0.30708661417322836},{"duration":0.25862049999999925,"midi":30,"time":17.456883750000003,"velocity":0.30708661417322836},{"duration":0.25862049999999925,"midi":42,"time":17.844814500000002,"velocity":0.30708661417322836},{"duration":0.25862049999999925,"midi":30,"time":17.844814500000002,"velocity":0.30708661417322836},{"duration":0.25862049999999925,"midi":42,"time":17.97412475,"velocity":0.30708661417322836},{"duration":0.25862049999999925,"midi":30,"time":17.97412475,"velocity":0.30708661417322836},{"duration":0.25862049999999925,"midi":30,"time":18.362055500000004,"velocity":0.30708661417322836},{"duration":0.25862049999999925,"midi":42,"time":18.362055500000004,"velocity":0.30708661417322836},{"duration":0.25862049999999925,"midi":30,"time":18.491365750000003,"velocity":0.30708661417322836},{"duration":0.25862049999999925,"midi":42,"time":18.491365750000003,"velocity":0.30708661417322836},{"duration":0.25862049999999925,"midi":30,"time":18.879296500000002,"velocity":0.30708661417322836},{"duration":0.25862049999999925,"midi":42,"time":18.879296500000002,"velocity":0.30708661417322836},{"duration":0.25862049999999925,"midi":42,"time":19.008606750000002,"velocity":0.30708661417322836},{"duration":0.25862049999999925,"midi":30,"time":19.008606750000002,"velocity":0.30708661417322836},{"duration":0.2586205000000028,"midi":30,"time":19.3965375,"velocity":0.30708661417322836},{"duration":0.2586205000000028,"midi":42,"time":19.3965375,"velocity":0.30708661417322836},{"duration":0.25862049999999925,"midi":42,"time":19.525847750000004,"velocity":0.30708661417322836},{"duration":0.25862049999999925,"midi":30,"time":19.525847750000004,"velocity":0.30708661417322836},{"duration":0.25862049999999925,"midi":30,"time":19.913778500000003,"velocity":0.30708661417322836},{"duration":0.25862049999999925,"midi":42,"time":19.913778500000003,"velocity":0.30708661417322836},{"duration":0.25862049999999925,"midi":30,"time":20.043088750000003,"velocity":0.30708661417322836},{"duration":0.25862049999999925,"midi":42,"time":20.043088750000003,"velocity":0.30708661417322836},{"duration":0.2586205000000028,"midi":42,"time":20.4310195,"velocity":0.30708661417322836},{"duration":0.2586205000000028,"midi":30,"time":20.4310195,"velocity":0.30708661417322836},{"duration":0.2586205000000028,"midi":30,"time":20.56032975,"velocity":0.30708661417322836},{"duration":0.2586205000000028,"midi":42,"time":20.56032975,"velocity":0.30708661417322836},{"duration":0.25862049999999925,"midi":34,"time":20.948260500000004,"velocity":0.30708661417322836},{"duration":0.25862049999999925,"midi":46,"time":20.948260500000004,"velocity":0.30708661417322836},{"duration":0.25862049999999925,"midi":46,"time":21.077570750000003,"velocity":0.30708661417322836},{"duration":0.25862049999999925,"midi":34,"time":21.077570750000003,"velocity":0.30708661417322836},{"duration":0.25862049999999925,"midi":46,"time":21.465501500000002,"velocity":0.30708661417322836},{"duration":0.25862049999999925,"midi":34,"time":21.465501500000002,"velocity":0.30708661417322836},{"duration":0.25862049999999925,"midi":46,"time":21.59481175,"velocity":0.30708661417322836},{"duration":0.25862049999999925,"midi":34,"time":21.59481175,"velocity":0.30708661417322836},{"duration":0.25862049999999925,"midi":34,"time":21.982742500000004,"velocity":0.30708661417322836},{"duration":0.25862049999999925,"midi":46,"time":21.982742500000004,"velocity":0.30708661417322836},{"duration":0.25862049999999925,"midi":34,"time":22.112052750000004,"velocity":0.30708661417322836},{"duration":0.25862049999999925,"midi":46,"time":22.112052750000004,"velocity":0.30708661417322836},{"duration":0.25862049999999925,"midi":46,"time":22.499983500000003,"velocity":0.30708661417322836},{"duration":0.25862049999999925,"midi":34,"time":22.499983500000003,"velocity":0.30708661417322836},{"duration":0.25862049999999925,"midi":46,"time":22.629293750000002,"velocity":0.30708661417322836},{"duration":0.25862049999999925,"midi":34,"time":22.629293750000002,"velocity":0.30708661417322836},{"duration":0.2586205000000028,"midi":37,"time":23.0172245,"velocity":0.30708661417322836},{"duration":0.2586205000000028,"midi":49,"time":23.0172245,"velocity":0.30708661417322836},{"duration":0.25862049999999925,"midi":37,"time":23.146534750000004,"velocity":0.30708661417322836},{"duration":0.25862049999999925,"midi":49,"time":23.146534750000004,"velocity":0.30708661417322836},{"duration":0.25862049999999925,"midi":37,"time":23.534465500000003,"velocity":0.30708661417322836},{"duration":0.25862049999999925,"midi":49,"time":23.534465500000003,"velocity":0.30708661417322836},{"duration":0.25862049999999925,"midi":37,"time":23.663775750000003,"velocity":0.30708661417322836},{"duration":0.25862049999999925,"midi":49,"time":23.663775750000003,"velocity":0.30708661417322836},{"duration":0.2586205000000028,"midi":49,"time":24.0517065,"velocity":0.30708661417322836},{"duration":0.2586205000000028,"midi":37,"time":24.0517065,"velocity":0.30708661417322836},{"duration":0.2586205000000028,"midi":37,"time":24.18101675,"velocity":0.30708661417322836},{"duration":0.2586205000000028,"midi":49,"time":24.18101675,"velocity":0.30708661417322836},{"duration":0.25862049999999925,"midi":44,"time":24.568947500000004,"velocity":0.30708661417322836},{"duration":0.25862049999999925,"midi":32,"time":24.568947500000004,"velocity":0.30708661417322836},{"duration":0.25862049999999925,"midi":44,"time":24.698257750000003,"velocity":0.30708661417322836},{"duration":0.25862049999999925,"midi":32,"time":24.698257750000003,"velocity":0.30708661417322836},{"duration":0.25862049999999925,"midi":30,"time":25.086188500000002,"velocity":0.30708661417322836},{"duration":0.25862049999999925,"midi":42,"time":25.086188500000002,"velocity":0.30708661417322836},{"duration":0.2586205000000028,"midi":42,"time":25.215498750000002,"velocity":0.30708661417322836},{"duration":0.2586205000000028,"midi":30,"time":25.215498750000002,"velocity":0.30708661417322836},{"duration":0.25862049999999925,"midi":42,"time":25.603429500000004,"velocity":0.30708661417322836},{"duration":0.25862049999999925,"midi":30,"time":25.603429500000004,"velocity":0.30708661417322836},{"duration":0.25862049999999925,"midi":30,"time":25.732739750000004,"velocity":0.30708661417322836},{"duration":0.25862049999999925,"midi":42,"time":25.732739750000004,"velocity":0.30708661417322836},{"duration":0.25862049999999925,"midi":30,"time":26.120670500000003,"velocity":0.30708661417322836},{"duration":0.25862049999999925,"midi":42,"time":26.120670500000003,"velocity":0.30708661417322836},{"duration":0.25862049999999925,"midi":42,"time":26.249980750000002,"velocity":0.30708661417322836},{"duration":0.25862049999999925,"midi":30,"time":26.249980750000002,"velocity":0.30708661417322836},{"duration":0.25862049999999925,"midi":42,"time":26.637911500000005,"velocity":0.30708661417322836},{"duration":0.25862049999999925,"midi":30,"time":26.637911500000005,"velocity":0.30708661417322836},{"duration":0.25862049999999925,"midi":42,"time":26.767221750000004,"velocity":0.30708661417322836},{"duration":0.25862049999999925,"midi":30,"time":26.767221750000004,"velocity":0.30708661417322836},{"duration":0.25862049999999925,"midi":42,"time":27.155152500000003,"velocity":0.30708661417322836},{"duration":0.25862049999999925,"midi":30,"time":27.155152500000003,"velocity":0.30708661417322836},{"duration":0.25862049999999925,"midi":30,"time":27.284462750000003,"velocity":0.30708661417322836},{"duration":0.25862049999999925,"midi":42,"time":27.284462750000003,"velocity":0.30708661417322836},{"duration":0.2586205000000028,"midi":42,"time":27.672393500000002,"velocity":0.30708661417322836},{"duration":0.2586205000000028,"midi":30,"time":27.672393500000002,"velocity":0.30708661417322836},{"duration":0.25862049999999925,"midi":42,"time":27.801703750000005,"velocity":0.30708661417322836},{"duration":0.25862049999999925,"midi":30,"time":27.801703750000005,"velocity":0.30708661417322836},{"duration":0.25862049999999925,"midi":30,"time":28.189634500000004,"velocity":0.30708661417322836},{"duration":0.25862049999999925,"midi":42,"time":28.189634500000004,"velocity":0.30708661417322836},{"duration":0.25862049999999925,"midi":30,"time":28.318944750000004,"velocity":0.30708661417322836},{"duration":0.25862049999999925,"midi":42,"time":28.318944750000004,"velocity":0.30708661417322836},{"duration":0.25862049999999925,"midi":42,"time":28.706875500000002,"velocity":0.30708661417322836},{"duration":0.25862049999999925,"midi":30,"time":28.706875500000002,"velocity":0.30708661417322836},{"duration":0.2586205000000028,"midi":42,"time":28.836185750000002,"velocity":0.30708661417322836},{"duration":0.2586205000000028,"midi":30,"time":28.836185750000002,"velocity":0.30708661417322836},{"duration":0.25862049999999925,"midi":34,"time":29.224116500000004,"velocity":0.30708661417322836},{"duration":0.25862049999999925,"midi":46,"time":29.224116500000004,"velocity":0.30708661417322836},{"duration":0.25862049999999925,"midi":46,"time":29.353426750000004,"velocity":0.30708661417322836},{"duration":0.25862049999999925,"midi":34,"time":29.353426750000004,"velocity":0.30708661417322836},{"duration":0.25862049999999925,"midi":46,"time":29.741357500000003,"velocity":0.30708661417322836},{"duration":0.25862049999999925,"midi":34,"time":29.741357500000003,"velocity":0.30708661417322836},{"duration":0.25862049999999925,"midi":46,"time":29.870667750000003,"velocity":0.30708661417322836},{"duration":0.25862049999999925,"midi":34,"time":29.870667750000003,"velocity":0.30708661417322836},{"duration":0.25862049999999925,"midi":46,"time":30.258598500000005,"velocity":0.30708661417322836},{"duration":0.25862049999999925,"midi":34,"time":30.258598500000005,"velocity":0.30708661417322836},{"duration":0.25862049999999925,"midi":34,"time":30.387908750000005,"velocity":0.30708661417322836},{"duration":0.25862049999999925,"midi":46,"time":30.387908750000005,"velocity":0.30708661417322836},{"duration":0.25862049999999925,"midi":34,"time":30.775839500000004,"velocity":0.30708661417322836},{"duration":0.25862049999999925,"midi":46,"time":30.775839500000004,"velocity":0.30708661417322836},{"duration":0.25862049999999925,"midi":34,"time":30.905149750000003,"velocity":0.30708661417322836},{"duration":0.25862049999999925,"midi":46,"time":30.905149750000003,"velocity":0.30708661417322836},{"duration":0.2586205000000028,"midi":49,"time":31.293080500000002,"velocity":0.30708661417322836},{"duration":0.2586205000000028,"midi":37,"time":31.293080500000002,"velocity":0.30708661417322836},{"duration":0.25862049999999925,"midi":37,"time":31.422390750000005,"velocity":0.30708661417322836},{"duration":0.25862049999999925,"midi":49,"time":31.422390750000005,"velocity":0.30708661417322836},{"duration":0.2586205000000028,"midi":49,"time":31.810321500000004,"velocity":0.30708661417322836},{"duration":0.2586205000000028,"midi":37,"time":31.810321500000004,"velocity":0.30708661417322836},{"duration":0.25862049999999925,"midi":37,"time":31.939631750000004,"velocity":0.30708661417322836},{"duration":0.25862049999999925,"midi":49,"time":31.939631750000004,"velocity":0.30708661417322836},{"duration":0.25862049999999925,"midi":37,"time":32.327562500000006,"velocity":0.30708661417322836},{"duration":0.25862049999999925,"midi":49,"time":32.327562500000006,"velocity":0.30708661417322836},{"duration":0.25862049999999925,"midi":49,"time":32.45687275,"velocity":0.30708661417322836},{"duration":0.25862049999999925,"midi":37,"time":32.45687275,"velocity":0.30708661417322836},{"duration":0.25862049999999925,"midi":49,"time":32.844803500000005,"velocity":0.30708661417322836},{"duration":0.25862049999999925,"midi":37,"time":32.844803500000005,"velocity":0.30708661417322836},{"duration":0.25862050000000636,"midi":49,"time":32.97411375,"velocity":0.30708661417322836},{"duration":0.25862050000000636,"midi":37,"time":32.97411375,"velocity":0.30708661417322836},{"duration":0.25862049999999925,"midi":30,"time":33.3620445,"velocity":0.30708661417322836},{"duration":0.25862049999999925,"midi":42,"time":33.3620445,"velocity":0.30708661417322836},{"duration":0.25862049999999925,"midi":42,"time":33.491354750000006,"velocity":0.30708661417322836},{"duration":0.25862049999999925,"midi":30,"time":33.491354750000006,"velocity":0.30708661417322836},{"duration":0.25862049999999925,"midi":42,"time":33.8792855,"velocity":0.30708661417322836},{"duration":0.25862049999999925,"midi":30,"time":33.8792855,"velocity":0.30708661417322836},{"duration":0.25862049999999925,"midi":42,"time":34.008595750000005,"velocity":0.30708661417322836},{"duration":0.25862049999999925,"midi":30,"time":34.008595750000005,"velocity":0.30708661417322836},{"duration":0.25862049999999925,"midi":42,"time":34.39652650000001,"velocity":0.30708661417322836},{"duration":0.25862049999999925,"midi":30,"time":34.39652650000001,"velocity":0.30708661417322836},{"duration":0.25862049999999925,"midi":30,"time":34.52583675,"velocity":0.30708661417322836},{"duration":0.25862049999999925,"midi":42,"time":34.52583675,"velocity":0.30708661417322836},{"duration":0.25862049999999925,"midi":30,"time":34.913767500000006,"velocity":0.30708661417322836},{"duration":0.25862049999999925,"midi":42,"time":34.913767500000006,"velocity":0.30708661417322836},{"duration":0.25862049999999925,"midi":30,"time":35.04307775,"velocity":0.30708661417322836},{"duration":0.25862049999999925,"midi":42,"time":35.04307775,"velocity":0.30708661417322836},{"duration":0.25862049999999925,"midi":42,"time":35.431008500000004,"velocity":0.30708661417322836},{"duration":0.25862049999999925,"midi":30,"time":35.431008500000004,"velocity":0.30708661417322836},{"duration":0.25862049999999925,"midi":30,"time":35.56031875000001,"velocity":0.30708661417322836},{"duration":0.25862049999999925,"midi":42,"time":35.56031875000001,"velocity":0.30708661417322836},{"duration":0.25862049999999925,"midi":42,"time":35.9482495,"velocity":0.30708661417322836},{"duration":0.25862049999999925,"midi":30,"time":35.9482495,"velocity":0.30708661417322836},{"duration":0.25862049999999925,"midi":42,"time":36.077559750000006,"velocity":0.30708661417322836},{"duration":0.25862049999999925,"midi":30,"time":36.077559750000006,"velocity":0.30708661417322836},{"duration":0.25862050000000636,"midi":42,"time":36.4654905,"velocity":0.30708661417322836},{"duration":0.25862050000000636,"midi":30,"time":36.4654905,"velocity":0.30708661417322836},{"duration":0.25862049999999925,"midi":42,"time":36.594800750000005,"velocity":0.30708661417322836},{"duration":0.25862049999999925,"midi":30,"time":36.594800750000005,"velocity":0.30708661417322836},{"duration":0.25862049999999925,"midi":30,"time":36.98273150000001,"velocity":0.30708661417322836},{"duration":0.25862049999999925,"midi":42,"time":36.98273150000001,"velocity":0.30708661417322836},{"duration":0.25862049999999925,"midi":42,"time":37.11204175,"velocity":0.30708661417322836},{"duration":0.25862049999999925,"midi":30,"time":37.11204175,"velocity":0.30708661417322836},{"duration":0.25862049999999925,"midi":46,"time":37.499972500000005,"velocity":0.30708661417322836},{"duration":0.25862049999999925,"midi":34,"time":37.499972500000005,"velocity":0.30708661417322836},{"duration":0.25862050000000636,"midi":34,"time":37.62928275,"velocity":0.30708661417322836},{"duration":0.25862050000000636,"midi":46,"time":37.62928275,"velocity":0.30708661417322836},{"duration":0.25862049999999925,"midi":46,"time":38.017213500000004,"velocity":0.30708661417322836},{"duration":0.25862049999999925,"midi":34,"time":38.017213500000004,"velocity":0.30708661417322836},{"duration":0.25862049999999925,"midi":46,"time":38.14652375000001,"velocity":0.30708661417322836},{"duration":0.25862049999999925,"midi":34,"time":38.14652375000001,"velocity":0.30708661417322836},{"duration":0.25862049999999925,"midi":46,"time":38.5344545,"velocity":0.30708661417322836},{"duration":0.25862049999999925,"midi":34,"time":38.5344545,"velocity":0.30708661417322836},{"duration":0.25862049999999925,"midi":46,"time":38.663764750000006,"velocity":0.30708661417322836},{"duration":0.25862049999999925,"midi":34,"time":38.663764750000006,"velocity":0.30708661417322836},{"duration":0.25862049999999925,"midi":46,"time":39.05169550000001,"velocity":0.30708661417322836},{"duration":0.25862049999999925,"midi":34,"time":39.05169550000001,"velocity":0.30708661417322836},{"duration":0.25862049999999925,"midi":46,"time":39.181005750000004,"velocity":0.30708661417322836},{"duration":0.25862049999999925,"midi":34,"time":39.181005750000004,"velocity":0.30708661417322836},{"duration":0.25862049999999925,"midi":37,"time":39.56893650000001,"velocity":0.30708661417322836},{"duration":0.25862049999999925,"midi":49,"time":39.56893650000001,"velocity":0.30708661417322836},{"duration":0.25862049999999925,"midi":37,"time":39.69824675,"velocity":0.30708661417322836},{"duration":0.25862049999999925,"midi":49,"time":39.69824675,"velocity":0.30708661417322836},{"duration":0.25862049999999925,"midi":49,"time":40.086177500000005,"velocity":0.30708661417322836},{"duration":0.25862049999999925,"midi":37,"time":40.086177500000005,"velocity":0.30708661417322836},{"duration":0.25862049999999925,"midi":49,"time":40.21548775000001,"velocity":0.30708661417322836},{"duration":0.25862049999999925,"midi":37,"time":40.21548775000001,"velocity":0.30708661417322836},{"duration":0.25862049999999925,"midi":37,"time":40.603418500000004,"velocity":0.30708661417322836},{"duration":0.25862049999999925,"midi":49,"time":40.603418500000004,"velocity":0.30708661417322836},{"duration":0.25862049999999925,"midi":49,"time":40.73272875000001,"velocity":0.30708661417322836},{"duration":0.25862049999999925,"midi":37,"time":40.73272875000001,"velocity":0.30708661417322836},{"duration":0.25862050000000636,"midi":32,"time":41.1206595,"velocity":0.30708661417322836},{"duration":0.25862050000000636,"midi":44,"time":41.1206595,"velocity":0.30708661417322836},{"duration":0.25862049999999925,"midi":32,"time":41.249969750000005,"velocity":0.30708661417322836},{"duration":0.25862049999999925,"midi":44,"time":41.249969750000005,"velocity":0.30708661417322836},{"duration":0.25862049999999925,"midi":30,"time":41.63790050000001,"velocity":0.30708661417322836},{"duration":0.25862049999999925,"midi":42,"time":41.63790050000001,"velocity":0.30708661417322836},{"duration":0.25862049999999925,"midi":42,"time":41.767210750000004,"velocity":0.30708661417322836},{"duration":0.25862049999999925,"midi":30,"time":41.767210750000004,"velocity":0.30708661417322836},{"duration":0.25862049999999925,"midi":42,"time":42.155141500000006,"velocity":0.30708661417322836},{"duration":0.25862049999999925,"midi":30,"time":42.155141500000006,"velocity":0.30708661417322836},{"duration":0.25862049999999925,"midi":30,"time":42.28445175,"velocity":0.30708661417322836},{"duration":0.25862049999999925,"midi":42,"time":42.28445175,"velocity":0.30708661417322836},{"duration":0.25862049999999925,"midi":30,"time":42.672382500000005,"velocity":0.30708661417322836},{"duration":0.25862049999999925,"midi":42,"time":42.672382500000005,"velocity":0.30708661417322836},{"duration":0.25862049999999925,"midi":42,"time":42.80169275000001,"velocity":0.30708661417322836},{"duration":0.25862049999999925,"midi":30,"time":42.80169275000001,"velocity":0.30708661417322836},{"duration":0.25862049999999925,"midi":30,"time":43.1896235,"velocity":0.30708661417322836},{"duration":0.25862049999999925,"midi":42,"time":43.1896235,"velocity":0.30708661417322836},{"duration":0.25862049999999925,"midi":42,"time":43.31893375000001,"velocity":0.30708661417322836},{"duration":0.25862049999999925,"midi":30,"time":43.31893375000001,"velocity":0.30708661417322836},{"duration":0.25862050000000636,"midi":42,"time":43.7068645,"velocity":0.30708661417322836},{"duration":0.25862050000000636,"midi":30,"time":43.7068645,"velocity":0.30708661417322836},{"duration":0.25862049999999925,"midi":42,"time":43.836174750000005,"velocity":0.30708661417322836},{"duration":0.25862049999999925,"midi":30,"time":43.836174750000005,"velocity":0.30708661417322836},{"duration":0.25862049999999925,"midi":42,"time":44.22410550000001,"velocity":0.30708661417322836},{"duration":0.25862049999999925,"midi":30,"time":44.22410550000001,"velocity":0.30708661417322836},{"duration":0.25862049999999925,"midi":42,"time":44.35341575,"velocity":0.30708661417322836},{"duration":0.25862049999999925,"midi":30,"time":44.35341575,"velocity":0.30708661417322836},{"duration":0.25862049999999925,"midi":30,"time":44.741346500000006,"velocity":0.30708661417322836},{"duration":0.25862049999999925,"midi":42,"time":44.741346500000006,"velocity":0.30708661417322836},{"duration":0.25862050000000636,"midi":30,"time":44.87065675,"velocity":0.30708661417322836},{"duration":0.25862050000000636,"midi":42,"time":44.87065675,"velocity":0.30708661417322836},{"duration":0.25862049999999925,"midi":42,"time":45.258587500000004,"velocity":0.30708661417322836},{"duration":0.25862049999999925,"midi":30,"time":45.258587500000004,"velocity":0.30708661417322836},{"duration":0.25862049999999925,"midi":30,"time":45.38789775000001,"velocity":0.30708661417322836},{"duration":0.25862049999999925,"midi":42,"time":45.38789775000001,"velocity":0.30708661417322836},{"duration":0.25862049999999925,"midi":34,"time":45.7758285,"velocity":0.30708661417322836},{"duration":0.25862049999999925,"midi":46,"time":45.7758285,"velocity":0.30708661417322836},{"duration":0.25862049999999925,"midi":34,"time":45.905138750000006,"velocity":0.30708661417322836},{"duration":0.25862049999999925,"midi":46,"time":45.905138750000006,"velocity":0.30708661417322836},{"duration":0.25862049999999925,"midi":46,"time":46.29306950000001,"velocity":0.30708661417322836},{"duration":0.25862049999999925,"midi":34,"time":46.29306950000001,"velocity":0.30708661417322836},{"duration":0.25862049999999925,"midi":34,"time":46.422379750000005,"velocity":0.30708661417322836},{"duration":0.25862049999999925,"midi":46,"time":46.422379750000005,"velocity":0.30708661417322836},{"duration":0.25862049999999925,"midi":46,"time":46.81031050000001,"velocity":0.30708661417322836},{"duration":0.25862049999999925,"midi":34,"time":46.81031050000001,"velocity":0.30708661417322836},{"duration":0.25862049999999925,"midi":34,"time":46.93962075,"velocity":0.30708661417322836},{"duration":0.25862049999999925,"midi":46,"time":46.93962075,"velocity":0.30708661417322836},{"duration":0.25862049999999925,"midi":46,"time":47.327551500000006,"velocity":0.30708661417322836},{"duration":0.25862049999999925,"midi":34,"time":47.327551500000006,"velocity":0.30708661417322836},{"duration":0.25862049999999925,"midi":34,"time":47.45686175000001,"velocity":0.30708661417322836},{"duration":0.25862049999999925,"midi":46,"time":47.45686175000001,"velocity":0.30708661417322836},{"duration":0.25862049999999925,"midi":49,"time":47.844792500000004,"velocity":0.30708661417322836},{"duration":0.25862049999999925,"midi":37,"time":47.844792500000004,"velocity":0.30708661417322836},{"duration":0.25862049999999925,"midi":37,"time":47.97410275000001,"velocity":0.30708661417322836},{"duration":0.25862049999999925,"midi":49,"time":47.97410275000001,"velocity":0.30708661417322836},{"duration":0.25862050000000636,"midi":49,"time":48.3620335,"velocity":0.30708661417322836},{"duration":0.25862050000000636,"midi":37,"time":48.3620335,"velocity":0.30708661417322836},{"duration":0.25862049999999925,"midi":49,"time":48.491343750000006,"velocity":0.30708661417322836},{"duration":0.25862049999999925,"midi":37,"time":48.491343750000006,"velocity":0.30708661417322836},{"duration":0.25862049999999925,"midi":49,"time":48.87927450000001,"velocity":0.30708661417322836},{"duration":0.25862049999999925,"midi":37,"time":48.87927450000001,"velocity":0.30708661417322836},{"duration":0.25862049999999925,"midi":49,"time":49.008584750000004,"velocity":0.30708661417322836},{"duration":0.25862049999999925,"midi":37,"time":49.008584750000004,"velocity":0.30708661417322836},{"duration":0.25862049999999925,"midi":49,"time":49.39651550000001,"velocity":0.30708661417322836},{"duration":0.25862049999999925,"midi":37,"time":49.39651550000001,"velocity":0.30708661417322836},{"duration":0.25862050000000636,"midi":49,"time":49.52582575,"velocity":0.30708661417322836},{"duration":0.25862050000000636,"midi":37,"time":49.52582575,"velocity":0.30708661417322836},{"duration":0.25862049999999925,"midi":42,"time":49.913756500000005,"velocity":0.30708661417322836},{"duration":0.25862049999999925,"midi":30,"time":49.913756500000005,"velocity":0.30708661417322836},{"duration":0.25862049999999925,"midi":42,"time":50.04306675000001,"velocity":0.30708661417322836},{"duration":0.25862049999999925,"midi":30,"time":50.04306675000001,"velocity":0.30708661417322836},{"duration":0.25862049999999925,"midi":30,"time":50.430997500000004,"velocity":0.30708661417322836},{"duration":0.25862049999999925,"midi":42,"time":50.430997500000004,"velocity":0.30708661417322836},{"duration":0.25862049999999925,"midi":30,"time":50.56030775000001,"velocity":0.30708661417322836},{"duration":0.25862049999999925,"midi":42,"time":50.56030775000001,"velocity":0.30708661417322836},{"duration":0.25862049999999925,"midi":30,"time":50.94823850000001,"velocity":0.30708661417322836},{"duration":0.25862049999999925,"midi":42,"time":50.94823850000001,"velocity":0.30708661417322836},{"duration":0.25862049999999925,"midi":42,"time":51.077548750000005,"velocity":0.30708661417322836},{"duration":0.25862049999999925,"midi":30,"time":51.077548750000005,"velocity":0.30708661417322836},{"duration":0.25862049999999925,"midi":30,"time":51.46547950000001,"velocity":0.30708661417322836},{"duration":0.25862049999999925,"midi":42,"time":51.46547950000001,"velocity":0.30708661417322836},{"duration":0.25862049999999925,"midi":30,"time":51.594789750000004,"velocity":0.30708661417322836},{"duration":0.25862049999999925,"midi":42,"time":51.594789750000004,"velocity":0.30708661417322836},{"duration":0.25862049999999925,"midi":30,"time":51.982720500000006,"velocity":0.30708661417322836},{"duration":0.25862049999999925,"midi":42,"time":51.982720500000006,"velocity":0.30708661417322836},{"duration":0.25862049999999925,"midi":42,"time":52.11203075000001,"velocity":0.30708661417322836},{"duration":0.25862049999999925,"midi":30,"time":52.11203075000001,"velocity":0.30708661417322836},{"duration":0.25862049999999925,"midi":42,"time":52.499961500000005,"velocity":0.30708661417322836},{"duration":0.25862049999999925,"midi":30,"time":52.499961500000005,"velocity":0.30708661417322836},{"duration":0.25862049999999925,"midi":30,"time":52.62927175000001,"velocity":0.30708661417322836},{"duration":0.25862049999999925,"midi":42,"time":52.62927175000001,"velocity":0.30708661417322836},{"duration":0.25862050000000636,"midi":42,"time":53.0172025,"velocity":0.30708661417322836},{"duration":0.25862050000000636,"midi":30,"time":53.0172025,"velocity":0.30708661417322836},{"duration":0.25862049999999925,"midi":42,"time":53.14651275000001,"velocity":0.30708661417322836},{"duration":0.25862049999999925,"midi":30,"time":53.14651275000001,"velocity":0.30708661417322836},{"duration":0.25862049999999925,"midi":42,"time":53.53444350000001,"velocity":0.30708661417322836},{"duration":0.25862049999999925,"midi":30,"time":53.53444350000001,"velocity":0.30708661417322836},{"duration":0.25862049999999925,"midi":30,"time":53.663753750000005,"velocity":0.30708661417322836},{"duration":0.25862049999999925,"midi":42,"time":53.663753750000005,"velocity":0.30708661417322836},{"duration":0.25862049999999925,"midi":34,"time":54.05168450000001,"velocity":0.30708661417322836},{"duration":0.25862049999999925,"midi":46,"time":54.05168450000001,"velocity":0.30708661417322836},{"duration":0.25862050000000636,"midi":34,"time":54.18099475,"velocity":0.30708661417322836},{"duration":0.25862050000000636,"midi":46,"time":54.18099475,"velocity":0.30708661417322836},{"duration":0.25862049999999925,"midi":34,"time":54.568925500000006,"velocity":0.30708661417322836},{"duration":0.25862049999999925,"midi":46,"time":54.568925500000006,"velocity":0.30708661417322836},{"duration":0.25862049999999925,"midi":34,"time":54.69823575000001,"velocity":0.30708661417322836},{"duration":0.25862049999999925,"midi":46,"time":54.69823575000001,"velocity":0.30708661417322836},{"duration":0.25862049999999925,"midi":46,"time":55.086166500000004,"velocity":0.30708661417322836},{"duration":0.25862049999999925,"midi":34,"time":55.086166500000004,"velocity":0.30708661417322836},{"duration":0.25862049999999925,"midi":34,"time":55.21547675000001,"velocity":0.30708661417322836},{"duration":0.25862049999999925,"midi":46,"time":55.21547675000001,"velocity":0.30708661417322836},{"duration":0.25862049999999925,"midi":34,"time":55.60340750000001,"velocity":0.30708661417322836},{"duration":0.25862049999999925,"midi":46,"time":55.60340750000001,"velocity":0.30708661417322836},{"duration":0.25862049999999925,"midi":34,"time":55.732717750000006,"velocity":0.30708661417322836},{"duration":0.25862049999999925,"midi":46,"time":55.732717750000006,"velocity":0.30708661417322836},{"duration":0.25862049999999925,"midi":37,"time":56.12064850000001,"velocity":0.30708661417322836},{"duration":0.25862049999999925,"midi":49,"time":56.12064850000001,"velocity":0.30708661417322836},{"duration":0.25862049999999925,"midi":49,"time":56.249958750000005,"velocity":0.30708661417322836},{"duration":0.25862049999999925,"midi":37,"time":56.249958750000005,"velocity":0.30708661417322836},{"duration":0.25862049999999925,"midi":37,"time":56.63788950000001,"velocity":0.30708661417322836},{"duration":0.25862049999999925,"midi":49,"time":56.63788950000001,"velocity":0.30708661417322836},{"duration":0.25862049999999925,"midi":37,"time":56.76719975000001,"velocity":0.30708661417322836},{"duration":0.25862049999999925,"midi":49,"time":56.76719975000001,"velocity":0.30708661417322836},{"duration":0.25862049999999925,"midi":37,"time":57.155130500000006,"velocity":0.30708661417322836},{"duration":0.25862049999999925,"midi":49,"time":57.155130500000006,"velocity":0.30708661417322836},{"duration":0.25862049999999925,"midi":37,"time":57.28444075000001,"velocity":0.30708661417322836},{"duration":0.25862049999999925,"midi":49,"time":57.28444075000001,"velocity":0.30708661417322836},{"duration":0.25862049999999925,"midi":44,"time":57.672371500000004,"velocity":0.30708661417322836},{"duration":0.25862049999999925,"midi":32,"time":57.672371500000004,"velocity":0.30708661417322836},{"duration":0.25862049999999925,"midi":32,"time":57.80168175000001,"velocity":0.30708661417322836},{"duration":0.25862049999999925,"midi":44,"time":57.80168175000001,"velocity":0.30708661417322836},{"duration":0.25862049999999925,"midi":42,"time":58.18961250000001,"velocity":0.30708661417322836},{"duration":0.25862049999999925,"midi":30,"time":58.18961250000001,"velocity":0.30708661417322836},{"duration":0.25862049999999925,"midi":30,"time":58.318922750000006,"velocity":0.30708661417322836},{"duration":0.25862049999999925,"midi":42,"time":58.318922750000006,"velocity":0.30708661417322836},{"duration":0.25862049999999925,"midi":30,"time":58.70685350000001,"velocity":0.30708661417322836},{"duration":0.25862049999999925,"midi":42,"time":58.70685350000001,"velocity":0.30708661417322836},{"duration":0.25862049999999925,"midi":30,"time":58.836163750000004,"velocity":0.30708661417322836},{"duration":0.25862049999999925,"midi":42,"time":58.836163750000004,"velocity":0.30708661417322836},{"duration":0.25862049999999925,"midi":42,"time":59.22409450000001,"velocity":0.30708661417322836},{"duration":0.25862049999999925,"midi":30,"time":59.22409450000001,"velocity":0.30708661417322836},{"duration":0.25862049999999925,"midi":30,"time":59.35340475000001,"velocity":0.30708661417322836},{"duration":0.25862049999999925,"midi":42,"time":59.35340475000001,"velocity":0.30708661417322836},{"duration":0.25862049999999925,"midi":30,"time":59.741335500000005,"velocity":0.30708661417322836},{"duration":0.25862049999999925,"midi":42,"time":59.741335500000005,"velocity":0.30708661417322836},{"duration":0.25862049999999925,"midi":30,"time":59.87064575000001,"velocity":0.30708661417322836},{"duration":0.25862049999999925,"midi":42,"time":59.87064575000001,"velocity":0.30708661417322836},{"duration":0.25862050000000636,"midi":42,"time":60.258576500000004,"velocity":0.30708661417322836},{"duration":0.25862050000000636,"midi":30,"time":60.258576500000004,"velocity":0.30708661417322836},{"duration":0.25862049999999925,"midi":30,"time":60.38788675000001,"velocity":0.30708661417322836},{"duration":0.25862049999999925,"midi":42,"time":60.38788675000001,"velocity":0.30708661417322836},{"duration":0.25862049999999925,"midi":30,"time":60.77581750000001,"velocity":0.30708661417322836},{"duration":0.25862049999999925,"midi":42,"time":60.77581750000001,"velocity":0.30708661417322836},{"duration":0.25862049999999925,"midi":42,"time":60.905127750000005,"velocity":0.30708661417322836},{"duration":0.25862049999999925,"midi":30,"time":60.905127750000005,"velocity":0.30708661417322836},{"duration":0.25862049999999925,"midi":42,"time":61.29305850000001,"velocity":0.30708661417322836},{"duration":0.25862049999999925,"midi":30,"time":61.29305850000001,"velocity":0.30708661417322836},{"duration":0.25862050000000636,"midi":30,"time":61.422368750000004,"velocity":0.30708661417322836},{"duration":0.25862050000000636,"midi":42,"time":61.422368750000004,"velocity":0.30708661417322836},{"duration":0.25862049999999925,"midi":30,"time":61.810299500000006,"velocity":0.30708661417322836},{"duration":0.25862049999999925,"midi":42,"time":61.810299500000006,"velocity":0.30708661417322836},{"duration":0.25862049999999925,"midi":30,"time":61.93960975000001,"velocity":0.30708661417322836},{"duration":0.25862049999999925,"midi":42,"time":61.93960975000001,"velocity":0.30708661417322836},{"duration":0.25862049999999925,"midi":34,"time":62.327540500000005,"velocity":0.30708661417322836},{"duration":0.25862049999999925,"midi":46,"time":62.327540500000005,"velocity":0.30708661417322836},{"duration":0.25862049999999925,"midi":34,"time":62.45685075000001,"velocity":0.30708661417322836},{"duration":0.25862049999999925,"midi":46,"time":62.45685075000001,"velocity":0.30708661417322836},{"duration":0.25862049999999925,"midi":46,"time":62.84478150000001,"velocity":0.30708661417322836},{"duration":0.25862049999999925,"midi":34,"time":62.84478150000001,"velocity":0.30708661417322836},{"duration":0.25862049999999925,"midi":46,"time":62.97409175000001,"velocity":0.30708661417322836},{"duration":0.25862049999999925,"midi":34,"time":62.97409175000001,"velocity":0.30708661417322836},{"duration":0.25862049999999925,"midi":46,"time":63.36202250000001,"velocity":0.30708661417322836},{"duration":0.25862049999999925,"midi":34,"time":63.36202250000001,"velocity":0.30708661417322836},{"duration":0.25862049999999925,"midi":34,"time":63.491332750000005,"velocity":0.30708661417322836},{"duration":0.25862049999999925,"midi":46,"time":63.491332750000005,"velocity":0.30708661417322836},{"duration":0.25862050000000636,"midi":46,"time":63.87926350000001,"velocity":0.30708661417322836},{"duration":0.25862050000000636,"midi":34,"time":63.87926350000001,"velocity":0.30708661417322836},{"duration":0.25862049999999215,"midi":46,"time":64.00857375000001,"velocity":0.30708661417322836},{"duration":0.25862049999999215,"midi":34,"time":64.00857375000001,"velocity":0.30708661417322836},{"duration":0.25862050000000636,"midi":49,"time":64.3965045,"velocity":0.30708661417322836},{"duration":0.25862050000000636,"midi":37,"time":64.3965045,"velocity":0.30708661417322836},{"duration":0.25862049999999215,"midi":37,"time":64.52581475000001,"velocity":0.30708661417322836},{"duration":0.25862049999999215,"midi":49,"time":64.52581475000001,"velocity":0.30708661417322836},{"duration":0.25862050000000636,"midi":37,"time":64.9137455,"velocity":0.30708661417322836},{"duration":0.25862050000000636,"midi":49,"time":64.9137455,"velocity":0.30708661417322836},{"duration":0.25862050000000636,"midi":37,"time":65.04305575000001,"velocity":0.30708661417322836},{"duration":0.25862050000000636,"midi":49,"time":65.04305575000001,"velocity":0.30708661417322836},{"duration":0.25862049999999215,"midi":49,"time":65.17236600000001,"velocity":0.30708661417322836},{"duration":0.25862049999999215,"midi":37,"time":65.17236600000001,"velocity":0.30708661417322836},{"duration":0.25862049999999215,"midi":37,"time":65.30167625000001,"velocity":0.30708661417322836},{"duration":0.25862049999999215,"midi":49,"time":65.30167625000001,"velocity":0.30708661417322836},{"duration":0.25862050000000636,"midi":49,"time":65.4309865,"velocity":0.30708661417322836},{"duration":0.25862050000000636,"midi":37,"time":65.4309865,"velocity":0.30708661417322836},{"duration":0.25862050000000636,"midi":49,"time":65.56029675,"velocity":0.30708661417322836},{"duration":0.25862050000000636,"midi":37,"time":65.56029675,"velocity":0.30708661417322836},{"duration":0.25862049999999215,"midi":32,"time":65.68960700000001,"velocity":0.30708661417322836},{"duration":0.25862049999999215,"midi":44,"time":65.68960700000001,"velocity":0.30708661417322836},{"duration":0.25862049999999215,"midi":44,"time":65.81891725000001,"velocity":0.30708661417322836},{"duration":0.25862049999999215,"midi":32,"time":65.81891725000001,"velocity":0.30708661417322836},{"duration":0.25862050000000636,"midi":32,"time":65.9482275,"velocity":0.30708661417322836},{"duration":0.25862050000000636,"midi":44,"time":65.9482275,"velocity":0.30708661417322836},{"duration":0.25862050000000636,"midi":44,"time":66.07753775,"velocity":0.30708661417322836},{"duration":0.25862050000000636,"midi":32,"time":66.07753775,"velocity":0.30708661417322836},{"duration":0.25862050000000636,"midi":32,"time":66.20684800000001,"velocity":0.30708661417322836},{"duration":0.25862050000000636,"midi":44,"time":66.20684800000001,"velocity":0.30708661417322836},{"duration":0.25862049999999215,"midi":44,"time":66.33615825000001,"velocity":0.30708661417322836},{"duration":0.25862049999999215,"midi":32,"time":66.33615825000001,"velocity":0.30708661417322836},{"duration":0.25862050000000636,"midi":44,"time":66.724089,"velocity":0.30708661417322836},{"duration":0.25862050000000636,"midi":32,"time":66.724089,"velocity":0.30708661417322836},{"duration":0.25862049999999215,"midi":44,"time":66.85339925000001,"velocity":0.30708661417322836},{"duration":0.25862049999999215,"midi":32,"time":66.85339925000001,"velocity":0.30708661417322836},{"duration":0.25862050000000636,"midi":32,"time":67.24133,"velocity":0.30708661417322836},{"duration":0.25862050000000636,"midi":44,"time":67.24133,"velocity":0.30708661417322836},{"duration":0.25862050000000636,"midi":32,"time":67.37064025000001,"velocity":0.30708661417322836},{"duration":0.25862050000000636,"midi":44,"time":67.37064025000001,"velocity":0.30708661417322836},{"duration":0.25862050000000636,"midi":32,"time":67.758571,"velocity":0.30708661417322836},{"duration":0.25862050000000636,"midi":44,"time":67.758571,"velocity":0.30708661417322836},{"duration":0.25862050000000636,"midi":32,"time":67.88788125,"velocity":0.30708661417322836},{"duration":0.25862050000000636,"midi":44,"time":67.88788125,"velocity":0.30708661417322836},{"duration":0.25862050000000636,"midi":32,"time":68.275812,"velocity":0.30708661417322836},{"duration":0.25862050000000636,"midi":44,"time":68.275812,"velocity":0.30708661417322836},{"duration":0.25862050000000636,"midi":44,"time":68.40512225,"velocity":0.30708661417322836},{"duration":0.25862050000000636,"midi":32,"time":68.40512225,"velocity":0.30708661417322836},{"duration":0.25862049999999215,"midi":32,"time":68.79305300000001,"velocity":0.30708661417322836},{"duration":0.25862049999999215,"midi":44,"time":68.79305300000001,"velocity":0.30708661417322836},{"duration":0.25862050000000636,"midi":32,"time":68.92236325,"velocity":0.30708661417322836},{"duration":0.25862050000000636,"midi":44,"time":68.92236325,"velocity":0.30708661417322836},{"duration":0.25862049999999215,"midi":32,"time":69.31029400000001,"velocity":0.30708661417322836},{"duration":0.25862049999999215,"midi":44,"time":69.31029400000001,"velocity":0.30708661417322836},{"duration":0.25862050000000636,"midi":44,"time":69.43960425,"velocity":0.30708661417322836},{"duration":0.25862050000000636,"midi":32,"time":69.43960425,"velocity":0.30708661417322836},{"duration":0.25862049999999215,"midi":44,"time":69.82753500000001,"velocity":0.30708661417322836},{"duration":0.25862049999999215,"midi":32,"time":69.82753500000001,"velocity":0.30708661417322836},{"duration":0.25862049999999215,"midi":32,"time":69.95684525000001,"velocity":0.30708661417322836},{"duration":0.25862049999999215,"midi":44,"time":69.95684525000001,"velocity":0.30708661417322836},{"duration":0.25862049999999215,"midi":30,"time":70.34477600000001,"velocity":0.30708661417322836},{"duration":0.25862049999999215,"midi":42,"time":70.34477600000001,"velocity":0.30708661417322836},{"duration":0.25862049999999215,"midi":42,"time":70.47408625000001,"velocity":0.30708661417322836},{"duration":0.25862049999999215,"midi":30,"time":70.47408625000001,"velocity":0.30708661417322836},{"duration":0.25862050000000636,"midi":42,"time":70.86201700000001,"velocity":0.30708661417322836},{"duration":0.25862050000000636,"midi":30,"time":70.86201700000001,"velocity":0.30708661417322836},{"duration":0.25862049999999215,"midi":30,"time":70.99132725000001,"velocity":0.30708661417322836},{"duration":0.25862049999999215,"midi":42,"time":70.99132725000001,"velocity":0.30708661417322836},{"duration":0.25862050000000636,"midi":42,"time":71.37925800000001,"velocity":0.30708661417322836},{"duration":0.25862050000000636,"midi":30,"time":71.37925800000001,"velocity":0.30708661417322836},{"duration":0.25862049999999215,"midi":42,"time":71.50856825000001,"velocity":0.30708661417322836},{"duration":0.25862049999999215,"midi":30,"time":71.50856825000001,"velocity":0.30708661417322836},{"duration":0.25862050000000636,"midi":42,"time":71.896499,"velocity":0.30708661417322836},{"duration":0.25862050000000636,"midi":30,"time":71.896499,"velocity":0.30708661417322836},{"duration":0.25862050000000636,"midi":30,"time":72.02580925000001,"velocity":0.30708661417322836},{"duration":0.25862050000000636,"midi":42,"time":72.02580925000001,"velocity":0.30708661417322836},{"duration":0.25862050000000636,"midi":42,"time":72.41374,"velocity":0.30708661417322836},{"duration":0.25862050000000636,"midi":30,"time":72.41374,"velocity":0.30708661417322836},{"duration":0.25862050000000636,"midi":30,"time":72.54305025000001,"velocity":0.30708661417322836},{"duration":0.25862050000000636,"midi":42,"time":72.54305025000001,"velocity":0.30708661417322836},{"duration":0.25862050000000636,"midi":30,"time":72.930981,"velocity":0.30708661417322836},{"duration":0.25862050000000636,"midi":42,"time":72.930981,"velocity":0.30708661417322836},{"duration":0.25862050000000636,"midi":42,"time":73.06029125,"velocity":0.30708661417322836},{"duration":0.25862050000000636,"midi":30,"time":73.06029125,"velocity":0.30708661417322836},{"duration":0.25862049999999215,"midi":46,"time":73.44822200000002,"velocity":0.30708661417322836},{"duration":0.25862049999999215,"midi":34,"time":73.44822200000002,"velocity":0.30708661417322836},{"duration":0.25862050000000636,"midi":34,"time":73.57753225,"velocity":0.30708661417322836},{"duration":0.25862050000000636,"midi":46,"time":73.57753225,"velocity":0.30708661417322836},{"duration":0.25862049999999215,"midi":32,"time":73.96546300000001,"velocity":0.30708661417322836},{"duration":0.25862049999999215,"midi":44,"time":73.96546300000001,"velocity":0.30708661417322836},{"duration":0.25862050000000636,"midi":32,"time":74.09477325,"velocity":0.30708661417322836},{"duration":0.25862050000000636,"midi":44,"time":74.09477325,"velocity":0.30708661417322836},{"duration":0.25862049999999215,"midi":44,"time":74.48270400000001,"velocity":0.30708661417322836},{"duration":0.25862049999999215,"midi":32,"time":74.48270400000001,"velocity":0.30708661417322836},{"duration":0.25862049999999215,"midi":32,"time":74.61201425000002,"velocity":0.30708661417322836},{"duration":0.25862049999999215,"midi":44,"time":74.61201425000002,"velocity":0.30708661417322836},{"duration":0.25862049999999215,"midi":44,"time":74.99994500000001,"velocity":0.30708661417322836},{"duration":0.25862049999999215,"midi":32,"time":74.99994500000001,"velocity":0.30708661417322836},{"duration":0.25862049999999215,"midi":44,"time":75.12925525000001,"velocity":0.30708661417322836},{"duration":0.25862049999999215,"midi":32,"time":75.12925525000001,"velocity":0.30708661417322836},{"duration":0.25862050000000636,"midi":44,"time":75.51718600000001,"velocity":0.30708661417322836},{"duration":0.25862050000000636,"midi":32,"time":75.51718600000001,"velocity":0.30708661417322836},{"duration":0.25862049999999215,"midi":44,"time":75.64649625000001,"velocity":0.30708661417322836},{"duration":0.25862049999999215,"midi":32,"time":75.64649625000001,"velocity":0.30708661417322836},{"duration":0.25862050000000636,"midi":32,"time":76.03442700000001,"velocity":0.30708661417322836},{"duration":0.25862050000000636,"midi":44,"time":76.03442700000001,"velocity":0.30708661417322836},{"duration":0.25862049999999215,"midi":44,"time":76.16373725000001,"velocity":0.30708661417322836},{"duration":0.25862049999999215,"midi":32,"time":76.16373725000001,"velocity":0.30708661417322836},{"duration":0.25862050000000636,"midi":44,"time":76.551668,"velocity":0.30708661417322836},{"duration":0.25862050000000636,"midi":32,"time":76.551668,"velocity":0.30708661417322836},{"duration":0.25862050000000636,"midi":32,"time":76.68097825000001,"velocity":0.30708661417322836},{"duration":0.25862050000000636,"midi":44,"time":76.68097825000001,"velocity":0.30708661417322836},{"duration":0.25862050000000636,"midi":32,"time":77.068909,"velocity":0.30708661417322836},{"duration":0.25862050000000636,"midi":44,"time":77.068909,"velocity":0.30708661417322836},{"duration":0.25862050000000636,"midi":44,"time":77.19821925000001,"velocity":0.30708661417322836},{"duration":0.25862050000000636,"midi":32,"time":77.19821925000001,"velocity":0.30708661417322836},{"duration":0.25862050000000636,"midi":44,"time":77.58615,"velocity":0.30708661417322836},{"duration":0.25862050000000636,"midi":32,"time":77.58615,"velocity":0.30708661417322836},{"duration":0.25862050000000636,"midi":32,"time":77.71546025,"velocity":0.30708661417322836},{"duration":0.25862050000000636,"midi":44,"time":77.71546025,"velocity":0.30708661417322836},{"duration":0.25862049999999215,"midi":44,"time":78.10339100000002,"velocity":0.30708661417322836},{"duration":0.25862049999999215,"midi":32,"time":78.10339100000002,"velocity":0.30708661417322836},{"duration":0.25862050000000636,"midi":44,"time":78.23270125,"velocity":0.30708661417322836},{"duration":0.25862050000000636,"midi":32,"time":78.23270125,"velocity":0.30708661417322836},{"duration":0.25862049999999215,"midi":42,"time":78.62063200000001,"velocity":0.30708661417322836},{"duration":0.25862049999999215,"midi":30,"time":78.62063200000001,"velocity":0.30708661417322836},{"duration":0.25862050000000636,"midi":30,"time":78.74994225,"velocity":0.30708661417322836},{"duration":0.25862050000000636,"midi":42,"time":78.74994225,"velocity":0.30708661417322836},{"duration":0.25862049999999215,"midi":42,"time":79.13787300000001,"velocity":0.30708661417322836},{"duration":0.25862049999999215,"midi":30,"time":79.13787300000001,"velocity":0.30708661417322836},{"duration":0.25862049999999215,"midi":30,"time":79.26718325000002,"velocity":0.30708661417322836},{"duration":0.25862049999999215,"midi":42,"time":79.26718325000002,"velocity":0.30708661417322836},{"duration":0.25862049999999215,"midi":30,"time":79.65511400000001,"velocity":0.30708661417322836},{"duration":0.25862049999999215,"midi":42,"time":79.65511400000001,"velocity":0.30708661417322836},{"duration":0.25862049999999215,"midi":42,"time":79.78442425000001,"velocity":0.30708661417322836},{"duration":0.25862049999999215,"midi":30,"time":79.78442425000001,"velocity":0.30708661417322836},{"duration":0.25862050000000636,"midi":42,"time":80.17235500000001,"velocity":0.30708661417322836},{"duration":0.25862050000000636,"midi":30,"time":80.17235500000001,"velocity":0.30708661417322836},{"duration":0.25862049999999215,"midi":30,"time":80.30166525000001,"velocity":0.30708661417322836},{"duration":0.25862049999999215,"midi":42,"time":80.30166525000001,"velocity":0.30708661417322836},{"duration":0.25862050000000636,"midi":42,"time":80.68959600000001,"velocity":0.30708661417322836},{"duration":0.25862050000000636,"midi":30,"time":80.68959600000001,"velocity":0.30708661417322836},{"duration":0.25862049999999215,"midi":42,"time":80.81890625000001,"velocity":0.30708661417322836},{"duration":0.25862049999999215,"midi":30,"time":80.81890625000001,"velocity":0.30708661417322836},{"duration":0.25862050000000636,"midi":30,"time":81.20683700000001,"velocity":0.30708661417322836},{"duration":0.25862050000000636,"midi":42,"time":81.20683700000001,"velocity":0.30708661417322836},{"duration":0.25862050000000636,"midi":30,"time":81.33614725000001,"velocity":0.30708661417322836},{"duration":0.25862050000000636,"midi":42,"time":81.33614725000001,"velocity":0.30708661417322836},{"duration":0.25862050000000636,"midi":34,"time":81.724078,"velocity":0.30708661417322836},{"duration":0.25862050000000636,"midi":46,"time":81.724078,"velocity":0.30708661417322836},{"duration":0.25862050000000636,"midi":46,"time":81.85338825000001,"velocity":0.30708661417322836},{"duration":0.25862050000000636,"midi":34,"time":81.85338825000001,"velocity":0.30708661417322836},{"duration":0.25862050000000636,"midi":32,"time":82.241319,"velocity":0.30708661417322836},{"duration":0.25862050000000636,"midi":44,"time":82.241319,"velocity":0.30708661417322836},{"duration":0.25862050000000636,"midi":44,"time":82.37062925000001,"velocity":0.30708661417322836},{"duration":0.25862050000000636,"midi":32,"time":82.37062925000001,"velocity":0.30708661417322836},{"duration":0.25862049999999215,"midi":32,"time":82.75856000000002,"velocity":0.30708661417322836},{"duration":0.25862049999999215,"midi":44,"time":82.75856000000002,"velocity":0.30708661417322836},{"duration":0.25862050000000636,"midi":32,"time":82.88787025,"velocity":0.30708661417322836},{"duration":0.25862050000000636,"midi":44,"time":82.88787025,"velocity":0.30708661417322836},{"duration":0.25862049999999215,"midi":44,"time":83.27580100000002,"velocity":0.30708661417322836},{"duration":0.25862049999999215,"midi":32,"time":83.27580100000002,"velocity":0.30708661417322836},{"duration":0.25862050000000636,"midi":44,"time":83.40511125,"velocity":0.30708661417322836},{"duration":0.25862050000000636,"midi":32,"time":83.40511125,"velocity":0.30708661417322836},{"duration":0.25862049999999215,"midi":32,"time":83.79304200000001,"velocity":0.30708661417322836},{"duration":0.25862049999999215,"midi":44,"time":83.79304200000001,"velocity":0.30708661417322836},{"duration":0.25862050000000636,"midi":44,"time":83.92235225,"velocity":0.30708661417322836},{"duration":0.25862050000000636,"midi":32,"time":83.92235225,"velocity":0.30708661417322836},{"duration":0.25862049999999215,"midi":32,"time":84.31028300000001,"velocity":0.30708661417322836},{"duration":0.25862049999999215,"midi":44,"time":84.31028300000001,"velocity":0.30708661417322836},{"duration":0.25862049999999215,"midi":32,"time":84.43959325000002,"velocity":0.30708661417322836},{"duration":0.25862049999999215,"midi":44,"time":84.43959325000002,"velocity":0.30708661417322836},{"duration":0.25862049999999215,"midi":44,"time":84.82752400000001,"velocity":0.30708661417322836},{"duration":0.25862049999999215,"midi":32,"time":84.82752400000001,"velocity":0.30708661417322836},{"duration":0.25862049999999215,"midi":44,"time":84.95683425000001,"velocity":0.30708661417322836},{"duration":0.25862049999999215,"midi":32,"time":84.95683425000001,"velocity":0.30708661417322836},{"duration":0.25862050000000636,"midi":32,"time":85.34476500000001,"velocity":0.30708661417322836},{"duration":0.25862050000000636,"midi":44,"time":85.34476500000001,"velocity":0.30708661417322836},{"duration":0.25862049999999215,"midi":44,"time":85.47407525000001,"velocity":0.30708661417322836},{"duration":0.25862049999999215,"midi":32,"time":85.47407525000001,"velocity":0.30708661417322836},{"duration":0.25862050000000636,"midi":44,"time":85.86200600000001,"velocity":0.30708661417322836},{"duration":0.25862050000000636,"midi":32,"time":85.86200600000001,"velocity":0.30708661417322836},{"duration":0.25862049999999215,"midi":44,"time":85.99131625000001,"velocity":0.30708661417322836},{"duration":0.25862049999999215,"midi":32,"time":85.99131625000001,"velocity":0.30708661417322836},{"duration":0.25862050000000636,"midi":32,"time":86.379247,"velocity":0.30708661417322836},{"duration":0.25862050000000636,"midi":44,"time":86.379247,"velocity":0.30708661417322836},{"duration":0.25862050000000636,"midi":44,"time":86.50855725000001,"velocity":0.30708661417322836},{"duration":0.25862050000000636,"midi":32,"time":86.50855725000001,"velocity":0.30708661417322836},{"duration":0.25862050000000636,"midi":42,"time":86.896488,"velocity":0.30708661417322836},{"duration":0.25862050000000636,"midi":30,"time":86.896488,"velocity":0.30708661417322836},{"duration":0.25862050000000636,"midi":42,"time":87.02579825000001,"velocity":0.30708661417322836},{"duration":0.25862050000000636,"midi":30,"time":87.02579825000001,"velocity":0.30708661417322836},{"duration":0.25862050000000636,"midi":30,"time":87.413729,"velocity":0.30708661417322836},{"duration":0.25862050000000636,"midi":42,"time":87.413729,"velocity":0.30708661417322836},{"duration":0.25862050000000636,"midi":42,"time":87.54303925,"velocity":0.30708661417322836},{"duration":0.25862050000000636,"midi":30,"time":87.54303925,"velocity":0.30708661417322836},{"duration":0.25862049999999215,"midi":30,"time":87.93097000000002,"velocity":0.30708661417322836},{"duration":0.25862049999999215,"midi":42,"time":87.93097000000002,"velocity":0.30708661417322836},{"duration":0.25862050000000636,"midi":30,"time":88.06028025,"velocity":0.30708661417322836},{"duration":0.25862050000000636,"midi":42,"time":88.06028025,"velocity":0.30708661417322836},{"duration":0.25862049999999215,"midi":42,"time":88.44821100000001,"velocity":0.30708661417322836},{"duration":0.25862049999999215,"midi":30,"time":88.44821100000001,"velocity":0.30708661417322836},{"duration":0.25862050000000636,"midi":42,"time":88.57752125,"velocity":0.30708661417322836},{"duration":0.25862050000000636,"midi":30,"time":88.57752125,"velocity":0.30708661417322836},{"duration":0.25862049999999215,"midi":30,"time":88.96545200000001,"velocity":0.30708661417322836},{"duration":0.25862049999999215,"midi":42,"time":88.96545200000001,"velocity":0.30708661417322836},{"duration":0.25862049999999215,"midi":30,"time":89.09476225000002,"velocity":0.30708661417322836},{"duration":0.25862049999999215,"midi":42,"time":89.09476225000002,"velocity":0.30708661417322836},{"duration":0.25862049999999215,"midi":30,"time":89.48269300000001,"velocity":0.30708661417322836},{"duration":0.25862049999999215,"midi":42,"time":89.48269300000001,"velocity":0.30708661417322836},{"duration":0.25862049999999215,"midi":42,"time":89.61200325000001,"velocity":0.30708661417322836},{"duration":0.25862049999999215,"midi":30,"time":89.61200325000001,"velocity":0.30708661417322836},{"duration":0.25862050000000636,"midi":34,"time":89.99993400000001,"velocity":0.30708661417322836},{"duration":0.25862050000000636,"midi":46,"time":89.99993400000001,"velocity":0.30708661417322836},{"duration":0.25862049999999215,"midi":46,"time":90.12924425000001,"velocity":0.30708661417322836},{"duration":0.25862049999999215,"midi":34,"time":90.12924425000001,"velocity":0.30708661417322836},{"duration":0.25862050000000636,"midi":44,"time":90.51717500000001,"velocity":0.30708661417322836},{"duration":0.25862050000000636,"midi":32,"time":90.51717500000001,"velocity":0.30708661417322836},{"duration":0.25862049999999215,"midi":32,"time":90.64648525000001,"velocity":0.30708661417322836},{"duration":0.25862049999999215,"midi":44,"time":90.64648525000001,"velocity":0.30708661417322836},{"duration":0.25862050000000636,"midi":44,"time":91.03441600000001,"velocity":0.30708661417322836},{"duration":0.25862050000000636,"midi":32,"time":91.03441600000001,"velocity":0.30708661417322836},{"duration":0.25862050000000636,"midi":32,"time":91.16372625000001,"velocity":0.30708661417322836},{"duration":0.25862050000000636,"midi":44,"time":91.16372625000001,"velocity":0.30708661417322836},{"duration":0.25862050000000636,"midi":44,"time":91.551657,"velocity":0.30708661417322836},{"duration":0.25862050000000636,"midi":32,"time":91.551657,"velocity":0.30708661417322836},{"duration":0.25862050000000636,"midi":32,"time":91.68096725000001,"velocity":0.30708661417322836},{"duration":0.25862050000000636,"midi":44,"time":91.68096725000001,"velocity":0.30708661417322836},{"duration":0.25862050000000636,"midi":44,"time":92.068898,"velocity":0.30708661417322836},{"duration":0.25862050000000636,"midi":32,"time":92.068898,"velocity":0.30708661417322836},{"duration":0.25862050000000636,"midi":32,"time":92.19820825000001,"velocity":0.30708661417322836},{"duration":0.25862050000000636,"midi":44,"time":92.19820825000001,"velocity":0.30708661417322836},{"duration":0.25862049999999215,"midi":32,"time":92.58613900000002,"velocity":0.30708661417322836},{"duration":0.25862049999999215,"midi":44,"time":92.58613900000002,"velocity":0.30708661417322836},{"duration":0.25862050000000636,"midi":44,"time":92.71544925,"velocity":0.30708661417322836},{"duration":0.25862050000000636,"midi":32,"time":92.71544925,"velocity":0.30708661417322836},{"duration":0.25862049999999215,"midi":32,"time":93.10338000000002,"velocity":0.30708661417322836},{"duration":0.25862049999999215,"midi":44,"time":93.10338000000002,"velocity":0.30708661417322836},{"duration":0.25862050000000636,"midi":32,"time":93.23269025,"velocity":0.30708661417322836},{"duration":0.25862050000000636,"midi":44,"time":93.23269025,"velocity":0.30708661417322836},{"duration":0.25862049999999215,"midi":32,"time":93.62062100000001,"velocity":0.30708661417322836},{"duration":0.25862049999999215,"midi":44,"time":93.62062100000001,"velocity":0.30708661417322836},{"duration":0.25862049999999215,"midi":44,"time":93.74993125000002,"velocity":0.30708661417322836},{"duration":0.25862049999999215,"midi":32,"time":93.74993125000002,"velocity":0.30708661417322836},{"duration":0.25862049999999215,"midi":44,"time":94.13786200000001,"velocity":0.30708661417322836},{"duration":0.25862049999999215,"midi":32,"time":94.13786200000001,"velocity":0.30708661417322836},{"duration":0.25862049999999215,"midi":32,"time":94.26717225000002,"velocity":0.30708661417322836},{"duration":0.25862049999999215,"midi":44,"time":94.26717225000002,"velocity":0.30708661417322836},{"duration":0.25862050000000636,"midi":32,"time":94.65510300000001,"velocity":0.30708661417322836},{"duration":0.25862050000000636,"midi":44,"time":94.65510300000001,"velocity":0.30708661417322836},{"duration":0.25862049999999215,"midi":32,"time":94.78441325000001,"velocity":0.30708661417322836},{"duration":0.25862049999999215,"midi":44,"time":94.78441325000001,"velocity":0.30708661417322836},{"duration":0.25862050000000636,"midi":42,"time":95.17234400000001,"velocity":0.30708661417322836},{"duration":0.25862050000000636,"midi":30,"time":95.17234400000001,"velocity":0.30708661417322836},{"duration":0.25862049999999215,"midi":42,"time":95.30165425000001,"velocity":0.30708661417322836},{"duration":0.25862049999999215,"midi":30,"time":95.30165425000001,"velocity":0.30708661417322836},{"duration":0.25862050000000636,"midi":30,"time":95.68958500000001,"velocity":0.30708661417322836},{"duration":0.25862050000000636,"midi":42,"time":95.68958500000001,"velocity":0.30708661417322836},{"duration":0.25862050000000636,"midi":30,"time":95.81889525000001,"velocity":0.30708661417322836},{"duration":0.25862050000000636,"midi":42,"time":95.81889525000001,"velocity":0.30708661417322836},{"duration":0.25862050000000636,"midi":42,"time":96.206826,"velocity":0.30708661417322836},{"duration":0.25862050000000636,"midi":30,"time":96.206826,"velocity":0.30708661417322836},{"duration":0.25862050000000636,"midi":42,"time":96.33613625000001,"velocity":0.30708661417322836},{"duration":0.25862050000000636,"midi":30,"time":96.33613625000001,"velocity":0.30708661417322836},{"duration":0.25862050000000636,"midi":42,"time":96.724067,"velocity":0.30708661417322836},{"duration":0.25862050000000636,"midi":30,"time":96.724067,"velocity":0.30708661417322836},{"duration":0.25862050000000636,"midi":42,"time":96.85337725000001,"velocity":0.30708661417322836},{"duration":0.25862050000000636,"midi":30,"time":96.85337725000001,"velocity":0.30708661417322836},{"duration":0.25862049999999215,"midi":30,"time":97.24130800000002,"velocity":0.30708661417322836},{"duration":0.25862049999999215,"midi":42,"time":97.24130800000002,"velocity":0.30708661417322836},{"duration":0.25862050000000636,"midi":30,"time":97.37061825,"velocity":0.30708661417322836},{"duration":0.25862050000000636,"midi":42,"time":97.37061825,"velocity":0.30708661417322836},{"duration":0.25862049999999215,"midi":30,"time":97.75854900000002,"velocity":0.30708661417322836},{"duration":0.25862049999999215,"midi":42,"time":97.75854900000002,"velocity":0.30708661417322836},{"duration":0.25862050000000636,"midi":42,"time":97.88785925,"velocity":0.30708661417322836},{"duration":0.25862050000000636,"midi":30,"time":97.88785925,"velocity":0.30708661417322836},{"duration":0.25862049999999215,"midi":46,"time":98.27579000000001,"velocity":0.30708661417322836},{"duration":0.25862049999999215,"midi":34,"time":98.27579000000001,"velocity":0.30708661417322836},{"duration":0.25862049999999215,"midi":34,"time":98.40510025000002,"velocity":0.30708661417322836},{"duration":0.25862049999999215,"midi":46,"time":98.40510025000002,"velocity":0.30708661417322836},{"duration":0.25862049999999215,"midi":44,"time":98.79303100000001,"velocity":0.30708661417322836},{"duration":0.25862049999999215,"midi":32,"time":98.79303100000001,"velocity":0.30708661417322836},{"duration":0.25862049999999215,"midi":32,"time":98.92234125000002,"velocity":0.30708661417322836},{"duration":0.25862049999999215,"midi":44,"time":98.92234125000002,"velocity":0.30708661417322836},{"duration":0.25862049999999215,"midi":33,"time":99.56889250000002,"velocity":0.30708661417322836},{"duration":0.25862049999999215,"midi":45,"time":99.56889250000002,"velocity":0.30708661417322836},{"duration":0.25862050000000636,"midi":33,"time":99.69820275000001,"velocity":0.30708661417322836},{"duration":0.25862050000000636,"midi":45,"time":99.69820275000001,"velocity":0.30708661417322836},{"duration":0.25862049999999215,"midi":33,"time":100.08613350000002,"velocity":0.30708661417322836},{"duration":0.25862049999999215,"midi":45,"time":100.08613350000002,"velocity":0.30708661417322836},{"duration":0.25862050000000636,"midi":45,"time":100.21544375,"velocity":0.30708661417322836},{"duration":0.25862050000000636,"midi":33,"time":100.21544375,"velocity":0.30708661417322836},{"duration":0.25862049999999215,"midi":33,"time":100.60337450000002,"velocity":0.30708661417322836},{"duration":0.25862049999999215,"midi":45,"time":100.60337450000002,"velocity":0.30708661417322836},{"duration":0.25862049999999215,"midi":33,"time":100.73268475000002,"velocity":0.30708661417322836},{"duration":0.25862049999999215,"midi":45,"time":100.73268475000002,"velocity":0.30708661417322836},{"duration":0.25862049999999215,"midi":45,"time":101.12061550000001,"velocity":0.30708661417322836},{"duration":0.25862049999999215,"midi":33,"time":101.12061550000001,"velocity":0.30708661417322836},{"duration":0.25862049999999215,"midi":33,"time":101.24992575000002,"velocity":0.30708661417322836},{"duration":0.25862049999999215,"midi":45,"time":101.24992575000002,"velocity":0.30708661417322836},{"duration":0.25862050000000636,"midi":35,"time":101.63785650000001,"velocity":0.30708661417322836},{"duration":0.25862050000000636,"midi":47,"time":101.63785650000001,"velocity":0.30708661417322836},{"duration":0.25862049999999215,"midi":35,"time":101.76716675000002,"velocity":0.30708661417322836},{"duration":0.25862049999999215,"midi":47,"time":101.76716675000002,"velocity":0.30708661417322836},{"duration":0.25862050000000636,"midi":35,"time":102.15509750000001,"velocity":0.30708661417322836},{"duration":0.25862050000000636,"midi":47,"time":102.15509750000001,"velocity":0.30708661417322836},{"duration":0.25862049999999215,"midi":47,"time":102.28440775000001,"velocity":0.30708661417322836},{"duration":0.25862049999999215,"midi":35,"time":102.28440775000001,"velocity":0.30708661417322836},{"duration":0.25862050000000636,"midi":47,"time":102.67233850000001,"velocity":0.30708661417322836},{"duration":0.25862050000000636,"midi":35,"time":102.67233850000001,"velocity":0.30708661417322836},{"duration":0.25862050000000636,"midi":35,"time":102.80164875000001,"velocity":0.30708661417322836},{"duration":0.25862050000000636,"midi":47,"time":102.80164875000001,"velocity":0.30708661417322836},{"duration":0.25862050000000636,"midi":47,"time":103.18957950000001,"velocity":0.30708661417322836},{"duration":0.25862050000000636,"midi":35,"time":103.18957950000001,"velocity":0.30708661417322836},{"duration":0.25862050000000636,"midi":47,"time":103.31888975000001,"velocity":0.30708661417322836},{"duration":0.25862050000000636,"midi":35,"time":103.31888975000001,"velocity":0.30708661417322836},{"duration":0.25862050000000636,"midi":37,"time":103.7068205,"velocity":0.30708661417322836},{"duration":0.25862050000000636,"midi":49,"time":103.7068205,"velocity":0.30708661417322836},{"duration":0.25862050000000636,"midi":49,"time":103.83613075000001,"velocity":0.30708661417322836},{"duration":0.25862050000000636,"midi":37,"time":103.83613075000001,"velocity":0.30708661417322836},{"duration":0.25862049999999215,"midi":49,"time":104.22406150000002,"velocity":0.30708661417322836},{"duration":0.25862049999999215,"midi":37,"time":104.22406150000002,"velocity":0.30708661417322836},{"duration":0.25862050000000636,"midi":49,"time":104.35337175000001,"velocity":0.30708661417322836},{"duration":0.25862050000000636,"midi":37,"time":104.35337175000001,"velocity":0.30708661417322836},{"duration":0.25862049999999215,"midi":37,"time":104.74130250000002,"velocity":0.30708661417322836},{"duration":0.25862049999999215,"midi":49,"time":104.74130250000002,"velocity":0.30708661417322836},{"duration":0.25862050000000636,"midi":37,"time":104.87061275,"velocity":0.30708661417322836},{"duration":0.25862050000000636,"midi":49,"time":104.87061275,"velocity":0.30708661417322836},{"duration":0.25862049999999215,"midi":37,"time":105.25854350000002,"velocity":0.30708661417322836},{"duration":0.25862049999999215,"midi":49,"time":105.25854350000002,"velocity":0.30708661417322836},{"duration":0.25862049999999215,"midi":49,"time":105.38785375000002,"velocity":0.30708661417322836},{"duration":0.25862049999999215,"midi":37,"time":105.38785375000002,"velocity":0.30708661417322836},{"duration":0.25862049999999215,"midi":49,"time":105.77578450000001,"velocity":0.30708661417322836},{"duration":0.25862049999999215,"midi":37,"time":105.77578450000001,"velocity":0.30708661417322836},{"duration":0.25862049999999215,"midi":49,"time":105.90509475000002,"velocity":0.30708661417322836},{"duration":0.25862049999999215,"midi":37,"time":105.90509475000002,"velocity":0.30708661417322836},{"duration":0.25862050000000636,"midi":49,"time":106.29302550000001,"velocity":0.30708661417322836},{"duration":0.25862050000000636,"midi":37,"time":106.29302550000001,"velocity":0.30708661417322836},{"duration":0.25862049999999215,"midi":37,"time":106.42233575000002,"velocity":0.30708661417322836},{"duration":0.25862049999999215,"midi":49,"time":106.42233575000002,"velocity":0.30708661417322836},{"duration":0.25862050000000636,"midi":47,"time":106.81026650000001,"velocity":0.30708661417322836},{"duration":0.25862050000000636,"midi":35,"time":106.81026650000001,"velocity":0.30708661417322836},{"duration":0.25862049999999215,"midi":35,"time":106.93957675000001,"velocity":0.30708661417322836},{"duration":0.25862049999999215,"midi":47,"time":106.93957675000001,"velocity":0.30708661417322836},{"duration":0.25862050000000636,"midi":35,"time":107.32750750000001,"velocity":0.30708661417322836},{"duration":0.25862050000000636,"midi":47,"time":107.32750750000001,"velocity":0.30708661417322836},{"duration":0.25862050000000636,"midi":47,"time":107.45681775000001,"velocity":0.30708661417322836},{"duration":0.25862050000000636,"midi":35,"time":107.45681775000001,"velocity":0.30708661417322836},{"duration":0.25862050000000636,"midi":45,"time":107.84474850000001,"velocity":0.30708661417322836},{"duration":0.25862050000000636,"midi":33,"time":107.84474850000001,"velocity":0.30708661417322836},{"duration":0.25862050000000636,"midi":33,"time":107.97405875000001,"velocity":0.30708661417322836},{"duration":0.25862050000000636,"midi":45,"time":107.97405875000001,"velocity":0.30708661417322836},{"duration":0.25862050000000636,"midi":33,"time":108.3619895,"velocity":0.30708661417322836},{"duration":0.25862050000000636,"midi":45,"time":108.3619895,"velocity":0.30708661417322836},{"duration":0.25862050000000636,"midi":45,"time":108.49129975000001,"velocity":0.30708661417322836},{"duration":0.25862050000000636,"midi":33,"time":108.49129975000001,"velocity":0.30708661417322836},{"duration":0.25862049999999215,"midi":33,"time":108.87923050000002,"velocity":0.30708661417322836},{"duration":0.25862049999999215,"midi":45,"time":108.87923050000002,"velocity":0.30708661417322836},{"duration":0.25862050000000636,"midi":33,"time":109.00854075000001,"velocity":0.30708661417322836},{"duration":0.25862050000000636,"midi":45,"time":109.00854075000001,"velocity":0.30708661417322836},{"duration":0.25862049999999215,"midi":33,"time":109.39647150000002,"velocity":0.30708661417322836},{"duration":0.25862049999999215,"midi":45,"time":109.39647150000002,"velocity":0.30708661417322836},{"duration":0.25862050000000636,"midi":33,"time":109.52578175000001,"velocity":0.30708661417322836},{"duration":0.25862050000000636,"midi":45,"time":109.52578175000001,"velocity":0.30708661417322836},{"duration":0.25862049999999215,"midi":47,"time":109.91371250000002,"velocity":0.30708661417322836},{"duration":0.25862049999999215,"midi":35,"time":109.91371250000002,"velocity":0.30708661417322836},{"duration":0.25862049999999215,"midi":35,"time":110.04302275000002,"velocity":0.30708661417322836},{"duration":0.25862049999999215,"midi":47,"time":110.04302275000002,"velocity":0.30708661417322836},{"duration":0.25862049999999215,"midi":47,"time":110.43095350000002,"velocity":0.30708661417322836},{"duration":0.25862049999999215,"midi":35,"time":110.43095350000002,"velocity":0.30708661417322836},{"duration":0.25862049999999215,"midi":35,"time":110.56026375000002,"velocity":0.30708661417322836},{"duration":0.25862049999999215,"midi":47,"time":110.56026375000002,"velocity":0.30708661417322836},{"duration":0.25862050000000636,"midi":47,"time":110.94819450000001,"velocity":0.30708661417322836},{"duration":0.25862050000000636,"midi":35,"time":110.94819450000001,"velocity":0.30708661417322836},{"duration":0.25862049999999215,"midi":35,"time":111.07750475000002,"velocity":0.30708661417322836},{"duration":0.25862049999999215,"midi":47,"time":111.07750475000002,"velocity":0.30708661417322836},{"duration":0.25862050000000636,"midi":35,"time":111.46543550000001,"velocity":0.30708661417322836},{"duration":0.25862050000000636,"midi":47,"time":111.46543550000001,"velocity":0.30708661417322836},{"duration":0.25862049999999215,"midi":35,"time":111.59474575000002,"velocity":0.30708661417322836},{"duration":0.25862049999999215,"midi":47,"time":111.59474575000002,"velocity":0.30708661417322836},{"duration":0.25862050000000636,"midi":37,"time":111.98267650000001,"velocity":0.30708661417322836},{"duration":0.25862050000000636,"midi":49,"time":111.98267650000001,"velocity":0.30708661417322836},{"duration":0.25862050000000636,"midi":37,"time":112.11198675000001,"velocity":0.30708661417322836},{"duration":0.25862050000000636,"midi":49,"time":112.11198675000001,"velocity":0.30708661417322836},{"duration":0.25862050000000636,"midi":37,"time":112.49991750000001,"velocity":0.30708661417322836},{"duration":0.25862050000000636,"midi":49,"time":112.49991750000001,"velocity":0.30708661417322836},{"duration":0.25862050000000636,"midi":37,"time":112.62922775000001,"velocity":0.30708661417322836},{"duration":0.25862050000000636,"midi":49,"time":112.62922775000001,"velocity":0.30708661417322836},{"duration":0.25862050000000636,"midi":37,"time":113.01715850000001,"velocity":0.30708661417322836},{"duration":0.25862050000000636,"midi":49,"time":113.01715850000001,"velocity":0.30708661417322836},{"duration":0.25862050000000636,"midi":37,"time":113.14646875000001,"velocity":0.30708661417322836},{"duration":0.25862050000000636,"midi":49,"time":113.14646875000001,"velocity":0.30708661417322836},{"duration":0.25862049999999215,"midi":49,"time":113.53439950000002,"velocity":0.30708661417322836},{"duration":0.25862049999999215,"midi":37,"time":113.53439950000002,"velocity":0.30708661417322836},{"duration":0.25862050000000636,"midi":49,"time":113.66370975000001,"velocity":0.30708661417322836},{"duration":0.25862050000000636,"midi":37,"time":113.66370975000001,"velocity":0.30708661417322836},{"duration":0.25862049999999215,"midi":37,"time":114.05164050000002,"velocity":0.30708661417322836},{"duration":0.25862049999999215,"midi":49,"time":114.05164050000002,"velocity":0.30708661417322836},{"duration":0.25862050000000636,"midi":49,"time":114.18095075000001,"velocity":0.30708661417322836},{"duration":0.25862050000000636,"midi":37,"time":114.18095075000001,"velocity":0.30708661417322836},{"duration":0.25862049999999215,"midi":37,"time":114.56888150000002,"velocity":0.30708661417322836},{"duration":0.25862049999999215,"midi":49,"time":114.56888150000002,"velocity":0.30708661417322836},{"duration":0.25862049999999215,"midi":37,"time":114.69819175000002,"velocity":0.30708661417322836},{"duration":0.25862049999999215,"midi":49,"time":114.69819175000002,"velocity":0.30708661417322836},{"duration":0.25862049999999215,"midi":47,"time":115.08612250000002,"velocity":0.30708661417322836},{"duration":0.25862049999999215,"midi":35,"time":115.08612250000002,"velocity":0.30708661417322836},{"duration":0.25862049999999215,"midi":35,"time":115.21543275000002,"velocity":0.30708661417322836},{"duration":0.25862049999999215,"midi":47,"time":115.21543275000002,"velocity":0.30708661417322836},{"duration":0.25862049999999215,"midi":35,"time":115.60336350000001,"velocity":0.30708661417322836},{"duration":0.25862049999999215,"midi":47,"time":115.60336350000001,"velocity":0.30708661417322836},{"duration":0.25862049999999215,"midi":35,"time":115.73267375000002,"velocity":0.30708661417322836},{"duration":0.25862049999999215,"midi":47,"time":115.73267375000002,"velocity":0.30708661417322836},{"duration":0.25862050000000636,"midi":45,"time":116.12060450000001,"velocity":0.30708661417322836},{"duration":0.25862050000000636,"midi":33,"time":116.12060450000001,"velocity":0.30708661417322836},{"duration":0.25862049999999215,"midi":33,"time":116.24991475000002,"velocity":0.30708661417322836},{"duration":0.25862049999999215,"midi":45,"time":116.24991475000002,"velocity":0.30708661417322836},{"duration":0.25862050000000636,"midi":33,"time":116.63784550000001,"velocity":0.30708661417322836},{"duration":0.25862050000000636,"midi":45,"time":116.63784550000001,"velocity":0.30708661417322836},{"duration":0.25862049999999215,"midi":45,"time":116.76715575000001,"velocity":0.30708661417322836},{"duration":0.25862049999999215,"midi":33,"time":116.76715575000001,"velocity":0.30708661417322836},{"duration":0.25862050000000636,"midi":45,"time":117.15508650000001,"velocity":0.30708661417322836},{"duration":0.25862050000000636,"midi":33,"time":117.15508650000001,"velocity":0.30708661417322836},{"duration":0.25862050000000636,"midi":33,"time":117.28439675000001,"velocity":0.30708661417322836},{"duration":0.25862050000000636,"midi":45,"time":117.28439675000001,"velocity":0.30708661417322836},{"duration":0.25862050000000636,"midi":45,"time":117.67232750000001,"velocity":0.30708661417322836},{"duration":0.25862050000000636,"midi":33,"time":117.67232750000001,"velocity":0.30708661417322836},{"duration":0.25862050000000636,"midi":33,"time":117.80163775000001,"velocity":0.30708661417322836},{"duration":0.25862050000000636,"midi":45,"time":117.80163775000001,"velocity":0.30708661417322836},{"duration":0.25862050000000636,"midi":47,"time":118.18956850000001,"velocity":0.30708661417322836},{"duration":0.25862050000000636,"midi":35,"time":118.18956850000001,"velocity":0.30708661417322836},{"duration":0.25862050000000636,"midi":47,"time":118.31887875000001,"velocity":0.30708661417322836},{"duration":0.25862050000000636,"midi":35,"time":118.31887875000001,"velocity":0.30708661417322836},{"duration":0.25862049999999215,"midi":35,"time":118.70680950000002,"velocity":0.30708661417322836},{"duration":0.25862049999999215,"midi":47,"time":118.70680950000002,"velocity":0.30708661417322836},{"duration":0.25862050000000636,"midi":47,"time":118.83611975000001,"velocity":0.30708661417322836},{"duration":0.25862050000000636,"midi":35,"time":118.83611975000001,"velocity":0.30708661417322836},{"duration":0.25862049999999215,"midi":47,"time":119.22405050000002,"velocity":0.30708661417322836},{"duration":0.25862049999999215,"midi":35,"time":119.22405050000002,"velocity":0.30708661417322836},{"duration":0.25862050000000636,"midi":47,"time":119.35336075000001,"velocity":0.30708661417322836},{"duration":0.25862050000000636,"midi":35,"time":119.35336075000001,"velocity":0.30708661417322836},{"duration":0.25862049999999215,"midi":47,"time":119.74129150000002,"velocity":0.30708661417322836},{"duration":0.25862049999999215,"midi":35,"time":119.74129150000002,"velocity":0.30708661417322836},{"duration":0.25862049999999215,"midi":47,"time":119.87060175000002,"velocity":0.30708661417322836},{"duration":0.25862049999999215,"midi":35,"time":119.87060175000002,"velocity":0.30708661417322836},{"duration":0.25862049999999215,"midi":37,"time":120.25853250000002,"velocity":0.30708661417322836},{"duration":0.25862049999999215,"midi":49,"time":120.25853250000002,"velocity":0.30708661417322836},{"duration":0.25862049999999215,"midi":49,"time":120.38784275000002,"velocity":0.30708661417322836},{"duration":0.25862049999999215,"midi":37,"time":120.38784275000002,"velocity":0.30708661417322836},{"duration":0.25862050000000636,"midi":49,"time":120.77577350000001,"velocity":0.30708661417322836},{"duration":0.25862050000000636,"midi":37,"time":120.77577350000001,"velocity":0.30708661417322836},{"duration":0.25862049999999215,"midi":37,"time":120.90508375000002,"velocity":0.30708661417322836},{"duration":0.25862049999999215,"midi":49,"time":120.90508375000002,"velocity":0.30708661417322836},{"duration":0.25862050000000636,"midi":49,"time":121.29301450000001,"velocity":0.30708661417322836},{"duration":0.25862050000000636,"midi":37,"time":121.29301450000001,"velocity":0.30708661417322836},{"duration":0.25862049999999215,"midi":49,"time":121.42232475000002,"velocity":0.30708661417322836},{"duration":0.25862049999999215,"midi":37,"time":121.42232475000002,"velocity":0.30708661417322836},{"duration":0.25862050000000636,"midi":49,"time":121.81025550000001,"velocity":0.30708661417322836},{"duration":0.25862050000000636,"midi":37,"time":121.81025550000001,"velocity":0.30708661417322836},{"duration":0.25862050000000636,"midi":37,"time":121.93956575000001,"velocity":0.30708661417322836},{"duration":0.25862050000000636,"midi":49,"time":121.93956575000001,"velocity":0.30708661417322836},{"duration":0.25862050000000636,"midi":37,"time":122.32749650000001,"velocity":0.30708661417322836},{"duration":0.25862050000000636,"midi":49,"time":122.32749650000001,"velocity":0.30708661417322836},{"duration":0.25862050000000636,"midi":49,"time":122.45680675000001,"velocity":0.30708661417322836},{"duration":0.25862050000000636,"midi":37,"time":122.45680675000001,"velocity":0.30708661417322836},{"duration":0.25862050000000636,"midi":49,"time":122.84473750000001,"velocity":0.30708661417322836},{"duration":0.25862050000000636,"midi":37,"time":122.84473750000001,"velocity":0.30708661417322836},{"duration":0.25862050000000636,"midi":49,"time":122.97404775000001,"velocity":0.30708661417322836},{"duration":0.25862050000000636,"midi":37,"time":122.97404775000001,"velocity":0.30708661417322836},{"duration":0.25862049999999215,"midi":47,"time":123.36197850000002,"velocity":0.30708661417322836},{"duration":0.25862049999999215,"midi":35,"time":123.36197850000002,"velocity":0.30708661417322836},{"duration":0.25862050000000636,"midi":35,"time":123.49128875000001,"velocity":0.30708661417322836},{"duration":0.25862050000000636,"midi":47,"time":123.49128875000001,"velocity":0.30708661417322836},{"duration":0.25862049999999215,"midi":47,"time":123.87921950000002,"velocity":0.30708661417322836},{"duration":0.25862049999999215,"midi":35,"time":123.87921950000002,"velocity":0.30708661417322836},{"duration":0.25862050000000636,"midi":35,"time":124.00852975000001,"velocity":0.30708661417322836},{"duration":0.25862050000000636,"midi":47,"time":124.00852975000001,"velocity":0.30708661417322836},{"duration":0.25862049999999215,"midi":45,"time":124.39646050000002,"velocity":0.30708661417322836},{"duration":0.25862049999999215,"midi":33,"time":124.39646050000002,"velocity":0.30708661417322836},{"duration":0.25862049999999215,"midi":33,"time":124.52577075000002,"velocity":0.30708661417322836},{"duration":0.25862049999999215,"midi":45,"time":124.52577075000002,"velocity":0.30708661417322836},{"duration":0.25862049999999215,"midi":33,"time":124.91370150000002,"velocity":0.30708661417322836},{"duration":0.25862049999999215,"midi":45,"time":124.91370150000002,"velocity":0.30708661417322836},{"duration":0.25862049999999215,"midi":33,"time":125.04301175000002,"velocity":0.30708661417322836},{"duration":0.25862049999999215,"midi":45,"time":125.04301175000002,"velocity":0.30708661417322836},{"duration":0.25862050000000636,"midi":45,"time":125.43094250000001,"velocity":0.30708661417322836},{"duration":0.25862050000000636,"midi":33,"time":125.43094250000001,"velocity":0.30708661417322836},{"duration":0.25862049999999215,"midi":33,"time":125.56025275000002,"velocity":0.30708661417322836},{"duration":0.25862049999999215,"midi":45,"time":125.56025275000002,"velocity":0.30708661417322836},{"duration":0.25862050000000636,"midi":45,"time":125.94818350000001,"velocity":0.30708661417322836},{"duration":0.25862050000000636,"midi":33,"time":125.94818350000001,"velocity":0.30708661417322836},{"duration":0.25862049999999215,"midi":33,"time":126.07749375000002,"velocity":0.30708661417322836},{"duration":0.25862049999999215,"midi":45,"time":126.07749375000002,"velocity":0.30708661417322836},{"duration":0.25862050000000636,"midi":35,"time":126.46542450000001,"velocity":0.30708661417322836},{"duration":0.25862050000000636,"midi":47,"time":126.46542450000001,"velocity":0.30708661417322836},{"duration":0.25862050000000636,"midi":35,"time":126.59473475000001,"velocity":0.30708661417322836},{"duration":0.25862050000000636,"midi":47,"time":126.59473475000001,"velocity":0.30708661417322836},{"duration":0.25862050000000636,"midi":47,"time":126.98266550000001,"velocity":0.30708661417322836},{"duration":0.25862050000000636,"midi":35,"time":126.98266550000001,"velocity":0.30708661417322836},{"duration":0.25862050000000636,"midi":47,"time":127.11197575000001,"velocity":0.30708661417322836},{"duration":0.25862050000000636,"midi":35,"time":127.11197575000001,"velocity":0.30708661417322836},{"duration":0.25862050000000636,"midi":35,"time":127.49990650000001,"velocity":0.30708661417322836},{"duration":0.25862050000000636,"midi":47,"time":127.49990650000001,"velocity":0.30708661417322836},{"duration":0.25862050000000636,"midi":47,"time":127.62921675000001,"velocity":0.30708661417322836},{"duration":0.25862050000000636,"midi":35,"time":127.62921675000001,"velocity":0.30708661417322836},{"duration":0.25862050000000636,"midi":47,"time":128.01714750000002,"velocity":0.30708661417322836},{"duration":0.25862050000000636,"midi":35,"time":128.01714750000002,"velocity":0.30708661417322836},{"duration":0.25862049999997794,"midi":47,"time":128.14645775000002,"velocity":0.30708661417322836},{"duration":0.25862049999997794,"midi":35,"time":128.14645775000002,"velocity":0.30708661417322836},{"duration":0.25862050000000636,"midi":49,"time":128.5343885,"velocity":0.30708661417322836},{"duration":0.25862050000000636,"midi":37,"time":128.5343885,"velocity":0.30708661417322836},{"duration":0.25862050000000636,"midi":37,"time":128.66369875,"velocity":0.30708661417322836},{"duration":0.25862050000000636,"midi":49,"time":128.66369875,"velocity":0.30708661417322836},{"duration":0.25862050000000636,"midi":49,"time":129.05162950000002,"velocity":0.30708661417322836},{"duration":0.25862050000000636,"midi":37,"time":129.05162950000002,"velocity":0.30708661417322836},{"duration":0.25862050000000636,"midi":49,"time":129.18093975000002,"velocity":0.30708661417322836},{"duration":0.25862050000000636,"midi":37,"time":129.18093975000002,"velocity":0.30708661417322836},{"duration":0.25862050000000636,"midi":37,"time":129.5688705,"velocity":0.30708661417322836},{"duration":0.25862050000000636,"midi":49,"time":129.5688705,"velocity":0.30708661417322836},{"duration":0.25862050000000636,"midi":37,"time":129.69818075,"velocity":0.30708661417322836},{"duration":0.25862050000000636,"midi":49,"time":129.69818075,"velocity":0.30708661417322836},{"duration":0.25862050000000636,"midi":37,"time":130.08611150000002,"velocity":0.30708661417322836},{"duration":0.25862050000000636,"midi":49,"time":130.08611150000002,"velocity":0.30708661417322836},{"duration":0.25862050000000636,"midi":49,"time":130.21542175000002,"velocity":0.30708661417322836},{"duration":0.25862050000000636,"midi":37,"time":130.21542175000002,"velocity":0.30708661417322836},{"duration":0.25862049999997794,"midi":37,"time":130.60335250000003,"velocity":0.30708661417322836},{"duration":0.25862049999997794,"midi":49,"time":130.60335250000003,"velocity":0.30708661417322836},{"duration":0.25862050000000636,"midi":49,"time":130.73266275,"velocity":0.30708661417322836},{"duration":0.25862050000000636,"midi":37,"time":130.73266275,"velocity":0.30708661417322836},{"duration":0.25862050000000636,"midi":37,"time":131.1205935,"velocity":0.30708661417322836},{"duration":0.25862050000000636,"midi":49,"time":131.1205935,"velocity":0.30708661417322836},{"duration":0.25862050000000636,"midi":49,"time":131.24990375000002,"velocity":0.30708661417322836},{"duration":0.25862050000000636,"midi":37,"time":131.24990375000002,"velocity":0.30708661417322836},{"duration":0.25862049999997794,"midi":47,"time":131.63783450000003,"velocity":0.30708661417322836},{"duration":0.25862049999997794,"midi":35,"time":131.63783450000003,"velocity":0.30708661417322836},{"duration":0.25862049999997794,"midi":47,"time":131.76714475000003,"velocity":0.30708661417322836},{"duration":0.25862049999997794,"midi":35,"time":131.76714475000003,"velocity":0.30708661417322836},{"duration":0.25862050000000636,"midi":35,"time":132.1550755,"velocity":0.30708661417322836},{"duration":0.25862050000000636,"midi":47,"time":132.1550755,"velocity":0.30708661417322836},{"duration":0.25862050000000636,"midi":35,"time":132.28438575,"velocity":0.30708661417322836},{"duration":0.25862050000000636,"midi":47,"time":132.28438575,"velocity":0.30708661417322836},{"duration":0.25862049999997794,"midi":45,"time":149.22402850000003,"velocity":0.30708661417322836},{"duration":0.25862049999997794,"midi":33,"time":149.22402850000003,"velocity":0.30708661417322836},{"duration":0.25862050000000636,"midi":45,"time":149.35333875,"velocity":0.30708661417322836},{"duration":0.25862050000000636,"midi":33,"time":149.35333875,"velocity":0.30708661417322836},{"duration":0.25862050000000636,"midi":45,"time":149.74126950000002,"velocity":0.30708661417322836},{"duration":0.25862050000000636,"midi":33,"time":149.74126950000002,"velocity":0.30708661417322836},{"duration":0.25862050000000636,"midi":33,"time":149.87057975000002,"velocity":0.30708661417322836},{"duration":0.25862050000000636,"midi":45,"time":149.87057975000002,"velocity":0.30708661417322836},{"duration":0.25862049999997794,"midi":33,"time":150.25851050000003,"velocity":0.30708661417322836},{"duration":0.25862049999997794,"midi":45,"time":150.25851050000003,"velocity":0.30708661417322836},{"duration":0.25862049999997794,"midi":45,"time":150.38782075000003,"velocity":0.30708661417322836},{"duration":0.25862049999997794,"midi":33,"time":150.38782075000003,"velocity":0.30708661417322836},{"duration":0.25862050000000636,"midi":45,"time":150.7757515,"velocity":0.30708661417322836},{"duration":0.25862050000000636,"midi":33,"time":150.7757515,"velocity":0.30708661417322836},{"duration":0.25862050000000636,"midi":45,"time":150.90506175000002,"velocity":0.30708661417322836},{"duration":0.25862050000000636,"midi":33,"time":150.90506175000002,"velocity":0.30708661417322836},{"duration":0.25862050000000636,"midi":35,"time":151.29299250000003,"velocity":0.30708661417322836},{"duration":0.25862050000000636,"midi":47,"time":151.29299250000003,"velocity":0.30708661417322836},{"duration":0.25862049999997794,"midi":35,"time":151.42230275000003,"velocity":0.30708661417322836},{"duration":0.25862049999997794,"midi":47,"time":151.42230275000003,"velocity":0.30708661417322836},{"duration":0.25862050000000636,"midi":47,"time":151.8102335,"velocity":0.30708661417322836},{"duration":0.25862050000000636,"midi":35,"time":151.8102335,"velocity":0.30708661417322836},{"duration":0.25862050000000636,"midi":35,"time":151.93954375,"velocity":0.30708661417322836},{"duration":0.25862050000000636,"midi":47,"time":151.93954375,"velocity":0.30708661417322836},{"duration":0.25862050000000636,"midi":47,"time":152.32747450000002,"velocity":0.30708661417322836},{"duration":0.25862050000000636,"midi":35,"time":152.32747450000002,"velocity":0.30708661417322836},{"duration":0.25862050000000636,"midi":47,"time":152.45678475000003,"velocity":0.30708661417322836},{"duration":0.25862050000000636,"midi":35,"time":152.45678475000003,"velocity":0.30708661417322836},{"duration":0.25862050000000636,"midi":47,"time":152.8447155,"velocity":0.30708661417322836},{"duration":0.25862050000000636,"midi":35,"time":152.8447155,"velocity":0.30708661417322836},{"duration":0.25862050000000636,"midi":35,"time":152.97402575,"velocity":0.30708661417322836},{"duration":0.25862050000000636,"midi":47,"time":152.97402575,"velocity":0.30708661417322836},{"duration":0.25862050000000636,"midi":49,"time":153.36195650000002,"velocity":0.30708661417322836},{"duration":0.25862050000000636,"midi":37,"time":153.36195650000002,"velocity":0.30708661417322836},{"duration":0.25862050000000636,"midi":37,"time":153.49126675000002,"velocity":0.30708661417322836},{"duration":0.25862050000000636,"midi":49,"time":153.49126675000002,"velocity":0.30708661417322836},{"duration":0.25862049999997794,"midi":49,"time":153.87919750000003,"velocity":0.30708661417322836},{"duration":0.25862049999997794,"midi":37,"time":153.87919750000003,"velocity":0.30708661417322836},{"duration":0.25862050000000636,"midi":37,"time":154.00850775,"velocity":0.30708661417322836},{"duration":0.25862050000000636,"midi":49,"time":154.00850775,"velocity":0.30708661417322836},{"duration":0.25862050000000636,"midi":37,"time":154.39643850000002,"velocity":0.30708661417322836},{"duration":0.25862050000000636,"midi":49,"time":154.39643850000002,"velocity":0.30708661417322836},{"duration":0.25862050000000636,"midi":49,"time":154.52574875000002,"velocity":0.30708661417322836},{"duration":0.25862050000000636,"midi":37,"time":154.52574875000002,"velocity":0.30708661417322836},{"duration":0.25862049999997794,"midi":49,"time":154.91367950000003,"velocity":0.30708661417322836},{"duration":0.25862049999997794,"midi":37,"time":154.91367950000003,"velocity":0.30708661417322836},{"duration":0.25862049999997794,"midi":49,"time":155.04298975000003,"velocity":0.30708661417322836},{"duration":0.25862049999997794,"midi":37,"time":155.04298975000003,"velocity":0.30708661417322836},{"duration":0.25862050000000636,"midi":37,"time":155.4309205,"velocity":0.30708661417322836},{"duration":0.25862050000000636,"midi":49,"time":155.4309205,"velocity":0.30708661417322836},{"duration":0.25862050000000636,"midi":49,"time":155.56023075000002,"velocity":0.30708661417322836},{"duration":0.25862050000000636,"midi":37,"time":155.56023075000002,"velocity":0.30708661417322836},{"duration":0.25862050000000636,"midi":37,"time":155.94816150000003,"velocity":0.30708661417322836},{"duration":0.25862050000000636,"midi":49,"time":155.94816150000003,"velocity":0.30708661417322836},{"duration":0.25862049999997794,"midi":49,"time":156.07747175000003,"velocity":0.30708661417322836},{"duration":0.25862049999997794,"midi":37,"time":156.07747175000003,"velocity":0.30708661417322836},{"duration":0.25862050000000636,"midi":37,"time":156.4654025,"velocity":0.30708661417322836},{"duration":0.25862050000000636,"midi":49,"time":156.4654025,"velocity":0.30708661417322836},{"duration":0.25862050000000636,"midi":37,"time":156.59471275,"velocity":0.30708661417322836},{"duration":0.25862050000000636,"midi":49,"time":156.59471275,"velocity":0.30708661417322836},{"duration":0.25862050000000636,"midi":49,"time":156.98264350000002,"velocity":0.30708661417322836},{"duration":0.25862050000000636,"midi":37,"time":156.98264350000002,"velocity":0.30708661417322836},{"duration":0.25862050000000636,"midi":37,"time":157.11195375000003,"velocity":0.30708661417322836},{"duration":0.25862050000000636,"midi":49,"time":157.11195375000003,"velocity":0.30708661417322836},{"duration":0.25862050000000636,"midi":45,"time":157.4998845,"velocity":0.30708661417322836},{"duration":0.25862050000000636,"midi":33,"time":157.4998845,"velocity":0.30708661417322836},{"duration":0.25862050000000636,"midi":45,"time":157.62919475,"velocity":0.30708661417322836},{"duration":0.25862050000000636,"midi":33,"time":157.62919475,"velocity":0.30708661417322836},{"duration":0.25862050000000636,"midi":45,"time":158.01712550000002,"velocity":0.30708661417322836},{"duration":0.25862050000000636,"midi":33,"time":158.01712550000002,"velocity":0.30708661417322836},{"duration":0.25862050000000636,"midi":45,"time":158.14643575000002,"velocity":0.30708661417322836},{"duration":0.25862050000000636,"midi":33,"time":158.14643575000002,"velocity":0.30708661417322836},{"duration":0.25862049999997794,"midi":33,"time":158.53436650000003,"velocity":0.30708661417322836},{"duration":0.25862049999997794,"midi":45,"time":158.53436650000003,"velocity":0.30708661417322836},{"duration":0.25862050000000636,"midi":33,"time":158.66367675,"velocity":0.30708661417322836},{"duration":0.25862050000000636,"midi":45,"time":158.66367675,"velocity":0.30708661417322836},{"duration":0.25862050000000636,"midi":33,"time":159.05160750000002,"velocity":0.30708661417322836},{"duration":0.25862050000000636,"midi":45,"time":159.05160750000002,"velocity":0.30708661417322836},{"duration":0.25862050000000636,"midi":33,"time":159.18091775000002,"velocity":0.30708661417322836},{"duration":0.25862050000000636,"midi":45,"time":159.18091775000002,"velocity":0.30708661417322836},{"duration":0.25862049999997794,"midi":47,"time":159.56884850000003,"velocity":0.30708661417322836},{"duration":0.25862049999997794,"midi":35,"time":159.56884850000003,"velocity":0.30708661417322836},{"duration":0.25862049999997794,"midi":47,"time":159.69815875000003,"velocity":0.30708661417322836},{"duration":0.25862049999997794,"midi":35,"time":159.69815875000003,"velocity":0.30708661417322836},{"duration":0.25862050000000636,"midi":35,"time":160.0860895,"velocity":0.30708661417322836},{"duration":0.25862050000000636,"midi":47,"time":160.0860895,"velocity":0.30708661417322836},{"duration":0.25862050000000636,"midi":47,"time":160.21539975000002,"velocity":0.30708661417322836},{"duration":0.25862050000000636,"midi":35,"time":160.21539975000002,"velocity":0.30708661417322836},{"duration":0.25862050000000636,"midi":35,"time":160.60333050000003,"velocity":0.30708661417322836},{"duration":0.25862050000000636,"midi":47,"time":160.60333050000003,"velocity":0.30708661417322836},{"duration":0.25862049999997794,"midi":47,"time":160.73264075000003,"velocity":0.30708661417322836},{"duration":0.25862049999997794,"midi":35,"time":160.73264075000003,"velocity":0.30708661417322836},{"duration":0.25862050000000636,"midi":35,"time":161.1205715,"velocity":0.30708661417322836},{"duration":0.25862050000000636,"midi":47,"time":161.1205715,"velocity":0.30708661417322836},{"duration":0.25862050000000636,"midi":47,"time":161.24988175000001,"velocity":0.30708661417322836},{"duration":0.25862050000000636,"midi":35,"time":161.24988175000001,"velocity":0.30708661417322836},{"duration":0.25862050000000636,"midi":37,"time":161.63781250000002,"velocity":0.30708661417322836},{"duration":0.25862050000000636,"midi":49,"time":161.63781250000002,"velocity":0.30708661417322836},{"duration":0.25862050000000636,"midi":49,"time":161.76712275000003,"velocity":0.30708661417322836},{"duration":0.25862050000000636,"midi":37,"time":161.76712275000003,"velocity":0.30708661417322836},{"duration":0.25862050000000636,"midi":37,"time":162.1550535,"velocity":0.30708661417322836},{"duration":0.25862050000000636,"midi":49,"time":162.1550535,"velocity":0.30708661417322836},{"duration":0.25862050000000636,"midi":49,"time":162.28436375,"velocity":0.30708661417322836},{"duration":0.25862050000000636,"midi":37,"time":162.28436375,"velocity":0.30708661417322836},{"duration":0.25862050000000636,"midi":49,"time":162.67229450000002,"velocity":0.30708661417322836},{"duration":0.25862050000000636,"midi":37,"time":162.67229450000002,"velocity":0.30708661417322836},{"duration":0.25862050000000636,"midi":49,"time":162.80160475000002,"velocity":0.30708661417322836},{"duration":0.25862050000000636,"midi":37,"time":162.80160475000002,"velocity":0.30708661417322836},{"duration":0.25862049999997794,"midi":37,"time":163.18953550000003,"velocity":0.30708661417322836},{"duration":0.25862049999997794,"midi":49,"time":163.18953550000003,"velocity":0.30708661417322836},{"duration":0.25862050000000636,"midi":49,"time":163.31884575,"velocity":0.30708661417322836},{"duration":0.25862050000000636,"midi":37,"time":163.31884575,"velocity":0.30708661417322836}]},{"instrument":{"family":"synth lead","number":82,"name":"lead 3 (calliope)"},"notes":[{"duration":0.25862050000000003,"midi":54,"time":0.25862050000000003,"velocity":0.30708661417322836},{"duration":0.25862050000000003,"midi":54,"time":0.7758615000000001,"velocity":0.30708661417322836},{"duration":0.2586204999999999,"midi":54,"time":1.2931025000000003,"velocity":0.30708661417322836},{"duration":0.25862050000000014,"midi":54,"time":1.8103435,"velocity":0.30708661417322836},{"duration":0.25862050000000014,"midi":54,"time":2.3275845000000004,"velocity":0.30708661417322836},{"duration":0.25862050000000014,"midi":54,"time":2.8448255000000002,"velocity":0.30708661417322836},{"duration":0.2586204999999997,"midi":54,"time":3.3620665000000005,"velocity":0.30708661417322836},{"duration":0.25862050000000014,"midi":54,"time":3.8793075000000004,"velocity":0.30708661417322836},{"duration":0.25862050000000014,"midi":61,"time":4.396548500000001,"velocity":0.30708661417322836},{"duration":0.25862050000000014,"midi":61,"time":4.913789500000001,"velocity":0.30708661417322836},{"duration":0.25862050000000014,"midi":61,"time":5.4310305,"velocity":0.30708661417322836},{"duration":0.25862050000000014,"midi":61,"time":5.948271500000001,"velocity":0.30708661417322836},{"duration":0.25862050000000014,"midi":61,"time":6.465512500000001,"velocity":0.30708661417322836},{"duration":0.25862049999999925,"midi":61,"time":6.982753500000001,"velocity":0.30708661417322836},{"duration":0.25862050000000014,"midi":61,"time":7.499994500000001,"velocity":0.30708661417322836},{"duration":0.25862049999999925,"midi":61,"time":8.017235500000002,"velocity":0.30708661417322836},{"duration":0.25862050000000103,"midi":54,"time":8.5344765,"velocity":0.30708661417322836},{"duration":0.25862050000000103,"midi":54,"time":9.0517175,"velocity":0.30708661417322836},{"duration":0.25862050000000103,"midi":54,"time":9.5689585,"velocity":0.30708661417322836},{"duration":0.25862050000000103,"midi":54,"time":10.086199500000001,"velocity":0.30708661417322836},{"duration":0.25862049999999925,"midi":54,"time":10.603440500000001,"velocity":0.30708661417322836},{"duration":0.25862049999999925,"midi":54,"time":11.120681500000002,"velocity":0.30708661417322836},{"duration":0.25862049999999925,"midi":54,"time":11.637922500000002,"velocity":0.30708661417322836},{"duration":0.25862049999999925,"midi":54,"time":12.155163500000002,"velocity":0.30708661417322836},{"duration":0.25862050000000103,"midi":61,"time":12.6724045,"velocity":0.30708661417322836},{"duration":0.25862050000000103,"midi":61,"time":13.189645500000001,"velocity":0.30708661417322836},{"duration":0.25862050000000103,"midi":61,"time":13.706886500000001,"velocity":0.30708661417322836},{"duration":0.25862049999999925,"midi":61,"time":14.224127500000002,"velocity":0.30708661417322836},{"duration":0.12931024999999963,"midi":73,"time":16.68102225,"velocity":0.30708661417322836},{"duration":0.12931024999999963,"midi":73,"time":16.93964275,"velocity":0.30708661417322836},{"duration":0.12931024999999963,"midi":72,"time":17.198263250000004,"velocity":0.30708661417322836},{"duration":0.12931024999999963,"midi":72,"time":17.456883750000003,"velocity":0.30708661417322836},{"duration":0.12931024999999963,"midi":68,"time":17.715504250000002,"velocity":0.30708661417322836},{"duration":0.12931024999999963,"midi":65,"time":17.877142062500003,"velocity":0.30708661417322836},{"duration":0.12931024999999963,"midi":68,"time":17.97412475,"velocity":0.30708661417322836},{"duration":0.12931024999999963,"midi":61,"time":18.3943830625,"velocity":0.30708661417322836},{"duration":0.12931024999999963,"midi":63,"time":18.491365750000003,"velocity":0.30708661417322836},{"duration":0.12931024999999963,"midi":61,"time":18.653003562500004,"velocity":0.30708661417322836},{"duration":0.12931024999999963,"midi":73,"time":18.749986250000003,"velocity":0.30708661417322836},{"duration":0.12931024999999963,"midi":73,"time":19.008606750000002,"velocity":0.30708661417322836},{"duration":0.12931024999999963,"midi":72,"time":19.26722725,"velocity":0.30708661417322836},{"duration":0.12931024999999963,"midi":72,"time":19.525847750000004,"velocity":0.30708661417322836},{"duration":0.12931024999999963,"midi":68,"time":19.784468250000003,"velocity":0.30708661417322836},{"duration":0.12931024999999963,"midi":65,"time":19.946106062500004,"velocity":0.30708661417322836},{"duration":0.12931024999999963,"midi":68,"time":20.043088750000003,"velocity":0.30708661417322836},{"duration":0.12931024999999963,"midi":61,"time":20.463347062500002,"velocity":0.30708661417322836},{"duration":0.12931025000000318,"midi":63,"time":20.56032975,"velocity":0.30708661417322836},{"duration":0.12931024999999963,"midi":61,"time":20.7219675625,"velocity":0.30708661417322836},{"duration":0.12931024999999963,"midi":65,"time":20.818950250000004,"velocity":0.30708661417322836},{"duration":0.12931024999999963,"midi":65,"time":21.077570750000003,"velocity":0.30708661417322836},{"duration":0.12931024999999963,"midi":63,"time":21.336191250000002,"velocity":0.30708661417322836},{"duration":0.12931024999999963,"midi":63,"time":21.59481175,"velocity":0.30708661417322836},{"duration":0.12931025000000318,"midi":61,"time":21.85343225,"velocity":0.30708661417322836},{"duration":0.12931024999999963,"midi":60,"time":22.0150700625,"velocity":0.30708661417322836},{"duration":0.12931024999999963,"midi":61,"time":22.112052750000004,"velocity":0.30708661417322836},{"duration":0.12931024999999963,"midi":68,"time":22.532311062500003,"velocity":0.30708661417322836},{"duration":0.12931024999999963,"midi":70,"time":22.629293750000002,"velocity":0.30708661417322836},{"duration":0.12931024999999963,"midi":68,"time":22.790931562500003,"velocity":0.30708661417322836},{"duration":0.12931024999999963,"midi":77,"time":22.88791425,"velocity":0.30708661417322836},{"duration":0.12931024999999963,"midi":78,"time":23.146534750000004,"velocity":0.30708661417322836},{"duration":0.12931024999999963,"midi":77,"time":23.405155250000004,"velocity":0.30708661417322836},{"duration":0.12931024999999963,"midi":75,"time":23.663775750000003,"velocity":0.30708661417322836},{"duration":0.12931024999999963,"midi":73,"time":23.922396250000002,"velocity":0.30708661417322836},{"duration":0.12931024999999963,"midi":72,"time":24.084034062500002,"velocity":0.30708661417322836},{"duration":0.12931025000000318,"midi":73,"time":24.18101675,"velocity":0.30708661417322836},{"duration":0.12931024999999963,"midi":68,"time":24.439637250000004,"velocity":0.30708661417322836},{"duration":0.12931024999999963,"midi":70,"time":24.698257750000003,"velocity":0.30708661417322836},{"duration":0.12931024999999963,"midi":73,"time":24.956878250000003,"velocity":0.30708661417322836},{"duration":0.12931024999999963,"midi":73,"time":25.215498750000002,"velocity":0.30708661417322836},{"duration":0.12931024999999963,"midi":72,"time":25.474119250000005,"velocity":0.30708661417322836},{"duration":0.12931024999999963,"midi":72,"time":25.732739750000004,"velocity":0.30708661417322836},{"duration":0.12931024999999963,"midi":68,"time":25.991360250000003,"velocity":0.30708661417322836},{"duration":0.12931024999999963,"midi":65,"time":26.152998062500004,"velocity":0.30708661417322836},{"duration":0.12931024999999963,"midi":68,"time":26.249980750000002,"velocity":0.30708661417322836},{"duration":0.12931024999999963,"midi":61,"time":26.670239062500002,"velocity":0.30708661417322836},{"duration":0.12931024999999963,"midi":63,"time":26.767221750000004,"velocity":0.30708661417322836},{"duration":0.12931024999999963,"midi":61,"time":26.928859562500005,"velocity":0.30708661417322836},{"duration":0.12931024999999963,"midi":73,"time":27.025842250000004,"velocity":0.30708661417322836},{"duration":0.12931024999999963,"midi":73,"time":27.284462750000003,"velocity":0.30708661417322836},{"duration":0.12931024999999963,"midi":72,"time":27.543083250000002,"velocity":0.30708661417322836},{"duration":0.12931024999999963,"midi":72,"time":27.801703750000005,"velocity":0.30708661417322836},{"duration":0.12931024999999963,"midi":68,"time":28.060324250000004,"velocity":0.30708661417322836},{"duration":0.12931024999999963,"midi":65,"time":28.221962062500005,"velocity":0.30708661417322836},{"duration":0.12931024999999963,"midi":68,"time":28.318944750000004,"velocity":0.30708661417322836},{"duration":0.12931024999999963,"midi":73,"time":28.739203062500003,"velocity":0.30708661417322836},{"duration":0.12931024999999963,"midi":75,"time":28.836185750000002,"velocity":0.30708661417322836},{"duration":0.12931024999999963,"midi":73,"time":28.997823562500002,"velocity":0.30708661417322836},{"duration":0.12931024999999963,"midi":77,"time":29.094806250000005,"velocity":0.30708661417322836},{"duration":0.12931024999999963,"midi":77,"time":29.353426750000004,"velocity":0.30708661417322836},{"duration":0.12931024999999963,"midi":75,"time":29.612047250000003,"velocity":0.30708661417322836},{"duration":0.12931024999999963,"midi":75,"time":29.870667750000003,"velocity":0.30708661417322836},{"duration":0.12931025000000318,"midi":73,"time":30.129288250000002,"velocity":0.30708661417322836},{"duration":0.12931024999999963,"midi":72,"time":30.290926062500002,"velocity":0.30708661417322836},{"duration":0.12931024999999963,"midi":73,"time":30.387908750000005,"velocity":0.30708661417322836},{"duration":0.12931024999999963,"midi":80,"time":30.808167062500004,"velocity":0.30708661417322836},{"duration":0.12931024999999963,"midi":82,"time":30.905149750000003,"velocity":0.30708661417322836},{"duration":0.12931024999999963,"midi":80,"time":31.066787562500004,"velocity":0.30708661417322836},{"duration":0.12931024999999963,"midi":89,"time":31.163770250000002,"velocity":0.30708661417322836},{"duration":0.12931024999999963,"midi":92,"time":31.422390750000005,"velocity":0.30708661417322836},{"duration":0.12931024999999963,"midi":89,"time":31.681011250000005,"velocity":0.30708661417322836},{"duration":0.12931025000000318,"midi":87,"time":31.939631750000004,"velocity":0.30708661417322836},{"duration":0.12931025000000318,"midi":85,"time":32.19825225,"velocity":0.30708661417322836},{"duration":0.12931024999999607,"midi":84,"time":32.35989006250001,"velocity":0.30708661417322836},{"duration":0.12931025000000318,"midi":85,"time":32.45687275,"velocity":0.30708661417322836},{"duration":0.12931025000000318,"midi":80,"time":32.71549325,"velocity":0.30708661417322836},{"duration":0.12931025000000318,"midi":82,"time":32.97411375,"velocity":0.30708661417322836},{"duration":0.12931024999999607,"midi":73,"time":33.23273425000001,"velocity":0.30708661417322836},{"duration":0.12931024999999607,"midi":73,"time":33.491354750000006,"velocity":0.30708661417322836},{"duration":0.12931024999999607,"midi":72,"time":33.749975250000006,"velocity":0.30708661417322836},{"duration":0.12931024999999607,"midi":72,"time":34.008595750000005,"velocity":0.30708661417322836},{"duration":0.12931025000000318,"midi":68,"time":34.267216250000004,"velocity":0.30708661417322836},{"duration":0.12931025000000318,"midi":65,"time":34.4288540625,"velocity":0.30708661417322836},{"duration":0.12931025000000318,"midi":68,"time":34.52583675,"velocity":0.30708661417322836},{"duration":0.12931024999999607,"midi":61,"time":34.94609506250001,"velocity":0.30708661417322836},{"duration":0.12931025000000318,"midi":63,"time":35.04307775,"velocity":0.30708661417322836},{"duration":0.12931024999999607,"midi":61,"time":35.204715562500006,"velocity":0.30708661417322836},{"duration":0.12931025000000318,"midi":73,"time":35.30169825,"velocity":0.30708661417322836},{"duration":0.12931024999999607,"midi":73,"time":35.56031875000001,"velocity":0.30708661417322836},{"duration":0.12931024999999607,"midi":72,"time":35.81893925000001,"velocity":0.30708661417322836},{"duration":0.12931024999999607,"midi":72,"time":36.077559750000006,"velocity":0.30708661417322836},{"duration":0.12931024999999607,"midi":68,"time":36.336180250000005,"velocity":0.30708661417322836},{"duration":0.12931025000000318,"midi":65,"time":36.4978180625,"velocity":0.30708661417322836},{"duration":0.12931025000000318,"midi":68,"time":36.594800750000005,"velocity":0.30708661417322836},{"duration":0.12931024999999607,"midi":61,"time":37.01505906250001,"velocity":0.30708661417322836},{"duration":0.12931025000000318,"midi":63,"time":37.11204175,"velocity":0.30708661417322836},{"duration":0.12931024999999607,"midi":61,"time":37.27367956250001,"velocity":0.30708661417322836},{"duration":0.12931025000000318,"midi":65,"time":37.37066225,"velocity":0.30708661417322836},{"duration":0.12931025000000318,"midi":65,"time":37.62928275,"velocity":0.30708661417322836},{"duration":0.12931024999999607,"midi":63,"time":37.88790325000001,"velocity":0.30708661417322836},{"duration":0.12931024999999607,"midi":63,"time":38.14652375000001,"velocity":0.30708661417322836},{"duration":0.12931024999999607,"midi":61,"time":38.405144250000006,"velocity":0.30708661417322836},{"duration":0.12931025000000318,"midi":60,"time":38.5667820625,"velocity":0.30708661417322836},{"duration":0.12931024999999607,"midi":61,"time":38.663764750000006,"velocity":0.30708661417322836},{"duration":0.12931025000000318,"midi":68,"time":39.0840230625,"velocity":0.30708661417322836},{"duration":0.12931025000000318,"midi":70,"time":39.181005750000004,"velocity":0.30708661417322836},{"duration":0.12931024999999607,"midi":68,"time":39.34264356250001,"velocity":0.30708661417322836},{"duration":0.12931025000000318,"midi":77,"time":39.43962625,"velocity":0.30708661417322836},{"duration":0.12931025000000318,"midi":78,"time":39.69824675,"velocity":0.30708661417322836},{"duration":0.12931025000000318,"midi":77,"time":39.95686725,"velocity":0.30708661417322836},{"duration":0.12931024999999607,"midi":75,"time":40.21548775000001,"velocity":0.30708661417322836},{"duration":0.12931024999999607,"midi":73,"time":40.47410825000001,"velocity":0.30708661417322836},{"duration":0.12931025000000318,"midi":72,"time":40.635746062500004,"velocity":0.30708661417322836},{"duration":0.12931024999999607,"midi":73,"time":40.73272875000001,"velocity":0.30708661417322836},{"duration":0.12931024999999607,"midi":68,"time":40.991349250000006,"velocity":0.30708661417322836},{"duration":0.12931025000000318,"midi":70,"time":41.249969750000005,"velocity":0.30708661417322836},{"duration":0.12931025000000318,"midi":73,"time":41.508590250000005,"velocity":0.30708661417322836},{"duration":0.12931025000000318,"midi":73,"time":41.767210750000004,"velocity":0.30708661417322836},{"duration":0.12931025000000318,"midi":72,"time":42.02583125,"velocity":0.30708661417322836},{"duration":0.12931025000000318,"midi":72,"time":42.28445175,"velocity":0.30708661417322836},{"duration":0.12931025000000318,"midi":68,"time":42.54307225,"velocity":0.30708661417322836},{"duration":0.12931024999999607,"midi":65,"time":42.704710062500006,"velocity":0.30708661417322836},{"duration":0.12931024999999607,"midi":68,"time":42.80169275000001,"velocity":0.30708661417322836},{"duration":0.12931025000000318,"midi":61,"time":43.221951062500004,"velocity":0.30708661417322836},{"duration":0.12931024999999607,"midi":63,"time":43.31893375000001,"velocity":0.30708661417322836},{"duration":0.12931025000000318,"midi":61,"time":43.4805715625,"velocity":0.30708661417322836},{"duration":0.12931024999999607,"midi":73,"time":43.577554250000006,"velocity":0.30708661417322836},{"duration":0.12931025000000318,"midi":73,"time":43.836174750000005,"velocity":0.30708661417322836},{"duration":0.12931025000000318,"midi":72,"time":44.094795250000004,"velocity":0.30708661417322836},{"duration":0.12931025000000318,"midi":72,"time":44.35341575,"velocity":0.30708661417322836},{"duration":0.12931025000000318,"midi":68,"time":44.61203625,"velocity":0.30708661417322836},{"duration":0.12931024999999607,"midi":65,"time":44.77367406250001,"velocity":0.30708661417322836},{"duration":0.12931025000000318,"midi":68,"time":44.87065675,"velocity":0.30708661417322836},{"duration":0.12931025000000318,"midi":73,"time":45.290915062500005,"velocity":0.30708661417322836},{"duration":0.12931024999999607,"midi":75,"time":45.38789775000001,"velocity":0.30708661417322836},{"duration":0.12931025000000318,"midi":73,"time":45.549535562500004,"velocity":0.30708661417322836},{"duration":0.12931024999999607,"midi":77,"time":45.64651825000001,"velocity":0.30708661417322836},{"duration":0.12931024999999607,"midi":77,"time":45.905138750000006,"velocity":0.30708661417322836},{"duration":0.12931025000000318,"midi":75,"time":46.163759250000005,"velocity":0.30708661417322836},{"duration":0.12931025000000318,"midi":75,"time":46.422379750000005,"velocity":0.30708661417322836},{"duration":0.12931025000000318,"midi":73,"time":46.681000250000004,"velocity":0.30708661417322836},{"duration":0.12931024999999607,"midi":72,"time":46.84263806250001,"velocity":0.30708661417322836},{"duration":0.12931025000000318,"midi":73,"time":46.93962075,"velocity":0.30708661417322836},{"duration":0.12931024999999607,"midi":80,"time":47.359879062500006,"velocity":0.30708661417322836},{"duration":0.12931024999999607,"midi":82,"time":47.45686175000001,"velocity":0.30708661417322836},{"duration":0.12931025000000318,"midi":80,"time":47.618499562500006,"velocity":0.30708661417322836},{"duration":0.12931024999999607,"midi":89,"time":47.71548225000001,"velocity":0.30708661417322836},{"duration":0.12931024999999607,"midi":92,"time":47.97410275000001,"velocity":0.30708661417322836},{"duration":0.12931024999999607,"midi":89,"time":48.23272325000001,"velocity":0.30708661417322836},{"duration":0.12931025000000318,"midi":87,"time":48.491343750000006,"velocity":0.30708661417322836},{"duration":0.12931025000000318,"midi":85,"time":48.749964250000005,"velocity":0.30708661417322836},{"duration":0.12931024999999607,"midi":84,"time":48.91160206250001,"velocity":0.30708661417322836},{"duration":0.12931025000000318,"midi":85,"time":49.008584750000004,"velocity":0.30708661417322836},{"duration":0.12931025000000318,"midi":80,"time":49.26720525,"velocity":0.30708661417322836},{"duration":0.12931025000000318,"midi":82,"time":49.52582575,"velocity":0.30708661417322836},{"duration":0.12931024999999607,"midi":73,"time":49.78444625000001,"velocity":0.30708661417322836},{"duration":0.12931024999999607,"midi":73,"time":50.04306675000001,"velocity":0.30708661417322836},{"duration":0.12931024999999607,"midi":72,"time":50.30168725000001,"velocity":0.30708661417322836},{"duration":0.12931024999999607,"midi":72,"time":50.56030775000001,"velocity":0.30708661417322836},{"duration":0.12931025000000318,"midi":68,"time":50.818928250000006,"velocity":0.30708661417322836},{"duration":0.12931025000000318,"midi":65,"time":50.9805660625,"velocity":0.30708661417322836},{"duration":0.12931025000000318,"midi":68,"time":51.077548750000005,"velocity":0.30708661417322836},{"duration":0.12931024999999607,"midi":61,"time":51.49780706250001,"velocity":0.30708661417322836},{"duration":0.12931025000000318,"midi":63,"time":51.594789750000004,"velocity":0.30708661417322836},{"duration":0.12931024999999607,"midi":61,"time":51.75642756250001,"velocity":0.30708661417322836},{"duration":0.12931025000000318,"midi":73,"time":51.85341025,"velocity":0.30708661417322836},{"duration":0.12931024999999607,"midi":73,"time":52.11203075000001,"velocity":0.30708661417322836},{"duration":0.12931024999999607,"midi":72,"time":52.37065125000001,"velocity":0.30708661417322836},{"duration":0.12931024999999607,"midi":72,"time":52.62927175000001,"velocity":0.30708661417322836},{"duration":0.12931024999999607,"midi":68,"time":52.88789225000001,"velocity":0.30708661417322836},{"duration":0.12931025000000318,"midi":65,"time":53.049530062500004,"velocity":0.30708661417322836},{"duration":0.12931025000000318,"midi":68,"time":53.14651275000001,"velocity":0.30708661417322836},{"duration":0.12931024999999607,"midi":61,"time":53.56677106250001,"velocity":0.30708661417322836},{"duration":0.12931025000000318,"midi":63,"time":53.663753750000005,"velocity":0.30708661417322836},{"duration":0.12931024999999607,"midi":61,"time":53.82539156250001,"velocity":0.30708661417322836},{"duration":0.12931025000000318,"midi":65,"time":53.922374250000004,"velocity":0.30708661417322836},{"duration":0.12931025000000318,"midi":65,"time":54.18099475,"velocity":0.30708661417322836},{"duration":0.12931024999999607,"midi":63,"time":54.43961525000001,"velocity":0.30708661417322836},{"duration":0.12931024999999607,"midi":63,"time":54.69823575000001,"velocity":0.30708661417322836},{"duration":0.12931024999999607,"midi":61,"time":54.95685625000001,"velocity":0.30708661417322836},{"duration":0.12931025000000318,"midi":60,"time":55.118494062500005,"velocity":0.30708661417322836},{"duration":0.12931024999999607,"midi":61,"time":55.21547675000001,"velocity":0.30708661417322836},{"duration":0.12931025000000318,"midi":68,"time":55.635735062500004,"velocity":0.30708661417322836},{"duration":0.12931025000000318,"midi":70,"time":55.732717750000006,"velocity":0.30708661417322836},{"duration":0.12931024999999607,"midi":68,"time":55.89435556250001,"velocity":0.30708661417322836},{"duration":0.12931025000000318,"midi":77,"time":55.991338250000005,"velocity":0.30708661417322836},{"duration":0.12931025000000318,"midi":78,"time":56.249958750000005,"velocity":0.30708661417322836},{"duration":0.12931025000000318,"midi":77,"time":56.508579250000004,"velocity":0.30708661417322836},{"duration":0.12931024999999607,"midi":75,"time":56.76719975000001,"velocity":0.30708661417322836},{"duration":0.12931024999999607,"midi":73,"time":57.02582025000001,"velocity":0.30708661417322836},{"duration":0.12931025000000318,"midi":72,"time":57.187458062500006,"velocity":0.30708661417322836},{"duration":0.12931024999999607,"midi":73,"time":57.28444075000001,"velocity":0.30708661417322836},{"duration":0.12931024999999607,"midi":68,"time":57.54306125000001,"velocity":0.30708661417322836},{"duration":0.12931024999999607,"midi":70,"time":57.80168175000001,"velocity":0.30708661417322836},{"duration":0.12931025000000318,"midi":73,"time":58.06030225000001,"velocity":0.30708661417322836},{"duration":0.12931025000000318,"midi":73,"time":58.318922750000006,"velocity":0.30708661417322836},{"duration":0.12931025000000318,"midi":72,"time":58.577543250000005,"velocity":0.30708661417322836},{"duration":0.12931025000000318,"midi":72,"time":58.836163750000004,"velocity":0.30708661417322836},{"duration":0.12931025000000318,"midi":68,"time":59.094784250000004,"velocity":0.30708661417322836},{"duration":0.12931024999999607,"midi":65,"time":59.25642206250001,"velocity":0.30708661417322836},{"duration":0.12931024999999607,"midi":68,"time":59.35340475000001,"velocity":0.30708661417322836},{"duration":0.12931025000000318,"midi":61,"time":59.773663062500006,"velocity":0.30708661417322836},{"duration":0.12931024999999607,"midi":63,"time":59.87064575000001,"velocity":0.30708661417322836},{"duration":0.12931025000000318,"midi":61,"time":60.032283562500005,"velocity":0.30708661417322836},{"duration":0.12931024999999607,"midi":73,"time":60.12926625000001,"velocity":0.30708661417322836},{"duration":0.12931025000000318,"midi":73,"time":60.38788675000001,"velocity":0.30708661417322836},{"duration":0.12931025000000318,"midi":72,"time":60.646507250000006,"velocity":0.30708661417322836},{"duration":0.12931025000000318,"midi":72,"time":60.905127750000005,"velocity":0.30708661417322836},{"duration":0.12931025000000318,"midi":68,"time":61.163748250000005,"velocity":0.30708661417322836},{"duration":0.12931024999999607,"midi":65,"time":61.32538606250001,"velocity":0.30708661417322836},{"duration":0.12931025000000318,"midi":68,"time":61.422368750000004,"velocity":0.30708661417322836},{"duration":0.12931025000000318,"midi":73,"time":61.84262706250001,"velocity":0.30708661417322836},{"duration":0.12931024999999607,"midi":75,"time":61.93960975000001,"velocity":0.30708661417322836},{"duration":0.12931025000000318,"midi":73,"time":62.101247562500006,"velocity":0.30708661417322836},{"duration":0.12931024999999607,"midi":77,"time":62.19823025000001,"velocity":0.30708661417322836},{"duration":0.12931024999999607,"midi":77,"time":62.45685075000001,"velocity":0.30708661417322836},{"duration":0.12931025000000318,"midi":75,"time":62.71547125000001,"velocity":0.30708661417322836},{"duration":0.12931025000000318,"midi":75,"time":62.97409175000001,"velocity":0.30708661417322836},{"duration":0.12931025000000318,"midi":73,"time":63.232712250000006,"velocity":0.30708661417322836},{"duration":0.12931024999999607,"midi":72,"time":63.39435006250001,"velocity":0.30708661417322836},{"duration":0.12931025000000318,"midi":73,"time":63.491332750000005,"velocity":0.30708661417322836},{"duration":0.12931025000000318,"midi":80,"time":63.91159106250001,"velocity":0.30708661417322836},{"duration":0.12931025000000318,"midi":82,"time":64.00857375000001,"velocity":0.30708661417322836},{"duration":0.12931024999998897,"midi":80,"time":64.17021156250001,"velocity":0.30708661417322836},{"duration":0.12931025000000318,"midi":89,"time":64.26719425,"velocity":0.30708661417322836},{"duration":0.12931025000000318,"midi":92,"time":64.52581475000001,"velocity":0.30708661417322836},{"duration":0.12931025000000318,"midi":89,"time":64.78443525,"velocity":0.30708661417322836},{"duration":0.12931025000000318,"midi":87,"time":65.04305575000001,"velocity":0.30708661417322836},{"duration":0.12931024999998897,"midi":85,"time":65.30167625000001,"velocity":0.30708661417322836},{"duration":0.12931025000000318,"midi":84,"time":65.4633140625,"velocity":0.30708661417322836},{"duration":0.12931025000000318,"midi":85,"time":65.56029675,"velocity":0.30708661417322836},{"duration":0.12931024999998897,"midi":80,"time":65.81891725000001,"velocity":0.30708661417322836},{"duration":0.12931025000000318,"midi":82,"time":66.07753775,"velocity":0.30708661417322836},{"duration":0.12931025000000318,"midi":61,"time":66.59477875,"velocity":0.30708661417322836},{"duration":0.12931025000000318,"midi":63,"time":66.85339925000001,"velocity":0.30708661417322836},{"duration":0.12931025000000318,"midi":68,"time":67.11201975,"velocity":0.30708661417322836},{"duration":0.12931025000000318,"midi":73,"time":67.37064025000001,"velocity":0.30708661417322836},{"duration":0.12931024999998897,"midi":68,"time":67.62926075000001,"velocity":0.30708661417322836},{"duration":0.12931025000000318,"midi":61,"time":67.88788125,"velocity":0.30708661417322836},{"duration":0.12931024999998897,"midi":63,"time":68.14650175000001,"velocity":0.30708661417322836},{"duration":0.12931025000000318,"midi":61,"time":68.66374275000001,"velocity":0.30708661417322836},{"duration":0.12931025000000318,"midi":63,"time":68.92236325,"velocity":0.30708661417322836},{"duration":0.12931025000000318,"midi":68,"time":69.18098375000001,"velocity":0.30708661417322836},{"duration":0.12931025000000318,"midi":73,"time":69.43960425,"velocity":0.30708661417322836},{"duration":0.12931025000000318,"midi":68,"time":69.69822475000001,"velocity":0.30708661417322836},{"duration":0.12931024999998897,"midi":61,"time":69.95684525000001,"velocity":0.30708661417322836},{"duration":0.12931025000000318,"midi":63,"time":70.21546575,"velocity":0.30708661417322836},{"duration":0.12931025000000318,"midi":61,"time":70.73270675,"velocity":0.30708661417322836},{"duration":0.12931025000000318,"midi":63,"time":70.99132725000001,"velocity":0.30708661417322836},{"duration":0.12931025000000318,"midi":68,"time":71.24994775,"velocity":0.30708661417322836},{"duration":0.12931025000000318,"midi":73,"time":71.50856825000001,"velocity":0.30708661417322836},{"duration":0.12931025000000318,"midi":68,"time":71.76718875,"velocity":0.30708661417322836},{"duration":0.12931025000000318,"midi":61,"time":72.02580925000001,"velocity":0.30708661417322836},{"duration":0.12931024999998897,"midi":63,"time":72.28442975000002,"velocity":0.30708661417322836},{"duration":0.12931024999998897,"midi":61,"time":72.80167075000001,"velocity":0.30708661417322836},{"duration":0.12931025000000318,"midi":63,"time":73.06029125,"velocity":0.30708661417322836},{"duration":0.12931025000000318,"midi":68,"time":73.31891175000001,"velocity":0.30708661417322836},{"duration":0.12931025000000318,"midi":73,"time":73.57753225,"velocity":0.30708661417322836},{"duration":0.12931025000000318,"midi":68,"time":73.83615275000001,"velocity":0.30708661417322836},{"duration":0.12931025000000318,"midi":61,"time":74.09477325,"velocity":0.30708661417322836},{"duration":0.12931025000000318,"midi":63,"time":74.35339375000001,"velocity":0.30708661417322836},{"duration":0.12931025000000318,"midi":61,"time":74.87063475000001,"velocity":0.30708661417322836},{"duration":0.12931024999998897,"midi":63,"time":75.12925525000001,"velocity":0.30708661417322836},{"duration":0.12931025000000318,"midi":68,"time":75.38787575,"velocity":0.30708661417322836},{"duration":0.12931025000000318,"midi":73,"time":75.64649625000001,"velocity":0.30708661417322836},{"duration":0.12931025000000318,"midi":68,"time":75.90511675,"velocity":0.30708661417322836},{"duration":0.12931025000000318,"midi":61,"time":76.16373725000001,"velocity":0.30708661417322836},{"duration":0.12931025000000318,"midi":63,"time":76.42235775,"velocity":0.30708661417322836},{"duration":0.12931024999998897,"midi":61,"time":76.93959875000002,"velocity":0.30708661417322836},{"duration":0.12931025000000318,"midi":63,"time":77.19821925000001,"velocity":0.30708661417322836},{"duration":0.12931024999998897,"midi":68,"time":77.45683975000001,"velocity":0.30708661417322836},{"duration":0.12931025000000318,"midi":73,"time":77.71546025,"velocity":0.30708661417322836},{"duration":0.12931025000000318,"midi":68,"time":77.97408075000001,"velocity":0.30708661417322836},{"duration":0.12931025000000318,"midi":61,"time":78.23270125,"velocity":0.30708661417322836},{"duration":0.12931025000000318,"midi":63,"time":78.49132175000001,"velocity":0.30708661417322836},{"duration":0.12931025000000318,"midi":61,"time":79.00856275000001,"velocity":0.30708661417322836},{"duration":0.12931024999998897,"midi":63,"time":79.26718325000002,"velocity":0.30708661417322836},{"duration":0.12931025000000318,"midi":68,"time":79.52580375000001,"velocity":0.30708661417322836},{"duration":0.12931024999998897,"midi":73,"time":79.78442425000001,"velocity":0.30708661417322836},{"duration":0.12931025000000318,"midi":68,"time":80.04304475,"velocity":0.30708661417322836},{"duration":0.12931025000000318,"midi":61,"time":80.30166525000001,"velocity":0.30708661417322836},{"duration":0.12931025000000318,"midi":63,"time":80.56028575,"velocity":0.30708661417322836},{"duration":0.12931025000000318,"midi":61,"time":81.07752675,"velocity":0.30708661417322836},{"duration":0.12931025000000318,"midi":63,"time":81.33614725000001,"velocity":0.30708661417322836},{"duration":0.12931024999998897,"midi":68,"time":81.59476775000002,"velocity":0.30708661417322836},{"duration":0.12931025000000318,"midi":73,"time":81.85338825000001,"velocity":0.30708661417322836},{"duration":0.12931024999998897,"midi":68,"time":82.11200875000002,"velocity":0.30708661417322836},{"duration":0.12931025000000318,"midi":61,"time":82.37062925000001,"velocity":0.30708661417322836},{"duration":0.12931025000000318,"midi":63,"time":82.62924975000001,"velocity":0.30708661417322836},{"duration":0.12931025000000318,"midi":61,"time":83.14649075000001,"velocity":0.30708661417322836},{"duration":0.12931025000000318,"midi":63,"time":83.40511125,"velocity":0.30708661417322836},{"duration":0.12931025000000318,"midi":68,"time":83.66373175000001,"velocity":0.30708661417322836},{"duration":0.12931025000000318,"midi":73,"time":83.92235225,"velocity":0.30708661417322836},{"duration":0.12931025000000318,"midi":68,"time":84.18097275000001,"velocity":0.30708661417322836},{"duration":0.12931024999998897,"midi":61,"time":84.43959325000002,"velocity":0.30708661417322836},{"duration":0.12931025000000318,"midi":63,"time":84.69821375000001,"velocity":0.30708661417322836},{"duration":0.12931025000000318,"midi":61,"time":85.21545475,"velocity":0.30708661417322836},{"duration":0.12931025000000318,"midi":63,"time":85.47407525000001,"velocity":0.30708661417322836},{"duration":0.12931025000000318,"midi":68,"time":85.73269575,"velocity":0.30708661417322836},{"duration":0.12931025000000318,"midi":73,"time":85.99131625000001,"velocity":0.30708661417322836},{"duration":0.12931025000000318,"midi":68,"time":86.24993675,"velocity":0.30708661417322836},{"duration":0.12931025000000318,"midi":61,"time":86.50855725000001,"velocity":0.30708661417322836},{"duration":0.12931024999998897,"midi":63,"time":86.76717775000002,"velocity":0.30708661417322836},{"duration":0.12931024999998897,"midi":61,"time":87.28441875000001,"velocity":0.30708661417322836},{"duration":0.12931025000000318,"midi":63,"time":87.54303925,"velocity":0.30708661417322836},{"duration":0.12931025000000318,"midi":68,"time":87.80165975000001,"velocity":0.30708661417322836},{"duration":0.12931025000000318,"midi":73,"time":88.06028025,"velocity":0.30708661417322836},{"duration":0.12931025000000318,"midi":68,"time":88.31890075000001,"velocity":0.30708661417322836},{"duration":0.12931025000000318,"midi":61,"time":88.57752125,"velocity":0.30708661417322836},{"duration":0.12931025000000318,"midi":63,"time":88.83614175000001,"velocity":0.30708661417322836},{"duration":0.12931025000000318,"midi":61,"time":89.35338275000001,"velocity":0.30708661417322836},{"duration":0.12931024999998897,"midi":63,"time":89.61200325000001,"velocity":0.30708661417322836},{"duration":0.12931025000000318,"midi":68,"time":89.87062375000001,"velocity":0.30708661417322836},{"duration":0.12931025000000318,"midi":73,"time":90.12924425000001,"velocity":0.30708661417322836},{"duration":0.12931025000000318,"midi":68,"time":90.38786475,"velocity":0.30708661417322836},{"duration":0.12931025000000318,"midi":61,"time":90.64648525000001,"velocity":0.30708661417322836},{"duration":0.12931025000000318,"midi":63,"time":90.90510575,"velocity":0.30708661417322836},{"duration":0.12931024999998897,"midi":61,"time":91.42234675000002,"velocity":0.30708661417322836},{"duration":0.12931025000000318,"midi":63,"time":91.68096725000001,"velocity":0.30708661417322836},{"duration":0.12931024999998897,"midi":68,"time":91.93958775000002,"velocity":0.30708661417322836},{"duration":0.12931025000000318,"midi":73,"time":92.19820825000001,"velocity":0.30708661417322836},{"duration":0.12931025000000318,"midi":68,"time":92.45682875000001,"velocity":0.30708661417322836},{"duration":0.12931025000000318,"midi":61,"time":92.71544925,"velocity":0.30708661417322836},{"duration":0.12931025000000318,"midi":63,"time":92.97406975000001,"velocity":0.30708661417322836},{"duration":0.12931025000000318,"midi":61,"time":93.49131075000001,"velocity":0.30708661417322836},{"duration":0.12931024999998897,"midi":63,"time":93.74993125000002,"velocity":0.30708661417322836},{"duration":0.12931025000000318,"midi":68,"time":94.00855175000001,"velocity":0.30708661417322836},{"duration":0.12931024999998897,"midi":73,"time":94.26717225000002,"velocity":0.30708661417322836},{"duration":0.12931025000000318,"midi":68,"time":94.52579275000001,"velocity":0.30708661417322836},{"duration":0.12931025000000318,"midi":61,"time":94.78441325000001,"velocity":0.30708661417322836},{"duration":0.12931025000000318,"midi":63,"time":95.04303375,"velocity":0.30708661417322836},{"duration":0.12931025000000318,"midi":61,"time":95.56027475,"velocity":0.30708661417322836},{"duration":0.12931025000000318,"midi":63,"time":95.81889525000001,"velocity":0.30708661417322836},{"duration":0.12931024999998897,"midi":68,"time":96.07751575000002,"velocity":0.30708661417322836},{"duration":0.12931025000000318,"midi":73,"time":96.33613625000001,"velocity":0.30708661417322836},{"duration":0.12931024999998897,"midi":68,"time":96.59475675000002,"velocity":0.30708661417322836},{"duration":0.12931025000000318,"midi":61,"time":96.85337725000001,"velocity":0.30708661417322836},{"duration":0.12931025000000318,"midi":63,"time":97.11199775000001,"velocity":0.30708661417322836},{"duration":0.12931025000000318,"midi":61,"time":97.62923875000001,"velocity":0.30708661417322836},{"duration":0.12931025000000318,"midi":63,"time":97.88785925,"velocity":0.30708661417322836},{"duration":0.12931025000000318,"midi":68,"time":98.14647975000001,"velocity":0.30708661417322836},{"duration":0.12931024999998897,"midi":73,"time":98.40510025000002,"velocity":0.30708661417322836},{"duration":0.12931025000000318,"midi":68,"time":98.66372075000001,"velocity":0.30708661417322836},{"duration":0.12931024999998897,"midi":61,"time":98.92234125000002,"velocity":0.30708661417322836},{"duration":0.12931025000000318,"midi":63,"time":99.18096175000001,"velocity":0.30708661417322836},{"duration":0.12931025000000318,"midi":80,"time":99.43958225000002,"velocity":0.30708661417322836},{"duration":0.12931025000000318,"midi":76,"time":99.69820275000001,"velocity":0.30708661417322836},{"duration":0.12931025000000318,"midi":76,"time":99.95682325000001,"velocity":0.30708661417322836},{"duration":0.12931025000000318,"midi":80,"time":100.47406425000001,"velocity":0.30708661417322836},{"duration":0.12931024999998897,"midi":76,"time":100.73268475000002,"velocity":0.30708661417322836},{"duration":0.12931025000000318,"midi":76,"time":100.99130525000001,"velocity":0.30708661417322836},{"duration":0.12931025000000318,"midi":83,"time":101.50854625000001,"velocity":0.30708661417322836},{"duration":0.12931025000000318,"midi":78,"time":101.76716675000002,"velocity":0.30708661417322836},{"duration":0.12931025000000318,"midi":78,"time":102.02578725000001,"velocity":0.30708661417322836},{"duration":0.12931025000000318,"midi":83,"time":102.54302825,"velocity":0.30708661417322836},{"duration":0.12931025000000318,"midi":78,"time":102.80164875000001,"velocity":0.30708661417322836},{"duration":0.12931024999998897,"midi":78,"time":103.06026925000002,"velocity":0.30708661417322836},{"duration":0.12931024999998897,"midi":85,"time":103.57751025000002,"velocity":0.30708661417322836},{"duration":0.12931025000000318,"midi":80,"time":103.83613075000001,"velocity":0.30708661417322836},{"duration":0.12931025000000318,"midi":85,"time":104.09475125000002,"velocity":0.30708661417322836},{"duration":0.12931025000000318,"midi":87,"time":104.35337175000001,"velocity":0.30708661417322836},{"duration":0.12931025000000318,"midi":90,"time":104.61199225000001,"velocity":0.30708661417322836},{"duration":0.12931025000000318,"midi":89,"time":104.87061275,"velocity":0.30708661417322836},{"duration":0.12931025000000318,"midi":87,"time":105.12923325000001,"velocity":0.30708661417322836},{"duration":0.12931024999998897,"midi":85,"time":105.38785375000002,"velocity":0.30708661417322836},{"duration":0.12931024999998897,"midi":80,"time":105.90509475000002,"velocity":0.30708661417322836},{"duration":0.12931025000000318,"midi":85,"time":106.16371525000001,"velocity":0.30708661417322836},{"duration":0.12931025000000318,"midi":87,"time":106.42233575000002,"velocity":0.30708661417322836},{"duration":0.12931025000000318,"midi":90,"time":106.68095625000001,"velocity":0.30708661417322836},{"duration":0.12931025000000318,"midi":89,"time":106.93957675000001,"velocity":0.30708661417322836},{"duration":0.12931025000000318,"midi":85,"time":107.19819725,"velocity":0.30708661417322836},{"duration":0.12931025000000318,"midi":87,"time":107.45681775000001,"velocity":0.30708661417322836},{"duration":0.12931024999998897,"midi":80,"time":107.71543825000002,"velocity":0.30708661417322836},{"duration":0.12931025000000318,"midi":76,"time":107.97405875000001,"velocity":0.30708661417322836},{"duration":0.12931024999998897,"midi":76,"time":108.23267925000002,"velocity":0.30708661417322836},{"duration":0.12931025000000318,"midi":80,"time":108.74992025000002,"velocity":0.30708661417322836},{"duration":0.12931025000000318,"midi":76,"time":109.00854075000001,"velocity":0.30708661417322836},{"duration":0.12931025000000318,"midi":76,"time":109.26716125000002,"velocity":0.30708661417322836},{"duration":0.12931025000000318,"midi":83,"time":109.78440225000001,"velocity":0.30708661417322836},{"duration":0.12931024999998897,"midi":78,"time":110.04302275000002,"velocity":0.30708661417322836},{"duration":0.12931025000000318,"midi":78,"time":110.30164325000001,"velocity":0.30708661417322836},{"duration":0.12931025000000318,"midi":83,"time":110.81888425000001,"velocity":0.30708661417322836},{"duration":0.12931025000000318,"midi":78,"time":111.07750475000002,"velocity":0.30708661417322836},{"duration":0.12931025000000318,"midi":78,"time":111.33612525000001,"velocity":0.30708661417322836},{"duration":0.12931025000000318,"midi":85,"time":111.85336625000001,"velocity":0.30708661417322836},{"duration":0.12931025000000318,"midi":80,"time":112.11198675000001,"velocity":0.30708661417322836},{"duration":0.12931024999998897,"midi":85,"time":112.37060725000002,"velocity":0.30708661417322836},{"duration":0.12931025000000318,"midi":87,"time":112.62922775000001,"velocity":0.30708661417322836},{"duration":0.12931024999998897,"midi":90,"time":112.88784825000002,"velocity":0.30708661417322836},{"duration":0.12931025000000318,"midi":89,"time":113.14646875000001,"velocity":0.30708661417322836},{"duration":0.12931025000000318,"midi":87,"time":113.40508925000002,"velocity":0.30708661417322836},{"duration":0.12931025000000318,"midi":85,"time":113.66370975000001,"velocity":0.30708661417322836},{"duration":0.12931025000000318,"midi":80,"time":114.18095075000001,"velocity":0.30708661417322836},{"duration":0.12931025000000318,"midi":85,"time":114.43957125000001,"velocity":0.30708661417322836},{"duration":0.12931024999998897,"midi":87,"time":114.69819175000002,"velocity":0.30708661417322836},{"duration":0.12931025000000318,"midi":90,"time":114.95681225000001,"velocity":0.30708661417322836},{"duration":0.12931024999998897,"midi":89,"time":115.21543275000002,"velocity":0.30708661417322836},{"duration":0.12931025000000318,"midi":85,"time":115.47405325000001,"velocity":0.30708661417322836},{"duration":0.12931024999998897,"midi":87,"time":115.73267375000002,"velocity":0.30708661417322836},{"duration":0.12931025000000318,"midi":80,"time":115.99129425000001,"velocity":0.30708661417322836},{"duration":0.12931025000000318,"midi":76,"time":116.24991475000002,"velocity":0.30708661417322836},{"duration":0.12931025000000318,"midi":76,"time":116.50853525000001,"velocity":0.30708661417322836},{"duration":0.12931025000000318,"midi":80,"time":117.02577625,"velocity":0.30708661417322836},{"duration":0.12931025000000318,"midi":76,"time":117.28439675000001,"velocity":0.30708661417322836},{"duration":0.12931024999998897,"midi":76,"time":117.54301725000002,"velocity":0.30708661417322836},{"duration":0.12931024999998897,"midi":83,"time":118.06025825000002,"velocity":0.30708661417322836},{"duration":0.12931025000000318,"midi":78,"time":118.31887875000001,"velocity":0.30708661417322836},{"duration":0.12931025000000318,"midi":78,"time":118.57749925000002,"velocity":0.30708661417322836},{"duration":0.12931025000000318,"midi":83,"time":119.09474025000002,"velocity":0.30708661417322836},{"duration":0.12931025000000318,"midi":78,"time":119.35336075000001,"velocity":0.30708661417322836},{"duration":0.12931025000000318,"midi":78,"time":119.61198125000001,"velocity":0.30708661417322836},{"duration":0.12931025000000318,"midi":85,"time":120.12922225000001,"velocity":0.30708661417322836},{"duration":0.12931024999998897,"midi":80,"time":120.38784275000002,"velocity":0.30708661417322836},{"duration":0.12931025000000318,"midi":85,"time":120.64646325000001,"velocity":0.30708661417322836},{"duration":0.12931025000000318,"midi":87,"time":120.90508375000002,"velocity":0.30708661417322836},{"duration":0.12931025000000318,"midi":90,"time":121.16370425000001,"velocity":0.30708661417322836},{"duration":0.12931025000000318,"midi":89,"time":121.42232475000002,"velocity":0.30708661417322836},{"duration":0.12931025000000318,"midi":87,"time":121.68094525000001,"velocity":0.30708661417322836},{"duration":0.12931025000000318,"midi":85,"time":121.93956575000001,"velocity":0.30708661417322836},{"duration":0.12931025000000318,"midi":80,"time":122.45680675000001,"velocity":0.30708661417322836},{"duration":0.12931024999998897,"midi":85,"time":122.71542725000002,"velocity":0.30708661417322836},{"duration":0.12931025000000318,"midi":87,"time":122.97404775000001,"velocity":0.30708661417322836},{"duration":0.12931025000000318,"midi":90,"time":123.23266825000002,"velocity":0.30708661417322836},{"duration":0.12931025000000318,"midi":89,"time":123.49128875000001,"velocity":0.30708661417322836},{"duration":0.12931025000000318,"midi":85,"time":123.74990925000002,"velocity":0.30708661417322836},{"duration":0.12931025000000318,"midi":87,"time":124.00852975000001,"velocity":0.30708661417322836},{"duration":0.12931025000000318,"midi":80,"time":124.26715025000001,"velocity":0.30708661417322836},{"duration":0.12931024999998897,"midi":76,"time":124.52577075000002,"velocity":0.30708661417322836},{"duration":0.12931025000000318,"midi":76,"time":124.78439125000001,"velocity":0.30708661417322836},{"duration":0.12931025000000318,"midi":80,"time":125.30163225000001,"velocity":0.30708661417322836},{"duration":0.12931025000000318,"midi":76,"time":125.56025275000002,"velocity":0.30708661417322836},{"duration":0.12931025000000318,"midi":76,"time":125.81887325000001,"velocity":0.30708661417322836},{"duration":0.12931025000000318,"midi":83,"time":126.33611425000001,"velocity":0.30708661417322836},{"duration":0.12931025000000318,"midi":78,"time":126.59473475000001,"velocity":0.30708661417322836},{"duration":0.12931024999998897,"midi":78,"time":126.85335525000002,"velocity":0.30708661417322836},{"duration":0.12931024999998897,"midi":83,"time":127.37059625000002,"velocity":0.30708661417322836},{"duration":0.12931025000000318,"midi":78,"time":127.62921675000001,"velocity":0.30708661417322836},{"duration":0.12931025000000318,"midi":78,"time":127.88783725000002,"velocity":0.30708661417322836},{"duration":0.12931025000000318,"midi":85,"time":128.40507825,"velocity":0.30708661417322836},{"duration":0.12931025000000318,"midi":80,"time":128.66369875,"velocity":0.30708661417322836},{"duration":0.12931025000000318,"midi":85,"time":128.92231925000002,"velocity":0.30708661417322836},{"duration":0.12931025000000318,"midi":87,"time":129.18093975000002,"velocity":0.30708661417322836},{"duration":0.12931024999997476,"midi":90,"time":129.43956025000003,"velocity":0.30708661417322836},{"duration":0.12931025000000318,"midi":89,"time":129.69818075,"velocity":0.30708661417322836},{"duration":0.12931025000000318,"midi":87,"time":129.95680125,"velocity":0.30708661417322836},{"duration":0.12931025000000318,"midi":85,"time":130.21542175000002,"velocity":0.30708661417322836},{"duration":0.12931025000000318,"midi":80,"time":130.73266275,"velocity":0.30708661417322836},{"duration":0.12931025000000318,"midi":85,"time":130.99128325,"velocity":0.30708661417322836},{"duration":0.12931025000000318,"midi":87,"time":131.24990375000002,"velocity":0.30708661417322836},{"duration":0.12931025000000318,"midi":90,"time":131.50852425000002,"velocity":0.30708661417322836},{"duration":0.12931024999997476,"midi":89,"time":131.76714475000003,"velocity":0.30708661417322836},{"duration":0.12931025000000318,"midi":85,"time":132.02576525,"velocity":0.30708661417322836},{"duration":0.12931025000000318,"midi":87,"time":132.28438575,"velocity":0.30708661417322836},{"duration":0.12931025000000318,"midi":73,"time":149.09471825000003,"velocity":0.30708661417322836},{"duration":0.12931025000000318,"midi":73,"time":149.35333875,"velocity":0.30708661417322836},{"duration":0.12931025000000318,"midi":71,"time":149.61195925,"velocity":0.30708661417322836},{"duration":0.12931025000000318,"midi":71,"time":149.87057975000002,"velocity":0.30708661417322836},{"duration":0.12931025000000318,"midi":68,"time":150.12920025000003,"velocity":0.30708661417322836},{"duration":0.12931024999997476,"midi":66,"time":150.29083806250003,"velocity":0.30708661417322836},{"duration":0.12931024999997476,"midi":68,"time":150.38782075000003,"velocity":0.30708661417322836},{"duration":0.12931025000000318,"midi":61,"time":150.8080790625,"velocity":0.30708661417322836},{"duration":0.12931025000000318,"midi":63,"time":150.90506175000002,"velocity":0.30708661417322836},{"duration":0.12931025000000318,"midi":61,"time":151.06669956250002,"velocity":0.30708661417322836},{"duration":0.12931025000000318,"midi":73,"time":151.16368225000002,"velocity":0.30708661417322836},{"duration":0.12931025000000318,"midi":73,"time":151.42230275000003,"velocity":0.30708661417322836},{"duration":0.12931025000000318,"midi":71,"time":151.68092325,"velocity":0.30708661417322836},{"duration":0.12931025000000318,"midi":71,"time":151.93954375,"velocity":0.30708661417322836},{"duration":0.12931025000000318,"midi":68,"time":152.19816425000002,"velocity":0.30708661417322836},{"duration":0.12931025000000318,"midi":66,"time":152.35980206250002,"velocity":0.30708661417322836},{"duration":0.12931025000000318,"midi":68,"time":152.45678475000003,"velocity":0.30708661417322836},{"duration":0.12931025000000318,"midi":61,"time":152.8770430625,"velocity":0.30708661417322836},{"duration":0.12931025000000318,"midi":63,"time":152.97402575,"velocity":0.30708661417322836},{"duration":0.12931025000000318,"midi":61,"time":153.1356635625,"velocity":0.30708661417322836},{"duration":0.12931025000000318,"midi":65,"time":153.23264625000002,"velocity":0.30708661417322836},{"duration":0.12931025000000318,"midi":65,"time":153.49126675000002,"velocity":0.30708661417322836},{"duration":0.12931025000000318,"midi":63,"time":153.74988725000003,"velocity":0.30708661417322836},{"duration":0.12931025000000318,"midi":63,"time":154.00850775,"velocity":0.30708661417322836},{"duration":0.12931025000000318,"midi":61,"time":154.26712825,"velocity":0.30708661417322836},{"duration":0.12931025000000318,"midi":60,"time":154.42876606250002,"velocity":0.30708661417322836},{"duration":0.12931025000000318,"midi":61,"time":154.52574875000002,"velocity":0.30708661417322836},{"duration":0.12931024999997476,"midi":56,"time":154.94600706250003,"velocity":0.30708661417322836},{"duration":0.12931024999997476,"midi":58,"time":155.04298975000003,"velocity":0.30708661417322836},{"duration":0.12931025000000318,"midi":56,"time":155.2046275625,"velocity":0.30708661417322836},{"duration":0.12931025000000318,"midi":77,"time":155.30161025,"velocity":0.30708661417322836},{"duration":0.12931025000000318,"midi":78,"time":155.56023075000002,"velocity":0.30708661417322836},{"duration":0.12931025000000318,"midi":77,"time":155.81885125000002,"velocity":0.30708661417322836},{"duration":0.12931025000000318,"midi":75,"time":156.07747175000003,"velocity":0.30708661417322836},{"duration":0.12931025000000318,"midi":73,"time":156.33609225,"velocity":0.30708661417322836},{"duration":0.12931025000000318,"midi":72,"time":156.4977300625,"velocity":0.30708661417322836},{"duration":0.12931025000000318,"midi":73,"time":156.59471275,"velocity":0.30708661417322836},{"duration":0.12931025000000318,"midi":68,"time":156.85333325000002,"velocity":0.30708661417322836},{"duration":0.12931025000000318,"midi":70,"time":157.11195375000003,"velocity":0.30708661417322836},{"duration":0.12931024999997476,"midi":73,"time":157.37057425000003,"velocity":0.30708661417322836},{"duration":0.12931025000000318,"midi":73,"time":157.62919475,"velocity":0.30708661417322836},{"duration":0.12931025000000318,"midi":71,"time":157.88781525000002,"velocity":0.30708661417322836},{"duration":0.12931025000000318,"midi":71,"time":158.14643575000002,"velocity":0.30708661417322836},{"duration":0.12931025000000318,"midi":68,"time":158.40505625000003,"velocity":0.30708661417322836},{"duration":0.12931025000000318,"midi":66,"time":158.5666940625,"velocity":0.30708661417322836},{"duration":0.12931025000000318,"midi":68,"time":158.66367675,"velocity":0.30708661417322836},{"duration":0.12931025000000318,"midi":61,"time":159.08393506250002,"velocity":0.30708661417322836},{"duration":0.12931025000000318,"midi":63,"time":159.18091775000002,"velocity":0.30708661417322836},{"duration":0.12931025000000318,"midi":61,"time":159.34255556250002,"velocity":0.30708661417322836},{"duration":0.12931025000000318,"midi":73,"time":159.43953825000003,"velocity":0.30708661417322836},{"duration":0.12931024999997476,"midi":73,"time":159.69815875000003,"velocity":0.30708661417322836},{"duration":0.12931025000000318,"midi":71,"time":159.95677925,"velocity":0.30708661417322836},{"duration":0.12931025000000318,"midi":71,"time":160.21539975000002,"velocity":0.30708661417322836},{"duration":0.12931025000000318,"midi":68,"time":160.47402025000002,"velocity":0.30708661417322836},{"duration":0.12931025000000318,"midi":66,"time":160.63565806250003,"velocity":0.30708661417322836},{"duration":0.12931025000000318,"midi":68,"time":160.73264075000003,"velocity":0.30708661417322836},{"duration":0.12931025000000318,"midi":61,"time":161.1528990625,"velocity":0.30708661417322836},{"duration":0.12931025000000318,"midi":63,"time":161.24988175000001,"velocity":0.30708661417322836},{"duration":0.12931025000000318,"midi":61,"time":161.41151956250002,"velocity":0.30708661417322836},{"duration":0.12931025000000318,"midi":65,"time":161.50850225000002,"velocity":0.30708661417322836},{"duration":0.12931025000000318,"midi":65,"time":161.76712275000003,"velocity":0.30708661417322836},{"duration":0.12931024999997476,"midi":63,"time":162.02574325000003,"velocity":0.30708661417322836},{"duration":0.12931025000000318,"midi":63,"time":162.28436375,"velocity":0.30708661417322836},{"duration":0.12931025000000318,"midi":61,"time":162.54298425000002,"velocity":0.30708661417322836},{"duration":0.12931025000000318,"midi":60,"time":162.70462206250002,"velocity":0.30708661417322836},{"duration":0.12931025000000318,"midi":61,"time":162.80160475000002,"velocity":0.30708661417322836},{"duration":0.12931025000000318,"midi":68,"time":163.2218630625,"velocity":0.30708661417322836},{"duration":0.12931025000000318,"midi":70,"time":163.31884575,"velocity":0.30708661417322836},{"duration":0.12931025000000318,"midi":68,"time":163.4804835625,"velocity":0.30708661417322836},{"duration":0.12931025000000318,"midi":77,"time":163.57746625000001,"velocity":0.30708661417322836},{"duration":0.12931025000000318,"midi":80,"time":163.83608675000002,"velocity":0.30708661417322836},{"duration":0.12931025000000318,"midi":77,"time":164.09470725000003,"velocity":0.30708661417322836},{"duration":0.12931024999997476,"midi":75,"time":164.35332775000003,"velocity":0.30708661417322836},{"duration":0.12931025000000318,"midi":73,"time":164.61194825,"velocity":0.30708661417322836},{"duration":0.12931025000000318,"midi":72,"time":164.77358606250002,"velocity":0.30708661417322836},{"duration":0.12931025000000318,"midi":73,"time":164.87056875000002,"velocity":0.30708661417322836},{"duration":0.12931025000000318,"midi":68,"time":165.12918925000002,"velocity":0.30708661417322836},{"duration":0.12931025000000318,"midi":70,"time":165.38780975000003,"velocity":0.30708661417322836},{"duration":0.12931025000000318,"midi":70,"time":165.64643025,"velocity":0.09448818897637795}]},{"instrument":{"family":"synth lead","number":80,"name":"lead 1 (square)"},"notes":[{"duration":0.12931025000000002,"midi":73,"time":0,"velocity":0.30708661417322836},{"duration":0.12931025000000002,"midi":73,"time":0.25862050000000003,"velocity":0.30708661417322836},{"duration":0.12931025000000007,"midi":72,"time":0.5172410000000001,"velocity":0.30708661417322836},{"duration":0.12931024999999996,"midi":72,"time":0.7758615000000001,"velocity":0.30708661417322836},{"duration":0.12931025000000007,"midi":68,"time":1.0344820000000001,"velocity":0.30708661417322836},{"duration":0.12931025000000007,"midi":65,"time":1.1961198125,"velocity":0.30708661417322836},{"duration":0.12931024999999985,"midi":68,"time":1.2931025000000003,"velocity":0.30708661417322836},{"duration":0.12931025000000007,"midi":61,"time":1.7133608125000002,"velocity":0.30708661417322836},{"duration":0.12931025000000007,"midi":63,"time":1.8103435,"velocity":0.30708661417322836},{"duration":0.12931024999999985,"midi":61,"time":1.9719813125000003,"velocity":0.30708661417322836},{"duration":0.12931025000000007,"midi":73,"time":2.0689640000000002,"velocity":0.30708661417322836},{"duration":0.12931025000000007,"midi":73,"time":2.3275845000000004,"velocity":0.30708661417322836},{"duration":0.12931024999999963,"midi":72,"time":2.5862050000000005,"velocity":0.30708661417322836},{"duration":0.12931025000000007,"midi":72,"time":2.8448255000000002,"velocity":0.30708661417322836},{"duration":0.12931025000000007,"midi":68,"time":3.1034460000000004,"velocity":0.30708661417322836},{"duration":0.12931025000000007,"midi":65,"time":3.2650838125000003,"velocity":0.30708661417322836},{"duration":0.12931025000000007,"midi":68,"time":3.3620665000000005,"velocity":0.30708661417322836},{"duration":0.12931024999999963,"midi":61,"time":3.7823248125000006,"velocity":0.30708661417322836},{"duration":0.12931025000000052,"midi":63,"time":3.8793075000000004,"velocity":0.30708661417322836},{"duration":0.12931024999999963,"midi":61,"time":4.040945312500001,"velocity":0.30708661417322836},{"duration":0.12931024999999963,"midi":65,"time":4.1379280000000005,"velocity":0.30708661417322836},{"duration":0.12931024999999963,"midi":65,"time":4.396548500000001,"velocity":0.30708661417322836},{"duration":0.12931024999999963,"midi":63,"time":4.655169000000001,"velocity":0.30708661417322836},{"duration":0.12931024999999963,"midi":63,"time":4.913789500000001,"velocity":0.30708661417322836},{"duration":0.12931024999999963,"midi":61,"time":5.172410000000001,"velocity":0.30708661417322836},{"duration":0.12931024999999963,"midi":60,"time":5.334047812500001,"velocity":0.30708661417322836},{"duration":0.12931025000000052,"midi":61,"time":5.4310305,"velocity":0.30708661417322836},{"duration":0.12931024999999963,"midi":68,"time":5.851288812500001,"velocity":0.30708661417322836},{"duration":0.12931025000000052,"midi":70,"time":5.948271500000001,"velocity":0.30708661417322836},{"duration":0.12931024999999963,"midi":68,"time":6.109909312500001,"velocity":0.30708661417322836},{"duration":0.12931024999999963,"midi":77,"time":6.206892000000001,"velocity":0.30708661417322836},{"duration":0.12931024999999963,"midi":78,"time":6.465512500000001,"velocity":0.30708661417322836},{"duration":0.12931024999999963,"midi":77,"time":6.724133000000001,"velocity":0.30708661417322836},{"duration":0.12931024999999963,"midi":75,"time":6.982753500000001,"velocity":0.30708661417322836},{"duration":0.12931025000000052,"midi":73,"time":7.241374,"velocity":0.30708661417322836},{"duration":0.12931024999999963,"midi":72,"time":7.403011812500001,"velocity":0.30708661417322836},{"duration":0.12931025000000052,"midi":73,"time":7.499994500000001,"velocity":0.30708661417322836},{"duration":0.12931025000000052,"midi":68,"time":7.758615000000001,"velocity":0.30708661417322836},{"duration":0.12931024999999963,"midi":70,"time":8.017235500000002,"velocity":0.30708661417322836},{"duration":0.12931024999999963,"midi":73,"time":8.275856000000001,"velocity":0.30708661417322836},{"duration":0.1293102500000014,"midi":73,"time":8.5344765,"velocity":0.30708661417322836},{"duration":0.12931024999999963,"midi":72,"time":8.793097000000001,"velocity":0.30708661417322836},{"duration":0.1293102500000014,"midi":72,"time":9.0517175,"velocity":0.30708661417322836},{"duration":0.12931024999999963,"midi":68,"time":9.310338000000002,"velocity":0.30708661417322836},{"duration":0.12931024999999963,"midi":65,"time":9.471975812500002,"velocity":0.30708661417322836},{"duration":0.12931024999999963,"midi":68,"time":9.5689585,"velocity":0.30708661417322836},{"duration":0.1293102500000014,"midi":61,"time":9.9892168125,"velocity":0.30708661417322836},{"duration":0.12931024999999963,"midi":63,"time":10.086199500000001,"velocity":0.30708661417322836},{"duration":0.12931024999999963,"midi":61,"time":10.247837312500002,"velocity":0.30708661417322836},{"duration":0.12931024999999963,"midi":73,"time":10.344820000000002,"velocity":0.30708661417322836},{"duration":0.12931024999999963,"midi":73,"time":10.603440500000001,"velocity":0.30708661417322836},{"duration":0.1293102500000014,"midi":72,"time":10.862061,"velocity":0.30708661417322836},{"duration":0.12931024999999963,"midi":72,"time":11.120681500000002,"velocity":0.30708661417322836},{"duration":0.12931024999999963,"midi":68,"time":11.379302000000001,"velocity":0.30708661417322836},{"duration":0.12931024999999963,"midi":65,"time":11.540939812500001,"velocity":0.30708661417322836},{"duration":0.12931024999999963,"midi":68,"time":11.637922500000002,"velocity":0.30708661417322836},{"duration":0.12931024999999963,"midi":61,"time":12.058180812500002,"velocity":0.30708661417322836},{"duration":0.12931024999999963,"midi":63,"time":12.155163500000002,"velocity":0.30708661417322836},{"duration":0.1293102500000014,"midi":61,"time":12.3168013125,"velocity":0.30708661417322836},{"duration":0.12931024999999963,"midi":65,"time":12.413784000000001,"velocity":0.30708661417322836},{"duration":0.1293102500000014,"midi":65,"time":12.6724045,"velocity":0.30708661417322836},{"duration":0.12931024999999963,"midi":63,"time":12.931025000000002,"velocity":0.30708661417322836},{"duration":0.1293102500000014,"midi":63,"time":13.189645500000001,"velocity":0.30708661417322836},{"duration":0.12931024999999963,"midi":61,"time":13.448266000000002,"velocity":0.30708661417322836},{"duration":0.12931024999999963,"midi":60,"time":13.609903812500002,"velocity":0.30708661417322836},{"duration":0.12931024999999963,"midi":61,"time":13.706886500000001,"velocity":0.30708661417322836},{"duration":0.1293102500000014,"midi":68,"time":14.127144812500001,"velocity":0.30708661417322836},{"duration":0.12931024999999963,"midi":70,"time":14.224127500000002,"velocity":0.30708661417322836},{"duration":0.12931024999999963,"midi":68,"time":14.385765312500002,"velocity":0.30708661417322836},{"duration":0.1293102500000014,"midi":89,"time":14.482748,"velocity":0.30708661417322836},{"duration":0.12931024999999963,"midi":90,"time":14.741368500000002,"velocity":0.30708661417322836},{"duration":0.1293102500000014,"midi":89,"time":14.999989000000001,"velocity":0.30708661417322836},{"duration":0.12931024999999963,"midi":87,"time":15.258609500000002,"velocity":0.30708661417322836},{"duration":0.12931024999999963,"midi":85,"time":15.517230000000001,"velocity":0.30708661417322836},{"duration":0.12931024999999963,"midi":84,"time":15.678867812500002,"velocity":0.30708661417322836},{"duration":0.12931024999999963,"midi":85,"time":15.775850500000002,"velocity":0.30708661417322836},{"duration":0.12931024999999963,"midi":80,"time":16.034471000000003,"velocity":0.30708661417322836},{"duration":0.12931024999999963,"midi":82,"time":16.293091500000003,"velocity":0.30708661417322836},{"duration":0.12931024999999963,"midi":73,"time":16.551712000000002,"velocity":0.30708661417322836},{"duration":0.12931024999999963,"midi":73,"time":16.8103325,"velocity":0.30708661417322836},{"duration":0.12931025000000318,"midi":72,"time":17.068953,"velocity":0.30708661417322836},{"duration":0.12931024999999963,"midi":72,"time":17.327573500000003,"velocity":0.30708661417322836},{"duration":0.12931024999999963,"midi":68,"time":17.586194000000003,"velocity":0.30708661417322836},{"duration":0.12931024999999963,"midi":65,"time":17.747831812500003,"velocity":0.30708661417322836},{"duration":0.12931024999999963,"midi":68,"time":17.844814500000002,"velocity":0.30708661417322836},{"duration":0.12931024999999963,"midi":61,"time":18.2650728125,"velocity":0.30708661417322836},{"duration":0.12931024999999963,"midi":63,"time":18.362055500000004,"velocity":0.30708661417322836},{"duration":0.12931025000000318,"midi":61,"time":18.5236933125,"velocity":0.30708661417322836},{"duration":0.12931024999999963,"midi":73,"time":18.620676000000003,"velocity":0.30708661417322836},{"duration":0.12931024999999963,"midi":73,"time":18.879296500000002,"velocity":0.30708661417322836},{"duration":0.12931024999999963,"midi":72,"time":19.137917,"velocity":0.30708661417322836},{"duration":0.12931025000000318,"midi":72,"time":19.3965375,"velocity":0.30708661417322836},{"duration":0.12931024999999963,"midi":68,"time":19.655158000000004,"velocity":0.30708661417322836},{"duration":0.12931024999999963,"midi":65,"time":19.816795812500004,"velocity":0.30708661417322836},{"duration":0.12931024999999963,"midi":68,"time":19.913778500000003,"velocity":0.30708661417322836},{"duration":0.12931024999999963,"midi":61,"time":20.334036812500003,"velocity":0.30708661417322836},{"duration":0.12931024999999963,"midi":63,"time":20.4310195,"velocity":0.30708661417322836},{"duration":0.12931024999999963,"midi":61,"time":20.592657312500002,"velocity":0.30708661417322836},{"duration":0.12931024999999963,"midi":65,"time":20.689640000000004,"velocity":0.30708661417322836},{"duration":0.12931024999999963,"midi":65,"time":20.948260500000004,"velocity":0.30708661417322836},{"duration":0.12931024999999963,"midi":63,"time":21.206881000000003,"velocity":0.30708661417322836},{"duration":0.12931024999999963,"midi":63,"time":21.465501500000002,"velocity":0.30708661417322836},{"duration":0.12931024999999963,"midi":61,"time":21.724122,"velocity":0.30708661417322836},{"duration":0.12931024999999963,"midi":60,"time":21.8857598125,"velocity":0.30708661417322836},{"duration":0.12931024999999963,"midi":61,"time":21.982742500000004,"velocity":0.30708661417322836},{"duration":0.12931024999999963,"midi":68,"time":22.403000812500004,"velocity":0.30708661417322836},{"duration":0.12931024999999963,"midi":70,"time":22.499983500000003,"velocity":0.30708661417322836},{"duration":0.12931024999999963,"midi":68,"time":22.661621312500003,"velocity":0.30708661417322836},{"duration":0.12931024999999963,"midi":77,"time":22.758604000000002,"velocity":0.30708661417322836},{"duration":0.12931025000000318,"midi":78,"time":23.0172245,"velocity":0.30708661417322836},{"duration":0.12931024999999963,"midi":77,"time":23.275845000000004,"velocity":0.30708661417322836},{"duration":0.12931024999999963,"midi":75,"time":23.534465500000003,"velocity":0.30708661417322836},{"duration":0.12931024999999963,"midi":73,"time":23.793086000000002,"velocity":0.30708661417322836},{"duration":0.12931024999999963,"midi":72,"time":23.954723812500003,"velocity":0.30708661417322836},{"duration":0.12931024999999963,"midi":73,"time":24.0517065,"velocity":0.30708661417322836},{"duration":0.12931024999999963,"midi":68,"time":24.310327000000004,"velocity":0.30708661417322836},{"duration":0.12931024999999963,"midi":70,"time":24.568947500000004,"velocity":0.30708661417322836},{"duration":0.12931024999999963,"midi":73,"time":24.827568000000003,"velocity":0.30708661417322836},{"duration":0.12931024999999963,"midi":73,"time":25.086188500000002,"velocity":0.30708661417322836},{"duration":0.12931025000000318,"midi":72,"time":25.344809,"velocity":0.30708661417322836},{"duration":0.12931024999999963,"midi":72,"time":25.603429500000004,"velocity":0.30708661417322836},{"duration":0.12931024999999963,"midi":68,"time":25.862050000000004,"velocity":0.30708661417322836},{"duration":0.12931024999999963,"midi":65,"time":26.023687812500004,"velocity":0.30708661417322836},{"duration":0.12931024999999963,"midi":68,"time":26.120670500000003,"velocity":0.30708661417322836},{"duration":0.12931024999999963,"midi":61,"time":26.540928812500002,"velocity":0.30708661417322836},{"duration":0.12931024999999963,"midi":63,"time":26.637911500000005,"velocity":0.30708661417322836},{"duration":0.12931025000000318,"midi":61,"time":26.7995493125,"velocity":0.30708661417322836},{"duration":0.12931024999999963,"midi":73,"time":26.896532000000004,"velocity":0.30708661417322836},{"duration":0.12931024999999963,"midi":73,"time":27.155152500000003,"velocity":0.30708661417322836},{"duration":0.12931024999999963,"midi":72,"time":27.413773000000003,"velocity":0.30708661417322836},{"duration":0.12931025000000318,"midi":72,"time":27.672393500000002,"velocity":0.30708661417322836},{"duration":0.12931024999999963,"midi":68,"time":27.931014000000005,"velocity":0.30708661417322836},{"duration":0.12931024999999963,"midi":65,"time":28.092651812500005,"velocity":0.30708661417322836},{"duration":0.12931024999999963,"midi":68,"time":28.189634500000004,"velocity":0.30708661417322836},{"duration":0.12931024999999963,"midi":73,"time":28.609892812500004,"velocity":0.30708661417322836},{"duration":0.12931024999999963,"midi":75,"time":28.706875500000002,"velocity":0.30708661417322836},{"duration":0.12931024999999963,"midi":73,"time":28.868513312500003,"velocity":0.30708661417322836},{"duration":0.12931025000000318,"midi":77,"time":28.965496,"velocity":0.30708661417322836},{"duration":0.12931024999999963,"midi":77,"time":29.224116500000004,"velocity":0.30708661417322836},{"duration":0.12931024999999963,"midi":75,"time":29.482737000000004,"velocity":0.30708661417322836},{"duration":0.12931024999999963,"midi":75,"time":29.741357500000003,"velocity":0.30708661417322836},{"duration":0.12931024999999963,"midi":73,"time":29.999978000000002,"velocity":0.30708661417322836},{"duration":0.12931024999999963,"midi":72,"time":30.161615812500003,"velocity":0.30708661417322836},{"duration":0.12931024999999963,"midi":73,"time":30.258598500000005,"velocity":0.30708661417322836},{"duration":0.12931024999999963,"midi":80,"time":30.678856812500005,"velocity":0.30708661417322836},{"duration":0.12931024999999963,"midi":82,"time":30.775839500000004,"velocity":0.30708661417322836},{"duration":0.12931024999999963,"midi":80,"time":30.937477312500004,"velocity":0.30708661417322836},{"duration":0.12931024999999963,"midi":89,"time":31.034460000000003,"velocity":0.30708661417322836},{"duration":0.12931025000000318,"midi":92,"time":31.293080500000002,"velocity":0.30708661417322836},{"duration":0.12931024999999963,"midi":89,"time":31.551701000000005,"velocity":0.30708661417322836},{"duration":0.12931024999999963,"midi":87,"time":31.810321500000004,"velocity":0.30708661417322836},{"duration":0.12931024999999607,"midi":85,"time":32.06894200000001,"velocity":0.30708661417322836},{"duration":0.12931025000000318,"midi":84,"time":32.230579812500004,"velocity":0.30708661417322836},{"duration":0.12931024999999607,"midi":85,"time":32.327562500000006,"velocity":0.30708661417322836},{"duration":0.12931024999999607,"midi":80,"time":32.586183000000005,"velocity":0.30708661417322836},{"duration":0.12931024999999607,"midi":82,"time":32.844803500000005,"velocity":0.30708661417322836},{"duration":0.12931025000000318,"midi":73,"time":33.103424000000004,"velocity":0.30708661417322836},{"duration":0.12931025000000318,"midi":73,"time":33.3620445,"velocity":0.30708661417322836},{"duration":0.12931025000000318,"midi":72,"time":33.620665,"velocity":0.30708661417322836},{"duration":0.12931025000000318,"midi":72,"time":33.8792855,"velocity":0.30708661417322836},{"duration":0.12931025000000318,"midi":68,"time":34.137906,"velocity":0.30708661417322836},{"duration":0.12931024999999607,"midi":65,"time":34.299543812500005,"velocity":0.30708661417322836},{"duration":0.12931024999999607,"midi":68,"time":34.39652650000001,"velocity":0.30708661417322836},{"duration":0.12931025000000318,"midi":61,"time":34.8167848125,"velocity":0.30708661417322836},{"duration":0.12931024999999607,"midi":63,"time":34.913767500000006,"velocity":0.30708661417322836},{"duration":0.12931025000000318,"midi":61,"time":35.0754053125,"velocity":0.30708661417322836},{"duration":0.12931024999999607,"midi":73,"time":35.172388000000005,"velocity":0.30708661417322836},{"duration":0.12931025000000318,"midi":73,"time":35.431008500000004,"velocity":0.30708661417322836},{"duration":0.12931025000000318,"midi":72,"time":35.689629000000004,"velocity":0.30708661417322836},{"duration":0.12931025000000318,"midi":72,"time":35.9482495,"velocity":0.30708661417322836},{"duration":0.12931025000000318,"midi":68,"time":36.20687,"velocity":0.30708661417322836},{"duration":0.12931024999999607,"midi":65,"time":36.368507812500006,"velocity":0.30708661417322836},{"duration":0.12931025000000318,"midi":68,"time":36.4654905,"velocity":0.30708661417322836},{"duration":0.12931025000000318,"midi":61,"time":36.885748812500005,"velocity":0.30708661417322836},{"duration":0.12931024999999607,"midi":63,"time":36.98273150000001,"velocity":0.30708661417322836},{"duration":0.12931025000000318,"midi":61,"time":37.144369312500004,"velocity":0.30708661417322836},{"duration":0.12931024999999607,"midi":65,"time":37.241352000000006,"velocity":0.30708661417322836},{"duration":0.12931024999999607,"midi":65,"time":37.499972500000005,"velocity":0.30708661417322836},{"duration":0.12931025000000318,"midi":63,"time":37.758593000000005,"velocity":0.30708661417322836},{"duration":0.12931025000000318,"midi":63,"time":38.017213500000004,"velocity":0.30708661417322836},{"duration":0.12931025000000318,"midi":61,"time":38.275834,"velocity":0.30708661417322836},{"duration":0.12931024999999607,"midi":60,"time":38.43747181250001,"velocity":0.30708661417322836},{"duration":0.12931025000000318,"midi":61,"time":38.5344545,"velocity":0.30708661417322836},{"duration":0.12931024999999607,"midi":68,"time":38.954712812500006,"velocity":0.30708661417322836},{"duration":0.12931024999999607,"midi":70,"time":39.05169550000001,"velocity":0.30708661417322836},{"duration":0.12931025000000318,"midi":68,"time":39.213333312500005,"velocity":0.30708661417322836},{"duration":0.12931024999999607,"midi":77,"time":39.31031600000001,"velocity":0.30708661417322836},{"duration":0.12931024999999607,"midi":78,"time":39.56893650000001,"velocity":0.30708661417322836},{"duration":0.12931024999999607,"midi":77,"time":39.827557000000006,"velocity":0.30708661417322836},{"duration":0.12931025000000318,"midi":75,"time":40.086177500000005,"velocity":0.30708661417322836},{"duration":0.12931025000000318,"midi":73,"time":40.344798000000004,"velocity":0.30708661417322836},{"duration":0.12931024999999607,"midi":72,"time":40.50643581250001,"velocity":0.30708661417322836},{"duration":0.12931025000000318,"midi":73,"time":40.603418500000004,"velocity":0.30708661417322836},{"duration":0.12931025000000318,"midi":68,"time":40.862039,"velocity":0.30708661417322836},{"duration":0.12931025000000318,"midi":70,"time":41.1206595,"velocity":0.30708661417322836},{"duration":0.12931024999999607,"midi":73,"time":41.37928000000001,"velocity":0.30708661417322836},{"duration":0.12931024999999607,"midi":73,"time":41.63790050000001,"velocity":0.30708661417322836},{"duration":0.12931024999999607,"midi":72,"time":41.89652100000001,"velocity":0.30708661417322836},{"duration":0.12931024999999607,"midi":72,"time":42.155141500000006,"velocity":0.30708661417322836},{"duration":0.12931024999999607,"midi":68,"time":42.413762000000006,"velocity":0.30708661417322836},{"duration":0.12931025000000318,"midi":65,"time":42.5753998125,"velocity":0.30708661417322836},{"duration":0.12931025000000318,"midi":68,"time":42.672382500000005,"velocity":0.30708661417322836},{"duration":0.12931024999999607,"midi":61,"time":43.09264081250001,"velocity":0.30708661417322836},{"duration":0.12931025000000318,"midi":63,"time":43.1896235,"velocity":0.30708661417322836},{"duration":0.12931024999999607,"midi":61,"time":43.35126131250001,"velocity":0.30708661417322836},{"duration":0.12931025000000318,"midi":73,"time":43.448244,"velocity":0.30708661417322836},{"duration":0.12931025000000318,"midi":73,"time":43.7068645,"velocity":0.30708661417322836},{"duration":0.12931024999999607,"midi":72,"time":43.96548500000001,"velocity":0.30708661417322836},{"duration":0.12931024999999607,"midi":72,"time":44.22410550000001,"velocity":0.30708661417322836},{"duration":0.12931024999999607,"midi":68,"time":44.48272600000001,"velocity":0.30708661417322836},{"duration":0.12931025000000318,"midi":65,"time":44.6443638125,"velocity":0.30708661417322836},{"duration":0.12931024999999607,"midi":68,"time":44.741346500000006,"velocity":0.30708661417322836},{"duration":0.12931025000000318,"midi":73,"time":45.1616048125,"velocity":0.30708661417322836},{"duration":0.12931025000000318,"midi":75,"time":45.258587500000004,"velocity":0.30708661417322836},{"duration":0.12931024999999607,"midi":73,"time":45.42022531250001,"velocity":0.30708661417322836},{"duration":0.12931025000000318,"midi":77,"time":45.517208000000004,"velocity":0.30708661417322836},{"duration":0.12931025000000318,"midi":77,"time":45.7758285,"velocity":0.30708661417322836},{"duration":0.12931025000000318,"midi":75,"time":46.034449,"velocity":0.30708661417322836},{"duration":0.12931024999999607,"midi":75,"time":46.29306950000001,"velocity":0.30708661417322836},{"duration":0.12931024999999607,"midi":73,"time":46.55169000000001,"velocity":0.30708661417322836},{"duration":0.12931025000000318,"midi":72,"time":46.713327812500005,"velocity":0.30708661417322836},{"duration":0.12931024999999607,"midi":73,"time":46.81031050000001,"velocity":0.30708661417322836},{"duration":0.12931025000000318,"midi":80,"time":47.2305688125,"velocity":0.30708661417322836},{"duration":0.12931025000000318,"midi":82,"time":47.327551500000006,"velocity":0.30708661417322836},{"duration":0.12931025000000318,"midi":80,"time":47.4891893125,"velocity":0.30708661417322836},{"duration":0.12931025000000318,"midi":89,"time":47.586172000000005,"velocity":0.30708661417322836},{"duration":0.12931025000000318,"midi":92,"time":47.844792500000004,"velocity":0.30708661417322836},{"duration":0.12931025000000318,"midi":89,"time":48.103413,"velocity":0.30708661417322836},{"duration":0.12931025000000318,"midi":87,"time":48.3620335,"velocity":0.30708661417322836},{"duration":0.12931024999999607,"midi":85,"time":48.62065400000001,"velocity":0.30708661417322836},{"duration":0.12931025000000318,"midi":84,"time":48.782291812500006,"velocity":0.30708661417322836},{"duration":0.12931024999999607,"midi":85,"time":48.87927450000001,"velocity":0.30708661417322836},{"duration":0.12931024999999607,"midi":80,"time":49.13789500000001,"velocity":0.30708661417322836},{"duration":0.12931024999999607,"midi":82,"time":49.39651550000001,"velocity":0.30708661417322836},{"duration":0.12931025000000318,"midi":73,"time":49.655136000000006,"velocity":0.30708661417322836},{"duration":0.12931025000000318,"midi":73,"time":49.913756500000005,"velocity":0.30708661417322836},{"duration":0.12931025000000318,"midi":72,"time":50.172377000000004,"velocity":0.30708661417322836},{"duration":0.12931025000000318,"midi":72,"time":50.430997500000004,"velocity":0.30708661417322836},{"duration":0.12931025000000318,"midi":68,"time":50.689618,"velocity":0.30708661417322836},{"duration":0.12931024999999607,"midi":65,"time":50.85125581250001,"velocity":0.30708661417322836},{"duration":0.12931024999999607,"midi":68,"time":50.94823850000001,"velocity":0.30708661417322836},{"duration":0.12931025000000318,"midi":61,"time":51.368496812500005,"velocity":0.30708661417322836},{"duration":0.12931024999999607,"midi":63,"time":51.46547950000001,"velocity":0.30708661417322836},{"duration":0.12931025000000318,"midi":61,"time":51.627117312500005,"velocity":0.30708661417322836},{"duration":0.12931024999999607,"midi":73,"time":51.72410000000001,"velocity":0.30708661417322836},{"duration":0.12931025000000318,"midi":73,"time":51.982720500000006,"velocity":0.30708661417322836},{"duration":0.12931025000000318,"midi":72,"time":52.241341000000006,"velocity":0.30708661417322836},{"duration":0.12931025000000318,"midi":72,"time":52.499961500000005,"velocity":0.30708661417322836},{"duration":0.12931025000000318,"midi":68,"time":52.758582000000004,"velocity":0.30708661417322836},{"duration":0.12931024999999607,"midi":65,"time":52.92021981250001,"velocity":0.30708661417322836},{"duration":0.12931025000000318,"midi":68,"time":53.0172025,"velocity":0.30708661417322836},{"duration":0.12931025000000318,"midi":61,"time":53.43746081250001,"velocity":0.30708661417322836},{"duration":0.12931024999999607,"midi":63,"time":53.53444350000001,"velocity":0.30708661417322836},{"duration":0.12931025000000318,"midi":61,"time":53.696081312500006,"velocity":0.30708661417322836},{"duration":0.12931024999999607,"midi":65,"time":53.79306400000001,"velocity":0.30708661417322836},{"duration":0.12931024999999607,"midi":65,"time":54.05168450000001,"velocity":0.30708661417322836},{"duration":0.12931025000000318,"midi":63,"time":54.31030500000001,"velocity":0.30708661417322836},{"duration":0.12931025000000318,"midi":63,"time":54.568925500000006,"velocity":0.30708661417322836},{"duration":0.12931025000000318,"midi":61,"time":54.827546000000005,"velocity":0.30708661417322836},{"duration":0.12931024999999607,"midi":60,"time":54.98918381250001,"velocity":0.30708661417322836},{"duration":0.12931025000000318,"midi":61,"time":55.086166500000004,"velocity":0.30708661417322836},{"duration":0.12931024999999607,"midi":68,"time":55.50642481250001,"velocity":0.30708661417322836},{"duration":0.12931024999999607,"midi":70,"time":55.60340750000001,"velocity":0.30708661417322836},{"duration":0.12931025000000318,"midi":68,"time":55.76504531250001,"velocity":0.30708661417322836},{"duration":0.12931024999999607,"midi":77,"time":55.86202800000001,"velocity":0.30708661417322836},{"duration":0.12931024999999607,"midi":78,"time":56.12064850000001,"velocity":0.30708661417322836},{"duration":0.12931024999999607,"midi":77,"time":56.37926900000001,"velocity":0.30708661417322836},{"duration":0.12931025000000318,"midi":75,"time":56.63788950000001,"velocity":0.30708661417322836},{"duration":0.12931025000000318,"midi":73,"time":56.896510000000006,"velocity":0.30708661417322836},{"duration":0.12931024999999607,"midi":72,"time":57.05814781250001,"velocity":0.30708661417322836},{"duration":0.12931025000000318,"midi":73,"time":57.155130500000006,"velocity":0.30708661417322836},{"duration":0.12931025000000318,"midi":68,"time":57.413751000000005,"velocity":0.30708661417322836},{"duration":0.12931025000000318,"midi":70,"time":57.672371500000004,"velocity":0.30708661417322836},{"duration":0.12931025000000318,"midi":73,"time":57.930992,"velocity":0.30708661417322836},{"duration":0.12931024999999607,"midi":73,"time":58.18961250000001,"velocity":0.30708661417322836},{"duration":0.12931024999999607,"midi":72,"time":58.44823300000001,"velocity":0.30708661417322836},{"duration":0.12931024999999607,"midi":72,"time":58.70685350000001,"velocity":0.30708661417322836},{"duration":0.12931024999999607,"midi":68,"time":58.96547400000001,"velocity":0.30708661417322836},{"duration":0.12931025000000318,"midi":65,"time":59.127111812500004,"velocity":0.30708661417322836},{"duration":0.12931025000000318,"midi":68,"time":59.22409450000001,"velocity":0.30708661417322836},{"duration":0.12931024999999607,"midi":61,"time":59.64435281250001,"velocity":0.30708661417322836},{"duration":0.12931025000000318,"midi":63,"time":59.741335500000005,"velocity":0.30708661417322836},{"duration":0.12931024999999607,"midi":61,"time":59.90297331250001,"velocity":0.30708661417322836},{"duration":0.12931025000000318,"midi":73,"time":59.999956000000005,"velocity":0.30708661417322836},{"duration":0.12931025000000318,"midi":73,"time":60.258576500000004,"velocity":0.30708661417322836},{"duration":0.12931024999999607,"midi":72,"time":60.51719700000001,"velocity":0.30708661417322836},{"duration":0.12931024999999607,"midi":72,"time":60.77581750000001,"velocity":0.30708661417322836},{"duration":0.12931024999999607,"midi":68,"time":61.03443800000001,"velocity":0.30708661417322836},{"duration":0.12931025000000318,"midi":65,"time":61.196075812500005,"velocity":0.30708661417322836},{"duration":0.12931024999999607,"midi":68,"time":61.29305850000001,"velocity":0.30708661417322836},{"duration":0.12931025000000318,"midi":73,"time":61.713316812500004,"velocity":0.30708661417322836},{"duration":0.12931025000000318,"midi":75,"time":61.810299500000006,"velocity":0.30708661417322836},{"duration":0.12931024999999607,"midi":73,"time":61.97193731250001,"velocity":0.30708661417322836},{"duration":0.12931025000000318,"midi":77,"time":62.068920000000006,"velocity":0.30708661417322836},{"duration":0.12931025000000318,"midi":77,"time":62.327540500000005,"velocity":0.30708661417322836},{"duration":0.12931025000000318,"midi":75,"time":62.586161000000004,"velocity":0.30708661417322836},{"duration":0.12931024999999607,"midi":75,"time":62.84478150000001,"velocity":0.30708661417322836},{"duration":0.12931024999999607,"midi":73,"time":63.10340200000001,"velocity":0.30708661417322836},{"duration":0.12931025000000318,"midi":72,"time":63.26503981250001,"velocity":0.30708661417322836},{"duration":0.12931024999999607,"midi":73,"time":63.36202250000001,"velocity":0.30708661417322836},{"duration":0.12931025000000318,"midi":80,"time":63.782280812500005,"velocity":0.30708661417322836},{"duration":0.12931025000000318,"midi":82,"time":63.87926350000001,"velocity":0.30708661417322836},{"duration":0.12931025000000318,"midi":80,"time":64.04090131250001,"velocity":0.30708661417322836},{"duration":0.12931024999998897,"midi":89,"time":64.13788400000001,"velocity":0.30708661417322836},{"duration":0.12931025000000318,"midi":92,"time":64.3965045,"velocity":0.30708661417322836},{"duration":0.12931024999998897,"midi":89,"time":64.65512500000001,"velocity":0.30708661417322836},{"duration":0.12931025000000318,"midi":87,"time":64.9137455,"velocity":0.30708661417322836},{"duration":0.12931025000000318,"midi":85,"time":65.17236600000001,"velocity":0.30708661417322836},{"duration":0.12931024999998897,"midi":84,"time":65.33400381250001,"velocity":0.30708661417322836},{"duration":0.12931025000000318,"midi":85,"time":65.4309865,"velocity":0.30708661417322836},{"duration":0.12931025000000318,"midi":80,"time":65.68960700000001,"velocity":0.30708661417322836},{"duration":0.12931025000000318,"midi":82,"time":65.9482275,"velocity":0.30708661417322836},{"duration":0.12931024999998897,"midi":61,"time":66.46546850000001,"velocity":0.30708661417322836},{"duration":0.12931025000000318,"midi":63,"time":66.724089,"velocity":0.30708661417322836},{"duration":0.12931024999998897,"midi":68,"time":66.98270950000001,"velocity":0.30708661417322836},{"duration":0.12931025000000318,"midi":73,"time":67.24133,"velocity":0.30708661417322836},{"duration":0.12931025000000318,"midi":68,"time":67.49995050000001,"velocity":0.30708661417322836},{"duration":0.12931025000000318,"midi":61,"time":67.758571,"velocity":0.30708661417322836},{"duration":0.12931025000000318,"midi":63,"time":68.01719150000001,"velocity":0.30708661417322836},{"duration":0.12931025000000318,"midi":61,"time":68.53443250000001,"velocity":0.30708661417322836},{"duration":0.12931024999998897,"midi":63,"time":68.79305300000001,"velocity":0.30708661417322836},{"duration":0.12931025000000318,"midi":68,"time":69.0516735,"velocity":0.30708661417322836},{"duration":0.12931024999998897,"midi":73,"time":69.31029400000001,"velocity":0.30708661417322836},{"duration":0.12931025000000318,"midi":68,"time":69.5689145,"velocity":0.30708661417322836},{"duration":0.12931025000000318,"midi":61,"time":69.82753500000001,"velocity":0.30708661417322836},{"duration":0.12931025000000318,"midi":63,"time":70.0861555,"velocity":0.30708661417322836},{"duration":0.12931025000000318,"midi":61,"time":70.6033965,"velocity":0.30708661417322836},{"duration":0.12931025000000318,"midi":63,"time":70.86201700000001,"velocity":0.30708661417322836},{"duration":0.12931024999998897,"midi":68,"time":71.12063750000002,"velocity":0.30708661417322836},{"duration":0.12931025000000318,"midi":73,"time":71.37925800000001,"velocity":0.30708661417322836},{"duration":0.12931024999998897,"midi":68,"time":71.63787850000001,"velocity":0.30708661417322836},{"duration":0.12931025000000318,"midi":61,"time":71.896499,"velocity":0.30708661417322836},{"duration":0.12931025000000318,"midi":63,"time":72.15511950000001,"velocity":0.30708661417322836},{"duration":0.12931025000000318,"midi":61,"time":72.67236050000001,"velocity":0.30708661417322836},{"duration":0.12931025000000318,"midi":63,"time":72.930981,"velocity":0.30708661417322836},{"duration":0.12931025000000318,"midi":68,"time":73.18960150000001,"velocity":0.30708661417322836},{"duration":0.12931024999998897,"midi":73,"time":73.44822200000002,"velocity":0.30708661417322836},{"duration":0.12931025000000318,"midi":68,"time":73.70684250000001,"velocity":0.30708661417322836},{"duration":0.12931024999998897,"midi":61,"time":73.96546300000001,"velocity":0.30708661417322836},{"duration":0.12931025000000318,"midi":63,"time":74.2240835,"velocity":0.30708661417322836},{"duration":0.12931025000000318,"midi":61,"time":74.7413245,"velocity":0.30708661417322836},{"duration":0.12931025000000318,"midi":63,"time":74.99994500000001,"velocity":0.30708661417322836},{"duration":0.12931025000000318,"midi":68,"time":75.2585655,"velocity":0.30708661417322836},{"duration":0.12931025000000318,"midi":73,"time":75.51718600000001,"velocity":0.30708661417322836},{"duration":0.12931024999998897,"midi":68,"time":75.77580650000002,"velocity":0.30708661417322836},{"duration":0.12931025000000318,"midi":61,"time":76.03442700000001,"velocity":0.30708661417322836},{"duration":0.12931024999998897,"midi":63,"time":76.29304750000001,"velocity":0.30708661417322836},{"duration":0.12931025000000318,"midi":61,"time":76.81028850000001,"velocity":0.30708661417322836},{"duration":0.12931025000000318,"midi":63,"time":77.068909,"velocity":0.30708661417322836},{"duration":0.12931025000000318,"midi":68,"time":77.32752950000001,"velocity":0.30708661417322836},{"duration":0.12931025000000318,"midi":73,"time":77.58615,"velocity":0.30708661417322836},{"duration":0.12931025000000318,"midi":68,"time":77.84477050000001,"velocity":0.30708661417322836},{"duration":0.12931024999998897,"midi":61,"time":78.10339100000002,"velocity":0.30708661417322836},{"duration":0.12931025000000318,"midi":63,"time":78.36201150000001,"velocity":0.30708661417322836},{"duration":0.12931025000000318,"midi":61,"time":78.8792525,"velocity":0.30708661417322836},{"duration":0.12931025000000318,"midi":63,"time":79.13787300000001,"velocity":0.30708661417322836},{"duration":0.12931025000000318,"midi":68,"time":79.3964935,"velocity":0.30708661417322836},{"duration":0.12931025000000318,"midi":73,"time":79.65511400000001,"velocity":0.30708661417322836},{"duration":0.12931025000000318,"midi":68,"time":79.9137345,"velocity":0.30708661417322836},{"duration":0.12931025000000318,"midi":61,"time":80.17235500000001,"velocity":0.30708661417322836},{"duration":0.12931024999998897,"midi":63,"time":80.43097550000002,"velocity":0.30708661417322836},{"duration":0.12931024999998897,"midi":61,"time":80.94821650000002,"velocity":0.30708661417322836},{"duration":0.12931025000000318,"midi":63,"time":81.20683700000001,"velocity":0.30708661417322836},{"duration":0.12931025000000318,"midi":68,"time":81.46545750000001,"velocity":0.30708661417322836},{"duration":0.12931025000000318,"midi":73,"time":81.724078,"velocity":0.30708661417322836},{"duration":0.12931025000000318,"midi":68,"time":81.98269850000001,"velocity":0.30708661417322836},{"duration":0.12931025000000318,"midi":61,"time":82.241319,"velocity":0.30708661417322836},{"duration":0.12931025000000318,"midi":63,"time":82.49993950000001,"velocity":0.30708661417322836},{"duration":0.12931025000000318,"midi":61,"time":83.01718050000001,"velocity":0.30708661417322836},{"duration":0.12931024999998897,"midi":63,"time":83.27580100000002,"velocity":0.30708661417322836},{"duration":0.12931025000000318,"midi":68,"time":83.53442150000001,"velocity":0.30708661417322836},{"duration":0.12931024999998897,"midi":73,"time":83.79304200000001,"velocity":0.30708661417322836},{"duration":0.12931025000000318,"midi":68,"time":84.0516625,"velocity":0.30708661417322836},{"duration":0.12931025000000318,"midi":61,"time":84.31028300000001,"velocity":0.30708661417322836},{"duration":0.12931025000000318,"midi":63,"time":84.5689035,"velocity":0.30708661417322836},{"duration":0.12931025000000318,"midi":61,"time":85.0861445,"velocity":0.30708661417322836},{"duration":0.12931025000000318,"midi":63,"time":85.34476500000001,"velocity":0.30708661417322836},{"duration":0.12931024999998897,"midi":68,"time":85.60338550000002,"velocity":0.30708661417322836},{"duration":0.12931025000000318,"midi":73,"time":85.86200600000001,"velocity":0.30708661417322836},{"duration":0.12931024999998897,"midi":68,"time":86.12062650000001,"velocity":0.30708661417322836},{"duration":0.12931025000000318,"midi":61,"time":86.379247,"velocity":0.30708661417322836},{"duration":0.12931025000000318,"midi":63,"time":86.63786750000001,"velocity":0.30708661417322836},{"duration":0.12931025000000318,"midi":61,"time":87.15510850000001,"velocity":0.30708661417322836},{"duration":0.12931025000000318,"midi":63,"time":87.413729,"velocity":0.30708661417322836},{"duration":0.12931025000000318,"midi":68,"time":87.67234950000001,"velocity":0.30708661417322836},{"duration":0.12931024999998897,"midi":73,"time":87.93097000000002,"velocity":0.30708661417322836},{"duration":0.12931025000000318,"midi":68,"time":88.18959050000001,"velocity":0.30708661417322836},{"duration":0.12931024999998897,"midi":61,"time":88.44821100000001,"velocity":0.30708661417322836},{"duration":0.12931025000000318,"midi":63,"time":88.7068315,"velocity":0.30708661417322836},{"duration":0.12931025000000318,"midi":61,"time":89.2240725,"velocity":0.30708661417322836},{"duration":0.12931025000000318,"midi":63,"time":89.48269300000001,"velocity":0.30708661417322836},{"duration":0.12931025000000318,"midi":68,"time":89.7413135,"velocity":0.30708661417322836},{"duration":0.12931025000000318,"midi":73,"time":89.99993400000001,"velocity":0.30708661417322836},{"duration":0.12931024999998897,"midi":68,"time":90.25855450000002,"velocity":0.30708661417322836},{"duration":0.12931025000000318,"midi":61,"time":90.51717500000001,"velocity":0.30708661417322836},{"duration":0.12931024999998897,"midi":63,"time":90.77579550000002,"velocity":0.30708661417322836},{"duration":0.12931025000000318,"midi":61,"time":91.29303650000001,"velocity":0.30708661417322836},{"duration":0.12931025000000318,"midi":63,"time":91.551657,"velocity":0.30708661417322836},{"duration":0.12931025000000318,"midi":68,"time":91.81027750000001,"velocity":0.30708661417322836},{"duration":0.12931025000000318,"midi":73,"time":92.068898,"velocity":0.30708661417322836},{"duration":0.12931025000000318,"midi":68,"time":92.32751850000001,"velocity":0.30708661417322836},{"duration":0.12931024999998897,"midi":61,"time":92.58613900000002,"velocity":0.30708661417322836},{"duration":0.12931025000000318,"midi":63,"time":92.84475950000001,"velocity":0.30708661417322836},{"duration":0.12931025000000318,"midi":61,"time":93.36200050000001,"velocity":0.30708661417322836},{"duration":0.12931025000000318,"midi":63,"time":93.62062100000001,"velocity":0.30708661417322836},{"duration":0.12931025000000318,"midi":68,"time":93.8792415,"velocity":0.30708661417322836},{"duration":0.12931025000000318,"midi":73,"time":94.13786200000001,"velocity":0.30708661417322836},{"duration":0.12931025000000318,"midi":68,"time":94.3964825,"velocity":0.30708661417322836},{"duration":0.12931025000000318,"midi":61,"time":94.65510300000001,"velocity":0.30708661417322836},{"duration":0.12931024999998897,"midi":63,"time":94.91372350000002,"velocity":0.30708661417322836},{"duration":0.12931024999998897,"midi":61,"time":95.43096450000002,"velocity":0.30708661417322836},{"duration":0.12931025000000318,"midi":63,"time":95.68958500000001,"velocity":0.30708661417322836},{"duration":0.12931025000000318,"midi":68,"time":95.94820550000001,"velocity":0.30708661417322836},{"duration":0.12931025000000318,"midi":73,"time":96.206826,"velocity":0.30708661417322836},{"duration":0.12931025000000318,"midi":68,"time":96.46544650000001,"velocity":0.30708661417322836},{"duration":0.12931025000000318,"midi":61,"time":96.724067,"velocity":0.30708661417322836},{"duration":0.12931025000000318,"midi":63,"time":96.98268750000001,"velocity":0.30708661417322836},{"duration":0.12931025000000318,"midi":61,"time":97.49992850000001,"velocity":0.30708661417322836},{"duration":0.12931024999998897,"midi":63,"time":97.75854900000002,"velocity":0.30708661417322836},{"duration":0.12931025000000318,"midi":68,"time":98.01716950000001,"velocity":0.30708661417322836},{"duration":0.12931025000000318,"midi":73,"time":98.27579000000001,"velocity":0.30708661417322836},{"duration":0.12931025000000318,"midi":68,"time":98.5344105,"velocity":0.30708661417322836},{"duration":0.12931025000000318,"midi":61,"time":98.79303100000001,"velocity":0.30708661417322836},{"duration":0.12931025000000318,"midi":63,"time":99.0516515,"velocity":0.30708661417322836},{"duration":0.12931025000000318,"midi":80,"time":99.31027200000001,"velocity":0.30708661417322836},{"duration":0.12931024999998897,"midi":76,"time":99.56889250000002,"velocity":0.30708661417322836},{"duration":0.12931025000000318,"midi":76,"time":99.82751300000001,"velocity":0.30708661417322836},{"duration":0.12931025000000318,"midi":80,"time":100.34475400000001,"velocity":0.30708661417322836},{"duration":0.12931025000000318,"midi":76,"time":100.60337450000002,"velocity":0.30708661417322836},{"duration":0.12931025000000318,"midi":76,"time":100.86199500000001,"velocity":0.30708661417322836},{"duration":0.12931025000000318,"midi":83,"time":101.379236,"velocity":0.30708661417322836},{"duration":0.12931025000000318,"midi":78,"time":101.63785650000001,"velocity":0.30708661417322836},{"duration":0.12931024999998897,"midi":78,"time":101.89647700000002,"velocity":0.30708661417322836},{"duration":0.12931024999998897,"midi":83,"time":102.41371800000002,"velocity":0.30708661417322836},{"duration":0.12931025000000318,"midi":78,"time":102.67233850000001,"velocity":0.30708661417322836},{"duration":0.12931025000000318,"midi":78,"time":102.93095900000002,"velocity":0.30708661417322836},{"duration":0.12931025000000318,"midi":85,"time":103.44820000000001,"velocity":0.30708661417322836},{"duration":0.12931025000000318,"midi":80,"time":103.7068205,"velocity":0.30708661417322836},{"duration":0.12931025000000318,"midi":85,"time":103.96544100000001,"velocity":0.30708661417322836},{"duration":0.12931024999998897,"midi":87,"time":104.22406150000002,"velocity":0.30708661417322836},{"duration":0.12931025000000318,"midi":90,"time":104.48268200000001,"velocity":0.30708661417322836},{"duration":0.12931024999998897,"midi":89,"time":104.74130250000002,"velocity":0.30708661417322836},{"duration":0.12931025000000318,"midi":87,"time":104.99992300000001,"velocity":0.30708661417322836},{"duration":0.12931025000000318,"midi":85,"time":105.25854350000002,"velocity":0.30708661417322836},{"duration":0.12931025000000318,"midi":80,"time":105.77578450000001,"velocity":0.30708661417322836},{"duration":0.12931025000000318,"midi":85,"time":106.034405,"velocity":0.30708661417322836},{"duration":0.12931025000000318,"midi":87,"time":106.29302550000001,"velocity":0.30708661417322836},{"duration":0.12931024999998897,"midi":90,"time":106.55164600000002,"velocity":0.30708661417322836},{"duration":0.12931025000000318,"midi":89,"time":106.81026650000001,"velocity":0.30708661417322836},{"duration":0.12931024999998897,"midi":85,"time":107.06888700000002,"velocity":0.30708661417322836},{"duration":0.12931025000000318,"midi":87,"time":107.32750750000001,"velocity":0.30708661417322836},{"duration":0.12931025000000318,"midi":80,"time":107.58612800000002,"velocity":0.30708661417322836},{"duration":0.12931025000000318,"midi":76,"time":107.84474850000001,"velocity":0.30708661417322836},{"duration":0.12931025000000318,"midi":76,"time":108.10336900000001,"velocity":0.30708661417322836},{"duration":0.12931025000000318,"midi":80,"time":108.62061000000001,"velocity":0.30708661417322836},{"duration":0.12931024999998897,"midi":76,"time":108.87923050000002,"velocity":0.30708661417322836},{"duration":0.12931025000000318,"midi":76,"time":109.13785100000001,"velocity":0.30708661417322836},{"duration":0.12931025000000318,"midi":83,"time":109.65509200000001,"velocity":0.30708661417322836},{"duration":0.12931025000000318,"midi":78,"time":109.91371250000002,"velocity":0.30708661417322836},{"duration":0.12931025000000318,"midi":78,"time":110.17233300000001,"velocity":0.30708661417322836},{"duration":0.12931025000000318,"midi":83,"time":110.68957400000001,"velocity":0.30708661417322836},{"duration":0.12931025000000318,"midi":78,"time":110.94819450000001,"velocity":0.30708661417322836},{"duration":0.12931024999998897,"midi":78,"time":111.20681500000002,"velocity":0.30708661417322836},{"duration":0.12931024999998897,"midi":85,"time":111.72405600000002,"velocity":0.30708661417322836},{"duration":0.12931025000000318,"midi":80,"time":111.98267650000001,"velocity":0.30708661417322836},{"duration":0.12931025000000318,"midi":85,"time":112.24129700000002,"velocity":0.30708661417322836},{"duration":0.12931025000000318,"midi":87,"time":112.49991750000001,"velocity":0.30708661417322836},{"duration":0.12931025000000318,"midi":90,"time":112.75853800000002,"velocity":0.30708661417322836},{"duration":0.12931025000000318,"midi":89,"time":113.01715850000001,"velocity":0.30708661417322836},{"duration":0.12931025000000318,"midi":87,"time":113.27577900000001,"velocity":0.30708661417322836},{"duration":0.12931024999998897,"midi":85,"time":113.53439950000002,"velocity":0.30708661417322836},{"duration":0.12931024999998897,"midi":80,"time":114.05164050000002,"velocity":0.30708661417322836},{"duration":0.12931025000000318,"midi":85,"time":114.31026100000001,"velocity":0.30708661417322836},{"duration":0.12931025000000318,"midi":87,"time":114.56888150000002,"velocity":0.30708661417322836},{"duration":0.12931025000000318,"midi":90,"time":114.82750200000001,"velocity":0.30708661417322836},{"duration":0.12931025000000318,"midi":89,"time":115.08612250000002,"velocity":0.30708661417322836},{"duration":0.12931025000000318,"midi":85,"time":115.34474300000001,"velocity":0.30708661417322836},{"duration":0.12931025000000318,"midi":87,"time":115.60336350000001,"velocity":0.30708661417322836},{"duration":0.12931025000000318,"midi":80,"time":115.861984,"velocity":0.30708661417322836},{"duration":0.12931025000000318,"midi":76,"time":116.12060450000001,"velocity":0.30708661417322836},{"duration":0.12931024999998897,"midi":76,"time":116.37922500000002,"velocity":0.30708661417322836},{"duration":0.12931024999998897,"midi":80,"time":116.89646600000002,"velocity":0.30708661417322836},{"duration":0.12931025000000318,"midi":76,"time":117.15508650000001,"velocity":0.30708661417322836},{"duration":0.12931025000000318,"midi":76,"time":117.41370700000002,"velocity":0.30708661417322836},{"duration":0.12931025000000318,"midi":83,"time":117.93094800000001,"velocity":0.30708661417322836},{"duration":0.12931025000000318,"midi":78,"time":118.18956850000001,"velocity":0.30708661417322836},{"duration":0.12931025000000318,"midi":78,"time":118.44818900000001,"velocity":0.30708661417322836},{"duration":0.12931025000000318,"midi":83,"time":118.96543000000001,"velocity":0.30708661417322836},{"duration":0.12931024999998897,"midi":78,"time":119.22405050000002,"velocity":0.30708661417322836},{"duration":0.12931025000000318,"midi":78,"time":119.48267100000001,"velocity":0.30708661417322836},{"duration":0.12931025000000318,"midi":85,"time":119.99991200000001,"velocity":0.30708661417322836},{"duration":0.12931025000000318,"midi":80,"time":120.25853250000002,"velocity":0.30708661417322836},{"duration":0.12931025000000318,"midi":85,"time":120.51715300000001,"velocity":0.30708661417322836},{"duration":0.12931025000000318,"midi":87,"time":120.77577350000001,"velocity":0.30708661417322836},{"duration":0.12931024999998897,"midi":90,"time":121.03439400000002,"velocity":0.30708661417322836},{"duration":0.12931025000000318,"midi":89,"time":121.29301450000001,"velocity":0.30708661417322836},{"duration":0.12931024999998897,"midi":87,"time":121.55163500000002,"velocity":0.30708661417322836},{"duration":0.12931025000000318,"midi":85,"time":121.81025550000001,"velocity":0.30708661417322836},{"duration":0.12931025000000318,"midi":80,"time":122.32749650000001,"velocity":0.30708661417322836},{"duration":0.12931025000000318,"midi":85,"time":122.58611700000002,"velocity":0.30708661417322836},{"duration":0.12931025000000318,"midi":87,"time":122.84473750000001,"velocity":0.30708661417322836},{"duration":0.12931025000000318,"midi":90,"time":123.10335800000001,"velocity":0.30708661417322836},{"duration":0.12931024999998897,"midi":89,"time":123.36197850000002,"velocity":0.30708661417322836},{"duration":0.12931025000000318,"midi":85,"time":123.62059900000001,"velocity":0.30708661417322836},{"duration":0.12931024999998897,"midi":87,"time":123.87921950000002,"velocity":0.30708661417322836},{"duration":0.12931025000000318,"midi":80,"time":124.13784000000001,"velocity":0.30708661417322836},{"duration":0.12931025000000318,"midi":76,"time":124.39646050000002,"velocity":0.30708661417322836},{"duration":0.12931025000000318,"midi":76,"time":124.65508100000001,"velocity":0.30708661417322836},{"duration":0.12931025000000318,"midi":80,"time":125.17232200000001,"velocity":0.30708661417322836},{"duration":0.12931025000000318,"midi":76,"time":125.43094250000001,"velocity":0.30708661417322836},{"duration":0.12931024999998897,"midi":76,"time":125.68956300000002,"velocity":0.30708661417322836},{"duration":0.12931024999998897,"midi":83,"time":126.20680400000002,"velocity":0.30708661417322836},{"duration":0.12931025000000318,"midi":78,"time":126.46542450000001,"velocity":0.30708661417322836},{"duration":0.12931025000000318,"midi":78,"time":126.72404500000002,"velocity":0.30708661417322836},{"duration":0.12931025000000318,"midi":83,"time":127.24128600000002,"velocity":0.30708661417322836},{"duration":0.12931025000000318,"midi":78,"time":127.49990650000001,"velocity":0.30708661417322836},{"duration":0.12931025000000318,"midi":78,"time":127.75852700000002,"velocity":0.30708661417322836},{"duration":0.12931024999997476,"midi":85,"time":128.27576800000003,"velocity":0.30708661417322836},{"duration":0.12931025000000318,"midi":80,"time":128.5343885,"velocity":0.30708661417322836},{"duration":0.12931025000000318,"midi":85,"time":128.793009,"velocity":0.30708661417322836},{"duration":0.12931025000000318,"midi":87,"time":129.05162950000002,"velocity":0.30708661417322836},{"duration":0.12931025000000318,"midi":90,"time":129.31025000000002,"velocity":0.30708661417322836},{"duration":0.12931025000000318,"midi":89,"time":129.5688705,"velocity":0.30708661417322836},{"duration":0.12931025000000318,"midi":87,"time":129.827491,"velocity":0.30708661417322836},{"duration":0.12931025000000318,"midi":85,"time":130.08611150000002,"velocity":0.30708661417322836},{"duration":0.12931024999997476,"midi":80,"time":130.60335250000003,"velocity":0.30708661417322836},{"duration":0.12931025000000318,"midi":85,"time":130.861973,"velocity":0.30708661417322836},{"duration":0.12931025000000318,"midi":87,"time":131.1205935,"velocity":0.30708661417322836},{"duration":0.12931025000000318,"midi":90,"time":131.37921400000002,"velocity":0.30708661417322836},{"duration":0.12931025000000318,"midi":89,"time":131.63783450000003,"velocity":0.30708661417322836},{"duration":0.12931025000000318,"midi":85,"time":131.896455,"velocity":0.30708661417322836},{"duration":0.12931025000000318,"midi":87,"time":132.1550755,"velocity":0.30708661417322836},{"duration":0.12931025000000318,"midi":73,"time":148.96540800000002,"velocity":0.30708661417322836},{"duration":0.12931024999997476,"midi":73,"time":149.22402850000003,"velocity":0.30708661417322836},{"duration":0.12931025000000318,"midi":71,"time":149.482649,"velocity":0.30708661417322836},{"duration":0.12931025000000318,"midi":71,"time":149.74126950000002,"velocity":0.30708661417322836},{"duration":0.12931025000000318,"midi":68,"time":149.99989000000002,"velocity":0.30708661417322836},{"duration":0.12931025000000318,"midi":66,"time":150.16152781250003,"velocity":0.30708661417322836},{"duration":0.12931025000000318,"midi":68,"time":150.25851050000003,"velocity":0.30708661417322836},{"duration":0.12931025000000318,"midi":61,"time":150.6787688125,"velocity":0.30708661417322836},{"duration":0.12931025000000318,"midi":63,"time":150.7757515,"velocity":0.30708661417322836},{"duration":0.12931025000000318,"midi":61,"time":150.93738931250002,"velocity":0.30708661417322836},{"duration":0.12931025000000318,"midi":73,"time":151.03437200000002,"velocity":0.30708661417322836},{"duration":0.12931025000000318,"midi":73,"time":151.29299250000003,"velocity":0.30708661417322836},{"duration":0.12931024999997476,"midi":71,"time":151.55161300000003,"velocity":0.30708661417322836},{"duration":0.12931025000000318,"midi":71,"time":151.8102335,"velocity":0.30708661417322836},{"duration":0.12931025000000318,"midi":68,"time":152.06885400000002,"velocity":0.30708661417322836},{"duration":0.12931025000000318,"midi":66,"time":152.23049181250002,"velocity":0.30708661417322836},{"duration":0.12931025000000318,"midi":68,"time":152.32747450000002,"velocity":0.30708661417322836},{"duration":0.12931025000000318,"midi":61,"time":152.7477328125,"velocity":0.30708661417322836},{"duration":0.12931025000000318,"midi":63,"time":152.8447155,"velocity":0.30708661417322836},{"duration":0.12931025000000318,"midi":61,"time":153.0063533125,"velocity":0.30708661417322836},{"duration":0.12931025000000318,"midi":65,"time":153.103336,"velocity":0.30708661417322836},{"duration":0.12931025000000318,"midi":65,"time":153.36195650000002,"velocity":0.30708661417322836},{"duration":0.12931025000000318,"midi":63,"time":153.62057700000003,"velocity":0.30708661417322836},{"duration":0.12931024999997476,"midi":63,"time":153.87919750000003,"velocity":0.30708661417322836},{"duration":0.12931025000000318,"midi":61,"time":154.137818,"velocity":0.30708661417322836},{"duration":0.12931025000000318,"midi":60,"time":154.2994558125,"velocity":0.30708661417322836},{"duration":0.12931025000000318,"midi":61,"time":154.39643850000002,"velocity":0.30708661417322836},{"duration":0.12931025000000318,"midi":56,"time":154.81669681250003,"velocity":0.30708661417322836},{"duration":0.12931025000000318,"midi":58,"time":154.91367950000003,"velocity":0.30708661417322836},{"duration":0.12931025000000318,"midi":56,"time":155.0753173125,"velocity":0.30708661417322836},{"duration":0.12931025000000318,"midi":77,"time":155.1723,"velocity":0.30708661417322836},{"duration":0.12931025000000318,"midi":78,"time":155.4309205,"velocity":0.30708661417322836},{"duration":0.12931025000000318,"midi":77,"time":155.68954100000002,"velocity":0.30708661417322836},{"duration":0.12931025000000318,"midi":75,"time":155.94816150000003,"velocity":0.30708661417322836},{"duration":0.12931024999997476,"midi":73,"time":156.20678200000003,"velocity":0.30708661417322836},{"duration":0.12931025000000318,"midi":72,"time":156.3684198125,"velocity":0.30708661417322836},{"duration":0.12931025000000318,"midi":73,"time":156.4654025,"velocity":0.30708661417322836},{"duration":0.12931025000000318,"midi":68,"time":156.72402300000002,"velocity":0.30708661417322836},{"duration":0.12931025000000318,"midi":70,"time":156.98264350000002,"velocity":0.30708661417322836},{"duration":0.12931025000000318,"midi":73,"time":157.24126400000003,"velocity":0.30708661417322836},{"duration":0.12931025000000318,"midi":73,"time":157.4998845,"velocity":0.30708661417322836},{"duration":0.12931025000000318,"midi":71,"time":157.758505,"velocity":0.30708661417322836},{"duration":0.12931025000000318,"midi":71,"time":158.01712550000002,"velocity":0.30708661417322836},{"duration":0.12931025000000318,"midi":68,"time":158.27574600000003,"velocity":0.30708661417322836},{"duration":0.12931024999997476,"midi":66,"time":158.43738381250003,"velocity":0.30708661417322836},{"duration":0.12931024999997476,"midi":68,"time":158.53436650000003,"velocity":0.30708661417322836},{"duration":0.12931025000000318,"midi":61,"time":158.95462481250001,"velocity":0.30708661417322836},{"duration":0.12931025000000318,"midi":63,"time":159.05160750000002,"velocity":0.30708661417322836},{"duration":0.12931025000000318,"midi":61,"time":159.21324531250002,"velocity":0.30708661417322836},{"duration":0.12931025000000318,"midi":73,"time":159.31022800000002,"velocity":0.30708661417322836},{"duration":0.12931025000000318,"midi":73,"time":159.56884850000003,"velocity":0.30708661417322836},{"duration":0.12931025000000318,"midi":71,"time":159.827469,"velocity":0.30708661417322836},{"duration":0.12931025000000318,"midi":71,"time":160.0860895,"velocity":0.30708661417322836},{"duration":0.12931025000000318,"midi":68,"time":160.34471000000002,"velocity":0.30708661417322836},{"duration":0.12931025000000318,"midi":66,"time":160.50634781250002,"velocity":0.30708661417322836},{"duration":0.12931025000000318,"midi":68,"time":160.60333050000003,"velocity":0.30708661417322836},{"duration":0.12931025000000318,"midi":61,"time":161.0235888125,"velocity":0.30708661417322836},{"duration":0.12931025000000318,"midi":63,"time":161.1205715,"velocity":0.30708661417322836},{"duration":0.12931025000000318,"midi":61,"time":161.28220931250002,"velocity":0.30708661417322836},{"duration":0.12931025000000318,"midi":65,"time":161.37919200000002,"velocity":0.30708661417322836},{"duration":0.12931025000000318,"midi":65,"time":161.63781250000002,"velocity":0.30708661417322836},{"duration":0.12931025000000318,"midi":63,"time":161.89643300000003,"velocity":0.30708661417322836},{"duration":0.12931025000000318,"midi":63,"time":162.1550535,"velocity":0.30708661417322836},{"duration":0.12931025000000318,"midi":61,"time":162.41367400000001,"velocity":0.30708661417322836},{"duration":0.12931025000000318,"midi":60,"time":162.57531181250002,"velocity":0.30708661417322836},{"duration":0.12931025000000318,"midi":61,"time":162.67229450000002,"velocity":0.30708661417322836},{"duration":0.12931024999997476,"midi":68,"time":163.09255281250003,"velocity":0.30708661417322836},{"duration":0.12931024999997476,"midi":70,"time":163.18953550000003,"velocity":0.30708661417322836},{"duration":0.12931025000000318,"midi":68,"time":163.3511733125,"velocity":0.30708661417322836},{"duration":0.12931025000000318,"midi":77,"time":163.448156,"velocity":0.30708661417322836},{"duration":0.12931025000000318,"midi":80,"time":163.70677650000002,"velocity":0.30708661417322836},{"duration":0.12931025000000318,"midi":77,"time":163.96539700000002,"velocity":0.30708661417322836},{"duration":0.12931025000000318,"midi":75,"time":164.22401750000003,"velocity":0.30708661417322836},{"duration":0.12931025000000318,"midi":73,"time":164.482638,"velocity":0.30708661417322836},{"duration":0.12931025000000318,"midi":72,"time":164.6442758125,"velocity":0.30708661417322836},{"duration":0.12931025000000318,"midi":73,"time":164.74125850000001,"velocity":0.30708661417322836},{"duration":0.12931025000000318,"midi":68,"time":164.99987900000002,"velocity":0.30708661417322836},{"duration":0.12931025000000318,"midi":70,"time":165.25849950000003,"velocity":0.30708661417322836},{"duration":0.12931024999997476,"midi":70,"time":165.51712000000003,"velocity":0.10236220472440945}]},{"instrument":{"family":"strings","number":45,"name":"pizzicato strings"},"notes":[{"duration":2.068963999999994,"midi":63,"time":66.20684800000001,"velocity":0.30708661417322836},{"duration":1.0344820000000112,"midi":68,"time":68.275812,"velocity":0.30708661417322836},{"duration":0.25862049999999215,"midi":63,"time":69.31029400000001,"velocity":0.30708661417322836},{"duration":0.7758615000000049,"midi":65,"time":69.5689145,"velocity":0.30708661417322836},{"duration":1.8103435000000019,"midi":61,"time":70.34477600000001,"velocity":0.30708661417322836},{"duration":0.25862049999999215,"midi":63,"time":72.15511950000001,"velocity":0.30708661417322836},{"duration":0.5172409999999985,"midi":66,"time":72.41374,"velocity":0.30708661417322836},{"duration":0.5172410000000127,"midi":65,"time":72.930981,"velocity":0.30708661417322836},{"duration":0.25862049999999215,"midi":61,"time":73.44822200000002,"velocity":0.30708661417322836},{"duration":0.25862050000000636,"midi":63,"time":73.70684250000001,"velocity":0.30708661417322836},{"duration":0.5172409999999985,"midi":61,"time":73.96546300000001,"velocity":0.30708661417322836},{"duration":2.068963999999994,"midi":63,"time":74.48270400000001,"velocity":0.30708661417322836},{"duration":1.034481999999997,"midi":68,"time":76.551668,"velocity":0.30708661417322836},{"duration":0.25862050000000636,"midi":63,"time":77.58615,"velocity":0.30708661417322836},{"duration":0.7758615000000049,"midi":65,"time":77.84477050000001,"velocity":0.30708661417322836},{"duration":1.8103435000000019,"midi":61,"time":78.62063200000001,"velocity":0.30708661417322836},{"duration":0.25862049999999215,"midi":63,"time":80.43097550000002,"velocity":0.30708661417322836},{"duration":0.5172409999999985,"midi":66,"time":80.68959600000001,"velocity":0.30708661417322836},{"duration":0.5172409999999985,"midi":65,"time":81.20683700000001,"velocity":0.30708661417322836},{"duration":0.25862050000000636,"midi":61,"time":81.724078,"velocity":0.30708661417322836},{"duration":0.25862049999999215,"midi":63,"time":81.98269850000001,"velocity":0.30708661417322836},{"duration":0.5172410000000127,"midi":61,"time":82.241319,"velocity":0.30708661417322836},{"duration":2.068963999999994,"midi":63,"time":82.75856000000002,"velocity":0.30708661417322836},{"duration":1.034481999999997,"midi":68,"time":84.82752400000001,"velocity":0.30708661417322836},{"duration":0.25862050000000636,"midi":63,"time":85.86200600000001,"velocity":0.30708661417322836},{"duration":0.7758614999999907,"midi":65,"time":86.12062650000001,"velocity":0.30708661417322836},{"duration":1.8103435000000019,"midi":61,"time":86.896488,"velocity":0.30708661417322836},{"duration":0.25862050000000636,"midi":63,"time":88.7068315,"velocity":0.30708661417322836},{"duration":0.5172409999999985,"midi":66,"time":88.96545200000001,"velocity":0.30708661417322836},{"duration":0.5172409999999985,"midi":65,"time":89.48269300000001,"velocity":0.30708661417322836},{"duration":0.25862050000000636,"midi":61,"time":89.99993400000001,"velocity":0.30708661417322836},{"duration":0.25862049999999215,"midi":63,"time":90.25855450000002,"velocity":0.30708661417322836},{"duration":0.5172409999999985,"midi":61,"time":90.51717500000001,"velocity":0.30708661417322836},{"duration":2.0689640000000082,"midi":63,"time":91.03441600000001,"velocity":0.30708661417322836},{"duration":1.034481999999997,"midi":68,"time":93.10338000000002,"velocity":0.30708661417322836},{"duration":0.25862049999999215,"midi":63,"time":94.13786200000001,"velocity":0.30708661417322836},{"duration":0.7758615000000049,"midi":65,"time":94.3964825,"velocity":0.30708661417322836},{"duration":1.8103435000000019,"midi":61,"time":95.17234400000001,"velocity":0.30708661417322836},{"duration":0.25862050000000636,"midi":63,"time":96.98268750000001,"velocity":0.30708661417322836},{"duration":0.5172409999999985,"midi":66,"time":97.24130800000002,"velocity":0.30708661417322836},{"duration":0.5172409999999985,"midi":65,"time":97.75854900000002,"velocity":0.30708661417322836},{"duration":0.25862049999999215,"midi":61,"time":98.27579000000001,"velocity":0.30708661417322836},{"duration":0.25862050000000636,"midi":63,"time":98.5344105,"velocity":0.30708661417322836},{"duration":0.5172409999999985,"midi":61,"time":98.79303100000001,"velocity":0.30708661417322836}]},{"instrument":{"family":"reed","number":64,"name":"soprano sax"},"notes":[{"duration":1.2931025000000034,"midi":73,"time":33.3620445,"velocity":0.30708661417322836},{"duration":0.25862049999999925,"midi":72,"time":34.65514700000001,"velocity":0.30708661417322836},{"duration":0.25862049999999925,"midi":73,"time":34.913767500000006,"velocity":0.30708661417322836},{"duration":1.5517230000000026,"midi":80,"time":35.172388000000005,"velocity":0.30708661417322836},{"duration":0.25862049999999925,"midi":68,"time":36.72411100000001,"velocity":0.30708661417322836},{"duration":0.25862049999999925,"midi":73,"time":36.98273150000001,"velocity":0.30708661417322836},{"duration":1.5517229999999955,"midi":75,"time":37.241352000000006,"velocity":0.30708661417322836},{"duration":0.25862050000000636,"midi":68,"time":38.793075,"velocity":0.30708661417322836},{"duration":0.25862049999999925,"midi":73,"time":39.05169550000001,"velocity":0.30708661417322836},{"duration":0.5172409999999985,"midi":77,"time":39.31031600000001,"velocity":0.30708661417322836},{"duration":0.25862049999999925,"midi":66,"time":39.827557000000006,"velocity":0.30708661417322836},{"duration":0.25862049999999925,"midi":78,"time":39.827557000000006,"velocity":0.30708661417322836},{"duration":0.25862049999999925,"midi":65,"time":40.086177500000005,"velocity":0.30708661417322836},{"duration":0.25862049999999925,"midi":77,"time":40.086177500000005,"velocity":0.30708661417322836},{"duration":0.25862049999999925,"midi":75,"time":40.344798000000004,"velocity":0.30708661417322836},{"duration":0.25862049999999925,"midi":63,"time":40.344798000000004,"velocity":0.30708661417322836},{"duration":0.5172409999999985,"midi":73,"time":40.603418500000004,"velocity":0.30708661417322836},{"duration":0.5172409999999985,"midi":61,"time":40.603418500000004,"velocity":0.30708661417322836},{"duration":0.25862050000000636,"midi":60,"time":41.1206595,"velocity":0.30708661417322836},{"duration":0.25862050000000636,"midi":72,"time":41.1206595,"velocity":0.30708661417322836},{"duration":1.5517229999999955,"midi":61,"time":41.37928000000001,"velocity":0.30708661417322836},{"duration":1.5517229999999955,"midi":73,"time":41.37928000000001,"velocity":0.30708661417322836},{"duration":0.25862049999999925,"midi":72,"time":42.931003000000004,"velocity":0.30708661417322836},{"duration":0.25862049999999925,"midi":73,"time":43.1896235,"velocity":0.30708661417322836},{"duration":1.5517230000000026,"midi":80,"time":43.448244,"velocity":0.30708661417322836},{"duration":0.25862049999999925,"midi":61,"time":44.999967000000005,"velocity":0.30708661417322836},{"duration":0.25862049999999925,"midi":73,"time":44.999967000000005,"velocity":0.30708661417322836},{"duration":0.25862049999999925,"midi":63,"time":45.258587500000004,"velocity":0.30708661417322836},{"duration":0.25862049999999925,"midi":75,"time":45.258587500000004,"velocity":0.30708661417322836},{"duration":1.5517230000000026,"midi":72,"time":45.517208000000004,"velocity":0.30708661417322836},{"duration":1.5517230000000026,"midi":84,"time":45.517208000000004,"velocity":0.30708661417322836},{"duration":0.25862049999999925,"midi":80,"time":47.068931000000006,"velocity":0.30708661417322836},{"duration":0.25862049999999925,"midi":68,"time":47.068931000000006,"velocity":0.30708661417322836},{"duration":0.25862049999999925,"midi":70,"time":47.327551500000006,"velocity":0.30708661417322836},{"duration":0.25862049999999925,"midi":82,"time":47.327551500000006,"velocity":0.30708661417322836},{"duration":0.5172409999999985,"midi":73,"time":47.586172000000005,"velocity":0.30708661417322836},{"duration":0.5172409999999985,"midi":85,"time":47.586172000000005,"velocity":0.30708661417322836},{"duration":0.25862049999999925,"midi":84,"time":48.103413,"velocity":0.30708661417322836},{"duration":0.25862049999999925,"midi":72,"time":48.103413,"velocity":0.30708661417322836},{"duration":0.25862050000000636,"midi":68,"time":48.3620335,"velocity":0.30708661417322836},{"duration":0.25862050000000636,"midi":80,"time":48.3620335,"velocity":0.30708661417322836},{"duration":0.25862049999999925,"midi":66,"time":48.62065400000001,"velocity":0.30708661417322836},{"duration":0.25862049999999925,"midi":78,"time":48.62065400000001,"velocity":0.30708661417322836},{"duration":0.25862049999999925,"midi":77,"time":48.87927450000001,"velocity":0.30708661417322836},{"duration":0.25862049999999925,"midi":65,"time":48.87927450000001,"velocity":0.30708661417322836},{"duration":0.25862049999999925,"midi":63,"time":49.13789500000001,"velocity":0.30708661417322836},{"duration":0.25862049999999925,"midi":75,"time":49.13789500000001,"velocity":0.30708661417322836},{"duration":0.5172409999999985,"midi":61,"time":49.39651550000001,"velocity":0.30708661417322836},{"duration":0.5172409999999985,"midi":73,"time":49.39651550000001,"velocity":0.30708661417322836},{"duration":1.2931025000000034,"midi":73,"time":49.913756500000005,"velocity":0.30708661417322836},{"duration":0.25862049999999925,"midi":72,"time":51.20685900000001,"velocity":0.30708661417322836},{"duration":0.25862049999999925,"midi":73,"time":51.46547950000001,"velocity":0.30708661417322836},{"duration":1.5517230000000026,"midi":80,"time":51.72410000000001,"velocity":0.30708661417322836},{"duration":0.25862049999999925,"midi":68,"time":53.27582300000001,"velocity":0.30708661417322836},{"duration":0.25862049999999925,"midi":73,"time":53.53444350000001,"velocity":0.30708661417322836},{"duration":1.5517229999999955,"midi":75,"time":53.79306400000001,"velocity":0.30708661417322836},{"duration":0.25862050000000636,"midi":68,"time":55.344787000000004,"velocity":0.30708661417322836},{"duration":0.25862049999999925,"midi":73,"time":55.60340750000001,"velocity":0.30708661417322836},{"duration":0.5172409999999985,"midi":77,"time":55.86202800000001,"velocity":0.30708661417322836},{"duration":0.25862049999999925,"midi":66,"time":56.37926900000001,"velocity":0.30708661417322836},{"duration":0.25862049999999925,"midi":78,"time":56.37926900000001,"velocity":0.30708661417322836},{"duration":0.25862049999999925,"midi":77,"time":56.63788950000001,"velocity":0.30708661417322836},{"duration":0.25862049999999925,"midi":65,"time":56.63788950000001,"velocity":0.30708661417322836},{"duration":0.25862049999999925,"midi":63,"time":56.896510000000006,"velocity":0.30708661417322836},{"duration":0.25862049999999925,"midi":75,"time":56.896510000000006,"velocity":0.30708661417322836},{"duration":0.5172409999999985,"midi":73,"time":57.155130500000006,"velocity":0.30708661417322836},{"duration":0.5172409999999985,"midi":61,"time":57.155130500000006,"velocity":0.30708661417322836},{"duration":0.25862049999999925,"midi":72,"time":57.672371500000004,"velocity":0.30708661417322836},{"duration":0.25862049999999925,"midi":60,"time":57.672371500000004,"velocity":0.30708661417322836},{"duration":1.5517230000000026,"midi":61,"time":57.930992,"velocity":0.30708661417322836},{"duration":1.5517230000000026,"midi":73,"time":57.930992,"velocity":0.30708661417322836},{"duration":0.25862049999999925,"midi":72,"time":59.482715000000006,"velocity":0.30708661417322836},{"duration":0.25862049999999925,"midi":73,"time":59.741335500000005,"velocity":0.30708661417322836},{"duration":1.5517230000000026,"midi":80,"time":59.999956000000005,"velocity":0.30708661417322836},{"duration":0.25862049999999925,"midi":73,"time":61.55167900000001,"velocity":0.30708661417322836},{"duration":0.25862049999999925,"midi":61,"time":61.55167900000001,"velocity":0.30708661417322836},{"duration":0.25862049999999925,"midi":63,"time":61.810299500000006,"velocity":0.30708661417322836},{"duration":0.25862049999999925,"midi":75,"time":61.810299500000006,"velocity":0.30708661417322836},{"duration":1.5517230000000026,"midi":72,"time":62.068920000000006,"velocity":0.30708661417322836},{"duration":1.5517230000000026,"midi":84,"time":62.068920000000006,"velocity":0.30708661417322836},{"duration":0.25862049999999925,"midi":68,"time":63.62064300000001,"velocity":0.30708661417322836},{"duration":0.25862049999999925,"midi":80,"time":63.62064300000001,"velocity":0.30708661417322836},{"duration":0.25862050000000636,"midi":82,"time":63.87926350000001,"velocity":0.30708661417322836},{"duration":0.25862050000000636,"midi":70,"time":63.87926350000001,"velocity":0.30708661417322836},{"duration":0.5172409999999985,"midi":73,"time":64.13788400000001,"velocity":0.30708661417322836},{"duration":0.5172409999999985,"midi":85,"time":64.13788400000001,"velocity":0.30708661417322836},{"duration":0.25862049999999215,"midi":72,"time":64.65512500000001,"velocity":0.30708661417322836},{"duration":0.25862049999999215,"midi":84,"time":64.65512500000001,"velocity":0.30708661417322836},{"duration":0.25862050000000636,"midi":80,"time":64.9137455,"velocity":0.30708661417322836},{"duration":0.25862050000000636,"midi":68,"time":64.9137455,"velocity":0.30708661417322836},{"duration":0.25862049999999215,"midi":66,"time":65.17236600000001,"velocity":0.30708661417322836},{"duration":0.25862049999999215,"midi":78,"time":65.17236600000001,"velocity":0.30708661417322836},{"duration":0.25862050000000636,"midi":65,"time":65.4309865,"velocity":0.30708661417322836},{"duration":0.25862050000000636,"midi":77,"time":65.4309865,"velocity":0.30708661417322836},{"duration":0.25862049999999215,"midi":63,"time":65.68960700000001,"velocity":0.30708661417322836},{"duration":0.25862049999999215,"midi":75,"time":65.68960700000001,"velocity":0.30708661417322836},{"duration":1.5517230000000097,"midi":73,"time":65.9482275,"velocity":0.30708661417322836},{"duration":1.5517230000000097,"midi":61,"time":65.9482275,"velocity":0.30708661417322836},{"duration":1.5517229999999955,"midi":73,"time":99.56889250000002,"velocity":0.30708661417322836},{"duration":1.5517229999999955,"midi":61,"time":99.56889250000002,"velocity":0.30708661417322836},{"duration":0.7758615000000049,"midi":64,"time":101.379236,"velocity":0.30708661417322836},{"duration":0.7758615000000049,"midi":76,"time":101.379236,"velocity":0.30708661417322836},{"duration":0.25862050000000636,"midi":63,"time":102.15509750000001,"velocity":0.30708661417322836},{"duration":0.25862050000000636,"midi":75,"time":102.15509750000001,"velocity":0.30708661417322836},{"duration":0.25862050000000636,"midi":73,"time":102.67233850000001,"velocity":0.30708661417322836},{"duration":0.25862050000000636,"midi":61,"time":102.67233850000001,"velocity":0.30708661417322836},{"duration":0.25862049999999215,"midi":63,"time":102.93095900000002,"velocity":0.30708661417322836},{"duration":0.25862049999999215,"midi":75,"time":102.93095900000002,"velocity":0.30708661417322836},{"duration":0.25862050000000636,"midi":61,"time":103.18957950000001,"velocity":0.30708661417322836},{"duration":0.25862050000000636,"midi":73,"time":103.18957950000001,"velocity":0.30708661417322836},{"duration":1.8103435000000019,"midi":73,"time":103.44820000000001,"velocity":0.30708661417322836},{"duration":1.8103435000000019,"midi":61,"time":103.44820000000001,"velocity":0.30708661417322836},{"duration":0.7758615000000049,"midi":66,"time":105.51716400000001,"velocity":0.30708661417322836},{"duration":0.7758615000000049,"midi":78,"time":105.51716400000001,"velocity":0.30708661417322836},{"duration":0.25862050000000636,"midi":65,"time":106.29302550000001,"velocity":0.30708661417322836},{"duration":0.25862050000000636,"midi":77,"time":106.29302550000001,"velocity":0.30708661417322836},{"duration":0.25862050000000636,"midi":61,"time":106.81026650000001,"velocity":0.30708661417322836},{"duration":0.25862050000000636,"midi":73,"time":106.81026650000001,"velocity":0.30708661417322836},{"duration":0.25862049999999215,"midi":63,"time":107.06888700000002,"velocity":0.30708661417322836},{"duration":0.25862049999999215,"midi":75,"time":107.06888700000002,"velocity":0.30708661417322836},{"duration":0.25862050000000636,"midi":73,"time":107.32750750000001,"velocity":0.30708661417322836},{"duration":0.25862050000000636,"midi":61,"time":107.32750750000001,"velocity":0.30708661417322836},{"duration":1.5517230000000097,"midi":73,"time":107.84474850000001,"velocity":0.30708661417322836},{"duration":1.5517230000000097,"midi":61,"time":107.84474850000001,"velocity":0.30708661417322836},{"duration":0.7758615000000049,"midi":64,"time":109.65509200000001,"velocity":0.30708661417322836},{"duration":0.7758615000000049,"midi":76,"time":109.65509200000001,"velocity":0.30708661417322836},{"duration":0.25862049999999215,"midi":75,"time":110.43095350000002,"velocity":0.30708661417322836},{"duration":0.25862049999999215,"midi":63,"time":110.43095350000002,"velocity":0.30708661417322836},{"duration":0.25862050000000636,"midi":61,"time":110.94819450000001,"velocity":0.30708661417322836},{"duration":0.25862050000000636,"midi":73,"time":110.94819450000001,"velocity":0.30708661417322836},{"duration":0.25862049999999215,"midi":63,"time":111.20681500000002,"velocity":0.30708661417322836},{"duration":0.25862049999999215,"midi":75,"time":111.20681500000002,"velocity":0.30708661417322836},{"duration":0.25862050000000636,"midi":61,"time":111.46543550000001,"velocity":0.30708661417322836},{"duration":0.25862050000000636,"midi":73,"time":111.46543550000001,"velocity":0.30708661417322836},{"duration":1.8103435000000019,"midi":61,"time":111.72405600000002,"velocity":0.30708661417322836},{"duration":1.8103435000000019,"midi":73,"time":111.72405600000002,"velocity":0.30708661417322836},{"duration":0.7758615000000049,"midi":66,"time":113.79302000000001,"velocity":0.30708661417322836},{"duration":0.7758615000000049,"midi":78,"time":113.79302000000001,"velocity":0.30708661417322836},{"duration":0.25862049999999215,"midi":65,"time":114.56888150000002,"velocity":0.30708661417322836},{"duration":0.25862049999999215,"midi":77,"time":114.56888150000002,"velocity":0.30708661417322836},{"duration":0.25862049999999215,"midi":73,"time":115.08612250000002,"velocity":0.30708661417322836},{"duration":0.25862049999999215,"midi":61,"time":115.08612250000002,"velocity":0.30708661417322836},{"duration":0.25862050000000636,"midi":63,"time":115.34474300000001,"velocity":0.30708661417322836},{"duration":0.25862050000000636,"midi":75,"time":115.34474300000001,"velocity":0.30708661417322836},{"duration":0.25862049999999215,"midi":61,"time":115.60336350000001,"velocity":0.30708661417322836},{"duration":0.25862049999999215,"midi":73,"time":115.60336350000001,"velocity":0.30708661417322836},{"duration":1.5517229999999955,"midi":73,"time":116.12060450000001,"velocity":0.30708661417322836},{"duration":1.5517229999999955,"midi":61,"time":116.12060450000001,"velocity":0.30708661417322836},{"duration":0.7758615000000049,"midi":76,"time":117.93094800000001,"velocity":0.30708661417322836},{"duration":0.7758615000000049,"midi":64,"time":117.93094800000001,"velocity":0.30708661417322836},{"duration":0.25862049999999215,"midi":63,"time":118.70680950000002,"velocity":0.30708661417322836},{"duration":0.25862049999999215,"midi":75,"time":118.70680950000002,"velocity":0.30708661417322836},{"duration":0.25862049999999215,"midi":61,"time":119.22405050000002,"velocity":0.30708661417322836},{"duration":0.25862049999999215,"midi":73,"time":119.22405050000002,"velocity":0.30708661417322836},{"duration":0.25862050000000636,"midi":63,"time":119.48267100000001,"velocity":0.30708661417322836},{"duration":0.25862050000000636,"midi":75,"time":119.48267100000001,"velocity":0.30708661417322836},{"duration":0.25862049999999215,"midi":73,"time":119.74129150000002,"velocity":0.30708661417322836},{"duration":0.25862049999999215,"midi":61,"time":119.74129150000002,"velocity":0.30708661417322836},{"duration":1.8103435000000019,"midi":61,"time":119.99991200000001,"velocity":0.30708661417322836},{"duration":1.8103435000000019,"midi":73,"time":119.99991200000001,"velocity":0.30708661417322836},{"duration":0.7758614999999907,"midi":66,"time":122.06887600000002,"velocity":0.30708661417322836},{"duration":0.7758614999999907,"midi":78,"time":122.06887600000002,"velocity":0.30708661417322836},{"duration":0.25862050000000636,"midi":77,"time":122.84473750000001,"velocity":0.30708661417322836},{"duration":0.25862050000000636,"midi":65,"time":122.84473750000001,"velocity":0.30708661417322836},{"duration":0.25862049999999215,"midi":73,"time":123.36197850000002,"velocity":0.30708661417322836},{"duration":0.25862049999999215,"midi":61,"time":123.36197850000002,"velocity":0.30708661417322836},{"duration":0.25862050000000636,"midi":63,"time":123.62059900000001,"velocity":0.30708661417322836},{"duration":0.25862050000000636,"midi":75,"time":123.62059900000001,"velocity":0.30708661417322836},{"duration":0.25862049999999215,"midi":61,"time":123.87921950000002,"velocity":0.30708661417322836},{"duration":0.25862049999999215,"midi":73,"time":123.87921950000002,"velocity":0.30708661417322836},{"duration":1.5517229999999955,"midi":61,"time":124.39646050000002,"velocity":0.30708661417322836},{"duration":1.5517229999999955,"midi":73,"time":124.39646050000002,"velocity":0.30708661417322836},{"duration":0.7758614999999907,"midi":64,"time":126.20680400000002,"velocity":0.30708661417322836},{"duration":0.7758614999999907,"midi":76,"time":126.20680400000002,"velocity":0.30708661417322836},{"duration":0.25862050000000636,"midi":63,"time":126.98266550000001,"velocity":0.30708661417322836},{"duration":0.25862050000000636,"midi":75,"time":126.98266550000001,"velocity":0.30708661417322836},{"duration":0.25862050000000636,"midi":61,"time":127.49990650000001,"velocity":0.30708661417322836},{"duration":0.25862050000000636,"midi":73,"time":127.49990650000001,"velocity":0.30708661417322836},{"duration":0.25862050000000636,"midi":75,"time":127.75852700000002,"velocity":0.30708661417322836},{"duration":0.25862050000000636,"midi":63,"time":127.75852700000002,"velocity":0.30708661417322836},{"duration":0.25862050000000636,"midi":61,"time":128.01714750000002,"velocity":0.30708661417322836},{"duration":0.25862050000000636,"midi":73,"time":128.01714750000002,"velocity":0.30708661417322836},{"duration":1.8103434999999877,"midi":61,"time":128.27576800000003,"velocity":0.30708661417322836},{"duration":1.8103434999999877,"midi":73,"time":128.27576800000003,"velocity":0.30708661417322836},{"duration":0.7758614999999907,"midi":78,"time":130.34473200000002,"velocity":0.30708661417322836},{"duration":0.7758614999999907,"midi":66,"time":130.34473200000002,"velocity":0.30708661417322836},{"duration":0.25862050000000636,"midi":77,"time":131.1205935,"velocity":0.30708661417322836},{"duration":0.25862050000000636,"midi":65,"time":131.1205935,"velocity":0.30708661417322836},{"duration":0.25862049999997794,"midi":61,"time":131.63783450000003,"velocity":0.30708661417322836},{"duration":0.25862049999997794,"midi":73,"time":131.63783450000003,"velocity":0.30708661417322836},{"duration":0.25862050000000636,"midi":75,"time":131.896455,"velocity":0.30708661417322836},{"duration":0.25862050000000636,"midi":63,"time":131.896455,"velocity":0.30708661417322836},{"duration":0.25862050000000636,"midi":73,"time":132.1550755,"velocity":0.30708661417322836},{"duration":0.25862050000000636,"midi":61,"time":132.1550755,"velocity":0.30708661417322836},{"duration":0.5172409999999843,"midi":85,"time":132.67231650000002,"velocity":0.2755905511811024},{"duration":0.5172410000000127,"midi":88,"time":134.48266,"velocity":0.2755905511811024},{"duration":0.5172409999999843,"midi":87,"time":135.25852150000003,"velocity":0.2755905511811024},{"duration":0.25862050000000636,"midi":85,"time":135.7757625,"velocity":0.2755905511811024},{"duration":0.25862050000000636,"midi":87,"time":136.03438300000002,"velocity":0.2755905511811024},{"duration":0.25862049999997794,"midi":85,"time":136.29300350000003,"velocity":0.2755905511811024},{"duration":0.5172410000000127,"midi":85,"time":136.551624,"velocity":0.2755905511811024},{"duration":0.5172409999999843,"midi":90,"time":138.62058800000003,"velocity":0.2755905511811024},{"duration":0.5172410000000127,"midi":89,"time":139.39644950000002,"velocity":0.2755905511811024},{"duration":0.25862049999997794,"midi":85,"time":139.91369050000003,"velocity":0.2755905511811024},{"duration":0.25862050000000636,"midi":87,"time":140.172311,"velocity":0.2755905511811024},{"duration":0.25862050000000636,"midi":85,"time":140.4309315,"velocity":0.2755905511811024},{"duration":0.5172409999999843,"midi":85,"time":140.94817250000003,"velocity":0.2755905511811024},{"duration":0.5172410000000127,"midi":88,"time":142.75851600000001,"velocity":0.2755905511811024},{"duration":0.5172410000000127,"midi":87,"time":143.5343775,"velocity":0.2755905511811024},{"duration":0.25862050000000636,"midi":85,"time":144.05161850000002,"velocity":0.2755905511811024},{"duration":0.25862050000000636,"midi":87,"time":144.31023900000002,"velocity":0.2755905511811024},{"duration":0.25862049999997794,"midi":85,"time":144.56885950000003,"velocity":0.2755905511811024},{"duration":0.5172410000000127,"midi":85,"time":144.82748,"velocity":0.2755905511811024},{"duration":0.5172409999999843,"midi":90,"time":146.89644400000003,"velocity":0.2755905511811024},{"duration":0.5172409999999843,"midi":89,"time":147.67230550000002,"velocity":0.2755905511811024},{"duration":0.25862050000000636,"midi":85,"time":148.1895465,"velocity":0.2755905511811024},{"duration":0.25862050000000636,"midi":87,"time":148.448167,"velocity":0.2755905511811024},{"duration":0.25862050000000636,"midi":85,"time":148.70678750000002,"velocity":0.2755905511811024},{"duration":0.5172409999999843,"midi":85,"time":149.22402850000003,"velocity":0.2755905511811024},{"duration":0.5172410000000127,"midi":88,"time":151.03437200000002,"velocity":0.2755905511811024},{"duration":0.5172410000000127,"midi":87,"time":151.8102335,"velocity":0.2755905511811024},{"duration":0.25862050000000636,"midi":85,"time":152.32747450000002,"velocity":0.2755905511811024},{"duration":0.25862049999997794,"midi":87,"time":152.58609500000003,"velocity":0.2755905511811024},{"duration":0.25862050000000636,"midi":85,"time":152.8447155,"velocity":0.2755905511811024},{"duration":0.5172410000000127,"midi":85,"time":153.103336,"velocity":0.2755905511811024},{"duration":0.5172410000000127,"midi":90,"time":155.1723,"velocity":0.2755905511811024},{"duration":0.5172409999999843,"midi":89,"time":155.94816150000003,"velocity":0.2755905511811024},{"duration":0.25862050000000636,"midi":85,"time":156.4654025,"velocity":0.2755905511811024},{"duration":0.25862050000000636,"midi":87,"time":156.72402300000002,"velocity":0.2755905511811024},{"duration":0.25862050000000636,"midi":85,"time":156.98264350000002,"velocity":0.2755905511811024},{"duration":0.5172410000000127,"midi":85,"time":157.4998845,"velocity":0.2755905511811024},{"duration":0.5172409999999843,"midi":88,"time":159.31022800000002,"velocity":0.2755905511811024},{"duration":0.5172410000000127,"midi":87,"time":160.0860895,"velocity":0.2755905511811024},{"duration":0.25862050000000636,"midi":85,"time":160.60333050000003,"velocity":0.2755905511811024},{"duration":0.25862049999997794,"midi":87,"time":160.86195100000003,"velocity":0.2755905511811024},{"duration":0.25862050000000636,"midi":85,"time":161.1205715,"velocity":0.2755905511811024},{"duration":0.5172410000000127,"midi":85,"time":161.37919200000002,"velocity":0.2755905511811024}]},{"instrument":{"family":"piano","number":3,"name":"honky-tonk piano"},"notes":[{"duration":0.12931024999998897,"midi":85,"time":82.75856000000002,"velocity":0.30708661417322836},{"duration":0.12931025000000318,"midi":85,"time":83.01718050000001,"velocity":0.30708661417322836},{"duration":0.12931024999998897,"midi":84,"time":83.27580100000002,"velocity":0.30708661417322836},{"duration":0.12931025000000318,"midi":84,"time":83.53442150000001,"velocity":0.30708661417322836},{"duration":0.12931024999998897,"midi":80,"time":83.79304200000001,"velocity":0.30708661417322836},{"duration":0.12931025000000318,"midi":75,"time":84.0516625,"velocity":0.30708661417322836},{"duration":0.12931025000000318,"midi":80,"time":84.31028300000001,"velocity":0.30708661417322836},{"duration":0.12931025000000318,"midi":85,"time":84.5689035,"velocity":0.30708661417322836},{"duration":0.12931025000000318,"midi":85,"time":85.0861445,"velocity":0.30708661417322836},{"duration":0.12931025000000318,"midi":84,"time":85.34476500000001,"velocity":0.30708661417322836},{"duration":0.12931024999998897,"midi":84,"time":85.60338550000002,"velocity":0.30708661417322836},{"duration":0.12931025000000318,"midi":80,"time":85.86200600000001,"velocity":0.30708661417322836},{"duration":0.12931024999998897,"midi":75,"time":86.12062650000001,"velocity":0.30708661417322836},{"duration":0.12931025000000318,"midi":80,"time":86.379247,"velocity":0.30708661417322836},{"duration":0.12931025000000318,"midi":85,"time":86.63786750000001,"velocity":0.30708661417322836},{"duration":0.12931025000000318,"midi":85,"time":87.15510850000001,"velocity":0.30708661417322836},{"duration":0.12931025000000318,"midi":84,"time":87.413729,"velocity":0.30708661417322836},{"duration":0.12931025000000318,"midi":84,"time":87.67234950000001,"velocity":0.30708661417322836},{"duration":0.12931024999998897,"midi":80,"time":87.93097000000002,"velocity":0.30708661417322836},{"duration":0.12931025000000318,"midi":75,"time":88.18959050000001,"velocity":0.30708661417322836},{"duration":0.12931024999998897,"midi":80,"time":88.44821100000001,"velocity":0.30708661417322836},{"duration":0.12931025000000318,"midi":89,"time":88.7068315,"velocity":0.30708661417322836},{"duration":0.12931025000000318,"midi":89,"time":89.2240725,"velocity":0.30708661417322836},{"duration":0.12931025000000318,"midi":87,"time":89.48269300000001,"velocity":0.30708661417322836},{"duration":0.12931025000000318,"midi":87,"time":89.7413135,"velocity":0.30708661417322836},{"duration":0.12931025000000318,"midi":85,"time":89.99993400000001,"velocity":0.30708661417322836},{"duration":0.12931024999998897,"midi":82,"time":90.25855450000002,"velocity":0.30708661417322836},{"duration":0.12931025000000318,"midi":80,"time":90.51717500000001,"velocity":0.30708661417322836},{"duration":0.12931025000000318,"midi":85,"time":91.03441600000001,"velocity":0.30708661417322836},{"duration":0.12931025000000318,"midi":85,"time":91.29303650000001,"velocity":0.30708661417322836},{"duration":0.12931025000000318,"midi":84,"time":91.551657,"velocity":0.30708661417322836},{"duration":0.12931025000000318,"midi":84,"time":91.81027750000001,"velocity":0.30708661417322836},{"duration":0.12931025000000318,"midi":80,"time":92.068898,"velocity":0.30708661417322836},{"duration":0.12931025000000318,"midi":75,"time":92.32751850000001,"velocity":0.30708661417322836},{"duration":0.12931024999998897,"midi":80,"time":92.58613900000002,"velocity":0.30708661417322836},{"duration":0.12931025000000318,"midi":85,"time":92.84475950000001,"velocity":0.30708661417322836},{"duration":0.12931025000000318,"midi":85,"time":93.36200050000001,"velocity":0.30708661417322836},{"duration":0.12931025000000318,"midi":84,"time":93.62062100000001,"velocity":0.30708661417322836},{"duration":0.12931025000000318,"midi":84,"time":93.8792415,"velocity":0.30708661417322836},{"duration":0.12931025000000318,"midi":80,"time":94.13786200000001,"velocity":0.30708661417322836},{"duration":0.12931025000000318,"midi":75,"time":94.3964825,"velocity":0.30708661417322836},{"duration":0.12931025000000318,"midi":80,"time":94.65510300000001,"velocity":0.30708661417322836},{"duration":0.12931024999998897,"midi":85,"time":94.91372350000002,"velocity":0.30708661417322836},{"duration":0.12931024999998897,"midi":85,"time":95.43096450000002,"velocity":0.30708661417322836},{"duration":0.12931025000000318,"midi":84,"time":95.68958500000001,"velocity":0.30708661417322836},{"duration":0.12931025000000318,"midi":84,"time":95.94820550000001,"velocity":0.30708661417322836},{"duration":0.12931025000000318,"midi":80,"time":96.206826,"velocity":0.30708661417322836},{"duration":0.12931025000000318,"midi":75,"time":96.46544650000001,"velocity":0.30708661417322836},{"duration":0.12931025000000318,"midi":80,"time":96.724067,"velocity":0.30708661417322836},{"duration":0.12931025000000318,"midi":89,"time":96.98268750000001,"velocity":0.30708661417322836},{"duration":0.12931025000000318,"midi":89,"time":97.49992850000001,"velocity":0.30708661417322836},{"duration":0.12931024999998897,"midi":87,"time":97.75854900000002,"velocity":0.30708661417322836},{"duration":0.12931025000000318,"midi":87,"time":98.01716950000001,"velocity":0.30708661417322836},{"duration":0.12931025000000318,"midi":85,"time":98.27579000000001,"velocity":0.30708661417322836},{"duration":0.12931025000000318,"midi":82,"time":98.5344105,"velocity":0.30708661417322836},{"duration":0.12931025000000318,"midi":80,"time":98.79303100000001,"velocity":0.30708661417322836}]},{"instrument":{"family":"chromatic percussion","number":10,"name":"music box"},"notes":[{"duration":0.25862049999999925,"midi":49,"time":49.913756500000005,"velocity":0.3464566929133858},{"duration":0.25862049999999925,"midi":51,"time":50.172377000000004,"velocity":0.3464566929133858},{"duration":0.25862049999999925,"midi":49,"time":50.430997500000004,"velocity":0.3464566929133858},{"duration":0.25862049999999925,"midi":53,"time":50.94823850000001,"velocity":0.3464566929133858},{"duration":0.25862049999999925,"midi":56,"time":51.20685900000001,"velocity":0.3464566929133858},{"duration":0.25862049999999925,"midi":53,"time":51.46547950000001,"velocity":0.3464566929133858},{"duration":0.25862049999999925,"midi":49,"time":51.982720500000006,"velocity":0.3464566929133858},{"duration":0.25862049999999925,"midi":51,"time":52.241341000000006,"velocity":0.3464566929133858},{"duration":0.25862049999999925,"midi":49,"time":52.499961500000005,"velocity":0.3464566929133858},{"duration":0.25862049999999925,"midi":56,"time":52.758582000000004,"velocity":0.3464566929133858},{"duration":0.25862050000000636,"midi":53,"time":53.0172025,"velocity":0.3464566929133858},{"duration":0.25862049999999925,"midi":56,"time":53.27582300000001,"velocity":0.3464566929133858},{"duration":0.25862049999999925,"midi":53,"time":53.53444350000001,"velocity":0.3464566929133858},{"duration":0.25862049999999925,"midi":56,"time":54.05168450000001,"velocity":0.3464566929133858},{"duration":0.25862049999999925,"midi":58,"time":54.31030500000001,"velocity":0.3464566929133858},{"duration":0.25862049999999925,"midi":53,"time":54.568925500000006,"velocity":0.3464566929133858},{"duration":0.25862049999999925,"midi":56,"time":55.086166500000004,"velocity":0.3464566929133858},{"duration":0.25862050000000636,"midi":61,"time":55.344787000000004,"velocity":0.3464566929133858},{"duration":0.25862049999999925,"midi":58,"time":55.60340750000001,"velocity":0.3464566929133858},{"duration":0.25862049999999925,"midi":49,"time":56.12064850000001,"velocity":0.3464566929133858},{"duration":0.25862049999999925,"midi":51,"time":56.37926900000001,"velocity":0.3464566929133858},{"duration":0.25862049999999925,"midi":49,"time":56.63788950000001,"velocity":0.3464566929133858},{"duration":0.25862049999999925,"midi":56,"time":56.896510000000006,"velocity":0.3464566929133858},{"duration":0.25862049999999925,"midi":56,"time":57.413751000000005,"velocity":0.3464566929133858},{"duration":0.25862049999999925,"midi":49,"time":58.18961250000001,"velocity":0.3464566929133858},{"duration":0.25862049999999925,"midi":51,"time":58.44823300000001,"velocity":0.3464566929133858},{"duration":0.25862049999999925,"midi":49,"time":58.70685350000001,"velocity":0.3464566929133858},{"duration":0.25862049999999925,"midi":53,"time":59.22409450000001,"velocity":0.3464566929133858},{"duration":0.25862049999999925,"midi":56,"time":59.482715000000006,"velocity":0.3464566929133858},{"duration":0.25862049999999925,"midi":53,"time":59.741335500000005,"velocity":0.3464566929133858},{"duration":0.25862050000000636,"midi":49,"time":60.258576500000004,"velocity":0.3464566929133858},{"duration":0.25862049999999925,"midi":51,"time":60.51719700000001,"velocity":0.3464566929133858},{"duration":0.25862049999999925,"midi":49,"time":60.77581750000001,"velocity":0.3464566929133858},{"duration":0.25862049999999925,"midi":56,"time":61.03443800000001,"velocity":0.3464566929133858},{"duration":0.25862049999999925,"midi":53,"time":61.29305850000001,"velocity":0.3464566929133858},{"duration":0.25862049999999925,"midi":56,"time":61.55167900000001,"velocity":0.3464566929133858},{"duration":0.25862049999999925,"midi":53,"time":61.810299500000006,"velocity":0.3464566929133858},{"duration":0.25862049999999925,"midi":56,"time":62.327540500000005,"velocity":0.3464566929133858},{"duration":0.25862050000000636,"midi":58,"time":62.586161000000004,"velocity":0.3464566929133858},{"duration":0.25862049999999925,"midi":53,"time":62.84478150000001,"velocity":0.3464566929133858},{"duration":0.25862049999999925,"midi":56,"time":63.36202250000001,"velocity":0.3464566929133858},{"duration":0.25862049999999925,"midi":61,"time":63.62064300000001,"velocity":0.3464566929133858},{"duration":0.25862050000000636,"midi":58,"time":63.87926350000001,"velocity":0.3464566929133858},{"duration":0.25862050000000636,"midi":49,"time":64.3965045,"velocity":0.3464566929133858},{"duration":0.25862049999999215,"midi":51,"time":64.65512500000001,"velocity":0.3464566929133858},{"duration":0.25862050000000636,"midi":49,"time":64.9137455,"velocity":0.3464566929133858},{"duration":0.25862049999999215,"midi":56,"time":65.17236600000001,"velocity":0.3464566929133858},{"duration":0.25862049999999215,"midi":56,"time":65.68960700000001,"velocity":0.3464566929133858},{"duration":0.5172410000000127,"midi":85,"time":132.41369600000002,"velocity":0.25196850393700787},{"duration":0.5172410000000127,"midi":88,"time":134.2240395,"velocity":0.25196850393700787},{"duration":0.5172409999999843,"midi":87,"time":134.99990100000002,"velocity":0.25196850393700787},{"duration":0.25862050000000636,"midi":85,"time":135.517142,"velocity":0.25196850393700787},{"duration":0.25862050000000636,"midi":87,"time":135.7757625,"velocity":0.25196850393700787},{"duration":0.25862050000000636,"midi":85,"time":136.03438300000002,"velocity":0.25196850393700787},{"duration":0.5172409999999843,"midi":85,"time":136.29300350000003,"velocity":0.25196850393700787},{"duration":0.5172409999999843,"midi":90,"time":138.36196750000002,"velocity":0.25196850393700787},{"duration":0.5172410000000127,"midi":89,"time":139.137829,"velocity":0.25196850393700787},{"duration":0.25862050000000636,"midi":85,"time":139.65507000000002,"velocity":0.25196850393700787},{"duration":0.25862049999997794,"midi":87,"time":139.91369050000003,"velocity":0.25196850393700787},{"duration":0.25862050000000636,"midi":85,"time":140.172311,"velocity":0.25196850393700787},{"duration":0.5172409999999843,"midi":85,"time":140.68955200000002,"velocity":0.25196850393700787},{"duration":0.5172410000000127,"midi":88,"time":142.4998955,"velocity":0.25196850393700787},{"duration":0.5172409999999843,"midi":87,"time":143.27575700000003,"velocity":0.25196850393700787},{"duration":0.25862050000000636,"midi":85,"time":143.792998,"velocity":0.25196850393700787},{"duration":0.25862050000000636,"midi":87,"time":144.05161850000002,"velocity":0.25196850393700787},{"duration":0.25862050000000636,"midi":85,"time":144.31023900000002,"velocity":0.25196850393700787},{"duration":0.5172409999999843,"midi":85,"time":144.56885950000003,"velocity":0.25196850393700787},{"duration":0.5172409999999843,"midi":90,"time":146.63782350000002,"velocity":0.25196850393700787},{"duration":0.5172410000000127,"midi":89,"time":147.41368500000002,"velocity":0.25196850393700787},{"duration":0.25862049999997794,"midi":85,"time":147.93092600000003,"velocity":0.25196850393700787},{"duration":0.25862050000000636,"midi":87,"time":148.1895465,"velocity":0.25196850393700787},{"duration":0.25862050000000636,"midi":85,"time":148.448167,"velocity":0.25196850393700787},{"duration":0.5172409999999843,"midi":85,"time":148.96540800000002,"velocity":0.25196850393700787},{"duration":0.5172410000000127,"midi":88,"time":150.7757515,"velocity":0.25196850393700787},{"duration":0.5172409999999843,"midi":87,"time":151.55161300000003,"velocity":0.25196850393700787},{"duration":0.25862050000000636,"midi":85,"time":152.06885400000002,"velocity":0.25196850393700787},{"duration":0.25862050000000636,"midi":87,"time":152.32747450000002,"velocity":0.25196850393700787},{"duration":0.25862049999997794,"midi":85,"time":152.58609500000003,"velocity":0.25196850393700787},{"duration":0.5172410000000127,"midi":85,"time":152.8447155,"velocity":0.25196850393700787},{"duration":0.5172409999999843,"midi":90,"time":154.91367950000003,"velocity":0.25196850393700787},{"duration":0.5172410000000127,"midi":89,"time":155.68954100000002,"velocity":0.25196850393700787},{"duration":0.25862049999997794,"midi":85,"time":156.20678200000003,"velocity":0.25196850393700787},{"duration":0.25862050000000636,"midi":87,"time":156.4654025,"velocity":0.25196850393700787},{"duration":0.25862050000000636,"midi":85,"time":156.72402300000002,"velocity":0.25196850393700787},{"duration":0.5172409999999843,"midi":85,"time":157.24126400000003,"velocity":0.25196850393700787},{"duration":0.5172410000000127,"midi":88,"time":159.05160750000002,"velocity":0.25196850393700787},{"duration":0.5172410000000127,"midi":87,"time":159.827469,"velocity":0.25196850393700787},{"duration":0.25862050000000636,"midi":85,"time":160.34471000000002,"velocity":0.25196850393700787},{"duration":0.25862050000000636,"midi":87,"time":160.60333050000003,"velocity":0.25196850393700787},{"duration":0.25862049999997794,"midi":85,"time":160.86195100000003,"velocity":0.25196850393700787},{"duration":0.5172410000000127,"midi":85,"time":161.1205715,"velocity":0.25196850393700787}]},{"instrument":{"family":"bass","number":38,"name":"synth bass 1"},"notes":[{"duration":1.2931025000000034,"midi":73,"time":33.103424000000004,"velocity":0.30708661417322836},{"duration":0.25862049999999925,"midi":72,"time":34.39652650000001,"velocity":0.30708661417322836},{"duration":0.25862049999999925,"midi":73,"time":34.65514700000001,"velocity":0.30708661417322836},{"duration":1.5517229999999955,"midi":80,"time":34.913767500000006,"velocity":0.30708661417322836},{"duration":0.25862050000000636,"midi":68,"time":36.4654905,"velocity":0.30708661417322836},{"duration":0.25862049999999925,"midi":73,"time":36.72411100000001,"velocity":0.30708661417322836},{"duration":1.5517229999999955,"midi":75,"time":36.98273150000001,"velocity":0.30708661417322836},{"duration":0.25862049999999925,"midi":68,"time":38.5344545,"velocity":0.30708661417322836},{"duration":0.25862050000000636,"midi":73,"time":38.793075,"velocity":0.30708661417322836},{"duration":0.5172409999999985,"midi":77,"time":39.05169550000001,"velocity":0.30708661417322836},{"duration":0.25862049999999925,"midi":78,"time":39.56893650000001,"velocity":0.30708661417322836},{"duration":0.25862049999999925,"midi":66,"time":39.56893650000001,"velocity":0.30708661417322836},{"duration":0.25862049999999925,"midi":77,"time":39.827557000000006,"velocity":0.30708661417322836},{"duration":0.25862049999999925,"midi":65,"time":39.827557000000006,"velocity":0.30708661417322836},{"duration":0.25862049999999925,"midi":63,"time":40.086177500000005,"velocity":0.30708661417322836},{"duration":0.25862049999999925,"midi":75,"time":40.086177500000005,"velocity":0.30708661417322836},{"duration":0.5172409999999985,"midi":61,"time":40.344798000000004,"velocity":0.30708661417322836},{"duration":0.5172409999999985,"midi":73,"time":40.344798000000004,"velocity":0.30708661417322836},{"duration":0.25862049999999925,"midi":72,"time":40.862039,"velocity":0.30708661417322836},{"duration":0.25862049999999925,"midi":60,"time":40.862039,"velocity":0.30708661417322836},{"duration":1.5517230000000026,"midi":73,"time":41.1206595,"velocity":0.30708661417322836},{"duration":1.5517230000000026,"midi":61,"time":41.1206595,"velocity":0.30708661417322836},{"duration":0.25862049999999925,"midi":72,"time":42.672382500000005,"velocity":0.30708661417322836},{"duration":0.25862049999999925,"midi":73,"time":42.931003000000004,"velocity":0.30708661417322836},{"duration":1.5517230000000026,"midi":80,"time":43.1896235,"velocity":0.30708661417322836},{"duration":0.25862049999999925,"midi":73,"time":44.741346500000006,"velocity":0.30708661417322836},{"duration":0.25862049999999925,"midi":61,"time":44.741346500000006,"velocity":0.30708661417322836},{"duration":0.25862049999999925,"midi":75,"time":44.999967000000005,"velocity":0.30708661417322836},{"duration":0.25862049999999925,"midi":63,"time":44.999967000000005,"velocity":0.30708661417322836},{"duration":1.5517230000000026,"midi":84,"time":45.258587500000004,"velocity":0.30708661417322836},{"duration":1.5517230000000026,"midi":72,"time":45.258587500000004,"velocity":0.30708661417322836},{"duration":0.25862049999999925,"midi":68,"time":46.81031050000001,"velocity":0.30708661417322836},{"duration":0.25862049999999925,"midi":80,"time":46.81031050000001,"velocity":0.30708661417322836},{"duration":0.25862049999999925,"midi":82,"time":47.068931000000006,"velocity":0.30708661417322836},{"duration":0.25862049999999925,"midi":70,"time":47.068931000000006,"velocity":0.30708661417322836},{"duration":0.5172409999999985,"midi":85,"time":47.327551500000006,"velocity":0.30708661417322836},{"duration":0.5172409999999985,"midi":73,"time":47.327551500000006,"velocity":0.30708661417322836},{"duration":0.25862049999999925,"midi":72,"time":47.844792500000004,"velocity":0.30708661417322836},{"duration":0.25862049999999925,"midi":84,"time":47.844792500000004,"velocity":0.30708661417322836},{"duration":0.25862049999999925,"midi":80,"time":48.103413,"velocity":0.30708661417322836},{"duration":0.25862049999999925,"midi":68,"time":48.103413,"velocity":0.30708661417322836},{"duration":0.25862050000000636,"midi":78,"time":48.3620335,"velocity":0.30708661417322836},{"duration":0.25862050000000636,"midi":66,"time":48.3620335,"velocity":0.30708661417322836},{"duration":0.25862049999999925,"midi":65,"time":48.62065400000001,"velocity":0.30708661417322836},{"duration":0.25862049999999925,"midi":77,"time":48.62065400000001,"velocity":0.30708661417322836},{"duration":0.25862049999999925,"midi":75,"time":48.87927450000001,"velocity":0.30708661417322836},{"duration":0.25862049999999925,"midi":63,"time":48.87927450000001,"velocity":0.30708661417322836},{"duration":0.5172409999999985,"midi":73,"time":49.13789500000001,"velocity":0.30708661417322836},{"duration":0.5172409999999985,"midi":61,"time":49.13789500000001,"velocity":0.30708661417322836},{"duration":1.2931025000000034,"midi":73,"time":49.655136000000006,"velocity":0.30708661417322836},{"duration":0.25862049999999925,"midi":72,"time":50.94823850000001,"velocity":0.30708661417322836},{"duration":0.25862049999999925,"midi":73,"time":51.20685900000001,"velocity":0.30708661417322836},{"duration":1.5517229999999955,"midi":80,"time":51.46547950000001,"velocity":0.30708661417322836},{"duration":0.25862050000000636,"midi":68,"time":53.0172025,"velocity":0.30708661417322836},{"duration":0.25862049999999925,"midi":73,"time":53.27582300000001,"velocity":0.30708661417322836},{"duration":1.5517229999999955,"midi":75,"time":53.53444350000001,"velocity":0.30708661417322836},{"duration":0.25862049999999925,"midi":68,"time":55.086166500000004,"velocity":0.30708661417322836},{"duration":0.25862050000000636,"midi":73,"time":55.344787000000004,"velocity":0.30708661417322836},{"duration":0.5172409999999985,"midi":77,"time":55.60340750000001,"velocity":0.30708661417322836},{"duration":0.25862049999999925,"midi":78,"time":56.12064850000001,"velocity":0.30708661417322836},{"duration":0.25862049999999925,"midi":66,"time":56.12064850000001,"velocity":0.30708661417322836},{"duration":0.25862049999999925,"midi":65,"time":56.37926900000001,"velocity":0.30708661417322836},{"duration":0.25862049999999925,"midi":77,"time":56.37926900000001,"velocity":0.30708661417322836},{"duration":0.25862049999999925,"midi":75,"time":56.63788950000001,"velocity":0.30708661417322836},{"duration":0.25862049999999925,"midi":63,"time":56.63788950000001,"velocity":0.30708661417322836},{"duration":0.5172409999999985,"midi":61,"time":56.896510000000006,"velocity":0.30708661417322836},{"duration":0.5172409999999985,"midi":73,"time":56.896510000000006,"velocity":0.30708661417322836},{"duration":0.25862049999999925,"midi":60,"time":57.413751000000005,"velocity":0.30708661417322836},{"duration":0.25862049999999925,"midi":72,"time":57.413751000000005,"velocity":0.30708661417322836},{"duration":1.5517230000000026,"midi":73,"time":57.672371500000004,"velocity":0.30708661417322836},{"duration":1.5517230000000026,"midi":61,"time":57.672371500000004,"velocity":0.30708661417322836},{"duration":0.25862049999999925,"midi":72,"time":59.22409450000001,"velocity":0.30708661417322836},{"duration":0.25862049999999925,"midi":73,"time":59.482715000000006,"velocity":0.30708661417322836},{"duration":1.5517230000000026,"midi":80,"time":59.741335500000005,"velocity":0.30708661417322836},{"duration":0.25862049999999925,"midi":61,"time":61.29305850000001,"velocity":0.30708661417322836},{"duration":0.25862049999999925,"midi":73,"time":61.29305850000001,"velocity":0.30708661417322836},{"duration":0.25862049999999925,"midi":75,"time":61.55167900000001,"velocity":0.30708661417322836},{"duration":0.25862049999999925,"midi":63,"time":61.55167900000001,"velocity":0.30708661417322836},{"duration":1.5517230000000026,"midi":84,"time":61.810299500000006,"velocity":0.30708661417322836},{"duration":1.5517230000000026,"midi":72,"time":61.810299500000006,"velocity":0.30708661417322836},{"duration":0.25862049999999925,"midi":80,"time":63.36202250000001,"velocity":0.30708661417322836},{"duration":0.25862049999999925,"midi":68,"time":63.36202250000001,"velocity":0.30708661417322836},{"duration":0.25862049999999925,"midi":70,"time":63.62064300000001,"velocity":0.30708661417322836},{"duration":0.25862049999999925,"midi":82,"time":63.62064300000001,"velocity":0.30708661417322836},{"duration":0.5172409999999985,"midi":85,"time":63.87926350000001,"velocity":0.30708661417322836},{"duration":0.5172409999999985,"midi":73,"time":63.87926350000001,"velocity":0.30708661417322836},{"duration":0.25862050000000636,"midi":84,"time":64.3965045,"velocity":0.30708661417322836},{"duration":0.25862050000000636,"midi":72,"time":64.3965045,"velocity":0.30708661417322836},{"duration":0.25862049999999215,"midi":68,"time":64.65512500000001,"velocity":0.30708661417322836},{"duration":0.25862049999999215,"midi":80,"time":64.65512500000001,"velocity":0.30708661417322836},{"duration":0.25862050000000636,"midi":78,"time":64.9137455,"velocity":0.30708661417322836},{"duration":0.25862050000000636,"midi":66,"time":64.9137455,"velocity":0.30708661417322836},{"duration":0.25862049999999215,"midi":77,"time":65.17236600000001,"velocity":0.30708661417322836},{"duration":0.25862049999999215,"midi":65,"time":65.17236600000001,"velocity":0.30708661417322836},{"duration":0.25862050000000636,"midi":75,"time":65.4309865,"velocity":0.30708661417322836},{"duration":0.25862050000000636,"midi":63,"time":65.4309865,"velocity":0.30708661417322836},{"duration":1.5517229999999955,"midi":73,"time":65.68960700000001,"velocity":0.30708661417322836},{"duration":1.5517229999999955,"midi":61,"time":65.68960700000001,"velocity":0.30708661417322836},{"duration":1.5517229999999955,"midi":73,"time":99.31027200000001,"velocity":0.30708661417322836},{"duration":1.5517229999999955,"midi":61,"time":99.31027200000001,"velocity":0.30708661417322836},{"duration":0.7758615000000049,"midi":76,"time":101.12061550000001,"velocity":0.30708661417322836},{"duration":0.7758615000000049,"midi":64,"time":101.12061550000001,"velocity":0.30708661417322836},{"duration":0.25862049999999215,"midi":75,"time":101.89647700000002,"velocity":0.30708661417322836},{"duration":0.25862049999999215,"midi":63,"time":101.89647700000002,"velocity":0.30708661417322836},{"duration":0.25862049999999215,"midi":61,"time":102.41371800000002,"velocity":0.30708661417322836},{"duration":0.25862049999999215,"midi":73,"time":102.41371800000002,"velocity":0.30708661417322836},{"duration":0.25862050000000636,"midi":75,"time":102.67233850000001,"velocity":0.30708661417322836},{"duration":0.25862050000000636,"midi":63,"time":102.67233850000001,"velocity":0.30708661417322836},{"duration":0.25862049999999215,"midi":73,"time":102.93095900000002,"velocity":0.30708661417322836},{"duration":0.25862049999999215,"midi":61,"time":102.93095900000002,"velocity":0.30708661417322836},{"duration":1.8103435000000019,"midi":61,"time":103.18957950000001,"velocity":0.30708661417322836},{"duration":1.8103435000000019,"midi":73,"time":103.18957950000001,"velocity":0.30708661417322836},{"duration":0.7758614999999907,"midi":78,"time":105.25854350000002,"velocity":0.30708661417322836},{"duration":0.7758614999999907,"midi":66,"time":105.25854350000002,"velocity":0.30708661417322836},{"duration":0.25862050000000636,"midi":77,"time":106.034405,"velocity":0.30708661417322836},{"duration":0.25862050000000636,"midi":65,"time":106.034405,"velocity":0.30708661417322836},{"duration":0.25862049999999215,"midi":73,"time":106.55164600000002,"velocity":0.30708661417322836},{"duration":0.25862049999999215,"midi":61,"time":106.55164600000002,"velocity":0.30708661417322836},{"duration":0.25862050000000636,"midi":75,"time":106.81026650000001,"velocity":0.30708661417322836},{"duration":0.25862050000000636,"midi":63,"time":106.81026650000001,"velocity":0.30708661417322836},{"duration":0.25862049999999215,"midi":61,"time":107.06888700000002,"velocity":0.30708661417322836},{"duration":0.25862049999999215,"midi":73,"time":107.06888700000002,"velocity":0.30708661417322836},{"duration":1.5517229999999955,"midi":73,"time":107.58612800000002,"velocity":0.30708661417322836},{"duration":1.5517229999999955,"midi":61,"time":107.58612800000002,"velocity":0.30708661417322836},{"duration":0.7758614999999907,"midi":76,"time":109.39647150000002,"velocity":0.30708661417322836},{"duration":0.7758614999999907,"midi":64,"time":109.39647150000002,"velocity":0.30708661417322836},{"duration":0.25862050000000636,"midi":63,"time":110.17233300000001,"velocity":0.30708661417322836},{"duration":0.25862050000000636,"midi":75,"time":110.17233300000001,"velocity":0.30708661417322836},{"duration":0.25862050000000636,"midi":73,"time":110.68957400000001,"velocity":0.30708661417322836},{"duration":0.25862050000000636,"midi":61,"time":110.68957400000001,"velocity":0.30708661417322836},{"duration":0.25862050000000636,"midi":75,"time":110.94819450000001,"velocity":0.30708661417322836},{"duration":0.25862050000000636,"midi":63,"time":110.94819450000001,"velocity":0.30708661417322836},{"duration":0.25862049999999215,"midi":73,"time":111.20681500000002,"velocity":0.30708661417322836},{"duration":0.25862049999999215,"midi":61,"time":111.20681500000002,"velocity":0.30708661417322836},{"duration":1.8103435000000019,"midi":73,"time":111.46543550000001,"velocity":0.30708661417322836},{"duration":1.8103435000000019,"midi":61,"time":111.46543550000001,"velocity":0.30708661417322836},{"duration":0.7758614999999907,"midi":78,"time":113.53439950000002,"velocity":0.30708661417322836},{"duration":0.7758614999999907,"midi":66,"time":113.53439950000002,"velocity":0.30708661417322836},{"duration":0.25862050000000636,"midi":77,"time":114.31026100000001,"velocity":0.30708661417322836},{"duration":0.25862050000000636,"midi":65,"time":114.31026100000001,"velocity":0.30708661417322836},{"duration":0.25862050000000636,"midi":61,"time":114.82750200000001,"velocity":0.30708661417322836},{"duration":0.25862050000000636,"midi":73,"time":114.82750200000001,"velocity":0.30708661417322836},{"duration":0.25862049999999215,"midi":75,"time":115.08612250000002,"velocity":0.30708661417322836},{"duration":0.25862049999999215,"midi":63,"time":115.08612250000002,"velocity":0.30708661417322836},{"duration":0.25862050000000636,"midi":73,"time":115.34474300000001,"velocity":0.30708661417322836},{"duration":0.25862050000000636,"midi":61,"time":115.34474300000001,"velocity":0.30708661417322836},{"duration":1.5517230000000097,"midi":73,"time":115.861984,"velocity":0.30708661417322836},{"duration":1.5517230000000097,"midi":61,"time":115.861984,"velocity":0.30708661417322836},{"duration":0.7758615000000049,"midi":64,"time":117.67232750000001,"velocity":0.30708661417322836},{"duration":0.7758615000000049,"midi":76,"time":117.67232750000001,"velocity":0.30708661417322836},{"duration":0.25862050000000636,"midi":75,"time":118.44818900000001,"velocity":0.30708661417322836},{"duration":0.25862050000000636,"midi":63,"time":118.44818900000001,"velocity":0.30708661417322836},{"duration":0.25862050000000636,"midi":73,"time":118.96543000000001,"velocity":0.30708661417322836},{"duration":0.25862050000000636,"midi":61,"time":118.96543000000001,"velocity":0.30708661417322836},{"duration":0.25862049999999215,"midi":75,"time":119.22405050000002,"velocity":0.30708661417322836},{"duration":0.25862049999999215,"midi":63,"time":119.22405050000002,"velocity":0.30708661417322836},{"duration":0.25862050000000636,"midi":61,"time":119.48267100000001,"velocity":0.30708661417322836},{"duration":0.25862050000000636,"midi":73,"time":119.48267100000001,"velocity":0.30708661417322836},{"duration":1.8103435000000019,"midi":73,"time":119.74129150000002,"velocity":0.30708661417322836},{"duration":1.8103435000000019,"midi":61,"time":119.74129150000002,"velocity":0.30708661417322836},{"duration":0.7758615000000049,"midi":78,"time":121.81025550000001,"velocity":0.30708661417322836},{"duration":0.7758615000000049,"midi":66,"time":121.81025550000001,"velocity":0.30708661417322836},{"duration":0.25862049999999215,"midi":65,"time":122.58611700000002,"velocity":0.30708661417322836},{"duration":0.25862049999999215,"midi":77,"time":122.58611700000002,"velocity":0.30708661417322836},{"duration":0.25862050000000636,"midi":61,"time":123.10335800000001,"velocity":0.30708661417322836},{"duration":0.25862050000000636,"midi":73,"time":123.10335800000001,"velocity":0.30708661417322836},{"duration":0.25862049999999215,"midi":75,"time":123.36197850000002,"velocity":0.30708661417322836},{"duration":0.25862049999999215,"midi":63,"time":123.36197850000002,"velocity":0.30708661417322836},{"duration":0.25862050000000636,"midi":73,"time":123.62059900000001,"velocity":0.30708661417322836},{"duration":0.25862050000000636,"midi":61,"time":123.62059900000001,"velocity":0.30708661417322836},{"duration":1.5517230000000097,"midi":61,"time":124.13784000000001,"velocity":0.30708661417322836},{"duration":1.5517230000000097,"midi":73,"time":124.13784000000001,"velocity":0.30708661417322836},{"duration":0.7758615000000049,"midi":76,"time":125.94818350000001,"velocity":0.30708661417322836},{"duration":0.7758615000000049,"midi":64,"time":125.94818350000001,"velocity":0.30708661417322836},{"duration":0.25862049999999215,"midi":75,"time":126.72404500000002,"velocity":0.30708661417322836},{"duration":0.25862049999999215,"midi":63,"time":126.72404500000002,"velocity":0.30708661417322836},{"duration":0.25862049999999215,"midi":73,"time":127.24128600000002,"velocity":0.30708661417322836},{"duration":0.25862049999999215,"midi":61,"time":127.24128600000002,"velocity":0.30708661417322836},{"duration":0.25862050000000636,"midi":63,"time":127.49990650000001,"velocity":0.30708661417322836},{"duration":0.25862050000000636,"midi":75,"time":127.49990650000001,"velocity":0.30708661417322836},{"duration":0.25862050000000636,"midi":73,"time":127.75852700000002,"velocity":0.30708661417322836},{"duration":0.25862050000000636,"midi":61,"time":127.75852700000002,"velocity":0.30708661417322836},{"duration":1.8103434999999877,"midi":73,"time":128.01714750000002,"velocity":0.30708661417322836},{"duration":1.8103434999999877,"midi":61,"time":128.01714750000002,"velocity":0.30708661417322836},{"duration":0.7758614999999907,"midi":66,"time":130.08611150000002,"velocity":0.30708661417322836},{"duration":0.7758614999999907,"midi":78,"time":130.08611150000002,"velocity":0.30708661417322836},{"duration":0.25862050000000636,"midi":65,"time":130.861973,"velocity":0.30708661417322836},{"duration":0.25862050000000636,"midi":77,"time":130.861973,"velocity":0.30708661417322836},{"duration":0.25862050000000636,"midi":73,"time":131.37921400000002,"velocity":0.30708661417322836},{"duration":0.25862050000000636,"midi":61,"time":131.37921400000002,"velocity":0.30708661417322836},{"duration":0.25862049999997794,"midi":63,"time":131.63783450000003,"velocity":0.30708661417322836},{"duration":0.25862049999997794,"midi":75,"time":131.63783450000003,"velocity":0.30708661417322836},{"duration":0.25862050000000636,"midi":61,"time":131.896455,"velocity":0.30708661417322836},{"duration":0.25862050000000636,"midi":73,"time":131.896455,"velocity":0.30708661417322836},{"duration":0.5172410000000127,"midi":85,"time":132.41369600000002,"velocity":0.2755905511811024},{"duration":0.5172410000000127,"midi":88,"time":134.2240395,"velocity":0.2755905511811024},{"duration":0.5172409999999843,"midi":87,"time":134.99990100000002,"velocity":0.2755905511811024},{"duration":0.25862050000000636,"midi":85,"time":135.517142,"velocity":0.2755905511811024},{"duration":0.25862050000000636,"midi":87,"time":135.7757625,"velocity":0.2755905511811024},{"duration":0.25862050000000636,"midi":85,"time":136.03438300000002,"velocity":0.2755905511811024},{"duration":0.5172409999999843,"midi":85,"time":136.29300350000003,"velocity":0.2755905511811024},{"duration":0.5172409999999843,"midi":90,"time":138.36196750000002,"velocity":0.2755905511811024},{"duration":0.5172410000000127,"midi":89,"time":139.137829,"velocity":0.2755905511811024},{"duration":0.25862050000000636,"midi":85,"time":139.65507000000002,"velocity":0.2755905511811024},{"duration":0.25862049999997794,"midi":87,"time":139.91369050000003,"velocity":0.2755905511811024},{"duration":0.25862050000000636,"midi":85,"time":140.172311,"velocity":0.2755905511811024},{"duration":0.5172409999999843,"midi":85,"time":140.68955200000002,"velocity":0.2755905511811024},{"duration":0.5172410000000127,"midi":88,"time":142.4998955,"velocity":0.2755905511811024},{"duration":0.5172409999999843,"midi":87,"time":143.27575700000003,"velocity":0.2755905511811024},{"duration":0.25862050000000636,"midi":85,"time":143.792998,"velocity":0.2755905511811024},{"duration":0.25862050000000636,"midi":87,"time":144.05161850000002,"velocity":0.2755905511811024},{"duration":0.25862050000000636,"midi":85,"time":144.31023900000002,"velocity":0.2755905511811024},{"duration":0.5172409999999843,"midi":85,"time":144.56885950000003,"velocity":0.2755905511811024},{"duration":0.5172409999999843,"midi":90,"time":146.63782350000002,"velocity":0.2755905511811024},{"duration":0.5172410000000127,"midi":89,"time":147.41368500000002,"velocity":0.2755905511811024},{"duration":0.25862049999997794,"midi":85,"time":147.93092600000003,"velocity":0.2755905511811024},{"duration":0.25862050000000636,"midi":87,"time":148.1895465,"velocity":0.2755905511811024},{"duration":0.25862050000000636,"midi":85,"time":148.448167,"velocity":0.2755905511811024},{"duration":0.5172409999999843,"midi":85,"time":148.96540800000002,"velocity":0.2755905511811024},{"duration":0.5172410000000127,"midi":88,"time":150.7757515,"velocity":0.2755905511811024},{"duration":0.5172409999999843,"midi":87,"time":151.55161300000003,"velocity":0.2755905511811024},{"duration":0.25862050000000636,"midi":85,"time":152.06885400000002,"velocity":0.2755905511811024},{"duration":0.25862050000000636,"midi":87,"time":152.32747450000002,"velocity":0.2755905511811024},{"duration":0.25862049999997794,"midi":85,"time":152.58609500000003,"velocity":0.2755905511811024},{"duration":0.5172410000000127,"midi":85,"time":152.8447155,"velocity":0.2755905511811024},{"duration":0.5172409999999843,"midi":90,"time":154.91367950000003,"velocity":0.2755905511811024},{"duration":0.5172410000000127,"midi":89,"time":155.68954100000002,"velocity":0.2755905511811024},{"duration":0.25862049999997794,"midi":85,"time":156.20678200000003,"velocity":0.2755905511811024},{"duration":0.25862050000000636,"midi":87,"time":156.4654025,"velocity":0.2755905511811024},{"duration":0.25862050000000636,"midi":85,"time":156.72402300000002,"velocity":0.2755905511811024},{"duration":0.5172409999999843,"midi":85,"time":157.24126400000003,"velocity":0.2755905511811024},{"duration":0.5172410000000127,"midi":88,"time":159.05160750000002,"velocity":0.2755905511811024},{"duration":0.5172410000000127,"midi":87,"time":159.827469,"velocity":0.2755905511811024},{"duration":0.25862050000000636,"midi":85,"time":160.34471000000002,"velocity":0.2755905511811024},{"duration":0.25862050000000636,"midi":87,"time":160.60333050000003,"velocity":0.2755905511811024},{"duration":0.25862049999997794,"midi":85,"time":160.86195100000003,"velocity":0.2755905511811024},{"duration":0.5172410000000127,"midi":85,"time":161.1205715,"velocity":0.2755905511811024}]},{"instrument":{"family":"drums","number":0,"name":"standard kit"},"notes":[{"duration":0.12931024999999963,"midi":36,"time":16.551712000000002,"velocity":0.2677165354330709},{"duration":0.12931024999999963,"midi":49,"time":16.551712000000002,"velocity":0.3464566929133858},{"duration":0.12931024999999963,"midi":57,"time":16.551712000000002,"velocity":0.3464566929133858},{"duration":0.12931024999999963,"midi":46,"time":16.8103325,"velocity":0.1968503937007874},{"duration":0.12931025000000318,"midi":36,"time":17.068953,"velocity":0.2677165354330709},{"duration":0.12931025000000318,"midi":38,"time":17.068953,"velocity":0.2440944881889764},{"duration":0.12931025000000318,"midi":40,"time":17.068953,"velocity":0.14960629921259844},{"duration":0.12931024999999963,"midi":46,"time":17.327573500000003,"velocity":0.1968503937007874},{"duration":0.12931024999999963,"midi":36,"time":17.586194000000003,"velocity":0.2677165354330709},{"duration":0.12931024999999963,"midi":46,"time":17.844814500000002,"velocity":0.1968503937007874},{"duration":0.12931024999999963,"midi":40,"time":18.103435,"velocity":0.14960629921259844},{"duration":0.12931024999999963,"midi":36,"time":18.103435,"velocity":0.2677165354330709},{"duration":0.12931024999999963,"midi":38,"time":18.103435,"velocity":0.2440944881889764},{"duration":0.12931024999999963,"midi":46,"time":18.362055500000004,"velocity":0.1968503937007874},{"duration":0.12931024999999963,"midi":36,"time":18.620676000000003,"velocity":0.2677165354330709},{"duration":0.12931024999999963,"midi":46,"time":18.879296500000002,"velocity":0.1968503937007874},{"duration":0.12931024999999963,"midi":38,"time":19.137917,"velocity":0.2440944881889764},{"duration":0.12931024999999963,"midi":40,"time":19.137917,"velocity":0.14960629921259844},{"duration":0.12931024999999963,"midi":36,"time":19.137917,"velocity":0.2677165354330709},{"duration":0.12931025000000318,"midi":46,"time":19.3965375,"velocity":0.1968503937007874},{"duration":0.12931024999999963,"midi":36,"time":19.655158000000004,"velocity":0.2677165354330709},{"duration":0.12931024999999963,"midi":46,"time":19.913778500000003,"velocity":0.1968503937007874},{"duration":0.12931024999999963,"midi":36,"time":20.172399000000002,"velocity":0.2677165354330709},{"duration":0.12931024999999963,"midi":40,"time":20.172399000000002,"velocity":0.14960629921259844},{"duration":0.12931024999999963,"midi":38,"time":20.172399000000002,"velocity":0.2440944881889764},{"duration":0.12931024999999963,"midi":46,"time":20.4310195,"velocity":0.1968503937007874},{"duration":0.12931024999999963,"midi":36,"time":20.689640000000004,"velocity":0.2677165354330709},{"duration":0.12931024999999963,"midi":46,"time":20.948260500000004,"velocity":0.1968503937007874},{"duration":0.12931024999999963,"midi":40,"time":21.206881000000003,"velocity":0.14960629921259844},{"duration":0.12931024999999963,"midi":38,"time":21.206881000000003,"velocity":0.2440944881889764},{"duration":0.12931024999999963,"midi":36,"time":21.206881000000003,"velocity":0.2677165354330709},{"duration":0.12931024999999963,"midi":46,"time":21.465501500000002,"velocity":0.1968503937007874},{"duration":0.12931024999999963,"midi":36,"time":21.724122,"velocity":0.2677165354330709},{"duration":0.12931024999999963,"midi":46,"time":21.982742500000004,"velocity":0.1968503937007874},{"duration":0.12931024999999963,"midi":36,"time":22.241363000000003,"velocity":0.2677165354330709},{"duration":0.12931024999999963,"midi":38,"time":22.241363000000003,"velocity":0.2440944881889764},{"duration":0.12931024999999963,"midi":40,"time":22.241363000000003,"velocity":0.14960629921259844},{"duration":0.12931024999999963,"midi":46,"time":22.499983500000003,"velocity":0.1968503937007874},{"duration":0.12931024999999963,"midi":36,"time":22.758604000000002,"velocity":0.2677165354330709},{"duration":0.12931025000000318,"midi":46,"time":23.0172245,"velocity":0.1968503937007874},{"duration":0.12931024999999963,"midi":38,"time":23.275845000000004,"velocity":0.2440944881889764},{"duration":0.12931024999999963,"midi":40,"time":23.275845000000004,"velocity":0.14960629921259844},{"duration":0.12931024999999963,"midi":36,"time":23.275845000000004,"velocity":0.2677165354330709},{"duration":0.12931024999999963,"midi":46,"time":23.534465500000003,"velocity":0.1968503937007874},{"duration":0.12931024999999963,"midi":36,"time":23.793086000000002,"velocity":0.2677165354330709},{"duration":0.12931024999999963,"midi":46,"time":24.0517065,"velocity":0.1968503937007874},{"duration":0.12931024999999963,"midi":36,"time":24.310327000000004,"velocity":0.2677165354330709},{"duration":0.12931024999999963,"midi":38,"time":24.310327000000004,"velocity":0.2440944881889764},{"duration":0.12931024999999963,"midi":40,"time":24.310327000000004,"velocity":0.14960629921259844},{"duration":0.12931024999999963,"midi":46,"time":24.568947500000004,"velocity":0.1968503937007874},{"duration":0.12931024999999963,"midi":36,"time":24.827568000000003,"velocity":0.2677165354330709},{"duration":0.12931024999999963,"midi":46,"time":25.086188500000002,"velocity":0.1968503937007874},{"duration":0.12931025000000318,"midi":38,"time":25.344809,"velocity":0.2440944881889764},{"duration":0.12931025000000318,"midi":40,"time":25.344809,"velocity":0.14960629921259844},{"duration":0.12931025000000318,"midi":36,"time":25.344809,"velocity":0.2677165354330709},{"duration":0.12931024999999963,"midi":46,"time":25.603429500000004,"velocity":0.1968503937007874},{"duration":0.12931024999999963,"midi":36,"time":25.862050000000004,"velocity":0.2677165354330709},{"duration":0.12931024999999963,"midi":46,"time":26.120670500000003,"velocity":0.1968503937007874},{"duration":0.12931024999999963,"midi":36,"time":26.379291000000002,"velocity":0.2677165354330709},{"duration":0.12931024999999963,"midi":38,"time":26.379291000000002,"velocity":0.2440944881889764},{"duration":0.12931024999999963,"midi":40,"time":26.379291000000002,"velocity":0.14960629921259844},{"duration":0.12931024999999963,"midi":46,"time":26.637911500000005,"velocity":0.1968503937007874},{"duration":0.12931024999999963,"midi":36,"time":26.896532000000004,"velocity":0.2677165354330709},{"duration":0.12931024999999963,"midi":46,"time":27.155152500000003,"velocity":0.1968503937007874},{"duration":0.12931024999999963,"midi":40,"time":27.413773000000003,"velocity":0.14960629921259844},{"duration":0.12931024999999963,"midi":38,"time":27.413773000000003,"velocity":0.2440944881889764},{"duration":0.12931024999999963,"midi":36,"time":27.413773000000003,"velocity":0.2677165354330709},{"duration":0.12931025000000318,"midi":46,"time":27.672393500000002,"velocity":0.1968503937007874},{"duration":0.12931024999999963,"midi":36,"time":27.931014000000005,"velocity":0.2677165354330709},{"duration":0.12931024999999963,"midi":46,"time":28.189634500000004,"velocity":0.1968503937007874},{"duration":0.12931024999999963,"midi":38,"time":28.448255000000003,"velocity":0.2440944881889764},{"duration":0.12931024999999963,"midi":36,"time":28.448255000000003,"velocity":0.2677165354330709},{"duration":0.12931024999999963,"midi":40,"time":28.448255000000003,"velocity":0.14960629921259844},{"duration":0.12931024999999963,"midi":46,"time":28.706875500000002,"velocity":0.1968503937007874},{"duration":0.12931025000000318,"midi":36,"time":28.965496,"velocity":0.2677165354330709},{"duration":0.12931024999999963,"midi":46,"time":29.224116500000004,"velocity":0.1968503937007874},{"duration":0.12931024999999963,"midi":40,"time":29.482737000000004,"velocity":0.14960629921259844},{"duration":0.12931024999999963,"midi":38,"time":29.482737000000004,"velocity":0.2440944881889764},{"duration":0.12931024999999963,"midi":36,"time":29.482737000000004,"velocity":0.2677165354330709},{"duration":0.12931024999999963,"midi":46,"time":29.741357500000003,"velocity":0.1968503937007874},{"duration":0.12931024999999963,"midi":36,"time":29.999978000000002,"velocity":0.2677165354330709},{"duration":0.12931024999999963,"midi":46,"time":30.258598500000005,"velocity":0.1968503937007874},{"duration":0.12931024999999963,"midi":38,"time":30.517219000000004,"velocity":0.2440944881889764},{"duration":0.12931024999999963,"midi":36,"time":30.517219000000004,"velocity":0.2677165354330709},{"duration":0.12931024999999963,"midi":40,"time":30.517219000000004,"velocity":0.14960629921259844},{"duration":0.12931024999999963,"midi":46,"time":30.775839500000004,"velocity":0.1968503937007874},{"duration":0.12931024999999963,"midi":36,"time":31.034460000000003,"velocity":0.2677165354330709},{"duration":0.12931025000000318,"midi":46,"time":31.293080500000002,"velocity":0.1968503937007874},{"duration":0.12931024999999963,"midi":40,"time":31.551701000000005,"velocity":0.14960629921259844},{"duration":0.12931024999999963,"midi":38,"time":31.551701000000005,"velocity":0.2440944881889764},{"duration":0.12931024999999963,"midi":36,"time":31.551701000000005,"velocity":0.2677165354330709},{"duration":0.12931024999999963,"midi":46,"time":31.810321500000004,"velocity":0.1968503937007874},{"duration":0.12931024999999607,"midi":36,"time":32.06894200000001,"velocity":0.2677165354330709},{"duration":0.12931024999999607,"midi":46,"time":32.327562500000006,"velocity":0.1968503937007874},{"duration":0.12931024999999607,"midi":40,"time":32.586183000000005,"velocity":0.14960629921259844},{"duration":0.12931024999999607,"midi":38,"time":32.586183000000005,"velocity":0.2440944881889764},{"duration":0.12931024999999607,"midi":36,"time":32.586183000000005,"velocity":0.2677165354330709},{"duration":0.12931024999999607,"midi":46,"time":32.844803500000005,"velocity":0.1968503937007874},{"duration":0.12931025000000318,"midi":36,"time":33.103424000000004,"velocity":0.2677165354330709},{"duration":0.12931025000000318,"midi":46,"time":33.3620445,"velocity":0.1968503937007874},{"duration":0.12931025000000318,"midi":40,"time":33.620665,"velocity":0.14960629921259844},{"duration":0.12931025000000318,"midi":38,"time":33.620665,"velocity":0.2440944881889764},{"duration":0.12931025000000318,"midi":36,"time":33.620665,"velocity":0.2677165354330709},{"duration":0.12931025000000318,"midi":46,"time":33.8792855,"velocity":0.1968503937007874},{"duration":0.12931025000000318,"midi":36,"time":34.137906,"velocity":0.2677165354330709},{"duration":0.12931024999999607,"midi":46,"time":34.39652650000001,"velocity":0.1968503937007874},{"duration":0.12931024999999607,"midi":40,"time":34.65514700000001,"velocity":0.14960629921259844},{"duration":0.12931024999999607,"midi":38,"time":34.65514700000001,"velocity":0.2440944881889764},{"duration":0.12931024999999607,"midi":36,"time":34.65514700000001,"velocity":0.2677165354330709},{"duration":0.12931024999999607,"midi":46,"time":34.913767500000006,"velocity":0.1968503937007874},{"duration":0.12931024999999607,"midi":36,"time":35.172388000000005,"velocity":0.2677165354330709},{"duration":0.12931025000000318,"midi":46,"time":35.431008500000004,"velocity":0.1968503937007874},{"duration":0.12931025000000318,"midi":40,"time":35.689629000000004,"velocity":0.14960629921259844},{"duration":0.12931025000000318,"midi":38,"time":35.689629000000004,"velocity":0.2440944881889764},{"duration":0.12931025000000318,"midi":36,"time":35.689629000000004,"velocity":0.2677165354330709},{"duration":0.12931025000000318,"midi":46,"time":35.9482495,"velocity":0.1968503937007874},{"duration":0.12931025000000318,"midi":36,"time":36.20687,"velocity":0.2677165354330709},{"duration":0.12931025000000318,"midi":46,"time":36.4654905,"velocity":0.1968503937007874},{"duration":0.12931024999999607,"midi":36,"time":36.72411100000001,"velocity":0.2677165354330709},{"duration":0.12931024999999607,"midi":38,"time":36.72411100000001,"velocity":0.2440944881889764},{"duration":0.12931024999999607,"midi":40,"time":36.72411100000001,"velocity":0.14960629921259844},{"duration":0.12931024999999607,"midi":46,"time":36.98273150000001,"velocity":0.1968503937007874},{"duration":0.12931024999999607,"midi":36,"time":37.241352000000006,"velocity":0.2677165354330709},{"duration":0.12931024999999607,"midi":46,"time":37.499972500000005,"velocity":0.1968503937007874},{"duration":0.12931025000000318,"midi":40,"time":37.758593000000005,"velocity":0.14960629921259844},{"duration":0.12931025000000318,"midi":38,"time":37.758593000000005,"velocity":0.2440944881889764},{"duration":0.12931025000000318,"midi":36,"time":37.758593000000005,"velocity":0.2677165354330709},{"duration":0.12931025000000318,"midi":46,"time":38.017213500000004,"velocity":0.1968503937007874},{"duration":0.12931025000000318,"midi":36,"time":38.275834,"velocity":0.2677165354330709},{"duration":0.12931025000000318,"midi":46,"time":38.5344545,"velocity":0.1968503937007874},{"duration":0.12931025000000318,"midi":36,"time":38.793075,"velocity":0.2677165354330709},{"duration":0.12931025000000318,"midi":38,"time":38.793075,"velocity":0.2440944881889764},{"duration":0.12931025000000318,"midi":40,"time":38.793075,"velocity":0.14960629921259844},{"duration":0.12931024999999607,"midi":46,"time":39.05169550000001,"velocity":0.1968503937007874},{"duration":0.12931024999999607,"midi":36,"time":39.31031600000001,"velocity":0.2677165354330709},{"duration":0.12931024999999607,"midi":46,"time":39.56893650000001,"velocity":0.1968503937007874},{"duration":0.12931024999999607,"midi":38,"time":39.827557000000006,"velocity":0.2440944881889764},{"duration":0.12931024999999607,"midi":40,"time":39.827557000000006,"velocity":0.14960629921259844},{"duration":0.12931024999999607,"midi":36,"time":39.827557000000006,"velocity":0.2677165354330709},{"duration":0.12931025000000318,"midi":46,"time":40.086177500000005,"velocity":0.1968503937007874},{"duration":0.12931025000000318,"midi":36,"time":40.344798000000004,"velocity":0.2677165354330709},{"duration":0.12931025000000318,"midi":46,"time":40.603418500000004,"velocity":0.1968503937007874},{"duration":0.12931025000000318,"midi":40,"time":40.862039,"velocity":0.14960629921259844},{"duration":0.12931025000000318,"midi":36,"time":40.862039,"velocity":0.2677165354330709},{"duration":0.12931025000000318,"midi":38,"time":40.862039,"velocity":0.2440944881889764},{"duration":0.12931025000000318,"midi":46,"time":41.1206595,"velocity":0.1968503937007874},{"duration":0.12931024999999607,"midi":36,"time":41.37928000000001,"velocity":0.2677165354330709},{"duration":0.12931024999999607,"midi":46,"time":41.63790050000001,"velocity":0.1968503937007874},{"duration":0.12931024999999607,"midi":38,"time":41.89652100000001,"velocity":0.2440944881889764},{"duration":0.12931024999999607,"midi":40,"time":41.89652100000001,"velocity":0.14960629921259844},{"duration":0.12931024999999607,"midi":36,"time":41.89652100000001,"velocity":0.2677165354330709},{"duration":0.12931024999999607,"midi":46,"time":42.155141500000006,"velocity":0.1968503937007874},{"duration":0.12931024999999607,"midi":36,"time":42.413762000000006,"velocity":0.2677165354330709},{"duration":0.12931025000000318,"midi":46,"time":42.672382500000005,"velocity":0.1968503937007874},{"duration":0.12931025000000318,"midi":36,"time":42.931003000000004,"velocity":0.2677165354330709},{"duration":0.12931025000000318,"midi":38,"time":42.931003000000004,"velocity":0.2440944881889764},{"duration":0.12931025000000318,"midi":40,"time":42.931003000000004,"velocity":0.14960629921259844},{"duration":0.12931025000000318,"midi":46,"time":43.1896235,"velocity":0.1968503937007874},{"duration":0.12931025000000318,"midi":36,"time":43.448244,"velocity":0.2677165354330709},{"duration":0.12931025000000318,"midi":46,"time":43.7068645,"velocity":0.1968503937007874},{"duration":0.12931024999999607,"midi":40,"time":43.96548500000001,"velocity":0.14960629921259844},{"duration":0.12931024999999607,"midi":38,"time":43.96548500000001,"velocity":0.2440944881889764},{"duration":0.12931024999999607,"midi":36,"time":43.96548500000001,"velocity":0.2677165354330709},{"duration":0.12931024999999607,"midi":46,"time":44.22410550000001,"velocity":0.1968503937007874},{"duration":0.12931024999999607,"midi":36,"time":44.48272600000001,"velocity":0.2677165354330709},{"duration":0.12931024999999607,"midi":46,"time":44.741346500000006,"velocity":0.1968503937007874},{"duration":0.12931025000000318,"midi":36,"time":44.999967000000005,"velocity":0.2677165354330709},{"duration":0.12931025000000318,"midi":38,"time":44.999967000000005,"velocity":0.2440944881889764},{"duration":0.12931025000000318,"midi":40,"time":44.999967000000005,"velocity":0.14960629921259844},{"duration":0.12931025000000318,"midi":46,"time":45.258587500000004,"velocity":0.1968503937007874},{"duration":0.12931025000000318,"midi":36,"time":45.517208000000004,"velocity":0.2677165354330709},{"duration":0.12931025000000318,"midi":46,"time":45.7758285,"velocity":0.1968503937007874},{"duration":0.12931025000000318,"midi":40,"time":46.034449,"velocity":0.14960629921259844},{"duration":0.12931025000000318,"midi":36,"time":46.034449,"velocity":0.2677165354330709},{"duration":0.12931025000000318,"midi":38,"time":46.034449,"velocity":0.2440944881889764},{"duration":0.12931024999999607,"midi":46,"time":46.29306950000001,"velocity":0.1968503937007874},{"duration":0.12931024999999607,"midi":36,"time":46.55169000000001,"velocity":0.2677165354330709},{"duration":0.12931024999999607,"midi":46,"time":46.81031050000001,"velocity":0.1968503937007874},{"duration":0.12931024999999607,"midi":36,"time":47.068931000000006,"velocity":0.2677165354330709},{"duration":0.12931024999999607,"midi":38,"time":47.068931000000006,"velocity":0.2440944881889764},{"duration":0.12931024999999607,"midi":40,"time":47.068931000000006,"velocity":0.14960629921259844},{"duration":0.12931025000000318,"midi":46,"time":47.327551500000006,"velocity":0.1968503937007874},{"duration":0.12931025000000318,"midi":36,"time":47.586172000000005,"velocity":0.2677165354330709},{"duration":0.12931025000000318,"midi":46,"time":47.844792500000004,"velocity":0.1968503937007874},{"duration":0.12931025000000318,"midi":40,"time":48.103413,"velocity":0.14960629921259844},{"duration":0.12931025000000318,"midi":36,"time":48.103413,"velocity":0.2677165354330709},{"duration":0.12931025000000318,"midi":38,"time":48.103413,"velocity":0.2440944881889764},{"duration":0.12931025000000318,"midi":46,"time":48.3620335,"velocity":0.1968503937007874},{"duration":0.12931024999999607,"midi":36,"time":48.62065400000001,"velocity":0.2677165354330709},{"duration":0.12931024999999607,"midi":46,"time":48.87927450000001,"velocity":0.1968503937007874},{"duration":0.12931024999999607,"midi":40,"time":49.13789500000001,"velocity":0.14960629921259844},{"duration":0.12931024999999607,"midi":36,"time":49.13789500000001,"velocity":0.2677165354330709},{"duration":0.12931024999999607,"midi":38,"time":49.13789500000001,"velocity":0.2440944881889764},{"duration":0.12931024999999607,"midi":46,"time":49.39651550000001,"velocity":0.1968503937007874},{"duration":0.12931025000000318,"midi":36,"time":49.655136000000006,"velocity":0.2677165354330709},{"duration":0.12931025000000318,"midi":46,"time":49.913756500000005,"velocity":0.1968503937007874},{"duration":0.12931025000000318,"midi":36,"time":50.172377000000004,"velocity":0.2677165354330709},{"duration":0.12931025000000318,"midi":38,"time":50.172377000000004,"velocity":0.2440944881889764},{"duration":0.12931025000000318,"midi":40,"time":50.172377000000004,"velocity":0.14960629921259844},{"duration":0.12931025000000318,"midi":46,"time":50.430997500000004,"velocity":0.1968503937007874},{"duration":0.12931025000000318,"midi":36,"time":50.689618,"velocity":0.2677165354330709},{"duration":0.12931024999999607,"midi":46,"time":50.94823850000001,"velocity":0.1968503937007874},{"duration":0.12931024999999607,"midi":36,"time":51.20685900000001,"velocity":0.2677165354330709},{"duration":0.12931024999999607,"midi":38,"time":51.20685900000001,"velocity":0.2440944881889764},{"duration":0.12931024999999607,"midi":40,"time":51.20685900000001,"velocity":0.14960629921259844},{"duration":0.12931024999999607,"midi":46,"time":51.46547950000001,"velocity":0.1968503937007874},{"duration":0.12931024999999607,"midi":36,"time":51.72410000000001,"velocity":0.2677165354330709},{"duration":0.12931025000000318,"midi":46,"time":51.982720500000006,"velocity":0.1968503937007874},{"duration":0.12931025000000318,"midi":36,"time":52.241341000000006,"velocity":0.2677165354330709},{"duration":0.12931025000000318,"midi":38,"time":52.241341000000006,"velocity":0.2440944881889764},{"duration":0.12931025000000318,"midi":40,"time":52.241341000000006,"velocity":0.14960629921259844},{"duration":0.12931025000000318,"midi":46,"time":52.499961500000005,"velocity":0.1968503937007874},{"duration":0.12931025000000318,"midi":36,"time":52.758582000000004,"velocity":0.2677165354330709},{"duration":0.12931025000000318,"midi":46,"time":53.0172025,"velocity":0.1968503937007874},{"duration":0.12931024999999607,"midi":36,"time":53.27582300000001,"velocity":0.2677165354330709},{"duration":0.12931024999999607,"midi":38,"time":53.27582300000001,"velocity":0.2440944881889764},{"duration":0.12931024999999607,"midi":40,"time":53.27582300000001,"velocity":0.14960629921259844},{"duration":0.12931024999999607,"midi":46,"time":53.53444350000001,"velocity":0.1968503937007874},{"duration":0.12931024999999607,"midi":36,"time":53.79306400000001,"velocity":0.2677165354330709},{"duration":0.12931024999999607,"midi":46,"time":54.05168450000001,"velocity":0.1968503937007874},{"duration":0.12931025000000318,"midi":36,"time":54.31030500000001,"velocity":0.2677165354330709},{"duration":0.12931025000000318,"midi":38,"time":54.31030500000001,"velocity":0.2440944881889764},{"duration":0.12931025000000318,"midi":40,"time":54.31030500000001,"velocity":0.14960629921259844},{"duration":0.12931025000000318,"midi":46,"time":54.568925500000006,"velocity":0.1968503937007874},{"duration":0.12931025000000318,"midi":36,"time":54.827546000000005,"velocity":0.2677165354330709},{"duration":0.12931025000000318,"midi":46,"time":55.086166500000004,"velocity":0.1968503937007874},{"duration":0.12931025000000318,"midi":36,"time":55.344787000000004,"velocity":0.2677165354330709},{"duration":0.12931025000000318,"midi":38,"time":55.344787000000004,"velocity":0.2440944881889764},{"duration":0.12931025000000318,"midi":40,"time":55.344787000000004,"velocity":0.14960629921259844},{"duration":0.12931024999999607,"midi":46,"time":55.60340750000001,"velocity":0.1968503937007874},{"duration":0.12931024999999607,"midi":36,"time":55.86202800000001,"velocity":0.2677165354330709},{"duration":0.12931024999999607,"midi":46,"time":56.12064850000001,"velocity":0.1968503937007874},{"duration":0.12931024999999607,"midi":36,"time":56.37926900000001,"velocity":0.2677165354330709},{"duration":0.12931024999999607,"midi":38,"time":56.37926900000001,"velocity":0.2440944881889764},{"duration":0.12931024999999607,"midi":40,"time":56.37926900000001,"velocity":0.14960629921259844},{"duration":0.12931025000000318,"midi":46,"time":56.63788950000001,"velocity":0.1968503937007874},{"duration":0.12931025000000318,"midi":36,"time":56.896510000000006,"velocity":0.2677165354330709},{"duration":0.12931025000000318,"midi":46,"time":57.155130500000006,"velocity":0.1968503937007874},{"duration":0.12931025000000318,"midi":36,"time":57.413751000000005,"velocity":0.2677165354330709},{"duration":0.12931025000000318,"midi":38,"time":57.413751000000005,"velocity":0.2440944881889764},{"duration":0.12931025000000318,"midi":40,"time":57.413751000000005,"velocity":0.14960629921259844},{"duration":0.12931025000000318,"midi":46,"time":57.672371500000004,"velocity":0.1968503937007874},{"duration":0.12931025000000318,"midi":36,"time":57.930992,"velocity":0.2677165354330709},{"duration":0.12931024999999607,"midi":46,"time":58.18961250000001,"velocity":0.1968503937007874},{"duration":0.12931024999999607,"midi":36,"time":58.44823300000001,"velocity":0.2677165354330709},{"duration":0.12931024999999607,"midi":38,"time":58.44823300000001,"velocity":0.2440944881889764},{"duration":0.12931024999999607,"midi":40,"time":58.44823300000001,"velocity":0.14960629921259844},{"duration":0.12931024999999607,"midi":46,"time":58.70685350000001,"velocity":0.1968503937007874},{"duration":0.12931024999999607,"midi":36,"time":58.96547400000001,"velocity":0.2677165354330709},{"duration":0.12931025000000318,"midi":46,"time":59.22409450000001,"velocity":0.1968503937007874},{"duration":0.12931025000000318,"midi":36,"time":59.482715000000006,"velocity":0.2677165354330709},{"duration":0.12931025000000318,"midi":38,"time":59.482715000000006,"velocity":0.2440944881889764},{"duration":0.12931025000000318,"midi":40,"time":59.482715000000006,"velocity":0.14960629921259844},{"duration":0.12931025000000318,"midi":46,"time":59.741335500000005,"velocity":0.1968503937007874},{"duration":0.12931025000000318,"midi":36,"time":59.999956000000005,"velocity":0.2677165354330709},{"duration":0.12931025000000318,"midi":46,"time":60.258576500000004,"velocity":0.1968503937007874},{"duration":0.12931024999999607,"midi":36,"time":60.51719700000001,"velocity":0.2677165354330709},{"duration":0.12931024999999607,"midi":38,"time":60.51719700000001,"velocity":0.2440944881889764},{"duration":0.12931024999999607,"midi":40,"time":60.51719700000001,"velocity":0.14960629921259844},{"duration":0.12931024999999607,"midi":46,"time":60.77581750000001,"velocity":0.1968503937007874},{"duration":0.12931024999999607,"midi":36,"time":61.03443800000001,"velocity":0.2677165354330709},{"duration":0.12931024999999607,"midi":46,"time":61.29305850000001,"velocity":0.1968503937007874},{"duration":0.12931025000000318,"midi":36,"time":61.55167900000001,"velocity":0.2677165354330709},{"duration":0.12931025000000318,"midi":38,"time":61.55167900000001,"velocity":0.2440944881889764},{"duration":0.12931025000000318,"midi":40,"time":61.55167900000001,"velocity":0.14960629921259844},{"duration":0.12931025000000318,"midi":46,"time":61.810299500000006,"velocity":0.1968503937007874},{"duration":0.12931025000000318,"midi":36,"time":62.068920000000006,"velocity":0.2677165354330709},{"duration":0.12931025000000318,"midi":46,"time":62.327540500000005,"velocity":0.1968503937007874},{"duration":0.12931025000000318,"midi":36,"time":62.586161000000004,"velocity":0.2677165354330709},{"duration":0.12931025000000318,"midi":38,"time":62.586161000000004,"velocity":0.2440944881889764},{"duration":0.12931025000000318,"midi":40,"time":62.586161000000004,"velocity":0.14960629921259844},{"duration":0.12931024999999607,"midi":46,"time":62.84478150000001,"velocity":0.1968503937007874},{"duration":0.12931024999999607,"midi":36,"time":63.10340200000001,"velocity":0.2677165354330709},{"duration":0.12931024999999607,"midi":46,"time":63.36202250000001,"velocity":0.1968503937007874},{"duration":0.12931024999999607,"midi":36,"time":63.62064300000001,"velocity":0.2677165354330709},{"duration":0.12931024999999607,"midi":38,"time":63.62064300000001,"velocity":0.2440944881889764},{"duration":0.12931024999999607,"midi":40,"time":63.62064300000001,"velocity":0.14960629921259844},{"duration":0.12931025000000318,"midi":46,"time":63.87926350000001,"velocity":0.1968503937007874},{"duration":0.12931024999998897,"midi":36,"time":64.13788400000001,"velocity":0.2677165354330709},{"duration":0.12931025000000318,"midi":46,"time":64.3965045,"velocity":0.1968503937007874},{"duration":0.12931024999998897,"midi":36,"time":64.65512500000001,"velocity":0.2677165354330709},{"duration":0.12931024999998897,"midi":38,"time":64.65512500000001,"velocity":0.2440944881889764},{"duration":0.12931024999998897,"midi":40,"time":64.65512500000001,"velocity":0.14960629921259844},{"duration":0.12931025000000318,"midi":46,"time":64.9137455,"velocity":0.1968503937007874},{"duration":0.12931025000000318,"midi":36,"time":65.17236600000001,"velocity":0.2677165354330709},{"duration":0.12931025000000318,"midi":46,"time":65.4309865,"velocity":0.1968503937007874},{"duration":0.12931025000000318,"midi":36,"time":65.68960700000001,"velocity":0.2677165354330709},{"duration":0.12931025000000318,"midi":38,"time":65.68960700000001,"velocity":0.2440944881889764},{"duration":0.12931025000000318,"midi":40,"time":65.68960700000001,"velocity":0.14960629921259844},{"duration":0.12931025000000318,"midi":46,"time":65.9482275,"velocity":0.1968503937007874},{"duration":0.12931025000000318,"midi":36,"time":66.20684800000001,"velocity":0.2677165354330709},{"duration":0.12931024999998897,"midi":46,"time":66.46546850000001,"velocity":0.1968503937007874},{"duration":0.12931025000000318,"midi":40,"time":66.724089,"velocity":0.14960629921259844},{"duration":0.12931025000000318,"midi":38,"time":66.724089,"velocity":0.2440944881889764},{"duration":0.12931025000000318,"midi":36,"time":66.724089,"velocity":0.2677165354330709},{"duration":0.12931024999998897,"midi":46,"time":66.98270950000001,"velocity":0.1968503937007874},{"duration":0.12931025000000318,"midi":36,"time":67.24133,"velocity":0.2677165354330709},{"duration":0.12931025000000318,"midi":46,"time":67.49995050000001,"velocity":0.1968503937007874},{"duration":0.12931025000000318,"midi":40,"time":67.758571,"velocity":0.14960629921259844},{"duration":0.12931025000000318,"midi":38,"time":67.758571,"velocity":0.2440944881889764},{"duration":0.12931025000000318,"midi":36,"time":67.758571,"velocity":0.2677165354330709},{"duration":0.12931025000000318,"midi":46,"time":68.01719150000001,"velocity":0.1968503937007874},{"duration":0.12931025000000318,"midi":36,"time":68.275812,"velocity":0.2677165354330709},{"duration":0.12931025000000318,"midi":46,"time":68.53443250000001,"velocity":0.1968503937007874},{"duration":0.12931024999998897,"midi":40,"time":68.79305300000001,"velocity":0.14960629921259844},{"duration":0.12931024999998897,"midi":38,"time":68.79305300000001,"velocity":0.2440944881889764},{"duration":0.12931024999998897,"midi":36,"time":68.79305300000001,"velocity":0.2677165354330709},{"duration":0.12931025000000318,"midi":46,"time":69.0516735,"velocity":0.1968503937007874},{"duration":0.12931024999998897,"midi":36,"time":69.31029400000001,"velocity":0.2677165354330709},{"duration":0.12931025000000318,"midi":46,"time":69.5689145,"velocity":0.1968503937007874},{"duration":0.12931025000000318,"midi":40,"time":69.82753500000001,"velocity":0.14960629921259844},{"duration":0.12931025000000318,"midi":38,"time":69.82753500000001,"velocity":0.2440944881889764},{"duration":0.12931025000000318,"midi":36,"time":69.82753500000001,"velocity":0.2677165354330709},{"duration":0.12931025000000318,"midi":46,"time":70.0861555,"velocity":0.1968503937007874},{"duration":0.12931025000000318,"midi":36,"time":70.34477600000001,"velocity":0.2677165354330709},{"duration":0.12931025000000318,"midi":46,"time":70.6033965,"velocity":0.1968503937007874},{"duration":0.12931025000000318,"midi":40,"time":70.86201700000001,"velocity":0.14960629921259844},{"duration":0.12931025000000318,"midi":38,"time":70.86201700000001,"velocity":0.2440944881889764},{"duration":0.12931025000000318,"midi":36,"time":70.86201700000001,"velocity":0.2677165354330709},{"duration":0.12931024999998897,"midi":46,"time":71.12063750000002,"velocity":0.1968503937007874},{"duration":0.12931025000000318,"midi":36,"time":71.37925800000001,"velocity":0.2677165354330709},{"duration":0.12931024999998897,"midi":46,"time":71.63787850000001,"velocity":0.1968503937007874},{"duration":0.12931025000000318,"midi":40,"time":71.896499,"velocity":0.14960629921259844},{"duration":0.12931025000000318,"midi":38,"time":71.896499,"velocity":0.2440944881889764},{"duration":0.12931025000000318,"midi":36,"time":71.896499,"velocity":0.2677165354330709},{"duration":0.12931025000000318,"midi":46,"time":72.15511950000001,"velocity":0.1968503937007874},{"duration":0.12931025000000318,"midi":36,"time":72.41374,"velocity":0.2677165354330709},{"duration":0.12931025000000318,"midi":46,"time":72.67236050000001,"velocity":0.1968503937007874},{"duration":0.12931025000000318,"midi":40,"time":72.930981,"velocity":0.14960629921259844},{"duration":0.12931025000000318,"midi":38,"time":72.930981,"velocity":0.2440944881889764},{"duration":0.12931025000000318,"midi":36,"time":72.930981,"velocity":0.2677165354330709},{"duration":0.12931025000000318,"midi":46,"time":73.18960150000001,"velocity":0.1968503937007874},{"duration":0.12931024999998897,"midi":36,"time":73.44822200000002,"velocity":0.2677165354330709},{"duration":0.12931025000000318,"midi":46,"time":73.70684250000001,"velocity":0.1968503937007874},{"duration":0.12931024999998897,"midi":40,"time":73.96546300000001,"velocity":0.14960629921259844},{"duration":0.12931024999998897,"midi":38,"time":73.96546300000001,"velocity":0.2440944881889764},{"duration":0.12931024999998897,"midi":36,"time":73.96546300000001,"velocity":0.2677165354330709},{"duration":0.12931025000000318,"midi":46,"time":74.2240835,"velocity":0.1968503937007874},{"duration":0.12931025000000318,"midi":36,"time":74.48270400000001,"velocity":0.2677165354330709},{"duration":0.12931025000000318,"midi":46,"time":74.7413245,"velocity":0.1968503937007874},{"duration":0.12931025000000318,"midi":40,"time":74.99994500000001,"velocity":0.14960629921259844},{"duration":0.12931025000000318,"midi":38,"time":74.99994500000001,"velocity":0.2440944881889764},{"duration":0.12931025000000318,"midi":36,"time":74.99994500000001,"velocity":0.2677165354330709},{"duration":0.12931025000000318,"midi":46,"time":75.2585655,"velocity":0.1968503937007874},{"duration":0.12931025000000318,"midi":36,"time":75.51718600000001,"velocity":0.2677165354330709},{"duration":0.12931024999998897,"midi":46,"time":75.77580650000002,"velocity":0.1968503937007874},{"duration":0.12931025000000318,"midi":40,"time":76.03442700000001,"velocity":0.14960629921259844},{"duration":0.12931025000000318,"midi":38,"time":76.03442700000001,"velocity":0.2440944881889764},{"duration":0.12931025000000318,"midi":36,"time":76.03442700000001,"velocity":0.2677165354330709},{"duration":0.12931024999998897,"midi":46,"time":76.29304750000001,"velocity":0.1968503937007874},{"duration":0.12931025000000318,"midi":36,"time":76.551668,"velocity":0.2677165354330709},{"duration":0.12931025000000318,"midi":46,"time":76.81028850000001,"velocity":0.1968503937007874},{"duration":0.12931025000000318,"midi":40,"time":77.068909,"velocity":0.14960629921259844},{"duration":0.12931025000000318,"midi":38,"time":77.068909,"velocity":0.2440944881889764},{"duration":0.12931025000000318,"midi":36,"time":77.068909,"velocity":0.2677165354330709},{"duration":0.12931025000000318,"midi":46,"time":77.32752950000001,"velocity":0.1968503937007874},{"duration":0.12931025000000318,"midi":36,"time":77.58615,"velocity":0.2677165354330709},{"duration":0.12931025000000318,"midi":46,"time":77.84477050000001,"velocity":0.1968503937007874},{"duration":0.12931024999998897,"midi":40,"time":78.10339100000002,"velocity":0.14960629921259844},{"duration":0.12931024999998897,"midi":38,"time":78.10339100000002,"velocity":0.2440944881889764},{"duration":0.12931024999998897,"midi":36,"time":78.10339100000002,"velocity":0.2677165354330709},{"duration":0.12931025000000318,"midi":46,"time":78.36201150000001,"velocity":0.1968503937007874},{"duration":0.12931024999998897,"midi":36,"time":78.62063200000001,"velocity":0.2677165354330709},{"duration":0.12931025000000318,"midi":46,"time":78.8792525,"velocity":0.1968503937007874},{"duration":0.12931025000000318,"midi":40,"time":79.13787300000001,"velocity":0.14960629921259844},{"duration":0.12931025000000318,"midi":38,"time":79.13787300000001,"velocity":0.2440944881889764},{"duration":0.12931025000000318,"midi":36,"time":79.13787300000001,"velocity":0.2677165354330709},{"duration":0.12931025000000318,"midi":46,"time":79.3964935,"velocity":0.1968503937007874},{"duration":0.12931025000000318,"midi":36,"time":79.65511400000001,"velocity":0.2677165354330709},{"duration":0.12931025000000318,"midi":46,"time":79.9137345,"velocity":0.1968503937007874},{"duration":0.12931025000000318,"midi":40,"time":80.17235500000001,"velocity":0.14960629921259844},{"duration":0.12931025000000318,"midi":38,"time":80.17235500000001,"velocity":0.2440944881889764},{"duration":0.12931025000000318,"midi":36,"time":80.17235500000001,"velocity":0.2677165354330709},{"duration":0.12931024999998897,"midi":46,"time":80.43097550000002,"velocity":0.1968503937007874},{"duration":0.12931025000000318,"midi":36,"time":80.68959600000001,"velocity":0.2677165354330709},{"duration":0.12931024999998897,"midi":46,"time":80.94821650000002,"velocity":0.1968503937007874},{"duration":0.12931025000000318,"midi":40,"time":81.20683700000001,"velocity":0.14960629921259844},{"duration":0.12931025000000318,"midi":38,"time":81.20683700000001,"velocity":0.2440944881889764},{"duration":0.12931025000000318,"midi":36,"time":81.20683700000001,"velocity":0.2677165354330709},{"duration":0.12931025000000318,"midi":46,"time":81.46545750000001,"velocity":0.1968503937007874},{"duration":0.12931025000000318,"midi":36,"time":81.724078,"velocity":0.2677165354330709},{"duration":0.12931025000000318,"midi":46,"time":81.98269850000001,"velocity":0.1968503937007874},{"duration":0.12931025000000318,"midi":38,"time":82.241319,"velocity":0.2440944881889764},{"duration":0.12931025000000318,"midi":36,"time":82.241319,"velocity":0.2677165354330709},{"duration":0.12931025000000318,"midi":40,"time":82.241319,"velocity":0.14960629921259844},{"duration":0.12931025000000318,"midi":46,"time":82.49993950000001,"velocity":0.1968503937007874},{"duration":0.12931024999998897,"midi":36,"time":82.75856000000002,"velocity":0.2677165354330709},{"duration":0.12931025000000318,"midi":46,"time":83.01718050000001,"velocity":0.1968503937007874},{"duration":0.12931024999998897,"midi":38,"time":83.27580100000002,"velocity":0.2440944881889764},{"duration":0.12931024999998897,"midi":36,"time":83.27580100000002,"velocity":0.2677165354330709},{"duration":0.12931024999998897,"midi":40,"time":83.27580100000002,"velocity":0.14960629921259844},{"duration":0.12931025000000318,"midi":46,"time":83.53442150000001,"velocity":0.1968503937007874},{"duration":0.12931024999998897,"midi":36,"time":83.79304200000001,"velocity":0.2677165354330709},{"duration":0.12931025000000318,"midi":46,"time":84.0516625,"velocity":0.1968503937007874},{"duration":0.12931025000000318,"midi":38,"time":84.31028300000001,"velocity":0.2440944881889764},{"duration":0.12931025000000318,"midi":36,"time":84.31028300000001,"velocity":0.2677165354330709},{"duration":0.12931025000000318,"midi":40,"time":84.31028300000001,"velocity":0.14960629921259844},{"duration":0.12931025000000318,"midi":46,"time":84.5689035,"velocity":0.1968503937007874},{"duration":0.12931025000000318,"midi":36,"time":84.82752400000001,"velocity":0.2677165354330709},{"duration":0.12931025000000318,"midi":46,"time":85.0861445,"velocity":0.1968503937007874},{"duration":0.12931025000000318,"midi":38,"time":85.34476500000001,"velocity":0.2440944881889764},{"duration":0.12931025000000318,"midi":36,"time":85.34476500000001,"velocity":0.2677165354330709},{"duration":0.12931025000000318,"midi":40,"time":85.34476500000001,"velocity":0.14960629921259844},{"duration":0.12931024999998897,"midi":46,"time":85.60338550000002,"velocity":0.1968503937007874},{"duration":0.12931025000000318,"midi":36,"time":85.86200600000001,"velocity":0.2677165354330709},{"duration":0.12931024999998897,"midi":46,"time":86.12062650000001,"velocity":0.1968503937007874},{"duration":0.12931025000000318,"midi":36,"time":86.379247,"velocity":0.2677165354330709},{"duration":0.12931025000000318,"midi":38,"time":86.379247,"velocity":0.2440944881889764},{"duration":0.12931025000000318,"midi":40,"time":86.379247,"velocity":0.14960629921259844},{"duration":0.12931025000000318,"midi":46,"time":86.63786750000001,"velocity":0.1968503937007874},{"duration":0.12931025000000318,"midi":36,"time":86.896488,"velocity":0.2677165354330709},{"duration":0.12931025000000318,"midi":46,"time":87.15510850000001,"velocity":0.1968503937007874},{"duration":0.12931025000000318,"midi":38,"time":87.413729,"velocity":0.2440944881889764},{"duration":0.12931025000000318,"midi":36,"time":87.413729,"velocity":0.2677165354330709},{"duration":0.12931025000000318,"midi":40,"time":87.413729,"velocity":0.14960629921259844},{"duration":0.12931025000000318,"midi":46,"time":87.67234950000001,"velocity":0.1968503937007874},{"duration":0.12931024999998897,"midi":36,"time":87.93097000000002,"velocity":0.2677165354330709},{"duration":0.12931025000000318,"midi":46,"time":88.18959050000001,"velocity":0.1968503937007874},{"duration":0.12931024999998897,"midi":38,"time":88.44821100000001,"velocity":0.2440944881889764},{"duration":0.12931024999998897,"midi":36,"time":88.44821100000001,"velocity":0.2677165354330709},{"duration":0.12931024999998897,"midi":40,"time":88.44821100000001,"velocity":0.14960629921259844},{"duration":0.12931025000000318,"midi":46,"time":88.7068315,"velocity":0.1968503937007874},{"duration":0.12931025000000318,"midi":36,"time":88.96545200000001,"velocity":0.2677165354330709},{"duration":0.12931025000000318,"midi":46,"time":89.2240725,"velocity":0.1968503937007874},{"duration":0.12931025000000318,"midi":36,"time":89.48269300000001,"velocity":0.2677165354330709},{"duration":0.12931025000000318,"midi":38,"time":89.48269300000001,"velocity":0.2440944881889764},{"duration":0.12931025000000318,"midi":40,"time":89.48269300000001,"velocity":0.14960629921259844},{"duration":0.12931025000000318,"midi":46,"time":89.7413135,"velocity":0.1968503937007874},{"duration":0.12931025000000318,"midi":36,"time":89.99993400000001,"velocity":0.2677165354330709},{"duration":0.12931024999998897,"midi":46,"time":90.25855450000002,"velocity":0.1968503937007874},{"duration":0.12931025000000318,"midi":36,"time":90.51717500000001,"velocity":0.2677165354330709},{"duration":0.12931025000000318,"midi":38,"time":90.51717500000001,"velocity":0.2440944881889764},{"duration":0.12931025000000318,"midi":40,"time":90.51717500000001,"velocity":0.14960629921259844},{"duration":0.12931024999998897,"midi":46,"time":90.77579550000002,"velocity":0.1968503937007874},{"duration":0.12931025000000318,"midi":36,"time":91.03441600000001,"velocity":0.2677165354330709},{"duration":0.12931025000000318,"midi":46,"time":91.29303650000001,"velocity":0.1968503937007874},{"duration":0.12931025000000318,"midi":36,"time":91.551657,"velocity":0.2677165354330709},{"duration":0.12931025000000318,"midi":38,"time":91.551657,"velocity":0.2440944881889764},{"duration":0.12931025000000318,"midi":40,"time":91.551657,"velocity":0.14960629921259844},{"duration":0.12931025000000318,"midi":46,"time":91.81027750000001,"velocity":0.1968503937007874},{"duration":0.12931025000000318,"midi":36,"time":92.068898,"velocity":0.2677165354330709},{"duration":0.12931025000000318,"midi":46,"time":92.32751850000001,"velocity":0.1968503937007874},{"duration":0.12931024999998897,"midi":38,"time":92.58613900000002,"velocity":0.2440944881889764},{"duration":0.12931024999998897,"midi":36,"time":92.58613900000002,"velocity":0.2677165354330709},{"duration":0.12931024999998897,"midi":40,"time":92.58613900000002,"velocity":0.14960629921259844},{"duration":0.12931025000000318,"midi":46,"time":92.84475950000001,"velocity":0.1968503937007874},{"duration":0.12931024999998897,"midi":36,"time":93.10338000000002,"velocity":0.2677165354330709},{"duration":0.12931025000000318,"midi":46,"time":93.36200050000001,"velocity":0.1968503937007874},{"duration":0.12931025000000318,"midi":38,"time":93.62062100000001,"velocity":0.2440944881889764},{"duration":0.12931025000000318,"midi":36,"time":93.62062100000001,"velocity":0.2677165354330709},{"duration":0.12931025000000318,"midi":40,"time":93.62062100000001,"velocity":0.14960629921259844},{"duration":0.12931025000000318,"midi":46,"time":93.8792415,"velocity":0.1968503937007874},{"duration":0.12931025000000318,"midi":36,"time":94.13786200000001,"velocity":0.2677165354330709},{"duration":0.12931025000000318,"midi":46,"time":94.3964825,"velocity":0.1968503937007874},{"duration":0.12931025000000318,"midi":36,"time":94.65510300000001,"velocity":0.2677165354330709},{"duration":0.12931025000000318,"midi":38,"time":94.65510300000001,"velocity":0.2440944881889764},{"duration":0.12931025000000318,"midi":40,"time":94.65510300000001,"velocity":0.14960629921259844},{"duration":0.12931024999998897,"midi":46,"time":94.91372350000002,"velocity":0.1968503937007874},{"duration":0.12931025000000318,"midi":36,"time":95.17234400000001,"velocity":0.2677165354330709},{"duration":0.12931024999998897,"midi":46,"time":95.43096450000002,"velocity":0.1968503937007874},{"duration":0.12931025000000318,"midi":40,"time":95.68958500000001,"velocity":0.14960629921259844},{"duration":0.12931025000000318,"midi":38,"time":95.68958500000001,"velocity":0.2440944881889764},{"duration":0.12931025000000318,"midi":36,"time":95.68958500000001,"velocity":0.2677165354330709},{"duration":0.12931025000000318,"midi":46,"time":95.94820550000001,"velocity":0.1968503937007874},{"duration":0.12931025000000318,"midi":36,"time":96.206826,"velocity":0.2677165354330709},{"duration":0.12931025000000318,"midi":46,"time":96.46544650000001,"velocity":0.1968503937007874},{"duration":0.12931025000000318,"midi":38,"time":96.724067,"velocity":0.2440944881889764},{"duration":0.12931025000000318,"midi":36,"time":96.724067,"velocity":0.2677165354330709},{"duration":0.12931025000000318,"midi":40,"time":96.724067,"velocity":0.14960629921259844},{"duration":0.12931025000000318,"midi":46,"time":96.98268750000001,"velocity":0.1968503937007874},{"duration":0.12931024999998897,"midi":36,"time":97.24130800000002,"velocity":0.2677165354330709},{"duration":0.12931025000000318,"midi":46,"time":97.49992850000001,"velocity":0.1968503937007874},{"duration":0.12931024999998897,"midi":36,"time":97.75854900000002,"velocity":0.2677165354330709},{"duration":0.12931024999998897,"midi":38,"time":97.75854900000002,"velocity":0.2440944881889764},{"duration":0.12931024999998897,"midi":40,"time":97.75854900000002,"velocity":0.14960629921259844},{"duration":0.12931025000000318,"midi":46,"time":98.01716950000001,"velocity":0.1968503937007874},{"duration":0.12931025000000318,"midi":36,"time":98.27579000000001,"velocity":0.2677165354330709},{"duration":0.12931025000000318,"midi":46,"time":98.5344105,"velocity":0.1968503937007874},{"duration":0.12931025000000318,"midi":40,"time":98.79303100000001,"velocity":0.14960629921259844},{"duration":0.12931025000000318,"midi":38,"time":98.79303100000001,"velocity":0.2440944881889764},{"duration":0.12931025000000318,"midi":36,"time":98.79303100000001,"velocity":0.2677165354330709},{"duration":0.12931025000000318,"midi":46,"time":99.0516515,"velocity":0.1968503937007874},{"duration":0.12931025000000318,"midi":36,"time":99.31027200000001,"velocity":0.2677165354330709},{"duration":0.12931024999998897,"midi":46,"time":99.56889250000002,"velocity":0.1968503937007874},{"duration":0.12931025000000318,"midi":40,"time":99.82751300000001,"velocity":0.14960629921259844},{"duration":0.12931025000000318,"midi":38,"time":99.82751300000001,"velocity":0.2440944881889764},{"duration":0.12931025000000318,"midi":36,"time":99.82751300000001,"velocity":0.2677165354330709},{"duration":0.12931024999998897,"midi":46,"time":100.08613350000002,"velocity":0.1968503937007874},{"duration":0.12931025000000318,"midi":36,"time":100.34475400000001,"velocity":0.2677165354330709},{"duration":0.12931025000000318,"midi":46,"time":100.60337450000002,"velocity":0.1968503937007874},{"duration":0.12931025000000318,"midi":40,"time":100.86199500000001,"velocity":0.14960629921259844},{"duration":0.12931025000000318,"midi":38,"time":100.86199500000001,"velocity":0.2440944881889764},{"duration":0.12931025000000318,"midi":36,"time":100.86199500000001,"velocity":0.2677165354330709},{"duration":0.12931025000000318,"midi":46,"time":101.12061550000001,"velocity":0.1968503937007874},{"duration":0.12931025000000318,"midi":36,"time":101.379236,"velocity":0.2677165354330709},{"duration":0.12931025000000318,"midi":46,"time":101.63785650000001,"velocity":0.1968503937007874},{"duration":0.12931024999998897,"midi":40,"time":101.89647700000002,"velocity":0.14960629921259844},{"duration":0.12931024999998897,"midi":38,"time":101.89647700000002,"velocity":0.2440944881889764},{"duration":0.12931024999998897,"midi":36,"time":101.89647700000002,"velocity":0.2677165354330709},{"duration":0.12931025000000318,"midi":46,"time":102.15509750000001,"velocity":0.1968503937007874},{"duration":0.12931024999998897,"midi":36,"time":102.41371800000002,"velocity":0.2677165354330709},{"duration":0.12931025000000318,"midi":46,"time":102.67233850000001,"velocity":0.1968503937007874},{"duration":0.12931025000000318,"midi":40,"time":102.93095900000002,"velocity":0.14960629921259844},{"duration":0.12931025000000318,"midi":38,"time":102.93095900000002,"velocity":0.2440944881889764},{"duration":0.12931025000000318,"midi":36,"time":102.93095900000002,"velocity":0.2677165354330709},{"duration":0.12931025000000318,"midi":46,"time":103.18957950000001,"velocity":0.1968503937007874},{"duration":0.12931025000000318,"midi":36,"time":103.44820000000001,"velocity":0.2677165354330709},{"duration":0.12931025000000318,"midi":46,"time":103.7068205,"velocity":0.1968503937007874},{"duration":0.12931025000000318,"midi":40,"time":103.96544100000001,"velocity":0.14960629921259844},{"duration":0.12931025000000318,"midi":38,"time":103.96544100000001,"velocity":0.2440944881889764},{"duration":0.12931025000000318,"midi":36,"time":103.96544100000001,"velocity":0.2677165354330709},{"duration":0.12931024999998897,"midi":46,"time":104.22406150000002,"velocity":0.1968503937007874},{"duration":0.12931025000000318,"midi":36,"time":104.48268200000001,"velocity":0.2677165354330709},{"duration":0.12931024999998897,"midi":46,"time":104.74130250000002,"velocity":0.1968503937007874},{"duration":0.12931025000000318,"midi":40,"time":104.99992300000001,"velocity":0.14960629921259844},{"duration":0.12931025000000318,"midi":38,"time":104.99992300000001,"velocity":0.2440944881889764},{"duration":0.12931025000000318,"midi":36,"time":104.99992300000001,"velocity":0.2677165354330709},{"duration":0.12931025000000318,"midi":46,"time":105.25854350000002,"velocity":0.1968503937007874},{"duration":0.12931025000000318,"midi":36,"time":105.51716400000001,"velocity":0.2677165354330709},{"duration":0.12931025000000318,"midi":46,"time":105.77578450000001,"velocity":0.1968503937007874},{"duration":0.12931025000000318,"midi":38,"time":106.034405,"velocity":0.2440944881889764},{"duration":0.12931025000000318,"midi":40,"time":106.034405,"velocity":0.14960629921259844},{"duration":0.12931025000000318,"midi":36,"time":106.034405,"velocity":0.2677165354330709},{"duration":0.12931025000000318,"midi":46,"time":106.29302550000001,"velocity":0.1968503937007874},{"duration":0.12931024999998897,"midi":36,"time":106.55164600000002,"velocity":0.2677165354330709},{"duration":0.12931025000000318,"midi":46,"time":106.81026650000001,"velocity":0.1968503937007874},{"duration":0.12931024999998897,"midi":38,"time":107.06888700000002,"velocity":0.2440944881889764},{"duration":0.12931024999998897,"midi":40,"time":107.06888700000002,"velocity":0.14960629921259844},{"duration":0.12931024999998897,"midi":36,"time":107.06888700000002,"velocity":0.2677165354330709},{"duration":0.12931025000000318,"midi":46,"time":107.32750750000001,"velocity":0.1968503937007874},{"duration":0.12931025000000318,"midi":36,"time":107.58612800000002,"velocity":0.2677165354330709},{"duration":0.12931025000000318,"midi":46,"time":107.84474850000001,"velocity":0.1968503937007874},{"duration":0.12931025000000318,"midi":38,"time":108.10336900000001,"velocity":0.2440944881889764},{"duration":0.12931025000000318,"midi":40,"time":108.10336900000001,"velocity":0.14960629921259844},{"duration":0.12931025000000318,"midi":36,"time":108.10336900000001,"velocity":0.2677165354330709},{"duration":0.12931025000000318,"midi":46,"time":108.3619895,"velocity":0.1968503937007874},{"duration":0.12931025000000318,"midi":36,"time":108.62061000000001,"velocity":0.2677165354330709},{"duration":0.12931024999998897,"midi":46,"time":108.87923050000002,"velocity":0.1968503937007874},{"duration":0.12931025000000318,"midi":40,"time":109.13785100000001,"velocity":0.14960629921259844},{"duration":0.12931025000000318,"midi":38,"time":109.13785100000001,"velocity":0.2440944881889764},{"duration":0.12931025000000318,"midi":36,"time":109.13785100000001,"velocity":0.2677165354330709},{"duration":0.12931024999998897,"midi":46,"time":109.39647150000002,"velocity":0.1968503937007874},{"duration":0.12931025000000318,"midi":36,"time":109.65509200000001,"velocity":0.2677165354330709},{"duration":0.12931025000000318,"midi":46,"time":109.91371250000002,"velocity":0.1968503937007874},{"duration":0.12931025000000318,"midi":40,"time":110.17233300000001,"velocity":0.14960629921259844},{"duration":0.12931025000000318,"midi":38,"time":110.17233300000001,"velocity":0.2440944881889764},{"duration":0.12931025000000318,"midi":36,"time":110.17233300000001,"velocity":0.2677165354330709},{"duration":0.12931025000000318,"midi":46,"time":110.43095350000002,"velocity":0.1968503937007874},{"duration":0.12931025000000318,"midi":36,"time":110.68957400000001,"velocity":0.2677165354330709},{"duration":0.12931025000000318,"midi":46,"time":110.94819450000001,"velocity":0.1968503937007874},{"duration":0.12931024999998897,"midi":40,"time":111.20681500000002,"velocity":0.14960629921259844},{"duration":0.12931024999998897,"midi":38,"time":111.20681500000002,"velocity":0.2440944881889764},{"duration":0.12931024999998897,"midi":36,"time":111.20681500000002,"velocity":0.2677165354330709},{"duration":0.12931025000000318,"midi":46,"time":111.46543550000001,"velocity":0.1968503937007874},{"duration":0.12931024999998897,"midi":36,"time":111.72405600000002,"velocity":0.2677165354330709},{"duration":0.12931025000000318,"midi":46,"time":111.98267650000001,"velocity":0.1968503937007874},{"duration":0.12931025000000318,"midi":40,"time":112.24129700000002,"velocity":0.14960629921259844},{"duration":0.12931025000000318,"midi":38,"time":112.24129700000002,"velocity":0.2440944881889764},{"duration":0.12931025000000318,"midi":36,"time":112.24129700000002,"velocity":0.2677165354330709},{"duration":0.12931025000000318,"midi":46,"time":112.49991750000001,"velocity":0.1968503937007874},{"duration":0.12931025000000318,"midi":36,"time":112.75853800000002,"velocity":0.2677165354330709},{"duration":0.12931025000000318,"midi":46,"time":113.01715850000001,"velocity":0.1968503937007874},{"duration":0.12931025000000318,"midi":40,"time":113.27577900000001,"velocity":0.14960629921259844},{"duration":0.12931025000000318,"midi":38,"time":113.27577900000001,"velocity":0.2440944881889764},{"duration":0.12931025000000318,"midi":36,"time":113.27577900000001,"velocity":0.2677165354330709},{"duration":0.12931024999998897,"midi":46,"time":113.53439950000002,"velocity":0.1968503937007874},{"duration":0.12931025000000318,"midi":36,"time":113.79302000000001,"velocity":0.2677165354330709},{"duration":0.12931024999998897,"midi":46,"time":114.05164050000002,"velocity":0.1968503937007874},{"duration":0.12931025000000318,"midi":36,"time":114.31026100000001,"velocity":0.2677165354330709},{"duration":0.12931025000000318,"midi":40,"time":114.31026100000001,"velocity":0.14960629921259844},{"duration":0.12931025000000318,"midi":38,"time":114.31026100000001,"velocity":0.2440944881889764},{"duration":0.12931025000000318,"midi":46,"time":114.56888150000002,"velocity":0.1968503937007874},{"duration":0.12931025000000318,"midi":36,"time":114.82750200000001,"velocity":0.2677165354330709},{"duration":0.12931025000000318,"midi":46,"time":115.08612250000002,"velocity":0.1968503937007874},{"duration":0.12931025000000318,"midi":40,"time":115.34474300000001,"velocity":0.14960629921259844},{"duration":0.12931025000000318,"midi":38,"time":115.34474300000001,"velocity":0.2440944881889764},{"duration":0.12931025000000318,"midi":36,"time":115.34474300000001,"velocity":0.2677165354330709},{"duration":0.12931025000000318,"midi":46,"time":115.60336350000001,"velocity":0.1968503937007874},{"duration":0.12931025000000318,"midi":36,"time":115.861984,"velocity":0.2677165354330709},{"duration":0.12931025000000318,"midi":46,"time":116.12060450000001,"velocity":0.1968503937007874},{"duration":0.12931024999998897,"midi":38,"time":116.37922500000002,"velocity":0.2440944881889764},{"duration":0.12931024999998897,"midi":36,"time":116.37922500000002,"velocity":0.2677165354330709},{"duration":0.12931024999998897,"midi":40,"time":116.37922500000002,"velocity":0.14960629921259844},{"duration":0.12931025000000318,"midi":46,"time":116.63784550000001,"velocity":0.1968503937007874},{"duration":0.12931024999998897,"midi":36,"time":116.89646600000002,"velocity":0.2677165354330709},{"duration":0.12931025000000318,"midi":46,"time":117.15508650000001,"velocity":0.1968503937007874},{"duration":0.12931025000000318,"midi":40,"time":117.41370700000002,"velocity":0.14960629921259844},{"duration":0.12931025000000318,"midi":38,"time":117.41370700000002,"velocity":0.2440944881889764},{"duration":0.12931025000000318,"midi":36,"time":117.41370700000002,"velocity":0.2677165354330709},{"duration":0.12931025000000318,"midi":46,"time":117.67232750000001,"velocity":0.1968503937007874},{"duration":0.12931025000000318,"midi":36,"time":117.93094800000001,"velocity":0.2677165354330709},{"duration":0.12931025000000318,"midi":46,"time":118.18956850000001,"velocity":0.1968503937007874},{"duration":0.12931025000000318,"midi":36,"time":118.44818900000001,"velocity":0.2677165354330709},{"duration":0.12931025000000318,"midi":38,"time":118.44818900000001,"velocity":0.2440944881889764},{"duration":0.12931025000000318,"midi":40,"time":118.44818900000001,"velocity":0.14960629921259844},{"duration":0.12931024999998897,"midi":46,"time":118.70680950000002,"velocity":0.1968503937007874},{"duration":0.12931025000000318,"midi":36,"time":118.96543000000001,"velocity":0.2677165354330709},{"duration":0.12931024999998897,"midi":46,"time":119.22405050000002,"velocity":0.1968503937007874},{"duration":0.12931025000000318,"midi":40,"time":119.48267100000001,"velocity":0.14960629921259844},{"duration":0.12931025000000318,"midi":38,"time":119.48267100000001,"velocity":0.2440944881889764},{"duration":0.12931025000000318,"midi":36,"time":119.48267100000001,"velocity":0.2677165354330709},{"duration":0.12931025000000318,"midi":46,"time":119.74129150000002,"velocity":0.1968503937007874},{"duration":0.12931025000000318,"midi":36,"time":119.99991200000001,"velocity":0.2677165354330709},{"duration":0.12931025000000318,"midi":46,"time":120.25853250000002,"velocity":0.1968503937007874},{"duration":0.12931025000000318,"midi":36,"time":120.51715300000001,"velocity":0.2677165354330709},{"duration":0.12931025000000318,"midi":38,"time":120.51715300000001,"velocity":0.2440944881889764},{"duration":0.12931025000000318,"midi":40,"time":120.51715300000001,"velocity":0.14960629921259844},{"duration":0.12931025000000318,"midi":46,"time":120.77577350000001,"velocity":0.1968503937007874},{"duration":0.12931024999998897,"midi":36,"time":121.03439400000002,"velocity":0.2677165354330709},{"duration":0.12931025000000318,"midi":46,"time":121.29301450000001,"velocity":0.1968503937007874},{"duration":0.12931024999998897,"midi":38,"time":121.55163500000002,"velocity":0.2440944881889764},{"duration":0.12931024999998897,"midi":40,"time":121.55163500000002,"velocity":0.14960629921259844},{"duration":0.12931024999998897,"midi":36,"time":121.55163500000002,"velocity":0.2677165354330709},{"duration":0.12931025000000318,"midi":46,"time":121.81025550000001,"velocity":0.1968503937007874},{"duration":0.12931025000000318,"midi":36,"time":122.06887600000002,"velocity":0.2677165354330709},{"duration":0.12931025000000318,"midi":46,"time":122.32749650000001,"velocity":0.1968503937007874},{"duration":0.12931025000000318,"midi":38,"time":122.58611700000002,"velocity":0.2440944881889764},{"duration":0.12931025000000318,"midi":36,"time":122.58611700000002,"velocity":0.2677165354330709},{"duration":0.12931025000000318,"midi":40,"time":122.58611700000002,"velocity":0.14960629921259844},{"duration":0.12931025000000318,"midi":46,"time":122.84473750000001,"velocity":0.1968503937007874},{"duration":0.12931025000000318,"midi":36,"time":123.10335800000001,"velocity":0.2677165354330709},{"duration":0.12931024999998897,"midi":46,"time":123.36197850000002,"velocity":0.1968503937007874},{"duration":0.12931025000000318,"midi":38,"time":123.62059900000001,"velocity":0.2440944881889764},{"duration":0.12931025000000318,"midi":40,"time":123.62059900000001,"velocity":0.14960629921259844},{"duration":0.12931025000000318,"midi":36,"time":123.62059900000001,"velocity":0.2677165354330709},{"duration":0.12931024999998897,"midi":46,"time":123.87921950000002,"velocity":0.1968503937007874},{"duration":0.12931025000000318,"midi":36,"time":124.13784000000001,"velocity":0.2677165354330709},{"duration":0.12931025000000318,"midi":46,"time":124.39646050000002,"velocity":0.1968503937007874},{"duration":0.12931025000000318,"midi":36,"time":124.65508100000001,"velocity":0.2677165354330709},{"duration":0.12931025000000318,"midi":38,"time":124.65508100000001,"velocity":0.2440944881889764},{"duration":0.12931025000000318,"midi":40,"time":124.65508100000001,"velocity":0.14960629921259844},{"duration":0.12931025000000318,"midi":46,"time":124.91370150000002,"velocity":0.1968503937007874},{"duration":0.12931025000000318,"midi":36,"time":125.17232200000001,"velocity":0.2677165354330709},{"duration":0.12931025000000318,"midi":46,"time":125.43094250000001,"velocity":0.1968503937007874},{"duration":0.12931024999998897,"midi":40,"time":125.68956300000002,"velocity":0.14960629921259844},{"duration":0.12931024999998897,"midi":38,"time":125.68956300000002,"velocity":0.2440944881889764},{"duration":0.12931024999998897,"midi":36,"time":125.68956300000002,"velocity":0.2677165354330709},{"duration":0.12931025000000318,"midi":46,"time":125.94818350000001,"velocity":0.1968503937007874},{"duration":0.12931024999998897,"midi":36,"time":126.20680400000002,"velocity":0.2677165354330709},{"duration":0.12931025000000318,"midi":46,"time":126.46542450000001,"velocity":0.1968503937007874},{"duration":0.12931025000000318,"midi":38,"time":126.72404500000002,"velocity":0.2440944881889764},{"duration":0.12931025000000318,"midi":36,"time":126.72404500000002,"velocity":0.2677165354330709},{"duration":0.12931025000000318,"midi":40,"time":126.72404500000002,"velocity":0.14960629921259844},{"duration":0.12931025000000318,"midi":46,"time":126.98266550000001,"velocity":0.1968503937007874},{"duration":0.12931025000000318,"midi":36,"time":127.24128600000002,"velocity":0.2677165354330709},{"duration":0.12931025000000318,"midi":46,"time":127.49990650000001,"velocity":0.1968503937007874},{"duration":0.12931025000000318,"midi":38,"time":127.75852700000002,"velocity":0.2440944881889764},{"duration":0.12931025000000318,"midi":40,"time":127.75852700000002,"velocity":0.14960629921259844},{"duration":0.12931025000000318,"midi":36,"time":127.75852700000002,"velocity":0.2677165354330709},{"duration":0.12931025000000318,"midi":46,"time":128.01714750000002,"velocity":0.1968503937007874},{"duration":0.12931024999997476,"midi":36,"time":128.27576800000003,"velocity":0.2677165354330709},{"duration":0.12931025000000318,"midi":46,"time":128.5343885,"velocity":0.1968503937007874},{"duration":0.12931025000000318,"midi":38,"time":128.793009,"velocity":0.2440944881889764},{"duration":0.12931025000000318,"midi":36,"time":128.793009,"velocity":0.2677165354330709},{"duration":0.12931025000000318,"midi":40,"time":128.793009,"velocity":0.14960629921259844},{"duration":0.12931025000000318,"midi":46,"time":129.05162950000002,"velocity":0.1968503937007874},{"duration":0.12931025000000318,"midi":36,"time":129.31025000000002,"velocity":0.2677165354330709},{"duration":0.12931025000000318,"midi":46,"time":129.5688705,"velocity":0.1968503937007874},{"duration":0.12931025000000318,"midi":38,"time":129.827491,"velocity":0.2440944881889764},{"duration":0.12931025000000318,"midi":40,"time":129.827491,"velocity":0.14960629921259844},{"duration":0.12931025000000318,"midi":36,"time":129.827491,"velocity":0.2677165354330709},{"duration":0.12931025000000318,"midi":46,"time":130.08611150000002,"velocity":0.1968503937007874},{"duration":0.12931025000000318,"midi":36,"time":130.34473200000002,"velocity":0.2677165354330709},{"duration":0.12931024999997476,"midi":46,"time":130.60335250000003,"velocity":0.1968503937007874},{"duration":0.12931025000000318,"midi":38,"time":130.861973,"velocity":0.2440944881889764},{"duration":0.12931025000000318,"midi":36,"time":130.861973,"velocity":0.2677165354330709},{"duration":0.12931025000000318,"midi":40,"time":130.861973,"velocity":0.14960629921259844},{"duration":0.12931025000000318,"midi":46,"time":131.1205935,"velocity":0.1968503937007874},{"duration":0.12931025000000318,"midi":36,"time":131.37921400000002,"velocity":0.2677165354330709},{"duration":0.12931025000000318,"midi":46,"time":131.63783450000003,"velocity":0.1968503937007874},{"duration":0.12931025000000318,"midi":40,"time":131.896455,"velocity":0.14960629921259844},{"duration":0.12931025000000318,"midi":36,"time":131.896455,"velocity":0.2677165354330709},{"duration":0.12931025000000318,"midi":38,"time":131.896455,"velocity":0.2440944881889764},{"duration":0.12931025000000318,"midi":46,"time":132.1550755,"velocity":0.1968503937007874},{"duration":0.12931025000000318,"midi":36,"time":148.96540800000002,"velocity":0.2677165354330709},{"duration":0.12931024999997476,"midi":46,"time":149.22402850000003,"velocity":0.1968503937007874},{"duration":0.12931025000000318,"midi":38,"time":149.482649,"velocity":0.2440944881889764},{"duration":0.12931025000000318,"midi":40,"time":149.482649,"velocity":0.14960629921259844},{"duration":0.12931025000000318,"midi":36,"time":149.482649,"velocity":0.2677165354330709},{"duration":0.12931025000000318,"midi":46,"time":149.74126950000002,"velocity":0.1968503937007874},{"duration":0.12931025000000318,"midi":36,"time":149.99989000000002,"velocity":0.2677165354330709},{"duration":0.12931025000000318,"midi":46,"time":150.25851050000003,"velocity":0.1968503937007874},{"duration":0.12931025000000318,"midi":40,"time":150.517131,"velocity":0.14960629921259844},{"duration":0.12931025000000318,"midi":36,"time":150.517131,"velocity":0.2677165354330709},{"duration":0.12931025000000318,"midi":38,"time":150.517131,"velocity":0.2440944881889764},{"duration":0.12931025000000318,"midi":46,"time":150.7757515,"velocity":0.1968503937007874},{"duration":0.12931025000000318,"midi":36,"time":151.03437200000002,"velocity":0.2677165354330709},{"duration":0.12931025000000318,"midi":46,"time":151.29299250000003,"velocity":0.1968503937007874},{"duration":0.12931024999997476,"midi":40,"time":151.55161300000003,"velocity":0.14960629921259844},{"duration":0.12931024999997476,"midi":36,"time":151.55161300000003,"velocity":0.2677165354330709},{"duration":0.12931024999997476,"midi":38,"time":151.55161300000003,"velocity":0.2440944881889764},{"duration":0.12931025000000318,"midi":46,"time":151.8102335,"velocity":0.1968503937007874},{"duration":0.12931025000000318,"midi":36,"time":152.06885400000002,"velocity":0.2677165354330709},{"duration":0.12931025000000318,"midi":46,"time":152.32747450000002,"velocity":0.1968503937007874},{"duration":0.12931025000000318,"midi":36,"time":152.58609500000003,"velocity":0.2677165354330709},{"duration":0.12931025000000318,"midi":38,"time":152.58609500000003,"velocity":0.2440944881889764},{"duration":0.12931025000000318,"midi":40,"time":152.58609500000003,"velocity":0.14960629921259844},{"duration":0.12931025000000318,"midi":46,"time":152.8447155,"velocity":0.1968503937007874},{"duration":0.12931025000000318,"midi":36,"time":153.103336,"velocity":0.2677165354330709},{"duration":0.12931025000000318,"midi":46,"time":153.36195650000002,"velocity":0.1968503937007874},{"duration":0.12931025000000318,"midi":40,"time":153.62057700000003,"velocity":0.14960629921259844},{"duration":0.12931025000000318,"midi":36,"time":153.62057700000003,"velocity":0.2677165354330709},{"duration":0.12931025000000318,"midi":38,"time":153.62057700000003,"velocity":0.2440944881889764},{"duration":0.12931024999997476,"midi":46,"time":153.87919750000003,"velocity":0.1968503937007874},{"duration":0.12931025000000318,"midi":36,"time":154.137818,"velocity":0.2677165354330709},{"duration":0.12931025000000318,"midi":46,"time":154.39643850000002,"velocity":0.1968503937007874},{"duration":0.12931025000000318,"midi":36,"time":154.65505900000002,"velocity":0.2677165354330709},{"duration":0.12931025000000318,"midi":38,"time":154.65505900000002,"velocity":0.2440944881889764},{"duration":0.12931025000000318,"midi":40,"time":154.65505900000002,"velocity":0.14960629921259844},{"duration":0.12931025000000318,"midi":46,"time":154.91367950000003,"velocity":0.1968503937007874},{"duration":0.12931025000000318,"midi":36,"time":155.1723,"velocity":0.2677165354330709},{"duration":0.12931025000000318,"midi":46,"time":155.4309205,"velocity":0.1968503937007874},{"duration":0.12931025000000318,"midi":36,"time":155.68954100000002,"velocity":0.2677165354330709},{"duration":0.12931025000000318,"midi":40,"time":155.68954100000002,"velocity":0.14960629921259844},{"duration":0.12931025000000318,"midi":38,"time":155.68954100000002,"velocity":0.2440944881889764},{"duration":0.12931025000000318,"midi":46,"time":155.94816150000003,"velocity":0.1968503937007874},{"duration":0.12931024999997476,"midi":36,"time":156.20678200000003,"velocity":0.2677165354330709},{"duration":0.12931025000000318,"midi":46,"time":156.4654025,"velocity":0.1968503937007874},{"duration":0.12931025000000318,"midi":36,"time":156.72402300000002,"velocity":0.2677165354330709},{"duration":0.12931025000000318,"midi":38,"time":156.72402300000002,"velocity":0.2440944881889764},{"duration":0.12931025000000318,"midi":40,"time":156.72402300000002,"velocity":0.14960629921259844},{"duration":0.12931025000000318,"midi":46,"time":156.98264350000002,"velocity":0.1968503937007874},{"duration":0.12931025000000318,"midi":36,"time":157.24126400000003,"velocity":0.2677165354330709},{"duration":0.12931025000000318,"midi":46,"time":157.4998845,"velocity":0.1968503937007874},{"duration":0.12931025000000318,"midi":40,"time":157.758505,"velocity":0.14960629921259844},{"duration":0.12931025000000318,"midi":36,"time":157.758505,"velocity":0.2677165354330709},{"duration":0.12931025000000318,"midi":38,"time":157.758505,"velocity":0.2440944881889764},{"duration":0.12931025000000318,"midi":46,"time":158.01712550000002,"velocity":0.1968503937007874},{"duration":0.12931025000000318,"midi":36,"time":158.27574600000003,"velocity":0.2677165354330709},{"duration":0.12931024999997476,"midi":46,"time":158.53436650000003,"velocity":0.1968503937007874},{"duration":0.12931025000000318,"midi":36,"time":158.792987,"velocity":0.2677165354330709},{"duration":0.12931025000000318,"midi":38,"time":158.792987,"velocity":0.2440944881889764},{"duration":0.12931025000000318,"midi":40,"time":158.792987,"velocity":0.14960629921259844},{"duration":0.12931025000000318,"midi":46,"time":159.05160750000002,"velocity":0.1968503937007874},{"duration":0.12931025000000318,"midi":36,"time":159.31022800000002,"velocity":0.2677165354330709},{"duration":0.12931025000000318,"midi":46,"time":159.56884850000003,"velocity":0.1968503937007874},{"duration":0.12931025000000318,"midi":36,"time":159.827469,"velocity":0.2677165354330709},{"duration":0.12931025000000318,"midi":40,"time":159.827469,"velocity":0.14960629921259844},{"duration":0.12931025000000318,"midi":38,"time":159.827469,"velocity":0.2440944881889764},{"duration":0.12931025000000318,"midi":46,"time":160.0860895,"velocity":0.1968503937007874},{"duration":0.12931025000000318,"midi":36,"time":160.34471000000002,"velocity":0.2677165354330709},{"duration":0.12931025000000318,"midi":46,"time":160.60333050000003,"velocity":0.1968503937007874},{"duration":0.12931024999997476,"midi":36,"time":160.86195100000003,"velocity":0.2677165354330709},{"duration":0.12931024999997476,"midi":38,"time":160.86195100000003,"velocity":0.2440944881889764},{"duration":0.12931024999997476,"midi":40,"time":160.86195100000003,"velocity":0.14960629921259844},{"duration":0.12931025000000318,"midi":46,"time":161.1205715,"velocity":0.1968503937007874},{"duration":0.12931025000000318,"midi":36,"time":161.37919200000002,"velocity":0.2677165354330709},{"duration":0.12931025000000318,"midi":46,"time":161.63781250000002,"velocity":0.1968503937007874},{"duration":0.12931025000000318,"midi":36,"time":161.89643300000003,"velocity":0.2677165354330709},{"duration":0.12931025000000318,"midi":40,"time":161.89643300000003,"velocity":0.14960629921259844},{"duration":0.12931025000000318,"midi":38,"time":161.89643300000003,"velocity":0.2440944881889764},{"duration":0.12931025000000318,"midi":46,"time":162.1550535,"velocity":0.1968503937007874},{"duration":0.12931025000000318,"midi":36,"time":162.41367400000001,"velocity":0.2677165354330709},{"duration":0.12931025000000318,"midi":46,"time":162.67229450000002,"velocity":0.1968503937007874},{"duration":0.12931025000000318,"midi":36,"time":162.93091500000003,"velocity":0.2677165354330709},{"duration":0.12931025000000318,"midi":38,"time":162.93091500000003,"velocity":0.2440944881889764},{"duration":0.12931025000000318,"midi":40,"time":162.93091500000003,"velocity":0.14960629921259844},{"duration":0.12931024999997476,"midi":46,"time":163.18953550000003,"velocity":0.1968503937007874}]},{"instrument":{"family":"chromatic percussion","number":11,"name":"vibraphone"},"notes":[{"duration":0.7758614999999995,"midi":36,"time":10.344820000000002,"velocity":0.1889763779527559},{"duration":0.7758615000000013,"midi":38,"time":10.862061,"velocity":0.2125984251968504},{"duration":0.7758614999999995,"midi":41,"time":11.120681500000002,"velocity":0.2283464566929134},{"duration":0.7758615000000013,"midi":43,"time":11.379302000000001,"velocity":0.25196850393700787},{"duration":0.7758614999999995,"midi":45,"time":11.637922500000002,"velocity":0.2677165354330709},{"duration":0.7758614999999995,"midi":48,"time":11.896543000000001,"velocity":0.29133858267716534},{"duration":0.7758614999999995,"midi":50,"time":12.155163500000002,"velocity":0.2992125984251969},{"duration":0.7758614999999995,"midi":53,"time":12.413784000000001,"velocity":0.3228346456692913},{"duration":0.7758615000000013,"midi":55,"time":12.6724045,"velocity":0.3464566929133858},{"duration":1.2931024999999998,"midi":57,"time":12.931025000000002,"velocity":0.3937007874015748},{"duration":1.4224127499999994,"midi":60,"time":13.060335250000001,"velocity":0.3937007874015748},{"duration":0.12931024999999963,"midi":61,"time":18.2650728125,"velocity":0.30708661417322836},{"duration":0.12931024999999963,"midi":63,"time":18.362055500000004,"velocity":0.30708661417322836},{"duration":0.12931025000000318,"midi":61,"time":18.5236933125,"velocity":0.30708661417322836},{"duration":0.12931024999999963,"midi":63,"time":18.620676000000003,"velocity":0.1968503937007874},{"duration":0.12931024999999963,"midi":61,"time":18.749986250000003,"velocity":0.1968503937007874},{"duration":0.12931024999999963,"midi":63,"time":18.879296500000002,"velocity":0.14173228346456693},{"duration":0.12931024999999963,"midi":61,"time":19.008606750000002,"velocity":0.14173228346456693},{"duration":0.12931024999999963,"midi":63,"time":19.137917,"velocity":0.10236220472440945},{"duration":0.12931024999999963,"midi":61,"time":19.26722725,"velocity":0.10236220472440945},{"duration":0.12931025000000318,"midi":63,"time":19.3965375,"velocity":0.07086614173228346},{"duration":0.12931024999999963,"midi":61,"time":19.525847750000004,"velocity":0.07086614173228346},{"duration":0.12931024999999963,"midi":61,"time":20.334036812500003,"velocity":0.30708661417322836},{"duration":0.12931024999999963,"midi":63,"time":20.4310195,"velocity":0.30708661417322836},{"duration":0.12931024999999963,"midi":61,"time":20.592657312500002,"velocity":0.30708661417322836},{"duration":0.12931024999999963,"midi":63,"time":20.689640000000004,"velocity":0.1968503937007874},{"duration":0.12931024999999963,"midi":61,"time":20.818950250000004,"velocity":0.1968503937007874},{"duration":0.12931024999999963,"midi":63,"time":20.948260500000004,"velocity":0.14173228346456693},{"duration":0.12931024999999963,"midi":61,"time":21.077570750000003,"velocity":0.14173228346456693},{"duration":0.12931024999999963,"midi":63,"time":21.206881000000003,"velocity":0.10236220472440945},{"duration":0.12931024999999963,"midi":61,"time":21.336191250000002,"velocity":0.10236220472440945},{"duration":0.12931024999999963,"midi":63,"time":21.465501500000002,"velocity":0.07086614173228346},{"duration":0.12931024999999963,"midi":61,"time":21.59481175,"velocity":0.07086614173228346},{"duration":0.12931024999999963,"midi":61,"time":21.724122,"velocity":0.30708661417322836},{"duration":0.12931024999999963,"midi":60,"time":21.8857598125,"velocity":0.30708661417322836},{"duration":0.12931024999999963,"midi":61,"time":21.982742500000004,"velocity":0.30708661417322836},{"duration":0.12931025000000318,"midi":60,"time":22.1443803125,"velocity":0.1968503937007874},{"duration":0.12931024999999963,"midi":61,"time":22.241363000000003,"velocity":0.1968503937007874},{"duration":0.12931024999999963,"midi":60,"time":22.403000812500004,"velocity":0.15748031496062992},{"duration":0.12931024999999963,"midi":61,"time":22.499983500000003,"velocity":0.15748031496062992},{"duration":0.12931024999999963,"midi":60,"time":22.661621312500003,"velocity":0.12598425196850394},{"duration":0.12931024999999963,"midi":61,"time":22.758604000000002,"velocity":0.12598425196850394},{"duration":0.12931024999999963,"midi":61,"time":26.540928812500002,"velocity":0.30708661417322836},{"duration":0.12931024999999963,"midi":63,"time":26.637911500000005,"velocity":0.30708661417322836},{"duration":0.12931025000000318,"midi":61,"time":26.7995493125,"velocity":0.30708661417322836},{"duration":0.12931024999999963,"midi":63,"time":26.896532000000004,"velocity":0.1968503937007874},{"duration":0.12931024999999963,"midi":61,"time":27.025842250000004,"velocity":0.1968503937007874},{"duration":0.12931024999999963,"midi":63,"time":27.155152500000003,"velocity":0.14173228346456693},{"duration":0.12931024999999963,"midi":61,"time":27.284462750000003,"velocity":0.14173228346456693},{"duration":0.12931024999999963,"midi":63,"time":27.413773000000003,"velocity":0.10236220472440945},{"duration":0.12931024999999963,"midi":61,"time":27.543083250000002,"velocity":0.10236220472440945},{"duration":0.12931025000000318,"midi":63,"time":27.672393500000002,"velocity":0.07086614173228346},{"duration":0.12931024999999963,"midi":61,"time":27.801703750000005,"velocity":0.07086614173228346},{"duration":0.12931025000000318,"midi":80,"time":34.137906,"velocity":0.30708661417322836},{"duration":0.12931024999999607,"midi":77,"time":34.299543812500005,"velocity":0.30708661417322836},{"duration":0.12931024999999607,"midi":80,"time":34.39652650000001,"velocity":0.30708661417322836},{"duration":0.12931025000000318,"midi":73,"time":34.8167848125,"velocity":0.30708661417322836},{"duration":0.12931024999999607,"midi":75,"time":34.913767500000006,"velocity":0.30708661417322836},{"duration":0.12931025000000318,"midi":73,"time":35.0754053125,"velocity":0.30708661417322836},{"duration":0.12931025000000318,"midi":80,"time":36.20687,"velocity":0.30708661417322836},{"duration":0.12931024999999607,"midi":77,"time":36.368507812500006,"velocity":0.30708661417322836},{"duration":0.12931025000000318,"midi":80,"time":36.4654905,"velocity":0.30708661417322836},{"duration":0.12931025000000318,"midi":73,"time":36.885748812500005,"velocity":0.30708661417322836},{"duration":0.12931024999999607,"midi":75,"time":36.98273150000001,"velocity":0.30708661417322836},{"duration":0.12931025000000318,"midi":73,"time":37.144369312500004,"velocity":0.30708661417322836},{"duration":0.12931025000000318,"midi":73,"time":38.275834,"velocity":0.30708661417322836},{"duration":0.12931024999999607,"midi":72,"time":38.43747181250001,"velocity":0.30708661417322836},{"duration":0.12931025000000318,"midi":73,"time":38.5344545,"velocity":0.30708661417322836},{"duration":0.12931024999999607,"midi":68,"time":38.954712812500006,"velocity":0.30708661417322836},{"duration":0.12931024999999607,"midi":70,"time":39.05169550000001,"velocity":0.30708661417322836},{"duration":0.12931025000000318,"midi":68,"time":39.213333312500005,"velocity":0.30708661417322836},{"duration":0.12931024999999607,"midi":80,"time":42.413762000000006,"velocity":0.30708661417322836},{"duration":0.12931025000000318,"midi":77,"time":42.5753998125,"velocity":0.30708661417322836},{"duration":0.12931025000000318,"midi":80,"time":42.672382500000005,"velocity":0.30708661417322836},{"duration":0.12931024999999607,"midi":73,"time":43.09264081250001,"velocity":0.30708661417322836},{"duration":0.12931025000000318,"midi":75,"time":43.1896235,"velocity":0.30708661417322836},{"duration":0.12931024999999607,"midi":73,"time":43.35126131250001,"velocity":0.30708661417322836},{"duration":0.12931024999999607,"midi":80,"time":44.48272600000001,"velocity":0.30708661417322836},{"duration":0.12931025000000318,"midi":77,"time":44.6443638125,"velocity":0.30708661417322836},{"duration":0.12931024999999607,"midi":80,"time":44.741346500000006,"velocity":0.30708661417322836},{"duration":0.12931025000000318,"midi":73,"time":45.1616048125,"velocity":0.30708661417322836},{"duration":0.12931025000000318,"midi":75,"time":45.258587500000004,"velocity":0.30708661417322836},{"duration":0.12931024999999607,"midi":73,"time":45.42022531250001,"velocity":0.30708661417322836},{"duration":0.12931024999999607,"midi":85,"time":46.55169000000001,"velocity":0.30708661417322836},{"duration":0.12931025000000318,"midi":84,"time":46.713327812500005,"velocity":0.30708661417322836},{"duration":0.12931024999999607,"midi":85,"time":46.81031050000001,"velocity":0.30708661417322836},{"duration":0.12931025000000318,"midi":80,"time":47.2305688125,"velocity":0.30708661417322836},{"duration":0.12931025000000318,"midi":82,"time":47.327551500000006,"velocity":0.30708661417322836},{"duration":0.12931024999999607,"midi":80,"time":47.45686175000001,"velocity":0.30708661417322836},{"duration":0.12931024999999607,"midi":85,"time":48.62065400000001,"velocity":0.30708661417322836},{"duration":0.12931025000000318,"midi":84,"time":48.782291812500006,"velocity":0.30708661417322836},{"duration":0.12931024999999607,"midi":85,"time":48.87927450000001,"velocity":0.30708661417322836},{"duration":0.12931025000000318,"midi":80,"time":50.689618,"velocity":0.30708661417322836},{"duration":0.12931024999999607,"midi":77,"time":50.85125581250001,"velocity":0.30708661417322836},{"duration":0.12931024999999607,"midi":80,"time":50.94823850000001,"velocity":0.30708661417322836},{"duration":0.12931025000000318,"midi":73,"time":51.368496812500005,"velocity":0.30708661417322836},{"duration":0.12931024999999607,"midi":75,"time":51.46547950000001,"velocity":0.30708661417322836},{"duration":0.12931025000000318,"midi":73,"time":51.627117312500005,"velocity":0.30708661417322836},{"duration":0.12931025000000318,"midi":80,"time":52.758582000000004,"velocity":0.30708661417322836},{"duration":0.12931024999999607,"midi":77,"time":52.92021981250001,"velocity":0.30708661417322836},{"duration":0.12931025000000318,"midi":80,"time":53.0172025,"velocity":0.30708661417322836},{"duration":0.12931025000000318,"midi":73,"time":53.43746081250001,"velocity":0.30708661417322836},{"duration":0.12931024999999607,"midi":75,"time":53.53444350000001,"velocity":0.30708661417322836},{"duration":0.12931025000000318,"midi":73,"time":53.696081312500006,"velocity":0.30708661417322836},{"duration":0.12931025000000318,"midi":73,"time":54.827546000000005,"velocity":0.30708661417322836},{"duration":0.12931024999999607,"midi":72,"time":54.98918381250001,"velocity":0.30708661417322836},{"duration":0.12931025000000318,"midi":73,"time":55.086166500000004,"velocity":0.30708661417322836},{"duration":0.12931024999999607,"midi":80,"time":58.96547400000001,"velocity":0.30708661417322836},{"duration":0.12931025000000318,"midi":77,"time":59.127111812500004,"velocity":0.30708661417322836},{"duration":0.12931025000000318,"midi":80,"time":59.22409450000001,"velocity":0.30708661417322836},{"duration":0.12931024999999607,"midi":73,"time":59.64435281250001,"velocity":0.30708661417322836},{"duration":0.12931025000000318,"midi":75,"time":59.741335500000005,"velocity":0.30708661417322836},{"duration":0.12931024999999607,"midi":73,"time":59.90297331250001,"velocity":0.30708661417322836},{"duration":0.12931024999999607,"midi":80,"time":61.03443800000001,"velocity":0.30708661417322836},{"duration":0.12931025000000318,"midi":77,"time":61.196075812500005,"velocity":0.30708661417322836},{"duration":0.12931024999999607,"midi":80,"time":61.29305850000001,"velocity":0.30708661417322836},{"duration":0.12931025000000318,"midi":73,"time":61.713316812500004,"velocity":0.30708661417322836},{"duration":0.12931025000000318,"midi":75,"time":61.810299500000006,"velocity":0.30708661417322836},{"duration":0.12931024999999607,"midi":73,"time":61.97193731250001,"velocity":0.30708661417322836},{"duration":0.12931024999999607,"midi":85,"time":63.10340200000001,"velocity":0.30708661417322836},{"duration":0.12931025000000318,"midi":84,"time":63.26503981250001,"velocity":0.30708661417322836},{"duration":0.12931024999999607,"midi":85,"time":63.36202250000001,"velocity":0.30708661417322836},{"duration":0.12931025000000318,"midi":80,"time":63.782280812500005,"velocity":0.30708661417322836},{"duration":0.12931025000000318,"midi":82,"time":63.87926350000001,"velocity":0.30708661417322836},{"duration":0.12931025000000318,"midi":80,"time":64.04090131250001,"velocity":0.30708661417322836},{"duration":0.12931025000000318,"midi":85,"time":65.17236600000001,"velocity":0.30708661417322836},{"duration":0.12931024999998897,"midi":84,"time":65.33400381250001,"velocity":0.30708661417322836},{"duration":0.12931025000000318,"midi":85,"time":65.4309865,"velocity":0.30708661417322836},{"duration":0.12931025000000318,"midi":73,"time":67.24133,"velocity":0.30708661417322836},{"duration":0.12931025000000318,"midi":68,"time":67.49995050000001,"velocity":0.30708661417322836},{"duration":0.12931024999998897,"midi":73,"time":67.62926075000001,"velocity":0.2440944881889764},{"duration":0.12931025000000318,"midi":68,"time":67.758571,"velocity":0.2440944881889764},{"duration":0.12931025000000318,"midi":73,"time":67.88788125,"velocity":0.1889763779527559},{"duration":0.12931025000000318,"midi":68,"time":68.01719150000001,"velocity":0.1889763779527559},{"duration":0.12931024999998897,"midi":73,"time":68.14650175000001,"velocity":0.14173228346456693},{"duration":0.12931025000000318,"midi":68,"time":68.275812,"velocity":0.14173228346456693},{"duration":0.12931024999998897,"midi":73,"time":69.31029400000001,"velocity":0.30708661417322836},{"duration":0.12931025000000318,"midi":68,"time":69.5689145,"velocity":0.30708661417322836},{"duration":0.12931025000000318,"midi":73,"time":69.69822475000001,"velocity":0.2440944881889764},{"duration":0.12931025000000318,"midi":68,"time":69.82753500000001,"velocity":0.2440944881889764},{"duration":0.12931024999998897,"midi":73,"time":69.95684525000001,"velocity":0.1889763779527559},{"duration":0.12931025000000318,"midi":68,"time":70.0861555,"velocity":0.1889763779527559},{"duration":0.12931025000000318,"midi":73,"time":70.21546575,"velocity":0.14173228346456693},{"duration":0.12931025000000318,"midi":68,"time":70.34477600000001,"velocity":0.14173228346456693},{"duration":0.12931025000000318,"midi":73,"time":71.37925800000001,"velocity":0.30708661417322836},{"duration":0.12931024999998897,"midi":68,"time":71.63787850000001,"velocity":0.30708661417322836},{"duration":0.12931025000000318,"midi":73,"time":71.76718875,"velocity":0.2440944881889764},{"duration":0.12931025000000318,"midi":68,"time":71.896499,"velocity":0.2440944881889764},{"duration":0.12931025000000318,"midi":73,"time":72.02580925000001,"velocity":0.1889763779527559},{"duration":0.12931025000000318,"midi":68,"time":72.15511950000001,"velocity":0.1889763779527559},{"duration":0.12931024999998897,"midi":73,"time":72.28442975000002,"velocity":0.14173228346456693},{"duration":0.12931025000000318,"midi":68,"time":72.41374,"velocity":0.14173228346456693},{"duration":0.12931024999998897,"midi":73,"time":73.44822200000002,"velocity":0.30708661417322836},{"duration":0.12931025000000318,"midi":68,"time":73.70684250000001,"velocity":0.30708661417322836},{"duration":0.12931025000000318,"midi":73,"time":73.83615275000001,"velocity":0.2440944881889764},{"duration":0.12931024999998897,"midi":68,"time":73.96546300000001,"velocity":0.2440944881889764},{"duration":0.12931025000000318,"midi":73,"time":74.09477325,"velocity":0.1889763779527559},{"duration":0.12931025000000318,"midi":68,"time":74.2240835,"velocity":0.1889763779527559},{"duration":0.12931025000000318,"midi":73,"time":74.35339375000001,"velocity":0.14173228346456693},{"duration":0.12931025000000318,"midi":68,"time":74.48270400000001,"velocity":0.14173228346456693},{"duration":0.12931025000000318,"midi":73,"time":75.51718600000001,"velocity":0.30708661417322836},{"duration":0.12931024999998897,"midi":68,"time":75.77580650000002,"velocity":0.30708661417322836},{"duration":0.12931025000000318,"midi":73,"time":75.90511675,"velocity":0.2440944881889764},{"duration":0.12931025000000318,"midi":68,"time":76.03442700000001,"velocity":0.2440944881889764},{"duration":0.12931025000000318,"midi":73,"time":76.16373725000001,"velocity":0.1889763779527559},{"duration":0.12931024999998897,"midi":68,"time":76.29304750000001,"velocity":0.1889763779527559},{"duration":0.12931025000000318,"midi":73,"time":76.42235775,"velocity":0.14173228346456693},{"duration":0.12931025000000318,"midi":68,"time":76.551668,"velocity":0.14173228346456693},{"duration":0.12931025000000318,"midi":73,"time":77.58615,"velocity":0.30708661417322836},{"duration":0.12931025000000318,"midi":68,"time":77.84477050000001,"velocity":0.30708661417322836},{"duration":0.12931025000000318,"midi":73,"time":77.97408075000001,"velocity":0.2440944881889764},{"duration":0.12931024999998897,"midi":68,"time":78.10339100000002,"velocity":0.2440944881889764},{"duration":0.12931025000000318,"midi":73,"time":78.23270125,"velocity":0.1889763779527559},{"duration":0.12931025000000318,"midi":68,"time":78.36201150000001,"velocity":0.1889763779527559},{"duration":0.12931025000000318,"midi":73,"time":78.49132175000001,"velocity":0.14173228346456693},{"duration":0.12931024999998897,"midi":68,"time":78.62063200000001,"velocity":0.14173228346456693},{"duration":0.12931025000000318,"midi":73,"time":79.65511400000001,"velocity":0.30708661417322836},{"duration":0.12931025000000318,"midi":68,"time":79.9137345,"velocity":0.30708661417322836},{"duration":0.12931025000000318,"midi":73,"time":80.04304475,"velocity":0.2440944881889764},{"duration":0.12931025000000318,"midi":68,"time":80.17235500000001,"velocity":0.2440944881889764},{"duration":0.12931025000000318,"midi":73,"time":80.30166525000001,"velocity":0.1889763779527559},{"duration":0.12931024999998897,"midi":68,"time":80.43097550000002,"velocity":0.1889763779527559},{"duration":0.12931025000000318,"midi":73,"time":80.56028575,"velocity":0.14173228346456693},{"duration":0.12931025000000318,"midi":68,"time":80.68959600000001,"velocity":0.14173228346456693},{"duration":0.12931025000000318,"midi":73,"time":81.724078,"velocity":0.30708661417322836},{"duration":0.12931025000000318,"midi":68,"time":81.98269850000001,"velocity":0.30708661417322836},{"duration":0.12931024999998897,"midi":73,"time":82.11200875000002,"velocity":0.2440944881889764},{"duration":0.12931025000000318,"midi":68,"time":82.241319,"velocity":0.2440944881889764},{"duration":0.12931025000000318,"midi":73,"time":82.37062925000001,"velocity":0.1889763779527559},{"duration":0.12931025000000318,"midi":68,"time":82.49993950000001,"velocity":0.1889763779527559},{"duration":0.12931025000000318,"midi":73,"time":82.62924975000001,"velocity":0.14173228346456693},{"duration":0.12931024999998897,"midi":68,"time":82.75856000000002,"velocity":0.14173228346456693},{"duration":0.12931024999998897,"midi":73,"time":83.79304200000001,"velocity":0.30708661417322836},{"duration":0.12931025000000318,"midi":68,"time":84.0516625,"velocity":0.30708661417322836},{"duration":0.12931025000000318,"midi":73,"time":84.18097275000001,"velocity":0.2440944881889764},{"duration":0.12931025000000318,"midi":68,"time":84.31028300000001,"velocity":0.2440944881889764},{"duration":0.12931024999998897,"midi":73,"time":84.43959325000002,"velocity":0.1889763779527559},{"duration":0.12931025000000318,"midi":68,"time":84.5689035,"velocity":0.1889763779527559},{"duration":0.12931025000000318,"midi":73,"time":84.69821375000001,"velocity":0.14173228346456693},{"duration":0.12931025000000318,"midi":68,"time":84.82752400000001,"velocity":0.14173228346456693},{"duration":0.12931025000000318,"midi":73,"time":85.86200600000001,"velocity":0.30708661417322836},{"duration":0.12931024999998897,"midi":68,"time":86.12062650000001,"velocity":0.30708661417322836},{"duration":0.12931025000000318,"midi":73,"time":86.24993675,"velocity":0.2440944881889764},{"duration":0.12931025000000318,"midi":68,"time":86.379247,"velocity":0.2440944881889764},{"duration":0.12931025000000318,"midi":73,"time":86.50855725000001,"velocity":0.1889763779527559},{"duration":0.12931025000000318,"midi":68,"time":86.63786750000001,"velocity":0.1889763779527559},{"duration":0.12931024999998897,"midi":73,"time":86.76717775000002,"velocity":0.14173228346456693},{"duration":0.12931025000000318,"midi":68,"time":86.896488,"velocity":0.14173228346456693},{"duration":0.12931024999998897,"midi":73,"time":87.93097000000002,"velocity":0.30708661417322836},{"duration":0.12931025000000318,"midi":68,"time":88.18959050000001,"velocity":0.30708661417322836},{"duration":0.12931025000000318,"midi":73,"time":88.31890075000001,"velocity":0.2440944881889764},{"duration":0.12931024999998897,"midi":68,"time":88.44821100000001,"velocity":0.2440944881889764},{"duration":0.12931025000000318,"midi":73,"time":88.57752125,"velocity":0.1889763779527559},{"duration":0.12931025000000318,"midi":68,"time":88.7068315,"velocity":0.1889763779527559},{"duration":0.12931025000000318,"midi":73,"time":88.83614175000001,"velocity":0.14173228346456693},{"duration":0.12931025000000318,"midi":68,"time":88.96545200000001,"velocity":0.14173228346456693},{"duration":0.12931025000000318,"midi":73,"time":89.99993400000001,"velocity":0.30708661417322836},{"duration":0.12931024999998897,"midi":68,"time":90.25855450000002,"velocity":0.30708661417322836},{"duration":0.12931025000000318,"midi":73,"time":90.38786475,"velocity":0.2440944881889764},{"duration":0.12931025000000318,"midi":68,"time":90.51717500000001,"velocity":0.2440944881889764},{"duration":0.12931025000000318,"midi":73,"time":90.64648525000001,"velocity":0.1889763779527559},{"duration":0.12931024999998897,"midi":68,"time":90.77579550000002,"velocity":0.1889763779527559},{"duration":0.12931025000000318,"midi":73,"time":90.90510575,"velocity":0.14173228346456693},{"duration":0.12931025000000318,"midi":68,"time":91.03441600000001,"velocity":0.14173228346456693},{"duration":0.12931025000000318,"midi":73,"time":92.068898,"velocity":0.30708661417322836},{"duration":0.12931025000000318,"midi":68,"time":92.32751850000001,"velocity":0.30708661417322836},{"duration":0.12931025000000318,"midi":73,"time":92.45682875000001,"velocity":0.2440944881889764},{"duration":0.12931024999998897,"midi":68,"time":92.58613900000002,"velocity":0.2440944881889764},{"duration":0.12931025000000318,"midi":73,"time":92.71544925,"velocity":0.1889763779527559},{"duration":0.12931025000000318,"midi":68,"time":92.84475950000001,"velocity":0.1889763779527559},{"duration":0.12931025000000318,"midi":73,"time":92.97406975000001,"velocity":0.14173228346456693},{"duration":0.12931024999998897,"midi":68,"time":93.10338000000002,"velocity":0.14173228346456693},{"duration":0.12931025000000318,"midi":73,"time":94.13786200000001,"velocity":0.30708661417322836},{"duration":0.12931025000000318,"midi":68,"time":94.3964825,"velocity":0.30708661417322836},{"duration":0.12931025000000318,"midi":73,"time":94.52579275000001,"velocity":0.2440944881889764},{"duration":0.12931025000000318,"midi":68,"time":94.65510300000001,"velocity":0.2440944881889764},{"duration":0.12931025000000318,"midi":73,"time":94.78441325000001,"velocity":0.1889763779527559},{"duration":0.12931024999998897,"midi":68,"time":94.91372350000002,"velocity":0.1889763779527559},{"duration":0.12931025000000318,"midi":73,"time":95.04303375,"velocity":0.14173228346456693},{"duration":0.12931025000000318,"midi":68,"time":95.17234400000001,"velocity":0.14173228346456693},{"duration":0.12931025000000318,"midi":73,"time":96.206826,"velocity":0.30708661417322836},{"duration":0.12931025000000318,"midi":68,"time":96.46544650000001,"velocity":0.30708661417322836},{"duration":0.12931024999998897,"midi":73,"time":96.59475675000002,"velocity":0.2440944881889764},{"duration":0.12931025000000318,"midi":68,"time":96.724067,"velocity":0.2440944881889764},{"duration":0.12931025000000318,"midi":73,"time":96.85337725000001,"velocity":0.1889763779527559},{"duration":0.12931025000000318,"midi":68,"time":96.98268750000001,"velocity":0.1889763779527559},{"duration":0.12931025000000318,"midi":73,"time":97.11199775000001,"velocity":0.14173228346456693},{"duration":0.12931024999998897,"midi":68,"time":97.24130800000002,"velocity":0.14173228346456693},{"duration":0.12931025000000318,"midi":73,"time":98.27579000000001,"velocity":0.30708661417322836},{"duration":0.12931025000000318,"midi":68,"time":98.5344105,"velocity":0.30708661417322836},{"duration":0.12931025000000318,"midi":73,"time":98.66372075000001,"velocity":0.2440944881889764},{"duration":0.12931025000000318,"midi":68,"time":98.79303100000001,"velocity":0.2440944881889764},{"duration":0.12931024999998897,"midi":73,"time":98.92234125000002,"velocity":0.1889763779527559},{"duration":0.12931025000000318,"midi":68,"time":99.0516515,"velocity":0.1889763779527559},{"duration":0.12931025000000318,"midi":73,"time":99.18096175000001,"velocity":0.14173228346456693},{"duration":0.12931025000000318,"midi":68,"time":99.31027200000001,"velocity":0.14173228346456693},{"duration":0.12931025000000318,"midi":61,"time":150.6787688125,"velocity":0.30708661417322836},{"duration":0.12931025000000318,"midi":63,"time":150.7757515,"velocity":0.30708661417322836},{"duration":0.12931025000000318,"midi":61,"time":150.93738931250002,"velocity":0.30708661417322836},{"duration":0.12931025000000318,"midi":63,"time":151.03437200000002,"velocity":0.1968503937007874},{"duration":0.12931025000000318,"midi":61,"time":151.16368225000002,"velocity":0.1968503937007874},{"duration":0.12931025000000318,"midi":63,"time":151.29299250000003,"velocity":0.14173228346456693},{"duration":0.12931025000000318,"midi":61,"time":151.42230275000003,"velocity":0.14173228346456693},{"duration":0.12931024999997476,"midi":63,"time":151.55161300000003,"velocity":0.10236220472440945},{"duration":0.12931025000000318,"midi":61,"time":151.68092325,"velocity":0.10236220472440945},{"duration":0.12931025000000318,"midi":63,"time":151.8102335,"velocity":0.07086614173228346},{"duration":0.12931025000000318,"midi":61,"time":151.93954375,"velocity":0.07086614173228346},{"duration":0.12931025000000318,"midi":61,"time":152.7477328125,"velocity":0.30708661417322836},{"duration":0.12931025000000318,"midi":63,"time":152.8447155,"velocity":0.30708661417322836},{"duration":0.12931025000000318,"midi":61,"time":153.0063533125,"velocity":0.30708661417322836},{"duration":0.12931025000000318,"midi":63,"time":153.103336,"velocity":0.1968503937007874},{"duration":0.12931025000000318,"midi":61,"time":153.23264625000002,"velocity":0.1968503937007874},{"duration":0.12931025000000318,"midi":63,"time":153.36195650000002,"velocity":0.14173228346456693},{"duration":0.12931025000000318,"midi":61,"time":153.49126675000002,"velocity":0.14173228346456693},{"duration":0.12931025000000318,"midi":63,"time":153.62057700000003,"velocity":0.10236220472440945},{"duration":0.12931025000000318,"midi":61,"time":153.74988725000003,"velocity":0.10236220472440945},{"duration":0.12931024999997476,"midi":63,"time":153.87919750000003,"velocity":0.07086614173228346},{"duration":0.12931025000000318,"midi":61,"time":154.00850775,"velocity":0.07086614173228346},{"duration":0.12931025000000318,"midi":61,"time":154.137818,"velocity":0.30708661417322836},{"duration":0.12931025000000318,"midi":60,"time":154.2994558125,"velocity":0.30708661417322836},{"duration":0.12931025000000318,"midi":61,"time":154.39643850000002,"velocity":0.30708661417322836},{"duration":0.12931025000000318,"midi":60,"time":154.55807631250002,"velocity":0.1968503937007874},{"duration":0.12931025000000318,"midi":61,"time":154.65505900000002,"velocity":0.1968503937007874},{"duration":0.12931025000000318,"midi":60,"time":154.81669681250003,"velocity":0.15748031496062992},{"duration":0.12931025000000318,"midi":61,"time":154.91367950000003,"velocity":0.15748031496062992},{"duration":0.12931025000000318,"midi":60,"time":155.0753173125,"velocity":0.12598425196850394},{"duration":0.12931025000000318,"midi":61,"time":155.1723,"velocity":0.12598425196850394},{"duration":0.12931025000000318,"midi":61,"time":158.95462481250001,"velocity":0.30708661417322836},{"duration":0.12931025000000318,"midi":63,"time":159.05160750000002,"velocity":0.30708661417322836},{"duration":0.12931025000000318,"midi":61,"time":159.21324531250002,"velocity":0.30708661417322836},{"duration":0.12931025000000318,"midi":63,"time":159.31022800000002,"velocity":0.1968503937007874},{"duration":0.12931025000000318,"midi":61,"time":159.43953825000003,"velocity":0.1968503937007874},{"duration":0.12931025000000318,"midi":63,"time":159.56884850000003,"velocity":0.14173228346456693},{"duration":0.12931024999997476,"midi":61,"time":159.69815875000003,"velocity":0.14173228346456693},{"duration":0.12931025000000318,"midi":63,"time":159.827469,"velocity":0.10236220472440945},{"duration":0.12931025000000318,"midi":61,"time":159.95677925,"velocity":0.10236220472440945},{"duration":0.12931025000000318,"midi":63,"time":160.0860895,"velocity":0.07086614173228346},{"duration":0.12931025000000318,"midi":61,"time":160.21539975000002,"velocity":0.07086614173228346},{"duration":0.12931025000000318,"midi":61,"time":161.0235888125,"velocity":0.30708661417322836},{"duration":0.12931025000000318,"midi":63,"time":161.1205715,"velocity":0.30708661417322836},{"duration":0.12931025000000318,"midi":61,"time":161.28220931250002,"velocity":0.30708661417322836},{"duration":0.12931025000000318,"midi":63,"time":161.37919200000002,"velocity":0.1968503937007874},{"duration":0.12931025000000318,"midi":61,"time":161.50850225000002,"velocity":0.1968503937007874},{"duration":0.12931025000000318,"midi":63,"time":161.63781250000002,"velocity":0.14173228346456693},{"duration":0.12931025000000318,"midi":61,"time":161.76712275000003,"velocity":0.14173228346456693},{"duration":0.12931025000000318,"midi":63,"time":161.89643300000003,"velocity":0.10236220472440945},{"duration":0.12931024999997476,"midi":61,"time":162.02574325000003,"velocity":0.10236220472440945},{"duration":0.12931025000000318,"midi":63,"time":162.1550535,"velocity":0.07086614173228346},{"duration":0.12931025000000318,"midi":61,"time":162.28436375,"velocity":0.07086614173228346},{"duration":0.12931025000000318,"midi":61,"time":162.41367400000001,"velocity":0.30708661417322836},{"duration":0.12931025000000318,"midi":60,"time":162.57531181250002,"velocity":0.30708661417322836},{"duration":0.12931025000000318,"midi":61,"time":162.67229450000002,"velocity":0.30708661417322836},{"duration":0.12931025000000318,"midi":60,"time":162.83393231250002,"velocity":0.1968503937007874},{"duration":0.12931025000000318,"midi":61,"time":162.93091500000003,"velocity":0.1968503937007874},{"duration":0.12931024999997476,"midi":60,"time":163.09255281250003,"velocity":0.15748031496062992},{"duration":0.12931024999997476,"midi":61,"time":163.18953550000003,"velocity":0.15748031496062992},{"duration":0.12931025000000318,"midi":68,"time":163.3511733125,"velocity":0.30708661417322836},{"duration":0.12931025000000318,"midi":60,"time":163.3511733125,"velocity":0.12598425196850394},{"duration":0.12931025000000318,"midi":61,"time":163.448156,"velocity":0.12598425196850394},{"duration":0.12931025000000318,"midi":70,"time":163.448156,"velocity":0.30708661417322836},{"duration":0.12931025000000318,"midi":68,"time":163.60979381250002,"velocity":0.1968503937007874},{"duration":0.12931025000000318,"midi":70,"time":163.70677650000002,"velocity":0.1968503937007874},{"duration":0.12931025000000318,"midi":68,"time":163.83608675000002,"velocity":0.14173228346456693},{"duration":0.12931025000000318,"midi":70,"time":163.96539700000002,"velocity":0.14173228346456693},{"duration":0.12931025000000318,"midi":68,"time":164.09470725000003,"velocity":0.10236220472440945},{"duration":0.12931025000000318,"midi":70,"time":164.22401750000003,"velocity":0.10236220472440945},{"duration":0.12931024999997476,"midi":68,"time":164.35332775000003,"velocity":0.10236220472440945},{"duration":0.12931025000000318,"midi":73,"time":164.482638,"velocity":0.30708661417322836},{"duration":0.12931025000000318,"midi":72,"time":164.6442758125,"velocity":0.30708661417322836},{"duration":0.12931025000000318,"midi":73,"time":164.74125850000001,"velocity":0.30708661417322836},{"duration":0.12931025000000318,"midi":72,"time":164.87056875000002,"velocity":0.1968503937007874},{"duration":0.12931025000000318,"midi":73,"time":164.99987900000002,"velocity":0.1968503937007874},{"duration":0.12931025000000318,"midi":68,"time":164.99987900000002,"velocity":0.30708661417322836},{"duration":0.12931025000000318,"midi":68,"time":165.16151681250003,"velocity":0.1968503937007874},{"duration":0.12931025000000318,"midi":70,"time":165.25849950000003,"velocity":0.30708661417322836},{"duration":0.12931025000000318,"midi":70,"time":165.38780975000003,"velocity":0.1968503937007874},{"duration":0.12931024999997476,"midi":68,"time":165.51712000000003,"velocity":0.14960629921259844},{"duration":0.12931025000000318,"midi":70,"time":165.581775125,"velocity":0.14960629921259844},{"duration":0.12931025000000318,"midi":68,"time":165.7757405,"velocity":0.10236220472440945},{"duration":0.12931025000000318,"midi":70,"time":165.840395625,"velocity":0.10236220472440945}]},{"instrument":{"family":"piano","number":0,"name":"acoustic grand piano"},"notes":[{"duration":1.2931025000000034,"midi":73,"time":33.103424000000004,"velocity":0.31496062992125984},{"duration":1.2931025000000034,"midi":61,"time":33.103424000000004,"velocity":0.31496062992125984},{"duration":0.25862049999999925,"midi":72,"time":34.39652650000001,"velocity":0.31496062992125984},{"duration":0.25862049999999925,"midi":60,"time":34.39652650000001,"velocity":0.31496062992125984},{"duration":0.25862049999999925,"midi":61,"time":34.65514700000001,"velocity":0.31496062992125984},{"duration":0.25862049999999925,"midi":73,"time":34.65514700000001,"velocity":0.31496062992125984},{"duration":1.5517229999999955,"midi":80,"time":34.913767500000006,"velocity":0.31496062992125984},{"duration":1.5517229999999955,"midi":68,"time":34.913767500000006,"velocity":0.31496062992125984},{"duration":0.25862050000000636,"midi":68,"time":36.4654905,"velocity":0.31496062992125984},{"duration":0.25862050000000636,"midi":56,"time":36.4654905,"velocity":0.31496062992125984},{"duration":0.25862049999999925,"midi":61,"time":36.72411100000001,"velocity":0.31496062992125984},{"duration":0.25862049999999925,"midi":73,"time":36.72411100000001,"velocity":0.31496062992125984},{"duration":1.5517229999999955,"midi":75,"time":36.98273150000001,"velocity":0.31496062992125984},{"duration":1.5517229999999955,"midi":63,"time":36.98273150000001,"velocity":0.31496062992125984},{"duration":0.25862049999999925,"midi":56,"time":38.5344545,"velocity":0.31496062992125984},{"duration":0.25862049999999925,"midi":68,"time":38.5344545,"velocity":0.31496062992125984},{"duration":0.25862050000000636,"midi":73,"time":38.793075,"velocity":0.31496062992125984},{"duration":0.25862050000000636,"midi":61,"time":38.793075,"velocity":0.31496062992125984},{"duration":0.5172409999999985,"midi":65,"time":39.05169550000001,"velocity":0.31496062992125984},{"duration":0.5172409999999985,"midi":77,"time":39.05169550000001,"velocity":0.31496062992125984},{"duration":0.25862049999999925,"midi":78,"time":39.56893650000001,"velocity":0.31496062992125984},{"duration":0.25862049999999925,"midi":54,"time":39.56893650000001,"velocity":0.31496062992125984},{"duration":0.25862049999999925,"midi":66,"time":39.56893650000001,"velocity":0.31496062992125984},{"duration":0.25862049999999925,"midi":65,"time":39.827557000000006,"velocity":0.31496062992125984},{"duration":0.25862049999999925,"midi":53,"time":39.827557000000006,"velocity":0.31496062992125984},{"duration":0.25862049999999925,"midi":77,"time":39.827557000000006,"velocity":0.31496062992125984},{"duration":0.25862049999999925,"midi":63,"time":40.086177500000005,"velocity":0.31496062992125984},{"duration":0.25862049999999925,"midi":75,"time":40.086177500000005,"velocity":0.31496062992125984},{"duration":0.25862049999999925,"midi":51,"time":40.086177500000005,"velocity":0.31496062992125984},{"duration":0.5172409999999985,"midi":73,"time":40.344798000000004,"velocity":0.31496062992125984},{"duration":0.5172409999999985,"midi":49,"time":40.344798000000004,"velocity":0.31496062992125984},{"duration":0.5172409999999985,"midi":61,"time":40.344798000000004,"velocity":0.31496062992125984},{"duration":0.25862049999999925,"midi":48,"time":40.862039,"velocity":0.31496062992125984},{"duration":0.25862049999999925,"midi":72,"time":40.862039,"velocity":0.31496062992125984},{"duration":0.25862049999999925,"midi":60,"time":40.862039,"velocity":0.31496062992125984},{"duration":1.5517230000000026,"midi":73,"time":41.1206595,"velocity":0.31496062992125984},{"duration":1.5517230000000026,"midi":61,"time":41.1206595,"velocity":0.31496062992125984},{"duration":1.5517230000000026,"midi":49,"time":41.1206595,"velocity":0.31496062992125984},{"duration":0.25862049999999925,"midi":72,"time":42.672382500000005,"velocity":0.31496062992125984},{"duration":0.25862049999999925,"midi":60,"time":42.672382500000005,"velocity":0.31496062992125984},{"duration":0.25862049999999925,"midi":61,"time":42.931003000000004,"velocity":0.31496062992125984},{"duration":0.25862049999999925,"midi":73,"time":42.931003000000004,"velocity":0.31496062992125984},{"duration":1.5517230000000026,"midi":80,"time":43.1896235,"velocity":0.31496062992125984},{"duration":1.5517230000000026,"midi":68,"time":43.1896235,"velocity":0.31496062992125984},{"duration":0.25862049999999925,"midi":73,"time":44.741346500000006,"velocity":0.31496062992125984},{"duration":0.25862049999999925,"midi":61,"time":44.741346500000006,"velocity":0.31496062992125984},{"duration":0.25862049999999925,"midi":49,"time":44.741346500000006,"velocity":0.31496062992125984},{"duration":0.25862049999999925,"midi":75,"time":44.999967000000005,"velocity":0.31496062992125984},{"duration":0.25862049999999925,"midi":51,"time":44.999967000000005,"velocity":0.31496062992125984},{"duration":0.25862049999999925,"midi":63,"time":44.999967000000005,"velocity":0.31496062992125984},{"duration":1.5517230000000026,"midi":84,"time":45.258587500000004,"velocity":0.31496062992125984},{"duration":1.5517230000000026,"midi":72,"time":45.258587500000004,"velocity":0.31496062992125984},{"duration":1.5517230000000026,"midi":60,"time":45.258587500000004,"velocity":0.31496062992125984},{"duration":0.25862049999999925,"midi":80,"time":46.81031050000001,"velocity":0.31496062992125984},{"duration":0.25862049999999925,"midi":68,"time":46.81031050000001,"velocity":0.31496062992125984},{"duration":0.25862049999999925,"midi":56,"time":46.81031050000001,"velocity":0.31496062992125984},{"duration":0.25862049999999925,"midi":82,"time":47.068931000000006,"velocity":0.31496062992125984},{"duration":0.25862049999999925,"midi":58,"time":47.068931000000006,"velocity":0.31496062992125984},{"duration":0.25862049999999925,"midi":70,"time":47.068931000000006,"velocity":0.31496062992125984},{"duration":0.5172409999999985,"midi":73,"time":47.327551500000006,"velocity":0.31496062992125984},{"duration":0.5172409999999985,"midi":61,"time":47.327551500000006,"velocity":0.31496062992125984},{"duration":0.5172409999999985,"midi":85,"time":47.327551500000006,"velocity":0.31496062992125984},{"duration":0.25862049999999925,"midi":72,"time":47.844792500000004,"velocity":0.31496062992125984},{"duration":0.25862049999999925,"midi":84,"time":47.844792500000004,"velocity":0.31496062992125984},{"duration":0.25862049999999925,"midi":60,"time":47.844792500000004,"velocity":0.31496062992125984},{"duration":0.25862049999999925,"midi":56,"time":48.103413,"velocity":0.31496062992125984},{"duration":0.25862049999999925,"midi":68,"time":48.103413,"velocity":0.31496062992125984},{"duration":0.25862049999999925,"midi":80,"time":48.103413,"velocity":0.31496062992125984},{"duration":0.25862050000000636,"midi":78,"time":48.3620335,"velocity":0.31496062992125984},{"duration":0.25862050000000636,"midi":66,"time":48.3620335,"velocity":0.31496062992125984},{"duration":0.25862050000000636,"midi":54,"time":48.3620335,"velocity":0.31496062992125984},{"duration":0.25862049999999925,"midi":77,"time":48.62065400000001,"velocity":0.31496062992125984},{"duration":0.25862049999999925,"midi":53,"time":48.62065400000001,"velocity":0.31496062992125984},{"duration":0.25862049999999925,"midi":65,"time":48.62065400000001,"velocity":0.31496062992125984},{"duration":0.25862049999999925,"midi":63,"time":48.87927450000001,"velocity":0.31496062992125984},{"duration":0.25862049999999925,"midi":75,"time":48.87927450000001,"velocity":0.31496062992125984},{"duration":0.25862049999999925,"midi":51,"time":48.87927450000001,"velocity":0.31496062992125984},{"duration":0.5172409999999985,"midi":49,"time":49.13789500000001,"velocity":0.31496062992125984},{"duration":0.5172409999999985,"midi":73,"time":49.13789500000001,"velocity":0.31496062992125984},{"duration":0.5172409999999985,"midi":61,"time":49.13789500000001,"velocity":0.31496062992125984},{"duration":1.2931025000000034,"midi":73,"time":49.655136000000006,"velocity":0.31496062992125984},{"duration":1.2931025000000034,"midi":61,"time":49.655136000000006,"velocity":0.31496062992125984},{"duration":0.25862049999999925,"midi":60,"time":50.94823850000001,"velocity":0.31496062992125984},{"duration":0.25862049999999925,"midi":72,"time":50.94823850000001,"velocity":0.31496062992125984},{"duration":0.25862049999999925,"midi":61,"time":51.20685900000001,"velocity":0.31496062992125984},{"duration":0.25862049999999925,"midi":73,"time":51.20685900000001,"velocity":0.31496062992125984},{"duration":1.5517229999999955,"midi":68,"time":51.46547950000001,"velocity":0.31496062992125984},{"duration":1.5517229999999955,"midi":80,"time":51.46547950000001,"velocity":0.31496062992125984},{"duration":0.25862050000000636,"midi":56,"time":53.0172025,"velocity":0.31496062992125984},{"duration":0.25862050000000636,"midi":68,"time":53.0172025,"velocity":0.31496062992125984},{"duration":0.25862049999999925,"midi":61,"time":53.27582300000001,"velocity":0.31496062992125984},{"duration":0.25862049999999925,"midi":73,"time":53.27582300000001,"velocity":0.31496062992125984},{"duration":1.5517229999999955,"midi":63,"time":53.53444350000001,"velocity":0.31496062992125984},{"duration":1.5517229999999955,"midi":75,"time":53.53444350000001,"velocity":0.31496062992125984},{"duration":0.25862049999999925,"midi":68,"time":55.086166500000004,"velocity":0.31496062992125984},{"duration":0.25862049999999925,"midi":56,"time":55.086166500000004,"velocity":0.31496062992125984},{"duration":0.25862050000000636,"midi":61,"time":55.344787000000004,"velocity":0.31496062992125984},{"duration":0.25862050000000636,"midi":73,"time":55.344787000000004,"velocity":0.31496062992125984},{"duration":0.5172409999999985,"midi":77,"time":55.60340750000001,"velocity":0.31496062992125984},{"duration":0.5172409999999985,"midi":65,"time":55.60340750000001,"velocity":0.31496062992125984},{"duration":0.25862049999999925,"midi":78,"time":56.12064850000001,"velocity":0.31496062992125984},{"duration":0.25862049999999925,"midi":66,"time":56.12064850000001,"velocity":0.31496062992125984},{"duration":0.25862049999999925,"midi":54,"time":56.12064850000001,"velocity":0.31496062992125984},{"duration":0.25862049999999925,"midi":77,"time":56.37926900000001,"velocity":0.31496062992125984},{"duration":0.25862049999999925,"midi":53,"time":56.37926900000001,"velocity":0.31496062992125984},{"duration":0.25862049999999925,"midi":65,"time":56.37926900000001,"velocity":0.31496062992125984},{"duration":0.25862049999999925,"midi":63,"time":56.63788950000001,"velocity":0.31496062992125984},{"duration":0.25862049999999925,"midi":75,"time":56.63788950000001,"velocity":0.31496062992125984},{"duration":0.25862049999999925,"midi":51,"time":56.63788950000001,"velocity":0.31496062992125984},{"duration":0.5172409999999985,"midi":61,"time":56.896510000000006,"velocity":0.31496062992125984},{"duration":0.5172409999999985,"midi":73,"time":56.896510000000006,"velocity":0.31496062992125984},{"duration":0.5172409999999985,"midi":49,"time":56.896510000000006,"velocity":0.31496062992125984},{"duration":0.25862049999999925,"midi":60,"time":57.413751000000005,"velocity":0.31496062992125984},{"duration":0.25862049999999925,"midi":72,"time":57.413751000000005,"velocity":0.31496062992125984},{"duration":0.25862049999999925,"midi":48,"time":57.413751000000005,"velocity":0.31496062992125984},{"duration":1.5517230000000026,"midi":61,"time":57.672371500000004,"velocity":0.31496062992125984},{"duration":1.5517230000000026,"midi":73,"time":57.672371500000004,"velocity":0.31496062992125984},{"duration":1.5517230000000026,"midi":49,"time":57.672371500000004,"velocity":0.31496062992125984},{"duration":0.25862049999999925,"midi":72,"time":59.22409450000001,"velocity":0.31496062992125984},{"duration":0.25862049999999925,"midi":60,"time":59.22409450000001,"velocity":0.31496062992125984},{"duration":0.25862049999999925,"midi":61,"time":59.482715000000006,"velocity":0.31496062992125984},{"duration":0.25862049999999925,"midi":73,"time":59.482715000000006,"velocity":0.31496062992125984},{"duration":1.5517230000000026,"midi":80,"time":59.741335500000005,"velocity":0.31496062992125984},{"duration":1.5517230000000026,"midi":68,"time":59.741335500000005,"velocity":0.31496062992125984},{"duration":0.25862049999999925,"midi":49,"time":61.29305850000001,"velocity":0.31496062992125984},{"duration":0.25862049999999925,"midi":61,"time":61.29305850000001,"velocity":0.31496062992125984},{"duration":0.25862049999999925,"midi":73,"time":61.29305850000001,"velocity":0.31496062992125984},{"duration":0.25862049999999925,"midi":75,"time":61.55167900000001,"velocity":0.31496062992125984},{"duration":0.25862049999999925,"midi":51,"time":61.55167900000001,"velocity":0.31496062992125984},{"duration":0.25862049999999925,"midi":63,"time":61.55167900000001,"velocity":0.31496062992125984},{"duration":1.5517230000000026,"midi":72,"time":61.810299500000006,"velocity":0.31496062992125984},{"duration":1.5517230000000026,"midi":84,"time":61.810299500000006,"velocity":0.31496062992125984},{"duration":1.5517230000000026,"midi":60,"time":61.810299500000006,"velocity":0.31496062992125984},{"duration":0.25862049999999925,"midi":68,"time":63.36202250000001,"velocity":0.31496062992125984},{"duration":0.25862049999999925,"midi":56,"time":63.36202250000001,"velocity":0.31496062992125984},{"duration":0.25862049999999925,"midi":80,"time":63.36202250000001,"velocity":0.31496062992125984},{"duration":0.25862049999999925,"midi":70,"time":63.62064300000001,"velocity":0.31496062992125984},{"duration":0.25862049999999925,"midi":82,"time":63.62064300000001,"velocity":0.31496062992125984},{"duration":0.25862049999999925,"midi":58,"time":63.62064300000001,"velocity":0.31496062992125984},{"duration":0.5172409999999985,"midi":61,"time":63.87926350000001,"velocity":0.31496062992125984},{"duration":0.5172409999999985,"midi":85,"time":63.87926350000001,"velocity":0.31496062992125984},{"duration":0.5172409999999985,"midi":73,"time":63.87926350000001,"velocity":0.31496062992125984},{"duration":0.25862050000000636,"midi":84,"time":64.3965045,"velocity":0.31496062992125984},{"duration":0.25862050000000636,"midi":72,"time":64.3965045,"velocity":0.31496062992125984},{"duration":0.25862050000000636,"midi":60,"time":64.3965045,"velocity":0.31496062992125984},{"duration":0.25862049999999215,"midi":68,"time":64.65512500000001,"velocity":0.31496062992125984},{"duration":0.25862049999999215,"midi":56,"time":64.65512500000001,"velocity":0.31496062992125984},{"duration":0.25862049999999215,"midi":80,"time":64.65512500000001,"velocity":0.31496062992125984},{"duration":0.25862050000000636,"midi":54,"time":64.9137455,"velocity":0.31496062992125984},{"duration":0.25862050000000636,"midi":66,"time":64.9137455,"velocity":0.31496062992125984},{"duration":0.25862050000000636,"midi":78,"time":64.9137455,"velocity":0.31496062992125984},{"duration":0.25862049999999215,"midi":65,"time":65.17236600000001,"velocity":0.31496062992125984},{"duration":0.25862049999999215,"midi":77,"time":65.17236600000001,"velocity":0.31496062992125984},{"duration":0.25862049999999215,"midi":53,"time":65.17236600000001,"velocity":0.31496062992125984},{"duration":0.25862050000000636,"midi":63,"time":65.4309865,"velocity":0.31496062992125984},{"duration":0.25862050000000636,"midi":51,"time":65.4309865,"velocity":0.31496062992125984},{"duration":0.25862050000000636,"midi":75,"time":65.4309865,"velocity":0.31496062992125984},{"duration":0.5172409999999985,"midi":73,"time":65.68960700000001,"velocity":0.31496062992125984},{"duration":0.5172409999999985,"midi":61,"time":65.68960700000001,"velocity":0.31496062992125984},{"duration":0.5172409999999985,"midi":49,"time":65.68960700000001,"velocity":0.31496062992125984},{"duration":4.137928000000002,"midi":56,"time":66.20684800000001,"velocity":0.2125984251968504},{"duration":4.137928000000002,"midi":63,"time":66.20684800000001,"velocity":0.2125984251968504},{"duration":4.137928000000002,"midi":51,"time":66.20684800000001,"velocity":0.2125984251968504},{"duration":4.137928000000002,"midi":49,"time":70.34477600000001,"velocity":0.2125984251968504},{"duration":4.137928000000002,"midi":61,"time":70.34477600000001,"velocity":0.2125984251968504},{"duration":4.137928000000002,"midi":56,"time":70.34477600000001,"velocity":0.2125984251968504},{"duration":4.137928000000002,"midi":56,"time":74.48270400000001,"velocity":0.2125984251968504},{"duration":4.137928000000002,"midi":63,"time":74.48270400000001,"velocity":0.2125984251968504},{"duration":4.137928000000002,"midi":51,"time":74.48270400000001,"velocity":0.2125984251968504},{"duration":4.137928000000002,"midi":61,"time":78.62063200000001,"velocity":0.2125984251968504},{"duration":4.137928000000002,"midi":49,"time":78.62063200000001,"velocity":0.2125984251968504},{"duration":4.137928000000002,"midi":56,"time":78.62063200000001,"velocity":0.2125984251968504},{"duration":4.137927999999988,"midi":51,"time":82.75856000000002,"velocity":0.2125984251968504},{"duration":4.137927999999988,"midi":63,"time":82.75856000000002,"velocity":0.2125984251968504},{"duration":4.137927999999988,"midi":56,"time":82.75856000000002,"velocity":0.2125984251968504},{"duration":4.137928000000002,"midi":56,"time":86.896488,"velocity":0.2125984251968504},{"duration":4.137928000000002,"midi":49,"time":86.896488,"velocity":0.2125984251968504},{"duration":4.137928000000002,"midi":61,"time":86.896488,"velocity":0.2125984251968504},{"duration":4.137928000000002,"midi":51,"time":91.03441600000001,"velocity":0.2125984251968504},{"duration":4.137928000000002,"midi":63,"time":91.03441600000001,"velocity":0.2125984251968504},{"duration":4.137928000000002,"midi":56,"time":91.03441600000001,"velocity":0.2125984251968504},{"duration":4.137928000000002,"midi":56,"time":95.17234400000001,"velocity":0.2125984251968504},{"duration":4.137928000000002,"midi":49,"time":95.17234400000001,"velocity":0.2125984251968504},{"duration":4.137928000000002,"midi":61,"time":95.17234400000001,"velocity":0.2125984251968504},{"duration":1.8103435000000019,"midi":61,"time":99.31027200000001,"velocity":0.2125984251968504},{"duration":1.8103435000000019,"midi":49,"time":99.31027200000001,"velocity":0.2125984251968504},{"duration":1.8103435000000019,"midi":51,"time":101.379236,"velocity":0.2125984251968504},{"duration":1.8103435000000019,"midi":63,"time":101.379236,"velocity":0.2125984251968504},{"duration":1.8103435000000019,"midi":65,"time":103.44820000000001,"velocity":0.2125984251968504},{"duration":1.8103435000000019,"midi":53,"time":103.44820000000001,"velocity":0.2125984251968504},{"duration":0.7758615000000049,"midi":66,"time":105.51716400000001,"velocity":0.2125984251968504},{"duration":0.7758615000000049,"midi":54,"time":105.51716400000001,"velocity":0.2125984251968504},{"duration":0.7758614999999907,"midi":51,"time":106.55164600000002,"velocity":0.2125984251968504},{"duration":0.7758614999999907,"midi":63,"time":106.55164600000002,"velocity":0.2125984251968504},{"duration":1.8103435000000019,"midi":49,"time":107.58612800000002,"velocity":0.2125984251968504},{"duration":1.8103435000000019,"midi":61,"time":107.58612800000002,"velocity":0.2125984251968504},{"duration":1.8103435000000019,"midi":51,"time":109.65509200000001,"velocity":0.2125984251968504},{"duration":1.8103435000000019,"midi":63,"time":109.65509200000001,"velocity":0.2125984251968504},{"duration":1.8103435000000019,"midi":53,"time":111.72405600000002,"velocity":0.2125984251968504},{"duration":1.8103435000000019,"midi":65,"time":111.72405600000002,"velocity":0.2125984251968504},{"duration":0.7758615000000049,"midi":66,"time":113.79302000000001,"velocity":0.2125984251968504},{"duration":0.7758615000000049,"midi":54,"time":113.79302000000001,"velocity":0.2125984251968504},{"duration":0.7758615000000049,"midi":63,"time":114.82750200000001,"velocity":0.2125984251968504},{"duration":0.7758615000000049,"midi":51,"time":114.82750200000001,"velocity":0.2125984251968504},{"duration":1.8103435000000019,"midi":61,"time":115.861984,"velocity":0.2125984251968504},{"duration":1.8103435000000019,"midi":49,"time":115.861984,"velocity":0.2125984251968504},{"duration":1.8103435000000019,"midi":63,"time":117.93094800000001,"velocity":0.2125984251968504},{"duration":1.8103435000000019,"midi":51,"time":117.93094800000001,"velocity":0.2125984251968504},{"duration":1.8103435000000019,"midi":65,"time":119.99991200000001,"velocity":0.2125984251968504},{"duration":1.8103435000000019,"midi":53,"time":119.99991200000001,"velocity":0.2125984251968504},{"duration":0.7758614999999907,"midi":66,"time":122.06887600000002,"velocity":0.2125984251968504},{"duration":0.7758614999999907,"midi":54,"time":122.06887600000002,"velocity":0.2125984251968504},{"duration":0.7758615000000049,"midi":51,"time":123.10335800000001,"velocity":0.2125984251968504},{"duration":0.7758615000000049,"midi":63,"time":123.10335800000001,"velocity":0.2125984251968504},{"duration":1.8103435000000019,"midi":49,"time":124.13784000000001,"velocity":0.2125984251968504},{"duration":1.8103435000000019,"midi":61,"time":124.13784000000001,"velocity":0.2125984251968504},{"duration":1.8103435000000019,"midi":51,"time":126.20680400000002,"velocity":0.2125984251968504},{"duration":1.8103435000000019,"midi":63,"time":126.20680400000002,"velocity":0.2125984251968504},{"duration":1.8103434999999877,"midi":65,"time":128.27576800000003,"velocity":0.2125984251968504},{"duration":1.8103434999999877,"midi":53,"time":128.27576800000003,"velocity":0.2125984251968504},{"duration":0.7758614999999907,"midi":54,"time":130.34473200000002,"velocity":0.2125984251968504},{"duration":0.7758614999999907,"midi":66,"time":130.34473200000002,"velocity":0.2125984251968504},{"duration":0.7758614999999907,"midi":51,"time":131.37921400000002,"velocity":0.2125984251968504},{"duration":0.7758614999999907,"midi":63,"time":131.37921400000002,"velocity":0.2125984251968504},{"duration":0.5172410000000127,"midi":73,"time":132.41369600000002,"velocity":0.25196850393700787},{"duration":0.5172410000000127,"midi":85,"time":132.41369600000002,"velocity":0.25196850393700787},{"duration":0.5172410000000127,"midi":76,"time":134.2240395,"velocity":0.25196850393700787},{"duration":0.5172410000000127,"midi":88,"time":134.2240395,"velocity":0.25196850393700787},{"duration":0.5172409999999843,"midi":87,"time":134.99990100000002,"velocity":0.25196850393700787},{"duration":0.5172409999999843,"midi":75,"time":134.99990100000002,"velocity":0.25196850393700787},{"duration":0.25862050000000636,"midi":85,"time":135.517142,"velocity":0.25196850393700787},{"duration":0.25862050000000636,"midi":73,"time":135.517142,"velocity":0.25196850393700787},{"duration":0.25862050000000636,"midi":75,"time":135.7757625,"velocity":0.25196850393700787},{"duration":0.25862050000000636,"midi":87,"time":135.7757625,"velocity":0.25196850393700787},{"duration":0.25862050000000636,"midi":73,"time":136.03438300000002,"velocity":0.25196850393700787},{"duration":0.25862050000000636,"midi":85,"time":136.03438300000002,"velocity":0.25196850393700787},{"duration":0.5172409999999843,"midi":73,"time":136.29300350000003,"velocity":0.25196850393700787},{"duration":0.5172409999999843,"midi":85,"time":136.29300350000003,"velocity":0.25196850393700787},{"duration":0.5172409999999843,"midi":78,"time":138.36196750000002,"velocity":0.25196850393700787},{"duration":0.5172409999999843,"midi":90,"time":138.36196750000002,"velocity":0.25196850393700787},{"duration":0.5172410000000127,"midi":77,"time":139.137829,"velocity":0.25196850393700787},{"duration":0.5172410000000127,"midi":89,"time":139.137829,"velocity":0.25196850393700787},{"duration":0.25862050000000636,"midi":73,"time":139.65507000000002,"velocity":0.25196850393700787},{"duration":0.25862050000000636,"midi":85,"time":139.65507000000002,"velocity":0.25196850393700787},{"duration":0.25862049999997794,"midi":87,"time":139.91369050000003,"velocity":0.25196850393700787},{"duration":0.25862049999997794,"midi":75,"time":139.91369050000003,"velocity":0.25196850393700787},{"duration":0.25862050000000636,"midi":73,"time":140.172311,"velocity":0.25196850393700787},{"duration":0.25862050000000636,"midi":85,"time":140.172311,"velocity":0.25196850393700787},{"duration":0.5172409999999843,"midi":73,"time":140.68955200000002,"velocity":0.25196850393700787},{"duration":0.5172409999999843,"midi":85,"time":140.68955200000002,"velocity":0.25196850393700787},{"duration":0.5172410000000127,"midi":76,"time":142.4998955,"velocity":0.25196850393700787},{"duration":0.5172410000000127,"midi":88,"time":142.4998955,"velocity":0.25196850393700787},{"duration":0.5172409999999843,"midi":75,"time":143.27575700000003,"velocity":0.25196850393700787},{"duration":0.5172409999999843,"midi":87,"time":143.27575700000003,"velocity":0.25196850393700787},{"duration":0.25862050000000636,"midi":85,"time":143.792998,"velocity":0.25196850393700787},{"duration":0.25862050000000636,"midi":73,"time":143.792998,"velocity":0.25196850393700787},{"duration":0.25862050000000636,"midi":87,"time":144.05161850000002,"velocity":0.25196850393700787},{"duration":0.25862050000000636,"midi":75,"time":144.05161850000002,"velocity":0.25196850393700787},{"duration":0.25862050000000636,"midi":85,"time":144.31023900000002,"velocity":0.25196850393700787},{"duration":0.25862050000000636,"midi":73,"time":144.31023900000002,"velocity":0.25196850393700787},{"duration":0.5172409999999843,"midi":73,"time":144.56885950000003,"velocity":0.25196850393700787},{"duration":0.5172409999999843,"midi":85,"time":144.56885950000003,"velocity":0.25196850393700787},{"duration":0.5172409999999843,"midi":90,"time":146.63782350000002,"velocity":0.25196850393700787},{"duration":0.5172409999999843,"midi":78,"time":146.63782350000002,"velocity":0.25196850393700787},{"duration":0.5172410000000127,"midi":89,"time":147.41368500000002,"velocity":0.25196850393700787},{"duration":0.5172410000000127,"midi":77,"time":147.41368500000002,"velocity":0.25196850393700787},{"duration":0.25862049999997794,"midi":73,"time":147.93092600000003,"velocity":0.25196850393700787},{"duration":0.25862049999997794,"midi":85,"time":147.93092600000003,"velocity":0.25196850393700787},{"duration":0.25862050000000636,"midi":75,"time":148.1895465,"velocity":0.25196850393700787},{"duration":0.25862050000000636,"midi":87,"time":148.1895465,"velocity":0.25196850393700787},{"duration":0.25862050000000636,"midi":85,"time":148.448167,"velocity":0.25196850393700787},{"duration":0.25862050000000636,"midi":73,"time":148.448167,"velocity":0.25196850393700787},{"duration":0.5172409999999843,"midi":73,"time":148.96540800000002,"velocity":0.25196850393700787},{"duration":0.5172409999999843,"midi":85,"time":148.96540800000002,"velocity":0.25196850393700787},{"duration":0.5172410000000127,"midi":88,"time":150.7757515,"velocity":0.25196850393700787},{"duration":0.5172410000000127,"midi":76,"time":150.7757515,"velocity":0.25196850393700787},{"duration":0.5172409999999843,"midi":75,"time":151.55161300000003,"velocity":0.25196850393700787},{"duration":0.5172409999999843,"midi":87,"time":151.55161300000003,"velocity":0.25196850393700787},{"duration":0.25862050000000636,"midi":73,"time":152.06885400000002,"velocity":0.25196850393700787},{"duration":0.25862050000000636,"midi":85,"time":152.06885400000002,"velocity":0.25196850393700787},{"duration":0.25862050000000636,"midi":87,"time":152.32747450000002,"velocity":0.25196850393700787},{"duration":0.25862050000000636,"midi":75,"time":152.32747450000002,"velocity":0.25196850393700787},{"duration":0.25862049999997794,"midi":85,"time":152.58609500000003,"velocity":0.25196850393700787},{"duration":0.25862049999997794,"midi":73,"time":152.58609500000003,"velocity":0.25196850393700787},{"duration":0.5172410000000127,"midi":73,"time":152.8447155,"velocity":0.25196850393700787},{"duration":0.5172410000000127,"midi":85,"time":152.8447155,"velocity":0.25196850393700787},{"duration":0.5172409999999843,"midi":90,"time":154.91367950000003,"velocity":0.25196850393700787},{"duration":0.5172409999999843,"midi":78,"time":154.91367950000003,"velocity":0.25196850393700787},{"duration":0.5172410000000127,"midi":77,"time":155.68954100000002,"velocity":0.25196850393700787},{"duration":0.5172410000000127,"midi":89,"time":155.68954100000002,"velocity":0.25196850393700787},{"duration":0.25862049999997794,"midi":73,"time":156.20678200000003,"velocity":0.25196850393700787},{"duration":0.25862049999997794,"midi":85,"time":156.20678200000003,"velocity":0.25196850393700787},{"duration":0.25862050000000636,"midi":87,"time":156.4654025,"velocity":0.25196850393700787},{"duration":0.25862050000000636,"midi":75,"time":156.4654025,"velocity":0.25196850393700787},{"duration":0.25862050000000636,"midi":73,"time":156.72402300000002,"velocity":0.25196850393700787},{"duration":0.25862050000000636,"midi":85,"time":156.72402300000002,"velocity":0.25196850393700787},{"duration":0.5172409999999843,"midi":85,"time":157.24126400000003,"velocity":0.25196850393700787},{"duration":0.5172409999999843,"midi":73,"time":157.24126400000003,"velocity":0.25196850393700787},{"duration":0.5172410000000127,"midi":88,"time":159.05160750000002,"velocity":0.25196850393700787},{"duration":0.5172410000000127,"midi":76,"time":159.05160750000002,"velocity":0.25196850393700787},{"duration":0.5172410000000127,"midi":87,"time":159.827469,"velocity":0.25196850393700787},{"duration":0.5172410000000127,"midi":75,"time":159.827469,"velocity":0.25196850393700787},{"duration":0.25862050000000636,"midi":85,"time":160.34471000000002,"velocity":0.25196850393700787},{"duration":0.25862050000000636,"midi":73,"time":160.34471000000002,"velocity":0.25196850393700787},{"duration":0.25862050000000636,"midi":87,"time":160.60333050000003,"velocity":0.25196850393700787},{"duration":0.25862050000000636,"midi":75,"time":160.60333050000003,"velocity":0.25196850393700787},{"duration":0.25862049999997794,"midi":73,"time":160.86195100000003,"velocity":0.25196850393700787},{"duration":0.25862049999997794,"midi":85,"time":160.86195100000003,"velocity":0.25196850393700787},{"duration":0.5172410000000127,"midi":73,"time":161.1205715,"velocity":0.25196850393700787},{"duration":0.5172410000000127,"midi":85,"time":161.1205715,"velocity":0.25196850393700787}]}]}
