{"tracks":[{"instrument":{"family":"synth lead","number":87,"name":"lead 8 (bass + lead)"},"notes":[{"duration":0.11999999999999922,"midi":43,"time":15.36,"velocity":0.31496062992125984},{"duration":0.120000000000001,"midi":43,"time":15.719999999999999,"velocity":0.31496062992125984},{"duration":0.120000000000001,"midi":41,"time":16.08,"velocity":0.31496062992125984},{"duration":0.11999999999999744,"midi":43,"time":16.32,"velocity":0.31496062992125984},{"duration":0.120000000000001,"midi":43,"time":16.56,"velocity":0.31496062992125984},{"duration":0.11999999999999744,"midi":38,"time":16.8,"velocity":0.31496062992125984},{"duration":0.120000000000001,"midi":41,"time":17.04,"velocity":0.31496062992125984},{"duration":0.11999999999999744,"midi":43,"time":17.28,"velocity":0.31496062992125984},{"duration":0.11999999999999744,"midi":43,"time":17.64,"velocity":0.31496062992125984},{"duration":0.120000000000001,"midi":41,"time":18,"velocity":0.31496062992125984},{"duration":0.120000000000001,"midi":43,"time":18.24,"velocity":0.31496062992125984},{"duration":0.11999999999999744,"midi":43,"time":18.48,"velocity":0.31496062992125984},{"duration":0.120000000000001,"midi":43,"time":18.72,"velocity":0.31496062992125984},{"duration":0.11999999999999744,"midi":41,"time":18.96,"velocity":0.31496062992125984},{"duration":0.120000000000001,"midi":43,"time":19.2,"velocity":0.31496062992125984},{"duration":0.120000000000001,"midi":43,"time":19.56,"velocity":0.31496062992125984},{"duration":0.120000000000001,"midi":41,"time":19.919999999999998,"velocity":0.31496062992125984},{"duration":0.11999999999999744,"midi":43,"time":20.16,"velocity":0.31496062992125984},{"duration":0.120000000000001,"midi":43,"time":20.4,"velocity":0.31496062992125984},{"duration":0.11999999999999744,"midi":38,"time":20.64,"velocity":0.31496062992125984},{"duration":0.120000000000001,"midi":41,"time":20.88,"velocity":0.31496062992125984},{"duration":0.120000000000001,"midi":43,"time":21.119999999999997,"velocity":0.31496062992125984},{"duration":0.11999999999999744,"midi":43,"time":21.48,"velocity":0.31496062992125984},{"duration":0.120000000000001,"midi":41,"time":21.84,"velocity":0.31496062992125984},{"duration":0.120000000000001,"midi":43,"time":22.08,"velocity":0.31496062992125984},{"duration":0.11999999999999744,"midi":43,"time":22.32,"velocity":0.31496062992125984},{"duration":0.120000000000001,"midi":43,"time":22.56,"velocity":0.31496062992125984},{"duration":0.11999999999999744,"midi":41,"time":22.8,"velocity":0.31496062992125984},{"duration":0.120000000000001,"midi":39,"time":23.04,"velocity":0.31496062992125984},{"duration":0.120000000000001,"midi":39,"time":23.4,"velocity":0.31496062992125984},{"duration":0.120000000000001,"midi":38,"time":23.759999999999998,"velocity":0.31496062992125984},{"duration":0.11999999999999744,"midi":39,"time":24,"velocity":0.31496062992125984},{"duration":0.120000000000001,"midi":39,"time":24.24,"velocity":0.31496062992125984},{"duration":0.11999999999999744,"midi":38,"time":24.48,"velocity":0.31496062992125984},{"duration":0.120000000000001,"midi":41,"time":24.72,"velocity":0.31496062992125984},{"duration":0.11999999999999744,"midi":39,"time":24.96,"velocity":0.31496062992125984},{"duration":0.11999999999999744,"midi":39,"time":25.32,"velocity":0.31496062992125984},{"duration":0.120000000000001,"midi":38,"time":25.68,"velocity":0.31496062992125984},{"duration":0.120000000000001,"midi":39,"time":25.919999999999998,"velocity":0.31496062992125984},{"duration":0.11999999999999744,"midi":39,"time":26.16,"velocity":0.31496062992125984},{"duration":0.120000000000001,"midi":39,"time":26.4,"velocity":0.31496062992125984},{"duration":0.11999999999999744,"midi":41,"time":26.64,"velocity":0.31496062992125984},{"duration":0.120000000000001,"midi":39,"time":26.88,"velocity":0.31496062992125984},{"duration":0.120000000000001,"midi":39,"time":27.24,"velocity":0.31496062992125984},{"duration":0.120000000000001,"midi":38,"time":27.599999999999998,"velocity":0.31496062992125984},{"duration":0.11999999999999744,"midi":39,"time":27.84,"velocity":0.31496062992125984},{"duration":0.120000000000001,"midi":39,"time":28.08,"velocity":0.31496062992125984},{"duration":0.11999999999999744,"midi":38,"time":28.32,"velocity":0.31496062992125984},{"duration":0.120000000000001,"midi":41,"time":28.56,"velocity":0.31496062992125984},{"duration":0.120000000000001,"midi":39,"time":28.799999999999997,"velocity":0.31496062992125984},{"duration":0.11999999999999744,"midi":39,"time":29.16,"velocity":0.31496062992125984},{"duration":0.120000000000001,"midi":38,"time":29.52,"velocity":0.31496062992125984},{"duration":0.120000000000001,"midi":39,"time":29.759999999999998,"velocity":0.31496062992125984},{"duration":0.11999999999999744,"midi":39,"time":30,"velocity":0.31496062992125984},{"duration":0.120000000000001,"midi":39,"time":30.24,"velocity":0.31496062992125984},{"duration":0.11999999999999744,"midi":41,"time":30.48,"velocity":0.31496062992125984},{"duration":0.120000000000001,"midi":43,"time":30.72,"velocity":0.31496062992125984},{"duration":0.120000000000001,"midi":43,"time":31.08,"velocity":0.31496062992125984},{"duration":0.120000000000001,"midi":41,"time":31.439999999999998,"velocity":0.31496062992125984},{"duration":0.11999999999999744,"midi":43,"time":31.68,"velocity":0.31496062992125984},{"duration":0.120000000000001,"midi":43,"time":31.919999999999998,"velocity":0.31496062992125984},{"duration":0.12000000000000455,"midi":38,"time":32.16,"velocity":0.31496062992125984},{"duration":0.11999999999999744,"midi":41,"time":32.4,"velocity":0.31496062992125984},{"duration":0.11999999999999744,"midi":43,"time":32.64,"velocity":0.31496062992125984},{"duration":0.11999999999999744,"midi":43,"time":33,"velocity":0.31496062992125984},{"duration":0.11999999999999744,"midi":41,"time":33.36,"velocity":0.31496062992125984},{"duration":0.11999999999999744,"midi":43,"time":33.6,"velocity":0.31496062992125984},{"duration":0.12000000000000455,"midi":43,"time":33.839999999999996,"velocity":0.31496062992125984},{"duration":0.11999999999999744,"midi":43,"time":34.08,"velocity":0.31496062992125984},{"duration":0.11999999999999744,"midi":41,"time":34.32,"velocity":0.31496062992125984},{"duration":0.11999999999999744,"midi":43,"time":34.56,"velocity":0.31496062992125984},{"duration":0.11999999999999744,"midi":43,"time":34.92,"velocity":0.31496062992125984},{"duration":0.11999999999999744,"midi":41,"time":35.28,"velocity":0.31496062992125984},{"duration":0.12000000000000455,"midi":43,"time":35.519999999999996,"velocity":0.31496062992125984},{"duration":0.11999999999999744,"midi":43,"time":35.76,"velocity":0.31496062992125984},{"duration":0.11999999999999744,"midi":38,"time":36,"velocity":0.31496062992125984},{"duration":0.11999999999999744,"midi":41,"time":36.24,"velocity":0.31496062992125984},{"duration":0.12000000000000455,"midi":43,"time":36.48,"velocity":0.31496062992125984},{"duration":0.12000000000000455,"midi":43,"time":36.839999999999996,"velocity":0.31496062992125984},{"duration":0.12000000000000455,"midi":41,"time":37.199999999999996,"velocity":0.31496062992125984},{"duration":0.11999999999999744,"midi":43,"time":37.44,"velocity":0.31496062992125984},{"duration":0.11999999999999744,"midi":43,"time":37.68,"velocity":0.31496062992125984},{"duration":0.11999999999999744,"midi":43,"time":37.92,"velocity":0.31496062992125984},{"duration":0.12000000000000455,"midi":41,"time":38.16,"velocity":0.31496062992125984},{"duration":0.11999999999999744,"midi":39,"time":38.4,"velocity":0.31496062992125984},{"duration":0.11999999999999744,"midi":39,"time":38.76,"velocity":0.31496062992125984},{"duration":0.12000000000000455,"midi":38,"time":39.12,"velocity":0.31496062992125984},{"duration":0.11999999999999744,"midi":39,"time":39.36,"velocity":0.31496062992125984},{"duration":0.11999999999999744,"midi":39,"time":39.6,"velocity":0.31496062992125984},{"duration":0.12000000000000455,"midi":38,"time":39.839999999999996,"velocity":0.31496062992125984},{"duration":0.11999999999999744,"midi":41,"time":40.08,"velocity":0.31496062992125984},{"duration":0.11999999999999744,"midi":39,"time":40.32,"velocity":0.31496062992125984},{"duration":0.11999999999999744,"midi":39,"time":40.68,"velocity":0.31496062992125984},{"duration":0.11999999999999744,"midi":38,"time":41.04,"velocity":0.31496062992125984},{"duration":0.11999999999999744,"midi":39,"time":41.28,"velocity":0.31496062992125984},{"duration":0.12000000000000455,"midi":39,"time":41.519999999999996,"velocity":0.31496062992125984},{"duration":0.11999999999999744,"midi":39,"time":41.76,"velocity":0.31496062992125984},{"duration":0.11999999999999744,"midi":41,"time":42,"velocity":0.31496062992125984},{"duration":0.12000000000000455,"midi":39,"time":42.239999999999995,"velocity":0.31496062992125984},{"duration":0.11999999999999744,"midi":39,"time":42.6,"velocity":0.31496062992125984},{"duration":0.11999999999999744,"midi":38,"time":42.96,"velocity":0.31496062992125984},{"duration":0.12000000000000455,"midi":39,"time":43.199999999999996,"velocity":0.31496062992125984},{"duration":0.11999999999999744,"midi":39,"time":43.44,"velocity":0.31496062992125984},{"duration":0.11999999999999744,"midi":38,"time":43.68,"velocity":0.31496062992125984},{"duration":0.11999999999999744,"midi":41,"time":43.92,"velocity":0.31496062992125984},{"duration":0.12000000000000455,"midi":39,"time":44.16,"velocity":0.31496062992125984},{"duration":0.12000000000000455,"midi":39,"time":44.519999999999996,"velocity":0.31496062992125984},{"duration":0.12000000000000455,"midi":38,"time":44.879999999999995,"velocity":0.31496062992125984},{"duration":0.11999999999999744,"midi":39,"time":45.12,"velocity":0.31496062992125984},{"duration":0.11999999999999744,"midi":39,"time":45.36,"velocity":0.31496062992125984},{"duration":0.11999999999999744,"midi":39,"time":45.6,"velocity":0.31496062992125984},{"duration":0.12000000000000455,"midi":41,"time":45.839999999999996,"velocity":0.31496062992125984},{"duration":0.11999999999999744,"midi":36,"time":46.08,"velocity":0.31496062992125984},{"duration":0.11999999999999744,"midi":36,"time":46.44,"velocity":0.31496062992125984},{"duration":0.240000000000002,"midi":48,"time":46.8,"velocity":0.31496062992125984},{"duration":0.11999999999999744,"midi":36,"time":47.04,"velocity":0.31496062992125984},{"duration":0.11999999999999744,"midi":36,"time":47.28,"velocity":0.31496062992125984},{"duration":0.12000000000000455,"midi":36,"time":47.519999999999996,"velocity":0.31496062992125984},{"duration":0.240000000000002,"midi":48,"time":47.76,"velocity":0.31496062992125984},{"duration":0.11999999999999744,"midi":38,"time":48,"velocity":0.31496062992125984},{"duration":0.11999999999999744,"midi":38,"time":48.36,"velocity":0.31496062992125984},{"duration":0.240000000000002,"midi":50,"time":48.72,"velocity":0.31496062992125984},{"duration":0.11999999999999744,"midi":38,"time":48.96,"velocity":0.31496062992125984},{"duration":0.12000000000000455,"midi":38,"time":49.199999999999996,"velocity":0.31496062992125984},{"duration":0.11999999999999744,"midi":38,"time":49.44,"velocity":0.31496062992125984},{"duration":0.240000000000002,"midi":50,"time":49.68,"velocity":0.31496062992125984},{"duration":0.11999999999999744,"midi":39,"time":49.92,"velocity":0.31496062992125984},{"duration":0.11999999999999744,"midi":39,"time":50.28,"velocity":0.31496062992125984},{"duration":0.23999999999999488,"midi":51,"time":50.64,"velocity":0.31496062992125984},{"duration":0.12000000000000455,"midi":41,"time":50.879999999999995,"velocity":0.31496062992125984},{"duration":0.11999999999999744,"midi":41,"time":51.12,"velocity":0.31496062992125984},{"duration":0.11999999999999744,"midi":42,"time":51.36,"velocity":0.31496062992125984},{"duration":0.23999999999999488,"midi":54,"time":51.6,"velocity":0.31496062992125984},{"duration":0.12000000000000455,"midi":43,"time":51.839999999999996,"velocity":0.31496062992125984},{"duration":0.12000000000000455,"midi":43,"time":52.199999999999996,"velocity":0.31496062992125984},{"duration":0.12000000000000455,"midi":55,"time":52.559999999999995,"velocity":0.31496062992125984},{"duration":0.11999999999999744,"midi":41,"time":52.8,"velocity":0.31496062992125984},{"duration":0.11999999999999744,"midi":41,"time":53.04,"velocity":0.31496062992125984},{"duration":0.11999999999999744,"midi":41,"time":53.28,"velocity":0.31496062992125984},{"duration":0.240000000000002,"midi":53,"time":53.519999999999996,"velocity":0.31496062992125984},{"duration":0.11999999999999744,"midi":36,"time":53.76,"velocity":0.31496062992125984},{"duration":0.11999999999999744,"midi":36,"time":54.12,"velocity":0.31496062992125984},{"duration":0.240000000000002,"midi":48,"time":54.48,"velocity":0.31496062992125984},{"duration":0.11999999999999744,"midi":36,"time":54.72,"velocity":0.31496062992125984},{"duration":0.11999999999999744,"midi":36,"time":54.96,"velocity":0.31496062992125984},{"duration":0.12000000000000455,"midi":36,"time":55.199999999999996,"velocity":0.31496062992125984},{"duration":0.240000000000002,"midi":48,"time":55.44,"velocity":0.31496062992125984},{"duration":0.11999999999999744,"midi":38,"time":55.68,"velocity":0.31496062992125984},{"duration":0.11999999999999744,"midi":38,"time":56.04,"velocity":0.31496062992125984},{"duration":0.240000000000002,"midi":50,"time":56.4,"velocity":0.31496062992125984},{"duration":0.11999999999999744,"midi":38,"time":56.64,"velocity":0.31496062992125984},{"duration":0.12000000000000455,"midi":38,"time":56.879999999999995,"velocity":0.31496062992125984},{"duration":0.11999999999999744,"midi":38,"time":57.12,"velocity":0.31496062992125984},{"duration":0.23999999999999488,"midi":50,"time":57.36,"velocity":0.31496062992125984},{"duration":0.12000000000000455,"midi":39,"time":57.599999999999994,"velocity":0.31496062992125984},{"duration":0.11999999999999744,"midi":39,"time":57.96,"velocity":0.31496062992125984},{"duration":0.23999999999999488,"midi":51,"time":58.32,"velocity":0.31496062992125984},{"duration":0.12000000000000455,"midi":41,"time":58.559999999999995,"velocity":0.31496062992125984},{"duration":0.11999999999999744,"midi":41,"time":58.8,"velocity":0.31496062992125984},{"duration":0.11999999999999744,"midi":42,"time":59.04,"velocity":0.31496062992125984},{"duration":0.11999999999999744,"midi":54,"time":59.28,"velocity":0.31496062992125984},{"duration":0.12000000000000455,"midi":43,"time":59.519999999999996,"velocity":0.31496062992125984},{"duration":0.12000000000000455,"midi":43,"time":59.879999999999995,"velocity":0.31496062992125984},{"duration":0.240000000000002,"midi":55,"time":60.239999999999995,"velocity":0.31496062992125984},{"duration":0.35999999999999943,"midi":41,"time":60.48,"velocity":0.30708661417322836},{"duration":0.23999999999999488,"midi":39,"time":76.8,"velocity":0.31496062992125984},{"duration":0.23999999999999488,"midi":39,"time":77.16,"velocity":0.31496062992125984},{"duration":0.23999999999999488,"midi":39,"time":77.52,"velocity":0.31496062992125984},{"duration":0.23999999999999488,"midi":39,"time":78,"velocity":0.31496062992125984},{"duration":0.2400000000000091,"midi":43,"time":78.24,"velocity":0.31496062992125984},{"duration":0.23999999999999488,"midi":39,"time":78.48,"velocity":0.31496062992125984},{"duration":0.23999999999999488,"midi":41,"time":78.72,"velocity":0.31496062992125984},{"duration":0.23999999999999488,"midi":41,"time":79.08,"velocity":0.31496062992125984},{"duration":0.23999999999999488,"midi":41,"time":79.44,"velocity":0.31496062992125984},{"duration":0.23999999999999488,"midi":46,"time":79.92,"velocity":0.31496062992125984},{"duration":0.23999999999999488,"midi":45,"time":80.16,"velocity":0.31496062992125984},{"duration":0.2400000000000091,"midi":41,"time":80.39999999999999,"velocity":0.31496062992125984},{"duration":0.23999999999999488,"midi":43,"time":80.64,"velocity":0.31496062992125984},{"duration":0.23999999999999488,"midi":43,"time":81,"velocity":0.31496062992125984},{"duration":0.23999999999999488,"midi":43,"time":81.36,"velocity":0.31496062992125984},{"duration":0.23999999999999488,"midi":43,"time":81.84,"velocity":0.31496062992125984},{"duration":0.23999999999999488,"midi":46,"time":82.08,"velocity":0.31496062992125984},{"duration":0.2400000000000091,"midi":43,"time":82.32,"velocity":0.31496062992125984},{"duration":0.23999999999999488,"midi":38,"time":82.56,"velocity":0.31496062992125984},{"duration":0.23999999999999488,"midi":38,"time":82.92,"velocity":0.31496062992125984},{"duration":0.23999999999999488,"midi":38,"time":83.28,"velocity":0.31496062992125984},{"duration":0.23999999999999488,"midi":45,"time":83.52,"velocity":0.31496062992125984},{"duration":0.2400000000000091,"midi":48,"time":83.75999999999999,"velocity":0.31496062992125984},{"duration":0.23999999999999488,"midi":45,"time":84,"velocity":0.31496062992125984},{"duration":0.23999999999999488,"midi":41,"time":84.24,"velocity":0.31496062992125984},{"duration":0.2400000000000091,"midi":39,"time":84.47999999999999,"velocity":0.31496062992125984},{"duration":0.23999999999999488,"midi":39,"time":84.84,"velocity":0.31496062992125984},{"duration":0.23999999999999488,"midi":39,"time":85.2,"velocity":0.31496062992125984},{"duration":0.2400000000000091,"midi":39,"time":85.67999999999999,"velocity":0.31496062992125984},{"duration":0.23999999999999488,"midi":43,"time":85.92,"velocity":0.31496062992125984},{"duration":0.23999999999999488,"midi":39,"time":86.16,"velocity":0.31496062992125984},{"duration":0.2400000000000091,"midi":41,"time":86.39999999999999,"velocity":0.31496062992125984},{"duration":0.2400000000000091,"midi":41,"time":86.75999999999999,"velocity":0.31496062992125984},{"duration":0.2400000000000091,"midi":41,"time":87.11999999999999,"velocity":0.31496062992125984},{"duration":0.2400000000000091,"midi":46,"time":87.6,"velocity":0.31496062992125984},{"duration":0.23999999999999488,"midi":45,"time":87.84,"velocity":0.31496062992125984},{"duration":0.23999999999999488,"midi":41,"time":88.08,"velocity":0.31496062992125984},{"duration":0.2400000000000091,"midi":36,"time":88.32,"velocity":0.31496062992125984},{"duration":0.2400000000000091,"midi":36,"time":88.67999999999999,"velocity":0.31496062992125984},{"duration":0.2400000000000091,"midi":36,"time":89.03999999999999,"velocity":0.31496062992125984},{"duration":0.11999999999999034,"midi":41,"time":89.28,"velocity":0.31496062992125984},{"duration":0.12000000000000455,"midi":41,"time":89.52,"velocity":0.31496062992125984},{"duration":0.12000000000000455,"midi":42,"time":89.75999999999999,"velocity":0.31496062992125984},{"duration":0.11999999999999034,"midi":42,"time":90,"velocity":0.31496062992125984},{"duration":0.23999999999999488,"midi":43,"time":90.24,"velocity":0.31496062992125984},{"duration":0.2400000000000091,"midi":38,"time":90.6,"velocity":0.31496062992125984},{"duration":0.2400000000000091,"midi":43,"time":90.96,"velocity":0.31496062992125984},{"duration":0.23999999999999488,"midi":41,"time":91.2,"velocity":0.31496062992125984},{"duration":0.23999999999999488,"midi":41,"time":91.44,"velocity":0.31496062992125984},{"duration":0.2400000000000091,"midi":36,"time":91.67999999999999,"velocity":0.31496062992125984},{"duration":0.23999999999999488,"midi":41,"time":91.92,"velocity":0.31496062992125984},{"duration":0.23999999999999488,"midi":36,"time":92.16,"velocity":0.31496062992125984},{"duration":0.23999999999999488,"midi":36,"time":92.52,"velocity":0.31496062992125984},{"duration":0.23999999999999488,"midi":36,"time":92.88,"velocity":0.31496062992125984},{"duration":0.12000000000000455,"midi":41,"time":93.11999999999999,"velocity":0.31496062992125984},{"duration":0.11999999999999034,"midi":41,"time":93.36,"velocity":0.31496062992125984},{"duration":0.12000000000000455,"midi":42,"time":93.6,"velocity":0.31496062992125984},{"duration":0.11999999999999034,"midi":42,"time":93.84,"velocity":0.31496062992125984},{"duration":0.23999999999999488,"midi":43,"time":94.08,"velocity":0.31496062992125984},{"duration":0.23999999999999488,"midi":38,"time":94.44,"velocity":0.31496062992125984},{"duration":0.23999999999999488,"midi":43,"time":94.8,"velocity":0.31496062992125984},{"duration":0.2400000000000091,"midi":41,"time":95.03999999999999,"velocity":0.31496062992125984},{"duration":0.23999999999999488,"midi":41,"time":95.28,"velocity":0.31496062992125984},{"duration":0.23999999999999488,"midi":36,"time":95.52,"velocity":0.31496062992125984},{"duration":0.2400000000000091,"midi":41,"time":95.75999999999999,"velocity":0.31496062992125984},{"duration":0.11999999999999034,"midi":43,"time":99.84,"velocity":0.31496062992125984},{"duration":0.11999999999999034,"midi":43,"time":100.2,"velocity":0.31496062992125984},{"duration":0.11999999999999034,"midi":41,"time":100.56,"velocity":0.31496062992125984},{"duration":0.12000000000000455,"midi":43,"time":100.8,"velocity":0.31496062992125984},{"duration":0.12000000000000455,"midi":43,"time":101.03999999999999,"velocity":0.31496062992125984},{"duration":0.11999999999999034,"midi":38,"time":101.28,"velocity":0.31496062992125984},{"duration":0.12000000000000455,"midi":41,"time":101.52,"velocity":0.31496062992125984},{"duration":0.12000000000000455,"midi":43,"time":101.75999999999999,"velocity":0.31496062992125984},{"duration":0.12000000000000455,"midi":43,"time":102.11999999999999,"velocity":0.31496062992125984},{"duration":0.12000000000000455,"midi":41,"time":102.47999999999999,"velocity":0.31496062992125984},{"duration":0.11999999999999034,"midi":43,"time":102.72,"velocity":0.31496062992125984},{"duration":0.12000000000000455,"midi":43,"time":102.96,"velocity":0.31496062992125984},{"duration":0.11999999999999034,"midi":43,"time":103.2,"velocity":0.31496062992125984},{"duration":0.12000000000000455,"midi":41,"time":103.44,"velocity":0.31496062992125984},{"duration":0.12000000000000455,"midi":43,"time":103.67999999999999,"velocity":0.31496062992125984},{"duration":0.12000000000000455,"midi":43,"time":104.03999999999999,"velocity":0.31496062992125984},{"duration":0.12000000000000455,"midi":41,"time":104.39999999999999,"velocity":0.31496062992125984},{"duration":0.11999999999999034,"midi":43,"time":104.64,"velocity":0.31496062992125984},{"duration":0.12000000000000455,"midi":43,"time":104.88,"velocity":0.31496062992125984},{"duration":0.12000000000000455,"midi":38,"time":105.11999999999999,"velocity":0.31496062992125984},{"duration":0.11999999999999034,"midi":41,"time":105.36,"velocity":0.31496062992125984},{"duration":0.12000000000000455,"midi":43,"time":105.6,"velocity":0.31496062992125984},{"duration":0.12000000000000455,"midi":43,"time":105.96,"velocity":0.31496062992125984},{"duration":0.12000000000000455,"midi":41,"time":106.32,"velocity":0.31496062992125984},{"duration":0.11999999999999034,"midi":43,"time":106.56,"velocity":0.31496062992125984},{"duration":0.12000000000000455,"midi":43,"time":106.8,"velocity":0.31496062992125984},{"duration":0.12000000000000455,"midi":43,"time":107.03999999999999,"velocity":0.31496062992125984},{"duration":0.11999999999999034,"midi":41,"time":107.28,"velocity":0.31496062992125984},{"duration":0.12000000000000455,"midi":39,"time":107.52,"velocity":0.31496062992125984},{"duration":0.12000000000000455,"midi":39,"time":107.88,"velocity":0.31496062992125984},{"duration":0.12000000000000455,"midi":38,"time":108.24,"velocity":0.31496062992125984},{"duration":0.12000000000000455,"midi":39,"time":108.47999999999999,"velocity":0.31496062992125984},{"duration":0.11999999999999034,"midi":39,"time":108.72,"velocity":0.31496062992125984},{"duration":0.12000000000000455,"midi":38,"time":108.96,"velocity":0.31496062992125984},{"duration":0.11999999999999034,"midi":41,"time":109.2,"velocity":0.31496062992125984},{"duration":0.12000000000000455,"midi":39,"time":109.44,"velocity":0.31496062992125984},{"duration":0.12000000000000455,"midi":39,"time":109.8,"velocity":0.31496062992125984},{"duration":0.12000000000000455,"midi":38,"time":110.16,"velocity":0.31496062992125984},{"duration":0.12000000000000455,"midi":39,"time":110.39999999999999,"velocity":0.31496062992125984},{"duration":0.11999999999999034,"midi":39,"time":110.64,"velocity":0.31496062992125984},{"duration":0.12000000000000455,"midi":39,"time":110.88,"velocity":0.31496062992125984},{"duration":0.12000000000000455,"midi":41,"time":111.11999999999999,"velocity":0.31496062992125984},{"duration":0.11999999999999034,"midi":39,"time":111.36,"velocity":0.31496062992125984},{"duration":0.11999999999999034,"midi":39,"time":111.72,"velocity":0.31496062992125984},{"duration":0.12000000000000455,"midi":38,"time":112.08,"velocity":0.31496062992125984},{"duration":0.12000000000000455,"midi":39,"time":112.32,"velocity":0.31496062992125984},{"duration":0.11999999999999034,"midi":39,"time":112.56,"velocity":0.31496062992125984},{"duration":0.12000000000000455,"midi":38,"time":112.8,"velocity":0.31496062992125984},{"duration":0.12000000000000455,"midi":41,"time":113.03999999999999,"velocity":0.31496062992125984},{"duration":0.11999999999999034,"midi":39,"time":113.28,"velocity":0.31496062992125984},{"duration":0.11999999999999034,"midi":39,"time":113.64,"velocity":0.31496062992125984},{"duration":0.11999999999999034,"midi":38,"time":114,"velocity":0.31496062992125984},{"duration":0.12000000000000455,"midi":39,"time":114.24,"velocity":0.31496062992125984},{"duration":0.12000000000000455,"midi":39,"time":114.47999999999999,"velocity":0.31496062992125984},{"duration":0.11999999999999034,"midi":39,"time":114.72,"velocity":0.31496062992125984},{"duration":0.12000000000000455,"midi":41,"time":114.96,"velocity":0.31496062992125984},{"duration":0.12000000000000455,"midi":43,"time":115.19999999999999,"velocity":0.31496062992125984},{"duration":0.11999999999999034,"midi":43,"time":115.56,"velocity":0.31496062992125984},{"duration":0.11999999999999034,"midi":41,"time":115.92,"velocity":0.31496062992125984},{"duration":0.12000000000000455,"midi":43,"time":116.16,"velocity":0.31496062992125984},{"duration":0.12000000000000455,"midi":43,"time":116.39999999999999,"velocity":0.31496062992125984},{"duration":0.11999999999999034,"midi":38,"time":116.64,"velocity":0.31496062992125984},{"duration":0.12000000000000455,"midi":41,"time":116.88,"velocity":0.31496062992125984},{"duration":0.12000000000000455,"midi":43,"time":117.11999999999999,"velocity":0.31496062992125984},{"duration":0.12000000000000455,"midi":43,"time":117.47999999999999,"velocity":0.31496062992125984},{"duration":0.12000000000000455,"midi":41,"time":117.83999999999999,"velocity":0.31496062992125984},{"duration":0.11999999999999034,"midi":43,"time":118.08,"velocity":0.31496062992125984},{"duration":0.12000000000000455,"midi":43,"time":118.32,"velocity":0.31496062992125984},{"duration":0.11999999999999034,"midi":43,"time":118.56,"velocity":0.31496062992125984},{"duration":0.12000000000000455,"midi":41,"time":118.8,"velocity":0.31496062992125984},{"duration":0.12000000000000455,"midi":43,"time":119.03999999999999,"velocity":0.31496062992125984},{"duration":0.12000000000000455,"midi":43,"time":119.39999999999999,"velocity":0.31496062992125984},{"duration":0.12000000000000455,"midi":41,"time":119.75999999999999,"velocity":0.31496062992125984},{"duration":0.11999999999999034,"midi":43,"time":120,"velocity":0.31496062992125984},{"duration":0.12000000000000455,"midi":43,"time":120.24,"velocity":0.31496062992125984},{"duration":0.12000000000000455,"midi":38,"time":120.47999999999999,"velocity":0.31496062992125984},{"duration":0.11999999999999034,"midi":41,"time":120.72,"velocity":0.31496062992125984},{"duration":0.12000000000000455,"midi":43,"time":120.96,"velocity":0.31496062992125984},{"duration":0.12000000000000455,"midi":43,"time":121.32,"velocity":0.31496062992125984},{"duration":0.12000000000000455,"midi":41,"time":121.67999999999999,"velocity":0.31496062992125984},{"duration":0.11999999999999034,"midi":43,"time":121.92,"velocity":0.31496062992125984},{"duration":0.12000000000000455,"midi":43,"time":122.16,"velocity":0.31496062992125984},{"duration":0.12000000000000455,"midi":43,"time":122.39999999999999,"velocity":0.31496062992125984},{"duration":0.11999999999999034,"midi":41,"time":122.64,"velocity":0.31496062992125984},{"duration":0.12000000000000455,"midi":39,"time":122.88,"velocity":0.31496062992125984},{"duration":0.12000000000000455,"midi":39,"time":123.24,"velocity":0.31496062992125984},{"duration":0.12000000000000455,"midi":38,"time":123.6,"velocity":0.31496062992125984},{"duration":0.12000000000000455,"midi":39,"time":123.83999999999999,"velocity":0.31496062992125984},{"duration":0.11999999999999034,"midi":39,"time":124.08,"velocity":0.31496062992125984},{"duration":0.12000000000000455,"midi":38,"time":124.32,"velocity":0.31496062992125984},{"duration":0.11999999999999034,"midi":41,"time":124.56,"velocity":0.31496062992125984},{"duration":0.12000000000000455,"midi":39,"time":124.8,"velocity":0.31496062992125984},{"duration":0.12000000000000455,"midi":39,"time":125.16,"velocity":0.31496062992125984},{"duration":0.12000000000000455,"midi":38,"time":125.52,"velocity":0.31496062992125984},{"duration":0.12000000000000455,"midi":39,"time":125.75999999999999,"velocity":0.31496062992125984},{"duration":0.11999999999999034,"midi":39,"time":126,"velocity":0.31496062992125984},{"duration":0.12000000000000455,"midi":39,"time":126.24,"velocity":0.31496062992125984},{"duration":0.12000000000000455,"midi":41,"time":126.47999999999999,"velocity":0.31496062992125984},{"duration":0.11999999999999034,"midi":39,"time":126.72,"velocity":0.31496062992125984},{"duration":0.11999999999999034,"midi":39,"time":127.08,"velocity":0.31496062992125984},{"duration":0.12000000000000455,"midi":38,"time":127.44,"velocity":0.31496062992125984},{"duration":0.12000000000000455,"midi":39,"time":127.67999999999999,"velocity":0.31496062992125984},{"duration":0.11999999999999034,"midi":39,"time":127.92,"velocity":0.31496062992125984},{"duration":0.12000000000000455,"midi":38,"time":128.16,"velocity":0.31496062992125984},{"duration":0.11999999999997613,"midi":41,"time":128.4,"velocity":0.31496062992125984},{"duration":0.12000000000000455,"midi":39,"time":128.64,"velocity":0.31496062992125984},{"duration":0.12000000000000455,"midi":39,"time":129,"velocity":0.31496062992125984},{"duration":0.12000000000000455,"midi":38,"time":129.35999999999999,"velocity":0.31496062992125984},{"duration":0.12000000000000455,"midi":39,"time":129.6,"velocity":0.31496062992125984},{"duration":0.12000000000000455,"midi":39,"time":129.84,"velocity":0.31496062992125984},{"duration":0.12000000000000455,"midi":39,"time":130.07999999999998,"velocity":0.31496062992125984},{"duration":0.12000000000000455,"midi":41,"time":130.32,"velocity":0.31496062992125984},{"duration":0.12000000000000455,"midi":43,"time":176.64,"velocity":0.31496062992125984},{"duration":0.12000000000000455,"midi":43,"time":177,"velocity":0.31496062992125984},{"duration":0.12000000000000455,"midi":41,"time":177.35999999999999,"velocity":0.31496062992125984},{"duration":0.12000000000000455,"midi":43,"time":177.6,"velocity":0.31496062992125984},{"duration":0.11999999999997613,"midi":43,"time":177.84,"velocity":0.31496062992125984},{"duration":0.12000000000000455,"midi":38,"time":178.07999999999998,"velocity":0.31496062992125984},{"duration":0.12000000000000455,"midi":41,"time":178.32,"velocity":0.31496062992125984},{"duration":0.12000000000000455,"midi":43,"time":178.56,"velocity":0.31496062992125984},{"duration":0.12000000000000455,"midi":43,"time":178.92,"velocity":0.31496062992125984},{"duration":0.12000000000000455,"midi":41,"time":179.28,"velocity":0.31496062992125984},{"duration":0.12000000000000455,"midi":43,"time":179.51999999999998,"velocity":0.31496062992125984},{"duration":0.12000000000000455,"midi":43,"time":179.76,"velocity":0.31496062992125984},{"duration":0.12000000000000455,"midi":43,"time":180,"velocity":0.31496062992125984},{"duration":0.12000000000000455,"midi":41,"time":180.23999999999998,"velocity":0.31496062992125984},{"duration":0.12000000000000455,"midi":43,"time":180.48,"velocity":0.31496062992125984},{"duration":0.11999999999997613,"midi":43,"time":180.84,"velocity":0.31496062992125984},{"duration":0.12000000000000455,"midi":41,"time":181.2,"velocity":0.31496062992125984},{"duration":0.12000000000000455,"midi":43,"time":181.44,"velocity":0.31496062992125984},{"duration":0.11999999999997613,"midi":43,"time":181.68,"velocity":0.31496062992125984},{"duration":0.12000000000000455,"midi":38,"time":181.92,"velocity":0.31496062992125984},{"duration":0.12000000000000455,"midi":41,"time":182.16,"velocity":0.31496062992125984},{"duration":0.11999999999997613,"midi":43,"time":182.4,"velocity":0.31496062992125984},{"duration":0.12000000000000455,"midi":43,"time":182.76,"velocity":0.31496062992125984},{"duration":0.11999999999997613,"midi":41,"time":183.12,"velocity":0.31496062992125984},{"duration":0.12000000000000455,"midi":43,"time":183.35999999999999,"velocity":0.31496062992125984},{"duration":0.12000000000000455,"midi":43,"time":183.6,"velocity":0.31496062992125984},{"duration":0.11999999999997613,"midi":43,"time":183.84,"velocity":0.31496062992125984},{"duration":0.12000000000000455,"midi":41,"time":184.07999999999998,"velocity":0.31496062992125984},{"duration":0.12000000000000455,"midi":39,"time":184.32,"velocity":0.31496062992125984},{"duration":0.11999999999997613,"midi":39,"time":184.68,"velocity":0.31496062992125984},{"duration":0.12000000000000455,"midi":38,"time":185.04,"velocity":0.31496062992125984},{"duration":0.12000000000000455,"midi":39,"time":185.28,"velocity":0.31496062992125984},{"duration":0.12000000000000455,"midi":39,"time":185.51999999999998,"velocity":0.31496062992125984},{"duration":0.12000000000000455,"midi":38,"time":185.76,"velocity":0.31496062992125984},{"duration":0.12000000000000455,"midi":41,"time":186,"velocity":0.31496062992125984},{"duration":0.12000000000000455,"midi":39,"time":186.23999999999998,"velocity":0.31496062992125984},{"duration":0.12000000000000455,"midi":39,"time":186.6,"velocity":0.31496062992125984},{"duration":0.12000000000000455,"midi":38,"time":186.95999999999998,"velocity":0.31496062992125984},{"duration":0.12000000000000455,"midi":39,"time":187.2,"velocity":0.31496062992125984},{"duration":0.12000000000000455,"midi":39,"time":187.44,"velocity":0.31496062992125984},{"duration":0.11999999999997613,"midi":39,"time":187.68,"velocity":0.31496062992125984},{"duration":0.12000000000000455,"midi":41,"time":187.92,"velocity":0.31496062992125984},{"duration":0.12000000000000455,"midi":39,"time":188.16,"velocity":0.31496062992125984},{"duration":0.12000000000000455,"midi":39,"time":188.51999999999998,"velocity":0.31496062992125984},{"duration":0.12000000000000455,"midi":38,"time":188.88,"velocity":0.31496062992125984},{"duration":0.11999999999997613,"midi":39,"time":189.12,"velocity":0.31496062992125984},{"duration":0.12000000000000455,"midi":39,"time":189.35999999999999,"velocity":0.31496062992125984},{"duration":0.12000000000000455,"midi":38,"time":189.6,"velocity":0.31496062992125984},{"duration":0.11999999999997613,"midi":41,"time":189.84,"velocity":0.31496062992125984},{"duration":0.12000000000000455,"midi":39,"time":190.07999999999998,"velocity":0.31496062992125984},{"duration":0.12000000000000455,"midi":39,"time":190.44,"velocity":0.31496062992125984},{"duration":0.12000000000000455,"midi":38,"time":190.79999999999998,"velocity":0.31496062992125984},{"duration":0.12000000000000455,"midi":39,"time":191.04,"velocity":0.31496062992125984},{"duration":0.12000000000000455,"midi":39,"time":191.28,"velocity":0.31496062992125984},{"duration":0.12000000000000455,"midi":39,"time":191.51999999999998,"velocity":0.31496062992125984},{"duration":0.12000000000000455,"midi":41,"time":191.76,"velocity":0.31496062992125984},{"duration":0.12000000000000455,"midi":43,"time":192,"velocity":0.31496062992125984},{"duration":0.12000000000000455,"midi":43,"time":192.35999999999999,"velocity":0.31496062992125984},{"duration":0.12000000000000455,"midi":41,"time":192.72,"velocity":0.31496062992125984},{"duration":0.12000000000000455,"midi":43,"time":192.95999999999998,"velocity":0.31496062992125984},{"duration":0.12000000000000455,"midi":43,"time":193.2,"velocity":0.31496062992125984},{"duration":0.12000000000000455,"midi":38,"time":193.44,"velocity":0.31496062992125984},{"duration":0.11999999999997613,"midi":41,"time":193.68,"velocity":0.31496062992125984},{"duration":0.12000000000000455,"midi":43,"time":193.92,"velocity":0.31496062992125984},{"duration":0.12000000000000455,"midi":43,"time":194.28,"velocity":0.31496062992125984},{"duration":0.12000000000000455,"midi":41,"time":194.64,"velocity":0.31496062992125984},{"duration":0.12000000000000455,"midi":43,"time":194.88,"velocity":0.31496062992125984},{"duration":0.11999999999997613,"midi":43,"time":195.12,"velocity":0.31496062992125984},{"duration":0.12000000000000455,"midi":43,"time":195.35999999999999,"velocity":0.31496062992125984},{"duration":0.12000000000000455,"midi":41,"time":195.6,"velocity":0.31496062992125984},{"duration":0.11999999999997613,"midi":43,"time":195.84,"velocity":0.31496062992125984},{"duration":0.12000000000000455,"midi":43,"time":196.2,"velocity":0.31496062992125984},{"duration":0.12000000000000455,"midi":41,"time":196.56,"velocity":0.31496062992125984},{"duration":0.12000000000000455,"midi":43,"time":196.79999999999998,"velocity":0.31496062992125984},{"duration":0.12000000000000455,"midi":43,"time":197.04,"velocity":0.31496062992125984},{"duration":0.12000000000000455,"midi":38,"time":197.28,"velocity":0.31496062992125984},{"duration":0.12000000000000455,"midi":41,"time":197.51999999999998,"velocity":0.31496062992125984},{"duration":0.12000000000000455,"midi":43,"time":197.76,"velocity":0.31496062992125984},{"duration":0.11999999999997613,"midi":43,"time":198.12,"velocity":0.31496062992125984},{"duration":0.12000000000000455,"midi":41,"time":198.48,"velocity":0.31496062992125984},{"duration":0.12000000000000455,"midi":43,"time":198.72,"velocity":0.31496062992125984},{"duration":0.12000000000000455,"midi":43,"time":198.95999999999998,"velocity":0.31496062992125984},{"duration":0.12000000000000455,"midi":43,"time":199.2,"velocity":0.31496062992125984},{"duration":0.12000000000000455,"midi":41,"time":199.44,"velocity":0.31496062992125984},{"duration":0.11999999999997613,"midi":39,"time":199.68,"velocity":0.31496062992125984},{"duration":0.12000000000000455,"midi":39,"time":200.04,"velocity":0.31496062992125984},{"duration":0.11999999999997613,"midi":38,"time":200.4,"velocity":0.31496062992125984},{"duration":0.12000000000000455,"midi":39,"time":200.64,"velocity":0.31496062992125984},{"duration":0.12000000000000455,"midi":39,"time":200.88,"velocity":0.31496062992125984},{"duration":0.11999999999997613,"midi":38,"time":201.12,"velocity":0.31496062992125984},{"duration":0.12000000000000455,"midi":41,"time":201.35999999999999,"velocity":0.31496062992125984},{"duration":0.12000000000000455,"midi":39,"time":201.6,"velocity":0.31496062992125984},{"duration":0.12000000000000455,"midi":39,"time":201.95999999999998,"velocity":0.31496062992125984},{"duration":0.12000000000000455,"midi":38,"time":202.32,"velocity":0.31496062992125984},{"duration":0.11999999999997613,"midi":39,"time":202.56,"velocity":0.31496062992125984},{"duration":0.12000000000000455,"midi":39,"time":202.79999999999998,"velocity":0.31496062992125984},{"duration":0.12000000000000455,"midi":39,"time":203.04,"velocity":0.31496062992125984},{"duration":0.12000000000000455,"midi":41,"time":203.28,"velocity":0.31496062992125984},{"duration":0.12000000000000455,"midi":39,"time":203.51999999999998,"velocity":0.31496062992125984},{"duration":0.12000000000000455,"midi":39,"time":203.88,"velocity":0.31496062992125984},{"duration":0.12000000000000455,"midi":38,"time":204.23999999999998,"velocity":0.31496062992125984},{"duration":0.12000000000000455,"midi":39,"time":204.48,"velocity":0.31496062992125984},{"duration":0.12000000000000455,"midi":39,"time":204.72,"velocity":0.31496062992125984},{"duration":0.12000000000000455,"midi":38,"time":204.95999999999998,"velocity":0.31496062992125984},{"duration":0.12000000000000455,"midi":41,"time":205.2,"velocity":0.31496062992125984},{"duration":0.12000000000000455,"midi":39,"time":205.44,"velocity":0.31496062992125984},{"duration":0.12000000000000455,"midi":39,"time":205.79999999999998,"velocity":0.31496062992125984},{"duration":0.12000000000000455,"midi":38,"time":206.16,"velocity":0.31496062992125984},{"duration":0.11999999999997613,"midi":39,"time":206.4,"velocity":0.31496062992125984},{"duration":0.12000000000000455,"midi":39,"time":206.64,"velocity":0.31496062992125984},{"duration":0.12000000000000455,"midi":39,"time":206.88,"velocity":0.31496062992125984},{"duration":0.11999999999997613,"midi":41,"time":207.12,"velocity":0.31496062992125984},{"duration":0.12000000000000455,"midi":36,"time":207.35999999999999,"velocity":0.31496062992125984},{"duration":0.12000000000000455,"midi":36,"time":207.72,"velocity":0.31496062992125984},{"duration":0.2400000000000091,"midi":48,"time":208.07999999999998,"velocity":0.31496062992125984},{"duration":0.12000000000000455,"midi":36,"time":208.32,"velocity":0.31496062992125984},{"duration":0.11999999999997613,"midi":36,"time":208.56,"velocity":0.31496062992125984},{"duration":0.12000000000000455,"midi":36,"time":208.79999999999998,"velocity":0.31496062992125984},{"duration":0.2400000000000091,"midi":48,"time":209.04,"velocity":0.31496062992125984},{"duration":0.12000000000000455,"midi":38,"time":209.28,"velocity":0.31496062992125984},{"duration":0.12000000000000455,"midi":38,"time":209.64,"velocity":0.31496062992125984},{"duration":0.23999999999998067,"midi":50,"time":210,"velocity":0.31496062992125984},{"duration":0.12000000000000455,"midi":38,"time":210.23999999999998,"velocity":0.31496062992125984},{"duration":0.12000000000000455,"midi":38,"time":210.48,"velocity":0.31496062992125984},{"duration":0.12000000000000455,"midi":38,"time":210.72,"velocity":0.31496062992125984},{"duration":0.2400000000000091,"midi":50,"time":210.95999999999998,"velocity":0.31496062992125984},{"duration":0.12000000000000455,"midi":39,"time":211.2,"velocity":0.31496062992125984},{"duration":0.11999999999997613,"midi":39,"time":211.56,"velocity":0.31496062992125984},{"duration":0.2400000000000091,"midi":51,"time":211.92,"velocity":0.31496062992125984},{"duration":0.12000000000000455,"midi":41,"time":212.16,"velocity":0.31496062992125984},{"duration":0.11999999999997613,"midi":41,"time":212.4,"velocity":0.31496062992125984},{"duration":0.12000000000000455,"midi":42,"time":212.64,"velocity":0.31496062992125984},{"duration":0.2400000000000091,"midi":54,"time":212.88,"velocity":0.31496062992125984},{"duration":0.11999999999997613,"midi":43,"time":213.12,"velocity":0.31496062992125984},{"duration":0.12000000000000455,"midi":43,"time":213.48,"velocity":0.31496062992125984},{"duration":0.11999999999997613,"midi":55,"time":213.84,"velocity":0.31496062992125984},{"duration":0.12000000000000455,"midi":41,"time":214.07999999999998,"velocity":0.31496062992125984},{"duration":0.12000000000000455,"midi":41,"time":214.32,"velocity":0.31496062992125984},{"duration":0.11999999999997613,"midi":41,"time":214.56,"velocity":0.31496062992125984},{"duration":0.2400000000000091,"midi":53,"time":214.79999999999998,"velocity":0.31496062992125984},{"duration":0.12000000000000455,"midi":36,"time":215.04,"velocity":0.31496062992125984},{"duration":0.11999999999997613,"midi":36,"time":215.4,"velocity":0.31496062992125984},{"duration":0.2400000000000091,"midi":48,"time":215.76,"velocity":0.31496062992125984},{"duration":0.12000000000000455,"midi":36,"time":216,"velocity":0.31496062992125984},{"duration":0.12000000000000455,"midi":36,"time":216.23999999999998,"velocity":0.31496062992125984},{"duration":0.12000000000000455,"midi":36,"time":216.48,"velocity":0.31496062992125984},{"duration":0.23999999999998067,"midi":48,"time":216.72,"velocity":0.31496062992125984},{"duration":0.12000000000000455,"midi":38,"time":216.95999999999998,"velocity":0.31496062992125984},{"duration":0.12000000000000455,"midi":38,"time":217.32,"velocity":0.31496062992125984},{"duration":0.2400000000000091,"midi":50,"time":217.67999999999998,"velocity":0.31496062992125984},{"duration":0.12000000000000455,"midi":38,"time":217.92,"velocity":0.31496062992125984},{"duration":0.12000000000000455,"midi":38,"time":218.16,"velocity":0.31496062992125984},{"duration":0.11999999999997613,"midi":38,"time":218.4,"velocity":0.31496062992125984},{"duration":0.2400000000000091,"midi":50,"time":218.64,"velocity":0.31496062992125984},{"duration":0.12000000000000455,"midi":39,"time":218.88,"velocity":0.31496062992125984},{"duration":0.12000000000000455,"midi":39,"time":219.23999999999998,"velocity":0.31496062992125984},{"duration":0.2400000000000091,"midi":51,"time":219.6,"velocity":0.31496062992125984},{"duration":0.11999999999997613,"midi":41,"time":219.84,"velocity":0.31496062992125984},{"duration":0.12000000000000455,"midi":41,"time":220.07999999999998,"velocity":0.31496062992125984},{"duration":0.12000000000000455,"midi":42,"time":220.32,"velocity":0.31496062992125984},{"duration":0.11999999999997613,"midi":54,"time":220.56,"velocity":0.31496062992125984},{"duration":0.12000000000000455,"midi":43,"time":220.79999999999998,"velocity":0.31496062992125984},{"duration":0.12000000000000455,"midi":43,"time":221.16,"velocity":0.31496062992125984},{"duration":0.2400000000000091,"midi":55,"time":221.51999999999998,"velocity":0.31496062992125984},{"duration":0.36000000000001364,"midi":41,"time":221.76,"velocity":0.30708661417322836},{"duration":0.2400000000000091,"midi":39,"time":238.07999999999998,"velocity":0.31496062992125984},{"duration":0.23999999999998067,"midi":39,"time":238.44,"velocity":0.31496062992125984},{"duration":0.2400000000000091,"midi":39,"time":238.79999999999998,"velocity":0.31496062992125984},{"duration":0.23999999999998067,"midi":39,"time":239.28,"velocity":0.31496062992125984},{"duration":0.2400000000000091,"midi":43,"time":239.51999999999998,"velocity":0.31496062992125984},{"duration":0.2400000000000091,"midi":39,"time":239.76,"velocity":0.31496062992125984},{"duration":0.23999999999998067,"midi":41,"time":240,"velocity":0.31496062992125984},{"duration":0.2400000000000091,"midi":41,"time":240.35999999999999,"velocity":0.31496062992125984},{"duration":0.23999999999998067,"midi":41,"time":240.72,"velocity":0.31496062992125984},{"duration":0.2400000000000091,"midi":46,"time":241.2,"velocity":0.31496062992125984},{"duration":0.23999999999998067,"midi":45,"time":241.44,"velocity":0.31496062992125984},{"duration":0.2400000000000091,"midi":41,"time":241.67999999999998,"velocity":0.31496062992125984},{"duration":0.2400000000000091,"midi":43,"time":241.92,"velocity":0.31496062992125984},{"duration":0.23999999999998067,"midi":43,"time":242.28,"velocity":0.31496062992125984},{"duration":0.2400000000000091,"midi":43,"time":242.64,"velocity":0.31496062992125984},{"duration":0.23999999999998067,"midi":43,"time":243.12,"velocity":0.31496062992125984},{"duration":0.2400000000000091,"midi":46,"time":243.35999999999999,"velocity":0.31496062992125984},{"duration":0.2400000000000091,"midi":43,"time":243.6,"velocity":0.31496062992125984},{"duration":0.23999999999998067,"midi":38,"time":243.84,"velocity":0.31496062992125984},{"duration":0.2400000000000091,"midi":38,"time":244.2,"velocity":0.31496062992125984},{"duration":0.23999999999998067,"midi":38,"time":244.56,"velocity":0.31496062992125984},{"duration":0.2400000000000091,"midi":45,"time":244.79999999999998,"velocity":0.31496062992125984},{"duration":0.2400000000000091,"midi":48,"time":245.04,"velocity":0.31496062992125984},{"duration":0.23999999999998067,"midi":45,"time":245.28,"velocity":0.31496062992125984},{"duration":0.2400000000000091,"midi":41,"time":245.51999999999998,"velocity":0.31496062992125984},{"duration":0.2400000000000091,"midi":39,"time":245.76,"velocity":0.31496062992125984},{"duration":0.23999999999998067,"midi":39,"time":246.12,"velocity":0.31496062992125984},{"duration":0.2400000000000091,"midi":39,"time":246.48,"velocity":0.31496062992125984},{"duration":0.2400000000000091,"midi":39,"time":246.95999999999998,"velocity":0.31496062992125984},{"duration":0.2400000000000091,"midi":43,"time":247.2,"velocity":0.31496062992125984},{"duration":0.23999999999998067,"midi":39,"time":247.44,"velocity":0.31496062992125984},{"duration":0.2400000000000091,"midi":41,"time":247.67999999999998,"velocity":0.31496062992125984},{"duration":0.2400000000000091,"midi":41,"time":248.04,"velocity":0.31496062992125984},{"duration":0.2400000000000091,"midi":41,"time":248.39999999999998,"velocity":0.31496062992125984},{"duration":0.2400000000000091,"midi":46,"time":248.88,"velocity":0.31496062992125984},{"duration":0.23999999999998067,"midi":45,"time":249.12,"velocity":0.31496062992125984},{"duration":0.2400000000000091,"midi":41,"time":249.35999999999999,"velocity":0.31496062992125984},{"duration":0.2400000000000091,"midi":36,"time":249.6,"velocity":0.31496062992125984},{"duration":0.2400000000000091,"midi":36,"time":249.95999999999998,"velocity":0.31496062992125984},{"duration":0.2400000000000091,"midi":36,"time":250.32,"velocity":0.31496062992125984},{"duration":0.11999999999997613,"midi":41,"time":250.56,"velocity":0.31496062992125984},{"duration":0.12000000000000455,"midi":41,"time":250.79999999999998,"velocity":0.31496062992125984},{"duration":0.12000000000000455,"midi":42,"time":251.04,"velocity":0.31496062992125984},{"duration":0.11999999999997613,"midi":42,"time":251.28,"velocity":0.31496062992125984},{"duration":0.2400000000000091,"midi":43,"time":251.51999999999998,"velocity":0.31496062992125984},{"duration":0.2400000000000091,"midi":38,"time":251.88,"velocity":0.31496062992125984},{"duration":0.2400000000000091,"midi":43,"time":252.23999999999998,"velocity":0.31496062992125984},{"duration":0.2400000000000091,"midi":41,"time":252.48,"velocity":0.31496062992125984},{"duration":0.23999999999998067,"midi":41,"time":252.72,"velocity":0.31496062992125984},{"duration":0.2400000000000091,"midi":36,"time":252.95999999999998,"velocity":0.31496062992125984},{"duration":0.2400000000000091,"midi":41,"time":253.2,"velocity":0.31496062992125984},{"duration":0.23999999999998067,"midi":36,"time":253.44,"velocity":0.31496062992125984},{"duration":0.2400000000000091,"midi":36,"time":253.79999999999998,"velocity":0.31496062992125984},{"duration":0.23999999999998067,"midi":36,"time":254.16,"velocity":0.31496062992125984},{"duration":0.12000000000000455,"midi":41,"time":254.39999999999998,"velocity":0.31496062992125984},{"duration":0.12000000000000455,"midi":41,"time":254.64,"velocity":0.31496062992125984},{"duration":0.12000000000000455,"midi":42,"time":254.88,"velocity":0.31496062992125984},{"duration":0.11999999999997613,"midi":42,"time":255.12,"velocity":0.31496062992125984},{"duration":0.2400000000000091,"midi":43,"time":255.35999999999999,"velocity":0.31496062992125984},{"duration":0.23999999999998067,"midi":38,"time":255.72,"velocity":0.31496062992125984},{"duration":0.2400000000000091,"midi":43,"time":256.08,"velocity":0.31496062992125984},{"duration":0.2400000000000091,"midi":41,"time":256.32,"velocity":0.31496062992125984},{"duration":0.2400000000000091,"midi":41,"time":256.56,"velocity":0.31496062992125984},{"duration":0.23999999999995225,"midi":36,"time":256.8,"velocity":0.31496062992125984},{"duration":0.2400000000000091,"midi":41,"time":257.03999999999996,"velocity":0.31496062992125984},{"duration":0.12000000000000455,"midi":43,"time":261.12,"velocity":0.31496062992125984},{"duration":0.1199999999999477,"midi":43,"time":261.48,"velocity":0.31496062992125984},{"duration":0.12000000000000455,"midi":41,"time":261.84,"velocity":0.31496062992125984},{"duration":0.12000000000000455,"midi":43,"time":262.08,"velocity":0.31496062992125984},{"duration":0.12000000000000455,"midi":43,"time":262.32,"velocity":0.31496062992125984},{"duration":0.12000000000000455,"midi":38,"time":262.56,"velocity":0.31496062992125984},{"duration":0.12000000000000455,"midi":41,"time":262.8,"velocity":0.31496062992125984},{"duration":0.12000000000000455,"midi":43,"time":263.03999999999996,"velocity":0.31496062992125984},{"duration":0.12000000000000455,"midi":43,"time":263.4,"velocity":0.31496062992125984},{"duration":0.12000000000000455,"midi":41,"time":263.76,"velocity":0.31496062992125984},{"duration":0.12000000000000455,"midi":43,"time":264,"velocity":0.31496062992125984},{"duration":0.12000000000000455,"midi":43,"time":264.24,"velocity":0.31496062992125984},{"duration":0.1199999999999477,"midi":43,"time":264.48,"velocity":0.31496062992125984},{"duration":0.12000000000000455,"midi":41,"time":264.71999999999997,"velocity":0.31496062992125984},{"duration":0.12000000000000455,"midi":43,"time":264.96,"velocity":0.31496062992125984},{"duration":0.12000000000000455,"midi":43,"time":265.32,"velocity":0.31496062992125984},{"duration":0.12000000000000455,"midi":41,"time":265.68,"velocity":0.31496062992125984},{"duration":0.1199999999999477,"midi":43,"time":265.92,"velocity":0.31496062992125984},{"duration":0.12000000000000455,"midi":43,"time":266.15999999999997,"velocity":0.31496062992125984},{"duration":0.12000000000000455,"midi":38,"time":266.4,"velocity":0.31496062992125984},{"duration":0.12000000000000455,"midi":41,"time":266.64,"velocity":0.31496062992125984},{"duration":0.12000000000000455,"midi":43,"time":266.88,"velocity":0.31496062992125984},{"duration":0.12000000000000455,"midi":43,"time":267.24,"velocity":0.31496062992125984},{"duration":0.12000000000000455,"midi":41,"time":267.59999999999997,"velocity":0.31496062992125984},{"duration":0.12000000000000455,"midi":43,"time":267.84,"velocity":0.31496062992125984},{"duration":0.12000000000000455,"midi":43,"time":268.08,"velocity":0.31496062992125984},{"duration":0.12000000000000455,"midi":43,"time":268.32,"velocity":0.31496062992125984},{"duration":0.12000000000000455,"midi":41,"time":268.56,"velocity":0.31496062992125984},{"duration":0.12000000000000455,"midi":39,"time":268.8,"velocity":0.31496062992125984},{"duration":0.12000000000000455,"midi":39,"time":269.15999999999997,"velocity":0.31496062992125984},{"duration":0.12000000000000455,"midi":38,"time":269.52,"velocity":0.31496062992125984},{"duration":0.12000000000000455,"midi":39,"time":269.76,"velocity":0.31496062992125984},{"duration":0.12000000000000455,"midi":39,"time":270,"velocity":0.31496062992125984},{"duration":0.12000000000000455,"midi":38,"time":270.24,"velocity":0.31496062992125984},{"duration":0.1199999999999477,"midi":41,"time":270.48,"velocity":0.31496062992125984},{"duration":0.12000000000000455,"midi":39,"time":270.71999999999997,"velocity":0.31496062992125984},{"duration":0.12000000000000455,"midi":39,"time":271.08,"velocity":0.31496062992125984},{"duration":0.12000000000000455,"midi":38,"time":271.44,"velocity":0.31496062992125984},{"duration":0.12000000000000455,"midi":39,"time":271.68,"velocity":0.31496062992125984},{"duration":0.1199999999999477,"midi":39,"time":271.92,"velocity":0.31496062992125984},{"duration":0.12000000000000455,"midi":39,"time":272.15999999999997,"velocity":0.31496062992125984},{"duration":0.12000000000000455,"midi":41,"time":272.4,"velocity":0.31496062992125984},{"duration":0.12000000000000455,"midi":39,"time":272.64,"velocity":0.31496062992125984},{"duration":0.12000000000000455,"midi":39,"time":273,"velocity":0.31496062992125984},{"duration":0.12000000000000455,"midi":38,"time":273.36,"velocity":0.31496062992125984},{"duration":0.12000000000000455,"midi":39,"time":273.59999999999997,"velocity":0.31496062992125984},{"duration":0.12000000000000455,"midi":39,"time":273.84,"velocity":0.31496062992125984},{"duration":0.12000000000000455,"midi":38,"time":274.08,"velocity":0.31496062992125984},{"duration":0.12000000000000455,"midi":41,"time":274.32,"velocity":0.31496062992125984},{"duration":0.12000000000000455,"midi":39,"time":274.56,"velocity":0.31496062992125984},{"duration":0.1199999999999477,"midi":39,"time":274.92,"velocity":0.31496062992125984},{"duration":0.12000000000000455,"midi":38,"time":275.28,"velocity":0.31496062992125984},{"duration":0.12000000000000455,"midi":39,"time":275.52,"velocity":0.31496062992125984},{"duration":0.12000000000000455,"midi":39,"time":275.76,"velocity":0.31496062992125984},{"duration":0.12000000000000455,"midi":39,"time":276,"velocity":0.31496062992125984},{"duration":0.12000000000000455,"midi":41,"time":276.24,"velocity":0.31496062992125984},{"duration":0.1199999999999477,"midi":43,"time":276.48,"velocity":0.31496062992125984},{"duration":0.12000000000000455,"midi":43,"time":276.84,"velocity":0.31496062992125984},{"duration":0.12000000000000455,"midi":41,"time":277.2,"velocity":0.31496062992125984},{"duration":0.12000000000000455,"midi":43,"time":277.44,"velocity":0.31496062992125984},{"duration":0.12000000000000455,"midi":43,"time":277.68,"velocity":0.31496062992125984},{"duration":0.1199999999999477,"midi":38,"time":277.92,"velocity":0.31496062992125984},{"duration":0.12000000000000455,"midi":41,"time":278.15999999999997,"velocity":0.31496062992125984},{"duration":0.12000000000000455,"midi":43,"time":278.4,"velocity":0.31496062992125984},{"duration":0.12000000000000455,"midi":43,"time":278.76,"velocity":0.31496062992125984},{"duration":0.12000000000000455,"midi":41,"time":279.12,"velocity":0.31496062992125984},{"duration":0.1199999999999477,"midi":43,"time":279.36,"velocity":0.31496062992125984},{"duration":0.12000000000000455,"midi":43,"time":279.59999999999997,"velocity":0.31496062992125984},{"duration":0.12000000000000455,"midi":43,"time":279.84,"velocity":0.31496062992125984},{"duration":0.12000000000000455,"midi":41,"time":280.08,"velocity":0.31496062992125984},{"duration":0.12000000000000455,"midi":43,"time":280.32,"velocity":0.31496062992125984},{"duration":0.12000000000000455,"midi":43,"time":280.68,"velocity":0.31496062992125984},{"duration":0.12000000000000455,"midi":41,"time":281.03999999999996,"velocity":0.31496062992125984},{"duration":0.12000000000000455,"midi":43,"time":281.28,"velocity":0.31496062992125984},{"duration":0.12000000000000455,"midi":43,"time":281.52,"velocity":0.31496062992125984},{"duration":0.12000000000000455,"midi":38,"time":281.76,"velocity":0.31496062992125984},{"duration":0.12000000000000455,"midi":41,"time":282,"velocity":0.31496062992125984},{"duration":0.12000000000000455,"midi":43,"time":282.24,"velocity":0.31496062992125984},{"duration":0.12000000000000455,"midi":43,"time":282.59999999999997,"velocity":0.31496062992125984},{"duration":0.12000000000000455,"midi":41,"time":282.96,"velocity":0.31496062992125984},{"duration":0.12000000000000455,"midi":43,"time":283.2,"velocity":0.31496062992125984},{"duration":0.12000000000000455,"midi":43,"time":283.44,"velocity":0.31496062992125984},{"duration":0.12000000000000455,"midi":43,"time":283.68,"velocity":0.31496062992125984},{"duration":0.1199999999999477,"midi":41,"time":283.92,"velocity":0.31496062992125984},{"duration":0.12000000000000455,"midi":39,"time":284.15999999999997,"velocity":0.31496062992125984},{"duration":0.12000000000000455,"midi":39,"time":284.52,"velocity":0.31496062992125984},{"duration":0.12000000000000455,"midi":38,"time":284.88,"velocity":0.31496062992125984},{"duration":0.12000000000000455,"midi":39,"time":285.12,"velocity":0.31496062992125984},{"duration":0.1199999999999477,"midi":39,"time":285.36,"velocity":0.31496062992125984},{"duration":0.12000000000000455,"midi":38,"time":285.59999999999997,"velocity":0.31496062992125984},{"duration":0.12000000000000455,"midi":41,"time":285.84,"velocity":0.31496062992125984},{"duration":0.12000000000000455,"midi":39,"time":286.08,"velocity":0.31496062992125984},{"duration":0.12000000000000455,"midi":39,"time":286.44,"velocity":0.31496062992125984},{"duration":0.12000000000000455,"midi":38,"time":286.8,"velocity":0.31496062992125984},{"duration":0.12000000000000455,"midi":39,"time":287.03999999999996,"velocity":0.31496062992125984},{"duration":0.12000000000000455,"midi":39,"time":287.28,"velocity":0.31496062992125984},{"duration":0.12000000000000455,"midi":39,"time":287.52,"velocity":0.31496062992125984},{"duration":0.12000000000000455,"midi":41,"time":287.76,"velocity":0.31496062992125984},{"duration":0.12000000000000455,"midi":39,"time":288,"velocity":0.31496062992125984},{"duration":0.1199999999999477,"midi":39,"time":288.36,"velocity":0.31496062992125984},{"duration":0.12000000000000455,"midi":38,"time":288.71999999999997,"velocity":0.31496062992125984},{"duration":0.12000000000000455,"midi":39,"time":288.96,"velocity":0.31496062992125984},{"duration":0.12000000000000455,"midi":39,"time":289.2,"velocity":0.31496062992125984},{"duration":0.12000000000000455,"midi":38,"time":289.44,"velocity":0.31496062992125984},{"duration":0.12000000000000455,"midi":41,"time":289.68,"velocity":0.31496062992125984},{"duration":0.1199999999999477,"midi":39,"time":289.92,"velocity":0.31496062992125984},{"duration":0.12000000000000455,"midi":39,"time":290.28,"velocity":0.31496062992125984},{"duration":0.12000000000000455,"midi":38,"time":290.64,"velocity":0.31496062992125984},{"duration":0.12000000000000455,"midi":39,"time":290.88,"velocity":0.31496062992125984},{"duration":0.12000000000000455,"midi":39,"time":291.12,"velocity":0.31496062992125984},{"duration":0.1199999999999477,"midi":39,"time":291.36,"velocity":0.31496062992125984},{"duration":0.12000000000000455,"midi":41,"time":291.59999999999997,"velocity":0.31496062992125984}]},{"instrument":{"family":"synth lead","number":82,"name":"lead 3 (calliope)"},"notes":[{"duration":0.12,"midi":77,"time":0,"velocity":0.6377952755905512},{"duration":0.12,"midi":55,"time":0,"velocity":0.6299212598425197},{"duration":0.12,"midi":67,"time":0,"velocity":0.7007874015748031},{"duration":0.12,"midi":58,"time":0,"velocity":0.7007874015748031},{"duration":0.12,"midi":70,"time":0,"velocity":0.7007874015748031},{"duration":0.24,"midi":60,"time":0.72,"velocity":0.7007874015748031},{"duration":0.24,"midi":69,"time":0.72,"velocity":0.7007874015748031},{"duration":0.24,"midi":81,"time":0.72,"velocity":0.6377952755905512},{"duration":0.24,"midi":72,"time":0.72,"velocity":0.7007874015748031},{"duration":0.24,"midi":50,"time":0.72,"velocity":0.6299212598425197},{"duration":0.1200000000000001,"midi":55,"time":0.96,"velocity":0.6299212598425197},{"duration":0.1200000000000001,"midi":67,"time":0.96,"velocity":0.7007874015748031},{"duration":0.1200000000000001,"midi":70,"time":0.96,"velocity":0.7007874015748031},{"duration":0.1200000000000001,"midi":77,"time":0.96,"velocity":0.6377952755905512},{"duration":0.1200000000000001,"midi":58,"time":0.96,"velocity":0.7007874015748031},{"duration":0.24,"midi":60,"time":1.68,"velocity":0.7007874015748031},{"duration":0.24,"midi":69,"time":1.68,"velocity":0.7007874015748031},{"duration":0.24,"midi":50,"time":1.68,"velocity":0.6299212598425197},{"duration":0.24,"midi":81,"time":1.68,"velocity":0.6377952755905512},{"duration":0.24,"midi":72,"time":1.68,"velocity":0.7007874015748031},{"duration":0.1200000000000001,"midi":58,"time":1.92,"velocity":0.7007874015748031},{"duration":0.1200000000000001,"midi":67,"time":1.92,"velocity":0.7007874015748031},{"duration":0.1200000000000001,"midi":55,"time":1.92,"velocity":0.6299212598425197},{"duration":0.1200000000000001,"midi":77,"time":1.92,"velocity":0.6377952755905512},{"duration":0.1200000000000001,"midi":70,"time":1.92,"velocity":0.7007874015748031},{"duration":0.2400000000000002,"midi":72,"time":2.6399999999999997,"velocity":0.7007874015748031},{"duration":0.2400000000000002,"midi":50,"time":2.6399999999999997,"velocity":0.6299212598425197},{"duration":0.2400000000000002,"midi":60,"time":2.6399999999999997,"velocity":0.7007874015748031},{"duration":0.2400000000000002,"midi":81,"time":2.6399999999999997,"velocity":0.6377952755905512},{"duration":0.1200000000000001,"midi":70,"time":2.88,"velocity":0.6456692913385826},{"duration":0.1200000000000001,"midi":55,"time":2.88,"velocity":0.7007874015748031},{"duration":0.1200000000000001,"midi":62,"time":2.88,"velocity":0.7007874015748031},{"duration":0.1200000000000001,"midi":79,"time":2.88,"velocity":0.6377952755905512},{"duration":0.1200000000000001,"midi":74,"time":2.88,"velocity":0.7322834645669292},{"duration":0.11999999999999966,"midi":67,"time":3.12,"velocity":0.7322834645669292},{"duration":0.11999999999999966,"midi":72,"time":3.12,"velocity":0.7322834645669292},{"duration":0.1200000000000001,"midi":74,"time":3.1799999999999997,"velocity":0.7322834645669292},{"duration":0.1200000000000001,"midi":70,"time":3.1799999999999997,"velocity":0.7322834645669292},{"duration":0.1200000000000001,"midi":72,"time":3.2399999999999998,"velocity":0.7322834645669292},{"duration":0.1200000000000001,"midi":67,"time":3.2399999999999998,"velocity":0.7322834645669292},{"duration":0.23999999999999977,"midi":70,"time":3.36,"velocity":0.7322834645669292},{"duration":0.23999999999999977,"midi":65,"time":3.36,"velocity":0.7322834645669292},{"duration":0.2400000000000002,"midi":72,"time":3.5999999999999996,"velocity":0.7322834645669292},{"duration":0.2400000000000002,"midi":67,"time":3.5999999999999996,"velocity":0.7322834645669292},{"duration":0.1200000000000001,"midi":67,"time":3.84,"velocity":0.7007874015748031},{"duration":0.1200000000000001,"midi":58,"time":3.84,"velocity":0.7007874015748031},{"duration":0.1200000000000001,"midi":70,"time":3.84,"velocity":0.7007874015748031},{"duration":0.1200000000000001,"midi":55,"time":3.84,"velocity":0.6299212598425197},{"duration":0.1200000000000001,"midi":77,"time":3.84,"velocity":0.6377952755905512},{"duration":0.2400000000000002,"midi":50,"time":4.56,"velocity":0.6299212598425197},{"duration":0.2400000000000002,"midi":72,"time":4.56,"velocity":0.7007874015748031},{"duration":0.2400000000000002,"midi":60,"time":4.56,"velocity":0.7007874015748031},{"duration":0.2400000000000002,"midi":81,"time":4.56,"velocity":0.6377952755905512},{"duration":0.2400000000000002,"midi":69,"time":4.56,"velocity":0.7007874015748031},{"duration":0.1200000000000001,"midi":55,"time":4.8,"velocity":0.6299212598425197},{"duration":0.1200000000000001,"midi":77,"time":4.8,"velocity":0.6377952755905512},{"duration":0.1200000000000001,"midi":70,"time":4.8,"velocity":0.7007874015748031},{"duration":0.1200000000000001,"midi":58,"time":4.8,"velocity":0.7007874015748031},{"duration":0.1200000000000001,"midi":67,"time":4.8,"velocity":0.7007874015748031},{"duration":0.2400000000000002,"midi":50,"time":5.52,"velocity":0.6299212598425197},{"duration":0.2400000000000002,"midi":69,"time":5.52,"velocity":0.7007874015748031},{"duration":0.2400000000000002,"midi":60,"time":5.52,"velocity":0.7007874015748031},{"duration":0.2400000000000002,"midi":81,"time":5.52,"velocity":0.6377952755905512},{"duration":0.2400000000000002,"midi":72,"time":5.52,"velocity":0.7007874015748031},{"duration":0.1200000000000001,"midi":67,"time":5.76,"velocity":0.7007874015748031},{"duration":0.1200000000000001,"midi":58,"time":5.76,"velocity":0.7007874015748031},{"duration":0.1200000000000001,"midi":70,"time":5.76,"velocity":0.7007874015748031},{"duration":0.1200000000000001,"midi":55,"time":5.76,"velocity":0.6299212598425197},{"duration":0.1200000000000001,"midi":77,"time":5.76,"velocity":0.6377952755905512},{"duration":0.2400000000000002,"midi":81,"time":6.4799999999999995,"velocity":0.6377952755905512},{"duration":0.2400000000000002,"midi":50,"time":6.4799999999999995,"velocity":0.6299212598425197},{"duration":0.2400000000000002,"midi":72,"time":6.4799999999999995,"velocity":0.7007874015748031},{"duration":0.2400000000000002,"midi":60,"time":6.4799999999999995,"velocity":0.7007874015748031},{"duration":0.1200000000000001,"midi":74,"time":6.72,"velocity":0.7322834645669292},{"duration":0.1200000000000001,"midi":70,"time":6.72,"velocity":0.6456692913385826},{"duration":0.1200000000000001,"midi":79,"time":6.72,"velocity":0.6377952755905512},{"duration":0.1200000000000001,"midi":62,"time":6.72,"velocity":0.7007874015748031},{"duration":0.1200000000000001,"midi":55,"time":6.72,"velocity":0.7007874015748031},{"duration":0.1200000000000001,"midi":67,"time":6.96,"velocity":0.7322834645669292},{"duration":0.1200000000000001,"midi":72,"time":6.96,"velocity":0.7322834645669292},{"duration":0.1200000000000001,"midi":74,"time":7.02,"velocity":0.7322834645669292},{"duration":0.1200000000000001,"midi":70,"time":7.02,"velocity":0.7322834645669292},{"duration":0.11999999999999922,"midi":72,"time":7.08,"velocity":0.7322834645669292},{"duration":0.11999999999999922,"midi":67,"time":7.08,"velocity":0.7322834645669292},{"duration":0.2400000000000002,"midi":65,"time":7.199999999999999,"velocity":0.7322834645669292},{"duration":0.2400000000000002,"midi":70,"time":7.199999999999999,"velocity":0.7322834645669292},{"duration":0.2400000000000002,"midi":72,"time":7.4399999999999995,"velocity":0.7322834645669292},{"duration":0.2400000000000002,"midi":67,"time":7.4399999999999995,"velocity":0.7322834645669292},{"duration":0.1200000000000001,"midi":70,"time":7.68,"velocity":0.6850393700787402},{"duration":0.1200000000000001,"midi":58,"time":7.68,"velocity":0.6377952755905512},{"duration":0.1200000000000001,"midi":63,"time":7.68,"velocity":0.6377952755905512},{"duration":0.1200000000000001,"midi":75,"time":7.68,"velocity":0.6929133858267716},{"duration":0.1200000000000001,"midi":51,"time":7.68,"velocity":0.6377952755905512},{"duration":0.2400000000000002,"midi":69,"time":8.4,"velocity":0.6377952755905512},{"duration":0.2400000000000002,"midi":50,"time":8.4,"velocity":0.6377952755905512},{"duration":0.2400000000000002,"midi":62,"time":8.4,"velocity":0.6377952755905512},{"duration":0.2400000000000002,"midi":81,"time":8.4,"velocity":0.6929133858267716},{"duration":0.2400000000000002,"midi":57,"time":8.4,"velocity":0.6377952755905512},{"duration":0.11999999999999922,"midi":75,"time":8.64,"velocity":0.6929133858267716},{"duration":0.11999999999999922,"midi":51,"time":8.64,"velocity":0.6377952755905512},{"duration":0.11999999999999922,"midi":63,"time":8.64,"velocity":0.6377952755905512},{"duration":0.11999999999999922,"midi":58,"time":8.64,"velocity":0.6377952755905512},{"duration":0.11999999999999922,"midi":70,"time":8.64,"velocity":0.6850393700787402},{"duration":0.2400000000000002,"midi":50,"time":9.36,"velocity":0.6377952755905512},{"duration":0.2400000000000002,"midi":81,"time":9.36,"velocity":0.6929133858267716},{"duration":0.2400000000000002,"midi":62,"time":9.36,"velocity":0.6377952755905512},{"duration":0.2400000000000002,"midi":69,"time":9.36,"velocity":0.6377952755905512},{"duration":0.2400000000000002,"midi":57,"time":9.36,"velocity":0.6377952755905512},{"duration":0.11999999999999922,"midi":51,"time":9.6,"velocity":0.6377952755905512},{"duration":0.11999999999999922,"midi":58,"time":9.6,"velocity":0.6377952755905512},{"duration":0.11999999999999922,"midi":75,"time":9.6,"velocity":0.6929133858267716},{"duration":0.11999999999999922,"midi":70,"time":9.6,"velocity":0.6850393700787402},{"duration":0.11999999999999922,"midi":63,"time":9.6,"velocity":0.6377952755905512},{"duration":0.23999999999999844,"midi":57,"time":10.32,"velocity":0.6377952755905512},{"duration":0.23999999999999844,"midi":81,"time":10.32,"velocity":0.6929133858267716},{"duration":0.23999999999999844,"midi":69,"time":10.32,"velocity":0.6377952755905512},{"duration":0.23999999999999844,"midi":62,"time":10.32,"velocity":0.6377952755905512},{"duration":0.23999999999999844,"midi":50,"time":10.32,"velocity":0.6377952755905512},{"duration":0.120000000000001,"midi":63,"time":10.559999999999999,"velocity":0.6456692913385826},{"duration":0.120000000000001,"midi":51,"time":10.559999999999999,"velocity":0.6456692913385826},{"duration":0.120000000000001,"midi":70,"time":10.559999999999999,"velocity":0.7007874015748031},{"duration":0.120000000000001,"midi":58,"time":10.559999999999999,"velocity":0.6456692913385826},{"duration":0.120000000000001,"midi":74,"time":10.559999999999999,"velocity":0.7244094488188977},{"duration":0.120000000000001,"midi":67,"time":10.799999999999999,"velocity":0.7244094488188977},{"duration":0.120000000000001,"midi":72,"time":10.799999999999999,"velocity":0.7244094488188977},{"duration":0.120000000000001,"midi":70,"time":10.86,"velocity":0.7244094488188977},{"duration":0.120000000000001,"midi":74,"time":10.86,"velocity":0.7244094488188977},{"duration":0.11999999999999922,"midi":72,"time":10.92,"velocity":0.7244094488188977},{"duration":0.11999999999999922,"midi":67,"time":10.92,"velocity":0.7244094488188977},{"duration":0.2400000000000002,"midi":65,"time":11.04,"velocity":0.7244094488188977},{"duration":0.2400000000000002,"midi":70,"time":11.04,"velocity":0.7244094488188977},{"duration":0.2400000000000002,"midi":72,"time":11.28,"velocity":0.7244094488188977},{"duration":0.2400000000000002,"midi":67,"time":11.28,"velocity":0.7244094488188977},{"duration":0.11999999999999922,"midi":58,"time":11.52,"velocity":0.6377952755905512},{"duration":0.11999999999999922,"midi":70,"time":11.52,"velocity":0.6850393700787402},{"duration":0.11999999999999922,"midi":63,"time":11.52,"velocity":0.6377952755905512},{"duration":0.11999999999999922,"midi":75,"time":11.52,"velocity":0.6929133858267716},{"duration":0.11999999999999922,"midi":51,"time":11.52,"velocity":0.6377952755905512},{"duration":0.2400000000000002,"midi":50,"time":12.24,"velocity":0.6377952755905512},{"duration":0.2400000000000002,"midi":81,"time":12.24,"velocity":0.6929133858267716},{"duration":0.2400000000000002,"midi":62,"time":12.24,"velocity":0.6377952755905512},{"duration":0.2400000000000002,"midi":69,"time":12.24,"velocity":0.6377952755905512},{"duration":0.2400000000000002,"midi":57,"time":12.24,"velocity":0.6377952755905512},{"duration":0.11999999999999922,"midi":51,"time":12.48,"velocity":0.6377952755905512},{"duration":0.11999999999999922,"midi":58,"time":12.48,"velocity":0.6377952755905512},{"duration":0.11999999999999922,"midi":75,"time":12.48,"velocity":0.6929133858267716},{"duration":0.11999999999999922,"midi":70,"time":12.48,"velocity":0.6850393700787402},{"duration":0.11999999999999922,"midi":63,"time":12.48,"velocity":0.6377952755905512},{"duration":0.2400000000000002,"midi":62,"time":13.2,"velocity":0.6377952755905512},{"duration":0.2400000000000002,"midi":81,"time":13.2,"velocity":0.6929133858267716},{"duration":0.2400000000000002,"midi":50,"time":13.2,"velocity":0.6377952755905512},{"duration":0.2400000000000002,"midi":69,"time":13.2,"velocity":0.6377952755905512},{"duration":0.2400000000000002,"midi":57,"time":13.2,"velocity":0.6377952755905512},{"duration":0.11999999999999922,"midi":51,"time":13.44,"velocity":0.6377952755905512},{"duration":0.11999999999999922,"midi":58,"time":13.44,"velocity":0.6377952755905512},{"duration":0.11999999999999922,"midi":75,"time":13.44,"velocity":0.6929133858267716},{"duration":0.11999999999999922,"midi":70,"time":13.44,"velocity":0.6850393700787402},{"duration":0.11999999999999922,"midi":63,"time":13.44,"velocity":0.6377952755905512},{"duration":0.23999999999999844,"midi":50,"time":14.16,"velocity":0.6377952755905512},{"duration":0.23999999999999844,"midi":57,"time":14.16,"velocity":0.6377952755905512},{"duration":0.23999999999999844,"midi":62,"time":14.16,"velocity":0.6377952755905512},{"duration":0.23999999999999844,"midi":81,"time":14.16,"velocity":0.6929133858267716},{"duration":0.23999999999999844,"midi":69,"time":14.16,"velocity":0.6377952755905512},{"duration":0.120000000000001,"midi":51,"time":14.399999999999999,"velocity":0.6456692913385826},{"duration":0.120000000000001,"midi":63,"time":14.399999999999999,"velocity":0.6456692913385826},{"duration":0.120000000000001,"midi":70,"time":14.399999999999999,"velocity":0.7007874015748031},{"duration":0.120000000000001,"midi":58,"time":14.399999999999999,"velocity":0.6456692913385826},{"duration":0.120000000000001,"midi":74,"time":14.399999999999999,"velocity":0.7244094488188977},{"duration":0.120000000000001,"midi":72,"time":14.639999999999999,"velocity":0.7244094488188977},{"duration":0.120000000000001,"midi":67,"time":14.639999999999999,"velocity":0.7244094488188977},{"duration":0.120000000000001,"midi":70,"time":14.7,"velocity":0.7244094488188977},{"duration":0.120000000000001,"midi":74,"time":14.7,"velocity":0.7244094488188977},{"duration":0.11999999999999922,"midi":67,"time":14.76,"velocity":0.7244094488188977},{"duration":0.11999999999999922,"midi":72,"time":14.76,"velocity":0.7244094488188977},{"duration":0.2400000000000002,"midi":70,"time":14.879999999999999,"velocity":0.7244094488188977},{"duration":0.2400000000000002,"midi":65,"time":14.879999999999999,"velocity":0.7244094488188977},{"duration":0.2400000000000002,"midi":67,"time":15.12,"velocity":0.7244094488188977},{"duration":0.2400000000000002,"midi":72,"time":15.12,"velocity":0.7244094488188977},{"duration":0.11999999999999922,"midi":58,"time":15.36,"velocity":0.7007874015748031},{"duration":0.11999999999999922,"midi":67,"time":15.36,"velocity":0.7007874015748031},{"duration":0.11999999999999922,"midi":55,"time":15.36,"velocity":0.6299212598425197},{"duration":0.11999999999999922,"midi":70,"time":15.36,"velocity":0.7007874015748031},{"duration":0.11999999999999922,"midi":77,"time":15.36,"velocity":0.7322834645669292},{"duration":0.240000000000002,"midi":50,"time":16.08,"velocity":0.6299212598425197},{"duration":0.240000000000002,"midi":69,"time":16.08,"velocity":0.7007874015748031},{"duration":0.240000000000002,"midi":81,"time":16.08,"velocity":0.6377952755905512},{"duration":0.240000000000002,"midi":72,"time":16.08,"velocity":0.7007874015748031},{"duration":0.240000000000002,"midi":60,"time":16.08,"velocity":0.7007874015748031},{"duration":0.11999999999999744,"midi":58,"time":16.32,"velocity":0.7007874015748031},{"duration":0.11999999999999744,"midi":77,"time":16.32,"velocity":0.7322834645669292},{"duration":0.11999999999999744,"midi":70,"time":16.32,"velocity":0.7007874015748031},{"duration":0.11999999999999744,"midi":67,"time":16.32,"velocity":0.7007874015748031},{"duration":0.11999999999999744,"midi":55,"time":16.32,"velocity":0.6299212598425197},{"duration":0.240000000000002,"midi":72,"time":17.04,"velocity":0.7007874015748031},{"duration":0.240000000000002,"midi":60,"time":17.04,"velocity":0.7007874015748031},{"duration":0.240000000000002,"midi":50,"time":17.04,"velocity":0.6299212598425197},{"duration":0.240000000000002,"midi":81,"time":17.04,"velocity":0.6377952755905512},{"duration":0.240000000000002,"midi":69,"time":17.04,"velocity":0.7007874015748031},{"duration":0.11999999999999744,"midi":70,"time":17.28,"velocity":0.7007874015748031},{"duration":0.11999999999999744,"midi":67,"time":17.28,"velocity":0.7007874015748031},{"duration":0.11999999999999744,"midi":58,"time":17.28,"velocity":0.7007874015748031},{"duration":0.11999999999999744,"midi":77,"time":17.28,"velocity":0.7322834645669292},{"duration":0.11999999999999744,"midi":55,"time":17.28,"velocity":0.6299212598425197},{"duration":0.23999999999999844,"midi":60,"time":18,"velocity":0.7007874015748031},{"duration":0.23999999999999844,"midi":81,"time":18,"velocity":0.6377952755905512},{"duration":0.23999999999999844,"midi":72,"time":18,"velocity":0.7007874015748031},{"duration":0.23999999999999844,"midi":50,"time":18,"velocity":0.6299212598425197},{"duration":0.120000000000001,"midi":74,"time":18.24,"velocity":0.7322834645669292},{"duration":0.120000000000001,"midi":62,"time":18.24,"velocity":0.7007874015748031},{"duration":0.120000000000001,"midi":55,"time":18.24,"velocity":0.7007874015748031},{"duration":0.120000000000001,"midi":79,"time":18.24,"velocity":0.6377952755905512},{"duration":0.120000000000001,"midi":70,"time":18.24,"velocity":0.6456692913385826},{"duration":0.11999999999999744,"midi":72,"time":18.48,"velocity":0.7322834645669292},{"duration":0.11999999999999744,"midi":67,"time":18.48,"velocity":0.7322834645669292},{"duration":0.120000000000001,"midi":74,"time":18.54,"velocity":0.7322834645669292},{"duration":0.120000000000001,"midi":70,"time":18.54,"velocity":0.7322834645669292},{"duration":0.120000000000001,"midi":67,"time":18.599999999999998,"velocity":0.7322834645669292},{"duration":0.120000000000001,"midi":72,"time":18.599999999999998,"velocity":0.7322834645669292},{"duration":0.240000000000002,"midi":65,"time":18.72,"velocity":0.7322834645669292},{"duration":0.240000000000002,"midi":70,"time":18.72,"velocity":0.7322834645669292},{"duration":0.23999999999999844,"midi":67,"time":18.96,"velocity":0.7322834645669292},{"duration":0.23999999999999844,"midi":72,"time":18.96,"velocity":0.7322834645669292},{"duration":0.120000000000001,"midi":67,"time":19.2,"velocity":0.7007874015748031},{"duration":0.120000000000001,"midi":70,"time":19.2,"velocity":0.7007874015748031},{"duration":0.120000000000001,"midi":58,"time":19.2,"velocity":0.7007874015748031},{"duration":0.120000000000001,"midi":55,"time":19.2,"velocity":0.6299212598425197},{"duration":0.120000000000001,"midi":77,"time":19.2,"velocity":0.7322834645669292},{"duration":0.240000000000002,"midi":69,"time":19.919999999999998,"velocity":0.7007874015748031},{"duration":0.240000000000002,"midi":81,"time":19.919999999999998,"velocity":0.6377952755905512},{"duration":0.240000000000002,"midi":72,"time":19.919999999999998,"velocity":0.7007874015748031},{"duration":0.240000000000002,"midi":60,"time":19.919999999999998,"velocity":0.7007874015748031},{"duration":0.240000000000002,"midi":50,"time":19.919999999999998,"velocity":0.6299212598425197},{"duration":0.11999999999999744,"midi":77,"time":20.16,"velocity":0.7322834645669292},{"duration":0.11999999999999744,"midi":55,"time":20.16,"velocity":0.6299212598425197},{"duration":0.11999999999999744,"midi":58,"time":20.16,"velocity":0.7007874015748031},{"duration":0.11999999999999744,"midi":67,"time":20.16,"velocity":0.7007874015748031},{"duration":0.11999999999999744,"midi":70,"time":20.16,"velocity":0.7007874015748031},{"duration":0.23999999999999844,"midi":50,"time":20.88,"velocity":0.6299212598425197},{"duration":0.23999999999999844,"midi":81,"time":20.88,"velocity":0.6377952755905512},{"duration":0.23999999999999844,"midi":69,"time":20.88,"velocity":0.7007874015748031},{"duration":0.23999999999999844,"midi":60,"time":20.88,"velocity":0.7007874015748031},{"duration":0.23999999999999844,"midi":72,"time":20.88,"velocity":0.7007874015748031},{"duration":0.120000000000001,"midi":77,"time":21.119999999999997,"velocity":0.7322834645669292},{"duration":0.120000000000001,"midi":55,"time":21.119999999999997,"velocity":0.6299212598425197},{"duration":0.120000000000001,"midi":67,"time":21.119999999999997,"velocity":0.7007874015748031},{"duration":0.120000000000001,"midi":58,"time":21.119999999999997,"velocity":0.7007874015748031},{"duration":0.120000000000001,"midi":70,"time":21.119999999999997,"velocity":0.7007874015748031},{"duration":0.23999999999999844,"midi":60,"time":21.84,"velocity":0.7007874015748031},{"duration":0.23999999999999844,"midi":72,"time":21.84,"velocity":0.7007874015748031},{"duration":0.23999999999999844,"midi":81,"time":21.84,"velocity":0.6377952755905512},{"duration":0.23999999999999844,"midi":50,"time":21.84,"velocity":0.6299212598425197},{"duration":0.120000000000001,"midi":55,"time":22.08,"velocity":0.7007874015748031},{"duration":0.120000000000001,"midi":79,"time":22.08,"velocity":0.6377952755905512},{"duration":0.120000000000001,"midi":62,"time":22.08,"velocity":0.7007874015748031},{"duration":0.120000000000001,"midi":70,"time":22.08,"velocity":0.6456692913385826},{"duration":0.120000000000001,"midi":74,"time":22.08,"velocity":0.7322834645669292},{"duration":0.11999999999999744,"midi":72,"time":22.32,"velocity":0.7322834645669292},{"duration":0.11999999999999744,"midi":67,"time":22.32,"velocity":0.7322834645669292},{"duration":0.120000000000001,"midi":74,"time":22.38,"velocity":0.7322834645669292},{"duration":0.120000000000001,"midi":70,"time":22.38,"velocity":0.7322834645669292},{"duration":0.120000000000001,"midi":72,"time":22.439999999999998,"velocity":0.7322834645669292},{"duration":0.120000000000001,"midi":67,"time":22.439999999999998,"velocity":0.7322834645669292},{"duration":0.240000000000002,"midi":65,"time":22.56,"velocity":0.7322834645669292},{"duration":0.240000000000002,"midi":70,"time":22.56,"velocity":0.7322834645669292},{"duration":0.23999999999999844,"midi":72,"time":22.8,"velocity":0.7322834645669292},{"duration":0.23999999999999844,"midi":67,"time":22.8,"velocity":0.7322834645669292},{"duration":0.120000000000001,"midi":51,"time":23.04,"velocity":0.6377952755905512},{"duration":0.120000000000001,"midi":75,"time":23.04,"velocity":0.6929133858267716},{"duration":0.120000000000001,"midi":63,"time":23.04,"velocity":0.6377952755905512},{"duration":0.120000000000001,"midi":70,"time":23.04,"velocity":0.6850393700787402},{"duration":0.120000000000001,"midi":58,"time":23.04,"velocity":0.6377952755905512},{"duration":0.240000000000002,"midi":81,"time":23.759999999999998,"velocity":0.6929133858267716},{"duration":0.240000000000002,"midi":57,"time":23.759999999999998,"velocity":0.6377952755905512},{"duration":0.240000000000002,"midi":69,"time":23.759999999999998,"velocity":0.6377952755905512},{"duration":0.240000000000002,"midi":62,"time":23.759999999999998,"velocity":0.6377952755905512},{"duration":0.240000000000002,"midi":50,"time":23.759999999999998,"velocity":0.6377952755905512},{"duration":0.11999999999999744,"midi":70,"time":24,"velocity":0.6850393700787402},{"duration":0.11999999999999744,"midi":63,"time":24,"velocity":0.6377952755905512},{"duration":0.11999999999999744,"midi":75,"time":24,"velocity":0.6929133858267716},{"duration":0.11999999999999744,"midi":51,"time":24,"velocity":0.6377952755905512},{"duration":0.11999999999999744,"midi":58,"time":24,"velocity":0.6377952755905512},{"duration":0.240000000000002,"midi":50,"time":24.72,"velocity":0.6377952755905512},{"duration":0.240000000000002,"midi":81,"time":24.72,"velocity":0.6929133858267716},{"duration":0.240000000000002,"midi":69,"time":24.72,"velocity":0.6377952755905512},{"duration":0.240000000000002,"midi":62,"time":24.72,"velocity":0.6377952755905512},{"duration":0.240000000000002,"midi":57,"time":24.72,"velocity":0.6377952755905512},{"duration":0.11999999999999744,"midi":51,"time":24.96,"velocity":0.6377952755905512},{"duration":0.11999999999999744,"midi":70,"time":24.96,"velocity":0.6850393700787402},{"duration":0.11999999999999744,"midi":58,"time":24.96,"velocity":0.6377952755905512},{"duration":0.11999999999999744,"midi":75,"time":24.96,"velocity":0.6929133858267716},{"duration":0.11999999999999744,"midi":63,"time":24.96,"velocity":0.6377952755905512},{"duration":0.23999999999999844,"midi":62,"time":25.68,"velocity":0.6377952755905512},{"duration":0.23999999999999844,"midi":57,"time":25.68,"velocity":0.6377952755905512},{"duration":0.23999999999999844,"midi":69,"time":25.68,"velocity":0.6377952755905512},{"duration":0.23999999999999844,"midi":50,"time":25.68,"velocity":0.6377952755905512},{"duration":0.23999999999999844,"midi":81,"time":25.68,"velocity":0.6929133858267716},{"duration":0.120000000000001,"midi":74,"time":25.919999999999998,"velocity":0.7244094488188977},{"duration":0.120000000000001,"midi":58,"time":25.919999999999998,"velocity":0.6456692913385826},{"duration":0.120000000000001,"midi":51,"time":25.919999999999998,"velocity":0.6456692913385826},{"duration":0.120000000000001,"midi":63,"time":25.919999999999998,"velocity":0.6456692913385826},{"duration":0.120000000000001,"midi":70,"time":25.919999999999998,"velocity":0.7007874015748031},{"duration":0.11999999999999744,"midi":67,"time":26.16,"velocity":0.7244094488188977},{"duration":0.11999999999999744,"midi":72,"time":26.16,"velocity":0.7244094488188977},{"duration":0.120000000000001,"midi":70,"time":26.22,"velocity":0.7244094488188977},{"duration":0.120000000000001,"midi":74,"time":26.22,"velocity":0.7244094488188977},{"duration":0.120000000000001,"midi":72,"time":26.279999999999998,"velocity":0.7244094488188977},{"duration":0.120000000000001,"midi":67,"time":26.279999999999998,"velocity":0.7244094488188977},{"duration":0.240000000000002,"midi":70,"time":26.4,"velocity":0.7244094488188977},{"duration":0.240000000000002,"midi":65,"time":26.4,"velocity":0.7244094488188977},{"duration":0.23999999999999844,"midi":72,"time":26.64,"velocity":0.7244094488188977},{"duration":0.23999999999999844,"midi":67,"time":26.64,"velocity":0.7244094488188977},{"duration":0.120000000000001,"midi":70,"time":26.88,"velocity":0.6850393700787402},{"duration":0.120000000000001,"midi":63,"time":26.88,"velocity":0.6377952755905512},{"duration":0.120000000000001,"midi":58,"time":26.88,"velocity":0.6377952755905512},{"duration":0.120000000000001,"midi":51,"time":26.88,"velocity":0.6377952755905512},{"duration":0.120000000000001,"midi":75,"time":26.88,"velocity":0.6929133858267716},{"duration":0.240000000000002,"midi":57,"time":27.599999999999998,"velocity":0.6377952755905512},{"duration":0.240000000000002,"midi":69,"time":27.599999999999998,"velocity":0.6377952755905512},{"duration":0.240000000000002,"midi":50,"time":27.599999999999998,"velocity":0.6377952755905512},{"duration":0.240000000000002,"midi":62,"time":27.599999999999998,"velocity":0.6377952755905512},{"duration":0.240000000000002,"midi":81,"time":27.599999999999998,"velocity":0.6929133858267716},{"duration":0.11999999999999744,"midi":70,"time":27.84,"velocity":0.6850393700787402},{"duration":0.11999999999999744,"midi":58,"time":27.84,"velocity":0.6377952755905512},{"duration":0.11999999999999744,"midi":51,"time":27.84,"velocity":0.6377952755905512},{"duration":0.11999999999999744,"midi":63,"time":27.84,"velocity":0.6377952755905512},{"duration":0.11999999999999744,"midi":75,"time":27.84,"velocity":0.6929133858267716},{"duration":0.23999999999999844,"midi":50,"time":28.56,"velocity":0.6377952755905512},{"duration":0.23999999999999844,"midi":69,"time":28.56,"velocity":0.6377952755905512},{"duration":0.23999999999999844,"midi":57,"time":28.56,"velocity":0.6377952755905512},{"duration":0.23999999999999844,"midi":81,"time":28.56,"velocity":0.6929133858267716},{"duration":0.23999999999999844,"midi":62,"time":28.56,"velocity":0.6377952755905512},{"duration":0.120000000000001,"midi":70,"time":28.799999999999997,"velocity":0.6850393700787402},{"duration":0.120000000000001,"midi":75,"time":28.799999999999997,"velocity":0.6929133858267716},{"duration":0.120000000000001,"midi":51,"time":28.799999999999997,"velocity":0.6377952755905512},{"duration":0.120000000000001,"midi":58,"time":28.799999999999997,"velocity":0.6377952755905512},{"duration":0.120000000000001,"midi":63,"time":28.799999999999997,"velocity":0.6377952755905512},{"duration":0.23999999999999844,"midi":81,"time":29.52,"velocity":0.6929133858267716},{"duration":0.23999999999999844,"midi":69,"time":29.52,"velocity":0.6377952755905512},{"duration":0.23999999999999844,"midi":62,"time":29.52,"velocity":0.6377952755905512},{"duration":0.23999999999999844,"midi":50,"time":29.52,"velocity":0.6377952755905512},{"duration":0.23999999999999844,"midi":57,"time":29.52,"velocity":0.6377952755905512},{"duration":0.120000000000001,"midi":74,"time":29.759999999999998,"velocity":0.7244094488188977},{"duration":0.120000000000001,"midi":51,"time":29.759999999999998,"velocity":0.6456692913385826},{"duration":0.120000000000001,"midi":58,"time":29.759999999999998,"velocity":0.6456692913385826},{"duration":0.120000000000001,"midi":63,"time":29.759999999999998,"velocity":0.6456692913385826},{"duration":0.120000000000001,"midi":70,"time":29.759999999999998,"velocity":0.7007874015748031},{"duration":0.11999999999999744,"midi":67,"time":30,"velocity":0.7244094488188977},{"duration":0.11999999999999744,"midi":72,"time":30,"velocity":0.7244094488188977},{"duration":0.120000000000001,"midi":74,"time":30.06,"velocity":0.7244094488188977},{"duration":0.120000000000001,"midi":70,"time":30.06,"velocity":0.7244094488188977},{"duration":0.120000000000001,"midi":67,"time":30.119999999999997,"velocity":0.7244094488188977},{"duration":0.120000000000001,"midi":72,"time":30.119999999999997,"velocity":0.7244094488188977},{"duration":0.240000000000002,"midi":65,"time":30.24,"velocity":0.7244094488188977},{"duration":0.240000000000002,"midi":70,"time":30.24,"velocity":0.7244094488188977},{"duration":0.23999999999999844,"midi":72,"time":30.48,"velocity":0.7244094488188977},{"duration":0.23999999999999844,"midi":67,"time":30.48,"velocity":0.7244094488188977},{"duration":0.120000000000001,"midi":58,"time":30.72,"velocity":0.7007874015748031},{"duration":0.120000000000001,"midi":55,"time":30.72,"velocity":0.6299212598425197},{"duration":0.120000000000001,"midi":70,"time":30.72,"velocity":0.7007874015748031},{"duration":0.120000000000001,"midi":77,"time":30.72,"velocity":0.7322834645669292},{"duration":0.120000000000001,"midi":67,"time":30.72,"velocity":0.7007874015748031},{"duration":0.240000000000002,"midi":60,"time":31.439999999999998,"velocity":0.7007874015748031},{"duration":0.240000000000002,"midi":69,"time":31.439999999999998,"velocity":0.7007874015748031},{"duration":0.240000000000002,"midi":72,"time":31.439999999999998,"velocity":0.7007874015748031},{"duration":0.240000000000002,"midi":81,"time":31.439999999999998,"velocity":0.6377952755905512},{"duration":0.240000000000002,"midi":50,"time":31.439999999999998,"velocity":0.6299212598425197},{"duration":0.11999999999999744,"midi":58,"time":31.68,"velocity":0.7007874015748031},{"duration":0.11999999999999744,"midi":77,"time":31.68,"velocity":0.7322834645669292},{"duration":0.11999999999999744,"midi":70,"time":31.68,"velocity":0.7007874015748031},{"duration":0.11999999999999744,"midi":67,"time":31.68,"velocity":0.7007874015748031},{"duration":0.11999999999999744,"midi":55,"time":31.68,"velocity":0.6299212598425197},{"duration":0.240000000000002,"midi":81,"time":32.4,"velocity":0.6377952755905512},{"duration":0.240000000000002,"midi":60,"time":32.4,"velocity":0.7007874015748031},{"duration":0.240000000000002,"midi":69,"time":32.4,"velocity":0.7007874015748031},{"duration":0.240000000000002,"midi":50,"time":32.4,"velocity":0.6299212598425197},{"duration":0.240000000000002,"midi":72,"time":32.4,"velocity":0.7007874015748031},{"duration":0.11999999999999744,"midi":55,"time":32.64,"velocity":0.6299212598425197},{"duration":0.11999999999999744,"midi":70,"time":32.64,"velocity":0.7007874015748031},{"duration":0.11999999999999744,"midi":58,"time":32.64,"velocity":0.7007874015748031},{"duration":0.11999999999999744,"midi":67,"time":32.64,"velocity":0.7007874015748031},{"duration":0.11999999999999744,"midi":77,"time":32.64,"velocity":0.7322834645669292},{"duration":0.240000000000002,"midi":72,"time":33.36,"velocity":0.7007874015748031},{"duration":0.240000000000002,"midi":50,"time":33.36,"velocity":0.6299212598425197},{"duration":0.240000000000002,"midi":60,"time":33.36,"velocity":0.7007874015748031},{"duration":0.240000000000002,"midi":81,"time":33.36,"velocity":0.6377952755905512},{"duration":0.11999999999999744,"midi":55,"time":33.6,"velocity":0.7007874015748031},{"duration":0.11999999999999744,"midi":70,"time":33.6,"velocity":0.6456692913385826},{"duration":0.11999999999999744,"midi":79,"time":33.6,"velocity":0.6377952755905512},{"duration":0.11999999999999744,"midi":74,"time":33.6,"velocity":0.7322834645669292},{"duration":0.11999999999999744,"midi":62,"time":33.6,"velocity":0.7007874015748031},{"duration":0.12000000000000455,"midi":72,"time":33.839999999999996,"velocity":0.7322834645669292},{"duration":0.12000000000000455,"midi":67,"time":33.839999999999996,"velocity":0.7322834645669292},{"duration":0.11999999999999744,"midi":70,"time":33.9,"velocity":0.7322834645669292},{"duration":0.11999999999999744,"midi":74,"time":33.9,"velocity":0.7322834645669292},{"duration":0.11999999999999744,"midi":72,"time":33.96,"velocity":0.7322834645669292},{"duration":0.11999999999999744,"midi":67,"time":33.96,"velocity":0.7322834645669292},{"duration":0.240000000000002,"midi":65,"time":34.08,"velocity":0.7322834645669292},{"duration":0.240000000000002,"midi":70,"time":34.08,"velocity":0.7322834645669292},{"duration":0.240000000000002,"midi":72,"time":34.32,"velocity":0.7322834645669292},{"duration":0.240000000000002,"midi":67,"time":34.32,"velocity":0.7322834645669292},{"duration":0.11999999999999744,"midi":55,"time":34.56,"velocity":0.6299212598425197},{"duration":0.11999999999999744,"midi":67,"time":34.56,"velocity":0.7007874015748031},{"duration":0.11999999999999744,"midi":70,"time":34.56,"velocity":0.7007874015748031},{"duration":0.11999999999999744,"midi":77,"time":34.56,"velocity":0.7322834645669292},{"duration":0.11999999999999744,"midi":58,"time":34.56,"velocity":0.7007874015748031},{"duration":0.23999999999999488,"midi":81,"time":35.28,"velocity":0.6377952755905512},{"duration":0.23999999999999488,"midi":69,"time":35.28,"velocity":0.7007874015748031},{"duration":0.23999999999999488,"midi":50,"time":35.28,"velocity":0.6299212598425197},{"duration":0.23999999999999488,"midi":60,"time":35.28,"velocity":0.7007874015748031},{"duration":0.23999999999999488,"midi":72,"time":35.28,"velocity":0.7007874015748031},{"duration":0.12000000000000455,"midi":77,"time":35.519999999999996,"velocity":0.7322834645669292},{"duration":0.12000000000000455,"midi":55,"time":35.519999999999996,"velocity":0.6299212598425197},{"duration":0.12000000000000455,"midi":70,"time":35.519999999999996,"velocity":0.7007874015748031},{"duration":0.12000000000000455,"midi":67,"time":35.519999999999996,"velocity":0.7007874015748031},{"duration":0.12000000000000455,"midi":58,"time":35.519999999999996,"velocity":0.7007874015748031},{"duration":0.23999999999999488,"midi":60,"time":36.24,"velocity":0.7007874015748031},{"duration":0.23999999999999488,"midi":81,"time":36.24,"velocity":0.6377952755905512},{"duration":0.23999999999999488,"midi":69,"time":36.24,"velocity":0.7007874015748031},{"duration":0.23999999999999488,"midi":72,"time":36.24,"velocity":0.7007874015748031},{"duration":0.23999999999999488,"midi":50,"time":36.24,"velocity":0.6299212598425197},{"duration":0.12000000000000455,"midi":67,"time":36.48,"velocity":0.7007874015748031},{"duration":0.12000000000000455,"midi":77,"time":36.48,"velocity":0.7322834645669292},{"duration":0.12000000000000455,"midi":55,"time":36.48,"velocity":0.6299212598425197},{"duration":0.12000000000000455,"midi":70,"time":36.48,"velocity":0.7007874015748031},{"duration":0.12000000000000455,"midi":58,"time":36.48,"velocity":0.7007874015748031},{"duration":0.240000000000002,"midi":72,"time":37.199999999999996,"velocity":0.7007874015748031},{"duration":0.240000000000002,"midi":60,"time":37.199999999999996,"velocity":0.7007874015748031},{"duration":0.240000000000002,"midi":50,"time":37.199999999999996,"velocity":0.6299212598425197},{"duration":0.240000000000002,"midi":81,"time":37.199999999999996,"velocity":0.6377952755905512},{"duration":0.11999999999999744,"midi":74,"time":37.44,"velocity":0.7322834645669292},{"duration":0.11999999999999744,"midi":70,"time":37.44,"velocity":0.6456692913385826},{"duration":0.11999999999999744,"midi":55,"time":37.44,"velocity":0.7007874015748031},{"duration":0.11999999999999744,"midi":62,"time":37.44,"velocity":0.7007874015748031},{"duration":0.11999999999999744,"midi":79,"time":37.44,"velocity":0.6377952755905512},{"duration":0.11999999999999744,"midi":72,"time":37.68,"velocity":0.7322834645669292},{"duration":0.11999999999999744,"midi":67,"time":37.68,"velocity":0.7322834645669292},{"duration":0.11999999999999744,"midi":74,"time":37.74,"velocity":0.7322834645669292},{"duration":0.11999999999999744,"midi":70,"time":37.74,"velocity":0.7322834645669292},{"duration":0.12000000000000455,"midi":67,"time":37.8,"velocity":0.7322834645669292},{"duration":0.12000000000000455,"midi":72,"time":37.8,"velocity":0.7322834645669292},{"duration":0.23999999999999488,"midi":65,"time":37.92,"velocity":0.7322834645669292},{"duration":0.23999999999999488,"midi":70,"time":37.92,"velocity":0.7322834645669292},{"duration":0.240000000000002,"midi":72,"time":38.16,"velocity":0.7322834645669292},{"duration":0.240000000000002,"midi":67,"time":38.16,"velocity":0.7322834645669292},{"duration":0.11999999999999744,"midi":63,"time":38.4,"velocity":0.6377952755905512},{"duration":0.11999999999999744,"midi":58,"time":38.4,"velocity":0.6377952755905512},{"duration":0.11999999999999744,"midi":51,"time":38.4,"velocity":0.6377952755905512},{"duration":0.11999999999999744,"midi":75,"time":38.4,"velocity":0.6929133858267716},{"duration":0.11999999999999744,"midi":70,"time":38.4,"velocity":0.6850393700787402},{"duration":0.240000000000002,"midi":62,"time":39.12,"velocity":0.6377952755905512},{"duration":0.240000000000002,"midi":81,"time":39.12,"velocity":0.6929133858267716},{"duration":0.240000000000002,"midi":69,"time":39.12,"velocity":0.6377952755905512},{"duration":0.240000000000002,"midi":57,"time":39.12,"velocity":0.6377952755905512},{"duration":0.240000000000002,"midi":50,"time":39.12,"velocity":0.6377952755905512},{"duration":0.11999999999999744,"midi":75,"time":39.36,"velocity":0.6929133858267716},{"duration":0.11999999999999744,"midi":51,"time":39.36,"velocity":0.6377952755905512},{"duration":0.11999999999999744,"midi":58,"time":39.36,"velocity":0.6377952755905512},{"duration":0.11999999999999744,"midi":70,"time":39.36,"velocity":0.6850393700787402},{"duration":0.11999999999999744,"midi":63,"time":39.36,"velocity":0.6377952755905512},{"duration":0.240000000000002,"midi":81,"time":40.08,"velocity":0.6929133858267716},{"duration":0.240000000000002,"midi":57,"time":40.08,"velocity":0.6377952755905512},{"duration":0.240000000000002,"midi":69,"time":40.08,"velocity":0.6377952755905512},{"duration":0.240000000000002,"midi":50,"time":40.08,"velocity":0.6377952755905512},{"duration":0.240000000000002,"midi":62,"time":40.08,"velocity":0.6377952755905512},{"duration":0.11999999999999744,"midi":70,"time":40.32,"velocity":0.6850393700787402},{"duration":0.11999999999999744,"midi":51,"time":40.32,"velocity":0.6377952755905512},{"duration":0.11999999999999744,"midi":75,"time":40.32,"velocity":0.6929133858267716},{"duration":0.11999999999999744,"midi":63,"time":40.32,"velocity":0.6377952755905512},{"duration":0.11999999999999744,"midi":58,"time":40.32,"velocity":0.6377952755905512},{"duration":0.240000000000002,"midi":62,"time":41.04,"velocity":0.6377952755905512},{"duration":0.240000000000002,"midi":81,"time":41.04,"velocity":0.6929133858267716},{"duration":0.240000000000002,"midi":69,"time":41.04,"velocity":0.6377952755905512},{"duration":0.240000000000002,"midi":57,"time":41.04,"velocity":0.6377952755905512},{"duration":0.240000000000002,"midi":50,"time":41.04,"velocity":0.6377952755905512},{"duration":0.11999999999999744,"midi":51,"time":41.28,"velocity":0.6456692913385826},{"duration":0.11999999999999744,"midi":74,"time":41.28,"velocity":0.7244094488188977},{"duration":0.11999999999999744,"midi":70,"time":41.28,"velocity":0.7007874015748031},{"duration":0.11999999999999744,"midi":63,"time":41.28,"velocity":0.6456692913385826},{"duration":0.11999999999999744,"midi":58,"time":41.28,"velocity":0.6456692913385826},{"duration":0.12000000000000455,"midi":72,"time":41.519999999999996,"velocity":0.7244094488188977},{"duration":0.12000000000000455,"midi":67,"time":41.519999999999996,"velocity":0.7244094488188977},{"duration":0.11999999999999744,"midi":70,"time":41.58,"velocity":0.7244094488188977},{"duration":0.11999999999999744,"midi":74,"time":41.58,"velocity":0.7244094488188977},{"duration":0.11999999999999744,"midi":67,"time":41.64,"velocity":0.7244094488188977},{"duration":0.11999999999999744,"midi":72,"time":41.64,"velocity":0.7244094488188977},{"duration":0.240000000000002,"midi":70,"time":41.76,"velocity":0.7244094488188977},{"duration":0.240000000000002,"midi":65,"time":41.76,"velocity":0.7244094488188977},{"duration":0.23999999999999488,"midi":67,"time":42,"velocity":0.7244094488188977},{"duration":0.23999999999999488,"midi":72,"time":42,"velocity":0.7244094488188977},{"duration":0.12000000000000455,"midi":63,"time":42.239999999999995,"velocity":0.6377952755905512},{"duration":0.12000000000000455,"midi":51,"time":42.239999999999995,"velocity":0.6377952755905512},{"duration":0.12000000000000455,"midi":75,"time":42.239999999999995,"velocity":0.6929133858267716},{"duration":0.12000000000000455,"midi":70,"time":42.239999999999995,"velocity":0.6850393700787402},{"duration":0.12000000000000455,"midi":58,"time":42.239999999999995,"velocity":0.6377952755905512},{"duration":0.23999999999999488,"midi":81,"time":42.96,"velocity":0.6929133858267716},{"duration":0.23999999999999488,"midi":50,"time":42.96,"velocity":0.6377952755905512},{"duration":0.23999999999999488,"midi":62,"time":42.96,"velocity":0.6377952755905512},{"duration":0.23999999999999488,"midi":69,"time":42.96,"velocity":0.6377952755905512},{"duration":0.23999999999999488,"midi":57,"time":42.96,"velocity":0.6377952755905512},{"duration":0.12000000000000455,"midi":58,"time":43.199999999999996,"velocity":0.6377952755905512},{"duration":0.12000000000000455,"midi":75,"time":43.199999999999996,"velocity":0.6929133858267716},{"duration":0.12000000000000455,"midi":63,"time":43.199999999999996,"velocity":0.6377952755905512},{"duration":0.12000000000000455,"midi":70,"time":43.199999999999996,"velocity":0.6850393700787402},{"duration":0.12000000000000455,"midi":51,"time":43.199999999999996,"velocity":0.6377952755905512},{"duration":0.23999999999999488,"midi":50,"time":43.92,"velocity":0.6377952755905512},{"duration":0.23999999999999488,"midi":57,"time":43.92,"velocity":0.6377952755905512},{"duration":0.23999999999999488,"midi":62,"time":43.92,"velocity":0.6377952755905512},{"duration":0.23999999999999488,"midi":81,"time":43.92,"velocity":0.6929133858267716},{"duration":0.23999999999999488,"midi":69,"time":43.92,"velocity":0.6377952755905512},{"duration":0.12000000000000455,"midi":51,"time":44.16,"velocity":0.6377952755905512},{"duration":0.12000000000000455,"midi":63,"time":44.16,"velocity":0.6377952755905512},{"duration":0.12000000000000455,"midi":70,"time":44.16,"velocity":0.6850393700787402},{"duration":0.12000000000000455,"midi":58,"time":44.16,"velocity":0.6377952755905512},{"duration":0.12000000000000455,"midi":75,"time":44.16,"velocity":0.6929133858267716},{"duration":0.240000000000002,"midi":50,"time":44.879999999999995,"velocity":0.6377952755905512},{"duration":0.240000000000002,"midi":81,"time":44.879999999999995,"velocity":0.6929133858267716},{"duration":0.240000000000002,"midi":62,"time":44.879999999999995,"velocity":0.6377952755905512},{"duration":0.240000000000002,"midi":69,"time":44.879999999999995,"velocity":0.6377952755905512},{"duration":0.240000000000002,"midi":57,"time":44.879999999999995,"velocity":0.6377952755905512},{"duration":0.11999999999999744,"midi":63,"time":45.12,"velocity":0.6456692913385826},{"duration":0.11999999999999744,"midi":58,"time":45.12,"velocity":0.6456692913385826},{"duration":0.11999999999999744,"midi":51,"time":45.12,"velocity":0.6456692913385826},{"duration":0.11999999999999744,"midi":74,"time":45.12,"velocity":0.7244094488188977},{"duration":0.11999999999999744,"midi":70,"time":45.12,"velocity":0.7007874015748031},{"duration":0.11999999999999744,"midi":72,"time":45.36,"velocity":0.7244094488188977},{"duration":0.11999999999999744,"midi":67,"time":45.36,"velocity":0.7244094488188977},{"duration":0.11999999999999744,"midi":74,"time":45.42,"velocity":0.7244094488188977},{"duration":0.11999999999999744,"midi":70,"time":45.42,"velocity":0.7244094488188977},{"duration":0.12000000000000455,"midi":67,"time":45.48,"velocity":0.7244094488188977},{"duration":0.12000000000000455,"midi":72,"time":45.48,"velocity":0.7244094488188977},{"duration":0.23999999999999488,"midi":70,"time":45.6,"velocity":0.7244094488188977},{"duration":0.23999999999999488,"midi":65,"time":45.6,"velocity":0.7244094488188977},{"duration":0.240000000000002,"midi":72,"time":45.839999999999996,"velocity":0.7244094488188977},{"duration":0.240000000000002,"midi":67,"time":45.839999999999996,"velocity":0.7244094488188977},{"duration":0.240000000000002,"midi":48,"time":46.08,"velocity":0.7007874015748031},{"duration":0.4799999999999969,"midi":75,"time":46.08,"velocity":0.7401574803149606},{"duration":0.4799999999999969,"midi":82,"time":46.08,"velocity":0.7795275590551181},{"duration":0.240000000000002,"midi":48,"time":46.44,"velocity":0.7007874015748031},{"duration":0.240000000000002,"midi":48,"time":46.8,"velocity":0.7007874015748031},{"duration":0.240000000000002,"midi":82,"time":47.04,"velocity":0.7795275590551181},{"duration":0.240000000000002,"midi":48,"time":47.04,"velocity":0.7007874015748031},{"duration":0.240000000000002,"midi":74,"time":47.04,"velocity":0.7244094488188977},{"duration":0.11999999999999744,"midi":72,"time":47.28,"velocity":0.7244094488188977},{"duration":0.11999999999999744,"midi":81,"time":47.28,"velocity":0.7795275590551181},{"duration":0.12000000000000455,"midi":74,"time":47.339999999999996,"velocity":0.7244094488188977},{"duration":0.12000000000000455,"midi":82,"time":47.339999999999996,"velocity":0.7795275590551181},{"duration":0.11999999999999744,"midi":72,"time":47.4,"velocity":0.7244094488188977},{"duration":0.11999999999999744,"midi":81,"time":47.4,"velocity":0.7795275590551181},{"duration":0.240000000000002,"midi":48,"time":47.4,"velocity":0.7007874015748031},{"duration":0.240000000000002,"midi":79,"time":47.519999999999996,"velocity":0.7795275590551181},{"duration":0.240000000000002,"midi":70,"time":47.519999999999996,"velocity":0.7244094488188977},{"duration":0.240000000000002,"midi":48,"time":47.76,"velocity":0.7007874015748031},{"duration":0.240000000000002,"midi":72,"time":47.76,"velocity":0.7244094488188977},{"duration":0.240000000000002,"midi":81,"time":47.76,"velocity":0.7795275590551181},{"duration":0.4799999999999969,"midi":82,"time":48,"velocity":0.7795275590551181},{"duration":0.4799999999999969,"midi":74,"time":48,"velocity":0.7165354330708661},{"duration":0.23999999999999488,"midi":50,"time":48,"velocity":0.7007874015748031},{"duration":0.4799999999999969,"midi":77,"time":48,"velocity":0.7165354330708661},{"duration":0.240000000000002,"midi":50,"time":48.36,"velocity":0.7007874015748031},{"duration":0.240000000000002,"midi":50,"time":48.72,"velocity":0.7007874015748031},{"duration":0.23999999999999488,"midi":82,"time":48.96,"velocity":0.7795275590551181},{"duration":0.23999999999999488,"midi":77,"time":48.96,"velocity":0.7165354330708661},{"duration":0.23999999999999488,"midi":74,"time":48.96,"velocity":0.7165354330708661},{"duration":0.23999999999999488,"midi":50,"time":48.96,"velocity":0.7007874015748031},{"duration":0.12000000000000455,"midi":72,"time":49.199999999999996,"velocity":0.7795275590551181},{"duration":0.12000000000000455,"midi":81,"time":49.199999999999996,"velocity":0.7795275590551181},{"duration":0.11999999999999744,"midi":82,"time":49.26,"velocity":0.7795275590551181},{"duration":0.11999999999999744,"midi":74,"time":49.26,"velocity":0.7795275590551181},{"duration":0.23999999999999488,"midi":50,"time":49.32,"velocity":0.7007874015748031},{"duration":0.11999999999999744,"midi":72,"time":49.32,"velocity":0.7795275590551181},{"duration":0.11999999999999744,"midi":81,"time":49.32,"velocity":0.7795275590551181},{"duration":0.240000000000002,"midi":70,"time":49.44,"velocity":0.7795275590551181},{"duration":0.240000000000002,"midi":79,"time":49.44,"velocity":0.7795275590551181},{"duration":0.240000000000002,"midi":50,"time":49.68,"velocity":0.7007874015748031},{"duration":0.240000000000002,"midi":72,"time":49.68,"velocity":0.7795275590551181},{"duration":0.240000000000002,"midi":81,"time":49.68,"velocity":0.7795275590551181},{"duration":0.23999999999999488,"midi":51,"time":49.92,"velocity":0.7007874015748031},{"duration":0.4799999999999969,"midi":77,"time":49.92,"velocity":0.7401574803149606},{"duration":0.4799999999999969,"midi":74,"time":49.92,"velocity":0.7165354330708661},{"duration":0.4799999999999969,"midi":82,"time":49.92,"velocity":0.7795275590551181},{"duration":0.23999999999999488,"midi":51,"time":50.28,"velocity":0.7007874015748031},{"duration":0.23999999999999488,"midi":81,"time":50.64,"velocity":0.7795275590551181},{"duration":0.23999999999999488,"midi":51,"time":50.64,"velocity":0.7007874015748031},{"duration":0.240000000000002,"midi":53,"time":50.879999999999995,"velocity":0.7007874015748031},{"duration":0.480000000000004,"midi":72,"time":50.879999999999995,"velocity":0.7401574803149606},{"duration":0.480000000000004,"midi":77,"time":50.879999999999995,"velocity":0.7795275590551181},{"duration":0.240000000000002,"midi":53,"time":51.239999999999995,"velocity":0.7007874015748031},{"duration":0.11999999999999744,"midi":74,"time":51.54,"velocity":0.7795275590551181},{"duration":0.23999999999999488,"midi":75,"time":51.6,"velocity":0.7795275590551181},{"duration":0.23999999999999488,"midi":54,"time":51.6,"velocity":0.7007874015748031},{"duration":0.23999999999999488,"midi":69,"time":51.6,"velocity":0.6929133858267716},{"duration":0.240000000000002,"midi":55,"time":51.839999999999996,"velocity":0.7007874015748031},{"duration":0.480000000000004,"midi":70,"time":51.839999999999996,"velocity":0.6929133858267716},{"duration":0.480000000000004,"midi":74,"time":51.839999999999996,"velocity":0.7795275590551181},{"duration":0.240000000000002,"midi":55,"time":52.199999999999996,"velocity":0.7007874015748031},{"duration":0.240000000000002,"midi":55,"time":52.559999999999995,"velocity":0.7007874015748031},{"duration":0.240000000000002,"midi":72,"time":52.559999999999995,"velocity":0.7795275590551181},{"duration":0.240000000000002,"midi":67,"time":52.559999999999995,"velocity":0.7007874015748031},{"duration":0.240000000000002,"midi":70,"time":52.8,"velocity":0.7795275590551181},{"duration":0.240000000000002,"midi":65,"time":52.8,"velocity":0.7007874015748031},{"duration":0.240000000000002,"midi":53,"time":52.8,"velocity":0.7007874015748031},{"duration":0.240000000000002,"midi":72,"time":53.04,"velocity":0.7795275590551181},{"duration":0.240000000000002,"midi":67,"time":53.04,"velocity":0.7007874015748031},{"duration":0.240000000000002,"midi":53,"time":53.16,"velocity":0.7007874015748031},{"duration":0.23999999999999488,"midi":70,"time":53.28,"velocity":0.7007874015748031},{"duration":0.23999999999999488,"midi":74,"time":53.28,"velocity":0.7795275590551181},{"duration":0.240000000000002,"midi":53,"time":53.519999999999996,"velocity":0.7007874015748031},{"duration":0.240000000000002,"midi":75,"time":53.519999999999996,"velocity":0.7795275590551181},{"duration":0.240000000000002,"midi":72,"time":53.519999999999996,"velocity":0.7007874015748031},{"duration":0.240000000000002,"midi":48,"time":53.76,"velocity":0.7007874015748031},{"duration":0.240000000000002,"midi":74,"time":53.76,"velocity":0.7007874015748031},{"duration":0.240000000000002,"midi":77,"time":53.76,"velocity":0.7795275590551181},{"duration":0.23999999999999488,"midi":74,"time":54,"velocity":0.7007874015748031},{"duration":0.23999999999999488,"midi":77,"time":54,"velocity":0.7795275590551181},{"duration":0.240000000000002,"midi":48,"time":54.12,"velocity":0.7007874015748031},{"duration":0.240000000000002,"midi":77,"time":54.239999999999995,"velocity":0.7795275590551181},{"duration":0.240000000000002,"midi":72,"time":54.239999999999995,"velocity":0.7007874015748031},{"duration":0.240000000000002,"midi":77,"time":54.48,"velocity":0.7795275590551181},{"duration":0.240000000000002,"midi":72,"time":54.48,"velocity":0.7007874015748031},{"duration":0.240000000000002,"midi":48,"time":54.48,"velocity":0.7007874015748031},{"duration":0.4799999999999969,"midi":70,"time":54.72,"velocity":0.7007874015748031},{"duration":0.4799999999999969,"midi":77,"time":54.72,"velocity":0.7795275590551181},{"duration":0.240000000000002,"midi":48,"time":54.72,"velocity":0.7007874015748031},{"duration":0.240000000000002,"midi":48,"time":55.08,"velocity":0.7007874015748031},{"duration":0.240000000000002,"midi":70,"time":55.199999999999996,"velocity":0.7795275590551181},{"duration":0.12000000000000455,"midi":73,"time":55.379999999999995,"velocity":0.7795275590551181},{"duration":0.240000000000002,"midi":74,"time":55.44,"velocity":0.7795275590551181},{"duration":0.240000000000002,"midi":48,"time":55.44,"velocity":0.7007874015748031},{"duration":0.23999999999999488,"midi":50,"time":55.68,"velocity":0.7007874015748031},{"duration":0.23999999999999488,"midi":72,"time":55.68,"velocity":0.7795275590551181},{"duration":0.23999999999999488,"midi":69,"time":55.68,"velocity":0.7007874015748031},{"duration":0.240000000000002,"midi":69,"time":55.919999999999995,"velocity":0.7007874015748031},{"duration":0.240000000000002,"midi":72,"time":55.919999999999995,"velocity":0.7795275590551181},{"duration":0.240000000000002,"midi":50,"time":56.04,"velocity":0.7007874015748031},{"duration":0.240000000000002,"midi":67,"time":56.16,"velocity":0.7007874015748031},{"duration":0.240000000000002,"midi":72,"time":56.16,"velocity":0.7795275590551181},{"duration":0.240000000000002,"midi":67,"time":56.4,"velocity":0.7007874015748031},{"duration":0.240000000000002,"midi":72,"time":56.4,"velocity":0.7795275590551181},{"duration":0.240000000000002,"midi":50,"time":56.4,"velocity":0.7007874015748031},{"duration":0.35999999999999943,"midi":65,"time":56.64,"velocity":0.7007874015748031},{"duration":0.23999999999999488,"midi":50,"time":56.64,"velocity":0.7007874015748031},{"duration":0.35999999999999943,"midi":72,"time":56.64,"velocity":0.7795275590551181},{"duration":0.23999999999999488,"midi":50,"time":57,"velocity":0.7007874015748031},{"duration":0.12000000000000455,"midi":73,"time":57.059999999999995,"velocity":0.7795275590551181},{"duration":0.240000000000002,"midi":74,"time":57.12,"velocity":0.7795275590551181},{"duration":0.240000000000002,"midi":70,"time":57.12,"velocity":0.7007874015748031},{"duration":0.23999999999999488,"midi":72,"time":57.36,"velocity":0.7795275590551181},{"duration":0.23999999999999488,"midi":67,"time":57.36,"velocity":0.7007874015748031},{"duration":0.23999999999999488,"midi":50,"time":57.36,"velocity":0.7007874015748031},{"duration":0.240000000000002,"midi":51,"time":57.599999999999994,"velocity":0.7007874015748031},{"duration":0.480000000000004,"midi":70,"time":57.599999999999994,"velocity":0.7795275590551181},{"duration":0.480000000000004,"midi":65,"time":57.599999999999994,"velocity":0.7007874015748031},{"duration":0.23999999999999488,"midi":51,"time":57.96,"velocity":0.7007874015748031},{"duration":0.23999999999999488,"midi":51,"time":58.32,"velocity":0.7007874015748031},{"duration":0.23999999999999488,"midi":62,"time":58.32,"velocity":0.6929133858267716},{"duration":0.23999999999999488,"midi":65,"time":58.32,"velocity":0.7795275590551181},{"duration":0.240000000000002,"midi":53,"time":58.559999999999995,"velocity":0.7007874015748031},{"duration":0.240000000000002,"midi":70,"time":58.559999999999995,"velocity":0.7007874015748031},{"duration":0.240000000000002,"midi":74,"time":58.559999999999995,"velocity":0.7795275590551181},{"duration":0.240000000000002,"midi":72,"time":58.8,"velocity":0.7007874015748031},{"duration":0.240000000000002,"midi":75,"time":58.8,"velocity":0.7795275590551181},{"duration":0.240000000000002,"midi":53,"time":58.919999999999995,"velocity":0.7007874015748031},{"duration":0.240000000000002,"midi":69,"time":59.04,"velocity":0.7007874015748031},{"duration":0.240000000000002,"midi":72,"time":59.04,"velocity":0.7795275590551181},{"duration":0.23999999999999488,"midi":54,"time":59.28,"velocity":0.7007874015748031},{"duration":0.11999999999999744,"midi":70,"time":59.4,"velocity":0.7795275590551181},{"duration":0.11999999999999744,"midi":67,"time":59.4,"velocity":0.7795275590551181},{"duration":0.480000000000004,"midi":70,"time":59.519999999999996,"velocity":0.7795275590551181},{"duration":0.480000000000004,"midi":67,"time":59.519999999999996,"velocity":0.7007874015748031},{"duration":0.240000000000002,"midi":55,"time":59.519999999999996,"velocity":0.7007874015748031},{"duration":0.240000000000002,"midi":55,"time":59.879999999999995,"velocity":0.7007874015748031},{"duration":0.240000000000002,"midi":55,"time":60.239999999999995,"velocity":0.7007874015748031},{"duration":0.240000000000002,"midi":77,"time":60.239999999999995,"velocity":0.7244094488188977},{"duration":0.240000000000002,"midi":53,"time":60.48,"velocity":0.7007874015748031},{"duration":0.240000000000002,"midi":82,"time":60.48,"velocity":0.7244094488188977},{"duration":0.240000000000002,"midi":84,"time":60.72,"velocity":0.7244094488188977},{"duration":0.23999999999999488,"midi":86,"time":60.96,"velocity":0.7244094488188977},{"duration":0.240000000000002,"midi":87,"time":61.199999999999996,"velocity":0.7244094488188977},{"duration":0.12000000000000455,"midi":77,"time":76.8,"velocity":0.7322834645669292},{"duration":0.12000000000000455,"midi":74,"time":76.8,"velocity":0.7322834645669292},{"duration":0.12000000000000455,"midi":74,"time":77.03999999999999,"velocity":0.7322834645669292},{"duration":0.12000000000000455,"midi":77,"time":77.03999999999999,"velocity":0.7322834645669292},{"duration":0.11999999999999034,"midi":72,"time":77.28,"velocity":0.7322834645669292},{"duration":0.11999999999999034,"midi":77,"time":77.28,"velocity":0.7322834645669292},{"duration":0.12000000000000455,"midi":77,"time":77.52,"velocity":0.7322834645669292},{"duration":0.12000000000000455,"midi":72,"time":77.52,"velocity":0.7322834645669292},{"duration":0.480000000000004,"midi":70,"time":77.75999999999999,"velocity":0.7322834645669292},{"duration":0.480000000000004,"midi":77,"time":77.75999999999999,"velocity":0.7322834645669292},{"duration":0.2400000000000091,"midi":70,"time":78.24,"velocity":0.7322834645669292},{"duration":0.2400000000000091,"midi":67,"time":78.24,"velocity":0.7322834645669292},{"duration":0.23999999999999488,"midi":70,"time":78.48,"velocity":0.7322834645669292},{"duration":0.23999999999999488,"midi":74,"time":78.48,"velocity":0.7322834645669292},{"duration":0.12000000000000455,"midi":69,"time":78.72,"velocity":0.7322834645669292},{"duration":0.12000000000000455,"midi":72,"time":78.72,"velocity":0.7322834645669292},{"duration":0.12000000000000455,"midi":69,"time":78.96,"velocity":0.7322834645669292},{"duration":0.12000000000000455,"midi":72,"time":78.96,"velocity":0.7322834645669292},{"duration":0.11999999999999034,"midi":67,"time":79.2,"velocity":0.7322834645669292},{"duration":0.11999999999999034,"midi":72,"time":79.2,"velocity":0.7322834645669292},{"duration":0.12000000000000455,"midi":67,"time":79.44,"velocity":0.7322834645669292},{"duration":0.12000000000000455,"midi":72,"time":79.44,"velocity":0.7322834645669292},{"duration":0.7199999999999989,"midi":72,"time":79.67999999999999,"velocity":0.7322834645669292},{"duration":0.7199999999999989,"midi":65,"time":79.67999999999999,"velocity":0.7322834645669292},{"duration":0.11999999999999034,"midi":73,"time":80.34,"velocity":0.7244094488188977},{"duration":0.11999999999999034,"midi":69,"time":80.34,"velocity":0.7244094488188977},{"duration":0.12000000000000455,"midi":74,"time":80.39999999999999,"velocity":0.7322834645669292},{"duration":0.12000000000000455,"midi":70,"time":80.39999999999999,"velocity":0.7322834645669292},{"duration":0.12000000000000455,"midi":72,"time":80.52,"velocity":0.7322834645669292},{"duration":0.12000000000000455,"midi":69,"time":80.52,"velocity":0.7322834645669292},{"duration":0.11999999999999034,"midi":67,"time":80.64,"velocity":0.7322834645669292},{"duration":0.11999999999999034,"midi":70,"time":80.64,"velocity":0.7322834645669292},{"duration":0.12000000000000455,"midi":67,"time":80.88,"velocity":0.7322834645669292},{"duration":0.12000000000000455,"midi":70,"time":80.88,"velocity":0.7322834645669292},{"duration":0.12000000000000455,"midi":70,"time":81.11999999999999,"velocity":0.7322834645669292},{"duration":0.12000000000000455,"midi":65,"time":81.11999999999999,"velocity":0.7322834645669292},{"duration":0.12000000000000455,"midi":70,"time":81.36,"velocity":0.7322834645669292},{"duration":0.12000000000000455,"midi":65,"time":81.36,"velocity":0.7322834645669292},{"duration":0.480000000000004,"midi":62,"time":81.6,"velocity":0.7322834645669292},{"duration":0.480000000000004,"midi":70,"time":81.6,"velocity":0.7322834645669292},{"duration":0.23999999999999488,"midi":77,"time":82.08,"velocity":0.7322834645669292},{"duration":0.23999999999999488,"midi":81,"time":82.08,"velocity":0.7322834645669292},{"duration":0.2400000000000091,"midi":82,"time":82.32,"velocity":0.7322834645669292},{"duration":0.2400000000000091,"midi":79,"time":82.32,"velocity":0.7322834645669292},{"duration":0.7199999999999989,"midi":81,"time":82.56,"velocity":0.7322834645669292},{"duration":0.7199999999999989,"midi":77,"time":82.56,"velocity":0.7322834645669292},{"duration":0.23999999999999488,"midi":77,"time":83.28,"velocity":0.7322834645669292},{"duration":0.23999999999999488,"midi":72,"time":83.28,"velocity":0.7322834645669292},{"duration":0.7199999999999989,"midi":69,"time":83.52,"velocity":0.7322834645669292},{"duration":0.7199999999999989,"midi":74,"time":83.52,"velocity":0.7322834645669292},{"duration":0.12000000000000455,"midi":74,"time":84.24,"velocity":0.7322834645669292},{"duration":0.12000000000000455,"midi":70,"time":84.24,"velocity":0.7322834645669292},{"duration":0.11999999999999034,"midi":72,"time":84.36,"velocity":0.7322834645669292},{"duration":0.11999999999999034,"midi":75,"time":84.36,"velocity":0.7322834645669292},{"duration":0.12000000000000455,"midi":74,"time":84.47999999999999,"velocity":0.7322834645669292},{"duration":0.12000000000000455,"midi":77,"time":84.47999999999999,"velocity":0.7322834645669292},{"duration":0.12000000000000455,"midi":77,"time":84.72,"velocity":0.7322834645669292},{"duration":0.12000000000000455,"midi":74,"time":84.72,"velocity":0.7322834645669292},{"duration":0.12000000000000455,"midi":77,"time":84.96,"velocity":0.7322834645669292},{"duration":0.12000000000000455,"midi":72,"time":84.96,"velocity":0.7322834645669292},{"duration":0.11999999999999034,"midi":72,"time":85.2,"velocity":0.7322834645669292},{"duration":0.11999999999999034,"midi":77,"time":85.2,"velocity":0.7322834645669292},{"duration":0.480000000000004,"midi":77,"time":85.44,"velocity":0.7322834645669292},{"duration":0.480000000000004,"midi":70,"time":85.44,"velocity":0.7322834645669292},{"duration":0.23999999999999488,"midi":70,"time":85.92,"velocity":0.7322834645669292},{"duration":0.23999999999999488,"midi":67,"time":85.92,"velocity":0.7322834645669292},{"duration":0.23999999999999488,"midi":70,"time":86.16,"velocity":0.7322834645669292},{"duration":0.23999999999999488,"midi":74,"time":86.16,"velocity":0.7322834645669292},{"duration":0.12000000000000455,"midi":72,"time":86.39999999999999,"velocity":0.7322834645669292},{"duration":0.12000000000000455,"midi":69,"time":86.39999999999999,"velocity":0.7322834645669292},{"duration":0.11999999999999034,"midi":69,"time":86.64,"velocity":0.7322834645669292},{"duration":0.11999999999999034,"midi":72,"time":86.64,"velocity":0.7322834645669292},{"duration":0.12000000000000455,"midi":72,"time":86.88,"velocity":0.7322834645669292},{"duration":0.12000000000000455,"midi":67,"time":86.88,"velocity":0.7322834645669292},{"duration":0.12000000000000455,"midi":72,"time":87.11999999999999,"velocity":0.7322834645669292},{"duration":0.12000000000000455,"midi":67,"time":87.11999999999999,"velocity":0.7322834645669292},{"duration":0.480000000000004,"midi":72,"time":87.36,"velocity":0.7322834645669292},{"duration":0.480000000000004,"midi":65,"time":87.36,"velocity":0.7322834645669292},{"duration":0.11999999999999034,"midi":69,"time":87.78,"velocity":0.7244094488188977},{"duration":0.11999999999999034,"midi":73,"time":87.78,"velocity":0.7244094488188977},{"duration":0.23999999999999488,"midi":70,"time":87.84,"velocity":0.7322834645669292},{"duration":0.23999999999999488,"midi":74,"time":87.84,"velocity":0.7322834645669292},{"duration":0.23999999999999488,"midi":72,"time":88.08,"velocity":0.7322834645669292},{"duration":0.23999999999999488,"midi":69,"time":88.08,"velocity":0.7322834645669292},{"duration":0.7199999999999989,"midi":67,"time":88.32,"velocity":0.7322834645669292},{"duration":0.7199999999999989,"midi":70,"time":88.32,"velocity":0.7322834645669292},{"duration":0.2400000000000091,"midi":65,"time":89.03999999999999,"velocity":0.7322834645669292},{"duration":0.23999999999999488,"midi":74,"time":89.28,"velocity":0.7322834645669292},{"duration":0.23999999999999488,"midi":70,"time":89.28,"velocity":0.7322834645669292},{"duration":0.23999999999999488,"midi":72,"time":89.52,"velocity":0.7322834645669292},{"duration":0.23999999999999488,"midi":75,"time":89.52,"velocity":0.7322834645669292},{"duration":0.35999999999999943,"midi":69,"time":89.75999999999999,"velocity":0.7322834645669292},{"duration":0.35999999999999943,"midi":72,"time":89.75999999999999,"velocity":0.7322834645669292},{"duration":0.12000000000000455,"midi":67,"time":90.11999999999999,"velocity":0.7322834645669292},{"duration":0.12000000000000455,"midi":70,"time":90.11999999999999,"velocity":0.7322834645669292},{"duration":0.480000000000004,"midi":70,"time":90.24,"velocity":0.7322834645669292},{"duration":0.480000000000004,"midi":67,"time":90.24,"velocity":0.7322834645669292},{"duration":0.2400000000000091,"midi":65,"time":90.96,"velocity":0.7322834645669292},{"duration":0.23999999999999488,"midi":70,"time":91.2,"velocity":0.7322834645669292},{"duration":0.23999999999999488,"midi":74,"time":91.2,"velocity":0.7322834645669292},{"duration":0.23999999999999488,"midi":72,"time":91.44,"velocity":0.7322834645669292},{"duration":0.23999999999999488,"midi":75,"time":91.44,"velocity":0.7322834645669292},{"duration":0.2400000000000091,"midi":72,"time":91.67999999999999,"velocity":0.7322834645669292},{"duration":0.2400000000000091,"midi":65,"time":91.67999999999999,"velocity":0.7322834645669292},{"duration":0.23999999999999488,"midi":65,"time":91.92,"velocity":0.7322834645669292},{"duration":0.23999999999999488,"midi":70,"time":91.92,"velocity":0.7322834645669292},{"duration":0.480000000000004,"midi":70,"time":92.16,"velocity":0.7322834645669292},{"duration":0.480000000000004,"midi":65,"time":92.16,"velocity":0.7322834645669292},{"duration":0.23999999999999488,"midi":65,"time":92.88,"velocity":0.7322834645669292},{"duration":0.2400000000000091,"midi":69,"time":93.11999999999999,"velocity":0.7322834645669292},{"duration":0.2400000000000091,"midi":74,"time":93.11999999999999,"velocity":0.7322834645669292},{"duration":0.23999999999999488,"midi":70,"time":93.36,"velocity":0.7322834645669292},{"duration":0.23999999999999488,"midi":75,"time":93.36,"velocity":0.7322834645669292},{"duration":0.2400000000000091,"midi":65,"time":93.6,"velocity":0.7322834645669292},{"duration":0.2400000000000091,"midi":72,"time":93.6,"velocity":0.7322834645669292},{"duration":0.12000000000000455,"midi":70,"time":93.96,"velocity":0.7322834645669292},{"duration":0.12000000000000455,"midi":65,"time":93.96,"velocity":0.7322834645669292},{"duration":0.480000000000004,"midi":70,"time":94.08,"velocity":0.7322834645669292},{"duration":0.480000000000004,"midi":65,"time":94.08,"velocity":0.7322834645669292},{"duration":0.23999999999999488,"midi":65,"time":94.8,"velocity":0.7322834645669292},{"duration":0.2400000000000091,"midi":74,"time":95.03999999999999,"velocity":0.7322834645669292},{"duration":0.2400000000000091,"midi":69,"time":95.03999999999999,"velocity":0.7322834645669292},{"duration":0.23999999999999488,"midi":70,"time":95.28,"velocity":0.7322834645669292},{"duration":0.23999999999999488,"midi":75,"time":95.28,"velocity":0.7322834645669292},{"duration":0.23999999999999488,"midi":72,"time":95.52,"velocity":0.7322834645669292},{"duration":0.23999999999999488,"midi":77,"time":95.52,"velocity":0.7322834645669292},{"duration":0.2400000000000091,"midi":81,"time":95.75999999999999,"velocity":0.7322834645669292},{"duration":0.2400000000000091,"midi":77,"time":95.75999999999999,"velocity":0.7322834645669292},{"duration":0.23999999999999488,"midi":77,"time":96,"velocity":0.7322834645669292},{"duration":0.23999999999999488,"midi":74,"time":96,"velocity":0.7322834645669292},{"duration":0.23999999999999488,"midi":72,"time":96.72,"velocity":0.7322834645669292},{"duration":0.23999999999999488,"midi":81,"time":96.72,"velocity":0.7322834645669292},{"duration":0.2400000000000091,"midi":70,"time":96.96,"velocity":0.7322834645669292},{"duration":0.2400000000000091,"midi":77,"time":96.96,"velocity":0.7322834645669292},{"duration":0.2400000000000091,"midi":81,"time":97.67999999999999,"velocity":0.7322834645669292},{"duration":0.2400000000000091,"midi":74,"time":97.67999999999999,"velocity":0.7322834645669292},{"duration":0.11999999999999034,"midi":72,"time":97.92,"velocity":0.7874015748031497},{"duration":0.11999999999999034,"midi":77,"time":97.92,"velocity":0.7874015748031497},{"duration":0.11999999999999034,"midi":81,"time":98.64,"velocity":0.6299212598425197},{"duration":0.11999999999999034,"midi":74,"time":98.64,"velocity":0.6299212598425197},{"duration":0.12000000000000455,"midi":74,"time":98.88,"velocity":0.6299212598425197},{"duration":0.12000000000000455,"midi":66,"time":98.88,"velocity":0.6299212598425197},{"duration":0.12000000000000455,"midi":63,"time":99.11999999999999,"velocity":0.6299212598425197},{"duration":0.12000000000000455,"midi":72,"time":99.11999999999999,"velocity":0.6299212598425197},{"duration":0.12000000000000455,"midi":74,"time":99.17999999999999,"velocity":0.6299212598425197},{"duration":0.12000000000000455,"midi":66,"time":99.17999999999999,"velocity":0.6299212598425197},{"duration":0.12000000000000455,"midi":72,"time":99.24,"velocity":0.6299212598425197},{"duration":0.12000000000000455,"midi":63,"time":99.24,"velocity":0.6299212598425197},{"duration":0.23999999999999488,"midi":62,"time":99.36,"velocity":0.6299212598425197},{"duration":0.23999999999999488,"midi":70,"time":99.36,"velocity":0.6299212598425197},{"duration":0.23999999999998067,"midi":75,"time":130.56,"velocity":0.7401574803149606},{"duration":0.23999999999998067,"midi":82,"time":130.56,"velocity":0.7795275590551181},{"duration":0.2400000000000091,"midi":74,"time":131.51999999999998,"velocity":0.7244094488188977},{"duration":0.2400000000000091,"midi":82,"time":131.51999999999998,"velocity":0.7795275590551181},{"duration":0.12000000000000455,"midi":72,"time":131.76,"velocity":0.7244094488188977},{"duration":0.12000000000000455,"midi":81,"time":131.76,"velocity":0.7795275590551181},{"duration":0.12000000000000455,"midi":74,"time":131.82,"velocity":0.7244094488188977},{"duration":0.12000000000000455,"midi":82,"time":131.82,"velocity":0.7795275590551181},{"duration":0.12000000000000455,"midi":81,"time":131.88,"velocity":0.7795275590551181},{"duration":0.12000000000000455,"midi":72,"time":131.88,"velocity":0.7244094488188977},{"duration":0.2400000000000091,"midi":70,"time":132,"velocity":0.7244094488188977},{"duration":0.2400000000000091,"midi":79,"time":132,"velocity":0.7795275590551181},{"duration":0.23999999999998067,"midi":72,"time":132.24,"velocity":0.7244094488188977},{"duration":0.23999999999998067,"midi":81,"time":132.24,"velocity":0.7795275590551181},{"duration":0.2400000000000091,"midi":74,"time":132.48,"velocity":0.7165354330708661},{"duration":0.2400000000000091,"midi":82,"time":132.48,"velocity":0.7795275590551181},{"duration":0.2400000000000091,"midi":77,"time":132.48,"velocity":0.7165354330708661},{"duration":0.2400000000000091,"midi":82,"time":133.44,"velocity":0.7795275590551181},{"duration":0.2400000000000091,"midi":74,"time":133.44,"velocity":0.7165354330708661},{"duration":0.2400000000000091,"midi":77,"time":133.44,"velocity":0.7165354330708661},{"duration":0.11999999999997613,"midi":72,"time":133.68,"velocity":0.7795275590551181},{"duration":0.11999999999997613,"midi":81,"time":133.68,"velocity":0.7795275590551181},{"duration":0.11999999999997613,"midi":74,"time":133.74,"velocity":0.7795275590551181},{"duration":0.11999999999997613,"midi":82,"time":133.74,"velocity":0.7795275590551181},{"duration":0.12000000000000455,"midi":81,"time":133.79999999999998,"velocity":0.7795275590551181},{"duration":0.12000000000000455,"midi":72,"time":133.79999999999998,"velocity":0.7795275590551181},{"duration":0.2400000000000091,"midi":70,"time":133.92,"velocity":0.7795275590551181},{"duration":0.2400000000000091,"midi":79,"time":133.92,"velocity":0.7795275590551181},{"duration":0.2400000000000091,"midi":81,"time":134.16,"velocity":0.7795275590551181},{"duration":0.2400000000000091,"midi":72,"time":134.16,"velocity":0.7795275590551181},{"duration":0.23999999999998067,"midi":74,"time":134.4,"velocity":0.7165354330708661},{"duration":0.23999999999998067,"midi":77,"time":134.4,"velocity":0.7401574803149606},{"duration":0.23999999999998067,"midi":82,"time":134.4,"velocity":0.7795275590551181},{"duration":0.23999999999998067,"midi":81,"time":135.12,"velocity":0.7795275590551181},{"duration":0.2400000000000091,"midi":77,"time":135.35999999999999,"velocity":0.7795275590551181},{"duration":0.2400000000000091,"midi":72,"time":135.35999999999999,"velocity":0.7401574803149606},{"duration":0.12000000000000455,"midi":74,"time":136.01999999999998,"velocity":0.7795275590551181},{"duration":0.2400000000000091,"midi":69,"time":136.07999999999998,"velocity":0.6929133858267716},{"duration":0.2400000000000091,"midi":75,"time":136.07999999999998,"velocity":0.7795275590551181},{"duration":0.2400000000000091,"midi":74,"time":136.32,"velocity":0.7795275590551181},{"duration":0.2400000000000091,"midi":70,"time":136.32,"velocity":0.6929133858267716},{"duration":0.2400000000000091,"midi":72,"time":137.04,"velocity":0.7795275590551181},{"duration":0.2400000000000091,"midi":67,"time":137.04,"velocity":0.7007874015748031},{"duration":0.23999999999998067,"midi":70,"time":137.28,"velocity":0.7795275590551181},{"duration":0.23999999999998067,"midi":65,"time":137.28,"velocity":0.7007874015748031},{"duration":0.2400000000000091,"midi":67,"time":137.51999999999998,"velocity":0.7007874015748031},{"duration":0.2400000000000091,"midi":72,"time":137.51999999999998,"velocity":0.7795275590551181},{"duration":0.2400000000000091,"midi":70,"time":137.76,"velocity":0.7007874015748031},{"duration":0.2400000000000091,"midi":74,"time":137.76,"velocity":0.7795275590551181},{"duration":0.2400000000000091,"midi":75,"time":138,"velocity":0.7795275590551181},{"duration":0.2400000000000091,"midi":72,"time":138,"velocity":0.7007874015748031},{"duration":0.23999999999998067,"midi":74,"time":138.24,"velocity":0.7007874015748031},{"duration":0.23999999999998067,"midi":77,"time":138.24,"velocity":0.7795275590551181},{"duration":0.2400000000000091,"midi":74,"time":138.48,"velocity":0.7007874015748031},{"duration":0.2400000000000091,"midi":77,"time":138.48,"velocity":0.7795275590551181},{"duration":0.2400000000000091,"midi":72,"time":138.72,"velocity":0.7007874015748031},{"duration":0.2400000000000091,"midi":77,"time":138.72,"velocity":0.7795275590551181},{"duration":0.23999999999998067,"midi":77,"time":138.96,"velocity":0.7795275590551181},{"duration":0.23999999999998067,"midi":72,"time":138.96,"velocity":0.7007874015748031},{"duration":0.4800000000000182,"midi":70,"time":139.2,"velocity":0.7007874015748031},{"duration":0.4800000000000182,"midi":77,"time":139.2,"velocity":0.7795275590551181},{"duration":0.23999999999998067,"midi":70,"time":139.68,"velocity":0.7795275590551181},{"duration":0.12000000000000455,"midi":73,"time":139.85999999999999,"velocity":0.7795275590551181},{"duration":0.2400000000000091,"midi":74,"time":139.92,"velocity":0.7795275590551181},{"duration":0.2400000000000091,"midi":69,"time":140.16,"velocity":0.7007874015748031},{"duration":0.2400000000000091,"midi":72,"time":140.16,"velocity":0.7795275590551181},{"duration":0.23999999999998067,"midi":69,"time":140.4,"velocity":0.7007874015748031},{"duration":0.23999999999998067,"midi":72,"time":140.4,"velocity":0.7795275590551181},{"duration":0.2400000000000091,"midi":72,"time":140.64,"velocity":0.7795275590551181},{"duration":0.2400000000000091,"midi":67,"time":140.64,"velocity":0.7007874015748031},{"duration":0.2400000000000091,"midi":67,"time":140.88,"velocity":0.7007874015748031},{"duration":0.2400000000000091,"midi":72,"time":140.88,"velocity":0.7795275590551181},{"duration":0.3599999999999852,"midi":65,"time":141.12,"velocity":0.7007874015748031},{"duration":0.3599999999999852,"midi":72,"time":141.12,"velocity":0.7795275590551181},{"duration":0.12000000000000455,"midi":73,"time":141.54,"velocity":0.7795275590551181},{"duration":0.2400000000000091,"midi":74,"time":141.6,"velocity":0.7795275590551181},{"duration":0.2400000000000091,"midi":70,"time":141.6,"velocity":0.7007874015748031},{"duration":0.23999999999998067,"midi":72,"time":141.84,"velocity":0.7795275590551181},{"duration":0.23999999999998067,"midi":67,"time":141.84,"velocity":0.7007874015748031},{"duration":0.4800000000000182,"midi":70,"time":142.07999999999998,"velocity":0.7795275590551181},{"duration":0.4800000000000182,"midi":65,"time":142.07999999999998,"velocity":0.7007874015748031},{"duration":0.2400000000000091,"midi":65,"time":142.79999999999998,"velocity":0.7795275590551181},{"duration":0.2400000000000091,"midi":62,"time":142.79999999999998,"velocity":0.6929133858267716},{"duration":0.2400000000000091,"midi":74,"time":143.04,"velocity":0.7795275590551181},{"duration":0.2400000000000091,"midi":70,"time":143.04,"velocity":0.7007874015748031},{"duration":0.23999999999998067,"midi":75,"time":143.28,"velocity":0.7795275590551181},{"duration":0.23999999999998067,"midi":72,"time":143.28,"velocity":0.7007874015748031},{"duration":0.2400000000000091,"midi":72,"time":143.51999999999998,"velocity":0.7795275590551181},{"duration":0.2400000000000091,"midi":69,"time":143.51999999999998,"velocity":0.7007874015748031},{"duration":0.12000000000000455,"midi":67,"time":143.88,"velocity":0.7795275590551181},{"duration":0.12000000000000455,"midi":70,"time":143.88,"velocity":0.7795275590551181},{"duration":0.960000000000008,"midi":67,"time":144,"velocity":0.7007874015748031},{"duration":0.960000000000008,"midi":70,"time":144,"velocity":0.7795275590551181},{"duration":0.47999999999998977,"midi":79,"time":144.96,"velocity":0.7795275590551181},{"duration":0.47999999999998977,"midi":67,"time":144.96,"velocity":0.7795275590551181},{"duration":0.47999999999998977,"midi":75,"time":144.96,"velocity":0.6929133858267716},{"duration":0.47999999999998977,"midi":69,"time":145.44,"velocity":0.7795275590551181},{"duration":0.47999999999998977,"midi":81,"time":145.44,"velocity":0.7795275590551181},{"duration":0.47999999999998977,"midi":77,"time":145.44,"velocity":0.6929133858267716},{"duration":0.2400000000000091,"midi":75,"time":145.92,"velocity":0.7401574803149606},{"duration":0.2400000000000091,"midi":82,"time":145.92,"velocity":0.7795275590551181},{"duration":0.2400000000000091,"midi":74,"time":146.88,"velocity":0.7244094488188977},{"duration":0.2400000000000091,"midi":82,"time":146.88,"velocity":0.7795275590551181},{"duration":0.11999999999997613,"midi":81,"time":147.12,"velocity":0.7795275590551181},{"duration":0.11999999999997613,"midi":72,"time":147.12,"velocity":0.7244094488188977},{"duration":0.11999999999997613,"midi":82,"time":147.18,"velocity":0.7795275590551181},{"duration":0.11999999999997613,"midi":74,"time":147.18,"velocity":0.7244094488188977},{"duration":0.12000000000000455,"midi":72,"time":147.23999999999998,"velocity":0.7244094488188977},{"duration":0.12000000000000455,"midi":81,"time":147.23999999999998,"velocity":0.7795275590551181},{"duration":0.2400000000000091,"midi":79,"time":147.35999999999999,"velocity":0.7795275590551181},{"duration":0.2400000000000091,"midi":70,"time":147.35999999999999,"velocity":0.7244094488188977},{"duration":0.2400000000000091,"midi":72,"time":147.6,"velocity":0.7244094488188977},{"duration":0.2400000000000091,"midi":81,"time":147.6,"velocity":0.7795275590551181},{"duration":0.23999999999998067,"midi":74,"time":147.84,"velocity":0.7165354330708661},{"duration":0.23999999999998067,"midi":77,"time":147.84,"velocity":0.7165354330708661},{"duration":0.23999999999998067,"midi":82,"time":147.84,"velocity":0.7795275590551181},{"duration":0.2400000000000091,"midi":74,"time":148.79999999999998,"velocity":0.7165354330708661},{"duration":0.2400000000000091,"midi":82,"time":148.79999999999998,"velocity":0.7795275590551181},{"duration":0.2400000000000091,"midi":77,"time":148.79999999999998,"velocity":0.7165354330708661},{"duration":0.12000000000000455,"midi":81,"time":149.04,"velocity":0.7795275590551181},{"duration":0.12000000000000455,"midi":72,"time":149.04,"velocity":0.7795275590551181},{"duration":0.12000000000000455,"midi":82,"time":149.1,"velocity":0.7795275590551181},{"duration":0.12000000000000455,"midi":74,"time":149.1,"velocity":0.7795275590551181},{"duration":0.12000000000000455,"midi":72,"time":149.16,"velocity":0.7795275590551181},{"duration":0.12000000000000455,"midi":81,"time":149.16,"velocity":0.7795275590551181},{"duration":0.23999999999998067,"midi":79,"time":149.28,"velocity":0.7795275590551181},{"duration":0.23999999999998067,"midi":70,"time":149.28,"velocity":0.7795275590551181},{"duration":0.2400000000000091,"midi":72,"time":149.51999999999998,"velocity":0.7795275590551181},{"duration":0.2400000000000091,"midi":81,"time":149.51999999999998,"velocity":0.7795275590551181},{"duration":0.2400000000000091,"midi":74,"time":149.76,"velocity":0.7165354330708661},{"duration":0.2400000000000091,"midi":77,"time":149.76,"velocity":0.7401574803149606},{"duration":0.2400000000000091,"midi":82,"time":149.76,"velocity":0.7795275590551181},{"duration":0.2400000000000091,"midi":81,"time":150.48,"velocity":0.7795275590551181},{"duration":0.2400000000000091,"midi":77,"time":150.72,"velocity":0.7795275590551181},{"duration":0.2400000000000091,"midi":72,"time":150.72,"velocity":0.7401574803149606},{"duration":0.12000000000000455,"midi":74,"time":151.38,"velocity":0.7795275590551181},{"duration":0.2400000000000091,"midi":75,"time":151.44,"velocity":0.7795275590551181},{"duration":0.2400000000000091,"midi":69,"time":151.44,"velocity":0.6929133858267716},{"duration":0.23999999999998067,"midi":70,"time":151.68,"velocity":0.6929133858267716},{"duration":0.23999999999998067,"midi":74,"time":151.68,"velocity":0.7795275590551181},{"duration":0.23999999999998067,"midi":67,"time":152.4,"velocity":0.7007874015748031},{"duration":0.23999999999998067,"midi":72,"time":152.4,"velocity":0.7795275590551181},{"duration":0.2400000000000091,"midi":70,"time":152.64,"velocity":0.7795275590551181},{"duration":0.2400000000000091,"midi":65,"time":152.64,"velocity":0.7007874015748031},{"duration":0.2400000000000091,"midi":67,"time":152.88,"velocity":0.7007874015748031},{"duration":0.2400000000000091,"midi":72,"time":152.88,"velocity":0.7795275590551181},{"duration":0.23999999999998067,"midi":74,"time":153.12,"velocity":0.7795275590551181},{"duration":0.23999999999998067,"midi":70,"time":153.12,"velocity":0.7007874015748031},{"duration":0.2400000000000091,"midi":72,"time":153.35999999999999,"velocity":0.7007874015748031},{"duration":0.2400000000000091,"midi":75,"time":153.35999999999999,"velocity":0.7795275590551181},{"duration":0.2400000000000091,"midi":74,"time":153.6,"velocity":0.7007874015748031},{"duration":0.2400000000000091,"midi":77,"time":153.6,"velocity":0.7795275590551181},{"duration":0.23999999999998067,"midi":77,"time":153.84,"velocity":0.7795275590551181},{"duration":0.23999999999998067,"midi":74,"time":153.84,"velocity":0.7007874015748031},{"duration":0.2400000000000091,"midi":72,"time":154.07999999999998,"velocity":0.7007874015748031},{"duration":0.2400000000000091,"midi":77,"time":154.07999999999998,"velocity":0.7795275590551181},{"duration":0.2400000000000091,"midi":72,"time":154.32,"velocity":0.7007874015748031},{"duration":0.2400000000000091,"midi":77,"time":154.32,"velocity":0.7795275590551181},{"duration":0.47999999999998977,"midi":77,"time":154.56,"velocity":0.7795275590551181},{"duration":0.47999999999998977,"midi":70,"time":154.56,"velocity":0.7007874015748031},{"duration":0.2400000000000091,"midi":70,"time":155.04,"velocity":0.7795275590551181},{"duration":0.12000000000000455,"midi":73,"time":155.22,"velocity":0.7795275590551181},{"duration":0.23999999999998067,"midi":74,"time":155.28,"velocity":0.7795275590551181},{"duration":0.2400000000000091,"midi":69,"time":155.51999999999998,"velocity":0.7007874015748031},{"duration":0.2400000000000091,"midi":72,"time":155.51999999999998,"velocity":0.7795275590551181},{"duration":0.2400000000000091,"midi":69,"time":155.76,"velocity":0.7007874015748031},{"duration":0.2400000000000091,"midi":72,"time":155.76,"velocity":0.7795275590551181},{"duration":0.23999999999998067,"midi":72,"time":156,"velocity":0.7795275590551181},{"duration":0.23999999999998067,"midi":67,"time":156,"velocity":0.7007874015748031},{"duration":0.2400000000000091,"midi":67,"time":156.23999999999998,"velocity":0.7007874015748031},{"duration":0.2400000000000091,"midi":72,"time":156.23999999999998,"velocity":0.7795275590551181},{"duration":0.36000000000001364,"midi":65,"time":156.48,"velocity":0.7007874015748031},{"duration":0.36000000000001364,"midi":72,"time":156.48,"velocity":0.7795275590551181},{"duration":0.11999999999997613,"midi":73,"time":156.9,"velocity":0.7795275590551181},{"duration":0.23999999999998067,"midi":74,"time":156.96,"velocity":0.7795275590551181},{"duration":0.23999999999998067,"midi":70,"time":156.96,"velocity":0.7007874015748031},{"duration":0.2400000000000091,"midi":72,"time":157.2,"velocity":0.7795275590551181},{"duration":0.2400000000000091,"midi":67,"time":157.2,"velocity":0.7007874015748031},{"duration":0.47999999999998977,"midi":65,"time":157.44,"velocity":0.7007874015748031},{"duration":0.47999999999998977,"midi":70,"time":157.44,"velocity":0.7795275590551181},{"duration":0.2400000000000091,"midi":62,"time":158.16,"velocity":0.6929133858267716},{"duration":0.2400000000000091,"midi":65,"time":158.16,"velocity":0.7795275590551181},{"duration":0.23999999999998067,"midi":70,"time":158.4,"velocity":0.7007874015748031},{"duration":0.23999999999998067,"midi":74,"time":158.4,"velocity":0.7795275590551181},{"duration":0.2400000000000091,"midi":72,"time":158.64,"velocity":0.7007874015748031},{"duration":0.2400000000000091,"midi":75,"time":158.64,"velocity":0.7795275590551181},{"duration":0.2400000000000091,"midi":69,"time":158.88,"velocity":0.7007874015748031},{"duration":0.2400000000000091,"midi":72,"time":158.88,"velocity":0.7795275590551181},{"duration":0.12000000000000455,"midi":67,"time":159.23999999999998,"velocity":0.7795275590551181},{"duration":0.12000000000000455,"midi":70,"time":159.23999999999998,"velocity":0.7795275590551181},{"duration":1.920000000000016,"midi":70,"time":159.35999999999999,"velocity":0.7795275590551181},{"duration":1.920000000000016,"midi":67,"time":159.35999999999999,"velocity":0.7007874015748031},{"duration":0.12000000000000455,"midi":55,"time":161.28,"velocity":0.6299212598425197},{"duration":0.12000000000000455,"midi":67,"time":161.28,"velocity":0.7007874015748031},{"duration":0.12000000000000455,"midi":77,"time":161.28,"velocity":0.6377952755905512},{"duration":0.12000000000000455,"midi":70,"time":161.28,"velocity":0.7007874015748031},{"duration":0.12000000000000455,"midi":58,"time":161.28,"velocity":0.7007874015748031},{"duration":0.23999999999998067,"midi":60,"time":162,"velocity":0.7007874015748031},{"duration":0.23999999999998067,"midi":69,"time":162,"velocity":0.7007874015748031},{"duration":0.23999999999998067,"midi":72,"time":162,"velocity":0.7007874015748031},{"duration":0.23999999999998067,"midi":81,"time":162,"velocity":0.6377952755905512},{"duration":0.23999999999998067,"midi":50,"time":162,"velocity":0.6299212598425197},{"duration":0.12000000000000455,"midi":77,"time":162.23999999999998,"velocity":0.6377952755905512},{"duration":0.12000000000000455,"midi":58,"time":162.23999999999998,"velocity":0.7007874015748031},{"duration":0.12000000000000455,"midi":70,"time":162.23999999999998,"velocity":0.7007874015748031},{"duration":0.12000000000000455,"midi":55,"time":162.23999999999998,"velocity":0.6299212598425197},{"duration":0.12000000000000455,"midi":67,"time":162.23999999999998,"velocity":0.7007874015748031},{"duration":0.23999999999998067,"midi":81,"time":162.96,"velocity":0.6377952755905512},{"duration":0.23999999999998067,"midi":60,"time":162.96,"velocity":0.7007874015748031},{"duration":0.23999999999998067,"midi":72,"time":162.96,"velocity":0.7007874015748031},{"duration":0.23999999999998067,"midi":69,"time":162.96,"velocity":0.7007874015748031},{"duration":0.23999999999998067,"midi":50,"time":162.96,"velocity":0.6299212598425197},{"duration":0.12000000000000455,"midi":55,"time":163.2,"velocity":0.6299212598425197},{"duration":0.12000000000000455,"midi":70,"time":163.2,"velocity":0.7007874015748031},{"duration":0.12000000000000455,"midi":58,"time":163.2,"velocity":0.7007874015748031},{"duration":0.12000000000000455,"midi":67,"time":163.2,"velocity":0.7007874015748031},{"duration":0.12000000000000455,"midi":77,"time":163.2,"velocity":0.6377952755905512},{"duration":0.2400000000000091,"midi":81,"time":163.92,"velocity":0.6377952755905512},{"duration":0.2400000000000091,"midi":60,"time":163.92,"velocity":0.7007874015748031},{"duration":0.2400000000000091,"midi":72,"time":163.92,"velocity":0.7007874015748031},{"duration":0.2400000000000091,"midi":50,"time":163.92,"velocity":0.6299212598425197},{"duration":0.12000000000000455,"midi":74,"time":164.16,"velocity":0.7322834645669292},{"duration":0.12000000000000455,"midi":70,"time":164.16,"velocity":0.6456692913385826},{"duration":0.12000000000000455,"midi":62,"time":164.16,"velocity":0.7007874015748031},{"duration":0.12000000000000455,"midi":55,"time":164.16,"velocity":0.7007874015748031},{"duration":0.12000000000000455,"midi":79,"time":164.16,"velocity":0.6377952755905512},{"duration":0.11999999999997613,"midi":67,"time":164.4,"velocity":0.7322834645669292},{"duration":0.11999999999997613,"midi":72,"time":164.4,"velocity":0.7322834645669292},{"duration":0.11999999999997613,"midi":70,"time":164.46,"velocity":0.7322834645669292},{"duration":0.11999999999997613,"midi":74,"time":164.46,"velocity":0.7322834645669292},{"duration":0.12000000000000455,"midi":72,"time":164.51999999999998,"velocity":0.7322834645669292},{"duration":0.12000000000000455,"midi":67,"time":164.51999999999998,"velocity":0.7322834645669292},{"duration":0.2400000000000091,"midi":70,"time":164.64,"velocity":0.7322834645669292},{"duration":0.2400000000000091,"midi":65,"time":164.64,"velocity":0.7322834645669292},{"duration":0.2400000000000091,"midi":72,"time":164.88,"velocity":0.7322834645669292},{"duration":0.2400000000000091,"midi":67,"time":164.88,"velocity":0.7322834645669292},{"duration":0.11999999999997613,"midi":55,"time":165.12,"velocity":0.6299212598425197},{"duration":0.11999999999997613,"midi":70,"time":165.12,"velocity":0.7007874015748031},{"duration":0.11999999999997613,"midi":67,"time":165.12,"velocity":0.7007874015748031},{"duration":0.11999999999997613,"midi":77,"time":165.12,"velocity":0.6377952755905512},{"duration":0.11999999999997613,"midi":58,"time":165.12,"velocity":0.7007874015748031},{"duration":0.23999999999998067,"midi":60,"time":165.84,"velocity":0.7007874015748031},{"duration":0.23999999999998067,"midi":69,"time":165.84,"velocity":0.7007874015748031},{"duration":0.23999999999998067,"midi":72,"time":165.84,"velocity":0.7007874015748031},{"duration":0.23999999999998067,"midi":81,"time":165.84,"velocity":0.6377952755905512},{"duration":0.23999999999998067,"midi":50,"time":165.84,"velocity":0.6299212598425197},{"duration":0.12000000000000455,"midi":77,"time":166.07999999999998,"velocity":0.6377952755905512},{"duration":0.12000000000000455,"midi":58,"time":166.07999999999998,"velocity":0.7007874015748031},{"duration":0.12000000000000455,"midi":55,"time":166.07999999999998,"velocity":0.6299212598425197},{"duration":0.12000000000000455,"midi":67,"time":166.07999999999998,"velocity":0.7007874015748031},{"duration":0.12000000000000455,"midi":70,"time":166.07999999999998,"velocity":0.7007874015748031},{"duration":0.2400000000000091,"midi":69,"time":166.79999999999998,"velocity":0.7007874015748031},{"duration":0.2400000000000091,"midi":81,"time":166.79999999999998,"velocity":0.6377952755905512},{"duration":0.2400000000000091,"midi":60,"time":166.79999999999998,"velocity":0.7007874015748031},{"duration":0.2400000000000091,"midi":50,"time":166.79999999999998,"velocity":0.6299212598425197},{"duration":0.2400000000000091,"midi":72,"time":166.79999999999998,"velocity":0.7007874015748031},{"duration":0.12000000000000455,"midi":67,"time":167.04,"velocity":0.7007874015748031},{"duration":0.12000000000000455,"midi":55,"time":167.04,"velocity":0.6299212598425197},{"duration":0.12000000000000455,"midi":58,"time":167.04,"velocity":0.7007874015748031},{"duration":0.12000000000000455,"midi":70,"time":167.04,"velocity":0.7007874015748031},{"duration":0.12000000000000455,"midi":77,"time":167.04,"velocity":0.6377952755905512},{"duration":0.2400000000000091,"midi":60,"time":167.76,"velocity":0.7007874015748031},{"duration":0.2400000000000091,"midi":50,"time":167.76,"velocity":0.6299212598425197},{"duration":0.2400000000000091,"midi":81,"time":167.76,"velocity":0.6377952755905512},{"duration":0.2400000000000091,"midi":72,"time":167.76,"velocity":0.7007874015748031},{"duration":0.12000000000000455,"midi":70,"time":168,"velocity":0.6456692913385826},{"duration":0.12000000000000455,"midi":79,"time":168,"velocity":0.6377952755905512},{"duration":0.12000000000000455,"midi":55,"time":168,"velocity":0.7007874015748031},{"duration":0.12000000000000455,"midi":62,"time":168,"velocity":0.7007874015748031},{"duration":0.12000000000000455,"midi":74,"time":168,"velocity":0.7322834645669292},{"duration":0.12000000000000455,"midi":67,"time":168.23999999999998,"velocity":0.7322834645669292},{"duration":0.12000000000000455,"midi":72,"time":168.23999999999998,"velocity":0.7322834645669292},{"duration":0.12000000000000455,"midi":70,"time":168.29999999999998,"velocity":0.7322834645669292},{"duration":0.12000000000000455,"midi":74,"time":168.29999999999998,"velocity":0.7322834645669292},{"duration":0.12000000000000455,"midi":67,"time":168.35999999999999,"velocity":0.7322834645669292},{"duration":0.12000000000000455,"midi":72,"time":168.35999999999999,"velocity":0.7322834645669292},{"duration":0.2400000000000091,"midi":65,"time":168.48,"velocity":0.7322834645669292},{"duration":0.2400000000000091,"midi":70,"time":168.48,"velocity":0.7322834645669292},{"duration":0.23999999999998067,"midi":72,"time":168.72,"velocity":0.7322834645669292},{"duration":0.23999999999998067,"midi":67,"time":168.72,"velocity":0.7322834645669292},{"duration":0.12000000000000455,"midi":75,"time":168.95999999999998,"velocity":0.6929133858267716},{"duration":0.12000000000000455,"midi":70,"time":168.95999999999998,"velocity":0.6850393700787402},{"duration":0.12000000000000455,"midi":51,"time":168.95999999999998,"velocity":0.6377952755905512},{"duration":0.12000000000000455,"midi":58,"time":168.95999999999998,"velocity":0.6377952755905512},{"duration":0.12000000000000455,"midi":63,"time":168.95999999999998,"velocity":0.6377952755905512},{"duration":0.23999999999998067,"midi":81,"time":169.68,"velocity":0.6929133858267716},{"duration":0.23999999999998067,"midi":50,"time":169.68,"velocity":0.6377952755905512},{"duration":0.23999999999998067,"midi":69,"time":169.68,"velocity":0.6377952755905512},{"duration":0.23999999999998067,"midi":57,"time":169.68,"velocity":0.6377952755905512},{"duration":0.23999999999998067,"midi":62,"time":169.68,"velocity":0.6377952755905512},{"duration":0.12000000000000455,"midi":63,"time":169.92,"velocity":0.6377952755905512},{"duration":0.12000000000000455,"midi":70,"time":169.92,"velocity":0.6850393700787402},{"duration":0.12000000000000455,"midi":58,"time":169.92,"velocity":0.6377952755905512},{"duration":0.12000000000000455,"midi":51,"time":169.92,"velocity":0.6377952755905512},{"duration":0.12000000000000455,"midi":75,"time":169.92,"velocity":0.6929133858267716},{"duration":0.2400000000000091,"midi":57,"time":170.64,"velocity":0.6377952755905512},{"duration":0.2400000000000091,"midi":50,"time":170.64,"velocity":0.6377952755905512},{"duration":0.2400000000000091,"midi":81,"time":170.64,"velocity":0.6929133858267716},{"duration":0.2400000000000091,"midi":62,"time":170.64,"velocity":0.6377952755905512},{"duration":0.2400000000000091,"midi":69,"time":170.64,"velocity":0.6377952755905512},{"duration":0.12000000000000455,"midi":51,"time":170.88,"velocity":0.6377952755905512},{"duration":0.12000000000000455,"midi":58,"time":170.88,"velocity":0.6377952755905512},{"duration":0.12000000000000455,"midi":63,"time":170.88,"velocity":0.6377952755905512},{"duration":0.12000000000000455,"midi":75,"time":170.88,"velocity":0.6929133858267716},{"duration":0.12000000000000455,"midi":70,"time":170.88,"velocity":0.6850393700787402},{"duration":0.2400000000000091,"midi":50,"time":171.6,"velocity":0.6377952755905512},{"duration":0.2400000000000091,"midi":69,"time":171.6,"velocity":0.6377952755905512},{"duration":0.2400000000000091,"midi":62,"time":171.6,"velocity":0.6377952755905512},{"duration":0.2400000000000091,"midi":81,"time":171.6,"velocity":0.6929133858267716},{"duration":0.2400000000000091,"midi":57,"time":171.6,"velocity":0.6377952755905512},{"duration":0.11999999999997613,"midi":51,"time":171.84,"velocity":0.6456692913385826},{"duration":0.11999999999997613,"midi":63,"time":171.84,"velocity":0.6456692913385826},{"duration":0.11999999999997613,"midi":58,"time":171.84,"velocity":0.6456692913385826},{"duration":0.11999999999997613,"midi":70,"time":171.84,"velocity":0.7007874015748031},{"duration":0.11999999999997613,"midi":74,"time":171.84,"velocity":0.7244094488188977},{"duration":0.12000000000000455,"midi":72,"time":172.07999999999998,"velocity":0.7244094488188977},{"duration":0.12000000000000455,"midi":67,"time":172.07999999999998,"velocity":0.7244094488188977},{"duration":0.12000000000000455,"midi":70,"time":172.14,"velocity":0.7244094488188977},{"duration":0.12000000000000455,"midi":74,"time":172.14,"velocity":0.7244094488188977},{"duration":0.12000000000000455,"midi":72,"time":172.2,"velocity":0.7244094488188977},{"duration":0.12000000000000455,"midi":67,"time":172.2,"velocity":0.7244094488188977},{"duration":0.2400000000000091,"midi":65,"time":172.32,"velocity":0.7244094488188977},{"duration":0.2400000000000091,"midi":70,"time":172.32,"velocity":0.7244094488188977},{"duration":0.23999999999998067,"midi":72,"time":172.56,"velocity":0.7244094488188977},{"duration":0.23999999999998067,"midi":67,"time":172.56,"velocity":0.7244094488188977},{"duration":0.12000000000000455,"midi":75,"time":172.79999999999998,"velocity":0.6929133858267716},{"duration":0.12000000000000455,"midi":51,"time":172.79999999999998,"velocity":0.6377952755905512},{"duration":0.12000000000000455,"midi":58,"time":172.79999999999998,"velocity":0.6377952755905512},{"duration":0.12000000000000455,"midi":63,"time":172.79999999999998,"velocity":0.6377952755905512},{"duration":0.12000000000000455,"midi":70,"time":172.79999999999998,"velocity":0.6850393700787402},{"duration":0.2400000000000091,"midi":81,"time":173.51999999999998,"velocity":0.6929133858267716},{"duration":0.2400000000000091,"midi":62,"time":173.51999999999998,"velocity":0.6377952755905512},{"duration":0.2400000000000091,"midi":69,"time":173.51999999999998,"velocity":0.6377952755905512},{"duration":0.2400000000000091,"midi":50,"time":173.51999999999998,"velocity":0.6377952755905512},{"duration":0.2400000000000091,"midi":57,"time":173.51999999999998,"velocity":0.6377952755905512},{"duration":0.12000000000000455,"midi":75,"time":173.76,"velocity":0.6929133858267716},{"duration":0.12000000000000455,"midi":70,"time":173.76,"velocity":0.6850393700787402},{"duration":0.12000000000000455,"midi":51,"time":173.76,"velocity":0.6377952755905512},{"duration":0.12000000000000455,"midi":63,"time":173.76,"velocity":0.6377952755905512},{"duration":0.12000000000000455,"midi":58,"time":173.76,"velocity":0.6377952755905512},{"duration":0.2400000000000091,"midi":69,"time":174.48,"velocity":0.6377952755905512},{"duration":0.2400000000000091,"midi":50,"time":174.48,"velocity":0.6377952755905512},{"duration":0.2400000000000091,"midi":62,"time":174.48,"velocity":0.6377952755905512},{"duration":0.2400000000000091,"midi":81,"time":174.48,"velocity":0.6929133858267716},{"duration":0.2400000000000091,"midi":57,"time":174.48,"velocity":0.6377952755905512},{"duration":0.12000000000000455,"midi":51,"time":174.72,"velocity":0.6377952755905512},{"duration":0.12000000000000455,"midi":75,"time":174.72,"velocity":0.6929133858267716},{"duration":0.12000000000000455,"midi":58,"time":174.72,"velocity":0.6377952755905512},{"duration":0.12000000000000455,"midi":70,"time":174.72,"velocity":0.6850393700787402},{"duration":0.12000000000000455,"midi":63,"time":174.72,"velocity":0.6377952755905512},{"duration":0.2400000000000091,"midi":50,"time":175.44,"velocity":0.6377952755905512},{"duration":0.2400000000000091,"midi":81,"time":175.44,"velocity":0.6929133858267716},{"duration":0.2400000000000091,"midi":69,"time":175.44,"velocity":0.6377952755905512},{"duration":0.2400000000000091,"midi":62,"time":175.44,"velocity":0.6377952755905512},{"duration":0.2400000000000091,"midi":57,"time":175.44,"velocity":0.6377952755905512},{"duration":0.11999999999997613,"midi":70,"time":175.68,"velocity":0.7007874015748031},{"duration":0.11999999999997613,"midi":58,"time":175.68,"velocity":0.6456692913385826},{"duration":0.11999999999997613,"midi":51,"time":175.68,"velocity":0.6456692913385826},{"duration":0.11999999999997613,"midi":74,"time":175.68,"velocity":0.7244094488188977},{"duration":0.11999999999997613,"midi":63,"time":175.68,"velocity":0.6456692913385826},{"duration":0.12000000000000455,"midi":72,"time":175.92,"velocity":0.7244094488188977},{"duration":0.12000000000000455,"midi":67,"time":175.92,"velocity":0.7244094488188977},{"duration":0.12000000000000455,"midi":74,"time":175.98,"velocity":0.7244094488188977},{"duration":0.12000000000000455,"midi":70,"time":175.98,"velocity":0.7244094488188977},{"duration":0.12000000000000455,"midi":67,"time":176.04,"velocity":0.7244094488188977},{"duration":0.12000000000000455,"midi":72,"time":176.04,"velocity":0.7244094488188977},{"duration":0.2400000000000091,"midi":65,"time":176.16,"velocity":0.7244094488188977},{"duration":0.2400000000000091,"midi":70,"time":176.16,"velocity":0.7244094488188977},{"duration":0.23999999999998067,"midi":72,"time":176.4,"velocity":0.7244094488188977},{"duration":0.23999999999998067,"midi":67,"time":176.4,"velocity":0.7244094488188977},{"duration":0.12000000000000455,"midi":77,"time":176.64,"velocity":0.7322834645669292},{"duration":0.12000000000000455,"midi":55,"time":176.64,"velocity":0.6299212598425197},{"duration":0.12000000000000455,"midi":58,"time":176.64,"velocity":0.7007874015748031},{"duration":0.12000000000000455,"midi":70,"time":176.64,"velocity":0.7007874015748031},{"duration":0.12000000000000455,"midi":67,"time":176.64,"velocity":0.7007874015748031},{"duration":0.2400000000000091,"midi":60,"time":177.35999999999999,"velocity":0.7007874015748031},{"duration":0.2400000000000091,"midi":50,"time":177.35999999999999,"velocity":0.6299212598425197},{"duration":0.2400000000000091,"midi":69,"time":177.35999999999999,"velocity":0.7007874015748031},{"duration":0.2400000000000091,"midi":81,"time":177.35999999999999,"velocity":0.6377952755905512},{"duration":0.2400000000000091,"midi":72,"time":177.35999999999999,"velocity":0.7007874015748031},{"duration":0.12000000000000455,"midi":77,"time":177.6,"velocity":0.7322834645669292},{"duration":0.12000000000000455,"midi":67,"time":177.6,"velocity":0.7007874015748031},{"duration":0.12000000000000455,"midi":55,"time":177.6,"velocity":0.6299212598425197},{"duration":0.12000000000000455,"midi":58,"time":177.6,"velocity":0.7007874015748031},{"duration":0.12000000000000455,"midi":70,"time":177.6,"velocity":0.7007874015748031},{"duration":0.2400000000000091,"midi":69,"time":178.32,"velocity":0.7007874015748031},{"duration":0.2400000000000091,"midi":72,"time":178.32,"velocity":0.7007874015748031},{"duration":0.2400000000000091,"midi":81,"time":178.32,"velocity":0.6377952755905512},{"duration":0.2400000000000091,"midi":50,"time":178.32,"velocity":0.6299212598425197},{"duration":0.2400000000000091,"midi":60,"time":178.32,"velocity":0.7007874015748031},{"duration":0.12000000000000455,"midi":67,"time":178.56,"velocity":0.7007874015748031},{"duration":0.12000000000000455,"midi":58,"time":178.56,"velocity":0.7007874015748031},{"duration":0.12000000000000455,"midi":77,"time":178.56,"velocity":0.7322834645669292},{"duration":0.12000000000000455,"midi":70,"time":178.56,"velocity":0.7007874015748031},{"duration":0.12000000000000455,"midi":55,"time":178.56,"velocity":0.6299212598425197},{"duration":0.23999999999998067,"midi":50,"time":179.28,"velocity":0.6299212598425197},{"duration":0.23999999999998067,"midi":72,"time":179.28,"velocity":0.7007874015748031},{"duration":0.23999999999998067,"midi":81,"time":179.28,"velocity":0.6377952755905512},{"duration":0.23999999999998067,"midi":60,"time":179.28,"velocity":0.7007874015748031},{"duration":0.12000000000000455,"midi":62,"time":179.51999999999998,"velocity":0.7007874015748031},{"duration":0.12000000000000455,"midi":55,"time":179.51999999999998,"velocity":0.7007874015748031},{"duration":0.12000000000000455,"midi":79,"time":179.51999999999998,"velocity":0.6377952755905512},{"duration":0.12000000000000455,"midi":70,"time":179.51999999999998,"velocity":0.6456692913385826},{"duration":0.12000000000000455,"midi":74,"time":179.51999999999998,"velocity":0.7322834645669292},{"duration":0.12000000000000455,"midi":67,"time":179.76,"velocity":0.7322834645669292},{"duration":0.12000000000000455,"midi":72,"time":179.76,"velocity":0.7322834645669292},{"duration":0.12000000000000455,"midi":70,"time":179.82,"velocity":0.7322834645669292},{"duration":0.12000000000000455,"midi":74,"time":179.82,"velocity":0.7322834645669292},{"duration":0.12000000000000455,"midi":72,"time":179.88,"velocity":0.7322834645669292},{"duration":0.12000000000000455,"midi":67,"time":179.88,"velocity":0.7322834645669292},{"duration":0.23999999999998067,"midi":65,"time":180,"velocity":0.7322834645669292},{"duration":0.23999999999998067,"midi":70,"time":180,"velocity":0.7322834645669292},{"duration":0.2400000000000091,"midi":72,"time":180.23999999999998,"velocity":0.7322834645669292},{"duration":0.2400000000000091,"midi":67,"time":180.23999999999998,"velocity":0.7322834645669292},{"duration":0.12000000000000455,"midi":77,"time":180.48,"velocity":0.7322834645669292},{"duration":0.12000000000000455,"midi":70,"time":180.48,"velocity":0.7007874015748031},{"duration":0.12000000000000455,"midi":55,"time":180.48,"velocity":0.6299212598425197},{"duration":0.12000000000000455,"midi":67,"time":180.48,"velocity":0.7007874015748031},{"duration":0.12000000000000455,"midi":58,"time":180.48,"velocity":0.7007874015748031},{"duration":0.2400000000000091,"midi":50,"time":181.2,"velocity":0.6299212598425197},{"duration":0.2400000000000091,"midi":69,"time":181.2,"velocity":0.7007874015748031},{"duration":0.2400000000000091,"midi":81,"time":181.2,"velocity":0.6377952755905512},{"duration":0.2400000000000091,"midi":72,"time":181.2,"velocity":0.7007874015748031},{"duration":0.2400000000000091,"midi":60,"time":181.2,"velocity":0.7007874015748031},{"duration":0.12000000000000455,"midi":58,"time":181.44,"velocity":0.7007874015748031},{"duration":0.12000000000000455,"midi":67,"time":181.44,"velocity":0.7007874015748031},{"duration":0.12000000000000455,"midi":77,"time":181.44,"velocity":0.7322834645669292},{"duration":0.12000000000000455,"midi":55,"time":181.44,"velocity":0.6299212598425197},{"duration":0.12000000000000455,"midi":70,"time":181.44,"velocity":0.7007874015748031},{"duration":0.2400000000000091,"midi":50,"time":182.16,"velocity":0.6299212598425197},{"duration":0.2400000000000091,"midi":69,"time":182.16,"velocity":0.7007874015748031},{"duration":0.2400000000000091,"midi":81,"time":182.16,"velocity":0.6377952755905512},{"duration":0.2400000000000091,"midi":72,"time":182.16,"velocity":0.7007874015748031},{"duration":0.2400000000000091,"midi":60,"time":182.16,"velocity":0.7007874015748031},{"duration":0.11999999999997613,"midi":67,"time":182.4,"velocity":0.7007874015748031},{"duration":0.11999999999997613,"midi":70,"time":182.4,"velocity":0.7007874015748031},{"duration":0.11999999999997613,"midi":58,"time":182.4,"velocity":0.7007874015748031},{"duration":0.11999999999997613,"midi":77,"time":182.4,"velocity":0.7322834645669292},{"duration":0.11999999999997613,"midi":55,"time":182.4,"velocity":0.6299212598425197},{"duration":0.23999999999998067,"midi":72,"time":183.12,"velocity":0.7007874015748031},{"duration":0.23999999999998067,"midi":81,"time":183.12,"velocity":0.6377952755905512},{"duration":0.23999999999998067,"midi":50,"time":183.12,"velocity":0.6299212598425197},{"duration":0.23999999999998067,"midi":60,"time":183.12,"velocity":0.7007874015748031},{"duration":0.12000000000000455,"midi":74,"time":183.35999999999999,"velocity":0.7322834645669292},{"duration":0.12000000000000455,"midi":70,"time":183.35999999999999,"velocity":0.6456692913385826},{"duration":0.12000000000000455,"midi":62,"time":183.35999999999999,"velocity":0.7007874015748031},{"duration":0.12000000000000455,"midi":55,"time":183.35999999999999,"velocity":0.7007874015748031},{"duration":0.12000000000000455,"midi":79,"time":183.35999999999999,"velocity":0.6377952755905512},{"duration":0.12000000000000455,"midi":72,"time":183.6,"velocity":0.7322834645669292},{"duration":0.12000000000000455,"midi":67,"time":183.6,"velocity":0.7322834645669292},{"duration":0.12000000000000455,"midi":74,"time":183.66,"velocity":0.7322834645669292},{"duration":0.12000000000000455,"midi":70,"time":183.66,"velocity":0.7322834645669292},{"duration":0.12000000000000455,"midi":72,"time":183.72,"velocity":0.7322834645669292},{"duration":0.12000000000000455,"midi":67,"time":183.72,"velocity":0.7322834645669292},{"duration":0.23999999999998067,"midi":70,"time":183.84,"velocity":0.7322834645669292},{"duration":0.23999999999998067,"midi":65,"time":183.84,"velocity":0.7322834645669292},{"duration":0.2400000000000091,"midi":67,"time":184.07999999999998,"velocity":0.7322834645669292},{"duration":0.2400000000000091,"midi":72,"time":184.07999999999998,"velocity":0.7322834645669292},{"duration":0.12000000000000455,"midi":51,"time":184.32,"velocity":0.6377952755905512},{"duration":0.12000000000000455,"midi":58,"time":184.32,"velocity":0.6377952755905512},{"duration":0.12000000000000455,"midi":63,"time":184.32,"velocity":0.6377952755905512},{"duration":0.12000000000000455,"midi":70,"time":184.32,"velocity":0.6850393700787402},{"duration":0.12000000000000455,"midi":75,"time":184.32,"velocity":0.6929133858267716},{"duration":0.2400000000000091,"midi":57,"time":185.04,"velocity":0.6377952755905512},{"duration":0.2400000000000091,"midi":81,"time":185.04,"velocity":0.6929133858267716},{"duration":0.2400000000000091,"midi":69,"time":185.04,"velocity":0.6377952755905512},{"duration":0.2400000000000091,"midi":62,"time":185.04,"velocity":0.6377952755905512},{"duration":0.2400000000000091,"midi":50,"time":185.04,"velocity":0.6377952755905512},{"duration":0.12000000000000455,"midi":58,"time":185.28,"velocity":0.6377952755905512},{"duration":0.12000000000000455,"midi":75,"time":185.28,"velocity":0.6929133858267716},{"duration":0.12000000000000455,"midi":51,"time":185.28,"velocity":0.6377952755905512},{"duration":0.12000000000000455,"midi":63,"time":185.28,"velocity":0.6377952755905512},{"duration":0.12000000000000455,"midi":70,"time":185.28,"velocity":0.6850393700787402},{"duration":0.23999999999998067,"midi":69,"time":186,"velocity":0.6377952755905512},{"duration":0.23999999999998067,"midi":50,"time":186,"velocity":0.6377952755905512},{"duration":0.23999999999998067,"midi":81,"time":186,"velocity":0.6929133858267716},{"duration":0.23999999999998067,"midi":57,"time":186,"velocity":0.6377952755905512},{"duration":0.23999999999998067,"midi":62,"time":186,"velocity":0.6377952755905512},{"duration":0.12000000000000455,"midi":51,"time":186.23999999999998,"velocity":0.6377952755905512},{"duration":0.12000000000000455,"midi":58,"time":186.23999999999998,"velocity":0.6377952755905512},{"duration":0.12000000000000455,"midi":75,"time":186.23999999999998,"velocity":0.6929133858267716},{"duration":0.12000000000000455,"midi":70,"time":186.23999999999998,"velocity":0.6850393700787402},{"duration":0.12000000000000455,"midi":63,"time":186.23999999999998,"velocity":0.6377952755905512},{"duration":0.2400000000000091,"midi":50,"time":186.95999999999998,"velocity":0.6377952755905512},{"duration":0.2400000000000091,"midi":69,"time":186.95999999999998,"velocity":0.6377952755905512},{"duration":0.2400000000000091,"midi":81,"time":186.95999999999998,"velocity":0.6929133858267716},{"duration":0.2400000000000091,"midi":62,"time":186.95999999999998,"velocity":0.6377952755905512},{"duration":0.2400000000000091,"midi":57,"time":186.95999999999998,"velocity":0.6377952755905512},{"duration":0.12000000000000455,"midi":58,"time":187.2,"velocity":0.6456692913385826},{"duration":0.12000000000000455,"midi":74,"time":187.2,"velocity":0.7244094488188977},{"duration":0.12000000000000455,"midi":51,"time":187.2,"velocity":0.6456692913385826},{"duration":0.12000000000000455,"midi":63,"time":187.2,"velocity":0.6456692913385826},{"duration":0.12000000000000455,"midi":70,"time":187.2,"velocity":0.7007874015748031},{"duration":0.12000000000000455,"midi":67,"time":187.44,"velocity":0.7244094488188977},{"duration":0.12000000000000455,"midi":72,"time":187.44,"velocity":0.7244094488188977},{"duration":0.12000000000000455,"midi":70,"time":187.5,"velocity":0.7244094488188977},{"duration":0.12000000000000455,"midi":74,"time":187.5,"velocity":0.7244094488188977},{"duration":0.12000000000000455,"midi":72,"time":187.56,"velocity":0.7244094488188977},{"duration":0.12000000000000455,"midi":67,"time":187.56,"velocity":0.7244094488188977},{"duration":0.23999999999998067,"midi":65,"time":187.68,"velocity":0.7244094488188977},{"duration":0.23999999999998067,"midi":70,"time":187.68,"velocity":0.7244094488188977},{"duration":0.2400000000000091,"midi":72,"time":187.92,"velocity":0.7244094488188977},{"duration":0.2400000000000091,"midi":67,"time":187.92,"velocity":0.7244094488188977},{"duration":0.12000000000000455,"midi":51,"time":188.16,"velocity":0.6377952755905512},{"duration":0.12000000000000455,"midi":70,"time":188.16,"velocity":0.6850393700787402},{"duration":0.12000000000000455,"midi":75,"time":188.16,"velocity":0.6929133858267716},{"duration":0.12000000000000455,"midi":63,"time":188.16,"velocity":0.6377952755905512},{"duration":0.12000000000000455,"midi":58,"time":188.16,"velocity":0.6377952755905512},{"duration":0.2400000000000091,"midi":81,"time":188.88,"velocity":0.6929133858267716},{"duration":0.2400000000000091,"midi":50,"time":188.88,"velocity":0.6377952755905512},{"duration":0.2400000000000091,"midi":57,"time":188.88,"velocity":0.6377952755905512},{"duration":0.2400000000000091,"midi":62,"time":188.88,"velocity":0.6377952755905512},{"duration":0.2400000000000091,"midi":69,"time":188.88,"velocity":0.6377952755905512},{"duration":0.11999999999997613,"midi":70,"time":189.12,"velocity":0.6850393700787402},{"duration":0.11999999999997613,"midi":75,"time":189.12,"velocity":0.6929133858267716},{"duration":0.11999999999997613,"midi":51,"time":189.12,"velocity":0.6377952755905512},{"duration":0.11999999999997613,"midi":58,"time":189.12,"velocity":0.6377952755905512},{"duration":0.11999999999997613,"midi":63,"time":189.12,"velocity":0.6377952755905512},{"duration":0.23999999999998067,"midi":50,"time":189.84,"velocity":0.6377952755905512},{"duration":0.23999999999998067,"midi":69,"time":189.84,"velocity":0.6377952755905512},{"duration":0.23999999999998067,"midi":57,"time":189.84,"velocity":0.6377952755905512},{"duration":0.23999999999998067,"midi":81,"time":189.84,"velocity":0.6929133858267716},{"duration":0.23999999999998067,"midi":62,"time":189.84,"velocity":0.6377952755905512},{"duration":0.12000000000000455,"midi":75,"time":190.07999999999998,"velocity":0.6929133858267716},{"duration":0.12000000000000455,"midi":63,"time":190.07999999999998,"velocity":0.6377952755905512},{"duration":0.12000000000000455,"midi":51,"time":190.07999999999998,"velocity":0.6377952755905512},{"duration":0.12000000000000455,"midi":70,"time":190.07999999999998,"velocity":0.6850393700787402},{"duration":0.12000000000000455,"midi":58,"time":190.07999999999998,"velocity":0.6377952755905512},{"duration":0.2400000000000091,"midi":50,"time":190.79999999999998,"velocity":0.6377952755905512},{"duration":0.2400000000000091,"midi":69,"time":190.79999999999998,"velocity":0.6377952755905512},{"duration":0.2400000000000091,"midi":57,"time":190.79999999999998,"velocity":0.6377952755905512},{"duration":0.2400000000000091,"midi":81,"time":190.79999999999998,"velocity":0.6929133858267716},{"duration":0.2400000000000091,"midi":62,"time":190.79999999999998,"velocity":0.6377952755905512},{"duration":0.12000000000000455,"midi":70,"time":191.04,"velocity":0.7007874015748031},{"duration":0.12000000000000455,"midi":74,"time":191.04,"velocity":0.7244094488188977},{"duration":0.12000000000000455,"midi":51,"time":191.04,"velocity":0.6456692913385826},{"duration":0.12000000000000455,"midi":63,"time":191.04,"velocity":0.6456692913385826},{"duration":0.12000000000000455,"midi":58,"time":191.04,"velocity":0.6456692913385826},{"duration":0.12000000000000455,"midi":67,"time":191.28,"velocity":0.7244094488188977},{"duration":0.12000000000000455,"midi":72,"time":191.28,"velocity":0.7244094488188977},{"duration":0.11999999999997613,"midi":70,"time":191.34,"velocity":0.7244094488188977},{"duration":0.11999999999997613,"midi":74,"time":191.34,"velocity":0.7244094488188977},{"duration":0.11999999999997613,"midi":72,"time":191.4,"velocity":0.7244094488188977},{"duration":0.11999999999997613,"midi":67,"time":191.4,"velocity":0.7244094488188977},{"duration":0.2400000000000091,"midi":65,"time":191.51999999999998,"velocity":0.7244094488188977},{"duration":0.2400000000000091,"midi":70,"time":191.51999999999998,"velocity":0.7244094488188977},{"duration":0.2400000000000091,"midi":72,"time":191.76,"velocity":0.7244094488188977},{"duration":0.2400000000000091,"midi":67,"time":191.76,"velocity":0.7244094488188977},{"duration":0.12000000000000455,"midi":77,"time":192,"velocity":0.7322834645669292},{"duration":0.12000000000000455,"midi":58,"time":192,"velocity":0.7007874015748031},{"duration":0.12000000000000455,"midi":67,"time":192,"velocity":0.7007874015748031},{"duration":0.12000000000000455,"midi":70,"time":192,"velocity":0.7007874015748031},{"duration":0.12000000000000455,"midi":55,"time":192,"velocity":0.6299212598425197},{"duration":0.23999999999998067,"midi":81,"time":192.72,"velocity":0.6377952755905512},{"duration":0.23999999999998067,"midi":50,"time":192.72,"velocity":0.6299212598425197},{"duration":0.23999999999998067,"midi":69,"time":192.72,"velocity":0.7007874015748031},{"duration":0.23999999999998067,"midi":60,"time":192.72,"velocity":0.7007874015748031},{"duration":0.23999999999998067,"midi":72,"time":192.72,"velocity":0.7007874015748031},{"duration":0.12000000000000455,"midi":77,"time":192.95999999999998,"velocity":0.7322834645669292},{"duration":0.12000000000000455,"midi":58,"time":192.95999999999998,"velocity":0.7007874015748031},{"duration":0.12000000000000455,"midi":70,"time":192.95999999999998,"velocity":0.7007874015748031},{"duration":0.12000000000000455,"midi":67,"time":192.95999999999998,"velocity":0.7007874015748031},{"duration":0.12000000000000455,"midi":55,"time":192.95999999999998,"velocity":0.6299212598425197},{"duration":0.23999999999998067,"midi":72,"time":193.68,"velocity":0.7007874015748031},{"duration":0.23999999999998067,"midi":50,"time":193.68,"velocity":0.6299212598425197},{"duration":0.23999999999998067,"midi":69,"time":193.68,"velocity":0.7007874015748031},{"duration":0.23999999999998067,"midi":60,"time":193.68,"velocity":0.7007874015748031},{"duration":0.23999999999998067,"midi":81,"time":193.68,"velocity":0.6377952755905512},{"duration":0.12000000000000455,"midi":67,"time":193.92,"velocity":0.7007874015748031},{"duration":0.12000000000000455,"midi":58,"time":193.92,"velocity":0.7007874015748031},{"duration":0.12000000000000455,"midi":77,"time":193.92,"velocity":0.7322834645669292},{"duration":0.12000000000000455,"midi":70,"time":193.92,"velocity":0.7007874015748031},{"duration":0.12000000000000455,"midi":55,"time":193.92,"velocity":0.6299212598425197},{"duration":0.2400000000000091,"midi":72,"time":194.64,"velocity":0.7007874015748031},{"duration":0.2400000000000091,"midi":81,"time":194.64,"velocity":0.6377952755905512},{"duration":0.2400000000000091,"midi":60,"time":194.64,"velocity":0.7007874015748031},{"duration":0.2400000000000091,"midi":50,"time":194.64,"velocity":0.6299212598425197},{"duration":0.12000000000000455,"midi":62,"time":194.88,"velocity":0.7007874015748031},{"duration":0.12000000000000455,"midi":79,"time":194.88,"velocity":0.6377952755905512},{"duration":0.12000000000000455,"midi":55,"time":194.88,"velocity":0.7007874015748031},{"duration":0.12000000000000455,"midi":70,"time":194.88,"velocity":0.6456692913385826},{"duration":0.12000000000000455,"midi":74,"time":194.88,"velocity":0.7322834645669292},{"duration":0.11999999999997613,"midi":67,"time":195.12,"velocity":0.7322834645669292},{"duration":0.11999999999997613,"midi":72,"time":195.12,"velocity":0.7322834645669292},{"duration":0.11999999999997613,"midi":70,"time":195.18,"velocity":0.7322834645669292},{"duration":0.11999999999997613,"midi":74,"time":195.18,"velocity":0.7322834645669292},{"duration":0.12000000000000455,"midi":67,"time":195.23999999999998,"velocity":0.7322834645669292},{"duration":0.12000000000000455,"midi":72,"time":195.23999999999998,"velocity":0.7322834645669292},{"duration":0.2400000000000091,"midi":65,"time":195.35999999999999,"velocity":0.7322834645669292},{"duration":0.2400000000000091,"midi":70,"time":195.35999999999999,"velocity":0.7322834645669292},{"duration":0.2400000000000091,"midi":72,"time":195.6,"velocity":0.7322834645669292},{"duration":0.2400000000000091,"midi":67,"time":195.6,"velocity":0.7322834645669292},{"duration":0.11999999999997613,"midi":55,"time":195.84,"velocity":0.6299212598425197},{"duration":0.11999999999997613,"midi":67,"time":195.84,"velocity":0.7007874015748031},{"duration":0.11999999999997613,"midi":58,"time":195.84,"velocity":0.7007874015748031},{"duration":0.11999999999997613,"midi":77,"time":195.84,"velocity":0.7322834645669292},{"duration":0.11999999999997613,"midi":70,"time":195.84,"velocity":0.7007874015748031},{"duration":0.23999999999998067,"midi":69,"time":196.56,"velocity":0.7007874015748031},{"duration":0.23999999999998067,"midi":81,"time":196.56,"velocity":0.6377952755905512},{"duration":0.23999999999998067,"midi":50,"time":196.56,"velocity":0.6299212598425197},{"duration":0.23999999999998067,"midi":60,"time":196.56,"velocity":0.7007874015748031},{"duration":0.23999999999998067,"midi":72,"time":196.56,"velocity":0.7007874015748031},{"duration":0.12000000000000455,"midi":67,"time":196.79999999999998,"velocity":0.7007874015748031},{"duration":0.12000000000000455,"midi":55,"time":196.79999999999998,"velocity":0.6299212598425197},{"duration":0.12000000000000455,"midi":77,"time":196.79999999999998,"velocity":0.7322834645669292},{"duration":0.12000000000000455,"midi":58,"time":196.79999999999998,"velocity":0.7007874015748031},{"duration":0.12000000000000455,"midi":70,"time":196.79999999999998,"velocity":0.7007874015748031},{"duration":0.2400000000000091,"midi":81,"time":197.51999999999998,"velocity":0.6377952755905512},{"duration":0.2400000000000091,"midi":69,"time":197.51999999999998,"velocity":0.7007874015748031},{"duration":0.2400000000000091,"midi":60,"time":197.51999999999998,"velocity":0.7007874015748031},{"duration":0.2400000000000091,"midi":72,"time":197.51999999999998,"velocity":0.7007874015748031},{"duration":0.2400000000000091,"midi":50,"time":197.51999999999998,"velocity":0.6299212598425197},{"duration":0.12000000000000455,"midi":70,"time":197.76,"velocity":0.7007874015748031},{"duration":0.12000000000000455,"midi":67,"time":197.76,"velocity":0.7007874015748031},{"duration":0.12000000000000455,"midi":58,"time":197.76,"velocity":0.7007874015748031},{"duration":0.12000000000000455,"midi":55,"time":197.76,"velocity":0.6299212598425197},{"duration":0.12000000000000455,"midi":77,"time":197.76,"velocity":0.7322834645669292},{"duration":0.2400000000000091,"midi":72,"time":198.48,"velocity":0.7007874015748031},{"duration":0.2400000000000091,"midi":60,"time":198.48,"velocity":0.7007874015748031},{"duration":0.2400000000000091,"midi":50,"time":198.48,"velocity":0.6299212598425197},{"duration":0.2400000000000091,"midi":81,"time":198.48,"velocity":0.6377952755905512},{"duration":0.12000000000000455,"midi":74,"time":198.72,"velocity":0.7322834645669292},{"duration":0.12000000000000455,"midi":62,"time":198.72,"velocity":0.7007874015748031},{"duration":0.12000000000000455,"midi":70,"time":198.72,"velocity":0.6456692913385826},{"duration":0.12000000000000455,"midi":55,"time":198.72,"velocity":0.7007874015748031},{"duration":0.12000000000000455,"midi":79,"time":198.72,"velocity":0.6377952755905512},{"duration":0.12000000000000455,"midi":72,"time":198.95999999999998,"velocity":0.7322834645669292},{"duration":0.12000000000000455,"midi":67,"time":198.95999999999998,"velocity":0.7322834645669292},{"duration":0.12000000000000455,"midi":70,"time":199.01999999999998,"velocity":0.7322834645669292},{"duration":0.12000000000000455,"midi":74,"time":199.01999999999998,"velocity":0.7322834645669292},{"duration":0.12000000000000455,"midi":72,"time":199.07999999999998,"velocity":0.7322834645669292},{"duration":0.12000000000000455,"midi":67,"time":199.07999999999998,"velocity":0.7322834645669292},{"duration":0.2400000000000091,"midi":65,"time":199.2,"velocity":0.7322834645669292},{"duration":0.2400000000000091,"midi":70,"time":199.2,"velocity":0.7322834645669292},{"duration":0.2400000000000091,"midi":67,"time":199.44,"velocity":0.7322834645669292},{"duration":0.2400000000000091,"midi":72,"time":199.44,"velocity":0.7322834645669292},{"duration":0.11999999999997613,"midi":63,"time":199.68,"velocity":0.6377952755905512},{"duration":0.11999999999997613,"midi":58,"time":199.68,"velocity":0.6377952755905512},{"duration":0.11999999999997613,"midi":51,"time":199.68,"velocity":0.6377952755905512},{"duration":0.11999999999997613,"midi":75,"time":199.68,"velocity":0.6929133858267716},{"duration":0.11999999999997613,"midi":70,"time":199.68,"velocity":0.6850393700787402},{"duration":0.23999999999998067,"midi":50,"time":200.4,"velocity":0.6377952755905512},{"duration":0.23999999999998067,"midi":62,"time":200.4,"velocity":0.6377952755905512},{"duration":0.23999999999998067,"midi":69,"time":200.4,"velocity":0.6377952755905512},{"duration":0.23999999999998067,"midi":57,"time":200.4,"velocity":0.6377952755905512},{"duration":0.23999999999998067,"midi":81,"time":200.4,"velocity":0.6929133858267716},{"duration":0.12000000000000455,"midi":75,"time":200.64,"velocity":0.6929133858267716},{"duration":0.12000000000000455,"midi":51,"time":200.64,"velocity":0.6377952755905512},{"duration":0.12000000000000455,"midi":58,"time":200.64,"velocity":0.6377952755905512},{"duration":0.12000000000000455,"midi":70,"time":200.64,"velocity":0.6850393700787402},{"duration":0.12000000000000455,"midi":63,"time":200.64,"velocity":0.6377952755905512},{"duration":0.2400000000000091,"midi":81,"time":201.35999999999999,"velocity":0.6929133858267716},{"duration":0.2400000000000091,"midi":57,"time":201.35999999999999,"velocity":0.6377952755905512},{"duration":0.2400000000000091,"midi":69,"time":201.35999999999999,"velocity":0.6377952755905512},{"duration":0.2400000000000091,"midi":50,"time":201.35999999999999,"velocity":0.6377952755905512},{"duration":0.2400000000000091,"midi":62,"time":201.35999999999999,"velocity":0.6377952755905512},{"duration":0.12000000000000455,"midi":70,"time":201.6,"velocity":0.6850393700787402},{"duration":0.12000000000000455,"midi":51,"time":201.6,"velocity":0.6377952755905512},{"duration":0.12000000000000455,"midi":75,"time":201.6,"velocity":0.6929133858267716},{"duration":0.12000000000000455,"midi":63,"time":201.6,"velocity":0.6377952755905512},{"duration":0.12000000000000455,"midi":58,"time":201.6,"velocity":0.6377952755905512},{"duration":0.2400000000000091,"midi":62,"time":202.32,"velocity":0.6377952755905512},{"duration":0.2400000000000091,"midi":81,"time":202.32,"velocity":0.6929133858267716},{"duration":0.2400000000000091,"midi":69,"time":202.32,"velocity":0.6377952755905512},{"duration":0.2400000000000091,"midi":57,"time":202.32,"velocity":0.6377952755905512},{"duration":0.2400000000000091,"midi":50,"time":202.32,"velocity":0.6377952755905512},{"duration":0.11999999999997613,"midi":51,"time":202.56,"velocity":0.6456692913385826},{"duration":0.11999999999997613,"midi":74,"time":202.56,"velocity":0.7244094488188977},{"duration":0.11999999999997613,"midi":70,"time":202.56,"velocity":0.7007874015748031},{"duration":0.11999999999997613,"midi":63,"time":202.56,"velocity":0.6456692913385826},{"duration":0.11999999999997613,"midi":58,"time":202.56,"velocity":0.6456692913385826},{"duration":0.12000000000000455,"midi":72,"time":202.79999999999998,"velocity":0.7244094488188977},{"duration":0.12000000000000455,"midi":67,"time":202.79999999999998,"velocity":0.7244094488188977},{"duration":0.12000000000000455,"midi":70,"time":202.85999999999999,"velocity":0.7244094488188977},{"duration":0.12000000000000455,"midi":74,"time":202.85999999999999,"velocity":0.7244094488188977},{"duration":0.12000000000000455,"midi":67,"time":202.92,"velocity":0.7244094488188977},{"duration":0.12000000000000455,"midi":72,"time":202.92,"velocity":0.7244094488188977},{"duration":0.2400000000000091,"midi":70,"time":203.04,"velocity":0.7244094488188977},{"duration":0.2400000000000091,"midi":65,"time":203.04,"velocity":0.7244094488188977},{"duration":0.23999999999998067,"midi":67,"time":203.28,"velocity":0.7244094488188977},{"duration":0.23999999999998067,"midi":72,"time":203.28,"velocity":0.7244094488188977},{"duration":0.12000000000000455,"midi":63,"time":203.51999999999998,"velocity":0.6377952755905512},{"duration":0.12000000000000455,"midi":51,"time":203.51999999999998,"velocity":0.6377952755905512},{"duration":0.12000000000000455,"midi":75,"time":203.51999999999998,"velocity":0.6929133858267716},{"duration":0.12000000000000455,"midi":70,"time":203.51999999999998,"velocity":0.6850393700787402},{"duration":0.12000000000000455,"midi":58,"time":203.51999999999998,"velocity":0.6377952755905512},{"duration":0.2400000000000091,"midi":81,"time":204.23999999999998,"velocity":0.6929133858267716},{"duration":0.2400000000000091,"midi":50,"time":204.23999999999998,"velocity":0.6377952755905512},{"duration":0.2400000000000091,"midi":62,"time":204.23999999999998,"velocity":0.6377952755905512},{"duration":0.2400000000000091,"midi":69,"time":204.23999999999998,"velocity":0.6377952755905512},{"duration":0.2400000000000091,"midi":57,"time":204.23999999999998,"velocity":0.6377952755905512},{"duration":0.12000000000000455,"midi":58,"time":204.48,"velocity":0.6377952755905512},{"duration":0.12000000000000455,"midi":75,"time":204.48,"velocity":0.6929133858267716},{"duration":0.12000000000000455,"midi":63,"time":204.48,"velocity":0.6377952755905512},{"duration":0.12000000000000455,"midi":70,"time":204.48,"velocity":0.6850393700787402},{"duration":0.12000000000000455,"midi":51,"time":204.48,"velocity":0.6377952755905512},{"duration":0.2400000000000091,"midi":50,"time":205.2,"velocity":0.6377952755905512},{"duration":0.2400000000000091,"midi":57,"time":205.2,"velocity":0.6377952755905512},{"duration":0.2400000000000091,"midi":62,"time":205.2,"velocity":0.6377952755905512},{"duration":0.2400000000000091,"midi":81,"time":205.2,"velocity":0.6929133858267716},{"duration":0.2400000000000091,"midi":69,"time":205.2,"velocity":0.6377952755905512},{"duration":0.12000000000000455,"midi":51,"time":205.44,"velocity":0.6377952755905512},{"duration":0.12000000000000455,"midi":63,"time":205.44,"velocity":0.6377952755905512},{"duration":0.12000000000000455,"midi":70,"time":205.44,"velocity":0.6850393700787402},{"duration":0.12000000000000455,"midi":58,"time":205.44,"velocity":0.6377952755905512},{"duration":0.12000000000000455,"midi":75,"time":205.44,"velocity":0.6929133858267716},{"duration":0.2400000000000091,"midi":50,"time":206.16,"velocity":0.6377952755905512},{"duration":0.2400000000000091,"midi":81,"time":206.16,"velocity":0.6929133858267716},{"duration":0.2400000000000091,"midi":62,"time":206.16,"velocity":0.6377952755905512},{"duration":0.2400000000000091,"midi":69,"time":206.16,"velocity":0.6377952755905512},{"duration":0.2400000000000091,"midi":57,"time":206.16,"velocity":0.6377952755905512},{"duration":0.11999999999997613,"midi":63,"time":206.4,"velocity":0.6456692913385826},{"duration":0.11999999999997613,"midi":58,"time":206.4,"velocity":0.6456692913385826},{"duration":0.11999999999997613,"midi":51,"time":206.4,"velocity":0.6456692913385826},{"duration":0.11999999999997613,"midi":74,"time":206.4,"velocity":0.7244094488188977},{"duration":0.11999999999997613,"midi":70,"time":206.4,"velocity":0.7007874015748031},{"duration":0.12000000000000455,"midi":67,"time":206.64,"velocity":0.7244094488188977},{"duration":0.12000000000000455,"midi":72,"time":206.64,"velocity":0.7244094488188977},{"duration":0.12000000000000455,"midi":74,"time":206.7,"velocity":0.7244094488188977},{"duration":0.12000000000000455,"midi":70,"time":206.7,"velocity":0.7244094488188977},{"duration":0.12000000000000455,"midi":67,"time":206.76,"velocity":0.7244094488188977},{"duration":0.12000000000000455,"midi":72,"time":206.76,"velocity":0.7244094488188977},{"duration":0.2400000000000091,"midi":70,"time":206.88,"velocity":0.7244094488188977},{"duration":0.2400000000000091,"midi":65,"time":206.88,"velocity":0.7244094488188977},{"duration":0.23999999999998067,"midi":72,"time":207.12,"velocity":0.7244094488188977},{"duration":0.23999999999998067,"midi":67,"time":207.12,"velocity":0.7244094488188977},{"duration":0.2400000000000091,"midi":48,"time":207.35999999999999,"velocity":0.7007874015748031},{"duration":0.4800000000000182,"midi":82,"time":207.35999999999999,"velocity":0.7795275590551181},{"duration":0.4800000000000182,"midi":75,"time":207.35999999999999,"velocity":0.7401574803149606},{"duration":0.23999999999998067,"midi":48,"time":207.72,"velocity":0.7007874015748031},{"duration":0.2400000000000091,"midi":48,"time":208.07999999999998,"velocity":0.7007874015748031},{"duration":0.2400000000000091,"midi":82,"time":208.32,"velocity":0.7795275590551181},{"duration":0.2400000000000091,"midi":74,"time":208.32,"velocity":0.7244094488188977},{"duration":0.2400000000000091,"midi":48,"time":208.32,"velocity":0.7007874015748031},{"duration":0.11999999999997613,"midi":72,"time":208.56,"velocity":0.7244094488188977},{"duration":0.11999999999997613,"midi":81,"time":208.56,"velocity":0.7795275590551181},{"duration":0.11999999999997613,"midi":74,"time":208.62,"velocity":0.7244094488188977},{"duration":0.11999999999997613,"midi":82,"time":208.62,"velocity":0.7795275590551181},{"duration":0.12000000000000455,"midi":72,"time":208.67999999999998,"velocity":0.7244094488188977},{"duration":0.12000000000000455,"midi":81,"time":208.67999999999998,"velocity":0.7795275590551181},{"duration":0.2400000000000091,"midi":48,"time":208.67999999999998,"velocity":0.7007874015748031},{"duration":0.2400000000000091,"midi":79,"time":208.79999999999998,"velocity":0.7795275590551181},{"duration":0.2400000000000091,"midi":70,"time":208.79999999999998,"velocity":0.7244094488188977},{"duration":0.2400000000000091,"midi":72,"time":209.04,"velocity":0.7244094488188977},{"duration":0.2400000000000091,"midi":81,"time":209.04,"velocity":0.7795275590551181},{"duration":0.2400000000000091,"midi":48,"time":209.04,"velocity":0.7007874015748031},{"duration":0.47999999999998977,"midi":74,"time":209.28,"velocity":0.7165354330708661},{"duration":0.47999999999998977,"midi":82,"time":209.28,"velocity":0.7795275590551181},{"duration":0.23999999999998067,"midi":50,"time":209.28,"velocity":0.7007874015748031},{"duration":0.47999999999998977,"midi":77,"time":209.28,"velocity":0.7165354330708661},{"duration":0.2400000000000091,"midi":50,"time":209.64,"velocity":0.7007874015748031},{"duration":0.23999999999998067,"midi":50,"time":210,"velocity":0.7007874015748031},{"duration":0.2400000000000091,"midi":82,"time":210.23999999999998,"velocity":0.7795275590551181},{"duration":0.2400000000000091,"midi":77,"time":210.23999999999998,"velocity":0.7165354330708661},{"duration":0.2400000000000091,"midi":74,"time":210.23999999999998,"velocity":0.7165354330708661},{"duration":0.2400000000000091,"midi":50,"time":210.23999999999998,"velocity":0.7007874015748031},{"duration":0.12000000000000455,"midi":81,"time":210.48,"velocity":0.7795275590551181},{"duration":0.12000000000000455,"midi":72,"time":210.48,"velocity":0.7795275590551181},{"duration":0.12000000000000455,"midi":82,"time":210.54,"velocity":0.7795275590551181},{"duration":0.12000000000000455,"midi":74,"time":210.54,"velocity":0.7795275590551181},{"duration":0.12000000000000455,"midi":81,"time":210.6,"velocity":0.7795275590551181},{"duration":0.12000000000000455,"midi":72,"time":210.6,"velocity":0.7795275590551181},{"duration":0.2400000000000091,"midi":50,"time":210.6,"velocity":0.7007874015748031},{"duration":0.23999999999998067,"midi":70,"time":210.72,"velocity":0.7795275590551181},{"duration":0.23999999999998067,"midi":79,"time":210.72,"velocity":0.7795275590551181},{"duration":0.2400000000000091,"midi":50,"time":210.95999999999998,"velocity":0.7007874015748031},{"duration":0.2400000000000091,"midi":72,"time":210.95999999999998,"velocity":0.7795275590551181},{"duration":0.2400000000000091,"midi":81,"time":210.95999999999998,"velocity":0.7795275590551181},{"duration":0.2400000000000091,"midi":51,"time":211.2,"velocity":0.7007874015748031},{"duration":0.47999999999998977,"midi":77,"time":211.2,"velocity":0.7401574803149606},{"duration":0.47999999999998977,"midi":74,"time":211.2,"velocity":0.7165354330708661},{"duration":0.47999999999998977,"midi":82,"time":211.2,"velocity":0.7795275590551181},{"duration":0.23999999999998067,"midi":51,"time":211.56,"velocity":0.7007874015748031},{"duration":0.2400000000000091,"midi":81,"time":211.92,"velocity":0.7795275590551181},{"duration":0.2400000000000091,"midi":51,"time":211.92,"velocity":0.7007874015748031},{"duration":0.2400000000000091,"midi":53,"time":212.16,"velocity":0.7007874015748031},{"duration":0.47999999999998977,"midi":72,"time":212.16,"velocity":0.7401574803149606},{"duration":0.47999999999998977,"midi":77,"time":212.16,"velocity":0.7795275590551181},{"duration":0.2400000000000091,"midi":53,"time":212.51999999999998,"velocity":0.7007874015748031},{"duration":0.12000000000000455,"midi":74,"time":212.82,"velocity":0.7795275590551181},{"duration":0.2400000000000091,"midi":75,"time":212.88,"velocity":0.7795275590551181},{"duration":0.2400000000000091,"midi":54,"time":212.88,"velocity":0.7007874015748031},{"duration":0.2400000000000091,"midi":69,"time":212.88,"velocity":0.6929133858267716},{"duration":0.23999999999998067,"midi":55,"time":213.12,"velocity":0.7007874015748031},{"duration":0.47999999999998977,"midi":74,"time":213.12,"velocity":0.7795275590551181},{"duration":0.47999999999998977,"midi":70,"time":213.12,"velocity":0.6929133858267716},{"duration":0.2400000000000091,"midi":55,"time":213.48,"velocity":0.7007874015748031},{"duration":0.23999999999998067,"midi":67,"time":213.84,"velocity":0.7007874015748031},{"duration":0.23999999999998067,"midi":55,"time":213.84,"velocity":0.7007874015748031},{"duration":0.23999999999998067,"midi":72,"time":213.84,"velocity":0.7795275590551181},{"duration":0.2400000000000091,"midi":70,"time":214.07999999999998,"velocity":0.7795275590551181},{"duration":0.2400000000000091,"midi":53,"time":214.07999999999998,"velocity":0.7007874015748031},{"duration":0.2400000000000091,"midi":65,"time":214.07999999999998,"velocity":0.7007874015748031},{"duration":0.2400000000000091,"midi":72,"time":214.32,"velocity":0.7795275590551181},{"duration":0.2400000000000091,"midi":67,"time":214.32,"velocity":0.7007874015748031},{"duration":0.23999999999998067,"midi":53,"time":214.44,"velocity":0.7007874015748031},{"duration":0.23999999999998067,"midi":70,"time":214.56,"velocity":0.7007874015748031},{"duration":0.23999999999998067,"midi":74,"time":214.56,"velocity":0.7795275590551181},{"duration":0.2400000000000091,"midi":53,"time":214.79999999999998,"velocity":0.7007874015748031},{"duration":0.2400000000000091,"midi":75,"time":214.79999999999998,"velocity":0.7795275590551181},{"duration":0.2400000000000091,"midi":72,"time":214.79999999999998,"velocity":0.7007874015748031},{"duration":0.2400000000000091,"midi":77,"time":215.04,"velocity":0.7795275590551181},{"duration":0.2400000000000091,"midi":48,"time":215.04,"velocity":0.7007874015748031},{"duration":0.2400000000000091,"midi":74,"time":215.04,"velocity":0.7007874015748031},{"duration":0.23999999999998067,"midi":74,"time":215.28,"velocity":0.7007874015748031},{"duration":0.23999999999998067,"midi":77,"time":215.28,"velocity":0.7795275590551181},{"duration":0.23999999999998067,"midi":48,"time":215.4,"velocity":0.7007874015748031},{"duration":0.2400000000000091,"midi":72,"time":215.51999999999998,"velocity":0.7007874015748031},{"duration":0.2400000000000091,"midi":77,"time":215.51999999999998,"velocity":0.7795275590551181},{"duration":0.2400000000000091,"midi":77,"time":215.76,"velocity":0.7795275590551181},{"duration":0.2400000000000091,"midi":72,"time":215.76,"velocity":0.7007874015748031},{"duration":0.2400000000000091,"midi":48,"time":215.76,"velocity":0.7007874015748031},{"duration":0.47999999999998977,"midi":70,"time":216,"velocity":0.7007874015748031},{"duration":0.47999999999998977,"midi":77,"time":216,"velocity":0.7795275590551181},{"duration":0.23999999999998067,"midi":48,"time":216,"velocity":0.7007874015748031},{"duration":0.2400000000000091,"midi":48,"time":216.35999999999999,"velocity":0.7007874015748031},{"duration":0.2400000000000091,"midi":70,"time":216.48,"velocity":0.7795275590551181},{"duration":0.12000000000000455,"midi":73,"time":216.66,"velocity":0.7795275590551181},{"duration":0.23999999999998067,"midi":74,"time":216.72,"velocity":0.7795275590551181},{"duration":0.23999999999998067,"midi":48,"time":216.72,"velocity":0.7007874015748031},{"duration":0.2400000000000091,"midi":72,"time":216.95999999999998,"velocity":0.7795275590551181},{"duration":0.2400000000000091,"midi":50,"time":216.95999999999998,"velocity":0.7007874015748031},{"duration":0.2400000000000091,"midi":69,"time":216.95999999999998,"velocity":0.7007874015748031},{"duration":0.2400000000000091,"midi":69,"time":217.2,"velocity":0.7007874015748031},{"duration":0.2400000000000091,"midi":72,"time":217.2,"velocity":0.7795275590551181},{"duration":0.2400000000000091,"midi":50,"time":217.32,"velocity":0.7007874015748031},{"duration":0.23999999999998067,"midi":67,"time":217.44,"velocity":0.7007874015748031},{"duration":0.23999999999998067,"midi":72,"time":217.44,"velocity":0.7795275590551181},{"duration":0.2400000000000091,"midi":67,"time":217.67999999999998,"velocity":0.7007874015748031},{"duration":0.2400000000000091,"midi":72,"time":217.67999999999998,"velocity":0.7795275590551181},{"duration":0.2400000000000091,"midi":50,"time":217.67999999999998,"velocity":0.7007874015748031},{"duration":0.36000000000001364,"midi":72,"time":217.92,"velocity":0.7795275590551181},{"duration":0.36000000000001364,"midi":65,"time":217.92,"velocity":0.7007874015748031},{"duration":0.2400000000000091,"midi":50,"time":217.92,"velocity":0.7007874015748031},{"duration":0.23999999999998067,"midi":50,"time":218.28,"velocity":0.7007874015748031},{"duration":0.11999999999997613,"midi":73,"time":218.34,"velocity":0.7795275590551181},{"duration":0.23999999999998067,"midi":74,"time":218.4,"velocity":0.7795275590551181},{"duration":0.23999999999998067,"midi":70,"time":218.4,"velocity":0.7007874015748031},{"duration":0.2400000000000091,"midi":72,"time":218.64,"velocity":0.7795275590551181},{"duration":0.2400000000000091,"midi":67,"time":218.64,"velocity":0.7007874015748031},{"duration":0.2400000000000091,"midi":50,"time":218.64,"velocity":0.7007874015748031},{"duration":0.2400000000000091,"midi":51,"time":218.88,"velocity":0.7007874015748031},{"duration":0.47999999999998977,"midi":70,"time":218.88,"velocity":0.7795275590551181},{"duration":0.47999999999998977,"midi":65,"time":218.88,"velocity":0.7007874015748031},{"duration":0.2400000000000091,"midi":51,"time":219.23999999999998,"velocity":0.7007874015748031},{"duration":0.2400000000000091,"midi":51,"time":219.6,"velocity":0.7007874015748031},{"duration":0.2400000000000091,"midi":62,"time":219.6,"velocity":0.6929133858267716},{"duration":0.2400000000000091,"midi":65,"time":219.6,"velocity":0.7795275590551181},{"duration":0.23999999999998067,"midi":53,"time":219.84,"velocity":0.7007874015748031},{"duration":0.23999999999998067,"midi":70,"time":219.84,"velocity":0.7007874015748031},{"duration":0.23999999999998067,"midi":74,"time":219.84,"velocity":0.7795275590551181},{"duration":0.2400000000000091,"midi":72,"time":220.07999999999998,"velocity":0.7007874015748031},{"duration":0.2400000000000091,"midi":75,"time":220.07999999999998,"velocity":0.7795275590551181},{"duration":0.2400000000000091,"midi":53,"time":220.2,"velocity":0.7007874015748031},{"duration":0.2400000000000091,"midi":69,"time":220.32,"velocity":0.7007874015748031},{"duration":0.2400000000000091,"midi":72,"time":220.32,"velocity":0.7795275590551181},{"duration":0.23999999999998067,"midi":54,"time":220.56,"velocity":0.7007874015748031},{"duration":0.12000000000000455,"midi":70,"time":220.67999999999998,"velocity":0.7795275590551181},{"duration":0.12000000000000455,"midi":67,"time":220.67999999999998,"velocity":0.7795275590551181},{"duration":0.4800000000000182,"midi":70,"time":220.79999999999998,"velocity":0.7795275590551181},{"duration":0.4800000000000182,"midi":67,"time":220.79999999999998,"velocity":0.7007874015748031},{"duration":0.2400000000000091,"midi":55,"time":220.79999999999998,"velocity":0.7007874015748031},{"duration":0.2400000000000091,"midi":55,"time":221.16,"velocity":0.7007874015748031},{"duration":0.2400000000000091,"midi":55,"time":221.51999999999998,"velocity":0.7007874015748031},{"duration":0.2400000000000091,"midi":77,"time":221.51999999999998,"velocity":0.7244094488188977},{"duration":0.2400000000000091,"midi":82,"time":221.76,"velocity":0.7244094488188977},{"duration":0.2400000000000091,"midi":53,"time":221.76,"velocity":0.7007874015748031},{"duration":0.23999999999998067,"midi":84,"time":222,"velocity":0.7244094488188977},{"duration":0.2400000000000091,"midi":86,"time":222.23999999999998,"velocity":0.7244094488188977},{"duration":0.2400000000000091,"midi":87,"time":222.48,"velocity":0.7244094488188977},{"duration":0.12000000000000455,"midi":77,"time":238.07999999999998,"velocity":0.7322834645669292},{"duration":0.12000000000000455,"midi":74,"time":238.07999999999998,"velocity":0.7322834645669292},{"duration":0.12000000000000455,"midi":74,"time":238.32,"velocity":0.7322834645669292},{"duration":0.12000000000000455,"midi":77,"time":238.32,"velocity":0.7322834645669292},{"duration":0.11999999999997613,"midi":72,"time":238.56,"velocity":0.7322834645669292},{"duration":0.11999999999997613,"midi":77,"time":238.56,"velocity":0.7322834645669292},{"duration":0.12000000000000455,"midi":77,"time":238.79999999999998,"velocity":0.7322834645669292},{"duration":0.12000000000000455,"midi":72,"time":238.79999999999998,"velocity":0.7322834645669292},{"duration":0.47999999999998977,"midi":70,"time":239.04,"velocity":0.7322834645669292},{"duration":0.47999999999998977,"midi":77,"time":239.04,"velocity":0.7322834645669292},{"duration":0.2400000000000091,"midi":70,"time":239.51999999999998,"velocity":0.7322834645669292},{"duration":0.2400000000000091,"midi":67,"time":239.51999999999998,"velocity":0.7322834645669292},{"duration":0.2400000000000091,"midi":74,"time":239.76,"velocity":0.7322834645669292},{"duration":0.2400000000000091,"midi":70,"time":239.76,"velocity":0.7322834645669292},{"duration":0.12000000000000455,"midi":69,"time":240,"velocity":0.7322834645669292},{"duration":0.12000000000000455,"midi":72,"time":240,"velocity":0.7322834645669292},{"duration":0.12000000000000455,"midi":69,"time":240.23999999999998,"velocity":0.7322834645669292},{"duration":0.12000000000000455,"midi":72,"time":240.23999999999998,"velocity":0.7322834645669292},{"duration":0.12000000000000455,"midi":67,"time":240.48,"velocity":0.7322834645669292},{"duration":0.12000000000000455,"midi":72,"time":240.48,"velocity":0.7322834645669292},{"duration":0.12000000000000455,"midi":67,"time":240.72,"velocity":0.7322834645669292},{"duration":0.12000000000000455,"midi":72,"time":240.72,"velocity":0.7322834645669292},{"duration":0.7199999999999989,"midi":72,"time":240.95999999999998,"velocity":0.7322834645669292},{"duration":0.7199999999999989,"midi":65,"time":240.95999999999998,"velocity":0.7322834645669292},{"duration":0.11999999999997613,"midi":73,"time":241.62,"velocity":0.7244094488188977},{"duration":0.11999999999997613,"midi":69,"time":241.62,"velocity":0.7244094488188977},{"duration":0.12000000000000455,"midi":70,"time":241.67999999999998,"velocity":0.7322834645669292},{"duration":0.12000000000000455,"midi":74,"time":241.67999999999998,"velocity":0.7322834645669292},{"duration":0.12000000000000455,"midi":69,"time":241.79999999999998,"velocity":0.7322834645669292},{"duration":0.12000000000000455,"midi":72,"time":241.79999999999998,"velocity":0.7322834645669292},{"duration":0.12000000000000455,"midi":67,"time":241.92,"velocity":0.7322834645669292},{"duration":0.12000000000000455,"midi":70,"time":241.92,"velocity":0.7322834645669292},{"duration":0.12000000000000455,"midi":67,"time":242.16,"velocity":0.7322834645669292},{"duration":0.12000000000000455,"midi":70,"time":242.16,"velocity":0.7322834645669292},{"duration":0.12000000000000455,"midi":70,"time":242.39999999999998,"velocity":0.7322834645669292},{"duration":0.12000000000000455,"midi":65,"time":242.39999999999998,"velocity":0.7322834645669292},{"duration":0.12000000000000455,"midi":70,"time":242.64,"velocity":0.7322834645669292},{"duration":0.12000000000000455,"midi":65,"time":242.64,"velocity":0.7322834645669292},{"duration":0.47999999999998977,"midi":62,"time":242.88,"velocity":0.7322834645669292},{"duration":0.47999999999998977,"midi":70,"time":242.88,"velocity":0.7322834645669292},{"duration":0.2400000000000091,"midi":77,"time":243.35999999999999,"velocity":0.7322834645669292},{"duration":0.2400000000000091,"midi":81,"time":243.35999999999999,"velocity":0.7322834645669292},{"duration":0.2400000000000091,"midi":79,"time":243.6,"velocity":0.7322834645669292},{"duration":0.2400000000000091,"midi":82,"time":243.6,"velocity":0.7322834645669292},{"duration":0.7199999999999989,"midi":77,"time":243.84,"velocity":0.7322834645669292},{"duration":0.7199999999999989,"midi":81,"time":243.84,"velocity":0.7322834645669292},{"duration":0.23999999999998067,"midi":77,"time":244.56,"velocity":0.7322834645669292},{"duration":0.23999999999998067,"midi":72,"time":244.56,"velocity":0.7322834645669292},{"duration":0.7199999999999989,"midi":69,"time":244.79999999999998,"velocity":0.7322834645669292},{"duration":0.7199999999999989,"midi":74,"time":244.79999999999998,"velocity":0.7322834645669292},{"duration":0.12000000000000455,"midi":74,"time":245.51999999999998,"velocity":0.7322834645669292},{"duration":0.12000000000000455,"midi":70,"time":245.51999999999998,"velocity":0.7322834645669292},{"duration":0.12000000000000455,"midi":72,"time":245.64,"velocity":0.7322834645669292},{"duration":0.12000000000000455,"midi":75,"time":245.64,"velocity":0.7322834645669292},{"duration":0.12000000000000455,"midi":74,"time":245.76,"velocity":0.7322834645669292},{"duration":0.12000000000000455,"midi":77,"time":245.76,"velocity":0.7322834645669292},{"duration":0.12000000000000455,"midi":77,"time":246,"velocity":0.7322834645669292},{"duration":0.12000000000000455,"midi":74,"time":246,"velocity":0.7322834645669292},{"duration":0.12000000000000455,"midi":72,"time":246.23999999999998,"velocity":0.7322834645669292},{"duration":0.12000000000000455,"midi":77,"time":246.23999999999998,"velocity":0.7322834645669292},{"duration":0.12000000000000455,"midi":77,"time":246.48,"velocity":0.7322834645669292},{"duration":0.12000000000000455,"midi":72,"time":246.48,"velocity":0.7322834645669292},{"duration":0.47999999999998977,"midi":77,"time":246.72,"velocity":0.7322834645669292},{"duration":0.47999999999998977,"midi":70,"time":246.72,"velocity":0.7322834645669292},{"duration":0.2400000000000091,"midi":70,"time":247.2,"velocity":0.7322834645669292},{"duration":0.2400000000000091,"midi":67,"time":247.2,"velocity":0.7322834645669292},{"duration":0.23999999999998067,"midi":70,"time":247.44,"velocity":0.7322834645669292},{"duration":0.23999999999998067,"midi":74,"time":247.44,"velocity":0.7322834645669292},{"duration":0.12000000000000455,"midi":72,"time":247.67999999999998,"velocity":0.7322834645669292},{"duration":0.12000000000000455,"midi":69,"time":247.67999999999998,"velocity":0.7322834645669292},{"duration":0.12000000000000455,"midi":69,"time":247.92,"velocity":0.7322834645669292},{"duration":0.12000000000000455,"midi":72,"time":247.92,"velocity":0.7322834645669292},{"duration":0.12000000000000455,"midi":72,"time":248.16,"velocity":0.7322834645669292},{"duration":0.12000000000000455,"midi":67,"time":248.16,"velocity":0.7322834645669292},{"duration":0.12000000000000455,"midi":67,"time":248.39999999999998,"velocity":0.7322834645669292},{"duration":0.12000000000000455,"midi":72,"time":248.39999999999998,"velocity":0.7322834645669292},{"duration":0.4800000000000182,"midi":65,"time":248.64,"velocity":0.7322834645669292},{"duration":0.4800000000000182,"midi":72,"time":248.64,"velocity":0.7322834645669292},{"duration":0.11999999999997613,"midi":69,"time":249.06,"velocity":0.7244094488188977},{"duration":0.11999999999997613,"midi":73,"time":249.06,"velocity":0.7244094488188977},{"duration":0.23999999999998067,"midi":70,"time":249.12,"velocity":0.7322834645669292},{"duration":0.23999999999998067,"midi":74,"time":249.12,"velocity":0.7322834645669292},{"duration":0.2400000000000091,"midi":72,"time":249.35999999999999,"velocity":0.7322834645669292},{"duration":0.2400000000000091,"midi":69,"time":249.35999999999999,"velocity":0.7322834645669292},{"duration":0.7199999999999989,"midi":67,"time":249.6,"velocity":0.7322834645669292},{"duration":0.7199999999999989,"midi":70,"time":249.6,"velocity":0.7322834645669292},{"duration":0.2400000000000091,"midi":65,"time":250.32,"velocity":0.7322834645669292},{"duration":0.23999999999998067,"midi":74,"time":250.56,"velocity":0.7322834645669292},{"duration":0.23999999999998067,"midi":70,"time":250.56,"velocity":0.7322834645669292},{"duration":0.2400000000000091,"midi":72,"time":250.79999999999998,"velocity":0.7322834645669292},{"duration":0.2400000000000091,"midi":75,"time":250.79999999999998,"velocity":0.7322834645669292},{"duration":0.3599999999999852,"midi":69,"time":251.04,"velocity":0.7322834645669292},{"duration":0.3599999999999852,"midi":72,"time":251.04,"velocity":0.7322834645669292},{"duration":0.12000000000000455,"midi":67,"time":251.39999999999998,"velocity":0.7322834645669292},{"duration":0.12000000000000455,"midi":70,"time":251.39999999999998,"velocity":0.7322834645669292},{"duration":0.4800000000000182,"midi":70,"time":251.51999999999998,"velocity":0.7322834645669292},{"duration":0.4800000000000182,"midi":67,"time":251.51999999999998,"velocity":0.7322834645669292},{"duration":0.2400000000000091,"midi":65,"time":252.23999999999998,"velocity":0.7322834645669292},{"duration":0.2400000000000091,"midi":70,"time":252.48,"velocity":0.7322834645669292},{"duration":0.2400000000000091,"midi":74,"time":252.48,"velocity":0.7322834645669292},{"duration":0.23999999999998067,"midi":72,"time":252.72,"velocity":0.7322834645669292},{"duration":0.23999999999998067,"midi":75,"time":252.72,"velocity":0.7322834645669292},{"duration":0.2400000000000091,"midi":72,"time":252.95999999999998,"velocity":0.7322834645669292},{"duration":0.2400000000000091,"midi":65,"time":252.95999999999998,"velocity":0.7322834645669292},{"duration":0.2400000000000091,"midi":65,"time":253.2,"velocity":0.7322834645669292},{"duration":0.2400000000000091,"midi":70,"time":253.2,"velocity":0.7322834645669292},{"duration":0.47999999999998977,"midi":70,"time":253.44,"velocity":0.7322834645669292},{"duration":0.47999999999998977,"midi":65,"time":253.44,"velocity":0.7322834645669292},{"duration":0.23999999999998067,"midi":65,"time":254.16,"velocity":0.7322834645669292},{"duration":0.2400000000000091,"midi":74,"time":254.39999999999998,"velocity":0.7322834645669292},{"duration":0.2400000000000091,"midi":69,"time":254.39999999999998,"velocity":0.7322834645669292},{"duration":0.2400000000000091,"midi":70,"time":254.64,"velocity":0.7322834645669292},{"duration":0.2400000000000091,"midi":75,"time":254.64,"velocity":0.7322834645669292},{"duration":0.2400000000000091,"midi":65,"time":254.88,"velocity":0.7322834645669292},{"duration":0.2400000000000091,"midi":72,"time":254.88,"velocity":0.7322834645669292},{"duration":0.12000000000000455,"midi":70,"time":255.23999999999998,"velocity":0.7322834645669292},{"duration":0.12000000000000455,"midi":65,"time":255.23999999999998,"velocity":0.7322834645669292},{"duration":0.4800000000000182,"midi":70,"time":255.35999999999999,"velocity":0.7322834645669292},{"duration":0.4800000000000182,"midi":65,"time":255.35999999999999,"velocity":0.7322834645669292},{"duration":0.2400000000000091,"midi":65,"time":256.08,"velocity":0.7322834645669292},{"duration":0.2400000000000091,"midi":74,"time":256.32,"velocity":0.7322834645669292},{"duration":0.2400000000000091,"midi":69,"time":256.32,"velocity":0.7322834645669292},{"duration":0.2400000000000091,"midi":75,"time":256.56,"velocity":0.7322834645669292},{"duration":0.2400000000000091,"midi":70,"time":256.56,"velocity":0.7322834645669292},{"duration":0.23999999999995225,"midi":77,"time":256.8,"velocity":0.7322834645669292},{"duration":0.23999999999995225,"midi":72,"time":256.8,"velocity":0.7322834645669292},{"duration":0.2400000000000091,"midi":81,"time":257.03999999999996,"velocity":0.7322834645669292},{"duration":0.2400000000000091,"midi":77,"time":257.03999999999996,"velocity":0.7322834645669292},{"duration":0.2400000000000091,"midi":77,"time":257.28,"velocity":0.7322834645669292},{"duration":0.2400000000000091,"midi":74,"time":257.28,"velocity":0.7322834645669292},{"duration":0.2400000000000091,"midi":72,"time":258,"velocity":0.7322834645669292},{"duration":0.2400000000000091,"midi":81,"time":258,"velocity":0.7322834645669292},{"duration":0.2400000000000091,"midi":70,"time":258.24,"velocity":0.7322834645669292},{"duration":0.2400000000000091,"midi":77,"time":258.24,"velocity":0.7322834645669292},{"duration":0.2400000000000091,"midi":81,"time":258.96,"velocity":0.7322834645669292},{"duration":0.2400000000000091,"midi":74,"time":258.96,"velocity":0.7322834645669292},{"duration":0.12000000000000455,"midi":72,"time":259.2,"velocity":0.7874015748031497},{"duration":0.12000000000000455,"midi":77,"time":259.2,"velocity":0.7874015748031497},{"duration":0.1199999999999477,"midi":74,"time":259.92,"velocity":0.6299212598425197},{"duration":0.1199999999999477,"midi":81,"time":259.92,"velocity":0.6299212598425197},{"duration":0.12000000000000455,"midi":66,"time":260.15999999999997,"velocity":0.6299212598425197},{"duration":0.12000000000000455,"midi":74,"time":260.15999999999997,"velocity":0.6299212598425197},{"duration":0.12000000000000455,"midi":63,"time":260.4,"velocity":0.6299212598425197},{"duration":0.12000000000000455,"midi":72,"time":260.4,"velocity":0.6299212598425197},{"duration":0.12000000000000455,"midi":74,"time":260.46,"velocity":0.6299212598425197},{"duration":0.12000000000000455,"midi":66,"time":260.46,"velocity":0.6299212598425197},{"duration":0.12000000000000455,"midi":72,"time":260.52,"velocity":0.6299212598425197},{"duration":0.12000000000000455,"midi":63,"time":260.52,"velocity":0.6299212598425197},{"duration":0.2400000000000091,"midi":62,"time":260.64,"velocity":0.6299212598425197},{"duration":0.2400000000000091,"midi":70,"time":260.64,"velocity":0.6299212598425197},{"duration":0.2400000000000091,"midi":75,"time":291.84,"velocity":0.7401574803149606},{"duration":0.2400000000000091,"midi":82,"time":291.84,"velocity":0.7795275590551181},{"duration":0.23999999999995225,"midi":74,"time":292.8,"velocity":0.7244094488188977},{"duration":0.23999999999995225,"midi":82,"time":292.8,"velocity":0.7795275590551181},{"duration":0.12000000000000455,"midi":81,"time":293.03999999999996,"velocity":0.7795275590551181},{"duration":0.12000000000000455,"midi":72,"time":293.03999999999996,"velocity":0.7244094488188977},{"duration":0.12000000000000455,"midi":82,"time":293.09999999999997,"velocity":0.7795275590551181},{"duration":0.12000000000000455,"midi":74,"time":293.09999999999997,"velocity":0.7244094488188977},{"duration":0.12000000000000455,"midi":81,"time":293.15999999999997,"velocity":0.7795275590551181},{"duration":0.12000000000000455,"midi":72,"time":293.15999999999997,"velocity":0.7244094488188977},{"duration":0.2400000000000091,"midi":70,"time":293.28,"velocity":0.7244094488188977},{"duration":0.2400000000000091,"midi":79,"time":293.28,"velocity":0.7795275590551181},{"duration":0.2400000000000091,"midi":72,"time":293.52,"velocity":0.7244094488188977},{"duration":0.2400000000000091,"midi":81,"time":293.52,"velocity":0.7795275590551181},{"duration":0.2400000000000091,"midi":74,"time":293.76,"velocity":0.7165354330708661},{"duration":0.2400000000000091,"midi":82,"time":293.76,"velocity":0.7795275590551181},{"duration":0.2400000000000091,"midi":77,"time":293.76,"velocity":0.7165354330708661},{"duration":0.2400000000000091,"midi":82,"time":294.71999999999997,"velocity":0.7795275590551181},{"duration":0.2400000000000091,"midi":74,"time":294.71999999999997,"velocity":0.7165354330708661},{"duration":0.2400000000000091,"midi":77,"time":294.71999999999997,"velocity":0.7165354330708661},{"duration":0.12000000000000455,"midi":72,"time":294.96,"velocity":0.7795275590551181},{"duration":0.12000000000000455,"midi":81,"time":294.96,"velocity":0.7795275590551181},{"duration":0.12000000000000455,"midi":82,"time":295.02,"velocity":0.7795275590551181},{"duration":0.12000000000000455,"midi":74,"time":295.02,"velocity":0.7795275590551181},{"duration":0.12000000000000455,"midi":81,"time":295.08,"velocity":0.7795275590551181},{"duration":0.12000000000000455,"midi":72,"time":295.08,"velocity":0.7795275590551181},{"duration":0.2400000000000091,"midi":70,"time":295.2,"velocity":0.7795275590551181},{"duration":0.2400000000000091,"midi":79,"time":295.2,"velocity":0.7795275590551181},{"duration":0.2400000000000091,"midi":81,"time":295.44,"velocity":0.7795275590551181},{"duration":0.2400000000000091,"midi":72,"time":295.44,"velocity":0.7795275590551181},{"duration":0.2400000000000091,"midi":74,"time":295.68,"velocity":0.7165354330708661},{"duration":0.2400000000000091,"midi":77,"time":295.68,"velocity":0.7401574803149606},{"duration":0.2400000000000091,"midi":82,"time":295.68,"velocity":0.7795275590551181},{"duration":0.2400000000000091,"midi":81,"time":296.4,"velocity":0.7795275590551181},{"duration":0.2400000000000091,"midi":77,"time":296.64,"velocity":0.7795275590551181},{"duration":0.2400000000000091,"midi":72,"time":296.64,"velocity":0.7401574803149606},{"duration":0.12000000000000455,"midi":74,"time":297.3,"velocity":0.7795275590551181},{"duration":0.23999999999995225,"midi":75,"time":297.36,"velocity":0.7795275590551181},{"duration":0.23999999999995225,"midi":69,"time":297.36,"velocity":0.6929133858267716},{"duration":0.2400000000000091,"midi":74,"time":297.59999999999997,"velocity":0.7795275590551181},{"duration":0.2400000000000091,"midi":70,"time":297.59999999999997,"velocity":0.6929133858267716},{"duration":0.2400000000000091,"midi":72,"time":298.32,"velocity":0.7795275590551181},{"duration":0.2400000000000091,"midi":67,"time":298.32,"velocity":0.7007874015748031},{"duration":0.2400000000000091,"midi":70,"time":298.56,"velocity":0.7795275590551181},{"duration":0.2400000000000091,"midi":65,"time":298.56,"velocity":0.7007874015748031},{"duration":0.23999999999995225,"midi":67,"time":298.8,"velocity":0.7007874015748031},{"duration":0.23999999999995225,"midi":72,"time":298.8,"velocity":0.7795275590551181},{"duration":0.2400000000000091,"midi":70,"time":299.03999999999996,"velocity":0.7007874015748031},{"duration":0.2400000000000091,"midi":74,"time":299.03999999999996,"velocity":0.7795275590551181},{"duration":0.2400000000000091,"midi":75,"time":299.28,"velocity":0.7795275590551181},{"duration":0.2400000000000091,"midi":72,"time":299.28,"velocity":0.7007874015748031},{"duration":0.2400000000000091,"midi":77,"time":299.52,"velocity":0.7795275590551181},{"duration":0.2400000000000091,"midi":74,"time":299.52,"velocity":0.7007874015748031},{"duration":0.2400000000000091,"midi":77,"time":299.76,"velocity":0.7795275590551181},{"duration":0.2400000000000091,"midi":74,"time":299.76,"velocity":0.7007874015748031},{"duration":0.2400000000000091,"midi":72,"time":300,"velocity":0.7007874015748031},{"duration":0.2400000000000091,"midi":77,"time":300,"velocity":0.7795275590551181},{"duration":0.23999999999995225,"midi":77,"time":300.24,"velocity":0.7795275590551181},{"duration":0.23999999999995225,"midi":72,"time":300.24,"velocity":0.7007874015748031},{"duration":0.4800000000000182,"midi":70,"time":300.47999999999996,"velocity":0.7007874015748031},{"duration":0.4800000000000182,"midi":77,"time":300.47999999999996,"velocity":0.7795275590551181},{"duration":0.2400000000000091,"midi":70,"time":300.96,"velocity":0.7795275590551181},{"duration":0.12000000000000455,"midi":73,"time":301.14,"velocity":0.7795275590551181},{"duration":0.2400000000000091,"midi":74,"time":301.2,"velocity":0.7795275590551181},{"duration":0.2400000000000091,"midi":69,"time":301.44,"velocity":0.7007874015748031},{"duration":0.2400000000000091,"midi":72,"time":301.44,"velocity":0.7795275590551181},{"duration":0.2400000000000091,"midi":69,"time":301.68,"velocity":0.7007874015748031},{"duration":0.2400000000000091,"midi":72,"time":301.68,"velocity":0.7795275590551181},{"duration":0.23999999999995225,"midi":67,"time":301.92,"velocity":0.7007874015748031},{"duration":0.23999999999995225,"midi":72,"time":301.92,"velocity":0.7795275590551181},{"duration":0.2400000000000091,"midi":67,"time":302.15999999999997,"velocity":0.7007874015748031},{"duration":0.2400000000000091,"midi":72,"time":302.15999999999997,"velocity":0.7795275590551181},{"duration":0.36000000000001364,"midi":65,"time":302.4,"velocity":0.7007874015748031},{"duration":0.36000000000001364,"midi":72,"time":302.4,"velocity":0.7795275590551181},{"duration":0.12000000000000455,"midi":73,"time":302.82,"velocity":0.7795275590551181},{"duration":0.2400000000000091,"midi":74,"time":302.88,"velocity":0.7795275590551181},{"duration":0.2400000000000091,"midi":70,"time":302.88,"velocity":0.7007874015748031},{"duration":0.2400000000000091,"midi":72,"time":303.12,"velocity":0.7795275590551181},{"duration":0.2400000000000091,"midi":67,"time":303.12,"velocity":0.7007874015748031},{"duration":0.47999999999996135,"midi":70,"time":303.36,"velocity":0.7795275590551181},{"duration":0.47999999999996135,"midi":65,"time":303.36,"velocity":0.7007874015748031},{"duration":0.2400000000000091,"midi":65,"time":304.08,"velocity":0.7795275590551181},{"duration":0.2400000000000091,"midi":62,"time":304.08,"velocity":0.6929133858267716},{"duration":0.2400000000000091,"midi":70,"time":304.32,"velocity":0.7007874015748031},{"duration":0.2400000000000091,"midi":74,"time":304.32,"velocity":0.7795275590551181},{"duration":0.2400000000000091,"midi":75,"time":304.56,"velocity":0.7795275590551181},{"duration":0.2400000000000091,"midi":72,"time":304.56,"velocity":0.7007874015748031},{"duration":0.23999999999995225,"midi":72,"time":304.8,"velocity":0.7795275590551181},{"duration":0.23999999999995225,"midi":69,"time":304.8,"velocity":0.7007874015748031},{"duration":0.12000000000000455,"midi":67,"time":305.15999999999997,"velocity":0.7795275590551181},{"duration":0.12000000000000455,"midi":70,"time":305.15999999999997,"velocity":0.7795275590551181},{"duration":0.9600000000000364,"midi":67,"time":305.28,"velocity":0.7007874015748031},{"duration":0.9600000000000364,"midi":70,"time":305.28,"velocity":0.7795275590551181},{"duration":0.47999999999996135,"midi":79,"time":306.24,"velocity":0.7795275590551181},{"duration":0.47999999999996135,"midi":67,"time":306.24,"velocity":0.7795275590551181},{"duration":0.47999999999996135,"midi":75,"time":306.24,"velocity":0.6929133858267716},{"duration":0.4800000000000182,"midi":69,"time":306.71999999999997,"velocity":0.7795275590551181},{"duration":0.4800000000000182,"midi":81,"time":306.71999999999997,"velocity":0.7795275590551181},{"duration":0.4800000000000182,"midi":77,"time":306.71999999999997,"velocity":0.6929133858267716},{"duration":0.2400000000000091,"midi":82,"time":307.2,"velocity":0.7795275590551181},{"duration":0.2400000000000091,"midi":75,"time":307.2,"velocity":0.7401574803149606},{"duration":0.2400000000000091,"midi":82,"time":308.15999999999997,"velocity":0.7795275590551181},{"duration":0.2400000000000091,"midi":74,"time":308.15999999999997,"velocity":0.7244094488188977},{"duration":0.12000000000000455,"midi":81,"time":308.4,"velocity":0.7795275590551181},{"duration":0.12000000000000455,"midi":72,"time":308.4,"velocity":0.7244094488188977},{"duration":0.12000000000000455,"midi":82,"time":308.46,"velocity":0.7795275590551181},{"duration":0.12000000000000455,"midi":74,"time":308.46,"velocity":0.7244094488188977},{"duration":0.12000000000000455,"midi":72,"time":308.52,"velocity":0.7244094488188977},{"duration":0.12000000000000455,"midi":81,"time":308.52,"velocity":0.7795275590551181},{"duration":0.2400000000000091,"midi":79,"time":308.64,"velocity":0.7795275590551181},{"duration":0.2400000000000091,"midi":70,"time":308.64,"velocity":0.7244094488188977},{"duration":0.2400000000000091,"midi":72,"time":308.88,"velocity":0.7244094488188977},{"duration":0.2400000000000091,"midi":81,"time":308.88,"velocity":0.7795275590551181},{"duration":0.2400000000000091,"midi":82,"time":309.12,"velocity":0.7795275590551181},{"duration":0.2400000000000091,"midi":74,"time":309.12,"velocity":0.7165354330708661},{"duration":0.2400000000000091,"midi":77,"time":309.12,"velocity":0.7165354330708661},{"duration":0.2400000000000091,"midi":82,"time":310.08,"velocity":0.7795275590551181},{"duration":0.2400000000000091,"midi":77,"time":310.08,"velocity":0.7165354330708661},{"duration":0.2400000000000091,"midi":74,"time":310.08,"velocity":0.7165354330708661},{"duration":0.12000000000000455,"midi":81,"time":310.32,"velocity":0.7795275590551181},{"duration":0.12000000000000455,"midi":72,"time":310.32,"velocity":0.7795275590551181},{"duration":0.12000000000000455,"midi":82,"time":310.38,"velocity":0.7795275590551181},{"duration":0.12000000000000455,"midi":74,"time":310.38,"velocity":0.7795275590551181},{"duration":0.12000000000000455,"midi":72,"time":310.44,"velocity":0.7795275590551181},{"duration":0.12000000000000455,"midi":81,"time":310.44,"velocity":0.7795275590551181},{"duration":0.2400000000000091,"midi":79,"time":310.56,"velocity":0.7795275590551181},{"duration":0.2400000000000091,"midi":70,"time":310.56,"velocity":0.7795275590551181},{"duration":0.23999999999995225,"midi":72,"time":310.8,"velocity":0.7795275590551181},{"duration":0.23999999999995225,"midi":81,"time":310.8,"velocity":0.7795275590551181},{"duration":0.2400000000000091,"midi":77,"time":311.03999999999996,"velocity":0.7401574803149606},{"duration":0.2400000000000091,"midi":74,"time":311.03999999999996,"velocity":0.7165354330708661},{"duration":0.2400000000000091,"midi":82,"time":311.03999999999996,"velocity":0.7795275590551181},{"duration":0.2400000000000091,"midi":81,"time":311.76,"velocity":0.7795275590551181},{"duration":0.2400000000000091,"midi":77,"time":312,"velocity":0.7795275590551181},{"duration":0.2400000000000091,"midi":72,"time":312,"velocity":0.7401574803149606},{"duration":0.12000000000000455,"midi":74,"time":312.65999999999997,"velocity":0.7795275590551181},{"duration":0.2400000000000091,"midi":75,"time":312.71999999999997,"velocity":0.7795275590551181},{"duration":0.2400000000000091,"midi":69,"time":312.71999999999997,"velocity":0.6929133858267716},{"duration":0.2400000000000091,"midi":74,"time":312.96,"velocity":0.7795275590551181},{"duration":0.2400000000000091,"midi":70,"time":312.96,"velocity":0.6929133858267716},{"duration":0.2400000000000091,"midi":67,"time":313.68,"velocity":0.7007874015748031},{"duration":0.2400000000000091,"midi":72,"time":313.68,"velocity":0.7795275590551181},{"duration":0.23999999999995225,"midi":70,"time":313.92,"velocity":0.7795275590551181},{"duration":0.23999999999995225,"midi":65,"time":313.92,"velocity":0.7007874015748031},{"duration":0.2400000000000091,"midi":67,"time":314.15999999999997,"velocity":0.7007874015748031},{"duration":0.2400000000000091,"midi":72,"time":314.15999999999997,"velocity":0.7795275590551181},{"duration":0.2400000000000091,"midi":70,"time":314.4,"velocity":0.7007874015748031},{"duration":0.2400000000000091,"midi":74,"time":314.4,"velocity":0.7795275590551181},{"duration":0.2400000000000091,"midi":72,"time":314.64,"velocity":0.7007874015748031},{"duration":0.2400000000000091,"midi":75,"time":314.64,"velocity":0.7795275590551181},{"duration":0.2400000000000091,"midi":74,"time":314.88,"velocity":0.7007874015748031},{"duration":0.2400000000000091,"midi":77,"time":314.88,"velocity":0.7795275590551181},{"duration":0.2400000000000091,"midi":74,"time":315.12,"velocity":0.7007874015748031},{"duration":0.2400000000000091,"midi":77,"time":315.12,"velocity":0.7795275590551181},{"duration":0.23999999999995225,"midi":72,"time":315.36,"velocity":0.7007874015748031},{"duration":0.23999999999995225,"midi":77,"time":315.36,"velocity":0.7795275590551181},{"duration":0.2400000000000091,"midi":72,"time":315.59999999999997,"velocity":0.7007874015748031},{"duration":0.2400000000000091,"midi":77,"time":315.59999999999997,"velocity":0.7795275590551181},{"duration":0.4800000000000182,"midi":77,"time":315.84,"velocity":0.7795275590551181},{"duration":0.4800000000000182,"midi":70,"time":315.84,"velocity":0.7007874015748031},{"duration":0.2400000000000091,"midi":70,"time":316.32,"velocity":0.7795275590551181},{"duration":0.12000000000000455,"midi":73,"time":316.5,"velocity":0.7795275590551181},{"duration":0.2400000000000091,"midi":74,"time":316.56,"velocity":0.7795275590551181},{"duration":0.23999999999995225,"midi":69,"time":316.8,"velocity":0.7007874015748031},{"duration":0.23999999999995225,"midi":72,"time":316.8,"velocity":0.7795275590551181},{"duration":0.2400000000000091,"midi":69,"time":317.03999999999996,"velocity":0.7007874015748031},{"duration":0.2400000000000091,"midi":72,"time":317.03999999999996,"velocity":0.7795275590551181},{"duration":0.2400000000000091,"midi":72,"time":317.28,"velocity":0.7795275590551181},{"duration":0.2400000000000091,"midi":67,"time":317.28,"velocity":0.7007874015748031},{"duration":0.2400000000000091,"midi":67,"time":317.52,"velocity":0.7007874015748031},{"duration":0.2400000000000091,"midi":72,"time":317.52,"velocity":0.7795275590551181},{"duration":0.36000000000001364,"midi":65,"time":317.76,"velocity":0.7007874015748031},{"duration":0.36000000000001364,"midi":72,"time":317.76,"velocity":0.7795275590551181},{"duration":0.12000000000000455,"midi":73,"time":318.18,"velocity":0.7795275590551181},{"duration":0.23999999999995225,"midi":74,"time":318.24,"velocity":0.7795275590551181},{"duration":0.23999999999995225,"midi":70,"time":318.24,"velocity":0.7007874015748031},{"duration":0.2400000000000091,"midi":67,"time":318.47999999999996,"velocity":0.7007874015748031},{"duration":0.2400000000000091,"midi":72,"time":318.47999999999996,"velocity":0.7795275590551181},{"duration":0.4800000000000182,"midi":65,"time":318.71999999999997,"velocity":0.7007874015748031},{"duration":0.4800000000000182,"midi":70,"time":318.71999999999997,"velocity":0.7795275590551181},{"duration":0.2400000000000091,"midi":65,"time":319.44,"velocity":0.7795275590551181},{"duration":0.2400000000000091,"midi":62,"time":319.44,"velocity":0.6929133858267716},{"duration":0.2400000000000091,"midi":70,"time":319.68,"velocity":0.7007874015748031},{"duration":0.2400000000000091,"midi":74,"time":319.68,"velocity":0.7795275590551181},{"duration":0.23999999999995225,"midi":72,"time":319.92,"velocity":0.7007874015748031},{"duration":0.23999999999995225,"midi":75,"time":319.92,"velocity":0.7795275590551181},{"duration":0.2400000000000091,"midi":69,"time":320.15999999999997,"velocity":0.7007874015748031},{"duration":0.2400000000000091,"midi":72,"time":320.15999999999997,"velocity":0.7795275590551181},{"duration":0.12000000000000455,"midi":67,"time":320.52,"velocity":0.7795275590551181},{"duration":0.12000000000000455,"midi":70,"time":320.52,"velocity":0.7795275590551181},{"duration":1.920000000000016,"midi":70,"time":320.64,"velocity":0.7795275590551181},{"duration":1.920000000000016,"midi":67,"time":320.64,"velocity":0.7007874015748031}]},{"instrument":{"family":"synth lead","number":80,"name":"lead 1 (square)"},"notes":[{"duration":0.12000000000000455,"midi":91,"time":76.8,"velocity":0.25196850393700787},{"duration":0.11999999999999034,"midi":86,"time":76.92,"velocity":0.25196850393700787},{"duration":0.12000000000000455,"midi":94,"time":77.03999999999999,"velocity":0.25196850393700787},{"duration":0.12000000000000455,"midi":91,"time":77.16,"velocity":0.25196850393700787},{"duration":0.11999999999999034,"midi":86,"time":77.28,"velocity":0.25196850393700787},{"duration":0.12000000000000455,"midi":94,"time":77.39999999999999,"velocity":0.25196850393700787},{"duration":0.35999999999999943,"midi":91,"time":77.52,"velocity":0.25196850393700787},{"duration":0.12000000000000455,"midi":86,"time":77.88,"velocity":0.25196850393700787},{"duration":0.11999999999999034,"midi":94,"time":78,"velocity":0.25196850393700787},{"duration":0.12000000000000455,"midi":91,"time":78.11999999999999,"velocity":0.25196850393700787},{"duration":0.12000000000000455,"midi":86,"time":78.24,"velocity":0.25196850393700787},{"duration":0.12000000000000455,"midi":94,"time":78.36,"velocity":0.25196850393700787},{"duration":0.35999999999999943,"midi":91,"time":78.48,"velocity":0.25196850393700787},{"duration":0.11999999999999034,"midi":86,"time":78.84,"velocity":0.25196850393700787},{"duration":0.12000000000000455,"midi":94,"time":78.96,"velocity":0.25196850393700787},{"duration":0.12000000000000455,"midi":91,"time":79.08,"velocity":0.25196850393700787},{"duration":0.11999999999999034,"midi":86,"time":79.2,"velocity":0.25196850393700787},{"duration":0.12000000000000455,"midi":94,"time":79.32,"velocity":0.25196850393700787},{"duration":0.35999999999999943,"midi":89,"time":79.44,"velocity":0.25196850393700787},{"duration":0.12000000000000455,"midi":86,"time":79.8,"velocity":0.25196850393700787},{"duration":0.11999999999999034,"midi":93,"time":79.92,"velocity":0.25196850393700787},{"duration":0.12000000000000455,"midi":89,"time":80.03999999999999,"velocity":0.25196850393700787},{"duration":0.12000000000000455,"midi":86,"time":80.16,"velocity":0.25196850393700787},{"duration":0.11999999999999034,"midi":93,"time":80.28,"velocity":0.25196850393700787},{"duration":0.12000000000000455,"midi":89,"time":80.39999999999999,"velocity":0.25196850393700787},{"duration":0.11999999999999034,"midi":91,"time":80.64,"velocity":0.25196850393700787},{"duration":0.12000000000000455,"midi":86,"time":80.75999999999999,"velocity":0.25196850393700787},{"duration":0.12000000000000455,"midi":94,"time":80.88,"velocity":0.25196850393700787},{"duration":0.11999999999999034,"midi":91,"time":81,"velocity":0.25196850393700787},{"duration":0.12000000000000455,"midi":86,"time":81.11999999999999,"velocity":0.25196850393700787},{"duration":0.12000000000000455,"midi":94,"time":81.24,"velocity":0.25196850393700787},{"duration":0.35999999999999943,"midi":91,"time":81.36,"velocity":0.25196850393700787},{"duration":0.12000000000000455,"midi":86,"time":81.72,"velocity":0.25196850393700787},{"duration":0.11999999999999034,"midi":94,"time":81.84,"velocity":0.25196850393700787},{"duration":0.12000000000000455,"midi":91,"time":81.96,"velocity":0.25196850393700787},{"duration":0.12000000000000455,"midi":86,"time":82.08,"velocity":0.25196850393700787},{"duration":0.11999999999999034,"midi":94,"time":82.2,"velocity":0.25196850393700787},{"duration":0.12000000000000455,"midi":91,"time":82.32,"velocity":0.25196850393700787},{"duration":0.23999999999999488,"midi":93,"time":82.56,"velocity":0.25196850393700787},{"duration":0.23999999999999488,"midi":84,"time":82.92,"velocity":0.25196850393700787},{"duration":0.23999999999999488,"midi":89,"time":83.28,"velocity":0.25196850393700787},{"duration":0.23999999999999488,"midi":86,"time":83.52,"velocity":0.25196850393700787},{"duration":0.12000000000000455,"midi":84,"time":83.75999999999999,"velocity":0.25196850393700787},{"duration":0.12000000000000455,"midi":86,"time":83.82,"velocity":0.25196850393700787},{"duration":0.12000000000000455,"midi":84,"time":83.88,"velocity":0.25196850393700787},{"duration":0.23999999999999488,"midi":94,"time":84,"velocity":0.25196850393700787},{"duration":0.23999999999999488,"midi":84,"time":84.24,"velocity":0.25196850393700787},{"duration":0.12000000000000455,"midi":91,"time":84.47999999999999,"velocity":0.25196850393700787},{"duration":0.12000000000000455,"midi":86,"time":84.6,"velocity":0.25196850393700787},{"duration":0.12000000000000455,"midi":94,"time":84.72,"velocity":0.25196850393700787},{"duration":0.11999999999999034,"midi":91,"time":84.84,"velocity":0.25196850393700787},{"duration":0.12000000000000455,"midi":86,"time":84.96,"velocity":0.25196850393700787},{"duration":0.12000000000000455,"midi":94,"time":85.08,"velocity":0.25196850393700787},{"duration":0.35999999999999943,"midi":91,"time":85.2,"velocity":0.25196850393700787},{"duration":0.11999999999999034,"midi":86,"time":85.56,"velocity":0.25196850393700787},{"duration":0.12000000000000455,"midi":94,"time":85.67999999999999,"velocity":0.25196850393700787},{"duration":0.12000000000000455,"midi":91,"time":85.8,"velocity":0.25196850393700787},{"duration":0.11999999999999034,"midi":86,"time":85.92,"velocity":0.25196850393700787},{"duration":0.12000000000000455,"midi":94,"time":86.03999999999999,"velocity":0.25196850393700787},{"duration":0.35999999999999943,"midi":91,"time":86.16,"velocity":0.25196850393700787},{"duration":0.12000000000000455,"midi":86,"time":86.52,"velocity":0.25196850393700787},{"duration":0.11999999999999034,"midi":94,"time":86.64,"velocity":0.25196850393700787},{"duration":0.12000000000000455,"midi":91,"time":86.75999999999999,"velocity":0.25196850393700787},{"duration":0.12000000000000455,"midi":86,"time":86.88,"velocity":0.25196850393700787},{"duration":0.11999999999999034,"midi":94,"time":87,"velocity":0.25196850393700787},{"duration":0.35999999999999943,"midi":89,"time":87.11999999999999,"velocity":0.25196850393700787},{"duration":0.12000000000000455,"midi":86,"time":87.47999999999999,"velocity":0.25196850393700787},{"duration":0.12000000000000455,"midi":93,"time":87.6,"velocity":0.25196850393700787},{"duration":0.12000000000000455,"midi":89,"time":87.72,"velocity":0.25196850393700787},{"duration":0.11999999999999034,"midi":86,"time":87.84,"velocity":0.25196850393700787},{"duration":0.12000000000000455,"midi":93,"time":87.96,"velocity":0.25196850393700787},{"duration":0.12000000000000455,"midi":89,"time":88.08,"velocity":0.25196850393700787},{"duration":0.12000000000000455,"midi":91,"time":238.07999999999998,"velocity":0.25196850393700787},{"duration":0.12000000000000455,"midi":86,"time":238.2,"velocity":0.25196850393700787},{"duration":0.12000000000000455,"midi":94,"time":238.32,"velocity":0.25196850393700787},{"duration":0.12000000000000455,"midi":91,"time":238.44,"velocity":0.25196850393700787},{"duration":0.11999999999997613,"midi":86,"time":238.56,"velocity":0.25196850393700787},{"duration":0.12000000000000455,"midi":94,"time":238.67999999999998,"velocity":0.25196850393700787},{"duration":0.36000000000001364,"midi":91,"time":238.79999999999998,"velocity":0.25196850393700787},{"duration":0.12000000000000455,"midi":86,"time":239.16,"velocity":0.25196850393700787},{"duration":0.11999999999997613,"midi":94,"time":239.28,"velocity":0.25196850393700787},{"duration":0.12000000000000455,"midi":91,"time":239.39999999999998,"velocity":0.25196850393700787},{"duration":0.12000000000000455,"midi":86,"time":239.51999999999998,"velocity":0.25196850393700787},{"duration":0.12000000000000455,"midi":94,"time":239.64,"velocity":0.25196850393700787},{"duration":0.36000000000001364,"midi":91,"time":239.76,"velocity":0.25196850393700787},{"duration":0.11999999999997613,"midi":86,"time":240.12,"velocity":0.25196850393700787},{"duration":0.12000000000000455,"midi":94,"time":240.23999999999998,"velocity":0.25196850393700787},{"duration":0.12000000000000455,"midi":91,"time":240.35999999999999,"velocity":0.25196850393700787},{"duration":0.12000000000000455,"midi":86,"time":240.48,"velocity":0.25196850393700787},{"duration":0.12000000000000455,"midi":94,"time":240.6,"velocity":0.25196850393700787},{"duration":0.3599999999999852,"midi":89,"time":240.72,"velocity":0.25196850393700787},{"duration":0.12000000000000455,"midi":86,"time":241.07999999999998,"velocity":0.25196850393700787},{"duration":0.12000000000000455,"midi":93,"time":241.2,"velocity":0.25196850393700787},{"duration":0.12000000000000455,"midi":89,"time":241.32,"velocity":0.25196850393700787},{"duration":0.12000000000000455,"midi":86,"time":241.44,"velocity":0.25196850393700787},{"duration":0.11999999999997613,"midi":93,"time":241.56,"velocity":0.25196850393700787},{"duration":0.12000000000000455,"midi":89,"time":241.67999999999998,"velocity":0.25196850393700787},{"duration":0.12000000000000455,"midi":91,"time":241.92,"velocity":0.25196850393700787},{"duration":0.12000000000000455,"midi":86,"time":242.04,"velocity":0.25196850393700787},{"duration":0.12000000000000455,"midi":94,"time":242.16,"velocity":0.25196850393700787},{"duration":0.11999999999997613,"midi":91,"time":242.28,"velocity":0.25196850393700787},{"duration":0.12000000000000455,"midi":86,"time":242.39999999999998,"velocity":0.25196850393700787},{"duration":0.12000000000000455,"midi":94,"time":242.51999999999998,"velocity":0.25196850393700787},{"duration":0.36000000000001364,"midi":91,"time":242.64,"velocity":0.25196850393700787},{"duration":0.12000000000000455,"midi":86,"time":243,"velocity":0.25196850393700787},{"duration":0.11999999999997613,"midi":94,"time":243.12,"velocity":0.25196850393700787},{"duration":0.12000000000000455,"midi":91,"time":243.23999999999998,"velocity":0.25196850393700787},{"duration":0.12000000000000455,"midi":86,"time":243.35999999999999,"velocity":0.25196850393700787},{"duration":0.12000000000000455,"midi":94,"time":243.48,"velocity":0.25196850393700787},{"duration":0.12000000000000455,"midi":91,"time":243.6,"velocity":0.25196850393700787},{"duration":0.23999999999998067,"midi":93,"time":243.84,"velocity":0.25196850393700787},{"duration":0.2400000000000091,"midi":84,"time":244.2,"velocity":0.25196850393700787},{"duration":0.23999999999998067,"midi":89,"time":244.56,"velocity":0.25196850393700787},{"duration":0.2400000000000091,"midi":86,"time":244.79999999999998,"velocity":0.25196850393700787},{"duration":0.12000000000000455,"midi":84,"time":245.04,"velocity":0.25196850393700787},{"duration":0.12000000000000455,"midi":86,"time":245.1,"velocity":0.25196850393700787},{"duration":0.12000000000000455,"midi":84,"time":245.16,"velocity":0.25196850393700787},{"duration":0.23999999999998067,"midi":94,"time":245.28,"velocity":0.25196850393700787},{"duration":0.2400000000000091,"midi":84,"time":245.51999999999998,"velocity":0.25196850393700787},{"duration":0.12000000000000455,"midi":91,"time":245.76,"velocity":0.25196850393700787},{"duration":0.12000000000000455,"midi":86,"time":245.88,"velocity":0.25196850393700787},{"duration":0.12000000000000455,"midi":94,"time":246,"velocity":0.25196850393700787},{"duration":0.11999999999997613,"midi":91,"time":246.12,"velocity":0.25196850393700787},{"duration":0.12000000000000455,"midi":86,"time":246.23999999999998,"velocity":0.25196850393700787},{"duration":0.12000000000000455,"midi":94,"time":246.35999999999999,"velocity":0.25196850393700787},{"duration":0.36000000000001364,"midi":91,"time":246.48,"velocity":0.25196850393700787},{"duration":0.11999999999997613,"midi":86,"time":246.84,"velocity":0.25196850393700787},{"duration":0.12000000000000455,"midi":94,"time":246.95999999999998,"velocity":0.25196850393700787},{"duration":0.12000000000000455,"midi":91,"time":247.07999999999998,"velocity":0.25196850393700787},{"duration":0.12000000000000455,"midi":86,"time":247.2,"velocity":0.25196850393700787},{"duration":0.12000000000000455,"midi":94,"time":247.32,"velocity":0.25196850393700787},{"duration":0.3599999999999852,"midi":91,"time":247.44,"velocity":0.25196850393700787},{"duration":0.12000000000000455,"midi":86,"time":247.79999999999998,"velocity":0.25196850393700787},{"duration":0.12000000000000455,"midi":94,"time":247.92,"velocity":0.25196850393700787},{"duration":0.12000000000000455,"midi":91,"time":248.04,"velocity":0.25196850393700787},{"duration":0.12000000000000455,"midi":86,"time":248.16,"velocity":0.25196850393700787},{"duration":0.11999999999997613,"midi":94,"time":248.28,"velocity":0.25196850393700787},{"duration":0.36000000000001364,"midi":89,"time":248.39999999999998,"velocity":0.25196850393700787},{"duration":0.12000000000000455,"midi":86,"time":248.76,"velocity":0.25196850393700787},{"duration":0.12000000000000455,"midi":93,"time":248.88,"velocity":0.25196850393700787},{"duration":0.12000000000000455,"midi":89,"time":249,"velocity":0.25196850393700787},{"duration":0.11999999999997613,"midi":86,"time":249.12,"velocity":0.25196850393700787},{"duration":0.12000000000000455,"midi":93,"time":249.23999999999998,"velocity":0.25196850393700787},{"duration":0.12000000000000455,"midi":89,"time":249.35999999999999,"velocity":0.25196850393700787}]},{"instrument":{"family":"strings","number":45,"name":"pizzicato strings"},"notes":[{"duration":0.11999999999999744,"midi":63,"time":61.44,"velocity":0.28346456692913385},{"duration":0.11999999999999744,"midi":70,"time":61.68,"velocity":0.28346456692913385},{"duration":0.11999999999999744,"midi":67,"time":61.68,"velocity":0.28346456692913385},{"duration":0.12000000000000455,"midi":58,"time":61.919999999999995,"velocity":0.28346456692913385},{"duration":0.12000000000000455,"midi":67,"time":62.16,"velocity":0.28346456692913385},{"duration":0.12000000000000455,"midi":70,"time":62.16,"velocity":0.28346456692913385},{"duration":0.11999999999999744,"midi":63,"time":62.4,"velocity":0.28346456692913385},{"duration":0.11999999999999744,"midi":67,"time":62.64,"velocity":0.28346456692913385},{"duration":0.11999999999999744,"midi":70,"time":62.64,"velocity":0.28346456692913385},{"duration":0.12000000000000455,"midi":58,"time":62.879999999999995,"velocity":0.28346456692913385},{"duration":0.11999999999999744,"midi":67,"time":63.12,"velocity":0.28346456692913385},{"duration":0.11999999999999744,"midi":70,"time":63.12,"velocity":0.28346456692913385},{"duration":0.11999999999999744,"midi":65,"time":63.36,"velocity":0.28346456692913385},{"duration":0.12000000000000455,"midi":69,"time":63.599999999999994,"velocity":0.28346456692913385},{"duration":0.12000000000000455,"midi":72,"time":63.599999999999994,"velocity":0.28346456692913385},{"duration":0.12000000000000455,"midi":60,"time":63.839999999999996,"velocity":0.28346456692913385},{"duration":0.12000000000000455,"midi":72,"time":64.08,"velocity":0.28346456692913385},{"duration":0.12000000000000455,"midi":69,"time":64.08,"velocity":0.28346456692913385},{"duration":0.12000000000000455,"midi":65,"time":64.32,"velocity":0.28346456692913385},{"duration":0.11999999999999034,"midi":72,"time":64.56,"velocity":0.28346456692913385},{"duration":0.11999999999999034,"midi":69,"time":64.56,"velocity":0.28346456692913385},{"duration":0.12000000000000455,"midi":60,"time":64.8,"velocity":0.28346456692913385},{"duration":0.12000000000000455,"midi":69,"time":65.03999999999999,"velocity":0.28346456692913385},{"duration":0.12000000000000455,"midi":72,"time":65.03999999999999,"velocity":0.28346456692913385},{"duration":0.11999999999999034,"midi":67,"time":65.28,"velocity":0.28346456692913385},{"duration":0.12000000000000455,"midi":70,"time":65.52,"velocity":0.28346456692913385},{"duration":0.12000000000000455,"midi":74,"time":65.52,"velocity":0.28346456692913385},{"duration":0.12000000000000455,"midi":62,"time":65.75999999999999,"velocity":0.28346456692913385},{"duration":0.12000000000000455,"midi":74,"time":66,"velocity":0.28346456692913385},{"duration":0.12000000000000455,"midi":70,"time":66,"velocity":0.28346456692913385},{"duration":0.12000000000000455,"midi":67,"time":66.24,"velocity":0.28346456692913385},{"duration":0.11999999999999034,"midi":70,"time":66.48,"velocity":0.28346456692913385},{"duration":0.11999999999999034,"midi":74,"time":66.48,"velocity":0.28346456692913385},{"duration":0.12000000000000455,"midi":62,"time":66.72,"velocity":0.28346456692913385},{"duration":0.12000000000000455,"midi":74,"time":66.96,"velocity":0.28346456692913385},{"duration":0.12000000000000455,"midi":70,"time":66.96,"velocity":0.28346456692913385},{"duration":0.11999999999999034,"midi":62,"time":67.2,"velocity":0.28346456692913385},{"duration":0.12000000000000455,"midi":69,"time":67.44,"velocity":0.28346456692913385},{"duration":0.12000000000000455,"midi":72,"time":67.44,"velocity":0.28346456692913385},{"duration":0.12000000000000455,"midi":65,"time":67.67999999999999,"velocity":0.28346456692913385},{"duration":0.11999999999999034,"midi":69,"time":67.92,"velocity":0.28346456692913385},{"duration":0.11999999999999034,"midi":72,"time":67.92,"velocity":0.28346456692913385},{"duration":0.12000000000000455,"midi":62,"time":68.16,"velocity":0.28346456692913385},{"duration":0.12000000000000455,"midi":69,"time":68.39999999999999,"velocity":0.28346456692913385},{"duration":0.12000000000000455,"midi":72,"time":68.39999999999999,"velocity":0.28346456692913385},{"duration":0.11999999999999034,"midi":65,"time":68.64,"velocity":0.28346456692913385},{"duration":0.12000000000000455,"midi":72,"time":68.88,"velocity":0.28346456692913385},{"duration":0.12000000000000455,"midi":69,"time":68.88,"velocity":0.28346456692913385},{"duration":0.11999999999999034,"midi":63,"time":69.12,"velocity":0.28346456692913385},{"duration":0.12000000000000455,"midi":70,"time":69.36,"velocity":0.28346456692913385},{"duration":0.12000000000000455,"midi":67,"time":69.36,"velocity":0.28346456692913385},{"duration":0.12000000000000455,"midi":58,"time":69.6,"velocity":0.28346456692913385},{"duration":0.11999999999999034,"midi":70,"time":69.84,"velocity":0.28346456692913385},{"duration":0.11999999999999034,"midi":67,"time":69.84,"velocity":0.28346456692913385},{"duration":0.12000000000000455,"midi":63,"time":70.08,"velocity":0.28346456692913385},{"duration":0.12000000000000455,"midi":67,"time":70.32,"velocity":0.28346456692913385},{"duration":0.12000000000000455,"midi":70,"time":70.32,"velocity":0.28346456692913385},{"duration":0.11999999999999034,"midi":58,"time":70.56,"velocity":0.28346456692913385},{"duration":0.12000000000000455,"midi":70,"time":70.8,"velocity":0.28346456692913385},{"duration":0.12000000000000455,"midi":67,"time":70.8,"velocity":0.28346456692913385},{"duration":0.12000000000000455,"midi":65,"time":71.03999999999999,"velocity":0.28346456692913385},{"duration":0.11999999999999034,"midi":72,"time":71.28,"velocity":0.28346456692913385},{"duration":0.11999999999999034,"midi":69,"time":71.28,"velocity":0.28346456692913385},{"duration":0.12000000000000455,"midi":60,"time":71.52,"velocity":0.28346456692913385},{"duration":0.12000000000000455,"midi":72,"time":71.75999999999999,"velocity":0.28346456692913385},{"duration":0.12000000000000455,"midi":69,"time":71.75999999999999,"velocity":0.28346456692913385},{"duration":0.11999999999999034,"midi":65,"time":72,"velocity":0.28346456692913385},{"duration":0.12000000000000455,"midi":72,"time":72.24,"velocity":0.28346456692913385},{"duration":0.12000000000000455,"midi":69,"time":72.24,"velocity":0.28346456692913385},{"duration":0.11999999999999034,"midi":60,"time":72.48,"velocity":0.28346456692913385},{"duration":0.12000000000000455,"midi":72,"time":72.72,"velocity":0.28346456692913385},{"duration":0.12000000000000455,"midi":69,"time":72.72,"velocity":0.28346456692913385},{"duration":0.12000000000000455,"midi":70,"time":72.96,"velocity":0.28346456692913385},{"duration":0.11999999999999034,"midi":77,"time":73.2,"velocity":0.28346456692913385},{"duration":0.11999999999999034,"midi":74,"time":73.2,"velocity":0.28346456692913385},{"duration":0.12000000000000455,"midi":65,"time":73.44,"velocity":0.28346456692913385},{"duration":0.12000000000000455,"midi":74,"time":73.67999999999999,"velocity":0.28346456692913385},{"duration":0.12000000000000455,"midi":77,"time":73.67999999999999,"velocity":0.28346456692913385},{"duration":0.11999999999999034,"midi":70,"time":73.92,"velocity":0.28346456692913385},{"duration":0.12000000000000455,"midi":77,"time":74.16,"velocity":0.28346456692913385},{"duration":0.12000000000000455,"midi":74,"time":74.16,"velocity":0.28346456692913385},{"duration":0.12000000000000455,"midi":65,"time":74.39999999999999,"velocity":0.28346456692913385},{"duration":0.11999999999999034,"midi":74,"time":74.64,"velocity":0.28346456692913385},{"duration":0.11999999999999034,"midi":77,"time":74.64,"velocity":0.28346456692913385},{"duration":0.12000000000000455,"midi":72,"time":74.88,"velocity":0.28346456692913385},{"duration":0.12000000000000455,"midi":69,"time":74.88,"velocity":0.28346456692913385},{"duration":0.12000000000000455,"midi":63,"time":222.72,"velocity":0.28346456692913385},{"duration":0.12000000000000455,"midi":67,"time":222.95999999999998,"velocity":0.28346456692913385},{"duration":0.12000000000000455,"midi":70,"time":222.95999999999998,"velocity":0.28346456692913385},{"duration":0.12000000000000455,"midi":58,"time":223.2,"velocity":0.28346456692913385},{"duration":0.12000000000000455,"midi":67,"time":223.44,"velocity":0.28346456692913385},{"duration":0.12000000000000455,"midi":70,"time":223.44,"velocity":0.28346456692913385},{"duration":0.12000000000000455,"midi":63,"time":223.67999999999998,"velocity":0.28346456692913385},{"duration":0.12000000000000455,"midi":67,"time":223.92,"velocity":0.28346456692913385},{"duration":0.12000000000000455,"midi":70,"time":223.92,"velocity":0.28346456692913385},{"duration":0.12000000000000455,"midi":58,"time":224.16,"velocity":0.28346456692913385},{"duration":0.11999999999997613,"midi":67,"time":224.4,"velocity":0.28346456692913385},{"duration":0.11999999999997613,"midi":70,"time":224.4,"velocity":0.28346456692913385},{"duration":0.12000000000000455,"midi":65,"time":224.64,"velocity":0.28346456692913385},{"duration":0.12000000000000455,"midi":69,"time":224.88,"velocity":0.28346456692913385},{"duration":0.12000000000000455,"midi":72,"time":224.88,"velocity":0.28346456692913385},{"duration":0.11999999999997613,"midi":60,"time":225.12,"velocity":0.28346456692913385},{"duration":0.12000000000000455,"midi":72,"time":225.35999999999999,"velocity":0.28346456692913385},{"duration":0.12000000000000455,"midi":69,"time":225.35999999999999,"velocity":0.28346456692913385},{"duration":0.12000000000000455,"midi":65,"time":225.6,"velocity":0.28346456692913385},{"duration":0.11999999999997613,"midi":72,"time":225.84,"velocity":0.28346456692913385},{"duration":0.11999999999997613,"midi":69,"time":225.84,"velocity":0.28346456692913385},{"duration":0.12000000000000455,"midi":60,"time":226.07999999999998,"velocity":0.28346456692913385},{"duration":0.12000000000000455,"midi":69,"time":226.32,"velocity":0.28346456692913385},{"duration":0.12000000000000455,"midi":72,"time":226.32,"velocity":0.28346456692913385},{"duration":0.11999999999997613,"midi":67,"time":226.56,"velocity":0.28346456692913385},{"duration":0.12000000000000455,"midi":70,"time":226.79999999999998,"velocity":0.28346456692913385},{"duration":0.12000000000000455,"midi":74,"time":226.79999999999998,"velocity":0.28346456692913385},{"duration":0.12000000000000455,"midi":62,"time":227.04,"velocity":0.28346456692913385},{"duration":0.12000000000000455,"midi":74,"time":227.28,"velocity":0.28346456692913385},{"duration":0.12000000000000455,"midi":70,"time":227.28,"velocity":0.28346456692913385},{"duration":0.12000000000000455,"midi":67,"time":227.51999999999998,"velocity":0.28346456692913385},{"duration":0.12000000000000455,"midi":70,"time":227.76,"velocity":0.28346456692913385},{"duration":0.12000000000000455,"midi":74,"time":227.76,"velocity":0.28346456692913385},{"duration":0.12000000000000455,"midi":62,"time":228,"velocity":0.28346456692913385},{"duration":0.12000000000000455,"midi":74,"time":228.23999999999998,"velocity":0.28346456692913385},{"duration":0.12000000000000455,"midi":70,"time":228.23999999999998,"velocity":0.28346456692913385},{"duration":0.12000000000000455,"midi":62,"time":228.48,"velocity":0.28346456692913385},{"duration":0.12000000000000455,"midi":69,"time":228.72,"velocity":0.28346456692913385},{"duration":0.12000000000000455,"midi":72,"time":228.72,"velocity":0.28346456692913385},{"duration":0.12000000000000455,"midi":65,"time":228.95999999999998,"velocity":0.28346456692913385},{"duration":0.12000000000000455,"midi":69,"time":229.2,"velocity":0.28346456692913385},{"duration":0.12000000000000455,"midi":72,"time":229.2,"velocity":0.28346456692913385},{"duration":0.12000000000000455,"midi":62,"time":229.44,"velocity":0.28346456692913385},{"duration":0.12000000000000455,"midi":69,"time":229.67999999999998,"velocity":0.28346456692913385},{"duration":0.12000000000000455,"midi":72,"time":229.67999999999998,"velocity":0.28346456692913385},{"duration":0.12000000000000455,"midi":65,"time":229.92,"velocity":0.28346456692913385},{"duration":0.12000000000000455,"midi":72,"time":230.16,"velocity":0.28346456692913385},{"duration":0.12000000000000455,"midi":69,"time":230.16,"velocity":0.28346456692913385},{"duration":0.12000000000000455,"midi":63,"time":230.39999999999998,"velocity":0.28346456692913385},{"duration":0.12000000000000455,"midi":70,"time":230.64,"velocity":0.28346456692913385},{"duration":0.12000000000000455,"midi":67,"time":230.64,"velocity":0.28346456692913385},{"duration":0.12000000000000455,"midi":58,"time":230.88,"velocity":0.28346456692913385},{"duration":0.11999999999997613,"midi":70,"time":231.12,"velocity":0.28346456692913385},{"duration":0.11999999999997613,"midi":67,"time":231.12,"velocity":0.28346456692913385},{"duration":0.12000000000000455,"midi":63,"time":231.35999999999999,"velocity":0.28346456692913385},{"duration":0.12000000000000455,"midi":67,"time":231.6,"velocity":0.28346456692913385},{"duration":0.12000000000000455,"midi":70,"time":231.6,"velocity":0.28346456692913385},{"duration":0.11999999999997613,"midi":58,"time":231.84,"velocity":0.28346456692913385},{"duration":0.12000000000000455,"midi":70,"time":232.07999999999998,"velocity":0.28346456692913385},{"duration":0.12000000000000455,"midi":67,"time":232.07999999999998,"velocity":0.28346456692913385},{"duration":0.12000000000000455,"midi":65,"time":232.32,"velocity":0.28346456692913385},{"duration":0.11999999999997613,"midi":72,"time":232.56,"velocity":0.28346456692913385},{"duration":0.11999999999997613,"midi":69,"time":232.56,"velocity":0.28346456692913385},{"duration":0.12000000000000455,"midi":60,"time":232.79999999999998,"velocity":0.28346456692913385},{"duration":0.12000000000000455,"midi":72,"time":233.04,"velocity":0.28346456692913385},{"duration":0.12000000000000455,"midi":69,"time":233.04,"velocity":0.28346456692913385},{"duration":0.11999999999997613,"midi":65,"time":233.28,"velocity":0.28346456692913385},{"duration":0.12000000000000455,"midi":72,"time":233.51999999999998,"velocity":0.28346456692913385},{"duration":0.12000000000000455,"midi":69,"time":233.51999999999998,"velocity":0.28346456692913385},{"duration":0.12000000000000455,"midi":60,"time":233.76,"velocity":0.28346456692913385},{"duration":0.12000000000000455,"midi":72,"time":234,"velocity":0.28346456692913385},{"duration":0.12000000000000455,"midi":69,"time":234,"velocity":0.28346456692913385},{"duration":0.12000000000000455,"midi":70,"time":234.23999999999998,"velocity":0.28346456692913385},{"duration":0.12000000000000455,"midi":77,"time":234.48,"velocity":0.28346456692913385},{"duration":0.12000000000000455,"midi":74,"time":234.48,"velocity":0.28346456692913385},{"duration":0.12000000000000455,"midi":65,"time":234.72,"velocity":0.28346456692913385},{"duration":0.12000000000000455,"midi":74,"time":234.95999999999998,"velocity":0.28346456692913385},{"duration":0.12000000000000455,"midi":77,"time":234.95999999999998,"velocity":0.28346456692913385},{"duration":0.12000000000000455,"midi":70,"time":235.2,"velocity":0.28346456692913385},{"duration":0.12000000000000455,"midi":77,"time":235.44,"velocity":0.28346456692913385},{"duration":0.12000000000000455,"midi":74,"time":235.44,"velocity":0.28346456692913385},{"duration":0.12000000000000455,"midi":65,"time":235.67999999999998,"velocity":0.28346456692913385},{"duration":0.12000000000000455,"midi":74,"time":235.92,"velocity":0.28346456692913385},{"duration":0.12000000000000455,"midi":77,"time":235.92,"velocity":0.28346456692913385},{"duration":0.12000000000000455,"midi":72,"time":236.16,"velocity":0.28346456692913385},{"duration":0.12000000000000455,"midi":69,"time":236.16,"velocity":0.28346456692913385}]},{"instrument":{"family":"reed","number":64,"name":"soprano sax"},"notes":[{"duration":0.7199999999999989,"midi":77,"time":15.36,"velocity":0.3543307086614173},{"duration":0.240000000000002,"midi":81,"time":16.08,"velocity":0.3543307086614173},{"duration":0.7199999999999989,"midi":77,"time":16.32,"velocity":0.3543307086614173},{"duration":0.240000000000002,"midi":81,"time":17.04,"velocity":0.3543307086614173},{"duration":0.7199999999999989,"midi":77,"time":17.28,"velocity":0.3543307086614173},{"duration":0.23999999999999844,"midi":81,"time":18,"velocity":0.3543307086614173},{"duration":0.120000000000001,"midi":86,"time":18.72,"velocity":0.31496062992125984},{"duration":0.11999999999999744,"midi":87,"time":18.96,"velocity":0.2755905511811024},{"duration":0.4800000000000004,"midi":77,"time":19.2,"velocity":0.36220472440944884},{"duration":0.4800000000000004,"midi":89,"time":19.2,"velocity":0.2204724409448819},{"duration":0.11999999999999744,"midi":79,"time":19.8,"velocity":0.3228346456692913},{"duration":0.120000000000001,"midi":80,"time":19.86,"velocity":0.33858267716535434},{"duration":0.240000000000002,"midi":81,"time":19.919999999999998,"velocity":0.3543307086614173},{"duration":0.5999999999999979,"midi":77,"time":20.16,"velocity":0.36220472440944884},{"duration":0.11999999999999744,"midi":80,"time":20.82,"velocity":0.3543307086614173},{"duration":0.23999999999999844,"midi":81,"time":20.88,"velocity":0.3543307086614173},{"duration":0.7200000000000024,"midi":77,"time":21.119999999999997,"velocity":0.36220472440944884},{"duration":0.23999999999999844,"midi":81,"time":21.84,"velocity":0.3543307086614173},{"duration":0.120000000000001,"midi":94,"time":22.08,"velocity":0.3779527559055118},{"duration":0.11999999999999744,"midi":93,"time":22.32,"velocity":0.3779527559055118},{"duration":0.120000000000001,"midi":94,"time":22.38,"velocity":0.3779527559055118},{"duration":0.120000000000001,"midi":93,"time":22.439999999999998,"velocity":0.3779527559055118},{"duration":0.240000000000002,"midi":91,"time":22.56,"velocity":0.3779527559055118},{"duration":0.23999999999999844,"midi":93,"time":22.8,"velocity":0.3779527559055118},{"duration":0.7199999999999989,"midi":94,"time":23.04,"velocity":0.3779527559055118},{"duration":0.120000000000001,"midi":92,"time":23.7,"velocity":0.3779527559055118},{"duration":0.240000000000002,"midi":93,"time":23.759999999999998,"velocity":0.3779527559055118},{"duration":0.7199999999999989,"midi":89,"time":24,"velocity":0.3779527559055118},{"duration":0.7199999999999989,"midi":82,"time":24,"velocity":0.3779527559055118},{"duration":0.240000000000002,"midi":87,"time":24.72,"velocity":0.3779527559055118},{"duration":0.7199999999999989,"midi":86,"time":24.96,"velocity":0.3779527559055118},{"duration":0.7199999999999989,"midi":82,"time":24.96,"velocity":0.3779527559055118},{"duration":0.23999999999999844,"midi":84,"time":25.68,"velocity":0.3779527559055118},{"duration":0.240000000000002,"midi":82,"time":25.919999999999998,"velocity":0.3779527559055118},{"duration":0.23999999999999844,"midi":84,"time":26.16,"velocity":0.3779527559055118},{"duration":0.240000000000002,"midi":86,"time":26.4,"velocity":0.3779527559055118},{"duration":0.23999999999999844,"midi":87,"time":26.64,"velocity":0.3779527559055118},{"duration":0.7199999999999989,"midi":82,"time":26.88,"velocity":0.3779527559055118},{"duration":0.7199999999999989,"midi":89,"time":26.88,"velocity":0.3779527559055118},{"duration":0.7199999999999989,"midi":84,"time":27.84,"velocity":0.3779527559055118},{"duration":0.7199999999999989,"midi":91,"time":27.84,"velocity":0.3779527559055118},{"duration":0.7200000000000024,"midi":86,"time":28.799999999999997,"velocity":0.3779527559055118},{"duration":0.7200000000000024,"midi":93,"time":28.799999999999997,"velocity":0.3779527559055118},{"duration":0.120000000000001,"midi":94,"time":29.759999999999998,"velocity":0.3779527559055118},{"duration":0.11999999999999744,"midi":93,"time":30,"velocity":0.3779527559055118},{"duration":0.120000000000001,"midi":94,"time":30.06,"velocity":0.3779527559055118},{"duration":0.120000000000001,"midi":93,"time":30.119999999999997,"velocity":0.3779527559055118},{"duration":0.240000000000002,"midi":91,"time":30.24,"velocity":0.3779527559055118},{"duration":0.23999999999999844,"midi":93,"time":30.48,"velocity":0.3779527559055118},{"duration":0.7199999999999989,"midi":77,"time":30.72,"velocity":0.3543307086614173},{"duration":0.240000000000002,"midi":81,"time":31.439999999999998,"velocity":0.3543307086614173},{"duration":0.7199999999999989,"midi":77,"time":31.68,"velocity":0.3543307086614173},{"duration":0.240000000000002,"midi":81,"time":32.4,"velocity":0.3543307086614173},{"duration":0.7199999999999989,"midi":77,"time":32.64,"velocity":0.3543307086614173},{"duration":0.240000000000002,"midi":81,"time":33.36,"velocity":0.3543307086614173},{"duration":0.11999999999999744,"midi":86,"time":34.08,"velocity":0.31496062992125984},{"duration":0.11999999999999744,"midi":87,"time":34.32,"velocity":0.2755905511811024},{"duration":0.4799999999999969,"midi":77,"time":34.56,"velocity":0.36220472440944884},{"duration":0.4799999999999969,"midi":89,"time":34.56,"velocity":0.2204724409448819},{"duration":0.12000000000000455,"midi":79,"time":35.16,"velocity":0.3228346456692913},{"duration":0.11999999999999744,"midi":80,"time":35.22,"velocity":0.33858267716535434},{"duration":0.23999999999999488,"midi":81,"time":35.28,"velocity":0.3543307086614173},{"duration":0.6000000000000014,"midi":77,"time":35.519999999999996,"velocity":0.36220472440944884},{"duration":0.11999999999999744,"midi":80,"time":36.18,"velocity":0.3543307086614173},{"duration":0.23999999999999488,"midi":81,"time":36.24,"velocity":0.3543307086614173},{"duration":0.7199999999999989,"midi":77,"time":36.48,"velocity":0.36220472440944884},{"duration":0.240000000000002,"midi":81,"time":37.199999999999996,"velocity":0.3543307086614173},{"duration":0.11999999999999744,"midi":94,"time":37.44,"velocity":0.3779527559055118},{"duration":0.11999999999999744,"midi":93,"time":37.68,"velocity":0.3779527559055118},{"duration":0.11999999999999744,"midi":94,"time":37.74,"velocity":0.3779527559055118},{"duration":0.12000000000000455,"midi":93,"time":37.8,"velocity":0.3779527559055118},{"duration":0.23999999999999488,"midi":91,"time":37.92,"velocity":0.3779527559055118},{"duration":0.240000000000002,"midi":93,"time":38.16,"velocity":0.3779527559055118},{"duration":0.7199999999999989,"midi":94,"time":38.4,"velocity":0.3779527559055118},{"duration":0.12000000000000455,"midi":92,"time":39.059999999999995,"velocity":0.3779527559055118},{"duration":0.240000000000002,"midi":93,"time":39.12,"velocity":0.3779527559055118},{"duration":0.7199999999999989,"midi":82,"time":39.36,"velocity":0.3779527559055118},{"duration":0.7199999999999989,"midi":89,"time":39.36,"velocity":0.3779527559055118},{"duration":0.240000000000002,"midi":87,"time":40.08,"velocity":0.3779527559055118},{"duration":0.7199999999999989,"midi":82,"time":40.32,"velocity":0.3779527559055118},{"duration":0.7199999999999989,"midi":86,"time":40.32,"velocity":0.3779527559055118},{"duration":0.240000000000002,"midi":84,"time":41.04,"velocity":0.3779527559055118},{"duration":0.23999999999999488,"midi":82,"time":41.28,"velocity":0.3779527559055118},{"duration":0.240000000000002,"midi":84,"time":41.519999999999996,"velocity":0.3779527559055118},{"duration":0.240000000000002,"midi":86,"time":41.76,"velocity":0.3779527559055118},{"duration":0.23999999999999488,"midi":87,"time":42,"velocity":0.3779527559055118},{"duration":0.720000000000006,"midi":82,"time":42.239999999999995,"velocity":0.3779527559055118},{"duration":0.720000000000006,"midi":89,"time":42.239999999999995,"velocity":0.3779527559055118},{"duration":0.720000000000006,"midi":84,"time":43.199999999999996,"velocity":0.3779527559055118},{"duration":0.720000000000006,"midi":91,"time":43.199999999999996,"velocity":0.3779527559055118},{"duration":0.7199999999999989,"midi":86,"time":44.16,"velocity":0.3779527559055118},{"duration":0.7199999999999989,"midi":93,"time":44.16,"velocity":0.3779527559055118},{"duration":0.11999999999999744,"midi":94,"time":45.12,"velocity":0.3779527559055118},{"duration":0.11999999999999744,"midi":93,"time":45.36,"velocity":0.3779527559055118},{"duration":0.11999999999999744,"midi":94,"time":45.42,"velocity":0.3779527559055118},{"duration":0.12000000000000455,"midi":93,"time":45.48,"velocity":0.3779527559055118},{"duration":0.23999999999999488,"midi":91,"time":45.6,"velocity":0.3779527559055118},{"duration":0.240000000000002,"midi":93,"time":45.839999999999996,"velocity":0.3779527559055118},{"duration":0.240000000000002,"midi":65,"time":60.239999999999995,"velocity":0.2047244094488189},{"duration":0.240000000000002,"midi":77,"time":60.239999999999995,"velocity":0.14960629921259844},{"duration":0.240000000000002,"midi":82,"time":60.48,"velocity":0.1732283464566929},{"duration":0.240000000000002,"midi":70,"time":60.48,"velocity":0.2283464566929134},{"duration":0.240000000000002,"midi":72,"time":60.72,"velocity":0.25196850393700787},{"duration":0.240000000000002,"midi":84,"time":60.72,"velocity":0.1889763779527559},{"duration":0.23999999999999488,"midi":86,"time":60.96,"velocity":0.2125984251968504},{"duration":0.23999999999999488,"midi":74,"time":60.96,"velocity":0.28346456692913385},{"duration":0.240000000000002,"midi":87,"time":61.199999999999996,"velocity":0.2204724409448819},{"duration":0.240000000000002,"midi":75,"time":61.199999999999996,"velocity":0.2992125984251969},{"duration":0.11999999999999744,"midi":89,"time":61.44,"velocity":0.23622047244094488},{"duration":0.11999999999999744,"midi":77,"time":61.44,"velocity":0.3228346456692913},{"duration":0.11999999999999744,"midi":89,"time":61.68,"velocity":0.23622047244094488},{"duration":0.11999999999999744,"midi":77,"time":61.68,"velocity":0.3228346456692913},{"duration":0.12000000000000455,"midi":89,"time":61.919999999999995,"velocity":0.23622047244094488},{"duration":0.12000000000000455,"midi":77,"time":61.919999999999995,"velocity":0.3228346456692913},{"duration":0.12000000000000455,"midi":77,"time":62.16,"velocity":0.3228346456692913},{"duration":0.12000000000000455,"midi":89,"time":62.16,"velocity":0.23622047244094488},{"duration":0.4799999999999969,"midi":89,"time":62.4,"velocity":0.23622047244094488},{"duration":0.4799999999999969,"midi":77,"time":62.4,"velocity":0.3228346456692913},{"duration":0.240000000000002,"midi":82,"time":62.879999999999995,"velocity":0.23622047244094488},{"duration":0.240000000000002,"midi":70,"time":62.879999999999995,"velocity":0.3228346456692913},{"duration":0.240000000000002,"midi":74,"time":63.12,"velocity":0.3228346456692913},{"duration":0.240000000000002,"midi":86,"time":63.12,"velocity":0.23622047244094488},{"duration":0.11999999999999744,"midi":72,"time":63.36,"velocity":0.3228346456692913},{"duration":0.11999999999999744,"midi":84,"time":63.36,"velocity":0.23622047244094488},{"duration":0.12000000000000455,"midi":84,"time":63.599999999999994,"velocity":0.23622047244094488},{"duration":0.12000000000000455,"midi":72,"time":63.599999999999994,"velocity":0.3228346456692913},{"duration":0.12000000000000455,"midi":84,"time":63.839999999999996,"velocity":0.23622047244094488},{"duration":0.12000000000000455,"midi":72,"time":63.839999999999996,"velocity":0.3228346456692913},{"duration":0.12000000000000455,"midi":84,"time":64.08,"velocity":0.23622047244094488},{"duration":0.12000000000000455,"midi":72,"time":64.08,"velocity":0.3228346456692913},{"duration":0.7199999999999989,"midi":84,"time":64.32,"velocity":0.23622047244094488},{"duration":0.7199999999999989,"midi":72,"time":64.32,"velocity":0.3228346456692913},{"duration":0.12000000000000455,"midi":74,"time":65.03999999999999,"velocity":0.3228346456692913},{"duration":0.12000000000000455,"midi":86,"time":65.03999999999999,"velocity":0.23622047244094488},{"duration":0.12000000000000455,"midi":84,"time":65.16,"velocity":0.23622047244094488},{"duration":0.12000000000000455,"midi":72,"time":65.16,"velocity":0.3228346456692913},{"duration":0.11999999999999034,"midi":82,"time":65.28,"velocity":0.23622047244094488},{"duration":0.11999999999999034,"midi":70,"time":65.28,"velocity":0.3228346456692913},{"duration":0.12000000000000455,"midi":70,"time":65.52,"velocity":0.3228346456692913},{"duration":0.12000000000000455,"midi":82,"time":65.52,"velocity":0.23622047244094488},{"duration":0.12000000000000455,"midi":82,"time":65.75999999999999,"velocity":0.23622047244094488},{"duration":0.12000000000000455,"midi":70,"time":65.75999999999999,"velocity":0.3228346456692913},{"duration":0.12000000000000455,"midi":82,"time":66,"velocity":0.23622047244094488},{"duration":0.12000000000000455,"midi":70,"time":66,"velocity":0.3228346456692913},{"duration":0.480000000000004,"midi":70,"time":66.24,"velocity":0.3228346456692913},{"duration":0.480000000000004,"midi":82,"time":66.24,"velocity":0.23622047244094488},{"duration":0.23999999999999488,"midi":93,"time":66.72,"velocity":0.23622047244094488},{"duration":0.23999999999999488,"midi":81,"time":66.72,"velocity":0.3228346456692913},{"duration":0.2400000000000091,"midi":94,"time":66.96,"velocity":0.23622047244094488},{"duration":0.2400000000000091,"midi":82,"time":66.96,"velocity":0.3228346456692913},{"duration":0.7199999999999989,"midi":93,"time":67.2,"velocity":0.23622047244094488},{"duration":0.7199999999999989,"midi":81,"time":67.2,"velocity":0.3228346456692913},{"duration":0.23999999999999488,"midi":89,"time":67.92,"velocity":0.23622047244094488},{"duration":0.23999999999999488,"midi":77,"time":67.92,"velocity":0.3228346456692913},{"duration":0.7199999999999989,"midi":74,"time":68.16,"velocity":0.3228346456692913},{"duration":0.7199999999999989,"midi":86,"time":68.16,"velocity":0.23622047244094488},{"duration":0.12000000000000455,"midi":86,"time":68.88,"velocity":0.23622047244094488},{"duration":0.12000000000000455,"midi":74,"time":68.88,"velocity":0.3228346456692913},{"duration":0.12000000000000455,"midi":87,"time":69,"velocity":0.23622047244094488},{"duration":0.12000000000000455,"midi":75,"time":69,"velocity":0.3228346456692913},{"duration":0.11999999999999034,"midi":77,"time":69.12,"velocity":0.3228346456692913},{"duration":0.11999999999999034,"midi":89,"time":69.12,"velocity":0.23622047244094488},{"duration":0.12000000000000455,"midi":89,"time":69.36,"velocity":0.23622047244094488},{"duration":0.12000000000000455,"midi":77,"time":69.36,"velocity":0.3228346456692913},{"duration":0.12000000000000455,"midi":77,"time":69.6,"velocity":0.3228346456692913},{"duration":0.12000000000000455,"midi":89,"time":69.6,"velocity":0.23622047244094488},{"duration":0.11999999999999034,"midi":89,"time":69.84,"velocity":0.23622047244094488},{"duration":0.11999999999999034,"midi":77,"time":69.84,"velocity":0.3228346456692913},{"duration":0.480000000000004,"midi":89,"time":70.08,"velocity":0.23622047244094488},{"duration":0.480000000000004,"midi":77,"time":70.08,"velocity":0.3228346456692913},{"duration":0.23999999999999488,"midi":70,"time":70.56,"velocity":0.3228346456692913},{"duration":0.23999999999999488,"midi":82,"time":70.56,"velocity":0.23622047244094488},{"duration":0.23999999999999488,"midi":86,"time":70.8,"velocity":0.23622047244094488},{"duration":0.23999999999999488,"midi":74,"time":70.8,"velocity":0.3228346456692913},{"duration":0.12000000000000455,"midi":84,"time":71.03999999999999,"velocity":0.23622047244094488},{"duration":0.12000000000000455,"midi":72,"time":71.03999999999999,"velocity":0.3228346456692913},{"duration":0.11999999999999034,"midi":84,"time":71.28,"velocity":0.23622047244094488},{"duration":0.11999999999999034,"midi":72,"time":71.28,"velocity":0.3228346456692913},{"duration":0.12000000000000455,"midi":84,"time":71.52,"velocity":0.23622047244094488},{"duration":0.12000000000000455,"midi":72,"time":71.52,"velocity":0.3228346456692913},{"duration":0.12000000000000455,"midi":84,"time":71.75999999999999,"velocity":0.23622047244094488},{"duration":0.12000000000000455,"midi":72,"time":71.75999999999999,"velocity":0.3228346456692913},{"duration":0.480000000000004,"midi":72,"time":72,"velocity":0.3228346456692913},{"duration":0.480000000000004,"midi":84,"time":72,"velocity":0.23622047244094488},{"duration":0.23999999999999488,"midi":74,"time":72.48,"velocity":0.3228346456692913},{"duration":0.23999999999999488,"midi":86,"time":72.48,"velocity":0.23622047244094488},{"duration":0.23999999999999488,"midi":84,"time":72.72,"velocity":0.23622047244094488},{"duration":0.23999999999999488,"midi":72,"time":72.72,"velocity":0.3228346456692913},{"duration":0.12000000000000455,"midi":74,"time":72.96,"velocity":0.3228346456692913},{"duration":0.12000000000000455,"midi":86,"time":72.96,"velocity":0.23622047244094488},{"duration":0.11999999999999034,"midi":74,"time":73.2,"velocity":0.3228346456692913},{"duration":0.11999999999999034,"midi":86,"time":73.2,"velocity":0.23622047244094488},{"duration":0.12000000000000455,"midi":86,"time":73.44,"velocity":0.23622047244094488},{"duration":0.12000000000000455,"midi":74,"time":73.44,"velocity":0.3228346456692913},{"duration":0.12000000000000455,"midi":74,"time":73.67999999999999,"velocity":0.3228346456692913},{"duration":0.12000000000000455,"midi":86,"time":73.67999999999999,"velocity":0.23622047244094488},{"duration":0.47999999999998977,"midi":86,"time":73.92,"velocity":0.23622047244094488},{"duration":0.47999999999998977,"midi":74,"time":73.92,"velocity":0.3228346456692913},{"duration":0.2400000000000091,"midi":87,"time":74.39999999999999,"velocity":0.23622047244094488},{"duration":0.2400000000000091,"midi":75,"time":74.39999999999999,"velocity":0.3228346456692913},{"duration":0.23999999999999488,"midi":74,"time":74.64,"velocity":0.3228346456692913},{"duration":0.23999999999999488,"midi":86,"time":74.64,"velocity":0.23622047244094488},{"duration":0.7199999999999989,"midi":72,"time":74.88,"velocity":0.3228346456692913},{"duration":0.7199999999999989,"midi":84,"time":74.88,"velocity":0.23622047244094488},{"duration":0.2400000000000091,"midi":62,"time":75.6,"velocity":0.3228346456692913},{"duration":0.2400000000000091,"midi":65,"time":75.6,"velocity":0.3228346456692913},{"duration":0.2400000000000091,"midi":77,"time":75.6,"velocity":0.23622047244094488},{"duration":0.23999999999999488,"midi":82,"time":75.84,"velocity":0.23622047244094488},{"duration":0.23999999999999488,"midi":70,"time":75.84,"velocity":0.3228346456692913},{"duration":0.23999999999999488,"midi":67,"time":75.84,"velocity":0.3228346456692913},{"duration":0.23999999999999488,"midi":72,"time":76.08,"velocity":0.3228346456692913},{"duration":0.23999999999999488,"midi":69,"time":76.08,"velocity":0.3228346456692913},{"duration":0.23999999999999488,"midi":84,"time":76.08,"velocity":0.23622047244094488},{"duration":0.2400000000000091,"midi":70,"time":76.32,"velocity":0.3228346456692913},{"duration":0.2400000000000091,"midi":86,"time":76.32,"velocity":0.23622047244094488},{"duration":0.2400000000000091,"midi":74,"time":76.32,"velocity":0.3228346456692913},{"duration":0.23999999999999488,"midi":87,"time":76.56,"velocity":0.23622047244094488},{"duration":0.23999999999999488,"midi":75,"time":76.56,"velocity":0.3228346456692913},{"duration":0.23999999999999488,"midi":72,"time":76.56,"velocity":0.3228346456692913},{"duration":0.12000000000000455,"midi":74,"time":76.8,"velocity":0.3228346456692913},{"duration":0.12000000000000455,"midi":77,"time":76.8,"velocity":0.3228346456692913},{"duration":0.12000000000000455,"midi":89,"time":76.8,"velocity":0.23622047244094488},{"duration":0.12000000000000455,"midi":89,"time":77.03999999999999,"velocity":0.23622047244094488},{"duration":0.12000000000000455,"midi":77,"time":77.03999999999999,"velocity":0.3228346456692913},{"duration":0.12000000000000455,"midi":74,"time":77.03999999999999,"velocity":0.3228346456692913},{"duration":0.11999999999999034,"midi":77,"time":77.28,"velocity":0.3228346456692913},{"duration":0.11999999999999034,"midi":72,"time":77.28,"velocity":0.3228346456692913},{"duration":0.11999999999999034,"midi":89,"time":77.28,"velocity":0.23622047244094488},{"duration":0.12000000000000455,"midi":72,"time":77.52,"velocity":0.3228346456692913},{"duration":0.12000000000000455,"midi":77,"time":77.52,"velocity":0.3228346456692913},{"duration":0.12000000000000455,"midi":89,"time":77.52,"velocity":0.23622047244094488},{"duration":0.480000000000004,"midi":89,"time":77.75999999999999,"velocity":0.23622047244094488},{"duration":0.480000000000004,"midi":70,"time":77.75999999999999,"velocity":0.3228346456692913},{"duration":0.480000000000004,"midi":77,"time":77.75999999999999,"velocity":0.3228346456692913},{"duration":0.2400000000000091,"midi":67,"time":78.24,"velocity":0.3228346456692913},{"duration":0.2400000000000091,"midi":82,"time":78.24,"velocity":0.23622047244094488},{"duration":0.2400000000000091,"midi":70,"time":78.24,"velocity":0.3228346456692913},{"duration":0.23999999999999488,"midi":74,"time":78.48,"velocity":0.3228346456692913},{"duration":0.23999999999999488,"midi":70,"time":78.48,"velocity":0.3228346456692913},{"duration":0.23999999999999488,"midi":86,"time":78.48,"velocity":0.23622047244094488},{"duration":0.12000000000000455,"midi":84,"time":78.72,"velocity":0.23622047244094488},{"duration":0.12000000000000455,"midi":69,"time":78.72,"velocity":0.3228346456692913},{"duration":0.12000000000000455,"midi":72,"time":78.72,"velocity":0.3228346456692913},{"duration":0.12000000000000455,"midi":84,"time":78.96,"velocity":0.23622047244094488},{"duration":0.12000000000000455,"midi":72,"time":78.96,"velocity":0.3228346456692913},{"duration":0.12000000000000455,"midi":69,"time":78.96,"velocity":0.3228346456692913},{"duration":0.11999999999999034,"midi":84,"time":79.2,"velocity":0.23622047244094488},{"duration":0.11999999999999034,"midi":67,"time":79.2,"velocity":0.3228346456692913},{"duration":0.11999999999999034,"midi":72,"time":79.2,"velocity":0.3228346456692913},{"duration":0.12000000000000455,"midi":67,"time":79.44,"velocity":0.3228346456692913},{"duration":0.12000000000000455,"midi":84,"time":79.44,"velocity":0.23622047244094488},{"duration":0.12000000000000455,"midi":72,"time":79.44,"velocity":0.3228346456692913},{"duration":0.7199999999999989,"midi":84,"time":79.67999999999999,"velocity":0.23622047244094488},{"duration":0.7199999999999989,"midi":65,"time":79.67999999999999,"velocity":0.3228346456692913},{"duration":0.7199999999999989,"midi":72,"time":79.67999999999999,"velocity":0.3228346456692913},{"duration":0.12000000000000455,"midi":74,"time":80.39999999999999,"velocity":0.3228346456692913},{"duration":0.12000000000000455,"midi":86,"time":80.39999999999999,"velocity":0.23622047244094488},{"duration":0.12000000000000455,"midi":70,"time":80.39999999999999,"velocity":0.3228346456692913},{"duration":0.12000000000000455,"midi":84,"time":80.52,"velocity":0.23622047244094488},{"duration":0.12000000000000455,"midi":72,"time":80.52,"velocity":0.3228346456692913},{"duration":0.12000000000000455,"midi":69,"time":80.52,"velocity":0.3228346456692913},{"duration":0.11999999999999034,"midi":70,"time":80.64,"velocity":0.3228346456692913},{"duration":0.11999999999999034,"midi":82,"time":80.64,"velocity":0.23622047244094488},{"duration":0.11999999999999034,"midi":67,"time":80.64,"velocity":0.3228346456692913},{"duration":0.12000000000000455,"midi":67,"time":80.88,"velocity":0.3228346456692913},{"duration":0.12000000000000455,"midi":82,"time":80.88,"velocity":0.23622047244094488},{"duration":0.12000000000000455,"midi":70,"time":80.88,"velocity":0.3228346456692913},{"duration":0.12000000000000455,"midi":82,"time":81.11999999999999,"velocity":0.23622047244094488},{"duration":0.12000000000000455,"midi":70,"time":81.11999999999999,"velocity":0.3228346456692913},{"duration":0.12000000000000455,"midi":65,"time":81.11999999999999,"velocity":0.3228346456692913},{"duration":0.12000000000000455,"midi":65,"time":81.36,"velocity":0.3228346456692913},{"duration":0.12000000000000455,"midi":82,"time":81.36,"velocity":0.23622047244094488},{"duration":0.12000000000000455,"midi":70,"time":81.36,"velocity":0.3228346456692913},{"duration":0.480000000000004,"midi":70,"time":81.6,"velocity":0.3228346456692913},{"duration":0.480000000000004,"midi":62,"time":81.6,"velocity":0.3228346456692913},{"duration":0.480000000000004,"midi":82,"time":81.6,"velocity":0.23622047244094488},{"duration":0.23999999999999488,"midi":93,"time":82.08,"velocity":0.23622047244094488},{"duration":0.23999999999999488,"midi":77,"time":82.08,"velocity":0.3228346456692913},{"duration":0.23999999999999488,"midi":81,"time":82.08,"velocity":0.3228346456692913},{"duration":0.2400000000000091,"midi":82,"time":82.32,"velocity":0.3228346456692913},{"duration":0.2400000000000091,"midi":79,"time":82.32,"velocity":0.3228346456692913},{"duration":0.2400000000000091,"midi":94,"time":82.32,"velocity":0.23622047244094488},{"duration":0.7199999999999989,"midi":81,"time":82.56,"velocity":0.3228346456692913},{"duration":0.7199999999999989,"midi":77,"time":82.56,"velocity":0.3228346456692913},{"duration":0.7199999999999989,"midi":93,"time":82.56,"velocity":0.23622047244094488},{"duration":0.23999999999999488,"midi":77,"time":83.28,"velocity":0.3228346456692913},{"duration":0.23999999999999488,"midi":72,"time":83.28,"velocity":0.3228346456692913},{"duration":0.23999999999999488,"midi":89,"time":83.28,"velocity":0.23622047244094488},{"duration":0.7199999999999989,"midi":86,"time":83.52,"velocity":0.23622047244094488},{"duration":0.7199999999999989,"midi":74,"time":83.52,"velocity":0.3228346456692913},{"duration":0.7199999999999989,"midi":69,"time":83.52,"velocity":0.3228346456692913},{"duration":0.12000000000000455,"midi":74,"time":84.24,"velocity":0.3228346456692913},{"duration":0.12000000000000455,"midi":70,"time":84.24,"velocity":0.3228346456692913},{"duration":0.12000000000000455,"midi":86,"time":84.24,"velocity":0.23622047244094488},{"duration":0.11999999999999034,"midi":75,"time":84.36,"velocity":0.3228346456692913},{"duration":0.11999999999999034,"midi":72,"time":84.36,"velocity":0.3228346456692913},{"duration":0.11999999999999034,"midi":87,"time":84.36,"velocity":0.23622047244094488},{"duration":0.12000000000000455,"midi":74,"time":84.47999999999999,"velocity":0.3228346456692913},{"duration":0.12000000000000455,"midi":77,"time":84.47999999999999,"velocity":0.3228346456692913},{"duration":0.12000000000000455,"midi":89,"time":84.47999999999999,"velocity":0.23622047244094488},{"duration":0.12000000000000455,"midi":77,"time":84.72,"velocity":0.3228346456692913},{"duration":0.12000000000000455,"midi":74,"time":84.72,"velocity":0.3228346456692913},{"duration":0.12000000000000455,"midi":89,"time":84.72,"velocity":0.23622047244094488},{"duration":0.12000000000000455,"midi":72,"time":84.96,"velocity":0.3228346456692913},{"duration":0.12000000000000455,"midi":89,"time":84.96,"velocity":0.23622047244094488},{"duration":0.12000000000000455,"midi":77,"time":84.96,"velocity":0.3228346456692913},{"duration":0.11999999999999034,"midi":89,"time":85.2,"velocity":0.23622047244094488},{"duration":0.11999999999999034,"midi":77,"time":85.2,"velocity":0.3228346456692913},{"duration":0.11999999999999034,"midi":72,"time":85.2,"velocity":0.3228346456692913},{"duration":0.480000000000004,"midi":89,"time":85.44,"velocity":0.23622047244094488},{"duration":0.480000000000004,"midi":77,"time":85.44,"velocity":0.3228346456692913},{"duration":0.480000000000004,"midi":70,"time":85.44,"velocity":0.3228346456692913},{"duration":0.23999999999999488,"midi":70,"time":85.92,"velocity":0.3228346456692913},{"duration":0.23999999999999488,"midi":67,"time":85.92,"velocity":0.3228346456692913},{"duration":0.23999999999999488,"midi":82,"time":85.92,"velocity":0.23622047244094488},{"duration":0.23999999999999488,"midi":74,"time":86.16,"velocity":0.3228346456692913},{"duration":0.23999999999999488,"midi":86,"time":86.16,"velocity":0.23622047244094488},{"duration":0.23999999999999488,"midi":70,"time":86.16,"velocity":0.3228346456692913},{"duration":0.12000000000000455,"midi":69,"time":86.39999999999999,"velocity":0.3228346456692913},{"duration":0.12000000000000455,"midi":72,"time":86.39999999999999,"velocity":0.3228346456692913},{"duration":0.12000000000000455,"midi":84,"time":86.39999999999999,"velocity":0.23622047244094488},{"duration":0.11999999999999034,"midi":84,"time":86.64,"velocity":0.23622047244094488},{"duration":0.11999999999999034,"midi":69,"time":86.64,"velocity":0.3228346456692913},{"duration":0.11999999999999034,"midi":72,"time":86.64,"velocity":0.3228346456692913},{"duration":0.12000000000000455,"midi":72,"time":86.88,"velocity":0.3228346456692913},{"duration":0.12000000000000455,"midi":67,"time":86.88,"velocity":0.3228346456692913},{"duration":0.12000000000000455,"midi":84,"time":86.88,"velocity":0.23622047244094488},{"duration":0.12000000000000455,"midi":67,"time":87.11999999999999,"velocity":0.3228346456692913},{"duration":0.12000000000000455,"midi":84,"time":87.11999999999999,"velocity":0.23622047244094488},{"duration":0.12000000000000455,"midi":72,"time":87.11999999999999,"velocity":0.3228346456692913},{"duration":0.480000000000004,"midi":72,"time":87.36,"velocity":0.3228346456692913},{"duration":0.480000000000004,"midi":84,"time":87.36,"velocity":0.23622047244094488},{"duration":0.480000000000004,"midi":65,"time":87.36,"velocity":0.3228346456692913},{"duration":0.23999999999999488,"midi":86,"time":87.84,"velocity":0.23622047244094488},{"duration":0.23999999999999488,"midi":74,"time":87.84,"velocity":0.3228346456692913},{"duration":0.23999999999999488,"midi":70,"time":87.84,"velocity":0.3228346456692913},{"duration":0.23999999999999488,"midi":84,"time":88.08,"velocity":0.23622047244094488},{"duration":0.23999999999999488,"midi":72,"time":88.08,"velocity":0.3228346456692913},{"duration":0.23999999999999488,"midi":57,"time":88.08,"velocity":0.3228346456692913},{"duration":0.23999999999999488,"midi":69,"time":88.08,"velocity":0.3228346456692913},{"duration":0.7199999999999989,"midi":70,"time":88.32,"velocity":0.3228346456692913},{"duration":0.7199999999999989,"midi":82,"time":88.32,"velocity":0.23622047244094488},{"duration":0.7199999999999989,"midi":67,"time":88.32,"velocity":0.3228346456692913},{"duration":0.7199999999999989,"midi":58,"time":88.32,"velocity":0.3228346456692913},{"duration":0.2400000000000091,"midi":77,"time":89.03999999999999,"velocity":0.23622047244094488},{"duration":0.2400000000000091,"midi":65,"time":89.03999999999999,"velocity":0.3228346456692913},{"duration":0.2400000000000091,"midi":58,"time":89.03999999999999,"velocity":0.3228346456692913},{"duration":0.23999999999999488,"midi":58,"time":89.28,"velocity":0.3228346456692913},{"duration":0.23999999999999488,"midi":86,"time":89.28,"velocity":0.23622047244094488},{"duration":0.23999999999999488,"midi":74,"time":89.28,"velocity":0.3228346456692913},{"duration":0.23999999999999488,"midi":60,"time":89.52,"velocity":0.3228346456692913},{"duration":0.23999999999999488,"midi":75,"time":89.52,"velocity":0.3228346456692913},{"duration":0.23999999999999488,"midi":87,"time":89.52,"velocity":0.23622047244094488},{"duration":0.35999999999999943,"midi":84,"time":89.75999999999999,"velocity":0.23622047244094488},{"duration":0.35999999999999943,"midi":65,"time":89.75999999999999,"velocity":0.3228346456692913},{"duration":0.35999999999999943,"midi":72,"time":89.75999999999999,"velocity":0.3228346456692913},{"duration":0.12000000000000455,"midi":63,"time":90.11999999999999,"velocity":0.3228346456692913},{"duration":0.12000000000000455,"midi":70,"time":90.11999999999999,"velocity":0.3228346456692913},{"duration":0.12000000000000455,"midi":58,"time":90.11999999999999,"velocity":0.25196850393700787},{"duration":0.12000000000000455,"midi":82,"time":90.11999999999999,"velocity":0.23622047244094488},{"duration":1.4399999999999977,"midi":62,"time":90.24,"velocity":0.3228346456692913},{"duration":1.4399999999999977,"midi":70,"time":90.24,"velocity":0.3228346456692913},{"duration":1.4399999999999977,"midi":82,"time":90.24,"velocity":0.23622047244094488},{"duration":1.4399999999999977,"midi":58,"time":90.24,"velocity":0.25196850393700787},{"duration":1.0799999999999983,"midi":58,"time":99.84,"velocity":0.33858267716535434},{"duration":1.0799999999999983,"midi":58,"time":99.96,"velocity":0.25984251968503935},{"duration":0.2400000000000091,"midi":62,"time":101.03999999999999,"velocity":0.33858267716535434},{"duration":0.23999999999999488,"midi":62,"time":101.16,"velocity":0.25984251968503935},{"duration":0.23999999999999488,"midi":53,"time":101.28,"velocity":0.33858267716535434},{"duration":0.2400000000000091,"midi":53,"time":101.39999999999999,"velocity":0.25984251968503935},{"duration":0.5999999999999943,"midi":60,"time":101.52,"velocity":0.33858267716535434},{"duration":0.5999999999999943,"midi":60,"time":101.64,"velocity":0.25984251968503935},{"duration":0.12000000000000455,"midi":62,"time":102.11999999999999,"velocity":0.33858267716535434},{"duration":0.12000000000000455,"midi":60,"time":102.17999999999999,"velocity":0.33858267716535434},{"duration":0.35999999999999943,"midi":58,"time":102.24,"velocity":0.33858267716535434},{"duration":0.12000000000000455,"midi":62,"time":102.24,"velocity":0.25984251968503935},{"duration":0.12000000000000455,"midi":60,"time":102.3,"velocity":0.25984251968503935},{"duration":0.35999999999999943,"midi":58,"time":102.36,"velocity":0.25984251968503935},{"duration":0.35999999999999943,"midi":58,"time":102.72,"velocity":0.33858267716535434},{"duration":0.36000000000001364,"midi":58,"time":102.83999999999999,"velocity":0.25984251968503935},{"duration":0.35999999999999943,"midi":57,"time":103.2,"velocity":0.33858267716535434},{"duration":0.35999999999999943,"midi":57,"time":103.32,"velocity":0.25984251968503935},{"duration":0.35999999999999943,"midi":57,"time":103.67999999999999,"velocity":0.33858267716535434},{"duration":0.35999999999999943,"midi":57,"time":103.8,"velocity":0.25984251968503935},{"duration":0.35999999999999943,"midi":58,"time":104.03999999999999,"velocity":0.33858267716535434},{"duration":0.35999999999999943,"midi":58,"time":104.16,"velocity":0.25984251968503935},{"duration":0.6000000000000085,"midi":65,"time":104.39999999999999,"velocity":0.33858267716535434},{"duration":0.5999999999999943,"midi":65,"time":104.52,"velocity":0.25984251968503935},{"duration":0.11999999999999034,"midi":66,"time":105.06,"velocity":0.33858267716535434},{"duration":0.2400000000000091,"midi":67,"time":105.11999999999999,"velocity":0.33858267716535434},{"duration":0.12000000000000455,"midi":66,"time":105.17999999999999,"velocity":0.25984251968503935},{"duration":0.23999999999999488,"midi":67,"time":105.24,"velocity":0.25984251968503935},{"duration":0.5999999999999943,"midi":62,"time":105.36,"velocity":0.33858267716535434},{"duration":0.6000000000000085,"midi":62,"time":105.47999999999999,"velocity":0.25984251968503935},{"duration":0.23999999999999488,"midi":70,"time":106.08,"velocity":0.33858267716535434},{"duration":0.23999999999999488,"midi":70,"time":106.2,"velocity":0.25984251968503935},{"duration":0.2400000000000091,"midi":58,"time":106.32,"velocity":0.33858267716535434},{"duration":0.23999999999999488,"midi":58,"time":106.44,"velocity":0.25984251968503935},{"duration":0.23999999999999488,"midi":69,"time":106.56,"velocity":0.33858267716535434},{"duration":0.2400000000000091,"midi":69,"time":106.67999999999999,"velocity":0.25984251968503935},{"duration":0.23999999999999488,"midi":60,"time":106.8,"velocity":0.33858267716535434},{"duration":0.23999999999999488,"midi":60,"time":106.92,"velocity":0.25984251968503935},{"duration":0.2400000000000091,"midi":65,"time":107.03999999999999,"velocity":0.33858267716535434},{"duration":0.23999999999999488,"midi":65,"time":107.16,"velocity":0.25984251968503935},{"duration":0.23999999999999488,"midi":60,"time":107.28,"velocity":0.33858267716535434},{"duration":0.2400000000000091,"midi":60,"time":107.39999999999999,"velocity":0.25984251968503935},{"duration":0.35999999999999943,"midi":58,"time":107.52,"velocity":0.33858267716535434},{"duration":0.35999999999999943,"midi":55,"time":107.52,"velocity":0.33858267716535434},{"duration":0.35999999999999943,"midi":55,"time":107.64,"velocity":0.25984251968503935},{"duration":0.35999999999999943,"midi":58,"time":107.64,"velocity":0.25984251968503935},{"duration":0.35999999999999943,"midi":57,"time":107.88,"velocity":0.33858267716535434},{"duration":0.35999999999999943,"midi":60,"time":107.88,"velocity":0.33858267716535434},{"duration":0.35999999999999943,"midi":60,"time":108,"velocity":0.25984251968503935},{"duration":0.35999999999999943,"midi":57,"time":108,"velocity":0.25984251968503935},{"duration":0.23999999999999488,"midi":58,"time":108.24,"velocity":0.33858267716535434},{"duration":0.23999999999999488,"midi":62,"time":108.24,"velocity":0.33858267716535434},{"duration":0.23999999999999488,"midi":58,"time":108.36,"velocity":0.25984251968503935},{"duration":0.23999999999999488,"midi":62,"time":108.36,"velocity":0.25984251968503935},{"duration":0.35999999999999943,"midi":67,"time":108.47999999999999,"velocity":0.33858267716535434},{"duration":0.35999999999999943,"midi":63,"time":108.47999999999999,"velocity":0.33858267716535434},{"duration":0.35999999999999943,"midi":63,"time":108.6,"velocity":0.25984251968503935},{"duration":0.35999999999999943,"midi":67,"time":108.6,"velocity":0.25984251968503935},{"duration":0.36000000000001364,"midi":67,"time":108.83999999999999,"velocity":0.33858267716535434},{"duration":0.36000000000001364,"midi":70,"time":108.83999999999999,"velocity":0.33858267716535434},{"duration":0.35999999999999943,"midi":67,"time":108.96,"velocity":0.25984251968503935},{"duration":0.35999999999999943,"midi":70,"time":108.96,"velocity":0.25984251968503935},{"duration":0.23999999999999488,"midi":65,"time":109.2,"velocity":0.33858267716535434},{"duration":0.23999999999999488,"midi":69,"time":109.2,"velocity":0.33858267716535434},{"duration":0.2400000000000091,"midi":69,"time":109.32,"velocity":0.25984251968503935},{"duration":0.2400000000000091,"midi":65,"time":109.32,"velocity":0.25984251968503935},{"duration":0.7199999999999989,"midi":60,"time":109.44,"velocity":0.33858267716535434},{"duration":0.7199999999999989,"midi":65,"time":109.44,"velocity":0.33858267716535434},{"duration":0.7199999999999989,"midi":60,"time":109.56,"velocity":0.25984251968503935},{"duration":0.7199999999999989,"midi":65,"time":109.56,"velocity":0.25984251968503935},{"duration":0.11999999999999034,"midi":67,"time":110.28,"velocity":0.33858267716535434},{"duration":0.12000000000000455,"midi":65,"time":110.33999999999999,"velocity":0.33858267716535434},{"duration":0.12000000000000455,"midi":67,"time":110.39999999999999,"velocity":0.25984251968503935},{"duration":0.480000000000004,"midi":58,"time":110.39999999999999,"velocity":0.33858267716535434},{"duration":0.480000000000004,"midi":62,"time":110.39999999999999,"velocity":0.33858267716535434},{"duration":0.12000000000000455,"midi":65,"time":110.46,"velocity":0.25984251968503935},{"duration":0.480000000000004,"midi":58,"time":110.52,"velocity":0.25984251968503935},{"duration":0.480000000000004,"midi":62,"time":110.52,"velocity":0.25984251968503935},{"duration":0.480000000000004,"midi":58,"time":110.88,"velocity":0.33858267716535434},{"duration":0.480000000000004,"midi":55,"time":110.88,"velocity":0.33858267716535434},{"duration":0.47999999999998977,"midi":58,"time":111,"velocity":0.25984251968503935},{"duration":0.47999999999998977,"midi":55,"time":111,"velocity":0.25984251968503935},{"duration":0.35999999999999943,"midi":57,"time":111.36,"velocity":0.33858267716535434},{"duration":0.35999999999999943,"midi":60,"time":111.36,"velocity":0.33858267716535434},{"duration":0.35999999999999943,"midi":57,"time":111.47999999999999,"velocity":0.25984251968503935},{"duration":0.35999999999999943,"midi":60,"time":111.47999999999999,"velocity":0.25984251968503935},{"duration":0.23999999999999488,"midi":58,"time":111.72,"velocity":0.33858267716535434},{"duration":0.23999999999999488,"midi":62,"time":111.72,"velocity":0.33858267716535434},{"duration":0.2400000000000091,"midi":58,"time":111.83999999999999,"velocity":0.25984251968503935},{"duration":0.2400000000000091,"midi":62,"time":111.83999999999999,"velocity":0.25984251968503935},{"duration":0.7199999999999989,"midi":58,"time":112.08,"velocity":0.33858267716535434},{"duration":0.7199999999999989,"midi":62,"time":112.08,"velocity":0.33858267716535434},{"duration":0.7199999999999989,"midi":62,"time":112.2,"velocity":0.25984251968503935},{"duration":0.7199999999999989,"midi":58,"time":112.2,"velocity":0.25984251968503935},{"duration":0.23999999999999488,"midi":55,"time":112.8,"velocity":0.33858267716535434},{"duration":0.23999999999999488,"midi":51,"time":112.8,"velocity":0.33858267716535434},{"duration":0.23999999999999488,"midi":55,"time":112.92,"velocity":0.25984251968503935},{"duration":0.23999999999999488,"midi":51,"time":112.92,"velocity":0.25984251968503935},{"duration":1.2000000000000028,"midi":55,"time":113.03999999999999,"velocity":0.33858267716535434},{"duration":1.2000000000000028,"midi":60,"time":113.03999999999999,"velocity":0.33858267716535434},{"duration":1.2000000000000028,"midi":60,"time":113.16,"velocity":0.25984251968503935},{"duration":1.2000000000000028,"midi":55,"time":113.16,"velocity":0.25984251968503935},{"duration":0.480000000000004,"midi":55,"time":114.24,"velocity":0.33858267716535434},{"duration":0.480000000000004,"midi":58,"time":114.24,"velocity":0.33858267716535434},{"duration":0.47999999999998977,"midi":55,"time":114.36,"velocity":0.25984251968503935},{"duration":0.47999999999998977,"midi":58,"time":114.36,"velocity":0.25984251968503935},{"duration":0.47999999999998977,"midi":57,"time":114.72,"velocity":0.33858267716535434},{"duration":0.480000000000004,"midi":57,"time":114.83999999999999,"velocity":0.25984251968503935},{"duration":1.0800000000000125,"midi":58,"time":115.19999999999999,"velocity":0.33858267716535434},{"duration":1.0799999999999983,"midi":58,"time":115.32,"velocity":0.25984251968503935},{"duration":0.2400000000000091,"midi":62,"time":116.39999999999999,"velocity":0.33858267716535434},{"duration":0.23999999999999488,"midi":62,"time":116.52,"velocity":0.25984251968503935},{"duration":0.23999999999999488,"midi":53,"time":116.64,"velocity":0.33858267716535434},{"duration":0.2400000000000091,"midi":53,"time":116.75999999999999,"velocity":0.25984251968503935},{"duration":0.5999999999999943,"midi":60,"time":116.88,"velocity":0.33858267716535434},{"duration":0.5999999999999943,"midi":60,"time":117,"velocity":0.25984251968503935},{"duration":0.12000000000000455,"midi":62,"time":117.47999999999999,"velocity":0.33858267716535434},{"duration":0.12000000000000455,"midi":60,"time":117.53999999999999,"velocity":0.33858267716535434},{"duration":0.12000000000000455,"midi":62,"time":117.6,"velocity":0.25984251968503935},{"duration":0.35999999999999943,"midi":58,"time":117.6,"velocity":0.33858267716535434},{"duration":0.12000000000000455,"midi":60,"time":117.66,"velocity":0.25984251968503935},{"duration":0.35999999999999943,"midi":58,"time":117.72,"velocity":0.25984251968503935},{"duration":0.35999999999999943,"midi":58,"time":118.08,"velocity":0.33858267716535434},{"duration":0.36000000000001364,"midi":58,"time":118.19999999999999,"velocity":0.25984251968503935},{"duration":0.35999999999999943,"midi":57,"time":118.56,"velocity":0.33858267716535434},{"duration":0.35999999999999943,"midi":57,"time":118.67999999999999,"velocity":0.25984251968503935},{"duration":0.35999999999999943,"midi":57,"time":119.03999999999999,"velocity":0.33858267716535434},{"duration":0.35999999999999943,"midi":57,"time":119.16,"velocity":0.25984251968503935},{"duration":0.35999999999999943,"midi":58,"time":119.39999999999999,"velocity":0.33858267716535434},{"duration":0.35999999999999943,"midi":58,"time":119.52,"velocity":0.25984251968503935},{"duration":0.6000000000000085,"midi":65,"time":119.75999999999999,"velocity":0.33858267716535434},{"duration":0.5999999999999943,"midi":65,"time":119.88,"velocity":0.25984251968503935},{"duration":0.11999999999999034,"midi":66,"time":120.42,"velocity":0.33858267716535434},{"duration":0.2400000000000091,"midi":67,"time":120.47999999999999,"velocity":0.33858267716535434},{"duration":0.12000000000000455,"midi":66,"time":120.53999999999999,"velocity":0.25984251968503935},{"duration":0.23999999999999488,"midi":67,"time":120.6,"velocity":0.25984251968503935},{"duration":0.5999999999999943,"midi":62,"time":120.72,"velocity":0.33858267716535434},{"duration":0.6000000000000085,"midi":62,"time":120.83999999999999,"velocity":0.25984251968503935},{"duration":0.23999999999999488,"midi":70,"time":121.44,"velocity":0.33858267716535434},{"duration":0.23999999999999488,"midi":70,"time":121.56,"velocity":0.25984251968503935},{"duration":0.2400000000000091,"midi":58,"time":121.67999999999999,"velocity":0.33858267716535434},{"duration":0.23999999999999488,"midi":58,"time":121.8,"velocity":0.25984251968503935},{"duration":0.23999999999999488,"midi":69,"time":121.92,"velocity":0.33858267716535434},{"duration":0.2400000000000091,"midi":69,"time":122.03999999999999,"velocity":0.25984251968503935},{"duration":0.23999999999999488,"midi":60,"time":122.16,"velocity":0.33858267716535434},{"duration":0.23999999999999488,"midi":60,"time":122.28,"velocity":0.25984251968503935},{"duration":0.2400000000000091,"midi":65,"time":122.39999999999999,"velocity":0.33858267716535434},{"duration":0.23999999999999488,"midi":65,"time":122.52,"velocity":0.25984251968503935},{"duration":0.23999999999999488,"midi":60,"time":122.64,"velocity":0.33858267716535434},{"duration":0.2400000000000091,"midi":60,"time":122.75999999999999,"velocity":0.25984251968503935},{"duration":0.35999999999999943,"midi":58,"time":122.88,"velocity":0.33858267716535434},{"duration":0.35999999999999943,"midi":55,"time":122.88,"velocity":0.33858267716535434},{"duration":0.35999999999999943,"midi":58,"time":123,"velocity":0.25984251968503935},{"duration":0.35999999999999943,"midi":55,"time":123,"velocity":0.25984251968503935},{"duration":0.35999999999999943,"midi":57,"time":123.24,"velocity":0.33858267716535434},{"duration":0.35999999999999943,"midi":60,"time":123.24,"velocity":0.33858267716535434},{"duration":0.35999999999999943,"midi":60,"time":123.36,"velocity":0.25984251968503935},{"duration":0.35999999999999943,"midi":57,"time":123.36,"velocity":0.25984251968503935},{"duration":0.23999999999999488,"midi":62,"time":123.6,"velocity":0.33858267716535434},{"duration":0.23999999999999488,"midi":58,"time":123.6,"velocity":0.33858267716535434},{"duration":0.23999999999999488,"midi":58,"time":123.72,"velocity":0.25984251968503935},{"duration":0.23999999999999488,"midi":62,"time":123.72,"velocity":0.25984251968503935},{"duration":0.35999999999999943,"midi":63,"time":123.83999999999999,"velocity":0.33858267716535434},{"duration":0.35999999999999943,"midi":67,"time":123.83999999999999,"velocity":0.33858267716535434},{"duration":0.35999999999999943,"midi":63,"time":123.96,"velocity":0.25984251968503935},{"duration":0.35999999999999943,"midi":67,"time":123.96,"velocity":0.25984251968503935},{"duration":0.36000000000001364,"midi":67,"time":124.19999999999999,"velocity":0.33858267716535434},{"duration":0.36000000000001364,"midi":70,"time":124.19999999999999,"velocity":0.33858267716535434},{"duration":0.35999999999999943,"midi":67,"time":124.32,"velocity":0.25984251968503935},{"duration":0.35999999999999943,"midi":70,"time":124.32,"velocity":0.25984251968503935},{"duration":0.23999999999999488,"midi":65,"time":124.56,"velocity":0.33858267716535434},{"duration":0.23999999999999488,"midi":69,"time":124.56,"velocity":0.33858267716535434},{"duration":0.2400000000000091,"midi":69,"time":124.67999999999999,"velocity":0.25984251968503935},{"duration":0.2400000000000091,"midi":65,"time":124.67999999999999,"velocity":0.25984251968503935},{"duration":0.7199999999999989,"midi":60,"time":124.8,"velocity":0.33858267716535434},{"duration":0.7199999999999989,"midi":65,"time":124.8,"velocity":0.33858267716535434},{"duration":0.7199999999999989,"midi":60,"time":124.92,"velocity":0.25984251968503935},{"duration":0.7199999999999989,"midi":65,"time":124.92,"velocity":0.25984251968503935},{"duration":0.11999999999999034,"midi":67,"time":125.64,"velocity":0.33858267716535434},{"duration":0.12000000000000455,"midi":65,"time":125.69999999999999,"velocity":0.33858267716535434},{"duration":0.480000000000004,"midi":58,"time":125.75999999999999,"velocity":0.33858267716535434},{"duration":0.480000000000004,"midi":62,"time":125.75999999999999,"velocity":0.33858267716535434},{"duration":0.12000000000000455,"midi":67,"time":125.75999999999999,"velocity":0.25984251968503935},{"duration":0.12000000000000455,"midi":65,"time":125.82,"velocity":0.25984251968503935},{"duration":0.480000000000004,"midi":58,"time":125.88,"velocity":0.25984251968503935},{"duration":0.480000000000004,"midi":62,"time":125.88,"velocity":0.25984251968503935},{"duration":0.480000000000004,"midi":58,"time":126.24,"velocity":0.33858267716535434},{"duration":0.480000000000004,"midi":55,"time":126.24,"velocity":0.33858267716535434},{"duration":0.47999999999998977,"midi":55,"time":126.36,"velocity":0.25984251968503935},{"duration":0.47999999999998977,"midi":58,"time":126.36,"velocity":0.25984251968503935},{"duration":0.35999999999999943,"midi":57,"time":126.72,"velocity":0.33858267716535434},{"duration":0.35999999999999943,"midi":60,"time":126.72,"velocity":0.33858267716535434},{"duration":0.35999999999999943,"midi":60,"time":126.83999999999999,"velocity":0.25984251968503935},{"duration":0.35999999999999943,"midi":57,"time":126.83999999999999,"velocity":0.25984251968503935},{"duration":0.23999999999999488,"midi":58,"time":127.08,"velocity":0.33858267716535434},{"duration":0.23999999999999488,"midi":62,"time":127.08,"velocity":0.33858267716535434},{"duration":0.2400000000000091,"midi":58,"time":127.19999999999999,"velocity":0.25984251968503935},{"duration":0.2400000000000091,"midi":62,"time":127.19999999999999,"velocity":0.25984251968503935},{"duration":0.7199999999999989,"midi":58,"time":127.44,"velocity":0.33858267716535434},{"duration":0.7199999999999989,"midi":62,"time":127.44,"velocity":0.33858267716535434},{"duration":0.7199999999999989,"midi":58,"time":127.56,"velocity":0.25984251968503935},{"duration":0.7199999999999989,"midi":62,"time":127.56,"velocity":0.25984251968503935},{"duration":0.2400000000000091,"midi":55,"time":128.16,"velocity":0.33858267716535434},{"duration":0.2400000000000091,"midi":51,"time":128.16,"velocity":0.33858267716535434},{"duration":0.23999999999998067,"midi":55,"time":128.28,"velocity":0.25984251968503935},{"duration":0.23999999999998067,"midi":51,"time":128.28,"velocity":0.25984251968503935},{"duration":1.1999999999999886,"midi":55,"time":128.4,"velocity":0.33858267716535434},{"duration":1.1999999999999886,"midi":60,"time":128.4,"velocity":0.33858267716535434},{"duration":1.200000000000017,"midi":55,"time":128.51999999999998,"velocity":0.25984251968503935},{"duration":1.200000000000017,"midi":60,"time":128.51999999999998,"velocity":0.25984251968503935},{"duration":0.47999999999998977,"midi":58,"time":129.6,"velocity":0.33858267716535434},{"duration":0.47999999999998977,"midi":55,"time":129.6,"velocity":0.33858267716535434},{"duration":0.47999999999998977,"midi":55,"time":129.72,"velocity":0.25984251968503935},{"duration":0.47999999999998977,"midi":58,"time":129.72,"velocity":0.25984251968503935},{"duration":0.4800000000000182,"midi":57,"time":130.07999999999998,"velocity":0.33858267716535434},{"duration":0.4800000000000182,"midi":57,"time":130.2,"velocity":0.25984251968503935},{"duration":1.799999999999983,"midi":55,"time":130.56,"velocity":0.2047244094488189},{"duration":1.799999999999983,"midi":58,"time":130.56,"velocity":0.2047244094488189},{"duration":1.799999999999983,"midi":55,"time":130.68,"velocity":0.18110236220472442},{"duration":1.799999999999983,"midi":58,"time":130.68,"velocity":0.18110236220472442},{"duration":1.8000000000000114,"midi":62,"time":132.48,"velocity":0.2047244094488189},{"duration":1.8000000000000114,"midi":65,"time":132.48,"velocity":0.2047244094488189},{"duration":1.8000000000000114,"midi":62,"time":132.6,"velocity":0.18110236220472442},{"duration":1.8000000000000114,"midi":65,"time":132.6,"velocity":0.18110236220472442},{"duration":0.8400000000000034,"midi":67,"time":134.4,"velocity":0.2047244094488189},{"duration":0.8400000000000034,"midi":63,"time":134.4,"velocity":0.2047244094488189},{"duration":0.8400000000000034,"midi":63,"time":134.51999999999998,"velocity":0.18110236220472442},{"duration":0.8400000000000034,"midi":67,"time":134.51999999999998,"velocity":0.18110236220472442},{"duration":0.8400000000000034,"midi":69,"time":135.35999999999999,"velocity":0.2047244094488189},{"duration":0.8400000000000034,"midi":65,"time":135.35999999999999,"velocity":0.2047244094488189},{"duration":0.8400000000000034,"midi":65,"time":135.48,"velocity":0.18110236220472442},{"duration":0.8400000000000034,"midi":69,"time":135.48,"velocity":0.18110236220472442},{"duration":0.8400000000000034,"midi":70,"time":136.32,"velocity":0.2047244094488189},{"duration":0.8400000000000034,"midi":67,"time":136.32,"velocity":0.2047244094488189},{"duration":0.8400000000000034,"midi":70,"time":136.44,"velocity":0.18110236220472442},{"duration":0.8400000000000034,"midi":67,"time":136.44,"velocity":0.18110236220472442},{"duration":0.8400000000000034,"midi":69,"time":137.28,"velocity":0.2047244094488189},{"duration":0.8400000000000034,"midi":65,"time":137.28,"velocity":0.2047244094488189},{"duration":0.8400000000000034,"midi":69,"time":137.4,"velocity":0.18110236220472442},{"duration":0.8400000000000034,"midi":65,"time":137.4,"velocity":0.18110236220472442},{"duration":1.9199999999999875,"midi":62,"time":138.24,"velocity":0.2047244094488189},{"duration":1.9199999999999875,"midi":70,"time":138.24,"velocity":0.2047244094488189},{"duration":1.920000000000016,"midi":62,"time":138.35999999999999,"velocity":0.18110236220472442},{"duration":1.920000000000016,"midi":70,"time":138.35999999999999,"velocity":0.18110236220472442},{"duration":1.9199999999999875,"midi":57,"time":140.16,"velocity":0.2047244094488189},{"duration":1.9199999999999875,"midi":62,"time":140.16,"velocity":0.2047244094488189},{"duration":1.9199999999999875,"midi":69,"time":140.16,"velocity":0.2047244094488189},{"duration":1.9199999999999875,"midi":69,"time":140.28,"velocity":0.18110236220472442},{"duration":1.9199999999999875,"midi":62,"time":140.28,"velocity":0.18110236220472442},{"duration":1.9199999999999875,"midi":57,"time":140.28,"velocity":0.18110236220472442},{"duration":0.960000000000008,"midi":62,"time":142.07999999999998,"velocity":0.2047244094488189},{"duration":0.960000000000008,"midi":58,"time":142.07999999999998,"velocity":0.2047244094488189},{"duration":0.960000000000008,"midi":58,"time":142.2,"velocity":0.18110236220472442},{"duration":0.960000000000008,"midi":62,"time":142.2,"velocity":0.18110236220472442},{"duration":0.960000000000008,"midi":60,"time":143.04,"velocity":0.2047244094488189},{"duration":0.960000000000008,"midi":57,"time":143.04,"velocity":0.2047244094488189},{"duration":0.960000000000008,"midi":57,"time":143.16,"velocity":0.18110236220472442},{"duration":0.960000000000008,"midi":60,"time":143.16,"velocity":0.18110236220472442},{"duration":1.4399999999999977,"midi":58,"time":144,"velocity":0.2047244094488189},{"duration":1.4399999999999977,"midi":55,"time":144,"velocity":0.2047244094488189},{"duration":1.4399999999999977,"midi":55,"time":144.12,"velocity":0.18110236220472442},{"duration":1.4399999999999977,"midi":58,"time":144.12,"velocity":0.18110236220472442},{"duration":0.7199999999999989,"midi":77,"time":176.64,"velocity":0.3543307086614173},{"duration":0.2400000000000091,"midi":81,"time":177.35999999999999,"velocity":0.3543307086614173},{"duration":0.7199999999999989,"midi":77,"time":177.6,"velocity":0.3543307086614173},{"duration":0.2400000000000091,"midi":81,"time":178.32,"velocity":0.3543307086614173},{"duration":0.7199999999999989,"midi":77,"time":178.56,"velocity":0.3543307086614173},{"duration":0.23999999999998067,"midi":81,"time":179.28,"velocity":0.3543307086614173},{"duration":0.12000000000000455,"midi":86,"time":180,"velocity":0.31496062992125984},{"duration":0.12000000000000455,"midi":87,"time":180.23999999999998,"velocity":0.2755905511811024},{"duration":0.47999999999998977,"midi":89,"time":180.48,"velocity":0.2204724409448819},{"duration":0.47999999999998977,"midi":77,"time":180.48,"velocity":0.36220472440944884},{"duration":0.12000000000000455,"midi":79,"time":181.07999999999998,"velocity":0.3228346456692913},{"duration":0.12000000000000455,"midi":80,"time":181.14,"velocity":0.33858267716535434},{"duration":0.2400000000000091,"midi":81,"time":181.2,"velocity":0.3543307086614173},{"duration":0.5999999999999943,"midi":77,"time":181.44,"velocity":0.36220472440944884},{"duration":0.12000000000000455,"midi":80,"time":182.1,"velocity":0.3543307086614173},{"duration":0.2400000000000091,"midi":81,"time":182.16,"velocity":0.3543307086614173},{"duration":0.7199999999999989,"midi":77,"time":182.4,"velocity":0.36220472440944884},{"duration":0.23999999999998067,"midi":81,"time":183.12,"velocity":0.3543307086614173},{"duration":0.12000000000000455,"midi":94,"time":183.35999999999999,"velocity":0.3779527559055118},{"duration":0.12000000000000455,"midi":93,"time":183.6,"velocity":0.3779527559055118},{"duration":0.12000000000000455,"midi":94,"time":183.66,"velocity":0.3779527559055118},{"duration":0.12000000000000455,"midi":93,"time":183.72,"velocity":0.3779527559055118},{"duration":0.23999999999998067,"midi":91,"time":183.84,"velocity":0.3779527559055118},{"duration":0.2400000000000091,"midi":93,"time":184.07999999999998,"velocity":0.3779527559055118},{"duration":0.7199999999999989,"midi":94,"time":184.32,"velocity":0.3779527559055118},{"duration":0.12000000000000455,"midi":92,"time":184.98,"velocity":0.3779527559055118},{"duration":0.2400000000000091,"midi":93,"time":185.04,"velocity":0.3779527559055118},{"duration":0.7199999999999989,"midi":89,"time":185.28,"velocity":0.3779527559055118},{"duration":0.7199999999999989,"midi":82,"time":185.28,"velocity":0.3779527559055118},{"duration":0.23999999999998067,"midi":87,"time":186,"velocity":0.3779527559055118},{"duration":0.7199999999999989,"midi":82,"time":186.23999999999998,"velocity":0.3779527559055118},{"duration":0.7199999999999989,"midi":86,"time":186.23999999999998,"velocity":0.3779527559055118},{"duration":0.2400000000000091,"midi":84,"time":186.95999999999998,"velocity":0.3779527559055118},{"duration":0.2400000000000091,"midi":82,"time":187.2,"velocity":0.3779527559055118},{"duration":0.2400000000000091,"midi":84,"time":187.44,"velocity":0.3779527559055118},{"duration":0.23999999999998067,"midi":86,"time":187.68,"velocity":0.3779527559055118},{"duration":0.2400000000000091,"midi":87,"time":187.92,"velocity":0.3779527559055118},{"duration":0.7199999999999989,"midi":82,"time":188.16,"velocity":0.3779527559055118},{"duration":0.7199999999999989,"midi":89,"time":188.16,"velocity":0.3779527559055118},{"duration":0.7199999999999989,"midi":84,"time":189.12,"velocity":0.3779527559055118},{"duration":0.7199999999999989,"midi":91,"time":189.12,"velocity":0.3779527559055118},{"duration":0.7199999999999989,"midi":86,"time":190.07999999999998,"velocity":0.3779527559055118},{"duration":0.7199999999999989,"midi":93,"time":190.07999999999998,"velocity":0.3779527559055118},{"duration":0.12000000000000455,"midi":94,"time":191.04,"velocity":0.3779527559055118},{"duration":0.12000000000000455,"midi":93,"time":191.28,"velocity":0.3779527559055118},{"duration":0.11999999999997613,"midi":94,"time":191.34,"velocity":0.3779527559055118},{"duration":0.11999999999997613,"midi":93,"time":191.4,"velocity":0.3779527559055118},{"duration":0.2400000000000091,"midi":91,"time":191.51999999999998,"velocity":0.3779527559055118},{"duration":0.2400000000000091,"midi":93,"time":191.76,"velocity":0.3779527559055118},{"duration":0.7199999999999989,"midi":77,"time":192,"velocity":0.3543307086614173},{"duration":0.23999999999998067,"midi":81,"time":192.72,"velocity":0.3543307086614173},{"duration":0.7200000000000273,"midi":77,"time":192.95999999999998,"velocity":0.3543307086614173},{"duration":0.23999999999998067,"midi":81,"time":193.68,"velocity":0.3543307086614173},{"duration":0.7199999999999989,"midi":77,"time":193.92,"velocity":0.3543307086614173},{"duration":0.2400000000000091,"midi":81,"time":194.64,"velocity":0.3543307086614173},{"duration":0.12000000000000455,"midi":86,"time":195.35999999999999,"velocity":0.31496062992125984},{"duration":0.12000000000000455,"midi":87,"time":195.6,"velocity":0.2755905511811024},{"duration":0.47999999999998977,"midi":77,"time":195.84,"velocity":0.36220472440944884},{"duration":0.47999999999998977,"midi":89,"time":195.84,"velocity":0.2204724409448819},{"duration":0.12000000000000455,"midi":79,"time":196.44,"velocity":0.3228346456692913},{"duration":0.12000000000000455,"midi":80,"time":196.5,"velocity":0.33858267716535434},{"duration":0.23999999999998067,"midi":81,"time":196.56,"velocity":0.3543307086614173},{"duration":0.6000000000000227,"midi":77,"time":196.79999999999998,"velocity":0.36220472440944884},{"duration":0.12000000000000455,"midi":80,"time":197.45999999999998,"velocity":0.3543307086614173},{"duration":0.2400000000000091,"midi":81,"time":197.51999999999998,"velocity":0.3543307086614173},{"duration":0.7199999999999989,"midi":77,"time":197.76,"velocity":0.36220472440944884},{"duration":0.2400000000000091,"midi":81,"time":198.48,"velocity":0.3543307086614173},{"duration":0.12000000000000455,"midi":94,"time":198.72,"velocity":0.3779527559055118},{"duration":0.12000000000000455,"midi":93,"time":198.95999999999998,"velocity":0.3779527559055118},{"duration":0.12000000000000455,"midi":94,"time":199.01999999999998,"velocity":0.3779527559055118},{"duration":0.12000000000000455,"midi":93,"time":199.07999999999998,"velocity":0.3779527559055118},{"duration":0.2400000000000091,"midi":91,"time":199.2,"velocity":0.3779527559055118},{"duration":0.2400000000000091,"midi":93,"time":199.44,"velocity":0.3779527559055118},{"duration":0.7199999999999989,"midi":94,"time":199.68,"velocity":0.3779527559055118},{"duration":0.11999999999997613,"midi":92,"time":200.34,"velocity":0.3779527559055118},{"duration":0.23999999999998067,"midi":93,"time":200.4,"velocity":0.3779527559055118},{"duration":0.7199999999999989,"midi":89,"time":200.64,"velocity":0.3779527559055118},{"duration":0.7199999999999989,"midi":82,"time":200.64,"velocity":0.3779527559055118},{"duration":0.2400000000000091,"midi":87,"time":201.35999999999999,"velocity":0.3779527559055118},{"duration":0.7199999999999989,"midi":86,"time":201.6,"velocity":0.3779527559055118},{"duration":0.7199999999999989,"midi":82,"time":201.6,"velocity":0.3779527559055118},{"duration":0.2400000000000091,"midi":84,"time":202.32,"velocity":0.3779527559055118},{"duration":0.23999999999998067,"midi":82,"time":202.56,"velocity":0.3779527559055118},{"duration":0.2400000000000091,"midi":84,"time":202.79999999999998,"velocity":0.3779527559055118},{"duration":0.2400000000000091,"midi":86,"time":203.04,"velocity":0.3779527559055118},{"duration":0.23999999999998067,"midi":87,"time":203.28,"velocity":0.3779527559055118},{"duration":0.7199999999999989,"midi":89,"time":203.51999999999998,"velocity":0.3779527559055118},{"duration":0.7199999999999989,"midi":82,"time":203.51999999999998,"velocity":0.3779527559055118},{"duration":0.7199999999999989,"midi":91,"time":204.48,"velocity":0.3779527559055118},{"duration":0.7199999999999989,"midi":84,"time":204.48,"velocity":0.3779527559055118},{"duration":0.7199999999999989,"midi":86,"time":205.44,"velocity":0.3779527559055118},{"duration":0.7199999999999989,"midi":93,"time":205.44,"velocity":0.3779527559055118},{"duration":0.11999999999997613,"midi":94,"time":206.4,"velocity":0.3779527559055118},{"duration":0.12000000000000455,"midi":93,"time":206.64,"velocity":0.3779527559055118},{"duration":0.12000000000000455,"midi":94,"time":206.7,"velocity":0.3779527559055118},{"duration":0.12000000000000455,"midi":93,"time":206.76,"velocity":0.3779527559055118},{"duration":0.2400000000000091,"midi":91,"time":206.88,"velocity":0.3779527559055118},{"duration":0.23999999999998067,"midi":93,"time":207.12,"velocity":0.3779527559055118},{"duration":0.2400000000000091,"midi":65,"time":221.51999999999998,"velocity":0.2047244094488189},{"duration":0.2400000000000091,"midi":77,"time":221.51999999999998,"velocity":0.14960629921259844},{"duration":0.2400000000000091,"midi":70,"time":221.76,"velocity":0.2283464566929134},{"duration":0.2400000000000091,"midi":82,"time":221.76,"velocity":0.1732283464566929},{"duration":0.23999999999998067,"midi":84,"time":222,"velocity":0.1889763779527559},{"duration":0.23999999999998067,"midi":72,"time":222,"velocity":0.25196850393700787},{"duration":0.2400000000000091,"midi":74,"time":222.23999999999998,"velocity":0.28346456692913385},{"duration":0.2400000000000091,"midi":86,"time":222.23999999999998,"velocity":0.2125984251968504},{"duration":0.2400000000000091,"midi":87,"time":222.48,"velocity":0.2204724409448819},{"duration":0.2400000000000091,"midi":75,"time":222.48,"velocity":0.2992125984251969},{"duration":0.12000000000000455,"midi":89,"time":222.72,"velocity":0.23622047244094488},{"duration":0.12000000000000455,"midi":77,"time":222.72,"velocity":0.3228346456692913},{"duration":0.12000000000000455,"midi":89,"time":222.95999999999998,"velocity":0.23622047244094488},{"duration":0.12000000000000455,"midi":77,"time":222.95999999999998,"velocity":0.3228346456692913},{"duration":0.12000000000000455,"midi":89,"time":223.2,"velocity":0.23622047244094488},{"duration":0.12000000000000455,"midi":77,"time":223.2,"velocity":0.3228346456692913},{"duration":0.12000000000000455,"midi":77,"time":223.44,"velocity":0.3228346456692913},{"duration":0.12000000000000455,"midi":89,"time":223.44,"velocity":0.23622047244094488},{"duration":0.4800000000000182,"midi":77,"time":223.67999999999998,"velocity":0.3228346456692913},{"duration":0.4800000000000182,"midi":89,"time":223.67999999999998,"velocity":0.23622047244094488},{"duration":0.2400000000000091,"midi":82,"time":224.16,"velocity":0.23622047244094488},{"duration":0.2400000000000091,"midi":70,"time":224.16,"velocity":0.3228346456692913},{"duration":0.23999999999998067,"midi":86,"time":224.4,"velocity":0.23622047244094488},{"duration":0.23999999999998067,"midi":74,"time":224.4,"velocity":0.3228346456692913},{"duration":0.12000000000000455,"midi":84,"time":224.64,"velocity":0.23622047244094488},{"duration":0.12000000000000455,"midi":72,"time":224.64,"velocity":0.3228346456692913},{"duration":0.12000000000000455,"midi":84,"time":224.88,"velocity":0.23622047244094488},{"duration":0.12000000000000455,"midi":72,"time":224.88,"velocity":0.3228346456692913},{"duration":0.11999999999997613,"midi":84,"time":225.12,"velocity":0.23622047244094488},{"duration":0.11999999999997613,"midi":72,"time":225.12,"velocity":0.3228346456692913},{"duration":0.12000000000000455,"midi":84,"time":225.35999999999999,"velocity":0.23622047244094488},{"duration":0.12000000000000455,"midi":72,"time":225.35999999999999,"velocity":0.3228346456692913},{"duration":0.7199999999999989,"midi":84,"time":225.6,"velocity":0.23622047244094488},{"duration":0.7199999999999989,"midi":72,"time":225.6,"velocity":0.3228346456692913},{"duration":0.12000000000000455,"midi":74,"time":226.32,"velocity":0.3228346456692913},{"duration":0.12000000000000455,"midi":86,"time":226.32,"velocity":0.23622047244094488},{"duration":0.12000000000000455,"midi":84,"time":226.44,"velocity":0.23622047244094488},{"duration":0.12000000000000455,"midi":72,"time":226.44,"velocity":0.3228346456692913},{"duration":0.11999999999997613,"midi":82,"time":226.56,"velocity":0.23622047244094488},{"duration":0.11999999999997613,"midi":70,"time":226.56,"velocity":0.3228346456692913},{"duration":0.12000000000000455,"midi":70,"time":226.79999999999998,"velocity":0.3228346456692913},{"duration":0.12000000000000455,"midi":82,"time":226.79999999999998,"velocity":0.23622047244094488},{"duration":0.12000000000000455,"midi":82,"time":227.04,"velocity":0.23622047244094488},{"duration":0.12000000000000455,"midi":70,"time":227.04,"velocity":0.3228346456692913},{"duration":0.12000000000000455,"midi":70,"time":227.28,"velocity":0.3228346456692913},{"duration":0.12000000000000455,"midi":82,"time":227.28,"velocity":0.23622047244094488},{"duration":0.4800000000000182,"midi":82,"time":227.51999999999998,"velocity":0.23622047244094488},{"duration":0.4800000000000182,"midi":70,"time":227.51999999999998,"velocity":0.3228346456692913},{"duration":0.23999999999998067,"midi":81,"time":228,"velocity":0.3228346456692913},{"duration":0.23999999999998067,"midi":93,"time":228,"velocity":0.23622047244094488},{"duration":0.2400000000000091,"midi":82,"time":228.23999999999998,"velocity":0.3228346456692913},{"duration":0.2400000000000091,"midi":94,"time":228.23999999999998,"velocity":0.23622047244094488},{"duration":0.7199999999999989,"midi":81,"time":228.48,"velocity":0.3228346456692913},{"duration":0.7199999999999989,"midi":93,"time":228.48,"velocity":0.23622047244094488},{"duration":0.2400000000000091,"midi":77,"time":229.2,"velocity":0.3228346456692913},{"duration":0.2400000000000091,"midi":89,"time":229.2,"velocity":0.23622047244094488},{"duration":0.7199999999999989,"midi":86,"time":229.44,"velocity":0.23622047244094488},{"duration":0.7199999999999989,"midi":74,"time":229.44,"velocity":0.3228346456692913},{"duration":0.12000000000000455,"midi":74,"time":230.16,"velocity":0.3228346456692913},{"duration":0.12000000000000455,"midi":86,"time":230.16,"velocity":0.23622047244094488},{"duration":0.11999999999997613,"midi":87,"time":230.28,"velocity":0.23622047244094488},{"duration":0.11999999999997613,"midi":75,"time":230.28,"velocity":0.3228346456692913},{"duration":0.12000000000000455,"midi":77,"time":230.39999999999998,"velocity":0.3228346456692913},{"duration":0.12000000000000455,"midi":89,"time":230.39999999999998,"velocity":0.23622047244094488},{"duration":0.12000000000000455,"midi":77,"time":230.64,"velocity":0.3228346456692913},{"duration":0.12000000000000455,"midi":89,"time":230.64,"velocity":0.23622047244094488},{"duration":0.12000000000000455,"midi":77,"time":230.88,"velocity":0.3228346456692913},{"duration":0.12000000000000455,"midi":89,"time":230.88,"velocity":0.23622047244094488},{"duration":0.11999999999997613,"midi":89,"time":231.12,"velocity":0.23622047244094488},{"duration":0.11999999999997613,"midi":77,"time":231.12,"velocity":0.3228346456692913},{"duration":0.4800000000000182,"midi":89,"time":231.35999999999999,"velocity":0.23622047244094488},{"duration":0.4800000000000182,"midi":77,"time":231.35999999999999,"velocity":0.3228346456692913},{"duration":0.23999999999998067,"midi":70,"time":231.84,"velocity":0.3228346456692913},{"duration":0.23999999999998067,"midi":82,"time":231.84,"velocity":0.23622047244094488},{"duration":0.2400000000000091,"midi":86,"time":232.07999999999998,"velocity":0.23622047244094488},{"duration":0.2400000000000091,"midi":74,"time":232.07999999999998,"velocity":0.3228346456692913},{"duration":0.12000000000000455,"midi":72,"time":232.32,"velocity":0.3228346456692913},{"duration":0.12000000000000455,"midi":84,"time":232.32,"velocity":0.23622047244094488},{"duration":0.11999999999997613,"midi":84,"time":232.56,"velocity":0.23622047244094488},{"duration":0.11999999999997613,"midi":72,"time":232.56,"velocity":0.3228346456692913},{"duration":0.12000000000000455,"midi":84,"time":232.79999999999998,"velocity":0.23622047244094488},{"duration":0.12000000000000455,"midi":72,"time":232.79999999999998,"velocity":0.3228346456692913},{"duration":0.12000000000000455,"midi":72,"time":233.04,"velocity":0.3228346456692913},{"duration":0.12000000000000455,"midi":84,"time":233.04,"velocity":0.23622047244094488},{"duration":0.47999999999998977,"midi":84,"time":233.28,"velocity":0.23622047244094488},{"duration":0.47999999999998977,"midi":72,"time":233.28,"velocity":0.3228346456692913},{"duration":0.2400000000000091,"midi":74,"time":233.76,"velocity":0.3228346456692913},{"duration":0.2400000000000091,"midi":86,"time":233.76,"velocity":0.23622047244094488},{"duration":0.23999999999998067,"midi":84,"time":234,"velocity":0.23622047244094488},{"duration":0.23999999999998067,"midi":72,"time":234,"velocity":0.3228346456692913},{"duration":0.12000000000000455,"midi":86,"time":234.23999999999998,"velocity":0.23622047244094488},{"duration":0.12000000000000455,"midi":74,"time":234.23999999999998,"velocity":0.3228346456692913},{"duration":0.12000000000000455,"midi":86,"time":234.48,"velocity":0.23622047244094488},{"duration":0.12000000000000455,"midi":74,"time":234.48,"velocity":0.3228346456692913},{"duration":0.12000000000000455,"midi":86,"time":234.72,"velocity":0.23622047244094488},{"duration":0.12000000000000455,"midi":74,"time":234.72,"velocity":0.3228346456692913},{"duration":0.12000000000000455,"midi":74,"time":234.95999999999998,"velocity":0.3228346456692913},{"duration":0.12000000000000455,"midi":86,"time":234.95999999999998,"velocity":0.23622047244094488},{"duration":0.47999999999998977,"midi":74,"time":235.2,"velocity":0.3228346456692913},{"duration":0.47999999999998977,"midi":86,"time":235.2,"velocity":0.23622047244094488},{"duration":0.2400000000000091,"midi":87,"time":235.67999999999998,"velocity":0.23622047244094488},{"duration":0.2400000000000091,"midi":75,"time":235.67999999999998,"velocity":0.3228346456692913},{"duration":0.2400000000000091,"midi":86,"time":235.92,"velocity":0.23622047244094488},{"duration":0.2400000000000091,"midi":74,"time":235.92,"velocity":0.3228346456692913},{"duration":0.7199999999999989,"midi":72,"time":236.16,"velocity":0.3228346456692913},{"duration":0.7199999999999989,"midi":84,"time":236.16,"velocity":0.23622047244094488},{"duration":0.2400000000000091,"midi":65,"time":236.88,"velocity":0.3228346456692913},{"duration":0.2400000000000091,"midi":77,"time":236.88,"velocity":0.23622047244094488},{"duration":0.2400000000000091,"midi":62,"time":236.88,"velocity":0.3228346456692913},{"duration":0.23999999999998067,"midi":67,"time":237.12,"velocity":0.3228346456692913},{"duration":0.23999999999998067,"midi":82,"time":237.12,"velocity":0.23622047244094488},{"duration":0.23999999999998067,"midi":70,"time":237.12,"velocity":0.3228346456692913},{"duration":0.2400000000000091,"midi":84,"time":237.35999999999999,"velocity":0.23622047244094488},{"duration":0.2400000000000091,"midi":69,"time":237.35999999999999,"velocity":0.3228346456692913},{"duration":0.2400000000000091,"midi":72,"time":237.35999999999999,"velocity":0.3228346456692913},{"duration":0.2400000000000091,"midi":86,"time":237.6,"velocity":0.23622047244094488},{"duration":0.2400000000000091,"midi":70,"time":237.6,"velocity":0.3228346456692913},{"duration":0.2400000000000091,"midi":74,"time":237.6,"velocity":0.3228346456692913},{"duration":0.23999999999998067,"midi":87,"time":237.84,"velocity":0.23622047244094488},{"duration":0.23999999999998067,"midi":72,"time":237.84,"velocity":0.3228346456692913},{"duration":0.23999999999998067,"midi":75,"time":237.84,"velocity":0.3228346456692913},{"duration":0.12000000000000455,"midi":77,"time":238.07999999999998,"velocity":0.3228346456692913},{"duration":0.12000000000000455,"midi":74,"time":238.07999999999998,"velocity":0.3228346456692913},{"duration":0.12000000000000455,"midi":89,"time":238.07999999999998,"velocity":0.23622047244094488},{"duration":0.12000000000000455,"midi":89,"time":238.32,"velocity":0.23622047244094488},{"duration":0.12000000000000455,"midi":77,"time":238.32,"velocity":0.3228346456692913},{"duration":0.12000000000000455,"midi":74,"time":238.32,"velocity":0.3228346456692913},{"duration":0.11999999999997613,"midi":72,"time":238.56,"velocity":0.3228346456692913},{"duration":0.11999999999997613,"midi":89,"time":238.56,"velocity":0.23622047244094488},{"duration":0.11999999999997613,"midi":77,"time":238.56,"velocity":0.3228346456692913},{"duration":0.12000000000000455,"midi":77,"time":238.79999999999998,"velocity":0.3228346456692913},{"duration":0.12000000000000455,"midi":72,"time":238.79999999999998,"velocity":0.3228346456692913},{"duration":0.12000000000000455,"midi":89,"time":238.79999999999998,"velocity":0.23622047244094488},{"duration":0.47999999999998977,"midi":77,"time":239.04,"velocity":0.3228346456692913},{"duration":0.47999999999998977,"midi":70,"time":239.04,"velocity":0.3228346456692913},{"duration":0.47999999999998977,"midi":89,"time":239.04,"velocity":0.23622047244094488},{"duration":0.2400000000000091,"midi":67,"time":239.51999999999998,"velocity":0.3228346456692913},{"duration":0.2400000000000091,"midi":70,"time":239.51999999999998,"velocity":0.3228346456692913},{"duration":0.2400000000000091,"midi":82,"time":239.51999999999998,"velocity":0.23622047244094488},{"duration":0.2400000000000091,"midi":86,"time":239.76,"velocity":0.23622047244094488},{"duration":0.2400000000000091,"midi":74,"time":239.76,"velocity":0.3228346456692913},{"duration":0.2400000000000091,"midi":70,"time":239.76,"velocity":0.3228346456692913},{"duration":0.12000000000000455,"midi":84,"time":240,"velocity":0.23622047244094488},{"duration":0.12000000000000455,"midi":69,"time":240,"velocity":0.3228346456692913},{"duration":0.12000000000000455,"midi":72,"time":240,"velocity":0.3228346456692913},{"duration":0.12000000000000455,"midi":84,"time":240.23999999999998,"velocity":0.23622047244094488},{"duration":0.12000000000000455,"midi":72,"time":240.23999999999998,"velocity":0.3228346456692913},{"duration":0.12000000000000455,"midi":69,"time":240.23999999999998,"velocity":0.3228346456692913},{"duration":0.12000000000000455,"midi":84,"time":240.48,"velocity":0.23622047244094488},{"duration":0.12000000000000455,"midi":72,"time":240.48,"velocity":0.3228346456692913},{"duration":0.12000000000000455,"midi":67,"time":240.48,"velocity":0.3228346456692913},{"duration":0.12000000000000455,"midi":84,"time":240.72,"velocity":0.23622047244094488},{"duration":0.12000000000000455,"midi":72,"time":240.72,"velocity":0.3228346456692913},{"duration":0.12000000000000455,"midi":67,"time":240.72,"velocity":0.3228346456692913},{"duration":0.7199999999999989,"midi":65,"time":240.95999999999998,"velocity":0.3228346456692913},{"duration":0.7199999999999989,"midi":72,"time":240.95999999999998,"velocity":0.3228346456692913},{"duration":0.7199999999999989,"midi":84,"time":240.95999999999998,"velocity":0.23622047244094488},{"duration":0.12000000000000455,"midi":74,"time":241.67999999999998,"velocity":0.3228346456692913},{"duration":0.12000000000000455,"midi":70,"time":241.67999999999998,"velocity":0.3228346456692913},{"duration":0.12000000000000455,"midi":86,"time":241.67999999999998,"velocity":0.23622047244094488},{"duration":0.12000000000000455,"midi":72,"time":241.79999999999998,"velocity":0.3228346456692913},{"duration":0.12000000000000455,"midi":69,"time":241.79999999999998,"velocity":0.3228346456692913},{"duration":0.12000000000000455,"midi":84,"time":241.79999999999998,"velocity":0.23622047244094488},{"duration":0.12000000000000455,"midi":82,"time":241.92,"velocity":0.23622047244094488},{"duration":0.12000000000000455,"midi":70,"time":241.92,"velocity":0.3228346456692913},{"duration":0.12000000000000455,"midi":67,"time":241.92,"velocity":0.3228346456692913},{"duration":0.12000000000000455,"midi":82,"time":242.16,"velocity":0.23622047244094488},{"duration":0.12000000000000455,"midi":67,"time":242.16,"velocity":0.3228346456692913},{"duration":0.12000000000000455,"midi":70,"time":242.16,"velocity":0.3228346456692913},{"duration":0.12000000000000455,"midi":82,"time":242.39999999999998,"velocity":0.23622047244094488},{"duration":0.12000000000000455,"midi":70,"time":242.39999999999998,"velocity":0.3228346456692913},{"duration":0.12000000000000455,"midi":65,"time":242.39999999999998,"velocity":0.3228346456692913},{"duration":0.12000000000000455,"midi":82,"time":242.64,"velocity":0.23622047244094488},{"duration":0.12000000000000455,"midi":70,"time":242.64,"velocity":0.3228346456692913},{"duration":0.12000000000000455,"midi":65,"time":242.64,"velocity":0.3228346456692913},{"duration":0.47999999999998977,"midi":62,"time":242.88,"velocity":0.3228346456692913},{"duration":0.47999999999998977,"midi":70,"time":242.88,"velocity":0.3228346456692913},{"duration":0.47999999999998977,"midi":82,"time":242.88,"velocity":0.23622047244094488},{"duration":0.2400000000000091,"midi":93,"time":243.35999999999999,"velocity":0.23622047244094488},{"duration":0.2400000000000091,"midi":81,"time":243.35999999999999,"velocity":0.3228346456692913},{"duration":0.2400000000000091,"midi":77,"time":243.35999999999999,"velocity":0.3228346456692913},{"duration":0.2400000000000091,"midi":94,"time":243.6,"velocity":0.23622047244094488},{"duration":0.2400000000000091,"midi":79,"time":243.6,"velocity":0.3228346456692913},{"duration":0.2400000000000091,"midi":82,"time":243.6,"velocity":0.3228346456692913},{"duration":0.7199999999999989,"midi":77,"time":243.84,"velocity":0.3228346456692913},{"duration":0.7199999999999989,"midi":93,"time":243.84,"velocity":0.23622047244094488},{"duration":0.7199999999999989,"midi":81,"time":243.84,"velocity":0.3228346456692913},{"duration":0.23999999999998067,"midi":72,"time":244.56,"velocity":0.3228346456692913},{"duration":0.23999999999998067,"midi":89,"time":244.56,"velocity":0.23622047244094488},{"duration":0.23999999999998067,"midi":77,"time":244.56,"velocity":0.3228346456692913},{"duration":0.7199999999999989,"midi":86,"time":244.79999999999998,"velocity":0.23622047244094488},{"duration":0.7199999999999989,"midi":69,"time":244.79999999999998,"velocity":0.3228346456692913},{"duration":0.7199999999999989,"midi":74,"time":244.79999999999998,"velocity":0.3228346456692913},{"duration":0.12000000000000455,"midi":70,"time":245.51999999999998,"velocity":0.3228346456692913},{"duration":0.12000000000000455,"midi":74,"time":245.51999999999998,"velocity":0.3228346456692913},{"duration":0.12000000000000455,"midi":86,"time":245.51999999999998,"velocity":0.23622047244094488},{"duration":0.12000000000000455,"midi":72,"time":245.64,"velocity":0.3228346456692913},{"duration":0.12000000000000455,"midi":75,"time":245.64,"velocity":0.3228346456692913},{"duration":0.12000000000000455,"midi":87,"time":245.64,"velocity":0.23622047244094488},{"duration":0.12000000000000455,"midi":74,"time":245.76,"velocity":0.3228346456692913},{"duration":0.12000000000000455,"midi":77,"time":245.76,"velocity":0.3228346456692913},{"duration":0.12000000000000455,"midi":89,"time":245.76,"velocity":0.23622047244094488},{"duration":0.12000000000000455,"midi":77,"time":246,"velocity":0.3228346456692913},{"duration":0.12000000000000455,"midi":74,"time":246,"velocity":0.3228346456692913},{"duration":0.12000000000000455,"midi":89,"time":246,"velocity":0.23622047244094488},{"duration":0.12000000000000455,"midi":72,"time":246.23999999999998,"velocity":0.3228346456692913},{"duration":0.12000000000000455,"midi":89,"time":246.23999999999998,"velocity":0.23622047244094488},{"duration":0.12000000000000455,"midi":77,"time":246.23999999999998,"velocity":0.3228346456692913},{"duration":0.12000000000000455,"midi":72,"time":246.48,"velocity":0.3228346456692913},{"duration":0.12000000000000455,"midi":77,"time":246.48,"velocity":0.3228346456692913},{"duration":0.12000000000000455,"midi":89,"time":246.48,"velocity":0.23622047244094488},{"duration":0.47999999999998977,"midi":89,"time":246.72,"velocity":0.23622047244094488},{"duration":0.47999999999998977,"midi":70,"time":246.72,"velocity":0.3228346456692913},{"duration":0.47999999999998977,"midi":77,"time":246.72,"velocity":0.3228346456692913},{"duration":0.2400000000000091,"midi":70,"time":247.2,"velocity":0.3228346456692913},{"duration":0.2400000000000091,"midi":67,"time":247.2,"velocity":0.3228346456692913},{"duration":0.2400000000000091,"midi":82,"time":247.2,"velocity":0.23622047244094488},{"duration":0.23999999999998067,"midi":86,"time":247.44,"velocity":0.23622047244094488},{"duration":0.23999999999998067,"midi":70,"time":247.44,"velocity":0.3228346456692913},{"duration":0.23999999999998067,"midi":74,"time":247.44,"velocity":0.3228346456692913},{"duration":0.12000000000000455,"midi":72,"time":247.67999999999998,"velocity":0.3228346456692913},{"duration":0.12000000000000455,"midi":69,"time":247.67999999999998,"velocity":0.3228346456692913},{"duration":0.12000000000000455,"midi":84,"time":247.67999999999998,"velocity":0.23622047244094488},{"duration":0.12000000000000455,"midi":72,"time":247.92,"velocity":0.3228346456692913},{"duration":0.12000000000000455,"midi":69,"time":247.92,"velocity":0.3228346456692913},{"duration":0.12000000000000455,"midi":84,"time":247.92,"velocity":0.23622047244094488},{"duration":0.12000000000000455,"midi":72,"time":248.16,"velocity":0.3228346456692913},{"duration":0.12000000000000455,"midi":84,"time":248.16,"velocity":0.23622047244094488},{"duration":0.12000000000000455,"midi":67,"time":248.16,"velocity":0.3228346456692913},{"duration":0.12000000000000455,"midi":72,"time":248.39999999999998,"velocity":0.3228346456692913},{"duration":0.12000000000000455,"midi":67,"time":248.39999999999998,"velocity":0.3228346456692913},{"duration":0.12000000000000455,"midi":84,"time":248.39999999999998,"velocity":0.23622047244094488},{"duration":0.4800000000000182,"midi":72,"time":248.64,"velocity":0.3228346456692913},{"duration":0.4800000000000182,"midi":84,"time":248.64,"velocity":0.23622047244094488},{"duration":0.4800000000000182,"midi":65,"time":248.64,"velocity":0.3228346456692913},{"duration":0.23999999999998067,"midi":86,"time":249.12,"velocity":0.23622047244094488},{"duration":0.23999999999998067,"midi":74,"time":249.12,"velocity":0.3228346456692913},{"duration":0.23999999999998067,"midi":70,"time":249.12,"velocity":0.3228346456692913},{"duration":0.2400000000000091,"midi":72,"time":249.35999999999999,"velocity":0.3228346456692913},{"duration":0.2400000000000091,"midi":57,"time":249.35999999999999,"velocity":0.3228346456692913},{"duration":0.2400000000000091,"midi":69,"time":249.35999999999999,"velocity":0.3228346456692913},{"duration":0.2400000000000091,"midi":84,"time":249.35999999999999,"velocity":0.23622047244094488},{"duration":0.7199999999999989,"midi":58,"time":249.6,"velocity":0.3228346456692913},{"duration":0.7199999999999989,"midi":82,"time":249.6,"velocity":0.23622047244094488},{"duration":0.7199999999999989,"midi":67,"time":249.6,"velocity":0.3228346456692913},{"duration":0.7199999999999989,"midi":70,"time":249.6,"velocity":0.3228346456692913},{"duration":0.2400000000000091,"midi":77,"time":250.32,"velocity":0.23622047244094488},{"duration":0.2400000000000091,"midi":65,"time":250.32,"velocity":0.3228346456692913},{"duration":0.2400000000000091,"midi":58,"time":250.32,"velocity":0.3228346456692913},{"duration":0.23999999999998067,"midi":58,"time":250.56,"velocity":0.3228346456692913},{"duration":0.23999999999998067,"midi":86,"time":250.56,"velocity":0.23622047244094488},{"duration":0.23999999999998067,"midi":74,"time":250.56,"velocity":0.3228346456692913},{"duration":0.2400000000000091,"midi":60,"time":250.79999999999998,"velocity":0.3228346456692913},{"duration":0.2400000000000091,"midi":75,"time":250.79999999999998,"velocity":0.3228346456692913},{"duration":0.2400000000000091,"midi":87,"time":250.79999999999998,"velocity":0.23622047244094488},{"duration":0.3599999999999852,"midi":84,"time":251.04,"velocity":0.23622047244094488},{"duration":0.3599999999999852,"midi":65,"time":251.04,"velocity":0.3228346456692913},{"duration":0.3599999999999852,"midi":72,"time":251.04,"velocity":0.3228346456692913},{"duration":0.12000000000000455,"midi":70,"time":251.39999999999998,"velocity":0.3228346456692913},{"duration":0.12000000000000455,"midi":82,"time":251.39999999999998,"velocity":0.23622047244094488},{"duration":0.12000000000000455,"midi":58,"time":251.39999999999998,"velocity":0.25196850393700787},{"duration":0.12000000000000455,"midi":63,"time":251.39999999999998,"velocity":0.3228346456692913},{"duration":1.4399999999999977,"midi":70,"time":251.51999999999998,"velocity":0.3228346456692913},{"duration":1.4399999999999977,"midi":62,"time":251.51999999999998,"velocity":0.3228346456692913},{"duration":1.4399999999999977,"midi":82,"time":251.51999999999998,"velocity":0.23622047244094488},{"duration":1.4399999999999977,"midi":58,"time":251.51999999999998,"velocity":0.25196850393700787},{"duration":1.079999999999984,"midi":58,"time":261.12,"velocity":0.33858267716535434},{"duration":1.079999999999984,"midi":58,"time":261.24,"velocity":0.25984251968503935},{"duration":0.2400000000000091,"midi":62,"time":262.32,"velocity":0.33858267716535434},{"duration":0.2400000000000091,"midi":62,"time":262.44,"velocity":0.25984251968503935},{"duration":0.2400000000000091,"midi":53,"time":262.56,"velocity":0.33858267716535434},{"duration":0.2400000000000091,"midi":53,"time":262.68,"velocity":0.25984251968503935},{"duration":0.5999999999999659,"midi":60,"time":262.8,"velocity":0.33858267716535434},{"duration":0.5999999999999659,"midi":60,"time":262.92,"velocity":0.25984251968503935},{"duration":0.12000000000000455,"midi":62,"time":263.4,"velocity":0.33858267716535434},{"duration":0.12000000000000455,"midi":60,"time":263.46,"velocity":0.33858267716535434},{"duration":0.12000000000000455,"midi":62,"time":263.52,"velocity":0.25984251968503935},{"duration":0.36000000000001364,"midi":58,"time":263.52,"velocity":0.33858267716535434},{"duration":0.12000000000000455,"midi":60,"time":263.58,"velocity":0.25984251968503935},{"duration":0.36000000000001364,"midi":58,"time":263.64,"velocity":0.25984251968503935},{"duration":0.36000000000001364,"midi":58,"time":264,"velocity":0.33858267716535434},{"duration":0.36000000000001364,"midi":58,"time":264.12,"velocity":0.25984251968503935},{"duration":0.3599999999999568,"midi":57,"time":264.48,"velocity":0.33858267716535434},{"duration":0.36000000000001364,"midi":57,"time":264.59999999999997,"velocity":0.25984251968503935},{"duration":0.36000000000001364,"midi":57,"time":264.96,"velocity":0.33858267716535434},{"duration":0.36000000000001364,"midi":57,"time":265.08,"velocity":0.25984251968503935},{"duration":0.36000000000001364,"midi":58,"time":265.32,"velocity":0.33858267716535434},{"duration":0.36000000000001364,"midi":58,"time":265.44,"velocity":0.25984251968503935},{"duration":0.5999999999999659,"midi":65,"time":265.68,"velocity":0.33858267716535434},{"duration":0.5999999999999659,"midi":65,"time":265.8,"velocity":0.25984251968503935},{"duration":0.12000000000000455,"midi":66,"time":266.34,"velocity":0.33858267716535434},{"duration":0.2400000000000091,"midi":67,"time":266.4,"velocity":0.33858267716535434},{"duration":0.12000000000000455,"midi":66,"time":266.46,"velocity":0.25984251968503935},{"duration":0.2400000000000091,"midi":67,"time":266.52,"velocity":0.25984251968503935},{"duration":0.6000000000000227,"midi":62,"time":266.64,"velocity":0.33858267716535434},{"duration":0.6000000000000227,"midi":62,"time":266.76,"velocity":0.25984251968503935},{"duration":0.23999999999995225,"midi":70,"time":267.36,"velocity":0.33858267716535434},{"duration":0.23999999999995225,"midi":70,"time":267.48,"velocity":0.25984251968503935},{"duration":0.2400000000000091,"midi":58,"time":267.59999999999997,"velocity":0.33858267716535434},{"duration":0.2400000000000091,"midi":58,"time":267.71999999999997,"velocity":0.25984251968503935},{"duration":0.2400000000000091,"midi":69,"time":267.84,"velocity":0.33858267716535434},{"duration":0.2400000000000091,"midi":69,"time":267.96,"velocity":0.25984251968503935},{"duration":0.2400000000000091,"midi":60,"time":268.08,"velocity":0.33858267716535434},{"duration":0.2400000000000091,"midi":60,"time":268.2,"velocity":0.25984251968503935},{"duration":0.2400000000000091,"midi":65,"time":268.32,"velocity":0.33858267716535434},{"duration":0.2400000000000091,"midi":65,"time":268.44,"velocity":0.25984251968503935},{"duration":0.2400000000000091,"midi":60,"time":268.56,"velocity":0.33858267716535434},{"duration":0.2400000000000091,"midi":60,"time":268.68,"velocity":0.25984251968503935},{"duration":0.3599999999999568,"midi":55,"time":268.8,"velocity":0.33858267716535434},{"duration":0.3599999999999568,"midi":58,"time":268.8,"velocity":0.33858267716535434},{"duration":0.3599999999999568,"midi":58,"time":268.92,"velocity":0.25984251968503935},{"duration":0.3599999999999568,"midi":55,"time":268.92,"velocity":0.25984251968503935},{"duration":0.36000000000001364,"midi":60,"time":269.15999999999997,"velocity":0.33858267716535434},{"duration":0.36000000000001364,"midi":57,"time":269.15999999999997,"velocity":0.33858267716535434},{"duration":0.36000000000001364,"midi":60,"time":269.28,"velocity":0.25984251968503935},{"duration":0.36000000000001364,"midi":57,"time":269.28,"velocity":0.25984251968503935},{"duration":0.2400000000000091,"midi":62,"time":269.52,"velocity":0.33858267716535434},{"duration":0.2400000000000091,"midi":58,"time":269.52,"velocity":0.33858267716535434},{"duration":0.2400000000000091,"midi":58,"time":269.64,"velocity":0.25984251968503935},{"duration":0.2400000000000091,"midi":62,"time":269.64,"velocity":0.25984251968503935},{"duration":0.36000000000001364,"midi":63,"time":269.76,"velocity":0.33858267716535434},{"duration":0.36000000000001364,"midi":67,"time":269.76,"velocity":0.33858267716535434},{"duration":0.36000000000001364,"midi":63,"time":269.88,"velocity":0.25984251968503935},{"duration":0.36000000000001364,"midi":67,"time":269.88,"velocity":0.25984251968503935},{"duration":0.36000000000001364,"midi":70,"time":270.12,"velocity":0.33858267716535434},{"duration":0.36000000000001364,"midi":67,"time":270.12,"velocity":0.33858267716535434},{"duration":0.3599999999999568,"midi":70,"time":270.24,"velocity":0.25984251968503935},{"duration":0.3599999999999568,"midi":67,"time":270.24,"velocity":0.25984251968503935},{"duration":0.23999999999995225,"midi":69,"time":270.48,"velocity":0.33858267716535434},{"duration":0.23999999999995225,"midi":65,"time":270.48,"velocity":0.33858267716535434},{"duration":0.2400000000000091,"midi":69,"time":270.59999999999997,"velocity":0.25984251968503935},{"duration":0.2400000000000091,"midi":65,"time":270.59999999999997,"velocity":0.25984251968503935},{"duration":0.7200000000000273,"midi":60,"time":270.71999999999997,"velocity":0.33858267716535434},{"duration":0.7200000000000273,"midi":65,"time":270.71999999999997,"velocity":0.33858267716535434},{"duration":0.7200000000000273,"midi":65,"time":270.84,"velocity":0.25984251968503935},{"duration":0.7200000000000273,"midi":60,"time":270.84,"velocity":0.25984251968503935},{"duration":0.12000000000000455,"midi":67,"time":271.56,"velocity":0.33858267716535434},{"duration":0.12000000000000455,"midi":65,"time":271.62,"velocity":0.33858267716535434},{"duration":0.47999999999996135,"midi":62,"time":271.68,"velocity":0.33858267716535434},{"duration":0.47999999999996135,"midi":58,"time":271.68,"velocity":0.33858267716535434},{"duration":0.12000000000000455,"midi":67,"time":271.68,"velocity":0.25984251968503935},{"duration":0.12000000000000455,"midi":65,"time":271.74,"velocity":0.25984251968503935},{"duration":0.47999999999996135,"midi":62,"time":271.8,"velocity":0.25984251968503935},{"duration":0.47999999999996135,"midi":58,"time":271.8,"velocity":0.25984251968503935},{"duration":0.4800000000000182,"midi":58,"time":272.15999999999997,"velocity":0.33858267716535434},{"duration":0.4800000000000182,"midi":55,"time":272.15999999999997,"velocity":0.33858267716535434},{"duration":0.4800000000000182,"midi":58,"time":272.28,"velocity":0.25984251968503935},{"duration":0.4800000000000182,"midi":55,"time":272.28,"velocity":0.25984251968503935},{"duration":0.36000000000001364,"midi":57,"time":272.64,"velocity":0.33858267716535434},{"duration":0.36000000000001364,"midi":60,"time":272.64,"velocity":0.33858267716535434},{"duration":0.36000000000001364,"midi":60,"time":272.76,"velocity":0.25984251968503935},{"duration":0.36000000000001364,"midi":57,"time":272.76,"velocity":0.25984251968503935},{"duration":0.2400000000000091,"midi":58,"time":273,"velocity":0.33858267716535434},{"duration":0.2400000000000091,"midi":62,"time":273,"velocity":0.33858267716535434},{"duration":0.2400000000000091,"midi":58,"time":273.12,"velocity":0.25984251968503935},{"duration":0.2400000000000091,"midi":62,"time":273.12,"velocity":0.25984251968503935},{"duration":0.7199999999999704,"midi":62,"time":273.36,"velocity":0.33858267716535434},{"duration":0.7199999999999704,"midi":58,"time":273.36,"velocity":0.33858267716535434},{"duration":0.7199999999999704,"midi":62,"time":273.48,"velocity":0.25984251968503935},{"duration":0.7199999999999704,"midi":58,"time":273.48,"velocity":0.25984251968503935},{"duration":0.2400000000000091,"midi":55,"time":274.08,"velocity":0.33858267716535434},{"duration":0.2400000000000091,"midi":51,"time":274.08,"velocity":0.33858267716535434},{"duration":0.2400000000000091,"midi":51,"time":274.2,"velocity":0.25984251968503935},{"duration":0.2400000000000091,"midi":55,"time":274.2,"velocity":0.25984251968503935},{"duration":1.1999999999999886,"midi":55,"time":274.32,"velocity":0.33858267716535434},{"duration":1.1999999999999886,"midi":60,"time":274.32,"velocity":0.33858267716535434},{"duration":1.1999999999999886,"midi":60,"time":274.44,"velocity":0.25984251968503935},{"duration":1.1999999999999886,"midi":55,"time":274.44,"velocity":0.25984251968503935},{"duration":0.4800000000000182,"midi":55,"time":275.52,"velocity":0.33858267716535434},{"duration":0.4800000000000182,"midi":58,"time":275.52,"velocity":0.33858267716535434},{"duration":0.4800000000000182,"midi":58,"time":275.64,"velocity":0.25984251968503935},{"duration":0.4800000000000182,"midi":55,"time":275.64,"velocity":0.25984251968503935},{"duration":0.4800000000000182,"midi":57,"time":276,"velocity":0.33858267716535434},{"duration":0.47999999999996135,"midi":57,"time":276.12,"velocity":0.25984251968503935},{"duration":1.079999999999984,"midi":58,"time":276.48,"velocity":0.33858267716535434},{"duration":1.080000000000041,"midi":58,"time":276.59999999999997,"velocity":0.25984251968503935},{"duration":0.2400000000000091,"midi":62,"time":277.68,"velocity":0.33858267716535434},{"duration":0.23999999999995225,"midi":62,"time":277.8,"velocity":0.25984251968503935},{"duration":0.23999999999995225,"midi":53,"time":277.92,"velocity":0.33858267716535434},{"duration":0.2400000000000091,"midi":53,"time":278.03999999999996,"velocity":0.25984251968503935},{"duration":0.6000000000000227,"midi":60,"time":278.15999999999997,"velocity":0.33858267716535434},{"duration":0.6000000000000227,"midi":60,"time":278.28,"velocity":0.25984251968503935},{"duration":0.12000000000000455,"midi":62,"time":278.76,"velocity":0.33858267716535434},{"duration":0.12000000000000455,"midi":60,"time":278.82,"velocity":0.33858267716535434},{"duration":0.12000000000000455,"midi":62,"time":278.88,"velocity":0.25984251968503935},{"duration":0.36000000000001364,"midi":58,"time":278.88,"velocity":0.33858267716535434},{"duration":0.12000000000000455,"midi":60,"time":278.94,"velocity":0.25984251968503935},{"duration":0.36000000000001364,"midi":58,"time":279,"velocity":0.25984251968503935},{"duration":0.3599999999999568,"midi":58,"time":279.36,"velocity":0.33858267716535434},{"duration":0.36000000000001364,"midi":58,"time":279.47999999999996,"velocity":0.25984251968503935},{"duration":0.36000000000001364,"midi":57,"time":279.84,"velocity":0.33858267716535434},{"duration":0.36000000000001364,"midi":57,"time":279.96,"velocity":0.25984251968503935},{"duration":0.36000000000001364,"midi":57,"time":280.32,"velocity":0.33858267716535434},{"duration":0.36000000000001364,"midi":57,"time":280.44,"velocity":0.25984251968503935},{"duration":0.3599999999999568,"midi":58,"time":280.68,"velocity":0.33858267716535434},{"duration":0.3599999999999568,"midi":58,"time":280.8,"velocity":0.25984251968503935},{"duration":0.6000000000000227,"midi":65,"time":281.03999999999996,"velocity":0.33858267716535434},{"duration":0.6000000000000227,"midi":65,"time":281.15999999999997,"velocity":0.25984251968503935},{"duration":0.12000000000000455,"midi":66,"time":281.7,"velocity":0.33858267716535434},{"duration":0.2400000000000091,"midi":67,"time":281.76,"velocity":0.33858267716535434},{"duration":0.12000000000000455,"midi":66,"time":281.82,"velocity":0.25984251968503935},{"duration":0.2400000000000091,"midi":67,"time":281.88,"velocity":0.25984251968503935},{"duration":0.5999999999999659,"midi":62,"time":282,"velocity":0.33858267716535434},{"duration":0.5999999999999659,"midi":62,"time":282.12,"velocity":0.25984251968503935},{"duration":0.2400000000000091,"midi":70,"time":282.71999999999997,"velocity":0.33858267716535434},{"duration":0.2400000000000091,"midi":70,"time":282.84,"velocity":0.25984251968503935},{"duration":0.2400000000000091,"midi":58,"time":282.96,"velocity":0.33858267716535434},{"duration":0.2400000000000091,"midi":58,"time":283.08,"velocity":0.25984251968503935},{"duration":0.2400000000000091,"midi":69,"time":283.2,"velocity":0.33858267716535434},{"duration":0.2400000000000091,"midi":69,"time":283.32,"velocity":0.25984251968503935},{"duration":0.2400000000000091,"midi":60,"time":283.44,"velocity":0.33858267716535434},{"duration":0.2400000000000091,"midi":60,"time":283.56,"velocity":0.25984251968503935},{"duration":0.2400000000000091,"midi":65,"time":283.68,"velocity":0.33858267716535434},{"duration":0.23999999999995225,"midi":65,"time":283.8,"velocity":0.25984251968503935},{"duration":0.23999999999995225,"midi":60,"time":283.92,"velocity":0.33858267716535434},{"duration":0.2400000000000091,"midi":60,"time":284.03999999999996,"velocity":0.25984251968503935},{"duration":0.36000000000001364,"midi":55,"time":284.15999999999997,"velocity":0.33858267716535434},{"duration":0.36000000000001364,"midi":58,"time":284.15999999999997,"velocity":0.33858267716535434},{"duration":0.36000000000001364,"midi":58,"time":284.28,"velocity":0.25984251968503935},{"duration":0.36000000000001364,"midi":55,"time":284.28,"velocity":0.25984251968503935},{"duration":0.36000000000001364,"midi":60,"time":284.52,"velocity":0.33858267716535434},{"duration":0.36000000000001364,"midi":57,"time":284.52,"velocity":0.33858267716535434},{"duration":0.36000000000001364,"midi":60,"time":284.64,"velocity":0.25984251968503935},{"duration":0.36000000000001364,"midi":57,"time":284.64,"velocity":0.25984251968503935},{"duration":0.2400000000000091,"midi":62,"time":284.88,"velocity":0.33858267716535434},{"duration":0.2400000000000091,"midi":58,"time":284.88,"velocity":0.33858267716535434},{"duration":0.2400000000000091,"midi":58,"time":285,"velocity":0.25984251968503935},{"duration":0.2400000000000091,"midi":62,"time":285,"velocity":0.25984251968503935},{"duration":0.3599999999999568,"midi":63,"time":285.12,"velocity":0.33858267716535434},{"duration":0.3599999999999568,"midi":67,"time":285.12,"velocity":0.33858267716535434},{"duration":0.3599999999999568,"midi":63,"time":285.24,"velocity":0.25984251968503935},{"duration":0.3599999999999568,"midi":67,"time":285.24,"velocity":0.25984251968503935},{"duration":0.36000000000001364,"midi":70,"time":285.47999999999996,"velocity":0.33858267716535434},{"duration":0.36000000000001364,"midi":67,"time":285.47999999999996,"velocity":0.33858267716535434},{"duration":0.36000000000001364,"midi":70,"time":285.59999999999997,"velocity":0.25984251968503935},{"duration":0.36000000000001364,"midi":67,"time":285.59999999999997,"velocity":0.25984251968503935},{"duration":0.2400000000000091,"midi":65,"time":285.84,"velocity":0.33858267716535434},{"duration":0.2400000000000091,"midi":69,"time":285.84,"velocity":0.33858267716535434},{"duration":0.2400000000000091,"midi":65,"time":285.96,"velocity":0.25984251968503935},{"duration":0.2400000000000091,"midi":69,"time":285.96,"velocity":0.25984251968503935},{"duration":0.7200000000000273,"midi":60,"time":286.08,"velocity":0.33858267716535434},{"duration":0.7200000000000273,"midi":65,"time":286.08,"velocity":0.33858267716535434},{"duration":0.7200000000000273,"midi":60,"time":286.2,"velocity":0.25984251968503935},{"duration":0.7200000000000273,"midi":65,"time":286.2,"velocity":0.25984251968503935},{"duration":0.1199999999999477,"midi":67,"time":286.92,"velocity":0.33858267716535434},{"duration":0.12000000000000455,"midi":65,"time":286.97999999999996,"velocity":0.33858267716535434},{"duration":0.12000000000000455,"midi":67,"time":287.03999999999996,"velocity":0.25984251968503935},{"duration":0.4800000000000182,"midi":58,"time":287.03999999999996,"velocity":0.33858267716535434},{"duration":0.4800000000000182,"midi":62,"time":287.03999999999996,"velocity":0.33858267716535434},{"duration":0.12000000000000455,"midi":65,"time":287.09999999999997,"velocity":0.25984251968503935},{"duration":0.4800000000000182,"midi":62,"time":287.15999999999997,"velocity":0.25984251968503935},{"duration":0.4800000000000182,"midi":58,"time":287.15999999999997,"velocity":0.25984251968503935},{"duration":0.4800000000000182,"midi":58,"time":287.52,"velocity":0.33858267716535434},{"duration":0.4800000000000182,"midi":55,"time":287.52,"velocity":0.33858267716535434},{"duration":0.4800000000000182,"midi":55,"time":287.64,"velocity":0.25984251968503935},{"duration":0.4800000000000182,"midi":58,"time":287.64,"velocity":0.25984251968503935},{"duration":0.36000000000001364,"midi":57,"time":288,"velocity":0.33858267716535434},{"duration":0.36000000000001364,"midi":60,"time":288,"velocity":0.33858267716535434},{"duration":0.3599999999999568,"midi":57,"time":288.12,"velocity":0.25984251968503935},{"duration":0.3599999999999568,"midi":60,"time":288.12,"velocity":0.25984251968503935},{"duration":0.23999999999995225,"midi":62,"time":288.36,"velocity":0.33858267716535434},{"duration":0.23999999999995225,"midi":58,"time":288.36,"velocity":0.33858267716535434},{"duration":0.2400000000000091,"midi":62,"time":288.47999999999996,"velocity":0.25984251968503935},{"duration":0.2400000000000091,"midi":58,"time":288.47999999999996,"velocity":0.25984251968503935},{"duration":0.7200000000000273,"midi":62,"time":288.71999999999997,"velocity":0.33858267716535434},{"duration":0.7200000000000273,"midi":58,"time":288.71999999999997,"velocity":0.33858267716535434},{"duration":0.7200000000000273,"midi":62,"time":288.84,"velocity":0.25984251968503935},{"duration":0.7200000000000273,"midi":58,"time":288.84,"velocity":0.25984251968503935},{"duration":0.2400000000000091,"midi":55,"time":289.44,"velocity":0.33858267716535434},{"duration":0.2400000000000091,"midi":51,"time":289.44,"velocity":0.33858267716535434},{"duration":0.2400000000000091,"midi":51,"time":289.56,"velocity":0.25984251968503935},{"duration":0.2400000000000091,"midi":55,"time":289.56,"velocity":0.25984251968503935},{"duration":1.1999999999999886,"midi":60,"time":289.68,"velocity":0.33858267716535434},{"duration":1.1999999999999886,"midi":55,"time":289.68,"velocity":0.33858267716535434},{"duration":1.1999999999999886,"midi":55,"time":289.8,"velocity":0.25984251968503935},{"duration":1.1999999999999886,"midi":60,"time":289.8,"velocity":0.25984251968503935},{"duration":0.4800000000000182,"midi":55,"time":290.88,"velocity":0.33858267716535434},{"duration":0.4800000000000182,"midi":58,"time":290.88,"velocity":0.33858267716535434},{"duration":0.47999999999996135,"midi":58,"time":291,"velocity":0.25984251968503935},{"duration":0.47999999999996135,"midi":55,"time":291,"velocity":0.25984251968503935},{"duration":0.47999999999996135,"midi":57,"time":291.36,"velocity":0.33858267716535434},{"duration":0.4800000000000182,"midi":57,"time":291.47999999999996,"velocity":0.25984251968503935},{"duration":1.8000000000000114,"midi":55,"time":291.84,"velocity":0.2047244094488189},{"duration":1.8000000000000114,"midi":58,"time":291.84,"velocity":0.2047244094488189},{"duration":1.8000000000000114,"midi":58,"time":291.96,"velocity":0.18110236220472442},{"duration":1.8000000000000114,"midi":55,"time":291.96,"velocity":0.18110236220472442},{"duration":1.8000000000000114,"midi":62,"time":293.76,"velocity":0.2047244094488189},{"duration":1.8000000000000114,"midi":65,"time":293.76,"velocity":0.2047244094488189},{"duration":1.8000000000000114,"midi":65,"time":293.88,"velocity":0.18110236220472442},{"duration":1.8000000000000114,"midi":62,"time":293.88,"velocity":0.18110236220472442},{"duration":0.839999999999975,"midi":67,"time":295.68,"velocity":0.2047244094488189},{"duration":0.839999999999975,"midi":63,"time":295.68,"velocity":0.2047244094488189},{"duration":0.839999999999975,"midi":63,"time":295.8,"velocity":0.18110236220472442},{"duration":0.839999999999975,"midi":67,"time":295.8,"velocity":0.18110236220472442},{"duration":0.839999999999975,"midi":69,"time":296.64,"velocity":0.2047244094488189},{"duration":0.839999999999975,"midi":65,"time":296.64,"velocity":0.2047244094488189},{"duration":0.839999999999975,"midi":65,"time":296.76,"velocity":0.18110236220472442},{"duration":0.839999999999975,"midi":69,"time":296.76,"velocity":0.18110236220472442},{"duration":0.8400000000000318,"midi":70,"time":297.59999999999997,"velocity":0.2047244094488189},{"duration":0.8400000000000318,"midi":67,"time":297.59999999999997,"velocity":0.2047244094488189},{"duration":0.8400000000000318,"midi":67,"time":297.71999999999997,"velocity":0.18110236220472442},{"duration":0.8400000000000318,"midi":70,"time":297.71999999999997,"velocity":0.18110236220472442},{"duration":0.839999999999975,"midi":69,"time":298.56,"velocity":0.2047244094488189},{"duration":0.839999999999975,"midi":65,"time":298.56,"velocity":0.2047244094488189},{"duration":0.839999999999975,"midi":65,"time":298.68,"velocity":0.18110236220472442},{"duration":0.839999999999975,"midi":69,"time":298.68,"velocity":0.18110236220472442},{"duration":1.920000000000016,"midi":62,"time":299.52,"velocity":0.2047244094488189},{"duration":1.920000000000016,"midi":70,"time":299.52,"velocity":0.2047244094488189},{"duration":1.920000000000016,"midi":62,"time":299.64,"velocity":0.18110236220472442},{"duration":1.920000000000016,"midi":70,"time":299.64,"velocity":0.18110236220472442},{"duration":1.920000000000016,"midi":57,"time":301.44,"velocity":0.2047244094488189},{"duration":1.920000000000016,"midi":62,"time":301.44,"velocity":0.2047244094488189},{"duration":1.920000000000016,"midi":69,"time":301.44,"velocity":0.2047244094488189},{"duration":1.919999999999959,"midi":69,"time":301.56,"velocity":0.18110236220472442},{"duration":1.919999999999959,"midi":62,"time":301.56,"velocity":0.18110236220472442},{"duration":1.919999999999959,"midi":57,"time":301.56,"velocity":0.18110236220472442},{"duration":0.9599999999999795,"midi":58,"time":303.36,"velocity":0.2047244094488189},{"duration":0.9599999999999795,"midi":62,"time":303.36,"velocity":0.2047244094488189},{"duration":0.9600000000000364,"midi":62,"time":303.47999999999996,"velocity":0.18110236220472442},{"duration":0.9600000000000364,"midi":58,"time":303.47999999999996,"velocity":0.18110236220472442},{"duration":0.9599999999999795,"midi":57,"time":304.32,"velocity":0.2047244094488189},{"duration":0.9599999999999795,"midi":60,"time":304.32,"velocity":0.2047244094488189},{"duration":0.9599999999999795,"midi":60,"time":304.44,"velocity":0.18110236220472442},{"duration":0.9599999999999795,"midi":57,"time":304.44,"velocity":0.18110236220472442},{"duration":1.4399999999999977,"midi":58,"time":305.28,"velocity":0.2047244094488189},{"duration":1.4399999999999977,"midi":55,"time":305.28,"velocity":0.2047244094488189},{"duration":1.4399999999999977,"midi":55,"time":305.4,"velocity":0.18110236220472442},{"duration":1.4399999999999977,"midi":58,"time":305.4,"velocity":0.18110236220472442}]},{"instrument":{"family":"bass","number":36,"name":"slap bass 1"},"notes":[{"duration":0.11999999999999922,"midi":31,"time":15.36,"velocity":0.31496062992125984},{"duration":0.120000000000001,"midi":31,"time":15.719999999999999,"velocity":0.31496062992125984},{"duration":0.120000000000001,"midi":29,"time":16.08,"velocity":0.31496062992125984},{"duration":0.11999999999999744,"midi":31,"time":16.32,"velocity":0.31496062992125984},{"duration":0.120000000000001,"midi":31,"time":16.56,"velocity":0.31496062992125984},{"duration":0.11999999999999744,"midi":26,"time":16.8,"velocity":0.31496062992125984},{"duration":0.120000000000001,"midi":29,"time":17.04,"velocity":0.31496062992125984},{"duration":0.11999999999999744,"midi":31,"time":17.28,"velocity":0.31496062992125984},{"duration":0.11999999999999744,"midi":31,"time":17.64,"velocity":0.31496062992125984},{"duration":0.120000000000001,"midi":29,"time":18,"velocity":0.31496062992125984},{"duration":0.120000000000001,"midi":31,"time":18.24,"velocity":0.31496062992125984},{"duration":0.11999999999999744,"midi":31,"time":18.48,"velocity":0.31496062992125984},{"duration":0.120000000000001,"midi":31,"time":18.72,"velocity":0.31496062992125984},{"duration":0.11999999999999744,"midi":29,"time":18.96,"velocity":0.31496062992125984},{"duration":0.120000000000001,"midi":31,"time":19.2,"velocity":0.31496062992125984},{"duration":0.120000000000001,"midi":31,"time":19.56,"velocity":0.31496062992125984},{"duration":0.120000000000001,"midi":29,"time":19.919999999999998,"velocity":0.31496062992125984},{"duration":0.11999999999999744,"midi":31,"time":20.16,"velocity":0.31496062992125984},{"duration":0.120000000000001,"midi":31,"time":20.4,"velocity":0.31496062992125984},{"duration":0.11999999999999744,"midi":26,"time":20.64,"velocity":0.31496062992125984},{"duration":0.120000000000001,"midi":29,"time":20.88,"velocity":0.31496062992125984},{"duration":0.120000000000001,"midi":31,"time":21.119999999999997,"velocity":0.31496062992125984},{"duration":0.11999999999999744,"midi":31,"time":21.48,"velocity":0.31496062992125984},{"duration":0.120000000000001,"midi":29,"time":21.84,"velocity":0.31496062992125984},{"duration":0.120000000000001,"midi":31,"time":22.08,"velocity":0.31496062992125984},{"duration":0.11999999999999744,"midi":31,"time":22.32,"velocity":0.31496062992125984},{"duration":0.120000000000001,"midi":31,"time":22.56,"velocity":0.31496062992125984},{"duration":0.11999999999999744,"midi":29,"time":22.8,"velocity":0.31496062992125984},{"duration":0.120000000000001,"midi":27,"time":23.04,"velocity":0.31496062992125984},{"duration":0.120000000000001,"midi":27,"time":23.4,"velocity":0.31496062992125984},{"duration":0.120000000000001,"midi":26,"time":23.759999999999998,"velocity":0.31496062992125984},{"duration":0.11999999999999744,"midi":27,"time":24,"velocity":0.31496062992125984},{"duration":0.120000000000001,"midi":27,"time":24.24,"velocity":0.31496062992125984},{"duration":0.11999999999999744,"midi":26,"time":24.48,"velocity":0.31496062992125984},{"duration":0.120000000000001,"midi":29,"time":24.72,"velocity":0.31496062992125984},{"duration":0.11999999999999744,"midi":27,"time":24.96,"velocity":0.31496062992125984},{"duration":0.11999999999999744,"midi":27,"time":25.32,"velocity":0.31496062992125984},{"duration":0.120000000000001,"midi":26,"time":25.68,"velocity":0.31496062992125984},{"duration":0.120000000000001,"midi":27,"time":25.919999999999998,"velocity":0.31496062992125984},{"duration":0.11999999999999744,"midi":27,"time":26.16,"velocity":0.31496062992125984},{"duration":0.120000000000001,"midi":27,"time":26.4,"velocity":0.31496062992125984},{"duration":0.11999999999999744,"midi":29,"time":26.64,"velocity":0.31496062992125984},{"duration":0.120000000000001,"midi":27,"time":26.88,"velocity":0.31496062992125984},{"duration":0.120000000000001,"midi":27,"time":27.24,"velocity":0.31496062992125984},{"duration":0.120000000000001,"midi":26,"time":27.599999999999998,"velocity":0.31496062992125984},{"duration":0.11999999999999744,"midi":27,"time":27.84,"velocity":0.31496062992125984},{"duration":0.120000000000001,"midi":27,"time":28.08,"velocity":0.31496062992125984},{"duration":0.11999999999999744,"midi":26,"time":28.32,"velocity":0.31496062992125984},{"duration":0.120000000000001,"midi":29,"time":28.56,"velocity":0.31496062992125984},{"duration":0.120000000000001,"midi":27,"time":28.799999999999997,"velocity":0.31496062992125984},{"duration":0.11999999999999744,"midi":27,"time":29.16,"velocity":0.31496062992125984},{"duration":0.120000000000001,"midi":26,"time":29.52,"velocity":0.31496062992125984},{"duration":0.120000000000001,"midi":27,"time":29.759999999999998,"velocity":0.31496062992125984},{"duration":0.11999999999999744,"midi":27,"time":30,"velocity":0.31496062992125984},{"duration":0.120000000000001,"midi":27,"time":30.24,"velocity":0.31496062992125984},{"duration":0.11999999999999744,"midi":29,"time":30.48,"velocity":0.31496062992125984},{"duration":0.120000000000001,"midi":31,"time":30.72,"velocity":0.31496062992125984},{"duration":0.120000000000001,"midi":31,"time":31.08,"velocity":0.31496062992125984},{"duration":0.120000000000001,"midi":29,"time":31.439999999999998,"velocity":0.31496062992125984},{"duration":0.11999999999999744,"midi":31,"time":31.68,"velocity":0.31496062992125984},{"duration":0.120000000000001,"midi":31,"time":31.919999999999998,"velocity":0.31496062992125984},{"duration":0.12000000000000455,"midi":26,"time":32.16,"velocity":0.31496062992125984},{"duration":0.11999999999999744,"midi":29,"time":32.4,"velocity":0.31496062992125984},{"duration":0.11999999999999744,"midi":31,"time":32.64,"velocity":0.31496062992125984},{"duration":0.11999999999999744,"midi":31,"time":33,"velocity":0.31496062992125984},{"duration":0.11999999999999744,"midi":29,"time":33.36,"velocity":0.31496062992125984},{"duration":0.11999999999999744,"midi":31,"time":33.6,"velocity":0.31496062992125984},{"duration":0.12000000000000455,"midi":31,"time":33.839999999999996,"velocity":0.31496062992125984},{"duration":0.11999999999999744,"midi":31,"time":34.08,"velocity":0.31496062992125984},{"duration":0.11999999999999744,"midi":29,"time":34.32,"velocity":0.31496062992125984},{"duration":0.11999999999999744,"midi":31,"time":34.56,"velocity":0.31496062992125984},{"duration":0.11999999999999744,"midi":31,"time":34.92,"velocity":0.31496062992125984},{"duration":0.11999999999999744,"midi":29,"time":35.28,"velocity":0.31496062992125984},{"duration":0.12000000000000455,"midi":31,"time":35.519999999999996,"velocity":0.31496062992125984},{"duration":0.11999999999999744,"midi":31,"time":35.76,"velocity":0.31496062992125984},{"duration":0.11999999999999744,"midi":26,"time":36,"velocity":0.31496062992125984},{"duration":0.11999999999999744,"midi":29,"time":36.24,"velocity":0.31496062992125984},{"duration":0.12000000000000455,"midi":31,"time":36.48,"velocity":0.31496062992125984},{"duration":0.12000000000000455,"midi":31,"time":36.839999999999996,"velocity":0.31496062992125984},{"duration":0.12000000000000455,"midi":29,"time":37.199999999999996,"velocity":0.31496062992125984},{"duration":0.11999999999999744,"midi":31,"time":37.44,"velocity":0.31496062992125984},{"duration":0.11999999999999744,"midi":31,"time":37.68,"velocity":0.31496062992125984},{"duration":0.11999999999999744,"midi":31,"time":37.92,"velocity":0.31496062992125984},{"duration":0.12000000000000455,"midi":29,"time":38.16,"velocity":0.31496062992125984},{"duration":0.11999999999999744,"midi":27,"time":38.4,"velocity":0.31496062992125984},{"duration":0.11999999999999744,"midi":27,"time":38.76,"velocity":0.31496062992125984},{"duration":0.12000000000000455,"midi":26,"time":39.12,"velocity":0.31496062992125984},{"duration":0.11999999999999744,"midi":27,"time":39.36,"velocity":0.31496062992125984},{"duration":0.11999999999999744,"midi":27,"time":39.6,"velocity":0.31496062992125984},{"duration":0.12000000000000455,"midi":26,"time":39.839999999999996,"velocity":0.31496062992125984},{"duration":0.11999999999999744,"midi":29,"time":40.08,"velocity":0.31496062992125984},{"duration":0.11999999999999744,"midi":27,"time":40.32,"velocity":0.31496062992125984},{"duration":0.11999999999999744,"midi":27,"time":40.68,"velocity":0.31496062992125984},{"duration":0.11999999999999744,"midi":26,"time":41.04,"velocity":0.31496062992125984},{"duration":0.11999999999999744,"midi":27,"time":41.28,"velocity":0.31496062992125984},{"duration":0.12000000000000455,"midi":27,"time":41.519999999999996,"velocity":0.31496062992125984},{"duration":0.11999999999999744,"midi":27,"time":41.76,"velocity":0.31496062992125984},{"duration":0.11999999999999744,"midi":29,"time":42,"velocity":0.31496062992125984},{"duration":0.12000000000000455,"midi":27,"time":42.239999999999995,"velocity":0.31496062992125984},{"duration":0.11999999999999744,"midi":27,"time":42.6,"velocity":0.31496062992125984},{"duration":0.11999999999999744,"midi":26,"time":42.96,"velocity":0.31496062992125984},{"duration":0.12000000000000455,"midi":27,"time":43.199999999999996,"velocity":0.31496062992125984},{"duration":0.11999999999999744,"midi":27,"time":43.44,"velocity":0.31496062992125984},{"duration":0.11999999999999744,"midi":26,"time":43.68,"velocity":0.31496062992125984},{"duration":0.11999999999999744,"midi":29,"time":43.92,"velocity":0.31496062992125984},{"duration":0.12000000000000455,"midi":27,"time":44.16,"velocity":0.31496062992125984},{"duration":0.12000000000000455,"midi":27,"time":44.519999999999996,"velocity":0.31496062992125984},{"duration":0.12000000000000455,"midi":26,"time":44.879999999999995,"velocity":0.31496062992125984},{"duration":0.11999999999999744,"midi":27,"time":45.12,"velocity":0.31496062992125984},{"duration":0.11999999999999744,"midi":27,"time":45.36,"velocity":0.31496062992125984},{"duration":0.11999999999999744,"midi":27,"time":45.6,"velocity":0.31496062992125984},{"duration":0.12000000000000455,"midi":29,"time":45.839999999999996,"velocity":0.31496062992125984},{"duration":0.11999999999999744,"midi":24,"time":46.08,"velocity":0.31496062992125984},{"duration":0.11999999999999744,"midi":24,"time":46.44,"velocity":0.31496062992125984},{"duration":0.240000000000002,"midi":36,"time":46.8,"velocity":0.31496062992125984},{"duration":0.11999999999999744,"midi":24,"time":47.04,"velocity":0.31496062992125984},{"duration":0.11999999999999744,"midi":24,"time":47.28,"velocity":0.31496062992125984},{"duration":0.12000000000000455,"midi":24,"time":47.519999999999996,"velocity":0.31496062992125984},{"duration":0.240000000000002,"midi":36,"time":47.76,"velocity":0.31496062992125984},{"duration":0.11999999999999744,"midi":26,"time":48,"velocity":0.31496062992125984},{"duration":0.11999999999999744,"midi":26,"time":48.36,"velocity":0.31496062992125984},{"duration":0.240000000000002,"midi":38,"time":48.72,"velocity":0.31496062992125984},{"duration":0.11999999999999744,"midi":26,"time":48.96,"velocity":0.31496062992125984},{"duration":0.12000000000000455,"midi":26,"time":49.199999999999996,"velocity":0.31496062992125984},{"duration":0.11999999999999744,"midi":26,"time":49.44,"velocity":0.31496062992125984},{"duration":0.240000000000002,"midi":38,"time":49.68,"velocity":0.31496062992125984},{"duration":0.11999999999999744,"midi":27,"time":49.92,"velocity":0.31496062992125984},{"duration":0.11999999999999744,"midi":27,"time":50.28,"velocity":0.31496062992125984},{"duration":0.23999999999999488,"midi":39,"time":50.64,"velocity":0.31496062992125984},{"duration":0.12000000000000455,"midi":29,"time":50.879999999999995,"velocity":0.31496062992125984},{"duration":0.11999999999999744,"midi":29,"time":51.12,"velocity":0.31496062992125984},{"duration":0.11999999999999744,"midi":30,"time":51.36,"velocity":0.31496062992125984},{"duration":0.23999999999999488,"midi":42,"time":51.6,"velocity":0.31496062992125984},{"duration":0.12000000000000455,"midi":31,"time":51.839999999999996,"velocity":0.31496062992125984},{"duration":0.12000000000000455,"midi":31,"time":52.199999999999996,"velocity":0.31496062992125984},{"duration":0.12000000000000455,"midi":43,"time":52.559999999999995,"velocity":0.31496062992125984},{"duration":0.11999999999999744,"midi":29,"time":52.8,"velocity":0.31496062992125984},{"duration":0.11999999999999744,"midi":29,"time":53.04,"velocity":0.31496062992125984},{"duration":0.11999999999999744,"midi":29,"time":53.28,"velocity":0.31496062992125984},{"duration":0.240000000000002,"midi":41,"time":53.519999999999996,"velocity":0.31496062992125984},{"duration":0.11999999999999744,"midi":24,"time":53.76,"velocity":0.31496062992125984},{"duration":0.11999999999999744,"midi":24,"time":54.12,"velocity":0.31496062992125984},{"duration":0.240000000000002,"midi":36,"time":54.48,"velocity":0.31496062992125984},{"duration":0.11999999999999744,"midi":24,"time":54.72,"velocity":0.31496062992125984},{"duration":0.11999999999999744,"midi":24,"time":54.96,"velocity":0.31496062992125984},{"duration":0.12000000000000455,"midi":24,"time":55.199999999999996,"velocity":0.31496062992125984},{"duration":0.240000000000002,"midi":36,"time":55.44,"velocity":0.31496062992125984},{"duration":0.11999999999999744,"midi":26,"time":55.68,"velocity":0.31496062992125984},{"duration":0.11999999999999744,"midi":26,"time":56.04,"velocity":0.31496062992125984},{"duration":0.240000000000002,"midi":38,"time":56.4,"velocity":0.31496062992125984},{"duration":0.11999999999999744,"midi":26,"time":56.64,"velocity":0.31496062992125984},{"duration":0.12000000000000455,"midi":26,"time":56.879999999999995,"velocity":0.31496062992125984},{"duration":0.11999999999999744,"midi":26,"time":57.12,"velocity":0.31496062992125984},{"duration":0.23999999999999488,"midi":38,"time":57.36,"velocity":0.31496062992125984},{"duration":0.12000000000000455,"midi":27,"time":57.599999999999994,"velocity":0.31496062992125984},{"duration":0.11999999999999744,"midi":27,"time":57.96,"velocity":0.31496062992125984},{"duration":0.23999999999999488,"midi":39,"time":58.32,"velocity":0.31496062992125984},{"duration":0.12000000000000455,"midi":29,"time":58.559999999999995,"velocity":0.31496062992125984},{"duration":0.11999999999999744,"midi":29,"time":58.8,"velocity":0.31496062992125984},{"duration":0.11999999999999744,"midi":30,"time":59.04,"velocity":0.31496062992125984},{"duration":0.11999999999999744,"midi":42,"time":59.28,"velocity":0.31496062992125984},{"duration":0.12000000000000455,"midi":31,"time":59.519999999999996,"velocity":0.31496062992125984},{"duration":0.12000000000000455,"midi":31,"time":59.879999999999995,"velocity":0.31496062992125984},{"duration":0.240000000000002,"midi":43,"time":60.239999999999995,"velocity":0.31496062992125984},{"duration":0.35999999999999943,"midi":29,"time":60.48,"velocity":0.30708661417322836},{"duration":0.23999999999999488,"midi":27,"time":76.8,"velocity":0.31496062992125984},{"duration":0.23999999999999488,"midi":27,"time":77.16,"velocity":0.31496062992125984},{"duration":0.23999999999999488,"midi":27,"time":77.52,"velocity":0.31496062992125984},{"duration":0.23999999999999488,"midi":27,"time":78,"velocity":0.31496062992125984},{"duration":0.2400000000000091,"midi":31,"time":78.24,"velocity":0.31496062992125984},{"duration":0.23999999999999488,"midi":27,"time":78.48,"velocity":0.31496062992125984},{"duration":0.23999999999999488,"midi":29,"time":78.72,"velocity":0.31496062992125984},{"duration":0.23999999999999488,"midi":29,"time":79.08,"velocity":0.31496062992125984},{"duration":0.23999999999999488,"midi":29,"time":79.44,"velocity":0.31496062992125984},{"duration":0.23999999999999488,"midi":34,"time":79.92,"velocity":0.31496062992125984},{"duration":0.23999999999999488,"midi":33,"time":80.16,"velocity":0.31496062992125984},{"duration":0.2400000000000091,"midi":29,"time":80.39999999999999,"velocity":0.31496062992125984},{"duration":0.23999999999999488,"midi":31,"time":80.64,"velocity":0.31496062992125984},{"duration":0.23999999999999488,"midi":31,"time":81,"velocity":0.31496062992125984},{"duration":0.23999999999999488,"midi":31,"time":81.36,"velocity":0.31496062992125984},{"duration":0.23999999999999488,"midi":31,"time":81.84,"velocity":0.31496062992125984},{"duration":0.23999999999999488,"midi":34,"time":82.08,"velocity":0.31496062992125984},{"duration":0.2400000000000091,"midi":31,"time":82.32,"velocity":0.31496062992125984},{"duration":0.23999999999999488,"midi":26,"time":82.56,"velocity":0.31496062992125984},{"duration":0.23999999999999488,"midi":26,"time":82.92,"velocity":0.31496062992125984},{"duration":0.23999999999999488,"midi":26,"time":83.28,"velocity":0.31496062992125984},{"duration":0.23999999999999488,"midi":33,"time":83.52,"velocity":0.31496062992125984},{"duration":0.2400000000000091,"midi":36,"time":83.75999999999999,"velocity":0.31496062992125984},{"duration":0.23999999999999488,"midi":33,"time":84,"velocity":0.31496062992125984},{"duration":0.23999999999999488,"midi":29,"time":84.24,"velocity":0.31496062992125984},{"duration":0.2400000000000091,"midi":27,"time":84.47999999999999,"velocity":0.31496062992125984},{"duration":0.23999999999999488,"midi":27,"time":84.84,"velocity":0.31496062992125984},{"duration":0.23999999999999488,"midi":27,"time":85.2,"velocity":0.31496062992125984},{"duration":0.2400000000000091,"midi":27,"time":85.67999999999999,"velocity":0.31496062992125984},{"duration":0.23999999999999488,"midi":31,"time":85.92,"velocity":0.31496062992125984},{"duration":0.23999999999999488,"midi":27,"time":86.16,"velocity":0.31496062992125984},{"duration":0.2400000000000091,"midi":29,"time":86.39999999999999,"velocity":0.31496062992125984},{"duration":0.2400000000000091,"midi":29,"time":86.75999999999999,"velocity":0.31496062992125984},{"duration":0.2400000000000091,"midi":29,"time":87.11999999999999,"velocity":0.31496062992125984},{"duration":0.2400000000000091,"midi":34,"time":87.6,"velocity":0.31496062992125984},{"duration":0.23999999999999488,"midi":33,"time":87.84,"velocity":0.31496062992125984},{"duration":0.23999999999999488,"midi":29,"time":88.08,"velocity":0.31496062992125984},{"duration":0.2400000000000091,"midi":24,"time":88.32,"velocity":0.31496062992125984},{"duration":0.2400000000000091,"midi":24,"time":88.67999999999999,"velocity":0.31496062992125984},{"duration":0.2400000000000091,"midi":24,"time":89.03999999999999,"velocity":0.31496062992125984},{"duration":0.11999999999999034,"midi":29,"time":89.28,"velocity":0.31496062992125984},{"duration":0.12000000000000455,"midi":29,"time":89.52,"velocity":0.31496062992125984},{"duration":0.12000000000000455,"midi":30,"time":89.75999999999999,"velocity":0.31496062992125984},{"duration":0.11999999999999034,"midi":30,"time":90,"velocity":0.31496062992125984},{"duration":0.23999999999999488,"midi":31,"time":90.24,"velocity":0.31496062992125984},{"duration":0.2400000000000091,"midi":26,"time":90.6,"velocity":0.31496062992125984},{"duration":0.2400000000000091,"midi":31,"time":90.96,"velocity":0.31496062992125984},{"duration":0.23999999999999488,"midi":29,"time":91.2,"velocity":0.31496062992125984},{"duration":0.23999999999999488,"midi":29,"time":91.44,"velocity":0.31496062992125984},{"duration":0.2400000000000091,"midi":24,"time":91.67999999999999,"velocity":0.31496062992125984},{"duration":0.23999999999999488,"midi":29,"time":91.92,"velocity":0.31496062992125984},{"duration":0.23999999999999488,"midi":24,"time":92.16,"velocity":0.31496062992125984},{"duration":0.23999999999999488,"midi":24,"time":92.52,"velocity":0.31496062992125984},{"duration":0.23999999999999488,"midi":24,"time":92.88,"velocity":0.31496062992125984},{"duration":0.12000000000000455,"midi":29,"time":93.11999999999999,"velocity":0.31496062992125984},{"duration":0.11999999999999034,"midi":29,"time":93.36,"velocity":0.31496062992125984},{"duration":0.12000000000000455,"midi":30,"time":93.6,"velocity":0.31496062992125984},{"duration":0.11999999999999034,"midi":30,"time":93.84,"velocity":0.31496062992125984},{"duration":0.23999999999999488,"midi":31,"time":94.08,"velocity":0.31496062992125984},{"duration":0.23999999999999488,"midi":26,"time":94.44,"velocity":0.31496062992125984},{"duration":0.23999999999999488,"midi":31,"time":94.8,"velocity":0.31496062992125984},{"duration":0.2400000000000091,"midi":29,"time":95.03999999999999,"velocity":0.31496062992125984},{"duration":0.23999999999999488,"midi":29,"time":95.28,"velocity":0.31496062992125984},{"duration":0.23999999999999488,"midi":24,"time":95.52,"velocity":0.31496062992125984},{"duration":0.2400000000000091,"midi":29,"time":95.75999999999999,"velocity":0.31496062992125984},{"duration":0.11999999999999034,"midi":31,"time":99.84,"velocity":0.31496062992125984},{"duration":0.11999999999999034,"midi":31,"time":100.2,"velocity":0.31496062992125984},{"duration":0.11999999999999034,"midi":29,"time":100.56,"velocity":0.31496062992125984},{"duration":0.12000000000000455,"midi":31,"time":100.8,"velocity":0.31496062992125984},{"duration":0.12000000000000455,"midi":31,"time":101.03999999999999,"velocity":0.31496062992125984},{"duration":0.11999999999999034,"midi":26,"time":101.28,"velocity":0.31496062992125984},{"duration":0.12000000000000455,"midi":29,"time":101.52,"velocity":0.31496062992125984},{"duration":0.12000000000000455,"midi":31,"time":101.75999999999999,"velocity":0.31496062992125984},{"duration":0.12000000000000455,"midi":31,"time":102.11999999999999,"velocity":0.31496062992125984},{"duration":0.12000000000000455,"midi":29,"time":102.47999999999999,"velocity":0.31496062992125984},{"duration":0.11999999999999034,"midi":31,"time":102.72,"velocity":0.31496062992125984},{"duration":0.12000000000000455,"midi":31,"time":102.96,"velocity":0.31496062992125984},{"duration":0.11999999999999034,"midi":31,"time":103.2,"velocity":0.31496062992125984},{"duration":0.12000000000000455,"midi":29,"time":103.44,"velocity":0.31496062992125984},{"duration":0.12000000000000455,"midi":31,"time":103.67999999999999,"velocity":0.31496062992125984},{"duration":0.12000000000000455,"midi":31,"time":104.03999999999999,"velocity":0.31496062992125984},{"duration":0.12000000000000455,"midi":29,"time":104.39999999999999,"velocity":0.31496062992125984},{"duration":0.11999999999999034,"midi":31,"time":104.64,"velocity":0.31496062992125984},{"duration":0.12000000000000455,"midi":31,"time":104.88,"velocity":0.31496062992125984},{"duration":0.12000000000000455,"midi":26,"time":105.11999999999999,"velocity":0.31496062992125984},{"duration":0.11999999999999034,"midi":29,"time":105.36,"velocity":0.31496062992125984},{"duration":0.12000000000000455,"midi":31,"time":105.6,"velocity":0.31496062992125984},{"duration":0.12000000000000455,"midi":31,"time":105.96,"velocity":0.31496062992125984},{"duration":0.12000000000000455,"midi":29,"time":106.32,"velocity":0.31496062992125984},{"duration":0.11999999999999034,"midi":31,"time":106.56,"velocity":0.31496062992125984},{"duration":0.12000000000000455,"midi":31,"time":106.8,"velocity":0.31496062992125984},{"duration":0.12000000000000455,"midi":31,"time":107.03999999999999,"velocity":0.31496062992125984},{"duration":0.11999999999999034,"midi":29,"time":107.28,"velocity":0.31496062992125984},{"duration":0.12000000000000455,"midi":27,"time":107.52,"velocity":0.31496062992125984},{"duration":0.12000000000000455,"midi":27,"time":107.88,"velocity":0.31496062992125984},{"duration":0.12000000000000455,"midi":26,"time":108.24,"velocity":0.31496062992125984},{"duration":0.12000000000000455,"midi":27,"time":108.47999999999999,"velocity":0.31496062992125984},{"duration":0.11999999999999034,"midi":27,"time":108.72,"velocity":0.31496062992125984},{"duration":0.12000000000000455,"midi":26,"time":108.96,"velocity":0.31496062992125984},{"duration":0.11999999999999034,"midi":29,"time":109.2,"velocity":0.31496062992125984},{"duration":0.12000000000000455,"midi":27,"time":109.44,"velocity":0.31496062992125984},{"duration":0.12000000000000455,"midi":27,"time":109.8,"velocity":0.31496062992125984},{"duration":0.12000000000000455,"midi":26,"time":110.16,"velocity":0.31496062992125984},{"duration":0.12000000000000455,"midi":27,"time":110.39999999999999,"velocity":0.31496062992125984},{"duration":0.11999999999999034,"midi":27,"time":110.64,"velocity":0.31496062992125984},{"duration":0.12000000000000455,"midi":27,"time":110.88,"velocity":0.31496062992125984},{"duration":0.12000000000000455,"midi":29,"time":111.11999999999999,"velocity":0.31496062992125984},{"duration":0.11999999999999034,"midi":27,"time":111.36,"velocity":0.31496062992125984},{"duration":0.11999999999999034,"midi":27,"time":111.72,"velocity":0.31496062992125984},{"duration":0.12000000000000455,"midi":26,"time":112.08,"velocity":0.31496062992125984},{"duration":0.12000000000000455,"midi":27,"time":112.32,"velocity":0.31496062992125984},{"duration":0.11999999999999034,"midi":27,"time":112.56,"velocity":0.31496062992125984},{"duration":0.12000000000000455,"midi":26,"time":112.8,"velocity":0.31496062992125984},{"duration":0.12000000000000455,"midi":29,"time":113.03999999999999,"velocity":0.31496062992125984},{"duration":0.11999999999999034,"midi":27,"time":113.28,"velocity":0.31496062992125984},{"duration":0.11999999999999034,"midi":27,"time":113.64,"velocity":0.31496062992125984},{"duration":0.11999999999999034,"midi":26,"time":114,"velocity":0.31496062992125984},{"duration":0.12000000000000455,"midi":27,"time":114.24,"velocity":0.31496062992125984},{"duration":0.12000000000000455,"midi":27,"time":114.47999999999999,"velocity":0.31496062992125984},{"duration":0.11999999999999034,"midi":27,"time":114.72,"velocity":0.31496062992125984},{"duration":0.12000000000000455,"midi":29,"time":114.96,"velocity":0.31496062992125984},{"duration":0.12000000000000455,"midi":31,"time":115.19999999999999,"velocity":0.31496062992125984},{"duration":0.11999999999999034,"midi":31,"time":115.56,"velocity":0.31496062992125984},{"duration":0.11999999999999034,"midi":29,"time":115.92,"velocity":0.31496062992125984},{"duration":0.12000000000000455,"midi":31,"time":116.16,"velocity":0.31496062992125984},{"duration":0.12000000000000455,"midi":31,"time":116.39999999999999,"velocity":0.31496062992125984},{"duration":0.11999999999999034,"midi":26,"time":116.64,"velocity":0.31496062992125984},{"duration":0.12000000000000455,"midi":29,"time":116.88,"velocity":0.31496062992125984},{"duration":0.12000000000000455,"midi":31,"time":117.11999999999999,"velocity":0.31496062992125984},{"duration":0.12000000000000455,"midi":31,"time":117.47999999999999,"velocity":0.31496062992125984},{"duration":0.12000000000000455,"midi":29,"time":117.83999999999999,"velocity":0.31496062992125984},{"duration":0.11999999999999034,"midi":31,"time":118.08,"velocity":0.31496062992125984},{"duration":0.12000000000000455,"midi":31,"time":118.32,"velocity":0.31496062992125984},{"duration":0.11999999999999034,"midi":31,"time":118.56,"velocity":0.31496062992125984},{"duration":0.12000000000000455,"midi":29,"time":118.8,"velocity":0.31496062992125984},{"duration":0.12000000000000455,"midi":31,"time":119.03999999999999,"velocity":0.31496062992125984},{"duration":0.12000000000000455,"midi":31,"time":119.39999999999999,"velocity":0.31496062992125984},{"duration":0.12000000000000455,"midi":29,"time":119.75999999999999,"velocity":0.31496062992125984},{"duration":0.11999999999999034,"midi":31,"time":120,"velocity":0.31496062992125984},{"duration":0.12000000000000455,"midi":31,"time":120.24,"velocity":0.31496062992125984},{"duration":0.12000000000000455,"midi":26,"time":120.47999999999999,"velocity":0.31496062992125984},{"duration":0.11999999999999034,"midi":29,"time":120.72,"velocity":0.31496062992125984},{"duration":0.12000000000000455,"midi":31,"time":120.96,"velocity":0.31496062992125984},{"duration":0.12000000000000455,"midi":31,"time":121.32,"velocity":0.31496062992125984},{"duration":0.12000000000000455,"midi":29,"time":121.67999999999999,"velocity":0.31496062992125984},{"duration":0.11999999999999034,"midi":31,"time":121.92,"velocity":0.31496062992125984},{"duration":0.12000000000000455,"midi":31,"time":122.16,"velocity":0.31496062992125984},{"duration":0.12000000000000455,"midi":31,"time":122.39999999999999,"velocity":0.31496062992125984},{"duration":0.11999999999999034,"midi":29,"time":122.64,"velocity":0.31496062992125984},{"duration":0.12000000000000455,"midi":27,"time":122.88,"velocity":0.31496062992125984},{"duration":0.12000000000000455,"midi":27,"time":123.24,"velocity":0.31496062992125984},{"duration":0.12000000000000455,"midi":26,"time":123.6,"velocity":0.31496062992125984},{"duration":0.12000000000000455,"midi":27,"time":123.83999999999999,"velocity":0.31496062992125984},{"duration":0.11999999999999034,"midi":27,"time":124.08,"velocity":0.31496062992125984},{"duration":0.12000000000000455,"midi":26,"time":124.32,"velocity":0.31496062992125984},{"duration":0.11999999999999034,"midi":29,"time":124.56,"velocity":0.31496062992125984},{"duration":0.12000000000000455,"midi":27,"time":124.8,"velocity":0.31496062992125984},{"duration":0.12000000000000455,"midi":27,"time":125.16,"velocity":0.31496062992125984},{"duration":0.12000000000000455,"midi":26,"time":125.52,"velocity":0.31496062992125984},{"duration":0.12000000000000455,"midi":27,"time":125.75999999999999,"velocity":0.31496062992125984},{"duration":0.11999999999999034,"midi":27,"time":126,"velocity":0.31496062992125984},{"duration":0.12000000000000455,"midi":27,"time":126.24,"velocity":0.31496062992125984},{"duration":0.12000000000000455,"midi":29,"time":126.47999999999999,"velocity":0.31496062992125984},{"duration":0.11999999999999034,"midi":27,"time":126.72,"velocity":0.31496062992125984},{"duration":0.11999999999999034,"midi":27,"time":127.08,"velocity":0.31496062992125984},{"duration":0.12000000000000455,"midi":26,"time":127.44,"velocity":0.31496062992125984},{"duration":0.12000000000000455,"midi":27,"time":127.67999999999999,"velocity":0.31496062992125984},{"duration":0.11999999999999034,"midi":27,"time":127.92,"velocity":0.31496062992125984},{"duration":0.12000000000000455,"midi":26,"time":128.16,"velocity":0.31496062992125984},{"duration":0.11999999999997613,"midi":29,"time":128.4,"velocity":0.31496062992125984},{"duration":0.12000000000000455,"midi":27,"time":128.64,"velocity":0.31496062992125984},{"duration":0.12000000000000455,"midi":27,"time":129,"velocity":0.31496062992125984},{"duration":0.12000000000000455,"midi":26,"time":129.35999999999999,"velocity":0.31496062992125984},{"duration":0.12000000000000455,"midi":27,"time":129.6,"velocity":0.31496062992125984},{"duration":0.12000000000000455,"midi":27,"time":129.84,"velocity":0.31496062992125984},{"duration":0.12000000000000455,"midi":27,"time":130.07999999999998,"velocity":0.31496062992125984},{"duration":0.12000000000000455,"midi":29,"time":130.32,"velocity":0.31496062992125984},{"duration":0.12000000000000455,"midi":31,"time":176.64,"velocity":0.31496062992125984},{"duration":0.12000000000000455,"midi":31,"time":177,"velocity":0.31496062992125984},{"duration":0.12000000000000455,"midi":29,"time":177.35999999999999,"velocity":0.31496062992125984},{"duration":0.12000000000000455,"midi":31,"time":177.6,"velocity":0.31496062992125984},{"duration":0.11999999999997613,"midi":31,"time":177.84,"velocity":0.31496062992125984},{"duration":0.12000000000000455,"midi":26,"time":178.07999999999998,"velocity":0.31496062992125984},{"duration":0.12000000000000455,"midi":29,"time":178.32,"velocity":0.31496062992125984},{"duration":0.12000000000000455,"midi":31,"time":178.56,"velocity":0.31496062992125984},{"duration":0.12000000000000455,"midi":31,"time":178.92,"velocity":0.31496062992125984},{"duration":0.12000000000000455,"midi":29,"time":179.28,"velocity":0.31496062992125984},{"duration":0.12000000000000455,"midi":31,"time":179.51999999999998,"velocity":0.31496062992125984},{"duration":0.12000000000000455,"midi":31,"time":179.76,"velocity":0.31496062992125984},{"duration":0.12000000000000455,"midi":31,"time":180,"velocity":0.31496062992125984},{"duration":0.12000000000000455,"midi":29,"time":180.23999999999998,"velocity":0.31496062992125984},{"duration":0.12000000000000455,"midi":31,"time":180.48,"velocity":0.31496062992125984},{"duration":0.11999999999997613,"midi":31,"time":180.84,"velocity":0.31496062992125984},{"duration":0.12000000000000455,"midi":29,"time":181.2,"velocity":0.31496062992125984},{"duration":0.12000000000000455,"midi":31,"time":181.44,"velocity":0.31496062992125984},{"duration":0.11999999999997613,"midi":31,"time":181.68,"velocity":0.31496062992125984},{"duration":0.12000000000000455,"midi":26,"time":181.92,"velocity":0.31496062992125984},{"duration":0.12000000000000455,"midi":29,"time":182.16,"velocity":0.31496062992125984},{"duration":0.11999999999997613,"midi":31,"time":182.4,"velocity":0.31496062992125984},{"duration":0.12000000000000455,"midi":31,"time":182.76,"velocity":0.31496062992125984},{"duration":0.11999999999997613,"midi":29,"time":183.12,"velocity":0.31496062992125984},{"duration":0.12000000000000455,"midi":31,"time":183.35999999999999,"velocity":0.31496062992125984},{"duration":0.12000000000000455,"midi":31,"time":183.6,"velocity":0.31496062992125984},{"duration":0.11999999999997613,"midi":31,"time":183.84,"velocity":0.31496062992125984},{"duration":0.12000000000000455,"midi":29,"time":184.07999999999998,"velocity":0.31496062992125984},{"duration":0.12000000000000455,"midi":27,"time":184.32,"velocity":0.31496062992125984},{"duration":0.11999999999997613,"midi":27,"time":184.68,"velocity":0.31496062992125984},{"duration":0.12000000000000455,"midi":26,"time":185.04,"velocity":0.31496062992125984},{"duration":0.12000000000000455,"midi":27,"time":185.28,"velocity":0.31496062992125984},{"duration":0.12000000000000455,"midi":27,"time":185.51999999999998,"velocity":0.31496062992125984},{"duration":0.12000000000000455,"midi":26,"time":185.76,"velocity":0.31496062992125984},{"duration":0.12000000000000455,"midi":29,"time":186,"velocity":0.31496062992125984},{"duration":0.12000000000000455,"midi":27,"time":186.23999999999998,"velocity":0.31496062992125984},{"duration":0.12000000000000455,"midi":27,"time":186.6,"velocity":0.31496062992125984},{"duration":0.12000000000000455,"midi":26,"time":186.95999999999998,"velocity":0.31496062992125984},{"duration":0.12000000000000455,"midi":27,"time":187.2,"velocity":0.31496062992125984},{"duration":0.12000000000000455,"midi":27,"time":187.44,"velocity":0.31496062992125984},{"duration":0.11999999999997613,"midi":27,"time":187.68,"velocity":0.31496062992125984},{"duration":0.12000000000000455,"midi":29,"time":187.92,"velocity":0.31496062992125984},{"duration":0.12000000000000455,"midi":27,"time":188.16,"velocity":0.31496062992125984},{"duration":0.12000000000000455,"midi":27,"time":188.51999999999998,"velocity":0.31496062992125984},{"duration":0.12000000000000455,"midi":26,"time":188.88,"velocity":0.31496062992125984},{"duration":0.11999999999997613,"midi":27,"time":189.12,"velocity":0.31496062992125984},{"duration":0.12000000000000455,"midi":27,"time":189.35999999999999,"velocity":0.31496062992125984},{"duration":0.12000000000000455,"midi":26,"time":189.6,"velocity":0.31496062992125984},{"duration":0.11999999999997613,"midi":29,"time":189.84,"velocity":0.31496062992125984},{"duration":0.12000000000000455,"midi":27,"time":190.07999999999998,"velocity":0.31496062992125984},{"duration":0.12000000000000455,"midi":27,"time":190.44,"velocity":0.31496062992125984},{"duration":0.12000000000000455,"midi":26,"time":190.79999999999998,"velocity":0.31496062992125984},{"duration":0.12000000000000455,"midi":27,"time":191.04,"velocity":0.31496062992125984},{"duration":0.12000000000000455,"midi":27,"time":191.28,"velocity":0.31496062992125984},{"duration":0.12000000000000455,"midi":27,"time":191.51999999999998,"velocity":0.31496062992125984},{"duration":0.12000000000000455,"midi":29,"time":191.76,"velocity":0.31496062992125984},{"duration":0.12000000000000455,"midi":31,"time":192,"velocity":0.31496062992125984},{"duration":0.12000000000000455,"midi":31,"time":192.35999999999999,"velocity":0.31496062992125984},{"duration":0.12000000000000455,"midi":29,"time":192.72,"velocity":0.31496062992125984},{"duration":0.12000000000000455,"midi":31,"time":192.95999999999998,"velocity":0.31496062992125984},{"duration":0.12000000000000455,"midi":31,"time":193.2,"velocity":0.31496062992125984},{"duration":0.12000000000000455,"midi":26,"time":193.44,"velocity":0.31496062992125984},{"duration":0.11999999999997613,"midi":29,"time":193.68,"velocity":0.31496062992125984},{"duration":0.12000000000000455,"midi":31,"time":193.92,"velocity":0.31496062992125984},{"duration":0.12000000000000455,"midi":31,"time":194.28,"velocity":0.31496062992125984},{"duration":0.12000000000000455,"midi":29,"time":194.64,"velocity":0.31496062992125984},{"duration":0.12000000000000455,"midi":31,"time":194.88,"velocity":0.31496062992125984},{"duration":0.11999999999997613,"midi":31,"time":195.12,"velocity":0.31496062992125984},{"duration":0.12000000000000455,"midi":31,"time":195.35999999999999,"velocity":0.31496062992125984},{"duration":0.12000000000000455,"midi":29,"time":195.6,"velocity":0.31496062992125984},{"duration":0.11999999999997613,"midi":31,"time":195.84,"velocity":0.31496062992125984},{"duration":0.12000000000000455,"midi":31,"time":196.2,"velocity":0.31496062992125984},{"duration":0.12000000000000455,"midi":29,"time":196.56,"velocity":0.31496062992125984},{"duration":0.12000000000000455,"midi":31,"time":196.79999999999998,"velocity":0.31496062992125984},{"duration":0.12000000000000455,"midi":31,"time":197.04,"velocity":0.31496062992125984},{"duration":0.12000000000000455,"midi":26,"time":197.28,"velocity":0.31496062992125984},{"duration":0.12000000000000455,"midi":29,"time":197.51999999999998,"velocity":0.31496062992125984},{"duration":0.12000000000000455,"midi":31,"time":197.76,"velocity":0.31496062992125984},{"duration":0.11999999999997613,"midi":31,"time":198.12,"velocity":0.31496062992125984},{"duration":0.12000000000000455,"midi":29,"time":198.48,"velocity":0.31496062992125984},{"duration":0.12000000000000455,"midi":31,"time":198.72,"velocity":0.31496062992125984},{"duration":0.12000000000000455,"midi":31,"time":198.95999999999998,"velocity":0.31496062992125984},{"duration":0.12000000000000455,"midi":31,"time":199.2,"velocity":0.31496062992125984},{"duration":0.12000000000000455,"midi":29,"time":199.44,"velocity":0.31496062992125984},{"duration":0.11999999999997613,"midi":27,"time":199.68,"velocity":0.31496062992125984},{"duration":0.12000000000000455,"midi":27,"time":200.04,"velocity":0.31496062992125984},{"duration":0.11999999999997613,"midi":26,"time":200.4,"velocity":0.31496062992125984},{"duration":0.12000000000000455,"midi":27,"time":200.64,"velocity":0.31496062992125984},{"duration":0.12000000000000455,"midi":27,"time":200.88,"velocity":0.31496062992125984},{"duration":0.11999999999997613,"midi":26,"time":201.12,"velocity":0.31496062992125984},{"duration":0.12000000000000455,"midi":29,"time":201.35999999999999,"velocity":0.31496062992125984},{"duration":0.12000000000000455,"midi":27,"time":201.6,"velocity":0.31496062992125984},{"duration":0.12000000000000455,"midi":27,"time":201.95999999999998,"velocity":0.31496062992125984},{"duration":0.12000000000000455,"midi":26,"time":202.32,"velocity":0.31496062992125984},{"duration":0.11999999999997613,"midi":27,"time":202.56,"velocity":0.31496062992125984},{"duration":0.12000000000000455,"midi":27,"time":202.79999999999998,"velocity":0.31496062992125984},{"duration":0.12000000000000455,"midi":27,"time":203.04,"velocity":0.31496062992125984},{"duration":0.12000000000000455,"midi":29,"time":203.28,"velocity":0.31496062992125984},{"duration":0.12000000000000455,"midi":27,"time":203.51999999999998,"velocity":0.31496062992125984},{"duration":0.12000000000000455,"midi":27,"time":203.88,"velocity":0.31496062992125984},{"duration":0.12000000000000455,"midi":26,"time":204.23999999999998,"velocity":0.31496062992125984},{"duration":0.12000000000000455,"midi":27,"time":204.48,"velocity":0.31496062992125984},{"duration":0.12000000000000455,"midi":27,"time":204.72,"velocity":0.31496062992125984},{"duration":0.12000000000000455,"midi":26,"time":204.95999999999998,"velocity":0.31496062992125984},{"duration":0.12000000000000455,"midi":29,"time":205.2,"velocity":0.31496062992125984},{"duration":0.12000000000000455,"midi":27,"time":205.44,"velocity":0.31496062992125984},{"duration":0.12000000000000455,"midi":27,"time":205.79999999999998,"velocity":0.31496062992125984},{"duration":0.12000000000000455,"midi":26,"time":206.16,"velocity":0.31496062992125984},{"duration":0.11999999999997613,"midi":27,"time":206.4,"velocity":0.31496062992125984},{"duration":0.12000000000000455,"midi":27,"time":206.64,"velocity":0.31496062992125984},{"duration":0.12000000000000455,"midi":27,"time":206.88,"velocity":0.31496062992125984},{"duration":0.11999999999997613,"midi":29,"time":207.12,"velocity":0.31496062992125984},{"duration":0.12000000000000455,"midi":24,"time":207.35999999999999,"velocity":0.31496062992125984},{"duration":0.12000000000000455,"midi":24,"time":207.72,"velocity":0.31496062992125984},{"duration":0.2400000000000091,"midi":36,"time":208.07999999999998,"velocity":0.31496062992125984},{"duration":0.12000000000000455,"midi":24,"time":208.32,"velocity":0.31496062992125984},{"duration":0.11999999999997613,"midi":24,"time":208.56,"velocity":0.31496062992125984},{"duration":0.12000000000000455,"midi":24,"time":208.79999999999998,"velocity":0.31496062992125984},{"duration":0.2400000000000091,"midi":36,"time":209.04,"velocity":0.31496062992125984},{"duration":0.12000000000000455,"midi":26,"time":209.28,"velocity":0.31496062992125984},{"duration":0.12000000000000455,"midi":26,"time":209.64,"velocity":0.31496062992125984},{"duration":0.23999999999998067,"midi":38,"time":210,"velocity":0.31496062992125984},{"duration":0.12000000000000455,"midi":26,"time":210.23999999999998,"velocity":0.31496062992125984},{"duration":0.12000000000000455,"midi":26,"time":210.48,"velocity":0.31496062992125984},{"duration":0.12000000000000455,"midi":26,"time":210.72,"velocity":0.31496062992125984},{"duration":0.2400000000000091,"midi":38,"time":210.95999999999998,"velocity":0.31496062992125984},{"duration":0.12000000000000455,"midi":27,"time":211.2,"velocity":0.31496062992125984},{"duration":0.11999999999997613,"midi":27,"time":211.56,"velocity":0.31496062992125984},{"duration":0.2400000000000091,"midi":39,"time":211.92,"velocity":0.31496062992125984},{"duration":0.12000000000000455,"midi":29,"time":212.16,"velocity":0.31496062992125984},{"duration":0.11999999999997613,"midi":29,"time":212.4,"velocity":0.31496062992125984},{"duration":0.12000000000000455,"midi":30,"time":212.64,"velocity":0.31496062992125984},{"duration":0.2400000000000091,"midi":42,"time":212.88,"velocity":0.31496062992125984},{"duration":0.11999999999997613,"midi":31,"time":213.12,"velocity":0.31496062992125984},{"duration":0.12000000000000455,"midi":31,"time":213.48,"velocity":0.31496062992125984},{"duration":0.11999999999997613,"midi":43,"time":213.84,"velocity":0.31496062992125984},{"duration":0.12000000000000455,"midi":29,"time":214.07999999999998,"velocity":0.31496062992125984},{"duration":0.12000000000000455,"midi":29,"time":214.32,"velocity":0.31496062992125984},{"duration":0.11999999999997613,"midi":29,"time":214.56,"velocity":0.31496062992125984},{"duration":0.2400000000000091,"midi":41,"time":214.79999999999998,"velocity":0.31496062992125984},{"duration":0.12000000000000455,"midi":24,"time":215.04,"velocity":0.31496062992125984},{"duration":0.11999999999997613,"midi":24,"time":215.4,"velocity":0.31496062992125984},{"duration":0.2400000000000091,"midi":36,"time":215.76,"velocity":0.31496062992125984},{"duration":0.12000000000000455,"midi":24,"time":216,"velocity":0.31496062992125984},{"duration":0.12000000000000455,"midi":24,"time":216.23999999999998,"velocity":0.31496062992125984},{"duration":0.12000000000000455,"midi":24,"time":216.48,"velocity":0.31496062992125984},{"duration":0.23999999999998067,"midi":36,"time":216.72,"velocity":0.31496062992125984},{"duration":0.12000000000000455,"midi":26,"time":216.95999999999998,"velocity":0.31496062992125984},{"duration":0.12000000000000455,"midi":26,"time":217.32,"velocity":0.31496062992125984},{"duration":0.2400000000000091,"midi":38,"time":217.67999999999998,"velocity":0.31496062992125984},{"duration":0.12000000000000455,"midi":26,"time":217.92,"velocity":0.31496062992125984},{"duration":0.12000000000000455,"midi":26,"time":218.16,"velocity":0.31496062992125984},{"duration":0.11999999999997613,"midi":26,"time":218.4,"velocity":0.31496062992125984},{"duration":0.2400000000000091,"midi":38,"time":218.64,"velocity":0.31496062992125984},{"duration":0.12000000000000455,"midi":27,"time":218.88,"velocity":0.31496062992125984},{"duration":0.12000000000000455,"midi":27,"time":219.23999999999998,"velocity":0.31496062992125984},{"duration":0.2400000000000091,"midi":39,"time":219.6,"velocity":0.31496062992125984},{"duration":0.11999999999997613,"midi":29,"time":219.84,"velocity":0.31496062992125984},{"duration":0.12000000000000455,"midi":29,"time":220.07999999999998,"velocity":0.31496062992125984},{"duration":0.12000000000000455,"midi":30,"time":220.32,"velocity":0.31496062992125984},{"duration":0.11999999999997613,"midi":42,"time":220.56,"velocity":0.31496062992125984},{"duration":0.12000000000000455,"midi":31,"time":220.79999999999998,"velocity":0.31496062992125984},{"duration":0.12000000000000455,"midi":31,"time":221.16,"velocity":0.31496062992125984},{"duration":0.2400000000000091,"midi":43,"time":221.51999999999998,"velocity":0.31496062992125984},{"duration":0.36000000000001364,"midi":29,"time":221.76,"velocity":0.30708661417322836},{"duration":0.2400000000000091,"midi":27,"time":238.07999999999998,"velocity":0.31496062992125984},{"duration":0.23999999999998067,"midi":27,"time":238.44,"velocity":0.31496062992125984},{"duration":0.2400000000000091,"midi":27,"time":238.79999999999998,"velocity":0.31496062992125984},{"duration":0.23999999999998067,"midi":27,"time":239.28,"velocity":0.31496062992125984},{"duration":0.2400000000000091,"midi":31,"time":239.51999999999998,"velocity":0.31496062992125984},{"duration":0.2400000000000091,"midi":27,"time":239.76,"velocity":0.31496062992125984},{"duration":0.23999999999998067,"midi":29,"time":240,"velocity":0.31496062992125984},{"duration":0.2400000000000091,"midi":29,"time":240.35999999999999,"velocity":0.31496062992125984},{"duration":0.23999999999998067,"midi":29,"time":240.72,"velocity":0.31496062992125984},{"duration":0.2400000000000091,"midi":34,"time":241.2,"velocity":0.31496062992125984},{"duration":0.23999999999998067,"midi":33,"time":241.44,"velocity":0.31496062992125984},{"duration":0.2400000000000091,"midi":29,"time":241.67999999999998,"velocity":0.31496062992125984},{"duration":0.2400000000000091,"midi":31,"time":241.92,"velocity":0.31496062992125984},{"duration":0.23999999999998067,"midi":31,"time":242.28,"velocity":0.31496062992125984},{"duration":0.2400000000000091,"midi":31,"time":242.64,"velocity":0.31496062992125984},{"duration":0.23999999999998067,"midi":31,"time":243.12,"velocity":0.31496062992125984},{"duration":0.2400000000000091,"midi":34,"time":243.35999999999999,"velocity":0.31496062992125984},{"duration":0.2400000000000091,"midi":31,"time":243.6,"velocity":0.31496062992125984},{"duration":0.23999999999998067,"midi":26,"time":243.84,"velocity":0.31496062992125984},{"duration":0.2400000000000091,"midi":26,"time":244.2,"velocity":0.31496062992125984},{"duration":0.23999999999998067,"midi":26,"time":244.56,"velocity":0.31496062992125984},{"duration":0.2400000000000091,"midi":33,"time":244.79999999999998,"velocity":0.31496062992125984},{"duration":0.2400000000000091,"midi":36,"time":245.04,"velocity":0.31496062992125984},{"duration":0.23999999999998067,"midi":33,"time":245.28,"velocity":0.31496062992125984},{"duration":0.2400000000000091,"midi":29,"time":245.51999999999998,"velocity":0.31496062992125984},{"duration":0.2400000000000091,"midi":27,"time":245.76,"velocity":0.31496062992125984},{"duration":0.23999999999998067,"midi":27,"time":246.12,"velocity":0.31496062992125984},{"duration":0.2400000000000091,"midi":27,"time":246.48,"velocity":0.31496062992125984},{"duration":0.2400000000000091,"midi":27,"time":246.95999999999998,"velocity":0.31496062992125984},{"duration":0.2400000000000091,"midi":31,"time":247.2,"velocity":0.31496062992125984},{"duration":0.23999999999998067,"midi":27,"time":247.44,"velocity":0.31496062992125984},{"duration":0.2400000000000091,"midi":29,"time":247.67999999999998,"velocity":0.31496062992125984},{"duration":0.2400000000000091,"midi":29,"time":248.04,"velocity":0.31496062992125984},{"duration":0.2400000000000091,"midi":29,"time":248.39999999999998,"velocity":0.31496062992125984},{"duration":0.2400000000000091,"midi":34,"time":248.88,"velocity":0.31496062992125984},{"duration":0.23999999999998067,"midi":33,"time":249.12,"velocity":0.31496062992125984},{"duration":0.2400000000000091,"midi":29,"time":249.35999999999999,"velocity":0.31496062992125984},{"duration":0.2400000000000091,"midi":24,"time":249.6,"velocity":0.31496062992125984},{"duration":0.2400000000000091,"midi":24,"time":249.95999999999998,"velocity":0.31496062992125984},{"duration":0.2400000000000091,"midi":24,"time":250.32,"velocity":0.31496062992125984},{"duration":0.11999999999997613,"midi":29,"time":250.56,"velocity":0.31496062992125984},{"duration":0.12000000000000455,"midi":29,"time":250.79999999999998,"velocity":0.31496062992125984},{"duration":0.12000000000000455,"midi":30,"time":251.04,"velocity":0.31496062992125984},{"duration":0.11999999999997613,"midi":30,"time":251.28,"velocity":0.31496062992125984},{"duration":0.2400000000000091,"midi":31,"time":251.51999999999998,"velocity":0.31496062992125984},{"duration":0.2400000000000091,"midi":26,"time":251.88,"velocity":0.31496062992125984},{"duration":0.2400000000000091,"midi":31,"time":252.23999999999998,"velocity":0.31496062992125984},{"duration":0.2400000000000091,"midi":29,"time":252.48,"velocity":0.31496062992125984},{"duration":0.23999999999998067,"midi":29,"time":252.72,"velocity":0.31496062992125984},{"duration":0.2400000000000091,"midi":24,"time":252.95999999999998,"velocity":0.31496062992125984},{"duration":0.2400000000000091,"midi":29,"time":253.2,"velocity":0.31496062992125984},{"duration":0.23999999999998067,"midi":24,"time":253.44,"velocity":0.31496062992125984},{"duration":0.2400000000000091,"midi":24,"time":253.79999999999998,"velocity":0.31496062992125984},{"duration":0.23999999999998067,"midi":24,"time":254.16,"velocity":0.31496062992125984},{"duration":0.12000000000000455,"midi":29,"time":254.39999999999998,"velocity":0.31496062992125984},{"duration":0.12000000000000455,"midi":29,"time":254.64,"velocity":0.31496062992125984},{"duration":0.12000000000000455,"midi":30,"time":254.88,"velocity":0.31496062992125984},{"duration":0.11999999999997613,"midi":30,"time":255.12,"velocity":0.31496062992125984},{"duration":0.2400000000000091,"midi":31,"time":255.35999999999999,"velocity":0.31496062992125984},{"duration":0.23999999999998067,"midi":26,"time":255.72,"velocity":0.31496062992125984},{"duration":0.2400000000000091,"midi":31,"time":256.08,"velocity":0.31496062992125984},{"duration":0.2400000000000091,"midi":29,"time":256.32,"velocity":0.31496062992125984},{"duration":0.2400000000000091,"midi":29,"time":256.56,"velocity":0.31496062992125984},{"duration":0.23999999999995225,"midi":24,"time":256.8,"velocity":0.31496062992125984},{"duration":0.2400000000000091,"midi":29,"time":257.03999999999996,"velocity":0.31496062992125984},{"duration":0.12000000000000455,"midi":31,"time":261.12,"velocity":0.31496062992125984},{"duration":0.1199999999999477,"midi":31,"time":261.48,"velocity":0.31496062992125984},{"duration":0.12000000000000455,"midi":29,"time":261.84,"velocity":0.31496062992125984},{"duration":0.12000000000000455,"midi":31,"time":262.08,"velocity":0.31496062992125984},{"duration":0.12000000000000455,"midi":31,"time":262.32,"velocity":0.31496062992125984},{"duration":0.12000000000000455,"midi":26,"time":262.56,"velocity":0.31496062992125984},{"duration":0.12000000000000455,"midi":29,"time":262.8,"velocity":0.31496062992125984},{"duration":0.12000000000000455,"midi":31,"time":263.03999999999996,"velocity":0.31496062992125984},{"duration":0.12000000000000455,"midi":31,"time":263.4,"velocity":0.31496062992125984},{"duration":0.12000000000000455,"midi":29,"time":263.76,"velocity":0.31496062992125984},{"duration":0.12000000000000455,"midi":31,"time":264,"velocity":0.31496062992125984},{"duration":0.12000000000000455,"midi":31,"time":264.24,"velocity":0.31496062992125984},{"duration":0.1199999999999477,"midi":31,"time":264.48,"velocity":0.31496062992125984},{"duration":0.12000000000000455,"midi":29,"time":264.71999999999997,"velocity":0.31496062992125984},{"duration":0.12000000000000455,"midi":31,"time":264.96,"velocity":0.31496062992125984},{"duration":0.12000000000000455,"midi":31,"time":265.32,"velocity":0.31496062992125984},{"duration":0.12000000000000455,"midi":29,"time":265.68,"velocity":0.31496062992125984},{"duration":0.1199999999999477,"midi":31,"time":265.92,"velocity":0.31496062992125984},{"duration":0.12000000000000455,"midi":31,"time":266.15999999999997,"velocity":0.31496062992125984},{"duration":0.12000000000000455,"midi":26,"time":266.4,"velocity":0.31496062992125984},{"duration":0.12000000000000455,"midi":29,"time":266.64,"velocity":0.31496062992125984},{"duration":0.12000000000000455,"midi":31,"time":266.88,"velocity":0.31496062992125984},{"duration":0.12000000000000455,"midi":31,"time":267.24,"velocity":0.31496062992125984},{"duration":0.12000000000000455,"midi":29,"time":267.59999999999997,"velocity":0.31496062992125984},{"duration":0.12000000000000455,"midi":31,"time":267.84,"velocity":0.31496062992125984},{"duration":0.12000000000000455,"midi":31,"time":268.08,"velocity":0.31496062992125984},{"duration":0.12000000000000455,"midi":31,"time":268.32,"velocity":0.31496062992125984},{"duration":0.12000000000000455,"midi":29,"time":268.56,"velocity":0.31496062992125984},{"duration":0.12000000000000455,"midi":27,"time":268.8,"velocity":0.31496062992125984},{"duration":0.12000000000000455,"midi":27,"time":269.15999999999997,"velocity":0.31496062992125984},{"duration":0.12000000000000455,"midi":26,"time":269.52,"velocity":0.31496062992125984},{"duration":0.12000000000000455,"midi":27,"time":269.76,"velocity":0.31496062992125984},{"duration":0.12000000000000455,"midi":27,"time":270,"velocity":0.31496062992125984},{"duration":0.12000000000000455,"midi":26,"time":270.24,"velocity":0.31496062992125984},{"duration":0.1199999999999477,"midi":29,"time":270.48,"velocity":0.31496062992125984},{"duration":0.12000000000000455,"midi":27,"time":270.71999999999997,"velocity":0.31496062992125984},{"duration":0.12000000000000455,"midi":27,"time":271.08,"velocity":0.31496062992125984},{"duration":0.12000000000000455,"midi":26,"time":271.44,"velocity":0.31496062992125984},{"duration":0.12000000000000455,"midi":27,"time":271.68,"velocity":0.31496062992125984},{"duration":0.1199999999999477,"midi":27,"time":271.92,"velocity":0.31496062992125984},{"duration":0.12000000000000455,"midi":27,"time":272.15999999999997,"velocity":0.31496062992125984},{"duration":0.12000000000000455,"midi":29,"time":272.4,"velocity":0.31496062992125984},{"duration":0.12000000000000455,"midi":27,"time":272.64,"velocity":0.31496062992125984},{"duration":0.12000000000000455,"midi":27,"time":273,"velocity":0.31496062992125984},{"duration":0.12000000000000455,"midi":26,"time":273.36,"velocity":0.31496062992125984},{"duration":0.12000000000000455,"midi":27,"time":273.59999999999997,"velocity":0.31496062992125984},{"duration":0.12000000000000455,"midi":27,"time":273.84,"velocity":0.31496062992125984},{"duration":0.12000000000000455,"midi":26,"time":274.08,"velocity":0.31496062992125984},{"duration":0.12000000000000455,"midi":29,"time":274.32,"velocity":0.31496062992125984},{"duration":0.12000000000000455,"midi":27,"time":274.56,"velocity":0.31496062992125984},{"duration":0.1199999999999477,"midi":27,"time":274.92,"velocity":0.31496062992125984},{"duration":0.12000000000000455,"midi":26,"time":275.28,"velocity":0.31496062992125984},{"duration":0.12000000000000455,"midi":27,"time":275.52,"velocity":0.31496062992125984},{"duration":0.12000000000000455,"midi":27,"time":275.76,"velocity":0.31496062992125984},{"duration":0.12000000000000455,"midi":27,"time":276,"velocity":0.31496062992125984},{"duration":0.12000000000000455,"midi":29,"time":276.24,"velocity":0.31496062992125984},{"duration":0.1199999999999477,"midi":31,"time":276.48,"velocity":0.31496062992125984},{"duration":0.12000000000000455,"midi":31,"time":276.84,"velocity":0.31496062992125984},{"duration":0.12000000000000455,"midi":29,"time":277.2,"velocity":0.31496062992125984},{"duration":0.12000000000000455,"midi":31,"time":277.44,"velocity":0.31496062992125984},{"duration":0.12000000000000455,"midi":31,"time":277.68,"velocity":0.31496062992125984},{"duration":0.1199999999999477,"midi":26,"time":277.92,"velocity":0.31496062992125984},{"duration":0.12000000000000455,"midi":29,"time":278.15999999999997,"velocity":0.31496062992125984},{"duration":0.12000000000000455,"midi":31,"time":278.4,"velocity":0.31496062992125984},{"duration":0.12000000000000455,"midi":31,"time":278.76,"velocity":0.31496062992125984},{"duration":0.12000000000000455,"midi":29,"time":279.12,"velocity":0.31496062992125984},{"duration":0.1199999999999477,"midi":31,"time":279.36,"velocity":0.31496062992125984},{"duration":0.12000000000000455,"midi":31,"time":279.59999999999997,"velocity":0.31496062992125984},{"duration":0.12000000000000455,"midi":31,"time":279.84,"velocity":0.31496062992125984},{"duration":0.12000000000000455,"midi":29,"time":280.08,"velocity":0.31496062992125984},{"duration":0.12000000000000455,"midi":31,"time":280.32,"velocity":0.31496062992125984},{"duration":0.12000000000000455,"midi":31,"time":280.68,"velocity":0.31496062992125984},{"duration":0.12000000000000455,"midi":29,"time":281.03999999999996,"velocity":0.31496062992125984},{"duration":0.12000000000000455,"midi":31,"time":281.28,"velocity":0.31496062992125984},{"duration":0.12000000000000455,"midi":31,"time":281.52,"velocity":0.31496062992125984},{"duration":0.12000000000000455,"midi":26,"time":281.76,"velocity":0.31496062992125984},{"duration":0.12000000000000455,"midi":29,"time":282,"velocity":0.31496062992125984},{"duration":0.12000000000000455,"midi":31,"time":282.24,"velocity":0.31496062992125984},{"duration":0.12000000000000455,"midi":31,"time":282.59999999999997,"velocity":0.31496062992125984},{"duration":0.12000000000000455,"midi":29,"time":282.96,"velocity":0.31496062992125984},{"duration":0.12000000000000455,"midi":31,"time":283.2,"velocity":0.31496062992125984},{"duration":0.12000000000000455,"midi":31,"time":283.44,"velocity":0.31496062992125984},{"duration":0.12000000000000455,"midi":31,"time":283.68,"velocity":0.31496062992125984},{"duration":0.1199999999999477,"midi":29,"time":283.92,"velocity":0.31496062992125984},{"duration":0.12000000000000455,"midi":27,"time":284.15999999999997,"velocity":0.31496062992125984},{"duration":0.12000000000000455,"midi":27,"time":284.52,"velocity":0.31496062992125984},{"duration":0.12000000000000455,"midi":26,"time":284.88,"velocity":0.31496062992125984},{"duration":0.12000000000000455,"midi":27,"time":285.12,"velocity":0.31496062992125984},{"duration":0.1199999999999477,"midi":27,"time":285.36,"velocity":0.31496062992125984},{"duration":0.12000000000000455,"midi":26,"time":285.59999999999997,"velocity":0.31496062992125984},{"duration":0.12000000000000455,"midi":29,"time":285.84,"velocity":0.31496062992125984},{"duration":0.12000000000000455,"midi":27,"time":286.08,"velocity":0.31496062992125984},{"duration":0.12000000000000455,"midi":27,"time":286.44,"velocity":0.31496062992125984},{"duration":0.12000000000000455,"midi":26,"time":286.8,"velocity":0.31496062992125984},{"duration":0.12000000000000455,"midi":27,"time":287.03999999999996,"velocity":0.31496062992125984},{"duration":0.12000000000000455,"midi":27,"time":287.28,"velocity":0.31496062992125984},{"duration":0.12000000000000455,"midi":27,"time":287.52,"velocity":0.31496062992125984},{"duration":0.12000000000000455,"midi":29,"time":287.76,"velocity":0.31496062992125984},{"duration":0.12000000000000455,"midi":27,"time":288,"velocity":0.31496062992125984},{"duration":0.1199999999999477,"midi":27,"time":288.36,"velocity":0.31496062992125984},{"duration":0.12000000000000455,"midi":26,"time":288.71999999999997,"velocity":0.31496062992125984},{"duration":0.12000000000000455,"midi":27,"time":288.96,"velocity":0.31496062992125984},{"duration":0.12000000000000455,"midi":27,"time":289.2,"velocity":0.31496062992125984},{"duration":0.12000000000000455,"midi":26,"time":289.44,"velocity":0.31496062992125984},{"duration":0.12000000000000455,"midi":29,"time":289.68,"velocity":0.31496062992125984},{"duration":0.1199999999999477,"midi":27,"time":289.92,"velocity":0.31496062992125984},{"duration":0.12000000000000455,"midi":27,"time":290.28,"velocity":0.31496062992125984},{"duration":0.12000000000000455,"midi":26,"time":290.64,"velocity":0.31496062992125984},{"duration":0.12000000000000455,"midi":27,"time":290.88,"velocity":0.31496062992125984},{"duration":0.12000000000000455,"midi":27,"time":291.12,"velocity":0.31496062992125984},{"duration":0.1199999999999477,"midi":27,"time":291.36,"velocity":0.31496062992125984},{"duration":0.12000000000000455,"midi":29,"time":291.59999999999997,"velocity":0.31496062992125984}]},{"instrument":{"family":"drums","number":0,"name":"standard kit"},"notes":[{"duration":0.2400000000000002,"midi":49,"time":15.36,"velocity":0.3228346456692913},{"duration":0.11999999999999922,"midi":61,"time":15.36,"velocity":0.2992125984251969},{"duration":0.11999999999999922,"midi":36,"time":15.36,"velocity":0.31496062992125984},{"duration":0.120000000000001,"midi":60,"time":15.479999999999999,"velocity":0.2992125984251969},{"duration":0.11999999999999922,"midi":42,"time":15.6,"velocity":0.31496062992125984},{"duration":0.11999999999999922,"midi":54,"time":15.6,"velocity":0.2755905511811024},{"duration":0.120000000000001,"midi":42,"time":15.719999999999999,"velocity":0.31496062992125984},{"duration":0.120000000000001,"midi":54,"time":15.719999999999999,"velocity":0.2755905511811024},{"duration":0.120000000000001,"midi":61,"time":15.719999999999999,"velocity":0.2992125984251969},{"duration":0.11999999999999922,"midi":61,"time":15.84,"velocity":0.2992125984251969},{"duration":0.11999999999999922,"midi":40,"time":15.84,"velocity":0.3228346456692913},{"duration":0.11999999999999922,"midi":54,"time":15.84,"velocity":0.2755905511811024},{"duration":0.11999999999999922,"midi":46,"time":15.84,"velocity":0.31496062992125984},{"duration":0.120000000000001,"midi":54,"time":16.08,"velocity":0.2755905511811024},{"duration":0.120000000000001,"midi":61,"time":16.08,"velocity":0.2204724409448819},{"duration":0.120000000000001,"midi":42,"time":16.08,"velocity":0.31496062992125984},{"duration":0.120000000000001,"midi":61,"time":16.2,"velocity":0.2204724409448819},{"duration":0.120000000000001,"midi":54,"time":16.2,"velocity":0.2755905511811024},{"duration":0.120000000000001,"midi":42,"time":16.2,"velocity":0.31496062992125984},{"duration":0.11999999999999744,"midi":61,"time":16.32,"velocity":0.2992125984251969},{"duration":0.11999999999999744,"midi":36,"time":16.32,"velocity":0.31496062992125984},{"duration":0.120000000000001,"midi":60,"time":16.439999999999998,"velocity":0.2992125984251969},{"duration":0.120000000000001,"midi":42,"time":16.56,"velocity":0.31496062992125984},{"duration":0.120000000000001,"midi":54,"time":16.56,"velocity":0.2755905511811024},{"duration":0.120000000000001,"midi":54,"time":16.68,"velocity":0.2755905511811024},{"duration":0.120000000000001,"midi":42,"time":16.68,"velocity":0.31496062992125984},{"duration":0.120000000000001,"midi":61,"time":16.68,"velocity":0.2992125984251969},{"duration":0.11999999999999744,"midi":61,"time":16.8,"velocity":0.2992125984251969},{"duration":0.11999999999999744,"midi":54,"time":16.8,"velocity":0.2755905511811024},{"duration":0.11999999999999744,"midi":40,"time":16.8,"velocity":0.3228346456692913},{"duration":0.11999999999999744,"midi":46,"time":16.8,"velocity":0.31496062992125984},{"duration":0.120000000000001,"midi":42,"time":17.04,"velocity":0.31496062992125984},{"duration":0.120000000000001,"midi":61,"time":17.04,"velocity":0.2204724409448819},{"duration":0.120000000000001,"midi":54,"time":17.04,"velocity":0.2755905511811024},{"duration":0.120000000000001,"midi":61,"time":17.16,"velocity":0.2204724409448819},{"duration":0.120000000000001,"midi":54,"time":17.16,"velocity":0.2755905511811024},{"duration":0.120000000000001,"midi":42,"time":17.16,"velocity":0.31496062992125984},{"duration":0.11999999999999744,"midi":61,"time":17.28,"velocity":0.2992125984251969},{"duration":0.11999999999999744,"midi":36,"time":17.28,"velocity":0.31496062992125984},{"duration":0.120000000000001,"midi":60,"time":17.4,"velocity":0.2992125984251969},{"duration":0.120000000000001,"midi":54,"time":17.52,"velocity":0.2755905511811024},{"duration":0.120000000000001,"midi":42,"time":17.52,"velocity":0.31496062992125984},{"duration":0.11999999999999744,"midi":54,"time":17.64,"velocity":0.2755905511811024},{"duration":0.11999999999999744,"midi":61,"time":17.64,"velocity":0.2992125984251969},{"duration":0.11999999999999744,"midi":42,"time":17.64,"velocity":0.31496062992125984},{"duration":0.120000000000001,"midi":54,"time":17.759999999999998,"velocity":0.2755905511811024},{"duration":0.120000000000001,"midi":46,"time":17.759999999999998,"velocity":0.31496062992125984},{"duration":0.120000000000001,"midi":40,"time":17.759999999999998,"velocity":0.3228346456692913},{"duration":0.120000000000001,"midi":61,"time":17.759999999999998,"velocity":0.2992125984251969},{"duration":0.120000000000001,"midi":54,"time":18,"velocity":0.2755905511811024},{"duration":0.120000000000001,"midi":42,"time":18,"velocity":0.31496062992125984},{"duration":0.120000000000001,"midi":61,"time":18,"velocity":0.2204724409448819},{"duration":0.11999999999999744,"midi":54,"time":18.12,"velocity":0.2755905511811024},{"duration":0.11999999999999744,"midi":42,"time":18.12,"velocity":0.31496062992125984},{"duration":0.11999999999999744,"midi":61,"time":18.12,"velocity":0.2204724409448819},{"duration":0.120000000000001,"midi":36,"time":18.24,"velocity":0.31496062992125984},{"duration":0.120000000000001,"midi":61,"time":18.24,"velocity":0.2992125984251969},{"duration":0.120000000000001,"midi":60,"time":18.36,"velocity":0.2992125984251969},{"duration":0.11999999999999744,"midi":54,"time":18.48,"velocity":0.2755905511811024},{"duration":0.11999999999999744,"midi":42,"time":18.48,"velocity":0.31496062992125984},{"duration":0.120000000000001,"midi":54,"time":18.599999999999998,"velocity":0.2755905511811024},{"duration":0.120000000000001,"midi":42,"time":18.599999999999998,"velocity":0.31496062992125984},{"duration":0.120000000000001,"midi":61,"time":18.599999999999998,"velocity":0.2992125984251969},{"duration":0.120000000000001,"midi":40,"time":18.72,"velocity":0.3228346456692913},{"duration":0.120000000000001,"midi":46,"time":18.72,"velocity":0.31496062992125984},{"duration":0.120000000000001,"midi":61,"time":18.72,"velocity":0.2992125984251969},{"duration":0.120000000000001,"midi":54,"time":18.72,"velocity":0.2755905511811024},{"duration":0.11999999999999744,"midi":54,"time":18.96,"velocity":0.2755905511811024},{"duration":0.11999999999999744,"midi":61,"time":18.96,"velocity":0.2204724409448819},{"duration":0.11999999999999744,"midi":42,"time":18.96,"velocity":0.31496062992125984},{"duration":0.120000000000001,"midi":61,"time":19.08,"velocity":0.2204724409448819},{"duration":0.120000000000001,"midi":54,"time":19.08,"velocity":0.2755905511811024},{"duration":0.120000000000001,"midi":42,"time":19.08,"velocity":0.31496062992125984},{"duration":0.120000000000001,"midi":61,"time":19.2,"velocity":0.2992125984251969},{"duration":0.120000000000001,"midi":36,"time":19.2,"velocity":0.31496062992125984},{"duration":0.11999999999999744,"midi":60,"time":19.32,"velocity":0.2992125984251969},{"duration":0.120000000000001,"midi":42,"time":19.439999999999998,"velocity":0.31496062992125984},{"duration":0.120000000000001,"midi":54,"time":19.439999999999998,"velocity":0.2755905511811024},{"duration":0.120000000000001,"midi":54,"time":19.56,"velocity":0.2755905511811024},{"duration":0.120000000000001,"midi":61,"time":19.56,"velocity":0.2992125984251969},{"duration":0.120000000000001,"midi":42,"time":19.56,"velocity":0.31496062992125984},{"duration":0.120000000000001,"midi":40,"time":19.68,"velocity":0.3228346456692913},{"duration":0.120000000000001,"midi":46,"time":19.68,"velocity":0.31496062992125984},{"duration":0.120000000000001,"midi":54,"time":19.68,"velocity":0.2755905511811024},{"duration":0.120000000000001,"midi":61,"time":19.68,"velocity":0.2992125984251969},{"duration":0.120000000000001,"midi":54,"time":19.919999999999998,"velocity":0.2755905511811024},{"duration":0.120000000000001,"midi":42,"time":19.919999999999998,"velocity":0.31496062992125984},{"duration":0.120000000000001,"midi":61,"time":19.919999999999998,"velocity":0.2204724409448819},{"duration":0.120000000000001,"midi":54,"time":20.04,"velocity":0.2755905511811024},{"duration":0.120000000000001,"midi":42,"time":20.04,"velocity":0.31496062992125984},{"duration":0.120000000000001,"midi":61,"time":20.04,"velocity":0.2204724409448819},{"duration":0.11999999999999744,"midi":61,"time":20.16,"velocity":0.2992125984251969},{"duration":0.11999999999999744,"midi":36,"time":20.16,"velocity":0.31496062992125984},{"duration":0.120000000000001,"midi":60,"time":20.279999999999998,"velocity":0.2992125984251969},{"duration":0.120000000000001,"midi":42,"time":20.4,"velocity":0.31496062992125984},{"duration":0.120000000000001,"midi":54,"time":20.4,"velocity":0.2755905511811024},{"duration":0.120000000000001,"midi":54,"time":20.52,"velocity":0.2755905511811024},{"duration":0.120000000000001,"midi":42,"time":20.52,"velocity":0.31496062992125984},{"duration":0.120000000000001,"midi":61,"time":20.52,"velocity":0.2992125984251969},{"duration":0.11999999999999744,"midi":46,"time":20.64,"velocity":0.31496062992125984},{"duration":0.11999999999999744,"midi":61,"time":20.64,"velocity":0.2992125984251969},{"duration":0.11999999999999744,"midi":54,"time":20.64,"velocity":0.2755905511811024},{"duration":0.11999999999999744,"midi":40,"time":20.64,"velocity":0.3228346456692913},{"duration":0.120000000000001,"midi":42,"time":20.88,"velocity":0.31496062992125984},{"duration":0.120000000000001,"midi":61,"time":20.88,"velocity":0.2204724409448819},{"duration":0.120000000000001,"midi":54,"time":20.88,"velocity":0.2755905511811024},{"duration":0.11999999999999744,"midi":61,"time":21,"velocity":0.2204724409448819},{"duration":0.11999999999999744,"midi":54,"time":21,"velocity":0.2755905511811024},{"duration":0.11999999999999744,"midi":42,"time":21,"velocity":0.31496062992125984},{"duration":0.120000000000001,"midi":36,"time":21.119999999999997,"velocity":0.31496062992125984},{"duration":0.120000000000001,"midi":61,"time":21.119999999999997,"velocity":0.2992125984251969},{"duration":0.120000000000001,"midi":60,"time":21.24,"velocity":0.2992125984251969},{"duration":0.120000000000001,"midi":42,"time":21.36,"velocity":0.31496062992125984},{"duration":0.120000000000001,"midi":54,"time":21.36,"velocity":0.2755905511811024},{"duration":0.11999999999999744,"midi":61,"time":21.48,"velocity":0.2992125984251969},{"duration":0.11999999999999744,"midi":54,"time":21.48,"velocity":0.2755905511811024},{"duration":0.11999999999999744,"midi":42,"time":21.48,"velocity":0.31496062992125984},{"duration":0.120000000000001,"midi":54,"time":21.599999999999998,"velocity":0.2755905511811024},{"duration":0.120000000000001,"midi":40,"time":21.599999999999998,"velocity":0.3228346456692913},{"duration":0.120000000000001,"midi":46,"time":21.599999999999998,"velocity":0.31496062992125984},{"duration":0.120000000000001,"midi":61,"time":21.599999999999998,"velocity":0.2992125984251969},{"duration":0.120000000000001,"midi":61,"time":21.84,"velocity":0.2204724409448819},{"duration":0.120000000000001,"midi":42,"time":21.84,"velocity":0.31496062992125984},{"duration":0.120000000000001,"midi":54,"time":21.84,"velocity":0.2755905511811024},{"duration":0.11999999999999744,"midi":42,"time":21.96,"velocity":0.31496062992125984},{"duration":0.11999999999999744,"midi":54,"time":21.96,"velocity":0.2755905511811024},{"duration":0.11999999999999744,"midi":61,"time":21.96,"velocity":0.2204724409448819},{"duration":0.120000000000001,"midi":61,"time":22.08,"velocity":0.2992125984251969},{"duration":0.120000000000001,"midi":36,"time":22.08,"velocity":0.31496062992125984},{"duration":0.120000000000001,"midi":60,"time":22.2,"velocity":0.2992125984251969},{"duration":0.11999999999999744,"midi":42,"time":22.32,"velocity":0.31496062992125984},{"duration":0.11999999999999744,"midi":54,"time":22.32,"velocity":0.2755905511811024},{"duration":0.120000000000001,"midi":54,"time":22.439999999999998,"velocity":0.2755905511811024},{"duration":0.120000000000001,"midi":42,"time":22.439999999999998,"velocity":0.31496062992125984},{"duration":0.120000000000001,"midi":61,"time":22.439999999999998,"velocity":0.2992125984251969},{"duration":0.120000000000001,"midi":54,"time":22.56,"velocity":0.2755905511811024},{"duration":0.120000000000001,"midi":61,"time":22.56,"velocity":0.2992125984251969},{"duration":0.120000000000001,"midi":46,"time":22.56,"velocity":0.31496062992125984},{"duration":0.120000000000001,"midi":40,"time":22.56,"velocity":0.3228346456692913},{"duration":0.11999999999999744,"midi":42,"time":22.8,"velocity":0.31496062992125984},{"duration":0.11999999999999744,"midi":61,"time":22.8,"velocity":0.2204724409448819},{"duration":0.11999999999999744,"midi":54,"time":22.8,"velocity":0.2755905511811024},{"duration":0.120000000000001,"midi":54,"time":22.919999999999998,"velocity":0.2755905511811024},{"duration":0.120000000000001,"midi":42,"time":22.919999999999998,"velocity":0.31496062992125984},{"duration":0.120000000000001,"midi":61,"time":22.919999999999998,"velocity":0.2204724409448819},{"duration":0.120000000000001,"midi":36,"time":23.04,"velocity":0.31496062992125984},{"duration":0.120000000000001,"midi":61,"time":23.04,"velocity":0.2992125984251969},{"duration":0.11999999999999744,"midi":60,"time":23.16,"velocity":0.2992125984251969},{"duration":0.120000000000001,"midi":54,"time":23.279999999999998,"velocity":0.2755905511811024},{"duration":0.120000000000001,"midi":42,"time":23.279999999999998,"velocity":0.31496062992125984},{"duration":0.120000000000001,"midi":61,"time":23.4,"velocity":0.2992125984251969},{"duration":0.120000000000001,"midi":54,"time":23.4,"velocity":0.2755905511811024},{"duration":0.120000000000001,"midi":42,"time":23.4,"velocity":0.31496062992125984},{"duration":0.120000000000001,"midi":46,"time":23.52,"velocity":0.31496062992125984},{"duration":0.120000000000001,"midi":54,"time":23.52,"velocity":0.2755905511811024},{"duration":0.120000000000001,"midi":61,"time":23.52,"velocity":0.2992125984251969},{"duration":0.120000000000001,"midi":40,"time":23.52,"velocity":0.3228346456692913},{"duration":0.120000000000001,"midi":54,"time":23.759999999999998,"velocity":0.2755905511811024},{"duration":0.120000000000001,"midi":42,"time":23.759999999999998,"velocity":0.31496062992125984},{"duration":0.120000000000001,"midi":61,"time":23.759999999999998,"velocity":0.2204724409448819},{"duration":0.120000000000001,"midi":54,"time":23.88,"velocity":0.2755905511811024},{"duration":0.120000000000001,"midi":61,"time":23.88,"velocity":0.2204724409448819},{"duration":0.120000000000001,"midi":42,"time":23.88,"velocity":0.31496062992125984},{"duration":0.11999999999999744,"midi":36,"time":24,"velocity":0.31496062992125984},{"duration":0.11999999999999744,"midi":61,"time":24,"velocity":0.2992125984251969},{"duration":0.120000000000001,"midi":60,"time":24.119999999999997,"velocity":0.2992125984251969},{"duration":0.120000000000001,"midi":42,"time":24.24,"velocity":0.31496062992125984},{"duration":0.120000000000001,"midi":54,"time":24.24,"velocity":0.2755905511811024},{"duration":0.120000000000001,"midi":61,"time":24.36,"velocity":0.2992125984251969},{"duration":0.120000000000001,"midi":42,"time":24.36,"velocity":0.31496062992125984},{"duration":0.120000000000001,"midi":54,"time":24.36,"velocity":0.2755905511811024},{"duration":0.11999999999999744,"midi":40,"time":24.48,"velocity":0.3228346456692913},{"duration":0.11999999999999744,"midi":61,"time":24.48,"velocity":0.2992125984251969},{"duration":0.11999999999999744,"midi":54,"time":24.48,"velocity":0.2755905511811024},{"duration":0.11999999999999744,"midi":46,"time":24.48,"velocity":0.31496062992125984},{"duration":0.120000000000001,"midi":42,"time":24.72,"velocity":0.31496062992125984},{"duration":0.120000000000001,"midi":61,"time":24.72,"velocity":0.2204724409448819},{"duration":0.120000000000001,"midi":54,"time":24.72,"velocity":0.2755905511811024},{"duration":0.120000000000001,"midi":61,"time":24.84,"velocity":0.2204724409448819},{"duration":0.120000000000001,"midi":42,"time":24.84,"velocity":0.31496062992125984},{"duration":0.120000000000001,"midi":54,"time":24.84,"velocity":0.2755905511811024},{"duration":0.11999999999999744,"midi":36,"time":24.96,"velocity":0.31496062992125984},{"duration":0.11999999999999744,"midi":61,"time":24.96,"velocity":0.2992125984251969},{"duration":0.120000000000001,"midi":60,"time":25.08,"velocity":0.2992125984251969},{"duration":0.120000000000001,"midi":42,"time":25.2,"velocity":0.31496062992125984},{"duration":0.120000000000001,"midi":54,"time":25.2,"velocity":0.2755905511811024},{"duration":0.11999999999999744,"midi":54,"time":25.32,"velocity":0.2755905511811024},{"duration":0.11999999999999744,"midi":42,"time":25.32,"velocity":0.31496062992125984},{"duration":0.11999999999999744,"midi":61,"time":25.32,"velocity":0.2992125984251969},{"duration":0.120000000000001,"midi":40,"time":25.439999999999998,"velocity":0.3228346456692913},{"duration":0.120000000000001,"midi":46,"time":25.439999999999998,"velocity":0.31496062992125984},{"duration":0.120000000000001,"midi":61,"time":25.439999999999998,"velocity":0.2992125984251969},{"duration":0.120000000000001,"midi":54,"time":25.439999999999998,"velocity":0.2755905511811024},{"duration":0.120000000000001,"midi":42,"time":25.68,"velocity":0.31496062992125984},{"duration":0.120000000000001,"midi":54,"time":25.68,"velocity":0.2755905511811024},{"duration":0.120000000000001,"midi":61,"time":25.68,"velocity":0.2204724409448819},{"duration":0.11999999999999744,"midi":61,"time":25.8,"velocity":0.2204724409448819},{"duration":0.11999999999999744,"midi":42,"time":25.8,"velocity":0.31496062992125984},{"duration":0.11999999999999744,"midi":54,"time":25.8,"velocity":0.2755905511811024},{"duration":0.120000000000001,"midi":61,"time":25.919999999999998,"velocity":0.2992125984251969},{"duration":0.120000000000001,"midi":36,"time":25.919999999999998,"velocity":0.31496062992125984},{"duration":0.120000000000001,"midi":60,"time":26.04,"velocity":0.2992125984251969},{"duration":0.11999999999999744,"midi":42,"time":26.16,"velocity":0.31496062992125984},{"duration":0.11999999999999744,"midi":54,"time":26.16,"velocity":0.2755905511811024},{"duration":0.120000000000001,"midi":42,"time":26.279999999999998,"velocity":0.31496062992125984},{"duration":0.120000000000001,"midi":61,"time":26.279999999999998,"velocity":0.2992125984251969},{"duration":0.120000000000001,"midi":54,"time":26.279999999999998,"velocity":0.2755905511811024},{"duration":0.120000000000001,"midi":40,"time":26.4,"velocity":0.3228346456692913},{"duration":0.120000000000001,"midi":46,"time":26.4,"velocity":0.31496062992125984},{"duration":0.120000000000001,"midi":54,"time":26.4,"velocity":0.2755905511811024},{"duration":0.120000000000001,"midi":61,"time":26.4,"velocity":0.2992125984251969},{"duration":0.11999999999999744,"midi":42,"time":26.64,"velocity":0.31496062992125984},{"duration":0.11999999999999744,"midi":54,"time":26.64,"velocity":0.2755905511811024},{"duration":0.11999999999999744,"midi":61,"time":26.64,"velocity":0.2204724409448819},{"duration":0.120000000000001,"midi":42,"time":26.759999999999998,"velocity":0.31496062992125984},{"duration":0.120000000000001,"midi":61,"time":26.759999999999998,"velocity":0.2204724409448819},{"duration":0.120000000000001,"midi":54,"time":26.759999999999998,"velocity":0.2755905511811024},{"duration":0.120000000000001,"midi":36,"time":26.88,"velocity":0.31496062992125984},{"duration":0.120000000000001,"midi":61,"time":26.88,"velocity":0.2992125984251969},{"duration":0.11999999999999744,"midi":60,"time":27,"velocity":0.2992125984251969},{"duration":0.120000000000001,"midi":42,"time":27.119999999999997,"velocity":0.31496062992125984},{"duration":0.120000000000001,"midi":54,"time":27.119999999999997,"velocity":0.2755905511811024},{"duration":0.120000000000001,"midi":42,"time":27.24,"velocity":0.31496062992125984},{"duration":0.120000000000001,"midi":61,"time":27.24,"velocity":0.2992125984251969},{"duration":0.120000000000001,"midi":54,"time":27.24,"velocity":0.2755905511811024},{"duration":0.120000000000001,"midi":54,"time":27.36,"velocity":0.2755905511811024},{"duration":0.120000000000001,"midi":61,"time":27.36,"velocity":0.2992125984251969},{"duration":0.120000000000001,"midi":46,"time":27.36,"velocity":0.31496062992125984},{"duration":0.120000000000001,"midi":40,"time":27.36,"velocity":0.3228346456692913},{"duration":0.120000000000001,"midi":61,"time":27.599999999999998,"velocity":0.2204724409448819},{"duration":0.120000000000001,"midi":42,"time":27.599999999999998,"velocity":0.31496062992125984},{"duration":0.120000000000001,"midi":54,"time":27.599999999999998,"velocity":0.2755905511811024},{"duration":0.120000000000001,"midi":61,"time":27.72,"velocity":0.2204724409448819},{"duration":0.120000000000001,"midi":42,"time":27.72,"velocity":0.31496062992125984},{"duration":0.120000000000001,"midi":54,"time":27.72,"velocity":0.2755905511811024},{"duration":0.11999999999999744,"midi":36,"time":27.84,"velocity":0.31496062992125984},{"duration":0.11999999999999744,"midi":61,"time":27.84,"velocity":0.2992125984251969},{"duration":0.120000000000001,"midi":60,"time":27.959999999999997,"velocity":0.2992125984251969},{"duration":0.120000000000001,"midi":42,"time":28.08,"velocity":0.31496062992125984},{"duration":0.120000000000001,"midi":54,"time":28.08,"velocity":0.2755905511811024},{"duration":0.120000000000001,"midi":61,"time":28.2,"velocity":0.2992125984251969},{"duration":0.120000000000001,"midi":54,"time":28.2,"velocity":0.2755905511811024},{"duration":0.120000000000001,"midi":42,"time":28.2,"velocity":0.31496062992125984},{"duration":0.11999999999999744,"midi":61,"time":28.32,"velocity":0.2992125984251969},{"duration":0.11999999999999744,"midi":40,"time":28.32,"velocity":0.3228346456692913},{"duration":0.11999999999999744,"midi":54,"time":28.32,"velocity":0.2755905511811024},{"duration":0.11999999999999744,"midi":46,"time":28.32,"velocity":0.31496062992125984},{"duration":0.120000000000001,"midi":61,"time":28.56,"velocity":0.2204724409448819},{"duration":0.120000000000001,"midi":42,"time":28.56,"velocity":0.31496062992125984},{"duration":0.120000000000001,"midi":54,"time":28.56,"velocity":0.2755905511811024},{"duration":0.11999999999999744,"midi":54,"time":28.68,"velocity":0.2755905511811024},{"duration":0.11999999999999744,"midi":42,"time":28.68,"velocity":0.31496062992125984},{"duration":0.11999999999999744,"midi":61,"time":28.68,"velocity":0.2204724409448819},{"duration":0.120000000000001,"midi":36,"time":28.799999999999997,"velocity":0.31496062992125984},{"duration":0.120000000000001,"midi":61,"time":28.799999999999997,"velocity":0.2992125984251969},{"duration":0.120000000000001,"midi":60,"time":28.919999999999998,"velocity":0.2992125984251969},{"duration":0.120000000000001,"midi":54,"time":29.04,"velocity":0.2755905511811024},{"duration":0.120000000000001,"midi":42,"time":29.04,"velocity":0.31496062992125984},{"duration":0.11999999999999744,"midi":61,"time":29.16,"velocity":0.2992125984251969},{"duration":0.11999999999999744,"midi":54,"time":29.16,"velocity":0.2755905511811024},{"duration":0.11999999999999744,"midi":42,"time":29.16,"velocity":0.31496062992125984},{"duration":0.120000000000001,"midi":61,"time":29.279999999999998,"velocity":0.2992125984251969},{"duration":0.120000000000001,"midi":40,"time":29.279999999999998,"velocity":0.3228346456692913},{"duration":0.120000000000001,"midi":54,"time":29.279999999999998,"velocity":0.2755905511811024},{"duration":0.120000000000001,"midi":46,"time":29.279999999999998,"velocity":0.31496062992125984},{"duration":0.120000000000001,"midi":54,"time":29.52,"velocity":0.2755905511811024},{"duration":0.120000000000001,"midi":61,"time":29.52,"velocity":0.2204724409448819},{"duration":0.120000000000001,"midi":42,"time":29.52,"velocity":0.31496062992125984},{"duration":0.11999999999999744,"midi":42,"time":29.64,"velocity":0.31496062992125984},{"duration":0.11999999999999744,"midi":61,"time":29.64,"velocity":0.2204724409448819},{"duration":0.11999999999999744,"midi":54,"time":29.64,"velocity":0.2755905511811024},{"duration":0.120000000000001,"midi":36,"time":29.759999999999998,"velocity":0.31496062992125984},{"duration":0.120000000000001,"midi":61,"time":29.759999999999998,"velocity":0.2992125984251969},{"duration":0.120000000000001,"midi":60,"time":29.88,"velocity":0.2992125984251969},{"duration":0.11999999999999744,"midi":42,"time":30,"velocity":0.31496062992125984},{"duration":0.11999999999999744,"midi":54,"time":30,"velocity":0.2755905511811024},{"duration":0.120000000000001,"midi":54,"time":30.119999999999997,"velocity":0.2755905511811024},{"duration":0.120000000000001,"midi":42,"time":30.119999999999997,"velocity":0.31496062992125984},{"duration":0.120000000000001,"midi":61,"time":30.119999999999997,"velocity":0.2992125984251969},{"duration":0.120000000000001,"midi":40,"time":30.24,"velocity":0.3228346456692913},{"duration":0.120000000000001,"midi":46,"time":30.24,"velocity":0.31496062992125984},{"duration":0.120000000000001,"midi":61,"time":30.24,"velocity":0.2992125984251969},{"duration":0.120000000000001,"midi":54,"time":30.24,"velocity":0.2755905511811024},{"duration":0.11999999999999744,"midi":54,"time":30.48,"velocity":0.2755905511811024},{"duration":0.11999999999999744,"midi":42,"time":30.48,"velocity":0.31496062992125984},{"duration":0.11999999999999744,"midi":61,"time":30.48,"velocity":0.2204724409448819},{"duration":0.120000000000001,"midi":54,"time":30.599999999999998,"velocity":0.2755905511811024},{"duration":0.120000000000001,"midi":61,"time":30.599999999999998,"velocity":0.2204724409448819},{"duration":0.120000000000001,"midi":42,"time":30.599999999999998,"velocity":0.31496062992125984},{"duration":0.120000000000001,"midi":61,"time":30.72,"velocity":0.2992125984251969},{"duration":0.120000000000001,"midi":36,"time":30.72,"velocity":0.31496062992125984},{"duration":0.11999999999999744,"midi":60,"time":30.84,"velocity":0.2992125984251969},{"duration":0.120000000000001,"midi":42,"time":30.959999999999997,"velocity":0.31496062992125984},{"duration":0.120000000000001,"midi":54,"time":30.959999999999997,"velocity":0.2755905511811024},{"duration":0.120000000000001,"midi":54,"time":31.08,"velocity":0.2755905511811024},{"duration":0.120000000000001,"midi":42,"time":31.08,"velocity":0.31496062992125984},{"duration":0.120000000000001,"midi":61,"time":31.08,"velocity":0.2992125984251969},{"duration":0.120000000000001,"midi":46,"time":31.2,"velocity":0.31496062992125984},{"duration":0.120000000000001,"midi":54,"time":31.2,"velocity":0.2755905511811024},{"duration":0.120000000000001,"midi":40,"time":31.2,"velocity":0.3228346456692913},{"duration":0.120000000000001,"midi":61,"time":31.2,"velocity":0.2992125984251969},{"duration":0.120000000000001,"midi":42,"time":31.439999999999998,"velocity":0.31496062992125984},{"duration":0.120000000000001,"midi":54,"time":31.439999999999998,"velocity":0.2755905511811024},{"duration":0.120000000000001,"midi":61,"time":31.439999999999998,"velocity":0.2204724409448819},{"duration":0.120000000000001,"midi":54,"time":31.56,"velocity":0.2755905511811024},{"duration":0.120000000000001,"midi":61,"time":31.56,"velocity":0.2204724409448819},{"duration":0.120000000000001,"midi":42,"time":31.56,"velocity":0.31496062992125984},{"duration":0.11999999999999744,"midi":61,"time":31.68,"velocity":0.2992125984251969},{"duration":0.11999999999999744,"midi":36,"time":31.68,"velocity":0.31496062992125984},{"duration":0.120000000000001,"midi":60,"time":31.799999999999997,"velocity":0.2992125984251969},{"duration":0.120000000000001,"midi":54,"time":31.919999999999998,"velocity":0.2755905511811024},{"duration":0.120000000000001,"midi":42,"time":31.919999999999998,"velocity":0.31496062992125984},{"duration":0.11999999999999744,"midi":42,"time":32.04,"velocity":0.31496062992125984},{"duration":0.11999999999999744,"midi":61,"time":32.04,"velocity":0.2992125984251969},{"duration":0.11999999999999744,"midi":54,"time":32.04,"velocity":0.2755905511811024},{"duration":0.12000000000000455,"midi":54,"time":32.16,"velocity":0.2755905511811024},{"duration":0.12000000000000455,"midi":61,"time":32.16,"velocity":0.2992125984251969},{"duration":0.12000000000000455,"midi":40,"time":32.16,"velocity":0.3228346456692913},{"duration":0.12000000000000455,"midi":46,"time":32.16,"velocity":0.31496062992125984},{"duration":0.11999999999999744,"midi":54,"time":32.4,"velocity":0.2755905511811024},{"duration":0.11999999999999744,"midi":61,"time":32.4,"velocity":0.2204724409448819},{"duration":0.11999999999999744,"midi":42,"time":32.4,"velocity":0.31496062992125984},{"duration":0.12000000000000455,"midi":42,"time":32.519999999999996,"velocity":0.31496062992125984},{"duration":0.12000000000000455,"midi":54,"time":32.519999999999996,"velocity":0.2755905511811024},{"duration":0.12000000000000455,"midi":61,"time":32.519999999999996,"velocity":0.2204724409448819},{"duration":0.11999999999999744,"midi":36,"time":32.64,"velocity":0.31496062992125984},{"duration":0.11999999999999744,"midi":61,"time":32.64,"velocity":0.2992125984251969},{"duration":0.11999999999999744,"midi":60,"time":32.76,"velocity":0.2992125984251969},{"duration":0.12000000000000455,"midi":42,"time":32.879999999999995,"velocity":0.31496062992125984},{"duration":0.12000000000000455,"midi":54,"time":32.879999999999995,"velocity":0.2755905511811024},{"duration":0.11999999999999744,"midi":42,"time":33,"velocity":0.31496062992125984},{"duration":0.11999999999999744,"midi":61,"time":33,"velocity":0.2992125984251969},{"duration":0.11999999999999744,"midi":54,"time":33,"velocity":0.2755905511811024},{"duration":0.12000000000000455,"midi":46,"time":33.12,"velocity":0.31496062992125984},{"duration":0.12000000000000455,"midi":40,"time":33.12,"velocity":0.3228346456692913},{"duration":0.12000000000000455,"midi":61,"time":33.12,"velocity":0.2992125984251969},{"duration":0.12000000000000455,"midi":54,"time":33.12,"velocity":0.2755905511811024},{"duration":0.11999999999999744,"midi":54,"time":33.36,"velocity":0.2755905511811024},{"duration":0.11999999999999744,"midi":42,"time":33.36,"velocity":0.31496062992125984},{"duration":0.11999999999999744,"midi":61,"time":33.36,"velocity":0.2204724409448819},{"duration":0.12000000000000455,"midi":61,"time":33.48,"velocity":0.2204724409448819},{"duration":0.12000000000000455,"midi":42,"time":33.48,"velocity":0.31496062992125984},{"duration":0.12000000000000455,"midi":54,"time":33.48,"velocity":0.2755905511811024},{"duration":0.11999999999999744,"midi":61,"time":33.6,"velocity":0.2992125984251969},{"duration":0.11999999999999744,"midi":36,"time":33.6,"velocity":0.31496062992125984},{"duration":0.11999999999999744,"midi":60,"time":33.72,"velocity":0.2992125984251969},{"duration":0.12000000000000455,"midi":54,"time":33.839999999999996,"velocity":0.2755905511811024},{"duration":0.12000000000000455,"midi":42,"time":33.839999999999996,"velocity":0.31496062992125984},{"duration":0.11999999999999744,"midi":61,"time":33.96,"velocity":0.2992125984251969},{"duration":0.11999999999999744,"midi":54,"time":33.96,"velocity":0.2755905511811024},{"duration":0.11999999999999744,"midi":42,"time":33.96,"velocity":0.31496062992125984},{"duration":0.11999999999999744,"midi":54,"time":34.08,"velocity":0.2755905511811024},{"duration":0.11999999999999744,"midi":40,"time":34.08,"velocity":0.3228346456692913},{"duration":0.11999999999999744,"midi":61,"time":34.08,"velocity":0.2992125984251969},{"duration":0.11999999999999744,"midi":46,"time":34.08,"velocity":0.31496062992125984},{"duration":0.11999999999999744,"midi":61,"time":34.32,"velocity":0.2204724409448819},{"duration":0.11999999999999744,"midi":42,"time":34.32,"velocity":0.31496062992125984},{"duration":0.11999999999999744,"midi":54,"time":34.32,"velocity":0.2755905511811024},{"duration":0.12000000000000455,"midi":54,"time":34.44,"velocity":0.2755905511811024},{"duration":0.12000000000000455,"midi":42,"time":34.44,"velocity":0.31496062992125984},{"duration":0.12000000000000455,"midi":61,"time":34.44,"velocity":0.2204724409448819},{"duration":0.11999999999999744,"midi":61,"time":34.56,"velocity":0.2992125984251969},{"duration":0.11999999999999744,"midi":36,"time":34.56,"velocity":0.31496062992125984},{"duration":0.11999999999999744,"midi":60,"time":34.68,"velocity":0.2992125984251969},{"duration":0.12000000000000455,"midi":42,"time":34.8,"velocity":0.31496062992125984},{"duration":0.12000000000000455,"midi":54,"time":34.8,"velocity":0.2755905511811024},{"duration":0.11999999999999744,"midi":42,"time":34.92,"velocity":0.31496062992125984},{"duration":0.11999999999999744,"midi":54,"time":34.92,"velocity":0.2755905511811024},{"duration":0.11999999999999744,"midi":61,"time":34.92,"velocity":0.2992125984251969},{"duration":0.11999999999999744,"midi":46,"time":35.04,"velocity":0.31496062992125984},{"duration":0.11999999999999744,"midi":61,"time":35.04,"velocity":0.2992125984251969},{"duration":0.11999999999999744,"midi":40,"time":35.04,"velocity":0.3228346456692913},{"duration":0.11999999999999744,"midi":54,"time":35.04,"velocity":0.2755905511811024},{"duration":0.11999999999999744,"midi":61,"time":35.28,"velocity":0.2204724409448819},{"duration":0.11999999999999744,"midi":42,"time":35.28,"velocity":0.31496062992125984},{"duration":0.11999999999999744,"midi":54,"time":35.28,"velocity":0.2755905511811024},{"duration":0.11999999999999744,"midi":54,"time":35.4,"velocity":0.2755905511811024},{"duration":0.11999999999999744,"midi":61,"time":35.4,"velocity":0.2204724409448819},{"duration":0.11999999999999744,"midi":42,"time":35.4,"velocity":0.31496062992125984},{"duration":0.12000000000000455,"midi":36,"time":35.519999999999996,"velocity":0.31496062992125984},{"duration":0.12000000000000455,"midi":61,"time":35.519999999999996,"velocity":0.2992125984251969},{"duration":0.11999999999999744,"midi":60,"time":35.64,"velocity":0.2992125984251969},{"duration":0.11999999999999744,"midi":54,"time":35.76,"velocity":0.2755905511811024},{"duration":0.11999999999999744,"midi":42,"time":35.76,"velocity":0.31496062992125984},{"duration":0.12000000000000455,"midi":42,"time":35.879999999999995,"velocity":0.31496062992125984},{"duration":0.12000000000000455,"midi":61,"time":35.879999999999995,"velocity":0.2992125984251969},{"duration":0.12000000000000455,"midi":54,"time":35.879999999999995,"velocity":0.2755905511811024},{"duration":0.11999999999999744,"midi":46,"time":36,"velocity":0.31496062992125984},{"duration":0.11999999999999744,"midi":54,"time":36,"velocity":0.2755905511811024},{"duration":0.11999999999999744,"midi":40,"time":36,"velocity":0.3228346456692913},{"duration":0.11999999999999744,"midi":61,"time":36,"velocity":0.2992125984251969},{"duration":0.11999999999999744,"midi":42,"time":36.24,"velocity":0.31496062992125984},{"duration":0.11999999999999744,"midi":61,"time":36.24,"velocity":0.2204724409448819},{"duration":0.11999999999999744,"midi":54,"time":36.24,"velocity":0.2755905511811024},{"duration":0.11999999999999744,"midi":61,"time":36.36,"velocity":0.2204724409448819},{"duration":0.11999999999999744,"midi":42,"time":36.36,"velocity":0.31496062992125984},{"duration":0.11999999999999744,"midi":54,"time":36.36,"velocity":0.2755905511811024},{"duration":0.12000000000000455,"midi":36,"time":36.48,"velocity":0.31496062992125984},{"duration":0.12000000000000455,"midi":61,"time":36.48,"velocity":0.2992125984251969},{"duration":0.11999999999999744,"midi":60,"time":36.6,"velocity":0.2992125984251969},{"duration":0.11999999999999744,"midi":54,"time":36.72,"velocity":0.2755905511811024},{"duration":0.11999999999999744,"midi":42,"time":36.72,"velocity":0.31496062992125984},{"duration":0.12000000000000455,"midi":61,"time":36.839999999999996,"velocity":0.2992125984251969},{"duration":0.12000000000000455,"midi":54,"time":36.839999999999996,"velocity":0.2755905511811024},{"duration":0.12000000000000455,"midi":42,"time":36.839999999999996,"velocity":0.31496062992125984},{"duration":0.11999999999999744,"midi":61,"time":36.96,"velocity":0.2992125984251969},{"duration":0.11999999999999744,"midi":46,"time":36.96,"velocity":0.31496062992125984},{"duration":0.11999999999999744,"midi":54,"time":36.96,"velocity":0.2755905511811024},{"duration":0.11999999999999744,"midi":40,"time":36.96,"velocity":0.3228346456692913},{"duration":0.12000000000000455,"midi":61,"time":37.199999999999996,"velocity":0.2204724409448819},{"duration":0.12000000000000455,"midi":42,"time":37.199999999999996,"velocity":0.31496062992125984},{"duration":0.12000000000000455,"midi":54,"time":37.199999999999996,"velocity":0.2755905511811024},{"duration":0.11999999999999744,"midi":54,"time":37.32,"velocity":0.2755905511811024},{"duration":0.11999999999999744,"midi":42,"time":37.32,"velocity":0.31496062992125984},{"duration":0.11999999999999744,"midi":61,"time":37.32,"velocity":0.2204724409448819},{"duration":0.11999999999999744,"midi":36,"time":37.44,"velocity":0.31496062992125984},{"duration":0.11999999999999744,"midi":61,"time":37.44,"velocity":0.2992125984251969},{"duration":0.12000000000000455,"midi":60,"time":37.559999999999995,"velocity":0.2992125984251969},{"duration":0.11999999999999744,"midi":42,"time":37.68,"velocity":0.31496062992125984},{"duration":0.11999999999999744,"midi":54,"time":37.68,"velocity":0.2755905511811024},{"duration":0.12000000000000455,"midi":42,"time":37.8,"velocity":0.31496062992125984},{"duration":0.12000000000000455,"midi":61,"time":37.8,"velocity":0.2992125984251969},{"duration":0.12000000000000455,"midi":54,"time":37.8,"velocity":0.2755905511811024},{"duration":0.11999999999999744,"midi":40,"time":37.92,"velocity":0.3228346456692913},{"duration":0.11999999999999744,"midi":61,"time":37.92,"velocity":0.2992125984251969},{"duration":0.11999999999999744,"midi":46,"time":37.92,"velocity":0.31496062992125984},{"duration":0.11999999999999744,"midi":54,"time":37.92,"velocity":0.2755905511811024},{"duration":0.12000000000000455,"midi":42,"time":38.16,"velocity":0.31496062992125984},{"duration":0.12000000000000455,"midi":61,"time":38.16,"velocity":0.2204724409448819},{"duration":0.12000000000000455,"midi":54,"time":38.16,"velocity":0.2755905511811024},{"duration":0.11999999999999744,"midi":54,"time":38.28,"velocity":0.2755905511811024},{"duration":0.11999999999999744,"midi":42,"time":38.28,"velocity":0.31496062992125984},{"duration":0.11999999999999744,"midi":61,"time":38.28,"velocity":0.2204724409448819},{"duration":0.11999999999999744,"midi":61,"time":38.4,"velocity":0.2992125984251969},{"duration":0.11999999999999744,"midi":36,"time":38.4,"velocity":0.31496062992125984},{"duration":0.12000000000000455,"midi":60,"time":38.519999999999996,"velocity":0.2992125984251969},{"duration":0.11999999999999744,"midi":54,"time":38.64,"velocity":0.2755905511811024},{"duration":0.11999999999999744,"midi":42,"time":38.64,"velocity":0.31496062992125984},{"duration":0.11999999999999744,"midi":61,"time":38.76,"velocity":0.2992125984251969},{"duration":0.11999999999999744,"midi":54,"time":38.76,"velocity":0.2755905511811024},{"duration":0.11999999999999744,"midi":42,"time":38.76,"velocity":0.31496062992125984},{"duration":0.12000000000000455,"midi":40,"time":38.879999999999995,"velocity":0.3228346456692913},{"duration":0.12000000000000455,"midi":54,"time":38.879999999999995,"velocity":0.2755905511811024},{"duration":0.12000000000000455,"midi":61,"time":38.879999999999995,"velocity":0.2992125984251969},{"duration":0.12000000000000455,"midi":46,"time":38.879999999999995,"velocity":0.31496062992125984},{"duration":0.12000000000000455,"midi":61,"time":39.12,"velocity":0.2204724409448819},{"duration":0.12000000000000455,"midi":42,"time":39.12,"velocity":0.31496062992125984},{"duration":0.12000000000000455,"midi":54,"time":39.12,"velocity":0.2755905511811024},{"duration":0.11999999999999744,"midi":42,"time":39.24,"velocity":0.31496062992125984},{"duration":0.11999999999999744,"midi":54,"time":39.24,"velocity":0.2755905511811024},{"duration":0.11999999999999744,"midi":61,"time":39.24,"velocity":0.2204724409448819},{"duration":0.11999999999999744,"midi":61,"time":39.36,"velocity":0.2992125984251969},{"duration":0.11999999999999744,"midi":36,"time":39.36,"velocity":0.31496062992125984},{"duration":0.12000000000000455,"midi":60,"time":39.48,"velocity":0.2992125984251969},{"duration":0.11999999999999744,"midi":54,"time":39.6,"velocity":0.2755905511811024},{"duration":0.11999999999999744,"midi":42,"time":39.6,"velocity":0.31496062992125984},{"duration":0.11999999999999744,"midi":42,"time":39.72,"velocity":0.31496062992125984},{"duration":0.11999999999999744,"midi":61,"time":39.72,"velocity":0.2992125984251969},{"duration":0.11999999999999744,"midi":54,"time":39.72,"velocity":0.2755905511811024},{"duration":0.12000000000000455,"midi":46,"time":39.839999999999996,"velocity":0.31496062992125984},{"duration":0.12000000000000455,"midi":40,"time":39.839999999999996,"velocity":0.3228346456692913},{"duration":0.12000000000000455,"midi":61,"time":39.839999999999996,"velocity":0.2992125984251969},{"duration":0.12000000000000455,"midi":54,"time":39.839999999999996,"velocity":0.2755905511811024},{"duration":0.11999999999999744,"midi":54,"time":40.08,"velocity":0.2755905511811024},{"duration":0.11999999999999744,"midi":61,"time":40.08,"velocity":0.2204724409448819},{"duration":0.11999999999999744,"midi":42,"time":40.08,"velocity":0.31496062992125984},{"duration":0.12000000000000455,"midi":54,"time":40.199999999999996,"velocity":0.2755905511811024},{"duration":0.12000000000000455,"midi":61,"time":40.199999999999996,"velocity":0.2204724409448819},{"duration":0.12000000000000455,"midi":42,"time":40.199999999999996,"velocity":0.31496062992125984},{"duration":0.11999999999999744,"midi":36,"time":40.32,"velocity":0.31496062992125984},{"duration":0.11999999999999744,"midi":61,"time":40.32,"velocity":0.2992125984251969},{"duration":0.11999999999999744,"midi":60,"time":40.44,"velocity":0.2992125984251969},{"duration":0.12000000000000455,"midi":42,"time":40.559999999999995,"velocity":0.31496062992125984},{"duration":0.12000000000000455,"midi":54,"time":40.559999999999995,"velocity":0.2755905511811024},{"duration":0.11999999999999744,"midi":42,"time":40.68,"velocity":0.31496062992125984},{"duration":0.11999999999999744,"midi":61,"time":40.68,"velocity":0.2992125984251969},{"duration":0.11999999999999744,"midi":54,"time":40.68,"velocity":0.2755905511811024},{"duration":0.12000000000000455,"midi":54,"time":40.8,"velocity":0.2755905511811024},{"duration":0.12000000000000455,"midi":40,"time":40.8,"velocity":0.3228346456692913},{"duration":0.12000000000000455,"midi":61,"time":40.8,"velocity":0.2992125984251969},{"duration":0.12000000000000455,"midi":46,"time":40.8,"velocity":0.31496062992125984},{"duration":0.11999999999999744,"midi":54,"time":41.04,"velocity":0.2755905511811024},{"duration":0.11999999999999744,"midi":42,"time":41.04,"velocity":0.31496062992125984},{"duration":0.11999999999999744,"midi":61,"time":41.04,"velocity":0.2204724409448819},{"duration":0.12000000000000455,"midi":54,"time":41.16,"velocity":0.2755905511811024},{"duration":0.12000000000000455,"midi":61,"time":41.16,"velocity":0.2204724409448819},{"duration":0.12000000000000455,"midi":42,"time":41.16,"velocity":0.31496062992125984},{"duration":0.11999999999999744,"midi":36,"time":41.28,"velocity":0.31496062992125984},{"duration":0.11999999999999744,"midi":61,"time":41.28,"velocity":0.2992125984251969},{"duration":0.11999999999999744,"midi":60,"time":41.4,"velocity":0.2992125984251969},{"duration":0.12000000000000455,"midi":42,"time":41.519999999999996,"velocity":0.31496062992125984},{"duration":0.12000000000000455,"midi":54,"time":41.519999999999996,"velocity":0.2755905511811024},{"duration":0.11999999999999744,"midi":42,"time":41.64,"velocity":0.31496062992125984},{"duration":0.11999999999999744,"midi":54,"time":41.64,"velocity":0.2755905511811024},{"duration":0.11999999999999744,"midi":61,"time":41.64,"velocity":0.2992125984251969},{"duration":0.11999999999999744,"midi":54,"time":41.76,"velocity":0.2755905511811024},{"duration":0.11999999999999744,"midi":40,"time":41.76,"velocity":0.3228346456692913},{"duration":0.11999999999999744,"midi":61,"time":41.76,"velocity":0.2992125984251969},{"duration":0.11999999999999744,"midi":46,"time":41.76,"velocity":0.31496062992125984},{"duration":0.11999999999999744,"midi":61,"time":42,"velocity":0.2204724409448819},{"duration":0.11999999999999744,"midi":42,"time":42,"velocity":0.31496062992125984},{"duration":0.11999999999999744,"midi":54,"time":42,"velocity":0.2755905511811024},{"duration":0.11999999999999744,"midi":54,"time":42.12,"velocity":0.2755905511811024},{"duration":0.11999999999999744,"midi":42,"time":42.12,"velocity":0.31496062992125984},{"duration":0.11999999999999744,"midi":61,"time":42.12,"velocity":0.2204724409448819},{"duration":0.12000000000000455,"midi":61,"time":42.239999999999995,"velocity":0.2992125984251969},{"duration":0.12000000000000455,"midi":36,"time":42.239999999999995,"velocity":0.31496062992125984},{"duration":0.11999999999999744,"midi":60,"time":42.36,"velocity":0.2992125984251969},{"duration":0.12000000000000455,"midi":54,"time":42.48,"velocity":0.2755905511811024},{"duration":0.12000000000000455,"midi":42,"time":42.48,"velocity":0.31496062992125984},{"duration":0.11999999999999744,"midi":61,"time":42.6,"velocity":0.2992125984251969},{"duration":0.11999999999999744,"midi":54,"time":42.6,"velocity":0.2755905511811024},{"duration":0.11999999999999744,"midi":42,"time":42.6,"velocity":0.31496062992125984},{"duration":0.11999999999999744,"midi":54,"time":42.72,"velocity":0.2755905511811024},{"duration":0.11999999999999744,"midi":61,"time":42.72,"velocity":0.2992125984251969},{"duration":0.11999999999999744,"midi":46,"time":42.72,"velocity":0.31496062992125984},{"duration":0.11999999999999744,"midi":40,"time":42.72,"velocity":0.3228346456692913},{"duration":0.11999999999999744,"midi":42,"time":42.96,"velocity":0.31496062992125984},{"duration":0.11999999999999744,"midi":61,"time":42.96,"velocity":0.2204724409448819},{"duration":0.11999999999999744,"midi":54,"time":42.96,"velocity":0.2755905511811024},{"duration":0.11999999999999744,"midi":54,"time":43.08,"velocity":0.2755905511811024},{"duration":0.11999999999999744,"midi":61,"time":43.08,"velocity":0.2204724409448819},{"duration":0.11999999999999744,"midi":42,"time":43.08,"velocity":0.31496062992125984},{"duration":0.12000000000000455,"midi":36,"time":43.199999999999996,"velocity":0.31496062992125984},{"duration":0.12000000000000455,"midi":61,"time":43.199999999999996,"velocity":0.2992125984251969},{"duration":0.11999999999999744,"midi":60,"time":43.32,"velocity":0.2992125984251969},{"duration":0.11999999999999744,"midi":54,"time":43.44,"velocity":0.2755905511811024},{"duration":0.11999999999999744,"midi":42,"time":43.44,"velocity":0.31496062992125984},{"duration":0.12000000000000455,"midi":42,"time":43.559999999999995,"velocity":0.31496062992125984},{"duration":0.12000000000000455,"midi":61,"time":43.559999999999995,"velocity":0.2992125984251969},{"duration":0.12000000000000455,"midi":54,"time":43.559999999999995,"velocity":0.2755905511811024},{"duration":0.11999999999999744,"midi":61,"time":43.68,"velocity":0.2992125984251969},{"duration":0.11999999999999744,"midi":46,"time":43.68,"velocity":0.31496062992125984},{"duration":0.11999999999999744,"midi":54,"time":43.68,"velocity":0.2755905511811024},{"duration":0.11999999999999744,"midi":40,"time":43.68,"velocity":0.3228346456692913},{"duration":0.11999999999999744,"midi":61,"time":43.92,"velocity":0.2204724409448819},{"duration":0.11999999999999744,"midi":42,"time":43.92,"velocity":0.31496062992125984},{"duration":0.11999999999999744,"midi":54,"time":43.92,"velocity":0.2755905511811024},{"duration":0.11999999999999744,"midi":54,"time":44.04,"velocity":0.2755905511811024},{"duration":0.11999999999999744,"midi":42,"time":44.04,"velocity":0.31496062992125984},{"duration":0.11999999999999744,"midi":61,"time":44.04,"velocity":0.2204724409448819},{"duration":0.12000000000000455,"midi":61,"time":44.16,"velocity":0.2992125984251969},{"duration":0.12000000000000455,"midi":36,"time":44.16,"velocity":0.31496062992125984},{"duration":0.11999999999999744,"midi":60,"time":44.28,"velocity":0.2992125984251969},{"duration":0.11999999999999744,"midi":54,"time":44.4,"velocity":0.2755905511811024},{"duration":0.11999999999999744,"midi":42,"time":44.4,"velocity":0.31496062992125984},{"duration":0.12000000000000455,"midi":61,"time":44.519999999999996,"velocity":0.2992125984251969},{"duration":0.12000000000000455,"midi":54,"time":44.519999999999996,"velocity":0.2755905511811024},{"duration":0.12000000000000455,"midi":42,"time":44.519999999999996,"velocity":0.31496062992125984},{"duration":0.11999999999999744,"midi":46,"time":44.64,"velocity":0.31496062992125984},{"duration":0.11999999999999744,"midi":61,"time":44.64,"velocity":0.2992125984251969},{"duration":0.11999999999999744,"midi":54,"time":44.64,"velocity":0.2755905511811024},{"duration":0.11999999999999744,"midi":40,"time":44.64,"velocity":0.3228346456692913},{"duration":0.12000000000000455,"midi":42,"time":44.879999999999995,"velocity":0.31496062992125984},{"duration":0.12000000000000455,"midi":61,"time":44.879999999999995,"velocity":0.2204724409448819},{"duration":0.12000000000000455,"midi":54,"time":44.879999999999995,"velocity":0.2755905511811024},{"duration":0.11999999999999744,"midi":42,"time":45,"velocity":0.31496062992125984},{"duration":0.11999999999999744,"midi":61,"time":45,"velocity":0.2204724409448819},{"duration":0.11999999999999744,"midi":54,"time":45,"velocity":0.2755905511811024},{"duration":0.11999999999999744,"midi":61,"time":45.12,"velocity":0.2992125984251969},{"duration":0.11999999999999744,"midi":36,"time":45.12,"velocity":0.31496062992125984},{"duration":0.12000000000000455,"midi":60,"time":45.239999999999995,"velocity":0.2992125984251969},{"duration":0.11999999999999744,"midi":42,"time":45.36,"velocity":0.31496062992125984},{"duration":0.11999999999999744,"midi":54,"time":45.36,"velocity":0.2755905511811024},{"duration":0.12000000000000455,"midi":42,"time":45.48,"velocity":0.31496062992125984},{"duration":0.12000000000000455,"midi":54,"time":45.48,"velocity":0.2755905511811024},{"duration":0.12000000000000455,"midi":61,"time":45.48,"velocity":0.2992125984251969},{"duration":0.11999999999999744,"midi":61,"time":45.6,"velocity":0.2992125984251969},{"duration":0.11999999999999744,"midi":46,"time":45.6,"velocity":0.31496062992125984},{"duration":0.11999999999999744,"midi":40,"time":45.6,"velocity":0.3228346456692913},{"duration":0.11999999999999744,"midi":54,"time":45.6,"velocity":0.2755905511811024},{"duration":0.12000000000000455,"midi":54,"time":45.839999999999996,"velocity":0.2755905511811024},{"duration":0.12000000000000455,"midi":42,"time":45.839999999999996,"velocity":0.31496062992125984},{"duration":0.12000000000000455,"midi":61,"time":45.839999999999996,"velocity":0.2204724409448819},{"duration":0.11999999999999744,"midi":42,"time":45.96,"velocity":0.31496062992125984},{"duration":0.11999999999999744,"midi":54,"time":45.96,"velocity":0.2755905511811024},{"duration":0.11999999999999744,"midi":61,"time":45.96,"velocity":0.2204724409448819},{"duration":0.11999999999999744,"midi":61,"time":46.08,"velocity":0.2992125984251969},{"duration":0.11999999999999744,"midi":36,"time":46.08,"velocity":0.31496062992125984},{"duration":0.12000000000000455,"midi":60,"time":46.199999999999996,"velocity":0.2992125984251969},{"duration":0.11999999999999744,"midi":42,"time":46.32,"velocity":0.31496062992125984},{"duration":0.11999999999999744,"midi":54,"time":46.32,"velocity":0.2755905511811024},{"duration":0.11999999999999744,"midi":61,"time":46.44,"velocity":0.2992125984251969},{"duration":0.11999999999999744,"midi":42,"time":46.44,"velocity":0.31496062992125984},{"duration":0.11999999999999744,"midi":54,"time":46.44,"velocity":0.2755905511811024},{"duration":0.12000000000000455,"midi":61,"time":46.559999999999995,"velocity":0.2992125984251969},{"duration":0.12000000000000455,"midi":54,"time":46.559999999999995,"velocity":0.2755905511811024},{"duration":0.12000000000000455,"midi":46,"time":46.559999999999995,"velocity":0.31496062992125984},{"duration":0.12000000000000455,"midi":40,"time":46.559999999999995,"velocity":0.3228346456692913},{"duration":0.12000000000000455,"midi":54,"time":46.8,"velocity":0.2755905511811024},{"duration":0.12000000000000455,"midi":61,"time":46.8,"velocity":0.2204724409448819},{"duration":0.12000000000000455,"midi":42,"time":46.8,"velocity":0.31496062992125984},{"duration":0.11999999999999744,"midi":42,"time":46.92,"velocity":0.31496062992125984},{"duration":0.11999999999999744,"midi":61,"time":46.92,"velocity":0.2204724409448819},{"duration":0.11999999999999744,"midi":54,"time":46.92,"velocity":0.2755905511811024},{"duration":0.11999999999999744,"midi":36,"time":47.04,"velocity":0.31496062992125984},{"duration":0.11999999999999744,"midi":61,"time":47.04,"velocity":0.2992125984251969},{"duration":0.12000000000000455,"midi":60,"time":47.16,"velocity":0.2992125984251969},{"duration":0.11999999999999744,"midi":54,"time":47.28,"velocity":0.2755905511811024},{"duration":0.11999999999999744,"midi":42,"time":47.28,"velocity":0.31496062992125984},{"duration":0.11999999999999744,"midi":54,"time":47.4,"velocity":0.2755905511811024},{"duration":0.11999999999999744,"midi":42,"time":47.4,"velocity":0.31496062992125984},{"duration":0.11999999999999744,"midi":61,"time":47.4,"velocity":0.2992125984251969},{"duration":0.12000000000000455,"midi":46,"time":47.519999999999996,"velocity":0.31496062992125984},{"duration":0.12000000000000455,"midi":40,"time":47.519999999999996,"velocity":0.3228346456692913},{"duration":0.12000000000000455,"midi":61,"time":47.519999999999996,"velocity":0.2992125984251969},{"duration":0.12000000000000455,"midi":54,"time":47.519999999999996,"velocity":0.2755905511811024},{"duration":0.11999999999999744,"midi":54,"time":47.76,"velocity":0.2755905511811024},{"duration":0.11999999999999744,"midi":61,"time":47.76,"velocity":0.2204724409448819},{"duration":0.11999999999999744,"midi":42,"time":47.76,"velocity":0.31496062992125984},{"duration":0.12000000000000455,"midi":61,"time":47.879999999999995,"velocity":0.2204724409448819},{"duration":0.12000000000000455,"midi":42,"time":47.879999999999995,"velocity":0.31496062992125984},{"duration":0.12000000000000455,"midi":54,"time":47.879999999999995,"velocity":0.2755905511811024},{"duration":0.11999999999999744,"midi":61,"time":48,"velocity":0.2992125984251969},{"duration":0.11999999999999744,"midi":36,"time":48,"velocity":0.31496062992125984},{"duration":0.11999999999999744,"midi":60,"time":48.12,"velocity":0.2992125984251969},{"duration":0.12000000000000455,"midi":42,"time":48.239999999999995,"velocity":0.31496062992125984},{"duration":0.12000000000000455,"midi":54,"time":48.239999999999995,"velocity":0.2755905511811024},{"duration":0.11999999999999744,"midi":61,"time":48.36,"velocity":0.2992125984251969},{"duration":0.11999999999999744,"midi":54,"time":48.36,"velocity":0.2755905511811024},{"duration":0.11999999999999744,"midi":42,"time":48.36,"velocity":0.31496062992125984},{"duration":0.12000000000000455,"midi":40,"time":48.48,"velocity":0.3228346456692913},{"duration":0.12000000000000455,"midi":46,"time":48.48,"velocity":0.31496062992125984},{"duration":0.12000000000000455,"midi":61,"time":48.48,"velocity":0.2992125984251969},{"duration":0.12000000000000455,"midi":54,"time":48.48,"velocity":0.2755905511811024},{"duration":0.11999999999999744,"midi":54,"time":48.72,"velocity":0.2755905511811024},{"duration":0.11999999999999744,"midi":42,"time":48.72,"velocity":0.31496062992125984},{"duration":0.11999999999999744,"midi":61,"time":48.72,"velocity":0.2204724409448819},{"duration":0.12000000000000455,"midi":54,"time":48.839999999999996,"velocity":0.2755905511811024},{"duration":0.12000000000000455,"midi":61,"time":48.839999999999996,"velocity":0.2204724409448819},{"duration":0.12000000000000455,"midi":42,"time":48.839999999999996,"velocity":0.31496062992125984},{"duration":0.11999999999999744,"midi":61,"time":48.96,"velocity":0.2992125984251969},{"duration":0.11999999999999744,"midi":36,"time":48.96,"velocity":0.31496062992125984},{"duration":0.11999999999999744,"midi":60,"time":49.08,"velocity":0.2992125984251969},{"duration":0.12000000000000455,"midi":42,"time":49.199999999999996,"velocity":0.31496062992125984},{"duration":0.12000000000000455,"midi":54,"time":49.199999999999996,"velocity":0.2755905511811024},{"duration":0.11999999999999744,"midi":42,"time":49.32,"velocity":0.31496062992125984},{"duration":0.11999999999999744,"midi":54,"time":49.32,"velocity":0.2755905511811024},{"duration":0.11999999999999744,"midi":61,"time":49.32,"velocity":0.2992125984251969},{"duration":0.11999999999999744,"midi":46,"time":49.44,"velocity":0.31496062992125984},{"duration":0.11999999999999744,"midi":40,"time":49.44,"velocity":0.3228346456692913},{"duration":0.11999999999999744,"midi":54,"time":49.44,"velocity":0.2755905511811024},{"duration":0.11999999999999744,"midi":61,"time":49.44,"velocity":0.2992125984251969},{"duration":0.11999999999999744,"midi":61,"time":49.68,"velocity":0.2204724409448819},{"duration":0.11999999999999744,"midi":54,"time":49.68,"velocity":0.2755905511811024},{"duration":0.11999999999999744,"midi":42,"time":49.68,"velocity":0.31496062992125984},{"duration":0.12000000000000455,"midi":61,"time":49.8,"velocity":0.2204724409448819},{"duration":0.12000000000000455,"midi":42,"time":49.8,"velocity":0.31496062992125984},{"duration":0.12000000000000455,"midi":54,"time":49.8,"velocity":0.2755905511811024},{"duration":0.11999999999999744,"midi":61,"time":49.92,"velocity":0.2992125984251969},{"duration":0.11999999999999744,"midi":36,"time":49.92,"velocity":0.31496062992125984},{"duration":0.11999999999999744,"midi":60,"time":50.04,"velocity":0.2992125984251969},{"duration":0.12000000000000455,"midi":42,"time":50.16,"velocity":0.31496062992125984},{"duration":0.12000000000000455,"midi":54,"time":50.16,"velocity":0.2755905511811024},{"duration":0.11999999999999744,"midi":42,"time":50.28,"velocity":0.31496062992125984},{"duration":0.11999999999999744,"midi":54,"time":50.28,"velocity":0.2755905511811024},{"duration":0.11999999999999744,"midi":61,"time":50.28,"velocity":0.2992125984251969},{"duration":0.11999999999999744,"midi":54,"time":50.4,"velocity":0.2755905511811024},{"duration":0.11999999999999744,"midi":46,"time":50.4,"velocity":0.31496062992125984},{"duration":0.11999999999999744,"midi":40,"time":50.4,"velocity":0.3228346456692913},{"duration":0.11999999999999744,"midi":61,"time":50.4,"velocity":0.2992125984251969},{"duration":0.11999999999999744,"midi":61,"time":50.64,"velocity":0.2204724409448819},{"duration":0.11999999999999744,"midi":54,"time":50.64,"velocity":0.2755905511811024},{"duration":0.11999999999999744,"midi":42,"time":50.64,"velocity":0.31496062992125984},{"duration":0.11999999999999744,"midi":42,"time":50.76,"velocity":0.31496062992125984},{"duration":0.11999999999999744,"midi":54,"time":50.76,"velocity":0.2755905511811024},{"duration":0.11999999999999744,"midi":61,"time":50.76,"velocity":0.2204724409448819},{"duration":0.12000000000000455,"midi":61,"time":50.879999999999995,"velocity":0.2992125984251969},{"duration":0.12000000000000455,"midi":36,"time":50.879999999999995,"velocity":0.31496062992125984},{"duration":0.11999999999999744,"midi":60,"time":51,"velocity":0.2992125984251969},{"duration":0.11999999999999744,"midi":42,"time":51.12,"velocity":0.31496062992125984},{"duration":0.11999999999999744,"midi":54,"time":51.12,"velocity":0.2755905511811024},{"duration":0.12000000000000455,"midi":42,"time":51.239999999999995,"velocity":0.31496062992125984},{"duration":0.12000000000000455,"midi":61,"time":51.239999999999995,"velocity":0.2992125984251969},{"duration":0.12000000000000455,"midi":54,"time":51.239999999999995,"velocity":0.2755905511811024},{"duration":0.11999999999999744,"midi":46,"time":51.36,"velocity":0.31496062992125984},{"duration":0.11999999999999744,"midi":61,"time":51.36,"velocity":0.2992125984251969},{"duration":0.11999999999999744,"midi":40,"time":51.36,"velocity":0.3228346456692913},{"duration":0.11999999999999744,"midi":54,"time":51.36,"velocity":0.2755905511811024},{"duration":0.11999999999999744,"midi":42,"time":51.6,"velocity":0.31496062992125984},{"duration":0.11999999999999744,"midi":54,"time":51.6,"velocity":0.2755905511811024},{"duration":0.11999999999999744,"midi":61,"time":51.6,"velocity":0.2204724409448819},{"duration":0.11999999999999744,"midi":42,"time":51.72,"velocity":0.31496062992125984},{"duration":0.11999999999999744,"midi":54,"time":51.72,"velocity":0.2755905511811024},{"duration":0.11999999999999744,"midi":61,"time":51.72,"velocity":0.2204724409448819},{"duration":0.12000000000000455,"midi":36,"time":51.839999999999996,"velocity":0.31496062992125984},{"duration":0.12000000000000455,"midi":61,"time":51.839999999999996,"velocity":0.2992125984251969},{"duration":0.11999999999999744,"midi":60,"time":51.96,"velocity":0.2992125984251969},{"duration":0.11999999999999744,"midi":42,"time":52.08,"velocity":0.31496062992125984},{"duration":0.11999999999999744,"midi":54,"time":52.08,"velocity":0.2755905511811024},{"duration":0.12000000000000455,"midi":61,"time":52.199999999999996,"velocity":0.2992125984251969},{"duration":0.12000000000000455,"midi":54,"time":52.199999999999996,"velocity":0.2755905511811024},{"duration":0.12000000000000455,"midi":42,"time":52.199999999999996,"velocity":0.31496062992125984},{"duration":0.11999999999999744,"midi":61,"time":52.32,"velocity":0.2992125984251969},{"duration":0.11999999999999744,"midi":54,"time":52.32,"velocity":0.2755905511811024},{"duration":0.11999999999999744,"midi":46,"time":52.32,"velocity":0.31496062992125984},{"duration":0.11999999999999744,"midi":40,"time":52.32,"velocity":0.3228346456692913},{"duration":0.12000000000000455,"midi":54,"time":52.559999999999995,"velocity":0.2755905511811024},{"duration":0.12000000000000455,"midi":61,"time":52.559999999999995,"velocity":0.2204724409448819},{"duration":0.12000000000000455,"midi":42,"time":52.559999999999995,"velocity":0.31496062992125984},{"duration":0.11999999999999744,"midi":61,"time":52.68,"velocity":0.2204724409448819},{"duration":0.11999999999999744,"midi":54,"time":52.68,"velocity":0.2755905511811024},{"duration":0.11999999999999744,"midi":42,"time":52.68,"velocity":0.31496062992125984},{"duration":0.11999999999999744,"midi":61,"time":52.8,"velocity":0.2992125984251969},{"duration":0.11999999999999744,"midi":36,"time":52.8,"velocity":0.31496062992125984},{"duration":0.12000000000000455,"midi":60,"time":52.919999999999995,"velocity":0.2992125984251969},{"duration":0.11999999999999744,"midi":42,"time":53.04,"velocity":0.31496062992125984},{"duration":0.11999999999999744,"midi":54,"time":53.04,"velocity":0.2755905511811024},{"duration":0.12000000000000455,"midi":61,"time":53.16,"velocity":0.2992125984251969},{"duration":0.12000000000000455,"midi":42,"time":53.16,"velocity":0.31496062992125984},{"duration":0.12000000000000455,"midi":54,"time":53.16,"velocity":0.2755905511811024},{"duration":0.11999999999999744,"midi":54,"time":53.28,"velocity":0.2755905511811024},{"duration":0.11999999999999744,"midi":40,"time":53.28,"velocity":0.3228346456692913},{"duration":0.11999999999999744,"midi":46,"time":53.28,"velocity":0.31496062992125984},{"duration":0.11999999999999744,"midi":61,"time":53.28,"velocity":0.2992125984251969},{"duration":0.12000000000000455,"midi":42,"time":53.519999999999996,"velocity":0.31496062992125984},{"duration":0.12000000000000455,"midi":54,"time":53.519999999999996,"velocity":0.2755905511811024},{"duration":0.12000000000000455,"midi":61,"time":53.519999999999996,"velocity":0.2204724409448819},{"duration":0.11999999999999744,"midi":61,"time":53.64,"velocity":0.2204724409448819},{"duration":0.11999999999999744,"midi":42,"time":53.64,"velocity":0.31496062992125984},{"duration":0.11999999999999744,"midi":54,"time":53.64,"velocity":0.2755905511811024},{"duration":0.11999999999999744,"midi":36,"time":53.76,"velocity":0.31496062992125984},{"duration":0.11999999999999744,"midi":61,"time":53.76,"velocity":0.2992125984251969},{"duration":0.12000000000000455,"midi":60,"time":53.879999999999995,"velocity":0.2992125984251969},{"duration":0.11999999999999744,"midi":54,"time":54,"velocity":0.2755905511811024},{"duration":0.11999999999999744,"midi":42,"time":54,"velocity":0.31496062992125984},{"duration":0.11999999999999744,"midi":61,"time":54.12,"velocity":0.2992125984251969},{"duration":0.11999999999999744,"midi":54,"time":54.12,"velocity":0.2755905511811024},{"duration":0.11999999999999744,"midi":42,"time":54.12,"velocity":0.31496062992125984},{"duration":0.12000000000000455,"midi":61,"time":54.239999999999995,"velocity":0.2992125984251969},{"duration":0.12000000000000455,"midi":46,"time":54.239999999999995,"velocity":0.31496062992125984},{"duration":0.12000000000000455,"midi":40,"time":54.239999999999995,"velocity":0.3228346456692913},{"duration":0.12000000000000455,"midi":54,"time":54.239999999999995,"velocity":0.2755905511811024},{"duration":0.12000000000000455,"midi":54,"time":54.48,"velocity":0.2755905511811024},{"duration":0.12000000000000455,"midi":42,"time":54.48,"velocity":0.31496062992125984},{"duration":0.12000000000000455,"midi":61,"time":54.48,"velocity":0.2204724409448819},{"duration":0.11999999999999744,"midi":61,"time":54.6,"velocity":0.2204724409448819},{"duration":0.11999999999999744,"midi":42,"time":54.6,"velocity":0.31496062992125984},{"duration":0.11999999999999744,"midi":54,"time":54.6,"velocity":0.2755905511811024},{"duration":0.11999999999999744,"midi":36,"time":54.72,"velocity":0.31496062992125984},{"duration":0.11999999999999744,"midi":61,"time":54.72,"velocity":0.2992125984251969},{"duration":0.12000000000000455,"midi":60,"time":54.839999999999996,"velocity":0.2992125984251969},{"duration":0.11999999999999744,"midi":42,"time":54.96,"velocity":0.31496062992125984},{"duration":0.11999999999999744,"midi":54,"time":54.96,"velocity":0.2755905511811024},{"duration":0.11999999999999744,"midi":61,"time":55.08,"velocity":0.2992125984251969},{"duration":0.11999999999999744,"midi":42,"time":55.08,"velocity":0.31496062992125984},{"duration":0.11999999999999744,"midi":54,"time":55.08,"velocity":0.2755905511811024},{"duration":0.12000000000000455,"midi":40,"time":55.199999999999996,"velocity":0.3228346456692913},{"duration":0.12000000000000455,"midi":46,"time":55.199999999999996,"velocity":0.31496062992125984},{"duration":0.12000000000000455,"midi":54,"time":55.199999999999996,"velocity":0.2755905511811024},{"duration":0.12000000000000455,"midi":61,"time":55.199999999999996,"velocity":0.2992125984251969},{"duration":0.11999999999999744,"midi":61,"time":55.44,"velocity":0.2204724409448819},{"duration":0.11999999999999744,"midi":42,"time":55.44,"velocity":0.31496062992125984},{"duration":0.11999999999999744,"midi":54,"time":55.44,"velocity":0.2755905511811024},{"duration":0.12000000000000455,"midi":42,"time":55.559999999999995,"velocity":0.31496062992125984},{"duration":0.12000000000000455,"midi":54,"time":55.559999999999995,"velocity":0.2755905511811024},{"duration":0.12000000000000455,"midi":61,"time":55.559999999999995,"velocity":0.2204724409448819},{"duration":0.11999999999999744,"midi":61,"time":55.68,"velocity":0.2992125984251969},{"duration":0.11999999999999744,"midi":36,"time":55.68,"velocity":0.31496062992125984},{"duration":0.11999999999999744,"midi":60,"time":55.8,"velocity":0.2992125984251969},{"duration":0.12000000000000455,"midi":42,"time":55.919999999999995,"velocity":0.31496062992125984},{"duration":0.12000000000000455,"midi":54,"time":55.919999999999995,"velocity":0.2755905511811024},{"duration":0.11999999999999744,"midi":61,"time":56.04,"velocity":0.2992125984251969},{"duration":0.11999999999999744,"midi":42,"time":56.04,"velocity":0.31496062992125984},{"duration":0.11999999999999744,"midi":54,"time":56.04,"velocity":0.2755905511811024},{"duration":0.12000000000000455,"midi":61,"time":56.16,"velocity":0.2992125984251969},{"duration":0.12000000000000455,"midi":40,"time":56.16,"velocity":0.3228346456692913},{"duration":0.12000000000000455,"midi":46,"time":56.16,"velocity":0.31496062992125984},{"duration":0.12000000000000455,"midi":54,"time":56.16,"velocity":0.2755905511811024},{"duration":0.11999999999999744,"midi":61,"time":56.4,"velocity":0.2204724409448819},{"duration":0.11999999999999744,"midi":54,"time":56.4,"velocity":0.2755905511811024},{"duration":0.11999999999999744,"midi":42,"time":56.4,"velocity":0.31496062992125984},{"duration":0.12000000000000455,"midi":61,"time":56.519999999999996,"velocity":0.2204724409448819},{"duration":0.12000000000000455,"midi":54,"time":56.519999999999996,"velocity":0.2755905511811024},{"duration":0.12000000000000455,"midi":42,"time":56.519999999999996,"velocity":0.31496062992125984},{"duration":0.11999999999999744,"midi":61,"time":56.64,"velocity":0.2992125984251969},{"duration":0.11999999999999744,"midi":36,"time":56.64,"velocity":0.31496062992125984},{"duration":0.11999999999999744,"midi":60,"time":56.76,"velocity":0.2992125984251969},{"duration":0.12000000000000455,"midi":54,"time":56.879999999999995,"velocity":0.2755905511811024},{"duration":0.12000000000000455,"midi":42,"time":56.879999999999995,"velocity":0.31496062992125984},{"duration":0.11999999999999744,"midi":42,"time":57,"velocity":0.31496062992125984},{"duration":0.11999999999999744,"midi":54,"time":57,"velocity":0.2755905511811024},{"duration":0.11999999999999744,"midi":61,"time":57,"velocity":0.2992125984251969},{"duration":0.11999999999999744,"midi":40,"time":57.12,"velocity":0.3228346456692913},{"duration":0.11999999999999744,"midi":46,"time":57.12,"velocity":0.31496062992125984},{"duration":0.11999999999999744,"midi":54,"time":57.12,"velocity":0.2755905511811024},{"duration":0.11999999999999744,"midi":61,"time":57.12,"velocity":0.2992125984251969},{"duration":0.11999999999999744,"midi":61,"time":57.36,"velocity":0.2204724409448819},{"duration":0.11999999999999744,"midi":54,"time":57.36,"velocity":0.2755905511811024},{"duration":0.11999999999999744,"midi":42,"time":57.36,"velocity":0.31496062992125984},{"duration":0.11999999999999744,"midi":54,"time":57.48,"velocity":0.2755905511811024},{"duration":0.11999999999999744,"midi":42,"time":57.48,"velocity":0.31496062992125984},{"duration":0.11999999999999744,"midi":61,"time":57.48,"velocity":0.2204724409448819},{"duration":0.12000000000000455,"midi":36,"time":57.599999999999994,"velocity":0.31496062992125984},{"duration":0.12000000000000455,"midi":61,"time":57.599999999999994,"velocity":0.2992125984251969},{"duration":0.11999999999999744,"midi":60,"time":57.72,"velocity":0.2992125984251969},{"duration":0.12000000000000455,"midi":42,"time":57.839999999999996,"velocity":0.31496062992125984},{"duration":0.12000000000000455,"midi":54,"time":57.839999999999996,"velocity":0.2755905511811024},{"duration":0.11999999999999744,"midi":61,"time":57.96,"velocity":0.2992125984251969},{"duration":0.11999999999999744,"midi":54,"time":57.96,"velocity":0.2755905511811024},{"duration":0.11999999999999744,"midi":42,"time":57.96,"velocity":0.31496062992125984},{"duration":0.11999999999999744,"midi":61,"time":58.08,"velocity":0.2992125984251969},{"duration":0.11999999999999744,"midi":54,"time":58.08,"velocity":0.2755905511811024},{"duration":0.11999999999999744,"midi":40,"time":58.08,"velocity":0.3228346456692913},{"duration":0.11999999999999744,"midi":46,"time":58.08,"velocity":0.31496062992125984},{"duration":0.11999999999999744,"midi":54,"time":58.32,"velocity":0.2755905511811024},{"duration":0.11999999999999744,"midi":61,"time":58.32,"velocity":0.2204724409448819},{"duration":0.11999999999999744,"midi":42,"time":58.32,"velocity":0.31496062992125984},{"duration":0.11999999999999744,"midi":42,"time":58.44,"velocity":0.31496062992125984},{"duration":0.11999999999999744,"midi":54,"time":58.44,"velocity":0.2755905511811024},{"duration":0.11999999999999744,"midi":61,"time":58.44,"velocity":0.2204724409448819},{"duration":0.12000000000000455,"midi":61,"time":58.559999999999995,"velocity":0.2992125984251969},{"duration":0.12000000000000455,"midi":36,"time":58.559999999999995,"velocity":0.31496062992125984},{"duration":0.11999999999999744,"midi":60,"time":58.68,"velocity":0.2992125984251969},{"duration":0.11999999999999744,"midi":42,"time":58.8,"velocity":0.31496062992125984},{"duration":0.11999999999999744,"midi":54,"time":58.8,"velocity":0.2755905511811024},{"duration":0.12000000000000455,"midi":61,"time":58.919999999999995,"velocity":0.2992125984251969},{"duration":0.12000000000000455,"midi":42,"time":58.919999999999995,"velocity":0.31496062992125984},{"duration":0.12000000000000455,"midi":54,"time":58.919999999999995,"velocity":0.2755905511811024},{"duration":0.11999999999999744,"midi":61,"time":59.04,"velocity":0.2992125984251969},{"duration":0.11999999999999744,"midi":40,"time":59.04,"velocity":0.3228346456692913},{"duration":0.11999999999999744,"midi":46,"time":59.04,"velocity":0.31496062992125984},{"duration":0.11999999999999744,"midi":54,"time":59.04,"velocity":0.2755905511811024},{"duration":0.11999999999999744,"midi":61,"time":59.28,"velocity":0.2204724409448819},{"duration":0.11999999999999744,"midi":54,"time":59.28,"velocity":0.2755905511811024},{"duration":0.11999999999999744,"midi":42,"time":59.28,"velocity":0.31496062992125984},{"duration":0.11999999999999744,"midi":61,"time":59.4,"velocity":0.2204724409448819},{"duration":0.11999999999999744,"midi":54,"time":59.4,"velocity":0.2755905511811024},{"duration":0.11999999999999744,"midi":42,"time":59.4,"velocity":0.31496062992125984},{"duration":0.12000000000000455,"midi":61,"time":59.519999999999996,"velocity":0.2992125984251969},{"duration":0.12000000000000455,"midi":36,"time":59.519999999999996,"velocity":0.31496062992125984},{"duration":0.11999999999999744,"midi":60,"time":59.64,"velocity":0.2992125984251969},{"duration":0.11999999999999744,"midi":42,"time":59.76,"velocity":0.31496062992125984},{"duration":0.11999999999999744,"midi":54,"time":59.76,"velocity":0.2755905511811024},{"duration":0.12000000000000455,"midi":61,"time":59.879999999999995,"velocity":0.2992125984251969},{"duration":0.12000000000000455,"midi":42,"time":59.879999999999995,"velocity":0.31496062992125984},{"duration":0.12000000000000455,"midi":54,"time":59.879999999999995,"velocity":0.2755905511811024},{"duration":0.11999999999999744,"midi":46,"time":60,"velocity":0.31496062992125984},{"duration":0.11999999999999744,"midi":40,"time":60,"velocity":0.3228346456692913},{"duration":0.11999999999999744,"midi":54,"time":60,"velocity":0.2755905511811024},{"duration":0.11999999999999744,"midi":61,"time":60,"velocity":0.2992125984251969},{"duration":0.12000000000000455,"midi":54,"time":60.239999999999995,"velocity":0.2755905511811024},{"duration":0.12000000000000455,"midi":61,"time":60.239999999999995,"velocity":0.2204724409448819},{"duration":0.12000000000000455,"midi":42,"time":60.239999999999995,"velocity":0.31496062992125984},{"duration":0.11999999999999744,"midi":61,"time":60.36,"velocity":0.2204724409448819},{"duration":0.11999999999999744,"midi":54,"time":60.36,"velocity":0.2755905511811024},{"duration":0.11999999999999744,"midi":42,"time":60.36,"velocity":0.31496062992125984},{"duration":0.11999999999999744,"midi":36,"time":60.48,"velocity":0.31496062992125984},{"duration":0.11999999999999744,"midi":61,"time":60.48,"velocity":0.2992125984251969},{"duration":0.12000000000000455,"midi":60,"time":60.599999999999994,"velocity":0.2992125984251969},{"duration":0.11999999999999744,"midi":54,"time":60.72,"velocity":0.2755905511811024},{"duration":0.11999999999999744,"midi":42,"time":60.72,"velocity":0.31496062992125984},{"duration":0.12000000000000455,"midi":61,"time":60.839999999999996,"velocity":0.2992125984251969},{"duration":0.12000000000000455,"midi":54,"time":60.839999999999996,"velocity":0.2755905511811024},{"duration":0.12000000000000455,"midi":42,"time":60.839999999999996,"velocity":0.31496062992125984},{"duration":0.11999999999999744,"midi":46,"time":60.96,"velocity":0.31496062992125984},{"duration":0.11999999999999744,"midi":61,"time":60.96,"velocity":0.2992125984251969},{"duration":0.11999999999999744,"midi":40,"time":60.96,"velocity":0.3228346456692913},{"duration":0.11999999999999744,"midi":54,"time":60.96,"velocity":0.2755905511811024},{"duration":0.12000000000000455,"midi":61,"time":61.199999999999996,"velocity":0.2204724409448819},{"duration":0.12000000000000455,"midi":54,"time":61.199999999999996,"velocity":0.2755905511811024},{"duration":0.12000000000000455,"midi":42,"time":61.199999999999996,"velocity":0.31496062992125984},{"duration":0.11999999999999744,"midi":61,"time":61.32,"velocity":0.2204724409448819},{"duration":0.11999999999999744,"midi":42,"time":61.32,"velocity":0.31496062992125984},{"duration":0.11999999999999744,"midi":54,"time":61.32,"velocity":0.2755905511811024},{"duration":0.11999999999999744,"midi":54,"time":61.44,"velocity":0.2755905511811024},{"duration":0.11999999999999744,"midi":61,"time":61.44,"velocity":0.2992125984251969},{"duration":0.11999999999999744,"midi":42,"time":61.44,"velocity":0.3228346456692913},{"duration":0.11999999999999744,"midi":42,"time":61.68,"velocity":0.3228346456692913},{"duration":0.11999999999999744,"midi":54,"time":61.68,"velocity":0.2755905511811024},{"duration":0.11999999999999744,"midi":54,"time":61.8,"velocity":0.2755905511811024},{"duration":0.11999999999999744,"midi":42,"time":61.8,"velocity":0.3228346456692913},{"duration":0.12000000000000455,"midi":46,"time":61.919999999999995,"velocity":0.3228346456692913},{"duration":0.12000000000000455,"midi":37,"time":61.919999999999995,"velocity":0.3543307086614173},{"duration":0.12000000000000455,"midi":54,"time":61.919999999999995,"velocity":0.2755905511811024},{"duration":0.12000000000000455,"midi":39,"time":61.919999999999995,"velocity":0.3543307086614173},{"duration":0.12000000000000455,"midi":42,"time":62.16,"velocity":0.3228346456692913},{"duration":0.12000000000000455,"midi":54,"time":62.16,"velocity":0.2755905511811024},{"duration":0.11999999999999744,"midi":42,"time":62.28,"velocity":0.3228346456692913},{"duration":0.11999999999999744,"midi":54,"time":62.28,"velocity":0.2755905511811024},{"duration":0.11999999999999744,"midi":42,"time":62.4,"velocity":0.3228346456692913},{"duration":0.11999999999999744,"midi":54,"time":62.4,"velocity":0.2755905511811024},{"duration":0.11999999999999744,"midi":54,"time":62.64,"velocity":0.2755905511811024},{"duration":0.11999999999999744,"midi":42,"time":62.64,"velocity":0.3228346456692913},{"duration":0.11999999999999744,"midi":54,"time":62.76,"velocity":0.2755905511811024},{"duration":0.11999999999999744,"midi":42,"time":62.76,"velocity":0.3228346456692913},{"duration":0.12000000000000455,"midi":54,"time":62.879999999999995,"velocity":0.2755905511811024},{"duration":0.12000000000000455,"midi":46,"time":62.879999999999995,"velocity":0.3228346456692913},{"duration":0.12000000000000455,"midi":39,"time":62.879999999999995,"velocity":0.3543307086614173},{"duration":0.12000000000000455,"midi":37,"time":62.879999999999995,"velocity":0.3543307086614173},{"duration":0.11999999999999744,"midi":54,"time":63.12,"velocity":0.2755905511811024},{"duration":0.11999999999999744,"midi":42,"time":63.12,"velocity":0.3228346456692913},{"duration":0.12000000000000455,"midi":42,"time":63.239999999999995,"velocity":0.3228346456692913},{"duration":0.12000000000000455,"midi":54,"time":63.239999999999995,"velocity":0.2755905511811024},{"duration":0.11999999999999744,"midi":42,"time":63.36,"velocity":0.3228346456692913},{"duration":0.11999999999999744,"midi":54,"time":63.36,"velocity":0.2755905511811024},{"duration":0.12000000000000455,"midi":42,"time":63.599999999999994,"velocity":0.3228346456692913},{"duration":0.12000000000000455,"midi":54,"time":63.599999999999994,"velocity":0.2755905511811024},{"duration":0.11999999999999744,"midi":42,"time":63.72,"velocity":0.3228346456692913},{"duration":0.11999999999999744,"midi":54,"time":63.72,"velocity":0.2755905511811024},{"duration":0.12000000000000455,"midi":39,"time":63.839999999999996,"velocity":0.3543307086614173},{"duration":0.12000000000000455,"midi":54,"time":63.839999999999996,"velocity":0.2755905511811024},{"duration":0.12000000000000455,"midi":37,"time":63.839999999999996,"velocity":0.3543307086614173},{"duration":0.12000000000000455,"midi":46,"time":63.839999999999996,"velocity":0.3228346456692913},{"duration":0.12000000000000455,"midi":54,"time":64.08,"velocity":0.2755905511811024},{"duration":0.12000000000000455,"midi":42,"time":64.08,"velocity":0.3228346456692913},{"duration":0.11999999999999034,"midi":54,"time":64.2,"velocity":0.2755905511811024},{"duration":0.11999999999999034,"midi":42,"time":64.2,"velocity":0.3228346456692913},{"duration":0.12000000000000455,"midi":54,"time":64.32,"velocity":0.2755905511811024},{"duration":0.12000000000000455,"midi":42,"time":64.32,"velocity":0.3228346456692913},{"duration":0.11999999999999034,"midi":42,"time":64.56,"velocity":0.3228346456692913},{"duration":0.11999999999999034,"midi":54,"time":64.56,"velocity":0.2755905511811024},{"duration":0.12000000000000455,"midi":42,"time":64.67999999999999,"velocity":0.3228346456692913},{"duration":0.12000000000000455,"midi":54,"time":64.67999999999999,"velocity":0.2755905511811024},{"duration":0.12000000000000455,"midi":37,"time":64.8,"velocity":0.3543307086614173},{"duration":0.12000000000000455,"midi":39,"time":64.8,"velocity":0.3543307086614173},{"duration":0.12000000000000455,"midi":54,"time":64.8,"velocity":0.2755905511811024},{"duration":0.12000000000000455,"midi":46,"time":64.8,"velocity":0.3228346456692913},{"duration":0.12000000000000455,"midi":42,"time":65.03999999999999,"velocity":0.3228346456692913},{"duration":0.12000000000000455,"midi":54,"time":65.03999999999999,"velocity":0.2755905511811024},{"duration":0.12000000000000455,"midi":42,"time":65.16,"velocity":0.3228346456692913},{"duration":0.12000000000000455,"midi":54,"time":65.16,"velocity":0.2755905511811024},{"duration":0.11999999999999034,"midi":54,"time":65.28,"velocity":0.2755905511811024},{"duration":0.11999999999999034,"midi":42,"time":65.28,"velocity":0.3228346456692913},{"duration":0.12000000000000455,"midi":42,"time":65.52,"velocity":0.3228346456692913},{"duration":0.12000000000000455,"midi":54,"time":65.52,"velocity":0.2755905511811024},{"duration":0.11999999999999034,"midi":42,"time":65.64,"velocity":0.3228346456692913},{"duration":0.11999999999999034,"midi":54,"time":65.64,"velocity":0.2755905511811024},{"duration":0.12000000000000455,"midi":37,"time":65.75999999999999,"velocity":0.3543307086614173},{"duration":0.12000000000000455,"midi":54,"time":65.75999999999999,"velocity":0.2755905511811024},{"duration":0.12000000000000455,"midi":46,"time":65.75999999999999,"velocity":0.3228346456692913},{"duration":0.12000000000000455,"midi":39,"time":65.75999999999999,"velocity":0.3543307086614173},{"duration":0.12000000000000455,"midi":54,"time":66,"velocity":0.2755905511811024},{"duration":0.12000000000000455,"midi":42,"time":66,"velocity":0.3228346456692913},{"duration":0.11999999999999034,"midi":42,"time":66.12,"velocity":0.3228346456692913},{"duration":0.11999999999999034,"midi":54,"time":66.12,"velocity":0.2755905511811024},{"duration":0.12000000000000455,"midi":42,"time":66.24,"velocity":0.3228346456692913},{"duration":0.12000000000000455,"midi":54,"time":66.24,"velocity":0.2755905511811024},{"duration":0.11999999999999034,"midi":42,"time":66.48,"velocity":0.3228346456692913},{"duration":0.11999999999999034,"midi":54,"time":66.48,"velocity":0.2755905511811024},{"duration":0.12000000000000455,"midi":42,"time":66.6,"velocity":0.3228346456692913},{"duration":0.12000000000000455,"midi":54,"time":66.6,"velocity":0.2755905511811024},{"duration":0.12000000000000455,"midi":46,"time":66.72,"velocity":0.3228346456692913},{"duration":0.12000000000000455,"midi":39,"time":66.72,"velocity":0.3543307086614173},{"duration":0.12000000000000455,"midi":37,"time":66.72,"velocity":0.3543307086614173},{"duration":0.12000000000000455,"midi":54,"time":66.72,"velocity":0.2755905511811024},{"duration":0.12000000000000455,"midi":42,"time":66.96,"velocity":0.3228346456692913},{"duration":0.12000000000000455,"midi":54,"time":66.96,"velocity":0.2755905511811024},{"duration":0.12000000000000455,"midi":54,"time":67.08,"velocity":0.2755905511811024},{"duration":0.12000000000000455,"midi":42,"time":67.08,"velocity":0.3228346456692913},{"duration":0.11999999999999034,"midi":54,"time":67.2,"velocity":0.2755905511811024},{"duration":0.11999999999999034,"midi":42,"time":67.2,"velocity":0.3228346456692913},{"duration":0.12000000000000455,"midi":42,"time":67.44,"velocity":0.3228346456692913},{"duration":0.12000000000000455,"midi":54,"time":67.44,"velocity":0.2755905511811024},{"duration":0.11999999999999034,"midi":42,"time":67.56,"velocity":0.3228346456692913},{"duration":0.11999999999999034,"midi":54,"time":67.56,"velocity":0.2755905511811024},{"duration":0.12000000000000455,"midi":46,"time":67.67999999999999,"velocity":0.3228346456692913},{"duration":0.12000000000000455,"midi":54,"time":67.67999999999999,"velocity":0.2755905511811024},{"duration":0.12000000000000455,"midi":37,"time":67.67999999999999,"velocity":0.3543307086614173},{"duration":0.12000000000000455,"midi":39,"time":67.67999999999999,"velocity":0.3543307086614173},{"duration":0.11999999999999034,"midi":54,"time":67.92,"velocity":0.2755905511811024},{"duration":0.11999999999999034,"midi":42,"time":67.92,"velocity":0.3228346456692913},{"duration":0.12000000000000455,"midi":42,"time":68.03999999999999,"velocity":0.3228346456692913},{"duration":0.12000000000000455,"midi":54,"time":68.03999999999999,"velocity":0.2755905511811024},{"duration":0.12000000000000455,"midi":54,"time":68.16,"velocity":0.2755905511811024},{"duration":0.12000000000000455,"midi":42,"time":68.16,"velocity":0.3228346456692913},{"duration":0.12000000000000455,"midi":54,"time":68.39999999999999,"velocity":0.2755905511811024},{"duration":0.12000000000000455,"midi":42,"time":68.39999999999999,"velocity":0.3228346456692913},{"duration":0.12000000000000455,"midi":54,"time":68.52,"velocity":0.2755905511811024},{"duration":0.12000000000000455,"midi":42,"time":68.52,"velocity":0.3228346456692913},{"duration":0.11999999999999034,"midi":37,"time":68.64,"velocity":0.3543307086614173},{"duration":0.11999999999999034,"midi":46,"time":68.64,"velocity":0.3228346456692913},{"duration":0.11999999999999034,"midi":54,"time":68.64,"velocity":0.2755905511811024},{"duration":0.11999999999999034,"midi":39,"time":68.64,"velocity":0.3543307086614173},{"duration":0.12000000000000455,"midi":54,"time":68.88,"velocity":0.2755905511811024},{"duration":0.12000000000000455,"midi":42,"time":68.88,"velocity":0.3228346456692913},{"duration":0.12000000000000455,"midi":54,"time":69,"velocity":0.2755905511811024},{"duration":0.12000000000000455,"midi":42,"time":69,"velocity":0.3228346456692913},{"duration":0.11999999999999034,"midi":42,"time":69.12,"velocity":0.3228346456692913},{"duration":0.11999999999999034,"midi":54,"time":69.12,"velocity":0.2755905511811024},{"duration":0.12000000000000455,"midi":42,"time":69.36,"velocity":0.3228346456692913},{"duration":0.12000000000000455,"midi":54,"time":69.36,"velocity":0.2755905511811024},{"duration":0.11999999999999034,"midi":54,"time":69.48,"velocity":0.2755905511811024},{"duration":0.11999999999999034,"midi":42,"time":69.48,"velocity":0.3228346456692913},{"duration":0.12000000000000455,"midi":37,"time":69.6,"velocity":0.3543307086614173},{"duration":0.12000000000000455,"midi":39,"time":69.6,"velocity":0.3543307086614173},{"duration":0.12000000000000455,"midi":54,"time":69.6,"velocity":0.2755905511811024},{"duration":0.12000000000000455,"midi":46,"time":69.6,"velocity":0.3228346456692913},{"duration":0.11999999999999034,"midi":54,"time":69.84,"velocity":0.2755905511811024},{"duration":0.11999999999999034,"midi":42,"time":69.84,"velocity":0.3228346456692913},{"duration":0.12000000000000455,"midi":42,"time":69.96,"velocity":0.3228346456692913},{"duration":0.12000000000000455,"midi":54,"time":69.96,"velocity":0.2755905511811024},{"duration":0.12000000000000455,"midi":42,"time":70.08,"velocity":0.3228346456692913},{"duration":0.12000000000000455,"midi":54,"time":70.08,"velocity":0.2755905511811024},{"duration":0.12000000000000455,"midi":42,"time":70.32,"velocity":0.3228346456692913},{"duration":0.12000000000000455,"midi":54,"time":70.32,"velocity":0.2755905511811024},{"duration":0.12000000000000455,"midi":42,"time":70.44,"velocity":0.3228346456692913},{"duration":0.12000000000000455,"midi":54,"time":70.44,"velocity":0.2755905511811024},{"duration":0.11999999999999034,"midi":39,"time":70.56,"velocity":0.3543307086614173},{"duration":0.11999999999999034,"midi":46,"time":70.56,"velocity":0.3228346456692913},{"duration":0.11999999999999034,"midi":54,"time":70.56,"velocity":0.2755905511811024},{"duration":0.11999999999999034,"midi":37,"time":70.56,"velocity":0.3543307086614173},{"duration":0.12000000000000455,"midi":54,"time":70.8,"velocity":0.2755905511811024},{"duration":0.12000000000000455,"midi":42,"time":70.8,"velocity":0.3228346456692913},{"duration":0.11999999999999034,"midi":42,"time":70.92,"velocity":0.3228346456692913},{"duration":0.11999999999999034,"midi":54,"time":70.92,"velocity":0.2755905511811024},{"duration":0.12000000000000455,"midi":42,"time":71.03999999999999,"velocity":0.3228346456692913},{"duration":0.12000000000000455,"midi":54,"time":71.03999999999999,"velocity":0.2755905511811024},{"duration":0.11999999999999034,"midi":54,"time":71.28,"velocity":0.2755905511811024},{"duration":0.11999999999999034,"midi":42,"time":71.28,"velocity":0.3228346456692913},{"duration":0.12000000000000455,"midi":42,"time":71.39999999999999,"velocity":0.3228346456692913},{"duration":0.12000000000000455,"midi":54,"time":71.39999999999999,"velocity":0.2755905511811024},{"duration":0.12000000000000455,"midi":39,"time":71.52,"velocity":0.3543307086614173},{"duration":0.12000000000000455,"midi":37,"time":71.52,"velocity":0.3543307086614173},{"duration":0.12000000000000455,"midi":46,"time":71.52,"velocity":0.3228346456692913},{"duration":0.12000000000000455,"midi":54,"time":71.52,"velocity":0.2755905511811024},{"duration":0.12000000000000455,"midi":54,"time":71.75999999999999,"velocity":0.2755905511811024},{"duration":0.12000000000000455,"midi":42,"time":71.75999999999999,"velocity":0.3228346456692913},{"duration":0.12000000000000455,"midi":42,"time":71.88,"velocity":0.3228346456692913},{"duration":0.12000000000000455,"midi":54,"time":71.88,"velocity":0.2755905511811024},{"duration":0.11999999999999034,"midi":42,"time":72,"velocity":0.3228346456692913},{"duration":0.11999999999999034,"midi":54,"time":72,"velocity":0.2755905511811024},{"duration":0.12000000000000455,"midi":42,"time":72.24,"velocity":0.3228346456692913},{"duration":0.12000000000000455,"midi":54,"time":72.24,"velocity":0.2755905511811024},{"duration":0.12000000000000455,"midi":54,"time":72.36,"velocity":0.2755905511811024},{"duration":0.12000000000000455,"midi":42,"time":72.36,"velocity":0.3228346456692913},{"duration":0.11999999999999034,"midi":37,"time":72.48,"velocity":0.3543307086614173},{"duration":0.11999999999999034,"midi":39,"time":72.48,"velocity":0.3543307086614173},{"duration":0.11999999999999034,"midi":46,"time":72.48,"velocity":0.3228346456692913},{"duration":0.11999999999999034,"midi":54,"time":72.48,"velocity":0.2755905511811024},{"duration":0.12000000000000455,"midi":54,"time":72.72,"velocity":0.2755905511811024},{"duration":0.12000000000000455,"midi":42,"time":72.72,"velocity":0.3228346456692913},{"duration":0.11999999999999034,"midi":54,"time":72.84,"velocity":0.2755905511811024},{"duration":0.11999999999999034,"midi":42,"time":72.84,"velocity":0.3228346456692913},{"duration":0.12000000000000455,"midi":42,"time":72.96,"velocity":0.3228346456692913},{"duration":0.12000000000000455,"midi":54,"time":72.96,"velocity":0.2755905511811024},{"duration":0.11999999999999034,"midi":42,"time":73.2,"velocity":0.3228346456692913},{"duration":0.11999999999999034,"midi":54,"time":73.2,"velocity":0.2755905511811024},{"duration":0.12000000000000455,"midi":54,"time":73.32,"velocity":0.2755905511811024},{"duration":0.12000000000000455,"midi":42,"time":73.32,"velocity":0.3228346456692913},{"duration":0.12000000000000455,"midi":37,"time":73.44,"velocity":0.3543307086614173},{"duration":0.12000000000000455,"midi":39,"time":73.44,"velocity":0.3543307086614173},{"duration":0.12000000000000455,"midi":54,"time":73.44,"velocity":0.2755905511811024},{"duration":0.12000000000000455,"midi":46,"time":73.44,"velocity":0.3228346456692913},{"duration":0.12000000000000455,"midi":42,"time":73.67999999999999,"velocity":0.3228346456692913},{"duration":0.12000000000000455,"midi":54,"time":73.67999999999999,"velocity":0.2755905511811024},{"duration":0.12000000000000455,"midi":42,"time":73.8,"velocity":0.3228346456692913},{"duration":0.12000000000000455,"midi":54,"time":73.8,"velocity":0.2755905511811024},{"duration":0.11999999999999034,"midi":54,"time":73.92,"velocity":0.2755905511811024},{"duration":0.11999999999999034,"midi":42,"time":73.92,"velocity":0.3228346456692913},{"duration":0.12000000000000455,"midi":42,"time":74.16,"velocity":0.3228346456692913},{"duration":0.12000000000000455,"midi":54,"time":74.16,"velocity":0.2755905511811024},{"duration":0.11999999999999034,"midi":54,"time":74.28,"velocity":0.2755905511811024},{"duration":0.11999999999999034,"midi":42,"time":74.28,"velocity":0.3228346456692913},{"duration":0.12000000000000455,"midi":54,"time":74.39999999999999,"velocity":0.2755905511811024},{"duration":0.12000000000000455,"midi":46,"time":74.39999999999999,"velocity":0.3228346456692913},{"duration":0.12000000000000455,"midi":39,"time":74.39999999999999,"velocity":0.3543307086614173},{"duration":0.12000000000000455,"midi":37,"time":74.39999999999999,"velocity":0.3543307086614173},{"duration":0.11999999999999034,"midi":42,"time":74.64,"velocity":0.3228346456692913},{"duration":0.11999999999999034,"midi":54,"time":74.64,"velocity":0.2755905511811024},{"duration":0.12000000000000455,"midi":42,"time":74.75999999999999,"velocity":0.3228346456692913},{"duration":0.12000000000000455,"midi":54,"time":74.75999999999999,"velocity":0.2755905511811024},{"duration":0.12000000000000455,"midi":54,"time":74.88,"velocity":0.2755905511811024},{"duration":0.12000000000000455,"midi":42,"time":74.88,"velocity":0.3228346456692913},{"duration":0.12000000000000455,"midi":61,"time":76.8,"velocity":0.2992125984251969},{"duration":0.12000000000000455,"midi":36,"time":76.8,"velocity":0.31496062992125984},{"duration":0.11999999999999034,"midi":60,"time":76.92,"velocity":0.2992125984251969},{"duration":0.12000000000000455,"midi":54,"time":77.03999999999999,"velocity":0.2755905511811024},{"duration":0.12000000000000455,"midi":42,"time":77.03999999999999,"velocity":0.31496062992125984},{"duration":0.12000000000000455,"midi":61,"time":77.16,"velocity":0.2992125984251969},{"duration":0.12000000000000455,"midi":42,"time":77.16,"velocity":0.31496062992125984},{"duration":0.12000000000000455,"midi":54,"time":77.16,"velocity":0.2755905511811024},{"duration":0.11999999999999034,"midi":61,"time":77.28,"velocity":0.2992125984251969},{"duration":0.11999999999999034,"midi":46,"time":77.28,"velocity":0.31496062992125984},{"duration":0.11999999999999034,"midi":54,"time":77.28,"velocity":0.2755905511811024},{"duration":0.11999999999999034,"midi":40,"time":77.28,"velocity":0.3228346456692913},{"duration":0.12000000000000455,"midi":61,"time":77.52,"velocity":0.2204724409448819},{"duration":0.12000000000000455,"midi":54,"time":77.52,"velocity":0.2755905511811024},{"duration":0.12000000000000455,"midi":42,"time":77.52,"velocity":0.31496062992125984},{"duration":0.11999999999999034,"midi":61,"time":77.64,"velocity":0.2204724409448819},{"duration":0.11999999999999034,"midi":54,"time":77.64,"velocity":0.2755905511811024},{"duration":0.11999999999999034,"midi":42,"time":77.64,"velocity":0.31496062992125984},{"duration":0.12000000000000455,"midi":61,"time":77.75999999999999,"velocity":0.2992125984251969},{"duration":0.12000000000000455,"midi":36,"time":77.75999999999999,"velocity":0.31496062992125984},{"duration":0.12000000000000455,"midi":60,"time":77.88,"velocity":0.2992125984251969},{"duration":0.11999999999999034,"midi":42,"time":78,"velocity":0.31496062992125984},{"duration":0.11999999999999034,"midi":54,"time":78,"velocity":0.2755905511811024},{"duration":0.12000000000000455,"midi":42,"time":78.11999999999999,"velocity":0.31496062992125984},{"duration":0.12000000000000455,"midi":54,"time":78.11999999999999,"velocity":0.2755905511811024},{"duration":0.12000000000000455,"midi":61,"time":78.11999999999999,"velocity":0.2992125984251969},{"duration":0.12000000000000455,"midi":61,"time":78.24,"velocity":0.2992125984251969},{"duration":0.12000000000000455,"midi":54,"time":78.24,"velocity":0.2755905511811024},{"duration":0.12000000000000455,"midi":40,"time":78.24,"velocity":0.3228346456692913},{"duration":0.12000000000000455,"midi":46,"time":78.24,"velocity":0.31496062992125984},{"duration":0.11999999999999034,"midi":61,"time":78.48,"velocity":0.2204724409448819},{"duration":0.11999999999999034,"midi":54,"time":78.48,"velocity":0.2755905511811024},{"duration":0.11999999999999034,"midi":42,"time":78.48,"velocity":0.31496062992125984},{"duration":0.12000000000000455,"midi":54,"time":78.6,"velocity":0.2755905511811024},{"duration":0.12000000000000455,"midi":61,"time":78.6,"velocity":0.2204724409448819},{"duration":0.12000000000000455,"midi":42,"time":78.6,"velocity":0.31496062992125984},{"duration":0.12000000000000455,"midi":36,"time":78.72,"velocity":0.31496062992125984},{"duration":0.12000000000000455,"midi":61,"time":78.72,"velocity":0.2992125984251969},{"duration":0.11999999999999034,"midi":60,"time":78.84,"velocity":0.2992125984251969},{"duration":0.12000000000000455,"midi":54,"time":78.96,"velocity":0.2755905511811024},{"duration":0.12000000000000455,"midi":42,"time":78.96,"velocity":0.31496062992125984},{"duration":0.12000000000000455,"midi":54,"time":79.08,"velocity":0.2755905511811024},{"duration":0.12000000000000455,"midi":42,"time":79.08,"velocity":0.31496062992125984},{"duration":0.12000000000000455,"midi":61,"time":79.08,"velocity":0.2992125984251969},{"duration":0.11999999999999034,"midi":61,"time":79.2,"velocity":0.2992125984251969},{"duration":0.11999999999999034,"midi":46,"time":79.2,"velocity":0.31496062992125984},{"duration":0.11999999999999034,"midi":54,"time":79.2,"velocity":0.2755905511811024},{"duration":0.11999999999999034,"midi":40,"time":79.2,"velocity":0.3228346456692913},{"duration":0.12000000000000455,"midi":61,"time":79.44,"velocity":0.2204724409448819},{"duration":0.12000000000000455,"midi":54,"time":79.44,"velocity":0.2755905511811024},{"duration":0.12000000000000455,"midi":42,"time":79.44,"velocity":0.31496062992125984},{"duration":0.11999999999999034,"midi":61,"time":79.56,"velocity":0.2204724409448819},{"duration":0.11999999999999034,"midi":54,"time":79.56,"velocity":0.2755905511811024},{"duration":0.11999999999999034,"midi":42,"time":79.56,"velocity":0.31496062992125984},{"duration":0.12000000000000455,"midi":36,"time":79.67999999999999,"velocity":0.31496062992125984},{"duration":0.12000000000000455,"midi":61,"time":79.67999999999999,"velocity":0.2992125984251969},{"duration":0.12000000000000455,"midi":60,"time":79.8,"velocity":0.2992125984251969},{"duration":0.11999999999999034,"midi":54,"time":79.92,"velocity":0.2755905511811024},{"duration":0.11999999999999034,"midi":42,"time":79.92,"velocity":0.31496062992125984},{"duration":0.12000000000000455,"midi":54,"time":80.03999999999999,"velocity":0.2755905511811024},{"duration":0.12000000000000455,"midi":61,"time":80.03999999999999,"velocity":0.2992125984251969},{"duration":0.12000000000000455,"midi":42,"time":80.03999999999999,"velocity":0.31496062992125984},{"duration":0.12000000000000455,"midi":40,"time":80.16,"velocity":0.3228346456692913},{"duration":0.12000000000000455,"midi":61,"time":80.16,"velocity":0.2992125984251969},{"duration":0.12000000000000455,"midi":46,"time":80.16,"velocity":0.31496062992125984},{"duration":0.12000000000000455,"midi":54,"time":80.16,"velocity":0.2755905511811024},{"duration":0.12000000000000455,"midi":42,"time":80.39999999999999,"velocity":0.31496062992125984},{"duration":0.12000000000000455,"midi":61,"time":80.39999999999999,"velocity":0.2204724409448819},{"duration":0.12000000000000455,"midi":54,"time":80.39999999999999,"velocity":0.2755905511811024},{"duration":0.12000000000000455,"midi":54,"time":80.52,"velocity":0.2755905511811024},{"duration":0.12000000000000455,"midi":42,"time":80.52,"velocity":0.31496062992125984},{"duration":0.12000000000000455,"midi":61,"time":80.52,"velocity":0.2204724409448819},{"duration":0.11999999999999034,"midi":61,"time":80.64,"velocity":0.2992125984251969},{"duration":0.11999999999999034,"midi":36,"time":80.64,"velocity":0.31496062992125984},{"duration":0.12000000000000455,"midi":60,"time":80.75999999999999,"velocity":0.2992125984251969},{"duration":0.12000000000000455,"midi":42,"time":80.88,"velocity":0.31496062992125984},{"duration":0.12000000000000455,"midi":54,"time":80.88,"velocity":0.2755905511811024},{"duration":0.11999999999999034,"midi":61,"time":81,"velocity":0.2992125984251969},{"duration":0.11999999999999034,"midi":42,"time":81,"velocity":0.31496062992125984},{"duration":0.11999999999999034,"midi":54,"time":81,"velocity":0.2755905511811024},{"duration":0.12000000000000455,"midi":40,"time":81.11999999999999,"velocity":0.3228346456692913},{"duration":0.12000000000000455,"midi":46,"time":81.11999999999999,"velocity":0.31496062992125984},{"duration":0.12000000000000455,"midi":54,"time":81.11999999999999,"velocity":0.2755905511811024},{"duration":0.12000000000000455,"midi":61,"time":81.11999999999999,"velocity":0.2992125984251969},{"duration":0.12000000000000455,"midi":42,"time":81.36,"velocity":0.31496062992125984},{"duration":0.12000000000000455,"midi":54,"time":81.36,"velocity":0.2755905511811024},{"duration":0.12000000000000455,"midi":61,"time":81.36,"velocity":0.2204724409448819},{"duration":0.11999999999999034,"midi":54,"time":81.48,"velocity":0.2755905511811024},{"duration":0.11999999999999034,"midi":61,"time":81.48,"velocity":0.2204724409448819},{"duration":0.11999999999999034,"midi":42,"time":81.48,"velocity":0.31496062992125984},{"duration":0.12000000000000455,"midi":36,"time":81.6,"velocity":0.31496062992125984},{"duration":0.12000000000000455,"midi":61,"time":81.6,"velocity":0.2992125984251969},{"duration":0.12000000000000455,"midi":60,"time":81.72,"velocity":0.2992125984251969},{"duration":0.11999999999999034,"midi":42,"time":81.84,"velocity":0.31496062992125984},{"duration":0.11999999999999034,"midi":54,"time":81.84,"velocity":0.2755905511811024},{"duration":0.12000000000000455,"midi":42,"time":81.96,"velocity":0.31496062992125984},{"duration":0.12000000000000455,"midi":61,"time":81.96,"velocity":0.2992125984251969},{"duration":0.12000000000000455,"midi":54,"time":81.96,"velocity":0.2755905511811024},{"duration":0.12000000000000455,"midi":46,"time":82.08,"velocity":0.31496062992125984},{"duration":0.12000000000000455,"midi":54,"time":82.08,"velocity":0.2755905511811024},{"duration":0.12000000000000455,"midi":61,"time":82.08,"velocity":0.2992125984251969},{"duration":0.12000000000000455,"midi":40,"time":82.08,"velocity":0.3228346456692913},{"duration":0.12000000000000455,"midi":61,"time":82.32,"velocity":0.2204724409448819},{"duration":0.12000000000000455,"midi":42,"time":82.32,"velocity":0.31496062992125984},{"duration":0.12000000000000455,"midi":54,"time":82.32,"velocity":0.2755905511811024},{"duration":0.12000000000000455,"midi":42,"time":82.44,"velocity":0.31496062992125984},{"duration":0.12000000000000455,"midi":54,"time":82.44,"velocity":0.2755905511811024},{"duration":0.12000000000000455,"midi":61,"time":82.44,"velocity":0.2204724409448819},{"duration":0.11999999999999034,"midi":61,"time":82.56,"velocity":0.2992125984251969},{"duration":0.11999999999999034,"midi":36,"time":82.56,"velocity":0.31496062992125984},{"duration":0.12000000000000455,"midi":60,"time":82.67999999999999,"velocity":0.2992125984251969},{"duration":0.12000000000000455,"midi":42,"time":82.8,"velocity":0.31496062992125984},{"duration":0.12000000000000455,"midi":54,"time":82.8,"velocity":0.2755905511811024},{"duration":0.11999999999999034,"midi":61,"time":82.92,"velocity":0.2992125984251969},{"duration":0.11999999999999034,"midi":54,"time":82.92,"velocity":0.2755905511811024},{"duration":0.11999999999999034,"midi":42,"time":82.92,"velocity":0.31496062992125984},{"duration":0.12000000000000455,"midi":46,"time":83.03999999999999,"velocity":0.31496062992125984},{"duration":0.12000000000000455,"midi":40,"time":83.03999999999999,"velocity":0.3228346456692913},{"duration":0.12000000000000455,"midi":54,"time":83.03999999999999,"velocity":0.2755905511811024},{"duration":0.12000000000000455,"midi":61,"time":83.03999999999999,"velocity":0.2992125984251969},{"duration":0.11999999999999034,"midi":54,"time":83.28,"velocity":0.2755905511811024},{"duration":0.11999999999999034,"midi":42,"time":83.28,"velocity":0.31496062992125984},{"duration":0.11999999999999034,"midi":61,"time":83.28,"velocity":0.2204724409448819},{"duration":0.12000000000000455,"midi":54,"time":83.39999999999999,"velocity":0.2755905511811024},{"duration":0.12000000000000455,"midi":42,"time":83.39999999999999,"velocity":0.31496062992125984},{"duration":0.12000000000000455,"midi":61,"time":83.39999999999999,"velocity":0.2204724409448819},{"duration":0.12000000000000455,"midi":61,"time":83.52,"velocity":0.2992125984251969},{"duration":0.12000000000000455,"midi":36,"time":83.52,"velocity":0.31496062992125984},{"duration":0.11999999999999034,"midi":60,"time":83.64,"velocity":0.2992125984251969},{"duration":0.12000000000000455,"midi":42,"time":83.75999999999999,"velocity":0.31496062992125984},{"duration":0.12000000000000455,"midi":54,"time":83.75999999999999,"velocity":0.2755905511811024},{"duration":0.12000000000000455,"midi":61,"time":83.88,"velocity":0.2992125984251969},{"duration":0.12000000000000455,"midi":42,"time":83.88,"velocity":0.31496062992125984},{"duration":0.12000000000000455,"midi":54,"time":83.88,"velocity":0.2755905511811024},{"duration":0.11999999999999034,"midi":61,"time":84,"velocity":0.2992125984251969},{"duration":0.11999999999999034,"midi":54,"time":84,"velocity":0.2755905511811024},{"duration":0.11999999999999034,"midi":46,"time":84,"velocity":0.31496062992125984},{"duration":0.11999999999999034,"midi":40,"time":84,"velocity":0.3228346456692913},{"duration":0.12000000000000455,"midi":61,"time":84.24,"velocity":0.2204724409448819},{"duration":0.12000000000000455,"midi":42,"time":84.24,"velocity":0.31496062992125984},{"duration":0.12000000000000455,"midi":54,"time":84.24,"velocity":0.2755905511811024},{"duration":0.11999999999999034,"midi":54,"time":84.36,"velocity":0.2755905511811024},{"duration":0.11999999999999034,"midi":42,"time":84.36,"velocity":0.31496062992125984},{"duration":0.11999999999999034,"midi":61,"time":84.36,"velocity":0.2204724409448819},{"duration":0.12000000000000455,"midi":61,"time":84.47999999999999,"velocity":0.2992125984251969},{"duration":0.12000000000000455,"midi":36,"time":84.47999999999999,"velocity":0.31496062992125984},{"duration":0.12000000000000455,"midi":60,"time":84.6,"velocity":0.2992125984251969},{"duration":0.12000000000000455,"midi":54,"time":84.72,"velocity":0.2755905511811024},{"duration":0.12000000000000455,"midi":42,"time":84.72,"velocity":0.31496062992125984},{"duration":0.11999999999999034,"midi":54,"time":84.84,"velocity":0.2755905511811024},{"duration":0.11999999999999034,"midi":42,"time":84.84,"velocity":0.31496062992125984},{"duration":0.11999999999999034,"midi":61,"time":84.84,"velocity":0.2992125984251969},{"duration":0.12000000000000455,"midi":61,"time":84.96,"velocity":0.2992125984251969},{"duration":0.12000000000000455,"midi":40,"time":84.96,"velocity":0.3228346456692913},{"duration":0.12000000000000455,"midi":54,"time":84.96,"velocity":0.2755905511811024},{"duration":0.12000000000000455,"midi":46,"time":84.96,"velocity":0.31496062992125984},{"duration":0.11999999999999034,"midi":42,"time":85.2,"velocity":0.31496062992125984},{"duration":0.11999999999999034,"midi":54,"time":85.2,"velocity":0.2755905511811024},{"duration":0.11999999999999034,"midi":61,"time":85.2,"velocity":0.2204724409448819},{"duration":0.12000000000000455,"midi":54,"time":85.32,"velocity":0.2755905511811024},{"duration":0.12000000000000455,"midi":42,"time":85.32,"velocity":0.31496062992125984},{"duration":0.12000000000000455,"midi":61,"time":85.32,"velocity":0.2204724409448819},{"duration":0.12000000000000455,"midi":36,"time":85.44,"velocity":0.31496062992125984},{"duration":0.12000000000000455,"midi":61,"time":85.44,"velocity":0.2992125984251969},{"duration":0.11999999999999034,"midi":60,"time":85.56,"velocity":0.2992125984251969},{"duration":0.12000000000000455,"midi":54,"time":85.67999999999999,"velocity":0.2755905511811024},{"duration":0.12000000000000455,"midi":42,"time":85.67999999999999,"velocity":0.31496062992125984},{"duration":0.12000000000000455,"midi":42,"time":85.8,"velocity":0.31496062992125984},{"duration":0.12000000000000455,"midi":61,"time":85.8,"velocity":0.2992125984251969},{"duration":0.12000000000000455,"midi":54,"time":85.8,"velocity":0.2755905511811024},{"duration":0.11999999999999034,"midi":40,"time":85.92,"velocity":0.3228346456692913},{"duration":0.11999999999999034,"midi":54,"time":85.92,"velocity":0.2755905511811024},{"duration":0.11999999999999034,"midi":61,"time":85.92,"velocity":0.2992125984251969},{"duration":0.11999999999999034,"midi":46,"time":85.92,"velocity":0.31496062992125984},{"duration":0.12000000000000455,"midi":61,"time":86.16,"velocity":0.2204724409448819},{"duration":0.12000000000000455,"midi":54,"time":86.16,"velocity":0.2755905511811024},{"duration":0.12000000000000455,"midi":42,"time":86.16,"velocity":0.31496062992125984},{"duration":0.11999999999999034,"midi":54,"time":86.28,"velocity":0.2755905511811024},{"duration":0.11999999999999034,"midi":42,"time":86.28,"velocity":0.31496062992125984},{"duration":0.11999999999999034,"midi":61,"time":86.28,"velocity":0.2204724409448819},{"duration":0.12000000000000455,"midi":61,"time":86.39999999999999,"velocity":0.2992125984251969},{"duration":0.12000000000000455,"midi":36,"time":86.39999999999999,"velocity":0.31496062992125984},{"duration":0.12000000000000455,"midi":60,"time":86.52,"velocity":0.2992125984251969},{"duration":0.11999999999999034,"midi":42,"time":86.64,"velocity":0.31496062992125984},{"duration":0.11999999999999034,"midi":54,"time":86.64,"velocity":0.2755905511811024},{"duration":0.12000000000000455,"midi":54,"time":86.75999999999999,"velocity":0.2755905511811024},{"duration":0.12000000000000455,"midi":42,"time":86.75999999999999,"velocity":0.31496062992125984},{"duration":0.12000000000000455,"midi":61,"time":86.75999999999999,"velocity":0.2992125984251969},{"duration":0.12000000000000455,"midi":61,"time":86.88,"velocity":0.2992125984251969},{"duration":0.12000000000000455,"midi":54,"time":86.88,"velocity":0.2755905511811024},{"duration":0.12000000000000455,"midi":40,"time":86.88,"velocity":0.3228346456692913},{"duration":0.12000000000000455,"midi":46,"time":86.88,"velocity":0.31496062992125984},{"duration":0.12000000000000455,"midi":42,"time":87.11999999999999,"velocity":0.31496062992125984},{"duration":0.12000000000000455,"midi":54,"time":87.11999999999999,"velocity":0.2755905511811024},{"duration":0.12000000000000455,"midi":61,"time":87.11999999999999,"velocity":0.2204724409448819},{"duration":0.12000000000000455,"midi":61,"time":87.24,"velocity":0.2204724409448819},{"duration":0.12000000000000455,"midi":42,"time":87.24,"velocity":0.31496062992125984},{"duration":0.12000000000000455,"midi":54,"time":87.24,"velocity":0.2755905511811024},{"duration":0.11999999999999034,"midi":36,"time":87.36,"velocity":0.31496062992125984},{"duration":0.11999999999999034,"midi":61,"time":87.36,"velocity":0.2992125984251969},{"duration":0.12000000000000455,"midi":60,"time":87.47999999999999,"velocity":0.2992125984251969},{"duration":0.12000000000000455,"midi":54,"time":87.6,"velocity":0.2755905511811024},{"duration":0.12000000000000455,"midi":42,"time":87.6,"velocity":0.31496062992125984},{"duration":0.12000000000000455,"midi":42,"time":87.72,"velocity":0.31496062992125984},{"duration":0.12000000000000455,"midi":61,"time":87.72,"velocity":0.2992125984251969},{"duration":0.12000000000000455,"midi":54,"time":87.72,"velocity":0.2755905511811024},{"duration":0.11999999999999034,"midi":40,"time":87.84,"velocity":0.3228346456692913},{"duration":0.11999999999999034,"midi":54,"time":87.84,"velocity":0.2755905511811024},{"duration":0.11999999999999034,"midi":61,"time":87.84,"velocity":0.2992125984251969},{"duration":0.11999999999999034,"midi":46,"time":87.84,"velocity":0.31496062992125984},{"duration":0.12000000000000455,"midi":61,"time":88.08,"velocity":0.2204724409448819},{"duration":0.12000000000000455,"midi":42,"time":88.08,"velocity":0.31496062992125984},{"duration":0.12000000000000455,"midi":54,"time":88.08,"velocity":0.2755905511811024},{"duration":0.11999999999999034,"midi":42,"time":88.2,"velocity":0.31496062992125984},{"duration":0.11999999999999034,"midi":61,"time":88.2,"velocity":0.2204724409448819},{"duration":0.11999999999999034,"midi":54,"time":88.2,"velocity":0.2755905511811024},{"duration":0.12000000000000455,"midi":36,"time":88.32,"velocity":0.31496062992125984},{"duration":0.12000000000000455,"midi":61,"time":88.32,"velocity":0.2992125984251969},{"duration":0.12000000000000455,"midi":60,"time":88.44,"velocity":0.2992125984251969},{"duration":0.11999999999999034,"midi":42,"time":88.56,"velocity":0.31496062992125984},{"duration":0.11999999999999034,"midi":54,"time":88.56,"velocity":0.2755905511811024},{"duration":0.12000000000000455,"midi":54,"time":88.67999999999999,"velocity":0.2755905511811024},{"duration":0.12000000000000455,"midi":42,"time":88.67999999999999,"velocity":0.31496062992125984},{"duration":0.12000000000000455,"midi":61,"time":88.67999999999999,"velocity":0.2992125984251969},{"duration":0.12000000000000455,"midi":40,"time":88.8,"velocity":0.3228346456692913},{"duration":0.12000000000000455,"midi":54,"time":88.8,"velocity":0.2755905511811024},{"duration":0.12000000000000455,"midi":61,"time":88.8,"velocity":0.2992125984251969},{"duration":0.12000000000000455,"midi":46,"time":88.8,"velocity":0.31496062992125984},{"duration":0.12000000000000455,"midi":61,"time":89.03999999999999,"velocity":0.2204724409448819},{"duration":0.12000000000000455,"midi":42,"time":89.03999999999999,"velocity":0.31496062992125984},{"duration":0.12000000000000455,"midi":54,"time":89.03999999999999,"velocity":0.2755905511811024},{"duration":0.12000000000000455,"midi":42,"time":89.16,"velocity":0.31496062992125984},{"duration":0.12000000000000455,"midi":54,"time":89.16,"velocity":0.2755905511811024},{"duration":0.12000000000000455,"midi":61,"time":89.16,"velocity":0.2204724409448819},{"duration":0.11999999999999034,"midi":36,"time":89.28,"velocity":0.31496062992125984},{"duration":0.11999999999999034,"midi":61,"time":89.28,"velocity":0.2992125984251969},{"duration":0.12000000000000455,"midi":60,"time":89.39999999999999,"velocity":0.2992125984251969},{"duration":0.12000000000000455,"midi":54,"time":89.52,"velocity":0.2755905511811024},{"duration":0.12000000000000455,"midi":42,"time":89.52,"velocity":0.31496062992125984},{"duration":0.11999999999999034,"midi":61,"time":89.64,"velocity":0.2992125984251969},{"duration":0.11999999999999034,"midi":54,"time":89.64,"velocity":0.2755905511811024},{"duration":0.11999999999999034,"midi":42,"time":89.64,"velocity":0.31496062992125984},{"duration":0.12000000000000455,"midi":54,"time":89.75999999999999,"velocity":0.2755905511811024},{"duration":0.12000000000000455,"midi":46,"time":89.75999999999999,"velocity":0.31496062992125984},{"duration":0.12000000000000455,"midi":61,"time":89.75999999999999,"velocity":0.2992125984251969},{"duration":0.12000000000000455,"midi":40,"time":89.75999999999999,"velocity":0.3228346456692913},{"duration":0.11999999999999034,"midi":61,"time":90,"velocity":0.2204724409448819},{"duration":0.11999999999999034,"midi":54,"time":90,"velocity":0.2755905511811024},{"duration":0.11999999999999034,"midi":42,"time":90,"velocity":0.31496062992125984},{"duration":0.12000000000000455,"midi":42,"time":90.11999999999999,"velocity":0.31496062992125984},{"duration":0.12000000000000455,"midi":54,"time":90.11999999999999,"velocity":0.2755905511811024},{"duration":0.12000000000000455,"midi":61,"time":90.11999999999999,"velocity":0.2204724409448819},{"duration":0.12000000000000455,"midi":61,"time":90.24,"velocity":0.2992125984251969},{"duration":0.12000000000000455,"midi":36,"time":90.24,"velocity":0.31496062992125984},{"duration":0.11999999999999034,"midi":60,"time":90.36,"velocity":0.2992125984251969},{"duration":0.12000000000000455,"midi":42,"time":90.47999999999999,"velocity":0.31496062992125984},{"duration":0.12000000000000455,"midi":54,"time":90.47999999999999,"velocity":0.2755905511811024},{"duration":0.12000000000000455,"midi":42,"time":90.6,"velocity":0.31496062992125984},{"duration":0.12000000000000455,"midi":61,"time":90.6,"velocity":0.2992125984251969},{"duration":0.12000000000000455,"midi":54,"time":90.6,"velocity":0.2755905511811024},{"duration":0.12000000000000455,"midi":46,"time":90.72,"velocity":0.31496062992125984},{"duration":0.12000000000000455,"midi":61,"time":90.72,"velocity":0.2992125984251969},{"duration":0.12000000000000455,"midi":54,"time":90.72,"velocity":0.2755905511811024},{"duration":0.12000000000000455,"midi":40,"time":90.72,"velocity":0.3228346456692913},{"duration":0.12000000000000455,"midi":42,"time":90.96,"velocity":0.31496062992125984},{"duration":0.12000000000000455,"midi":54,"time":90.96,"velocity":0.2755905511811024},{"duration":0.12000000000000455,"midi":61,"time":90.96,"velocity":0.2204724409448819},{"duration":0.12000000000000455,"midi":61,"time":91.08,"velocity":0.2204724409448819},{"duration":0.12000000000000455,"midi":42,"time":91.08,"velocity":0.31496062992125984},{"duration":0.12000000000000455,"midi":54,"time":91.08,"velocity":0.2755905511811024},{"duration":0.11999999999999034,"midi":61,"time":91.2,"velocity":0.2992125984251969},{"duration":0.11999999999999034,"midi":36,"time":91.2,"velocity":0.31496062992125984},{"duration":0.12000000000000455,"midi":60,"time":91.32,"velocity":0.2992125984251969},{"duration":0.12000000000000455,"midi":54,"time":91.44,"velocity":0.2755905511811024},{"duration":0.12000000000000455,"midi":42,"time":91.44,"velocity":0.31496062992125984},{"duration":0.11999999999999034,"midi":54,"time":91.56,"velocity":0.2755905511811024},{"duration":0.11999999999999034,"midi":61,"time":91.56,"velocity":0.2992125984251969},{"duration":0.11999999999999034,"midi":42,"time":91.56,"velocity":0.31496062992125984},{"duration":0.12000000000000455,"midi":46,"time":91.67999999999999,"velocity":0.31496062992125984},{"duration":0.12000000000000455,"midi":40,"time":91.67999999999999,"velocity":0.3228346456692913},{"duration":0.12000000000000455,"midi":54,"time":91.67999999999999,"velocity":0.2755905511811024},{"duration":0.12000000000000455,"midi":61,"time":91.67999999999999,"velocity":0.2992125984251969},{"duration":0.11999999999999034,"midi":61,"time":91.92,"velocity":0.2204724409448819},{"duration":0.11999999999999034,"midi":54,"time":91.92,"velocity":0.2755905511811024},{"duration":0.11999999999999034,"midi":42,"time":91.92,"velocity":0.31496062992125984},{"duration":0.12000000000000455,"midi":42,"time":92.03999999999999,"velocity":0.31496062992125984},{"duration":0.12000000000000455,"midi":54,"time":92.03999999999999,"velocity":0.2755905511811024},{"duration":0.12000000000000455,"midi":61,"time":92.03999999999999,"velocity":0.2204724409448819},{"duration":0.12000000000000455,"midi":61,"time":92.16,"velocity":0.2992125984251969},{"duration":0.12000000000000455,"midi":36,"time":92.16,"velocity":0.31496062992125984},{"duration":0.11999999999999034,"midi":60,"time":92.28,"velocity":0.2992125984251969},{"duration":0.12000000000000455,"midi":42,"time":92.39999999999999,"velocity":0.31496062992125984},{"duration":0.12000000000000455,"midi":54,"time":92.39999999999999,"velocity":0.2755905511811024},{"duration":0.12000000000000455,"midi":42,"time":92.52,"velocity":0.31496062992125984},{"duration":0.12000000000000455,"midi":54,"time":92.52,"velocity":0.2755905511811024},{"duration":0.12000000000000455,"midi":61,"time":92.52,"velocity":0.2992125984251969},{"duration":0.11999999999999034,"midi":46,"time":92.64,"velocity":0.31496062992125984},{"duration":0.11999999999999034,"midi":61,"time":92.64,"velocity":0.2992125984251969},{"duration":0.11999999999999034,"midi":40,"time":92.64,"velocity":0.3228346456692913},{"duration":0.11999999999999034,"midi":54,"time":92.64,"velocity":0.2755905511811024},{"duration":0.12000000000000455,"midi":54,"time":92.88,"velocity":0.2755905511811024},{"duration":0.12000000000000455,"midi":42,"time":92.88,"velocity":0.31496062992125984},{"duration":0.12000000000000455,"midi":61,"time":92.88,"velocity":0.2204724409448819},{"duration":0.11999999999999034,"midi":54,"time":93,"velocity":0.2755905511811024},{"duration":0.11999999999999034,"midi":61,"time":93,"velocity":0.2204724409448819},{"duration":0.11999999999999034,"midi":42,"time":93,"velocity":0.31496062992125984},{"duration":0.12000000000000455,"midi":61,"time":93.11999999999999,"velocity":0.2992125984251969},{"duration":0.12000000000000455,"midi":36,"time":93.11999999999999,"velocity":0.31496062992125984},{"duration":0.12000000000000455,"midi":60,"time":93.24,"velocity":0.2992125984251969},{"duration":0.11999999999999034,"midi":54,"time":93.36,"velocity":0.2755905511811024},{"duration":0.11999999999999034,"midi":42,"time":93.36,"velocity":0.31496062992125984},{"duration":0.12000000000000455,"midi":42,"time":93.47999999999999,"velocity":0.31496062992125984},{"duration":0.12000000000000455,"midi":61,"time":93.47999999999999,"velocity":0.2992125984251969},{"duration":0.12000000000000455,"midi":54,"time":93.47999999999999,"velocity":0.2755905511811024},{"duration":0.12000000000000455,"midi":40,"time":93.6,"velocity":0.3228346456692913},{"duration":0.12000000000000455,"midi":46,"time":93.6,"velocity":0.31496062992125984},{"duration":0.12000000000000455,"midi":54,"time":93.6,"velocity":0.2755905511811024},{"duration":0.12000000000000455,"midi":61,"time":93.6,"velocity":0.2992125984251969},{"duration":0.11999999999999034,"midi":42,"time":93.84,"velocity":0.31496062992125984},{"duration":0.11999999999999034,"midi":54,"time":93.84,"velocity":0.2755905511811024},{"duration":0.11999999999999034,"midi":61,"time":93.84,"velocity":0.2204724409448819},{"duration":0.12000000000000455,"midi":54,"time":93.96,"velocity":0.2755905511811024},{"duration":0.12000000000000455,"midi":61,"time":93.96,"velocity":0.2204724409448819},{"duration":0.12000000000000455,"midi":42,"time":93.96,"velocity":0.31496062992125984},{"duration":0.12000000000000455,"midi":61,"time":94.08,"velocity":0.2992125984251969},{"duration":0.12000000000000455,"midi":36,"time":94.08,"velocity":0.31496062992125984},{"duration":0.11999999999999034,"midi":60,"time":94.2,"velocity":0.2992125984251969},{"duration":0.12000000000000455,"midi":42,"time":94.32,"velocity":0.31496062992125984},{"duration":0.12000000000000455,"midi":54,"time":94.32,"velocity":0.2755905511811024},{"duration":0.12000000000000455,"midi":61,"time":94.44,"velocity":0.2992125984251969},{"duration":0.12000000000000455,"midi":42,"time":94.44,"velocity":0.31496062992125984},{"duration":0.12000000000000455,"midi":54,"time":94.44,"velocity":0.2755905511811024},{"duration":0.11999999999999034,"midi":40,"time":94.56,"velocity":0.3228346456692913},{"duration":0.11999999999999034,"midi":54,"time":94.56,"velocity":0.2755905511811024},{"duration":0.11999999999999034,"midi":46,"time":94.56,"velocity":0.31496062992125984},{"duration":0.11999999999999034,"midi":61,"time":94.56,"velocity":0.2992125984251969},{"duration":0.12000000000000455,"midi":54,"time":94.8,"velocity":0.2755905511811024},{"duration":0.12000000000000455,"midi":42,"time":94.8,"velocity":0.31496062992125984},{"duration":0.12000000000000455,"midi":61,"time":94.8,"velocity":0.2204724409448819},{"duration":0.11999999999999034,"midi":54,"time":94.92,"velocity":0.2755905511811024},{"duration":0.11999999999999034,"midi":42,"time":94.92,"velocity":0.31496062992125984},{"duration":0.11999999999999034,"midi":61,"time":94.92,"velocity":0.2204724409448819},{"duration":0.12000000000000455,"midi":61,"time":95.03999999999999,"velocity":0.2992125984251969},{"duration":0.12000000000000455,"midi":36,"time":95.03999999999999,"velocity":0.31496062992125984},{"duration":0.12000000000000455,"midi":60,"time":95.16,"velocity":0.2992125984251969},{"duration":0.11999999999999034,"midi":42,"time":95.28,"velocity":0.31496062992125984},{"duration":0.11999999999999034,"midi":54,"time":95.28,"velocity":0.2755905511811024},{"duration":0.12000000000000455,"midi":54,"time":95.39999999999999,"velocity":0.2755905511811024},{"duration":0.12000000000000455,"midi":42,"time":95.39999999999999,"velocity":0.31496062992125984},{"duration":0.12000000000000455,"midi":61,"time":95.39999999999999,"velocity":0.2992125984251969},{"duration":0.12000000000000455,"midi":61,"time":95.52,"velocity":0.2992125984251969},{"duration":0.12000000000000455,"midi":40,"time":95.52,"velocity":0.3228346456692913},{"duration":0.12000000000000455,"midi":46,"time":95.52,"velocity":0.31496062992125984},{"duration":0.12000000000000455,"midi":54,"time":95.52,"velocity":0.2755905511811024},{"duration":0.12000000000000455,"midi":54,"time":95.75999999999999,"velocity":0.2755905511811024},{"duration":0.12000000000000455,"midi":61,"time":95.75999999999999,"velocity":0.2204724409448819},{"duration":0.12000000000000455,"midi":42,"time":95.75999999999999,"velocity":0.31496062992125984},{"duration":0.12000000000000455,"midi":61,"time":95.88,"velocity":0.2204724409448819},{"duration":0.12000000000000455,"midi":42,"time":95.88,"velocity":0.31496062992125984},{"duration":0.12000000000000455,"midi":54,"time":95.88,"velocity":0.2755905511811024},{"duration":0.23999999999999488,"midi":49,"time":99.84,"velocity":0.3228346456692913},{"duration":0.11999999999999034,"midi":36,"time":99.84,"velocity":0.31496062992125984},{"duration":0.11999999999999034,"midi":61,"time":99.84,"velocity":0.2992125984251969},{"duration":0.12000000000000455,"midi":60,"time":99.96,"velocity":0.2992125984251969},{"duration":0.12000000000000455,"midi":54,"time":100.08,"velocity":0.2755905511811024},{"duration":0.12000000000000455,"midi":42,"time":100.08,"velocity":0.31496062992125984},{"duration":0.11999999999999034,"midi":54,"time":100.2,"velocity":0.2755905511811024},{"duration":0.11999999999999034,"midi":61,"time":100.2,"velocity":0.2992125984251969},{"duration":0.11999999999999034,"midi":42,"time":100.2,"velocity":0.31496062992125984},{"duration":0.12000000000000455,"midi":46,"time":100.32,"velocity":0.31496062992125984},{"duration":0.12000000000000455,"midi":61,"time":100.32,"velocity":0.2992125984251969},{"duration":0.12000000000000455,"midi":54,"time":100.32,"velocity":0.2755905511811024},{"duration":0.12000000000000455,"midi":40,"time":100.32,"velocity":0.3228346456692913},{"duration":0.11999999999999034,"midi":54,"time":100.56,"velocity":0.2755905511811024},{"duration":0.11999999999999034,"midi":61,"time":100.56,"velocity":0.2204724409448819},{"duration":0.11999999999999034,"midi":42,"time":100.56,"velocity":0.31496062992125984},{"duration":0.12000000000000455,"midi":42,"time":100.67999999999999,"velocity":0.31496062992125984},{"duration":0.12000000000000455,"midi":61,"time":100.67999999999999,"velocity":0.2204724409448819},{"duration":0.12000000000000455,"midi":54,"time":100.67999999999999,"velocity":0.2755905511811024},{"duration":0.12000000000000455,"midi":36,"time":100.8,"velocity":0.31496062992125984},{"duration":0.12000000000000455,"midi":61,"time":100.8,"velocity":0.2992125984251969},{"duration":0.11999999999999034,"midi":60,"time":100.92,"velocity":0.2992125984251969},{"duration":0.12000000000000455,"midi":54,"time":101.03999999999999,"velocity":0.2755905511811024},{"duration":0.12000000000000455,"midi":42,"time":101.03999999999999,"velocity":0.31496062992125984},{"duration":0.12000000000000455,"midi":42,"time":101.16,"velocity":0.31496062992125984},{"duration":0.12000000000000455,"midi":54,"time":101.16,"velocity":0.2755905511811024},{"duration":0.12000000000000455,"midi":61,"time":101.16,"velocity":0.2992125984251969},{"duration":0.11999999999999034,"midi":46,"time":101.28,"velocity":0.31496062992125984},{"duration":0.11999999999999034,"midi":61,"time":101.28,"velocity":0.2992125984251969},{"duration":0.11999999999999034,"midi":54,"time":101.28,"velocity":0.2755905511811024},{"duration":0.11999999999999034,"midi":40,"time":101.28,"velocity":0.3228346456692913},{"duration":0.12000000000000455,"midi":54,"time":101.52,"velocity":0.2755905511811024},{"duration":0.12000000000000455,"midi":61,"time":101.52,"velocity":0.2204724409448819},{"duration":0.12000000000000455,"midi":42,"time":101.52,"velocity":0.31496062992125984},{"duration":0.11999999999999034,"midi":61,"time":101.64,"velocity":0.2204724409448819},{"duration":0.11999999999999034,"midi":54,"time":101.64,"velocity":0.2755905511811024},{"duration":0.11999999999999034,"midi":42,"time":101.64,"velocity":0.31496062992125984},{"duration":0.12000000000000455,"midi":36,"time":101.75999999999999,"velocity":0.31496062992125984},{"duration":0.12000000000000455,"midi":61,"time":101.75999999999999,"velocity":0.2992125984251969},{"duration":0.12000000000000455,"midi":60,"time":101.88,"velocity":0.2992125984251969},{"duration":0.11999999999999034,"midi":42,"time":102,"velocity":0.31496062992125984},{"duration":0.11999999999999034,"midi":54,"time":102,"velocity":0.2755905511811024},{"duration":0.12000000000000455,"midi":42,"time":102.11999999999999,"velocity":0.31496062992125984},{"duration":0.12000000000000455,"midi":54,"time":102.11999999999999,"velocity":0.2755905511811024},{"duration":0.12000000000000455,"midi":61,"time":102.11999999999999,"velocity":0.2992125984251969},{"duration":0.12000000000000455,"midi":46,"time":102.24,"velocity":0.31496062992125984},{"duration":0.12000000000000455,"midi":54,"time":102.24,"velocity":0.2755905511811024},{"duration":0.12000000000000455,"midi":61,"time":102.24,"velocity":0.2992125984251969},{"duration":0.12000000000000455,"midi":40,"time":102.24,"velocity":0.3228346456692913},{"duration":0.12000000000000455,"midi":42,"time":102.47999999999999,"velocity":0.31496062992125984},{"duration":0.12000000000000455,"midi":54,"time":102.47999999999999,"velocity":0.2755905511811024},{"duration":0.12000000000000455,"midi":61,"time":102.47999999999999,"velocity":0.2204724409448819},{"duration":0.12000000000000455,"midi":54,"time":102.6,"velocity":0.2755905511811024},{"duration":0.12000000000000455,"midi":42,"time":102.6,"velocity":0.31496062992125984},{"duration":0.12000000000000455,"midi":61,"time":102.6,"velocity":0.2204724409448819},{"duration":0.11999999999999034,"midi":61,"time":102.72,"velocity":0.2992125984251969},{"duration":0.11999999999999034,"midi":36,"time":102.72,"velocity":0.31496062992125984},{"duration":0.12000000000000455,"midi":60,"time":102.83999999999999,"velocity":0.2992125984251969},{"duration":0.12000000000000455,"midi":54,"time":102.96,"velocity":0.2755905511811024},{"duration":0.12000000000000455,"midi":42,"time":102.96,"velocity":0.31496062992125984},{"duration":0.12000000000000455,"midi":54,"time":103.08,"velocity":0.2755905511811024},{"duration":0.12000000000000455,"midi":61,"time":103.08,"velocity":0.2992125984251969},{"duration":0.12000000000000455,"midi":42,"time":103.08,"velocity":0.31496062992125984},{"duration":0.11999999999999034,"midi":61,"time":103.2,"velocity":0.2992125984251969},{"duration":0.11999999999999034,"midi":54,"time":103.2,"velocity":0.2755905511811024},{"duration":0.11999999999999034,"midi":46,"time":103.2,"velocity":0.31496062992125984},{"duration":0.11999999999999034,"midi":40,"time":103.2,"velocity":0.3228346456692913},{"duration":0.12000000000000455,"midi":42,"time":103.44,"velocity":0.31496062992125984},{"duration":0.12000000000000455,"midi":54,"time":103.44,"velocity":0.2755905511811024},{"duration":0.12000000000000455,"midi":61,"time":103.44,"velocity":0.2204724409448819},{"duration":0.11999999999999034,"midi":54,"time":103.56,"velocity":0.2755905511811024},{"duration":0.11999999999999034,"midi":61,"time":103.56,"velocity":0.2204724409448819},{"duration":0.11999999999999034,"midi":42,"time":103.56,"velocity":0.31496062992125984},{"duration":0.12000000000000455,"midi":61,"time":103.67999999999999,"velocity":0.2992125984251969},{"duration":0.12000000000000455,"midi":36,"time":103.67999999999999,"velocity":0.31496062992125984},{"duration":0.12000000000000455,"midi":60,"time":103.8,"velocity":0.2992125984251969},{"duration":0.11999999999999034,"midi":54,"time":103.92,"velocity":0.2755905511811024},{"duration":0.11999999999999034,"midi":42,"time":103.92,"velocity":0.31496062992125984},{"duration":0.12000000000000455,"midi":54,"time":104.03999999999999,"velocity":0.2755905511811024},{"duration":0.12000000000000455,"midi":42,"time":104.03999999999999,"velocity":0.31496062992125984},{"duration":0.12000000000000455,"midi":61,"time":104.03999999999999,"velocity":0.2992125984251969},{"duration":0.12000000000000455,"midi":40,"time":104.16,"velocity":0.3228346456692913},{"duration":0.12000000000000455,"midi":61,"time":104.16,"velocity":0.2992125984251969},{"duration":0.12000000000000455,"midi":54,"time":104.16,"velocity":0.2755905511811024},{"duration":0.12000000000000455,"midi":46,"time":104.16,"velocity":0.31496062992125984},{"duration":0.12000000000000455,"midi":42,"time":104.39999999999999,"velocity":0.31496062992125984},{"duration":0.12000000000000455,"midi":54,"time":104.39999999999999,"velocity":0.2755905511811024},{"duration":0.12000000000000455,"midi":61,"time":104.39999999999999,"velocity":0.2204724409448819},{"duration":0.12000000000000455,"midi":54,"time":104.52,"velocity":0.2755905511811024},{"duration":0.12000000000000455,"midi":61,"time":104.52,"velocity":0.2204724409448819},{"duration":0.12000000000000455,"midi":42,"time":104.52,"velocity":0.31496062992125984},{"duration":0.11999999999999034,"midi":36,"time":104.64,"velocity":0.31496062992125984},{"duration":0.11999999999999034,"midi":61,"time":104.64,"velocity":0.2992125984251969},{"duration":0.12000000000000455,"midi":60,"time":104.75999999999999,"velocity":0.2992125984251969},{"duration":0.12000000000000455,"midi":54,"time":104.88,"velocity":0.2755905511811024},{"duration":0.12000000000000455,"midi":42,"time":104.88,"velocity":0.31496062992125984},{"duration":0.11999999999999034,"midi":54,"time":105,"velocity":0.2755905511811024},{"duration":0.11999999999999034,"midi":42,"time":105,"velocity":0.31496062992125984},{"duration":0.11999999999999034,"midi":61,"time":105,"velocity":0.2992125984251969},{"duration":0.12000000000000455,"midi":40,"time":105.11999999999999,"velocity":0.3228346456692913},{"duration":0.12000000000000455,"midi":61,"time":105.11999999999999,"velocity":0.2992125984251969},{"duration":0.12000000000000455,"midi":54,"time":105.11999999999999,"velocity":0.2755905511811024},{"duration":0.12000000000000455,"midi":46,"time":105.11999999999999,"velocity":0.31496062992125984},{"duration":0.11999999999999034,"midi":42,"time":105.36,"velocity":0.31496062992125984},{"duration":0.11999999999999034,"midi":54,"time":105.36,"velocity":0.2755905511811024},{"duration":0.11999999999999034,"midi":61,"time":105.36,"velocity":0.2204724409448819},{"duration":0.12000000000000455,"midi":61,"time":105.47999999999999,"velocity":0.2204724409448819},{"duration":0.12000000000000455,"midi":54,"time":105.47999999999999,"velocity":0.2755905511811024},{"duration":0.12000000000000455,"midi":42,"time":105.47999999999999,"velocity":0.31496062992125984},{"duration":0.12000000000000455,"midi":36,"time":105.6,"velocity":0.31496062992125984},{"duration":0.12000000000000455,"midi":61,"time":105.6,"velocity":0.2992125984251969},{"duration":0.11999999999999034,"midi":60,"time":105.72,"velocity":0.2992125984251969},{"duration":0.12000000000000455,"midi":54,"time":105.83999999999999,"velocity":0.2755905511811024},{"duration":0.12000000000000455,"midi":42,"time":105.83999999999999,"velocity":0.31496062992125984},{"duration":0.12000000000000455,"midi":54,"time":105.96,"velocity":0.2755905511811024},{"duration":0.12000000000000455,"midi":61,"time":105.96,"velocity":0.2992125984251969},{"duration":0.12000000000000455,"midi":42,"time":105.96,"velocity":0.31496062992125984},{"duration":0.12000000000000455,"midi":46,"time":106.08,"velocity":0.31496062992125984},{"duration":0.12000000000000455,"midi":61,"time":106.08,"velocity":0.2992125984251969},{"duration":0.12000000000000455,"midi":54,"time":106.08,"velocity":0.2755905511811024},{"duration":0.12000000000000455,"midi":40,"time":106.08,"velocity":0.3228346456692913},{"duration":0.12000000000000455,"midi":54,"time":106.32,"velocity":0.2755905511811024},{"duration":0.12000000000000455,"midi":61,"time":106.32,"velocity":0.2204724409448819},{"duration":0.12000000000000455,"midi":42,"time":106.32,"velocity":0.31496062992125984},{"duration":0.12000000000000455,"midi":61,"time":106.44,"velocity":0.2204724409448819},{"duration":0.12000000000000455,"midi":54,"time":106.44,"velocity":0.2755905511811024},{"duration":0.12000000000000455,"midi":42,"time":106.44,"velocity":0.31496062992125984},{"duration":0.11999999999999034,"midi":61,"time":106.56,"velocity":0.2992125984251969},{"duration":0.11999999999999034,"midi":36,"time":106.56,"velocity":0.31496062992125984},{"duration":0.12000000000000455,"midi":60,"time":106.67999999999999,"velocity":0.2992125984251969},{"duration":0.12000000000000455,"midi":42,"time":106.8,"velocity":0.31496062992125984},{"duration":0.12000000000000455,"midi":54,"time":106.8,"velocity":0.2755905511811024},{"duration":0.11999999999999034,"midi":42,"time":106.92,"velocity":0.31496062992125984},{"duration":0.11999999999999034,"midi":61,"time":106.92,"velocity":0.2992125984251969},{"duration":0.11999999999999034,"midi":54,"time":106.92,"velocity":0.2755905511811024},{"duration":0.12000000000000455,"midi":46,"time":107.03999999999999,"velocity":0.31496062992125984},{"duration":0.12000000000000455,"midi":40,"time":107.03999999999999,"velocity":0.3228346456692913},{"duration":0.12000000000000455,"midi":54,"time":107.03999999999999,"velocity":0.2755905511811024},{"duration":0.12000000000000455,"midi":61,"time":107.03999999999999,"velocity":0.2992125984251969},{"duration":0.11999999999999034,"midi":61,"time":107.28,"velocity":0.2204724409448819},{"duration":0.11999999999999034,"midi":42,"time":107.28,"velocity":0.31496062992125984},{"duration":0.11999999999999034,"midi":54,"time":107.28,"velocity":0.2755905511811024},{"duration":0.12000000000000455,"midi":61,"time":107.39999999999999,"velocity":0.2204724409448819},{"duration":0.12000000000000455,"midi":42,"time":107.39999999999999,"velocity":0.31496062992125984},{"duration":0.12000000000000455,"midi":54,"time":107.39999999999999,"velocity":0.2755905511811024},{"duration":0.12000000000000455,"midi":61,"time":107.52,"velocity":0.2992125984251969},{"duration":0.12000000000000455,"midi":36,"time":107.52,"velocity":0.31496062992125984},{"duration":0.11999999999999034,"midi":60,"time":107.64,"velocity":0.2992125984251969},{"duration":0.12000000000000455,"midi":54,"time":107.75999999999999,"velocity":0.2755905511811024},{"duration":0.12000000000000455,"midi":42,"time":107.75999999999999,"velocity":0.31496062992125984},{"duration":0.12000000000000455,"midi":42,"time":107.88,"velocity":0.31496062992125984},{"duration":0.12000000000000455,"midi":61,"time":107.88,"velocity":0.2992125984251969},{"duration":0.12000000000000455,"midi":54,"time":107.88,"velocity":0.2755905511811024},{"duration":0.11999999999999034,"midi":46,"time":108,"velocity":0.31496062992125984},{"duration":0.11999999999999034,"midi":54,"time":108,"velocity":0.2755905511811024},{"duration":0.11999999999999034,"midi":61,"time":108,"velocity":0.2992125984251969},{"duration":0.11999999999999034,"midi":40,"time":108,"velocity":0.3228346456692913},{"duration":0.12000000000000455,"midi":54,"time":108.24,"velocity":0.2755905511811024},{"duration":0.12000000000000455,"midi":61,"time":108.24,"velocity":0.2204724409448819},{"duration":0.12000000000000455,"midi":42,"time":108.24,"velocity":0.31496062992125984},{"duration":0.11999999999999034,"midi":54,"time":108.36,"velocity":0.2755905511811024},{"duration":0.11999999999999034,"midi":61,"time":108.36,"velocity":0.2204724409448819},{"duration":0.11999999999999034,"midi":42,"time":108.36,"velocity":0.31496062992125984},{"duration":0.12000000000000455,"midi":61,"time":108.47999999999999,"velocity":0.2992125984251969},{"duration":0.12000000000000455,"midi":36,"time":108.47999999999999,"velocity":0.31496062992125984},{"duration":0.12000000000000455,"midi":60,"time":108.6,"velocity":0.2992125984251969},{"duration":0.11999999999999034,"midi":54,"time":108.72,"velocity":0.2755905511811024},{"duration":0.11999999999999034,"midi":42,"time":108.72,"velocity":0.31496062992125984},{"duration":0.12000000000000455,"midi":54,"time":108.83999999999999,"velocity":0.2755905511811024},{"duration":0.12000000000000455,"midi":42,"time":108.83999999999999,"velocity":0.31496062992125984},{"duration":0.12000000000000455,"midi":61,"time":108.83999999999999,"velocity":0.2992125984251969},{"duration":0.12000000000000455,"midi":54,"time":108.96,"velocity":0.2755905511811024},{"duration":0.12000000000000455,"midi":61,"time":108.96,"velocity":0.2992125984251969},{"duration":0.12000000000000455,"midi":40,"time":108.96,"velocity":0.3228346456692913},{"duration":0.12000000000000455,"midi":46,"time":108.96,"velocity":0.31496062992125984},{"duration":0.11999999999999034,"midi":54,"time":109.2,"velocity":0.2755905511811024},{"duration":0.11999999999999034,"midi":61,"time":109.2,"velocity":0.2204724409448819},{"duration":0.11999999999999034,"midi":42,"time":109.2,"velocity":0.31496062992125984},{"duration":0.12000000000000455,"midi":61,"time":109.32,"velocity":0.2204724409448819},{"duration":0.12000000000000455,"midi":54,"time":109.32,"velocity":0.2755905511811024},{"duration":0.12000000000000455,"midi":42,"time":109.32,"velocity":0.31496062992125984},{"duration":0.12000000000000455,"midi":61,"time":109.44,"velocity":0.2992125984251969},{"duration":0.12000000000000455,"midi":36,"time":109.44,"velocity":0.31496062992125984},{"duration":0.11999999999999034,"midi":60,"time":109.56,"velocity":0.2992125984251969},{"duration":0.12000000000000455,"midi":54,"time":109.67999999999999,"velocity":0.2755905511811024},{"duration":0.12000000000000455,"midi":42,"time":109.67999999999999,"velocity":0.31496062992125984},{"duration":0.12000000000000455,"midi":54,"time":109.8,"velocity":0.2755905511811024},{"duration":0.12000000000000455,"midi":61,"time":109.8,"velocity":0.2992125984251969},{"duration":0.12000000000000455,"midi":42,"time":109.8,"velocity":0.31496062992125984},{"duration":0.11999999999999034,"midi":46,"time":109.92,"velocity":0.31496062992125984},{"duration":0.11999999999999034,"midi":40,"time":109.92,"velocity":0.3228346456692913},{"duration":0.11999999999999034,"midi":61,"time":109.92,"velocity":0.2992125984251969},{"duration":0.11999999999999034,"midi":54,"time":109.92,"velocity":0.2755905511811024},{"duration":0.12000000000000455,"midi":54,"time":110.16,"velocity":0.2755905511811024},{"duration":0.12000000000000455,"midi":61,"time":110.16,"velocity":0.2204724409448819},{"duration":0.12000000000000455,"midi":42,"time":110.16,"velocity":0.31496062992125984},{"duration":0.11999999999999034,"midi":42,"time":110.28,"velocity":0.31496062992125984},{"duration":0.11999999999999034,"midi":54,"time":110.28,"velocity":0.2755905511811024},{"duration":0.11999999999999034,"midi":61,"time":110.28,"velocity":0.2204724409448819},{"duration":0.12000000000000455,"midi":61,"time":110.39999999999999,"velocity":0.2992125984251969},{"duration":0.12000000000000455,"midi":36,"time":110.39999999999999,"velocity":0.31496062992125984},{"duration":0.12000000000000455,"midi":60,"time":110.52,"velocity":0.2992125984251969},{"duration":0.11999999999999034,"midi":54,"time":110.64,"velocity":0.2755905511811024},{"duration":0.11999999999999034,"midi":42,"time":110.64,"velocity":0.31496062992125984},{"duration":0.12000000000000455,"midi":61,"time":110.75999999999999,"velocity":0.2992125984251969},{"duration":0.12000000000000455,"midi":42,"time":110.75999999999999,"velocity":0.31496062992125984},{"duration":0.12000000000000455,"midi":54,"time":110.75999999999999,"velocity":0.2755905511811024},{"duration":0.12000000000000455,"midi":61,"time":110.88,"velocity":0.2992125984251969},{"duration":0.12000000000000455,"midi":54,"time":110.88,"velocity":0.2755905511811024},{"duration":0.12000000000000455,"midi":40,"time":110.88,"velocity":0.3228346456692913},{"duration":0.12000000000000455,"midi":46,"time":110.88,"velocity":0.31496062992125984},{"duration":0.12000000000000455,"midi":54,"time":111.11999999999999,"velocity":0.2755905511811024},{"duration":0.12000000000000455,"midi":61,"time":111.11999999999999,"velocity":0.2204724409448819},{"duration":0.12000000000000455,"midi":42,"time":111.11999999999999,"velocity":0.31496062992125984},{"duration":0.12000000000000455,"midi":54,"time":111.24,"velocity":0.2755905511811024},{"duration":0.12000000000000455,"midi":42,"time":111.24,"velocity":0.31496062992125984},{"duration":0.12000000000000455,"midi":61,"time":111.24,"velocity":0.2204724409448819},{"duration":0.11999999999999034,"midi":36,"time":111.36,"velocity":0.31496062992125984},{"duration":0.11999999999999034,"midi":61,"time":111.36,"velocity":0.2992125984251969},{"duration":0.12000000000000455,"midi":60,"time":111.47999999999999,"velocity":0.2992125984251969},{"duration":0.12000000000000455,"midi":54,"time":111.6,"velocity":0.2755905511811024},{"duration":0.12000000000000455,"midi":42,"time":111.6,"velocity":0.31496062992125984},{"duration":0.11999999999999034,"midi":61,"time":111.72,"velocity":0.2992125984251969},{"duration":0.11999999999999034,"midi":42,"time":111.72,"velocity":0.31496062992125984},{"duration":0.11999999999999034,"midi":54,"time":111.72,"velocity":0.2755905511811024},{"duration":0.12000000000000455,"midi":61,"time":111.83999999999999,"velocity":0.2992125984251969},{"duration":0.12000000000000455,"midi":46,"time":111.83999999999999,"velocity":0.31496062992125984},{"duration":0.12000000000000455,"midi":40,"time":111.83999999999999,"velocity":0.3228346456692913},{"duration":0.12000000000000455,"midi":54,"time":111.83999999999999,"velocity":0.2755905511811024},{"duration":0.12000000000000455,"midi":54,"time":112.08,"velocity":0.2755905511811024},{"duration":0.12000000000000455,"midi":61,"time":112.08,"velocity":0.2204724409448819},{"duration":0.12000000000000455,"midi":42,"time":112.08,"velocity":0.31496062992125984},{"duration":0.11999999999999034,"midi":61,"time":112.2,"velocity":0.2204724409448819},{"duration":0.11999999999999034,"midi":54,"time":112.2,"velocity":0.2755905511811024},{"duration":0.11999999999999034,"midi":42,"time":112.2,"velocity":0.31496062992125984},{"duration":0.12000000000000455,"midi":61,"time":112.32,"velocity":0.2992125984251969},{"duration":0.12000000000000455,"midi":36,"time":112.32,"velocity":0.31496062992125984},{"duration":0.12000000000000455,"midi":60,"time":112.44,"velocity":0.2992125984251969},{"duration":0.11999999999999034,"midi":54,"time":112.56,"velocity":0.2755905511811024},{"duration":0.11999999999999034,"midi":42,"time":112.56,"velocity":0.31496062992125984},{"duration":0.12000000000000455,"midi":54,"time":112.67999999999999,"velocity":0.2755905511811024},{"duration":0.12000000000000455,"midi":42,"time":112.67999999999999,"velocity":0.31496062992125984},{"duration":0.12000000000000455,"midi":61,"time":112.67999999999999,"velocity":0.2992125984251969},{"duration":0.12000000000000455,"midi":40,"time":112.8,"velocity":0.3228346456692913},{"duration":0.12000000000000455,"midi":46,"time":112.8,"velocity":0.31496062992125984},{"duration":0.12000000000000455,"midi":54,"time":112.8,"velocity":0.2755905511811024},{"duration":0.12000000000000455,"midi":61,"time":112.8,"velocity":0.2992125984251969},{"duration":0.12000000000000455,"midi":42,"time":113.03999999999999,"velocity":0.31496062992125984},{"duration":0.12000000000000455,"midi":54,"time":113.03999999999999,"velocity":0.2755905511811024},{"duration":0.12000000000000455,"midi":61,"time":113.03999999999999,"velocity":0.2204724409448819},{"duration":0.12000000000000455,"midi":61,"time":113.16,"velocity":0.2204724409448819},{"duration":0.12000000000000455,"midi":42,"time":113.16,"velocity":0.31496062992125984},{"duration":0.12000000000000455,"midi":54,"time":113.16,"velocity":0.2755905511811024},{"duration":0.11999999999999034,"midi":61,"time":113.28,"velocity":0.2992125984251969},{"duration":0.11999999999999034,"midi":36,"time":113.28,"velocity":0.31496062992125984},{"duration":0.12000000000000455,"midi":60,"time":113.39999999999999,"velocity":0.2992125984251969},{"duration":0.12000000000000455,"midi":54,"time":113.52,"velocity":0.2755905511811024},{"duration":0.12000000000000455,"midi":42,"time":113.52,"velocity":0.31496062992125984},{"duration":0.11999999999999034,"midi":61,"time":113.64,"velocity":0.2992125984251969},{"duration":0.11999999999999034,"midi":42,"time":113.64,"velocity":0.31496062992125984},{"duration":0.11999999999999034,"midi":54,"time":113.64,"velocity":0.2755905511811024},{"duration":0.12000000000000455,"midi":46,"time":113.75999999999999,"velocity":0.31496062992125984},{"duration":0.12000000000000455,"midi":54,"time":113.75999999999999,"velocity":0.2755905511811024},{"duration":0.12000000000000455,"midi":40,"time":113.75999999999999,"velocity":0.3228346456692913},{"duration":0.12000000000000455,"midi":61,"time":113.75999999999999,"velocity":0.2992125984251969},{"duration":0.11999999999999034,"midi":54,"time":114,"velocity":0.2755905511811024},{"duration":0.11999999999999034,"midi":61,"time":114,"velocity":0.2204724409448819},{"duration":0.11999999999999034,"midi":42,"time":114,"velocity":0.31496062992125984},{"duration":0.12000000000000455,"midi":61,"time":114.11999999999999,"velocity":0.2204724409448819},{"duration":0.12000000000000455,"midi":54,"time":114.11999999999999,"velocity":0.2755905511811024},{"duration":0.12000000000000455,"midi":42,"time":114.11999999999999,"velocity":0.31496062992125984},{"duration":0.12000000000000455,"midi":61,"time":114.24,"velocity":0.2992125984251969},{"duration":0.12000000000000455,"midi":36,"time":114.24,"velocity":0.31496062992125984},{"duration":0.11999999999999034,"midi":60,"time":114.36,"velocity":0.2992125984251969},{"duration":0.12000000000000455,"midi":54,"time":114.47999999999999,"velocity":0.2755905511811024},{"duration":0.12000000000000455,"midi":42,"time":114.47999999999999,"velocity":0.31496062992125984},{"duration":0.12000000000000455,"midi":54,"time":114.6,"velocity":0.2755905511811024},{"duration":0.12000000000000455,"midi":61,"time":114.6,"velocity":0.2992125984251969},{"duration":0.12000000000000455,"midi":42,"time":114.6,"velocity":0.31496062992125984},{"duration":0.11999999999999034,"midi":54,"time":114.72,"velocity":0.2755905511811024},{"duration":0.11999999999999034,"midi":61,"time":114.72,"velocity":0.2992125984251969},{"duration":0.11999999999999034,"midi":46,"time":114.72,"velocity":0.31496062992125984},{"duration":0.11999999999999034,"midi":40,"time":114.72,"velocity":0.3228346456692913},{"duration":0.12000000000000455,"midi":54,"time":114.96,"velocity":0.2755905511811024},{"duration":0.12000000000000455,"midi":61,"time":114.96,"velocity":0.2204724409448819},{"duration":0.12000000000000455,"midi":42,"time":114.96,"velocity":0.31496062992125984},{"duration":0.11999999999999034,"midi":61,"time":115.08,"velocity":0.2204724409448819},{"duration":0.11999999999999034,"midi":42,"time":115.08,"velocity":0.31496062992125984},{"duration":0.11999999999999034,"midi":54,"time":115.08,"velocity":0.2755905511811024},{"duration":0.12000000000000455,"midi":61,"time":115.19999999999999,"velocity":0.2992125984251969},{"duration":0.12000000000000455,"midi":36,"time":115.19999999999999,"velocity":0.31496062992125984},{"duration":0.12000000000000455,"midi":60,"time":115.32,"velocity":0.2992125984251969},{"duration":0.12000000000000455,"midi":42,"time":115.44,"velocity":0.31496062992125984},{"duration":0.12000000000000455,"midi":54,"time":115.44,"velocity":0.2755905511811024},{"duration":0.11999999999999034,"midi":42,"time":115.56,"velocity":0.31496062992125984},{"duration":0.11999999999999034,"midi":61,"time":115.56,"velocity":0.2992125984251969},{"duration":0.11999999999999034,"midi":54,"time":115.56,"velocity":0.2755905511811024},{"duration":0.12000000000000455,"midi":40,"time":115.67999999999999,"velocity":0.3228346456692913},{"duration":0.12000000000000455,"midi":46,"time":115.67999999999999,"velocity":0.31496062992125984},{"duration":0.12000000000000455,"midi":61,"time":115.67999999999999,"velocity":0.2992125984251969},{"duration":0.12000000000000455,"midi":54,"time":115.67999999999999,"velocity":0.2755905511811024},{"duration":0.11999999999999034,"midi":61,"time":115.92,"velocity":0.2204724409448819},{"duration":0.11999999999999034,"midi":42,"time":115.92,"velocity":0.31496062992125984},{"duration":0.11999999999999034,"midi":54,"time":115.92,"velocity":0.2755905511811024},{"duration":0.12000000000000455,"midi":61,"time":116.03999999999999,"velocity":0.2204724409448819},{"duration":0.12000000000000455,"midi":54,"time":116.03999999999999,"velocity":0.2755905511811024},{"duration":0.12000000000000455,"midi":42,"time":116.03999999999999,"velocity":0.31496062992125984},{"duration":0.12000000000000455,"midi":61,"time":116.16,"velocity":0.2992125984251969},{"duration":0.12000000000000455,"midi":36,"time":116.16,"velocity":0.31496062992125984},{"duration":0.11999999999999034,"midi":60,"time":116.28,"velocity":0.2992125984251969},{"duration":0.12000000000000455,"midi":54,"time":116.39999999999999,"velocity":0.2755905511811024},{"duration":0.12000000000000455,"midi":42,"time":116.39999999999999,"velocity":0.31496062992125984},{"duration":0.12000000000000455,"midi":54,"time":116.52,"velocity":0.2755905511811024},{"duration":0.12000000000000455,"midi":61,"time":116.52,"velocity":0.2992125984251969},{"duration":0.12000000000000455,"midi":42,"time":116.52,"velocity":0.31496062992125984},{"duration":0.11999999999999034,"midi":46,"time":116.64,"velocity":0.31496062992125984},{"duration":0.11999999999999034,"midi":40,"time":116.64,"velocity":0.3228346456692913},{"duration":0.11999999999999034,"midi":54,"time":116.64,"velocity":0.2755905511811024},{"duration":0.11999999999999034,"midi":61,"time":116.64,"velocity":0.2992125984251969},{"duration":0.12000000000000455,"midi":54,"time":116.88,"velocity":0.2755905511811024},{"duration":0.12000000000000455,"midi":42,"time":116.88,"velocity":0.31496062992125984},{"duration":0.12000000000000455,"midi":61,"time":116.88,"velocity":0.2204724409448819},{"duration":0.11999999999999034,"midi":54,"time":117,"velocity":0.2755905511811024},{"duration":0.11999999999999034,"midi":61,"time":117,"velocity":0.2204724409448819},{"duration":0.11999999999999034,"midi":42,"time":117,"velocity":0.31496062992125984},{"duration":0.12000000000000455,"midi":61,"time":117.11999999999999,"velocity":0.2992125984251969},{"duration":0.12000000000000455,"midi":36,"time":117.11999999999999,"velocity":0.31496062992125984},{"duration":0.12000000000000455,"midi":60,"time":117.24,"velocity":0.2992125984251969},{"duration":0.11999999999999034,"midi":42,"time":117.36,"velocity":0.31496062992125984},{"duration":0.11999999999999034,"midi":54,"time":117.36,"velocity":0.2755905511811024},{"duration":0.12000000000000455,"midi":42,"time":117.47999999999999,"velocity":0.31496062992125984},{"duration":0.12000000000000455,"midi":54,"time":117.47999999999999,"velocity":0.2755905511811024},{"duration":0.12000000000000455,"midi":61,"time":117.47999999999999,"velocity":0.2992125984251969},{"duration":0.12000000000000455,"midi":61,"time":117.6,"velocity":0.2992125984251969},{"duration":0.12000000000000455,"midi":54,"time":117.6,"velocity":0.2755905511811024},{"duration":0.12000000000000455,"midi":40,"time":117.6,"velocity":0.3228346456692913},{"duration":0.12000000000000455,"midi":46,"time":117.6,"velocity":0.31496062992125984},{"duration":0.12000000000000455,"midi":54,"time":117.83999999999999,"velocity":0.2755905511811024},{"duration":0.12000000000000455,"midi":42,"time":117.83999999999999,"velocity":0.31496062992125984},{"duration":0.12000000000000455,"midi":61,"time":117.83999999999999,"velocity":0.2204724409448819},{"duration":0.12000000000000455,"midi":61,"time":117.96,"velocity":0.2204724409448819},{"duration":0.12000000000000455,"midi":54,"time":117.96,"velocity":0.2755905511811024},{"duration":0.12000000000000455,"midi":42,"time":117.96,"velocity":0.31496062992125984},{"duration":0.11999999999999034,"midi":61,"time":118.08,"velocity":0.2992125984251969},{"duration":0.11999999999999034,"midi":36,"time":118.08,"velocity":0.31496062992125984},{"duration":0.12000000000000455,"midi":60,"time":118.19999999999999,"velocity":0.2992125984251969},{"duration":0.12000000000000455,"midi":54,"time":118.32,"velocity":0.2755905511811024},{"duration":0.12000000000000455,"midi":42,"time":118.32,"velocity":0.31496062992125984},{"duration":0.12000000000000455,"midi":42,"time":118.44,"velocity":0.31496062992125984},{"duration":0.12000000000000455,"midi":61,"time":118.44,"velocity":0.2992125984251969},{"duration":0.12000000000000455,"midi":54,"time":118.44,"velocity":0.2755905511811024},{"duration":0.11999999999999034,"midi":46,"time":118.56,"velocity":0.31496062992125984},{"duration":0.11999999999999034,"midi":54,"time":118.56,"velocity":0.2755905511811024},{"duration":0.11999999999999034,"midi":61,"time":118.56,"velocity":0.2992125984251969},{"duration":0.11999999999999034,"midi":40,"time":118.56,"velocity":0.3228346456692913},{"duration":0.12000000000000455,"midi":54,"time":118.8,"velocity":0.2755905511811024},{"duration":0.12000000000000455,"midi":42,"time":118.8,"velocity":0.31496062992125984},{"duration":0.12000000000000455,"midi":61,"time":118.8,"velocity":0.2204724409448819},{"duration":0.11999999999999034,"midi":54,"time":118.92,"velocity":0.2755905511811024},{"duration":0.11999999999999034,"midi":61,"time":118.92,"velocity":0.2204724409448819},{"duration":0.11999999999999034,"midi":42,"time":118.92,"velocity":0.31496062992125984},{"duration":0.12000000000000455,"midi":61,"time":119.03999999999999,"velocity":0.2992125984251969},{"duration":0.12000000000000455,"midi":36,"time":119.03999999999999,"velocity":0.31496062992125984},{"duration":0.12000000000000455,"midi":60,"time":119.16,"velocity":0.2992125984251969},{"duration":0.11999999999999034,"midi":42,"time":119.28,"velocity":0.31496062992125984},{"duration":0.11999999999999034,"midi":54,"time":119.28,"velocity":0.2755905511811024},{"duration":0.12000000000000455,"midi":42,"time":119.39999999999999,"velocity":0.31496062992125984},{"duration":0.12000000000000455,"midi":54,"time":119.39999999999999,"velocity":0.2755905511811024},{"duration":0.12000000000000455,"midi":61,"time":119.39999999999999,"velocity":0.2992125984251969},{"duration":0.12000000000000455,"midi":46,"time":119.52,"velocity":0.31496062992125984},{"duration":0.12000000000000455,"midi":40,"time":119.52,"velocity":0.3228346456692913},{"duration":0.12000000000000455,"midi":61,"time":119.52,"velocity":0.2992125984251969},{"duration":0.12000000000000455,"midi":54,"time":119.52,"velocity":0.2755905511811024},{"duration":0.12000000000000455,"midi":54,"time":119.75999999999999,"velocity":0.2755905511811024},{"duration":0.12000000000000455,"midi":42,"time":119.75999999999999,"velocity":0.31496062992125984},{"duration":0.12000000000000455,"midi":61,"time":119.75999999999999,"velocity":0.2204724409448819},{"duration":0.12000000000000455,"midi":61,"time":119.88,"velocity":0.2204724409448819},{"duration":0.12000000000000455,"midi":54,"time":119.88,"velocity":0.2755905511811024},{"duration":0.12000000000000455,"midi":42,"time":119.88,"velocity":0.31496062992125984},{"duration":0.11999999999999034,"midi":61,"time":120,"velocity":0.2992125984251969},{"duration":0.11999999999999034,"midi":36,"time":120,"velocity":0.31496062992125984},{"duration":0.12000000000000455,"midi":60,"time":120.11999999999999,"velocity":0.2992125984251969},{"duration":0.12000000000000455,"midi":54,"time":120.24,"velocity":0.2755905511811024},{"duration":0.12000000000000455,"midi":42,"time":120.24,"velocity":0.31496062992125984},{"duration":0.11999999999999034,"midi":42,"time":120.36,"velocity":0.31496062992125984},{"duration":0.11999999999999034,"midi":54,"time":120.36,"velocity":0.2755905511811024},{"duration":0.11999999999999034,"midi":61,"time":120.36,"velocity":0.2992125984251969},{"duration":0.12000000000000455,"midi":54,"time":120.47999999999999,"velocity":0.2755905511811024},{"duration":0.12000000000000455,"midi":40,"time":120.47999999999999,"velocity":0.3228346456692913},{"duration":0.12000000000000455,"midi":61,"time":120.47999999999999,"velocity":0.2992125984251969},{"duration":0.12000000000000455,"midi":46,"time":120.47999999999999,"velocity":0.31496062992125984},{"duration":0.11999999999999034,"midi":42,"time":120.72,"velocity":0.31496062992125984},{"duration":0.11999999999999034,"midi":54,"time":120.72,"velocity":0.2755905511811024},{"duration":0.11999999999999034,"midi":61,"time":120.72,"velocity":0.2204724409448819},{"duration":0.12000000000000455,"midi":42,"time":120.83999999999999,"velocity":0.31496062992125984},{"duration":0.12000000000000455,"midi":54,"time":120.83999999999999,"velocity":0.2755905511811024},{"duration":0.12000000000000455,"midi":61,"time":120.83999999999999,"velocity":0.2204724409448819},{"duration":0.12000000000000455,"midi":61,"time":120.96,"velocity":0.2992125984251969},{"duration":0.12000000000000455,"midi":36,"time":120.96,"velocity":0.31496062992125984},{"duration":0.11999999999999034,"midi":60,"time":121.08,"velocity":0.2992125984251969},{"duration":0.12000000000000455,"midi":54,"time":121.19999999999999,"velocity":0.2755905511811024},{"duration":0.12000000000000455,"midi":42,"time":121.19999999999999,"velocity":0.31496062992125984},{"duration":0.12000000000000455,"midi":61,"time":121.32,"velocity":0.2992125984251969},{"duration":0.12000000000000455,"midi":54,"time":121.32,"velocity":0.2755905511811024},{"duration":0.12000000000000455,"midi":42,"time":121.32,"velocity":0.31496062992125984},{"duration":0.12000000000000455,"midi":61,"time":121.44,"velocity":0.2992125984251969},{"duration":0.12000000000000455,"midi":54,"time":121.44,"velocity":0.2755905511811024},{"duration":0.12000000000000455,"midi":46,"time":121.44,"velocity":0.31496062992125984},{"duration":0.12000000000000455,"midi":40,"time":121.44,"velocity":0.3228346456692913},{"duration":0.12000000000000455,"midi":54,"time":121.67999999999999,"velocity":0.2755905511811024},{"duration":0.12000000000000455,"midi":42,"time":121.67999999999999,"velocity":0.31496062992125984},{"duration":0.12000000000000455,"midi":61,"time":121.67999999999999,"velocity":0.2204724409448819},{"duration":0.12000000000000455,"midi":54,"time":121.8,"velocity":0.2755905511811024},{"duration":0.12000000000000455,"midi":61,"time":121.8,"velocity":0.2204724409448819},{"duration":0.12000000000000455,"midi":42,"time":121.8,"velocity":0.31496062992125984},{"duration":0.11999999999999034,"midi":61,"time":121.92,"velocity":0.2992125984251969},{"duration":0.11999999999999034,"midi":36,"time":121.92,"velocity":0.31496062992125984},{"duration":0.12000000000000455,"midi":60,"time":122.03999999999999,"velocity":0.2992125984251969},{"duration":0.12000000000000455,"midi":42,"time":122.16,"velocity":0.31496062992125984},{"duration":0.12000000000000455,"midi":54,"time":122.16,"velocity":0.2755905511811024},{"duration":0.11999999999999034,"midi":42,"time":122.28,"velocity":0.31496062992125984},{"duration":0.11999999999999034,"midi":61,"time":122.28,"velocity":0.2992125984251969},{"duration":0.11999999999999034,"midi":54,"time":122.28,"velocity":0.2755905511811024},{"duration":0.12000000000000455,"midi":54,"time":122.39999999999999,"velocity":0.2755905511811024},{"duration":0.12000000000000455,"midi":61,"time":122.39999999999999,"velocity":0.2992125984251969},{"duration":0.12000000000000455,"midi":40,"time":122.39999999999999,"velocity":0.3228346456692913},{"duration":0.12000000000000455,"midi":46,"time":122.39999999999999,"velocity":0.31496062992125984},{"duration":0.11999999999999034,"midi":54,"time":122.64,"velocity":0.2755905511811024},{"duration":0.11999999999999034,"midi":42,"time":122.64,"velocity":0.31496062992125984},{"duration":0.11999999999999034,"midi":61,"time":122.64,"velocity":0.2204724409448819},{"duration":0.12000000000000455,"midi":61,"time":122.75999999999999,"velocity":0.2204724409448819},{"duration":0.12000000000000455,"midi":54,"time":122.75999999999999,"velocity":0.2755905511811024},{"duration":0.12000000000000455,"midi":42,"time":122.75999999999999,"velocity":0.31496062992125984},{"duration":0.12000000000000455,"midi":61,"time":122.88,"velocity":0.2992125984251969},{"duration":0.12000000000000455,"midi":36,"time":122.88,"velocity":0.31496062992125984},{"duration":0.11999999999999034,"midi":60,"time":123,"velocity":0.2992125984251969},{"duration":0.12000000000000455,"midi":54,"time":123.11999999999999,"velocity":0.2755905511811024},{"duration":0.12000000000000455,"midi":42,"time":123.11999999999999,"velocity":0.31496062992125984},{"duration":0.12000000000000455,"midi":42,"time":123.24,"velocity":0.31496062992125984},{"duration":0.12000000000000455,"midi":54,"time":123.24,"velocity":0.2755905511811024},{"duration":0.12000000000000455,"midi":61,"time":123.24,"velocity":0.2992125984251969},{"duration":0.11999999999999034,"midi":46,"time":123.36,"velocity":0.31496062992125984},{"duration":0.11999999999999034,"midi":40,"time":123.36,"velocity":0.3228346456692913},{"duration":0.11999999999999034,"midi":54,"time":123.36,"velocity":0.2755905511811024},{"duration":0.11999999999999034,"midi":61,"time":123.36,"velocity":0.2992125984251969},{"duration":0.12000000000000455,"midi":42,"time":123.6,"velocity":0.31496062992125984},{"duration":0.12000000000000455,"midi":61,"time":123.6,"velocity":0.2204724409448819},{"duration":0.12000000000000455,"midi":54,"time":123.6,"velocity":0.2755905511811024},{"duration":0.11999999999999034,"midi":61,"time":123.72,"velocity":0.2204724409448819},{"duration":0.11999999999999034,"midi":54,"time":123.72,"velocity":0.2755905511811024},{"duration":0.11999999999999034,"midi":42,"time":123.72,"velocity":0.31496062992125984},{"duration":0.12000000000000455,"midi":61,"time":123.83999999999999,"velocity":0.2992125984251969},{"duration":0.12000000000000455,"midi":36,"time":123.83999999999999,"velocity":0.31496062992125984},{"duration":0.12000000000000455,"midi":60,"time":123.96,"velocity":0.2992125984251969},{"duration":0.11999999999999034,"midi":42,"time":124.08,"velocity":0.31496062992125984},{"duration":0.11999999999999034,"midi":54,"time":124.08,"velocity":0.2755905511811024},{"duration":0.12000000000000455,"midi":61,"time":124.19999999999999,"velocity":0.2992125984251969},{"duration":0.12000000000000455,"midi":42,"time":124.19999999999999,"velocity":0.31496062992125984},{"duration":0.12000000000000455,"midi":54,"time":124.19999999999999,"velocity":0.2755905511811024},{"duration":0.12000000000000455,"midi":46,"time":124.32,"velocity":0.31496062992125984},{"duration":0.12000000000000455,"midi":61,"time":124.32,"velocity":0.2992125984251969},{"duration":0.12000000000000455,"midi":54,"time":124.32,"velocity":0.2755905511811024},{"duration":0.12000000000000455,"midi":40,"time":124.32,"velocity":0.3228346456692913},{"duration":0.11999999999999034,"midi":42,"time":124.56,"velocity":0.31496062992125984},{"duration":0.11999999999999034,"midi":61,"time":124.56,"velocity":0.2204724409448819},{"duration":0.11999999999999034,"midi":54,"time":124.56,"velocity":0.2755905511811024},{"duration":0.12000000000000455,"midi":61,"time":124.67999999999999,"velocity":0.2204724409448819},{"duration":0.12000000000000455,"midi":54,"time":124.67999999999999,"velocity":0.2755905511811024},{"duration":0.12000000000000455,"midi":42,"time":124.67999999999999,"velocity":0.31496062992125984},{"duration":0.12000000000000455,"midi":61,"time":124.8,"velocity":0.2992125984251969},{"duration":0.12000000000000455,"midi":36,"time":124.8,"velocity":0.31496062992125984},{"duration":0.11999999999999034,"midi":60,"time":124.92,"velocity":0.2992125984251969},{"duration":0.12000000000000455,"midi":54,"time":125.03999999999999,"velocity":0.2755905511811024},{"duration":0.12000000000000455,"midi":42,"time":125.03999999999999,"velocity":0.31496062992125984},{"duration":0.12000000000000455,"midi":61,"time":125.16,"velocity":0.2992125984251969},{"duration":0.12000000000000455,"midi":54,"time":125.16,"velocity":0.2755905511811024},{"duration":0.12000000000000455,"midi":42,"time":125.16,"velocity":0.31496062992125984},{"duration":0.11999999999999034,"midi":46,"time":125.28,"velocity":0.31496062992125984},{"duration":0.11999999999999034,"midi":61,"time":125.28,"velocity":0.2992125984251969},{"duration":0.11999999999999034,"midi":54,"time":125.28,"velocity":0.2755905511811024},{"duration":0.11999999999999034,"midi":40,"time":125.28,"velocity":0.3228346456692913},{"duration":0.12000000000000455,"midi":42,"time":125.52,"velocity":0.31496062992125984},{"duration":0.12000000000000455,"midi":61,"time":125.52,"velocity":0.2204724409448819},{"duration":0.12000000000000455,"midi":54,"time":125.52,"velocity":0.2755905511811024},{"duration":0.11999999999999034,"midi":42,"time":125.64,"velocity":0.31496062992125984},{"duration":0.11999999999999034,"midi":54,"time":125.64,"velocity":0.2755905511811024},{"duration":0.11999999999999034,"midi":61,"time":125.64,"velocity":0.2204724409448819},{"duration":0.12000000000000455,"midi":61,"time":125.75999999999999,"velocity":0.2992125984251969},{"duration":0.12000000000000455,"midi":36,"time":125.75999999999999,"velocity":0.31496062992125984},{"duration":0.12000000000000455,"midi":60,"time":125.88,"velocity":0.2992125984251969},{"duration":0.11999999999999034,"midi":54,"time":126,"velocity":0.2755905511811024},{"duration":0.11999999999999034,"midi":42,"time":126,"velocity":0.31496062992125984},{"duration":0.12000000000000455,"midi":61,"time":126.11999999999999,"velocity":0.2992125984251969},{"duration":0.12000000000000455,"midi":54,"time":126.11999999999999,"velocity":0.2755905511811024},{"duration":0.12000000000000455,"midi":42,"time":126.11999999999999,"velocity":0.31496062992125984},{"duration":0.12000000000000455,"midi":46,"time":126.24,"velocity":0.31496062992125984},{"duration":0.12000000000000455,"midi":40,"time":126.24,"velocity":0.3228346456692913},{"duration":0.12000000000000455,"midi":54,"time":126.24,"velocity":0.2755905511811024},{"duration":0.12000000000000455,"midi":61,"time":126.24,"velocity":0.2992125984251969},{"duration":0.12000000000000455,"midi":61,"time":126.47999999999999,"velocity":0.2204724409448819},{"duration":0.12000000000000455,"midi":42,"time":126.47999999999999,"velocity":0.31496062992125984},{"duration":0.12000000000000455,"midi":54,"time":126.47999999999999,"velocity":0.2755905511811024},{"duration":0.12000000000000455,"midi":42,"time":126.6,"velocity":0.31496062992125984},{"duration":0.12000000000000455,"midi":54,"time":126.6,"velocity":0.2755905511811024},{"duration":0.12000000000000455,"midi":61,"time":126.6,"velocity":0.2204724409448819},{"duration":0.11999999999999034,"midi":61,"time":126.72,"velocity":0.2992125984251969},{"duration":0.11999999999999034,"midi":36,"time":126.72,"velocity":0.31496062992125984},{"duration":0.12000000000000455,"midi":60,"time":126.83999999999999,"velocity":0.2992125984251969},{"duration":0.12000000000000455,"midi":54,"time":126.96,"velocity":0.2755905511811024},{"duration":0.12000000000000455,"midi":42,"time":126.96,"velocity":0.31496062992125984},{"duration":0.11999999999999034,"midi":54,"time":127.08,"velocity":0.2755905511811024},{"duration":0.11999999999999034,"midi":61,"time":127.08,"velocity":0.2992125984251969},{"duration":0.11999999999999034,"midi":42,"time":127.08,"velocity":0.31496062992125984},{"duration":0.12000000000000455,"midi":46,"time":127.19999999999999,"velocity":0.31496062992125984},{"duration":0.12000000000000455,"midi":40,"time":127.19999999999999,"velocity":0.3228346456692913},{"duration":0.12000000000000455,"midi":54,"time":127.19999999999999,"velocity":0.2755905511811024},{"duration":0.12000000000000455,"midi":61,"time":127.19999999999999,"velocity":0.2992125984251969},{"duration":0.12000000000000455,"midi":42,"time":127.44,"velocity":0.31496062992125984},{"duration":0.12000000000000455,"midi":54,"time":127.44,"velocity":0.2755905511811024},{"duration":0.12000000000000455,"midi":61,"time":127.44,"velocity":0.2204724409448819},{"duration":0.11999999999999034,"midi":61,"time":127.56,"velocity":0.2204724409448819},{"duration":0.11999999999999034,"midi":54,"time":127.56,"velocity":0.2755905511811024},{"duration":0.11999999999999034,"midi":42,"time":127.56,"velocity":0.31496062992125984},{"duration":0.12000000000000455,"midi":61,"time":127.67999999999999,"velocity":0.2992125984251969},{"duration":0.12000000000000455,"midi":36,"time":127.67999999999999,"velocity":0.31496062992125984},{"duration":0.12000000000000455,"midi":60,"time":127.8,"velocity":0.2992125984251969},{"duration":0.11999999999999034,"midi":42,"time":127.92,"velocity":0.31496062992125984},{"duration":0.11999999999999034,"midi":54,"time":127.92,"velocity":0.2755905511811024},{"duration":0.12000000000000455,"midi":54,"time":128.04,"velocity":0.2755905511811024},{"duration":0.12000000000000455,"midi":42,"time":128.04,"velocity":0.31496062992125984},{"duration":0.12000000000000455,"midi":61,"time":128.04,"velocity":0.2992125984251969},{"duration":0.12000000000000455,"midi":46,"time":128.16,"velocity":0.31496062992125984},{"duration":0.12000000000000455,"midi":40,"time":128.16,"velocity":0.3228346456692913},{"duration":0.12000000000000455,"midi":54,"time":128.16,"velocity":0.2755905511811024},{"duration":0.12000000000000455,"midi":61,"time":128.16,"velocity":0.2992125984251969},{"duration":0.11999999999997613,"midi":42,"time":128.4,"velocity":0.31496062992125984},{"duration":0.11999999999997613,"midi":54,"time":128.4,"velocity":0.2755905511811024},{"duration":0.11999999999997613,"midi":61,"time":128.4,"velocity":0.2204724409448819},{"duration":0.12000000000000455,"midi":54,"time":128.51999999999998,"velocity":0.2755905511811024},{"duration":0.12000000000000455,"midi":61,"time":128.51999999999998,"velocity":0.2204724409448819},{"duration":0.12000000000000455,"midi":42,"time":128.51999999999998,"velocity":0.31496062992125984},{"duration":0.12000000000000455,"midi":61,"time":128.64,"velocity":0.2992125984251969},{"duration":0.12000000000000455,"midi":36,"time":128.64,"velocity":0.31496062992125984},{"duration":0.12000000000000455,"midi":60,"time":128.76,"velocity":0.2992125984251969},{"duration":0.12000000000000455,"midi":54,"time":128.88,"velocity":0.2755905511811024},{"duration":0.12000000000000455,"midi":42,"time":128.88,"velocity":0.31496062992125984},{"duration":0.12000000000000455,"midi":54,"time":129,"velocity":0.2755905511811024},{"duration":0.12000000000000455,"midi":42,"time":129,"velocity":0.31496062992125984},{"duration":0.12000000000000455,"midi":61,"time":129,"velocity":0.2992125984251969},{"duration":0.12000000000000455,"midi":40,"time":129.12,"velocity":0.3228346456692913},{"duration":0.12000000000000455,"midi":61,"time":129.12,"velocity":0.2992125984251969},{"duration":0.12000000000000455,"midi":54,"time":129.12,"velocity":0.2755905511811024},{"duration":0.12000000000000455,"midi":46,"time":129.12,"velocity":0.31496062992125984},{"duration":0.12000000000000455,"midi":42,"time":129.35999999999999,"velocity":0.31496062992125984},{"duration":0.12000000000000455,"midi":54,"time":129.35999999999999,"velocity":0.2755905511811024},{"duration":0.12000000000000455,"midi":61,"time":129.35999999999999,"velocity":0.2204724409448819},{"duration":0.12000000000000455,"midi":54,"time":129.48,"velocity":0.2755905511811024},{"duration":0.12000000000000455,"midi":61,"time":129.48,"velocity":0.2204724409448819},{"duration":0.12000000000000455,"midi":42,"time":129.48,"velocity":0.31496062992125984},{"duration":0.12000000000000455,"midi":61,"time":129.6,"velocity":0.2992125984251969},{"duration":0.12000000000000455,"midi":36,"time":129.6,"velocity":0.31496062992125984},{"duration":0.12000000000000455,"midi":60,"time":129.72,"velocity":0.2992125984251969},{"duration":0.12000000000000455,"midi":54,"time":129.84,"velocity":0.2755905511811024},{"duration":0.12000000000000455,"midi":42,"time":129.84,"velocity":0.31496062992125984},{"duration":0.11999999999997613,"midi":61,"time":129.96,"velocity":0.2992125984251969},{"duration":0.11999999999997613,"midi":54,"time":129.96,"velocity":0.2755905511811024},{"duration":0.11999999999997613,"midi":42,"time":129.96,"velocity":0.31496062992125984},{"duration":0.12000000000000455,"midi":54,"time":130.07999999999998,"velocity":0.2755905511811024},{"duration":0.12000000000000455,"midi":61,"time":130.07999999999998,"velocity":0.2992125984251969},{"duration":0.12000000000000455,"midi":40,"time":130.07999999999998,"velocity":0.3228346456692913},{"duration":0.12000000000000455,"midi":46,"time":130.07999999999998,"velocity":0.31496062992125984},{"duration":0.12000000000000455,"midi":61,"time":130.32,"velocity":0.2204724409448819},{"duration":0.12000000000000455,"midi":54,"time":130.32,"velocity":0.2755905511811024},{"duration":0.12000000000000455,"midi":42,"time":130.32,"velocity":0.31496062992125984},{"duration":0.12000000000000455,"midi":42,"time":130.44,"velocity":0.31496062992125984},{"duration":0.12000000000000455,"midi":54,"time":130.44,"velocity":0.2755905511811024},{"duration":0.12000000000000455,"midi":61,"time":130.44,"velocity":0.2204724409448819},{"duration":0.12000000000000455,"midi":36,"time":130.56,"velocity":0.31496062992125984},{"duration":0.12000000000000455,"midi":61,"time":130.56,"velocity":0.2992125984251969},{"duration":0.11999999999997613,"midi":60,"time":130.68,"velocity":0.2992125984251969},{"duration":0.12000000000000455,"midi":54,"time":130.79999999999998,"velocity":0.2755905511811024},{"duration":0.12000000000000455,"midi":42,"time":130.79999999999998,"velocity":0.31496062992125984},{"duration":0.12000000000000455,"midi":42,"time":130.92,"velocity":0.31496062992125984},{"duration":0.12000000000000455,"midi":61,"time":130.92,"velocity":0.2992125984251969},{"duration":0.12000000000000455,"midi":54,"time":130.92,"velocity":0.2755905511811024},{"duration":0.12000000000000455,"midi":61,"time":131.04,"velocity":0.2992125984251969},{"duration":0.12000000000000455,"midi":54,"time":131.04,"velocity":0.2755905511811024},{"duration":0.12000000000000455,"midi":40,"time":131.04,"velocity":0.3228346456692913},{"duration":0.12000000000000455,"midi":46,"time":131.04,"velocity":0.31496062992125984},{"duration":0.12000000000000455,"midi":42,"time":131.28,"velocity":0.31496062992125984},{"duration":0.12000000000000455,"midi":61,"time":131.28,"velocity":0.2204724409448819},{"duration":0.12000000000000455,"midi":54,"time":131.28,"velocity":0.2755905511811024},{"duration":0.11999999999997613,"midi":61,"time":131.4,"velocity":0.2204724409448819},{"duration":0.11999999999997613,"midi":54,"time":131.4,"velocity":0.2755905511811024},{"duration":0.11999999999997613,"midi":42,"time":131.4,"velocity":0.31496062992125984},{"duration":0.12000000000000455,"midi":36,"time":131.51999999999998,"velocity":0.31496062992125984},{"duration":0.12000000000000455,"midi":61,"time":131.51999999999998,"velocity":0.2992125984251969},{"duration":0.12000000000000455,"midi":60,"time":131.64,"velocity":0.2992125984251969},{"duration":0.12000000000000455,"midi":42,"time":131.76,"velocity":0.31496062992125984},{"duration":0.12000000000000455,"midi":54,"time":131.76,"velocity":0.2755905511811024},{"duration":0.12000000000000455,"midi":54,"time":131.88,"velocity":0.2755905511811024},{"duration":0.12000000000000455,"midi":61,"time":131.88,"velocity":0.2992125984251969},{"duration":0.12000000000000455,"midi":42,"time":131.88,"velocity":0.31496062992125984},{"duration":0.12000000000000455,"midi":61,"time":132,"velocity":0.2992125984251969},{"duration":0.12000000000000455,"midi":54,"time":132,"velocity":0.2755905511811024},{"duration":0.12000000000000455,"midi":46,"time":132,"velocity":0.31496062992125984},{"duration":0.12000000000000455,"midi":40,"time":132,"velocity":0.3228346456692913},{"duration":0.11999999999997613,"midi":54,"time":132.24,"velocity":0.2755905511811024},{"duration":0.11999999999997613,"midi":61,"time":132.24,"velocity":0.2204724409448819},{"duration":0.11999999999997613,"midi":42,"time":132.24,"velocity":0.31496062992125984},{"duration":0.12000000000000455,"midi":61,"time":132.35999999999999,"velocity":0.2204724409448819},{"duration":0.12000000000000455,"midi":54,"time":132.35999999999999,"velocity":0.2755905511811024},{"duration":0.12000000000000455,"midi":42,"time":132.35999999999999,"velocity":0.31496062992125984},{"duration":0.12000000000000455,"midi":61,"time":132.48,"velocity":0.2992125984251969},{"duration":0.12000000000000455,"midi":36,"time":132.48,"velocity":0.31496062992125984},{"duration":0.12000000000000455,"midi":60,"time":132.6,"velocity":0.2992125984251969},{"duration":0.12000000000000455,"midi":42,"time":132.72,"velocity":0.31496062992125984},{"duration":0.12000000000000455,"midi":54,"time":132.72,"velocity":0.2755905511811024},{"duration":0.12000000000000455,"midi":54,"time":132.84,"velocity":0.2755905511811024},{"duration":0.12000000000000455,"midi":61,"time":132.84,"velocity":0.2992125984251969},{"duration":0.12000000000000455,"midi":42,"time":132.84,"velocity":0.31496062992125984},{"duration":0.11999999999997613,"midi":40,"time":132.96,"velocity":0.3228346456692913},{"duration":0.11999999999997613,"midi":46,"time":132.96,"velocity":0.31496062992125984},{"duration":0.11999999999997613,"midi":54,"time":132.96,"velocity":0.2755905511811024},{"duration":0.11999999999997613,"midi":61,"time":132.96,"velocity":0.2992125984251969},{"duration":0.12000000000000455,"midi":61,"time":133.2,"velocity":0.2204724409448819},{"duration":0.12000000000000455,"midi":42,"time":133.2,"velocity":0.31496062992125984},{"duration":0.12000000000000455,"midi":54,"time":133.2,"velocity":0.2755905511811024},{"duration":0.12000000000000455,"midi":42,"time":133.32,"velocity":0.31496062992125984},{"duration":0.12000000000000455,"midi":54,"time":133.32,"velocity":0.2755905511811024},{"duration":0.12000000000000455,"midi":61,"time":133.32,"velocity":0.2204724409448819},{"duration":0.12000000000000455,"midi":61,"time":133.44,"velocity":0.2992125984251969},{"duration":0.12000000000000455,"midi":36,"time":133.44,"velocity":0.31496062992125984},{"duration":0.12000000000000455,"midi":60,"time":133.56,"velocity":0.2992125984251969},{"duration":0.11999999999997613,"midi":54,"time":133.68,"velocity":0.2755905511811024},{"duration":0.11999999999997613,"midi":42,"time":133.68,"velocity":0.31496062992125984},{"duration":0.12000000000000455,"midi":42,"time":133.79999999999998,"velocity":0.31496062992125984},{"duration":0.12000000000000455,"midi":54,"time":133.79999999999998,"velocity":0.2755905511811024},{"duration":0.12000000000000455,"midi":61,"time":133.79999999999998,"velocity":0.2992125984251969},{"duration":0.12000000000000455,"midi":46,"time":133.92,"velocity":0.31496062992125984},{"duration":0.12000000000000455,"midi":61,"time":133.92,"velocity":0.2992125984251969},{"duration":0.12000000000000455,"midi":54,"time":133.92,"velocity":0.2755905511811024},{"duration":0.12000000000000455,"midi":40,"time":133.92,"velocity":0.3228346456692913},{"duration":0.12000000000000455,"midi":54,"time":134.16,"velocity":0.2755905511811024},{"duration":0.12000000000000455,"midi":42,"time":134.16,"velocity":0.31496062992125984},{"duration":0.12000000000000455,"midi":61,"time":134.16,"velocity":0.2204724409448819},{"duration":0.12000000000000455,"midi":42,"time":134.28,"velocity":0.31496062992125984},{"duration":0.12000000000000455,"midi":61,"time":134.28,"velocity":0.2204724409448819},{"duration":0.12000000000000455,"midi":54,"time":134.28,"velocity":0.2755905511811024},{"duration":0.11999999999997613,"midi":36,"time":134.4,"velocity":0.31496062992125984},{"duration":0.11999999999997613,"midi":61,"time":134.4,"velocity":0.2992125984251969},{"duration":0.12000000000000455,"midi":60,"time":134.51999999999998,"velocity":0.2992125984251969},{"duration":0.12000000000000455,"midi":42,"time":134.64,"velocity":0.31496062992125984},{"duration":0.12000000000000455,"midi":54,"time":134.64,"velocity":0.2755905511811024},{"duration":0.12000000000000455,"midi":42,"time":134.76,"velocity":0.31496062992125984},{"duration":0.12000000000000455,"midi":61,"time":134.76,"velocity":0.2992125984251969},{"duration":0.12000000000000455,"midi":54,"time":134.76,"velocity":0.2755905511811024},{"duration":0.12000000000000455,"midi":40,"time":134.88,"velocity":0.3228346456692913},{"duration":0.12000000000000455,"midi":46,"time":134.88,"velocity":0.31496062992125984},{"duration":0.12000000000000455,"midi":61,"time":134.88,"velocity":0.2992125984251969},{"duration":0.12000000000000455,"midi":54,"time":134.88,"velocity":0.2755905511811024},{"duration":0.12000000000000455,"midi":61,"time":135.12,"velocity":0.2204724409448819},{"duration":0.12000000000000455,"midi":54,"time":135.12,"velocity":0.2755905511811024},{"duration":0.12000000000000455,"midi":42,"time":135.12,"velocity":0.31496062992125984},{"duration":0.11999999999997613,"midi":42,"time":135.24,"velocity":0.31496062992125984},{"duration":0.11999999999997613,"midi":61,"time":135.24,"velocity":0.2204724409448819},{"duration":0.11999999999997613,"midi":54,"time":135.24,"velocity":0.2755905511811024},{"duration":0.12000000000000455,"midi":36,"time":135.35999999999999,"velocity":0.31496062992125984},{"duration":0.12000000000000455,"midi":61,"time":135.35999999999999,"velocity":0.2992125984251969},{"duration":0.12000000000000455,"midi":60,"time":135.48,"velocity":0.2992125984251969},{"duration":0.12000000000000455,"midi":54,"time":135.6,"velocity":0.2755905511811024},{"duration":0.12000000000000455,"midi":42,"time":135.6,"velocity":0.31496062992125984},{"duration":0.12000000000000455,"midi":54,"time":135.72,"velocity":0.2755905511811024},{"duration":0.12000000000000455,"midi":42,"time":135.72,"velocity":0.31496062992125984},{"duration":0.12000000000000455,"midi":61,"time":135.72,"velocity":0.2992125984251969},{"duration":0.12000000000000455,"midi":40,"time":135.84,"velocity":0.3228346456692913},{"duration":0.12000000000000455,"midi":46,"time":135.84,"velocity":0.31496062992125984},{"duration":0.12000000000000455,"midi":54,"time":135.84,"velocity":0.2755905511811024},{"duration":0.12000000000000455,"midi":61,"time":135.84,"velocity":0.2992125984251969},{"duration":0.12000000000000455,"midi":42,"time":136.07999999999998,"velocity":0.31496062992125984},{"duration":0.12000000000000455,"midi":54,"time":136.07999999999998,"velocity":0.2755905511811024},{"duration":0.12000000000000455,"midi":61,"time":136.07999999999998,"velocity":0.2204724409448819},{"duration":0.12000000000000455,"midi":42,"time":136.2,"velocity":0.31496062992125984},{"duration":0.12000000000000455,"midi":54,"time":136.2,"velocity":0.2755905511811024},{"duration":0.12000000000000455,"midi":61,"time":136.2,"velocity":0.2204724409448819},{"duration":0.12000000000000455,"midi":61,"time":136.32,"velocity":0.2992125984251969},{"duration":0.12000000000000455,"midi":36,"time":136.32,"velocity":0.31496062992125984},{"duration":0.12000000000000455,"midi":60,"time":136.44,"velocity":0.2992125984251969},{"duration":0.12000000000000455,"midi":42,"time":136.56,"velocity":0.31496062992125984},{"duration":0.12000000000000455,"midi":54,"time":136.56,"velocity":0.2755905511811024},{"duration":0.11999999999997613,"midi":61,"time":136.68,"velocity":0.2992125984251969},{"duration":0.11999999999997613,"midi":54,"time":136.68,"velocity":0.2755905511811024},{"duration":0.11999999999997613,"midi":42,"time":136.68,"velocity":0.31496062992125984},{"duration":0.12000000000000455,"midi":40,"time":136.79999999999998,"velocity":0.3228346456692913},{"duration":0.12000000000000455,"midi":46,"time":136.79999999999998,"velocity":0.31496062992125984},{"duration":0.12000000000000455,"midi":54,"time":136.79999999999998,"velocity":0.2755905511811024},{"duration":0.12000000000000455,"midi":61,"time":136.79999999999998,"velocity":0.2992125984251969},{"duration":0.12000000000000455,"midi":54,"time":137.04,"velocity":0.2755905511811024},{"duration":0.12000000000000455,"midi":61,"time":137.04,"velocity":0.2204724409448819},{"duration":0.12000000000000455,"midi":42,"time":137.04,"velocity":0.31496062992125984},{"duration":0.12000000000000455,"midi":42,"time":137.16,"velocity":0.31496062992125984},{"duration":0.12000000000000455,"midi":54,"time":137.16,"velocity":0.2755905511811024},{"duration":0.12000000000000455,"midi":61,"time":137.16,"velocity":0.2204724409448819},{"duration":0.12000000000000455,"midi":61,"time":137.28,"velocity":0.2992125984251969},{"duration":0.12000000000000455,"midi":36,"time":137.28,"velocity":0.31496062992125984},{"duration":0.11999999999997613,"midi":60,"time":137.4,"velocity":0.2992125984251969},{"duration":0.12000000000000455,"midi":42,"time":137.51999999999998,"velocity":0.31496062992125984},{"duration":0.12000000000000455,"midi":54,"time":137.51999999999998,"velocity":0.2755905511811024},{"duration":0.12000000000000455,"midi":42,"time":137.64,"velocity":0.31496062992125984},{"duration":0.12000000000000455,"midi":54,"time":137.64,"velocity":0.2755905511811024},{"duration":0.12000000000000455,"midi":61,"time":137.64,"velocity":0.2992125984251969},{"duration":0.12000000000000455,"midi":46,"time":137.76,"velocity":0.31496062992125984},{"duration":0.12000000000000455,"midi":40,"time":137.76,"velocity":0.3228346456692913},{"duration":0.12000000000000455,"midi":54,"time":137.76,"velocity":0.2755905511811024},{"duration":0.12000000000000455,"midi":61,"time":137.76,"velocity":0.2992125984251969},{"duration":0.12000000000000455,"midi":54,"time":138,"velocity":0.2755905511811024},{"duration":0.12000000000000455,"midi":42,"time":138,"velocity":0.31496062992125984},{"duration":0.12000000000000455,"midi":61,"time":138,"velocity":0.2204724409448819},{"duration":0.12000000000000455,"midi":42,"time":138.12,"velocity":0.31496062992125984},{"duration":0.12000000000000455,"midi":54,"time":138.12,"velocity":0.2755905511811024},{"duration":0.12000000000000455,"midi":61,"time":138.12,"velocity":0.2204724409448819},{"duration":0.11999999999997613,"midi":36,"time":138.24,"velocity":0.31496062992125984},{"duration":0.11999999999997613,"midi":61,"time":138.24,"velocity":0.2992125984251969},{"duration":0.12000000000000455,"midi":60,"time":138.35999999999999,"velocity":0.2992125984251969},{"duration":0.12000000000000455,"midi":42,"time":138.48,"velocity":0.31496062992125984},{"duration":0.12000000000000455,"midi":54,"time":138.48,"velocity":0.2755905511811024},{"duration":0.12000000000000455,"midi":61,"time":138.6,"velocity":0.2992125984251969},{"duration":0.12000000000000455,"midi":54,"time":138.6,"velocity":0.2755905511811024},{"duration":0.12000000000000455,"midi":42,"time":138.6,"velocity":0.31496062992125984},{"duration":0.12000000000000455,"midi":46,"time":138.72,"velocity":0.31496062992125984},{"duration":0.12000000000000455,"midi":40,"time":138.72,"velocity":0.3228346456692913},{"duration":0.12000000000000455,"midi":61,"time":138.72,"velocity":0.2992125984251969},{"duration":0.12000000000000455,"midi":54,"time":138.72,"velocity":0.2755905511811024},{"duration":0.11999999999997613,"midi":42,"time":138.96,"velocity":0.31496062992125984},{"duration":0.11999999999997613,"midi":61,"time":138.96,"velocity":0.2204724409448819},{"duration":0.11999999999997613,"midi":54,"time":138.96,"velocity":0.2755905511811024},{"duration":0.12000000000000455,"midi":61,"time":139.07999999999998,"velocity":0.2204724409448819},{"duration":0.12000000000000455,"midi":54,"time":139.07999999999998,"velocity":0.2755905511811024},{"duration":0.12000000000000455,"midi":42,"time":139.07999999999998,"velocity":0.31496062992125984},{"duration":0.12000000000000455,"midi":61,"time":139.2,"velocity":0.2992125984251969},{"duration":0.12000000000000455,"midi":36,"time":139.2,"velocity":0.31496062992125984},{"duration":0.12000000000000455,"midi":60,"time":139.32,"velocity":0.2992125984251969},{"duration":0.12000000000000455,"midi":42,"time":139.44,"velocity":0.31496062992125984},{"duration":0.12000000000000455,"midi":54,"time":139.44,"velocity":0.2755905511811024},{"duration":0.12000000000000455,"midi":61,"time":139.56,"velocity":0.2992125984251969},{"duration":0.12000000000000455,"midi":54,"time":139.56,"velocity":0.2755905511811024},{"duration":0.12000000000000455,"midi":42,"time":139.56,"velocity":0.31496062992125984},{"duration":0.11999999999997613,"midi":46,"time":139.68,"velocity":0.31496062992125984},{"duration":0.11999999999997613,"midi":54,"time":139.68,"velocity":0.2755905511811024},{"duration":0.11999999999997613,"midi":61,"time":139.68,"velocity":0.2992125984251969},{"duration":0.11999999999997613,"midi":40,"time":139.68,"velocity":0.3228346456692913},{"duration":0.12000000000000455,"midi":61,"time":139.92,"velocity":0.2204724409448819},{"duration":0.12000000000000455,"midi":54,"time":139.92,"velocity":0.2755905511811024},{"duration":0.12000000000000455,"midi":42,"time":139.92,"velocity":0.31496062992125984},{"duration":0.12000000000000455,"midi":61,"time":140.04,"velocity":0.2204724409448819},{"duration":0.12000000000000455,"midi":54,"time":140.04,"velocity":0.2755905511811024},{"duration":0.12000000000000455,"midi":42,"time":140.04,"velocity":0.31496062992125984},{"duration":0.12000000000000455,"midi":61,"time":140.16,"velocity":0.2992125984251969},{"duration":0.12000000000000455,"midi":36,"time":140.16,"velocity":0.31496062992125984},{"duration":0.12000000000000455,"midi":60,"time":140.28,"velocity":0.2992125984251969},{"duration":0.11999999999997613,"midi":54,"time":140.4,"velocity":0.2755905511811024},{"duration":0.11999999999997613,"midi":42,"time":140.4,"velocity":0.31496062992125984},{"duration":0.12000000000000455,"midi":54,"time":140.51999999999998,"velocity":0.2755905511811024},{"duration":0.12000000000000455,"midi":42,"time":140.51999999999998,"velocity":0.31496062992125984},{"duration":0.12000000000000455,"midi":61,"time":140.51999999999998,"velocity":0.2992125984251969},{"duration":0.12000000000000455,"midi":54,"time":140.64,"velocity":0.2755905511811024},{"duration":0.12000000000000455,"midi":61,"time":140.64,"velocity":0.2992125984251969},{"duration":0.12000000000000455,"midi":46,"time":140.64,"velocity":0.31496062992125984},{"duration":0.12000000000000455,"midi":40,"time":140.64,"velocity":0.3228346456692913},{"duration":0.12000000000000455,"midi":42,"time":140.88,"velocity":0.31496062992125984},{"duration":0.12000000000000455,"midi":61,"time":140.88,"velocity":0.2204724409448819},{"duration":0.12000000000000455,"midi":54,"time":140.88,"velocity":0.2755905511811024},{"duration":0.12000000000000455,"midi":61,"time":141,"velocity":0.2204724409448819},{"duration":0.12000000000000455,"midi":54,"time":141,"velocity":0.2755905511811024},{"duration":0.12000000000000455,"midi":42,"time":141,"velocity":0.31496062992125984},{"duration":0.11999999999997613,"midi":61,"time":141.12,"velocity":0.2992125984251969},{"duration":0.11999999999997613,"midi":36,"time":141.12,"velocity":0.31496062992125984},{"duration":0.12000000000000455,"midi":60,"time":141.23999999999998,"velocity":0.2992125984251969},{"duration":0.12000000000000455,"midi":54,"time":141.35999999999999,"velocity":0.2755905511811024},{"duration":0.12000000000000455,"midi":42,"time":141.35999999999999,"velocity":0.31496062992125984},{"duration":0.12000000000000455,"midi":42,"time":141.48,"velocity":0.31496062992125984},{"duration":0.12000000000000455,"midi":61,"time":141.48,"velocity":0.2992125984251969},{"duration":0.12000000000000455,"midi":54,"time":141.48,"velocity":0.2755905511811024},{"duration":0.12000000000000455,"midi":54,"time":141.6,"velocity":0.2755905511811024},{"duration":0.12000000000000455,"midi":61,"time":141.6,"velocity":0.2992125984251969},{"duration":0.12000000000000455,"midi":40,"time":141.6,"velocity":0.3228346456692913},{"duration":0.12000000000000455,"midi":46,"time":141.6,"velocity":0.31496062992125984},{"duration":0.12000000000000455,"midi":61,"time":141.84,"velocity":0.2204724409448819},{"duration":0.12000000000000455,"midi":54,"time":141.84,"velocity":0.2755905511811024},{"duration":0.12000000000000455,"midi":42,"time":141.84,"velocity":0.31496062992125984},{"duration":0.11999999999997613,"midi":61,"time":141.96,"velocity":0.2204724409448819},{"duration":0.11999999999997613,"midi":54,"time":141.96,"velocity":0.2755905511811024},{"duration":0.11999999999997613,"midi":42,"time":141.96,"velocity":0.31496062992125984},{"duration":0.12000000000000455,"midi":36,"time":142.07999999999998,"velocity":0.31496062992125984},{"duration":0.12000000000000455,"midi":61,"time":142.07999999999998,"velocity":0.2992125984251969},{"duration":0.12000000000000455,"midi":60,"time":142.2,"velocity":0.2992125984251969},{"duration":0.12000000000000455,"midi":54,"time":142.32,"velocity":0.2755905511811024},{"duration":0.12000000000000455,"midi":42,"time":142.32,"velocity":0.31496062992125984},{"duration":0.12000000000000455,"midi":61,"time":142.44,"velocity":0.2992125984251969},{"duration":0.12000000000000455,"midi":54,"time":142.44,"velocity":0.2755905511811024},{"duration":0.12000000000000455,"midi":42,"time":142.44,"velocity":0.31496062992125984},{"duration":0.12000000000000455,"midi":40,"time":142.56,"velocity":0.3228346456692913},{"duration":0.12000000000000455,"midi":46,"time":142.56,"velocity":0.31496062992125984},{"duration":0.12000000000000455,"midi":61,"time":142.56,"velocity":0.2992125984251969},{"duration":0.12000000000000455,"midi":54,"time":142.56,"velocity":0.2755905511811024},{"duration":0.12000000000000455,"midi":42,"time":142.79999999999998,"velocity":0.31496062992125984},{"duration":0.12000000000000455,"midi":54,"time":142.79999999999998,"velocity":0.2755905511811024},{"duration":0.12000000000000455,"midi":61,"time":142.79999999999998,"velocity":0.2204724409448819},{"duration":0.12000000000000455,"midi":61,"time":142.92,"velocity":0.2204724409448819},{"duration":0.12000000000000455,"midi":54,"time":142.92,"velocity":0.2755905511811024},{"duration":0.12000000000000455,"midi":42,"time":142.92,"velocity":0.31496062992125984},{"duration":0.12000000000000455,"midi":61,"time":143.04,"velocity":0.2992125984251969},{"duration":0.12000000000000455,"midi":36,"time":143.04,"velocity":0.31496062992125984},{"duration":0.12000000000000455,"midi":60,"time":143.16,"velocity":0.2992125984251969},{"duration":0.12000000000000455,"midi":54,"time":143.28,"velocity":0.2755905511811024},{"duration":0.12000000000000455,"midi":42,"time":143.28,"velocity":0.31496062992125984},{"duration":0.11999999999997613,"midi":61,"time":143.4,"velocity":0.2992125984251969},{"duration":0.11999999999997613,"midi":54,"time":143.4,"velocity":0.2755905511811024},{"duration":0.11999999999997613,"midi":42,"time":143.4,"velocity":0.31496062992125984},{"duration":0.12000000000000455,"midi":40,"time":143.51999999999998,"velocity":0.3228346456692913},{"duration":0.12000000000000455,"midi":46,"time":143.51999999999998,"velocity":0.31496062992125984},{"duration":0.12000000000000455,"midi":54,"time":143.51999999999998,"velocity":0.2755905511811024},{"duration":0.12000000000000455,"midi":61,"time":143.51999999999998,"velocity":0.2992125984251969},{"duration":0.12000000000000455,"midi":61,"time":143.76,"velocity":0.2204724409448819},{"duration":0.12000000000000455,"midi":42,"time":143.76,"velocity":0.31496062992125984},{"duration":0.12000000000000455,"midi":54,"time":143.76,"velocity":0.2755905511811024},{"duration":0.12000000000000455,"midi":61,"time":143.88,"velocity":0.2204724409448819},{"duration":0.12000000000000455,"midi":54,"time":143.88,"velocity":0.2755905511811024},{"duration":0.12000000000000455,"midi":42,"time":143.88,"velocity":0.31496062992125984},{"duration":0.12000000000000455,"midi":36,"time":144,"velocity":0.31496062992125984},{"duration":0.12000000000000455,"midi":61,"time":144,"velocity":0.2992125984251969},{"duration":0.11999999999997613,"midi":60,"time":144.12,"velocity":0.2992125984251969},{"duration":0.12000000000000455,"midi":42,"time":144.23999999999998,"velocity":0.31496062992125984},{"duration":0.12000000000000455,"midi":54,"time":144.23999999999998,"velocity":0.2755905511811024},{"duration":0.12000000000000455,"midi":61,"time":144.35999999999999,"velocity":0.2992125984251969},{"duration":0.12000000000000455,"midi":42,"time":144.35999999999999,"velocity":0.31496062992125984},{"duration":0.12000000000000455,"midi":54,"time":144.35999999999999,"velocity":0.2755905511811024},{"duration":0.12000000000000455,"midi":46,"time":144.48,"velocity":0.31496062992125984},{"duration":0.12000000000000455,"midi":40,"time":144.48,"velocity":0.3228346456692913},{"duration":0.12000000000000455,"midi":54,"time":144.48,"velocity":0.2755905511811024},{"duration":0.12000000000000455,"midi":61,"time":144.48,"velocity":0.2992125984251969},{"duration":0.12000000000000455,"midi":42,"time":144.72,"velocity":0.31496062992125984},{"duration":0.12000000000000455,"midi":54,"time":144.72,"velocity":0.2755905511811024},{"duration":0.12000000000000455,"midi":61,"time":144.72,"velocity":0.2204724409448819},{"duration":0.12000000000000455,"midi":61,"time":144.84,"velocity":0.2204724409448819},{"duration":0.12000000000000455,"midi":54,"time":144.84,"velocity":0.2755905511811024},{"duration":0.12000000000000455,"midi":42,"time":144.84,"velocity":0.31496062992125984},{"duration":0.11999999999997613,"midi":36,"time":144.96,"velocity":0.31496062992125984},{"duration":0.11999999999997613,"midi":61,"time":144.96,"velocity":0.2992125984251969},{"duration":0.12000000000000455,"midi":60,"time":145.07999999999998,"velocity":0.2992125984251969},{"duration":0.12000000000000455,"midi":42,"time":145.2,"velocity":0.31496062992125984},{"duration":0.12000000000000455,"midi":54,"time":145.2,"velocity":0.2755905511811024},{"duration":0.12000000000000455,"midi":42,"time":145.32,"velocity":0.31496062992125984},{"duration":0.12000000000000455,"midi":61,"time":145.32,"velocity":0.2992125984251969},{"duration":0.12000000000000455,"midi":54,"time":145.32,"velocity":0.2755905511811024},{"duration":0.12000000000000455,"midi":46,"time":145.44,"velocity":0.31496062992125984},{"duration":0.12000000000000455,"midi":40,"time":145.44,"velocity":0.3228346456692913},{"duration":0.12000000000000455,"midi":54,"time":145.44,"velocity":0.2755905511811024},{"duration":0.12000000000000455,"midi":61,"time":145.44,"velocity":0.2992125984251969},{"duration":0.11999999999997613,"midi":42,"time":145.68,"velocity":0.31496062992125984},{"duration":0.11999999999997613,"midi":61,"time":145.68,"velocity":0.2204724409448819},{"duration":0.11999999999997613,"midi":54,"time":145.68,"velocity":0.2755905511811024},{"duration":0.12000000000000455,"midi":61,"time":145.79999999999998,"velocity":0.2204724409448819},{"duration":0.12000000000000455,"midi":54,"time":145.79999999999998,"velocity":0.2755905511811024},{"duration":0.12000000000000455,"midi":42,"time":145.79999999999998,"velocity":0.31496062992125984},{"duration":0.12000000000000455,"midi":61,"time":176.64,"velocity":0.2992125984251969},{"duration":0.2400000000000091,"midi":49,"time":176.64,"velocity":0.3228346456692913},{"duration":0.12000000000000455,"midi":36,"time":176.64,"velocity":0.31496062992125984},{"duration":0.12000000000000455,"midi":60,"time":176.76,"velocity":0.2992125984251969},{"duration":0.12000000000000455,"midi":42,"time":176.88,"velocity":0.31496062992125984},{"duration":0.12000000000000455,"midi":54,"time":176.88,"velocity":0.2755905511811024},{"duration":0.12000000000000455,"midi":54,"time":177,"velocity":0.2755905511811024},{"duration":0.12000000000000455,"midi":42,"time":177,"velocity":0.31496062992125984},{"duration":0.12000000000000455,"midi":61,"time":177,"velocity":0.2992125984251969},{"duration":0.11999999999997613,"midi":46,"time":177.12,"velocity":0.31496062992125984},{"duration":0.11999999999997613,"midi":40,"time":177.12,"velocity":0.3228346456692913},{"duration":0.11999999999997613,"midi":54,"time":177.12,"velocity":0.2755905511811024},{"duration":0.11999999999997613,"midi":61,"time":177.12,"velocity":0.2992125984251969},{"duration":0.12000000000000455,"midi":54,"time":177.35999999999999,"velocity":0.2755905511811024},{"duration":0.12000000000000455,"midi":61,"time":177.35999999999999,"velocity":0.2204724409448819},{"duration":0.12000000000000455,"midi":42,"time":177.35999999999999,"velocity":0.31496062992125984},{"duration":0.12000000000000455,"midi":54,"time":177.48,"velocity":0.2755905511811024},{"duration":0.12000000000000455,"midi":42,"time":177.48,"velocity":0.31496062992125984},{"duration":0.12000000000000455,"midi":61,"time":177.48,"velocity":0.2204724409448819},{"duration":0.12000000000000455,"midi":61,"time":177.6,"velocity":0.2992125984251969},{"duration":0.12000000000000455,"midi":36,"time":177.6,"velocity":0.31496062992125984},{"duration":0.12000000000000455,"midi":60,"time":177.72,"velocity":0.2992125984251969},{"duration":0.11999999999997613,"midi":42,"time":177.84,"velocity":0.31496062992125984},{"duration":0.11999999999997613,"midi":54,"time":177.84,"velocity":0.2755905511811024},{"duration":0.12000000000000455,"midi":54,"time":177.95999999999998,"velocity":0.2755905511811024},{"duration":0.12000000000000455,"midi":42,"time":177.95999999999998,"velocity":0.31496062992125984},{"duration":0.12000000000000455,"midi":61,"time":177.95999999999998,"velocity":0.2992125984251969},{"duration":0.12000000000000455,"midi":46,"time":178.07999999999998,"velocity":0.31496062992125984},{"duration":0.12000000000000455,"midi":54,"time":178.07999999999998,"velocity":0.2755905511811024},{"duration":0.12000000000000455,"midi":40,"time":178.07999999999998,"velocity":0.3228346456692913},{"duration":0.12000000000000455,"midi":61,"time":178.07999999999998,"velocity":0.2992125984251969},{"duration":0.12000000000000455,"midi":42,"time":178.32,"velocity":0.31496062992125984},{"duration":0.12000000000000455,"midi":61,"time":178.32,"velocity":0.2204724409448819},{"duration":0.12000000000000455,"midi":54,"time":178.32,"velocity":0.2755905511811024},{"duration":0.12000000000000455,"midi":54,"time":178.44,"velocity":0.2755905511811024},{"duration":0.12000000000000455,"midi":61,"time":178.44,"velocity":0.2204724409448819},{"duration":0.12000000000000455,"midi":42,"time":178.44,"velocity":0.31496062992125984},{"duration":0.12000000000000455,"midi":36,"time":178.56,"velocity":0.31496062992125984},{"duration":0.12000000000000455,"midi":61,"time":178.56,"velocity":0.2992125984251969},{"duration":0.11999999999997613,"midi":60,"time":178.68,"velocity":0.2992125984251969},{"duration":0.12000000000000455,"midi":54,"time":178.79999999999998,"velocity":0.2755905511811024},{"duration":0.12000000000000455,"midi":42,"time":178.79999999999998,"velocity":0.31496062992125984},{"duration":0.12000000000000455,"midi":61,"time":178.92,"velocity":0.2992125984251969},{"duration":0.12000000000000455,"midi":54,"time":178.92,"velocity":0.2755905511811024},{"duration":0.12000000000000455,"midi":42,"time":178.92,"velocity":0.31496062992125984},{"duration":0.12000000000000455,"midi":54,"time":179.04,"velocity":0.2755905511811024},{"duration":0.12000000000000455,"midi":46,"time":179.04,"velocity":0.31496062992125984},{"duration":0.12000000000000455,"midi":61,"time":179.04,"velocity":0.2992125984251969},{"duration":0.12000000000000455,"midi":40,"time":179.04,"velocity":0.3228346456692913},{"duration":0.12000000000000455,"midi":61,"time":179.28,"velocity":0.2204724409448819},{"duration":0.12000000000000455,"midi":54,"time":179.28,"velocity":0.2755905511811024},{"duration":0.12000000000000455,"midi":42,"time":179.28,"velocity":0.31496062992125984},{"duration":0.11999999999997613,"midi":54,"time":179.4,"velocity":0.2755905511811024},{"duration":0.11999999999997613,"midi":42,"time":179.4,"velocity":0.31496062992125984},{"duration":0.11999999999997613,"midi":61,"time":179.4,"velocity":0.2204724409448819},{"duration":0.12000000000000455,"midi":61,"time":179.51999999999998,"velocity":0.2992125984251969},{"duration":0.12000000000000455,"midi":36,"time":179.51999999999998,"velocity":0.31496062992125984},{"duration":0.12000000000000455,"midi":60,"time":179.64,"velocity":0.2992125984251969},{"duration":0.12000000000000455,"midi":54,"time":179.76,"velocity":0.2755905511811024},{"duration":0.12000000000000455,"midi":42,"time":179.76,"velocity":0.31496062992125984},{"duration":0.12000000000000455,"midi":61,"time":179.88,"velocity":0.2992125984251969},{"duration":0.12000000000000455,"midi":54,"time":179.88,"velocity":0.2755905511811024},{"duration":0.12000000000000455,"midi":42,"time":179.88,"velocity":0.31496062992125984},{"duration":0.12000000000000455,"midi":61,"time":180,"velocity":0.2992125984251969},{"duration":0.12000000000000455,"midi":54,"time":180,"velocity":0.2755905511811024},{"duration":0.12000000000000455,"midi":46,"time":180,"velocity":0.31496062992125984},{"duration":0.12000000000000455,"midi":40,"time":180,"velocity":0.3228346456692913},{"duration":0.12000000000000455,"midi":54,"time":180.23999999999998,"velocity":0.2755905511811024},{"duration":0.12000000000000455,"midi":61,"time":180.23999999999998,"velocity":0.2204724409448819},{"duration":0.12000000000000455,"midi":42,"time":180.23999999999998,"velocity":0.31496062992125984},{"duration":0.12000000000000455,"midi":61,"time":180.35999999999999,"velocity":0.2204724409448819},{"duration":0.12000000000000455,"midi":54,"time":180.35999999999999,"velocity":0.2755905511811024},{"duration":0.12000000000000455,"midi":42,"time":180.35999999999999,"velocity":0.31496062992125984},{"duration":0.12000000000000455,"midi":61,"time":180.48,"velocity":0.2992125984251969},{"duration":0.12000000000000455,"midi":36,"time":180.48,"velocity":0.31496062992125984},{"duration":0.12000000000000455,"midi":60,"time":180.6,"velocity":0.2992125984251969},{"duration":0.12000000000000455,"midi":42,"time":180.72,"velocity":0.31496062992125984},{"duration":0.12000000000000455,"midi":54,"time":180.72,"velocity":0.2755905511811024},{"duration":0.11999999999997613,"midi":61,"time":180.84,"velocity":0.2992125984251969},{"duration":0.11999999999997613,"midi":54,"time":180.84,"velocity":0.2755905511811024},{"duration":0.11999999999997613,"midi":42,"time":180.84,"velocity":0.31496062992125984},{"duration":0.12000000000000455,"midi":54,"time":180.95999999999998,"velocity":0.2755905511811024},{"duration":0.12000000000000455,"midi":61,"time":180.95999999999998,"velocity":0.2992125984251969},{"duration":0.12000000000000455,"midi":40,"time":180.95999999999998,"velocity":0.3228346456692913},{"duration":0.12000000000000455,"midi":46,"time":180.95999999999998,"velocity":0.31496062992125984},{"duration":0.12000000000000455,"midi":42,"time":181.2,"velocity":0.31496062992125984},{"duration":0.12000000000000455,"midi":61,"time":181.2,"velocity":0.2204724409448819},{"duration":0.12000000000000455,"midi":54,"time":181.2,"velocity":0.2755905511811024},{"duration":0.12000000000000455,"midi":61,"time":181.32,"velocity":0.2204724409448819},{"duration":0.12000000000000455,"midi":54,"time":181.32,"velocity":0.2755905511811024},{"duration":0.12000000000000455,"midi":42,"time":181.32,"velocity":0.31496062992125984},{"duration":0.12000000000000455,"midi":36,"time":181.44,"velocity":0.31496062992125984},{"duration":0.12000000000000455,"midi":61,"time":181.44,"velocity":0.2992125984251969},{"duration":0.12000000000000455,"midi":60,"time":181.56,"velocity":0.2992125984251969},{"duration":0.11999999999997613,"midi":42,"time":181.68,"velocity":0.31496062992125984},{"duration":0.11999999999997613,"midi":54,"time":181.68,"velocity":0.2755905511811024},{"duration":0.12000000000000455,"midi":54,"time":181.79999999999998,"velocity":0.2755905511811024},{"duration":0.12000000000000455,"midi":42,"time":181.79999999999998,"velocity":0.31496062992125984},{"duration":0.12000000000000455,"midi":61,"time":181.79999999999998,"velocity":0.2992125984251969},{"duration":0.12000000000000455,"midi":46,"time":181.92,"velocity":0.31496062992125984},{"duration":0.12000000000000455,"midi":40,"time":181.92,"velocity":0.3228346456692913},{"duration":0.12000000000000455,"midi":61,"time":181.92,"velocity":0.2992125984251969},{"duration":0.12000000000000455,"midi":54,"time":181.92,"velocity":0.2755905511811024},{"duration":0.12000000000000455,"midi":54,"time":182.16,"velocity":0.2755905511811024},{"duration":0.12000000000000455,"midi":42,"time":182.16,"velocity":0.31496062992125984},{"duration":0.12000000000000455,"midi":61,"time":182.16,"velocity":0.2204724409448819},{"duration":0.12000000000000455,"midi":54,"time":182.28,"velocity":0.2755905511811024},{"duration":0.12000000000000455,"midi":61,"time":182.28,"velocity":0.2204724409448819},{"duration":0.12000000000000455,"midi":42,"time":182.28,"velocity":0.31496062992125984},{"duration":0.11999999999997613,"midi":36,"time":182.4,"velocity":0.31496062992125984},{"duration":0.11999999999997613,"midi":61,"time":182.4,"velocity":0.2992125984251969},{"duration":0.12000000000000455,"midi":60,"time":182.51999999999998,"velocity":0.2992125984251969},{"duration":0.12000000000000455,"midi":42,"time":182.64,"velocity":0.31496062992125984},{"duration":0.12000000000000455,"midi":54,"time":182.64,"velocity":0.2755905511811024},{"duration":0.12000000000000455,"midi":61,"time":182.76,"velocity":0.2992125984251969},{"duration":0.12000000000000455,"midi":54,"time":182.76,"velocity":0.2755905511811024},{"duration":0.12000000000000455,"midi":42,"time":182.76,"velocity":0.31496062992125984},{"duration":0.12000000000000455,"midi":54,"time":182.88,"velocity":0.2755905511811024},{"duration":0.12000000000000455,"midi":46,"time":182.88,"velocity":0.31496062992125984},{"duration":0.12000000000000455,"midi":61,"time":182.88,"velocity":0.2992125984251969},{"duration":0.12000000000000455,"midi":40,"time":182.88,"velocity":0.3228346456692913},{"duration":0.11999999999997613,"midi":61,"time":183.12,"velocity":0.2204724409448819},{"duration":0.11999999999997613,"midi":42,"time":183.12,"velocity":0.31496062992125984},{"duration":0.11999999999997613,"midi":54,"time":183.12,"velocity":0.2755905511811024},{"duration":0.12000000000000455,"midi":42,"time":183.23999999999998,"velocity":0.31496062992125984},{"duration":0.12000000000000455,"midi":54,"time":183.23999999999998,"velocity":0.2755905511811024},{"duration":0.12000000000000455,"midi":61,"time":183.23999999999998,"velocity":0.2204724409448819},{"duration":0.12000000000000455,"midi":61,"time":183.35999999999999,"velocity":0.2992125984251969},{"duration":0.12000000000000455,"midi":36,"time":183.35999999999999,"velocity":0.31496062992125984},{"duration":0.12000000000000455,"midi":60,"time":183.48,"velocity":0.2992125984251969},{"duration":0.12000000000000455,"midi":42,"time":183.6,"velocity":0.31496062992125984},{"duration":0.12000000000000455,"midi":54,"time":183.6,"velocity":0.2755905511811024},{"duration":0.12000000000000455,"midi":54,"time":183.72,"velocity":0.2755905511811024},{"duration":0.12000000000000455,"midi":42,"time":183.72,"velocity":0.31496062992125984},{"duration":0.12000000000000455,"midi":61,"time":183.72,"velocity":0.2992125984251969},{"duration":0.11999999999997613,"midi":46,"time":183.84,"velocity":0.31496062992125984},{"duration":0.11999999999997613,"midi":61,"time":183.84,"velocity":0.2992125984251969},{"duration":0.11999999999997613,"midi":54,"time":183.84,"velocity":0.2755905511811024},{"duration":0.11999999999997613,"midi":40,"time":183.84,"velocity":0.3228346456692913},{"duration":0.12000000000000455,"midi":42,"time":184.07999999999998,"velocity":0.31496062992125984},{"duration":0.12000000000000455,"midi":61,"time":184.07999999999998,"velocity":0.2204724409448819},{"duration":0.12000000000000455,"midi":54,"time":184.07999999999998,"velocity":0.2755905511811024},{"duration":0.12000000000000455,"midi":54,"time":184.2,"velocity":0.2755905511811024},{"duration":0.12000000000000455,"midi":61,"time":184.2,"velocity":0.2204724409448819},{"duration":0.12000000000000455,"midi":42,"time":184.2,"velocity":0.31496062992125984},{"duration":0.12000000000000455,"midi":61,"time":184.32,"velocity":0.2992125984251969},{"duration":0.12000000000000455,"midi":36,"time":184.32,"velocity":0.31496062992125984},{"duration":0.12000000000000455,"midi":60,"time":184.44,"velocity":0.2992125984251969},{"duration":0.12000000000000455,"midi":54,"time":184.56,"velocity":0.2755905511811024},{"duration":0.12000000000000455,"midi":42,"time":184.56,"velocity":0.31496062992125984},{"duration":0.11999999999997613,"midi":54,"time":184.68,"velocity":0.2755905511811024},{"duration":0.11999999999997613,"midi":42,"time":184.68,"velocity":0.31496062992125984},{"duration":0.11999999999997613,"midi":61,"time":184.68,"velocity":0.2992125984251969},{"duration":0.12000000000000455,"midi":61,"time":184.79999999999998,"velocity":0.2992125984251969},{"duration":0.12000000000000455,"midi":54,"time":184.79999999999998,"velocity":0.2755905511811024},{"duration":0.12000000000000455,"midi":46,"time":184.79999999999998,"velocity":0.31496062992125984},{"duration":0.12000000000000455,"midi":40,"time":184.79999999999998,"velocity":0.3228346456692913},{"duration":0.12000000000000455,"midi":61,"time":185.04,"velocity":0.2204724409448819},{"duration":0.12000000000000455,"midi":54,"time":185.04,"velocity":0.2755905511811024},{"duration":0.12000000000000455,"midi":42,"time":185.04,"velocity":0.31496062992125984},{"duration":0.12000000000000455,"midi":54,"time":185.16,"velocity":0.2755905511811024},{"duration":0.12000000000000455,"midi":42,"time":185.16,"velocity":0.31496062992125984},{"duration":0.12000000000000455,"midi":61,"time":185.16,"velocity":0.2204724409448819},{"duration":0.12000000000000455,"midi":36,"time":185.28,"velocity":0.31496062992125984},{"duration":0.12000000000000455,"midi":61,"time":185.28,"velocity":0.2992125984251969},{"duration":0.11999999999997613,"midi":60,"time":185.4,"velocity":0.2992125984251969},{"duration":0.12000000000000455,"midi":54,"time":185.51999999999998,"velocity":0.2755905511811024},{"duration":0.12000000000000455,"midi":42,"time":185.51999999999998,"velocity":0.31496062992125984},{"duration":0.12000000000000455,"midi":61,"time":185.64,"velocity":0.2992125984251969},{"duration":0.12000000000000455,"midi":54,"time":185.64,"velocity":0.2755905511811024},{"duration":0.12000000000000455,"midi":42,"time":185.64,"velocity":0.31496062992125984},{"duration":0.12000000000000455,"midi":54,"time":185.76,"velocity":0.2755905511811024},{"duration":0.12000000000000455,"midi":46,"time":185.76,"velocity":0.31496062992125984},{"duration":0.12000000000000455,"midi":40,"time":185.76,"velocity":0.3228346456692913},{"duration":0.12000000000000455,"midi":61,"time":185.76,"velocity":0.2992125984251969},{"duration":0.12000000000000455,"midi":54,"time":186,"velocity":0.2755905511811024},{"duration":0.12000000000000455,"midi":61,"time":186,"velocity":0.2204724409448819},{"duration":0.12000000000000455,"midi":42,"time":186,"velocity":0.31496062992125984},{"duration":0.11999999999997613,"midi":61,"time":186.12,"velocity":0.2204724409448819},{"duration":0.11999999999997613,"midi":54,"time":186.12,"velocity":0.2755905511811024},{"duration":0.11999999999997613,"midi":42,"time":186.12,"velocity":0.31496062992125984},{"duration":0.12000000000000455,"midi":36,"time":186.23999999999998,"velocity":0.31496062992125984},{"duration":0.12000000000000455,"midi":61,"time":186.23999999999998,"velocity":0.2992125984251969},{"duration":0.12000000000000455,"midi":60,"time":186.35999999999999,"velocity":0.2992125984251969},{"duration":0.12000000000000455,"midi":54,"time":186.48,"velocity":0.2755905511811024},{"duration":0.12000000000000455,"midi":42,"time":186.48,"velocity":0.31496062992125984},{"duration":0.12000000000000455,"midi":54,"time":186.6,"velocity":0.2755905511811024},{"duration":0.12000000000000455,"midi":42,"time":186.6,"velocity":0.31496062992125984},{"duration":0.12000000000000455,"midi":61,"time":186.6,"velocity":0.2992125984251969},{"duration":0.12000000000000455,"midi":61,"time":186.72,"velocity":0.2992125984251969},{"duration":0.12000000000000455,"midi":54,"time":186.72,"velocity":0.2755905511811024},{"duration":0.12000000000000455,"midi":46,"time":186.72,"velocity":0.31496062992125984},{"duration":0.12000000000000455,"midi":40,"time":186.72,"velocity":0.3228346456692913},{"duration":0.12000000000000455,"midi":54,"time":186.95999999999998,"velocity":0.2755905511811024},{"duration":0.12000000000000455,"midi":61,"time":186.95999999999998,"velocity":0.2204724409448819},{"duration":0.12000000000000455,"midi":42,"time":186.95999999999998,"velocity":0.31496062992125984},{"duration":0.12000000000000455,"midi":61,"time":187.07999999999998,"velocity":0.2204724409448819},{"duration":0.12000000000000455,"midi":54,"time":187.07999999999998,"velocity":0.2755905511811024},{"duration":0.12000000000000455,"midi":42,"time":187.07999999999998,"velocity":0.31496062992125984},{"duration":0.12000000000000455,"midi":61,"time":187.2,"velocity":0.2992125984251969},{"duration":0.12000000000000455,"midi":36,"time":187.2,"velocity":0.31496062992125984},{"duration":0.12000000000000455,"midi":60,"time":187.32,"velocity":0.2992125984251969},{"duration":0.12000000000000455,"midi":54,"time":187.44,"velocity":0.2755905511811024},{"duration":0.12000000000000455,"midi":42,"time":187.44,"velocity":0.31496062992125984},{"duration":0.12000000000000455,"midi":54,"time":187.56,"velocity":0.2755905511811024},{"duration":0.12000000000000455,"midi":61,"time":187.56,"velocity":0.2992125984251969},{"duration":0.12000000000000455,"midi":42,"time":187.56,"velocity":0.31496062992125984},{"duration":0.11999999999997613,"midi":46,"time":187.68,"velocity":0.31496062992125984},{"duration":0.11999999999997613,"midi":54,"time":187.68,"velocity":0.2755905511811024},{"duration":0.11999999999997613,"midi":40,"time":187.68,"velocity":0.3228346456692913},{"duration":0.11999999999997613,"midi":61,"time":187.68,"velocity":0.2992125984251969},{"duration":0.12000000000000455,"midi":42,"time":187.92,"velocity":0.31496062992125984},{"duration":0.12000000000000455,"midi":61,"time":187.92,"velocity":0.2204724409448819},{"duration":0.12000000000000455,"midi":54,"time":187.92,"velocity":0.2755905511811024},{"duration":0.12000000000000455,"midi":54,"time":188.04,"velocity":0.2755905511811024},{"duration":0.12000000000000455,"midi":61,"time":188.04,"velocity":0.2204724409448819},{"duration":0.12000000000000455,"midi":42,"time":188.04,"velocity":0.31496062992125984},{"duration":0.12000000000000455,"midi":36,"time":188.16,"velocity":0.31496062992125984},{"duration":0.12000000000000455,"midi":61,"time":188.16,"velocity":0.2992125984251969},{"duration":0.12000000000000455,"midi":60,"time":188.28,"velocity":0.2992125984251969},{"duration":0.11999999999997613,"midi":54,"time":188.4,"velocity":0.2755905511811024},{"duration":0.11999999999997613,"midi":42,"time":188.4,"velocity":0.31496062992125984},{"duration":0.12000000000000455,"midi":61,"time":188.51999999999998,"velocity":0.2992125984251969},{"duration":0.12000000000000455,"midi":54,"time":188.51999999999998,"velocity":0.2755905511811024},{"duration":0.12000000000000455,"midi":42,"time":188.51999999999998,"velocity":0.31496062992125984},{"duration":0.12000000000000455,"midi":40,"time":188.64,"velocity":0.3228346456692913},{"duration":0.12000000000000455,"midi":61,"time":188.64,"velocity":0.2992125984251969},{"duration":0.12000000000000455,"midi":54,"time":188.64,"velocity":0.2755905511811024},{"duration":0.12000000000000455,"midi":46,"time":188.64,"velocity":0.31496062992125984},{"duration":0.12000000000000455,"midi":54,"time":188.88,"velocity":0.2755905511811024},{"duration":0.12000000000000455,"midi":61,"time":188.88,"velocity":0.2204724409448819},{"duration":0.12000000000000455,"midi":42,"time":188.88,"velocity":0.31496062992125984},{"duration":0.12000000000000455,"midi":61,"time":189,"velocity":0.2204724409448819},{"duration":0.12000000000000455,"midi":54,"time":189,"velocity":0.2755905511811024},{"duration":0.12000000000000455,"midi":42,"time":189,"velocity":0.31496062992125984},{"duration":0.11999999999997613,"midi":61,"time":189.12,"velocity":0.2992125984251969},{"duration":0.11999999999997613,"midi":36,"time":189.12,"velocity":0.31496062992125984},{"duration":0.12000000000000455,"midi":60,"time":189.23999999999998,"velocity":0.2992125984251969},{"duration":0.12000000000000455,"midi":54,"time":189.35999999999999,"velocity":0.2755905511811024},{"duration":0.12000000000000455,"midi":42,"time":189.35999999999999,"velocity":0.31496062992125984},{"duration":0.12000000000000455,"midi":54,"time":189.48,"velocity":0.2755905511811024},{"duration":0.12000000000000455,"midi":61,"time":189.48,"velocity":0.2992125984251969},{"duration":0.12000000000000455,"midi":42,"time":189.48,"velocity":0.31496062992125984},{"duration":0.12000000000000455,"midi":54,"time":189.6,"velocity":0.2755905511811024},{"duration":0.12000000000000455,"midi":61,"time":189.6,"velocity":0.2992125984251969},{"duration":0.12000000000000455,"midi":46,"time":189.6,"velocity":0.31496062992125984},{"duration":0.12000000000000455,"midi":40,"time":189.6,"velocity":0.3228346456692913},{"duration":0.11999999999997613,"midi":54,"time":189.84,"velocity":0.2755905511811024},{"duration":0.11999999999997613,"midi":61,"time":189.84,"velocity":0.2204724409448819},{"duration":0.11999999999997613,"midi":42,"time":189.84,"velocity":0.31496062992125984},{"duration":0.12000000000000455,"midi":54,"time":189.95999999999998,"velocity":0.2755905511811024},{"duration":0.12000000000000455,"midi":61,"time":189.95999999999998,"velocity":0.2204724409448819},{"duration":0.12000000000000455,"midi":42,"time":189.95999999999998,"velocity":0.31496062992125984},{"duration":0.12000000000000455,"midi":61,"time":190.07999999999998,"velocity":0.2992125984251969},{"duration":0.12000000000000455,"midi":36,"time":190.07999999999998,"velocity":0.31496062992125984},{"duration":0.12000000000000455,"midi":60,"time":190.2,"velocity":0.2992125984251969},{"duration":0.12000000000000455,"midi":54,"time":190.32,"velocity":0.2755905511811024},{"duration":0.12000000000000455,"midi":42,"time":190.32,"velocity":0.31496062992125984},{"duration":0.12000000000000455,"midi":42,"time":190.44,"velocity":0.31496062992125984},{"duration":0.12000000000000455,"midi":54,"time":190.44,"velocity":0.2755905511811024},{"duration":0.12000000000000455,"midi":61,"time":190.44,"velocity":0.2992125984251969},{"duration":0.12000000000000455,"midi":40,"time":190.56,"velocity":0.3228346456692913},{"duration":0.12000000000000455,"midi":46,"time":190.56,"velocity":0.31496062992125984},{"duration":0.12000000000000455,"midi":61,"time":190.56,"velocity":0.2992125984251969},{"duration":0.12000000000000455,"midi":54,"time":190.56,"velocity":0.2755905511811024},{"duration":0.12000000000000455,"midi":54,"time":190.79999999999998,"velocity":0.2755905511811024},{"duration":0.12000000000000455,"midi":61,"time":190.79999999999998,"velocity":0.2204724409448819},{"duration":0.12000000000000455,"midi":42,"time":190.79999999999998,"velocity":0.31496062992125984},{"duration":0.12000000000000455,"midi":61,"time":190.92,"velocity":0.2204724409448819},{"duration":0.12000000000000455,"midi":54,"time":190.92,"velocity":0.2755905511811024},{"duration":0.12000000000000455,"midi":42,"time":190.92,"velocity":0.31496062992125984},{"duration":0.12000000000000455,"midi":61,"time":191.04,"velocity":0.2992125984251969},{"duration":0.12000000000000455,"midi":36,"time":191.04,"velocity":0.31496062992125984},{"duration":0.12000000000000455,"midi":60,"time":191.16,"velocity":0.2992125984251969},{"duration":0.12000000000000455,"midi":54,"time":191.28,"velocity":0.2755905511811024},{"duration":0.12000000000000455,"midi":42,"time":191.28,"velocity":0.31496062992125984},{"duration":0.11999999999997613,"midi":54,"time":191.4,"velocity":0.2755905511811024},{"duration":0.11999999999997613,"midi":61,"time":191.4,"velocity":0.2992125984251969},{"duration":0.11999999999997613,"midi":42,"time":191.4,"velocity":0.31496062992125984},{"duration":0.12000000000000455,"midi":46,"time":191.51999999999998,"velocity":0.31496062992125984},{"duration":0.12000000000000455,"midi":40,"time":191.51999999999998,"velocity":0.3228346456692913},{"duration":0.12000000000000455,"midi":61,"time":191.51999999999998,"velocity":0.2992125984251969},{"duration":0.12000000000000455,"midi":54,"time":191.51999999999998,"velocity":0.2755905511811024},{"duration":0.12000000000000455,"midi":42,"time":191.76,"velocity":0.31496062992125984},{"duration":0.12000000000000455,"midi":61,"time":191.76,"velocity":0.2204724409448819},{"duration":0.12000000000000455,"midi":54,"time":191.76,"velocity":0.2755905511811024},{"duration":0.12000000000000455,"midi":54,"time":191.88,"velocity":0.2755905511811024},{"duration":0.12000000000000455,"midi":61,"time":191.88,"velocity":0.2204724409448819},{"duration":0.12000000000000455,"midi":42,"time":191.88,"velocity":0.31496062992125984},{"duration":0.12000000000000455,"midi":36,"time":192,"velocity":0.31496062992125984},{"duration":0.12000000000000455,"midi":61,"time":192,"velocity":0.2992125984251969},{"duration":0.11999999999997613,"midi":60,"time":192.12,"velocity":0.2992125984251969},{"duration":0.12000000000000455,"midi":42,"time":192.23999999999998,"velocity":0.31496062992125984},{"duration":0.12000000000000455,"midi":54,"time":192.23999999999998,"velocity":0.2755905511811024},{"duration":0.12000000000000455,"midi":61,"time":192.35999999999999,"velocity":0.2992125984251969},{"duration":0.12000000000000455,"midi":54,"time":192.35999999999999,"velocity":0.2755905511811024},{"duration":0.12000000000000455,"midi":42,"time":192.35999999999999,"velocity":0.31496062992125984},{"duration":0.12000000000000455,"midi":54,"time":192.48,"velocity":0.2755905511811024},{"duration":0.12000000000000455,"midi":61,"time":192.48,"velocity":0.2992125984251969},{"duration":0.12000000000000455,"midi":46,"time":192.48,"velocity":0.31496062992125984},{"duration":0.12000000000000455,"midi":40,"time":192.48,"velocity":0.3228346456692913},{"duration":0.12000000000000455,"midi":54,"time":192.72,"velocity":0.2755905511811024},{"duration":0.12000000000000455,"midi":61,"time":192.72,"velocity":0.2204724409448819},{"duration":0.12000000000000455,"midi":42,"time":192.72,"velocity":0.31496062992125984},{"duration":0.11999999999997613,"midi":61,"time":192.84,"velocity":0.2204724409448819},{"duration":0.11999999999997613,"midi":54,"time":192.84,"velocity":0.2755905511811024},{"duration":0.11999999999997613,"midi":42,"time":192.84,"velocity":0.31496062992125984},{"duration":0.12000000000000455,"midi":36,"time":192.95999999999998,"velocity":0.31496062992125984},{"duration":0.12000000000000455,"midi":61,"time":192.95999999999998,"velocity":0.2992125984251969},{"duration":0.12000000000000455,"midi":60,"time":193.07999999999998,"velocity":0.2992125984251969},{"duration":0.12000000000000455,"midi":54,"time":193.2,"velocity":0.2755905511811024},{"duration":0.12000000000000455,"midi":42,"time":193.2,"velocity":0.31496062992125984},{"duration":0.12000000000000455,"midi":54,"time":193.32,"velocity":0.2755905511811024},{"duration":0.12000000000000455,"midi":61,"time":193.32,"velocity":0.2992125984251969},{"duration":0.12000000000000455,"midi":42,"time":193.32,"velocity":0.31496062992125984},{"duration":0.12000000000000455,"midi":61,"time":193.44,"velocity":0.2992125984251969},{"duration":0.12000000000000455,"midi":54,"time":193.44,"velocity":0.2755905511811024},{"duration":0.12000000000000455,"midi":46,"time":193.44,"velocity":0.31496062992125984},{"duration":0.12000000000000455,"midi":40,"time":193.44,"velocity":0.3228346456692913},{"duration":0.11999999999997613,"midi":54,"time":193.68,"velocity":0.2755905511811024},{"duration":0.11999999999997613,"midi":42,"time":193.68,"velocity":0.31496062992125984},{"duration":0.11999999999997613,"midi":61,"time":193.68,"velocity":0.2204724409448819},{"duration":0.12000000000000455,"midi":61,"time":193.79999999999998,"velocity":0.2204724409448819},{"duration":0.12000000000000455,"midi":54,"time":193.79999999999998,"velocity":0.2755905511811024},{"duration":0.12000000000000455,"midi":42,"time":193.79999999999998,"velocity":0.31496062992125984},{"duration":0.12000000000000455,"midi":61,"time":193.92,"velocity":0.2992125984251969},{"duration":0.12000000000000455,"midi":36,"time":193.92,"velocity":0.31496062992125984},{"duration":0.12000000000000455,"midi":60,"time":194.04,"velocity":0.2992125984251969},{"duration":0.12000000000000455,"midi":42,"time":194.16,"velocity":0.31496062992125984},{"duration":0.12000000000000455,"midi":54,"time":194.16,"velocity":0.2755905511811024},{"duration":0.12000000000000455,"midi":42,"time":194.28,"velocity":0.31496062992125984},{"duration":0.12000000000000455,"midi":54,"time":194.28,"velocity":0.2755905511811024},{"duration":0.12000000000000455,"midi":61,"time":194.28,"velocity":0.2992125984251969},{"duration":0.11999999999997613,"midi":54,"time":194.4,"velocity":0.2755905511811024},{"duration":0.11999999999997613,"midi":61,"time":194.4,"velocity":0.2992125984251969},{"duration":0.11999999999997613,"midi":46,"time":194.4,"velocity":0.31496062992125984},{"duration":0.11999999999997613,"midi":40,"time":194.4,"velocity":0.3228346456692913},{"duration":0.12000000000000455,"midi":54,"time":194.64,"velocity":0.2755905511811024},{"duration":0.12000000000000455,"midi":42,"time":194.64,"velocity":0.31496062992125984},{"duration":0.12000000000000455,"midi":61,"time":194.64,"velocity":0.2204724409448819},{"duration":0.12000000000000455,"midi":61,"time":194.76,"velocity":0.2204724409448819},{"duration":0.12000000000000455,"midi":54,"time":194.76,"velocity":0.2755905511811024},{"duration":0.12000000000000455,"midi":42,"time":194.76,"velocity":0.31496062992125984},{"duration":0.12000000000000455,"midi":61,"time":194.88,"velocity":0.2992125984251969},{"duration":0.12000000000000455,"midi":36,"time":194.88,"velocity":0.31496062992125984},{"duration":0.12000000000000455,"midi":60,"time":195,"velocity":0.2992125984251969},{"duration":0.11999999999997613,"midi":54,"time":195.12,"velocity":0.2755905511811024},{"duration":0.11999999999997613,"midi":42,"time":195.12,"velocity":0.31496062992125984},{"duration":0.12000000000000455,"midi":54,"time":195.23999999999998,"velocity":0.2755905511811024},{"duration":0.12000000000000455,"midi":61,"time":195.23999999999998,"velocity":0.2992125984251969},{"duration":0.12000000000000455,"midi":42,"time":195.23999999999998,"velocity":0.31496062992125984},{"duration":0.12000000000000455,"midi":40,"time":195.35999999999999,"velocity":0.3228346456692913},{"duration":0.12000000000000455,"midi":46,"time":195.35999999999999,"velocity":0.31496062992125984},{"duration":0.12000000000000455,"midi":54,"time":195.35999999999999,"velocity":0.2755905511811024},{"duration":0.12000000000000455,"midi":61,"time":195.35999999999999,"velocity":0.2992125984251969},{"duration":0.12000000000000455,"midi":54,"time":195.6,"velocity":0.2755905511811024},{"duration":0.12000000000000455,"midi":61,"time":195.6,"velocity":0.2204724409448819},{"duration":0.12000000000000455,"midi":42,"time":195.6,"velocity":0.31496062992125984},{"duration":0.12000000000000455,"midi":54,"time":195.72,"velocity":0.2755905511811024},{"duration":0.12000000000000455,"midi":61,"time":195.72,"velocity":0.2204724409448819},{"duration":0.12000000000000455,"midi":42,"time":195.72,"velocity":0.31496062992125984},{"duration":0.11999999999997613,"midi":36,"time":195.84,"velocity":0.31496062992125984},{"duration":0.11999999999997613,"midi":61,"time":195.84,"velocity":0.2992125984251969},{"duration":0.12000000000000455,"midi":60,"time":195.95999999999998,"velocity":0.2992125984251969},{"duration":0.12000000000000455,"midi":42,"time":196.07999999999998,"velocity":0.31496062992125984},{"duration":0.12000000000000455,"midi":54,"time":196.07999999999998,"velocity":0.2755905511811024},{"duration":0.12000000000000455,"midi":54,"time":196.2,"velocity":0.2755905511811024},{"duration":0.12000000000000455,"midi":42,"time":196.2,"velocity":0.31496062992125984},{"duration":0.12000000000000455,"midi":61,"time":196.2,"velocity":0.2992125984251969},{"duration":0.12000000000000455,"midi":46,"time":196.32,"velocity":0.31496062992125984},{"duration":0.12000000000000455,"midi":40,"time":196.32,"velocity":0.3228346456692913},{"duration":0.12000000000000455,"midi":54,"time":196.32,"velocity":0.2755905511811024},{"duration":0.12000000000000455,"midi":61,"time":196.32,"velocity":0.2992125984251969},{"duration":0.12000000000000455,"midi":61,"time":196.56,"velocity":0.2204724409448819},{"duration":0.12000000000000455,"midi":54,"time":196.56,"velocity":0.2755905511811024},{"duration":0.12000000000000455,"midi":42,"time":196.56,"velocity":0.31496062992125984},{"duration":0.11999999999997613,"midi":54,"time":196.68,"velocity":0.2755905511811024},{"duration":0.11999999999997613,"midi":42,"time":196.68,"velocity":0.31496062992125984},{"duration":0.11999999999997613,"midi":61,"time":196.68,"velocity":0.2204724409448819},{"duration":0.12000000000000455,"midi":36,"time":196.79999999999998,"velocity":0.31496062992125984},{"duration":0.12000000000000455,"midi":61,"time":196.79999999999998,"velocity":0.2992125984251969},{"duration":0.12000000000000455,"midi":60,"time":196.92,"velocity":0.2992125984251969},{"duration":0.12000000000000455,"midi":42,"time":197.04,"velocity":0.31496062992125984},{"duration":0.12000000000000455,"midi":54,"time":197.04,"velocity":0.2755905511811024},{"duration":0.12000000000000455,"midi":61,"time":197.16,"velocity":0.2992125984251969},{"duration":0.12000000000000455,"midi":54,"time":197.16,"velocity":0.2755905511811024},{"duration":0.12000000000000455,"midi":42,"time":197.16,"velocity":0.31496062992125984},{"duration":0.12000000000000455,"midi":46,"time":197.28,"velocity":0.31496062992125984},{"duration":0.12000000000000455,"midi":61,"time":197.28,"velocity":0.2992125984251969},{"duration":0.12000000000000455,"midi":54,"time":197.28,"velocity":0.2755905511811024},{"duration":0.12000000000000455,"midi":40,"time":197.28,"velocity":0.3228346456692913},{"duration":0.12000000000000455,"midi":54,"time":197.51999999999998,"velocity":0.2755905511811024},{"duration":0.12000000000000455,"midi":61,"time":197.51999999999998,"velocity":0.2204724409448819},{"duration":0.12000000000000455,"midi":42,"time":197.51999999999998,"velocity":0.31496062992125984},{"duration":0.12000000000000455,"midi":61,"time":197.64,"velocity":0.2204724409448819},{"duration":0.12000000000000455,"midi":54,"time":197.64,"velocity":0.2755905511811024},{"duration":0.12000000000000455,"midi":42,"time":197.64,"velocity":0.31496062992125984},{"duration":0.12000000000000455,"midi":61,"time":197.76,"velocity":0.2992125984251969},{"duration":0.12000000000000455,"midi":36,"time":197.76,"velocity":0.31496062992125984},{"duration":0.12000000000000455,"midi":60,"time":197.88,"velocity":0.2992125984251969},{"duration":0.12000000000000455,"midi":42,"time":198,"velocity":0.31496062992125984},{"duration":0.12000000000000455,"midi":54,"time":198,"velocity":0.2755905511811024},{"duration":0.11999999999997613,"midi":54,"time":198.12,"velocity":0.2755905511811024},{"duration":0.11999999999997613,"midi":42,"time":198.12,"velocity":0.31496062992125984},{"duration":0.11999999999997613,"midi":61,"time":198.12,"velocity":0.2992125984251969},{"duration":0.12000000000000455,"midi":54,"time":198.23999999999998,"velocity":0.2755905511811024},{"duration":0.12000000000000455,"midi":46,"time":198.23999999999998,"velocity":0.31496062992125984},{"duration":0.12000000000000455,"midi":40,"time":198.23999999999998,"velocity":0.3228346456692913},{"duration":0.12000000000000455,"midi":61,"time":198.23999999999998,"velocity":0.2992125984251969},{"duration":0.12000000000000455,"midi":54,"time":198.48,"velocity":0.2755905511811024},{"duration":0.12000000000000455,"midi":61,"time":198.48,"velocity":0.2204724409448819},{"duration":0.12000000000000455,"midi":42,"time":198.48,"velocity":0.31496062992125984},{"duration":0.12000000000000455,"midi":61,"time":198.6,"velocity":0.2204724409448819},{"duration":0.12000000000000455,"midi":54,"time":198.6,"velocity":0.2755905511811024},{"duration":0.12000000000000455,"midi":42,"time":198.6,"velocity":0.31496062992125984},{"duration":0.12000000000000455,"midi":36,"time":198.72,"velocity":0.31496062992125984},{"duration":0.12000000000000455,"midi":61,"time":198.72,"velocity":0.2992125984251969},{"duration":0.11999999999997613,"midi":60,"time":198.84,"velocity":0.2992125984251969},{"duration":0.12000000000000455,"midi":54,"time":198.95999999999998,"velocity":0.2755905511811024},{"duration":0.12000000000000455,"midi":42,"time":198.95999999999998,"velocity":0.31496062992125984},{"duration":0.12000000000000455,"midi":54,"time":199.07999999999998,"velocity":0.2755905511811024},{"duration":0.12000000000000455,"midi":61,"time":199.07999999999998,"velocity":0.2992125984251969},{"duration":0.12000000000000455,"midi":42,"time":199.07999999999998,"velocity":0.31496062992125984},{"duration":0.12000000000000455,"midi":46,"time":199.2,"velocity":0.31496062992125984},{"duration":0.12000000000000455,"midi":40,"time":199.2,"velocity":0.3228346456692913},{"duration":0.12000000000000455,"midi":54,"time":199.2,"velocity":0.2755905511811024},{"duration":0.12000000000000455,"midi":61,"time":199.2,"velocity":0.2992125984251969},{"duration":0.12000000000000455,"midi":54,"time":199.44,"velocity":0.2755905511811024},{"duration":0.12000000000000455,"midi":61,"time":199.44,"velocity":0.2204724409448819},{"duration":0.12000000000000455,"midi":42,"time":199.44,"velocity":0.31496062992125984},{"duration":0.12000000000000455,"midi":54,"time":199.56,"velocity":0.2755905511811024},{"duration":0.12000000000000455,"midi":61,"time":199.56,"velocity":0.2204724409448819},{"duration":0.12000000000000455,"midi":42,"time":199.56,"velocity":0.31496062992125984},{"duration":0.11999999999997613,"midi":36,"time":199.68,"velocity":0.31496062992125984},{"duration":0.11999999999997613,"midi":61,"time":199.68,"velocity":0.2992125984251969},{"duration":0.12000000000000455,"midi":60,"time":199.79999999999998,"velocity":0.2992125984251969},{"duration":0.12000000000000455,"midi":42,"time":199.92,"velocity":0.31496062992125984},{"duration":0.12000000000000455,"midi":54,"time":199.92,"velocity":0.2755905511811024},{"duration":0.12000000000000455,"midi":61,"time":200.04,"velocity":0.2992125984251969},{"duration":0.12000000000000455,"midi":54,"time":200.04,"velocity":0.2755905511811024},{"duration":0.12000000000000455,"midi":42,"time":200.04,"velocity":0.31496062992125984},{"duration":0.12000000000000455,"midi":54,"time":200.16,"velocity":0.2755905511811024},{"duration":0.12000000000000455,"midi":46,"time":200.16,"velocity":0.31496062992125984},{"duration":0.12000000000000455,"midi":40,"time":200.16,"velocity":0.3228346456692913},{"duration":0.12000000000000455,"midi":61,"time":200.16,"velocity":0.2992125984251969},{"duration":0.11999999999997613,"midi":54,"time":200.4,"velocity":0.2755905511811024},{"duration":0.11999999999997613,"midi":42,"time":200.4,"velocity":0.31496062992125984},{"duration":0.11999999999997613,"midi":61,"time":200.4,"velocity":0.2204724409448819},{"duration":0.12000000000000455,"midi":61,"time":200.51999999999998,"velocity":0.2204724409448819},{"duration":0.12000000000000455,"midi":54,"time":200.51999999999998,"velocity":0.2755905511811024},{"duration":0.12000000000000455,"midi":42,"time":200.51999999999998,"velocity":0.31496062992125984},{"duration":0.12000000000000455,"midi":61,"time":200.64,"velocity":0.2992125984251969},{"duration":0.12000000000000455,"midi":36,"time":200.64,"velocity":0.31496062992125984},{"duration":0.12000000000000455,"midi":60,"time":200.76,"velocity":0.2992125984251969},{"duration":0.12000000000000455,"midi":42,"time":200.88,"velocity":0.31496062992125984},{"duration":0.12000000000000455,"midi":54,"time":200.88,"velocity":0.2755905511811024},{"duration":0.12000000000000455,"midi":54,"time":201,"velocity":0.2755905511811024},{"duration":0.12000000000000455,"midi":61,"time":201,"velocity":0.2992125984251969},{"duration":0.12000000000000455,"midi":42,"time":201,"velocity":0.31496062992125984},{"duration":0.11999999999997613,"midi":46,"time":201.12,"velocity":0.31496062992125984},{"duration":0.11999999999997613,"midi":40,"time":201.12,"velocity":0.3228346456692913},{"duration":0.11999999999997613,"midi":61,"time":201.12,"velocity":0.2992125984251969},{"duration":0.11999999999997613,"midi":54,"time":201.12,"velocity":0.2755905511811024},{"duration":0.12000000000000455,"midi":54,"time":201.35999999999999,"velocity":0.2755905511811024},{"duration":0.12000000000000455,"midi":61,"time":201.35999999999999,"velocity":0.2204724409448819},{"duration":0.12000000000000455,"midi":42,"time":201.35999999999999,"velocity":0.31496062992125984},{"duration":0.12000000000000455,"midi":54,"time":201.48,"velocity":0.2755905511811024},{"duration":0.12000000000000455,"midi":61,"time":201.48,"velocity":0.2204724409448819},{"duration":0.12000000000000455,"midi":42,"time":201.48,"velocity":0.31496062992125984},{"duration":0.12000000000000455,"midi":36,"time":201.6,"velocity":0.31496062992125984},{"duration":0.12000000000000455,"midi":61,"time":201.6,"velocity":0.2992125984251969},{"duration":0.12000000000000455,"midi":60,"time":201.72,"velocity":0.2992125984251969},{"duration":0.11999999999997613,"midi":42,"time":201.84,"velocity":0.31496062992125984},{"duration":0.11999999999997613,"midi":54,"time":201.84,"velocity":0.2755905511811024},{"duration":0.12000000000000455,"midi":54,"time":201.95999999999998,"velocity":0.2755905511811024},{"duration":0.12000000000000455,"midi":42,"time":201.95999999999998,"velocity":0.31496062992125984},{"duration":0.12000000000000455,"midi":61,"time":201.95999999999998,"velocity":0.2992125984251969},{"duration":0.12000000000000455,"midi":46,"time":202.07999999999998,"velocity":0.31496062992125984},{"duration":0.12000000000000455,"midi":40,"time":202.07999999999998,"velocity":0.3228346456692913},{"duration":0.12000000000000455,"midi":61,"time":202.07999999999998,"velocity":0.2992125984251969},{"duration":0.12000000000000455,"midi":54,"time":202.07999999999998,"velocity":0.2755905511811024},{"duration":0.12000000000000455,"midi":42,"time":202.32,"velocity":0.31496062992125984},{"duration":0.12000000000000455,"midi":54,"time":202.32,"velocity":0.2755905511811024},{"duration":0.12000000000000455,"midi":61,"time":202.32,"velocity":0.2204724409448819},{"duration":0.12000000000000455,"midi":54,"time":202.44,"velocity":0.2755905511811024},{"duration":0.12000000000000455,"midi":42,"time":202.44,"velocity":0.31496062992125984},{"duration":0.12000000000000455,"midi":61,"time":202.44,"velocity":0.2204724409448819},{"duration":0.11999999999997613,"midi":61,"time":202.56,"velocity":0.2992125984251969},{"duration":0.11999999999997613,"midi":36,"time":202.56,"velocity":0.31496062992125984},{"duration":0.12000000000000455,"midi":60,"time":202.67999999999998,"velocity":0.2992125984251969},{"duration":0.12000000000000455,"midi":54,"time":202.79999999999998,"velocity":0.2755905511811024},{"duration":0.12000000000000455,"midi":42,"time":202.79999999999998,"velocity":0.31496062992125984},{"duration":0.12000000000000455,"midi":54,"time":202.92,"velocity":0.2755905511811024},{"duration":0.12000000000000455,"midi":61,"time":202.92,"velocity":0.2992125984251969},{"duration":0.12000000000000455,"midi":42,"time":202.92,"velocity":0.31496062992125984},{"duration":0.12000000000000455,"midi":46,"time":203.04,"velocity":0.31496062992125984},{"duration":0.12000000000000455,"midi":54,"time":203.04,"velocity":0.2755905511811024},{"duration":0.12000000000000455,"midi":61,"time":203.04,"velocity":0.2992125984251969},{"duration":0.12000000000000455,"midi":40,"time":203.04,"velocity":0.3228346456692913},{"duration":0.12000000000000455,"midi":54,"time":203.28,"velocity":0.2755905511811024},{"duration":0.12000000000000455,"midi":61,"time":203.28,"velocity":0.2204724409448819},{"duration":0.12000000000000455,"midi":42,"time":203.28,"velocity":0.31496062992125984},{"duration":0.11999999999997613,"midi":61,"time":203.4,"velocity":0.2204724409448819},{"duration":0.11999999999997613,"midi":54,"time":203.4,"velocity":0.2755905511811024},{"duration":0.11999999999997613,"midi":42,"time":203.4,"velocity":0.31496062992125984},{"duration":0.12000000000000455,"midi":36,"time":203.51999999999998,"velocity":0.31496062992125984},{"duration":0.12000000000000455,"midi":61,"time":203.51999999999998,"velocity":0.2992125984251969},{"duration":0.12000000000000455,"midi":60,"time":203.64,"velocity":0.2992125984251969},{"duration":0.12000000000000455,"midi":42,"time":203.76,"velocity":0.31496062992125984},{"duration":0.12000000000000455,"midi":54,"time":203.76,"velocity":0.2755905511811024},{"duration":0.12000000000000455,"midi":54,"time":203.88,"velocity":0.2755905511811024},{"duration":0.12000000000000455,"midi":42,"time":203.88,"velocity":0.31496062992125984},{"duration":0.12000000000000455,"midi":61,"time":203.88,"velocity":0.2992125984251969},{"duration":0.12000000000000455,"midi":54,"time":204,"velocity":0.2755905511811024},{"duration":0.12000000000000455,"midi":46,"time":204,"velocity":0.31496062992125984},{"duration":0.12000000000000455,"midi":40,"time":204,"velocity":0.3228346456692913},{"duration":0.12000000000000455,"midi":61,"time":204,"velocity":0.2992125984251969},{"duration":0.12000000000000455,"midi":54,"time":204.23999999999998,"velocity":0.2755905511811024},{"duration":0.12000000000000455,"midi":61,"time":204.23999999999998,"velocity":0.2204724409448819},{"duration":0.12000000000000455,"midi":42,"time":204.23999999999998,"velocity":0.31496062992125984},{"duration":0.12000000000000455,"midi":61,"time":204.35999999999999,"velocity":0.2204724409448819},{"duration":0.12000000000000455,"midi":54,"time":204.35999999999999,"velocity":0.2755905511811024},{"duration":0.12000000000000455,"midi":42,"time":204.35999999999999,"velocity":0.31496062992125984},{"duration":0.12000000000000455,"midi":36,"time":204.48,"velocity":0.31496062992125984},{"duration":0.12000000000000455,"midi":61,"time":204.48,"velocity":0.2992125984251969},{"duration":0.12000000000000455,"midi":60,"time":204.6,"velocity":0.2992125984251969},{"duration":0.12000000000000455,"midi":42,"time":204.72,"velocity":0.31496062992125984},{"duration":0.12000000000000455,"midi":54,"time":204.72,"velocity":0.2755905511811024},{"duration":0.11999999999997613,"midi":61,"time":204.84,"velocity":0.2992125984251969},{"duration":0.11999999999997613,"midi":54,"time":204.84,"velocity":0.2755905511811024},{"duration":0.11999999999997613,"midi":42,"time":204.84,"velocity":0.31496062992125984},{"duration":0.12000000000000455,"midi":61,"time":204.95999999999998,"velocity":0.2992125984251969},{"duration":0.12000000000000455,"midi":54,"time":204.95999999999998,"velocity":0.2755905511811024},{"duration":0.12000000000000455,"midi":46,"time":204.95999999999998,"velocity":0.31496062992125984},{"duration":0.12000000000000455,"midi":40,"time":204.95999999999998,"velocity":0.3228346456692913},{"duration":0.12000000000000455,"midi":42,"time":205.2,"velocity":0.31496062992125984},{"duration":0.12000000000000455,"midi":54,"time":205.2,"velocity":0.2755905511811024},{"duration":0.12000000000000455,"midi":61,"time":205.2,"velocity":0.2204724409448819},{"duration":0.12000000000000455,"midi":54,"time":205.32,"velocity":0.2755905511811024},{"duration":0.12000000000000455,"midi":42,"time":205.32,"velocity":0.31496062992125984},{"duration":0.12000000000000455,"midi":61,"time":205.32,"velocity":0.2204724409448819},{"duration":0.12000000000000455,"midi":36,"time":205.44,"velocity":0.31496062992125984},{"duration":0.12000000000000455,"midi":61,"time":205.44,"velocity":0.2992125984251969},{"duration":0.11999999999997613,"midi":60,"time":205.56,"velocity":0.2992125984251969},{"duration":0.12000000000000455,"midi":54,"time":205.67999999999998,"velocity":0.2755905511811024},{"duration":0.12000000000000455,"midi":42,"time":205.67999999999998,"velocity":0.31496062992125984},{"duration":0.12000000000000455,"midi":61,"time":205.79999999999998,"velocity":0.2992125984251969},{"duration":0.12000000000000455,"midi":54,"time":205.79999999999998,"velocity":0.2755905511811024},{"duration":0.12000000000000455,"midi":42,"time":205.79999999999998,"velocity":0.31496062992125984},{"duration":0.12000000000000455,"midi":61,"time":205.92,"velocity":0.2992125984251969},{"duration":0.12000000000000455,"midi":40,"time":205.92,"velocity":0.3228346456692913},{"duration":0.12000000000000455,"midi":54,"time":205.92,"velocity":0.2755905511811024},{"duration":0.12000000000000455,"midi":46,"time":205.92,"velocity":0.31496062992125984},{"duration":0.12000000000000455,"midi":61,"time":206.16,"velocity":0.2204724409448819},{"duration":0.12000000000000455,"midi":42,"time":206.16,"velocity":0.31496062992125984},{"duration":0.12000000000000455,"midi":54,"time":206.16,"velocity":0.2755905511811024},{"duration":0.12000000000000455,"midi":54,"time":206.28,"velocity":0.2755905511811024},{"duration":0.12000000000000455,"midi":42,"time":206.28,"velocity":0.31496062992125984},{"duration":0.12000000000000455,"midi":61,"time":206.28,"velocity":0.2204724409448819},{"duration":0.11999999999997613,"midi":36,"time":206.4,"velocity":0.31496062992125984},{"duration":0.11999999999997613,"midi":61,"time":206.4,"velocity":0.2992125984251969},{"duration":0.12000000000000455,"midi":60,"time":206.51999999999998,"velocity":0.2992125984251969},{"duration":0.12000000000000455,"midi":54,"time":206.64,"velocity":0.2755905511811024},{"duration":0.12000000000000455,"midi":42,"time":206.64,"velocity":0.31496062992125984},{"duration":0.12000000000000455,"midi":54,"time":206.76,"velocity":0.2755905511811024},{"duration":0.12000000000000455,"midi":61,"time":206.76,"velocity":0.2992125984251969},{"duration":0.12000000000000455,"midi":42,"time":206.76,"velocity":0.31496062992125984},{"duration":0.12000000000000455,"midi":54,"time":206.88,"velocity":0.2755905511811024},{"duration":0.12000000000000455,"midi":61,"time":206.88,"velocity":0.2992125984251969},{"duration":0.12000000000000455,"midi":46,"time":206.88,"velocity":0.31496062992125984},{"duration":0.12000000000000455,"midi":40,"time":206.88,"velocity":0.3228346456692913},{"duration":0.11999999999997613,"midi":61,"time":207.12,"velocity":0.2204724409448819},{"duration":0.11999999999997613,"midi":54,"time":207.12,"velocity":0.2755905511811024},{"duration":0.11999999999997613,"midi":42,"time":207.12,"velocity":0.31496062992125984},{"duration":0.12000000000000455,"midi":42,"time":207.23999999999998,"velocity":0.31496062992125984},{"duration":0.12000000000000455,"midi":61,"time":207.23999999999998,"velocity":0.2204724409448819},{"duration":0.12000000000000455,"midi":54,"time":207.23999999999998,"velocity":0.2755905511811024},{"duration":0.12000000000000455,"midi":61,"time":207.35999999999999,"velocity":0.2992125984251969},{"duration":0.12000000000000455,"midi":36,"time":207.35999999999999,"velocity":0.31496062992125984},{"duration":0.12000000000000455,"midi":60,"time":207.48,"velocity":0.2992125984251969},{"duration":0.12000000000000455,"midi":54,"time":207.6,"velocity":0.2755905511811024},{"duration":0.12000000000000455,"midi":42,"time":207.6,"velocity":0.31496062992125984},{"duration":0.12000000000000455,"midi":42,"time":207.72,"velocity":0.31496062992125984},{"duration":0.12000000000000455,"midi":54,"time":207.72,"velocity":0.2755905511811024},{"duration":0.12000000000000455,"midi":61,"time":207.72,"velocity":0.2992125984251969},{"duration":0.11999999999997613,"midi":46,"time":207.84,"velocity":0.31496062992125984},{"duration":0.11999999999997613,"midi":61,"time":207.84,"velocity":0.2992125984251969},{"duration":0.11999999999997613,"midi":40,"time":207.84,"velocity":0.3228346456692913},{"duration":0.11999999999997613,"midi":54,"time":207.84,"velocity":0.2755905511811024},{"duration":0.12000000000000455,"midi":61,"time":208.07999999999998,"velocity":0.2204724409448819},{"duration":0.12000000000000455,"midi":42,"time":208.07999999999998,"velocity":0.31496062992125984},{"duration":0.12000000000000455,"midi":54,"time":208.07999999999998,"velocity":0.2755905511811024},{"duration":0.12000000000000455,"midi":54,"time":208.2,"velocity":0.2755905511811024},{"duration":0.12000000000000455,"midi":42,"time":208.2,"velocity":0.31496062992125984},{"duration":0.12000000000000455,"midi":61,"time":208.2,"velocity":0.2204724409448819},{"duration":0.12000000000000455,"midi":61,"time":208.32,"velocity":0.2992125984251969},{"duration":0.12000000000000455,"midi":36,"time":208.32,"velocity":0.31496062992125984},{"duration":0.12000000000000455,"midi":60,"time":208.44,"velocity":0.2992125984251969},{"duration":0.11999999999997613,"midi":42,"time":208.56,"velocity":0.31496062992125984},{"duration":0.11999999999997613,"midi":54,"time":208.56,"velocity":0.2755905511811024},{"duration":0.12000000000000455,"midi":61,"time":208.67999999999998,"velocity":0.2992125984251969},{"duration":0.12000000000000455,"midi":54,"time":208.67999999999998,"velocity":0.2755905511811024},{"duration":0.12000000000000455,"midi":42,"time":208.67999999999998,"velocity":0.31496062992125984},{"duration":0.12000000000000455,"midi":61,"time":208.79999999999998,"velocity":0.2992125984251969},{"duration":0.12000000000000455,"midi":40,"time":208.79999999999998,"velocity":0.3228346456692913},{"duration":0.12000000000000455,"midi":54,"time":208.79999999999998,"velocity":0.2755905511811024},{"duration":0.12000000000000455,"midi":46,"time":208.79999999999998,"velocity":0.31496062992125984},{"duration":0.12000000000000455,"midi":61,"time":209.04,"velocity":0.2204724409448819},{"duration":0.12000000000000455,"midi":54,"time":209.04,"velocity":0.2755905511811024},{"duration":0.12000000000000455,"midi":42,"time":209.04,"velocity":0.31496062992125984},{"duration":0.12000000000000455,"midi":54,"time":209.16,"velocity":0.2755905511811024},{"duration":0.12000000000000455,"midi":61,"time":209.16,"velocity":0.2204724409448819},{"duration":0.12000000000000455,"midi":42,"time":209.16,"velocity":0.31496062992125984},{"duration":0.12000000000000455,"midi":36,"time":209.28,"velocity":0.31496062992125984},{"duration":0.12000000000000455,"midi":61,"time":209.28,"velocity":0.2992125984251969},{"duration":0.11999999999997613,"midi":60,"time":209.4,"velocity":0.2992125984251969},{"duration":0.12000000000000455,"midi":42,"time":209.51999999999998,"velocity":0.31496062992125984},{"duration":0.12000000000000455,"midi":54,"time":209.51999999999998,"velocity":0.2755905511811024},{"duration":0.12000000000000455,"midi":42,"time":209.64,"velocity":0.31496062992125984},{"duration":0.12000000000000455,"midi":61,"time":209.64,"velocity":0.2992125984251969},{"duration":0.12000000000000455,"midi":54,"time":209.64,"velocity":0.2755905511811024},{"duration":0.12000000000000455,"midi":54,"time":209.76,"velocity":0.2755905511811024},{"duration":0.12000000000000455,"midi":61,"time":209.76,"velocity":0.2992125984251969},{"duration":0.12000000000000455,"midi":40,"time":209.76,"velocity":0.3228346456692913},{"duration":0.12000000000000455,"midi":46,"time":209.76,"velocity":0.31496062992125984},{"duration":0.12000000000000455,"midi":54,"time":210,"velocity":0.2755905511811024},{"duration":0.12000000000000455,"midi":42,"time":210,"velocity":0.31496062992125984},{"duration":0.12000000000000455,"midi":61,"time":210,"velocity":0.2204724409448819},{"duration":0.11999999999997613,"midi":54,"time":210.12,"velocity":0.2755905511811024},{"duration":0.11999999999997613,"midi":61,"time":210.12,"velocity":0.2204724409448819},{"duration":0.11999999999997613,"midi":42,"time":210.12,"velocity":0.31496062992125984},{"duration":0.12000000000000455,"midi":61,"time":210.23999999999998,"velocity":0.2992125984251969},{"duration":0.12000000000000455,"midi":36,"time":210.23999999999998,"velocity":0.31496062992125984},{"duration":0.12000000000000455,"midi":60,"time":210.35999999999999,"velocity":0.2992125984251969},{"duration":0.12000000000000455,"midi":42,"time":210.48,"velocity":0.31496062992125984},{"duration":0.12000000000000455,"midi":54,"time":210.48,"velocity":0.2755905511811024},{"duration":0.12000000000000455,"midi":42,"time":210.6,"velocity":0.31496062992125984},{"duration":0.12000000000000455,"midi":54,"time":210.6,"velocity":0.2755905511811024},{"duration":0.12000000000000455,"midi":61,"time":210.6,"velocity":0.2992125984251969},{"duration":0.12000000000000455,"midi":54,"time":210.72,"velocity":0.2755905511811024},{"duration":0.12000000000000455,"midi":46,"time":210.72,"velocity":0.31496062992125984},{"duration":0.12000000000000455,"midi":40,"time":210.72,"velocity":0.3228346456692913},{"duration":0.12000000000000455,"midi":61,"time":210.72,"velocity":0.2992125984251969},{"duration":0.12000000000000455,"midi":61,"time":210.95999999999998,"velocity":0.2204724409448819},{"duration":0.12000000000000455,"midi":54,"time":210.95999999999998,"velocity":0.2755905511811024},{"duration":0.12000000000000455,"midi":42,"time":210.95999999999998,"velocity":0.31496062992125984},{"duration":0.12000000000000455,"midi":61,"time":211.07999999999998,"velocity":0.2204724409448819},{"duration":0.12000000000000455,"midi":42,"time":211.07999999999998,"velocity":0.31496062992125984},{"duration":0.12000000000000455,"midi":54,"time":211.07999999999998,"velocity":0.2755905511811024},{"duration":0.12000000000000455,"midi":36,"time":211.2,"velocity":0.31496062992125984},{"duration":0.12000000000000455,"midi":61,"time":211.2,"velocity":0.2992125984251969},{"duration":0.12000000000000455,"midi":60,"time":211.32,"velocity":0.2992125984251969},{"duration":0.12000000000000455,"midi":54,"time":211.44,"velocity":0.2755905511811024},{"duration":0.12000000000000455,"midi":42,"time":211.44,"velocity":0.31496062992125984},{"duration":0.11999999999997613,"midi":61,"time":211.56,"velocity":0.2992125984251969},{"duration":0.11999999999997613,"midi":42,"time":211.56,"velocity":0.31496062992125984},{"duration":0.11999999999997613,"midi":54,"time":211.56,"velocity":0.2755905511811024},{"duration":0.12000000000000455,"midi":40,"time":211.67999999999998,"velocity":0.3228346456692913},{"duration":0.12000000000000455,"midi":54,"time":211.67999999999998,"velocity":0.2755905511811024},{"duration":0.12000000000000455,"midi":61,"time":211.67999999999998,"velocity":0.2992125984251969},{"duration":0.12000000000000455,"midi":46,"time":211.67999999999998,"velocity":0.31496062992125984},{"duration":0.12000000000000455,"midi":54,"time":211.92,"velocity":0.2755905511811024},{"duration":0.12000000000000455,"midi":61,"time":211.92,"velocity":0.2204724409448819},{"duration":0.12000000000000455,"midi":42,"time":211.92,"velocity":0.31496062992125984},{"duration":0.12000000000000455,"midi":61,"time":212.04,"velocity":0.2204724409448819},{"duration":0.12000000000000455,"midi":42,"time":212.04,"velocity":0.31496062992125984},{"duration":0.12000000000000455,"midi":54,"time":212.04,"velocity":0.2755905511811024},{"duration":0.12000000000000455,"midi":36,"time":212.16,"velocity":0.31496062992125984},{"duration":0.12000000000000455,"midi":61,"time":212.16,"velocity":0.2992125984251969},{"duration":0.12000000000000455,"midi":60,"time":212.28,"velocity":0.2992125984251969},{"duration":0.11999999999997613,"midi":42,"time":212.4,"velocity":0.31496062992125984},{"duration":0.11999999999997613,"midi":54,"time":212.4,"velocity":0.2755905511811024},{"duration":0.12000000000000455,"midi":42,"time":212.51999999999998,"velocity":0.31496062992125984},{"duration":0.12000000000000455,"midi":61,"time":212.51999999999998,"velocity":0.2992125984251969},{"duration":0.12000000000000455,"midi":54,"time":212.51999999999998,"velocity":0.2755905511811024},{"duration":0.12000000000000455,"midi":54,"time":212.64,"velocity":0.2755905511811024},{"duration":0.12000000000000455,"midi":40,"time":212.64,"velocity":0.3228346456692913},{"duration":0.12000000000000455,"midi":46,"time":212.64,"velocity":0.31496062992125984},{"duration":0.12000000000000455,"midi":61,"time":212.64,"velocity":0.2992125984251969},{"duration":0.12000000000000455,"midi":54,"time":212.88,"velocity":0.2755905511811024},{"duration":0.12000000000000455,"midi":61,"time":212.88,"velocity":0.2204724409448819},{"duration":0.12000000000000455,"midi":42,"time":212.88,"velocity":0.31496062992125984},{"duration":0.12000000000000455,"midi":61,"time":213,"velocity":0.2204724409448819},{"duration":0.12000000000000455,"midi":42,"time":213,"velocity":0.31496062992125984},{"duration":0.12000000000000455,"midi":54,"time":213,"velocity":0.2755905511811024},{"duration":0.11999999999997613,"midi":36,"time":213.12,"velocity":0.31496062992125984},{"duration":0.11999999999997613,"midi":61,"time":213.12,"velocity":0.2992125984251969},{"duration":0.12000000000000455,"midi":60,"time":213.23999999999998,"velocity":0.2992125984251969},{"duration":0.12000000000000455,"midi":42,"time":213.35999999999999,"velocity":0.31496062992125984},{"duration":0.12000000000000455,"midi":54,"time":213.35999999999999,"velocity":0.2755905511811024},{"duration":0.12000000000000455,"midi":61,"time":213.48,"velocity":0.2992125984251969},{"duration":0.12000000000000455,"midi":54,"time":213.48,"velocity":0.2755905511811024},{"duration":0.12000000000000455,"midi":42,"time":213.48,"velocity":0.31496062992125984},{"duration":0.12000000000000455,"midi":54,"time":213.6,"velocity":0.2755905511811024},{"duration":0.12000000000000455,"midi":61,"time":213.6,"velocity":0.2992125984251969},{"duration":0.12000000000000455,"midi":46,"time":213.6,"velocity":0.31496062992125984},{"duration":0.12000000000000455,"midi":40,"time":213.6,"velocity":0.3228346456692913},{"duration":0.11999999999997613,"midi":54,"time":213.84,"velocity":0.2755905511811024},{"duration":0.11999999999997613,"midi":61,"time":213.84,"velocity":0.2204724409448819},{"duration":0.11999999999997613,"midi":42,"time":213.84,"velocity":0.31496062992125984},{"duration":0.12000000000000455,"midi":54,"time":213.95999999999998,"velocity":0.2755905511811024},{"duration":0.12000000000000455,"midi":42,"time":213.95999999999998,"velocity":0.31496062992125984},{"duration":0.12000000000000455,"midi":61,"time":213.95999999999998,"velocity":0.2204724409448819},{"duration":0.12000000000000455,"midi":36,"time":214.07999999999998,"velocity":0.31496062992125984},{"duration":0.12000000000000455,"midi":61,"time":214.07999999999998,"velocity":0.2992125984251969},{"duration":0.12000000000000455,"midi":60,"time":214.2,"velocity":0.2992125984251969},{"duration":0.12000000000000455,"midi":42,"time":214.32,"velocity":0.31496062992125984},{"duration":0.12000000000000455,"midi":54,"time":214.32,"velocity":0.2755905511811024},{"duration":0.12000000000000455,"midi":42,"time":214.44,"velocity":0.31496062992125984},{"duration":0.12000000000000455,"midi":54,"time":214.44,"velocity":0.2755905511811024},{"duration":0.12000000000000455,"midi":61,"time":214.44,"velocity":0.2992125984251969},{"duration":0.11999999999997613,"midi":46,"time":214.56,"velocity":0.31496062992125984},{"duration":0.11999999999997613,"midi":54,"time":214.56,"velocity":0.2755905511811024},{"duration":0.11999999999997613,"midi":40,"time":214.56,"velocity":0.3228346456692913},{"duration":0.11999999999997613,"midi":61,"time":214.56,"velocity":0.2992125984251969},{"duration":0.12000000000000455,"midi":54,"time":214.79999999999998,"velocity":0.2755905511811024},{"duration":0.12000000000000455,"midi":42,"time":214.79999999999998,"velocity":0.31496062992125984},{"duration":0.12000000000000455,"midi":61,"time":214.79999999999998,"velocity":0.2204724409448819},{"duration":0.12000000000000455,"midi":61,"time":214.92,"velocity":0.2204724409448819},{"duration":0.12000000000000455,"midi":42,"time":214.92,"velocity":0.31496062992125984},{"duration":0.12000000000000455,"midi":54,"time":214.92,"velocity":0.2755905511811024},{"duration":0.12000000000000455,"midi":36,"time":215.04,"velocity":0.31496062992125984},{"duration":0.12000000000000455,"midi":61,"time":215.04,"velocity":0.2992125984251969},{"duration":0.12000000000000455,"midi":60,"time":215.16,"velocity":0.2992125984251969},{"duration":0.12000000000000455,"midi":42,"time":215.28,"velocity":0.31496062992125984},{"duration":0.12000000000000455,"midi":54,"time":215.28,"velocity":0.2755905511811024},{"duration":0.11999999999997613,"midi":42,"time":215.4,"velocity":0.31496062992125984},{"duration":0.11999999999997613,"midi":54,"time":215.4,"velocity":0.2755905511811024},{"duration":0.11999999999997613,"midi":61,"time":215.4,"velocity":0.2992125984251969},{"duration":0.12000000000000455,"midi":40,"time":215.51999999999998,"velocity":0.3228346456692913},{"duration":0.12000000000000455,"midi":46,"time":215.51999999999998,"velocity":0.31496062992125984},{"duration":0.12000000000000455,"midi":61,"time":215.51999999999998,"velocity":0.2992125984251969},{"duration":0.12000000000000455,"midi":54,"time":215.51999999999998,"velocity":0.2755905511811024},{"duration":0.12000000000000455,"midi":54,"time":215.76,"velocity":0.2755905511811024},{"duration":0.12000000000000455,"midi":61,"time":215.76,"velocity":0.2204724409448819},{"duration":0.12000000000000455,"midi":42,"time":215.76,"velocity":0.31496062992125984},{"duration":0.12000000000000455,"midi":54,"time":215.88,"velocity":0.2755905511811024},{"duration":0.12000000000000455,"midi":61,"time":215.88,"velocity":0.2204724409448819},{"duration":0.12000000000000455,"midi":42,"time":215.88,"velocity":0.31496062992125984},{"duration":0.12000000000000455,"midi":61,"time":216,"velocity":0.2992125984251969},{"duration":0.12000000000000455,"midi":36,"time":216,"velocity":0.31496062992125984},{"duration":0.11999999999997613,"midi":60,"time":216.12,"velocity":0.2992125984251969},{"duration":0.12000000000000455,"midi":42,"time":216.23999999999998,"velocity":0.31496062992125984},{"duration":0.12000000000000455,"midi":54,"time":216.23999999999998,"velocity":0.2755905511811024},{"duration":0.12000000000000455,"midi":61,"time":216.35999999999999,"velocity":0.2992125984251969},{"duration":0.12000000000000455,"midi":42,"time":216.35999999999999,"velocity":0.31496062992125984},{"duration":0.12000000000000455,"midi":54,"time":216.35999999999999,"velocity":0.2755905511811024},{"duration":0.12000000000000455,"midi":54,"time":216.48,"velocity":0.2755905511811024},{"duration":0.12000000000000455,"midi":40,"time":216.48,"velocity":0.3228346456692913},{"duration":0.12000000000000455,"midi":46,"time":216.48,"velocity":0.31496062992125984},{"duration":0.12000000000000455,"midi":61,"time":216.48,"velocity":0.2992125984251969},{"duration":0.12000000000000455,"midi":61,"time":216.72,"velocity":0.2204724409448819},{"duration":0.12000000000000455,"midi":54,"time":216.72,"velocity":0.2755905511811024},{"duration":0.12000000000000455,"midi":42,"time":216.72,"velocity":0.31496062992125984},{"duration":0.11999999999997613,"midi":54,"time":216.84,"velocity":0.2755905511811024},{"duration":0.11999999999997613,"midi":61,"time":216.84,"velocity":0.2204724409448819},{"duration":0.11999999999997613,"midi":42,"time":216.84,"velocity":0.31496062992125984},{"duration":0.12000000000000455,"midi":36,"time":216.95999999999998,"velocity":0.31496062992125984},{"duration":0.12000000000000455,"midi":61,"time":216.95999999999998,"velocity":0.2992125984251969},{"duration":0.12000000000000455,"midi":60,"time":217.07999999999998,"velocity":0.2992125984251969},{"duration":0.12000000000000455,"midi":42,"time":217.2,"velocity":0.31496062992125984},{"duration":0.12000000000000455,"midi":54,"time":217.2,"velocity":0.2755905511811024},{"duration":0.12000000000000455,"midi":42,"time":217.32,"velocity":0.31496062992125984},{"duration":0.12000000000000455,"midi":54,"time":217.32,"velocity":0.2755905511811024},{"duration":0.12000000000000455,"midi":61,"time":217.32,"velocity":0.2992125984251969},{"duration":0.12000000000000455,"midi":61,"time":217.44,"velocity":0.2992125984251969},{"duration":0.12000000000000455,"midi":46,"time":217.44,"velocity":0.31496062992125984},{"duration":0.12000000000000455,"midi":54,"time":217.44,"velocity":0.2755905511811024},{"duration":0.12000000000000455,"midi":40,"time":217.44,"velocity":0.3228346456692913},{"duration":0.12000000000000455,"midi":61,"time":217.67999999999998,"velocity":0.2204724409448819},{"duration":0.12000000000000455,"midi":54,"time":217.67999999999998,"velocity":0.2755905511811024},{"duration":0.12000000000000455,"midi":42,"time":217.67999999999998,"velocity":0.31496062992125984},{"duration":0.12000000000000455,"midi":61,"time":217.79999999999998,"velocity":0.2204724409448819},{"duration":0.12000000000000455,"midi":42,"time":217.79999999999998,"velocity":0.31496062992125984},{"duration":0.12000000000000455,"midi":54,"time":217.79999999999998,"velocity":0.2755905511811024},{"duration":0.12000000000000455,"midi":61,"time":217.92,"velocity":0.2992125984251969},{"duration":0.12000000000000455,"midi":36,"time":217.92,"velocity":0.31496062992125984},{"duration":0.12000000000000455,"midi":60,"time":218.04,"velocity":0.2992125984251969},{"duration":0.12000000000000455,"midi":54,"time":218.16,"velocity":0.2755905511811024},{"duration":0.12000000000000455,"midi":42,"time":218.16,"velocity":0.31496062992125984},{"duration":0.12000000000000455,"midi":42,"time":218.28,"velocity":0.31496062992125984},{"duration":0.12000000000000455,"midi":54,"time":218.28,"velocity":0.2755905511811024},{"duration":0.12000000000000455,"midi":61,"time":218.28,"velocity":0.2992125984251969},{"duration":0.11999999999997613,"midi":54,"time":218.4,"velocity":0.2755905511811024},{"duration":0.11999999999997613,"midi":40,"time":218.4,"velocity":0.3228346456692913},{"duration":0.11999999999997613,"midi":46,"time":218.4,"velocity":0.31496062992125984},{"duration":0.11999999999997613,"midi":61,"time":218.4,"velocity":0.2992125984251969},{"duration":0.12000000000000455,"midi":54,"time":218.64,"velocity":0.2755905511811024},{"duration":0.12000000000000455,"midi":42,"time":218.64,"velocity":0.31496062992125984},{"duration":0.12000000000000455,"midi":61,"time":218.64,"velocity":0.2204724409448819},{"duration":0.12000000000000455,"midi":42,"time":218.76,"velocity":0.31496062992125984},{"duration":0.12000000000000455,"midi":61,"time":218.76,"velocity":0.2204724409448819},{"duration":0.12000000000000455,"midi":54,"time":218.76,"velocity":0.2755905511811024},{"duration":0.12000000000000455,"midi":36,"time":218.88,"velocity":0.31496062992125984},{"duration":0.12000000000000455,"midi":61,"time":218.88,"velocity":0.2992125984251969},{"duration":0.12000000000000455,"midi":60,"time":219,"velocity":0.2992125984251969},{"duration":0.11999999999997613,"midi":54,"time":219.12,"velocity":0.2755905511811024},{"duration":0.11999999999997613,"midi":42,"time":219.12,"velocity":0.31496062992125984},{"duration":0.12000000000000455,"midi":42,"time":219.23999999999998,"velocity":0.31496062992125984},{"duration":0.12000000000000455,"midi":61,"time":219.23999999999998,"velocity":0.2992125984251969},{"duration":0.12000000000000455,"midi":54,"time":219.23999999999998,"velocity":0.2755905511811024},{"duration":0.12000000000000455,"midi":54,"time":219.35999999999999,"velocity":0.2755905511811024},{"duration":0.12000000000000455,"midi":61,"time":219.35999999999999,"velocity":0.2992125984251969},{"duration":0.12000000000000455,"midi":40,"time":219.35999999999999,"velocity":0.3228346456692913},{"duration":0.12000000000000455,"midi":46,"time":219.35999999999999,"velocity":0.31496062992125984},{"duration":0.12000000000000455,"midi":54,"time":219.6,"velocity":0.2755905511811024},{"duration":0.12000000000000455,"midi":61,"time":219.6,"velocity":0.2204724409448819},{"duration":0.12000000000000455,"midi":42,"time":219.6,"velocity":0.31496062992125984},{"duration":0.12000000000000455,"midi":61,"time":219.72,"velocity":0.2204724409448819},{"duration":0.12000000000000455,"midi":42,"time":219.72,"velocity":0.31496062992125984},{"duration":0.12000000000000455,"midi":54,"time":219.72,"velocity":0.2755905511811024},{"duration":0.11999999999997613,"midi":36,"time":219.84,"velocity":0.31496062992125984},{"duration":0.11999999999997613,"midi":61,"time":219.84,"velocity":0.2992125984251969},{"duration":0.12000000000000455,"midi":60,"time":219.95999999999998,"velocity":0.2992125984251969},{"duration":0.12000000000000455,"midi":42,"time":220.07999999999998,"velocity":0.31496062992125984},{"duration":0.12000000000000455,"midi":54,"time":220.07999999999998,"velocity":0.2755905511811024},{"duration":0.12000000000000455,"midi":42,"time":220.2,"velocity":0.31496062992125984},{"duration":0.12000000000000455,"midi":54,"time":220.2,"velocity":0.2755905511811024},{"duration":0.12000000000000455,"midi":61,"time":220.2,"velocity":0.2992125984251969},{"duration":0.12000000000000455,"midi":54,"time":220.32,"velocity":0.2755905511811024},{"duration":0.12000000000000455,"midi":40,"time":220.32,"velocity":0.3228346456692913},{"duration":0.12000000000000455,"midi":46,"time":220.32,"velocity":0.31496062992125984},{"duration":0.12000000000000455,"midi":61,"time":220.32,"velocity":0.2992125984251969},{"duration":0.11999999999997613,"midi":61,"time":220.56,"velocity":0.2204724409448819},{"duration":0.11999999999997613,"midi":54,"time":220.56,"velocity":0.2755905511811024},{"duration":0.11999999999997613,"midi":42,"time":220.56,"velocity":0.31496062992125984},{"duration":0.12000000000000455,"midi":42,"time":220.67999999999998,"velocity":0.31496062992125984},{"duration":0.12000000000000455,"midi":61,"time":220.67999999999998,"velocity":0.2204724409448819},{"duration":0.12000000000000455,"midi":54,"time":220.67999999999998,"velocity":0.2755905511811024},{"duration":0.12000000000000455,"midi":36,"time":220.79999999999998,"velocity":0.31496062992125984},{"duration":0.12000000000000455,"midi":61,"time":220.79999999999998,"velocity":0.2992125984251969},{"duration":0.12000000000000455,"midi":60,"time":220.92,"velocity":0.2992125984251969},{"duration":0.12000000000000455,"midi":42,"time":221.04,"velocity":0.31496062992125984},{"duration":0.12000000000000455,"midi":54,"time":221.04,"velocity":0.2755905511811024},{"duration":0.12000000000000455,"midi":61,"time":221.16,"velocity":0.2992125984251969},{"duration":0.12000000000000455,"midi":42,"time":221.16,"velocity":0.31496062992125984},{"duration":0.12000000000000455,"midi":54,"time":221.16,"velocity":0.2755905511811024},{"duration":0.12000000000000455,"midi":54,"time":221.28,"velocity":0.2755905511811024},{"duration":0.12000000000000455,"midi":46,"time":221.28,"velocity":0.31496062992125984},{"duration":0.12000000000000455,"midi":61,"time":221.28,"velocity":0.2992125984251969},{"duration":0.12000000000000455,"midi":40,"time":221.28,"velocity":0.3228346456692913},{"duration":0.12000000000000455,"midi":54,"time":221.51999999999998,"velocity":0.2755905511811024},{"duration":0.12000000000000455,"midi":42,"time":221.51999999999998,"velocity":0.31496062992125984},{"duration":0.12000000000000455,"midi":61,"time":221.51999999999998,"velocity":0.2204724409448819},{"duration":0.12000000000000455,"midi":54,"time":221.64,"velocity":0.2755905511811024},{"duration":0.12000000000000455,"midi":42,"time":221.64,"velocity":0.31496062992125984},{"duration":0.12000000000000455,"midi":61,"time":221.64,"velocity":0.2204724409448819},{"duration":0.12000000000000455,"midi":61,"time":221.76,"velocity":0.2992125984251969},{"duration":0.12000000000000455,"midi":36,"time":221.76,"velocity":0.31496062992125984},{"duration":0.12000000000000455,"midi":60,"time":221.88,"velocity":0.2992125984251969},{"duration":0.12000000000000455,"midi":54,"time":222,"velocity":0.2755905511811024},{"duration":0.12000000000000455,"midi":42,"time":222,"velocity":0.31496062992125984},{"duration":0.11999999999997613,"midi":61,"time":222.12,"velocity":0.2992125984251969},{"duration":0.11999999999997613,"midi":54,"time":222.12,"velocity":0.2755905511811024},{"duration":0.11999999999997613,"midi":42,"time":222.12,"velocity":0.31496062992125984},{"duration":0.12000000000000455,"midi":40,"time":222.23999999999998,"velocity":0.3228346456692913},{"duration":0.12000000000000455,"midi":46,"time":222.23999999999998,"velocity":0.31496062992125984},{"duration":0.12000000000000455,"midi":61,"time":222.23999999999998,"velocity":0.2992125984251969},{"duration":0.12000000000000455,"midi":54,"time":222.23999999999998,"velocity":0.2755905511811024},{"duration":0.12000000000000455,"midi":61,"time":222.48,"velocity":0.2204724409448819},{"duration":0.12000000000000455,"midi":42,"time":222.48,"velocity":0.31496062992125984},{"duration":0.12000000000000455,"midi":54,"time":222.48,"velocity":0.2755905511811024},{"duration":0.12000000000000455,"midi":54,"time":222.6,"velocity":0.2755905511811024},{"duration":0.12000000000000455,"midi":42,"time":222.6,"velocity":0.31496062992125984},{"duration":0.12000000000000455,"midi":61,"time":222.6,"velocity":0.2204724409448819},{"duration":0.12000000000000455,"midi":54,"time":222.72,"velocity":0.2755905511811024},{"duration":0.12000000000000455,"midi":61,"time":222.72,"velocity":0.2992125984251969},{"duration":0.12000000000000455,"midi":42,"time":222.72,"velocity":0.3228346456692913},{"duration":0.12000000000000455,"midi":42,"time":222.95999999999998,"velocity":0.3228346456692913},{"duration":0.12000000000000455,"midi":54,"time":222.95999999999998,"velocity":0.2755905511811024},{"duration":0.12000000000000455,"midi":54,"time":223.07999999999998,"velocity":0.2755905511811024},{"duration":0.12000000000000455,"midi":42,"time":223.07999999999998,"velocity":0.3228346456692913},{"duration":0.12000000000000455,"midi":46,"time":223.2,"velocity":0.3228346456692913},{"duration":0.12000000000000455,"midi":54,"time":223.2,"velocity":0.2755905511811024},{"duration":0.12000000000000455,"midi":37,"time":223.2,"velocity":0.3543307086614173},{"duration":0.12000000000000455,"midi":39,"time":223.2,"velocity":0.3543307086614173},{"duration":0.12000000000000455,"midi":42,"time":223.44,"velocity":0.3228346456692913},{"duration":0.12000000000000455,"midi":54,"time":223.44,"velocity":0.2755905511811024},{"duration":0.11999999999997613,"midi":42,"time":223.56,"velocity":0.3228346456692913},{"duration":0.11999999999997613,"midi":54,"time":223.56,"velocity":0.2755905511811024},{"duration":0.12000000000000455,"midi":42,"time":223.67999999999998,"velocity":0.3228346456692913},{"duration":0.12000000000000455,"midi":54,"time":223.67999999999998,"velocity":0.2755905511811024},{"duration":0.12000000000000455,"midi":54,"time":223.92,"velocity":0.2755905511811024},{"duration":0.12000000000000455,"midi":42,"time":223.92,"velocity":0.3228346456692913},{"duration":0.12000000000000455,"midi":42,"time":224.04,"velocity":0.3228346456692913},{"duration":0.12000000000000455,"midi":54,"time":224.04,"velocity":0.2755905511811024},{"duration":0.12000000000000455,"midi":54,"time":224.16,"velocity":0.2755905511811024},{"duration":0.12000000000000455,"midi":39,"time":224.16,"velocity":0.3543307086614173},{"duration":0.12000000000000455,"midi":46,"time":224.16,"velocity":0.3228346456692913},{"duration":0.12000000000000455,"midi":37,"time":224.16,"velocity":0.3543307086614173},{"duration":0.11999999999997613,"midi":54,"time":224.4,"velocity":0.2755905511811024},{"duration":0.11999999999997613,"midi":42,"time":224.4,"velocity":0.3228346456692913},{"duration":0.12000000000000455,"midi":42,"time":224.51999999999998,"velocity":0.3228346456692913},{"duration":0.12000000000000455,"midi":54,"time":224.51999999999998,"velocity":0.2755905511811024},{"duration":0.12000000000000455,"midi":42,"time":224.64,"velocity":0.3228346456692913},{"duration":0.12000000000000455,"midi":54,"time":224.64,"velocity":0.2755905511811024},{"duration":0.12000000000000455,"midi":42,"time":224.88,"velocity":0.3228346456692913},{"duration":0.12000000000000455,"midi":54,"time":224.88,"velocity":0.2755905511811024},{"duration":0.12000000000000455,"midi":42,"time":225,"velocity":0.3228346456692913},{"duration":0.12000000000000455,"midi":54,"time":225,"velocity":0.2755905511811024},{"duration":0.11999999999997613,"midi":54,"time":225.12,"velocity":0.2755905511811024},{"duration":0.11999999999997613,"midi":39,"time":225.12,"velocity":0.3543307086614173},{"duration":0.11999999999997613,"midi":37,"time":225.12,"velocity":0.3543307086614173},{"duration":0.11999999999997613,"midi":46,"time":225.12,"velocity":0.3228346456692913},{"duration":0.12000000000000455,"midi":54,"time":225.35999999999999,"velocity":0.2755905511811024},{"duration":0.12000000000000455,"midi":42,"time":225.35999999999999,"velocity":0.3228346456692913},{"duration":0.12000000000000455,"midi":54,"time":225.48,"velocity":0.2755905511811024},{"duration":0.12000000000000455,"midi":42,"time":225.48,"velocity":0.3228346456692913},{"duration":0.12000000000000455,"midi":54,"time":225.6,"velocity":0.2755905511811024},{"duration":0.12000000000000455,"midi":42,"time":225.6,"velocity":0.3228346456692913},{"duration":0.11999999999997613,"midi":42,"time":225.84,"velocity":0.3228346456692913},{"duration":0.11999999999997613,"midi":54,"time":225.84,"velocity":0.2755905511811024},{"duration":0.12000000000000455,"midi":54,"time":225.95999999999998,"velocity":0.2755905511811024},{"duration":0.12000000000000455,"midi":42,"time":225.95999999999998,"velocity":0.3228346456692913},{"duration":0.12000000000000455,"midi":37,"time":226.07999999999998,"velocity":0.3543307086614173},{"duration":0.12000000000000455,"midi":39,"time":226.07999999999998,"velocity":0.3543307086614173},{"duration":0.12000000000000455,"midi":54,"time":226.07999999999998,"velocity":0.2755905511811024},{"duration":0.12000000000000455,"midi":46,"time":226.07999999999998,"velocity":0.3228346456692913},{"duration":0.12000000000000455,"midi":42,"time":226.32,"velocity":0.3228346456692913},{"duration":0.12000000000000455,"midi":54,"time":226.32,"velocity":0.2755905511811024},{"duration":0.12000000000000455,"midi":42,"time":226.44,"velocity":0.3228346456692913},{"duration":0.12000000000000455,"midi":54,"time":226.44,"velocity":0.2755905511811024},{"duration":0.11999999999997613,"midi":54,"time":226.56,"velocity":0.2755905511811024},{"duration":0.11999999999997613,"midi":42,"time":226.56,"velocity":0.3228346456692913},{"duration":0.12000000000000455,"midi":54,"time":226.79999999999998,"velocity":0.2755905511811024},{"duration":0.12000000000000455,"midi":42,"time":226.79999999999998,"velocity":0.3228346456692913},{"duration":0.12000000000000455,"midi":54,"time":226.92,"velocity":0.2755905511811024},{"duration":0.12000000000000455,"midi":42,"time":226.92,"velocity":0.3228346456692913},{"duration":0.12000000000000455,"midi":37,"time":227.04,"velocity":0.3543307086614173},{"duration":0.12000000000000455,"midi":54,"time":227.04,"velocity":0.2755905511811024},{"duration":0.12000000000000455,"midi":46,"time":227.04,"velocity":0.3228346456692913},{"duration":0.12000000000000455,"midi":39,"time":227.04,"velocity":0.3543307086614173},{"duration":0.12000000000000455,"midi":54,"time":227.28,"velocity":0.2755905511811024},{"duration":0.12000000000000455,"midi":42,"time":227.28,"velocity":0.3228346456692913},{"duration":0.11999999999997613,"midi":42,"time":227.4,"velocity":0.3228346456692913},{"duration":0.11999999999997613,"midi":54,"time":227.4,"velocity":0.2755905511811024},{"duration":0.12000000000000455,"midi":54,"time":227.51999999999998,"velocity":0.2755905511811024},{"duration":0.12000000000000455,"midi":42,"time":227.51999999999998,"velocity":0.3228346456692913},{"duration":0.12000000000000455,"midi":42,"time":227.76,"velocity":0.3228346456692913},{"duration":0.12000000000000455,"midi":54,"time":227.76,"velocity":0.2755905511811024},{"duration":0.12000000000000455,"midi":42,"time":227.88,"velocity":0.3228346456692913},{"duration":0.12000000000000455,"midi":54,"time":227.88,"velocity":0.2755905511811024},{"duration":0.12000000000000455,"midi":46,"time":228,"velocity":0.3228346456692913},{"duration":0.12000000000000455,"midi":39,"time":228,"velocity":0.3543307086614173},{"duration":0.12000000000000455,"midi":37,"time":228,"velocity":0.3543307086614173},{"duration":0.12000000000000455,"midi":54,"time":228,"velocity":0.2755905511811024},{"duration":0.12000000000000455,"midi":42,"time":228.23999999999998,"velocity":0.3228346456692913},{"duration":0.12000000000000455,"midi":54,"time":228.23999999999998,"velocity":0.2755905511811024},{"duration":0.12000000000000455,"midi":54,"time":228.35999999999999,"velocity":0.2755905511811024},{"duration":0.12000000000000455,"midi":42,"time":228.35999999999999,"velocity":0.3228346456692913},{"duration":0.12000000000000455,"midi":54,"time":228.48,"velocity":0.2755905511811024},{"duration":0.12000000000000455,"midi":42,"time":228.48,"velocity":0.3228346456692913},{"duration":0.12000000000000455,"midi":54,"time":228.72,"velocity":0.2755905511811024},{"duration":0.12000000000000455,"midi":42,"time":228.72,"velocity":0.3228346456692913},{"duration":0.11999999999997613,"midi":54,"time":228.84,"velocity":0.2755905511811024},{"duration":0.11999999999997613,"midi":42,"time":228.84,"velocity":0.3228346456692913},{"duration":0.12000000000000455,"midi":46,"time":228.95999999999998,"velocity":0.3228346456692913},{"duration":0.12000000000000455,"midi":37,"time":228.95999999999998,"velocity":0.3543307086614173},{"duration":0.12000000000000455,"midi":54,"time":228.95999999999998,"velocity":0.2755905511811024},{"duration":0.12000000000000455,"midi":39,"time":228.95999999999998,"velocity":0.3543307086614173},{"duration":0.12000000000000455,"midi":54,"time":229.2,"velocity":0.2755905511811024},{"duration":0.12000000000000455,"midi":42,"time":229.2,"velocity":0.3228346456692913},{"duration":0.12000000000000455,"midi":42,"time":229.32,"velocity":0.3228346456692913},{"duration":0.12000000000000455,"midi":54,"time":229.32,"velocity":0.2755905511811024},{"duration":0.12000000000000455,"midi":54,"time":229.44,"velocity":0.2755905511811024},{"duration":0.12000000000000455,"midi":42,"time":229.44,"velocity":0.3228346456692913},{"duration":0.12000000000000455,"midi":54,"time":229.67999999999998,"velocity":0.2755905511811024},{"duration":0.12000000000000455,"midi":42,"time":229.67999999999998,"velocity":0.3228346456692913},{"duration":0.12000000000000455,"midi":54,"time":229.79999999999998,"velocity":0.2755905511811024},{"duration":0.12000000000000455,"midi":42,"time":229.79999999999998,"velocity":0.3228346456692913},{"duration":0.12000000000000455,"midi":46,"time":229.92,"velocity":0.3228346456692913},{"duration":0.12000000000000455,"midi":39,"time":229.92,"velocity":0.3543307086614173},{"duration":0.12000000000000455,"midi":54,"time":229.92,"velocity":0.2755905511811024},{"duration":0.12000000000000455,"midi":37,"time":229.92,"velocity":0.3543307086614173},{"duration":0.12000000000000455,"midi":54,"time":230.16,"velocity":0.2755905511811024},{"duration":0.12000000000000455,"midi":42,"time":230.16,"velocity":0.3228346456692913},{"duration":0.11999999999997613,"midi":42,"time":230.28,"velocity":0.3228346456692913},{"duration":0.11999999999997613,"midi":54,"time":230.28,"velocity":0.2755905511811024},{"duration":0.12000000000000455,"midi":54,"time":230.39999999999998,"velocity":0.2755905511811024},{"duration":0.12000000000000455,"midi":42,"time":230.39999999999998,"velocity":0.3228346456692913},{"duration":0.12000000000000455,"midi":42,"time":230.64,"velocity":0.3228346456692913},{"duration":0.12000000000000455,"midi":54,"time":230.64,"velocity":0.2755905511811024},{"duration":0.12000000000000455,"midi":42,"time":230.76,"velocity":0.3228346456692913},{"duration":0.12000000000000455,"midi":54,"time":230.76,"velocity":0.2755905511811024},{"duration":0.12000000000000455,"midi":37,"time":230.88,"velocity":0.3543307086614173},{"duration":0.12000000000000455,"midi":39,"time":230.88,"velocity":0.3543307086614173},{"duration":0.12000000000000455,"midi":54,"time":230.88,"velocity":0.2755905511811024},{"duration":0.12000000000000455,"midi":46,"time":230.88,"velocity":0.3228346456692913},{"duration":0.11999999999997613,"midi":54,"time":231.12,"velocity":0.2755905511811024},{"duration":0.11999999999997613,"midi":42,"time":231.12,"velocity":0.3228346456692913},{"duration":0.12000000000000455,"midi":42,"time":231.23999999999998,"velocity":0.3228346456692913},{"duration":0.12000000000000455,"midi":54,"time":231.23999999999998,"velocity":0.2755905511811024},{"duration":0.12000000000000455,"midi":42,"time":231.35999999999999,"velocity":0.3228346456692913},{"duration":0.12000000000000455,"midi":54,"time":231.35999999999999,"velocity":0.2755905511811024},{"duration":0.12000000000000455,"midi":42,"time":231.6,"velocity":0.3228346456692913},{"duration":0.12000000000000455,"midi":54,"time":231.6,"velocity":0.2755905511811024},{"duration":0.12000000000000455,"midi":42,"time":231.72,"velocity":0.3228346456692913},{"duration":0.12000000000000455,"midi":54,"time":231.72,"velocity":0.2755905511811024},{"duration":0.11999999999997613,"midi":39,"time":231.84,"velocity":0.3543307086614173},{"duration":0.11999999999997613,"midi":46,"time":231.84,"velocity":0.3228346456692913},{"duration":0.11999999999997613,"midi":54,"time":231.84,"velocity":0.2755905511811024},{"duration":0.11999999999997613,"midi":37,"time":231.84,"velocity":0.3543307086614173},{"duration":0.12000000000000455,"midi":42,"time":232.07999999999998,"velocity":0.3228346456692913},{"duration":0.12000000000000455,"midi":54,"time":232.07999999999998,"velocity":0.2755905511811024},{"duration":0.12000000000000455,"midi":42,"time":232.2,"velocity":0.3228346456692913},{"duration":0.12000000000000455,"midi":54,"time":232.2,"velocity":0.2755905511811024},{"duration":0.12000000000000455,"midi":42,"time":232.32,"velocity":0.3228346456692913},{"duration":0.12000000000000455,"midi":54,"time":232.32,"velocity":0.2755905511811024},{"duration":0.11999999999997613,"midi":42,"time":232.56,"velocity":0.3228346456692913},{"duration":0.11999999999997613,"midi":54,"time":232.56,"velocity":0.2755905511811024},{"duration":0.12000000000000455,"midi":42,"time":232.67999999999998,"velocity":0.3228346456692913},{"duration":0.12000000000000455,"midi":54,"time":232.67999999999998,"velocity":0.2755905511811024},{"duration":0.12000000000000455,"midi":39,"time":232.79999999999998,"velocity":0.3543307086614173},{"duration":0.12000000000000455,"midi":37,"time":232.79999999999998,"velocity":0.3543307086614173},{"duration":0.12000000000000455,"midi":46,"time":232.79999999999998,"velocity":0.3228346456692913},{"duration":0.12000000000000455,"midi":54,"time":232.79999999999998,"velocity":0.2755905511811024},{"duration":0.12000000000000455,"midi":54,"time":233.04,"velocity":0.2755905511811024},{"duration":0.12000000000000455,"midi":42,"time":233.04,"velocity":0.3228346456692913},{"duration":0.12000000000000455,"midi":54,"time":233.16,"velocity":0.2755905511811024},{"duration":0.12000000000000455,"midi":42,"time":233.16,"velocity":0.3228346456692913},{"duration":0.11999999999997613,"midi":42,"time":233.28,"velocity":0.3228346456692913},{"duration":0.11999999999997613,"midi":54,"time":233.28,"velocity":0.2755905511811024},{"duration":0.12000000000000455,"midi":42,"time":233.51999999999998,"velocity":0.3228346456692913},{"duration":0.12000000000000455,"midi":54,"time":233.51999999999998,"velocity":0.2755905511811024},{"duration":0.12000000000000455,"midi":54,"time":233.64,"velocity":0.2755905511811024},{"duration":0.12000000000000455,"midi":42,"time":233.64,"velocity":0.3228346456692913},{"duration":0.12000000000000455,"midi":37,"time":233.76,"velocity":0.3543307086614173},{"duration":0.12000000000000455,"midi":54,"time":233.76,"velocity":0.2755905511811024},{"duration":0.12000000000000455,"midi":39,"time":233.76,"velocity":0.3543307086614173},{"duration":0.12000000000000455,"midi":46,"time":233.76,"velocity":0.3228346456692913},{"duration":0.12000000000000455,"midi":54,"time":234,"velocity":0.2755905511811024},{"duration":0.12000000000000455,"midi":42,"time":234,"velocity":0.3228346456692913},{"duration":0.11999999999997613,"midi":42,"time":234.12,"velocity":0.3228346456692913},{"duration":0.11999999999997613,"midi":54,"time":234.12,"velocity":0.2755905511811024},{"duration":0.12000000000000455,"midi":54,"time":234.23999999999998,"velocity":0.2755905511811024},{"duration":0.12000000000000455,"midi":42,"time":234.23999999999998,"velocity":0.3228346456692913},{"duration":0.12000000000000455,"midi":42,"time":234.48,"velocity":0.3228346456692913},{"duration":0.12000000000000455,"midi":54,"time":234.48,"velocity":0.2755905511811024},{"duration":0.12000000000000455,"midi":54,"time":234.6,"velocity":0.2755905511811024},{"duration":0.12000000000000455,"midi":42,"time":234.6,"velocity":0.3228346456692913},{"duration":0.12000000000000455,"midi":39,"time":234.72,"velocity":0.3543307086614173},{"duration":0.12000000000000455,"midi":46,"time":234.72,"velocity":0.3228346456692913},{"duration":0.12000000000000455,"midi":37,"time":234.72,"velocity":0.3543307086614173},{"duration":0.12000000000000455,"midi":54,"time":234.72,"velocity":0.2755905511811024},{"duration":0.12000000000000455,"midi":54,"time":234.95999999999998,"velocity":0.2755905511811024},{"duration":0.12000000000000455,"midi":42,"time":234.95999999999998,"velocity":0.3228346456692913},{"duration":0.12000000000000455,"midi":42,"time":235.07999999999998,"velocity":0.3228346456692913},{"duration":0.12000000000000455,"midi":54,"time":235.07999999999998,"velocity":0.2755905511811024},{"duration":0.12000000000000455,"midi":54,"time":235.2,"velocity":0.2755905511811024},{"duration":0.12000000000000455,"midi":42,"time":235.2,"velocity":0.3228346456692913},{"duration":0.12000000000000455,"midi":42,"time":235.44,"velocity":0.3228346456692913},{"duration":0.12000000000000455,"midi":54,"time":235.44,"velocity":0.2755905511811024},{"duration":0.11999999999997613,"midi":54,"time":235.56,"velocity":0.2755905511811024},{"duration":0.11999999999997613,"midi":42,"time":235.56,"velocity":0.3228346456692913},{"duration":0.12000000000000455,"midi":54,"time":235.67999999999998,"velocity":0.2755905511811024},{"duration":0.12000000000000455,"midi":46,"time":235.67999999999998,"velocity":0.3228346456692913},{"duration":0.12000000000000455,"midi":39,"time":235.67999999999998,"velocity":0.3543307086614173},{"duration":0.12000000000000455,"midi":37,"time":235.67999999999998,"velocity":0.3543307086614173},{"duration":0.12000000000000455,"midi":42,"time":235.92,"velocity":0.3228346456692913},{"duration":0.12000000000000455,"midi":54,"time":235.92,"velocity":0.2755905511811024},{"duration":0.12000000000000455,"midi":54,"time":236.04,"velocity":0.2755905511811024},{"duration":0.12000000000000455,"midi":42,"time":236.04,"velocity":0.3228346456692913},{"duration":0.12000000000000455,"midi":54,"time":236.16,"velocity":0.2755905511811024},{"duration":0.12000000000000455,"midi":42,"time":236.16,"velocity":0.3228346456692913},{"duration":0.12000000000000455,"midi":61,"time":238.07999999999998,"velocity":0.2992125984251969},{"duration":0.12000000000000455,"midi":36,"time":238.07999999999998,"velocity":0.31496062992125984},{"duration":0.12000000000000455,"midi":60,"time":238.2,"velocity":0.2992125984251969},{"duration":0.12000000000000455,"midi":54,"time":238.32,"velocity":0.2755905511811024},{"duration":0.12000000000000455,"midi":42,"time":238.32,"velocity":0.31496062992125984},{"duration":0.12000000000000455,"midi":61,"time":238.44,"velocity":0.2992125984251969},{"duration":0.12000000000000455,"midi":42,"time":238.44,"velocity":0.31496062992125984},{"duration":0.12000000000000455,"midi":54,"time":238.44,"velocity":0.2755905511811024},{"duration":0.11999999999997613,"midi":54,"time":238.56,"velocity":0.2755905511811024},{"duration":0.11999999999997613,"midi":40,"time":238.56,"velocity":0.3228346456692913},{"duration":0.11999999999997613,"midi":61,"time":238.56,"velocity":0.2992125984251969},{"duration":0.11999999999997613,"midi":46,"time":238.56,"velocity":0.31496062992125984},{"duration":0.12000000000000455,"midi":54,"time":238.79999999999998,"velocity":0.2755905511811024},{"duration":0.12000000000000455,"midi":61,"time":238.79999999999998,"velocity":0.2204724409448819},{"duration":0.12000000000000455,"midi":42,"time":238.79999999999998,"velocity":0.31496062992125984},{"duration":0.12000000000000455,"midi":61,"time":238.92,"velocity":0.2204724409448819},{"duration":0.12000000000000455,"midi":54,"time":238.92,"velocity":0.2755905511811024},{"duration":0.12000000000000455,"midi":42,"time":238.92,"velocity":0.31496062992125984},{"duration":0.12000000000000455,"midi":61,"time":239.04,"velocity":0.2992125984251969},{"duration":0.12000000000000455,"midi":36,"time":239.04,"velocity":0.31496062992125984},{"duration":0.12000000000000455,"midi":60,"time":239.16,"velocity":0.2992125984251969},{"duration":0.11999999999997613,"midi":42,"time":239.28,"velocity":0.31496062992125984},{"duration":0.11999999999997613,"midi":54,"time":239.28,"velocity":0.2755905511811024},{"duration":0.12000000000000455,"midi":42,"time":239.39999999999998,"velocity":0.31496062992125984},{"duration":0.12000000000000455,"midi":54,"time":239.39999999999998,"velocity":0.2755905511811024},{"duration":0.12000000000000455,"midi":61,"time":239.39999999999998,"velocity":0.2992125984251969},{"duration":0.12000000000000455,"midi":61,"time":239.51999999999998,"velocity":0.2992125984251969},{"duration":0.12000000000000455,"midi":54,"time":239.51999999999998,"velocity":0.2755905511811024},{"duration":0.12000000000000455,"midi":40,"time":239.51999999999998,"velocity":0.3228346456692913},{"duration":0.12000000000000455,"midi":46,"time":239.51999999999998,"velocity":0.31496062992125984},{"duration":0.12000000000000455,"midi":42,"time":239.76,"velocity":0.31496062992125984},{"duration":0.12000000000000455,"midi":61,"time":239.76,"velocity":0.2204724409448819},{"duration":0.12000000000000455,"midi":54,"time":239.76,"velocity":0.2755905511811024},{"duration":0.12000000000000455,"midi":61,"time":239.88,"velocity":0.2204724409448819},{"duration":0.12000000000000455,"midi":42,"time":239.88,"velocity":0.31496062992125984},{"duration":0.12000000000000455,"midi":54,"time":239.88,"velocity":0.2755905511811024},{"duration":0.12000000000000455,"midi":36,"time":240,"velocity":0.31496062992125984},{"duration":0.12000000000000455,"midi":61,"time":240,"velocity":0.2992125984251969},{"duration":0.11999999999997613,"midi":60,"time":240.12,"velocity":0.2992125984251969},{"duration":0.12000000000000455,"midi":54,"time":240.23999999999998,"velocity":0.2755905511811024},{"duration":0.12000000000000455,"midi":42,"time":240.23999999999998,"velocity":0.31496062992125984},{"duration":0.12000000000000455,"midi":61,"time":240.35999999999999,"velocity":0.2992125984251969},{"duration":0.12000000000000455,"midi":54,"time":240.35999999999999,"velocity":0.2755905511811024},{"duration":0.12000000000000455,"midi":42,"time":240.35999999999999,"velocity":0.31496062992125984},{"duration":0.12000000000000455,"midi":54,"time":240.48,"velocity":0.2755905511811024},{"duration":0.12000000000000455,"midi":61,"time":240.48,"velocity":0.2992125984251969},{"duration":0.12000000000000455,"midi":40,"time":240.48,"velocity":0.3228346456692913},{"duration":0.12000000000000455,"midi":46,"time":240.48,"velocity":0.31496062992125984},{"duration":0.12000000000000455,"midi":54,"time":240.72,"velocity":0.2755905511811024},{"duration":0.12000000000000455,"midi":42,"time":240.72,"velocity":0.31496062992125984},{"duration":0.12000000000000455,"midi":61,"time":240.72,"velocity":0.2204724409448819},{"duration":0.11999999999997613,"midi":61,"time":240.84,"velocity":0.2204724409448819},{"duration":0.11999999999997613,"midi":54,"time":240.84,"velocity":0.2755905511811024},{"duration":0.11999999999997613,"midi":42,"time":240.84,"velocity":0.31496062992125984},{"duration":0.12000000000000455,"midi":36,"time":240.95999999999998,"velocity":0.31496062992125984},{"duration":0.12000000000000455,"midi":61,"time":240.95999999999998,"velocity":0.2992125984251969},{"duration":0.12000000000000455,"midi":60,"time":241.07999999999998,"velocity":0.2992125984251969},{"duration":0.12000000000000455,"midi":54,"time":241.2,"velocity":0.2755905511811024},{"duration":0.12000000000000455,"midi":42,"time":241.2,"velocity":0.31496062992125984},{"duration":0.12000000000000455,"midi":61,"time":241.32,"velocity":0.2992125984251969},{"duration":0.12000000000000455,"midi":42,"time":241.32,"velocity":0.31496062992125984},{"duration":0.12000000000000455,"midi":54,"time":241.32,"velocity":0.2755905511811024},{"duration":0.12000000000000455,"midi":40,"time":241.44,"velocity":0.3228346456692913},{"duration":0.12000000000000455,"midi":61,"time":241.44,"velocity":0.2992125984251969},{"duration":0.12000000000000455,"midi":46,"time":241.44,"velocity":0.31496062992125984},{"duration":0.12000000000000455,"midi":54,"time":241.44,"velocity":0.2755905511811024},{"duration":0.12000000000000455,"midi":61,"time":241.67999999999998,"velocity":0.2204724409448819},{"duration":0.12000000000000455,"midi":54,"time":241.67999999999998,"velocity":0.2755905511811024},{"duration":0.12000000000000455,"midi":42,"time":241.67999999999998,"velocity":0.31496062992125984},{"duration":0.12000000000000455,"midi":54,"time":241.79999999999998,"velocity":0.2755905511811024},{"duration":0.12000000000000455,"midi":42,"time":241.79999999999998,"velocity":0.31496062992125984},{"duration":0.12000000000000455,"midi":61,"time":241.79999999999998,"velocity":0.2204724409448819},{"duration":0.12000000000000455,"midi":61,"time":241.92,"velocity":0.2992125984251969},{"duration":0.12000000000000455,"midi":36,"time":241.92,"velocity":0.31496062992125984},{"duration":0.12000000000000455,"midi":60,"time":242.04,"velocity":0.2992125984251969},{"duration":0.12000000000000455,"midi":42,"time":242.16,"velocity":0.31496062992125984},{"duration":0.12000000000000455,"midi":54,"time":242.16,"velocity":0.2755905511811024},{"duration":0.11999999999997613,"midi":61,"time":242.28,"velocity":0.2992125984251969},{"duration":0.11999999999997613,"midi":42,"time":242.28,"velocity":0.31496062992125984},{"duration":0.11999999999997613,"midi":54,"time":242.28,"velocity":0.2755905511811024},{"duration":0.12000000000000455,"midi":54,"time":242.39999999999998,"velocity":0.2755905511811024},{"duration":0.12000000000000455,"midi":61,"time":242.39999999999998,"velocity":0.2992125984251969},{"duration":0.12000000000000455,"midi":40,"time":242.39999999999998,"velocity":0.3228346456692913},{"duration":0.12000000000000455,"midi":46,"time":242.39999999999998,"velocity":0.31496062992125984},{"duration":0.12000000000000455,"midi":42,"time":242.64,"velocity":0.31496062992125984},{"duration":0.12000000000000455,"midi":54,"time":242.64,"velocity":0.2755905511811024},{"duration":0.12000000000000455,"midi":61,"time":242.64,"velocity":0.2204724409448819},{"duration":0.12000000000000455,"midi":42,"time":242.76,"velocity":0.31496062992125984},{"duration":0.12000000000000455,"midi":54,"time":242.76,"velocity":0.2755905511811024},{"duration":0.12000000000000455,"midi":61,"time":242.76,"velocity":0.2204724409448819},{"duration":0.12000000000000455,"midi":36,"time":242.88,"velocity":0.31496062992125984},{"duration":0.12000000000000455,"midi":61,"time":242.88,"velocity":0.2992125984251969},{"duration":0.12000000000000455,"midi":60,"time":243,"velocity":0.2992125984251969},{"duration":0.11999999999997613,"midi":42,"time":243.12,"velocity":0.31496062992125984},{"duration":0.11999999999997613,"midi":54,"time":243.12,"velocity":0.2755905511811024},{"duration":0.12000000000000455,"midi":42,"time":243.23999999999998,"velocity":0.31496062992125984},{"duration":0.12000000000000455,"midi":54,"time":243.23999999999998,"velocity":0.2755905511811024},{"duration":0.12000000000000455,"midi":61,"time":243.23999999999998,"velocity":0.2992125984251969},{"duration":0.12000000000000455,"midi":40,"time":243.35999999999999,"velocity":0.3228346456692913},{"duration":0.12000000000000455,"midi":46,"time":243.35999999999999,"velocity":0.31496062992125984},{"duration":0.12000000000000455,"midi":54,"time":243.35999999999999,"velocity":0.2755905511811024},{"duration":0.12000000000000455,"midi":61,"time":243.35999999999999,"velocity":0.2992125984251969},{"duration":0.12000000000000455,"midi":54,"time":243.6,"velocity":0.2755905511811024},{"duration":0.12000000000000455,"midi":61,"time":243.6,"velocity":0.2204724409448819},{"duration":0.12000000000000455,"midi":42,"time":243.6,"velocity":0.31496062992125984},{"duration":0.12000000000000455,"midi":42,"time":243.72,"velocity":0.31496062992125984},{"duration":0.12000000000000455,"midi":54,"time":243.72,"velocity":0.2755905511811024},{"duration":0.12000000000000455,"midi":61,"time":243.72,"velocity":0.2204724409448819},{"duration":0.11999999999997613,"midi":61,"time":243.84,"velocity":0.2992125984251969},{"duration":0.11999999999997613,"midi":36,"time":243.84,"velocity":0.31496062992125984},{"duration":0.12000000000000455,"midi":60,"time":243.95999999999998,"velocity":0.2992125984251969},{"duration":0.12000000000000455,"midi":42,"time":244.07999999999998,"velocity":0.31496062992125984},{"duration":0.12000000000000455,"midi":54,"time":244.07999999999998,"velocity":0.2755905511811024},{"duration":0.12000000000000455,"midi":54,"time":244.2,"velocity":0.2755905511811024},{"duration":0.12000000000000455,"midi":42,"time":244.2,"velocity":0.31496062992125984},{"duration":0.12000000000000455,"midi":61,"time":244.2,"velocity":0.2992125984251969},{"duration":0.12000000000000455,"midi":46,"time":244.32,"velocity":0.31496062992125984},{"duration":0.12000000000000455,"midi":40,"time":244.32,"velocity":0.3228346456692913},{"duration":0.12000000000000455,"midi":54,"time":244.32,"velocity":0.2755905511811024},{"duration":0.12000000000000455,"midi":61,"time":244.32,"velocity":0.2992125984251969},{"duration":0.11999999999997613,"midi":61,"time":244.56,"velocity":0.2204724409448819},{"duration":0.11999999999997613,"midi":42,"time":244.56,"velocity":0.31496062992125984},{"duration":0.11999999999997613,"midi":54,"time":244.56,"velocity":0.2755905511811024},{"duration":0.12000000000000455,"midi":42,"time":244.67999999999998,"velocity":0.31496062992125984},{"duration":0.12000000000000455,"midi":61,"time":244.67999999999998,"velocity":0.2204724409448819},{"duration":0.12000000000000455,"midi":54,"time":244.67999999999998,"velocity":0.2755905511811024},{"duration":0.12000000000000455,"midi":61,"time":244.79999999999998,"velocity":0.2992125984251969},{"duration":0.12000000000000455,"midi":36,"time":244.79999999999998,"velocity":0.31496062992125984},{"duration":0.12000000000000455,"midi":60,"time":244.92,"velocity":0.2992125984251969},{"duration":0.12000000000000455,"midi":42,"time":245.04,"velocity":0.31496062992125984},{"duration":0.12000000000000455,"midi":54,"time":245.04,"velocity":0.2755905511811024},{"duration":0.12000000000000455,"midi":61,"time":245.16,"velocity":0.2992125984251969},{"duration":0.12000000000000455,"midi":54,"time":245.16,"velocity":0.2755905511811024},{"duration":0.12000000000000455,"midi":42,"time":245.16,"velocity":0.31496062992125984},{"duration":0.11999999999997613,"midi":61,"time":245.28,"velocity":0.2992125984251969},{"duration":0.11999999999997613,"midi":54,"time":245.28,"velocity":0.2755905511811024},{"duration":0.11999999999997613,"midi":46,"time":245.28,"velocity":0.31496062992125984},{"duration":0.11999999999997613,"midi":40,"time":245.28,"velocity":0.3228346456692913},{"duration":0.12000000000000455,"midi":54,"time":245.51999999999998,"velocity":0.2755905511811024},{"duration":0.12000000000000455,"midi":61,"time":245.51999999999998,"velocity":0.2204724409448819},{"duration":0.12000000000000455,"midi":42,"time":245.51999999999998,"velocity":0.31496062992125984},{"duration":0.12000000000000455,"midi":61,"time":245.64,"velocity":0.2204724409448819},{"duration":0.12000000000000455,"midi":54,"time":245.64,"velocity":0.2755905511811024},{"duration":0.12000000000000455,"midi":42,"time":245.64,"velocity":0.31496062992125984},{"duration":0.12000000000000455,"midi":61,"time":245.76,"velocity":0.2992125984251969},{"duration":0.12000000000000455,"midi":36,"time":245.76,"velocity":0.31496062992125984},{"duration":0.12000000000000455,"midi":60,"time":245.88,"velocity":0.2992125984251969},{"duration":0.12000000000000455,"midi":54,"time":246,"velocity":0.2755905511811024},{"duration":0.12000000000000455,"midi":42,"time":246,"velocity":0.31496062992125984},{"duration":0.11999999999997613,"midi":54,"time":246.12,"velocity":0.2755905511811024},{"duration":0.11999999999997613,"midi":61,"time":246.12,"velocity":0.2992125984251969},{"duration":0.11999999999997613,"midi":42,"time":246.12,"velocity":0.31496062992125984},{"duration":0.12000000000000455,"midi":61,"time":246.23999999999998,"velocity":0.2992125984251969},{"duration":0.12000000000000455,"midi":46,"time":246.23999999999998,"velocity":0.31496062992125984},{"duration":0.12000000000000455,"midi":40,"time":246.23999999999998,"velocity":0.3228346456692913},{"duration":0.12000000000000455,"midi":54,"time":246.23999999999998,"velocity":0.2755905511811024},{"duration":0.12000000000000455,"midi":54,"time":246.48,"velocity":0.2755905511811024},{"duration":0.12000000000000455,"midi":42,"time":246.48,"velocity":0.31496062992125984},{"duration":0.12000000000000455,"midi":61,"time":246.48,"velocity":0.2204724409448819},{"duration":0.12000000000000455,"midi":54,"time":246.6,"velocity":0.2755905511811024},{"duration":0.12000000000000455,"midi":42,"time":246.6,"velocity":0.31496062992125984},{"duration":0.12000000000000455,"midi":61,"time":246.6,"velocity":0.2204724409448819},{"duration":0.12000000000000455,"midi":36,"time":246.72,"velocity":0.31496062992125984},{"duration":0.12000000000000455,"midi":61,"time":246.72,"velocity":0.2992125984251969},{"duration":0.11999999999997613,"midi":60,"time":246.84,"velocity":0.2992125984251969},{"duration":0.12000000000000455,"midi":54,"time":246.95999999999998,"velocity":0.2755905511811024},{"duration":0.12000000000000455,"midi":42,"time":246.95999999999998,"velocity":0.31496062992125984},{"duration":0.12000000000000455,"midi":42,"time":247.07999999999998,"velocity":0.31496062992125984},{"duration":0.12000000000000455,"midi":54,"time":247.07999999999998,"velocity":0.2755905511811024},{"duration":0.12000000000000455,"midi":61,"time":247.07999999999998,"velocity":0.2992125984251969},{"duration":0.12000000000000455,"midi":61,"time":247.2,"velocity":0.2992125984251969},{"duration":0.12000000000000455,"midi":40,"time":247.2,"velocity":0.3228346456692913},{"duration":0.12000000000000455,"midi":46,"time":247.2,"velocity":0.31496062992125984},{"duration":0.12000000000000455,"midi":54,"time":247.2,"velocity":0.2755905511811024},{"duration":0.12000000000000455,"midi":42,"time":247.44,"velocity":0.31496062992125984},{"duration":0.12000000000000455,"midi":61,"time":247.44,"velocity":0.2204724409448819},{"duration":0.12000000000000455,"midi":54,"time":247.44,"velocity":0.2755905511811024},{"duration":0.11999999999997613,"midi":54,"time":247.56,"velocity":0.2755905511811024},{"duration":0.11999999999997613,"midi":42,"time":247.56,"velocity":0.31496062992125984},{"duration":0.11999999999997613,"midi":61,"time":247.56,"velocity":0.2204724409448819},{"duration":0.12000000000000455,"midi":61,"time":247.67999999999998,"velocity":0.2992125984251969},{"duration":0.12000000000000455,"midi":36,"time":247.67999999999998,"velocity":0.31496062992125984},{"duration":0.12000000000000455,"midi":60,"time":247.79999999999998,"velocity":0.2992125984251969},{"duration":0.12000000000000455,"midi":54,"time":247.92,"velocity":0.2755905511811024},{"duration":0.12000000000000455,"midi":42,"time":247.92,"velocity":0.31496062992125984},{"duration":0.12000000000000455,"midi":54,"time":248.04,"velocity":0.2755905511811024},{"duration":0.12000000000000455,"midi":61,"time":248.04,"velocity":0.2992125984251969},{"duration":0.12000000000000455,"midi":42,"time":248.04,"velocity":0.31496062992125984},{"duration":0.12000000000000455,"midi":61,"time":248.16,"velocity":0.2992125984251969},{"duration":0.12000000000000455,"midi":54,"time":248.16,"velocity":0.2755905511811024},{"duration":0.12000000000000455,"midi":40,"time":248.16,"velocity":0.3228346456692913},{"duration":0.12000000000000455,"midi":46,"time":248.16,"velocity":0.31496062992125984},{"duration":0.12000000000000455,"midi":61,"time":248.39999999999998,"velocity":0.2204724409448819},{"duration":0.12000000000000455,"midi":42,"time":248.39999999999998,"velocity":0.31496062992125984},{"duration":0.12000000000000455,"midi":54,"time":248.39999999999998,"velocity":0.2755905511811024},{"duration":0.12000000000000455,"midi":42,"time":248.51999999999998,"velocity":0.31496062992125984},{"duration":0.12000000000000455,"midi":54,"time":248.51999999999998,"velocity":0.2755905511811024},{"duration":0.12000000000000455,"midi":61,"time":248.51999999999998,"velocity":0.2204724409448819},{"duration":0.12000000000000455,"midi":36,"time":248.64,"velocity":0.31496062992125984},{"duration":0.12000000000000455,"midi":61,"time":248.64,"velocity":0.2992125984251969},{"duration":0.12000000000000455,"midi":60,"time":248.76,"velocity":0.2992125984251969},{"duration":0.12000000000000455,"midi":54,"time":248.88,"velocity":0.2755905511811024},{"duration":0.12000000000000455,"midi":42,"time":248.88,"velocity":0.31496062992125984},{"duration":0.12000000000000455,"midi":42,"time":249,"velocity":0.31496062992125984},{"duration":0.12000000000000455,"midi":54,"time":249,"velocity":0.2755905511811024},{"duration":0.12000000000000455,"midi":61,"time":249,"velocity":0.2992125984251969},{"duration":0.11999999999997613,"midi":46,"time":249.12,"velocity":0.31496062992125984},{"duration":0.11999999999997613,"midi":40,"time":249.12,"velocity":0.3228346456692913},{"duration":0.11999999999997613,"midi":54,"time":249.12,"velocity":0.2755905511811024},{"duration":0.11999999999997613,"midi":61,"time":249.12,"velocity":0.2992125984251969},{"duration":0.12000000000000455,"midi":54,"time":249.35999999999999,"velocity":0.2755905511811024},{"duration":0.12000000000000455,"midi":61,"time":249.35999999999999,"velocity":0.2204724409448819},{"duration":0.12000000000000455,"midi":42,"time":249.35999999999999,"velocity":0.31496062992125984},{"duration":0.12000000000000455,"midi":42,"time":249.48,"velocity":0.31496062992125984},{"duration":0.12000000000000455,"midi":54,"time":249.48,"velocity":0.2755905511811024},{"duration":0.12000000000000455,"midi":61,"time":249.48,"velocity":0.2204724409448819},{"duration":0.12000000000000455,"midi":36,"time":249.6,"velocity":0.31496062992125984},{"duration":0.12000000000000455,"midi":61,"time":249.6,"velocity":0.2992125984251969},{"duration":0.12000000000000455,"midi":60,"time":249.72,"velocity":0.2992125984251969},{"duration":0.11999999999997613,"midi":42,"time":249.84,"velocity":0.31496062992125984},{"duration":0.11999999999997613,"midi":54,"time":249.84,"velocity":0.2755905511811024},{"duration":0.12000000000000455,"midi":54,"time":249.95999999999998,"velocity":0.2755905511811024},{"duration":0.12000000000000455,"midi":61,"time":249.95999999999998,"velocity":0.2992125984251969},{"duration":0.12000000000000455,"midi":42,"time":249.95999999999998,"velocity":0.31496062992125984},{"duration":0.12000000000000455,"midi":46,"time":250.07999999999998,"velocity":0.31496062992125984},{"duration":0.12000000000000455,"midi":40,"time":250.07999999999998,"velocity":0.3228346456692913},{"duration":0.12000000000000455,"midi":61,"time":250.07999999999998,"velocity":0.2992125984251969},{"duration":0.12000000000000455,"midi":54,"time":250.07999999999998,"velocity":0.2755905511811024},{"duration":0.12000000000000455,"midi":61,"time":250.32,"velocity":0.2204724409448819},{"duration":0.12000000000000455,"midi":54,"time":250.32,"velocity":0.2755905511811024},{"duration":0.12000000000000455,"midi":42,"time":250.32,"velocity":0.31496062992125984},{"duration":0.12000000000000455,"midi":42,"time":250.44,"velocity":0.31496062992125984},{"duration":0.12000000000000455,"midi":54,"time":250.44,"velocity":0.2755905511811024},{"duration":0.12000000000000455,"midi":61,"time":250.44,"velocity":0.2204724409448819},{"duration":0.11999999999997613,"midi":36,"time":250.56,"velocity":0.31496062992125984},{"duration":0.11999999999997613,"midi":61,"time":250.56,"velocity":0.2992125984251969},{"duration":0.12000000000000455,"midi":60,"time":250.67999999999998,"velocity":0.2992125984251969},{"duration":0.12000000000000455,"midi":54,"time":250.79999999999998,"velocity":0.2755905511811024},{"duration":0.12000000000000455,"midi":42,"time":250.79999999999998,"velocity":0.31496062992125984},{"duration":0.12000000000000455,"midi":61,"time":250.92,"velocity":0.2992125984251969},{"duration":0.12000000000000455,"midi":54,"time":250.92,"velocity":0.2755905511811024},{"duration":0.12000000000000455,"midi":42,"time":250.92,"velocity":0.31496062992125984},{"duration":0.12000000000000455,"midi":46,"time":251.04,"velocity":0.31496062992125984},{"duration":0.12000000000000455,"midi":40,"time":251.04,"velocity":0.3228346456692913},{"duration":0.12000000000000455,"midi":54,"time":251.04,"velocity":0.2755905511811024},{"duration":0.12000000000000455,"midi":61,"time":251.04,"velocity":0.2992125984251969},{"duration":0.11999999999997613,"midi":61,"time":251.28,"velocity":0.2204724409448819},{"duration":0.11999999999997613,"midi":54,"time":251.28,"velocity":0.2755905511811024},{"duration":0.11999999999997613,"midi":42,"time":251.28,"velocity":0.31496062992125984},{"duration":0.12000000000000455,"midi":54,"time":251.39999999999998,"velocity":0.2755905511811024},{"duration":0.12000000000000455,"midi":42,"time":251.39999999999998,"velocity":0.31496062992125984},{"duration":0.12000000000000455,"midi":61,"time":251.39999999999998,"velocity":0.2204724409448819},{"duration":0.12000000000000455,"midi":61,"time":251.51999999999998,"velocity":0.2992125984251969},{"duration":0.12000000000000455,"midi":36,"time":251.51999999999998,"velocity":0.31496062992125984},{"duration":0.12000000000000455,"midi":60,"time":251.64,"velocity":0.2992125984251969},{"duration":0.12000000000000455,"midi":42,"time":251.76,"velocity":0.31496062992125984},{"duration":0.12000000000000455,"midi":54,"time":251.76,"velocity":0.2755905511811024},{"duration":0.12000000000000455,"midi":42,"time":251.88,"velocity":0.31496062992125984},{"duration":0.12000000000000455,"midi":61,"time":251.88,"velocity":0.2992125984251969},{"duration":0.12000000000000455,"midi":54,"time":251.88,"velocity":0.2755905511811024},{"duration":0.12000000000000455,"midi":54,"time":252,"velocity":0.2755905511811024},{"duration":0.12000000000000455,"midi":40,"time":252,"velocity":0.3228346456692913},{"duration":0.12000000000000455,"midi":46,"time":252,"velocity":0.31496062992125984},{"duration":0.12000000000000455,"midi":61,"time":252,"velocity":0.2992125984251969},{"duration":0.12000000000000455,"midi":61,"time":252.23999999999998,"velocity":0.2204724409448819},{"duration":0.12000000000000455,"midi":42,"time":252.23999999999998,"velocity":0.31496062992125984},{"duration":0.12000000000000455,"midi":54,"time":252.23999999999998,"velocity":0.2755905511811024},{"duration":0.12000000000000455,"midi":61,"time":252.35999999999999,"velocity":0.2204724409448819},{"duration":0.12000000000000455,"midi":54,"time":252.35999999999999,"velocity":0.2755905511811024},{"duration":0.12000000000000455,"midi":42,"time":252.35999999999999,"velocity":0.31496062992125984},{"duration":0.12000000000000455,"midi":61,"time":252.48,"velocity":0.2992125984251969},{"duration":0.12000000000000455,"midi":36,"time":252.48,"velocity":0.31496062992125984},{"duration":0.12000000000000455,"midi":60,"time":252.6,"velocity":0.2992125984251969},{"duration":0.12000000000000455,"midi":54,"time":252.72,"velocity":0.2755905511811024},{"duration":0.12000000000000455,"midi":42,"time":252.72,"velocity":0.31496062992125984},{"duration":0.11999999999997613,"midi":54,"time":252.84,"velocity":0.2755905511811024},{"duration":0.11999999999997613,"midi":61,"time":252.84,"velocity":0.2992125984251969},{"duration":0.11999999999997613,"midi":42,"time":252.84,"velocity":0.31496062992125984},{"duration":0.12000000000000455,"midi":54,"time":252.95999999999998,"velocity":0.2755905511811024},{"duration":0.12000000000000455,"midi":46,"time":252.95999999999998,"velocity":0.31496062992125984},{"duration":0.12000000000000455,"midi":40,"time":252.95999999999998,"velocity":0.3228346456692913},{"duration":0.12000000000000455,"midi":61,"time":252.95999999999998,"velocity":0.2992125984251969},{"duration":0.12000000000000455,"midi":42,"time":253.2,"velocity":0.31496062992125984},{"duration":0.12000000000000455,"midi":61,"time":253.2,"velocity":0.2204724409448819},{"duration":0.12000000000000455,"midi":54,"time":253.2,"velocity":0.2755905511811024},{"duration":0.12000000000000455,"midi":42,"time":253.32,"velocity":0.31496062992125984},{"duration":0.12000000000000455,"midi":54,"time":253.32,"velocity":0.2755905511811024},{"duration":0.12000000000000455,"midi":61,"time":253.32,"velocity":0.2204724409448819},{"duration":0.12000000000000455,"midi":61,"time":253.44,"velocity":0.2992125984251969},{"duration":0.12000000000000455,"midi":36,"time":253.44,"velocity":0.31496062992125984},{"duration":0.11999999999997613,"midi":60,"time":253.56,"velocity":0.2992125984251969},{"duration":0.12000000000000455,"midi":42,"time":253.67999999999998,"velocity":0.31496062992125984},{"duration":0.12000000000000455,"midi":54,"time":253.67999999999998,"velocity":0.2755905511811024},{"duration":0.12000000000000455,"midi":54,"time":253.79999999999998,"velocity":0.2755905511811024},{"duration":0.12000000000000455,"midi":61,"time":253.79999999999998,"velocity":0.2992125984251969},{"duration":0.12000000000000455,"midi":42,"time":253.79999999999998,"velocity":0.31496062992125984},{"duration":0.12000000000000455,"midi":46,"time":253.92,"velocity":0.31496062992125984},{"duration":0.12000000000000455,"midi":61,"time":253.92,"velocity":0.2992125984251969},{"duration":0.12000000000000455,"midi":40,"time":253.92,"velocity":0.3228346456692913},{"duration":0.12000000000000455,"midi":54,"time":253.92,"velocity":0.2755905511811024},{"duration":0.12000000000000455,"midi":42,"time":254.16,"velocity":0.31496062992125984},{"duration":0.12000000000000455,"midi":61,"time":254.16,"velocity":0.2204724409448819},{"duration":0.12000000000000455,"midi":54,"time":254.16,"velocity":0.2755905511811024},{"duration":0.11999999999997613,"midi":54,"time":254.28,"velocity":0.2755905511811024},{"duration":0.11999999999997613,"midi":42,"time":254.28,"velocity":0.31496062992125984},{"duration":0.11999999999997613,"midi":61,"time":254.28,"velocity":0.2204724409448819},{"duration":0.12000000000000455,"midi":61,"time":254.39999999999998,"velocity":0.2992125984251969},{"duration":0.12000000000000455,"midi":36,"time":254.39999999999998,"velocity":0.31496062992125984},{"duration":0.12000000000000455,"midi":60,"time":254.51999999999998,"velocity":0.2992125984251969},{"duration":0.12000000000000455,"midi":54,"time":254.64,"velocity":0.2755905511811024},{"duration":0.12000000000000455,"midi":42,"time":254.64,"velocity":0.31496062992125984},{"duration":0.12000000000000455,"midi":42,"time":254.76,"velocity":0.31496062992125984},{"duration":0.12000000000000455,"midi":61,"time":254.76,"velocity":0.2992125984251969},{"duration":0.12000000000000455,"midi":54,"time":254.76,"velocity":0.2755905511811024},{"duration":0.12000000000000455,"midi":54,"time":254.88,"velocity":0.2755905511811024},{"duration":0.12000000000000455,"midi":61,"time":254.88,"velocity":0.2992125984251969},{"duration":0.12000000000000455,"midi":40,"time":254.88,"velocity":0.3228346456692913},{"duration":0.12000000000000455,"midi":46,"time":254.88,"velocity":0.31496062992125984},{"duration":0.11999999999997613,"midi":61,"time":255.12,"velocity":0.2204724409448819},{"duration":0.11999999999997613,"midi":42,"time":255.12,"velocity":0.31496062992125984},{"duration":0.11999999999997613,"midi":54,"time":255.12,"velocity":0.2755905511811024},{"duration":0.12000000000000455,"midi":54,"time":255.23999999999998,"velocity":0.2755905511811024},{"duration":0.12000000000000455,"midi":61,"time":255.23999999999998,"velocity":0.2204724409448819},{"duration":0.12000000000000455,"midi":42,"time":255.23999999999998,"velocity":0.31496062992125984},{"duration":0.12000000000000455,"midi":61,"time":255.35999999999999,"velocity":0.2992125984251969},{"duration":0.12000000000000455,"midi":36,"time":255.35999999999999,"velocity":0.31496062992125984},{"duration":0.12000000000000455,"midi":60,"time":255.48,"velocity":0.2992125984251969},{"duration":0.12000000000000455,"midi":42,"time":255.6,"velocity":0.31496062992125984},{"duration":0.12000000000000455,"midi":54,"time":255.6,"velocity":0.2755905511811024},{"duration":0.12000000000000455,"midi":61,"time":255.72,"velocity":0.2992125984251969},{"duration":0.12000000000000455,"midi":42,"time":255.72,"velocity":0.31496062992125984},{"duration":0.12000000000000455,"midi":54,"time":255.72,"velocity":0.2755905511811024},{"duration":0.11999999999997613,"midi":40,"time":255.84,"velocity":0.3228346456692913},{"duration":0.11999999999997613,"midi":54,"time":255.84,"velocity":0.2755905511811024},{"duration":0.11999999999997613,"midi":46,"time":255.84,"velocity":0.31496062992125984},{"duration":0.11999999999997613,"midi":61,"time":255.84,"velocity":0.2992125984251969},{"duration":0.12000000000000455,"midi":42,"time":256.08,"velocity":0.31496062992125984},{"duration":0.12000000000000455,"midi":61,"time":256.08,"velocity":0.2204724409448819},{"duration":0.12000000000000455,"midi":54,"time":256.08,"velocity":0.2755905511811024},{"duration":0.12000000000000455,"midi":54,"time":256.2,"velocity":0.2755905511811024},{"duration":0.12000000000000455,"midi":42,"time":256.2,"velocity":0.31496062992125984},{"duration":0.12000000000000455,"midi":61,"time":256.2,"velocity":0.2204724409448819},{"duration":0.12000000000000455,"midi":36,"time":256.32,"velocity":0.31496062992125984},{"duration":0.12000000000000455,"midi":61,"time":256.32,"velocity":0.2992125984251969},{"duration":0.12000000000000455,"midi":60,"time":256.44,"velocity":0.2992125984251969},{"duration":0.12000000000000455,"midi":42,"time":256.56,"velocity":0.31496062992125984},{"duration":0.12000000000000455,"midi":54,"time":256.56,"velocity":0.2755905511811024},{"duration":0.12000000000000455,"midi":42,"time":256.68,"velocity":0.31496062992125984},{"duration":0.12000000000000455,"midi":61,"time":256.68,"velocity":0.2992125984251969},{"duration":0.12000000000000455,"midi":54,"time":256.68,"velocity":0.2755905511811024},{"duration":0.12000000000000455,"midi":61,"time":256.8,"velocity":0.2992125984251969},{"duration":0.12000000000000455,"midi":40,"time":256.8,"velocity":0.3228346456692913},{"duration":0.12000000000000455,"midi":46,"time":256.8,"velocity":0.31496062992125984},{"duration":0.12000000000000455,"midi":54,"time":256.8,"velocity":0.2755905511811024},{"duration":0.12000000000000455,"midi":42,"time":257.03999999999996,"velocity":0.31496062992125984},{"duration":0.12000000000000455,"midi":54,"time":257.03999999999996,"velocity":0.2755905511811024},{"duration":0.12000000000000455,"midi":61,"time":257.03999999999996,"velocity":0.2204724409448819},{"duration":0.12000000000000455,"midi":61,"time":257.15999999999997,"velocity":0.2204724409448819},{"duration":0.12000000000000455,"midi":42,"time":257.15999999999997,"velocity":0.31496062992125984},{"duration":0.12000000000000455,"midi":54,"time":257.15999999999997,"velocity":0.2755905511811024},{"duration":0.2400000000000091,"midi":49,"time":261.12,"velocity":0.3228346456692913},{"duration":0.12000000000000455,"midi":36,"time":261.12,"velocity":0.31496062992125984},{"duration":0.12000000000000455,"midi":61,"time":261.12,"velocity":0.2992125984251969},{"duration":0.12000000000000455,"midi":60,"time":261.24,"velocity":0.2992125984251969},{"duration":0.12000000000000455,"midi":54,"time":261.36,"velocity":0.2755905511811024},{"duration":0.12000000000000455,"midi":42,"time":261.36,"velocity":0.31496062992125984},{"duration":0.1199999999999477,"midi":42,"time":261.48,"velocity":0.31496062992125984},{"duration":0.1199999999999477,"midi":54,"time":261.48,"velocity":0.2755905511811024},{"duration":0.1199999999999477,"midi":61,"time":261.48,"velocity":0.2992125984251969},{"duration":0.12000000000000455,"midi":61,"time":261.59999999999997,"velocity":0.2992125984251969},{"duration":0.12000000000000455,"midi":46,"time":261.59999999999997,"velocity":0.31496062992125984},{"duration":0.12000000000000455,"midi":40,"time":261.59999999999997,"velocity":0.3228346456692913},{"duration":0.12000000000000455,"midi":54,"time":261.59999999999997,"velocity":0.2755905511811024},{"duration":0.12000000000000455,"midi":54,"time":261.84,"velocity":0.2755905511811024},{"duration":0.12000000000000455,"midi":61,"time":261.84,"velocity":0.2204724409448819},{"duration":0.12000000000000455,"midi":42,"time":261.84,"velocity":0.31496062992125984},{"duration":0.12000000000000455,"midi":42,"time":261.96,"velocity":0.31496062992125984},{"duration":0.12000000000000455,"midi":61,"time":261.96,"velocity":0.2204724409448819},{"duration":0.12000000000000455,"midi":54,"time":261.96,"velocity":0.2755905511811024},{"duration":0.12000000000000455,"midi":36,"time":262.08,"velocity":0.31496062992125984},{"duration":0.12000000000000455,"midi":61,"time":262.08,"velocity":0.2992125984251969},{"duration":0.12000000000000455,"midi":60,"time":262.2,"velocity":0.2992125984251969},{"duration":0.12000000000000455,"midi":54,"time":262.32,"velocity":0.2755905511811024},{"duration":0.12000000000000455,"midi":42,"time":262.32,"velocity":0.31496062992125984},{"duration":0.12000000000000455,"midi":42,"time":262.44,"velocity":0.31496062992125984},{"duration":0.12000000000000455,"midi":54,"time":262.44,"velocity":0.2755905511811024},{"duration":0.12000000000000455,"midi":61,"time":262.44,"velocity":0.2992125984251969},{"duration":0.12000000000000455,"midi":46,"time":262.56,"velocity":0.31496062992125984},{"duration":0.12000000000000455,"midi":61,"time":262.56,"velocity":0.2992125984251969},{"duration":0.12000000000000455,"midi":54,"time":262.56,"velocity":0.2755905511811024},{"duration":0.12000000000000455,"midi":40,"time":262.56,"velocity":0.3228346456692913},{"duration":0.12000000000000455,"midi":54,"time":262.8,"velocity":0.2755905511811024},{"duration":0.12000000000000455,"midi":61,"time":262.8,"velocity":0.2204724409448819},{"duration":0.12000000000000455,"midi":42,"time":262.8,"velocity":0.31496062992125984},{"duration":0.1199999999999477,"midi":61,"time":262.92,"velocity":0.2204724409448819},{"duration":0.1199999999999477,"midi":54,"time":262.92,"velocity":0.2755905511811024},{"duration":0.1199999999999477,"midi":42,"time":262.92,"velocity":0.31496062992125984},{"duration":0.12000000000000455,"midi":36,"time":263.03999999999996,"velocity":0.31496062992125984},{"duration":0.12000000000000455,"midi":61,"time":263.03999999999996,"velocity":0.2992125984251969},{"duration":0.12000000000000455,"midi":60,"time":263.15999999999997,"velocity":0.2992125984251969},{"duration":0.12000000000000455,"midi":42,"time":263.28,"velocity":0.31496062992125984},{"duration":0.12000000000000455,"midi":54,"time":263.28,"velocity":0.2755905511811024},{"duration":0.12000000000000455,"midi":42,"time":263.4,"velocity":0.31496062992125984},{"duration":0.12000000000000455,"midi":54,"time":263.4,"velocity":0.2755905511811024},{"duration":0.12000000000000455,"midi":61,"time":263.4,"velocity":0.2992125984251969},{"duration":0.12000000000000455,"midi":54,"time":263.52,"velocity":0.2755905511811024},{"duration":0.12000000000000455,"midi":46,"time":263.52,"velocity":0.31496062992125984},{"duration":0.12000000000000455,"midi":61,"time":263.52,"velocity":0.2992125984251969},{"duration":0.12000000000000455,"midi":40,"time":263.52,"velocity":0.3228346456692913},{"duration":0.12000000000000455,"midi":42,"time":263.76,"velocity":0.31496062992125984},{"duration":0.12000000000000455,"midi":54,"time":263.76,"velocity":0.2755905511811024},{"duration":0.12000000000000455,"midi":61,"time":263.76,"velocity":0.2204724409448819},{"duration":0.12000000000000455,"midi":54,"time":263.88,"velocity":0.2755905511811024},{"duration":0.12000000000000455,"midi":42,"time":263.88,"velocity":0.31496062992125984},{"duration":0.12000000000000455,"midi":61,"time":263.88,"velocity":0.2204724409448819},{"duration":0.12000000000000455,"midi":61,"time":264,"velocity":0.2992125984251969},{"duration":0.12000000000000455,"midi":36,"time":264,"velocity":0.31496062992125984},{"duration":0.12000000000000455,"midi":60,"time":264.12,"velocity":0.2992125984251969},{"duration":0.12000000000000455,"midi":54,"time":264.24,"velocity":0.2755905511811024},{"duration":0.12000000000000455,"midi":42,"time":264.24,"velocity":0.31496062992125984},{"duration":0.12000000000000455,"midi":54,"time":264.36,"velocity":0.2755905511811024},{"duration":0.12000000000000455,"midi":61,"time":264.36,"velocity":0.2992125984251969},{"duration":0.12000000000000455,"midi":42,"time":264.36,"velocity":0.31496062992125984},{"duration":0.1199999999999477,"midi":46,"time":264.48,"velocity":0.31496062992125984},{"duration":0.1199999999999477,"midi":54,"time":264.48,"velocity":0.2755905511811024},{"duration":0.1199999999999477,"midi":61,"time":264.48,"velocity":0.2992125984251969},{"duration":0.1199999999999477,"midi":40,"time":264.48,"velocity":0.3228346456692913},{"duration":0.12000000000000455,"midi":42,"time":264.71999999999997,"velocity":0.31496062992125984},{"duration":0.12000000000000455,"midi":54,"time":264.71999999999997,"velocity":0.2755905511811024},{"duration":0.12000000000000455,"midi":61,"time":264.71999999999997,"velocity":0.2204724409448819},{"duration":0.12000000000000455,"midi":54,"time":264.84,"velocity":0.2755905511811024},{"duration":0.12000000000000455,"midi":61,"time":264.84,"velocity":0.2204724409448819},{"duration":0.12000000000000455,"midi":42,"time":264.84,"velocity":0.31496062992125984},{"duration":0.12000000000000455,"midi":61,"time":264.96,"velocity":0.2992125984251969},{"duration":0.12000000000000455,"midi":36,"time":264.96,"velocity":0.31496062992125984},{"duration":0.12000000000000455,"midi":60,"time":265.08,"velocity":0.2992125984251969},{"duration":0.12000000000000455,"midi":54,"time":265.2,"velocity":0.2755905511811024},{"duration":0.12000000000000455,"midi":42,"time":265.2,"velocity":0.31496062992125984},{"duration":0.12000000000000455,"midi":61,"time":265.32,"velocity":0.2992125984251969},{"duration":0.12000000000000455,"midi":54,"time":265.32,"velocity":0.2755905511811024},{"duration":0.12000000000000455,"midi":42,"time":265.32,"velocity":0.31496062992125984},{"duration":0.12000000000000455,"midi":54,"time":265.44,"velocity":0.2755905511811024},{"duration":0.12000000000000455,"midi":46,"time":265.44,"velocity":0.31496062992125984},{"duration":0.12000000000000455,"midi":61,"time":265.44,"velocity":0.2992125984251969},{"duration":0.12000000000000455,"midi":40,"time":265.44,"velocity":0.3228346456692913},{"duration":0.12000000000000455,"midi":42,"time":265.68,"velocity":0.31496062992125984},{"duration":0.12000000000000455,"midi":54,"time":265.68,"velocity":0.2755905511811024},{"duration":0.12000000000000455,"midi":61,"time":265.68,"velocity":0.2204724409448819},{"duration":0.12000000000000455,"midi":54,"time":265.8,"velocity":0.2755905511811024},{"duration":0.12000000000000455,"midi":61,"time":265.8,"velocity":0.2204724409448819},{"duration":0.12000000000000455,"midi":42,"time":265.8,"velocity":0.31496062992125984},{"duration":0.1199999999999477,"midi":36,"time":265.92,"velocity":0.31496062992125984},{"duration":0.1199999999999477,"midi":61,"time":265.92,"velocity":0.2992125984251969},{"duration":0.12000000000000455,"midi":60,"time":266.03999999999996,"velocity":0.2992125984251969},{"duration":0.12000000000000455,"midi":54,"time":266.15999999999997,"velocity":0.2755905511811024},{"duration":0.12000000000000455,"midi":42,"time":266.15999999999997,"velocity":0.31496062992125984},{"duration":0.12000000000000455,"midi":54,"time":266.28,"velocity":0.2755905511811024},{"duration":0.12000000000000455,"midi":42,"time":266.28,"velocity":0.31496062992125984},{"duration":0.12000000000000455,"midi":61,"time":266.28,"velocity":0.2992125984251969},{"duration":0.12000000000000455,"midi":54,"time":266.4,"velocity":0.2755905511811024},{"duration":0.12000000000000455,"midi":61,"time":266.4,"velocity":0.2992125984251969},{"duration":0.12000000000000455,"midi":40,"time":266.4,"velocity":0.3228346456692913},{"duration":0.12000000000000455,"midi":46,"time":266.4,"velocity":0.31496062992125984},{"duration":0.12000000000000455,"midi":42,"time":266.64,"velocity":0.31496062992125984},{"duration":0.12000000000000455,"midi":54,"time":266.64,"velocity":0.2755905511811024},{"duration":0.12000000000000455,"midi":61,"time":266.64,"velocity":0.2204724409448819},{"duration":0.12000000000000455,"midi":61,"time":266.76,"velocity":0.2204724409448819},{"duration":0.12000000000000455,"midi":54,"time":266.76,"velocity":0.2755905511811024},{"duration":0.12000000000000455,"midi":42,"time":266.76,"velocity":0.31496062992125984},{"duration":0.12000000000000455,"midi":36,"time":266.88,"velocity":0.31496062992125984},{"duration":0.12000000000000455,"midi":61,"time":266.88,"velocity":0.2992125984251969},{"duration":0.12000000000000455,"midi":60,"time":267,"velocity":0.2992125984251969},{"duration":0.12000000000000455,"midi":54,"time":267.12,"velocity":0.2755905511811024},{"duration":0.12000000000000455,"midi":42,"time":267.12,"velocity":0.31496062992125984},{"duration":0.12000000000000455,"midi":42,"time":267.24,"velocity":0.31496062992125984},{"duration":0.12000000000000455,"midi":54,"time":267.24,"velocity":0.2755905511811024},{"duration":0.12000000000000455,"midi":61,"time":267.24,"velocity":0.2992125984251969},{"duration":0.12000000000000455,"midi":40,"time":267.36,"velocity":0.3228346456692913},{"duration":0.12000000000000455,"midi":46,"time":267.36,"velocity":0.31496062992125984},{"duration":0.12000000000000455,"midi":61,"time":267.36,"velocity":0.2992125984251969},{"duration":0.12000000000000455,"midi":54,"time":267.36,"velocity":0.2755905511811024},{"duration":0.12000000000000455,"midi":54,"time":267.59999999999997,"velocity":0.2755905511811024},{"duration":0.12000000000000455,"midi":61,"time":267.59999999999997,"velocity":0.2204724409448819},{"duration":0.12000000000000455,"midi":42,"time":267.59999999999997,"velocity":0.31496062992125984},{"duration":0.12000000000000455,"midi":61,"time":267.71999999999997,"velocity":0.2204724409448819},{"duration":0.12000000000000455,"midi":54,"time":267.71999999999997,"velocity":0.2755905511811024},{"duration":0.12000000000000455,"midi":42,"time":267.71999999999997,"velocity":0.31496062992125984},{"duration":0.12000000000000455,"midi":61,"time":267.84,"velocity":0.2992125984251969},{"duration":0.12000000000000455,"midi":36,"time":267.84,"velocity":0.31496062992125984},{"duration":0.12000000000000455,"midi":60,"time":267.96,"velocity":0.2992125984251969},{"duration":0.12000000000000455,"midi":42,"time":268.08,"velocity":0.31496062992125984},{"duration":0.12000000000000455,"midi":54,"time":268.08,"velocity":0.2755905511811024},{"duration":0.12000000000000455,"midi":61,"time":268.2,"velocity":0.2992125984251969},{"duration":0.12000000000000455,"midi":54,"time":268.2,"velocity":0.2755905511811024},{"duration":0.12000000000000455,"midi":42,"time":268.2,"velocity":0.31496062992125984},{"duration":0.12000000000000455,"midi":61,"time":268.32,"velocity":0.2992125984251969},{"duration":0.12000000000000455,"midi":46,"time":268.32,"velocity":0.31496062992125984},{"duration":0.12000000000000455,"midi":40,"time":268.32,"velocity":0.3228346456692913},{"duration":0.12000000000000455,"midi":54,"time":268.32,"velocity":0.2755905511811024},{"duration":0.12000000000000455,"midi":61,"time":268.56,"velocity":0.2204724409448819},{"duration":0.12000000000000455,"midi":42,"time":268.56,"velocity":0.31496062992125984},{"duration":0.12000000000000455,"midi":54,"time":268.56,"velocity":0.2755905511811024},{"duration":0.12000000000000455,"midi":54,"time":268.68,"velocity":0.2755905511811024},{"duration":0.12000000000000455,"midi":42,"time":268.68,"velocity":0.31496062992125984},{"duration":0.12000000000000455,"midi":61,"time":268.68,"velocity":0.2204724409448819},{"duration":0.12000000000000455,"midi":61,"time":268.8,"velocity":0.2992125984251969},{"duration":0.12000000000000455,"midi":36,"time":268.8,"velocity":0.31496062992125984},{"duration":0.1199999999999477,"midi":60,"time":268.92,"velocity":0.2992125984251969},{"duration":0.12000000000000455,"midi":54,"time":269.03999999999996,"velocity":0.2755905511811024},{"duration":0.12000000000000455,"midi":42,"time":269.03999999999996,"velocity":0.31496062992125984},{"duration":0.12000000000000455,"midi":61,"time":269.15999999999997,"velocity":0.2992125984251969},{"duration":0.12000000000000455,"midi":54,"time":269.15999999999997,"velocity":0.2755905511811024},{"duration":0.12000000000000455,"midi":42,"time":269.15999999999997,"velocity":0.31496062992125984},{"duration":0.12000000000000455,"midi":40,"time":269.28,"velocity":0.3228346456692913},{"duration":0.12000000000000455,"midi":61,"time":269.28,"velocity":0.2992125984251969},{"duration":0.12000000000000455,"midi":54,"time":269.28,"velocity":0.2755905511811024},{"duration":0.12000000000000455,"midi":46,"time":269.28,"velocity":0.31496062992125984},{"duration":0.12000000000000455,"midi":54,"time":269.52,"velocity":0.2755905511811024},{"duration":0.12000000000000455,"midi":61,"time":269.52,"velocity":0.2204724409448819},{"duration":0.12000000000000455,"midi":42,"time":269.52,"velocity":0.31496062992125984},{"duration":0.12000000000000455,"midi":54,"time":269.64,"velocity":0.2755905511811024},{"duration":0.12000000000000455,"midi":61,"time":269.64,"velocity":0.2204724409448819},{"duration":0.12000000000000455,"midi":42,"time":269.64,"velocity":0.31496062992125984},{"duration":0.12000000000000455,"midi":61,"time":269.76,"velocity":0.2992125984251969},{"duration":0.12000000000000455,"midi":36,"time":269.76,"velocity":0.31496062992125984},{"duration":0.12000000000000455,"midi":60,"time":269.88,"velocity":0.2992125984251969},{"duration":0.12000000000000455,"midi":54,"time":270,"velocity":0.2755905511811024},{"duration":0.12000000000000455,"midi":42,"time":270,"velocity":0.31496062992125984},{"duration":0.12000000000000455,"midi":54,"time":270.12,"velocity":0.2755905511811024},{"duration":0.12000000000000455,"midi":42,"time":270.12,"velocity":0.31496062992125984},{"duration":0.12000000000000455,"midi":61,"time":270.12,"velocity":0.2992125984251969},{"duration":0.12000000000000455,"midi":40,"time":270.24,"velocity":0.3228346456692913},{"duration":0.12000000000000455,"midi":61,"time":270.24,"velocity":0.2992125984251969},{"duration":0.12000000000000455,"midi":54,"time":270.24,"velocity":0.2755905511811024},{"duration":0.12000000000000455,"midi":46,"time":270.24,"velocity":0.31496062992125984},{"duration":0.1199999999999477,"midi":54,"time":270.48,"velocity":0.2755905511811024},{"duration":0.1199999999999477,"midi":61,"time":270.48,"velocity":0.2204724409448819},{"duration":0.1199999999999477,"midi":42,"time":270.48,"velocity":0.31496062992125984},{"duration":0.12000000000000455,"midi":61,"time":270.59999999999997,"velocity":0.2204724409448819},{"duration":0.12000000000000455,"midi":54,"time":270.59999999999997,"velocity":0.2755905511811024},{"duration":0.12000000000000455,"midi":42,"time":270.59999999999997,"velocity":0.31496062992125984},{"duration":0.12000000000000455,"midi":61,"time":270.71999999999997,"velocity":0.2992125984251969},{"duration":0.12000000000000455,"midi":36,"time":270.71999999999997,"velocity":0.31496062992125984},{"duration":0.12000000000000455,"midi":60,"time":270.84,"velocity":0.2992125984251969},{"duration":0.12000000000000455,"midi":54,"time":270.96,"velocity":0.2755905511811024},{"duration":0.12000000000000455,"midi":42,"time":270.96,"velocity":0.31496062992125984},{"duration":0.12000000000000455,"midi":42,"time":271.08,"velocity":0.31496062992125984},{"duration":0.12000000000000455,"midi":54,"time":271.08,"velocity":0.2755905511811024},{"duration":0.12000000000000455,"midi":61,"time":271.08,"velocity":0.2992125984251969},{"duration":0.12000000000000455,"midi":54,"time":271.2,"velocity":0.2755905511811024},{"duration":0.12000000000000455,"midi":46,"time":271.2,"velocity":0.31496062992125984},{"duration":0.12000000000000455,"midi":40,"time":271.2,"velocity":0.3228346456692913},{"duration":0.12000000000000455,"midi":61,"time":271.2,"velocity":0.2992125984251969},{"duration":0.12000000000000455,"midi":54,"time":271.44,"velocity":0.2755905511811024},{"duration":0.12000000000000455,"midi":61,"time":271.44,"velocity":0.2204724409448819},{"duration":0.12000000000000455,"midi":42,"time":271.44,"velocity":0.31496062992125984},{"duration":0.12000000000000455,"midi":42,"time":271.56,"velocity":0.31496062992125984},{"duration":0.12000000000000455,"midi":54,"time":271.56,"velocity":0.2755905511811024},{"duration":0.12000000000000455,"midi":61,"time":271.56,"velocity":0.2204724409448819},{"duration":0.12000000000000455,"midi":61,"time":271.68,"velocity":0.2992125984251969},{"duration":0.12000000000000455,"midi":36,"time":271.68,"velocity":0.31496062992125984},{"duration":0.12000000000000455,"midi":60,"time":271.8,"velocity":0.2992125984251969},{"duration":0.1199999999999477,"midi":54,"time":271.92,"velocity":0.2755905511811024},{"duration":0.1199999999999477,"midi":42,"time":271.92,"velocity":0.31496062992125984},{"duration":0.12000000000000455,"midi":54,"time":272.03999999999996,"velocity":0.2755905511811024},{"duration":0.12000000000000455,"midi":61,"time":272.03999999999996,"velocity":0.2992125984251969},{"duration":0.12000000000000455,"midi":42,"time":272.03999999999996,"velocity":0.31496062992125984},{"duration":0.12000000000000455,"midi":54,"time":272.15999999999997,"velocity":0.2755905511811024},{"duration":0.12000000000000455,"midi":46,"time":272.15999999999997,"velocity":0.31496062992125984},{"duration":0.12000000000000455,"midi":61,"time":272.15999999999997,"velocity":0.2992125984251969},{"duration":0.12000000000000455,"midi":40,"time":272.15999999999997,"velocity":0.3228346456692913},{"duration":0.12000000000000455,"midi":54,"time":272.4,"velocity":0.2755905511811024},{"duration":0.12000000000000455,"midi":61,"time":272.4,"velocity":0.2204724409448819},{"duration":0.12000000000000455,"midi":42,"time":272.4,"velocity":0.31496062992125984},{"duration":0.12000000000000455,"midi":61,"time":272.52,"velocity":0.2204724409448819},{"duration":0.12000000000000455,"midi":42,"time":272.52,"velocity":0.31496062992125984},{"duration":0.12000000000000455,"midi":54,"time":272.52,"velocity":0.2755905511811024},{"duration":0.12000000000000455,"midi":36,"time":272.64,"velocity":0.31496062992125984},{"duration":0.12000000000000455,"midi":61,"time":272.64,"velocity":0.2992125984251969},{"duration":0.12000000000000455,"midi":60,"time":272.76,"velocity":0.2992125984251969},{"duration":0.12000000000000455,"midi":54,"time":272.88,"velocity":0.2755905511811024},{"duration":0.12000000000000455,"midi":42,"time":272.88,"velocity":0.31496062992125984},{"duration":0.12000000000000455,"midi":54,"time":273,"velocity":0.2755905511811024},{"duration":0.12000000000000455,"midi":61,"time":273,"velocity":0.2992125984251969},{"duration":0.12000000000000455,"midi":42,"time":273,"velocity":0.31496062992125984},{"duration":0.12000000000000455,"midi":54,"time":273.12,"velocity":0.2755905511811024},{"duration":0.12000000000000455,"midi":40,"time":273.12,"velocity":0.3228346456692913},{"duration":0.12000000000000455,"midi":46,"time":273.12,"velocity":0.31496062992125984},{"duration":0.12000000000000455,"midi":61,"time":273.12,"velocity":0.2992125984251969},{"duration":0.12000000000000455,"midi":54,"time":273.36,"velocity":0.2755905511811024},{"duration":0.12000000000000455,"midi":61,"time":273.36,"velocity":0.2204724409448819},{"duration":0.12000000000000455,"midi":42,"time":273.36,"velocity":0.31496062992125984},{"duration":0.1199999999999477,"midi":61,"time":273.48,"velocity":0.2204724409448819},{"duration":0.1199999999999477,"midi":54,"time":273.48,"velocity":0.2755905511811024},{"duration":0.1199999999999477,"midi":42,"time":273.48,"velocity":0.31496062992125984},{"duration":0.12000000000000455,"midi":61,"time":273.59999999999997,"velocity":0.2992125984251969},{"duration":0.12000000000000455,"midi":36,"time":273.59999999999997,"velocity":0.31496062992125984},{"duration":0.12000000000000455,"midi":60,"time":273.71999999999997,"velocity":0.2992125984251969},{"duration":0.12000000000000455,"midi":54,"time":273.84,"velocity":0.2755905511811024},{"duration":0.12000000000000455,"midi":42,"time":273.84,"velocity":0.31496062992125984},{"duration":0.12000000000000455,"midi":42,"time":273.96,"velocity":0.31496062992125984},{"duration":0.12000000000000455,"midi":61,"time":273.96,"velocity":0.2992125984251969},{"duration":0.12000000000000455,"midi":54,"time":273.96,"velocity":0.2755905511811024},{"duration":0.12000000000000455,"midi":61,"time":274.08,"velocity":0.2992125984251969},{"duration":0.12000000000000455,"midi":40,"time":274.08,"velocity":0.3228346456692913},{"duration":0.12000000000000455,"midi":46,"time":274.08,"velocity":0.31496062992125984},{"duration":0.12000000000000455,"midi":54,"time":274.08,"velocity":0.2755905511811024},{"duration":0.12000000000000455,"midi":42,"time":274.32,"velocity":0.31496062992125984},{"duration":0.12000000000000455,"midi":54,"time":274.32,"velocity":0.2755905511811024},{"duration":0.12000000000000455,"midi":61,"time":274.32,"velocity":0.2204724409448819},{"duration":0.12000000000000455,"midi":54,"time":274.44,"velocity":0.2755905511811024},{"duration":0.12000000000000455,"midi":42,"time":274.44,"velocity":0.31496062992125984},{"duration":0.12000000000000455,"midi":61,"time":274.44,"velocity":0.2204724409448819},{"duration":0.12000000000000455,"midi":61,"time":274.56,"velocity":0.2992125984251969},{"duration":0.12000000000000455,"midi":36,"time":274.56,"velocity":0.31496062992125984},{"duration":0.12000000000000455,"midi":60,"time":274.68,"velocity":0.2992125984251969},{"duration":0.12000000000000455,"midi":54,"time":274.8,"velocity":0.2755905511811024},{"duration":0.12000000000000455,"midi":42,"time":274.8,"velocity":0.31496062992125984},{"duration":0.1199999999999477,"midi":42,"time":274.92,"velocity":0.31496062992125984},{"duration":0.1199999999999477,"midi":54,"time":274.92,"velocity":0.2755905511811024},{"duration":0.1199999999999477,"midi":61,"time":274.92,"velocity":0.2992125984251969},{"duration":0.12000000000000455,"midi":61,"time":275.03999999999996,"velocity":0.2992125984251969},{"duration":0.12000000000000455,"midi":40,"time":275.03999999999996,"velocity":0.3228346456692913},{"duration":0.12000000000000455,"midi":54,"time":275.03999999999996,"velocity":0.2755905511811024},{"duration":0.12000000000000455,"midi":46,"time":275.03999999999996,"velocity":0.31496062992125984},{"duration":0.12000000000000455,"midi":54,"time":275.28,"velocity":0.2755905511811024},{"duration":0.12000000000000455,"midi":61,"time":275.28,"velocity":0.2204724409448819},{"duration":0.12000000000000455,"midi":42,"time":275.28,"velocity":0.31496062992125984},{"duration":0.12000000000000455,"midi":54,"time":275.4,"velocity":0.2755905511811024},{"duration":0.12000000000000455,"midi":61,"time":275.4,"velocity":0.2204724409448819},{"duration":0.12000000000000455,"midi":42,"time":275.4,"velocity":0.31496062992125984},{"duration":0.12000000000000455,"midi":61,"time":275.52,"velocity":0.2992125984251969},{"duration":0.12000000000000455,"midi":36,"time":275.52,"velocity":0.31496062992125984},{"duration":0.12000000000000455,"midi":60,"time":275.64,"velocity":0.2992125984251969},{"duration":0.12000000000000455,"midi":54,"time":275.76,"velocity":0.2755905511811024},{"duration":0.12000000000000455,"midi":42,"time":275.76,"velocity":0.31496062992125984},{"duration":0.12000000000000455,"midi":61,"time":275.88,"velocity":0.2992125984251969},{"duration":0.12000000000000455,"midi":42,"time":275.88,"velocity":0.31496062992125984},{"duration":0.12000000000000455,"midi":54,"time":275.88,"velocity":0.2755905511811024},{"duration":0.12000000000000455,"midi":61,"time":276,"velocity":0.2992125984251969},{"duration":0.12000000000000455,"midi":54,"time":276,"velocity":0.2755905511811024},{"duration":0.12000000000000455,"midi":40,"time":276,"velocity":0.3228346456692913},{"duration":0.12000000000000455,"midi":46,"time":276,"velocity":0.31496062992125984},{"duration":0.12000000000000455,"midi":54,"time":276.24,"velocity":0.2755905511811024},{"duration":0.12000000000000455,"midi":61,"time":276.24,"velocity":0.2204724409448819},{"duration":0.12000000000000455,"midi":42,"time":276.24,"velocity":0.31496062992125984},{"duration":0.12000000000000455,"midi":61,"time":276.36,"velocity":0.2204724409448819},{"duration":0.12000000000000455,"midi":42,"time":276.36,"velocity":0.31496062992125984},{"duration":0.12000000000000455,"midi":54,"time":276.36,"velocity":0.2755905511811024},{"duration":0.1199999999999477,"midi":61,"time":276.48,"velocity":0.2992125984251969},{"duration":0.1199999999999477,"midi":36,"time":276.48,"velocity":0.31496062992125984},{"duration":0.12000000000000455,"midi":60,"time":276.59999999999997,"velocity":0.2992125984251969},{"duration":0.12000000000000455,"midi":54,"time":276.71999999999997,"velocity":0.2755905511811024},{"duration":0.12000000000000455,"midi":42,"time":276.71999999999997,"velocity":0.31496062992125984},{"duration":0.12000000000000455,"midi":54,"time":276.84,"velocity":0.2755905511811024},{"duration":0.12000000000000455,"midi":61,"time":276.84,"velocity":0.2992125984251969},{"duration":0.12000000000000455,"midi":42,"time":276.84,"velocity":0.31496062992125984},{"duration":0.12000000000000455,"midi":40,"time":276.96,"velocity":0.3228346456692913},{"duration":0.12000000000000455,"midi":46,"time":276.96,"velocity":0.31496062992125984},{"duration":0.12000000000000455,"midi":61,"time":276.96,"velocity":0.2992125984251969},{"duration":0.12000000000000455,"midi":54,"time":276.96,"velocity":0.2755905511811024},{"duration":0.12000000000000455,"midi":54,"time":277.2,"velocity":0.2755905511811024},{"duration":0.12000000000000455,"midi":61,"time":277.2,"velocity":0.2204724409448819},{"duration":0.12000000000000455,"midi":42,"time":277.2,"velocity":0.31496062992125984},{"duration":0.12000000000000455,"midi":61,"time":277.32,"velocity":0.2204724409448819},{"duration":0.12000000000000455,"midi":54,"time":277.32,"velocity":0.2755905511811024},{"duration":0.12000000000000455,"midi":42,"time":277.32,"velocity":0.31496062992125984},{"duration":0.12000000000000455,"midi":61,"time":277.44,"velocity":0.2992125984251969},{"duration":0.12000000000000455,"midi":36,"time":277.44,"velocity":0.31496062992125984},{"duration":0.12000000000000455,"midi":60,"time":277.56,"velocity":0.2992125984251969},{"duration":0.12000000000000455,"midi":42,"time":277.68,"velocity":0.31496062992125984},{"duration":0.12000000000000455,"midi":54,"time":277.68,"velocity":0.2755905511811024},{"duration":0.12000000000000455,"midi":54,"time":277.8,"velocity":0.2755905511811024},{"duration":0.12000000000000455,"midi":61,"time":277.8,"velocity":0.2992125984251969},{"duration":0.12000000000000455,"midi":42,"time":277.8,"velocity":0.31496062992125984},{"duration":0.1199999999999477,"midi":61,"time":277.92,"velocity":0.2992125984251969},{"duration":0.1199999999999477,"midi":46,"time":277.92,"velocity":0.31496062992125984},{"duration":0.1199999999999477,"midi":40,"time":277.92,"velocity":0.3228346456692913},{"duration":0.1199999999999477,"midi":54,"time":277.92,"velocity":0.2755905511811024},{"duration":0.12000000000000455,"midi":42,"time":278.15999999999997,"velocity":0.31496062992125984},{"duration":0.12000000000000455,"midi":61,"time":278.15999999999997,"velocity":0.2204724409448819},{"duration":0.12000000000000455,"midi":54,"time":278.15999999999997,"velocity":0.2755905511811024},{"duration":0.12000000000000455,"midi":54,"time":278.28,"velocity":0.2755905511811024},{"duration":0.12000000000000455,"midi":61,"time":278.28,"velocity":0.2204724409448819},{"duration":0.12000000000000455,"midi":42,"time":278.28,"velocity":0.31496062992125984},{"duration":0.12000000000000455,"midi":61,"time":278.4,"velocity":0.2992125984251969},{"duration":0.12000000000000455,"midi":36,"time":278.4,"velocity":0.31496062992125984},{"duration":0.12000000000000455,"midi":60,"time":278.52,"velocity":0.2992125984251969},{"duration":0.12000000000000455,"midi":54,"time":278.64,"velocity":0.2755905511811024},{"duration":0.12000000000000455,"midi":42,"time":278.64,"velocity":0.31496062992125984},{"duration":0.12000000000000455,"midi":42,"time":278.76,"velocity":0.31496062992125984},{"duration":0.12000000000000455,"midi":54,"time":278.76,"velocity":0.2755905511811024},{"duration":0.12000000000000455,"midi":61,"time":278.76,"velocity":0.2992125984251969},{"duration":0.12000000000000455,"midi":54,"time":278.88,"velocity":0.2755905511811024},{"duration":0.12000000000000455,"midi":61,"time":278.88,"velocity":0.2992125984251969},{"duration":0.12000000000000455,"midi":46,"time":278.88,"velocity":0.31496062992125984},{"duration":0.12000000000000455,"midi":40,"time":278.88,"velocity":0.3228346456692913},{"duration":0.12000000000000455,"midi":42,"time":279.12,"velocity":0.31496062992125984},{"duration":0.12000000000000455,"midi":61,"time":279.12,"velocity":0.2204724409448819},{"duration":0.12000000000000455,"midi":54,"time":279.12,"velocity":0.2755905511811024},{"duration":0.12000000000000455,"midi":61,"time":279.24,"velocity":0.2204724409448819},{"duration":0.12000000000000455,"midi":54,"time":279.24,"velocity":0.2755905511811024},{"duration":0.12000000000000455,"midi":42,"time":279.24,"velocity":0.31496062992125984},{"duration":0.1199999999999477,"midi":61,"time":279.36,"velocity":0.2992125984251969},{"duration":0.1199999999999477,"midi":36,"time":279.36,"velocity":0.31496062992125984},{"duration":0.12000000000000455,"midi":60,"time":279.47999999999996,"velocity":0.2992125984251969},{"duration":0.12000000000000455,"midi":42,"time":279.59999999999997,"velocity":0.31496062992125984},{"duration":0.12000000000000455,"midi":54,"time":279.59999999999997,"velocity":0.2755905511811024},{"duration":0.12000000000000455,"midi":42,"time":279.71999999999997,"velocity":0.31496062992125984},{"duration":0.12000000000000455,"midi":61,"time":279.71999999999997,"velocity":0.2992125984251969},{"duration":0.12000000000000455,"midi":54,"time":279.71999999999997,"velocity":0.2755905511811024},{"duration":0.12000000000000455,"midi":40,"time":279.84,"velocity":0.3228346456692913},{"duration":0.12000000000000455,"midi":61,"time":279.84,"velocity":0.2992125984251969},{"duration":0.12000000000000455,"midi":54,"time":279.84,"velocity":0.2755905511811024},{"duration":0.12000000000000455,"midi":46,"time":279.84,"velocity":0.31496062992125984},{"duration":0.12000000000000455,"midi":42,"time":280.08,"velocity":0.31496062992125984},{"duration":0.12000000000000455,"midi":61,"time":280.08,"velocity":0.2204724409448819},{"duration":0.12000000000000455,"midi":54,"time":280.08,"velocity":0.2755905511811024},{"duration":0.12000000000000455,"midi":54,"time":280.2,"velocity":0.2755905511811024},{"duration":0.12000000000000455,"midi":61,"time":280.2,"velocity":0.2204724409448819},{"duration":0.12000000000000455,"midi":42,"time":280.2,"velocity":0.31496062992125984},{"duration":0.12000000000000455,"midi":61,"time":280.32,"velocity":0.2992125984251969},{"duration":0.12000000000000455,"midi":36,"time":280.32,"velocity":0.31496062992125984},{"duration":0.12000000000000455,"midi":60,"time":280.44,"velocity":0.2992125984251969},{"duration":0.12000000000000455,"midi":54,"time":280.56,"velocity":0.2755905511811024},{"duration":0.12000000000000455,"midi":42,"time":280.56,"velocity":0.31496062992125984},{"duration":0.12000000000000455,"midi":61,"time":280.68,"velocity":0.2992125984251969},{"duration":0.12000000000000455,"midi":42,"time":280.68,"velocity":0.31496062992125984},{"duration":0.12000000000000455,"midi":54,"time":280.68,"velocity":0.2755905511811024},{"duration":0.12000000000000455,"midi":46,"time":280.8,"velocity":0.31496062992125984},{"duration":0.12000000000000455,"midi":40,"time":280.8,"velocity":0.3228346456692913},{"duration":0.12000000000000455,"midi":61,"time":280.8,"velocity":0.2992125984251969},{"duration":0.12000000000000455,"midi":54,"time":280.8,"velocity":0.2755905511811024},{"duration":0.12000000000000455,"midi":42,"time":281.03999999999996,"velocity":0.31496062992125984},{"duration":0.12000000000000455,"midi":61,"time":281.03999999999996,"velocity":0.2204724409448819},{"duration":0.12000000000000455,"midi":54,"time":281.03999999999996,"velocity":0.2755905511811024},{"duration":0.12000000000000455,"midi":61,"time":281.15999999999997,"velocity":0.2204724409448819},{"duration":0.12000000000000455,"midi":54,"time":281.15999999999997,"velocity":0.2755905511811024},{"duration":0.12000000000000455,"midi":42,"time":281.15999999999997,"velocity":0.31496062992125984},{"duration":0.12000000000000455,"midi":61,"time":281.28,"velocity":0.2992125984251969},{"duration":0.12000000000000455,"midi":36,"time":281.28,"velocity":0.31496062992125984},{"duration":0.12000000000000455,"midi":60,"time":281.4,"velocity":0.2992125984251969},{"duration":0.12000000000000455,"midi":42,"time":281.52,"velocity":0.31496062992125984},{"duration":0.12000000000000455,"midi":54,"time":281.52,"velocity":0.2755905511811024},{"duration":0.12000000000000455,"midi":42,"time":281.64,"velocity":0.31496062992125984},{"duration":0.12000000000000455,"midi":54,"time":281.64,"velocity":0.2755905511811024},{"duration":0.12000000000000455,"midi":61,"time":281.64,"velocity":0.2992125984251969},{"duration":0.12000000000000455,"midi":40,"time":281.76,"velocity":0.3228346456692913},{"duration":0.12000000000000455,"midi":54,"time":281.76,"velocity":0.2755905511811024},{"duration":0.12000000000000455,"midi":46,"time":281.76,"velocity":0.31496062992125984},{"duration":0.12000000000000455,"midi":61,"time":281.76,"velocity":0.2992125984251969},{"duration":0.12000000000000455,"midi":61,"time":282,"velocity":0.2204724409448819},{"duration":0.12000000000000455,"midi":42,"time":282,"velocity":0.31496062992125984},{"duration":0.12000000000000455,"midi":54,"time":282,"velocity":0.2755905511811024},{"duration":0.12000000000000455,"midi":42,"time":282.12,"velocity":0.31496062992125984},{"duration":0.12000000000000455,"midi":54,"time":282.12,"velocity":0.2755905511811024},{"duration":0.12000000000000455,"midi":61,"time":282.12,"velocity":0.2204724409448819},{"duration":0.12000000000000455,"midi":61,"time":282.24,"velocity":0.2992125984251969},{"duration":0.12000000000000455,"midi":36,"time":282.24,"velocity":0.31496062992125984},{"duration":0.1199999999999477,"midi":60,"time":282.36,"velocity":0.2992125984251969},{"duration":0.12000000000000455,"midi":42,"time":282.47999999999996,"velocity":0.31496062992125984},{"duration":0.12000000000000455,"midi":54,"time":282.47999999999996,"velocity":0.2755905511811024},{"duration":0.12000000000000455,"midi":42,"time":282.59999999999997,"velocity":0.31496062992125984},{"duration":0.12000000000000455,"midi":61,"time":282.59999999999997,"velocity":0.2992125984251969},{"duration":0.12000000000000455,"midi":54,"time":282.59999999999997,"velocity":0.2755905511811024},{"duration":0.12000000000000455,"midi":61,"time":282.71999999999997,"velocity":0.2992125984251969},{"duration":0.12000000000000455,"midi":54,"time":282.71999999999997,"velocity":0.2755905511811024},{"duration":0.12000000000000455,"midi":46,"time":282.71999999999997,"velocity":0.31496062992125984},{"duration":0.12000000000000455,"midi":40,"time":282.71999999999997,"velocity":0.3228346456692913},{"duration":0.12000000000000455,"midi":42,"time":282.96,"velocity":0.31496062992125984},{"duration":0.12000000000000455,"midi":61,"time":282.96,"velocity":0.2204724409448819},{"duration":0.12000000000000455,"midi":54,"time":282.96,"velocity":0.2755905511811024},{"duration":0.12000000000000455,"midi":54,"time":283.08,"velocity":0.2755905511811024},{"duration":0.12000000000000455,"midi":61,"time":283.08,"velocity":0.2204724409448819},{"duration":0.12000000000000455,"midi":42,"time":283.08,"velocity":0.31496062992125984},{"duration":0.12000000000000455,"midi":61,"time":283.2,"velocity":0.2992125984251969},{"duration":0.12000000000000455,"midi":36,"time":283.2,"velocity":0.31496062992125984},{"duration":0.12000000000000455,"midi":60,"time":283.32,"velocity":0.2992125984251969},{"duration":0.12000000000000455,"midi":54,"time":283.44,"velocity":0.2755905511811024},{"duration":0.12000000000000455,"midi":42,"time":283.44,"velocity":0.31496062992125984},{"duration":0.12000000000000455,"midi":54,"time":283.56,"velocity":0.2755905511811024},{"duration":0.12000000000000455,"midi":42,"time":283.56,"velocity":0.31496062992125984},{"duration":0.12000000000000455,"midi":61,"time":283.56,"velocity":0.2992125984251969},{"duration":0.12000000000000455,"midi":54,"time":283.68,"velocity":0.2755905511811024},{"duration":0.12000000000000455,"midi":61,"time":283.68,"velocity":0.2992125984251969},{"duration":0.12000000000000455,"midi":40,"time":283.68,"velocity":0.3228346456692913},{"duration":0.12000000000000455,"midi":46,"time":283.68,"velocity":0.31496062992125984},{"duration":0.1199999999999477,"midi":42,"time":283.92,"velocity":0.31496062992125984},{"duration":0.1199999999999477,"midi":61,"time":283.92,"velocity":0.2204724409448819},{"duration":0.1199999999999477,"midi":54,"time":283.92,"velocity":0.2755905511811024},{"duration":0.12000000000000455,"midi":54,"time":284.03999999999996,"velocity":0.2755905511811024},{"duration":0.12000000000000455,"midi":61,"time":284.03999999999996,"velocity":0.2204724409448819},{"duration":0.12000000000000455,"midi":42,"time":284.03999999999996,"velocity":0.31496062992125984},{"duration":0.12000000000000455,"midi":61,"time":284.15999999999997,"velocity":0.2992125984251969},{"duration":0.12000000000000455,"midi":36,"time":284.15999999999997,"velocity":0.31496062992125984},{"duration":0.12000000000000455,"midi":60,"time":284.28,"velocity":0.2992125984251969},{"duration":0.12000000000000455,"midi":42,"time":284.4,"velocity":0.31496062992125984},{"duration":0.12000000000000455,"midi":54,"time":284.4,"velocity":0.2755905511811024},{"duration":0.12000000000000455,"midi":54,"time":284.52,"velocity":0.2755905511811024},{"duration":0.12000000000000455,"midi":61,"time":284.52,"velocity":0.2992125984251969},{"duration":0.12000000000000455,"midi":42,"time":284.52,"velocity":0.31496062992125984},{"duration":0.12000000000000455,"midi":46,"time":284.64,"velocity":0.31496062992125984},{"duration":0.12000000000000455,"midi":40,"time":284.64,"velocity":0.3228346456692913},{"duration":0.12000000000000455,"midi":54,"time":284.64,"velocity":0.2755905511811024},{"duration":0.12000000000000455,"midi":61,"time":284.64,"velocity":0.2992125984251969},{"duration":0.12000000000000455,"midi":42,"time":284.88,"velocity":0.31496062992125984},{"duration":0.12000000000000455,"midi":61,"time":284.88,"velocity":0.2204724409448819},{"duration":0.12000000000000455,"midi":54,"time":284.88,"velocity":0.2755905511811024},{"duration":0.12000000000000455,"midi":61,"time":285,"velocity":0.2204724409448819},{"duration":0.12000000000000455,"midi":54,"time":285,"velocity":0.2755905511811024},{"duration":0.12000000000000455,"midi":42,"time":285,"velocity":0.31496062992125984},{"duration":0.12000000000000455,"midi":61,"time":285.12,"velocity":0.2992125984251969},{"duration":0.12000000000000455,"midi":36,"time":285.12,"velocity":0.31496062992125984},{"duration":0.12000000000000455,"midi":60,"time":285.24,"velocity":0.2992125984251969},{"duration":0.1199999999999477,"midi":42,"time":285.36,"velocity":0.31496062992125984},{"duration":0.1199999999999477,"midi":54,"time":285.36,"velocity":0.2755905511811024},{"duration":0.12000000000000455,"midi":42,"time":285.47999999999996,"velocity":0.31496062992125984},{"duration":0.12000000000000455,"midi":54,"time":285.47999999999996,"velocity":0.2755905511811024},{"duration":0.12000000000000455,"midi":61,"time":285.47999999999996,"velocity":0.2992125984251969},{"duration":0.12000000000000455,"midi":40,"time":285.59999999999997,"velocity":0.3228346456692913},{"duration":0.12000000000000455,"midi":54,"time":285.59999999999997,"velocity":0.2755905511811024},{"duration":0.12000000000000455,"midi":61,"time":285.59999999999997,"velocity":0.2992125984251969},{"duration":0.12000000000000455,"midi":46,"time":285.59999999999997,"velocity":0.31496062992125984},{"duration":0.12000000000000455,"midi":42,"time":285.84,"velocity":0.31496062992125984},{"duration":0.12000000000000455,"midi":61,"time":285.84,"velocity":0.2204724409448819},{"duration":0.12000000000000455,"midi":54,"time":285.84,"velocity":0.2755905511811024},{"duration":0.12000000000000455,"midi":54,"time":285.96,"velocity":0.2755905511811024},{"duration":0.12000000000000455,"midi":61,"time":285.96,"velocity":0.2204724409448819},{"duration":0.12000000000000455,"midi":42,"time":285.96,"velocity":0.31496062992125984},{"duration":0.12000000000000455,"midi":61,"time":286.08,"velocity":0.2992125984251969},{"duration":0.12000000000000455,"midi":36,"time":286.08,"velocity":0.31496062992125984},{"duration":0.12000000000000455,"midi":60,"time":286.2,"velocity":0.2992125984251969},{"duration":0.12000000000000455,"midi":54,"time":286.32,"velocity":0.2755905511811024},{"duration":0.12000000000000455,"midi":42,"time":286.32,"velocity":0.31496062992125984},{"duration":0.12000000000000455,"midi":54,"time":286.44,"velocity":0.2755905511811024},{"duration":0.12000000000000455,"midi":42,"time":286.44,"velocity":0.31496062992125984},{"duration":0.12000000000000455,"midi":61,"time":286.44,"velocity":0.2992125984251969},{"duration":0.12000000000000455,"midi":46,"time":286.56,"velocity":0.31496062992125984},{"duration":0.12000000000000455,"midi":61,"time":286.56,"velocity":0.2992125984251969},{"duration":0.12000000000000455,"midi":54,"time":286.56,"velocity":0.2755905511811024},{"duration":0.12000000000000455,"midi":40,"time":286.56,"velocity":0.3228346456692913},{"duration":0.12000000000000455,"midi":42,"time":286.8,"velocity":0.31496062992125984},{"duration":0.12000000000000455,"midi":61,"time":286.8,"velocity":0.2204724409448819},{"duration":0.12000000000000455,"midi":54,"time":286.8,"velocity":0.2755905511811024},{"duration":0.1199999999999477,"midi":54,"time":286.92,"velocity":0.2755905511811024},{"duration":0.1199999999999477,"midi":42,"time":286.92,"velocity":0.31496062992125984},{"duration":0.1199999999999477,"midi":61,"time":286.92,"velocity":0.2204724409448819},{"duration":0.12000000000000455,"midi":61,"time":287.03999999999996,"velocity":0.2992125984251969},{"duration":0.12000000000000455,"midi":36,"time":287.03999999999996,"velocity":0.31496062992125984},{"duration":0.12000000000000455,"midi":60,"time":287.15999999999997,"velocity":0.2992125984251969},{"duration":0.12000000000000455,"midi":54,"time":287.28,"velocity":0.2755905511811024},{"duration":0.12000000000000455,"midi":42,"time":287.28,"velocity":0.31496062992125984},{"duration":0.12000000000000455,"midi":54,"time":287.4,"velocity":0.2755905511811024},{"duration":0.12000000000000455,"midi":42,"time":287.4,"velocity":0.31496062992125984},{"duration":0.12000000000000455,"midi":61,"time":287.4,"velocity":0.2992125984251969},{"duration":0.12000000000000455,"midi":46,"time":287.52,"velocity":0.31496062992125984},{"duration":0.12000000000000455,"midi":40,"time":287.52,"velocity":0.3228346456692913},{"duration":0.12000000000000455,"midi":54,"time":287.52,"velocity":0.2755905511811024},{"duration":0.12000000000000455,"midi":61,"time":287.52,"velocity":0.2992125984251969},{"duration":0.12000000000000455,"midi":61,"time":287.76,"velocity":0.2204724409448819},{"duration":0.12000000000000455,"midi":42,"time":287.76,"velocity":0.31496062992125984},{"duration":0.12000000000000455,"midi":54,"time":287.76,"velocity":0.2755905511811024},{"duration":0.12000000000000455,"midi":42,"time":287.88,"velocity":0.31496062992125984},{"duration":0.12000000000000455,"midi":61,"time":287.88,"velocity":0.2204724409448819},{"duration":0.12000000000000455,"midi":54,"time":287.88,"velocity":0.2755905511811024},{"duration":0.12000000000000455,"midi":61,"time":288,"velocity":0.2992125984251969},{"duration":0.12000000000000455,"midi":36,"time":288,"velocity":0.31496062992125984},{"duration":0.12000000000000455,"midi":60,"time":288.12,"velocity":0.2992125984251969},{"duration":0.12000000000000455,"midi":42,"time":288.24,"velocity":0.31496062992125984},{"duration":0.12000000000000455,"midi":54,"time":288.24,"velocity":0.2755905511811024},{"duration":0.1199999999999477,"midi":61,"time":288.36,"velocity":0.2992125984251969},{"duration":0.1199999999999477,"midi":42,"time":288.36,"velocity":0.31496062992125984},{"duration":0.1199999999999477,"midi":54,"time":288.36,"velocity":0.2755905511811024},{"duration":0.12000000000000455,"midi":46,"time":288.47999999999996,"velocity":0.31496062992125984},{"duration":0.12000000000000455,"midi":40,"time":288.47999999999996,"velocity":0.3228346456692913},{"duration":0.12000000000000455,"midi":54,"time":288.47999999999996,"velocity":0.2755905511811024},{"duration":0.12000000000000455,"midi":61,"time":288.47999999999996,"velocity":0.2992125984251969},{"duration":0.12000000000000455,"midi":42,"time":288.71999999999997,"velocity":0.31496062992125984},{"duration":0.12000000000000455,"midi":54,"time":288.71999999999997,"velocity":0.2755905511811024},{"duration":0.12000000000000455,"midi":61,"time":288.71999999999997,"velocity":0.2204724409448819},{"duration":0.12000000000000455,"midi":54,"time":288.84,"velocity":0.2755905511811024},{"duration":0.12000000000000455,"midi":61,"time":288.84,"velocity":0.2204724409448819},{"duration":0.12000000000000455,"midi":42,"time":288.84,"velocity":0.31496062992125984},{"duration":0.12000000000000455,"midi":61,"time":288.96,"velocity":0.2992125984251969},{"duration":0.12000000000000455,"midi":36,"time":288.96,"velocity":0.31496062992125984},{"duration":0.12000000000000455,"midi":60,"time":289.08,"velocity":0.2992125984251969},{"duration":0.12000000000000455,"midi":42,"time":289.2,"velocity":0.31496062992125984},{"duration":0.12000000000000455,"midi":54,"time":289.2,"velocity":0.2755905511811024},{"duration":0.12000000000000455,"midi":42,"time":289.32,"velocity":0.31496062992125984},{"duration":0.12000000000000455,"midi":61,"time":289.32,"velocity":0.2992125984251969},{"duration":0.12000000000000455,"midi":54,"time":289.32,"velocity":0.2755905511811024},{"duration":0.12000000000000455,"midi":46,"time":289.44,"velocity":0.31496062992125984},{"duration":0.12000000000000455,"midi":40,"time":289.44,"velocity":0.3228346456692913},{"duration":0.12000000000000455,"midi":54,"time":289.44,"velocity":0.2755905511811024},{"duration":0.12000000000000455,"midi":61,"time":289.44,"velocity":0.2992125984251969},{"duration":0.12000000000000455,"midi":42,"time":289.68,"velocity":0.31496062992125984},{"duration":0.12000000000000455,"midi":54,"time":289.68,"velocity":0.2755905511811024},{"duration":0.12000000000000455,"midi":61,"time":289.68,"velocity":0.2204724409448819},{"duration":0.12000000000000455,"midi":61,"time":289.8,"velocity":0.2204724409448819},{"duration":0.12000000000000455,"midi":54,"time":289.8,"velocity":0.2755905511811024},{"duration":0.12000000000000455,"midi":42,"time":289.8,"velocity":0.31496062992125984},{"duration":0.1199999999999477,"midi":61,"time":289.92,"velocity":0.2992125984251969},{"duration":0.1199999999999477,"midi":36,"time":289.92,"velocity":0.31496062992125984},{"duration":0.12000000000000455,"midi":60,"time":290.03999999999996,"velocity":0.2992125984251969},{"duration":0.12000000000000455,"midi":42,"time":290.15999999999997,"velocity":0.31496062992125984},{"duration":0.12000000000000455,"midi":54,"time":290.15999999999997,"velocity":0.2755905511811024},{"duration":0.12000000000000455,"midi":42,"time":290.28,"velocity":0.31496062992125984},{"duration":0.12000000000000455,"midi":61,"time":290.28,"velocity":0.2992125984251969},{"duration":0.12000000000000455,"midi":54,"time":290.28,"velocity":0.2755905511811024},{"duration":0.12000000000000455,"midi":40,"time":290.4,"velocity":0.3228346456692913},{"duration":0.12000000000000455,"midi":61,"time":290.4,"velocity":0.2992125984251969},{"duration":0.12000000000000455,"midi":54,"time":290.4,"velocity":0.2755905511811024},{"duration":0.12000000000000455,"midi":46,"time":290.4,"velocity":0.31496062992125984},{"duration":0.12000000000000455,"midi":42,"time":290.64,"velocity":0.31496062992125984},{"duration":0.12000000000000455,"midi":54,"time":290.64,"velocity":0.2755905511811024},{"duration":0.12000000000000455,"midi":61,"time":290.64,"velocity":0.2204724409448819},{"duration":0.12000000000000455,"midi":61,"time":290.76,"velocity":0.2204724409448819},{"duration":0.12000000000000455,"midi":54,"time":290.76,"velocity":0.2755905511811024},{"duration":0.12000000000000455,"midi":42,"time":290.76,"velocity":0.31496062992125984},{"duration":0.12000000000000455,"midi":61,"time":290.88,"velocity":0.2992125984251969},{"duration":0.12000000000000455,"midi":36,"time":290.88,"velocity":0.31496062992125984},{"duration":0.12000000000000455,"midi":60,"time":291,"velocity":0.2992125984251969},{"duration":0.12000000000000455,"midi":42,"time":291.12,"velocity":0.31496062992125984},{"duration":0.12000000000000455,"midi":54,"time":291.12,"velocity":0.2755905511811024},{"duration":0.12000000000000455,"midi":54,"time":291.24,"velocity":0.2755905511811024},{"duration":0.12000000000000455,"midi":42,"time":291.24,"velocity":0.31496062992125984},{"duration":0.12000000000000455,"midi":61,"time":291.24,"velocity":0.2992125984251969},{"duration":0.1199999999999477,"midi":54,"time":291.36,"velocity":0.2755905511811024},{"duration":0.1199999999999477,"midi":61,"time":291.36,"velocity":0.2992125984251969},{"duration":0.1199999999999477,"midi":40,"time":291.36,"velocity":0.3228346456692913},{"duration":0.1199999999999477,"midi":46,"time":291.36,"velocity":0.31496062992125984},{"duration":0.12000000000000455,"midi":42,"time":291.59999999999997,"velocity":0.31496062992125984},{"duration":0.12000000000000455,"midi":54,"time":291.59999999999997,"velocity":0.2755905511811024},{"duration":0.12000000000000455,"midi":61,"time":291.59999999999997,"velocity":0.2204724409448819},{"duration":0.12000000000000455,"midi":42,"time":291.71999999999997,"velocity":0.31496062992125984},{"duration":0.12000000000000455,"midi":54,"time":291.71999999999997,"velocity":0.2755905511811024},{"duration":0.12000000000000455,"midi":61,"time":291.71999999999997,"velocity":0.2204724409448819},{"duration":0.12000000000000455,"midi":36,"time":291.84,"velocity":0.31496062992125984},{"duration":0.12000000000000455,"midi":61,"time":291.84,"velocity":0.2992125984251969},{"duration":0.12000000000000455,"midi":60,"time":291.96,"velocity":0.2992125984251969},{"duration":0.12000000000000455,"midi":42,"time":292.08,"velocity":0.31496062992125984},{"duration":0.12000000000000455,"midi":54,"time":292.08,"velocity":0.2755905511811024},{"duration":0.12000000000000455,"midi":42,"time":292.2,"velocity":0.31496062992125984},{"duration":0.12000000000000455,"midi":61,"time":292.2,"velocity":0.2992125984251969},{"duration":0.12000000000000455,"midi":54,"time":292.2,"velocity":0.2755905511811024},{"duration":0.12000000000000455,"midi":61,"time":292.32,"velocity":0.2992125984251969},{"duration":0.12000000000000455,"midi":54,"time":292.32,"velocity":0.2755905511811024},{"duration":0.12000000000000455,"midi":40,"time":292.32,"velocity":0.3228346456692913},{"duration":0.12000000000000455,"midi":46,"time":292.32,"velocity":0.31496062992125984},{"duration":0.12000000000000455,"midi":42,"time":292.56,"velocity":0.31496062992125984},{"duration":0.12000000000000455,"midi":61,"time":292.56,"velocity":0.2204724409448819},{"duration":0.12000000000000455,"midi":54,"time":292.56,"velocity":0.2755905511811024},{"duration":0.12000000000000455,"midi":61,"time":292.68,"velocity":0.2204724409448819},{"duration":0.12000000000000455,"midi":54,"time":292.68,"velocity":0.2755905511811024},{"duration":0.12000000000000455,"midi":42,"time":292.68,"velocity":0.31496062992125984},{"duration":0.12000000000000455,"midi":36,"time":292.8,"velocity":0.31496062992125984},{"duration":0.12000000000000455,"midi":61,"time":292.8,"velocity":0.2992125984251969},{"duration":0.1199999999999477,"midi":60,"time":292.92,"velocity":0.2992125984251969},{"duration":0.12000000000000455,"midi":42,"time":293.03999999999996,"velocity":0.31496062992125984},{"duration":0.12000000000000455,"midi":54,"time":293.03999999999996,"velocity":0.2755905511811024},{"duration":0.12000000000000455,"midi":54,"time":293.15999999999997,"velocity":0.2755905511811024},{"duration":0.12000000000000455,"midi":61,"time":293.15999999999997,"velocity":0.2992125984251969},{"duration":0.12000000000000455,"midi":42,"time":293.15999999999997,"velocity":0.31496062992125984},{"duration":0.12000000000000455,"midi":61,"time":293.28,"velocity":0.2992125984251969},{"duration":0.12000000000000455,"midi":54,"time":293.28,"velocity":0.2755905511811024},{"duration":0.12000000000000455,"midi":46,"time":293.28,"velocity":0.31496062992125984},{"duration":0.12000000000000455,"midi":40,"time":293.28,"velocity":0.3228346456692913},{"duration":0.12000000000000455,"midi":54,"time":293.52,"velocity":0.2755905511811024},{"duration":0.12000000000000455,"midi":61,"time":293.52,"velocity":0.2204724409448819},{"duration":0.12000000000000455,"midi":42,"time":293.52,"velocity":0.31496062992125984},{"duration":0.12000000000000455,"midi":61,"time":293.64,"velocity":0.2204724409448819},{"duration":0.12000000000000455,"midi":54,"time":293.64,"velocity":0.2755905511811024},{"duration":0.12000000000000455,"midi":42,"time":293.64,"velocity":0.31496062992125984},{"duration":0.12000000000000455,"midi":61,"time":293.76,"velocity":0.2992125984251969},{"duration":0.12000000000000455,"midi":36,"time":293.76,"velocity":0.31496062992125984},{"duration":0.12000000000000455,"midi":60,"time":293.88,"velocity":0.2992125984251969},{"duration":0.12000000000000455,"midi":42,"time":294,"velocity":0.31496062992125984},{"duration":0.12000000000000455,"midi":54,"time":294,"velocity":0.2755905511811024},{"duration":0.12000000000000455,"midi":54,"time":294.12,"velocity":0.2755905511811024},{"duration":0.12000000000000455,"midi":61,"time":294.12,"velocity":0.2992125984251969},{"duration":0.12000000000000455,"midi":42,"time":294.12,"velocity":0.31496062992125984},{"duration":0.12000000000000455,"midi":40,"time":294.24,"velocity":0.3228346456692913},{"duration":0.12000000000000455,"midi":46,"time":294.24,"velocity":0.31496062992125984},{"duration":0.12000000000000455,"midi":54,"time":294.24,"velocity":0.2755905511811024},{"duration":0.12000000000000455,"midi":61,"time":294.24,"velocity":0.2992125984251969},{"duration":0.12000000000000455,"midi":61,"time":294.47999999999996,"velocity":0.2204724409448819},{"duration":0.12000000000000455,"midi":42,"time":294.47999999999996,"velocity":0.31496062992125984},{"duration":0.12000000000000455,"midi":54,"time":294.47999999999996,"velocity":0.2755905511811024},{"duration":0.12000000000000455,"midi":42,"time":294.59999999999997,"velocity":0.31496062992125984},{"duration":0.12000000000000455,"midi":54,"time":294.59999999999997,"velocity":0.2755905511811024},{"duration":0.12000000000000455,"midi":61,"time":294.59999999999997,"velocity":0.2204724409448819},{"duration":0.12000000000000455,"midi":61,"time":294.71999999999997,"velocity":0.2992125984251969},{"duration":0.12000000000000455,"midi":36,"time":294.71999999999997,"velocity":0.31496062992125984},{"duration":0.12000000000000455,"midi":60,"time":294.84,"velocity":0.2992125984251969},{"duration":0.12000000000000455,"midi":54,"time":294.96,"velocity":0.2755905511811024},{"duration":0.12000000000000455,"midi":42,"time":294.96,"velocity":0.31496062992125984},{"duration":0.12000000000000455,"midi":42,"time":295.08,"velocity":0.31496062992125984},{"duration":0.12000000000000455,"midi":54,"time":295.08,"velocity":0.2755905511811024},{"duration":0.12000000000000455,"midi":61,"time":295.08,"velocity":0.2992125984251969},{"duration":0.12000000000000455,"midi":46,"time":295.2,"velocity":0.31496062992125984},{"duration":0.12000000000000455,"midi":61,"time":295.2,"velocity":0.2992125984251969},{"duration":0.12000000000000455,"midi":54,"time":295.2,"velocity":0.2755905511811024},{"duration":0.12000000000000455,"midi":40,"time":295.2,"velocity":0.3228346456692913},{"duration":0.12000000000000455,"midi":54,"time":295.44,"velocity":0.2755905511811024},{"duration":0.12000000000000455,"midi":42,"time":295.44,"velocity":0.31496062992125984},{"duration":0.12000000000000455,"midi":61,"time":295.44,"velocity":0.2204724409448819},{"duration":0.12000000000000455,"midi":42,"time":295.56,"velocity":0.31496062992125984},{"duration":0.12000000000000455,"midi":61,"time":295.56,"velocity":0.2204724409448819},{"duration":0.12000000000000455,"midi":54,"time":295.56,"velocity":0.2755905511811024},{"duration":0.12000000000000455,"midi":36,"time":295.68,"velocity":0.31496062992125984},{"duration":0.12000000000000455,"midi":61,"time":295.68,"velocity":0.2992125984251969},{"duration":0.12000000000000455,"midi":60,"time":295.8,"velocity":0.2992125984251969},{"duration":0.1199999999999477,"midi":42,"time":295.92,"velocity":0.31496062992125984},{"duration":0.1199999999999477,"midi":54,"time":295.92,"velocity":0.2755905511811024},{"duration":0.12000000000000455,"midi":42,"time":296.03999999999996,"velocity":0.31496062992125984},{"duration":0.12000000000000455,"midi":61,"time":296.03999999999996,"velocity":0.2992125984251969},{"duration":0.12000000000000455,"midi":54,"time":296.03999999999996,"velocity":0.2755905511811024},{"duration":0.12000000000000455,"midi":40,"time":296.15999999999997,"velocity":0.3228346456692913},{"duration":0.12000000000000455,"midi":46,"time":296.15999999999997,"velocity":0.31496062992125984},{"duration":0.12000000000000455,"midi":61,"time":296.15999999999997,"velocity":0.2992125984251969},{"duration":0.12000000000000455,"midi":54,"time":296.15999999999997,"velocity":0.2755905511811024},{"duration":0.12000000000000455,"midi":61,"time":296.4,"velocity":0.2204724409448819},{"duration":0.12000000000000455,"midi":54,"time":296.4,"velocity":0.2755905511811024},{"duration":0.12000000000000455,"midi":42,"time":296.4,"velocity":0.31496062992125984},{"duration":0.12000000000000455,"midi":42,"time":296.52,"velocity":0.31496062992125984},{"duration":0.12000000000000455,"midi":54,"time":296.52,"velocity":0.2755905511811024},{"duration":0.12000000000000455,"midi":61,"time":296.52,"velocity":0.2204724409448819},{"duration":0.12000000000000455,"midi":36,"time":296.64,"velocity":0.31496062992125984},{"duration":0.12000000000000455,"midi":61,"time":296.64,"velocity":0.2992125984251969},{"duration":0.12000000000000455,"midi":60,"time":296.76,"velocity":0.2992125984251969},{"duration":0.12000000000000455,"midi":42,"time":296.88,"velocity":0.31496062992125984},{"duration":0.12000000000000455,"midi":54,"time":296.88,"velocity":0.2755905511811024},{"duration":0.12000000000000455,"midi":61,"time":297,"velocity":0.2992125984251969},{"duration":0.12000000000000455,"midi":54,"time":297,"velocity":0.2755905511811024},{"duration":0.12000000000000455,"midi":42,"time":297,"velocity":0.31496062992125984},{"duration":0.12000000000000455,"midi":40,"time":297.12,"velocity":0.3228346456692913},{"duration":0.12000000000000455,"midi":46,"time":297.12,"velocity":0.31496062992125984},{"duration":0.12000000000000455,"midi":54,"time":297.12,"velocity":0.2755905511811024},{"duration":0.12000000000000455,"midi":61,"time":297.12,"velocity":0.2992125984251969},{"duration":0.1199999999999477,"midi":54,"time":297.36,"velocity":0.2755905511811024},{"duration":0.1199999999999477,"midi":42,"time":297.36,"velocity":0.31496062992125984},{"duration":0.1199999999999477,"midi":61,"time":297.36,"velocity":0.2204724409448819},{"duration":0.12000000000000455,"midi":42,"time":297.47999999999996,"velocity":0.31496062992125984},{"duration":0.12000000000000455,"midi":54,"time":297.47999999999996,"velocity":0.2755905511811024},{"duration":0.12000000000000455,"midi":61,"time":297.47999999999996,"velocity":0.2204724409448819},{"duration":0.12000000000000455,"midi":61,"time":297.59999999999997,"velocity":0.2992125984251969},{"duration":0.12000000000000455,"midi":36,"time":297.59999999999997,"velocity":0.31496062992125984},{"duration":0.12000000000000455,"midi":60,"time":297.71999999999997,"velocity":0.2992125984251969},{"duration":0.12000000000000455,"midi":54,"time":297.84,"velocity":0.2755905511811024},{"duration":0.12000000000000455,"midi":42,"time":297.84,"velocity":0.31496062992125984},{"duration":0.12000000000000455,"midi":61,"time":297.96,"velocity":0.2992125984251969},{"duration":0.12000000000000455,"midi":54,"time":297.96,"velocity":0.2755905511811024},{"duration":0.12000000000000455,"midi":42,"time":297.96,"velocity":0.31496062992125984},{"duration":0.12000000000000455,"midi":40,"time":298.08,"velocity":0.3228346456692913},{"duration":0.12000000000000455,"midi":46,"time":298.08,"velocity":0.31496062992125984},{"duration":0.12000000000000455,"midi":54,"time":298.08,"velocity":0.2755905511811024},{"duration":0.12000000000000455,"midi":61,"time":298.08,"velocity":0.2992125984251969},{"duration":0.12000000000000455,"midi":61,"time":298.32,"velocity":0.2204724409448819},{"duration":0.12000000000000455,"midi":54,"time":298.32,"velocity":0.2755905511811024},{"duration":0.12000000000000455,"midi":42,"time":298.32,"velocity":0.31496062992125984},{"duration":0.12000000000000455,"midi":42,"time":298.44,"velocity":0.31496062992125984},{"duration":0.12000000000000455,"midi":54,"time":298.44,"velocity":0.2755905511811024},{"duration":0.12000000000000455,"midi":61,"time":298.44,"velocity":0.2204724409448819},{"duration":0.12000000000000455,"midi":61,"time":298.56,"velocity":0.2992125984251969},{"duration":0.12000000000000455,"midi":36,"time":298.56,"velocity":0.31496062992125984},{"duration":0.12000000000000455,"midi":60,"time":298.68,"velocity":0.2992125984251969},{"duration":0.12000000000000455,"midi":54,"time":298.8,"velocity":0.2755905511811024},{"duration":0.12000000000000455,"midi":42,"time":298.8,"velocity":0.31496062992125984},{"duration":0.1199999999999477,"midi":42,"time":298.92,"velocity":0.31496062992125984},{"duration":0.1199999999999477,"midi":54,"time":298.92,"velocity":0.2755905511811024},{"duration":0.1199999999999477,"midi":61,"time":298.92,"velocity":0.2992125984251969},{"duration":0.12000000000000455,"midi":46,"time":299.03999999999996,"velocity":0.31496062992125984},{"duration":0.12000000000000455,"midi":40,"time":299.03999999999996,"velocity":0.3228346456692913},{"duration":0.12000000000000455,"midi":54,"time":299.03999999999996,"velocity":0.2755905511811024},{"duration":0.12000000000000455,"midi":61,"time":299.03999999999996,"velocity":0.2992125984251969},{"duration":0.12000000000000455,"midi":42,"time":299.28,"velocity":0.31496062992125984},{"duration":0.12000000000000455,"midi":54,"time":299.28,"velocity":0.2755905511811024},{"duration":0.12000000000000455,"midi":61,"time":299.28,"velocity":0.2204724409448819},{"duration":0.12000000000000455,"midi":42,"time":299.4,"velocity":0.31496062992125984},{"duration":0.12000000000000455,"midi":54,"time":299.4,"velocity":0.2755905511811024},{"duration":0.12000000000000455,"midi":61,"time":299.4,"velocity":0.2204724409448819},{"duration":0.12000000000000455,"midi":36,"time":299.52,"velocity":0.31496062992125984},{"duration":0.12000000000000455,"midi":61,"time":299.52,"velocity":0.2992125984251969},{"duration":0.12000000000000455,"midi":60,"time":299.64,"velocity":0.2992125984251969},{"duration":0.12000000000000455,"midi":42,"time":299.76,"velocity":0.31496062992125984},{"duration":0.12000000000000455,"midi":54,"time":299.76,"velocity":0.2755905511811024},{"duration":0.12000000000000455,"midi":61,"time":299.88,"velocity":0.2992125984251969},{"duration":0.12000000000000455,"midi":54,"time":299.88,"velocity":0.2755905511811024},{"duration":0.12000000000000455,"midi":42,"time":299.88,"velocity":0.31496062992125984},{"duration":0.12000000000000455,"midi":40,"time":300,"velocity":0.3228346456692913},{"duration":0.12000000000000455,"midi":54,"time":300,"velocity":0.2755905511811024},{"duration":0.12000000000000455,"midi":46,"time":300,"velocity":0.31496062992125984},{"duration":0.12000000000000455,"midi":61,"time":300,"velocity":0.2992125984251969},{"duration":0.12000000000000455,"midi":42,"time":300.24,"velocity":0.31496062992125984},{"duration":0.12000000000000455,"midi":61,"time":300.24,"velocity":0.2204724409448819},{"duration":0.12000000000000455,"midi":54,"time":300.24,"velocity":0.2755905511811024},{"duration":0.1199999999999477,"midi":61,"time":300.36,"velocity":0.2204724409448819},{"duration":0.1199999999999477,"midi":54,"time":300.36,"velocity":0.2755905511811024},{"duration":0.1199999999999477,"midi":42,"time":300.36,"velocity":0.31496062992125984},{"duration":0.12000000000000455,"midi":61,"time":300.47999999999996,"velocity":0.2992125984251969},{"duration":0.12000000000000455,"midi":36,"time":300.47999999999996,"velocity":0.31496062992125984},{"duration":0.12000000000000455,"midi":60,"time":300.59999999999997,"velocity":0.2992125984251969},{"duration":0.12000000000000455,"midi":54,"time":300.71999999999997,"velocity":0.2755905511811024},{"duration":0.12000000000000455,"midi":42,"time":300.71999999999997,"velocity":0.31496062992125984},{"duration":0.12000000000000455,"midi":61,"time":300.84,"velocity":0.2992125984251969},{"duration":0.12000000000000455,"midi":54,"time":300.84,"velocity":0.2755905511811024},{"duration":0.12000000000000455,"midi":42,"time":300.84,"velocity":0.31496062992125984},{"duration":0.12000000000000455,"midi":54,"time":300.96,"velocity":0.2755905511811024},{"duration":0.12000000000000455,"midi":61,"time":300.96,"velocity":0.2992125984251969},{"duration":0.12000000000000455,"midi":40,"time":300.96,"velocity":0.3228346456692913},{"duration":0.12000000000000455,"midi":46,"time":300.96,"velocity":0.31496062992125984},{"duration":0.12000000000000455,"midi":54,"time":301.2,"velocity":0.2755905511811024},{"duration":0.12000000000000455,"midi":61,"time":301.2,"velocity":0.2204724409448819},{"duration":0.12000000000000455,"midi":42,"time":301.2,"velocity":0.31496062992125984},{"duration":0.12000000000000455,"midi":61,"time":301.32,"velocity":0.2204724409448819},{"duration":0.12000000000000455,"midi":54,"time":301.32,"velocity":0.2755905511811024},{"duration":0.12000000000000455,"midi":42,"time":301.32,"velocity":0.31496062992125984},{"duration":0.12000000000000455,"midi":61,"time":301.44,"velocity":0.2992125984251969},{"duration":0.12000000000000455,"midi":36,"time":301.44,"velocity":0.31496062992125984},{"duration":0.12000000000000455,"midi":60,"time":301.56,"velocity":0.2992125984251969},{"duration":0.12000000000000455,"midi":54,"time":301.68,"velocity":0.2755905511811024},{"duration":0.12000000000000455,"midi":42,"time":301.68,"velocity":0.31496062992125984},{"duration":0.12000000000000455,"midi":54,"time":301.8,"velocity":0.2755905511811024},{"duration":0.12000000000000455,"midi":42,"time":301.8,"velocity":0.31496062992125984},{"duration":0.12000000000000455,"midi":61,"time":301.8,"velocity":0.2992125984251969},{"duration":0.1199999999999477,"midi":61,"time":301.92,"velocity":0.2992125984251969},{"duration":0.1199999999999477,"midi":40,"time":301.92,"velocity":0.3228346456692913},{"duration":0.1199999999999477,"midi":54,"time":301.92,"velocity":0.2755905511811024},{"duration":0.1199999999999477,"midi":46,"time":301.92,"velocity":0.31496062992125984},{"duration":0.12000000000000455,"midi":42,"time":302.15999999999997,"velocity":0.31496062992125984},{"duration":0.12000000000000455,"midi":61,"time":302.15999999999997,"velocity":0.2204724409448819},{"duration":0.12000000000000455,"midi":54,"time":302.15999999999997,"velocity":0.2755905511811024},{"duration":0.12000000000000455,"midi":61,"time":302.28,"velocity":0.2204724409448819},{"duration":0.12000000000000455,"midi":54,"time":302.28,"velocity":0.2755905511811024},{"duration":0.12000000000000455,"midi":42,"time":302.28,"velocity":0.31496062992125984},{"duration":0.12000000000000455,"midi":61,"time":302.4,"velocity":0.2992125984251969},{"duration":0.12000000000000455,"midi":36,"time":302.4,"velocity":0.31496062992125984},{"duration":0.12000000000000455,"midi":60,"time":302.52,"velocity":0.2992125984251969},{"duration":0.12000000000000455,"midi":42,"time":302.64,"velocity":0.31496062992125984},{"duration":0.12000000000000455,"midi":54,"time":302.64,"velocity":0.2755905511811024},{"duration":0.12000000000000455,"midi":42,"time":302.76,"velocity":0.31496062992125984},{"duration":0.12000000000000455,"midi":61,"time":302.76,"velocity":0.2992125984251969},{"duration":0.12000000000000455,"midi":54,"time":302.76,"velocity":0.2755905511811024},{"duration":0.12000000000000455,"midi":54,"time":302.88,"velocity":0.2755905511811024},{"duration":0.12000000000000455,"midi":61,"time":302.88,"velocity":0.2992125984251969},{"duration":0.12000000000000455,"midi":40,"time":302.88,"velocity":0.3228346456692913},{"duration":0.12000000000000455,"midi":46,"time":302.88,"velocity":0.31496062992125984},{"duration":0.12000000000000455,"midi":54,"time":303.12,"velocity":0.2755905511811024},{"duration":0.12000000000000455,"midi":61,"time":303.12,"velocity":0.2204724409448819},{"duration":0.12000000000000455,"midi":42,"time":303.12,"velocity":0.31496062992125984},{"duration":0.12000000000000455,"midi":61,"time":303.24,"velocity":0.2204724409448819},{"duration":0.12000000000000455,"midi":54,"time":303.24,"velocity":0.2755905511811024},{"duration":0.12000000000000455,"midi":42,"time":303.24,"velocity":0.31496062992125984},{"duration":0.1199999999999477,"midi":61,"time":303.36,"velocity":0.2992125984251969},{"duration":0.1199999999999477,"midi":36,"time":303.36,"velocity":0.31496062992125984},{"duration":0.12000000000000455,"midi":60,"time":303.47999999999996,"velocity":0.2992125984251969},{"duration":0.12000000000000455,"midi":42,"time":303.59999999999997,"velocity":0.31496062992125984},{"duration":0.12000000000000455,"midi":54,"time":303.59999999999997,"velocity":0.2755905511811024},{"duration":0.12000000000000455,"midi":61,"time":303.71999999999997,"velocity":0.2992125984251969},{"duration":0.12000000000000455,"midi":54,"time":303.71999999999997,"velocity":0.2755905511811024},{"duration":0.12000000000000455,"midi":42,"time":303.71999999999997,"velocity":0.31496062992125984},{"duration":0.12000000000000455,"midi":54,"time":303.84,"velocity":0.2755905511811024},{"duration":0.12000000000000455,"midi":61,"time":303.84,"velocity":0.2992125984251969},{"duration":0.12000000000000455,"midi":46,"time":303.84,"velocity":0.31496062992125984},{"duration":0.12000000000000455,"midi":40,"time":303.84,"velocity":0.3228346456692913},{"duration":0.12000000000000455,"midi":42,"time":304.08,"velocity":0.31496062992125984},{"duration":0.12000000000000455,"midi":61,"time":304.08,"velocity":0.2204724409448819},{"duration":0.12000000000000455,"midi":54,"time":304.08,"velocity":0.2755905511811024},{"duration":0.12000000000000455,"midi":61,"time":304.2,"velocity":0.2204724409448819},{"duration":0.12000000000000455,"midi":54,"time":304.2,"velocity":0.2755905511811024},{"duration":0.12000000000000455,"midi":42,"time":304.2,"velocity":0.31496062992125984},{"duration":0.12000000000000455,"midi":36,"time":304.32,"velocity":0.31496062992125984},{"duration":0.12000000000000455,"midi":61,"time":304.32,"velocity":0.2992125984251969},{"duration":0.12000000000000455,"midi":60,"time":304.44,"velocity":0.2992125984251969},{"duration":0.12000000000000455,"midi":42,"time":304.56,"velocity":0.31496062992125984},{"duration":0.12000000000000455,"midi":54,"time":304.56,"velocity":0.2755905511811024},{"duration":0.12000000000000455,"midi":61,"time":304.68,"velocity":0.2992125984251969},{"duration":0.12000000000000455,"midi":54,"time":304.68,"velocity":0.2755905511811024},{"duration":0.12000000000000455,"midi":42,"time":304.68,"velocity":0.31496062992125984},{"duration":0.12000000000000455,"midi":54,"time":304.8,"velocity":0.2755905511811024},{"duration":0.12000000000000455,"midi":61,"time":304.8,"velocity":0.2992125984251969},{"duration":0.12000000000000455,"midi":40,"time":304.8,"velocity":0.3228346456692913},{"duration":0.12000000000000455,"midi":46,"time":304.8,"velocity":0.31496062992125984},{"duration":0.12000000000000455,"midi":42,"time":305.03999999999996,"velocity":0.31496062992125984},{"duration":0.12000000000000455,"midi":61,"time":305.03999999999996,"velocity":0.2204724409448819},{"duration":0.12000000000000455,"midi":54,"time":305.03999999999996,"velocity":0.2755905511811024},{"duration":0.12000000000000455,"midi":61,"time":305.15999999999997,"velocity":0.2204724409448819},{"duration":0.12000000000000455,"midi":54,"time":305.15999999999997,"velocity":0.2755905511811024},{"duration":0.12000000000000455,"midi":42,"time":305.15999999999997,"velocity":0.31496062992125984},{"duration":0.12000000000000455,"midi":61,"time":305.28,"velocity":0.2992125984251969},{"duration":0.12000000000000455,"midi":36,"time":305.28,"velocity":0.31496062992125984},{"duration":0.12000000000000455,"midi":60,"time":305.4,"velocity":0.2992125984251969},{"duration":0.12000000000000455,"midi":54,"time":305.52,"velocity":0.2755905511811024},{"duration":0.12000000000000455,"midi":42,"time":305.52,"velocity":0.31496062992125984},{"duration":0.12000000000000455,"midi":61,"time":305.64,"velocity":0.2992125984251969},{"duration":0.12000000000000455,"midi":54,"time":305.64,"velocity":0.2755905511811024},{"duration":0.12000000000000455,"midi":42,"time":305.64,"velocity":0.31496062992125984},{"duration":0.12000000000000455,"midi":54,"time":305.76,"velocity":0.2755905511811024},{"duration":0.12000000000000455,"midi":61,"time":305.76,"velocity":0.2992125984251969},{"duration":0.12000000000000455,"midi":46,"time":305.76,"velocity":0.31496062992125984},{"duration":0.12000000000000455,"midi":40,"time":305.76,"velocity":0.3228346456692913},{"duration":0.12000000000000455,"midi":42,"time":306,"velocity":0.31496062992125984},{"duration":0.12000000000000455,"midi":61,"time":306,"velocity":0.2204724409448819},{"duration":0.12000000000000455,"midi":54,"time":306,"velocity":0.2755905511811024},{"duration":0.12000000000000455,"midi":61,"time":306.12,"velocity":0.2204724409448819},{"duration":0.12000000000000455,"midi":54,"time":306.12,"velocity":0.2755905511811024},{"duration":0.12000000000000455,"midi":42,"time":306.12,"velocity":0.31496062992125984},{"duration":0.12000000000000455,"midi":61,"time":306.24,"velocity":0.2992125984251969},{"duration":0.12000000000000455,"midi":36,"time":306.24,"velocity":0.31496062992125984},{"duration":0.1199999999999477,"midi":60,"time":306.36,"velocity":0.2992125984251969},{"duration":0.12000000000000455,"midi":42,"time":306.47999999999996,"velocity":0.31496062992125984},{"duration":0.12000000000000455,"midi":54,"time":306.47999999999996,"velocity":0.2755905511811024},{"duration":0.12000000000000455,"midi":42,"time":306.59999999999997,"velocity":0.31496062992125984},{"duration":0.12000000000000455,"midi":61,"time":306.59999999999997,"velocity":0.2992125984251969},{"duration":0.12000000000000455,"midi":54,"time":306.59999999999997,"velocity":0.2755905511811024},{"duration":0.12000000000000455,"midi":61,"time":306.71999999999997,"velocity":0.2992125984251969},{"duration":0.12000000000000455,"midi":46,"time":306.71999999999997,"velocity":0.31496062992125984},{"duration":0.12000000000000455,"midi":40,"time":306.71999999999997,"velocity":0.3228346456692913},{"duration":0.12000000000000455,"midi":54,"time":306.71999999999997,"velocity":0.2755905511811024},{"duration":0.12000000000000455,"midi":42,"time":306.96,"velocity":0.31496062992125984},{"duration":0.12000000000000455,"midi":61,"time":306.96,"velocity":0.2204724409448819},{"duration":0.12000000000000455,"midi":54,"time":306.96,"velocity":0.2755905511811024},{"duration":0.12000000000000455,"midi":61,"time":307.08,"velocity":0.2204724409448819},{"duration":0.12000000000000455,"midi":54,"time":307.08,"velocity":0.2755905511811024},{"duration":0.12000000000000455,"midi":42,"time":307.08,"velocity":0.31496062992125984}]},{"instrument":{"family":"piano","number":0,"name":"acoustic grand piano"},"notes":[{"duration":0.12,"midi":55,"time":0,"velocity":0.4566929133858268},{"duration":0.72,"midi":77,"time":0.12,"velocity":0.3700787401574803},{"duration":0.12,"midi":67,"time":0.12,"velocity":0.4566929133858268},{"duration":0.72,"midi":70,"time":0.12,"velocity":0.4566929133858268},{"duration":0.72,"midi":82,"time":0.12,"velocity":0.3779527559055118},{"duration":0.12,"midi":62,"time":0.24,"velocity":0.4566929133858268},{"duration":0.12,"midi":55,"time":0.36,"velocity":0.4566929133858268},{"duration":0.12,"midi":67,"time":0.48,"velocity":0.4566929133858268},{"duration":0.12,"midi":55,"time":0.6,"velocity":0.4566929133858268},{"duration":0.2400000000000001,"midi":72,"time":0.84,"velocity":0.4566929133858268},{"duration":0.2400000000000001,"midi":84,"time":0.84,"velocity":0.3779527559055118},{"duration":0.2400000000000001,"midi":81,"time":0.84,"velocity":0.3700787401574803},{"duration":0.1200000000000001,"midi":55,"time":0.96,"velocity":0.4566929133858268},{"duration":0.11999999999999988,"midi":67,"time":1.08,"velocity":0.4566929133858268},{"duration":0.7199999999999998,"midi":70,"time":1.08,"velocity":0.4566929133858268},{"duration":0.7199999999999998,"midi":82,"time":1.08,"velocity":0.3779527559055118},{"duration":0.7199999999999998,"midi":77,"time":1.08,"velocity":0.3700787401574803},{"duration":0.11999999999999988,"midi":62,"time":1.2,"velocity":0.4566929133858268},{"duration":0.1200000000000001,"midi":55,"time":1.3199999999999998,"velocity":0.4566929133858268},{"duration":0.1200000000000001,"midi":67,"time":1.44,"velocity":0.4566929133858268},{"duration":0.11999999999999988,"midi":55,"time":1.56,"velocity":0.4566929133858268},{"duration":0.2400000000000002,"midi":84,"time":1.7999999999999998,"velocity":0.3779527559055118},{"duration":0.2400000000000002,"midi":72,"time":1.7999999999999998,"velocity":0.4566929133858268},{"duration":0.2400000000000002,"midi":81,"time":1.7999999999999998,"velocity":0.3700787401574803},{"duration":0.1200000000000001,"midi":55,"time":1.92,"velocity":0.4566929133858268},{"duration":0.7199999999999998,"midi":82,"time":2.04,"velocity":0.3779527559055118},{"duration":0.7199999999999998,"midi":70,"time":2.04,"velocity":0.4566929133858268},{"duration":0.1200000000000001,"midi":67,"time":2.04,"velocity":0.4566929133858268},{"duration":0.7199999999999998,"midi":77,"time":2.04,"velocity":0.3700787401574803},{"duration":0.11999999999999966,"midi":62,"time":2.16,"velocity":0.4566929133858268},{"duration":0.1200000000000001,"midi":55,"time":2.28,"velocity":0.4566929133858268},{"duration":0.1200000000000001,"midi":67,"time":2.4,"velocity":0.4566929133858268},{"duration":0.11999999999999966,"midi":55,"time":2.52,"velocity":0.4566929133858268},{"duration":0.2400000000000002,"midi":84,"time":2.76,"velocity":0.3779527559055118},{"duration":0.2400000000000002,"midi":81,"time":2.76,"velocity":0.3700787401574803},{"duration":0.2400000000000002,"midi":72,"time":2.76,"velocity":0.4566929133858268},{"duration":0.1200000000000001,"midi":55,"time":2.88,"velocity":0.4566929133858268},{"duration":0.23999999999999977,"midi":74,"time":3,"velocity":0.49606299212598426},{"duration":0.23999999999999977,"midi":70,"time":3,"velocity":0.3779527559055118},{"duration":0.23999999999999977,"midi":79,"time":3,"velocity":0.3700787401574803},{"duration":0.23999999999999977,"midi":62,"time":3,"velocity":0.4566929133858268},{"duration":0.1200000000000001,"midi":67,"time":3,"velocity":0.4566929133858268},{"duration":0.23999999999999977,"midi":82,"time":3,"velocity":0.3700787401574803},{"duration":0.11999999999999966,"midi":53,"time":3.12,"velocity":0.4566929133858268},{"duration":0.1200000000000001,"midi":60,"time":3.2399999999999998,"velocity":0.4566929133858268},{"duration":0.1200000000000001,"midi":67,"time":3.2399999999999998,"velocity":0.49606299212598426},{"duration":0.1200000000000001,"midi":72,"time":3.2399999999999998,"velocity":0.49606299212598426},{"duration":0.1200000000000001,"midi":70,"time":3.3,"velocity":0.49606299212598426},{"duration":0.1200000000000001,"midi":74,"time":3.3,"velocity":0.49606299212598426},{"duration":0.1200000000000001,"midi":72,"time":3.36,"velocity":0.49606299212598426},{"duration":0.1200000000000001,"midi":67,"time":3.36,"velocity":0.49606299212598426},{"duration":0.1200000000000001,"midi":53,"time":3.36,"velocity":0.4566929133858268},{"duration":0.23999999999999977,"midi":70,"time":3.48,"velocity":0.49606299212598426},{"duration":0.23999999999999977,"midi":65,"time":3.48,"velocity":0.49606299212598426},{"duration":0.11999999999999966,"midi":60,"time":3.48,"velocity":0.4566929133858268},{"duration":0.2400000000000002,"midi":53,"time":3.5999999999999996,"velocity":0.4566929133858268},{"duration":0.2400000000000002,"midi":67,"time":3.7199999999999998,"velocity":0.49606299212598426},{"duration":0.2400000000000002,"midi":72,"time":3.7199999999999998,"velocity":0.49606299212598426},{"duration":0.1200000000000001,"midi":55,"time":3.84,"velocity":0.4566929133858268},{"duration":0.7199999999999998,"midi":70,"time":3.96,"velocity":0.4566929133858268},{"duration":0.1200000000000001,"midi":67,"time":3.96,"velocity":0.4566929133858268},{"duration":0.7199999999999998,"midi":77,"time":3.96,"velocity":0.3700787401574803},{"duration":0.7199999999999998,"midi":82,"time":3.96,"velocity":0.3779527559055118},{"duration":0.1200000000000001,"midi":62,"time":4.08,"velocity":0.4566929133858268},{"duration":0.1200000000000001,"midi":55,"time":4.2,"velocity":0.4566929133858268},{"duration":0.11999999999999922,"midi":67,"time":4.32,"velocity":0.4566929133858268},{"duration":0.1200000000000001,"midi":55,"time":4.4399999999999995,"velocity":0.4566929133858268},{"duration":0.2400000000000002,"midi":72,"time":4.68,"velocity":0.4566929133858268},{"duration":0.2400000000000002,"midi":81,"time":4.68,"velocity":0.3700787401574803},{"duration":0.2400000000000002,"midi":84,"time":4.68,"velocity":0.3779527559055118},{"duration":0.1200000000000001,"midi":55,"time":4.8,"velocity":0.4566929133858268},{"duration":0.7199999999999998,"midi":82,"time":4.92,"velocity":0.3779527559055118},{"duration":0.1200000000000001,"midi":67,"time":4.92,"velocity":0.4566929133858268},{"duration":0.7199999999999998,"midi":70,"time":4.92,"velocity":0.4566929133858268},{"duration":0.7199999999999998,"midi":77,"time":4.92,"velocity":0.3700787401574803},{"duration":0.1200000000000001,"midi":62,"time":5.04,"velocity":0.4566929133858268},{"duration":0.11999999999999922,"midi":55,"time":5.16,"velocity":0.4566929133858268},{"duration":0.1200000000000001,"midi":67,"time":5.279999999999999,"velocity":0.4566929133858268},{"duration":0.1200000000000001,"midi":55,"time":5.3999999999999995,"velocity":0.4566929133858268},{"duration":0.2400000000000002,"midi":72,"time":5.64,"velocity":0.4566929133858268},{"duration":0.2400000000000002,"midi":84,"time":5.64,"velocity":0.3779527559055118},{"duration":0.2400000000000002,"midi":81,"time":5.64,"velocity":0.3700787401574803},{"duration":0.1200000000000001,"midi":55,"time":5.76,"velocity":0.4566929133858268},{"duration":0.1200000000000001,"midi":67,"time":5.88,"velocity":0.4566929133858268},{"duration":0.7199999999999998,"midi":70,"time":5.88,"velocity":0.4566929133858268},{"duration":0.7199999999999998,"midi":77,"time":5.88,"velocity":0.3700787401574803},{"duration":0.7199999999999998,"midi":82,"time":5.88,"velocity":0.3779527559055118},{"duration":0.1200000000000001,"midi":62,"time":6,"velocity":0.4566929133858268},{"duration":0.1200000000000001,"midi":55,"time":6.12,"velocity":0.4566929133858268},{"duration":0.11999999999999922,"midi":67,"time":6.24,"velocity":0.4566929133858268},{"duration":0.1200000000000001,"midi":55,"time":6.359999999999999,"velocity":0.4566929133858268},{"duration":0.2400000000000002,"midi":81,"time":6.6,"velocity":0.3700787401574803},{"duration":0.2400000000000002,"midi":72,"time":6.6,"velocity":0.4566929133858268},{"duration":0.2400000000000002,"midi":84,"time":6.6,"velocity":0.3779527559055118},{"duration":0.1200000000000001,"midi":55,"time":6.72,"velocity":0.4566929133858268},{"duration":0.2400000000000002,"midi":62,"time":6.84,"velocity":0.4566929133858268},{"duration":0.2400000000000002,"midi":74,"time":6.84,"velocity":0.49606299212598426},{"duration":0.2400000000000002,"midi":82,"time":6.84,"velocity":0.3700787401574803},{"duration":0.2400000000000002,"midi":70,"time":6.84,"velocity":0.3779527559055118},{"duration":0.1200000000000001,"midi":67,"time":6.84,"velocity":0.4566929133858268},{"duration":0.2400000000000002,"midi":79,"time":6.84,"velocity":0.3700787401574803},{"duration":0.1200000000000001,"midi":53,"time":6.96,"velocity":0.4566929133858268},{"duration":0.11999999999999922,"midi":60,"time":7.08,"velocity":0.4566929133858268},{"duration":0.11999999999999922,"midi":72,"time":7.08,"velocity":0.49606299212598426},{"duration":0.11999999999999922,"midi":67,"time":7.08,"velocity":0.5039370078740157},{"duration":0.1200000000000001,"midi":74,"time":7.14,"velocity":0.49606299212598426},{"duration":0.1200000000000001,"midi":70,"time":7.14,"velocity":0.5039370078740157},{"duration":0.1200000000000001,"midi":67,"time":7.199999999999999,"velocity":0.5039370078740157},{"duration":0.1200000000000001,"midi":72,"time":7.199999999999999,"velocity":0.49606299212598426},{"duration":0.1200000000000001,"midi":53,"time":7.199999999999999,"velocity":0.4566929133858268},{"duration":0.2400000000000002,"midi":70,"time":7.319999999999999,"velocity":0.5039370078740157},{"duration":0.2400000000000002,"midi":65,"time":7.319999999999999,"velocity":0.5039370078740157},{"duration":0.1200000000000001,"midi":60,"time":7.319999999999999,"velocity":0.4566929133858268},{"duration":0.2400000000000002,"midi":53,"time":7.4399999999999995,"velocity":0.4566929133858268},{"duration":0.2400000000000002,"midi":72,"time":7.56,"velocity":0.49606299212598426},{"duration":0.2400000000000002,"midi":67,"time":7.56,"velocity":0.5039370078740157},{"duration":0.1200000000000001,"midi":51,"time":7.68,"velocity":0.4566929133858268},{"duration":0.1200000000000001,"midi":63,"time":7.8,"velocity":0.3700787401574803},{"duration":0.7199999999999998,"midi":70,"time":7.8,"velocity":0.4409448818897638},{"duration":0.7199999999999998,"midi":75,"time":7.8,"velocity":0.44881889763779526},{"duration":0.47999999999999954,"midi":63,"time":7.8,"velocity":0.4566929133858268},{"duration":0.11999999999999922,"midi":58,"time":7.92,"velocity":0.4566929133858268},{"duration":0.120000000000001,"midi":51,"time":8.04,"velocity":0.4566929133858268},{"duration":0.35999999999999943,"midi":63,"time":8.16,"velocity":0.4566929133858268},{"duration":0.120000000000001,"midi":51,"time":8.28,"velocity":0.4566929133858268},{"duration":0.2400000000000002,"midi":62,"time":8.52,"velocity":0.3700787401574803},{"duration":0.2400000000000002,"midi":69,"time":8.52,"velocity":0.3700787401574803},{"duration":0.2400000000000002,"midi":81,"time":8.52,"velocity":0.44881889763779526},{"duration":0.11999999999999922,"midi":51,"time":8.64,"velocity":0.4566929133858268},{"duration":0.11999999999999922,"midi":63,"time":8.76,"velocity":0.3700787401574803},{"duration":0.7200000000000006,"midi":70,"time":8.76,"velocity":0.4330708661417323},{"duration":0.4800000000000004,"midi":63,"time":8.76,"velocity":0.4566929133858268},{"duration":0.7200000000000006,"midi":75,"time":8.76,"velocity":0.44881889763779526},{"duration":0.120000000000001,"midi":58,"time":8.879999999999999,"velocity":0.4566929133858268},{"duration":0.11999999999999922,"midi":51,"time":9,"velocity":0.4566929133858268},{"duration":0.3600000000000012,"midi":63,"time":9.12,"velocity":0.4566929133858268},{"duration":0.11999999999999922,"midi":51,"time":9.24,"velocity":0.4566929133858268},{"duration":0.23999999999999844,"midi":69,"time":9.48,"velocity":0.3700787401574803},{"duration":0.23999999999999844,"midi":62,"time":9.48,"velocity":0.3700787401574803},{"duration":0.23999999999999844,"midi":81,"time":9.48,"velocity":0.44881889763779526},{"duration":0.11999999999999922,"midi":51,"time":9.6,"velocity":0.4566929133858268},{"duration":0.120000000000001,"midi":63,"time":9.719999999999999,"velocity":0.3700787401574803},{"duration":0.4800000000000004,"midi":63,"time":9.719999999999999,"velocity":0.4566929133858268},{"duration":0.7200000000000006,"midi":75,"time":9.719999999999999,"velocity":0.44881889763779526},{"duration":0.7200000000000006,"midi":70,"time":9.719999999999999,"velocity":0.4330708661417323},{"duration":0.11999999999999922,"midi":58,"time":9.84,"velocity":0.4566929133858268},{"duration":0.120000000000001,"midi":51,"time":9.959999999999999,"velocity":0.4566929133858268},{"duration":0.35999999999999943,"midi":63,"time":10.08,"velocity":0.4566929133858268},{"duration":0.120000000000001,"midi":51,"time":10.2,"velocity":0.4566929133858268},{"duration":0.2400000000000002,"midi":69,"time":10.44,"velocity":0.3700787401574803},{"duration":0.2400000000000002,"midi":62,"time":10.44,"velocity":0.3700787401574803},{"duration":0.2400000000000002,"midi":81,"time":10.44,"velocity":0.44881889763779526},{"duration":0.120000000000001,"midi":51,"time":10.559999999999999,"velocity":0.4566929133858268},{"duration":0.2400000000000002,"midi":74,"time":10.68,"velocity":0.49606299212598426},{"duration":0.11999999999999922,"midi":63,"time":10.68,"velocity":0.3779527559055118},{"duration":0.2400000000000002,"midi":63,"time":10.68,"velocity":0.4566929133858268},{"duration":0.2400000000000002,"midi":70,"time":10.68,"velocity":0.4566929133858268},{"duration":0.120000000000001,"midi":58,"time":10.799999999999999,"velocity":0.4566929133858268},{"duration":0.11999999999999922,"midi":72,"time":10.92,"velocity":0.49606299212598426},{"duration":0.11999999999999922,"midi":51,"time":10.92,"velocity":0.4566929133858268},{"duration":0.11999999999999922,"midi":67,"time":10.92,"velocity":0.49606299212598426},{"duration":0.11999999999999922,"midi":74,"time":10.98,"velocity":0.49606299212598426},{"duration":0.11999999999999922,"midi":70,"time":10.98,"velocity":0.49606299212598426},{"duration":0.120000000000001,"midi":72,"time":11.04,"velocity":0.49606299212598426},{"duration":0.120000000000001,"midi":53,"time":11.04,"velocity":0.4566929133858268},{"duration":0.120000000000001,"midi":67,"time":11.04,"velocity":0.49606299212598426},{"duration":0.2400000000000002,"midi":65,"time":11.16,"velocity":0.49606299212598426},{"duration":0.2400000000000002,"midi":70,"time":11.16,"velocity":0.49606299212598426},{"duration":0.11999999999999922,"midi":60,"time":11.16,"velocity":0.4566929133858268},{"duration":0.2400000000000002,"midi":53,"time":11.28,"velocity":0.4566929133858268},{"duration":0.23999999999999844,"midi":67,"time":11.4,"velocity":0.49606299212598426},{"duration":0.23999999999999844,"midi":72,"time":11.4,"velocity":0.49606299212598426},{"duration":0.11999999999999922,"midi":51,"time":11.52,"velocity":0.4566929133858268},{"duration":0.7200000000000006,"midi":70,"time":11.639999999999999,"velocity":0.4409448818897638},{"duration":0.120000000000001,"midi":63,"time":11.639999999999999,"velocity":0.4566929133858268},{"duration":0.7200000000000006,"midi":75,"time":11.639999999999999,"velocity":0.44881889763779526},{"duration":0.4800000000000004,"midi":63,"time":11.639999999999999,"velocity":0.3700787401574803},{"duration":0.11999999999999922,"midi":58,"time":11.76,"velocity":0.4566929133858268},{"duration":0.120000000000001,"midi":51,"time":11.879999999999999,"velocity":0.4566929133858268},{"duration":0.35999999999999943,"midi":63,"time":12,"velocity":0.4566929133858268},{"duration":0.120000000000001,"midi":51,"time":12.12,"velocity":0.4566929133858268},{"duration":0.2400000000000002,"midi":69,"time":12.36,"velocity":0.3700787401574803},{"duration":0.2400000000000002,"midi":62,"time":12.36,"velocity":0.3700787401574803},{"duration":0.2400000000000002,"midi":81,"time":12.36,"velocity":0.44881889763779526},{"duration":0.11999999999999922,"midi":51,"time":12.48,"velocity":0.4566929133858268},{"duration":0.11999999999999922,"midi":63,"time":12.6,"velocity":0.3700787401574803},{"duration":0.7200000000000006,"midi":70,"time":12.6,"velocity":0.4330708661417323},{"duration":0.4800000000000004,"midi":63,"time":12.6,"velocity":0.4566929133858268},{"duration":0.7200000000000006,"midi":75,"time":12.6,"velocity":0.44881889763779526},{"duration":0.120000000000001,"midi":58,"time":12.719999999999999,"velocity":0.4566929133858268},{"duration":0.11999999999999922,"midi":51,"time":12.84,"velocity":0.4566929133858268},{"duration":0.3600000000000012,"midi":63,"time":12.959999999999999,"velocity":0.4566929133858268},{"duration":0.11999999999999922,"midi":51,"time":13.08,"velocity":0.4566929133858268},{"duration":0.23999999999999844,"midi":81,"time":13.32,"velocity":0.44881889763779526},{"duration":0.23999999999999844,"midi":62,"time":13.32,"velocity":0.3700787401574803},{"duration":0.23999999999999844,"midi":69,"time":13.32,"velocity":0.3700787401574803},{"duration":0.11999999999999922,"midi":51,"time":13.44,"velocity":0.4566929133858268},{"duration":0.120000000000001,"midi":63,"time":13.559999999999999,"velocity":0.3700787401574803},{"duration":0.7200000000000006,"midi":75,"time":13.559999999999999,"velocity":0.44881889763779526},{"duration":0.7200000000000006,"midi":70,"time":13.559999999999999,"velocity":0.4330708661417323},{"duration":0.4800000000000004,"midi":63,"time":13.559999999999999,"velocity":0.4566929133858268},{"duration":0.11999999999999922,"midi":58,"time":13.68,"velocity":0.4566929133858268},{"duration":0.120000000000001,"midi":51,"time":13.799999999999999,"velocity":0.4566929133858268},{"duration":0.35999999999999943,"midi":63,"time":13.92,"velocity":0.4566929133858268},{"duration":0.120000000000001,"midi":51,"time":14.04,"velocity":0.4566929133858268},{"duration":0.2400000000000002,"midi":62,"time":14.28,"velocity":0.3700787401574803},{"duration":0.2400000000000002,"midi":69,"time":14.28,"velocity":0.3700787401574803},{"duration":0.2400000000000002,"midi":81,"time":14.28,"velocity":0.44881889763779526},{"duration":0.120000000000001,"midi":51,"time":14.399999999999999,"velocity":0.4566929133858268},{"duration":0.2400000000000002,"midi":70,"time":14.52,"velocity":0.4566929133858268},{"duration":0.2400000000000002,"midi":74,"time":14.52,"velocity":0.49606299212598426},{"duration":0.11999999999999922,"midi":63,"time":14.52,"velocity":0.4566929133858268},{"duration":0.2400000000000002,"midi":63,"time":14.52,"velocity":0.3779527559055118},{"duration":0.120000000000001,"midi":58,"time":14.639999999999999,"velocity":0.4566929133858268},{"duration":0.11999999999999922,"midi":51,"time":14.76,"velocity":0.4566929133858268},{"duration":0.11999999999999922,"midi":72,"time":14.76,"velocity":0.49606299212598426},{"duration":0.11999999999999922,"midi":67,"time":14.76,"velocity":0.49606299212598426},{"duration":0.11999999999999922,"midi":70,"time":14.82,"velocity":0.49606299212598426},{"duration":0.11999999999999922,"midi":74,"time":14.82,"velocity":0.49606299212598426},{"duration":0.120000000000001,"midi":67,"time":14.879999999999999,"velocity":0.49606299212598426},{"duration":0.120000000000001,"midi":72,"time":14.879999999999999,"velocity":0.49606299212598426},{"duration":0.2400000000000002,"midi":70,"time":15,"velocity":0.49606299212598426},{"duration":0.2400000000000002,"midi":65,"time":15,"velocity":0.49606299212598426},{"duration":0.23999999999999844,"midi":67,"time":15.24,"velocity":0.49606299212598426},{"duration":0.23999999999999844,"midi":72,"time":15.24,"velocity":0.49606299212598426},{"duration":0.11999999999999922,"midi":55,"time":15.36,"velocity":0.4566929133858268},{"duration":0.7200000000000006,"midi":70,"time":15.479999999999999,"velocity":0.4566929133858268},{"duration":0.7200000000000006,"midi":77,"time":15.479999999999999,"velocity":0.49606299212598426},{"duration":0.120000000000001,"midi":67,"time":15.479999999999999,"velocity":0.4566929133858268},{"duration":0.11999999999999922,"midi":62,"time":15.6,"velocity":0.4566929133858268},{"duration":0.120000000000001,"midi":55,"time":15.719999999999999,"velocity":0.4566929133858268},{"duration":0.11999999999999922,"midi":67,"time":15.84,"velocity":0.4566929133858268},{"duration":0.11999999999999922,"midi":62,"time":15.959999999999999,"velocity":0.4566929133858268},{"duration":0.23999999999999844,"midi":72,"time":16.2,"velocity":0.4566929133858268},{"duration":0.23999999999999844,"midi":81,"time":16.2,"velocity":0.3700787401574803},{"duration":0.11999999999999744,"midi":55,"time":16.32,"velocity":0.4566929133858268},{"duration":0.7200000000000024,"midi":77,"time":16.439999999999998,"velocity":0.49606299212598426},{"duration":0.120000000000001,"midi":67,"time":16.439999999999998,"velocity":0.4566929133858268},{"duration":0.7200000000000024,"midi":70,"time":16.439999999999998,"velocity":0.4566929133858268},{"duration":0.120000000000001,"midi":62,"time":16.56,"velocity":0.4566929133858268},{"duration":0.120000000000001,"midi":55,"time":16.68,"velocity":0.4566929133858268},{"duration":0.11999999999999744,"midi":67,"time":16.8,"velocity":0.4566929133858268},{"duration":0.120000000000001,"midi":62,"time":16.919999999999998,"velocity":0.4566929133858268},{"duration":0.23999999999999844,"midi":81,"time":17.16,"velocity":0.3700787401574803},{"duration":0.23999999999999844,"midi":72,"time":17.16,"velocity":0.4566929133858268},{"duration":0.11999999999999744,"midi":55,"time":17.28,"velocity":0.4566929133858268},{"duration":0.7200000000000024,"midi":70,"time":17.4,"velocity":0.4566929133858268},{"duration":0.120000000000001,"midi":67,"time":17.4,"velocity":0.4566929133858268},{"duration":0.7200000000000024,"midi":77,"time":17.4,"velocity":0.49606299212598426},{"duration":0.120000000000001,"midi":62,"time":17.52,"velocity":0.4566929133858268},{"duration":0.11999999999999744,"midi":55,"time":17.64,"velocity":0.4566929133858268},{"duration":0.120000000000001,"midi":67,"time":17.759999999999998,"velocity":0.4566929133858268},{"duration":0.120000000000001,"midi":62,"time":17.88,"velocity":0.4566929133858268},{"duration":0.23999999999999844,"midi":72,"time":18.12,"velocity":0.4566929133858268},{"duration":0.23999999999999844,"midi":81,"time":18.12,"velocity":0.3700787401574803},{"duration":0.120000000000001,"midi":55,"time":18.24,"velocity":0.4566929133858268},{"duration":0.120000000000001,"midi":67,"time":18.36,"velocity":0.4566929133858268},{"duration":0.23999999999999844,"midi":79,"time":18.36,"velocity":0.3700787401574803},{"duration":0.23999999999999844,"midi":70,"time":18.36,"velocity":0.3779527559055118},{"duration":0.23999999999999844,"midi":62,"time":18.36,"velocity":0.4566929133858268},{"duration":0.23999999999999844,"midi":74,"time":18.36,"velocity":0.49606299212598426},{"duration":0.11999999999999744,"midi":62,"time":18.48,"velocity":0.4566929133858268},{"duration":0.120000000000001,"midi":60,"time":18.599999999999998,"velocity":0.4566929133858268},{"duration":0.120000000000001,"midi":67,"time":18.599999999999998,"velocity":0.49606299212598426},{"duration":0.120000000000001,"midi":72,"time":18.599999999999998,"velocity":0.49606299212598426},{"duration":0.11999999999999744,"midi":74,"time":18.66,"velocity":0.49606299212598426},{"duration":0.11999999999999744,"midi":70,"time":18.66,"velocity":0.49606299212598426},{"duration":0.120000000000001,"midi":67,"time":18.72,"velocity":0.49606299212598426},{"duration":0.120000000000001,"midi":72,"time":18.72,"velocity":0.49606299212598426},{"duration":0.120000000000001,"midi":53,"time":18.72,"velocity":0.4566929133858268},{"duration":0.23999999999999844,"midi":70,"time":18.84,"velocity":0.49606299212598426},{"duration":0.120000000000001,"midi":60,"time":18.84,"velocity":0.4566929133858268},{"duration":0.23999999999999844,"midi":65,"time":18.84,"velocity":0.49606299212598426},{"duration":0.23999999999999844,"midi":53,"time":18.96,"velocity":0.4566929133858268},{"duration":0.240000000000002,"midi":72,"time":19.08,"velocity":0.49606299212598426},{"duration":0.240000000000002,"midi":67,"time":19.08,"velocity":0.49606299212598426},{"duration":0.120000000000001,"midi":55,"time":19.2,"velocity":0.4566929133858268},{"duration":0.11999999999999744,"midi":67,"time":19.32,"velocity":0.4566929133858268},{"duration":0.7199999999999989,"midi":77,"time":19.32,"velocity":0.5039370078740157},{"duration":0.7199999999999989,"midi":70,"time":19.32,"velocity":0.4566929133858268},{"duration":0.120000000000001,"midi":62,"time":19.439999999999998,"velocity":0.4566929133858268},{"duration":0.120000000000001,"midi":55,"time":19.56,"velocity":0.4566929133858268},{"duration":0.120000000000001,"midi":67,"time":19.68,"velocity":0.4566929133858268},{"duration":0.11999999999999744,"midi":62,"time":19.8,"velocity":0.4566929133858268},{"duration":0.23999999999999844,"midi":81,"time":20.04,"velocity":0.3700787401574803},{"duration":0.23999999999999844,"midi":72,"time":20.04,"velocity":0.4566929133858268},{"duration":0.11999999999999744,"midi":55,"time":20.16,"velocity":0.4566929133858268},{"duration":0.7200000000000024,"midi":70,"time":20.279999999999998,"velocity":0.4566929133858268},{"duration":0.7200000000000024,"midi":77,"time":20.279999999999998,"velocity":0.5039370078740157},{"duration":0.120000000000001,"midi":67,"time":20.279999999999998,"velocity":0.4566929133858268},{"duration":0.120000000000001,"midi":62,"time":20.4,"velocity":0.4566929133858268},{"duration":0.120000000000001,"midi":55,"time":20.52,"velocity":0.4566929133858268},{"duration":0.11999999999999744,"midi":67,"time":20.64,"velocity":0.4566929133858268},{"duration":0.120000000000001,"midi":62,"time":20.759999999999998,"velocity":0.4566929133858268},{"duration":0.23999999999999844,"midi":72,"time":21,"velocity":0.4566929133858268},{"duration":0.23999999999999844,"midi":81,"time":21,"velocity":0.3700787401574803},{"duration":0.120000000000001,"midi":55,"time":21.119999999999997,"velocity":0.4566929133858268},{"duration":0.7200000000000024,"midi":70,"time":21.24,"velocity":0.4566929133858268},{"duration":0.120000000000001,"midi":67,"time":21.24,"velocity":0.4566929133858268},{"duration":0.7200000000000024,"midi":77,"time":21.24,"velocity":0.5039370078740157},{"duration":0.120000000000001,"midi":62,"time":21.36,"velocity":0.4566929133858268},{"duration":0.11999999999999744,"midi":55,"time":21.48,"velocity":0.4566929133858268},{"duration":0.120000000000001,"midi":67,"time":21.599999999999998,"velocity":0.4566929133858268},{"duration":0.120000000000001,"midi":62,"time":21.72,"velocity":0.4566929133858268},{"duration":0.23999999999999844,"midi":81,"time":21.96,"velocity":0.3700787401574803},{"duration":0.23999999999999844,"midi":72,"time":21.96,"velocity":0.4566929133858268},{"duration":0.120000000000001,"midi":55,"time":22.08,"velocity":0.4566929133858268},{"duration":0.23999999999999844,"midi":79,"time":22.2,"velocity":0.3700787401574803},{"duration":0.23999999999999844,"midi":70,"time":22.2,"velocity":0.3779527559055118},{"duration":0.23999999999999844,"midi":62,"time":22.2,"velocity":0.4566929133858268},{"duration":0.120000000000001,"midi":67,"time":22.2,"velocity":0.4566929133858268},{"duration":0.23999999999999844,"midi":74,"time":22.2,"velocity":0.49606299212598426},{"duration":0.11999999999999744,"midi":62,"time":22.32,"velocity":0.4566929133858268},{"duration":0.120000000000001,"midi":72,"time":22.439999999999998,"velocity":0.49606299212598426},{"duration":0.120000000000001,"midi":67,"time":22.439999999999998,"velocity":0.5039370078740157},{"duration":0.120000000000001,"midi":60,"time":22.439999999999998,"velocity":0.4566929133858268},{"duration":0.11999999999999744,"midi":74,"time":22.5,"velocity":0.49606299212598426},{"duration":0.11999999999999744,"midi":70,"time":22.5,"velocity":0.5039370078740157},{"duration":0.120000000000001,"midi":53,"time":22.56,"velocity":0.4566929133858268},{"duration":0.120000000000001,"midi":72,"time":22.56,"velocity":0.49606299212598426},{"duration":0.120000000000001,"midi":67,"time":22.56,"velocity":0.5039370078740157},{"duration":0.23999999999999844,"midi":65,"time":22.68,"velocity":0.5039370078740157},{"duration":0.23999999999999844,"midi":70,"time":22.68,"velocity":0.5039370078740157},{"duration":0.120000000000001,"midi":60,"time":22.68,"velocity":0.4566929133858268},{"duration":0.23999999999999844,"midi":53,"time":22.8,"velocity":0.4566929133858268},{"duration":0.240000000000002,"midi":67,"time":22.919999999999998,"velocity":0.5039370078740157},{"duration":0.240000000000002,"midi":72,"time":22.919999999999998,"velocity":0.49606299212598426},{"duration":0.120000000000001,"midi":51,"time":23.04,"velocity":0.4566929133858268},{"duration":0.7199999999999989,"midi":75,"time":23.16,"velocity":0.44881889763779526},{"duration":0.7199999999999989,"midi":70,"time":23.16,"velocity":0.4409448818897638},{"duration":0.11999999999999744,"midi":63,"time":23.16,"velocity":0.3700787401574803},{"duration":0.4800000000000004,"midi":63,"time":23.16,"velocity":0.4566929133858268},{"duration":0.120000000000001,"midi":58,"time":23.279999999999998,"velocity":0.4566929133858268},{"duration":0.120000000000001,"midi":51,"time":23.4,"velocity":0.4566929133858268},{"duration":0.35999999999999943,"midi":63,"time":23.52,"velocity":0.4566929133858268},{"duration":0.11999999999999744,"midi":58,"time":23.64,"velocity":0.4566929133858268},{"duration":0.23999999999999844,"midi":62,"time":23.88,"velocity":0.3700787401574803},{"duration":0.23999999999999844,"midi":81,"time":23.88,"velocity":0.44881889763779526},{"duration":0.23999999999999844,"midi":69,"time":23.88,"velocity":0.3700787401574803},{"duration":0.11999999999999744,"midi":51,"time":24,"velocity":0.4566929133858268},{"duration":0.7200000000000024,"midi":75,"time":24.119999999999997,"velocity":0.44881889763779526},{"duration":0.120000000000001,"midi":63,"time":24.119999999999997,"velocity":0.4566929133858268},{"duration":0.4800000000000004,"midi":63,"time":24.119999999999997,"velocity":0.3700787401574803},{"duration":0.7200000000000024,"midi":70,"time":24.119999999999997,"velocity":0.4330708661417323},{"duration":0.120000000000001,"midi":58,"time":24.24,"velocity":0.4566929133858268},{"duration":0.120000000000001,"midi":51,"time":24.36,"velocity":0.4566929133858268},{"duration":0.35999999999999943,"midi":63,"time":24.48,"velocity":0.4566929133858268},{"duration":0.120000000000001,"midi":58,"time":24.599999999999998,"velocity":0.4566929133858268},{"duration":0.23999999999999844,"midi":69,"time":24.84,"velocity":0.3700787401574803},{"duration":0.23999999999999844,"midi":81,"time":24.84,"velocity":0.44881889763779526},{"duration":0.23999999999999844,"midi":62,"time":24.84,"velocity":0.3700787401574803},{"duration":0.11999999999999744,"midi":51,"time":24.96,"velocity":0.4566929133858268},{"duration":0.7200000000000024,"midi":75,"time":25.08,"velocity":0.44881889763779526},{"duration":0.120000000000001,"midi":63,"time":25.08,"velocity":0.3700787401574803},{"duration":0.7200000000000024,"midi":70,"time":25.08,"velocity":0.4330708661417323},{"duration":0.4800000000000004,"midi":63,"time":25.08,"velocity":0.4566929133858268},{"duration":0.120000000000001,"midi":58,"time":25.2,"velocity":0.4566929133858268},{"duration":0.11999999999999744,"midi":51,"time":25.32,"velocity":0.4566929133858268},{"duration":0.360000000000003,"midi":63,"time":25.439999999999998,"velocity":0.4566929133858268},{"duration":0.120000000000001,"midi":58,"time":25.56,"velocity":0.4566929133858268},{"duration":0.23999999999999844,"midi":62,"time":25.8,"velocity":0.3700787401574803},{"duration":0.23999999999999844,"midi":69,"time":25.8,"velocity":0.3700787401574803},{"duration":0.23999999999999844,"midi":81,"time":25.8,"velocity":0.44881889763779526},{"duration":0.120000000000001,"midi":51,"time":25.919999999999998,"velocity":0.4566929133858268},{"duration":0.120000000000001,"midi":63,"time":26.04,"velocity":0.4566929133858268},{"duration":0.23999999999999844,"midi":70,"time":26.04,"velocity":0.4566929133858268},{"duration":0.23999999999999844,"midi":63,"time":26.04,"velocity":0.3779527559055118},{"duration":0.23999999999999844,"midi":74,"time":26.04,"velocity":0.49606299212598426},{"duration":0.11999999999999744,"midi":58,"time":26.16,"velocity":0.4566929133858268},{"duration":0.120000000000001,"midi":51,"time":26.279999999999998,"velocity":0.4566929133858268},{"duration":0.120000000000001,"midi":72,"time":26.279999999999998,"velocity":0.49606299212598426},{"duration":0.120000000000001,"midi":67,"time":26.279999999999998,"velocity":0.49606299212598426},{"duration":0.11999999999999744,"midi":70,"time":26.34,"velocity":0.49606299212598426},{"duration":0.11999999999999744,"midi":74,"time":26.34,"velocity":0.49606299212598426},{"duration":0.120000000000001,"midi":53,"time":26.4,"velocity":0.4566929133858268},{"duration":0.120000000000001,"midi":67,"time":26.4,"velocity":0.49606299212598426},{"duration":0.120000000000001,"midi":72,"time":26.4,"velocity":0.49606299212598426},{"duration":0.23999999999999844,"midi":65,"time":26.52,"velocity":0.49606299212598426},{"duration":0.23999999999999844,"midi":70,"time":26.52,"velocity":0.49606299212598426},{"duration":0.120000000000001,"midi":60,"time":26.52,"velocity":0.4566929133858268},{"duration":0.23999999999999844,"midi":53,"time":26.64,"velocity":0.4566929133858268},{"duration":0.240000000000002,"midi":72,"time":26.759999999999998,"velocity":0.49606299212598426},{"duration":0.240000000000002,"midi":67,"time":26.759999999999998,"velocity":0.49606299212598426},{"duration":0.120000000000001,"midi":51,"time":26.88,"velocity":0.4566929133858268},{"duration":0.11999999999999744,"midi":63,"time":27,"velocity":0.3700787401574803},{"duration":0.4800000000000004,"midi":63,"time":27,"velocity":0.4566929133858268},{"duration":0.7199999999999989,"midi":70,"time":27,"velocity":0.4409448818897638},{"duration":0.7199999999999989,"midi":75,"time":27,"velocity":0.44881889763779526},{"duration":0.120000000000001,"midi":58,"time":27.119999999999997,"velocity":0.4566929133858268},{"duration":0.120000000000001,"midi":51,"time":27.24,"velocity":0.4566929133858268},{"duration":0.35999999999999943,"midi":63,"time":27.36,"velocity":0.4566929133858268},{"duration":0.11999999999999744,"midi":58,"time":27.48,"velocity":0.4566929133858268},{"duration":0.23999999999999844,"midi":62,"time":27.72,"velocity":0.3700787401574803},{"duration":0.23999999999999844,"midi":81,"time":27.72,"velocity":0.44881889763779526},{"duration":0.23999999999999844,"midi":69,"time":27.72,"velocity":0.3700787401574803},{"duration":0.11999999999999744,"midi":51,"time":27.84,"velocity":0.4566929133858268},{"duration":0.7200000000000024,"midi":70,"time":27.959999999999997,"velocity":0.4330708661417323},{"duration":0.120000000000001,"midi":63,"time":27.959999999999997,"velocity":0.3700787401574803},{"duration":0.4800000000000004,"midi":63,"time":27.959999999999997,"velocity":0.4566929133858268},{"duration":0.7200000000000024,"midi":75,"time":27.959999999999997,"velocity":0.44881889763779526},{"duration":0.120000000000001,"midi":58,"time":28.08,"velocity":0.4566929133858268},{"duration":0.120000000000001,"midi":51,"time":28.2,"velocity":0.4566929133858268},{"duration":0.35999999999999943,"midi":63,"time":28.32,"velocity":0.4566929133858268},{"duration":0.120000000000001,"midi":58,"time":28.439999999999998,"velocity":0.4566929133858268},{"duration":0.23999999999999844,"midi":62,"time":28.68,"velocity":0.3700787401574803},{"duration":0.23999999999999844,"midi":81,"time":28.68,"velocity":0.44881889763779526},{"duration":0.23999999999999844,"midi":69,"time":28.68,"velocity":0.3700787401574803},{"duration":0.120000000000001,"midi":51,"time":28.799999999999997,"velocity":0.4566929133858268},{"duration":0.120000000000001,"midi":63,"time":28.919999999999998,"velocity":0.4566929133858268},{"duration":0.4800000000000004,"midi":63,"time":28.919999999999998,"velocity":0.3700787401574803},{"duration":0.7200000000000024,"midi":70,"time":28.919999999999998,"velocity":0.4330708661417323},{"duration":0.7200000000000024,"midi":75,"time":28.919999999999998,"velocity":0.44881889763779526},{"duration":0.120000000000001,"midi":58,"time":29.04,"velocity":0.4566929133858268},{"duration":0.11999999999999744,"midi":51,"time":29.16,"velocity":0.4566929133858268},{"duration":0.360000000000003,"midi":63,"time":29.279999999999998,"velocity":0.4566929133858268},{"duration":0.120000000000001,"midi":58,"time":29.4,"velocity":0.4566929133858268},{"duration":0.23999999999999844,"midi":81,"time":29.64,"velocity":0.44881889763779526},{"duration":0.23999999999999844,"midi":62,"time":29.64,"velocity":0.3700787401574803},{"duration":0.23999999999999844,"midi":69,"time":29.64,"velocity":0.3700787401574803},{"duration":0.120000000000001,"midi":51,"time":29.759999999999998,"velocity":0.4566929133858268},{"duration":0.23999999999999844,"midi":70,"time":29.88,"velocity":0.4566929133858268},{"duration":0.120000000000001,"midi":63,"time":29.88,"velocity":0.4566929133858268},{"duration":0.23999999999999844,"midi":63,"time":29.88,"velocity":0.3779527559055118},{"duration":0.23999999999999844,"midi":74,"time":29.88,"velocity":0.49606299212598426},{"duration":0.11999999999999744,"midi":58,"time":30,"velocity":0.4566929133858268},{"duration":0.120000000000001,"midi":72,"time":30.119999999999997,"velocity":0.49606299212598426},{"duration":0.120000000000001,"midi":51,"time":30.119999999999997,"velocity":0.4566929133858268},{"duration":0.120000000000001,"midi":67,"time":30.119999999999997,"velocity":0.49606299212598426},{"duration":0.11999999999999744,"midi":70,"time":30.18,"velocity":0.49606299212598426},{"duration":0.11999999999999744,"midi":74,"time":30.18,"velocity":0.49606299212598426},{"duration":0.120000000000001,"midi":67,"time":30.24,"velocity":0.49606299212598426},{"duration":0.120000000000001,"midi":53,"time":30.24,"velocity":0.4566929133858268},{"duration":0.120000000000001,"midi":72,"time":30.24,"velocity":0.49606299212598426},{"duration":0.23999999999999844,"midi":70,"time":30.36,"velocity":0.49606299212598426},{"duration":0.23999999999999844,"midi":65,"time":30.36,"velocity":0.49606299212598426},{"duration":0.120000000000001,"midi":60,"time":30.36,"velocity":0.4566929133858268},{"duration":0.23999999999999844,"midi":53,"time":30.48,"velocity":0.4566929133858268},{"duration":0.240000000000002,"midi":67,"time":30.599999999999998,"velocity":0.49606299212598426},{"duration":0.240000000000002,"midi":72,"time":30.599999999999998,"velocity":0.49606299212598426},{"duration":0.120000000000001,"midi":55,"time":30.72,"velocity":0.4566929133858268},{"duration":0.11999999999999744,"midi":67,"time":30.84,"velocity":0.4566929133858268},{"duration":0.7199999999999989,"midi":77,"time":30.84,"velocity":0.49606299212598426},{"duration":0.7199999999999989,"midi":70,"time":30.84,"velocity":0.4566929133858268},{"duration":0.120000000000001,"midi":62,"time":30.959999999999997,"velocity":0.4566929133858268},{"duration":0.120000000000001,"midi":55,"time":31.08,"velocity":0.4566929133858268},{"duration":0.120000000000001,"midi":67,"time":31.2,"velocity":0.4566929133858268},{"duration":0.11999999999999744,"midi":62,"time":31.32,"velocity":0.4566929133858268},{"duration":0.23999999999999844,"midi":72,"time":31.56,"velocity":0.4566929133858268},{"duration":0.23999999999999844,"midi":81,"time":31.56,"velocity":0.3700787401574803},{"duration":0.11999999999999744,"midi":55,"time":31.68,"velocity":0.4566929133858268},{"duration":0.7199999999999989,"midi":70,"time":31.799999999999997,"velocity":0.4566929133858268},{"duration":0.120000000000001,"midi":67,"time":31.799999999999997,"velocity":0.4566929133858268},{"duration":0.7199999999999989,"midi":77,"time":31.799999999999997,"velocity":0.49606299212598426},{"duration":0.120000000000001,"midi":62,"time":31.919999999999998,"velocity":0.4566929133858268},{"duration":0.11999999999999744,"midi":55,"time":32.04,"velocity":0.4566929133858268},{"duration":0.12000000000000455,"midi":67,"time":32.16,"velocity":0.4566929133858268},{"duration":0.11999999999999744,"midi":62,"time":32.28,"velocity":0.4566929133858268},{"duration":0.240000000000002,"midi":81,"time":32.519999999999996,"velocity":0.3700787401574803},{"duration":0.240000000000002,"midi":72,"time":32.519999999999996,"velocity":0.4566929133858268},{"duration":0.11999999999999744,"midi":55,"time":32.64,"velocity":0.4566929133858268},{"duration":0.11999999999999744,"midi":67,"time":32.76,"velocity":0.4566929133858268},{"duration":0.7199999999999989,"midi":70,"time":32.76,"velocity":0.4566929133858268},{"duration":0.7199999999999989,"midi":77,"time":32.76,"velocity":0.49606299212598426},{"duration":0.12000000000000455,"midi":62,"time":32.879999999999995,"velocity":0.4566929133858268},{"duration":0.11999999999999744,"midi":55,"time":33,"velocity":0.4566929133858268},{"duration":0.12000000000000455,"midi":67,"time":33.12,"velocity":0.4566929133858268},{"duration":0.11999999999999744,"midi":62,"time":33.24,"velocity":0.4566929133858268},{"duration":0.240000000000002,"midi":81,"time":33.48,"velocity":0.3700787401574803},{"duration":0.240000000000002,"midi":72,"time":33.48,"velocity":0.4566929133858268},{"duration":0.11999999999999744,"midi":55,"time":33.6,"velocity":0.4566929133858268},{"duration":0.240000000000002,"midi":74,"time":33.72,"velocity":0.49606299212598426},{"duration":0.11999999999999744,"midi":67,"time":33.72,"velocity":0.4566929133858268},{"duration":0.240000000000002,"midi":62,"time":33.72,"velocity":0.4566929133858268},{"duration":0.240000000000002,"midi":70,"time":33.72,"velocity":0.3779527559055118},{"duration":0.240000000000002,"midi":79,"time":33.72,"velocity":0.3700787401574803},{"duration":0.12000000000000455,"midi":62,"time":33.839999999999996,"velocity":0.4566929133858268},{"duration":0.11999999999999744,"midi":67,"time":33.96,"velocity":0.49606299212598426},{"duration":0.11999999999999744,"midi":72,"time":33.96,"velocity":0.49606299212598426},{"duration":0.11999999999999744,"midi":60,"time":33.96,"velocity":0.4566929133858268},{"duration":0.12000000000000455,"midi":74,"time":34.019999999999996,"velocity":0.49606299212598426},{"duration":0.12000000000000455,"midi":70,"time":34.019999999999996,"velocity":0.49606299212598426},{"duration":0.11999999999999744,"midi":53,"time":34.08,"velocity":0.4566929133858268},{"duration":0.11999999999999744,"midi":67,"time":34.08,"velocity":0.49606299212598426},{"duration":0.11999999999999744,"midi":72,"time":34.08,"velocity":0.49606299212598426},{"duration":0.12000000000000455,"midi":60,"time":34.199999999999996,"velocity":0.4566929133858268},{"duration":0.240000000000002,"midi":65,"time":34.199999999999996,"velocity":0.49606299212598426},{"duration":0.240000000000002,"midi":70,"time":34.199999999999996,"velocity":0.49606299212598426},{"duration":0.240000000000002,"midi":53,"time":34.32,"velocity":0.4566929133858268},{"duration":0.240000000000002,"midi":72,"time":34.44,"velocity":0.49606299212598426},{"duration":0.240000000000002,"midi":67,"time":34.44,"velocity":0.49606299212598426},{"duration":0.11999999999999744,"midi":55,"time":34.56,"velocity":0.4566929133858268},{"duration":0.7199999999999989,"midi":77,"time":34.68,"velocity":0.5039370078740157},{"duration":0.11999999999999744,"midi":67,"time":34.68,"velocity":0.4566929133858268},{"duration":0.7199999999999989,"midi":70,"time":34.68,"velocity":0.4566929133858268},{"duration":0.12000000000000455,"midi":62,"time":34.8,"velocity":0.4566929133858268},{"duration":0.11999999999999744,"midi":55,"time":34.92,"velocity":0.4566929133858268},{"duration":0.11999999999999744,"midi":67,"time":35.04,"velocity":0.4566929133858268},{"duration":0.12000000000000455,"midi":62,"time":35.16,"velocity":0.4566929133858268},{"duration":0.240000000000002,"midi":72,"time":35.4,"velocity":0.4566929133858268},{"duration":0.240000000000002,"midi":81,"time":35.4,"velocity":0.3700787401574803},{"duration":0.12000000000000455,"midi":55,"time":35.519999999999996,"velocity":0.4566929133858268},{"duration":0.7199999999999989,"midi":77,"time":35.64,"velocity":0.5039370078740157},{"duration":0.7199999999999989,"midi":70,"time":35.64,"velocity":0.4566929133858268},{"duration":0.11999999999999744,"midi":67,"time":35.64,"velocity":0.4566929133858268},{"duration":0.11999999999999744,"midi":62,"time":35.76,"velocity":0.4566929133858268},{"duration":0.12000000000000455,"midi":55,"time":35.879999999999995,"velocity":0.4566929133858268},{"duration":0.11999999999999744,"midi":67,"time":36,"velocity":0.4566929133858268},{"duration":0.12000000000000455,"midi":62,"time":36.12,"velocity":0.4566929133858268},{"duration":0.240000000000002,"midi":81,"time":36.36,"velocity":0.3700787401574803},{"duration":0.240000000000002,"midi":72,"time":36.36,"velocity":0.4566929133858268},{"duration":0.12000000000000455,"midi":55,"time":36.48,"velocity":0.4566929133858268},{"duration":0.11999999999999744,"midi":67,"time":36.6,"velocity":0.4566929133858268},{"duration":0.7199999999999989,"midi":70,"time":36.6,"velocity":0.4566929133858268},{"duration":0.7199999999999989,"midi":77,"time":36.6,"velocity":0.5039370078740157},{"duration":0.11999999999999744,"midi":62,"time":36.72,"velocity":0.4566929133858268},{"duration":0.12000000000000455,"midi":55,"time":36.839999999999996,"velocity":0.4566929133858268},{"duration":0.11999999999999744,"midi":67,"time":36.96,"velocity":0.4566929133858268},{"duration":0.11999999999999744,"midi":62,"time":37.08,"velocity":0.4566929133858268},{"duration":0.23999999999999488,"midi":72,"time":37.32,"velocity":0.4566929133858268},{"duration":0.23999999999999488,"midi":81,"time":37.32,"velocity":0.3700787401574803},{"duration":0.11999999999999744,"midi":55,"time":37.44,"velocity":0.4566929133858268},{"duration":0.240000000000002,"midi":79,"time":37.559999999999995,"velocity":0.3700787401574803},{"duration":0.12000000000000455,"midi":67,"time":37.559999999999995,"velocity":0.4566929133858268},{"duration":0.240000000000002,"midi":62,"time":37.559999999999995,"velocity":0.4566929133858268},{"duration":0.240000000000002,"midi":74,"time":37.559999999999995,"velocity":0.49606299212598426},{"duration":0.240000000000002,"midi":70,"time":37.559999999999995,"velocity":0.3779527559055118},{"duration":0.11999999999999744,"midi":62,"time":37.68,"velocity":0.4566929133858268},{"duration":0.12000000000000455,"midi":60,"time":37.8,"velocity":0.4566929133858268},{"duration":0.12000000000000455,"midi":67,"time":37.8,"velocity":0.5039370078740157},{"duration":0.12000000000000455,"midi":72,"time":37.8,"velocity":0.49606299212598426},{"duration":0.11999999999999744,"midi":74,"time":37.86,"velocity":0.49606299212598426},{"duration":0.11999999999999744,"midi":70,"time":37.86,"velocity":0.5039370078740157},{"duration":0.11999999999999744,"midi":53,"time":37.92,"velocity":0.4566929133858268},{"duration":0.11999999999999744,"midi":67,"time":37.92,"velocity":0.5039370078740157},{"duration":0.11999999999999744,"midi":72,"time":37.92,"velocity":0.49606299212598426},{"duration":0.240000000000002,"midi":65,"time":38.04,"velocity":0.5039370078740157},{"duration":0.240000000000002,"midi":70,"time":38.04,"velocity":0.5039370078740157},{"duration":0.11999999999999744,"midi":60,"time":38.04,"velocity":0.4566929133858268},{"duration":0.240000000000002,"midi":53,"time":38.16,"velocity":0.4566929133858268},{"duration":0.23999999999999488,"midi":67,"time":38.28,"velocity":0.5039370078740157},{"duration":0.23999999999999488,"midi":72,"time":38.28,"velocity":0.49606299212598426},{"duration":0.11999999999999744,"midi":51,"time":38.4,"velocity":0.4566929133858268},{"duration":0.12000000000000455,"midi":63,"time":38.519999999999996,"velocity":0.4566929133858268},{"duration":0.720000000000006,"midi":70,"time":38.519999999999996,"velocity":0.4409448818897638},{"duration":0.720000000000006,"midi":75,"time":38.519999999999996,"velocity":0.44881889763779526},{"duration":0.480000000000004,"midi":63,"time":38.519999999999996,"velocity":0.3700787401574803},{"duration":0.11999999999999744,"midi":58,"time":38.64,"velocity":0.4566929133858268},{"duration":0.11999999999999744,"midi":51,"time":38.76,"velocity":0.4566929133858268},{"duration":0.36000000000000654,"midi":63,"time":38.879999999999995,"velocity":0.4566929133858268},{"duration":0.11999999999999744,"midi":58,"time":39,"velocity":0.4566929133858268},{"duration":0.23999999999999488,"midi":69,"time":39.24,"velocity":0.3700787401574803},{"duration":0.23999999999999488,"midi":81,"time":39.24,"velocity":0.44881889763779526},{"duration":0.23999999999999488,"midi":62,"time":39.24,"velocity":0.3700787401574803},{"duration":0.11999999999999744,"midi":51,"time":39.36,"velocity":0.4566929133858268},{"duration":0.12000000000000455,"midi":63,"time":39.48,"velocity":0.4566929133858268},{"duration":0.7199999999999989,"midi":70,"time":39.48,"velocity":0.4330708661417323},{"duration":0.7199999999999989,"midi":75,"time":39.48,"velocity":0.44881889763779526},{"duration":0.480000000000004,"midi":63,"time":39.48,"velocity":0.3700787401574803},{"duration":0.11999999999999744,"midi":58,"time":39.6,"velocity":0.4566929133858268},{"duration":0.11999999999999744,"midi":51,"time":39.72,"velocity":0.4566929133858268},{"duration":0.35999999999999943,"midi":63,"time":39.839999999999996,"velocity":0.4566929133858268},{"duration":0.11999999999999744,"midi":58,"time":39.96,"velocity":0.4566929133858268},{"duration":0.240000000000002,"midi":62,"time":40.199999999999996,"velocity":0.3700787401574803},{"duration":0.240000000000002,"midi":69,"time":40.199999999999996,"velocity":0.3700787401574803},{"duration":0.240000000000002,"midi":81,"time":40.199999999999996,"velocity":0.44881889763779526},{"duration":0.11999999999999744,"midi":51,"time":40.32,"velocity":0.4566929133858268},{"duration":0.7199999999999989,"midi":70,"time":40.44,"velocity":0.4330708661417323},{"duration":0.11999999999999744,"midi":63,"time":40.44,"velocity":0.4566929133858268},{"duration":0.480000000000004,"midi":63,"time":40.44,"velocity":0.3700787401574803},{"duration":0.7199999999999989,"midi":75,"time":40.44,"velocity":0.44881889763779526},{"duration":0.12000000000000455,"midi":58,"time":40.559999999999995,"velocity":0.4566929133858268},{"duration":0.11999999999999744,"midi":51,"time":40.68,"velocity":0.4566929133858268},{"duration":0.35999999999999943,"midi":63,"time":40.8,"velocity":0.4566929133858268},{"duration":0.11999999999999744,"midi":58,"time":40.92,"velocity":0.4566929133858268},{"duration":0.240000000000002,"midi":69,"time":41.16,"velocity":0.3700787401574803},{"duration":0.240000000000002,"midi":62,"time":41.16,"velocity":0.3700787401574803},{"duration":0.240000000000002,"midi":81,"time":41.16,"velocity":0.44881889763779526},{"duration":0.11999999999999744,"midi":51,"time":41.28,"velocity":0.4566929133858268},{"duration":0.11999999999999744,"midi":63,"time":41.4,"velocity":0.3779527559055118},{"duration":0.240000000000002,"midi":74,"time":41.4,"velocity":0.49606299212598426},{"duration":0.240000000000002,"midi":70,"time":41.4,"velocity":0.4566929133858268},{"duration":0.240000000000002,"midi":63,"time":41.4,"velocity":0.4566929133858268},{"duration":0.12000000000000455,"midi":58,"time":41.519999999999996,"velocity":0.4566929133858268},{"duration":0.11999999999999744,"midi":72,"time":41.64,"velocity":0.49606299212598426},{"duration":0.11999999999999744,"midi":67,"time":41.64,"velocity":0.49606299212598426},{"duration":0.11999999999999744,"midi":51,"time":41.64,"velocity":0.4566929133858268},{"duration":0.12000000000000455,"midi":74,"time":41.699999999999996,"velocity":0.49606299212598426},{"duration":0.12000000000000455,"midi":70,"time":41.699999999999996,"velocity":0.49606299212598426},{"duration":0.11999999999999744,"midi":72,"time":41.76,"velocity":0.49606299212598426},{"duration":0.11999999999999744,"midi":67,"time":41.76,"velocity":0.49606299212598426},{"duration":0.11999999999999744,"midi":53,"time":41.76,"velocity":0.4566929133858268},{"duration":0.240000000000002,"midi":65,"time":41.879999999999995,"velocity":0.49606299212598426},{"duration":0.12000000000000455,"midi":60,"time":41.879999999999995,"velocity":0.4566929133858268},{"duration":0.240000000000002,"midi":70,"time":41.879999999999995,"velocity":0.49606299212598426},{"duration":0.23999999999999488,"midi":53,"time":42,"velocity":0.4566929133858268},{"duration":0.240000000000002,"midi":72,"time":42.12,"velocity":0.49606299212598426},{"duration":0.240000000000002,"midi":67,"time":42.12,"velocity":0.49606299212598426},{"duration":0.12000000000000455,"midi":51,"time":42.239999999999995,"velocity":0.4566929133858268},{"duration":0.11999999999999744,"midi":63,"time":42.36,"velocity":0.3700787401574803},{"duration":0.4799999999999969,"midi":63,"time":42.36,"velocity":0.4566929133858268},{"duration":0.7199999999999989,"midi":70,"time":42.36,"velocity":0.4409448818897638},{"duration":0.7199999999999989,"midi":75,"time":42.36,"velocity":0.44881889763779526},{"duration":0.12000000000000455,"midi":58,"time":42.48,"velocity":0.4566929133858268},{"duration":0.11999999999999744,"midi":51,"time":42.6,"velocity":0.4566929133858268},{"duration":0.35999999999999943,"midi":63,"time":42.72,"velocity":0.4566929133858268},{"duration":0.12000000000000455,"midi":58,"time":42.839999999999996,"velocity":0.4566929133858268},{"duration":0.240000000000002,"midi":81,"time":43.08,"velocity":0.44881889763779526},{"duration":0.240000000000002,"midi":62,"time":43.08,"velocity":0.3700787401574803},{"duration":0.240000000000002,"midi":69,"time":43.08,"velocity":0.3700787401574803},{"duration":0.12000000000000455,"midi":51,"time":43.199999999999996,"velocity":0.4566929133858268},{"duration":0.11999999999999744,"midi":63,"time":43.32,"velocity":0.4566929133858268},{"duration":0.7199999999999989,"midi":70,"time":43.32,"velocity":0.4330708661417323},{"duration":0.4799999999999969,"midi":63,"time":43.32,"velocity":0.3700787401574803},{"duration":0.7199999999999989,"midi":75,"time":43.32,"velocity":0.44881889763779526},{"duration":0.11999999999999744,"midi":58,"time":43.44,"velocity":0.4566929133858268},{"duration":0.12000000000000455,"midi":51,"time":43.559999999999995,"velocity":0.4566929133858268},{"duration":0.35999999999999943,"midi":63,"time":43.68,"velocity":0.4566929133858268},{"duration":0.12000000000000455,"midi":58,"time":43.8,"velocity":0.4566929133858268},{"duration":0.240000000000002,"midi":62,"time":44.04,"velocity":0.3700787401574803},{"duration":0.240000000000002,"midi":69,"time":44.04,"velocity":0.3700787401574803},{"duration":0.240000000000002,"midi":81,"time":44.04,"velocity":0.44881889763779526},{"duration":0.12000000000000455,"midi":51,"time":44.16,"velocity":0.4566929133858268},{"duration":0.7199999999999989,"midi":75,"time":44.28,"velocity":0.44881889763779526},{"duration":0.7199999999999989,"midi":70,"time":44.28,"velocity":0.4330708661417323},{"duration":0.11999999999999744,"midi":63,"time":44.28,"velocity":0.3700787401574803},{"duration":0.4799999999999969,"midi":63,"time":44.28,"velocity":0.4566929133858268},{"duration":0.11999999999999744,"midi":58,"time":44.4,"velocity":0.4566929133858268},{"duration":0.12000000000000455,"midi":51,"time":44.519999999999996,"velocity":0.4566929133858268},{"duration":0.35999999999999943,"midi":63,"time":44.64,"velocity":0.4566929133858268},{"duration":0.11999999999999744,"midi":58,"time":44.76,"velocity":0.4566929133858268},{"duration":0.23999999999999488,"midi":69,"time":45,"velocity":0.3700787401574803},{"duration":0.23999999999999488,"midi":81,"time":45,"velocity":0.44881889763779526},{"duration":0.23999999999999488,"midi":62,"time":45,"velocity":0.3700787401574803},{"duration":0.11999999999999744,"midi":51,"time":45.12,"velocity":0.4566929133858268},{"duration":0.12000000000000455,"midi":63,"time":45.239999999999995,"velocity":0.3779527559055118},{"duration":0.240000000000002,"midi":70,"time":45.239999999999995,"velocity":0.4566929133858268},{"duration":0.240000000000002,"midi":74,"time":45.239999999999995,"velocity":0.49606299212598426},{"duration":0.240000000000002,"midi":63,"time":45.239999999999995,"velocity":0.4566929133858268},{"duration":0.11999999999999744,"midi":58,"time":45.36,"velocity":0.4566929133858268},{"duration":0.12000000000000455,"midi":67,"time":45.48,"velocity":0.49606299212598426},{"duration":0.12000000000000455,"midi":72,"time":45.48,"velocity":0.49606299212598426},{"duration":0.12000000000000455,"midi":51,"time":45.48,"velocity":0.4566929133858268},{"duration":0.11999999999999744,"midi":74,"time":45.54,"velocity":0.49606299212598426},{"duration":0.11999999999999744,"midi":70,"time":45.54,"velocity":0.49606299212598426},{"duration":0.11999999999999744,"midi":53,"time":45.6,"velocity":0.4566929133858268},{"duration":0.11999999999999744,"midi":67,"time":45.6,"velocity":0.49606299212598426},{"duration":0.11999999999999744,"midi":72,"time":45.6,"velocity":0.49606299212598426},{"duration":0.240000000000002,"midi":70,"time":45.72,"velocity":0.49606299212598426},{"duration":0.240000000000002,"midi":65,"time":45.72,"velocity":0.49606299212598426},{"duration":0.11999999999999744,"midi":60,"time":45.72,"velocity":0.4566929133858268},{"duration":0.240000000000002,"midi":53,"time":45.839999999999996,"velocity":0.4566929133858268},{"duration":0.23999999999999488,"midi":67,"time":45.96,"velocity":0.49606299212598426},{"duration":0.23999999999999488,"midi":72,"time":45.96,"velocity":0.49606299212598426},{"duration":0.11999999999999744,"midi":48,"time":46.08,"velocity":0.4566929133858268},{"duration":0.12000000000000455,"midi":60,"time":46.199999999999996,"velocity":0.4566929133858268},{"duration":0.480000000000004,"midi":82,"time":46.199999999999996,"velocity":0.5669291338582677},{"duration":0.480000000000004,"midi":75,"time":46.199999999999996,"velocity":0.5118110236220472},{"duration":0.11999999999999744,"midi":55,"time":46.32,"velocity":0.4566929133858268},{"duration":0.11999999999999744,"midi":48,"time":46.44,"velocity":0.4566929133858268},{"duration":0.12000000000000455,"midi":60,"time":46.559999999999995,"velocity":0.4566929133858268},{"duration":0.11999999999999744,"midi":55,"time":46.68,"velocity":0.4566929133858268},{"duration":0.11999999999999744,"midi":55,"time":46.68,"velocity":0.4566929133858268},{"duration":0.240000000000002,"midi":48,"time":46.8,"velocity":0.4566929133858268},{"duration":0.11999999999999744,"midi":48,"time":47.04,"velocity":0.4566929133858268},{"duration":0.240000000000002,"midi":74,"time":47.16,"velocity":0.4881889763779528},{"duration":0.12000000000000455,"midi":60,"time":47.16,"velocity":0.4566929133858268},{"duration":0.240000000000002,"midi":82,"time":47.16,"velocity":0.5669291338582677},{"duration":0.11999999999999744,"midi":55,"time":47.28,"velocity":0.4566929133858268},{"duration":0.11999999999999744,"midi":48,"time":47.4,"velocity":0.4566929133858268},{"duration":0.11999999999999744,"midi":72,"time":47.4,"velocity":0.4881889763779528},{"duration":0.11999999999999744,"midi":81,"time":47.4,"velocity":0.5669291338582677},{"duration":0.11999999999999744,"midi":74,"time":47.46,"velocity":0.4881889763779528},{"duration":0.11999999999999744,"midi":82,"time":47.46,"velocity":0.5669291338582677},{"duration":0.12000000000000455,"midi":60,"time":47.519999999999996,"velocity":0.4566929133858268},{"duration":0.12000000000000455,"midi":72,"time":47.519999999999996,"velocity":0.4881889763779528},{"duration":0.12000000000000455,"midi":81,"time":47.519999999999996,"velocity":0.5669291338582677},{"duration":0.23999999999999488,"midi":70,"time":47.64,"velocity":0.4881889763779528},{"duration":0.11999999999999744,"midi":55,"time":47.64,"velocity":0.4566929133858268},{"duration":0.23999999999999488,"midi":79,"time":47.64,"velocity":0.5669291338582677},{"duration":0.240000000000002,"midi":48,"time":47.76,"velocity":0.4566929133858268},{"duration":0.240000000000002,"midi":81,"time":47.879999999999995,"velocity":0.5669291338582677},{"duration":0.240000000000002,"midi":72,"time":47.879999999999995,"velocity":0.4881889763779528},{"duration":0.11999999999999744,"midi":50,"time":48,"velocity":0.4566929133858268},{"duration":0.480000000000004,"midi":77,"time":48.12,"velocity":0.48031496062992124},{"duration":0.480000000000004,"midi":82,"time":48.12,"velocity":0.5669291338582677},{"duration":0.11999999999999744,"midi":62,"time":48.12,"velocity":0.4566929133858268},{"duration":0.480000000000004,"midi":74,"time":48.12,"velocity":0.48031496062992124},{"duration":0.12000000000000455,"midi":57,"time":48.239999999999995,"velocity":0.4566929133858268},{"duration":0.11999999999999744,"midi":50,"time":48.36,"velocity":0.4566929133858268},{"duration":0.12000000000000455,"midi":62,"time":48.48,"velocity":0.4566929133858268},{"duration":0.11999999999999744,"midi":57,"time":48.6,"velocity":0.4566929133858268},{"duration":0.240000000000002,"midi":50,"time":48.72,"velocity":0.4566929133858268},{"duration":0.11999999999999744,"midi":55,"time":48.96,"velocity":0.4566929133858268},{"duration":0.240000000000002,"midi":77,"time":49.08,"velocity":0.48031496062992124},{"duration":0.11999999999999744,"midi":67,"time":49.08,"velocity":0.4566929133858268},{"duration":0.240000000000002,"midi":82,"time":49.08,"velocity":0.5669291338582677},{"duration":0.240000000000002,"midi":74,"time":49.08,"velocity":0.48031496062992124},{"duration":0.12000000000000455,"midi":62,"time":49.199999999999996,"velocity":0.4566929133858268},{"duration":0.11999999999999744,"midi":58,"time":49.32,"velocity":0.4566929133858268},{"duration":0.11999999999999744,"midi":81,"time":49.32,"velocity":0.5669291338582677},{"duration":0.11999999999999744,"midi":72,"time":49.32,"velocity":0.5669291338582677},{"duration":0.12000000000000455,"midi":74,"time":49.379999999999995,"velocity":0.5669291338582677},{"duration":0.12000000000000455,"midi":82,"time":49.379999999999995,"velocity":0.5669291338582677},{"duration":0.11999999999999744,"midi":53,"time":49.44,"velocity":0.4566929133858268},{"duration":0.11999999999999744,"midi":72,"time":49.44,"velocity":0.5669291338582677},{"duration":0.11999999999999744,"midi":81,"time":49.44,"velocity":0.5669291338582677},{"duration":0.12000000000000455,"midi":60,"time":49.559999999999995,"velocity":0.4566929133858268},{"duration":0.240000000000002,"midi":70,"time":49.559999999999995,"velocity":0.5669291338582677},{"duration":0.240000000000002,"midi":79,"time":49.559999999999995,"velocity":0.5669291338582677},{"duration":0.240000000000002,"midi":53,"time":49.68,"velocity":0.4566929133858268},{"duration":0.240000000000002,"midi":72,"time":49.8,"velocity":0.5669291338582677},{"duration":0.240000000000002,"midi":81,"time":49.8,"velocity":0.5669291338582677},{"duration":0.11999999999999744,"midi":51,"time":49.92,"velocity":0.4566929133858268},{"duration":0.11999999999999744,"midi":63,"time":50.04,"velocity":0.4566929133858268},{"duration":0.4799999999999969,"midi":82,"time":50.04,"velocity":0.5669291338582677},{"duration":0.4799999999999969,"midi":77,"time":50.04,"velocity":0.5196850393700787},{"duration":0.4799999999999969,"midi":74,"time":50.04,"velocity":0.48031496062992124},{"duration":0.12000000000000455,"midi":58,"time":50.16,"velocity":0.4566929133858268},{"duration":0.11999999999999744,"midi":51,"time":50.28,"velocity":0.4566929133858268},{"duration":0.11999999999999744,"midi":63,"time":50.4,"velocity":0.4566929133858268},{"duration":0.12000000000000455,"midi":58,"time":50.519999999999996,"velocity":0.4566929133858268},{"duration":0.23999999999999488,"midi":51,"time":50.64,"velocity":0.4566929133858268},{"duration":0.240000000000002,"midi":81,"time":50.76,"velocity":0.5669291338582677},{"duration":0.12000000000000455,"midi":53,"time":50.879999999999995,"velocity":0.4566929133858268},{"duration":0.4799999999999969,"midi":72,"time":51,"velocity":0.5118110236220472},{"duration":0.4799999999999969,"midi":77,"time":51,"velocity":0.5669291338582677},{"duration":0.11999999999999744,"midi":65,"time":51,"velocity":0.4566929133858268},{"duration":0.11999999999999744,"midi":60,"time":51.12,"velocity":0.4566929133858268},{"duration":0.12000000000000455,"midi":53,"time":51.239999999999995,"velocity":0.4566929133858268},{"duration":0.11999999999999744,"midi":54,"time":51.36,"velocity":0.4566929133858268},{"duration":0.12000000000000455,"midi":66,"time":51.48,"velocity":0.4566929133858268},{"duration":0.23999999999999488,"midi":54,"time":51.6,"velocity":0.4566929133858268},{"duration":0.12000000000000455,"midi":74,"time":51.66,"velocity":0.5669291338582677},{"duration":0.240000000000002,"midi":75,"time":51.72,"velocity":0.5669291338582677},{"duration":0.240000000000002,"midi":69,"time":51.72,"velocity":0.44881889763779526},{"duration":0.12000000000000455,"midi":55,"time":51.839999999999996,"velocity":0.4566929133858268},{"duration":0.4799999999999969,"midi":74,"time":51.96,"velocity":0.5669291338582677},{"duration":0.11999999999999744,"midi":67,"time":51.96,"velocity":0.4566929133858268},{"duration":0.4799999999999969,"midi":70,"time":51.96,"velocity":0.44881889763779526},{"duration":0.11999999999999744,"midi":62,"time":52.08,"velocity":0.4566929133858268},{"duration":0.12000000000000455,"midi":55,"time":52.199999999999996,"velocity":0.4566929133858268},{"duration":0.11999999999999744,"midi":67,"time":52.32,"velocity":0.4566929133858268},{"duration":0.11999999999999744,"midi":62,"time":52.44,"velocity":0.4566929133858268},{"duration":0.240000000000002,"midi":55,"time":52.559999999999995,"velocity":0.4566929133858268},{"duration":0.23999999999999488,"midi":72,"time":52.68,"velocity":0.5669291338582677},{"duration":0.23999999999999488,"midi":67,"time":52.68,"velocity":0.4566929133858268},{"duration":0.11999999999999744,"midi":53,"time":52.8,"velocity":0.4566929133858268},{"duration":0.12000000000000455,"midi":65,"time":52.919999999999995,"velocity":0.4566929133858268},{"duration":0.240000000000002,"midi":70,"time":52.919999999999995,"velocity":0.5669291338582677},{"duration":0.240000000000002,"midi":65,"time":52.919999999999995,"velocity":0.4566929133858268},{"duration":0.11999999999999744,"midi":60,"time":53.04,"velocity":0.4566929133858268},{"duration":0.240000000000002,"midi":67,"time":53.16,"velocity":0.4566929133858268},{"duration":0.240000000000002,"midi":72,"time":53.16,"velocity":0.5669291338582677},{"duration":0.12000000000000455,"midi":53,"time":53.16,"velocity":0.4566929133858268},{"duration":0.11999999999999744,"midi":65,"time":53.28,"velocity":0.4566929133858268},{"duration":0.11999999999999744,"midi":60,"time":53.4,"velocity":0.4566929133858268},{"duration":0.240000000000002,"midi":70,"time":53.4,"velocity":0.4566929133858268},{"duration":0.240000000000002,"midi":74,"time":53.4,"velocity":0.5669291338582677},{"duration":0.240000000000002,"midi":53,"time":53.519999999999996,"velocity":0.4566929133858268},{"duration":0.23999999999999488,"midi":72,"time":53.64,"velocity":0.4566929133858268},{"duration":0.23999999999999488,"midi":75,"time":53.64,"velocity":0.5669291338582677},{"duration":0.11999999999999744,"midi":48,"time":53.76,"velocity":0.4566929133858268},{"duration":0.12000000000000455,"midi":60,"time":53.879999999999995,"velocity":0.4566929133858268},{"duration":0.240000000000002,"midi":77,"time":53.879999999999995,"velocity":0.5669291338582677},{"duration":0.240000000000002,"midi":74,"time":53.879999999999995,"velocity":0.4566929133858268},{"duration":0.11999999999999744,"midi":55,"time":54,"velocity":0.4566929133858268},{"duration":0.240000000000002,"midi":74,"time":54.12,"velocity":0.4566929133858268},{"duration":0.240000000000002,"midi":77,"time":54.12,"velocity":0.5669291338582677},{"duration":0.11999999999999744,"midi":48,"time":54.12,"velocity":0.4566929133858268},{"duration":0.11999999999999744,"midi":67,"time":54.12,"velocity":0.4566929133858268},{"duration":0.11999999999999744,"midi":55,"time":54.36,"velocity":0.4566929133858268},{"duration":0.240000000000002,"midi":77,"time":54.36,"velocity":0.5669291338582677},{"duration":0.240000000000002,"midi":72,"time":54.36,"velocity":0.4566929133858268},{"duration":0.240000000000002,"midi":48,"time":54.48,"velocity":0.4566929133858268},{"duration":0.23999999999999488,"midi":77,"time":54.6,"velocity":0.5669291338582677},{"duration":0.23999999999999488,"midi":72,"time":54.6,"velocity":0.4566929133858268},{"duration":0.11999999999999744,"midi":48,"time":54.72,"velocity":0.4566929133858268},{"duration":0.12000000000000455,"midi":60,"time":54.839999999999996,"velocity":0.4566929133858268},{"duration":0.480000000000004,"midi":77,"time":54.839999999999996,"velocity":0.5669291338582677},{"duration":0.480000000000004,"midi":70,"time":54.839999999999996,"velocity":0.4566929133858268},{"duration":0.11999999999999744,"midi":55,"time":54.96,"velocity":0.4566929133858268},{"duration":0.11999999999999744,"midi":48,"time":55.08,"velocity":0.4566929133858268},{"duration":0.12000000000000455,"midi":60,"time":55.199999999999996,"velocity":0.4566929133858268},{"duration":0.11999999999999744,"midi":55,"time":55.32,"velocity":0.4566929133858268},{"duration":0.23999999999999488,"midi":70,"time":55.32,"velocity":0.5669291338582677},{"duration":0.240000000000002,"midi":48,"time":55.44,"velocity":0.4566929133858268},{"duration":0.11999999999999744,"midi":73,"time":55.5,"velocity":0.5669291338582677},{"duration":0.240000000000002,"midi":74,"time":55.559999999999995,"velocity":0.5669291338582677},{"duration":0.11999999999999744,"midi":50,"time":55.68,"velocity":0.4566929133858268},{"duration":0.240000000000002,"midi":72,"time":55.8,"velocity":0.5669291338582677},{"duration":0.240000000000002,"midi":69,"time":55.8,"velocity":0.4566929133858268},{"duration":0.11999999999999744,"midi":60,"time":55.8,"velocity":0.4566929133858268},{"duration":0.12000000000000455,"midi":57,"time":55.919999999999995,"velocity":0.4566929133858268},{"duration":0.240000000000002,"midi":72,"time":56.04,"velocity":0.5669291338582677},{"duration":0.240000000000002,"midi":69,"time":56.04,"velocity":0.4566929133858268},{"duration":0.11999999999999744,"midi":53,"time":56.04,"velocity":0.4566929133858268},{"duration":0.11999999999999744,"midi":65,"time":56.04,"velocity":0.4566929133858268},{"duration":0.12000000000000455,"midi":67,"time":56.16,"velocity":0.4566929133858268},{"duration":0.23999999999999488,"midi":72,"time":56.28,"velocity":0.5669291338582677},{"duration":0.23999999999999488,"midi":67,"time":56.28,"velocity":0.4566929133858268},{"duration":0.11999999999999744,"midi":60,"time":56.28,"velocity":0.4566929133858268},{"duration":0.11999999999999744,"midi":69,"time":56.28,"velocity":0.4566929133858268},{"duration":0.240000000000002,"midi":67,"time":56.4,"velocity":0.4566929133858268},{"duration":0.240000000000002,"midi":50,"time":56.4,"velocity":0.4566929133858268},{"duration":0.240000000000002,"midi":67,"time":56.519999999999996,"velocity":0.4566929133858268},{"duration":0.240000000000002,"midi":72,"time":56.519999999999996,"velocity":0.5669291338582677},{"duration":0.11999999999999744,"midi":50,"time":56.64,"velocity":0.4566929133858268},{"duration":0.11999999999999744,"midi":62,"time":56.76,"velocity":0.4566929133858268},{"duration":0.35999999999999943,"midi":72,"time":56.76,"velocity":0.5669291338582677},{"duration":0.35999999999999943,"midi":65,"time":56.76,"velocity":0.4566929133858268},{"duration":0.12000000000000455,"midi":57,"time":56.879999999999995,"velocity":0.4566929133858268},{"duration":0.11999999999999744,"midi":50,"time":57,"velocity":0.4566929133858268},{"duration":0.11999999999999744,"midi":62,"time":57.12,"velocity":0.4566929133858268},{"duration":0.11999999999999744,"midi":73,"time":57.18,"velocity":0.5669291338582677},{"duration":0.240000000000002,"midi":70,"time":57.239999999999995,"velocity":0.4566929133858268},{"duration":0.240000000000002,"midi":74,"time":57.239999999999995,"velocity":0.5669291338582677},{"duration":0.12000000000000455,"midi":57,"time":57.239999999999995,"velocity":0.4566929133858268},{"duration":0.23999999999999488,"midi":50,"time":57.36,"velocity":0.4566929133858268},{"duration":0.240000000000002,"midi":67,"time":57.48,"velocity":0.4566929133858268},{"duration":0.240000000000002,"midi":72,"time":57.48,"velocity":0.5669291338582677},{"duration":0.12000000000000455,"midi":51,"time":57.599999999999994,"velocity":0.4566929133858268},{"duration":0.4799999999999969,"midi":65,"time":57.72,"velocity":0.4566929133858268},{"duration":0.11999999999999744,"midi":63,"time":57.72,"velocity":0.4566929133858268},{"duration":0.4799999999999969,"midi":70,"time":57.72,"velocity":0.5669291338582677},{"duration":0.12000000000000455,"midi":58,"time":57.839999999999996,"velocity":0.4566929133858268},{"duration":0.11999999999999744,"midi":51,"time":57.96,"velocity":0.4566929133858268},{"duration":0.11999999999999744,"midi":63,"time":58.08,"velocity":0.4566929133858268},{"duration":0.12000000000000455,"midi":58,"time":58.199999999999996,"velocity":0.4566929133858268},{"duration":0.23999999999999488,"midi":51,"time":58.32,"velocity":0.4566929133858268},{"duration":0.240000000000002,"midi":65,"time":58.44,"velocity":0.5669291338582677},{"duration":0.240000000000002,"midi":62,"time":58.44,"velocity":0.4566929133858268},{"duration":0.12000000000000455,"midi":53,"time":58.559999999999995,"velocity":0.4566929133858268},{"duration":0.23999999999999488,"midi":74,"time":58.68,"velocity":0.5669291338582677},{"duration":0.23999999999999488,"midi":70,"time":58.68,"velocity":0.4566929133858268},{"duration":0.11999999999999744,"midi":65,"time":58.68,"velocity":0.4566929133858268},{"duration":0.11999999999999744,"midi":60,"time":58.8,"velocity":0.4566929133858268},{"duration":0.240000000000002,"midi":72,"time":58.919999999999995,"velocity":0.4566929133858268},{"duration":0.240000000000002,"midi":75,"time":58.919999999999995,"velocity":0.5669291338582677},{"duration":0.12000000000000455,"midi":53,"time":58.919999999999995,"velocity":0.4566929133858268},{"duration":0.240000000000002,"midi":65,"time":59.04,"velocity":0.4566929133858268},{"duration":0.240000000000002,"midi":69,"time":59.16,"velocity":0.4566929133858268},{"duration":0.240000000000002,"midi":72,"time":59.16,"velocity":0.5669291338582677},{"duration":0.12000000000000455,"midi":70,"time":59.519999999999996,"velocity":0.5669291338582677},{"duration":0.12000000000000455,"midi":67,"time":59.519999999999996,"velocity":0.5669291338582677},{"duration":0.12000000000000455,"midi":55,"time":59.519999999999996,"velocity":0.4566929133858268},{"duration":0.4799999999999969,"midi":70,"time":59.64,"velocity":0.5669291338582677},{"duration":0.11999999999999744,"midi":67,"time":59.64,"velocity":0.4566929133858268},{"duration":0.4799999999999969,"midi":67,"time":59.64,"velocity":0.4566929133858268},{"duration":0.11999999999999744,"midi":62,"time":59.76,"velocity":0.4566929133858268},{"duration":0.12000000000000455,"midi":55,"time":59.879999999999995,"velocity":0.4566929133858268},{"duration":0.11999999999999744,"midi":67,"time":60,"velocity":0.4566929133858268},{"duration":0.11999999999999744,"midi":62,"time":60.12,"velocity":0.4566929133858268},{"duration":0.240000000000002,"midi":55,"time":60.239999999999995,"velocity":0.4566929133858268},{"duration":0.23999999999999488,"midi":65,"time":60.36,"velocity":0.2677165354330709},{"duration":0.11999999999999744,"midi":53,"time":60.48,"velocity":0.4566929133858268},{"duration":0.240000000000002,"midi":70,"time":60.599999999999994,"velocity":0.30708661417322836},{"duration":0.12000000000000455,"midi":65,"time":60.599999999999994,"velocity":0.4566929133858268},{"duration":0.11999999999999744,"midi":60,"time":60.72,"velocity":0.4566929133858268},{"duration":0.240000000000002,"midi":72,"time":60.839999999999996,"velocity":0.33858267716535434},{"duration":0.240000000000002,"midi":74,"time":61.08,"velocity":0.3779527559055118},{"duration":0.23999999999999488,"midi":75,"time":61.32,"velocity":0.3937007874015748},{"duration":0.12000000000000455,"midi":77,"time":61.559999999999995,"velocity":0.4251968503937008},{"duration":0.11999999999999744,"midi":77,"time":61.8,"velocity":0.4251968503937008},{"duration":0.11999999999999744,"midi":77,"time":62.04,"velocity":0.4251968503937008},{"duration":0.11999999999999744,"midi":77,"time":62.28,"velocity":0.4251968503937008},{"duration":0.480000000000004,"midi":77,"time":62.519999999999996,"velocity":0.4251968503937008},{"duration":0.23999999999999488,"midi":70,"time":63,"velocity":0.4251968503937008},{"duration":0.240000000000002,"midi":74,"time":63.239999999999995,"velocity":0.4251968503937008},{"duration":0.11999999999999744,"midi":72,"time":63.48,"velocity":0.4251968503937008},{"duration":0.11999999999999744,"midi":72,"time":63.72,"velocity":0.4251968503937008},{"duration":0.11999999999999744,"midi":72,"time":63.96,"velocity":0.4251968503937008},{"duration":0.11999999999999034,"midi":72,"time":64.2,"velocity":0.4251968503937008},{"duration":0.7199999999999989,"midi":72,"time":64.44,"velocity":0.4251968503937008},{"duration":0.12000000000000455,"midi":74,"time":65.16,"velocity":0.4251968503937008},{"duration":0.11999999999999034,"midi":72,"time":65.28,"velocity":0.4251968503937008},{"duration":0.12000000000000455,"midi":70,"time":65.39999999999999,"velocity":0.4251968503937008},{"duration":0.11999999999999034,"midi":70,"time":65.64,"velocity":0.4251968503937008},{"duration":0.12000000000000455,"midi":70,"time":65.88,"velocity":0.4251968503937008},{"duration":0.11999999999999034,"midi":70,"time":66.12,"velocity":0.4251968503937008},{"duration":0.480000000000004,"midi":70,"time":66.36,"velocity":0.4251968503937008},{"duration":0.23999999999999488,"midi":81,"time":66.84,"velocity":0.4251968503937008},{"duration":0.23999999999999488,"midi":82,"time":67.08,"velocity":0.4251968503937008},{"duration":0.7199999999999989,"midi":81,"time":67.32,"velocity":0.4251968503937008},{"duration":0.2400000000000091,"midi":77,"time":68.03999999999999,"velocity":0.4251968503937008},{"duration":0.7199999999999989,"midi":74,"time":68.28,"velocity":0.4251968503937008},{"duration":0.12000000000000455,"midi":74,"time":69,"velocity":0.4251968503937008},{"duration":0.11999999999999034,"midi":75,"time":69.12,"velocity":0.4251968503937008},{"duration":0.12000000000000455,"midi":77,"time":69.24,"velocity":0.4251968503937008},{"duration":0.11999999999999034,"midi":77,"time":69.48,"velocity":0.4251968503937008},{"duration":0.12000000000000455,"midi":77,"time":69.72,"velocity":0.4251968503937008},{"duration":0.12000000000000455,"midi":77,"time":69.96,"velocity":0.4251968503937008},{"duration":0.47999999999998977,"midi":77,"time":70.2,"velocity":0.4251968503937008},{"duration":0.2400000000000091,"midi":70,"time":70.67999999999999,"velocity":0.4251968503937008},{"duration":0.23999999999999488,"midi":74,"time":70.92,"velocity":0.4251968503937008},{"duration":0.12000000000000455,"midi":72,"time":71.16,"velocity":0.4251968503937008},{"duration":0.12000000000000455,"midi":72,"time":71.39999999999999,"velocity":0.4251968503937008},{"duration":0.11999999999999034,"midi":72,"time":71.64,"velocity":0.4251968503937008},{"duration":0.12000000000000455,"midi":72,"time":71.88,"velocity":0.4251968503937008},{"duration":0.480000000000004,"midi":72,"time":72.11999999999999,"velocity":0.4251968503937008},{"duration":0.2400000000000091,"midi":74,"time":72.6,"velocity":0.4251968503937008},{"duration":0.23999999999999488,"midi":72,"time":72.84,"velocity":0.4251968503937008},{"duration":0.12000000000000455,"midi":74,"time":73.08,"velocity":0.4251968503937008},{"duration":0.12000000000000455,"midi":74,"time":73.32,"velocity":0.4251968503937008},{"duration":0.11999999999999034,"midi":74,"time":73.56,"velocity":0.4251968503937008},{"duration":0.12000000000000455,"midi":74,"time":73.8,"velocity":0.4251968503937008},{"duration":0.480000000000004,"midi":74,"time":74.03999999999999,"velocity":0.4251968503937008},{"duration":0.23999999999999488,"midi":75,"time":74.52,"velocity":0.4251968503937008},{"duration":0.2400000000000091,"midi":74,"time":74.75999999999999,"velocity":0.4251968503937008},{"duration":0.7199999999999989,"midi":72,"time":75,"velocity":0.4251968503937008},{"duration":0.23999999999999488,"midi":62,"time":75.72,"velocity":0.4251968503937008},{"duration":0.23999999999999488,"midi":65,"time":75.72,"velocity":0.4251968503937008},{"duration":0.2400000000000091,"midi":70,"time":75.96,"velocity":0.4251968503937008},{"duration":0.2400000000000091,"midi":67,"time":75.96,"velocity":0.4251968503937008},{"duration":0.23999999999999488,"midi":72,"time":76.2,"velocity":0.4251968503937008},{"duration":0.23999999999999488,"midi":69,"time":76.2,"velocity":0.4251968503937008},{"duration":0.23999999999999488,"midi":74,"time":76.44,"velocity":0.4251968503937008},{"duration":0.23999999999999488,"midi":70,"time":76.44,"velocity":0.4251968503937008},{"duration":0.2400000000000091,"midi":75,"time":76.67999999999999,"velocity":0.4251968503937008},{"duration":0.2400000000000091,"midi":72,"time":76.67999999999999,"velocity":0.4251968503937008},{"duration":0.12000000000000455,"midi":51,"time":76.8,"velocity":0.4566929133858268},{"duration":0.11999999999999034,"midi":77,"time":76.92,"velocity":0.4251968503937008},{"duration":0.11999999999999034,"midi":74,"time":76.92,"velocity":0.4251968503937008},{"duration":0.12000000000000455,"midi":55,"time":77.03999999999999,"velocity":0.4566929133858268},{"duration":0.12000000000000455,"midi":58,"time":77.03999999999999,"velocity":0.4566929133858268},{"duration":0.12000000000000455,"midi":74,"time":77.16,"velocity":0.4251968503937008},{"duration":0.12000000000000455,"midi":77,"time":77.16,"velocity":0.4251968503937008},{"duration":0.11999999999999034,"midi":51,"time":77.28,"velocity":0.4566929133858268},{"duration":0.12000000000000455,"midi":72,"time":77.39999999999999,"velocity":0.4251968503937008},{"duration":0.12000000000000455,"midi":77,"time":77.39999999999999,"velocity":0.4251968503937008},{"duration":0.12000000000000455,"midi":55,"time":77.52,"velocity":0.4566929133858268},{"duration":0.12000000000000455,"midi":58,"time":77.52,"velocity":0.4566929133858268},{"duration":0.11999999999999034,"midi":72,"time":77.64,"velocity":0.4251968503937008},{"duration":0.11999999999999034,"midi":77,"time":77.64,"velocity":0.4251968503937008},{"duration":0.12000000000000455,"midi":51,"time":77.75999999999999,"velocity":0.4566929133858268},{"duration":0.480000000000004,"midi":70,"time":77.88,"velocity":0.4251968503937008},{"duration":0.480000000000004,"midi":77,"time":77.88,"velocity":0.4251968503937008},{"duration":0.11999999999999034,"midi":55,"time":78,"velocity":0.4566929133858268},{"duration":0.11999999999999034,"midi":58,"time":78,"velocity":0.4566929133858268},{"duration":0.12000000000000455,"midi":51,"time":78.24,"velocity":0.4566929133858268},{"duration":0.23999999999999488,"midi":70,"time":78.36,"velocity":0.4251968503937008},{"duration":0.23999999999999488,"midi":67,"time":78.36,"velocity":0.4251968503937008},{"duration":0.11999999999999034,"midi":55,"time":78.48,"velocity":0.4566929133858268},{"duration":0.11999999999999034,"midi":58,"time":78.48,"velocity":0.4566929133858268},{"duration":0.2400000000000091,"midi":74,"time":78.6,"velocity":0.4251968503937008},{"duration":0.2400000000000091,"midi":70,"time":78.6,"velocity":0.4251968503937008},{"duration":0.12000000000000455,"midi":53,"time":78.72,"velocity":0.4566929133858268},{"duration":0.11999999999999034,"midi":69,"time":78.84,"velocity":0.4251968503937008},{"duration":0.11999999999999034,"midi":72,"time":78.84,"velocity":0.4251968503937008},{"duration":0.12000000000000455,"midi":60,"time":78.96,"velocity":0.4566929133858268},{"duration":0.12000000000000455,"midi":57,"time":78.96,"velocity":0.4566929133858268},{"duration":0.12000000000000455,"midi":72,"time":79.08,"velocity":0.4251968503937008},{"duration":0.12000000000000455,"midi":69,"time":79.08,"velocity":0.4251968503937008},{"duration":0.11999999999999034,"midi":53,"time":79.2,"velocity":0.4566929133858268},{"duration":0.12000000000000455,"midi":67,"time":79.32,"velocity":0.4251968503937008},{"duration":0.12000000000000455,"midi":72,"time":79.32,"velocity":0.4251968503937008},{"duration":0.12000000000000455,"midi":57,"time":79.44,"velocity":0.4566929133858268},{"duration":0.12000000000000455,"midi":60,"time":79.44,"velocity":0.4566929133858268},{"duration":0.11999999999999034,"midi":72,"time":79.56,"velocity":0.4251968503937008},{"duration":0.11999999999999034,"midi":67,"time":79.56,"velocity":0.4251968503937008},{"duration":0.12000000000000455,"midi":53,"time":79.67999999999999,"velocity":0.4566929133858268},{"duration":0.7199999999999989,"midi":65,"time":79.8,"velocity":0.4251968503937008},{"duration":0.7199999999999989,"midi":72,"time":79.8,"velocity":0.4251968503937008},{"duration":0.11999999999999034,"midi":60,"time":79.92,"velocity":0.4566929133858268},{"duration":0.11999999999999034,"midi":57,"time":79.92,"velocity":0.4566929133858268},{"duration":0.12000000000000455,"midi":53,"time":80.16,"velocity":0.4566929133858268},{"duration":0.12000000000000455,"midi":60,"time":80.39999999999999,"velocity":0.4566929133858268},{"duration":0.12000000000000455,"midi":57,"time":80.39999999999999,"velocity":0.4566929133858268},{"duration":0.12000000000000455,"midi":70,"time":80.52,"velocity":0.4251968503937008},{"duration":0.12000000000000455,"midi":74,"time":80.52,"velocity":0.4251968503937008},{"duration":0.11999999999999034,"midi":55,"time":80.64,"velocity":0.4566929133858268},{"duration":0.11999999999999034,"midi":72,"time":80.64,"velocity":0.4251968503937008},{"duration":0.11999999999999034,"midi":69,"time":80.64,"velocity":0.4251968503937008},{"duration":0.12000000000000455,"midi":70,"time":80.75999999999999,"velocity":0.4251968503937008},{"duration":0.12000000000000455,"midi":67,"time":80.75999999999999,"velocity":0.4251968503937008},{"duration":0.12000000000000455,"midi":62,"time":80.88,"velocity":0.4566929133858268},{"duration":0.12000000000000455,"midi":58,"time":80.88,"velocity":0.4566929133858268},{"duration":0.11999999999999034,"midi":67,"time":81,"velocity":0.4251968503937008},{"duration":0.11999999999999034,"midi":70,"time":81,"velocity":0.4251968503937008},{"duration":0.12000000000000455,"midi":55,"time":81.11999999999999,"velocity":0.4566929133858268},{"duration":0.12000000000000455,"midi":70,"time":81.24,"velocity":0.4251968503937008},{"duration":0.12000000000000455,"midi":65,"time":81.24,"velocity":0.4251968503937008},{"duration":0.12000000000000455,"midi":62,"time":81.36,"velocity":0.4566929133858268},{"duration":0.12000000000000455,"midi":58,"time":81.36,"velocity":0.4566929133858268},{"duration":0.11999999999999034,"midi":70,"time":81.48,"velocity":0.4251968503937008},{"duration":0.11999999999999034,"midi":65,"time":81.48,"velocity":0.4251968503937008},{"duration":0.12000000000000455,"midi":55,"time":81.6,"velocity":0.4566929133858268},{"duration":0.23999999999999488,"midi":62,"time":81.72,"velocity":0.4251968503937008},{"duration":0.480000000000004,"midi":70,"time":81.72,"velocity":0.4251968503937008},{"duration":0.11999999999999034,"midi":58,"time":81.84,"velocity":0.4566929133858268},{"duration":0.35999999999999943,"midi":62,"time":81.84,"velocity":0.4566929133858268},{"duration":0.12000000000000455,"midi":55,"time":82.08,"velocity":0.4566929133858268},{"duration":0.23999999999999488,"midi":81,"time":82.2,"velocity":0.4251968503937008},{"duration":0.23999999999999488,"midi":77,"time":82.2,"velocity":0.4251968503937008},{"duration":0.12000000000000455,"midi":58,"time":82.32,"velocity":0.4566929133858268},{"duration":0.12000000000000455,"midi":62,"time":82.32,"velocity":0.4566929133858268},{"duration":0.23999999999999488,"midi":79,"time":82.44,"velocity":0.4251968503937008},{"duration":0.23999999999999488,"midi":82,"time":82.44,"velocity":0.4251968503937008},{"duration":0.11999999999999034,"midi":53,"time":82.56,"velocity":0.4566929133858268},{"duration":0.7199999999999989,"midi":81,"time":82.67999999999999,"velocity":0.4251968503937008},{"duration":0.7199999999999989,"midi":77,"time":82.67999999999999,"velocity":0.4251968503937008},{"duration":0.12000000000000455,"midi":60,"time":82.8,"velocity":0.4566929133858268},{"duration":0.12000000000000455,"midi":57,"time":82.8,"velocity":0.4566929133858268},{"duration":0.12000000000000455,"midi":53,"time":83.03999999999999,"velocity":0.4566929133858268},{"duration":0.11999999999999034,"midi":60,"time":83.28,"velocity":0.4566929133858268},{"duration":0.11999999999999034,"midi":57,"time":83.28,"velocity":0.4566929133858268},{"duration":0.2400000000000091,"midi":72,"time":83.39999999999999,"velocity":0.4251968503937008},{"duration":0.2400000000000091,"midi":77,"time":83.39999999999999,"velocity":0.4251968503937008},{"duration":0.12000000000000455,"midi":53,"time":83.52,"velocity":0.4566929133858268},{"duration":0.7199999999999989,"midi":69,"time":83.64,"velocity":0.4251968503937008},{"duration":0.7199999999999989,"midi":74,"time":83.64,"velocity":0.4251968503937008},{"duration":0.2400000000000091,"midi":60,"time":83.75999999999999,"velocity":0.4566929133858268},{"duration":0.23999999999999488,"midi":57,"time":84,"velocity":0.4566929133858268},{"duration":0.23999999999999488,"midi":60,"time":84.24,"velocity":0.4566929133858268},{"duration":0.11999999999999034,"midi":70,"time":84.36,"velocity":0.4251968503937008},{"duration":0.11999999999999034,"midi":74,"time":84.36,"velocity":0.4251968503937008},{"duration":0.12000000000000455,"midi":75,"time":84.47999999999999,"velocity":0.4251968503937008},{"duration":0.12000000000000455,"midi":72,"time":84.47999999999999,"velocity":0.4251968503937008},{"duration":0.12000000000000455,"midi":51,"time":84.47999999999999,"velocity":0.4566929133858268},{"duration":0.12000000000000455,"midi":77,"time":84.6,"velocity":0.4251968503937008},{"duration":0.12000000000000455,"midi":74,"time":84.6,"velocity":0.4251968503937008},{"duration":0.12000000000000455,"midi":55,"time":84.72,"velocity":0.4566929133858268},{"duration":0.12000000000000455,"midi":58,"time":84.72,"velocity":0.4566929133858268},{"duration":0.11999999999999034,"midi":74,"time":84.84,"velocity":0.4251968503937008},{"duration":0.11999999999999034,"midi":77,"time":84.84,"velocity":0.4251968503937008},{"duration":0.12000000000000455,"midi":51,"time":84.96,"velocity":0.4566929133858268},{"duration":0.12000000000000455,"midi":72,"time":85.08,"velocity":0.4251968503937008},{"duration":0.12000000000000455,"midi":77,"time":85.08,"velocity":0.4251968503937008},{"duration":0.11999999999999034,"midi":55,"time":85.2,"velocity":0.4566929133858268},{"duration":0.11999999999999034,"midi":58,"time":85.2,"velocity":0.4566929133858268},{"duration":0.12000000000000455,"midi":77,"time":85.32,"velocity":0.4251968503937008},{"duration":0.12000000000000455,"midi":72,"time":85.32,"velocity":0.4251968503937008},{"duration":0.12000000000000455,"midi":51,"time":85.44,"velocity":0.4566929133858268},{"duration":0.47999999999998977,"midi":70,"time":85.56,"velocity":0.4251968503937008},{"duration":0.47999999999998977,"midi":77,"time":85.56,"velocity":0.4251968503937008},{"duration":0.12000000000000455,"midi":58,"time":85.67999999999999,"velocity":0.4566929133858268},{"duration":0.12000000000000455,"midi":55,"time":85.67999999999999,"velocity":0.4566929133858268},{"duration":0.11999999999999034,"midi":51,"time":85.92,"velocity":0.4566929133858268},{"duration":0.2400000000000091,"midi":67,"time":86.03999999999999,"velocity":0.4251968503937008},{"duration":0.2400000000000091,"midi":70,"time":86.03999999999999,"velocity":0.4251968503937008},{"duration":0.12000000000000455,"midi":58,"time":86.16,"velocity":0.4566929133858268},{"duration":0.12000000000000455,"midi":55,"time":86.16,"velocity":0.4566929133858268},{"duration":0.23999999999999488,"midi":70,"time":86.28,"velocity":0.4251968503937008},{"duration":0.23999999999999488,"midi":74,"time":86.28,"velocity":0.4251968503937008},{"duration":0.12000000000000455,"midi":53,"time":86.39999999999999,"velocity":0.4566929133858268},{"duration":0.12000000000000455,"midi":69,"time":86.52,"velocity":0.4251968503937008},{"duration":0.12000000000000455,"midi":72,"time":86.52,"velocity":0.4251968503937008},{"duration":0.11999999999999034,"midi":57,"time":86.64,"velocity":0.4566929133858268},{"duration":0.11999999999999034,"midi":60,"time":86.64,"velocity":0.4566929133858268},{"duration":0.12000000000000455,"midi":69,"time":86.75999999999999,"velocity":0.4251968503937008},{"duration":0.12000000000000455,"midi":72,"time":86.75999999999999,"velocity":0.4251968503937008},{"duration":0.12000000000000455,"midi":53,"time":86.88,"velocity":0.4566929133858268},{"duration":0.11999999999999034,"midi":72,"time":87,"velocity":0.4251968503937008},{"duration":0.11999999999999034,"midi":67,"time":87,"velocity":0.4251968503937008},{"duration":0.12000000000000455,"midi":60,"time":87.11999999999999,"velocity":0.4566929133858268},{"duration":0.12000000000000455,"midi":57,"time":87.11999999999999,"velocity":0.4566929133858268},{"duration":0.12000000000000455,"midi":72,"time":87.24,"velocity":0.4251968503937008},{"duration":0.12000000000000455,"midi":67,"time":87.24,"velocity":0.4251968503937008},{"duration":0.11999999999999034,"midi":53,"time":87.36,"velocity":0.4566929133858268},{"duration":0.480000000000004,"midi":72,"time":87.47999999999999,"velocity":0.4251968503937008},{"duration":0.480000000000004,"midi":65,"time":87.47999999999999,"velocity":0.4251968503937008},{"duration":0.12000000000000455,"midi":57,"time":87.6,"velocity":0.4566929133858268},{"duration":0.12000000000000455,"midi":60,"time":87.6,"velocity":0.4566929133858268},{"duration":0.23999999999999488,"midi":53,"time":87.84,"velocity":0.4566929133858268},{"duration":0.2400000000000091,"midi":70,"time":87.96,"velocity":0.4251968503937008},{"duration":0.2400000000000091,"midi":74,"time":87.96,"velocity":0.4251968503937008},{"duration":0.23999999999999488,"midi":57,"time":88.08,"velocity":0.4566929133858268},{"duration":0.23999999999999488,"midi":72,"time":88.2,"velocity":0.4251968503937008},{"duration":0.23999999999999488,"midi":57,"time":88.2,"velocity":0.4251968503937008},{"duration":0.23999999999999488,"midi":69,"time":88.2,"velocity":0.4251968503937008},{"duration":0.12000000000000455,"midi":48,"time":88.32,"velocity":0.4566929133858268},{"duration":0.7199999999999989,"midi":70,"time":88.44,"velocity":0.4251968503937008},{"duration":0.7199999999999989,"midi":67,"time":88.44,"velocity":0.4251968503937008},{"duration":0.23999999999999488,"midi":58,"time":88.44,"velocity":0.4251968503937008},{"duration":0.5999999999999943,"midi":58,"time":88.56,"velocity":0.4566929133858268},{"duration":0.11999999999999034,"midi":55,"time":88.56,"velocity":0.4566929133858268},{"duration":0.12000000000000455,"midi":48,"time":88.8,"velocity":0.4566929133858268},{"duration":0.12000000000000455,"midi":58,"time":89.03999999999999,"velocity":0.4566929133858268},{"duration":0.12000000000000455,"midi":55,"time":89.03999999999999,"velocity":0.4566929133858268},{"duration":0.23999999999999488,"midi":65,"time":89.16,"velocity":0.4251968503937008},{"duration":0.23999999999999488,"midi":58,"time":89.16,"velocity":0.4251968503937008},{"duration":0.23999999999999488,"midi":53,"time":89.28,"velocity":0.4566929133858268},{"duration":0.2400000000000091,"midi":58,"time":89.39999999999999,"velocity":0.4251968503937008},{"duration":0.2400000000000091,"midi":74,"time":89.39999999999999,"velocity":0.4251968503937008},{"duration":0.23999999999999488,"midi":60,"time":89.52,"velocity":0.4566929133858268},{"duration":0.23999999999999488,"midi":60,"time":89.64,"velocity":0.4251968503937008},{"duration":0.23999999999999488,"midi":75,"time":89.64,"velocity":0.4251968503937008},{"duration":0.35999999999999943,"midi":65,"time":89.75999999999999,"velocity":0.4566929133858268},{"duration":0.35999999999999943,"midi":72,"time":89.88,"velocity":0.4251968503937008},{"duration":0.35999999999999943,"midi":65,"time":89.88,"velocity":0.4251968503937008},{"duration":0.12000000000000455,"midi":63,"time":90.11999999999999,"velocity":0.4566929133858268},{"duration":0.12000000000000455,"midi":58,"time":90.24,"velocity":0.33070866141732286},{"duration":0.12000000000000455,"midi":50,"time":90.24,"velocity":0.4566929133858268},{"duration":0.12000000000000455,"midi":70,"time":90.24,"velocity":0.4251968503937008},{"duration":0.12000000000000455,"midi":63,"time":90.24,"velocity":0.4251968503937008},{"duration":0.12000000000000455,"midi":62,"time":90.24,"velocity":0.4566929133858268},{"duration":1.4399999999999977,"midi":70,"time":90.36,"velocity":0.4251968503937008},{"duration":0.23999999999999488,"midi":58,"time":90.36,"velocity":0.33070866141732286},{"duration":0.23999999999999488,"midi":62,"time":90.36,"velocity":0.4251968503937008},{"duration":0.6000000000000085,"midi":58,"time":90.47999999999999,"velocity":0.4566929133858268},{"duration":0.6000000000000085,"midi":62,"time":90.47999999999999,"velocity":0.4566929133858268},{"duration":0.12000000000000455,"midi":50,"time":90.72,"velocity":0.4566929133858268},{"duration":0.8400000000000034,"midi":62,"time":90.96,"velocity":0.4566929133858268},{"duration":0.8400000000000034,"midi":58,"time":90.96,"velocity":0.4566929133858268},{"duration":0.23999999999999488,"midi":50,"time":91.2,"velocity":0.4566929133858268},{"duration":0.23999999999999488,"midi":60,"time":91.44,"velocity":0.4566929133858268},{"duration":0.2400000000000091,"midi":65,"time":91.67999999999999,"velocity":0.4566929133858268},{"duration":0.23999999999999488,"midi":60,"time":91.92,"velocity":0.4566929133858268},{"duration":0.12000000000000455,"midi":48,"time":92.16,"velocity":0.4566929133858268},{"duration":0.12000000000000455,"midi":55,"time":92.39999999999999,"velocity":0.4566929133858268},{"duration":0.12000000000000455,"midi":51,"time":92.39999999999999,"velocity":0.4566929133858268},{"duration":0.11999999999999034,"midi":48,"time":92.64,"velocity":0.4566929133858268},{"duration":0.12000000000000455,"midi":51,"time":92.88,"velocity":0.4566929133858268},{"duration":0.12000000000000455,"midi":55,"time":92.88,"velocity":0.4566929133858268},{"duration":0.2400000000000091,"midi":53,"time":93.11999999999999,"velocity":0.4566929133858268},{"duration":0.23999999999999488,"midi":60,"time":93.36,"velocity":0.4566929133858268},{"duration":0.35999999999999943,"midi":65,"time":93.6,"velocity":0.4566929133858268},{"duration":0.12000000000000455,"midi":63,"time":93.96,"velocity":0.4566929133858268},{"duration":0.12000000000000455,"midi":55,"time":94.08,"velocity":0.4566929133858268},{"duration":0.480000000000004,"midi":62,"time":94.08,"velocity":0.4566929133858268},{"duration":0.12000000000000455,"midi":65,"time":94.32,"velocity":0.4566929133858268},{"duration":0.12000000000000455,"midi":58,"time":94.32,"velocity":0.4566929133858268},{"duration":0.11999999999999034,"midi":55,"time":94.56,"velocity":0.4566929133858268},{"duration":0.12000000000000455,"midi":58,"time":94.8,"velocity":0.4566929133858268},{"duration":0.12000000000000455,"midi":65,"time":94.8,"velocity":0.4566929133858268},{"duration":0.2400000000000091,"midi":53,"time":95.03999999999999,"velocity":0.4566929133858268},{"duration":0.23999999999999488,"midi":60,"time":95.28,"velocity":0.4566929133858268},{"duration":0.23999999999999488,"midi":53,"time":95.52,"velocity":0.4566929133858268},{"duration":0.2400000000000091,"midi":60,"time":95.75999999999999,"velocity":0.4566929133858268},{"duration":1.9200000000000017,"midi":51,"time":96,"velocity":0.4566929133858268},{"duration":0.11999999999999034,"midi":53,"time":97.92,"velocity":0.5039370078740157},{"duration":0.7199999999999989,"midi":77,"time":99.84,"velocity":0.49606299212598426},{"duration":0.7199999999999989,"midi":70,"time":99.84,"velocity":0.4566929133858268},{"duration":0.23999999999999488,"midi":81,"time":100.56,"velocity":0.3700787401574803},{"duration":0.23999999999999488,"midi":72,"time":100.56,"velocity":0.4566929133858268},{"duration":0.7199999999999989,"midi":77,"time":100.8,"velocity":0.49606299212598426},{"duration":0.7199999999999989,"midi":70,"time":100.8,"velocity":0.4566929133858268},{"duration":0.23999999999999488,"midi":72,"time":101.52,"velocity":0.4566929133858268},{"duration":0.23999999999999488,"midi":81,"time":101.52,"velocity":0.3700787401574803},{"duration":0.7199999999999989,"midi":77,"time":101.75999999999999,"velocity":0.49606299212598426},{"duration":0.7199999999999989,"midi":70,"time":101.75999999999999,"velocity":0.4566929133858268},{"duration":0.2400000000000091,"midi":72,"time":102.47999999999999,"velocity":0.4566929133858268},{"duration":0.2400000000000091,"midi":81,"time":102.47999999999999,"velocity":0.3700787401574803},{"duration":0.23999999999999488,"midi":70,"time":102.72,"velocity":0.3779527559055118},{"duration":0.23999999999999488,"midi":62,"time":102.72,"velocity":0.4566929133858268},{"duration":0.23999999999999488,"midi":74,"time":102.72,"velocity":0.49606299212598426},{"duration":0.23999999999999488,"midi":79,"time":102.72,"velocity":0.3700787401574803},{"duration":0.12000000000000455,"midi":72,"time":102.96,"velocity":0.49606299212598426},{"duration":0.12000000000000455,"midi":67,"time":102.96,"velocity":0.49606299212598426},{"duration":0.12000000000000455,"midi":74,"time":103.02,"velocity":0.49606299212598426},{"duration":0.12000000000000455,"midi":70,"time":103.02,"velocity":0.49606299212598426},{"duration":0.12000000000000455,"midi":72,"time":103.08,"velocity":0.49606299212598426},{"duration":0.12000000000000455,"midi":67,"time":103.08,"velocity":0.49606299212598426},{"duration":0.23999999999999488,"midi":65,"time":103.2,"velocity":0.49606299212598426},{"duration":0.23999999999999488,"midi":70,"time":103.2,"velocity":0.49606299212598426},{"duration":0.23999999999999488,"midi":72,"time":103.44,"velocity":0.49606299212598426},{"duration":0.23999999999999488,"midi":67,"time":103.44,"velocity":0.49606299212598426},{"duration":0.7199999999999989,"midi":70,"time":103.67999999999999,"velocity":0.4566929133858268},{"duration":0.7199999999999989,"midi":77,"time":103.67999999999999,"velocity":0.5039370078740157},{"duration":0.2400000000000091,"midi":81,"time":104.39999999999999,"velocity":0.3700787401574803},{"duration":0.2400000000000091,"midi":72,"time":104.39999999999999,"velocity":0.4566929133858268},{"duration":0.7199999999999989,"midi":70,"time":104.64,"velocity":0.4566929133858268},{"duration":0.7199999999999989,"midi":77,"time":104.64,"velocity":0.5039370078740157},{"duration":0.23999999999999488,"midi":81,"time":105.36,"velocity":0.3700787401574803},{"duration":0.23999999999999488,"midi":72,"time":105.36,"velocity":0.4566929133858268},{"duration":0.7199999999999989,"midi":70,"time":105.6,"velocity":0.4566929133858268},{"duration":0.7199999999999989,"midi":77,"time":105.6,"velocity":0.5039370078740157},{"duration":0.2400000000000091,"midi":81,"time":106.32,"velocity":0.3700787401574803},{"duration":0.2400000000000091,"midi":72,"time":106.32,"velocity":0.4566929133858268},{"duration":0.23999999999999488,"midi":74,"time":106.56,"velocity":0.49606299212598426},{"duration":0.23999999999999488,"midi":70,"time":106.56,"velocity":0.3779527559055118},{"duration":0.23999999999999488,"midi":62,"time":106.56,"velocity":0.4566929133858268},{"duration":0.23999999999999488,"midi":79,"time":106.56,"velocity":0.3700787401574803},{"duration":0.12000000000000455,"midi":67,"time":106.8,"velocity":0.5039370078740157},{"duration":0.12000000000000455,"midi":72,"time":106.8,"velocity":0.49606299212598426},{"duration":0.11999999999999034,"midi":70,"time":106.86,"velocity":0.5039370078740157},{"duration":0.11999999999999034,"midi":74,"time":106.86,"velocity":0.49606299212598426},{"duration":0.11999999999999034,"midi":67,"time":106.92,"velocity":0.5039370078740157},{"duration":0.11999999999999034,"midi":72,"time":106.92,"velocity":0.49606299212598426},{"duration":0.2400000000000091,"midi":65,"time":107.03999999999999,"velocity":0.5039370078740157},{"duration":0.2400000000000091,"midi":70,"time":107.03999999999999,"velocity":0.5039370078740157},{"duration":0.23999999999999488,"midi":72,"time":107.28,"velocity":0.49606299212598426},{"duration":0.23999999999999488,"midi":67,"time":107.28,"velocity":0.5039370078740157},{"duration":0.7199999999999989,"midi":75,"time":107.52,"velocity":0.44881889763779526},{"duration":0.7199999999999989,"midi":63,"time":107.52,"velocity":0.3700787401574803},{"duration":0.7199999999999989,"midi":70,"time":107.52,"velocity":0.4409448818897638},{"duration":0.23999999999999488,"midi":81,"time":108.24,"velocity":0.44881889763779526},{"duration":0.23999999999999488,"midi":69,"time":108.24,"velocity":0.3700787401574803},{"duration":0.23999999999999488,"midi":62,"time":108.24,"velocity":0.3700787401574803},{"duration":0.7200000000000131,"midi":63,"time":108.47999999999999,"velocity":0.3700787401574803},{"duration":0.7200000000000131,"midi":75,"time":108.47999999999999,"velocity":0.44881889763779526},{"duration":0.7200000000000131,"midi":70,"time":108.47999999999999,"velocity":0.4330708661417323},{"duration":0.23999999999999488,"midi":81,"time":109.2,"velocity":0.44881889763779526},{"duration":0.23999999999999488,"midi":62,"time":109.2,"velocity":0.3700787401574803},{"duration":0.23999999999999488,"midi":69,"time":109.2,"velocity":0.3700787401574803},{"duration":0.7199999999999989,"midi":70,"time":109.44,"velocity":0.4330708661417323},{"duration":0.7199999999999989,"midi":75,"time":109.44,"velocity":0.44881889763779526},{"duration":0.7199999999999989,"midi":63,"time":109.44,"velocity":0.3700787401574803},{"duration":0.23999999999999488,"midi":81,"time":110.16,"velocity":0.44881889763779526},{"duration":0.23999999999999488,"midi":62,"time":110.16,"velocity":0.3700787401574803},{"duration":0.23999999999999488,"midi":69,"time":110.16,"velocity":0.3700787401574803},{"duration":0.2400000000000091,"midi":74,"time":110.39999999999999,"velocity":0.49606299212598426},{"duration":0.2400000000000091,"midi":63,"time":110.39999999999999,"velocity":0.3779527559055118},{"duration":0.2400000000000091,"midi":70,"time":110.39999999999999,"velocity":0.4566929133858268},{"duration":0.11999999999999034,"midi":67,"time":110.64,"velocity":0.49606299212598426},{"duration":0.11999999999999034,"midi":72,"time":110.64,"velocity":0.49606299212598426},{"duration":0.11999999999999034,"midi":70,"time":110.7,"velocity":0.49606299212598426},{"duration":0.11999999999999034,"midi":74,"time":110.7,"velocity":0.49606299212598426},{"duration":0.12000000000000455,"midi":72,"time":110.75999999999999,"velocity":0.49606299212598426},{"duration":0.12000000000000455,"midi":67,"time":110.75999999999999,"velocity":0.49606299212598426},{"duration":0.23999999999999488,"midi":70,"time":110.88,"velocity":0.49606299212598426},{"duration":0.23999999999999488,"midi":65,"time":110.88,"velocity":0.49606299212598426},{"duration":0.2400000000000091,"midi":72,"time":111.11999999999999,"velocity":0.49606299212598426},{"duration":0.2400000000000091,"midi":67,"time":111.11999999999999,"velocity":0.49606299212598426},{"duration":0.7199999999999989,"midi":70,"time":111.36,"velocity":0.4409448818897638},{"duration":0.7199999999999989,"midi":63,"time":111.36,"velocity":0.3700787401574803},{"duration":0.7199999999999989,"midi":75,"time":111.36,"velocity":0.44881889763779526},{"duration":0.23999999999999488,"midi":69,"time":112.08,"velocity":0.3700787401574803},{"duration":0.23999999999999488,"midi":62,"time":112.08,"velocity":0.3700787401574803},{"duration":0.23999999999999488,"midi":81,"time":112.08,"velocity":0.44881889763779526},{"duration":0.7199999999999989,"midi":75,"time":112.32,"velocity":0.44881889763779526},{"duration":0.7199999999999989,"midi":63,"time":112.32,"velocity":0.3700787401574803},{"duration":0.7199999999999989,"midi":70,"time":112.32,"velocity":0.4330708661417323},{"duration":0.2400000000000091,"midi":81,"time":113.03999999999999,"velocity":0.44881889763779526},{"duration":0.2400000000000091,"midi":69,"time":113.03999999999999,"velocity":0.3700787401574803},{"duration":0.2400000000000091,"midi":62,"time":113.03999999999999,"velocity":0.3700787401574803},{"duration":0.7199999999999989,"midi":70,"time":113.28,"velocity":0.4330708661417323},{"duration":0.7199999999999989,"midi":75,"time":113.28,"velocity":0.44881889763779526},{"duration":0.7199999999999989,"midi":63,"time":113.28,"velocity":0.3700787401574803},{"duration":0.23999999999999488,"midi":69,"time":114,"velocity":0.3700787401574803},{"duration":0.23999999999999488,"midi":81,"time":114,"velocity":0.44881889763779526},{"duration":0.23999999999999488,"midi":62,"time":114,"velocity":0.3700787401574803},{"duration":0.23999999999999488,"midi":74,"time":114.24,"velocity":0.49606299212598426},{"duration":0.23999999999999488,"midi":63,"time":114.24,"velocity":0.3779527559055118},{"duration":0.23999999999999488,"midi":70,"time":114.24,"velocity":0.4566929133858268},{"duration":0.12000000000000455,"midi":67,"time":114.47999999999999,"velocity":0.49606299212598426},{"duration":0.12000000000000455,"midi":72,"time":114.47999999999999,"velocity":0.49606299212598426},{"duration":0.12000000000000455,"midi":74,"time":114.53999999999999,"velocity":0.49606299212598426},{"duration":0.12000000000000455,"midi":70,"time":114.53999999999999,"velocity":0.49606299212598426},{"duration":0.12000000000000455,"midi":67,"time":114.6,"velocity":0.49606299212598426},{"duration":0.12000000000000455,"midi":72,"time":114.6,"velocity":0.49606299212598426},{"duration":0.23999999999999488,"midi":65,"time":114.72,"velocity":0.49606299212598426},{"duration":0.23999999999999488,"midi":70,"time":114.72,"velocity":0.49606299212598426},{"duration":0.23999999999999488,"midi":72,"time":114.96,"velocity":0.49606299212598426},{"duration":0.23999999999999488,"midi":67,"time":114.96,"velocity":0.49606299212598426},{"duration":0.7200000000000131,"midi":77,"time":115.19999999999999,"velocity":0.49606299212598426},{"duration":0.7200000000000131,"midi":70,"time":115.19999999999999,"velocity":0.4566929133858268},{"duration":0.23999999999999488,"midi":72,"time":115.92,"velocity":0.4566929133858268},{"duration":0.23999999999999488,"midi":81,"time":115.92,"velocity":0.3700787401574803},{"duration":0.7199999999999989,"midi":77,"time":116.16,"velocity":0.49606299212598426},{"duration":0.7199999999999989,"midi":70,"time":116.16,"velocity":0.4566929133858268},{"duration":0.23999999999999488,"midi":72,"time":116.88,"velocity":0.4566929133858268},{"duration":0.23999999999999488,"midi":81,"time":116.88,"velocity":0.3700787401574803},{"duration":0.7199999999999989,"midi":70,"time":117.11999999999999,"velocity":0.4566929133858268},{"duration":0.7199999999999989,"midi":77,"time":117.11999999999999,"velocity":0.49606299212598426},{"duration":0.2400000000000091,"midi":72,"time":117.83999999999999,"velocity":0.4566929133858268},{"duration":0.2400000000000091,"midi":81,"time":117.83999999999999,"velocity":0.3700787401574803},{"duration":0.23999999999999488,"midi":62,"time":118.08,"velocity":0.4566929133858268},{"duration":0.23999999999999488,"midi":79,"time":118.08,"velocity":0.3700787401574803},{"duration":0.23999999999999488,"midi":70,"time":118.08,"velocity":0.3779527559055118},{"duration":0.23999999999999488,"midi":74,"time":118.08,"velocity":0.49606299212598426},{"duration":0.12000000000000455,"midi":67,"time":118.32,"velocity":0.49606299212598426},{"duration":0.12000000000000455,"midi":72,"time":118.32,"velocity":0.49606299212598426},{"duration":0.12000000000000455,"midi":74,"time":118.38,"velocity":0.49606299212598426},{"duration":0.12000000000000455,"midi":70,"time":118.38,"velocity":0.49606299212598426},{"duration":0.12000000000000455,"midi":72,"time":118.44,"velocity":0.49606299212598426},{"duration":0.12000000000000455,"midi":67,"time":118.44,"velocity":0.49606299212598426},{"duration":0.23999999999999488,"midi":65,"time":118.56,"velocity":0.49606299212598426},{"duration":0.23999999999999488,"midi":70,"time":118.56,"velocity":0.49606299212598426},{"duration":0.23999999999999488,"midi":67,"time":118.8,"velocity":0.49606299212598426},{"duration":0.23999999999999488,"midi":72,"time":118.8,"velocity":0.49606299212598426},{"duration":0.7199999999999989,"midi":70,"time":119.03999999999999,"velocity":0.4566929133858268},{"duration":0.7199999999999989,"midi":77,"time":119.03999999999999,"velocity":0.5039370078740157},{"duration":0.2400000000000091,"midi":81,"time":119.75999999999999,"velocity":0.3700787401574803},{"duration":0.2400000000000091,"midi":72,"time":119.75999999999999,"velocity":0.4566929133858268},{"duration":0.7199999999999989,"midi":70,"time":120,"velocity":0.4566929133858268},{"duration":0.7199999999999989,"midi":77,"time":120,"velocity":0.5039370078740157},{"duration":0.23999999999999488,"midi":72,"time":120.72,"velocity":0.4566929133858268},{"duration":0.23999999999999488,"midi":81,"time":120.72,"velocity":0.3700787401574803},{"duration":0.7199999999999989,"midi":77,"time":120.96,"velocity":0.5039370078740157},{"duration":0.7199999999999989,"midi":70,"time":120.96,"velocity":0.4566929133858268},{"duration":0.2400000000000091,"midi":72,"time":121.67999999999999,"velocity":0.4566929133858268},{"duration":0.2400000000000091,"midi":81,"time":121.67999999999999,"velocity":0.3700787401574803},{"duration":0.23999999999999488,"midi":74,"time":121.92,"velocity":0.49606299212598426},{"duration":0.23999999999999488,"midi":62,"time":121.92,"velocity":0.4566929133858268},{"duration":0.23999999999999488,"midi":79,"time":121.92,"velocity":0.3700787401574803},{"duration":0.23999999999999488,"midi":70,"time":121.92,"velocity":0.3779527559055118},{"duration":0.12000000000000455,"midi":67,"time":122.16,"velocity":0.5039370078740157},{"duration":0.12000000000000455,"midi":72,"time":122.16,"velocity":0.49606299212598426},{"duration":0.11999999999999034,"midi":70,"time":122.22,"velocity":0.5039370078740157},{"duration":0.11999999999999034,"midi":74,"time":122.22,"velocity":0.49606299212598426},{"duration":0.11999999999999034,"midi":72,"time":122.28,"velocity":0.49606299212598426},{"duration":0.11999999999999034,"midi":67,"time":122.28,"velocity":0.5039370078740157},{"duration":0.2400000000000091,"midi":65,"time":122.39999999999999,"velocity":0.5039370078740157},{"duration":0.2400000000000091,"midi":70,"time":122.39999999999999,"velocity":0.5039370078740157},{"duration":0.23999999999999488,"midi":67,"time":122.64,"velocity":0.5039370078740157},{"duration":0.23999999999999488,"midi":72,"time":122.64,"velocity":0.49606299212598426},{"duration":0.7199999999999989,"midi":70,"time":122.88,"velocity":0.4409448818897638},{"duration":0.7199999999999989,"midi":75,"time":122.88,"velocity":0.44881889763779526},{"duration":0.7199999999999989,"midi":63,"time":122.88,"velocity":0.3700787401574803},{"duration":0.23999999999999488,"midi":69,"time":123.6,"velocity":0.3700787401574803},{"duration":0.23999999999999488,"midi":62,"time":123.6,"velocity":0.3700787401574803},{"duration":0.23999999999999488,"midi":81,"time":123.6,"velocity":0.44881889763779526},{"duration":0.7200000000000131,"midi":63,"time":123.83999999999999,"velocity":0.3700787401574803},{"duration":0.7200000000000131,"midi":70,"time":123.83999999999999,"velocity":0.4330708661417323},{"duration":0.7200000000000131,"midi":75,"time":123.83999999999999,"velocity":0.44881889763779526},{"duration":0.23999999999999488,"midi":62,"time":124.56,"velocity":0.3700787401574803},{"duration":0.23999999999999488,"midi":69,"time":124.56,"velocity":0.3700787401574803},{"duration":0.23999999999999488,"midi":81,"time":124.56,"velocity":0.44881889763779526},{"duration":0.7199999999999989,"midi":70,"time":124.8,"velocity":0.4330708661417323},{"duration":0.7199999999999989,"midi":63,"time":124.8,"velocity":0.3700787401574803},{"duration":0.7199999999999989,"midi":75,"time":124.8,"velocity":0.44881889763779526},{"duration":0.23999999999999488,"midi":81,"time":125.52,"velocity":0.44881889763779526},{"duration":0.23999999999999488,"midi":62,"time":125.52,"velocity":0.3700787401574803},{"duration":0.23999999999999488,"midi":69,"time":125.52,"velocity":0.3700787401574803},{"duration":0.2400000000000091,"midi":74,"time":125.75999999999999,"velocity":0.49606299212598426},{"duration":0.2400000000000091,"midi":63,"time":125.75999999999999,"velocity":0.3779527559055118},{"duration":0.2400000000000091,"midi":70,"time":125.75999999999999,"velocity":0.4566929133858268},{"duration":0.11999999999999034,"midi":72,"time":126,"velocity":0.49606299212598426},{"duration":0.11999999999999034,"midi":67,"time":126,"velocity":0.49606299212598426},{"duration":0.11999999999999034,"midi":70,"time":126.06,"velocity":0.49606299212598426},{"duration":0.11999999999999034,"midi":74,"time":126.06,"velocity":0.49606299212598426},{"duration":0.12000000000000455,"midi":67,"time":126.11999999999999,"velocity":0.49606299212598426},{"duration":0.12000000000000455,"midi":72,"time":126.11999999999999,"velocity":0.49606299212598426},{"duration":0.23999999999999488,"midi":70,"time":126.24,"velocity":0.49606299212598426},{"duration":0.23999999999999488,"midi":65,"time":126.24,"velocity":0.49606299212598426},{"duration":0.2400000000000091,"midi":72,"time":126.47999999999999,"velocity":0.49606299212598426},{"duration":0.2400000000000091,"midi":67,"time":126.47999999999999,"velocity":0.49606299212598426},{"duration":0.7199999999999989,"midi":70,"time":126.72,"velocity":0.4409448818897638},{"duration":0.7199999999999989,"midi":75,"time":126.72,"velocity":0.44881889763779526},{"duration":0.7199999999999989,"midi":63,"time":126.72,"velocity":0.3700787401574803},{"duration":0.23999999999999488,"midi":81,"time":127.44,"velocity":0.44881889763779526},{"duration":0.23999999999999488,"midi":69,"time":127.44,"velocity":0.3700787401574803},{"duration":0.23999999999999488,"midi":62,"time":127.44,"velocity":0.3700787401574803},{"duration":0.7200000000000131,"midi":75,"time":127.67999999999999,"velocity":0.44881889763779526},{"duration":0.7200000000000131,"midi":63,"time":127.67999999999999,"velocity":0.3700787401574803},{"duration":0.7200000000000131,"midi":70,"time":127.67999999999999,"velocity":0.4330708661417323},{"duration":0.23999999999998067,"midi":69,"time":128.4,"velocity":0.3700787401574803},{"duration":0.23999999999998067,"midi":62,"time":128.4,"velocity":0.3700787401574803},{"duration":0.23999999999998067,"midi":81,"time":128.4,"velocity":0.44881889763779526},{"duration":0.7199999999999989,"midi":70,"time":128.64,"velocity":0.4330708661417323},{"duration":0.7199999999999989,"midi":75,"time":128.64,"velocity":0.44881889763779526},{"duration":0.7199999999999989,"midi":63,"time":128.64,"velocity":0.3700787401574803},{"duration":0.2400000000000091,"midi":69,"time":129.35999999999999,"velocity":0.3700787401574803},{"duration":0.2400000000000091,"midi":62,"time":129.35999999999999,"velocity":0.3700787401574803},{"duration":0.2400000000000091,"midi":81,"time":129.35999999999999,"velocity":0.44881889763779526},{"duration":0.2400000000000091,"midi":74,"time":129.6,"velocity":0.49606299212598426},{"duration":0.2400000000000091,"midi":63,"time":129.6,"velocity":0.3779527559055118},{"duration":0.2400000000000091,"midi":70,"time":129.6,"velocity":0.4566929133858268},{"duration":0.12000000000000455,"midi":67,"time":129.84,"velocity":0.49606299212598426},{"duration":0.12000000000000455,"midi":72,"time":129.84,"velocity":0.49606299212598426},{"duration":0.11999999999997613,"midi":74,"time":129.9,"velocity":0.49606299212598426},{"duration":0.11999999999997613,"midi":70,"time":129.9,"velocity":0.49606299212598426},{"duration":0.11999999999997613,"midi":67,"time":129.96,"velocity":0.49606299212598426},{"duration":0.11999999999997613,"midi":72,"time":129.96,"velocity":0.49606299212598426},{"duration":0.2400000000000091,"midi":65,"time":130.07999999999998,"velocity":0.49606299212598426},{"duration":0.2400000000000091,"midi":70,"time":130.07999999999998,"velocity":0.49606299212598426},{"duration":0.2400000000000091,"midi":72,"time":130.32,"velocity":0.49606299212598426},{"duration":0.2400000000000091,"midi":67,"time":130.32,"velocity":0.49606299212598426},{"duration":0.12000000000000455,"midi":48,"time":130.56,"velocity":0.4566929133858268},{"duration":0.11999999999997613,"midi":60,"time":130.68,"velocity":0.4566929133858268},{"duration":0.12000000000000455,"midi":55,"time":130.79999999999998,"velocity":0.4566929133858268},{"duration":0.12000000000000455,"midi":48,"time":130.92,"velocity":0.4566929133858268},{"duration":0.12000000000000455,"midi":60,"time":131.04,"velocity":0.4566929133858268},{"duration":0.12000000000000455,"midi":55,"time":131.16,"velocity":0.4566929133858268},{"duration":0.12000000000000455,"midi":55,"time":131.16,"velocity":0.4566929133858268},{"duration":0.23999999999998067,"midi":48,"time":131.28,"velocity":0.4566929133858268},{"duration":0.12000000000000455,"midi":48,"time":131.51999999999998,"velocity":0.4566929133858268},{"duration":0.12000000000000455,"midi":60,"time":131.64,"velocity":0.4566929133858268},{"duration":0.12000000000000455,"midi":55,"time":131.76,"velocity":0.4566929133858268},{"duration":0.12000000000000455,"midi":48,"time":131.88,"velocity":0.4566929133858268},{"duration":0.12000000000000455,"midi":60,"time":132,"velocity":0.4566929133858268},{"duration":0.12000000000000455,"midi":55,"time":132.12,"velocity":0.4566929133858268},{"duration":0.23999999999998067,"midi":48,"time":132.24,"velocity":0.4566929133858268},{"duration":0.12000000000000455,"midi":50,"time":132.48,"velocity":0.4566929133858268},{"duration":0.12000000000000455,"midi":62,"time":132.6,"velocity":0.4566929133858268},{"duration":0.12000000000000455,"midi":57,"time":132.72,"velocity":0.4566929133858268},{"duration":0.12000000000000455,"midi":50,"time":132.84,"velocity":0.4566929133858268},{"duration":0.11999999999997613,"midi":62,"time":132.96,"velocity":0.4566929133858268},{"duration":0.12000000000000455,"midi":57,"time":133.07999999999998,"velocity":0.4566929133858268},{"duration":0.2400000000000091,"midi":50,"time":133.2,"velocity":0.4566929133858268},{"duration":0.12000000000000455,"midi":55,"time":133.44,"velocity":0.4566929133858268},{"duration":0.12000000000000455,"midi":67,"time":133.56,"velocity":0.4566929133858268},{"duration":0.11999999999997613,"midi":62,"time":133.68,"velocity":0.4566929133858268},{"duration":0.12000000000000455,"midi":58,"time":133.79999999999998,"velocity":0.4566929133858268},{"duration":0.12000000000000455,"midi":53,"time":133.92,"velocity":0.4566929133858268},{"duration":0.12000000000000455,"midi":60,"time":134.04,"velocity":0.4566929133858268},{"duration":0.2400000000000091,"midi":53,"time":134.16,"velocity":0.4566929133858268},{"duration":0.11999999999997613,"midi":51,"time":134.4,"velocity":0.4566929133858268},{"duration":0.12000000000000455,"midi":63,"time":134.51999999999998,"velocity":0.4566929133858268},{"duration":0.12000000000000455,"midi":58,"time":134.64,"velocity":0.4566929133858268},{"duration":0.12000000000000455,"midi":51,"time":134.76,"velocity":0.4566929133858268},{"duration":0.12000000000000455,"midi":63,"time":134.88,"velocity":0.4566929133858268},{"duration":0.12000000000000455,"midi":58,"time":135,"velocity":0.4566929133858268},{"duration":0.23999999999998067,"midi":51,"time":135.12,"velocity":0.4566929133858268},{"duration":0.12000000000000455,"midi":53,"time":135.35999999999999,"velocity":0.4566929133858268},{"duration":0.12000000000000455,"midi":65,"time":135.48,"velocity":0.4566929133858268},{"duration":0.12000000000000455,"midi":60,"time":135.6,"velocity":0.4566929133858268},{"duration":0.12000000000000455,"midi":53,"time":135.72,"velocity":0.4566929133858268},{"duration":0.12000000000000455,"midi":54,"time":135.84,"velocity":0.4566929133858268},{"duration":0.11999999999997613,"midi":66,"time":135.96,"velocity":0.4566929133858268},{"duration":0.2400000000000091,"midi":54,"time":136.07999999999998,"velocity":0.4566929133858268},{"duration":0.12000000000000455,"midi":55,"time":136.32,"velocity":0.4566929133858268},{"duration":0.12000000000000455,"midi":67,"time":136.44,"velocity":0.4566929133858268},{"duration":0.12000000000000455,"midi":62,"time":136.56,"velocity":0.4566929133858268},{"duration":0.11999999999997613,"midi":55,"time":136.68,"velocity":0.4566929133858268},{"duration":0.12000000000000455,"midi":67,"time":136.79999999999998,"velocity":0.4566929133858268},{"duration":0.12000000000000455,"midi":62,"time":136.92,"velocity":0.4566929133858268},{"duration":0.2400000000000091,"midi":55,"time":137.04,"velocity":0.4566929133858268},{"duration":0.12000000000000455,"midi":53,"time":137.28,"velocity":0.4566929133858268},{"duration":0.11999999999997613,"midi":65,"time":137.4,"velocity":0.4566929133858268},{"duration":0.12000000000000455,"midi":60,"time":137.51999999999998,"velocity":0.4566929133858268},{"duration":0.12000000000000455,"midi":53,"time":137.64,"velocity":0.4566929133858268},{"duration":0.12000000000000455,"midi":65,"time":137.76,"velocity":0.4566929133858268},{"duration":0.12000000000000455,"midi":60,"time":137.88,"velocity":0.4566929133858268},{"duration":0.2400000000000091,"midi":53,"time":138,"velocity":0.4566929133858268},{"duration":0.11999999999997613,"midi":48,"time":138.24,"velocity":0.4566929133858268},{"duration":0.12000000000000455,"midi":60,"time":138.35999999999999,"velocity":0.4566929133858268},{"duration":0.12000000000000455,"midi":55,"time":138.48,"velocity":0.4566929133858268},{"duration":0.12000000000000455,"midi":48,"time":138.6,"velocity":0.4566929133858268},{"duration":0.12000000000000455,"midi":67,"time":138.6,"velocity":0.4566929133858268},{"duration":0.12000000000000455,"midi":55,"time":138.84,"velocity":0.4566929133858268},{"duration":0.23999999999998067,"midi":48,"time":138.96,"velocity":0.4566929133858268},{"duration":0.12000000000000455,"midi":48,"time":139.2,"velocity":0.4566929133858268},{"duration":0.12000000000000455,"midi":60,"time":139.32,"velocity":0.4566929133858268},{"duration":0.12000000000000455,"midi":55,"time":139.44,"velocity":0.4566929133858268},{"duration":0.12000000000000455,"midi":48,"time":139.56,"velocity":0.4566929133858268},{"duration":0.11999999999997613,"midi":60,"time":139.68,"velocity":0.4566929133858268},{"duration":0.12000000000000455,"midi":55,"time":139.79999999999998,"velocity":0.4566929133858268},{"duration":0.2400000000000091,"midi":48,"time":139.92,"velocity":0.4566929133858268},{"duration":0.12000000000000455,"midi":50,"time":140.16,"velocity":0.4566929133858268},{"duration":0.12000000000000455,"midi":60,"time":140.28,"velocity":0.4566929133858268},{"duration":0.11999999999997613,"midi":57,"time":140.4,"velocity":0.4566929133858268},{"duration":0.12000000000000455,"midi":65,"time":140.51999999999998,"velocity":0.4566929133858268},{"duration":0.12000000000000455,"midi":53,"time":140.51999999999998,"velocity":0.4566929133858268},{"duration":0.12000000000000455,"midi":67,"time":140.64,"velocity":0.4566929133858268},{"duration":0.12000000000000455,"midi":69,"time":140.76,"velocity":0.4566929133858268},{"duration":0.12000000000000455,"midi":60,"time":140.76,"velocity":0.4566929133858268},{"duration":0.2400000000000091,"midi":50,"time":140.88,"velocity":0.4566929133858268},{"duration":0.2400000000000091,"midi":67,"time":140.88,"velocity":0.4566929133858268},{"duration":0.11999999999997613,"midi":50,"time":141.12,"velocity":0.4566929133858268},{"duration":0.12000000000000455,"midi":62,"time":141.23999999999998,"velocity":0.4566929133858268},{"duration":0.12000000000000455,"midi":81,"time":141.29999999999998,"velocity":0.5433070866141733},{"duration":0.12000000000000455,"midi":57,"time":141.35999999999999,"velocity":0.4566929133858268},{"duration":0.2400000000000091,"midi":82,"time":141.35999999999999,"velocity":0.5433070866141733},{"duration":0.12000000000000455,"midi":50,"time":141.48,"velocity":0.4566929133858268},{"duration":0.12000000000000455,"midi":62,"time":141.6,"velocity":0.4566929133858268},{"duration":0.2400000000000091,"midi":81,"time":141.6,"velocity":0.5433070866141733},{"duration":0.12000000000000455,"midi":57,"time":141.72,"velocity":0.4566929133858268},{"duration":0.23999999999998067,"midi":77,"time":141.84,"velocity":0.5433070866141733},{"duration":0.23999999999998067,"midi":50,"time":141.84,"velocity":0.4566929133858268},{"duration":0.2400000000000091,"midi":74,"time":142.07999999999998,"velocity":0.5433070866141733},{"duration":0.12000000000000455,"midi":51,"time":142.07999999999998,"velocity":0.4566929133858268},{"duration":0.12000000000000455,"midi":63,"time":142.2,"velocity":0.4566929133858268},{"duration":0.12000000000000455,"midi":58,"time":142.32,"velocity":0.4566929133858268},{"duration":0.12000000000000455,"midi":51,"time":142.44,"velocity":0.4566929133858268},{"duration":0.12000000000000455,"midi":63,"time":142.56,"velocity":0.4566929133858268},{"duration":0.11999999999997613,"midi":58,"time":142.68,"velocity":0.4566929133858268},{"duration":0.2400000000000091,"midi":51,"time":142.79999999999998,"velocity":0.4566929133858268},{"duration":0.12000000000000455,"midi":53,"time":143.04,"velocity":0.4566929133858268},{"duration":0.12000000000000455,"midi":65,"time":143.16,"velocity":0.4566929133858268},{"duration":0.12000000000000455,"midi":60,"time":143.28,"velocity":0.4566929133858268},{"duration":0.11999999999997613,"midi":53,"time":143.4,"velocity":0.4566929133858268},{"duration":0.2400000000000091,"midi":65,"time":143.51999999999998,"velocity":0.4566929133858268},{"duration":0.12000000000000455,"midi":55,"time":144,"velocity":0.4566929133858268},{"duration":0.11999999999997613,"midi":67,"time":144.12,"velocity":0.4566929133858268},{"duration":0.12000000000000455,"midi":62,"time":144.23999999999998,"velocity":0.4566929133858268},{"duration":0.12000000000000455,"midi":55,"time":144.35999999999999,"velocity":0.4566929133858268},{"duration":0.12000000000000455,"midi":67,"time":144.48,"velocity":0.4566929133858268},{"duration":0.12000000000000455,"midi":62,"time":144.6,"velocity":0.4566929133858268},{"duration":0.2400000000000091,"midi":55,"time":144.72,"velocity":0.4566929133858268},{"duration":0.11999999999997613,"midi":53,"time":144.96,"velocity":0.4566929133858268},{"duration":0.12000000000000455,"midi":65,"time":145.07999999999998,"velocity":0.4566929133858268},{"duration":0.12000000000000455,"midi":60,"time":145.2,"velocity":0.4566929133858268},{"duration":0.12000000000000455,"midi":48,"time":145.92,"velocity":0.4566929133858268},{"duration":0.2400000000000091,"midi":75,"time":146.04,"velocity":0.5118110236220472},{"duration":0.12000000000000455,"midi":60,"time":146.04,"velocity":0.4566929133858268},{"duration":0.2400000000000091,"midi":82,"time":146.04,"velocity":0.5669291338582677},{"duration":0.12000000000000455,"midi":55,"time":146.16,"velocity":0.4566929133858268},{"duration":0.12000000000000455,"midi":48,"time":146.28,"velocity":0.4566929133858268},{"duration":0.11999999999997613,"midi":60,"time":146.4,"velocity":0.4566929133858268},{"duration":0.12000000000000455,"midi":55,"time":146.51999999999998,"velocity":0.4566929133858268},{"duration":0.12000000000000455,"midi":55,"time":146.51999999999998,"velocity":0.4566929133858268},{"duration":0.2400000000000091,"midi":48,"time":146.64,"velocity":0.4566929133858268},{"duration":0.12000000000000455,"midi":48,"time":146.88,"velocity":0.4566929133858268},{"duration":0.23999999999998067,"midi":74,"time":147,"velocity":0.4881889763779528},{"duration":0.23999999999998067,"midi":82,"time":147,"velocity":0.5669291338582677},{"duration":0.12000000000000455,"midi":60,"time":147,"velocity":0.4566929133858268},{"duration":0.11999999999997613,"midi":55,"time":147.12,"velocity":0.4566929133858268},{"duration":0.12000000000000455,"midi":72,"time":147.23999999999998,"velocity":0.4881889763779528},{"duration":0.12000000000000455,"midi":48,"time":147.23999999999998,"velocity":0.4566929133858268},{"duration":0.12000000000000455,"midi":81,"time":147.23999999999998,"velocity":0.5669291338582677},{"duration":0.12000000000000455,"midi":74,"time":147.29999999999998,"velocity":0.4881889763779528},{"duration":0.12000000000000455,"midi":82,"time":147.29999999999998,"velocity":0.5669291338582677},{"duration":0.12000000000000455,"midi":72,"time":147.35999999999999,"velocity":0.4881889763779528},{"duration":0.12000000000000455,"midi":60,"time":147.35999999999999,"velocity":0.4566929133858268},{"duration":0.12000000000000455,"midi":81,"time":147.35999999999999,"velocity":0.5669291338582677},{"duration":0.2400000000000091,"midi":79,"time":147.48,"velocity":0.5669291338582677},{"duration":0.12000000000000455,"midi":55,"time":147.48,"velocity":0.4566929133858268},{"duration":0.2400000000000091,"midi":70,"time":147.48,"velocity":0.4881889763779528},{"duration":0.2400000000000091,"midi":48,"time":147.6,"velocity":0.4566929133858268},{"duration":0.2400000000000091,"midi":81,"time":147.72,"velocity":0.5669291338582677},{"duration":0.2400000000000091,"midi":72,"time":147.72,"velocity":0.4881889763779528},{"duration":0.12000000000000455,"midi":50,"time":147.84,"velocity":0.4566929133858268},{"duration":0.23999999999998067,"midi":82,"time":147.96,"velocity":0.5669291338582677},{"duration":0.23999999999998067,"midi":77,"time":147.96,"velocity":0.48031496062992124},{"duration":0.11999999999997613,"midi":62,"time":147.96,"velocity":0.4566929133858268},{"duration":0.23999999999998067,"midi":74,"time":147.96,"velocity":0.48031496062992124},{"duration":0.12000000000000455,"midi":57,"time":148.07999999999998,"velocity":0.4566929133858268},{"duration":0.12000000000000455,"midi":94,"time":148.07999999999998,"velocity":0.5433070866141733},{"duration":0.12000000000000455,"midi":50,"time":148.2,"velocity":0.4566929133858268},{"duration":0.12000000000000455,"midi":93,"time":148.32,"velocity":0.5433070866141733},{"duration":0.12000000000000455,"midi":62,"time":148.32,"velocity":0.4566929133858268},{"duration":0.12000000000000455,"midi":94,"time":148.38,"velocity":0.5433070866141733},{"duration":0.12000000000000455,"midi":57,"time":148.44,"velocity":0.4566929133858268},{"duration":0.12000000000000455,"midi":93,"time":148.44,"velocity":0.5433070866141733},{"duration":0.23999999999998067,"midi":91,"time":148.56,"velocity":0.5433070866141733},{"duration":0.23999999999998067,"midi":50,"time":148.56,"velocity":0.4566929133858268},{"duration":0.12000000000000455,"midi":55,"time":148.79999999999998,"velocity":0.4566929133858268},{"duration":0.2400000000000091,"midi":74,"time":148.92,"velocity":0.48031496062992124},{"duration":0.12000000000000455,"midi":67,"time":148.92,"velocity":0.4566929133858268},{"duration":0.2400000000000091,"midi":82,"time":148.92,"velocity":0.5669291338582677},{"duration":0.2400000000000091,"midi":77,"time":148.92,"velocity":0.48031496062992124},{"duration":0.12000000000000455,"midi":62,"time":149.04,"velocity":0.4566929133858268},{"duration":0.2400000000000091,"midi":94,"time":149.04,"velocity":0.5433070866141733},{"duration":0.12000000000000455,"midi":81,"time":149.16,"velocity":0.5669291338582677},{"duration":0.12000000000000455,"midi":58,"time":149.16,"velocity":0.4566929133858268},{"duration":0.12000000000000455,"midi":72,"time":149.16,"velocity":0.5669291338582677},{"duration":0.12000000000000455,"midi":74,"time":149.22,"velocity":0.5669291338582677},{"duration":0.12000000000000455,"midi":82,"time":149.22,"velocity":0.5669291338582677},{"duration":0.12000000000000455,"midi":53,"time":149.28,"velocity":0.4566929133858268},{"duration":0.12000000000000455,"midi":81,"time":149.28,"velocity":0.5669291338582677},{"duration":0.12000000000000455,"midi":72,"time":149.28,"velocity":0.5669291338582677},{"duration":0.23999999999998067,"midi":84,"time":149.28,"velocity":0.5118110236220472},{"duration":0.23999999999998067,"midi":79,"time":149.4,"velocity":0.5669291338582677},{"duration":0.11999999999997613,"midi":60,"time":149.4,"velocity":0.4566929133858268},{"duration":0.23999999999998067,"midi":70,"time":149.4,"velocity":0.5669291338582677},{"duration":0.2400000000000091,"midi":53,"time":149.51999999999998,"velocity":0.4566929133858268},{"duration":0.2400000000000091,"midi":86,"time":149.51999999999998,"velocity":0.48031496062992124},{"duration":0.2400000000000091,"midi":72,"time":149.64,"velocity":0.5669291338582677},{"duration":0.2400000000000091,"midi":81,"time":149.64,"velocity":0.5669291338582677},{"duration":0.12000000000000455,"midi":51,"time":149.76,"velocity":0.4566929133858268},{"duration":0.2400000000000091,"midi":74,"time":149.88,"velocity":0.48031496062992124},{"duration":0.2400000000000091,"midi":77,"time":149.88,"velocity":0.5196850393700787},{"duration":0.2400000000000091,"midi":82,"time":149.88,"velocity":0.5669291338582677},{"duration":0.12000000000000455,"midi":63,"time":149.88,"velocity":0.4566929133858268},{"duration":0.12000000000000455,"midi":58,"time":150,"velocity":0.4566929133858268},{"duration":0.11999999999997613,"midi":51,"time":150.12,"velocity":0.4566929133858268},{"duration":0.12000000000000455,"midi":63,"time":150.23999999999998,"velocity":0.4566929133858268},{"duration":0.12000000000000455,"midi":84,"time":150.35999999999999,"velocity":0.48031496062992124},{"duration":0.12000000000000455,"midi":58,"time":150.35999999999999,"velocity":0.4566929133858268},{"duration":0.12000000000000455,"midi":85,"time":150.42,"velocity":0.4566929133858268},{"duration":0.2400000000000091,"midi":86,"time":150.48,"velocity":0.4251968503937008},{"duration":0.2400000000000091,"midi":51,"time":150.48,"velocity":0.4566929133858268},{"duration":0.2400000000000091,"midi":81,"time":150.6,"velocity":0.5669291338582677},{"duration":0.2400000000000091,"midi":87,"time":150.72,"velocity":0.41732283464566927},{"duration":0.12000000000000455,"midi":53,"time":150.72,"velocity":0.4566929133858268},{"duration":0.12000000000000455,"midi":65,"time":150.84,"velocity":0.4566929133858268},{"duration":0.23999999999998067,"midi":72,"time":150.84,"velocity":0.5118110236220472},{"duration":0.23999999999998067,"midi":77,"time":150.84,"velocity":0.5669291338582677},{"duration":0.11999999999997613,"midi":60,"time":150.96,"velocity":0.4566929133858268},{"duration":0.12000000000000455,"midi":53,"time":151.07999999999998,"velocity":0.4566929133858268},{"duration":0.12000000000000455,"midi":54,"time":151.2,"velocity":0.4566929133858268},{"duration":0.12000000000000455,"midi":66,"time":151.32,"velocity":0.4566929133858268},{"duration":0.2400000000000091,"midi":54,"time":151.44,"velocity":0.4566929133858268},{"duration":0.2400000000000091,"midi":84,"time":151.44,"velocity":0.4094488188976378},{"duration":0.12000000000000455,"midi":74,"time":151.5,"velocity":0.5669291338582677},{"duration":0.23999999999998067,"midi":75,"time":151.56,"velocity":0.5669291338582677},{"duration":0.23999999999998067,"midi":69,"time":151.56,"velocity":0.44881889763779526},{"duration":0.11999999999997613,"midi":55,"time":151.68,"velocity":0.4566929133858268},{"duration":0.23999999999998067,"midi":86,"time":151.68,"velocity":0.3937007874015748},{"duration":0.2400000000000091,"midi":74,"time":151.79999999999998,"velocity":0.5669291338582677},{"duration":0.2400000000000091,"midi":70,"time":151.79999999999998,"velocity":0.44881889763779526},{"duration":0.12000000000000455,"midi":67,"time":151.79999999999998,"velocity":0.4566929133858268},{"duration":0.12000000000000455,"midi":62,"time":151.92,"velocity":0.4566929133858268},{"duration":0.12000000000000455,"midi":55,"time":152.04,"velocity":0.4566929133858268},{"duration":0.12000000000000455,"midi":67,"time":152.16,"velocity":0.4566929133858268},{"duration":0.12000000000000455,"midi":62,"time":152.28,"velocity":0.4566929133858268},{"duration":0.23999999999998067,"midi":55,"time":152.4,"velocity":0.4566929133858268},{"duration":0.2400000000000091,"midi":72,"time":152.51999999999998,"velocity":0.5669291338582677},{"duration":0.2400000000000091,"midi":67,"time":152.51999999999998,"velocity":0.4566929133858268},{"duration":0.12000000000000455,"midi":53,"time":152.64,"velocity":0.4566929133858268},{"duration":0.12000000000000455,"midi":65,"time":152.76,"velocity":0.4566929133858268},{"duration":0.2400000000000091,"midi":70,"time":152.76,"velocity":0.5669291338582677},{"duration":0.2400000000000091,"midi":65,"time":152.76,"velocity":0.4566929133858268},{"duration":0.12000000000000455,"midi":60,"time":152.88,"velocity":0.4566929133858268},{"duration":0.12000000000000455,"midi":53,"time":153,"velocity":0.4566929133858268},{"duration":0.23999999999998067,"midi":72,"time":153,"velocity":0.5669291338582677},{"duration":0.23999999999998067,"midi":67,"time":153,"velocity":0.4566929133858268},{"duration":0.11999999999997613,"midi":65,"time":153.12,"velocity":0.4566929133858268},{"duration":0.12000000000000455,"midi":60,"time":153.23999999999998,"velocity":0.4566929133858268},{"duration":0.2400000000000091,"midi":74,"time":153.23999999999998,"velocity":0.5669291338582677},{"duration":0.2400000000000091,"midi":70,"time":153.23999999999998,"velocity":0.4566929133858268},{"duration":0.2400000000000091,"midi":53,"time":153.35999999999999,"velocity":0.4566929133858268},{"duration":0.2400000000000091,"midi":75,"time":153.48,"velocity":0.5669291338582677},{"duration":0.2400000000000091,"midi":72,"time":153.48,"velocity":0.4566929133858268},{"duration":0.12000000000000455,"midi":48,"time":153.6,"velocity":0.4566929133858268},{"duration":0.2400000000000091,"midi":74,"time":153.72,"velocity":0.4566929133858268},{"duration":0.12000000000000455,"midi":60,"time":153.72,"velocity":0.4566929133858268},{"duration":0.2400000000000091,"midi":77,"time":153.72,"velocity":0.5669291338582677},{"duration":0.12000000000000455,"midi":55,"time":153.84,"velocity":0.4566929133858268},{"duration":0.23999999999998067,"midi":74,"time":153.96,"velocity":0.4566929133858268},{"duration":0.23999999999998067,"midi":77,"time":153.96,"velocity":0.5669291338582677},{"duration":0.11999999999997613,"midi":48,"time":153.96,"velocity":0.4566929133858268},{"duration":0.11999999999997613,"midi":67,"time":153.96,"velocity":0.4566929133858268},{"duration":0.12000000000000455,"midi":55,"time":154.2,"velocity":0.4566929133858268},{"duration":0.2400000000000091,"midi":77,"time":154.2,"velocity":0.5669291338582677},{"duration":0.2400000000000091,"midi":72,"time":154.2,"velocity":0.4566929133858268},{"duration":0.2400000000000091,"midi":48,"time":154.32,"velocity":0.4566929133858268},{"duration":0.2400000000000091,"midi":77,"time":154.44,"velocity":0.5669291338582677},{"duration":0.2400000000000091,"midi":72,"time":154.44,"velocity":0.4566929133858268},{"duration":0.12000000000000455,"midi":48,"time":154.56,"velocity":0.4566929133858268},{"duration":0.47999999999998977,"midi":70,"time":154.68,"velocity":0.4566929133858268},{"duration":0.47999999999998977,"midi":77,"time":154.68,"velocity":0.5669291338582677},{"duration":0.11999999999997613,"midi":60,"time":154.68,"velocity":0.4566929133858268},{"duration":0.12000000000000455,"midi":55,"time":154.79999999999998,"velocity":0.4566929133858268},{"duration":0.12000000000000455,"midi":48,"time":154.92,"velocity":0.4566929133858268},{"duration":0.12000000000000455,"midi":60,"time":155.04,"velocity":0.4566929133858268},{"duration":0.2400000000000091,"midi":70,"time":155.16,"velocity":0.5669291338582677},{"duration":0.12000000000000455,"midi":55,"time":155.16,"velocity":0.4566929133858268},{"duration":0.23999999999998067,"midi":48,"time":155.28,"velocity":0.4566929133858268},{"duration":0.12000000000000455,"midi":73,"time":155.34,"velocity":0.5669291338582677},{"duration":0.23999999999998067,"midi":74,"time":155.4,"velocity":0.5669291338582677},{"duration":0.12000000000000455,"midi":50,"time":155.51999999999998,"velocity":0.4566929133858268},{"duration":0.2400000000000091,"midi":72,"time":155.64,"velocity":0.5669291338582677},{"duration":0.2400000000000091,"midi":69,"time":155.64,"velocity":0.4566929133858268},{"duration":0.12000000000000455,"midi":60,"time":155.64,"velocity":0.4566929133858268},{"duration":0.12000000000000455,"midi":57,"time":155.76,"velocity":0.4566929133858268},{"duration":0.12000000000000455,"midi":65,"time":155.88,"velocity":0.4566929133858268},{"duration":0.2400000000000091,"midi":69,"time":155.88,"velocity":0.4566929133858268},{"duration":0.12000000000000455,"midi":53,"time":155.88,"velocity":0.4566929133858268},{"duration":0.2400000000000091,"midi":72,"time":155.88,"velocity":0.5669291338582677},{"duration":0.12000000000000455,"midi":67,"time":156,"velocity":0.4566929133858268},{"duration":0.11999999999997613,"midi":60,"time":156.12,"velocity":0.4566929133858268},{"duration":0.11999999999997613,"midi":69,"time":156.12,"velocity":0.4566929133858268},{"duration":0.23999999999998067,"midi":72,"time":156.12,"velocity":0.5669291338582677},{"duration":0.23999999999998067,"midi":67,"time":156.12,"velocity":0.4566929133858268},{"duration":0.2400000000000091,"midi":50,"time":156.23999999999998,"velocity":0.4566929133858268},{"duration":0.2400000000000091,"midi":67,"time":156.23999999999998,"velocity":0.4566929133858268},{"duration":0.2400000000000091,"midi":67,"time":156.35999999999999,"velocity":0.4566929133858268},{"duration":0.2400000000000091,"midi":72,"time":156.35999999999999,"velocity":0.5669291338582677},{"duration":0.12000000000000455,"midi":50,"time":156.48,"velocity":0.4566929133858268},{"duration":0.36000000000001364,"midi":65,"time":156.6,"velocity":0.4566929133858268},{"duration":0.36000000000001364,"midi":72,"time":156.6,"velocity":0.5669291338582677},{"duration":0.12000000000000455,"midi":62,"time":156.6,"velocity":0.4566929133858268},{"duration":0.12000000000000455,"midi":93,"time":156.66,"velocity":0.48031496062992124},{"duration":0.12000000000000455,"midi":81,"time":156.66,"velocity":0.5433070866141733},{"duration":0.12000000000000455,"midi":85,"time":156.66,"velocity":0.48031496062992124},{"duration":0.2400000000000091,"midi":94,"time":156.72,"velocity":0.48031496062992124},{"duration":0.12000000000000455,"midi":57,"time":156.72,"velocity":0.4566929133858268},{"duration":0.2400000000000091,"midi":86,"time":156.72,"velocity":0.48031496062992124},{"duration":0.2400000000000091,"midi":82,"time":156.72,"velocity":0.5433070866141733},{"duration":0.12000000000000455,"midi":50,"time":156.84,"velocity":0.4566929133858268},{"duration":0.23999999999998067,"midi":93,"time":156.96,"velocity":0.48031496062992124},{"duration":0.23999999999998067,"midi":84,"time":156.96,"velocity":0.48031496062992124},{"duration":0.11999999999997613,"midi":62,"time":156.96,"velocity":0.4566929133858268},{"duration":0.23999999999998067,"midi":81,"time":156.96,"velocity":0.5433070866141733},{"duration":0.12000000000000455,"midi":73,"time":157.01999999999998,"velocity":0.5669291338582677},{"duration":0.12000000000000455,"midi":57,"time":157.07999999999998,"velocity":0.4566929133858268},{"duration":0.2400000000000091,"midi":70,"time":157.07999999999998,"velocity":0.4566929133858268},{"duration":0.2400000000000091,"midi":74,"time":157.07999999999998,"velocity":0.5669291338582677},{"duration":0.2400000000000091,"midi":50,"time":157.2,"velocity":0.4566929133858268},{"duration":0.2400000000000091,"midi":77,"time":157.2,"velocity":0.5433070866141733},{"duration":0.2400000000000091,"midi":82,"time":157.2,"velocity":0.48031496062992124},{"duration":0.2400000000000091,"midi":89,"time":157.2,"velocity":0.48031496062992124},{"duration":0.2400000000000091,"midi":72,"time":157.32,"velocity":0.5669291338582677},{"duration":0.2400000000000091,"midi":67,"time":157.32,"velocity":0.4566929133858268},{"duration":0.2400000000000091,"midi":74,"time":157.44,"velocity":0.5433070866141733},{"duration":0.12000000000000455,"midi":51,"time":157.44,"velocity":0.4566929133858268},{"duration":0.47999999999998977,"midi":70,"time":157.56,"velocity":0.5669291338582677},{"duration":0.47999999999998977,"midi":65,"time":157.56,"velocity":0.4566929133858268},{"duration":0.12000000000000455,"midi":63,"time":157.56,"velocity":0.4566929133858268},{"duration":0.11999999999997613,"midi":58,"time":157.68,"velocity":0.4566929133858268},{"duration":0.12000000000000455,"midi":51,"time":157.79999999999998,"velocity":0.4566929133858268},{"duration":0.12000000000000455,"midi":63,"time":157.92,"velocity":0.4566929133858268},{"duration":0.12000000000000455,"midi":58,"time":158.04,"velocity":0.4566929133858268},{"duration":0.2400000000000091,"midi":77,"time":158.16,"velocity":0.5118110236220472},{"duration":0.2400000000000091,"midi":51,"time":158.16,"velocity":0.4566929133858268},{"duration":0.23999999999998067,"midi":62,"time":158.28,"velocity":0.4566929133858268},{"duration":0.23999999999998067,"midi":65,"time":158.28,"velocity":0.5669291338582677},{"duration":0.23999999999998067,"midi":86,"time":158.4,"velocity":0.5118110236220472},{"duration":0.11999999999997613,"midi":53,"time":158.4,"velocity":0.4566929133858268},{"duration":0.2400000000000091,"midi":74,"time":158.51999999999998,"velocity":0.5669291338582677},{"duration":0.2400000000000091,"midi":70,"time":158.51999999999998,"velocity":0.4566929133858268},{"duration":0.12000000000000455,"midi":65,"time":158.51999999999998,"velocity":0.4566929133858268},{"duration":0.12000000000000455,"midi":60,"time":158.64,"velocity":0.4566929133858268},{"duration":0.2400000000000091,"midi":87,"time":158.64,"velocity":0.5118110236220472},{"duration":0.12000000000000455,"midi":53,"time":158.76,"velocity":0.4566929133858268},{"duration":0.2400000000000091,"midi":75,"time":158.76,"velocity":0.5669291338582677},{"duration":0.2400000000000091,"midi":72,"time":158.76,"velocity":0.4566929133858268},{"duration":0.2400000000000091,"midi":84,"time":158.88,"velocity":0.5118110236220472},{"duration":0.2400000000000091,"midi":65,"time":158.88,"velocity":0.4566929133858268},{"duration":0.23999999999998067,"midi":72,"time":159,"velocity":0.5669291338582677},{"duration":0.23999999999998067,"midi":69,"time":159,"velocity":0.4566929133858268},{"duration":0.12000000000000455,"midi":63,"time":159.23999999999998,"velocity":0.4566929133858268},{"duration":0.12000000000000455,"midi":82,"time":159.23999999999998,"velocity":0.5118110236220472},{"duration":1.920000000000016,"midi":62,"time":159.35999999999999,"velocity":0.4566929133858268},{"duration":0.12000000000000455,"midi":67,"time":159.35999999999999,"velocity":0.5669291338582677},{"duration":0.12000000000000455,"midi":70,"time":159.35999999999999,"velocity":0.5669291338582677},{"duration":1.920000000000016,"midi":82,"time":159.35999999999999,"velocity":0.5118110236220472},{"duration":1.8000000000000114,"midi":67,"time":159.48,"velocity":0.4566929133858268},{"duration":1.8000000000000114,"midi":70,"time":159.48,"velocity":0.5669291338582677},{"duration":0.12000000000000455,"midi":55,"time":161.28,"velocity":0.4566929133858268},{"duration":0.7199999999999989,"midi":77,"time":161.4,"velocity":0.3700787401574803},{"duration":0.11999999999997613,"midi":67,"time":161.4,"velocity":0.4566929133858268},{"duration":0.7199999999999989,"midi":82,"time":161.4,"velocity":0.3779527559055118},{"duration":0.7199999999999989,"midi":70,"time":161.4,"velocity":0.4566929133858268},{"duration":0.12000000000000455,"midi":62,"time":161.51999999999998,"velocity":0.4566929133858268},{"duration":0.12000000000000455,"midi":55,"time":161.64,"velocity":0.4566929133858268},{"duration":0.12000000000000455,"midi":67,"time":161.76,"velocity":0.4566929133858268},{"duration":0.12000000000000455,"midi":55,"time":161.88,"velocity":0.4566929133858268},{"duration":0.23999999999998067,"midi":84,"time":162.12,"velocity":0.3779527559055118},{"duration":0.23999999999998067,"midi":81,"time":162.12,"velocity":0.3700787401574803},{"duration":0.23999999999998067,"midi":72,"time":162.12,"velocity":0.4566929133858268},{"duration":0.12000000000000455,"midi":55,"time":162.23999999999998,"velocity":0.4566929133858268},{"duration":0.7199999999999989,"midi":82,"time":162.35999999999999,"velocity":0.3779527559055118},{"duration":0.12000000000000455,"midi":67,"time":162.35999999999999,"velocity":0.4566929133858268},{"duration":0.7199999999999989,"midi":77,"time":162.35999999999999,"velocity":0.3700787401574803},{"duration":0.7199999999999989,"midi":70,"time":162.35999999999999,"velocity":0.4566929133858268},{"duration":0.12000000000000455,"midi":62,"time":162.48,"velocity":0.4566929133858268},{"duration":0.12000000000000455,"midi":55,"time":162.6,"velocity":0.4566929133858268},{"duration":0.12000000000000455,"midi":67,"time":162.72,"velocity":0.4566929133858268},{"duration":0.12000000000000455,"midi":55,"time":162.84,"velocity":0.4566929133858268},{"duration":0.2400000000000091,"midi":72,"time":163.07999999999998,"velocity":0.4566929133858268},{"duration":0.2400000000000091,"midi":84,"time":163.07999999999998,"velocity":0.3779527559055118},{"duration":0.2400000000000091,"midi":81,"time":163.07999999999998,"velocity":0.3700787401574803},{"duration":0.12000000000000455,"midi":55,"time":163.2,"velocity":0.4566929133858268},{"duration":0.7199999999999989,"midi":70,"time":163.32,"velocity":0.4566929133858268},{"duration":0.12000000000000455,"midi":67,"time":163.32,"velocity":0.4566929133858268},{"duration":0.7199999999999989,"midi":77,"time":163.32,"velocity":0.3700787401574803},{"duration":0.7199999999999989,"midi":82,"time":163.32,"velocity":0.3779527559055118},{"duration":0.12000000000000455,"midi":62,"time":163.44,"velocity":0.4566929133858268},{"duration":0.12000000000000455,"midi":55,"time":163.56,"velocity":0.4566929133858268},{"duration":0.11999999999997613,"midi":67,"time":163.68,"velocity":0.4566929133858268},{"duration":0.12000000000000455,"midi":55,"time":163.79999999999998,"velocity":0.4566929133858268},{"duration":0.2400000000000091,"midi":84,"time":164.04,"velocity":0.3779527559055118},{"duration":0.2400000000000091,"midi":81,"time":164.04,"velocity":0.3700787401574803},{"duration":0.2400000000000091,"midi":72,"time":164.04,"velocity":0.4566929133858268},{"duration":0.12000000000000455,"midi":55,"time":164.16,"velocity":0.4566929133858268},{"duration":0.23999999999998067,"midi":70,"time":164.28,"velocity":0.3779527559055118},{"duration":0.12000000000000455,"midi":67,"time":164.28,"velocity":0.4566929133858268},{"duration":0.23999999999998067,"midi":74,"time":164.28,"velocity":0.49606299212598426},{"duration":0.23999999999998067,"midi":82,"time":164.28,"velocity":0.3700787401574803},{"duration":0.23999999999998067,"midi":79,"time":164.28,"velocity":0.3700787401574803},{"duration":0.23999999999998067,"midi":62,"time":164.28,"velocity":0.4566929133858268},{"duration":0.11999999999997613,"midi":53,"time":164.4,"velocity":0.4566929133858268},{"duration":0.12000000000000455,"midi":67,"time":164.51999999999998,"velocity":0.49606299212598426},{"duration":0.12000000000000455,"midi":60,"time":164.51999999999998,"velocity":0.4566929133858268},{"duration":0.12000000000000455,"midi":72,"time":164.51999999999998,"velocity":0.49606299212598426},{"duration":0.12000000000000455,"midi":70,"time":164.57999999999998,"velocity":0.49606299212598426},{"duration":0.12000000000000455,"midi":74,"time":164.57999999999998,"velocity":0.49606299212598426},{"duration":0.12000000000000455,"midi":53,"time":164.64,"velocity":0.4566929133858268},{"duration":0.12000000000000455,"midi":72,"time":164.64,"velocity":0.49606299212598426},{"duration":0.12000000000000455,"midi":67,"time":164.64,"velocity":0.49606299212598426},{"duration":0.2400000000000091,"midi":65,"time":164.76,"velocity":0.49606299212598426},{"duration":0.12000000000000455,"midi":60,"time":164.76,"velocity":0.4566929133858268},{"duration":0.2400000000000091,"midi":70,"time":164.76,"velocity":0.49606299212598426},{"duration":0.2400000000000091,"midi":53,"time":164.88,"velocity":0.4566929133858268},{"duration":0.23999999999998067,"midi":67,"time":165,"velocity":0.49606299212598426},{"duration":0.23999999999998067,"midi":72,"time":165,"velocity":0.49606299212598426},{"duration":0.11999999999997613,"midi":55,"time":165.12,"velocity":0.4566929133858268},{"duration":0.7200000000000273,"midi":70,"time":165.23999999999998,"velocity":0.4566929133858268},{"duration":0.7200000000000273,"midi":82,"time":165.23999999999998,"velocity":0.3779527559055118},{"duration":0.12000000000000455,"midi":67,"time":165.23999999999998,"velocity":0.4566929133858268},{"duration":0.7200000000000273,"midi":77,"time":165.23999999999998,"velocity":0.3700787401574803},{"duration":0.12000000000000455,"midi":62,"time":165.35999999999999,"velocity":0.4566929133858268},{"duration":0.12000000000000455,"midi":55,"time":165.48,"velocity":0.4566929133858268},{"duration":0.12000000000000455,"midi":67,"time":165.6,"velocity":0.4566929133858268},{"duration":0.12000000000000455,"midi":55,"time":165.72,"velocity":0.4566929133858268},{"duration":0.23999999999998067,"midi":81,"time":165.96,"velocity":0.3700787401574803},{"duration":0.23999999999998067,"midi":84,"time":165.96,"velocity":0.3779527559055118},{"duration":0.23999999999998067,"midi":72,"time":165.96,"velocity":0.4566929133858268},{"duration":0.12000000000000455,"midi":55,"time":166.07999999999998,"velocity":0.4566929133858268},{"duration":0.7199999999999989,"midi":82,"time":166.2,"velocity":0.3779527559055118},{"duration":0.7199999999999989,"midi":70,"time":166.2,"velocity":0.4566929133858268},{"duration":0.12000000000000455,"midi":67,"time":166.2,"velocity":0.4566929133858268},{"duration":0.7199999999999989,"midi":77,"time":166.2,"velocity":0.3700787401574803},{"duration":0.12000000000000455,"midi":62,"time":166.32,"velocity":0.4566929133858268},{"duration":0.12000000000000455,"midi":55,"time":166.44,"velocity":0.4566929133858268},{"duration":0.12000000000000455,"midi":67,"time":166.56,"velocity":0.4566929133858268},{"duration":0.11999999999997613,"midi":55,"time":166.68,"velocity":0.4566929133858268},{"duration":0.2400000000000091,"midi":72,"time":166.92,"velocity":0.4566929133858268},{"duration":0.2400000000000091,"midi":84,"time":166.92,"velocity":0.3779527559055118},{"duration":0.2400000000000091,"midi":81,"time":166.92,"velocity":0.3700787401574803},{"duration":0.12000000000000455,"midi":55,"time":167.04,"velocity":0.4566929133858268},{"duration":0.7199999999999989,"midi":70,"time":167.16,"velocity":0.4566929133858268},{"duration":0.7199999999999989,"midi":82,"time":167.16,"velocity":0.3779527559055118},{"duration":0.12000000000000455,"midi":67,"time":167.16,"velocity":0.4566929133858268},{"duration":0.7199999999999989,"midi":77,"time":167.16,"velocity":0.3700787401574803},{"duration":0.12000000000000455,"midi":62,"time":167.28,"velocity":0.4566929133858268},{"duration":0.11999999999997613,"midi":55,"time":167.4,"velocity":0.4566929133858268},{"duration":0.12000000000000455,"midi":67,"time":167.51999999999998,"velocity":0.4566929133858268},{"duration":0.12000000000000455,"midi":55,"time":167.64,"velocity":0.4566929133858268},{"duration":0.2400000000000091,"midi":81,"time":167.88,"velocity":0.3700787401574803},{"duration":0.2400000000000091,"midi":72,"time":167.88,"velocity":0.4566929133858268},{"duration":0.2400000000000091,"midi":84,"time":167.88,"velocity":0.3779527559055118},{"duration":0.12000000000000455,"midi":55,"time":168,"velocity":0.4566929133858268},{"duration":0.23999999999998067,"midi":82,"time":168.12,"velocity":0.3700787401574803},{"duration":0.23999999999998067,"midi":70,"time":168.12,"velocity":0.3779527559055118},{"duration":0.23999999999998067,"midi":79,"time":168.12,"velocity":0.3700787401574803},{"duration":0.23999999999998067,"midi":74,"time":168.12,"velocity":0.49606299212598426},{"duration":0.11999999999997613,"midi":67,"time":168.12,"velocity":0.4566929133858268},{"duration":0.23999999999998067,"midi":62,"time":168.12,"velocity":0.4566929133858268},{"duration":0.12000000000000455,"midi":53,"time":168.23999999999998,"velocity":0.4566929133858268},{"duration":0.12000000000000455,"midi":60,"time":168.35999999999999,"velocity":0.4566929133858268},{"duration":0.12000000000000455,"midi":72,"time":168.35999999999999,"velocity":0.49606299212598426},{"duration":0.12000000000000455,"midi":67,"time":168.35999999999999,"velocity":0.5039370078740157},{"duration":0.12000000000000455,"midi":74,"time":168.42,"velocity":0.49606299212598426},{"duration":0.12000000000000455,"midi":70,"time":168.42,"velocity":0.5039370078740157},{"duration":0.12000000000000455,"midi":72,"time":168.48,"velocity":0.49606299212598426},{"duration":0.12000000000000455,"midi":67,"time":168.48,"velocity":0.5039370078740157},{"duration":0.12000000000000455,"midi":53,"time":168.48,"velocity":0.4566929133858268},{"duration":0.2400000000000091,"midi":70,"time":168.6,"velocity":0.5039370078740157},{"duration":0.12000000000000455,"midi":60,"time":168.6,"velocity":0.4566929133858268},{"duration":0.2400000000000091,"midi":65,"time":168.6,"velocity":0.5039370078740157},{"duration":0.23999999999998067,"midi":53,"time":168.72,"velocity":0.4566929133858268},{"duration":0.23999999999998067,"midi":67,"time":168.84,"velocity":0.5039370078740157},{"duration":0.23999999999998067,"midi":72,"time":168.84,"velocity":0.49606299212598426},{"duration":0.12000000000000455,"midi":51,"time":168.95999999999998,"velocity":0.4566929133858268},{"duration":0.7199999999999989,"midi":70,"time":169.07999999999998,"velocity":0.4409448818897638},{"duration":0.12000000000000455,"midi":63,"time":169.07999999999998,"velocity":0.4566929133858268},{"duration":0.7199999999999989,"midi":75,"time":169.07999999999998,"velocity":0.44881889763779526},{"duration":0.4800000000000182,"midi":63,"time":169.07999999999998,"velocity":0.3700787401574803},{"duration":0.12000000000000455,"midi":58,"time":169.2,"velocity":0.4566929133858268},{"duration":0.12000000000000455,"midi":51,"time":169.32,"velocity":0.4566929133858268},{"duration":0.3599999999999852,"midi":63,"time":169.44,"velocity":0.4566929133858268},{"duration":0.12000000000000455,"midi":51,"time":169.56,"velocity":0.4566929133858268},{"duration":0.2400000000000091,"midi":81,"time":169.79999999999998,"velocity":0.44881889763779526},{"duration":0.2400000000000091,"midi":62,"time":169.79999999999998,"velocity":0.3700787401574803},{"duration":0.2400000000000091,"midi":69,"time":169.79999999999998,"velocity":0.3700787401574803},{"duration":0.12000000000000455,"midi":51,"time":169.92,"velocity":0.4566929133858268},{"duration":0.7199999999999989,"midi":75,"time":170.04,"velocity":0.44881889763779526},{"duration":0.7199999999999989,"midi":70,"time":170.04,"velocity":0.4330708661417323},{"duration":0.12000000000000455,"midi":63,"time":170.04,"velocity":0.3700787401574803},{"duration":0.47999999999998977,"midi":63,"time":170.04,"velocity":0.4566929133858268},{"duration":0.12000000000000455,"midi":58,"time":170.16,"velocity":0.4566929133858268},{"duration":0.12000000000000455,"midi":51,"time":170.28,"velocity":0.4566929133858268},{"duration":0.3599999999999852,"midi":63,"time":170.4,"velocity":0.4566929133858268},{"duration":0.12000000000000455,"midi":51,"time":170.51999999999998,"velocity":0.4566929133858268},{"duration":0.2400000000000091,"midi":81,"time":170.76,"velocity":0.44881889763779526},{"duration":0.2400000000000091,"midi":69,"time":170.76,"velocity":0.3700787401574803},{"duration":0.2400000000000091,"midi":62,"time":170.76,"velocity":0.3700787401574803},{"duration":0.12000000000000455,"midi":51,"time":170.88,"velocity":0.4566929133858268},{"duration":0.12000000000000455,"midi":63,"time":171,"velocity":0.3700787401574803},{"duration":0.7199999999999989,"midi":75,"time":171,"velocity":0.44881889763779526},{"duration":0.47999999999998977,"midi":63,"time":171,"velocity":0.4566929133858268},{"duration":0.7199999999999989,"midi":70,"time":171,"velocity":0.4330708661417323},{"duration":0.11999999999997613,"midi":58,"time":171.12,"velocity":0.4566929133858268},{"duration":0.12000000000000455,"midi":51,"time":171.23999999999998,"velocity":0.4566929133858268},{"duration":0.36000000000001364,"midi":63,"time":171.35999999999999,"velocity":0.4566929133858268},{"duration":0.12000000000000455,"midi":51,"time":171.48,"velocity":0.4566929133858268},{"duration":0.23999999999998067,"midi":69,"time":171.72,"velocity":0.3700787401574803},{"duration":0.23999999999998067,"midi":62,"time":171.72,"velocity":0.3700787401574803},{"duration":0.23999999999998067,"midi":81,"time":171.72,"velocity":0.44881889763779526},{"duration":0.11999999999997613,"midi":51,"time":171.84,"velocity":0.4566929133858268},{"duration":0.2400000000000091,"midi":74,"time":171.95999999999998,"velocity":0.49606299212598426},{"duration":0.12000000000000455,"midi":63,"time":171.95999999999998,"velocity":0.4566929133858268},{"duration":0.2400000000000091,"midi":63,"time":171.95999999999998,"velocity":0.3779527559055118},{"duration":0.2400000000000091,"midi":70,"time":171.95999999999998,"velocity":0.4566929133858268},{"duration":0.12000000000000455,"midi":58,"time":172.07999999999998,"velocity":0.4566929133858268},{"duration":0.12000000000000455,"midi":51,"time":172.2,"velocity":0.4566929133858268},{"duration":0.12000000000000455,"midi":72,"time":172.2,"velocity":0.49606299212598426},{"duration":0.12000000000000455,"midi":67,"time":172.2,"velocity":0.49606299212598426},{"duration":0.12000000000000455,"midi":74,"time":172.26,"velocity":0.49606299212598426},{"duration":0.12000000000000455,"midi":70,"time":172.26,"velocity":0.49606299212598426},{"duration":0.12000000000000455,"midi":72,"time":172.32,"velocity":0.49606299212598426},{"duration":0.12000000000000455,"midi":53,"time":172.32,"velocity":0.4566929133858268},{"duration":0.12000000000000455,"midi":67,"time":172.32,"velocity":0.49606299212598426},{"duration":0.12000000000000455,"midi":60,"time":172.44,"velocity":0.4566929133858268},{"duration":0.2400000000000091,"midi":70,"time":172.44,"velocity":0.49606299212598426},{"duration":0.2400000000000091,"midi":65,"time":172.44,"velocity":0.49606299212598426},{"duration":0.23999999999998067,"midi":53,"time":172.56,"velocity":0.4566929133858268},{"duration":0.23999999999998067,"midi":67,"time":172.68,"velocity":0.49606299212598426},{"duration":0.23999999999998067,"midi":72,"time":172.68,"velocity":0.49606299212598426},{"duration":0.12000000000000455,"midi":51,"time":172.79999999999998,"velocity":0.4566929133858268},{"duration":0.12000000000000455,"midi":63,"time":172.92,"velocity":0.4566929133858268},{"duration":0.7199999999999989,"midi":70,"time":172.92,"velocity":0.4409448818897638},{"duration":0.4800000000000182,"midi":63,"time":172.92,"velocity":0.3700787401574803},{"duration":0.7199999999999989,"midi":75,"time":172.92,"velocity":0.44881889763779526},{"duration":0.12000000000000455,"midi":58,"time":173.04,"velocity":0.4566929133858268},{"duration":0.12000000000000455,"midi":51,"time":173.16,"velocity":0.4566929133858268},{"duration":0.3599999999999852,"midi":63,"time":173.28,"velocity":0.4566929133858268},{"duration":0.11999999999997613,"midi":51,"time":173.4,"velocity":0.4566929133858268},{"duration":0.2400000000000091,"midi":62,"time":173.64,"velocity":0.3700787401574803},{"duration":0.2400000000000091,"midi":69,"time":173.64,"velocity":0.3700787401574803},{"duration":0.2400000000000091,"midi":81,"time":173.64,"velocity":0.44881889763779526},{"duration":0.12000000000000455,"midi":51,"time":173.76,"velocity":0.4566929133858268},{"duration":0.12000000000000455,"midi":63,"time":173.88,"velocity":0.4566929133858268},{"duration":0.7199999999999989,"midi":75,"time":173.88,"velocity":0.44881889763779526},{"duration":0.7199999999999989,"midi":70,"time":173.88,"velocity":0.4330708661417323},{"duration":0.47999999999998977,"midi":63,"time":173.88,"velocity":0.3700787401574803},{"duration":0.12000000000000455,"midi":58,"time":174,"velocity":0.4566929133858268},{"duration":0.11999999999997613,"midi":51,"time":174.12,"velocity":0.4566929133858268},{"duration":0.36000000000001364,"midi":63,"time":174.23999999999998,"velocity":0.4566929133858268},{"duration":0.12000000000000455,"midi":51,"time":174.35999999999999,"velocity":0.4566929133858268},{"duration":0.2400000000000091,"midi":81,"time":174.6,"velocity":0.44881889763779526},{"duration":0.2400000000000091,"midi":62,"time":174.6,"velocity":0.3700787401574803},{"duration":0.2400000000000091,"midi":69,"time":174.6,"velocity":0.3700787401574803},{"duration":0.12000000000000455,"midi":51,"time":174.72,"velocity":0.4566929133858268},{"duration":0.11999999999997613,"midi":63,"time":174.84,"velocity":0.4566929133858268},{"duration":0.47999999999998977,"midi":63,"time":174.84,"velocity":0.3700787401574803},{"duration":0.7199999999999989,"midi":70,"time":174.84,"velocity":0.4330708661417323},{"duration":0.7199999999999989,"midi":75,"time":174.84,"velocity":0.44881889763779526},{"duration":0.12000000000000455,"midi":58,"time":174.95999999999998,"velocity":0.4566929133858268},{"duration":0.12000000000000455,"midi":51,"time":175.07999999999998,"velocity":0.4566929133858268},{"duration":0.36000000000001364,"midi":63,"time":175.2,"velocity":0.4566929133858268},{"duration":0.12000000000000455,"midi":51,"time":175.32,"velocity":0.4566929133858268},{"duration":0.23999999999998067,"midi":69,"time":175.56,"velocity":0.3700787401574803},{"duration":0.23999999999998067,"midi":81,"time":175.56,"velocity":0.44881889763779526},{"duration":0.23999999999998067,"midi":62,"time":175.56,"velocity":0.3700787401574803},{"duration":0.11999999999997613,"midi":51,"time":175.68,"velocity":0.4566929133858268},{"duration":0.2400000000000091,"midi":70,"time":175.79999999999998,"velocity":0.4566929133858268},{"duration":0.12000000000000455,"midi":63,"time":175.79999999999998,"velocity":0.3779527559055118},{"duration":0.2400000000000091,"midi":63,"time":175.79999999999998,"velocity":0.4566929133858268},{"duration":0.2400000000000091,"midi":74,"time":175.79999999999998,"velocity":0.49606299212598426},{"duration":0.12000000000000455,"midi":58,"time":175.92,"velocity":0.4566929133858268},{"duration":0.12000000000000455,"midi":51,"time":176.04,"velocity":0.4566929133858268},{"duration":0.12000000000000455,"midi":72,"time":176.04,"velocity":0.49606299212598426},{"duration":0.12000000000000455,"midi":67,"time":176.04,"velocity":0.49606299212598426},{"duration":0.12000000000000455,"midi":74,"time":176.1,"velocity":0.49606299212598426},{"duration":0.12000000000000455,"midi":70,"time":176.1,"velocity":0.49606299212598426},{"duration":0.12000000000000455,"midi":67,"time":176.16,"velocity":0.49606299212598426},{"duration":0.12000000000000455,"midi":72,"time":176.16,"velocity":0.49606299212598426},{"duration":0.23999999999998067,"midi":65,"time":176.28,"velocity":0.49606299212598426},{"duration":0.23999999999998067,"midi":70,"time":176.28,"velocity":0.49606299212598426},{"duration":0.2400000000000091,"midi":67,"time":176.51999999999998,"velocity":0.49606299212598426},{"duration":0.2400000000000091,"midi":72,"time":176.51999999999998,"velocity":0.49606299212598426},{"duration":0.12000000000000455,"midi":55,"time":176.64,"velocity":0.4566929133858268},{"duration":0.7199999999999989,"midi":70,"time":176.76,"velocity":0.4566929133858268},{"duration":0.12000000000000455,"midi":67,"time":176.76,"velocity":0.4566929133858268},{"duration":0.7199999999999989,"midi":77,"time":176.76,"velocity":0.49606299212598426},{"duration":0.12000000000000455,"midi":62,"time":176.88,"velocity":0.4566929133858268},{"duration":0.12000000000000455,"midi":55,"time":177,"velocity":0.4566929133858268},{"duration":0.11999999999997613,"midi":67,"time":177.12,"velocity":0.4566929133858268},{"duration":0.12000000000000455,"midi":62,"time":177.23999999999998,"velocity":0.4566929133858268},{"duration":0.2400000000000091,"midi":72,"time":177.48,"velocity":0.4566929133858268},{"duration":0.2400000000000091,"midi":81,"time":177.48,"velocity":0.3700787401574803},{"duration":0.12000000000000455,"midi":55,"time":177.6,"velocity":0.4566929133858268},{"duration":0.7199999999999989,"midi":70,"time":177.72,"velocity":0.4566929133858268},{"duration":0.7199999999999989,"midi":77,"time":177.72,"velocity":0.49606299212598426},{"duration":0.12000000000000455,"midi":67,"time":177.72,"velocity":0.4566929133858268},{"duration":0.11999999999997613,"midi":62,"time":177.84,"velocity":0.4566929133858268},{"duration":0.12000000000000455,"midi":55,"time":177.95999999999998,"velocity":0.4566929133858268},{"duration":0.12000000000000455,"midi":67,"time":178.07999999999998,"velocity":0.4566929133858268},{"duration":0.12000000000000455,"midi":62,"time":178.2,"velocity":0.4566929133858268},{"duration":0.2400000000000091,"midi":72,"time":178.44,"velocity":0.4566929133858268},{"duration":0.2400000000000091,"midi":81,"time":178.44,"velocity":0.3700787401574803},{"duration":0.12000000000000455,"midi":55,"time":178.56,"velocity":0.4566929133858268},{"duration":0.7199999999999989,"midi":70,"time":178.68,"velocity":0.4566929133858268},{"duration":0.7199999999999989,"midi":77,"time":178.68,"velocity":0.49606299212598426},{"duration":0.11999999999997613,"midi":67,"time":178.68,"velocity":0.4566929133858268},{"duration":0.12000000000000455,"midi":62,"time":178.79999999999998,"velocity":0.4566929133858268},{"duration":0.12000000000000455,"midi":55,"time":178.92,"velocity":0.4566929133858268},{"duration":0.12000000000000455,"midi":67,"time":179.04,"velocity":0.4566929133858268},{"duration":0.12000000000000455,"midi":62,"time":179.16,"velocity":0.4566929133858268},{"duration":0.23999999999998067,"midi":81,"time":179.4,"velocity":0.3700787401574803},{"duration":0.23999999999998067,"midi":72,"time":179.4,"velocity":0.4566929133858268},{"duration":0.12000000000000455,"midi":55,"time":179.51999999999998,"velocity":0.4566929133858268},{"duration":0.2400000000000091,"midi":62,"time":179.64,"velocity":0.4566929133858268},{"duration":0.2400000000000091,"midi":79,"time":179.64,"velocity":0.3700787401574803},{"duration":0.2400000000000091,"midi":74,"time":179.64,"velocity":0.49606299212598426},{"duration":0.2400000000000091,"midi":70,"time":179.64,"velocity":0.3779527559055118},{"duration":0.12000000000000455,"midi":67,"time":179.64,"velocity":0.4566929133858268},{"duration":0.12000000000000455,"midi":62,"time":179.76,"velocity":0.4566929133858268},{"duration":0.12000000000000455,"midi":72,"time":179.88,"velocity":0.49606299212598426},{"duration":0.12000000000000455,"midi":67,"time":179.88,"velocity":0.49606299212598426},{"duration":0.12000000000000455,"midi":60,"time":179.88,"velocity":0.4566929133858268},{"duration":0.12000000000000455,"midi":74,"time":179.94,"velocity":0.49606299212598426},{"duration":0.12000000000000455,"midi":70,"time":179.94,"velocity":0.49606299212598426},{"duration":0.12000000000000455,"midi":72,"time":180,"velocity":0.49606299212598426},{"duration":0.12000000000000455,"midi":53,"time":180,"velocity":0.4566929133858268},{"duration":0.12000000000000455,"midi":67,"time":180,"velocity":0.49606299212598426},{"duration":0.23999999999998067,"midi":65,"time":180.12,"velocity":0.49606299212598426},{"duration":0.23999999999998067,"midi":70,"time":180.12,"velocity":0.49606299212598426},{"duration":0.11999999999997613,"midi":60,"time":180.12,"velocity":0.4566929133858268},{"duration":0.2400000000000091,"midi":53,"time":180.23999999999998,"velocity":0.4566929133858268},{"duration":0.2400000000000091,"midi":72,"time":180.35999999999999,"velocity":0.49606299212598426},{"duration":0.2400000000000091,"midi":67,"time":180.35999999999999,"velocity":0.49606299212598426},{"duration":0.12000000000000455,"midi":55,"time":180.48,"velocity":0.4566929133858268},{"duration":0.7199999999999989,"midi":70,"time":180.6,"velocity":0.4566929133858268},{"duration":0.7199999999999989,"midi":77,"time":180.6,"velocity":0.5039370078740157},{"duration":0.12000000000000455,"midi":67,"time":180.6,"velocity":0.4566929133858268},{"duration":0.12000000000000455,"midi":62,"time":180.72,"velocity":0.4566929133858268},{"duration":0.11999999999997613,"midi":55,"time":180.84,"velocity":0.4566929133858268},{"duration":0.12000000000000455,"midi":67,"time":180.95999999999998,"velocity":0.4566929133858268},{"duration":0.12000000000000455,"midi":62,"time":181.07999999999998,"velocity":0.4566929133858268},{"duration":0.2400000000000091,"midi":72,"time":181.32,"velocity":0.4566929133858268},{"duration":0.2400000000000091,"midi":81,"time":181.32,"velocity":0.3700787401574803},{"duration":0.12000000000000455,"midi":55,"time":181.44,"velocity":0.4566929133858268},{"duration":0.7199999999999989,"midi":77,"time":181.56,"velocity":0.5039370078740157},{"duration":0.7199999999999989,"midi":70,"time":181.56,"velocity":0.4566929133858268},{"duration":0.12000000000000455,"midi":67,"time":181.56,"velocity":0.4566929133858268},{"duration":0.11999999999997613,"midi":62,"time":181.68,"velocity":0.4566929133858268},{"duration":0.12000000000000455,"midi":55,"time":181.79999999999998,"velocity":0.4566929133858268},{"duration":0.12000000000000455,"midi":67,"time":181.92,"velocity":0.4566929133858268},{"duration":0.12000000000000455,"midi":62,"time":182.04,"velocity":0.4566929133858268},{"duration":0.23999999999998067,"midi":72,"time":182.28,"velocity":0.4566929133858268},{"duration":0.23999999999998067,"midi":81,"time":182.28,"velocity":0.3700787401574803},{"duration":0.11999999999997613,"midi":55,"time":182.4,"velocity":0.4566929133858268},{"duration":0.7199999999999989,"midi":70,"time":182.51999999999998,"velocity":0.4566929133858268},{"duration":0.12000000000000455,"midi":67,"time":182.51999999999998,"velocity":0.4566929133858268},{"duration":0.7199999999999989,"midi":77,"time":182.51999999999998,"velocity":0.5039370078740157},{"duration":0.12000000000000455,"midi":62,"time":182.64,"velocity":0.4566929133858268},{"duration":0.12000000000000455,"midi":55,"time":182.76,"velocity":0.4566929133858268},{"duration":0.12000000000000455,"midi":67,"time":182.88,"velocity":0.4566929133858268},{"duration":0.12000000000000455,"midi":62,"time":183,"velocity":0.4566929133858268},{"duration":0.2400000000000091,"midi":81,"time":183.23999999999998,"velocity":0.3700787401574803},{"duration":0.2400000000000091,"midi":72,"time":183.23999999999998,"velocity":0.4566929133858268},{"duration":0.12000000000000455,"midi":55,"time":183.35999999999999,"velocity":0.4566929133858268},{"duration":0.2400000000000091,"midi":62,"time":183.48,"velocity":0.4566929133858268},{"duration":0.2400000000000091,"midi":79,"time":183.48,"velocity":0.3700787401574803},{"duration":0.2400000000000091,"midi":70,"time":183.48,"velocity":0.3779527559055118},{"duration":0.12000000000000455,"midi":67,"time":183.48,"velocity":0.4566929133858268},{"duration":0.2400000000000091,"midi":74,"time":183.48,"velocity":0.49606299212598426},{"duration":0.12000000000000455,"midi":62,"time":183.6,"velocity":0.4566929133858268},{"duration":0.12000000000000455,"midi":72,"time":183.72,"velocity":0.49606299212598426},{"duration":0.12000000000000455,"midi":60,"time":183.72,"velocity":0.4566929133858268},{"duration":0.12000000000000455,"midi":67,"time":183.72,"velocity":0.5039370078740157},{"duration":0.12000000000000455,"midi":70,"time":183.78,"velocity":0.5039370078740157},{"duration":0.12000000000000455,"midi":74,"time":183.78,"velocity":0.49606299212598426},{"duration":0.11999999999997613,"midi":67,"time":183.84,"velocity":0.5039370078740157},{"duration":0.11999999999997613,"midi":72,"time":183.84,"velocity":0.49606299212598426},{"duration":0.11999999999997613,"midi":53,"time":183.84,"velocity":0.4566929133858268},{"duration":0.2400000000000091,"midi":65,"time":183.95999999999998,"velocity":0.5039370078740157},{"duration":0.2400000000000091,"midi":70,"time":183.95999999999998,"velocity":0.5039370078740157},{"duration":0.12000000000000455,"midi":60,"time":183.95999999999998,"velocity":0.4566929133858268},{"duration":0.2400000000000091,"midi":53,"time":184.07999999999998,"velocity":0.4566929133858268},{"duration":0.2400000000000091,"midi":72,"time":184.2,"velocity":0.49606299212598426},{"duration":0.2400000000000091,"midi":67,"time":184.2,"velocity":0.5039370078740157},{"duration":0.12000000000000455,"midi":51,"time":184.32,"velocity":0.4566929133858268},{"duration":0.7199999999999989,"midi":70,"time":184.44,"velocity":0.4409448818897638},{"duration":0.7199999999999989,"midi":75,"time":184.44,"velocity":0.44881889763779526},{"duration":0.12000000000000455,"midi":63,"time":184.44,"velocity":0.4566929133858268},{"duration":0.47999999999998977,"midi":63,"time":184.44,"velocity":0.3700787401574803},{"duration":0.12000000000000455,"midi":58,"time":184.56,"velocity":0.4566929133858268},{"duration":0.11999999999997613,"midi":51,"time":184.68,"velocity":0.4566929133858268},{"duration":0.36000000000001364,"midi":63,"time":184.79999999999998,"velocity":0.4566929133858268},{"duration":0.12000000000000455,"midi":58,"time":184.92,"velocity":0.4566929133858268},{"duration":0.2400000000000091,"midi":62,"time":185.16,"velocity":0.3700787401574803},{"duration":0.2400000000000091,"midi":69,"time":185.16,"velocity":0.3700787401574803},{"duration":0.2400000000000091,"midi":81,"time":185.16,"velocity":0.44881889763779526},{"duration":0.12000000000000455,"midi":51,"time":185.28,"velocity":0.4566929133858268},{"duration":0.11999999999997613,"midi":63,"time":185.4,"velocity":0.4566929133858268},{"duration":0.47999999999998977,"midi":63,"time":185.4,"velocity":0.3700787401574803},{"duration":0.7199999999999989,"midi":70,"time":185.4,"velocity":0.4330708661417323},{"duration":0.7199999999999989,"midi":75,"time":185.4,"velocity":0.44881889763779526},{"duration":0.12000000000000455,"midi":58,"time":185.51999999999998,"velocity":0.4566929133858268},{"duration":0.12000000000000455,"midi":51,"time":185.64,"velocity":0.4566929133858268},{"duration":0.36000000000001364,"midi":63,"time":185.76,"velocity":0.4566929133858268},{"duration":0.12000000000000455,"midi":58,"time":185.88,"velocity":0.4566929133858268},{"duration":0.23999999999998067,"midi":69,"time":186.12,"velocity":0.3700787401574803},{"duration":0.23999999999998067,"midi":81,"time":186.12,"velocity":0.44881889763779526},{"duration":0.23999999999998067,"midi":62,"time":186.12,"velocity":0.3700787401574803},{"duration":0.12000000000000455,"midi":51,"time":186.23999999999998,"velocity":0.4566929133858268},{"duration":0.12000000000000455,"midi":63,"time":186.35999999999999,"velocity":0.4566929133858268},{"duration":0.7199999999999989,"midi":75,"time":186.35999999999999,"velocity":0.44881889763779526},{"duration":0.7199999999999989,"midi":70,"time":186.35999999999999,"velocity":0.4330708661417323},{"duration":0.4800000000000182,"midi":63,"time":186.35999999999999,"velocity":0.3700787401574803},{"duration":0.12000000000000455,"midi":58,"time":186.48,"velocity":0.4566929133858268},{"duration":0.12000000000000455,"midi":51,"time":186.6,"velocity":0.4566929133858268},{"duration":0.3599999999999852,"midi":63,"time":186.72,"velocity":0.4566929133858268},{"duration":0.11999999999997613,"midi":58,"time":186.84,"velocity":0.4566929133858268},{"duration":0.2400000000000091,"midi":62,"time":187.07999999999998,"velocity":0.3700787401574803},{"duration":0.2400000000000091,"midi":81,"time":187.07999999999998,"velocity":0.44881889763779526},{"duration":0.2400000000000091,"midi":69,"time":187.07999999999998,"velocity":0.3700787401574803},{"duration":0.12000000000000455,"midi":51,"time":187.2,"velocity":0.4566929133858268},{"duration":0.12000000000000455,"midi":63,"time":187.32,"velocity":0.4566929133858268},{"duration":0.2400000000000091,"midi":74,"time":187.32,"velocity":0.49606299212598426},{"duration":0.2400000000000091,"midi":63,"time":187.32,"velocity":0.3779527559055118},{"duration":0.2400000000000091,"midi":70,"time":187.32,"velocity":0.4566929133858268},{"duration":0.12000000000000455,"midi":58,"time":187.44,"velocity":0.4566929133858268},{"duration":0.12000000000000455,"midi":67,"time":187.56,"velocity":0.49606299212598426},{"duration":0.12000000000000455,"midi":72,"time":187.56,"velocity":0.49606299212598426},{"duration":0.12000000000000455,"midi":51,"time":187.56,"velocity":0.4566929133858268},{"duration":0.11999999999997613,"midi":74,"time":187.62,"velocity":0.49606299212598426},{"duration":0.11999999999997613,"midi":70,"time":187.62,"velocity":0.49606299212598426},{"duration":0.11999999999997613,"midi":67,"time":187.68,"velocity":0.49606299212598426},{"duration":0.11999999999997613,"midi":72,"time":187.68,"velocity":0.49606299212598426},{"duration":0.11999999999997613,"midi":53,"time":187.68,"velocity":0.4566929133858268},{"duration":0.2400000000000091,"midi":65,"time":187.79999999999998,"velocity":0.49606299212598426},{"duration":0.2400000000000091,"midi":70,"time":187.79999999999998,"velocity":0.49606299212598426},{"duration":0.12000000000000455,"midi":60,"time":187.79999999999998,"velocity":0.4566929133858268},{"duration":0.2400000000000091,"midi":53,"time":187.92,"velocity":0.4566929133858268},{"duration":0.2400000000000091,"midi":67,"time":188.04,"velocity":0.49606299212598426},{"duration":0.2400000000000091,"midi":72,"time":188.04,"velocity":0.49606299212598426},{"duration":0.12000000000000455,"midi":51,"time":188.16,"velocity":0.4566929133858268},{"duration":0.12000000000000455,"midi":63,"time":188.28,"velocity":0.3700787401574803},{"duration":0.47999999999998977,"midi":63,"time":188.28,"velocity":0.4566929133858268},{"duration":0.7199999999999989,"midi":70,"time":188.28,"velocity":0.4409448818897638},{"duration":0.7199999999999989,"midi":75,"time":188.28,"velocity":0.44881889763779526},{"duration":0.11999999999997613,"midi":58,"time":188.4,"velocity":0.4566929133858268},{"duration":0.12000000000000455,"midi":51,"time":188.51999999999998,"velocity":0.4566929133858268},{"duration":0.36000000000001364,"midi":63,"time":188.64,"velocity":0.4566929133858268},{"duration":0.12000000000000455,"midi":58,"time":188.76,"velocity":0.4566929133858268},{"duration":0.23999999999998067,"midi":81,"time":189,"velocity":0.44881889763779526},{"duration":0.23999999999998067,"midi":62,"time":189,"velocity":0.3700787401574803},{"duration":0.23999999999998067,"midi":69,"time":189,"velocity":0.3700787401574803},{"duration":0.11999999999997613,"midi":51,"time":189.12,"velocity":0.4566929133858268},{"duration":0.12000000000000455,"midi":63,"time":189.23999999999998,"velocity":0.4566929133858268},{"duration":0.7199999999999989,"midi":70,"time":189.23999999999998,"velocity":0.4330708661417323},{"duration":0.7199999999999989,"midi":75,"time":189.23999999999998,"velocity":0.44881889763779526},{"duration":0.4800000000000182,"midi":63,"time":189.23999999999998,"velocity":0.3700787401574803},{"duration":0.12000000000000455,"midi":58,"time":189.35999999999999,"velocity":0.4566929133858268},{"duration":0.12000000000000455,"midi":51,"time":189.48,"velocity":0.4566929133858268},{"duration":0.3599999999999852,"midi":63,"time":189.6,"velocity":0.4566929133858268},{"duration":0.12000000000000455,"midi":58,"time":189.72,"velocity":0.4566929133858268},{"duration":0.2400000000000091,"midi":62,"time":189.95999999999998,"velocity":0.3700787401574803},{"duration":0.2400000000000091,"midi":69,"time":189.95999999999998,"velocity":0.3700787401574803},{"duration":0.2400000000000091,"midi":81,"time":189.95999999999998,"velocity":0.44881889763779526},{"duration":0.12000000000000455,"midi":51,"time":190.07999999999998,"velocity":0.4566929133858268},{"duration":0.7199999999999989,"midi":75,"time":190.2,"velocity":0.44881889763779526},{"duration":0.7199999999999989,"midi":70,"time":190.2,"velocity":0.4330708661417323},{"duration":0.12000000000000455,"midi":63,"time":190.2,"velocity":0.4566929133858268},{"duration":0.4800000000000182,"midi":63,"time":190.2,"velocity":0.3700787401574803},{"duration":0.12000000000000455,"midi":58,"time":190.32,"velocity":0.4566929133858268},{"duration":0.12000000000000455,"midi":51,"time":190.44,"velocity":0.4566929133858268},{"duration":0.3599999999999852,"midi":63,"time":190.56,"velocity":0.4566929133858268},{"duration":0.11999999999997613,"midi":58,"time":190.68,"velocity":0.4566929133858268},{"duration":0.2400000000000091,"midi":62,"time":190.92,"velocity":0.3700787401574803},{"duration":0.2400000000000091,"midi":81,"time":190.92,"velocity":0.44881889763779526},{"duration":0.2400000000000091,"midi":69,"time":190.92,"velocity":0.3700787401574803},{"duration":0.12000000000000455,"midi":51,"time":191.04,"velocity":0.4566929133858268},{"duration":0.2400000000000091,"midi":70,"time":191.16,"velocity":0.4566929133858268},{"duration":0.12000000000000455,"midi":63,"time":191.16,"velocity":0.3779527559055118},{"duration":0.2400000000000091,"midi":63,"time":191.16,"velocity":0.4566929133858268},{"duration":0.2400000000000091,"midi":74,"time":191.16,"velocity":0.49606299212598426},{"duration":0.12000000000000455,"midi":58,"time":191.28,"velocity":0.4566929133858268},{"duration":0.11999999999997613,"midi":51,"time":191.4,"velocity":0.4566929133858268},{"duration":0.11999999999997613,"midi":72,"time":191.4,"velocity":0.49606299212598426},{"duration":0.11999999999997613,"midi":67,"time":191.4,"velocity":0.49606299212598426},{"duration":0.12000000000000455,"midi":74,"time":191.45999999999998,"velocity":0.49606299212598426},{"duration":0.12000000000000455,"midi":70,"time":191.45999999999998,"velocity":0.49606299212598426},{"duration":0.12000000000000455,"midi":53,"time":191.51999999999998,"velocity":0.4566929133858268},{"duration":0.12000000000000455,"midi":72,"time":191.51999999999998,"velocity":0.49606299212598426},{"duration":0.12000000000000455,"midi":67,"time":191.51999999999998,"velocity":0.49606299212598426},{"duration":0.2400000000000091,"midi":70,"time":191.64,"velocity":0.49606299212598426},{"duration":0.12000000000000455,"midi":60,"time":191.64,"velocity":0.4566929133858268},{"duration":0.2400000000000091,"midi":65,"time":191.64,"velocity":0.49606299212598426},{"duration":0.2400000000000091,"midi":53,"time":191.76,"velocity":0.4566929133858268},{"duration":0.2400000000000091,"midi":72,"time":191.88,"velocity":0.49606299212598426},{"duration":0.2400000000000091,"midi":67,"time":191.88,"velocity":0.49606299212598426},{"duration":0.12000000000000455,"midi":55,"time":192,"velocity":0.4566929133858268},{"duration":0.7199999999999989,"midi":70,"time":192.12,"velocity":0.4566929133858268},{"duration":0.7199999999999989,"midi":77,"time":192.12,"velocity":0.49606299212598426},{"duration":0.11999999999997613,"midi":67,"time":192.12,"velocity":0.4566929133858268},{"duration":0.12000000000000455,"midi":62,"time":192.23999999999998,"velocity":0.4566929133858268},{"duration":0.12000000000000455,"midi":55,"time":192.35999999999999,"velocity":0.4566929133858268},{"duration":0.12000000000000455,"midi":67,"time":192.48,"velocity":0.4566929133858268},{"duration":0.12000000000000455,"midi":62,"time":192.6,"velocity":0.4566929133858268},{"duration":0.23999999999998067,"midi":72,"time":192.84,"velocity":0.4566929133858268},{"duration":0.23999999999998067,"midi":81,"time":192.84,"velocity":0.3700787401574803},{"duration":0.12000000000000455,"midi":55,"time":192.95999999999998,"velocity":0.4566929133858268},{"duration":0.12000000000000455,"midi":67,"time":193.07999999999998,"velocity":0.4566929133858268},{"duration":0.7199999999999989,"midi":77,"time":193.07999999999998,"velocity":0.49606299212598426},{"duration":0.7199999999999989,"midi":70,"time":193.07999999999998,"velocity":0.4566929133858268},{"duration":0.12000000000000455,"midi":62,"time":193.2,"velocity":0.4566929133858268},{"duration":0.12000000000000455,"midi":55,"time":193.32,"velocity":0.4566929133858268},{"duration":0.12000000000000455,"midi":67,"time":193.44,"velocity":0.4566929133858268},{"duration":0.12000000000000455,"midi":62,"time":193.56,"velocity":0.4566929133858268},{"duration":0.2400000000000091,"midi":81,"time":193.79999999999998,"velocity":0.3700787401574803},{"duration":0.2400000000000091,"midi":72,"time":193.79999999999998,"velocity":0.4566929133858268},{"duration":0.12000000000000455,"midi":55,"time":193.92,"velocity":0.4566929133858268},{"duration":0.7199999999999989,"midi":77,"time":194.04,"velocity":0.49606299212598426},{"duration":0.7199999999999989,"midi":70,"time":194.04,"velocity":0.4566929133858268},{"duration":0.12000000000000455,"midi":67,"time":194.04,"velocity":0.4566929133858268},{"duration":0.12000000000000455,"midi":62,"time":194.16,"velocity":0.4566929133858268},{"duration":0.12000000000000455,"midi":55,"time":194.28,"velocity":0.4566929133858268},{"duration":0.11999999999997613,"midi":67,"time":194.4,"velocity":0.4566929133858268},{"duration":0.12000000000000455,"midi":62,"time":194.51999999999998,"velocity":0.4566929133858268},{"duration":0.2400000000000091,"midi":72,"time":194.76,"velocity":0.4566929133858268},{"duration":0.2400000000000091,"midi":81,"time":194.76,"velocity":0.3700787401574803},{"duration":0.12000000000000455,"midi":55,"time":194.88,"velocity":0.4566929133858268},{"duration":0.23999999999998067,"midi":79,"time":195,"velocity":0.3700787401574803},{"duration":0.23999999999998067,"midi":70,"time":195,"velocity":0.3779527559055118},{"duration":0.23999999999998067,"midi":74,"time":195,"velocity":0.49606299212598426},{"duration":0.12000000000000455,"midi":67,"time":195,"velocity":0.4566929133858268},{"duration":0.23999999999998067,"midi":62,"time":195,"velocity":0.4566929133858268},{"duration":0.11999999999997613,"midi":62,"time":195.12,"velocity":0.4566929133858268},{"duration":0.12000000000000455,"midi":72,"time":195.23999999999998,"velocity":0.49606299212598426},{"duration":0.12000000000000455,"midi":60,"time":195.23999999999998,"velocity":0.4566929133858268},{"duration":0.12000000000000455,"midi":67,"time":195.23999999999998,"velocity":0.49606299212598426},{"duration":0.12000000000000455,"midi":70,"time":195.29999999999998,"velocity":0.49606299212598426},{"duration":0.12000000000000455,"midi":74,"time":195.29999999999998,"velocity":0.49606299212598426},{"duration":0.12000000000000455,"midi":72,"time":195.35999999999999,"velocity":0.49606299212598426},{"duration":0.12000000000000455,"midi":53,"time":195.35999999999999,"velocity":0.4566929133858268},{"duration":0.12000000000000455,"midi":67,"time":195.35999999999999,"velocity":0.49606299212598426},{"duration":0.2400000000000091,"midi":70,"time":195.48,"velocity":0.49606299212598426},{"duration":0.12000000000000455,"midi":60,"time":195.48,"velocity":0.4566929133858268},{"duration":0.2400000000000091,"midi":65,"time":195.48,"velocity":0.49606299212598426},{"duration":0.2400000000000091,"midi":53,"time":195.6,"velocity":0.4566929133858268},{"duration":0.23999999999998067,"midi":67,"time":195.72,"velocity":0.49606299212598426},{"duration":0.23999999999998067,"midi":72,"time":195.72,"velocity":0.49606299212598426},{"duration":0.11999999999997613,"midi":55,"time":195.84,"velocity":0.4566929133858268},{"duration":0.12000000000000455,"midi":67,"time":195.95999999999998,"velocity":0.4566929133858268},{"duration":0.7200000000000273,"midi":77,"time":195.95999999999998,"velocity":0.5039370078740157},{"duration":0.7200000000000273,"midi":70,"time":195.95999999999998,"velocity":0.4566929133858268},{"duration":0.12000000000000455,"midi":62,"time":196.07999999999998,"velocity":0.4566929133858268},{"duration":0.12000000000000455,"midi":55,"time":196.2,"velocity":0.4566929133858268},{"duration":0.12000000000000455,"midi":67,"time":196.32,"velocity":0.4566929133858268},{"duration":0.12000000000000455,"midi":62,"time":196.44,"velocity":0.4566929133858268},{"duration":0.23999999999998067,"midi":72,"time":196.68,"velocity":0.4566929133858268},{"duration":0.23999999999998067,"midi":81,"time":196.68,"velocity":0.3700787401574803},{"duration":0.12000000000000455,"midi":55,"time":196.79999999999998,"velocity":0.4566929133858268},{"duration":0.7199999999999989,"midi":70,"time":196.92,"velocity":0.4566929133858268},{"duration":0.7199999999999989,"midi":77,"time":196.92,"velocity":0.5039370078740157},{"duration":0.12000000000000455,"midi":67,"time":196.92,"velocity":0.4566929133858268},{"duration":0.12000000000000455,"midi":62,"time":197.04,"velocity":0.4566929133858268},{"duration":0.12000000000000455,"midi":55,"time":197.16,"velocity":0.4566929133858268},{"duration":0.12000000000000455,"midi":67,"time":197.28,"velocity":0.4566929133858268},{"duration":0.11999999999997613,"midi":62,"time":197.4,"velocity":0.4566929133858268},{"duration":0.2400000000000091,"midi":81,"time":197.64,"velocity":0.3700787401574803},{"duration":0.2400000000000091,"midi":72,"time":197.64,"velocity":0.4566929133858268},{"duration":0.12000000000000455,"midi":55,"time":197.76,"velocity":0.4566929133858268},{"duration":0.7199999999999989,"midi":70,"time":197.88,"velocity":0.4566929133858268},{"duration":0.12000000000000455,"midi":67,"time":197.88,"velocity":0.4566929133858268},{"duration":0.7199999999999989,"midi":77,"time":197.88,"velocity":0.5039370078740157},{"duration":0.12000000000000455,"midi":62,"time":198,"velocity":0.4566929133858268},{"duration":0.11999999999997613,"midi":55,"time":198.12,"velocity":0.4566929133858268},{"duration":0.12000000000000455,"midi":67,"time":198.23999999999998,"velocity":0.4566929133858268},{"duration":0.12000000000000455,"midi":62,"time":198.35999999999999,"velocity":0.4566929133858268},{"duration":0.2400000000000091,"midi":81,"time":198.6,"velocity":0.3700787401574803},{"duration":0.2400000000000091,"midi":72,"time":198.6,"velocity":0.4566929133858268},{"duration":0.12000000000000455,"midi":55,"time":198.72,"velocity":0.4566929133858268},{"duration":0.23999999999998067,"midi":74,"time":198.84,"velocity":0.49606299212598426},{"duration":0.23999999999998067,"midi":79,"time":198.84,"velocity":0.3700787401574803},{"duration":0.23999999999998067,"midi":62,"time":198.84,"velocity":0.4566929133858268},{"duration":0.23999999999998067,"midi":70,"time":198.84,"velocity":0.3779527559055118},{"duration":0.11999999999997613,"midi":67,"time":198.84,"velocity":0.4566929133858268},{"duration":0.12000000000000455,"midi":62,"time":198.95999999999998,"velocity":0.4566929133858268},{"duration":0.12000000000000455,"midi":60,"time":199.07999999999998,"velocity":0.4566929133858268},{"duration":0.12000000000000455,"midi":67,"time":199.07999999999998,"velocity":0.5039370078740157},{"duration":0.12000000000000455,"midi":72,"time":199.07999999999998,"velocity":0.49606299212598426},{"duration":0.12000000000000455,"midi":70,"time":199.14,"velocity":0.5039370078740157},{"duration":0.12000000000000455,"midi":74,"time":199.14,"velocity":0.49606299212598426},{"duration":0.12000000000000455,"midi":53,"time":199.2,"velocity":0.4566929133858268},{"duration":0.12000000000000455,"midi":72,"time":199.2,"velocity":0.49606299212598426},{"duration":0.12000000000000455,"midi":67,"time":199.2,"velocity":0.5039370078740157},{"duration":0.12000000000000455,"midi":60,"time":199.32,"velocity":0.4566929133858268},{"duration":0.2400000000000091,"midi":65,"time":199.32,"velocity":0.5039370078740157},{"duration":0.2400000000000091,"midi":70,"time":199.32,"velocity":0.5039370078740157},{"duration":0.2400000000000091,"midi":53,"time":199.44,"velocity":0.4566929133858268},{"duration":0.23999999999998067,"midi":72,"time":199.56,"velocity":0.49606299212598426},{"duration":0.23999999999998067,"midi":67,"time":199.56,"velocity":0.5039370078740157},{"duration":0.11999999999997613,"midi":51,"time":199.68,"velocity":0.4566929133858268},{"duration":0.12000000000000455,"midi":63,"time":199.79999999999998,"velocity":0.4566929133858268},{"duration":0.7199999999999989,"midi":75,"time":199.79999999999998,"velocity":0.44881889763779526},{"duration":0.4800000000000182,"midi":63,"time":199.79999999999998,"velocity":0.3700787401574803},{"duration":0.7199999999999989,"midi":70,"time":199.79999999999998,"velocity":0.4409448818897638},{"duration":0.12000000000000455,"midi":58,"time":199.92,"velocity":0.4566929133858268},{"duration":0.12000000000000455,"midi":51,"time":200.04,"velocity":0.4566929133858268},{"duration":0.3599999999999852,"midi":63,"time":200.16,"velocity":0.4566929133858268},{"duration":0.12000000000000455,"midi":58,"time":200.28,"velocity":0.4566929133858268},{"duration":0.2400000000000091,"midi":69,"time":200.51999999999998,"velocity":0.3700787401574803},{"duration":0.2400000000000091,"midi":81,"time":200.51999999999998,"velocity":0.44881889763779526},{"duration":0.2400000000000091,"midi":62,"time":200.51999999999998,"velocity":0.3700787401574803},{"duration":0.12000000000000455,"midi":51,"time":200.64,"velocity":0.4566929133858268},{"duration":0.12000000000000455,"midi":63,"time":200.76,"velocity":0.3700787401574803},{"duration":0.7199999999999989,"midi":75,"time":200.76,"velocity":0.44881889763779526},{"duration":0.47999999999998977,"midi":63,"time":200.76,"velocity":0.4566929133858268},{"duration":0.7199999999999989,"midi":70,"time":200.76,"velocity":0.4330708661417323},{"duration":0.12000000000000455,"midi":58,"time":200.88,"velocity":0.4566929133858268},{"duration":0.12000000000000455,"midi":51,"time":201,"velocity":0.4566929133858268},{"duration":0.3599999999999852,"midi":63,"time":201.12,"velocity":0.4566929133858268},{"duration":0.12000000000000455,"midi":58,"time":201.23999999999998,"velocity":0.4566929133858268},{"duration":0.2400000000000091,"midi":69,"time":201.48,"velocity":0.3700787401574803},{"duration":0.2400000000000091,"midi":62,"time":201.48,"velocity":0.3700787401574803},{"duration":0.2400000000000091,"midi":81,"time":201.48,"velocity":0.44881889763779526},{"duration":0.12000000000000455,"midi":51,"time":201.6,"velocity":0.4566929133858268},{"duration":0.12000000000000455,"midi":63,"time":201.72,"velocity":0.4566929133858268},{"duration":0.7199999999999989,"midi":75,"time":201.72,"velocity":0.44881889763779526},{"duration":0.7199999999999989,"midi":70,"time":201.72,"velocity":0.4330708661417323},{"duration":0.47999999999998977,"midi":63,"time":201.72,"velocity":0.3700787401574803},{"duration":0.11999999999997613,"midi":58,"time":201.84,"velocity":0.4566929133858268},{"duration":0.12000000000000455,"midi":51,"time":201.95999999999998,"velocity":0.4566929133858268},{"duration":0.36000000000001364,"midi":63,"time":202.07999999999998,"velocity":0.4566929133858268},{"duration":0.12000000000000455,"midi":58,"time":202.2,"velocity":0.4566929133858268},{"duration":0.23999999999998067,"midi":81,"time":202.44,"velocity":0.44881889763779526},{"duration":0.23999999999998067,"midi":69,"time":202.44,"velocity":0.3700787401574803},{"duration":0.23999999999998067,"midi":62,"time":202.44,"velocity":0.3700787401574803},{"duration":0.11999999999997613,"midi":51,"time":202.56,"velocity":0.4566929133858268},{"duration":0.2400000000000091,"midi":70,"time":202.67999999999998,"velocity":0.4566929133858268},{"duration":0.2400000000000091,"midi":74,"time":202.67999999999998,"velocity":0.49606299212598426},{"duration":0.12000000000000455,"midi":63,"time":202.67999999999998,"velocity":0.4566929133858268},{"duration":0.2400000000000091,"midi":63,"time":202.67999999999998,"velocity":0.3779527559055118},{"duration":0.12000000000000455,"midi":58,"time":202.79999999999998,"velocity":0.4566929133858268},{"duration":0.12000000000000455,"midi":51,"time":202.92,"velocity":0.4566929133858268},{"duration":0.12000000000000455,"midi":67,"time":202.92,"velocity":0.49606299212598426},{"duration":0.12000000000000455,"midi":72,"time":202.92,"velocity":0.49606299212598426},{"duration":0.12000000000000455,"midi":74,"time":202.98,"velocity":0.49606299212598426},{"duration":0.12000000000000455,"midi":70,"time":202.98,"velocity":0.49606299212598426},{"duration":0.12000000000000455,"midi":72,"time":203.04,"velocity":0.49606299212598426},{"duration":0.12000000000000455,"midi":67,"time":203.04,"velocity":0.49606299212598426},{"duration":0.12000000000000455,"midi":53,"time":203.04,"velocity":0.4566929133858268},{"duration":0.12000000000000455,"midi":60,"time":203.16,"velocity":0.4566929133858268},{"duration":0.2400000000000091,"midi":65,"time":203.16,"velocity":0.49606299212598426},{"duration":0.2400000000000091,"midi":70,"time":203.16,"velocity":0.49606299212598426},{"duration":0.23999999999998067,"midi":53,"time":203.28,"velocity":0.4566929133858268},{"duration":0.23999999999998067,"midi":72,"time":203.4,"velocity":0.49606299212598426},{"duration":0.23999999999998067,"midi":67,"time":203.4,"velocity":0.49606299212598426},{"duration":0.12000000000000455,"midi":51,"time":203.51999999999998,"velocity":0.4566929133858268},{"duration":0.7199999999999989,"midi":75,"time":203.64,"velocity":0.44881889763779526},{"duration":0.12000000000000455,"midi":63,"time":203.64,"velocity":0.4566929133858268},{"duration":0.4800000000000182,"midi":63,"time":203.64,"velocity":0.3700787401574803},{"duration":0.7199999999999989,"midi":70,"time":203.64,"velocity":0.4409448818897638},{"duration":0.12000000000000455,"midi":58,"time":203.76,"velocity":0.4566929133858268},{"duration":0.12000000000000455,"midi":51,"time":203.88,"velocity":0.4566929133858268},{"duration":0.3599999999999852,"midi":63,"time":204,"velocity":0.4566929133858268},{"duration":0.11999999999997613,"midi":58,"time":204.12,"velocity":0.4566929133858268},{"duration":0.2400000000000091,"midi":62,"time":204.35999999999999,"velocity":0.3700787401574803},{"duration":0.2400000000000091,"midi":69,"time":204.35999999999999,"velocity":0.3700787401574803},{"duration":0.2400000000000091,"midi":81,"time":204.35999999999999,"velocity":0.44881889763779526},{"duration":0.12000000000000455,"midi":51,"time":204.48,"velocity":0.4566929133858268},{"duration":0.7199999999999989,"midi":75,"time":204.6,"velocity":0.44881889763779526},{"duration":0.7199999999999989,"midi":70,"time":204.6,"velocity":0.4330708661417323},{"duration":0.12000000000000455,"midi":63,"time":204.6,"velocity":0.3700787401574803},{"duration":0.47999999999998977,"midi":63,"time":204.6,"velocity":0.4566929133858268},{"duration":0.12000000000000455,"midi":58,"time":204.72,"velocity":0.4566929133858268},{"duration":0.11999999999997613,"midi":51,"time":204.84,"velocity":0.4566929133858268},{"duration":0.36000000000001364,"midi":63,"time":204.95999999999998,"velocity":0.4566929133858268},{"duration":0.12000000000000455,"midi":58,"time":205.07999999999998,"velocity":0.4566929133858268},{"duration":0.2400000000000091,"midi":81,"time":205.32,"velocity":0.44881889763779526},{"duration":0.2400000000000091,"midi":62,"time":205.32,"velocity":0.3700787401574803},{"duration":0.2400000000000091,"midi":69,"time":205.32,"velocity":0.3700787401574803},{"duration":0.12000000000000455,"midi":51,"time":205.44,"velocity":0.4566929133858268},{"duration":0.11999999999997613,"midi":63,"time":205.56,"velocity":0.4566929133858268},{"duration":0.47999999999998977,"midi":63,"time":205.56,"velocity":0.3700787401574803},{"duration":0.7199999999999989,"midi":70,"time":205.56,"velocity":0.4330708661417323},{"duration":0.7199999999999989,"midi":75,"time":205.56,"velocity":0.44881889763779526},{"duration":0.12000000000000455,"midi":58,"time":205.67999999999998,"velocity":0.4566929133858268},{"duration":0.12000000000000455,"midi":51,"time":205.79999999999998,"velocity":0.4566929133858268},{"duration":0.36000000000001364,"midi":63,"time":205.92,"velocity":0.4566929133858268},{"duration":0.12000000000000455,"midi":58,"time":206.04,"velocity":0.4566929133858268},{"duration":0.23999999999998067,"midi":62,"time":206.28,"velocity":0.3700787401574803},{"duration":0.23999999999998067,"midi":69,"time":206.28,"velocity":0.3700787401574803},{"duration":0.23999999999998067,"midi":81,"time":206.28,"velocity":0.44881889763779526},{"duration":0.11999999999997613,"midi":51,"time":206.4,"velocity":0.4566929133858268},{"duration":0.12000000000000455,"midi":63,"time":206.51999999999998,"velocity":0.4566929133858268},{"duration":0.2400000000000091,"midi":70,"time":206.51999999999998,"velocity":0.4566929133858268},{"duration":0.2400000000000091,"midi":74,"time":206.51999999999998,"velocity":0.49606299212598426},{"duration":0.2400000000000091,"midi":63,"time":206.51999999999998,"velocity":0.3779527559055118},{"duration":0.12000000000000455,"midi":58,"time":206.64,"velocity":0.4566929133858268},{"duration":0.12000000000000455,"midi":67,"time":206.76,"velocity":0.49606299212598426},{"duration":0.12000000000000455,"midi":51,"time":206.76,"velocity":0.4566929133858268},{"duration":0.12000000000000455,"midi":72,"time":206.76,"velocity":0.49606299212598426},{"duration":0.12000000000000455,"midi":74,"time":206.82,"velocity":0.49606299212598426},{"duration":0.12000000000000455,"midi":70,"time":206.82,"velocity":0.49606299212598426},{"duration":0.12000000000000455,"midi":53,"time":206.88,"velocity":0.4566929133858268},{"duration":0.12000000000000455,"midi":67,"time":206.88,"velocity":0.49606299212598426},{"duration":0.12000000000000455,"midi":72,"time":206.88,"velocity":0.49606299212598426},{"duration":0.23999999999998067,"midi":70,"time":207,"velocity":0.49606299212598426},{"duration":0.23999999999998067,"midi":65,"time":207,"velocity":0.49606299212598426},{"duration":0.12000000000000455,"midi":60,"time":207,"velocity":0.4566929133858268},{"duration":0.23999999999998067,"midi":53,"time":207.12,"velocity":0.4566929133858268},{"duration":0.2400000000000091,"midi":67,"time":207.23999999999998,"velocity":0.49606299212598426},{"duration":0.2400000000000091,"midi":72,"time":207.23999999999998,"velocity":0.49606299212598426},{"duration":0.12000000000000455,"midi":48,"time":207.35999999999999,"velocity":0.4566929133858268},{"duration":0.12000000000000455,"midi":60,"time":207.48,"velocity":0.4566929133858268},{"duration":0.47999999999998977,"midi":82,"time":207.48,"velocity":0.5669291338582677},{"duration":0.47999999999998977,"midi":75,"time":207.48,"velocity":0.5118110236220472},{"duration":0.12000000000000455,"midi":55,"time":207.6,"velocity":0.4566929133858268},{"duration":0.12000000000000455,"midi":48,"time":207.72,"velocity":0.4566929133858268},{"duration":0.11999999999997613,"midi":60,"time":207.84,"velocity":0.4566929133858268},{"duration":0.12000000000000455,"midi":55,"time":207.95999999999998,"velocity":0.4566929133858268},{"duration":0.12000000000000455,"midi":55,"time":207.95999999999998,"velocity":0.4566929133858268},{"duration":0.2400000000000091,"midi":48,"time":208.07999999999998,"velocity":0.4566929133858268},{"duration":0.12000000000000455,"midi":48,"time":208.32,"velocity":0.4566929133858268},{"duration":0.23999999999998067,"midi":82,"time":208.44,"velocity":0.5669291338582677},{"duration":0.23999999999998067,"midi":74,"time":208.44,"velocity":0.4881889763779528},{"duration":0.12000000000000455,"midi":60,"time":208.44,"velocity":0.4566929133858268},{"duration":0.11999999999997613,"midi":55,"time":208.56,"velocity":0.4566929133858268},{"duration":0.12000000000000455,"midi":48,"time":208.67999999999998,"velocity":0.4566929133858268},{"duration":0.12000000000000455,"midi":72,"time":208.67999999999998,"velocity":0.4881889763779528},{"duration":0.12000000000000455,"midi":81,"time":208.67999999999998,"velocity":0.5669291338582677},{"duration":0.12000000000000455,"midi":74,"time":208.73999999999998,"velocity":0.4881889763779528},{"duration":0.12000000000000455,"midi":82,"time":208.73999999999998,"velocity":0.5669291338582677},{"duration":0.12000000000000455,"midi":81,"time":208.79999999999998,"velocity":0.5669291338582677},{"duration":0.12000000000000455,"midi":72,"time":208.79999999999998,"velocity":0.4881889763779528},{"duration":0.12000000000000455,"midi":60,"time":208.79999999999998,"velocity":0.4566929133858268},{"duration":0.2400000000000091,"midi":70,"time":208.92,"velocity":0.4881889763779528},{"duration":0.2400000000000091,"midi":79,"time":208.92,"velocity":0.5669291338582677},{"duration":0.12000000000000455,"midi":55,"time":208.92,"velocity":0.4566929133858268},{"duration":0.2400000000000091,"midi":48,"time":209.04,"velocity":0.4566929133858268},{"duration":0.2400000000000091,"midi":72,"time":209.16,"velocity":0.4881889763779528},{"duration":0.2400000000000091,"midi":81,"time":209.16,"velocity":0.5669291338582677},{"duration":0.12000000000000455,"midi":50,"time":209.28,"velocity":0.4566929133858268},{"duration":0.47999999999998977,"midi":77,"time":209.4,"velocity":0.48031496062992124},{"duration":0.11999999999997613,"midi":62,"time":209.4,"velocity":0.4566929133858268},{"duration":0.47999999999998977,"midi":82,"time":209.4,"velocity":0.5669291338582677},{"duration":0.47999999999998977,"midi":74,"time":209.4,"velocity":0.48031496062992124},{"duration":0.12000000000000455,"midi":57,"time":209.51999999999998,"velocity":0.4566929133858268},{"duration":0.12000000000000455,"midi":50,"time":209.64,"velocity":0.4566929133858268},{"duration":0.12000000000000455,"midi":62,"time":209.76,"velocity":0.4566929133858268},{"duration":0.12000000000000455,"midi":57,"time":209.88,"velocity":0.4566929133858268},{"duration":0.23999999999998067,"midi":50,"time":210,"velocity":0.4566929133858268},{"duration":0.12000000000000455,"midi":55,"time":210.23999999999998,"velocity":0.4566929133858268},{"duration":0.12000000000000455,"midi":67,"time":210.35999999999999,"velocity":0.4566929133858268},{"duration":0.2400000000000091,"midi":77,"time":210.35999999999999,"velocity":0.48031496062992124},{"duration":0.2400000000000091,"midi":74,"time":210.35999999999999,"velocity":0.48031496062992124},{"duration":0.2400000000000091,"midi":82,"time":210.35999999999999,"velocity":0.5669291338582677},{"duration":0.12000000000000455,"midi":62,"time":210.48,"velocity":0.4566929133858268},{"duration":0.12000000000000455,"midi":81,"time":210.6,"velocity":0.5669291338582677},{"duration":0.12000000000000455,"midi":72,"time":210.6,"velocity":0.5669291338582677},{"duration":0.12000000000000455,"midi":58,"time":210.6,"velocity":0.4566929133858268},{"duration":0.12000000000000455,"midi":82,"time":210.66,"velocity":0.5669291338582677},{"duration":0.12000000000000455,"midi":74,"time":210.66,"velocity":0.5669291338582677},{"duration":0.12000000000000455,"midi":72,"time":210.72,"velocity":0.5669291338582677},{"duration":0.12000000000000455,"midi":53,"time":210.72,"velocity":0.4566929133858268},{"duration":0.12000000000000455,"midi":81,"time":210.72,"velocity":0.5669291338582677},{"duration":0.11999999999997613,"midi":60,"time":210.84,"velocity":0.4566929133858268},{"duration":0.23999999999998067,"midi":79,"time":210.84,"velocity":0.5669291338582677},{"duration":0.23999999999998067,"midi":70,"time":210.84,"velocity":0.5669291338582677},{"duration":0.2400000000000091,"midi":53,"time":210.95999999999998,"velocity":0.4566929133858268},{"duration":0.2400000000000091,"midi":81,"time":211.07999999999998,"velocity":0.5669291338582677},{"duration":0.2400000000000091,"midi":72,"time":211.07999999999998,"velocity":0.5669291338582677},{"duration":0.12000000000000455,"midi":51,"time":211.2,"velocity":0.4566929133858268},{"duration":0.47999999999998977,"midi":77,"time":211.32,"velocity":0.5196850393700787},{"duration":0.47999999999998977,"midi":82,"time":211.32,"velocity":0.5669291338582677},{"duration":0.12000000000000455,"midi":63,"time":211.32,"velocity":0.4566929133858268},{"duration":0.47999999999998977,"midi":74,"time":211.32,"velocity":0.48031496062992124},{"duration":0.12000000000000455,"midi":58,"time":211.44,"velocity":0.4566929133858268},{"duration":0.11999999999997613,"midi":51,"time":211.56,"velocity":0.4566929133858268},{"duration":0.12000000000000455,"midi":63,"time":211.67999999999998,"velocity":0.4566929133858268},{"duration":0.12000000000000455,"midi":58,"time":211.79999999999998,"velocity":0.4566929133858268},{"duration":0.2400000000000091,"midi":51,"time":211.92,"velocity":0.4566929133858268},{"duration":0.2400000000000091,"midi":81,"time":212.04,"velocity":0.5669291338582677},{"duration":0.12000000000000455,"midi":53,"time":212.16,"velocity":0.4566929133858268},{"duration":0.12000000000000455,"midi":65,"time":212.28,"velocity":0.4566929133858268},{"duration":0.47999999999998977,"midi":72,"time":212.28,"velocity":0.5118110236220472},{"duration":0.47999999999998977,"midi":77,"time":212.28,"velocity":0.5669291338582677},{"duration":0.11999999999997613,"midi":60,"time":212.4,"velocity":0.4566929133858268},{"duration":0.12000000000000455,"midi":53,"time":212.51999999999998,"velocity":0.4566929133858268},{"duration":0.12000000000000455,"midi":54,"time":212.64,"velocity":0.4566929133858268},{"duration":0.12000000000000455,"midi":66,"time":212.76,"velocity":0.4566929133858268},{"duration":0.2400000000000091,"midi":54,"time":212.88,"velocity":0.4566929133858268},{"duration":0.12000000000000455,"midi":74,"time":212.94,"velocity":0.5669291338582677},{"duration":0.23999999999998067,"midi":75,"time":213,"velocity":0.5669291338582677},{"duration":0.23999999999998067,"midi":69,"time":213,"velocity":0.44881889763779526},{"duration":0.11999999999997613,"midi":55,"time":213.12,"velocity":0.4566929133858268},{"duration":0.4800000000000182,"midi":70,"time":213.23999999999998,"velocity":0.44881889763779526},{"duration":0.12000000000000455,"midi":67,"time":213.23999999999998,"velocity":0.4566929133858268},{"duration":0.4800000000000182,"midi":74,"time":213.23999999999998,"velocity":0.5669291338582677},{"duration":0.12000000000000455,"midi":62,"time":213.35999999999999,"velocity":0.4566929133858268},{"duration":0.12000000000000455,"midi":55,"time":213.48,"velocity":0.4566929133858268},{"duration":0.12000000000000455,"midi":67,"time":213.6,"velocity":0.4566929133858268},{"duration":0.12000000000000455,"midi":62,"time":213.72,"velocity":0.4566929133858268},{"duration":0.23999999999998067,"midi":55,"time":213.84,"velocity":0.4566929133858268},{"duration":0.2400000000000091,"midi":72,"time":213.95999999999998,"velocity":0.5669291338582677},{"duration":0.2400000000000091,"midi":67,"time":213.95999999999998,"velocity":0.4566929133858268},{"duration":0.12000000000000455,"midi":53,"time":214.07999999999998,"velocity":0.4566929133858268},{"duration":0.12000000000000455,"midi":65,"time":214.2,"velocity":0.4566929133858268},{"duration":0.2400000000000091,"midi":70,"time":214.2,"velocity":0.5669291338582677},{"duration":0.2400000000000091,"midi":65,"time":214.2,"velocity":0.4566929133858268},{"duration":0.12000000000000455,"midi":60,"time":214.32,"velocity":0.4566929133858268},{"duration":0.12000000000000455,"midi":53,"time":214.44,"velocity":0.4566929133858268},{"duration":0.23999999999998067,"midi":67,"time":214.44,"velocity":0.4566929133858268},{"duration":0.23999999999998067,"midi":72,"time":214.44,"velocity":0.5669291338582677},{"duration":0.11999999999997613,"midi":65,"time":214.56,"velocity":0.4566929133858268},{"duration":0.12000000000000455,"midi":60,"time":214.67999999999998,"velocity":0.4566929133858268},{"duration":0.2400000000000091,"midi":70,"time":214.67999999999998,"velocity":0.4566929133858268},{"duration":0.2400000000000091,"midi":74,"time":214.67999999999998,"velocity":0.5669291338582677},{"duration":0.2400000000000091,"midi":53,"time":214.79999999999998,"velocity":0.4566929133858268},{"duration":0.2400000000000091,"midi":72,"time":214.92,"velocity":0.4566929133858268},{"duration":0.2400000000000091,"midi":75,"time":214.92,"velocity":0.5669291338582677},{"duration":0.12000000000000455,"midi":48,"time":215.04,"velocity":0.4566929133858268},{"duration":0.2400000000000091,"midi":77,"time":215.16,"velocity":0.5669291338582677},{"duration":0.12000000000000455,"midi":60,"time":215.16,"velocity":0.4566929133858268},{"duration":0.2400000000000091,"midi":74,"time":215.16,"velocity":0.4566929133858268},{"duration":0.12000000000000455,"midi":55,"time":215.28,"velocity":0.4566929133858268},{"duration":0.11999999999997613,"midi":48,"time":215.4,"velocity":0.4566929133858268},{"duration":0.11999999999997613,"midi":67,"time":215.4,"velocity":0.4566929133858268},{"duration":0.23999999999998067,"midi":77,"time":215.4,"velocity":0.5669291338582677},{"duration":0.23999999999998067,"midi":74,"time":215.4,"velocity":0.4566929133858268},{"duration":0.2400000000000091,"midi":77,"time":215.64,"velocity":0.5669291338582677},{"duration":0.2400000000000091,"midi":72,"time":215.64,"velocity":0.4566929133858268},{"duration":0.12000000000000455,"midi":55,"time":215.64,"velocity":0.4566929133858268},{"duration":0.2400000000000091,"midi":48,"time":215.76,"velocity":0.4566929133858268},{"duration":0.2400000000000091,"midi":72,"time":215.88,"velocity":0.4566929133858268},{"duration":0.2400000000000091,"midi":77,"time":215.88,"velocity":0.5669291338582677},{"duration":0.12000000000000455,"midi":48,"time":216,"velocity":0.4566929133858268},{"duration":0.47999999999998977,"midi":70,"time":216.12,"velocity":0.4566929133858268},{"duration":0.47999999999998977,"midi":77,"time":216.12,"velocity":0.5669291338582677},{"duration":0.11999999999997613,"midi":60,"time":216.12,"velocity":0.4566929133858268},{"duration":0.12000000000000455,"midi":55,"time":216.23999999999998,"velocity":0.4566929133858268},{"duration":0.12000000000000455,"midi":48,"time":216.35999999999999,"velocity":0.4566929133858268},{"duration":0.12000000000000455,"midi":60,"time":216.48,"velocity":0.4566929133858268},{"duration":0.12000000000000455,"midi":55,"time":216.6,"velocity":0.4566929133858268},{"duration":0.2400000000000091,"midi":70,"time":216.6,"velocity":0.5669291338582677},{"duration":0.23999999999998067,"midi":48,"time":216.72,"velocity":0.4566929133858268},{"duration":0.12000000000000455,"midi":73,"time":216.78,"velocity":0.5669291338582677},{"duration":0.23999999999998067,"midi":74,"time":216.84,"velocity":0.5669291338582677},{"duration":0.12000000000000455,"midi":50,"time":216.95999999999998,"velocity":0.4566929133858268},{"duration":0.12000000000000455,"midi":60,"time":217.07999999999998,"velocity":0.4566929133858268},{"duration":0.2400000000000091,"midi":69,"time":217.07999999999998,"velocity":0.4566929133858268},{"duration":0.2400000000000091,"midi":72,"time":217.07999999999998,"velocity":0.5669291338582677},{"duration":0.12000000000000455,"midi":57,"time":217.2,"velocity":0.4566929133858268},{"duration":0.12000000000000455,"midi":65,"time":217.32,"velocity":0.4566929133858268},{"duration":0.2400000000000091,"midi":69,"time":217.32,"velocity":0.4566929133858268},{"duration":0.2400000000000091,"midi":72,"time":217.32,"velocity":0.5669291338582677},{"duration":0.12000000000000455,"midi":53,"time":217.32,"velocity":0.4566929133858268},{"duration":0.12000000000000455,"midi":67,"time":217.44,"velocity":0.4566929133858268},{"duration":0.23999999999998067,"midi":67,"time":217.56,"velocity":0.4566929133858268},{"duration":0.11999999999997613,"midi":69,"time":217.56,"velocity":0.4566929133858268},{"duration":0.23999999999998067,"midi":72,"time":217.56,"velocity":0.5669291338582677},{"duration":0.11999999999997613,"midi":60,"time":217.56,"velocity":0.4566929133858268},{"duration":0.2400000000000091,"midi":67,"time":217.67999999999998,"velocity":0.4566929133858268},{"duration":0.2400000000000091,"midi":50,"time":217.67999999999998,"velocity":0.4566929133858268},{"duration":0.2400000000000091,"midi":67,"time":217.79999999999998,"velocity":0.4566929133858268},{"duration":0.2400000000000091,"midi":72,"time":217.79999999999998,"velocity":0.5669291338582677},{"duration":0.12000000000000455,"midi":50,"time":217.92,"velocity":0.4566929133858268},{"duration":0.36000000000001364,"midi":65,"time":218.04,"velocity":0.4566929133858268},{"duration":0.36000000000001364,"midi":72,"time":218.04,"velocity":0.5669291338582677},{"duration":0.12000000000000455,"midi":62,"time":218.04,"velocity":0.4566929133858268},{"duration":0.12000000000000455,"midi":57,"time":218.16,"velocity":0.4566929133858268},{"duration":0.12000000000000455,"midi":50,"time":218.28,"velocity":0.4566929133858268},{"duration":0.11999999999997613,"midi":62,"time":218.4,"velocity":0.4566929133858268},{"duration":0.12000000000000455,"midi":73,"time":218.45999999999998,"velocity":0.5669291338582677},{"duration":0.2400000000000091,"midi":74,"time":218.51999999999998,"velocity":0.5669291338582677},{"duration":0.12000000000000455,"midi":57,"time":218.51999999999998,"velocity":0.4566929133858268},{"duration":0.2400000000000091,"midi":70,"time":218.51999999999998,"velocity":0.4566929133858268},{"duration":0.2400000000000091,"midi":50,"time":218.64,"velocity":0.4566929133858268},{"duration":0.2400000000000091,"midi":72,"time":218.76,"velocity":0.5669291338582677},{"duration":0.2400000000000091,"midi":67,"time":218.76,"velocity":0.4566929133858268},{"duration":0.12000000000000455,"midi":51,"time":218.88,"velocity":0.4566929133858268},{"duration":0.47999999999998977,"midi":70,"time":219,"velocity":0.5669291338582677},{"duration":0.47999999999998977,"midi":65,"time":219,"velocity":0.4566929133858268},{"duration":0.12000000000000455,"midi":63,"time":219,"velocity":0.4566929133858268},{"duration":0.11999999999997613,"midi":58,"time":219.12,"velocity":0.4566929133858268},{"duration":0.12000000000000455,"midi":51,"time":219.23999999999998,"velocity":0.4566929133858268},{"duration":0.12000000000000455,"midi":63,"time":219.35999999999999,"velocity":0.4566929133858268},{"duration":0.12000000000000455,"midi":58,"time":219.48,"velocity":0.4566929133858268},{"duration":0.2400000000000091,"midi":51,"time":219.6,"velocity":0.4566929133858268},{"duration":0.23999999999998067,"midi":62,"time":219.72,"velocity":0.4566929133858268},{"duration":0.23999999999998067,"midi":65,"time":219.72,"velocity":0.5669291338582677},{"duration":0.11999999999997613,"midi":53,"time":219.84,"velocity":0.4566929133858268},{"duration":0.12000000000000455,"midi":65,"time":219.95999999999998,"velocity":0.4566929133858268},{"duration":0.2400000000000091,"midi":74,"time":219.95999999999998,"velocity":0.5669291338582677},{"duration":0.2400000000000091,"midi":70,"time":219.95999999999998,"velocity":0.4566929133858268},{"duration":0.12000000000000455,"midi":60,"time":220.07999999999998,"velocity":0.4566929133858268},{"duration":0.12000000000000455,"midi":53,"time":220.2,"velocity":0.4566929133858268},{"duration":0.2400000000000091,"midi":75,"time":220.2,"velocity":0.5669291338582677},{"duration":0.2400000000000091,"midi":72,"time":220.2,"velocity":0.4566929133858268},{"duration":0.2400000000000091,"midi":65,"time":220.32,"velocity":0.4566929133858268},{"duration":0.23999999999998067,"midi":69,"time":220.44,"velocity":0.4566929133858268},{"duration":0.23999999999998067,"midi":72,"time":220.44,"velocity":0.5669291338582677},{"duration":0.12000000000000455,"midi":67,"time":220.79999999999998,"velocity":0.5669291338582677},{"duration":0.12000000000000455,"midi":55,"time":220.79999999999998,"velocity":0.4566929133858268},{"duration":0.12000000000000455,"midi":70,"time":220.79999999999998,"velocity":0.5669291338582677},{"duration":0.4800000000000182,"midi":70,"time":220.92,"velocity":0.5669291338582677},{"duration":0.12000000000000455,"midi":67,"time":220.92,"velocity":0.4566929133858268},{"duration":0.4800000000000182,"midi":67,"time":220.92,"velocity":0.4566929133858268},{"duration":0.12000000000000455,"midi":62,"time":221.04,"velocity":0.4566929133858268},{"duration":0.12000000000000455,"midi":55,"time":221.16,"velocity":0.4566929133858268},{"duration":0.12000000000000455,"midi":67,"time":221.28,"velocity":0.4566929133858268},{"duration":0.11999999999997613,"midi":62,"time":221.4,"velocity":0.4566929133858268},{"duration":0.2400000000000091,"midi":55,"time":221.51999999999998,"velocity":0.4566929133858268},{"duration":0.2400000000000091,"midi":65,"time":221.64,"velocity":0.2677165354330709},{"duration":0.12000000000000455,"midi":53,"time":221.76,"velocity":0.4566929133858268},{"duration":0.2400000000000091,"midi":70,"time":221.88,"velocity":0.30708661417322836},{"duration":0.12000000000000455,"midi":65,"time":221.88,"velocity":0.4566929133858268},{"duration":0.12000000000000455,"midi":60,"time":222,"velocity":0.4566929133858268},{"duration":0.23999999999998067,"midi":72,"time":222.12,"velocity":0.33858267716535434},{"duration":0.2400000000000091,"midi":74,"time":222.35999999999999,"velocity":0.3779527559055118},{"duration":0.2400000000000091,"midi":75,"time":222.6,"velocity":0.3937007874015748},{"duration":0.11999999999997613,"midi":77,"time":222.84,"velocity":0.4251968503937008},{"duration":0.12000000000000455,"midi":77,"time":223.07999999999998,"velocity":0.4251968503937008},{"duration":0.12000000000000455,"midi":77,"time":223.32,"velocity":0.4251968503937008},{"duration":0.11999999999997613,"midi":77,"time":223.56,"velocity":0.4251968503937008},{"duration":0.4800000000000182,"midi":77,"time":223.79999999999998,"velocity":0.4251968503937008},{"duration":0.23999999999998067,"midi":70,"time":224.28,"velocity":0.4251968503937008},{"duration":0.2400000000000091,"midi":74,"time":224.51999999999998,"velocity":0.4251968503937008},{"duration":0.12000000000000455,"midi":72,"time":224.76,"velocity":0.4251968503937008},{"duration":0.12000000000000455,"midi":72,"time":225,"velocity":0.4251968503937008},{"duration":0.12000000000000455,"midi":72,"time":225.23999999999998,"velocity":0.4251968503937008},{"duration":0.12000000000000455,"midi":72,"time":225.48,"velocity":0.4251968503937008},{"duration":0.7199999999999989,"midi":72,"time":225.72,"velocity":0.4251968503937008},{"duration":0.12000000000000455,"midi":74,"time":226.44,"velocity":0.4251968503937008},{"duration":0.11999999999997613,"midi":72,"time":226.56,"velocity":0.4251968503937008},{"duration":0.12000000000000455,"midi":70,"time":226.67999999999998,"velocity":0.4251968503937008},{"duration":0.12000000000000455,"midi":70,"time":226.92,"velocity":0.4251968503937008},{"duration":0.12000000000000455,"midi":70,"time":227.16,"velocity":0.4251968503937008},{"duration":0.11999999999997613,"midi":70,"time":227.4,"velocity":0.4251968503937008},{"duration":0.4800000000000182,"midi":70,"time":227.64,"velocity":0.4251968503937008},{"duration":0.23999999999998067,"midi":81,"time":228.12,"velocity":0.4251968503937008},{"duration":0.2400000000000091,"midi":82,"time":228.35999999999999,"velocity":0.4251968503937008},{"duration":0.7199999999999989,"midi":81,"time":228.6,"velocity":0.4251968503937008},{"duration":0.2400000000000091,"midi":77,"time":229.32,"velocity":0.4251968503937008},{"duration":0.7199999999999989,"midi":74,"time":229.56,"velocity":0.4251968503937008},{"duration":0.11999999999997613,"midi":74,"time":230.28,"velocity":0.4251968503937008},{"duration":0.12000000000000455,"midi":75,"time":230.39999999999998,"velocity":0.4251968503937008},{"duration":0.12000000000000455,"midi":77,"time":230.51999999999998,"velocity":0.4251968503937008},{"duration":0.12000000000000455,"midi":77,"time":230.76,"velocity":0.4251968503937008},{"duration":0.12000000000000455,"midi":77,"time":231,"velocity":0.4251968503937008},{"duration":0.12000000000000455,"midi":77,"time":231.23999999999998,"velocity":0.4251968503937008},{"duration":0.47999999999998977,"midi":77,"time":231.48,"velocity":0.4251968503937008},{"duration":0.2400000000000091,"midi":70,"time":231.95999999999998,"velocity":0.4251968503937008},{"duration":0.2400000000000091,"midi":74,"time":232.2,"velocity":0.4251968503937008},{"duration":0.12000000000000455,"midi":72,"time":232.44,"velocity":0.4251968503937008},{"duration":0.12000000000000455,"midi":72,"time":232.67999999999998,"velocity":0.4251968503937008},{"duration":0.12000000000000455,"midi":72,"time":232.92,"velocity":0.4251968503937008},{"duration":0.12000000000000455,"midi":72,"time":233.16,"velocity":0.4251968503937008},{"duration":0.4800000000000182,"midi":72,"time":233.39999999999998,"velocity":0.4251968503937008},{"duration":0.2400000000000091,"midi":74,"time":233.88,"velocity":0.4251968503937008},{"duration":0.23999999999998067,"midi":72,"time":234.12,"velocity":0.4251968503937008},{"duration":0.12000000000000455,"midi":74,"time":234.35999999999999,"velocity":0.4251968503937008},{"duration":0.12000000000000455,"midi":74,"time":234.6,"velocity":0.4251968503937008},{"duration":0.11999999999997613,"midi":74,"time":234.84,"velocity":0.4251968503937008},{"duration":0.12000000000000455,"midi":74,"time":235.07999999999998,"velocity":0.4251968503937008},{"duration":0.47999999999998977,"midi":74,"time":235.32,"velocity":0.4251968503937008},{"duration":0.2400000000000091,"midi":75,"time":235.79999999999998,"velocity":0.4251968503937008},{"duration":0.2400000000000091,"midi":74,"time":236.04,"velocity":0.4251968503937008},{"duration":0.7199999999999989,"midi":72,"time":236.28,"velocity":0.4251968503937008},{"duration":0.23999999999998067,"midi":62,"time":237,"velocity":0.4251968503937008},{"duration":0.23999999999998067,"midi":65,"time":237,"velocity":0.4251968503937008},{"duration":0.2400000000000091,"midi":67,"time":237.23999999999998,"velocity":0.4251968503937008},{"duration":0.2400000000000091,"midi":70,"time":237.23999999999998,"velocity":0.4251968503937008},{"duration":0.2400000000000091,"midi":72,"time":237.48,"velocity":0.4251968503937008},{"duration":0.2400000000000091,"midi":69,"time":237.48,"velocity":0.4251968503937008},{"duration":0.23999999999998067,"midi":70,"time":237.72,"velocity":0.4251968503937008},{"duration":0.23999999999998067,"midi":74,"time":237.72,"velocity":0.4251968503937008},{"duration":0.2400000000000091,"midi":75,"time":237.95999999999998,"velocity":0.4251968503937008},{"duration":0.2400000000000091,"midi":72,"time":237.95999999999998,"velocity":0.4251968503937008},{"duration":0.12000000000000455,"midi":51,"time":238.07999999999998,"velocity":0.4566929133858268},{"duration":0.12000000000000455,"midi":74,"time":238.2,"velocity":0.4251968503937008},{"duration":0.12000000000000455,"midi":77,"time":238.2,"velocity":0.4251968503937008},{"duration":0.12000000000000455,"midi":58,"time":238.32,"velocity":0.4566929133858268},{"duration":0.12000000000000455,"midi":55,"time":238.32,"velocity":0.4566929133858268},{"duration":0.12000000000000455,"midi":74,"time":238.44,"velocity":0.4251968503937008},{"duration":0.12000000000000455,"midi":77,"time":238.44,"velocity":0.4251968503937008},{"duration":0.11999999999997613,"midi":51,"time":238.56,"velocity":0.4566929133858268},{"duration":0.12000000000000455,"midi":77,"time":238.67999999999998,"velocity":0.4251968503937008},{"duration":0.12000000000000455,"midi":72,"time":238.67999999999998,"velocity":0.4251968503937008},{"duration":0.12000000000000455,"midi":55,"time":238.79999999999998,"velocity":0.4566929133858268},{"duration":0.12000000000000455,"midi":58,"time":238.79999999999998,"velocity":0.4566929133858268},{"duration":0.12000000000000455,"midi":72,"time":238.92,"velocity":0.4251968503937008},{"duration":0.12000000000000455,"midi":77,"time":238.92,"velocity":0.4251968503937008},{"duration":0.12000000000000455,"midi":51,"time":239.04,"velocity":0.4566929133858268},{"duration":0.47999999999998977,"midi":77,"time":239.16,"velocity":0.4251968503937008},{"duration":0.47999999999998977,"midi":70,"time":239.16,"velocity":0.4251968503937008},{"duration":0.11999999999997613,"midi":55,"time":239.28,"velocity":0.4566929133858268},{"duration":0.11999999999997613,"midi":58,"time":239.28,"velocity":0.4566929133858268},{"duration":0.12000000000000455,"midi":51,"time":239.51999999999998,"velocity":0.4566929133858268},{"duration":0.2400000000000091,"midi":67,"time":239.64,"velocity":0.4251968503937008},{"duration":0.2400000000000091,"midi":70,"time":239.64,"velocity":0.4251968503937008},{"duration":0.12000000000000455,"midi":58,"time":239.76,"velocity":0.4566929133858268},{"duration":0.12000000000000455,"midi":55,"time":239.76,"velocity":0.4566929133858268},{"duration":0.2400000000000091,"midi":70,"time":239.88,"velocity":0.4251968503937008},{"duration":0.2400000000000091,"midi":74,"time":239.88,"velocity":0.4251968503937008},{"duration":0.12000000000000455,"midi":53,"time":240,"velocity":0.4566929133858268},{"duration":0.11999999999997613,"midi":72,"time":240.12,"velocity":0.4251968503937008},{"duration":0.11999999999997613,"midi":69,"time":240.12,"velocity":0.4251968503937008},{"duration":0.12000000000000455,"midi":60,"time":240.23999999999998,"velocity":0.4566929133858268},{"duration":0.12000000000000455,"midi":57,"time":240.23999999999998,"velocity":0.4566929133858268},{"duration":0.12000000000000455,"midi":69,"time":240.35999999999999,"velocity":0.4251968503937008},{"duration":0.12000000000000455,"midi":72,"time":240.35999999999999,"velocity":0.4251968503937008},{"duration":0.12000000000000455,"midi":53,"time":240.48,"velocity":0.4566929133858268},{"duration":0.12000000000000455,"midi":67,"time":240.6,"velocity":0.4251968503937008},{"duration":0.12000000000000455,"midi":72,"time":240.6,"velocity":0.4251968503937008},{"duration":0.12000000000000455,"midi":60,"time":240.72,"velocity":0.4566929133858268},{"duration":0.12000000000000455,"midi":57,"time":240.72,"velocity":0.4566929133858268},{"duration":0.11999999999997613,"midi":72,"time":240.84,"velocity":0.4251968503937008},{"duration":0.11999999999997613,"midi":67,"time":240.84,"velocity":0.4251968503937008},{"duration":0.12000000000000455,"midi":53,"time":240.95999999999998,"velocity":0.4566929133858268},{"duration":0.7199999999999989,"midi":65,"time":241.07999999999998,"velocity":0.4251968503937008},{"duration":0.7199999999999989,"midi":72,"time":241.07999999999998,"velocity":0.4251968503937008},{"duration":0.12000000000000455,"midi":60,"time":241.2,"velocity":0.4566929133858268},{"duration":0.12000000000000455,"midi":57,"time":241.2,"velocity":0.4566929133858268},{"duration":0.12000000000000455,"midi":53,"time":241.44,"velocity":0.4566929133858268},{"duration":0.12000000000000455,"midi":60,"time":241.67999999999998,"velocity":0.4566929133858268},{"duration":0.12000000000000455,"midi":57,"time":241.67999999999998,"velocity":0.4566929133858268},{"duration":0.12000000000000455,"midi":70,"time":241.79999999999998,"velocity":0.4251968503937008},{"duration":0.12000000000000455,"midi":74,"time":241.79999999999998,"velocity":0.4251968503937008},{"duration":0.12000000000000455,"midi":55,"time":241.92,"velocity":0.4566929133858268},{"duration":0.12000000000000455,"midi":72,"time":241.92,"velocity":0.4251968503937008},{"duration":0.12000000000000455,"midi":69,"time":241.92,"velocity":0.4251968503937008},{"duration":0.12000000000000455,"midi":70,"time":242.04,"velocity":0.4251968503937008},{"duration":0.12000000000000455,"midi":67,"time":242.04,"velocity":0.4251968503937008},{"duration":0.12000000000000455,"midi":58,"time":242.16,"velocity":0.4566929133858268},{"duration":0.12000000000000455,"midi":62,"time":242.16,"velocity":0.4566929133858268},{"duration":0.11999999999997613,"midi":67,"time":242.28,"velocity":0.4251968503937008},{"duration":0.11999999999997613,"midi":70,"time":242.28,"velocity":0.4251968503937008},{"duration":0.12000000000000455,"midi":55,"time":242.39999999999998,"velocity":0.4566929133858268},{"duration":0.12000000000000455,"midi":65,"time":242.51999999999998,"velocity":0.4251968503937008},{"duration":0.12000000000000455,"midi":70,"time":242.51999999999998,"velocity":0.4251968503937008},{"duration":0.12000000000000455,"midi":62,"time":242.64,"velocity":0.4566929133858268},{"duration":0.12000000000000455,"midi":58,"time":242.64,"velocity":0.4566929133858268},{"duration":0.12000000000000455,"midi":65,"time":242.76,"velocity":0.4251968503937008},{"duration":0.12000000000000455,"midi":70,"time":242.76,"velocity":0.4251968503937008},{"duration":0.12000000000000455,"midi":55,"time":242.88,"velocity":0.4566929133858268},{"duration":0.47999999999998977,"midi":70,"time":243,"velocity":0.4251968503937008},{"duration":0.23999999999998067,"midi":62,"time":243,"velocity":0.4251968503937008},{"duration":0.3599999999999852,"midi":62,"time":243.12,"velocity":0.4566929133858268},{"duration":0.11999999999997613,"midi":58,"time":243.12,"velocity":0.4566929133858268},{"duration":0.12000000000000455,"midi":55,"time":243.35999999999999,"velocity":0.4566929133858268},{"duration":0.2400000000000091,"midi":77,"time":243.48,"velocity":0.4251968503937008},{"duration":0.2400000000000091,"midi":81,"time":243.48,"velocity":0.4251968503937008},{"duration":0.12000000000000455,"midi":58,"time":243.6,"velocity":0.4566929133858268},{"duration":0.12000000000000455,"midi":62,"time":243.6,"velocity":0.4566929133858268},{"duration":0.23999999999998067,"midi":82,"time":243.72,"velocity":0.4251968503937008},{"duration":0.23999999999998067,"midi":79,"time":243.72,"velocity":0.4251968503937008},{"duration":0.11999999999997613,"midi":53,"time":243.84,"velocity":0.4566929133858268},{"duration":0.7199999999999989,"midi":77,"time":243.95999999999998,"velocity":0.4251968503937008},{"duration":0.7199999999999989,"midi":81,"time":243.95999999999998,"velocity":0.4251968503937008},{"duration":0.12000000000000455,"midi":57,"time":244.07999999999998,"velocity":0.4566929133858268},{"duration":0.12000000000000455,"midi":60,"time":244.07999999999998,"velocity":0.4566929133858268},{"duration":0.12000000000000455,"midi":53,"time":244.32,"velocity":0.4566929133858268},{"duration":0.11999999999997613,"midi":57,"time":244.56,"velocity":0.4566929133858268},{"duration":0.11999999999997613,"midi":60,"time":244.56,"velocity":0.4566929133858268},{"duration":0.2400000000000091,"midi":72,"time":244.67999999999998,"velocity":0.4251968503937008},{"duration":0.2400000000000091,"midi":77,"time":244.67999999999998,"velocity":0.4251968503937008},{"duration":0.12000000000000455,"midi":53,"time":244.79999999999998,"velocity":0.4566929133858268},{"duration":0.7199999999999989,"midi":69,"time":244.92,"velocity":0.4251968503937008},{"duration":0.7199999999999989,"midi":74,"time":244.92,"velocity":0.4251968503937008},{"duration":0.2400000000000091,"midi":60,"time":245.04,"velocity":0.4566929133858268},{"duration":0.23999999999998067,"midi":57,"time":245.28,"velocity":0.4566929133858268},{"duration":0.2400000000000091,"midi":60,"time":245.51999999999998,"velocity":0.4566929133858268},{"duration":0.12000000000000455,"midi":74,"time":245.64,"velocity":0.4251968503937008},{"duration":0.12000000000000455,"midi":70,"time":245.64,"velocity":0.4251968503937008},{"duration":0.12000000000000455,"midi":72,"time":245.76,"velocity":0.4251968503937008},{"duration":0.12000000000000455,"midi":75,"time":245.76,"velocity":0.4251968503937008},{"duration":0.12000000000000455,"midi":51,"time":245.76,"velocity":0.4566929133858268},{"duration":0.12000000000000455,"midi":77,"time":245.88,"velocity":0.4251968503937008},{"duration":0.12000000000000455,"midi":74,"time":245.88,"velocity":0.4251968503937008},{"duration":0.12000000000000455,"midi":58,"time":246,"velocity":0.4566929133858268},{"duration":0.12000000000000455,"midi":55,"time":246,"velocity":0.4566929133858268},{"duration":0.11999999999997613,"midi":74,"time":246.12,"velocity":0.4251968503937008},{"duration":0.11999999999997613,"midi":77,"time":246.12,"velocity":0.4251968503937008},{"duration":0.12000000000000455,"midi":51,"time":246.23999999999998,"velocity":0.4566929133858268},{"duration":0.12000000000000455,"midi":72,"time":246.35999999999999,"velocity":0.4251968503937008},{"duration":0.12000000000000455,"midi":77,"time":246.35999999999999,"velocity":0.4251968503937008},{"duration":0.12000000000000455,"midi":58,"time":246.48,"velocity":0.4566929133858268},{"duration":0.12000000000000455,"midi":55,"time":246.48,"velocity":0.4566929133858268},{"duration":0.12000000000000455,"midi":77,"time":246.6,"velocity":0.4251968503937008},{"duration":0.12000000000000455,"midi":72,"time":246.6,"velocity":0.4251968503937008},{"duration":0.12000000000000455,"midi":51,"time":246.72,"velocity":0.4566929133858268},{"duration":0.47999999999998977,"midi":70,"time":246.84,"velocity":0.4251968503937008},{"duration":0.47999999999998977,"midi":77,"time":246.84,"velocity":0.4251968503937008},{"duration":0.12000000000000455,"midi":58,"time":246.95999999999998,"velocity":0.4566929133858268},{"duration":0.12000000000000455,"midi":55,"time":246.95999999999998,"velocity":0.4566929133858268},{"duration":0.12000000000000455,"midi":51,"time":247.2,"velocity":0.4566929133858268},{"duration":0.2400000000000091,"midi":70,"time":247.32,"velocity":0.4251968503937008},{"duration":0.2400000000000091,"midi":67,"time":247.32,"velocity":0.4251968503937008},{"duration":0.12000000000000455,"midi":58,"time":247.44,"velocity":0.4566929133858268},{"duration":0.12000000000000455,"midi":55,"time":247.44,"velocity":0.4566929133858268},{"duration":0.23999999999998067,"midi":70,"time":247.56,"velocity":0.4251968503937008},{"duration":0.23999999999998067,"midi":74,"time":247.56,"velocity":0.4251968503937008},{"duration":0.12000000000000455,"midi":53,"time":247.67999999999998,"velocity":0.4566929133858268},{"duration":0.12000000000000455,"midi":72,"time":247.79999999999998,"velocity":0.4251968503937008},{"duration":0.12000000000000455,"midi":69,"time":247.79999999999998,"velocity":0.4251968503937008},{"duration":0.12000000000000455,"midi":57,"time":247.92,"velocity":0.4566929133858268},{"duration":0.12000000000000455,"midi":60,"time":247.92,"velocity":0.4566929133858268},{"duration":0.12000000000000455,"midi":72,"time":248.04,"velocity":0.4251968503937008},{"duration":0.12000000000000455,"midi":69,"time":248.04,"velocity":0.4251968503937008},{"duration":0.12000000000000455,"midi":53,"time":248.16,"velocity":0.4566929133858268},{"duration":0.11999999999997613,"midi":67,"time":248.28,"velocity":0.4251968503937008},{"duration":0.11999999999997613,"midi":72,"time":248.28,"velocity":0.4251968503937008},{"duration":0.12000000000000455,"midi":57,"time":248.39999999999998,"velocity":0.4566929133858268},{"duration":0.12000000000000455,"midi":60,"time":248.39999999999998,"velocity":0.4566929133858268},{"duration":0.12000000000000455,"midi":67,"time":248.51999999999998,"velocity":0.4251968503937008},{"duration":0.12000000000000455,"midi":72,"time":248.51999999999998,"velocity":0.4251968503937008},{"duration":0.12000000000000455,"midi":53,"time":248.64,"velocity":0.4566929133858268},{"duration":0.47999999999998977,"midi":72,"time":248.76,"velocity":0.4251968503937008},{"duration":0.47999999999998977,"midi":65,"time":248.76,"velocity":0.4251968503937008},{"duration":0.12000000000000455,"midi":60,"time":248.88,"velocity":0.4566929133858268},{"duration":0.12000000000000455,"midi":57,"time":248.88,"velocity":0.4566929133858268},{"duration":0.23999999999998067,"midi":53,"time":249.12,"velocity":0.4566929133858268},{"duration":0.2400000000000091,"midi":70,"time":249.23999999999998,"velocity":0.4251968503937008},{"duration":0.2400000000000091,"midi":74,"time":249.23999999999998,"velocity":0.4251968503937008},{"duration":0.2400000000000091,"midi":57,"time":249.35999999999999,"velocity":0.4566929133858268},{"duration":0.2400000000000091,"midi":69,"time":249.48,"velocity":0.4251968503937008},{"duration":0.2400000000000091,"midi":57,"time":249.48,"velocity":0.4251968503937008},{"duration":0.2400000000000091,"midi":72,"time":249.48,"velocity":0.4251968503937008},{"duration":0.12000000000000455,"midi":48,"time":249.6,"velocity":0.4566929133858268},{"duration":0.23999999999998067,"midi":58,"time":249.72,"velocity":0.4251968503937008},{"duration":0.7199999999999989,"midi":67,"time":249.72,"velocity":0.4251968503937008},{"duration":0.7199999999999989,"midi":70,"time":249.72,"velocity":0.4251968503937008},{"duration":0.5999999999999943,"midi":58,"time":249.84,"velocity":0.4566929133858268},{"duration":0.11999999999997613,"midi":55,"time":249.84,"velocity":0.4566929133858268},{"duration":0.12000000000000455,"midi":48,"time":250.07999999999998,"velocity":0.4566929133858268},{"duration":0.12000000000000455,"midi":55,"time":250.32,"velocity":0.4566929133858268},{"duration":0.12000000000000455,"midi":58,"time":250.32,"velocity":0.4566929133858268},{"duration":0.23999999999998067,"midi":65,"time":250.44,"velocity":0.4251968503937008},{"duration":0.23999999999998067,"midi":58,"time":250.44,"velocity":0.4251968503937008},{"duration":0.23999999999998067,"midi":53,"time":250.56,"velocity":0.4566929133858268},{"duration":0.2400000000000091,"midi":74,"time":250.67999999999998,"velocity":0.4251968503937008},{"duration":0.2400000000000091,"midi":58,"time":250.67999999999998,"velocity":0.4251968503937008},{"duration":0.2400000000000091,"midi":60,"time":250.79999999999998,"velocity":0.4566929133858268},{"duration":0.2400000000000091,"midi":75,"time":250.92,"velocity":0.4251968503937008},{"duration":0.2400000000000091,"midi":60,"time":250.92,"velocity":0.4251968503937008},{"duration":0.3599999999999852,"midi":65,"time":251.04,"velocity":0.4566929133858268},{"duration":0.3599999999999852,"midi":65,"time":251.16,"velocity":0.4251968503937008},{"duration":0.3599999999999852,"midi":72,"time":251.16,"velocity":0.4251968503937008},{"duration":0.12000000000000455,"midi":63,"time":251.39999999999998,"velocity":0.4566929133858268},{"duration":0.12000000000000455,"midi":62,"time":251.51999999999998,"velocity":0.4566929133858268},{"duration":0.12000000000000455,"midi":50,"time":251.51999999999998,"velocity":0.4566929133858268},{"duration":0.12000000000000455,"midi":58,"time":251.51999999999998,"velocity":0.33070866141732286},{"duration":0.12000000000000455,"midi":63,"time":251.51999999999998,"velocity":0.4251968503937008},{"duration":0.12000000000000455,"midi":70,"time":251.51999999999998,"velocity":0.4251968503937008},{"duration":1.4399999999999977,"midi":70,"time":251.64,"velocity":0.4251968503937008},{"duration":0.2400000000000091,"midi":62,"time":251.64,"velocity":0.4251968503937008},{"duration":0.2400000000000091,"midi":58,"time":251.64,"velocity":0.33070866141732286},{"duration":0.5999999999999943,"midi":62,"time":251.76,"velocity":0.4566929133858268},{"duration":0.5999999999999943,"midi":58,"time":251.76,"velocity":0.4566929133858268},{"duration":0.12000000000000455,"midi":50,"time":252,"velocity":0.4566929133858268},{"duration":0.8400000000000034,"midi":62,"time":252.23999999999998,"velocity":0.4566929133858268},{"duration":0.8400000000000034,"midi":58,"time":252.23999999999998,"velocity":0.4566929133858268},{"duration":0.2400000000000091,"midi":50,"time":252.48,"velocity":0.4566929133858268},{"duration":0.23999999999998067,"midi":60,"time":252.72,"velocity":0.4566929133858268},{"duration":0.2400000000000091,"midi":65,"time":252.95999999999998,"velocity":0.4566929133858268},{"duration":0.2400000000000091,"midi":60,"time":253.2,"velocity":0.4566929133858268},{"duration":0.12000000000000455,"midi":48,"time":253.44,"velocity":0.4566929133858268},{"duration":0.12000000000000455,"midi":51,"time":253.67999999999998,"velocity":0.4566929133858268},{"duration":0.12000000000000455,"midi":55,"time":253.67999999999998,"velocity":0.4566929133858268},{"duration":0.12000000000000455,"midi":48,"time":253.92,"velocity":0.4566929133858268},{"duration":0.12000000000000455,"midi":51,"time":254.16,"velocity":0.4566929133858268},{"duration":0.12000000000000455,"midi":55,"time":254.16,"velocity":0.4566929133858268},{"duration":0.2400000000000091,"midi":53,"time":254.39999999999998,"velocity":0.4566929133858268},{"duration":0.2400000000000091,"midi":60,"time":254.64,"velocity":0.4566929133858268},{"duration":0.3599999999999852,"midi":65,"time":254.88,"velocity":0.4566929133858268},{"duration":0.12000000000000455,"midi":63,"time":255.23999999999998,"velocity":0.4566929133858268},{"duration":0.12000000000000455,"midi":55,"time":255.35999999999999,"velocity":0.4566929133858268},{"duration":0.4800000000000182,"midi":62,"time":255.35999999999999,"velocity":0.4566929133858268},{"duration":0.12000000000000455,"midi":65,"time":255.6,"velocity":0.4566929133858268},{"duration":0.12000000000000455,"midi":58,"time":255.6,"velocity":0.4566929133858268},{"duration":0.11999999999997613,"midi":55,"time":255.84,"velocity":0.4566929133858268},{"duration":0.12000000000000455,"midi":65,"time":256.08,"velocity":0.4566929133858268},{"duration":0.12000000000000455,"midi":58,"time":256.08,"velocity":0.4566929133858268},{"duration":0.2400000000000091,"midi":53,"time":256.32,"velocity":0.4566929133858268},{"duration":0.2400000000000091,"midi":60,"time":256.56,"velocity":0.4566929133858268},{"duration":0.23999999999995225,"midi":53,"time":256.8,"velocity":0.4566929133858268},{"duration":0.2400000000000091,"midi":60,"time":257.03999999999996,"velocity":0.4566929133858268},{"duration":1.920000000000016,"midi":51,"time":257.28,"velocity":0.4566929133858268},{"duration":0.12000000000000455,"midi":53,"time":259.2,"velocity":0.5039370078740157},{"duration":0.7199999999999704,"midi":70,"time":261.12,"velocity":0.4566929133858268},{"duration":0.7199999999999704,"midi":77,"time":261.12,"velocity":0.49606299212598426},{"duration":0.2400000000000091,"midi":81,"time":261.84,"velocity":0.3700787401574803},{"duration":0.2400000000000091,"midi":72,"time":261.84,"velocity":0.4566929133858268},{"duration":0.7200000000000273,"midi":77,"time":262.08,"velocity":0.49606299212598426},{"duration":0.7200000000000273,"midi":70,"time":262.08,"velocity":0.4566929133858268},{"duration":0.23999999999995225,"midi":72,"time":262.8,"velocity":0.4566929133858268},{"duration":0.23999999999995225,"midi":81,"time":262.8,"velocity":0.3700787401574803},{"duration":0.7200000000000273,"midi":77,"time":263.03999999999996,"velocity":0.49606299212598426},{"duration":0.7200000000000273,"midi":70,"time":263.03999999999996,"velocity":0.4566929133858268},{"duration":0.2400000000000091,"midi":72,"time":263.76,"velocity":0.4566929133858268},{"duration":0.2400000000000091,"midi":81,"time":263.76,"velocity":0.3700787401574803},{"duration":0.2400000000000091,"midi":70,"time":264,"velocity":0.3779527559055118},{"duration":0.2400000000000091,"midi":74,"time":264,"velocity":0.49606299212598426},{"duration":0.2400000000000091,"midi":79,"time":264,"velocity":0.3700787401574803},{"duration":0.2400000000000091,"midi":62,"time":264,"velocity":0.4566929133858268},{"duration":0.12000000000000455,"midi":72,"time":264.24,"velocity":0.49606299212598426},{"duration":0.12000000000000455,"midi":67,"time":264.24,"velocity":0.49606299212598426},{"duration":0.12000000000000455,"midi":74,"time":264.3,"velocity":0.49606299212598426},{"duration":0.12000000000000455,"midi":70,"time":264.3,"velocity":0.49606299212598426},{"duration":0.12000000000000455,"midi":67,"time":264.36,"velocity":0.49606299212598426},{"duration":0.12000000000000455,"midi":72,"time":264.36,"velocity":0.49606299212598426},{"duration":0.23999999999995225,"midi":65,"time":264.48,"velocity":0.49606299212598426},{"duration":0.23999999999995225,"midi":70,"time":264.48,"velocity":0.49606299212598426},{"duration":0.2400000000000091,"midi":72,"time":264.71999999999997,"velocity":0.49606299212598426},{"duration":0.2400000000000091,"midi":67,"time":264.71999999999997,"velocity":0.49606299212598426},{"duration":0.7200000000000273,"midi":77,"time":264.96,"velocity":0.5039370078740157},{"duration":0.7200000000000273,"midi":70,"time":264.96,"velocity":0.4566929133858268},{"duration":0.2400000000000091,"midi":81,"time":265.68,"velocity":0.3700787401574803},{"duration":0.2400000000000091,"midi":72,"time":265.68,"velocity":0.4566929133858268},{"duration":0.7199999999999704,"midi":70,"time":265.92,"velocity":0.4566929133858268},{"duration":0.7199999999999704,"midi":77,"time":265.92,"velocity":0.5039370078740157},{"duration":0.2400000000000091,"midi":81,"time":266.64,"velocity":0.3700787401574803},{"duration":0.2400000000000091,"midi":72,"time":266.64,"velocity":0.4566929133858268},{"duration":0.7199999999999704,"midi":70,"time":266.88,"velocity":0.4566929133858268},{"duration":0.7199999999999704,"midi":77,"time":266.88,"velocity":0.5039370078740157},{"duration":0.2400000000000091,"midi":81,"time":267.59999999999997,"velocity":0.3700787401574803},{"duration":0.2400000000000091,"midi":72,"time":267.59999999999997,"velocity":0.4566929133858268},{"duration":0.2400000000000091,"midi":79,"time":267.84,"velocity":0.3700787401574803},{"duration":0.2400000000000091,"midi":62,"time":267.84,"velocity":0.4566929133858268},{"duration":0.2400000000000091,"midi":70,"time":267.84,"velocity":0.3779527559055118},{"duration":0.2400000000000091,"midi":74,"time":267.84,"velocity":0.49606299212598426},{"duration":0.12000000000000455,"midi":72,"time":268.08,"velocity":0.49606299212598426},{"duration":0.12000000000000455,"midi":67,"time":268.08,"velocity":0.5039370078740157},{"duration":0.12000000000000455,"midi":70,"time":268.14,"velocity":0.5039370078740157},{"duration":0.12000000000000455,"midi":74,"time":268.14,"velocity":0.49606299212598426},{"duration":0.12000000000000455,"midi":67,"time":268.2,"velocity":0.5039370078740157},{"duration":0.12000000000000455,"midi":72,"time":268.2,"velocity":0.49606299212598426},{"duration":0.2400000000000091,"midi":65,"time":268.32,"velocity":0.5039370078740157},{"duration":0.2400000000000091,"midi":70,"time":268.32,"velocity":0.5039370078740157},{"duration":0.2400000000000091,"midi":72,"time":268.56,"velocity":0.49606299212598426},{"duration":0.2400000000000091,"midi":67,"time":268.56,"velocity":0.5039370078740157},{"duration":0.7199999999999704,"midi":75,"time":268.8,"velocity":0.44881889763779526},{"duration":0.7199999999999704,"midi":63,"time":268.8,"velocity":0.3700787401574803},{"duration":0.7199999999999704,"midi":70,"time":268.8,"velocity":0.4409448818897638},{"duration":0.2400000000000091,"midi":81,"time":269.52,"velocity":0.44881889763779526},{"duration":0.2400000000000091,"midi":69,"time":269.52,"velocity":0.3700787401574803},{"duration":0.2400000000000091,"midi":62,"time":269.52,"velocity":0.3700787401574803},{"duration":0.7200000000000273,"midi":63,"time":269.76,"velocity":0.3700787401574803},{"duration":0.7200000000000273,"midi":75,"time":269.76,"velocity":0.44881889763779526},{"duration":0.7200000000000273,"midi":70,"time":269.76,"velocity":0.4330708661417323},{"duration":0.23999999999995225,"midi":81,"time":270.48,"velocity":0.44881889763779526},{"duration":0.23999999999995225,"midi":62,"time":270.48,"velocity":0.3700787401574803},{"duration":0.23999999999995225,"midi":69,"time":270.48,"velocity":0.3700787401574803},{"duration":0.7200000000000273,"midi":63,"time":270.71999999999997,"velocity":0.3700787401574803},{"duration":0.7200000000000273,"midi":75,"time":270.71999999999997,"velocity":0.44881889763779526},{"duration":0.7200000000000273,"midi":70,"time":270.71999999999997,"velocity":0.4330708661417323},{"duration":0.2400000000000091,"midi":69,"time":271.44,"velocity":0.3700787401574803},{"duration":0.2400000000000091,"midi":81,"time":271.44,"velocity":0.44881889763779526},{"duration":0.2400000000000091,"midi":62,"time":271.44,"velocity":0.3700787401574803},{"duration":0.2400000000000091,"midi":74,"time":271.68,"velocity":0.49606299212598426},{"duration":0.2400000000000091,"midi":63,"time":271.68,"velocity":0.3779527559055118},{"duration":0.2400000000000091,"midi":70,"time":271.68,"velocity":0.4566929133858268},{"duration":0.1199999999999477,"midi":67,"time":271.92,"velocity":0.49606299212598426},{"duration":0.1199999999999477,"midi":72,"time":271.92,"velocity":0.49606299212598426},{"duration":0.1199999999999477,"midi":70,"time":271.98,"velocity":0.49606299212598426},{"duration":0.1199999999999477,"midi":74,"time":271.98,"velocity":0.49606299212598426},{"duration":0.12000000000000455,"midi":67,"time":272.03999999999996,"velocity":0.49606299212598426},{"duration":0.12000000000000455,"midi":72,"time":272.03999999999996,"velocity":0.49606299212598426},{"duration":0.2400000000000091,"midi":65,"time":272.15999999999997,"velocity":0.49606299212598426},{"duration":0.2400000000000091,"midi":70,"time":272.15999999999997,"velocity":0.49606299212598426},{"duration":0.2400000000000091,"midi":67,"time":272.4,"velocity":0.49606299212598426},{"duration":0.2400000000000091,"midi":72,"time":272.4,"velocity":0.49606299212598426},{"duration":0.7200000000000273,"midi":70,"time":272.64,"velocity":0.4409448818897638},{"duration":0.7200000000000273,"midi":75,"time":272.64,"velocity":0.44881889763779526},{"duration":0.7200000000000273,"midi":63,"time":272.64,"velocity":0.3700787401574803},{"duration":0.23999999999995225,"midi":81,"time":273.36,"velocity":0.44881889763779526},{"duration":0.23999999999995225,"midi":62,"time":273.36,"velocity":0.3700787401574803},{"duration":0.23999999999995225,"midi":69,"time":273.36,"velocity":0.3700787401574803},{"duration":0.7200000000000273,"midi":70,"time":273.59999999999997,"velocity":0.4330708661417323},{"duration":0.7200000000000273,"midi":63,"time":273.59999999999997,"velocity":0.3700787401574803},{"duration":0.7200000000000273,"midi":75,"time":273.59999999999997,"velocity":0.44881889763779526},{"duration":0.2400000000000091,"midi":69,"time":274.32,"velocity":0.3700787401574803},{"duration":0.2400000000000091,"midi":62,"time":274.32,"velocity":0.3700787401574803},{"duration":0.2400000000000091,"midi":81,"time":274.32,"velocity":0.44881889763779526},{"duration":0.7199999999999704,"midi":70,"time":274.56,"velocity":0.4330708661417323},{"duration":0.7199999999999704,"midi":75,"time":274.56,"velocity":0.44881889763779526},{"duration":0.7199999999999704,"midi":63,"time":274.56,"velocity":0.3700787401574803},{"duration":0.2400000000000091,"midi":62,"time":275.28,"velocity":0.3700787401574803},{"duration":0.2400000000000091,"midi":81,"time":275.28,"velocity":0.44881889763779526},{"duration":0.2400000000000091,"midi":69,"time":275.28,"velocity":0.3700787401574803},{"duration":0.2400000000000091,"midi":63,"time":275.52,"velocity":0.3779527559055118},{"duration":0.2400000000000091,"midi":70,"time":275.52,"velocity":0.4566929133858268},{"duration":0.2400000000000091,"midi":74,"time":275.52,"velocity":0.49606299212598426},{"duration":0.12000000000000455,"midi":67,"time":275.76,"velocity":0.49606299212598426},{"duration":0.12000000000000455,"midi":72,"time":275.76,"velocity":0.49606299212598426},{"duration":0.12000000000000455,"midi":74,"time":275.82,"velocity":0.49606299212598426},{"duration":0.12000000000000455,"midi":70,"time":275.82,"velocity":0.49606299212598426},{"duration":0.12000000000000455,"midi":72,"time":275.88,"velocity":0.49606299212598426},{"duration":0.12000000000000455,"midi":67,"time":275.88,"velocity":0.49606299212598426},{"duration":0.2400000000000091,"midi":65,"time":276,"velocity":0.49606299212598426},{"duration":0.2400000000000091,"midi":70,"time":276,"velocity":0.49606299212598426},{"duration":0.2400000000000091,"midi":72,"time":276.24,"velocity":0.49606299212598426},{"duration":0.2400000000000091,"midi":67,"time":276.24,"velocity":0.49606299212598426},{"duration":0.7199999999999704,"midi":77,"time":276.48,"velocity":0.49606299212598426},{"duration":0.7199999999999704,"midi":70,"time":276.48,"velocity":0.4566929133858268},{"duration":0.2400000000000091,"midi":81,"time":277.2,"velocity":0.3700787401574803},{"duration":0.2400000000000091,"midi":72,"time":277.2,"velocity":0.4566929133858268},{"duration":0.7199999999999704,"midi":77,"time":277.44,"velocity":0.49606299212598426},{"duration":0.7199999999999704,"midi":70,"time":277.44,"velocity":0.4566929133858268},{"duration":0.2400000000000091,"midi":81,"time":278.15999999999997,"velocity":0.3700787401574803},{"duration":0.2400000000000091,"midi":72,"time":278.15999999999997,"velocity":0.4566929133858268},{"duration":0.7200000000000273,"midi":70,"time":278.4,"velocity":0.4566929133858268},{"duration":0.7200000000000273,"midi":77,"time":278.4,"velocity":0.49606299212598426},{"duration":0.2400000000000091,"midi":72,"time":279.12,"velocity":0.4566929133858268},{"duration":0.2400000000000091,"midi":81,"time":279.12,"velocity":0.3700787401574803},{"duration":0.23999999999995225,"midi":79,"time":279.36,"velocity":0.3700787401574803},{"duration":0.23999999999995225,"midi":62,"time":279.36,"velocity":0.4566929133858268},{"duration":0.23999999999995225,"midi":70,"time":279.36,"velocity":0.3779527559055118},{"duration":0.23999999999995225,"midi":74,"time":279.36,"velocity":0.49606299212598426},{"duration":0.12000000000000455,"midi":67,"time":279.59999999999997,"velocity":0.49606299212598426},{"duration":0.12000000000000455,"midi":72,"time":279.59999999999997,"velocity":0.49606299212598426},{"duration":0.12000000000000455,"midi":74,"time":279.65999999999997,"velocity":0.49606299212598426},{"duration":0.12000000000000455,"midi":70,"time":279.65999999999997,"velocity":0.49606299212598426},{"duration":0.12000000000000455,"midi":72,"time":279.71999999999997,"velocity":0.49606299212598426},{"duration":0.12000000000000455,"midi":67,"time":279.71999999999997,"velocity":0.49606299212598426},{"duration":0.2400000000000091,"midi":70,"time":279.84,"velocity":0.49606299212598426},{"duration":0.2400000000000091,"midi":65,"time":279.84,"velocity":0.49606299212598426},{"duration":0.2400000000000091,"midi":72,"time":280.08,"velocity":0.49606299212598426},{"duration":0.2400000000000091,"midi":67,"time":280.08,"velocity":0.49606299212598426},{"duration":0.7199999999999704,"midi":70,"time":280.32,"velocity":0.4566929133858268},{"duration":0.7199999999999704,"midi":77,"time":280.32,"velocity":0.5039370078740157},{"duration":0.2400000000000091,"midi":81,"time":281.03999999999996,"velocity":0.3700787401574803},{"duration":0.2400000000000091,"midi":72,"time":281.03999999999996,"velocity":0.4566929133858268},{"duration":0.7200000000000273,"midi":77,"time":281.28,"velocity":0.5039370078740157},{"duration":0.7200000000000273,"midi":70,"time":281.28,"velocity":0.4566929133858268},{"duration":0.2400000000000091,"midi":81,"time":282,"velocity":0.3700787401574803},{"duration":0.2400000000000091,"midi":72,"time":282,"velocity":0.4566929133858268},{"duration":0.7199999999999704,"midi":77,"time":282.24,"velocity":0.5039370078740157},{"duration":0.7199999999999704,"midi":70,"time":282.24,"velocity":0.4566929133858268},{"duration":0.2400000000000091,"midi":72,"time":282.96,"velocity":0.4566929133858268},{"duration":0.2400000000000091,"midi":81,"time":282.96,"velocity":0.3700787401574803},{"duration":0.2400000000000091,"midi":74,"time":283.2,"velocity":0.49606299212598426},{"duration":0.2400000000000091,"midi":70,"time":283.2,"velocity":0.3779527559055118},{"duration":0.2400000000000091,"midi":79,"time":283.2,"velocity":0.3700787401574803},{"duration":0.2400000000000091,"midi":62,"time":283.2,"velocity":0.4566929133858268},{"duration":0.12000000000000455,"midi":67,"time":283.44,"velocity":0.5039370078740157},{"duration":0.12000000000000455,"midi":72,"time":283.44,"velocity":0.49606299212598426},{"duration":0.12000000000000455,"midi":74,"time":283.5,"velocity":0.49606299212598426},{"duration":0.12000000000000455,"midi":70,"time":283.5,"velocity":0.5039370078740157},{"duration":0.12000000000000455,"midi":67,"time":283.56,"velocity":0.5039370078740157},{"duration":0.12000000000000455,"midi":72,"time":283.56,"velocity":0.49606299212598426},{"duration":0.2400000000000091,"midi":70,"time":283.68,"velocity":0.5039370078740157},{"duration":0.2400000000000091,"midi":65,"time":283.68,"velocity":0.5039370078740157},{"duration":0.23999999999995225,"midi":67,"time":283.92,"velocity":0.5039370078740157},{"duration":0.23999999999995225,"midi":72,"time":283.92,"velocity":0.49606299212598426},{"duration":0.7200000000000273,"midi":63,"time":284.15999999999997,"velocity":0.3700787401574803},{"duration":0.7200000000000273,"midi":70,"time":284.15999999999997,"velocity":0.4409448818897638},{"duration":0.7200000000000273,"midi":75,"time":284.15999999999997,"velocity":0.44881889763779526},{"duration":0.2400000000000091,"midi":62,"time":284.88,"velocity":0.3700787401574803},{"duration":0.2400000000000091,"midi":69,"time":284.88,"velocity":0.3700787401574803},{"duration":0.2400000000000091,"midi":81,"time":284.88,"velocity":0.44881889763779526},{"duration":0.7199999999999704,"midi":75,"time":285.12,"velocity":0.44881889763779526},{"duration":0.7199999999999704,"midi":70,"time":285.12,"velocity":0.4330708661417323},{"duration":0.7199999999999704,"midi":63,"time":285.12,"velocity":0.3700787401574803},{"duration":0.2400000000000091,"midi":81,"time":285.84,"velocity":0.44881889763779526},{"duration":0.2400000000000091,"midi":62,"time":285.84,"velocity":0.3700787401574803},{"duration":0.2400000000000091,"midi":69,"time":285.84,"velocity":0.3700787401574803},{"duration":0.7200000000000273,"midi":63,"time":286.08,"velocity":0.3700787401574803},{"duration":0.7200000000000273,"midi":75,"time":286.08,"velocity":0.44881889763779526},{"duration":0.7200000000000273,"midi":70,"time":286.08,"velocity":0.4330708661417323},{"duration":0.23999999999995225,"midi":69,"time":286.8,"velocity":0.3700787401574803},{"duration":0.23999999999995225,"midi":81,"time":286.8,"velocity":0.44881889763779526},{"duration":0.23999999999995225,"midi":62,"time":286.8,"velocity":0.3700787401574803},{"duration":0.2400000000000091,"midi":74,"time":287.03999999999996,"velocity":0.49606299212598426},{"duration":0.2400000000000091,"midi":70,"time":287.03999999999996,"velocity":0.4566929133858268},{"duration":0.2400000000000091,"midi":63,"time":287.03999999999996,"velocity":0.3779527559055118},{"duration":0.12000000000000455,"midi":72,"time":287.28,"velocity":0.49606299212598426},{"duration":0.12000000000000455,"midi":67,"time":287.28,"velocity":0.49606299212598426},{"duration":0.12000000000000455,"midi":74,"time":287.34,"velocity":0.49606299212598426},{"duration":0.12000000000000455,"midi":70,"time":287.34,"velocity":0.49606299212598426},{"duration":0.12000000000000455,"midi":72,"time":287.4,"velocity":0.49606299212598426},{"duration":0.12000000000000455,"midi":67,"time":287.4,"velocity":0.49606299212598426},{"duration":0.2400000000000091,"midi":65,"time":287.52,"velocity":0.49606299212598426},{"duration":0.2400000000000091,"midi":70,"time":287.52,"velocity":0.49606299212598426},{"duration":0.2400000000000091,"midi":67,"time":287.76,"velocity":0.49606299212598426},{"duration":0.2400000000000091,"midi":72,"time":287.76,"velocity":0.49606299212598426},{"duration":0.7199999999999704,"midi":63,"time":288,"velocity":0.3700787401574803},{"duration":0.7199999999999704,"midi":75,"time":288,"velocity":0.44881889763779526},{"duration":0.7199999999999704,"midi":70,"time":288,"velocity":0.4409448818897638},{"duration":0.2400000000000091,"midi":62,"time":288.71999999999997,"velocity":0.3700787401574803},{"duration":0.2400000000000091,"midi":69,"time":288.71999999999997,"velocity":0.3700787401574803},{"duration":0.2400000000000091,"midi":81,"time":288.71999999999997,"velocity":0.44881889763779526},{"duration":0.7200000000000273,"midi":63,"time":288.96,"velocity":0.3700787401574803},{"duration":0.7200000000000273,"midi":70,"time":288.96,"velocity":0.4330708661417323},{"duration":0.7200000000000273,"midi":75,"time":288.96,"velocity":0.44881889763779526},{"duration":0.2400000000000091,"midi":81,"time":289.68,"velocity":0.44881889763779526},{"duration":0.2400000000000091,"midi":62,"time":289.68,"velocity":0.3700787401574803},{"duration":0.2400000000000091,"midi":69,"time":289.68,"velocity":0.3700787401574803},{"duration":0.7199999999999704,"midi":70,"time":289.92,"velocity":0.4330708661417323},{"duration":0.7199999999999704,"midi":63,"time":289.92,"velocity":0.3700787401574803},{"duration":0.7199999999999704,"midi":75,"time":289.92,"velocity":0.44881889763779526},{"duration":0.2400000000000091,"midi":62,"time":290.64,"velocity":0.3700787401574803},{"duration":0.2400000000000091,"midi":69,"time":290.64,"velocity":0.3700787401574803},{"duration":0.2400000000000091,"midi":81,"time":290.64,"velocity":0.44881889763779526},{"duration":0.2400000000000091,"midi":74,"time":290.88,"velocity":0.49606299212598426},{"duration":0.2400000000000091,"midi":70,"time":290.88,"velocity":0.4566929133858268},{"duration":0.2400000000000091,"midi":63,"time":290.88,"velocity":0.3779527559055118},{"duration":0.12000000000000455,"midi":72,"time":291.12,"velocity":0.49606299212598426},{"duration":0.12000000000000455,"midi":67,"time":291.12,"velocity":0.49606299212598426},{"duration":0.12000000000000455,"midi":74,"time":291.18,"velocity":0.49606299212598426},{"duration":0.12000000000000455,"midi":70,"time":291.18,"velocity":0.49606299212598426},{"duration":0.12000000000000455,"midi":72,"time":291.24,"velocity":0.49606299212598426},{"duration":0.12000000000000455,"midi":67,"time":291.24,"velocity":0.49606299212598426},{"duration":0.23999999999995225,"midi":70,"time":291.36,"velocity":0.49606299212598426},{"duration":0.23999999999995225,"midi":65,"time":291.36,"velocity":0.49606299212598426},{"duration":0.2400000000000091,"midi":72,"time":291.59999999999997,"velocity":0.49606299212598426},{"duration":0.2400000000000091,"midi":67,"time":291.59999999999997,"velocity":0.49606299212598426},{"duration":0.12000000000000455,"midi":48,"time":291.84,"velocity":0.4566929133858268},{"duration":0.12000000000000455,"midi":60,"time":291.96,"velocity":0.4566929133858268},{"duration":0.12000000000000455,"midi":55,"time":292.08,"velocity":0.4566929133858268},{"duration":0.12000000000000455,"midi":48,"time":292.2,"velocity":0.4566929133858268},{"duration":0.12000000000000455,"midi":60,"time":292.32,"velocity":0.4566929133858268},{"duration":0.12000000000000455,"midi":55,"time":292.44,"velocity":0.4566929133858268},{"duration":0.12000000000000455,"midi":55,"time":292.44,"velocity":0.4566929133858268},{"duration":0.2400000000000091,"midi":48,"time":292.56,"velocity":0.4566929133858268},{"duration":0.12000000000000455,"midi":48,"time":292.8,"velocity":0.4566929133858268},{"duration":0.1199999999999477,"midi":60,"time":292.92,"velocity":0.4566929133858268},{"duration":0.12000000000000455,"midi":55,"time":293.03999999999996,"velocity":0.4566929133858268},{"duration":0.12000000000000455,"midi":48,"time":293.15999999999997,"velocity":0.4566929133858268},{"duration":0.12000000000000455,"midi":60,"time":293.28,"velocity":0.4566929133858268},{"duration":0.12000000000000455,"midi":55,"time":293.4,"velocity":0.4566929133858268},{"duration":0.2400000000000091,"midi":48,"time":293.52,"velocity":0.4566929133858268},{"duration":0.12000000000000455,"midi":50,"time":293.76,"velocity":0.4566929133858268},{"duration":0.12000000000000455,"midi":62,"time":293.88,"velocity":0.4566929133858268},{"duration":0.12000000000000455,"midi":57,"time":294,"velocity":0.4566929133858268},{"duration":0.12000000000000455,"midi":50,"time":294.12,"velocity":0.4566929133858268},{"duration":0.12000000000000455,"midi":62,"time":294.24,"velocity":0.4566929133858268},{"duration":0.1199999999999477,"midi":57,"time":294.36,"velocity":0.4566929133858268},{"duration":0.2400000000000091,"midi":50,"time":294.47999999999996,"velocity":0.4566929133858268},{"duration":0.12000000000000455,"midi":55,"time":294.71999999999997,"velocity":0.4566929133858268},{"duration":0.12000000000000455,"midi":67,"time":294.84,"velocity":0.4566929133858268},{"duration":0.12000000000000455,"midi":62,"time":294.96,"velocity":0.4566929133858268},{"duration":0.12000000000000455,"midi":58,"time":295.08,"velocity":0.4566929133858268},{"duration":0.12000000000000455,"midi":53,"time":295.2,"velocity":0.4566929133858268},{"duration":0.12000000000000455,"midi":60,"time":295.32,"velocity":0.4566929133858268},{"duration":0.2400000000000091,"midi":53,"time":295.44,"velocity":0.4566929133858268},{"duration":0.12000000000000455,"midi":51,"time":295.68,"velocity":0.4566929133858268},{"duration":0.12000000000000455,"midi":63,"time":295.8,"velocity":0.4566929133858268},{"duration":0.1199999999999477,"midi":58,"time":295.92,"velocity":0.4566929133858268},{"duration":0.12000000000000455,"midi":51,"time":296.03999999999996,"velocity":0.4566929133858268},{"duration":0.12000000000000455,"midi":63,"time":296.15999999999997,"velocity":0.4566929133858268},{"duration":0.12000000000000455,"midi":58,"time":296.28,"velocity":0.4566929133858268},{"duration":0.2400000000000091,"midi":51,"time":296.4,"velocity":0.4566929133858268},{"duration":0.12000000000000455,"midi":53,"time":296.64,"velocity":0.4566929133858268},{"duration":0.12000000000000455,"midi":65,"time":296.76,"velocity":0.4566929133858268},{"duration":0.12000000000000455,"midi":60,"time":296.88,"velocity":0.4566929133858268},{"duration":0.12000000000000455,"midi":53,"time":297,"velocity":0.4566929133858268},{"duration":0.12000000000000455,"midi":54,"time":297.12,"velocity":0.4566929133858268},{"duration":0.12000000000000455,"midi":66,"time":297.24,"velocity":0.4566929133858268},{"duration":0.23999999999995225,"midi":54,"time":297.36,"velocity":0.4566929133858268},{"duration":0.12000000000000455,"midi":55,"time":297.59999999999997,"velocity":0.4566929133858268},{"duration":0.12000000000000455,"midi":67,"time":297.71999999999997,"velocity":0.4566929133858268},{"duration":0.12000000000000455,"midi":62,"time":297.84,"velocity":0.4566929133858268},{"duration":0.12000000000000455,"midi":55,"time":297.96,"velocity":0.4566929133858268},{"duration":0.12000000000000455,"midi":67,"time":298.08,"velocity":0.4566929133858268},{"duration":0.12000000000000455,"midi":62,"time":298.2,"velocity":0.4566929133858268},{"duration":0.2400000000000091,"midi":55,"time":298.32,"velocity":0.4566929133858268},{"duration":0.12000000000000455,"midi":53,"time":298.56,"velocity":0.4566929133858268},{"duration":0.12000000000000455,"midi":65,"time":298.68,"velocity":0.4566929133858268},{"duration":0.12000000000000455,"midi":60,"time":298.8,"velocity":0.4566929133858268},{"duration":0.1199999999999477,"midi":53,"time":298.92,"velocity":0.4566929133858268},{"duration":0.12000000000000455,"midi":65,"time":299.03999999999996,"velocity":0.4566929133858268},{"duration":0.12000000000000455,"midi":60,"time":299.15999999999997,"velocity":0.4566929133858268},{"duration":0.2400000000000091,"midi":53,"time":299.28,"velocity":0.4566929133858268},{"duration":0.12000000000000455,"midi":48,"time":299.52,"velocity":0.4566929133858268},{"duration":0.12000000000000455,"midi":60,"time":299.64,"velocity":0.4566929133858268},{"duration":0.12000000000000455,"midi":55,"time":299.76,"velocity":0.4566929133858268},{"duration":0.12000000000000455,"midi":48,"time":299.88,"velocity":0.4566929133858268},{"duration":0.12000000000000455,"midi":67,"time":299.88,"velocity":0.4566929133858268},{"duration":0.12000000000000455,"midi":55,"time":300.12,"velocity":0.4566929133858268},{"duration":0.23999999999995225,"midi":48,"time":300.24,"velocity":0.4566929133858268},{"duration":0.12000000000000455,"midi":48,"time":300.47999999999996,"velocity":0.4566929133858268},{"duration":0.12000000000000455,"midi":60,"time":300.59999999999997,"velocity":0.4566929133858268},{"duration":0.12000000000000455,"midi":55,"time":300.71999999999997,"velocity":0.4566929133858268},{"duration":0.12000000000000455,"midi":48,"time":300.84,"velocity":0.4566929133858268},{"duration":0.12000000000000455,"midi":60,"time":300.96,"velocity":0.4566929133858268},{"duration":0.12000000000000455,"midi":55,"time":301.08,"velocity":0.4566929133858268},{"duration":0.2400000000000091,"midi":48,"time":301.2,"velocity":0.4566929133858268},{"duration":0.12000000000000455,"midi":50,"time":301.44,"velocity":0.4566929133858268},{"duration":0.12000000000000455,"midi":60,"time":301.56,"velocity":0.4566929133858268},{"duration":0.12000000000000455,"midi":57,"time":301.68,"velocity":0.4566929133858268},{"duration":0.12000000000000455,"midi":65,"time":301.8,"velocity":0.4566929133858268},{"duration":0.12000000000000455,"midi":53,"time":301.8,"velocity":0.4566929133858268},{"duration":0.1199999999999477,"midi":67,"time":301.92,"velocity":0.4566929133858268},{"duration":0.12000000000000455,"midi":69,"time":302.03999999999996,"velocity":0.4566929133858268},{"duration":0.12000000000000455,"midi":60,"time":302.03999999999996,"velocity":0.4566929133858268},{"duration":0.2400000000000091,"midi":50,"time":302.15999999999997,"velocity":0.4566929133858268},{"duration":0.2400000000000091,"midi":67,"time":302.15999999999997,"velocity":0.4566929133858268},{"duration":0.12000000000000455,"midi":50,"time":302.4,"velocity":0.4566929133858268},{"duration":0.12000000000000455,"midi":62,"time":302.52,"velocity":0.4566929133858268},{"duration":0.12000000000000455,"midi":81,"time":302.58,"velocity":0.5433070866141733},{"duration":0.2400000000000091,"midi":82,"time":302.64,"velocity":0.5433070866141733},{"duration":0.12000000000000455,"midi":57,"time":302.64,"velocity":0.4566929133858268},{"duration":0.12000000000000455,"midi":50,"time":302.76,"velocity":0.4566929133858268},{"duration":0.12000000000000455,"midi":62,"time":302.88,"velocity":0.4566929133858268},{"duration":0.2400000000000091,"midi":81,"time":302.88,"velocity":0.5433070866141733},{"duration":0.12000000000000455,"midi":57,"time":303,"velocity":0.4566929133858268},{"duration":0.2400000000000091,"midi":77,"time":303.12,"velocity":0.5433070866141733},{"duration":0.2400000000000091,"midi":50,"time":303.12,"velocity":0.4566929133858268},{"duration":0.1199999999999477,"midi":51,"time":303.36,"velocity":0.4566929133858268},{"duration":0.23999999999995225,"midi":74,"time":303.36,"velocity":0.5433070866141733},{"duration":0.12000000000000455,"midi":63,"time":303.47999999999996,"velocity":0.4566929133858268},{"duration":0.12000000000000455,"midi":58,"time":303.59999999999997,"velocity":0.4566929133858268},{"duration":0.12000000000000455,"midi":51,"time":303.71999999999997,"velocity":0.4566929133858268},{"duration":0.12000000000000455,"midi":63,"time":303.84,"velocity":0.4566929133858268},{"duration":0.12000000000000455,"midi":58,"time":303.96,"velocity":0.4566929133858268},{"duration":0.2400000000000091,"midi":51,"time":304.08,"velocity":0.4566929133858268},{"duration":0.12000000000000455,"midi":53,"time":304.32,"velocity":0.4566929133858268},{"duration":0.12000000000000455,"midi":65,"time":304.44,"velocity":0.4566929133858268},{"duration":0.12000000000000455,"midi":60,"time":304.56,"velocity":0.4566929133858268},{"duration":0.12000000000000455,"midi":53,"time":304.68,"velocity":0.4566929133858268},{"duration":0.23999999999995225,"midi":65,"time":304.8,"velocity":0.4566929133858268},{"duration":0.12000000000000455,"midi":55,"time":305.28,"velocity":0.4566929133858268},{"duration":0.12000000000000455,"midi":67,"time":305.4,"velocity":0.4566929133858268},{"duration":0.12000000000000455,"midi":62,"time":305.52,"velocity":0.4566929133858268},{"duration":0.12000000000000455,"midi":55,"time":305.64,"velocity":0.4566929133858268},{"duration":0.12000000000000455,"midi":67,"time":305.76,"velocity":0.4566929133858268},{"duration":0.12000000000000455,"midi":62,"time":305.88,"velocity":0.4566929133858268},{"duration":0.2400000000000091,"midi":55,"time":306,"velocity":0.4566929133858268},{"duration":0.12000000000000455,"midi":53,"time":306.24,"velocity":0.4566929133858268},{"duration":0.1199999999999477,"midi":65,"time":306.36,"velocity":0.4566929133858268},{"duration":0.12000000000000455,"midi":60,"time":306.47999999999996,"velocity":0.4566929133858268},{"duration":0.12000000000000455,"midi":48,"time":307.2,"velocity":0.4566929133858268},{"duration":0.2400000000000091,"midi":82,"time":307.32,"velocity":0.5669291338582677},{"duration":0.2400000000000091,"midi":75,"time":307.32,"velocity":0.5118110236220472},{"duration":0.12000000000000455,"midi":60,"time":307.32,"velocity":0.4566929133858268},{"duration":0.12000000000000455,"midi":55,"time":307.44,"velocity":0.4566929133858268},{"duration":0.12000000000000455,"midi":48,"time":307.56,"velocity":0.4566929133858268},{"duration":0.12000000000000455,"midi":60,"time":307.68,"velocity":0.4566929133858268},{"duration":0.12000000000000455,"midi":55,"time":307.8,"velocity":0.4566929133858268},{"duration":0.12000000000000455,"midi":55,"time":307.8,"velocity":0.4566929133858268},{"duration":0.23999999999995225,"midi":48,"time":307.92,"velocity":0.4566929133858268},{"duration":0.12000000000000455,"midi":48,"time":308.15999999999997,"velocity":0.4566929133858268},{"duration":0.2400000000000091,"midi":74,"time":308.28,"velocity":0.4881889763779528},{"duration":0.2400000000000091,"midi":82,"time":308.28,"velocity":0.5669291338582677},{"duration":0.12000000000000455,"midi":60,"time":308.28,"velocity":0.4566929133858268},{"duration":0.12000000000000455,"midi":55,"time":308.4,"velocity":0.4566929133858268},{"duration":0.12000000000000455,"midi":81,"time":308.52,"velocity":0.5669291338582677},{"duration":0.12000000000000455,"midi":48,"time":308.52,"velocity":0.4566929133858268},{"duration":0.12000000000000455,"midi":72,"time":308.52,"velocity":0.4881889763779528},{"duration":0.12000000000000455,"midi":74,"time":308.58,"velocity":0.4881889763779528},{"duration":0.12000000000000455,"midi":82,"time":308.58,"velocity":0.5669291338582677},{"duration":0.12000000000000455,"midi":72,"time":308.64,"velocity":0.4881889763779528},{"duration":0.12000000000000455,"midi":60,"time":308.64,"velocity":0.4566929133858268},{"duration":0.12000000000000455,"midi":81,"time":308.64,"velocity":0.5669291338582677},{"duration":0.2400000000000091,"midi":70,"time":308.76,"velocity":0.4881889763779528},{"duration":0.2400000000000091,"midi":79,"time":308.76,"velocity":0.5669291338582677},{"duration":0.12000000000000455,"midi":55,"time":308.76,"velocity":0.4566929133858268},{"duration":0.2400000000000091,"midi":48,"time":308.88,"velocity":0.4566929133858268},{"duration":0.2400000000000091,"midi":81,"time":309,"velocity":0.5669291338582677},{"duration":0.2400000000000091,"midi":72,"time":309,"velocity":0.4881889763779528},{"duration":0.12000000000000455,"midi":50,"time":309.12,"velocity":0.4566929133858268},{"duration":0.23999999999995225,"midi":77,"time":309.24,"velocity":0.48031496062992124},{"duration":0.12000000000000455,"midi":62,"time":309.24,"velocity":0.4566929133858268},{"duration":0.23999999999995225,"midi":74,"time":309.24,"velocity":0.48031496062992124},{"duration":0.23999999999995225,"midi":82,"time":309.24,"velocity":0.5669291338582677},{"duration":0.1199999999999477,"midi":94,"time":309.36,"velocity":0.5433070866141733},{"duration":0.1199999999999477,"midi":57,"time":309.36,"velocity":0.4566929133858268},{"duration":0.12000000000000455,"midi":50,"time":309.47999999999996,"velocity":0.4566929133858268},{"duration":0.12000000000000455,"midi":62,"time":309.59999999999997,"velocity":0.4566929133858268},{"duration":0.12000000000000455,"midi":93,"time":309.59999999999997,"velocity":0.5433070866141733},{"duration":0.12000000000000455,"midi":94,"time":309.65999999999997,"velocity":0.5433070866141733},{"duration":0.12000000000000455,"midi":57,"time":309.71999999999997,"velocity":0.4566929133858268},{"duration":0.12000000000000455,"midi":93,"time":309.71999999999997,"velocity":0.5433070866141733},{"duration":0.2400000000000091,"midi":50,"time":309.84,"velocity":0.4566929133858268},{"duration":0.2400000000000091,"midi":91,"time":309.84,"velocity":0.5433070866141733},{"duration":0.12000000000000455,"midi":55,"time":310.08,"velocity":0.4566929133858268},{"duration":0.2400000000000091,"midi":74,"time":310.2,"velocity":0.48031496062992124},{"duration":0.2400000000000091,"midi":82,"time":310.2,"velocity":0.5669291338582677},{"duration":0.12000000000000455,"midi":67,"time":310.2,"velocity":0.4566929133858268},{"duration":0.2400000000000091,"midi":77,"time":310.2,"velocity":0.48031496062992124},{"duration":0.2400000000000091,"midi":94,"time":310.32,"velocity":0.5433070866141733},{"duration":0.12000000000000455,"midi":62,"time":310.32,"velocity":0.4566929133858268},{"duration":0.12000000000000455,"midi":81,"time":310.44,"velocity":0.5669291338582677},{"duration":0.12000000000000455,"midi":58,"time":310.44,"velocity":0.4566929133858268},{"duration":0.12000000000000455,"midi":72,"time":310.44,"velocity":0.5669291338582677},{"duration":0.12000000000000455,"midi":82,"time":310.5,"velocity":0.5669291338582677},{"duration":0.12000000000000455,"midi":74,"time":310.5,"velocity":0.5669291338582677},{"duration":0.12000000000000455,"midi":81,"time":310.56,"velocity":0.5669291338582677},{"duration":0.12000000000000455,"midi":53,"time":310.56,"velocity":0.4566929133858268},{"duration":0.2400000000000091,"midi":84,"time":310.56,"velocity":0.5118110236220472},{"duration":0.12000000000000455,"midi":72,"time":310.56,"velocity":0.5669291338582677},{"duration":0.12000000000000455,"midi":60,"time":310.68,"velocity":0.4566929133858268},{"duration":0.2400000000000091,"midi":79,"time":310.68,"velocity":0.5669291338582677},{"duration":0.2400000000000091,"midi":70,"time":310.68,"velocity":0.5669291338582677},{"duration":0.23999999999995225,"midi":86,"time":310.8,"velocity":0.48031496062992124},{"duration":0.23999999999995225,"midi":53,"time":310.8,"velocity":0.4566929133858268},{"duration":0.23999999999995225,"midi":81,"time":310.92,"velocity":0.5669291338582677},{"duration":0.23999999999995225,"midi":72,"time":310.92,"velocity":0.5669291338582677},{"duration":0.12000000000000455,"midi":51,"time":311.03999999999996,"velocity":0.4566929133858268},{"duration":0.2400000000000091,"midi":77,"time":311.15999999999997,"velocity":0.5196850393700787},{"duration":0.2400000000000091,"midi":82,"time":311.15999999999997,"velocity":0.5669291338582677},{"duration":0.2400000000000091,"midi":74,"time":311.15999999999997,"velocity":0.48031496062992124},{"duration":0.12000000000000455,"midi":63,"time":311.15999999999997,"velocity":0.4566929133858268},{"duration":0.12000000000000455,"midi":58,"time":311.28,"velocity":0.4566929133858268},{"duration":0.12000000000000455,"midi":51,"time":311.4,"velocity":0.4566929133858268},{"duration":0.12000000000000455,"midi":63,"time":311.52,"velocity":0.4566929133858268},{"duration":0.12000000000000455,"midi":58,"time":311.64,"velocity":0.4566929133858268},{"duration":0.12000000000000455,"midi":84,"time":311.64,"velocity":0.48031496062992124},{"duration":0.12000000000000455,"midi":85,"time":311.7,"velocity":0.4566929133858268},{"duration":0.2400000000000091,"midi":86,"time":311.76,"velocity":0.4251968503937008},{"duration":0.2400000000000091,"midi":51,"time":311.76,"velocity":0.4566929133858268},{"duration":0.2400000000000091,"midi":81,"time":311.88,"velocity":0.5669291338582677},{"duration":0.2400000000000091,"midi":87,"time":312,"velocity":0.41732283464566927},{"duration":0.12000000000000455,"midi":53,"time":312,"velocity":0.4566929133858268},{"duration":0.12000000000000455,"midi":65,"time":312.12,"velocity":0.4566929133858268},{"duration":0.2400000000000091,"midi":72,"time":312.12,"velocity":0.5118110236220472},{"duration":0.2400000000000091,"midi":77,"time":312.12,"velocity":0.5669291338582677},{"duration":0.12000000000000455,"midi":60,"time":312.24,"velocity":0.4566929133858268},{"duration":0.1199999999999477,"midi":53,"time":312.36,"velocity":0.4566929133858268},{"duration":0.12000000000000455,"midi":54,"time":312.47999999999996,"velocity":0.4566929133858268},{"duration":0.12000000000000455,"midi":66,"time":312.59999999999997,"velocity":0.4566929133858268},{"duration":0.2400000000000091,"midi":84,"time":312.71999999999997,"velocity":0.4094488188976378},{"duration":0.2400000000000091,"midi":54,"time":312.71999999999997,"velocity":0.4566929133858268},{"duration":0.12000000000000455,"midi":74,"time":312.78,"velocity":0.5669291338582677},{"duration":0.2400000000000091,"midi":69,"time":312.84,"velocity":0.44881889763779526},{"duration":0.2400000000000091,"midi":75,"time":312.84,"velocity":0.5669291338582677},{"duration":0.12000000000000455,"midi":55,"time":312.96,"velocity":0.4566929133858268},{"duration":0.2400000000000091,"midi":86,"time":312.96,"velocity":0.3937007874015748},{"duration":0.2400000000000091,"midi":74,"time":313.08,"velocity":0.5669291338582677},{"duration":0.2400000000000091,"midi":70,"time":313.08,"velocity":0.44881889763779526},{"duration":0.12000000000000455,"midi":67,"time":313.08,"velocity":0.4566929133858268},{"duration":0.12000000000000455,"midi":62,"time":313.2,"velocity":0.4566929133858268},{"duration":0.12000000000000455,"midi":55,"time":313.32,"velocity":0.4566929133858268},{"duration":0.12000000000000455,"midi":67,"time":313.44,"velocity":0.4566929133858268},{"duration":0.12000000000000455,"midi":62,"time":313.56,"velocity":0.4566929133858268},{"duration":0.2400000000000091,"midi":55,"time":313.68,"velocity":0.4566929133858268},{"duration":0.23999999999995225,"midi":67,"time":313.8,"velocity":0.4566929133858268},{"duration":0.23999999999995225,"midi":72,"time":313.8,"velocity":0.5669291338582677},{"duration":0.1199999999999477,"midi":53,"time":313.92,"velocity":0.4566929133858268},{"duration":0.12000000000000455,"midi":65,"time":314.03999999999996,"velocity":0.4566929133858268},{"duration":0.2400000000000091,"midi":70,"time":314.03999999999996,"velocity":0.5669291338582677},{"duration":0.2400000000000091,"midi":65,"time":314.03999999999996,"velocity":0.4566929133858268},{"duration":0.12000000000000455,"midi":60,"time":314.15999999999997,"velocity":0.4566929133858268},{"duration":0.2400000000000091,"midi":67,"time":314.28,"velocity":0.4566929133858268},{"duration":0.2400000000000091,"midi":72,"time":314.28,"velocity":0.5669291338582677},{"duration":0.12000000000000455,"midi":53,"time":314.28,"velocity":0.4566929133858268},{"duration":0.12000000000000455,"midi":65,"time":314.4,"velocity":0.4566929133858268},{"duration":0.2400000000000091,"midi":74,"time":314.52,"velocity":0.5669291338582677},{"duration":0.12000000000000455,"midi":60,"time":314.52,"velocity":0.4566929133858268},{"duration":0.2400000000000091,"midi":70,"time":314.52,"velocity":0.4566929133858268},{"duration":0.2400000000000091,"midi":53,"time":314.64,"velocity":0.4566929133858268},{"duration":0.2400000000000091,"midi":75,"time":314.76,"velocity":0.5669291338582677},{"duration":0.2400000000000091,"midi":72,"time":314.76,"velocity":0.4566929133858268},{"duration":0.12000000000000455,"midi":48,"time":314.88,"velocity":0.4566929133858268},{"duration":0.2400000000000091,"midi":74,"time":315,"velocity":0.4566929133858268},{"duration":0.12000000000000455,"midi":60,"time":315,"velocity":0.4566929133858268},{"duration":0.2400000000000091,"midi":77,"time":315,"velocity":0.5669291338582677},{"duration":0.12000000000000455,"midi":55,"time":315.12,"velocity":0.4566929133858268},{"duration":0.12000000000000455,"midi":67,"time":315.24,"velocity":0.4566929133858268},{"duration":0.12000000000000455,"midi":48,"time":315.24,"velocity":0.4566929133858268},{"duration":0.23999999999995225,"midi":74,"time":315.24,"velocity":0.4566929133858268},{"duration":0.23999999999995225,"midi":77,"time":315.24,"velocity":0.5669291338582677},{"duration":0.2400000000000091,"midi":77,"time":315.47999999999996,"velocity":0.5669291338582677},{"duration":0.12000000000000455,"midi":55,"time":315.47999999999996,"velocity":0.4566929133858268},{"duration":0.2400000000000091,"midi":72,"time":315.47999999999996,"velocity":0.4566929133858268},{"duration":0.2400000000000091,"midi":48,"time":315.59999999999997,"velocity":0.4566929133858268},{"duration":0.2400000000000091,"midi":77,"time":315.71999999999997,"velocity":0.5669291338582677},{"duration":0.2400000000000091,"midi":72,"time":315.71999999999997,"velocity":0.4566929133858268},{"duration":0.12000000000000455,"midi":48,"time":315.84,"velocity":0.4566929133858268},{"duration":0.12000000000000455,"midi":60,"time":315.96,"velocity":0.4566929133858268},{"duration":0.4800000000000182,"midi":77,"time":315.96,"velocity":0.5669291338582677},{"duration":0.4800000000000182,"midi":70,"time":315.96,"velocity":0.4566929133858268},{"duration":0.12000000000000455,"midi":55,"time":316.08,"velocity":0.4566929133858268},{"duration":0.12000000000000455,"midi":48,"time":316.2,"velocity":0.4566929133858268},{"duration":0.12000000000000455,"midi":60,"time":316.32,"velocity":0.4566929133858268},{"duration":0.12000000000000455,"midi":55,"time":316.44,"velocity":0.4566929133858268},{"duration":0.2400000000000091,"midi":70,"time":316.44,"velocity":0.5669291338582677},{"duration":0.2400000000000091,"midi":48,"time":316.56,"velocity":0.4566929133858268},{"duration":0.12000000000000455,"midi":73,"time":316.62,"velocity":0.5669291338582677},{"duration":0.2400000000000091,"midi":74,"time":316.68,"velocity":0.5669291338582677},{"duration":0.12000000000000455,"midi":50,"time":316.8,"velocity":0.4566929133858268},{"duration":0.23999999999995225,"midi":69,"time":316.92,"velocity":0.4566929133858268},{"duration":0.23999999999995225,"midi":72,"time":316.92,"velocity":0.5669291338582677},{"duration":0.1199999999999477,"midi":60,"time":316.92,"velocity":0.4566929133858268},{"duration":0.12000000000000455,"midi":57,"time":317.03999999999996,"velocity":0.4566929133858268},{"duration":0.12000000000000455,"midi":65,"time":317.15999999999997,"velocity":0.4566929133858268},{"duration":0.12000000000000455,"midi":53,"time":317.15999999999997,"velocity":0.4566929133858268},{"duration":0.2400000000000091,"midi":69,"time":317.15999999999997,"velocity":0.4566929133858268},{"duration":0.2400000000000091,"midi":72,"time":317.15999999999997,"velocity":0.5669291338582677},{"duration":0.12000000000000455,"midi":67,"time":317.28,"velocity":0.4566929133858268},{"duration":0.12000000000000455,"midi":60,"time":317.4,"velocity":0.4566929133858268},{"duration":0.2400000000000091,"midi":72,"time":317.4,"velocity":0.5669291338582677},{"duration":0.2400000000000091,"midi":67,"time":317.4,"velocity":0.4566929133858268},{"duration":0.12000000000000455,"midi":69,"time":317.4,"velocity":0.4566929133858268},{"duration":0.2400000000000091,"midi":50,"time":317.52,"velocity":0.4566929133858268},{"duration":0.2400000000000091,"midi":67,"time":317.52,"velocity":0.4566929133858268},{"duration":0.2400000000000091,"midi":72,"time":317.64,"velocity":0.5669291338582677},{"duration":0.2400000000000091,"midi":67,"time":317.64,"velocity":0.4566929133858268},{"duration":0.12000000000000455,"midi":50,"time":317.76,"velocity":0.4566929133858268},{"duration":0.12000000000000455,"midi":62,"time":317.88,"velocity":0.4566929133858268},{"duration":0.36000000000001364,"midi":72,"time":317.88,"velocity":0.5669291338582677},{"duration":0.36000000000001364,"midi":65,"time":317.88,"velocity":0.4566929133858268},{"duration":0.12000000000000455,"midi":81,"time":317.94,"velocity":0.5433070866141733},{"duration":0.12000000000000455,"midi":93,"time":317.94,"velocity":0.48031496062992124},{"duration":0.12000000000000455,"midi":85,"time":317.94,"velocity":0.48031496062992124},{"duration":0.2400000000000091,"midi":94,"time":318,"velocity":0.48031496062992124},{"duration":0.2400000000000091,"midi":82,"time":318,"velocity":0.5433070866141733},{"duration":0.12000000000000455,"midi":57,"time":318,"velocity":0.4566929133858268},{"duration":0.2400000000000091,"midi":86,"time":318,"velocity":0.48031496062992124},{"duration":0.12000000000000455,"midi":50,"time":318.12,"velocity":0.4566929133858268},{"duration":0.23999999999995225,"midi":84,"time":318.24,"velocity":0.48031496062992124},{"duration":0.12000000000000455,"midi":62,"time":318.24,"velocity":0.4566929133858268},{"duration":0.23999999999995225,"midi":81,"time":318.24,"velocity":0.5433070866141733},{"duration":0.23999999999995225,"midi":93,"time":318.24,"velocity":0.48031496062992124},{"duration":0.12000000000000455,"midi":73,"time":318.3,"velocity":0.5669291338582677},{"duration":0.23999999999995225,"midi":74,"time":318.36,"velocity":0.5669291338582677},{"duration":0.23999999999995225,"midi":70,"time":318.36,"velocity":0.4566929133858268},{"duration":0.1199999999999477,"midi":57,"time":318.36,"velocity":0.4566929133858268},{"duration":0.2400000000000091,"midi":89,"time":318.47999999999996,"velocity":0.48031496062992124},{"duration":0.2400000000000091,"midi":50,"time":318.47999999999996,"velocity":0.4566929133858268},{"duration":0.2400000000000091,"midi":77,"time":318.47999999999996,"velocity":0.5433070866141733},{"duration":0.2400000000000091,"midi":82,"time":318.47999999999996,"velocity":0.48031496062992124},{"duration":0.2400000000000091,"midi":72,"time":318.59999999999997,"velocity":0.5669291338582677},{"duration":0.2400000000000091,"midi":67,"time":318.59999999999997,"velocity":0.4566929133858268},{"duration":0.2400000000000091,"midi":74,"time":318.71999999999997,"velocity":0.5433070866141733},{"duration":0.12000000000000455,"midi":51,"time":318.71999999999997,"velocity":0.4566929133858268},{"duration":0.12000000000000455,"midi":63,"time":318.84,"velocity":0.4566929133858268},{"duration":0.4800000000000182,"midi":70,"time":318.84,"velocity":0.5669291338582677},{"duration":0.4800000000000182,"midi":65,"time":318.84,"velocity":0.4566929133858268},{"duration":0.12000000000000455,"midi":58,"time":318.96,"velocity":0.4566929133858268},{"duration":0.12000000000000455,"midi":51,"time":319.08,"velocity":0.4566929133858268},{"duration":0.12000000000000455,"midi":63,"time":319.2,"velocity":0.4566929133858268},{"duration":0.12000000000000455,"midi":58,"time":319.32,"velocity":0.4566929133858268},{"duration":0.2400000000000091,"midi":77,"time":319.44,"velocity":0.5118110236220472},{"duration":0.2400000000000091,"midi":51,"time":319.44,"velocity":0.4566929133858268},{"duration":0.2400000000000091,"midi":65,"time":319.56,"velocity":0.5669291338582677},{"duration":0.2400000000000091,"midi":62,"time":319.56,"velocity":0.4566929133858268},{"duration":0.12000000000000455,"midi":53,"time":319.68,"velocity":0.4566929133858268},{"duration":0.2400000000000091,"midi":86,"time":319.68,"velocity":0.5118110236220472},{"duration":0.23999999999995225,"midi":70,"time":319.8,"velocity":0.4566929133858268},{"duration":0.23999999999995225,"midi":74,"time":319.8,"velocity":0.5669291338582677},{"duration":0.12000000000000455,"midi":65,"time":319.8,"velocity":0.4566929133858268},{"duration":0.23999999999995225,"midi":87,"time":319.92,"velocity":0.5118110236220472},{"duration":0.1199999999999477,"midi":60,"time":319.92,"velocity":0.4566929133858268},{"duration":0.2400000000000091,"midi":72,"time":320.03999999999996,"velocity":0.4566929133858268},{"duration":0.12000000000000455,"midi":53,"time":320.03999999999996,"velocity":0.4566929133858268},{"duration":0.2400000000000091,"midi":75,"time":320.03999999999996,"velocity":0.5669291338582677},{"duration":0.2400000000000091,"midi":84,"time":320.15999999999997,"velocity":0.5118110236220472},{"duration":0.2400000000000091,"midi":65,"time":320.15999999999997,"velocity":0.4566929133858268},{"duration":0.2400000000000091,"midi":69,"time":320.28,"velocity":0.4566929133858268},{"duration":0.2400000000000091,"midi":72,"time":320.28,"velocity":0.5669291338582677},{"duration":0.12000000000000455,"midi":82,"time":320.52,"velocity":0.5118110236220472},{"duration":0.12000000000000455,"midi":63,"time":320.52,"velocity":0.4566929133858268},{"duration":1.920000000000016,"midi":62,"time":320.64,"velocity":0.4566929133858268},{"duration":1.920000000000016,"midi":82,"time":320.64,"velocity":0.5118110236220472},{"duration":0.12000000000000455,"midi":70,"time":320.64,"velocity":0.5669291338582677},{"duration":0.12000000000000455,"midi":67,"time":320.64,"velocity":0.5669291338582677},{"duration":1.8000000000000114,"midi":67,"time":320.76,"velocity":0.4566929133858268},{"duration":1.8000000000000114,"midi":70,"time":320.76,"velocity":0.5669291338582677}]},{"instrument":{"family":"strings","number":43,"name":"contrabass"},"notes":[{"duration":0.2400000000000002,"midi":70,"time":15.36,"velocity":0.23622047244094488},{"duration":0.7199999999999989,"midi":43,"time":15.36,"velocity":0.33858267716535434},{"duration":0.7199999999999989,"midi":65,"time":15.36,"velocity":0.3543307086614173},{"duration":0.2400000000000002,"midi":58,"time":15.36,"velocity":0.23622047244094488},{"duration":0.7199999999999989,"midi":55,"time":15.36,"velocity":0.33858267716535434},{"duration":0.2400000000000002,"midi":67,"time":15.36,"velocity":0.23622047244094488},{"duration":0.7199999999999989,"midi":46,"time":15.36,"velocity":0.30708661417322836},{"duration":0.5999999999999996,"midi":67,"time":15.36,"velocity":0.30708661417322836},{"duration":0.7199999999999989,"midi":55,"time":15.36,"velocity":0.30708661417322836},{"duration":0.5999999999999996,"midi":58,"time":15.36,"velocity":0.30708661417322836},{"duration":0.2400000000000002,"midi":70,"time":15.719999999999999,"velocity":0.23622047244094488},{"duration":0.35999999999999943,"midi":67,"time":15.719999999999999,"velocity":0.23622047244094488},{"duration":0.35999999999999943,"midi":58,"time":15.719999999999999,"velocity":0.23622047244094488},{"duration":0.240000000000002,"midi":48,"time":16.08,"velocity":0.28346456692913385},{"duration":0.240000000000002,"midi":57,"time":16.08,"velocity":0.28346456692913385},{"duration":0.240000000000002,"midi":60,"time":16.08,"velocity":0.28346456692913385},{"duration":0.240000000000002,"midi":69,"time":16.08,"velocity":0.3543307086614173},{"duration":0.240000000000002,"midi":48,"time":16.08,"velocity":0.28346456692913385},{"duration":0.240000000000002,"midi":60,"time":16.08,"velocity":0.28346456692913385},{"duration":0.240000000000002,"midi":69,"time":16.08,"velocity":0.28346456692913385},{"duration":0.7199999999999989,"midi":55,"time":16.32,"velocity":0.33858267716535434},{"duration":0.23999999999999844,"midi":67,"time":16.32,"velocity":0.23622047244094488},{"duration":0.23999999999999844,"midi":58,"time":16.32,"velocity":0.23622047244094488},{"duration":0.5999999999999979,"midi":58,"time":16.32,"velocity":0.30708661417322836},{"duration":0.7199999999999989,"midi":46,"time":16.32,"velocity":0.30708661417322836},{"duration":0.7199999999999989,"midi":65,"time":16.32,"velocity":0.3543307086614173},{"duration":0.23999999999999844,"midi":70,"time":16.32,"velocity":0.23622047244094488},{"duration":0.7199999999999989,"midi":43,"time":16.32,"velocity":0.33858267716535434},{"duration":0.7199999999999989,"midi":55,"time":16.32,"velocity":0.30708661417322836},{"duration":0.5999999999999979,"midi":67,"time":16.32,"velocity":0.30708661417322836},{"duration":0.35999999999999943,"midi":58,"time":16.68,"velocity":0.23622047244094488},{"duration":0.35999999999999943,"midi":67,"time":16.68,"velocity":0.23622047244094488},{"duration":0.23999999999999844,"midi":70,"time":16.68,"velocity":0.23622047244094488},{"duration":0.240000000000002,"midi":60,"time":17.04,"velocity":0.30708661417322836},{"duration":0.240000000000002,"midi":48,"time":17.04,"velocity":0.28346456692913385},{"duration":0.240000000000002,"midi":60,"time":17.04,"velocity":0.28346456692913385},{"duration":0.240000000000002,"midi":48,"time":17.04,"velocity":0.30708661417322836},{"duration":0.240000000000002,"midi":69,"time":17.04,"velocity":0.3543307086614173},{"duration":0.240000000000002,"midi":69,"time":17.04,"velocity":0.30708661417322836},{"duration":0.240000000000002,"midi":57,"time":17.04,"velocity":0.30708661417322836},{"duration":0.7199999999999989,"midi":43,"time":17.28,"velocity":0.33858267716535434},{"duration":0.23999999999999844,"midi":58,"time":17.28,"velocity":0.23622047244094488},{"duration":0.5999999999999979,"midi":58,"time":17.28,"velocity":0.30708661417322836},{"duration":0.7199999999999989,"midi":55,"time":17.28,"velocity":0.30708661417322836},{"duration":0.23999999999999844,"midi":67,"time":17.28,"velocity":0.30708661417322836},{"duration":0.5999999999999979,"midi":67,"time":17.28,"velocity":0.23622047244094488},{"duration":0.7199999999999989,"midi":55,"time":17.28,"velocity":0.33858267716535434},{"duration":0.7199999999999989,"midi":65,"time":17.28,"velocity":0.3543307086614173},{"duration":0.23999999999999844,"midi":70,"time":17.28,"velocity":0.23622047244094488},{"duration":0.7199999999999989,"midi":46,"time":17.28,"velocity":0.30708661417322836},{"duration":0.35999999999999943,"midi":67,"time":17.64,"velocity":0.23622047244094488},{"duration":0.35999999999999943,"midi":58,"time":17.64,"velocity":0.23622047244094488},{"duration":0.23999999999999844,"midi":70,"time":17.64,"velocity":0.23622047244094488},{"duration":0.23999999999999844,"midi":60,"time":18,"velocity":0.28346456692913385},{"duration":0.23999999999999844,"midi":48,"time":18,"velocity":0.28346456692913385},{"duration":0.23999999999999844,"midi":72,"time":18,"velocity":0.28346456692913385},{"duration":0.23999999999999844,"midi":69,"time":18,"velocity":0.28346456692913385},{"duration":0.23999999999999844,"midi":57,"time":18,"velocity":0.28346456692913385},{"duration":0.23999999999999844,"midi":69,"time":18,"velocity":0.3543307086614173},{"duration":0.23999999999999844,"midi":60,"time":18,"velocity":0.28346456692913385},{"duration":0.240000000000002,"midi":62,"time":18.24,"velocity":0.33858267716535434},{"duration":0.240000000000002,"midi":50,"time":18.24,"velocity":0.33858267716535434},{"duration":0.240000000000002,"midi":70,"time":18.24,"velocity":0.23622047244094488},{"duration":0.240000000000002,"midi":74,"time":18.24,"velocity":0.23622047244094488},{"duration":0.240000000000002,"midi":62,"time":18.24,"velocity":0.33858267716535434},{"duration":0.240000000000002,"midi":62,"time":18.24,"velocity":0.23622047244094488},{"duration":0.240000000000002,"midi":58,"time":18.24,"velocity":0.25196850393700787},{"duration":0.240000000000002,"midi":74,"time":18.24,"velocity":0.33858267716535434},{"duration":0.240000000000002,"midi":70,"time":18.24,"velocity":0.25196850393700787},{"duration":0.23999999999999844,"midi":67,"time":18.48,"velocity":0.23622047244094488},{"duration":0.23999999999999844,"midi":60,"time":18.48,"velocity":0.33858267716535434},{"duration":0.23999999999999844,"midi":48,"time":18.48,"velocity":0.33858267716535434},{"duration":0.23999999999999844,"midi":67,"time":18.48,"velocity":0.33858267716535434},{"duration":0.23999999999999844,"midi":55,"time":18.48,"velocity":0.33858267716535434},{"duration":0.23999999999999844,"midi":60,"time":18.48,"velocity":0.33858267716535434},{"duration":0.23999999999999844,"midi":72,"time":18.48,"velocity":0.33858267716535434},{"duration":0.23999999999999844,"midi":72,"time":18.48,"velocity":0.23622047244094488},{"duration":0.23999999999999844,"midi":60,"time":18.48,"velocity":0.23622047244094488},{"duration":0.240000000000002,"midi":58,"time":18.72,"velocity":0.23622047244094488},{"duration":0.240000000000002,"midi":46,"time":18.72,"velocity":0.33858267716535434},{"duration":0.240000000000002,"midi":65,"time":18.72,"velocity":0.33858267716535434},{"duration":0.240000000000002,"midi":65,"time":18.72,"velocity":0.23622047244094488},{"duration":0.240000000000002,"midi":70,"time":18.72,"velocity":0.23622047244094488},{"duration":0.120000000000001,"midi":74,"time":18.72,"velocity":0.31496062992125984},{"duration":0.240000000000002,"midi":53,"time":18.72,"velocity":0.33858267716535434},{"duration":0.240000000000002,"midi":70,"time":18.72,"velocity":0.33858267716535434},{"duration":0.240000000000002,"midi":58,"time":18.72,"velocity":0.33858267716535434},{"duration":0.240000000000002,"midi":58,"time":18.72,"velocity":0.33858267716535434},{"duration":0.23999999999999844,"midi":60,"time":18.96,"velocity":0.23622047244094488},{"duration":0.23999999999999844,"midi":48,"time":18.96,"velocity":0.33858267716535434},{"duration":0.23999999999999844,"midi":72,"time":18.96,"velocity":0.23622047244094488},{"duration":0.23999999999999844,"midi":72,"time":18.96,"velocity":0.33858267716535434},{"duration":0.23999999999999844,"midi":55,"time":18.96,"velocity":0.33858267716535434},{"duration":0.23999999999999844,"midi":60,"time":18.96,"velocity":0.33858267716535434},{"duration":0.11999999999999744,"midi":75,"time":18.96,"velocity":0.2755905511811024},{"duration":0.23999999999999844,"midi":67,"time":18.96,"velocity":0.23622047244094488},{"duration":0.23999999999999844,"midi":67,"time":18.96,"velocity":0.33858267716535434},{"duration":0.23999999999999844,"midi":60,"time":18.96,"velocity":0.33858267716535434},{"duration":0.23999999999999844,"midi":58,"time":19.2,"velocity":0.30708661417322836},{"duration":0.4800000000000004,"midi":65,"time":19.2,"velocity":0.36220472440944884},{"duration":0.7199999999999989,"midi":55,"time":19.2,"velocity":0.33858267716535434},{"duration":0.7199999999999989,"midi":46,"time":19.2,"velocity":0.30708661417322836},{"duration":0.7199999999999989,"midi":43,"time":19.2,"velocity":0.33858267716535434},{"duration":0.23999999999999844,"midi":67,"time":19.2,"velocity":0.30708661417322836},{"duration":0.6000000000000014,"midi":58,"time":19.2,"velocity":0.23622047244094488},{"duration":0.7199999999999989,"midi":55,"time":19.2,"velocity":0.30708661417322836},{"duration":0.4800000000000004,"midi":77,"time":19.2,"velocity":0.2204724409448819},{"duration":0.23999999999999844,"midi":70,"time":19.2,"velocity":0.23622047244094488},{"duration":0.6000000000000014,"midi":67,"time":19.2,"velocity":0.23622047244094488},{"duration":0.35999999999999943,"midi":58,"time":19.56,"velocity":0.23622047244094488},{"duration":0.35999999999999943,"midi":67,"time":19.56,"velocity":0.23622047244094488},{"duration":0.240000000000002,"midi":70,"time":19.56,"velocity":0.23622047244094488},{"duration":0.11999999999999744,"midi":67,"time":19.8,"velocity":0.3228346456692913},{"duration":0.120000000000001,"midi":68,"time":19.86,"velocity":0.33858267716535434},{"duration":0.240000000000002,"midi":48,"time":19.919999999999998,"velocity":0.28346456692913385},{"duration":0.240000000000002,"midi":57,"time":19.919999999999998,"velocity":0.28346456692913385},{"duration":0.240000000000002,"midi":48,"time":19.919999999999998,"velocity":0.28346456692913385},{"duration":0.240000000000002,"midi":69,"time":19.919999999999998,"velocity":0.3543307086614173},{"duration":0.240000000000002,"midi":69,"time":19.919999999999998,"velocity":0.28346456692913385},{"duration":0.240000000000002,"midi":60,"time":19.919999999999998,"velocity":0.28346456692913385},{"duration":0.240000000000002,"midi":60,"time":19.919999999999998,"velocity":0.28346456692913385},{"duration":0.23999999999999844,"midi":67,"time":20.16,"velocity":0.23622047244094488},{"duration":0.7199999999999989,"midi":46,"time":20.16,"velocity":0.30708661417322836},{"duration":0.7199999999999989,"midi":55,"time":20.16,"velocity":0.33858267716535434},{"duration":0.23999999999999844,"midi":58,"time":20.16,"velocity":0.23622047244094488},{"duration":0.5999999999999979,"midi":67,"time":20.16,"velocity":0.30708661417322836},{"duration":0.7199999999999989,"midi":55,"time":20.16,"velocity":0.30708661417322836},{"duration":0.23999999999999844,"midi":70,"time":20.16,"velocity":0.23622047244094488},{"duration":0.5999999999999979,"midi":65,"time":20.16,"velocity":0.36220472440944884},{"duration":0.5999999999999979,"midi":58,"time":20.16,"velocity":0.30708661417322836},{"duration":0.7199999999999989,"midi":43,"time":20.16,"velocity":0.33858267716535434},{"duration":0.23999999999999844,"midi":70,"time":20.52,"velocity":0.23622047244094488},{"duration":0.35999999999999943,"midi":58,"time":20.52,"velocity":0.23622047244094488},{"duration":0.35999999999999943,"midi":67,"time":20.52,"velocity":0.23622047244094488},{"duration":0.11999999999999744,"midi":68,"time":20.82,"velocity":0.3543307086614173},{"duration":0.23999999999999844,"midi":60,"time":20.88,"velocity":0.28346456692913385},{"duration":0.23999999999999844,"midi":57,"time":20.88,"velocity":0.30708661417322836},{"duration":0.23999999999999844,"midi":69,"time":20.88,"velocity":0.3543307086614173},{"duration":0.23999999999999844,"midi":48,"time":20.88,"velocity":0.30708661417322836},{"duration":0.23999999999999844,"midi":60,"time":20.88,"velocity":0.30708661417322836},{"duration":0.23999999999999844,"midi":48,"time":20.88,"velocity":0.28346456692913385},{"duration":0.23999999999999844,"midi":69,"time":20.88,"velocity":0.30708661417322836},{"duration":0.240000000000002,"midi":58,"time":21.119999999999997,"velocity":0.23622047244094488},{"duration":0.7200000000000024,"midi":65,"time":21.119999999999997,"velocity":0.36220472440944884},{"duration":0.240000000000002,"midi":67,"time":21.119999999999997,"velocity":0.30708661417322836},{"duration":0.7200000000000024,"midi":46,"time":21.119999999999997,"velocity":0.30708661417322836},{"duration":0.7200000000000024,"midi":55,"time":21.119999999999997,"velocity":0.33858267716535434},{"duration":0.7200000000000024,"midi":55,"time":21.119999999999997,"velocity":0.30708661417322836},{"duration":0.6000000000000014,"midi":67,"time":21.119999999999997,"velocity":0.23622047244094488},{"duration":0.240000000000002,"midi":70,"time":21.119999999999997,"velocity":0.23622047244094488},{"duration":0.7200000000000024,"midi":43,"time":21.119999999999997,"velocity":0.33858267716535434},{"duration":0.6000000000000014,"midi":58,"time":21.119999999999997,"velocity":0.30708661417322836},{"duration":0.23999999999999844,"midi":70,"time":21.48,"velocity":0.23622047244094488},{"duration":0.35999999999999943,"midi":58,"time":21.48,"velocity":0.23622047244094488},{"duration":0.35999999999999943,"midi":67,"time":21.48,"velocity":0.23622047244094488},{"duration":0.23999999999999844,"midi":57,"time":21.84,"velocity":0.28346456692913385},{"duration":0.23999999999999844,"midi":60,"time":21.84,"velocity":0.28346456692913385},{"duration":0.23999999999999844,"midi":48,"time":21.84,"velocity":0.28346456692913385},{"duration":0.23999999999999844,"midi":48,"time":21.84,"velocity":0.28346456692913385},{"duration":0.23999999999999844,"midi":60,"time":21.84,"velocity":0.28346456692913385},{"duration":0.23999999999999844,"midi":69,"time":21.84,"velocity":0.28346456692913385},{"duration":0.23999999999999844,"midi":69,"time":21.84,"velocity":0.3543307086614173},{"duration":0.240000000000002,"midi":62,"time":22.08,"velocity":0.33858267716535434},{"duration":0.240000000000002,"midi":62,"time":22.08,"velocity":0.33858267716535434},{"duration":0.240000000000002,"midi":62,"time":22.08,"velocity":0.23622047244094488},{"duration":0.120000000000001,"midi":82,"time":22.08,"velocity":0.3779527559055118},{"duration":0.240000000000002,"midi":70,"time":22.08,"velocity":0.25196850393700787},{"duration":0.240000000000002,"midi":58,"time":22.08,"velocity":0.25196850393700787},{"duration":0.240000000000002,"midi":50,"time":22.08,"velocity":0.33858267716535434},{"duration":0.240000000000002,"midi":74,"time":22.08,"velocity":0.33858267716535434},{"duration":0.240000000000002,"midi":74,"time":22.08,"velocity":0.23622047244094488},{"duration":0.240000000000002,"midi":70,"time":22.08,"velocity":0.23622047244094488},{"duration":0.23999999999999844,"midi":67,"time":22.32,"velocity":0.33858267716535434},{"duration":0.23999999999999844,"midi":60,"time":22.32,"velocity":0.23622047244094488},{"duration":0.23999999999999844,"midi":55,"time":22.32,"velocity":0.33858267716535434},{"duration":0.23999999999999844,"midi":67,"time":22.32,"velocity":0.23622047244094488},{"duration":0.23999999999999844,"midi":72,"time":22.32,"velocity":0.33858267716535434},{"duration":0.23999999999999844,"midi":48,"time":22.32,"velocity":0.33858267716535434},{"duration":0.11999999999999744,"midi":81,"time":22.32,"velocity":0.3779527559055118},{"duration":0.23999999999999844,"midi":72,"time":22.32,"velocity":0.23622047244094488},{"duration":0.23999999999999844,"midi":60,"time":22.32,"velocity":0.33858267716535434},{"duration":0.23999999999999844,"midi":60,"time":22.32,"velocity":0.33858267716535434},{"duration":0.120000000000001,"midi":82,"time":22.38,"velocity":0.3779527559055118},{"duration":0.120000000000001,"midi":81,"time":22.439999999999998,"velocity":0.3779527559055118},{"duration":0.240000000000002,"midi":46,"time":22.56,"velocity":0.33858267716535434},{"duration":0.240000000000002,"midi":58,"time":22.56,"velocity":0.23622047244094488},{"duration":0.240000000000002,"midi":53,"time":22.56,"velocity":0.33858267716535434},{"duration":0.240000000000002,"midi":65,"time":22.56,"velocity":0.23622047244094488},{"duration":0.240000000000002,"midi":70,"time":22.56,"velocity":0.23622047244094488},{"duration":0.240000000000002,"midi":58,"time":22.56,"velocity":0.33858267716535434},{"duration":0.240000000000002,"midi":58,"time":22.56,"velocity":0.33858267716535434},{"duration":0.240000000000002,"midi":79,"time":22.56,"velocity":0.3779527559055118},{"duration":0.240000000000002,"midi":65,"time":22.56,"velocity":0.33858267716535434},{"duration":0.240000000000002,"midi":70,"time":22.56,"velocity":0.33858267716535434},{"duration":0.23999999999999844,"midi":72,"time":22.8,"velocity":0.33858267716535434},{"duration":0.23999999999999844,"midi":72,"time":22.8,"velocity":0.23622047244094488},{"duration":0.23999999999999844,"midi":60,"time":22.8,"velocity":0.23622047244094488},{"duration":0.23999999999999844,"midi":67,"time":22.8,"velocity":0.23622047244094488},{"duration":0.23999999999999844,"midi":55,"time":22.8,"velocity":0.33858267716535434},{"duration":0.23999999999999844,"midi":60,"time":22.8,"velocity":0.33858267716535434},{"duration":0.23999999999999844,"midi":48,"time":22.8,"velocity":0.33858267716535434},{"duration":0.23999999999999844,"midi":81,"time":22.8,"velocity":0.3779527559055118},{"duration":0.23999999999999844,"midi":67,"time":22.8,"velocity":0.33858267716535434},{"duration":0.23999999999999844,"midi":60,"time":22.8,"velocity":0.33858267716535434},{"duration":0.23999999999999844,"midi":58,"time":23.04,"velocity":0.25196850393700787},{"duration":0.7199999999999989,"midi":51,"time":23.04,"velocity":0.25196850393700787},{"duration":0.7199999999999989,"midi":51,"time":23.04,"velocity":0.25196850393700787},{"duration":0.7199999999999989,"midi":39,"time":23.04,"velocity":0.25196850393700787},{"duration":0.23999999999999844,"midi":70,"time":23.04,"velocity":0.2992125984251969},{"duration":0.6000000000000014,"midi":58,"time":23.04,"velocity":0.2992125984251969},{"duration":0.7199999999999989,"midi":46,"time":23.04,"velocity":0.25196850393700787},{"duration":0.6000000000000014,"midi":70,"time":23.04,"velocity":0.23622047244094488},{"duration":0.7199999999999989,"midi":58,"time":23.04,"velocity":0.23622047244094488},{"duration":0.23999999999999844,"midi":63,"time":23.04,"velocity":0.23622047244094488},{"duration":0.6000000000000014,"midi":63,"time":23.04,"velocity":0.25196850393700787},{"duration":0.7199999999999989,"midi":82,"time":23.04,"velocity":0.3779527559055118},{"duration":0.35999999999999943,"midi":70,"time":23.4,"velocity":0.23622047244094488},{"duration":0.35999999999999943,"midi":63,"time":23.4,"velocity":0.23622047244094488},{"duration":0.35999999999999943,"midi":58,"time":23.4,"velocity":0.23622047244094488},{"duration":0.120000000000001,"midi":80,"time":23.7,"velocity":0.3779527559055118},{"duration":0.240000000000002,"midi":57,"time":23.759999999999998,"velocity":0.25196850393700787},{"duration":0.240000000000002,"midi":81,"time":23.759999999999998,"velocity":0.3779527559055118},{"duration":0.240000000000002,"midi":69,"time":23.759999999999998,"velocity":0.25196850393700787},{"duration":0.240000000000002,"midi":50,"time":23.759999999999998,"velocity":0.25196850393700787},{"duration":0.240000000000002,"midi":50,"time":23.759999999999998,"velocity":0.25196850393700787},{"duration":0.240000000000002,"midi":45,"time":23.759999999999998,"velocity":0.25196850393700787},{"duration":0.240000000000002,"midi":62,"time":23.759999999999998,"velocity":0.25196850393700787},{"duration":0.240000000000002,"midi":38,"time":23.759999999999998,"velocity":0.25196850393700787},{"duration":0.240000000000002,"midi":57,"time":23.759999999999998,"velocity":0.25196850393700787},{"duration":0.23999999999999844,"midi":58,"time":24,"velocity":0.23622047244094488},{"duration":0.23999999999999844,"midi":70,"time":24,"velocity":0.3779527559055118},{"duration":0.5999999999999979,"midi":58,"time":24,"velocity":0.25196850393700787},{"duration":0.7199999999999989,"midi":51,"time":24,"velocity":0.25196850393700787},{"duration":0.7199999999999989,"midi":58,"time":24,"velocity":0.29133858267716534},{"duration":0.23999999999999844,"midi":63,"time":24,"velocity":0.23622047244094488},{"duration":0.7199999999999989,"midi":46,"time":24,"velocity":0.25196850393700787},{"duration":0.7199999999999989,"midi":51,"time":24,"velocity":0.25196850393700787},{"duration":0.5999999999999979,"midi":70,"time":24,"velocity":0.23622047244094488},{"duration":0.7199999999999989,"midi":77,"time":24,"velocity":0.3779527559055118},{"duration":0.7199999999999989,"midi":70,"time":24,"velocity":0.29133858267716534},{"duration":0.7199999999999989,"midi":39,"time":24,"velocity":0.25196850393700787},{"duration":0.5999999999999979,"midi":63,"time":24,"velocity":0.25196850393700787},{"duration":0.35999999999999943,"midi":58,"time":24.36,"velocity":0.23622047244094488},{"duration":0.35999999999999943,"midi":70,"time":24.36,"velocity":0.23622047244094488},{"duration":0.35999999999999943,"midi":63,"time":24.36,"velocity":0.23622047244094488},{"duration":0.240000000000002,"midi":38,"time":24.72,"velocity":0.25196850393700787},{"duration":0.240000000000002,"midi":62,"time":24.72,"velocity":0.25196850393700787},{"duration":0.240000000000002,"midi":50,"time":24.72,"velocity":0.25196850393700787},{"duration":0.240000000000002,"midi":57,"time":24.72,"velocity":0.25196850393700787},{"duration":0.240000000000002,"midi":57,"time":24.72,"velocity":0.25196850393700787},{"duration":0.240000000000002,"midi":69,"time":24.72,"velocity":0.25196850393700787},{"duration":0.240000000000002,"midi":75,"time":24.72,"velocity":0.3779527559055118},{"duration":0.240000000000002,"midi":50,"time":24.72,"velocity":0.25196850393700787},{"duration":0.240000000000002,"midi":45,"time":24.72,"velocity":0.25196850393700787},{"duration":0.7199999999999989,"midi":51,"time":24.96,"velocity":0.25196850393700787},{"duration":0.23999999999999844,"midi":58,"time":24.96,"velocity":0.25196850393700787},{"duration":0.7199999999999989,"midi":51,"time":24.96,"velocity":0.25196850393700787},{"duration":0.23999999999999844,"midi":70,"time":24.96,"velocity":0.23622047244094488},{"duration":0.23999999999999844,"midi":63,"time":24.96,"velocity":0.25196850393700787},{"duration":0.7199999999999989,"midi":39,"time":24.96,"velocity":0.25196850393700787},{"duration":0.5999999999999979,"midi":58,"time":24.96,"velocity":0.23622047244094488},{"duration":0.7199999999999989,"midi":58,"time":24.96,"velocity":0.29133858267716534},{"duration":0.5999999999999979,"midi":70,"time":24.96,"velocity":0.29133858267716534},{"duration":0.7199999999999989,"midi":74,"time":24.96,"velocity":0.3779527559055118},{"duration":0.7199999999999989,"midi":70,"time":24.96,"velocity":0.3779527559055118},{"duration":0.5999999999999979,"midi":63,"time":24.96,"velocity":0.23622047244094488},{"duration":0.7199999999999989,"midi":46,"time":24.96,"velocity":0.25196850393700787},{"duration":0.35999999999999943,"midi":58,"time":25.32,"velocity":0.23622047244094488},{"duration":0.35999999999999943,"midi":70,"time":25.32,"velocity":0.23622047244094488},{"duration":0.35999999999999943,"midi":63,"time":25.32,"velocity":0.23622047244094488},{"duration":0.23999999999999844,"midi":57,"time":25.68,"velocity":0.25196850393700787},{"duration":0.23999999999999844,"midi":62,"time":25.68,"velocity":0.25196850393700787},{"duration":0.23999999999999844,"midi":57,"time":25.68,"velocity":0.25196850393700787},{"duration":0.23999999999999844,"midi":72,"time":25.68,"velocity":0.3779527559055118},{"duration":0.23999999999999844,"midi":38,"time":25.68,"velocity":0.25196850393700787},{"duration":0.23999999999999844,"midi":69,"time":25.68,"velocity":0.25196850393700787},{"duration":0.23999999999999844,"midi":45,"time":25.68,"velocity":0.25196850393700787},{"duration":0.23999999999999844,"midi":50,"time":25.68,"velocity":0.25196850393700787},{"duration":0.23999999999999844,"midi":50,"time":25.68,"velocity":0.25196850393700787},{"duration":0.240000000000002,"midi":46,"time":25.919999999999998,"velocity":0.25196850393700787},{"duration":0.240000000000002,"midi":62,"time":25.919999999999998,"velocity":0.33070866141732286},{"duration":0.240000000000002,"midi":62,"time":25.919999999999998,"velocity":0.33070866141732286},{"duration":0.240000000000002,"midi":50,"time":25.919999999999998,"velocity":0.33070866141732286},{"duration":0.240000000000002,"midi":58,"time":25.919999999999998,"velocity":0.25196850393700787},{"duration":0.240000000000002,"midi":58,"time":25.919999999999998,"velocity":0.30708661417322836},{"duration":0.240000000000002,"midi":70,"time":25.919999999999998,"velocity":0.3779527559055118},{"duration":0.240000000000002,"midi":70,"time":25.919999999999998,"velocity":0.30708661417322836},{"duration":0.240000000000002,"midi":74,"time":25.919999999999998,"velocity":0.23622047244094488},{"duration":0.240000000000002,"midi":74,"time":25.919999999999998,"velocity":0.33070866141732286},{"duration":0.240000000000002,"midi":62,"time":25.919999999999998,"velocity":0.23622047244094488},{"duration":0.240000000000002,"midi":70,"time":25.919999999999998,"velocity":0.23622047244094488},{"duration":0.23999999999999844,"midi":60,"time":26.16,"velocity":0.33070866141732286},{"duration":0.23999999999999844,"midi":72,"time":26.16,"velocity":0.3779527559055118},{"duration":0.23999999999999844,"midi":60,"time":26.16,"velocity":0.33070866141732286},{"duration":0.23999999999999844,"midi":48,"time":26.16,"velocity":0.33070866141732286},{"duration":0.23999999999999844,"midi":67,"time":26.16,"velocity":0.33070866141732286},{"duration":0.23999999999999844,"midi":67,"time":26.16,"velocity":0.23622047244094488},{"duration":0.23999999999999844,"midi":72,"time":26.16,"velocity":0.33070866141732286},{"duration":0.23999999999999844,"midi":72,"time":26.16,"velocity":0.23622047244094488},{"duration":0.23999999999999844,"midi":55,"time":26.16,"velocity":0.33070866141732286},{"duration":0.23999999999999844,"midi":60,"time":26.16,"velocity":0.23622047244094488},{"duration":0.240000000000002,"midi":46,"time":26.4,"velocity":0.33070866141732286},{"duration":0.240000000000002,"midi":53,"time":26.4,"velocity":0.33070866141732286},{"duration":0.240000000000002,"midi":65,"time":26.4,"velocity":0.23622047244094488},{"duration":0.240000000000002,"midi":74,"time":26.4,"velocity":0.3779527559055118},{"duration":0.240000000000002,"midi":70,"time":26.4,"velocity":0.23622047244094488},{"duration":0.240000000000002,"midi":58,"time":26.4,"velocity":0.33070866141732286},{"duration":0.240000000000002,"midi":65,"time":26.4,"velocity":0.33070866141732286},{"duration":0.240000000000002,"midi":58,"time":26.4,"velocity":0.33070866141732286},{"duration":0.240000000000002,"midi":70,"time":26.4,"velocity":0.33070866141732286},{"duration":0.23999999999999844,"midi":55,"time":26.64,"velocity":0.33070866141732286},{"duration":0.23999999999999844,"midi":60,"time":26.64,"velocity":0.23622047244094488},{"duration":0.23999999999999844,"midi":48,"time":26.64,"velocity":0.33070866141732286},{"duration":0.23999999999999844,"midi":60,"time":26.64,"velocity":0.33070866141732286},{"duration":0.23999999999999844,"midi":67,"time":26.64,"velocity":0.23622047244094488},{"duration":0.23999999999999844,"midi":60,"time":26.64,"velocity":0.33070866141732286},{"duration":0.23999999999999844,"midi":67,"time":26.64,"velocity":0.33070866141732286},{"duration":0.23999999999999844,"midi":72,"time":26.64,"velocity":0.33070866141732286},{"duration":0.23999999999999844,"midi":72,"time":26.64,"velocity":0.23622047244094488},{"duration":0.23999999999999844,"midi":75,"time":26.64,"velocity":0.3779527559055118},{"duration":0.23999999999999844,"midi":58,"time":26.88,"velocity":0.23622047244094488},{"duration":0.23999999999999844,"midi":63,"time":26.88,"velocity":0.23622047244094488},{"duration":0.7199999999999989,"midi":51,"time":26.88,"velocity":0.25196850393700787},{"duration":0.7199999999999989,"midi":77,"time":26.88,"velocity":0.3779527559055118},{"duration":0.23999999999999844,"midi":70,"time":26.88,"velocity":0.3779527559055118},{"duration":0.6000000000000014,"midi":70,"time":26.88,"velocity":0.2992125984251969},{"duration":0.6000000000000014,"midi":63,"time":26.88,"velocity":0.25196850393700787},{"duration":0.6000000000000014,"midi":58,"time":26.88,"velocity":0.25196850393700787},{"duration":0.7199999999999989,"midi":46,"time":26.88,"velocity":0.25196850393700787},{"duration":0.7199999999999989,"midi":39,"time":26.88,"velocity":0.25196850393700787},{"duration":0.7199999999999989,"midi":51,"time":26.88,"velocity":0.25196850393700787},{"duration":0.7199999999999989,"midi":58,"time":26.88,"velocity":0.2992125984251969},{"duration":0.7199999999999989,"midi":70,"time":26.88,"velocity":0.23622047244094488},{"duration":0.35999999999999943,"midi":70,"time":27.24,"velocity":0.23622047244094488},{"duration":0.35999999999999943,"midi":58,"time":27.24,"velocity":0.23622047244094488},{"duration":0.35999999999999943,"midi":63,"time":27.24,"velocity":0.23622047244094488},{"duration":0.240000000000002,"midi":57,"time":27.599999999999998,"velocity":0.25196850393700787},{"duration":0.240000000000002,"midi":38,"time":27.599999999999998,"velocity":0.25196850393700787},{"duration":0.240000000000002,"midi":57,"time":27.599999999999998,"velocity":0.25196850393700787},{"duration":0.240000000000002,"midi":45,"time":27.599999999999998,"velocity":0.25196850393700787},{"duration":0.240000000000002,"midi":62,"time":27.599999999999998,"velocity":0.25196850393700787},{"duration":0.240000000000002,"midi":69,"time":27.599999999999998,"velocity":0.25196850393700787},{"duration":0.240000000000002,"midi":50,"time":27.599999999999998,"velocity":0.25196850393700787},{"duration":0.240000000000002,"midi":50,"time":27.599999999999998,"velocity":0.25196850393700787},{"duration":0.7199999999999989,"midi":72,"time":27.84,"velocity":0.3779527559055118},{"duration":0.7199999999999989,"midi":51,"time":27.84,"velocity":0.25196850393700787},{"duration":0.23999999999999844,"midi":58,"time":27.84,"velocity":0.25196850393700787},{"duration":0.7199999999999989,"midi":39,"time":27.84,"velocity":0.25196850393700787},{"duration":0.7199999999999989,"midi":51,"time":27.84,"velocity":0.25196850393700787},{"duration":0.7199999999999989,"midi":79,"time":27.84,"velocity":0.3779527559055118},{"duration":0.5999999999999979,"midi":58,"time":27.84,"velocity":0.29133858267716534},{"duration":0.7199999999999989,"midi":46,"time":27.84,"velocity":0.25196850393700787},{"duration":0.23999999999999844,"midi":63,"time":27.84,"velocity":0.23622047244094488},{"duration":0.5999999999999979,"midi":63,"time":27.84,"velocity":0.25196850393700787},{"duration":0.23999999999999844,"midi":70,"time":27.84,"velocity":0.29133858267716534},{"duration":0.5999999999999979,"midi":70,"time":27.84,"velocity":0.23622047244094488},{"duration":0.7199999999999989,"midi":58,"time":27.84,"velocity":0.23622047244094488},{"duration":0.35999999999999943,"midi":58,"time":28.2,"velocity":0.23622047244094488},{"duration":0.35999999999999943,"midi":63,"time":28.2,"velocity":0.23622047244094488},{"duration":0.35999999999999943,"midi":70,"time":28.2,"velocity":0.23622047244094488},{"duration":0.23999999999999844,"midi":62,"time":28.56,"velocity":0.25196850393700787},{"duration":0.23999999999999844,"midi":57,"time":28.56,"velocity":0.25196850393700787},{"duration":0.23999999999999844,"midi":57,"time":28.56,"velocity":0.25196850393700787},{"duration":0.23999999999999844,"midi":50,"time":28.56,"velocity":0.25196850393700787},{"duration":0.23999999999999844,"midi":45,"time":28.56,"velocity":0.25196850393700787},{"duration":0.23999999999999844,"midi":38,"time":28.56,"velocity":0.25196850393700787},{"duration":0.23999999999999844,"midi":69,"time":28.56,"velocity":0.25196850393700787},{"duration":0.23999999999999844,"midi":50,"time":28.56,"velocity":0.25196850393700787},{"duration":0.240000000000002,"midi":63,"time":28.799999999999997,"velocity":0.23622047244094488},{"duration":0.240000000000002,"midi":70,"time":28.799999999999997,"velocity":0.23622047244094488},{"duration":0.7200000000000024,"midi":74,"time":28.799999999999997,"velocity":0.3779527559055118},{"duration":0.240000000000002,"midi":58,"time":28.799999999999997,"velocity":0.29133858267716534},{"duration":0.7200000000000024,"midi":51,"time":28.799999999999997,"velocity":0.25196850393700787},{"duration":0.7200000000000024,"midi":46,"time":28.799999999999997,"velocity":0.25196850393700787},{"duration":0.7200000000000024,"midi":51,"time":28.799999999999997,"velocity":0.25196850393700787},{"duration":0.6000000000000014,"midi":58,"time":28.799999999999997,"velocity":0.23622047244094488},{"duration":0.7200000000000024,"midi":39,"time":28.799999999999997,"velocity":0.25196850393700787},{"duration":0.6000000000000014,"midi":63,"time":28.799999999999997,"velocity":0.25196850393700787},{"duration":0.6000000000000014,"midi":70,"time":28.799999999999997,"velocity":0.29133858267716534},{"duration":0.7200000000000024,"midi":81,"time":28.799999999999997,"velocity":0.3779527559055118},{"duration":0.7200000000000024,"midi":58,"time":28.799999999999997,"velocity":0.25196850393700787},{"duration":0.35999999999999943,"midi":70,"time":29.16,"velocity":0.23622047244094488},{"duration":0.35999999999999943,"midi":58,"time":29.16,"velocity":0.23622047244094488},{"duration":0.35999999999999943,"midi":63,"time":29.16,"velocity":0.23622047244094488},{"duration":0.23999999999999844,"midi":57,"time":29.52,"velocity":0.25196850393700787},{"duration":0.23999999999999844,"midi":62,"time":29.52,"velocity":0.25196850393700787},{"duration":0.23999999999999844,"midi":50,"time":29.52,"velocity":0.25196850393700787},{"duration":0.23999999999999844,"midi":50,"time":29.52,"velocity":0.25196850393700787},{"duration":0.23999999999999844,"midi":57,"time":29.52,"velocity":0.25196850393700787},{"duration":0.23999999999999844,"midi":69,"time":29.52,"velocity":0.25196850393700787},{"duration":0.23999999999999844,"midi":45,"time":29.52,"velocity":0.25196850393700787},{"duration":0.23999999999999844,"midi":38,"time":29.52,"velocity":0.25196850393700787},{"duration":0.120000000000001,"midi":82,"time":29.759999999999998,"velocity":0.3779527559055118},{"duration":0.240000000000002,"midi":50,"time":29.759999999999998,"velocity":0.25196850393700787},{"duration":0.240000000000002,"midi":74,"time":29.759999999999998,"velocity":0.33070866141732286},{"duration":0.240000000000002,"midi":74,"time":29.759999999999998,"velocity":0.23622047244094488},{"duration":0.240000000000002,"midi":58,"time":29.759999999999998,"velocity":0.25196850393700787},{"duration":0.240000000000002,"midi":62,"time":29.759999999999998,"velocity":0.33070866141732286},{"duration":0.240000000000002,"midi":70,"time":29.759999999999998,"velocity":0.30708661417322836},{"duration":0.240000000000002,"midi":70,"time":29.759999999999998,"velocity":0.23622047244094488},{"duration":0.240000000000002,"midi":62,"time":29.759999999999998,"velocity":0.25196850393700787},{"duration":0.240000000000002,"midi":62,"time":29.759999999999998,"velocity":0.23622047244094488},{"duration":0.240000000000002,"midi":46,"time":29.759999999999998,"velocity":0.25196850393700787},{"duration":0.240000000000002,"midi":58,"time":29.759999999999998,"velocity":0.30708661417322836},{"duration":0.23999999999999844,"midi":48,"time":30,"velocity":0.33070866141732286},{"duration":0.23999999999999844,"midi":60,"time":30,"velocity":0.33070866141732286},{"duration":0.23999999999999844,"midi":55,"time":30,"velocity":0.33070866141732286},{"duration":0.23999999999999844,"midi":72,"time":30,"velocity":0.33070866141732286},{"duration":0.23999999999999844,"midi":72,"time":30,"velocity":0.23622047244094488},{"duration":0.23999999999999844,"midi":67,"time":30,"velocity":0.33070866141732286},{"duration":0.23999999999999844,"midi":67,"time":30,"velocity":0.23622047244094488},{"duration":0.23999999999999844,"midi":60,"time":30,"velocity":0.23622047244094488},{"duration":0.11999999999999744,"midi":81,"time":30,"velocity":0.3779527559055118},{"duration":0.23999999999999844,"midi":60,"time":30,"velocity":0.33070866141732286},{"duration":0.120000000000001,"midi":82,"time":30.06,"velocity":0.3779527559055118},{"duration":0.120000000000001,"midi":81,"time":30.119999999999997,"velocity":0.3779527559055118},{"duration":0.240000000000002,"midi":65,"time":30.24,"velocity":0.33070866141732286},{"duration":0.240000000000002,"midi":58,"time":30.24,"velocity":0.33070866141732286},{"duration":0.240000000000002,"midi":79,"time":30.24,"velocity":0.3779527559055118},{"duration":0.240000000000002,"midi":58,"time":30.24,"velocity":0.33070866141732286},{"duration":0.240000000000002,"midi":70,"time":30.24,"velocity":0.23622047244094488},{"duration":0.240000000000002,"midi":46,"time":30.24,"velocity":0.33070866141732286},{"duration":0.240000000000002,"midi":58,"time":30.24,"velocity":0.23622047244094488},{"duration":0.240000000000002,"midi":53,"time":30.24,"velocity":0.33070866141732286},{"duration":0.240000000000002,"midi":65,"time":30.24,"velocity":0.23622047244094488},{"duration":0.240000000000002,"midi":70,"time":30.24,"velocity":0.33070866141732286},{"duration":0.23999999999999844,"midi":48,"time":30.48,"velocity":0.33070866141732286},{"duration":0.23999999999999844,"midi":55,"time":30.48,"velocity":0.33070866141732286},{"duration":0.23999999999999844,"midi":72,"time":30.48,"velocity":0.33070866141732286},{"duration":0.23999999999999844,"midi":72,"time":30.48,"velocity":0.23622047244094488},{"duration":0.23999999999999844,"midi":67,"time":30.48,"velocity":0.33070866141732286},{"duration":0.23999999999999844,"midi":60,"time":30.48,"velocity":0.33070866141732286},{"duration":0.23999999999999844,"midi":60,"time":30.48,"velocity":0.23622047244094488},{"duration":0.23999999999999844,"midi":81,"time":30.48,"velocity":0.3779527559055118},{"duration":0.23999999999999844,"midi":67,"time":30.48,"velocity":0.23622047244094488},{"duration":0.23999999999999844,"midi":60,"time":30.48,"velocity":0.33070866141732286},{"duration":0.23999999999999844,"midi":58,"time":30.72,"velocity":0.23622047244094488},{"duration":0.6000000000000014,"midi":58,"time":30.72,"velocity":0.30708661417322836},{"duration":0.23999999999999844,"midi":70,"time":30.72,"velocity":0.23622047244094488},{"duration":0.7199999999999989,"midi":55,"time":30.72,"velocity":0.33858267716535434},{"duration":0.23999999999999844,"midi":67,"time":30.72,"velocity":0.30708661417322836},{"duration":0.7199999999999989,"midi":55,"time":30.72,"velocity":0.30708661417322836},{"duration":0.7199999999999989,"midi":46,"time":30.72,"velocity":0.30708661417322836},{"duration":0.7199999999999989,"midi":43,"time":30.72,"velocity":0.33858267716535434},{"duration":0.6000000000000014,"midi":67,"time":30.72,"velocity":0.23622047244094488},{"duration":0.7199999999999989,"midi":65,"time":30.72,"velocity":0.3543307086614173},{"duration":0.240000000000002,"midi":70,"time":31.08,"velocity":0.23622047244094488},{"duration":0.35999999999999943,"midi":58,"time":31.08,"velocity":0.23622047244094488},{"duration":0.35999999999999943,"midi":67,"time":31.08,"velocity":0.23622047244094488},{"duration":0.240000000000002,"midi":48,"time":31.439999999999998,"velocity":0.28346456692913385},{"duration":0.240000000000002,"midi":60,"time":31.439999999999998,"velocity":0.28346456692913385},{"duration":0.240000000000002,"midi":48,"time":31.439999999999998,"velocity":0.28346456692913385},{"duration":0.240000000000002,"midi":57,"time":31.439999999999998,"velocity":0.28346456692913385},{"duration":0.240000000000002,"midi":69,"time":31.439999999999998,"velocity":0.28346456692913385},{"duration":0.240000000000002,"midi":60,"time":31.439999999999998,"velocity":0.28346456692913385},{"duration":0.240000000000002,"midi":69,"time":31.439999999999998,"velocity":0.3543307086614173},{"duration":0.7199999999999989,"midi":55,"time":31.68,"velocity":0.30708661417322836},{"duration":0.23999999999999844,"midi":67,"time":31.68,"velocity":0.23622047244094488},{"duration":0.7199999999999989,"midi":43,"time":31.68,"velocity":0.33858267716535434},{"duration":0.6000000000000014,"midi":67,"time":31.68,"velocity":0.30708661417322836},{"duration":0.7199999999999989,"midi":46,"time":31.68,"velocity":0.30708661417322836},{"duration":0.23999999999999844,"midi":58,"time":31.68,"velocity":0.23622047244094488},{"duration":0.6000000000000014,"midi":58,"time":31.68,"velocity":0.30708661417322836},{"duration":0.23999999999999844,"midi":70,"time":31.68,"velocity":0.23622047244094488},{"duration":0.7199999999999989,"midi":65,"time":31.68,"velocity":0.3543307086614173},{"duration":0.7199999999999989,"midi":55,"time":31.68,"velocity":0.33858267716535434},{"duration":0.240000000000002,"midi":70,"time":32.04,"velocity":0.23622047244094488},{"duration":0.35999999999999943,"midi":67,"time":32.04,"velocity":0.23622047244094488},{"duration":0.35999999999999943,"midi":58,"time":32.04,"velocity":0.23622047244094488},{"duration":0.240000000000002,"midi":48,"time":32.4,"velocity":0.28346456692913385},{"duration":0.240000000000002,"midi":57,"time":32.4,"velocity":0.30708661417322836},{"duration":0.240000000000002,"midi":60,"time":32.4,"velocity":0.30708661417322836},{"duration":0.240000000000002,"midi":60,"time":32.4,"velocity":0.28346456692913385},{"duration":0.240000000000002,"midi":48,"time":32.4,"velocity":0.30708661417322836},{"duration":0.240000000000002,"midi":69,"time":32.4,"velocity":0.30708661417322836},{"duration":0.240000000000002,"midi":69,"time":32.4,"velocity":0.3543307086614173},{"duration":0.7199999999999989,"midi":55,"time":32.64,"velocity":0.33858267716535434},{"duration":0.7199999999999989,"midi":65,"time":32.64,"velocity":0.3543307086614173},{"duration":0.7199999999999989,"midi":46,"time":32.64,"velocity":0.30708661417322836},{"duration":0.7199999999999989,"midi":55,"time":32.64,"velocity":0.30708661417322836},{"duration":0.23999999999999488,"midi":70,"time":32.64,"velocity":0.23622047244094488},{"duration":0.23999999999999488,"midi":58,"time":32.64,"velocity":0.23622047244094488},{"duration":0.6000000000000014,"midi":58,"time":32.64,"velocity":0.30708661417322836},{"duration":0.23999999999999488,"midi":67,"time":32.64,"velocity":0.30708661417322836},{"duration":0.7199999999999989,"midi":43,"time":32.64,"velocity":0.33858267716535434},{"duration":0.6000000000000014,"midi":67,"time":32.64,"velocity":0.23622047244094488},{"duration":0.35999999999999943,"midi":58,"time":33,"velocity":0.23622047244094488},{"duration":0.35999999999999943,"midi":67,"time":33,"velocity":0.23622047244094488},{"duration":0.240000000000002,"midi":70,"time":33,"velocity":0.23622047244094488},{"duration":0.240000000000002,"midi":57,"time":33.36,"velocity":0.28346456692913385},{"duration":0.240000000000002,"midi":60,"time":33.36,"velocity":0.28346456692913385},{"duration":0.240000000000002,"midi":69,"time":33.36,"velocity":0.28346456692913385},{"duration":0.240000000000002,"midi":48,"time":33.36,"velocity":0.28346456692913385},{"duration":0.240000000000002,"midi":48,"time":33.36,"velocity":0.28346456692913385},{"duration":0.240000000000002,"midi":60,"time":33.36,"velocity":0.28346456692913385},{"duration":0.240000000000002,"midi":69,"time":33.36,"velocity":0.3543307086614173},{"duration":0.23999999999999488,"midi":62,"time":33.6,"velocity":0.23622047244094488},{"duration":0.23999999999999488,"midi":70,"time":33.6,"velocity":0.23622047244094488},{"duration":0.23999999999999488,"midi":62,"time":33.6,"velocity":0.33858267716535434},{"duration":0.23999999999999488,"midi":50,"time":33.6,"velocity":0.33858267716535434},{"duration":0.23999999999999488,"midi":74,"time":33.6,"velocity":0.23622047244094488},{"duration":0.23999999999999488,"midi":62,"time":33.6,"velocity":0.33858267716535434},{"duration":0.23999999999999488,"midi":58,"time":33.6,"velocity":0.25196850393700787},{"duration":0.23999999999999488,"midi":70,"time":33.6,"velocity":0.25196850393700787},{"duration":0.23999999999999488,"midi":74,"time":33.6,"velocity":0.33858267716535434},{"duration":0.240000000000002,"midi":67,"time":33.839999999999996,"velocity":0.33858267716535434},{"duration":0.240000000000002,"midi":48,"time":33.839999999999996,"velocity":0.33858267716535434},{"duration":0.240000000000002,"midi":55,"time":33.839999999999996,"velocity":0.33858267716535434},{"duration":0.240000000000002,"midi":72,"time":33.839999999999996,"velocity":0.33858267716535434},{"duration":0.240000000000002,"midi":72,"time":33.839999999999996,"velocity":0.23622047244094488},{"duration":0.240000000000002,"midi":60,"time":33.839999999999996,"velocity":0.33858267716535434},{"duration":0.240000000000002,"midi":60,"time":33.839999999999996,"velocity":0.23622047244094488},{"duration":0.240000000000002,"midi":60,"time":33.839999999999996,"velocity":0.33858267716535434},{"duration":0.240000000000002,"midi":67,"time":33.839999999999996,"velocity":0.23622047244094488},{"duration":0.240000000000002,"midi":70,"time":34.08,"velocity":0.33858267716535434},{"duration":0.240000000000002,"midi":58,"time":34.08,"velocity":0.23622047244094488},{"duration":0.240000000000002,"midi":53,"time":34.08,"velocity":0.33858267716535434},{"duration":0.240000000000002,"midi":58,"time":34.08,"velocity":0.33858267716535434},{"duration":0.240000000000002,"midi":70,"time":34.08,"velocity":0.23622047244094488},{"duration":0.240000000000002,"midi":65,"time":34.08,"velocity":0.33858267716535434},{"duration":0.240000000000002,"midi":58,"time":34.08,"velocity":0.33858267716535434},{"duration":0.240000000000002,"midi":65,"time":34.08,"velocity":0.23622047244094488},{"duration":0.240000000000002,"midi":46,"time":34.08,"velocity":0.33858267716535434},{"duration":0.11999999999999744,"midi":74,"time":34.08,"velocity":0.31496062992125984},{"duration":0.11999999999999744,"midi":75,"time":34.32,"velocity":0.2755905511811024},{"duration":0.240000000000002,"midi":60,"time":34.32,"velocity":0.33858267716535434},{"duration":0.240000000000002,"midi":55,"time":34.32,"velocity":0.33858267716535434},{"duration":0.240000000000002,"midi":60,"time":34.32,"velocity":0.23622047244094488},{"duration":0.240000000000002,"midi":48,"time":34.32,"velocity":0.33858267716535434},{"duration":0.240000000000002,"midi":72,"time":34.32,"velocity":0.23622047244094488},{"duration":0.240000000000002,"midi":72,"time":34.32,"velocity":0.33858267716535434},{"duration":0.240000000000002,"midi":60,"time":34.32,"velocity":0.33858267716535434},{"duration":0.240000000000002,"midi":67,"time":34.32,"velocity":0.23622047244094488},{"duration":0.240000000000002,"midi":67,"time":34.32,"velocity":0.33858267716535434},{"duration":0.7199999999999989,"midi":55,"time":34.56,"velocity":0.33858267716535434},{"duration":0.23999999999999488,"midi":58,"time":34.56,"velocity":0.23622047244094488},{"duration":0.4799999999999969,"midi":65,"time":34.56,"velocity":0.36220472440944884},{"duration":0.23999999999999488,"midi":67,"time":34.56,"velocity":0.23622047244094488},{"duration":0.7199999999999989,"midi":46,"time":34.56,"velocity":0.30708661417322836},{"duration":0.4799999999999969,"midi":77,"time":34.56,"velocity":0.2204724409448819},{"duration":0.5999999999999943,"midi":67,"time":34.56,"velocity":0.30708661417322836},{"duration":0.7199999999999989,"midi":43,"time":34.56,"velocity":0.33858267716535434},{"duration":0.23999999999999488,"midi":70,"time":34.56,"velocity":0.23622047244094488},{"duration":0.7199999999999989,"midi":55,"time":34.56,"velocity":0.30708661417322836},{"duration":0.5999999999999943,"midi":58,"time":34.56,"velocity":0.30708661417322836},{"duration":0.35999999999999943,"midi":67,"time":34.92,"velocity":0.23622047244094488},{"duration":0.35999999999999943,"midi":58,"time":34.92,"velocity":0.23622047244094488},{"duration":0.23999999999999488,"midi":70,"time":34.92,"velocity":0.23622047244094488},{"duration":0.12000000000000455,"midi":67,"time":35.16,"velocity":0.3228346456692913},{"duration":0.11999999999999744,"midi":68,"time":35.22,"velocity":0.33858267716535434},{"duration":0.23999999999999488,"midi":69,"time":35.28,"velocity":0.3543307086614173},{"duration":0.23999999999999488,"midi":57,"time":35.28,"velocity":0.28346456692913385},{"duration":0.23999999999999488,"midi":69,"time":35.28,"velocity":0.28346456692913385},{"duration":0.23999999999999488,"midi":48,"time":35.28,"velocity":0.28346456692913385},{"duration":0.23999999999999488,"midi":60,"time":35.28,"velocity":0.28346456692913385},{"duration":0.23999999999999488,"midi":48,"time":35.28,"velocity":0.28346456692913385},{"duration":0.23999999999999488,"midi":60,"time":35.28,"velocity":0.28346456692913385},{"duration":0.720000000000006,"midi":55,"time":35.519999999999996,"velocity":0.33858267716535434},{"duration":0.240000000000002,"midi":70,"time":35.519999999999996,"velocity":0.23622047244094488},{"duration":0.240000000000002,"midi":67,"time":35.519999999999996,"velocity":0.23622047244094488},{"duration":0.240000000000002,"midi":58,"time":35.519999999999996,"velocity":0.30708661417322836},{"duration":0.720000000000006,"midi":46,"time":35.519999999999996,"velocity":0.30708661417322836},{"duration":0.6000000000000014,"midi":67,"time":35.519999999999996,"velocity":0.30708661417322836},{"duration":0.6000000000000014,"midi":58,"time":35.519999999999996,"velocity":0.23622047244094488},{"duration":0.6000000000000014,"midi":65,"time":35.519999999999996,"velocity":0.36220472440944884},{"duration":0.720000000000006,"midi":55,"time":35.519999999999996,"velocity":0.30708661417322836},{"duration":0.720000000000006,"midi":43,"time":35.519999999999996,"velocity":0.33858267716535434},{"duration":0.240000000000002,"midi":70,"time":35.879999999999995,"velocity":0.23622047244094488},{"duration":0.36000000000000654,"midi":67,"time":35.879999999999995,"velocity":0.23622047244094488},{"duration":0.36000000000000654,"midi":58,"time":35.879999999999995,"velocity":0.23622047244094488},{"duration":0.11999999999999744,"midi":68,"time":36.18,"velocity":0.3543307086614173},{"duration":0.23999999999999488,"midi":60,"time":36.24,"velocity":0.30708661417322836},{"duration":0.23999999999999488,"midi":60,"time":36.24,"velocity":0.28346456692913385},{"duration":0.23999999999999488,"midi":48,"time":36.24,"velocity":0.30708661417322836},{"duration":0.23999999999999488,"midi":57,"time":36.24,"velocity":0.30708661417322836},{"duration":0.23999999999999488,"midi":69,"time":36.24,"velocity":0.30708661417322836},{"duration":0.23999999999999488,"midi":48,"time":36.24,"velocity":0.28346456692913385},{"duration":0.23999999999999488,"midi":69,"time":36.24,"velocity":0.3543307086614173},{"duration":0.240000000000002,"midi":67,"time":36.48,"velocity":0.30708661417322836},{"duration":0.6000000000000014,"midi":67,"time":36.48,"velocity":0.23622047244094488},{"duration":0.240000000000002,"midi":70,"time":36.48,"velocity":0.23622047244094488},{"duration":0.7199999999999989,"midi":55,"time":36.48,"velocity":0.33858267716535434},{"duration":0.7199999999999989,"midi":55,"time":36.48,"velocity":0.30708661417322836},{"duration":0.240000000000002,"midi":58,"time":36.48,"velocity":0.30708661417322836},{"duration":0.7199999999999989,"midi":46,"time":36.48,"velocity":0.30708661417322836},{"duration":0.7199999999999989,"midi":65,"time":36.48,"velocity":0.36220472440944884},{"duration":0.6000000000000014,"midi":58,"time":36.48,"velocity":0.23622047244094488},{"duration":0.7199999999999989,"midi":43,"time":36.48,"velocity":0.33858267716535434},{"duration":0.35999999999999943,"midi":58,"time":36.839999999999996,"velocity":0.23622047244094488},{"duration":0.240000000000002,"midi":70,"time":36.839999999999996,"velocity":0.23622047244094488},{"duration":0.35999999999999943,"midi":67,"time":36.839999999999996,"velocity":0.23622047244094488},{"duration":0.240000000000002,"midi":57,"time":37.199999999999996,"velocity":0.28346456692913385},{"duration":0.240000000000002,"midi":69,"time":37.199999999999996,"velocity":0.28346456692913385},{"duration":0.240000000000002,"midi":60,"time":37.199999999999996,"velocity":0.28346456692913385},{"duration":0.240000000000002,"midi":48,"time":37.199999999999996,"velocity":0.28346456692913385},{"duration":0.240000000000002,"midi":69,"time":37.199999999999996,"velocity":0.3543307086614173},{"duration":0.240000000000002,"midi":60,"time":37.199999999999996,"velocity":0.28346456692913385},{"duration":0.240000000000002,"midi":48,"time":37.199999999999996,"velocity":0.28346456692913385},{"duration":0.240000000000002,"midi":62,"time":37.44,"velocity":0.33858267716535434},{"duration":0.240000000000002,"midi":58,"time":37.44,"velocity":0.25196850393700787},{"duration":0.240000000000002,"midi":70,"time":37.44,"velocity":0.23622047244094488},{"duration":0.240000000000002,"midi":70,"time":37.44,"velocity":0.25196850393700787},{"duration":0.240000000000002,"midi":74,"time":37.44,"velocity":0.23622047244094488},{"duration":0.240000000000002,"midi":62,"time":37.44,"velocity":0.33858267716535434},{"duration":0.240000000000002,"midi":74,"time":37.44,"velocity":0.33858267716535434},{"duration":0.11999999999999744,"midi":82,"time":37.44,"velocity":0.3779527559055118},{"duration":0.240000000000002,"midi":50,"time":37.44,"velocity":0.33858267716535434},{"duration":0.240000000000002,"midi":62,"time":37.44,"velocity":0.23622047244094488},{"duration":0.240000000000002,"midi":60,"time":37.68,"velocity":0.33858267716535434},{"duration":0.240000000000002,"midi":72,"time":37.68,"velocity":0.33858267716535434},{"duration":0.11999999999999744,"midi":81,"time":37.68,"velocity":0.3779527559055118},{"duration":0.240000000000002,"midi":48,"time":37.68,"velocity":0.33858267716535434},{"duration":0.240000000000002,"midi":72,"time":37.68,"velocity":0.23622047244094488},{"duration":0.240000000000002,"midi":67,"time":37.68,"velocity":0.23622047244094488},{"duration":0.240000000000002,"midi":60,"time":37.68,"velocity":0.23622047244094488},{"duration":0.240000000000002,"midi":67,"time":37.68,"velocity":0.33858267716535434},{"duration":0.240000000000002,"midi":60,"time":37.68,"velocity":0.33858267716535434},{"duration":0.240000000000002,"midi":55,"time":37.68,"velocity":0.33858267716535434},{"duration":0.11999999999999744,"midi":82,"time":37.74,"velocity":0.3779527559055118},{"duration":0.12000000000000455,"midi":81,"time":37.8,"velocity":0.3779527559055118},{"duration":0.23999999999999488,"midi":53,"time":37.92,"velocity":0.33858267716535434},{"duration":0.23999999999999488,"midi":79,"time":37.92,"velocity":0.3779527559055118},{"duration":0.23999999999999488,"midi":58,"time":37.92,"velocity":0.23622047244094488},{"duration":0.23999999999999488,"midi":65,"time":37.92,"velocity":0.23622047244094488},{"duration":0.23999999999999488,"midi":58,"time":37.92,"velocity":0.33858267716535434},{"duration":0.23999999999999488,"midi":70,"time":37.92,"velocity":0.33858267716535434},{"duration":0.23999999999999488,"midi":70,"time":37.92,"velocity":0.23622047244094488},{"duration":0.23999999999999488,"midi":65,"time":37.92,"velocity":0.33858267716535434},{"duration":0.23999999999999488,"midi":58,"time":37.92,"velocity":0.33858267716535434},{"duration":0.23999999999999488,"midi":46,"time":37.92,"velocity":0.33858267716535434},{"duration":0.240000000000002,"midi":67,"time":38.16,"velocity":0.33858267716535434},{"duration":0.240000000000002,"midi":60,"time":38.16,"velocity":0.33858267716535434},{"duration":0.240000000000002,"midi":81,"time":38.16,"velocity":0.3779527559055118},{"duration":0.240000000000002,"midi":72,"time":38.16,"velocity":0.33858267716535434},{"duration":0.240000000000002,"midi":72,"time":38.16,"velocity":0.23622047244094488},{"duration":0.240000000000002,"midi":60,"time":38.16,"velocity":0.23622047244094488},{"duration":0.240000000000002,"midi":60,"time":38.16,"velocity":0.33858267716535434},{"duration":0.240000000000002,"midi":55,"time":38.16,"velocity":0.33858267716535434},{"duration":0.240000000000002,"midi":67,"time":38.16,"velocity":0.23622047244094488},{"duration":0.240000000000002,"midi":48,"time":38.16,"velocity":0.33858267716535434},{"duration":0.240000000000002,"midi":70,"time":38.4,"velocity":0.23622047244094488},{"duration":0.7199999999999989,"midi":39,"time":38.4,"velocity":0.25196850393700787},{"duration":0.240000000000002,"midi":58,"time":38.4,"velocity":0.2992125984251969},{"duration":0.7199999999999989,"midi":51,"time":38.4,"velocity":0.25196850393700787},{"duration":0.7199999999999989,"midi":51,"time":38.4,"velocity":0.25196850393700787},{"duration":0.7199999999999989,"midi":46,"time":38.4,"velocity":0.25196850393700787},{"duration":0.6000000000000014,"midi":58,"time":38.4,"velocity":0.25196850393700787},{"duration":0.240000000000002,"midi":63,"time":38.4,"velocity":0.25196850393700787},{"duration":0.7199999999999989,"midi":58,"time":38.4,"velocity":0.23622047244094488},{"duration":0.6000000000000014,"midi":70,"time":38.4,"velocity":0.2992125984251969},{"duration":0.7199999999999989,"midi":82,"time":38.4,"velocity":0.3779527559055118},{"duration":0.6000000000000014,"midi":63,"time":38.4,"velocity":0.23622047244094488},{"duration":0.35999999999999943,"midi":58,"time":38.76,"velocity":0.23622047244094488},{"duration":0.35999999999999943,"midi":63,"time":38.76,"velocity":0.23622047244094488},{"duration":0.35999999999999943,"midi":70,"time":38.76,"velocity":0.23622047244094488},{"duration":0.12000000000000455,"midi":80,"time":39.059999999999995,"velocity":0.3779527559055118},{"duration":0.240000000000002,"midi":57,"time":39.12,"velocity":0.25196850393700787},{"duration":0.240000000000002,"midi":69,"time":39.12,"velocity":0.25196850393700787},{"duration":0.240000000000002,"midi":50,"time":39.12,"velocity":0.25196850393700787},{"duration":0.240000000000002,"midi":45,"time":39.12,"velocity":0.25196850393700787},{"duration":0.240000000000002,"midi":57,"time":39.12,"velocity":0.25196850393700787},{"duration":0.240000000000002,"midi":62,"time":39.12,"velocity":0.25196850393700787},{"duration":0.240000000000002,"midi":81,"time":39.12,"velocity":0.3779527559055118},{"duration":0.240000000000002,"midi":38,"time":39.12,"velocity":0.25196850393700787},{"duration":0.240000000000002,"midi":50,"time":39.12,"velocity":0.25196850393700787},{"duration":0.240000000000002,"midi":58,"time":39.36,"velocity":0.25196850393700787},{"duration":0.240000000000002,"midi":63,"time":39.36,"velocity":0.25196850393700787},{"duration":0.6000000000000014,"midi":63,"time":39.36,"velocity":0.23622047244094488},{"duration":0.7199999999999989,"midi":39,"time":39.36,"velocity":0.25196850393700787},{"duration":0.240000000000002,"midi":70,"time":39.36,"velocity":0.3779527559055118},{"duration":0.6000000000000014,"midi":58,"time":39.36,"velocity":0.23622047244094488},{"duration":0.6000000000000014,"midi":70,"time":39.36,"velocity":0.29133858267716534},{"duration":0.7199999999999989,"midi":46,"time":39.36,"velocity":0.25196850393700787},{"duration":0.7199999999999989,"midi":77,"time":39.36,"velocity":0.3779527559055118},{"duration":0.7199999999999989,"midi":70,"time":39.36,"velocity":0.23622047244094488},{"duration":0.7199999999999989,"midi":58,"time":39.36,"velocity":0.29133858267716534},{"duration":0.7199999999999989,"midi":51,"time":39.36,"velocity":0.25196850393700787},{"duration":0.7199999999999989,"midi":51,"time":39.36,"velocity":0.25196850393700787},{"duration":0.35999999999999943,"midi":58,"time":39.72,"velocity":0.23622047244094488},{"duration":0.35999999999999943,"midi":63,"time":39.72,"velocity":0.23622047244094488},{"duration":0.35999999999999943,"midi":70,"time":39.72,"velocity":0.23622047244094488},{"duration":0.240000000000002,"midi":57,"time":40.08,"velocity":0.25196850393700787},{"duration":0.240000000000002,"midi":45,"time":40.08,"velocity":0.25196850393700787},{"duration":0.240000000000002,"midi":57,"time":40.08,"velocity":0.25196850393700787},{"duration":0.240000000000002,"midi":62,"time":40.08,"velocity":0.25196850393700787},{"duration":0.240000000000002,"midi":69,"time":40.08,"velocity":0.25196850393700787},{"duration":0.240000000000002,"midi":50,"time":40.08,"velocity":0.25196850393700787},{"duration":0.240000000000002,"midi":38,"time":40.08,"velocity":0.25196850393700787},{"duration":0.240000000000002,"midi":50,"time":40.08,"velocity":0.25196850393700787},{"duration":0.240000000000002,"midi":75,"time":40.08,"velocity":0.3779527559055118},{"duration":0.7199999999999989,"midi":46,"time":40.32,"velocity":0.25196850393700787},{"duration":0.7199999999999989,"midi":74,"time":40.32,"velocity":0.3779527559055118},{"duration":0.23999999999999488,"midi":58,"time":40.32,"velocity":0.25196850393700787},{"duration":0.23999999999999488,"midi":70,"time":40.32,"velocity":0.23622047244094488},{"duration":0.6000000000000014,"midi":58,"time":40.32,"velocity":0.23622047244094488},{"duration":0.7199999999999989,"midi":51,"time":40.32,"velocity":0.25196850393700787},{"duration":0.23999999999999488,"midi":63,"time":40.32,"velocity":0.23622047244094488},{"duration":0.7199999999999989,"midi":58,"time":40.32,"velocity":0.29133858267716534},{"duration":0.6000000000000014,"midi":70,"time":40.32,"velocity":0.3779527559055118},{"duration":0.6000000000000014,"midi":63,"time":40.32,"velocity":0.25196850393700787},{"duration":0.7199999999999989,"midi":51,"time":40.32,"velocity":0.25196850393700787},{"duration":0.7199999999999989,"midi":39,"time":40.32,"velocity":0.25196850393700787},{"duration":0.7199999999999989,"midi":70,"time":40.32,"velocity":0.29133858267716534},{"duration":0.35999999999999943,"midi":70,"time":40.68,"velocity":0.23622047244094488},{"duration":0.35999999999999943,"midi":58,"time":40.68,"velocity":0.23622047244094488},{"duration":0.35999999999999943,"midi":63,"time":40.68,"velocity":0.23622047244094488},{"duration":0.240000000000002,"midi":45,"time":41.04,"velocity":0.25196850393700787},{"duration":0.240000000000002,"midi":72,"time":41.04,"velocity":0.3779527559055118},{"duration":0.240000000000002,"midi":50,"time":41.04,"velocity":0.25196850393700787},{"duration":0.240000000000002,"midi":57,"time":41.04,"velocity":0.25196850393700787},{"duration":0.240000000000002,"midi":57,"time":41.04,"velocity":0.25196850393700787},{"duration":0.240000000000002,"midi":69,"time":41.04,"velocity":0.25196850393700787},{"duration":0.240000000000002,"midi":38,"time":41.04,"velocity":0.25196850393700787},{"duration":0.240000000000002,"midi":62,"time":41.04,"velocity":0.25196850393700787},{"duration":0.240000000000002,"midi":50,"time":41.04,"velocity":0.25196850393700787},{"duration":0.23999999999999488,"midi":50,"time":41.28,"velocity":0.33070866141732286},{"duration":0.23999999999999488,"midi":70,"time":41.28,"velocity":0.3779527559055118},{"duration":0.23999999999999488,"midi":70,"time":41.28,"velocity":0.23622047244094488},{"duration":0.23999999999999488,"midi":62,"time":41.28,"velocity":0.23622047244094488},{"duration":0.23999999999999488,"midi":58,"time":41.28,"velocity":0.25196850393700787},{"duration":0.23999999999999488,"midi":70,"time":41.28,"velocity":0.30708661417322836},{"duration":0.23999999999999488,"midi":46,"time":41.28,"velocity":0.25196850393700787},{"duration":0.23999999999999488,"midi":74,"time":41.28,"velocity":0.33070866141732286},{"duration":0.23999999999999488,"midi":58,"time":41.28,"velocity":0.30708661417322836},{"duration":0.23999999999999488,"midi":62,"time":41.28,"velocity":0.33070866141732286},{"duration":0.23999999999999488,"midi":62,"time":41.28,"velocity":0.33070866141732286},{"duration":0.23999999999999488,"midi":74,"time":41.28,"velocity":0.23622047244094488},{"duration":0.240000000000002,"midi":60,"time":41.519999999999996,"velocity":0.33070866141732286},{"duration":0.240000000000002,"midi":55,"time":41.519999999999996,"velocity":0.33070866141732286},{"duration":0.240000000000002,"midi":60,"time":41.519999999999996,"velocity":0.23622047244094488},{"duration":0.240000000000002,"midi":72,"time":41.519999999999996,"velocity":0.33070866141732286},{"duration":0.240000000000002,"midi":67,"time":41.519999999999996,"velocity":0.33070866141732286},{"duration":0.240000000000002,"midi":72,"time":41.519999999999996,"velocity":0.23622047244094488},{"duration":0.240000000000002,"midi":60,"time":41.519999999999996,"velocity":0.33070866141732286},{"duration":0.240000000000002,"midi":48,"time":41.519999999999996,"velocity":0.33070866141732286},{"duration":0.240000000000002,"midi":67,"time":41.519999999999996,"velocity":0.23622047244094488},{"duration":0.240000000000002,"midi":72,"time":41.519999999999996,"velocity":0.3779527559055118},{"duration":0.240000000000002,"midi":65,"time":41.76,"velocity":0.23622047244094488},{"duration":0.240000000000002,"midi":53,"time":41.76,"velocity":0.33070866141732286},{"duration":0.240000000000002,"midi":46,"time":41.76,"velocity":0.33070866141732286},{"duration":0.240000000000002,"midi":70,"time":41.76,"velocity":0.33070866141732286},{"duration":0.240000000000002,"midi":58,"time":41.76,"velocity":0.33070866141732286},{"duration":0.240000000000002,"midi":74,"time":41.76,"velocity":0.3779527559055118},{"duration":0.240000000000002,"midi":65,"time":41.76,"velocity":0.33070866141732286},{"duration":0.240000000000002,"midi":70,"time":41.76,"velocity":0.23622047244094488},{"duration":0.240000000000002,"midi":58,"time":41.76,"velocity":0.33070866141732286},{"duration":0.23999999999999488,"midi":75,"time":42,"velocity":0.3779527559055118},{"duration":0.23999999999999488,"midi":72,"time":42,"velocity":0.33070866141732286},{"duration":0.23999999999999488,"midi":60,"time":42,"velocity":0.33070866141732286},{"duration":0.23999999999999488,"midi":67,"time":42,"velocity":0.33070866141732286},{"duration":0.23999999999999488,"midi":60,"time":42,"velocity":0.33070866141732286},{"duration":0.23999999999999488,"midi":48,"time":42,"velocity":0.33070866141732286},{"duration":0.23999999999999488,"midi":55,"time":42,"velocity":0.33070866141732286},{"duration":0.23999999999999488,"midi":72,"time":42,"velocity":0.23622047244094488},{"duration":0.23999999999999488,"midi":67,"time":42,"velocity":0.23622047244094488},{"duration":0.23999999999999488,"midi":60,"time":42,"velocity":0.23622047244094488},{"duration":0.720000000000006,"midi":51,"time":42.239999999999995,"velocity":0.25196850393700787},{"duration":0.720000000000006,"midi":46,"time":42.239999999999995,"velocity":0.25196850393700787},{"duration":0.240000000000002,"midi":58,"time":42.239999999999995,"velocity":0.2992125984251969},{"duration":0.6000000000000014,"midi":58,"time":42.239999999999995,"velocity":0.25196850393700787},{"duration":0.240000000000002,"midi":70,"time":42.239999999999995,"velocity":0.2992125984251969},{"duration":0.720000000000006,"midi":58,"time":42.239999999999995,"velocity":0.23622047244094488},{"duration":0.720000000000006,"midi":39,"time":42.239999999999995,"velocity":0.25196850393700787},{"duration":0.720000000000006,"midi":51,"time":42.239999999999995,"velocity":0.25196850393700787},{"duration":0.240000000000002,"midi":63,"time":42.239999999999995,"velocity":0.25196850393700787},{"duration":0.6000000000000014,"midi":70,"time":42.239999999999995,"velocity":0.23622047244094488},{"duration":0.720000000000006,"midi":77,"time":42.239999999999995,"velocity":0.3779527559055118},{"duration":0.720000000000006,"midi":70,"time":42.239999999999995,"velocity":0.3779527559055118},{"duration":0.6000000000000014,"midi":63,"time":42.239999999999995,"velocity":0.23622047244094488},{"duration":0.35999999999999943,"midi":58,"time":42.6,"velocity":0.23622047244094488},{"duration":0.35999999999999943,"midi":70,"time":42.6,"velocity":0.23622047244094488},{"duration":0.35999999999999943,"midi":63,"time":42.6,"velocity":0.23622047244094488},{"duration":0.23999999999999488,"midi":57,"time":42.96,"velocity":0.25196850393700787},{"duration":0.23999999999999488,"midi":57,"time":42.96,"velocity":0.25196850393700787},{"duration":0.23999999999999488,"midi":38,"time":42.96,"velocity":0.25196850393700787},{"duration":0.23999999999999488,"midi":62,"time":42.96,"velocity":0.25196850393700787},{"duration":0.23999999999999488,"midi":50,"time":42.96,"velocity":0.25196850393700787},{"duration":0.23999999999999488,"midi":50,"time":42.96,"velocity":0.25196850393700787},{"duration":0.23999999999999488,"midi":45,"time":42.96,"velocity":0.25196850393700787},{"duration":0.23999999999999488,"midi":69,"time":42.96,"velocity":0.25196850393700787},{"duration":0.720000000000006,"midi":51,"time":43.199999999999996,"velocity":0.25196850393700787},{"duration":0.720000000000006,"midi":51,"time":43.199999999999996,"velocity":0.25196850393700787},{"duration":0.720000000000006,"midi":39,"time":43.199999999999996,"velocity":0.25196850393700787},{"duration":0.240000000000002,"midi":58,"time":43.199999999999996,"velocity":0.23622047244094488},{"duration":0.240000000000002,"midi":70,"time":43.199999999999996,"velocity":0.29133858267716534},{"duration":0.240000000000002,"midi":63,"time":43.199999999999996,"velocity":0.25196850393700787},{"duration":0.6000000000000014,"midi":58,"time":43.199999999999996,"velocity":0.29133858267716534},{"duration":0.6000000000000014,"midi":70,"time":43.199999999999996,"velocity":0.23622047244094488},{"duration":0.6000000000000014,"midi":63,"time":43.199999999999996,"velocity":0.23622047244094488},{"duration":0.720000000000006,"midi":58,"time":43.199999999999996,"velocity":0.25196850393700787},{"duration":0.720000000000006,"midi":72,"time":43.199999999999996,"velocity":0.3779527559055118},{"duration":0.720000000000006,"midi":79,"time":43.199999999999996,"velocity":0.3779527559055118},{"duration":0.720000000000006,"midi":46,"time":43.199999999999996,"velocity":0.25196850393700787},{"duration":0.36000000000000654,"midi":63,"time":43.559999999999995,"velocity":0.23622047244094488},{"duration":0.36000000000000654,"midi":58,"time":43.559999999999995,"velocity":0.23622047244094488},{"duration":0.36000000000000654,"midi":70,"time":43.559999999999995,"velocity":0.23622047244094488},{"duration":0.23999999999999488,"midi":57,"time":43.92,"velocity":0.25196850393700787},{"duration":0.23999999999999488,"midi":50,"time":43.92,"velocity":0.25196850393700787},{"duration":0.23999999999999488,"midi":45,"time":43.92,"velocity":0.25196850393700787},{"duration":0.23999999999999488,"midi":38,"time":43.92,"velocity":0.25196850393700787},{"duration":0.23999999999999488,"midi":62,"time":43.92,"velocity":0.25196850393700787},{"duration":0.23999999999999488,"midi":57,"time":43.92,"velocity":0.25196850393700787},{"duration":0.23999999999999488,"midi":69,"time":43.92,"velocity":0.25196850393700787},{"duration":0.23999999999999488,"midi":50,"time":43.92,"velocity":0.25196850393700787},{"duration":0.7199999999999989,"midi":51,"time":44.16,"velocity":0.25196850393700787},{"duration":0.240000000000002,"midi":58,"time":44.16,"velocity":0.25196850393700787},{"duration":0.7199999999999989,"midi":81,"time":44.16,"velocity":0.3779527559055118},{"duration":0.240000000000002,"midi":70,"time":44.16,"velocity":0.23622047244094488},{"duration":0.6000000000000014,"midi":58,"time":44.16,"velocity":0.29133858267716534},{"duration":0.7199999999999989,"midi":51,"time":44.16,"velocity":0.25196850393700787},{"duration":0.6000000000000014,"midi":70,"time":44.16,"velocity":0.29133858267716534},{"duration":0.7199999999999989,"midi":46,"time":44.16,"velocity":0.25196850393700787},{"duration":0.7199999999999989,"midi":74,"time":44.16,"velocity":0.3779527559055118},{"duration":0.7199999999999989,"midi":39,"time":44.16,"velocity":0.25196850393700787},{"duration":0.240000000000002,"midi":63,"time":44.16,"velocity":0.23622047244094488},{"duration":0.6000000000000014,"midi":63,"time":44.16,"velocity":0.25196850393700787},{"duration":0.7199999999999989,"midi":58,"time":44.16,"velocity":0.23622047244094488},{"duration":0.35999999999999943,"midi":70,"time":44.519999999999996,"velocity":0.23622047244094488},{"duration":0.35999999999999943,"midi":58,"time":44.519999999999996,"velocity":0.23622047244094488},{"duration":0.35999999999999943,"midi":63,"time":44.519999999999996,"velocity":0.23622047244094488},{"duration":0.240000000000002,"midi":50,"time":44.879999999999995,"velocity":0.25196850393700787},{"duration":0.240000000000002,"midi":45,"time":44.879999999999995,"velocity":0.25196850393700787},{"duration":0.240000000000002,"midi":69,"time":44.879999999999995,"velocity":0.25196850393700787},{"duration":0.240000000000002,"midi":62,"time":44.879999999999995,"velocity":0.25196850393700787},{"duration":0.240000000000002,"midi":57,"time":44.879999999999995,"velocity":0.25196850393700787},{"duration":0.240000000000002,"midi":50,"time":44.879999999999995,"velocity":0.25196850393700787},{"duration":0.240000000000002,"midi":38,"time":44.879999999999995,"velocity":0.25196850393700787},{"duration":0.240000000000002,"midi":57,"time":44.879999999999995,"velocity":0.25196850393700787},{"duration":0.240000000000002,"midi":58,"time":45.12,"velocity":0.25196850393700787},{"duration":0.240000000000002,"midi":62,"time":45.12,"velocity":0.33070866141732286},{"duration":0.240000000000002,"midi":74,"time":45.12,"velocity":0.33070866141732286},{"duration":0.240000000000002,"midi":58,"time":45.12,"velocity":0.30708661417322836},{"duration":0.240000000000002,"midi":46,"time":45.12,"velocity":0.25196850393700787},{"duration":0.240000000000002,"midi":70,"time":45.12,"velocity":0.30708661417322836},{"duration":0.240000000000002,"midi":50,"time":45.12,"velocity":0.25196850393700787},{"duration":0.240000000000002,"midi":70,"time":45.12,"velocity":0.23622047244094488},{"duration":0.240000000000002,"midi":62,"time":45.12,"velocity":0.23622047244094488},{"duration":0.240000000000002,"midi":62,"time":45.12,"velocity":0.25196850393700787},{"duration":0.240000000000002,"midi":74,"time":45.12,"velocity":0.23622047244094488},{"duration":0.11999999999999744,"midi":82,"time":45.12,"velocity":0.3779527559055118},{"duration":0.240000000000002,"midi":72,"time":45.36,"velocity":0.33070866141732286},{"duration":0.240000000000002,"midi":60,"time":45.36,"velocity":0.23622047244094488},{"duration":0.240000000000002,"midi":55,"time":45.36,"velocity":0.33070866141732286},{"duration":0.240000000000002,"midi":67,"time":45.36,"velocity":0.33070866141732286},{"duration":0.240000000000002,"midi":67,"time":45.36,"velocity":0.23622047244094488},{"duration":0.240000000000002,"midi":60,"time":45.36,"velocity":0.33070866141732286},{"duration":0.11999999999999744,"midi":81,"time":45.36,"velocity":0.3779527559055118},{"duration":0.240000000000002,"midi":48,"time":45.36,"velocity":0.33070866141732286},{"duration":0.240000000000002,"midi":60,"time":45.36,"velocity":0.33070866141732286},{"duration":0.240000000000002,"midi":72,"time":45.36,"velocity":0.23622047244094488},{"duration":0.11999999999999744,"midi":82,"time":45.42,"velocity":0.3779527559055118},{"duration":0.12000000000000455,"midi":81,"time":45.48,"velocity":0.3779527559055118},{"duration":0.23999999999999488,"midi":70,"time":45.6,"velocity":0.23622047244094488},{"duration":0.23999999999999488,"midi":58,"time":45.6,"velocity":0.23622047244094488},{"duration":0.23999999999999488,"midi":58,"time":45.6,"velocity":0.33070866141732286},{"duration":0.23999999999999488,"midi":70,"time":45.6,"velocity":0.33070866141732286},{"duration":0.23999999999999488,"midi":65,"time":45.6,"velocity":0.33070866141732286},{"duration":0.23999999999999488,"midi":79,"time":45.6,"velocity":0.3779527559055118},{"duration":0.23999999999999488,"midi":58,"time":45.6,"velocity":0.33070866141732286},{"duration":0.23999999999999488,"midi":65,"time":45.6,"velocity":0.23622047244094488},{"duration":0.23999999999999488,"midi":53,"time":45.6,"velocity":0.33070866141732286},{"duration":0.23999999999999488,"midi":46,"time":45.6,"velocity":0.33070866141732286},{"duration":0.240000000000002,"midi":60,"time":45.839999999999996,"velocity":0.23622047244094488},{"duration":0.240000000000002,"midi":60,"time":45.839999999999996,"velocity":0.33070866141732286},{"duration":0.240000000000002,"midi":60,"time":45.839999999999996,"velocity":0.33070866141732286},{"duration":0.240000000000002,"midi":67,"time":45.839999999999996,"velocity":0.23622047244094488},{"duration":0.240000000000002,"midi":55,"time":45.839999999999996,"velocity":0.33070866141732286},{"duration":0.240000000000002,"midi":72,"time":45.839999999999996,"velocity":0.23622047244094488},{"duration":0.240000000000002,"midi":48,"time":45.839999999999996,"velocity":0.33070866141732286},{"duration":0.240000000000002,"midi":81,"time":45.839999999999996,"velocity":0.3779527559055118},{"duration":0.240000000000002,"midi":72,"time":45.839999999999996,"velocity":0.33070866141732286},{"duration":0.240000000000002,"midi":67,"time":45.839999999999996,"velocity":0.33070866141732286},{"duration":0.240000000000002,"midi":55,"time":46.08,"velocity":0.2755905511811024},{"duration":0.4799999999999969,"midi":75,"time":46.08,"velocity":0.3464566929133858},{"duration":1.9200000000000017,"midi":48,"time":46.08,"velocity":0.2755905511811024},{"duration":0.4799999999999969,"midi":82,"time":46.08,"velocity":0.3858267716535433},{"duration":1.9200000000000017,"midi":43,"time":46.08,"velocity":0.2755905511811024},{"duration":0.6000000000000014,"midi":55,"time":46.08,"velocity":0.1968503937007874},{"duration":0.240000000000002,"midi":60,"time":46.08,"velocity":0.1968503937007874},{"duration":0.240000000000002,"midi":67,"time":46.08,"velocity":0.1968503937007874},{"duration":0.6000000000000014,"midi":60,"time":46.08,"velocity":0.2755905511811024},{"duration":1.9200000000000017,"midi":36,"time":46.08,"velocity":0.2755905511811024},{"duration":1.9200000000000017,"midi":48,"time":46.08,"velocity":0.2755905511811024},{"duration":0.240000000000002,"midi":67,"time":46.44,"velocity":0.1968503937007874},{"duration":0.8400000000000034,"midi":60,"time":46.44,"velocity":0.1968503937007874},{"duration":0.8400000000000034,"midi":55,"time":46.44,"velocity":0.1968503937007874},{"duration":0.6000000000000014,"midi":60,"time":47.04,"velocity":0.1968503937007874},{"duration":0.240000000000002,"midi":67,"time":47.04,"velocity":0.1968503937007874},{"duration":0.6000000000000014,"midi":55,"time":47.04,"velocity":0.1968503937007874},{"duration":0.240000000000002,"midi":82,"time":47.04,"velocity":0.3858267716535433},{"duration":0.240000000000002,"midi":74,"time":47.04,"velocity":0.33070866141732286},{"duration":0.11999999999999744,"midi":72,"time":47.28,"velocity":0.33070866141732286},{"duration":0.11999999999999744,"midi":81,"time":47.28,"velocity":0.3858267716535433},{"duration":0.12000000000000455,"midi":74,"time":47.339999999999996,"velocity":0.33070866141732286},{"duration":0.12000000000000455,"midi":82,"time":47.339999999999996,"velocity":0.3858267716535433},{"duration":0.11999999999999744,"midi":72,"time":47.4,"velocity":0.33070866141732286},{"duration":0.6000000000000014,"midi":55,"time":47.4,"velocity":0.1968503937007874},{"duration":0.6000000000000014,"midi":60,"time":47.4,"velocity":0.1968503937007874},{"duration":0.11999999999999744,"midi":81,"time":47.4,"velocity":0.3858267716535433},{"duration":0.240000000000002,"midi":67,"time":47.4,"velocity":0.1968503937007874},{"duration":0.240000000000002,"midi":79,"time":47.519999999999996,"velocity":0.3858267716535433},{"duration":0.240000000000002,"midi":70,"time":47.519999999999996,"velocity":0.33070866141732286},{"duration":0.240000000000002,"midi":72,"time":47.76,"velocity":0.33070866141732286},{"duration":0.240000000000002,"midi":81,"time":47.76,"velocity":0.3858267716535433},{"duration":1.9200000000000017,"midi":50,"time":48,"velocity":0.2755905511811024},{"duration":0.23999999999999488,"midi":57,"time":48,"velocity":0.1968503937007874},{"duration":0.4799999999999969,"midi":82,"time":48,"velocity":0.3858267716535433},{"duration":0.23999999999999488,"midi":62,"time":48,"velocity":0.2755905511811024},{"duration":1.9200000000000017,"midi":50,"time":48,"velocity":0.2755905511811024},{"duration":0.4799999999999969,"midi":77,"time":48,"velocity":0.3228346456692913},{"duration":0.6000000000000014,"midi":57,"time":48,"velocity":0.2755905511811024},{"duration":1.9200000000000017,"midi":38,"time":48,"velocity":0.2755905511811024},{"duration":1.9200000000000017,"midi":45,"time":48,"velocity":0.2755905511811024},{"duration":0.4799999999999969,"midi":74,"time":48,"velocity":0.3228346456692913},{"duration":0.6000000000000014,"midi":62,"time":48,"velocity":0.1968503937007874},{"duration":0.23999999999999488,"midi":69,"time":48,"velocity":0.1968503937007874},{"duration":0.8399999999999963,"midi":62,"time":48.36,"velocity":0.1968503937007874},{"duration":0.240000000000002,"midi":69,"time":48.36,"velocity":0.1968503937007874},{"duration":0.8399999999999963,"midi":57,"time":48.36,"velocity":0.1968503937007874},{"duration":0.23999999999999488,"midi":74,"time":48.96,"velocity":0.3228346456692913},{"duration":0.5999999999999943,"midi":57,"time":48.96,"velocity":0.1968503937007874},{"duration":0.23999999999999488,"midi":82,"time":48.96,"velocity":0.3858267716535433},{"duration":0.5999999999999943,"midi":62,"time":48.96,"velocity":0.1968503937007874},{"duration":0.23999999999999488,"midi":77,"time":48.96,"velocity":0.3228346456692913},{"duration":0.23999999999999488,"midi":69,"time":48.96,"velocity":0.1968503937007874},{"duration":0.12000000000000455,"midi":81,"time":49.199999999999996,"velocity":0.3858267716535433},{"duration":0.12000000000000455,"midi":72,"time":49.199999999999996,"velocity":0.3858267716535433},{"duration":0.11999999999999744,"midi":82,"time":49.26,"velocity":0.3858267716535433},{"duration":0.11999999999999744,"midi":74,"time":49.26,"velocity":0.3858267716535433},{"duration":0.11999999999999744,"midi":81,"time":49.32,"velocity":0.3858267716535433},{"duration":0.23999999999999488,"midi":69,"time":49.32,"velocity":0.1968503937007874},{"duration":0.11999999999999744,"midi":72,"time":49.32,"velocity":0.3858267716535433},{"duration":0.6000000000000014,"midi":62,"time":49.32,"velocity":0.1968503937007874},{"duration":0.6000000000000014,"midi":57,"time":49.32,"velocity":0.1968503937007874},{"duration":0.240000000000002,"midi":79,"time":49.44,"velocity":0.3858267716535433},{"duration":0.240000000000002,"midi":70,"time":49.44,"velocity":0.3858267716535433},{"duration":0.240000000000002,"midi":81,"time":49.68,"velocity":0.3858267716535433},{"duration":0.240000000000002,"midi":72,"time":49.68,"velocity":0.3858267716535433},{"duration":0.23999999999999488,"midi":63,"time":49.92,"velocity":0.2755905511811024},{"duration":0.9599999999999937,"midi":51,"time":49.92,"velocity":0.2755905511811024},{"duration":0.23999999999999488,"midi":70,"time":49.92,"velocity":0.1968503937007874},{"duration":0.9599999999999937,"midi":39,"time":49.92,"velocity":0.2755905511811024},{"duration":0.9599999999999937,"midi":46,"time":49.92,"velocity":0.2755905511811024},{"duration":0.5999999999999943,"midi":63,"time":49.92,"velocity":0.1968503937007874},{"duration":0.23999999999999488,"midi":58,"time":49.92,"velocity":0.2755905511811024},{"duration":0.4799999999999969,"midi":74,"time":49.92,"velocity":0.3228346456692913},{"duration":0.5999999999999943,"midi":58,"time":49.92,"velocity":0.1968503937007874},{"duration":0.9599999999999937,"midi":51,"time":49.92,"velocity":0.2755905511811024},{"duration":0.4799999999999969,"midi":77,"time":49.92,"velocity":0.3543307086614173},{"duration":0.4799999999999969,"midi":82,"time":49.92,"velocity":0.3858267716535433},{"duration":0.5999999999999943,"midi":58,"time":50.28,"velocity":0.1968503937007874},{"duration":0.23999999999999488,"midi":70,"time":50.28,"velocity":0.1968503937007874},{"duration":0.5999999999999943,"midi":63,"time":50.28,"velocity":0.1968503937007874},{"duration":0.23999999999999488,"midi":81,"time":50.64,"velocity":0.3858267716535433},{"duration":0.240000000000002,"midi":60,"time":50.879999999999995,"velocity":0.1968503937007874},{"duration":0.6000000000000014,"midi":60,"time":50.879999999999995,"velocity":0.2755905511811024},{"duration":0.240000000000002,"midi":72,"time":50.879999999999995,"velocity":0.3464566929133858},{"duration":0.480000000000004,"midi":77,"time":50.879999999999995,"velocity":0.3858267716535433},{"duration":0.240000000000002,"midi":65,"time":50.879999999999995,"velocity":0.1968503937007874},{"duration":0.6000000000000014,"midi":65,"time":50.879999999999995,"velocity":0.2755905511811024},{"duration":0.9600000000000009,"midi":48,"time":50.879999999999995,"velocity":0.2755905511811024},{"duration":0.9600000000000009,"midi":41,"time":50.879999999999995,"velocity":0.2755905511811024},{"duration":0.9600000000000009,"midi":53,"time":50.879999999999995,"velocity":0.2755905511811024},{"duration":0.9600000000000009,"midi":53,"time":50.879999999999995,"velocity":0.2755905511811024},{"duration":0.480000000000004,"midi":72,"time":50.879999999999995,"velocity":0.1968503937007874},{"duration":0.240000000000002,"midi":72,"time":51.239999999999995,"velocity":0.1968503937007874},{"duration":0.6000000000000014,"midi":65,"time":51.239999999999995,"velocity":0.1968503937007874},{"duration":0.6000000000000014,"midi":60,"time":51.239999999999995,"velocity":0.1968503937007874},{"duration":0.11999999999999744,"midi":74,"time":51.54,"velocity":0.3858267716535433},{"duration":0.23999999999999488,"midi":69,"time":51.6,"velocity":0.2992125984251969},{"duration":0.23999999999999488,"midi":75,"time":51.6,"velocity":0.3858267716535433},{"duration":0.480000000000004,"midi":70,"time":51.839999999999996,"velocity":0.2992125984251969},{"duration":0.240000000000002,"midi":74,"time":51.839999999999996,"velocity":0.3858267716535433},{"duration":0.240000000000002,"midi":62,"time":51.839999999999996,"velocity":0.1968503937007874},{"duration":0.240000000000002,"midi":67,"time":51.839999999999996,"velocity":0.1968503937007874},{"duration":0.9600000000000009,"midi":43,"time":51.839999999999996,"velocity":0.2755905511811024},{"duration":0.9600000000000009,"midi":50,"time":51.839999999999996,"velocity":0.2755905511811024},{"duration":0.9600000000000009,"midi":55,"time":51.839999999999996,"velocity":0.2755905511811024},{"duration":0.480000000000004,"midi":74,"time":51.839999999999996,"velocity":0.1968503937007874},{"duration":0.6000000000000014,"midi":67,"time":51.839999999999996,"velocity":0.2755905511811024},{"duration":0.9600000000000009,"midi":55,"time":51.839999999999996,"velocity":0.2755905511811024},{"duration":0.6000000000000014,"midi":62,"time":51.839999999999996,"velocity":0.2755905511811024},{"duration":0.6000000000000014,"midi":67,"time":52.199999999999996,"velocity":0.1968503937007874},{"duration":0.6000000000000014,"midi":62,"time":52.199999999999996,"velocity":0.1968503937007874},{"duration":0.240000000000002,"midi":74,"time":52.199999999999996,"velocity":0.1968503937007874},{"duration":0.240000000000002,"midi":67,"time":52.559999999999995,"velocity":0.30708661417322836},{"duration":0.240000000000002,"midi":72,"time":52.559999999999995,"velocity":0.3858267716535433},{"duration":0.240000000000002,"midi":65,"time":52.8,"velocity":0.30708661417322836},{"duration":0.9600000000000009,"midi":41,"time":52.8,"velocity":0.2755905511811024},{"duration":0.240000000000002,"midi":60,"time":52.8,"velocity":0.28346456692913385},{"duration":0.240000000000002,"midi":70,"time":52.8,"velocity":0.3858267716535433},{"duration":0.9600000000000009,"midi":48,"time":52.8,"velocity":0.2755905511811024},{"duration":0.9600000000000009,"midi":53,"time":52.8,"velocity":0.28346456692913385},{"duration":0.240000000000002,"midi":65,"time":52.8,"velocity":0.1968503937007874},{"duration":0.6000000000000014,"midi":60,"time":52.8,"velocity":0.1968503937007874},{"duration":0.9600000000000009,"midi":53,"time":52.8,"velocity":0.2755905511811024},{"duration":0.6000000000000014,"midi":65,"time":52.8,"velocity":0.28346456692913385},{"duration":0.240000000000002,"midi":72,"time":52.8,"velocity":0.1968503937007874},{"duration":0.240000000000002,"midi":72,"time":53.04,"velocity":0.3858267716535433},{"duration":0.240000000000002,"midi":67,"time":53.04,"velocity":0.30708661417322836},{"duration":0.6000000000000014,"midi":65,"time":53.16,"velocity":0.1968503937007874},{"duration":0.240000000000002,"midi":72,"time":53.16,"velocity":0.1968503937007874},{"duration":0.6000000000000014,"midi":60,"time":53.16,"velocity":0.1968503937007874},{"duration":0.23999999999999488,"midi":74,"time":53.28,"velocity":0.3858267716535433},{"duration":0.23999999999999488,"midi":70,"time":53.28,"velocity":0.30708661417322836},{"duration":0.240000000000002,"midi":75,"time":53.519999999999996,"velocity":0.3858267716535433},{"duration":0.240000000000002,"midi":72,"time":53.519999999999996,"velocity":0.30708661417322836},{"duration":0.240000000000002,"midi":55,"time":53.76,"velocity":0.2755905511811024},{"duration":0.6000000000000014,"midi":55,"time":53.76,"velocity":0.1968503937007874},{"duration":0.240000000000002,"midi":67,"time":53.76,"velocity":0.1968503937007874},{"duration":0.240000000000002,"midi":60,"time":53.76,"velocity":0.1968503937007874},{"duration":1.9200000000000017,"midi":48,"time":53.76,"velocity":0.2755905511811024},{"duration":0.240000000000002,"midi":77,"time":53.76,"velocity":0.3858267716535433},{"duration":0.240000000000002,"midi":74,"time":53.76,"velocity":0.30708661417322836},{"duration":0.6000000000000014,"midi":60,"time":53.76,"velocity":0.2755905511811024},{"duration":1.9200000000000017,"midi":43,"time":53.76,"velocity":0.2755905511811024},{"duration":1.9200000000000017,"midi":48,"time":53.76,"velocity":0.2755905511811024},{"duration":1.9200000000000017,"midi":36,"time":53.76,"velocity":0.2755905511811024},{"duration":0.23999999999999488,"midi":74,"time":54,"velocity":0.30708661417322836},{"duration":0.23999999999999488,"midi":77,"time":54,"velocity":0.3858267716535433},{"duration":0.8400000000000034,"midi":55,"time":54.12,"velocity":0.1968503937007874},{"duration":0.240000000000002,"midi":67,"time":54.12,"velocity":0.1968503937007874},{"duration":0.8400000000000034,"midi":60,"time":54.12,"velocity":0.1968503937007874},{"duration":0.240000000000002,"midi":72,"time":54.239999999999995,"velocity":0.30708661417322836},{"duration":0.240000000000002,"midi":77,"time":54.239999999999995,"velocity":0.3858267716535433},{"duration":0.240000000000002,"midi":77,"time":54.48,"velocity":0.3858267716535433},{"duration":0.240000000000002,"midi":72,"time":54.48,"velocity":0.30708661417322836},{"duration":0.6000000000000014,"midi":60,"time":54.72,"velocity":0.1968503937007874},{"duration":0.4799999999999969,"midi":77,"time":54.72,"velocity":0.3858267716535433},{"duration":0.4799999999999969,"midi":70,"time":54.72,"velocity":0.30708661417322836},{"duration":0.6000000000000014,"midi":55,"time":54.72,"velocity":0.1968503937007874},{"duration":0.240000000000002,"midi":67,"time":54.72,"velocity":0.1968503937007874},{"duration":0.6000000000000014,"midi":60,"time":55.08,"velocity":0.1968503937007874},{"duration":0.240000000000002,"midi":67,"time":55.08,"velocity":0.1968503937007874},{"duration":0.6000000000000014,"midi":55,"time":55.08,"velocity":0.1968503937007874},{"duration":0.240000000000002,"midi":70,"time":55.199999999999996,"velocity":0.3858267716535433},{"duration":0.12000000000000455,"midi":73,"time":55.379999999999995,"velocity":0.3858267716535433},{"duration":0.240000000000002,"midi":74,"time":55.44,"velocity":0.3858267716535433},{"duration":1.9199999999999946,"midi":50,"time":55.68,"velocity":0.2755905511811024},{"duration":0.23999999999999488,"midi":69,"time":55.68,"velocity":0.30708661417322836},{"duration":1.9199999999999946,"midi":50,"time":55.68,"velocity":0.2755905511811024},{"duration":0.23999999999999488,"midi":72,"time":55.68,"velocity":0.3858267716535433},{"duration":0.23999999999999488,"midi":57,"time":55.68,"velocity":0.2755905511811024},{"duration":0.23999999999999488,"midi":62,"time":55.68,"velocity":0.1968503937007874},{"duration":0.6000000000000014,"midi":57,"time":55.68,"velocity":0.1968503937007874},{"duration":1.9199999999999946,"midi":45,"time":55.68,"velocity":0.2755905511811024},{"duration":0.23999999999999488,"midi":69,"time":55.68,"velocity":0.1968503937007874},{"duration":1.9199999999999946,"midi":38,"time":55.68,"velocity":0.2755905511811024},{"duration":0.6000000000000014,"midi":62,"time":55.68,"velocity":0.2755905511811024},{"duration":0.240000000000002,"midi":69,"time":55.919999999999995,"velocity":0.30708661417322836},{"duration":0.240000000000002,"midi":72,"time":55.919999999999995,"velocity":0.3858267716535433},{"duration":0.8399999999999963,"midi":62,"time":56.04,"velocity":0.1968503937007874},{"duration":0.8399999999999963,"midi":57,"time":56.04,"velocity":0.1968503937007874},{"duration":0.240000000000002,"midi":69,"time":56.04,"velocity":0.1968503937007874},{"duration":0.240000000000002,"midi":72,"time":56.16,"velocity":0.3858267716535433},{"duration":0.240000000000002,"midi":67,"time":56.16,"velocity":0.30708661417322836},{"duration":0.240000000000002,"midi":72,"time":56.4,"velocity":0.3858267716535433},{"duration":0.240000000000002,"midi":67,"time":56.4,"velocity":0.30708661417322836},{"duration":0.35999999999999943,"midi":65,"time":56.64,"velocity":0.30708661417322836},{"duration":0.23999999999999488,"midi":69,"time":56.64,"velocity":0.1968503937007874},{"duration":0.35999999999999943,"midi":72,"time":56.64,"velocity":0.3858267716535433},{"duration":0.5999999999999943,"midi":57,"time":56.64,"velocity":0.1968503937007874},{"duration":0.5999999999999943,"midi":62,"time":56.64,"velocity":0.1968503937007874},{"duration":0.5999999999999943,"midi":57,"time":57,"velocity":0.1968503937007874},{"duration":0.5999999999999943,"midi":62,"time":57,"velocity":0.1968503937007874},{"duration":0.23999999999999488,"midi":69,"time":57,"velocity":0.1968503937007874},{"duration":0.12000000000000455,"midi":73,"time":57.059999999999995,"velocity":0.3858267716535433},{"duration":0.240000000000002,"midi":74,"time":57.12,"velocity":0.3858267716535433},{"duration":0.240000000000002,"midi":70,"time":57.12,"velocity":0.30708661417322836},{"duration":0.23999999999999488,"midi":72,"time":57.36,"velocity":0.3858267716535433},{"duration":0.23999999999999488,"midi":67,"time":57.36,"velocity":0.30708661417322836},{"duration":0.240000000000002,"midi":58,"time":57.599999999999994,"velocity":0.1968503937007874},{"duration":0.480000000000004,"midi":65,"time":57.599999999999994,"velocity":0.30708661417322836},{"duration":0.6000000000000014,"midi":58,"time":57.599999999999994,"velocity":0.2755905511811024},{"duration":0.9600000000000009,"midi":39,"time":57.599999999999994,"velocity":0.2755905511811024},{"duration":0.240000000000002,"midi":63,"time":57.599999999999994,"velocity":0.2755905511811024},{"duration":0.9600000000000009,"midi":46,"time":57.599999999999994,"velocity":0.2755905511811024},{"duration":0.9600000000000009,"midi":51,"time":57.599999999999994,"velocity":0.2755905511811024},{"duration":0.9600000000000009,"midi":51,"time":57.599999999999994,"velocity":0.2755905511811024},{"duration":0.6000000000000014,"midi":63,"time":57.599999999999994,"velocity":0.1968503937007874},{"duration":0.240000000000002,"midi":70,"time":57.599999999999994,"velocity":0.3858267716535433},{"duration":0.480000000000004,"midi":70,"time":57.599999999999994,"velocity":0.1968503937007874},{"duration":0.5999999999999943,"midi":63,"time":57.96,"velocity":0.1968503937007874},{"duration":0.5999999999999943,"midi":58,"time":57.96,"velocity":0.1968503937007874},{"duration":0.23999999999999488,"midi":70,"time":57.96,"velocity":0.1968503937007874},{"duration":0.23999999999999488,"midi":65,"time":58.32,"velocity":0.3858267716535433},{"duration":0.23999999999999488,"midi":62,"time":58.32,"velocity":0.30708661417322836},{"duration":0.9600000000000009,"midi":48,"time":58.559999999999995,"velocity":0.2755905511811024},{"duration":0.240000000000002,"midi":60,"time":58.559999999999995,"velocity":0.1968503937007874},{"duration":0.240000000000002,"midi":74,"time":58.559999999999995,"velocity":0.3858267716535433},{"duration":0.9600000000000009,"midi":53,"time":58.559999999999995,"velocity":0.2755905511811024},{"duration":0.240000000000002,"midi":65,"time":58.559999999999995,"velocity":0.1968503937007874},{"duration":0.9600000000000009,"midi":41,"time":58.559999999999995,"velocity":0.2755905511811024},{"duration":0.6000000000000014,"midi":65,"time":58.559999999999995,"velocity":0.2755905511811024},{"duration":0.9600000000000009,"midi":53,"time":58.559999999999995,"velocity":0.2755905511811024},{"duration":0.6000000000000014,"midi":60,"time":58.559999999999995,"velocity":0.2755905511811024},{"duration":0.240000000000002,"midi":70,"time":58.559999999999995,"velocity":0.30708661417322836},{"duration":0.240000000000002,"midi":72,"time":58.559999999999995,"velocity":0.1968503937007874},{"duration":0.240000000000002,"midi":72,"time":58.8,"velocity":0.30708661417322836},{"duration":0.240000000000002,"midi":75,"time":58.8,"velocity":0.3858267716535433},{"duration":0.240000000000002,"midi":72,"time":58.919999999999995,"velocity":0.1968503937007874},{"duration":0.6000000000000014,"midi":60,"time":58.919999999999995,"velocity":0.1968503937007874},{"duration":0.6000000000000014,"midi":65,"time":58.919999999999995,"velocity":0.1968503937007874},{"duration":0.240000000000002,"midi":69,"time":59.04,"velocity":0.30708661417322836},{"duration":0.240000000000002,"midi":72,"time":59.04,"velocity":0.3858267716535433},{"duration":0.11999999999999744,"midi":70,"time":59.4,"velocity":0.3858267716535433},{"duration":0.11999999999999744,"midi":67,"time":59.4,"velocity":0.3858267716535433},{"duration":0.9600000000000009,"midi":55,"time":59.519999999999996,"velocity":0.2755905511811024},{"duration":0.240000000000002,"midi":67,"time":59.519999999999996,"velocity":0.30708661417322836},{"duration":0.9600000000000009,"midi":50,"time":59.519999999999996,"velocity":0.2755905511811024},{"duration":0.480000000000004,"midi":67,"time":59.519999999999996,"velocity":0.2755905511811024},{"duration":0.240000000000002,"midi":62,"time":59.519999999999996,"velocity":0.1968503937007874},{"duration":0.9600000000000009,"midi":55,"time":59.519999999999996,"velocity":0.2755905511811024},{"duration":0.240000000000002,"midi":74,"time":59.519999999999996,"velocity":0.1968503937007874},{"duration":0.6000000000000014,"midi":67,"time":59.519999999999996,"velocity":0.1968503937007874},{"duration":0.480000000000004,"midi":70,"time":59.519999999999996,"velocity":0.3858267716535433},{"duration":0.6000000000000014,"midi":62,"time":59.519999999999996,"velocity":0.2755905511811024},{"duration":0.9600000000000009,"midi":43,"time":59.519999999999996,"velocity":0.2755905511811024},{"duration":0.6000000000000014,"midi":62,"time":59.879999999999995,"velocity":0.1968503937007874},{"duration":0.6000000000000014,"midi":67,"time":59.879999999999995,"velocity":0.1968503937007874},{"duration":0.240000000000002,"midi":74,"time":59.879999999999995,"velocity":0.1968503937007874},{"duration":0.240000000000002,"midi":77,"time":60.239999999999995,"velocity":0.33070866141732286},{"duration":0.240000000000002,"midi":60,"time":60.48,"velocity":0.2755905511811024},{"duration":0.240000000000002,"midi":82,"time":60.48,"velocity":0.33070866141732286},{"duration":0.7199999999999989,"midi":60,"time":60.48,"velocity":0.1968503937007874},{"duration":0.240000000000002,"midi":65,"time":60.48,"velocity":0.2755905511811024},{"duration":0.9600000000000009,"midi":48,"time":60.48,"velocity":0.2755905511811024},{"duration":0.7199999999999989,"midi":65,"time":60.48,"velocity":0.1968503937007874},{"duration":0.9600000000000009,"midi":41,"time":60.48,"velocity":0.2755905511811024},{"duration":0.9600000000000009,"midi":53,"time":60.48,"velocity":0.2755905511811024},{"duration":0.9600000000000009,"midi":53,"time":60.48,"velocity":0.2755905511811024},{"duration":0.240000000000002,"midi":72,"time":60.48,"velocity":0.1968503937007874},{"duration":0.240000000000002,"midi":84,"time":60.72,"velocity":0.33070866141732286},{"duration":0.4799999999999969,"midi":60,"time":60.96,"velocity":0.1968503937007874},{"duration":0.23999999999999488,"midi":86,"time":60.96,"velocity":0.33070866141732286},{"duration":0.4799999999999969,"midi":65,"time":60.96,"velocity":0.1968503937007874},{"duration":0.23999999999999488,"midi":72,"time":60.96,"velocity":0.1968503937007874},{"duration":0.240000000000002,"midi":87,"time":61.199999999999996,"velocity":0.33070866141732286},{"duration":1.9200000000000017,"midi":46,"time":76.8,"velocity":0.30708661417322836},{"duration":1.9200000000000017,"midi":51,"time":76.8,"velocity":0.30708661417322836},{"duration":1.9200000000000017,"midi":63,"time":76.8,"velocity":0.30708661417322836},{"duration":1.9200000000000017,"midi":51,"time":76.8,"velocity":0.30708661417322836},{"duration":1.9200000000000017,"midi":58,"time":76.8,"velocity":0.30708661417322836},{"duration":1.9200000000000017,"midi":39,"time":76.8,"velocity":0.30708661417322836},{"duration":1.9200000000000017,"midi":41,"time":78.72,"velocity":0.30708661417322836},{"duration":1.9200000000000017,"midi":53,"time":78.72,"velocity":0.30708661417322836},{"duration":1.9200000000000017,"midi":48,"time":78.72,"velocity":0.30708661417322836},{"duration":1.9200000000000017,"midi":65,"time":78.72,"velocity":0.30708661417322836},{"duration":1.9200000000000017,"midi":60,"time":78.72,"velocity":0.30708661417322836},{"duration":1.9200000000000017,"midi":53,"time":78.72,"velocity":0.30708661417322836},{"duration":1.9200000000000017,"midi":50,"time":80.64,"velocity":0.30708661417322836},{"duration":1.9200000000000017,"midi":67,"time":80.64,"velocity":0.30708661417322836},{"duration":1.9200000000000017,"midi":55,"time":80.64,"velocity":0.30708661417322836},{"duration":1.9200000000000017,"midi":62,"time":80.64,"velocity":0.30708661417322836},{"duration":1.9200000000000017,"midi":43,"time":80.64,"velocity":0.30708661417322836},{"duration":1.9200000000000017,"midi":55,"time":80.64,"velocity":0.30708661417322836},{"duration":0.9599999999999937,"midi":38,"time":82.56,"velocity":0.30708661417322836},{"duration":0.9599999999999937,"midi":62,"time":82.56,"velocity":0.30708661417322836},{"duration":0.9599999999999937,"midi":50,"time":82.56,"velocity":0.30708661417322836},{"duration":0.9599999999999937,"midi":50,"time":82.56,"velocity":0.30708661417322836},{"duration":0.9599999999999937,"midi":45,"time":82.56,"velocity":0.30708661417322836},{"duration":0.9599999999999937,"midi":57,"time":82.56,"velocity":0.30708661417322836},{"duration":0.9599999999999937,"midi":57,"time":83.52,"velocity":0.30708661417322836},{"duration":0.9599999999999937,"midi":69,"time":83.52,"velocity":0.30708661417322836},{"duration":0.9599999999999937,"midi":57,"time":83.52,"velocity":0.30708661417322836},{"duration":0.9599999999999937,"midi":65,"time":83.52,"velocity":0.30708661417322836},{"duration":0.9599999999999937,"midi":53,"time":83.52,"velocity":0.30708661417322836},{"duration":0.9599999999999937,"midi":45,"time":83.52,"velocity":0.30708661417322836},{"duration":1.9200000000000017,"midi":39,"time":84.47999999999999,"velocity":0.30708661417322836},{"duration":1.9200000000000017,"midi":63,"time":84.47999999999999,"velocity":0.30708661417322836},{"duration":1.9200000000000017,"midi":51,"time":84.47999999999999,"velocity":0.30708661417322836},{"duration":1.9200000000000017,"midi":51,"time":84.47999999999999,"velocity":0.30708661417322836},{"duration":1.9200000000000017,"midi":46,"time":84.47999999999999,"velocity":0.30708661417322836},{"duration":1.9200000000000017,"midi":58,"time":84.47999999999999,"velocity":0.30708661417322836},{"duration":1.6800000000000068,"midi":53,"time":86.39999999999999,"velocity":0.30708661417322836},{"duration":1.6800000000000068,"midi":41,"time":86.39999999999999,"velocity":0.30708661417322836},{"duration":1.6800000000000068,"midi":53,"time":86.39999999999999,"velocity":0.30708661417322836},{"duration":1.6800000000000068,"midi":65,"time":86.39999999999999,"velocity":0.30708661417322836},{"duration":1.6800000000000068,"midi":48,"time":86.39999999999999,"velocity":0.30708661417322836},{"duration":1.6800000000000068,"midi":60,"time":86.39999999999999,"velocity":0.30708661417322836},{"duration":0.23999999999999488,"midi":41,"time":88.08,"velocity":0.28346456692913385},{"duration":0.23999999999999488,"midi":53,"time":88.08,"velocity":0.28346456692913385},{"duration":0.23999999999999488,"midi":65,"time":88.08,"velocity":0.28346456692913385},{"duration":0.23999999999999488,"midi":53,"time":88.08,"velocity":0.28346456692913385},{"duration":0.23999999999999488,"midi":57,"time":88.08,"velocity":0.28346456692913385},{"duration":0.23999999999999488,"midi":45,"time":88.08,"velocity":0.28346456692913385},{"duration":1.4399999999999977,"midi":58,"time":88.32,"velocity":0.28346456692913385},{"duration":1.4399999999999977,"midi":67,"time":88.32,"velocity":0.30708661417322836},{"duration":1.4399999999999977,"midi":46,"time":88.32,"velocity":0.28346456692913385},{"duration":1.4399999999999977,"midi":55,"time":88.32,"velocity":0.30708661417322836},{"duration":1.4399999999999977,"midi":55,"time":88.32,"velocity":0.30708661417322836},{"duration":1.4399999999999977,"midi":43,"time":88.32,"velocity":0.30708661417322836},{"duration":0.480000000000004,"midi":53,"time":89.75999999999999,"velocity":0.28346456692913385},{"duration":0.480000000000004,"midi":41,"time":89.75999999999999,"velocity":0.28346456692913385},{"duration":0.480000000000004,"midi":65,"time":89.75999999999999,"velocity":0.28346456692913385},{"duration":0.480000000000004,"midi":53,"time":89.75999999999999,"velocity":0.28346456692913385},{"duration":0.480000000000004,"midi":60,"time":89.75999999999999,"velocity":0.28346456692913385},{"duration":0.480000000000004,"midi":48,"time":89.75999999999999,"velocity":0.28346456692913385},{"duration":1.9200000000000017,"midi":50,"time":90.24,"velocity":0.28346456692913385},{"duration":1.9200000000000017,"midi":46,"time":90.24,"velocity":0.28346456692913385},{"duration":1.9200000000000017,"midi":38,"time":90.24,"velocity":0.28346456692913385},{"duration":1.9200000000000017,"midi":58,"time":90.24,"velocity":0.28346456692913385},{"duration":1.9200000000000017,"midi":50,"time":90.24,"velocity":0.28346456692913385},{"duration":1.9200000000000017,"midi":62,"time":90.24,"velocity":0.28346456692913385},{"duration":0.23999999999999488,"midi":67,"time":99.84,"velocity":0.25196850393700787},{"duration":0.23999999999999488,"midi":58,"time":99.84,"velocity":0.25196850393700787},{"duration":0.7199999999999989,"midi":55,"time":99.84,"velocity":0.30708661417322836},{"duration":0.5999999999999943,"midi":67,"time":99.84,"velocity":0.30708661417322836},{"duration":0.23999999999999488,"midi":70,"time":99.84,"velocity":0.25196850393700787},{"duration":0.7199999999999989,"midi":43,"time":99.84,"velocity":0.33858267716535434},{"duration":0.5999999999999943,"midi":58,"time":99.84,"velocity":0.30708661417322836},{"duration":0.7199999999999989,"midi":46,"time":99.84,"velocity":0.30708661417322836},{"duration":0.7199999999999989,"midi":55,"time":99.84,"velocity":0.33858267716535434},{"duration":0.35999999999999943,"midi":67,"time":100.2,"velocity":0.25196850393700787},{"duration":0.35999999999999943,"midi":58,"time":100.2,"velocity":0.25196850393700787},{"duration":0.23999999999999488,"midi":70,"time":100.2,"velocity":0.25196850393700787},{"duration":0.23999999999999488,"midi":57,"time":100.56,"velocity":0.28346456692913385},{"duration":0.23999999999999488,"midi":60,"time":100.56,"velocity":0.28346456692913385},{"duration":0.23999999999999488,"midi":60,"time":100.56,"velocity":0.25196850393700787},{"duration":0.23999999999999488,"midi":69,"time":100.56,"velocity":0.28346456692913385},{"duration":0.23999999999999488,"midi":48,"time":100.56,"velocity":0.28346456692913385},{"duration":0.23999999999999488,"midi":48,"time":100.56,"velocity":0.28346456692913385},{"duration":0.23999999999999488,"midi":69,"time":100.56,"velocity":0.25196850393700787},{"duration":0.23999999999999488,"midi":72,"time":100.56,"velocity":0.25196850393700787},{"duration":0.23999999999999488,"midi":60,"time":100.56,"velocity":0.28346456692913385},{"duration":0.7199999999999989,"midi":55,"time":100.8,"velocity":0.30708661417322836},{"duration":0.23999999999999488,"midi":58,"time":100.8,"velocity":0.30708661417322836},{"duration":0.7199999999999989,"midi":46,"time":100.8,"velocity":0.30708661417322836},{"duration":0.5999999999999943,"midi":58,"time":100.8,"velocity":0.25196850393700787},{"duration":0.23999999999999488,"midi":67,"time":100.8,"velocity":0.25196850393700787},{"duration":0.23999999999999488,"midi":70,"time":100.8,"velocity":0.25196850393700787},{"duration":0.5999999999999943,"midi":67,"time":100.8,"velocity":0.30708661417322836},{"duration":0.7199999999999989,"midi":43,"time":100.8,"velocity":0.33858267716535434},{"duration":0.7199999999999989,"midi":55,"time":100.8,"velocity":0.33858267716535434},{"duration":0.35999999999999943,"midi":67,"time":101.16,"velocity":0.25196850393700787},{"duration":0.35999999999999943,"midi":58,"time":101.16,"velocity":0.25196850393700787},{"duration":0.23999999999999488,"midi":70,"time":101.16,"velocity":0.25196850393700787},{"duration":0.23999999999999488,"midi":60,"time":101.52,"velocity":0.28346456692913385},{"duration":0.23999999999999488,"midi":69,"time":101.52,"velocity":0.25196850393700787},{"duration":0.23999999999999488,"midi":60,"time":101.52,"velocity":0.30708661417322836},{"duration":0.23999999999999488,"midi":57,"time":101.52,"velocity":0.30708661417322836},{"duration":0.23999999999999488,"midi":72,"time":101.52,"velocity":0.25196850393700787},{"duration":0.23999999999999488,"midi":48,"time":101.52,"velocity":0.30708661417322836},{"duration":0.23999999999999488,"midi":48,"time":101.52,"velocity":0.28346456692913385},{"duration":0.23999999999999488,"midi":69,"time":101.52,"velocity":0.30708661417322836},{"duration":0.23999999999999488,"midi":60,"time":101.52,"velocity":0.25196850393700787},{"duration":0.7199999999999989,"midi":55,"time":101.75999999999999,"velocity":0.30708661417322836},{"duration":0.2400000000000091,"midi":67,"time":101.75999999999999,"velocity":0.25196850393700787},{"duration":0.6000000000000085,"midi":67,"time":101.75999999999999,"velocity":0.30708661417322836},{"duration":0.2400000000000091,"midi":58,"time":101.75999999999999,"velocity":0.25196850393700787},{"duration":0.6000000000000085,"midi":58,"time":101.75999999999999,"velocity":0.30708661417322836},{"duration":0.2400000000000091,"midi":70,"time":101.75999999999999,"velocity":0.25196850393700787},{"duration":0.7199999999999989,"midi":43,"time":101.75999999999999,"velocity":0.33858267716535434},{"duration":0.7199999999999989,"midi":55,"time":101.75999999999999,"velocity":0.33858267716535434},{"duration":0.7199999999999989,"midi":46,"time":101.75999999999999,"velocity":0.30708661417322836},{"duration":0.2400000000000091,"midi":70,"time":102.11999999999999,"velocity":0.25196850393700787},{"duration":0.35999999999999943,"midi":67,"time":102.11999999999999,"velocity":0.25196850393700787},{"duration":0.35999999999999943,"midi":58,"time":102.11999999999999,"velocity":0.25196850393700787},{"duration":0.2400000000000091,"midi":60,"time":102.47999999999999,"velocity":0.28346456692913385},{"duration":0.2400000000000091,"midi":60,"time":102.47999999999999,"velocity":0.25196850393700787},{"duration":0.2400000000000091,"midi":57,"time":102.47999999999999,"velocity":0.28346456692913385},{"duration":0.2400000000000091,"midi":60,"time":102.47999999999999,"velocity":0.28346456692913385},{"duration":0.2400000000000091,"midi":48,"time":102.47999999999999,"velocity":0.28346456692913385},{"duration":0.2400000000000091,"midi":69,"time":102.47999999999999,"velocity":0.25196850393700787},{"duration":0.2400000000000091,"midi":72,"time":102.47999999999999,"velocity":0.28346456692913385},{"duration":0.2400000000000091,"midi":72,"time":102.47999999999999,"velocity":0.25196850393700787},{"duration":0.2400000000000091,"midi":69,"time":102.47999999999999,"velocity":0.28346456692913385},{"duration":0.23999999999999488,"midi":67,"time":102.72,"velocity":0.25196850393700787},{"duration":0.23999999999999488,"midi":70,"time":102.72,"velocity":0.25196850393700787},{"duration":0.23999999999999488,"midi":62,"time":102.72,"velocity":0.33858267716535434},{"duration":0.23999999999999488,"midi":62,"time":102.72,"velocity":0.33858267716535434},{"duration":0.23999999999999488,"midi":50,"time":102.72,"velocity":0.33858267716535434},{"duration":0.23999999999999488,"midi":58,"time":102.72,"velocity":0.25196850393700787},{"duration":0.23999999999999488,"midi":58,"time":102.72,"velocity":0.25196850393700787},{"duration":0.23999999999999488,"midi":74,"time":102.72,"velocity":0.33858267716535434},{"duration":0.23999999999999488,"midi":70,"time":102.72,"velocity":0.25196850393700787},{"duration":0.2400000000000091,"midi":60,"time":102.96,"velocity":0.25196850393700787},{"duration":0.2400000000000091,"midi":60,"time":102.96,"velocity":0.33858267716535434},{"duration":0.2400000000000091,"midi":72,"time":102.96,"velocity":0.25196850393700787},{"duration":0.2400000000000091,"midi":55,"time":102.96,"velocity":0.33858267716535434},{"duration":0.2400000000000091,"midi":72,"time":102.96,"velocity":0.33858267716535434},{"duration":0.2400000000000091,"midi":67,"time":102.96,"velocity":0.33858267716535434},{"duration":0.2400000000000091,"midi":48,"time":102.96,"velocity":0.33858267716535434},{"duration":0.2400000000000091,"midi":60,"time":102.96,"velocity":0.33858267716535434},{"duration":0.2400000000000091,"midi":69,"time":102.96,"velocity":0.25196850393700787},{"duration":0.23999999999999488,"midi":70,"time":103.2,"velocity":0.25196850393700787},{"duration":0.23999999999999488,"midi":46,"time":103.2,"velocity":0.33858267716535434},{"duration":0.23999999999999488,"midi":65,"time":103.2,"velocity":0.33858267716535434},{"duration":0.23999999999999488,"midi":70,"time":103.2,"velocity":0.33858267716535434},{"duration":0.23999999999999488,"midi":58,"time":103.2,"velocity":0.33858267716535434},{"duration":0.23999999999999488,"midi":74,"time":103.2,"velocity":0.25196850393700787},{"duration":0.23999999999999488,"midi":53,"time":103.2,"velocity":0.33858267716535434},{"duration":0.23999999999999488,"midi":62,"time":103.2,"velocity":0.25196850393700787},{"duration":0.23999999999999488,"midi":58,"time":103.2,"velocity":0.33858267716535434},{"duration":0.23999999999999488,"midi":72,"time":103.44,"velocity":0.33858267716535434},{"duration":0.23999999999999488,"midi":60,"time":103.44,"velocity":0.33858267716535434},{"duration":0.23999999999999488,"midi":60,"time":103.44,"velocity":0.25196850393700787},{"duration":0.23999999999999488,"midi":67,"time":103.44,"velocity":0.33858267716535434},{"duration":0.23999999999999488,"midi":48,"time":103.44,"velocity":0.33858267716535434},{"duration":0.23999999999999488,"midi":72,"time":103.44,"velocity":0.25196850393700787},{"duration":0.23999999999999488,"midi":55,"time":103.44,"velocity":0.33858267716535434},{"duration":0.23999999999999488,"midi":60,"time":103.44,"velocity":0.33858267716535434},{"duration":0.23999999999999488,"midi":69,"time":103.44,"velocity":0.25196850393700787},{"duration":0.2400000000000091,"midi":67,"time":103.67999999999999,"velocity":0.30708661417322836},{"duration":0.7199999999999989,"midi":46,"time":103.67999999999999,"velocity":0.30708661417322836},{"duration":0.7199999999999989,"midi":55,"time":103.67999999999999,"velocity":0.30708661417322836},{"duration":0.7199999999999989,"midi":43,"time":103.67999999999999,"velocity":0.33858267716535434},{"duration":0.7199999999999989,"midi":55,"time":103.67999999999999,"velocity":0.33858267716535434},{"duration":0.2400000000000091,"midi":58,"time":103.67999999999999,"velocity":0.25196850393700787},{"duration":0.2400000000000091,"midi":70,"time":103.67999999999999,"velocity":0.25196850393700787},{"duration":0.6000000000000085,"midi":67,"time":103.67999999999999,"velocity":0.25196850393700787},{"duration":0.6000000000000085,"midi":58,"time":103.67999999999999,"velocity":0.30708661417322836},{"duration":0.35999999999999943,"midi":67,"time":104.03999999999999,"velocity":0.25196850393700787},{"duration":0.35999999999999943,"midi":58,"time":104.03999999999999,"velocity":0.25196850393700787},{"duration":0.2400000000000091,"midi":70,"time":104.03999999999999,"velocity":0.25196850393700787},{"duration":0.2400000000000091,"midi":60,"time":104.39999999999999,"velocity":0.28346456692913385},{"duration":0.2400000000000091,"midi":69,"time":104.39999999999999,"velocity":0.28346456692913385},{"duration":0.2400000000000091,"midi":69,"time":104.39999999999999,"velocity":0.25196850393700787},{"duration":0.2400000000000091,"midi":60,"time":104.39999999999999,"velocity":0.25196850393700787},{"duration":0.2400000000000091,"midi":60,"time":104.39999999999999,"velocity":0.28346456692913385},{"duration":0.2400000000000091,"midi":57,"time":104.39999999999999,"velocity":0.28346456692913385},{"duration":0.2400000000000091,"midi":48,"time":104.39999999999999,"velocity":0.28346456692913385},{"duration":0.2400000000000091,"midi":48,"time":104.39999999999999,"velocity":0.28346456692913385},{"duration":0.2400000000000091,"midi":72,"time":104.39999999999999,"velocity":0.25196850393700787},{"duration":0.23999999999999488,"midi":67,"time":104.64,"velocity":0.30708661417322836},{"duration":0.7199999999999989,"midi":46,"time":104.64,"velocity":0.30708661417322836},{"duration":0.23999999999999488,"midi":58,"time":104.64,"velocity":0.25196850393700787},{"duration":0.5999999999999943,"midi":58,"time":104.64,"velocity":0.30708661417322836},{"duration":0.23999999999999488,"midi":70,"time":104.64,"velocity":0.25196850393700787},{"duration":0.7199999999999989,"midi":55,"time":104.64,"velocity":0.30708661417322836},{"duration":0.7199999999999989,"midi":43,"time":104.64,"velocity":0.33858267716535434},{"duration":0.7199999999999989,"midi":55,"time":104.64,"velocity":0.33858267716535434},{"duration":0.5999999999999943,"midi":67,"time":104.64,"velocity":0.25196850393700787},{"duration":0.23999999999999488,"midi":70,"time":105,"velocity":0.25196850393700787},{"duration":0.35999999999999943,"midi":58,"time":105,"velocity":0.25196850393700787},{"duration":0.35999999999999943,"midi":67,"time":105,"velocity":0.25196850393700787},{"duration":0.23999999999999488,"midi":72,"time":105.36,"velocity":0.25196850393700787},{"duration":0.23999999999999488,"midi":69,"time":105.36,"velocity":0.25196850393700787},{"duration":0.23999999999999488,"midi":57,"time":105.36,"velocity":0.30708661417322836},{"duration":0.23999999999999488,"midi":60,"time":105.36,"velocity":0.28346456692913385},{"duration":0.23999999999999488,"midi":69,"time":105.36,"velocity":0.30708661417322836},{"duration":0.23999999999999488,"midi":48,"time":105.36,"velocity":0.30708661417322836},{"duration":0.23999999999999488,"midi":60,"time":105.36,"velocity":0.25196850393700787},{"duration":0.23999999999999488,"midi":48,"time":105.36,"velocity":0.28346456692913385},{"duration":0.23999999999999488,"midi":60,"time":105.36,"velocity":0.30708661417322836},{"duration":0.23999999999999488,"midi":67,"time":105.6,"velocity":0.30708661417322836},{"duration":0.7199999999999989,"midi":46,"time":105.6,"velocity":0.30708661417322836},{"duration":0.23999999999999488,"midi":58,"time":105.6,"velocity":0.25196850393700787},{"duration":0.23999999999999488,"midi":70,"time":105.6,"velocity":0.25196850393700787},{"duration":0.6000000000000085,"midi":67,"time":105.6,"velocity":0.25196850393700787},{"duration":0.7199999999999989,"midi":55,"time":105.6,"velocity":0.30708661417322836},{"duration":0.7199999999999989,"midi":55,"time":105.6,"velocity":0.33858267716535434},{"duration":0.7199999999999989,"midi":43,"time":105.6,"velocity":0.33858267716535434},{"duration":0.6000000000000085,"midi":58,"time":105.6,"velocity":0.30708661417322836},{"duration":0.35999999999999943,"midi":67,"time":105.96,"velocity":0.25196850393700787},{"duration":0.35999999999999943,"midi":58,"time":105.96,"velocity":0.25196850393700787},{"duration":0.2400000000000091,"midi":70,"time":105.96,"velocity":0.25196850393700787},{"duration":0.2400000000000091,"midi":72,"time":106.32,"velocity":0.25196850393700787},{"duration":0.2400000000000091,"midi":48,"time":106.32,"velocity":0.28346456692913385},{"duration":0.2400000000000091,"midi":60,"time":106.32,"velocity":0.25196850393700787},{"duration":0.2400000000000091,"midi":57,"time":106.32,"velocity":0.28346456692913385},{"duration":0.2400000000000091,"midi":48,"time":106.32,"velocity":0.28346456692913385},{"duration":0.2400000000000091,"midi":69,"time":106.32,"velocity":0.25196850393700787},{"duration":0.2400000000000091,"midi":69,"time":106.32,"velocity":0.28346456692913385},{"duration":0.2400000000000091,"midi":60,"time":106.32,"velocity":0.28346456692913385},{"duration":0.2400000000000091,"midi":60,"time":106.32,"velocity":0.28346456692913385},{"duration":0.23999999999999488,"midi":58,"time":106.56,"velocity":0.25196850393700787},{"duration":0.23999999999999488,"midi":58,"time":106.56,"velocity":0.25196850393700787},{"duration":0.23999999999999488,"midi":62,"time":106.56,"velocity":0.33858267716535434},{"duration":0.23999999999999488,"midi":50,"time":106.56,"velocity":0.33858267716535434},{"duration":0.23999999999999488,"midi":67,"time":106.56,"velocity":0.25196850393700787},{"duration":0.23999999999999488,"midi":62,"time":106.56,"velocity":0.33858267716535434},{"duration":0.23999999999999488,"midi":70,"time":106.56,"velocity":0.25196850393700787},{"duration":0.23999999999999488,"midi":70,"time":106.56,"velocity":0.25196850393700787},{"duration":0.23999999999999488,"midi":74,"time":106.56,"velocity":0.33858267716535434},{"duration":0.23999999999999488,"midi":60,"time":106.8,"velocity":0.25196850393700787},{"duration":0.23999999999999488,"midi":48,"time":106.8,"velocity":0.33858267716535434},{"duration":0.23999999999999488,"midi":55,"time":106.8,"velocity":0.33858267716535434},{"duration":0.23999999999999488,"midi":72,"time":106.8,"velocity":0.25196850393700787},{"duration":0.23999999999999488,"midi":67,"time":106.8,"velocity":0.33858267716535434},{"duration":0.23999999999999488,"midi":72,"time":106.8,"velocity":0.33858267716535434},{"duration":0.23999999999999488,"midi":60,"time":106.8,"velocity":0.33858267716535434},{"duration":0.23999999999999488,"midi":60,"time":106.8,"velocity":0.33858267716535434},{"duration":0.23999999999999488,"midi":69,"time":106.8,"velocity":0.25196850393700787},{"duration":0.2400000000000091,"midi":65,"time":107.03999999999999,"velocity":0.33858267716535434},{"duration":0.2400000000000091,"midi":58,"time":107.03999999999999,"velocity":0.33858267716535434},{"duration":0.2400000000000091,"midi":53,"time":107.03999999999999,"velocity":0.33858267716535434},{"duration":0.2400000000000091,"midi":46,"time":107.03999999999999,"velocity":0.33858267716535434},{"duration":0.2400000000000091,"midi":58,"time":107.03999999999999,"velocity":0.33858267716535434},{"duration":0.2400000000000091,"midi":70,"time":107.03999999999999,"velocity":0.25196850393700787},{"duration":0.2400000000000091,"midi":70,"time":107.03999999999999,"velocity":0.33858267716535434},{"duration":0.2400000000000091,"midi":62,"time":107.03999999999999,"velocity":0.25196850393700787},{"duration":0.2400000000000091,"midi":74,"time":107.03999999999999,"velocity":0.25196850393700787},{"duration":0.23999999999999488,"midi":72,"time":107.28,"velocity":0.33858267716535434},{"duration":0.23999999999999488,"midi":48,"time":107.28,"velocity":0.33858267716535434},{"duration":0.23999999999999488,"midi":67,"time":107.28,"velocity":0.33858267716535434},{"duration":0.23999999999999488,"midi":60,"time":107.28,"velocity":0.33858267716535434},{"duration":0.23999999999999488,"midi":60,"time":107.28,"velocity":0.25196850393700787},{"duration":0.23999999999999488,"midi":55,"time":107.28,"velocity":0.33858267716535434},{"duration":0.23999999999999488,"midi":72,"time":107.28,"velocity":0.25196850393700787},{"duration":0.23999999999999488,"midi":60,"time":107.28,"velocity":0.33858267716535434},{"duration":0.23999999999999488,"midi":69,"time":107.28,"velocity":0.25196850393700787},{"duration":0.23999999999999488,"midi":58,"time":107.52,"velocity":0.2992125984251969},{"duration":0.7199999999999989,"midi":51,"time":107.52,"velocity":0.25196850393700787},{"duration":0.23999999999999488,"midi":70,"time":107.52,"velocity":0.2992125984251969},{"duration":0.23999999999999488,"midi":67,"time":107.52,"velocity":0.25196850393700787},{"duration":0.5999999999999943,"midi":70,"time":107.52,"velocity":0.25196850393700787},{"duration":0.7199999999999989,"midi":46,"time":107.52,"velocity":0.25196850393700787},{"duration":0.7199999999999989,"midi":63,"time":107.52,"velocity":0.25196850393700787},{"duration":0.5999999999999943,"midi":58,"time":107.52,"velocity":0.25196850393700787},{"duration":0.7199999999999989,"midi":51,"time":107.52,"velocity":0.25196850393700787},{"duration":0.7199999999999989,"midi":39,"time":107.52,"velocity":0.25196850393700787},{"duration":0.7199999999999989,"midi":58,"time":107.52,"velocity":0.25196850393700787},{"duration":0.23999999999999488,"midi":67,"time":107.88,"velocity":0.25196850393700787},{"duration":0.35999999999999943,"midi":70,"time":107.88,"velocity":0.25196850393700787},{"duration":0.35999999999999943,"midi":58,"time":107.88,"velocity":0.25196850393700787},{"duration":0.23999999999999488,"midi":50,"time":108.24,"velocity":0.25196850393700787},{"duration":0.23999999999999488,"midi":38,"time":108.24,"velocity":0.25196850393700787},{"duration":0.23999999999999488,"midi":45,"time":108.24,"velocity":0.25196850393700787},{"duration":0.23999999999999488,"midi":57,"time":108.24,"velocity":0.25196850393700787},{"duration":0.23999999999999488,"midi":60,"time":108.24,"velocity":0.25196850393700787},{"duration":0.23999999999999488,"midi":62,"time":108.24,"velocity":0.25196850393700787},{"duration":0.23999999999999488,"midi":50,"time":108.24,"velocity":0.25196850393700787},{"duration":0.23999999999999488,"midi":69,"time":108.24,"velocity":0.25196850393700787},{"duration":0.23999999999999488,"midi":69,"time":108.24,"velocity":0.25196850393700787},{"duration":0.23999999999999488,"midi":72,"time":108.24,"velocity":0.25196850393700787},{"duration":0.23999999999999488,"midi":57,"time":108.24,"velocity":0.25196850393700787},{"duration":0.7200000000000131,"midi":46,"time":108.47999999999999,"velocity":0.25196850393700787},{"duration":0.7200000000000131,"midi":51,"time":108.47999999999999,"velocity":0.25196850393700787},{"duration":0.2400000000000091,"midi":58,"time":108.47999999999999,"velocity":0.25196850393700787},{"duration":0.6000000000000085,"midi":58,"time":108.47999999999999,"velocity":0.29133858267716534},{"duration":0.2400000000000091,"midi":67,"time":108.47999999999999,"velocity":0.25196850393700787},{"duration":0.2400000000000091,"midi":70,"time":108.47999999999999,"velocity":0.25196850393700787},{"duration":0.7200000000000131,"midi":39,"time":108.47999999999999,"velocity":0.25196850393700787},{"duration":0.6000000000000085,"midi":70,"time":108.47999999999999,"velocity":0.29133858267716534},{"duration":0.7200000000000131,"midi":51,"time":108.47999999999999,"velocity":0.25196850393700787},{"duration":0.7200000000000131,"midi":58,"time":108.47999999999999,"velocity":0.25196850393700787},{"duration":0.7200000000000131,"midi":63,"time":108.47999999999999,"velocity":0.25196850393700787},{"duration":0.36000000000001364,"midi":58,"time":108.83999999999999,"velocity":0.25196850393700787},{"duration":0.2400000000000091,"midi":67,"time":108.83999999999999,"velocity":0.25196850393700787},{"duration":0.36000000000001364,"midi":70,"time":108.83999999999999,"velocity":0.25196850393700787},{"duration":0.23999999999999488,"midi":50,"time":109.2,"velocity":0.25196850393700787},{"duration":0.23999999999999488,"midi":69,"time":109.2,"velocity":0.25196850393700787},{"duration":0.23999999999999488,"midi":62,"time":109.2,"velocity":0.25196850393700787},{"duration":0.23999999999999488,"midi":69,"time":109.2,"velocity":0.25196850393700787},{"duration":0.23999999999999488,"midi":72,"time":109.2,"velocity":0.25196850393700787},{"duration":0.23999999999999488,"midi":45,"time":109.2,"velocity":0.25196850393700787},{"duration":0.23999999999999488,"midi":38,"time":109.2,"velocity":0.25196850393700787},{"duration":0.23999999999999488,"midi":60,"time":109.2,"velocity":0.25196850393700787},{"duration":0.23999999999999488,"midi":57,"time":109.2,"velocity":0.25196850393700787},{"duration":0.23999999999999488,"midi":50,"time":109.2,"velocity":0.25196850393700787},{"duration":0.23999999999999488,"midi":57,"time":109.2,"velocity":0.25196850393700787},{"duration":0.23999999999999488,"midi":70,"time":109.44,"velocity":0.29133858267716534},{"duration":0.7199999999999989,"midi":46,"time":109.44,"velocity":0.25196850393700787},{"duration":0.7199999999999989,"midi":51,"time":109.44,"velocity":0.25196850393700787},{"duration":0.23999999999999488,"midi":58,"time":109.44,"velocity":0.25196850393700787},{"duration":0.5999999999999943,"midi":58,"time":109.44,"velocity":0.25196850393700787},{"duration":0.5999999999999943,"midi":70,"time":109.44,"velocity":0.25196850393700787},{"duration":0.7199999999999989,"midi":63,"time":109.44,"velocity":0.25196850393700787},{"duration":0.7199999999999989,"midi":58,"time":109.44,"velocity":0.29133858267716534},{"duration":0.23999999999999488,"midi":67,"time":109.44,"velocity":0.25196850393700787},{"duration":0.7199999999999989,"midi":39,"time":109.44,"velocity":0.25196850393700787},{"duration":0.7199999999999989,"midi":51,"time":109.44,"velocity":0.25196850393700787},{"duration":0.35999999999999943,"midi":70,"time":109.8,"velocity":0.25196850393700787},{"duration":0.23999999999999488,"midi":67,"time":109.8,"velocity":0.25196850393700787},{"duration":0.35999999999999943,"midi":58,"time":109.8,"velocity":0.25196850393700787},{"duration":0.23999999999999488,"midi":57,"time":110.16,"velocity":0.25196850393700787},{"duration":0.23999999999999488,"midi":60,"time":110.16,"velocity":0.25196850393700787},{"duration":0.23999999999999488,"midi":62,"time":110.16,"velocity":0.25196850393700787},{"duration":0.23999999999999488,"midi":50,"time":110.16,"velocity":0.25196850393700787},{"duration":0.23999999999999488,"midi":45,"time":110.16,"velocity":0.25196850393700787},{"duration":0.23999999999999488,"midi":50,"time":110.16,"velocity":0.25196850393700787},{"duration":0.23999999999999488,"midi":38,"time":110.16,"velocity":0.25196850393700787},{"duration":0.23999999999999488,"midi":69,"time":110.16,"velocity":0.25196850393700787},{"duration":0.23999999999999488,"midi":72,"time":110.16,"velocity":0.25196850393700787},{"duration":0.23999999999999488,"midi":69,"time":110.16,"velocity":0.25196850393700787},{"duration":0.23999999999999488,"midi":57,"time":110.16,"velocity":0.25196850393700787},{"duration":0.2400000000000091,"midi":46,"time":110.39999999999999,"velocity":0.25196850393700787},{"duration":0.2400000000000091,"midi":58,"time":110.39999999999999,"velocity":0.30708661417322836},{"duration":0.2400000000000091,"midi":62,"time":110.39999999999999,"velocity":0.33070866141732286},{"duration":0.2400000000000091,"midi":70,"time":110.39999999999999,"velocity":0.25196850393700787},{"duration":0.2400000000000091,"midi":58,"time":110.39999999999999,"velocity":0.25196850393700787},{"duration":0.2400000000000091,"midi":74,"time":110.39999999999999,"velocity":0.33070866141732286},{"duration":0.2400000000000091,"midi":70,"time":110.39999999999999,"velocity":0.30708661417322836},{"duration":0.2400000000000091,"midi":62,"time":110.39999999999999,"velocity":0.33070866141732286},{"duration":0.2400000000000091,"midi":50,"time":110.39999999999999,"velocity":0.33070866141732286},{"duration":0.2400000000000091,"midi":67,"time":110.39999999999999,"velocity":0.25196850393700787},{"duration":0.2400000000000091,"midi":58,"time":110.39999999999999,"velocity":0.25196850393700787},{"duration":0.23999999999999488,"midi":72,"time":110.64,"velocity":0.25196850393700787},{"duration":0.23999999999999488,"midi":72,"time":110.64,"velocity":0.33070866141732286},{"duration":0.23999999999999488,"midi":55,"time":110.64,"velocity":0.33070866141732286},{"duration":0.23999999999999488,"midi":48,"time":110.64,"velocity":0.33070866141732286},{"duration":0.23999999999999488,"midi":60,"time":110.64,"velocity":0.33070866141732286},{"duration":0.23999999999999488,"midi":69,"time":110.64,"velocity":0.25196850393700787},{"duration":0.23999999999999488,"midi":60,"time":110.64,"velocity":0.25196850393700787},{"duration":0.23999999999999488,"midi":60,"time":110.64,"velocity":0.33070866141732286},{"duration":0.23999999999999488,"midi":67,"time":110.64,"velocity":0.33070866141732286},{"duration":0.23999999999999488,"midi":74,"time":110.88,"velocity":0.25196850393700787},{"duration":0.23999999999999488,"midi":46,"time":110.88,"velocity":0.33070866141732286},{"duration":0.23999999999999488,"midi":58,"time":110.88,"velocity":0.33070866141732286},{"duration":0.23999999999999488,"midi":65,"time":110.88,"velocity":0.33070866141732286},{"duration":0.23999999999999488,"midi":70,"time":110.88,"velocity":0.25196850393700787},{"duration":0.23999999999999488,"midi":70,"time":110.88,"velocity":0.33070866141732286},{"duration":0.23999999999999488,"midi":58,"time":110.88,"velocity":0.33070866141732286},{"duration":0.23999999999999488,"midi":53,"time":110.88,"velocity":0.33070866141732286},{"duration":0.23999999999999488,"midi":62,"time":110.88,"velocity":0.25196850393700787},{"duration":0.2400000000000091,"midi":60,"time":111.11999999999999,"velocity":0.25196850393700787},{"duration":0.2400000000000091,"midi":69,"time":111.11999999999999,"velocity":0.25196850393700787},{"duration":0.2400000000000091,"midi":60,"time":111.11999999999999,"velocity":0.33070866141732286},{"duration":0.2400000000000091,"midi":72,"time":111.11999999999999,"velocity":0.25196850393700787},{"duration":0.2400000000000091,"midi":60,"time":111.11999999999999,"velocity":0.33070866141732286},{"duration":0.2400000000000091,"midi":72,"time":111.11999999999999,"velocity":0.33070866141732286},{"duration":0.2400000000000091,"midi":55,"time":111.11999999999999,"velocity":0.33070866141732286},{"duration":0.2400000000000091,"midi":67,"time":111.11999999999999,"velocity":0.33070866141732286},{"duration":0.2400000000000091,"midi":48,"time":111.11999999999999,"velocity":0.33070866141732286},{"duration":0.23999999999999488,"midi":58,"time":111.36,"velocity":0.25196850393700787},{"duration":0.23999999999999488,"midi":70,"time":111.36,"velocity":0.2992125984251969},{"duration":0.5999999999999943,"midi":58,"time":111.36,"velocity":0.2992125984251969},{"duration":0.7199999999999989,"midi":63,"time":111.36,"velocity":0.25196850393700787},{"duration":0.7199999999999989,"midi":46,"time":111.36,"velocity":0.25196850393700787},{"duration":0.7199999999999989,"midi":58,"time":111.36,"velocity":0.25196850393700787},{"duration":0.7199999999999989,"midi":39,"time":111.36,"velocity":0.25196850393700787},{"duration":0.23999999999999488,"midi":67,"time":111.36,"velocity":0.25196850393700787},{"duration":0.7199999999999989,"midi":51,"time":111.36,"velocity":0.25196850393700787},{"duration":0.5999999999999943,"midi":70,"time":111.36,"velocity":0.25196850393700787},{"duration":0.7199999999999989,"midi":51,"time":111.36,"velocity":0.25196850393700787},{"duration":0.35999999999999943,"midi":58,"time":111.72,"velocity":0.25196850393700787},{"duration":0.35999999999999943,"midi":70,"time":111.72,"velocity":0.25196850393700787},{"duration":0.23999999999999488,"midi":67,"time":111.72,"velocity":0.25196850393700787},{"duration":0.23999999999999488,"midi":50,"time":112.08,"velocity":0.25196850393700787},{"duration":0.23999999999999488,"midi":60,"time":112.08,"velocity":0.25196850393700787},{"duration":0.23999999999999488,"midi":57,"time":112.08,"velocity":0.25196850393700787},{"duration":0.23999999999999488,"midi":69,"time":112.08,"velocity":0.25196850393700787},{"duration":0.23999999999999488,"midi":50,"time":112.08,"velocity":0.25196850393700787},{"duration":0.23999999999999488,"midi":62,"time":112.08,"velocity":0.25196850393700787},{"duration":0.23999999999999488,"midi":57,"time":112.08,"velocity":0.25196850393700787},{"duration":0.23999999999999488,"midi":38,"time":112.08,"velocity":0.25196850393700787},{"duration":0.23999999999999488,"midi":45,"time":112.08,"velocity":0.25196850393700787},{"duration":0.23999999999999488,"midi":72,"time":112.08,"velocity":0.25196850393700787},{"duration":0.23999999999999488,"midi":69,"time":112.08,"velocity":0.25196850393700787},{"duration":0.2400000000000091,"midi":67,"time":112.32,"velocity":0.25196850393700787},{"duration":0.7199999999999989,"midi":46,"time":112.32,"velocity":0.25196850393700787},{"duration":0.7199999999999989,"midi":51,"time":112.32,"velocity":0.25196850393700787},{"duration":0.7199999999999989,"midi":39,"time":112.32,"velocity":0.25196850393700787},{"duration":0.7199999999999989,"midi":63,"time":112.32,"velocity":0.25196850393700787},{"duration":0.2400000000000091,"midi":70,"time":112.32,"velocity":0.29133858267716534},{"duration":0.7199999999999989,"midi":51,"time":112.32,"velocity":0.25196850393700787},{"duration":0.6000000000000085,"midi":70,"time":112.32,"velocity":0.25196850393700787},{"duration":0.2400000000000091,"midi":58,"time":112.32,"velocity":0.25196850393700787},{"duration":0.6000000000000085,"midi":58,"time":112.32,"velocity":0.25196850393700787},{"duration":0.7199999999999989,"midi":58,"time":112.32,"velocity":0.29133858267716534},{"duration":0.35999999999999943,"midi":58,"time":112.67999999999999,"velocity":0.25196850393700787},{"duration":0.35999999999999943,"midi":70,"time":112.67999999999999,"velocity":0.25196850393700787},{"duration":0.2400000000000091,"midi":67,"time":112.67999999999999,"velocity":0.25196850393700787},{"duration":0.2400000000000091,"midi":60,"time":113.03999999999999,"velocity":0.25196850393700787},{"duration":0.2400000000000091,"midi":45,"time":113.03999999999999,"velocity":0.25196850393700787},{"duration":0.2400000000000091,"midi":62,"time":113.03999999999999,"velocity":0.25196850393700787},{"duration":0.2400000000000091,"midi":38,"time":113.03999999999999,"velocity":0.25196850393700787},{"duration":0.2400000000000091,"midi":50,"time":113.03999999999999,"velocity":0.25196850393700787},{"duration":0.2400000000000091,"midi":50,"time":113.03999999999999,"velocity":0.25196850393700787},{"duration":0.2400000000000091,"midi":72,"time":113.03999999999999,"velocity":0.25196850393700787},{"duration":0.2400000000000091,"midi":69,"time":113.03999999999999,"velocity":0.25196850393700787},{"duration":0.2400000000000091,"midi":69,"time":113.03999999999999,"velocity":0.25196850393700787},{"duration":0.2400000000000091,"midi":57,"time":113.03999999999999,"velocity":0.25196850393700787},{"duration":0.2400000000000091,"midi":57,"time":113.03999999999999,"velocity":0.25196850393700787},{"duration":0.7199999999999989,"midi":63,"time":113.28,"velocity":0.25196850393700787},{"duration":0.23999999999999488,"midi":67,"time":113.28,"velocity":0.25196850393700787},{"duration":0.7199999999999989,"midi":51,"time":113.28,"velocity":0.25196850393700787},{"duration":0.7199999999999989,"midi":51,"time":113.28,"velocity":0.25196850393700787},{"duration":0.23999999999999488,"midi":70,"time":113.28,"velocity":0.29133858267716534},{"duration":0.7199999999999989,"midi":46,"time":113.28,"velocity":0.25196850393700787},{"duration":0.23999999999999488,"midi":58,"time":113.28,"velocity":0.25196850393700787},{"duration":0.5999999999999943,"midi":70,"time":113.28,"velocity":0.25196850393700787},{"duration":0.7199999999999989,"midi":39,"time":113.28,"velocity":0.25196850393700787},{"duration":0.5999999999999943,"midi":58,"time":113.28,"velocity":0.25196850393700787},{"duration":0.7199999999999989,"midi":58,"time":113.28,"velocity":0.29133858267716534},{"duration":0.35999999999999943,"midi":70,"time":113.64,"velocity":0.25196850393700787},{"duration":0.23999999999999488,"midi":67,"time":113.64,"velocity":0.25196850393700787},{"duration":0.35999999999999943,"midi":58,"time":113.64,"velocity":0.25196850393700787},{"duration":0.23999999999999488,"midi":72,"time":114,"velocity":0.25196850393700787},{"duration":0.23999999999999488,"midi":69,"time":114,"velocity":0.25196850393700787},{"duration":0.23999999999999488,"midi":62,"time":114,"velocity":0.25196850393700787},{"duration":0.23999999999999488,"midi":38,"time":114,"velocity":0.25196850393700787},{"duration":0.23999999999999488,"midi":45,"time":114,"velocity":0.25196850393700787},{"duration":0.23999999999999488,"midi":60,"time":114,"velocity":0.25196850393700787},{"duration":0.23999999999999488,"midi":57,"time":114,"velocity":0.25196850393700787},{"duration":0.23999999999999488,"midi":57,"time":114,"velocity":0.25196850393700787},{"duration":0.23999999999999488,"midi":69,"time":114,"velocity":0.25196850393700787},{"duration":0.23999999999999488,"midi":50,"time":114,"velocity":0.25196850393700787},{"duration":0.23999999999999488,"midi":50,"time":114,"velocity":0.25196850393700787},{"duration":0.23999999999999488,"midi":67,"time":114.24,"velocity":0.25196850393700787},{"duration":0.23999999999999488,"midi":58,"time":114.24,"velocity":0.25196850393700787},{"duration":0.23999999999999488,"midi":50,"time":114.24,"velocity":0.25196850393700787},{"duration":0.23999999999999488,"midi":46,"time":114.24,"velocity":0.25196850393700787},{"duration":0.23999999999999488,"midi":70,"time":114.24,"velocity":0.25196850393700787},{"duration":0.23999999999999488,"midi":62,"time":114.24,"velocity":0.25196850393700787},{"duration":0.23999999999999488,"midi":58,"time":114.24,"velocity":0.25196850393700787},{"duration":0.23999999999999488,"midi":74,"time":114.24,"velocity":0.33070866141732286},{"duration":0.23999999999999488,"midi":70,"time":114.24,"velocity":0.30708661417322836},{"duration":0.23999999999999488,"midi":62,"time":114.24,"velocity":0.33070866141732286},{"duration":0.23999999999999488,"midi":58,"time":114.24,"velocity":0.30708661417322836},{"duration":0.2400000000000091,"midi":60,"time":114.47999999999999,"velocity":0.33070866141732286},{"duration":0.2400000000000091,"midi":72,"time":114.47999999999999,"velocity":0.33070866141732286},{"duration":0.2400000000000091,"midi":72,"time":114.47999999999999,"velocity":0.25196850393700787},{"duration":0.2400000000000091,"midi":60,"time":114.47999999999999,"velocity":0.25196850393700787},{"duration":0.2400000000000091,"midi":67,"time":114.47999999999999,"velocity":0.33070866141732286},{"duration":0.2400000000000091,"midi":48,"time":114.47999999999999,"velocity":0.33070866141732286},{"duration":0.2400000000000091,"midi":60,"time":114.47999999999999,"velocity":0.33070866141732286},{"duration":0.2400000000000091,"midi":69,"time":114.47999999999999,"velocity":0.25196850393700787},{"duration":0.2400000000000091,"midi":55,"time":114.47999999999999,"velocity":0.33070866141732286},{"duration":0.23999999999999488,"midi":70,"time":114.72,"velocity":0.25196850393700787},{"duration":0.23999999999999488,"midi":62,"time":114.72,"velocity":0.25196850393700787},{"duration":0.23999999999999488,"midi":53,"time":114.72,"velocity":0.33070866141732286},{"duration":0.23999999999999488,"midi":65,"time":114.72,"velocity":0.33070866141732286},{"duration":0.23999999999999488,"midi":70,"time":114.72,"velocity":0.33070866141732286},{"duration":0.23999999999999488,"midi":74,"time":114.72,"velocity":0.25196850393700787},{"duration":0.23999999999999488,"midi":58,"time":114.72,"velocity":0.33070866141732286},{"duration":0.23999999999999488,"midi":46,"time":114.72,"velocity":0.33070866141732286},{"duration":0.23999999999999488,"midi":58,"time":114.72,"velocity":0.33070866141732286},{"duration":0.23999999999999488,"midi":72,"time":114.96,"velocity":0.25196850393700787},{"duration":0.23999999999999488,"midi":60,"time":114.96,"velocity":0.25196850393700787},{"duration":0.23999999999999488,"midi":60,"time":114.96,"velocity":0.33070866141732286},{"duration":0.23999999999999488,"midi":55,"time":114.96,"velocity":0.33070866141732286},{"duration":0.23999999999999488,"midi":69,"time":114.96,"velocity":0.25196850393700787},{"duration":0.23999999999999488,"midi":67,"time":114.96,"velocity":0.33070866141732286},{"duration":0.23999999999999488,"midi":48,"time":114.96,"velocity":0.33070866141732286},{"duration":0.23999999999999488,"midi":72,"time":114.96,"velocity":0.33070866141732286},{"duration":0.23999999999999488,"midi":60,"time":114.96,"velocity":0.33070866141732286},{"duration":0.2400000000000091,"midi":58,"time":115.19999999999999,"velocity":0.25196850393700787},{"duration":0.2400000000000091,"midi":70,"time":115.19999999999999,"velocity":0.25196850393700787},{"duration":0.7200000000000131,"midi":43,"time":115.19999999999999,"velocity":0.33858267716535434},{"duration":0.6000000000000085,"midi":58,"time":115.19999999999999,"velocity":0.30708661417322836},{"duration":0.2400000000000091,"midi":67,"time":115.19999999999999,"velocity":0.25196850393700787},{"duration":0.7200000000000131,"midi":55,"time":115.19999999999999,"velocity":0.30708661417322836},{"duration":0.7200000000000131,"midi":55,"time":115.19999999999999,"velocity":0.33858267716535434},{"duration":0.7200000000000131,"midi":46,"time":115.19999999999999,"velocity":0.30708661417322836},{"duration":0.6000000000000085,"midi":67,"time":115.19999999999999,"velocity":0.30708661417322836},{"duration":0.35999999999999943,"midi":58,"time":115.56,"velocity":0.25196850393700787},{"duration":0.23999999999999488,"midi":70,"time":115.56,"velocity":0.25196850393700787},{"duration":0.35999999999999943,"midi":67,"time":115.56,"velocity":0.25196850393700787},{"duration":0.23999999999999488,"midi":60,"time":115.92,"velocity":0.28346456692913385},{"duration":0.23999999999999488,"midi":69,"time":115.92,"velocity":0.28346456692913385},{"duration":0.23999999999999488,"midi":57,"time":115.92,"velocity":0.28346456692913385},{"duration":0.23999999999999488,"midi":72,"time":115.92,"velocity":0.25196850393700787},{"duration":0.23999999999999488,"midi":48,"time":115.92,"velocity":0.28346456692913385},{"duration":0.23999999999999488,"midi":60,"time":115.92,"velocity":0.25196850393700787},{"duration":0.23999999999999488,"midi":60,"time":115.92,"velocity":0.28346456692913385},{"duration":0.23999999999999488,"midi":69,"time":115.92,"velocity":0.25196850393700787},{"duration":0.23999999999999488,"midi":48,"time":115.92,"velocity":0.28346456692913385},{"duration":0.23999999999999488,"midi":58,"time":116.16,"velocity":0.30708661417322836},{"duration":0.7199999999999989,"midi":55,"time":116.16,"velocity":0.30708661417322836},{"duration":0.7199999999999989,"midi":55,"time":116.16,"velocity":0.33858267716535434},{"duration":0.5999999999999943,"midi":58,"time":116.16,"velocity":0.25196850393700787},{"duration":0.7199999999999989,"midi":46,"time":116.16,"velocity":0.30708661417322836},{"duration":0.23999999999999488,"midi":67,"time":116.16,"velocity":0.25196850393700787},{"duration":0.23999999999999488,"midi":70,"time":116.16,"velocity":0.25196850393700787},{"duration":0.7199999999999989,"midi":43,"time":116.16,"velocity":0.33858267716535434},{"duration":0.5999999999999943,"midi":67,"time":116.16,"velocity":0.30708661417322836},{"duration":0.23999999999999488,"midi":70,"time":116.52,"velocity":0.25196850393700787},{"duration":0.35999999999999943,"midi":67,"time":116.52,"velocity":0.25196850393700787},{"duration":0.35999999999999943,"midi":58,"time":116.52,"velocity":0.25196850393700787},{"duration":0.23999999999999488,"midi":69,"time":116.88,"velocity":0.30708661417322836},{"duration":0.23999999999999488,"midi":57,"time":116.88,"velocity":0.30708661417322836},{"duration":0.23999999999999488,"midi":60,"time":116.88,"velocity":0.30708661417322836},{"duration":0.23999999999999488,"midi":48,"time":116.88,"velocity":0.30708661417322836},{"duration":0.23999999999999488,"midi":60,"time":116.88,"velocity":0.28346456692913385},{"duration":0.23999999999999488,"midi":60,"time":116.88,"velocity":0.25196850393700787},{"duration":0.23999999999999488,"midi":69,"time":116.88,"velocity":0.25196850393700787},{"duration":0.23999999999999488,"midi":48,"time":116.88,"velocity":0.28346456692913385},{"duration":0.23999999999999488,"midi":72,"time":116.88,"velocity":0.25196850393700787},{"duration":0.7199999999999989,"midi":43,"time":117.11999999999999,"velocity":0.33858267716535434},{"duration":0.2400000000000091,"midi":67,"time":117.11999999999999,"velocity":0.25196850393700787},{"duration":0.7199999999999989,"midi":55,"time":117.11999999999999,"velocity":0.33858267716535434},{"duration":0.6000000000000085,"midi":67,"time":117.11999999999999,"velocity":0.30708661417322836},{"duration":0.2400000000000091,"midi":58,"time":117.11999999999999,"velocity":0.30708661417322836},{"duration":0.7199999999999989,"midi":46,"time":117.11999999999999,"velocity":0.30708661417322836},{"duration":0.6000000000000085,"midi":58,"time":117.11999999999999,"velocity":0.25196850393700787},{"duration":0.7199999999999989,"midi":55,"time":117.11999999999999,"velocity":0.30708661417322836},{"duration":0.2400000000000091,"midi":70,"time":117.11999999999999,"velocity":0.25196850393700787},{"duration":0.35999999999999943,"midi":67,"time":117.47999999999999,"velocity":0.25196850393700787},{"duration":0.2400000000000091,"midi":70,"time":117.47999999999999,"velocity":0.25196850393700787},{"duration":0.35999999999999943,"midi":58,"time":117.47999999999999,"velocity":0.25196850393700787},{"duration":0.2400000000000091,"midi":60,"time":117.83999999999999,"velocity":0.28346456692913385},{"duration":0.2400000000000091,"midi":60,"time":117.83999999999999,"velocity":0.28346456692913385},{"duration":0.2400000000000091,"midi":60,"time":117.83999999999999,"velocity":0.25196850393700787},{"duration":0.2400000000000091,"midi":72,"time":117.83999999999999,"velocity":0.25196850393700787},{"duration":0.2400000000000091,"midi":48,"time":117.83999999999999,"velocity":0.28346456692913385},{"duration":0.2400000000000091,"midi":69,"time":117.83999999999999,"velocity":0.25196850393700787},{"duration":0.2400000000000091,"midi":48,"time":117.83999999999999,"velocity":0.28346456692913385},{"duration":0.2400000000000091,"midi":57,"time":117.83999999999999,"velocity":0.28346456692913385},{"duration":0.2400000000000091,"midi":69,"time":117.83999999999999,"velocity":0.28346456692913385},{"duration":0.23999999999999488,"midi":58,"time":118.08,"velocity":0.25196850393700787},{"duration":0.23999999999999488,"midi":58,"time":118.08,"velocity":0.25196850393700787},{"duration":0.23999999999999488,"midi":70,"time":118.08,"velocity":0.25196850393700787},{"duration":0.23999999999999488,"midi":74,"time":118.08,"velocity":0.33858267716535434},{"duration":0.23999999999999488,"midi":50,"time":118.08,"velocity":0.33858267716535434},{"duration":0.23999999999999488,"midi":62,"time":118.08,"velocity":0.33858267716535434},{"duration":0.23999999999999488,"midi":67,"time":118.08,"velocity":0.25196850393700787},{"duration":0.23999999999999488,"midi":62,"time":118.08,"velocity":0.33858267716535434},{"duration":0.23999999999999488,"midi":70,"time":118.08,"velocity":0.25196850393700787},{"duration":0.2400000000000091,"midi":69,"time":118.32,"velocity":0.25196850393700787},{"duration":0.2400000000000091,"midi":72,"time":118.32,"velocity":0.25196850393700787},{"duration":0.2400000000000091,"midi":55,"time":118.32,"velocity":0.33858267716535434},{"duration":0.2400000000000091,"midi":67,"time":118.32,"velocity":0.33858267716535434},{"duration":0.2400000000000091,"midi":60,"time":118.32,"velocity":0.25196850393700787},{"duration":0.2400000000000091,"midi":60,"time":118.32,"velocity":0.33858267716535434},{"duration":0.2400000000000091,"midi":72,"time":118.32,"velocity":0.33858267716535434},{"duration":0.2400000000000091,"midi":48,"time":118.32,"velocity":0.33858267716535434},{"duration":0.2400000000000091,"midi":60,"time":118.32,"velocity":0.33858267716535434},{"duration":0.23999999999999488,"midi":74,"time":118.56,"velocity":0.25196850393700787},{"duration":0.23999999999999488,"midi":58,"time":118.56,"velocity":0.33858267716535434},{"duration":0.23999999999999488,"midi":65,"time":118.56,"velocity":0.33858267716535434},{"duration":0.23999999999999488,"midi":70,"time":118.56,"velocity":0.25196850393700787},{"duration":0.23999999999999488,"midi":70,"time":118.56,"velocity":0.33858267716535434},{"duration":0.23999999999999488,"midi":62,"time":118.56,"velocity":0.25196850393700787},{"duration":0.23999999999999488,"midi":58,"time":118.56,"velocity":0.33858267716535434},{"duration":0.23999999999999488,"midi":46,"time":118.56,"velocity":0.33858267716535434},{"duration":0.23999999999999488,"midi":53,"time":118.56,"velocity":0.33858267716535434},{"duration":0.23999999999999488,"midi":60,"time":118.8,"velocity":0.33858267716535434},{"duration":0.23999999999999488,"midi":72,"time":118.8,"velocity":0.33858267716535434},{"duration":0.23999999999999488,"midi":67,"time":118.8,"velocity":0.33858267716535434},{"duration":0.23999999999999488,"midi":48,"time":118.8,"velocity":0.33858267716535434},{"duration":0.23999999999999488,"midi":69,"time":118.8,"velocity":0.25196850393700787},{"duration":0.23999999999999488,"midi":60,"time":118.8,"velocity":0.25196850393700787},{"duration":0.23999999999999488,"midi":55,"time":118.8,"velocity":0.33858267716535434},{"duration":0.23999999999999488,"midi":60,"time":118.8,"velocity":0.33858267716535434},{"duration":0.23999999999999488,"midi":72,"time":118.8,"velocity":0.25196850393700787},{"duration":0.2400000000000091,"midi":58,"time":119.03999999999999,"velocity":0.25196850393700787},{"duration":0.7199999999999989,"midi":46,"time":119.03999999999999,"velocity":0.30708661417322836},{"duration":0.7199999999999989,"midi":55,"time":119.03999999999999,"velocity":0.30708661417322836},{"duration":0.2400000000000091,"midi":67,"time":119.03999999999999,"velocity":0.30708661417322836},{"duration":0.2400000000000091,"midi":70,"time":119.03999999999999,"velocity":0.25196850393700787},{"duration":0.7199999999999989,"midi":55,"time":119.03999999999999,"velocity":0.33858267716535434},{"duration":0.6000000000000085,"midi":58,"time":119.03999999999999,"velocity":0.30708661417322836},{"duration":0.6000000000000085,"midi":67,"time":119.03999999999999,"velocity":0.25196850393700787},{"duration":0.7199999999999989,"midi":43,"time":119.03999999999999,"velocity":0.33858267716535434},{"duration":0.2400000000000091,"midi":70,"time":119.39999999999999,"velocity":0.25196850393700787},{"duration":0.35999999999999943,"midi":58,"time":119.39999999999999,"velocity":0.25196850393700787},{"duration":0.35999999999999943,"midi":67,"time":119.39999999999999,"velocity":0.25196850393700787},{"duration":0.2400000000000091,"midi":72,"time":119.75999999999999,"velocity":0.25196850393700787},{"duration":0.2400000000000091,"midi":69,"time":119.75999999999999,"velocity":0.25196850393700787},{"duration":0.2400000000000091,"midi":60,"time":119.75999999999999,"velocity":0.28346456692913385},{"duration":0.2400000000000091,"midi":60,"time":119.75999999999999,"velocity":0.28346456692913385},{"duration":0.2400000000000091,"midi":69,"time":119.75999999999999,"velocity":0.28346456692913385},{"duration":0.2400000000000091,"midi":48,"time":119.75999999999999,"velocity":0.28346456692913385},{"duration":0.2400000000000091,"midi":60,"time":119.75999999999999,"velocity":0.25196850393700787},{"duration":0.2400000000000091,"midi":57,"time":119.75999999999999,"velocity":0.28346456692913385},{"duration":0.2400000000000091,"midi":48,"time":119.75999999999999,"velocity":0.28346456692913385},{"duration":0.7199999999999989,"midi":55,"time":120,"velocity":0.30708661417322836},{"duration":0.23999999999999488,"midi":67,"time":120,"velocity":0.30708661417322836},{"duration":0.23999999999999488,"midi":70,"time":120,"velocity":0.25196850393700787},{"duration":0.23999999999999488,"midi":58,"time":120,"velocity":0.25196850393700787},{"duration":0.7199999999999989,"midi":43,"time":120,"velocity":0.33858267716535434},{"duration":0.7199999999999989,"midi":46,"time":120,"velocity":0.30708661417322836},{"duration":0.7199999999999989,"midi":55,"time":120,"velocity":0.33858267716535434},{"duration":0.5999999999999943,"midi":67,"time":120,"velocity":0.25196850393700787},{"duration":0.5999999999999943,"midi":58,"time":120,"velocity":0.30708661417322836},{"duration":0.35999999999999943,"midi":58,"time":120.36,"velocity":0.25196850393700787},{"duration":0.35999999999999943,"midi":67,"time":120.36,"velocity":0.25196850393700787},{"duration":0.23999999999999488,"midi":70,"time":120.36,"velocity":0.25196850393700787},{"duration":0.23999999999999488,"midi":60,"time":120.72,"velocity":0.25196850393700787},{"duration":0.23999999999999488,"midi":48,"time":120.72,"velocity":0.30708661417322836},{"duration":0.23999999999999488,"midi":48,"time":120.72,"velocity":0.28346456692913385},{"duration":0.23999999999999488,"midi":72,"time":120.72,"velocity":0.25196850393700787},{"duration":0.23999999999999488,"midi":57,"time":120.72,"velocity":0.30708661417322836},{"duration":0.23999999999999488,"midi":60,"time":120.72,"velocity":0.28346456692913385},{"duration":0.23999999999999488,"midi":60,"time":120.72,"velocity":0.30708661417322836},{"duration":0.23999999999999488,"midi":69,"time":120.72,"velocity":0.25196850393700787},{"duration":0.23999999999999488,"midi":69,"time":120.72,"velocity":0.30708661417322836},{"duration":0.7199999999999989,"midi":43,"time":120.96,"velocity":0.33858267716535434},{"duration":0.7199999999999989,"midi":55,"time":120.96,"velocity":0.30708661417322836},{"duration":0.23999999999999488,"midi":58,"time":120.96,"velocity":0.25196850393700787},{"duration":0.7199999999999989,"midi":55,"time":120.96,"velocity":0.33858267716535434},{"duration":0.7199999999999989,"midi":46,"time":120.96,"velocity":0.30708661417322836},{"duration":0.23999999999999488,"midi":67,"time":120.96,"velocity":0.30708661417322836},{"duration":0.23999999999999488,"midi":70,"time":120.96,"velocity":0.25196850393700787},{"duration":0.6000000000000085,"midi":67,"time":120.96,"velocity":0.25196850393700787},{"duration":0.6000000000000085,"midi":58,"time":120.96,"velocity":0.30708661417322836},{"duration":0.35999999999999943,"midi":58,"time":121.32,"velocity":0.25196850393700787},{"duration":0.35999999999999943,"midi":67,"time":121.32,"velocity":0.25196850393700787},{"duration":0.2400000000000091,"midi":70,"time":121.32,"velocity":0.25196850393700787},{"duration":0.2400000000000091,"midi":60,"time":121.67999999999999,"velocity":0.28346456692913385},{"duration":0.2400000000000091,"midi":69,"time":121.67999999999999,"velocity":0.25196850393700787},{"duration":0.2400000000000091,"midi":69,"time":121.67999999999999,"velocity":0.28346456692913385},{"duration":0.2400000000000091,"midi":48,"time":121.67999999999999,"velocity":0.28346456692913385},{"duration":0.2400000000000091,"midi":60,"time":121.67999999999999,"velocity":0.28346456692913385},{"duration":0.2400000000000091,"midi":72,"time":121.67999999999999,"velocity":0.25196850393700787},{"duration":0.2400000000000091,"midi":60,"time":121.67999999999999,"velocity":0.25196850393700787},{"duration":0.2400000000000091,"midi":48,"time":121.67999999999999,"velocity":0.28346456692913385},{"duration":0.2400000000000091,"midi":57,"time":121.67999999999999,"velocity":0.28346456692913385},{"duration":0.23999999999999488,"midi":58,"time":121.92,"velocity":0.25196850393700787},{"duration":0.23999999999999488,"midi":62,"time":121.92,"velocity":0.33858267716535434},{"duration":0.23999999999999488,"midi":58,"time":121.92,"velocity":0.25196850393700787},{"duration":0.23999999999999488,"midi":62,"time":121.92,"velocity":0.33858267716535434},{"duration":0.23999999999999488,"midi":70,"time":121.92,"velocity":0.25196850393700787},{"duration":0.23999999999999488,"midi":74,"time":121.92,"velocity":0.33858267716535434},{"duration":0.23999999999999488,"midi":50,"time":121.92,"velocity":0.33858267716535434},{"duration":0.23999999999999488,"midi":67,"time":121.92,"velocity":0.25196850393700787},{"duration":0.23999999999999488,"midi":70,"time":121.92,"velocity":0.25196850393700787},{"duration":0.23999999999999488,"midi":48,"time":122.16,"velocity":0.33858267716535434},{"duration":0.23999999999999488,"midi":67,"time":122.16,"velocity":0.33858267716535434},{"duration":0.23999999999999488,"midi":55,"time":122.16,"velocity":0.33858267716535434},{"duration":0.23999999999999488,"midi":60,"time":122.16,"velocity":0.33858267716535434},{"duration":0.23999999999999488,"midi":60,"time":122.16,"velocity":0.33858267716535434},{"duration":0.23999999999999488,"midi":72,"time":122.16,"velocity":0.25196850393700787},{"duration":0.23999999999999488,"midi":69,"time":122.16,"velocity":0.25196850393700787},{"duration":0.23999999999999488,"midi":72,"time":122.16,"velocity":0.33858267716535434},{"duration":0.23999999999999488,"midi":60,"time":122.16,"velocity":0.25196850393700787},{"duration":0.2400000000000091,"midi":65,"time":122.39999999999999,"velocity":0.33858267716535434},{"duration":0.2400000000000091,"midi":53,"time":122.39999999999999,"velocity":0.33858267716535434},{"duration":0.2400000000000091,"midi":70,"time":122.39999999999999,"velocity":0.33858267716535434},{"duration":0.2400000000000091,"midi":58,"time":122.39999999999999,"velocity":0.33858267716535434},{"duration":0.2400000000000091,"midi":58,"time":122.39999999999999,"velocity":0.33858267716535434},{"duration":0.2400000000000091,"midi":62,"time":122.39999999999999,"velocity":0.25196850393700787},{"duration":0.2400000000000091,"midi":46,"time":122.39999999999999,"velocity":0.33858267716535434},{"duration":0.2400000000000091,"midi":70,"time":122.39999999999999,"velocity":0.25196850393700787},{"duration":0.2400000000000091,"midi":74,"time":122.39999999999999,"velocity":0.25196850393700787},{"duration":0.23999999999999488,"midi":55,"time":122.64,"velocity":0.33858267716535434},{"duration":0.23999999999999488,"midi":60,"time":122.64,"velocity":0.33858267716535434},{"duration":0.23999999999999488,"midi":48,"time":122.64,"velocity":0.33858267716535434},{"duration":0.23999999999999488,"midi":60,"time":122.64,"velocity":0.25196850393700787},{"duration":0.23999999999999488,"midi":72,"time":122.64,"velocity":0.33858267716535434},{"duration":0.23999999999999488,"midi":60,"time":122.64,"velocity":0.33858267716535434},{"duration":0.23999999999999488,"midi":69,"time":122.64,"velocity":0.25196850393700787},{"duration":0.23999999999999488,"midi":72,"time":122.64,"velocity":0.25196850393700787},{"duration":0.23999999999999488,"midi":67,"time":122.64,"velocity":0.33858267716535434},{"duration":0.7199999999999989,"midi":39,"time":122.88,"velocity":0.25196850393700787},{"duration":0.23999999999999488,"midi":58,"time":122.88,"velocity":0.25196850393700787},{"duration":0.7199999999999989,"midi":63,"time":122.88,"velocity":0.25196850393700787},{"duration":0.5999999999999943,"midi":58,"time":122.88,"velocity":0.2992125984251969},{"duration":0.23999999999999488,"midi":70,"time":122.88,"velocity":0.25196850393700787},{"duration":0.7199999999999989,"midi":51,"time":122.88,"velocity":0.25196850393700787},{"duration":0.7199999999999989,"midi":51,"time":122.88,"velocity":0.25196850393700787},{"duration":0.23999999999999488,"midi":67,"time":122.88,"velocity":0.25196850393700787},{"duration":0.5999999999999943,"midi":70,"time":122.88,"velocity":0.2992125984251969},{"duration":0.7199999999999989,"midi":58,"time":122.88,"velocity":0.25196850393700787},{"duration":0.7199999999999989,"midi":46,"time":122.88,"velocity":0.25196850393700787},{"duration":0.23999999999999488,"midi":67,"time":123.24,"velocity":0.25196850393700787},{"duration":0.35999999999999943,"midi":58,"time":123.24,"velocity":0.25196850393700787},{"duration":0.35999999999999943,"midi":70,"time":123.24,"velocity":0.25196850393700787},{"duration":0.23999999999999488,"midi":45,"time":123.6,"velocity":0.25196850393700787},{"duration":0.23999999999999488,"midi":62,"time":123.6,"velocity":0.25196850393700787},{"duration":0.23999999999999488,"midi":69,"time":123.6,"velocity":0.25196850393700787},{"duration":0.23999999999999488,"midi":72,"time":123.6,"velocity":0.25196850393700787},{"duration":0.23999999999999488,"midi":38,"time":123.6,"velocity":0.25196850393700787},{"duration":0.23999999999999488,"midi":50,"time":123.6,"velocity":0.25196850393700787},{"duration":0.23999999999999488,"midi":57,"time":123.6,"velocity":0.25196850393700787},{"duration":0.23999999999999488,"midi":57,"time":123.6,"velocity":0.25196850393700787},{"duration":0.23999999999999488,"midi":60,"time":123.6,"velocity":0.25196850393700787},{"duration":0.23999999999999488,"midi":69,"time":123.6,"velocity":0.25196850393700787},{"duration":0.23999999999999488,"midi":50,"time":123.6,"velocity":0.25196850393700787},{"duration":0.2400000000000091,"midi":70,"time":123.83999999999999,"velocity":0.25196850393700787},{"duration":0.6000000000000085,"midi":70,"time":123.83999999999999,"velocity":0.29133858267716534},{"duration":0.2400000000000091,"midi":58,"time":123.83999999999999,"velocity":0.25196850393700787},{"duration":0.7200000000000131,"midi":63,"time":123.83999999999999,"velocity":0.25196850393700787},{"duration":0.6000000000000085,"midi":58,"time":123.83999999999999,"velocity":0.25196850393700787},{"duration":0.7200000000000131,"midi":39,"time":123.83999999999999,"velocity":0.25196850393700787},{"duration":0.7200000000000131,"midi":51,"time":123.83999999999999,"velocity":0.25196850393700787},{"duration":0.7200000000000131,"midi":51,"time":123.83999999999999,"velocity":0.25196850393700787},{"duration":0.7200000000000131,"midi":58,"time":123.83999999999999,"velocity":0.29133858267716534},{"duration":0.7200000000000131,"midi":46,"time":123.83999999999999,"velocity":0.25196850393700787},{"duration":0.2400000000000091,"midi":67,"time":123.83999999999999,"velocity":0.25196850393700787},{"duration":0.2400000000000091,"midi":67,"time":124.19999999999999,"velocity":0.25196850393700787},{"duration":0.36000000000001364,"midi":70,"time":124.19999999999999,"velocity":0.25196850393700787},{"duration":0.36000000000001364,"midi":58,"time":124.19999999999999,"velocity":0.25196850393700787},{"duration":0.23999999999999488,"midi":72,"time":124.56,"velocity":0.25196850393700787},{"duration":0.23999999999999488,"midi":45,"time":124.56,"velocity":0.25196850393700787},{"duration":0.23999999999999488,"midi":57,"time":124.56,"velocity":0.25196850393700787},{"duration":0.23999999999999488,"midi":69,"time":124.56,"velocity":0.25196850393700787},{"duration":0.23999999999999488,"midi":38,"time":124.56,"velocity":0.25196850393700787},{"duration":0.23999999999999488,"midi":50,"time":124.56,"velocity":0.25196850393700787},{"duration":0.23999999999999488,"midi":50,"time":124.56,"velocity":0.25196850393700787},{"duration":0.23999999999999488,"midi":60,"time":124.56,"velocity":0.25196850393700787},{"duration":0.23999999999999488,"midi":57,"time":124.56,"velocity":0.25196850393700787},{"duration":0.23999999999999488,"midi":62,"time":124.56,"velocity":0.25196850393700787},{"duration":0.23999999999999488,"midi":69,"time":124.56,"velocity":0.25196850393700787},{"duration":0.23999999999999488,"midi":67,"time":124.8,"velocity":0.25196850393700787},{"duration":0.7199999999999989,"midi":51,"time":124.8,"velocity":0.25196850393700787},{"duration":0.23999999999999488,"midi":70,"time":124.8,"velocity":0.25196850393700787},{"duration":0.23999999999999488,"midi":58,"time":124.8,"velocity":0.29133858267716534},{"duration":0.7199999999999989,"midi":51,"time":124.8,"velocity":0.25196850393700787},{"duration":0.5999999999999943,"midi":58,"time":124.8,"velocity":0.25196850393700787},{"duration":0.7199999999999989,"midi":63,"time":124.8,"velocity":0.25196850393700787},{"duration":0.5999999999999943,"midi":70,"time":124.8,"velocity":0.29133858267716534},{"duration":0.7199999999999989,"midi":39,"time":124.8,"velocity":0.25196850393700787},{"duration":0.7199999999999989,"midi":58,"time":124.8,"velocity":0.25196850393700787},{"duration":0.7199999999999989,"midi":46,"time":124.8,"velocity":0.25196850393700787},{"duration":0.35999999999999943,"midi":70,"time":125.16,"velocity":0.25196850393700787},{"duration":0.23999999999999488,"midi":67,"time":125.16,"velocity":0.25196850393700787},{"duration":0.35999999999999943,"midi":58,"time":125.16,"velocity":0.25196850393700787},{"duration":0.23999999999999488,"midi":62,"time":125.52,"velocity":0.25196850393700787},{"duration":0.23999999999999488,"midi":69,"time":125.52,"velocity":0.25196850393700787},{"duration":0.23999999999999488,"midi":72,"time":125.52,"velocity":0.25196850393700787},{"duration":0.23999999999999488,"midi":45,"time":125.52,"velocity":0.25196850393700787},{"duration":0.23999999999999488,"midi":60,"time":125.52,"velocity":0.25196850393700787},{"duration":0.23999999999999488,"midi":50,"time":125.52,"velocity":0.25196850393700787},{"duration":0.23999999999999488,"midi":57,"time":125.52,"velocity":0.25196850393700787},{"duration":0.23999999999999488,"midi":50,"time":125.52,"velocity":0.25196850393700787},{"duration":0.23999999999999488,"midi":57,"time":125.52,"velocity":0.25196850393700787},{"duration":0.23999999999999488,"midi":38,"time":125.52,"velocity":0.25196850393700787},{"duration":0.23999999999999488,"midi":69,"time":125.52,"velocity":0.25196850393700787},{"duration":0.2400000000000091,"midi":67,"time":125.75999999999999,"velocity":0.25196850393700787},{"duration":0.2400000000000091,"midi":70,"time":125.75999999999999,"velocity":0.25196850393700787},{"duration":0.2400000000000091,"midi":74,"time":125.75999999999999,"velocity":0.33070866141732286},{"duration":0.2400000000000091,"midi":70,"time":125.75999999999999,"velocity":0.30708661417322836},{"duration":0.2400000000000091,"midi":58,"time":125.75999999999999,"velocity":0.30708661417322836},{"duration":0.2400000000000091,"midi":62,"time":125.75999999999999,"velocity":0.33070866141732286},{"duration":0.2400000000000091,"midi":46,"time":125.75999999999999,"velocity":0.25196850393700787},{"duration":0.2400000000000091,"midi":62,"time":125.75999999999999,"velocity":0.33070866141732286},{"duration":0.2400000000000091,"midi":50,"time":125.75999999999999,"velocity":0.33070866141732286},{"duration":0.2400000000000091,"midi":58,"time":125.75999999999999,"velocity":0.25196850393700787},{"duration":0.2400000000000091,"midi":58,"time":125.75999999999999,"velocity":0.25196850393700787},{"duration":0.23999999999999488,"midi":48,"time":126,"velocity":0.33070866141732286},{"duration":0.23999999999999488,"midi":60,"time":126,"velocity":0.33070866141732286},{"duration":0.23999999999999488,"midi":60,"time":126,"velocity":0.33070866141732286},{"duration":0.23999999999999488,"midi":67,"time":126,"velocity":0.33070866141732286},{"duration":0.23999999999999488,"midi":72,"time":126,"velocity":0.25196850393700787},{"duration":0.23999999999999488,"midi":72,"time":126,"velocity":0.33070866141732286},{"duration":0.23999999999999488,"midi":69,"time":126,"velocity":0.25196850393700787},{"duration":0.23999999999999488,"midi":55,"time":126,"velocity":0.33070866141732286},{"duration":0.23999999999999488,"midi":60,"time":126,"velocity":0.25196850393700787},{"duration":0.23999999999999488,"midi":70,"time":126.24,"velocity":0.25196850393700787},{"duration":0.23999999999999488,"midi":65,"time":126.24,"velocity":0.33070866141732286},{"duration":0.23999999999999488,"midi":58,"time":126.24,"velocity":0.33070866141732286},{"duration":0.23999999999999488,"midi":58,"time":126.24,"velocity":0.33070866141732286},{"duration":0.23999999999999488,"midi":53,"time":126.24,"velocity":0.33070866141732286},{"duration":0.23999999999999488,"midi":62,"time":126.24,"velocity":0.25196850393700787},{"duration":0.23999999999999488,"midi":46,"time":126.24,"velocity":0.33070866141732286},{"duration":0.23999999999999488,"midi":74,"time":126.24,"velocity":0.25196850393700787},{"duration":0.23999999999999488,"midi":70,"time":126.24,"velocity":0.33070866141732286},{"duration":0.2400000000000091,"midi":60,"time":126.47999999999999,"velocity":0.33070866141732286},{"duration":0.2400000000000091,"midi":67,"time":126.47999999999999,"velocity":0.33070866141732286},{"duration":0.2400000000000091,"midi":72,"time":126.47999999999999,"velocity":0.33070866141732286},{"duration":0.2400000000000091,"midi":72,"time":126.47999999999999,"velocity":0.25196850393700787},{"duration":0.2400000000000091,"midi":48,"time":126.47999999999999,"velocity":0.33070866141732286},{"duration":0.2400000000000091,"midi":60,"time":126.47999999999999,"velocity":0.33070866141732286},{"duration":0.2400000000000091,"midi":55,"time":126.47999999999999,"velocity":0.33070866141732286},{"duration":0.2400000000000091,"midi":60,"time":126.47999999999999,"velocity":0.25196850393700787},{"duration":0.2400000000000091,"midi":69,"time":126.47999999999999,"velocity":0.25196850393700787},{"duration":0.7199999999999989,"midi":51,"time":126.72,"velocity":0.25196850393700787},{"duration":0.7199999999999989,"midi":46,"time":126.72,"velocity":0.25196850393700787},{"duration":0.23999999999999488,"midi":70,"time":126.72,"velocity":0.2992125984251969},{"duration":0.23999999999999488,"midi":58,"time":126.72,"velocity":0.23622047244094488},{"duration":0.5999999999999943,"midi":70,"time":126.72,"velocity":0.23622047244094488},{"duration":0.23999999999999488,"midi":67,"time":126.72,"velocity":0.23622047244094488},{"duration":0.7199999999999989,"midi":63,"time":126.72,"velocity":0.25196850393700787},{"duration":0.7199999999999989,"midi":51,"time":126.72,"velocity":0.25196850393700787},{"duration":0.5999999999999943,"midi":58,"time":126.72,"velocity":0.2992125984251969},{"duration":0.7199999999999989,"midi":39,"time":126.72,"velocity":0.25196850393700787},{"duration":0.7199999999999989,"midi":58,"time":126.72,"velocity":0.25196850393700787},{"duration":0.23999999999999488,"midi":67,"time":127.08,"velocity":0.2283464566929134},{"duration":0.35999999999999943,"midi":70,"time":127.08,"velocity":0.2283464566929134},{"duration":0.35999999999999943,"midi":58,"time":127.08,"velocity":0.2283464566929134},{"duration":0.23999999999999488,"midi":62,"time":127.44,"velocity":0.25196850393700787},{"duration":0.23999999999999488,"midi":50,"time":127.44,"velocity":0.25196850393700787},{"duration":0.23999999999999488,"midi":57,"time":127.44,"velocity":0.25196850393700787},{"duration":0.23999999999999488,"midi":57,"time":127.44,"velocity":0.25196850393700787},{"duration":0.23999999999999488,"midi":45,"time":127.44,"velocity":0.25196850393700787},{"duration":0.23999999999999488,"midi":69,"time":127.44,"velocity":0.25196850393700787},{"duration":0.23999999999999488,"midi":38,"time":127.44,"velocity":0.25196850393700787},{"duration":0.23999999999999488,"midi":69,"time":127.44,"velocity":0.2204724409448819},{"duration":0.23999999999999488,"midi":60,"time":127.44,"velocity":0.2204724409448819},{"duration":0.23999999999999488,"midi":50,"time":127.44,"velocity":0.25196850393700787},{"duration":0.23999999999999488,"midi":72,"time":127.44,"velocity":0.2204724409448819},{"duration":0.2400000000000091,"midi":70,"time":127.67999999999999,"velocity":0.29133858267716534},{"duration":0.7200000000000131,"midi":63,"time":127.67999999999999,"velocity":0.25196850393700787},{"duration":0.7200000000000131,"midi":51,"time":127.67999999999999,"velocity":0.25196850393700787},{"duration":0.6000000000000085,"midi":70,"time":127.67999999999999,"velocity":0.2125984251968504},{"duration":0.7200000000000131,"midi":39,"time":127.67999999999999,"velocity":0.25196850393700787},{"duration":0.7200000000000131,"midi":51,"time":127.67999999999999,"velocity":0.25196850393700787},{"duration":0.2400000000000091,"midi":58,"time":127.67999999999999,"velocity":0.29133858267716534},{"duration":0.7200000000000131,"midi":46,"time":127.67999999999999,"velocity":0.25196850393700787},{"duration":0.2400000000000091,"midi":67,"time":127.67999999999999,"velocity":0.2125984251968504},{"duration":0.6000000000000085,"midi":58,"time":127.67999999999999,"velocity":0.25196850393700787},{"duration":0.7200000000000131,"midi":58,"time":127.67999999999999,"velocity":0.2125984251968504},{"duration":0.36000000000001364,"midi":70,"time":128.04,"velocity":0.1889763779527559},{"duration":0.36000000000001364,"midi":58,"time":128.04,"velocity":0.1889763779527559},{"duration":0.2400000000000091,"midi":67,"time":128.04,"velocity":0.1889763779527559},{"duration":0.23999999999998067,"midi":45,"time":128.4,"velocity":0.25196850393700787},{"duration":0.23999999999998067,"midi":57,"time":128.4,"velocity":0.25196850393700787},{"duration":0.23999999999998067,"midi":72,"time":128.4,"velocity":0.18110236220472442},{"duration":0.23999999999998067,"midi":50,"time":128.4,"velocity":0.25196850393700787},{"duration":0.23999999999998067,"midi":69,"time":128.4,"velocity":0.25196850393700787},{"duration":0.23999999999998067,"midi":57,"time":128.4,"velocity":0.25196850393700787},{"duration":0.23999999999998067,"midi":62,"time":128.4,"velocity":0.25196850393700787},{"duration":0.23999999999998067,"midi":69,"time":128.4,"velocity":0.18110236220472442},{"duration":0.23999999999998067,"midi":60,"time":128.4,"velocity":0.18110236220472442},{"duration":0.23999999999998067,"midi":38,"time":128.4,"velocity":0.25196850393700787},{"duration":0.23999999999998067,"midi":50,"time":128.4,"velocity":0.25196850393700787},{"duration":0.7199999999999989,"midi":46,"time":128.64,"velocity":0.25196850393700787},{"duration":0.2400000000000091,"midi":58,"time":128.64,"velocity":0.25196850393700787},{"duration":0.7199999999999989,"midi":39,"time":128.64,"velocity":0.25196850393700787},{"duration":0.6000000000000227,"midi":58,"time":128.64,"velocity":0.1732283464566929},{"duration":0.7199999999999989,"midi":63,"time":128.64,"velocity":0.25196850393700787},{"duration":0.2400000000000091,"midi":70,"time":128.64,"velocity":0.1732283464566929},{"duration":0.7199999999999989,"midi":51,"time":128.64,"velocity":0.25196850393700787},{"duration":0.2400000000000091,"midi":67,"time":128.64,"velocity":0.1732283464566929},{"duration":0.6000000000000227,"midi":70,"time":128.64,"velocity":0.29133858267716534},{"duration":0.7199999999999989,"midi":58,"time":128.64,"velocity":0.29133858267716534},{"duration":0.7199999999999989,"midi":51,"time":128.64,"velocity":0.25196850393700787},{"duration":0.2400000000000091,"midi":67,"time":129,"velocity":0.15748031496062992},{"duration":0.3599999999999852,"midi":58,"time":129,"velocity":0.15748031496062992},{"duration":0.3599999999999852,"midi":70,"time":129,"velocity":0.15748031496062992},{"duration":0.2400000000000091,"midi":69,"time":129.35999999999999,"velocity":0.14960629921259844},{"duration":0.2400000000000091,"midi":50,"time":129.35999999999999,"velocity":0.25196850393700787},{"duration":0.2400000000000091,"midi":38,"time":129.35999999999999,"velocity":0.25196850393700787},{"duration":0.2400000000000091,"midi":57,"time":129.35999999999999,"velocity":0.25196850393700787},{"duration":0.2400000000000091,"midi":57,"time":129.35999999999999,"velocity":0.25196850393700787},{"duration":0.2400000000000091,"midi":45,"time":129.35999999999999,"velocity":0.25196850393700787},{"duration":0.2400000000000091,"midi":69,"time":129.35999999999999,"velocity":0.25196850393700787},{"duration":0.2400000000000091,"midi":60,"time":129.35999999999999,"velocity":0.14960629921259844},{"duration":0.2400000000000091,"midi":62,"time":129.35999999999999,"velocity":0.25196850393700787},{"duration":0.2400000000000091,"midi":50,"time":129.35999999999999,"velocity":0.25196850393700787},{"duration":0.2400000000000091,"midi":72,"time":129.35999999999999,"velocity":0.14960629921259844},{"duration":0.2400000000000091,"midi":50,"time":129.6,"velocity":0.25196850393700787},{"duration":0.2400000000000091,"midi":62,"time":129.6,"velocity":0.33070866141732286},{"duration":0.2400000000000091,"midi":62,"time":129.6,"velocity":0.14173228346456693},{"duration":0.2400000000000091,"midi":74,"time":129.6,"velocity":0.14173228346456693},{"duration":0.2400000000000091,"midi":58,"time":129.6,"velocity":0.30708661417322836},{"duration":0.2400000000000091,"midi":62,"time":129.6,"velocity":0.25196850393700787},{"duration":0.2400000000000091,"midi":71,"time":129.6,"velocity":0.14173228346456693},{"duration":0.2400000000000091,"midi":70,"time":129.6,"velocity":0.30708661417322836},{"duration":0.2400000000000091,"midi":58,"time":129.6,"velocity":0.25196850393700787},{"duration":0.2400000000000091,"midi":46,"time":129.6,"velocity":0.25196850393700787},{"duration":0.2400000000000091,"midi":74,"time":129.6,"velocity":0.33070866141732286},{"duration":0.23999999999998067,"midi":55,"time":129.84,"velocity":0.33070866141732286},{"duration":0.23999999999998067,"midi":48,"time":129.84,"velocity":0.33070866141732286},{"duration":0.23999999999998067,"midi":72,"time":129.84,"velocity":0.12598425196850394},{"duration":0.23999999999998067,"midi":67,"time":129.84,"velocity":0.33070866141732286},{"duration":0.23999999999998067,"midi":60,"time":129.84,"velocity":0.33070866141732286},{"duration":0.23999999999998067,"midi":69,"time":129.84,"velocity":0.12598425196850394},{"duration":0.23999999999998067,"midi":72,"time":129.84,"velocity":0.33070866141732286},{"duration":0.23999999999998067,"midi":60,"time":129.84,"velocity":0.12598425196850394},{"duration":0.23999999999998067,"midi":60,"time":129.84,"velocity":0.33070866141732286},{"duration":0.2400000000000091,"midi":70,"time":130.07999999999998,"velocity":0.33070866141732286},{"duration":0.2400000000000091,"midi":53,"time":130.07999999999998,"velocity":0.33070866141732286},{"duration":0.2400000000000091,"midi":58,"time":130.07999999999998,"velocity":0.33070866141732286},{"duration":0.2400000000000091,"midi":58,"time":130.07999999999998,"velocity":0.33070866141732286},{"duration":0.2400000000000091,"midi":46,"time":130.07999999999998,"velocity":0.33070866141732286},{"duration":0.2400000000000091,"midi":74,"time":130.07999999999998,"velocity":0.10236220472440945},{"duration":0.2400000000000091,"midi":62,"time":130.07999999999998,"velocity":0.10236220472440945},{"duration":0.2400000000000091,"midi":65,"time":130.07999999999998,"velocity":0.33070866141732286},{"duration":0.2400000000000091,"midi":70,"time":130.07999999999998,"velocity":0.10236220472440945},{"duration":0.2400000000000091,"midi":72,"time":130.32,"velocity":0.33070866141732286},{"duration":0.2400000000000091,"midi":60,"time":130.32,"velocity":0.09448818897637795},{"duration":0.2400000000000091,"midi":69,"time":130.32,"velocity":0.09448818897637795},{"duration":0.2400000000000091,"midi":60,"time":130.32,"velocity":0.33070866141732286},{"duration":0.2400000000000091,"midi":48,"time":130.32,"velocity":0.33070866141732286},{"duration":0.2400000000000091,"midi":67,"time":130.32,"velocity":0.33070866141732286},{"duration":0.2400000000000091,"midi":55,"time":130.32,"velocity":0.33070866141732286},{"duration":0.2400000000000091,"midi":60,"time":130.32,"velocity":0.33070866141732286},{"duration":0.2400000000000091,"midi":72,"time":130.32,"velocity":0.09448818897637795},{"duration":1.9199999999999875,"midi":48,"time":130.56,"velocity":0.2755905511811024},{"duration":1.9199999999999875,"midi":43,"time":130.56,"velocity":0.2755905511811024},{"duration":0.23999999999998067,"midi":75,"time":130.56,"velocity":0.3464566929133858},{"duration":0.23999999999998067,"midi":82,"time":130.56,"velocity":0.3858267716535433},{"duration":1.9199999999999875,"midi":60,"time":130.56,"velocity":0.2755905511811024},{"duration":1.9199999999999875,"midi":48,"time":130.56,"velocity":0.2755905511811024},{"duration":1.9199999999999875,"midi":55,"time":130.56,"velocity":0.2755905511811024},{"duration":1.9199999999999875,"midi":36,"time":130.56,"velocity":0.2755905511811024},{"duration":0.2400000000000091,"midi":82,"time":131.51999999999998,"velocity":0.3858267716535433},{"duration":0.2400000000000091,"midi":74,"time":131.51999999999998,"velocity":0.33070866141732286},{"duration":0.12000000000000455,"midi":72,"time":131.76,"velocity":0.33070866141732286},{"duration":0.12000000000000455,"midi":81,"time":131.76,"velocity":0.3858267716535433},{"duration":0.12000000000000455,"midi":74,"time":131.82,"velocity":0.33070866141732286},{"duration":0.12000000000000455,"midi":82,"time":131.82,"velocity":0.3858267716535433},{"duration":0.12000000000000455,"midi":81,"time":131.88,"velocity":0.3858267716535433},{"duration":0.12000000000000455,"midi":72,"time":131.88,"velocity":0.33070866141732286},{"duration":0.2400000000000091,"midi":79,"time":132,"velocity":0.3858267716535433},{"duration":0.2400000000000091,"midi":70,"time":132,"velocity":0.33070866141732286},{"duration":0.23999999999998067,"midi":81,"time":132.24,"velocity":0.3858267716535433},{"duration":0.23999999999998067,"midi":72,"time":132.24,"velocity":0.33070866141732286},{"duration":1.920000000000016,"midi":38,"time":132.48,"velocity":0.2755905511811024},{"duration":0.2400000000000091,"midi":82,"time":132.48,"velocity":0.3858267716535433},{"duration":0.2400000000000091,"midi":77,"time":132.48,"velocity":0.3228346456692913},{"duration":1.920000000000016,"midi":57,"time":132.48,"velocity":0.2755905511811024},{"duration":1.920000000000016,"midi":62,"time":132.48,"velocity":0.2755905511811024},{"duration":1.920000000000016,"midi":50,"time":132.48,"velocity":0.2755905511811024},{"duration":1.920000000000016,"midi":50,"time":132.48,"velocity":0.2755905511811024},{"duration":0.2400000000000091,"midi":74,"time":132.48,"velocity":0.3228346456692913},{"duration":1.920000000000016,"midi":45,"time":132.48,"velocity":0.2755905511811024},{"duration":0.2400000000000091,"midi":82,"time":133.44,"velocity":0.3858267716535433},{"duration":0.2400000000000091,"midi":74,"time":133.44,"velocity":0.3228346456692913},{"duration":0.2400000000000091,"midi":77,"time":133.44,"velocity":0.3228346456692913},{"duration":0.11999999999997613,"midi":72,"time":133.68,"velocity":0.3858267716535433},{"duration":0.11999999999997613,"midi":81,"time":133.68,"velocity":0.3858267716535433},{"duration":0.11999999999997613,"midi":82,"time":133.74,"velocity":0.3858267716535433},{"duration":0.11999999999997613,"midi":74,"time":133.74,"velocity":0.3858267716535433},{"duration":0.12000000000000455,"midi":72,"time":133.79999999999998,"velocity":0.3858267716535433},{"duration":0.12000000000000455,"midi":81,"time":133.79999999999998,"velocity":0.3858267716535433},{"duration":0.2400000000000091,"midi":70,"time":133.92,"velocity":0.3858267716535433},{"duration":0.2400000000000091,"midi":79,"time":133.92,"velocity":0.3858267716535433},{"duration":0.2400000000000091,"midi":72,"time":134.16,"velocity":0.3858267716535433},{"duration":0.2400000000000091,"midi":81,"time":134.16,"velocity":0.3858267716535433},{"duration":0.9599999999999795,"midi":63,"time":134.4,"velocity":0.2755905511811024},{"duration":0.9599999999999795,"midi":51,"time":134.4,"velocity":0.2755905511811024},{"duration":0.9599999999999795,"midi":51,"time":134.4,"velocity":0.2755905511811024},{"duration":0.23999999999998067,"midi":77,"time":134.4,"velocity":0.3543307086614173},{"duration":0.23999999999998067,"midi":74,"time":134.4,"velocity":0.3228346456692913},{"duration":0.9599999999999795,"midi":46,"time":134.4,"velocity":0.2755905511811024},{"duration":0.23999999999998067,"midi":82,"time":134.4,"velocity":0.3858267716535433},{"duration":0.9599999999999795,"midi":58,"time":134.4,"velocity":0.2755905511811024},{"duration":0.9599999999999795,"midi":39,"time":134.4,"velocity":0.2755905511811024},{"duration":0.23999999999998067,"midi":81,"time":135.12,"velocity":0.3858267716535433},{"duration":0.2400000000000091,"midi":72,"time":135.35999999999999,"velocity":0.3464566929133858},{"duration":0.960000000000008,"midi":41,"time":135.35999999999999,"velocity":0.2755905511811024},{"duration":0.960000000000008,"midi":53,"time":135.35999999999999,"velocity":0.2755905511811024},{"duration":0.2400000000000091,"midi":77,"time":135.35999999999999,"velocity":0.3858267716535433},{"duration":0.960000000000008,"midi":60,"time":135.35999999999999,"velocity":0.2755905511811024},{"duration":0.960000000000008,"midi":48,"time":135.35999999999999,"velocity":0.2755905511811024},{"duration":0.960000000000008,"midi":53,"time":135.35999999999999,"velocity":0.2755905511811024},{"duration":0.960000000000008,"midi":65,"time":135.35999999999999,"velocity":0.2755905511811024},{"duration":0.12000000000000455,"midi":74,"time":136.01999999999998,"velocity":0.3858267716535433},{"duration":0.2400000000000091,"midi":69,"time":136.07999999999998,"velocity":0.2992125984251969},{"duration":0.2400000000000091,"midi":75,"time":136.07999999999998,"velocity":0.3858267716535433},{"duration":0.960000000000008,"midi":67,"time":136.32,"velocity":0.2755905511811024},{"duration":0.2400000000000091,"midi":74,"time":136.32,"velocity":0.3858267716535433},{"duration":0.960000000000008,"midi":43,"time":136.32,"velocity":0.2755905511811024},{"duration":0.960000000000008,"midi":55,"time":136.32,"velocity":0.2755905511811024},{"duration":0.960000000000008,"midi":55,"time":136.32,"velocity":0.2755905511811024},{"duration":0.960000000000008,"midi":50,"time":136.32,"velocity":0.2755905511811024},{"duration":0.2400000000000091,"midi":70,"time":136.32,"velocity":0.2992125984251969},{"duration":0.960000000000008,"midi":62,"time":136.32,"velocity":0.2755905511811024},{"duration":0.2400000000000091,"midi":72,"time":137.04,"velocity":0.3858267716535433},{"duration":0.2400000000000091,"midi":67,"time":137.04,"velocity":0.30708661417322836},{"duration":0.960000000000008,"midi":41,"time":137.28,"velocity":0.2755905511811024},{"duration":0.23999999999998067,"midi":65,"time":137.28,"velocity":0.28346456692913385},{"duration":0.960000000000008,"midi":65,"time":137.28,"velocity":0.30708661417322836},{"duration":0.23999999999998067,"midi":70,"time":137.28,"velocity":0.3858267716535433},{"duration":0.960000000000008,"midi":60,"time":137.28,"velocity":0.28346456692913385},{"duration":0.960000000000008,"midi":53,"time":137.28,"velocity":0.2755905511811024},{"duration":0.960000000000008,"midi":48,"time":137.28,"velocity":0.2755905511811024},{"duration":0.960000000000008,"midi":53,"time":137.28,"velocity":0.28346456692913385},{"duration":0.2400000000000091,"midi":67,"time":137.51999999999998,"velocity":0.30708661417322836},{"duration":0.2400000000000091,"midi":72,"time":137.51999999999998,"velocity":0.3858267716535433},{"duration":0.2400000000000091,"midi":70,"time":137.76,"velocity":0.30708661417322836},{"duration":0.2400000000000091,"midi":74,"time":137.76,"velocity":0.3858267716535433},{"duration":0.2400000000000091,"midi":72,"time":138,"velocity":0.30708661417322836},{"duration":0.2400000000000091,"midi":75,"time":138,"velocity":0.3858267716535433},{"duration":0.23999999999998067,"midi":74,"time":138.24,"velocity":0.30708661417322836},{"duration":0.23999999999998067,"midi":77,"time":138.24,"velocity":0.3858267716535433},{"duration":1.9199999999999875,"midi":48,"time":138.24,"velocity":0.2755905511811024},{"duration":1.9199999999999875,"midi":36,"time":138.24,"velocity":0.2755905511811024},{"duration":1.9199999999999875,"midi":48,"time":138.24,"velocity":0.2755905511811024},{"duration":1.9199999999999875,"midi":55,"time":138.24,"velocity":0.2755905511811024},{"duration":1.9199999999999875,"midi":60,"time":138.24,"velocity":0.2755905511811024},{"duration":1.9199999999999875,"midi":43,"time":138.24,"velocity":0.2755905511811024},{"duration":0.2400000000000091,"midi":74,"time":138.48,"velocity":0.30708661417322836},{"duration":0.2400000000000091,"midi":77,"time":138.48,"velocity":0.3858267716535433},{"duration":0.2400000000000091,"midi":77,"time":138.72,"velocity":0.3858267716535433},{"duration":0.2400000000000091,"midi":72,"time":138.72,"velocity":0.30708661417322836},{"duration":0.23999999999998067,"midi":77,"time":138.96,"velocity":0.3858267716535433},{"duration":0.23999999999998067,"midi":72,"time":138.96,"velocity":0.30708661417322836},{"duration":0.4800000000000182,"midi":77,"time":139.2,"velocity":0.3858267716535433},{"duration":0.4800000000000182,"midi":70,"time":139.2,"velocity":0.30708661417322836},{"duration":0.23999999999998067,"midi":70,"time":139.68,"velocity":0.3858267716535433},{"duration":0.12000000000000455,"midi":73,"time":139.85999999999999,"velocity":0.3858267716535433},{"duration":0.2400000000000091,"midi":74,"time":139.92,"velocity":0.3858267716535433},{"duration":1.9199999999999875,"midi":38,"time":140.16,"velocity":0.2755905511811024},{"duration":1.9199999999999875,"midi":62,"time":140.16,"velocity":0.2755905511811024},{"duration":0.2400000000000091,"midi":69,"time":140.16,"velocity":0.30708661417322836},{"duration":1.9199999999999875,"midi":57,"time":140.16,"velocity":0.2755905511811024},{"duration":0.2400000000000091,"midi":72,"time":140.16,"velocity":0.3858267716535433},{"duration":1.9199999999999875,"midi":50,"time":140.16,"velocity":0.2755905511811024},{"duration":1.9199999999999875,"midi":50,"time":140.16,"velocity":0.2755905511811024},{"duration":1.9199999999999875,"midi":45,"time":140.16,"velocity":0.2755905511811024},{"duration":0.23999999999998067,"midi":69,"time":140.4,"velocity":0.30708661417322836},{"duration":0.23999999999998067,"midi":72,"time":140.4,"velocity":0.3858267716535433},{"duration":0.2400000000000091,"midi":67,"time":140.64,"velocity":0.30708661417322836},{"duration":0.2400000000000091,"midi":72,"time":140.64,"velocity":0.3858267716535433},{"duration":0.2400000000000091,"midi":67,"time":140.88,"velocity":0.30708661417322836},{"duration":0.2400000000000091,"midi":72,"time":140.88,"velocity":0.3858267716535433},{"duration":0.3599999999999852,"midi":72,"time":141.12,"velocity":0.3858267716535433},{"duration":0.3599999999999852,"midi":65,"time":141.12,"velocity":0.30708661417322836},{"duration":0.12000000000000455,"midi":73,"time":141.54,"velocity":0.3858267716535433},{"duration":0.2400000000000091,"midi":70,"time":141.6,"velocity":0.30708661417322836},{"duration":0.2400000000000091,"midi":74,"time":141.6,"velocity":0.3858267716535433},{"duration":0.23999999999998067,"midi":67,"time":141.84,"velocity":0.30708661417322836},{"duration":0.23999999999998067,"midi":72,"time":141.84,"velocity":0.3858267716535433},{"duration":0.960000000000008,"midi":63,"time":142.07999999999998,"velocity":0.2755905511811024},{"duration":0.4800000000000182,"midi":70,"time":142.07999999999998,"velocity":0.3858267716535433},{"duration":0.960000000000008,"midi":58,"time":142.07999999999998,"velocity":0.2755905511811024},{"duration":0.960000000000008,"midi":39,"time":142.07999999999998,"velocity":0.2755905511811024},{"duration":0.4800000000000182,"midi":65,"time":142.07999999999998,"velocity":0.30708661417322836},{"duration":0.960000000000008,"midi":51,"time":142.07999999999998,"velocity":0.2755905511811024},{"duration":0.960000000000008,"midi":46,"time":142.07999999999998,"velocity":0.2755905511811024},{"duration":0.960000000000008,"midi":51,"time":142.07999999999998,"velocity":0.2755905511811024},{"duration":0.2400000000000091,"midi":62,"time":142.79999999999998,"velocity":0.30708661417322836},{"duration":0.2400000000000091,"midi":65,"time":142.79999999999998,"velocity":0.3858267716535433},{"duration":0.2400000000000091,"midi":74,"time":143.04,"velocity":0.3858267716535433},{"duration":0.2400000000000091,"midi":70,"time":143.04,"velocity":0.30708661417322836},{"duration":0.960000000000008,"midi":60,"time":143.04,"velocity":0.2755905511811024},{"duration":0.960000000000008,"midi":65,"time":143.04,"velocity":0.2755905511811024},{"duration":0.960000000000008,"midi":53,"time":143.04,"velocity":0.2755905511811024},{"duration":0.960000000000008,"midi":48,"time":143.04,"velocity":0.2755905511811024},{"duration":0.960000000000008,"midi":41,"time":143.04,"velocity":0.2755905511811024},{"duration":0.960000000000008,"midi":53,"time":143.04,"velocity":0.2755905511811024},{"duration":0.23999999999998067,"midi":72,"time":143.28,"velocity":0.30708661417322836},{"duration":0.23999999999998067,"midi":75,"time":143.28,"velocity":0.3858267716535433},{"duration":0.2400000000000091,"midi":69,"time":143.51999999999998,"velocity":0.30708661417322836},{"duration":0.2400000000000091,"midi":72,"time":143.51999999999998,"velocity":0.3858267716535433},{"duration":0.12000000000000455,"midi":67,"time":143.88,"velocity":0.3858267716535433},{"duration":0.12000000000000455,"midi":70,"time":143.88,"velocity":0.3858267716535433},{"duration":0.960000000000008,"midi":50,"time":144,"velocity":0.2755905511811024},{"duration":0.960000000000008,"midi":67,"time":144,"velocity":0.2755905511811024},{"duration":0.960000000000008,"midi":55,"time":144,"velocity":0.2755905511811024},{"duration":0.960000000000008,"midi":55,"time":144,"velocity":0.2755905511811024},{"duration":0.960000000000008,"midi":70,"time":144,"velocity":0.3858267716535433},{"duration":0.960000000000008,"midi":62,"time":144,"velocity":0.2755905511811024},{"duration":0.960000000000008,"midi":67,"time":144,"velocity":0.30708661417322836},{"duration":0.960000000000008,"midi":43,"time":144,"velocity":0.2755905511811024},{"duration":0.47999999999998977,"midi":67,"time":144.96,"velocity":0.3858267716535433},{"duration":0.9599999999999795,"midi":60,"time":144.96,"velocity":0.2755905511811024},{"duration":0.9599999999999795,"midi":48,"time":144.96,"velocity":0.2755905511811024},{"duration":0.9599999999999795,"midi":65,"time":144.96,"velocity":0.2755905511811024},{"duration":0.47999999999998977,"midi":79,"time":144.96,"velocity":0.3858267716535433},{"duration":0.9599999999999795,"midi":41,"time":144.96,"velocity":0.2755905511811024},{"duration":0.47999999999998977,"midi":75,"time":144.96,"velocity":0.30708661417322836},{"duration":0.9599999999999795,"midi":53,"time":144.96,"velocity":0.2755905511811024},{"duration":0.9599999999999795,"midi":53,"time":144.96,"velocity":0.2755905511811024},{"duration":0.47999999999998977,"midi":77,"time":145.44,"velocity":0.30708661417322836},{"duration":0.47999999999998977,"midi":69,"time":145.44,"velocity":0.3858267716535433},{"duration":0.47999999999998977,"midi":81,"time":145.44,"velocity":0.3858267716535433},{"duration":0.7199999999999989,"midi":55,"time":176.64,"velocity":0.30708661417322836},{"duration":0.7199999999999989,"midi":46,"time":176.64,"velocity":0.30708661417322836},{"duration":0.7199999999999989,"midi":65,"time":176.64,"velocity":0.3543307086614173},{"duration":0.2400000000000091,"midi":70,"time":176.64,"velocity":0.23622047244094488},{"duration":0.2400000000000091,"midi":67,"time":176.64,"velocity":0.23622047244094488},{"duration":0.5999999999999943,"midi":67,"time":176.64,"velocity":0.30708661417322836},{"duration":0.7199999999999989,"midi":55,"time":176.64,"velocity":0.33858267716535434},{"duration":0.2400000000000091,"midi":58,"time":176.64,"velocity":0.23622047244094488},{"duration":0.7199999999999989,"midi":43,"time":176.64,"velocity":0.33858267716535434},{"duration":0.5999999999999943,"midi":58,"time":176.64,"velocity":0.30708661417322836},{"duration":0.23999999999998067,"midi":70,"time":177,"velocity":0.23622047244094488},{"duration":0.3599999999999852,"midi":67,"time":177,"velocity":0.23622047244094488},{"duration":0.3599999999999852,"midi":58,"time":177,"velocity":0.23622047244094488},{"duration":0.2400000000000091,"midi":60,"time":177.35999999999999,"velocity":0.28346456692913385},{"duration":0.2400000000000091,"midi":57,"time":177.35999999999999,"velocity":0.28346456692913385},{"duration":0.2400000000000091,"midi":60,"time":177.35999999999999,"velocity":0.28346456692913385},{"duration":0.2400000000000091,"midi":48,"time":177.35999999999999,"velocity":0.28346456692913385},{"duration":0.2400000000000091,"midi":69,"time":177.35999999999999,"velocity":0.28346456692913385},{"duration":0.2400000000000091,"midi":69,"time":177.35999999999999,"velocity":0.3543307086614173},{"duration":0.2400000000000091,"midi":48,"time":177.35999999999999,"velocity":0.28346456692913385},{"duration":0.2400000000000091,"midi":67,"time":177.6,"velocity":0.23622047244094488},{"duration":0.7199999999999989,"midi":46,"time":177.6,"velocity":0.30708661417322836},{"duration":0.7199999999999989,"midi":55,"time":177.6,"velocity":0.33858267716535434},{"duration":0.7199999999999989,"midi":55,"time":177.6,"velocity":0.30708661417322836},{"duration":0.2400000000000091,"midi":58,"time":177.6,"velocity":0.23622047244094488},{"duration":0.7199999999999989,"midi":65,"time":177.6,"velocity":0.3543307086614173},{"duration":0.2400000000000091,"midi":70,"time":177.6,"velocity":0.23622047244094488},{"duration":0.5999999999999943,"midi":67,"time":177.6,"velocity":0.30708661417322836},{"duration":0.5999999999999943,"midi":58,"time":177.6,"velocity":0.30708661417322836},{"duration":0.7199999999999989,"midi":43,"time":177.6,"velocity":0.33858267716535434},{"duration":0.2400000000000091,"midi":70,"time":177.95999999999998,"velocity":0.23622047244094488},{"duration":0.36000000000001364,"midi":67,"time":177.95999999999998,"velocity":0.23622047244094488},{"duration":0.36000000000001364,"midi":58,"time":177.95999999999998,"velocity":0.23622047244094488},{"duration":0.2400000000000091,"midi":60,"time":178.32,"velocity":0.30708661417322836},{"duration":0.2400000000000091,"midi":48,"time":178.32,"velocity":0.28346456692913385},{"duration":0.2400000000000091,"midi":57,"time":178.32,"velocity":0.30708661417322836},{"duration":0.2400000000000091,"midi":48,"time":178.32,"velocity":0.30708661417322836},{"duration":0.2400000000000091,"midi":60,"time":178.32,"velocity":0.28346456692913385},{"duration":0.2400000000000091,"midi":69,"time":178.32,"velocity":0.3543307086614173},{"duration":0.2400000000000091,"midi":69,"time":178.32,"velocity":0.30708661417322836},{"duration":0.7199999999999989,"midi":65,"time":178.56,"velocity":0.3543307086614173},{"duration":0.23999999999998067,"midi":67,"time":178.56,"velocity":0.30708661417322836},{"duration":0.7199999999999989,"midi":43,"time":178.56,"velocity":0.33858267716535434},{"duration":0.7199999999999989,"midi":46,"time":178.56,"velocity":0.30708661417322836},{"duration":0.7199999999999989,"midi":55,"time":178.56,"velocity":0.30708661417322836},{"duration":0.5999999999999943,"midi":67,"time":178.56,"velocity":0.23622047244094488},{"duration":0.23999999999998067,"midi":58,"time":178.56,"velocity":0.23622047244094488},{"duration":0.23999999999998067,"midi":70,"time":178.56,"velocity":0.23622047244094488},{"duration":0.7199999999999989,"midi":55,"time":178.56,"velocity":0.33858267716535434},{"duration":0.5999999999999943,"midi":58,"time":178.56,"velocity":0.30708661417322836},{"duration":0.2400000000000091,"midi":70,"time":178.92,"velocity":0.23622047244094488},{"duration":0.36000000000001364,"midi":58,"time":178.92,"velocity":0.23622047244094488},{"duration":0.36000000000001364,"midi":67,"time":178.92,"velocity":0.23622047244094488},{"duration":0.23999999999998067,"midi":60,"time":179.28,"velocity":0.28346456692913385},{"duration":0.23999999999998067,"midi":57,"time":179.28,"velocity":0.28346456692913385},{"duration":0.23999999999998067,"midi":48,"time":179.28,"velocity":0.28346456692913385},{"duration":0.23999999999998067,"midi":72,"time":179.28,"velocity":0.28346456692913385},{"duration":0.23999999999998067,"midi":69,"time":179.28,"velocity":0.28346456692913385},{"duration":0.23999999999998067,"midi":60,"time":179.28,"velocity":0.28346456692913385},{"duration":0.23999999999998067,"midi":69,"time":179.28,"velocity":0.3543307086614173},{"duration":0.2400000000000091,"midi":74,"time":179.51999999999998,"velocity":0.33858267716535434},{"duration":0.2400000000000091,"midi":62,"time":179.51999999999998,"velocity":0.33858267716535434},{"duration":0.2400000000000091,"midi":70,"time":179.51999999999998,"velocity":0.25196850393700787},{"duration":0.2400000000000091,"midi":70,"time":179.51999999999998,"velocity":0.23622047244094488},{"duration":0.2400000000000091,"midi":58,"time":179.51999999999998,"velocity":0.25196850393700787},{"duration":0.2400000000000091,"midi":50,"time":179.51999999999998,"velocity":0.33858267716535434},{"duration":0.2400000000000091,"midi":74,"time":179.51999999999998,"velocity":0.23622047244094488},{"duration":0.2400000000000091,"midi":62,"time":179.51999999999998,"velocity":0.33858267716535434},{"duration":0.2400000000000091,"midi":62,"time":179.51999999999998,"velocity":0.23622047244094488},{"duration":0.2400000000000091,"midi":67,"time":179.76,"velocity":0.23622047244094488},{"duration":0.2400000000000091,"midi":72,"time":179.76,"velocity":0.33858267716535434},{"duration":0.2400000000000091,"midi":55,"time":179.76,"velocity":0.33858267716535434},{"duration":0.2400000000000091,"midi":67,"time":179.76,"velocity":0.33858267716535434},{"duration":0.2400000000000091,"midi":60,"time":179.76,"velocity":0.33858267716535434},{"duration":0.2400000000000091,"midi":72,"time":179.76,"velocity":0.23622047244094488},{"duration":0.2400000000000091,"midi":60,"time":179.76,"velocity":0.33858267716535434},{"duration":0.2400000000000091,"midi":60,"time":179.76,"velocity":0.23622047244094488},{"duration":0.2400000000000091,"midi":48,"time":179.76,"velocity":0.33858267716535434},{"duration":0.12000000000000455,"midi":74,"time":180,"velocity":0.31496062992125984},{"duration":0.23999999999998067,"midi":65,"time":180,"velocity":0.33858267716535434},{"duration":0.23999999999998067,"midi":46,"time":180,"velocity":0.33858267716535434},{"duration":0.23999999999998067,"midi":58,"time":180,"velocity":0.23622047244094488},{"duration":0.23999999999998067,"midi":58,"time":180,"velocity":0.33858267716535434},{"duration":0.23999999999998067,"midi":70,"time":180,"velocity":0.33858267716535434},{"duration":0.23999999999998067,"midi":70,"time":180,"velocity":0.23622047244094488},{"duration":0.23999999999998067,"midi":58,"time":180,"velocity":0.33858267716535434},{"duration":0.23999999999998067,"midi":53,"time":180,"velocity":0.33858267716535434},{"duration":0.23999999999998067,"midi":65,"time":180,"velocity":0.23622047244094488},{"duration":0.2400000000000091,"midi":72,"time":180.23999999999998,"velocity":0.23622047244094488},{"duration":0.2400000000000091,"midi":67,"time":180.23999999999998,"velocity":0.23622047244094488},{"duration":0.2400000000000091,"midi":48,"time":180.23999999999998,"velocity":0.33858267716535434},{"duration":0.2400000000000091,"midi":55,"time":180.23999999999998,"velocity":0.33858267716535434},{"duration":0.12000000000000455,"midi":75,"time":180.23999999999998,"velocity":0.2755905511811024},{"duration":0.2400000000000091,"midi":60,"time":180.23999999999998,"velocity":0.23622047244094488},{"duration":0.2400000000000091,"midi":72,"time":180.23999999999998,"velocity":0.33858267716535434},{"duration":0.2400000000000091,"midi":60,"time":180.23999999999998,"velocity":0.33858267716535434},{"duration":0.2400000000000091,"midi":67,"time":180.23999999999998,"velocity":0.33858267716535434},{"duration":0.2400000000000091,"midi":60,"time":180.23999999999998,"velocity":0.33858267716535434},{"duration":0.7199999999999989,"midi":43,"time":180.48,"velocity":0.33858267716535434},{"duration":0.7199999999999989,"midi":55,"time":180.48,"velocity":0.33858267716535434},{"duration":0.2400000000000091,"midi":67,"time":180.48,"velocity":0.30708661417322836},{"duration":0.2400000000000091,"midi":58,"time":180.48,"velocity":0.30708661417322836},{"duration":0.2400000000000091,"midi":70,"time":180.48,"velocity":0.23622047244094488},{"duration":0.5999999999999943,"midi":67,"time":180.48,"velocity":0.23622047244094488},{"duration":0.5999999999999943,"midi":58,"time":180.48,"velocity":0.23622047244094488},{"duration":0.7199999999999989,"midi":46,"time":180.48,"velocity":0.30708661417322836},{"duration":0.7199999999999989,"midi":55,"time":180.48,"velocity":0.30708661417322836},{"duration":0.47999999999998977,"midi":77,"time":180.48,"velocity":0.2204724409448819},{"duration":0.47999999999998977,"midi":65,"time":180.48,"velocity":0.36220472440944884},{"duration":0.3599999999999852,"midi":67,"time":180.84,"velocity":0.23622047244094488},{"duration":0.3599999999999852,"midi":58,"time":180.84,"velocity":0.23622047244094488},{"duration":0.23999999999998067,"midi":70,"time":180.84,"velocity":0.23622047244094488},{"duration":0.12000000000000455,"midi":67,"time":181.07999999999998,"velocity":0.3228346456692913},{"duration":0.12000000000000455,"midi":68,"time":181.14,"velocity":0.33858267716535434},{"duration":0.2400000000000091,"midi":57,"time":181.2,"velocity":0.28346456692913385},{"duration":0.2400000000000091,"midi":60,"time":181.2,"velocity":0.28346456692913385},{"duration":0.2400000000000091,"midi":69,"time":181.2,"velocity":0.3543307086614173},{"duration":0.2400000000000091,"midi":69,"time":181.2,"velocity":0.28346456692913385},{"duration":0.2400000000000091,"midi":48,"time":181.2,"velocity":0.28346456692913385},{"duration":0.2400000000000091,"midi":60,"time":181.2,"velocity":0.28346456692913385},{"duration":0.2400000000000091,"midi":48,"time":181.2,"velocity":0.28346456692913385},{"duration":0.5999999999999943,"midi":65,"time":181.44,"velocity":0.36220472440944884},{"duration":0.2400000000000091,"midi":58,"time":181.44,"velocity":0.30708661417322836},{"duration":0.7199999999999989,"midi":55,"time":181.44,"velocity":0.33858267716535434},{"duration":0.2400000000000091,"midi":67,"time":181.44,"velocity":0.23622047244094488},{"duration":0.7199999999999989,"midi":55,"time":181.44,"velocity":0.30708661417322836},{"duration":0.5999999999999943,"midi":58,"time":181.44,"velocity":0.23622047244094488},{"duration":0.2400000000000091,"midi":70,"time":181.44,"velocity":0.23622047244094488},{"duration":0.7199999999999989,"midi":46,"time":181.44,"velocity":0.30708661417322836},{"duration":0.5999999999999943,"midi":67,"time":181.44,"velocity":0.30708661417322836},{"duration":0.7199999999999989,"midi":43,"time":181.44,"velocity":0.33858267716535434},{"duration":0.36000000000001364,"midi":67,"time":181.79999999999998,"velocity":0.23622047244094488},{"duration":0.36000000000001364,"midi":58,"time":181.79999999999998,"velocity":0.23622047244094488},{"duration":0.2400000000000091,"midi":70,"time":181.79999999999998,"velocity":0.23622047244094488},{"duration":0.12000000000000455,"midi":68,"time":182.1,"velocity":0.3543307086614173},{"duration":0.2400000000000091,"midi":69,"time":182.16,"velocity":0.3543307086614173},{"duration":0.2400000000000091,"midi":57,"time":182.16,"velocity":0.30708661417322836},{"duration":0.2400000000000091,"midi":48,"time":182.16,"velocity":0.30708661417322836},{"duration":0.2400000000000091,"midi":69,"time":182.16,"velocity":0.30708661417322836},{"duration":0.2400000000000091,"midi":60,"time":182.16,"velocity":0.30708661417322836},{"duration":0.2400000000000091,"midi":60,"time":182.16,"velocity":0.28346456692913385},{"duration":0.2400000000000091,"midi":48,"time":182.16,"velocity":0.28346456692913385},{"duration":0.7199999999999989,"midi":65,"time":182.4,"velocity":0.36220472440944884},{"duration":0.23999999999998067,"midi":70,"time":182.4,"velocity":0.23622047244094488},{"duration":0.23999999999998067,"midi":67,"time":182.4,"velocity":0.23622047244094488},{"duration":0.7199999999999989,"midi":43,"time":182.4,"velocity":0.33858267716535434},{"duration":0.23999999999998067,"midi":58,"time":182.4,"velocity":0.30708661417322836},{"duration":0.7199999999999989,"midi":55,"time":182.4,"velocity":0.33858267716535434},{"duration":0.7199999999999989,"midi":55,"time":182.4,"velocity":0.30708661417322836},{"duration":0.7199999999999989,"midi":46,"time":182.4,"velocity":0.30708661417322836},{"duration":0.5999999999999943,"midi":58,"time":182.4,"velocity":0.23622047244094488},{"duration":0.5999999999999943,"midi":67,"time":182.4,"velocity":0.30708661417322836},{"duration":0.36000000000001364,"midi":58,"time":182.76,"velocity":0.23622047244094488},{"duration":0.2400000000000091,"midi":70,"time":182.76,"velocity":0.23622047244094488},{"duration":0.36000000000001364,"midi":67,"time":182.76,"velocity":0.23622047244094488},{"duration":0.23999999999998067,"midi":60,"time":183.12,"velocity":0.28346456692913385},{"duration":0.23999999999998067,"midi":57,"time":183.12,"velocity":0.28346456692913385},{"duration":0.23999999999998067,"midi":69,"time":183.12,"velocity":0.3543307086614173},{"duration":0.23999999999998067,"midi":48,"time":183.12,"velocity":0.28346456692913385},{"duration":0.23999999999998067,"midi":69,"time":183.12,"velocity":0.28346456692913385},{"duration":0.23999999999998067,"midi":60,"time":183.12,"velocity":0.28346456692913385},{"duration":0.23999999999998067,"midi":48,"time":183.12,"velocity":0.28346456692913385},{"duration":0.2400000000000091,"midi":74,"time":183.35999999999999,"velocity":0.33858267716535434},{"duration":0.12000000000000455,"midi":82,"time":183.35999999999999,"velocity":0.3779527559055118},{"duration":0.2400000000000091,"midi":74,"time":183.35999999999999,"velocity":0.23622047244094488},{"duration":0.2400000000000091,"midi":62,"time":183.35999999999999,"velocity":0.23622047244094488},{"duration":0.2400000000000091,"midi":58,"time":183.35999999999999,"velocity":0.25196850393700787},{"duration":0.2400000000000091,"midi":70,"time":183.35999999999999,"velocity":0.23622047244094488},{"duration":0.2400000000000091,"midi":50,"time":183.35999999999999,"velocity":0.33858267716535434},{"duration":0.2400000000000091,"midi":70,"time":183.35999999999999,"velocity":0.25196850393700787},{"duration":0.2400000000000091,"midi":62,"time":183.35999999999999,"velocity":0.33858267716535434},{"duration":0.2400000000000091,"midi":62,"time":183.35999999999999,"velocity":0.33858267716535434},{"duration":0.12000000000000455,"midi":81,"time":183.6,"velocity":0.3779527559055118},{"duration":0.2400000000000091,"midi":60,"time":183.6,"velocity":0.33858267716535434},{"duration":0.2400000000000091,"midi":67,"time":183.6,"velocity":0.33858267716535434},{"duration":0.2400000000000091,"midi":72,"time":183.6,"velocity":0.23622047244094488},{"duration":0.2400000000000091,"midi":60,"time":183.6,"velocity":0.33858267716535434},{"duration":0.2400000000000091,"midi":60,"time":183.6,"velocity":0.23622047244094488},{"duration":0.2400000000000091,"midi":72,"time":183.6,"velocity":0.33858267716535434},{"duration":0.2400000000000091,"midi":48,"time":183.6,"velocity":0.33858267716535434},{"duration":0.2400000000000091,"midi":67,"time":183.6,"velocity":0.23622047244094488},{"duration":0.2400000000000091,"midi":55,"time":183.6,"velocity":0.33858267716535434},{"duration":0.12000000000000455,"midi":82,"time":183.66,"velocity":0.3779527559055118},{"duration":0.12000000000000455,"midi":81,"time":183.72,"velocity":0.3779527559055118},{"duration":0.23999999999998067,"midi":65,"time":183.84,"velocity":0.33858267716535434},{"duration":0.23999999999998067,"midi":70,"time":183.84,"velocity":0.23622047244094488},{"duration":0.23999999999998067,"midi":53,"time":183.84,"velocity":0.33858267716535434},{"duration":0.23999999999998067,"midi":58,"time":183.84,"velocity":0.23622047244094488},{"duration":0.23999999999998067,"midi":65,"time":183.84,"velocity":0.23622047244094488},{"duration":0.23999999999998067,"midi":79,"time":183.84,"velocity":0.3779527559055118},{"duration":0.23999999999998067,"midi":58,"time":183.84,"velocity":0.33858267716535434},{"duration":0.23999999999998067,"midi":46,"time":183.84,"velocity":0.33858267716535434},{"duration":0.23999999999998067,"midi":58,"time":183.84,"velocity":0.33858267716535434},{"duration":0.23999999999998067,"midi":70,"time":183.84,"velocity":0.33858267716535434},{"duration":0.2400000000000091,"midi":72,"time":184.07999999999998,"velocity":0.23622047244094488},{"duration":0.2400000000000091,"midi":67,"time":184.07999999999998,"velocity":0.33858267716535434},{"duration":0.2400000000000091,"midi":67,"time":184.07999999999998,"velocity":0.23622047244094488},{"duration":0.2400000000000091,"midi":60,"time":184.07999999999998,"velocity":0.33858267716535434},{"duration":0.2400000000000091,"midi":81,"time":184.07999999999998,"velocity":0.3779527559055118},{"duration":0.2400000000000091,"midi":60,"time":184.07999999999998,"velocity":0.33858267716535434},{"duration":0.2400000000000091,"midi":48,"time":184.07999999999998,"velocity":0.33858267716535434},{"duration":0.2400000000000091,"midi":72,"time":184.07999999999998,"velocity":0.33858267716535434},{"duration":0.2400000000000091,"midi":55,"time":184.07999999999998,"velocity":0.33858267716535434},{"duration":0.2400000000000091,"midi":60,"time":184.07999999999998,"velocity":0.23622047244094488},{"duration":0.2400000000000091,"midi":58,"time":184.32,"velocity":0.23622047244094488},{"duration":0.5999999999999943,"midi":58,"time":184.32,"velocity":0.2992125984251969},{"duration":0.7199999999999989,"midi":51,"time":184.32,"velocity":0.25196850393700787},{"duration":0.7199999999999989,"midi":82,"time":184.32,"velocity":0.3779527559055118},{"duration":0.2400000000000091,"midi":63,"time":184.32,"velocity":0.25196850393700787},{"duration":0.7199999999999989,"midi":58,"time":184.32,"velocity":0.25196850393700787},{"duration":0.2400000000000091,"midi":70,"time":184.32,"velocity":0.23622047244094488},{"duration":0.7199999999999989,"midi":39,"time":184.32,"velocity":0.25196850393700787},{"duration":0.7199999999999989,"midi":51,"time":184.32,"velocity":0.25196850393700787},{"duration":0.5999999999999943,"midi":63,"time":184.32,"velocity":0.23622047244094488},{"duration":0.5999999999999943,"midi":70,"time":184.32,"velocity":0.2992125984251969},{"duration":0.7199999999999989,"midi":46,"time":184.32,"velocity":0.25196850393700787},{"duration":0.3599999999999852,"midi":63,"time":184.68,"velocity":0.23622047244094488},{"duration":0.3599999999999852,"midi":70,"time":184.68,"velocity":0.23622047244094488},{"duration":0.3599999999999852,"midi":58,"time":184.68,"velocity":0.23622047244094488},{"duration":0.12000000000000455,"midi":80,"time":184.98,"velocity":0.3779527559055118},{"duration":0.2400000000000091,"midi":38,"time":185.04,"velocity":0.25196850393700787},{"duration":0.2400000000000091,"midi":57,"time":185.04,"velocity":0.25196850393700787},{"duration":0.2400000000000091,"midi":45,"time":185.04,"velocity":0.25196850393700787},{"duration":0.2400000000000091,"midi":62,"time":185.04,"velocity":0.25196850393700787},{"duration":0.2400000000000091,"midi":57,"time":185.04,"velocity":0.25196850393700787},{"duration":0.2400000000000091,"midi":50,"time":185.04,"velocity":0.25196850393700787},{"duration":0.2400000000000091,"midi":81,"time":185.04,"velocity":0.3779527559055118},{"duration":0.2400000000000091,"midi":69,"time":185.04,"velocity":0.25196850393700787},{"duration":0.2400000000000091,"midi":50,"time":185.04,"velocity":0.25196850393700787},{"duration":0.7199999999999989,"midi":46,"time":185.28,"velocity":0.25196850393700787},{"duration":0.23999999999998067,"midi":70,"time":185.28,"velocity":0.29133858267716534},{"duration":0.23999999999998067,"midi":58,"time":185.28,"velocity":0.25196850393700787},{"duration":0.7199999999999989,"midi":51,"time":185.28,"velocity":0.25196850393700787},{"duration":0.23999999999998067,"midi":63,"time":185.28,"velocity":0.23622047244094488},{"duration":0.7199999999999989,"midi":51,"time":185.28,"velocity":0.25196850393700787},{"duration":0.5999999999999943,"midi":58,"time":185.28,"velocity":0.23622047244094488},{"duration":0.7199999999999989,"midi":77,"time":185.28,"velocity":0.3779527559055118},{"duration":0.7199999999999989,"midi":58,"time":185.28,"velocity":0.29133858267716534},{"duration":0.5999999999999943,"midi":70,"time":185.28,"velocity":0.23622047244094488},{"duration":0.5999999999999943,"midi":63,"time":185.28,"velocity":0.25196850393700787},{"duration":0.7199999999999989,"midi":70,"time":185.28,"velocity":0.3779527559055118},{"duration":0.7199999999999989,"midi":39,"time":185.28,"velocity":0.25196850393700787},{"duration":0.36000000000001364,"midi":63,"time":185.64,"velocity":0.23622047244094488},{"duration":0.36000000000001364,"midi":70,"time":185.64,"velocity":0.23622047244094488},{"duration":0.36000000000001364,"midi":58,"time":185.64,"velocity":0.23622047244094488},{"duration":0.23999999999998067,"midi":50,"time":186,"velocity":0.25196850393700787},{"duration":0.23999999999998067,"midi":57,"time":186,"velocity":0.25196850393700787},{"duration":0.23999999999998067,"midi":57,"time":186,"velocity":0.25196850393700787},{"duration":0.23999999999998067,"midi":50,"time":186,"velocity":0.25196850393700787},{"duration":0.23999999999998067,"midi":75,"time":186,"velocity":0.3779527559055118},{"duration":0.23999999999998067,"midi":38,"time":186,"velocity":0.25196850393700787},{"duration":0.23999999999998067,"midi":62,"time":186,"velocity":0.25196850393700787},{"duration":0.23999999999998067,"midi":69,"time":186,"velocity":0.25196850393700787},{"duration":0.23999999999998067,"midi":45,"time":186,"velocity":0.25196850393700787},{"duration":0.2400000000000091,"midi":58,"time":186.23999999999998,"velocity":0.25196850393700787},{"duration":0.7199999999999989,"midi":39,"time":186.23999999999998,"velocity":0.25196850393700787},{"duration":0.6000000000000227,"midi":58,"time":186.23999999999998,"velocity":0.29133858267716534},{"duration":0.7199999999999989,"midi":46,"time":186.23999999999998,"velocity":0.25196850393700787},{"duration":0.2400000000000091,"midi":70,"time":186.23999999999998,"velocity":0.23622047244094488},{"duration":0.7199999999999989,"midi":51,"time":186.23999999999998,"velocity":0.25196850393700787},{"duration":0.6000000000000227,"midi":70,"time":186.23999999999998,"velocity":0.29133858267716534},{"duration":0.7199999999999989,"midi":74,"time":186.23999999999998,"velocity":0.3779527559055118},{"duration":0.7199999999999989,"midi":58,"time":186.23999999999998,"velocity":0.23622047244094488},{"duration":0.7199999999999989,"midi":51,"time":186.23999999999998,"velocity":0.25196850393700787},{"duration":0.7199999999999989,"midi":70,"time":186.23999999999998,"velocity":0.3779527559055118},{"duration":0.2400000000000091,"midi":63,"time":186.23999999999998,"velocity":0.23622047244094488},{"duration":0.6000000000000227,"midi":63,"time":186.23999999999998,"velocity":0.25196850393700787},{"duration":0.3599999999999852,"midi":70,"time":186.6,"velocity":0.23622047244094488},{"duration":0.3599999999999852,"midi":63,"time":186.6,"velocity":0.23622047244094488},{"duration":0.3599999999999852,"midi":58,"time":186.6,"velocity":0.23622047244094488},{"duration":0.2400000000000091,"midi":69,"time":186.95999999999998,"velocity":0.25196850393700787},{"duration":0.2400000000000091,"midi":57,"time":186.95999999999998,"velocity":0.25196850393700787},{"duration":0.2400000000000091,"midi":57,"time":186.95999999999998,"velocity":0.25196850393700787},{"duration":0.2400000000000091,"midi":72,"time":186.95999999999998,"velocity":0.3779527559055118},{"duration":0.2400000000000091,"midi":38,"time":186.95999999999998,"velocity":0.25196850393700787},{"duration":0.2400000000000091,"midi":50,"time":186.95999999999998,"velocity":0.25196850393700787},{"duration":0.2400000000000091,"midi":62,"time":186.95999999999998,"velocity":0.25196850393700787},{"duration":0.2400000000000091,"midi":45,"time":186.95999999999998,"velocity":0.25196850393700787},{"duration":0.2400000000000091,"midi":50,"time":186.95999999999998,"velocity":0.25196850393700787},{"duration":0.2400000000000091,"midi":70,"time":187.2,"velocity":0.23622047244094488},{"duration":0.2400000000000091,"midi":74,"time":187.2,"velocity":0.23622047244094488},{"duration":0.2400000000000091,"midi":74,"time":187.2,"velocity":0.33070866141732286},{"duration":0.2400000000000091,"midi":70,"time":187.2,"velocity":0.3779527559055118},{"duration":0.2400000000000091,"midi":62,"time":187.2,"velocity":0.33070866141732286},{"duration":0.2400000000000091,"midi":70,"time":187.2,"velocity":0.30708661417322836},{"duration":0.2400000000000091,"midi":46,"time":187.2,"velocity":0.25196850393700787},{"duration":0.2400000000000091,"midi":58,"time":187.2,"velocity":0.25196850393700787},{"duration":0.2400000000000091,"midi":62,"time":187.2,"velocity":0.33070866141732286},{"duration":0.2400000000000091,"midi":50,"time":187.2,"velocity":0.33070866141732286},{"duration":0.2400000000000091,"midi":58,"time":187.2,"velocity":0.30708661417322836},{"duration":0.2400000000000091,"midi":62,"time":187.2,"velocity":0.23622047244094488},{"duration":0.2400000000000091,"midi":72,"time":187.44,"velocity":0.23622047244094488},{"duration":0.2400000000000091,"midi":67,"time":187.44,"velocity":0.23622047244094488},{"duration":0.2400000000000091,"midi":72,"time":187.44,"velocity":0.3779527559055118},{"duration":0.2400000000000091,"midi":60,"time":187.44,"velocity":0.33070866141732286},{"duration":0.2400000000000091,"midi":67,"time":187.44,"velocity":0.33070866141732286},{"duration":0.2400000000000091,"midi":48,"time":187.44,"velocity":0.33070866141732286},{"duration":0.2400000000000091,"midi":72,"time":187.44,"velocity":0.33070866141732286},{"duration":0.2400000000000091,"midi":60,"time":187.44,"velocity":0.23622047244094488},{"duration":0.2400000000000091,"midi":55,"time":187.44,"velocity":0.33070866141732286},{"duration":0.2400000000000091,"midi":60,"time":187.44,"velocity":0.33070866141732286},{"duration":0.23999999999998067,"midi":70,"time":187.68,"velocity":0.33070866141732286},{"duration":0.23999999999998067,"midi":74,"time":187.68,"velocity":0.3779527559055118},{"duration":0.23999999999998067,"midi":58,"time":187.68,"velocity":0.33070866141732286},{"duration":0.23999999999998067,"midi":58,"time":187.68,"velocity":0.33070866141732286},{"duration":0.23999999999998067,"midi":65,"time":187.68,"velocity":0.33070866141732286},{"duration":0.23999999999998067,"midi":53,"time":187.68,"velocity":0.33070866141732286},{"duration":0.23999999999998067,"midi":70,"time":187.68,"velocity":0.23622047244094488},{"duration":0.23999999999998067,"midi":65,"time":187.68,"velocity":0.23622047244094488},{"duration":0.23999999999998067,"midi":46,"time":187.68,"velocity":0.33070866141732286},{"duration":0.2400000000000091,"midi":60,"time":187.92,"velocity":0.33070866141732286},{"duration":0.2400000000000091,"midi":72,"time":187.92,"velocity":0.33070866141732286},{"duration":0.2400000000000091,"midi":72,"time":187.92,"velocity":0.23622047244094488},{"duration":0.2400000000000091,"midi":48,"time":187.92,"velocity":0.33070866141732286},{"duration":0.2400000000000091,"midi":60,"time":187.92,"velocity":0.23622047244094488},{"duration":0.2400000000000091,"midi":75,"time":187.92,"velocity":0.3779527559055118},{"duration":0.2400000000000091,"midi":60,"time":187.92,"velocity":0.33070866141732286},{"duration":0.2400000000000091,"midi":67,"time":187.92,"velocity":0.33070866141732286},{"duration":0.2400000000000091,"midi":55,"time":187.92,"velocity":0.33070866141732286},{"duration":0.2400000000000091,"midi":67,"time":187.92,"velocity":0.23622047244094488},{"duration":0.2400000000000091,"midi":58,"time":188.16,"velocity":0.2992125984251969},{"duration":0.7199999999999989,"midi":39,"time":188.16,"velocity":0.25196850393700787},{"duration":0.7199999999999989,"midi":51,"time":188.16,"velocity":0.25196850393700787},{"duration":0.2400000000000091,"midi":63,"time":188.16,"velocity":0.23622047244094488},{"duration":0.2400000000000091,"midi":70,"time":188.16,"velocity":0.3779527559055118},{"duration":0.5999999999999943,"midi":70,"time":188.16,"velocity":0.2992125984251969},{"duration":0.7199999999999989,"midi":77,"time":188.16,"velocity":0.3779527559055118},{"duration":0.7199999999999989,"midi":46,"time":188.16,"velocity":0.25196850393700787},{"duration":0.5999999999999943,"midi":58,"time":188.16,"velocity":0.25196850393700787},{"duration":0.7199999999999989,"midi":70,"time":188.16,"velocity":0.23622047244094488},{"duration":0.7199999999999989,"midi":51,"time":188.16,"velocity":0.25196850393700787},{"duration":0.5999999999999943,"midi":63,"time":188.16,"velocity":0.25196850393700787},{"duration":0.7199999999999989,"midi":58,"time":188.16,"velocity":0.23622047244094488},{"duration":0.36000000000001364,"midi":58,"time":188.51999999999998,"velocity":0.23622047244094488},{"duration":0.36000000000001364,"midi":63,"time":188.51999999999998,"velocity":0.23622047244094488},{"duration":0.36000000000001364,"midi":70,"time":188.51999999999998,"velocity":0.23622047244094488},{"duration":0.2400000000000091,"midi":69,"time":188.88,"velocity":0.25196850393700787},{"duration":0.2400000000000091,"midi":45,"time":188.88,"velocity":0.25196850393700787},{"duration":0.2400000000000091,"midi":57,"time":188.88,"velocity":0.25196850393700787},{"duration":0.2400000000000091,"midi":50,"time":188.88,"velocity":0.25196850393700787},{"duration":0.2400000000000091,"midi":38,"time":188.88,"velocity":0.25196850393700787},{"duration":0.2400000000000091,"midi":50,"time":188.88,"velocity":0.25196850393700787},{"duration":0.2400000000000091,"midi":57,"time":188.88,"velocity":0.25196850393700787},{"duration":0.2400000000000091,"midi":62,"time":188.88,"velocity":0.25196850393700787},{"duration":0.7199999999999989,"midi":39,"time":189.12,"velocity":0.25196850393700787},{"duration":0.23999999999998067,"midi":70,"time":189.12,"velocity":0.29133858267716534},{"duration":0.7199999999999989,"midi":79,"time":189.12,"velocity":0.3779527559055118},{"duration":0.23999999999998067,"midi":58,"time":189.12,"velocity":0.23622047244094488},{"duration":0.7199999999999989,"midi":51,"time":189.12,"velocity":0.25196850393700787},{"duration":0.5999999999999943,"midi":58,"time":189.12,"velocity":0.25196850393700787},{"duration":0.7199999999999989,"midi":51,"time":189.12,"velocity":0.25196850393700787},{"duration":0.5999999999999943,"midi":70,"time":189.12,"velocity":0.23622047244094488},{"duration":0.7199999999999989,"midi":58,"time":189.12,"velocity":0.29133858267716534},{"duration":0.23999999999998067,"midi":63,"time":189.12,"velocity":0.23622047244094488},{"duration":0.5999999999999943,"midi":63,"time":189.12,"velocity":0.25196850393700787},{"duration":0.7199999999999989,"midi":72,"time":189.12,"velocity":0.3779527559055118},{"duration":0.7199999999999989,"midi":46,"time":189.12,"velocity":0.25196850393700787},{"duration":0.36000000000001364,"midi":63,"time":189.48,"velocity":0.23622047244094488},{"duration":0.36000000000001364,"midi":58,"time":189.48,"velocity":0.23622047244094488},{"duration":0.36000000000001364,"midi":70,"time":189.48,"velocity":0.23622047244094488},{"duration":0.23999999999998067,"midi":50,"time":189.84,"velocity":0.25196850393700787},{"duration":0.23999999999998067,"midi":69,"time":189.84,"velocity":0.25196850393700787},{"duration":0.23999999999998067,"midi":62,"time":189.84,"velocity":0.25196850393700787},{"duration":0.23999999999998067,"midi":45,"time":189.84,"velocity":0.25196850393700787},{"duration":0.23999999999998067,"midi":57,"time":189.84,"velocity":0.25196850393700787},{"duration":0.23999999999998067,"midi":57,"time":189.84,"velocity":0.25196850393700787},{"duration":0.23999999999998067,"midi":38,"time":189.84,"velocity":0.25196850393700787},{"duration":0.23999999999998067,"midi":50,"time":189.84,"velocity":0.25196850393700787},{"duration":0.2400000000000091,"midi":63,"time":190.07999999999998,"velocity":0.23622047244094488},{"duration":0.7199999999999989,"midi":51,"time":190.07999999999998,"velocity":0.25196850393700787},{"duration":0.7199999999999989,"midi":46,"time":190.07999999999998,"velocity":0.25196850393700787},{"duration":0.2400000000000091,"midi":58,"time":190.07999999999998,"velocity":0.25196850393700787},{"duration":0.6000000000000227,"midi":58,"time":190.07999999999998,"velocity":0.29133858267716534},{"duration":0.6000000000000227,"midi":63,"time":190.07999999999998,"velocity":0.25196850393700787},{"duration":0.2400000000000091,"midi":70,"time":190.07999999999998,"velocity":0.29133858267716534},{"duration":0.7199999999999989,"midi":39,"time":190.07999999999998,"velocity":0.25196850393700787},{"duration":0.7199999999999989,"midi":81,"time":190.07999999999998,"velocity":0.3779527559055118},{"duration":0.7199999999999989,"midi":58,"time":190.07999999999998,"velocity":0.23622047244094488},{"duration":0.7199999999999989,"midi":74,"time":190.07999999999998,"velocity":0.3779527559055118},{"duration":0.6000000000000227,"midi":70,"time":190.07999999999998,"velocity":0.23622047244094488},{"duration":0.7199999999999989,"midi":51,"time":190.07999999999998,"velocity":0.25196850393700787},{"duration":0.3599999999999852,"midi":58,"time":190.44,"velocity":0.23622047244094488},{"duration":0.3599999999999852,"midi":70,"time":190.44,"velocity":0.23622047244094488},{"duration":0.3599999999999852,"midi":63,"time":190.44,"velocity":0.23622047244094488},{"duration":0.2400000000000091,"midi":38,"time":190.79999999999998,"velocity":0.25196850393700787},{"duration":0.2400000000000091,"midi":45,"time":190.79999999999998,"velocity":0.25196850393700787},{"duration":0.2400000000000091,"midi":62,"time":190.79999999999998,"velocity":0.25196850393700787},{"duration":0.2400000000000091,"midi":57,"time":190.79999999999998,"velocity":0.25196850393700787},{"duration":0.2400000000000091,"midi":57,"time":190.79999999999998,"velocity":0.25196850393700787},{"duration":0.2400000000000091,"midi":69,"time":190.79999999999998,"velocity":0.25196850393700787},{"duration":0.2400000000000091,"midi":50,"time":190.79999999999998,"velocity":0.25196850393700787},{"duration":0.2400000000000091,"midi":50,"time":190.79999999999998,"velocity":0.25196850393700787},{"duration":0.2400000000000091,"midi":74,"time":191.04,"velocity":0.33070866141732286},{"duration":0.2400000000000091,"midi":74,"time":191.04,"velocity":0.23622047244094488},{"duration":0.2400000000000091,"midi":70,"time":191.04,"velocity":0.23622047244094488},{"duration":0.2400000000000091,"midi":62,"time":191.04,"velocity":0.25196850393700787},{"duration":0.2400000000000091,"midi":58,"time":191.04,"velocity":0.25196850393700787},{"duration":0.2400000000000091,"midi":62,"time":191.04,"velocity":0.33070866141732286},{"duration":0.2400000000000091,"midi":46,"time":191.04,"velocity":0.25196850393700787},{"duration":0.2400000000000091,"midi":62,"time":191.04,"velocity":0.23622047244094488},{"duration":0.2400000000000091,"midi":50,"time":191.04,"velocity":0.25196850393700787},{"duration":0.2400000000000091,"midi":70,"time":191.04,"velocity":0.30708661417322836},{"duration":0.2400000000000091,"midi":58,"time":191.04,"velocity":0.30708661417322836},{"duration":0.12000000000000455,"midi":82,"time":191.04,"velocity":0.3779527559055118},{"duration":0.23999999999998067,"midi":55,"time":191.28,"velocity":0.33070866141732286},{"duration":0.23999999999998067,"midi":48,"time":191.28,"velocity":0.33070866141732286},{"duration":0.23999999999998067,"midi":60,"time":191.28,"velocity":0.33070866141732286},{"duration":0.23999999999998067,"midi":67,"time":191.28,"velocity":0.33070866141732286},{"duration":0.23999999999998067,"midi":60,"time":191.28,"velocity":0.23622047244094488},{"duration":0.23999999999998067,"midi":67,"time":191.28,"velocity":0.23622047244094488},{"duration":0.23999999999998067,"midi":60,"time":191.28,"velocity":0.33070866141732286},{"duration":0.12000000000000455,"midi":81,"time":191.28,"velocity":0.3779527559055118},{"duration":0.23999999999998067,"midi":72,"time":191.28,"velocity":0.23622047244094488},{"duration":0.23999999999998067,"midi":72,"time":191.28,"velocity":0.33070866141732286},{"duration":0.11999999999997613,"midi":82,"time":191.34,"velocity":0.3779527559055118},{"duration":0.11999999999997613,"midi":81,"time":191.4,"velocity":0.3779527559055118},{"duration":0.2400000000000091,"midi":58,"time":191.51999999999998,"velocity":0.33070866141732286},{"duration":0.2400000000000091,"midi":70,"time":191.51999999999998,"velocity":0.33070866141732286},{"duration":0.2400000000000091,"midi":65,"time":191.51999999999998,"velocity":0.23622047244094488},{"duration":0.2400000000000091,"midi":46,"time":191.51999999999998,"velocity":0.33070866141732286},{"duration":0.2400000000000091,"midi":58,"time":191.51999999999998,"velocity":0.23622047244094488},{"duration":0.2400000000000091,"midi":70,"time":191.51999999999998,"velocity":0.23622047244094488},{"duration":0.2400000000000091,"midi":65,"time":191.51999999999998,"velocity":0.33070866141732286},{"duration":0.2400000000000091,"midi":58,"time":191.51999999999998,"velocity":0.33070866141732286},{"duration":0.2400000000000091,"midi":53,"time":191.51999999999998,"velocity":0.33070866141732286},{"duration":0.2400000000000091,"midi":79,"time":191.51999999999998,"velocity":0.3779527559055118},{"duration":0.2400000000000091,"midi":48,"time":191.76,"velocity":0.33070866141732286},{"duration":0.2400000000000091,"midi":60,"time":191.76,"velocity":0.33070866141732286},{"duration":0.2400000000000091,"midi":60,"time":191.76,"velocity":0.33070866141732286},{"duration":0.2400000000000091,"midi":60,"time":191.76,"velocity":0.23622047244094488},{"duration":0.2400000000000091,"midi":55,"time":191.76,"velocity":0.33070866141732286},{"duration":0.2400000000000091,"midi":67,"time":191.76,"velocity":0.23622047244094488},{"duration":0.2400000000000091,"midi":72,"time":191.76,"velocity":0.23622047244094488},{"duration":0.2400000000000091,"midi":72,"time":191.76,"velocity":0.33070866141732286},{"duration":0.2400000000000091,"midi":81,"time":191.76,"velocity":0.3779527559055118},{"duration":0.2400000000000091,"midi":67,"time":191.76,"velocity":0.33070866141732286},{"duration":0.7199999999999989,"midi":55,"time":192,"velocity":0.30708661417322836},{"duration":0.23999999999998067,"midi":58,"time":192,"velocity":0.30708661417322836},{"duration":0.7199999999999989,"midi":43,"time":192,"velocity":0.33858267716535434},{"duration":0.7199999999999989,"midi":65,"time":192,"velocity":0.3543307086614173},{"duration":0.5999999999999943,"midi":58,"time":192,"velocity":0.23622047244094488},{"duration":0.23999999999998067,"midi":67,"time":192,"velocity":0.23622047244094488},{"duration":0.23999999999998067,"midi":70,"time":192,"velocity":0.23622047244094488},{"duration":0.5999999999999943,"midi":67,"time":192,"velocity":0.30708661417322836},{"duration":0.7199999999999989,"midi":55,"time":192,"velocity":0.33858267716535434},{"duration":0.7199999999999989,"midi":46,"time":192,"velocity":0.30708661417322836},{"duration":0.36000000000001364,"midi":67,"time":192.35999999999999,"velocity":0.23622047244094488},{"duration":0.36000000000001364,"midi":58,"time":192.35999999999999,"velocity":0.23622047244094488},{"duration":0.2400000000000091,"midi":70,"time":192.35999999999999,"velocity":0.23622047244094488},{"duration":0.23999999999998067,"midi":57,"time":192.72,"velocity":0.28346456692913385},{"duration":0.23999999999998067,"midi":48,"time":192.72,"velocity":0.28346456692913385},{"duration":0.23999999999998067,"midi":69,"time":192.72,"velocity":0.28346456692913385},{"duration":0.23999999999998067,"midi":48,"time":192.72,"velocity":0.28346456692913385},{"duration":0.23999999999998067,"midi":60,"time":192.72,"velocity":0.28346456692913385},{"duration":0.23999999999998067,"midi":60,"time":192.72,"velocity":0.28346456692913385},{"duration":0.23999999999998067,"midi":69,"time":192.72,"velocity":0.3543307086614173},{"duration":0.7200000000000273,"midi":55,"time":192.95999999999998,"velocity":0.33858267716535434},{"duration":0.2400000000000091,"midi":58,"time":192.95999999999998,"velocity":0.30708661417322836},{"duration":0.2400000000000091,"midi":67,"time":192.95999999999998,"velocity":0.30708661417322836},{"duration":0.7200000000000273,"midi":65,"time":192.95999999999998,"velocity":0.3543307086614173},{"duration":0.7200000000000273,"midi":46,"time":192.95999999999998,"velocity":0.30708661417322836},{"duration":0.6000000000000227,"midi":67,"time":192.95999999999998,"velocity":0.23622047244094488},{"duration":0.2400000000000091,"midi":70,"time":192.95999999999998,"velocity":0.23622047244094488},{"duration":0.6000000000000227,"midi":58,"time":192.95999999999998,"velocity":0.23622047244094488},{"duration":0.7200000000000273,"midi":43,"time":192.95999999999998,"velocity":0.33858267716535434},{"duration":0.7200000000000273,"midi":55,"time":192.95999999999998,"velocity":0.30708661417322836},{"duration":0.36000000000001364,"midi":67,"time":193.32,"velocity":0.23622047244094488},{"duration":0.36000000000001364,"midi":58,"time":193.32,"velocity":0.23622047244094488},{"duration":0.2400000000000091,"midi":70,"time":193.32,"velocity":0.23622047244094488},{"duration":0.23999999999998067,"midi":69,"time":193.68,"velocity":0.3543307086614173},{"duration":0.23999999999998067,"midi":48,"time":193.68,"velocity":0.28346456692913385},{"duration":0.23999999999998067,"midi":48,"time":193.68,"velocity":0.30708661417322836},{"duration":0.23999999999998067,"midi":69,"time":193.68,"velocity":0.30708661417322836},{"duration":0.23999999999998067,"midi":60,"time":193.68,"velocity":0.30708661417322836},{"duration":0.23999999999998067,"midi":57,"time":193.68,"velocity":0.30708661417322836},{"duration":0.23999999999998067,"midi":60,"time":193.68,"velocity":0.28346456692913385},{"duration":0.7199999999999989,"midi":46,"time":193.92,"velocity":0.30708661417322836},{"duration":0.2400000000000091,"midi":67,"time":193.92,"velocity":0.30708661417322836},{"duration":0.2400000000000091,"midi":70,"time":193.92,"velocity":0.23622047244094488},{"duration":0.7199999999999989,"midi":55,"time":193.92,"velocity":0.30708661417322836},{"duration":0.7199999999999989,"midi":43,"time":193.92,"velocity":0.33858267716535434},{"duration":0.5999999999999943,"midi":67,"time":193.92,"velocity":0.23622047244094488},{"duration":0.7199999999999989,"midi":65,"time":193.92,"velocity":0.3543307086614173},{"duration":0.2400000000000091,"midi":58,"time":193.92,"velocity":0.30708661417322836},{"duration":0.5999999999999943,"midi":58,"time":193.92,"velocity":0.23622047244094488},{"duration":0.7199999999999989,"midi":55,"time":193.92,"velocity":0.33858267716535434},{"duration":0.3599999999999852,"midi":58,"time":194.28,"velocity":0.23622047244094488},{"duration":0.23999999999998067,"midi":70,"time":194.28,"velocity":0.23622047244094488},{"duration":0.3599999999999852,"midi":67,"time":194.28,"velocity":0.23622047244094488},{"duration":0.2400000000000091,"midi":69,"time":194.64,"velocity":0.28346456692913385},{"duration":0.2400000000000091,"midi":57,"time":194.64,"velocity":0.28346456692913385},{"duration":0.2400000000000091,"midi":48,"time":194.64,"velocity":0.28346456692913385},{"duration":0.2400000000000091,"midi":48,"time":194.64,"velocity":0.28346456692913385},{"duration":0.2400000000000091,"midi":69,"time":194.64,"velocity":0.3543307086614173},{"duration":0.2400000000000091,"midi":60,"time":194.64,"velocity":0.28346456692913385},{"duration":0.2400000000000091,"midi":60,"time":194.64,"velocity":0.28346456692913385},{"duration":0.2400000000000091,"midi":70,"time":194.88,"velocity":0.23622047244094488},{"duration":0.2400000000000091,"midi":62,"time":194.88,"velocity":0.23622047244094488},{"duration":0.2400000000000091,"midi":62,"time":194.88,"velocity":0.33858267716535434},{"duration":0.2400000000000091,"midi":74,"time":194.88,"velocity":0.23622047244094488},{"duration":0.2400000000000091,"midi":58,"time":194.88,"velocity":0.25196850393700787},{"duration":0.2400000000000091,"midi":74,"time":194.88,"velocity":0.33858267716535434},{"duration":0.2400000000000091,"midi":70,"time":194.88,"velocity":0.25196850393700787},{"duration":0.2400000000000091,"midi":50,"time":194.88,"velocity":0.33858267716535434},{"duration":0.2400000000000091,"midi":62,"time":194.88,"velocity":0.33858267716535434},{"duration":0.23999999999998067,"midi":72,"time":195.12,"velocity":0.23622047244094488},{"duration":0.23999999999998067,"midi":67,"time":195.12,"velocity":0.33858267716535434},{"duration":0.23999999999998067,"midi":55,"time":195.12,"velocity":0.33858267716535434},{"duration":0.23999999999998067,"midi":72,"time":195.12,"velocity":0.33858267716535434},{"duration":0.23999999999998067,"midi":60,"time":195.12,"velocity":0.23622047244094488},{"duration":0.23999999999998067,"midi":67,"time":195.12,"velocity":0.23622047244094488},{"duration":0.23999999999998067,"midi":48,"time":195.12,"velocity":0.33858267716535434},{"duration":0.23999999999998067,"midi":60,"time":195.12,"velocity":0.33858267716535434},{"duration":0.23999999999998067,"midi":60,"time":195.12,"velocity":0.33858267716535434},{"duration":0.2400000000000091,"midi":65,"time":195.35999999999999,"velocity":0.23622047244094488},{"duration":0.12000000000000455,"midi":74,"time":195.35999999999999,"velocity":0.31496062992125984},{"duration":0.2400000000000091,"midi":58,"time":195.35999999999999,"velocity":0.33858267716535434},{"duration":0.2400000000000091,"midi":53,"time":195.35999999999999,"velocity":0.33858267716535434},{"duration":0.2400000000000091,"midi":46,"time":195.35999999999999,"velocity":0.33858267716535434},{"duration":0.2400000000000091,"midi":58,"time":195.35999999999999,"velocity":0.23622047244094488},{"duration":0.2400000000000091,"midi":65,"time":195.35999999999999,"velocity":0.33858267716535434},{"duration":0.2400000000000091,"midi":58,"time":195.35999999999999,"velocity":0.33858267716535434},{"duration":0.2400000000000091,"midi":70,"time":195.35999999999999,"velocity":0.23622047244094488},{"duration":0.2400000000000091,"midi":70,"time":195.35999999999999,"velocity":0.33858267716535434},{"duration":0.2400000000000091,"midi":72,"time":195.6,"velocity":0.23622047244094488},{"duration":0.2400000000000091,"midi":67,"time":195.6,"velocity":0.23622047244094488},{"duration":0.2400000000000091,"midi":60,"time":195.6,"velocity":0.33858267716535434},{"duration":0.2400000000000091,"midi":72,"time":195.6,"velocity":0.33858267716535434},{"duration":0.2400000000000091,"midi":67,"time":195.6,"velocity":0.33858267716535434},{"duration":0.2400000000000091,"midi":60,"time":195.6,"velocity":0.23622047244094488},{"duration":0.12000000000000455,"midi":75,"time":195.6,"velocity":0.2755905511811024},{"duration":0.2400000000000091,"midi":48,"time":195.6,"velocity":0.33858267716535434},{"duration":0.2400000000000091,"midi":55,"time":195.6,"velocity":0.33858267716535434},{"duration":0.2400000000000091,"midi":60,"time":195.6,"velocity":0.33858267716535434},{"duration":0.7199999999999989,"midi":46,"time":195.84,"velocity":0.30708661417322836},{"duration":0.23999999999998067,"midi":67,"time":195.84,"velocity":0.30708661417322836},{"duration":0.7199999999999989,"midi":55,"time":195.84,"velocity":0.30708661417322836},{"duration":0.23999999999998067,"midi":58,"time":195.84,"velocity":0.30708661417322836},{"duration":0.7199999999999989,"midi":55,"time":195.84,"velocity":0.33858267716535434},{"duration":0.5999999999999943,"midi":58,"time":195.84,"velocity":0.23622047244094488},{"duration":0.5999999999999943,"midi":67,"time":195.84,"velocity":0.23622047244094488},{"duration":0.23999999999998067,"midi":70,"time":195.84,"velocity":0.23622047244094488},{"duration":0.7199999999999989,"midi":43,"time":195.84,"velocity":0.33858267716535434},{"duration":0.47999999999998977,"midi":77,"time":195.84,"velocity":0.2204724409448819},{"duration":0.47999999999998977,"midi":65,"time":195.84,"velocity":0.36220472440944884},{"duration":0.2400000000000091,"midi":70,"time":196.2,"velocity":0.23622047244094488},{"duration":0.36000000000001364,"midi":58,"time":196.2,"velocity":0.23622047244094488},{"duration":0.36000000000001364,"midi":67,"time":196.2,"velocity":0.23622047244094488},{"duration":0.12000000000000455,"midi":67,"time":196.44,"velocity":0.3228346456692913},{"duration":0.12000000000000455,"midi":68,"time":196.5,"velocity":0.33858267716535434},{"duration":0.23999999999998067,"midi":69,"time":196.56,"velocity":0.3543307086614173},{"duration":0.23999999999998067,"midi":48,"time":196.56,"velocity":0.28346456692913385},{"duration":0.23999999999998067,"midi":48,"time":196.56,"velocity":0.28346456692913385},{"duration":0.23999999999998067,"midi":60,"time":196.56,"velocity":0.28346456692913385},{"duration":0.23999999999998067,"midi":57,"time":196.56,"velocity":0.28346456692913385},{"duration":0.23999999999998067,"midi":60,"time":196.56,"velocity":0.28346456692913385},{"duration":0.23999999999998067,"midi":69,"time":196.56,"velocity":0.28346456692913385},{"duration":0.7199999999999989,"midi":55,"time":196.79999999999998,"velocity":0.33858267716535434},{"duration":0.7199999999999989,"midi":43,"time":196.79999999999998,"velocity":0.33858267716535434},{"duration":0.2400000000000091,"midi":58,"time":196.79999999999998,"velocity":0.23622047244094488},{"duration":0.7199999999999989,"midi":55,"time":196.79999999999998,"velocity":0.30708661417322836},{"duration":0.6000000000000227,"midi":58,"time":196.79999999999998,"velocity":0.30708661417322836},{"duration":0.2400000000000091,"midi":67,"time":196.79999999999998,"velocity":0.30708661417322836},{"duration":0.2400000000000091,"midi":70,"time":196.79999999999998,"velocity":0.23622047244094488},{"duration":0.7199999999999989,"midi":46,"time":196.79999999999998,"velocity":0.30708661417322836},{"duration":0.6000000000000227,"midi":67,"time":196.79999999999998,"velocity":0.23622047244094488},{"duration":0.6000000000000227,"midi":65,"time":196.79999999999998,"velocity":0.36220472440944884},{"duration":0.3599999999999852,"midi":67,"time":197.16,"velocity":0.23622047244094488},{"duration":0.3599999999999852,"midi":58,"time":197.16,"velocity":0.23622047244094488},{"duration":0.2400000000000091,"midi":70,"time":197.16,"velocity":0.23622047244094488},{"duration":0.12000000000000455,"midi":68,"time":197.45999999999998,"velocity":0.3543307086614173},{"duration":0.2400000000000091,"midi":69,"time":197.51999999999998,"velocity":0.30708661417322836},{"duration":0.2400000000000091,"midi":60,"time":197.51999999999998,"velocity":0.28346456692913385},{"duration":0.2400000000000091,"midi":69,"time":197.51999999999998,"velocity":0.3543307086614173},{"duration":0.2400000000000091,"midi":57,"time":197.51999999999998,"velocity":0.30708661417322836},{"duration":0.2400000000000091,"midi":48,"time":197.51999999999998,"velocity":0.30708661417322836},{"duration":0.2400000000000091,"midi":48,"time":197.51999999999998,"velocity":0.28346456692913385},{"duration":0.2400000000000091,"midi":60,"time":197.51999999999998,"velocity":0.30708661417322836},{"duration":0.7199999999999989,"midi":65,"time":197.76,"velocity":0.36220472440944884},{"duration":0.7199999999999989,"midi":55,"time":197.76,"velocity":0.33858267716535434},{"duration":0.2400000000000091,"midi":70,"time":197.76,"velocity":0.23622047244094488},{"duration":0.7199999999999989,"midi":55,"time":197.76,"velocity":0.30708661417322836},{"duration":0.2400000000000091,"midi":58,"time":197.76,"velocity":0.23622047244094488},{"duration":0.2400000000000091,"midi":67,"time":197.76,"velocity":0.23622047244094488},{"duration":0.7199999999999989,"midi":43,"time":197.76,"velocity":0.33858267716535434},{"duration":0.5999999999999943,"midi":58,"time":197.76,"velocity":0.30708661417322836},{"duration":0.5999999999999943,"midi":67,"time":197.76,"velocity":0.30708661417322836},{"duration":0.7199999999999989,"midi":46,"time":197.76,"velocity":0.30708661417322836},{"duration":0.3599999999999852,"midi":58,"time":198.12,"velocity":0.23622047244094488},{"duration":0.23999999999998067,"midi":70,"time":198.12,"velocity":0.23622047244094488},{"duration":0.3599999999999852,"midi":67,"time":198.12,"velocity":0.23622047244094488},{"duration":0.2400000000000091,"midi":69,"time":198.48,"velocity":0.28346456692913385},{"duration":0.2400000000000091,"midi":48,"time":198.48,"velocity":0.28346456692913385},{"duration":0.2400000000000091,"midi":57,"time":198.48,"velocity":0.28346456692913385},{"duration":0.2400000000000091,"midi":48,"time":198.48,"velocity":0.28346456692913385},{"duration":0.2400000000000091,"midi":69,"time":198.48,"velocity":0.3543307086614173},{"duration":0.2400000000000091,"midi":60,"time":198.48,"velocity":0.28346456692913385},{"duration":0.2400000000000091,"midi":60,"time":198.48,"velocity":0.28346456692913385},{"duration":0.23999999999998067,"midi":70,"time":198.72,"velocity":0.23622047244094488},{"duration":0.23999999999998067,"midi":62,"time":198.72,"velocity":0.33858267716535434},{"duration":0.23999999999998067,"midi":50,"time":198.72,"velocity":0.33858267716535434},{"duration":0.23999999999998067,"midi":58,"time":198.72,"velocity":0.25196850393700787},{"duration":0.23999999999998067,"midi":74,"time":198.72,"velocity":0.33858267716535434},{"duration":0.23999999999998067,"midi":62,"time":198.72,"velocity":0.33858267716535434},{"duration":0.23999999999998067,"midi":74,"time":198.72,"velocity":0.23622047244094488},{"duration":0.23999999999998067,"midi":62,"time":198.72,"velocity":0.23622047244094488},{"duration":0.23999999999998067,"midi":70,"time":198.72,"velocity":0.25196850393700787},{"duration":0.12000000000000455,"midi":82,"time":198.72,"velocity":0.3779527559055118},{"duration":0.2400000000000091,"midi":48,"time":198.95999999999998,"velocity":0.33858267716535434},{"duration":0.2400000000000091,"midi":72,"time":198.95999999999998,"velocity":0.33858267716535434},{"duration":0.2400000000000091,"midi":67,"time":198.95999999999998,"velocity":0.33858267716535434},{"duration":0.2400000000000091,"midi":72,"time":198.95999999999998,"velocity":0.23622047244094488},{"duration":0.2400000000000091,"midi":60,"time":198.95999999999998,"velocity":0.33858267716535434},{"duration":0.12000000000000455,"midi":81,"time":198.95999999999998,"velocity":0.3779527559055118},{"duration":0.2400000000000091,"midi":55,"time":198.95999999999998,"velocity":0.33858267716535434},{"duration":0.2400000000000091,"midi":60,"time":198.95999999999998,"velocity":0.23622047244094488},{"duration":0.2400000000000091,"midi":60,"time":198.95999999999998,"velocity":0.33858267716535434},{"duration":0.2400000000000091,"midi":67,"time":198.95999999999998,"velocity":0.23622047244094488},{"duration":0.12000000000000455,"midi":82,"time":199.01999999999998,"velocity":0.3779527559055118},{"duration":0.12000000000000455,"midi":81,"time":199.07999999999998,"velocity":0.3779527559055118},{"duration":0.2400000000000091,"midi":58,"time":199.2,"velocity":0.33858267716535434},{"duration":0.2400000000000091,"midi":53,"time":199.2,"velocity":0.33858267716535434},{"duration":0.2400000000000091,"midi":58,"time":199.2,"velocity":0.33858267716535434},{"duration":0.2400000000000091,"midi":70,"time":199.2,"velocity":0.33858267716535434},{"duration":0.2400000000000091,"midi":70,"time":199.2,"velocity":0.23622047244094488},{"duration":0.2400000000000091,"midi":65,"time":199.2,"velocity":0.33858267716535434},{"duration":0.2400000000000091,"midi":46,"time":199.2,"velocity":0.33858267716535434},{"duration":0.2400000000000091,"midi":65,"time":199.2,"velocity":0.23622047244094488},{"duration":0.2400000000000091,"midi":79,"time":199.2,"velocity":0.3779527559055118},{"duration":0.2400000000000091,"midi":58,"time":199.2,"velocity":0.23622047244094488},{"duration":0.2400000000000091,"midi":60,"time":199.44,"velocity":0.33858267716535434},{"duration":0.2400000000000091,"midi":72,"time":199.44,"velocity":0.23622047244094488},{"duration":0.2400000000000091,"midi":72,"time":199.44,"velocity":0.33858267716535434},{"duration":0.2400000000000091,"midi":67,"time":199.44,"velocity":0.33858267716535434},{"duration":0.2400000000000091,"midi":55,"time":199.44,"velocity":0.33858267716535434},{"duration":0.2400000000000091,"midi":81,"time":199.44,"velocity":0.3779527559055118},{"duration":0.2400000000000091,"midi":60,"time":199.44,"velocity":0.33858267716535434},{"duration":0.2400000000000091,"midi":60,"time":199.44,"velocity":0.23622047244094488},{"duration":0.2400000000000091,"midi":48,"time":199.44,"velocity":0.33858267716535434},{"duration":0.2400000000000091,"midi":67,"time":199.44,"velocity":0.23622047244094488},{"duration":0.23999999999998067,"midi":58,"time":199.68,"velocity":0.2992125984251969},{"duration":0.23999999999998067,"midi":70,"time":199.68,"velocity":0.2992125984251969},{"duration":0.7199999999999989,"midi":82,"time":199.68,"velocity":0.3779527559055118},{"duration":0.23999999999998067,"midi":63,"time":199.68,"velocity":0.25196850393700787},{"duration":0.5999999999999943,"midi":58,"time":199.68,"velocity":0.25196850393700787},{"duration":0.7199999999999989,"midi":46,"time":199.68,"velocity":0.25196850393700787},{"duration":0.7199999999999989,"midi":51,"time":199.68,"velocity":0.25196850393700787},{"duration":0.7199999999999989,"midi":39,"time":199.68,"velocity":0.25196850393700787},{"duration":0.5999999999999943,"midi":63,"time":199.68,"velocity":0.23622047244094488},{"duration":0.7199999999999989,"midi":51,"time":199.68,"velocity":0.25196850393700787},{"duration":0.5999999999999943,"midi":70,"time":199.68,"velocity":0.23622047244094488},{"duration":0.7199999999999989,"midi":58,"time":199.68,"velocity":0.23622047244094488},{"duration":0.36000000000001364,"midi":70,"time":200.04,"velocity":0.23622047244094488},{"duration":0.36000000000001364,"midi":58,"time":200.04,"velocity":0.23622047244094488},{"duration":0.36000000000001364,"midi":63,"time":200.04,"velocity":0.23622047244094488},{"duration":0.11999999999997613,"midi":80,"time":200.34,"velocity":0.3779527559055118},{"duration":0.23999999999998067,"midi":45,"time":200.4,"velocity":0.25196850393700787},{"duration":0.23999999999998067,"midi":62,"time":200.4,"velocity":0.25196850393700787},{"duration":0.23999999999998067,"midi":69,"time":200.4,"velocity":0.25196850393700787},{"duration":0.23999999999998067,"midi":57,"time":200.4,"velocity":0.25196850393700787},{"duration":0.23999999999998067,"midi":50,"time":200.4,"velocity":0.25196850393700787},{"duration":0.23999999999998067,"midi":57,"time":200.4,"velocity":0.25196850393700787},{"duration":0.23999999999998067,"midi":81,"time":200.4,"velocity":0.3779527559055118},{"duration":0.23999999999998067,"midi":38,"time":200.4,"velocity":0.25196850393700787},{"duration":0.23999999999998067,"midi":50,"time":200.4,"velocity":0.25196850393700787},{"duration":0.7199999999999989,"midi":77,"time":200.64,"velocity":0.3779527559055118},{"duration":0.7199999999999989,"midi":39,"time":200.64,"velocity":0.25196850393700787},{"duration":0.2400000000000091,"midi":58,"time":200.64,"velocity":0.23622047244094488},{"duration":0.2400000000000091,"midi":63,"time":200.64,"velocity":0.23622047244094488},{"duration":0.2400000000000091,"midi":70,"time":200.64,"velocity":0.29133858267716534},{"duration":0.7199999999999989,"midi":51,"time":200.64,"velocity":0.25196850393700787},{"duration":0.7199999999999989,"midi":51,"time":200.64,"velocity":0.25196850393700787},{"duration":0.5999999999999943,"midi":63,"time":200.64,"velocity":0.25196850393700787},{"duration":0.5999999999999943,"midi":58,"time":200.64,"velocity":0.29133858267716534},{"duration":0.7199999999999989,"midi":58,"time":200.64,"velocity":0.25196850393700787},{"duration":0.7199999999999989,"midi":46,"time":200.64,"velocity":0.25196850393700787},{"duration":0.5999999999999943,"midi":70,"time":200.64,"velocity":0.3779527559055118},{"duration":0.7199999999999989,"midi":70,"time":200.64,"velocity":0.23622047244094488},{"duration":0.3599999999999852,"midi":58,"time":201,"velocity":0.23622047244094488},{"duration":0.3599999999999852,"midi":70,"time":201,"velocity":0.23622047244094488},{"duration":0.3599999999999852,"midi":63,"time":201,"velocity":0.23622047244094488},{"duration":0.2400000000000091,"midi":38,"time":201.35999999999999,"velocity":0.25196850393700787},{"duration":0.2400000000000091,"midi":57,"time":201.35999999999999,"velocity":0.25196850393700787},{"duration":0.2400000000000091,"midi":62,"time":201.35999999999999,"velocity":0.25196850393700787},{"duration":0.2400000000000091,"midi":50,"time":201.35999999999999,"velocity":0.25196850393700787},{"duration":0.2400000000000091,"midi":45,"time":201.35999999999999,"velocity":0.25196850393700787},{"duration":0.2400000000000091,"midi":69,"time":201.35999999999999,"velocity":0.25196850393700787},{"duration":0.2400000000000091,"midi":50,"time":201.35999999999999,"velocity":0.25196850393700787},{"duration":0.2400000000000091,"midi":75,"time":201.35999999999999,"velocity":0.3779527559055118},{"duration":0.2400000000000091,"midi":57,"time":201.35999999999999,"velocity":0.25196850393700787},{"duration":0.7199999999999989,"midi":51,"time":201.6,"velocity":0.25196850393700787},{"duration":0.7199999999999989,"midi":46,"time":201.6,"velocity":0.25196850393700787},{"duration":0.2400000000000091,"midi":70,"time":201.6,"velocity":0.29133858267716534},{"duration":0.2400000000000091,"midi":63,"time":201.6,"velocity":0.23622047244094488},{"duration":0.2400000000000091,"midi":58,"time":201.6,"velocity":0.29133858267716534},{"duration":0.5999999999999943,"midi":63,"time":201.6,"velocity":0.25196850393700787},{"duration":0.7199999999999989,"midi":51,"time":201.6,"velocity":0.25196850393700787},{"duration":0.5999999999999943,"midi":70,"time":201.6,"velocity":0.23622047244094488},{"duration":0.7199999999999989,"midi":74,"time":201.6,"velocity":0.3779527559055118},{"duration":0.7199999999999989,"midi":70,"time":201.6,"velocity":0.3779527559055118},{"duration":0.5999999999999943,"midi":58,"time":201.6,"velocity":0.23622047244094488},{"duration":0.7199999999999989,"midi":39,"time":201.6,"velocity":0.25196850393700787},{"duration":0.7199999999999989,"midi":58,"time":201.6,"velocity":0.25196850393700787},{"duration":0.36000000000001364,"midi":63,"time":201.95999999999998,"velocity":0.23622047244094488},{"duration":0.36000000000001364,"midi":58,"time":201.95999999999998,"velocity":0.23622047244094488},{"duration":0.36000000000001364,"midi":70,"time":201.95999999999998,"velocity":0.23622047244094488},{"duration":0.2400000000000091,"midi":72,"time":202.32,"velocity":0.3779527559055118},{"duration":0.2400000000000091,"midi":69,"time":202.32,"velocity":0.25196850393700787},{"duration":0.2400000000000091,"midi":38,"time":202.32,"velocity":0.25196850393700787},{"duration":0.2400000000000091,"midi":57,"time":202.32,"velocity":0.25196850393700787},{"duration":0.2400000000000091,"midi":50,"time":202.32,"velocity":0.25196850393700787},{"duration":0.2400000000000091,"midi":57,"time":202.32,"velocity":0.25196850393700787},{"duration":0.2400000000000091,"midi":50,"time":202.32,"velocity":0.25196850393700787},{"duration":0.2400000000000091,"midi":62,"time":202.32,"velocity":0.25196850393700787},{"duration":0.2400000000000091,"midi":45,"time":202.32,"velocity":0.25196850393700787},{"duration":0.23999999999998067,"midi":70,"time":202.56,"velocity":0.23622047244094488},{"duration":0.23999999999998067,"midi":62,"time":202.56,"velocity":0.23622047244094488},{"duration":0.23999999999998067,"midi":70,"time":202.56,"velocity":0.3779527559055118},{"duration":0.23999999999998067,"midi":46,"time":202.56,"velocity":0.25196850393700787},{"duration":0.23999999999998067,"midi":62,"time":202.56,"velocity":0.33070866141732286},{"duration":0.23999999999998067,"midi":70,"time":202.56,"velocity":0.30708661417322836},{"duration":0.23999999999998067,"midi":74,"time":202.56,"velocity":0.33070866141732286},{"duration":0.23999999999998067,"midi":58,"time":202.56,"velocity":0.30708661417322836},{"duration":0.23999999999998067,"midi":62,"time":202.56,"velocity":0.33070866141732286},{"duration":0.23999999999998067,"midi":74,"time":202.56,"velocity":0.23622047244094488},{"duration":0.23999999999998067,"midi":58,"time":202.56,"velocity":0.25196850393700787},{"duration":0.23999999999998067,"midi":50,"time":202.56,"velocity":0.33070866141732286},{"duration":0.2400000000000091,"midi":72,"time":202.79999999999998,"velocity":0.23622047244094488},{"duration":0.2400000000000091,"midi":67,"time":202.79999999999998,"velocity":0.23622047244094488},{"duration":0.2400000000000091,"midi":60,"time":202.79999999999998,"velocity":0.23622047244094488},{"duration":0.2400000000000091,"midi":60,"time":202.79999999999998,"velocity":0.33070866141732286},{"duration":0.2400000000000091,"midi":48,"time":202.79999999999998,"velocity":0.33070866141732286},{"duration":0.2400000000000091,"midi":67,"time":202.79999999999998,"velocity":0.33070866141732286},{"duration":0.2400000000000091,"midi":72,"time":202.79999999999998,"velocity":0.3779527559055118},{"duration":0.2400000000000091,"midi":72,"time":202.79999999999998,"velocity":0.33070866141732286},{"duration":0.2400000000000091,"midi":55,"time":202.79999999999998,"velocity":0.33070866141732286},{"duration":0.2400000000000091,"midi":60,"time":202.79999999999998,"velocity":0.33070866141732286},{"duration":0.2400000000000091,"midi":65,"time":203.04,"velocity":0.23622047244094488},{"duration":0.2400000000000091,"midi":58,"time":203.04,"velocity":0.33070866141732286},{"duration":0.2400000000000091,"midi":53,"time":203.04,"velocity":0.33070866141732286},{"duration":0.2400000000000091,"midi":74,"time":203.04,"velocity":0.3779527559055118},{"duration":0.2400000000000091,"midi":70,"time":203.04,"velocity":0.33070866141732286},{"duration":0.2400000000000091,"midi":70,"time":203.04,"velocity":0.23622047244094488},{"duration":0.2400000000000091,"midi":65,"time":203.04,"velocity":0.33070866141732286},{"duration":0.2400000000000091,"midi":58,"time":203.04,"velocity":0.33070866141732286},{"duration":0.2400000000000091,"midi":46,"time":203.04,"velocity":0.33070866141732286},{"duration":0.23999999999998067,"midi":72,"time":203.28,"velocity":0.33070866141732286},{"duration":0.23999999999998067,"midi":55,"time":203.28,"velocity":0.33070866141732286},{"duration":0.23999999999998067,"midi":72,"time":203.28,"velocity":0.23622047244094488},{"duration":0.23999999999998067,"midi":60,"time":203.28,"velocity":0.33070866141732286},{"duration":0.23999999999998067,"midi":67,"time":203.28,"velocity":0.23622047244094488},{"duration":0.23999999999998067,"midi":60,"time":203.28,"velocity":0.33070866141732286},{"duration":0.23999999999998067,"midi":75,"time":203.28,"velocity":0.3779527559055118},{"duration":0.23999999999998067,"midi":48,"time":203.28,"velocity":0.33070866141732286},{"duration":0.23999999999998067,"midi":67,"time":203.28,"velocity":0.33070866141732286},{"duration":0.23999999999998067,"midi":60,"time":203.28,"velocity":0.23622047244094488},{"duration":0.2400000000000091,"midi":63,"time":203.51999999999998,"velocity":0.25196850393700787},{"duration":0.2400000000000091,"midi":58,"time":203.51999999999998,"velocity":0.2992125984251969},{"duration":0.7199999999999989,"midi":51,"time":203.51999999999998,"velocity":0.25196850393700787},{"duration":0.6000000000000227,"midi":58,"time":203.51999999999998,"velocity":0.25196850393700787},{"duration":0.6000000000000227,"midi":63,"time":203.51999999999998,"velocity":0.23622047244094488},{"duration":0.2400000000000091,"midi":70,"time":203.51999999999998,"velocity":0.23622047244094488},{"duration":0.7199999999999989,"midi":46,"time":203.51999999999998,"velocity":0.25196850393700787},{"duration":0.6000000000000227,"midi":70,"time":203.51999999999998,"velocity":0.3779527559055118},{"duration":0.7199999999999989,"midi":70,"time":203.51999999999998,"velocity":0.2992125984251969},{"duration":0.7199999999999989,"midi":77,"time":203.51999999999998,"velocity":0.3779527559055118},{"duration":0.7199999999999989,"midi":58,"time":203.51999999999998,"velocity":0.23622047244094488},{"duration":0.7199999999999989,"midi":39,"time":203.51999999999998,"velocity":0.25196850393700787},{"duration":0.7199999999999989,"midi":51,"time":203.51999999999998,"velocity":0.25196850393700787},{"duration":0.3599999999999852,"midi":70,"time":203.88,"velocity":0.23622047244094488},{"duration":0.3599999999999852,"midi":58,"time":203.88,"velocity":0.23622047244094488},{"duration":0.3599999999999852,"midi":63,"time":203.88,"velocity":0.23622047244094488},{"duration":0.2400000000000091,"midi":57,"time":204.23999999999998,"velocity":0.25196850393700787},{"duration":0.2400000000000091,"midi":45,"time":204.23999999999998,"velocity":0.25196850393700787},{"duration":0.2400000000000091,"midi":38,"time":204.23999999999998,"velocity":0.25196850393700787},{"duration":0.2400000000000091,"midi":50,"time":204.23999999999998,"velocity":0.25196850393700787},{"duration":0.2400000000000091,"midi":50,"time":204.23999999999998,"velocity":0.25196850393700787},{"duration":0.2400000000000091,"midi":69,"time":204.23999999999998,"velocity":0.25196850393700787},{"duration":0.2400000000000091,"midi":57,"time":204.23999999999998,"velocity":0.25196850393700787},{"duration":0.2400000000000091,"midi":62,"time":204.23999999999998,"velocity":0.25196850393700787},{"duration":0.7199999999999989,"midi":51,"time":204.48,"velocity":0.25196850393700787},{"duration":0.2400000000000091,"midi":70,"time":204.48,"velocity":0.29133858267716534},{"duration":0.2400000000000091,"midi":63,"time":204.48,"velocity":0.23622047244094488},{"duration":0.7199999999999989,"midi":79,"time":204.48,"velocity":0.3779527559055118},{"duration":0.2400000000000091,"midi":58,"time":204.48,"velocity":0.29133858267716534},{"duration":0.7199999999999989,"midi":51,"time":204.48,"velocity":0.25196850393700787},{"duration":0.7199999999999989,"midi":46,"time":204.48,"velocity":0.25196850393700787},{"duration":0.5999999999999943,"midi":58,"time":204.48,"velocity":0.23622047244094488},{"duration":0.7199999999999989,"midi":72,"time":204.48,"velocity":0.3779527559055118},{"duration":0.7199999999999989,"midi":58,"time":204.48,"velocity":0.25196850393700787},{"duration":0.5999999999999943,"midi":63,"time":204.48,"velocity":0.25196850393700787},{"duration":0.7199999999999989,"midi":39,"time":204.48,"velocity":0.25196850393700787},{"duration":0.5999999999999943,"midi":70,"time":204.48,"velocity":0.23622047244094488},{"duration":0.3599999999999852,"midi":58,"time":204.84,"velocity":0.23622047244094488},{"duration":0.3599999999999852,"midi":63,"time":204.84,"velocity":0.23622047244094488},{"duration":0.3599999999999852,"midi":70,"time":204.84,"velocity":0.23622047244094488},{"duration":0.2400000000000091,"midi":38,"time":205.2,"velocity":0.25196850393700787},{"duration":0.2400000000000091,"midi":57,"time":205.2,"velocity":0.25196850393700787},{"duration":0.2400000000000091,"midi":62,"time":205.2,"velocity":0.25196850393700787},{"duration":0.2400000000000091,"midi":57,"time":205.2,"velocity":0.25196850393700787},{"duration":0.2400000000000091,"midi":50,"time":205.2,"velocity":0.25196850393700787},{"duration":0.2400000000000091,"midi":69,"time":205.2,"velocity":0.25196850393700787},{"duration":0.2400000000000091,"midi":50,"time":205.2,"velocity":0.25196850393700787},{"duration":0.2400000000000091,"midi":45,"time":205.2,"velocity":0.25196850393700787},{"duration":0.7199999999999989,"midi":81,"time":205.44,"velocity":0.3779527559055118},{"duration":0.7199999999999989,"midi":51,"time":205.44,"velocity":0.25196850393700787},{"duration":0.7199999999999989,"midi":74,"time":205.44,"velocity":0.3779527559055118},{"duration":0.23999999999998067,"midi":70,"time":205.44,"velocity":0.29133858267716534},{"duration":0.23999999999998067,"midi":58,"time":205.44,"velocity":0.23622047244094488},{"duration":0.23999999999998067,"midi":63,"time":205.44,"velocity":0.23622047244094488},{"duration":0.7199999999999989,"midi":51,"time":205.44,"velocity":0.25196850393700787},{"duration":0.7199999999999989,"midi":46,"time":205.44,"velocity":0.25196850393700787},{"duration":0.5999999999999943,"midi":58,"time":205.44,"velocity":0.29133858267716534},{"duration":0.7199999999999989,"midi":39,"time":205.44,"velocity":0.25196850393700787},{"duration":0.5999999999999943,"midi":70,"time":205.44,"velocity":0.23622047244094488},{"duration":0.5999999999999943,"midi":63,"time":205.44,"velocity":0.25196850393700787},{"duration":0.7199999999999989,"midi":58,"time":205.44,"velocity":0.25196850393700787},{"duration":0.36000000000001364,"midi":58,"time":205.79999999999998,"velocity":0.23622047244094488},{"duration":0.36000000000001364,"midi":70,"time":205.79999999999998,"velocity":0.23622047244094488},{"duration":0.36000000000001364,"midi":63,"time":205.79999999999998,"velocity":0.23622047244094488},{"duration":0.2400000000000091,"midi":45,"time":206.16,"velocity":0.25196850393700787},{"duration":0.2400000000000091,"midi":69,"time":206.16,"velocity":0.25196850393700787},{"duration":0.2400000000000091,"midi":50,"time":206.16,"velocity":0.25196850393700787},{"duration":0.2400000000000091,"midi":62,"time":206.16,"velocity":0.25196850393700787},{"duration":0.2400000000000091,"midi":57,"time":206.16,"velocity":0.25196850393700787},{"duration":0.2400000000000091,"midi":38,"time":206.16,"velocity":0.25196850393700787},{"duration":0.2400000000000091,"midi":57,"time":206.16,"velocity":0.25196850393700787},{"duration":0.2400000000000091,"midi":50,"time":206.16,"velocity":0.25196850393700787},{"duration":0.23999999999998067,"midi":74,"time":206.4,"velocity":0.33070866141732286},{"duration":0.11999999999997613,"midi":82,"time":206.4,"velocity":0.3779527559055118},{"duration":0.23999999999998067,"midi":74,"time":206.4,"velocity":0.23622047244094488},{"duration":0.23999999999998067,"midi":62,"time":206.4,"velocity":0.23622047244094488},{"duration":0.23999999999998067,"midi":70,"time":206.4,"velocity":0.30708661417322836},{"duration":0.23999999999998067,"midi":70,"time":206.4,"velocity":0.23622047244094488},{"duration":0.23999999999998067,"midi":50,"time":206.4,"velocity":0.25196850393700787},{"duration":0.23999999999998067,"midi":46,"time":206.4,"velocity":0.25196850393700787},{"duration":0.23999999999998067,"midi":58,"time":206.4,"velocity":0.30708661417322836},{"duration":0.23999999999998067,"midi":58,"time":206.4,"velocity":0.25196850393700787},{"duration":0.23999999999998067,"midi":62,"time":206.4,"velocity":0.25196850393700787},{"duration":0.23999999999998067,"midi":62,"time":206.4,"velocity":0.33070866141732286},{"duration":0.2400000000000091,"midi":72,"time":206.64,"velocity":0.33070866141732286},{"duration":0.2400000000000091,"midi":60,"time":206.64,"velocity":0.33070866141732286},{"duration":0.2400000000000091,"midi":55,"time":206.64,"velocity":0.33070866141732286},{"duration":0.2400000000000091,"midi":67,"time":206.64,"velocity":0.23622047244094488},{"duration":0.2400000000000091,"midi":60,"time":206.64,"velocity":0.23622047244094488},{"duration":0.2400000000000091,"midi":60,"time":206.64,"velocity":0.33070866141732286},{"duration":0.2400000000000091,"midi":67,"time":206.64,"velocity":0.33070866141732286},{"duration":0.2400000000000091,"midi":48,"time":206.64,"velocity":0.33070866141732286},{"duration":0.12000000000000455,"midi":81,"time":206.64,"velocity":0.3779527559055118},{"duration":0.2400000000000091,"midi":72,"time":206.64,"velocity":0.23622047244094488},{"duration":0.12000000000000455,"midi":82,"time":206.7,"velocity":0.3779527559055118},{"duration":0.12000000000000455,"midi":81,"time":206.76,"velocity":0.3779527559055118},{"duration":0.2400000000000091,"midi":58,"time":206.88,"velocity":0.33070866141732286},{"duration":0.2400000000000091,"midi":65,"time":206.88,"velocity":0.33070866141732286},{"duration":0.2400000000000091,"midi":79,"time":206.88,"velocity":0.3779527559055118},{"duration":0.2400000000000091,"midi":58,"time":206.88,"velocity":0.23622047244094488},{"duration":0.2400000000000091,"midi":46,"time":206.88,"velocity":0.33070866141732286},{"duration":0.2400000000000091,"midi":70,"time":206.88,"velocity":0.23622047244094488},{"duration":0.2400000000000091,"midi":65,"time":206.88,"velocity":0.23622047244094488},{"duration":0.2400000000000091,"midi":53,"time":206.88,"velocity":0.33070866141732286},{"duration":0.2400000000000091,"midi":70,"time":206.88,"velocity":0.33070866141732286},{"duration":0.2400000000000091,"midi":58,"time":206.88,"velocity":0.33070866141732286},{"duration":0.23999999999998067,"midi":81,"time":207.12,"velocity":0.3779527559055118},{"duration":0.23999999999998067,"midi":72,"time":207.12,"velocity":0.33070866141732286},{"duration":0.23999999999998067,"midi":67,"time":207.12,"velocity":0.33070866141732286},{"duration":0.23999999999998067,"midi":60,"time":207.12,"velocity":0.33070866141732286},{"duration":0.23999999999998067,"midi":48,"time":207.12,"velocity":0.33070866141732286},{"duration":0.23999999999998067,"midi":60,"time":207.12,"velocity":0.33070866141732286},{"duration":0.23999999999998067,"midi":67,"time":207.12,"velocity":0.23622047244094488},{"duration":0.23999999999998067,"midi":72,"time":207.12,"velocity":0.23622047244094488},{"duration":0.23999999999998067,"midi":55,"time":207.12,"velocity":0.33070866141732286},{"duration":0.23999999999998067,"midi":60,"time":207.12,"velocity":0.23622047244094488},{"duration":1.920000000000016,"midi":48,"time":207.35999999999999,"velocity":0.2755905511811024},{"duration":0.4800000000000182,"midi":75,"time":207.35999999999999,"velocity":0.3464566929133858},{"duration":1.920000000000016,"midi":36,"time":207.35999999999999,"velocity":0.2755905511811024},{"duration":1.920000000000016,"midi":48,"time":207.35999999999999,"velocity":0.2755905511811024},{"duration":0.2400000000000091,"midi":67,"time":207.35999999999999,"velocity":0.1968503937007874},{"duration":0.2400000000000091,"midi":55,"time":207.35999999999999,"velocity":0.2755905511811024},{"duration":1.920000000000016,"midi":43,"time":207.35999999999999,"velocity":0.2755905511811024},{"duration":0.5999999999999943,"midi":55,"time":207.35999999999999,"velocity":0.1968503937007874},{"duration":0.4800000000000182,"midi":82,"time":207.35999999999999,"velocity":0.3858267716535433},{"duration":0.2400000000000091,"midi":60,"time":207.35999999999999,"velocity":0.2755905511811024},{"duration":0.5999999999999943,"midi":60,"time":207.35999999999999,"velocity":0.1968503937007874},{"duration":0.8400000000000034,"midi":60,"time":207.72,"velocity":0.1968503937007874},{"duration":0.8400000000000034,"midi":55,"time":207.72,"velocity":0.1968503937007874},{"duration":0.23999999999998067,"midi":67,"time":207.72,"velocity":0.1968503937007874},{"duration":0.5999999999999943,"midi":60,"time":208.32,"velocity":0.1968503937007874},{"duration":0.2400000000000091,"midi":82,"time":208.32,"velocity":0.3858267716535433},{"duration":0.2400000000000091,"midi":67,"time":208.32,"velocity":0.1968503937007874},{"duration":0.2400000000000091,"midi":74,"time":208.32,"velocity":0.33070866141732286},{"duration":0.5999999999999943,"midi":55,"time":208.32,"velocity":0.1968503937007874},{"duration":0.11999999999997613,"midi":81,"time":208.56,"velocity":0.3858267716535433},{"duration":0.11999999999997613,"midi":72,"time":208.56,"velocity":0.33070866141732286},{"duration":0.11999999999997613,"midi":82,"time":208.62,"velocity":0.3858267716535433},{"duration":0.11999999999997613,"midi":74,"time":208.62,"velocity":0.33070866141732286},{"duration":0.2400000000000091,"midi":67,"time":208.67999999999998,"velocity":0.1968503937007874},{"duration":0.6000000000000227,"midi":60,"time":208.67999999999998,"velocity":0.1968503937007874},{"duration":0.12000000000000455,"midi":81,"time":208.67999999999998,"velocity":0.3858267716535433},{"duration":0.12000000000000455,"midi":72,"time":208.67999999999998,"velocity":0.33070866141732286},{"duration":0.6000000000000227,"midi":55,"time":208.67999999999998,"velocity":0.1968503937007874},{"duration":0.2400000000000091,"midi":79,"time":208.79999999999998,"velocity":0.3858267716535433},{"duration":0.2400000000000091,"midi":70,"time":208.79999999999998,"velocity":0.33070866141732286},{"duration":0.2400000000000091,"midi":81,"time":209.04,"velocity":0.3858267716535433},{"duration":0.2400000000000091,"midi":72,"time":209.04,"velocity":0.33070866141732286},{"duration":0.23999999999998067,"midi":62,"time":209.28,"velocity":0.2755905511811024},{"duration":1.9199999999999875,"midi":50,"time":209.28,"velocity":0.2755905511811024},{"duration":0.47999999999998977,"midi":82,"time":209.28,"velocity":0.3858267716535433},{"duration":0.47999999999998977,"midi":77,"time":209.28,"velocity":0.3228346456692913},{"duration":0.47999999999998977,"midi":74,"time":209.28,"velocity":0.3228346456692913},{"duration":1.9199999999999875,"midi":38,"time":209.28,"velocity":0.2755905511811024},{"duration":0.23999999999998067,"midi":69,"time":209.28,"velocity":0.1968503937007874},{"duration":0.23999999999998067,"midi":57,"time":209.28,"velocity":0.1968503937007874},{"duration":0.5999999999999943,"midi":62,"time":209.28,"velocity":0.1968503937007874},{"duration":0.5999999999999943,"midi":57,"time":209.28,"velocity":0.2755905511811024},{"duration":1.9199999999999875,"midi":45,"time":209.28,"velocity":0.2755905511811024},{"duration":1.9199999999999875,"midi":50,"time":209.28,"velocity":0.2755905511811024},{"duration":0.8400000000000034,"midi":62,"time":209.64,"velocity":0.1968503937007874},{"duration":0.8400000000000034,"midi":57,"time":209.64,"velocity":0.1968503937007874},{"duration":0.2400000000000091,"midi":69,"time":209.64,"velocity":0.1968503937007874},{"duration":0.2400000000000091,"midi":74,"time":210.23999999999998,"velocity":0.3228346456692913},{"duration":0.6000000000000227,"midi":62,"time":210.23999999999998,"velocity":0.1968503937007874},{"duration":0.2400000000000091,"midi":69,"time":210.23999999999998,"velocity":0.1968503937007874},{"duration":0.2400000000000091,"midi":82,"time":210.23999999999998,"velocity":0.3858267716535433},{"duration":0.2400000000000091,"midi":77,"time":210.23999999999998,"velocity":0.3228346456692913},{"duration":0.6000000000000227,"midi":57,"time":210.23999999999998,"velocity":0.1968503937007874},{"duration":0.12000000000000455,"midi":72,"time":210.48,"velocity":0.3858267716535433},{"duration":0.12000000000000455,"midi":81,"time":210.48,"velocity":0.3858267716535433},{"duration":0.12000000000000455,"midi":82,"time":210.54,"velocity":0.3858267716535433},{"duration":0.12000000000000455,"midi":74,"time":210.54,"velocity":0.3858267716535433},{"duration":0.5999999999999943,"midi":62,"time":210.6,"velocity":0.1968503937007874},{"duration":0.12000000000000455,"midi":81,"time":210.6,"velocity":0.3858267716535433},{"duration":0.12000000000000455,"midi":72,"time":210.6,"velocity":0.3858267716535433},{"duration":0.2400000000000091,"midi":69,"time":210.6,"velocity":0.1968503937007874},{"duration":0.5999999999999943,"midi":57,"time":210.6,"velocity":0.1968503937007874},{"duration":0.23999999999998067,"midi":70,"time":210.72,"velocity":0.3858267716535433},{"duration":0.23999999999998067,"midi":79,"time":210.72,"velocity":0.3858267716535433},{"duration":0.2400000000000091,"midi":81,"time":210.95999999999998,"velocity":0.3858267716535433},{"duration":0.2400000000000091,"midi":72,"time":210.95999999999998,"velocity":0.3858267716535433},{"duration":0.2400000000000091,"midi":58,"time":211.2,"velocity":0.2755905511811024},{"duration":0.960000000000008,"midi":51,"time":211.2,"velocity":0.2755905511811024},{"duration":0.47999999999998977,"midi":77,"time":211.2,"velocity":0.3543307086614173},{"duration":0.47999999999998977,"midi":74,"time":211.2,"velocity":0.3228346456692913},{"duration":0.2400000000000091,"midi":70,"time":211.2,"velocity":0.1968503937007874},{"duration":0.2400000000000091,"midi":63,"time":211.2,"velocity":0.2755905511811024},{"duration":0.960000000000008,"midi":46,"time":211.2,"velocity":0.2755905511811024},{"duration":0.960000000000008,"midi":39,"time":211.2,"velocity":0.2755905511811024},{"duration":0.5999999999999943,"midi":63,"time":211.2,"velocity":0.1968503937007874},{"duration":0.960000000000008,"midi":51,"time":211.2,"velocity":0.2755905511811024},{"duration":0.5999999999999943,"midi":58,"time":211.2,"velocity":0.1968503937007874},{"duration":0.47999999999998977,"midi":82,"time":211.2,"velocity":0.3858267716535433},{"duration":0.5999999999999943,"midi":58,"time":211.56,"velocity":0.1968503937007874},{"duration":0.23999999999998067,"midi":70,"time":211.56,"velocity":0.1968503937007874},{"duration":0.5999999999999943,"midi":63,"time":211.56,"velocity":0.1968503937007874},{"duration":0.2400000000000091,"midi":81,"time":211.92,"velocity":0.3858267716535433},{"duration":0.2400000000000091,"midi":72,"time":212.16,"velocity":0.1968503937007874},{"duration":0.2400000000000091,"midi":60,"time":212.16,"velocity":0.1968503937007874},{"duration":0.2400000000000091,"midi":65,"time":212.16,"velocity":0.2755905511811024},{"duration":0.47999999999998977,"midi":77,"time":212.16,"velocity":0.3858267716535433},{"duration":0.5999999999999943,"midi":60,"time":212.16,"velocity":0.2755905511811024},{"duration":0.960000000000008,"midi":41,"time":212.16,"velocity":0.2755905511811024},{"duration":0.5999999999999943,"midi":65,"time":212.16,"velocity":0.1968503937007874},{"duration":0.960000000000008,"midi":53,"time":212.16,"velocity":0.2755905511811024},{"duration":0.960000000000008,"midi":48,"time":212.16,"velocity":0.2755905511811024},{"duration":0.47999999999998977,"midi":72,"time":212.16,"velocity":0.3464566929133858},{"duration":0.960000000000008,"midi":53,"time":212.16,"velocity":0.2755905511811024},{"duration":0.2400000000000091,"midi":72,"time":212.51999999999998,"velocity":0.1968503937007874},{"duration":0.6000000000000227,"midi":60,"time":212.51999999999998,"velocity":0.1968503937007874},{"duration":0.6000000000000227,"midi":65,"time":212.51999999999998,"velocity":0.1968503937007874},{"duration":0.12000000000000455,"midi":74,"time":212.82,"velocity":0.3858267716535433},{"duration":0.2400000000000091,"midi":75,"time":212.88,"velocity":0.3858267716535433},{"duration":0.2400000000000091,"midi":69,"time":212.88,"velocity":0.2992125984251969},{"duration":0.9599999999999795,"midi":50,"time":213.12,"velocity":0.2755905511811024},{"duration":0.9599999999999795,"midi":43,"time":213.12,"velocity":0.2755905511811024},{"duration":0.23999999999998067,"midi":62,"time":213.12,"velocity":0.2755905511811024},{"duration":0.23999999999998067,"midi":67,"time":213.12,"velocity":0.2755905511811024},{"duration":0.47999999999998977,"midi":70,"time":213.12,"velocity":0.2992125984251969},{"duration":0.9599999999999795,"midi":55,"time":213.12,"velocity":0.2755905511811024},{"duration":0.5999999999999943,"midi":62,"time":213.12,"velocity":0.1968503937007874},{"duration":0.23999999999998067,"midi":74,"time":213.12,"velocity":0.1968503937007874},{"duration":0.47999999999998977,"midi":74,"time":213.12,"velocity":0.3858267716535433},{"duration":0.5999999999999943,"midi":67,"time":213.12,"velocity":0.1968503937007874},{"duration":0.9599999999999795,"midi":55,"time":213.12,"velocity":0.2755905511811024},{"duration":0.5999999999999943,"midi":62,"time":213.48,"velocity":0.1968503937007874},{"duration":0.5999999999999943,"midi":67,"time":213.48,"velocity":0.1968503937007874},{"duration":0.2400000000000091,"midi":74,"time":213.48,"velocity":0.1968503937007874},{"duration":0.23999999999998067,"midi":67,"time":213.84,"velocity":0.30708661417322836},{"duration":0.23999999999998067,"midi":72,"time":213.84,"velocity":0.3858267716535433},{"duration":0.2400000000000091,"midi":60,"time":214.07999999999998,"velocity":0.28346456692913385},{"duration":0.960000000000008,"midi":53,"time":214.07999999999998,"velocity":0.2755905511811024},{"duration":0.960000000000008,"midi":41,"time":214.07999999999998,"velocity":0.2755905511811024},{"duration":0.2400000000000091,"midi":65,"time":214.07999999999998,"velocity":0.1968503937007874},{"duration":0.2400000000000091,"midi":65,"time":214.07999999999998,"velocity":0.28346456692913385},{"duration":0.5999999999999943,"midi":60,"time":214.07999999999998,"velocity":0.1968503937007874},{"duration":0.2400000000000091,"midi":70,"time":214.07999999999998,"velocity":0.3858267716535433},{"duration":0.2400000000000091,"midi":72,"time":214.07999999999998,"velocity":0.1968503937007874},{"duration":0.960000000000008,"midi":53,"time":214.07999999999998,"velocity":0.28346456692913385},{"duration":0.5999999999999943,"midi":65,"time":214.07999999999998,"velocity":0.30708661417322836},{"duration":0.960000000000008,"midi":48,"time":214.07999999999998,"velocity":0.2755905511811024},{"duration":0.2400000000000091,"midi":72,"time":214.32,"velocity":0.3858267716535433},{"duration":0.2400000000000091,"midi":67,"time":214.32,"velocity":0.30708661417322836},{"duration":0.5999999999999943,"midi":65,"time":214.44,"velocity":0.1968503937007874},{"duration":0.5999999999999943,"midi":60,"time":214.44,"velocity":0.1968503937007874},{"duration":0.23999999999998067,"midi":72,"time":214.44,"velocity":0.1968503937007874},{"duration":0.23999999999998067,"midi":70,"time":214.56,"velocity":0.30708661417322836},{"duration":0.23999999999998067,"midi":74,"time":214.56,"velocity":0.3858267716535433},{"duration":0.2400000000000091,"midi":75,"time":214.79999999999998,"velocity":0.3858267716535433},{"duration":0.2400000000000091,"midi":72,"time":214.79999999999998,"velocity":0.30708661417322836},{"duration":0.2400000000000091,"midi":60,"time":215.04,"velocity":0.1968503937007874},{"duration":1.9199999999999875,"midi":36,"time":215.04,"velocity":0.2755905511811024},{"duration":0.5999999999999943,"midi":60,"time":215.04,"velocity":0.2755905511811024},{"duration":1.9199999999999875,"midi":48,"time":215.04,"velocity":0.2755905511811024},{"duration":1.9199999999999875,"midi":43,"time":215.04,"velocity":0.2755905511811024},{"duration":0.2400000000000091,"midi":55,"time":215.04,"velocity":0.1968503937007874},{"duration":0.2400000000000091,"midi":67,"time":215.04,"velocity":0.1968503937007874},{"duration":0.2400000000000091,"midi":77,"time":215.04,"velocity":0.3858267716535433},{"duration":0.2400000000000091,"midi":74,"time":215.04,"velocity":0.30708661417322836},{"duration":1.9199999999999875,"midi":48,"time":215.04,"velocity":0.2755905511811024},{"duration":0.5999999999999943,"midi":55,"time":215.04,"velocity":0.2755905511811024},{"duration":0.23999999999998067,"midi":77,"time":215.28,"velocity":0.3858267716535433},{"duration":0.23999999999998067,"midi":74,"time":215.28,"velocity":0.30708661417322836},{"duration":0.839999999999975,"midi":55,"time":215.4,"velocity":0.1968503937007874},{"duration":0.839999999999975,"midi":60,"time":215.4,"velocity":0.1968503937007874},{"duration":0.23999999999998067,"midi":67,"time":215.4,"velocity":0.1968503937007874},{"duration":0.2400000000000091,"midi":77,"time":215.51999999999998,"velocity":0.3858267716535433},{"duration":0.2400000000000091,"midi":72,"time":215.51999999999998,"velocity":0.30708661417322836},{"duration":0.2400000000000091,"midi":77,"time":215.76,"velocity":0.3858267716535433},{"duration":0.2400000000000091,"midi":72,"time":215.76,"velocity":0.30708661417322836},{"duration":0.47999999999998977,"midi":70,"time":216,"velocity":0.30708661417322836},{"duration":0.5999999999999943,"midi":60,"time":216,"velocity":0.1968503937007874},{"duration":0.47999999999998977,"midi":77,"time":216,"velocity":0.3858267716535433},{"duration":0.5999999999999943,"midi":55,"time":216,"velocity":0.1968503937007874},{"duration":0.23999999999998067,"midi":67,"time":216,"velocity":0.1968503937007874},{"duration":0.5999999999999943,"midi":60,"time":216.35999999999999,"velocity":0.1968503937007874},{"duration":0.2400000000000091,"midi":67,"time":216.35999999999999,"velocity":0.1968503937007874},{"duration":0.5999999999999943,"midi":55,"time":216.35999999999999,"velocity":0.1968503937007874},{"duration":0.2400000000000091,"midi":70,"time":216.48,"velocity":0.3858267716535433},{"duration":0.12000000000000455,"midi":73,"time":216.66,"velocity":0.3858267716535433},{"duration":0.23999999999998067,"midi":74,"time":216.72,"velocity":0.3858267716535433},{"duration":1.920000000000016,"midi":50,"time":216.95999999999998,"velocity":0.2755905511811024},{"duration":0.2400000000000091,"midi":62,"time":216.95999999999998,"velocity":0.1968503937007874},{"duration":1.920000000000016,"midi":50,"time":216.95999999999998,"velocity":0.2755905511811024},{"duration":0.2400000000000091,"midi":69,"time":216.95999999999998,"velocity":0.1968503937007874},{"duration":1.920000000000016,"midi":38,"time":216.95999999999998,"velocity":0.2755905511811024},{"duration":0.2400000000000091,"midi":57,"time":216.95999999999998,"velocity":0.1968503937007874},{"duration":1.920000000000016,"midi":45,"time":216.95999999999998,"velocity":0.2755905511811024},{"duration":0.2400000000000091,"midi":69,"time":216.95999999999998,"velocity":0.30708661417322836},{"duration":0.6000000000000227,"midi":57,"time":216.95999999999998,"velocity":0.2755905511811024},{"duration":0.6000000000000227,"midi":62,"time":216.95999999999998,"velocity":0.2755905511811024},{"duration":0.2400000000000091,"midi":72,"time":216.95999999999998,"velocity":0.3858267716535433},{"duration":0.2400000000000091,"midi":72,"time":217.2,"velocity":0.3858267716535433},{"duration":0.2400000000000091,"midi":69,"time":217.2,"velocity":0.30708661417322836},{"duration":0.8400000000000034,"midi":62,"time":217.32,"velocity":0.1968503937007874},{"duration":0.8400000000000034,"midi":57,"time":217.32,"velocity":0.1968503937007874},{"duration":0.2400000000000091,"midi":69,"time":217.32,"velocity":0.1968503937007874},{"duration":0.23999999999998067,"midi":72,"time":217.44,"velocity":0.3858267716535433},{"duration":0.23999999999998067,"midi":67,"time":217.44,"velocity":0.30708661417322836},{"duration":0.2400000000000091,"midi":72,"time":217.67999999999998,"velocity":0.3858267716535433},{"duration":0.2400000000000091,"midi":67,"time":217.67999999999998,"velocity":0.30708661417322836},{"duration":0.36000000000001364,"midi":65,"time":217.92,"velocity":0.30708661417322836},{"duration":0.5999999999999943,"midi":62,"time":217.92,"velocity":0.1968503937007874},{"duration":0.5999999999999943,"midi":57,"time":217.92,"velocity":0.1968503937007874},{"duration":0.36000000000001364,"midi":72,"time":217.92,"velocity":0.3858267716535433},{"duration":0.2400000000000091,"midi":69,"time":217.92,"velocity":0.1968503937007874},{"duration":0.23999999999998067,"midi":69,"time":218.28,"velocity":0.1968503937007874},{"duration":0.5999999999999943,"midi":57,"time":218.28,"velocity":0.1968503937007874},{"duration":0.5999999999999943,"midi":62,"time":218.28,"velocity":0.1968503937007874},{"duration":0.11999999999997613,"midi":73,"time":218.34,"velocity":0.3858267716535433},{"duration":0.23999999999998067,"midi":74,"time":218.4,"velocity":0.3858267716535433},{"duration":0.23999999999998067,"midi":70,"time":218.4,"velocity":0.30708661417322836},{"duration":0.2400000000000091,"midi":67,"time":218.64,"velocity":0.30708661417322836},{"duration":0.2400000000000091,"midi":72,"time":218.64,"velocity":0.3858267716535433},{"duration":0.2400000000000091,"midi":70,"time":218.88,"velocity":0.3858267716535433},{"duration":0.47999999999998977,"midi":65,"time":218.88,"velocity":0.30708661417322836},{"duration":0.960000000000008,"midi":46,"time":218.88,"velocity":0.2755905511811024},{"duration":0.960000000000008,"midi":39,"time":218.88,"velocity":0.2755905511811024},{"duration":0.960000000000008,"midi":51,"time":218.88,"velocity":0.2755905511811024},{"duration":0.2400000000000091,"midi":58,"time":218.88,"velocity":0.2755905511811024},{"duration":0.2400000000000091,"midi":63,"time":218.88,"velocity":0.2755905511811024},{"duration":0.47999999999998977,"midi":70,"time":218.88,"velocity":0.1968503937007874},{"duration":0.960000000000008,"midi":51,"time":218.88,"velocity":0.2755905511811024},{"duration":0.5999999999999943,"midi":63,"time":218.88,"velocity":0.1968503937007874},{"duration":0.5999999999999943,"midi":58,"time":218.88,"velocity":0.1968503937007874},{"duration":0.6000000000000227,"midi":63,"time":219.23999999999998,"velocity":0.1968503937007874},{"duration":0.2400000000000091,"midi":70,"time":219.23999999999998,"velocity":0.1968503937007874},{"duration":0.6000000000000227,"midi":58,"time":219.23999999999998,"velocity":0.1968503937007874},{"duration":0.2400000000000091,"midi":62,"time":219.6,"velocity":0.30708661417322836},{"duration":0.2400000000000091,"midi":65,"time":219.6,"velocity":0.3858267716535433},{"duration":0.23999999999998067,"midi":70,"time":219.84,"velocity":0.30708661417322836},{"duration":0.23999999999998067,"midi":74,"time":219.84,"velocity":0.3858267716535433},{"duration":0.9599999999999795,"midi":53,"time":219.84,"velocity":0.2755905511811024},{"duration":0.23999999999998067,"midi":65,"time":219.84,"velocity":0.2755905511811024},{"duration":0.23999999999998067,"midi":60,"time":219.84,"velocity":0.1968503937007874},{"duration":0.5999999999999943,"midi":60,"time":219.84,"velocity":0.2755905511811024},{"duration":0.23999999999998067,"midi":72,"time":219.84,"velocity":0.1968503937007874},{"duration":0.5999999999999943,"midi":65,"time":219.84,"velocity":0.1968503937007874},{"duration":0.9599999999999795,"midi":41,"time":219.84,"velocity":0.2755905511811024},{"duration":0.9599999999999795,"midi":53,"time":219.84,"velocity":0.2755905511811024},{"duration":0.9599999999999795,"midi":48,"time":219.84,"velocity":0.2755905511811024},{"duration":0.2400000000000091,"midi":72,"time":220.07999999999998,"velocity":0.30708661417322836},{"duration":0.2400000000000091,"midi":75,"time":220.07999999999998,"velocity":0.3858267716535433},{"duration":0.2400000000000091,"midi":72,"time":220.2,"velocity":0.1968503937007874},{"duration":0.5999999999999943,"midi":60,"time":220.2,"velocity":0.1968503937007874},{"duration":0.5999999999999943,"midi":65,"time":220.2,"velocity":0.1968503937007874},{"duration":0.2400000000000091,"midi":69,"time":220.32,"velocity":0.30708661417322836},{"duration":0.2400000000000091,"midi":72,"time":220.32,"velocity":0.3858267716535433},{"duration":0.12000000000000455,"midi":67,"time":220.67999999999998,"velocity":0.3858267716535433},{"duration":0.12000000000000455,"midi":70,"time":220.67999999999998,"velocity":0.3858267716535433},{"duration":0.960000000000008,"midi":55,"time":220.79999999999998,"velocity":0.2755905511811024},{"duration":0.960000000000008,"midi":50,"time":220.79999999999998,"velocity":0.2755905511811024},{"duration":0.2400000000000091,"midi":67,"time":220.79999999999998,"velocity":0.30708661417322836},{"duration":0.2400000000000091,"midi":62,"time":220.79999999999998,"velocity":0.1968503937007874},{"duration":0.2400000000000091,"midi":74,"time":220.79999999999998,"velocity":0.1968503937007874},{"duration":0.960000000000008,"midi":43,"time":220.79999999999998,"velocity":0.2755905511811024},{"duration":0.4800000000000182,"midi":67,"time":220.79999999999998,"velocity":0.2755905511811024},{"duration":0.4800000000000182,"midi":70,"time":220.79999999999998,"velocity":0.3858267716535433},{"duration":0.6000000000000227,"midi":67,"time":220.79999999999998,"velocity":0.1968503937007874},{"duration":0.6000000000000227,"midi":62,"time":220.79999999999998,"velocity":0.2755905511811024},{"duration":0.960000000000008,"midi":55,"time":220.79999999999998,"velocity":0.2755905511811024},{"duration":0.5999999999999943,"midi":62,"time":221.16,"velocity":0.1968503937007874},{"duration":0.2400000000000091,"midi":74,"time":221.16,"velocity":0.1968503937007874},{"duration":0.5999999999999943,"midi":67,"time":221.16,"velocity":0.1968503937007874},{"duration":0.2400000000000091,"midi":77,"time":221.51999999999998,"velocity":0.33070866141732286},{"duration":0.960000000000008,"midi":53,"time":221.76,"velocity":0.2755905511811024},{"duration":0.960000000000008,"midi":48,"time":221.76,"velocity":0.2755905511811024},{"duration":0.2400000000000091,"midi":60,"time":221.76,"velocity":0.2755905511811024},{"duration":0.960000000000008,"midi":53,"time":221.76,"velocity":0.2755905511811024},{"duration":0.960000000000008,"midi":41,"time":221.76,"velocity":0.2755905511811024},{"duration":0.2400000000000091,"midi":65,"time":221.76,"velocity":0.2755905511811024},{"duration":0.2400000000000091,"midi":82,"time":221.76,"velocity":0.33070866141732286},{"duration":0.7199999999999989,"midi":60,"time":221.76,"velocity":0.1968503937007874},{"duration":0.2400000000000091,"midi":72,"time":221.76,"velocity":0.1968503937007874},{"duration":0.7199999999999989,"midi":65,"time":221.76,"velocity":0.1968503937007874},{"duration":0.23999999999998067,"midi":84,"time":222,"velocity":0.33070866141732286},{"duration":0.2400000000000091,"midi":72,"time":222.23999999999998,"velocity":0.1968503937007874},{"duration":0.4800000000000182,"midi":65,"time":222.23999999999998,"velocity":0.1968503937007874},{"duration":0.4800000000000182,"midi":60,"time":222.23999999999998,"velocity":0.1968503937007874},{"duration":0.2400000000000091,"midi":86,"time":222.23999999999998,"velocity":0.33070866141732286},{"duration":0.2400000000000091,"midi":87,"time":222.48,"velocity":0.33070866141732286},{"duration":1.920000000000016,"midi":46,"time":238.07999999999998,"velocity":0.30708661417322836},{"duration":1.920000000000016,"midi":63,"time":238.07999999999998,"velocity":0.30708661417322836},{"duration":1.920000000000016,"midi":51,"time":238.07999999999998,"velocity":0.30708661417322836},{"duration":1.920000000000016,"midi":39,"time":238.07999999999998,"velocity":0.30708661417322836},{"duration":1.920000000000016,"midi":51,"time":238.07999999999998,"velocity":0.30708661417322836},{"duration":1.920000000000016,"midi":58,"time":238.07999999999998,"velocity":0.30708661417322836},{"duration":1.9199999999999875,"midi":41,"time":240,"velocity":0.30708661417322836},{"duration":1.9199999999999875,"midi":65,"time":240,"velocity":0.30708661417322836},{"duration":1.9199999999999875,"midi":48,"time":240,"velocity":0.30708661417322836},{"duration":1.9199999999999875,"midi":60,"time":240,"velocity":0.30708661417322836},{"duration":1.9199999999999875,"midi":53,"time":240,"velocity":0.30708661417322836},{"duration":1.9199999999999875,"midi":53,"time":240,"velocity":0.30708661417322836},{"duration":1.920000000000016,"midi":43,"time":241.92,"velocity":0.30708661417322836},{"duration":1.920000000000016,"midi":50,"time":241.92,"velocity":0.30708661417322836},{"duration":1.920000000000016,"midi":67,"time":241.92,"velocity":0.30708661417322836},{"duration":1.920000000000016,"midi":55,"time":241.92,"velocity":0.30708661417322836},{"duration":1.920000000000016,"midi":55,"time":241.92,"velocity":0.30708661417322836},{"duration":1.920000000000016,"midi":62,"time":241.92,"velocity":0.30708661417322836},{"duration":0.9599999999999795,"midi":50,"time":243.84,"velocity":0.30708661417322836},{"duration":0.9599999999999795,"midi":62,"time":243.84,"velocity":0.30708661417322836},{"duration":0.9599999999999795,"midi":45,"time":243.84,"velocity":0.30708661417322836},{"duration":0.9599999999999795,"midi":50,"time":243.84,"velocity":0.30708661417322836},{"duration":0.9599999999999795,"midi":38,"time":243.84,"velocity":0.30708661417322836},{"duration":0.9599999999999795,"midi":57,"time":243.84,"velocity":0.30708661417322836},{"duration":0.960000000000008,"midi":65,"time":244.79999999999998,"velocity":0.30708661417322836},{"duration":0.960000000000008,"midi":69,"time":244.79999999999998,"velocity":0.30708661417322836},{"duration":0.960000000000008,"midi":57,"time":244.79999999999998,"velocity":0.30708661417322836},{"duration":0.960000000000008,"midi":57,"time":244.79999999999998,"velocity":0.30708661417322836},{"duration":0.960000000000008,"midi":45,"time":244.79999999999998,"velocity":0.30708661417322836},{"duration":0.960000000000008,"midi":53,"time":244.79999999999998,"velocity":0.30708661417322836},{"duration":1.9199999999999875,"midi":51,"time":245.76,"velocity":0.30708661417322836},{"duration":1.9199999999999875,"midi":46,"time":245.76,"velocity":0.30708661417322836},{"duration":1.9199999999999875,"midi":63,"time":245.76,"velocity":0.30708661417322836},{"duration":1.9199999999999875,"midi":51,"time":245.76,"velocity":0.30708661417322836},{"duration":1.9199999999999875,"midi":58,"time":245.76,"velocity":0.30708661417322836},{"duration":1.9199999999999875,"midi":39,"time":245.76,"velocity":0.30708661417322836},{"duration":1.6800000000000068,"midi":65,"time":247.67999999999998,"velocity":0.30708661417322836},{"duration":1.6800000000000068,"midi":53,"time":247.67999999999998,"velocity":0.30708661417322836},{"duration":1.6800000000000068,"midi":60,"time":247.67999999999998,"velocity":0.30708661417322836},{"duration":1.6800000000000068,"midi":53,"time":247.67999999999998,"velocity":0.30708661417322836},{"duration":1.6800000000000068,"midi":48,"time":247.67999999999998,"velocity":0.30708661417322836},{"duration":1.6800000000000068,"midi":41,"time":247.67999999999998,"velocity":0.30708661417322836},{"duration":0.2400000000000091,"midi":57,"time":249.35999999999999,"velocity":0.28346456692913385},{"duration":0.2400000000000091,"midi":53,"time":249.35999999999999,"velocity":0.28346456692913385},{"duration":0.2400000000000091,"midi":45,"time":249.35999999999999,"velocity":0.28346456692913385},{"duration":0.2400000000000091,"midi":53,"time":249.35999999999999,"velocity":0.28346456692913385},{"duration":0.2400000000000091,"midi":65,"time":249.35999999999999,"velocity":0.28346456692913385},{"duration":0.2400000000000091,"midi":41,"time":249.35999999999999,"velocity":0.28346456692913385},{"duration":1.4399999999999977,"midi":43,"time":249.6,"velocity":0.30708661417322836},{"duration":1.4399999999999977,"midi":55,"time":249.6,"velocity":0.30708661417322836},{"duration":1.4399999999999977,"midi":46,"time":249.6,"velocity":0.28346456692913385},{"duration":1.4399999999999977,"midi":67,"time":249.6,"velocity":0.30708661417322836},{"duration":1.4399999999999977,"midi":58,"time":249.6,"velocity":0.28346456692913385},{"duration":1.4399999999999977,"midi":55,"time":249.6,"velocity":0.30708661417322836},{"duration":0.47999999999998977,"midi":48,"time":251.04,"velocity":0.28346456692913385},{"duration":0.47999999999998977,"midi":53,"time":251.04,"velocity":0.28346456692913385},{"duration":0.47999999999998977,"midi":65,"time":251.04,"velocity":0.28346456692913385},{"duration":0.47999999999998977,"midi":60,"time":251.04,"velocity":0.28346456692913385},{"duration":0.47999999999998977,"midi":53,"time":251.04,"velocity":0.28346456692913385},{"duration":0.47999999999998977,"midi":41,"time":251.04,"velocity":0.28346456692913385},{"duration":1.920000000000016,"midi":62,"time":251.51999999999998,"velocity":0.28346456692913385},{"duration":1.920000000000016,"midi":46,"time":251.51999999999998,"velocity":0.28346456692913385},{"duration":1.920000000000016,"midi":58,"time":251.51999999999998,"velocity":0.28346456692913385},{"duration":1.920000000000016,"midi":50,"time":251.51999999999998,"velocity":0.28346456692913385},{"duration":1.920000000000016,"midi":50,"time":251.51999999999998,"velocity":0.28346456692913385},{"duration":1.920000000000016,"midi":38,"time":251.51999999999998,"velocity":0.28346456692913385},{"duration":0.2400000000000091,"midi":67,"time":261.12,"velocity":0.25196850393700787},{"duration":0.7199999999999704,"midi":55,"time":261.12,"velocity":0.30708661417322836},{"duration":0.2400000000000091,"midi":58,"time":261.12,"velocity":0.30708661417322836},{"duration":0.5999999999999659,"midi":58,"time":261.12,"velocity":0.25196850393700787},{"duration":0.7199999999999704,"midi":43,"time":261.12,"velocity":0.33858267716535434},{"duration":0.2400000000000091,"midi":70,"time":261.12,"velocity":0.25196850393700787},{"duration":0.7199999999999704,"midi":55,"time":261.12,"velocity":0.33858267716535434},{"duration":0.5999999999999659,"midi":67,"time":261.12,"velocity":0.30708661417322836},{"duration":0.7199999999999704,"midi":46,"time":261.12,"velocity":0.30708661417322836},{"duration":0.3599999999999568,"midi":58,"time":261.48,"velocity":0.25196850393700787},{"duration":0.3599999999999568,"midi":67,"time":261.48,"velocity":0.25196850393700787},{"duration":0.23999999999995225,"midi":70,"time":261.48,"velocity":0.25196850393700787},{"duration":0.2400000000000091,"midi":60,"time":261.84,"velocity":0.28346456692913385},{"duration":0.2400000000000091,"midi":69,"time":261.84,"velocity":0.28346456692913385},{"duration":0.2400000000000091,"midi":48,"time":261.84,"velocity":0.28346456692913385},{"duration":0.2400000000000091,"midi":72,"time":261.84,"velocity":0.25196850393700787},{"duration":0.2400000000000091,"midi":60,"time":261.84,"velocity":0.28346456692913385},{"duration":0.2400000000000091,"midi":69,"time":261.84,"velocity":0.25196850393700787},{"duration":0.2400000000000091,"midi":60,"time":261.84,"velocity":0.25196850393700787},{"duration":0.2400000000000091,"midi":48,"time":261.84,"velocity":0.28346456692913385},{"duration":0.2400000000000091,"midi":57,"time":261.84,"velocity":0.28346456692913385},{"duration":0.7200000000000273,"midi":46,"time":262.08,"velocity":0.30708661417322836},{"duration":0.2400000000000091,"midi":67,"time":262.08,"velocity":0.30708661417322836},{"duration":0.7200000000000273,"midi":43,"time":262.08,"velocity":0.33858267716535434},{"duration":0.6000000000000227,"midi":67,"time":262.08,"velocity":0.25196850393700787},{"duration":0.7200000000000273,"midi":55,"time":262.08,"velocity":0.30708661417322836},{"duration":0.2400000000000091,"midi":58,"time":262.08,"velocity":0.30708661417322836},{"duration":0.7200000000000273,"midi":55,"time":262.08,"velocity":0.33858267716535434},{"duration":0.2400000000000091,"midi":70,"time":262.08,"velocity":0.25196850393700787},{"duration":0.6000000000000227,"midi":58,"time":262.08,"velocity":0.25196850393700787},{"duration":0.36000000000001364,"midi":67,"time":262.44,"velocity":0.25196850393700787},{"duration":0.2400000000000091,"midi":70,"time":262.44,"velocity":0.25196850393700787},{"duration":0.36000000000001364,"midi":58,"time":262.44,"velocity":0.25196850393700787},{"duration":0.23999999999995225,"midi":60,"time":262.8,"velocity":0.28346456692913385},{"duration":0.23999999999995225,"midi":69,"time":262.8,"velocity":0.30708661417322836},{"duration":0.23999999999995225,"midi":60,"time":262.8,"velocity":0.30708661417322836},{"duration":0.23999999999995225,"midi":48,"time":262.8,"velocity":0.30708661417322836},{"duration":0.23999999999995225,"midi":48,"time":262.8,"velocity":0.28346456692913385},{"duration":0.23999999999995225,"midi":72,"time":262.8,"velocity":0.25196850393700787},{"duration":0.23999999999995225,"midi":57,"time":262.8,"velocity":0.30708661417322836},{"duration":0.23999999999995225,"midi":60,"time":262.8,"velocity":0.25196850393700787},{"duration":0.23999999999995225,"midi":69,"time":262.8,"velocity":0.25196850393700787},{"duration":0.2400000000000091,"midi":67,"time":263.03999999999996,"velocity":0.25196850393700787},{"duration":0.7200000000000273,"midi":55,"time":263.03999999999996,"velocity":0.33858267716535434},{"duration":0.2400000000000091,"midi":70,"time":263.03999999999996,"velocity":0.25196850393700787},{"duration":0.7200000000000273,"midi":46,"time":263.03999999999996,"velocity":0.30708661417322836},{"duration":0.7200000000000273,"midi":55,"time":263.03999999999996,"velocity":0.30708661417322836},{"duration":0.6000000000000227,"midi":67,"time":263.03999999999996,"velocity":0.30708661417322836},{"duration":0.2400000000000091,"midi":58,"time":263.03999999999996,"velocity":0.25196850393700787},{"duration":0.6000000000000227,"midi":58,"time":263.03999999999996,"velocity":0.30708661417322836},{"duration":0.7200000000000273,"midi":43,"time":263.03999999999996,"velocity":0.33858267716535434},{"duration":0.2400000000000091,"midi":70,"time":263.4,"velocity":0.25196850393700787},{"duration":0.36000000000001364,"midi":58,"time":263.4,"velocity":0.25196850393700787},{"duration":0.36000000000001364,"midi":67,"time":263.4,"velocity":0.25196850393700787},{"duration":0.2400000000000091,"midi":72,"time":263.76,"velocity":0.28346456692913385},{"duration":0.2400000000000091,"midi":48,"time":263.76,"velocity":0.28346456692913385},{"duration":0.2400000000000091,"midi":69,"time":263.76,"velocity":0.28346456692913385},{"duration":0.2400000000000091,"midi":69,"time":263.76,"velocity":0.25196850393700787},{"duration":0.2400000000000091,"midi":60,"time":263.76,"velocity":0.28346456692913385},{"duration":0.2400000000000091,"midi":72,"time":263.76,"velocity":0.25196850393700787},{"duration":0.2400000000000091,"midi":60,"time":263.76,"velocity":0.25196850393700787},{"duration":0.2400000000000091,"midi":57,"time":263.76,"velocity":0.28346456692913385},{"duration":0.2400000000000091,"midi":60,"time":263.76,"velocity":0.28346456692913385},{"duration":0.2400000000000091,"midi":67,"time":264,"velocity":0.25196850393700787},{"duration":0.2400000000000091,"midi":70,"time":264,"velocity":0.25196850393700787},{"duration":0.2400000000000091,"midi":62,"time":264,"velocity":0.33858267716535434},{"duration":0.2400000000000091,"midi":58,"time":264,"velocity":0.25196850393700787},{"duration":0.2400000000000091,"midi":58,"time":264,"velocity":0.25196850393700787},{"duration":0.2400000000000091,"midi":50,"time":264,"velocity":0.33858267716535434},{"duration":0.2400000000000091,"midi":62,"time":264,"velocity":0.33858267716535434},{"duration":0.2400000000000091,"midi":70,"time":264,"velocity":0.25196850393700787},{"duration":0.2400000000000091,"midi":74,"time":264,"velocity":0.33858267716535434},{"duration":0.2400000000000091,"midi":60,"time":264.24,"velocity":0.33858267716535434},{"duration":0.2400000000000091,"midi":55,"time":264.24,"velocity":0.33858267716535434},{"duration":0.2400000000000091,"midi":60,"time":264.24,"velocity":0.33858267716535434},{"duration":0.2400000000000091,"midi":48,"time":264.24,"velocity":0.33858267716535434},{"duration":0.2400000000000091,"midi":60,"time":264.24,"velocity":0.25196850393700787},{"duration":0.2400000000000091,"midi":72,"time":264.24,"velocity":0.25196850393700787},{"duration":0.2400000000000091,"midi":67,"time":264.24,"velocity":0.33858267716535434},{"duration":0.2400000000000091,"midi":72,"time":264.24,"velocity":0.33858267716535434},{"duration":0.2400000000000091,"midi":69,"time":264.24,"velocity":0.25196850393700787},{"duration":0.23999999999995225,"midi":70,"time":264.48,"velocity":0.25196850393700787},{"duration":0.23999999999995225,"midi":53,"time":264.48,"velocity":0.33858267716535434},{"duration":0.23999999999995225,"midi":62,"time":264.48,"velocity":0.25196850393700787},{"duration":0.23999999999995225,"midi":46,"time":264.48,"velocity":0.33858267716535434},{"duration":0.23999999999995225,"midi":65,"time":264.48,"velocity":0.33858267716535434},{"duration":0.23999999999995225,"midi":58,"time":264.48,"velocity":0.33858267716535434},{"duration":0.23999999999995225,"midi":58,"time":264.48,"velocity":0.33858267716535434},{"duration":0.23999999999995225,"midi":74,"time":264.48,"velocity":0.25196850393700787},{"duration":0.23999999999995225,"midi":70,"time":264.48,"velocity":0.33858267716535434},{"duration":0.2400000000000091,"midi":55,"time":264.71999999999997,"velocity":0.33858267716535434},{"duration":0.2400000000000091,"midi":67,"time":264.71999999999997,"velocity":0.33858267716535434},{"duration":0.2400000000000091,"midi":48,"time":264.71999999999997,"velocity":0.33858267716535434},{"duration":0.2400000000000091,"midi":60,"time":264.71999999999997,"velocity":0.33858267716535434},{"duration":0.2400000000000091,"midi":72,"time":264.71999999999997,"velocity":0.25196850393700787},{"duration":0.2400000000000091,"midi":69,"time":264.71999999999997,"velocity":0.25196850393700787},{"duration":0.2400000000000091,"midi":60,"time":264.71999999999997,"velocity":0.33858267716535434},{"duration":0.2400000000000091,"midi":60,"time":264.71999999999997,"velocity":0.25196850393700787},{"duration":0.2400000000000091,"midi":72,"time":264.71999999999997,"velocity":0.33858267716535434},{"duration":0.2400000000000091,"midi":58,"time":264.96,"velocity":0.25196850393700787},{"duration":0.6000000000000227,"midi":58,"time":264.96,"velocity":0.30708661417322836},{"duration":0.7200000000000273,"midi":43,"time":264.96,"velocity":0.33858267716535434},{"duration":0.7200000000000273,"midi":46,"time":264.96,"velocity":0.30708661417322836},{"duration":0.2400000000000091,"midi":70,"time":264.96,"velocity":0.25196850393700787},{"duration":0.7200000000000273,"midi":55,"time":264.96,"velocity":0.33858267716535434},{"duration":0.2400000000000091,"midi":67,"time":264.96,"velocity":0.25196850393700787},{"duration":0.7200000000000273,"midi":55,"time":264.96,"velocity":0.30708661417322836},{"duration":0.6000000000000227,"midi":67,"time":264.96,"velocity":0.30708661417322836},{"duration":0.2400000000000091,"midi":70,"time":265.32,"velocity":0.25196850393700787},{"duration":0.36000000000001364,"midi":58,"time":265.32,"velocity":0.25196850393700787},{"duration":0.36000000000001364,"midi":67,"time":265.32,"velocity":0.25196850393700787},{"duration":0.2400000000000091,"midi":60,"time":265.68,"velocity":0.28346456692913385},{"duration":0.2400000000000091,"midi":69,"time":265.68,"velocity":0.28346456692913385},{"duration":0.2400000000000091,"midi":60,"time":265.68,"velocity":0.25196850393700787},{"duration":0.2400000000000091,"midi":72,"time":265.68,"velocity":0.25196850393700787},{"duration":0.2400000000000091,"midi":60,"time":265.68,"velocity":0.28346456692913385},{"duration":0.2400000000000091,"midi":57,"time":265.68,"velocity":0.28346456692913385},{"duration":0.2400000000000091,"midi":48,"time":265.68,"velocity":0.28346456692913385},{"duration":0.2400000000000091,"midi":69,"time":265.68,"velocity":0.25196850393700787},{"duration":0.2400000000000091,"midi":48,"time":265.68,"velocity":0.28346456692913385},{"duration":0.23999999999995225,"midi":70,"time":265.92,"velocity":0.25196850393700787},{"duration":0.7199999999999704,"midi":43,"time":265.92,"velocity":0.33858267716535434},{"duration":0.23999999999995225,"midi":58,"time":265.92,"velocity":0.25196850393700787},{"duration":0.7199999999999704,"midi":55,"time":265.92,"velocity":0.33858267716535434},{"duration":0.7199999999999704,"midi":46,"time":265.92,"velocity":0.30708661417322836},{"duration":0.23999999999995225,"midi":67,"time":265.92,"velocity":0.30708661417322836},{"duration":0.5999999999999659,"midi":67,"time":265.92,"velocity":0.25196850393700787},{"duration":0.7199999999999704,"midi":55,"time":265.92,"velocity":0.30708661417322836},{"duration":0.5999999999999659,"midi":58,"time":265.92,"velocity":0.30708661417322836},{"duration":0.2400000000000091,"midi":70,"time":266.28,"velocity":0.25196850393700787},{"duration":0.36000000000001364,"midi":58,"time":266.28,"velocity":0.25196850393700787},{"duration":0.36000000000001364,"midi":67,"time":266.28,"velocity":0.25196850393700787},{"duration":0.2400000000000091,"midi":60,"time":266.64,"velocity":0.25196850393700787},{"duration":0.2400000000000091,"midi":72,"time":266.64,"velocity":0.25196850393700787},{"duration":0.2400000000000091,"midi":57,"time":266.64,"velocity":0.30708661417322836},{"duration":0.2400000000000091,"midi":69,"time":266.64,"velocity":0.25196850393700787},{"duration":0.2400000000000091,"midi":48,"time":266.64,"velocity":0.30708661417322836},{"duration":0.2400000000000091,"midi":60,"time":266.64,"velocity":0.30708661417322836},{"duration":0.2400000000000091,"midi":48,"time":266.64,"velocity":0.28346456692913385},{"duration":0.2400000000000091,"midi":69,"time":266.64,"velocity":0.30708661417322836},{"duration":0.2400000000000091,"midi":60,"time":266.64,"velocity":0.28346456692913385},{"duration":0.2400000000000091,"midi":58,"time":266.88,"velocity":0.25196850393700787},{"duration":0.7199999999999704,"midi":55,"time":266.88,"velocity":0.33858267716535434},{"duration":0.7199999999999704,"midi":43,"time":266.88,"velocity":0.33858267716535434},{"duration":0.7199999999999704,"midi":55,"time":266.88,"velocity":0.30708661417322836},{"duration":0.7199999999999704,"midi":46,"time":266.88,"velocity":0.30708661417322836},{"duration":0.2400000000000091,"midi":70,"time":266.88,"velocity":0.25196850393700787},{"duration":0.2400000000000091,"midi":67,"time":266.88,"velocity":0.25196850393700787},{"duration":0.6000000000000227,"midi":67,"time":266.88,"velocity":0.30708661417322836},{"duration":0.6000000000000227,"midi":58,"time":266.88,"velocity":0.30708661417322836},{"duration":0.2400000000000091,"midi":70,"time":267.24,"velocity":0.25196850393700787},{"duration":0.3599999999999568,"midi":58,"time":267.24,"velocity":0.25196850393700787},{"duration":0.3599999999999568,"midi":67,"time":267.24,"velocity":0.25196850393700787},{"duration":0.2400000000000091,"midi":69,"time":267.59999999999997,"velocity":0.28346456692913385},{"duration":0.2400000000000091,"midi":48,"time":267.59999999999997,"velocity":0.28346456692913385},{"duration":0.2400000000000091,"midi":69,"time":267.59999999999997,"velocity":0.25196850393700787},{"duration":0.2400000000000091,"midi":60,"time":267.59999999999997,"velocity":0.28346456692913385},{"duration":0.2400000000000091,"midi":57,"time":267.59999999999997,"velocity":0.28346456692913385},{"duration":0.2400000000000091,"midi":60,"time":267.59999999999997,"velocity":0.25196850393700787},{"duration":0.2400000000000091,"midi":48,"time":267.59999999999997,"velocity":0.28346456692913385},{"duration":0.2400000000000091,"midi":60,"time":267.59999999999997,"velocity":0.28346456692913385},{"duration":0.2400000000000091,"midi":72,"time":267.59999999999997,"velocity":0.25196850393700787},{"duration":0.2400000000000091,"midi":70,"time":267.84,"velocity":0.25196850393700787},{"duration":0.2400000000000091,"midi":74,"time":267.84,"velocity":0.33858267716535434},{"duration":0.2400000000000091,"midi":58,"time":267.84,"velocity":0.25196850393700787},{"duration":0.2400000000000091,"midi":50,"time":267.84,"velocity":0.33858267716535434},{"duration":0.2400000000000091,"midi":62,"time":267.84,"velocity":0.33858267716535434},{"duration":0.2400000000000091,"midi":70,"time":267.84,"velocity":0.25196850393700787},{"duration":0.2400000000000091,"midi":67,"time":267.84,"velocity":0.25196850393700787},{"duration":0.2400000000000091,"midi":58,"time":267.84,"velocity":0.25196850393700787},{"duration":0.2400000000000091,"midi":62,"time":267.84,"velocity":0.33858267716535434},{"duration":0.2400000000000091,"midi":55,"time":268.08,"velocity":0.33858267716535434},{"duration":0.2400000000000091,"midi":48,"time":268.08,"velocity":0.33858267716535434},{"duration":0.2400000000000091,"midi":72,"time":268.08,"velocity":0.33858267716535434},{"duration":0.2400000000000091,"midi":67,"time":268.08,"velocity":0.33858267716535434},{"duration":0.2400000000000091,"midi":60,"time":268.08,"velocity":0.25196850393700787},{"duration":0.2400000000000091,"midi":69,"time":268.08,"velocity":0.25196850393700787},{"duration":0.2400000000000091,"midi":60,"time":268.08,"velocity":0.33858267716535434},{"duration":0.2400000000000091,"midi":60,"time":268.08,"velocity":0.33858267716535434},{"duration":0.2400000000000091,"midi":72,"time":268.08,"velocity":0.25196850393700787},{"duration":0.2400000000000091,"midi":70,"time":268.32,"velocity":0.33858267716535434},{"duration":0.2400000000000091,"midi":58,"time":268.32,"velocity":0.33858267716535434},{"duration":0.2400000000000091,"midi":53,"time":268.32,"velocity":0.33858267716535434},{"duration":0.2400000000000091,"midi":58,"time":268.32,"velocity":0.33858267716535434},{"duration":0.2400000000000091,"midi":62,"time":268.32,"velocity":0.25196850393700787},{"duration":0.2400000000000091,"midi":46,"time":268.32,"velocity":0.33858267716535434},{"duration":0.2400000000000091,"midi":74,"time":268.32,"velocity":0.25196850393700787},{"duration":0.2400000000000091,"midi":65,"time":268.32,"velocity":0.33858267716535434},{"duration":0.2400000000000091,"midi":70,"time":268.32,"velocity":0.25196850393700787},{"duration":0.2400000000000091,"midi":67,"time":268.56,"velocity":0.33858267716535434},{"duration":0.2400000000000091,"midi":72,"time":268.56,"velocity":0.25196850393700787},{"duration":0.2400000000000091,"midi":60,"time":268.56,"velocity":0.25196850393700787},{"duration":0.2400000000000091,"midi":55,"time":268.56,"velocity":0.33858267716535434},{"duration":0.2400000000000091,"midi":48,"time":268.56,"velocity":0.33858267716535434},{"duration":0.2400000000000091,"midi":72,"time":268.56,"velocity":0.33858267716535434},{"duration":0.2400000000000091,"midi":69,"time":268.56,"velocity":0.25196850393700787},{"duration":0.2400000000000091,"midi":60,"time":268.56,"velocity":0.33858267716535434},{"duration":0.2400000000000091,"midi":60,"time":268.56,"velocity":0.33858267716535434},{"duration":0.23999999999995225,"midi":70,"time":268.8,"velocity":0.25196850393700787},{"duration":0.23999999999995225,"midi":58,"time":268.8,"velocity":0.25196850393700787},{"duration":0.7199999999999704,"midi":51,"time":268.8,"velocity":0.25196850393700787},{"duration":0.7199999999999704,"midi":63,"time":268.8,"velocity":0.25196850393700787},{"duration":0.5999999999999659,"midi":70,"time":268.8,"velocity":0.2992125984251969},{"duration":0.5999999999999659,"midi":58,"time":268.8,"velocity":0.2992125984251969},{"duration":0.7199999999999704,"midi":46,"time":268.8,"velocity":0.25196850393700787},{"duration":0.7199999999999704,"midi":58,"time":268.8,"velocity":0.25196850393700787},{"duration":0.7199999999999704,"midi":51,"time":268.8,"velocity":0.25196850393700787},{"duration":0.23999999999995225,"midi":67,"time":268.8,"velocity":0.25196850393700787},{"duration":0.7199999999999704,"midi":39,"time":268.8,"velocity":0.25196850393700787},{"duration":0.2400000000000091,"midi":67,"time":269.15999999999997,"velocity":0.25196850393700787},{"duration":0.36000000000001364,"midi":58,"time":269.15999999999997,"velocity":0.25196850393700787},{"duration":0.36000000000001364,"midi":70,"time":269.15999999999997,"velocity":0.25196850393700787},{"duration":0.2400000000000091,"midi":50,"time":269.52,"velocity":0.25196850393700787},{"duration":0.2400000000000091,"midi":72,"time":269.52,"velocity":0.25196850393700787},{"duration":0.2400000000000091,"midi":50,"time":269.52,"velocity":0.25196850393700787},{"duration":0.2400000000000091,"midi":38,"time":269.52,"velocity":0.25196850393700787},{"duration":0.2400000000000091,"midi":57,"time":269.52,"velocity":0.25196850393700787},{"duration":0.2400000000000091,"midi":69,"time":269.52,"velocity":0.25196850393700787},{"duration":0.2400000000000091,"midi":62,"time":269.52,"velocity":0.25196850393700787},{"duration":0.2400000000000091,"midi":57,"time":269.52,"velocity":0.25196850393700787},{"duration":0.2400000000000091,"midi":60,"time":269.52,"velocity":0.25196850393700787},{"duration":0.2400000000000091,"midi":69,"time":269.52,"velocity":0.25196850393700787},{"duration":0.2400000000000091,"midi":45,"time":269.52,"velocity":0.25196850393700787},{"duration":0.2400000000000091,"midi":58,"time":269.76,"velocity":0.25196850393700787},{"duration":0.2400000000000091,"midi":70,"time":269.76,"velocity":0.29133858267716534},{"duration":0.7200000000000273,"midi":51,"time":269.76,"velocity":0.25196850393700787},{"duration":0.7200000000000273,"midi":63,"time":269.76,"velocity":0.25196850393700787},{"duration":0.6000000000000227,"midi":58,"time":269.76,"velocity":0.29133858267716534},{"duration":0.7200000000000273,"midi":58,"time":269.76,"velocity":0.25196850393700787},{"duration":0.7200000000000273,"midi":39,"time":269.76,"velocity":0.25196850393700787},{"duration":0.7200000000000273,"midi":46,"time":269.76,"velocity":0.25196850393700787},{"duration":0.2400000000000091,"midi":67,"time":269.76,"velocity":0.25196850393700787},{"duration":0.7200000000000273,"midi":51,"time":269.76,"velocity":0.25196850393700787},{"duration":0.6000000000000227,"midi":70,"time":269.76,"velocity":0.25196850393700787},{"duration":0.36000000000001364,"midi":58,"time":270.12,"velocity":0.25196850393700787},{"duration":0.36000000000001364,"midi":70,"time":270.12,"velocity":0.25196850393700787},{"duration":0.2400000000000091,"midi":67,"time":270.12,"velocity":0.25196850393700787},{"duration":0.23999999999995225,"midi":60,"time":270.48,"velocity":0.25196850393700787},{"duration":0.23999999999995225,"midi":38,"time":270.48,"velocity":0.25196850393700787},{"duration":0.23999999999995225,"midi":50,"time":270.48,"velocity":0.25196850393700787},{"duration":0.23999999999995225,"midi":62,"time":270.48,"velocity":0.25196850393700787},{"duration":0.23999999999995225,"midi":69,"time":270.48,"velocity":0.25196850393700787},{"duration":0.23999999999995225,"midi":57,"time":270.48,"velocity":0.25196850393700787},{"duration":0.23999999999995225,"midi":45,"time":270.48,"velocity":0.25196850393700787},{"duration":0.23999999999995225,"midi":72,"time":270.48,"velocity":0.25196850393700787},{"duration":0.23999999999995225,"midi":69,"time":270.48,"velocity":0.25196850393700787},{"duration":0.23999999999995225,"midi":57,"time":270.48,"velocity":0.25196850393700787},{"duration":0.23999999999995225,"midi":50,"time":270.48,"velocity":0.25196850393700787},{"duration":0.2400000000000091,"midi":70,"time":270.71999999999997,"velocity":0.29133858267716534},{"duration":0.7200000000000273,"midi":51,"time":270.71999999999997,"velocity":0.25196850393700787},{"duration":0.2400000000000091,"midi":67,"time":270.71999999999997,"velocity":0.25196850393700787},{"duration":0.7200000000000273,"midi":46,"time":270.71999999999997,"velocity":0.25196850393700787},{"duration":0.2400000000000091,"midi":58,"time":270.71999999999997,"velocity":0.25196850393700787},{"duration":0.7200000000000273,"midi":39,"time":270.71999999999997,"velocity":0.25196850393700787},{"duration":0.7200000000000273,"midi":51,"time":270.71999999999997,"velocity":0.25196850393700787},{"duration":0.6000000000000227,"midi":58,"time":270.71999999999997,"velocity":0.29133858267716534},{"duration":0.7200000000000273,"midi":58,"time":270.71999999999997,"velocity":0.25196850393700787},{"duration":0.6000000000000227,"midi":70,"time":270.71999999999997,"velocity":0.25196850393700787},{"duration":0.7200000000000273,"midi":63,"time":270.71999999999997,"velocity":0.25196850393700787},{"duration":0.36000000000001364,"midi":70,"time":271.08,"velocity":0.25196850393700787},{"duration":0.2400000000000091,"midi":67,"time":271.08,"velocity":0.25196850393700787},{"duration":0.36000000000001364,"midi":58,"time":271.08,"velocity":0.25196850393700787},{"duration":0.2400000000000091,"midi":69,"time":271.44,"velocity":0.25196850393700787},{"duration":0.2400000000000091,"midi":45,"time":271.44,"velocity":0.25196850393700787},{"duration":0.2400000000000091,"midi":50,"time":271.44,"velocity":0.25196850393700787},{"duration":0.2400000000000091,"midi":72,"time":271.44,"velocity":0.25196850393700787},{"duration":0.2400000000000091,"midi":57,"time":271.44,"velocity":0.25196850393700787},{"duration":0.2400000000000091,"midi":38,"time":271.44,"velocity":0.25196850393700787},{"duration":0.2400000000000091,"midi":69,"time":271.44,"velocity":0.25196850393700787},{"duration":0.2400000000000091,"midi":60,"time":271.44,"velocity":0.25196850393700787},{"duration":0.2400000000000091,"midi":50,"time":271.44,"velocity":0.25196850393700787},{"duration":0.2400000000000091,"midi":57,"time":271.44,"velocity":0.25196850393700787},{"duration":0.2400000000000091,"midi":62,"time":271.44,"velocity":0.25196850393700787},{"duration":0.2400000000000091,"midi":58,"time":271.68,"velocity":0.25196850393700787},{"duration":0.2400000000000091,"midi":58,"time":271.68,"velocity":0.30708661417322836},{"duration":0.2400000000000091,"midi":50,"time":271.68,"velocity":0.33070866141732286},{"duration":0.2400000000000091,"midi":46,"time":271.68,"velocity":0.25196850393700787},{"duration":0.2400000000000091,"midi":62,"time":271.68,"velocity":0.33070866141732286},{"duration":0.2400000000000091,"midi":70,"time":271.68,"velocity":0.25196850393700787},{"duration":0.2400000000000091,"midi":58,"time":271.68,"velocity":0.25196850393700787},{"duration":0.2400000000000091,"midi":70,"time":271.68,"velocity":0.30708661417322836},{"duration":0.2400000000000091,"midi":74,"time":271.68,"velocity":0.33070866141732286},{"duration":0.2400000000000091,"midi":67,"time":271.68,"velocity":0.25196850393700787},{"duration":0.2400000000000091,"midi":62,"time":271.68,"velocity":0.33070866141732286},{"duration":0.23999999999995225,"midi":67,"time":271.92,"velocity":0.33070866141732286},{"duration":0.23999999999995225,"midi":72,"time":271.92,"velocity":0.33070866141732286},{"duration":0.23999999999995225,"midi":72,"time":271.92,"velocity":0.25196850393700787},{"duration":0.23999999999995225,"midi":48,"time":271.92,"velocity":0.33070866141732286},{"duration":0.23999999999995225,"midi":60,"time":271.92,"velocity":0.33070866141732286},{"duration":0.23999999999995225,"midi":69,"time":271.92,"velocity":0.25196850393700787},{"duration":0.23999999999995225,"midi":60,"time":271.92,"velocity":0.25196850393700787},{"duration":0.23999999999995225,"midi":60,"time":271.92,"velocity":0.33070866141732286},{"duration":0.23999999999995225,"midi":55,"time":271.92,"velocity":0.33070866141732286},{"duration":0.2400000000000091,"midi":46,"time":272.15999999999997,"velocity":0.33070866141732286},{"duration":0.2400000000000091,"midi":58,"time":272.15999999999997,"velocity":0.33070866141732286},{"duration":0.2400000000000091,"midi":53,"time":272.15999999999997,"velocity":0.33070866141732286},{"duration":0.2400000000000091,"midi":70,"time":272.15999999999997,"velocity":0.33070866141732286},{"duration":0.2400000000000091,"midi":74,"time":272.15999999999997,"velocity":0.25196850393700787},{"duration":0.2400000000000091,"midi":65,"time":272.15999999999997,"velocity":0.33070866141732286},{"duration":0.2400000000000091,"midi":62,"time":272.15999999999997,"velocity":0.25196850393700787},{"duration":0.2400000000000091,"midi":70,"time":272.15999999999997,"velocity":0.25196850393700787},{"duration":0.2400000000000091,"midi":58,"time":272.15999999999997,"velocity":0.33070866141732286},{"duration":0.2400000000000091,"midi":69,"time":272.4,"velocity":0.25196850393700787},{"duration":0.2400000000000091,"midi":55,"time":272.4,"velocity":0.33070866141732286},{"duration":0.2400000000000091,"midi":60,"time":272.4,"velocity":0.33070866141732286},{"duration":0.2400000000000091,"midi":72,"time":272.4,"velocity":0.25196850393700787},{"duration":0.2400000000000091,"midi":48,"time":272.4,"velocity":0.33070866141732286},{"duration":0.2400000000000091,"midi":60,"time":272.4,"velocity":0.25196850393700787},{"duration":0.2400000000000091,"midi":72,"time":272.4,"velocity":0.33070866141732286},{"duration":0.2400000000000091,"midi":60,"time":272.4,"velocity":0.33070866141732286},{"duration":0.2400000000000091,"midi":67,"time":272.4,"velocity":0.33070866141732286},{"duration":0.7200000000000273,"midi":51,"time":272.64,"velocity":0.25196850393700787},{"duration":0.2400000000000091,"midi":67,"time":272.64,"velocity":0.25196850393700787},{"duration":0.7200000000000273,"midi":63,"time":272.64,"velocity":0.25196850393700787},{"duration":0.7200000000000273,"midi":51,"time":272.64,"velocity":0.25196850393700787},{"duration":0.7200000000000273,"midi":46,"time":272.64,"velocity":0.25196850393700787},{"duration":0.2400000000000091,"midi":58,"time":272.64,"velocity":0.25196850393700787},{"duration":0.6000000000000227,"midi":58,"time":272.64,"velocity":0.2992125984251969},{"duration":0.7200000000000273,"midi":58,"time":272.64,"velocity":0.25196850393700787},{"duration":0.7200000000000273,"midi":39,"time":272.64,"velocity":0.25196850393700787},{"duration":0.2400000000000091,"midi":70,"time":272.64,"velocity":0.25196850393700787},{"duration":0.6000000000000227,"midi":70,"time":272.64,"velocity":0.2992125984251969},{"duration":0.36000000000001364,"midi":58,"time":273,"velocity":0.25196850393700787},{"duration":0.2400000000000091,"midi":67,"time":273,"velocity":0.25196850393700787},{"duration":0.36000000000001364,"midi":70,"time":273,"velocity":0.25196850393700787},{"duration":0.23999999999995225,"midi":50,"time":273.36,"velocity":0.25196850393700787},{"duration":0.23999999999995225,"midi":60,"time":273.36,"velocity":0.25196850393700787},{"duration":0.23999999999995225,"midi":57,"time":273.36,"velocity":0.25196850393700787},{"duration":0.23999999999995225,"midi":38,"time":273.36,"velocity":0.25196850393700787},{"duration":0.23999999999995225,"midi":45,"time":273.36,"velocity":0.25196850393700787},{"duration":0.23999999999995225,"midi":50,"time":273.36,"velocity":0.25196850393700787},{"duration":0.23999999999995225,"midi":62,"time":273.36,"velocity":0.25196850393700787},{"duration":0.23999999999995225,"midi":72,"time":273.36,"velocity":0.25196850393700787},{"duration":0.23999999999995225,"midi":69,"time":273.36,"velocity":0.25196850393700787},{"duration":0.23999999999995225,"midi":69,"time":273.36,"velocity":0.25196850393700787},{"duration":0.23999999999995225,"midi":57,"time":273.36,"velocity":0.25196850393700787},{"duration":0.7200000000000273,"midi":51,"time":273.59999999999997,"velocity":0.25196850393700787},{"duration":0.7200000000000273,"midi":63,"time":273.59999999999997,"velocity":0.25196850393700787},{"duration":0.7200000000000273,"midi":39,"time":273.59999999999997,"velocity":0.25196850393700787},{"duration":0.7200000000000273,"midi":46,"time":273.59999999999997,"velocity":0.25196850393700787},{"duration":0.2400000000000091,"midi":58,"time":273.59999999999997,"velocity":0.25196850393700787},{"duration":0.2400000000000091,"midi":70,"time":273.59999999999997,"velocity":0.29133858267716534},{"duration":0.7200000000000273,"midi":51,"time":273.59999999999997,"velocity":0.25196850393700787},{"duration":0.6000000000000227,"midi":70,"time":273.59999999999997,"velocity":0.25196850393700787},{"duration":0.6000000000000227,"midi":58,"time":273.59999999999997,"velocity":0.25196850393700787},{"duration":0.2400000000000091,"midi":67,"time":273.59999999999997,"velocity":0.25196850393700787},{"duration":0.7200000000000273,"midi":58,"time":273.59999999999997,"velocity":0.29133858267716534},{"duration":0.36000000000001364,"midi":70,"time":273.96,"velocity":0.25196850393700787},{"duration":0.2400000000000091,"midi":67,"time":273.96,"velocity":0.25196850393700787},{"duration":0.36000000000001364,"midi":58,"time":273.96,"velocity":0.25196850393700787},{"duration":0.2400000000000091,"midi":62,"time":274.32,"velocity":0.25196850393700787},{"duration":0.2400000000000091,"midi":38,"time":274.32,"velocity":0.25196850393700787},{"duration":0.2400000000000091,"midi":50,"time":274.32,"velocity":0.25196850393700787},{"duration":0.2400000000000091,"midi":69,"time":274.32,"velocity":0.25196850393700787},{"duration":0.2400000000000091,"midi":45,"time":274.32,"velocity":0.25196850393700787},{"duration":0.2400000000000091,"midi":57,"time":274.32,"velocity":0.25196850393700787},{"duration":0.2400000000000091,"midi":72,"time":274.32,"velocity":0.25196850393700787},{"duration":0.2400000000000091,"midi":60,"time":274.32,"velocity":0.25196850393700787},{"duration":0.2400000000000091,"midi":69,"time":274.32,"velocity":0.25196850393700787},{"duration":0.2400000000000091,"midi":50,"time":274.32,"velocity":0.25196850393700787},{"duration":0.2400000000000091,"midi":57,"time":274.32,"velocity":0.25196850393700787},{"duration":0.2400000000000091,"midi":58,"time":274.56,"velocity":0.25196850393700787},{"duration":0.2400000000000091,"midi":67,"time":274.56,"velocity":0.25196850393700787},{"duration":0.7199999999999704,"midi":51,"time":274.56,"velocity":0.25196850393700787},{"duration":0.5999999999999659,"midi":58,"time":274.56,"velocity":0.25196850393700787},{"duration":0.2400000000000091,"midi":70,"time":274.56,"velocity":0.29133858267716534},{"duration":0.7199999999999704,"midi":51,"time":274.56,"velocity":0.25196850393700787},{"duration":0.5999999999999659,"midi":70,"time":274.56,"velocity":0.25196850393700787},{"duration":0.7199999999999704,"midi":63,"time":274.56,"velocity":0.25196850393700787},{"duration":0.7199999999999704,"midi":58,"time":274.56,"velocity":0.29133858267716534},{"duration":0.7199999999999704,"midi":39,"time":274.56,"velocity":0.25196850393700787},{"duration":0.7199999999999704,"midi":46,"time":274.56,"velocity":0.25196850393700787},{"duration":0.3599999999999568,"midi":58,"time":274.92,"velocity":0.25196850393700787},{"duration":0.23999999999995225,"midi":67,"time":274.92,"velocity":0.25196850393700787},{"duration":0.3599999999999568,"midi":70,"time":274.92,"velocity":0.25196850393700787},{"duration":0.2400000000000091,"midi":62,"time":275.28,"velocity":0.25196850393700787},{"duration":0.2400000000000091,"midi":69,"time":275.28,"velocity":0.25196850393700787},{"duration":0.2400000000000091,"midi":72,"time":275.28,"velocity":0.25196850393700787},{"duration":0.2400000000000091,"midi":50,"time":275.28,"velocity":0.25196850393700787},{"duration":0.2400000000000091,"midi":45,"time":275.28,"velocity":0.25196850393700787},{"duration":0.2400000000000091,"midi":57,"time":275.28,"velocity":0.25196850393700787},{"duration":0.2400000000000091,"midi":38,"time":275.28,"velocity":0.25196850393700787},{"duration":0.2400000000000091,"midi":60,"time":275.28,"velocity":0.25196850393700787},{"duration":0.2400000000000091,"midi":69,"time":275.28,"velocity":0.25196850393700787},{"duration":0.2400000000000091,"midi":50,"time":275.28,"velocity":0.25196850393700787},{"duration":0.2400000000000091,"midi":57,"time":275.28,"velocity":0.25196850393700787},{"duration":0.2400000000000091,"midi":62,"time":275.52,"velocity":0.33070866141732286},{"duration":0.2400000000000091,"midi":62,"time":275.52,"velocity":0.25196850393700787},{"duration":0.2400000000000091,"midi":58,"time":275.52,"velocity":0.25196850393700787},{"duration":0.2400000000000091,"midi":50,"time":275.52,"velocity":0.25196850393700787},{"duration":0.2400000000000091,"midi":58,"time":275.52,"velocity":0.30708661417322836},{"duration":0.2400000000000091,"midi":70,"time":275.52,"velocity":0.25196850393700787},{"duration":0.2400000000000091,"midi":74,"time":275.52,"velocity":0.33070866141732286},{"duration":0.2400000000000091,"midi":67,"time":275.52,"velocity":0.25196850393700787},{"duration":0.2400000000000091,"midi":58,"time":275.52,"velocity":0.25196850393700787},{"duration":0.2400000000000091,"midi":70,"time":275.52,"velocity":0.30708661417322836},{"duration":0.2400000000000091,"midi":46,"time":275.52,"velocity":0.25196850393700787},{"duration":0.2400000000000091,"midi":60,"time":275.76,"velocity":0.25196850393700787},{"duration":0.2400000000000091,"midi":60,"time":275.76,"velocity":0.33070866141732286},{"duration":0.2400000000000091,"midi":60,"time":275.76,"velocity":0.33070866141732286},{"duration":0.2400000000000091,"midi":67,"time":275.76,"velocity":0.33070866141732286},{"duration":0.2400000000000091,"midi":69,"time":275.76,"velocity":0.25196850393700787},{"duration":0.2400000000000091,"midi":72,"time":275.76,"velocity":0.33070866141732286},{"duration":0.2400000000000091,"midi":48,"time":275.76,"velocity":0.33070866141732286},{"duration":0.2400000000000091,"midi":55,"time":275.76,"velocity":0.33070866141732286},{"duration":0.2400000000000091,"midi":72,"time":275.76,"velocity":0.25196850393700787},{"duration":0.2400000000000091,"midi":46,"time":276,"velocity":0.33070866141732286},{"duration":0.2400000000000091,"midi":74,"time":276,"velocity":0.25196850393700787},{"duration":0.2400000000000091,"midi":62,"time":276,"velocity":0.25196850393700787},{"duration":0.2400000000000091,"midi":53,"time":276,"velocity":0.33070866141732286},{"duration":0.2400000000000091,"midi":70,"time":276,"velocity":0.33070866141732286},{"duration":0.2400000000000091,"midi":58,"time":276,"velocity":0.33070866141732286},{"duration":0.2400000000000091,"midi":58,"time":276,"velocity":0.33070866141732286},{"duration":0.2400000000000091,"midi":65,"time":276,"velocity":0.33070866141732286},{"duration":0.2400000000000091,"midi":70,"time":276,"velocity":0.25196850393700787},{"duration":0.2400000000000091,"midi":55,"time":276.24,"velocity":0.33070866141732286},{"duration":0.2400000000000091,"midi":60,"time":276.24,"velocity":0.25196850393700787},{"duration":0.2400000000000091,"midi":69,"time":276.24,"velocity":0.25196850393700787},{"duration":0.2400000000000091,"midi":72,"time":276.24,"velocity":0.25196850393700787},{"duration":0.2400000000000091,"midi":48,"time":276.24,"velocity":0.33070866141732286},{"duration":0.2400000000000091,"midi":67,"time":276.24,"velocity":0.33070866141732286},{"duration":0.2400000000000091,"midi":60,"time":276.24,"velocity":0.33070866141732286},{"duration":0.2400000000000091,"midi":60,"time":276.24,"velocity":0.33070866141732286},{"duration":0.2400000000000091,"midi":72,"time":276.24,"velocity":0.33070866141732286},{"duration":0.23999999999995225,"midi":67,"time":276.48,"velocity":0.30708661417322836},{"duration":0.7199999999999704,"midi":46,"time":276.48,"velocity":0.30708661417322836},{"duration":0.23999999999995225,"midi":58,"time":276.48,"velocity":0.25196850393700787},{"duration":0.7199999999999704,"midi":55,"time":276.48,"velocity":0.30708661417322836},{"duration":0.23999999999995225,"midi":70,"time":276.48,"velocity":0.25196850393700787},{"duration":0.5999999999999659,"midi":58,"time":276.48,"velocity":0.30708661417322836},{"duration":0.7199999999999704,"midi":43,"time":276.48,"velocity":0.33858267716535434},{"duration":0.5999999999999659,"midi":67,"time":276.48,"velocity":0.25196850393700787},{"duration":0.7199999999999704,"midi":55,"time":276.48,"velocity":0.33858267716535434},{"duration":0.36000000000001364,"midi":58,"time":276.84,"velocity":0.25196850393700787},{"duration":0.2400000000000091,"midi":70,"time":276.84,"velocity":0.25196850393700787},{"duration":0.36000000000001364,"midi":67,"time":276.84,"velocity":0.25196850393700787},{"duration":0.2400000000000091,"midi":72,"time":277.2,"velocity":0.25196850393700787},{"duration":0.2400000000000091,"midi":48,"time":277.2,"velocity":0.28346456692913385},{"duration":0.2400000000000091,"midi":57,"time":277.2,"velocity":0.28346456692913385},{"duration":0.2400000000000091,"midi":60,"time":277.2,"velocity":0.28346456692913385},{"duration":0.2400000000000091,"midi":60,"time":277.2,"velocity":0.28346456692913385},{"duration":0.2400000000000091,"midi":60,"time":277.2,"velocity":0.25196850393700787},{"duration":0.2400000000000091,"midi":69,"time":277.2,"velocity":0.25196850393700787},{"duration":0.2400000000000091,"midi":48,"time":277.2,"velocity":0.28346456692913385},{"duration":0.2400000000000091,"midi":69,"time":277.2,"velocity":0.28346456692913385},{"duration":0.2400000000000091,"midi":58,"time":277.44,"velocity":0.30708661417322836},{"duration":0.7199999999999704,"midi":43,"time":277.44,"velocity":0.33858267716535434},{"duration":0.2400000000000091,"midi":70,"time":277.44,"velocity":0.25196850393700787},{"duration":0.7199999999999704,"midi":55,"time":277.44,"velocity":0.33858267716535434},{"duration":0.2400000000000091,"midi":67,"time":277.44,"velocity":0.30708661417322836},{"duration":0.5999999999999659,"midi":58,"time":277.44,"velocity":0.25196850393700787},{"duration":0.5999999999999659,"midi":67,"time":277.44,"velocity":0.25196850393700787},{"duration":0.7199999999999704,"midi":55,"time":277.44,"velocity":0.30708661417322836},{"duration":0.7199999999999704,"midi":46,"time":277.44,"velocity":0.30708661417322836},{"duration":0.23999999999995225,"midi":70,"time":277.8,"velocity":0.25196850393700787},{"duration":0.3599999999999568,"midi":58,"time":277.8,"velocity":0.25196850393700787},{"duration":0.3599999999999568,"midi":67,"time":277.8,"velocity":0.25196850393700787},{"duration":0.2400000000000091,"midi":69,"time":278.15999999999997,"velocity":0.30708661417322836},{"duration":0.2400000000000091,"midi":48,"time":278.15999999999997,"velocity":0.30708661417322836},{"duration":0.2400000000000091,"midi":60,"time":278.15999999999997,"velocity":0.30708661417322836},{"duration":0.2400000000000091,"midi":72,"time":278.15999999999997,"velocity":0.25196850393700787},{"duration":0.2400000000000091,"midi":60,"time":278.15999999999997,"velocity":0.25196850393700787},{"duration":0.2400000000000091,"midi":60,"time":278.15999999999997,"velocity":0.28346456692913385},{"duration":0.2400000000000091,"midi":69,"time":278.15999999999997,"velocity":0.25196850393700787},{"duration":0.2400000000000091,"midi":57,"time":278.15999999999997,"velocity":0.30708661417322836},{"duration":0.2400000000000091,"midi":48,"time":278.15999999999997,"velocity":0.28346456692913385},{"duration":0.7200000000000273,"midi":46,"time":278.4,"velocity":0.30708661417322836},{"duration":0.2400000000000091,"midi":67,"time":278.4,"velocity":0.30708661417322836},{"duration":0.7200000000000273,"midi":55,"time":278.4,"velocity":0.30708661417322836},{"duration":0.2400000000000091,"midi":58,"time":278.4,"velocity":0.30708661417322836},{"duration":0.6000000000000227,"midi":67,"time":278.4,"velocity":0.25196850393700787},{"duration":0.7200000000000273,"midi":43,"time":278.4,"velocity":0.33858267716535434},{"duration":0.6000000000000227,"midi":58,"time":278.4,"velocity":0.25196850393700787},{"duration":0.7200000000000273,"midi":55,"time":278.4,"velocity":0.33858267716535434},{"duration":0.2400000000000091,"midi":70,"time":278.4,"velocity":0.25196850393700787},{"duration":0.36000000000001364,"midi":58,"time":278.76,"velocity":0.25196850393700787},{"duration":0.36000000000001364,"midi":67,"time":278.76,"velocity":0.25196850393700787},{"duration":0.2400000000000091,"midi":70,"time":278.76,"velocity":0.25196850393700787},{"duration":0.2400000000000091,"midi":72,"time":279.12,"velocity":0.25196850393700787},{"duration":0.2400000000000091,"midi":69,"time":279.12,"velocity":0.25196850393700787},{"duration":0.2400000000000091,"midi":60,"time":279.12,"velocity":0.28346456692913385},{"duration":0.2400000000000091,"midi":48,"time":279.12,"velocity":0.28346456692913385},{"duration":0.2400000000000091,"midi":57,"time":279.12,"velocity":0.28346456692913385},{"duration":0.2400000000000091,"midi":60,"time":279.12,"velocity":0.28346456692913385},{"duration":0.2400000000000091,"midi":69,"time":279.12,"velocity":0.28346456692913385},{"duration":0.2400000000000091,"midi":60,"time":279.12,"velocity":0.25196850393700787},{"duration":0.2400000000000091,"midi":48,"time":279.12,"velocity":0.28346456692913385},{"duration":0.23999999999995225,"midi":70,"time":279.36,"velocity":0.25196850393700787},{"duration":0.23999999999995225,"midi":58,"time":279.36,"velocity":0.25196850393700787},{"duration":0.23999999999995225,"midi":70,"time":279.36,"velocity":0.25196850393700787},{"duration":0.23999999999995225,"midi":62,"time":279.36,"velocity":0.33858267716535434},{"duration":0.23999999999995225,"midi":50,"time":279.36,"velocity":0.33858267716535434},{"duration":0.23999999999995225,"midi":67,"time":279.36,"velocity":0.25196850393700787},{"duration":0.23999999999995225,"midi":62,"time":279.36,"velocity":0.33858267716535434},{"duration":0.23999999999995225,"midi":58,"time":279.36,"velocity":0.25196850393700787},{"duration":0.23999999999995225,"midi":74,"time":279.36,"velocity":0.33858267716535434},{"duration":0.2400000000000091,"midi":60,"time":279.59999999999997,"velocity":0.25196850393700787},{"duration":0.2400000000000091,"midi":72,"time":279.59999999999997,"velocity":0.25196850393700787},{"duration":0.2400000000000091,"midi":55,"time":279.59999999999997,"velocity":0.33858267716535434},{"duration":0.2400000000000091,"midi":72,"time":279.59999999999997,"velocity":0.33858267716535434},{"duration":0.2400000000000091,"midi":48,"time":279.59999999999997,"velocity":0.33858267716535434},{"duration":0.2400000000000091,"midi":60,"time":279.59999999999997,"velocity":0.33858267716535434},{"duration":0.2400000000000091,"midi":60,"time":279.59999999999997,"velocity":0.33858267716535434},{"duration":0.2400000000000091,"midi":67,"time":279.59999999999997,"velocity":0.33858267716535434},{"duration":0.2400000000000091,"midi":69,"time":279.59999999999997,"velocity":0.25196850393700787},{"duration":0.2400000000000091,"midi":62,"time":279.84,"velocity":0.25196850393700787},{"duration":0.2400000000000091,"midi":70,"time":279.84,"velocity":0.25196850393700787},{"duration":0.2400000000000091,"midi":70,"time":279.84,"velocity":0.33858267716535434},{"duration":0.2400000000000091,"midi":65,"time":279.84,"velocity":0.33858267716535434},{"duration":0.2400000000000091,"midi":58,"time":279.84,"velocity":0.33858267716535434},{"duration":0.2400000000000091,"midi":53,"time":279.84,"velocity":0.33858267716535434},{"duration":0.2400000000000091,"midi":74,"time":279.84,"velocity":0.25196850393700787},{"duration":0.2400000000000091,"midi":58,"time":279.84,"velocity":0.33858267716535434},{"duration":0.2400000000000091,"midi":46,"time":279.84,"velocity":0.33858267716535434},{"duration":0.2400000000000091,"midi":60,"time":280.08,"velocity":0.33858267716535434},{"duration":0.2400000000000091,"midi":48,"time":280.08,"velocity":0.33858267716535434},{"duration":0.2400000000000091,"midi":67,"time":280.08,"velocity":0.33858267716535434},{"duration":0.2400000000000091,"midi":60,"time":280.08,"velocity":0.33858267716535434},{"duration":0.2400000000000091,"midi":55,"time":280.08,"velocity":0.33858267716535434},{"duration":0.2400000000000091,"midi":69,"time":280.08,"velocity":0.25196850393700787},{"duration":0.2400000000000091,"midi":60,"time":280.08,"velocity":0.25196850393700787},{"duration":0.2400000000000091,"midi":72,"time":280.08,"velocity":0.25196850393700787},{"duration":0.2400000000000091,"midi":72,"time":280.08,"velocity":0.33858267716535434},{"duration":0.7199999999999704,"midi":55,"time":280.32,"velocity":0.30708661417322836},{"duration":0.2400000000000091,"midi":67,"time":280.32,"velocity":0.30708661417322836},{"duration":0.2400000000000091,"midi":58,"time":280.32,"velocity":0.30708661417322836},{"duration":0.6000000000000227,"midi":58,"time":280.32,"velocity":0.25196850393700787},{"duration":0.7199999999999704,"midi":55,"time":280.32,"velocity":0.33858267716535434},{"duration":0.7199999999999704,"midi":46,"time":280.32,"velocity":0.30708661417322836},{"duration":0.6000000000000227,"midi":67,"time":280.32,"velocity":0.25196850393700787},{"duration":0.7199999999999704,"midi":43,"time":280.32,"velocity":0.33858267716535434},{"duration":0.2400000000000091,"midi":70,"time":280.32,"velocity":0.25196850393700787},{"duration":0.3599999999999568,"midi":58,"time":280.68,"velocity":0.25196850393700787},{"duration":0.2400000000000091,"midi":70,"time":280.68,"velocity":0.25196850393700787},{"duration":0.3599999999999568,"midi":67,"time":280.68,"velocity":0.25196850393700787},{"duration":0.2400000000000091,"midi":60,"time":281.03999999999996,"velocity":0.28346456692913385},{"duration":0.2400000000000091,"midi":60,"time":281.03999999999996,"velocity":0.25196850393700787},{"duration":0.2400000000000091,"midi":57,"time":281.03999999999996,"velocity":0.28346456692913385},{"duration":0.2400000000000091,"midi":48,"time":281.03999999999996,"velocity":0.28346456692913385},{"duration":0.2400000000000091,"midi":48,"time":281.03999999999996,"velocity":0.28346456692913385},{"duration":0.2400000000000091,"midi":69,"time":281.03999999999996,"velocity":0.28346456692913385},{"duration":0.2400000000000091,"midi":72,"time":281.03999999999996,"velocity":0.25196850393700787},{"duration":0.2400000000000091,"midi":69,"time":281.03999999999996,"velocity":0.25196850393700787},{"duration":0.2400000000000091,"midi":60,"time":281.03999999999996,"velocity":0.28346456692913385},{"duration":0.7200000000000273,"midi":55,"time":281.28,"velocity":0.30708661417322836},{"duration":0.2400000000000091,"midi":58,"time":281.28,"velocity":0.30708661417322836},{"duration":0.2400000000000091,"midi":70,"time":281.28,"velocity":0.25196850393700787},{"duration":0.6000000000000227,"midi":58,"time":281.28,"velocity":0.25196850393700787},{"duration":0.2400000000000091,"midi":67,"time":281.28,"velocity":0.30708661417322836},{"duration":0.7200000000000273,"midi":46,"time":281.28,"velocity":0.30708661417322836},{"duration":0.7200000000000273,"midi":55,"time":281.28,"velocity":0.33858267716535434},{"duration":0.7200000000000273,"midi":43,"time":281.28,"velocity":0.33858267716535434},{"duration":0.6000000000000227,"midi":67,"time":281.28,"velocity":0.25196850393700787},{"duration":0.2400000000000091,"midi":70,"time":281.64,"velocity":0.25196850393700787},{"duration":0.36000000000001364,"midi":67,"time":281.64,"velocity":0.25196850393700787},{"duration":0.36000000000001364,"midi":58,"time":281.64,"velocity":0.25196850393700787},{"duration":0.2400000000000091,"midi":69,"time":282,"velocity":0.30708661417322836},{"duration":0.2400000000000091,"midi":60,"time":282,"velocity":0.28346456692913385},{"duration":0.2400000000000091,"midi":48,"time":282,"velocity":0.30708661417322836},{"duration":0.2400000000000091,"midi":69,"time":282,"velocity":0.25196850393700787},{"duration":0.2400000000000091,"midi":57,"time":282,"velocity":0.30708661417322836},{"duration":0.2400000000000091,"midi":60,"time":282,"velocity":0.25196850393700787},{"duration":0.2400000000000091,"midi":72,"time":282,"velocity":0.25196850393700787},{"duration":0.2400000000000091,"midi":48,"time":282,"velocity":0.28346456692913385},{"duration":0.2400000000000091,"midi":60,"time":282,"velocity":0.30708661417322836},{"duration":0.23999999999995225,"midi":67,"time":282.24,"velocity":0.30708661417322836},{"duration":0.23999999999995225,"midi":58,"time":282.24,"velocity":0.30708661417322836},{"duration":0.7199999999999704,"midi":55,"time":282.24,"velocity":0.33858267716535434},{"duration":0.7199999999999704,"midi":55,"time":282.24,"velocity":0.30708661417322836},{"duration":0.23999999999995225,"midi":70,"time":282.24,"velocity":0.25196850393700787},{"duration":0.7199999999999704,"midi":46,"time":282.24,"velocity":0.30708661417322836},{"duration":0.7199999999999704,"midi":43,"time":282.24,"velocity":0.33858267716535434},{"duration":0.5999999999999659,"midi":67,"time":282.24,"velocity":0.25196850393700787},{"duration":0.5999999999999659,"midi":58,"time":282.24,"velocity":0.25196850393700787},{"duration":0.36000000000001364,"midi":58,"time":282.59999999999997,"velocity":0.25196850393700787},{"duration":0.2400000000000091,"midi":70,"time":282.59999999999997,"velocity":0.25196850393700787},{"duration":0.36000000000001364,"midi":67,"time":282.59999999999997,"velocity":0.25196850393700787},{"duration":0.2400000000000091,"midi":60,"time":282.96,"velocity":0.28346456692913385},{"duration":0.2400000000000091,"midi":48,"time":282.96,"velocity":0.28346456692913385},{"duration":0.2400000000000091,"midi":57,"time":282.96,"velocity":0.28346456692913385},{"duration":0.2400000000000091,"midi":60,"time":282.96,"velocity":0.28346456692913385},{"duration":0.2400000000000091,"midi":69,"time":282.96,"velocity":0.28346456692913385},{"duration":0.2400000000000091,"midi":48,"time":282.96,"velocity":0.28346456692913385},{"duration":0.2400000000000091,"midi":69,"time":282.96,"velocity":0.25196850393700787},{"duration":0.2400000000000091,"midi":60,"time":282.96,"velocity":0.25196850393700787},{"duration":0.2400000000000091,"midi":72,"time":282.96,"velocity":0.25196850393700787},{"duration":0.2400000000000091,"midi":70,"time":283.2,"velocity":0.25196850393700787},{"duration":0.2400000000000091,"midi":62,"time":283.2,"velocity":0.33858267716535434},{"duration":0.2400000000000091,"midi":67,"time":283.2,"velocity":0.25196850393700787},{"duration":0.2400000000000091,"midi":74,"time":283.2,"velocity":0.33858267716535434},{"duration":0.2400000000000091,"midi":58,"time":283.2,"velocity":0.25196850393700787},{"duration":0.2400000000000091,"midi":50,"time":283.2,"velocity":0.33858267716535434},{"duration":0.2400000000000091,"midi":58,"time":283.2,"velocity":0.25196850393700787},{"duration":0.2400000000000091,"midi":62,"time":283.2,"velocity":0.33858267716535434},{"duration":0.2400000000000091,"midi":70,"time":283.2,"velocity":0.25196850393700787},{"duration":0.2400000000000091,"midi":69,"time":283.44,"velocity":0.25196850393700787},{"duration":0.2400000000000091,"midi":72,"time":283.44,"velocity":0.33858267716535434},{"duration":0.2400000000000091,"midi":72,"time":283.44,"velocity":0.25196850393700787},{"duration":0.2400000000000091,"midi":55,"time":283.44,"velocity":0.33858267716535434},{"duration":0.2400000000000091,"midi":60,"time":283.44,"velocity":0.33858267716535434},{"duration":0.2400000000000091,"midi":48,"time":283.44,"velocity":0.33858267716535434},{"duration":0.2400000000000091,"midi":67,"time":283.44,"velocity":0.33858267716535434},{"duration":0.2400000000000091,"midi":60,"time":283.44,"velocity":0.33858267716535434},{"duration":0.2400000000000091,"midi":60,"time":283.44,"velocity":0.25196850393700787},{"duration":0.2400000000000091,"midi":58,"time":283.68,"velocity":0.33858267716535434},{"duration":0.2400000000000091,"midi":70,"time":283.68,"velocity":0.25196850393700787},{"duration":0.2400000000000091,"midi":70,"time":283.68,"velocity":0.33858267716535434},{"duration":0.2400000000000091,"midi":46,"time":283.68,"velocity":0.33858267716535434},{"duration":0.2400000000000091,"midi":65,"time":283.68,"velocity":0.33858267716535434},{"duration":0.2400000000000091,"midi":62,"time":283.68,"velocity":0.25196850393700787},{"duration":0.2400000000000091,"midi":74,"time":283.68,"velocity":0.25196850393700787},{"duration":0.2400000000000091,"midi":53,"time":283.68,"velocity":0.33858267716535434},{"duration":0.2400000000000091,"midi":58,"time":283.68,"velocity":0.33858267716535434},{"duration":0.23999999999995225,"midi":48,"time":283.92,"velocity":0.33858267716535434},{"duration":0.23999999999995225,"midi":60,"time":283.92,"velocity":0.33858267716535434},{"duration":0.23999999999995225,"midi":72,"time":283.92,"velocity":0.33858267716535434},{"duration":0.23999999999995225,"midi":60,"time":283.92,"velocity":0.25196850393700787},{"duration":0.23999999999995225,"midi":72,"time":283.92,"velocity":0.25196850393700787},{"duration":0.23999999999995225,"midi":55,"time":283.92,"velocity":0.33858267716535434},{"duration":0.23999999999995225,"midi":67,"time":283.92,"velocity":0.33858267716535434},{"duration":0.23999999999995225,"midi":60,"time":283.92,"velocity":0.33858267716535434},{"duration":0.23999999999995225,"midi":69,"time":283.92,"velocity":0.25196850393700787},{"duration":0.2400000000000091,"midi":58,"time":284.15999999999997,"velocity":0.25196850393700787},{"duration":0.2400000000000091,"midi":70,"time":284.15999999999997,"velocity":0.25196850393700787},{"duration":0.7200000000000273,"midi":39,"time":284.15999999999997,"velocity":0.25196850393700787},{"duration":0.6000000000000227,"midi":70,"time":284.15999999999997,"velocity":0.2992125984251969},{"duration":0.7200000000000273,"midi":46,"time":284.15999999999997,"velocity":0.25196850393700787},{"duration":0.7200000000000273,"midi":51,"time":284.15999999999997,"velocity":0.25196850393700787},{"duration":0.6000000000000227,"midi":58,"time":284.15999999999997,"velocity":0.2992125984251969},{"duration":0.7200000000000273,"midi":58,"time":284.15999999999997,"velocity":0.25196850393700787},{"duration":0.2400000000000091,"midi":67,"time":284.15999999999997,"velocity":0.25196850393700787},{"duration":0.7200000000000273,"midi":63,"time":284.15999999999997,"velocity":0.25196850393700787},{"duration":0.7200000000000273,"midi":51,"time":284.15999999999997,"velocity":0.25196850393700787},{"duration":0.36000000000001364,"midi":70,"time":284.52,"velocity":0.25196850393700787},{"duration":0.2400000000000091,"midi":67,"time":284.52,"velocity":0.25196850393700787},{"duration":0.36000000000001364,"midi":58,"time":284.52,"velocity":0.25196850393700787},{"duration":0.2400000000000091,"midi":69,"time":284.88,"velocity":0.25196850393700787},{"duration":0.2400000000000091,"midi":50,"time":284.88,"velocity":0.25196850393700787},{"duration":0.2400000000000091,"midi":38,"time":284.88,"velocity":0.25196850393700787},{"duration":0.2400000000000091,"midi":72,"time":284.88,"velocity":0.25196850393700787},{"duration":0.2400000000000091,"midi":69,"time":284.88,"velocity":0.25196850393700787},{"duration":0.2400000000000091,"midi":57,"time":284.88,"velocity":0.25196850393700787},{"duration":0.2400000000000091,"midi":50,"time":284.88,"velocity":0.25196850393700787},{"duration":0.2400000000000091,"midi":45,"time":284.88,"velocity":0.25196850393700787},{"duration":0.2400000000000091,"midi":62,"time":284.88,"velocity":0.25196850393700787},{"duration":0.2400000000000091,"midi":57,"time":284.88,"velocity":0.25196850393700787},{"duration":0.2400000000000091,"midi":60,"time":284.88,"velocity":0.25196850393700787},{"duration":0.2400000000000091,"midi":70,"time":285.12,"velocity":0.25196850393700787},{"duration":0.5999999999999659,"midi":70,"time":285.12,"velocity":0.29133858267716534},{"duration":0.7199999999999704,"midi":63,"time":285.12,"velocity":0.25196850393700787},{"duration":0.2400000000000091,"midi":58,"time":285.12,"velocity":0.25196850393700787},{"duration":0.7199999999999704,"midi":46,"time":285.12,"velocity":0.25196850393700787},{"duration":0.7199999999999704,"midi":51,"time":285.12,"velocity":0.25196850393700787},{"duration":0.2400000000000091,"midi":67,"time":285.12,"velocity":0.25196850393700787},{"duration":0.5999999999999659,"midi":58,"time":285.12,"velocity":0.29133858267716534},{"duration":0.7199999999999704,"midi":58,"time":285.12,"velocity":0.25196850393700787},{"duration":0.7199999999999704,"midi":51,"time":285.12,"velocity":0.25196850393700787},{"duration":0.7199999999999704,"midi":39,"time":285.12,"velocity":0.25196850393700787},{"duration":0.36000000000001364,"midi":70,"time":285.47999999999996,"velocity":0.25196850393700787},{"duration":0.36000000000001364,"midi":58,"time":285.47999999999996,"velocity":0.25196850393700787},{"duration":0.2400000000000091,"midi":67,"time":285.47999999999996,"velocity":0.25196850393700787},{"duration":0.2400000000000091,"midi":69,"time":285.84,"velocity":0.25196850393700787},{"duration":0.2400000000000091,"midi":45,"time":285.84,"velocity":0.25196850393700787},{"duration":0.2400000000000091,"midi":57,"time":285.84,"velocity":0.25196850393700787},{"duration":0.2400000000000091,"midi":72,"time":285.84,"velocity":0.25196850393700787},{"duration":0.2400000000000091,"midi":60,"time":285.84,"velocity":0.25196850393700787},{"duration":0.2400000000000091,"midi":50,"time":285.84,"velocity":0.25196850393700787},{"duration":0.2400000000000091,"midi":62,"time":285.84,"velocity":0.25196850393700787},{"duration":0.2400000000000091,"midi":57,"time":285.84,"velocity":0.25196850393700787},{"duration":0.2400000000000091,"midi":38,"time":285.84,"velocity":0.25196850393700787},{"duration":0.2400000000000091,"midi":50,"time":285.84,"velocity":0.25196850393700787},{"duration":0.2400000000000091,"midi":69,"time":285.84,"velocity":0.25196850393700787},{"duration":0.7200000000000273,"midi":39,"time":286.08,"velocity":0.25196850393700787},{"duration":0.2400000000000091,"midi":70,"time":286.08,"velocity":0.29133858267716534},{"duration":0.7200000000000273,"midi":46,"time":286.08,"velocity":0.25196850393700787},{"duration":0.7200000000000273,"midi":63,"time":286.08,"velocity":0.25196850393700787},{"duration":0.2400000000000091,"midi":58,"time":286.08,"velocity":0.29133858267716534},{"duration":0.7200000000000273,"midi":51,"time":286.08,"velocity":0.25196850393700787},{"duration":0.7200000000000273,"midi":51,"time":286.08,"velocity":0.25196850393700787},{"duration":0.6000000000000227,"midi":70,"time":286.08,"velocity":0.25196850393700787},{"duration":0.6000000000000227,"midi":58,"time":286.08,"velocity":0.25196850393700787},{"duration":0.7200000000000273,"midi":58,"time":286.08,"velocity":0.25196850393700787},{"duration":0.2400000000000091,"midi":67,"time":286.08,"velocity":0.25196850393700787},{"duration":0.36000000000001364,"midi":58,"time":286.44,"velocity":0.25196850393700787},{"duration":0.36000000000001364,"midi":70,"time":286.44,"velocity":0.25196850393700787},{"duration":0.2400000000000091,"midi":67,"time":286.44,"velocity":0.25196850393700787},{"duration":0.23999999999995225,"midi":57,"time":286.8,"velocity":0.25196850393700787},{"duration":0.23999999999995225,"midi":50,"time":286.8,"velocity":0.25196850393700787},{"duration":0.23999999999995225,"midi":38,"time":286.8,"velocity":0.25196850393700787},{"duration":0.23999999999995225,"midi":69,"time":286.8,"velocity":0.25196850393700787},{"duration":0.23999999999995225,"midi":57,"time":286.8,"velocity":0.25196850393700787},{"duration":0.23999999999995225,"midi":62,"time":286.8,"velocity":0.25196850393700787},{"duration":0.23999999999995225,"midi":69,"time":286.8,"velocity":0.25196850393700787},{"duration":0.23999999999995225,"midi":45,"time":286.8,"velocity":0.25196850393700787},{"duration":0.23999999999995225,"midi":50,"time":286.8,"velocity":0.25196850393700787},{"duration":0.23999999999995225,"midi":60,"time":286.8,"velocity":0.25196850393700787},{"duration":0.23999999999995225,"midi":72,"time":286.8,"velocity":0.25196850393700787},{"duration":0.2400000000000091,"midi":62,"time":287.03999999999996,"velocity":0.33070866141732286},{"duration":0.2400000000000091,"midi":70,"time":287.03999999999996,"velocity":0.25196850393700787},{"duration":0.2400000000000091,"midi":50,"time":287.03999999999996,"velocity":0.33070866141732286},{"duration":0.2400000000000091,"midi":46,"time":287.03999999999996,"velocity":0.25196850393700787},{"duration":0.2400000000000091,"midi":58,"time":287.03999999999996,"velocity":0.25196850393700787},{"duration":0.2400000000000091,"midi":58,"time":287.03999999999996,"velocity":0.25196850393700787},{"duration":0.2400000000000091,"midi":62,"time":287.03999999999996,"velocity":0.33070866141732286},{"duration":0.2400000000000091,"midi":70,"time":287.03999999999996,"velocity":0.30708661417322836},{"duration":0.2400000000000091,"midi":67,"time":287.03999999999996,"velocity":0.25196850393700787},{"duration":0.2400000000000091,"midi":74,"time":287.03999999999996,"velocity":0.33070866141732286},{"duration":0.2400000000000091,"midi":58,"time":287.03999999999996,"velocity":0.30708661417322836},{"duration":0.2400000000000091,"midi":72,"time":287.28,"velocity":0.33070866141732286},{"duration":0.2400000000000091,"midi":60,"time":287.28,"velocity":0.33070866141732286},{"duration":0.2400000000000091,"midi":55,"time":287.28,"velocity":0.33070866141732286},{"duration":0.2400000000000091,"midi":60,"time":287.28,"velocity":0.25196850393700787},{"duration":0.2400000000000091,"midi":48,"time":287.28,"velocity":0.33070866141732286},{"duration":0.2400000000000091,"midi":72,"time":287.28,"velocity":0.25196850393700787},{"duration":0.2400000000000091,"midi":60,"time":287.28,"velocity":0.33070866141732286},{"duration":0.2400000000000091,"midi":67,"time":287.28,"velocity":0.33070866141732286},{"duration":0.2400000000000091,"midi":69,"time":287.28,"velocity":0.25196850393700787},{"duration":0.2400000000000091,"midi":70,"time":287.52,"velocity":0.25196850393700787},{"duration":0.2400000000000091,"midi":74,"time":287.52,"velocity":0.25196850393700787},{"duration":0.2400000000000091,"midi":58,"time":287.52,"velocity":0.33070866141732286},{"duration":0.2400000000000091,"midi":58,"time":287.52,"velocity":0.33070866141732286},{"duration":0.2400000000000091,"midi":65,"time":287.52,"velocity":0.33070866141732286},{"duration":0.2400000000000091,"midi":53,"time":287.52,"velocity":0.33070866141732286},{"duration":0.2400000000000091,"midi":70,"time":287.52,"velocity":0.33070866141732286},{"duration":0.2400000000000091,"midi":62,"time":287.52,"velocity":0.25196850393700787},{"duration":0.2400000000000091,"midi":46,"time":287.52,"velocity":0.33070866141732286},{"duration":0.2400000000000091,"midi":72,"time":287.76,"velocity":0.25196850393700787},{"duration":0.2400000000000091,"midi":60,"time":287.76,"velocity":0.25196850393700787},{"duration":0.2400000000000091,"midi":60,"time":287.76,"velocity":0.33070866141732286},{"duration":0.2400000000000091,"midi":48,"time":287.76,"velocity":0.33070866141732286},{"duration":0.2400000000000091,"midi":72,"time":287.76,"velocity":0.33070866141732286},{"duration":0.2400000000000091,"midi":67,"time":287.76,"velocity":0.33070866141732286},{"duration":0.2400000000000091,"midi":69,"time":287.76,"velocity":0.25196850393700787},{"duration":0.2400000000000091,"midi":60,"time":287.76,"velocity":0.33070866141732286},{"duration":0.2400000000000091,"midi":55,"time":287.76,"velocity":0.33070866141732286},{"duration":0.2400000000000091,"midi":67,"time":288,"velocity":0.23622047244094488},{"duration":0.7199999999999704,"midi":46,"time":288,"velocity":0.25196850393700787},{"duration":0.2400000000000091,"midi":58,"time":288,"velocity":0.23622047244094488},{"duration":0.5999999999999659,"midi":58,"time":288,"velocity":0.25196850393700787},{"duration":0.7199999999999704,"midi":51,"time":288,"velocity":0.25196850393700787},{"duration":0.7199999999999704,"midi":51,"time":288,"velocity":0.25196850393700787},{"duration":0.7199999999999704,"midi":39,"time":288,"velocity":0.25196850393700787},{"duration":0.7199999999999704,"midi":63,"time":288,"velocity":0.25196850393700787},{"duration":0.2400000000000091,"midi":70,"time":288,"velocity":0.23622047244094488},{"duration":0.5999999999999659,"midi":70,"time":288,"velocity":0.2992125984251969},{"duration":0.7199999999999704,"midi":58,"time":288,"velocity":0.2992125984251969},{"duration":0.3599999999999568,"midi":70,"time":288.36,"velocity":0.2283464566929134},{"duration":0.23999999999995225,"midi":67,"time":288.36,"velocity":0.2283464566929134},{"duration":0.3599999999999568,"midi":58,"time":288.36,"velocity":0.2283464566929134},{"duration":0.2400000000000091,"midi":38,"time":288.71999999999997,"velocity":0.25196850393700787},{"duration":0.2400000000000091,"midi":57,"time":288.71999999999997,"velocity":0.25196850393700787},{"duration":0.2400000000000091,"midi":57,"time":288.71999999999997,"velocity":0.25196850393700787},{"duration":0.2400000000000091,"midi":69,"time":288.71999999999997,"velocity":0.25196850393700787},{"duration":0.2400000000000091,"midi":62,"time":288.71999999999997,"velocity":0.25196850393700787},{"duration":0.2400000000000091,"midi":72,"time":288.71999999999997,"velocity":0.2204724409448819},{"duration":0.2400000000000091,"midi":69,"time":288.71999999999997,"velocity":0.2204724409448819},{"duration":0.2400000000000091,"midi":45,"time":288.71999999999997,"velocity":0.25196850393700787},{"duration":0.2400000000000091,"midi":60,"time":288.71999999999997,"velocity":0.2204724409448819},{"duration":0.2400000000000091,"midi":50,"time":288.71999999999997,"velocity":0.25196850393700787},{"duration":0.2400000000000091,"midi":50,"time":288.71999999999997,"velocity":0.25196850393700787},{"duration":0.7200000000000273,"midi":51,"time":288.96,"velocity":0.25196850393700787},{"duration":0.2400000000000091,"midi":58,"time":288.96,"velocity":0.25196850393700787},{"duration":0.7200000000000273,"midi":46,"time":288.96,"velocity":0.25196850393700787},{"duration":0.7200000000000273,"midi":51,"time":288.96,"velocity":0.25196850393700787},{"duration":0.2400000000000091,"midi":70,"time":288.96,"velocity":0.29133858267716534},{"duration":0.7200000000000273,"midi":63,"time":288.96,"velocity":0.25196850393700787},{"duration":0.6000000000000227,"midi":58,"time":288.96,"velocity":0.29133858267716534},{"duration":0.2400000000000091,"midi":67,"time":288.96,"velocity":0.2125984251968504},{"duration":0.7200000000000273,"midi":39,"time":288.96,"velocity":0.25196850393700787},{"duration":0.6000000000000227,"midi":70,"time":288.96,"velocity":0.2125984251968504},{"duration":0.7200000000000273,"midi":58,"time":288.96,"velocity":0.2125984251968504},{"duration":0.36000000000001364,"midi":58,"time":289.32,"velocity":0.1889763779527559},{"duration":0.2400000000000091,"midi":67,"time":289.32,"velocity":0.1889763779527559},{"duration":0.36000000000001364,"midi":70,"time":289.32,"velocity":0.1889763779527559},{"duration":0.2400000000000091,"midi":62,"time":289.68,"velocity":0.25196850393700787},{"duration":0.2400000000000091,"midi":72,"time":289.68,"velocity":0.18110236220472442},{"duration":0.2400000000000091,"midi":69,"time":289.68,"velocity":0.18110236220472442},{"duration":0.2400000000000091,"midi":38,"time":289.68,"velocity":0.25196850393700787},{"duration":0.2400000000000091,"midi":60,"time":289.68,"velocity":0.18110236220472442},{"duration":0.2400000000000091,"midi":57,"time":289.68,"velocity":0.25196850393700787},{"duration":0.2400000000000091,"midi":50,"time":289.68,"velocity":0.25196850393700787},{"duration":0.2400000000000091,"midi":45,"time":289.68,"velocity":0.25196850393700787},{"duration":0.2400000000000091,"midi":69,"time":289.68,"velocity":0.25196850393700787},{"duration":0.2400000000000091,"midi":50,"time":289.68,"velocity":0.25196850393700787},{"duration":0.2400000000000091,"midi":57,"time":289.68,"velocity":0.25196850393700787},{"duration":0.23999999999995225,"midi":58,"time":289.92,"velocity":0.25196850393700787},{"duration":0.5999999999999659,"midi":58,"time":289.92,"velocity":0.29133858267716534},{"duration":0.7199999999999704,"midi":51,"time":289.92,"velocity":0.25196850393700787},{"duration":0.7199999999999704,"midi":39,"time":289.92,"velocity":0.25196850393700787},{"duration":0.7199999999999704,"midi":58,"time":289.92,"velocity":0.1732283464566929},{"duration":0.7199999999999704,"midi":63,"time":289.92,"velocity":0.25196850393700787},{"duration":0.23999999999995225,"midi":70,"time":289.92,"velocity":0.1732283464566929},{"duration":0.7199999999999704,"midi":51,"time":289.92,"velocity":0.25196850393700787},{"duration":0.5999999999999659,"midi":70,"time":289.92,"velocity":0.29133858267716534},{"duration":0.7199999999999704,"midi":46,"time":289.92,"velocity":0.25196850393700787},{"duration":0.23999999999995225,"midi":67,"time":289.92,"velocity":0.1732283464566929},{"duration":0.36000000000001364,"midi":70,"time":290.28,"velocity":0.15748031496062992},{"duration":0.2400000000000091,"midi":67,"time":290.28,"velocity":0.15748031496062992},{"duration":0.36000000000001364,"midi":58,"time":290.28,"velocity":0.15748031496062992},{"duration":0.2400000000000091,"midi":45,"time":290.64,"velocity":0.25196850393700787},{"duration":0.2400000000000091,"midi":50,"time":290.64,"velocity":0.25196850393700787},{"duration":0.2400000000000091,"midi":72,"time":290.64,"velocity":0.14960629921259844},{"duration":0.2400000000000091,"midi":38,"time":290.64,"velocity":0.25196850393700787},{"duration":0.2400000000000091,"midi":60,"time":290.64,"velocity":0.14960629921259844},{"duration":0.2400000000000091,"midi":69,"time":290.64,"velocity":0.14960629921259844},{"duration":0.2400000000000091,"midi":62,"time":290.64,"velocity":0.25196850393700787},{"duration":0.2400000000000091,"midi":57,"time":290.64,"velocity":0.25196850393700787},{"duration":0.2400000000000091,"midi":69,"time":290.64,"velocity":0.25196850393700787},{"duration":0.2400000000000091,"midi":50,"time":290.64,"velocity":0.25196850393700787},{"duration":0.2400000000000091,"midi":57,"time":290.64,"velocity":0.25196850393700787},{"duration":0.2400000000000091,"midi":58,"time":290.88,"velocity":0.25196850393700787},{"duration":0.2400000000000091,"midi":50,"time":290.88,"velocity":0.25196850393700787},{"duration":0.2400000000000091,"midi":74,"time":290.88,"velocity":0.33070866141732286},{"duration":0.2400000000000091,"midi":62,"time":290.88,"velocity":0.33070866141732286},{"duration":0.2400000000000091,"midi":71,"time":290.88,"velocity":0.14173228346456693},{"duration":0.2400000000000091,"midi":70,"time":290.88,"velocity":0.30708661417322836},{"duration":0.2400000000000091,"midi":62,"time":290.88,"velocity":0.25196850393700787},{"duration":0.2400000000000091,"midi":46,"time":290.88,"velocity":0.25196850393700787},{"duration":0.2400000000000091,"midi":62,"time":290.88,"velocity":0.14173228346456693},{"duration":0.2400000000000091,"midi":74,"time":290.88,"velocity":0.14173228346456693},{"duration":0.2400000000000091,"midi":58,"time":290.88,"velocity":0.30708661417322836},{"duration":0.2400000000000091,"midi":48,"time":291.12,"velocity":0.33070866141732286},{"duration":0.2400000000000091,"midi":60,"time":291.12,"velocity":0.33070866141732286},{"duration":0.2400000000000091,"midi":72,"time":291.12,"velocity":0.33070866141732286},{"duration":0.2400000000000091,"midi":67,"time":291.12,"velocity":0.33070866141732286},{"duration":0.2400000000000091,"midi":72,"time":291.12,"velocity":0.12598425196850394},{"duration":0.2400000000000091,"midi":69,"time":291.12,"velocity":0.12598425196850394},{"duration":0.2400000000000091,"midi":60,"time":291.12,"velocity":0.33070866141732286},{"duration":0.2400000000000091,"midi":60,"time":291.12,"velocity":0.12598425196850394},{"duration":0.2400000000000091,"midi":55,"time":291.12,"velocity":0.33070866141732286},{"duration":0.23999999999995225,"midi":65,"time":291.36,"velocity":0.33070866141732286},{"duration":0.23999999999995225,"midi":46,"time":291.36,"velocity":0.33070866141732286},{"duration":0.23999999999995225,"midi":74,"time":291.36,"velocity":0.10236220472440945},{"duration":0.23999999999995225,"midi":58,"time":291.36,"velocity":0.33070866141732286},{"duration":0.23999999999995225,"midi":70,"time":291.36,"velocity":0.10236220472440945},{"duration":0.23999999999995225,"midi":58,"time":291.36,"velocity":0.33070866141732286},{"duration":0.23999999999995225,"midi":70,"time":291.36,"velocity":0.33070866141732286},{"duration":0.23999999999995225,"midi":62,"time":291.36,"velocity":0.10236220472440945},{"duration":0.23999999999995225,"midi":53,"time":291.36,"velocity":0.33070866141732286},{"duration":0.2400000000000091,"midi":60,"time":291.59999999999997,"velocity":0.33070866141732286},{"duration":0.2400000000000091,"midi":69,"time":291.59999999999997,"velocity":0.09448818897637795},{"duration":0.2400000000000091,"midi":60,"time":291.59999999999997,"velocity":0.09448818897637795},{"duration":0.2400000000000091,"midi":72,"time":291.59999999999997,"velocity":0.09448818897637795},{"duration":0.2400000000000091,"midi":48,"time":291.59999999999997,"velocity":0.33070866141732286},{"duration":0.2400000000000091,"midi":72,"time":291.59999999999997,"velocity":0.33070866141732286},{"duration":0.2400000000000091,"midi":67,"time":291.59999999999997,"velocity":0.33070866141732286},{"duration":0.2400000000000091,"midi":60,"time":291.59999999999997,"velocity":0.33070866141732286},{"duration":0.2400000000000091,"midi":55,"time":291.59999999999997,"velocity":0.33070866141732286},{"duration":0.2400000000000091,"midi":82,"time":291.84,"velocity":0.3858267716535433},{"duration":1.920000000000016,"midi":36,"time":291.84,"velocity":0.2755905511811024},{"duration":1.920000000000016,"midi":48,"time":291.84,"velocity":0.2755905511811024},{"duration":0.2400000000000091,"midi":75,"time":291.84,"velocity":0.3464566929133858},{"duration":1.920000000000016,"midi":55,"time":291.84,"velocity":0.2755905511811024},{"duration":1.920000000000016,"midi":60,"time":291.84,"velocity":0.2755905511811024},{"duration":1.920000000000016,"midi":43,"time":291.84,"velocity":0.2755905511811024},{"duration":1.920000000000016,"midi":48,"time":291.84,"velocity":0.2755905511811024},{"duration":0.23999999999995225,"midi":82,"time":292.8,"velocity":0.3858267716535433},{"duration":0.23999999999995225,"midi":74,"time":292.8,"velocity":0.33070866141732286},{"duration":0.12000000000000455,"midi":72,"time":293.03999999999996,"velocity":0.33070866141732286},{"duration":0.12000000000000455,"midi":81,"time":293.03999999999996,"velocity":0.3858267716535433},{"duration":0.12000000000000455,"midi":82,"time":293.09999999999997,"velocity":0.3858267716535433},{"duration":0.12000000000000455,"midi":74,"time":293.09999999999997,"velocity":0.33070866141732286},{"duration":0.12000000000000455,"midi":81,"time":293.15999999999997,"velocity":0.3858267716535433},{"duration":0.12000000000000455,"midi":72,"time":293.15999999999997,"velocity":0.33070866141732286},{"duration":0.2400000000000091,"midi":79,"time":293.28,"velocity":0.3858267716535433},{"duration":0.2400000000000091,"midi":70,"time":293.28,"velocity":0.33070866141732286},{"duration":0.2400000000000091,"midi":72,"time":293.52,"velocity":0.33070866141732286},{"duration":0.2400000000000091,"midi":81,"time":293.52,"velocity":0.3858267716535433},{"duration":1.920000000000016,"midi":62,"time":293.76,"velocity":0.2755905511811024},{"duration":0.2400000000000091,"midi":82,"time":293.76,"velocity":0.3858267716535433},{"duration":1.920000000000016,"midi":50,"time":293.76,"velocity":0.2755905511811024},{"duration":1.920000000000016,"midi":57,"time":293.76,"velocity":0.2755905511811024},{"duration":1.920000000000016,"midi":50,"time":293.76,"velocity":0.2755905511811024},{"duration":1.920000000000016,"midi":45,"time":293.76,"velocity":0.2755905511811024},{"duration":1.920000000000016,"midi":38,"time":293.76,"velocity":0.2755905511811024},{"duration":0.2400000000000091,"midi":74,"time":293.76,"velocity":0.3228346456692913},{"duration":0.2400000000000091,"midi":77,"time":293.76,"velocity":0.3228346456692913},{"duration":0.2400000000000091,"midi":74,"time":294.71999999999997,"velocity":0.3228346456692913},{"duration":0.2400000000000091,"midi":82,"time":294.71999999999997,"velocity":0.3858267716535433},{"duration":0.2400000000000091,"midi":77,"time":294.71999999999997,"velocity":0.3228346456692913},{"duration":0.12000000000000455,"midi":81,"time":294.96,"velocity":0.3858267716535433},{"duration":0.12000000000000455,"midi":72,"time":294.96,"velocity":0.3858267716535433},{"duration":0.12000000000000455,"midi":74,"time":295.02,"velocity":0.3858267716535433},{"duration":0.12000000000000455,"midi":82,"time":295.02,"velocity":0.3858267716535433},{"duration":0.12000000000000455,"midi":81,"time":295.08,"velocity":0.3858267716535433},{"duration":0.12000000000000455,"midi":72,"time":295.08,"velocity":0.3858267716535433},{"duration":0.2400000000000091,"midi":70,"time":295.2,"velocity":0.3858267716535433},{"duration":0.2400000000000091,"midi":79,"time":295.2,"velocity":0.3858267716535433},{"duration":0.2400000000000091,"midi":81,"time":295.44,"velocity":0.3858267716535433},{"duration":0.2400000000000091,"midi":72,"time":295.44,"velocity":0.3858267716535433},{"duration":0.9599999999999795,"midi":51,"time":295.68,"velocity":0.2755905511811024},{"duration":0.9599999999999795,"midi":58,"time":295.68,"velocity":0.2755905511811024},{"duration":0.9599999999999795,"midi":63,"time":295.68,"velocity":0.2755905511811024},{"duration":0.9599999999999795,"midi":46,"time":295.68,"velocity":0.2755905511811024},{"duration":0.2400000000000091,"midi":82,"time":295.68,"velocity":0.3858267716535433},{"duration":0.2400000000000091,"midi":74,"time":295.68,"velocity":0.3228346456692913},{"duration":0.9599999999999795,"midi":39,"time":295.68,"velocity":0.2755905511811024},{"duration":0.2400000000000091,"midi":77,"time":295.68,"velocity":0.3543307086614173},{"duration":0.9599999999999795,"midi":51,"time":295.68,"velocity":0.2755905511811024},{"duration":0.2400000000000091,"midi":81,"time":296.4,"velocity":0.3858267716535433},{"duration":0.9599999999999795,"midi":60,"time":296.64,"velocity":0.2755905511811024},{"duration":0.2400000000000091,"midi":72,"time":296.64,"velocity":0.3464566929133858},{"duration":0.9599999999999795,"midi":65,"time":296.64,"velocity":0.2755905511811024},{"duration":0.9599999999999795,"midi":41,"time":296.64,"velocity":0.2755905511811024},{"duration":0.2400000000000091,"midi":77,"time":296.64,"velocity":0.3858267716535433},{"duration":0.9599999999999795,"midi":48,"time":296.64,"velocity":0.2755905511811024},{"duration":0.9599999999999795,"midi":53,"time":296.64,"velocity":0.2755905511811024},{"duration":0.9599999999999795,"midi":53,"time":296.64,"velocity":0.2755905511811024},{"duration":0.12000000000000455,"midi":74,"time":297.3,"velocity":0.3858267716535433},{"duration":0.23999999999995225,"midi":69,"time":297.36,"velocity":0.2992125984251969},{"duration":0.23999999999995225,"midi":75,"time":297.36,"velocity":0.3858267716535433},{"duration":0.2400000000000091,"midi":74,"time":297.59999999999997,"velocity":0.3858267716535433},{"duration":0.9600000000000364,"midi":50,"time":297.59999999999997,"velocity":0.2755905511811024},{"duration":0.9600000000000364,"midi":55,"time":297.59999999999997,"velocity":0.2755905511811024},{"duration":0.2400000000000091,"midi":70,"time":297.59999999999997,"velocity":0.2992125984251969},{"duration":0.9600000000000364,"midi":55,"time":297.59999999999997,"velocity":0.2755905511811024},{"duration":0.9600000000000364,"midi":67,"time":297.59999999999997,"velocity":0.2755905511811024},{"duration":0.9600000000000364,"midi":62,"time":297.59999999999997,"velocity":0.2755905511811024},{"duration":0.9600000000000364,"midi":43,"time":297.59999999999997,"velocity":0.2755905511811024},{"duration":0.2400000000000091,"midi":72,"time":298.32,"velocity":0.3858267716535433},{"duration":0.2400000000000091,"midi":67,"time":298.32,"velocity":0.30708661417322836},{"duration":0.9599999999999795,"midi":53,"time":298.56,"velocity":0.28346456692913385},{"duration":0.2400000000000091,"midi":65,"time":298.56,"velocity":0.28346456692913385},{"duration":0.9599999999999795,"midi":41,"time":298.56,"velocity":0.2755905511811024},{"duration":0.9599999999999795,"midi":48,"time":298.56,"velocity":0.2755905511811024},{"duration":0.9599999999999795,"midi":60,"time":298.56,"velocity":0.28346456692913385},{"duration":0.2400000000000091,"midi":70,"time":298.56,"velocity":0.3858267716535433},{"duration":0.9599999999999795,"midi":65,"time":298.56,"velocity":0.30708661417322836},{"duration":0.9599999999999795,"midi":53,"time":298.56,"velocity":0.2755905511811024},{"duration":0.23999999999995225,"midi":67,"time":298.8,"velocity":0.30708661417322836},{"duration":0.23999999999995225,"midi":72,"time":298.8,"velocity":0.3858267716535433},{"duration":0.2400000000000091,"midi":70,"time":299.03999999999996,"velocity":0.30708661417322836},{"duration":0.2400000000000091,"midi":74,"time":299.03999999999996,"velocity":0.3858267716535433},{"duration":0.2400000000000091,"midi":72,"time":299.28,"velocity":0.30708661417322836},{"duration":0.2400000000000091,"midi":75,"time":299.28,"velocity":0.3858267716535433},{"duration":1.920000000000016,"midi":48,"time":299.52,"velocity":0.2755905511811024},{"duration":1.920000000000016,"midi":60,"time":299.52,"velocity":0.2755905511811024},{"duration":1.920000000000016,"midi":48,"time":299.52,"velocity":0.2755905511811024},{"duration":0.2400000000000091,"midi":77,"time":299.52,"velocity":0.3858267716535433},{"duration":0.2400000000000091,"midi":74,"time":299.52,"velocity":0.30708661417322836},{"duration":1.920000000000016,"midi":55,"time":299.52,"velocity":0.2755905511811024},{"duration":1.920000000000016,"midi":36,"time":299.52,"velocity":0.2755905511811024},{"duration":1.920000000000016,"midi":43,"time":299.52,"velocity":0.2755905511811024},{"duration":0.2400000000000091,"midi":74,"time":299.76,"velocity":0.30708661417322836},{"duration":0.2400000000000091,"midi":77,"time":299.76,"velocity":0.3858267716535433},{"duration":0.2400000000000091,"midi":77,"time":300,"velocity":0.3858267716535433},{"duration":0.2400000000000091,"midi":72,"time":300,"velocity":0.30708661417322836},{"duration":0.23999999999995225,"midi":72,"time":300.24,"velocity":0.30708661417322836},{"duration":0.23999999999995225,"midi":77,"time":300.24,"velocity":0.3858267716535433},{"duration":0.4800000000000182,"midi":77,"time":300.47999999999996,"velocity":0.3858267716535433},{"duration":0.4800000000000182,"midi":70,"time":300.47999999999996,"velocity":0.30708661417322836},{"duration":0.2400000000000091,"midi":70,"time":300.96,"velocity":0.3858267716535433},{"duration":0.12000000000000455,"midi":73,"time":301.14,"velocity":0.3858267716535433},{"duration":0.2400000000000091,"midi":74,"time":301.2,"velocity":0.3858267716535433},{"duration":1.920000000000016,"midi":38,"time":301.44,"velocity":0.2755905511811024},{"duration":1.920000000000016,"midi":62,"time":301.44,"velocity":0.2755905511811024},{"duration":1.920000000000016,"midi":50,"time":301.44,"velocity":0.2755905511811024},{"duration":0.2400000000000091,"midi":72,"time":301.44,"velocity":0.3858267716535433},{"duration":1.920000000000016,"midi":57,"time":301.44,"velocity":0.2755905511811024},{"duration":1.920000000000016,"midi":45,"time":301.44,"velocity":0.2755905511811024},{"duration":1.920000000000016,"midi":50,"time":301.44,"velocity":0.2755905511811024},{"duration":0.2400000000000091,"midi":69,"time":301.44,"velocity":0.30708661417322836},{"duration":0.2400000000000091,"midi":69,"time":301.68,"velocity":0.30708661417322836},{"duration":0.2400000000000091,"midi":72,"time":301.68,"velocity":0.3858267716535433},{"duration":0.23999999999995225,"midi":67,"time":301.92,"velocity":0.30708661417322836},{"duration":0.23999999999995225,"midi":72,"time":301.92,"velocity":0.3858267716535433},{"duration":0.2400000000000091,"midi":72,"time":302.15999999999997,"velocity":0.3858267716535433},{"duration":0.2400000000000091,"midi":67,"time":302.15999999999997,"velocity":0.30708661417322836},{"duration":0.36000000000001364,"midi":65,"time":302.4,"velocity":0.30708661417322836},{"duration":0.36000000000001364,"midi":72,"time":302.4,"velocity":0.3858267716535433},{"duration":0.12000000000000455,"midi":73,"time":302.82,"velocity":0.3858267716535433},{"duration":0.2400000000000091,"midi":70,"time":302.88,"velocity":0.30708661417322836},{"duration":0.2400000000000091,"midi":74,"time":302.88,"velocity":0.3858267716535433},{"duration":0.2400000000000091,"midi":67,"time":303.12,"velocity":0.30708661417322836},{"duration":0.2400000000000091,"midi":72,"time":303.12,"velocity":0.3858267716535433},{"duration":0.9599999999999795,"midi":51,"time":303.36,"velocity":0.2755905511811024},{"duration":0.47999999999996135,"midi":70,"time":303.36,"velocity":0.3858267716535433},{"duration":0.9599999999999795,"midi":39,"time":303.36,"velocity":0.2755905511811024},{"duration":0.9599999999999795,"midi":51,"time":303.36,"velocity":0.2755905511811024},{"duration":0.47999999999996135,"midi":65,"time":303.36,"velocity":0.30708661417322836},{"duration":0.9599999999999795,"midi":46,"time":303.36,"velocity":0.2755905511811024},{"duration":0.9599999999999795,"midi":58,"time":303.36,"velocity":0.2755905511811024},{"duration":0.9599999999999795,"midi":63,"time":303.36,"velocity":0.2755905511811024},{"duration":0.2400000000000091,"midi":65,"time":304.08,"velocity":0.3858267716535433},{"duration":0.2400000000000091,"midi":62,"time":304.08,"velocity":0.30708661417322836},{"duration":0.9599999999999795,"midi":53,"time":304.32,"velocity":0.2755905511811024},{"duration":0.9599999999999795,"midi":41,"time":304.32,"velocity":0.2755905511811024},{"duration":0.2400000000000091,"midi":74,"time":304.32,"velocity":0.3858267716535433},{"duration":0.2400000000000091,"midi":70,"time":304.32,"velocity":0.30708661417322836},{"duration":0.9599999999999795,"midi":60,"time":304.32,"velocity":0.2755905511811024},{"duration":0.9599999999999795,"midi":53,"time":304.32,"velocity":0.2755905511811024},{"duration":0.9599999999999795,"midi":65,"time":304.32,"velocity":0.2755905511811024},{"duration":0.9599999999999795,"midi":48,"time":304.32,"velocity":0.2755905511811024},{"duration":0.2400000000000091,"midi":72,"time":304.56,"velocity":0.30708661417322836},{"duration":0.2400000000000091,"midi":75,"time":304.56,"velocity":0.3858267716535433},{"duration":0.23999999999995225,"midi":72,"time":304.8,"velocity":0.3858267716535433},{"duration":0.23999999999995225,"midi":69,"time":304.8,"velocity":0.30708661417322836},{"duration":0.12000000000000455,"midi":67,"time":305.15999999999997,"velocity":0.3858267716535433},{"duration":0.12000000000000455,"midi":70,"time":305.15999999999997,"velocity":0.3858267716535433},{"duration":0.9600000000000364,"midi":62,"time":305.28,"velocity":0.2755905511811024},{"duration":0.9600000000000364,"midi":55,"time":305.28,"velocity":0.2755905511811024},{"duration":0.9600000000000364,"midi":50,"time":305.28,"velocity":0.2755905511811024},{"duration":0.9600000000000364,"midi":70,"time":305.28,"velocity":0.3858267716535433},{"duration":0.9600000000000364,"midi":55,"time":305.28,"velocity":0.2755905511811024},{"duration":0.9600000000000364,"midi":67,"time":305.28,"velocity":0.2755905511811024},{"duration":0.9600000000000364,"midi":43,"time":305.28,"velocity":0.2755905511811024},{"duration":0.9600000000000364,"midi":67,"time":305.28,"velocity":0.30708661417322836},{"duration":0.47999999999996135,"midi":79,"time":306.24,"velocity":0.3858267716535433},{"duration":0.47999999999996135,"midi":75,"time":306.24,"velocity":0.30708661417322836},{"duration":0.9599999999999795,"midi":48,"time":306.24,"velocity":0.2755905511811024},{"duration":0.9599999999999795,"midi":53,"time":306.24,"velocity":0.2755905511811024},{"duration":0.9599999999999795,"midi":60,"time":306.24,"velocity":0.2755905511811024},{"duration":0.9599999999999795,"midi":41,"time":306.24,"velocity":0.2755905511811024},{"duration":0.9599999999999795,"midi":53,"time":306.24,"velocity":0.2755905511811024},{"duration":0.9599999999999795,"midi":65,"time":306.24,"velocity":0.2755905511811024},{"duration":0.47999999999996135,"midi":67,"time":306.24,"velocity":0.3858267716535433},{"duration":0.4800000000000182,"midi":69,"time":306.71999999999997,"velocity":0.3858267716535433},{"duration":0.4800000000000182,"midi":81,"time":306.71999999999997,"velocity":0.3858267716535433},{"duration":0.4800000000000182,"midi":77,"time":306.71999999999997,"velocity":0.30708661417322836}]},{"instrument":{"family":"bass","number":32,"name":"acoustic bass"},"notes":[{"duration":0.11999999999999922,"midi":55,"time":15.36,"velocity":0.31496062992125984},{"duration":0.120000000000001,"midi":67,"time":15.479999999999999,"velocity":0.31496062992125984},{"duration":0.11999999999999922,"midi":62,"time":15.6,"velocity":0.31496062992125984},{"duration":0.120000000000001,"midi":55,"time":15.719999999999999,"velocity":0.31496062992125984},{"duration":0.11999999999999922,"midi":67,"time":15.84,"velocity":0.31496062992125984},{"duration":0.11999999999999922,"midi":62,"time":15.959999999999999,"velocity":0.31496062992125984},{"duration":0.11999999999999744,"midi":55,"time":16.32,"velocity":0.31496062992125984},{"duration":0.120000000000001,"midi":67,"time":16.439999999999998,"velocity":0.31496062992125984},{"duration":0.120000000000001,"midi":62,"time":16.56,"velocity":0.31496062992125984},{"duration":0.120000000000001,"midi":55,"time":16.68,"velocity":0.31496062992125984},{"duration":0.11999999999999744,"midi":67,"time":16.8,"velocity":0.31496062992125984},{"duration":0.120000000000001,"midi":62,"time":16.919999999999998,"velocity":0.31496062992125984},{"duration":0.11999999999999744,"midi":55,"time":17.28,"velocity":0.31496062992125984},{"duration":0.120000000000001,"midi":67,"time":17.4,"velocity":0.31496062992125984},{"duration":0.120000000000001,"midi":62,"time":17.52,"velocity":0.31496062992125984},{"duration":0.11999999999999744,"midi":55,"time":17.64,"velocity":0.31496062992125984},{"duration":0.120000000000001,"midi":67,"time":17.759999999999998,"velocity":0.31496062992125984},{"duration":0.120000000000001,"midi":62,"time":17.88,"velocity":0.31496062992125984},{"duration":0.120000000000001,"midi":55,"time":18.24,"velocity":0.31496062992125984},{"duration":0.120000000000001,"midi":67,"time":18.36,"velocity":0.31496062992125984},{"duration":0.11999999999999744,"midi":62,"time":18.48,"velocity":0.31496062992125984},{"duration":0.120000000000001,"midi":60,"time":18.599999999999998,"velocity":0.31496062992125984},{"duration":0.120000000000001,"midi":53,"time":18.72,"velocity":0.31496062992125984},{"duration":0.120000000000001,"midi":60,"time":18.84,"velocity":0.31496062992125984},{"duration":0.23999999999999844,"midi":53,"time":18.96,"velocity":0.31496062992125984},{"duration":0.120000000000001,"midi":55,"time":19.2,"velocity":0.31496062992125984},{"duration":0.11999999999999744,"midi":67,"time":19.32,"velocity":0.31496062992125984},{"duration":0.120000000000001,"midi":62,"time":19.439999999999998,"velocity":0.31496062992125984},{"duration":0.120000000000001,"midi":55,"time":19.56,"velocity":0.31496062992125984},{"duration":0.120000000000001,"midi":67,"time":19.68,"velocity":0.31496062992125984},{"duration":0.11999999999999744,"midi":62,"time":19.8,"velocity":0.31496062992125984},{"duration":0.11999999999999744,"midi":55,"time":20.16,"velocity":0.31496062992125984},{"duration":0.120000000000001,"midi":67,"time":20.279999999999998,"velocity":0.31496062992125984},{"duration":0.120000000000001,"midi":62,"time":20.4,"velocity":0.31496062992125984},{"duration":0.120000000000001,"midi":55,"time":20.52,"velocity":0.31496062992125984},{"duration":0.11999999999999744,"midi":67,"time":20.64,"velocity":0.31496062992125984},{"duration":0.120000000000001,"midi":62,"time":20.759999999999998,"velocity":0.31496062992125984},{"duration":0.120000000000001,"midi":55,"time":21.119999999999997,"velocity":0.31496062992125984},{"duration":0.120000000000001,"midi":67,"time":21.24,"velocity":0.31496062992125984},{"duration":0.120000000000001,"midi":62,"time":21.36,"velocity":0.31496062992125984},{"duration":0.11999999999999744,"midi":55,"time":21.48,"velocity":0.31496062992125984},{"duration":0.120000000000001,"midi":67,"time":21.599999999999998,"velocity":0.31496062992125984},{"duration":0.120000000000001,"midi":62,"time":21.72,"velocity":0.31496062992125984},{"duration":0.120000000000001,"midi":55,"time":22.08,"velocity":0.31496062992125984},{"duration":0.120000000000001,"midi":67,"time":22.2,"velocity":0.31496062992125984},{"duration":0.11999999999999744,"midi":62,"time":22.32,"velocity":0.31496062992125984},{"duration":0.120000000000001,"midi":60,"time":22.439999999999998,"velocity":0.31496062992125984},{"duration":0.120000000000001,"midi":53,"time":22.56,"velocity":0.31496062992125984},{"duration":0.120000000000001,"midi":60,"time":22.68,"velocity":0.31496062992125984},{"duration":0.23999999999999844,"midi":53,"time":22.8,"velocity":0.31496062992125984},{"duration":0.120000000000001,"midi":51,"time":23.04,"velocity":0.31496062992125984},{"duration":0.11999999999999744,"midi":63,"time":23.16,"velocity":0.31496062992125984},{"duration":0.120000000000001,"midi":58,"time":23.279999999999998,"velocity":0.31496062992125984},{"duration":0.120000000000001,"midi":51,"time":23.4,"velocity":0.31496062992125984},{"duration":0.120000000000001,"midi":63,"time":23.52,"velocity":0.31496062992125984},{"duration":0.11999999999999744,"midi":58,"time":23.64,"velocity":0.31496062992125984},{"duration":0.11999999999999744,"midi":51,"time":24,"velocity":0.31496062992125984},{"duration":0.120000000000001,"midi":63,"time":24.119999999999997,"velocity":0.31496062992125984},{"duration":0.120000000000001,"midi":58,"time":24.24,"velocity":0.31496062992125984},{"duration":0.120000000000001,"midi":51,"time":24.36,"velocity":0.31496062992125984},{"duration":0.11999999999999744,"midi":63,"time":24.48,"velocity":0.31496062992125984},{"duration":0.120000000000001,"midi":58,"time":24.599999999999998,"velocity":0.31496062992125984},{"duration":0.11999999999999744,"midi":51,"time":24.96,"velocity":0.31496062992125984},{"duration":0.120000000000001,"midi":63,"time":25.08,"velocity":0.31496062992125984},{"duration":0.120000000000001,"midi":58,"time":25.2,"velocity":0.31496062992125984},{"duration":0.11999999999999744,"midi":51,"time":25.32,"velocity":0.31496062992125984},{"duration":0.120000000000001,"midi":63,"time":25.439999999999998,"velocity":0.31496062992125984},{"duration":0.120000000000001,"midi":58,"time":25.56,"velocity":0.31496062992125984},{"duration":0.120000000000001,"midi":51,"time":25.919999999999998,"velocity":0.31496062992125984},{"duration":0.120000000000001,"midi":63,"time":26.04,"velocity":0.31496062992125984},{"duration":0.11999999999999744,"midi":58,"time":26.16,"velocity":0.31496062992125984},{"duration":0.120000000000001,"midi":51,"time":26.279999999999998,"velocity":0.31496062992125984},{"duration":0.120000000000001,"midi":53,"time":26.4,"velocity":0.31496062992125984},{"duration":0.120000000000001,"midi":60,"time":26.52,"velocity":0.31496062992125984},{"duration":0.23999999999999844,"midi":53,"time":26.64,"velocity":0.31496062992125984},{"duration":0.120000000000001,"midi":51,"time":26.88,"velocity":0.31496062992125984},{"duration":0.11999999999999744,"midi":63,"time":27,"velocity":0.31496062992125984},{"duration":0.120000000000001,"midi":58,"time":27.119999999999997,"velocity":0.31496062992125984},{"duration":0.120000000000001,"midi":51,"time":27.24,"velocity":0.31496062992125984},{"duration":0.120000000000001,"midi":63,"time":27.36,"velocity":0.31496062992125984},{"duration":0.11999999999999744,"midi":58,"time":27.48,"velocity":0.31496062992125984},{"duration":0.11999999999999744,"midi":51,"time":27.84,"velocity":0.31496062992125984},{"duration":0.120000000000001,"midi":63,"time":27.959999999999997,"velocity":0.31496062992125984},{"duration":0.120000000000001,"midi":58,"time":28.08,"velocity":0.31496062992125984},{"duration":0.120000000000001,"midi":51,"time":28.2,"velocity":0.31496062992125984},{"duration":0.11999999999999744,"midi":63,"time":28.32,"velocity":0.31496062992125984},{"duration":0.120000000000001,"midi":58,"time":28.439999999999998,"velocity":0.31496062992125984},{"duration":0.120000000000001,"midi":51,"time":28.799999999999997,"velocity":0.31496062992125984},{"duration":0.120000000000001,"midi":63,"time":28.919999999999998,"velocity":0.31496062992125984},{"duration":0.120000000000001,"midi":58,"time":29.04,"velocity":0.31496062992125984},{"duration":0.11999999999999744,"midi":51,"time":29.16,"velocity":0.31496062992125984},{"duration":0.120000000000001,"midi":63,"time":29.279999999999998,"velocity":0.31496062992125984},{"duration":0.120000000000001,"midi":58,"time":29.4,"velocity":0.31496062992125984},{"duration":0.120000000000001,"midi":51,"time":29.759999999999998,"velocity":0.31496062992125984},{"duration":0.120000000000001,"midi":63,"time":29.88,"velocity":0.31496062992125984},{"duration":0.11999999999999744,"midi":58,"time":30,"velocity":0.31496062992125984},{"duration":0.120000000000001,"midi":51,"time":30.119999999999997,"velocity":0.31496062992125984},{"duration":0.120000000000001,"midi":53,"time":30.24,"velocity":0.31496062992125984},{"duration":0.120000000000001,"midi":60,"time":30.36,"velocity":0.31496062992125984},{"duration":0.23999999999999844,"midi":53,"time":30.48,"velocity":0.31496062992125984},{"duration":0.120000000000001,"midi":55,"time":30.72,"velocity":0.31496062992125984},{"duration":0.11999999999999744,"midi":67,"time":30.84,"velocity":0.31496062992125984},{"duration":0.120000000000001,"midi":62,"time":30.959999999999997,"velocity":0.31496062992125984},{"duration":0.120000000000001,"midi":55,"time":31.08,"velocity":0.31496062992125984},{"duration":0.120000000000001,"midi":67,"time":31.2,"velocity":0.31496062992125984},{"duration":0.11999999999999744,"midi":62,"time":31.32,"velocity":0.31496062992125984},{"duration":0.11999999999999744,"midi":55,"time":31.68,"velocity":0.31496062992125984},{"duration":0.120000000000001,"midi":67,"time":31.799999999999997,"velocity":0.31496062992125984},{"duration":0.120000000000001,"midi":62,"time":31.919999999999998,"velocity":0.31496062992125984},{"duration":0.11999999999999744,"midi":55,"time":32.04,"velocity":0.31496062992125984},{"duration":0.12000000000000455,"midi":67,"time":32.16,"velocity":0.31496062992125984},{"duration":0.11999999999999744,"midi":62,"time":32.28,"velocity":0.31496062992125984},{"duration":0.11999999999999744,"midi":55,"time":32.64,"velocity":0.31496062992125984},{"duration":0.11999999999999744,"midi":67,"time":32.76,"velocity":0.31496062992125984},{"duration":0.12000000000000455,"midi":62,"time":32.879999999999995,"velocity":0.31496062992125984},{"duration":0.11999999999999744,"midi":55,"time":33,"velocity":0.31496062992125984},{"duration":0.12000000000000455,"midi":67,"time":33.12,"velocity":0.31496062992125984},{"duration":0.11999999999999744,"midi":62,"time":33.24,"velocity":0.31496062992125984},{"duration":0.11999999999999744,"midi":55,"time":33.6,"velocity":0.31496062992125984},{"duration":0.11999999999999744,"midi":67,"time":33.72,"velocity":0.31496062992125984},{"duration":0.12000000000000455,"midi":62,"time":33.839999999999996,"velocity":0.31496062992125984},{"duration":0.11999999999999744,"midi":60,"time":33.96,"velocity":0.31496062992125984},{"duration":0.11999999999999744,"midi":53,"time":34.08,"velocity":0.31496062992125984},{"duration":0.12000000000000455,"midi":60,"time":34.199999999999996,"velocity":0.31496062992125984},{"duration":0.240000000000002,"midi":53,"time":34.32,"velocity":0.31496062992125984},{"duration":0.11999999999999744,"midi":55,"time":34.56,"velocity":0.31496062992125984},{"duration":0.11999999999999744,"midi":67,"time":34.68,"velocity":0.31496062992125984},{"duration":0.12000000000000455,"midi":62,"time":34.8,"velocity":0.31496062992125984},{"duration":0.11999999999999744,"midi":55,"time":34.92,"velocity":0.31496062992125984},{"duration":0.11999999999999744,"midi":67,"time":35.04,"velocity":0.31496062992125984},{"duration":0.12000000000000455,"midi":62,"time":35.16,"velocity":0.31496062992125984},{"duration":0.12000000000000455,"midi":55,"time":35.519999999999996,"velocity":0.31496062992125984},{"duration":0.11999999999999744,"midi":67,"time":35.64,"velocity":0.31496062992125984},{"duration":0.11999999999999744,"midi":62,"time":35.76,"velocity":0.31496062992125984},{"duration":0.12000000000000455,"midi":55,"time":35.879999999999995,"velocity":0.31496062992125984},{"duration":0.11999999999999744,"midi":67,"time":36,"velocity":0.31496062992125984},{"duration":0.12000000000000455,"midi":62,"time":36.12,"velocity":0.31496062992125984},{"duration":0.12000000000000455,"midi":55,"time":36.48,"velocity":0.31496062992125984},{"duration":0.11999999999999744,"midi":67,"time":36.6,"velocity":0.31496062992125984},{"duration":0.11999999999999744,"midi":62,"time":36.72,"velocity":0.31496062992125984},{"duration":0.12000000000000455,"midi":55,"time":36.839999999999996,"velocity":0.31496062992125984},{"duration":0.11999999999999744,"midi":67,"time":36.96,"velocity":0.31496062992125984},{"duration":0.11999999999999744,"midi":62,"time":37.08,"velocity":0.31496062992125984},{"duration":0.11999999999999744,"midi":55,"time":37.44,"velocity":0.31496062992125984},{"duration":0.12000000000000455,"midi":67,"time":37.559999999999995,"velocity":0.31496062992125984},{"duration":0.11999999999999744,"midi":62,"time":37.68,"velocity":0.31496062992125984},{"duration":0.12000000000000455,"midi":60,"time":37.8,"velocity":0.31496062992125984},{"duration":0.11999999999999744,"midi":53,"time":37.92,"velocity":0.31496062992125984},{"duration":0.11999999999999744,"midi":60,"time":38.04,"velocity":0.31496062992125984},{"duration":0.240000000000002,"midi":53,"time":38.16,"velocity":0.31496062992125984},{"duration":0.11999999999999744,"midi":51,"time":38.4,"velocity":0.31496062992125984},{"duration":0.12000000000000455,"midi":63,"time":38.519999999999996,"velocity":0.31496062992125984},{"duration":0.11999999999999744,"midi":58,"time":38.64,"velocity":0.31496062992125984},{"duration":0.11999999999999744,"midi":51,"time":38.76,"velocity":0.31496062992125984},{"duration":0.12000000000000455,"midi":63,"time":38.879999999999995,"velocity":0.31496062992125984},{"duration":0.11999999999999744,"midi":58,"time":39,"velocity":0.31496062992125984},{"duration":0.11999999999999744,"midi":51,"time":39.36,"velocity":0.31496062992125984},{"duration":0.12000000000000455,"midi":63,"time":39.48,"velocity":0.31496062992125984},{"duration":0.11999999999999744,"midi":58,"time":39.6,"velocity":0.31496062992125984},{"duration":0.11999999999999744,"midi":51,"time":39.72,"velocity":0.31496062992125984},{"duration":0.12000000000000455,"midi":63,"time":39.839999999999996,"velocity":0.31496062992125984},{"duration":0.11999999999999744,"midi":58,"time":39.96,"velocity":0.31496062992125984},{"duration":0.11999999999999744,"midi":51,"time":40.32,"velocity":0.31496062992125984},{"duration":0.11999999999999744,"midi":63,"time":40.44,"velocity":0.31496062992125984},{"duration":0.12000000000000455,"midi":58,"time":40.559999999999995,"velocity":0.31496062992125984},{"duration":0.11999999999999744,"midi":51,"time":40.68,"velocity":0.31496062992125984},{"duration":0.12000000000000455,"midi":63,"time":40.8,"velocity":0.31496062992125984},{"duration":0.11999999999999744,"midi":58,"time":40.92,"velocity":0.31496062992125984},{"duration":0.11999999999999744,"midi":51,"time":41.28,"velocity":0.31496062992125984},{"duration":0.11999999999999744,"midi":63,"time":41.4,"velocity":0.31496062992125984},{"duration":0.12000000000000455,"midi":58,"time":41.519999999999996,"velocity":0.31496062992125984},{"duration":0.11999999999999744,"midi":51,"time":41.64,"velocity":0.31496062992125984},{"duration":0.11999999999999744,"midi":53,"time":41.76,"velocity":0.31496062992125984},{"duration":0.12000000000000455,"midi":60,"time":41.879999999999995,"velocity":0.31496062992125984},{"duration":0.23999999999999488,"midi":53,"time":42,"velocity":0.31496062992125984},{"duration":0.12000000000000455,"midi":51,"time":42.239999999999995,"velocity":0.31496062992125984},{"duration":0.11999999999999744,"midi":63,"time":42.36,"velocity":0.31496062992125984},{"duration":0.12000000000000455,"midi":58,"time":42.48,"velocity":0.31496062992125984},{"duration":0.11999999999999744,"midi":51,"time":42.6,"velocity":0.31496062992125984},{"duration":0.11999999999999744,"midi":63,"time":42.72,"velocity":0.31496062992125984},{"duration":0.12000000000000455,"midi":58,"time":42.839999999999996,"velocity":0.31496062992125984},{"duration":0.12000000000000455,"midi":51,"time":43.199999999999996,"velocity":0.31496062992125984},{"duration":0.11999999999999744,"midi":63,"time":43.32,"velocity":0.31496062992125984},{"duration":0.11999999999999744,"midi":58,"time":43.44,"velocity":0.31496062992125984},{"duration":0.12000000000000455,"midi":51,"time":43.559999999999995,"velocity":0.31496062992125984},{"duration":0.11999999999999744,"midi":63,"time":43.68,"velocity":0.31496062992125984},{"duration":0.12000000000000455,"midi":58,"time":43.8,"velocity":0.31496062992125984},{"duration":0.12000000000000455,"midi":51,"time":44.16,"velocity":0.31496062992125984},{"duration":0.11999999999999744,"midi":63,"time":44.28,"velocity":0.31496062992125984},{"duration":0.11999999999999744,"midi":58,"time":44.4,"velocity":0.31496062992125984},{"duration":0.12000000000000455,"midi":51,"time":44.519999999999996,"velocity":0.31496062992125984},{"duration":0.11999999999999744,"midi":63,"time":44.64,"velocity":0.31496062992125984},{"duration":0.11999999999999744,"midi":58,"time":44.76,"velocity":0.31496062992125984},{"duration":0.11999999999999744,"midi":51,"time":45.12,"velocity":0.31496062992125984},{"duration":0.12000000000000455,"midi":63,"time":45.239999999999995,"velocity":0.31496062992125984},{"duration":0.11999999999999744,"midi":58,"time":45.36,"velocity":0.31496062992125984},{"duration":0.12000000000000455,"midi":51,"time":45.48,"velocity":0.31496062992125984},{"duration":0.11999999999999744,"midi":53,"time":45.6,"velocity":0.31496062992125984},{"duration":0.11999999999999744,"midi":60,"time":45.72,"velocity":0.31496062992125984},{"duration":0.240000000000002,"midi":53,"time":45.839999999999996,"velocity":0.31496062992125984},{"duration":0.11999999999999744,"midi":48,"time":46.08,"velocity":0.31496062992125984},{"duration":0.12000000000000455,"midi":60,"time":46.199999999999996,"velocity":0.31496062992125984},{"duration":0.11999999999999744,"midi":55,"time":46.32,"velocity":0.31496062992125984},{"duration":0.11999999999999744,"midi":48,"time":46.44,"velocity":0.31496062992125984},{"duration":0.12000000000000455,"midi":60,"time":46.559999999999995,"velocity":0.31496062992125984},{"duration":0.11999999999999744,"midi":55,"time":46.68,"velocity":0.31496062992125984},{"duration":0.11999999999999744,"midi":55,"time":46.68,"velocity":0.31496062992125984},{"duration":0.240000000000002,"midi":48,"time":46.8,"velocity":0.31496062992125984},{"duration":0.11999999999999744,"midi":48,"time":47.04,"velocity":0.31496062992125984},{"duration":0.12000000000000455,"midi":60,"time":47.16,"velocity":0.31496062992125984},{"duration":0.11999999999999744,"midi":55,"time":47.28,"velocity":0.31496062992125984},{"duration":0.11999999999999744,"midi":48,"time":47.4,"velocity":0.31496062992125984},{"duration":0.12000000000000455,"midi":60,"time":47.519999999999996,"velocity":0.31496062992125984},{"duration":0.11999999999999744,"midi":55,"time":47.64,"velocity":0.31496062992125984},{"duration":0.240000000000002,"midi":48,"time":47.76,"velocity":0.31496062992125984},{"duration":0.11999999999999744,"midi":50,"time":48,"velocity":0.31496062992125984},{"duration":0.11999999999999744,"midi":62,"time":48.12,"velocity":0.31496062992125984},{"duration":0.12000000000000455,"midi":57,"time":48.239999999999995,"velocity":0.31496062992125984},{"duration":0.11999999999999744,"midi":50,"time":48.36,"velocity":0.31496062992125984},{"duration":0.12000000000000455,"midi":62,"time":48.48,"velocity":0.31496062992125984},{"duration":0.11999999999999744,"midi":57,"time":48.6,"velocity":0.31496062992125984},{"duration":0.240000000000002,"midi":50,"time":48.72,"velocity":0.31496062992125984},{"duration":0.11999999999999744,"midi":55,"time":48.96,"velocity":0.31496062992125984},{"duration":0.11999999999999744,"midi":67,"time":49.08,"velocity":0.31496062992125984},{"duration":0.12000000000000455,"midi":62,"time":49.199999999999996,"velocity":0.31496062992125984},{"duration":0.11999999999999744,"midi":58,"time":49.32,"velocity":0.31496062992125984},{"duration":0.11999999999999744,"midi":53,"time":49.44,"velocity":0.31496062992125984},{"duration":0.12000000000000455,"midi":60,"time":49.559999999999995,"velocity":0.31496062992125984},{"duration":0.240000000000002,"midi":53,"time":49.68,"velocity":0.31496062992125984},{"duration":0.11999999999999744,"midi":51,"time":49.92,"velocity":0.31496062992125984},{"duration":0.11999999999999744,"midi":63,"time":50.04,"velocity":0.31496062992125984},{"duration":0.12000000000000455,"midi":58,"time":50.16,"velocity":0.31496062992125984},{"duration":0.11999999999999744,"midi":51,"time":50.28,"velocity":0.31496062992125984},{"duration":0.11999999999999744,"midi":63,"time":50.4,"velocity":0.31496062992125984},{"duration":0.12000000000000455,"midi":58,"time":50.519999999999996,"velocity":0.31496062992125984},{"duration":0.23999999999999488,"midi":51,"time":50.64,"velocity":0.31496062992125984},{"duration":0.12000000000000455,"midi":53,"time":50.879999999999995,"velocity":0.31496062992125984},{"duration":0.11999999999999744,"midi":65,"time":51,"velocity":0.31496062992125984},{"duration":0.11999999999999744,"midi":60,"time":51.12,"velocity":0.31496062992125984},{"duration":0.12000000000000455,"midi":53,"time":51.239999999999995,"velocity":0.31496062992125984},{"duration":0.11999999999999744,"midi":54,"time":51.36,"velocity":0.31496062992125984},{"duration":0.12000000000000455,"midi":66,"time":51.48,"velocity":0.31496062992125984},{"duration":0.23999999999999488,"midi":54,"time":51.6,"velocity":0.31496062992125984},{"duration":0.12000000000000455,"midi":55,"time":51.839999999999996,"velocity":0.31496062992125984},{"duration":0.11999999999999744,"midi":67,"time":51.96,"velocity":0.31496062992125984},{"duration":0.11999999999999744,"midi":62,"time":52.08,"velocity":0.31496062992125984},{"duration":0.12000000000000455,"midi":55,"time":52.199999999999996,"velocity":0.31496062992125984},{"duration":0.11999999999999744,"midi":67,"time":52.32,"velocity":0.31496062992125984},{"duration":0.11999999999999744,"midi":62,"time":52.44,"velocity":0.31496062992125984},{"duration":0.240000000000002,"midi":55,"time":52.559999999999995,"velocity":0.31496062992125984},{"duration":0.11999999999999744,"midi":53,"time":52.8,"velocity":0.31496062992125984},{"duration":0.12000000000000455,"midi":65,"time":52.919999999999995,"velocity":0.31496062992125984},{"duration":0.11999999999999744,"midi":60,"time":53.04,"velocity":0.31496062992125984},{"duration":0.12000000000000455,"midi":53,"time":53.16,"velocity":0.31496062992125984},{"duration":0.11999999999999744,"midi":65,"time":53.28,"velocity":0.31496062992125984},{"duration":0.11999999999999744,"midi":60,"time":53.4,"velocity":0.31496062992125984},{"duration":0.240000000000002,"midi":53,"time":53.519999999999996,"velocity":0.31496062992125984},{"duration":0.11999999999999744,"midi":48,"time":53.76,"velocity":0.31496062992125984},{"duration":0.12000000000000455,"midi":60,"time":53.879999999999995,"velocity":0.31496062992125984},{"duration":0.11999999999999744,"midi":55,"time":54,"velocity":0.31496062992125984},{"duration":0.11999999999999744,"midi":48,"time":54.12,"velocity":0.31496062992125984},{"duration":0.11999999999999744,"midi":67,"time":54.12,"velocity":0.31496062992125984},{"duration":0.11999999999999744,"midi":55,"time":54.36,"velocity":0.31496062992125984},{"duration":0.240000000000002,"midi":48,"time":54.48,"velocity":0.31496062992125984},{"duration":0.11999999999999744,"midi":48,"time":54.72,"velocity":0.31496062992125984},{"duration":0.12000000000000455,"midi":60,"time":54.839999999999996,"velocity":0.31496062992125984},{"duration":0.11999999999999744,"midi":55,"time":54.96,"velocity":0.31496062992125984},{"duration":0.11999999999999744,"midi":48,"time":55.08,"velocity":0.31496062992125984},{"duration":0.12000000000000455,"midi":60,"time":55.199999999999996,"velocity":0.31496062992125984},{"duration":0.11999999999999744,"midi":55,"time":55.32,"velocity":0.31496062992125984},{"duration":0.240000000000002,"midi":48,"time":55.44,"velocity":0.31496062992125984},{"duration":0.11999999999999744,"midi":50,"time":55.68,"velocity":0.31496062992125984},{"duration":0.11999999999999744,"midi":60,"time":55.8,"velocity":0.31496062992125984},{"duration":0.12000000000000455,"midi":57,"time":55.919999999999995,"velocity":0.31496062992125984},{"duration":0.11999999999999744,"midi":65,"time":56.04,"velocity":0.31496062992125984},{"duration":0.11999999999999744,"midi":53,"time":56.04,"velocity":0.31496062992125984},{"duration":0.12000000000000455,"midi":67,"time":56.16,"velocity":0.31496062992125984},{"duration":0.11999999999999744,"midi":60,"time":56.28,"velocity":0.31496062992125984},{"duration":0.11999999999999744,"midi":69,"time":56.28,"velocity":0.31496062992125984},{"duration":0.240000000000002,"midi":50,"time":56.4,"velocity":0.31496062992125984},{"duration":0.240000000000002,"midi":67,"time":56.4,"velocity":0.31496062992125984},{"duration":0.11999999999999744,"midi":50,"time":56.64,"velocity":0.31496062992125984},{"duration":0.11999999999999744,"midi":62,"time":56.76,"velocity":0.31496062992125984},{"duration":0.12000000000000455,"midi":57,"time":56.879999999999995,"velocity":0.31496062992125984},{"duration":0.11999999999999744,"midi":50,"time":57,"velocity":0.31496062992125984},{"duration":0.11999999999999744,"midi":62,"time":57.12,"velocity":0.31496062992125984},{"duration":0.12000000000000455,"midi":57,"time":57.239999999999995,"velocity":0.31496062992125984},{"duration":0.23999999999999488,"midi":50,"time":57.36,"velocity":0.31496062992125984},{"duration":0.12000000000000455,"midi":51,"time":57.599999999999994,"velocity":0.31496062992125984},{"duration":0.11999999999999744,"midi":63,"time":57.72,"velocity":0.31496062992125984},{"duration":0.12000000000000455,"midi":58,"time":57.839999999999996,"velocity":0.31496062992125984},{"duration":0.11999999999999744,"midi":51,"time":57.96,"velocity":0.31496062992125984},{"duration":0.11999999999999744,"midi":63,"time":58.08,"velocity":0.31496062992125984},{"duration":0.12000000000000455,"midi":58,"time":58.199999999999996,"velocity":0.31496062992125984},{"duration":0.23999999999999488,"midi":51,"time":58.32,"velocity":0.31496062992125984},{"duration":0.12000000000000455,"midi":53,"time":58.559999999999995,"velocity":0.31496062992125984},{"duration":0.11999999999999744,"midi":65,"time":58.68,"velocity":0.31496062992125984},{"duration":0.11999999999999744,"midi":60,"time":58.8,"velocity":0.31496062992125984},{"duration":0.12000000000000455,"midi":53,"time":58.919999999999995,"velocity":0.31496062992125984},{"duration":0.240000000000002,"midi":65,"time":59.04,"velocity":0.31496062992125984},{"duration":0.12000000000000455,"midi":55,"time":59.519999999999996,"velocity":0.31496062992125984},{"duration":0.11999999999999744,"midi":67,"time":59.64,"velocity":0.31496062992125984},{"duration":0.11999999999999744,"midi":62,"time":59.76,"velocity":0.31496062992125984},{"duration":0.12000000000000455,"midi":55,"time":59.879999999999995,"velocity":0.31496062992125984},{"duration":0.11999999999999744,"midi":67,"time":60,"velocity":0.31496062992125984},{"duration":0.11999999999999744,"midi":62,"time":60.12,"velocity":0.31496062992125984},{"duration":0.240000000000002,"midi":55,"time":60.239999999999995,"velocity":0.31496062992125984},{"duration":0.11999999999999744,"midi":53,"time":60.48,"velocity":0.31496062992125984},{"duration":0.12000000000000455,"midi":65,"time":60.599999999999994,"velocity":0.31496062992125984},{"duration":0.11999999999999744,"midi":60,"time":60.72,"velocity":0.31496062992125984},{"duration":0.11999999999999744,"midi":63,"time":61.44,"velocity":0.29133858267716534},{"duration":0.11999999999999744,"midi":67,"time":61.68,"velocity":0.29133858267716534},{"duration":0.11999999999999744,"midi":70,"time":61.68,"velocity":0.29133858267716534},{"duration":0.12000000000000455,"midi":58,"time":61.919999999999995,"velocity":0.29133858267716534},{"duration":0.12000000000000455,"midi":67,"time":62.16,"velocity":0.29133858267716534},{"duration":0.12000000000000455,"midi":70,"time":62.16,"velocity":0.29133858267716534},{"duration":0.11999999999999744,"midi":63,"time":62.4,"velocity":0.29133858267716534},{"duration":0.11999999999999744,"midi":70,"time":62.64,"velocity":0.29133858267716534},{"duration":0.11999999999999744,"midi":67,"time":62.64,"velocity":0.29133858267716534},{"duration":0.12000000000000455,"midi":58,"time":62.879999999999995,"velocity":0.29133858267716534},{"duration":0.11999999999999744,"midi":67,"time":63.12,"velocity":0.29133858267716534},{"duration":0.11999999999999744,"midi":70,"time":63.12,"velocity":0.29133858267716534},{"duration":0.11999999999999744,"midi":65,"time":63.36,"velocity":0.29133858267716534},{"duration":0.12000000000000455,"midi":72,"time":63.599999999999994,"velocity":0.29133858267716534},{"duration":0.12000000000000455,"midi":69,"time":63.599999999999994,"velocity":0.29133858267716534},{"duration":0.12000000000000455,"midi":60,"time":63.839999999999996,"velocity":0.29133858267716534},{"duration":0.12000000000000455,"midi":69,"time":64.08,"velocity":0.29133858267716534},{"duration":0.12000000000000455,"midi":72,"time":64.08,"velocity":0.29133858267716534},{"duration":0.12000000000000455,"midi":65,"time":64.32,"velocity":0.29133858267716534},{"duration":0.11999999999999034,"midi":69,"time":64.56,"velocity":0.29133858267716534},{"duration":0.11999999999999034,"midi":72,"time":64.56,"velocity":0.29133858267716534},{"duration":0.12000000000000455,"midi":60,"time":64.8,"velocity":0.29133858267716534},{"duration":0.12000000000000455,"midi":69,"time":65.03999999999999,"velocity":0.29133858267716534},{"duration":0.12000000000000455,"midi":72,"time":65.03999999999999,"velocity":0.29133858267716534},{"duration":0.11999999999999034,"midi":67,"time":65.28,"velocity":0.29133858267716534},{"duration":0.12000000000000455,"midi":74,"time":65.52,"velocity":0.29133858267716534},{"duration":0.12000000000000455,"midi":70,"time":65.52,"velocity":0.29133858267716534},{"duration":0.12000000000000455,"midi":62,"time":65.75999999999999,"velocity":0.29133858267716534},{"duration":0.12000000000000455,"midi":74,"time":66,"velocity":0.29133858267716534},{"duration":0.12000000000000455,"midi":70,"time":66,"velocity":0.29133858267716534},{"duration":0.12000000000000455,"midi":67,"time":66.24,"velocity":0.29133858267716534},{"duration":0.11999999999999034,"midi":74,"time":66.48,"velocity":0.29133858267716534},{"duration":0.11999999999999034,"midi":70,"time":66.48,"velocity":0.29133858267716534},{"duration":0.12000000000000455,"midi":62,"time":66.72,"velocity":0.29133858267716534},{"duration":0.12000000000000455,"midi":74,"time":66.96,"velocity":0.29133858267716534},{"duration":0.12000000000000455,"midi":70,"time":66.96,"velocity":0.29133858267716534},{"duration":0.11999999999999034,"midi":62,"time":67.2,"velocity":0.29133858267716534},{"duration":0.12000000000000455,"midi":72,"time":67.44,"velocity":0.29133858267716534},{"duration":0.12000000000000455,"midi":69,"time":67.44,"velocity":0.29133858267716534},{"duration":0.12000000000000455,"midi":65,"time":67.67999999999999,"velocity":0.29133858267716534},{"duration":0.11999999999999034,"midi":72,"time":67.92,"velocity":0.29133858267716534},{"duration":0.11999999999999034,"midi":69,"time":67.92,"velocity":0.29133858267716534},{"duration":0.12000000000000455,"midi":62,"time":68.16,"velocity":0.29133858267716534},{"duration":0.12000000000000455,"midi":72,"time":68.39999999999999,"velocity":0.29133858267716534},{"duration":0.12000000000000455,"midi":69,"time":68.39999999999999,"velocity":0.29133858267716534},{"duration":0.11999999999999034,"midi":65,"time":68.64,"velocity":0.29133858267716534},{"duration":0.12000000000000455,"midi":69,"time":68.88,"velocity":0.29133858267716534},{"duration":0.12000000000000455,"midi":72,"time":68.88,"velocity":0.29133858267716534},{"duration":0.11999999999999034,"midi":63,"time":69.12,"velocity":0.29133858267716534},{"duration":0.12000000000000455,"midi":70,"time":69.36,"velocity":0.29133858267716534},{"duration":0.12000000000000455,"midi":67,"time":69.36,"velocity":0.29133858267716534},{"duration":0.12000000000000455,"midi":58,"time":69.6,"velocity":0.29133858267716534},{"duration":0.11999999999999034,"midi":67,"time":69.84,"velocity":0.29133858267716534},{"duration":0.11999999999999034,"midi":70,"time":69.84,"velocity":0.29133858267716534},{"duration":0.12000000000000455,"midi":63,"time":70.08,"velocity":0.29133858267716534},{"duration":0.12000000000000455,"midi":67,"time":70.32,"velocity":0.29133858267716534},{"duration":0.12000000000000455,"midi":70,"time":70.32,"velocity":0.29133858267716534},{"duration":0.11999999999999034,"midi":58,"time":70.56,"velocity":0.29133858267716534},{"duration":0.12000000000000455,"midi":70,"time":70.8,"velocity":0.29133858267716534},{"duration":0.12000000000000455,"midi":67,"time":70.8,"velocity":0.29133858267716534},{"duration":0.12000000000000455,"midi":65,"time":71.03999999999999,"velocity":0.29133858267716534},{"duration":0.11999999999999034,"midi":72,"time":71.28,"velocity":0.29133858267716534},{"duration":0.11999999999999034,"midi":69,"time":71.28,"velocity":0.29133858267716534},{"duration":0.12000000000000455,"midi":60,"time":71.52,"velocity":0.29133858267716534},{"duration":0.12000000000000455,"midi":72,"time":71.75999999999999,"velocity":0.29133858267716534},{"duration":0.12000000000000455,"midi":69,"time":71.75999999999999,"velocity":0.29133858267716534},{"duration":0.11999999999999034,"midi":65,"time":72,"velocity":0.29133858267716534},{"duration":0.12000000000000455,"midi":69,"time":72.24,"velocity":0.29133858267716534},{"duration":0.12000000000000455,"midi":72,"time":72.24,"velocity":0.29133858267716534},{"duration":0.11999999999999034,"midi":60,"time":72.48,"velocity":0.29133858267716534},{"duration":0.12000000000000455,"midi":72,"time":72.72,"velocity":0.29133858267716534},{"duration":0.12000000000000455,"midi":69,"time":72.72,"velocity":0.29133858267716534},{"duration":0.12000000000000455,"midi":70,"time":72.96,"velocity":0.29133858267716534},{"duration":0.11999999999999034,"midi":77,"time":73.2,"velocity":0.29133858267716534},{"duration":0.11999999999999034,"midi":74,"time":73.2,"velocity":0.29133858267716534},{"duration":0.12000000000000455,"midi":65,"time":73.44,"velocity":0.29133858267716534},{"duration":0.12000000000000455,"midi":77,"time":73.67999999999999,"velocity":0.29133858267716534},{"duration":0.12000000000000455,"midi":74,"time":73.67999999999999,"velocity":0.29133858267716534},{"duration":0.11999999999999034,"midi":70,"time":73.92,"velocity":0.29133858267716534},{"duration":0.12000000000000455,"midi":74,"time":74.16,"velocity":0.29133858267716534},{"duration":0.12000000000000455,"midi":77,"time":74.16,"velocity":0.29133858267716534},{"duration":0.12000000000000455,"midi":65,"time":74.39999999999999,"velocity":0.29133858267716534},{"duration":0.11999999999999034,"midi":74,"time":74.64,"velocity":0.29133858267716534},{"duration":0.11999999999999034,"midi":77,"time":74.64,"velocity":0.29133858267716534},{"duration":0.12000000000000455,"midi":69,"time":74.88,"velocity":0.29133858267716534},{"duration":0.12000000000000455,"midi":72,"time":74.88,"velocity":0.29133858267716534},{"duration":0.12000000000000455,"midi":51,"time":76.8,"velocity":0.31496062992125984},{"duration":0.12000000000000455,"midi":58,"time":77.03999999999999,"velocity":0.31496062992125984},{"duration":0.12000000000000455,"midi":55,"time":77.03999999999999,"velocity":0.31496062992125984},{"duration":0.11999999999999034,"midi":51,"time":77.28,"velocity":0.31496062992125984},{"duration":0.12000000000000455,"midi":55,"time":77.52,"velocity":0.31496062992125984},{"duration":0.12000000000000455,"midi":58,"time":77.52,"velocity":0.31496062992125984},{"duration":0.12000000000000455,"midi":51,"time":77.75999999999999,"velocity":0.31496062992125984},{"duration":0.11999999999999034,"midi":58,"time":78,"velocity":0.31496062992125984},{"duration":0.11999999999999034,"midi":55,"time":78,"velocity":0.31496062992125984},{"duration":0.12000000000000455,"midi":51,"time":78.24,"velocity":0.31496062992125984},{"duration":0.11999999999999034,"midi":55,"time":78.48,"velocity":0.31496062992125984},{"duration":0.11999999999999034,"midi":58,"time":78.48,"velocity":0.31496062992125984},{"duration":0.12000000000000455,"midi":53,"time":78.72,"velocity":0.31496062992125984},{"duration":0.12000000000000455,"midi":57,"time":78.96,"velocity":0.31496062992125984},{"duration":0.12000000000000455,"midi":60,"time":78.96,"velocity":0.31496062992125984},{"duration":0.11999999999999034,"midi":53,"time":79.2,"velocity":0.31496062992125984},{"duration":0.12000000000000455,"midi":57,"time":79.44,"velocity":0.31496062992125984},{"duration":0.12000000000000455,"midi":60,"time":79.44,"velocity":0.31496062992125984},{"duration":0.12000000000000455,"midi":53,"time":79.67999999999999,"velocity":0.31496062992125984},{"duration":0.11999999999999034,"midi":60,"time":79.92,"velocity":0.31496062992125984},{"duration":0.11999999999999034,"midi":57,"time":79.92,"velocity":0.31496062992125984},{"duration":0.12000000000000455,"midi":53,"time":80.16,"velocity":0.31496062992125984},{"duration":0.12000000000000455,"midi":57,"time":80.39999999999999,"velocity":0.31496062992125984},{"duration":0.12000000000000455,"midi":60,"time":80.39999999999999,"velocity":0.31496062992125984},{"duration":0.11999999999999034,"midi":55,"time":80.64,"velocity":0.31496062992125984},{"duration":0.12000000000000455,"midi":62,"time":80.88,"velocity":0.31496062992125984},{"duration":0.12000000000000455,"midi":58,"time":80.88,"velocity":0.31496062992125984},{"duration":0.12000000000000455,"midi":55,"time":81.11999999999999,"velocity":0.31496062992125984},{"duration":0.12000000000000455,"midi":62,"time":81.36,"velocity":0.31496062992125984},{"duration":0.12000000000000455,"midi":58,"time":81.36,"velocity":0.31496062992125984},{"duration":0.12000000000000455,"midi":55,"time":81.6,"velocity":0.31496062992125984},{"duration":0.11999999999999034,"midi":58,"time":81.84,"velocity":0.31496062992125984},{"duration":0.11999999999999034,"midi":62,"time":81.84,"velocity":0.31496062992125984},{"duration":0.12000000000000455,"midi":55,"time":82.08,"velocity":0.31496062992125984},{"duration":0.12000000000000455,"midi":62,"time":82.32,"velocity":0.31496062992125984},{"duration":0.12000000000000455,"midi":58,"time":82.32,"velocity":0.31496062992125984},{"duration":0.11999999999999034,"midi":53,"time":82.56,"velocity":0.31496062992125984},{"duration":0.12000000000000455,"midi":60,"time":82.8,"velocity":0.31496062992125984},{"duration":0.12000000000000455,"midi":57,"time":82.8,"velocity":0.31496062992125984},{"duration":0.12000000000000455,"midi":53,"time":83.03999999999999,"velocity":0.31496062992125984},{"duration":0.11999999999999034,"midi":60,"time":83.28,"velocity":0.31496062992125984},{"duration":0.11999999999999034,"midi":57,"time":83.28,"velocity":0.31496062992125984},{"duration":0.12000000000000455,"midi":53,"time":83.52,"velocity":0.31496062992125984},{"duration":0.2400000000000091,"midi":60,"time":83.75999999999999,"velocity":0.31496062992125984},{"duration":0.23999999999999488,"midi":57,"time":84,"velocity":0.31496062992125984},{"duration":0.23999999999999488,"midi":60,"time":84.24,"velocity":0.31496062992125984},{"duration":0.12000000000000455,"midi":51,"time":84.47999999999999,"velocity":0.31496062992125984},{"duration":0.12000000000000455,"midi":55,"time":84.72,"velocity":0.31496062992125984},{"duration":0.12000000000000455,"midi":58,"time":84.72,"velocity":0.31496062992125984},{"duration":0.12000000000000455,"midi":51,"time":84.96,"velocity":0.31496062992125984},{"duration":0.11999999999999034,"midi":58,"time":85.2,"velocity":0.31496062992125984},{"duration":0.11999999999999034,"midi":55,"time":85.2,"velocity":0.31496062992125984},{"duration":0.12000000000000455,"midi":51,"time":85.44,"velocity":0.31496062992125984},{"duration":0.12000000000000455,"midi":58,"time":85.67999999999999,"velocity":0.31496062992125984},{"duration":0.12000000000000455,"midi":55,"time":85.67999999999999,"velocity":0.31496062992125984},{"duration":0.11999999999999034,"midi":51,"time":85.92,"velocity":0.31496062992125984},{"duration":0.12000000000000455,"midi":55,"time":86.16,"velocity":0.31496062992125984},{"duration":0.12000000000000455,"midi":58,"time":86.16,"velocity":0.31496062992125984},{"duration":0.12000000000000455,"midi":53,"time":86.39999999999999,"velocity":0.31496062992125984},{"duration":0.11999999999999034,"midi":57,"time":86.64,"velocity":0.31496062992125984},{"duration":0.11999999999999034,"midi":60,"time":86.64,"velocity":0.31496062992125984},{"duration":0.12000000000000455,"midi":53,"time":86.88,"velocity":0.31496062992125984},{"duration":0.12000000000000455,"midi":60,"time":87.11999999999999,"velocity":0.31496062992125984},{"duration":0.12000000000000455,"midi":57,"time":87.11999999999999,"velocity":0.31496062992125984},{"duration":0.11999999999999034,"midi":53,"time":87.36,"velocity":0.31496062992125984},{"duration":0.12000000000000455,"midi":57,"time":87.6,"velocity":0.31496062992125984},{"duration":0.12000000000000455,"midi":60,"time":87.6,"velocity":0.31496062992125984},{"duration":0.23999999999999488,"midi":53,"time":87.84,"velocity":0.31496062992125984},{"duration":0.23999999999999488,"midi":57,"time":88.08,"velocity":0.31496062992125984},{"duration":0.12000000000000455,"midi":48,"time":88.32,"velocity":0.31496062992125984},{"duration":0.11999999999999034,"midi":58,"time":88.56,"velocity":0.31496062992125984},{"duration":0.11999999999999034,"midi":55,"time":88.56,"velocity":0.31496062992125984},{"duration":0.12000000000000455,"midi":48,"time":88.8,"velocity":0.31496062992125984},{"duration":0.12000000000000455,"midi":55,"time":89.03999999999999,"velocity":0.31496062992125984},{"duration":0.12000000000000455,"midi":58,"time":89.03999999999999,"velocity":0.31496062992125984},{"duration":0.23999999999999488,"midi":53,"time":89.28,"velocity":0.31496062992125984},{"duration":0.23999999999999488,"midi":60,"time":89.52,"velocity":0.31496062992125984},{"duration":0.35999999999999943,"midi":65,"time":89.75999999999999,"velocity":0.31496062992125984},{"duration":0.12000000000000455,"midi":63,"time":90.11999999999999,"velocity":0.31496062992125984},{"duration":0.12000000000000455,"midi":50,"time":90.24,"velocity":0.31496062992125984},{"duration":0.12000000000000455,"midi":62,"time":90.24,"velocity":0.31496062992125984},{"duration":0.12000000000000455,"midi":62,"time":90.47999999999999,"velocity":0.31496062992125984},{"duration":0.12000000000000455,"midi":58,"time":90.47999999999999,"velocity":0.31496062992125984},{"duration":0.12000000000000455,"midi":50,"time":90.72,"velocity":0.31496062992125984},{"duration":0.12000000000000455,"midi":62,"time":90.96,"velocity":0.31496062992125984},{"duration":0.12000000000000455,"midi":58,"time":90.96,"velocity":0.31496062992125984},{"duration":0.23999999999999488,"midi":50,"time":91.2,"velocity":0.31496062992125984},{"duration":0.23999999999999488,"midi":60,"time":91.44,"velocity":0.31496062992125984},{"duration":0.2400000000000091,"midi":65,"time":91.67999999999999,"velocity":0.31496062992125984},{"duration":0.23999999999999488,"midi":60,"time":91.92,"velocity":0.31496062992125984},{"duration":0.12000000000000455,"midi":48,"time":92.16,"velocity":0.31496062992125984},{"duration":0.12000000000000455,"midi":51,"time":92.39999999999999,"velocity":0.31496062992125984},{"duration":0.12000000000000455,"midi":55,"time":92.39999999999999,"velocity":0.31496062992125984},{"duration":0.11999999999999034,"midi":48,"time":92.64,"velocity":0.31496062992125984},{"duration":0.12000000000000455,"midi":55,"time":92.88,"velocity":0.31496062992125984},{"duration":0.12000000000000455,"midi":51,"time":92.88,"velocity":0.31496062992125984},{"duration":0.2400000000000091,"midi":53,"time":93.11999999999999,"velocity":0.31496062992125984},{"duration":0.23999999999999488,"midi":60,"time":93.36,"velocity":0.31496062992125984},{"duration":0.35999999999999943,"midi":65,"time":93.6,"velocity":0.31496062992125984},{"duration":0.12000000000000455,"midi":63,"time":93.96,"velocity":0.31496062992125984},{"duration":0.480000000000004,"midi":62,"time":94.08,"velocity":0.31496062992125984},{"duration":0.12000000000000455,"midi":55,"time":94.08,"velocity":0.31496062992125984},{"duration":0.12000000000000455,"midi":58,"time":94.32,"velocity":0.31496062992125984},{"duration":0.12000000000000455,"midi":65,"time":94.32,"velocity":0.31496062992125984},{"duration":0.11999999999999034,"midi":55,"time":94.56,"velocity":0.31496062992125984},{"duration":0.12000000000000455,"midi":65,"time":94.8,"velocity":0.31496062992125984},{"duration":0.12000000000000455,"midi":58,"time":94.8,"velocity":0.31496062992125984},{"duration":0.2400000000000091,"midi":53,"time":95.03999999999999,"velocity":0.31496062992125984},{"duration":0.23999999999999488,"midi":60,"time":95.28,"velocity":0.31496062992125984},{"duration":0.23999999999999488,"midi":53,"time":95.52,"velocity":0.31496062992125984},{"duration":0.2400000000000091,"midi":60,"time":95.75999999999999,"velocity":0.31496062992125984},{"duration":0.11999999999999034,"midi":81,"time":98.64,"velocity":0.31496062992125984},{"duration":0.11999999999999034,"midi":74,"time":98.64,"velocity":0.31496062992125984},{"duration":0.12000000000000455,"midi":66,"time":98.88,"velocity":0.33858267716535434},{"duration":0.12000000000000455,"midi":74,"time":98.88,"velocity":0.33858267716535434},{"duration":0.12000000000000455,"midi":63,"time":99.11999999999999,"velocity":0.33858267716535434},{"duration":0.12000000000000455,"midi":72,"time":99.11999999999999,"velocity":0.33858267716535434},{"duration":0.12000000000000455,"midi":74,"time":99.17999999999999,"velocity":0.33858267716535434},{"duration":0.12000000000000455,"midi":66,"time":99.17999999999999,"velocity":0.33858267716535434},{"duration":0.12000000000000455,"midi":72,"time":99.24,"velocity":0.33858267716535434},{"duration":0.12000000000000455,"midi":63,"time":99.24,"velocity":0.33858267716535434},{"duration":0.23999999999999488,"midi":62,"time":99.36,"velocity":0.33858267716535434},{"duration":0.23999999999999488,"midi":70,"time":99.36,"velocity":0.33858267716535434},{"duration":0.2400000000000091,"midi":72,"time":99.6,"velocity":0.33858267716535434},{"duration":0.2400000000000091,"midi":63,"time":99.6,"velocity":0.33858267716535434},{"duration":0.11999999999999034,"midi":55,"time":99.84,"velocity":0.2677165354330709},{"duration":0.12000000000000455,"midi":67,"time":99.96,"velocity":0.2677165354330709},{"duration":0.12000000000000455,"midi":62,"time":100.08,"velocity":0.2677165354330709},{"duration":0.11999999999999034,"midi":55,"time":100.2,"velocity":0.2677165354330709},{"duration":0.12000000000000455,"midi":67,"time":100.32,"velocity":0.2677165354330709},{"duration":0.12000000000000455,"midi":62,"time":100.44,"velocity":0.2677165354330709},{"duration":0.12000000000000455,"midi":55,"time":100.8,"velocity":0.2677165354330709},{"duration":0.11999999999999034,"midi":67,"time":100.92,"velocity":0.2677165354330709},{"duration":0.12000000000000455,"midi":62,"time":101.03999999999999,"velocity":0.2677165354330709},{"duration":0.12000000000000455,"midi":55,"time":101.16,"velocity":0.2677165354330709},{"duration":0.11999999999999034,"midi":67,"time":101.28,"velocity":0.2677165354330709},{"duration":0.12000000000000455,"midi":62,"time":101.39999999999999,"velocity":0.2677165354330709},{"duration":0.12000000000000455,"midi":55,"time":101.75999999999999,"velocity":0.2677165354330709},{"duration":0.12000000000000455,"midi":67,"time":101.88,"velocity":0.2677165354330709},{"duration":0.11999999999999034,"midi":62,"time":102,"velocity":0.2677165354330709},{"duration":0.12000000000000455,"midi":55,"time":102.11999999999999,"velocity":0.2677165354330709},{"duration":0.12000000000000455,"midi":67,"time":102.24,"velocity":0.2677165354330709},{"duration":0.11999999999999034,"midi":62,"time":102.36,"velocity":0.2677165354330709},{"duration":0.11999999999999034,"midi":55,"time":102.72,"velocity":0.2677165354330709},{"duration":0.12000000000000455,"midi":67,"time":102.83999999999999,"velocity":0.2677165354330709},{"duration":0.12000000000000455,"midi":62,"time":102.96,"velocity":0.2677165354330709},{"duration":0.12000000000000455,"midi":60,"time":103.08,"velocity":0.2677165354330709},{"duration":0.11999999999999034,"midi":53,"time":103.2,"velocity":0.2677165354330709},{"duration":0.12000000000000455,"midi":60,"time":103.32,"velocity":0.2677165354330709},{"duration":0.23999999999999488,"midi":53,"time":103.44,"velocity":0.2677165354330709},{"duration":0.12000000000000455,"midi":55,"time":103.67999999999999,"velocity":0.2677165354330709},{"duration":0.12000000000000455,"midi":67,"time":103.8,"velocity":0.2677165354330709},{"duration":0.11999999999999034,"midi":62,"time":103.92,"velocity":0.2677165354330709},{"duration":0.12000000000000455,"midi":55,"time":104.03999999999999,"velocity":0.2677165354330709},{"duration":0.12000000000000455,"midi":67,"time":104.16,"velocity":0.2677165354330709},{"duration":0.11999999999999034,"midi":62,"time":104.28,"velocity":0.2677165354330709},{"duration":0.11999999999999034,"midi":55,"time":104.64,"velocity":0.2677165354330709},{"duration":0.12000000000000455,"midi":67,"time":104.75999999999999,"velocity":0.2677165354330709},{"duration":0.12000000000000455,"midi":62,"time":104.88,"velocity":0.2677165354330709},{"duration":0.11999999999999034,"midi":55,"time":105,"velocity":0.2677165354330709},{"duration":0.12000000000000455,"midi":67,"time":105.11999999999999,"velocity":0.2677165354330709},{"duration":0.12000000000000455,"midi":62,"time":105.24,"velocity":0.2677165354330709},{"duration":0.12000000000000455,"midi":55,"time":105.6,"velocity":0.2677165354330709},{"duration":0.11999999999999034,"midi":67,"time":105.72,"velocity":0.2677165354330709},{"duration":0.12000000000000455,"midi":62,"time":105.83999999999999,"velocity":0.2677165354330709},{"duration":0.12000000000000455,"midi":55,"time":105.96,"velocity":0.2677165354330709},{"duration":0.12000000000000455,"midi":67,"time":106.08,"velocity":0.2677165354330709},{"duration":0.11999999999999034,"midi":62,"time":106.2,"velocity":0.2677165354330709},{"duration":0.11999999999999034,"midi":55,"time":106.56,"velocity":0.2677165354330709},{"duration":0.12000000000000455,"midi":67,"time":106.67999999999999,"velocity":0.2677165354330709},{"duration":0.12000000000000455,"midi":62,"time":106.8,"velocity":0.2677165354330709},{"duration":0.11999999999999034,"midi":60,"time":106.92,"velocity":0.2677165354330709},{"duration":0.12000000000000455,"midi":53,"time":107.03999999999999,"velocity":0.2677165354330709},{"duration":0.12000000000000455,"midi":60,"time":107.16,"velocity":0.2677165354330709},{"duration":0.23999999999999488,"midi":53,"time":107.28,"velocity":0.2677165354330709},{"duration":0.12000000000000455,"midi":51,"time":107.52,"velocity":0.2677165354330709},{"duration":0.11999999999999034,"midi":63,"time":107.64,"velocity":0.2677165354330709},{"duration":0.12000000000000455,"midi":58,"time":107.75999999999999,"velocity":0.2677165354330709},{"duration":0.12000000000000455,"midi":51,"time":107.88,"velocity":0.2677165354330709},{"duration":0.11999999999999034,"midi":63,"time":108,"velocity":0.2677165354330709},{"duration":0.12000000000000455,"midi":58,"time":108.11999999999999,"velocity":0.2677165354330709},{"duration":0.12000000000000455,"midi":51,"time":108.47999999999999,"velocity":0.2677165354330709},{"duration":0.12000000000000455,"midi":63,"time":108.6,"velocity":0.2677165354330709},{"duration":0.11999999999999034,"midi":58,"time":108.72,"velocity":0.2677165354330709},{"duration":0.12000000000000455,"midi":51,"time":108.83999999999999,"velocity":0.2677165354330709},{"duration":0.12000000000000455,"midi":63,"time":108.96,"velocity":0.2677165354330709},{"duration":0.12000000000000455,"midi":58,"time":109.08,"velocity":0.2677165354330709},{"duration":0.12000000000000455,"midi":51,"time":109.44,"velocity":0.2677165354330709},{"duration":0.11999999999999034,"midi":63,"time":109.56,"velocity":0.2677165354330709},{"duration":0.12000000000000455,"midi":58,"time":109.67999999999999,"velocity":0.2677165354330709},{"duration":0.12000000000000455,"midi":51,"time":109.8,"velocity":0.2677165354330709},{"duration":0.11999999999999034,"midi":63,"time":109.92,"velocity":0.2677165354330709},{"duration":0.12000000000000455,"midi":58,"time":110.03999999999999,"velocity":0.2677165354330709},{"duration":0.12000000000000455,"midi":51,"time":110.39999999999999,"velocity":0.2677165354330709},{"duration":0.12000000000000455,"midi":63,"time":110.52,"velocity":0.2677165354330709},{"duration":0.11999999999999034,"midi":58,"time":110.64,"velocity":0.2677165354330709},{"duration":0.12000000000000455,"midi":51,"time":110.75999999999999,"velocity":0.2677165354330709},{"duration":0.12000000000000455,"midi":53,"time":110.88,"velocity":0.2677165354330709},{"duration":0.11999999999999034,"midi":60,"time":111,"velocity":0.2677165354330709},{"duration":0.2400000000000091,"midi":53,"time":111.11999999999999,"velocity":0.2677165354330709},{"duration":0.11999999999999034,"midi":51,"time":111.36,"velocity":0.2677165354330709},{"duration":0.12000000000000455,"midi":63,"time":111.47999999999999,"velocity":0.2677165354330709},{"duration":0.12000000000000455,"midi":58,"time":111.6,"velocity":0.2677165354330709},{"duration":0.11999999999999034,"midi":51,"time":111.72,"velocity":0.2677165354330709},{"duration":0.12000000000000455,"midi":63,"time":111.83999999999999,"velocity":0.2677165354330709},{"duration":0.12000000000000455,"midi":58,"time":111.96,"velocity":0.2677165354330709},{"duration":0.12000000000000455,"midi":51,"time":112.32,"velocity":0.2677165354330709},{"duration":0.12000000000000455,"midi":63,"time":112.44,"velocity":0.2677165354330709},{"duration":0.11999999999999034,"midi":58,"time":112.56,"velocity":0.2677165354330709},{"duration":0.12000000000000455,"midi":51,"time":112.67999999999999,"velocity":0.2677165354330709},{"duration":0.12000000000000455,"midi":63,"time":112.8,"velocity":0.2677165354330709},{"duration":0.11999999999999034,"midi":58,"time":112.92,"velocity":0.2677165354330709},{"duration":0.11999999999999034,"midi":51,"time":113.28,"velocity":0.2677165354330709},{"duration":0.12000000000000455,"midi":63,"time":113.39999999999999,"velocity":0.2677165354330709},{"duration":0.12000000000000455,"midi":58,"time":113.52,"velocity":0.2677165354330709},{"duration":0.11999999999999034,"midi":51,"time":113.64,"velocity":0.2677165354330709},{"duration":0.12000000000000455,"midi":63,"time":113.75999999999999,"velocity":0.2677165354330709},{"duration":0.12000000000000455,"midi":58,"time":113.88,"velocity":0.2677165354330709},{"duration":0.12000000000000455,"midi":51,"time":114.24,"velocity":0.2677165354330709},{"duration":0.11999999999999034,"midi":63,"time":114.36,"velocity":0.2677165354330709},{"duration":0.12000000000000455,"midi":58,"time":114.47999999999999,"velocity":0.2677165354330709},{"duration":0.12000000000000455,"midi":51,"time":114.6,"velocity":0.2677165354330709},{"duration":0.11999999999999034,"midi":53,"time":114.72,"velocity":0.2677165354330709},{"duration":0.12000000000000455,"midi":60,"time":114.83999999999999,"velocity":0.2677165354330709},{"duration":0.23999999999999488,"midi":53,"time":114.96,"velocity":0.2677165354330709},{"duration":0.12000000000000455,"midi":55,"time":115.19999999999999,"velocity":0.2677165354330709},{"duration":0.12000000000000455,"midi":67,"time":115.32,"velocity":0.2677165354330709},{"duration":0.12000000000000455,"midi":62,"time":115.44,"velocity":0.2677165354330709},{"duration":0.11999999999999034,"midi":55,"time":115.56,"velocity":0.2677165354330709},{"duration":0.12000000000000455,"midi":67,"time":115.67999999999999,"velocity":0.2677165354330709},{"duration":0.12000000000000455,"midi":62,"time":115.8,"velocity":0.2677165354330709},{"duration":0.12000000000000455,"midi":55,"time":116.16,"velocity":0.2677165354330709},{"duration":0.11999999999999034,"midi":67,"time":116.28,"velocity":0.2677165354330709},{"duration":0.12000000000000455,"midi":62,"time":116.39999999999999,"velocity":0.2677165354330709},{"duration":0.12000000000000455,"midi":55,"time":116.52,"velocity":0.2677165354330709},{"duration":0.11999999999999034,"midi":67,"time":116.64,"velocity":0.2677165354330709},{"duration":0.12000000000000455,"midi":62,"time":116.75999999999999,"velocity":0.2677165354330709},{"duration":0.12000000000000455,"midi":55,"time":117.11999999999999,"velocity":0.2677165354330709},{"duration":0.12000000000000455,"midi":67,"time":117.24,"velocity":0.2677165354330709},{"duration":0.11999999999999034,"midi":62,"time":117.36,"velocity":0.2677165354330709},{"duration":0.12000000000000455,"midi":55,"time":117.47999999999999,"velocity":0.2677165354330709},{"duration":0.12000000000000455,"midi":67,"time":117.6,"velocity":0.2677165354330709},{"duration":0.11999999999999034,"midi":62,"time":117.72,"velocity":0.2677165354330709},{"duration":0.11999999999999034,"midi":55,"time":118.08,"velocity":0.2677165354330709},{"duration":0.12000000000000455,"midi":67,"time":118.19999999999999,"velocity":0.2677165354330709},{"duration":0.12000000000000455,"midi":62,"time":118.32,"velocity":0.2677165354330709},{"duration":0.12000000000000455,"midi":60,"time":118.44,"velocity":0.2677165354330709},{"duration":0.11999999999999034,"midi":53,"time":118.56,"velocity":0.2677165354330709},{"duration":0.12000000000000455,"midi":60,"time":118.67999999999999,"velocity":0.2677165354330709},{"duration":0.23999999999999488,"midi":53,"time":118.8,"velocity":0.2677165354330709},{"duration":0.12000000000000455,"midi":55,"time":119.03999999999999,"velocity":0.2677165354330709},{"duration":0.12000000000000455,"midi":67,"time":119.16,"velocity":0.2677165354330709},{"duration":0.11999999999999034,"midi":62,"time":119.28,"velocity":0.2677165354330709},{"duration":0.12000000000000455,"midi":55,"time":119.39999999999999,"velocity":0.2677165354330709},{"duration":0.12000000000000455,"midi":67,"time":119.52,"velocity":0.2677165354330709},{"duration":0.11999999999999034,"midi":62,"time":119.64,"velocity":0.2677165354330709},{"duration":0.11999999999999034,"midi":55,"time":120,"velocity":0.2677165354330709},{"duration":0.12000000000000455,"midi":67,"time":120.11999999999999,"velocity":0.2677165354330709},{"duration":0.12000000000000455,"midi":62,"time":120.24,"velocity":0.2677165354330709},{"duration":0.11999999999999034,"midi":55,"time":120.36,"velocity":0.2677165354330709},{"duration":0.12000000000000455,"midi":67,"time":120.47999999999999,"velocity":0.2677165354330709},{"duration":0.12000000000000455,"midi":62,"time":120.6,"velocity":0.2677165354330709},{"duration":0.12000000000000455,"midi":55,"time":120.96,"velocity":0.2677165354330709},{"duration":0.11999999999999034,"midi":67,"time":121.08,"velocity":0.2677165354330709},{"duration":0.12000000000000455,"midi":62,"time":121.19999999999999,"velocity":0.2677165354330709},{"duration":0.12000000000000455,"midi":55,"time":121.32,"velocity":0.2677165354330709},{"duration":0.12000000000000455,"midi":67,"time":121.44,"velocity":0.2677165354330709},{"duration":0.11999999999999034,"midi":62,"time":121.56,"velocity":0.2677165354330709},{"duration":0.11999999999999034,"midi":55,"time":121.92,"velocity":0.2677165354330709},{"duration":0.12000000000000455,"midi":67,"time":122.03999999999999,"velocity":0.2677165354330709},{"duration":0.12000000000000455,"midi":62,"time":122.16,"velocity":0.2677165354330709},{"duration":0.11999999999999034,"midi":60,"time":122.28,"velocity":0.2677165354330709},{"duration":0.12000000000000455,"midi":53,"time":122.39999999999999,"velocity":0.2677165354330709},{"duration":0.12000000000000455,"midi":60,"time":122.52,"velocity":0.2677165354330709},{"duration":0.23999999999999488,"midi":53,"time":122.64,"velocity":0.2677165354330709},{"duration":0.12000000000000455,"midi":51,"time":122.88,"velocity":0.2677165354330709},{"duration":0.11999999999999034,"midi":63,"time":123,"velocity":0.2677165354330709},{"duration":0.12000000000000455,"midi":58,"time":123.11999999999999,"velocity":0.2677165354330709},{"duration":0.12000000000000455,"midi":51,"time":123.24,"velocity":0.2677165354330709},{"duration":0.11999999999999034,"midi":63,"time":123.36,"velocity":0.2677165354330709},{"duration":0.12000000000000455,"midi":58,"time":123.47999999999999,"velocity":0.2677165354330709},{"duration":0.12000000000000455,"midi":51,"time":123.83999999999999,"velocity":0.2677165354330709},{"duration":0.12000000000000455,"midi":63,"time":123.96,"velocity":0.2677165354330709},{"duration":0.11999999999999034,"midi":58,"time":124.08,"velocity":0.2677165354330709},{"duration":0.12000000000000455,"midi":51,"time":124.19999999999999,"velocity":0.2677165354330709},{"duration":0.12000000000000455,"midi":63,"time":124.32,"velocity":0.2677165354330709},{"duration":0.12000000000000455,"midi":58,"time":124.44,"velocity":0.2677165354330709},{"duration":0.12000000000000455,"midi":51,"time":124.8,"velocity":0.2677165354330709},{"duration":0.11999999999999034,"midi":63,"time":124.92,"velocity":0.2677165354330709},{"duration":0.12000000000000455,"midi":58,"time":125.03999999999999,"velocity":0.2677165354330709},{"duration":0.12000000000000455,"midi":51,"time":125.16,"velocity":0.2677165354330709},{"duration":0.11999999999999034,"midi":63,"time":125.28,"velocity":0.2677165354330709},{"duration":0.12000000000000455,"midi":58,"time":125.39999999999999,"velocity":0.2677165354330709},{"duration":0.12000000000000455,"midi":51,"time":125.75999999999999,"velocity":0.2677165354330709},{"duration":0.12000000000000455,"midi":63,"time":125.88,"velocity":0.2677165354330709},{"duration":0.11999999999999034,"midi":58,"time":126,"velocity":0.2677165354330709},{"duration":0.12000000000000455,"midi":51,"time":126.11999999999999,"velocity":0.2677165354330709},{"duration":0.12000000000000455,"midi":53,"time":126.24,"velocity":0.2677165354330709},{"duration":0.11999999999999034,"midi":60,"time":126.36,"velocity":0.2677165354330709},{"duration":0.2400000000000091,"midi":53,"time":126.47999999999999,"velocity":0.2677165354330709},{"duration":0.11999999999999034,"midi":51,"time":126.72,"velocity":0.2677165354330709},{"duration":0.12000000000000455,"midi":63,"time":126.83999999999999,"velocity":0.2677165354330709},{"duration":0.12000000000000455,"midi":58,"time":126.96,"velocity":0.2677165354330709},{"duration":0.11999999999999034,"midi":51,"time":127.08,"velocity":0.2677165354330709},{"duration":0.12000000000000455,"midi":63,"time":127.19999999999999,"velocity":0.2677165354330709},{"duration":0.12000000000000455,"midi":58,"time":127.32,"velocity":0.2677165354330709},{"duration":0.12000000000000455,"midi":51,"time":127.67999999999999,"velocity":0.2677165354330709},{"duration":0.12000000000000455,"midi":63,"time":127.8,"velocity":0.2677165354330709},{"duration":0.11999999999999034,"midi":58,"time":127.92,"velocity":0.2677165354330709},{"duration":0.12000000000000455,"midi":51,"time":128.04,"velocity":0.2677165354330709},{"duration":0.12000000000000455,"midi":63,"time":128.16,"velocity":0.2677165354330709},{"duration":0.12000000000000455,"midi":58,"time":128.28,"velocity":0.2677165354330709},{"duration":0.12000000000000455,"midi":51,"time":128.64,"velocity":0.2677165354330709},{"duration":0.12000000000000455,"midi":63,"time":128.76,"velocity":0.2677165354330709},{"duration":0.12000000000000455,"midi":58,"time":128.88,"velocity":0.2677165354330709},{"duration":0.12000000000000455,"midi":51,"time":129,"velocity":0.2677165354330709},{"duration":0.12000000000000455,"midi":63,"time":129.12,"velocity":0.2677165354330709},{"duration":0.11999999999997613,"midi":58,"time":129.24,"velocity":0.2677165354330709},{"duration":0.12000000000000455,"midi":51,"time":129.6,"velocity":0.2677165354330709},{"duration":0.12000000000000455,"midi":63,"time":129.72,"velocity":0.2677165354330709},{"duration":0.12000000000000455,"midi":58,"time":129.84,"velocity":0.2677165354330709},{"duration":0.11999999999997613,"midi":51,"time":129.96,"velocity":0.2677165354330709},{"duration":0.12000000000000455,"midi":53,"time":130.07999999999998,"velocity":0.2677165354330709},{"duration":0.12000000000000455,"midi":60,"time":130.2,"velocity":0.2677165354330709},{"duration":0.2400000000000091,"midi":53,"time":130.32,"velocity":0.2677165354330709},{"duration":0.12000000000000455,"midi":48,"time":130.56,"velocity":0.31496062992125984},{"duration":0.11999999999997613,"midi":60,"time":130.68,"velocity":0.31496062992125984},{"duration":0.12000000000000455,"midi":55,"time":130.79999999999998,"velocity":0.31496062992125984},{"duration":0.12000000000000455,"midi":48,"time":130.92,"velocity":0.31496062992125984},{"duration":0.12000000000000455,"midi":60,"time":131.04,"velocity":0.31496062992125984},{"duration":0.12000000000000455,"midi":55,"time":131.16,"velocity":0.31496062992125984},{"duration":0.12000000000000455,"midi":55,"time":131.16,"velocity":0.31496062992125984},{"duration":0.23999999999998067,"midi":48,"time":131.28,"velocity":0.31496062992125984},{"duration":0.12000000000000455,"midi":48,"time":131.51999999999998,"velocity":0.31496062992125984},{"duration":0.12000000000000455,"midi":60,"time":131.64,"velocity":0.31496062992125984},{"duration":0.12000000000000455,"midi":55,"time":131.76,"velocity":0.31496062992125984},{"duration":0.12000000000000455,"midi":48,"time":131.88,"velocity":0.31496062992125984},{"duration":0.12000000000000455,"midi":60,"time":132,"velocity":0.31496062992125984},{"duration":0.12000000000000455,"midi":55,"time":132.12,"velocity":0.31496062992125984},{"duration":0.23999999999998067,"midi":48,"time":132.24,"velocity":0.31496062992125984},{"duration":0.12000000000000455,"midi":50,"time":132.48,"velocity":0.31496062992125984},{"duration":0.12000000000000455,"midi":62,"time":132.6,"velocity":0.31496062992125984},{"duration":0.12000000000000455,"midi":57,"time":132.72,"velocity":0.31496062992125984},{"duration":0.12000000000000455,"midi":50,"time":132.84,"velocity":0.31496062992125984},{"duration":0.11999999999997613,"midi":62,"time":132.96,"velocity":0.31496062992125984},{"duration":0.12000000000000455,"midi":57,"time":133.07999999999998,"velocity":0.31496062992125984},{"duration":0.2400000000000091,"midi":50,"time":133.2,"velocity":0.31496062992125984},{"duration":0.12000000000000455,"midi":55,"time":133.44,"velocity":0.31496062992125984},{"duration":0.12000000000000455,"midi":67,"time":133.56,"velocity":0.31496062992125984},{"duration":0.11999999999997613,"midi":62,"time":133.68,"velocity":0.31496062992125984},{"duration":0.12000000000000455,"midi":58,"time":133.79999999999998,"velocity":0.31496062992125984},{"duration":0.12000000000000455,"midi":53,"time":133.92,"velocity":0.31496062992125984},{"duration":0.12000000000000455,"midi":60,"time":134.04,"velocity":0.31496062992125984},{"duration":0.2400000000000091,"midi":53,"time":134.16,"velocity":0.31496062992125984},{"duration":0.11999999999997613,"midi":51,"time":134.4,"velocity":0.31496062992125984},{"duration":0.12000000000000455,"midi":63,"time":134.51999999999998,"velocity":0.31496062992125984},{"duration":0.12000000000000455,"midi":58,"time":134.64,"velocity":0.31496062992125984},{"duration":0.12000000000000455,"midi":51,"time":134.76,"velocity":0.31496062992125984},{"duration":0.12000000000000455,"midi":63,"time":134.88,"velocity":0.31496062992125984},{"duration":0.12000000000000455,"midi":58,"time":135,"velocity":0.31496062992125984},{"duration":0.23999999999998067,"midi":51,"time":135.12,"velocity":0.31496062992125984},{"duration":0.12000000000000455,"midi":53,"time":135.35999999999999,"velocity":0.31496062992125984},{"duration":0.12000000000000455,"midi":65,"time":135.48,"velocity":0.31496062992125984},{"duration":0.12000000000000455,"midi":60,"time":135.6,"velocity":0.31496062992125984},{"duration":0.12000000000000455,"midi":53,"time":135.72,"velocity":0.31496062992125984},{"duration":0.12000000000000455,"midi":54,"time":135.84,"velocity":0.31496062992125984},{"duration":0.11999999999997613,"midi":66,"time":135.96,"velocity":0.31496062992125984},{"duration":0.2400000000000091,"midi":54,"time":136.07999999999998,"velocity":0.31496062992125984},{"duration":0.12000000000000455,"midi":55,"time":136.32,"velocity":0.31496062992125984},{"duration":0.12000000000000455,"midi":67,"time":136.44,"velocity":0.31496062992125984},{"duration":0.12000000000000455,"midi":62,"time":136.56,"velocity":0.31496062992125984},{"duration":0.11999999999997613,"midi":55,"time":136.68,"velocity":0.31496062992125984},{"duration":0.12000000000000455,"midi":67,"time":136.79999999999998,"velocity":0.31496062992125984},{"duration":0.12000000000000455,"midi":62,"time":136.92,"velocity":0.31496062992125984},{"duration":0.2400000000000091,"midi":55,"time":137.04,"velocity":0.31496062992125984},{"duration":0.12000000000000455,"midi":53,"time":137.28,"velocity":0.31496062992125984},{"duration":0.11999999999997613,"midi":65,"time":137.4,"velocity":0.31496062992125984},{"duration":0.12000000000000455,"midi":60,"time":137.51999999999998,"velocity":0.31496062992125984},{"duration":0.12000000000000455,"midi":53,"time":137.64,"velocity":0.31496062992125984},{"duration":0.12000000000000455,"midi":65,"time":137.76,"velocity":0.31496062992125984},{"duration":0.12000000000000455,"midi":60,"time":137.88,"velocity":0.31496062992125984},{"duration":0.2400000000000091,"midi":53,"time":138,"velocity":0.31496062992125984},{"duration":0.11999999999997613,"midi":48,"time":138.24,"velocity":0.31496062992125984},{"duration":0.12000000000000455,"midi":60,"time":138.35999999999999,"velocity":0.31496062992125984},{"duration":0.12000000000000455,"midi":55,"time":138.48,"velocity":0.31496062992125984},{"duration":0.12000000000000455,"midi":48,"time":138.6,"velocity":0.31496062992125984},{"duration":0.12000000000000455,"midi":67,"time":138.6,"velocity":0.31496062992125984},{"duration":0.12000000000000455,"midi":55,"time":138.84,"velocity":0.31496062992125984},{"duration":0.23999999999998067,"midi":48,"time":138.96,"velocity":0.31496062992125984},{"duration":0.12000000000000455,"midi":48,"time":139.2,"velocity":0.31496062992125984},{"duration":0.12000000000000455,"midi":60,"time":139.32,"velocity":0.31496062992125984},{"duration":0.12000000000000455,"midi":55,"time":139.44,"velocity":0.31496062992125984},{"duration":0.12000000000000455,"midi":48,"time":139.56,"velocity":0.31496062992125984},{"duration":0.11999999999997613,"midi":60,"time":139.68,"velocity":0.31496062992125984},{"duration":0.12000000000000455,"midi":55,"time":139.79999999999998,"velocity":0.31496062992125984},{"duration":0.2400000000000091,"midi":48,"time":139.92,"velocity":0.31496062992125984},{"duration":0.12000000000000455,"midi":50,"time":140.16,"velocity":0.31496062992125984},{"duration":0.12000000000000455,"midi":60,"time":140.28,"velocity":0.31496062992125984},{"duration":0.11999999999997613,"midi":57,"time":140.4,"velocity":0.31496062992125984},{"duration":0.12000000000000455,"midi":65,"time":140.51999999999998,"velocity":0.31496062992125984},{"duration":0.12000000000000455,"midi":53,"time":140.51999999999998,"velocity":0.31496062992125984},{"duration":0.12000000000000455,"midi":67,"time":140.64,"velocity":0.31496062992125984},{"duration":0.12000000000000455,"midi":69,"time":140.76,"velocity":0.31496062992125984},{"duration":0.12000000000000455,"midi":60,"time":140.76,"velocity":0.31496062992125984},{"duration":0.2400000000000091,"midi":67,"time":140.88,"velocity":0.31496062992125984},{"duration":0.2400000000000091,"midi":50,"time":140.88,"velocity":0.31496062992125984},{"duration":0.11999999999997613,"midi":50,"time":141.12,"velocity":0.31496062992125984},{"duration":0.12000000000000455,"midi":62,"time":141.23999999999998,"velocity":0.31496062992125984},{"duration":0.12000000000000455,"midi":57,"time":141.35999999999999,"velocity":0.31496062992125984},{"duration":0.12000000000000455,"midi":50,"time":141.48,"velocity":0.31496062992125984},{"duration":0.12000000000000455,"midi":62,"time":141.6,"velocity":0.31496062992125984},{"duration":0.12000000000000455,"midi":57,"time":141.72,"velocity":0.31496062992125984},{"duration":0.23999999999998067,"midi":50,"time":141.84,"velocity":0.31496062992125984},{"duration":0.12000000000000455,"midi":51,"time":142.07999999999998,"velocity":0.31496062992125984},{"duration":0.12000000000000455,"midi":63,"time":142.2,"velocity":0.31496062992125984},{"duration":0.12000000000000455,"midi":58,"time":142.32,"velocity":0.31496062992125984},{"duration":0.12000000000000455,"midi":51,"time":142.44,"velocity":0.31496062992125984},{"duration":0.12000000000000455,"midi":63,"time":142.56,"velocity":0.31496062992125984},{"duration":0.11999999999997613,"midi":58,"time":142.68,"velocity":0.31496062992125984},{"duration":0.2400000000000091,"midi":51,"time":142.79999999999998,"velocity":0.31496062992125984},{"duration":0.12000000000000455,"midi":53,"time":143.04,"velocity":0.31496062992125984},{"duration":0.12000000000000455,"midi":65,"time":143.16,"velocity":0.31496062992125984},{"duration":0.12000000000000455,"midi":60,"time":143.28,"velocity":0.31496062992125984},{"duration":0.11999999999997613,"midi":53,"time":143.4,"velocity":0.31496062992125984},{"duration":0.2400000000000091,"midi":65,"time":143.51999999999998,"velocity":0.31496062992125984},{"duration":0.12000000000000455,"midi":55,"time":144,"velocity":0.31496062992125984},{"duration":0.11999999999997613,"midi":67,"time":144.12,"velocity":0.31496062992125984},{"duration":0.12000000000000455,"midi":62,"time":144.23999999999998,"velocity":0.31496062992125984},{"duration":0.12000000000000455,"midi":55,"time":144.35999999999999,"velocity":0.31496062992125984},{"duration":0.12000000000000455,"midi":67,"time":144.48,"velocity":0.31496062992125984},{"duration":0.12000000000000455,"midi":62,"time":144.6,"velocity":0.31496062992125984},{"duration":0.2400000000000091,"midi":55,"time":144.72,"velocity":0.31496062992125984},{"duration":0.11999999999997613,"midi":53,"time":144.96,"velocity":0.31496062992125984},{"duration":0.12000000000000455,"midi":65,"time":145.07999999999998,"velocity":0.31496062992125984},{"duration":0.12000000000000455,"midi":60,"time":145.2,"velocity":0.31496062992125984},{"duration":0.12000000000000455,"midi":55,"time":176.64,"velocity":0.31496062992125984},{"duration":0.12000000000000455,"midi":67,"time":176.76,"velocity":0.31496062992125984},{"duration":0.12000000000000455,"midi":62,"time":176.88,"velocity":0.31496062992125984},{"duration":0.12000000000000455,"midi":55,"time":177,"velocity":0.31496062992125984},{"duration":0.11999999999997613,"midi":67,"time":177.12,"velocity":0.31496062992125984},{"duration":0.12000000000000455,"midi":62,"time":177.23999999999998,"velocity":0.31496062992125984},{"duration":0.12000000000000455,"midi":55,"time":177.6,"velocity":0.31496062992125984},{"duration":0.12000000000000455,"midi":67,"time":177.72,"velocity":0.31496062992125984},{"duration":0.11999999999997613,"midi":62,"time":177.84,"velocity":0.31496062992125984},{"duration":0.12000000000000455,"midi":55,"time":177.95999999999998,"velocity":0.31496062992125984},{"duration":0.12000000000000455,"midi":67,"time":178.07999999999998,"velocity":0.31496062992125984},{"duration":0.12000000000000455,"midi":62,"time":178.2,"velocity":0.31496062992125984},{"duration":0.12000000000000455,"midi":55,"time":178.56,"velocity":0.31496062992125984},{"duration":0.11999999999997613,"midi":67,"time":178.68,"velocity":0.31496062992125984},{"duration":0.12000000000000455,"midi":62,"time":178.79999999999998,"velocity":0.31496062992125984},{"duration":0.12000000000000455,"midi":55,"time":178.92,"velocity":0.31496062992125984},{"duration":0.12000000000000455,"midi":67,"time":179.04,"velocity":0.31496062992125984},{"duration":0.12000000000000455,"midi":62,"time":179.16,"velocity":0.31496062992125984},{"duration":0.12000000000000455,"midi":55,"time":179.51999999999998,"velocity":0.31496062992125984},{"duration":0.12000000000000455,"midi":67,"time":179.64,"velocity":0.31496062992125984},{"duration":0.12000000000000455,"midi":62,"time":179.76,"velocity":0.31496062992125984},{"duration":0.12000000000000455,"midi":60,"time":179.88,"velocity":0.31496062992125984},{"duration":0.12000000000000455,"midi":53,"time":180,"velocity":0.31496062992125984},{"duration":0.11999999999997613,"midi":60,"time":180.12,"velocity":0.31496062992125984},{"duration":0.2400000000000091,"midi":53,"time":180.23999999999998,"velocity":0.31496062992125984},{"duration":0.12000000000000455,"midi":55,"time":180.48,"velocity":0.31496062992125984},{"duration":0.12000000000000455,"midi":67,"time":180.6,"velocity":0.31496062992125984},{"duration":0.12000000000000455,"midi":62,"time":180.72,"velocity":0.31496062992125984},{"duration":0.11999999999997613,"midi":55,"time":180.84,"velocity":0.31496062992125984},{"duration":0.12000000000000455,"midi":67,"time":180.95999999999998,"velocity":0.31496062992125984},{"duration":0.12000000000000455,"midi":62,"time":181.07999999999998,"velocity":0.31496062992125984},{"duration":0.12000000000000455,"midi":55,"time":181.44,"velocity":0.31496062992125984},{"duration":0.12000000000000455,"midi":67,"time":181.56,"velocity":0.31496062992125984},{"duration":0.11999999999997613,"midi":62,"time":181.68,"velocity":0.31496062992125984},{"duration":0.12000000000000455,"midi":55,"time":181.79999999999998,"velocity":0.31496062992125984},{"duration":0.12000000000000455,"midi":67,"time":181.92,"velocity":0.31496062992125984},{"duration":0.12000000000000455,"midi":62,"time":182.04,"velocity":0.31496062992125984},{"duration":0.11999999999997613,"midi":55,"time":182.4,"velocity":0.31496062992125984},{"duration":0.12000000000000455,"midi":67,"time":182.51999999999998,"velocity":0.31496062992125984},{"duration":0.12000000000000455,"midi":62,"time":182.64,"velocity":0.31496062992125984},{"duration":0.12000000000000455,"midi":55,"time":182.76,"velocity":0.31496062992125984},{"duration":0.12000000000000455,"midi":67,"time":182.88,"velocity":0.31496062992125984},{"duration":0.12000000000000455,"midi":62,"time":183,"velocity":0.31496062992125984},{"duration":0.12000000000000455,"midi":55,"time":183.35999999999999,"velocity":0.31496062992125984},{"duration":0.12000000000000455,"midi":67,"time":183.48,"velocity":0.31496062992125984},{"duration":0.12000000000000455,"midi":62,"time":183.6,"velocity":0.31496062992125984},{"duration":0.12000000000000455,"midi":60,"time":183.72,"velocity":0.31496062992125984},{"duration":0.11999999999997613,"midi":53,"time":183.84,"velocity":0.31496062992125984},{"duration":0.12000000000000455,"midi":60,"time":183.95999999999998,"velocity":0.31496062992125984},{"duration":0.2400000000000091,"midi":53,"time":184.07999999999998,"velocity":0.31496062992125984},{"duration":0.12000000000000455,"midi":51,"time":184.32,"velocity":0.31496062992125984},{"duration":0.12000000000000455,"midi":63,"time":184.44,"velocity":0.31496062992125984},{"duration":0.12000000000000455,"midi":58,"time":184.56,"velocity":0.31496062992125984},{"duration":0.11999999999997613,"midi":51,"time":184.68,"velocity":0.31496062992125984},{"duration":0.12000000000000455,"midi":63,"time":184.79999999999998,"velocity":0.31496062992125984},{"duration":0.12000000000000455,"midi":58,"time":184.92,"velocity":0.31496062992125984},{"duration":0.12000000000000455,"midi":51,"time":185.28,"velocity":0.31496062992125984},{"duration":0.11999999999997613,"midi":63,"time":185.4,"velocity":0.31496062992125984},{"duration":0.12000000000000455,"midi":58,"time":185.51999999999998,"velocity":0.31496062992125984},{"duration":0.12000000000000455,"midi":51,"time":185.64,"velocity":0.31496062992125984},{"duration":0.12000000000000455,"midi":63,"time":185.76,"velocity":0.31496062992125984},{"duration":0.12000000000000455,"midi":58,"time":185.88,"velocity":0.31496062992125984},{"duration":0.12000000000000455,"midi":51,"time":186.23999999999998,"velocity":0.31496062992125984},{"duration":0.12000000000000455,"midi":63,"time":186.35999999999999,"velocity":0.31496062992125984},{"duration":0.12000000000000455,"midi":58,"time":186.48,"velocity":0.31496062992125984},{"duration":0.12000000000000455,"midi":51,"time":186.6,"velocity":0.31496062992125984},{"duration":0.12000000000000455,"midi":63,"time":186.72,"velocity":0.31496062992125984},{"duration":0.11999999999997613,"midi":58,"time":186.84,"velocity":0.31496062992125984},{"duration":0.12000000000000455,"midi":51,"time":187.2,"velocity":0.31496062992125984},{"duration":0.12000000000000455,"midi":63,"time":187.32,"velocity":0.31496062992125984},{"duration":0.12000000000000455,"midi":58,"time":187.44,"velocity":0.31496062992125984},{"duration":0.12000000000000455,"midi":51,"time":187.56,"velocity":0.31496062992125984},{"duration":0.11999999999997613,"midi":53,"time":187.68,"velocity":0.31496062992125984},{"duration":0.12000000000000455,"midi":60,"time":187.79999999999998,"velocity":0.31496062992125984},{"duration":0.2400000000000091,"midi":53,"time":187.92,"velocity":0.31496062992125984},{"duration":0.12000000000000455,"midi":51,"time":188.16,"velocity":0.31496062992125984},{"duration":0.12000000000000455,"midi":63,"time":188.28,"velocity":0.31496062992125984},{"duration":0.11999999999997613,"midi":58,"time":188.4,"velocity":0.31496062992125984},{"duration":0.12000000000000455,"midi":51,"time":188.51999999999998,"velocity":0.31496062992125984},{"duration":0.12000000000000455,"midi":63,"time":188.64,"velocity":0.31496062992125984},{"duration":0.12000000000000455,"midi":58,"time":188.76,"velocity":0.31496062992125984},{"duration":0.11999999999997613,"midi":51,"time":189.12,"velocity":0.31496062992125984},{"duration":0.12000000000000455,"midi":63,"time":189.23999999999998,"velocity":0.31496062992125984},{"duration":0.12000000000000455,"midi":58,"time":189.35999999999999,"velocity":0.31496062992125984},{"duration":0.12000000000000455,"midi":51,"time":189.48,"velocity":0.31496062992125984},{"duration":0.12000000000000455,"midi":63,"time":189.6,"velocity":0.31496062992125984},{"duration":0.12000000000000455,"midi":58,"time":189.72,"velocity":0.31496062992125984},{"duration":0.12000000000000455,"midi":51,"time":190.07999999999998,"velocity":0.31496062992125984},{"duration":0.12000000000000455,"midi":63,"time":190.2,"velocity":0.31496062992125984},{"duration":0.12000000000000455,"midi":58,"time":190.32,"velocity":0.31496062992125984},{"duration":0.12000000000000455,"midi":51,"time":190.44,"velocity":0.31496062992125984},{"duration":0.12000000000000455,"midi":63,"time":190.56,"velocity":0.31496062992125984},{"duration":0.11999999999997613,"midi":58,"time":190.68,"velocity":0.31496062992125984},{"duration":0.12000000000000455,"midi":51,"time":191.04,"velocity":0.31496062992125984},{"duration":0.12000000000000455,"midi":63,"time":191.16,"velocity":0.31496062992125984},{"duration":0.12000000000000455,"midi":58,"time":191.28,"velocity":0.31496062992125984},{"duration":0.11999999999997613,"midi":51,"time":191.4,"velocity":0.31496062992125984},{"duration":0.12000000000000455,"midi":53,"time":191.51999999999998,"velocity":0.31496062992125984},{"duration":0.12000000000000455,"midi":60,"time":191.64,"velocity":0.31496062992125984},{"duration":0.2400000000000091,"midi":53,"time":191.76,"velocity":0.31496062992125984},{"duration":0.12000000000000455,"midi":55,"time":192,"velocity":0.31496062992125984},{"duration":0.11999999999997613,"midi":67,"time":192.12,"velocity":0.31496062992125984},{"duration":0.12000000000000455,"midi":62,"time":192.23999999999998,"velocity":0.31496062992125984},{"duration":0.12000000000000455,"midi":55,"time":192.35999999999999,"velocity":0.31496062992125984},{"duration":0.12000000000000455,"midi":67,"time":192.48,"velocity":0.31496062992125984},{"duration":0.12000000000000455,"midi":62,"time":192.6,"velocity":0.31496062992125984},{"duration":0.12000000000000455,"midi":55,"time":192.95999999999998,"velocity":0.31496062992125984},{"duration":0.12000000000000455,"midi":67,"time":193.07999999999998,"velocity":0.31496062992125984},{"duration":0.12000000000000455,"midi":62,"time":193.2,"velocity":0.31496062992125984},{"duration":0.12000000000000455,"midi":55,"time":193.32,"velocity":0.31496062992125984},{"duration":0.12000000000000455,"midi":67,"time":193.44,"velocity":0.31496062992125984},{"duration":0.12000000000000455,"midi":62,"time":193.56,"velocity":0.31496062992125984},{"duration":0.12000000000000455,"midi":55,"time":193.92,"velocity":0.31496062992125984},{"duration":0.12000000000000455,"midi":67,"time":194.04,"velocity":0.31496062992125984},{"duration":0.12000000000000455,"midi":62,"time":194.16,"velocity":0.31496062992125984},{"duration":0.12000000000000455,"midi":55,"time":194.28,"velocity":0.31496062992125984},{"duration":0.11999999999997613,"midi":67,"time":194.4,"velocity":0.31496062992125984},{"duration":0.12000000000000455,"midi":62,"time":194.51999999999998,"velocity":0.31496062992125984},{"duration":0.12000000000000455,"midi":55,"time":194.88,"velocity":0.31496062992125984},{"duration":0.12000000000000455,"midi":67,"time":195,"velocity":0.31496062992125984},{"duration":0.11999999999997613,"midi":62,"time":195.12,"velocity":0.31496062992125984},{"duration":0.12000000000000455,"midi":60,"time":195.23999999999998,"velocity":0.31496062992125984},{"duration":0.12000000000000455,"midi":53,"time":195.35999999999999,"velocity":0.31496062992125984},{"duration":0.12000000000000455,"midi":60,"time":195.48,"velocity":0.31496062992125984},{"duration":0.2400000000000091,"midi":53,"time":195.6,"velocity":0.31496062992125984},{"duration":0.11999999999997613,"midi":55,"time":195.84,"velocity":0.31496062992125984},{"duration":0.12000000000000455,"midi":67,"time":195.95999999999998,"velocity":0.31496062992125984},{"duration":0.12000000000000455,"midi":62,"time":196.07999999999998,"velocity":0.31496062992125984},{"duration":0.12000000000000455,"midi":55,"time":196.2,"velocity":0.31496062992125984},{"duration":0.12000000000000455,"midi":67,"time":196.32,"velocity":0.31496062992125984},{"duration":0.12000000000000455,"midi":62,"time":196.44,"velocity":0.31496062992125984},{"duration":0.12000000000000455,"midi":55,"time":196.79999999999998,"velocity":0.31496062992125984},{"duration":0.12000000000000455,"midi":67,"time":196.92,"velocity":0.31496062992125984},{"duration":0.12000000000000455,"midi":62,"time":197.04,"velocity":0.31496062992125984},{"duration":0.12000000000000455,"midi":55,"time":197.16,"velocity":0.31496062992125984},{"duration":0.12000000000000455,"midi":67,"time":197.28,"velocity":0.31496062992125984},{"duration":0.11999999999997613,"midi":62,"time":197.4,"velocity":0.31496062992125984},{"duration":0.12000000000000455,"midi":55,"time":197.76,"velocity":0.31496062992125984},{"duration":0.12000000000000455,"midi":67,"time":197.88,"velocity":0.31496062992125984},{"duration":0.12000000000000455,"midi":62,"time":198,"velocity":0.31496062992125984},{"duration":0.11999999999997613,"midi":55,"time":198.12,"velocity":0.31496062992125984},{"duration":0.12000000000000455,"midi":67,"time":198.23999999999998,"velocity":0.31496062992125984},{"duration":0.12000000000000455,"midi":62,"time":198.35999999999999,"velocity":0.31496062992125984},{"duration":0.12000000000000455,"midi":55,"time":198.72,"velocity":0.31496062992125984},{"duration":0.11999999999997613,"midi":67,"time":198.84,"velocity":0.31496062992125984},{"duration":0.12000000000000455,"midi":62,"time":198.95999999999998,"velocity":0.31496062992125984},{"duration":0.12000000000000455,"midi":60,"time":199.07999999999998,"velocity":0.31496062992125984},{"duration":0.12000000000000455,"midi":53,"time":199.2,"velocity":0.31496062992125984},{"duration":0.12000000000000455,"midi":60,"time":199.32,"velocity":0.31496062992125984},{"duration":0.2400000000000091,"midi":53,"time":199.44,"velocity":0.31496062992125984},{"duration":0.11999999999997613,"midi":51,"time":199.68,"velocity":0.31496062992125984},{"duration":0.12000000000000455,"midi":63,"time":199.79999999999998,"velocity":0.31496062992125984},{"duration":0.12000000000000455,"midi":58,"time":199.92,"velocity":0.31496062992125984},{"duration":0.12000000000000455,"midi":51,"time":200.04,"velocity":0.31496062992125984},{"duration":0.12000000000000455,"midi":63,"time":200.16,"velocity":0.31496062992125984},{"duration":0.12000000000000455,"midi":58,"time":200.28,"velocity":0.31496062992125984},{"duration":0.12000000000000455,"midi":51,"time":200.64,"velocity":0.31496062992125984},{"duration":0.12000000000000455,"midi":63,"time":200.76,"velocity":0.31496062992125984},{"duration":0.12000000000000455,"midi":58,"time":200.88,"velocity":0.31496062992125984},{"duration":0.12000000000000455,"midi":51,"time":201,"velocity":0.31496062992125984},{"duration":0.11999999999997613,"midi":63,"time":201.12,"velocity":0.31496062992125984},{"duration":0.12000000000000455,"midi":58,"time":201.23999999999998,"velocity":0.31496062992125984},{"duration":0.12000000000000455,"midi":51,"time":201.6,"velocity":0.31496062992125984},{"duration":0.12000000000000455,"midi":63,"time":201.72,"velocity":0.31496062992125984},{"duration":0.11999999999997613,"midi":58,"time":201.84,"velocity":0.31496062992125984},{"duration":0.12000000000000455,"midi":51,"time":201.95999999999998,"velocity":0.31496062992125984},{"duration":0.12000000000000455,"midi":63,"time":202.07999999999998,"velocity":0.31496062992125984},{"duration":0.12000000000000455,"midi":58,"time":202.2,"velocity":0.31496062992125984},{"duration":0.11999999999997613,"midi":51,"time":202.56,"velocity":0.31496062992125984},{"duration":0.12000000000000455,"midi":63,"time":202.67999999999998,"velocity":0.31496062992125984},{"duration":0.12000000000000455,"midi":58,"time":202.79999999999998,"velocity":0.31496062992125984},{"duration":0.12000000000000455,"midi":51,"time":202.92,"velocity":0.31496062992125984},{"duration":0.12000000000000455,"midi":53,"time":203.04,"velocity":0.31496062992125984},{"duration":0.12000000000000455,"midi":60,"time":203.16,"velocity":0.31496062992125984},{"duration":0.23999999999998067,"midi":53,"time":203.28,"velocity":0.31496062992125984},{"duration":0.12000000000000455,"midi":51,"time":203.51999999999998,"velocity":0.31496062992125984},{"duration":0.12000000000000455,"midi":63,"time":203.64,"velocity":0.31496062992125984},{"duration":0.12000000000000455,"midi":58,"time":203.76,"velocity":0.31496062992125984},{"duration":0.12000000000000455,"midi":51,"time":203.88,"velocity":0.31496062992125984},{"duration":0.12000000000000455,"midi":63,"time":204,"velocity":0.31496062992125984},{"duration":0.11999999999997613,"midi":58,"time":204.12,"velocity":0.31496062992125984},{"duration":0.12000000000000455,"midi":51,"time":204.48,"velocity":0.31496062992125984},{"duration":0.12000000000000455,"midi":63,"time":204.6,"velocity":0.31496062992125984},{"duration":0.12000000000000455,"midi":58,"time":204.72,"velocity":0.31496062992125984},{"duration":0.11999999999997613,"midi":51,"time":204.84,"velocity":0.31496062992125984},{"duration":0.12000000000000455,"midi":63,"time":204.95999999999998,"velocity":0.31496062992125984},{"duration":0.12000000000000455,"midi":58,"time":205.07999999999998,"velocity":0.31496062992125984},{"duration":0.12000000000000455,"midi":51,"time":205.44,"velocity":0.31496062992125984},{"duration":0.11999999999997613,"midi":63,"time":205.56,"velocity":0.31496062992125984},{"duration":0.12000000000000455,"midi":58,"time":205.67999999999998,"velocity":0.31496062992125984},{"duration":0.12000000000000455,"midi":51,"time":205.79999999999998,"velocity":0.31496062992125984},{"duration":0.12000000000000455,"midi":63,"time":205.92,"velocity":0.31496062992125984},{"duration":0.12000000000000455,"midi":58,"time":206.04,"velocity":0.31496062992125984},{"duration":0.11999999999997613,"midi":51,"time":206.4,"velocity":0.31496062992125984},{"duration":0.12000000000000455,"midi":63,"time":206.51999999999998,"velocity":0.31496062992125984},{"duration":0.12000000000000455,"midi":58,"time":206.64,"velocity":0.31496062992125984},{"duration":0.12000000000000455,"midi":51,"time":206.76,"velocity":0.31496062992125984},{"duration":0.12000000000000455,"midi":53,"time":206.88,"velocity":0.31496062992125984},{"duration":0.12000000000000455,"midi":60,"time":207,"velocity":0.31496062992125984},{"duration":0.23999999999998067,"midi":53,"time":207.12,"velocity":0.31496062992125984},{"duration":0.12000000000000455,"midi":48,"time":207.35999999999999,"velocity":0.31496062992125984},{"duration":0.12000000000000455,"midi":60,"time":207.48,"velocity":0.31496062992125984},{"duration":0.12000000000000455,"midi":55,"time":207.6,"velocity":0.31496062992125984},{"duration":0.12000000000000455,"midi":48,"time":207.72,"velocity":0.31496062992125984},{"duration":0.11999999999997613,"midi":60,"time":207.84,"velocity":0.31496062992125984},{"duration":0.12000000000000455,"midi":55,"time":207.95999999999998,"velocity":0.31496062992125984},{"duration":0.12000000000000455,"midi":55,"time":207.95999999999998,"velocity":0.31496062992125984},{"duration":0.2400000000000091,"midi":48,"time":208.07999999999998,"velocity":0.31496062992125984},{"duration":0.12000000000000455,"midi":48,"time":208.32,"velocity":0.31496062992125984},{"duration":0.12000000000000455,"midi":60,"time":208.44,"velocity":0.31496062992125984},{"duration":0.11999999999997613,"midi":55,"time":208.56,"velocity":0.31496062992125984},{"duration":0.12000000000000455,"midi":48,"time":208.67999999999998,"velocity":0.31496062992125984},{"duration":0.12000000000000455,"midi":60,"time":208.79999999999998,"velocity":0.31496062992125984},{"duration":0.12000000000000455,"midi":55,"time":208.92,"velocity":0.31496062992125984},{"duration":0.2400000000000091,"midi":48,"time":209.04,"velocity":0.31496062992125984},{"duration":0.12000000000000455,"midi":50,"time":209.28,"velocity":0.31496062992125984},{"duration":0.11999999999997613,"midi":62,"time":209.4,"velocity":0.31496062992125984},{"duration":0.12000000000000455,"midi":57,"time":209.51999999999998,"velocity":0.31496062992125984},{"duration":0.12000000000000455,"midi":50,"time":209.64,"velocity":0.31496062992125984},{"duration":0.12000000000000455,"midi":62,"time":209.76,"velocity":0.31496062992125984},{"duration":0.12000000000000455,"midi":57,"time":209.88,"velocity":0.31496062992125984},{"duration":0.23999999999998067,"midi":50,"time":210,"velocity":0.31496062992125984},{"duration":0.12000000000000455,"midi":55,"time":210.23999999999998,"velocity":0.31496062992125984},{"duration":0.12000000000000455,"midi":67,"time":210.35999999999999,"velocity":0.31496062992125984},{"duration":0.12000000000000455,"midi":62,"time":210.48,"velocity":0.31496062992125984},{"duration":0.12000000000000455,"midi":58,"time":210.6,"velocity":0.31496062992125984},{"duration":0.12000000000000455,"midi":53,"time":210.72,"velocity":0.31496062992125984},{"duration":0.11999999999997613,"midi":60,"time":210.84,"velocity":0.31496062992125984},{"duration":0.2400000000000091,"midi":53,"time":210.95999999999998,"velocity":0.31496062992125984},{"duration":0.12000000000000455,"midi":51,"time":211.2,"velocity":0.31496062992125984},{"duration":0.12000000000000455,"midi":63,"time":211.32,"velocity":0.31496062992125984},{"duration":0.12000000000000455,"midi":58,"time":211.44,"velocity":0.31496062992125984},{"duration":0.11999999999997613,"midi":51,"time":211.56,"velocity":0.31496062992125984},{"duration":0.12000000000000455,"midi":63,"time":211.67999999999998,"velocity":0.31496062992125984},{"duration":0.12000000000000455,"midi":58,"time":211.79999999999998,"velocity":0.31496062992125984},{"duration":0.2400000000000091,"midi":51,"time":211.92,"velocity":0.31496062992125984},{"duration":0.12000000000000455,"midi":53,"time":212.16,"velocity":0.31496062992125984},{"duration":0.12000000000000455,"midi":65,"time":212.28,"velocity":0.31496062992125984},{"duration":0.11999999999997613,"midi":60,"time":212.4,"velocity":0.31496062992125984},{"duration":0.12000000000000455,"midi":53,"time":212.51999999999998,"velocity":0.31496062992125984},{"duration":0.12000000000000455,"midi":54,"time":212.64,"velocity":0.31496062992125984},{"duration":0.12000000000000455,"midi":66,"time":212.76,"velocity":0.31496062992125984},{"duration":0.2400000000000091,"midi":54,"time":212.88,"velocity":0.31496062992125984},{"duration":0.11999999999997613,"midi":55,"time":213.12,"velocity":0.31496062992125984},{"duration":0.12000000000000455,"midi":67,"time":213.23999999999998,"velocity":0.31496062992125984},{"duration":0.12000000000000455,"midi":62,"time":213.35999999999999,"velocity":0.31496062992125984},{"duration":0.12000000000000455,"midi":55,"time":213.48,"velocity":0.31496062992125984},{"duration":0.12000000000000455,"midi":67,"time":213.6,"velocity":0.31496062992125984},{"duration":0.12000000000000455,"midi":62,"time":213.72,"velocity":0.31496062992125984},{"duration":0.23999999999998067,"midi":55,"time":213.84,"velocity":0.31496062992125984},{"duration":0.12000000000000455,"midi":53,"time":214.07999999999998,"velocity":0.31496062992125984},{"duration":0.12000000000000455,"midi":65,"time":214.2,"velocity":0.31496062992125984},{"duration":0.12000000000000455,"midi":60,"time":214.32,"velocity":0.31496062992125984},{"duration":0.12000000000000455,"midi":53,"time":214.44,"velocity":0.31496062992125984},{"duration":0.11999999999997613,"midi":65,"time":214.56,"velocity":0.31496062992125984},{"duration":0.12000000000000455,"midi":60,"time":214.67999999999998,"velocity":0.31496062992125984},{"duration":0.2400000000000091,"midi":53,"time":214.79999999999998,"velocity":0.31496062992125984},{"duration":0.12000000000000455,"midi":48,"time":215.04,"velocity":0.31496062992125984},{"duration":0.12000000000000455,"midi":60,"time":215.16,"velocity":0.31496062992125984},{"duration":0.12000000000000455,"midi":55,"time":215.28,"velocity":0.31496062992125984},{"duration":0.11999999999997613,"midi":48,"time":215.4,"velocity":0.31496062992125984},{"duration":0.11999999999997613,"midi":67,"time":215.4,"velocity":0.31496062992125984},{"duration":0.12000000000000455,"midi":55,"time":215.64,"velocity":0.31496062992125984},{"duration":0.2400000000000091,"midi":48,"time":215.76,"velocity":0.31496062992125984},{"duration":0.12000000000000455,"midi":48,"time":216,"velocity":0.31496062992125984},{"duration":0.11999999999997613,"midi":60,"time":216.12,"velocity":0.31496062992125984},{"duration":0.12000000000000455,"midi":55,"time":216.23999999999998,"velocity":0.31496062992125984},{"duration":0.12000000000000455,"midi":48,"time":216.35999999999999,"velocity":0.31496062992125984},{"duration":0.12000000000000455,"midi":60,"time":216.48,"velocity":0.31496062992125984},{"duration":0.12000000000000455,"midi":55,"time":216.6,"velocity":0.31496062992125984},{"duration":0.23999999999998067,"midi":48,"time":216.72,"velocity":0.31496062992125984},{"duration":0.12000000000000455,"midi":50,"time":216.95999999999998,"velocity":0.31496062992125984},{"duration":0.12000000000000455,"midi":60,"time":217.07999999999998,"velocity":0.31496062992125984},{"duration":0.12000000000000455,"midi":57,"time":217.2,"velocity":0.31496062992125984},{"duration":0.12000000000000455,"midi":65,"time":217.32,"velocity":0.31496062992125984},{"duration":0.12000000000000455,"midi":53,"time":217.32,"velocity":0.31496062992125984},{"duration":0.12000000000000455,"midi":67,"time":217.44,"velocity":0.31496062992125984},{"duration":0.11999999999997613,"midi":60,"time":217.56,"velocity":0.31496062992125984},{"duration":0.11999999999997613,"midi":69,"time":217.56,"velocity":0.31496062992125984},{"duration":0.2400000000000091,"midi":50,"time":217.67999999999998,"velocity":0.31496062992125984},{"duration":0.2400000000000091,"midi":67,"time":217.67999999999998,"velocity":0.31496062992125984},{"duration":0.12000000000000455,"midi":50,"time":217.92,"velocity":0.31496062992125984},{"duration":0.12000000000000455,"midi":62,"time":218.04,"velocity":0.31496062992125984},{"duration":0.12000000000000455,"midi":57,"time":218.16,"velocity":0.31496062992125984},{"duration":0.12000000000000455,"midi":50,"time":218.28,"velocity":0.31496062992125984},{"duration":0.11999999999997613,"midi":62,"time":218.4,"velocity":0.31496062992125984},{"duration":0.12000000000000455,"midi":57,"time":218.51999999999998,"velocity":0.31496062992125984},{"duration":0.2400000000000091,"midi":50,"time":218.64,"velocity":0.31496062992125984},{"duration":0.12000000000000455,"midi":51,"time":218.88,"velocity":0.31496062992125984},{"duration":0.12000000000000455,"midi":63,"time":219,"velocity":0.31496062992125984},{"duration":0.11999999999997613,"midi":58,"time":219.12,"velocity":0.31496062992125984},{"duration":0.12000000000000455,"midi":51,"time":219.23999999999998,"velocity":0.31496062992125984},{"duration":0.12000000000000455,"midi":63,"time":219.35999999999999,"velocity":0.31496062992125984},{"duration":0.12000000000000455,"midi":58,"time":219.48,"velocity":0.31496062992125984},{"duration":0.2400000000000091,"midi":51,"time":219.6,"velocity":0.31496062992125984},{"duration":0.11999999999997613,"midi":53,"time":219.84,"velocity":0.31496062992125984},{"duration":0.12000000000000455,"midi":65,"time":219.95999999999998,"velocity":0.31496062992125984},{"duration":0.12000000000000455,"midi":60,"time":220.07999999999998,"velocity":0.31496062992125984},{"duration":0.12000000000000455,"midi":53,"time":220.2,"velocity":0.31496062992125984},{"duration":0.2400000000000091,"midi":65,"time":220.32,"velocity":0.31496062992125984},{"duration":0.12000000000000455,"midi":55,"time":220.79999999999998,"velocity":0.31496062992125984},{"duration":0.12000000000000455,"midi":67,"time":220.92,"velocity":0.31496062992125984},{"duration":0.12000000000000455,"midi":62,"time":221.04,"velocity":0.31496062992125984},{"duration":0.12000000000000455,"midi":55,"time":221.16,"velocity":0.31496062992125984},{"duration":0.12000000000000455,"midi":67,"time":221.28,"velocity":0.31496062992125984},{"duration":0.11999999999997613,"midi":62,"time":221.4,"velocity":0.31496062992125984},{"duration":0.2400000000000091,"midi":55,"time":221.51999999999998,"velocity":0.31496062992125984},{"duration":0.12000000000000455,"midi":53,"time":221.76,"velocity":0.31496062992125984},{"duration":0.12000000000000455,"midi":65,"time":221.88,"velocity":0.31496062992125984},{"duration":0.12000000000000455,"midi":60,"time":222,"velocity":0.31496062992125984},{"duration":0.12000000000000455,"midi":63,"time":222.72,"velocity":0.29133858267716534},{"duration":0.12000000000000455,"midi":67,"time":222.95999999999998,"velocity":0.29133858267716534},{"duration":0.12000000000000455,"midi":70,"time":222.95999999999998,"velocity":0.29133858267716534},{"duration":0.12000000000000455,"midi":58,"time":223.2,"velocity":0.29133858267716534},{"duration":0.12000000000000455,"midi":67,"time":223.44,"velocity":0.29133858267716534},{"duration":0.12000000000000455,"midi":70,"time":223.44,"velocity":0.29133858267716534},{"duration":0.12000000000000455,"midi":63,"time":223.67999999999998,"velocity":0.29133858267716534},{"duration":0.12000000000000455,"midi":70,"time":223.92,"velocity":0.29133858267716534},{"duration":0.12000000000000455,"midi":67,"time":223.92,"velocity":0.29133858267716534},{"duration":0.12000000000000455,"midi":58,"time":224.16,"velocity":0.29133858267716534},{"duration":0.11999999999997613,"midi":67,"time":224.4,"velocity":0.29133858267716534},{"duration":0.11999999999997613,"midi":70,"time":224.4,"velocity":0.29133858267716534},{"duration":0.12000000000000455,"midi":65,"time":224.64,"velocity":0.29133858267716534},{"duration":0.12000000000000455,"midi":72,"time":224.88,"velocity":0.29133858267716534},{"duration":0.12000000000000455,"midi":69,"time":224.88,"velocity":0.29133858267716534},{"duration":0.11999999999997613,"midi":60,"time":225.12,"velocity":0.29133858267716534},{"duration":0.12000000000000455,"midi":69,"time":225.35999999999999,"velocity":0.29133858267716534},{"duration":0.12000000000000455,"midi":72,"time":225.35999999999999,"velocity":0.29133858267716534},{"duration":0.12000000000000455,"midi":65,"time":225.6,"velocity":0.29133858267716534},{"duration":0.11999999999997613,"midi":69,"time":225.84,"velocity":0.29133858267716534},{"duration":0.11999999999997613,"midi":72,"time":225.84,"velocity":0.29133858267716534},{"duration":0.12000000000000455,"midi":60,"time":226.07999999999998,"velocity":0.29133858267716534},{"duration":0.12000000000000455,"midi":69,"time":226.32,"velocity":0.29133858267716534},{"duration":0.12000000000000455,"midi":72,"time":226.32,"velocity":0.29133858267716534},{"duration":0.11999999999997613,"midi":67,"time":226.56,"velocity":0.29133858267716534},{"duration":0.12000000000000455,"midi":74,"time":226.79999999999998,"velocity":0.29133858267716534},{"duration":0.12000000000000455,"midi":70,"time":226.79999999999998,"velocity":0.29133858267716534},{"duration":0.12000000000000455,"midi":62,"time":227.04,"velocity":0.29133858267716534},{"duration":0.12000000000000455,"midi":74,"time":227.28,"velocity":0.29133858267716534},{"duration":0.12000000000000455,"midi":70,"time":227.28,"velocity":0.29133858267716534},{"duration":0.12000000000000455,"midi":67,"time":227.51999999999998,"velocity":0.29133858267716534},{"duration":0.12000000000000455,"midi":74,"time":227.76,"velocity":0.29133858267716534},{"duration":0.12000000000000455,"midi":70,"time":227.76,"velocity":0.29133858267716534},{"duration":0.12000000000000455,"midi":62,"time":228,"velocity":0.29133858267716534},{"duration":0.12000000000000455,"midi":74,"time":228.23999999999998,"velocity":0.29133858267716534},{"duration":0.12000000000000455,"midi":70,"time":228.23999999999998,"velocity":0.29133858267716534},{"duration":0.12000000000000455,"midi":62,"time":228.48,"velocity":0.29133858267716534},{"duration":0.12000000000000455,"midi":72,"time":228.72,"velocity":0.29133858267716534},{"duration":0.12000000000000455,"midi":69,"time":228.72,"velocity":0.29133858267716534},{"duration":0.12000000000000455,"midi":65,"time":228.95999999999998,"velocity":0.29133858267716534},{"duration":0.12000000000000455,"midi":72,"time":229.2,"velocity":0.29133858267716534},{"duration":0.12000000000000455,"midi":69,"time":229.2,"velocity":0.29133858267716534},{"duration":0.12000000000000455,"midi":62,"time":229.44,"velocity":0.29133858267716534},{"duration":0.12000000000000455,"midi":72,"time":229.67999999999998,"velocity":0.29133858267716534},{"duration":0.12000000000000455,"midi":69,"time":229.67999999999998,"velocity":0.29133858267716534},{"duration":0.12000000000000455,"midi":65,"time":229.92,"velocity":0.29133858267716534},{"duration":0.12000000000000455,"midi":69,"time":230.16,"velocity":0.29133858267716534},{"duration":0.12000000000000455,"midi":72,"time":230.16,"velocity":0.29133858267716534},{"duration":0.12000000000000455,"midi":63,"time":230.39999999999998,"velocity":0.29133858267716534},{"duration":0.12000000000000455,"midi":70,"time":230.64,"velocity":0.29133858267716534},{"duration":0.12000000000000455,"midi":67,"time":230.64,"velocity":0.29133858267716534},{"duration":0.12000000000000455,"midi":58,"time":230.88,"velocity":0.29133858267716534},{"duration":0.11999999999997613,"midi":67,"time":231.12,"velocity":0.29133858267716534},{"duration":0.11999999999997613,"midi":70,"time":231.12,"velocity":0.29133858267716534},{"duration":0.12000000000000455,"midi":63,"time":231.35999999999999,"velocity":0.29133858267716534},{"duration":0.12000000000000455,"midi":67,"time":231.6,"velocity":0.29133858267716534},{"duration":0.12000000000000455,"midi":70,"time":231.6,"velocity":0.29133858267716534},{"duration":0.11999999999997613,"midi":58,"time":231.84,"velocity":0.29133858267716534},{"duration":0.12000000000000455,"midi":70,"time":232.07999999999998,"velocity":0.29133858267716534},{"duration":0.12000000000000455,"midi":67,"time":232.07999999999998,"velocity":0.29133858267716534},{"duration":0.12000000000000455,"midi":65,"time":232.32,"velocity":0.29133858267716534},{"duration":0.11999999999997613,"midi":72,"time":232.56,"velocity":0.29133858267716534},{"duration":0.11999999999997613,"midi":69,"time":232.56,"velocity":0.29133858267716534},{"duration":0.12000000000000455,"midi":60,"time":232.79999999999998,"velocity":0.29133858267716534},{"duration":0.12000000000000455,"midi":72,"time":233.04,"velocity":0.29133858267716534},{"duration":0.12000000000000455,"midi":69,"time":233.04,"velocity":0.29133858267716534},{"duration":0.11999999999997613,"midi":65,"time":233.28,"velocity":0.29133858267716534},{"duration":0.12000000000000455,"midi":69,"time":233.51999999999998,"velocity":0.29133858267716534},{"duration":0.12000000000000455,"midi":72,"time":233.51999999999998,"velocity":0.29133858267716534},{"duration":0.12000000000000455,"midi":60,"time":233.76,"velocity":0.29133858267716534},{"duration":0.12000000000000455,"midi":72,"time":234,"velocity":0.29133858267716534},{"duration":0.12000000000000455,"midi":69,"time":234,"velocity":0.29133858267716534},{"duration":0.12000000000000455,"midi":70,"time":234.23999999999998,"velocity":0.29133858267716534},{"duration":0.12000000000000455,"midi":77,"time":234.48,"velocity":0.29133858267716534},{"duration":0.12000000000000455,"midi":74,"time":234.48,"velocity":0.29133858267716534},{"duration":0.12000000000000455,"midi":65,"time":234.72,"velocity":0.29133858267716534},{"duration":0.12000000000000455,"midi":77,"time":234.95999999999998,"velocity":0.29133858267716534},{"duration":0.12000000000000455,"midi":74,"time":234.95999999999998,"velocity":0.29133858267716534},{"duration":0.12000000000000455,"midi":70,"time":235.2,"velocity":0.29133858267716534},{"duration":0.12000000000000455,"midi":74,"time":235.44,"velocity":0.29133858267716534},{"duration":0.12000000000000455,"midi":77,"time":235.44,"velocity":0.29133858267716534},{"duration":0.12000000000000455,"midi":65,"time":235.67999999999998,"velocity":0.29133858267716534},{"duration":0.12000000000000455,"midi":74,"time":235.92,"velocity":0.29133858267716534},{"duration":0.12000000000000455,"midi":77,"time":235.92,"velocity":0.29133858267716534},{"duration":0.12000000000000455,"midi":69,"time":236.16,"velocity":0.29133858267716534},{"duration":0.12000000000000455,"midi":72,"time":236.16,"velocity":0.29133858267716534},{"duration":0.12000000000000455,"midi":51,"time":238.07999999999998,"velocity":0.31496062992125984},{"duration":0.12000000000000455,"midi":58,"time":238.32,"velocity":0.31496062992125984},{"duration":0.12000000000000455,"midi":55,"time":238.32,"velocity":0.31496062992125984},{"duration":0.11999999999997613,"midi":51,"time":238.56,"velocity":0.31496062992125984},{"duration":0.12000000000000455,"midi":55,"time":238.79999999999998,"velocity":0.31496062992125984},{"duration":0.12000000000000455,"midi":58,"time":238.79999999999998,"velocity":0.31496062992125984},{"duration":0.12000000000000455,"midi":51,"time":239.04,"velocity":0.31496062992125984},{"duration":0.11999999999997613,"midi":58,"time":239.28,"velocity":0.31496062992125984},{"duration":0.11999999999997613,"midi":55,"time":239.28,"velocity":0.31496062992125984},{"duration":0.12000000000000455,"midi":51,"time":239.51999999999998,"velocity":0.31496062992125984},{"duration":0.12000000000000455,"midi":55,"time":239.76,"velocity":0.31496062992125984},{"duration":0.12000000000000455,"midi":58,"time":239.76,"velocity":0.31496062992125984},{"duration":0.12000000000000455,"midi":53,"time":240,"velocity":0.31496062992125984},{"duration":0.12000000000000455,"midi":57,"time":240.23999999999998,"velocity":0.31496062992125984},{"duration":0.12000000000000455,"midi":60,"time":240.23999999999998,"velocity":0.31496062992125984},{"duration":0.12000000000000455,"midi":53,"time":240.48,"velocity":0.31496062992125984},{"duration":0.12000000000000455,"midi":57,"time":240.72,"velocity":0.31496062992125984},{"duration":0.12000000000000455,"midi":60,"time":240.72,"velocity":0.31496062992125984},{"duration":0.12000000000000455,"midi":53,"time":240.95999999999998,"velocity":0.31496062992125984},{"duration":0.12000000000000455,"midi":57,"time":241.2,"velocity":0.31496062992125984},{"duration":0.12000000000000455,"midi":60,"time":241.2,"velocity":0.31496062992125984},{"duration":0.12000000000000455,"midi":53,"time":241.44,"velocity":0.31496062992125984},{"duration":0.12000000000000455,"midi":57,"time":241.67999999999998,"velocity":0.31496062992125984},{"duration":0.12000000000000455,"midi":60,"time":241.67999999999998,"velocity":0.31496062992125984},{"duration":0.12000000000000455,"midi":55,"time":241.92,"velocity":0.31496062992125984},{"duration":0.12000000000000455,"midi":62,"time":242.16,"velocity":0.31496062992125984},{"duration":0.12000000000000455,"midi":58,"time":242.16,"velocity":0.31496062992125984},{"duration":0.12000000000000455,"midi":55,"time":242.39999999999998,"velocity":0.31496062992125984},{"duration":0.12000000000000455,"midi":62,"time":242.64,"velocity":0.31496062992125984},{"duration":0.12000000000000455,"midi":58,"time":242.64,"velocity":0.31496062992125984},{"duration":0.12000000000000455,"midi":55,"time":242.88,"velocity":0.31496062992125984},{"duration":0.11999999999997613,"midi":58,"time":243.12,"velocity":0.31496062992125984},{"duration":0.11999999999997613,"midi":62,"time":243.12,"velocity":0.31496062992125984},{"duration":0.12000000000000455,"midi":55,"time":243.35999999999999,"velocity":0.31496062992125984},{"duration":0.12000000000000455,"midi":62,"time":243.6,"velocity":0.31496062992125984},{"duration":0.12000000000000455,"midi":58,"time":243.6,"velocity":0.31496062992125984},{"duration":0.11999999999997613,"midi":53,"time":243.84,"velocity":0.31496062992125984},{"duration":0.12000000000000455,"midi":60,"time":244.07999999999998,"velocity":0.31496062992125984},{"duration":0.12000000000000455,"midi":57,"time":244.07999999999998,"velocity":0.31496062992125984},{"duration":0.12000000000000455,"midi":53,"time":244.32,"velocity":0.31496062992125984},{"duration":0.11999999999997613,"midi":60,"time":244.56,"velocity":0.31496062992125984},{"duration":0.11999999999997613,"midi":57,"time":244.56,"velocity":0.31496062992125984},{"duration":0.12000000000000455,"midi":53,"time":244.79999999999998,"velocity":0.31496062992125984},{"duration":0.2400000000000091,"midi":60,"time":245.04,"velocity":0.31496062992125984},{"duration":0.23999999999998067,"midi":57,"time":245.28,"velocity":0.31496062992125984},{"duration":0.2400000000000091,"midi":60,"time":245.51999999999998,"velocity":0.31496062992125984},{"duration":0.12000000000000455,"midi":51,"time":245.76,"velocity":0.31496062992125984},{"duration":0.12000000000000455,"midi":55,"time":246,"velocity":0.31496062992125984},{"duration":0.12000000000000455,"midi":58,"time":246,"velocity":0.31496062992125984},{"duration":0.12000000000000455,"midi":51,"time":246.23999999999998,"velocity":0.31496062992125984},{"duration":0.12000000000000455,"midi":58,"time":246.48,"velocity":0.31496062992125984},{"duration":0.12000000000000455,"midi":55,"time":246.48,"velocity":0.31496062992125984},{"duration":0.12000000000000455,"midi":51,"time":246.72,"velocity":0.31496062992125984},{"duration":0.12000000000000455,"midi":58,"time":246.95999999999998,"velocity":0.31496062992125984},{"duration":0.12000000000000455,"midi":55,"time":246.95999999999998,"velocity":0.31496062992125984},{"duration":0.12000000000000455,"midi":51,"time":247.2,"velocity":0.31496062992125984},{"duration":0.12000000000000455,"midi":55,"time":247.44,"velocity":0.31496062992125984},{"duration":0.12000000000000455,"midi":58,"time":247.44,"velocity":0.31496062992125984},{"duration":0.12000000000000455,"midi":53,"time":247.67999999999998,"velocity":0.31496062992125984},{"duration":0.12000000000000455,"midi":57,"time":247.92,"velocity":0.31496062992125984},{"duration":0.12000000000000455,"midi":60,"time":247.92,"velocity":0.31496062992125984},{"duration":0.12000000000000455,"midi":53,"time":248.16,"velocity":0.31496062992125984},{"duration":0.12000000000000455,"midi":60,"time":248.39999999999998,"velocity":0.31496062992125984},{"duration":0.12000000000000455,"midi":57,"time":248.39999999999998,"velocity":0.31496062992125984},{"duration":0.12000000000000455,"midi":53,"time":248.64,"velocity":0.31496062992125984},{"duration":0.12000000000000455,"midi":57,"time":248.88,"velocity":0.31496062992125984},{"duration":0.12000000000000455,"midi":60,"time":248.88,"velocity":0.31496062992125984},{"duration":0.23999999999998067,"midi":53,"time":249.12,"velocity":0.31496062992125984},{"duration":0.2400000000000091,"midi":57,"time":249.35999999999999,"velocity":0.31496062992125984},{"duration":0.12000000000000455,"midi":48,"time":249.6,"velocity":0.31496062992125984},{"duration":0.11999999999997613,"midi":58,"time":249.84,"velocity":0.31496062992125984},{"duration":0.11999999999997613,"midi":55,"time":249.84,"velocity":0.31496062992125984},{"duration":0.12000000000000455,"midi":48,"time":250.07999999999998,"velocity":0.31496062992125984},{"duration":0.12000000000000455,"midi":55,"time":250.32,"velocity":0.31496062992125984},{"duration":0.12000000000000455,"midi":58,"time":250.32,"velocity":0.31496062992125984},{"duration":0.23999999999998067,"midi":53,"time":250.56,"velocity":0.31496062992125984},{"duration":0.2400000000000091,"midi":60,"time":250.79999999999998,"velocity":0.31496062992125984},{"duration":0.3599999999999852,"midi":65,"time":251.04,"velocity":0.31496062992125984},{"duration":0.12000000000000455,"midi":63,"time":251.39999999999998,"velocity":0.31496062992125984},{"duration":0.12000000000000455,"midi":50,"time":251.51999999999998,"velocity":0.31496062992125984},{"duration":0.12000000000000455,"midi":62,"time":251.51999999999998,"velocity":0.31496062992125984},{"duration":0.12000000000000455,"midi":62,"time":251.76,"velocity":0.31496062992125984},{"duration":0.12000000000000455,"midi":58,"time":251.76,"velocity":0.31496062992125984},{"duration":0.12000000000000455,"midi":50,"time":252,"velocity":0.31496062992125984},{"duration":0.12000000000000455,"midi":62,"time":252.23999999999998,"velocity":0.31496062992125984},{"duration":0.12000000000000455,"midi":58,"time":252.23999999999998,"velocity":0.31496062992125984},{"duration":0.2400000000000091,"midi":50,"time":252.48,"velocity":0.31496062992125984},{"duration":0.23999999999998067,"midi":60,"time":252.72,"velocity":0.31496062992125984},{"duration":0.2400000000000091,"midi":65,"time":252.95999999999998,"velocity":0.31496062992125984},{"duration":0.2400000000000091,"midi":60,"time":253.2,"velocity":0.31496062992125984},{"duration":0.12000000000000455,"midi":48,"time":253.44,"velocity":0.31496062992125984},{"duration":0.12000000000000455,"midi":51,"time":253.67999999999998,"velocity":0.31496062992125984},{"duration":0.12000000000000455,"midi":55,"time":253.67999999999998,"velocity":0.31496062992125984},{"duration":0.12000000000000455,"midi":48,"time":253.92,"velocity":0.31496062992125984},{"duration":0.12000000000000455,"midi":55,"time":254.16,"velocity":0.31496062992125984},{"duration":0.12000000000000455,"midi":51,"time":254.16,"velocity":0.31496062992125984},{"duration":0.2400000000000091,"midi":53,"time":254.39999999999998,"velocity":0.31496062992125984},{"duration":0.2400000000000091,"midi":60,"time":254.64,"velocity":0.31496062992125984},{"duration":0.3599999999999852,"midi":65,"time":254.88,"velocity":0.31496062992125984},{"duration":0.12000000000000455,"midi":63,"time":255.23999999999998,"velocity":0.31496062992125984},{"duration":0.4800000000000182,"midi":62,"time":255.35999999999999,"velocity":0.31496062992125984},{"duration":0.12000000000000455,"midi":55,"time":255.35999999999999,"velocity":0.31496062992125984},{"duration":0.12000000000000455,"midi":58,"time":255.6,"velocity":0.31496062992125984},{"duration":0.12000000000000455,"midi":65,"time":255.6,"velocity":0.31496062992125984},{"duration":0.11999999999997613,"midi":55,"time":255.84,"velocity":0.31496062992125984},{"duration":0.12000000000000455,"midi":65,"time":256.08,"velocity":0.31496062992125984},{"duration":0.12000000000000455,"midi":58,"time":256.08,"velocity":0.31496062992125984},{"duration":0.2400000000000091,"midi":53,"time":256.32,"velocity":0.31496062992125984},{"duration":0.2400000000000091,"midi":60,"time":256.56,"velocity":0.31496062992125984},{"duration":0.23999999999995225,"midi":53,"time":256.8,"velocity":0.31496062992125984},{"duration":0.2400000000000091,"midi":60,"time":257.03999999999996,"velocity":0.31496062992125984},{"duration":0.1199999999999477,"midi":81,"time":259.92,"velocity":0.31496062992125984},{"duration":0.1199999999999477,"midi":74,"time":259.92,"velocity":0.31496062992125984},{"duration":0.12000000000000455,"midi":66,"time":260.15999999999997,"velocity":0.33858267716535434},{"duration":0.12000000000000455,"midi":74,"time":260.15999999999997,"velocity":0.33858267716535434},{"duration":0.12000000000000455,"midi":63,"time":260.4,"velocity":0.33858267716535434},{"duration":0.12000000000000455,"midi":72,"time":260.4,"velocity":0.33858267716535434},{"duration":0.12000000000000455,"midi":74,"time":260.46,"velocity":0.33858267716535434},{"duration":0.12000000000000455,"midi":66,"time":260.46,"velocity":0.33858267716535434},{"duration":0.12000000000000455,"midi":72,"time":260.52,"velocity":0.33858267716535434},{"duration":0.12000000000000455,"midi":63,"time":260.52,"velocity":0.33858267716535434},{"duration":0.2400000000000091,"midi":62,"time":260.64,"velocity":0.33858267716535434},{"duration":0.2400000000000091,"midi":70,"time":260.64,"velocity":0.33858267716535434},{"duration":0.2400000000000091,"midi":72,"time":260.88,"velocity":0.33858267716535434},{"duration":0.2400000000000091,"midi":63,"time":260.88,"velocity":0.33858267716535434},{"duration":0.12000000000000455,"midi":55,"time":261.12,"velocity":0.2677165354330709},{"duration":0.12000000000000455,"midi":67,"time":261.24,"velocity":0.2677165354330709},{"duration":0.12000000000000455,"midi":62,"time":261.36,"velocity":0.2677165354330709},{"duration":0.1199999999999477,"midi":55,"time":261.48,"velocity":0.2677165354330709},{"duration":0.12000000000000455,"midi":67,"time":261.59999999999997,"velocity":0.2677165354330709},{"duration":0.12000000000000455,"midi":62,"time":261.71999999999997,"velocity":0.2677165354330709},{"duration":0.12000000000000455,"midi":55,"time":262.08,"velocity":0.2677165354330709},{"duration":0.12000000000000455,"midi":67,"time":262.2,"velocity":0.2677165354330709},{"duration":0.12000000000000455,"midi":62,"time":262.32,"velocity":0.2677165354330709},{"duration":0.12000000000000455,"midi":55,"time":262.44,"velocity":0.2677165354330709},{"duration":0.12000000000000455,"midi":67,"time":262.56,"velocity":0.2677165354330709},{"duration":0.12000000000000455,"midi":62,"time":262.68,"velocity":0.2677165354330709},{"duration":0.12000000000000455,"midi":55,"time":263.03999999999996,"velocity":0.2677165354330709},{"duration":0.12000000000000455,"midi":67,"time":263.15999999999997,"velocity":0.2677165354330709},{"duration":0.12000000000000455,"midi":62,"time":263.28,"velocity":0.2677165354330709},{"duration":0.12000000000000455,"midi":55,"time":263.4,"velocity":0.2677165354330709},{"duration":0.12000000000000455,"midi":67,"time":263.52,"velocity":0.2677165354330709},{"duration":0.12000000000000455,"midi":62,"time":263.64,"velocity":0.2677165354330709},{"duration":0.12000000000000455,"midi":55,"time":264,"velocity":0.2677165354330709},{"duration":0.12000000000000455,"midi":67,"time":264.12,"velocity":0.2677165354330709},{"duration":0.12000000000000455,"midi":62,"time":264.24,"velocity":0.2677165354330709},{"duration":0.12000000000000455,"midi":60,"time":264.36,"velocity":0.2677165354330709},{"duration":0.1199999999999477,"midi":53,"time":264.48,"velocity":0.2677165354330709},{"duration":0.12000000000000455,"midi":60,"time":264.59999999999997,"velocity":0.2677165354330709},{"duration":0.2400000000000091,"midi":53,"time":264.71999999999997,"velocity":0.2677165354330709},{"duration":0.12000000000000455,"midi":55,"time":264.96,"velocity":0.2677165354330709},{"duration":0.12000000000000455,"midi":67,"time":265.08,"velocity":0.2677165354330709},{"duration":0.12000000000000455,"midi":62,"time":265.2,"velocity":0.2677165354330709},{"duration":0.12000000000000455,"midi":55,"time":265.32,"velocity":0.2677165354330709},{"duration":0.12000000000000455,"midi":67,"time":265.44,"velocity":0.2677165354330709},{"duration":0.12000000000000455,"midi":62,"time":265.56,"velocity":0.2677165354330709},{"duration":0.1199999999999477,"midi":55,"time":265.92,"velocity":0.2677165354330709},{"duration":0.12000000000000455,"midi":67,"time":266.03999999999996,"velocity":0.2677165354330709},{"duration":0.12000000000000455,"midi":62,"time":266.15999999999997,"velocity":0.2677165354330709},{"duration":0.12000000000000455,"midi":55,"time":266.28,"velocity":0.2677165354330709},{"duration":0.12000000000000455,"midi":67,"time":266.4,"velocity":0.2677165354330709},{"duration":0.12000000000000455,"midi":62,"time":266.52,"velocity":0.2677165354330709},{"duration":0.12000000000000455,"midi":55,"time":266.88,"velocity":0.2677165354330709},{"duration":0.12000000000000455,"midi":67,"time":267,"velocity":0.2677165354330709},{"duration":0.12000000000000455,"midi":62,"time":267.12,"velocity":0.2677165354330709},{"duration":0.12000000000000455,"midi":55,"time":267.24,"velocity":0.2677165354330709},{"duration":0.12000000000000455,"midi":67,"time":267.36,"velocity":0.2677165354330709},{"duration":0.1199999999999477,"midi":62,"time":267.48,"velocity":0.2677165354330709},{"duration":0.12000000000000455,"midi":55,"time":267.84,"velocity":0.2677165354330709},{"duration":0.12000000000000455,"midi":67,"time":267.96,"velocity":0.2677165354330709},{"duration":0.12000000000000455,"midi":62,"time":268.08,"velocity":0.2677165354330709},{"duration":0.12000000000000455,"midi":60,"time":268.2,"velocity":0.2677165354330709},{"duration":0.12000000000000455,"midi":53,"time":268.32,"velocity":0.2677165354330709},{"duration":0.12000000000000455,"midi":60,"time":268.44,"velocity":0.2677165354330709},{"duration":0.2400000000000091,"midi":53,"time":268.56,"velocity":0.2677165354330709},{"duration":0.12000000000000455,"midi":51,"time":268.8,"velocity":0.2677165354330709},{"duration":0.1199999999999477,"midi":63,"time":268.92,"velocity":0.2677165354330709},{"duration":0.12000000000000455,"midi":58,"time":269.03999999999996,"velocity":0.2677165354330709},{"duration":0.12000000000000455,"midi":51,"time":269.15999999999997,"velocity":0.2677165354330709},{"duration":0.12000000000000455,"midi":63,"time":269.28,"velocity":0.2677165354330709},{"duration":0.12000000000000455,"midi":58,"time":269.4,"velocity":0.2677165354330709},{"duration":0.12000000000000455,"midi":51,"time":269.76,"velocity":0.2677165354330709},{"duration":0.12000000000000455,"midi":63,"time":269.88,"velocity":0.2677165354330709},{"duration":0.12000000000000455,"midi":58,"time":270,"velocity":0.2677165354330709},{"duration":0.12000000000000455,"midi":51,"time":270.12,"velocity":0.2677165354330709},{"duration":0.12000000000000455,"midi":63,"time":270.24,"velocity":0.2677165354330709},{"duration":0.12000000000000455,"midi":58,"time":270.36,"velocity":0.2677165354330709},{"duration":0.12000000000000455,"midi":51,"time":270.71999999999997,"velocity":0.2677165354330709},{"duration":0.12000000000000455,"midi":63,"time":270.84,"velocity":0.2677165354330709},{"duration":0.12000000000000455,"midi":58,"time":270.96,"velocity":0.2677165354330709},{"duration":0.12000000000000455,"midi":51,"time":271.08,"velocity":0.2677165354330709},{"duration":0.12000000000000455,"midi":63,"time":271.2,"velocity":0.2677165354330709},{"duration":0.12000000000000455,"midi":58,"time":271.32,"velocity":0.2677165354330709},{"duration":0.12000000000000455,"midi":51,"time":271.68,"velocity":0.2677165354330709},{"duration":0.12000000000000455,"midi":63,"time":271.8,"velocity":0.2677165354330709},{"duration":0.1199999999999477,"midi":58,"time":271.92,"velocity":0.2677165354330709},{"duration":0.12000000000000455,"midi":51,"time":272.03999999999996,"velocity":0.2677165354330709},{"duration":0.12000000000000455,"midi":53,"time":272.15999999999997,"velocity":0.2677165354330709},{"duration":0.12000000000000455,"midi":60,"time":272.28,"velocity":0.2677165354330709},{"duration":0.2400000000000091,"midi":53,"time":272.4,"velocity":0.2677165354330709},{"duration":0.12000000000000455,"midi":51,"time":272.64,"velocity":0.2677165354330709},{"duration":0.12000000000000455,"midi":63,"time":272.76,"velocity":0.2677165354330709},{"duration":0.12000000000000455,"midi":58,"time":272.88,"velocity":0.2677165354330709},{"duration":0.12000000000000455,"midi":51,"time":273,"velocity":0.2677165354330709},{"duration":0.12000000000000455,"midi":63,"time":273.12,"velocity":0.2677165354330709},{"duration":0.12000000000000455,"midi":58,"time":273.24,"velocity":0.2677165354330709},{"duration":0.12000000000000455,"midi":51,"time":273.59999999999997,"velocity":0.2677165354330709},{"duration":0.12000000000000455,"midi":63,"time":273.71999999999997,"velocity":0.2677165354330709},{"duration":0.12000000000000455,"midi":58,"time":273.84,"velocity":0.2677165354330709},{"duration":0.12000000000000455,"midi":51,"time":273.96,"velocity":0.2677165354330709},{"duration":0.12000000000000455,"midi":63,"time":274.08,"velocity":0.2677165354330709},{"duration":0.12000000000000455,"midi":58,"time":274.2,"velocity":0.2677165354330709},{"duration":0.12000000000000455,"midi":51,"time":274.56,"velocity":0.2677165354330709},{"duration":0.12000000000000455,"midi":63,"time":274.68,"velocity":0.2677165354330709},{"duration":0.12000000000000455,"midi":58,"time":274.8,"velocity":0.2677165354330709},{"duration":0.1199999999999477,"midi":51,"time":274.92,"velocity":0.2677165354330709},{"duration":0.12000000000000455,"midi":63,"time":275.03999999999996,"velocity":0.2677165354330709},{"duration":0.12000000000000455,"midi":58,"time":275.15999999999997,"velocity":0.2677165354330709},{"duration":0.12000000000000455,"midi":51,"time":275.52,"velocity":0.2677165354330709},{"duration":0.12000000000000455,"midi":63,"time":275.64,"velocity":0.2677165354330709},{"duration":0.12000000000000455,"midi":58,"time":275.76,"velocity":0.2677165354330709},{"duration":0.12000000000000455,"midi":51,"time":275.88,"velocity":0.2677165354330709},{"duration":0.12000000000000455,"midi":53,"time":276,"velocity":0.2677165354330709},{"duration":0.12000000000000455,"midi":60,"time":276.12,"velocity":0.2677165354330709},{"duration":0.2400000000000091,"midi":53,"time":276.24,"velocity":0.2677165354330709},{"duration":0.1199999999999477,"midi":55,"time":276.48,"velocity":0.2677165354330709},{"duration":0.12000000000000455,"midi":67,"time":276.59999999999997,"velocity":0.2677165354330709},{"duration":0.12000000000000455,"midi":62,"time":276.71999999999997,"velocity":0.2677165354330709},{"duration":0.12000000000000455,"midi":55,"time":276.84,"velocity":0.2677165354330709},{"duration":0.12000000000000455,"midi":67,"time":276.96,"velocity":0.2677165354330709},{"duration":0.12000000000000455,"midi":62,"time":277.08,"velocity":0.2677165354330709},{"duration":0.12000000000000455,"midi":55,"time":277.44,"velocity":0.2677165354330709},{"duration":0.12000000000000455,"midi":67,"time":277.56,"velocity":0.2677165354330709},{"duration":0.12000000000000455,"midi":62,"time":277.68,"velocity":0.2677165354330709},{"duration":0.12000000000000455,"midi":55,"time":277.8,"velocity":0.2677165354330709},{"duration":0.1199999999999477,"midi":67,"time":277.92,"velocity":0.2677165354330709},{"duration":0.12000000000000455,"midi":62,"time":278.03999999999996,"velocity":0.2677165354330709},{"duration":0.12000000000000455,"midi":55,"time":278.4,"velocity":0.2677165354330709},{"duration":0.12000000000000455,"midi":67,"time":278.52,"velocity":0.2677165354330709},{"duration":0.12000000000000455,"midi":62,"time":278.64,"velocity":0.2677165354330709},{"duration":0.12000000000000455,"midi":55,"time":278.76,"velocity":0.2677165354330709},{"duration":0.12000000000000455,"midi":67,"time":278.88,"velocity":0.2677165354330709},{"duration":0.12000000000000455,"midi":62,"time":279,"velocity":0.2677165354330709},{"duration":0.1199999999999477,"midi":55,"time":279.36,"velocity":0.2677165354330709},{"duration":0.12000000000000455,"midi":67,"time":279.47999999999996,"velocity":0.2677165354330709},{"duration":0.12000000000000455,"midi":62,"time":279.59999999999997,"velocity":0.2677165354330709},{"duration":0.12000000000000455,"midi":60,"time":279.71999999999997,"velocity":0.2677165354330709},{"duration":0.12000000000000455,"midi":53,"time":279.84,"velocity":0.2677165354330709},{"duration":0.12000000000000455,"midi":60,"time":279.96,"velocity":0.2677165354330709},{"duration":0.2400000000000091,"midi":53,"time":280.08,"velocity":0.2677165354330709},{"duration":0.12000000000000455,"midi":55,"time":280.32,"velocity":0.2677165354330709},{"duration":0.12000000000000455,"midi":67,"time":280.44,"velocity":0.2677165354330709},{"duration":0.12000000000000455,"midi":62,"time":280.56,"velocity":0.2677165354330709},{"duration":0.12000000000000455,"midi":55,"time":280.68,"velocity":0.2677165354330709},{"duration":0.12000000000000455,"midi":67,"time":280.8,"velocity":0.2677165354330709},{"duration":0.1199999999999477,"midi":62,"time":280.92,"velocity":0.2677165354330709},{"duration":0.12000000000000455,"midi":55,"time":281.28,"velocity":0.2677165354330709},{"duration":0.12000000000000455,"midi":67,"time":281.4,"velocity":0.2677165354330709},{"duration":0.12000000000000455,"midi":62,"time":281.52,"velocity":0.2677165354330709},{"duration":0.12000000000000455,"midi":55,"time":281.64,"velocity":0.2677165354330709},{"duration":0.12000000000000455,"midi":67,"time":281.76,"velocity":0.2677165354330709},{"duration":0.12000000000000455,"midi":62,"time":281.88,"velocity":0.2677165354330709},{"duration":0.12000000000000455,"midi":55,"time":282.24,"velocity":0.2677165354330709},{"duration":0.1199999999999477,"midi":67,"time":282.36,"velocity":0.2677165354330709},{"duration":0.12000000000000455,"midi":62,"time":282.47999999999996,"velocity":0.2677165354330709},{"duration":0.12000000000000455,"midi":55,"time":282.59999999999997,"velocity":0.2677165354330709},{"duration":0.12000000000000455,"midi":67,"time":282.71999999999997,"velocity":0.2677165354330709},{"duration":0.12000000000000455,"midi":62,"time":282.84,"velocity":0.2677165354330709},{"duration":0.12000000000000455,"midi":55,"time":283.2,"velocity":0.2677165354330709},{"duration":0.12000000000000455,"midi":67,"time":283.32,"velocity":0.2677165354330709},{"duration":0.12000000000000455,"midi":62,"time":283.44,"velocity":0.2677165354330709},{"duration":0.12000000000000455,"midi":60,"time":283.56,"velocity":0.2677165354330709},{"duration":0.12000000000000455,"midi":53,"time":283.68,"velocity":0.2677165354330709},{"duration":0.12000000000000455,"midi":60,"time":283.8,"velocity":0.2677165354330709},{"duration":0.23999999999995225,"midi":53,"time":283.92,"velocity":0.2677165354330709},{"duration":0.12000000000000455,"midi":51,"time":284.15999999999997,"velocity":0.2677165354330709},{"duration":0.12000000000000455,"midi":63,"time":284.28,"velocity":0.2677165354330709},{"duration":0.12000000000000455,"midi":58,"time":284.4,"velocity":0.2677165354330709},{"duration":0.12000000000000455,"midi":51,"time":284.52,"velocity":0.2677165354330709},{"duration":0.12000000000000455,"midi":63,"time":284.64,"velocity":0.2677165354330709},{"duration":0.12000000000000455,"midi":58,"time":284.76,"velocity":0.2677165354330709},{"duration":0.12000000000000455,"midi":51,"time":285.12,"velocity":0.2677165354330709},{"duration":0.12000000000000455,"midi":63,"time":285.24,"velocity":0.2677165354330709},{"duration":0.1199999999999477,"midi":58,"time":285.36,"velocity":0.2677165354330709},{"duration":0.12000000000000455,"midi":51,"time":285.47999999999996,"velocity":0.2677165354330709},{"duration":0.12000000000000455,"midi":63,"time":285.59999999999997,"velocity":0.2677165354330709},{"duration":0.12000000000000455,"midi":58,"time":285.71999999999997,"velocity":0.2677165354330709},{"duration":0.12000000000000455,"midi":51,"time":286.08,"velocity":0.2677165354330709},{"duration":0.12000000000000455,"midi":63,"time":286.2,"velocity":0.2677165354330709},{"duration":0.12000000000000455,"midi":58,"time":286.32,"velocity":0.2677165354330709},{"duration":0.12000000000000455,"midi":51,"time":286.44,"velocity":0.2677165354330709},{"duration":0.12000000000000455,"midi":63,"time":286.56,"velocity":0.2677165354330709},{"duration":0.12000000000000455,"midi":58,"time":286.68,"velocity":0.2677165354330709},{"duration":0.12000000000000455,"midi":51,"time":287.03999999999996,"velocity":0.2677165354330709},{"duration":0.12000000000000455,"midi":63,"time":287.15999999999997,"velocity":0.2677165354330709},{"duration":0.12000000000000455,"midi":58,"time":287.28,"velocity":0.2677165354330709},{"duration":0.12000000000000455,"midi":51,"time":287.4,"velocity":0.2677165354330709},{"duration":0.12000000000000455,"midi":53,"time":287.52,"velocity":0.2677165354330709},{"duration":0.12000000000000455,"midi":60,"time":287.64,"velocity":0.2677165354330709},{"duration":0.2400000000000091,"midi":53,"time":287.76,"velocity":0.2677165354330709},{"duration":0.12000000000000455,"midi":51,"time":288,"velocity":0.2677165354330709},{"duration":0.12000000000000455,"midi":63,"time":288.12,"velocity":0.2677165354330709},{"duration":0.12000000000000455,"midi":58,"time":288.24,"velocity":0.2677165354330709},{"duration":0.1199999999999477,"midi":51,"time":288.36,"velocity":0.2677165354330709},{"duration":0.12000000000000455,"midi":63,"time":288.47999999999996,"velocity":0.2677165354330709},{"duration":0.12000000000000455,"midi":58,"time":288.59999999999997,"velocity":0.2677165354330709},{"duration":0.12000000000000455,"midi":51,"time":288.96,"velocity":0.2677165354330709},{"duration":0.12000000000000455,"midi":63,"time":289.08,"velocity":0.2677165354330709},{"duration":0.12000000000000455,"midi":58,"time":289.2,"velocity":0.2677165354330709},{"duration":0.12000000000000455,"midi":51,"time":289.32,"velocity":0.2677165354330709},{"duration":0.12000000000000455,"midi":63,"time":289.44,"velocity":0.2677165354330709},{"duration":0.12000000000000455,"midi":58,"time":289.56,"velocity":0.2677165354330709},{"duration":0.1199999999999477,"midi":51,"time":289.92,"velocity":0.2677165354330709},{"duration":0.12000000000000455,"midi":63,"time":290.03999999999996,"velocity":0.2677165354330709},{"duration":0.12000000000000455,"midi":58,"time":290.15999999999997,"velocity":0.2677165354330709},{"duration":0.12000000000000455,"midi":51,"time":290.28,"velocity":0.2677165354330709},{"duration":0.12000000000000455,"midi":63,"time":290.4,"velocity":0.2677165354330709},{"duration":0.12000000000000455,"midi":58,"time":290.52,"velocity":0.2677165354330709},{"duration":0.12000000000000455,"midi":51,"time":290.88,"velocity":0.2677165354330709},{"duration":0.12000000000000455,"midi":63,"time":291,"velocity":0.2677165354330709},{"duration":0.12000000000000455,"midi":58,"time":291.12,"velocity":0.2677165354330709},{"duration":0.12000000000000455,"midi":51,"time":291.24,"velocity":0.2677165354330709},{"duration":0.1199999999999477,"midi":53,"time":291.36,"velocity":0.2677165354330709},{"duration":0.12000000000000455,"midi":60,"time":291.47999999999996,"velocity":0.2677165354330709},{"duration":0.2400000000000091,"midi":53,"time":291.59999999999997,"velocity":0.2677165354330709},{"duration":0.12000000000000455,"midi":48,"time":291.84,"velocity":0.31496062992125984},{"duration":0.12000000000000455,"midi":60,"time":291.96,"velocity":0.31496062992125984},{"duration":0.12000000000000455,"midi":55,"time":292.08,"velocity":0.31496062992125984},{"duration":0.12000000000000455,"midi":48,"time":292.2,"velocity":0.31496062992125984},{"duration":0.12000000000000455,"midi":60,"time":292.32,"velocity":0.31496062992125984},{"duration":0.12000000000000455,"midi":55,"time":292.44,"velocity":0.31496062992125984},{"duration":0.12000000000000455,"midi":55,"time":292.44,"velocity":0.31496062992125984},{"duration":0.2400000000000091,"midi":48,"time":292.56,"velocity":0.31496062992125984},{"duration":0.12000000000000455,"midi":48,"time":292.8,"velocity":0.31496062992125984},{"duration":0.1199999999999477,"midi":60,"time":292.92,"velocity":0.31496062992125984},{"duration":0.12000000000000455,"midi":55,"time":293.03999999999996,"velocity":0.31496062992125984},{"duration":0.12000000000000455,"midi":48,"time":293.15999999999997,"velocity":0.31496062992125984},{"duration":0.12000000000000455,"midi":60,"time":293.28,"velocity":0.31496062992125984},{"duration":0.12000000000000455,"midi":55,"time":293.4,"velocity":0.31496062992125984},{"duration":0.2400000000000091,"midi":48,"time":293.52,"velocity":0.31496062992125984},{"duration":0.12000000000000455,"midi":50,"time":293.76,"velocity":0.31496062992125984},{"duration":0.12000000000000455,"midi":62,"time":293.88,"velocity":0.31496062992125984},{"duration":0.12000000000000455,"midi":57,"time":294,"velocity":0.31496062992125984},{"duration":0.12000000000000455,"midi":50,"time":294.12,"velocity":0.31496062992125984},{"duration":0.12000000000000455,"midi":62,"time":294.24,"velocity":0.31496062992125984},{"duration":0.1199999999999477,"midi":57,"time":294.36,"velocity":0.31496062992125984},{"duration":0.2400000000000091,"midi":50,"time":294.47999999999996,"velocity":0.31496062992125984},{"duration":0.12000000000000455,"midi":55,"time":294.71999999999997,"velocity":0.31496062992125984},{"duration":0.12000000000000455,"midi":67,"time":294.84,"velocity":0.31496062992125984},{"duration":0.12000000000000455,"midi":62,"time":294.96,"velocity":0.31496062992125984},{"duration":0.12000000000000455,"midi":58,"time":295.08,"velocity":0.31496062992125984},{"duration":0.12000000000000455,"midi":53,"time":295.2,"velocity":0.31496062992125984},{"duration":0.12000000000000455,"midi":60,"time":295.32,"velocity":0.31496062992125984},{"duration":0.2400000000000091,"midi":53,"time":295.44,"velocity":0.31496062992125984},{"duration":0.12000000000000455,"midi":51,"time":295.68,"velocity":0.31496062992125984},{"duration":0.12000000000000455,"midi":63,"time":295.8,"velocity":0.31496062992125984},{"duration":0.1199999999999477,"midi":58,"time":295.92,"velocity":0.31496062992125984},{"duration":0.12000000000000455,"midi":51,"time":296.03999999999996,"velocity":0.31496062992125984},{"duration":0.12000000000000455,"midi":63,"time":296.15999999999997,"velocity":0.31496062992125984},{"duration":0.12000000000000455,"midi":58,"time":296.28,"velocity":0.31496062992125984},{"duration":0.2400000000000091,"midi":51,"time":296.4,"velocity":0.31496062992125984},{"duration":0.12000000000000455,"midi":53,"time":296.64,"velocity":0.31496062992125984},{"duration":0.12000000000000455,"midi":65,"time":296.76,"velocity":0.31496062992125984},{"duration":0.12000000000000455,"midi":60,"time":296.88,"velocity":0.31496062992125984},{"duration":0.12000000000000455,"midi":53,"time":297,"velocity":0.31496062992125984},{"duration":0.12000000000000455,"midi":54,"time":297.12,"velocity":0.31496062992125984},{"duration":0.12000000000000455,"midi":66,"time":297.24,"velocity":0.31496062992125984},{"duration":0.23999999999995225,"midi":54,"time":297.36,"velocity":0.31496062992125984},{"duration":0.12000000000000455,"midi":55,"time":297.59999999999997,"velocity":0.31496062992125984},{"duration":0.12000000000000455,"midi":67,"time":297.71999999999997,"velocity":0.31496062992125984},{"duration":0.12000000000000455,"midi":62,"time":297.84,"velocity":0.31496062992125984},{"duration":0.12000000000000455,"midi":55,"time":297.96,"velocity":0.31496062992125984},{"duration":0.12000000000000455,"midi":67,"time":298.08,"velocity":0.31496062992125984},{"duration":0.12000000000000455,"midi":62,"time":298.2,"velocity":0.31496062992125984},{"duration":0.2400000000000091,"midi":55,"time":298.32,"velocity":0.31496062992125984},{"duration":0.12000000000000455,"midi":53,"time":298.56,"velocity":0.31496062992125984},{"duration":0.12000000000000455,"midi":65,"time":298.68,"velocity":0.31496062992125984},{"duration":0.12000000000000455,"midi":60,"time":298.8,"velocity":0.31496062992125984},{"duration":0.1199999999999477,"midi":53,"time":298.92,"velocity":0.31496062992125984},{"duration":0.12000000000000455,"midi":65,"time":299.03999999999996,"velocity":0.31496062992125984},{"duration":0.12000000000000455,"midi":60,"time":299.15999999999997,"velocity":0.31496062992125984},{"duration":0.2400000000000091,"midi":53,"time":299.28,"velocity":0.31496062992125984},{"duration":0.12000000000000455,"midi":48,"time":299.52,"velocity":0.31496062992125984},{"duration":0.12000000000000455,"midi":60,"time":299.64,"velocity":0.31496062992125984},{"duration":0.12000000000000455,"midi":55,"time":299.76,"velocity":0.31496062992125984},{"duration":0.12000000000000455,"midi":48,"time":299.88,"velocity":0.31496062992125984},{"duration":0.12000000000000455,"midi":67,"time":299.88,"velocity":0.31496062992125984},{"duration":0.12000000000000455,"midi":55,"time":300.12,"velocity":0.31496062992125984},{"duration":0.23999999999995225,"midi":48,"time":300.24,"velocity":0.31496062992125984},{"duration":0.12000000000000455,"midi":48,"time":300.47999999999996,"velocity":0.31496062992125984},{"duration":0.12000000000000455,"midi":60,"time":300.59999999999997,"velocity":0.31496062992125984},{"duration":0.12000000000000455,"midi":55,"time":300.71999999999997,"velocity":0.31496062992125984},{"duration":0.12000000000000455,"midi":48,"time":300.84,"velocity":0.31496062992125984},{"duration":0.12000000000000455,"midi":60,"time":300.96,"velocity":0.31496062992125984},{"duration":0.12000000000000455,"midi":55,"time":301.08,"velocity":0.31496062992125984},{"duration":0.2400000000000091,"midi":48,"time":301.2,"velocity":0.31496062992125984},{"duration":0.12000000000000455,"midi":50,"time":301.44,"velocity":0.31496062992125984},{"duration":0.12000000000000455,"midi":60,"time":301.56,"velocity":0.31496062992125984},{"duration":0.12000000000000455,"midi":57,"time":301.68,"velocity":0.31496062992125984},{"duration":0.12000000000000455,"midi":65,"time":301.8,"velocity":0.31496062992125984},{"duration":0.12000000000000455,"midi":53,"time":301.8,"velocity":0.31496062992125984},{"duration":0.1199999999999477,"midi":67,"time":301.92,"velocity":0.31496062992125984},{"duration":0.12000000000000455,"midi":69,"time":302.03999999999996,"velocity":0.31496062992125984},{"duration":0.12000000000000455,"midi":60,"time":302.03999999999996,"velocity":0.31496062992125984},{"duration":0.2400000000000091,"midi":67,"time":302.15999999999997,"velocity":0.31496062992125984},{"duration":0.2400000000000091,"midi":50,"time":302.15999999999997,"velocity":0.31496062992125984},{"duration":0.12000000000000455,"midi":50,"time":302.4,"velocity":0.31496062992125984},{"duration":0.12000000000000455,"midi":62,"time":302.52,"velocity":0.31496062992125984},{"duration":0.12000000000000455,"midi":57,"time":302.64,"velocity":0.31496062992125984},{"duration":0.12000000000000455,"midi":50,"time":302.76,"velocity":0.31496062992125984},{"duration":0.12000000000000455,"midi":62,"time":302.88,"velocity":0.31496062992125984},{"duration":0.12000000000000455,"midi":57,"time":303,"velocity":0.31496062992125984},{"duration":0.2400000000000091,"midi":50,"time":303.12,"velocity":0.31496062992125984},{"duration":0.1199999999999477,"midi":51,"time":303.36,"velocity":0.31496062992125984},{"duration":0.12000000000000455,"midi":63,"time":303.47999999999996,"velocity":0.31496062992125984},{"duration":0.12000000000000455,"midi":58,"time":303.59999999999997,"velocity":0.31496062992125984},{"duration":0.12000000000000455,"midi":51,"time":303.71999999999997,"velocity":0.31496062992125984},{"duration":0.12000000000000455,"midi":63,"time":303.84,"velocity":0.31496062992125984},{"duration":0.12000000000000455,"midi":58,"time":303.96,"velocity":0.31496062992125984},{"duration":0.2400000000000091,"midi":51,"time":304.08,"velocity":0.31496062992125984},{"duration":0.12000000000000455,"midi":53,"time":304.32,"velocity":0.31496062992125984},{"duration":0.12000000000000455,"midi":65,"time":304.44,"velocity":0.31496062992125984},{"duration":0.12000000000000455,"midi":60,"time":304.56,"velocity":0.31496062992125984},{"duration":0.12000000000000455,"midi":53,"time":304.68,"velocity":0.31496062992125984},{"duration":0.23999999999995225,"midi":65,"time":304.8,"velocity":0.31496062992125984},{"duration":0.12000000000000455,"midi":55,"time":305.28,"velocity":0.31496062992125984},{"duration":0.12000000000000455,"midi":67,"time":305.4,"velocity":0.31496062992125984},{"duration":0.12000000000000455,"midi":62,"time":305.52,"velocity":0.31496062992125984},{"duration":0.12000000000000455,"midi":55,"time":305.64,"velocity":0.31496062992125984},{"duration":0.12000000000000455,"midi":67,"time":305.76,"velocity":0.31496062992125984},{"duration":0.12000000000000455,"midi":62,"time":305.88,"velocity":0.31496062992125984},{"duration":0.2400000000000091,"midi":55,"time":306,"velocity":0.31496062992125984},{"duration":0.12000000000000455,"midi":53,"time":306.24,"velocity":0.31496062992125984},{"duration":0.1199999999999477,"midi":65,"time":306.36,"velocity":0.31496062992125984},{"duration":0.12000000000000455,"midi":60,"time":306.47999999999996,"velocity":0.31496062992125984}]}]}
