{"tracks":[{"instrument":{"family":"piano","number":0,"name":"acoustic grand piano"},"notes":[{"duration":0.1578945,"midi":33,"time":0,"velocity":0.23622047244094488},{"duration":0.1578945,"midi":45,"time":0,"velocity":0.4330708661417323},{"duration":0.07894725,"midi":36,"time":0.1578945,"velocity":0.1968503937007874},{"duration":0.07894725,"midi":72,"time":0.1578945,"velocity":0.3937007874015748},{"duration":0.07894725,"midi":84,"time":0.1578945,"velocity":0.11811023622047244},{"duration":0.07894725,"midi":64,"time":0.1578945,"velocity":0.15748031496062992},{"duration":0.07894725,"midi":48,"time":0.1578945,"velocity":0.4330708661417323},{"duration":0.07894725,"midi":76,"time":0.1578945,"velocity":0.3937007874015748},{"duration":0.07894725000000002,"midi":83,"time":0.315789,"velocity":0.11811023622047244},{"duration":0.1578945,"midi":28,"time":0.315789,"velocity":0.23622047244094488},{"duration":0.07894725000000002,"midi":75,"time":0.315789,"velocity":0.3937007874015748},{"duration":0.07894725000000002,"midi":63,"time":0.315789,"velocity":0.15748031496062992},{"duration":0.07894725000000002,"midi":71,"time":0.315789,"velocity":0.3937007874015748},{"duration":0.1578945,"midi":40,"time":0.315789,"velocity":0.4330708661417323},{"duration":0.07894724999999997,"midi":76,"time":0.4736835,"velocity":0.3937007874015748},{"duration":0.07894724999999997,"midi":84,"time":0.4736835,"velocity":0.11811023622047244},{"duration":0.07894724999999997,"midi":64,"time":0.4736835,"velocity":0.15748031496062992},{"duration":0.07894724999999997,"midi":36,"time":0.4736835,"velocity":0.1968503937007874},{"duration":0.07894724999999997,"midi":72,"time":0.4736835,"velocity":0.3937007874015748},{"duration":0.07894724999999997,"midi":48,"time":0.4736835,"velocity":0.4330708661417323},{"duration":0.07894725000000002,"midi":75,"time":0.631578,"velocity":0.3937007874015748},{"duration":0.15789450000000005,"midi":45,"time":0.631578,"velocity":0.4330708661417323},{"duration":0.07894725000000002,"midi":83,"time":0.631578,"velocity":0.11811023622047244},{"duration":0.07894725000000002,"midi":63,"time":0.631578,"velocity":0.15748031496062992},{"duration":0.15789450000000005,"midi":33,"time":0.631578,"velocity":0.23622047244094488},{"duration":0.07894725000000002,"midi":71,"time":0.631578,"velocity":0.3937007874015748},{"duration":0.07894724999999991,"midi":64,"time":0.7894725,"velocity":0.15748031496062992},{"duration":0.07894724999999991,"midi":76,"time":0.7894725,"velocity":0.3937007874015748},{"duration":0.07894724999999991,"midi":36,"time":0.7894725,"velocity":0.1968503937007874},{"duration":0.07894724999999991,"midi":48,"time":0.7894725,"velocity":0.4330708661417323},{"duration":0.07894724999999991,"midi":84,"time":0.7894725,"velocity":0.11811023622047244},{"duration":0.07894724999999991,"midi":72,"time":0.7894725,"velocity":0.3937007874015748},{"duration":0.15789449999999994,"midi":40,"time":0.947367,"velocity":0.4330708661417323},{"duration":0.15789449999999994,"midi":28,"time":0.947367,"velocity":0.23622047244094488},{"duration":0.07894725000000014,"midi":36,"time":1.1052615,"velocity":0.1968503937007874},{"duration":0.07894725000000014,"midi":64,"time":1.1052615,"velocity":0.15748031496062992},{"duration":0.07894725000000014,"midi":48,"time":1.1052615,"velocity":0.4330708661417323},{"duration":0.07894725000000014,"midi":76,"time":1.1052615,"velocity":0.3937007874015748},{"duration":0.07894725000000014,"midi":72,"time":1.1052615,"velocity":0.3937007874015748},{"duration":0.07894725000000014,"midi":84,"time":1.1052615,"velocity":0.11811023622047244},{"duration":0.15789450000000005,"midi":45,"time":1.263156,"velocity":0.4330708661417323},{"duration":0.15789450000000005,"midi":33,"time":1.263156,"velocity":0.23622047244094488},{"duration":0.07894724999999991,"midi":76,"time":1.4210505,"velocity":0.3937007874015748},{"duration":0.07894724999999991,"midi":48,"time":1.4210505,"velocity":0.4330708661417323},{"duration":0.07894724999999991,"midi":64,"time":1.4210505,"velocity":0.15748031496062992},{"duration":0.07894724999999991,"midi":72,"time":1.4210505,"velocity":0.3937007874015748},{"duration":0.07894724999999991,"midi":84,"time":1.4210505,"velocity":0.11811023622047244},{"duration":0.07894724999999991,"midi":36,"time":1.4210505,"velocity":0.1968503937007874},{"duration":0.07894724999999991,"midi":71,"time":1.578945,"velocity":0.3937007874015748},{"duration":0.07894724999999991,"midi":83,"time":1.578945,"velocity":0.11811023622047244},{"duration":0.07894724999999991,"midi":63,"time":1.578945,"velocity":0.15748031496062992},{"duration":0.07894724999999991,"midi":75,"time":1.578945,"velocity":0.3937007874015748},{"duration":0.15789449999999983,"midi":28,"time":1.578945,"velocity":0.23622047244094488},{"duration":0.15789449999999983,"midi":40,"time":1.578945,"velocity":0.4330708661417323},{"duration":0.07894725000000014,"midi":48,"time":1.7368394999999999,"velocity":0.4330708661417323},{"duration":0.07894725000000014,"midi":64,"time":1.7368394999999999,"velocity":0.15748031496062992},{"duration":0.07894725000000014,"midi":36,"time":1.7368394999999999,"velocity":0.1968503937007874},{"duration":0.07894725000000014,"midi":84,"time":1.7368394999999999,"velocity":0.11811023622047244},{"duration":0.07894725000000014,"midi":76,"time":1.7368394999999999,"velocity":0.3937007874015748},{"duration":0.07894725000000014,"midi":72,"time":1.7368394999999999,"velocity":0.3937007874015748},{"duration":0.07894724999999991,"midi":63,"time":1.894734,"velocity":0.15748031496062992},{"duration":0.07894724999999991,"midi":71,"time":1.894734,"velocity":0.3937007874015748},{"duration":0.15789450000000005,"midi":33,"time":1.894734,"velocity":0.23622047244094488},{"duration":0.15789450000000005,"midi":45,"time":1.894734,"velocity":0.4330708661417323},{"duration":0.07894724999999991,"midi":83,"time":1.894734,"velocity":0.11811023622047244},{"duration":0.07894724999999991,"midi":75,"time":1.894734,"velocity":0.3937007874015748},{"duration":0.07894725000000014,"midi":64,"time":2.0526285,"velocity":0.15748031496062992},{"duration":0.07894725000000014,"midi":84,"time":2.0526285,"velocity":0.11811023622047244},{"duration":0.07894725000000014,"midi":36,"time":2.0526285,"velocity":0.1968503937007874},{"duration":0.07894725000000014,"midi":76,"time":2.0526285,"velocity":0.3937007874015748},{"duration":0.07894725000000014,"midi":72,"time":2.0526285,"velocity":0.3937007874015748},{"duration":0.07894725000000014,"midi":48,"time":2.0526285,"velocity":0.4330708661417323},{"duration":0.15789450000000027,"midi":28,"time":2.210523,"velocity":0.23622047244094488},{"duration":0.15789450000000027,"midi":40,"time":2.210523,"velocity":0.4330708661417323},{"duration":0.07894724999999969,"midi":36,"time":2.3684175,"velocity":0.1968503937007874},{"duration":0.07894724999999969,"midi":48,"time":2.3684175,"velocity":0.4330708661417323},{"duration":0.15789449999999983,"midi":29,"time":2.526312,"velocity":0.23622047244094488},{"duration":0.4736834999999999,"midi":72,"time":2.526312,"velocity":0.3937007874015748},{"duration":0.15789449999999983,"midi":41,"time":2.526312,"velocity":0.4330708661417323},{"duration":0.4736834999999999,"midi":65,"time":2.526312,"velocity":0.3937007874015748},{"duration":0.07894725000000014,"midi":44,"time":2.6842064999999997,"velocity":0.4330708661417323},{"duration":0.07894725000000014,"midi":32,"time":2.6842064999999997,"velocity":0.1968503937007874},{"duration":0.15789449999999983,"midi":36,"time":2.842101,"velocity":0.4330708661417323},{"duration":0.15789449999999983,"midi":24,"time":2.842101,"velocity":0.23622047244094488},{"duration":0.4736834999999999,"midi":60,"time":2.9999955,"velocity":0.3937007874015748},{"duration":0.07894725000000014,"midi":32,"time":2.9999955,"velocity":0.1968503937007874},{"duration":0.07894725000000014,"midi":44,"time":2.9999955,"velocity":0.4330708661417323},{"duration":0.4736834999999999,"midi":65,"time":2.9999955,"velocity":0.3937007874015748},{"duration":0.15789449999999983,"midi":41,"time":3.15789,"velocity":0.4330708661417323},{"duration":0.15789449999999983,"midi":29,"time":3.15789,"velocity":0.23622047244094488},{"duration":0.07894725000000014,"midi":44,"time":3.3157845,"velocity":0.4330708661417323},{"duration":0.07894725000000014,"midi":32,"time":3.3157845,"velocity":0.1968503937007874},{"duration":0.3157890000000001,"midi":65,"time":3.4736789999999997,"velocity":0.3937007874015748},{"duration":0.3157890000000001,"midi":68,"time":3.4736789999999997,"velocity":0.3937007874015748},{"duration":0.15789450000000027,"midi":36,"time":3.4736789999999997,"velocity":0.4330708661417323},{"duration":0.15789450000000027,"midi":24,"time":3.4736789999999997,"velocity":0.23622047244094488},{"duration":0.07894724999999969,"midi":44,"time":3.6315735,"velocity":0.4330708661417323},{"duration":0.07894724999999969,"midi":32,"time":3.6315735,"velocity":0.1968503937007874},{"duration":0.3157890000000001,"midi":74,"time":3.789468,"velocity":0.3937007874015748},{"duration":0.15789449999999983,"midi":41,"time":3.789468,"velocity":0.4330708661417323},{"duration":0.15789449999999983,"midi":29,"time":3.789468,"velocity":0.23622047244094488},{"duration":0.3157890000000001,"midi":79,"time":3.789468,"velocity":0.3937007874015748},{"duration":0.07894725000000058,"midi":44,"time":3.9473624999999997,"velocity":0.4330708661417323},{"duration":0.07894725000000058,"midi":32,"time":3.9473624999999997,"velocity":0.1968503937007874},{"duration":0.31578899999999965,"midi":77,"time":4.105257,"velocity":0.3937007874015748},{"duration":0.15789450000000027,"midi":36,"time":4.105257,"velocity":0.4330708661417323},{"duration":0.15789450000000027,"midi":24,"time":4.105257,"velocity":0.23622047244094488},{"duration":0.31578899999999965,"midi":72,"time":4.105257,"velocity":0.3937007874015748},{"duration":0.07894724999999969,"midi":32,"time":4.2631515,"velocity":0.1968503937007874},{"duration":0.07894724999999969,"midi":44,"time":4.2631515,"velocity":0.4330708661417323},{"duration":0.31578900000000054,"midi":67,"time":4.421046,"velocity":0.3937007874015748},{"duration":0.15789450000000027,"midi":31,"time":4.421046,"velocity":0.23622047244094488},{"duration":0.15789450000000027,"midi":43,"time":4.421046,"velocity":0.4330708661417323},{"duration":0.31578900000000054,"midi":72,"time":4.421046,"velocity":0.3937007874015748},{"duration":0.07894724999999969,"midi":32,"time":4.5789405,"velocity":0.1968503937007874},{"duration":0.07894724999999969,"midi":44,"time":4.5789405,"velocity":0.4330708661417323},{"duration":0.31578899999999965,"midi":74,"time":4.736835,"velocity":0.3937007874015748},{"duration":0.31578899999999965,"midi":68,"time":4.736835,"velocity":0.3937007874015748},{"duration":0.15789449999999938,"midi":38,"time":4.736835,"velocity":0.4330708661417323},{"duration":0.15789449999999938,"midi":26,"time":4.736835,"velocity":0.23622047244094488},{"duration":0.07894725000000058,"midi":44,"time":4.8947294999999995,"velocity":0.4330708661417323},{"duration":0.07894725000000058,"midi":32,"time":4.8947294999999995,"velocity":0.1968503937007874},{"duration":0.15789450000000027,"midi":33,"time":5.052624,"velocity":0.23622047244094488},{"duration":0.23684174999999996,"midi":76,"time":5.052624,"velocity":0.3937007874015748},{"duration":2.526312,"midi":69,"time":5.052624,"velocity":0.3937007874015748},{"duration":0.15789450000000027,"midi":45,"time":5.052624,"velocity":0.4330708661417323},{"duration":0.07894724999999969,"midi":64,"time":5.2105185,"velocity":0.15748031496062992},{"duration":0.07894724999999969,"midi":48,"time":5.2105185,"velocity":0.4330708661417323},{"duration":0.07894724999999969,"midi":84,"time":5.2105185,"velocity":0.11811023622047244},{"duration":0.07894724999999969,"midi":36,"time":5.2105185,"velocity":0.1968503937007874},{"duration":0.39473624999999934,"midi":76,"time":5.2105185,"velocity":0.3937007874015748},{"duration":0.07894724999999969,"midi":72,"time":5.2105185,"velocity":0.3937007874015748},{"duration":0.07894725000000058,"midi":63,"time":5.368412999999999,"velocity":0.15748031496062992},{"duration":0.15789450000000027,"midi":28,"time":5.368412999999999,"velocity":0.23622047244094488},{"duration":0.07894725000000058,"midi":75,"time":5.368412999999999,"velocity":0.3937007874015748},{"duration":0.15789450000000027,"midi":40,"time":5.368412999999999,"velocity":0.4330708661417323},{"duration":0.07894725000000058,"midi":83,"time":5.368412999999999,"velocity":0.11811023622047244},{"duration":0.07894725000000058,"midi":71,"time":5.368412999999999,"velocity":0.3937007874015748},{"duration":0.07894724999999969,"midi":72,"time":5.5263075,"velocity":0.3937007874015748},{"duration":0.07894724999999969,"midi":48,"time":5.5263075,"velocity":0.4330708661417323},{"duration":0.07894724999999969,"midi":64,"time":5.5263075,"velocity":0.15748031496062992},{"duration":0.39473625000000023,"midi":76,"time":5.5263075,"velocity":0.3937007874015748},{"duration":0.07894724999999969,"midi":84,"time":5.5263075,"velocity":0.11811023622047244},{"duration":0.07894724999999969,"midi":36,"time":5.5263075,"velocity":0.1968503937007874},{"duration":0.07894724999999969,"midi":63,"time":5.684202,"velocity":0.15748031496062992},{"duration":0.07894724999999969,"midi":75,"time":5.684202,"velocity":0.3937007874015748},{"duration":0.15789449999999938,"midi":33,"time":5.684202,"velocity":0.23622047244094488},{"duration":0.07894724999999969,"midi":71,"time":5.684202,"velocity":0.3937007874015748},{"duration":0.15789449999999938,"midi":45,"time":5.684202,"velocity":0.4330708661417323},{"duration":0.07894724999999969,"midi":83,"time":5.684202,"velocity":0.11811023622047244},{"duration":0.07894725000000058,"midi":48,"time":5.842096499999999,"velocity":0.4330708661417323},{"duration":0.39473625000000023,"midi":76,"time":5.842096499999999,"velocity":0.3937007874015748},{"duration":0.07894725000000058,"midi":84,"time":5.842096499999999,"velocity":0.11811023622047244},{"duration":0.07894725000000058,"midi":64,"time":5.842096499999999,"velocity":0.15748031496062992},{"duration":0.07894725000000058,"midi":36,"time":5.842096499999999,"velocity":0.1968503937007874},{"duration":0.07894725000000058,"midi":72,"time":5.842096499999999,"velocity":0.3937007874015748},{"duration":0.15789450000000027,"midi":40,"time":5.999991,"velocity":0.4330708661417323},{"duration":0.15789450000000027,"midi":28,"time":5.999991,"velocity":0.23622047244094488},{"duration":0.07894724999999969,"midi":48,"time":6.1578855,"velocity":0.4330708661417323},{"duration":0.07894724999999969,"midi":36,"time":6.1578855,"velocity":0.1968503937007874},{"duration":0.07894724999999969,"midi":64,"time":6.1578855,"velocity":0.15748031496062992},{"duration":0.39473625000000023,"midi":76,"time":6.1578855,"velocity":0.3937007874015748},{"duration":0.07894724999999969,"midi":72,"time":6.1578855,"velocity":0.3937007874015748},{"duration":0.07894724999999969,"midi":84,"time":6.1578855,"velocity":0.11811023622047244},{"duration":0.15789449999999938,"midi":45,"time":6.31578,"velocity":0.4330708661417323},{"duration":0.15789449999999938,"midi":33,"time":6.31578,"velocity":0.23622047244094488},{"duration":0.07894725000000058,"midi":64,"time":6.4736744999999996,"velocity":0.15748031496062992},{"duration":0.07894725000000058,"midi":72,"time":6.4736744999999996,"velocity":0.3937007874015748},{"duration":0.07894725000000058,"midi":48,"time":6.4736744999999996,"velocity":0.4330708661417323},{"duration":0.07894725000000058,"midi":84,"time":6.4736744999999996,"velocity":0.11811023622047244},{"duration":0.39473625000000023,"midi":76,"time":6.4736744999999996,"velocity":0.3937007874015748},{"duration":0.07894725000000058,"midi":36,"time":6.4736744999999996,"velocity":0.1968503937007874},{"duration":0.15789450000000027,"midi":40,"time":6.631569,"velocity":0.4330708661417323},{"duration":0.07894724999999969,"midi":83,"time":6.631569,"velocity":0.11811023622047244},{"duration":0.07894724999999969,"midi":75,"time":6.631569,"velocity":0.3937007874015748},{"duration":0.07894724999999969,"midi":63,"time":6.631569,"velocity":0.15748031496062992},{"duration":0.07894724999999969,"midi":71,"time":6.631569,"velocity":0.3937007874015748},{"duration":0.15789450000000027,"midi":28,"time":6.631569,"velocity":0.23622047244094488},{"duration":0.07894724999999969,"midi":36,"time":6.7894635,"velocity":0.1968503937007874},{"duration":0.07894724999999969,"midi":64,"time":6.7894635,"velocity":0.15748031496062992},{"duration":0.39473624999999934,"midi":76,"time":6.7894635,"velocity":0.3937007874015748},{"duration":0.07894724999999969,"midi":48,"time":6.7894635,"velocity":0.4330708661417323},{"duration":0.07894724999999969,"midi":72,"time":6.7894635,"velocity":0.3937007874015748},{"duration":0.07894724999999969,"midi":84,"time":6.7894635,"velocity":0.11811023622047244},{"duration":0.07894725000000058,"midi":75,"time":6.9473579999999995,"velocity":0.3937007874015748},{"duration":0.07894725000000058,"midi":63,"time":6.9473579999999995,"velocity":0.15748031496062992},{"duration":0.07894725000000058,"midi":83,"time":6.9473579999999995,"velocity":0.11811023622047244},{"duration":0.15789450000000027,"midi":33,"time":6.9473579999999995,"velocity":0.23622047244094488},{"duration":0.07894725000000058,"midi":71,"time":6.9473579999999995,"velocity":0.3937007874015748},{"duration":0.15789450000000027,"midi":45,"time":6.9473579999999995,"velocity":0.4330708661417323},{"duration":0.07894724999999969,"midi":36,"time":7.1052525,"velocity":0.1968503937007874},{"duration":0.07894724999999969,"midi":84,"time":7.1052525,"velocity":0.11811023622047244},{"duration":0.4736834999999999,"midi":76,"time":7.1052525,"velocity":0.3937007874015748},{"duration":0.07894724999999969,"midi":72,"time":7.1052525,"velocity":0.3937007874015748},{"duration":0.07894724999999969,"midi":48,"time":7.1052525,"velocity":0.4330708661417323},{"duration":0.07894724999999969,"midi":64,"time":7.1052525,"velocity":0.15748031496062992},{"duration":0.15789449999999938,"midi":40,"time":7.263147,"velocity":0.4330708661417323},{"duration":0.15789449999999938,"midi":28,"time":7.263147,"velocity":0.23622047244094488},{"duration":0.07894725000000058,"midi":36,"time":7.421041499999999,"velocity":0.1968503937007874},{"duration":0.07894725000000058,"midi":48,"time":7.421041499999999,"velocity":0.4330708661417323},{"duration":0.15789450000000027,"midi":53,"time":7.578936,"velocity":0.2677165354330709},{"duration":1.2631559999999995,"midi":41,"time":7.578936,"velocity":0.3937007874015748},{"duration":0.23684174999999996,"midi":60,"time":7.578936,"velocity":0.3937007874015748},{"duration":1.2631559999999995,"midi":29,"time":7.578936,"velocity":0.2677165354330709},{"duration":0.4736835000000008,"midi":72,"time":7.578936,"velocity":0.3937007874015748},{"duration":1.1052614999999992,"midi":41,"time":7.7368305,"velocity":0.3937007874015748},{"duration":0.31578900000000054,"midi":60,"time":7.7368305,"velocity":0.2677165354330709},{"duration":1.1052614999999992,"midi":29,"time":7.7368305,"velocity":0.2677165354330709},{"duration":0.15789450000000116,"midi":48,"time":7.894724999999999,"velocity":0.2677165354330709},{"duration":0.0789472499999988,"midi":60,"time":8.0526195,"velocity":0.2677165354330709},{"duration":0.4736834999999999,"midi":62,"time":8.0526195,"velocity":0.3937007874015748},{"duration":0.4736834999999999,"midi":65,"time":8.0526195,"velocity":0.3937007874015748},{"duration":0.15789449999999938,"midi":53,"time":8.210514,"velocity":0.2677165354330709},{"duration":0.07894725000000058,"midi":60,"time":8.3684085,"velocity":0.2677165354330709},{"duration":0.31578899999999877,"midi":69,"time":8.526303,"velocity":0.3937007874015748},{"duration":0.15789449999999938,"midi":48,"time":8.526303,"velocity":0.2677165354330709},{"duration":0.31578899999999877,"midi":64,"time":8.526303,"velocity":0.3937007874015748},{"duration":0.07894725000000058,"midi":60,"time":8.6841975,"velocity":0.2677165354330709},{"duration":1.2631560000000004,"midi":31,"time":8.842092,"velocity":0.2677165354330709},{"duration":0.4736834999999999,"midi":67,"time":8.842092,"velocity":0.3937007874015748},{"duration":0.15789450000000116,"midi":55,"time":8.842092,"velocity":0.2677165354330709},{"duration":0.4736834999999999,"midi":72,"time":8.842092,"velocity":0.3937007874015748},{"duration":1.2631560000000004,"midi":43,"time":8.842092,"velocity":0.3937007874015748},{"duration":0.4736834999999999,"midi":76,"time":8.842092,"velocity":0.3937007874015748},{"duration":1.1052614999999992,"midi":31,"time":8.9999865,"velocity":0.2677165354330709},{"duration":0.0789472499999988,"midi":62,"time":8.9999865,"velocity":0.2677165354330709},{"duration":1.1052614999999992,"midi":43,"time":8.9999865,"velocity":0.3937007874015748},{"duration":0.15789449999999938,"midi":50,"time":9.157881,"velocity":0.2677165354330709},{"duration":0.07894725000000058,"midi":74,"time":9.315775499999999,"velocity":0.3937007874015748},{"duration":0.07894725000000058,"midi":69,"time":9.315775499999999,"velocity":0.3937007874015748},{"duration":0.07894725000000058,"midi":62,"time":9.315775499999999,"velocity":0.2677165354330709},{"duration":0.07894725000000058,"midi":77,"time":9.315775499999999,"velocity":0.3937007874015748},{"duration":0.07894725000000058,"midi":67,"time":9.39472275,"velocity":0.3937007874015748},{"duration":0.07894725000000058,"midi":72,"time":9.39472275,"velocity":0.3937007874015748},{"duration":0.07894725000000058,"midi":76,"time":9.39472275,"velocity":0.3937007874015748},{"duration":0.6315779999999993,"midi":47,"time":9.47367,"velocity":0.2677165354330709},{"duration":0.4736834999999999,"midi":50,"time":9.47367,"velocity":0.2677165354330709},{"duration":0.6315779999999993,"midi":74,"time":9.47367,"velocity":0.3937007874015748},{"duration":0.6315779999999993,"midi":71,"time":9.47367,"velocity":0.3937007874015748},{"duration":0.6315779999999993,"midi":65,"time":9.47367,"velocity":0.3937007874015748},{"duration":0.15789449999999938,"midi":55,"time":9.47367,"velocity":0.2677165354330709},{"duration":0.07894725000000058,"midi":62,"time":9.6315645,"velocity":0.2677165354330709},{"duration":0.31578900000000054,"midi":50,"time":9.789458999999999,"velocity":0.2677165354330709},{"duration":0.0789472499999988,"midi":62,"time":9.9473535,"velocity":0.2677165354330709},{"duration":0.15789449999999938,"midi":45,"time":10.105248,"velocity":0.4330708661417323},{"duration":0.15789449999999938,"midi":33,"time":10.105248,"velocity":0.23622047244094488},{"duration":0.07894725000000058,"midi":76,"time":10.263142499999999,"velocity":0.3937007874015748},{"duration":0.07894725000000058,"midi":48,"time":10.263142499999999,"velocity":0.4330708661417323},{"duration":0.07894725000000058,"midi":72,"time":10.263142499999999,"velocity":0.3937007874015748},{"duration":0.07894725000000058,"midi":36,"time":10.263142499999999,"velocity":0.1968503937007874},{"duration":0.07894725000000058,"midi":64,"time":10.263142499999999,"velocity":0.15748031496062992},{"duration":0.07894725000000058,"midi":84,"time":10.263142499999999,"velocity":0.11811023622047244},{"duration":0.0789472499999988,"midi":75,"time":10.421037,"velocity":0.3937007874015748},{"duration":0.0789472499999988,"midi":63,"time":10.421037,"velocity":0.15748031496062992},{"duration":0.0789472499999988,"midi":71,"time":10.421037,"velocity":0.3937007874015748},{"duration":0.15789449999999938,"midi":40,"time":10.421037,"velocity":0.4330708661417323},{"duration":0.0789472499999988,"midi":83,"time":10.421037,"velocity":0.11811023622047244},{"duration":0.15789449999999938,"midi":28,"time":10.421037,"velocity":0.23622047244094488},{"duration":0.07894725000000058,"midi":76,"time":10.5789315,"velocity":0.3937007874015748},{"duration":0.07894725000000058,"midi":64,"time":10.5789315,"velocity":0.15748031496062992},{"duration":0.07894725000000058,"midi":36,"time":10.5789315,"velocity":0.1968503937007874},{"duration":0.07894725000000058,"midi":48,"time":10.5789315,"velocity":0.4330708661417323},{"duration":0.07894725000000058,"midi":72,"time":10.5789315,"velocity":0.3937007874015748},{"duration":0.07894725000000058,"midi":84,"time":10.5789315,"velocity":0.11811023622047244},{"duration":0.07894725000000058,"midi":71,"time":10.736825999999999,"velocity":0.3937007874015748},{"duration":0.07894725000000058,"midi":63,"time":10.736825999999999,"velocity":0.15748031496062992},{"duration":0.07894725000000058,"midi":83,"time":10.736825999999999,"velocity":0.11811023622047244},{"duration":0.15789450000000116,"midi":33,"time":10.736825999999999,"velocity":0.23622047244094488},{"duration":0.07894725000000058,"midi":75,"time":10.736825999999999,"velocity":0.3937007874015748},{"duration":0.15789450000000116,"midi":45,"time":10.736825999999999,"velocity":0.4330708661417323},{"duration":0.0789472499999988,"midi":64,"time":10.8947205,"velocity":0.15748031496062992},{"duration":0.0789472499999988,"midi":72,"time":10.8947205,"velocity":0.3937007874015748},{"duration":0.0789472499999988,"midi":76,"time":10.8947205,"velocity":0.3937007874015748},{"duration":0.0789472499999988,"midi":36,"time":10.8947205,"velocity":0.1968503937007874},{"duration":0.0789472499999988,"midi":48,"time":10.8947205,"velocity":0.4330708661417323},{"duration":0.0789472499999988,"midi":84,"time":10.8947205,"velocity":0.11811023622047244},{"duration":0.15789449999999938,"midi":40,"time":11.052615,"velocity":0.4330708661417323},{"duration":0.15789449999999938,"midi":28,"time":11.052615,"velocity":0.23622047244094488},{"duration":0.07894725000000058,"midi":76,"time":11.210509499999999,"velocity":0.3937007874015748},{"duration":0.07894725000000058,"midi":48,"time":11.210509499999999,"velocity":0.4330708661417323},{"duration":0.07894725000000058,"midi":64,"time":11.210509499999999,"velocity":0.15748031496062992},{"duration":0.07894725000000058,"midi":36,"time":11.210509499999999,"velocity":0.1968503937007874},{"duration":0.07894725000000058,"midi":84,"time":11.210509499999999,"velocity":0.11811023622047244},{"duration":0.07894725000000058,"midi":72,"time":11.210509499999999,"velocity":0.3937007874015748},{"duration":0.15789449999999938,"midi":45,"time":11.368404,"velocity":0.4330708661417323},{"duration":0.15789449999999938,"midi":33,"time":11.368404,"velocity":0.23622047244094488},{"duration":0.07894725000000058,"midi":76,"time":11.5262985,"velocity":0.3937007874015748},{"duration":0.07894725000000058,"midi":64,"time":11.5262985,"velocity":0.15748031496062992},{"duration":0.07894725000000058,"midi":72,"time":11.5262985,"velocity":0.3937007874015748},{"duration":0.07894725000000058,"midi":48,"time":11.5262985,"velocity":0.4330708661417323},{"duration":0.07894725000000058,"midi":36,"time":11.5262985,"velocity":0.1968503937007874},{"duration":0.07894725000000058,"midi":84,"time":11.5262985,"velocity":0.11811023622047244},{"duration":0.07894725000000058,"midi":71,"time":11.684192999999999,"velocity":0.3937007874015748},{"duration":0.15789450000000116,"midi":28,"time":11.684192999999999,"velocity":0.23622047244094488},{"duration":0.07894725000000058,"midi":63,"time":11.684192999999999,"velocity":0.15748031496062992},{"duration":0.15789450000000116,"midi":40,"time":11.684192999999999,"velocity":0.4330708661417323},{"duration":0.07894725000000058,"midi":75,"time":11.684192999999999,"velocity":0.3937007874015748},{"duration":0.07894725000000058,"midi":83,"time":11.684192999999999,"velocity":0.11811023622047244},{"duration":0.0789472499999988,"midi":84,"time":11.8420875,"velocity":0.11811023622047244},{"duration":0.0789472499999988,"midi":72,"time":11.8420875,"velocity":0.3937007874015748},{"duration":0.0789472499999988,"midi":76,"time":11.8420875,"velocity":0.3937007874015748},{"duration":0.0789472499999988,"midi":36,"time":11.8420875,"velocity":0.1968503937007874},{"duration":0.0789472499999988,"midi":48,"time":11.8420875,"velocity":0.4330708661417323},{"duration":0.0789472499999988,"midi":64,"time":11.8420875,"velocity":0.15748031496062992},{"duration":0.07894725000000058,"midi":75,"time":11.999982,"velocity":0.3937007874015748},{"duration":0.15789449999999938,"midi":33,"time":11.999982,"velocity":0.23622047244094488},{"duration":0.15789449999999938,"midi":45,"time":11.999982,"velocity":0.4330708661417323},{"duration":0.07894725000000058,"midi":83,"time":11.999982,"velocity":0.11811023622047244},{"duration":0.07894725000000058,"midi":63,"time":11.999982,"velocity":0.15748031496062992},{"duration":0.07894725000000058,"midi":71,"time":11.999982,"velocity":0.3937007874015748},{"duration":0.07894725000000058,"midi":76,"time":12.157876499999999,"velocity":0.3937007874015748},{"duration":0.07894725000000058,"midi":84,"time":12.157876499999999,"velocity":0.11811023622047244},{"duration":0.07894725000000058,"midi":64,"time":12.157876499999999,"velocity":0.15748031496062992},{"duration":0.07894725000000058,"midi":48,"time":12.157876499999999,"velocity":0.4330708661417323},{"duration":0.07894725000000058,"midi":72,"time":12.157876499999999,"velocity":0.3937007874015748},{"duration":0.07894725000000058,"midi":36,"time":12.157876499999999,"velocity":0.1968503937007874},{"duration":0.15789449999999938,"midi":40,"time":12.315771,"velocity":0.4330708661417323},{"duration":0.15789449999999938,"midi":28,"time":12.315771,"velocity":0.23622047244094488},{"duration":0.07894725000000058,"midi":36,"time":12.4736655,"velocity":0.1968503937007874},{"duration":0.07894725000000058,"midi":48,"time":12.4736655,"velocity":0.4330708661417323},{"duration":0.4736834999999999,"midi":65,"time":12.63156,"velocity":0.3937007874015748},{"duration":0.15789449999999938,"midi":41,"time":12.63156,"velocity":0.4330708661417323},{"duration":0.15789449999999938,"midi":29,"time":12.63156,"velocity":0.23622047244094488},{"duration":0.4736834999999999,"midi":72,"time":12.63156,"velocity":0.3937007874015748},{"duration":0.07894725000000058,"midi":44,"time":12.7894545,"velocity":0.4330708661417323},{"duration":0.07894725000000058,"midi":32,"time":12.7894545,"velocity":0.1968503937007874},{"duration":0.15789450000000116,"midi":24,"time":12.947348999999999,"velocity":0.23622047244094488},{"duration":0.15789450000000116,"midi":36,"time":12.947348999999999,"velocity":0.4330708661417323},{"duration":0.0789472499999988,"midi":32,"time":13.1052435,"velocity":0.1968503937007874},{"duration":0.0789472499999988,"midi":44,"time":13.1052435,"velocity":0.4330708661417323},{"duration":0.4736834999999999,"midi":65,"time":13.1052435,"velocity":0.3937007874015748},{"duration":0.4736834999999999,"midi":60,"time":13.1052435,"velocity":0.3937007874015748},{"duration":0.15789449999999938,"midi":41,"time":13.263138,"velocity":0.4330708661417323},{"duration":0.15789449999999938,"midi":29,"time":13.263138,"velocity":0.23622047244094488},{"duration":0.07894725000000058,"midi":44,"time":13.421032499999999,"velocity":0.4330708661417323},{"duration":0.07894725000000058,"midi":32,"time":13.421032499999999,"velocity":0.1968503937007874},{"duration":0.15789449999999938,"midi":36,"time":13.578927,"velocity":0.4330708661417323},{"duration":0.31578899999999877,"midi":68,"time":13.578927,"velocity":0.3937007874015748},{"duration":0.31578899999999877,"midi":65,"time":13.578927,"velocity":0.3937007874015748},{"duration":0.15789449999999938,"midi":24,"time":13.578927,"velocity":0.23622047244094488},{"duration":0.07894725000000058,"midi":44,"time":13.7368215,"velocity":0.4330708661417323},{"duration":0.07894725000000058,"midi":32,"time":13.7368215,"velocity":0.1968503937007874},{"duration":0.15789450000000116,"midi":41,"time":13.894715999999999,"velocity":0.4330708661417323},{"duration":0.31578900000000054,"midi":79,"time":13.894715999999999,"velocity":0.3937007874015748},{"duration":0.15789450000000116,"midi":29,"time":13.894715999999999,"velocity":0.23622047244094488},{"duration":0.31578900000000054,"midi":74,"time":13.894715999999999,"velocity":0.3937007874015748},{"duration":0.0789472499999988,"midi":44,"time":14.0526105,"velocity":0.4330708661417323},{"duration":0.0789472499999988,"midi":32,"time":14.0526105,"velocity":0.1968503937007874},{"duration":0.15789449999999938,"midi":24,"time":14.210505,"velocity":0.23622047244094488},{"duration":0.31578900000000054,"midi":72,"time":14.210505,"velocity":0.3937007874015748},{"duration":0.15789449999999938,"midi":36,"time":14.210505,"velocity":0.4330708661417323},{"duration":0.31578900000000054,"midi":77,"time":14.210505,"velocity":0.3937007874015748},{"duration":0.07894725000000058,"midi":44,"time":14.368399499999999,"velocity":0.4330708661417323},{"duration":0.07894725000000058,"midi":32,"time":14.368399499999999,"velocity":0.1968503937007874},{"duration":0.15789449999999938,"midi":31,"time":14.526294,"velocity":0.23622047244094488},{"duration":0.31578899999999877,"midi":72,"time":14.526294,"velocity":0.3937007874015748},{"duration":0.15789449999999938,"midi":43,"time":14.526294,"velocity":0.4330708661417323},{"duration":0.31578899999999877,"midi":67,"time":14.526294,"velocity":0.3937007874015748},{"duration":0.07894725000000058,"midi":32,"time":14.6841885,"velocity":0.1968503937007874},{"duration":0.07894725000000058,"midi":44,"time":14.6841885,"velocity":0.4330708661417323},{"duration":0.31578900000000054,"midi":68,"time":14.842082999999999,"velocity":0.3937007874015748},{"duration":0.15789450000000116,"midi":38,"time":14.842082999999999,"velocity":0.4330708661417323},{"duration":0.15789450000000116,"midi":26,"time":14.842082999999999,"velocity":0.23622047244094488},{"duration":0.31578900000000054,"midi":74,"time":14.842082999999999,"velocity":0.3937007874015748},{"duration":0.0789472499999988,"midi":44,"time":14.9999775,"velocity":0.4330708661417323},{"duration":0.0789472499999988,"midi":32,"time":14.9999775,"velocity":0.1968503937007874},{"duration":0.15789449999999938,"midi":33,"time":15.157872,"velocity":0.23622047244094488},{"duration":0.23684174999999996,"midi":76,"time":15.157872,"velocity":0.3937007874015748},{"duration":2.526311999999999,"midi":69,"time":15.157872,"velocity":0.3937007874015748},{"duration":0.15789449999999938,"midi":45,"time":15.157872,"velocity":0.4330708661417323},{"duration":0.07894725000000058,"midi":72,"time":15.315766499999999,"velocity":0.3937007874015748},{"duration":0.07894725000000058,"midi":48,"time":15.315766499999999,"velocity":0.4330708661417323},{"duration":0.07894725000000058,"midi":36,"time":15.315766499999999,"velocity":0.1968503937007874},{"duration":0.07894725000000058,"midi":84,"time":15.315766499999999,"velocity":0.11811023622047244},{"duration":0.3947362500000011,"midi":76,"time":15.315766499999999,"velocity":0.3937007874015748},{"duration":0.07894725000000058,"midi":64,"time":15.315766499999999,"velocity":0.15748031496062992},{"duration":0.0789472499999988,"midi":75,"time":15.473661,"velocity":0.3937007874015748},{"duration":0.0789472499999988,"midi":63,"time":15.473661,"velocity":0.15748031496062992},{"duration":0.15789449999999938,"midi":40,"time":15.473661,"velocity":0.4330708661417323},{"duration":0.0789472499999988,"midi":71,"time":15.473661,"velocity":0.3937007874015748},{"duration":0.0789472499999988,"midi":83,"time":15.473661,"velocity":0.11811023622047244},{"duration":0.15789449999999938,"midi":28,"time":15.473661,"velocity":0.23622047244094488},{"duration":0.39473624999999934,"midi":76,"time":15.6315555,"velocity":0.3937007874015748},{"duration":0.07894725000000058,"midi":48,"time":15.6315555,"velocity":0.4330708661417323},{"duration":0.07894725000000058,"midi":84,"time":15.6315555,"velocity":0.11811023622047244},{"duration":0.07894725000000058,"midi":36,"time":15.6315555,"velocity":0.1968503937007874},{"duration":0.07894725000000058,"midi":72,"time":15.6315555,"velocity":0.3937007874015748},{"duration":0.07894725000000058,"midi":64,"time":15.6315555,"velocity":0.15748031496062992},{"duration":0.07894725000000058,"midi":83,"time":15.789449999999999,"velocity":0.11811023622047244},{"duration":0.15789450000000116,"midi":33,"time":15.789449999999999,"velocity":0.23622047244094488},{"duration":0.07894725000000058,"midi":71,"time":15.789449999999999,"velocity":0.3937007874015748},{"duration":0.07894725000000058,"midi":75,"time":15.789449999999999,"velocity":0.3937007874015748},{"duration":0.15789450000000116,"midi":45,"time":15.789449999999999,"velocity":0.4330708661417323},{"duration":0.07894725000000058,"midi":63,"time":15.789449999999999,"velocity":0.15748031496062992},{"duration":0.0789472499999988,"midi":48,"time":15.9473445,"velocity":0.4330708661417323},{"duration":0.0789472499999988,"midi":64,"time":15.9473445,"velocity":0.15748031496062992},{"duration":0.0789472499999988,"midi":84,"time":15.9473445,"velocity":0.11811023622047244},{"duration":0.3947362500000011,"midi":76,"time":15.9473445,"velocity":0.3937007874015748},{"duration":0.0789472499999988,"midi":36,"time":15.9473445,"velocity":0.1968503937007874},{"duration":0.0789472499999988,"midi":72,"time":15.9473445,"velocity":0.3937007874015748},{"duration":0.1578944999999976,"midi":28,"time":16.105239,"velocity":0.23622047244094488},{"duration":0.1578944999999976,"midi":40,"time":16.105239,"velocity":0.4330708661417323},{"duration":0.07894725000000236,"midi":48,"time":16.2631335,"velocity":0.4330708661417323},{"duration":0.07894725000000236,"midi":84,"time":16.2631335,"velocity":0.11811023622047244},{"duration":0.07894725000000236,"midi":64,"time":16.2631335,"velocity":0.15748031496062992},{"duration":0.3947362500000011,"midi":76,"time":16.2631335,"velocity":0.3937007874015748},{"duration":0.07894725000000236,"midi":72,"time":16.2631335,"velocity":0.3937007874015748},{"duration":0.07894725000000236,"midi":36,"time":16.2631335,"velocity":0.1968503937007874},{"duration":0.15789450000000116,"midi":33,"time":16.421028,"velocity":0.23622047244094488},{"duration":0.15789450000000116,"midi":45,"time":16.421028,"velocity":0.4330708661417323},{"duration":0.0789472499999988,"midi":84,"time":16.5789225,"velocity":0.11811023622047244},{"duration":0.0789472499999988,"midi":48,"time":16.5789225,"velocity":0.4330708661417323},{"duration":0.0789472499999988,"midi":72,"time":16.5789225,"velocity":0.3937007874015748},{"duration":0.39473624999999757,"midi":76,"time":16.5789225,"velocity":0.3937007874015748},{"duration":0.0789472499999988,"midi":36,"time":16.5789225,"velocity":0.1968503937007874},{"duration":0.0789472499999988,"midi":64,"time":16.5789225,"velocity":0.15748031496062992},{"duration":0.15789450000000116,"midi":40,"time":16.736817,"velocity":0.4330708661417323},{"duration":0.07894725000000236,"midi":75,"time":16.736817,"velocity":0.3937007874015748},{"duration":0.07894725000000236,"midi":71,"time":16.736817,"velocity":0.3937007874015748},{"duration":0.07894725000000236,"midi":63,"time":16.736817,"velocity":0.15748031496062992},{"duration":0.15789450000000116,"midi":28,"time":16.736817,"velocity":0.23622047244094488},{"duration":0.07894725000000236,"midi":83,"time":16.736817,"velocity":0.11811023622047244},{"duration":0.0789472499999988,"midi":36,"time":16.8947115,"velocity":0.1968503937007874},{"duration":0.0789472499999988,"midi":72,"time":16.8947115,"velocity":0.3937007874015748},{"duration":0.3947362500000011,"midi":76,"time":16.8947115,"velocity":0.3937007874015748},{"duration":0.0789472499999988,"midi":48,"time":16.8947115,"velocity":0.4330708661417323},{"duration":0.0789472499999988,"midi":64,"time":16.8947115,"velocity":0.15748031496062992},{"duration":0.0789472499999988,"midi":84,"time":16.8947115,"velocity":0.11811023622047244},{"duration":0.1578944999999976,"midi":45,"time":17.052606,"velocity":0.4330708661417323},{"duration":0.0789472499999988,"midi":83,"time":17.052606,"velocity":0.11811023622047244},{"duration":0.1578944999999976,"midi":33,"time":17.052606,"velocity":0.23622047244094488},{"duration":0.0789472499999988,"midi":71,"time":17.052606,"velocity":0.3937007874015748},{"duration":0.0789472499999988,"midi":63,"time":17.052606,"velocity":0.15748031496062992},{"duration":0.0789472499999988,"midi":75,"time":17.052606,"velocity":0.3937007874015748},{"duration":0.07894725000000236,"midi":64,"time":17.2105005,"velocity":0.15748031496062992},{"duration":0.07894725000000236,"midi":84,"time":17.2105005,"velocity":0.11811023622047244},{"duration":0.07894725000000236,"midi":36,"time":17.2105005,"velocity":0.1968503937007874},{"duration":0.07894725000000236,"midi":48,"time":17.2105005,"velocity":0.4330708661417323},{"duration":0.07894725000000236,"midi":72,"time":17.2105005,"velocity":0.3937007874015748},{"duration":0.4736834999999999,"midi":76,"time":17.2105005,"velocity":0.3937007874015748},{"duration":0.15789450000000116,"midi":40,"time":17.368395,"velocity":0.4330708661417323},{"duration":0.15789450000000116,"midi":28,"time":17.368395,"velocity":0.23622047244094488},{"duration":0.0789472499999988,"midi":36,"time":17.5262895,"velocity":0.1968503937007874},{"duration":0.0789472499999988,"midi":48,"time":17.5262895,"velocity":0.4330708661417323},{"duration":1.2631560000000022,"midi":41,"time":17.684184,"velocity":0.31496062992125984},{"duration":1.2631560000000022,"midi":29,"time":17.684184,"velocity":0.1968503937007874},{"duration":0.4736834999999999,"midi":60,"time":17.684184,"velocity":0.1968503937007874},{"duration":0.4736834999999999,"midi":65,"time":17.684184,"velocity":0.3937007874015748},{"duration":0.4736834999999999,"midi":72,"time":17.684184,"velocity":0.3937007874015748},{"duration":1.105261500000001,"midi":29,"time":17.8420785,"velocity":0.2677165354330709},{"duration":1.105261500000001,"midi":41,"time":17.8420785,"velocity":0.3937007874015748},{"duration":0.4736834999999999,"midi":62,"time":18.1578675,"velocity":0.1968503937007874},{"duration":0.4736834999999999,"midi":74,"time":18.1578675,"velocity":0.3937007874015748},{"duration":0.4736834999999999,"midi":65,"time":18.1578675,"velocity":0.3937007874015748},{"duration":0.3157890000000023,"midi":64,"time":18.631550999999998,"velocity":0.3937007874015748},{"duration":0.3157890000000023,"midi":69,"time":18.631550999999998,"velocity":0.3937007874015748},{"duration":0.3157890000000023,"midi":57,"time":18.631550999999998,"velocity":0.1968503937007874},{"duration":1.2631559999999986,"midi":43,"time":18.94734,"velocity":0.31496062992125984},{"duration":0.4736834999999999,"midi":76,"time":18.94734,"velocity":0.3937007874015748},{"duration":0.4736834999999999,"midi":72,"time":18.94734,"velocity":0.3937007874015748},{"duration":1.2631559999999986,"midi":31,"time":18.94734,"velocity":0.1968503937007874},{"duration":0.4736834999999999,"midi":64,"time":18.94734,"velocity":0.1968503937007874},{"duration":0.4736834999999999,"midi":67,"time":18.94734,"velocity":0.3937007874015748},{"duration":1.105261500000001,"midi":43,"time":19.105234499999998,"velocity":0.3937007874015748},{"duration":1.105261500000001,"midi":31,"time":19.105234499999998,"velocity":0.2677165354330709},{"duration":0.0789472499999988,"midi":65,"time":19.4210235,"velocity":0.1968503937007874},{"duration":0.0789472499999988,"midi":77,"time":19.4210235,"velocity":0.3937007874015748},{"duration":0.0789472499999988,"midi":74,"time":19.4210235,"velocity":0.3937007874015748},{"duration":0.0789472499999988,"midi":69,"time":19.4210235,"velocity":0.3937007874015748},{"duration":0.0789472499999988,"midi":76,"time":19.49997075,"velocity":0.3937007874015748},{"duration":0.0789472499999988,"midi":72,"time":19.49997075,"velocity":0.3937007874015748},{"duration":0.0789472499999988,"midi":67,"time":19.49997075,"velocity":0.3937007874015748},{"duration":0.0789472499999988,"midi":64,"time":19.49997075,"velocity":0.1968503937007874},{"duration":0.6315780000000011,"midi":65,"time":19.578917999999998,"velocity":0.3937007874015748},{"duration":0.6315780000000011,"midi":74,"time":19.578917999999998,"velocity":0.3937007874015748},{"duration":0.6315780000000011,"midi":71,"time":19.578917999999998,"velocity":0.3937007874015748},{"duration":0.6315780000000011,"midi":62,"time":19.578917999999998,"velocity":0.1968503937007874},{"duration":0.6315780000000011,"midi":47,"time":19.578917999999998,"velocity":0.2677165354330709},{"duration":0.6315780000000011,"midi":50,"time":19.578917999999998,"velocity":0.2677165354330709},{"duration":0.15789450000000116,"midi":40,"time":20.210496,"velocity":0.5039370078740157},{"duration":0.0789472499999988,"midi":64,"time":20.210496,"velocity":0.15748031496062992},{"duration":0.3947362500000011,"midi":83,"time":20.210496,"velocity":0.3937007874015748},{"duration":0.4736834999999999,"midi":80,"time":20.210496,"velocity":0.3937007874015748},{"duration":0.23684174999999996,"midi":71,"time":20.210496,"velocity":0.3937007874015748},{"duration":0.15789450000000116,"midi":68,"time":20.210496,"velocity":0.3937007874015748},{"duration":0.7105252499999999,"midi":68,"time":20.289443249999998,"velocity":0.15748031496062992},{"duration":0.4736834999999999,"midi":71,"time":20.3683905,"velocity":0.15748031496062992},{"duration":0.0789472499999988,"midi":44,"time":20.3683905,"velocity":0.15748031496062992},{"duration":0.0789472499999988,"midi":59,"time":20.3683905,"velocity":0.23622047244094488},{"duration":0.0789472499999988,"midi":47,"time":20.3683905,"velocity":0.15748031496062992},{"duration":0.0789472499999988,"midi":52,"time":20.3683905,"velocity":0.23622047244094488},{"duration":0.0789472499999988,"midi":56,"time":20.3683905,"velocity":0.23622047244094488},{"duration":0.0789472499999988,"midi":76,"time":20.44733775,"velocity":0.15748031496062992},{"duration":0.7105252499999999,"midi":83,"time":20.526284999999998,"velocity":0.15748031496062992},{"duration":0.15789450000000116,"midi":35,"time":20.526284999999998,"velocity":0.5039370078740157},{"duration":0.7105252499999999,"midi":80,"time":20.60523225,"velocity":0.15748031496062992},{"duration":0.0789472499999988,"midi":59,"time":20.6841795,"velocity":0.23622047244094488},{"duration":0.0789472499999988,"midi":76,"time":20.6841795,"velocity":0.15748031496062992},{"duration":0.0789472499999988,"midi":47,"time":20.6841795,"velocity":0.15748031496062992},{"duration":0.0789472499999988,"midi":52,"time":20.6841795,"velocity":0.23622047244094488},{"duration":0.0789472499999988,"midi":56,"time":20.6841795,"velocity":0.23622047244094488},{"duration":0.0789472499999988,"midi":44,"time":20.6841795,"velocity":0.15748031496062992},{"duration":0.3157890000000023,"midi":71,"time":20.763126749999998,"velocity":0.15748031496062992},{"duration":0.0789472499999988,"midi":64,"time":20.842074,"velocity":0.15748031496062992},{"duration":0.1578944999999976,"midi":40,"time":20.842074,"velocity":0.5039370078740157},{"duration":0.5526307499999987,"midi":68,"time":20.92102125,"velocity":0.15748031496062992},{"duration":0.07894725000000236,"midi":44,"time":20.999968499999998,"velocity":0.15748031496062992},{"duration":0.07894725000000236,"midi":56,"time":20.999968499999998,"velocity":0.23622047244094488},{"duration":0.07894725000000236,"midi":52,"time":20.999968499999998,"velocity":0.23622047244094488},{"duration":0.07894725000000236,"midi":59,"time":20.999968499999998,"velocity":0.23622047244094488},{"duration":0.4736834999999999,"midi":71,"time":20.999968499999998,"velocity":0.15748031496062992},{"duration":0.07894725000000236,"midi":47,"time":20.999968499999998,"velocity":0.15748031496062992},{"duration":0.0789472499999988,"midi":76,"time":21.07891575,"velocity":0.15748031496062992},{"duration":0.15789450000000116,"midi":35,"time":21.157863,"velocity":0.5039370078740157},{"duration":0.31578899999999877,"midi":83,"time":21.157863,"velocity":0.15748031496062992},{"duration":0.23684174999999996,"midi":80,"time":21.236810249999998,"velocity":0.15748031496062992},{"duration":0.0789472499999988,"midi":47,"time":21.3157575,"velocity":0.15748031496062992},{"duration":0.0789472499999988,"midi":59,"time":21.3157575,"velocity":0.23622047244094488},{"duration":0.0789472499999988,"midi":44,"time":21.3157575,"velocity":0.15748031496062992},{"duration":0.0789472499999988,"midi":52,"time":21.3157575,"velocity":0.23622047244094488},{"duration":0.0789472499999988,"midi":76,"time":21.3157575,"velocity":0.15748031496062992},{"duration":0.0789472499999988,"midi":56,"time":21.3157575,"velocity":0.23622047244094488},{"duration":0.0789472499999988,"midi":71,"time":21.39470475,"velocity":0.15748031496062992},{"duration":0.15789450000000116,"midi":42,"time":21.473651999999998,"velocity":0.5039370078740157},{"duration":0.07894725000000236,"midi":66,"time":21.473651999999998,"velocity":0.15748031496062992},{"duration":0.0789472499999988,"midi":70,"time":21.55259925,"velocity":0.15748031496062992},{"duration":0.0789472499999988,"midi":73,"time":21.6315465,"velocity":0.15748031496062992},{"duration":0.15789450000000116,"midi":68,"time":21.6315465,"velocity":0.3937007874015748},{"duration":0.0789472499999988,"midi":61,"time":21.6315465,"velocity":0.23622047244094488},{"duration":0.0789472499999988,"midi":54,"time":21.6315465,"velocity":0.23622047244094488},{"duration":0.0789472499999988,"midi":58,"time":21.6315465,"velocity":0.23622047244094488},{"duration":0.15789450000000116,"midi":83,"time":21.6315465,"velocity":0.3937007874015748},{"duration":0.0789472499999988,"midi":46,"time":21.6315465,"velocity":0.15748031496062992},{"duration":0.0789472499999988,"midi":49,"time":21.6315465,"velocity":0.15748031496062992},{"duration":0.15789450000000116,"midi":71,"time":21.6315465,"velocity":0.3937007874015748},{"duration":0.15789450000000116,"midi":80,"time":21.6315465,"velocity":0.3937007874015748},{"duration":0.07894725000000236,"midi":78,"time":21.710493749999998,"velocity":0.15748031496062992},{"duration":0.1578944999999976,"midi":82,"time":21.789441,"velocity":0.3937007874015748},{"duration":0.0789472499999988,"midi":85,"time":21.789441,"velocity":0.15748031496062992},{"duration":0.1578944999999976,"midi":37,"time":21.789441,"velocity":0.5039370078740157},{"duration":0.1578944999999976,"midi":78,"time":21.789441,"velocity":0.3937007874015748},{"duration":0.1578944999999976,"midi":70,"time":21.789441,"velocity":0.3937007874015748},{"duration":0.1578944999999976,"midi":66,"time":21.789441,"velocity":0.3937007874015748},{"duration":0.0789472499999988,"midi":82,"time":21.86838825,"velocity":0.15748031496062992},{"duration":0.07894725000000236,"midi":49,"time":21.947335499999998,"velocity":0.15748031496062992},{"duration":0.07894725000000236,"midi":78,"time":21.947335499999998,"velocity":0.15748031496062992},{"duration":0.07894725000000236,"midi":61,"time":21.947335499999998,"velocity":0.23622047244094488},{"duration":0.15789450000000116,"midi":68,"time":21.947335499999998,"velocity":0.3937007874015748},{"duration":0.07894725000000236,"midi":54,"time":21.947335499999998,"velocity":0.23622047244094488},{"duration":0.15789450000000116,"midi":83,"time":21.947335499999998,"velocity":0.3937007874015748},{"duration":0.07894725000000236,"midi":46,"time":21.947335499999998,"velocity":0.15748031496062992},{"duration":0.15789450000000116,"midi":80,"time":21.947335499999998,"velocity":0.3937007874015748},{"duration":0.15789450000000116,"midi":71,"time":21.947335499999998,"velocity":0.3937007874015748},{"duration":0.07894725000000236,"midi":58,"time":21.947335499999998,"velocity":0.23622047244094488},{"duration":0.0789472499999988,"midi":73,"time":22.02628275,"velocity":0.15748031496062992},{"duration":0.31578899999999877,"midi":78,"time":22.10523,"velocity":0.3937007874015748},{"duration":0.0789472499999988,"midi":66,"time":22.10523,"velocity":0.15748031496062992},{"duration":0.31578899999999877,"midi":75,"time":22.10523,"velocity":0.3937007874015748},{"duration":0.31578899999999877,"midi":87,"time":22.10523,"velocity":0.3937007874015748},{"duration":0.31578899999999877,"midi":90,"time":22.10523,"velocity":0.3937007874015748},{"duration":0.15789450000000116,"midi":42,"time":22.10523,"velocity":0.5039370078740157},{"duration":0.07894725000000236,"midi":70,"time":22.184177249999998,"velocity":0.15748031496062992},{"duration":0.0789472499999988,"midi":58,"time":22.2631245,"velocity":0.23622047244094488},{"duration":0.0789472499999988,"midi":61,"time":22.2631245,"velocity":0.23622047244094488},{"duration":0.0789472499999988,"midi":54,"time":22.2631245,"velocity":0.23622047244094488},{"duration":0.0789472499999988,"midi":46,"time":22.2631245,"velocity":0.15748031496062992},{"duration":0.0789472499999988,"midi":49,"time":22.2631245,"velocity":0.15748031496062992},{"duration":0.0789472499999988,"midi":73,"time":22.2631245,"velocity":0.15748031496062992},{"duration":0.0789472499999988,"midi":78,"time":22.34207175,"velocity":0.15748031496062992},{"duration":0.15789450000000116,"midi":37,"time":22.421018999999998,"velocity":0.5039370078740157},{"duration":0.07894725000000236,"midi":85,"time":22.421018999999998,"velocity":0.15748031496062992},{"duration":0.15789450000000116,"midi":78,"time":22.421018999999998,"velocity":0.3937007874015748},{"duration":0.15789450000000116,"midi":70,"time":22.421018999999998,"velocity":0.3937007874015748},{"duration":0.15789450000000116,"midi":66,"time":22.421018999999998,"velocity":0.3937007874015748},{"duration":0.15789450000000116,"midi":82,"time":22.421018999999998,"velocity":0.3937007874015748},{"duration":0.0789472499999988,"midi":82,"time":22.49996625,"velocity":0.15748031496062992},{"duration":0.0789472499999988,"midi":61,"time":22.5789135,"velocity":0.23622047244094488},{"duration":0.0789472499999988,"midi":46,"time":22.5789135,"velocity":0.15748031496062992},{"duration":0.4736834999999999,"midi":80,"time":22.5789135,"velocity":0.3937007874015748},{"duration":0.31578899999999877,"midi":71,"time":22.5789135,"velocity":0.3937007874015748},{"duration":0.6315780000000011,"midi":83,"time":22.5789135,"velocity":0.3937007874015748},{"duration":0.0789472499999988,"midi":49,"time":22.5789135,"velocity":0.15748031496062992},{"duration":0.0789472499999988,"midi":54,"time":22.5789135,"velocity":0.23622047244094488},{"duration":0.0789472499999988,"midi":78,"time":22.5789135,"velocity":0.15748031496062992},{"duration":0.23684174999999996,"midi":68,"time":22.5789135,"velocity":0.3937007874015748},{"duration":0.0789472499999988,"midi":58,"time":22.5789135,"velocity":0.23622047244094488},{"duration":0.07894725000000236,"midi":73,"time":22.657860749999998,"velocity":0.15748031496062992},{"duration":0.1578944999999976,"midi":44,"time":22.736808,"velocity":0.5039370078740157},{"duration":0.7105252499999999,"midi":68,"time":22.736808,"velocity":0.15748031496062992},{"duration":0.7105252499999999,"midi":71,"time":22.81575525,"velocity":0.15748031496062992},{"duration":0.07894725000000236,"midi":63,"time":22.894702499999998,"velocity":0.23622047244094488},{"duration":0.07894725000000236,"midi":75,"time":22.894702499999998,"velocity":0.15748031496062992},{"duration":0.07894725000000236,"midi":56,"time":22.894702499999998,"velocity":0.23622047244094488},{"duration":0.07894725000000236,"midi":59,"time":22.894702499999998,"velocity":0.23622047244094488},{"duration":0.07894725000000236,"midi":51,"time":22.894702499999998,"velocity":0.15748031496062992},{"duration":0.07894725000000236,"midi":47,"time":22.894702499999998,"velocity":0.15748031496062992},{"duration":0.31578899999999877,"midi":80,"time":22.97364975,"velocity":0.15748031496062992},{"duration":0.0789472499999988,"midi":87,"time":23.052597,"velocity":0.15748031496062992},{"duration":0.15789450000000116,"midi":39,"time":23.052597,"velocity":0.5039370078740157},{"duration":0.7105252499999999,"midi":83,"time":23.131544249999997,"velocity":0.15748031496062992},{"duration":0.4736834999999999,"midi":80,"time":23.2104915,"velocity":0.15748031496062992},{"duration":0.0789472499999988,"midi":47,"time":23.2104915,"velocity":0.15748031496062992},{"duration":0.0789472499999988,"midi":63,"time":23.2104915,"velocity":0.23622047244094488},{"duration":0.0789472499999988,"midi":51,"time":23.2104915,"velocity":0.15748031496062992},{"duration":0.0789472499999988,"midi":56,"time":23.2104915,"velocity":0.23622047244094488},{"duration":0.0789472499999988,"midi":59,"time":23.2104915,"velocity":0.23622047244094488},{"duration":0.0789472499999988,"midi":75,"time":23.28943875,"velocity":0.15748031496062992},{"duration":0.15789450000000116,"midi":44,"time":23.368385999999997,"velocity":0.5039370078740157},{"duration":0.7894725000000022,"midi":68,"time":23.368385999999997,"velocity":0.15748031496062992},{"duration":0.7105252499999999,"midi":71,"time":23.44733325,"velocity":0.15748031496062992},{"duration":0.0789472499999988,"midi":75,"time":23.5262805,"velocity":0.15748031496062992},{"duration":0.0789472499999988,"midi":47,"time":23.5262805,"velocity":0.15748031496062992},{"duration":0.0789472499999988,"midi":51,"time":23.5262805,"velocity":0.15748031496062992},{"duration":0.0789472499999988,"midi":59,"time":23.5262805,"velocity":0.23622047244094488},{"duration":0.0789472499999988,"midi":63,"time":23.5262805,"velocity":0.23622047244094488},{"duration":0.0789472499999988,"midi":56,"time":23.5262805,"velocity":0.23622047244094488},{"duration":0.3157890000000023,"midi":80,"time":23.605227749999997,"velocity":0.15748031496062992},{"duration":0.0789472499999988,"midi":87,"time":23.684175,"velocity":0.15748031496062992},{"duration":0.1578944999999976,"midi":39,"time":23.684175,"velocity":0.5039370078740157},{"duration":0.3947362500000011,"midi":83,"time":23.76312225,"velocity":0.15748031496062992},{"duration":0.07894725000000236,"midi":59,"time":23.842069499999997,"velocity":0.23622047244094488},{"duration":0.07894725000000236,"midi":63,"time":23.842069499999997,"velocity":0.23622047244094488},{"duration":0.07894725000000236,"midi":47,"time":23.842069499999997,"velocity":0.15748031496062992},{"duration":0.07894725000000236,"midi":51,"time":23.842069499999997,"velocity":0.15748031496062992},{"duration":0.3157890000000023,"midi":80,"time":23.842069499999997,"velocity":0.15748031496062992},{"duration":0.07894725000000236,"midi":56,"time":23.842069499999997,"velocity":0.23622047244094488},{"duration":0.0789472499999988,"midi":75,"time":23.92101675,"velocity":0.15748031496062992},{"duration":0.15789450000000116,"midi":39,"time":23.999964,"velocity":0.5039370078740157},{"duration":0.0789472499999988,"midi":63,"time":23.999964,"velocity":0.15748031496062992},{"duration":0.07894725000000236,"midi":66,"time":24.078911249999997,"velocity":0.15748031496062992},{"duration":0.0789472499999988,"midi":42,"time":24.1578585,"velocity":0.15748031496062992},{"duration":0.1578944999999976,"midi":83,"time":24.1578585,"velocity":0.3937007874015748},{"duration":0.0789472499999988,"midi":70,"time":24.1578585,"velocity":0.15748031496062992},{"duration":0.1578944999999976,"midi":71,"time":24.1578585,"velocity":0.3937007874015748},{"duration":0.0789472499999988,"midi":58,"time":24.1578585,"velocity":0.23622047244094488},{"duration":0.0789472499999988,"midi":51,"time":24.1578585,"velocity":0.23622047244094488},{"duration":0.0789472499999988,"midi":54,"time":24.1578585,"velocity":0.23622047244094488},{"duration":0.1578944999999976,"midi":68,"time":24.1578585,"velocity":0.3937007874015748},{"duration":0.1578944999999976,"midi":80,"time":24.1578585,"velocity":0.3937007874015748},{"duration":0.0789472499999988,"midi":46,"time":24.1578585,"velocity":0.15748031496062992},{"duration":0.0789472499999988,"midi":75,"time":24.23680575,"velocity":0.15748031496062992},{"duration":0.15789450000000116,"midi":66,"time":24.315752999999997,"velocity":0.3937007874015748},{"duration":0.07894725000000236,"midi":82,"time":24.315752999999997,"velocity":0.3937007874015748},{"duration":0.15789450000000116,"midi":70,"time":24.315752999999997,"velocity":0.3937007874015748},{"duration":0.15789450000000116,"midi":82,"time":24.315752999999997,"velocity":0.15748031496062992},{"duration":0.15789450000000116,"midi":34,"time":24.315752999999997,"velocity":0.5039370078740157},{"duration":0.15789450000000116,"midi":78,"time":24.315752999999997,"velocity":0.3937007874015748},{"duration":0.0789472499999988,"midi":78,"time":24.39470025,"velocity":0.15748031496062992},{"duration":0.0789472499999988,"midi":54,"time":24.4736475,"velocity":0.23622047244094488},{"duration":0.0789472499999988,"midi":75,"time":24.4736475,"velocity":0.15748031496062992},{"duration":0.15789450000000116,"midi":64,"time":24.4736475,"velocity":0.3937007874015748},{"duration":0.15789450000000116,"midi":68,"time":24.4736475,"velocity":0.3937007874015748},{"duration":0.0789472499999988,"midi":46,"time":24.4736475,"velocity":0.15748031496062992},{"duration":0.0789472499999988,"midi":42,"time":24.4736475,"velocity":0.15748031496062992},{"duration":0.15789450000000116,"midi":80,"time":24.4736475,"velocity":0.3937007874015748},{"duration":0.0789472499999988,"midi":58,"time":24.4736475,"velocity":0.23622047244094488},{"duration":0.15789450000000116,"midi":76,"time":24.4736475,"velocity":0.3937007874015748},{"duration":0.0789472499999988,"midi":51,"time":24.4736475,"velocity":0.23622047244094488},{"duration":0.07894725000000236,"midi":70,"time":24.552594749999997,"velocity":0.15748031496062992},{"duration":0.31578899999999877,"midi":78,"time":24.631542,"velocity":0.3937007874015748},{"duration":0.1578944999999976,"midi":39,"time":24.631542,"velocity":0.5039370078740157},{"duration":0.0789472499999988,"midi":63,"time":24.631542,"velocity":0.15748031496062992},{"duration":0.1578944999999976,"midi":66,"time":24.631542,"velocity":0.3937007874015748},{"duration":0.31578899999999877,"midi":63,"time":24.631542,"velocity":0.3937007874015748},{"duration":0.31578899999999877,"midi":75,"time":24.631542,"velocity":0.3937007874015748},{"duration":0.23684174999999996,"midi":66,"time":24.71048925,"velocity":0.15748031496062992},{"duration":0.07894725000000236,"midi":58,"time":24.789436499999997,"velocity":0.23622047244094488},{"duration":0.07894725000000236,"midi":54,"time":24.789436499999997,"velocity":0.23622047244094488},{"duration":0.07894725000000236,"midi":46,"time":24.789436499999997,"velocity":0.15748031496062992},{"duration":0.07894725000000236,"midi":42,"time":24.789436499999997,"velocity":0.15748031496062992},{"duration":0.07894725000000236,"midi":70,"time":24.789436499999997,"velocity":0.15748031496062992},{"duration":0.07894725000000236,"midi":51,"time":24.789436499999997,"velocity":0.23622047244094488},{"duration":0.0789472499999988,"midi":75,"time":24.86838375,"velocity":0.15748031496062992},{"duration":0.3157890000000023,"midi":66,"time":24.947331,"velocity":0.3937007874015748},{"duration":0.0789472499999988,"midi":82,"time":24.947331,"velocity":0.15748031496062992},{"duration":0.15789450000000116,"midi":78,"time":24.947331,"velocity":0.3937007874015748},{"duration":0.3157890000000023,"midi":70,"time":24.947331,"velocity":0.3937007874015748},{"duration":0.15789450000000116,"midi":34,"time":24.947331,"velocity":0.5039370078740157},{"duration":0.3157890000000023,"midi":82,"time":24.947331,"velocity":0.3937007874015748},{"duration":0.23684175000000351,"midi":78,"time":25.026278249999997,"velocity":0.15748031496062992},{"duration":0.0789472499999988,"midi":51,"time":25.1052255,"velocity":0.23622047244094488},{"duration":0.0789472499999988,"midi":54,"time":25.1052255,"velocity":0.23622047244094488},{"duration":0.0789472499999988,"midi":58,"time":25.1052255,"velocity":0.23622047244094488},{"duration":0.0789472499999988,"midi":75,"time":25.1052255,"velocity":0.15748031496062992},{"duration":0.0789472499999988,"midi":46,"time":25.1052255,"velocity":0.15748031496062992},{"duration":0.0789472499999988,"midi":42,"time":25.1052255,"velocity":0.15748031496062992},{"duration":0.07894725000000236,"midi":70,"time":25.18417275,"velocity":0.15748031496062992},{"duration":0.1578944999999976,"midi":71,"time":25.26312,"velocity":0.3937007874015748},{"duration":0.1578944999999976,"midi":68,"time":25.26312,"velocity":0.3937007874015748},{"duration":0.1578944999999976,"midi":80,"time":25.26312,"velocity":0.3937007874015748},{"duration":0.0789472499999988,"midi":64,"time":25.26312,"velocity":0.15748031496062992},{"duration":0.1578944999999976,"midi":40,"time":25.26312,"velocity":0.5039370078740157},{"duration":0.1578944999999976,"midi":83,"time":25.26312,"velocity":0.3937007874015748},{"duration":0.0789472499999988,"midi":68,"time":25.34206725,"velocity":0.15748031496062992},{"duration":0.07894725000000236,"midi":56,"time":25.4210145,"velocity":0.23622047244094488},{"duration":0.07894725000000236,"midi":47,"time":25.4210145,"velocity":0.15748031496062992},{"duration":0.07894725000000236,"midi":71,"time":25.4210145,"velocity":0.15748031496062992},{"duration":0.15789450000000116,"midi":82,"time":25.4210145,"velocity":0.3937007874015748},{"duration":0.15789450000000116,"midi":66,"time":25.4210145,"velocity":0.3937007874015748},{"duration":0.07894725000000236,"midi":59,"time":25.4210145,"velocity":0.23622047244094488},{"duration":0.15789450000000116,"midi":70,"time":25.4210145,"velocity":0.3937007874015748},{"duration":0.07894725000000236,"midi":52,"time":25.4210145,"velocity":0.23622047244094488},{"duration":0.15789450000000116,"midi":78,"time":25.4210145,"velocity":0.3937007874015748},{"duration":0.07894725000000236,"midi":44,"time":25.4210145,"velocity":0.15748031496062992},{"duration":0.0789472499999988,"midi":76,"time":25.49996175,"velocity":0.15748031496062992},{"duration":0.0789472499999988,"midi":83,"time":25.578909,"velocity":0.3937007874015748},{"duration":0.15789450000000116,"midi":35,"time":25.578909,"velocity":0.5039370078740157},{"duration":0.15789450000000116,"midi":83,"time":25.578909,"velocity":0.15748031496062992},{"duration":0.15789450000000116,"midi":80,"time":25.578909,"velocity":0.3937007874015748},{"duration":0.15789450000000116,"midi":68,"time":25.578909,"velocity":0.3937007874015748},{"duration":0.15789450000000116,"midi":71,"time":25.578909,"velocity":0.3937007874015748},{"duration":0.07894725000000236,"midi":80,"time":25.65785625,"velocity":0.15748031496062992},{"duration":0.0789472499999988,"midi":56,"time":25.7368035,"velocity":0.23622047244094488},{"duration":0.4736834999999999,"midi":90,"time":25.7368035,"velocity":0.3937007874015748},{"duration":0.4736834999999999,"midi":78,"time":25.7368035,"velocity":0.3937007874015748},{"duration":0.0789472499999988,"midi":59,"time":25.7368035,"velocity":0.23622047244094488},{"duration":0.0789472499999988,"midi":76,"time":25.7368035,"velocity":0.15748031496062992},{"duration":0.0789472499999988,"midi":44,"time":25.7368035,"velocity":0.15748031496062992},{"duration":0.0789472499999988,"midi":47,"time":25.7368035,"velocity":0.15748031496062992},{"duration":0.4736834999999999,"midi":83,"time":25.7368035,"velocity":0.3937007874015748},{"duration":0.0789472499999988,"midi":52,"time":25.7368035,"velocity":0.23622047244094488},{"duration":0.1578944999999976,"midi":71,"time":25.7368035,"velocity":0.3937007874015748},{"duration":0.31578899999999877,"midi":71,"time":25.81575075,"velocity":0.15748031496062992},{"duration":0.15789450000000116,"midi":40,"time":25.894697999999998,"velocity":0.5039370078740157},{"duration":0.07894725000000236,"midi":64,"time":25.894697999999998,"velocity":0.15748031496062992},{"duration":0.0789472499999988,"midi":68,"time":25.97364525,"velocity":0.15748031496062992},{"duration":0.0789472499999988,"midi":59,"time":26.0525925,"velocity":0.23622047244094488},{"duration":0.15789450000000116,"midi":71,"time":26.0525925,"velocity":0.15748031496062992},{"duration":0.0789472499999988,"midi":47,"time":26.0525925,"velocity":0.15748031496062992},{"duration":0.0789472499999988,"midi":44,"time":26.0525925,"velocity":0.15748031496062992},{"duration":0.0789472499999988,"midi":52,"time":26.0525925,"velocity":0.23622047244094488},{"duration":0.0789472499999988,"midi":56,"time":26.0525925,"velocity":0.23622047244094488},{"duration":0.07894725000000236,"midi":76,"time":26.131539749999998,"velocity":0.15748031496062992},{"duration":0.1578944999999976,"midi":78,"time":26.210487,"velocity":0.3937007874015748},{"duration":0.1578944999999976,"midi":87,"time":26.210487,"velocity":0.3937007874015748},{"duration":0.1578944999999976,"midi":75,"time":26.210487,"velocity":0.3937007874015748},{"duration":0.1578944999999976,"midi":90,"time":26.210487,"velocity":0.3937007874015748},{"duration":0.0789472499999988,"midi":83,"time":26.210487,"velocity":0.15748031496062992},{"duration":0.1578944999999976,"midi":35,"time":26.210487,"velocity":0.5039370078740157},{"duration":0.0789472499999988,"midi":80,"time":26.28943425,"velocity":0.15748031496062992},{"duration":0.15789450000000116,"midi":88,"time":26.368381499999998,"velocity":0.3937007874015748},{"duration":0.15789450000000116,"midi":92,"time":26.368381499999998,"velocity":0.3937007874015748},{"duration":0.07894725000000236,"midi":56,"time":26.368381499999998,"velocity":0.23622047244094488},{"duration":0.07894725000000236,"midi":76,"time":26.368381499999998,"velocity":0.15748031496062992},{"duration":0.07894725000000236,"midi":52,"time":26.368381499999998,"velocity":0.23622047244094488},{"duration":0.15789450000000116,"midi":80,"time":26.368381499999998,"velocity":0.3937007874015748},{"duration":0.07894725000000236,"midi":44,"time":26.368381499999998,"velocity":0.15748031496062992},{"duration":0.07894725000000236,"midi":59,"time":26.368381499999998,"velocity":0.23622047244094488},{"duration":0.15789450000000116,"midi":76,"time":26.368381499999998,"velocity":0.3937007874015748},{"duration":0.07894725000000236,"midi":47,"time":26.368381499999998,"velocity":0.15748031496062992},{"duration":0.0789472499999988,"midi":71,"time":26.44732875,"velocity":0.15748031496062992},{"duration":0.15789450000000116,"midi":47,"time":26.526276,"velocity":0.5039370078740157},{"duration":0.31578899999999877,"midi":90,"time":26.526276,"velocity":0.3937007874015748},{"duration":0.15789450000000116,"midi":75,"time":26.526276,"velocity":0.3937007874015748},{"duration":0.31578899999999877,"midi":87,"time":26.526276,"velocity":0.3937007874015748},{"duration":0.0789472499999988,"midi":71,"time":26.526276,"velocity":0.15748031496062992},{"duration":0.23684174999999996,"midi":78,"time":26.526276,"velocity":0.3937007874015748},{"duration":0.23684174999999996,"midi":75,"time":26.605223249999998,"velocity":0.15748031496062992},{"duration":0.0789472499999988,"midi":54,"time":26.6841705,"velocity":0.15748031496062992},{"duration":0.1578944999999976,"midi":78,"time":26.6841705,"velocity":0.15748031496062992},{"duration":0.0789472499999988,"midi":59,"time":26.6841705,"velocity":0.23622047244094488},{"duration":0.0789472499999988,"midi":47,"time":26.6841705,"velocity":0.15748031496062992},{"duration":0.0789472499999988,"midi":63,"time":26.6841705,"velocity":0.23622047244094488},{"duration":0.0789472499999988,"midi":51,"time":26.6841705,"velocity":0.15748031496062992},{"duration":0.0789472499999988,"midi":66,"time":26.6841705,"velocity":0.23622047244094488},{"duration":0.0789472499999988,"midi":83,"time":26.76311775,"velocity":0.15748031496062992},{"duration":0.15789450000000116,"midi":42,"time":26.842064999999998,"velocity":0.5039370078740157},{"duration":0.15789450000000116,"midi":88,"time":26.842064999999998,"velocity":0.3937007874015748},{"duration":0.15789450000000116,"midi":85,"time":26.842064999999998,"velocity":0.3937007874015748},{"duration":0.07894725000000236,"midi":90,"time":26.842064999999998,"velocity":0.15748031496062992},{"duration":0.15789450000000116,"midi":73,"time":26.842064999999998,"velocity":0.3937007874015748},{"duration":0.15789450000000116,"midi":76,"time":26.842064999999998,"velocity":0.3937007874015748},{"duration":0.0789472499999988,"midi":87,"time":26.92101225,"velocity":0.15748031496062992},{"duration":0.0789472499999988,"midi":83,"time":26.9999595,"velocity":0.3937007874015748},{"duration":0.0789472499999988,"midi":63,"time":26.9999595,"velocity":0.23622047244094488},{"duration":0.4736834999999999,"midi":87,"time":26.9999595,"velocity":0.3937007874015748},{"duration":0.4736834999999999,"midi":83,"time":26.9999595,"velocity":0.15748031496062992},{"duration":0.0789472499999988,"midi":54,"time":26.9999595,"velocity":0.15748031496062992},{"duration":0.23684174999999996,"midi":71,"time":26.9999595,"velocity":0.3937007874015748},{"duration":0.31578899999999877,"midi":75,"time":26.9999595,"velocity":0.3937007874015748},{"duration":0.0789472499999988,"midi":51,"time":26.9999595,"velocity":0.15748031496062992},{"duration":0.0789472499999988,"midi":59,"time":26.9999595,"velocity":0.23622047244094488},{"duration":0.0789472499999988,"midi":47,"time":26.9999595,"velocity":0.15748031496062992},{"duration":0.0789472499999988,"midi":66,"time":26.9999595,"velocity":0.23622047244094488},{"duration":0.07894725000000236,"midi":78,"time":27.078906749999998,"velocity":0.15748031496062992},{"duration":0.1578944999999976,"midi":47,"time":27.157854,"velocity":0.5039370078740157},{"duration":0.31578899999999877,"midi":71,"time":27.157854,"velocity":0.15748031496062992},{"duration":0.23684174999999996,"midi":75,"time":27.23680125,"velocity":0.15748031496062992},{"duration":0.07894725000000236,"midi":59,"time":27.315748499999998,"velocity":0.23622047244094488},{"duration":0.07894725000000236,"midi":78,"time":27.315748499999998,"velocity":0.15748031496062992},{"duration":0.07894725000000236,"midi":66,"time":27.315748499999998,"velocity":0.23622047244094488},{"duration":0.07894725000000236,"midi":63,"time":27.315748499999998,"velocity":0.23622047244094488},{"duration":0.07894725000000236,"midi":54,"time":27.315748499999998,"velocity":0.15748031496062992},{"duration":0.07894725000000236,"midi":47,"time":27.315748499999998,"velocity":0.15748031496062992},{"duration":0.07894725000000236,"midi":51,"time":27.315748499999998,"velocity":0.15748031496062992},{"duration":0.0789472499999988,"midi":83,"time":27.39469575,"velocity":0.15748031496062992},{"duration":0.0789472499999988,"midi":90,"time":27.473643,"velocity":0.15748031496062992},{"duration":0.23684174999999996,"midi":83,"time":27.473643,"velocity":0.3937007874015748},{"duration":0.15789450000000116,"midi":42,"time":27.473643,"velocity":0.5039370078740157},{"duration":0.31578899999999877,"midi":71,"time":27.473643,"velocity":0.3937007874015748},{"duration":0.31578899999999877,"midi":75,"time":27.473643,"velocity":0.3937007874015748},{"duration":0.07894725000000236,"midi":87,"time":27.552590249999998,"velocity":0.15748031496062992},{"duration":0.0789472499999988,"midi":66,"time":27.6315375,"velocity":0.23622047244094488},{"duration":0.0789472499999988,"midi":47,"time":27.6315375,"velocity":0.15748031496062992},{"duration":0.0789472499999988,"midi":54,"time":27.6315375,"velocity":0.15748031496062992},{"duration":0.0789472499999988,"midi":59,"time":27.6315375,"velocity":0.23622047244094488},{"duration":0.0789472499999988,"midi":63,"time":27.6315375,"velocity":0.23622047244094488},{"duration":0.0789472499999988,"midi":51,"time":27.6315375,"velocity":0.15748031496062992},{"duration":0.1578944999999976,"midi":83,"time":27.6315375,"velocity":0.15748031496062992},{"duration":0.0789472499999988,"midi":78,"time":27.71048475,"velocity":0.15748031496062992},{"duration":0.3157890000000023,"midi":85,"time":27.789431999999998,"velocity":0.3937007874015748},{"duration":0.07894725000000236,"midi":73,"time":27.789431999999998,"velocity":0.15748031496062992},{"duration":0.4736834999999999,"midi":73,"time":27.789431999999998,"velocity":0.3937007874015748},{"duration":0.15789450000000116,"midi":37,"time":27.789431999999998,"velocity":0.5039370078740157},{"duration":0.15789450000000116,"midi":76,"time":27.789431999999998,"velocity":0.3937007874015748},{"duration":0.39473624999999757,"midi":76,"time":27.86837925,"velocity":0.15748031496062992},{"duration":0.0789472499999988,"midi":56,"time":27.9473265,"velocity":0.23622047244094488},{"duration":0.0789472499999988,"midi":52,"time":27.9473265,"velocity":0.23622047244094488},{"duration":0.0789472499999988,"midi":49,"time":27.9473265,"velocity":0.23622047244094488},{"duration":0.0789472499999988,"midi":44,"time":27.9473265,"velocity":0.15748031496062992},{"duration":0.0789472499999988,"midi":40,"time":27.9473265,"velocity":0.15748031496062992},{"duration":0.0789472499999988,"midi":80,"time":27.9473265,"velocity":0.15748031496062992},{"duration":0.23684174999999996,"midi":85,"time":28.026273749999998,"velocity":0.15748031496062992},{"duration":0.1578944999999976,"midi":32,"time":28.105221,"velocity":0.5039370078740157},{"duration":0.0789472499999988,"midi":92,"time":28.105221,"velocity":0.15748031496062992},{"duration":0.0789472499999988,"midi":88,"time":28.18416825,"velocity":0.15748031496062992},{"duration":0.4736834999999999,"midi":68,"time":28.263115499999998,"velocity":0.3937007874015748},{"duration":0.07894725000000236,"midi":44,"time":28.263115499999998,"velocity":0.15748031496062992},{"duration":0.07894725000000236,"midi":56,"time":28.263115499999998,"velocity":0.23622047244094488},{"duration":0.07894725000000236,"midi":85,"time":28.263115499999998,"velocity":0.15748031496062992},{"duration":0.23684174999999996,"midi":73,"time":28.263115499999998,"velocity":0.3937007874015748},{"duration":0.07894725000000236,"midi":52,"time":28.263115499999998,"velocity":0.23622047244094488},{"duration":0.07894725000000236,"midi":49,"time":28.263115499999998,"velocity":0.23622047244094488},{"duration":0.07894725000000236,"midi":40,"time":28.263115499999998,"velocity":0.15748031496062992},{"duration":0.15789450000000116,"midi":80,"time":28.263115499999998,"velocity":0.3937007874015748},{"duration":0.31578899999999877,"midi":80,"time":28.34206275,"velocity":0.15748031496062992},{"duration":0.31578899999999877,"midi":73,"time":28.42101,"velocity":0.15748031496062992},{"duration":0.15789450000000116,"midi":37,"time":28.42101,"velocity":0.5039370078740157},{"duration":0.07894725000000236,"midi":76,"time":28.499957249999998,"velocity":0.15748031496062992},{"duration":0.0789472499999988,"midi":52,"time":28.5789045,"velocity":0.23622047244094488},{"duration":0.0789472499999988,"midi":44,"time":28.5789045,"velocity":0.15748031496062992},{"duration":0.0789472499999988,"midi":40,"time":28.5789045,"velocity":0.15748031496062992},{"duration":0.1578944999999976,"midi":80,"time":28.5789045,"velocity":0.15748031496062992},{"duration":0.0789472499999988,"midi":56,"time":28.5789045,"velocity":0.23622047244094488},{"duration":0.0789472499999988,"midi":49,"time":28.5789045,"velocity":0.23622047244094488},{"duration":0.0789472499999988,"midi":85,"time":28.65785175,"velocity":0.15748031496062992},{"duration":0.3157890000000023,"midi":73,"time":28.736798999999998,"velocity":0.3937007874015748},{"duration":0.3157890000000023,"midi":76,"time":28.736798999999998,"velocity":0.3937007874015748},{"duration":0.07894725000000236,"midi":92,"time":28.736798999999998,"velocity":0.15748031496062992},{"duration":0.23684174999999996,"midi":85,"time":28.736798999999998,"velocity":0.3937007874015748},{"duration":0.15789450000000116,"midi":32,"time":28.736798999999998,"velocity":0.5039370078740157},{"duration":0.0789472499999988,"midi":88,"time":28.81574625,"velocity":0.15748031496062992},{"duration":0.0789472499999988,"midi":40,"time":28.8946935,"velocity":0.15748031496062992},{"duration":0.0789472499999988,"midi":56,"time":28.8946935,"velocity":0.23622047244094488},{"duration":0.0789472499999988,"midi":49,"time":28.8946935,"velocity":0.23622047244094488},{"duration":0.0789472499999988,"midi":52,"time":28.8946935,"velocity":0.23622047244094488},{"duration":0.15789450000000116,"midi":85,"time":28.8946935,"velocity":0.15748031496062992},{"duration":0.0789472499999988,"midi":44,"time":28.8946935,"velocity":0.15748031496062992},{"duration":0.07894725000000236,"midi":80,"time":28.973640749999998,"velocity":0.15748031496062992},{"duration":0.1578944999999976,"midi":43,"time":29.052588,"velocity":0.5039370078740157},{"duration":0.4736834999999999,"midi":83,"time":29.052588,"velocity":0.3937007874015748},{"duration":0.0789472499999988,"midi":67,"time":29.052588,"velocity":0.15748031496062992},{"duration":0.23684174999999996,"midi":75,"time":29.052588,"velocity":0.3937007874015748},{"duration":0.39473624999999757,"midi":87,"time":29.052588,"velocity":0.3937007874015748},{"duration":0.4736834999999999,"midi":71,"time":29.052588,"velocity":0.3937007874015748},{"duration":0.0789472499999988,"midi":70,"time":29.13153525,"velocity":0.15748031496062992},{"duration":0.07894725000000236,"midi":58,"time":29.210482499999998,"velocity":0.23622047244094488},{"duration":0.07894725000000236,"midi":61,"time":29.210482499999998,"velocity":0.23622047244094488},{"duration":0.07894725000000236,"midi":55,"time":29.210482499999998,"velocity":0.23622047244094488},{"duration":0.07894725000000236,"midi":46,"time":29.210482499999998,"velocity":0.15748031496062992},{"duration":0.3157890000000023,"midi":75,"time":29.210482499999998,"velocity":0.15748031496062992},{"duration":0.07894725000000236,"midi":49,"time":29.210482499999998,"velocity":0.15748031496062992},{"duration":0.0789472499999988,"midi":79,"time":29.28942975,"velocity":0.15748031496062992},{"duration":0.15789450000000116,"midi":87,"time":29.368377,"velocity":0.15748031496062992},{"duration":0.15789450000000116,"midi":39,"time":29.368377,"velocity":0.5039370078740157},{"duration":0.07894725000000236,"midi":82,"time":29.447324249999998,"velocity":0.15748031496062992},{"duration":0.0789472499999988,"midi":76,"time":29.5262715,"velocity":0.3937007874015748},{"duration":0.0789472499999988,"midi":61,"time":29.5262715,"velocity":0.23622047244094488},{"duration":0.0789472499999988,"midi":46,"time":29.5262715,"velocity":0.15748031496062992},{"duration":0.0789472499999988,"midi":73,"time":29.5262715,"velocity":0.3937007874015748},{"duration":0.0789472499999988,"midi":58,"time":29.5262715,"velocity":0.23622047244094488},{"duration":0.0789472499999988,"midi":55,"time":29.5262715,"velocity":0.23622047244094488},{"duration":0.0789472499999988,"midi":85,"time":29.5262715,"velocity":0.3937007874015748},{"duration":0.0789472499999988,"midi":88,"time":29.5262715,"velocity":0.3937007874015748},{"duration":0.0789472499999988,"midi":79,"time":29.5262715,"velocity":0.15748031496062992},{"duration":0.0789472499999988,"midi":49,"time":29.5262715,"velocity":0.15748031496062992},{"duration":0.0789472499999988,"midi":75,"time":29.60521875,"velocity":0.15748031496062992},{"duration":0.0789472499999988,"midi":87,"time":29.60521875,"velocity":0.3937007874015748},{"duration":0.0789472499999988,"midi":71,"time":29.60521875,"velocity":0.3937007874015748},{"duration":0.0789472499999988,"midi":83,"time":29.60521875,"velocity":0.3937007874015748},{"duration":0.0789472499999988,"midi":75,"time":29.60521875,"velocity":0.3937007874015748},{"duration":0.07894725000000236,"midi":67,"time":29.684165999999998,"velocity":0.15748031496062992},{"duration":0.4736834999999999,"midi":82,"time":29.684165999999998,"velocity":0.3937007874015748},{"duration":0.15789450000000116,"midi":43,"time":29.684165999999998,"velocity":0.5039370078740157},{"duration":0.6315780000000011,"midi":73,"time":29.684165999999998,"velocity":0.3937007874015748},{"duration":0.6315780000000011,"midi":85,"time":29.684165999999998,"velocity":0.3937007874015748},{"duration":0.15789450000000116,"midi":70,"time":29.684165999999998,"velocity":0.3937007874015748},{"duration":0.5526307499999987,"midi":70,"time":29.76311325,"velocity":0.15748031496062992},{"duration":0.0789472499999988,"midi":58,"time":29.8420605,"velocity":0.23622047244094488},{"duration":0.0789472499999988,"midi":61,"time":29.8420605,"velocity":0.23622047244094488},{"duration":0.0789472499999988,"midi":46,"time":29.8420605,"velocity":0.15748031496062992},{"duration":0.0789472499999988,"midi":55,"time":29.8420605,"velocity":0.23622047244094488},{"duration":0.0789472499999988,"midi":75,"time":29.8420605,"velocity":0.15748031496062992},{"duration":0.0789472499999988,"midi":49,"time":29.8420605,"velocity":0.15748031496062992},{"duration":0.07894725000000236,"midi":79,"time":29.921007749999998,"velocity":0.15748031496062992},{"duration":0.0789472499999988,"midi":87,"time":29.999955,"velocity":0.15748031496062992},{"duration":0.1578944999999976,"midi":39,"time":29.999955,"velocity":0.5039370078740157},{"duration":0.23684174999999996,"midi":82,"time":30.07890225,"velocity":0.15748031496062992},{"duration":0.07894725000000236,"midi":61,"time":30.157849499999998,"velocity":0.23622047244094488},{"duration":0.07894725000000236,"midi":46,"time":30.157849499999998,"velocity":0.15748031496062992},{"duration":0.07894725000000236,"midi":58,"time":30.157849499999998,"velocity":0.23622047244094488},{"duration":0.07894725000000236,"midi":49,"time":30.157849499999998,"velocity":0.15748031496062992},{"duration":0.07894725000000236,"midi":55,"time":30.157849499999998,"velocity":0.23622047244094488},{"duration":0.07894725000000236,"midi":79,"time":30.157849499999998,"velocity":0.15748031496062992},{"duration":0.0789472499999988,"midi":75,"time":30.23679675,"velocity":0.15748031496062992},{"duration":0.3947362500000011,"midi":83,"time":30.315744,"velocity":0.3937007874015748},{"duration":0.23684174999999996,"midi":71,"time":30.315744,"velocity":0.3937007874015748},{"duration":0.4736834999999999,"midi":80,"time":30.315744,"velocity":0.3937007874015748},{"duration":0.15789450000000116,"midi":68,"time":30.315744,"velocity":0.3937007874015748},{"duration":0.0789472499999988,"midi":64,"time":30.315744,"velocity":0.15748031496062992},{"duration":0.15789450000000116,"midi":40,"time":30.315744,"velocity":0.5039370078740157},{"duration":0.7105252499999999,"midi":68,"time":30.394691249999997,"velocity":0.15748031496062992},{"duration":0.0789472499999988,"midi":44,"time":30.4736385,"velocity":0.15748031496062992},{"duration":0.0789472499999988,"midi":56,"time":30.4736385,"velocity":0.23622047244094488},{"duration":0.4736834999999999,"midi":71,"time":30.4736385,"velocity":0.15748031496062992},{"duration":0.0789472499999988,"midi":59,"time":30.4736385,"velocity":0.23622047244094488},{"duration":0.0789472499999988,"midi":52,"time":30.4736385,"velocity":0.23622047244094488},{"duration":0.0789472499999988,"midi":47,"time":30.4736385,"velocity":0.15748031496062992},{"duration":0.0789472499999988,"midi":76,"time":30.55258575,"velocity":0.15748031496062992},{"duration":0.7105252499999999,"midi":83,"time":30.631532999999997,"velocity":0.15748031496062992},{"duration":0.15789450000000116,"midi":35,"time":30.631532999999997,"velocity":0.5039370078740157},{"duration":0.7105252499999999,"midi":80,"time":30.71048025,"velocity":0.15748031496062992},{"duration":0.0789472499999988,"midi":56,"time":30.7894275,"velocity":0.23622047244094488},{"duration":0.0789472499999988,"midi":44,"time":30.7894275,"velocity":0.15748031496062992},{"duration":0.0789472499999988,"midi":59,"time":30.7894275,"velocity":0.23622047244094488},{"duration":0.0789472499999988,"midi":47,"time":30.7894275,"velocity":0.15748031496062992},{"duration":0.0789472499999988,"midi":52,"time":30.7894275,"velocity":0.23622047244094488},{"duration":0.0789472499999988,"midi":76,"time":30.7894275,"velocity":0.15748031496062992},{"duration":0.3157890000000023,"midi":71,"time":30.868374749999997,"velocity":0.15748031496062992},{"duration":0.1578944999999976,"midi":40,"time":30.947322,"velocity":0.5039370078740157},{"duration":0.0789472499999988,"midi":64,"time":30.947322,"velocity":0.15748031496062992},{"duration":0.5526307499999987,"midi":68,"time":31.02626925,"velocity":0.15748031496062992},{"duration":0.07894725000000236,"midi":44,"time":31.105216499999997,"velocity":0.15748031496062992},{"duration":0.4736834999999999,"midi":71,"time":31.105216499999997,"velocity":0.15748031496062992},{"duration":0.07894725000000236,"midi":56,"time":31.105216499999997,"velocity":0.23622047244094488},{"duration":0.07894725000000236,"midi":47,"time":31.105216499999997,"velocity":0.15748031496062992},{"duration":0.07894725000000236,"midi":59,"time":31.105216499999997,"velocity":0.23622047244094488},{"duration":0.07894725000000236,"midi":52,"time":31.105216499999997,"velocity":0.23622047244094488},{"duration":0.0789472499999988,"midi":76,"time":31.18416375,"velocity":0.15748031496062992},{"duration":0.31578899999999877,"midi":83,"time":31.263111,"velocity":0.15748031496062992},{"duration":0.15789450000000116,"midi":35,"time":31.263111,"velocity":0.5039370078740157},{"duration":0.23684174999999996,"midi":80,"time":31.342058249999997,"velocity":0.15748031496062992},{"duration":0.0789472499999988,"midi":44,"time":31.4210055,"velocity":0.15748031496062992},{"duration":0.0789472499999988,"midi":47,"time":31.4210055,"velocity":0.15748031496062992},{"duration":0.0789472499999988,"midi":76,"time":31.4210055,"velocity":0.15748031496062992},{"duration":0.0789472499999988,"midi":56,"time":31.4210055,"velocity":0.23622047244094488},{"duration":0.0789472499999988,"midi":59,"time":31.4210055,"velocity":0.23622047244094488},{"duration":0.0789472499999988,"midi":52,"time":31.4210055,"velocity":0.23622047244094488},{"duration":0.0789472499999988,"midi":71,"time":31.49995275,"velocity":0.15748031496062992},{"duration":0.07894725000000236,"midi":66,"time":31.578899999999997,"velocity":0.15748031496062992},{"duration":0.15789450000000116,"midi":42,"time":31.578899999999997,"velocity":0.5039370078740157},{"duration":0.0789472499999988,"midi":70,"time":31.65784725,"velocity":0.15748031496062992},{"duration":0.0789472499999988,"midi":58,"time":31.7367945,"velocity":0.23622047244094488},{"duration":0.0789472499999988,"midi":61,"time":31.7367945,"velocity":0.23622047244094488},{"duration":0.0789472499999988,"midi":49,"time":31.7367945,"velocity":0.15748031496062992},{"duration":0.15789450000000116,"midi":83,"time":31.7367945,"velocity":0.3937007874015748},{"duration":0.15789450000000116,"midi":68,"time":31.7367945,"velocity":0.3937007874015748},{"duration":0.15789450000000116,"midi":71,"time":31.7367945,"velocity":0.3937007874015748},{"duration":0.0789472499999988,"midi":46,"time":31.7367945,"velocity":0.15748031496062992},{"duration":0.15789450000000116,"midi":80,"time":31.7367945,"velocity":0.3937007874015748},{"duration":0.0789472499999988,"midi":54,"time":31.7367945,"velocity":0.23622047244094488},{"duration":0.0789472499999988,"midi":73,"time":31.7367945,"velocity":0.15748031496062992},{"duration":0.07894725000000236,"midi":78,"time":31.815741749999997,"velocity":0.15748031496062992},{"duration":0.1578944999999976,"midi":70,"time":31.894689,"velocity":0.3937007874015748},{"duration":0.1578944999999976,"midi":78,"time":31.894689,"velocity":0.3937007874015748},{"duration":0.1578944999999976,"midi":66,"time":31.894689,"velocity":0.3937007874015748},{"duration":0.0789472499999988,"midi":85,"time":31.894689,"velocity":0.15748031496062992},{"duration":0.1578944999999976,"midi":37,"time":31.894689,"velocity":0.5039370078740157},{"duration":0.1578944999999976,"midi":82,"time":31.894689,"velocity":0.3937007874015748},{"duration":0.0789472499999988,"midi":82,"time":31.97363625,"velocity":0.15748031496062992},{"duration":0.0789472499999988,"midi":61,"time":32.0525835,"velocity":0.23622047244094488},{"duration":0.1578945000000047,"midi":71,"time":32.0525835,"velocity":0.3937007874015748},{"duration":0.1578945000000047,"midi":83,"time":32.0525835,"velocity":0.3937007874015748},{"duration":0.0789472499999988,"midi":58,"time":32.0525835,"velocity":0.23622047244094488},{"duration":0.0789472499999988,"midi":54,"time":32.0525835,"velocity":0.23622047244094488},{"duration":0.0789472499999988,"midi":78,"time":32.0525835,"velocity":0.15748031496062992},{"duration":0.1578945000000047,"midi":80,"time":32.0525835,"velocity":0.3937007874015748},{"duration":0.0789472499999988,"midi":49,"time":32.0525835,"velocity":0.15748031496062992},{"duration":0.1578945000000047,"midi":68,"time":32.0525835,"velocity":0.3937007874015748},{"duration":0.0789472499999988,"midi":46,"time":32.0525835,"velocity":0.15748031496062992},{"duration":0.07894725000000591,"midi":73,"time":32.131530749999996,"velocity":0.15748031496062992},{"duration":0.1578944999999976,"midi":42,"time":32.210478,"velocity":0.5039370078740157},{"duration":0.3157889999999952,"midi":90,"time":32.210478,"velocity":0.3937007874015748},{"duration":0.3157889999999952,"midi":75,"time":32.210478,"velocity":0.3937007874015748},{"duration":0.3157889999999952,"midi":78,"time":32.210478,"velocity":0.3937007874015748},{"duration":0.3157889999999952,"midi":87,"time":32.210478,"velocity":0.3937007874015748},{"duration":0.0789472499999988,"midi":66,"time":32.210478,"velocity":0.15748031496062992},{"duration":0.0789472499999988,"midi":70,"time":32.28942525,"velocity":0.15748031496062992},{"duration":0.0789472499999988,"midi":73,"time":32.3683725,"velocity":0.15748031496062992},{"duration":0.0789472499999988,"midi":49,"time":32.3683725,"velocity":0.15748031496062992},{"duration":0.0789472499999988,"midi":61,"time":32.3683725,"velocity":0.23622047244094488},{"duration":0.0789472499999988,"midi":58,"time":32.3683725,"velocity":0.23622047244094488},{"duration":0.0789472499999988,"midi":54,"time":32.3683725,"velocity":0.23622047244094488},{"duration":0.0789472499999988,"midi":46,"time":32.3683725,"velocity":0.15748031496062992},{"duration":0.0789472499999988,"midi":78,"time":32.44731975,"velocity":0.15748031496062992},{"duration":0.1578945000000047,"midi":66,"time":32.526267,"velocity":0.3937007874015748},{"duration":0.1578945000000047,"midi":82,"time":32.526267,"velocity":0.3937007874015748},{"duration":0.1578945000000047,"midi":78,"time":32.526267,"velocity":0.3937007874015748},{"duration":0.0789472499999988,"midi":85,"time":32.526267,"velocity":0.15748031496062992},{"duration":0.1578945000000047,"midi":37,"time":32.526267,"velocity":0.5039370078740157},{"duration":0.1578945000000047,"midi":70,"time":32.526267,"velocity":0.3937007874015748},{"duration":0.07894725000000591,"midi":82,"time":32.605214249999996,"velocity":0.15748031496062992},{"duration":0.0789472499999988,"midi":49,"time":32.6841615,"velocity":0.15748031496062992},{"duration":0.0789472499999988,"midi":54,"time":32.6841615,"velocity":0.23622047244094488},{"duration":0.4736834999999999,"midi":80,"time":32.6841615,"velocity":0.3937007874015748},{"duration":0.2368417499999964,"midi":68,"time":32.6841615,"velocity":0.3937007874015748},{"duration":0.0789472499999988,"midi":61,"time":32.6841615,"velocity":0.23622047244094488},{"duration":0.0789472499999988,"midi":78,"time":32.6841615,"velocity":0.15748031496062992},{"duration":0.6315779999999975,"midi":83,"time":32.6841615,"velocity":0.3937007874015748},{"duration":0.3157889999999952,"midi":71,"time":32.6841615,"velocity":0.3937007874015748},{"duration":0.0789472499999988,"midi":46,"time":32.6841615,"velocity":0.15748031496062992},{"duration":0.0789472499999988,"midi":58,"time":32.6841615,"velocity":0.23622047244094488},{"duration":0.0789472499999988,"midi":73,"time":32.76310875,"velocity":0.15748031496062992},{"duration":0.7105252499999963,"midi":68,"time":32.842056,"velocity":0.15748031496062992},{"duration":0.1578944999999976,"midi":44,"time":32.842056,"velocity":0.5039370078740157},{"duration":0.7105252500000034,"midi":71,"time":32.92100325,"velocity":0.15748031496062992},{"duration":0.0789472499999988,"midi":47,"time":32.9999505,"velocity":0.15748031496062992},{"duration":0.0789472499999988,"midi":63,"time":32.9999505,"velocity":0.23622047244094488},{"duration":0.0789472499999988,"midi":59,"time":32.9999505,"velocity":0.23622047244094488},{"duration":0.0789472499999988,"midi":75,"time":32.9999505,"velocity":0.15748031496062992},{"duration":0.0789472499999988,"midi":56,"time":32.9999505,"velocity":0.23622047244094488},{"duration":0.0789472499999988,"midi":51,"time":32.9999505,"velocity":0.15748031496062992},{"duration":0.3157890000000023,"midi":80,"time":33.078897749999996,"velocity":0.15748031496062992},{"duration":0.1578944999999976,"midi":39,"time":33.157845,"velocity":0.5039370078740157},{"duration":0.0789472499999988,"midi":87,"time":33.157845,"velocity":0.15748031496062992},{"duration":0.7105252499999963,"midi":83,"time":33.23679225,"velocity":0.15748031496062992},{"duration":0.0789472499999988,"midi":47,"time":33.3157395,"velocity":0.15748031496062992},{"duration":0.0789472499999988,"midi":56,"time":33.3157395,"velocity":0.23622047244094488},{"duration":0.0789472499999988,"midi":51,"time":33.3157395,"velocity":0.15748031496062992},{"duration":0.4736834999999999,"midi":80,"time":33.3157395,"velocity":0.15748031496062992},{"duration":0.0789472499999988,"midi":63,"time":33.3157395,"velocity":0.23622047244094488},{"duration":0.0789472499999988,"midi":59,"time":33.3157395,"velocity":0.23622047244094488},{"duration":0.0789472499999988,"midi":75,"time":33.39468675,"velocity":0.15748031496062992},{"duration":0.7894725000000022,"midi":68,"time":33.473634,"velocity":0.15748031496062992},{"duration":0.1578945000000047,"midi":44,"time":33.473634,"velocity":0.5039370078740157},{"duration":0.7105252500000034,"midi":71,"time":33.552581249999996,"velocity":0.15748031496062992},{"duration":0.0789472499999988,"midi":75,"time":33.6315285,"velocity":0.15748031496062992},{"duration":0.0789472499999988,"midi":63,"time":33.6315285,"velocity":0.23622047244094488},{"duration":0.0789472499999988,"midi":59,"time":33.6315285,"velocity":0.23622047244094488},{"duration":0.0789472499999988,"midi":47,"time":33.6315285,"velocity":0.15748031496062992},{"duration":0.0789472499999988,"midi":56,"time":33.6315285,"velocity":0.23622047244094488},{"duration":0.0789472499999988,"midi":51,"time":33.6315285,"velocity":0.15748031496062992},{"duration":0.3157889999999952,"midi":80,"time":33.71047575,"velocity":0.15748031496062992},{"duration":0.1578944999999976,"midi":39,"time":33.789423,"velocity":0.5039370078740157},{"duration":0.0789472499999988,"midi":87,"time":33.789423,"velocity":0.15748031496062992},{"duration":0.3947362500000011,"midi":83,"time":33.86837025,"velocity":0.15748031496062992},{"duration":0.3157890000000023,"midi":80,"time":33.9473175,"velocity":0.15748031496062992},{"duration":0.0789472499999988,"midi":59,"time":33.9473175,"velocity":0.23622047244094488},{"duration":0.0789472499999988,"midi":56,"time":33.9473175,"velocity":0.23622047244094488},{"duration":0.0789472499999988,"midi":63,"time":33.9473175,"velocity":0.23622047244094488},{"duration":0.0789472499999988,"midi":47,"time":33.9473175,"velocity":0.15748031496062992},{"duration":0.0789472499999988,"midi":51,"time":33.9473175,"velocity":0.15748031496062992},{"duration":0.07894725000000591,"midi":75,"time":34.026264749999996,"velocity":0.15748031496062992},{"duration":0.1578944999999976,"midi":39,"time":34.105212,"velocity":0.5039370078740157},{"duration":0.0789472499999988,"midi":63,"time":34.105212,"velocity":0.15748031496062992},{"duration":0.0789472499999988,"midi":66,"time":34.18415925,"velocity":0.15748031496062992},{"duration":0.0789472499999988,"midi":46,"time":34.2631065,"velocity":0.15748031496062992},{"duration":0.1578944999999976,"midi":68,"time":34.2631065,"velocity":0.3937007874015748},{"duration":0.0789472499999988,"midi":51,"time":34.2631065,"velocity":0.23622047244094488},{"duration":0.1578944999999976,"midi":80,"time":34.2631065,"velocity":0.3937007874015748},{"duration":0.0789472499999988,"midi":58,"time":34.2631065,"velocity":0.23622047244094488},{"duration":0.0789472499999988,"midi":42,"time":34.2631065,"velocity":0.15748031496062992},{"duration":0.1578944999999976,"midi":83,"time":34.2631065,"velocity":0.3937007874015748},{"duration":0.0789472499999988,"midi":54,"time":34.2631065,"velocity":0.23622047244094488},{"duration":0.1578944999999976,"midi":71,"time":34.2631065,"velocity":0.3937007874015748},{"duration":0.0789472499999988,"midi":70,"time":34.2631065,"velocity":0.15748031496062992},{"duration":0.0789472499999988,"midi":75,"time":34.34205375,"velocity":0.15748031496062992},{"duration":0.0789472499999988,"midi":82,"time":34.421001,"velocity":0.15748031496062992},{"duration":0.1578945000000047,"midi":66,"time":34.421001,"velocity":0.3937007874015748},{"duration":0.1578945000000047,"midi":78,"time":34.421001,"velocity":0.3937007874015748},{"duration":0.1578945000000047,"midi":34,"time":34.421001,"velocity":0.5039370078740157},{"duration":0.1578945000000047,"midi":70,"time":34.421001,"velocity":0.3937007874015748},{"duration":0.1578945000000047,"midi":82,"time":34.421001,"velocity":0.3937007874015748},{"duration":0.07894725000000591,"midi":78,"time":34.499948249999996,"velocity":0.15748031496062992},{"duration":0.0789472499999988,"midi":54,"time":34.5788955,"velocity":0.23622047244094488},{"duration":0.1578944999999976,"midi":76,"time":34.5788955,"velocity":0.3937007874015748},{"duration":0.0789472499999988,"midi":75,"time":34.5788955,"velocity":0.15748031496062992},{"duration":0.1578944999999976,"midi":80,"time":34.5788955,"velocity":0.3937007874015748},{"duration":0.0789472499999988,"midi":51,"time":34.5788955,"velocity":0.23622047244094488},{"duration":0.0789472499999988,"midi":42,"time":34.5788955,"velocity":0.15748031496062992},{"duration":0.0789472499999988,"midi":58,"time":34.5788955,"velocity":0.23622047244094488},{"duration":0.1578944999999976,"midi":64,"time":34.5788955,"velocity":0.3937007874015748},{"duration":0.1578944999999976,"midi":68,"time":34.5788955,"velocity":0.3937007874015748},{"duration":0.0789472499999988,"midi":46,"time":34.5788955,"velocity":0.15748031496062992},{"duration":0.0789472499999988,"midi":70,"time":34.65784275,"velocity":0.15748031496062992},{"duration":0.0789472499999988,"midi":63,"time":34.73679,"velocity":0.3937007874015748},{"duration":0.1578944999999976,"midi":39,"time":34.73679,"velocity":0.5039370078740157},{"duration":0.3157890000000023,"midi":63,"time":34.73679,"velocity":0.15748031496062992},{"duration":0.1578944999999976,"midi":66,"time":34.73679,"velocity":0.3937007874015748},{"duration":0.3157890000000023,"midi":75,"time":34.73679,"velocity":0.3937007874015748},{"duration":0.3157890000000023,"midi":78,"time":34.73679,"velocity":0.3937007874015748},{"duration":0.23684175000000351,"midi":66,"time":34.81573725,"velocity":0.15748031496062992},{"duration":0.0789472499999988,"midi":51,"time":34.8946845,"velocity":0.23622047244094488},{"duration":0.0789472499999988,"midi":58,"time":34.8946845,"velocity":0.23622047244094488},{"duration":0.0789472499999988,"midi":46,"time":34.8946845,"velocity":0.15748031496062992},{"duration":0.0789472499999988,"midi":70,"time":34.8946845,"velocity":0.15748031496062992},{"duration":0.0789472499999988,"midi":54,"time":34.8946845,"velocity":0.23622047244094488},{"duration":0.0789472499999988,"midi":42,"time":34.8946845,"velocity":0.15748031496062992},{"duration":0.07894725000000591,"midi":75,"time":34.973631749999996,"velocity":0.15748031496062992},{"duration":0.1578944999999976,"midi":34,"time":35.052579,"velocity":0.5039370078740157},{"duration":0.3157889999999952,"midi":70,"time":35.052579,"velocity":0.3937007874015748},{"duration":0.0789472499999988,"midi":82,"time":35.052579,"velocity":0.3937007874015748},{"duration":0.3157889999999952,"midi":82,"time":35.052579,"velocity":0.15748031496062992},{"duration":0.1578944999999976,"midi":78,"time":35.052579,"velocity":0.3937007874015748},{"duration":0.3157889999999952,"midi":66,"time":35.052579,"velocity":0.3937007874015748},{"duration":0.2368417499999964,"midi":78,"time":35.13152625,"velocity":0.15748031496062992},{"duration":0.0789472499999988,"midi":58,"time":35.2104735,"velocity":0.23622047244094488},{"duration":0.0789472499999988,"midi":46,"time":35.2104735,"velocity":0.15748031496062992},{"duration":0.0789472499999988,"midi":42,"time":35.2104735,"velocity":0.15748031496062992},{"duration":0.0789472499999988,"midi":54,"time":35.2104735,"velocity":0.23622047244094488},{"duration":0.0789472499999988,"midi":51,"time":35.2104735,"velocity":0.23622047244094488},{"duration":0.0789472499999988,"midi":75,"time":35.2104735,"velocity":0.15748031496062992},{"duration":0.0789472499999988,"midi":70,"time":35.28942075,"velocity":0.15748031496062992},{"duration":0.1578945000000047,"midi":83,"time":35.368368,"velocity":0.3937007874015748},{"duration":0.0789472499999988,"midi":64,"time":35.368368,"velocity":0.15748031496062992},{"duration":0.1578945000000047,"midi":80,"time":35.368368,"velocity":0.3937007874015748},{"duration":0.1578945000000047,"midi":68,"time":35.368368,"velocity":0.3937007874015748},{"duration":0.1578945000000047,"midi":71,"time":35.368368,"velocity":0.3937007874015748},{"duration":0.1578945000000047,"midi":40,"time":35.368368,"velocity":0.5039370078740157},{"duration":0.07894725000000591,"midi":68,"time":35.447315249999996,"velocity":0.15748031496062992},{"duration":0.0789472499999988,"midi":71,"time":35.5262625,"velocity":0.15748031496062992},{"duration":0.1578944999999976,"midi":70,"time":35.5262625,"velocity":0.3937007874015748},{"duration":0.1578944999999976,"midi":82,"time":35.5262625,"velocity":0.3937007874015748},{"duration":0.0789472499999988,"midi":59,"time":35.5262625,"velocity":0.23622047244094488},{"duration":0.1578944999999976,"midi":78,"time":35.5262625,"velocity":0.3937007874015748},{"duration":0.1578944999999976,"midi":66,"time":35.5262625,"velocity":0.3937007874015748},{"duration":0.0789472499999988,"midi":52,"time":35.5262625,"velocity":0.23622047244094488},{"duration":0.0789472499999988,"midi":44,"time":35.5262625,"velocity":0.15748031496062992},{"duration":0.0789472499999988,"midi":47,"time":35.5262625,"velocity":0.15748031496062992},{"duration":0.0789472499999988,"midi":56,"time":35.5262625,"velocity":0.23622047244094488},{"duration":0.0789472499999988,"midi":76,"time":35.60520975,"velocity":0.15748031496062992},{"duration":0.0789472499999988,"midi":83,"time":35.684157,"velocity":0.3937007874015748},{"duration":0.1578944999999976,"midi":83,"time":35.684157,"velocity":0.15748031496062992},{"duration":0.1578944999999976,"midi":80,"time":35.684157,"velocity":0.3937007874015748},{"duration":0.1578944999999976,"midi":71,"time":35.684157,"velocity":0.3937007874015748},{"duration":0.1578944999999976,"midi":68,"time":35.684157,"velocity":0.3937007874015748},{"duration":0.1578944999999976,"midi":35,"time":35.684157,"velocity":0.5039370078740157},{"duration":0.0789472499999988,"midi":80,"time":35.76310425,"velocity":0.15748031496062992},{"duration":0.0789472499999988,"midi":56,"time":35.8420515,"velocity":0.23622047244094488},{"duration":0.0789472499999988,"midi":52,"time":35.8420515,"velocity":0.23622047244094488},{"duration":0.1578945000000047,"midi":71,"time":35.8420515,"velocity":0.3937007874015748},{"duration":0.0789472499999988,"midi":76,"time":35.8420515,"velocity":0.15748031496062992},{"duration":0.4736834999999999,"midi":83,"time":35.8420515,"velocity":0.3937007874015748},{"duration":0.4736834999999999,"midi":78,"time":35.8420515,"velocity":0.3937007874015748},{"duration":0.0789472499999988,"midi":59,"time":35.8420515,"velocity":0.23622047244094488},{"duration":0.0789472499999988,"midi":44,"time":35.8420515,"velocity":0.15748031496062992},{"duration":0.0789472499999988,"midi":47,"time":35.8420515,"velocity":0.15748031496062992},{"duration":0.4736834999999999,"midi":90,"time":35.8420515,"velocity":0.3937007874015748},{"duration":0.3157890000000023,"midi":71,"time":35.920998749999995,"velocity":0.15748031496062992},{"duration":0.0789472499999988,"midi":64,"time":35.999946,"velocity":0.15748031496062992},{"duration":0.1578944999999976,"midi":40,"time":35.999946,"velocity":0.5039370078740157},{"duration":0.0789472499999988,"midi":68,"time":36.07889325,"velocity":0.15748031496062992},{"duration":0.0789472499999988,"midi":56,"time":36.1578405,"velocity":0.23622047244094488},{"duration":0.0789472499999988,"midi":44,"time":36.1578405,"velocity":0.15748031496062992},{"duration":0.0789472499999988,"midi":47,"time":36.1578405,"velocity":0.15748031496062992},{"duration":0.0789472499999988,"midi":59,"time":36.1578405,"velocity":0.23622047244094488},{"duration":0.0789472499999988,"midi":52,"time":36.1578405,"velocity":0.23622047244094488},{"duration":0.1578944999999976,"midi":71,"time":36.1578405,"velocity":0.15748031496062992},{"duration":0.0789472499999988,"midi":76,"time":36.23678775,"velocity":0.15748031496062992},{"duration":0.1578945000000047,"midi":35,"time":36.315735,"velocity":0.5039370078740157},{"duration":0.1578945000000047,"midi":75,"time":36.315735,"velocity":0.3937007874015748},{"duration":0.1578945000000047,"midi":78,"time":36.315735,"velocity":0.3937007874015748},{"duration":0.1578945000000047,"midi":90,"time":36.315735,"velocity":0.3937007874015748},{"duration":0.0789472499999988,"midi":83,"time":36.315735,"velocity":0.15748031496062992},{"duration":0.1578945000000047,"midi":87,"time":36.315735,"velocity":0.3937007874015748},{"duration":0.07894725000000591,"midi":80,"time":36.394682249999995,"velocity":0.15748031496062992},{"duration":0.1578944999999976,"midi":92,"time":36.4736295,"velocity":0.3937007874015748},{"duration":0.0789472499999988,"midi":44,"time":36.4736295,"velocity":0.15748031496062992},{"duration":0.0789472499999988,"midi":76,"time":36.4736295,"velocity":0.15748031496062992},{"duration":0.1578944999999976,"midi":76,"time":36.4736295,"velocity":0.3937007874015748},{"duration":0.0789472499999988,"midi":56,"time":36.4736295,"velocity":0.23622047244094488},{"duration":0.0789472499999988,"midi":52,"time":36.4736295,"velocity":0.23622047244094488},{"duration":0.1578944999999976,"midi":88,"time":36.4736295,"velocity":0.3937007874015748},{"duration":0.1578944999999976,"midi":80,"time":36.4736295,"velocity":0.3937007874015748},{"duration":0.0789472499999988,"midi":47,"time":36.4736295,"velocity":0.15748031496062992},{"duration":0.0789472499999988,"midi":59,"time":36.4736295,"velocity":0.23622047244094488},{"duration":0.0789472499999988,"midi":71,"time":36.55257675,"velocity":0.15748031496062992},{"duration":0.3157890000000023,"midi":90,"time":36.631524,"velocity":0.3937007874015748},{"duration":0.3157890000000023,"midi":87,"time":36.631524,"velocity":0.3937007874015748},{"duration":0.2368417499999964,"midi":78,"time":36.631524,"velocity":0.3937007874015748},{"duration":0.1578944999999976,"midi":75,"time":36.631524,"velocity":0.3937007874015748},{"duration":0.0789472499999988,"midi":71,"time":36.631524,"velocity":0.15748031496062992},{"duration":0.1578944999999976,"midi":47,"time":36.631524,"velocity":0.5039370078740157},{"duration":0.23684175000000351,"midi":75,"time":36.71047125,"velocity":0.15748031496062992},{"duration":0.0789472499999988,"midi":54,"time":36.7894185,"velocity":0.15748031496062992},{"duration":0.0789472499999988,"midi":51,"time":36.7894185,"velocity":0.15748031496062992},{"duration":0.0789472499999988,"midi":66,"time":36.7894185,"velocity":0.23622047244094488},{"duration":0.1578945000000047,"midi":78,"time":36.7894185,"velocity":0.15748031496062992},{"duration":0.0789472499999988,"midi":63,"time":36.7894185,"velocity":0.23622047244094488},{"duration":0.0789472499999988,"midi":59,"time":36.7894185,"velocity":0.23622047244094488},{"duration":0.0789472499999988,"midi":47,"time":36.7894185,"velocity":0.15748031496062992},{"duration":0.07894725000000591,"midi":83,"time":36.868365749999995,"velocity":0.15748031496062992},{"duration":0.1578944999999976,"midi":73,"time":36.947313,"velocity":0.3937007874015748},{"duration":0.1578944999999976,"midi":42,"time":36.947313,"velocity":0.5039370078740157},{"duration":0.1578944999999976,"midi":85,"time":36.947313,"velocity":0.3937007874015748},{"duration":0.1578944999999976,"midi":76,"time":36.947313,"velocity":0.3937007874015748},{"duration":0.0789472499999988,"midi":90,"time":36.947313,"velocity":0.15748031496062992},{"duration":0.1578944999999976,"midi":88,"time":36.947313,"velocity":0.3937007874015748},{"duration":0.0789472499999988,"midi":87,"time":37.02626025,"velocity":0.15748031496062992},{"duration":0.4736834999999999,"midi":87,"time":37.1052075,"velocity":0.3937007874015748},{"duration":0.0789472499999988,"midi":54,"time":37.1052075,"velocity":0.15748031496062992},{"duration":0.2368417499999964,"midi":71,"time":37.1052075,"velocity":0.3937007874015748},{"duration":0.0789472499999988,"midi":47,"time":37.1052075,"velocity":0.15748031496062992},{"duration":0.0789472499999988,"midi":63,"time":37.1052075,"velocity":0.23622047244094488},{"duration":0.0789472499999988,"midi":83,"time":37.1052075,"velocity":0.15748031496062992},{"duration":0.0789472499999988,"midi":51,"time":37.1052075,"velocity":0.15748031496062992},{"duration":0.0789472499999988,"midi":66,"time":37.1052075,"velocity":0.23622047244094488},{"duration":0.0789472499999988,"midi":59,"time":37.1052075,"velocity":0.23622047244094488},{"duration":0.4736834999999999,"midi":83,"time":37.1052075,"velocity":0.3937007874015748},{"duration":0.3157890000000023,"midi":75,"time":37.1052075,"velocity":0.3937007874015748},{"duration":0.0789472499999988,"midi":78,"time":37.18415475,"velocity":0.15748031496062992},{"duration":0.3157890000000023,"midi":71,"time":37.263101999999996,"velocity":0.15748031496062992},{"duration":0.1578945000000047,"midi":47,"time":37.263101999999996,"velocity":0.5039370078740157},{"duration":0.23684175000000351,"midi":75,"time":37.342049249999995,"velocity":0.15748031496062992},{"duration":0.0789472499999988,"midi":66,"time":37.4209965,"velocity":0.23622047244094488},{"duration":0.0789472499999988,"midi":63,"time":37.4209965,"velocity":0.23622047244094488},{"duration":0.0789472499999988,"midi":54,"time":37.4209965,"velocity":0.15748031496062992},{"duration":0.0789472499999988,"midi":59,"time":37.4209965,"velocity":0.23622047244094488},{"duration":0.0789472499999988,"midi":51,"time":37.4209965,"velocity":0.15748031496062992},{"duration":0.0789472499999988,"midi":47,"time":37.4209965,"velocity":0.15748031496062992},{"duration":0.0789472499999988,"midi":78,"time":37.4209965,"velocity":0.15748031496062992},{"duration":0.0789472499999988,"midi":83,"time":37.49994375,"velocity":0.15748031496062992},{"duration":0.1578944999999976,"midi":42,"time":37.578891,"velocity":0.5039370078740157},{"duration":0.0789472499999988,"midi":90,"time":37.578891,"velocity":0.15748031496062992},{"duration":0.3157890000000023,"midi":71,"time":37.578891,"velocity":0.3937007874015748},{"duration":0.3157890000000023,"midi":75,"time":37.578891,"velocity":0.3937007874015748},{"duration":0.2368417499999964,"midi":83,"time":37.578891,"velocity":0.3937007874015748},{"duration":0.0789472499999988,"midi":87,"time":37.65783825,"velocity":0.15748031496062992},{"duration":0.0789472499999988,"midi":59,"time":37.736785499999996,"velocity":0.23622047244094488},{"duration":0.0789472499999988,"midi":66,"time":37.736785499999996,"velocity":0.23622047244094488},{"duration":0.0789472499999988,"midi":63,"time":37.736785499999996,"velocity":0.23622047244094488},{"duration":0.0789472499999988,"midi":51,"time":37.736785499999996,"velocity":0.15748031496062992},{"duration":0.0789472499999988,"midi":47,"time":37.736785499999996,"velocity":0.15748031496062992},{"duration":0.0789472499999988,"midi":54,"time":37.736785499999996,"velocity":0.15748031496062992},{"duration":0.1578945000000047,"midi":83,"time":37.736785499999996,"velocity":0.15748031496062992},{"duration":0.07894725000000591,"midi":78,"time":37.815732749999995,"velocity":0.15748031496062992},{"duration":0.1578944999999976,"midi":76,"time":37.89468,"velocity":0.3937007874015748},{"duration":0.0789472499999988,"midi":73,"time":37.89468,"velocity":0.15748031496062992},{"duration":0.3157889999999952,"midi":85,"time":37.89468,"velocity":0.3937007874015748},{"duration":0.4736834999999999,"midi":73,"time":37.89468,"velocity":0.3937007874015748},{"duration":0.1578944999999976,"midi":37,"time":37.89468,"velocity":0.5039370078740157},{"duration":0.3947362500000011,"midi":76,"time":37.97362725,"velocity":0.15748031496062992},{"duration":0.0789472499999988,"midi":44,"time":38.0525745,"velocity":0.15748031496062992},{"duration":0.0789472499999988,"midi":52,"time":38.0525745,"velocity":0.23622047244094488},{"duration":0.0789472499999988,"midi":80,"time":38.0525745,"velocity":0.15748031496062992},{"duration":0.0789472499999988,"midi":56,"time":38.0525745,"velocity":0.23622047244094488},{"duration":0.0789472499999988,"midi":40,"time":38.0525745,"velocity":0.15748031496062992},{"duration":0.0789472499999988,"midi":49,"time":38.0525745,"velocity":0.23622047244094488},{"duration":0.23684175000000351,"midi":85,"time":38.13152175,"velocity":0.15748031496062992},{"duration":0.1578945000000047,"midi":32,"time":38.210468999999996,"velocity":0.5039370078740157},{"duration":0.0789472499999988,"midi":92,"time":38.210468999999996,"velocity":0.15748031496062992},{"duration":0.07894725000000591,"midi":88,"time":38.289416249999995,"velocity":0.15748031496062992},{"duration":0.0789472499999988,"midi":49,"time":38.3683635,"velocity":0.23622047244094488},{"duration":0.0789472499999988,"midi":40,"time":38.3683635,"velocity":0.15748031496062992},{"duration":0.0789472499999988,"midi":52,"time":38.3683635,"velocity":0.23622047244094488},{"duration":0.2368417499999964,"midi":73,"time":38.3683635,"velocity":0.3937007874015748},{"duration":0.1578944999999976,"midi":80,"time":38.3683635,"velocity":0.3937007874015748},{"duration":0.0789472499999988,"midi":44,"time":38.3683635,"velocity":0.15748031496062992},{"duration":0.4736834999999999,"midi":68,"time":38.3683635,"velocity":0.3937007874015748},{"duration":0.0789472499999988,"midi":85,"time":38.3683635,"velocity":0.15748031496062992},{"duration":0.0789472499999988,"midi":56,"time":38.3683635,"velocity":0.23622047244094488},{"duration":0.3157889999999952,"midi":80,"time":38.44731075,"velocity":0.15748031496062992},{"duration":0.1578944999999976,"midi":37,"time":38.526258,"velocity":0.5039370078740157},{"duration":0.3157890000000023,"midi":73,"time":38.526258,"velocity":0.15748031496062992},{"duration":0.0789472499999988,"midi":76,"time":38.60520525,"velocity":0.15748031496062992},{"duration":0.0789472499999988,"midi":56,"time":38.684152499999996,"velocity":0.23622047244094488},{"duration":0.0789472499999988,"midi":52,"time":38.684152499999996,"velocity":0.23622047244094488},{"duration":0.0789472499999988,"midi":44,"time":38.684152499999996,"velocity":0.15748031496062992},{"duration":0.1578945000000047,"midi":80,"time":38.684152499999996,"velocity":0.15748031496062992},{"duration":0.0789472499999988,"midi":49,"time":38.684152499999996,"velocity":0.23622047244094488},{"duration":0.0789472499999988,"midi":40,"time":38.684152499999996,"velocity":0.15748031496062992},{"duration":0.07894725000000591,"midi":85,"time":38.763099749999995,"velocity":0.15748031496062992},{"duration":0.3157889999999952,"midi":76,"time":38.842047,"velocity":0.3937007874015748},{"duration":0.0789472499999988,"midi":92,"time":38.842047,"velocity":0.15748031496062992},{"duration":0.2368417499999964,"midi":85,"time":38.842047,"velocity":0.3937007874015748},{"duration":0.1578944999999976,"midi":32,"time":38.842047,"velocity":0.5039370078740157},{"duration":0.3157889999999952,"midi":73,"time":38.842047,"velocity":0.3937007874015748},{"duration":0.0789472499999988,"midi":88,"time":38.92099425,"velocity":0.15748031496062992},{"duration":0.0789472499999988,"midi":49,"time":38.9999415,"velocity":0.23622047244094488},{"duration":0.1578944999999976,"midi":85,"time":38.9999415,"velocity":0.15748031496062992},{"duration":0.0789472499999988,"midi":40,"time":38.9999415,"velocity":0.15748031496062992},{"duration":0.0789472499999988,"midi":44,"time":38.9999415,"velocity":0.15748031496062992},{"duration":0.0789472499999988,"midi":52,"time":38.9999415,"velocity":0.23622047244094488},{"duration":0.0789472499999988,"midi":56,"time":38.9999415,"velocity":0.23622047244094488},{"duration":0.0789472499999988,"midi":80,"time":39.07888875,"velocity":0.15748031496062992},{"duration":0.0789472499999988,"midi":67,"time":39.157835999999996,"velocity":0.15748031496062992},{"duration":0.1578945000000047,"midi":43,"time":39.157835999999996,"velocity":0.5039370078740157},{"duration":0.4736834999999999,"midi":83,"time":39.157835999999996,"velocity":0.3937007874015748},{"duration":0.3947362500000011,"midi":87,"time":39.157835999999996,"velocity":0.3937007874015748},{"duration":0.4736834999999999,"midi":71,"time":39.157835999999996,"velocity":0.3937007874015748},{"duration":0.23684175000000351,"midi":75,"time":39.157835999999996,"velocity":0.3937007874015748},{"duration":0.07894725000000591,"midi":70,"time":39.236783249999995,"velocity":0.15748031496062992},{"duration":0.0789472499999988,"midi":46,"time":39.3157305,"velocity":0.15748031496062992},{"duration":0.0789472499999988,"midi":49,"time":39.3157305,"velocity":0.15748031496062992},{"duration":0.0789472499999988,"midi":55,"time":39.3157305,"velocity":0.23622047244094488},{"duration":0.0789472499999988,"midi":58,"time":39.3157305,"velocity":0.23622047244094488},{"duration":0.3157889999999952,"midi":75,"time":39.3157305,"velocity":0.15748031496062992},{"duration":0.0789472499999988,"midi":61,"time":39.3157305,"velocity":0.23622047244094488},{"duration":0.0789472499999988,"midi":79,"time":39.39467775,"velocity":0.15748031496062992},{"duration":0.1578944999999976,"midi":87,"time":39.473625,"velocity":0.15748031496062992},{"duration":0.1578944999999976,"midi":39,"time":39.473625,"velocity":0.5039370078740157},{"duration":0.0789472499999988,"midi":82,"time":39.55257225,"velocity":0.15748031496062992},{"duration":0.0789472499999988,"midi":46,"time":39.631519499999996,"velocity":0.15748031496062992},{"duration":0.0789472499999988,"midi":55,"time":39.631519499999996,"velocity":0.23622047244094488},{"duration":0.0789472499999988,"midi":49,"time":39.631519499999996,"velocity":0.15748031496062992},{"duration":0.0789472499999988,"midi":76,"time":39.631519499999996,"velocity":0.3937007874015748},{"duration":0.0789472499999988,"midi":88,"time":39.631519499999996,"velocity":0.3937007874015748},{"duration":0.0789472499999988,"midi":85,"time":39.631519499999996,"velocity":0.3937007874015748},{"duration":0.0789472499999988,"midi":58,"time":39.631519499999996,"velocity":0.23622047244094488},{"duration":0.0789472499999988,"midi":61,"time":39.631519499999996,"velocity":0.23622047244094488},{"duration":0.0789472499999988,"midi":79,"time":39.631519499999996,"velocity":0.15748031496062992},{"duration":0.0789472499999988,"midi":73,"time":39.631519499999996,"velocity":0.3937007874015748},{"duration":0.07894725000000591,"midi":75,"time":39.710466749999995,"velocity":0.3937007874015748},{"duration":0.07894725000000591,"midi":71,"time":39.710466749999995,"velocity":0.3937007874015748},{"duration":0.07894725000000591,"midi":75,"time":39.710466749999995,"velocity":0.15748031496062992},{"duration":0.07894725000000591,"midi":83,"time":39.710466749999995,"velocity":0.3937007874015748},{"duration":0.07894725000000591,"midi":87,"time":39.710466749999995,"velocity":0.3937007874015748},{"duration":0.6315779999999975,"midi":73,"time":39.789414,"velocity":0.3937007874015748},{"duration":0.1578944999999976,"midi":43,"time":39.789414,"velocity":0.5039370078740157},{"duration":0.4736834999999999,"midi":82,"time":39.789414,"velocity":0.3937007874015748},{"duration":0.0789472499999988,"midi":67,"time":39.789414,"velocity":0.15748031496062992},{"duration":0.6315779999999975,"midi":85,"time":39.789414,"velocity":0.3937007874015748},{"duration":0.1578944999999976,"midi":70,"time":39.789414,"velocity":0.3937007874015748},{"duration":0.5526307499999987,"midi":70,"time":39.86836125,"velocity":0.15748031496062992},{"duration":0.0789472499999988,"midi":75,"time":39.9473085,"velocity":0.15748031496062992},{"duration":0.0789472499999988,"midi":58,"time":39.9473085,"velocity":0.23622047244094488},{"duration":0.0789472499999988,"midi":49,"time":39.9473085,"velocity":0.15748031496062992},{"duration":0.0789472499999988,"midi":46,"time":39.9473085,"velocity":0.15748031496062992},{"duration":0.0789472499999988,"midi":55,"time":39.9473085,"velocity":0.23622047244094488},{"duration":0.0789472499999988,"midi":61,"time":39.9473085,"velocity":0.23622047244094488},{"duration":0.0789472499999988,"midi":79,"time":40.02625575,"velocity":0.15748031496062992},{"duration":0.1578945000000047,"midi":39,"time":40.105202999999996,"velocity":0.5039370078740157},{"duration":0.0789472499999988,"midi":87,"time":40.105202999999996,"velocity":0.15748031496062992},{"duration":0.23684175000000351,"midi":82,"time":40.184150249999995,"velocity":0.15748031496062992},{"duration":0.0789472499999988,"midi":55,"time":40.2630975,"velocity":0.23622047244094488},{"duration":0.0789472499999988,"midi":49,"time":40.2630975,"velocity":0.15748031496062992},{"duration":0.0789472499999988,"midi":61,"time":40.2630975,"velocity":0.23622047244094488},{"duration":0.0789472499999988,"midi":79,"time":40.2630975,"velocity":0.15748031496062992},{"duration":0.0789472499999988,"midi":46,"time":40.2630975,"velocity":0.15748031496062992},{"duration":0.0789472499999988,"midi":58,"time":40.2630975,"velocity":0.23622047244094488},{"duration":0.0789472499999988,"midi":75,"time":40.34204475,"velocity":0.15748031496062992},{"duration":1.2631560000000022,"midi":64,"time":40.420992,"velocity":0.2677165354330709},{"duration":0.23684175000000351,"midi":52,"time":40.420992,"velocity":0.2677165354330709},{"duration":0.23684175000000351,"midi":56,"time":40.420992,"velocity":0.2677165354330709},{"duration":0.23684175000000351,"midi":59,"time":40.420992,"velocity":0.2677165354330709},{"duration":0.3157890000000023,"midi":71,"time":40.420992,"velocity":0.3937007874015748},{"duration":1.2631560000000022,"midi":68,"time":40.420992,"velocity":0.2677165354330709},{"duration":0.1578944999999976,"midi":40,"time":40.420992,"velocity":0.5039370078740157},{"duration":0.3947362500000011,"midi":56,"time":40.578886499999996,"velocity":0.23622047244094488},{"duration":0.3947362500000011,"midi":59,"time":40.578886499999996,"velocity":0.23622047244094488},{"duration":0.07894725000000591,"midi":47,"time":40.578886499999996,"velocity":0.15748031496062992},{"duration":0.4736834999999999,"midi":71,"time":40.578886499999996,"velocity":0.3937007874015748},{"duration":0.1578945000000047,"midi":83,"time":40.578886499999996,"velocity":0.3937007874015748},{"duration":0.07894725000000591,"midi":44,"time":40.578886499999996,"velocity":0.15748031496062992},{"duration":0.3947362500000011,"midi":52,"time":40.578886499999996,"velocity":0.23622047244094488},{"duration":0.1578944999999976,"midi":35,"time":40.736781,"velocity":0.5039370078740157},{"duration":0.1578944999999976,"midi":70,"time":40.736781,"velocity":0.3937007874015748},{"duration":0.1578944999999976,"midi":82,"time":40.736781,"velocity":0.3937007874015748},{"duration":0.3947362500000011,"midi":52,"time":40.8946755,"velocity":0.23622047244094488},{"duration":0.1578944999999976,"midi":83,"time":40.8946755,"velocity":0.3937007874015748},{"duration":0.0789472499999988,"midi":47,"time":40.8946755,"velocity":0.15748031496062992},{"duration":0.0789472499999988,"midi":44,"time":40.8946755,"velocity":0.15748031496062992},{"duration":0.3947362500000011,"midi":59,"time":40.8946755,"velocity":0.23622047244094488},{"duration":0.3947362500000011,"midi":56,"time":40.8946755,"velocity":0.23622047244094488},{"duration":0.4736834999999999,"midi":71,"time":40.8946755,"velocity":0.3937007874015748},{"duration":0.1578945000000047,"midi":78,"time":41.052569999999996,"velocity":0.3937007874015748},{"duration":0.1578945000000047,"midi":40,"time":41.052569999999996,"velocity":0.5039370078740157},{"duration":0.1578945000000047,"midi":90,"time":41.052569999999996,"velocity":0.3937007874015748},{"duration":0.3947362500000011,"midi":52,"time":41.2104645,"velocity":0.23622047244094488},{"duration":0.0789472499999988,"midi":47,"time":41.2104645,"velocity":0.15748031496062992},{"duration":0.0789472499999988,"midi":44,"time":41.2104645,"velocity":0.15748031496062992},{"duration":0.1578944999999976,"midi":83,"time":41.2104645,"velocity":0.3937007874015748},{"duration":0.3947362500000011,"midi":59,"time":41.2104645,"velocity":0.23622047244094488},{"duration":0.3947362500000011,"midi":56,"time":41.2104645,"velocity":0.23622047244094488},{"duration":0.4736834999999999,"midi":71,"time":41.2104645,"velocity":0.3937007874015748},{"duration":0.1578944999999976,"midi":82,"time":41.368359,"velocity":0.3937007874015748},{"duration":0.1578944999999976,"midi":35,"time":41.368359,"velocity":0.5039370078740157},{"duration":0.1578944999999976,"midi":70,"time":41.368359,"velocity":0.3937007874015748},{"duration":0.07894725000000591,"midi":47,"time":41.526253499999996,"velocity":0.15748031496062992},{"duration":0.1578945000000047,"midi":59,"time":41.526253499999996,"velocity":0.23622047244094488},{"duration":0.07894725000000591,"midi":44,"time":41.526253499999996,"velocity":0.15748031496062992},{"duration":0.1578945000000047,"midi":56,"time":41.526253499999996,"velocity":0.23622047244094488},{"duration":0.1578945000000047,"midi":52,"time":41.526253499999996,"velocity":0.23622047244094488},{"duration":0.1578945000000047,"midi":71,"time":41.526253499999996,"velocity":0.3937007874015748},{"duration":0.1578945000000047,"midi":83,"time":41.526253499999996,"velocity":0.3937007874015748},{"duration":0.2368417499999964,"midi":54,"time":41.684148,"velocity":0.2677165354330709},{"duration":0.2368417499999964,"midi":58,"time":41.684148,"velocity":0.2677165354330709},{"duration":0.4736834999999999,"midi":70,"time":41.684148,"velocity":0.2677165354330709},{"duration":0.2368417499999964,"midi":61,"time":41.684148,"velocity":0.2677165354330709},{"duration":1.263155999999995,"midi":73,"time":41.684148,"velocity":0.3937007874015748},{"duration":0.1578944999999976,"midi":80,"time":41.684148,"velocity":0.3937007874015748},{"duration":0.1578944999999976,"midi":42,"time":41.684148,"velocity":0.5039370078740157},{"duration":0.1578944999999976,"midi":92,"time":41.684148,"velocity":0.3937007874015748},{"duration":1.263155999999995,"midi":66,"time":41.684148,"velocity":0.2677165354330709},{"duration":0.3947362500000011,"midi":54,"time":41.8420425,"velocity":0.23622047244094488},{"duration":0.1578944999999976,"midi":83,"time":41.8420425,"velocity":0.3937007874015748},{"duration":0.3947362500000011,"midi":61,"time":41.8420425,"velocity":0.23622047244094488},{"duration":0.1578944999999976,"midi":71,"time":41.8420425,"velocity":0.3937007874015748},{"duration":0.3947362500000011,"midi":58,"time":41.8420425,"velocity":0.23622047244094488},{"duration":0.0789472499999988,"midi":46,"time":41.8420425,"velocity":0.15748031496062992},{"duration":0.0789472499999988,"midi":49,"time":41.8420425,"velocity":0.15748031496062992},{"duration":0.1578945000000047,"midi":82,"time":41.999936999999996,"velocity":0.3937007874015748},{"duration":0.7894725000000022,"midi":70,"time":41.999936999999996,"velocity":0.3937007874015748},{"duration":0.1578945000000047,"midi":37,"time":41.999936999999996,"velocity":0.5039370078740157},{"duration":0.1578944999999976,"midi":83,"time":42.1578315,"velocity":0.3937007874015748},{"duration":0.3947362500000011,"midi":58,"time":42.1578315,"velocity":0.23622047244094488},{"duration":0.1578944999999976,"midi":71,"time":42.1578315,"velocity":0.3937007874015748},{"duration":0.0789472499999988,"midi":49,"time":42.1578315,"velocity":0.15748031496062992},{"duration":0.0789472499999988,"midi":46,"time":42.1578315,"velocity":0.15748031496062992},{"duration":0.3947362500000011,"midi":61,"time":42.1578315,"velocity":0.23622047244094488},{"duration":0.3947362500000011,"midi":54,"time":42.1578315,"velocity":0.23622047244094488},{"duration":0.1578944999999976,"midi":42,"time":42.315726,"velocity":0.5039370078740157},{"duration":0.1578944999999976,"midi":94,"time":42.315726,"velocity":0.3937007874015748},{"duration":0.1578944999999976,"midi":82,"time":42.315726,"velocity":0.3937007874015748},{"duration":0.3947362500000011,"midi":58,"time":42.473620499999996,"velocity":0.23622047244094488},{"duration":0.3947362500000011,"midi":54,"time":42.473620499999996,"velocity":0.23622047244094488},{"duration":0.3947362500000011,"midi":61,"time":42.473620499999996,"velocity":0.23622047244094488},{"duration":0.07894725000000591,"midi":49,"time":42.473620499999996,"velocity":0.15748031496062992},{"duration":0.07894725000000591,"midi":46,"time":42.473620499999996,"velocity":0.15748031496062992},{"duration":0.1578945000000047,"midi":83,"time":42.473620499999996,"velocity":0.3937007874015748},{"duration":0.1578945000000047,"midi":71,"time":42.473620499999996,"velocity":0.3937007874015748},{"duration":0.1578944999999976,"midi":82,"time":42.631515,"velocity":0.3937007874015748},{"duration":0.3157889999999952,"midi":70,"time":42.631515,"velocity":0.3937007874015748},{"duration":0.1578944999999976,"midi":37,"time":42.631515,"velocity":0.5039370078740157},{"duration":0.1578944999999976,"midi":71,"time":42.7894095,"velocity":0.3937007874015748},{"duration":0.1578944999999976,"midi":61,"time":42.7894095,"velocity":0.23622047244094488},{"duration":0.0789472499999988,"midi":46,"time":42.7894095,"velocity":0.15748031496062992},{"duration":0.1578944999999976,"midi":54,"time":42.7894095,"velocity":0.23622047244094488},{"duration":0.0789472499999988,"midi":49,"time":42.7894095,"velocity":0.15748031496062992},{"duration":0.1578944999999976,"midi":58,"time":42.7894095,"velocity":0.23622047244094488},{"duration":0.1578944999999976,"midi":83,"time":42.7894095,"velocity":0.3937007874015748},{"duration":0.7894725000000022,"midi":75,"time":42.947303999999995,"velocity":0.3937007874015748},{"duration":0.23684175000000351,"midi":63,"time":42.947303999999995,"velocity":0.2677165354330709},{"duration":0.1578945000000047,"midi":44,"time":42.947303999999995,"velocity":0.5039370078740157},{"duration":0.1578945000000047,"midi":95,"time":42.947303999999995,"velocity":0.3937007874015748},{"duration":0.1578945000000047,"midi":83,"time":42.947303999999995,"velocity":0.3937007874015748},{"duration":0.23684175000000351,"midi":56,"time":42.947303999999995,"velocity":0.2677165354330709},{"duration":0.23684175000000351,"midi":59,"time":42.947303999999995,"velocity":0.2677165354330709},{"duration":0.9473669999999998,"midi":71,"time":42.947303999999995,"velocity":0.2677165354330709},{"duration":1.2631560000000022,"midi":68,"time":42.947303999999995,"velocity":0.2677165354330709},{"duration":0.052631499999996834,"midi":82,"time":43.1051985,"velocity":0.3937007874015748},{"duration":0.0789472499999988,"midi":47,"time":43.1051985,"velocity":0.15748031496062992},{"duration":0.3947362500000011,"midi":56,"time":43.1051985,"velocity":0.23622047244094488},{"duration":0.3947362500000011,"midi":63,"time":43.1051985,"velocity":0.23622047244094488},{"duration":0.0789472499999988,"midi":51,"time":43.1051985,"velocity":0.15748031496062992},{"duration":0.3947362500000011,"midi":59,"time":43.1051985,"velocity":0.23622047244094488},{"duration":0.052631499999996834,"midi":94,"time":43.1051985,"velocity":0.3937007874015748},{"duration":0.05263150000000394,"midi":83,"time":43.15783,"velocity":0.3937007874015748},{"duration":0.05263150000000394,"midi":95,"time":43.15783,"velocity":0.3937007874015748},{"duration":0.052631499999996834,"midi":82,"time":43.2104615,"velocity":0.3937007874015748},{"duration":0.052631499999996834,"midi":94,"time":43.2104615,"velocity":0.3937007874015748},{"duration":0.1578944999999976,"midi":80,"time":43.263093,"velocity":0.3937007874015748},{"duration":0.1578944999999976,"midi":39,"time":43.263093,"velocity":0.5039370078740157},{"duration":0.1578944999999976,"midi":92,"time":43.263093,"velocity":0.3937007874015748},{"duration":0.3947362500000011,"midi":56,"time":43.420987499999995,"velocity":0.23622047244094488},{"duration":0.1578945000000047,"midi":90,"time":43.420987499999995,"velocity":0.3937007874015748},{"duration":0.1578945000000047,"midi":78,"time":43.420987499999995,"velocity":0.3937007874015748},{"duration":0.07894725000000591,"midi":51,"time":43.420987499999995,"velocity":0.15748031496062992},{"duration":0.07894725000000591,"midi":47,"time":43.420987499999995,"velocity":0.15748031496062992},{"duration":0.3947362500000011,"midi":63,"time":43.420987499999995,"velocity":0.23622047244094488},{"duration":0.3947362500000011,"midi":59,"time":43.420987499999995,"velocity":0.23622047244094488},{"duration":0.6315779999999975,"midi":75,"time":43.578882,"velocity":0.3937007874015748},{"duration":0.1578944999999976,"midi":44,"time":43.578882,"velocity":0.5039370078740157},{"duration":0.1578944999999976,"midi":87,"time":43.578882,"velocity":0.3937007874015748},{"duration":0.0789472499999988,"midi":47,"time":43.7367765,"velocity":0.15748031496062992},{"duration":0.0789472499999988,"midi":51,"time":43.7367765,"velocity":0.15748031496062992},{"duration":0.3947362500000011,"midi":56,"time":43.7367765,"velocity":0.23622047244094488},{"duration":0.4736834999999999,"midi":71,"time":43.7367765,"velocity":0.3937007874015748},{"duration":0.3947362500000011,"midi":63,"time":43.7367765,"velocity":0.23622047244094488},{"duration":0.1578944999999976,"midi":83,"time":43.7367765,"velocity":0.3937007874015748},{"duration":0.3947362500000011,"midi":59,"time":43.7367765,"velocity":0.23622047244094488},{"duration":0.1578945000000047,"midi":82,"time":43.894670999999995,"velocity":0.3937007874015748},{"duration":0.1578945000000047,"midi":39,"time":43.894670999999995,"velocity":0.5039370078740157},{"duration":0.1578945000000047,"midi":70,"time":43.894670999999995,"velocity":0.3937007874015748},{"duration":0.1578944999999976,"midi":56,"time":44.0525655,"velocity":0.23622047244094488},{"duration":0.1578944999999976,"midi":63,"time":44.0525655,"velocity":0.23622047244094488},{"duration":0.0789472499999988,"midi":47,"time":44.0525655,"velocity":0.15748031496062992},{"duration":0.1578944999999976,"midi":59,"time":44.0525655,"velocity":0.23622047244094488},{"duration":0.1578944999999976,"midi":83,"time":44.0525655,"velocity":0.3937007874015748},{"duration":0.0789472499999988,"midi":51,"time":44.0525655,"velocity":0.15748031496062992},{"duration":0.1578944999999976,"midi":71,"time":44.0525655,"velocity":0.3937007874015748},{"duration":1.2631560000000022,"midi":61,"time":44.21046,"velocity":0.2677165354330709},{"duration":0.3157890000000023,"midi":70,"time":44.21046,"velocity":0.2677165354330709},{"duration":0.1578944999999976,"midi":89,"time":44.21046,"velocity":0.3937007874015748},{"duration":1.2631560000000022,"midi":73,"time":44.21046,"velocity":0.2677165354330709},{"duration":0.6315779999999975,"midi":77,"time":44.21046,"velocity":0.3937007874015748},{"duration":1.2631560000000022,"midi":53,"time":44.21046,"velocity":0.2677165354330709},{"duration":0.6315779999999975,"midi":65,"time":44.21046,"velocity":0.2677165354330709},{"duration":0.1578944999999976,"midi":39,"time":44.21046,"velocity":0.5039370078740157},{"duration":0.23684175000000351,"midi":58,"time":44.21046,"velocity":0.2677165354330709},{"duration":0.07894725000000591,"midi":46,"time":44.368354499999995,"velocity":0.15748031496062992},{"duration":0.4736834999999999,"midi":70,"time":44.368354499999995,"velocity":0.3937007874015748},{"duration":0.07894725000000591,"midi":54,"time":44.368354499999995,"velocity":0.23622047244094488},{"duration":0.3947362500000011,"midi":58,"time":44.368354499999995,"velocity":0.23622047244094488},{"duration":0.07894725000000591,"midi":42,"time":44.368354499999995,"velocity":0.15748031496062992},{"duration":0.1578945000000047,"midi":82,"time":44.368354499999995,"velocity":0.3937007874015748},{"duration":0.07894725000000591,"midi":51,"time":44.368354499999995,"velocity":0.23622047244094488},{"duration":0.1578944999999976,"midi":66,"time":44.526249,"velocity":0.3937007874015748},{"duration":0.1578944999999976,"midi":78,"time":44.526249,"velocity":0.3937007874015748},{"duration":0.1578944999999976,"midi":34,"time":44.526249,"velocity":0.5039370078740157},{"duration":0.0789472499999988,"midi":54,"time":44.6841435,"velocity":0.23622047244094488},{"duration":0.1578944999999976,"midi":82,"time":44.6841435,"velocity":0.3937007874015748},{"duration":0.0789472499999988,"midi":42,"time":44.6841435,"velocity":0.15748031496062992},{"duration":0.0789472499999988,"midi":51,"time":44.6841435,"velocity":0.23622047244094488},{"duration":0.3947362500000011,"midi":58,"time":44.6841435,"velocity":0.23622047244094488},{"duration":0.4736834999999999,"midi":70,"time":44.6841435,"velocity":0.3937007874015748},{"duration":0.0789472499999988,"midi":46,"time":44.6841435,"velocity":0.15748031496062992},{"duration":0.4736834999999999,"midi":78,"time":44.842037999999995,"velocity":0.3937007874015748},{"duration":0.1578945000000047,"midi":90,"time":44.842037999999995,"velocity":0.3937007874015748},{"duration":0.1578945000000047,"midi":39,"time":44.842037999999995,"velocity":0.5039370078740157},{"duration":0.4736834999999999,"midi":66,"time":44.842037999999995,"velocity":0.3937007874015748},{"duration":0.1578944999999976,"midi":82,"time":44.9999325,"velocity":0.3937007874015748},{"duration":0.0789472499999988,"midi":46,"time":44.9999325,"velocity":0.15748031496062992},{"duration":0.0789472499999988,"midi":42,"time":44.9999325,"velocity":0.15748031496062992},{"duration":0.3947362500000011,"midi":58,"time":44.9999325,"velocity":0.23622047244094488},{"duration":0.0789472499999988,"midi":51,"time":44.9999325,"velocity":0.23622047244094488},{"duration":0.4736834999999999,"midi":70,"time":44.9999325,"velocity":0.3937007874015748},{"duration":0.0789472499999988,"midi":54,"time":44.9999325,"velocity":0.23622047244094488},{"duration":0.3157890000000023,"midi":78,"time":45.157827,"velocity":0.3937007874015748},{"duration":0.3157890000000023,"midi":66,"time":45.157827,"velocity":0.3937007874015748},{"duration":0.1578944999999976,"midi":34,"time":45.157827,"velocity":0.5039370078740157},{"duration":0.1578945000000047,"midi":58,"time":45.315721499999995,"velocity":0.23622047244094488},{"duration":0.1578945000000047,"midi":82,"time":45.315721499999995,"velocity":0.3937007874015748},{"duration":0.07894725000000591,"midi":42,"time":45.315721499999995,"velocity":0.15748031496062992},{"duration":0.07894725000000591,"midi":46,"time":45.315721499999995,"velocity":0.15748031496062992},{"duration":0.07894725000000591,"midi":51,"time":45.315721499999995,"velocity":0.23622047244094488},{"duration":0.1578945000000047,"midi":70,"time":45.315721499999995,"velocity":0.3937007874015748},{"duration":0.07894725000000591,"midi":54,"time":45.315721499999995,"velocity":0.23622047244094488},{"duration":0.4736834999999999,"midi":76,"time":45.473616,"velocity":0.2677165354330709},{"duration":1.263155999999995,"midi":68,"time":45.473616,"velocity":0.2677165354330709},{"duration":0.1578944999999976,"midi":40,"time":45.473616,"velocity":0.5039370078740157},{"duration":0.2631574999999984,"midi":80,"time":45.473616,"velocity":0.3937007874015748},{"duration":0.2368417499999964,"midi":56,"time":45.473616,"velocity":0.2677165354330709},{"duration":1.263155999999995,"midi":64,"time":45.473616,"velocity":0.2677165354330709},{"duration":0.2368417499999964,"midi":59,"time":45.473616,"velocity":0.2677165354330709},{"duration":0.9473669999999998,"midi":71,"time":45.473616,"velocity":0.2677165354330709},{"duration":0.1578944999999976,"midi":92,"time":45.473616,"velocity":0.3937007874015748},{"duration":0.0789472499999988,"midi":47,"time":45.6315105,"velocity":0.15748031496062992},{"duration":0.3947362500000011,"midi":56,"time":45.6315105,"velocity":0.23622047244094488},{"duration":0.0789472499999988,"midi":52,"time":45.6315105,"velocity":0.23622047244094488},{"duration":0.3947362500000011,"midi":59,"time":45.6315105,"velocity":0.23622047244094488},{"duration":0.052631499999996834,"midi":78,"time":45.6315105,"velocity":0.3937007874015748},{"duration":0.052631499999996834,"midi":90,"time":45.6315105,"velocity":0.3937007874015748},{"duration":0.0789472499999988,"midi":44,"time":45.6315105,"velocity":0.15748031496062992},{"duration":0.05263150000000394,"midi":92,"time":45.684141999999994,"velocity":0.3937007874015748},{"duration":1.0526300000000006,"midi":80,"time":45.684141999999994,"velocity":0.3937007874015748},{"duration":0.052631499999996834,"midi":78,"time":45.7367735,"velocity":0.3937007874015748},{"duration":0.052631499999996834,"midi":90,"time":45.7367735,"velocity":0.3937007874015748},{"duration":0.9473669999999998,"midi":76,"time":45.789404999999995,"velocity":0.3937007874015748},{"duration":0.1578945000000047,"midi":88,"time":45.789404999999995,"velocity":0.3937007874015748},{"duration":0.1578945000000047,"midi":35,"time":45.789404999999995,"velocity":0.5039370078740157},{"duration":0.0789472499999988,"midi":44,"time":45.9472995,"velocity":0.15748031496062992},{"duration":0.0789472499999988,"midi":52,"time":45.9472995,"velocity":0.23622047244094488},{"duration":0.3947362500000011,"midi":56,"time":45.9472995,"velocity":0.23622047244094488},{"duration":0.3947362500000011,"midi":59,"time":45.9472995,"velocity":0.23622047244094488},{"duration":0.0789472499999988,"midi":47,"time":45.9472995,"velocity":0.15748031496062992},{"duration":0.1578944999999976,"midi":87,"time":45.9472995,"velocity":0.3937007874015748},{"duration":0.1578944999999976,"midi":75,"time":45.9472995,"velocity":0.3937007874015748},{"duration":0.1578944999999976,"midi":73,"time":46.105194,"velocity":0.3937007874015748},{"duration":0.1578944999999976,"midi":40,"time":46.105194,"velocity":0.5039370078740157},{"duration":0.1578944999999976,"midi":85,"time":46.105194,"velocity":0.3937007874015748},{"duration":0.3947362500000011,"midi":59,"time":46.263088499999995,"velocity":0.23622047244094488},{"duration":0.4736834999999999,"midi":71,"time":46.263088499999995,"velocity":0.3937007874015748},{"duration":0.3947362500000011,"midi":56,"time":46.263088499999995,"velocity":0.23622047244094488},{"duration":0.1578945000000047,"midi":83,"time":46.263088499999995,"velocity":0.3937007874015748},{"duration":0.07894725000000591,"midi":44,"time":46.263088499999995,"velocity":0.15748031496062992},{"duration":0.07894725000000591,"midi":52,"time":46.263088499999995,"velocity":0.23622047244094488},{"duration":0.07894725000000591,"midi":47,"time":46.263088499999995,"velocity":0.15748031496062992},{"duration":0.1578944999999976,"midi":73,"time":46.420983,"velocity":0.3937007874015748},{"duration":0.1578944999999976,"midi":35,"time":46.420983,"velocity":0.5039370078740157},{"duration":0.1578944999999976,"midi":85,"time":46.420983,"velocity":0.3937007874015748},{"duration":0.1578944999999976,"midi":76,"time":46.5788775,"velocity":0.3937007874015748},{"duration":0.0789472499999988,"midi":52,"time":46.5788775,"velocity":0.23622047244094488},{"duration":0.1578944999999976,"midi":56,"time":46.5788775,"velocity":0.23622047244094488},{"duration":0.1578944999999976,"midi":59,"time":46.5788775,"velocity":0.23622047244094488},{"duration":0.0789472499999988,"midi":44,"time":46.5788775,"velocity":0.15748031496062992},{"duration":0.1578944999999976,"midi":88,"time":46.5788775,"velocity":0.3937007874015748},{"duration":0.0789472499999988,"midi":47,"time":46.5788775,"velocity":0.15748031496062992},{"duration":0.23684175000000351,"midi":66,"time":46.736771999999995,"velocity":0.2677165354330709},{"duration":0.23684175000000351,"midi":59,"time":46.736771999999995,"velocity":0.2677165354330709},{"duration":0.23684175000000351,"midi":54,"time":46.736771999999995,"velocity":0.2677165354330709},{"duration":0.4736834999999999,"midi":78,"time":46.736771999999995,"velocity":0.3937007874015748},{"duration":0.1578945000000047,"midi":47,"time":46.736771999999995,"velocity":0.5039370078740157},{"duration":0.3157890000000023,"midi":71,"time":46.736771999999995,"velocity":0.2677165354330709},{"duration":0.1578945000000047,"midi":87,"time":46.736771999999995,"velocity":0.3937007874015748},{"duration":0.23684175000000351,"midi":63,"time":46.736771999999995,"velocity":0.2677165354330709},{"duration":1.1052615000000046,"midi":75,"time":46.736771999999995,"velocity":0.3937007874015748},{"duration":0.1578944999999976,"midi":83,"time":46.8946665,"velocity":0.3937007874015748},{"duration":0.0789472499999988,"midi":47,"time":46.8946665,"velocity":0.15748031496062992},{"duration":0.3947362500000011,"midi":59,"time":46.8946665,"velocity":0.23622047244094488},{"duration":0.0789472499999988,"midi":51,"time":46.8946665,"velocity":0.15748031496062992},{"duration":0.3157889999999952,"midi":66,"time":46.8946665,"velocity":0.23622047244094488},{"duration":0.3947362500000011,"midi":54,"time":46.8946665,"velocity":0.15748031496062992},{"duration":0.3947362500000011,"midi":63,"time":46.8946665,"velocity":0.23622047244094488},{"duration":0.4736834999999999,"midi":71,"time":46.8946665,"velocity":0.3937007874015748},{"duration":0.1578944999999976,"midi":42,"time":47.052561,"velocity":0.5039370078740157},{"duration":0.23684175000000351,"midi":66,"time":47.052561,"velocity":0.3937007874015748},{"duration":0.9473669999999998,"midi":78,"time":47.052561,"velocity":0.3937007874015748},{"duration":0.3947362500000011,"midi":66,"time":47.210455499999995,"velocity":0.23622047244094488},{"duration":0.07894725000000591,"midi":51,"time":47.210455499999995,"velocity":0.15748031496062992},{"duration":0.07894725000000591,"midi":47,"time":47.210455499999995,"velocity":0.15748031496062992},{"duration":0.3947362500000011,"midi":54,"time":47.210455499999995,"velocity":0.15748031496062992},{"duration":0.1578945000000047,"midi":83,"time":47.210455499999995,"velocity":0.3937007874015748},{"duration":0.7894725000000022,"midi":71,"time":47.210455499999995,"velocity":0.3937007874015748},{"duration":0.3947362500000011,"midi":63,"time":47.210455499999995,"velocity":0.23622047244094488},{"duration":0.3947362500000011,"midi":59,"time":47.210455499999995,"velocity":0.23622047244094488},{"duration":0.6315779999999975,"midi":75,"time":47.36835,"velocity":0.3937007874015748},{"duration":0.4736834999999999,"midi":87,"time":47.36835,"velocity":0.3937007874015748},{"duration":0.1578944999999976,"midi":47,"time":47.36835,"velocity":0.5039370078740157},{"duration":0.3947362500000011,"midi":54,"time":47.5262445,"velocity":0.15748031496062992},{"duration":0.0789472499999988,"midi":47,"time":47.5262445,"velocity":0.15748031496062992},{"duration":0.0789472499999988,"midi":51,"time":47.5262445,"velocity":0.15748031496062992},{"duration":0.3947362500000011,"midi":63,"time":47.5262445,"velocity":0.23622047244094488},{"duration":0.3947362500000011,"midi":59,"time":47.5262445,"velocity":0.23622047244094488},{"duration":0.3947362500000011,"midi":66,"time":47.5262445,"velocity":0.23622047244094488},{"duration":0.1578945000000047,"midi":42,"time":47.684138999999995,"velocity":0.5039370078740157},{"duration":0.1578944999999976,"midi":66,"time":47.8420335,"velocity":0.23622047244094488},{"duration":0.1578944999999976,"midi":83,"time":47.8420335,"velocity":0.3937007874015748},{"duration":0.1578944999999976,"midi":71,"time":47.8420335,"velocity":0.3937007874015748},{"duration":0.1578944999999976,"midi":63,"time":47.8420335,"velocity":0.23622047244094488},{"duration":0.1578944999999976,"midi":54,"time":47.8420335,"velocity":0.15748031496062992},{"duration":0.0789472499999988,"midi":51,"time":47.8420335,"velocity":0.15748031496062992},{"duration":0.1578944999999976,"midi":59,"time":47.8420335,"velocity":0.23622047244094488},{"duration":0.0789472499999988,"midi":47,"time":47.8420335,"velocity":0.15748031496062992},{"duration":0.1578944999999976,"midi":37,"time":47.999928,"velocity":0.5039370078740157},{"duration":0.23684175000000351,"midi":52,"time":47.999928,"velocity":0.2677165354330709},{"duration":0.4736834999999999,"midi":64,"time":47.999928,"velocity":0.2677165354330709},{"duration":0.9473669999999998,"midi":73,"time":47.999928,"velocity":0.3937007874015748},{"duration":1.2631560000000022,"midi":61,"time":47.999928,"velocity":0.2677165354330709},{"duration":0.4736834999999999,"midi":76,"time":47.999928,"velocity":0.3937007874015748},{"duration":0.3157890000000023,"midi":68,"time":47.999928,"velocity":0.2677165354330709},{"duration":0.1578944999999976,"midi":85,"time":47.999928,"velocity":0.3937007874015748},{"duration":0.23684175000000351,"midi":56,"time":47.999928,"velocity":0.2677165354330709},{"duration":0.07894725000000591,"midi":44,"time":48.157822499999995,"velocity":0.15748031496062992},{"duration":0.07894725000000591,"midi":49,"time":48.157822499999995,"velocity":0.23622047244094488},{"duration":0.1578945000000047,"midi":80,"time":48.157822499999995,"velocity":0.3937007874015748},{"duration":0.3947362500000011,"midi":56,"time":48.157822499999995,"velocity":0.23622047244094488},{"duration":0.4736834999999999,"midi":68,"time":48.157822499999995,"velocity":0.3937007874015748},{"duration":0.3947362500000011,"midi":52,"time":48.157822499999995,"velocity":0.23622047244094488},{"duration":0.07894725000000591,"midi":40,"time":48.157822499999995,"velocity":0.15748031496062992},{"duration":0.9473669999999998,"midi":64,"time":48.315717,"velocity":0.3937007874015748},{"duration":0.9473669999999998,"midi":76,"time":48.315717,"velocity":0.3937007874015748},{"duration":0.1578944999999976,"midi":32,"time":48.315717,"velocity":0.5039370078740157},{"duration":0.3947362500000011,"midi":56,"time":48.4736115,"velocity":0.23622047244094488},{"duration":0.0789472499999988,"midi":49,"time":48.4736115,"velocity":0.23622047244094488},{"duration":0.3947362500000011,"midi":52,"time":48.4736115,"velocity":0.23622047244094488},{"duration":0.0789472499999988,"midi":40,"time":48.4736115,"velocity":0.15748031496062992},{"duration":0.7894725000000022,"midi":68,"time":48.4736115,"velocity":0.3937007874015748},{"duration":0.1578944999999976,"midi":80,"time":48.4736115,"velocity":0.3937007874015748},{"duration":0.0789472499999988,"midi":44,"time":48.4736115,"velocity":0.15748031496062992},{"duration":0.3157890000000023,"midi":85,"time":48.631505999999995,"velocity":0.3937007874015748},{"duration":0.1578945000000047,"midi":37,"time":48.631505999999995,"velocity":0.5039370078740157},{"duration":0.6315780000000046,"midi":73,"time":48.631505999999995,"velocity":0.3937007874015748},{"duration":0.3947362500000011,"midi":56,"time":48.7894005,"velocity":0.23622047244094488},{"duration":0.0789472499999988,"midi":49,"time":48.7894005,"velocity":0.23622047244094488},{"duration":0.3947362500000011,"midi":52,"time":48.7894005,"velocity":0.23622047244094488},{"duration":0.0789472499999988,"midi":40,"time":48.7894005,"velocity":0.15748031496062992},{"duration":0.0789472499999988,"midi":44,"time":48.7894005,"velocity":0.15748031496062992},{"duration":0.3157890000000023,"midi":76,"time":48.947295,"velocity":0.3937007874015748},{"duration":0.1578944999999976,"midi":32,"time":48.947295,"velocity":0.5039370078740157},{"duration":0.3157890000000023,"midi":88,"time":48.947295,"velocity":0.3937007874015748},{"duration":0.1578945000000047,"midi":56,"time":49.105189499999994,"velocity":0.23622047244094488},{"duration":0.07894725000000591,"midi":49,"time":49.105189499999994,"velocity":0.23622047244094488},{"duration":0.07894725000000591,"midi":44,"time":49.105189499999994,"velocity":0.15748031496062992},{"duration":0.1578945000000047,"midi":52,"time":49.105189499999994,"velocity":0.23622047244094488},{"duration":0.07894725000000591,"midi":40,"time":49.105189499999994,"velocity":0.15748031496062992},{"duration":1.2631560000000022,"midi":67,"time":49.263084,"velocity":0.2677165354330709},{"duration":0.6315779999999975,"midi":75,"time":49.263084,"velocity":0.3937007874015748},{"duration":1.2631560000000022,"midi":70,"time":49.263084,"velocity":0.2677165354330709},{"duration":0.4736834999999999,"midi":87,"time":49.263084,"velocity":0.3937007874015748},{"duration":0.2368417499999964,"midi":55,"time":49.263084,"velocity":0.2677165354330709},{"duration":1.2631560000000022,"midi":63,"time":49.263084,"velocity":0.2677165354330709},{"duration":0.2368417499999964,"midi":58,"time":49.263084,"velocity":0.2677165354330709},{"duration":1.2631560000000022,"midi":51,"time":49.263084,"velocity":0.2677165354330709},{"duration":0.1578944999999976,"midi":43,"time":49.263084,"velocity":0.5039370078740157},{"duration":0.0789472499999988,"midi":61,"time":49.4209785,"velocity":0.23622047244094488},{"duration":0.0789472499999988,"midi":49,"time":49.4209785,"velocity":0.15748031496062992},{"duration":0.0789472499999988,"midi":46,"time":49.4209785,"velocity":0.15748031496062992},{"duration":0.3947362500000011,"midi":55,"time":49.4209785,"velocity":0.23622047244094488},{"duration":0.3947362500000011,"midi":58,"time":49.4209785,"velocity":0.23622047244094488},{"duration":0.1578945000000047,"midi":39,"time":49.578872999999994,"velocity":0.5039370078740157},{"duration":0.0789472499999988,"midi":61,"time":49.7367675,"velocity":0.23622047244094488},{"duration":0.3947362500000011,"midi":55,"time":49.7367675,"velocity":0.23622047244094488},{"duration":0.3947362500000011,"midi":58,"time":49.7367675,"velocity":0.23622047244094488},{"duration":0.0789472499999988,"midi":76,"time":49.7367675,"velocity":0.3937007874015748},{"duration":0.0789472499999988,"midi":88,"time":49.7367675,"velocity":0.3937007874015748},{"duration":0.0789472499999988,"midi":49,"time":49.7367675,"velocity":0.15748031496062992},{"duration":0.0789472499999988,"midi":46,"time":49.7367675,"velocity":0.15748031496062992},{"duration":0.0789472499999988,"midi":87,"time":49.81571475,"velocity":0.3937007874015748},{"duration":0.7105252500000034,"midi":75,"time":49.81571475,"velocity":0.3937007874015748},{"duration":0.1578944999999976,"midi":43,"time":49.894662,"velocity":0.5039370078740157},{"duration":0.6315780000000046,"midi":73,"time":49.894662,"velocity":0.3937007874015748},{"duration":0.6315780000000046,"midi":85,"time":49.894662,"velocity":0.3937007874015748},{"duration":0.3947362500000011,"midi":55,"time":50.052556499999994,"velocity":0.23622047244094488},{"duration":0.07894725000000591,"midi":46,"time":50.052556499999994,"velocity":0.15748031496062992},{"duration":0.3947362500000011,"midi":58,"time":50.052556499999994,"velocity":0.23622047244094488},{"duration":0.07894725000000591,"midi":49,"time":50.052556499999994,"velocity":0.15748031496062992},{"duration":0.07894725000000591,"midi":61,"time":50.052556499999994,"velocity":0.23622047244094488},{"duration":0.1578944999999976,"midi":39,"time":50.210451,"velocity":0.5039370078740157},{"duration":0.1578945000000047,"midi":58,"time":50.3683455,"velocity":0.23622047244094488},{"duration":0.1578945000000047,"midi":55,"time":50.3683455,"velocity":0.23622047244094488},{"duration":0.0789472499999988,"midi":49,"time":50.3683455,"velocity":0.15748031496062992},{"duration":0.0789472499999988,"midi":61,"time":50.3683455,"velocity":0.23622047244094488},{"duration":0.0789472499999988,"midi":46,"time":50.3683455,"velocity":0.15748031496062992},{"duration":0.2368417499999964,"midi":59,"time":50.52624,"velocity":0.2677165354330709},{"duration":0.2368417499999964,"midi":71,"time":50.52624,"velocity":0.3937007874015748},{"duration":0.2368417499999964,"midi":52,"time":50.52624,"velocity":0.2677165354330709},{"duration":0.1578944999999976,"midi":68,"time":50.52624,"velocity":0.2677165354330709},{"duration":0.2368417499999964,"midi":56,"time":50.52624,"velocity":0.2677165354330709},{"duration":0.0789472499999988,"midi":64,"time":50.52624,"velocity":0.2677165354330709},{"duration":0.1578944999999976,"midi":40,"time":50.52624,"velocity":0.5039370078740157},{"duration":0.7105252499999963,"midi":64,"time":50.52624,"velocity":0.15748031496062992},{"duration":0.2368417499999964,"midi":68,"time":50.60518725,"velocity":0.15748031496062992},{"duration":0.3947362500000011,"midi":59,"time":50.6841345,"velocity":0.23622047244094488},{"duration":0.1578944999999976,"midi":71,"time":50.6841345,"velocity":0.3937007874015748},{"duration":0.0789472499999988,"midi":44,"time":50.6841345,"velocity":0.15748031496062992},{"duration":0.1578944999999976,"midi":80,"time":50.6841345,"velocity":0.3937007874015748},{"duration":0.4736834999999999,"midi":68,"time":50.6841345,"velocity":0.3937007874015748},{"duration":0.3947362500000011,"midi":56,"time":50.6841345,"velocity":0.23622047244094488},{"duration":0.0789472499999988,"midi":47,"time":50.6841345,"velocity":0.15748031496062992},{"duration":0.1578944999999976,"midi":83,"time":50.6841345,"velocity":0.3937007874015748},{"duration":0.3947362500000011,"midi":52,"time":50.6841345,"velocity":0.23622047244094488},{"duration":0.4736834999999999,"midi":71,"time":50.6841345,"velocity":0.15748031496062992},{"duration":0.0789472499999988,"midi":76,"time":50.76308175,"velocity":0.15748031496062992},{"duration":0.1578945000000047,"midi":70,"time":50.842029,"velocity":0.3937007874015748},{"duration":0.1578945000000047,"midi":35,"time":50.842029,"velocity":0.5039370078740157},{"duration":0.1578945000000047,"midi":78,"time":50.842029,"velocity":0.3937007874015748},{"duration":0.0789472499999988,"midi":83,"time":50.842029,"velocity":0.15748031496062992},{"duration":0.1578945000000047,"midi":82,"time":50.842029,"velocity":0.3937007874015748},{"duration":0.1578945000000047,"midi":66,"time":50.842029,"velocity":0.3937007874015748},{"duration":0.07894725000000591,"midi":80,"time":50.920976249999995,"velocity":0.15748031496062992},{"duration":0.1578944999999976,"midi":80,"time":50.9999235,"velocity":0.3937007874015748},{"duration":0.394736249999994,"midi":52,"time":50.9999235,"velocity":0.23622047244094488},{"duration":0.3157889999999952,"midi":68,"time":50.9999235,"velocity":0.3937007874015748},{"duration":0.0789472499999988,"midi":47,"time":50.9999235,"velocity":0.15748031496062992},{"duration":0.1578944999999976,"midi":71,"time":50.9999235,"velocity":0.3937007874015748},{"duration":0.1578944999999976,"midi":83,"time":50.9999235,"velocity":0.3937007874015748},{"duration":0.0789472499999988,"midi":76,"time":50.9999235,"velocity":0.15748031496062992},{"duration":0.0789472499999988,"midi":44,"time":50.9999235,"velocity":0.15748031496062992},{"duration":0.394736249999994,"midi":59,"time":50.9999235,"velocity":0.23622047244094488},{"duration":0.394736249999994,"midi":56,"time":50.9999235,"velocity":0.23622047244094488},{"duration":0.3157889999999952,"midi":71,"time":51.07887075,"velocity":0.15748031496062992},{"duration":0.1578944999999976,"midi":90,"time":51.157818,"velocity":0.3937007874015748},{"duration":0.1578944999999976,"midi":87,"time":51.157818,"velocity":0.3937007874015748},{"duration":0.1578944999999976,"midi":75,"time":51.157818,"velocity":0.3937007874015748},{"duration":0.1578944999999976,"midi":78,"time":51.157818,"velocity":0.3937007874015748},{"duration":0.1578944999999976,"midi":40,"time":51.157818,"velocity":0.5039370078740157},{"duration":0.6315779999999975,"midi":64,"time":51.157818,"velocity":0.15748031496062992},{"duration":0.23684175000000351,"midi":68,"time":51.23676525,"velocity":0.15748031496062992},{"duration":0.1578945000000047,"midi":80,"time":51.3157125,"velocity":0.3937007874015748},{"duration":0.1578945000000047,"midi":83,"time":51.3157125,"velocity":0.3937007874015748},{"duration":0.3947362500000011,"midi":52,"time":51.3157125,"velocity":0.23622047244094488},{"duration":0.0789472499999988,"midi":44,"time":51.3157125,"velocity":0.15748031496062992},{"duration":0.1578945000000047,"midi":71,"time":51.3157125,"velocity":0.3937007874015748},{"duration":0.4736834999999999,"midi":68,"time":51.3157125,"velocity":0.3937007874015748},{"duration":0.3947362500000011,"midi":59,"time":51.3157125,"velocity":0.23622047244094488},{"duration":0.3947362500000011,"midi":56,"time":51.3157125,"velocity":0.23622047244094488},{"duration":0.4736834999999999,"midi":71,"time":51.3157125,"velocity":0.15748031496062992},{"duration":0.0789472499999988,"midi":47,"time":51.3157125,"velocity":0.15748031496062992},{"duration":0.07894725000000591,"midi":76,"time":51.394659749999995,"velocity":0.15748031496062992},{"duration":0.1578944999999976,"midi":35,"time":51.473607,"velocity":0.5039370078740157},{"duration":0.1578944999999976,"midi":78,"time":51.473607,"velocity":0.3937007874015748},{"duration":0.1578944999999976,"midi":66,"time":51.473607,"velocity":0.3937007874015748},{"duration":0.0789472499999988,"midi":83,"time":51.473607,"velocity":0.15748031496062992},{"duration":0.1578944999999976,"midi":70,"time":51.473607,"velocity":0.3937007874015748},{"duration":0.1578944999999976,"midi":82,"time":51.473607,"velocity":0.3937007874015748},{"duration":0.0789472499999988,"midi":80,"time":51.55255425,"velocity":0.15748031496062992},{"duration":0.1578944999999976,"midi":52,"time":51.6315015,"velocity":0.23622047244094488},{"duration":0.1578944999999976,"midi":68,"time":51.6315015,"velocity":0.3937007874015748},{"duration":0.0789472499999988,"midi":76,"time":51.6315015,"velocity":0.15748031496062992},{"duration":0.1578944999999976,"midi":80,"time":51.6315015,"velocity":0.3937007874015748},{"duration":0.0789472499999988,"midi":44,"time":51.6315015,"velocity":0.15748031496062992},{"duration":0.1578944999999976,"midi":71,"time":51.6315015,"velocity":0.3937007874015748},{"duration":0.1578944999999976,"midi":59,"time":51.6315015,"velocity":0.23622047244094488},{"duration":0.1578944999999976,"midi":83,"time":51.6315015,"velocity":0.3937007874015748},{"duration":0.0789472499999988,"midi":47,"time":51.6315015,"velocity":0.15748031496062992},{"duration":0.1578944999999976,"midi":56,"time":51.6315015,"velocity":0.23622047244094488},{"duration":0.0789472499999988,"midi":71,"time":51.71044875,"velocity":0.15748031496062992},{"duration":0.1578945000000047,"midi":42,"time":51.789395999999996,"velocity":0.5039370078740157},{"duration":0.1578945000000047,"midi":85,"time":51.789395999999996,"velocity":0.3937007874015748},{"duration":0.1578945000000047,"midi":70,"time":51.789395999999996,"velocity":0.2677165354330709},{"duration":0.1578945000000047,"midi":80,"time":51.789395999999996,"velocity":0.3937007874015748},{"duration":0.0789472499999988,"midi":66,"time":51.789395999999996,"velocity":0.2677165354330709},{"duration":0.23684175000000351,"midi":58,"time":51.789395999999996,"velocity":0.2677165354330709},{"duration":0.1578945000000047,"midi":73,"time":51.789395999999996,"velocity":0.3937007874015748},{"duration":0.4736834999999999,"midi":66,"time":51.789395999999996,"velocity":0.15748031496062992},{"duration":0.23684175000000351,"midi":73,"time":51.789395999999996,"velocity":0.3937007874015748},{"duration":0.23684175000000351,"midi":61,"time":51.789395999999996,"velocity":0.2677165354330709},{"duration":0.1578945000000047,"midi":92,"time":51.789395999999996,"velocity":0.3937007874015748},{"duration":0.23684175000000351,"midi":54,"time":51.789395999999996,"velocity":0.2677165354330709},{"duration":0.3947362500000011,"midi":70,"time":51.868343249999995,"velocity":0.15748031496062992},{"duration":0.394736249999994,"midi":61,"time":51.9472905,"velocity":0.23622047244094488},{"duration":0.394736249999994,"midi":58,"time":51.9472905,"velocity":0.23622047244094488},{"duration":0.1578944999999976,"midi":71,"time":51.9472905,"velocity":0.3937007874015748},{"duration":0.0789472499999988,"midi":46,"time":51.9472905,"velocity":0.15748031496062992},{"duration":0.0789472499999988,"midi":49,"time":51.9472905,"velocity":0.15748031496062992},{"duration":0.4736834999999999,"midi":73,"time":51.9472905,"velocity":0.15748031496062992},{"duration":0.1578944999999976,"midi":80,"time":51.9472905,"velocity":0.3937007874015748},{"duration":0.394736249999994,"midi":54,"time":51.9472905,"velocity":0.23622047244094488},{"duration":0.1578944999999976,"midi":83,"time":51.9472905,"velocity":0.3937007874015748},{"duration":0.1578944999999976,"midi":68,"time":51.9472905,"velocity":0.3937007874015748},{"duration":0.0789472499999988,"midi":78,"time":52.02623775,"velocity":0.15748031496062992},{"duration":0.1578944999999976,"midi":37,"time":52.105185,"velocity":0.5039370078740157},{"duration":0.1578944999999976,"midi":78,"time":52.105185,"velocity":0.3937007874015748},{"duration":0.4736834999999999,"midi":70,"time":52.105185,"velocity":0.3937007874015748},{"duration":0.1578944999999976,"midi":82,"time":52.105185,"velocity":0.3937007874015748},{"duration":0.0789472499999988,"midi":85,"time":52.105185,"velocity":0.15748031496062992},{"duration":0.3947362500000011,"midi":66,"time":52.105185,"velocity":0.3937007874015748},{"duration":0.0789472499999988,"midi":82,"time":52.18413225,"velocity":0.15748031496062992},{"duration":0.0789472499999988,"midi":49,"time":52.263079499999996,"velocity":0.15748031496062992},{"duration":0.3947362500000011,"midi":54,"time":52.263079499999996,"velocity":0.23622047244094488},{"duration":0.0789472499999988,"midi":46,"time":52.263079499999996,"velocity":0.15748031496062992},{"duration":0.1578945000000047,"midi":80,"time":52.263079499999996,"velocity":0.3937007874015748},{"duration":0.1578945000000047,"midi":68,"time":52.263079499999996,"velocity":0.3937007874015748},{"duration":0.3947362500000011,"midi":58,"time":52.263079499999996,"velocity":0.23622047244094488},{"duration":0.0789472499999988,"midi":78,"time":52.263079499999996,"velocity":0.15748031496062992},{"duration":0.3947362500000011,"midi":61,"time":52.263079499999996,"velocity":0.23622047244094488},{"duration":0.1578945000000047,"midi":71,"time":52.263079499999996,"velocity":0.3937007874015748},{"duration":0.1578945000000047,"midi":83,"time":52.263079499999996,"velocity":0.3937007874015748},{"duration":0.3157890000000023,"midi":73,"time":52.342026749999995,"velocity":0.15748031496062992},{"duration":0.1578944999999976,"midi":78,"time":52.420974,"velocity":0.3937007874015748},{"duration":0.1578944999999976,"midi":94,"time":52.420974,"velocity":0.3937007874015748},{"duration":0.4736834999999999,"midi":66,"time":52.420974,"velocity":0.15748031496062992},{"duration":0.1578944999999976,"midi":90,"time":52.420974,"velocity":0.3937007874015748},{"duration":0.1578944999999976,"midi":42,"time":52.420974,"velocity":0.5039370078740157},{"duration":0.1578944999999976,"midi":82,"time":52.420974,"velocity":0.3937007874015748},{"duration":0.3947362500000011,"midi":70,"time":52.49992125,"velocity":0.15748031496062992},{"duration":0.1578944999999976,"midi":83,"time":52.5788685,"velocity":0.3937007874015748},{"duration":0.3947362500000011,"midi":54,"time":52.5788685,"velocity":0.23622047244094488},{"duration":0.0789472499999988,"midi":49,"time":52.5788685,"velocity":0.15748031496062992},{"duration":0.1578944999999976,"midi":80,"time":52.5788685,"velocity":0.3937007874015748},{"duration":0.3947362500000011,"midi":58,"time":52.5788685,"velocity":0.23622047244094488},{"duration":0.4736834999999999,"midi":73,"time":52.5788685,"velocity":0.15748031496062992},{"duration":0.1578944999999976,"midi":68,"time":52.5788685,"velocity":0.3937007874015748},{"duration":0.1578944999999976,"midi":71,"time":52.5788685,"velocity":0.3937007874015748},{"duration":0.0789472499999988,"midi":46,"time":52.5788685,"velocity":0.15748031496062992},{"duration":0.3947362500000011,"midi":61,"time":52.5788685,"velocity":0.23622047244094488},{"duration":0.0789472499999988,"midi":78,"time":52.65781575,"velocity":0.15748031496062992},{"duration":0.0789472499999988,"midi":85,"time":52.736762999999996,"velocity":0.15748031496062992},{"duration":0.3157890000000023,"midi":66,"time":52.736762999999996,"velocity":0.3937007874015748},{"duration":0.1578945000000047,"midi":78,"time":52.736762999999996,"velocity":0.3937007874015748},{"duration":0.1578945000000047,"midi":82,"time":52.736762999999996,"velocity":0.3937007874015748},{"duration":0.3157890000000023,"midi":70,"time":52.736762999999996,"velocity":0.3937007874015748},{"duration":0.1578945000000047,"midi":37,"time":52.736762999999996,"velocity":0.5039370078740157},{"duration":0.07894725000000591,"midi":82,"time":52.815710249999995,"velocity":0.15748031496062992},{"duration":0.1578944999999976,"midi":80,"time":52.8946575,"velocity":0.3937007874015748},{"duration":0.1578944999999976,"midi":71,"time":52.8946575,"velocity":0.3937007874015748},{"duration":0.1578944999999976,"midi":54,"time":52.8946575,"velocity":0.23622047244094488},{"duration":0.1578944999999976,"midi":83,"time":52.8946575,"velocity":0.3937007874015748},{"duration":0.0789472499999988,"midi":49,"time":52.8946575,"velocity":0.15748031496062992},{"duration":0.1578944999999976,"midi":58,"time":52.8946575,"velocity":0.23622047244094488},{"duration":0.1578944999999976,"midi":61,"time":52.8946575,"velocity":0.23622047244094488},{"duration":0.0789472499999988,"midi":78,"time":52.8946575,"velocity":0.15748031496062992},{"duration":0.1578944999999976,"midi":68,"time":52.8946575,"velocity":0.3937007874015748},{"duration":0.0789472499999988,"midi":46,"time":52.8946575,"velocity":0.15748031496062992},{"duration":0.0789472499999988,"midi":73,"time":52.97360475,"velocity":0.15748031496062992},{"duration":0.1578944999999976,"midi":95,"time":53.052552,"velocity":0.3937007874015748},{"duration":0.1578944999999976,"midi":83,"time":53.052552,"velocity":0.3937007874015748},{"duration":0.2368417499999964,"midi":56,"time":53.052552,"velocity":0.2677165354330709},{"duration":0.2368417499999964,"midi":75,"time":53.052552,"velocity":0.3937007874015748},{"duration":0.1578944999999976,"midi":78,"time":53.052552,"velocity":0.3937007874015748},{"duration":0.2368417499999964,"midi":63,"time":53.052552,"velocity":0.2677165354330709},{"duration":0.1578944999999976,"midi":90,"time":53.052552,"velocity":0.3937007874015748},{"duration":0.1578944999999976,"midi":44,"time":53.052552,"velocity":0.5039370078740157},{"duration":0.0789472499999988,"midi":68,"time":53.052552,"velocity":0.15748031496062992},{"duration":0.7105252499999963,"midi":68,"time":53.052552,"velocity":0.2677165354330709},{"duration":0.1578944999999976,"midi":71,"time":53.052552,"velocity":0.2677165354330709},{"duration":0.2368417499999964,"midi":59,"time":53.052552,"velocity":0.2677165354330709},{"duration":0.7105252500000034,"midi":71,"time":53.13149925,"velocity":0.15748031496062992},{"duration":0.3947362500000011,"midi":56,"time":53.210446499999996,"velocity":0.23622047244094488},{"duration":0.052631499999996834,"midi":82,"time":53.210446499999996,"velocity":0.3937007874015748},{"duration":0.3157890000000023,"midi":75,"time":53.210446499999996,"velocity":0.15748031496062992},{"duration":0.052631499999996834,"midi":77,"time":53.210446499999996,"velocity":0.3937007874015748},{"duration":0.0789472499999988,"midi":47,"time":53.210446499999996,"velocity":0.15748031496062992},{"duration":0.3947362500000011,"midi":59,"time":53.210446499999996,"velocity":0.23622047244094488},{"duration":0.052631499999996834,"midi":89,"time":53.210446499999996,"velocity":0.3937007874015748},{"duration":0.052631499999996834,"midi":94,"time":53.210446499999996,"velocity":0.3937007874015748},{"duration":0.0789472499999988,"midi":51,"time":53.210446499999996,"velocity":0.15748031496062992},{"duration":0.3947362500000011,"midi":63,"time":53.210446499999996,"velocity":0.23622047244094488},{"duration":0.052631500000011044,"midi":83,"time":53.26307799999999,"velocity":0.3937007874015748},{"duration":0.052631500000011044,"midi":95,"time":53.26307799999999,"velocity":0.3937007874015748},{"duration":0.052631500000011044,"midi":78,"time":53.26307799999999,"velocity":0.3937007874015748},{"duration":0.052631500000011044,"midi":90,"time":53.26307799999999,"velocity":0.3937007874015748},{"duration":0.07894725000000591,"midi":80,"time":53.289393749999995,"velocity":0.15748031496062992},{"duration":0.052631499999996834,"midi":82,"time":53.315709500000004,"velocity":0.3937007874015748},{"duration":0.052631499999996834,"midi":77,"time":53.315709500000004,"velocity":0.3937007874015748},{"duration":0.052631499999996834,"midi":89,"time":53.315709500000004,"velocity":0.3937007874015748},{"duration":0.052631499999996834,"midi":94,"time":53.315709500000004,"velocity":0.3937007874015748},{"duration":0.1578944999999976,"midi":39,"time":53.368341,"velocity":0.5039370078740157},{"duration":0.0789472499999988,"midi":87,"time":53.368341,"velocity":0.3937007874015748},{"duration":0.1578944999999976,"midi":92,"time":53.368341,"velocity":0.3937007874015748},{"duration":0.1578944999999976,"midi":87,"time":53.368341,"velocity":0.15748031496062992},{"duration":0.1578944999999976,"midi":80,"time":53.368341,"velocity":0.3937007874015748},{"duration":0.3157889999999952,"midi":75,"time":53.368341,"velocity":0.3937007874015748},{"duration":0.0789472499999988,"midi":83,"time":53.44728825,"velocity":0.15748031496062992},{"duration":0.0789472499999988,"midi":51,"time":53.5262355,"velocity":0.15748031496062992},{"duration":0.3947362500000011,"midi":59,"time":53.5262355,"velocity":0.23622047244094488},{"duration":0.3947362500000011,"midi":63,"time":53.5262355,"velocity":0.23622047244094488},{"duration":0.3947362500000011,"midi":56,"time":53.5262355,"velocity":0.23622047244094488},{"duration":0.1578944999999976,"midi":78,"time":53.5262355,"velocity":0.3937007874015748},{"duration":0.1578944999999976,"midi":73,"time":53.5262355,"velocity":0.3937007874015748},{"duration":0.1578944999999976,"midi":90,"time":53.5262355,"velocity":0.3937007874015748},{"duration":0.1578944999999976,"midi":85,"time":53.5262355,"velocity":0.3937007874015748},{"duration":0.0789472499999988,"midi":47,"time":53.5262355,"velocity":0.15748031496062992},{"duration":0.0789472499999988,"midi":80,"time":53.5262355,"velocity":0.15748031496062992},{"duration":0.23684175000000351,"midi":75,"time":53.60518275,"velocity":0.15748031496062992},{"duration":0.1578945000000047,"midi":44,"time":53.684129999999996,"velocity":0.5039370078740157},{"duration":0.1578945000000047,"midi":83,"time":53.684129999999996,"velocity":0.3937007874015748},{"duration":0.3157890000000023,"midi":68,"time":53.684129999999996,"velocity":0.15748031496062992},{"duration":0.23684175000000351,"midi":75,"time":53.684129999999996,"velocity":0.3937007874015748},{"duration":0.1578945000000047,"midi":87,"time":53.684129999999996,"velocity":0.3937007874015748},{"duration":0.1578945000000047,"midi":71,"time":53.684129999999996,"velocity":0.3937007874015748},{"duration":0.23684175000000351,"midi":71,"time":53.763077249999995,"velocity":0.15748031496062992},{"duration":0.394736249999994,"midi":63,"time":53.8420245,"velocity":0.23622047244094488},{"duration":0.1578944999999976,"midi":80,"time":53.8420245,"velocity":0.3937007874015748},{"duration":0.4736834999999999,"midi":71,"time":53.8420245,"velocity":0.3937007874015748},{"duration":0.1578944999999976,"midi":83,"time":53.8420245,"velocity":0.3937007874015748},{"duration":0.394736249999994,"midi":59,"time":53.8420245,"velocity":0.23622047244094488},{"duration":0.4736834999999999,"midi":75,"time":53.8420245,"velocity":0.15748031496062992},{"duration":0.4736834999999999,"midi":68,"time":53.8420245,"velocity":0.3937007874015748},{"duration":0.0789472499999988,"midi":51,"time":53.8420245,"velocity":0.15748031496062992},{"duration":0.394736249999994,"midi":56,"time":53.8420245,"velocity":0.23622047244094488},{"duration":0.0789472499999988,"midi":47,"time":53.8420245,"velocity":0.15748031496062992},{"duration":0.0789472499999988,"midi":80,"time":53.92097175,"velocity":0.15748031496062992},{"duration":0.1578944999999976,"midi":82,"time":53.999919,"velocity":0.3937007874015748},{"duration":0.0789472499999988,"midi":87,"time":53.999919,"velocity":0.15748031496062992},{"duration":0.1578944999999976,"midi":39,"time":53.999919,"velocity":0.5039370078740157},{"duration":0.1578944999999976,"midi":70,"time":53.999919,"velocity":0.3937007874015748},{"duration":0.1578944999999976,"midi":66,"time":53.999919,"velocity":0.3937007874015748},{"duration":0.1578944999999976,"midi":78,"time":53.999919,"velocity":0.3937007874015748},{"duration":0.0789472499999988,"midi":83,"time":54.07886625,"velocity":0.15748031496062992},{"duration":0.0789472499999988,"midi":51,"time":54.157813499999996,"velocity":0.15748031496062992},{"duration":0.0789472499999988,"midi":80,"time":54.157813499999996,"velocity":0.3937007874015748},{"duration":0.1578945000000047,"midi":68,"time":54.157813499999996,"velocity":0.3937007874015748},{"duration":0.0789472499999988,"midi":47,"time":54.157813499999996,"velocity":0.15748031496062992},{"duration":0.1578945000000047,"midi":71,"time":54.157813499999996,"velocity":0.3937007874015748},{"duration":0.1578945000000047,"midi":83,"time":54.157813499999996,"velocity":0.3937007874015748},{"duration":0.1578945000000047,"midi":80,"time":54.157813499999996,"velocity":0.15748031496062992},{"duration":0.1578945000000047,"midi":59,"time":54.157813499999996,"velocity":0.23622047244094488},{"duration":0.1578945000000047,"midi":56,"time":54.157813499999996,"velocity":0.23622047244094488},{"duration":0.1578945000000047,"midi":63,"time":54.157813499999996,"velocity":0.23622047244094488},{"duration":0.07894725000000591,"midi":75,"time":54.236760749999995,"velocity":0.15748031496062992},{"duration":1.263155999999995,"midi":53,"time":54.315708,"velocity":0.2677165354330709},{"duration":0.1578944999999976,"midi":77,"time":54.315708,"velocity":0.3937007874015748},{"duration":0.1578944999999976,"midi":73,"time":54.315708,"velocity":0.3937007874015748},{"duration":0.2368417499999964,"midi":58,"time":54.315708,"velocity":0.2677165354330709},{"duration":1.263155999999995,"midi":61,"time":54.315708,"velocity":0.2677165354330709},{"duration":0.2368417499999964,"midi":70,"time":54.315708,"velocity":0.2677165354330709},{"duration":0.1578944999999976,"midi":39,"time":54.315708,"velocity":0.5039370078740157},{"duration":0.6315779999999975,"midi":65,"time":54.315708,"velocity":0.2677165354330709},{"duration":0.0789472499999988,"midi":63,"time":54.315708,"velocity":0.15748031496062992},{"duration":1.263155999999995,"midi":73,"time":54.315708,"velocity":0.2677165354330709},{"duration":0.1578944999999976,"midi":85,"time":54.315708,"velocity":0.3937007874015748},{"duration":0.1578944999999976,"midi":89,"time":54.315708,"velocity":0.3937007874015748},{"duration":0.6315779999999975,"midi":77,"time":54.315708,"velocity":0.3937007874015748},{"duration":0.0789472499999988,"midi":66,"time":54.39465525,"velocity":0.15748031496062992},{"duration":0.1578944999999976,"midi":78,"time":54.4736025,"velocity":0.3937007874015748},{"duration":0.0789472499999988,"midi":42,"time":54.4736025,"velocity":0.15748031496062992},{"duration":0.3947362500000011,"midi":58,"time":54.4736025,"velocity":0.23622047244094488},{"duration":0.0789472499999988,"midi":46,"time":54.4736025,"velocity":0.15748031496062992},{"duration":0.1578944999999976,"midi":70,"time":54.4736025,"velocity":0.3937007874015748},{"duration":0.0789472499999988,"midi":54,"time":54.4736025,"velocity":0.23622047244094488},{"duration":0.0789472499999988,"midi":51,"time":54.4736025,"velocity":0.23622047244094488},{"duration":0.1578944999999976,"midi":66,"time":54.4736025,"velocity":0.3937007874015748},{"duration":0.4736834999999999,"midi":70,"time":54.4736025,"velocity":0.15748031496062992},{"duration":0.1578944999999976,"midi":82,"time":54.4736025,"velocity":0.3937007874015748},{"duration":0.0789472499999988,"midi":75,"time":54.55254975,"velocity":0.15748031496062992},{"duration":0.1578945000000047,"midi":75,"time":54.631496999999996,"velocity":0.3937007874015748},{"duration":0.1578945000000047,"midi":34,"time":54.631496999999996,"velocity":0.5039370078740157},{"duration":0.0789472499999988,"midi":82,"time":54.631496999999996,"velocity":0.15748031496062992},{"duration":0.1578945000000047,"midi":63,"time":54.631496999999996,"velocity":0.3937007874015748},{"duration":0.1578945000000047,"midi":66,"time":54.631496999999996,"velocity":0.3937007874015748},{"duration":0.1578945000000047,"midi":78,"time":54.631496999999996,"velocity":0.3937007874015748},{"duration":0.07894725000000591,"midi":78,"time":54.710444249999995,"velocity":0.15748031496062992},{"duration":0.0789472499999988,"midi":51,"time":54.7893915,"velocity":0.23622047244094488},{"duration":0.1578944999999976,"midi":82,"time":54.7893915,"velocity":0.3937007874015748},{"duration":0.0789472499999988,"midi":42,"time":54.7893915,"velocity":0.15748031496062992},{"duration":0.1578944999999976,"midi":78,"time":54.7893915,"velocity":0.3937007874015748},{"duration":0.394736249999994,"midi":58,"time":54.7893915,"velocity":0.23622047244094488},{"duration":0.1578944999999976,"midi":66,"time":54.7893915,"velocity":0.3937007874015748},{"duration":0.0789472499999988,"midi":54,"time":54.7893915,"velocity":0.23622047244094488},{"duration":0.1578944999999976,"midi":70,"time":54.7893915,"velocity":0.3937007874015748},{"duration":0.0789472499999988,"midi":46,"time":54.7893915,"velocity":0.15748031496062992},{"duration":0.0789472499999988,"midi":75,"time":54.7893915,"velocity":0.15748031496062992},{"duration":0.3157889999999952,"midi":70,"time":54.86833875,"velocity":0.15748031496062992},{"duration":0.1578944999999976,"midi":66,"time":54.947286,"velocity":0.3937007874015748},{"duration":0.1578944999999976,"midi":90,"time":54.947286,"velocity":0.3937007874015748},{"duration":0.1578944999999976,"midi":75,"time":54.947286,"velocity":0.3937007874015748},{"duration":0.1578944999999976,"midi":39,"time":54.947286,"velocity":0.5039370078740157},{"duration":0.1578944999999976,"midi":78,"time":54.947286,"velocity":0.3937007874015748},{"duration":0.3157890000000023,"midi":78,"time":54.947286,"velocity":0.3937007874015748},{"duration":0.0789472499999988,"midi":63,"time":54.947286,"velocity":0.15748031496062992},{"duration":0.1578944999999976,"midi":87,"time":54.947286,"velocity":0.3937007874015748},{"duration":0.23684175000000351,"midi":66,"time":55.02623325,"velocity":0.15748031496062992},{"duration":0.1578945000000047,"midi":82,"time":55.105180499999996,"velocity":0.3937007874015748},{"duration":0.0789472499999988,"midi":51,"time":55.105180499999996,"velocity":0.23622047244094488},{"duration":0.0789472499999988,"midi":46,"time":55.105180499999996,"velocity":0.15748031496062992},{"duration":0.3947362500000011,"midi":58,"time":55.105180499999996,"velocity":0.23622047244094488},{"duration":0.0789472499999988,"midi":54,"time":55.105180499999996,"velocity":0.23622047244094488},{"duration":0.3157890000000023,"midi":78,"time":55.105180499999996,"velocity":0.3937007874015748},{"duration":0.0789472499999988,"midi":42,"time":55.105180499999996,"velocity":0.15748031496062992},{"duration":0.1578945000000047,"midi":70,"time":55.105180499999996,"velocity":0.3937007874015748},{"duration":0.4736834999999999,"midi":70,"time":55.105180499999996,"velocity":0.15748031496062992},{"duration":0.3157890000000023,"midi":66,"time":55.105180499999996,"velocity":0.3937007874015748},{"duration":0.07894725000000591,"midi":75,"time":55.184127749999995,"velocity":0.15748031496062992},{"duration":0.3157889999999952,"midi":66,"time":55.263075,"velocity":0.3937007874015748},{"duration":0.1578944999999976,"midi":78,"time":55.263075,"velocity":0.3937007874015748},{"duration":0.1578944999999976,"midi":34,"time":55.263075,"velocity":0.5039370078740157},{"duration":0.0789472499999988,"midi":82,"time":55.263075,"velocity":0.15748031496062992},{"duration":0.1578944999999976,"midi":63,"time":55.263075,"velocity":0.3937007874015748},{"duration":0.1578944999999976,"midi":75,"time":55.263075,"velocity":0.3937007874015748},{"duration":0.2368417499999964,"midi":78,"time":55.34202225,"velocity":0.15748031496062992},{"duration":0.1578944999999976,"midi":78,"time":55.4209695,"velocity":0.3937007874015748},{"duration":0.0789472499999988,"midi":46,"time":55.4209695,"velocity":0.15748031496062992},{"duration":0.1578944999999976,"midi":66,"time":55.4209695,"velocity":0.3937007874015748},{"duration":0.0789472499999988,"midi":42,"time":55.4209695,"velocity":0.15748031496062992},{"duration":0.0789472499999988,"midi":54,"time":55.4209695,"velocity":0.23622047244094488},{"duration":0.0789472499999988,"midi":75,"time":55.4209695,"velocity":0.15748031496062992},{"duration":0.1578944999999976,"midi":82,"time":55.4209695,"velocity":0.3937007874015748},{"duration":0.1578944999999976,"midi":58,"time":55.4209695,"velocity":0.23622047244094488},{"duration":0.1578944999999976,"midi":70,"time":55.4209695,"velocity":0.3937007874015748},{"duration":0.0789472499999988,"midi":51,"time":55.4209695,"velocity":0.23622047244094488},{"duration":0.0789472499999988,"midi":70,"time":55.49991675,"velocity":0.15748031496062992},{"duration":0.23684175000000351,"midi":56,"time":55.578863999999996,"velocity":0.2677165354330709},{"duration":0.1578945000000047,"midi":40,"time":55.578863999999996,"velocity":0.5039370078740157},{"duration":0.1578945000000047,"midi":68,"time":55.578863999999996,"velocity":0.2677165354330709},{"duration":0.23684175000000351,"midi":71,"time":55.578863999999996,"velocity":0.2677165354330709},{"duration":0.23684175000000351,"midi":59,"time":55.578863999999996,"velocity":0.2677165354330709},{"duration":0.0789472499999988,"midi":64,"time":55.578863999999996,"velocity":0.15748031496062992},{"duration":0.1578945000000047,"midi":76,"time":55.578863999999996,"velocity":0.3937007874015748},{"duration":0.1578945000000047,"midi":88,"time":55.578863999999996,"velocity":0.3937007874015748},{"duration":0.1578945000000047,"midi":80,"time":55.578863999999996,"velocity":0.3937007874015748},{"duration":0.7105252500000034,"midi":64,"time":55.578863999999996,"velocity":0.2677165354330709},{"duration":0.2631575000000055,"midi":76,"time":55.578863999999996,"velocity":0.2677165354330709},{"duration":0.1578945000000047,"midi":92,"time":55.578863999999996,"velocity":0.3937007874015748},{"duration":0.7105252500000034,"midi":68,"time":55.657811249999995,"velocity":0.15748031496062992},{"duration":0.0789472499999988,"midi":44,"time":55.7367585,"velocity":0.15748031496062992},{"duration":0.052631499999996834,"midi":75,"time":55.7367585,"velocity":0.3937007874015748},{"duration":0.052631499999996834,"midi":90,"time":55.7367585,"velocity":0.3937007874015748},{"duration":0.394736249999994,"midi":56,"time":55.7367585,"velocity":0.23622047244094488},{"duration":0.0789472499999988,"midi":47,"time":55.7367585,"velocity":0.15748031496062992},{"duration":0.052631499999996834,"midi":87,"time":55.7367585,"velocity":0.3937007874015748},{"duration":0.0789472499999988,"midi":52,"time":55.7367585,"velocity":0.23622047244094488},{"duration":0.052631499999996834,"midi":78,"time":55.7367585,"velocity":0.3937007874015748},{"duration":0.3157889999999952,"midi":71,"time":55.7367585,"velocity":0.15748031496062992},{"duration":0.394736249999994,"midi":59,"time":55.7367585,"velocity":0.23622047244094488},{"duration":0.05263150000000394,"midi":92,"time":55.78939,"velocity":0.3937007874015748},{"duration":0.05263150000000394,"midi":80,"time":55.78939,"velocity":0.3937007874015748},{"duration":0.10526300000000077,"midi":76,"time":55.78939,"velocity":0.3937007874015748},{"duration":0.05263150000000394,"midi":88,"time":55.78939,"velocity":0.3937007874015748},{"duration":0.2368417499999964,"midi":76,"time":55.81570575,"velocity":0.15748031496062992},{"duration":0.052631499999996834,"midi":75,"time":55.8420215,"velocity":0.3937007874015748},{"duration":0.052631499999996834,"midi":78,"time":55.8420215,"velocity":0.3937007874015748},{"duration":0.052631499999996834,"midi":87,"time":55.8420215,"velocity":0.3937007874015748},{"duration":0.052631499999996834,"midi":90,"time":55.8420215,"velocity":0.3937007874015748},{"duration":0.0789472499999988,"midi":83,"time":55.894653,"velocity":0.3937007874015748},{"duration":0.1578944999999976,"midi":35,"time":55.894653,"velocity":0.5039370078740157},{"duration":0.3157890000000023,"midi":71,"time":55.894653,"velocity":0.3937007874015748},{"duration":0.2368417499999964,"midi":76,"time":55.894653,"velocity":0.3937007874015748},{"duration":0.1578944999999976,"midi":88,"time":55.894653,"velocity":0.3937007874015748},{"duration":0.1578944999999976,"midi":83,"time":55.894653,"velocity":0.15748031496062992},{"duration":0.0789472499999988,"midi":80,"time":55.97360025,"velocity":0.15748031496062992},{"duration":0.4736834999999999,"midi":76,"time":56.052547499999996,"velocity":0.15748031496062992},{"duration":0.0789472499999988,"midi":47,"time":56.052547499999996,"velocity":0.15748031496062992},{"duration":0.1578945000000047,"midi":82,"time":56.052547499999996,"velocity":0.3937007874015748},{"duration":0.3947362500000011,"midi":56,"time":56.052547499999996,"velocity":0.23622047244094488},{"duration":0.1578945000000047,"midi":70,"time":56.052547499999996,"velocity":0.3937007874015748},{"duration":0.1578945000000047,"midi":75,"time":56.052547499999996,"velocity":0.3937007874015748},{"duration":0.0789472499999988,"midi":44,"time":56.052547499999996,"velocity":0.15748031496062992},{"duration":0.0789472499999988,"midi":52,"time":56.052547499999996,"velocity":0.23622047244094488},{"duration":0.1578945000000047,"midi":87,"time":56.052547499999996,"velocity":0.3937007874015748},{"duration":0.3947362500000011,"midi":59,"time":56.052547499999996,"velocity":0.23622047244094488},{"duration":0.3157890000000023,"midi":71,"time":56.131494749999995,"velocity":0.15748031496062992},{"duration":0.1578944999999976,"midi":85,"time":56.210442,"velocity":0.3937007874015748},{"duration":0.1578944999999976,"midi":73,"time":56.210442,"velocity":0.3937007874015748},{"duration":0.6315779999999975,"midi":64,"time":56.210442,"velocity":0.15748031496062992},{"duration":0.1578944999999976,"midi":40,"time":56.210442,"velocity":0.5039370078740157},{"duration":0.1578944999999976,"midi":68,"time":56.210442,"velocity":0.3937007874015748},{"duration":0.1578944999999976,"midi":80,"time":56.210442,"velocity":0.3937007874015748},{"duration":0.3947362500000011,"midi":68,"time":56.28938925,"velocity":0.15748031496062992},{"duration":0.1578944999999976,"midi":66,"time":56.3683365,"velocity":0.3937007874015748},{"duration":0.0789472499999988,"midi":44,"time":56.3683365,"velocity":0.15748031496062992},{"duration":0.3947362500000011,"midi":56,"time":56.3683365,"velocity":0.23622047244094488},{"duration":0.1578944999999976,"midi":78,"time":56.3683365,"velocity":0.3937007874015748},{"duration":0.0789472499999988,"midi":47,"time":56.3683365,"velocity":0.15748031496062992},{"duration":0.1578944999999976,"midi":83,"time":56.3683365,"velocity":0.3937007874015748},{"duration":0.3947362500000011,"midi":59,"time":56.3683365,"velocity":0.23622047244094488},{"duration":0.0789472499999988,"midi":52,"time":56.3683365,"velocity":0.23622047244094488},{"duration":0.1578944999999976,"midi":71,"time":56.3683365,"velocity":0.3937007874015748},{"duration":0.4736834999999999,"midi":71,"time":56.3683365,"velocity":0.15748031496062992},{"duration":0.3157890000000023,"midi":76,"time":56.44728375,"velocity":0.15748031496062992},{"duration":0.1578945000000047,"midi":73,"time":56.526230999999996,"velocity":0.3937007874015748},{"duration":0.3157890000000023,"midi":68,"time":56.526230999999996,"velocity":0.3937007874015748},{"duration":0.1578945000000047,"midi":35,"time":56.526230999999996,"velocity":0.5039370078740157},{"duration":0.1578945000000047,"midi":80,"time":56.526230999999996,"velocity":0.3937007874015748},{"duration":0.0789472499999988,"midi":83,"time":56.526230999999996,"velocity":0.15748031496062992},{"duration":0.1578945000000047,"midi":85,"time":56.526230999999996,"velocity":0.3937007874015748},{"duration":0.07894725000000591,"midi":80,"time":56.605178249999994,"velocity":0.15748031496062992},{"duration":0.1578944999999976,"midi":59,"time":56.6841255,"velocity":0.23622047244094488},{"duration":0.1578944999999976,"midi":76,"time":56.6841255,"velocity":0.15748031496062992},{"duration":0.1578944999999976,"midi":76,"time":56.6841255,"velocity":0.3937007874015748},{"duration":0.1578944999999976,"midi":88,"time":56.6841255,"velocity":0.3937007874015748},{"duration":0.0789472499999988,"midi":47,"time":56.6841255,"velocity":0.15748031496062992},{"duration":0.0789472499999988,"midi":52,"time":56.6841255,"velocity":0.23622047244094488},{"duration":0.1578944999999976,"midi":85,"time":56.6841255,"velocity":0.3937007874015748},{"duration":0.0789472499999988,"midi":44,"time":56.6841255,"velocity":0.15748031496062992},{"duration":0.1578944999999976,"midi":73,"time":56.6841255,"velocity":0.3937007874015748},{"duration":0.1578944999999976,"midi":56,"time":56.6841255,"velocity":0.23622047244094488},{"duration":0.0789472499999988,"midi":71,"time":56.76307275,"velocity":0.15748031496062992},{"duration":0.0789472499999988,"midi":71,"time":56.84202,"velocity":0.3937007874015748},{"duration":0.2368417499999964,"midi":54,"time":56.84202,"velocity":0.2677165354330709},{"duration":0.1578944999999976,"midi":87,"time":56.84202,"velocity":0.3937007874015748},{"duration":0.1578944999999976,"midi":71,"time":56.84202,"velocity":0.2677165354330709},{"duration":0.1578944999999976,"midi":83,"time":56.84202,"velocity":0.3937007874015748},{"duration":0.2368417499999964,"midi":59,"time":56.84202,"velocity":0.2677165354330709},{"duration":0.3157890000000023,"midi":71,"time":56.84202,"velocity":0.15748031496062992},{"duration":0.2368417499999964,"midi":66,"time":56.84202,"velocity":0.2677165354330709},{"duration":0.1578944999999976,"midi":47,"time":56.84202,"velocity":0.5039370078740157},{"duration":0.1578944999999976,"midi":75,"time":56.84202,"velocity":0.3937007874015748},{"duration":0.2368417499999964,"midi":63,"time":56.84202,"velocity":0.2677165354330709},{"duration":0.2368417499999964,"midi":78,"time":56.84202,"velocity":0.3937007874015748},{"duration":0.3947362500000011,"midi":75,"time":56.92096725,"velocity":0.15748031496062992},{"duration":0.0789472499999988,"midi":47,"time":56.999914499999996,"velocity":0.15748031496062992},{"duration":0.3157890000000023,"midi":63,"time":56.999914499999996,"velocity":0.23622047244094488},{"duration":0.1578945000000047,"midi":66,"time":56.999914499999996,"velocity":0.3937007874015748},{"duration":0.1578945000000047,"midi":83,"time":56.999914499999996,"velocity":0.3937007874015748},{"duration":0.3947362500000011,"midi":54,"time":56.999914499999996,"velocity":0.15748031496062992},{"duration":0.4736834999999999,"midi":71,"time":56.999914499999996,"velocity":0.3937007874015748},{"duration":0.3157890000000023,"midi":66,"time":56.999914499999996,"velocity":0.23622047244094488},{"duration":0.0789472499999988,"midi":51,"time":56.999914499999996,"velocity":0.15748031496062992},{"duration":0.1578945000000047,"midi":78,"time":56.999914499999996,"velocity":0.3937007874015748},{"duration":0.3947362500000011,"midi":59,"time":56.999914499999996,"velocity":0.23622047244094488},{"duration":0.3157890000000023,"midi":78,"time":56.999914499999996,"velocity":0.15748031496062992},{"duration":0.07894725000000591,"midi":83,"time":57.078861749999994,"velocity":0.15748031496062992},{"duration":0.1578944999999976,"midi":42,"time":57.157809,"velocity":0.5039370078740157},{"duration":0.0789472499999988,"midi":90,"time":57.157809,"velocity":0.15748031496062992},{"duration":0.2368417499999964,"midi":63,"time":57.157809,"velocity":0.3937007874015748},{"duration":0.4736834999999999,"midi":75,"time":57.157809,"velocity":0.3937007874015748},{"duration":0.3157889999999952,"midi":78,"time":57.157809,"velocity":0.3937007874015748},{"duration":0.2368417499999964,"midi":66,"time":57.157809,"velocity":0.3937007874015748},{"duration":0.0789472499999988,"midi":87,"time":57.23675625,"velocity":0.15748031496062992},{"duration":0.3947362500000011,"midi":63,"time":57.3157035,"velocity":0.23622047244094488},{"duration":0.0789472499999988,"midi":51,"time":57.3157035,"velocity":0.15748031496062992},{"duration":0.1578944999999976,"midi":66,"time":57.3157035,"velocity":0.3937007874015748},{"duration":0.3947362500000011,"midi":54,"time":57.3157035,"velocity":0.15748031496062992},{"duration":0.3947362500000011,"midi":59,"time":57.3157035,"velocity":0.23622047244094488},{"duration":0.1578944999999976,"midi":78,"time":57.3157035,"velocity":0.3937007874015748},{"duration":0.0789472499999988,"midi":83,"time":57.3157035,"velocity":0.15748031496062992},{"duration":0.2368417499999964,"midi":71,"time":57.3157035,"velocity":0.3937007874015748},{"duration":0.0789472499999988,"midi":47,"time":57.3157035,"velocity":0.15748031496062992},{"duration":0.1578944999999976,"midi":83,"time":57.3157035,"velocity":0.3937007874015748},{"duration":0.3947362500000011,"midi":66,"time":57.3157035,"velocity":0.23622047244094488},{"duration":0.3157890000000023,"midi":78,"time":57.39465075,"velocity":0.15748031496062992},{"duration":0.1578945000000047,"midi":47,"time":57.473597999999996,"velocity":0.5039370078740157},{"duration":0.4736834999999999,"midi":75,"time":57.473597999999996,"velocity":0.3937007874015748},{"duration":0.4736834999999999,"midi":87,"time":57.473597999999996,"velocity":0.3937007874015748},{"duration":0.3157890000000023,"midi":83,"time":57.473597999999996,"velocity":0.3937007874015748},{"duration":0.4736834999999999,"midi":71,"time":57.473597999999996,"velocity":0.15748031496062992},{"duration":0.6315780000000046,"midi":71,"time":57.473597999999996,"velocity":0.3937007874015748},{"duration":0.5526307500000058,"midi":75,"time":57.552545249999994,"velocity":0.15748031496062992},{"duration":0.394736249999994,"midi":59,"time":57.6314925,"velocity":0.23622047244094488},{"duration":0.394736249999994,"midi":66,"time":57.6314925,"velocity":0.23622047244094488},{"duration":0.394736249999994,"midi":63,"time":57.6314925,"velocity":0.23622047244094488},{"duration":0.394736249999994,"midi":54,"time":57.6314925,"velocity":0.15748031496062992},{"duration":0.0789472499999988,"midi":47,"time":57.6314925,"velocity":0.15748031496062992},{"duration":0.0789472499999988,"midi":51,"time":57.6314925,"velocity":0.15748031496062992},{"duration":0.4736834999999999,"midi":78,"time":57.6314925,"velocity":0.15748031496062992},{"duration":0.2368417499999964,"midi":83,"time":57.71043975,"velocity":0.15748031496062992},{"duration":0.0789472499999988,"midi":90,"time":57.789387,"velocity":0.15748031496062992},{"duration":0.1578944999999976,"midi":42,"time":57.789387,"velocity":0.5039370078740157},{"duration":0.0789472499999988,"midi":87,"time":57.86833425,"velocity":0.15748031496062992},{"duration":0.1578945000000047,"midi":59,"time":57.947281499999995,"velocity":0.23622047244094488},{"duration":0.0789472499999988,"midi":51,"time":57.947281499999995,"velocity":0.15748031496062992},{"duration":0.0789472499999988,"midi":83,"time":57.947281499999995,"velocity":0.15748031496062992},{"duration":0.1578945000000047,"midi":71,"time":57.947281499999995,"velocity":0.3937007874015748},{"duration":0.1578945000000047,"midi":63,"time":57.947281499999995,"velocity":0.23622047244094488},{"duration":0.1578945000000047,"midi":54,"time":57.947281499999995,"velocity":0.15748031496062992},{"duration":0.1578945000000047,"midi":78,"time":57.947281499999995,"velocity":0.3937007874015748},{"duration":0.0789472499999988,"midi":47,"time":57.947281499999995,"velocity":0.15748031496062992},{"duration":0.1578945000000047,"midi":66,"time":57.947281499999995,"velocity":0.23622047244094488},{"duration":0.1578945000000047,"midi":83,"time":57.947281499999995,"velocity":0.3937007874015748},{"duration":0.1578945000000047,"midi":66,"time":57.947281499999995,"velocity":0.3937007874015748},{"duration":0.07894725000000591,"midi":78,"time":58.026228749999994,"velocity":0.15748031496062992},{"duration":0.1578944999999976,"midi":68,"time":58.105176,"velocity":0.2677165354330709},{"duration":0.1578944999999976,"midi":37,"time":58.105176,"velocity":0.5039370078740157},{"duration":0.1578944999999976,"midi":85,"time":58.105176,"velocity":0.3937007874015748},{"duration":0.0789472499999988,"midi":73,"time":58.105176,"velocity":0.15748031496062992},{"duration":0.1578944999999976,"midi":76,"time":58.105176,"velocity":0.3937007874015748},{"duration":0.1578944999999976,"midi":80,"time":58.105176,"velocity":0.3937007874015748},{"duration":0.3157889999999952,"midi":64,"time":58.105176,"velocity":0.2677165354330709},{"duration":0.2368417499999964,"midi":56,"time":58.105176,"velocity":0.2677165354330709},{"duration":0.4736834999999999,"midi":73,"time":58.105176,"velocity":0.3937007874015748},{"duration":0.3157889999999952,"midi":68,"time":58.105176,"velocity":0.3937007874015748},{"duration":0.4736834999999999,"midi":61,"time":58.105176,"velocity":0.2677165354330709},{"duration":0.2368417499999964,"midi":52,"time":58.105176,"velocity":0.2677165354330709},{"duration":0.2368417499999964,"midi":76,"time":58.18412325,"velocity":0.15748031496062992},{"duration":0.3947362500000011,"midi":56,"time":58.2630705,"velocity":0.23622047244094488},{"duration":0.0789472499999988,"midi":49,"time":58.2630705,"velocity":0.23622047244094488},{"duration":0.3157890000000023,"midi":64,"time":58.2630705,"velocity":0.3937007874015748},{"duration":0.0789472499999988,"midi":40,"time":58.2630705,"velocity":0.15748031496062992},{"duration":0.4736834999999999,"midi":68,"time":58.2630705,"velocity":0.3937007874015748},{"duration":0.0789472499999988,"midi":44,"time":58.2630705,"velocity":0.15748031496062992},{"duration":0.3947362500000011,"midi":52,"time":58.2630705,"velocity":0.23622047244094488},{"duration":0.0789472499999988,"midi":80,"time":58.2630705,"velocity":0.15748031496062992},{"duration":0.1578944999999976,"midi":80,"time":58.2630705,"velocity":0.3937007874015748},{"duration":0.3157890000000023,"midi":76,"time":58.2630705,"velocity":0.3937007874015748},{"duration":0.0789472499999988,"midi":85,"time":58.34201775,"velocity":0.15748031496062992},{"duration":0.3947362500000011,"midi":73,"time":58.420964999999995,"velocity":0.3937007874015748},{"duration":0.3157890000000023,"midi":76,"time":58.420964999999995,"velocity":0.3937007874015748},{"duration":0.1578945000000047,"midi":35,"time":58.420964999999995,"velocity":0.5039370078740157},{"duration":0.3157890000000023,"midi":64,"time":58.420964999999995,"velocity":0.3937007874015748},{"duration":0.0789472499999988,"midi":92,"time":58.420964999999995,"velocity":0.15748031496062992},{"duration":0.9473669999999998,"midi":61,"time":58.420964999999995,"velocity":0.3937007874015748},{"duration":0.07894725000000591,"midi":88,"time":58.499912249999994,"velocity":0.15748031496062992},{"duration":0.0789472499999988,"midi":44,"time":58.5788595,"velocity":0.15748031496062992},{"duration":0.0789472499999988,"midi":40,"time":58.5788595,"velocity":0.15748031496062992},{"duration":0.394736249999994,"midi":56,"time":58.5788595,"velocity":0.23622047244094488},{"duration":0.3157889999999952,"midi":76,"time":58.5788595,"velocity":0.3937007874015748},{"duration":0.394736249999994,"midi":52,"time":58.5788595,"velocity":0.23622047244094488},{"duration":0.0789472499999988,"midi":49,"time":58.5788595,"velocity":0.23622047244094488},{"duration":0.1578944999999976,"midi":80,"time":58.5788595,"velocity":0.3937007874015748},{"duration":0.4736834999999999,"midi":68,"time":58.5788595,"velocity":0.3937007874015748},{"duration":0.7894724999999951,"midi":64,"time":58.5788595,"velocity":0.3937007874015748},{"duration":0.0789472499999988,"midi":85,"time":58.5788595,"velocity":0.15748031496062992},{"duration":0.0789472499999988,"midi":80,"time":58.65780675,"velocity":0.15748031496062992},{"duration":0.1578944999999976,"midi":34,"time":58.736754,"velocity":0.5039370078740157},{"duration":0.3157890000000023,"midi":73,"time":58.736754,"velocity":0.3937007874015748},{"duration":0.3157890000000023,"midi":85,"time":58.736754,"velocity":0.3937007874015748},{"duration":0.2368417499999964,"midi":80,"time":58.736754,"velocity":0.3937007874015748},{"duration":0.6315779999999975,"midi":73,"time":58.736754,"velocity":0.15748031496062992},{"duration":0.6315779999999975,"midi":68,"time":58.736754,"velocity":0.3937007874015748},{"duration":0.5526307499999987,"midi":76,"time":58.81570125,"velocity":0.15748031496062992},{"duration":0.3947362500000011,"midi":56,"time":58.894648499999995,"velocity":0.23622047244094488},{"duration":0.3947362500000011,"midi":52,"time":58.894648499999995,"velocity":0.23622047244094488},{"duration":0.0789472499999988,"midi":49,"time":58.894648499999995,"velocity":0.23622047244094488},{"duration":0.0789472499999988,"midi":40,"time":58.894648499999995,"velocity":0.15748031496062992},{"duration":0.0789472499999988,"midi":44,"time":58.894648499999995,"velocity":0.15748031496062992},{"duration":0.1578945000000047,"midi":80,"time":58.894648499999995,"velocity":0.15748031496062992},{"duration":0.07894725000000591,"midi":85,"time":58.973595749999994,"velocity":0.15748031496062992},{"duration":0.3157889999999952,"midi":83,"time":59.052543,"velocity":0.3937007874015748},{"duration":0.3157889999999952,"midi":71,"time":59.052543,"velocity":0.3937007874015748},{"duration":0.0789472499999988,"midi":92,"time":59.052543,"velocity":0.15748031496062992},{"duration":0.1578944999999976,"midi":88,"time":59.052543,"velocity":0.3937007874015748},{"duration":0.3157889999999952,"midi":76,"time":59.052543,"velocity":0.3937007874015748},{"duration":0.1578944999999976,"midi":32,"time":59.052543,"velocity":0.5039370078740157},{"duration":0.2368417499999964,"midi":88,"time":59.13149025,"velocity":0.15748031496062992},{"duration":0.1578944999999976,"midi":52,"time":59.2104375,"velocity":0.23622047244094488},{"duration":0.0789472499999988,"midi":49,"time":59.2104375,"velocity":0.23622047244094488},{"duration":0.0789472499999988,"midi":40,"time":59.2104375,"velocity":0.15748031496062992},{"duration":0.0789472499999988,"midi":85,"time":59.2104375,"velocity":0.15748031496062992},{"duration":0.0789472499999988,"midi":44,"time":59.2104375,"velocity":0.15748031496062992},{"duration":0.1578944999999976,"midi":56,"time":59.2104375,"velocity":0.23622047244094488},{"duration":0.0789472499999988,"midi":80,"time":59.289384749999996,"velocity":0.15748031496062992},{"duration":0.6315780000000046,"midi":43,"time":59.368331999999995,"velocity":0.11811023622047244},{"duration":0.4736834999999999,"midi":87,"time":59.368331999999995,"velocity":0.3937007874015748},{"duration":0.6315780000000046,"midi":31,"time":59.368331999999995,"velocity":0.11811023622047244},{"duration":0.6315780000000046,"midi":63,"time":59.368331999999995,"velocity":0.11811023622047244},{"duration":0.4736834999999999,"midi":75,"time":59.368331999999995,"velocity":0.3937007874015748},{"duration":0.6315780000000046,"midi":51,"time":59.368331999999995,"velocity":0.11811023622047244},{"duration":0.4736834999999999,"midi":83,"time":59.368331999999995,"velocity":0.3937007874015748},{"duration":0.6315780000000046,"midi":39,"time":59.368331999999995,"velocity":0.5039370078740157},{"duration":0.4736834999999999,"midi":71,"time":59.368331999999995,"velocity":0.3937007874015748},{"duration":0.0789472499999988,"midi":88,"time":59.842015499999995,"velocity":0.3937007874015748},{"duration":0.0789472499999988,"midi":76,"time":59.842015499999995,"velocity":0.3937007874015748},{"duration":0.0789472499999988,"midi":73,"time":59.842015499999995,"velocity":0.3937007874015748},{"duration":0.0789472499999988,"midi":85,"time":59.842015499999995,"velocity":0.3937007874015748},{"duration":0.07894725000000591,"midi":87,"time":59.920962749999994,"velocity":0.3937007874015748},{"duration":0.07894725000000591,"midi":71,"time":59.920962749999994,"velocity":0.3937007874015748},{"duration":0.07894725000000591,"midi":75,"time":59.920962749999994,"velocity":0.3937007874015748},{"duration":0.07894725000000591,"midi":83,"time":59.920962749999994,"velocity":0.3937007874015748},{"duration":0.6315779999999975,"midi":73,"time":59.99991,"velocity":0.3937007874015748},{"duration":0.6315779999999975,"midi":70,"time":59.99991,"velocity":0.3937007874015748},{"duration":0.6315779999999975,"midi":82,"time":59.99991,"velocity":0.3937007874015748},{"duration":0.6315779999999975,"midi":67,"time":59.99991,"velocity":0.11811023622047244},{"duration":0.6315779999999975,"midi":39,"time":59.99991,"velocity":0.11811023622047244},{"duration":0.6315779999999975,"midi":85,"time":59.99991,"velocity":0.3937007874015748},{"duration":0.6315779999999975,"midi":55,"time":59.99991,"velocity":0.11811023622047244},{"duration":0.6315779999999975,"midi":43,"time":59.99991,"velocity":0.5039370078740157},{"duration":0.6315779999999975,"midi":27,"time":59.99991,"velocity":0.11811023622047244},{"duration":0.0789472499999988,"midi":64,"time":60.631488,"velocity":0.15748031496062992},{"duration":0.1578944999999976,"midi":64,"time":60.631488,"velocity":0.1968503937007874},{"duration":0.23684175000000351,"midi":71,"time":60.631488,"velocity":0.47244094488188976},{"duration":1.342103250000001,"midi":83,"time":60.631488,"velocity":0.47244094488188976},{"duration":0.1578944999999976,"midi":67,"time":60.631488,"velocity":0.47244094488188976},{"duration":0.1578944999999976,"midi":40,"time":60.631488,"velocity":0.5433070866141733},{"duration":0.5526307499999987,"midi":67,"time":60.710435249999996,"velocity":0.1968503937007874},{"duration":0.3947362500000011,"midi":71,"time":60.789382499999995,"velocity":0.1968503937007874},{"duration":0.07894725000000591,"midi":55,"time":60.789382499999995,"velocity":0.2677165354330709},{"duration":0.07894725000000591,"midi":47,"time":60.789382499999995,"velocity":0.2677165354330709},{"duration":0.07894725000000591,"midi":52,"time":60.789382499999995,"velocity":0.2677165354330709},{"duration":0.07894725000000591,"midi":59,"time":60.789382499999995,"velocity":0.2677165354330709},{"duration":0.0789472499999988,"midi":76,"time":60.86832975,"velocity":0.1968503937007874},{"duration":0.1578944999999976,"midi":35,"time":60.947277,"velocity":0.5433070866141733},{"duration":0.1578944999999976,"midi":66,"time":60.947277,"velocity":0.15748031496062992},{"duration":0.0789472499999988,"midi":79,"time":60.947277,"velocity":0.1968503937007874},{"duration":0.0789472499999988,"midi":76,"time":61.02622425,"velocity":0.1968503937007874},{"duration":0.3947362500000011,"midi":71,"time":61.1051715,"velocity":0.1968503937007874},{"duration":0.0789472499999988,"midi":59,"time":61.1051715,"velocity":0.2677165354330709},{"duration":0.0789472499999988,"midi":47,"time":61.1051715,"velocity":0.2677165354330709},{"duration":0.0789472499999988,"midi":55,"time":61.1051715,"velocity":0.2677165354330709},{"duration":0.0789472499999988,"midi":52,"time":61.1051715,"velocity":0.2677165354330709},{"duration":0.23684175000000351,"midi":67,"time":61.184118749999996,"velocity":0.1968503937007874},{"duration":0.07894725000000591,"midi":64,"time":61.263065999999995,"velocity":0.1968503937007874},{"duration":0.1578945000000047,"midi":40,"time":61.263065999999995,"velocity":0.5433070866141733},{"duration":0.1578945000000047,"midi":67,"time":61.263065999999995,"velocity":0.15748031496062992},{"duration":0.5526307499999987,"midi":67,"time":61.34201325,"velocity":0.1968503937007874},{"duration":0.0789472499999988,"midi":52,"time":61.4209605,"velocity":0.2677165354330709},{"duration":0.0789472499999988,"midi":59,"time":61.4209605,"velocity":0.2677165354330709},{"duration":0.3157889999999952,"midi":71,"time":61.4209605,"velocity":0.1968503937007874},{"duration":0.0789472499999988,"midi":47,"time":61.4209605,"velocity":0.2677165354330709},{"duration":0.0789472499999988,"midi":55,"time":61.4209605,"velocity":0.2677165354330709},{"duration":0.0789472499999988,"midi":76,"time":61.49990775,"velocity":0.1968503937007874},{"duration":0.0789472499999988,"midi":79,"time":61.578855,"velocity":0.1968503937007874},{"duration":0.1578944999999976,"midi":35,"time":61.578855,"velocity":0.5433070866141733},{"duration":0.23684175000000351,"midi":71,"time":61.578855,"velocity":0.15748031496062992},{"duration":0.0789472499999988,"midi":76,"time":61.657802249999996,"velocity":0.1968503937007874},{"duration":0.07894725000000591,"midi":52,"time":61.736749499999995,"velocity":0.2677165354330709},{"duration":0.07894725000000591,"midi":59,"time":61.736749499999995,"velocity":0.2677165354330709},{"duration":0.07894725000000591,"midi":47,"time":61.736749499999995,"velocity":0.2677165354330709},{"duration":0.23684175000000351,"midi":71,"time":61.736749499999995,"velocity":0.1968503937007874},{"duration":0.07894725000000591,"midi":55,"time":61.736749499999995,"velocity":0.2677165354330709},{"duration":0.1578944999999976,"midi":67,"time":61.81569675,"velocity":0.1968503937007874},{"duration":0.0789472499999988,"midi":64,"time":61.894644,"velocity":0.15748031496062992},{"duration":0.1578944999999976,"midi":64,"time":61.894644,"velocity":0.1968503937007874},{"duration":0.1578944999999976,"midi":40,"time":61.894644,"velocity":0.5433070866141733},{"duration":0.0789472499999988,"midi":67,"time":61.97359125,"velocity":0.1968503937007874},{"duration":0.0789472499999988,"midi":71,"time":62.0525385,"velocity":0.47244094488188976},{"duration":0.0789472499999988,"midi":59,"time":62.0525385,"velocity":0.2677165354330709},{"duration":0.0789472499999988,"midi":67,"time":62.0525385,"velocity":0.47244094488188976},{"duration":0.0789472499999988,"midi":55,"time":62.0525385,"velocity":0.2677165354330709},{"duration":0.0789472499999988,"midi":83,"time":62.0525385,"velocity":0.47244094488188976},{"duration":0.0789472499999988,"midi":47,"time":62.0525385,"velocity":0.2677165354330709},{"duration":0.0789472499999988,"midi":52,"time":62.0525385,"velocity":0.2677165354330709},{"duration":0.0789472499999988,"midi":71,"time":62.0525385,"velocity":0.1968503937007874},{"duration":0.0789472499999988,"midi":76,"time":62.131485749999996,"velocity":0.1968503937007874},{"duration":0.1578945000000047,"midi":35,"time":62.210432999999995,"velocity":0.5433070866141733},{"duration":0.07894725000000591,"midi":79,"time":62.210432999999995,"velocity":0.1968503937007874},{"duration":0.1578945000000047,"midi":66,"time":62.210432999999995,"velocity":0.47244094488188976},{"duration":0.1578945000000047,"midi":69,"time":62.210432999999995,"velocity":0.47244094488188976},{"duration":0.1578945000000047,"midi":81,"time":62.210432999999995,"velocity":0.47244094488188976},{"duration":0.1578945000000047,"midi":66,"time":62.210432999999995,"velocity":0.15748031496062992},{"duration":0.0789472499999988,"midi":76,"time":62.28938025,"velocity":0.1968503937007874},{"duration":0.0789472499999988,"midi":71,"time":62.3683275,"velocity":0.1968503937007874},{"duration":0.1578944999999976,"midi":67,"time":62.3683275,"velocity":0.47244094488188976},{"duration":0.0789472499999988,"midi":47,"time":62.3683275,"velocity":0.2677165354330709},{"duration":0.0789472499999988,"midi":52,"time":62.3683275,"velocity":0.2677165354330709},{"duration":0.0789472499999988,"midi":55,"time":62.3683275,"velocity":0.2677165354330709},{"duration":0.0789472499999988,"midi":59,"time":62.3683275,"velocity":0.2677165354330709},{"duration":0.1578944999999976,"midi":79,"time":62.3683275,"velocity":0.47244094488188976},{"duration":0.1578944999999976,"midi":64,"time":62.3683275,"velocity":0.47244094488188976},{"duration":0.0789472499999988,"midi":67,"time":62.44727475,"velocity":0.1968503937007874},{"duration":0.3157890000000023,"midi":63,"time":62.526222,"velocity":0.47244094488188976},{"duration":0.0789472499999988,"midi":64,"time":62.526222,"velocity":0.1968503937007874},{"duration":0.1578944999999976,"midi":67,"time":62.526222,"velocity":0.15748031496062992},{"duration":0.3157890000000023,"midi":66,"time":62.526222,"velocity":0.47244094488188976},{"duration":0.3157890000000023,"midi":78,"time":62.526222,"velocity":0.47244094488188976},{"duration":0.1578944999999976,"midi":40,"time":62.526222,"velocity":0.5433070866141733},{"duration":0.0789472499999988,"midi":67,"time":62.605169249999996,"velocity":0.1968503937007874},{"duration":0.07894725000000591,"midi":71,"time":62.684116499999995,"velocity":0.1968503937007874},{"duration":0.07894725000000591,"midi":47,"time":62.684116499999995,"velocity":0.2677165354330709},{"duration":0.07894725000000591,"midi":52,"time":62.684116499999995,"velocity":0.2677165354330709},{"duration":0.07894725000000591,"midi":55,"time":62.684116499999995,"velocity":0.2677165354330709},{"duration":0.07894725000000591,"midi":59,"time":62.684116499999995,"velocity":0.2677165354330709},{"duration":0.0789472499999988,"midi":76,"time":62.76306375,"velocity":0.1968503937007874},{"duration":0.1578944999999976,"midi":61,"time":62.842011,"velocity":0.47244094488188976},{"duration":0.1578944999999976,"midi":35,"time":62.842011,"velocity":0.5433070866141733},{"duration":0.1578944999999976,"midi":76,"time":62.842011,"velocity":0.47244094488188976},{"duration":0.0789472499999988,"midi":79,"time":62.842011,"velocity":0.1968503937007874},{"duration":0.1578944999999976,"midi":64,"time":62.842011,"velocity":0.15748031496062992},{"duration":0.1578944999999976,"midi":64,"time":62.842011,"velocity":0.47244094488188976},{"duration":0.0789472499999988,"midi":76,"time":62.92095825,"velocity":0.1968503937007874},{"duration":0.3157890000000023,"midi":75,"time":62.9999055,"velocity":0.47244094488188976},{"duration":0.0789472499999988,"midi":55,"time":62.9999055,"velocity":0.2677165354330709},{"duration":0.0789472499999988,"midi":59,"time":62.9999055,"velocity":0.47244094488188976},{"duration":0.0789472499999988,"midi":47,"time":62.9999055,"velocity":0.2677165354330709},{"duration":0.0789472499999988,"midi":52,"time":62.9999055,"velocity":0.2677165354330709},{"duration":0.0789472499999988,"midi":71,"time":62.9999055,"velocity":0.1968503937007874},{"duration":0.9473669999999998,"midi":63,"time":62.9999055,"velocity":0.47244094488188976},{"duration":0.3157890000000023,"midi":59,"time":62.9999055,"velocity":0.2677165354330709},{"duration":0.0789472499999988,"midi":67,"time":63.078852749999996,"velocity":0.1968503937007874},{"duration":0.1578945000000047,"midi":47,"time":63.157799999999995,"velocity":0.5433070866141733},{"duration":0.07894725000000591,"midi":71,"time":63.157799999999995,"velocity":0.1968503937007874},{"duration":1.2631560000000093,"midi":59,"time":63.157799999999995,"velocity":0.15748031496062992},{"duration":0.5526307499999987,"midi":75,"time":63.23674725,"velocity":0.1968503937007874},{"duration":0.0789472499999988,"midi":78,"time":63.3156945,"velocity":0.1968503937007874},{"duration":0.0789472499999988,"midi":47,"time":63.3156945,"velocity":0.2677165354330709},{"duration":0.0789472499999988,"midi":54,"time":63.3156945,"velocity":0.2677165354330709},{"duration":0.0789472499999988,"midi":51,"time":63.3156945,"velocity":0.2677165354330709},{"duration":0.0789472499999988,"midi":83,"time":63.39464175,"velocity":0.1968503937007874},{"duration":0.1578944999999976,"midi":42,"time":63.473589,"velocity":0.5433070866141733},{"duration":0.1578944999999976,"midi":61,"time":63.473589,"velocity":0.15748031496062992},{"duration":0.0789472499999988,"midi":87,"time":63.473589,"velocity":0.1968503937007874},{"duration":0.0789472499999988,"midi":83,"time":63.552536249999996,"velocity":0.1968503937007874},{"duration":0.07894725000000591,"midi":47,"time":63.631483499999995,"velocity":0.2677165354330709},{"duration":0.07894725000000591,"midi":54,"time":63.631483499999995,"velocity":0.2677165354330709},{"duration":0.07894725000000591,"midi":78,"time":63.631483499999995,"velocity":0.1968503937007874},{"duration":0.07894725000000591,"midi":51,"time":63.631483499999995,"velocity":0.2677165354330709},{"duration":0.2368417499999964,"midi":75,"time":63.71043075,"velocity":0.1968503937007874},{"duration":0.1578944999999976,"midi":47,"time":63.789378,"velocity":0.5433070866141733},{"duration":0.6315780000000046,"midi":63,"time":63.789378,"velocity":0.15748031496062992},{"duration":0.0789472499999988,"midi":71,"time":63.789378,"velocity":0.1968503937007874},{"duration":0.5526307500000058,"midi":75,"time":63.86832525,"velocity":0.1968503937007874},{"duration":0.0789472499999988,"midi":47,"time":63.9472725,"velocity":0.2677165354330709},{"duration":0.0789472499999988,"midi":78,"time":63.9472725,"velocity":0.1968503937007874},{"duration":0.0789472499999988,"midi":54,"time":63.9472725,"velocity":0.2677165354330709},{"duration":0.0789472499999988,"midi":51,"time":63.9472725,"velocity":0.2677165354330709},{"duration":0.0789472499999988,"midi":83,"time":64.02621975,"velocity":0.1968503937007874},{"duration":0.1578944999999976,"midi":42,"time":64.105167,"velocity":0.5433070866141733},{"duration":0.1578944999999976,"midi":66,"time":64.105167,"velocity":0.15748031496062992},{"duration":0.0789472499999988,"midi":87,"time":64.105167,"velocity":0.1968503937007874},{"duration":0.0789472499999988,"midi":83,"time":64.18411425,"velocity":0.1968503937007874},{"duration":0.0789472499999988,"midi":51,"time":64.26306149999999,"velocity":0.2677165354330709},{"duration":0.0789472499999988,"midi":78,"time":64.26306149999999,"velocity":0.1968503937007874},{"duration":0.0789472499999988,"midi":54,"time":64.26306149999999,"velocity":0.2677165354330709},{"duration":0.0789472499999988,"midi":47,"time":64.26306149999999,"velocity":0.2677165354330709},{"duration":0.07894725000001301,"midi":75,"time":64.34200874999999,"velocity":0.1968503937007874},{"duration":0.1578944999999976,"midi":58,"time":64.420956,"velocity":0.15748031496062992},{"duration":0.0789472499999988,"midi":70,"time":64.420956,"velocity":0.1968503937007874},{"duration":0.1578944999999976,"midi":42,"time":64.420956,"velocity":0.5433070866141733},{"duration":0.0789472499999988,"midi":73,"time":64.49990325,"velocity":0.1968503937007874},{"duration":0.0789472499999988,"midi":75,"time":64.5788505,"velocity":0.47244094488188976},{"duration":0.0789472499999988,"midi":46,"time":64.5788505,"velocity":0.2677165354330709},{"duration":0.0789472499999988,"midi":59,"time":64.5788505,"velocity":0.47244094488188976},{"duration":0.0789472499999988,"midi":78,"time":64.5788505,"velocity":0.1968503937007874},{"duration":0.0789472499999988,"midi":63,"time":64.5788505,"velocity":0.47244094488188976},{"duration":0.0789472499999988,"midi":54,"time":64.5788505,"velocity":0.2677165354330709},{"duration":0.0789472499999988,"midi":49,"time":64.5788505,"velocity":0.2677165354330709},{"duration":0.0789472499999988,"midi":82,"time":64.65779775,"velocity":0.1968503937007874},{"duration":0.0789472499999988,"midi":76,"time":64.736745,"velocity":0.47244094488188976},{"duration":0.0789472499999988,"midi":85,"time":64.736745,"velocity":0.1968503937007874},{"duration":0.0789472499999988,"midi":61,"time":64.736745,"velocity":0.15748031496062992},{"duration":0.0789472499999988,"midi":64,"time":64.736745,"velocity":0.47244094488188976},{"duration":0.1578944999999976,"midi":61,"time":64.736745,"velocity":0.47244094488188976},{"duration":0.1578944999999976,"midi":37,"time":64.736745,"velocity":0.5433070866141733},{"duration":0.0789472499999988,"midi":82,"time":64.81569225,"velocity":0.1968503937007874},{"duration":0.0789472499999988,"midi":75,"time":64.8946395,"velocity":0.47244094488188976},{"duration":0.0789472499999988,"midi":46,"time":64.8946395,"velocity":0.2677165354330709},{"duration":0.0789472499999988,"midi":63,"time":64.8946395,"velocity":0.47244094488188976},{"duration":0.0789472499999988,"midi":54,"time":64.8946395,"velocity":0.2677165354330709},{"duration":0.0789472499999988,"midi":78,"time":64.8946395,"velocity":0.1968503937007874},{"duration":0.0789472499999988,"midi":49,"time":64.8946395,"velocity":0.2677165354330709},{"duration":0.0789472499999988,"midi":59,"time":64.8946395,"velocity":0.47244094488188976},{"duration":0.0789472499999988,"midi":73,"time":64.97358675,"velocity":0.1968503937007874},{"duration":0.1578944999999976,"midi":73,"time":65.052534,"velocity":0.47244094488188976},{"duration":0.1578944999999976,"midi":66,"time":65.052534,"velocity":0.15748031496062992},{"duration":0.0789472499999988,"midi":70,"time":65.052534,"velocity":0.1968503937007874},{"duration":0.3157890000000094,"midi":58,"time":65.052534,"velocity":0.47244094488188976},{"duration":0.3157890000000094,"midi":61,"time":65.052534,"velocity":0.47244094488188976},{"duration":0.1578944999999976,"midi":42,"time":65.052534,"velocity":0.5433070866141733},{"duration":0.23684175000001062,"midi":73,"time":65.13148125,"velocity":0.1968503937007874},{"duration":0.0789472499999988,"midi":54,"time":65.21042849999999,"velocity":0.2677165354330709},{"duration":0.0789472499999988,"midi":46,"time":65.21042849999999,"velocity":0.2677165354330709},{"duration":0.0789472499999988,"midi":49,"time":65.21042849999999,"velocity":0.2677165354330709},{"duration":0.0789472499999988,"midi":78,"time":65.21042849999999,"velocity":0.1968503937007874},{"duration":0.07894725000001301,"midi":82,"time":65.28937574999999,"velocity":0.1968503937007874},{"duration":0.3157889999999952,"midi":63,"time":65.368323,"velocity":0.47244094488188976},{"duration":0.3157889999999952,"midi":66,"time":65.368323,"velocity":0.47244094488188976},{"duration":0.2368417499999964,"midi":78,"time":65.368323,"velocity":0.47244094488188976},{"duration":0.0789472499999988,"midi":85,"time":65.368323,"velocity":0.1968503937007874},{"duration":0.1578944999999976,"midi":37,"time":65.368323,"velocity":0.5433070866141733},{"duration":0.0789472499999988,"midi":82,"time":65.44727025,"velocity":0.1968503937007874},{"duration":0.0789472499999988,"midi":54,"time":65.5262175,"velocity":0.2677165354330709},{"duration":0.0789472499999988,"midi":46,"time":65.5262175,"velocity":0.2677165354330709},{"duration":0.0789472499999988,"midi":49,"time":65.5262175,"velocity":0.2677165354330709},{"duration":0.1578944999999976,"midi":78,"time":65.5262175,"velocity":0.1968503937007874},{"duration":0.0789472499999988,"midi":73,"time":65.60516475,"velocity":0.1968503937007874},{"duration":0.2368417499999964,"midi":71,"time":65.684112,"velocity":0.47244094488188976},{"duration":0.0789472499999988,"midi":64,"time":65.684112,"velocity":0.15748031496062992},{"duration":0.1578944999999976,"midi":40,"time":65.684112,"velocity":0.5433070866141733},{"duration":1.3421032499999939,"midi":83,"time":65.684112,"velocity":0.47244094488188976},{"duration":0.1578944999999976,"midi":67,"time":65.684112,"velocity":0.47244094488188976},{"duration":0.1578944999999976,"midi":64,"time":65.684112,"velocity":0.1968503937007874},{"duration":0.5526307500000058,"midi":67,"time":65.76305925,"velocity":0.1968503937007874},{"duration":0.0789472499999988,"midi":59,"time":65.8420065,"velocity":0.2677165354330709},{"duration":0.0789472499999988,"midi":55,"time":65.8420065,"velocity":0.2677165354330709},{"duration":0.394736249999994,"midi":71,"time":65.8420065,"velocity":0.1968503937007874},{"duration":0.0789472499999988,"midi":52,"time":65.8420065,"velocity":0.2677165354330709},{"duration":0.0789472499999988,"midi":47,"time":65.8420065,"velocity":0.2677165354330709},{"duration":0.0789472499999988,"midi":76,"time":65.92095375,"velocity":0.1968503937007874},{"duration":0.1578944999999976,"midi":66,"time":65.999901,"velocity":0.15748031496062992},{"duration":0.0789472499999988,"midi":79,"time":65.999901,"velocity":0.1968503937007874},{"duration":0.1578944999999976,"midi":35,"time":65.999901,"velocity":0.5433070866141733},{"duration":0.0789472499999988,"midi":76,"time":66.07884825,"velocity":0.1968503937007874},{"duration":0.0789472499999988,"midi":55,"time":66.15779549999999,"velocity":0.2677165354330709},{"duration":0.0789472499999988,"midi":47,"time":66.15779549999999,"velocity":0.2677165354330709},{"duration":0.0789472499999988,"midi":52,"time":66.15779549999999,"velocity":0.2677165354330709},{"duration":0.0789472499999988,"midi":59,"time":66.15779549999999,"velocity":0.2677165354330709},{"duration":0.3947362500000082,"midi":71,"time":66.15779549999999,"velocity":0.1968503937007874},{"duration":0.23684175000001062,"midi":67,"time":66.23674274999999,"velocity":0.1968503937007874},{"duration":0.1578944999999976,"midi":40,"time":66.31569,"velocity":0.5433070866141733},{"duration":0.1578944999999976,"midi":67,"time":66.31569,"velocity":0.15748031496062992},{"duration":0.0789472499999988,"midi":64,"time":66.31569,"velocity":0.1968503937007874},{"duration":0.5526307499999916,"midi":67,"time":66.39463725,"velocity":0.1968503937007874},{"duration":0.0789472499999988,"midi":47,"time":66.4735845,"velocity":0.2677165354330709},{"duration":0.0789472499999988,"midi":59,"time":66.4735845,"velocity":0.2677165354330709},{"duration":0.0789472499999988,"midi":55,"time":66.4735845,"velocity":0.2677165354330709},{"duration":0.0789472499999988,"midi":52,"time":66.4735845,"velocity":0.2677165354330709},{"duration":0.3157889999999952,"midi":71,"time":66.4735845,"velocity":0.1968503937007874},{"duration":0.0789472499999988,"midi":76,"time":66.55253175,"velocity":0.1968503937007874},{"duration":0.2368417499999964,"midi":71,"time":66.631479,"velocity":0.15748031496062992},{"duration":0.0789472499999988,"midi":79,"time":66.631479,"velocity":0.1968503937007874},{"duration":0.1578944999999976,"midi":35,"time":66.631479,"velocity":0.5433070866141733},{"duration":0.0789472499999988,"midi":76,"time":66.71042625,"velocity":0.1968503937007874},{"duration":0.2368417499999964,"midi":71,"time":66.7893735,"velocity":0.1968503937007874},{"duration":0.0789472499999988,"midi":47,"time":66.7893735,"velocity":0.2677165354330709},{"duration":0.0789472499999988,"midi":52,"time":66.7893735,"velocity":0.2677165354330709},{"duration":0.0789472499999988,"midi":55,"time":66.7893735,"velocity":0.2677165354330709},{"duration":0.0789472499999988,"midi":59,"time":66.7893735,"velocity":0.2677165354330709},{"duration":0.1578944999999976,"midi":67,"time":66.86832075,"velocity":0.1968503937007874},{"duration":0.0789472499999988,"midi":64,"time":66.947268,"velocity":0.15748031496062992},{"duration":0.1578944999999976,"midi":40,"time":66.947268,"velocity":0.5433070866141733},{"duration":0.1578944999999976,"midi":64,"time":66.947268,"velocity":0.1968503937007874},{"duration":0.0789472499999988,"midi":67,"time":67.02621524999999,"velocity":0.1968503937007874},{"duration":0.15789450000001182,"midi":67,"time":67.10516249999999,"velocity":0.47244094488188976},{"duration":0.0789472499999988,"midi":59,"time":67.10516249999999,"velocity":0.2677165354330709},{"duration":0.0789472499999988,"midi":71,"time":67.10516249999999,"velocity":0.1968503937007874},{"duration":0.15789450000001182,"midi":83,"time":67.10516249999999,"velocity":0.47244094488188976},{"duration":0.15789450000001182,"midi":71,"time":67.10516249999999,"velocity":0.47244094488188976},{"duration":0.0789472499999988,"midi":52,"time":67.10516249999999,"velocity":0.2677165354330709},{"duration":0.0789472499999988,"midi":55,"time":67.10516249999999,"velocity":0.2677165354330709},{"duration":0.0789472499999988,"midi":47,"time":67.10516249999999,"velocity":0.2677165354330709},{"duration":0.07894725000001301,"midi":76,"time":67.18410974999999,"velocity":0.1968503937007874},{"duration":0.1578944999999976,"midi":70,"time":67.263057,"velocity":0.47244094488188976},{"duration":0.0789472499999988,"midi":79,"time":67.263057,"velocity":0.1968503937007874},{"duration":0.1578944999999976,"midi":82,"time":67.263057,"velocity":0.47244094488188976},{"duration":0.1578944999999976,"midi":66,"time":67.263057,"velocity":0.47244094488188976},{"duration":0.1578944999999976,"midi":66,"time":67.263057,"velocity":0.15748031496062992},{"duration":0.1578944999999976,"midi":35,"time":67.263057,"velocity":0.5433070866141733},{"duration":0.0789472499999988,"midi":76,"time":67.34200425,"velocity":0.1968503937007874},{"duration":0.0789472499999988,"midi":71,"time":67.4209515,"velocity":0.47244094488188976},{"duration":0.1578944999999976,"midi":67,"time":67.4209515,"velocity":0.47244094488188976},{"duration":0.0789472499999988,"midi":59,"time":67.4209515,"velocity":0.2677165354330709},{"duration":0.0789472499999988,"midi":55,"time":67.4209515,"velocity":0.2677165354330709},{"duration":0.0789472499999988,"midi":47,"time":67.4209515,"velocity":0.2677165354330709},{"duration":0.0789472499999988,"midi":52,"time":67.4209515,"velocity":0.2677165354330709},{"duration":0.1578944999999976,"midi":71,"time":67.4209515,"velocity":0.1968503937007874},{"duration":0.1578944999999976,"midi":83,"time":67.4209515,"velocity":0.47244094488188976},{"duration":0.0789472499999988,"midi":67,"time":67.49989875,"velocity":0.1968503937007874},{"duration":0.3157889999999952,"midi":78,"time":67.578846,"velocity":0.47244094488188976},{"duration":0.3157889999999952,"midi":66,"time":67.578846,"velocity":0.47244094488188976},{"duration":0.1578944999999976,"midi":40,"time":67.578846,"velocity":0.5433070866141733},{"duration":0.0789472499999988,"midi":64,"time":67.578846,"velocity":0.1968503937007874},{"duration":0.3157889999999952,"midi":90,"time":67.578846,"velocity":0.47244094488188976},{"duration":0.1578944999999976,"midi":67,"time":67.578846,"velocity":0.15748031496062992},{"duration":0.0789472499999988,"midi":67,"time":67.65779325,"velocity":0.1968503937007874},{"duration":0.0789472499999988,"midi":71,"time":67.7367405,"velocity":0.1968503937007874},{"duration":0.0789472499999988,"midi":52,"time":67.7367405,"velocity":0.2677165354330709},{"duration":0.0789472499999988,"midi":59,"time":67.7367405,"velocity":0.2677165354330709},{"duration":0.0789472499999988,"midi":47,"time":67.7367405,"velocity":0.2677165354330709},{"duration":0.0789472499999988,"midi":55,"time":67.7367405,"velocity":0.2677165354330709},{"duration":0.0789472499999988,"midi":76,"time":67.81568775,"velocity":0.1968503937007874},{"duration":0.0789472499999988,"midi":79,"time":67.894635,"velocity":0.1968503937007874},{"duration":0.0789472499999988,"midi":71,"time":67.894635,"velocity":0.47244094488188976},{"duration":0.1578944999999976,"midi":35,"time":67.894635,"velocity":0.5433070866141733},{"duration":0.0789472499999988,"midi":83,"time":67.894635,"velocity":0.47244094488188976},{"duration":0.0789472499999988,"midi":64,"time":67.894635,"velocity":0.15748031496062992},{"duration":0.1578944999999976,"midi":64,"time":67.894635,"velocity":0.47244094488188976},{"duration":0.0789472499999988,"midi":76,"time":67.97358224999999,"velocity":0.1968503937007874},{"duration":0.9473669999999998,"midi":63,"time":68.05252949999999,"velocity":0.47244094488188976},{"duration":0.47368350000000703,"midi":83,"time":68.05252949999999,"velocity":0.47244094488188976},{"duration":0.0789472499999988,"midi":52,"time":68.05252949999999,"velocity":0.2677165354330709},{"duration":0.0789472499999988,"midi":55,"time":68.05252949999999,"velocity":0.2677165354330709},{"duration":0.0789472499999988,"midi":47,"time":68.05252949999999,"velocity":0.2677165354330709},{"duration":0.0789472499999988,"midi":71,"time":68.05252949999999,"velocity":0.47244094488188976},{"duration":0.23684175000001062,"midi":71,"time":68.05252949999999,"velocity":0.1968503937007874},{"duration":0.0789472499999988,"midi":59,"time":68.05252949999999,"velocity":0.2677165354330709},{"duration":0.07894725000001301,"midi":67,"time":68.13147674999999,"velocity":0.1968503937007874},{"duration":0.7105252499999892,"midi":71,"time":68.210424,"velocity":0.1968503937007874},{"duration":0.1578944999999976,"midi":47,"time":68.210424,"velocity":0.5433070866141733},{"duration":0.1578944999999976,"midi":59,"time":68.210424,"velocity":0.15748031496062992},{"duration":0.0789472499999988,"midi":75,"time":68.28937125,"velocity":0.1968503937007874},{"duration":0.0789472499999988,"midi":47,"time":68.3683185,"velocity":0.2677165354330709},{"duration":0.0789472499999988,"midi":78,"time":68.3683185,"velocity":0.1968503937007874},{"duration":0.0789472499999988,"midi":51,"time":68.3683185,"velocity":0.2677165354330709},{"duration":0.0789472499999988,"midi":54,"time":68.3683185,"velocity":0.2677165354330709},{"duration":0.2368417499999964,"midi":83,"time":68.44726575,"velocity":0.1968503937007874},{"duration":0.0789472499999988,"midi":87,"time":68.526213,"velocity":0.1968503937007874},{"duration":0.1578944999999976,"midi":42,"time":68.526213,"velocity":0.5433070866141733},{"duration":0.1578944999999976,"midi":61,"time":68.526213,"velocity":0.15748031496062992},{"duration":0.5526307500000058,"midi":83,"time":68.60516025,"velocity":0.1968503937007874},{"duration":0.0789472499999988,"midi":54,"time":68.6841075,"velocity":0.2677165354330709},{"duration":0.0789472499999988,"midi":47,"time":68.6841075,"velocity":0.2677165354330709},{"duration":0.0789472499999988,"midi":78,"time":68.6841075,"velocity":0.1968503937007874},{"duration":0.0789472499999988,"midi":51,"time":68.6841075,"velocity":0.2677165354330709},{"duration":0.0789472499999988,"midi":75,"time":68.76305475,"velocity":0.1968503937007874},{"duration":0.3157890000000094,"midi":63,"time":68.842002,"velocity":0.15748031496062992},{"duration":0.3157890000000094,"midi":71,"time":68.842002,"velocity":0.1968503937007874},{"duration":0.1578944999999976,"midi":47,"time":68.842002,"velocity":0.5433070866141733},{"duration":0.0789472499999988,"midi":75,"time":68.92094924999999,"velocity":0.1968503937007874},{"duration":0.0789472499999988,"midi":51,"time":68.99989649999999,"velocity":0.2677165354330709},{"duration":0.0789472499999988,"midi":54,"time":68.99989649999999,"velocity":0.2677165354330709},{"duration":0.0789472499999988,"midi":78,"time":68.99989649999999,"velocity":0.1968503937007874},{"duration":0.0789472499999988,"midi":47,"time":68.99989649999999,"velocity":0.2677165354330709},{"duration":0.07894725000001301,"midi":83,"time":69.07884374999999,"velocity":0.1968503937007874},{"duration":0.0789472499999988,"midi":87,"time":69.157791,"velocity":0.1968503937007874},{"duration":0.1578944999999976,"midi":42,"time":69.157791,"velocity":0.5433070866141733},{"duration":0.1578944999999976,"midi":66,"time":69.157791,"velocity":0.15748031496062992},{"duration":0.0789472499999988,"midi":83,"time":69.23673825,"velocity":0.1968503937007874},{"duration":0.0789472499999988,"midi":47,"time":69.3156855,"velocity":0.2677165354330709},{"duration":0.0789472499999988,"midi":63,"time":69.3156855,"velocity":0.47244094488188976},{"duration":0.0789472499999988,"midi":54,"time":69.3156855,"velocity":0.2677165354330709},{"duration":0.0789472499999988,"midi":51,"time":69.3156855,"velocity":0.2677165354330709},{"duration":0.0789472499999988,"midi":78,"time":69.3156855,"velocity":0.1968503937007874},{"duration":0.0789472499999988,"midi":85,"time":69.3156855,"velocity":0.47244094488188976},{"duration":0.0789472499999988,"midi":73,"time":69.3156855,"velocity":0.47244094488188976},{"duration":0.0789472499999988,"midi":83,"time":69.39463275,"velocity":0.47244094488188976},{"duration":0.0789472499999988,"midi":75,"time":69.39463275,"velocity":0.1968503937007874},{"duration":0.0789472499999988,"midi":64,"time":69.39463275,"velocity":0.47244094488188976},{"duration":0.0789472499999988,"midi":71,"time":69.39463275,"velocity":0.47244094488188976},{"duration":0.3157889999999952,"midi":82,"time":69.47358,"velocity":0.47244094488188976},{"duration":0.0789472499999988,"midi":70,"time":69.47358,"velocity":0.47244094488188976},{"duration":0.1578944999999976,"midi":42,"time":69.47358,"velocity":0.5433070866141733},{"duration":0.3157889999999952,"midi":66,"time":69.47358,"velocity":0.47244094488188976},{"duration":0.1578944999999976,"midi":58,"time":69.47358,"velocity":0.15748031496062992},{"duration":0.3157889999999952,"midi":70,"time":69.47358,"velocity":0.1968503937007874},{"duration":0.0789472499999988,"midi":73,"time":69.55252725,"velocity":0.1968503937007874},{"duration":0.0789472499999988,"midi":54,"time":69.6314745,"velocity":0.2677165354330709},{"duration":0.0789472499999988,"midi":49,"time":69.6314745,"velocity":0.2677165354330709},{"duration":0.0789472499999988,"midi":46,"time":69.6314745,"velocity":0.2677165354330709},{"duration":0.0789472499999988,"midi":78,"time":69.6314745,"velocity":0.1968503937007874},{"duration":0.0789472499999988,"midi":82,"time":69.71042175,"velocity":0.1968503937007874},{"duration":0.3157890000000094,"midi":71,"time":69.789369,"velocity":0.47244094488188976},{"duration":0.0789472499999988,"midi":85,"time":69.789369,"velocity":0.1968503937007874},{"duration":0.1578944999999976,"midi":61,"time":69.789369,"velocity":0.15748031496062992},{"duration":0.1578944999999976,"midi":44,"time":69.789369,"velocity":0.5433070866141733},{"duration":0.3157890000000094,"midi":68,"time":69.789369,"velocity":0.47244094488188976},{"duration":0.3157890000000094,"midi":83,"time":69.789369,"velocity":0.47244094488188976},{"duration":0.0789472499999988,"midi":82,"time":69.86831624999999,"velocity":0.1968503937007874},{"duration":0.0789472499999988,"midi":78,"time":69.94726349999999,"velocity":0.1968503937007874},{"duration":0.0789472499999988,"midi":54,"time":69.94726349999999,"velocity":0.2677165354330709},{"duration":0.0789472499999988,"midi":49,"time":69.94726349999999,"velocity":0.2677165354330709},{"duration":0.0789472499999988,"midi":46,"time":69.94726349999999,"velocity":0.2677165354330709},{"duration":0.07894725000001301,"midi":73,"time":70.02621074999999,"velocity":0.1968503937007874},{"duration":0.0789472499999988,"midi":70,"time":70.105158,"velocity":0.1968503937007874},{"duration":0.1578944999999976,"midi":73,"time":70.105158,"velocity":0.47244094488188976},{"duration":0.3157889999999952,"midi":70,"time":70.105158,"velocity":0.47244094488188976},{"duration":0.1578944999999976,"midi":66,"time":70.105158,"velocity":0.15748031496062992},{"duration":0.1578944999999976,"midi":46,"time":70.105158,"velocity":0.5433070866141733},{"duration":0.3157889999999952,"midi":85,"time":70.105158,"velocity":0.47244094488188976},{"duration":0.2368417499999964,"midi":73,"time":70.18410525,"velocity":0.1968503937007874},{"duration":0.0789472499999988,"midi":54,"time":70.2630525,"velocity":0.2677165354330709},{"duration":0.0789472499999988,"midi":46,"time":70.2630525,"velocity":0.2677165354330709},{"duration":0.0789472499999988,"midi":49,"time":70.2630525,"velocity":0.2677165354330709},{"duration":0.0789472499999988,"midi":78,"time":70.2630525,"velocity":0.1968503937007874},{"duration":0.0789472499999988,"midi":82,"time":70.34199975,"velocity":0.1968503937007874},{"duration":0.3157889999999952,"midi":66,"time":70.420947,"velocity":0.47244094488188976},{"duration":0.1578944999999976,"midi":49,"time":70.420947,"velocity":0.5433070866141733},{"duration":0.0789472499999988,"midi":85,"time":70.420947,"velocity":0.1968503937007874},{"duration":0.1578944999999976,"midi":82,"time":70.420947,"velocity":0.47244094488188976},{"duration":0.3157889999999952,"midi":70,"time":70.420947,"velocity":0.47244094488188976},{"duration":0.2368417499999964,"midi":82,"time":70.49989425,"velocity":0.1968503937007874},{"duration":0.0789472499999988,"midi":49,"time":70.5788415,"velocity":0.2677165354330709},{"duration":0.0789472499999988,"midi":54,"time":70.5788415,"velocity":0.2677165354330709},{"duration":0.0789472499999988,"midi":78,"time":70.5788415,"velocity":0.1968503937007874},{"duration":0.0789472499999988,"midi":46,"time":70.5788415,"velocity":0.2677165354330709},{"duration":0.0789472499999988,"midi":73,"time":70.65778875,"velocity":0.1968503937007874},{"duration":0.1578944999999976,"midi":40,"time":70.736736,"velocity":0.5433070866141733},{"duration":0.0789472499999988,"midi":64,"time":70.736736,"velocity":0.1968503937007874},{"duration":0.23684175000001062,"midi":71,"time":70.736736,"velocity":0.47244094488188976},{"duration":1.342103250000008,"midi":83,"time":70.736736,"velocity":0.47244094488188976},{"duration":0.1578944999999976,"midi":64,"time":70.736736,"velocity":0.15748031496062992},{"duration":0.1578944999999976,"midi":67,"time":70.736736,"velocity":0.47244094488188976},{"duration":0.5526307500000058,"midi":67,"time":70.81568324999999,"velocity":0.1968503937007874},{"duration":0.07894725000001301,"midi":59,"time":70.89463049999999,"velocity":0.2677165354330709},{"duration":0.07894725000001301,"midi":47,"time":70.89463049999999,"velocity":0.2677165354330709},{"duration":0.07894725000001301,"midi":55,"time":70.89463049999999,"velocity":0.2677165354330709},{"duration":0.07894725000001301,"midi":52,"time":70.89463049999999,"velocity":0.2677165354330709},{"duration":0.3947362500000082,"midi":71,"time":70.89463049999999,"velocity":0.1968503937007874},{"duration":0.0789472499999988,"midi":76,"time":70.97357775,"velocity":0.1968503937007874},{"duration":0.1578944999999976,"midi":35,"time":71.052525,"velocity":0.5433070866141733},{"duration":0.0789472499999988,"midi":79,"time":71.052525,"velocity":0.1968503937007874},{"duration":0.1578944999999976,"midi":66,"time":71.052525,"velocity":0.15748031496062992},{"duration":0.0789472499999988,"midi":76,"time":71.13147225,"velocity":0.1968503937007874},{"duration":0.0789472499999988,"midi":47,"time":71.2104195,"velocity":0.2677165354330709},{"duration":0.0789472499999988,"midi":52,"time":71.2104195,"velocity":0.2677165354330709},{"duration":0.0789472499999988,"midi":59,"time":71.2104195,"velocity":0.2677165354330709},{"duration":0.394736249999994,"midi":71,"time":71.2104195,"velocity":0.1968503937007874},{"duration":0.0789472499999988,"midi":55,"time":71.2104195,"velocity":0.2677165354330709},{"duration":0.2368417499999964,"midi":67,"time":71.28936675,"velocity":0.1968503937007874},{"duration":0.0789472499999988,"midi":64,"time":71.368314,"velocity":0.1968503937007874},{"duration":0.1578944999999976,"midi":40,"time":71.368314,"velocity":0.5433070866141733},{"duration":0.1578944999999976,"midi":67,"time":71.368314,"velocity":0.15748031496062992},{"duration":0.5526307500000058,"midi":67,"time":71.44726125,"velocity":0.1968503937007874},{"duration":0.0789472499999988,"midi":47,"time":71.5262085,"velocity":0.2677165354330709},{"duration":0.0789472499999988,"midi":55,"time":71.5262085,"velocity":0.2677165354330709},{"duration":0.3157889999999952,"midi":71,"time":71.5262085,"velocity":0.1968503937007874},{"duration":0.0789472499999988,"midi":59,"time":71.5262085,"velocity":0.2677165354330709},{"duration":0.0789472499999988,"midi":52,"time":71.5262085,"velocity":0.2677165354330709},{"duration":0.0789472499999988,"midi":76,"time":71.60515575,"velocity":0.1968503937007874},{"duration":0.1578944999999976,"midi":35,"time":71.684103,"velocity":0.5433070866141733},{"duration":0.23684175000001062,"midi":71,"time":71.684103,"velocity":0.15748031496062992},{"duration":0.0789472499999988,"midi":79,"time":71.684103,"velocity":0.1968503937007874},{"duration":0.0789472499999988,"midi":76,"time":71.76305024999999,"velocity":0.1968503937007874},{"duration":0.07894725000001301,"midi":52,"time":71.84199749999999,"velocity":0.2677165354330709},{"duration":0.23684175000001062,"midi":71,"time":71.84199749999999,"velocity":0.1968503937007874},{"duration":0.07894725000001301,"midi":59,"time":71.84199749999999,"velocity":0.2677165354330709},{"duration":0.07894725000001301,"midi":55,"time":71.84199749999999,"velocity":0.2677165354330709},{"duration":0.07894725000001301,"midi":47,"time":71.84199749999999,"velocity":0.2677165354330709},{"duration":0.1578944999999976,"midi":67,"time":71.92094475,"velocity":0.1968503937007874},{"duration":0.1578944999999976,"midi":40,"time":71.999892,"velocity":0.5433070866141733},{"duration":0.0789472499999988,"midi":64,"time":71.999892,"velocity":0.15748031496062992},{"duration":0.1578944999999976,"midi":64,"time":71.999892,"velocity":0.1968503937007874},{"duration":0.0789472499999988,"midi":67,"time":72.07883925,"velocity":0.1968503937007874},{"duration":0.0789472499999988,"midi":59,"time":72.1577865,"velocity":0.2677165354330709},{"duration":0.0789472499999988,"midi":52,"time":72.1577865,"velocity":0.2677165354330709},{"duration":0.0789472499999988,"midi":71,"time":72.1577865,"velocity":0.47244094488188976},{"duration":0.0789472499999988,"midi":67,"time":72.1577865,"velocity":0.47244094488188976},{"duration":0.0789472499999988,"midi":83,"time":72.1577865,"velocity":0.47244094488188976},{"duration":0.0789472499999988,"midi":71,"time":72.1577865,"velocity":0.1968503937007874},{"duration":0.0789472499999988,"midi":47,"time":72.1577865,"velocity":0.2677165354330709},{"duration":0.0789472499999988,"midi":55,"time":72.1577865,"velocity":0.2677165354330709},{"duration":0.0789472499999988,"midi":76,"time":72.23673375,"velocity":0.1968503937007874},{"duration":0.1578944999999976,"midi":35,"time":72.315681,"velocity":0.5433070866141733},{"duration":0.1578944999999976,"midi":66,"time":72.315681,"velocity":0.47244094488188976},{"duration":0.1578944999999976,"midi":81,"time":72.315681,"velocity":0.47244094488188976},{"duration":0.1578944999999976,"midi":69,"time":72.315681,"velocity":0.47244094488188976},{"duration":0.0789472499999988,"midi":79,"time":72.315681,"velocity":0.1968503937007874},{"duration":0.1578944999999976,"midi":66,"time":72.315681,"velocity":0.15748031496062992},{"duration":0.0789472499999988,"midi":76,"time":72.39462825,"velocity":0.1968503937007874},{"duration":0.1578944999999976,"midi":79,"time":72.4735755,"velocity":0.47244094488188976},{"duration":0.1578944999999976,"midi":67,"time":72.4735755,"velocity":0.47244094488188976},{"duration":0.0789472499999988,"midi":71,"time":72.4735755,"velocity":0.1968503937007874},{"duration":0.0789472499999988,"midi":59,"time":72.4735755,"velocity":0.2677165354330709},{"duration":0.0789472499999988,"midi":52,"time":72.4735755,"velocity":0.2677165354330709},{"duration":0.0789472499999988,"midi":47,"time":72.4735755,"velocity":0.2677165354330709},{"duration":0.0789472499999988,"midi":55,"time":72.4735755,"velocity":0.2677165354330709},{"duration":0.1578944999999976,"midi":64,"time":72.4735755,"velocity":0.47244094488188976},{"duration":0.0789472499999988,"midi":67,"time":72.55252275,"velocity":0.1968503937007874},{"duration":0.3157890000000094,"midi":63,"time":72.63147,"velocity":0.47244094488188976},{"duration":0.1578944999999976,"midi":40,"time":72.63147,"velocity":0.5433070866141733},{"duration":0.0789472499999988,"midi":64,"time":72.63147,"velocity":0.1968503937007874},{"duration":0.3157890000000094,"midi":66,"time":72.63147,"velocity":0.47244094488188976},{"duration":0.3157890000000094,"midi":78,"time":72.63147,"velocity":0.47244094488188976},{"duration":0.1578944999999976,"midi":67,"time":72.63147,"velocity":0.15748031496062992},{"duration":0.0789472499999988,"midi":67,"time":72.71041724999999,"velocity":0.1968503937007874},{"duration":0.07894725000001301,"midi":59,"time":72.78936449999999,"velocity":0.2677165354330709},{"duration":0.07894725000001301,"midi":71,"time":72.78936449999999,"velocity":0.1968503937007874},{"duration":0.07894725000001301,"midi":47,"time":72.78936449999999,"velocity":0.2677165354330709},{"duration":0.07894725000001301,"midi":55,"time":72.78936449999999,"velocity":0.2677165354330709},{"duration":0.07894725000001301,"midi":52,"time":72.78936449999999,"velocity":0.2677165354330709},{"duration":0.0789472499999988,"midi":76,"time":72.86831175,"velocity":0.1968503937007874},{"duration":0.0789472499999988,"midi":79,"time":72.947259,"velocity":0.1968503937007874},{"duration":0.1578944999999976,"midi":64,"time":72.947259,"velocity":0.15748031496062992},{"duration":0.1578944999999976,"midi":61,"time":72.947259,"velocity":0.47244094488188976},{"duration":0.1578944999999976,"midi":35,"time":72.947259,"velocity":0.5433070866141733},{"duration":0.1578944999999976,"midi":76,"time":72.947259,"velocity":0.47244094488188976},{"duration":0.1578944999999976,"midi":64,"time":72.947259,"velocity":0.47244094488188976},{"duration":0.0789472499999988,"midi":76,"time":73.02620625,"velocity":0.1968503937007874},{"duration":0.9473669999999998,"midi":63,"time":73.1051535,"velocity":0.47244094488188976},{"duration":0.0789472499999988,"midi":59,"time":73.1051535,"velocity":0.47244094488188976},{"duration":0.0789472499999988,"midi":47,"time":73.1051535,"velocity":0.2677165354330709},{"duration":0.0789472499999988,"midi":71,"time":73.1051535,"velocity":0.1968503937007874},{"duration":0.0789472499999988,"midi":55,"time":73.1051535,"velocity":0.2677165354330709},{"duration":0.3157889999999952,"midi":59,"time":73.1051535,"velocity":0.2677165354330709},{"duration":0.3157889999999952,"midi":75,"time":73.1051535,"velocity":0.47244094488188976},{"duration":0.0789472499999988,"midi":52,"time":73.1051535,"velocity":0.2677165354330709},{"duration":0.0789472499999988,"midi":67,"time":73.18410075,"velocity":0.1968503937007874},{"duration":1.263155999999995,"midi":59,"time":73.263048,"velocity":0.15748031496062992},{"duration":0.0789472499999988,"midi":71,"time":73.263048,"velocity":0.1968503937007874},{"duration":0.1578944999999976,"midi":47,"time":73.263048,"velocity":0.5433070866141733},{"duration":0.5526307500000058,"midi":75,"time":73.34199525,"velocity":0.1968503937007874},{"duration":0.0789472499999988,"midi":78,"time":73.4209425,"velocity":0.1968503937007874},{"duration":0.0789472499999988,"midi":47,"time":73.4209425,"velocity":0.2677165354330709},{"duration":0.0789472499999988,"midi":51,"time":73.4209425,"velocity":0.2677165354330709},{"duration":0.0789472499999988,"midi":54,"time":73.4209425,"velocity":0.2677165354330709},{"duration":0.0789472499999988,"midi":83,"time":73.49988975,"velocity":0.1968503937007874},{"duration":0.1578944999999976,"midi":42,"time":73.578837,"velocity":0.5433070866141733},{"duration":0.1578944999999976,"midi":61,"time":73.578837,"velocity":0.15748031496062992},{"duration":0.0789472499999988,"midi":87,"time":73.578837,"velocity":0.1968503937007874},{"duration":0.0789472499999988,"midi":83,"time":73.65778424999999,"velocity":0.1968503937007874},{"duration":0.07894725000001301,"midi":47,"time":73.73673149999999,"velocity":0.2677165354330709},{"duration":0.07894725000001301,"midi":78,"time":73.73673149999999,"velocity":0.1968503937007874},{"duration":0.07894725000001301,"midi":51,"time":73.73673149999999,"velocity":0.2677165354330709},{"duration":0.07894725000001301,"midi":54,"time":73.73673149999999,"velocity":0.2677165354330709},{"duration":0.2368417499999964,"midi":75,"time":73.81567875,"velocity":0.1968503937007874},{"duration":0.6315779999999904,"midi":63,"time":73.894626,"velocity":0.15748031496062992},{"duration":0.1578944999999976,"midi":47,"time":73.894626,"velocity":0.5433070866141733},{"duration":0.0789472499999988,"midi":71,"time":73.894626,"velocity":0.1968503937007874},{"duration":0.5526307499999916,"midi":75,"time":73.97357325,"velocity":0.1968503937007874},{"duration":0.0789472499999988,"midi":54,"time":74.0525205,"velocity":0.2677165354330709},{"duration":0.0789472499999988,"midi":47,"time":74.0525205,"velocity":0.2677165354330709},{"duration":0.0789472499999988,"midi":78,"time":74.0525205,"velocity":0.1968503937007874},{"duration":0.0789472499999988,"midi":51,"time":74.0525205,"velocity":0.2677165354330709},{"duration":0.0789472499999988,"midi":83,"time":74.13146775,"velocity":0.1968503937007874},{"duration":0.0789472499999988,"midi":87,"time":74.210415,"velocity":0.1968503937007874},{"duration":0.1578944999999976,"midi":66,"time":74.210415,"velocity":0.15748031496062992},{"duration":0.1578944999999976,"midi":42,"time":74.210415,"velocity":0.5433070866141733},{"duration":0.0789472499999988,"midi":83,"time":74.28936225,"velocity":0.1968503937007874},{"duration":0.0789472499999988,"midi":54,"time":74.3683095,"velocity":0.2677165354330709},{"duration":0.0789472499999988,"midi":47,"time":74.3683095,"velocity":0.2677165354330709},{"duration":0.0789472499999988,"midi":78,"time":74.3683095,"velocity":0.1968503937007874},{"duration":0.0789472499999988,"midi":51,"time":74.3683095,"velocity":0.2677165354330709},{"duration":0.0789472499999988,"midi":75,"time":74.44725675,"velocity":0.1968503937007874},{"duration":0.1578944999999976,"midi":58,"time":74.52620399999999,"velocity":0.15748031496062992},{"duration":0.0789472499999988,"midi":70,"time":74.52620399999999,"velocity":0.1968503937007874},{"duration":0.1578944999999976,"midi":42,"time":74.52620399999999,"velocity":0.5433070866141733},{"duration":0.0789472499999988,"midi":73,"time":74.60515124999999,"velocity":0.1968503937007874},{"duration":0.07894725000001301,"midi":59,"time":74.68409849999999,"velocity":0.47244094488188976},{"duration":0.07894725000001301,"midi":78,"time":74.68409849999999,"velocity":0.1968503937007874},{"duration":0.07894725000001301,"midi":54,"time":74.68409849999999,"velocity":0.2677165354330709},{"duration":0.07894725000001301,"midi":49,"time":74.68409849999999,"velocity":0.2677165354330709},{"duration":0.07894725000001301,"midi":46,"time":74.68409849999999,"velocity":0.2677165354330709},{"duration":0.07894725000001301,"midi":75,"time":74.68409849999999,"velocity":0.47244094488188976},{"duration":0.07894725000001301,"midi":63,"time":74.68409849999999,"velocity":0.47244094488188976},{"duration":0.0789472499999988,"midi":82,"time":74.76304575,"velocity":0.1968503937007874},{"duration":0.0789472499999988,"midi":61,"time":74.841993,"velocity":0.15748031496062992},{"duration":0.0789472499999988,"midi":85,"time":74.841993,"velocity":0.1968503937007874},{"duration":0.1578944999999976,"midi":61,"time":74.841993,"velocity":0.47244094488188976},{"duration":0.0789472499999988,"midi":76,"time":74.841993,"velocity":0.47244094488188976},{"duration":0.0789472499999988,"midi":64,"time":74.841993,"velocity":0.47244094488188976},{"duration":0.1578944999999976,"midi":37,"time":74.841993,"velocity":0.5433070866141733},{"duration":0.0789472499999988,"midi":82,"time":74.92094025,"velocity":0.1968503937007874},{"duration":0.0789472499999988,"midi":54,"time":74.9998875,"velocity":0.2677165354330709},{"duration":0.0789472499999988,"midi":63,"time":74.9998875,"velocity":0.47244094488188976},{"duration":0.0789472499999988,"midi":78,"time":74.9998875,"velocity":0.1968503937007874},{"duration":0.0789472499999988,"midi":59,"time":74.9998875,"velocity":0.47244094488188976},{"duration":0.0789472499999988,"midi":46,"time":74.9998875,"velocity":0.2677165354330709},{"duration":0.0789472499999988,"midi":49,"time":74.9998875,"velocity":0.2677165354330709},{"duration":0.0789472499999988,"midi":75,"time":74.9998875,"velocity":0.47244094488188976},{"duration":0.0789472499999988,"midi":73,"time":75.07883475,"velocity":0.1968503937007874},{"duration":0.3157889999999952,"midi":61,"time":75.157782,"velocity":0.47244094488188976},{"duration":0.1578944999999976,"midi":73,"time":75.157782,"velocity":0.47244094488188976},{"duration":0.1578944999999976,"midi":66,"time":75.157782,"velocity":0.15748031496062992},{"duration":0.3157889999999952,"midi":58,"time":75.157782,"velocity":0.47244094488188976},{"duration":0.1578944999999976,"midi":42,"time":75.157782,"velocity":0.5433070866141733},{"duration":0.0789472499999988,"midi":70,"time":75.157782,"velocity":0.1968503937007874},{"duration":0.2368417499999964,"midi":73,"time":75.23672925,"velocity":0.1968503937007874},{"duration":0.0789472499999988,"midi":46,"time":75.3156765,"velocity":0.2677165354330709},{"duration":0.0789472499999988,"midi":49,"time":75.3156765,"velocity":0.2677165354330709},{"duration":0.0789472499999988,"midi":54,"time":75.3156765,"velocity":0.2677165354330709},{"duration":0.0789472499999988,"midi":78,"time":75.3156765,"velocity":0.1968503937007874},{"duration":0.0789472499999988,"midi":82,"time":75.39462375,"velocity":0.1968503937007874},{"duration":0.0789472499999988,"midi":85,"time":75.47357099999999,"velocity":0.1968503937007874},{"duration":0.3157890000000094,"midi":66,"time":75.47357099999999,"velocity":0.47244094488188976},{"duration":0.1578944999999976,"midi":37,"time":75.47357099999999,"velocity":0.5433070866141733},{"duration":0.3157890000000094,"midi":63,"time":75.47357099999999,"velocity":0.47244094488188976},{"duration":0.23684175000001062,"midi":78,"time":75.47357099999999,"velocity":0.47244094488188976},{"duration":0.0789472499999988,"midi":82,"time":75.55251824999999,"velocity":0.1968503937007874},{"duration":0.07894725000001301,"midi":49,"time":75.63146549999999,"velocity":0.2677165354330709},{"duration":0.07894725000001301,"midi":54,"time":75.63146549999999,"velocity":0.2677165354330709},{"duration":0.07894725000001301,"midi":46,"time":75.63146549999999,"velocity":0.2677165354330709},{"duration":0.15789450000001182,"midi":78,"time":75.63146549999999,"velocity":0.1968503937007874},{"duration":0.0789472499999988,"midi":73,"time":75.71041275,"velocity":0.1968503937007874},{"duration":0.0789472499999988,"midi":64,"time":75.78936,"velocity":0.15748031496062992},{"duration":1.3421032499999939,"midi":83,"time":75.78936,"velocity":0.47244094488188976},{"duration":0.1578944999999976,"midi":40,"time":75.78936,"velocity":0.5433070866141733},{"duration":0.1578944999999976,"midi":67,"time":75.78936,"velocity":0.47244094488188976},{"duration":0.1578944999999976,"midi":64,"time":75.78936,"velocity":0.1968503937007874},{"duration":0.2368417499999964,"midi":71,"time":75.78936,"velocity":0.47244094488188976},{"duration":0.5526307499999916,"midi":67,"time":75.86830725,"velocity":0.1968503937007874},{"duration":0.0789472499999988,"midi":47,"time":75.9472545,"velocity":0.2677165354330709},{"duration":0.394736249999994,"midi":71,"time":75.9472545,"velocity":0.1968503937007874},{"duration":0.0789472499999988,"midi":59,"time":75.9472545,"velocity":0.2677165354330709},{"duration":0.0789472499999988,"midi":52,"time":75.9472545,"velocity":0.2677165354330709},{"duration":0.0789472499999988,"midi":55,"time":75.9472545,"velocity":0.2677165354330709},{"duration":0.0789472499999988,"midi":76,"time":76.02620175,"velocity":0.1968503937007874},{"duration":0.1578944999999976,"midi":35,"time":76.105149,"velocity":0.5433070866141733},{"duration":0.1578944999999976,"midi":66,"time":76.105149,"velocity":0.15748031496062992},{"duration":0.0789472499999988,"midi":79,"time":76.105149,"velocity":0.1968503937007874},{"duration":0.0789472499999988,"midi":76,"time":76.18409625,"velocity":0.1968503937007874},{"duration":0.0789472499999988,"midi":59,"time":76.2630435,"velocity":0.2677165354330709},{"duration":0.0789472499999988,"midi":55,"time":76.2630435,"velocity":0.2677165354330709},{"duration":0.0789472499999988,"midi":47,"time":76.2630435,"velocity":0.2677165354330709},{"duration":0.3947362500000082,"midi":71,"time":76.2630435,"velocity":0.1968503937007874},{"duration":0.0789472499999988,"midi":52,"time":76.2630435,"velocity":0.2677165354330709},{"duration":0.2368417499999964,"midi":67,"time":76.34199075,"velocity":0.1968503937007874},{"duration":0.1578944999999976,"midi":40,"time":76.42093799999999,"velocity":0.5433070866141733},{"duration":0.1578944999999976,"midi":67,"time":76.42093799999999,"velocity":0.15748031496062992},{"duration":0.0789472499999988,"midi":64,"time":76.42093799999999,"velocity":0.1968503937007874},{"duration":0.5526307500000058,"midi":67,"time":76.49988524999999,"velocity":0.1968503937007874},{"duration":0.07894725000001301,"midi":47,"time":76.57883249999999,"velocity":0.2677165354330709},{"duration":0.3157890000000094,"midi":71,"time":76.57883249999999,"velocity":0.1968503937007874},{"duration":0.07894725000001301,"midi":59,"time":76.57883249999999,"velocity":0.2677165354330709},{"duration":0.07894725000001301,"midi":55,"time":76.57883249999999,"velocity":0.2677165354330709},{"duration":0.07894725000001301,"midi":52,"time":76.57883249999999,"velocity":0.2677165354330709},{"duration":0.0789472499999988,"midi":76,"time":76.65777975,"velocity":0.1968503937007874},{"duration":0.1578944999999976,"midi":35,"time":76.736727,"velocity":0.5433070866141733},{"duration":0.2368417499999964,"midi":71,"time":76.736727,"velocity":0.15748031496062992},{"duration":0.0789472499999988,"midi":79,"time":76.736727,"velocity":0.1968503937007874},{"duration":0.0789472499999988,"midi":76,"time":76.81567425,"velocity":0.1968503937007874},{"duration":0.0789472499999988,"midi":47,"time":76.8946215,"velocity":0.2677165354330709},{"duration":0.2368417499999964,"midi":71,"time":76.8946215,"velocity":0.1968503937007874},{"duration":0.0789472499999988,"midi":55,"time":76.8946215,"velocity":0.2677165354330709},{"duration":0.0789472499999988,"midi":59,"time":76.8946215,"velocity":0.2677165354330709},{"duration":0.0789472499999988,"midi":52,"time":76.8946215,"velocity":0.2677165354330709},{"duration":0.1578944999999976,"midi":67,"time":76.97356875,"velocity":0.1968503937007874},{"duration":0.1578944999999976,"midi":40,"time":77.052516,"velocity":0.5433070866141733},{"duration":0.0789472499999988,"midi":64,"time":77.052516,"velocity":0.15748031496062992},{"duration":0.1578944999999976,"midi":64,"time":77.052516,"velocity":0.1968503937007874},{"duration":0.0789472499999988,"midi":67,"time":77.13146325,"velocity":0.1968503937007874},{"duration":0.0789472499999988,"midi":71,"time":77.2104105,"velocity":0.1968503937007874},{"duration":0.0789472499999988,"midi":59,"time":77.2104105,"velocity":0.2677165354330709},{"duration":0.0789472499999988,"midi":55,"time":77.2104105,"velocity":0.2677165354330709},{"duration":0.1578944999999976,"midi":67,"time":77.2104105,"velocity":0.47244094488188976},{"duration":0.0789472499999988,"midi":52,"time":77.2104105,"velocity":0.2677165354330709},{"duration":0.1578944999999976,"midi":71,"time":77.2104105,"velocity":0.47244094488188976},{"duration":0.1578944999999976,"midi":83,"time":77.2104105,"velocity":0.47244094488188976},{"duration":0.0789472499999988,"midi":47,"time":77.2104105,"velocity":0.2677165354330709},{"duration":0.0789472499999988,"midi":76,"time":77.28935775,"velocity":0.1968503937007874},{"duration":0.0789472499999988,"midi":79,"time":77.36830499999999,"velocity":0.1968503937007874},{"duration":0.1578944999999976,"midi":82,"time":77.36830499999999,"velocity":0.47244094488188976},{"duration":0.1578944999999976,"midi":70,"time":77.36830499999999,"velocity":0.47244094488188976},{"duration":0.1578944999999976,"midi":35,"time":77.36830499999999,"velocity":0.5433070866141733},{"duration":0.1578944999999976,"midi":66,"time":77.36830499999999,"velocity":0.47244094488188976},{"duration":0.1578944999999976,"midi":66,"time":77.36830499999999,"velocity":0.15748031496062992},{"duration":0.0789472499999988,"midi":76,"time":77.44725224999999,"velocity":0.1968503937007874},{"duration":0.07894725000001301,"midi":52,"time":77.52619949999999,"velocity":0.2677165354330709},{"duration":0.15789450000001182,"midi":67,"time":77.52619949999999,"velocity":0.47244094488188976},{"duration":0.07894725000001301,"midi":71,"time":77.52619949999999,"velocity":0.47244094488188976},{"duration":0.15789450000001182,"midi":83,"time":77.52619949999999,"velocity":0.47244094488188976},{"duration":0.07894725000001301,"midi":47,"time":77.52619949999999,"velocity":0.2677165354330709},{"duration":0.07894725000001301,"midi":59,"time":77.52619949999999,"velocity":0.2677165354330709},{"duration":0.15789450000001182,"midi":71,"time":77.52619949999999,"velocity":0.1968503937007874},{"duration":0.07894725000001301,"midi":55,"time":77.52619949999999,"velocity":0.2677165354330709},{"duration":0.0789472499999988,"midi":67,"time":77.60514675,"velocity":0.1968503937007874},{"duration":0.0789472499999988,"midi":64,"time":77.684094,"velocity":0.1968503937007874},{"duration":0.1578944999999976,"midi":67,"time":77.684094,"velocity":0.15748031496062992},{"duration":0.3157889999999952,"midi":78,"time":77.684094,"velocity":0.47244094488188976},{"duration":0.1578944999999976,"midi":40,"time":77.684094,"velocity":0.5433070866141733},{"duration":0.3157889999999952,"midi":90,"time":77.684094,"velocity":0.47244094488188976},{"duration":0.3157889999999952,"midi":66,"time":77.684094,"velocity":0.47244094488188976},{"duration":0.0789472499999988,"midi":67,"time":77.76304125,"velocity":0.1968503937007874},{"duration":0.0789472499999988,"midi":52,"time":77.8419885,"velocity":0.2677165354330709},{"duration":0.0789472499999988,"midi":55,"time":77.8419885,"velocity":0.2677165354330709},{"duration":0.0789472499999988,"midi":59,"time":77.8419885,"velocity":0.2677165354330709},{"duration":0.0789472499999988,"midi":47,"time":77.8419885,"velocity":0.2677165354330709},{"duration":0.0789472499999988,"midi":71,"time":77.8419885,"velocity":0.1968503937007874},{"duration":0.0789472499999988,"midi":76,"time":77.92093575,"velocity":0.1968503937007874},{"duration":0.0789472499999988,"midi":64,"time":77.999883,"velocity":0.15748031496062992},{"duration":0.1578944999999976,"midi":35,"time":77.999883,"velocity":0.5433070866141733},{"duration":0.0789472499999988,"midi":83,"time":77.999883,"velocity":0.47244094488188976},{"duration":0.0789472499999988,"midi":71,"time":77.999883,"velocity":0.47244094488188976},{"duration":0.1578944999999976,"midi":64,"time":77.999883,"velocity":0.47244094488188976},{"duration":0.0789472499999988,"midi":79,"time":77.999883,"velocity":0.1968503937007874},{"duration":0.0789472499999988,"midi":76,"time":78.07883025,"velocity":0.1968503937007874},{"duration":0.0789472499999988,"midi":71,"time":78.1577775,"velocity":0.47244094488188976},{"duration":0.0789472499999988,"midi":55,"time":78.1577775,"velocity":0.2677165354330709},{"duration":0.0789472499999988,"midi":52,"time":78.1577775,"velocity":0.2677165354330709},{"duration":0.0789472499999988,"midi":47,"time":78.1577775,"velocity":0.2677165354330709},{"duration":0.9473669999999998,"midi":63,"time":78.1577775,"velocity":0.47244094488188976},{"duration":0.47368350000000703,"midi":83,"time":78.1577775,"velocity":0.47244094488188976},{"duration":0.2368417499999964,"midi":71,"time":78.1577775,"velocity":0.1968503937007874},{"duration":0.0789472499999988,"midi":59,"time":78.1577775,"velocity":0.2677165354330709},{"duration":0.0789472499999988,"midi":67,"time":78.23672475,"velocity":0.1968503937007874},{"duration":0.7105252500000034,"midi":71,"time":78.31567199999999,"velocity":0.1968503937007874},{"duration":0.1578944999999976,"midi":47,"time":78.31567199999999,"velocity":0.5433070866141733},{"duration":0.1578944999999976,"midi":59,"time":78.31567199999999,"velocity":0.15748031496062992},{"duration":0.0789472499999988,"midi":75,"time":78.39461924999999,"velocity":0.1968503937007874},{"duration":0.07894725000001301,"midi":78,"time":78.47356649999999,"velocity":0.1968503937007874},{"duration":0.07894725000001301,"midi":54,"time":78.47356649999999,"velocity":0.2677165354330709},{"duration":0.07894725000001301,"midi":51,"time":78.47356649999999,"velocity":0.2677165354330709},{"duration":0.07894725000001301,"midi":47,"time":78.47356649999999,"velocity":0.2677165354330709},{"duration":0.2368417499999964,"midi":83,"time":78.55251375,"velocity":0.1968503937007874},{"duration":0.0789472499999988,"midi":87,"time":78.631461,"velocity":0.1968503937007874},{"duration":0.1578944999999976,"midi":61,"time":78.631461,"velocity":0.15748031496062992},{"duration":0.1578944999999976,"midi":42,"time":78.631461,"velocity":0.5433070866141733},{"duration":0.5526307499999916,"midi":83,"time":78.71040825,"velocity":0.1968503937007874},{"duration":0.0789472499999988,"midi":47,"time":78.7893555,"velocity":0.2677165354330709},{"duration":0.0789472499999988,"midi":51,"time":78.7893555,"velocity":0.2677165354330709},{"duration":0.0789472499999988,"midi":54,"time":78.7893555,"velocity":0.2677165354330709},{"duration":0.0789472499999988,"midi":78,"time":78.7893555,"velocity":0.1968503937007874},{"duration":0.0789472499999988,"midi":75,"time":78.86830275,"velocity":0.1968503937007874},{"duration":0.3157889999999952,"midi":63,"time":78.94725,"velocity":0.15748031496062992},{"duration":0.3157889999999952,"midi":71,"time":78.94725,"velocity":0.1968503937007874},{"duration":0.1578944999999976,"midi":47,"time":78.94725,"velocity":0.5433070866141733},{"duration":0.0789472499999988,"midi":75,"time":79.02619725,"velocity":0.1968503937007874},{"duration":0.0789472499999988,"midi":51,"time":79.1051445,"velocity":0.2677165354330709},{"duration":0.0789472499999988,"midi":78,"time":79.1051445,"velocity":0.1968503937007874},{"duration":0.0789472499999988,"midi":54,"time":79.1051445,"velocity":0.2677165354330709},{"duration":0.0789472499999988,"midi":47,"time":79.1051445,"velocity":0.2677165354330709},{"duration":0.0789472499999988,"midi":83,"time":79.18409175,"velocity":0.1968503937007874},{"duration":0.0789472499999988,"midi":87,"time":79.26303899999999,"velocity":0.1968503937007874},{"duration":0.1578944999999976,"midi":66,"time":79.26303899999999,"velocity":0.15748031496062992},{"duration":0.1578944999999976,"midi":42,"time":79.26303899999999,"velocity":0.5433070866141733},{"duration":0.0789472499999988,"midi":83,"time":79.34198624999999,"velocity":0.1968503937007874},{"duration":0.07894725000001301,"midi":54,"time":79.42093349999999,"velocity":0.2677165354330709},{"duration":0.07894725000001301,"midi":78,"time":79.42093349999999,"velocity":0.1968503937007874},{"duration":0.07894725000001301,"midi":47,"time":79.42093349999999,"velocity":0.2677165354330709},{"duration":0.07894725000001301,"midi":63,"time":79.42093349999999,"velocity":0.47244094488188976},{"duration":0.07894725000001301,"midi":73,"time":79.42093349999999,"velocity":0.47244094488188976},{"duration":0.07894725000001301,"midi":85,"time":79.42093349999999,"velocity":0.47244094488188976},{"duration":0.07894725000001301,"midi":51,"time":79.42093349999999,"velocity":0.2677165354330709},{"duration":0.0789472499999988,"midi":75,"time":79.49988075,"velocity":0.1968503937007874},{"duration":0.0789472499999988,"midi":64,"time":79.49988075,"velocity":0.47244094488188976},{"duration":0.0789472499999988,"midi":71,"time":79.49988075,"velocity":0.47244094488188976},{"duration":0.0789472499999988,"midi":83,"time":79.49988075,"velocity":0.47244094488188976},{"duration":0.1578944999999976,"midi":58,"time":79.578828,"velocity":0.07874015748031496},{"duration":0.3157889999999952,"midi":82,"time":79.578828,"velocity":0.4330708661417323},{"duration":0.1578944999999976,"midi":42,"time":79.578828,"velocity":0.5039370078740157},{"duration":0.3157889999999952,"midi":70,"time":79.578828,"velocity":0.4330708661417323},{"duration":0.3157889999999952,"midi":66,"time":79.578828,"velocity":0.4330708661417323},{"duration":0.0789472499999988,"midi":49,"time":79.7367225,"velocity":0.15748031496062992},{"duration":0.0789472499999988,"midi":54,"time":79.7367225,"velocity":0.07874015748031496},{"duration":0.3157889999999952,"midi":68,"time":79.894617,"velocity":0.4330708661417323},{"duration":0.1578944999999976,"midi":61,"time":79.894617,"velocity":0.07874015748031496},{"duration":0.3157889999999952,"midi":83,"time":79.894617,"velocity":0.4330708661417323},{"duration":0.3157889999999952,"midi":71,"time":79.894617,"velocity":0.4330708661417323},{"duration":0.1578944999999976,"midi":44,"time":79.894617,"velocity":0.5039370078740157},{"duration":0.0789472499999988,"midi":54,"time":80.0525115,"velocity":0.07874015748031496},{"duration":0.0789472499999988,"midi":49,"time":80.0525115,"velocity":0.15748031496062992},{"duration":0.3157890000000094,"midi":73,"time":80.21040599999999,"velocity":0.4330708661417323},{"duration":0.3157890000000094,"midi":70,"time":80.21040599999999,"velocity":0.4330708661417323},{"duration":0.1578944999999976,"midi":46,"time":80.21040599999999,"velocity":0.5039370078740157},{"duration":0.3157890000000094,"midi":85,"time":80.21040599999999,"velocity":0.4330708661417323},{"duration":0.1578944999999976,"midi":66,"time":80.21040599999999,"velocity":0.07874015748031496},{"duration":0.07894725000001301,"midi":49,"time":80.36830049999999,"velocity":0.11811023622047244},{"duration":0.07894725000001301,"midi":54,"time":80.36830049999999,"velocity":0.07874015748031496},{"duration":0.3157889999999952,"midi":82,"time":80.526195,"velocity":0.4330708661417323},{"duration":0.3157889999999952,"midi":66,"time":80.526195,"velocity":0.4330708661417323},{"duration":0.1578944999999976,"midi":49,"time":80.526195,"velocity":0.5039370078740157},{"duration":0.3157889999999952,"midi":70,"time":80.526195,"velocity":0.4330708661417323},{"duration":0.3157889999999952,"midi":61,"time":80.526195,"velocity":0.15748031496062992},{"duration":0.0789472499999988,"midi":54,"time":80.6840895,"velocity":0.07874015748031496},{"duration":0.0789472499999988,"midi":49,"time":80.6840895,"velocity":0.07874015748031496},{"duration":0.9473669999999998,"midi":84,"time":80.841984,"velocity":0.47244094488188976},{"duration":0.3157889999999952,"midi":77,"time":80.841984,"velocity":0.1968503937007874},{"duration":0.1578944999999976,"midi":41,"time":80.841984,"velocity":0.3937007874015748},{"duration":0.0789472499999988,"midi":65,"time":80.841984,"velocity":0.1968503937007874},{"duration":0.1578944999999976,"midi":29,"time":80.841984,"velocity":0.1968503937007874},{"duration":0.1578944999999976,"midi":69,"time":80.841984,"velocity":0.1968503937007874},{"duration":0.1578944999999976,"midi":65,"time":80.841984,"velocity":0.11811023622047244},{"duration":0.2368417499999964,"midi":72,"time":80.841984,"velocity":0.47244094488188976},{"duration":0.394736249999994,"midi":81,"time":80.841984,"velocity":0.31496062992125984},{"duration":0.7105252500000034,"midi":65,"time":80.841984,"velocity":0.1968503937007874},{"duration":0.6315780000000046,"midi":69,"time":80.841984,"velocity":0.47244094488188976},{"duration":0.7105252500000034,"midi":69,"time":80.92093125,"velocity":0.1968503937007874},{"duration":0.0789472499999988,"midi":48,"time":80.9998785,"velocity":0.2677165354330709},{"duration":0.0789472499999988,"midi":60,"time":80.9998785,"velocity":0.2677165354330709},{"duration":0.0789472499999988,"midi":53,"time":80.9998785,"velocity":0.2677165354330709},{"duration":0.0789472499999988,"midi":57,"time":80.9998785,"velocity":0.2677165354330709},{"duration":0.3947362500000082,"midi":72,"time":80.9998785,"velocity":0.1968503937007874},{"duration":0.23684175000001062,"midi":77,"time":81.07882575,"velocity":0.1968503937007874},{"duration":0.15789450000001182,"midi":36,"time":81.15777299999999,"velocity":0.3937007874015748},{"duration":0.15789450000001182,"midi":24,"time":81.15777299999999,"velocity":0.1968503937007874},{"duration":0.15789450000001182,"midi":67,"time":81.15777299999999,"velocity":0.11811023622047244},{"duration":0.7105252500000034,"midi":81,"time":81.15777299999999,"velocity":0.1968503937007874},{"duration":0.5526307500000058,"midi":77,"time":81.23672024999999,"velocity":0.1968503937007874},{"duration":0.394736249999994,"midi":72,"time":81.3156675,"velocity":0.1968503937007874},{"duration":0.0789472499999988,"midi":57,"time":81.3156675,"velocity":0.2677165354330709},{"duration":0.0789472499999988,"midi":60,"time":81.3156675,"velocity":0.2677165354330709},{"duration":0.0789472499999988,"midi":48,"time":81.3156675,"velocity":0.2677165354330709},{"duration":0.0789472499999988,"midi":53,"time":81.3156675,"velocity":0.2677165354330709},{"duration":0.2368417499999964,"midi":69,"time":81.39461475,"velocity":0.1968503937007874},{"duration":0.6315779999999904,"midi":65,"time":81.473562,"velocity":0.1968503937007874},{"duration":0.1578944999999976,"midi":41,"time":81.473562,"velocity":0.3937007874015748},{"duration":0.3157889999999952,"midi":69,"time":81.473562,"velocity":0.11811023622047244},{"duration":0.1578944999999976,"midi":29,"time":81.473562,"velocity":0.1968503937007874},{"duration":0.5526307499999916,"midi":69,"time":81.55250925,"velocity":0.1968503937007874},{"duration":0.1578944999999976,"midi":72,"time":81.6314565,"velocity":0.1968503937007874},{"duration":0.0789472499999988,"midi":60,"time":81.6314565,"velocity":0.2677165354330709},{"duration":0.0789472499999988,"midi":57,"time":81.6314565,"velocity":0.2677165354330709},{"duration":0.0789472499999988,"midi":48,"time":81.6314565,"velocity":0.2677165354330709},{"duration":0.0789472499999988,"midi":53,"time":81.6314565,"velocity":0.2677165354330709},{"duration":0.2368417499999964,"midi":77,"time":81.71040375,"velocity":0.1968503937007874},{"duration":0.3157889999999952,"midi":67,"time":81.789351,"velocity":0.47244094488188976},{"duration":0.3157889999999952,"midi":79,"time":81.789351,"velocity":0.47244094488188976},{"duration":0.3157889999999952,"midi":81,"time":81.789351,"velocity":0.1968503937007874},{"duration":0.1578944999999976,"midi":36,"time":81.789351,"velocity":0.3937007874015748},{"duration":0.1578944999999976,"midi":60,"time":81.789351,"velocity":0.11811023622047244},{"duration":0.3157889999999952,"midi":64,"time":81.789351,"velocity":0.47244094488188976},{"duration":0.1578944999999976,"midi":24,"time":81.789351,"velocity":0.1968503937007874},{"duration":0.2368417499999964,"midi":77,"time":81.86829825,"velocity":0.1968503937007874},{"duration":0.0789472499999988,"midi":48,"time":81.9472455,"velocity":0.2677165354330709},{"duration":0.0789472499999988,"midi":72,"time":81.9472455,"velocity":0.1968503937007874},{"duration":0.0789472499999988,"midi":60,"time":81.9472455,"velocity":0.2677165354330709},{"duration":0.0789472499999988,"midi":53,"time":81.9472455,"velocity":0.2677165354330709},{"duration":0.0789472499999988,"midi":57,"time":81.9472455,"velocity":0.2677165354330709},{"duration":0.0789472499999988,"midi":69,"time":82.02619274999999,"velocity":0.1968503937007874},{"duration":0.15789450000001182,"midi":31,"time":82.10513999999999,"velocity":0.1968503937007874},{"duration":0.0789472499999988,"midi":67,"time":82.10513999999999,"velocity":0.1968503937007874},{"duration":0.15789450000001182,"midi":67,"time":82.10513999999999,"velocity":0.1968503937007874},{"duration":0.3157890000000094,"midi":79,"time":82.10513999999999,"velocity":0.1968503937007874},{"duration":0.3157890000000094,"midi":76,"time":82.10513999999999,"velocity":0.47244094488188976},{"duration":0.3157890000000094,"midi":72,"time":82.10513999999999,"velocity":0.47244094488188976},{"duration":0.15789450000001182,"midi":43,"time":82.10513999999999,"velocity":0.3937007874015748},{"duration":0.15789450000001182,"midi":71,"time":82.10513999999999,"velocity":0.1968503937007874},{"duration":0.7105252500000034,"midi":67,"time":82.10513999999999,"velocity":0.11811023622047244},{"duration":0.3947362500000082,"midi":83,"time":82.10513999999999,"velocity":0.31496062992125984},{"duration":0.3157890000000094,"midi":88,"time":82.10513999999999,"velocity":0.47244094488188976},{"duration":0.5526307500000058,"midi":71,"time":82.18408724999999,"velocity":0.1968503937007874},{"duration":0.0789472499999988,"midi":62,"time":82.2630345,"velocity":0.2677165354330709},{"duration":0.0789472499999988,"midi":50,"time":82.2630345,"velocity":0.2677165354330709},{"duration":0.0789472499999988,"midi":74,"time":82.2630345,"velocity":0.1968503937007874},{"duration":0.0789472499999988,"midi":55,"time":82.2630345,"velocity":0.2677165354330709},{"duration":0.0789472499999988,"midi":59,"time":82.2630345,"velocity":0.2677165354330709},{"duration":0.2368417499999964,"midi":79,"time":82.34198175,"velocity":0.1968503937007874},{"duration":0.3157889999999952,"midi":89,"time":82.420929,"velocity":0.47244094488188976},{"duration":0.1578944999999976,"midi":38,"time":82.420929,"velocity":0.3937007874015748},{"duration":0.7105252499999892,"midi":83,"time":82.420929,"velocity":0.1968503937007874},{"duration":0.1578944999999976,"midi":26,"time":82.420929,"velocity":0.1968503937007874},{"duration":0.1578944999999976,"midi":69,"time":82.420929,"velocity":0.11811023622047244},{"duration":0.2368417499999964,"midi":74,"time":82.420929,"velocity":0.47244094488188976},{"duration":0.3157889999999952,"midi":77,"time":82.420929,"velocity":0.47244094488188976},{"duration":0.5526307499999916,"midi":79,"time":82.49987625,"velocity":0.1968503937007874},{"duration":0.1578944999999976,"midi":74,"time":82.5788235,"velocity":0.1968503937007874},{"duration":0.0789472499999988,"midi":55,"time":82.5788235,"velocity":0.2677165354330709},{"duration":0.0789472499999988,"midi":50,"time":82.5788235,"velocity":0.2677165354330709},{"duration":0.0789472499999988,"midi":62,"time":82.5788235,"velocity":0.2677165354330709},{"duration":0.0789472499999988,"midi":59,"time":82.5788235,"velocity":0.2677165354330709},{"duration":0.2368417499999964,"midi":71,"time":82.65777075,"velocity":0.1968503937007874},{"duration":0.2368417499999964,"midi":74,"time":82.736718,"velocity":0.47244094488188976},{"duration":0.1578944999999976,"midi":43,"time":82.736718,"velocity":0.3937007874015748},{"duration":0.47368350000000703,"midi":86,"time":82.736718,"velocity":0.47244094488188976},{"duration":0.1578944999999976,"midi":71,"time":82.736718,"velocity":0.11811023622047244},{"duration":0.1578944999999976,"midi":31,"time":82.736718,"velocity":0.1968503937007874},{"duration":0.5526307500000058,"midi":67,"time":82.736718,"velocity":0.1968503937007874},{"duration":0.47368350000000703,"midi":71,"time":82.736718,"velocity":0.47244094488188976},{"duration":0.5526307500000058,"midi":71,"time":82.81566525,"velocity":0.1968503937007874},{"duration":0.0789472499999988,"midi":50,"time":82.8946125,"velocity":0.2677165354330709},{"duration":0.3157890000000094,"midi":74,"time":82.8946125,"velocity":0.1968503937007874},{"duration":0.0789472499999988,"midi":59,"time":82.8946125,"velocity":0.2677165354330709},{"duration":0.0789472499999988,"midi":55,"time":82.8946125,"velocity":0.2677165354330709},{"duration":0.0789472499999988,"midi":62,"time":82.8946125,"velocity":0.2677165354330709},{"duration":0.23684175000001062,"midi":79,"time":82.97355974999999,"velocity":0.1968503937007874},{"duration":0.15789450000001182,"midi":26,"time":83.05250699999999,"velocity":0.1968503937007874},{"duration":0.15789450000001182,"midi":38,"time":83.05250699999999,"velocity":0.3937007874015748},{"duration":0.3157890000000094,"midi":83,"time":83.05250699999999,"velocity":0.1968503937007874},{"duration":0.23684175000001062,"midi":79,"time":83.13145424999999,"velocity":0.1968503937007874},{"duration":0.0789472499999988,"midi":84,"time":83.2104015,"velocity":0.47244094488188976},{"duration":0.0789472499999988,"midi":74,"time":83.2104015,"velocity":0.1968503937007874},{"duration":0.0789472499999988,"midi":72,"time":83.2104015,"velocity":0.47244094488188976},{"duration":0.0789472499999988,"midi":62,"time":83.2104015,"velocity":0.2677165354330709},{"duration":0.0789472499999988,"midi":59,"time":83.2104015,"velocity":0.2677165354330709},{"duration":0.1578944999999976,"midi":67,"time":83.2104015,"velocity":0.47244094488188976},{"duration":0.0789472499999988,"midi":50,"time":83.2104015,"velocity":0.2677165354330709},{"duration":0.0789472499999988,"midi":55,"time":83.2104015,"velocity":0.2677165354330709},{"duration":0.0789472499999988,"midi":71,"time":83.28934875,"velocity":0.1968503937007874},{"duration":0.394736249999994,"midi":84,"time":83.368296,"velocity":0.47244094488188976},{"duration":0.0789472499999988,"midi":69,"time":83.368296,"velocity":0.1968503937007874},{"duration":0.1578944999999976,"midi":33,"time":83.368296,"velocity":0.1968503937007874},{"duration":0.7105252499999892,"midi":69,"time":83.368296,"velocity":0.1968503937007874},{"duration":0.9473669999999998,"midi":84,"time":83.368296,"velocity":0.31496062992125984},{"duration":0.2368417499999964,"midi":64,"time":83.368296,"velocity":0.47244094488188976},{"duration":0.1578944999999976,"midi":60,"time":83.368296,"velocity":0.11811023622047244},{"duration":0.3157889999999952,"midi":81,"time":83.368296,"velocity":0.1968503937007874},{"duration":0.1578944999999976,"midi":72,"time":83.368296,"velocity":0.47244094488188976},{"duration":0.6315779999999904,"midi":72,"time":83.368296,"velocity":0.1968503937007874},{"duration":0.1578944999999976,"midi":45,"time":83.368296,"velocity":0.3937007874015748},{"duration":0.7105252500000034,"midi":72,"time":83.44724325,"velocity":0.1968503937007874},{"duration":0.394736249999994,"midi":64,"time":83.5261905,"velocity":0.2677165354330709},{"duration":0.0789472499999988,"midi":57,"time":83.5261905,"velocity":0.23622047244094488},{"duration":0.0789472499999988,"midi":52,"time":83.5261905,"velocity":0.2677165354330709},{"duration":0.0789472499999988,"midi":76,"time":83.5261905,"velocity":0.1968503937007874},{"duration":0.0789472499999988,"midi":60,"time":83.5261905,"velocity":0.2677165354330709},{"duration":0.2368417499999964,"midi":81,"time":83.60513775,"velocity":0.1968503937007874},{"duration":0.1578944999999976,"midi":40,"time":83.684085,"velocity":0.3937007874015748},{"duration":0.1578944999999976,"midi":62,"time":83.684085,"velocity":0.11811023622047244},{"duration":0.7105252500000034,"midi":84,"time":83.684085,"velocity":0.1968503937007874},{"duration":0.1578944999999976,"midi":28,"time":83.684085,"velocity":0.1968503937007874},{"duration":0.5526307500000058,"midi":81,"time":83.76303225,"velocity":0.1968503937007874},{"duration":0.0789472499999988,"midi":57,"time":83.8419795,"velocity":0.23622047244094488},{"duration":0.3157890000000094,"midi":64,"time":83.8419795,"velocity":0.2677165354330709},{"duration":0.0789472499999988,"midi":60,"time":83.8419795,"velocity":0.2677165354330709},{"duration":0.0789472499999988,"midi":52,"time":83.8419795,"velocity":0.2677165354330709},{"duration":0.0789472499999988,"midi":76,"time":83.8419795,"velocity":0.1968503937007874},{"duration":0.3947362500000082,"midi":72,"time":83.92092674999999,"velocity":0.1968503937007874},{"duration":0.6315780000000046,"midi":69,"time":83.99987399999999,"velocity":0.1968503937007874},{"duration":0.15789450000001182,"midi":33,"time":83.99987399999999,"velocity":0.1968503937007874},{"duration":0.15789450000001182,"midi":45,"time":83.99987399999999,"velocity":0.3937007874015748},{"duration":0.23684175000001062,"midi":64,"time":83.99987399999999,"velocity":0.11811023622047244},{"duration":0.5526307500000058,"midi":72,"time":84.07882124999999,"velocity":0.1968503937007874},{"duration":0.0789472499999988,"midi":57,"time":84.1577685,"velocity":0.23622047244094488},{"duration":0.0789472499999988,"midi":60,"time":84.1577685,"velocity":0.2677165354330709},{"duration":0.0789472499999988,"midi":76,"time":84.1577685,"velocity":0.1968503937007874},{"duration":0.1578944999999976,"midi":64,"time":84.1577685,"velocity":0.2677165354330709},{"duration":0.0789472499999988,"midi":52,"time":84.1577685,"velocity":0.2677165354330709},{"duration":0.2368417499999964,"midi":81,"time":84.23671575,"velocity":0.1968503937007874},{"duration":0.1578944999999976,"midi":28,"time":84.315663,"velocity":0.1968503937007874},{"duration":0.3157889999999952,"midi":79,"time":84.315663,"velocity":0.47244094488188976},{"duration":0.3157889999999952,"midi":84,"time":84.315663,"velocity":0.1968503937007874},{"duration":0.2368417499999964,"midi":60,"time":84.315663,"velocity":0.11811023622047244},{"duration":0.3157889999999952,"midi":67,"time":84.315663,"velocity":0.47244094488188976},{"duration":0.1578944999999976,"midi":40,"time":84.315663,"velocity":0.3937007874015748},{"duration":0.2368417499999964,"midi":64,"time":84.315663,"velocity":0.47244094488188976},{"duration":0.2368417499999964,"midi":81,"time":84.39461025,"velocity":0.1968503937007874},{"duration":0.0789472499999988,"midi":76,"time":84.4735575,"velocity":0.1968503937007874},{"duration":0.0789472499999988,"midi":52,"time":84.4735575,"velocity":0.2677165354330709},{"duration":0.1578944999999976,"midi":60,"time":84.4735575,"velocity":0.2677165354330709},{"duration":0.0789472499999988,"midi":57,"time":84.4735575,"velocity":0.23622047244094488},{"duration":0.1578944999999976,"midi":64,"time":84.4735575,"velocity":0.2677165354330709},{"duration":0.0789472499999988,"midi":72,"time":84.55250475,"velocity":0.1968503937007874},{"duration":0.1578944999999976,"midi":43,"time":84.631452,"velocity":0.3937007874015748},{"duration":0.3157889999999952,"midi":72,"time":84.631452,"velocity":0.47244094488188976},{"duration":0.1578944999999976,"midi":31,"time":84.631452,"velocity":0.1968503937007874},{"duration":0.394736249999994,"midi":83,"time":84.631452,"velocity":0.1968503937007874},{"duration":0.0789472499999988,"midi":67,"time":84.631452,"velocity":0.1968503937007874},{"duration":0.1578944999999976,"midi":59,"time":84.631452,"velocity":0.11811023622047244},{"duration":0.3157889999999952,"midi":76,"time":84.631452,"velocity":0.47244094488188976},{"duration":0.1578944999999976,"midi":71,"time":84.631452,"velocity":0.1968503937007874},{"duration":0.9473669999999998,"midi":86,"time":84.631452,"velocity":0.31496062992125984},{"duration":0.2368417499999964,"midi":74,"time":84.631452,"velocity":0.1968503937007874},{"duration":0.3157889999999952,"midi":88,"time":84.631452,"velocity":0.47244094488188976},{"duration":0.5526307500000058,"midi":71,"time":84.71039925,"velocity":0.1968503937007874},{"duration":0.0789472499999988,"midi":50,"time":84.7893465,"velocity":0.2677165354330709},{"duration":0.0789472499999988,"midi":55,"time":84.7893465,"velocity":0.2677165354330709},{"duration":0.3947362500000082,"midi":74,"time":84.7893465,"velocity":0.1968503937007874},{"duration":0.0789472499999988,"midi":62,"time":84.7893465,"velocity":0.2677165354330709},{"duration":0.0789472499999988,"midi":59,"time":84.7893465,"velocity":0.2677165354330709},{"duration":0.0789472499999988,"midi":79,"time":84.86829374999999,"velocity":0.1968503937007874},{"duration":0.3157890000000094,"midi":74,"time":84.94724099999999,"velocity":0.47244094488188976},{"duration":0.3157890000000094,"midi":89,"time":84.94724099999999,"velocity":0.47244094488188976},{"duration":0.3157890000000094,"midi":77,"time":84.94724099999999,"velocity":0.47244094488188976},{"duration":0.15789450000001182,"midi":62,"time":84.94724099999999,"velocity":0.11811023622047244},{"duration":0.7105252500000034,"midi":83,"time":84.94724099999999,"velocity":0.1968503937007874},{"duration":0.15789450000001182,"midi":38,"time":84.94724099999999,"velocity":0.3937007874015748},{"duration":0.15789450000001182,"midi":26,"time":84.94724099999999,"velocity":0.1968503937007874},{"duration":0.07894725000001301,"midi":79,"time":85.02618824999999,"velocity":0.1968503937007874},{"duration":0.0789472499999988,"midi":59,"time":85.1051355,"velocity":0.2677165354330709},{"duration":0.0789472499999988,"midi":62,"time":85.1051355,"velocity":0.2677165354330709},{"duration":0.0789472499999988,"midi":55,"time":85.1051355,"velocity":0.2677165354330709},{"duration":0.0789472499999988,"midi":50,"time":85.1051355,"velocity":0.2677165354330709},{"duration":0.394736249999994,"midi":74,"time":85.1051355,"velocity":0.1968503937007874},{"duration":0.2368417499999964,"midi":71,"time":85.18408275,"velocity":0.1968503937007874},{"duration":0.6315779999999904,"midi":86,"time":85.26303,"velocity":0.47244094488188976},{"duration":0.0789472499999988,"midi":67,"time":85.26303,"velocity":0.1968503937007874},{"duration":0.3157889999999952,"midi":74,"time":85.26303,"velocity":0.47244094488188976},{"duration":0.1578944999999976,"midi":67,"time":85.26303,"velocity":0.11811023622047244},{"duration":0.1578944999999976,"midi":71,"time":85.26303,"velocity":0.47244094488188976},{"duration":0.1578944999999976,"midi":31,"time":85.26303,"velocity":0.1968503937007874},{"duration":0.1578944999999976,"midi":43,"time":85.26303,"velocity":0.3937007874015748},{"duration":0.5526307499999916,"midi":71,"time":85.34197725,"velocity":0.1968503937007874},{"duration":0.1578944999999976,"midi":69,"time":85.4209245,"velocity":0.47244094488188976},{"duration":0.0789472499999988,"midi":50,"time":85.4209245,"velocity":0.2677165354330709},{"duration":0.0789472499999988,"midi":55,"time":85.4209245,"velocity":0.2677165354330709},{"duration":0.0789472499999988,"midi":62,"time":85.4209245,"velocity":0.2677165354330709},{"duration":0.0789472499999988,"midi":59,"time":85.4209245,"velocity":0.2677165354330709},{"duration":0.394736249999994,"midi":74,"time":85.4209245,"velocity":0.1968503937007874},{"duration":0.0789472499999988,"midi":79,"time":85.49987175,"velocity":0.1968503937007874},{"duration":0.3157889999999952,"midi":83,"time":85.578819,"velocity":0.1968503937007874},{"duration":0.1578944999999976,"midi":38,"time":85.578819,"velocity":0.3937007874015748},{"duration":0.1578944999999976,"midi":26,"time":85.578819,"velocity":0.1968503937007874},{"duration":0.1578944999999976,"midi":67,"time":85.578819,"velocity":0.47244094488188976},{"duration":0.3157889999999952,"midi":84,"time":85.578819,"velocity":0.47244094488188976},{"duration":0.3157889999999952,"midi":72,"time":85.578819,"velocity":0.47244094488188976},{"duration":0.0789472499999988,"midi":79,"time":85.65776625,"velocity":0.1968503937007874},{"duration":0.0789472499999988,"midi":59,"time":85.7367135,"velocity":0.2677165354330709},{"duration":0.0789472499999988,"midi":62,"time":85.7367135,"velocity":0.2677165354330709},{"duration":0.1578944999999976,"midi":69,"time":85.7367135,"velocity":0.47244094488188976},{"duration":0.0789472499999988,"midi":55,"time":85.7367135,"velocity":0.2677165354330709},{"duration":0.0789472499999988,"midi":50,"time":85.7367135,"velocity":0.2677165354330709},{"duration":0.1578944999999976,"midi":74,"time":85.7367135,"velocity":0.1968503937007874},{"duration":0.0789472499999988,"midi":71,"time":85.81566074999999,"velocity":0.1968503937007874},{"duration":1.2631560000000093,"midi":88,"time":85.89460799999999,"velocity":0.31496062992125984},{"duration":0.15789450000001182,"midi":29,"time":85.89460799999999,"velocity":0.1968503937007874},{"duration":0.23684175000001062,"midi":72,"time":85.89460799999999,"velocity":0.1968503937007874},{"duration":0.9473669999999998,"midi":64,"time":85.89460799999999,"velocity":0.47244094488188976},{"duration":0.0789472499999988,"midi":65,"time":85.89460799999999,"velocity":0.1968503937007874},{"duration":1.2631560000000093,"midi":76,"time":85.89460799999999,"velocity":0.1968503937007874},{"duration":0.5526307500000058,"midi":72,"time":85.89460799999999,"velocity":0.47244094488188976},{"duration":0.9473669999999998,"midi":84,"time":85.89460799999999,"velocity":0.1968503937007874},{"duration":0.15789450000001182,"midi":41,"time":85.89460799999999,"velocity":0.3937007874015748},{"duration":1.2631560000000093,"midi":84,"time":85.89460799999999,"velocity":0.47244094488188976},{"duration":0.07894725000001301,"midi":69,"time":85.97355524999999,"velocity":0.1968503937007874},{"duration":0.0789472499999988,"midi":53,"time":86.0525025,"velocity":0.2677165354330709},{"duration":0.7105252499999892,"midi":72,"time":86.0525025,"velocity":0.1968503937007874},{"duration":0.0789472499999988,"midi":48,"time":86.0525025,"velocity":0.2677165354330709},{"duration":0.0789472499999988,"midi":57,"time":86.0525025,"velocity":0.2677165354330709},{"duration":0.0789472499999988,"midi":60,"time":86.0525025,"velocity":0.2677165354330709},{"duration":0.0789472499999988,"midi":77,"time":86.13144975,"velocity":0.1968503937007874},{"duration":0.1578944999999976,"midi":36,"time":86.210397,"velocity":0.3937007874015748},{"duration":0.0789472499999988,"midi":81,"time":86.210397,"velocity":0.1968503937007874},{"duration":0.1578944999999976,"midi":24,"time":86.210397,"velocity":0.1968503937007874},{"duration":0.0789472499999988,"midi":77,"time":86.28934425,"velocity":0.1968503937007874},{"duration":0.0789472499999988,"midi":60,"time":86.3682915,"velocity":0.2677165354330709},{"duration":0.0789472499999988,"midi":57,"time":86.3682915,"velocity":0.2677165354330709},{"duration":0.0789472499999988,"midi":53,"time":86.3682915,"velocity":0.2677165354330709},{"duration":0.0789472499999988,"midi":48,"time":86.3682915,"velocity":0.2677165354330709},{"duration":0.4736834999999928,"midi":72,"time":86.3682915,"velocity":0.1968503937007874},{"duration":0.0789472499999988,"midi":69,"time":86.44723875,"velocity":0.1968503937007874},{"duration":0.1578944999999976,"midi":41,"time":86.526186,"velocity":0.3937007874015748},{"duration":0.1578944999999976,"midi":29,"time":86.526186,"velocity":0.1968503937007874},{"duration":0.0789472499999988,"midi":65,"time":86.526186,"velocity":0.1968503937007874},{"duration":0.0789472499999988,"midi":69,"time":86.60513325,"velocity":0.1968503937007874},{"duration":0.0789472499999988,"midi":57,"time":86.6840805,"velocity":0.2677165354330709},{"duration":0.0789472499999988,"midi":60,"time":86.6840805,"velocity":0.2677165354330709},{"duration":0.0789472499999988,"midi":48,"time":86.6840805,"velocity":0.2677165354330709},{"duration":0.0789472499999988,"midi":53,"time":86.6840805,"velocity":0.2677165354330709},{"duration":0.3947362500000082,"midi":72,"time":86.6840805,"velocity":0.1968503937007874},{"duration":0.0789472499999988,"midi":77,"time":86.76302774999999,"velocity":0.1968503937007874},{"duration":0.3157890000000094,"midi":64,"time":86.84197499999999,"velocity":0.47244094488188976},{"duration":0.15789450000001182,"midi":24,"time":86.84197499999999,"velocity":0.1968503937007874},{"duration":0.3157890000000094,"midi":79,"time":86.84197499999999,"velocity":0.47244094488188976},{"duration":0.3157890000000094,"midi":67,"time":86.84197499999999,"velocity":0.47244094488188976},{"duration":0.0789472499999988,"midi":81,"time":86.84197499999999,"velocity":0.1968503937007874},{"duration":0.15789450000001182,"midi":36,"time":86.84197499999999,"velocity":0.3937007874015748},{"duration":0.07894725000001301,"midi":77,"time":86.92092224999999,"velocity":0.1968503937007874},{"duration":0.0789472499999988,"midi":53,"time":86.9998695,"velocity":0.2677165354330709},{"duration":0.1578944999999976,"midi":72,"time":86.9998695,"velocity":0.1968503937007874},{"duration":0.0789472499999988,"midi":48,"time":86.9998695,"velocity":0.2677165354330709},{"duration":0.0789472499999988,"midi":60,"time":86.9998695,"velocity":0.2677165354330709},{"duration":0.0789472499999988,"midi":57,"time":86.9998695,"velocity":0.2677165354330709},{"duration":0.0789472499999988,"midi":69,"time":87.07881675,"velocity":0.1968503937007874},{"duration":0.3157889999999952,"midi":76,"time":87.157764,"velocity":0.47244094488188976},{"duration":0.2368417499999964,"midi":74,"time":87.157764,"velocity":0.1968503937007874},{"duration":0.1578944999999976,"midi":31,"time":87.157764,"velocity":0.1968503937007874},{"duration":0.394736249999994,"midi":83,"time":87.157764,"velocity":0.1968503937007874},{"duration":0.0789472499999988,"midi":67,"time":87.157764,"velocity":0.1968503937007874},{"duration":0.1578944999999976,"midi":71,"time":87.157764,"velocity":0.1968503937007874},{"duration":0.3157889999999952,"midi":88,"time":87.157764,"velocity":0.47244094488188976},{"duration":0.3157889999999952,"midi":72,"time":87.157764,"velocity":0.47244094488188976},{"duration":0.1578944999999976,"midi":43,"time":87.157764,"velocity":0.3937007874015748},{"duration":1.1052614999999975,"midi":86,"time":87.157764,"velocity":0.31496062992125984},{"duration":0.5526307499999916,"midi":71,"time":87.23671125,"velocity":0.1968503937007874},{"duration":0.0789472499999988,"midi":62,"time":87.3156585,"velocity":0.2677165354330709},{"duration":0.0789472499999988,"midi":55,"time":87.3156585,"velocity":0.2677165354330709},{"duration":0.0789472499999988,"midi":50,"time":87.3156585,"velocity":0.2677165354330709},{"duration":0.394736249999994,"midi":74,"time":87.3156585,"velocity":0.1968503937007874},{"duration":0.0789472499999988,"midi":59,"time":87.3156585,"velocity":0.2677165354330709},{"duration":0.0789472499999988,"midi":79,"time":87.39460575,"velocity":0.1968503937007874},{"duration":0.3157889999999952,"midi":77,"time":87.473553,"velocity":0.47244094488188976},{"duration":0.3157889999999952,"midi":89,"time":87.473553,"velocity":0.47244094488188976},{"duration":0.1578944999999976,"midi":38,"time":87.473553,"velocity":0.3937007874015748},{"duration":0.3157889999999952,"midi":74,"time":87.473553,"velocity":0.47244094488188976},{"duration":0.1578944999999976,"midi":26,"time":87.473553,"velocity":0.1968503937007874},{"duration":0.7105252500000034,"midi":83,"time":87.473553,"velocity":0.1968503937007874},{"duration":0.0789472499999988,"midi":79,"time":87.55250025,"velocity":0.1968503937007874},{"duration":0.0789472499999988,"midi":50,"time":87.6314475,"velocity":0.2677165354330709},{"duration":0.0789472499999988,"midi":62,"time":87.6314475,"velocity":0.2677165354330709},{"duration":0.0789472499999988,"midi":55,"time":87.6314475,"velocity":0.2677165354330709},{"duration":0.3947362500000082,"midi":74,"time":87.6314475,"velocity":0.1968503937007874},{"duration":0.0789472499999988,"midi":59,"time":87.6314475,"velocity":0.2677165354330709},{"duration":0.23684175000001062,"midi":71,"time":87.71039474999999,"velocity":0.1968503937007874},{"duration":0.47368350000000703,"midi":74,"time":87.78934199999999,"velocity":0.47244094488188976},{"duration":0.15789450000001182,"midi":43,"time":87.78934199999999,"velocity":0.3937007874015748},{"duration":0.6315780000000046,"midi":86,"time":87.78934199999999,"velocity":0.47244094488188976},{"duration":0.15789450000001182,"midi":31,"time":87.78934199999999,"velocity":0.1968503937007874},{"duration":0.47368350000000703,"midi":71,"time":87.78934199999999,"velocity":0.47244094488188976},{"duration":0.0789472499999988,"midi":67,"time":87.78934199999999,"velocity":0.1968503937007874},{"duration":0.5526307500000058,"midi":71,"time":87.86828924999999,"velocity":0.1968503937007874},{"duration":0.394736249999994,"midi":74,"time":87.9472365,"velocity":0.1968503937007874},{"duration":0.0789472499999988,"midi":62,"time":87.9472365,"velocity":0.2677165354330709},{"duration":0.0789472499999988,"midi":55,"time":87.9472365,"velocity":0.2677165354330709},{"duration":0.0789472499999988,"midi":50,"time":87.9472365,"velocity":0.2677165354330709},{"duration":0.0789472499999988,"midi":59,"time":87.9472365,"velocity":0.2677165354330709},{"duration":0.0789472499999988,"midi":79,"time":88.02618375,"velocity":0.1968503937007874},{"duration":0.3157889999999952,"midi":83,"time":88.105131,"velocity":0.1968503937007874},{"duration":0.1578944999999976,"midi":26,"time":88.105131,"velocity":0.1968503937007874},{"duration":0.1578944999999976,"midi":38,"time":88.105131,"velocity":0.3937007874015748},{"duration":0.0789472499999988,"midi":79,"time":88.18407825,"velocity":0.1968503937007874},{"duration":0.0789472499999988,"midi":55,"time":88.2630255,"velocity":0.2677165354330709},{"duration":0.0789472499999988,"midi":50,"time":88.2630255,"velocity":0.2677165354330709},{"duration":0.0789472499999988,"midi":67,"time":88.2630255,"velocity":0.47244094488188976},{"duration":0.1578944999999976,"midi":74,"time":88.2630255,"velocity":0.1968503937007874},{"duration":0.0789472499999988,"midi":59,"time":88.2630255,"velocity":0.2677165354330709},{"duration":0.0789472499999988,"midi":62,"time":88.2630255,"velocity":0.2677165354330709},{"duration":0.0789472499999988,"midi":84,"time":88.2630255,"velocity":0.47244094488188976},{"duration":0.0789472499999988,"midi":72,"time":88.2630255,"velocity":0.47244094488188976},{"duration":0.0789472499999988,"midi":71,"time":88.34197275,"velocity":0.1968503937007874},{"duration":0.0789472499999988,"midi":69,"time":88.42092,"velocity":0.1968503937007874},{"duration":0.2368417499999964,"midi":64,"time":88.42092,"velocity":0.47244094488188976},{"duration":0.1578944999999976,"midi":72,"time":88.42092,"velocity":0.1968503937007874},{"duration":0.1578944999999976,"midi":33,"time":88.42092,"velocity":0.1968503937007874},{"duration":0.394736249999994,"midi":84,"time":88.42092,"velocity":0.31496062992125984},{"duration":0.1578944999999976,"midi":45,"time":88.42092,"velocity":0.3937007874015748},{"duration":0.3157889999999952,"midi":81,"time":88.42092,"velocity":0.1968503937007874},{"duration":0.7105252500000034,"midi":69,"time":88.42092,"velocity":0.1968503937007874},{"duration":0.9473669999999998,"midi":84,"time":88.42092,"velocity":0.47244094488188976},{"duration":0.6315780000000046,"midi":72,"time":88.42092,"velocity":0.47244094488188976},{"duration":0.7105252500000034,"midi":72,"time":88.49986725,"velocity":0.1968503937007874},{"duration":0.0789472499999988,"midi":57,"time":88.5788145,"velocity":0.23622047244094488},{"duration":0.0789472499999988,"midi":52,"time":88.5788145,"velocity":0.2677165354330709},{"duration":0.0789472499999988,"midi":76,"time":88.5788145,"velocity":0.1968503937007874},{"duration":0.3947362500000082,"midi":64,"time":88.5788145,"velocity":0.2677165354330709},{"duration":0.0789472499999988,"midi":60,"time":88.5788145,"velocity":0.2677165354330709},{"duration":0.23684175000001062,"midi":81,"time":88.65776174999999,"velocity":0.1968503937007874},{"duration":0.7105252500000034,"midi":84,"time":88.73670899999999,"velocity":0.1968503937007874},{"duration":0.15789450000001182,"midi":40,"time":88.73670899999999,"velocity":0.3937007874015748},{"duration":0.15789450000001182,"midi":28,"time":88.73670899999999,"velocity":0.1968503937007874},{"duration":0.5526307500000058,"midi":81,"time":88.81565624999999,"velocity":0.1968503937007874},{"duration":0.0789472499999988,"midi":57,"time":88.8946035,"velocity":0.23622047244094488},{"duration":0.0789472499999988,"midi":60,"time":88.8946035,"velocity":0.2677165354330709},{"duration":0.0789472499999988,"midi":76,"time":88.8946035,"velocity":0.1968503937007874},{"duration":0.394736249999994,"midi":64,"time":88.8946035,"velocity":0.2677165354330709},{"duration":0.0789472499999988,"midi":52,"time":88.8946035,"velocity":0.2677165354330709},{"duration":0.394736249999994,"midi":72,"time":88.97355075,"velocity":0.1968503937007874},{"duration":0.1578944999999976,"midi":45,"time":89.052498,"velocity":0.3937007874015748},{"duration":0.6315779999999904,"midi":69,"time":89.052498,"velocity":0.1968503937007874},{"duration":0.1578944999999976,"midi":33,"time":89.052498,"velocity":0.1968503937007874},{"duration":0.5526307499999916,"midi":72,"time":89.13144525,"velocity":0.1968503937007874},{"duration":0.0789472499999988,"midi":60,"time":89.2103925,"velocity":0.2677165354330709},{"duration":0.0789472499999988,"midi":57,"time":89.2103925,"velocity":0.23622047244094488},{"duration":0.1578944999999976,"midi":64,"time":89.2103925,"velocity":0.2677165354330709},{"duration":0.0789472499999988,"midi":76,"time":89.2103925,"velocity":0.1968503937007874},{"duration":0.0789472499999988,"midi":52,"time":89.2103925,"velocity":0.2677165354330709},{"duration":0.2368417499999964,"midi":81,"time":89.28933975,"velocity":0.1968503937007874},{"duration":0.1578944999999976,"midi":40,"time":89.368287,"velocity":0.3937007874015748},{"duration":0.1578944999999976,"midi":28,"time":89.368287,"velocity":0.1968503937007874},{"duration":0.3157889999999952,"midi":84,"time":89.368287,"velocity":0.1968503937007874},{"duration":0.3157889999999952,"midi":79,"time":89.368287,"velocity":0.4330708661417323},{"duration":0.3157889999999952,"midi":67,"time":89.368287,"velocity":0.4330708661417323},{"duration":0.2368417499999964,"midi":81,"time":89.44723425,"velocity":0.1968503937007874},{"duration":0.0789472499999988,"midi":76,"time":89.52618149999999,"velocity":0.1968503937007874},{"duration":0.0789472499999988,"midi":52,"time":89.52618149999999,"velocity":0.2677165354330709},{"duration":0.0789472499999988,"midi":57,"time":89.52618149999999,"velocity":0.23622047244094488},{"duration":0.0789472499999988,"midi":60,"time":89.52618149999999,"velocity":0.2677165354330709},{"duration":0.0789472499999988,"midi":64,"time":89.52618149999999,"velocity":0.2677165354330709},{"duration":0.0789472499999988,"midi":72,"time":89.60512874999999,"velocity":0.1968503937007874},{"duration":0.3157890000000094,"midi":72,"time":89.68407599999999,"velocity":0.47244094488188976},{"duration":0.23684175000001062,"midi":74,"time":89.68407599999999,"velocity":0.1968503937007874},{"duration":0.15789450000001182,"midi":43,"time":89.68407599999999,"velocity":0.3937007874015748},{"duration":0.15789450000001182,"midi":71,"time":89.68407599999999,"velocity":0.1968503937007874},{"duration":0.0789472499999988,"midi":67,"time":89.68407599999999,"velocity":0.1968503937007874},{"duration":0.9473669999999998,"midi":86,"time":89.68407599999999,"velocity":0.31496062992125984},{"duration":0.3157890000000094,"midi":88,"time":89.68407599999999,"velocity":0.47244094488188976},{"duration":0.15789450000001182,"midi":31,"time":89.68407599999999,"velocity":0.1968503937007874},{"duration":0.3157890000000094,"midi":76,"time":89.68407599999999,"velocity":0.47244094488188976},{"duration":0.3947362500000082,"midi":83,"time":89.68407599999999,"velocity":0.1968503937007874},{"duration":0.5526307500000058,"midi":71,"time":89.76302324999999,"velocity":0.1968503937007874},{"duration":0.0789472499999988,"midi":59,"time":89.8419705,"velocity":0.2677165354330709},{"duration":0.0789472499999988,"midi":55,"time":89.8419705,"velocity":0.2677165354330709},{"duration":0.0789472499999988,"midi":62,"time":89.8419705,"velocity":0.2677165354330709},{"duration":0.0789472499999988,"midi":50,"time":89.8419705,"velocity":0.2677165354330709},{"duration":0.394736249999994,"midi":74,"time":89.8419705,"velocity":0.1968503937007874},{"duration":0.0789472499999988,"midi":79,"time":89.92091775,"velocity":0.1968503937007874},{"duration":0.1578944999999976,"midi":38,"time":89.999865,"velocity":0.3937007874015748},{"duration":0.1578944999999976,"midi":26,"time":89.999865,"velocity":0.1968503937007874},{"duration":0.3157889999999952,"midi":77,"time":89.999865,"velocity":0.47244094488188976},{"duration":0.7105252499999892,"midi":83,"time":89.999865,"velocity":0.1968503937007874},{"duration":0.3157889999999952,"midi":74,"time":89.999865,"velocity":0.47244094488188976},{"duration":0.3157889999999952,"midi":89,"time":89.999865,"velocity":0.47244094488188976},{"duration":0.0789472499999988,"midi":79,"time":90.07881225,"velocity":0.1968503937007874},{"duration":0.394736249999994,"midi":74,"time":90.1577595,"velocity":0.1968503937007874},{"duration":0.0789472499999988,"midi":50,"time":90.1577595,"velocity":0.2677165354330709},{"duration":0.0789472499999988,"midi":59,"time":90.1577595,"velocity":0.2677165354330709},{"duration":0.0789472499999988,"midi":55,"time":90.1577595,"velocity":0.2677165354330709},{"duration":0.0789472499999988,"midi":62,"time":90.1577595,"velocity":0.2677165354330709},{"duration":0.2368417499999964,"midi":71,"time":90.23670675,"velocity":0.1968503937007874},{"duration":0.6315780000000046,"midi":86,"time":90.315654,"velocity":0.47244094488188976},{"duration":0.1578944999999976,"midi":43,"time":90.315654,"velocity":0.3937007874015748},{"duration":0.3157889999999952,"midi":74,"time":90.315654,"velocity":0.47244094488188976},{"duration":0.0789472499999988,"midi":67,"time":90.315654,"velocity":0.1968503937007874},{"duration":0.1578944999999976,"midi":31,"time":90.315654,"velocity":0.1968503937007874},{"duration":0.1578944999999976,"midi":71,"time":90.315654,"velocity":0.47244094488188976},{"duration":0.5526307500000058,"midi":71,"time":90.39460125,"velocity":0.1968503937007874},{"duration":0.0789472499999988,"midi":62,"time":90.47354849999999,"velocity":0.2677165354330709},{"duration":0.0789472499999988,"midi":55,"time":90.47354849999999,"velocity":0.2677165354330709},{"duration":0.1578944999999976,"midi":69,"time":90.47354849999999,"velocity":0.47244094488188976},{"duration":0.0789472499999988,"midi":59,"time":90.47354849999999,"velocity":0.2677165354330709},{"duration":0.0789472499999988,"midi":50,"time":90.47354849999999,"velocity":0.2677165354330709},{"duration":0.3947362500000082,"midi":74,"time":90.47354849999999,"velocity":0.1968503937007874},{"duration":0.0789472499999988,"midi":79,"time":90.55249574999999,"velocity":0.1968503937007874},{"duration":0.3157890000000094,"midi":83,"time":90.63144299999999,"velocity":0.1968503937007874},{"duration":0.15789450000001182,"midi":38,"time":90.63144299999999,"velocity":0.3937007874015748},{"duration":0.15789450000001182,"midi":26,"time":90.63144299999999,"velocity":0.1968503937007874},{"duration":0.15789450000001182,"midi":67,"time":90.63144299999999,"velocity":0.47244094488188976},{"duration":0.3157890000000094,"midi":84,"time":90.63144299999999,"velocity":0.47244094488188976},{"duration":0.3157890000000094,"midi":72,"time":90.63144299999999,"velocity":0.47244094488188976},{"duration":0.07894725000001301,"midi":79,"time":90.71039024999999,"velocity":0.1968503937007874},{"duration":0.0789472499999988,"midi":55,"time":90.7893375,"velocity":0.2677165354330709},{"duration":0.1578944999999976,"midi":74,"time":90.7893375,"velocity":0.1968503937007874},{"duration":0.0789472499999988,"midi":62,"time":90.7893375,"velocity":0.2677165354330709},{"duration":0.0789472499999988,"midi":50,"time":90.7893375,"velocity":0.2677165354330709},{"duration":0.0789472499999988,"midi":59,"time":90.7893375,"velocity":0.2677165354330709},{"duration":0.1578944999999976,"midi":69,"time":90.7893375,"velocity":0.47244094488188976},{"duration":0.0789472499999988,"midi":71,"time":90.86828475,"velocity":0.1968503937007874},{"duration":0.1578944999999976,"midi":29,"time":90.947232,"velocity":0.1968503937007874},{"duration":0.9473669999999998,"midi":84,"time":90.947232,"velocity":0.47244094488188976},{"duration":0.1578944999999976,"midi":69,"time":90.947232,"velocity":0.47244094488188976},{"duration":0.394736249999994,"midi":81,"time":90.947232,"velocity":0.31496062992125984},{"duration":0.6315779999999904,"midi":69,"time":90.947232,"velocity":0.1968503937007874},{"duration":0.0789472499999988,"midi":65,"time":90.947232,"velocity":0.1968503937007874},{"duration":0.7105252500000034,"midi":65,"time":90.947232,"velocity":0.1968503937007874},{"duration":0.2368417499999964,"midi":72,"time":90.947232,"velocity":0.47244094488188976},{"duration":0.1578944999999976,"midi":41,"time":90.947232,"velocity":0.3937007874015748},{"duration":0.3157889999999952,"midi":77,"time":90.947232,"velocity":0.1968503937007874},{"duration":0.7105252500000034,"midi":69,"time":91.02617925,"velocity":0.1968503937007874},{"duration":0.394736249999994,"midi":72,"time":91.1051265,"velocity":0.1968503937007874},{"duration":0.0789472499999988,"midi":53,"time":91.1051265,"velocity":0.2677165354330709},{"duration":0.0789472499999988,"midi":48,"time":91.1051265,"velocity":0.2677165354330709},{"duration":0.0789472499999988,"midi":60,"time":91.1051265,"velocity":0.2677165354330709},{"duration":0.0789472499999988,"midi":57,"time":91.1051265,"velocity":0.2677165354330709},{"duration":0.2368417499999964,"midi":77,"time":91.18407375,"velocity":0.1968503937007874},{"duration":0.1578944999999976,"midi":36,"time":91.263021,"velocity":0.3937007874015748},{"duration":0.1578944999999976,"midi":24,"time":91.263021,"velocity":0.1968503937007874},{"duration":0.7105252500000034,"midi":81,"time":91.263021,"velocity":0.1968503937007874},{"duration":0.5526307500000058,"midi":77,"time":91.34196825,"velocity":0.1968503937007874},{"duration":0.0789472499999988,"midi":48,"time":91.42091549999999,"velocity":0.2677165354330709},{"duration":0.3947362500000082,"midi":72,"time":91.42091549999999,"velocity":0.1968503937007874},{"duration":0.0789472499999988,"midi":57,"time":91.42091549999999,"velocity":0.2677165354330709},{"duration":0.0789472499999988,"midi":60,"time":91.42091549999999,"velocity":0.2677165354330709},{"duration":0.0789472499999988,"midi":53,"time":91.42091549999999,"velocity":0.2677165354330709},{"duration":0.3947362500000082,"midi":69,"time":91.49986274999999,"velocity":0.1968503937007874},{"duration":0.15789450000001182,"midi":41,"time":91.57880999999999,"velocity":0.3937007874015748},{"duration":0.6315780000000046,"midi":65,"time":91.57880999999999,"velocity":0.1968503937007874},{"duration":0.15789450000001182,"midi":29,"time":91.57880999999999,"velocity":0.1968503937007874},{"duration":0.5526307499999916,"midi":69,"time":91.65775725,"velocity":0.1968503937007874},{"duration":0.0789472499999988,"midi":60,"time":91.7367045,"velocity":0.2677165354330709},{"duration":0.0789472499999988,"midi":53,"time":91.7367045,"velocity":0.2677165354330709},{"duration":0.0789472499999988,"midi":57,"time":91.7367045,"velocity":0.2677165354330709},{"duration":0.1578944999999976,"midi":72,"time":91.7367045,"velocity":0.1968503937007874},{"duration":0.0789472499999988,"midi":48,"time":91.7367045,"velocity":0.2677165354330709},{"duration":0.2368417499999964,"midi":77,"time":91.81565175,"velocity":0.1968503937007874},{"duration":0.3157889999999952,"midi":79,"time":91.894599,"velocity":0.47244094488188976},{"duration":0.3157889999999952,"midi":67,"time":91.894599,"velocity":0.47244094488188976},{"duration":0.1578944999999976,"midi":36,"time":91.894599,"velocity":0.3937007874015748},{"duration":0.3157889999999952,"midi":81,"time":91.894599,"velocity":0.1968503937007874},{"duration":0.3157889999999952,"midi":64,"time":91.894599,"velocity":0.47244094488188976},{"duration":0.1578944999999976,"midi":24,"time":91.894599,"velocity":0.1968503937007874},{"duration":0.2368417499999964,"midi":77,"time":91.97354625,"velocity":0.1968503937007874},{"duration":0.0789472499999988,"midi":53,"time":92.0524935,"velocity":0.2677165354330709},{"duration":0.0789472499999988,"midi":72,"time":92.0524935,"velocity":0.1968503937007874},{"duration":0.0789472499999988,"midi":60,"time":92.0524935,"velocity":0.2677165354330709},{"duration":0.0789472499999988,"midi":57,"time":92.0524935,"velocity":0.2677165354330709},{"duration":0.0789472499999988,"midi":48,"time":92.0524935,"velocity":0.2677165354330709},{"duration":0.0789472499999988,"midi":69,"time":92.13144075,"velocity":0.1968503937007874},{"duration":0.0789472499999988,"midi":67,"time":92.210388,"velocity":0.1968503937007874},{"duration":0.3157889999999952,"midi":79,"time":92.210388,"velocity":0.1968503937007874},{"duration":0.7105252500000034,"midi":67,"time":92.210388,"velocity":0.1968503937007874},{"duration":0.3157889999999952,"midi":76,"time":92.210388,"velocity":0.47244094488188976},{"duration":0.1578944999999976,"midi":31,"time":92.210388,"velocity":0.1968503937007874},{"duration":0.1578944999999976,"midi":43,"time":92.210388,"velocity":0.3937007874015748},{"duration":0.3157889999999952,"midi":88,"time":92.210388,"velocity":0.47244094488188976},{"duration":0.1578944999999976,"midi":71,"time":92.210388,"velocity":0.1968503937007874},{"duration":0.3947362500000082,"midi":83,"time":92.210388,"velocity":0.31496062992125984},{"duration":0.3157889999999952,"midi":72,"time":92.210388,"velocity":0.47244094488188976},{"duration":0.5526307500000058,"midi":71,"time":92.28933525,"velocity":0.1968503937007874},{"duration":0.0789472499999988,"midi":55,"time":92.36828249999999,"velocity":0.2677165354330709},{"duration":0.0789472499999988,"midi":59,"time":92.36828249999999,"velocity":0.2677165354330709},{"duration":0.0789472499999988,"midi":74,"time":92.36828249999999,"velocity":0.1968503937007874},{"duration":0.0789472499999988,"midi":50,"time":92.36828249999999,"velocity":0.2677165354330709},{"duration":0.0789472499999988,"midi":62,"time":92.36828249999999,"velocity":0.2677165354330709},{"duration":0.23684175000001062,"midi":79,"time":92.44722974999999,"velocity":0.1968503937007874},{"duration":0.15789450000001182,"midi":26,"time":92.52617699999999,"velocity":0.1968503937007874},{"duration":0.3157890000000094,"midi":77,"time":92.52617699999999,"velocity":0.47244094488188976},{"duration":0.3157890000000094,"midi":89,"time":92.52617699999999,"velocity":0.47244094488188976},{"duration":0.23684175000001062,"midi":74,"time":92.52617699999999,"velocity":0.47244094488188976},{"duration":0.15789450000001182,"midi":38,"time":92.52617699999999,"velocity":0.3937007874015748},{"duration":0.7105252500000034,"midi":83,"time":92.52617699999999,"velocity":0.1968503937007874},{"duration":0.5526307499999916,"midi":79,"time":92.60512425,"velocity":0.1968503937007874},{"duration":0.1578944999999976,"midi":74,"time":92.6840715,"velocity":0.1968503937007874},{"duration":0.0789472499999988,"midi":62,"time":92.6840715,"velocity":0.2677165354330709},{"duration":0.0789472499999988,"midi":50,"time":92.6840715,"velocity":0.2677165354330709},{"duration":0.0789472499999988,"midi":55,"time":92.6840715,"velocity":0.2677165354330709},{"duration":0.0789472499999988,"midi":59,"time":92.6840715,"velocity":0.2677165354330709},{"duration":0.2368417499999964,"midi":71,"time":92.76301875,"velocity":0.1968503937007874},{"duration":0.1578944999999976,"midi":43,"time":92.841966,"velocity":0.3937007874015748},{"duration":0.2368417499999964,"midi":74,"time":92.841966,"velocity":0.47244094488188976},{"duration":0.4736834999999928,"midi":71,"time":92.841966,"velocity":0.47244094488188976},{"duration":0.4736834999999928,"midi":86,"time":92.841966,"velocity":0.47244094488188976},{"duration":0.1578944999999976,"midi":31,"time":92.841966,"velocity":0.1968503937007874},{"duration":0.5526307499999916,"midi":67,"time":92.841966,"velocity":0.1968503937007874},{"duration":0.5526307499999916,"midi":71,"time":92.92091325,"velocity":0.1968503937007874},{"duration":0.0789472499999988,"midi":50,"time":92.9998605,"velocity":0.2677165354330709},{"duration":0.0789472499999988,"midi":59,"time":92.9998605,"velocity":0.2677165354330709},{"duration":0.0789472499999988,"midi":62,"time":92.9998605,"velocity":0.2677165354330709},{"duration":0.3157889999999952,"midi":74,"time":92.9998605,"velocity":0.1968503937007874},{"duration":0.0789472499999988,"midi":55,"time":92.9998605,"velocity":0.2677165354330709},{"duration":0.2368417499999964,"midi":79,"time":93.07880775,"velocity":0.1968503937007874},{"duration":0.3157889999999952,"midi":83,"time":93.157755,"velocity":0.1968503937007874},{"duration":0.1578944999999976,"midi":26,"time":93.157755,"velocity":0.1968503937007874},{"duration":0.1578944999999976,"midi":38,"time":93.157755,"velocity":0.3937007874015748},{"duration":0.2368417499999964,"midi":79,"time":93.23670225,"velocity":0.1968503937007874},{"duration":0.0789472499999988,"midi":74,"time":93.31564949999999,"velocity":0.1968503937007874},{"duration":0.0789472499999988,"midi":50,"time":93.31564949999999,"velocity":0.2677165354330709},{"duration":0.0789472499999988,"midi":59,"time":93.31564949999999,"velocity":0.2677165354330709},{"duration":0.0789472499999988,"midi":84,"time":93.31564949999999,"velocity":0.47244094488188976},{"duration":0.0789472499999988,"midi":72,"time":93.31564949999999,"velocity":0.47244094488188976},{"duration":0.0789472499999988,"midi":55,"time":93.31564949999999,"velocity":0.2677165354330709},{"duration":0.1578944999999976,"midi":67,"time":93.31564949999999,"velocity":0.47244094488188976},{"duration":0.0789472499999988,"midi":62,"time":93.31564949999999,"velocity":0.2677165354330709},{"duration":0.0789472499999988,"midi":71,"time":93.39459674999999,"velocity":0.1968503937007874},{"duration":0.3947362500000082,"midi":84,"time":93.47354399999999,"velocity":0.31496062992125984},{"duration":0.3157890000000094,"midi":81,"time":93.47354399999999,"velocity":0.1968503937007874},{"duration":0.07894725000001301,"midi":69,"time":93.47354399999999,"velocity":0.1968503937007874},{"duration":0.7105252500000034,"midi":69,"time":93.47354399999999,"velocity":0.1968503937007874},{"duration":0.9473669999999998,"midi":84,"time":93.47354399999999,"velocity":0.47244094488188976},{"duration":0.23684175000001062,"midi":64,"time":93.47354399999999,"velocity":0.47244094488188976},{"duration":0.15789450000001182,"midi":45,"time":93.47354399999999,"velocity":0.3937007874015748},{"duration":0.15789450000001182,"midi":33,"time":93.47354399999999,"velocity":0.1968503937007874},{"duration":0.15789450000001182,"midi":72,"time":93.47354399999999,"velocity":0.1968503937007874},{"duration":0.6315780000000046,"midi":72,"time":93.47354399999999,"velocity":0.47244094488188976},{"duration":0.7105252499999892,"midi":72,"time":93.55249125,"velocity":0.1968503937007874},{"duration":0.394736249999994,"midi":64,"time":93.6314385,"velocity":0.2677165354330709},{"duration":0.0789472499999988,"midi":76,"time":93.6314385,"velocity":0.1968503937007874},{"duration":0.0789472499999988,"midi":57,"time":93.6314385,"velocity":0.23622047244094488},{"duration":0.0789472499999988,"midi":52,"time":93.6314385,"velocity":0.2677165354330709},{"duration":0.0789472499999988,"midi":60,"time":93.6314385,"velocity":0.2677165354330709},{"duration":0.2368417499999964,"midi":81,"time":93.71038575,"velocity":0.1968503937007874},{"duration":0.1578944999999976,"midi":28,"time":93.789333,"velocity":0.1968503937007874},{"duration":0.1578944999999976,"midi":40,"time":93.789333,"velocity":0.3937007874015748},{"duration":0.7105252500000034,"midi":84,"time":93.789333,"velocity":0.1968503937007874},{"duration":0.5526307499999916,"midi":81,"time":93.86828025,"velocity":0.1968503937007874},{"duration":0.394736249999994,"midi":64,"time":93.9472275,"velocity":0.2677165354330709},{"duration":0.0789472499999988,"midi":57,"time":93.9472275,"velocity":0.23622047244094488},{"duration":0.0789472499999988,"midi":52,"time":93.9472275,"velocity":0.2677165354330709},{"duration":0.0789472499999988,"midi":76,"time":93.9472275,"velocity":0.1968503937007874},{"duration":0.0789472499999988,"midi":60,"time":93.9472275,"velocity":0.2677165354330709},{"duration":0.394736249999994,"midi":72,"time":94.02617475,"velocity":0.1968503937007874},{"duration":0.6315780000000046,"midi":69,"time":94.105122,"velocity":0.1968503937007874},{"duration":0.1578944999999976,"midi":33,"time":94.105122,"velocity":0.1968503937007874},{"duration":0.1578944999999976,"midi":45,"time":94.105122,"velocity":0.3937007874015748},{"duration":0.5526307500000058,"midi":72,"time":94.18406925,"velocity":0.1968503937007874},{"duration":0.0789472499999988,"midi":76,"time":94.26301649999999,"velocity":0.1968503937007874},{"duration":0.1578944999999976,"midi":64,"time":94.26301649999999,"velocity":0.2677165354330709},{"duration":0.0789472499999988,"midi":57,"time":94.26301649999999,"velocity":0.23622047244094488},{"duration":0.0789472499999988,"midi":52,"time":94.26301649999999,"velocity":0.2677165354330709},{"duration":0.0789472499999988,"midi":60,"time":94.26301649999999,"velocity":0.2677165354330709},{"duration":0.23684175000001062,"midi":81,"time":94.34196374999999,"velocity":0.1968503937007874},{"duration":0.23684175000001062,"midi":64,"time":94.42091099999999,"velocity":0.47244094488188976},{"duration":0.3157890000000094,"midi":79,"time":94.42091099999999,"velocity":0.47244094488188976},{"duration":0.15789450000001182,"midi":28,"time":94.42091099999999,"velocity":0.1968503937007874},{"duration":0.3157890000000094,"midi":67,"time":94.42091099999999,"velocity":0.47244094488188976},{"duration":0.3157890000000094,"midi":84,"time":94.42091099999999,"velocity":0.1968503937007874},{"duration":0.15789450000001182,"midi":40,"time":94.42091099999999,"velocity":0.3937007874015748},{"duration":0.2368417499999964,"midi":81,"time":94.49985825,"velocity":0.1968503937007874},{"duration":0.0789472499999988,"midi":57,"time":94.5788055,"velocity":0.23622047244094488},{"duration":0.1578944999999976,"midi":64,"time":94.5788055,"velocity":0.2677165354330709},{"duration":0.0789472499999988,"midi":60,"time":94.5788055,"velocity":0.2677165354330709},{"duration":0.0789472499999988,"midi":76,"time":94.5788055,"velocity":0.1968503937007874},{"duration":0.0789472499999988,"midi":52,"time":94.5788055,"velocity":0.2677165354330709},{"duration":0.0789472499999988,"midi":72,"time":94.65775275,"velocity":0.1968503937007874},{"duration":0.1578944999999976,"midi":71,"time":94.7367,"velocity":0.1968503937007874},{"duration":0.0789472499999988,"midi":67,"time":94.7367,"velocity":0.1968503937007874},{"duration":0.3157889999999952,"midi":72,"time":94.7367,"velocity":0.47244094488188976},{"duration":0.1578944999999976,"midi":43,"time":94.7367,"velocity":0.3937007874015748},{"duration":0.2368417499999964,"midi":74,"time":94.7367,"velocity":0.1968503937007874},{"duration":0.3157889999999952,"midi":88,"time":94.7367,"velocity":0.47244094488188976},{"duration":0.394736249999994,"midi":83,"time":94.7367,"velocity":0.1968503937007874},{"duration":0.3157889999999952,"midi":76,"time":94.7367,"velocity":0.47244094488188976},{"duration":0.9473669999999998,"midi":86,"time":94.7367,"velocity":0.31496062992125984},{"duration":0.1578944999999976,"midi":31,"time":94.7367,"velocity":0.1968503937007874},{"duration":0.5526307499999916,"midi":71,"time":94.81564725,"velocity":0.1968503937007874},{"duration":0.0789472499999988,"midi":50,"time":94.8945945,"velocity":0.2677165354330709},{"duration":0.0789472499999988,"midi":59,"time":94.8945945,"velocity":0.2677165354330709},{"duration":0.394736249999994,"midi":74,"time":94.8945945,"velocity":0.1968503937007874},{"duration":0.0789472499999988,"midi":55,"time":94.8945945,"velocity":0.2677165354330709},{"duration":0.0789472499999988,"midi":62,"time":94.8945945,"velocity":0.2677165354330709},{"duration":0.0789472499999988,"midi":79,"time":94.97354175,"velocity":0.1968503937007874},{"duration":0.1578944999999976,"midi":38,"time":95.052489,"velocity":0.3937007874015748},{"duration":0.3157889999999952,"midi":89,"time":95.052489,"velocity":0.47244094488188976},{"duration":0.3157889999999952,"midi":74,"time":95.052489,"velocity":0.47244094488188976},{"duration":0.3157889999999952,"midi":77,"time":95.052489,"velocity":0.47244094488188976},{"duration":0.7105252500000034,"midi":83,"time":95.052489,"velocity":0.1968503937007874},{"duration":0.1578944999999976,"midi":26,"time":95.052489,"velocity":0.1968503937007874},{"duration":0.0789472499999988,"midi":79,"time":95.13143625,"velocity":0.1968503937007874},{"duration":0.0789472499999988,"midi":55,"time":95.21038349999999,"velocity":0.2677165354330709},{"duration":0.0789472499999988,"midi":62,"time":95.21038349999999,"velocity":0.2677165354330709},{"duration":0.0789472499999988,"midi":50,"time":95.21038349999999,"velocity":0.2677165354330709},{"duration":0.0789472499999988,"midi":59,"time":95.21038349999999,"velocity":0.2677165354330709},{"duration":0.3947362500000082,"midi":74,"time":95.21038349999999,"velocity":0.1968503937007874},{"duration":0.23684175000001062,"midi":71,"time":95.28933074999999,"velocity":0.1968503937007874},{"duration":0.15789450000001182,"midi":31,"time":95.36827799999999,"velocity":0.1968503937007874},{"duration":0.15789450000001182,"midi":71,"time":95.36827799999999,"velocity":0.47244094488188976},{"duration":0.15789450000001182,"midi":43,"time":95.36827799999999,"velocity":0.3937007874015748},{"duration":0.3157890000000094,"midi":74,"time":95.36827799999999,"velocity":0.47244094488188976},{"duration":0.07894725000001301,"midi":67,"time":95.36827799999999,"velocity":0.1968503937007874},{"duration":0.6315780000000046,"midi":86,"time":95.36827799999999,"velocity":0.47244094488188976},{"duration":0.5526307499999916,"midi":71,"time":95.44722525,"velocity":0.1968503937007874},{"duration":0.0789472499999988,"midi":62,"time":95.5261725,"velocity":0.2677165354330709},{"duration":0.0789472499999988,"midi":55,"time":95.5261725,"velocity":0.2677165354330709},{"duration":0.0789472499999988,"midi":59,"time":95.5261725,"velocity":0.2677165354330709},{"duration":0.0789472499999988,"midi":50,"time":95.5261725,"velocity":0.2677165354330709},{"duration":0.1578944999999976,"midi":69,"time":95.5261725,"velocity":0.47244094488188976},{"duration":0.394736249999994,"midi":74,"time":95.5261725,"velocity":0.1968503937007874},{"duration":0.0789472499999988,"midi":79,"time":95.60511975,"velocity":0.1968503937007874},{"duration":0.3157889999999952,"midi":83,"time":95.684067,"velocity":0.1968503937007874},{"duration":0.1578944999999976,"midi":26,"time":95.684067,"velocity":0.1968503937007874},{"duration":0.3157889999999952,"midi":84,"time":95.684067,"velocity":0.47244094488188976},{"duration":0.3157889999999952,"midi":72,"time":95.684067,"velocity":0.47244094488188976},{"duration":0.1578944999999976,"midi":67,"time":95.684067,"velocity":0.47244094488188976},{"duration":0.1578944999999976,"midi":38,"time":95.684067,"velocity":0.3937007874015748},{"duration":0.0789472499999988,"midi":79,"time":95.76301425,"velocity":0.1968503937007874},{"duration":0.0789472499999988,"midi":50,"time":95.8419615,"velocity":0.2677165354330709},{"duration":0.0789472499999988,"midi":55,"time":95.8419615,"velocity":0.2677165354330709},{"duration":0.0789472499999988,"midi":59,"time":95.8419615,"velocity":0.2677165354330709},{"duration":0.0789472499999988,"midi":62,"time":95.8419615,"velocity":0.2677165354330709},{"duration":0.1578944999999976,"midi":69,"time":95.8419615,"velocity":0.47244094488188976},{"duration":0.1578944999999976,"midi":74,"time":95.8419615,"velocity":0.1968503937007874},{"duration":0.0789472499999988,"midi":71,"time":95.92090875,"velocity":0.1968503937007874},{"duration":0.9473669999999998,"midi":84,"time":95.999856,"velocity":0.1968503937007874},{"duration":0.2368417499999964,"midi":72,"time":95.999856,"velocity":0.1968503937007874},{"duration":1.263155999999995,"midi":88,"time":95.999856,"velocity":0.31496062992125984},{"duration":1.263155999999995,"midi":84,"time":95.999856,"velocity":0.47244094488188976},{"duration":0.9473669999999998,"midi":64,"time":95.999856,"velocity":0.47244094488188976},{"duration":0.0789472499999988,"midi":65,"time":95.999856,"velocity":0.1968503937007874},{"duration":0.1578944999999976,"midi":41,"time":95.999856,"velocity":0.3937007874015748},{"duration":1.263155999999995,"midi":76,"time":95.999856,"velocity":0.1968503937007874},{"duration":0.5526307500000058,"midi":72,"time":95.999856,"velocity":0.47244094488188976},{"duration":0.1578944999999976,"midi":29,"time":95.999856,"velocity":0.1968503937007874},{"duration":0.0789472499999988,"midi":69,"time":96.07880324999999,"velocity":0.1968503937007874},{"duration":0.0789472499999988,"midi":53,"time":96.15775049999999,"velocity":0.2677165354330709},{"duration":0.7105252500000034,"midi":72,"time":96.15775049999999,"velocity":0.1968503937007874},{"duration":0.0789472499999988,"midi":48,"time":96.15775049999999,"velocity":0.2677165354330709},{"duration":0.0789472499999988,"midi":60,"time":96.15775049999999,"velocity":0.2677165354330709},{"duration":0.0789472499999988,"midi":57,"time":96.15775049999999,"velocity":0.2677165354330709},{"duration":0.0789472499999988,"midi":77,"time":96.23669774999999,"velocity":0.1968503937007874},{"duration":0.07894725000001301,"midi":81,"time":96.31564499999999,"velocity":0.1968503937007874},{"duration":0.15789450000001182,"midi":36,"time":96.31564499999999,"velocity":0.3937007874015748},{"duration":0.15789450000001182,"midi":24,"time":96.31564499999999,"velocity":0.1968503937007874},{"duration":0.0789472499999988,"midi":77,"time":96.39459225,"velocity":0.1968503937007874},{"duration":0.0789472499999988,"midi":48,"time":96.4735395,"velocity":0.2677165354330709},{"duration":0.4736834999999928,"midi":72,"time":96.4735395,"velocity":0.1968503937007874},{"duration":0.0789472499999988,"midi":53,"time":96.4735395,"velocity":0.2677165354330709},{"duration":0.0789472499999988,"midi":60,"time":96.4735395,"velocity":0.2677165354330709},{"duration":0.0789472499999988,"midi":57,"time":96.4735395,"velocity":0.2677165354330709},{"duration":0.0789472499999988,"midi":69,"time":96.55248675,"velocity":0.1968503937007874},{"duration":0.1578944999999976,"midi":41,"time":96.631434,"velocity":0.3937007874015748},{"duration":0.1578944999999976,"midi":29,"time":96.631434,"velocity":0.1968503937007874},{"duration":0.0789472499999988,"midi":65,"time":96.631434,"velocity":0.1968503937007874},{"duration":0.0789472499999988,"midi":69,"time":96.71038125,"velocity":0.1968503937007874},{"duration":0.0789472499999988,"midi":53,"time":96.7893285,"velocity":0.2677165354330709},{"duration":0.0789472499999988,"midi":57,"time":96.7893285,"velocity":0.2677165354330709},{"duration":0.0789472499999988,"midi":60,"time":96.7893285,"velocity":0.2677165354330709},{"duration":0.394736249999994,"midi":72,"time":96.7893285,"velocity":0.1968503937007874},{"duration":0.0789472499999988,"midi":48,"time":96.7893285,"velocity":0.2677165354330709},{"duration":0.0789472499999988,"midi":77,"time":96.86827575,"velocity":0.1968503937007874},{"duration":0.3157889999999952,"midi":64,"time":96.947223,"velocity":0.47244094488188976},{"duration":0.3157889999999952,"midi":67,"time":96.947223,"velocity":0.47244094488188976},{"duration":0.1578944999999976,"midi":36,"time":96.947223,"velocity":0.3937007874015748},{"duration":0.0789472499999988,"midi":81,"time":96.947223,"velocity":0.1968503937007874},{"duration":0.3157889999999952,"midi":79,"time":96.947223,"velocity":0.47244094488188976},{"duration":0.1578944999999976,"midi":24,"time":96.947223,"velocity":0.1968503937007874},{"duration":0.0789472499999988,"midi":77,"time":97.02617024999999,"velocity":0.1968503937007874},{"duration":0.0789472499999988,"midi":57,"time":97.10511749999999,"velocity":0.2677165354330709},{"duration":0.0789472499999988,"midi":60,"time":97.10511749999999,"velocity":0.2677165354330709},{"duration":0.0789472499999988,"midi":53,"time":97.10511749999999,"velocity":0.2677165354330709},{"duration":0.0789472499999988,"midi":48,"time":97.10511749999999,"velocity":0.2677165354330709},{"duration":0.1578944999999976,"midi":72,"time":97.10511749999999,"velocity":0.1968503937007874},{"duration":0.0789472499999988,"midi":69,"time":97.18406474999999,"velocity":0.1968503937007874},{"duration":0.3157890000000094,"midi":76,"time":97.26301199999999,"velocity":0.47244094488188976},{"duration":0.23684175000001062,"midi":74,"time":97.26301199999999,"velocity":0.1968503937007874},{"duration":0.15789450000001182,"midi":71,"time":97.26301199999999,"velocity":0.1968503937007874},{"duration":1.1052615000000117,"midi":86,"time":97.26301199999999,"velocity":0.31496062992125984},{"duration":0.07894725000001301,"midi":67,"time":97.26301199999999,"velocity":0.1968503937007874},{"duration":0.3947362500000082,"midi":83,"time":97.26301199999999,"velocity":0.1968503937007874},{"duration":0.3157890000000094,"midi":72,"time":97.26301199999999,"velocity":0.47244094488188976},{"duration":0.3157890000000094,"midi":88,"time":97.26301199999999,"velocity":0.47244094488188976},{"duration":0.15789450000001182,"midi":43,"time":97.26301199999999,"velocity":0.3937007874015748},{"duration":0.15789450000001182,"midi":31,"time":97.26301199999999,"velocity":0.1968503937007874},{"duration":0.5526307499999916,"midi":71,"time":97.34195925,"velocity":0.1968503937007874},{"duration":0.0789472499999988,"midi":50,"time":97.4209065,"velocity":0.2677165354330709},{"duration":0.0789472499999988,"midi":55,"time":97.4209065,"velocity":0.2677165354330709},{"duration":0.0789472499999988,"midi":62,"time":97.4209065,"velocity":0.2677165354330709},{"duration":0.394736249999994,"midi":74,"time":97.4209065,"velocity":0.1968503937007874},{"duration":0.0789472499999988,"midi":59,"time":97.4209065,"velocity":0.2677165354330709},{"duration":0.0789472499999988,"midi":79,"time":97.49985375,"velocity":0.1968503937007874},{"duration":0.3157889999999952,"midi":89,"time":97.578801,"velocity":0.47244094488188976},{"duration":0.1578944999999976,"midi":38,"time":97.578801,"velocity":0.3937007874015748},{"duration":0.7105252500000034,"midi":83,"time":97.578801,"velocity":0.1968503937007874},{"duration":0.3157889999999952,"midi":74,"time":97.578801,"velocity":0.47244094488188976},{"duration":0.3157889999999952,"midi":77,"time":97.578801,"velocity":0.47244094488188976},{"duration":0.1578944999999976,"midi":26,"time":97.578801,"velocity":0.1968503937007874},{"duration":0.0789472499999988,"midi":79,"time":97.65774825,"velocity":0.1968503937007874},{"duration":0.0789472499999988,"midi":50,"time":97.7366955,"velocity":0.2677165354330709},{"duration":0.0789472499999988,"midi":55,"time":97.7366955,"velocity":0.2677165354330709},{"duration":0.0789472499999988,"midi":62,"time":97.7366955,"velocity":0.2677165354330709},{"duration":0.0789472499999988,"midi":59,"time":97.7366955,"velocity":0.2677165354330709},{"duration":0.394736249999994,"midi":74,"time":97.7366955,"velocity":0.1968503937007874},{"duration":0.2368417499999964,"midi":71,"time":97.81564275,"velocity":0.1968503937007874},{"duration":0.1578944999999976,"midi":43,"time":97.89459,"velocity":0.3937007874015748},{"duration":0.47368350000000703,"midi":71,"time":97.89459,"velocity":0.47244094488188976},{"duration":0.1578944999999976,"midi":31,"time":97.89459,"velocity":0.1968503937007874},{"duration":0.47368350000000703,"midi":74,"time":97.89459,"velocity":0.47244094488188976},{"duration":0.6315780000000046,"midi":86,"time":97.89459,"velocity":0.47244094488188976},{"duration":0.0789472499999988,"midi":67,"time":97.89459,"velocity":0.1968503937007874},{"duration":0.5526307500000058,"midi":71,"time":97.97353724999999,"velocity":0.1968503937007874},{"duration":0.0789472499999988,"midi":55,"time":98.05248449999999,"velocity":0.2677165354330709},{"duration":0.0789472499999988,"midi":62,"time":98.05248449999999,"velocity":0.2677165354330709},{"duration":0.0789472499999988,"midi":59,"time":98.05248449999999,"velocity":0.2677165354330709},{"duration":0.0789472499999988,"midi":50,"time":98.05248449999999,"velocity":0.2677165354330709},{"duration":0.3947362500000082,"midi":74,"time":98.05248449999999,"velocity":0.1968503937007874},{"duration":0.0789472499999988,"midi":79,"time":98.13143174999999,"velocity":0.1968503937007874},{"duration":0.15789450000001182,"midi":38,"time":98.21037899999999,"velocity":0.3937007874015748},{"duration":0.15789450000001182,"midi":26,"time":98.21037899999999,"velocity":0.1968503937007874},{"duration":0.3157890000000094,"midi":83,"time":98.21037899999999,"velocity":0.1968503937007874},{"duration":0.0789472499999988,"midi":79,"time":98.28932625,"velocity":0.1968503937007874},{"duration":0.0789472499999988,"midi":55,"time":98.3682735,"velocity":0.2677165354330709},{"duration":0.0789472499999988,"midi":72,"time":98.3682735,"velocity":0.47244094488188976},{"duration":0.0789472499999988,"midi":59,"time":98.3682735,"velocity":0.2677165354330709},{"duration":0.0789472499999988,"midi":84,"time":98.3682735,"velocity":0.47244094488188976},{"duration":0.0789472499999988,"midi":67,"time":98.3682735,"velocity":0.47244094488188976},{"duration":0.0789472499999988,"midi":62,"time":98.3682735,"velocity":0.2677165354330709},{"duration":0.1578944999999976,"midi":74,"time":98.3682735,"velocity":0.1968503937007874},{"duration":0.0789472499999988,"midi":50,"time":98.3682735,"velocity":0.2677165354330709},{"duration":0.0789472499999988,"midi":71,"time":98.44722075,"velocity":0.1968503937007874},{"duration":0.0789472499999988,"midi":69,"time":98.526168,"velocity":0.1968503937007874},{"duration":0.2368417499999964,"midi":64,"time":98.526168,"velocity":0.47244094488188976},{"duration":0.394736249999994,"midi":84,"time":98.526168,"velocity":0.31496062992125984},{"duration":0.1578944999999976,"midi":33,"time":98.526168,"velocity":0.1968503937007874},{"duration":0.9473669999999998,"midi":84,"time":98.526168,"velocity":0.47244094488188976},{"duration":0.1578944999999976,"midi":45,"time":98.526168,"velocity":0.3937007874015748},{"duration":0.1578944999999976,"midi":72,"time":98.526168,"velocity":0.1968503937007874},{"duration":0.3157889999999952,"midi":81,"time":98.526168,"velocity":0.1968503937007874},{"duration":0.6315779999999904,"midi":72,"time":98.526168,"velocity":0.47244094488188976},{"duration":0.7105252500000034,"midi":69,"time":98.526168,"velocity":0.1968503937007874},{"duration":0.7105252500000034,"midi":72,"time":98.60511525,"velocity":0.1968503937007874},{"duration":0.0789472499999988,"midi":57,"time":98.6840625,"velocity":0.23622047244094488},{"duration":0.0789472499999988,"midi":76,"time":98.6840625,"velocity":0.1968503937007874},{"duration":0.0789472499999988,"midi":60,"time":98.6840625,"velocity":0.2677165354330709},{"duration":0.0789472499999988,"midi":52,"time":98.6840625,"velocity":0.2677165354330709},{"duration":0.394736249999994,"midi":64,"time":98.6840625,"velocity":0.2677165354330709},{"duration":0.2368417499999964,"midi":81,"time":98.76300975,"velocity":0.1968503937007874},{"duration":0.1578944999999976,"midi":28,"time":98.841957,"velocity":0.1968503937007874},{"duration":0.7105252500000034,"midi":84,"time":98.841957,"velocity":0.1968503937007874},{"duration":0.1578944999999976,"midi":40,"time":98.841957,"velocity":0.3937007874015748},{"duration":0.5526307500000058,"midi":81,"time":98.92090424999999,"velocity":0.1968503937007874},{"duration":0.0789472499999988,"midi":52,"time":98.99985149999999,"velocity":0.2677165354330709},{"duration":0.0789472499999988,"midi":57,"time":98.99985149999999,"velocity":0.23622047244094488},{"duration":0.3947362500000082,"midi":64,"time":98.99985149999999,"velocity":0.2677165354330709},{"duration":0.0789472499999988,"midi":60,"time":98.99985149999999,"velocity":0.2677165354330709},{"duration":0.0789472499999988,"midi":76,"time":98.99985149999999,"velocity":0.1968503937007874},{"duration":0.3947362500000082,"midi":72,"time":99.07879874999999,"velocity":0.1968503937007874},{"duration":0.15789450000001182,"midi":33,"time":99.15774599999999,"velocity":0.1968503937007874},{"duration":0.6315780000000046,"midi":69,"time":99.15774599999999,"velocity":0.1968503937007874},{"duration":0.15789450000001182,"midi":45,"time":99.15774599999999,"velocity":0.3937007874015748},{"duration":0.5526307499999916,"midi":72,"time":99.23669325,"velocity":0.1968503937007874},{"duration":0.0789472499999988,"midi":60,"time":99.3156405,"velocity":0.2677165354330709},{"duration":0.1578944999999976,"midi":64,"time":99.3156405,"velocity":0.2677165354330709},{"duration":0.0789472499999988,"midi":52,"time":99.3156405,"velocity":0.2677165354330709},{"duration":0.0789472499999988,"midi":76,"time":99.3156405,"velocity":0.1968503937007874},{"duration":0.0789472499999988,"midi":57,"time":99.3156405,"velocity":0.23622047244094488},{"duration":0.2368417499999964,"midi":81,"time":99.39458775,"velocity":0.1968503937007874},{"duration":0.1578944999999976,"midi":40,"time":99.473535,"velocity":0.3937007874015748},{"duration":0.1578944999999976,"midi":28,"time":99.473535,"velocity":0.1968503937007874},{"duration":0.2368417499999964,"midi":64,"time":99.473535,"velocity":0.47244094488188976},{"duration":0.3157889999999952,"midi":67,"time":99.473535,"velocity":0.47244094488188976},{"duration":0.3157889999999952,"midi":84,"time":99.473535,"velocity":0.1968503937007874},{"duration":0.3157889999999952,"midi":79,"time":99.473535,"velocity":0.47244094488188976},{"duration":0.2368417499999964,"midi":81,"time":99.55248225,"velocity":0.1968503937007874},{"duration":0.0789472499999988,"midi":60,"time":99.6314295,"velocity":0.2677165354330709},{"duration":0.0789472499999988,"midi":76,"time":99.6314295,"velocity":0.1968503937007874},{"duration":0.0789472499999988,"midi":57,"time":99.6314295,"velocity":0.23622047244094488},{"duration":0.0789472499999988,"midi":52,"time":99.6314295,"velocity":0.2677165354330709},{"duration":0.1578944999999976,"midi":64,"time":99.6314295,"velocity":0.2677165354330709},{"duration":0.0789472499999988,"midi":72,"time":99.71037675,"velocity":0.1968503937007874},{"duration":0.6315780000000046,"midi":43,"time":99.789324,"velocity":0.5039370078740157},{"duration":0.6315780000000046,"midi":31,"time":99.789324,"velocity":0.4330708661417323},{"duration":0.3157889999999952,"midi":88,"time":99.789324,"velocity":0.47244094488188976},{"duration":0.3157889999999952,"midi":72,"time":99.789324,"velocity":0.4330708661417323},{"duration":0.3157889999999952,"midi":76,"time":99.789324,"velocity":0.47244094488188976},{"duration":0.3157890000000094,"midi":74,"time":100.10511299999999,"velocity":0.4330708661417323},{"duration":0.3157890000000094,"midi":89,"time":100.10511299999999,"velocity":0.47244094488188976},{"duration":0.3157890000000094,"midi":77,"time":100.10511299999999,"velocity":0.47244094488188976},{"duration":0.3157889999999952,"midi":71,"time":100.420902,"velocity":0.4330708661417323},{"duration":0.3157889999999952,"midi":74,"time":100.420902,"velocity":0.47244094488188976},{"duration":0.6315780000000046,"midi":44,"time":100.420902,"velocity":0.5039370078740157},{"duration":0.3157889999999952,"midi":86,"time":100.420902,"velocity":0.47244094488188976},{"duration":0.6315780000000046,"midi":32,"time":100.420902,"velocity":0.4330708661417323},{"duration":0.3157890000000094,"midi":84,"time":100.736691,"velocity":0.47244094488188976},{"duration":0.3157890000000094,"midi":72,"time":100.736691,"velocity":0.47244094488188976},{"duration":0.3157890000000094,"midi":64,"time":100.736691,"velocity":0.4330708661417323}]}]}
